<svg xmlns="http://www.w3.org/2000/svg" width="1em" height="1em" viewBox="0 0 36 36"><path fill="currentColor" d="M31 21H13a1 1 0 0 0 0 2h18a1 1 0 0 0 0-2" class="clr-i-outline clr-i-outline-path-1"/><path fill="currentColor" d="M12 16a1 1 0 0 0 1 1h18a1 1 0 0 0 0-2H13a1 1 0 0 0-1 1" class="clr-i-outline clr-i-outline-path-2"/><path fill="currentColor" d="M27 27H13a1 1 0 0 0 0 2h14a1 1 0 0 0 0-2" class="clr-i-outline clr-i-outline-path-3"/><path fill="currentColor" d="M15.89 9a1 1 0 0 0-1-1H10V3.21a1 1 0 0 0-2 0V8H2.89a1 1 0 0 0 0 2H8v5.21a1 1 0 0 0 2 0V10h4.89a1 1 0 0 0 1-1" class="clr-i-outline clr-i-outline-path-4"/><path fill="none" d="M0 0h36v36H0z"/></svg>