<svg xmlns="http://www.w3.org/2000/svg" width="1em" height="1em" viewBox="0 0 36 36"><path fill="currentColor" d="M5 1a1 1 0 0 0-1 1v32a1 1 0 0 0 2 0V2a1 1 0 0 0-1-1" class="clr-i-outline clr-i-outline-path-1"/><path fill="currentColor" d="M31 20H8v10h23a1 1 0 0 0 1-1v-8a1 1 0 0 0-1-1m-1 8H10v-6h20Z" class="clr-i-outline clr-i-outline-path-2"/><path fill="currentColor" d="M24 15V7a1 1 0 0 0-1-1H8v10h15a1 1 0 0 0 1-1m-2-1H10V8h12Z" class="clr-i-outline clr-i-outline-path-3"/><path fill="none" d="M0 0h36v36H0z"/></svg>