<svg xmlns="http://www.w3.org/2000/svg" width="1em" height="1em" viewBox="0 0 36 36"><path fill="currentColor" d="M34 29a2 2 0 0 1-2 2H4a2 2 0 0 1-2-2V7a2 2 0 0 1 2-2h17.958l-1.172 2H4v22h28V15.357h2Z" class="clr-i-outline--alerted clr-i-outline-path-1--alerted"/><path fill="currentColor" d="M7 12h10v14H7zm1.6 12.4h6.8v-5.6H8.6zm6.8-10.8H8.6v3.6h6.8z" class="clr-i-outline--alerted clr-i-outline-path-2--alerted"/><path fill="currentColor" d="M29 24H19v-8.655c.021.003 1.6.015 1.6.015v1.84h6.8v-1.84l1.6-.003zm-1.6-5.2h-6.8v3.6h6.8z" class="clr-i-outline--alerted clr-i-outline-path-3--alerted"/><path fill="currentColor" d="m26.854 1.144l-5.72 9.86a1.28 1.28 0 0 0 1.1 2h11.45a1.28 1.28 0 0 0 1.1-2l-5.72-9.86a1.28 1.28 0 0 0-2.21 0" class="clr-i-outline--alerted clr-i-outline-path-4--alerted clr-i-alert"/><path fill="none" d="M0 0h36v36H0z"/></svg>