<svg xmlns="http://www.w3.org/2000/svg" width="1em" height="1em" viewBox="0 0 36 36"><rect width="32" height="8" x="2" y="22" fill="currentColor" class="clr-i-solid clr-i-solid-path-1" rx="1" ry="1"/><path fill="currentColor" d="m18 20.7l-5.79-5.79a1 1 0 0 1 0-1.41a1 1 0 0 1 1.41 0L18 17.87l4.38-4.37a1 1 0 0 1 1.41 0a1 1 0 0 1 0 1.41Z" class="clr-i-solid clr-i-solid-path-2"/><path fill="currentColor" d="m18 14.5l-5.79-5.79a1 1 0 0 1 0-1.42a1 1 0 0 1 1.41 0L18 11.67l4.38-4.38a1 1 0 0 1 1.41 0a1 1 0 0 1 0 1.42Z" class="clr-i-solid clr-i-solid-path-3"/><path fill="none" d="M0 0h36v36H0z"/></svg>