<svg xmlns="http://www.w3.org/2000/svg" width="1em" height="1em" viewBox="0 0 36 36"><path fill="currentColor" d="M10 10a1 1 0 0 0 1-1V3a1 1 0 0 0-2 0v6a1 1 0 0 0 1 1" class="clr-i-solid--alerted clr-i-solid-path-1--alerted"/><path fill="currentColor" d="M33.68 15.4H26.3a1.34 1.34 0 0 1-.36 1.18l-9.67 9.67L11 20.94A1.36 1.36 0 0 1 12.9 19l3.38 3.38l7-7h-1A3.68 3.68 0 0 1 19 9.89L21.29 6H12.2v3a2.2 2.2 0 0 1-4.4 0V6h-4A1.78 1.78 0 0 0 2 7.81v22.38A1.78 1.78 0 0 0 3.75 32h28.5A1.78 1.78 0 0 0 34 30.19V15.38Z" class="clr-i-solid--alerted clr-i-solid-path-2--alerted"/><path fill="currentColor" d="M26.85 1.14L21.13 11a1.28 1.28 0 0 0 1.1 2h11.45a1.28 1.28 0 0 0 1.1-2l-5.72-9.86a1.28 1.28 0 0 0-2.21 0" class="clr-i-solid--alerted clr-i-solid-path-3--alerted clr-i-alert"/><path fill="none" d="M0 0h36v36H0z"/></svg>