<svg xmlns="http://www.w3.org/2000/svg" width="1em" height="1em" viewBox="0 0 36 36"><path fill="currentColor" d="M31 10H13a1 1 0 0 0-1 1v22a1 1 0 0 0 1 1h18a1 1 0 0 0 1-1V11a1 1 0 0 0-1-1m-3 16H16v-2h12Zm0-4H16v-2h12Zm0-4H16v-2h12Z" class="clr-i-solid clr-i-solid-path-1"/><path fill="currentColor" d="M6 24V4h18V3a1 1 0 0 0-1-1H5a1 1 0 0 0-1 1v22a1 1 0 0 0 1 1h1Z" class="clr-i-solid clr-i-solid-path-2"/><path fill="currentColor" d="M10 28V8h18V7a1 1 0 0 0-1-1H9a1 1 0 0 0-1 1v22a1 1 0 0 0 1 1h1Z" class="clr-i-solid clr-i-solid-path-3"/><path fill="none" d="M0 0h36v36H0z"/></svg>