<svg xmlns="http://www.w3.org/2000/svg" width="1em" height="1em" viewBox="0 0 36 36"><path fill="currentColor" d="M14 4H6a2 2 0 0 0-2 2v8a2 2 0 0 0 2 2h8a2 2 0 0 0 2-2V6a2 2 0 0 0-2-2M6 14V6h8v8Z" class="clr-i-outline clr-i-outline-path-1"/><path fill="currentColor" d="M30 4h-8a2 2 0 0 0-2 2v8a2 2 0 0 0 2 2h8a2 2 0 0 0 2-2V6a2 2 0 0 0-2-2m-8 10V6h8v8Z" class="clr-i-outline clr-i-outline-path-2"/><path fill="currentColor" d="M14 20H6a2 2 0 0 0-2 2v8a2 2 0 0 0 2 2h8a2 2 0 0 0 2-2v-8a2 2 0 0 0-2-2M6 30v-8h8v8Z" class="clr-i-outline clr-i-outline-path-3"/><path fill="currentColor" d="M30 20h-8a2 2 0 0 0-2 2v8a2 2 0 0 0 2 2h8a2 2 0 0 0 2-2v-8a2 2 0 0 0-2-2m-8 10v-8h8v8Z" class="clr-i-outline clr-i-outline-path-4"/><path fill="none" d="M0 0h36v36H0z"/></svg>