<svg xmlns="http://www.w3.org/2000/svg" width="1em" height="1em" viewBox="0 0 26 26"><path fill="currentColor" d="M16.688 0c-.2.008-.393.044-.594.094L2.5 3.406C.892 3.8-.114 5.422.281 7.031l1.906 7.782A2.99 2.99 0 0 0 4 16.875V15c0-2.757 2.243-5 5-5h12.594l-1.875-7.719A3.004 3.004 0 0 0 16.687 0zm1.218 4.313l.813 3.406l-3.375.812l-.844-3.375zM9 12c-1.656 0-3 1.344-3 3v8c0 1.656 1.344 3 3 3h14c1.656 0 3-1.344 3-3v-8c0-1.656-1.344-3-3-3zm0 1.594h14c.771 0 1.406.635 1.406 1.406v1H7.594v-1c0-.771.635-1.406 1.406-1.406M7.594 19h16.812v4c0 .771-.635 1.406-1.406 1.406H9A1.414 1.414 0 0 1 7.594 23z"/></svg>