<svg xmlns="http://www.w3.org/2000/svg" width="1em" height="1em" viewBox="0 0 26 26"><path fill="currentColor" d="M9.5 0C7.6 0 6 1.6 6 3.5S7.6 7 9.5 7c1.36 0 2.55-.836 3.125-2H19l1-1V3l-1-1h-1l-.813.813L16.5 2h-.813l-.593.594L14.406 2h-1.781C12.049.836 10.861 0 9.5 0m-1 2.5c.6 0 1 .4 1 1s-.4 1-1 1s-1-.4-1-1s.4-1 1-1M9.094 9a4.06 4.06 0 0 0-3.906 3l-.72 3H4c-.6 0-1 .4-1 1v1c0 .6.4 1 1 1v7c0 .6.4 1 1 1h2c.6 0 1-.4 1-1v-1h10v1c0 .6.4 1 1 1h2c.6 0 1-.4 1-1v-7c.6 0 1-.4 1-1v-1c0-.6-.4-1-1-1h-.469l-.718-3c-.5-1.8-2.107-3-3.907-3zm0 2h7.812c.9 0 1.707.6 1.907 1.5l.843 3.5H6.344l.843-3.5c.2-.9 1.007-1.5 1.907-1.5M7.5 19c.8 0 1.5.7 1.5 1.5S8.3 22 7.5 22S6 21.3 6 20.5S6.7 19 7.5 19m11 0c.8 0 1.5.7 1.5 1.5s-.7 1.5-1.5 1.5s-1.5-.7-1.5-1.5s.7-1.5 1.5-1.5"/></svg>