<svg xmlns="http://www.w3.org/2000/svg" width="1em" height="1em" viewBox="0 0 20 20"><path fill="currentColor" d="M9.987.4c-2.658 0-4.91.928-6.752 2.784C1.345 5.104.4 7.376.4 10c0 2.624.945 4.88 2.835 6.768c1.89 1.888 4.142 2.832 6.752 2.832c2.644 0 4.935-.952 6.874-2.856C18.687 14.936 19.6 12.688 19.6 10c0-2.688-.93-4.96-2.787-6.816C14.954 1.328 12.679.4 9.987.4m.024 1.727c2.18 0 4.03.769 5.552 2.305C17.101 5.952 17.87 7.807 17.87 10c0 2.208-.753 4.04-2.259 5.496c-1.586 1.568-3.452 2.352-5.6 2.352c-2.146 0-3.996-.776-5.55-2.328c-1.554-1.552-2.33-3.392-2.33-5.52c0-2.128.784-3.984 2.354-5.568c1.506-1.536 3.348-2.305 5.526-2.305"/><path fill="currentColor" d="M13.932 7.25h-2.1V5.159a.525.525 0 0 0-.525-.525H6.02a.525.525 0 0 0-.479.525v7.069c0 .29.235.525.525.525h2.1v2.09c0 .29.235.525.525.525h5.24c.29 0 .526-.235.526-.525V7.775a.525.525 0 0 0-.525-.525m-7.34 4.453V5.684h4.19V7.25H8.635a.525.525 0 0 0-.469.525v3.928zM13.406 8.3v6.018h-4.19V8.3z"/></svg>