<svg xmlns="http://www.w3.org/2000/svg" width="1em" height="1em" viewBox="0 0 48 48"><path fill="none" stroke="currentColor" stroke-linecap="round" stroke-linejoin="round" d="m32.975 39.175l4.17-9.282l2.308 9.91m-.766-3.343l-4.318-.419m-9.36 2.361l.93-9.596l2.16.21c2.28.22 4.012 2.326 3.791 4.605l-.116 1.2c-.221 2.279-2.327 4.012-4.606 3.79zm-15.437-5.74c.776.815 1.667 1.19 2.96 1.103l1.725-.115a2.89 2.89 0 0 0 2.684-3.066h0a2.89 2.89 0 0 0-3.067-2.683l-1.868.124a2.89 2.89 0 0 1-3.067-2.683h0a2.89 2.89 0 0 1 2.684-3.066l1.724-.115c1.294-.086 2.175.144 2.961 1.102m2.88-1.53l.766 11.498m9.438-12.67l-4.614-1.303l2.607-9.23l4.614 1.304m-5.918 3.311l3 .847m3.277 4.788c.381.855.976 1.396 2.014 1.69l1.384.39a2.405 2.405 0 0 0 2.96-1.655h0a2.405 2.405 0 0 0-1.656-2.959l-1.5-.424a2.405 2.405 0 0 1-1.656-2.958h0a2.405 2.405 0 0 1 2.96-1.656l1.384.391c1.038.293 1.665.72 2.014 1.69m-21.04 2.901l1.303-4.614m4.302-3.767l-4.302 3.767l-1.696-5.462"/><rect width="37" height="37" x="5.5" y="5.5" fill="none" stroke="currentColor" stroke-linecap="round" stroke-linejoin="round" rx="2" ry="2"/></svg>