<svg xmlns="http://www.w3.org/2000/svg" width="1em" height="1em" viewBox="0 0 48 48"><path fill="none" stroke="currentColor" stroke-linecap="round" stroke-linejoin="round" d="M27.008 16.739a4.736 4.736 0 0 1 5.671-4.641c1.984.381 3.569 2.097 3.766 4.108c.147 1.496-.326 2.972-1.36 3.879c-1.913 1.68-8.077 6.207-8.077 6.207h9.464m-24.944-12.34l3.571-1.945v14.285m4.161-12.34l3.57-1.945v14.285M37.5 29.71v6.283m-8.45-.007V29.71l3.141 6.283l3.142-6.273v6.273m-8.42-4.202a2.081 2.081 0 0 0-4.162 0v2.12a2.08 2.08 0 1 0 4.162 0zM16.625 29.71v4.202a2.08 2.08 0 1 0 4.162 0V29.71m-10.163 5.594c.386.502.869.689 1.54.689h.93c.866 0 1.568-.702 1.568-1.568v-.006c0-.866-.702-1.568-1.567-1.568h-1.026a1.569 1.569 0 0 1-1.569-1.568c0-.869.704-1.573 1.572-1.573h.925c.672 0 1.156.187 1.54.688"/><path fill="none" stroke="currentColor" stroke-linecap="round" stroke-linejoin="round" d="M40.5 5.5h-33a2 2 0 0 0-2 2v33a2 2 0 0 0 2 2h33a2 2 0 0 0 2-2v-33a2 2 0 0 0-2-2"/></svg>