<svg xmlns="http://www.w3.org/2000/svg" width="1em" height="1em" viewBox="0 0 48 48"><path fill="none" stroke="currentColor" stroke-linecap="round" stroke-linejoin="round" d="M37.116 23.423H27.16a2.583 2.583 0 0 1-2.582-2.583v-9.955a2.583 2.583 0 0 1 2.582-2.583h9.956a2.583 2.583 0 0 1 2.583 2.583v9.955a2.583 2.583 0 0 1-2.583 2.583m-13.781 3.066a2.559 2.559 0 0 0-1.824-1.82a2.47 2.47 0 0 0-.672-.093h-9.955a2.583 2.583 0 0 0-2.58 2.585v9.955a2.582 2.582 0 0 0 2.58 2.58h8.907"/><path fill="none" stroke="currentColor" stroke-linecap="round" stroke-linejoin="round" d="M22.183 22.183a2.59 2.59 0 0 0 2.487-.672m-12.165-9.006l4.456-7.713a2.583 2.583 0 0 1 3.53-.945l7.718 4.456m-2.392 17.514a2.582 2.582 0 0 0-2.482.672c-.16.155-.296.334-.414.536l-4.977 8.625a2.579 2.579 0 0 0 .945 3.525l.902.522l7.718 4.455a2.583 2.583 0 0 0 3.53-.944l4.456-7.714"/><path fill="none" stroke="currentColor" stroke-linecap="round" stroke-linejoin="round" d="m8.303 28.21l-4.456-7.72a2.583 2.583 0 0 1 .945-3.53l7.713-4.456l.908-.521a2.591 2.591 0 0 1 3.53.944l4.977 8.626c.118.202.202.413.263.63a2.59 2.59 0 0 1-.672 2.486m4.978-1.334a2.581 2.581 0 0 0-.672 2.482c.06.216.145.427.263.63l4.978 8.625a2.583 2.583 0 0 0 3.53.944l.907-.521l7.713-4.456a2.583 2.583 0 0 0 .945-3.53l-4.456-7.718m-7.559-6.867c-2.077 0-3.889 1.18-4.876 2.934c.987 1.754 2.799 2.934 4.876 2.934s3.889-1.18 4.876-2.934c-.987-1.755-2.798-2.934-4.876-2.934"/><circle cx="32.138" cy="15.858" r="1.658" fill="none" stroke="currentColor" stroke-linecap="round" stroke-linejoin="round"/><path fill="none" stroke="currentColor" stroke-linecap="round" stroke-linejoin="round" d="m33.31 14.685l-2.344 2.345"/></svg>