<svg xmlns="http://www.w3.org/2000/svg" width="1em" height="1em" viewBox="0 0 48 48"><path fill="none" stroke="currentColor" stroke-linecap="round" stroke-linejoin="round" d="M32.424 34.572L5.5 38.86m37-21.444l-10.656-1.68m-13.532-2.133L5.5 11.583m37 21.641V7.5a2 2 0 0 0-2-2h-33a2 2 0 0 0-2 2v33a2 2 0 0 0 2 2h25.895"/><path fill="none" stroke="currentColor" stroke-linecap="round" stroke-linejoin="round" d="M22.462 36.156c.05-4.712-.703-8.98-6.123-8.594a9.757 9.757 0 0 1-2.096-6.042A9.757 9.757 0 0 1 24 11.763a9.757 9.757 0 0 1 9.757 9.757h0a9.64 9.64 0 0 1-2.12 6.042c-5.254-.373-6.138 3.595-6.148 8.111M36.5 38.614a2 2 0 0 1 2-2h0a2 2 0 0 1 2 2v1.3a2 2 0 0 1-2 2h0a2 2 0 0 1-2-2m0 1.999v-8"/><circle cx="38" cy="37.913" r="6.5" fill="none" stroke="currentColor" stroke-linecap="round" stroke-linejoin="round"/></svg>