<svg xmlns="http://www.w3.org/2000/svg" width="1em" height="1em" viewBox="0 0 48 48"><path fill="none" stroke="currentColor" stroke-linecap="round" stroke-linejoin="round" d="M40.5 5.5h-33a2 2 0 0 0-2 2v33a2 2 0 0 0 2 2h33a2 2 0 0 0 2-2v-33a2 2 0 0 0-2-2M29.86 17.857L38 30.143m0-12.286l-8.14 12.286"/><path fill="none" stroke="currentColor" stroke-linecap="round" stroke-linejoin="round" d="M28.14 26.487a4.07 4.07 0 0 1-4.05 3.656h0a4.07 4.07 0 0 1-4.07-4.07v-4.146a4.07 4.07 0 0 1 4.07-4.07h0a4.07 4.07 0 0 1 4.05 3.654"/><path fill="none" stroke="currentColor" stroke-linecap="round" stroke-linejoin="round" d="m28.16 24.001l-1.91-1.867v3.735zm-18.159 5.106c.849.71 1.764 1.036 3.82 1.036h.48a3.07 3.07 0 0 0 3.07-3.07h0A3.07 3.07 0 0 0 14.302 24"/><path fill="none" stroke="currentColor" stroke-linecap="round" stroke-linejoin="round" d="M10 18.883c.85-.708 1.767-1.032 3.823-1.026l.478.003a3.07 3.07 0 0 1 3.07 3.07h0a3.07 3.07 0 0 1-3.07 3.071m-2.361.001h2.361"/></svg>