<svg xmlns="http://www.w3.org/2000/svg" width="1em" height="1em" viewBox="0 0 48 48"><path fill="none" stroke="currentColor" stroke-linecap="round" stroke-linejoin="round" d="M28.47 23.042c2.038-6.178-1.317-12.84-7.495-14.878c-6.178-2.04-12.84 1.316-14.878 7.494c-2.04 6.178 1.316 12.84 7.494 14.878a11.78 11.78 0 0 0 9.06-.7l2.09 2.079l1.278-1.277l9.784 9.787h5.695l1.002-3.358zm-14.167-2.83a3.734 3.734 0 1 1 3.734-3.734v.003a3.73 3.73 0 0 1-3.731 3.731z"/><path fill="none" stroke="currentColor" stroke-linecap="round" stroke-linejoin="round" d="m26.02 30.646l9.784 9.787H41.5L28.867 27.799z"/></svg>