<svg xmlns="http://www.w3.org/2000/svg" width="1em" height="1em" viewBox="0 0 48 48"><circle cx="24" cy="24" r="21.5" fill="none" stroke="currentColor" stroke-linecap="round" stroke-linejoin="round"/><path fill="none" stroke="currentColor" stroke-linecap="round" stroke-linejoin="round" d="M29.882 19.382v9.236H34.5m-13.137 0v-9.236h2.078a4.04 4.04 0 0 1 4.04 4.04v1.155a4.04 4.04 0 0 1-4.04 4.041zm-7.862-.779c.638.534 1.326.779 2.872.779h.36a2.308 2.308 0 0 0 2.308-2.308h0A2.308 2.308 0 0 0 16.734 24M13.5 20.154c.639-.533 1.328-.776 2.874-.772l.36.002a2.308 2.308 0 0 1 2.307 2.309h0A2.308 2.308 0 0 1 16.734 24m-1.775.001h1.774"/></svg>