<svg xmlns="http://www.w3.org/2000/svg" width="1em" height="1em" viewBox="0 0 48 48"><path fill="none" stroke="currentColor" stroke-linecap="round" stroke-linejoin="round" d="m9.348 12.052l14.948-6.517L37.375 9.09l-15.478 7.87z"/><path fill="none" stroke="currentColor" stroke-linecap="round" stroke-linejoin="round" d="m12.264 13.155l3.462 25.86L24 43.5l4.822-3.168"/><path fill="none" stroke="currentColor" d="m23.755 16.116l.358 27.08"/><path fill="none" stroke="currentColor" stroke-linecap="round" stroke-linejoin="round" d="m36.378 9.531l-3.15 22.083"/><path fill="none" stroke="currentColor" d="M33.229 31.768c-2.813-.14-6.106 6.814-3.505 8.574s4.666-1.82 5.054-2.76c.363-.884 1.853-5.645-1.55-5.814Z"/><path fill="none" stroke="currentColor" stroke-linecap="round" stroke-linejoin="round" d="M11.974 10.88c-.08-1.311.06-1.76 1.565-2.391c1.507-.633 2.29-.436 2.399.417m8.68 6.456c-.502-1.23.387-1.657 1.317-2.173c.93-.516 2.073-.722 2.4.174m-10.781-2.746C21.028 11.73 23 12.272 23 12.272l5.325-2.385"/><circle cx="32.357" cy="36.396" r=".75" fill="currentColor"/><path fill="none" stroke="currentColor" stroke-linecap="round" stroke-linejoin="round" d="m25.684 4.5l12.968 3.498"/></svg>