<svg xmlns="http://www.w3.org/2000/svg" width="1em" height="1em" viewBox="0 0 48 48"><path fill="none" stroke="currentColor" stroke-linecap="round" stroke-linejoin="round" d="M12.754 36.248a11.255 11.255 0 0 1 .921-4.944m0 0a11.256 11.256 0 0 1 4.354-5.06m0 0a11.256 11.256 0 0 1 11.943.001m0 0a11.256 11.256 0 0 1 4.353 5.058m0 0c.614 1.415.93 2.94.93 4.483h0c0 .154-.003.308-.009.462M4.5 26.908V11.752h4.875m0 0H24m14.625 0H24l19.5 24.495m0 0v-9.339"/><path fill="none" stroke="currentColor" stroke-linecap="round" stroke-linejoin="round" d="M43.5 26.908V11.752h-4.875L24 36.247"/><path fill="none" stroke="currentColor" stroke-linecap="round" stroke-linejoin="round" d="M43.5 36.247H24L9.375 11.752M4.5 36.247v-9.339l19.5 9.34"/><path fill="none" stroke="currentColor" stroke-linecap="round" stroke-linejoin="round" d="M24 11.752L4.5 36.247H24l19.5-9.339"/></svg>