<svg xmlns="http://www.w3.org/2000/svg" width="1em" height="1em" viewBox="0 0 48 48"><path fill="none" stroke="currentColor" stroke-linecap="round" stroke-linejoin="round" d="M25.374 10.18c4.794 0 8.495 4.371 8.301 9.76"/><path fill="none" stroke="currentColor" stroke-linecap="round" stroke-linejoin="round" d="M29.525 16.716c.467.28.654.56 1.588 1.307a46.814 46.814 0 0 0 3.174 2.334c1.12.747 1.027 1.4.84 2.521s-.28 2.8.187 3.921c.467 1.12.746 1.4-.187 1.96c-.934.56-1.494 1.4-.747 3.922c.746 2.52-1.4 6.068-3.454 8.495c-2.054 2.427-3.04 2.323-3.04 2.323s.628-.27.49-6.93c-.044-2.108-.096-4.223-.056-6.33c.011-.604-.217-1.558.135-2.091c.428-.648 1.662-.847 2.284-1.345c1.4-1.12 1.197-1.414.28-1.955c-1.027-.607-1.4-1.112-2.801-1.112c-1.4 0-2.333 1.101-2.614 2.782c-.28 1.68-.653 2.892-1.587 2.892h-.034m-9.658-9.47c-.194-5.389 3.507-9.76 8.3-9.76"/><path fill="none" stroke="currentColor" stroke-linecap="round" stroke-linejoin="round" d="M22.955 13.803s-.746-8.142-.746-8.422c0-.28 0-.88.933-.88v0h1.716v0c.933 0 .933.6.933.88s-.746 8.422-.746 8.422M24.017 29.41h-.034c-.933 0-1.308-1.212-1.587-2.892c-.28-1.68-1.214-2.782-2.614-2.782s-1.774.505-2.8 1.112c-.918.54-1.122.835.279 1.955c.622.498 1.856.697 2.284 1.345c.352.533.124 1.487.135 2.091c.04 2.107-.012 4.222-.056 6.33c-.138 6.66.49 6.93.49 6.93s-.986.104-3.04-2.323c-2.054-2.427-4.2-5.975-3.454-8.495c.747-2.521.187-3.361-.746-3.922c-.934-.56-.655-.84-.188-1.96s.375-2.8.188-3.921s-.28-1.774.84-2.52a46.814 46.814 0 0 0 3.173-2.335c.934-.747 1.121-1.027 1.588-1.307"/></svg>