<svg xmlns="http://www.w3.org/2000/svg" width="1em" height="1em" viewBox="0 0 48 48"><path fill="none" stroke="currentColor" stroke-linecap="round" stroke-linejoin="round" d="M22.787 10.425c1.33 0 2.107.936 2.107 3.597s-1.961 8.003-3.475 11.442c-1.7 3.863-6.083 12.218-8.909 12.11c-1.287-.049-1.965-.74-2.008-1.81c-.049-1.206.835-1.955 2.544-3.11c2.812-1.9 6.97-3.26 11.21-4.376c4.215-1.11 5.351-1.465 8.919-1.465s4.325 1.201 4.325 2.403s-1.017 1.867-2.31 1.867c-1.418 0-4.031-.011-9.205-6.21c-4.611-5.527-5.042-8.799-5.042-11.165s.55-3.283 1.844-3.283"/><path fill="none" stroke="currentColor" stroke-linecap="round" stroke-linejoin="round" d="M38.5 5.5h-29a4 4 0 0 0-4 4v29a4 4 0 0 0 4 4h29a4 4 0 0 0 4-4v-29a4 4 0 0 0-4-4"/><path fill="none" stroke="currentColor" stroke-linecap="round" stroke-linejoin="round" d="M34.2 15.225c.4.3.8.4 1.6.4h.4c.7 0 1.3-.6 1.3-1.3h0c0-.7-.6-1.3-1.3-1.3h-.9c-.7 0-1.3-.6-1.3-1.3h0c0-.7.6-1.3 1.3-1.3h.4c.9 0 1.3.1 1.6.4"/></svg>