<svg xmlns="http://www.w3.org/2000/svg" width="1em" height="1em" viewBox="0 0 48 48"><path fill="none" stroke="currentColor" stroke-linecap="round" stroke-linejoin="round" d="M42.01 37.488a19.432 19.432 0 0 0 1.49-7.476c0-10.77-8.73-19.5-19.5-19.5s-19.5 8.73-19.5 19.5c0 2.65.534 5.173 1.49 7.476m15.908-8.132h8.24"/><path fill="none" stroke="currentColor" stroke-linecap="round" stroke-linejoin="round" d="M21.898 29.356c-2.229 0-4.036 1.82-4.036 4.066c0 2.246 1.807 4.066 4.036 4.066h2.137c3.364 0 6.091-2.748 6.091-6.138"/><path fill="none" stroke="currentColor" stroke-linecap="round" stroke-linejoin="round" d="M19.397 22.835c1.479-1.482 2.515-1.612 5.37-1.612c3.241 0 5.37 1.426 5.37 5.28v10.985"/></svg>