<svg xmlns="http://www.w3.org/2000/svg" width="1em" height="1em" viewBox="0 0 48 48"><path fill="none" stroke="currentColor" stroke-linecap="round" stroke-linejoin="round" d="M35.623 10.988a5.488 5.488 0 1 1-10.976 0a5.488 5.488 0 0 1 10.976 0"/><path fill="none" stroke="currentColor" stroke-linecap="round" stroke-linejoin="round" d="M40.967 23.714c-3.106 1.358-12.408 1.183-12.408 1.183s-.737.343-.277.773c4.215 4.162 7.805 9.549 9.868 14.917l-.116-.086L32.66 42.5c-1.577-4.374-5.355-8.187-9.342-10.515c-4.753 5.173-12.415 6.47-15.056 7.073l-1.229-5.75c15.593-4.301 9.536-8.076 17.47-17.753l.132.103l.023-.111c3.108 3.724 10.91 4.232 15.698 3.115z"/></svg>