<svg xmlns="http://www.w3.org/2000/svg" width="1em" height="1em" viewBox="0 0 48 48"><path fill="none" stroke="currentColor" stroke-linecap="round" stroke-linejoin="round" d="M11.03 26.383c-1.636-.129-3.865-1.073-3.814-5.103c.004-.442.027-.875.064-1.308m.24-1.714C9.003 10.433 15.76 4.5 24 4.5m-3.401 30.457a3.4 3.4 0 0 0 6.8 0m-7.507-7.884h8.213m-8.213-2.886a10.509 10.509 0 0 1 8.213 0m0 5.773a10.509 10.509 0 0 1-8.213 0"/><path fill="none" stroke="currentColor" stroke-linecap="round" stroke-linejoin="round" d="M16.833 21.77L9.447 17.9a1.581 1.581 0 0 0-2.065.545h0a1.581 1.581 0 0 0 .616 2.266l6.65 3.367m2.185-5.27v-1.446m20.803 1.018a13.872 13.872 0 0 0-3.576-6.74a1.042 1.042 0 0 0-1.7.276a3.622 3.622 0 0 1-.599.852c-.534.59-1.276.976-2.072.976a2.934 2.934 0 0 1-2.847-2.238A2.924 2.924 0 0 1 24 13.744a2.93 2.93 0 0 1-2.846-2.238a2.93 2.93 0 0 1-2.847 2.238c-.797 0-1.534-.387-2.073-.976c-.322-.355-.539-.691-.672-1.013c-.24-.585-1.027-.724-1.47-.277a13.925 13.925 0 0 0-3.73 6.9"/><path fill="none" stroke="currentColor" stroke-linecap="round" stroke-linejoin="round" d="m10.067 21.754l.013.3a13.86 13.86 0 0 0 .95 4.33c1.948 4.886 6.6 8.465 12.063 8.81c7.948.502 14.574-5.659 14.837-13.435M13.552 40.266h3.821V43.5"/><path fill="none" stroke="currentColor" stroke-linecap="round" stroke-linejoin="round" d="M30.7 33.493c2.269 2.124 3.798 5.302 4.058 8.908a1.01 1.01 0 0 1-.998 1.099H14.24c-.592 0-1.041-.51-.999-1.1c.26-3.605 1.79-6.783 4.058-8.907M40.72 19.972c.037.433.06.866.065 1.308c.05 4.03-2.18 4.975-3.814 5.103M24 4.5c8.24 0 14.997 5.933 16.48 13.758m-9.27 14.958s2.684-3.715 2.141-9.139c0 0-3.641-5.191-9.35-5.191h-.003c-5.708 0-9.35 5.191-9.35 5.191c-.542 5.424 2.142 9.139 2.142 9.139"/><path fill="none" stroke="currentColor" stroke-linecap="round" stroke-linejoin="round" d="m31.167 21.77l7.386-3.871a1.581 1.581 0 0 1 2.065.545h0c.506.789.22 1.843-.616 2.266l-6.65 3.367m-2.185-5.269v-1.446m3.281 22.904h-3.821V43.5"/></svg>