<svg xmlns="http://www.w3.org/2000/svg" width="1em" height="1em" viewBox="0 0 48 48"><path fill="none" stroke="currentColor" stroke-linecap="round" stroke-linejoin="round" d="m43.17 33.686l-16.58 6.558a.52.52 0 0 1-.713-.484V24.969a.52.52 0 0 1 .332-.486l16.582-6.434a.52.52 0 0 1 .709.485v14.667a.52.52 0 0 1-.33.485M22.167 8.028L7.04 14.2a.52.52 0 0 0 .005.967l15.157 6.018c.981.39 2.073.392 3.056.008l15.398-6.025a.52.52 0 0 0 .004-.969L25.296 8.02a4.167 4.167 0 0 0-3.129.009ZM4.5 32.366V18.582c0-.368.37-.62.712-.484l15.814 6.25a.52.52 0 0 1 .033.955L5.245 32.836a.52.52 0 0 1-.745-.47"/></svg>