<svg xmlns="http://www.w3.org/2000/svg" width="1em" height="1em" viewBox="0 0 48 48"><path fill="none" stroke="currentColor" stroke-linecap="round" stroke-linejoin="round" d="M40.5 5.5h-33a2 2 0 0 0-2 2v33a2 2 0 0 0 2 2h33a2 2 0 0 0 2-2v-33a2 2 0 0 0-2-2"/><path fill="none" stroke="currentColor" stroke-linecap="round" stroke-linejoin="round" d="M5.58 41.034C12.749 42.5 19.197 33.716 18.468 27.9c1.29-.04 2.748-1.274 2.86-2.9c4.43-.392 9.797-4.935 10.45-8.86c.85 3.309-1.478 4.346-.805 6.168C36.187 19 36.187 8.458 28.897 5.5"/><path fill="none" stroke="currentColor" stroke-linecap="round" stroke-linejoin="round" d="M30.972 22.308c.305.883.919 2.134 1.356 2.985a1.061 1.061 0 0 1-.465 1.43l-1.732.884c.069.457.17.805.276 1.068c.224.553-.1 1.171-.691 1.25a5.271 5.271 0 0 1-.875.038c.449.757.365 1.71-.7 2.046c.28 1.991-.533 3.112-2.3 3s-3.476-2.159-5.075-2.018s-3.914 5.636-7.368 5.748"/></svg>