<svg xmlns="http://www.w3.org/2000/svg" width="1em" height="1em" viewBox="0 0 48 48"><path fill="none" stroke="currentColor" stroke-linecap="round" stroke-linejoin="round" d="M40.5 20.759v19.74a2 2 0 0 1-2 2h-29a2 2 0 0 1-2-2V20.76m-2-6.37h37v6.369h-37zm18.5 0c-5.748-8.874-9.112-10.892-12.244-7c-3.27 4.064 4.029 7 12.244 7m0 0l-5.201-2.65M24 14.39c5.748-8.874 9.112-10.892 12.244-7c3.27 4.064-4.029 7-12.244 7m0 0l5.201-2.65"/><path fill="none" stroke="currentColor" stroke-linecap="round" stroke-linejoin="round" d="M22.256 27.564v7c0 .6.4 1 1 1h.3m9.417-2c0 1.1-.9 2-2 2h0c-1.1 0-2-.9-2-2v-1.3c0-1.1.9-2 2-2h0c1.1 0 2 .9 2 2m0 3.3v-5.4m-7.193 5.4v-6.7c0-.8.6-1.4 1.4-1.4h0c.7 0 1.1.2 1.4.6m-4 2.1h2.8m-7.853 2.7h-3.6m-.9 2.7l2.7-8l2.7 8"/></svg>