<svg xmlns="http://www.w3.org/2000/svg" width="1em" height="1em" viewBox="0 0 48 48"><path fill="none" stroke="currentColor" stroke-linecap="round" stroke-linejoin="round" d="M41.365 19.837h-7.86l-7.77-13a2 2 0 0 0-3.5 0l-7.77 13h-7.86a3.12 3.12 0 0 0-3 3.93l4.38 16.31a2.84 2.84 0 0 0 2.74 2.1h26.5a2.84 2.84 0 0 0 2.76-2.1l4.41-16.31a3.12 3.12 0 0 0-3.03-3.93m-17.38-8l4.77 8h-9.54Z"/><path fill="none" stroke="currentColor" stroke-linecap="round" stroke-linejoin="round" d="M36.908 32.575a1.886 1.886 0 0 1-1.892-1.87v-1.214a1.886 1.886 0 0 1 1.892-1.87h0a1.886 1.886 0 0 1 1.892 1.87v1.215a1.886 1.886 0 0 1-1.892 1.869m-5.24-4.953v4.953m0-3.084a1.886 1.886 0 0 1 1.892-1.87h0m-20.575 3.085a1.886 1.886 0 0 1-1.893 1.869h0a1.886 1.886 0 0 1-1.892-1.87v-1.214a1.886 1.886 0 0 1 1.892-1.87h0a1.886 1.886 0 0 1 1.892 1.87m.001 3.084v-4.953m2.279-2.524v7.477m2.263-7.477v7.477m5.768-.935a1.835 1.835 0 0 1-1.608.935h0a1.886 1.886 0 0 1-1.893-1.87v-1.214a1.886 1.886 0 0 1 1.893-1.87h0a1.886 1.886 0 0 1 1.892 1.87v.654h-3.785m7.822-2.523a1.886 1.886 0 0 1 1.892 1.869v1.215a1.886 1.886 0 0 1-1.892 1.869h0a1.886 1.886 0 0 1-1.892-1.87v-1.214a1.886 1.886 0 0 1 1.892-1.87m1.892 0v5.607a1.886 1.886 0 0 1-1.892 1.87h0a1.596 1.596 0 0 1-1.325-.562"/></svg>