<svg xmlns="http://www.w3.org/2000/svg" width="1em" height="1em" viewBox="0 0 48 48"><g fill="none" stroke="currentColor" stroke-linecap="round" stroke-linejoin="round"><path d="M16.327 21.295s.623 1.903-1.673 3.497c0 0 .814 1.195.342 2.64c0 0 2.623 2.658-.688 5.566m0 0s-1.808-5.127-3.48-5.668c0 0-.135-3.744-1.204-6.24m0 0s.107-3.825 2.704-7.018c-.209.205-1.11.952-2.831.358m6.908-5.764l3.399 3.136m-1.704.128s2.982-.807 4.917 2.249m0 0s.918 3.071 2.528 9.354c0 0-.186.97.57 1.406c0 0 .52 1.103 1.473 1.513c0 0 2.57-.417 2.387 1.151m-6.715-3.028l1.488 2.226s1.495.461 2.462 1.992c0 0 2.678-.474 2.952 1.14m-9.022-3.52l2.008 2.827s2.365.562 3.197 1.747c0 0 2.522-1.033 2.926 1.237m-10.756-4.457l2.05 2.978s1.813.467 2.845 1.585c0 0 2.815-.627 3.834.825m-11.026-2.461s1.695 4.037 9.324 3.937"/><path d="M17.204 32.082s-1.91 2.168 1.509 1.704c0 0-1.003 3.245 3.022 1.04c0 0-2.986 3.132 5.04 1.21c0 0 2.876-.541 4.957-3.306m-.455-12.385c-.077.797-.428 3.917 2.33 5.987c0 0-1.6.955-.714 2.636"/><path d="M32.893 28.968s-2.95 2.872.288 5.397m0 0s1.561-3.564 3.449-4.976c0 0 .751-3.62 1.915-5.698c0 0 1.05-3.749-2.258-9.06m4.131-1.038l-3.18 2.424m-5.515-6.936L28.95 12.43m-4.67 5.65s.55-6.054 6.253-5.551"/><ellipse cx="24" cy="24" rx="21.5" ry="16.738"/><path d="m9.497 14.43l-2.276-.678"/></g></svg>