<svg xmlns="http://www.w3.org/2000/svg" width="1em" height="1em" viewBox="0 0 48 48"><path fill="none" stroke="currentColor" stroke-linecap="round" stroke-linejoin="round" d="M39.5 36.2V15.5h-9a2.006 2.006 0 0 1-2-2v-9h-18a2.006 2.006 0 0 0-2 2v5.004m0 13.391V41.5a2.006 2.006 0 0 0 2 2h27a2.034 2.034 0 0 0 2-1.7m-11-37.3l11 11m-23.533 4.708h10.992m-10.992-3.793h11.047m-11.047-3.792h9.176"/><circle cx="18.6" cy="18.2" r="8.6" fill="none" stroke="currentColor" stroke-linecap="round" stroke-linejoin="round"/><path fill="none" stroke="currentColor" stroke-linecap="round" stroke-linejoin="round" d="M28.5 11.21a12.069 12.069 0 1 0 1.916 4.287"/><path fill="none" stroke="currentColor" stroke-linecap="round" stroke-linejoin="round" d="M25.704 28.004L40 42.3a1.933 1.933 0 0 0 2.733.067h0l.067-.067a1.933 1.933 0 0 0 .067-2.733q-.033-.035-.067-.067L28.49 25.19M15.967 24h8.974M13.149 11.548v13.347"/></svg>