<svg xmlns="http://www.w3.org/2000/svg" width="1em" height="1em" viewBox="0 0 48 48"><path fill="none" stroke="currentColor" stroke-linecap="round" stroke-linejoin="round" d="M37.472 27.201c1.554-.63 4.321-1.466 5.154-.457c.9 1.092-.238 3.462-1.286 5.303"/><path fill="none" stroke="currentColor" stroke-linecap="round" stroke-linejoin="round" d="M4.5 27.41c2.824 2.247 11.167 5.686 20.055 5.686c8.473 0 13.645-3.075 16.328-4.953M4.5 20.59a2.274 2.274 0 0 1 4.55 0m0 0v3.751m0-3.752a2.274 2.274 0 0 1 4.549 0v3.752M4.5 18.315v6.026"/><path fill="currentColor" d="M16.666 16.45a.75.75 0 1 0 0-1.5a.75.75 0 0 0 0 1.5"/><path fill="none" stroke="currentColor" stroke-linecap="round" stroke-linejoin="round" d="M16.666 18.486v6.026"/><path fill="currentColor" d="M26.898 16.45a.75.75 0 1 0 0-1.5a.75.75 0 0 0 0 1.5"/><path fill="none" stroke="currentColor" stroke-linecap="round" stroke-linejoin="round" d="M26.899 18.486v6.026m-3.069-.171V20.59a2.274 2.274 0 0 0-4.55 0m0 3.752v-6.026m10.233-3.412h6.028M32.527 24v-9.096m10.973 0L40.486 24l-3.014-9.096"/></svg>