<svg xmlns="http://www.w3.org/2000/svg" width="1em" height="1em" viewBox="0 0 48 48"><path fill="none" stroke="currentColor" stroke-linecap="round" stroke-linejoin="round" d="M35.81 28.508c-1.857 2.114-6.298 4.43-10.38 5.045l-.023 9.945h-2.54v-9.855c-2.158-.078-6.622-1.521-9.732-5.426c5.65-6.275 15.125-5.604 22.675.291"/><path fill="none" stroke="currentColor" stroke-linecap="round" stroke-linejoin="round" d="M14.635 19.783c-1.507.805-3.349 3.184-3.714 4.229c6.544-5.84 18.592-7.137 26.937.01C42.343-.452 8.236-2.924 10.238 22.357c1.44-1.32 2.905-2.178 4.397-2.573Z"/><path fill="none" stroke="currentColor" stroke-linecap="round" stroke-linejoin="round" d="M19.859 21.704c3.482-1.03 6.186-1.03 8.11 0m-3.938-2.503v1.73"/></svg>