<svg xmlns="http://www.w3.org/2000/svg" width="1em" height="1em" viewBox="0 0 48 48"><circle cx="24.547" cy="23.121" r="6.433" fill="none" stroke="currentColor" stroke-linecap="round" stroke-linejoin="round"/><circle cx="24.949" cy="22.522" r="3.721" fill="none" stroke="currentColor" stroke-linecap="round" stroke-linejoin="round"/><path fill="none" stroke="currentColor" stroke-linecap="round" stroke-linejoin="round" d="M25.548 13.746a1.713 1.713 0 0 1-1.93.05c-.49-.316-1.157-.933-.488-2.657l1.416-3.652l1.417 3.652c.658 1.696.032 2.285-.415 2.607m6.336 3.454a1.713 1.713 0 0 1-1.4-1.33c-.123-.57-.159-1.477 1.534-2.224l3.583-1.58l-1.58 3.584c-.734 1.664-1.594 1.638-2.137 1.55m-1.416 13.258a1.713 1.713 0 0 1 1.33-1.4c.57-.123 1.477-.159 2.224 1.534l1.58 3.583l-3.584-1.58c-1.664-.734-1.638-1.594-1.55-2.137M15.172 22.12c.412.572.432 1.338.05 1.93c-.316.49-.933 1.157-2.657.488l-3.652-1.416l3.652-1.417c1.696-.658 2.285-.032 2.607.415m3.454-6.336a1.713 1.713 0 0 1-1.33 1.4c-.57.123-1.477.159-2.224-1.534l-1.58-3.583l3.584 1.58c1.664.734 1.638 1.594 1.55 2.137M17.21 29.042c.696.113 1.252.64 1.4 1.33c.123.57.159 1.477-1.534 2.224l-3.583 1.58l1.58-3.584c.734-1.664 1.594-1.638 2.137-1.55"/><circle cx="24.548" cy="33.885" r="1.065" fill="none" stroke="currentColor" stroke-linecap="round" stroke-linejoin="round"/><path fill="none" stroke="currentColor" stroke-linecap="round" stroke-linejoin="round" d="M40.5 5.5h-33a2 2 0 0 0-2 2v33a2 2 0 0 0 2 2h33a2 2 0 0 0 2-2v-33a2 2 0 0 0-2-2"/><path fill="none" stroke="currentColor" stroke-linecap="round" stroke-linejoin="round" d="M5.5 38.693c1.325-.595 2.65-1.19 4.595-1.156s4.511.695 7.023.734c2.513.039 4.971-.545 7.523-.393s5.196 1.041 7.587.966c2.39-.074 4.528-1.112 6.198-1.515c1.67-.403 2.872-.171 4.074.06"/></svg>