<svg xmlns="http://www.w3.org/2000/svg" width="1em" height="1em" viewBox="0 0 48 48"><path fill="none" stroke="currentColor" stroke-linecap="round" stroke-linejoin="round" d="M28.223 17.21v-5.883c0-1.542-.44-2.589-1.32-3.141c-.603-.378-1.57-.567-2.903-.567m0 32.762c1.91-.203 3.092-.567 3.545-1.09c.452-.524.678-1.396.678-2.618v-5.197"/><path fill="none" stroke="currentColor" stroke-linecap="round" stroke-linejoin="round" d="M24 6.31h15.838v1.309c-1.358 0-2.338.174-2.942.523c-.905.524-1.357 1.585-1.357 3.185v25.346c0 1.484.402 2.516 1.207 3.098c.653.407 1.684.61 3.092.61v1.31H24m0-.001H8.162v-1.309c1.91-.203 3.092-.567 3.545-1.09c.452-.524.679-1.396.679-2.618V11.327c0-1.542-.44-2.589-1.32-3.141c-.603-.378-1.571-.567-2.904-.567v-1.31H24"/><path fill="none" stroke="currentColor" stroke-linecap="round" stroke-linejoin="round" d="M19.701 31.476v5.197c0 1.484.402 2.516 1.207 3.098c.653.407 1.684.61 3.092.61m0-32.762c-1.358 0-2.338.174-2.941.523c-.905.524-1.358 1.585-1.358 3.185v5.882m-5.021 11.02l2.801-8.458l2.801 8.458m-.928-2.802h-3.746m16.844 2.802h-4.229v-8.457h4.229M28.223 24h2.757m-6.727-1.374c1.168 0 2.114.946 2.114 2.114v1.374a2.114 2.114 0 0 1-2.114 2.115h0a2.114 2.114 0 0 1-2.114-2.115V24.74c0-1.168.946-2.114 2.114-2.114M5.5 24h4.229m28.542 0H42.5"/></svg>