<svg xmlns="http://www.w3.org/2000/svg" width="1em" height="1em" viewBox="0 0 48 48"><path fill="none" stroke="currentColor" stroke-linecap="round" stroke-linejoin="round" d="M40.5 5.5h-33a2 2 0 0 0-2 2v33a2 2 0 0 0 2 2h33a2 2 0 0 0 2-2v-33a2 2 0 0 0-2-2m-35 31h37m-24.667 0v6m12.334-6v6"/><path fill="none" stroke="currentColor" stroke-linecap="round" stroke-linejoin="round" d="M15.215 23.125a2.5 2.5 0 0 1-2.5 2.5h0a2.5 2.5 0 0 1-2.5-2.5V21.5a2.5 2.5 0 0 1 2.5-2.5h0a2.5 2.5 0 0 1 2.5 2.5m0 4.125V19m22.57 4.125a2.5 2.5 0 0 1-2.5 2.5h0a2.5 2.5 0 0 1-2.5-2.5V21.5a2.5 2.5 0 0 1 2.5-2.5h0a2.5 2.5 0 0 1 2.5 2.5m0 4.125V19m-7.441 6.625V21.5a2.5 2.5 0 0 0-2.5-2.5h0a2.5 2.5 0 0 0-2.5 2.5m-.001 4.125V19m-7.555 4.125a2.5 2.5 0 0 0 2.5 2.5h0a2.5 2.5 0 0 0 2.5-2.5V21.5a2.5 2.5 0 0 0-2.5-2.5h0a2.5 2.5 0 0 0-2.5 2.5m0-2.5v10"/></svg>