<svg xmlns="http://www.w3.org/2000/svg" width="1em" height="1em" viewBox="0 0 48 48"><path fill="none" stroke="currentColor" stroke-linecap="round" stroke-linejoin="round" d="M40.5 11h-33a2 2 0 0 0-2 2v22a2 2 0 0 0 2 2h33a2 2 0 0 0 2-2V13a2 2 0 0 0-2-2M39 10V6.5a1 1 0 0 0-1-1H10a1 1 0 0 0-1 1V10a1 1 0 0 0 1 1h28a1 1 0 0 0 1-1M9 38v3.5a1 1 0 0 0 1 1h28a1 1 0 0 0 1-1V38a1 1 0 0 0-1-1H10a1 1 0 0 0-1 1"/><path fill="none" stroke="currentColor" stroke-linecap="round" stroke-linejoin="round" d="M9.5 15h7v7h-7z"/></svg>