<svg xmlns="http://www.w3.org/2000/svg" width="1em" height="1em" viewBox="0 0 48 48"><path fill="none" stroke="currentColor" stroke-linecap="round" stroke-linejoin="round" d="M8.843 43.5h30.314"/><rect width="7.052" height="26.896" x="13.422" y="13.573" fill="none" stroke="currentColor" stroke-linecap="round" stroke-linejoin="round" rx="1.655"/><path fill="none" stroke="currentColor" stroke-linecap="round" stroke-linejoin="round" d="M13.422 18.616h7.052"/><rect width="7.052" height="26.896" x="20.474" y="13.573" fill="none" stroke="currentColor" stroke-linecap="round" stroke-linejoin="round" rx="1.655"/><path fill="none" stroke="currentColor" stroke-linecap="round" stroke-linejoin="round" d="M20.474 18.616h7.052"/><rect width="7.052" height="26.896" x="27.526" y="13.573" fill="none" stroke="currentColor" stroke-linecap="round" stroke-linejoin="round" rx="1.655"/><path fill="none" stroke="currentColor" stroke-linecap="round" stroke-linejoin="round" d="M27.526 18.616h7.052m2.934-1.614C37.512 8.982 32.021 4.5 24 4.5S10.488 8.981 10.488 17.002m-.984 0h.984v9.513h0h-.984a3.263 3.263 0 0 1-3.262-3.262v-2.988a3.263 3.263 0 0 1 3.262-3.263m28.991 9.514h-.984h0v-9.513h.984a3.263 3.263 0 0 1 3.263 3.262v2.988a3.263 3.263 0 0 1-3.263 3.263"/></svg>