<svg xmlns="http://www.w3.org/2000/svg" width="1em" height="1em" viewBox="0 0 48 48"><path fill="none" stroke="currentColor" stroke-linecap="round" stroke-linejoin="round" d="m43.8 30.7l-4.1 7.11a1 1 0 0 1-1.25.44l-5.11-2.06a15.36 15.36 0 0 1-3.46 2l-.77 5.43a1 1 0 0 1-1 .86h-8.2a1 1 0 0 1-1-.86l-.77-5.43a15.68 15.68 0 0 1-3.46-2l-5.14 2.06a1 1 0 0 1-1.25-.44l-4.1-7.11a1 1 0 0 1 .25-1.31L8.76 26a16.52 16.52 0 0 1-.14-2a16.66 16.66 0 0 1 .14-2l-4.32-3.39a1 1 0 0 1-.25-1.31l4.1-7.11a1 1 0 0 1 1.25-.44l5.11 2.06a15.36 15.36 0 0 1 3.46-2l.77-5.43a1 1 0 0 1 1-.86h8.2a1.05 1.05 0 0 1 1 .86l.77 5.43a15.68 15.68 0 0 1 3.46 2l5.11-2.06a1 1 0 0 1 1.25.44l4.1 7.11a1 1 0 0 1-.25 1.31L39.23 22a16.52 16.52 0 0 1 .14 2a16.52 16.52 0 0 1-.14 2l4.32 3.39a1 1 0 0 1 .25 1.31M25.47 18.86a1.69 1.69 0 0 0-2.94 0l-4.89 8.62A1.69 1.69 0 0 0 19.11 30h9.78a1.69 1.69 0 0 0 1.47-2.52ZM22 26.62l2-3.51l2 3.51Z"/></svg>