<svg xmlns="http://www.w3.org/2000/svg" width="1em" height="1em" viewBox="0 0 48 48"><path fill="none" stroke="currentColor" stroke-linecap="round" stroke-linejoin="round" d="m13.596 10.885l-1.425 9m-1.307 9.751l-1.96 12.379m4.692-31.129h9.75m-11.175 9h13.425m-14.732 9.75h14.732M8.903 42.016h19.693"/><g fill="none" stroke="currentColor" stroke-linecap="round" stroke-linejoin="round"><path d="M27.797 5.984c0 2.486-1.966 4.902-4.451 4.902m7.968 10.488c.483 1.802.178 4.435-.957 5.915a6 6 0 0 1-4.76 2.347"/><path d="M31.314 21.374a10.5 10.5 0 0 1-2.717 20.643m-.8-36.033a7.125 7.125 0 0 1-2.202 13.901"/></g></svg>