<svg xmlns="http://www.w3.org/2000/svg" width="1em" height="1em" viewBox="0 0 48 48"><path fill="none" stroke="currentColor" stroke-linecap="round" stroke-linejoin="round" d="M40.5 5.5h-33a2 2 0 0 0-2 2v33a2 2 0 0 0 2 2h33a2 2 0 0 0 2-2v-33a2 2 0 0 0-2-2"/><rect width="3.804" height="5.04" x="25.696" y="22.764" fill="none" stroke="currentColor" stroke-linecap="round" stroke-linejoin="round" rx="1.902" ry="1.902"/><path fill="none" stroke="currentColor" stroke-linecap="round" stroke-linejoin="round" d="M31.477 24.666c0-1.05.851-1.902 1.902-1.902h0m-1.902 0v5.04m-11.463-.96c-.327.573-.945.96-1.652.96h0a1.902 1.902 0 0 1-1.902-1.902v-1.236c0-1.05.851-1.902 1.902-1.902h0c1.05 0 1.902.851 1.902 1.902v.618H16.46m21.79 1.56a1.9 1.9 0 0 1-1.652.96h0a1.902 1.902 0 0 1-1.902-1.902v-1.236c0-1.05.852-1.902 1.902-1.902h0c1.05 0 1.902.851 1.902 1.902v.618h-3.804M12.638 24a1.902 1.902 0 1 1 0 3.804H9.5v-7.608h3.138a1.902 1.902 0 1 1 0 3.804m0 0H9.5m13.392 3.804v-6.276c0-.736.596-1.332 1.331-1.332h0c.655 0 1.064.194 1.345.557m-3.804 2.011h2.663"/></svg>