<svg xmlns="http://www.w3.org/2000/svg" width="1em" height="1em" viewBox="0 0 48 48"><path fill="none" stroke="currentColor" stroke-linecap="round" stroke-linejoin="round" d="M24.991 19.844a3.616 3.616 0 1 1 .564-1.94h-4.13m-11.925 0a3.617 3.617 0 1 0 7.233 0a3.617 3.617 0 0 0-7.233 0v-6.318m19.437 9.83v-5.148c0-1.725 2.246-2.563 3.328-1.037c1.128 1.59 3.018 5.428 3.018 5.428c.847 1.405 3.217.5 3.217-.992v-5.276m-11.356 0v7.025"/><rect width="37" height="37" x="5.5" y="5.5" fill="none" stroke="currentColor" stroke-linecap="round" stroke-linejoin="round" rx="2" ry="2"/><path fill="none" stroke="currentColor" stroke-linecap="round" stroke-linejoin="round" d="M13.278 33.985v-6.597h2.144c1.237 0 2.226.99 2.226 2.226s-.99 2.227-2.226 2.227h-2.144m11.432 2.144v-6.597h2.144c1.237 0 2.227.99 2.227 2.226s-.99 2.227-2.227 2.227H24.71m2.144-.083l2.144 2.144m1.435-6.514h4.288m-2.144 6.597v-6.597M7.649 33.243c.412.494.907.742 1.649.742h.99c.907 0 1.649-.742 1.649-1.65h0c0-.906-.742-1.649-1.65-1.649H9.215a1.654 1.654 0 0 1-1.649-1.649h0c0-.907.742-1.649 1.65-1.649h.989c.742 0 1.237.165 1.65.742m9.286 5.855a2.13 2.13 0 0 1-2.144-2.144v-2.226c0-1.237.99-2.227 2.144-2.227h0c1.237 0 2.227.99 2.227 2.226v2.144c0 1.237-.99 2.227-2.227 2.227m15.008-.742c.412.494.907.742 1.649.742h.99c.907 0 1.649-.742 1.649-1.65h0c0-.906-.742-1.649-1.65-1.649h-1.071c-.908 0-1.65-.742-1.65-1.649h0c0-.907.742-1.649 1.65-1.649h.989c.742 0 1.237.165 1.65.742"/></svg>