<svg xmlns="http://www.w3.org/2000/svg" width="1em" height="1em" viewBox="0 0 48 48"><g fill="none" stroke="currentColor" stroke-linecap="round" stroke-linejoin="round"><path d="M10.054 38.513a3.778 3.778 0 0 0 7.515.542c5.802 4.576 14.15 3.99 19.245-1.396c5.145-5.437 5.227-13.922.19-19.459c-5.037-5.537-13.491-6.254-19.39-1.646L17.61 9.01a3.778 3.778 0 0 0-7.556 0z"/><path d="M19.018 7.072s-.737-.876-.357-2.19s1.97-1.59 1.97-1.59s.404.368.37 1.221c.703-.034 1.36-.334 2.409.334c-.07.796-1.568 3.354-4.392 2.225"/><circle cx="26.626" cy="27.828" r="10.098"/><path d="M22.031 25.772c.661 1.124.662 2.383.002 2.813c-.66.43-1.733-.133-2.394-1.256c-.661-1.124-.662-2.384-.002-2.814c.66-.43 1.733.133 2.394 1.257m3.582-3.156c.316 1.406-.119 2.73-.97 2.956c-.852.226-1.798-.73-2.114-2.136h0c-.316-1.406.119-2.73.97-2.956c.852-.226 1.798.73 2.114 2.136m.761 4.283c-.314.001-.406.146-.654.338c-.136.11-3.171 2.95-3.171 2.95s-2.607 2.646-.361 4.473c2.245 1.827 4.513-.616 4.513-.616s2.267 2.443 4.513.616s-.36-4.473-.36-4.473s-3.036-2.84-3.172-2.95c-.251-.255-.365-.306-.654-.338zm4.516-1.127c-.661 1.124-.662 2.383-.002 2.813c.66.43 1.733-.133 2.394-1.256c.661-1.124.662-2.384.002-2.814c-.66-.43-1.732.133-2.394 1.257m-3.604-3.156c-.316 1.406.118 2.73.97 2.956c.851.226 1.798-.73 2.113-2.136h0c.316-1.406-.118-2.73-.97-2.956c-.851-.226-1.798.73-2.113 2.136"/></g></svg>