<svg xmlns="http://www.w3.org/2000/svg" width="1em" height="1em" viewBox="0 0 48 48"><path fill="none" stroke="currentColor" stroke-linecap="round" stroke-linejoin="round" d="M9.24 37.195s-.183 1.35 0 2.03c.129.473.251 1.268.74 1.268h2.75c.489 0 .611-.796.74-1.268c.183-.68 0-2.03 0-2.03m21.142.029s-.184 1.32 0 2c.128.473.25 1.27.74 1.27h2.749c.49 0 .612-.797.74-1.27c.184-.68 0-2.063 0-2.063"/><circle cx="11.355" cy="30.767" r="2.114" fill="none" stroke="currentColor" stroke-linecap="round" stroke-linejoin="round"/><path fill="none" stroke="currentColor" stroke-linecap="round" stroke-linejoin="round" d="m9.77 23.367l4.431-9.515c2.847-5.98 16.982-6.162 19.57 0l4.54 9.515"/><circle cx="36.726" cy="30.767" r="2.114" fill="none" stroke="currentColor" stroke-linecap="round" stroke-linejoin="round"/><path fill="none" stroke="currentColor" stroke-linecap="round" stroke-linejoin="round" d="M9.728 23.41A4.22 4.22 0 0 0 5.5 27.64v5.286a4.22 4.22 0 0 0 4.228 4.229h5.33c4.741 2.032 6.797 2.065 9.114 2.065c2.53 0 4.657-.07 8.84-2.065h5.26a4.22 4.22 0 0 0 4.228-4.229V27.64a4.22 4.22 0 0 0-4.229-4.229zM25.381 9.34V7.507H22.7v1.856"/></svg>