<svg xmlns="http://www.w3.org/2000/svg" width="1em" height="1em" viewBox="0 0 48 48"><path fill="none" stroke="currentColor" stroke-linecap="round" stroke-linejoin="round" d="M17.931 6.52c.267.618.534 1.236 1.194 1.378c.66.133 1.72-.2 2.078 0c.368.2.05.943-.15 1.552c-.192.618-.259 1.094-.4 1.77c-.134.668-.343 1.528-.827 2.112s-1.244.893-1.703 1.252c-.46.36-.618.777-.684 1.678s-.05 2.28.2 2.555c.242.284.701-.543 1.068-1.403c.376-.868.651-1.77.66-1.644c0 .117-.259 1.26.092 2.487c.359 1.22 1.327 2.513 1.987 3.14c.659.634 1.001.6 1.101.275c.1-.334-.033-.96-.258-1.862c-.217-.91-.518-2.095-.51-2.78c.009-.693.318-.876.426-.676c.109.2.008.793.568 1.436c.55.634 1.761 1.327 2.354 1.185c.593-.15.56-1.127.618-1.402c.05-.276.183.158.985 1.093c.793.927 2.254 2.354 2.696 1.578s-.133-3.74-.835-5.009s-1.536-.826-1.703-1.31c-.167-.485.334-1.895-.058-3.039c-.4-1.135-1.695-2.012-1.586-2.454c.1-.443 1.611-.451 2.195-.793c.593-.334.26-.994.935-1.336c.685-.35 2.38-.376 3.164.651c.785 1.027.651 3.114.518 5.21v11.97l.017 17.781l-16.663-.517V6.52zM15.41 8.081L5 10.16l3.122 29.15l7.288-.518"/><path fill="none" stroke="currentColor" stroke-linecap="round" stroke-linejoin="round" d="M32.072 8.081L43 9.125l-3.64 31.747l-7.287-.517M24.259 22.14c1.152 0 2.087 1.393 2.087 3.121c0 1.72-.935 3.122-2.087 3.122s-2.079-1.402-2.079-3.122c0-1.728.927-3.122 2.079-3.122"/><path fill="none" stroke="currentColor" stroke-linecap="round" stroke-linejoin="round" d="M36.105 13.349c1.218 0 2.204 2.154 2.204 4.808s-.986 4.809-2.204 4.809s-2.204-2.154-2.204-4.809s.985-4.808 2.204-4.808m-11.137-.584c.384 0 .702.742.702 1.652s-.318 1.653-.702 1.653c-.392 0-.71-.743-.71-1.653s.318-1.653.71-1.653"/></svg>