<svg xmlns="http://www.w3.org/2000/svg" width="1em" height="1em" viewBox="0 0 48 48"><circle cx="29.833" cy="16.926" r="11.426" fill="none" stroke="currentColor" stroke-linecap="round" stroke-linejoin="round"/><path fill="none" stroke="currentColor" stroke-linecap="round" stroke-linejoin="round" d="M10.437 20.366a11.407 11.407 0 0 0-4.722 9.25c0 6.318 5.11 11.429 11.417 11.429a11.39 11.39 0 0 0 8.086-3.343"/><path fill="none" stroke="currentColor" stroke-linecap="round" stroke-linejoin="round" d="M19.58 21.962a6.715 6.715 0 0 1-3.741 1.132a6.701 6.701 0 0 1-5.402-2.728a6.666 6.666 0 0 1-1.337-4.01a6.743 6.743 0 0 1 6.739-6.75c1.584 0 3.04.55 4.193 1.467m6.114 16.667a9.037 9.037 0 0 0-1.995 5.682a9.069 9.069 0 1 0 18.134 0c0-3.46-1.94-6.48-4.808-8.01"/></svg>