<svg xmlns="http://www.w3.org/2000/svg" width="1em" height="1em" viewBox="0 0 48 48"><path fill="none" stroke="currentColor" stroke-linecap="round" stroke-linejoin="round" d="M40.5 5.5h-33a2 2 0 0 0-2 2v33a2 2 0 0 0 2 2h33a2 2 0 0 0 2-2v-33a2 2 0 0 0-2-2"/><path fill="none" stroke="currentColor" stroke-linecap="round" stroke-linejoin="round" d="M10.819 24c.773 0 1.405.632 1.405 1.405s-.632 1.405-1.405 1.405H8.5v-5.62h2.319c.773 0 1.405.632 1.405 1.405S11.592 24 10.82 24zm-.11 0h-2.17m7.511 2.811a1.814 1.814 0 0 1-1.827-1.827v-1.897c0-1.054.843-1.898 1.827-1.898a1.89 1.89 0 0 1 1.897 1.898v1.827a1.89 1.89 0 0 1-1.897 1.897m6.947-5.622L21.17 24l-1.827-2.811m1.827 5.622V24m3.855 2.811v-5.622l3.725 5.622v-5.622M30.936 24h1.827m.984 2.811h-2.811v-5.622h2.811m2.029 5.621v-5.62h1.827c1.054 0 1.897.843 1.897 1.897s-.843 1.897-1.897 1.897h-1.827m1.953.057l1.724 1.724"/></svg>