<svg xmlns="http://www.w3.org/2000/svg" width="1em" height="1em" viewBox="0 0 48 48"><path fill="none" stroke="currentColor" stroke-linecap="round" stroke-linejoin="round" d="M40.5 5.5h-33a2 2 0 0 0-2 2v33a2 2 0 0 0 2 2h33a2 2 0 0 0 2-2v-33a2 2 0 0 0-2-2m-8 14.447v8.106"/><path fill="none" stroke="currentColor" stroke-linecap="round" stroke-linejoin="round" d="M24 28.053v-8.106h2.634c1.52 0 2.735 1.216 2.735 2.736s-1.215 2.736-2.735 2.736H24M18.844 24c1.114 0 2.026.912 2.026 2.026s-.912 2.027-2.027 2.027H15.5v-8.106h3.343c1.115 0 2.027.912 2.027 2.026S19.958 24 18.843 24Zm-.001 0H15.5"/></svg>