<svg xmlns="http://www.w3.org/2000/svg" width="1em" height="1em" viewBox="0 0 48 48"><circle cx="24" cy="24" r="21.5" fill="none" stroke="currentColor" stroke-linecap="round" stroke-linejoin="round"/><path fill="none" stroke="currentColor" stroke-miterlimit="5.5" d="m9.332 8.28l22.827-4.172M15.896 43.841l22.827-4.173"/><path fill="none" stroke="currentColor" stroke-linecap="round" stroke-linejoin="round" d="m26.617 23.054l-9.242 1.696m9.242-1.696a4.482 4.482 0 0 1 5.601 4.403a6.956 6.956 0 0 1-5.601 6.458l-9.242 1.696V13.889l9.242-1.696a4.482 4.482 0 0 1 5.601 4.403a6.956 6.956 0 0 1-5.601 6.458m-10.836-8.873l1.594-.292m-1.594 22.014l1.594-.293"/></svg>