<svg xmlns="http://www.w3.org/2000/svg" width="1em" height="1em" viewBox="0 0 48 48"><path fill="none" stroke="currentColor" stroke-linecap="round" stroke-linejoin="round" d="M22.71 45.422a20.943 20.943 0 0 0 8.686-1.085a.54.54 0 0 0 .324-.704l-4.255-11.266a.583.583 0 0 0-.717-.339a7.806 7.806 0 0 1-9.865-5.823a.583.583 0 0 0-.644-.464L4.32 27.459a.54.54 0 0 0-.46.624a20.951 20.951 0 0 0 18.85 17.34M11.66 8.002a20.951 20.951 0 0 0-5.57 6.567a.54.54 0 0 0 .235.738l10.735 5.455a.583.583 0 0 0 .759-.233a7.806 7.806 0 0 1 4.455-3.46a.583.583 0 0 0 .413-.678L20.057 4.64a.54.54 0 0 0-.657-.41A20.952 20.952 0 0 0 11.66 8Zm28.475 2.584a20.952 20.952 0 0 0-7.13-5.192a.54.54 0 0 0-.717.293l-4.59 11.134a.583.583 0 0 0 .292.737a7.804 7.804 0 0 1 4.214 8.323a7.807 7.807 0 0 1-1.042 2.757a.583.583 0 0 0 .143.78l9.787 7.017a.54.54 0 0 0 .763-.131a20.954 20.954 0 0 0-1.72-25.718M16.762 23.527c.019-.138.04-.276.066-.413a.583.583 0 0 0-.413-.677l-12.71-3.315a.54.54 0 0 0-.667.396a22.044 22.044 0 0 0-.5 3.148a.54.54 0 0 0 .51.583l13.111.794a.583.583 0 0 0 .603-.516m8.301-6.777c.14.01.278.024.417.041a.583.583 0 0 0 .65-.453l2.541-12.887a.54.54 0 0 0-.435-.641a22.058 22.058 0 0 0-3.173-.31a.54.54 0 0 0-.55.545V16.18c0 .305.246.55.55.571Zm4.367 13.874c-.108.088-.22.173-.332.254a.583.583 0 0 0-.167.776l6.937 11.155a.54.54 0 0 0 .755.17a22.027 22.027 0 0 0 2.53-1.938a.54.54 0 0 0 .032-.774l-8.963-9.602a.583.583 0 0 0-.792-.041"/></svg>