<svg xmlns="http://www.w3.org/2000/svg" width="1em" height="1em" viewBox="0 0 48 48"><path fill="none" stroke="currentColor" stroke-linecap="round" stroke-linejoin="round" d="M39.166 8.83H43.5v4.334h-4.334zm0 4.334H43.5v4.334h-4.334zm0 4.334H43.5v4.334h-4.334zm0 4.335H43.5v4.334h-4.334zm0 4.334H43.5v4.334h-4.334zm0 4.335H43.5v4.334h-4.334zm0 4.334H43.5v4.334h-4.334zM4.5 8.83h4.334v4.334H4.5zm0 4.334h4.334v4.334H4.5zm0 4.334h4.334v4.334H4.5zm0 4.335h4.334v4.334H4.5zm0 4.334h4.334v4.334H4.5zm0 4.335h4.334v4.334H4.5zM8.834 8.83h4.334v4.334H8.834zm0 4.334h4.334v4.334H8.834zm0 4.334h4.334v4.334H8.834zm0 4.335h4.334v4.334H8.834zm0 4.334h4.334v4.334H8.834zM13.169 8.83h4.334v4.334h-4.334zm0 4.334h4.334v4.334h-4.334zm0 4.334h4.334v4.334h-4.334zm0 4.335h4.334v4.334h-4.334zm4.34-13.003h4.334v4.334h-4.334zm0 4.334h4.334v4.334h-4.334zm0 4.334h4.334v4.334h-4.334zm4.334 0h4.334v4.334h-4.334zm-4.334 4.335h4.334v4.334h-4.334zm-4.34 4.334h4.334v4.334h-4.334zm-4.335 4.335h4.334v4.334H8.834zM4.5 34.836h4.334v4.334H4.5zM34.831 8.83h4.334v4.334h-4.334zm0 4.334h4.334v4.334h-4.334zm0 13.003h4.334v4.334h-4.334zm0 4.335h4.334v4.334h-4.334zm0 4.334h4.334v4.334h-4.334zM30.497 8.83h4.334v4.334h-4.334zm0 21.672h4.334v4.334h-4.334zm0 4.334h4.334v4.334h-4.334zm-4.334-4.334h4.334v4.334h-4.334zm0 4.334h4.334v4.334h-4.334z"/><path fill="none" stroke="currentColor" stroke-linecap="round" stroke-linejoin="round" d="M21.833 34.836h4.334v4.334h-4.334z"/><circle cx="32.664" cy="21.833" r=".75" fill="currentColor"/><circle cx="26.177" cy="13.164" r=".75" fill="currentColor"/><circle cx="26.166" cy="27.295" r=".75" fill="currentColor"/><circle cx="19.667" cy="32.758" r=".75" fill="currentColor"/><circle cx="13.169" cy="38.22" r=".75" fill="currentColor"/></svg>