<svg xmlns="http://www.w3.org/2000/svg" width="1em" height="1em" viewBox="0 0 48 48"><path fill="none" stroke="currentColor" stroke-linecap="round" stroke-linejoin="round" d="M27.098 20.247c0 2.004 1.624 3.023 3.627 3.023s3.626-1.02 3.626-3.023c0-1.709-1.358-2.46-3.626-3.716c-2.27-1.256-3.627-2.005-3.627-3.715c0-2.004 1.624-3.023 3.627-3.023s3.626 1.02 3.626 3.023m-20.467 5.886v4.567h5.162c1.894 0 3.42-1.384 3.42-3.104v-.519c0-1.72-1.526-3.104-3.42-3.104h-2.142m2.142-.022c1.894 0 3.42-1.385 3.42-3.104v-.519c0-1.719-1.526-3.104-3.42-3.104h-2.142m-3.02 2.52v2.048m-.234 12.958h5.202a3.446 3.446 0 0 1 3.464 3.428v.015a3.446 3.446 0 0 1-3.45 3.442H16.11l6.59 6.59m11.427-13.475v3.59c0 2.243-1.525 4.05-3.42 4.05h-.412c-1.895 0-3.42-1.807-3.42-4.05v-3.59"/><circle cx="24" cy="24" r="21.5" fill="none" stroke="currentColor" stroke-linecap="round" stroke-linejoin="round"/></svg>