<svg xmlns="http://www.w3.org/2000/svg" width="1em" height="1em" viewBox="0 0 48 48"><rect width="37" height="37" x="5.5" y="5.5" fill="none" stroke="currentColor" stroke-linecap="round" stroke-linejoin="round" rx="2" ry="2"/><path fill="none" stroke="currentColor" stroke-linecap="round" stroke-linejoin="round" d="M14.899 24H9.654m4.936 0a3.095 3.095 0 0 1 3.087 3.087a3.095 3.095 0 0 1-3.086 3.085H9.5V17.828h5.09a3.095 3.095 0 0 1 3.087 3.086a3.095 3.095 0 0 1-3.086 3.087m15.887-6.171v8.176c0 2.314 1.85 4.166 4.011 4.166S38.5 28.32 38.5 26.006v-8.177m-18.433.001v8.176c0 2.314 1.85 4.166 4.01 4.166s4.012-1.852 4.012-4.166v-8.177"/></svg>