<svg xmlns="http://www.w3.org/2000/svg" width="1em" height="1em" viewBox="0 0 48 48"><path fill="none" stroke="currentColor" stroke-linecap="round" stroke-linejoin="round" d="M40.5 5.5h-33a2 2 0 0 0-2 2v33a2 2 0 0 0 2 2h33a2 2 0 0 0 2-2v-33a2 2 0 0 0-2-2"/><path fill="none" stroke="currentColor" stroke-linecap="round" stroke-linejoin="round" d="M27.124 18.5L23.481 24l-3.644-5.5m3.644 11V24m6.66-5.5v7.356a3.644 3.644 0 0 0 7.288 0V18.5M15.109 24a2.75 2.75 0 1 1 0 5.5H10.57v-11h4.538a2.75 2.75 0 1 1 0 5.5m.001 0h-4.538"/></svg>