<svg xmlns="http://www.w3.org/2000/svg" width="1em" height="1em" viewBox="0 0 48 48"><path fill="none" stroke="currentColor" stroke-linecap="round" stroke-linejoin="round" d="m27.184 2.462l.042.7c.244 4.021 5.166 5.816 7.94 2.895l.484-.509l-.247.658c-1.412 3.772 2.355 7.413 6.077 5.873l.649-.268l-.493.5c-2.825 2.872-.865 7.73 3.162 7.838l.702.018l-.654.257c-3.748 1.475-3.933 6.71-.299 8.446l.634.303l-.702-.031c-4.024-.178-6.323 4.53-3.708 7.594l.456.534l-.629-.314c-3.604-1.799-7.618 1.567-6.476 5.429l.199.674l-.447-.543c-2.56-3.109-7.597-1.667-8.124 2.326l-.092.696l-.188-.677c-1.074-3.882-6.262-4.613-8.368-1.18l-.367.599l.104-.695c.597-3.983-3.844-6.762-7.165-4.482l-.579.398l.378-.593c2.166-3.396-.761-7.74-4.722-7.008l-.69.127l.585-.387c3.36-2.221 2.453-7.381-1.463-8.323l-.683-.165l.693-.115c3.973-.663 5.242-5.745 2.048-8.2l-.557-.427l.68.176c3.9 1.01 7.126-3.116 5.206-6.657l-.334-.617l.55.437c3.15 2.51 7.777.052 7.463-3.963l-.055-.7l.324.623c1.858 3.573 7.084 3.21 8.43-.586z"/><path fill="none" stroke="currentColor" stroke-linecap="round" stroke-linejoin="round" d="M14.003 10.746L24.62 8.274l2.655 11.873l9.975-1.787l2.197 10.121l-20.688 3.74z"/><path fill="none" stroke="currentColor" stroke-linecap="round" stroke-linejoin="round" d="M25.222 10.962c4.837.37 8.934 3.39 10.842 7.61m-21.156-3.738a12.98 12.98 0 0 0-3.704 9.091c0 7.172 5.825 12.997 13.008 12.997c5.354 0 9.955-3.232 11.942-7.845"/></svg>