<svg xmlns="http://www.w3.org/2000/svg" width="1em" height="1em" viewBox="0 0 48 48"><path fill="none" stroke="currentColor" stroke-linecap="round" stroke-linejoin="round" d="M25.077 28.333c0 2.593 2.074 4.667 4.667 4.667s4.494-2.074 4.494-4.667v-4.666c0-2.593-2.075-4.667-4.494-4.667s-4.667 2.074-4.667 4.667zm-5.611-2.419a3.467 3.467 0 0 1 3.457 3.456h0a3.467 3.467 0 0 1-3.457 3.457h-1.383c-2.42 0-3.283-.346-4.32-1.21m0-11.407c1.036-.864 2.074-1.21 4.32-1.21h1.383a3.467 3.467 0 0 1 3.457 3.457h0a3.467 3.467 0 0 1-3.457 3.457H16.01"/><path fill="none" stroke="currentColor" stroke-linecap="round" stroke-linejoin="round" d="M8.099 7.859c-1.06 0-1.92.86-1.92 1.92V41.58c0 1.06.86 1.919 1.92 1.919H39.9c1.06 0 1.92-.86 1.92-1.92h0v-31.8c0-1.06-.86-1.92-1.92-1.92zm4.718 2.399V4.5m22.366 5.758V4.5"/></svg>