<svg xmlns="http://www.w3.org/2000/svg" width="1em" height="1em" viewBox="0 0 48 48"><path fill="none" stroke="currentColor" stroke-linecap="round" stroke-linejoin="round" d="M8.838 23.91a4.943 4.943 0 0 1 4.815-5a4.976 4.976 0 0 1 3.519 8.519c-2.037 1.666-8.334 6.481-8.334 6.481h9.815"/><circle cx="25.869" cy="23.91" r="5" fill="none" stroke="currentColor" stroke-linecap="round" stroke-linejoin="round"/><path fill="none" stroke="currentColor" stroke-linecap="round" stroke-linejoin="round" d="M21.424 32.058a4.548 4.548 0 0 0 4.074 1.852h.37a4.98 4.98 0 0 0 5-5v-5"/><path fill="none" stroke="currentColor" stroke-linecap="round" stroke-linejoin="round" d="M43.5 25.793v-13.93a4 4 0 0 0-4-4h-31a4 4 0 0 0-4 4v24.275a4 4 0 0 0 4 4"/><path fill="none" stroke="currentColor" stroke-linecap="round" stroke-linejoin="round" d="M43.5 36.138V11.862a4 4 0 0 0-4-4h-31a4 4 0 0 0-4 4v24.276a4 4 0 0 0 4 4h31a4 4 0 0 0 4-4"/><path fill="none" stroke="currentColor" stroke-linecap="round" stroke-linejoin="round" d="M35.207 40.138V15.819a3.138 3.138 0 0 0-3.138-3.138H4.5"/></svg>