<svg xmlns="http://www.w3.org/2000/svg" width="1em" height="1em" viewBox="0 0 48 48"><g fill="none" stroke="currentColor" stroke-linecap="round" stroke-linejoin="round"><circle cx="24" cy="21.667" r="4.667"/><path d="M19.852 29.272C20.543 30.309 21.753 31 23.654 31H24a4.647 4.647 0 0 0 4.667-4.667v-4.666"/></g><path fill="none" stroke="currentColor" stroke-linecap="round" stroke-linejoin="round" d="M38.5 5.5h-4v1a3.5 3.5 0 1 1-7 0v-1h-8v1a3.5 3.5 0 1 1-7 0v-1h-3a4 4 0 0 0-4 4v29a4 4 0 0 0 4 4h29a4 4 0 0 0 4-4v-29a4 4 0 0 0-4-4"/></svg>