<svg xmlns="http://www.w3.org/2000/svg" width="1em" height="1em" viewBox="0 0 48 48"><path fill="none" stroke="currentColor" stroke-linecap="round" stroke-linejoin="round" d="M7.5 5.5a2 2 0 0 0-2 2v33a2 2 0 0 0 2 2h33a2 2 0 0 0 2-2v-33a2 2 0 0 0-2-2Z"/><path fill="none" stroke="currentColor" stroke-linecap="round" stroke-linejoin="round" d="M30.722 29.341a6.722 6.722 0 0 1-13.444 0v-4.37a6.722 6.722 0 1 1 13.444 0m2.71 11.092a2.891 2.891 0 0 1-2.688-2.689V18.25"/><circle cx="32.5" cy="11" r="2.5" fill="none" stroke="currentColor" stroke-linecap="round" stroke-linejoin="round"/><circle cx="15.5" cy="11" r="2.5" fill="none" stroke="currentColor" stroke-linecap="round" stroke-linejoin="round"/></svg>