<svg xmlns="http://www.w3.org/2000/svg" width="1em" height="1em" viewBox="0 0 48 48"><path fill="none" stroke="currentColor" stroke-linecap="round" stroke-linejoin="round" d="M8.46 33.75h11.58A3.96 3.96 0 0 0 24 29.79V18.21a3.96 3.96 0 0 0-3.96-3.96H8.46a3.96 3.96 0 0 0-3.96 3.96v11.58a3.96 3.96 0 0 0 3.96 3.96m19.455-19.5H43.5v3.899H27.915zm0 15.601H43.5v3.899H27.915zm0-7.801H43.5v3.899H27.915z"/><path fill="none" stroke="currentColor" stroke-linecap="round" stroke-linejoin="round" d="M21.17 29.9H7.38l3.55-5.82l2.36 3.884l3.38-5.794z"/></svg>