<svg xmlns="http://www.w3.org/2000/svg" width="1em" height="1em" viewBox="0 0 48 48"><path fill="none" stroke="currentColor" stroke-linecap="round" stroke-linejoin="round" d="M24 2.5c11.879 0 21.5 9.621 21.5 21.5S35.879 45.5 24 45.5S2.5 35.879 2.5 24S12.121 2.5 24 2.5m-8.6 40.85V4.65M2.5 24h43M2.93 19.7h42.065m-40.7-4.3h39.41m-36.83-4.3h34.25M11.186 6.8H36.9M2.93 28.3h42.14M4.295 32.6h39.41m-36.83 4.3H41.2M24 2.5v43M19.7 2.962v42.044m8.6-42.044v42.044m4.3-40.668v39.345M41.2 11.1v25.736M6.8 11.1v25.8"/><path fill="none" stroke="currentColor" stroke-linecap="round" stroke-linejoin="round" d="M11.1 6.8v34.4h25.8V6.95"/></svg>