<svg xmlns="http://www.w3.org/2000/svg" width="1em" height="1em" viewBox="0 0 48 48"><circle cx="24" cy="24" r="21.5" fill="none" stroke="currentColor" stroke-linecap="round" stroke-linejoin="round"/><path fill="none" stroke="currentColor" stroke-linecap="round" stroke-linejoin="round" d="M17.197 33.753a35.5 35.5 0 0 1-1.334-.025c-3.936-.149-7.006-3.46-6.858-7.396s3.463-7.009 7.395-6.857c5.059.183 8.071-1.337 11.043-3.688a7.131 7.131 0 1 1 8.85 11.184c-3.723 2.947-9.695 6.782-19.096 6.782"/><path fill="none" stroke="currentColor" stroke-linecap="round" stroke-linejoin="round" d="M2.695 25.898c5.321 0 5.321 2 10.643 2s5.32-2 10.639-2c5.323 0 5.323 2 10.646 2s5.324-2 10.647-2"/></svg>