<svg xmlns="http://www.w3.org/2000/svg" width="1em" height="1em" viewBox="0 0 48 48"><path fill="none" stroke="currentColor" stroke-linecap="round" stroke-linejoin="round" d="M25.163 24h-6.422a4 4 0 0 1-4-4v-6.24c-5.959 0-10.729 5.088-10.201 11.157c.464 5.343 5.176 9.323 10.54 9.323h14.083V28a4 4 0 0 0-4-4"/><path fill="none" stroke="currentColor" stroke-linecap="round" stroke-linejoin="round" d="M22.837 24h6.422a4 4 0 0 1 4 4v6.24c5.959 0 10.729-5.088 10.201-11.157c-.464-5.343-5.176-9.324-10.54-9.324H18.837V20a4 4 0 0 0 4 4"/></svg>