<svg xmlns="http://www.w3.org/2000/svg" width="1em" height="1em" viewBox="0 0 48 48"><path fill="none" stroke="currentColor" stroke-linecap="round" stroke-linejoin="round" d="M11.2 29.464c1.576 0 2.56-1.248 2.167-2.364m0 0c0-.385.16-.454 0-.864s-1.253.517-.859.7c.466.214.346.164.859.164m0 0c1.181.394 2.232 0 2.757-1.576m21.801.656c1.494.854 1.641-1.05.985-1.97c-.756-1.057-2.365-.165-3.086-1.247c-.69-1.035-.566-2.933-2.197-3.537c-.115-.043-.171-.18-.106-.283c2.069-3.29 5.92-3.7 9.329-2.155c1.51.684 1.897-.494 1.51-1.117c-1.505-2.42-8.486-3.081-12.953 1.071a.19.19 0 0 1-.115.05c-5.41.396-8.565 1.125-12.935 4.198m19.568 4.99c-2.058-1.175-3.488-.184-4.531-.656c-1.006-.455-1.347-1.215-2.32-1.66a.181.181 0 0 0-.197.034c-.258.237-.52.464-.786.682m7.834 1.6s-.364.78-.8.78c-1.378 0-3.657.093-4.313-.208c-1.282-.586-2.721-2.172-2.721-2.172m-13.292 5.124c1.51 1.116 4.316 2.53 5.946 3.068m-5.946-3.068c2.988-2.927 2.55-7.38 1.558-8.514m-1.558 8.513c-.453.444-.993.83-1.588 1.156m7.534 1.913c.157.134.296.13.471.238c1.707 1.05 2.364-.985 1.182-1.707c-1.117-.683-2.288-1.003-3.14-2.156a.179.179 0 0 1 .1-.277c2.899-.831 6.033-2.083 8.733-4.29m-7.346 8.192c.471.894 0 1.289-.58 1.289c-1.76 0-6.954-3.202-6.954-3.202m3.146-9.669a26.954 26.954 0 0 1-.555-.656m-12.446 4.99c-.329 1.05-.335 3.009.787 4.662c.322.475.72.84 1.169 1.117m-1.957-5.779c-1.181-1.379-2.346-4.378-1.641-4.99c.705-.612 2.43 1.116 3.808 1.838m-2.166 3.152c.098-.316.239-.63.416-.944m1.75-2.208c1.052-1.077 2.824-1.838 4.268-1.838m-4.268 1.838c-.734.753-1.34 1.48-1.75 2.208m6.018-4.046c.46-2.496.046-5.346 1.051-5.647c1.005-.302 3.992 4.465 4.961 5.647m-6.011 0c2.757 2.889 6.011 0 6.011 0M5.772 24.58c1.54 1.995 2.867 3.899 1.54 6.723m0 0c1.949 1.198 5.403.92 7.899-.444"/><circle cx="13.867" cy="24.309" r=".75" fill="currentColor"/><circle cx="9.657" cy="26.733" r=".75" fill="currentColor"/></svg>