<svg xmlns="http://www.w3.org/2000/svg" width="1em" height="1em" viewBox="0 0 48 48"><path fill="none" stroke="currentColor" stroke-linecap="round" stroke-linejoin="round" d="m24 32.507l9.77-6.995v-2.578m-9.77.871l5.06-4.228V16.26M24 29.975l-9.95-7.362v-2.22M24 21.54l-4.879-3.76v-4.313M8.444 43.5c3.438-4.346 6.43-7.057 11.936-7.057M24 34.71l1.733 1.732L24 38.175l-1.733-1.733zm-1.733 1.733h-8.082m13.435 0c5.506 0 8.498 2.711 11.936 7.057m-13.823-7.057h8.082M24 38.176v2.374m0-5.841V8.545"/><circle cx="24" cy="6.522" r="2.022" fill="none" stroke="currentColor" stroke-linecap="round" stroke-linejoin="round"/><circle cx="29.06" cy="14.238" r="2.022" fill="none" stroke="currentColor" stroke-linecap="round" stroke-linejoin="round"/><circle cx="33.769" cy="20.911" r="2.022" fill="none" stroke="currentColor" stroke-linecap="round" stroke-linejoin="round"/><circle cx="14.049" cy="18.371" r="2.022" fill="none" stroke="currentColor" stroke-linecap="round" stroke-linejoin="round"/><circle cx="19.121" cy="11.444" r="2.022" fill="none" stroke="currentColor" stroke-linecap="round" stroke-linejoin="round"/></svg>