<svg xmlns="http://www.w3.org/2000/svg" width="1em" height="1em" viewBox="0 0 48 48"><path fill="none" stroke="currentColor" stroke-linecap="round" stroke-linejoin="round" d="M40.5 5.5h-33a2 2 0 0 0-2 2v33a2 2 0 0 0 2 2h33a2 2 0 0 0 2-2v-33a2 2 0 0 0-2-2"/><path fill="none" stroke="currentColor" stroke-linecap="round" stroke-linejoin="round" d="M22.055 17.555v-6.2h2.015c1.163 0 2.093.93 2.093 2.092s-.93 2.093-2.093 2.093h-2.015m6.582-4.186h4.03m-2.015 6.201v-6.201m-16.66 4.108c0 1.163-.93 2.093-2.093 2.093h0c-1.162 0-2.092-.93-2.092-2.015v-2.093c0-1.163.93-2.093 2.092-2.015h0c1.163 0 2.016.93 2.016 2.015h0m2.557 1.008h2.015m1.085 3.1h-3.1v-6.201h3.1m15.579 3.101h2.015m1.085 3.1h-3.1v-6.201h3.1M23.528 32.633c-1.705-.197-2.798-1.705-2.614-3.297l.355-3.069c.197-1.705 1.719-2.911 3.31-2.727h0a3.077 3.077 0 0 1 2.714 3.423l-.341 2.956a3.077 3.077 0 0 1-3.424 2.714m8.276-8.055l1.722 8.991m-.603-3.147l3.601-6.748m1.722 8.99l-4.457-3.806m-19.444 3.796l-.194 1.251l.505-.141a.826.826 0 0 1 1.033.58c.141.505-.077.892-.581 1.034l-1.11.31m-2.613-3.437c.674.464 1.364.597 2.272.343l1.21-.34c1.11-.31 1.764-1.472 1.453-2.582s-1.473-1.763-2.583-1.452l-1.311.367c-1.11.311-2.272-.343-2.583-1.452s.343-2.272 1.452-2.583l1.21-.339c.909-.254 1.57-.222 2.273.343"/><path fill="none" stroke="currentColor" stroke-linecap="round" stroke-linejoin="round" d="m28.109 37.679l-1.389-1.395m2.199-12.547c-2.217.965-1.561-3.566-1.947-3.566c-.06 0-.96.464-2 1.032c-2.346 1.279-2.697 1.19-4.687.02c-3.911-2.304-3.61-2.508-2.09.964c1.484 3.392 1.547 3.026-.661 3.84c-2.14.79-1.45.47.342 2.856c1.748 2.328 1.69 1.925.532 3.722c-1.105 1.716-1.777 1.705.454 1.107c.923-.248 1.758-.45 1.856-.45c.049 0 .24.281.507.736l.968 1.769c1.546 2.984 1.203 2.908 2.344.52c.523-1.096.978-1.993 1.01-1.993c.083 0 4.97 1.172 5.26 1.26c.426.132-2.148-6.91-2.149-7.705c0-.292 3.145-5.367 3.145-5.367zm-8.385 11.867l-1.456 1.235m10.904-15.598l.912-1.07"/></svg>