<svg xmlns="http://www.w3.org/2000/svg" width="1em" height="1em" viewBox="0 0 48 48"><path fill="none" stroke="currentColor" stroke-linecap="round" stroke-linejoin="round" d="M17.606 24H5.5m35-18.5h-33c-1.1 0-2 .9-2 2v33c0 1.1.9 2 2 2h33c1.1 0 2-.9 2-2v-33c0-1.1-.9-2-2-2"/><path fill="none" stroke="currentColor" stroke-linecap="round" stroke-linejoin="round" d="M30.394 19.394A6.394 6.394 0 0 0 24 13h0a6.394 6.394 0 0 0-6.394 6.394v9.212A6.394 6.394 0 0 0 24 35h0a6.394 6.394 0 0 0 6.394-6.394"/></svg>