<svg xmlns="http://www.w3.org/2000/svg" width="1em" height="1em" viewBox="0 0 48 48"><path fill="none" stroke="currentColor" stroke-linecap="round" stroke-linejoin="round" d="M20.693 40.108c5.252-3.096 8.882-9.265 7.988-15.442C27.26 12.663 14.09 11.258 15.949 10.722l15.884-5.46c2.007-.69 2.3 2.865 2.925 4.44c1.124 2.832-1.054 6.27.906 8.938c1.54 2.365 3.934 4.201 4.89 6.92c.145 2.211-2.61 2.57-3.694 3.882c.01 1.496.728 2.965-.32 4.285c.527 2.03-1.84 3.114-1.043 5.173c.515 1.624-.097 4.316-2.17 3.878zm-6.857-11.6v8"/><circle cx="14.966" cy="16.856" r=".75" fill="currentColor"/><path fill="none" stroke="currentColor" stroke-linecap="round" stroke-linejoin="round" d="M14.966 19.256v5.4m-2.126-2.7c0 1.5-1.2 2.7-2.7 2.7h0c-1.5 0-2.7-1.2-2.7-2.6v-2.7c0-1.5 1.2-2.7 2.7-2.6h0c1.5 0 2.6 1.2 2.6 2.6h0m3.424 17.152v-8h1.8c1.9 0 3.5 1.6 3.5 3.5v1c0 1.9-1.6 3.5-3.5 3.5zm5-12.952c-.3.6-1 1-1.7 1h0c-1.1 0-2-.9-2-2v-1.3c0-1.1.9-2 2-2h0c1.1 0 2 .9 2 2v.7h-4"/></svg>