<svg xmlns="http://www.w3.org/2000/svg" width="1em" height="1em" viewBox="0 0 48 48"><path fill="none" stroke="currentColor" stroke-linecap="round" stroke-linejoin="round" d="M42.208 11.444c-8.437-8.527-22.189-8.601-30.716-.165a21.72 21.72 0 0 0-5.964 10.899l11.43 2.725c.757-5.561 5.708-9.432 11.06-8.645a9.628 9.628 0 0 1 5.149 2.486z"/><path fill="none" stroke="currentColor" stroke-linecap="round" stroke-linejoin="round" d="M6.405 21.698c4.158-11.102 16.604-16.76 27.799-12.636a21.668 21.668 0 0 1 6.215 3.547m2.053 28.947c-8.437 8.527-22.188 8.601-30.716.165a21.72 21.72 0 0 1-5.964-10.899l11.418-2.725c.757 5.561 5.708 9.432 11.06 8.645a9.627 9.627 0 0 0 5.149-2.486z"/><path fill="none" stroke="currentColor" stroke-linecap="round" stroke-linejoin="round" d="m40.323 43.105l-7.516-5.955c-3.333 3.115-9.321 2.99-13.376-.28c-2.163-1.745-3.432-4.133-3.47-6.528l-9.22 2.317"/></svg>