<svg xmlns="http://www.w3.org/2000/svg" width="1em" height="1em" viewBox="0 0 48 48"><path fill="none" stroke="currentColor" stroke-linecap="round" stroke-linejoin="round" d="M27.19 42.5a89.044 89.044 0 0 1-14.681-1.572S13.94 12.372 17.92 5.535c-.13-.297 2.992 1.212 4.422 6.266a25.557 25.557 0 0 1 4.847-.47"/><ellipse cx="21.24" cy="20.309" fill="none" stroke="currentColor" stroke-linecap="round" stroke-linejoin="round" rx="1.671" ry="2.13"/><path fill="none" stroke="currentColor" stroke-linecap="round" stroke-linejoin="round" d="M27.19 42.5a89.044 89.044 0 0 0 14.681-1.572S40.44 12.372 36.458 5.535c.03-.2-3.59 1.755-4.421 6.266a25.558 25.558 0 0 0-4.848-.47"/><ellipse cx="33.14" cy="20.309" fill="none" stroke="currentColor" stroke-linecap="round" stroke-linejoin="round" rx="1.671" ry="2.13"/><path fill="none" stroke="currentColor" stroke-linecap="round" stroke-miterlimit="5.714" d="M12.508 40.927c-1.93-.327-4.948-.31-6.04-3.487c-1.067-3.107.438-6.67 3.742-7.045m15.253-4.008a1.467 1.467 0 0 0 1.473-1.472"/><path fill="none" stroke="currentColor" stroke-linecap="round" stroke-miterlimit="5.714" d="M28.41 26.387a1.467 1.467 0 0 1-1.474-1.472"/></svg>