<svg xmlns="http://www.w3.org/2000/svg" width="1em" height="1em" viewBox="0 0 48 48"><path fill="none" stroke="currentColor" stroke-linecap="round" stroke-linejoin="round" d="M40.5 5.5h-33a2 2 0 0 0-2 2v33a2 2 0 0 0 2 2h33a2 2 0 0 0 2-2v-33a2 2 0 0 0-2-2m-21.593 8.86v18.168"/><circle cx="25.464" cy="30.53" r="1.998" fill="none" stroke="currentColor" stroke-linecap="round" stroke-linejoin="round"/><circle cx="18.907" cy="13.456" r=".904" fill="none" stroke="currentColor" stroke-linecap="round" stroke-linejoin="round"/><path fill="none" stroke="currentColor" stroke-linecap="round" stroke-linejoin="round" d="m18.907 18.866l6.645-2.054l-6.645-2.452m6.72 14.181c.786-10.115 7.515-18.563 16.696-21.859M16.542 32.528h14.916c1.656 0 3 1.344 3 3V42.5H13.542v-6.972c0-1.656 1.344-3 3-3"/></svg>