<svg xmlns="http://www.w3.org/2000/svg" width="1em" height="1em" viewBox="0 0 48 48"><path fill="none" stroke="currentColor" stroke-linecap="round" stroke-linejoin="round" d="M26.983 39.734s1.28 1.943 2.614 1.943c2.799 0 5.3-.752 7.124-3.636c.278-.44.207-1.452.173-2.3a.11.11 0 0 1 .097-.11c2.532-.318 2.695-5.788 1.532-6.696a.121.121 0 0 1-.048-.109c.13-1.417-3.292-6.717-5.499-6.466c-2.07.236-3.62 4.697-3.62 4.697"/><path fill="none" stroke="currentColor" stroke-linecap="round" stroke-linejoin="round" d="M27.026 39.681c.601-.835 1.304-1.137 1.54-2.14c.499-2.119-.043-5.029.495-8.178a.107.107 0 0 1 .036-.063c1.259-1.047 1.1-1.667.26-2.243c-.894-.611-2.536 2.042-2.666 2.255a.09.09 0 0 0-.011.03c-.03.137-.254 1.09-.693 1.577a.096.096 0 0 1-.144-.003c-1.35-1.51-2.487-3.464-2.682-3.807a.104.104 0 0 0-.09-.052h-1.307a.104.104 0 0 1-.076-.033l-1.364-1.447a.096.096 0 0 0-.04-.026c-.128-.043-.767-.241-1.047.008c-.349.312.363 1.498.363 1.498m0 0l2.376 2.482M19.6 27.057s-.67.09-.833.728c-.162.626-.626 2.626-.642 2.694v.003c-.012.07-.303 1.887 0 2.994c.452 1.652 2.642 3.222 3.363 3.702c.08.053.053.176-.042.187c-.576.068-1.936.166-2.844-.265c-1.025-.488-1.403-.94-1.96-1.929c-.314-.555 0-2.576-1-2.294c-.498.141-.978.813-1.55.813s-2.107-.034-3.007-.214c-1.067-.213-1.556-.663-2.07-1.615a.109.109 0 0 1-.008-.023c-.363-1.369-.334-3.338.459-4.78c1.386-2.526 3.188-3.637 6.177-4.965c.422-.188 1.138-.05 1.324-.01a.1.1 0 0 1 .067.052zm4.952-5.19s.57-.252 1.694-.252s1.77.251 1.77.251"/><path fill="none" stroke="currentColor" stroke-linecap="round" stroke-linejoin="round" d="M17.312 22.4s-.913-2.472-1.207-4.124c-.48-2.688-.86-4.4 0-6.991c.59-1.781 2.607-5.11 5.934-5.604s6.565 0 8.703 1.781c3.32 2.766 4.003 4.902 4.003 8.698s-1.69 5.99-1.69 5.99m-9.985 4.907l1.486-1.088m-2.433-4.007v5.095m-3.128 12.22c-.39-.896-1.404-1.302-2.382-1.287c-.954.014-1.947.342-2.075 1.288c-.106.783-.022 2.039 2.626 2.039s2.098-1.424 1.83-2.04m-5.602 3.086c.378-.289.378-1.08 0-1.368c-.26-.2-.81-.15-.913-.138a.092.092 0 0 0-.032.01c-.317.159-.62.497-.557.843c.052.293.043.538.317.653c.335.14.897.22 1.185 0"/></svg>