<svg xmlns="http://www.w3.org/2000/svg" width="1em" height="1em" viewBox="0 0 48 48"><circle cx="26.186" cy="27.021" r="10.37" fill="none" stroke="currentColor" stroke-linecap="round" stroke-linejoin="round"/><path fill="none" stroke="currentColor" stroke-linecap="round" stroke-linejoin="round" d="m6.377 43.16l2.996-6.374l1.006-2.133m1.906-9.749a2.617 2.617 0 0 1 1.09 3.385l-1.08 2.295m-4.322-3.563l.892-1.307a2.604 2.604 0 0 1 3.418-.807"/><path fill="none" stroke="currentColor" stroke-linecap="round" stroke-linejoin="round" d="M13.078 32.485c0 1.49-1.208 2.169-2.699 2.169L9.374 36.79c-.897-.338-2.518-1.765-1.694-4.305c.46-1.417 1.208-2.698 2.699-2.698s2.699 1.208 2.699 2.698M9.374 36.79c3.02.488 13.788 3.998 16.28 6.71c3.151-2.453 8.576-4.487 8.576-4.487"/><path fill="none" stroke="currentColor" stroke-linecap="round" stroke-linejoin="round" d="M34.708 37.617c-.478 1.276-.757 3.33 2.573 3.33S39.813 37 39.813 37c1.576-2.134 3.37-4.467-.558-4.467s-5.43 1.502-5.43 1.502m-20.907-2.463s4.135 1.88 6.352 3.175m14.7-9.833c-.977 4.028-4.347 7.857-11.227 7.738m3.443-16.001c-.272 3.956-2.386 7.405-4.998 7.326s-.758-4.348-.758-4.348c-1.496 3.909-4.009 5.684-6.202 5.983m3.609-.08c2.294.598 5.604.519 5.604.519m7.638-6.98c-1.416 2.014-4.901 6.222-4.901 6.222c-.543-.2-.942-.858-.942-.858"/><path fill="none" stroke="currentColor" stroke-linecap="round" stroke-linejoin="round" d="M21.92 26.023c1.072.303 1.859 1.356 1.859 2.598c0 1.48-1.128 2.684-2.513 2.684s-2.513-1.204-2.513-2.684c0-1.327.9-2.437 2.086-2.655m11.305-.398v-.01c.265-.863.104-1.811-.513-2.523c-.768-.882-2-1.119-3.063-.692m-1.773 2.2a2.607 2.607 0 0 0 .588 2.172a2.637 2.637 0 0 0 2.494.854"/><path fill="none" stroke="currentColor" stroke-linecap="round" stroke-linejoin="round" d="M29.025 28.617c1.017-1.59 3.968-3.703 3.968-3.703m-2.659-7.412c-.505-2.26 2.66-5.344 2.66-5.344c-.24-2.42-2.513-4.52-6.463-4.717m-4.543.267c-4.855 1.459-5.613 5.487-5.613 5.487c2.765.585 3.974 5.255 3.974 5.255"/><circle cx="24.219" cy="6.88" r="2.38" fill="none" stroke="currentColor" stroke-linecap="round" stroke-linejoin="round"/><path fill="none" stroke="currentColor" stroke-linecap="round" stroke-linejoin="round" d="M22.933 8.882s.727 2.04.953 3.262c0 0-.678.998-1.768 2.3c-1.542-.478-4.693-3.376-4.693-3.376m8.293-2.341c-.489 1.756-.276 3.378-.276 3.378l1.728 1.621c3.59-.438 5.238-3.35 5.238-3.35m-7.611 3.949l.2 1.296m-.781-.492l1.339-.286"/></svg>