<svg xmlns="http://www.w3.org/2000/svg" width="1em" height="1em" viewBox="0 0 48 48"><path fill="none" stroke="currentColor" stroke-linecap="round" stroke-linejoin="round" d="M23 20.427h2m-6.128-11.12a3.285 3.285 0 0 1-3.284 3.287h0a3.286 3.286 0 0 1-.001-6.573h0a3.285 3.285 0 0 1 3.285 3.286m14.172 0a1.958 1.958 0 1 1-3.915 0h0c0-1.082.876-1.959 1.957-1.959h0a1.96 1.96 0 0 1 1.958 1.96"/><path fill="none" stroke="currentColor" stroke-linecap="round" stroke-linejoin="round" d="M29.128 9.307a3.285 3.285 0 1 0 6.569 0h0a3.285 3.285 0 0 0-3.284-3.286h0a3.285 3.285 0 0 0-3.285 3.286m7.827 26.646l-2.861 4.739"/><rect width="1.999" height="2" x="32.577" y="40.546" fill="none" stroke="currentColor" stroke-linecap="round" stroke-linejoin="round" rx=".999" ry=".999"/><path fill="none" stroke="currentColor" stroke-linecap="round" stroke-linejoin="round" d="m36.955 35.953l2.861-4.739m-.481-.854a1 1 0 0 0 .999 1h0a1 1 0 0 0 1-1h0a1 1 0 0 0-1-1h0a1 1 0 0 0-1 1m-6.182-8.635l6.391-3.008m-.576 5.018l-12.988 6.013m11.994-.673l-11.994 5.684m7.458 1.312l-7.604 3.557m-.765 3.872l4.927-2.341M18.872 9.307a3.285 3.285 0 0 1-3.284 3.287h0a3.285 3.285 0 0 1-3.285-3.287h0a3.285 3.285 0 0 1 3.284-3.286h0a3.285 3.285 0 0 1 3.285 3.286M24 20.427v19.916"/><circle cx="24" cy="17.035" r="1.5" fill="none" stroke="currentColor" stroke-linecap="round" stroke-linejoin="round"/><path fill="none" stroke="currentColor" stroke-linecap="round" stroke-linejoin="round" d="M23 20.427h2M13.906 40.692l-2.861-4.739"/><rect width="1.999" height="2" x="13.425" y="40.546" fill="none" stroke="currentColor" stroke-linecap="round" stroke-linejoin="round" rx=".999" ry=".999"/><path fill="none" stroke="currentColor" stroke-linecap="round" stroke-linejoin="round" d="m8.184 31.214l2.861 4.739M8.666 30.36a1 1 0 0 0-1-1h0a1 1 0 0 0-1 1h0a1 1 0 0 0 1 1h0a1 1 0 0 0 1-1m17.916-9.278l11.252-2.879l-10.995-2.597L24 4.5l-2.839 11.106l-10.995 2.597l11.252 2.879L24 30.458zM8.457 18.717l6.391 3.008m7.173 8.023L9.033 23.735m12.988 11.024l-11.994-5.684m12.14 10.553l-7.604-3.557m3.442 5.088l4.927 2.341"/></svg>