<svg xmlns="http://www.w3.org/2000/svg" width="1em" height="1em" viewBox="0 0 48 48"><path fill="none" stroke="currentColor" stroke-linecap="round" stroke-linejoin="round" d="M14.151 38.606h-1.289a3.267 3.267 0 0 1-2.561-1.25l-6.076-7.814c-.3-.399-.3-.948 0-1.346l6.114-7.815a3.218 3.218 0 0 1 2.562-1.25h13.517l-7.687 9.642l-5.605 7.078"/><path fill="none" stroke="currentColor" stroke-linecap="round" stroke-linejoin="round" d="m18.827 28.869l-.055-.096l-5.637 7.078c-.29.374-.438.84-.416 1.312c0 .64.61 1.443 1.818 1.443h11.884zm14.99-19.475h1.282a3.27 3.27 0 0 1 2.562 1.25l6.114 7.814c.3.399.3.948 0 1.346l-6.137 7.815a3.223 3.223 0 0 1-2.564 1.25H21.55l7.678-9.642l5.614-7.078"/><path fill="none" stroke="currentColor" stroke-linecap="round" stroke-linejoin="round" d="m29.173 19.131l.055.096l5.614-7.078a2 2 0 0 0 .416-1.312c0-.64-.609-1.443-1.818-1.443H21.55z"/></svg>