<svg xmlns="http://www.w3.org/2000/svg" width="1em" height="1em" viewBox="0 0 48 48"><path fill="none" stroke="currentColor" stroke-linecap="round" stroke-linejoin="round" d="M27.89 25.825h-.79c-.45 0-1.014-.226-1.24-.677l-3.157-4.285c-.45-.563-1.127-1.24-1.127-2.255s.79-1.804 1.917-1.804c1.014 0 1.804.79 1.804 1.804s-.79 1.917-2.368 2.255c-1.692.339-2.819 1.24-2.819 2.82c0 1.24.79 2.142 2.368 2.142c2.03 0 3.27-2.03 5.074-4.398m6.102 2.318V13.55h3.312c1.912 0 3.44 1.53 3.44 3.44s-1.528 3.44-3.44 3.44h-3.312m3.437-.001l3.188 3.188m-32.614.129V13.552H9.96c2.42 0 4.46 2.04 4.46 4.46v1.274c0 2.421-2.04 4.46-4.46 4.46zm23.265 15.41v-6.135h1.994c1.15 0 2.07.92 2.07 2.07s-.92 2.071-2.07 2.071H30.93m2.07-.001l1.918 1.918m-20.92-6.058h3.988m-1.994 6.135v-6.135M5.577 38.466c.383.46.843.69 1.533.69h.92c.844 0 1.535-.69 1.535-1.534h0c0-.843-.69-1.534-1.534-1.534h-.997c-.844 0-1.534-.69-1.534-1.533h0c0-.844.69-1.534 1.534-1.534h.92c.69 0 1.15.153 1.534.69m29.944 2.378h1.994m1.074 3.067h-3.068v-6.135H42.5m-18.08 6.135a1.98 1.98 0 0 1-1.993-1.994v-2.07c0-1.15.92-2.07 1.994-2.07c1.15 0 2.07.92 2.07 2.07v1.994c0 1.15-.92 2.07-2.07 2.07"/><rect width="11.083" height="18.985" x="5.5" y="8.844" fill="none" stroke="currentColor" stroke-linecap="round" stroke-linejoin="round" rx="2.223" ry="2.223"/><rect width="11.083" height="18.985" x="31.417" y="8.844" fill="none" stroke="currentColor" stroke-linecap="round" stroke-linejoin="round" rx="2.223" ry="2.223"/><rect width="11.083" height="21.341" x="18.458" y="8.844" fill="none" stroke="currentColor" stroke-linecap="round" stroke-linejoin="round" rx="2.223" ry="2.223"/></svg>