<svg xmlns="http://www.w3.org/2000/svg" width="1em" height="1em" viewBox="0 0 48 48"><path fill="none" stroke="currentColor" stroke-linecap="round" stroke-linejoin="round" d="M11.743 43.5a1.969 1.969 0 0 0 1.839-1.266L27.277 6.399A2.953 2.953 0 0 1 30.035 4.5h9.943a1.969 1.969 0 0 0-1.839 1.266L24.444 41.601a2.953 2.953 0 0 1-2.758 1.899z"/><path fill="none" stroke="currentColor" stroke-linecap="round" stroke-linejoin="round" d="M16.956 33.404L14.97 14.17a1 1 0 0 0-1.895-.332L8.39 23.526a4 4 0 0 0-.388 2.037l1.187 16.012a2 2 0 0 0 1.999 1.925h.555"/></svg>