<svg xmlns="http://www.w3.org/2000/svg" width="1em" height="1em" viewBox="0 0 48 48"><path fill="none" stroke="currentColor" stroke-linecap="round" stroke-linejoin="round" d="M14.438 22.73c4.94 0 8.949 3.997 8.949 8.937s-4.01 8.949-8.95 8.949S5.5 36.607 5.5 31.667s3.998-8.938 8.938-8.938M17.22 7.384c2.684 0 4.852 2.18 4.852 4.863S19.904 17.1 17.22 17.1a4.857 4.857 0 1 1 0-9.715m18.193 7.327a7.091 7.091 0 0 1 7.087 7.086c0 3.922-3.176 7.098-7.087 7.098a7.096 7.096 0 0 1-7.097-7.098c0-3.91 3.176-7.086 7.097-7.086m-13.877-.208l7.535 3.976M22.63 27.8l6.168-2.88"/></svg>