<svg xmlns="http://www.w3.org/2000/svg" width="1em" height="1em" viewBox="0 0 48 48"><path fill="none" stroke="currentColor" stroke-linecap="round" stroke-linejoin="round" d="M31.25 26.538a7.271 7.271 0 0 0-7.25-7.25h0a7.271 7.271 0 0 0-7.25 7.25v4.712A7.271 7.271 0 0 0 24 38.5h0a7.271 7.271 0 0 0 7.25-7.25m0 7.25v-29"/><path fill="none" stroke="currentColor" stroke-linecap="round" stroke-linejoin="round" d="M5.5 19.6v20.9a2 2 0 0 0 2 2h33a2 2 0 0 0 2-2v-33a2 2 0 0 0-2-2h-33a2 2 0 0 0-2 2z"/></svg>