<svg xmlns="http://www.w3.org/2000/svg" width="1em" height="1em" viewBox="0 0 48 48"><path fill="none" stroke="currentColor" stroke-linecap="round" stroke-linejoin="round" d="M9.386 9.648A20.388 20.388 0 0 1 24 3.503c11.294 0 20.45 9.155 20.45 20.449S35.294 44.402 24 44.402S3.55 35.246 3.55 23.952c0-3.946 1.119-7.631 3.055-10.756"/><path fill="none" stroke="currentColor" stroke-linecap="round" stroke-linejoin="round" d="M30.819 23.824a2.193 2.193 0 0 1-4.387 0v0c0-1.211.982-2.193 2.193-2.193h.001c1.211 0 2.193.982 2.193 2.193"/><path fill="none" stroke="currentColor" stroke-linecap="round" stroke-linejoin="round" d="M24.649 17.04h10.71a2.78 2.78 0 0 1 2.786 2.773v8.01a2.78 2.78 0 0 1-2.774 2.785H24.649a2.78 2.78 0 0 1-2.786-2.773v-8.01a2.78 2.78 0 0 1 2.774-2.786z"/><path fill="none" stroke="currentColor" stroke-linecap="round" stroke-linejoin="round" d="M35.85 30.562v2.75a2.78 2.78 0 0 1-2.773 2.787H14.41a2.78 2.78 0 0 1-2.786-2.774V14.592a2.78 2.78 0 0 1 2.774-2.786h18.665a2.78 2.78 0 0 1 2.785 2.774v2.504M1.45 16.563l5.395-3.952l.725 6.648"/></svg>