<svg xmlns="http://www.w3.org/2000/svg" width="1em" height="1em" viewBox="0 0 48 48"><path fill="none" stroke="currentColor" stroke-linecap="round" stroke-linejoin="round" d="M15.286 24.19c.425.425 1.17 2.129 1.277 3.62c.107 1.383-.532 2.341-.32 2.874c.107.532 1.045.302 1.684.302s1.233-.152 1.978-.578c.745-.426 1.785-1.349 2.85-1.775c.958-.532 2.819-.29 4.416-.184s2.807.531 4.723 1.17c1.916.639 3.513 1.49 4.897 2.662c1.384 1.064 2.342 2.342 3.088 3.406c.745.959.918 1.704.918 2.449c0 .639-.353 1.294-.942 1.49c-1.316.472-1.158.532-4.03.532H24.538c-3.3-.213-4.384-.894-5.768-1.533c-1.278-.639-2.749-1.129-3.494-1.98s-1.362-2.277-2.32-3.128c-.852-.852-1.564-1.143-2.522-1.888c-.958-.745-1.865-1.692-2.398-2.756s-1.253-2.75-1.04-2.964c.213-.212 1.498.796 2.244 1.222c.851.426 1.216.396 1.854.503c.746.106 1.347.296 1.879.083c.532-.213.859-.671 1.178-1.63c.213-.851.4-2.68.827-2.36zm9.147 12.242h11.072M11.231 42.5h.32m1.81 0h2.129m2.129 0h4.259m1.597 0h6.92m1.597 0h9.049M17.089 17.357V8.84h1.916a3.726 3.726 0 0 1 3.726 3.726v1.065a3.726 3.726 0 0 1-3.726 3.726zm11.693-4.259a2.13 2.13 0 1 1 0 4.259h-3.513V8.84h3.513a2.13 2.13 0 1 1 0 4.258m0 0h-3.514"/><rect width="23.913" height="15.197" x="12.044" y="5.5" fill="none" stroke="currentColor" stroke-linecap="round" stroke-linejoin="round" rx="2.129" ry="2.129"/></svg>