<svg xmlns="http://www.w3.org/2000/svg" width="1em" height="1em" viewBox="0 0 48 48"><circle cx="9.539" cy="32.9" r=".75" fill="currentColor"/><circle cx="24" cy="32.9" r=".75" fill="currentColor"/><circle cx="38.462" cy="32.9" r=".75" fill="currentColor"/><path fill="none" stroke="currentColor" stroke-linecap="round" stroke-linejoin="round" d="M4.5 19.388c0-1.374.458-2.748 1.374-3.664c.916-.916 2.061-1.374 3.665-1.374c2.748 0 5.038 2.29 5.038 5.038c0 1.374-.458 2.748-1.374 3.665c-1.145.916-3.664 2.29-3.664 4.35m9.423-8.015c0-1.374.458-2.748 1.374-3.664c.916-.916 2.06-1.374 3.664-1.374c2.748 0 5.039 2.29 5.039 5.038c0 1.374-.459 2.748-1.375 3.665c-1.145.916-3.664 2.29-3.664 4.35m9.423-8.015c0-1.374.458-2.748 1.374-3.664c.916-.916 2.061-1.374 3.665-1.374c2.748 0 5.038 2.29 5.038 5.038c0 1.374-.458 2.748-1.374 3.665c-1.145.916-3.664 2.29-3.664 4.35"/></svg>