<svg xmlns="http://www.w3.org/2000/svg" width="1em" height="1em" viewBox="0 0 48 48"><path fill="none" stroke="currentColor" stroke-linecap="round" stroke-linejoin="round" d="M39.8 5.958c-2.879 7.472-7.69 7.29-10.715 7.29c-4.386 0-7.958-3.645-13.741-3.645c-4.739 0-5.832 2.843-4.885 6.232C7.762 10.15 11.59 4.5 19.28 4.5c6.889 0 8.2 3.718 14.288 3.718c4.483 0 6.233-2.26 6.233-2.26Z"/><path fill="none" stroke="currentColor" stroke-linecap="round" stroke-linejoin="round" d="M21.764 11.024C12.574 14.633 8.2 19.833 8.2 28.726S14.566 43.5 22.293 43.5s16.232-5.832 16.232-17.981c-4.665 10.157-7.97 10.643-12.927 10.643s-11.324-4.18-11.324-11.13s3.558-10.327 7.49-14.008m10.044 2.113l-.057 21.778"/><path fill="none" stroke="currentColor" stroke-linecap="round" stroke-linejoin="round" d="M27.452 13.085c0 9.47 1.499 19.237-7.644 21.37c1.221-3.688 1.889-9.374 1.889-18.99m5.755-2.38l-11.511 4.76"/></svg>