<svg xmlns="http://www.w3.org/2000/svg" width="1em" height="1em" viewBox="0 0 48 48"><path fill="none" stroke="currentColor" stroke-linecap="round" stroke-linejoin="round" d="M27.096 34.501c2.42 1.75 8.743-.19 12.933-2.742c1.627-1.786 3.342-4.707 3.471-7.83c-3.243-.26-6.6.082-9.773 1.66c-2.9 1.94-5.946 5.5-6.63 8.912zm-3.031-1.028c2.701-3.315 5.054-6.63 6.36-9.946c-1.042-3.567-3.37-7.368-6.114-10.7c-3.424 2.756-5.571 6.52-7.245 9.846c1.533 3.85 3.81 7.316 6.999 10.8m-3.619 1.358c-9.652.323-14.003-3.103-15.946-9.909c2.185-2.224 14.587.052 15.946 9.91"/></svg>