<svg xmlns="http://www.w3.org/2000/svg" width="1em" height="1em" viewBox="0 0 48 48"><path fill="none" stroke="currentColor" stroke-linecap="round" stroke-linejoin="round" d="M30.863 23.543c-.502.717-.328 1.298.389 1.298h6.488m-3.825-5.658l-1.754 2.505m-8.774-2.505l-1.746 2.495m9.532-2.495l-1.746 2.495m-7.786 0h7.786m-9.092 1.865l-.987 1.409m8.773-1.409l-.987 1.409m-9.066-1.722c-.623.89-1.849 1.61-2.738 1.61h-4.947l2.336-3.336m-2.711-2.32h9.283c.89 0 1.105.72.483 1.61l-.627.894M8.077 24.84H3.5m5.961-1.976H3.5m3.193 3.953H3.5m36.423-1.977H44.5m-5.961 1.977H44.5m-3.193-3.953H44.5"/></svg>