<svg xmlns="http://www.w3.org/2000/svg" width="1em" height="1em" viewBox="0 0 48 48"><path fill="none" stroke="currentColor" stroke-linecap="round" stroke-linejoin="round" d="M12.933 42.051h-1.409c-2.487 0-4.511-2.003-4.511-4.49V12.735c0-2.487 2.024-4.49 4.511-4.49h25.179c2.487 0 4.511 2.003 4.511 4.49v1.893m.001 18.785v4.148c0 2.487-2.025 4.49-4.512 4.49h-8.408M14.631 10.585V5.949m18.965 0v4.636m2.865 5.76H7.013m7.313 7h7.633m-7.633 11.73h2.116m-2.116-5.865h3.899m-.386 12.841l9.657-9.657"/><path fill="none" stroke="currentColor" stroke-linecap="round" stroke-linejoin="round" d="m44.692 20.636l-4.094 1.277l1.783 3.741C37.495 33.996 28.493 39.19 20.702 39.19c0-11.004 10.344-24.386 25.31-25.31a26.853 26.853 0 0 1-1.32 6.756"/></svg>