<svg xmlns="http://www.w3.org/2000/svg" width="1em" height="1em" viewBox="0 0 48 48"><path fill="none" stroke="currentColor" stroke-linecap="round" stroke-linejoin="round" d="M5.745 38.148s.176 4.63 9.315 4.339c9.138-.293 20.683-2.377 25.682-12.874C45.74 19.116 38.704 5.604 14.509 5.5c0 0-5.356 29.949 1.162 29.924c-6.324-.93-9.74.269-9.926 2.724"/><path fill="none" stroke="currentColor" stroke-linecap="round" stroke-linejoin="round" d="M26.137 12.07c2.98.093 4.188 2.322 4.188 5.188v5.423c0 2.865-1.323 5.188-4.188 5.188h0c-2.866 0-4.19-2.323-4.19-5.188v-5.423c0-2.902 1.157-5.038 4.19-5.188m-.022 18.733v4.138"/><path fill="none" stroke="currentColor" stroke-linecap="round" stroke-linejoin="round" d="M18.112 24.22a8.18 8.18 0 0 0 16.049 0"/></svg>