<svg xmlns="http://www.w3.org/2000/svg" width="1em" height="1em" viewBox="0 0 48 48"><path fill="none" stroke="currentColor" stroke-linecap="round" stroke-linejoin="round" d="M34.304 19.555C35.926 20.39 38.82 24 38.82 24m-5.22 3.653c-.992-2.45-1.94-5.677-1.94-5.677"/><path fill="none" stroke="currentColor" stroke-linecap="round" stroke-linejoin="round" d="M24 31.5c-.524-1.145-1.385-1.924-2.825-1.037c-.805-2.68-4.173-3.977-6.774-2.81C15 23.438 11.48 24 9.18 24c.093-3.523-2.92-6.527-6.681-7.5h9c2.19 0 5.464.951 7.13 4.777c1.665 3.825 3.817 4.82 3.817 4.82c.88-.606-1.216-2.637.056-4.972c.86.52 1.01 1.686 1.01 1.686c.281-.108.487-.103.487-.103s.206-.005.486.103c0 0 .15-1.167 1.01-1.686c1.273 2.335-.823 4.366.057 4.972c0 0 2.152-.995 3.817-4.82c1.665-3.826 4.94-4.777 7.13-4.777h9c-3.761.973-6.774 3.977-6.68 7.5c-2.302 0-5.82-.562-5.221 3.653c-2.601-1.167-5.97.13-6.774 2.81c-1.44-.887-2.301-.109-2.825 1.037Z"/><path fill="none" stroke="currentColor" stroke-linecap="round" stroke-linejoin="round" d="M13.696 19.555C12.074 20.39 9.18 24 9.18 24m5.22 3.653c.992-2.45 1.94-5.677 1.94-5.677"/></svg>