<svg xmlns="http://www.w3.org/2000/svg" width="1em" height="1em" viewBox="0 0 48 48"><path fill="none" stroke="currentColor" stroke-linecap="round" stroke-linejoin="round" d="M13.293 27.02c-.494 5.075-2.785 8.641-2.785 8.641c-.9-1.043-1.197-3.045-1.197-3.045c-.104 2.759-1.536 5.7-1.536 5.7c-.807-1.25-1.744-5.83-1.744-5.83c-.338 1.666-1.51 2.629-1.51 2.629S4.028 15.202 7.776 12.86s8.704 1.351 8.704 1.351m8.032.653c-2.056 0-4.894.182-5.154 3.878c-.26 3.696 1.822 2.16 1.614 6.69c.833-.625 1.796-2.369 1.796-2.369c1.197 1.9.416 3.878.416 3.878c3.592-1.015 5.805-6.169 5.805-8.12s-1.756-3.957-4.477-3.957"/><path fill="none" stroke="currentColor" stroke-linecap="round" stroke-linejoin="round" d="M13.154 28.133c.868 1.333 2.1 3.85 1.458 5.533l1.47-1.796m4.361-9.645c-1.371 2.781-5.484 2.938-8.052 3.163c1.11-.885 2.152-3.071 2.152-3.071c-1.892-.295-2.569-2.204-2.569-2.204c1.944-.555 5.342-5.072 10.367-5.07"/><path fill="none" stroke="currentColor" stroke-linecap="round" stroke-linejoin="round" d="M22.408 13.147c-3.05-2.281-5.748-3.463-9.184-3.463c.121 1.388 2.724 2.152 2.724 2.152c-.086 1.266.029 2.363 2.28 4.21m-.745 18.39c-.507 1.485-1.678 2.943-1.678 2.943c1.367.312 3.75-1.346 3.75-1.346"/><ellipse cx="19.662" cy="29.05" fill="none" stroke="currentColor" stroke-linecap="round" stroke-linejoin="round" rx="1.978" ry="2.204"/><path fill="none" stroke="currentColor" stroke-linecap="round" stroke-linejoin="round" d="m20.184 28.716l-.522.53l-.522-.53m15.567-1.696c.494 5.075 2.785 8.641 2.785 8.641c.9-1.043 1.197-3.045 1.197-3.045c.104 2.759 1.536 5.7 1.536 5.7c.807-1.25 1.744-5.83 1.744-5.83c.338 1.666 1.51 2.629 1.51 2.629s.494-19.913-3.254-22.255s-8.704 1.351-8.704 1.351"/><path fill="none" stroke="currentColor" stroke-linecap="round" stroke-linejoin="round" d="M32.052 25.059s.507 1.978.173 5.223c-.536 5.21-4.772 6.542-8.225 7.097c-3.453-.555-7.69-1.887-8.225-7.097c-.334-3.245.173-5.224.173-5.224"/><path fill="none" stroke="currentColor" stroke-linecap="round" stroke-linejoin="round" d="M34.846 28.133c-.868 1.333-2.1 3.85-1.458 5.533l-1.47-1.796m-4.138-9.252c1.55 2.404 5.387 2.556 7.829 2.77c-1.11-.885-2.152-3.071-2.152-3.071c2.568-.26 2.568-2.204 2.568-2.204c-1.943-.555-5.128-5.072-10.153-5.07"/><path fill="none" stroke="currentColor" stroke-linecap="round" stroke-linejoin="round" d="M26.605 15.097c.124-1.181-1.078-2.463-2.605-2.463s-2.728 1.282-2.605 2.463"/><path fill="none" stroke="currentColor" stroke-linecap="round" stroke-linejoin="round" d="M25.592 13.147c3.05-2.281 5.748-3.463 9.184-3.463c-.121 1.388-2.724 2.152-2.724 2.152c.086 1.266-.023 2.285-2.274 4.131m.739 18.469c.507 1.485 1.678 2.943 1.678 2.943c-1.367.312-3.75-1.346-3.75-1.346m-1.825-2.108c-.624.523-1.475.743-2.62.743s-1.996-.22-2.62-.743"/><ellipse cx="28.338" cy="29.05" fill="none" stroke="currentColor" stroke-linecap="round" stroke-linejoin="round" rx="1.978" ry="2.204"/><path fill="none" stroke="currentColor" stroke-linecap="round" stroke-linejoin="round" d="m27.816 28.716l.522.53l.522-.53m-4.729 2.241v-.681m-8.314-16.502c-1.223 1.275-1.764 2.724-1.2 4.617m17.566-4.617c1.588 1.548 1.744 3.256 1.372 4.705m-11.377 6.292c-2.842-.503-3.314-.844-3.314-.844m7.599.682c1.7-.245 2.671-.682 2.671-.682"/></svg>