<svg xmlns="http://www.w3.org/2000/svg" width="1em" height="1em" viewBox="0 0 48 48"><path fill="none" stroke="currentColor" stroke-linecap="round" stroke-linejoin="round" d="M40.5 5.5h-33a2 2 0 0 0-2 2v33a2 2 0 0 0 2 2h33a2 2 0 0 0 2-2v-33a2 2 0 0 0-2-2"/><path fill="none" stroke="currentColor" stroke-linecap="round" stroke-linejoin="round" d="M29.45 29.002v3.446A2.552 2.552 0 0 1 26.898 35h0a2.544 2.544 0 0 1-1.805-.748"/><path fill="none" stroke="currentColor" stroke-linecap="round" stroke-linejoin="round" d="M29.45 24.79v4.212a2.552 2.552 0 0 1-2.552 2.552h0a2.552 2.552 0 0 1-2.552-2.552v-4.211m-4.303-.001v8.741A1.47 1.47 0 0 0 21.512 35h.44m-3.451-7.785h3.084M32.132 12v8.74c0 .812.658 1.47 1.469 1.47h.44m-3.451-7.786h3.084M19.24 17.998a2.552 2.552 0 0 0-2.552-2.552h0a2.552 2.552 0 0 0-2.552 2.552v1.659a2.552 2.552 0 0 0 2.552 2.552h0a2.552 2.552 0 0 0 2.553-2.552m0 2.552V12"/><rect width="6.764" height="10.209" x="21.717" y="12" fill="none" stroke="currentColor" stroke-linecap="round" stroke-linejoin="round" rx="3.382" ry="3.382"/></svg>