<svg xmlns="http://www.w3.org/2000/svg" width="1em" height="1em" viewBox="0 0 48 48"><path fill="none" stroke="currentColor" stroke-miterlimit="10" d="M24.807 18.198c-4.592-8.041 6.836-16.66 12.742-9.255c.854 1.185 2.113 1.246 3.395 1.467c2.26.196-1.622 3.262.607 7.75c3.92 11.296-4.074 25.765-17.722 21.583c-2.095-.642-4.739-2.631-6.343-.449c-6.676 9.68-18.933-11.007-6.92-10.359c2.103-.14 4.642 2.581 6.304.633c14.424 15.659 28.401-9.5 7.937-11.37Z"/><path fill="none" stroke="currentColor" stroke-miterlimit="10" d="M24.807 18.198c20.475 1.878 6.472 27.026-7.936 11.37c-2.761-4.172-4.642-8.603-3.286-13.722c.235-.888 1.05-3.547 2.195-2.201c2.134 3.285 5.532 4.003 9.027 4.553Z"/></svg>