<svg xmlns="http://www.w3.org/2000/svg" width="1em" height="1em" viewBox="0 0 48 48"><path fill="none" stroke="currentColor" stroke-linecap="round" stroke-linejoin="round" d="M28.645 36.368C35.495 35.14 42.5 31.193 42.5 24.002c0-5.887-6.99-10.661-13.853-12.244v-1.15c0-.965.78-1.738 1.746-1.738h1.686V6.3H15.92v2.568h1.686c.965 0 1.748.765 1.748 1.731v1.16C12.491 13.345 5.5 18.12 5.5 24.001c0 7.187 7.005 11.133 13.855 12.364v1.037c0 .965-.784 1.73-1.749 1.73H15.92v2.567h16.16v-2.567h-1.686a1.739 1.739 0 0 1-1.748-1.73zm-9.29-22.04v19.526C15.482 32.396 13.02 28.972 13.02 24c0-4.211 2.441-7.982 6.333-9.673m9.287 0A10.496 10.496 0 0 1 34.977 24c0 4.969-2.462 8.394-6.333 9.852l-.004-19.524z"/></svg>