<svg xmlns="http://www.w3.org/2000/svg" width="1em" height="1em" viewBox="0 0 48 48"><path fill="none" stroke="currentColor" stroke-linecap="round" stroke-linejoin="round" d="M38.54 24c0 8.086-6.51 14.64-14.54 14.64S9.46 32.087 9.46 24S15.97 9.36 24 9.36S38.54 15.913 38.54 24m-7.22-12.68l3.43-5.94m-21.5 37.24l3.43-5.94m16.549-24.045l2.162-2.663M12.609 38.028l2.162-2.662m14.457-25.041l1.225-3.204M17.547 40.879l1.225-3.204M36.68 16.68l5.94-3.43M5.38 34.75l5.94-3.43m26.355-12.548l3.204-1.225M7.121 30.453l3.204-1.225m25.041-14.457l2.662-2.162M9.972 35.391l2.662-2.162M38.64 24h6.86m-43 0h6.86m29.097 2.31l3.387.54m-35.688-5.7l3.387.54m28.914 0l3.387-.54m-35.688 5.7l3.387-.54m27.137 5.01l5.94 3.43M5.38 13.25l5.94 3.43m24.046 16.549l2.662 2.162M9.972 12.609l2.662 2.162m-5.513 2.776l3.204 1.225M31.32 36.68l3.43 5.94M13.25 5.38l3.43 5.94m12.548 26.355l1.225 3.204M17.547 7.121l1.225 3.204m14.457 25.041l2.162 2.662M12.609 9.972l2.162 2.662M24 38.64v6.86m0-43v6.86m-2.31 29.097l-.54 3.387m5.7-35.688l-.54 3.387m0 28.914l.54 3.387m-5.7-35.688l.54 3.387m15.985 19.685l3.204 1.225"/><path fill="none" stroke="currentColor" stroke-linecap="round" stroke-linejoin="round" d="M35.112 24c0 6.18-4.975 11.19-11.112 11.19h0c-6.137 0-11.111-5.01-11.111-11.19h0c0-6.18 4.974-11.19 11.111-11.19h0c6.137 0 11.112 5.01 11.112 11.19"/></svg>