<svg xmlns="http://www.w3.org/2000/svg" width="1em" height="1em" viewBox="0 0 48 48"><path fill="none" stroke="currentColor" stroke-linecap="round" stroke-linejoin="round" d="M35.749 17.37C34.355 11.984 29.526 8.226 24 8.226c-5.518.01-10.336 3.765-11.728 9.142m17.842-7.504l2.864-4.96m-1.27 6.058l1.805-2.224m-5.147.295l1.023-2.676m5.2 7.983l4.96-2.864m-4.129 4.611l2.676-1.023m-4.604-2.318l2.223-1.806m-27.265.536l4.961 2.864m-1.126-3.4l2.223 1.806m-4.604 2.318l2.675 1.023m2.443-11.184l2.864 4.961m.724-3.507l1.024 2.676m-5.147-.295l1.806 2.224m22.153 11.551a2.714 2.714 0 0 0-2.714-2.714h0a2.714 2.714 0 0 0-2.714 2.714v2.765a2.714 2.714 0 0 0 2.714 2.714h0a2.714 2.714 0 0 0 2.714-2.714h-2.714m-5.84-5.479v7.17c0 .565.458 1.023 1.024 1.023h.307m-5.175-5.219c1.135 0 2.049.914 2.049 2.048v1.332c0 1.135-.914 2.048-2.049 2.048S24 27.288 24 26.153V24.82c0-1.135.914-2.048 2.048-2.048m-9.271 5.22v-8.194h2.682c1.517 0 2.746 1.232 2.746 2.752s-1.23 2.751-2.746 2.751h-2.682m-7.223 2.69V19.8h1.843a3.585 3.585 0 0 1 3.585 3.585v1.024a3.585 3.585 0 0 1-3.585 3.584zm2.71 2.6C13.644 35.985 18.47 39.76 24 39.77c5.531-.01 10.356-3.784 11.736-9.178m-20.714 12.5l2.864-4.96m-3.399 1.126l1.806-2.224m2.317 4.605l1.024-2.676M8.45 36.52l4.961-2.864m-3.507-.724l2.675-1.023m-.294 5.147l2.223-1.806m20.081-1.594l4.96 2.864m-6.057-1.27l2.223 1.805m-.295-5.146l2.676 1.023m-7.982 5.199l2.864 4.961m-4.612-4.129l1.023 2.676m2.319-4.605l1.805 2.224M24 2.498v5.728m2.38-2.675l-.45 2.829m-4.31-2.829l.451 2.828M24 39.77v5.728m-1.929-5.882l-.452 2.829m4.31-2.829l.452 2.829"/><path fill="none" stroke="currentColor" stroke-linecap="round" stroke-linejoin="round" d="M32.586 17.37c-1.019-3.81-4.546-6.467-8.583-6.468c-4.031.008-7.551 2.664-8.568 6.467m17.14 13.261c-1.018 3.81-4.546 6.467-8.583 6.468c-4.03-.007-7.55-2.664-8.567-6.467"/></svg>