<svg xmlns="http://www.w3.org/2000/svg" width="1em" height="1em" viewBox="0 0 48 48"><g fill="none" stroke="currentColor" stroke-linecap="round" stroke-linejoin="round"><path d="M19.528 34.327c-.207 0-1.781.122-3.745-.585c-1.958-.706-3.806-1.512-5.36-2.442c-1.554-.929-2.836-1.916-3.729-2.785c-.893-.869-1.394-1.494-1.398-2.078c-.003-.492.216-1.244.634-2.118a14.212 14.212 0 0 1 1.842-2.848a19.87 19.87 0 0 1 2.937-2.863c1.776-1.416 3.337-2.389 3.844-2.301c.616.107-4.737 9.773 3.893 15.316c3.08 1.919 2.439 2.704 1.082 2.704m-.848.008"/><path d="M24.502 30.002c-4.239 0-7.675-3.433-7.675-7.669s3.436-7.668 7.675-7.668s7.675 3.433 7.675 7.668s-3.436 7.669-7.675 7.669"/><path d="M29.472 34.327c.207 0 1.781.122 3.745-.585c1.958-.706 3.806-1.512 5.36-2.442c1.554-.929 2.836-1.916 3.729-2.785c.893-.869 1.394-1.494 1.398-2.078c.003-.492-.216-1.244-.634-2.118c-.417-.874-1.036-1.869-1.842-2.848s-1.803-1.959-2.937-2.863c-1.776-1.416-3.337-2.389-3.844-2.301c-.616.107 4.737 9.773-3.893 15.316c-3.08 1.919-2.439 2.704-1.082 2.704"/></g></svg>