<svg xmlns="http://www.w3.org/2000/svg" width="1em" height="1em" viewBox="0 0 48 48"><path fill="none" stroke="currentColor" stroke-linecap="round" stroke-linejoin="round" d="M29.322 26.722c.03-.232.046-.465.048-.698a5.762 5.762 0 0 0-.048-.698l1.513-1.185a.35.35 0 0 0 .087-.458L29.49 21.2a.35.35 0 0 0-.437-.153l-1.785.72a5.474 5.474 0 0 0-1.209-.699l-.269-1.898a.349.349 0 0 0-.35-.3h-2.871a.35.35 0 0 0-.35.3l-.269 1.898c-.431.18-.838.414-1.209.698l-1.792-.72a.35.35 0 0 0-.436.154l-1.433 2.484a.35.35 0 0 0 .088.458l1.508 1.185c-.03.231-.046.464-.048.698c.002.233.019.467.05.698l-1.51 1.185a.35.35 0 0 0-.088.458l1.433 2.484a.35.35 0 0 0 .436.153l1.785-.72c.372.284.778.518 1.21.699l.268 1.897a.349.349 0 0 0 .35.3h2.864a.35.35 0 0 0 .35-.3l.269-1.897a5.37 5.37 0 0 0 1.208-.699l1.786.72a.35.35 0 0 0 .437-.153l1.432-2.485a.35.35 0 0 0-.087-.457zm-5.32 1.81a2.509 2.509 0 1 1 2.504-2.511v.003a2.505 2.505 0 0 1-2.502 2.508zm-2.055 6.745v5.751c0 1.37-1.002 2.472-2.247 2.472s-2.247-1.102-2.247-2.472v-5.75m13.097 0v5.75c0 1.37-1.002 2.472-2.247 2.472s-2.247-1.102-2.247-2.472v-5.75M8.34 16.243c1.245 0 2.247 1.102 2.247 2.472v10.221c0 1.37-1.002 2.473-2.247 2.473s-2.247-1.102-2.247-2.472v-10.22c0-1.37 1.003-2.473 2.247-2.473m31.318 0c1.244 0 2.247 1.102 2.247 2.472v10.221c0 1.37-1.003 2.473-2.247 2.473s-2.247-1.102-2.247-2.473V18.716c0-1.37 1.002-2.472 2.247-2.472M26.056 35.276h-4.11m-4.494 0h-2.717a1.973 1.973 0 0 1-1.978-1.967V16.67h22.489V33.3a1.973 1.973 0 0 1-1.967 1.977H30.55M19.937 11.94a1.224 1.224 0 0 1-2.449.001v-.001a1.224 1.224 0 0 1 2.448 0zm10.58 0c0 .676-.548 1.224-1.224 1.224h0a1.224 1.224 0 1 1 1.223-1.224zM16.995 4.5l1.84 3.242M31.008 4.5l-1.84 3.242M12.757 16.67c.08-5.582 5.091-10.07 11.245-10.07s11.165 4.488 11.244 10.07"/></svg>