<svg xmlns="http://www.w3.org/2000/svg" width="1em" height="1em" viewBox="0 0 48 48"><path fill="none" stroke="currentColor" stroke-linecap="round" stroke-linejoin="round" d="M24 45.5c11.874 0 21.5-9.626 21.5-21.5S35.874 2.5 24 2.5S2.5 12.126 2.5 24S12.126 45.5 24 45.5"/><path fill="none" stroke="currentColor" stroke-linecap="round" stroke-linejoin="round" d="M24.378 16.089v11.923c0 1.106.897 2.003 2.004 2.003h.601m-4.709-10.62h4.208m-7.967 4.008a4.008 4.008 0 1 0-8.015 0v2.605a4.008 4.008 0 1 0 8.015 0m0 4.007v-16.03M30.656 29.12c.731.614 1.521.895 3.296.895h.899c1.463 0 2.649-1.188 2.649-2.655s-1.186-2.655-2.65-2.655h-1.798c-1.463 0-2.649-1.189-2.649-2.655s1.186-2.655 2.65-2.655h.898c1.775 0 2.565.281 3.297.896"/></svg>