<svg xmlns="http://www.w3.org/2000/svg" width="1em" height="1em" viewBox="0 0 48 48"><circle cx="22.488" cy="25.911" r="17.512" fill="none" stroke="currentColor" stroke-linecap="round" stroke-linejoin="round"/><path fill="none" stroke="currentColor" stroke-linecap="round" stroke-linejoin="round" d="M39.977 13.385a20.968 20.968 0 0 1-.743 25.596M4.976 25.911V9.273m8.117 14.677c.407-1.346.814-2.693 1.684-3.914s2.202-2.317 3.656-2.943c1.454-.627 3.03-.783 4.605-.94"/><path fill="none" stroke="currentColor" stroke-linecap="round" stroke-linejoin="round" d="M23.726 17.975c-.312-1.104-.623-2.209-.936-3.005s-.628-1.286-1.389-1.484c-.76-.198-1.966-.104-3.164.218c-1.197.322-2.385.872-3.356 1.603a8.889 8.889 0 0 0-2.25 2.528c-.525.882-.823 1.734-.95 2.863c-.128 1.128-.083 2.534-.04 3.94m-.733 3.332l3.681-1.758m-2.703 4.463l5.226-2.495m-3.681 5.226l4.536-2.166m-2.521 4.43l3.039-1.451m10.59-8.893c1.336 2.013 2.672 4.025 3.349 5.292c.676 1.266.692 1.786.512 2.199c-.18.412-.557.717-.944.896c-.387.18-.785.234-1.14.1c-.354-.135-.665-.458-1.245-1.269s-1.427-2.108-2.274-3.405"/><path fill="none" stroke="currentColor" stroke-linecap="round" stroke-linejoin="round" d="M30.853 33.813c-.191.621-.382 1.243-.755 1.673c-.372.43-.925.668-1.474.635c-.549-.034-1.093-.34-1.794-1.146c-.7-.806-1.558-2.113-2.416-3.42m2.416 3.42c-.18.566-.36 1.132-.762 1.564s-1.028.732-1.542.687c-.514-.045-.916-.433-1.527-1.264c-.61-.83-1.43-2.102-2.25-3.375"/><path fill="none" stroke="currentColor" stroke-linecap="round" stroke-linejoin="round" d="M23.393 36.467c-.302.535-.604 1.07-1.114 1.446c-.51.376-1.228.593-1.78.45c-.553-.141-.939-.643-1.325-1.144m6.821-13.269c1.839-.85 3.677-1.698 4.76-1.698c1.084 0 1.412.849 1.555 1.797c.142.948.1 1.995-.064 2.78c-.164.784-.45 1.306-.736 1.828M13.781 6.497c7.54-3.422 16.398-2.2 22.709 3.13"/><circle cx="38.318" cy="11.397" r=".75" fill="currentColor"/></svg>