<svg xmlns="http://www.w3.org/2000/svg" width="1em" height="1em" viewBox="0 0 48 48"><path fill="none" stroke="currentColor" stroke-linecap="round" stroke-linejoin="round" d="M18.28 6a2.47 2.47 0 0 1 2.44-2.5a16.4 16.4 0 0 1 16.4 16.4h0a2.46 2.46 0 0 1-4.92 0A11.44 11.44 0 0 0 20.76 8.46A2.47 2.47 0 0 1 18.28 6m11.44 36a2.46 2.46 0 0 1-2.46 2.46a16.4 16.4 0 0 1-16.4-16.4a2.46 2.46 0 1 1 4.92 0h0a11.44 11.44 0 0 0 11.44 11.48a2.47 2.47 0 0 1 2.5 2.46M6 29.72a2.47 2.47 0 0 1-2.5-2.44a16.4 16.4 0 0 1 16.4-16.4a2.46 2.46 0 1 1 0 4.92h0A11.44 11.44 0 0 0 8.46 27.24A2.47 2.47 0 0 1 6 29.72m36-11.44a2.46 2.46 0 0 1 2.46 2.46a16.4 16.4 0 0 1-16.4 16.4a2.46 2.46 0 0 1 0-4.92a11.44 11.44 0 0 0 11.48-11.44a2.47 2.47 0 0 1 2.46-2.5"/></svg>