<svg xmlns="http://www.w3.org/2000/svg" width="1em" height="1em" viewBox="0 0 48 48"><path fill="none" stroke="currentColor" stroke-linecap="round" stroke-linejoin="round" d="M40.75 19.173c.331 3.753-3.444 6.784-3.803 10.49a7.921 7.921 0 0 1-.59 2.184c-1.268 2.314 1 4.634-.899 5.589c-3.335 1.944-6.677 3.877-10.013 5.82c-1.74.999-3.776-1.345-5.352-2.03c-1.056-.665-2.184-.934-3.426-.87c-6.874.28-2.497-2.962-5.222-5.175c-2.14-1.7.636-2.07-.805-2.533c-.722-.202-.854-.664-.627-1.313c1.442-3.896-4.6.108-2.222-4.159c.797-1.917 3.41-4.19 2.03-6.321c-.395-.44-.484-.925-.367-1.52c.135-2.792-.672-5.162 1.475-7.514c8.527-11.97 29.806-9.082 29.82 7.352m-6.72 5.258l.007.019c.421-.38 1.398-.512 1.408-1.162c-.143-.911.249-1.575.963-2.087c.854-.715-.375-1.83.2-2.726c.892-1.556-.86-2.227-.762-3.41c.61-1.145-.957-1.73-1.273-2.697c-.414-1.536-.678-.826-1.718-1.555l.002.002c-.678-.517-1.308-1.538-2.238-.916c-.024-.019-.049-.019-.073 0c-.667-.958-1.644-1.155-2.749-1.04c-1.55-1.356-2.983.271-4.607-.253c-1.424-.505-2.12 1.439-3.64 1.078c-1.34-.27-1.787 1.17-2.86 1.592c-.66.2-1.206.486-1.227 1.323c-1.954 3.65-2.886 1.877-.46 5.348c.256.48.158 1.338.731 1.54c1.299.226 2.596.458 3.894.689c.155.175.449.002.582.232c.184.688-.304 1.875.493 2.197c1.441.549 2.79 1.28 4.097 2.094c.442 1.27.885 2.541 1.326 3.812c.168.484.575.245.881.283c.573.16.601-2.067.82-2.594c.395.187 1.349 1.254 1.59.965l.038.01l.028-.026c2.548-.41 2.12-.129 2.984-2.464v.002l.121-.132c.453-.046.85.459 1.303.012c.074-.017.143-.04.14-.136Z"/></svg>