<svg xmlns="http://www.w3.org/2000/svg" width="1em" height="1em" viewBox="0 0 48 48"><path fill="none" stroke="currentColor" stroke-linecap="round" stroke-linejoin="round" d="M9.16 42.5v-2.34c0-3.901 3.905-7.022 7.81-7.022c4.687 3.9 9.373 3.9 14.06 0c3.905 0 7.81 3.12 7.81 7.022v2.34M28.686 19.095c0 .859-.703 1.56-1.562 1.56s-1.562-.701-1.562-1.56s.703-1.56 1.562-1.56s1.562.702 1.562 1.56m-6.248 0c0 .859-.703 1.56-1.562 1.56s-1.562-.701-1.562-1.56s.703-1.56 1.562-1.56s1.562.702 1.562 1.56m-.781 6.398c1.484.78 3.202.78 4.686 0"/><path fill="none" stroke="currentColor" stroke-linecap="round" stroke-linejoin="round" d="M18.376 28.145c-1.952-2.262-2.968-5.227-2.89-8.191a14.572 14.572 0 0 1 1.64-6.242a2.436 2.436 0 0 0 1.875 1.248c1.016 0 1.953-.702 2.187-1.638c.86 1.092 2.343 1.326 3.437.468c.234-.156.39-.312.547-.546c1.171 1.404 3.202 1.638 4.608.468c.312-.312.625-.624.859-1.014a17.283 17.283 0 0 1 2.109 7.334c0 6.24-3.983 10.922-8.67 10.922c-2.187-.078-4.296-1.092-5.701-2.809"/><path fill="none" stroke="currentColor" stroke-linecap="round" stroke-linejoin="round" d="M30.958 26.718c1.015.39 1.868.179 2.649-.445c.625-.468 1.015-1.17 1.172-1.95a3.013 3.013 0 0 0 1.484-1.873c.234-.936 0-1.872-.547-2.653c.781-.78 1.171-1.794 1.015-2.886c-.156-.858-.625-1.638-1.25-2.107c.782-.936 1.016-2.184.547-3.354c-.39-.78-1.015-1.327-1.874-1.639c.078-1.014-.313-2.028-1.172-2.574a2.707 2.707 0 0 0-3.202.234a2.912 2.912 0 0 0-2.343-1.872c-1.016-.078-1.953.312-2.578 1.092c0 0-2.5-2.73-5.545.078c0 0-3.671-2.419-4.765 2.028c0 0-4.217.624-2.03 4.837c0 0-2.265 2.34-.625 5.071c0 0-1.64 3.277 1.406 4.447c-.078.78.156 1.482.546 2.106c.703.859 1.797 1.327 2.89 1.17"/></svg>