<svg xmlns="http://www.w3.org/2000/svg" width="1em" height="1em" viewBox="0 0 48 48"><path fill="none" stroke="currentColor" stroke-linecap="round" stroke-linejoin="round" d="M19.419 41.922C11.407 39.873 5.5 32.619 5.5 23.96C5.5 13.745 13.785 5.5 24.04 5.5c10.215 0 18.46 8.245 18.46 18.46c0 8.688-5.916 15.96-13.935 17.981"/><path fill="none" stroke="currentColor" stroke-linecap="round" stroke-linejoin="round" d="M29.89 36.077a11.762 11.762 0 0 0 5.853-10.196h0s-4.745 3.813-11.718 3.813c-6.943 0-11.769-3.813-11.769-3.813h0a11.75 11.75 0 0 0 5.853 10.18m12.084-17.692v2.413m-12.306-2.413v2.413"/><path fill="none" stroke="currentColor" stroke-linecap="round" stroke-linejoin="round" d="M27.809 29.313s2.082 1.487 2.082 4.072v4.833a5.89 5.89 0 1 1-11.782 0V33.38c0-2.585 2.082-4.072 2.082-4.072m3.809.386v8.279"/></svg>