<svg xmlns="http://www.w3.org/2000/svg" width="1em" height="1em" viewBox="0 0 48 48"><path fill="none" stroke="currentColor" stroke-linecap="round" stroke-linejoin="round" d="M4.5 35.87V12.13c2.416.636 4.875 1.272 9.75 1.272c8.478 0 11.022-2.543 19.5-2.543c4.875 0 7.291.636 9.75 1.271v23.74c-2.459-.636-4.875-1.272-9.75-1.272c-8.478 0-11.022 2.543-19.5 2.543c-4.875 0-7.334-.636-9.75-1.272Z"/><path fill="none" stroke="currentColor" stroke-linecap="round" stroke-linejoin="round" d="M43.5 31.122c-2.459-.636-4.875-1.272-9.75-1.272c-8.478 0-11.022 2.544-19.5 2.544c-4.875 0-7.334-.636-9.75-1.272m39-14.244c-2.459-.636-4.875-1.271-9.75-1.271c-8.478 0-11.022 2.543-19.5 2.543c-4.875 0-7.334-.636-9.75-1.272m39 4.748c-2.459-.636-4.875-1.272-9.75-1.272c-8.478 0-11.022 2.544-19.5 2.544c-4.875 0-7.334-.636-9.75-1.272m39 4.748c-2.459-.636-4.875-1.272-9.75-1.272c-8.478 0-11.022 2.544-19.5 2.544c-4.875 0-7.334-.636-9.75-1.272"/></svg>