<svg xmlns="http://www.w3.org/2000/svg" width="1em" height="1em" viewBox="0 0 48 48"><path fill="none" stroke="currentColor" stroke-linecap="round" stroke-linejoin="round" d="M43.5 11.88c-2.459-.636-4.875-1.271-9.75-1.271c-8.478 0-11.022 2.543-19.5 2.543c-4.875 0-7.334-.636-9.75-1.272v24.24c2.416.636 4.875 1.271 9.75 1.271c8.478 0 11.022-2.543 19.5-2.543c4.875 0 7.291.636 9.75 1.272zM17.255 23.307l5.153-.908m3.184-.562l5.153-.908m-10.914 9.854l1.593-5.182m5.152-.908l1.593 4.62M24 17.217l1.592 4.62m-3.184.562L24 17.217m-2.576 8.384l-4.169-2.294m13.49-2.378l-4.169 3.764M24 27.019l-4.169 3.764m8.338-1.47L24 27.019"/></svg>