<svg xmlns="http://www.w3.org/2000/svg" width="1em" height="1em" viewBox="0 0 48 48"><path fill="none" stroke="currentColor" stroke-linecap="round" stroke-linejoin="round" d="M24 12.124c-1.745-2.892-4.908-4.833-8.532-4.833c-5.505 0-9.968 4.463-9.968 9.968c0 1.258.243 2.457.669 3.566C9.465 30.305 24 40.709 24 40.709s14.535-10.403 17.831-19.884a9.925 9.925 0 0 0 .669-3.566c0-5.505-4.463-9.968-9.968-9.968c-3.624 0-6.787 1.94-8.532 4.833"/><path fill="none" stroke="currentColor" stroke-linecap="round" stroke-linejoin="round" d="m24 40.709l-2.721-11.667l5.473-5.678l-6.064-5.678L24 12.124"/></svg>