<svg xmlns="http://www.w3.org/2000/svg" width="1em" height="1em" viewBox="0 0 48 48"><path fill="none" stroke="currentColor" stroke-linecap="round" stroke-linejoin="round" d="M24.04 42.5c10.215 0 18.46-8.285 18.46-18.54c0-10.215-8.245-18.46-18.46-18.46C13.785 5.5 5.5 13.745 5.5 23.96c0 10.255 8.285 18.54 18.54 18.54"/><path fill="none" stroke="currentColor" stroke-linecap="round" stroke-linejoin="round" d="M35.744 27.088S30.997 30.9 24.025 30.9c-6.943 0-11.77-3.813-11.77-3.813m8.718-8.329L19.4 15.235c-.584-1.309-2.442-1.309-3.026 0L14.8 18.758m18.48 0l-1.573-3.523c-.585-1.309-2.442-1.309-3.027 0l-1.572 3.523"/></svg>