<svg xmlns="http://www.w3.org/2000/svg" width="1em" height="1em" viewBox="0 0 48 48"><path fill="none" stroke="currentColor" stroke-linecap="round" stroke-linejoin="round" d="M38.381 7.871c-8.858-3.67-19.907-3.67-28.765 0a3.34 3.34 0 0 0-1.743 1.743c-3.67 8.859-3.67 19.907 0 28.765a3.34 3.34 0 0 0 1.743 1.744c8.859 3.669 19.907 3.669 28.765 0a3.34 3.34 0 0 0 1.743-1.744c3.67-8.858 3.67-19.907 0-28.765a3.34 3.34 0 0 0-1.743-1.743"/><path fill="none" stroke="currentColor" stroke-linecap="round" stroke-linejoin="round" d="M33.705 28.784v-5.848c0-1.949-1.595-3.544-3.544-3.544s-3.544 1.595-3.544 3.544m0 5.848v-9.569m-5.765 7.617c-.532 1.064-1.772 1.772-3.013 1.772a3.554 3.554 0 0 1-3.544-3.544v-2.303c0-1.95 1.595-3.544 3.544-3.544s3.544 1.594 3.544 3.544v1.24h-7.088m28.591 0c-1.254-4.935-3.695-8.411-6.787-11.558c-3.091-3.147-7.172-5.956-12.1-7.314"/><path fill="none" stroke="currentColor" stroke-linecap="round" stroke-linejoin="round" d="M42.886 23.997c-1.254-4.935-3.695-8.411-6.787-11.558c-3.091-3.147-7.172-5.956-12.1-7.314m.004 37.761c4.936-1.254 8.411-3.695 11.558-6.787c3.147-3.091 5.956-7.172 7.314-12.1m-37.761.004c1.254 4.936 3.695 8.411 6.787 11.558c3.091 3.147 7.172 5.956 12.1 7.314m-.004-37.761c-4.935 1.254-8.411 3.695-11.558 6.787c-3.147 3.091-5.956 7.172-7.314 12.1"/></svg>