<svg xmlns="http://www.w3.org/2000/svg" width="1em" height="1em" viewBox="0 0 48 48"><path fill="none" stroke="currentColor" stroke-linecap="round" stroke-linejoin="round" d="M39.318 39.202c-4.061 4.06-9.46 6.298-15.203 6.298s-11.141-2.237-15.202-6.298S2.616 29.743 2.616 24S4.853 12.859 8.914 8.797S18.372 2.5 24.115 2.5s11.142 2.237 15.203 6.298a5.254 5.254 0 0 1-.001 7.43L27.83 27.716a5.253 5.253 0 0 1-7.43 0a5.253 5.253 0 0 1 0-7.43l6.83-6.83a11.029 11.029 0 0 0-3.115-.446a10.914 10.914 0 0 0-7.77 3.22c-2.077 2.076-3.22 4.836-3.22 7.771s1.143 5.695 3.22 7.77c2.075 2.077 4.835 3.22 7.77 3.22s5.695-1.143 7.77-3.219z"/></svg>