<svg xmlns="http://www.w3.org/2000/svg" width="1em" height="1em" viewBox="0 0 48 48"><path fill="none" stroke="currentColor" stroke-linecap="round" stroke-linejoin="round" d="m24 3.5l-6 6H9.51V18l-6 6l6 6v8.48H18l6 6l6-6h8.48V30l6-6l-6-6V9.51H30Z"/><path fill="none" stroke="currentColor" stroke-linecap="round" stroke-linejoin="round" d="M31.67 29.18A9.26 9.26 0 0 0 24 14.75m-7.67 4.08A9.16 9.16 0 0 0 14.75 24A9.25 9.25 0 0 0 24 33.25"/><path fill="none" stroke="currentColor" stroke-linecap="round" stroke-linejoin="round" d="M24 16.18v3.48l-4.78-4.79L24 10.09h0v3.48zm0 15.64v-3.47l4.78 4.78L24 37.91v-3.48z"/></svg>