<svg xmlns="http://www.w3.org/2000/svg" width="1em" height="1em" viewBox="0 0 48 48"><path fill="none" stroke="currentColor" stroke-linecap="round" stroke-linejoin="round" d="M40.5 5.5h-33a2 2 0 0 0-2 2v33a2 2 0 0 0 2 2h33a2 2 0 0 0 2-2v-33a2 2 0 0 0-2-2"/><path fill="none" stroke="currentColor" stroke-linecap="round" stroke-linejoin="round" d="M28.166 27.429c.571.428 1.143.571 2.286.571h.571c1 0 1.857-.857 1.857-1.857h0c0-1-.857-1.857-1.857-1.857h-1.286c-1 0-1.857-.857-1.857-1.857h0c0-1 .858-1.857 1.857-1.857h.572c1.286 0 1.857.143 2.286.571M23.925 18v8.571c0 .857.572 1.429 1.429 1.429h.429m-3.429-7.714h3.143m-5.092 6.285c-.428.857-1.428 1.429-2.428 1.429h0a2.866 2.866 0 0 1-2.857-2.857v-1.857a2.866 2.866 0 0 1 2.857-2.857h0a2.866 2.866 0 0 1 2.857 2.857v1H15.12"/></svg>