<svg xmlns="http://www.w3.org/2000/svg" width="1em" height="1em" viewBox="0 0 48 48"><path fill="none" stroke="currentColor" stroke-linecap="round" stroke-linejoin="round" d="M35.088 7.72H23.274a6.725 6.725 0 0 0-6.152 4.008l-2.19 4.96h23.269a.897.897 0 0 1 .82 1.259l-.693 1.569H8.46L4.5 28.484h4.894l-1.249 2.828l-.486 1.1a5.604 5.604 0 0 0 5.128 7.868h16.072a4.614 4.614 0 0 0 4.656-4.043a4.485 4.485 0 0 0-4.463-4.925H14.559a2.015 2.015 0 0 1-1.843-2.828h18.792a11.215 11.215 0 0 0 10.26-6.685l1.007-2.283A8.402 8.402 0 0 0 35.088 7.72"/></svg>