<svg xmlns="http://www.w3.org/2000/svg" width="1em" height="1em" viewBox="0 0 48 48"><path fill="none" stroke="currentColor" stroke-linecap="round" stroke-linejoin="round" d="M12.779 12.777h26.054a3.649 3.649 0 0 0 3.648-3.65h0a3.649 3.649 0 0 0-3.649-3.648H9.482a4 4 0 0 0-4 4V38.83a3.649 3.649 0 0 0 3.648 3.65h0a3.649 3.649 0 0 0 3.649-3.649z"/><path fill="none" stroke="currentColor" stroke-linecap="round" stroke-linejoin="round" d="M19.927 23.573h16.481l3.55-7.297h-20.03a3.649 3.649 0 0 0-3.65 3.648h0a3.649 3.649 0 0 0 3.65 3.65Zm3.648 10.143h8.068l4.035-7.298h-15.4a4 4 0 0 0-4 4V42.48h7.297z"/><circle cx="19.972" cy="19.924" r=".75" fill="currentColor"/><circle cx="9.63" cy="9.583" r=".75" fill="currentColor"/><circle cx="19.972" cy="30.159" r=".75" fill="currentColor"/></svg>