<svg xmlns="http://www.w3.org/2000/svg" width="1em" height="1em" viewBox="0 0 48 48"><path fill="none" stroke="currentColor" stroke-linecap="round" stroke-linejoin="round" d="M16.541 17.936V11.39m0-6.89a6.89 6.89 0 0 0-6.89 6.89V43.5h0a6.89 6.89 0 0 0 6.89-6.89V24.827"/><path fill="none" stroke="currentColor" stroke-linecap="round" stroke-linejoin="round" d="M9.65 18.28a6.89 6.89 0 0 1 6.891-6.89h14.918a6.89 6.89 0 0 0 6.89-6.89h0h-21.808M9.65 31.717a6.89 6.89 0 0 1 6.891-6.89h7.648a6.89 6.89 0 0 0 6.89-6.89h0h-14.538a6.89 6.89 0 0 0-6.89 6.89"/></svg>