<svg xmlns="http://www.w3.org/2000/svg" width="1em" height="1em" viewBox="0 0 48 48"><path fill="none" stroke="currentColor" stroke-linecap="round" stroke-linejoin="round" d="M23.72 19a12 12 0 0 0-3.52-1a8.49 8.49 0 0 0-.88.05a1.58 1.58 0 0 0-1.17.76l-.82 1.36H17a11.69 11.69 0 1 0 9.34 4.7l.66-1.31a1.57 1.57 0 0 0 0-1.46a11.15 11.15 0 0 0-3.28-3.1m0 0l1.51-2.32l5.38 2.76l2.62-4"/><path fill="none" stroke="currentColor" stroke-linecap="round" stroke-linejoin="round" d="m36.72 4.5l.63 3.55l3.35-1.32l-1.58 3.24l3.5.9l-3.19 1.69l2.3 2.78l-3.57-.5l.22 3.6l-2.59-2.51l-1.94 3.05l-.62-3.55l-3.36 1.33l1.58-3.25l-3.49-.89l3.19-1.7l-2.31-2.78l3.58.5l-.23-3.6l2.6 2.51z"/></svg>