<svg xmlns="http://www.w3.org/2000/svg" width="1em" height="1em" viewBox="0 0 48 48"><path fill="none" stroke="currentColor" stroke-linecap="round" stroke-linejoin="round" d="M37.51 25.906a1.86 1.86 0 0 1-1.86 1.86h0a1.86 1.86 0 0 1-1.86-1.86h0a1.86 1.86 0 0 1 1.86-1.86h0a1.86 1.86 0 0 1 1.86 1.86"/><path fill="none" stroke="currentColor" stroke-linecap="round" stroke-linejoin="round" d="M43.5 30.662a4.74 4.74 0 0 1-.423.018h-8.233a4.62 4.62 0 0 1-4.63-4.61v-.54a4.62 4.62 0 0 1 4.61-4.63h8.253c.143 0 .284.007.423.02"/><path fill="none" stroke="currentColor" stroke-linecap="round" stroke-linejoin="round" d="M5.08 12.253h37.263c.64 0 1.157.517 1.157 1.158v26.786c0 .64-.516 1.157-1.157 1.157H5.657A1.155 1.155 0 0 1 4.5 40.201V13.308c0-1.228 1.866-1.883 3.33-2.132l26.23-4.465c2.528-.43 4.674 1.31 5.34 3.787l.45 1.676"/></svg>