<svg xmlns="http://www.w3.org/2000/svg" width="1em" height="1em" viewBox="0 0 48 48"><path fill="none" stroke="currentColor" stroke-linecap="round" stroke-linejoin="round" d="M14.213 17.462a1.89 1.89 0 0 1-.562 1.352c-.342.35-.823.563-1.344.563h-2.07a1.918 1.918 0 0 1-1.914-1.915c0-.53.212-1.01.562-1.352c.342-.35.823-.562 1.353-.562h2.07a1.91 1.91 0 0 1 1.905 1.914"/><circle cx="31.703" cy="20.342" r="2.963" fill="none" stroke="currentColor" stroke-linecap="round" stroke-linejoin="round"/><path fill="none" stroke="currentColor" stroke-linecap="round" stroke-linejoin="round" d="M43.5 17.992c0 7.625-7.503 15.015-16.718 13.271L25.56 38.23l-.13.766H14.407a1.917 1.917 0 0 1-1.915-1.915c0-.53.212-1.01.562-1.352c.35-.35.823-.562 1.353-.562h2.314c.75 0 1.352-.603 1.352-1.353s-.603-1.36-1.352-1.36h-2.314a1.917 1.917 0 0 1-1.915-1.915c0-.521.212-1.002.563-1.352a1.93 1.93 0 0 1 1.352-.563h3.495a1.356 1.356 0 1 0 0-2.712H6.415A1.912 1.912 0 0 1 4.5 23.996c0-.53.212-1.002.562-1.344c.342-.35.823-.562 1.352-.562h12.612c.742 0 1.353-.611 1.353-1.36s-.611-1.353-1.353-1.353h-.986a1.918 1.918 0 0 1-1.914-1.915c0-.53.212-1.01.562-1.352c.342-.35.823-.562 1.352-.562h3.65a1.356 1.356 0 1 0 0-2.713h-7.218a1.917 1.917 0 0 1-1.914-1.915c0-.53.211-1.01.562-1.352c.35-.35.823-.562 1.352-.562h18.722c3.992 0 6.526 1.303 8.074 3.022c1.694 1.866 2.232 4.237 2.232 5.964m-14.714 1.841l-2.004 11.43"/></svg>