<svg xmlns="http://www.w3.org/2000/svg" width="1em" height="1em" viewBox="0 0 48 48"><path fill="none" stroke="currentColor" stroke-linecap="round" stroke-linejoin="round" d="m9.79 28.942l3.539-.07s.624-2.603 1.873-5.045l-5.409-.05v-3.711l7.386.004c.853-1.595 1.47-2.52 3.699-5.131l-16.305-.03L4.5 33.096h5.222zm14.902-7.367l4.316 11.523h5.096l4.174-11.523v11.523H43.5l-.065-18.19h-8.588l-3.213 9.372l-3.325-9.372l-5.14-.006c-.462.113-1.695 2.933-2.313 5.29c-.382 1.455-.899 4.502-1.142 6.73c-.152 1.397-.383 6.176-.251 6.176h5.228z"/></svg>