<svg xmlns="http://www.w3.org/2000/svg" width="1em" height="1em" viewBox="0 0 48 48"><path fill="none" stroke="currentColor" stroke-linecap="round" stroke-linejoin="round" d="M4.5 11.5a3 3 0 0 1 3-3h8.718a4 4 0 0 1 2.325.745l4.914 3.51a4 4 0 0 0 2.325.745H40.5a3 3 0 0 1 3 3v20a3 3 0 0 1-3 3h-33a3 3 0 0 1-3-3z"/><path fill="none" stroke="currentColor" stroke-linecap="round" stroke-linejoin="round" d="M29.3 22.7a4.2 4.2 0 0 0-4.2-4.2h0a4.2 4.2 0 0 0-4.2 4.2v7.554a4 4 0 0 1-.813 2.418L18.7 34.5h10.6m-6.2-7.45h-4.4"/></svg>