<svg xmlns="http://www.w3.org/2000/svg" width="1em" height="1em" viewBox="0 0 48 48"><circle cx="33.581" cy="28.74" r="6" fill="none" stroke="currentColor" stroke-linecap="round" stroke-linejoin="round"/><path fill="none" stroke="currentColor" stroke-linecap="round" stroke-linejoin="round" d="M33.581 28.74v-3.897m0 3.897l1.517 1.518"/><g fill="none" stroke="currentColor" stroke-linecap="round" stroke-linejoin="round"><path d="M41.68 13.015H24.77c-2-.1-5.93-4.23-8.19-4.23h-9.9a2.18 2.18 0 0 0-2.18 2.23h0v7.29h39v-3.42a1.83 1.83 0 0 0-1.79-1.87h-.03Z"/><path d="M4.5 18.295v18.72a2.18 2.18 0 0 0 2.16 2.2h34.66a2.18 2.18 0 0 0 2.18-2.18v-.02h0v-18.72"/></g></svg>