<svg xmlns="http://www.w3.org/2000/svg" width="1em" height="1em" viewBox="0 0 48 48"><circle cx="24" cy="24" r="21.5" fill="none" stroke="currentColor" stroke-linecap="round" stroke-linejoin="round"/><path fill="none" stroke="currentColor" stroke-linecap="round" stroke-linejoin="round" d="M4.116 32.022c.895-1.784 1.79-3.569 3.126-4.957c1.336-1.388 3.047-2.345 4.398-2.623c1.35-.278 2.21.195 2.57.717c.36.522.22 1.092-.101 1.44s-.825.476-1.662 1.061s-2.005 1.63-2.594 3.17s-.596 3.28-.039 4.661c.557 1.382 1.68 2.106 3.608 2.075c1.93-.03 4.58-.791 7.134-2.49c2.553-1.698 4.85-4.237 7.348-7.411s5.166-6.949 7.108-9.507c1.941-2.56 3.156-3.902 4.078-4.83c.922-.927 1.552-1.438 2.18-1.949M16.161 43.985c1.628-.35 3.256-.698 5.09-1.7c1.836-1.004 3.878-2.66 6.444-5.994s5.652-8.343 8.03-12.11s4.044-6.29 5.135-7.755s1.606-1.875 2.12-2.284"/><path fill="none" stroke="currentColor" stroke-linecap="round" stroke-linejoin="round" d="M31.793 22.536c-.677.11-1.354.219-2.012.407s-1.296.457-1.918.836c-.622.379-1.227.868-1.806 1.169c-.578.3-1.129.411-1.481.116c-.352-.295-.506-.996-.08-1.626c.426-.63 1.431-1.187 2.47-1.658c1.037-.471 2.107-.855 3.2-1.12s2.21-.415 3.325-.562m3.831 1.889c1.32-.09 2.638-.18 3.623-.25c.985-.069 1.635-.117 2.31-.162s1.376-.086 2.077-.128m-6.482-1.7c.59-.071 1.18-.142 2.187-.21c1.006-.068 2.428-.133 3.85-.198M35.93 6.311c-1.568.052-3.138.104-4.674.261s-3.04.422-4.353.807s-2.438.89-3.337 1.455a8.797 8.797 0 0 0-2.124 1.854c-.553.664-.988 1.37-.958 2.546c.03 1.176.484 2.69 1.903 3.086c1.42.397 3.343-.348 4.722-1.356c1.379-1.01 1.646-1.858 2.114-2.496c.468-.637 1.003-.831 1.452-.687c.449.143.777.637.641 1.439c-.136.801-.735 1.91-1.44 3.013c-.706 1.104-1.517 2.204-2.566 3.142s-2.337 1.715-3.824 2.296c-1.488.58-3.068.941-4.497.71s-2.541-1.039-3.668-2.456c-1.128-1.417-2.021-3.024-1.21-5.705s2.448-4.316 4.8-6.195c2.353-1.878 4.246-2.828 6.217-3.376c1.97-.548 4.002-.692 6.048-.837"/></svg>