<svg xmlns="http://www.w3.org/2000/svg" width="1em" height="1em" viewBox="0 0 48 48"><path fill="none" stroke="currentColor" stroke-linecap="round" stroke-linejoin="round" d="M28.51 27.372c-1.48 1.92-3.494 3.647-6.093 5.022l2.141 5.14c2.451.087 4.702-.21 7.084-.925c1.758-1.866 2.381-3.959 2.155-6.402a57.917 57.917 0 0 0-5.287-2.834zm-13.858-5.447a19.568 19.568 0 0 0 .798 7.21c-1.48.936-2.695 1.634-4.14 2.611c-1.985-1.886-2.853-2.874-3.805-5.545c.19-2.254.943-4.284 2.269-6.057zm6.458-10.603c-.68 1.853-.897 3.709-.637 6.158c2.474.819 4.969 1.86 7.026 2.949c1.373-1.717 2.95-3.262 4.614-4.733c-.765-1.932-1.957-3.944-4.219-5.35c-2.758-.305-4.594.029-6.784.976"/><path fill="none" stroke="currentColor" stroke-linecap="round" stroke-linejoin="round" d="M24 44H5.868A1.863 1.863 0 0 1 4 42.141V24m33.993 14.291A20 20 0 0 1 24 44M4 24a20 20 0 0 1 5.712-13.994m0 0A20 20 0 0 1 24 4c11.046 0 20 8.954 20 20h0a20 20 0 0 1-6.007 14.29"/><path fill="none" stroke="currentColor" stroke-linecap="round" stroke-linejoin="round" d="M31.708 8.284a17.576 17.576 0 0 1 7.823 7.642m1.623 11.564C39.534 35.483 32.47 41.5 24 41.5c-.856 0-1.698-.061-2.521-.18m-9.022-4.167A17.459 17.459 0 0 1 6.5 23.999a17.42 17.42 0 0 1 3.036-9.853m7.322-6.127c-.345.551-.507 1.221-.673 1.74c-2.186.915-4.442 2.32-5.953 4.478l-.696-.091"/><path fill="none" stroke="currentColor" stroke-linecap="round" stroke-linejoin="round" d="M16.858 8.019a17.439 17.439 0 0 1 7.144-1.52c1.728 0 3.398.252 4.977.718l1.024 1.09l1.706-.023m9.445 19.206c-.386-.79-1.204-1.293-2.175-1.693c-.006-2.624-.424-5.04-1.274-7.212c1.003-.996 1.76-1.924 1.827-2.658M12.456 37.154l1.038-.164c1.987 1.64 4.381 2.698 6.893 2.871c.265.776.547 1.066 1.093 1.46"/></svg>