<svg xmlns="http://www.w3.org/2000/svg" width="1em" height="1em" viewBox="0 0 48 48"><path fill="none" stroke="currentColor" stroke-linecap="round" stroke-linejoin="round" d="M34.58 28.644a5.658 5.658 0 0 1-4.918 2.856h0a5.66 5.66 0 0 1-5.66-5.66v-3.68a5.66 5.66 0 0 1 5.66-5.66h0a5.66 5.66 0 0 1 5.66 5.66V24h-11.32m-.014 1.84c0 3.126-2.515 5.66-5.618 5.66H16.4c-2.055 0-3.722-1.679-3.722-3.75S14.344 24 16.4 24H24m-9.908-6.014c1.364-1.366 2.32-1.486 4.953-1.486c2.99 0 4.953 1.315 4.953 4.868V24"/><path fill="none" stroke="currentColor" stroke-linecap="round" stroke-linejoin="round" d="M40.5 5.5h-33a2 2 0 0 0-2 2v33a2 2 0 0 0 2 2h33a2 2 0 0 0 2-2v-33a2 2 0 0 0-2-2"/></svg>