<svg xmlns="http://www.w3.org/2000/svg" width="1em" height="1em" viewBox="0 0 48 48"><path fill="none" stroke="currentColor" stroke-linecap="round" stroke-linejoin="round" d="M44.999 28.009A21.378 21.378 0 0 1 28.008 45M28 3a21.378 21.378 0 0 1 17 17m-42-.007A21.378 21.378 0 0 1 19.99 3.002M19.991 45A21.378 21.378 0 0 1 3 28.009"/><circle cx="23.999" cy="24.001" r="17.259" fill="none" stroke="currentColor" stroke-linecap="round" stroke-linejoin="round"/><path fill="none" stroke="currentColor" stroke-linecap="round" stroke-linejoin="round" d="M27.696 25.537v.038a3.09 3.09 0 0 1-3.09 3.09h0a3.09 3.09 0 0 1-3.09-3.09v-3.149a3.09 3.09 0 0 1 3.09-3.09h0a3.09 3.09 0 0 1 3.09 3.09v.039m-8.594-.038a3.09 3.09 0 0 0-3.09-3.09h0a3.09 3.09 0 0 0-3.09 3.09v3.148a3.09 3.09 0 0 0 3.09 3.09h0a3.09 3.09 0 0 0 3.09-3.09h-3.09m20.278-.038v.038a3.09 3.09 0 0 1-3.09 3.09h0a3.09 3.09 0 0 1-3.09-3.09v-3.149a3.09 3.09 0 0 1 3.09-3.09h0a3.09 3.09 0 0 1 3.09 3.09v.039"/></svg>