<svg xmlns="http://www.w3.org/2000/svg" width="1em" height="1em" viewBox="0 0 48 48"><path fill="none" stroke="currentColor" stroke-linecap="round" stroke-linejoin="round" d="M40.5 5.5h-33a2 2 0 0 0-2 2v33a2 2 0 0 0 2 2h33a2 2 0 0 0 2-2v-33a2 2 0 0 0-2-2"/><path fill="none" stroke="currentColor" stroke-linecap="round" stroke-linejoin="round" d="M15.271 42.5c-2.635-1.621-3.42-6.397-.841-9.257c4.206 5.215 10.935 6.393 13.402 6.393s5.221-1.049 6.224-4.879c.668-2.553 1.178-4.598 1.178-4.598c-4.935 3.14-8.355 3.71-13.29.762s-9.196-11.809-3.42-21.23A22.706 22.706 0 0 1 21.8 5.5"/><path fill="none" stroke="currentColor" stroke-linecap="round" stroke-linejoin="round" d="M38.508 16.925c0-1.822-.779-7.066-6.751-7.066c-3.592 0-7.542 3.477-7.542 9.674c0 4.15 2.664 6.616 6.14 6.616c3.617 0 8.153-3.056 8.153-9.224"/></svg>