<svg xmlns="http://www.w3.org/2000/svg" width="1em" height="1em" viewBox="0 0 48 48"><path fill="none" stroke="currentColor" stroke-linecap="round" stroke-linejoin="round" d="M12.586 6.096c-.679.103-1.388 3.806-.885 3.806c.881 0 2.07-.327 2.287-1.165c.217-.838-1.008-2.7-1.402-2.64m22.88-.001c.678.103 1.388 3.806.885 3.806c-.881 0-2.07-.327-2.287-1.165c-.217-.838 1.008-2.7 1.402-2.64m-14.271 11.25c0 2.687 2.289 2.11 2.747 1.194m0 0V17.01m0 1.532c.437.876 2.826 1.632 2.826-1.194"/><path fill="none" stroke="currentColor" stroke-linecap="round" stroke-linejoin="round" d="M38.189 7.846C42.67 11.786 45.5 17.563 45.5 24c0 11.874-9.626 21.5-21.5 21.5S2.5 35.874 2.5 24c0-6.408 2.803-12.16 7.25-16.1m5.249-3.43A21.42 21.42 0 0 1 24 2.5c3.161 0 6.164.682 8.867 1.908"/><path fill="none" stroke="currentColor" stroke-linecap="round" stroke-linejoin="round" d="M42.225 35.023c-3.013-23.035-4.018-31.704-6.8-31.616c-2.485.078-4.127 3.094-4.756 4.33a.09.09 0 0 1-.129.034C27 5.525 20.392 5.515 17.416 7.74a.096.096 0 0 1-.148-.048c-.402-1.211-2.61-4.373-4.54-4.373c-3.269 0-3.919 8.956-6.964 31.755"/><path fill="none" stroke="currentColor" stroke-linecap="round" stroke-linejoin="round" d="M18.62 14.54a2.613 2.613 0 1 1-5.226 0a2.613 2.613 0 0 1 5.226 0m16.038 0a2.613 2.613 0 1 1-5.226 0a2.613 2.613 0 0 1 5.226 0M23.33 16.524l-1.174-2.027a.771.771 0 0 1 .668-1.158h2.346c.595 0 .966.643.668 1.158l-1.173 2.027a.772.772 0 0 1-1.336 0Z"/></svg>