<svg xmlns="http://www.w3.org/2000/svg" width="1em" height="1em" viewBox="0 0 48 48"><path fill="none" stroke="currentColor" stroke-linecap="round" stroke-linejoin="round" d="M40.5 5.5h-33a2 2 0 0 0-2 2v33a2 2 0 0 0 2 2h33a2 2 0 0 0 2-2v-33a2 2 0 0 0-2-2"/><path fill="none" stroke="currentColor" stroke-linecap="round" stroke-linejoin="round" d="M26.568 20.963A5.962 5.962 0 0 0 20.606 15h0a5.962 5.962 0 0 0-5.963 5.962v6.075A5.962 5.962 0 0 0 20.606 33h0a5.962 5.962 0 0 0 5.962-5.962h-5.962"/><circle cx="31.259" cy="30.902" r="2.098" fill="none" stroke="currentColor" stroke-linecap="round" stroke-linejoin="round"/></svg>