<svg xmlns="http://www.w3.org/2000/svg" width="1em" height="1em" viewBox="0 0 48 48"><path fill="none" stroke="currentColor" stroke-linecap="round" stroke-linejoin="round" d="M18.323 22.117a3.895 3.895 0 0 0-3.878-3.912h-.033h0a3.895 3.895 0 0 0-3.912 3.878v3.945c0 2.174 1.739 3.767 3.912 3.767h0c2.173 0 3.911-1.739 3.911-3.767h-3.911m15.554 2.463c.725.87 1.593 1.304 2.897 1.304h1.74a2.906 2.906 0 0 0 2.897-2.897h0A2.906 2.906 0 0 0 34.602 24H32.72a2.906 2.906 0 0 1-2.898-2.898h0a2.906 2.906 0 0 1 2.898-2.897h1.739c1.303 0 2.173.29 2.896 1.304m-15.742-1.304v11.59h5.795"/><rect width="37" height="37" x="5.5" y="5.5" fill="none" stroke="currentColor" stroke-linecap="round" stroke-linejoin="round" rx="2" ry="2"/></svg>