<svg xmlns="http://www.w3.org/2000/svg" width="1em" height="1em" viewBox="0 0 48 48"><path fill="none" stroke="currentColor" stroke-linecap="round" stroke-linejoin="round" d="M40.5 5.5h-33a2 2 0 0 0-2 2v33a2 2 0 0 0 2 2h33a2 2 0 0 0 2-2v-33a2 2 0 0 0-2-2"/><path fill="none" stroke="currentColor" stroke-linecap="round" stroke-linejoin="round" d="M21.334 28v-8l5.3 8v-8m8.683 5.268A2.72 2.72 0 0 1 32.585 28h0c-1.518 0-2.732-1.214-2.732-2.631v-2.732c0-1.518 1.214-2.732 2.732-2.631h0c1.518 0 2.63 1.214 2.63 2.63h0M18.083 22.6c0-1.5-1.2-2.7-2.7-2.7h0c-1.5 0-2.7 1.2-2.7 2.7v2.7c0 1.5 1.2 2.6 2.7 2.6h0c1.5 0 2.7-1.2 2.7-2.6h-2.7"/><path fill="none" stroke="currentColor" stroke-linecap="round" stroke-linejoin="round" d="m32.585 28l-.5 1.1h.5c.4 0 .8.3.8.8c0 .4-.3.8-.8.8h-1.1"/></svg>