<svg xmlns="http://www.w3.org/2000/svg" width="1em" height="1em" viewBox="0 0 48 48"><path fill="none" stroke="currentColor" stroke-linecap="round" stroke-linejoin="round" d="m8.231 24.958l1.965 1.964l4.243-4.226l-1.948-1.965l-.891-.892a3.68 3.68 0 0 1-1.09-2.641c0-.876.297-1.668.809-2.295a3.741 3.741 0 0 1 2.939-1.437c1.007 0 1.932.396 2.658 1.106l.875.842l1.965 1.982l4.26-4.227l-1.982-1.965l-.891-.858a9.695 9.695 0 0 0-6.885-2.857c-5.4 0-9.758 4.36-9.758 9.725c0 1.337.264 2.609.76 3.781a9.479 9.479 0 0 0 2.096 3.087z"/><path fill="none" stroke="currentColor" stroke-linecap="round" stroke-linejoin="round" d="m17.956 27.665l6.059-6.026l-4.259-4.243l-5.317 5.3h0l-4.243 4.226l2.279 2.295l1.964 1.949l2.048-2.048"/><path fill="none" stroke="currentColor" stroke-linecap="round" stroke-linejoin="round" d="m28.242 36.482l9.576-9.56l-4.259-4.226l-9.56 9.543l-5.316-5.3l-4.244 4.227l5.317 5.316l-.017.016l4.26 4.013h0l4.26-4.029h0z"/><path fill="none" stroke="currentColor" stroke-linecap="round" stroke-linejoin="round" d="M40.642 24.083c1.98-1.982 3.12-5.02 2.806-8.09c-.462-4.657-4.325-8.157-9.014-8.47a9.738 9.738 0 0 0-7.579 2.823l-7.1 7.05L24 21.639l7.1-7.067a3.769 3.769 0 0 1 3.269-1.04c1.585.248 2.872 1.552 3.087 3.137a3.738 3.738 0 0 1-1.073 3.187l-2.823 2.84l4.26 4.226z"/></svg>