<svg xmlns="http://www.w3.org/2000/svg" width="1em" height="1em" viewBox="0 0 48 48"><path fill="none" stroke="currentColor" stroke-linecap="round" stroke-linejoin="round" d="M29.603 10.103a5.603 5.603 0 0 0-5.904-5.595c-3.03.158-5.302 2.878-5.302 5.912l-.001 14.92c0 1.639-.47 3.254-1.418 4.59c-1.304 1.84-1.904 4.216-1.404 6.732c.653 3.288 3.293 5.96 6.575 6.645c5.559 1.158 10.452-3.053 10.452-8.408a8.56 8.56 0 0 0-1.229-4.433M24 20.572v6.684"/><path fill="none" stroke="currentColor" stroke-linecap="round" stroke-linejoin="round" d="M24 27.256c0 2.998 3.834 4.006 3.834 7.643a3.834 3.834 0 1 1-7.668 0c0-3.637 3.834-4.645 3.834-7.643"/><circle cx="29.603" cy="15.288" r=".75" fill="currentColor"/><circle cx="29.603" cy="20.572" r=".75" fill="currentColor"/><circle cx="29.603" cy="25.855" r=".75" fill="currentColor"/></svg>