<svg xmlns="http://www.w3.org/2000/svg" width="1em" height="1em" viewBox="0 0 48 48"><path fill="none" stroke="currentColor" stroke-linecap="round" stroke-linejoin="round" d="m23.146 30.355l-1.478 3.384a1.592 1.592 0 0 1-2.935 0l-1.478-3.384c-1.315-3.011-3.681-5.408-6.633-6.719l-4.067-1.805c-1.293-.574-1.293-2.455 0-3.029l3.94-1.748c3.028-1.344 5.437-3.83 6.73-6.944l1.496-3.606a1.593 1.593 0 0 1 2.96 0l1.496 3.606c1.292 3.114 3.701 5.6 6.73 6.944l3.939 1.748c1.293.574 1.293 2.455 0 3.03l-4.067 1.804c-2.952 1.31-5.318 3.707-6.633 6.719m13.73 10.67l-.416.952a.853.853 0 0 1-1.573 0l-.416-.952a7.348 7.348 0 0 0-3.74-3.79l-1.28-.568c-.691-.308-.691-1.314 0-1.621l1.21-.537a7.354 7.354 0 0 0 3.793-3.916l.426-1.03a.854.854 0 0 1 1.587 0l.426 1.03a7.353 7.353 0 0 0 3.794 3.916l1.208.537c.692.307.692 1.313 0 1.62l-1.28.57a7.348 7.348 0 0 0-3.74 3.789"/></svg>