<svg xmlns="http://www.w3.org/2000/svg" width="1em" height="1em" viewBox="0 0 48 48"><path fill="none" stroke="currentColor" stroke-linecap="round" stroke-linejoin="round" d="M4.5 37.5V24L24 8.5h17.5a2 2 0 0 1 2 2v27a2 2 0 0 1-2 2h-35a2 2 0 0 1-2-2"/><path fill="none" stroke="currentColor" stroke-linecap="round" stroke-linejoin="round" d="M20.226 11.5H6.5a2 2 0 0 0-2 2V24"/><path fill="none" stroke="currentColor" stroke-linecap="round" stroke-linejoin="round" d="M4.5 24H22a2 2 0 0 0 2-2V8.5"/><path fill="none" stroke="currentColor" stroke-linecap="round" stroke-linejoin="round" d="m24 8.5l-4.279 8.985a4 4 0 0 1-2.307 2.062L4.5 24"/></svg>