<svg xmlns="http://www.w3.org/2000/svg" width="1em" height="1em" viewBox="0 0 48 48"><circle cx="36.351" cy="36.333" r="4.111" fill="none" stroke="currentColor" stroke-linecap="round" stroke-linejoin="round"/><circle cx="24.018" cy="26.056" r="6.167" fill="none" stroke="currentColor" stroke-linecap="round" stroke-linejoin="round"/><path fill="none" stroke="currentColor" stroke-linecap="round" stroke-linejoin="round" d="M5.5 34.072a8.43 8.43 0 0 0 8.428 8.428H24v-4.111l-10.303-.026c-2.262 0-4.086-2.104-4.086-4.6V29.14H5.5zm28.778-20.35c2.26 0 4.11 2.13 4.11 4.625v7.709H42.5v-8.017a8.43 8.43 0 0 0-8.428-8.428h-2.878"/><path fill="none" stroke="currentColor" stroke-linecap="round" stroke-linejoin="round" d="M28.111 5.5H19.89l-3.083 4.111h-2.878A8.43 8.43 0 0 0 5.5 18.04v4.933h4.111v-4.625c0-2.495 1.85-4.625 4.111-4.625h20.556z"/></svg>