<svg xmlns="http://www.w3.org/2000/svg" width="1em" height="1em" viewBox="0 0 48 48"><path fill="none" stroke="currentColor" stroke-linecap="round" stroke-linejoin="round" d="M9.014 14.54c4.612-2.337 9.723-3.183 14.742-3.304c5.526.038 11.218 1.057 16.11 4.117c2.21 1.4 4.474 3.913 4.092 7.043c-.529 3.588-3.48 5.794-6.145 7.295c-6.525 3.374-13.624 4.872-20.54 6.839c-.72.325-2.03.418-.694-.433c.933-.778 3.453-2.463 1.437-3.556c-4.256-2.296-9.304-3.06-12.743-7.018c-2.187-2.513-1.347-6.895.938-8.96c.838-.83 1.805-1.475 2.803-2.024"/><path fill="none" stroke="currentColor" stroke-linecap="round" stroke-linejoin="round" d="M17.103 26.875c4.13-.233 7.136-.403 10.922-.484s5.629-.044 9.072.025"/><circle cx="31.497" cy="16.081" r=".75" fill="currentColor"/><path fill="none" stroke="currentColor" stroke-linecap="round" stroke-linejoin="round" d="M31.497 18.538v5.527m-6.462-.102v-5.426m0 3.378c0 1.126-.921 2.048-2.047 2.048s-2.047-.922-2.047-2.048v-1.33c0-1.126.92-2.048 2.047-2.048s2.047.922 2.047 2.048M12.95 18.538c1.126 0 2.048.92 2.048 2.047v1.33c0 1.126-.922 2.048-2.048 2.048s-2.047-.922-2.047-2.048v-1.33c0-1.126.921-2.047 2.047-2.047m2.048.102v6.142a2.053 2.053 0 0 1-2.048 2.047c-.614 0-1.126-.205-1.433-.614m5.749-7.677v5.527m0-3.48c0-1.126.922-2.047 2.048-2.047m14.405 4.912c.41.308.819.41 1.638.41h.41c.716 0 1.33-.614 1.33-1.33s-.614-1.331-1.33-1.331h-.922c-.716 0-1.33-.614-1.33-1.33s.613-1.332 1.33-1.332h.41c.92 0 1.33.103 1.637.41m-9.747-.409h2.252M28.271 16.9v6.141c0 .615.41 1.024 1.024 1.024h.307"/></svg>