<svg xmlns="http://www.w3.org/2000/svg" width="1em" height="1em" viewBox="0 0 48 48"><path fill="none" stroke="currentColor" stroke-linecap="round" stroke-linejoin="round" d="M14.733 4.5c2.89 6.985 5.789 13.96 6.608 19.037c.81 5.077-.443 8.238-2.768 9.057s-5.723-.705-6.755-3.071c-1.032-2.358.303-5.56 2.3-7.672c1.999-2.113 4.66-3.144 7.468-3.832c2.809-.688 5.765-1.04 8.352-.467c2.58.565 4.79 2.055 5.83 4.454c1.04 2.391.909 5.683.311 8.442c-.606 2.751-1.687 4.979-3.226 7.058c-1.54 2.088-3.537 4.037-5.527 5.994"/></svg>