<svg xmlns="http://www.w3.org/2000/svg" width="1em" height="1em" viewBox="0 0 48 48"><path fill="none" stroke="currentColor" stroke-linecap="round" stroke-linejoin="round" d="M26.325 20.66v5.783h2.891m-9.762 0V20.66h1.88c1.084 0 1.951.868 1.951 1.952s-.867 1.952-1.952 1.952h-1.879m1.95-.002l1.881 1.881M6.177 20.66v5.783m3.831-5.783v5.783m-3.831-2.964h3.831m31.815-2.819l-1.879 2.892l-1.88-2.892m1.88 5.783v-2.891m-7.816 0h1.879m1.012 2.891h-2.891V20.66h2.891m-18.987 3.831H13.43m-.651 1.952l1.952-5.783l1.952 5.783"/><path fill="none" stroke="currentColor" stroke-linecap="round" stroke-linejoin="round" d="M3.5 18.749h41v9.957h-41zm9.168 9.957c.004.985-1.806 3.042-2.638 3.412c5.977 5.03 9.962 7.493 13.97 8.067c4.008-.574 7.993-3.038 13.97-8.067c-.832-.37-2.642-2.427-2.637-3.412M12.462 18.75c-.195-1.35-1.387-3.218-2.33-3.745v-2.589c5.168-.291 10.984-2.293 13.965-4.6c2.982 2.307 8.798 4.309 13.966 4.6v2.589c-.943.527-2.136 2.395-2.33 3.745"/><path fill="none" stroke="currentColor" stroke-linecap="round" stroke-linejoin="round" d="M13.292 15.078s5.199.275 10.708-3.83c5.509 4.105 10.708 3.83 10.708 3.83c-1.685 1.713-1.967 3.082-2.002 3.67m-17.411 0c-.035-.588-.314-1.957-2-3.67"/><path fill="none" stroke="currentColor" stroke-linecap="round" stroke-linejoin="round" d="M34.708 15.078s-5.199.275-10.708-3.83c-5.509 4.105-10.708 3.83-10.708 3.83c1.685 1.713 1.967 3.082 2.002 3.67m17.412 0c.034-.588.313-1.957 1.998-3.67m-2.03 13.627c.283 1.09.625 2.321 1.615 2.859c0 0-4.233 3.914-10.288 5.44c-6.056-1.526-10.289-5.44-10.289-5.44c.99-.538 1.332-1.768 1.615-2.859"/></svg>