<svg xmlns="http://www.w3.org/2000/svg" width="1em" height="1em" viewBox="0 0 48 48"><path fill="none" stroke="currentColor" stroke-linecap="round" stroke-linejoin="round" d="M15.74 10.313c-1.015 3.924-2.58 6.816-4.812 8.579m4.812-8.579c-.22-1.18-.323-2.54-.31-4.078c-3.15 2.92-5.971 6.514-8.463 10.783c1.222.45 2.543 1.074 3.961 1.874a255.616 255.616 0 0 0-3.653 3.111c4.73 7.771 9.2 14.604 13.412 20.497c-2.79-17.87-4.44-28.6-4.947-32.187m-3.797-.412c-3.028.914-5.168 1.668-6.42 2.263L5.5 35.08c.288 4.36 2.76 6.833 7.42 7.42h22.147c4.726-.662 7.2-3.136 7.42-7.42l.013-22.917c-1.253-.595-3.394-1.35-6.42-2.263m-3.798.412c1.015 3.924 2.58 6.816 4.812 8.579m-4.812-8.579c.22-1.18.323-2.54.31-4.078c3.15 2.92 5.972 6.514 8.464 10.783c-1.224.45-2.543 1.074-3.962 1.874a248.92 248.92 0 0 1 3.652 3.111c-4.73 7.771-9.2 14.604-13.41 20.497c2.79-17.87 4.439-28.6 4.946-32.187m-15.645 6.03c2.672-2.953 5.114-4.872 7.327-5.757c-4.014-1.257-6.858-2.708-8.534-4.351m16.115 9.055c-2.902-2.578-5.43-4.146-7.581-4.704c4.273-1.266 7.15-2.717 8.628-4.351m-13.042 7.22a28.03 28.03 0 0 0 3.331 3.935c1.158-.424 2.111-.373 2.86.154a16.774 16.774 0 0 0 3.193-4.374m-3.192 4.374c1.973 3.738 3.236 7.35 3.79 10.84m-6.65-10.994c-.653 3.876-2.07 7.838-4.253 11.889"/></svg>