<svg xmlns="http://www.w3.org/2000/svg" width="1em" height="1em" viewBox="0 0 48 48"><path fill="none" stroke="currentColor" stroke-linecap="round" stroke-linejoin="round" d="M11.779 42.414c26.06-12.242 8.303-31.167-.667-21.874c-3.356 3.476-.413 7.53 2.083 8.851c.318.168.904.46.06-.486c-6.183-6.398 10.47-9.91 5.753 1.653c-1.158 3.482-3.547 7.161-7.17 11.095c-.504.546-.604.847-.284.847c.105 0 .207-.038.225-.085zm24.255-2.384c4.882-4.165-3.456-7.883-6.247-15.333c-.733-2.336.592-3.687-.185-3.798c-.096.031-2.727 2.711-2.727 5.2c0 6.813 10.984 10.867 5.39 14.503c-3.424 2.225 1.66 1.228 3.769-.572M33.02 19.511c8.138-2.82 6.143-13.24-.055-13.936c-.84-.095-1.64-.1-2.387-.015c0 .23 3.349 1.889 3.807 6.86c.144 1.567-.197 3.248-1.024 5.039c-.77 1.668-1.882 2.073-1.882 2.367c0 .111.758-.043 1.541-.315"/><circle cx="25.271" cy="13.262" r="5.142" fill="none" stroke="currentColor" stroke-linecap="round" stroke-linejoin="round"/></svg>