<svg xmlns="http://www.w3.org/2000/svg" width="1em" height="1em" viewBox="0 0 48 48"><path fill="none" stroke="currentColor" stroke-linecap="round" stroke-linejoin="round" d="M28.202 29.823c-.372.863-1.014 2.705-2.485 3.441c-.446.222-.999.324-1.488.344M12.712 32.01c-.298-.098-.447-.236-.447-.405c0-.147.08-.26.185-.363l.202-.18c.744-.618 2.973-2.233 7.177-3.845c1.476-.56 3.323-1.264 5.256-1.675c1.13-.234 5.335-.88 3.116 4.28M39.478 18.3c.08-.138.186-.255.377-.264m-8.553 14.743c-.075-.071-.093-.197 0-.354c.054-.096.119-.187.193-.27c3.944-4.65 6.95-11.513 7.804-13.492c.065-.138.127-.274.179-.363m-19.613-.147c.372-.861 1.014-2.705 2.483-3.434c.447-.223 1-.331 1.488-.344m11.516 1.596c.297.1.446.236.446.405c0 .147-.078.255-.182.36a3.543 3.543 0 0 1-.205.178c-.738.623-2.973 2.234-7.177 3.847c-1.479.566-3.322 1.263-5.25 1.672c-1.134.242-5.339.882-3.12-4.278m-2.522-3.259c-.055.094-.766.857-.839.939c-3.944 4.656-6.952 11.513-7.81 13.498a4.294 4.294 0 0 1-.178.363c-.074.136-.184.253-.372.264"/><ellipse cx="24" cy="24" fill="none" stroke="currentColor" stroke-linecap="round" stroke-linejoin="round" rx="20.5" ry="9.625"/></svg>