<svg xmlns="http://www.w3.org/2000/svg" width="1em" height="1em" viewBox="0 0 48 48"><path fill="none" stroke="currentColor" stroke-linecap="round" stroke-linejoin="round" d="M34 4.5H14a2 2 0 0 0-2 2v35a2 2 0 0 0 2 2h20a2 2 0 0 0 2-2v-35a2 2 0 0 0-2-2"/><rect width="7" height="7" x="25.5" y="10.5" fill="none" stroke="currentColor" stroke-linecap="round" stroke-linejoin="round" rx="1" ry="1"/><rect width="7" height="7" x="15.5" y="10.5" fill="none" stroke="currentColor" stroke-linecap="round" stroke-linejoin="round" rx="1" ry="1"/><rect width="7" height="7" x="25.5" y="20.5" fill="none" stroke="currentColor" stroke-linecap="round" stroke-linejoin="round" rx="1" ry="1"/><rect width="7" height="7" x="15.5" y="20.5" fill="none" stroke="currentColor" stroke-linecap="round" stroke-linejoin="round" rx="1" ry="1"/><rect width="7" height="7" x="25.5" y="30.5" fill="none" stroke="currentColor" stroke-linecap="round" stroke-linejoin="round" rx="1" ry="1"/><rect width="7" height="7" x="15.5" y="30.5" fill="none" stroke="currentColor" stroke-linecap="round" stroke-linejoin="round" rx="1" ry="1"/></svg>