<svg xmlns="http://www.w3.org/2000/svg" width="1em" height="1em" viewBox="0 0 48 48"><path fill="none" stroke="currentColor" stroke-linecap="round" stroke-linejoin="round" d="M18.518 30.364v8.686m6.149-7.32h8.642M8.95 19.593l3.677-7.063m19.016 19.533c-.666 4.095-3.322 5.794-6.89 6.815"/><path fill="none" stroke="currentColor" stroke-linecap="round" stroke-linejoin="round" d="M33.17 38.943c-2.193-.656-5.601-1.935-7.17-6.536m2.988-1.022l-.333-1.021m-6.622-11.771c-2 7.148 4.483 7.664 6.482 5.106l5.977-11.234M21.84 36.158h-6.644V31.73h6.643z"/><path fill="none" stroke="currentColor" stroke-linecap="round" stroke-linejoin="round" d="M26.14 17.615c1.988-7.16-4.494-7.665-6.483-5.117l-5.988 11.244m21.705-.064l3.676-7.063"/><path fill="none" stroke="currentColor" stroke-linecap="round" stroke-linejoin="round" d="M24 2.5c11.879 0 21.5 9.621 21.5 21.5S35.879 45.5 24 45.5S2.5 35.879 2.5 24S12.121 2.5 24 2.5"/></svg>