<svg xmlns="http://www.w3.org/2000/svg" width="1em" height="1em" viewBox="0 0 48 48"><path fill="none" stroke="currentColor" stroke-linecap="round" stroke-linejoin="round" d="M40.5 5.5h-33a2 2 0 0 0-2 2v33a2 2 0 0 0 2 2h33a2 2 0 0 0 2-2v-33a2 2 0 0 0-2-2M5.5 24h37m-21.007 6.231v5.258m-4.881-5.258h3.484m-1.742 5.258v-5.258m17.663 0H39.5m-1.742 5.258v-5.258"/><path fill="none" stroke="currentColor" stroke-linecap="round" stroke-linejoin="round" d="M26.471 33.726v.021c0 .962-.78 1.742-1.741 1.742h0c-.962 0-1.742-.78-1.742-1.742v-1.774c0-.962.78-1.742 1.742-1.742h0c.962 0 1.741.78 1.741 1.742v.021m5.594.866h1.714m.915 2.629h-2.629v-5.258h2.629M8.5 35.49v-5.26h1.183a2.3 2.3 0 0 1 2.3 2.3v.658a2.3 2.3 0 0 1-2.3 2.3zm4.754-2.63h2.629m11.943-2.629v5.258m0-1.831l2.826-3.409m0 5.24l-2.165-2.629M15.366 12.925l-2.144 8m2.394 0l2.143-8l3.157 8l2.143-8m.151 7.124c.32.638.871.876 1.727.876h1.184c1.102 0 2.235-.893 2.53-1.996l.003-.008c.295-1.102-.359-1.996-1.461-1.996h-1.306c-1.104 0-1.759-.894-1.463-1.998h0c.296-1.105 1.433-2.002 2.539-2.002h1.178c.855 0 1.407.238 1.726.877m3.028 7.123h-3.417M27.636 24l6.636-11.075l.506 8"/><circle cx="16.105" cy="9.577" r="1.633" fill="none" stroke="currentColor" stroke-linecap="round" stroke-linejoin="round"/></svg>