<svg xmlns="http://www.w3.org/2000/svg" width="1em" height="1em" viewBox="0 0 48 48"><path fill="none" stroke="currentColor" stroke-linecap="round" stroke-linejoin="round" d="M27.446 12.294L15.064 33.74a1.966 1.966 0 0 0 1.703 2.95H41.53a1.966 1.966 0 0 0 1.703-2.95L30.852 12.294a1.966 1.966 0 0 0-3.406 0"/><path fill="none" stroke="currentColor" stroke-linecap="round" stroke-linejoin="round" d="m20.976 23.5l-3.446-5.97a1.966 1.966 0 0 0-3.406 0L4.766 33.74a1.966 1.966 0 0 0 1.703 2.95h10.298m.156-6.17h7.515m-4.104-5.909h8.073m8.508-1.816a4.576 4.576 0 1 0-4.027-6.971"/></svg>