<svg xmlns="http://www.w3.org/2000/svg" width="1em" height="1em" viewBox="0 0 48 48"><path fill="none" stroke="currentColor" stroke-linecap="round" stroke-linejoin="round" d="M40.5 5.5h-33a2 2 0 0 0-2 2v33a2 2 0 0 0 2 2h33a2 2 0 0 0 2-2v-33a2 2 0 0 0-2-2m-25.073 10v17"/><path fill="none" stroke="currentColor" stroke-linecap="round" stroke-linejoin="round" d="M21.647 30.637c1.042 1.357 2.35 1.863 4.168 1.863h2.517a4.24 4.24 0 0 0 4.24-4.24v-.02a4.24 4.24 0 0 0-4.24-4.24h-2.776a4.245 4.245 0 0 1-4.246-4.245h0a4.255 4.255 0 0 1 4.255-4.255h2.503c1.818 0 3.126.506 4.168 1.863"/></svg>