<svg xmlns="http://www.w3.org/2000/svg" width="1em" height="1em" viewBox="0 0 48 48"><path fill="none" stroke="currentColor" stroke-linecap="round" stroke-linejoin="round" d="M25.466 27.058c0 3.984-3.04 6.273-6.79 5.113c-3.75-1.16-6.79-5.33-6.79-9.313h0c0-3.984 3.04-6.274 6.79-5.114h0c3.75 1.16 6.79 5.33 6.79 9.314"/><path fill="none" stroke="currentColor" stroke-linecap="round" stroke-linejoin="round" d="M23.086 26.223c0 1.61-.833 2.906-2.185 3.398c-1.352.491-3.017.105-4.368-1.014c-1.352-1.12-2.185-2.801-2.185-4.412m2.449-15.763l.235 4.916m17.216 2.693l-.469 23.527M4.5 11.593l12.297-3.161L43.5 11.359"/><path fill="none" stroke="currentColor" stroke-linecap="round" stroke-linejoin="round" d="m4.5 11.593l2.108 19.781l27.171 8.194l9.135-7.96l.586-20.249l-9.252 4.682z"/><path fill="currentColor" d="M21.057 22.81c0 .397-.303.626-.678.51c-.374-.116-.677-.532-.677-.93s.303-.626.677-.51s.678.532.678.93m-4.484-1.094c0 .398-.304.626-.678.51c-.374-.115-.678-.532-.678-.93c0-.397.304-.625.678-.51c.374.116.678.532.678.93"/></svg>