<svg xmlns="http://www.w3.org/2000/svg" width="1em" height="1em" viewBox="0 0 48 48"><g fill="none" stroke="currentColor" stroke-linecap="round" stroke-linejoin="round"><path d="m24.69 26.8l8.812 9.077l9.014-9.037l-9.013 9.041"/><path d="m24.73 30.138l8.831 9.084l8.898-9.028l-8.906 9.036"/><path d="m24.674 33.328l8.912 9.172l8.896-9.155l-8.892 9.151m-7.603-17.239l7.523-7.563l7.607 7.541l-7.603-7.54"/><path d="m27.528 26.781l5.999-5.925l6.015 5.958l-6.02-5.962"/><path d="m29.061 28.415l4.453-4.501l4.458 4.491l-4.458-4.491M6.96 25.198l7.524-7.563l7.607 7.541l-7.604-7.54"/><path d="m8.502 26.722l5.998-5.925l6.015 5.958l-6.019-5.962"/><path d="m10.035 28.356l4.452-4.501l4.459 4.491l-4.459-4.491m.539-9.629L23.753 5.5m-7.679 10.598l7.919-7.96l8.006 7.937l-8.002-7.937"/><path d="m17.696 17.702l6.314-6.236l6.331 6.27l-6.335-6.274"/><path d="m19.31 19.422l4.686-4.738l4.693 4.728l-4.693-4.728M5.69 26.752l8.812 9.077l8.945-8.944l-8.945 8.948"/><path d="m5.615 29.974l8.946 9.2l8.898-9.028l-8.906 9.036"/><path d="m5.674 33.28l8.912 9.172l8.872-9.074l-8.868 9.07"/></g></svg>