<svg xmlns="http://www.w3.org/2000/svg" width="1em" height="1em" viewBox="0 0 48 48"><path fill="none" stroke="currentColor" stroke-linecap="round" stroke-linejoin="round" d="M25.537 23.967v-11.71c.03-.277-.1-1.22.906-1.49l.547-.144v-.53h-6.633v.53l.521.138c1.033.262.9 1.217.93 1.497v.713c-.154.011-.318.022-.463.05c-3.338.471-5.77 3.107-5.77 6.294c0 2.372 1.127 3.857 2.924 5.206c.933.701 1.567 1.004 2.693 1.62l.617.344v5.58c-.029.28.1 1.223-.905 1.491l-.548.148v.528h6.634v-.528l-.523-.139c-1.032-.263-.9-1.218-.928-1.5l-.002-3.5l.725.407s2.184 1.063 3.025 2.987c.845 1.925.388 3.697-2.977 4.907c0 0-4.097 1.514-7.727-1.886c0 0-1.252-1.027-1.87-2.79c-.097-.275-.208-.286-.208-.286h-.525v6.698h.445s.268-.39.499-.578c.061-.051.106-.087.163-.121c.293-.179.714-.41 1.752-.173l.077.024c.237.056 1.423.465 1.423.465c.874.368 1.601.63 2.412.777a2.121 2.121 0 0 0-1.179 1.9c0 .896.557 1.594 1.34 1.872c.311.151.35.263.438.54c.076.237-.171 1.192-.171 1.192h.549s.356-.44.854-1.129c.218-.3.553-.906.752-1.175c.267-.391.483-.765.483-1.3c0-.732-.374-1.378-.936-1.76c.548-.017 1.604-.186 2.522-.552c3.895-1.322 4.783-4.76 4.783-4.76a7.17 7.17 0 0 0 .239-1.826c0-2.09-1.107-3.971-2.55-5.267c0 0-.445-.43-.813-.7c-1.318-1.025-6.675-3.648-8.426-4.742c-3.776-1.82-3.085-5.4 1.172-6.563v7.24m3.729-7.995c.53.066 1.027.305 1.457.568c.423.237.612.43.818.58c.256.191.66.585 1.133 1.22c.473.638.82 1.447.934 1.791c.084.25.195.78.248 1.087l.066.41h.573v-6.295h-.482l-.254.386c-.23.295-.439.4-.884.448c-.515.058-1.177-.223-1.177-.223l-.975-.39c-.62-.245-.94-.37-1.457-.528m-4.03-7.36a2.164 2.164 0 1 0 4.33-.002a2.164 2.164 0 0 0-4.33.001"/></svg>