<svg xmlns="http://www.w3.org/2000/svg" width="1em" height="1em" viewBox="0 0 48 48"><circle cx="24" cy="24" r="21.5" fill="none" stroke="currentColor" stroke-linecap="round" stroke-linejoin="round"/><path fill="none" stroke="currentColor" stroke-linecap="round" stroke-linejoin="round" d="M8.786 16.289v15.526m30.428-5.265a5.182 5.182 0 1 1-10.364 0v-5.183a5.16 5.16 0 0 1 5.182-5.182a5.001 5.001 0 0 1 4.99 5.183m-26.656 8.689a4.653 4.653 0 0 0 3.903 1.756h2.342a3.903 3.903 0 0 0 0-7.806h-2.537a3.903 3.903 0 0 1 0-7.805h2.342a4.19 4.19 0 0 1 3.903 1.756m3.363-1.757v15.612"/></svg>