<svg xmlns="http://www.w3.org/2000/svg" width="1em" height="1em" viewBox="0 0 48 48"><path fill="none" stroke="currentColor" stroke-linecap="round" stroke-linejoin="round" d="m43.332 29.34l-3.802-5.23c-.08-.112-.082-.221-.004-.334l3.518-5.113c.102-.145.173-.257.173-.474c0-.187-.125-.415-.317-.608s-.39-.285-.643-.285c-.143 0-.271.06-.411.167l-4.818 3.698c-.116.09-.237.09-.353 0l-4.816-3.698c-.14-.108-.27-.167-.412-.167c-.255 0-.45.092-.643.285c-.192.192-.317.421-.317.608c0 .217.07.329.173.474l3.518 5.113c.078.113.077.222-.004.334l-3.801 5.23c-.102.14-.165.264-.165.431c0 .24.105.439.298.631s.403.302.635.302c.164 0 .29-.065.43-.166l5.113-3.72a.291.291 0 0 1 .34 0l5.113 3.72c.14.102.265.166.43.166c.232 0 .443-.109.636-.301s.297-.391.297-.632c-.004-.165-.066-.291-.168-.432m-22.942-7.08c1.072 1.274 2.811 4.623 3.896 6.81c.424.854 1.646.874 2.088.029c1.252-2.4 2.15-4.7 2.938-6.941"/><path fill="none" stroke="currentColor" stroke-linecap="round" stroke-linejoin="round" d="M21.877 24.515c.442.781-.589 5.206-4.732 5.206s-4.462-2.27-4.462-3.782v-7.724m3.948 4.89h-3.948m0 2.834c0 2.046-1.265 3.782-3.907 3.782s-3.532-1.519-3.532-3.782v-3.914"/><circle cx="5.244" cy="19.254" r=".75" fill="currentColor"/></svg>