<svg xmlns="http://www.w3.org/2000/svg" width="1em" height="1em" viewBox="0 0 48 48"><path fill="none" stroke="currentColor" stroke-linecap="round" stroke-linejoin="round" d="M29.412 21.445c1.544 1.413 4.219 1.999 6.261 2.91l2.632 1.835v.758c4.959 4.264 6 9.789-.2 13.04"/><path fill="none" stroke="currentColor" stroke-linecap="round" stroke-linejoin="round" d="M38.305 26.19c-5.36-.204-9.904 1.152-13.99 3.39c-4.513-1.643-8.717-4.075-14.125-3.43l.798 4.267c5.66-.398 4.975 6.446 2.034 7.178l.917 3.35c3.896-.383 7.382.16 10.376 1.555c3.339-1.096 6.784-1.429 10.76-1.356l.518-3.43c-5.825-2.428-1.82-8.811 1.635-6.998l1.077-3.769m-7.577-6.818c-.294-2.837.218-5.372.758-7.896c-.905-3.475-9.495-7.823-14.676-.04c.693 2.514.887 5.17.838 7.896c2.766 3.16 8.69 4.23 13.08.04"/><path fill="none" stroke="currentColor" stroke-linecap="round" stroke-linejoin="round" d="M30.728 20.129c2.842.712 3.913-7.935.758-7.896m-14.676-.04c-3.58.084-3.06 9.176.838 7.896"/><path fill="none" stroke="currentColor" stroke-linecap="round" stroke-linejoin="round" d="M32.744 12.883c.552-10.146-17.966-9.506-17.286-.094m21.77 17.927c2.474 2.21 1.766 5.705.878 9.272"/><path fill="none" stroke="currentColor" stroke-linecap="round" stroke-linejoin="round" d="M35.593 37.715c2.32.791 3.086-.303 3.213-1.103M19.673 21.723c-.885 1.182-4.624.656-7.37 2.752L10.19 26.15c-7.747 8.242-4.234 12.656 0 13.638c-1.958-3.908-2.633-7.364.798-9.371"/><path fill="none" stroke="currentColor" stroke-linecap="round" stroke-linejoin="round" d="M13.022 37.595c-1.885.273-3.06-.251-4.102-.924m3.384-12.196c7.231.2 10.891 2.219 12.011 5.105c1.294-3.287 4.626-4.325 11.358-5.224m-18.339-9.683c5.551-.557 9.703-.367 13.682-.086M18.048 10.62c3.8-.651 7.95-.664 12.388-.146"/><circle cx="24.402" cy="12.247" r=".75" fill="currentColor"/><path fill="none" stroke="currentColor" stroke-linecap="round" stroke-linejoin="round" d="M24.315 29.58V42.5"/></svg>