<svg xmlns="http://www.w3.org/2000/svg" width="1em" height="1em" viewBox="0 0 48 48"><path fill="none" stroke="currentColor" stroke-linecap="round" stroke-linejoin="round" d="m34.946 5.152l-7.942 7.943m3.637-9.639l-9.638 9.639m4.343-10.343L3.463 24.634M18.37 3.727L4.494 17.602M38.559 7.54l-5.695 5.694m8.7-2.7l-5.423 5.424m7.821-1.822l-7.886 7.886m9.596-3.595l-6.083 6.084m5.885 6.115l-14.08 14.08m15.058-21.06L24.464 45.634m5.599-11.598L19.194 44.905m4.597-10.598l-8.888 8.889m4.012-10.014l-7.614 7.614m1.814-7.813l-4.809 4.809m1.987-7.925l-4.374 4.311m5.339-11.337l-7.034 7.033M24.914 24a2.525 2.525 0 0 1 .003 5.05H20.75v-10.1h4.166a2.525 2.525 0 0 1 0 5.05zm0 0h-4.165m-2.571-5.05v7.575a2.532 2.532 0 0 1-2.525 2.525h0a2.532 2.532 0 0 1-2.525-2.525v-.884m16.694-6.691v10.099h5.05"/></svg>