<svg xmlns="http://www.w3.org/2000/svg" width="1em" height="1em" viewBox="0 0 48 48"><path fill="none" stroke="currentColor" stroke-linecap="round" stroke-linejoin="round" d="M6.656 19.224H42.5v19.548a3.663 3.663 0 0 1-3.663 3.663H10.319a3.663 3.663 0 0 1-3.663-3.663z"/><path fill="none" stroke="currentColor" stroke-linecap="round" stroke-linejoin="round" d="m30.03 30.416l-7.759-4.868a.488.488 0 0 0-.748.414v9.736a.488.488 0 0 0 .748.414l7.759-4.868a.489.489 0 0 0 0-.828m7.491-24.494l-1.056 4.267l-5.225.961l1.056-4.267l-5.447 1.002l-1.057 4.268l-5.225.961l1.057-4.267l-5.448 1.002l-1.056 4.267l-5.225.962l1.056-4.267l-4.451.819a1.22 1.22 0 0 0-.98 1.422l1.136 6.173l35.252-6.487l-1.136-6.173a1.221 1.221 0 0 0-1.422-.98Z"/></svg>