<svg xmlns="http://www.w3.org/2000/svg" width="1em" height="1em" viewBox="0 0 48 48"><path fill="none" stroke="currentColor" stroke-linecap="round" stroke-linejoin="round" d="M45.5 24c0 11.874-9.626 21.5-21.5 21.5S2.5 35.874 2.5 24m43 0c0-11.874-9.626-21.5-21.5-21.5S2.5 12.126 2.5 24m7.909-1.253L24 8"/><path fill="none" stroke="currentColor" stroke-linecap="round" stroke-linejoin="round" d="M34.83 19.836V35H13.17V19.836m24.421 2.911L24 8"/><circle cx="24" cy="25.39" r="1.873" fill="none" stroke="currentColor" stroke-linecap="round" stroke-linejoin="round"/><circle cx="24" cy="15.288" r="1.873" fill="none" stroke="currentColor" stroke-linecap="round" stroke-linejoin="round"/><circle cx="24" cy="30.968" r="1.873" fill="none" stroke="currentColor" stroke-linecap="round" stroke-linejoin="round"/><circle cx="17.987" cy="25.39" r="1.873" fill="none" stroke="currentColor" stroke-linecap="round" stroke-linejoin="round"/><circle cx="19.377" cy="19.836" r="1.873" fill="none" stroke="currentColor" stroke-linecap="round" stroke-linejoin="round"/><path fill="none" stroke="currentColor" stroke-linecap="round" stroke-linejoin="round" d="M22.127 25.39h-2.268M24 23.517V17.16m0 11.935v-1.832m-3.474-5.948l2.135 2.767"/><circle cx="30.013" cy="25.39" r="1.873" fill="none" stroke="currentColor" stroke-linecap="round" stroke-linejoin="round"/><circle cx="28.623" cy="19.836" r="1.873" fill="none" stroke="currentColor" stroke-linecap="round" stroke-linejoin="round"/><path fill="none" stroke="currentColor" stroke-linecap="round" stroke-linejoin="round" d="M25.873 25.39h2.268m-.667-4.075l-2.135 2.767"/></svg>