<svg xmlns="http://www.w3.org/2000/svg" width="1em" height="1em" viewBox="0 0 48 48"><path fill="none" stroke="currentColor" stroke-linecap="round" stroke-linejoin="round" d="M40.5 5.5h-33a2 2 0 0 0-2 2v33a2 2 0 0 0 2 2h33a2 2 0 0 0 2-2v-33a2 2 0 0 0-2-2"/><path fill="none" stroke="currentColor" stroke-linecap="round" stroke-linejoin="round" d="M15.912 18.088v7.368c0 1.356-1.1 2.456-2.456 2.456h0A2.456 2.456 0 0 1 11 25.456v-.816"/><rect width="4.912" height="6.508" x="18.299" y="21.404" fill="none" stroke="currentColor" stroke-linecap="round" stroke-linejoin="round" rx="2.456" ry="2.456"/><path fill="none" stroke="currentColor" stroke-linecap="round" stroke-linejoin="round" d="M32.806 27.363c.448.377.932.549 2.02.549h.55c.897 0 1.624-.728 1.624-1.627h0c0-.899-.727-1.627-1.624-1.627h-1.102a1.625 1.625 0 0 1-1.623-1.627h0c0-.899.727-1.627 1.623-1.627h.551c1.088 0 1.572.172 2.02.549M25.541 23.86c0-1.357 1.1-2.456 2.456-2.456h0c1.356 0 2.456 1.1 2.456 2.456v1.596c0 1.356-1.1 2.456-2.456 2.456h0a2.456 2.456 0 0 1-2.456-2.456m0 2.456v-9.824"/></svg>