<svg xmlns="http://www.w3.org/2000/svg" width="1em" height="1em" viewBox="0 0 48 48"><path fill="none" stroke="currentColor" stroke-linecap="round" stroke-linejoin="round" d="M43 17.077c0-5.654-4.584-10.238-10.238-10.238c-3.722 0-6.97 1.993-8.762 4.964c-1.792-2.97-5.04-4.964-8.763-4.964C9.583 6.84 5 11.423 5 17.077c0 1.292.25 2.524.687 3.662C9.072 30.476 24 41.161 24 41.161s14.928-10.685 18.313-20.422A10.19 10.19 0 0 0 43 17.077"/><path fill="none" stroke="currentColor" stroke-linecap="round" stroke-linejoin="round" d="M36.815 17.584a3.5 3.5 0 1 0-7 0c0 1.491.936 2.756 2.25 3.26v2.402a1.25 1.25 0 0 0 2.5 0v-2.402a3.493 3.493 0 0 0 2.25-3.26"/></svg>