<svg xmlns="http://www.w3.org/2000/svg" width="1em" height="1em" viewBox="0 0 48 48"><path fill="none" stroke="currentColor" stroke-linecap="round" stroke-linejoin="round" d="m19.463 23.268l-5.916-5.916M4.5 14.52v8.747l14.446-9.446a2.071 2.071 0 0 1 1.135-.339h2.882c.573 0 1.037.465 1.037 1.038v7.71c0 .573.465 1.037 1.037 1.037h2.882c.403 0 .798-.118 1.135-.338L43.5 13.482v8.748m-2.226 12.287v-6.72m-2.226 0H43.5m-26.997 6.72v-6.72l4.453 6.72v-6.72M8.952 32.263v.028c0 1.23-.996 2.226-2.226 2.226h0A2.226 2.226 0 0 1 4.5 32.291v-2.268c0-1.23.997-2.227 2.226-2.227h0c1.23 0 2.226.997 2.226 2.227v.027m23.018 4.467h-3.36v-6.72h3.36m-3.36 3.36h2.19m-18.117-3.36c1.23 0 2.226.997 2.226 2.226v2.268c0 1.23-.997 2.227-2.226 2.227h0a2.226 2.226 0 0 1-2.227-2.227v-2.268c0-1.23.997-2.226 2.227-2.226m9.876 6.72v-6.72l4.452 6.72v-6.72m10.724 4.466v.028c0 1.23-.996 2.226-2.226 2.226h0a2.226 2.226 0 0 1-2.226-2.226v-2.268c0-1.23.996-2.227 2.226-2.227h0c1.23 0 2.226.997 2.226 2.227v.027"/></svg>