<svg xmlns="http://www.w3.org/2000/svg" width="1em" height="1em" viewBox="0 0 48 48"><path fill="none" stroke="currentColor" stroke-linecap="round" stroke-linejoin="round" d="M16.03 27.005c.259 1.46 2.63 9.408 4.95 9.408c9.622 0 2.79-.054 16.481-.054c2.803 0 4.785-8.248 5.04-9.359c-9.08-.025-14.397 0-23.476.005zM31.743 11.85a3.163 3.163 0 0 0-1.554 1.188a3.163 3.163 0 0 0-.549 1.876c.033 1.005.539 1.926 1.056 2.787s1.072 1.74 1.218 2.733c.114.773-.035 1.582-.418 2.263s-.995 1.23-1.714 1.535M35.63 11.85a3.163 3.163 0 0 0-1.554 1.188a3.163 3.163 0 0 0-.55 1.876c.033 1.005.54 1.926 1.057 2.787s1.071 1.74 1.218 2.733c.114.773-.036 1.582-.418 2.263s-.995 1.23-1.714 1.535m5.847-12.382a3.163 3.163 0 0 0-1.554 1.188a3.163 3.163 0 0 0-.549 1.876c.033 1.005.539 1.926 1.056 2.787s1.072 1.74 1.218 2.733c.114.773-.035 1.582-.418 2.263s-.995 1.23-1.714 1.535"/><path fill="none" stroke="currentColor" stroke-linecap="round" stroke-linejoin="round" d="M20.98 36.413H10.903a2.186 2.186 0 0 1-2.165-1.88L5.5 11.626h2.666l.613 4.266a6.524 6.524 0 0 1 3.024-.343c1.504.187 2.887.888 4.278 1.492c1.115.484 2.282.915 3.497.956a5.65 5.65 0 0 0 2.743-.61l.862-5.8h2.783L23.75 26.99"/></svg>