<svg xmlns="http://www.w3.org/2000/svg" width="1em" height="1em" viewBox="0 0 48 48"><path fill="none" stroke="currentColor" stroke-linecap="round" stroke-linejoin="round" d="M5.975 13.094c1.925-2.274 5.47-3.255 8.307-2.026c3.43 1.28 5.305 5.265 3.964 8.533c-.875 2.433-3.296 3.837-5.797 4.46c3.287.406 6.142 3.12 6.192 6.315c.361 3.71-3.161 7.156-7.05 7.088c-3.918.1-7.474-3.339-7.058-7.096c0-3.176 2.758-5.677 5.881-6.367c-1.677-.535-3.43-1.197-4.468-2.641c-1.95-2.346-1.88-5.92.03-8.266Zm22.115 24.37h-5.958l5.947-26.93h5.957zm9.463 0h-5.957l5.947-26.93H43.5z"/></svg>