<svg xmlns="http://www.w3.org/2000/svg" width="1em" height="1em" viewBox="0 0 48 48"><path fill="none" stroke="currentColor" stroke-linecap="round" stroke-linejoin="round" d="M12.642 20.079h-3.69v4.297h4.299v-2.01m21.498-.12v2.13h4.297v-4.298h-3.688M8.953 26.52v4.307h4.298V26.52zm7.208 0h-.757v4.307h4.298v-1.873m2.144.435v1.439h4.307v-1.439m2.144-.627v2.066h4.298V26.52h-.757m2.91 0v4.308h4.298V26.52zM8.954 32.972v4.297h4.298v-4.297zm6.451 0v4.297h17.191v-4.297zm19.345 0v4.297h4.297v-4.297z"/><path fill="none" stroke="currentColor" stroke-linecap="round" stroke-linejoin="round" d="M12.673 15.866H7.398c-1.048 0-1.898.85-1.898 1.898v21.82c0 1.048.85 1.897 1.897 1.897h33.206a1.897 1.897 0 0 0 1.897-1.897v-21.82c0-1.048-.85-1.898-1.897-1.898h-5.276"/><path fill="none" stroke="currentColor" stroke-linecap="round" stroke-linejoin="round" d="M18.613 15.31h10.773a.74.74 0 0 1 .74.74v7.961a.74.74 0 0 1-.74.74H18.613a.74.74 0 0 1-.74-.74V16.05a.74.74 0 0 1 .74-.74m1.332 0v-1.7a4.052 4.052 0 0 1 8.103 0v1.7"/><circle cx="23.996" cy="20.03" r="1.571" fill="none" stroke="currentColor" stroke-linecap="round" stroke-linejoin="round"/><circle cx="24" cy="18.055" r="11.536" fill="none" stroke="currentColor" stroke-linecap="round" stroke-linejoin="round"/></svg>