<svg xmlns="http://www.w3.org/2000/svg" width="1em" height="1em" viewBox="0 0 48 48"><path fill="none" stroke="currentColor" stroke-linecap="round" stroke-linejoin="round" d="M20.056 36.451L10.097 24m-3.112 3.735L20.056 11.55m-13.071 0v24.9m17.843-24.9v16.498c0 4.669 3.736 8.404 8.094 8.404s8.093-3.735 8.093-8.404V11.549m-2.808 24.193c.896-.968 1.488-5.322.192-4.2c-.96.83-.588 6.918 2.69 3.408m-6.747 2.826c.694-2.716.453-5.432-.103-8.148c-1.075-1.717-.614 5.982 1.829 10.653c1.287 2.461 2.095 4.017 1.698.056l-.394-3.927m-7.263-3.387l-.427 1.54m.444 4.926l.71-2.168c.684 1.834 1.581 3.49 2.723 1.184m-9.278-5.138c.337 3.2 1.629 6.262 2.863 9.332c1.11-.594 1.793-1.115 2.232-2.2"/></svg>