<svg xmlns="http://www.w3.org/2000/svg" width="1em" height="1em" viewBox="0 0 48 48"><path fill="none" stroke="currentColor" stroke-linecap="round" stroke-linejoin="round" d="M8.097 16.366c1.991-1.227 3.965-2.485 5.968-3.693c.91-.529 2.217-.748 3.029.078c.827.89 5.695 9.972 6.165 10.882c-2.583-2.205-5.171-4.437-8.072-6.22c-1.41-.863-3.066-1.348-4.726-1.239c-.79.028-1.577.121-2.364.192m-.714 5.55c-.677.892-1.335 1.797-1.995 2.701h16.996c-2.452-1.445-4.871-2.95-7.382-4.292c-1.108-.568-2.35-1.021-3.614-.798c-1.585.218-3.015 1.156-4.006 2.389zM24 5.032l-4 5.16l4 11.581l4-11.58zm15.903 11.334c-1.991-1.227-3.965-2.485-5.968-3.693c-.91-.529-2.217-.748-3.029.078c-.827.89-5.695 9.972-6.165 10.882c2.583-2.205 5.171-4.437 8.072-6.22c1.41-.863 3.066-1.348 4.726-1.239c.79.028 1.577.121 2.364.192m.714 5.55c.677.892 1.335 1.797 1.995 2.701H25.616c2.452-1.445 4.871-2.95 7.382-4.292c1.108-.568 2.35-1.021 3.614-.798c1.585.218 3.015 1.156 4.006 2.389zm-12.782 5.098l-4.638 2.74m4.638 4.222l-4.638 2.74m4.753 4.145l-3.565 2.107m-4.126-12.596l4.637 2.74m-4.637-6.268l1.944 1.212m5.68 2.279l-1.945 1.212m-5.679 2.297l1.944 1.212m-1.944 5.738l1.944 1.212m-1.944-4.553l4.637 2.74m2.987-2.685l-1.945 1.212m-2.984-12.708l.962.664m.119 0l.962-.663"/><circle cx="24" cy="24" r="21.5" fill="none" stroke="currentColor" stroke-linecap="round" stroke-linejoin="round"/></svg>