<svg xmlns="http://www.w3.org/2000/svg" width="1em" height="1em" viewBox="0 0 48 48"><circle cx="24" cy="24" r="21.5" fill="none" stroke="currentColor" stroke-linecap="round" stroke-linejoin="round"/><path fill="none" stroke="currentColor" stroke-linecap="round" stroke-linejoin="round" d="m22.306 21.235l-1.383 5.53l-1.383-5.53l-1.382 5.53l-1.383-5.53M6 21.235v5.53h2.765M42 21.235v5.53m-1.764 0L38.024 24m-.691.83l2.903-3.595m-2.903 0v5.53m-1.764-5.53v5.53m-1.764 0L31.593 24m-.692.83l2.904-3.595m-2.904 0v5.53m-16.635-1.866c0 1.036-.83 1.866-1.867 1.866s-1.866-.83-1.866-1.797V23.1c0-1.037.83-1.866 1.866-1.797c1.037 0 1.798.83 1.798 1.797m9.621-1.222c.494-.494.79-.494 1.778-.494c1.086 0 1.777.494 1.777 1.679v3.555m-.098-1.975a1.98 1.98 0 0 1-1.975 1.974h-.692c-.691 0-1.284-.592-1.284-1.283s.593-1.284 1.284-1.284h2.667m1.862-2.815v5.53"/></svg>