<svg xmlns="http://www.w3.org/2000/svg" width="1em" height="1em" viewBox="0 0 48 48"><path fill="none" stroke="currentColor" stroke-linecap="round" stroke-linejoin="round" d="M40.5 5.5h-33a2 2 0 0 0-2 2v33a2 2 0 0 0 2 2h33a2 2 0 0 0 2-2v-33a2 2 0 0 0-2-2"/><path fill="none" stroke="currentColor" stroke-linecap="round" stroke-linejoin="round" d="M5.5 35.584c2.051-1.766 6.804-5.13 9.622-5.13c2.691 0 18.836 7.06 25.378 12.046"/><path fill="none" stroke="currentColor" stroke-linecap="round" stroke-linejoin="round" d="M20.628 32.143c2.052-1.767 8.235-4.916 11.053-4.916c2.576 0 5.857 2.468 10.819 5.553"/><path fill="none" stroke="currentColor" stroke-linecap="round" stroke-linejoin="round" d="M33.667 27.627c.254 1.228-1.176 4.256-.672 6.738a27.058 27.058 0 0 0 1.822 4.518m-18.715-8.277c-3.63 2.65 1.417 8.548 5.202 11.894"/><circle cx="15.374" cy="15.818" r="3.449" fill="none" stroke="currentColor" stroke-linecap="round" stroke-linejoin="round"/></svg>