<svg xmlns="http://www.w3.org/2000/svg" width="1em" height="1em" viewBox="0 0 48 48"><path fill="none" stroke="currentColor" stroke-linecap="round" stroke-linejoin="round" d="M10.65 5.913v36.52c0 .631.468 1.117 1.206 1.063l19.371-1.422c.6-.044 1.071-.652 1.071-1.224v-3.983c0-1.135-.486-1.214-1.183-1.183l-12.26.547c-.648.028-1.263-.51-1.263-1.263V6.612c0-1.177-.233-1.294-1.482-1.481l-4.092-.612c-.922-.138-1.368.495-1.368 1.394M32.623 6.98l3.977.502c.96.121.826 1.435.538 2.008l-3.71 7.39c-.269.534-.47.917-1.215.894l-2-.06c-.56-.016-1.097-.55-.933-1.205l2.096-8.349c.205-.814.656-1.254 1.247-1.18"/></svg>