<svg xmlns="http://www.w3.org/2000/svg" width="1em" height="1em" viewBox="0 0 48 48"><path fill="none" stroke="currentColor" stroke-linecap="round" stroke-linejoin="round" d="m13.067 17.235l-2.026 8.751c-.173.75.211 1.25.961 1.25h.375m5.923-1.222c-.549.75-1.54 1.25-2.415 1.25c-1.375 0-2.24-1.125-1.922-2.5l.377-1.625c.318-1.375 1.704-2.5 3.079-2.5s2.24 1.125 1.922 2.5l-.203.875h-5m8.772-5.512l-1.736 7.501c-.174.75.21 1.25.96 1.25h.375m-1.437-6.75h2.75m6.525.261l-1.737 7.5c-.318 1.376-1.704 2.501-3.079 2.501c-.75 0-1.317-.25-1.577-.75"/><path fill="none" stroke="currentColor" stroke-linecap="round" stroke-linejoin="round" d="M27.875 20.639c1.375 0 2.24 1.125 1.922 2.5l-.376 1.625c-.319 1.375-1.704 2.5-3.08 2.5s-2.24-1.125-1.921-2.5l.376-1.625c.318-1.375 1.704-2.5 3.08-2.5m5.603 6.625c-1.376 0-2.24-1.125-1.922-2.5l.376-1.625c.318-1.376 1.704-2.5 3.08-2.5s2.24 1.124 1.921 2.5l-.376 1.625c-.318 1.375-1.704 2.5-3.08 2.5"/><path fill="none" stroke="currentColor" stroke-linecap="round" stroke-linejoin="round" d="M40.5 5.5h-33a2 2 0 0 0-2 2v33a2 2 0 0 0 2 2h33a2 2 0 0 0 2-2v-33a2 2 0 0 0-2-2"/></svg>