<svg xmlns="http://www.w3.org/2000/svg" width="1em" height="1em" viewBox="0 0 48 48"><path fill="none" stroke="currentColor" stroke-linecap="round" stroke-linejoin="round" d="M40.5 5.5h-33a2 2 0 0 0-2 2v33a2 2 0 0 0 2 2h33a2 2 0 0 0 2-2v-33a2 2 0 0 0-2-2"/><path fill="none" stroke="currentColor" stroke-linecap="round" stroke-linejoin="round" d="M29.56 25.807a5.56 5.56 0 0 1-5.56 5.56h0a5.56 5.56 0 0 1-5.56-5.56v-3.614a5.56 5.56 0 0 1 5.56-5.56h0a5.56 5.56 0 0 1 5.56 5.56m.001 9.175V16.632"/></svg>