<svg xmlns="http://www.w3.org/2000/svg" width="1em" height="1em" viewBox="0 0 48 48"><path fill="none" stroke="currentColor" stroke-linecap="round" stroke-linejoin="round" d="M40.5 5.5h-33a2 2 0 0 0-2 2v33a2 2 0 0 0 2 2h33a2 2 0 0 0 2-2v-33a2 2 0 0 0-2-2"/><path fill="none" stroke="currentColor" stroke-linecap="round" stroke-linejoin="round" d="M29.56 12.879V29.56A5.56 5.56 0 0 1 24 35.12h0a5.543 5.543 0 0 1-3.932-1.629"/><rect width="11.121" height="14.735" x="18.439" y="12.879" fill="none" stroke="currentColor" stroke-linecap="round" stroke-linejoin="round" rx="5.561" transform="rotate(180 24 20.247)"/></svg>