<svg xmlns="http://www.w3.org/2000/svg" width="1em" height="1em" viewBox="0 0 48 48"><path fill="none" stroke="currentColor" stroke-linecap="round" stroke-linejoin="round" d="M27.658 5.5H40.38c1.17 0 2.12.95 2.12 2.12h0v12.722a2.12 2.12 0 0 1-2.12 2.11H27.658a2.12 2.12 0 0 1-2.11-2.11V7.62a2.12 2.12 0 0 1 2.11-2.12M7.62 25.549h12.722a2.12 2.12 0 0 1 2.12 2.11v12.72a2.12 2.12 0 0 1-2.12 2.121H7.621a2.12 2.12 0 0 1-2.11-2.12V27.658a2.12 2.12 0 0 1 2.11-2.11M5.51 15.058l-.01-7.2c0-1.572.786-2.358 2.357-2.358h12.248c1.572 0 2.357.786 2.357 2.357v12.249c0 1.57-.785 2.357-2.357 2.357H7.857C6.286 22.455 5.5 21.67 5.5 20.105l.01-2.088m36.99 16.54v-6.662c0-1.564-.786-2.346-2.357-2.346H27.895c-1.565 0-2.347.782-2.347 2.346v12.248c0 1.571.782 2.357 2.347 2.357h12.248c1.571 0 2.357-.786 2.357-2.357v-1.819"/></svg>