<svg xmlns="http://www.w3.org/2000/svg" width="1em" height="1em" viewBox="0 0 48 48"><path fill="none" stroke="currentColor" stroke-linecap="round" stroke-linejoin="round" d="M24 19.483a12.277 12.277 0 0 1 6.167-1.65h0A12.333 12.333 0 0 1 42.5 30.167V42.5H30.167a12.333 12.333 0 0 1-12.334-12.333h0a12.276 12.276 0 0 1 1.652-6.17"/><path fill="none" stroke="currentColor" stroke-linecap="round" stroke-linejoin="round" d="M30.167 42.5H17.833A12.333 12.333 0 0 1 5.5 30.167h0a12.333 12.333 0 0 1 12.333-12.334h0a12.333 12.333 0 0 1 12.334 12.334"/><path fill="none" stroke="currentColor" stroke-linecap="round" stroke-linejoin="round" d="M30.167 5.5A12.333 12.333 0 0 1 42.5 17.833v12.334h0h-12.333a12.333 12.333 0 0 1-12.334-12.334v0A12.333 12.333 0 0 1 30.167 5.5"/></svg>