<svg xmlns="http://www.w3.org/2000/svg" width="1em" height="1em" viewBox="0 0 48 48"><path fill="none" stroke="currentColor" stroke-linecap="round" stroke-linejoin="round" d="M40.5 5.5h-33a2 2 0 0 0-2 2v33a2 2 0 0 0 2 2h33a2 2 0 0 0 2-2v-33a2 2 0 0 0-2-2"/><path fill="none" stroke="currentColor" stroke-linecap="round" stroke-linejoin="round" d="M9.5 17.594v12.812h6.406m3.046 0V17.594h4.195a4.303 4.303 0 0 1 0 8.606h-4.195m4.195 0l4.194 4.203M38.5 26.11v.052a4.244 4.244 0 0 1-4.244 4.244h0a4.244 4.244 0 0 1-4.244-4.244v-4.324a4.244 4.244 0 0 1 4.244-4.244h0a4.244 4.244 0 0 1 4.244 4.244v.053"/></svg>