<svg xmlns="http://www.w3.org/2000/svg" width="1em" height="1em" viewBox="0 0 48 48"><path fill="none" stroke="currentColor" stroke-linecap="round" stroke-linejoin="round" d="M11.05 5.5c3.062 0 5.55 2.488 5.55 5.55s-2.488 5.55-5.55 5.55s-5.55-2.488-5.55-5.55S7.988 5.5 11.05 5.5m0 12.95c3.062 0 5.55 2.488 5.55 5.55s-2.488 5.55-5.55 5.55S5.5 27.062 5.5 24s2.488-5.55 5.55-5.55M24 5.5c3.062 0 5.55 2.488 5.55 5.55S27.062 16.6 24 16.6s-5.55-2.488-5.55-5.55S20.938 5.5 24 5.5m0 12.95c3.062 0 5.55 2.488 5.55 5.55s-2.488 5.55-5.55 5.55s-5.55-2.488-5.55-5.55s2.488-5.55 5.55-5.55M36.95 5.5c3.062 0 5.55 2.488 5.55 5.55s-2.488 5.55-5.55 5.55s-5.55-2.488-5.55-5.55s2.488-5.55 5.55-5.55m0 12.95c3.062 0 5.55 2.488 5.55 5.55s-2.488 5.55-5.55 5.55S31.4 27.062 31.4 24s2.488-5.55 5.55-5.55m0 12.95c3.062 0 5.55 2.488 5.55 5.55s-2.488 5.55-5.55 5.55s-5.55-2.488-5.55-5.55s2.488-5.55 5.55-5.55M24 42.5H11.05a5.55 5.55 0 1 1 0-11.1H24a5.55 5.55 0 1 1 0 11.1"/></svg>