<svg xmlns="http://www.w3.org/2000/svg" width="1em" height="1em" viewBox="0 0 48 48"><g fill="none" stroke="currentColor" stroke-linecap="round" stroke-linejoin="round"><path d="M16.478 28.494a3.79 3.79 0 1 1 0-.004zm22.217 0a3.79 3.79 0 1 1 0-.004z"/><path d="m9.067 29.861l-2.941-1.332c-.775-.35-1.676-1.045-1.624-2.12l.214-4.99l3.113-.792l4.793-2.95c1.584-.975 3.781-1.753 5.222-1.906c.76-.08 4.973-.137 7.163.295l8.294 4.857l6.148.955c2.146.333 3.14 1.298 3.78 2.965c.316.82.299 2.371.229 2.7c-.076.362-.491 1.47-.837 1.817c-.579.578-4.077.407-4.077.407m-22.585.783h15.757"/></g></svg>