<svg xmlns="http://www.w3.org/2000/svg" width="1em" height="1em" viewBox="0 0 48 48"><path fill="none" stroke="currentColor" stroke-linecap="round" stroke-linejoin="round" d="m16.845 23.13l.529-5.226s.622 3.64 1.213 4.23c.31-.093 1.4-.467 1.4-.467c.621-1.617 1.212-6.53 1.212-6.53s.529 4.945 1.058 6.033c.342-.062 1.68-.186 1.68-.186c.497-1.276 1.025-7.372 1.025-7.372s.654 6.065 1.12 7.371c.373.031 1.586.218 1.586.218c.56-1.213 1.182-6.065 1.182-6.065s.56 5.536 1.089 6.594c.435.093 1.368.435 1.368.435c.684-.809 1.275-4.136 1.275-4.136l.404 5.131s-6.515 2.27-7.915 11.228c-1.26-8.91-8.226-11.259-8.226-11.259Z"/><circle cx="24" cy="24" r="21.5" fill="none" stroke="currentColor" stroke-linecap="round" stroke-linejoin="round"/><path fill="none" stroke="currentColor" stroke-linecap="round" stroke-linejoin="round" d="M36.019 41.748L34.757 31.36c-3.953 10.051-6.392 12.154-10.472 12.154c-7.15 0-10.472-7.15-10.472-19.514S17.135 4.486 24.285 4.486c4.08 0 6.519 2.103 10.472 12.154l1.262-10.388"/></svg>