<svg xmlns="http://www.w3.org/2000/svg" width="1em" height="1em" viewBox="0 0 48 48"><path fill="none" stroke="currentColor" stroke-linecap="round" stroke-linejoin="round" d="M29 7.435c1.493-2.056-1.385-4.146-2.878-2.09c-3.62 5.848-4.722 6.932-3.489 7.828c1.233.896 1.924-.486 6.367-5.738M16.606 24.497c1.493-2.056-1.385-4.146-2.878-2.09c-3.62 5.849-4.722 6.933-3.489 7.829c1.234.896 1.924-.487 6.367-5.739m10.425 17.097c0 2.541 3.557 2.541 3.557 0c-.508-6.86-.254-8.384-1.778-8.384s-1.27 1.524-1.779 8.384m0-21.088c0 2.541 3.557 2.541 3.557 0c-.508-6.86-.254-8.384-1.778-8.384s-1.27 1.524-1.779 8.384m13.34 4.682c2.418.781 3.511-2.604 1.093-3.385c-6.684-1.625-8.056-2.335-8.525-.884c-.468 1.45 1.06 1.677 7.432 4.27zm-20.068-6.482c2.418.781 3.511-2.604 1.094-3.385c-6.684-1.625-8.057-2.335-8.526-.884c-.468 1.45 1.06 1.677 7.432 4.27M7.55 33.794c-2.416.786-1.317 4.169 1.1 3.383c6.366-2.604 7.895-2.833 7.424-4.283c-.472-1.45-1.843-.737-8.524.9m20.055-6.518c-2.416.785-1.317 4.168 1.1 3.383c6.367-2.604 7.895-2.833 7.424-4.283s-1.842-.737-8.524.9M8.475 12.967c-1.492-2.056-4.371.033-2.879 2.09c4.44 5.253 5.13 6.636 6.364 5.741c1.233-.895.132-1.98-3.485-7.83M20.86 30.036c-1.492-2.056-4.37.033-2.879 2.09c4.44 5.253 5.13 6.636 6.364 5.74c1.234-.894.133-1.98-3.485-7.83"/></svg>