<svg xmlns="http://www.w3.org/2000/svg" width="1em" height="1em" viewBox="0 0 48 48"><path fill="none" stroke="currentColor" stroke-linecap="round" stroke-linejoin="round" d="M42.5 40.94c-3.683-7.732-2.81-14.744-2.315-25.618c.269-5.93-6.777-7.55-10.469 5.114m-2.556-.627c3.097-12.554-3.01-15.598-5.74-10.18c-4.954 9.827-9.049 15.75-15.92 20.6"/><path fill="none" stroke="currentColor" stroke-linecap="round" stroke-linejoin="round" d="M37.628 17.783c-2.129 6.24-1.557 12.79-.917 19.345m-.516-21.13c-2.608 4.76-3.094 10.683-3.777 16.499m1.592-16.451c-1.863 3.125-2.871 6.837-3.715 10.662m-4.438-12.93c-.353 3.984-.779 7.686-2.605 10.903m.676-12.109C23.35 18.216 21.08 23.29 18.62 28.3m3.089-15.293c-1.814 6.446-5.28 11.96-9.359 17.126"/></svg>