<svg xmlns="http://www.w3.org/2000/svg" width="1em" height="1em" viewBox="0 0 48 48"><path fill="none" stroke="currentColor" stroke-linecap="round" stroke-linejoin="round" d="M8.5 22.588v-6.87l3.478 6.957l3.479-6.957v6.957m-3.395 2.601h2.261m-1.681 1.794h1.328m1.886 1.572h2.26m-3.922 3.479l2.658-6.957h3.478m-9.891.118h.188m13.476 4.456h-3.13m-.783 2.347l2.348-6.956l2.348 6.956m1.698-.585c.435.521.957.782 1.74.782h1.043c.956 0 1.739-.783 1.739-1.74h0c0-.956-.783-1.738-1.74-1.738h-1.13a1.745 1.745 0 0 1-1.739-1.74h0c0-.956.783-1.739 1.74-1.739h1.043c.782 0 1.304.174 1.739.783m1.402-.917h4.522m-2.261 6.957v-6.957m-12.218-9.473h4.521m-2.26 6.957v-6.957m3.92 6.957v-6.957h2.26c1.305 0 2.349 1.044 2.349 2.348s-1.044 2.348-2.348 2.348h-2.261m2.261 0l2.261 2.261m3.985 0a2.245 2.245 0 0 1-2.26-2.261v-2.348c0-1.304 1.043-2.348 2.26-2.348h0a2.338 2.338 0 0 1 2.348 2.348v2.26a2.338 2.338 0 0 1-2.348 2.349m-19.784-3.479h2.261m1.217 3.479h-3.478v-6.957h3.478"/><path fill="none" stroke="currentColor" stroke-linecap="round" stroke-linejoin="round" d="M40.5 5.5h-33a2 2 0 0 0-2 2v33a2 2 0 0 0 2 2h33a2 2 0 0 0 2-2v-33a2 2 0 0 0-2-2"/></svg>