<svg xmlns="http://www.w3.org/2000/svg" width="1em" height="1em" viewBox="0 0 48 48"><path fill="none" stroke="currentColor" stroke-linecap="round" stroke-linejoin="round" d="M40.838 17.352a3.03 3.03 0 1 1-4.893-3.574a3.03 3.03 0 0 1 4.893 3.574m-17.116 18.3L36.605 18.01m3.574-4.893l1.699-2.326M21.27 23.503h4.848m-3.636-2.827h2.424m-3.636 8.483h4.848m-3.636-2.828h2.424m-3.636-8.483h4.848m-3.636-2.828h2.424m8.584 2.367l-1.918-5.397c-1.985-4.567-3.69-7.49-7.826-7.49s-6.687 2.854-7.93 7.49L6.123 39.258V43.5h35.146v-4.242L35.81 23.911m-2.818 3.853l2.821 7.858H11.576l8.483-23.632h7.272l3.327 9.27"/></svg>