<svg xmlns="http://www.w3.org/2000/svg" width="1em" height="1em" viewBox="0 0 48 48"><path fill="none" stroke="currentColor" stroke-linecap="round" stroke-linejoin="round" d="M16.233 4.5c-2.177 2.686 4.047 6 8.23 8.602c2.69 1.674 10.282 5.909 8.669 12.09a.112.112 0 0 0 .04.118c1.044.787 1.856 2.183 2.121 2.484c.27.306.122.558-.577.901c-.577.284-.823 0-.636.945c.328.769-.35.538-.35.797c0 .36.262.918-.442 1.165c-.704.248.288 1.482-.772 2.107c-1.06.625-5.638-.8-6.25 1.534c-.306 1.17 7.073 4.296 5.838 6.74c-1.235 2.443-4.808 1.202-4.808 1.202"/><path fill="none" stroke="currentColor" stroke-linecap="round" stroke-linejoin="round" d="M16.848 11.486c-.78 3.555 3.016 5.008 5.386 6.483c2.359 1.468 7.023 3.3 5.225 7.253a.08.08 0 0 0 .023.096c.731.555 1.299 1.531 1.485 1.742c.19.216.086.394-.406.635c-.407.2-.58 0-.448.665c.23.541-.246.378-.246.56c0 .255.184.647-.312.821c-.496.174.203 1.044-.543 1.484c-1.348.794-3.222.438-3.96.278c-5.407-1.169-5.163 3.75-10.472.516"/></svg>