<svg xmlns="http://www.w3.org/2000/svg" width="1em" height="1em" viewBox="0 0 48 48"><g fill="none" stroke="currentColor" stroke-linecap="round" stroke-linejoin="round"><path d="m8.612 9.582l.67 5.524c4.008-1.167 8.334-1.83 12.4-2.278l-1.598 6.692C.49 24.088 2.946 39.03 13.942 40.407c2.05.257 5.225-.966 6.4-2.657c2.579-3.715 2.859-9.019 4.099-13.366c2.583.143 4.654.473 7.234 1.613c-.414 4.532-2.615 8.387-6.358 10.76l4.487 2.886c4.347-2.731 5.996-7.092 6.712-11.842c1.966.508 3.107 1.101 5.094 2.376l.89-5.367c-1.908-.856-3.679-1.71-5.54-2.472c.088-3.463-.072-6.663-.477-10.155l-5.24.216c.761 2.963.899 5.79.958 8.82c-2.35-.895-4.877-1.259-7.257-1.576l2.073-9.386l-3.403-2.7c-4.934 1.375-9.917 1.87-15.002 2.025"/><path d="m19.304 25.89l-1.776 6.062c-.091.309-.274.797-.436 1.075c-.615 1.059-1.34 1.586-2.32 1.964c-.767.296-2 .075-2.535-.548c-1.59-1.85-.526-3.694 1.054-5.248c1.513-1.488 3.812-2.772 5.526-3.7l.717-.388z"/></g></svg>