<svg xmlns="http://www.w3.org/2000/svg" width="1em" height="1em" viewBox="0 0 48 48"><path fill="none" stroke="currentColor" stroke-linecap="round" stroke-linejoin="round" d="M33.084 18.277C30.181 8.88 22.502 4.5 17.34 4.5s-9.306 7.24-5.81 17.464c-4.106 1.526-5.854 3.387-5.854 6.05c0 5.765 11.519 13.894 20.384 10.772c2.716 4.027 6.15 4.714 7.211 4.714c3.715 0 5.089-6.025 6.181-10.177s2.872-5.436 2.872-8.587s-1.904-6.46-9.24-6.46"/><path fill="none" stroke="currentColor" stroke-linecap="round" stroke-linejoin="round" d="M22.719 21.798c-1.053-.013-1.577.36-1.729 1.254c-.2 1.176.747 2.968 1.196 3.697m-2.974.628c-1.57-1.419-2.551-2.688-.723-3.343m6.792-2.236c1.053-.013 1.577.36 1.729 1.254c.2 1.176-.747 2.968-1.196 3.697m1.842 3.03s-1.87-.587-3.656-.587s-3.655.587-3.655.587m8.443-2.402c1.57-1.419 2.552-2.688.723-3.343"/><circle cx="24" cy="18.958" r=".75" fill="currentColor"/></svg>