<svg xmlns="http://www.w3.org/2000/svg" width="1em" height="1em" viewBox="0 0 48 48"><path fill="none" stroke="currentColor" stroke-linecap="round" stroke-linejoin="round" d="M40.5 5.5h-33a2 2 0 0 0-2 2v33a2 2 0 0 0 2 2h33a2 2 0 0 0 2-2v-33a2 2 0 0 0-2-2"/><circle cx="24" cy="24" r="12" fill="none" stroke="currentColor" stroke-linecap="round" stroke-linejoin="round"/><path fill="none" stroke="currentColor" stroke-linecap="round" stroke-linejoin="round" d="M24 36v6.5M12 24h24m-21.079 7.846l.537.06a78.002 78.002 0 0 0 17.084-.001l.533-.059m.004-15.692l-.537-.06a78.002 78.002 0 0 0-17.084.001l-.533.059"/></svg>