<svg xmlns="http://www.w3.org/2000/svg" width="1em" height="1em" viewBox="0 0 48 48"><path fill="none" stroke="currentColor" stroke-linecap="round" stroke-linejoin="round" d="M40.5 5.5h-33a2 2 0 0 0-2 2v33a2 2 0 0 0 2 2h33a2 2 0 0 0 2-2v-33a2 2 0 0 0-2-2M22.03 18.956h6.683m-3.279 10.088V18.956"/><path fill="none" stroke="currentColor" stroke-linecap="round" stroke-linejoin="round" d="M9.681 25.009a2.522 2.522 0 0 1 5.044 0v4.035m-5.044-6.557v6.557m5.044-4.035a2.522 2.522 0 1 1 5.044 0v4.035m11.867-10.088h6.683m-3.278 10.088V18.956"/></svg>