<svg xmlns="http://www.w3.org/2000/svg" width="1em" height="1em" viewBox="0 0 48 48"><path fill="none" stroke="currentColor" stroke-linecap="round" stroke-linejoin="round" d="M39.754 15.959v4.958l3.212 3.092h.534v-5.454l-2.795-2.795c-.34-.339-.95-.338-.95.199zm-6.296 1.408L43.5 27.408l-.001 5.17h-1.674l-9.087-9.13l-9.088 9.13h-1.674v-5.17l10.041-10.041s.392-.414.72-.414c.329 0 .72.414.72.414zM8.246 32.04v-4.958L5.034 23.99H4.5v5.454l2.795 2.795c.34.339.95.338.95-.199zm6.296-1.408L4.5 20.592l.001-5.17h1.674l9.087 9.13l9.088-9.13h1.674v5.17L15.983 30.633s-.392.414-.72.414c-.329 0-.72-.414-.72-.414z"/></svg>