<svg xmlns="http://www.w3.org/2000/svg" width="1em" height="1em" viewBox="0 0 48 48"><path fill="none" stroke="currentColor" stroke-linecap="round" stroke-linejoin="round" d="M39.77 33.324v3.729m-1.614-2.797l3.229 1.865m-3.229 0l3.229-1.865"/><circle cx="39.77" cy="35.189" r="3.729" fill="none" stroke="currentColor" stroke-linecap="round" stroke-linejoin="round"/><path fill="none" stroke="currentColor" stroke-linecap="round" stroke-linejoin="round" d="M19.418 24H4.5V9.082l7.459 7.459l7.459-7.459z"/><circle cx="26.877" cy="16.541" r="7.459" fill="none" stroke="currentColor" stroke-linecap="round" stroke-linejoin="round"/><circle cx="26.877" cy="31.459" r="7.459" fill="none" stroke="currentColor" stroke-linecap="round" stroke-linejoin="round"/><path fill="none" stroke="currentColor" stroke-linecap="round" stroke-linejoin="round" d="M19.418 31.46a7.46 7.46 0 1 1-14.918 0h7.46V24h7.458z"/><path fill="none" stroke="currentColor" stroke-linecap="round" stroke-linejoin="round" d="M7.915 37.73a30.504 30.504 0 0 1 11.506-7.132c.019-.01.028-.01.047-.018a30.452 30.452 0 0 1 9.846-1.623a30.3 30.3 0 0 1 4.717.364"/><path fill="none" stroke="currentColor" stroke-linecap="round" stroke-linejoin="round" d="M9.42 38.423a24.57 24.57 0 0 1 9.464-5.414c.015-.007.023-.007.038-.014c2.514-.76 5.2-1.025 7.972-1.025c2.337 0 4.502.423 7.257 1.147"/></svg>