<svg xmlns="http://www.w3.org/2000/svg" width="1em" height="1em" viewBox="0 0 48 48"><path fill="none" stroke="currentColor" stroke-linecap="round" stroke-linejoin="round" d="M24 38.144c-6.516-2.798-10.771-8.18-11.52-14.684a74.723 74.723 0 0 1-.067-9.07c3.525-.3 7.791-1.197 11.587-3.977c3.803 2.783 8.07 3.68 11.587 3.979c.161 3.04.138 6.069-.068 9.068c-.747 6.504-5.003 11.886-11.519 14.684"/><path fill="none" stroke="currentColor" stroke-linecap="round" stroke-linejoin="round" d="M24 43.5c9.043-3.117 15.489-10.363 16.5-19.589c.28-4.005.257-8.025-.071-12.027a2.541 2.541 0 0 0-2.468-2.366c-4.091-.126-8.846-.808-12.52-4.427a2.052 2.052 0 0 0-2.881 0c-3.675 3.619-8.43 4.301-12.52 4.427a2.541 2.541 0 0 0-2.468 2.366A79.362 79.362 0 0 0 7.5 23.911C8.512 33.137 14.957 40.383 24 43.5m0-33.087v-5.83m0 33.561V43.5m11.52-20.04h4.98"/></svg>