<svg xmlns="http://www.w3.org/2000/svg" width="1em" height="1em" viewBox="0 0 48 48"><path fill="none" stroke="currentColor" stroke-linecap="round" stroke-linejoin="round" d="M22.988 5.604c.486-.238 1.003-.42 1.52-.604c.502.182 1.012.36 1.49.592c5.364 2.696 10.71 5.42 16.077 8.107c.5.29.95.782.915 1.346c.014 5.542.01 11.084.004 16.627c.063.826-.5 1.574-1.323 1.913c-4.931 2.473-9.869 4.934-14.8 7.405c-.921.457-1.854 1.302-3.003.908c-5.545-2.875-11.198-5.605-16.771-8.445a1.827 1.827 0 0 1-1.072-1.778C6 26.123 6.039 20.57 6 15.02c.032-.911 1.027-1.428 1.833-1.782C12.9 10.718 17.936 8.15 22.99 5.604Zm-10.737 9.641c1.323.683 2.671 1.328 3.98 2.032c4.152-1.988 8.196-4.164 12.345-6.165c-1.366-.67-2.71-1.368-4.072-2.041c-4.089 2.047-8.16 4.13-12.253 6.174M32.7 13.216c-4.03 2.051-8.07 4.09-12.118 6.116c1.17.867 2.62 1.38 3.911 2.088c4.1-2.038 8.193-4.086 12.247-6.193c-1.359-.655-2.682-1.356-4.04-2.01m-22.572 5.186c.003 4.117 0 8.238 0 12.355c4.103 2.07 8.22 4.115 12.33 6.175c.003-4.083-.035-8.163.017-12.246c-4.065-2.17-8.248-4.162-12.347-6.285m16.485 6.162c-.084 4.117-.101 8.244.01 12.362c4.062-2.098 8.186-4.096 12.264-6.169c0-4.12-.01-8.244.004-12.365c-4.093 2.057-8.157 4.158-12.278 6.172"/></svg>