<svg xmlns="http://www.w3.org/2000/svg" width="1em" height="1em" viewBox="0 0 48 48"><defs><path id="arcticonsMtbBanking0" fill="none" stroke="currentColor" d="M40.5 5.5h-33a2 2 0 0 0-2 2v33a2 2 0 0 0 2 2h33a2 2 0 0 0 2-2v-33a2 2 0 0 0-2-2"/></defs><use href="#arcticonsMtbBanking0" stroke-linecap="round" stroke-linejoin="round"/><path fill="none" stroke="currentColor" stroke-linecap="round" stroke-linejoin="round" d="M5.5 27.71L24 33.542l18.5-5.832m-14.425-6.168L16.804 15.43l-8.916 5.439m11.874.982l5.789 2.439m-6.995.315l5.79 2.439m-6.995.316l5.789 2.439"/><use href="#arcticonsMtbBanking0" stroke-linecap="round" stroke-linejoin="round"/><path fill="none" stroke="currentColor" stroke-linecap="round" stroke-linejoin="round" d="m24.892 17.792l5.678-2.797l9.61 6.077"/></svg>