<svg xmlns="http://www.w3.org/2000/svg" width="1em" height="1em" viewBox="0 0 48 48"><path fill="none" stroke="currentColor" stroke-linecap="round" stroke-linejoin="round" d="M8.666 19.425a5.66 5.66 0 0 1-3.243-5.127v-4.67a1 1 0 0 1 1-1h4.735a5.575 5.575 0 0 1 4.738 2.578m3.514-.986c1.03 4.38 1.61 9.07 1.61 13.57c0 2.21-.13 4.41-.38 6.61c-1.2.59-2.28 1.41-3.17 2.41c0-.04-.01-.1-.02-.14c-.31-1.94-1.11-3.77-2.27-5.37m-1.77-2.01c-1.78-1.71-4-3-6.38-3.65"/><path fill="none" stroke="currentColor" stroke-linecap="round" stroke-linejoin="round" d="M18.937 24.87c-.896 1.921-2.773 2.942-4.192 2.281h0c-1.42-.662-1.844-2.756-.947-4.678h0c.896-1.922 2.773-2.943 4.192-2.282c1.42.662 1.843 2.757.947 4.678"/><path fill="currentColor" d="M17.223 23.384a.75.75 0 1 1-1.5 0a.75.75 0 0 1 1.5 0"/><path fill="none" stroke="currentColor" stroke-linecap="round" stroke-linejoin="round" d="M22.884 37.239a37.375 37.375 0 0 1-2.8-3.383s1.14-1.04 3.916-1.047c2.776.007 3.823 1.035 3.917 1.047a37.375 37.375 0 0 1-2.801 3.383a1.52 1.52 0 0 1-2.232 0"/><path fill="none" stroke="currentColor" stroke-linecap="round" stroke-linejoin="round" d="M24 9.885c-3.917 0-8.516.461-12.65 4.151c2.373-.183 3.987.27 3.987.27c-5.76 2.761-9.063 7.442-10.575 12.24a7.282 7.282 0 0 1 3.957-1.389c-2.01 1.06-4.017 3.344-4.219 5.608a15.054 15.054 0 0 1 3.796-1.094a8.189 8.189 0 0 0-3.018 3.158a9.626 9.626 0 0 1 4.431-1.08c5.228 0 7.924 5.195 8.842 7.201c.631 1.382 1.713 2.297 3.144 2.421A3.15 3.15 0 0 0 24 40.37a3.15 3.15 0 0 0 2.305 1.002c1.43-.124 2.513-1.039 3.145-2.42c.917-2.007 3.614-7.203 8.841-7.202c1.542 0 3.062.37 4.43 1.08a8.188 8.188 0 0 0-3.017-3.158c1.308.196 2.584.564 3.796 1.094c-.202-2.264-2.208-4.547-4.219-5.608a7.282 7.282 0 0 1 3.957 1.389c-1.512-4.798-4.814-9.479-10.575-12.24c0 0 1.614-.453 3.988-.27c-4.134-3.69-8.734-4.151-12.65-4.151Z"/><path fill="none" stroke="currentColor" stroke-linecap="round" stroke-linejoin="round" d="M32.104 11.206a5.571 5.571 0 0 1 4.737-2.577h4.736a1 1 0 0 1 1 1v4.669a5.659 5.659 0 0 1-3.243 5.127M32.82 27.3c-1.16 1.6-1.96 3.43-2.27 5.37c-.01.04-.02.1-.02.14c-.89-1-1.97-1.82-3.17-2.41c-.25-2.2-.38-4.4-.38-6.61c0-4.5.58-9.19 1.61-13.57m12.38 11.42c-2.38.65-4.6 1.94-6.38 3.65"/><path fill="none" stroke="currentColor" stroke-linecap="round" stroke-linejoin="round" d="M30.01 20.191c1.42-.661 3.296.36 4.192 2.282h0c.897 1.922.472 4.016-.947 4.678h0c-1.42.662-3.296-.36-4.192-2.281c-.896-1.922-.472-4.017.947-4.679"/><path fill="currentColor" d="M30.777 23.384a.75.75 0 1 1 .75.75a.75.75 0 0 1-.75-.75"/></svg>