<svg xmlns="http://www.w3.org/2000/svg" width="1em" height="1em" viewBox="0 0 48 48"><circle cx="24" cy="24" r="21.5" fill="none" stroke="currentColor" stroke-linecap="round" stroke-linejoin="round"/><path fill="none" stroke="currentColor" stroke-linecap="round" stroke-linejoin="round" d="M2.699 26.927c7.974 0 9.935 13.624 24.965 13.624c7.648 0 10.723-1.852 13.45-3.536"/><path fill="none" stroke="currentColor" stroke-linecap="round" stroke-linejoin="round" d="M3.394 30.152C7.028 28.902 10.28 26.7 15.72 26.7c7.794 0 17.551 7.038 27.451 7.038"/><path fill="none" stroke="currentColor" stroke-linecap="round" stroke-linejoin="round" d="M45.349 26.558C32.472 28.229 15.41 35.704 8.527 38.927M35.54 13.643l-2 8l-2-8l-2 8l-2-8m-11.78 4a2 2 0 1 1 0 4h-3.3v-8h3.3a2 2 0 1 1 0 4m0 0h-3.3m14.093 4h-.676a1.4 1.4 0 0 1-1.132-.577l-2.775-3.814c-.357-.468-.984-1.084-.984-1.998c0-.862.7-1.611 1.674-1.611a1.6 1.6 0 0 1 1.621 1.611c0 .913-.74 1.694-2.106 1.953c-1.524.29-2.477 1.126-2.477 2.504c0 1.115.703 1.932 2.107 1.932c1.846 0 2.933-1.751 4.538-3.903"/></svg>