<svg xmlns="http://www.w3.org/2000/svg" width="1em" height="1em" viewBox="0 0 48 48"><path fill="none" stroke="currentColor" stroke-linecap="round" stroke-linejoin="round" d="M40.5 5.5h-33a2 2 0 0 0-2 2v33a2 2 0 0 0 2 2h33a2 2 0 0 0 2-2v-33a2 2 0 0 0-2-2"/><path fill="none" stroke="currentColor" stroke-linecap="round" stroke-linejoin="round" d="m23.305 17.763l-.345 1.954c-.14.8-.904 1.449-1.703 1.449h0c-.4 0-.734-.162-.95-.424"/><path fill="none" stroke="currentColor" stroke-linecap="round" stroke-linejoin="round" d="m23.726 15.373l-.421 2.39c-.141.8-.904 1.448-1.704 1.448h0c-.8 0-1.333-.649-1.192-1.448l.42-2.39m-7.495 1.448c.14-.8.904-1.448 1.703-1.448h0c.8 0 1.334.648 1.193 1.448l-.421 2.39m-2.22-3.838l-.676 3.838"/><path fill="none" stroke="currentColor" stroke-linecap="round" stroke-linejoin="round" d="M16.23 16.821c.141-.8.904-1.448 1.704-1.448h0c.8 0 1.334.648 1.193 1.448l-.422 2.39m9.903 9.653l-.008.046c-.362 2.053-2.32 3.717-4.372 3.717h0c-2.053 0-3.424-1.664-3.062-3.717l.668-3.787c.362-2.053 2.32-3.717 4.373-3.717h0c2.052 0 3.423 1.664 3.061 3.717l-.008.046m-13.142 1.847c1.55 0 2.584 1.256 2.31 2.806s-1.75 2.805-3.3 2.805H10.5l1.979-11.221h4.628c1.55 0 2.584 1.256 2.31 2.805s-1.75 2.805-3.3 2.805Zm0 0h-4.629m25.435 1.894h-4.971m-1.887 3.717l5.696-11.221L37.5 32.627"/></svg>