<svg xmlns="http://www.w3.org/2000/svg" width="1em" height="1em" viewBox="0 0 48 48"><path fill="none" stroke="currentColor" stroke-linecap="round" stroke-linejoin="round" d="M40.5 42.5a2 2 0 0 0 2-2v-33a2 2 0 0 0-2-2h-33a2 2 0 0 0-2 2v33a2 2 0 0 0 2 2z"/><g fill="none" stroke="currentColor" stroke-linecap="round" stroke-linejoin="round"><path d="M24.45 17v2.7a2 2 0 0 1-3.414 1.414"/><path d="M24.45 13.7V17a2 2 0 1 1-4 0v-3.3m-9.9 5.291V11l4 8l4-7.988V19m-2.7 15.317v.033a2.65 2.65 0 1 1-5.3 0v-2.7A2.65 2.65 0 0 1 13.2 29h0a2.65 2.65 0 0 1 2.65 2.65v.033"/></g><path fill="none" stroke="currentColor" stroke-linecap="round" stroke-linejoin="round" d="M17.75 29h5.3m-2.65 8v-8m4.55 0v5.35a2.65 2.65 0 1 0 5.3 0V29m4.55 0l2.65-3.65h-12.5"/></svg>