<svg xmlns="http://www.w3.org/2000/svg" width="1em" height="1em" viewBox="0 0 48 48"><path fill="none" stroke="currentColor" stroke-linecap="round" stroke-linejoin="round" d="M10.97 22.82H6.5c-.55 0-1-.45-1-1V6.5c0-.55.45-1 1-1h15.32c.55 0 1 .45 1 1v4.47m2.36 2.36V6.5c0-.55.45-1 1-1H41.5c.55 0 1 .45 1 1v15.32c0 .55-.45 1-1 1H30.96m-8.14 8.14V41.5c0 .55-.45 1-1 1H6.5c-.55 0-1-.45-1-1V26.18c0-.55.45-1 1-1h6.83m16.13 0H41.5c.55 0 1 .45 1 1V41.5c0 .55-.45 1-1 1H26.18c-.55 0-1-.45-1-1V29.46m3.814-12.311L17.149 28.994m.515-18.268l5.362 5.363m-7.877-2.848l2.909 2.908m-5.726-.091l5.786 5.787"/><path fill="none" stroke="currentColor" stroke-linecap="round" stroke-linejoin="round" d="M37.917 31.403c-2.364-2.363-6.001-3.341-7.893-5.165c-.76-.734-.7-1.784-.318-2.166l1.864-1.864a1.757 1.757 0 0 0 0-2.484L21.36 9.514a1.757 1.757 0 0 0-2.484 0l-9.361 9.362a1.757 1.757 0 0 0 0 2.484l10.21 10.21a1.757 1.757 0 0 0 2.483 0l1.864-1.864c.382-.382 1.432-.442 2.166.318c1.824 1.892 2.802 5.53 5.165 7.892c1.757 1.758 4.257 1.227 5.999-.515s2.272-4.241.515-5.998"/><circle cx="34.108" cy="34.545" r="1.294" fill="none" stroke="currentColor" stroke-linecap="round" stroke-linejoin="round"/></svg>