<svg xmlns="http://www.w3.org/2000/svg" width="1em" height="1em" viewBox="0 0 48 48"><path fill="none" stroke="currentColor" stroke-linecap="round" stroke-linejoin="round" d="M40.5 5.5h-33a2 2 0 0 0-2 2v33a2 2 0 0 0 2 2h33a2 2 0 0 0 2-2v-33a2 2 0 0 0-2-2"/><path fill="none" stroke="currentColor" stroke-linecap="round" stroke-linejoin="round" d="M8.5 20.748v6.504h3.252m17.608 0v-6.504h2.13c1.203 0 2.18.978 2.18 2.184s-.977 2.185-2.18 2.185h-2.13m2.129 0l2.13 2.134M13.199 24h2.12m1.132 3.252h-3.252v-6.504h3.252m22.335 4.35h-2.882m-.713 2.154l2.154-6.504l2.155 6.504m-12.375-2.154h-2.882m-.714 2.154l2.155-6.504l2.155 6.504M20.69 24a1.626 1.626 0 0 1 0 3.252h-2.684v-6.504h2.684a1.626 1.626 0 0 1 0 3.252m0 0h-2.683"/></svg>