<svg xmlns="http://www.w3.org/2000/svg" width="1em" height="1em" viewBox="0 0 48 48"><path fill="none" stroke="currentColor" stroke-linecap="round" stroke-linejoin="round" d="M32.212 5.28c0 1.951-.713 3.772-2.133 5.458c-1.714 2.004-3.787 3.161-6.036 2.979a6.04 6.04 0 0 1-.045-.74c0-1.872.815-3.876 2.263-5.514c.723-.83 1.642-1.52 2.756-2.07c1.112-.542 2.164-.842 3.154-.893c.029.26.04.521.04.78z"/><path fill="none" stroke="currentColor" stroke-linecap="round" stroke-linejoin="round" d="M28.261 42.69c1.267.513 2.287.78 3.068.807c1.186.05 2.369-.472 3.55-1.57c.753-.657 1.696-1.784 2.825-3.38c1.211-1.704 2.207-3.68 2.987-5.934c.836-2.433 1.255-4.79 1.255-7.072c0-2.613-.565-4.868-1.696-6.757c-.89-1.517-2.072-2.714-3.552-3.593s-2.983-1.404-4.706-1.433c-1.21-.102-2.689.158-4.44.789c-1.852.68-2.945 1.02-3.267 1.02c-.431 0-1.415-.291-2.946-.866c-1.536-.573-2.772-.865-3.714-.865c-1.723.029-3.322.477-4.802 1.355s-2.663 2.076-3.552 3.593c-1.132 1.89-1.696 4.144-1.696 6.757c0 2.282.419 4.639 1.254 7.072c.78 2.254 1.776 4.23 2.988 5.934c1.129 1.596 2.071 2.723 2.825 3.38c1.18 1.098 2.363 1.62 3.55 1.57c.78-.027 1.8-.294 3.067-.807c1.265-.51 2.448-.763 3.55-.763c1.051 0 2.201.253 3.452.763"/><path fill="none" stroke="currentColor" stroke-linecap="round" stroke-linejoin="round" d="M11.817 38.547c10.897.673 21.954-2.821 28.874-5.934M7.68 27.543c12.122-.14 24.037-3.03 33.621-6.421M13.157 38.529l-.657-3.488m3.885 3.375l-.328-1.744m3.556 1.278l-.657-3.488m3.885 3.195l-.328-1.744m3.556 1.136l-.657-3.489m3.843 2.889l-.328-1.745m3.598.813l-.657-3.488m3.962 2.329l-.329-1.745m3.48.583l-.657-3.489"/></svg>