<svg xmlns="http://www.w3.org/2000/svg" width="1em" height="1em" viewBox="0 0 48 48"><g fill="none" stroke="currentColor" stroke-linecap="round" stroke-linejoin="round"><path d="M30.24 19.1c-2.002.008-3.798 1.76-3.798 3.798v16.864c0 1.972 1.807 3.738 3.738 3.738h3.751c2.042 0 3.74-1.754 3.74-3.74V22.733c0-2.02-1.806-3.656-3.75-3.648zm-3.772 5.818h11.2m-11.2 12.752h11.2M30.3 22.003h3.33"/><path d="M32.977 40.438a.988.988 0 1 1 0-.001zm-22.649 2.675v-10.2c0-5.603 4.811-9.095 9.096-9.095s6.151 2.046 7.02 3.03m.212-15.205a7.143 7.143 0 1 1 0-.008z"/></g></svg>