<svg xmlns="http://www.w3.org/2000/svg" width="1em" height="1em" viewBox="0 0 48 48"><path fill="none" stroke="currentColor" stroke-linecap="round" stroke-linejoin="round" d="m22.571 23.965l.276-.893a.734.734 0 0 1 .883-.494l1.056.27m-6.753-9.3a9.848 9.848 0 0 0-3.336 2.045a9.217 9.217 0 0 0-1.63 2.025m4.967-4.07s3.075-7.265 4.213-7.265c.105 0 .213.022.325.064m-4.538 7.201a11.345 11.345 0 0 1 5.817-.53m3.672 1.375a8.575 8.575 0 0 1 2.628 2.538c2.496 3.768 2.362 8.252-.405 11.65m-2.223-14.188c-1.283-3.078-3.42-7.464-4.951-8.046m4.951 8.046a10.189 10.189 0 0 0-3.672-1.374m-10.784 4.6c-3.392 1.82-7.612 3.636-7.566 4.786a.591.591 0 0 0 .014.108m7.552-4.895c-.507.859-.634 2.618-.547 4.428m1.039 5.423c.437.662.956 1.292 1.553 1.874a10.115 10.115 0 0 0 5.565 2.772m-7.118-4.646c-.465-.704-.928-3.105-1.04-5.423m1.04 5.423c-3.985-1.625-7.774-3.778-8.044-4.956m15.162 9.602c2.983.447 6.111-.46 8.387-2.772c.243-.247.47-.501.682-.761m-9.07 3.533c-.12 2.516 1.815 9.602 1.815 9.602m7.255-13.135l12.754 5.01M12.52 22.046s-4.555-.425-7.005.467M22.571 6.347s.106 5.369 1.28 6.672m-8.031 9.495c.925 1.974 1.247 1.682 2.141 1.334c1.325-.515.77-.946.19-2.169c-.88-1.852-1.412-1.774-2.17-1.43c-.757.344-.868.928-.161 2.264m9.272-4.089c-.376-.702-.85-1.494-.155-1.983c1.08-.894 1.212-.105 1.993.951c.882 1.194 1.303 1.476.273 2.243c-.92.685-1.539-.142-2.111-1.21"/></svg>