<svg xmlns="http://www.w3.org/2000/svg" width="1em" height="1em" viewBox="0 0 48 48"><path fill="none" stroke="currentColor" stroke-linecap="round" stroke-linejoin="round" d="M16.317 10.88c-.605-.384-1.362.21-1.129.885a20.442 20.442 0 0 1 1.188 6.88c0 6.637-3.144 12.54-8.022 16.289a.767.767 0 0 0-.187 1.024a20.515 20.515 0 0 0 9.233 7.487a.764.764 0 0 0 .769-.117c4.564-3.656 7.497-9.267 7.497-15.566c0-7.114-3.737-13.354-9.349-16.882m23.426-.966a20.22 20.22 0 0 0-9.466-5.391a.765.765 0 0 0-.757.233a20.37 20.37 0 0 0-4.773 9.477a.745.745 0 0 0 .116.582a22.992 22.992 0 0 1 3.807 15.88a.763.763 0 0 0 .152.571a20.629 20.629 0 0 0 6.962 5.6c.675.338 1.374-.43.978-1.082a20.473 20.473 0 0 1-2.864-10.467c0-5.577 2.224-10.63 5.821-14.344a.742.742 0 0 0 .024-1.06Z"/></svg>