<svg xmlns="http://www.w3.org/2000/svg" width="1em" height="1em" viewBox="0 0 48 48"><path fill="none" stroke="currentColor" stroke-linecap="round" stroke-linejoin="round" d="M16.142 10.88c-.606-.385-1.363.209-1.13.884a20.443 20.443 0 0 1 1.188 6.881c0 6.637-3.144 12.54-8.022 16.289a.767.767 0 0 0-.187 1.024a20.515 20.515 0 0 0 9.233 7.487a.764.764 0 0 0 .769-.117c4.564-3.656 7.498-9.268 7.498-15.567c0-7.113-3.738-13.354-9.35-16.882"/><path fill="none" stroke="currentColor" stroke-linecap="round" stroke-linejoin="round" d="M28.931 31.184a19.58 19.58 0 0 1-4.252-10.495c-.174-1.9-.178-4.136.243-6.457c.654-3.601 2.422-6.846 4.775-9.478c.187-.21.484-.3.756-.232a20.22 20.22 0 0 1 9.466 5.39a.742.742 0 0 1-.024 1.06c-3.598 3.714-5.821 8.768-5.821 14.344c0 3.815 1.045 7.397 2.857 10.456c.387.653-.292 1.43-.972 1.094c-2.712-1.34-5.07-3.274-6.962-5.6a21.802 21.802 0 0 1-.066-.082"/></svg>