<svg xmlns="http://www.w3.org/2000/svg" width="1em" height="1em" viewBox="0 0 48 48"><path fill="none" stroke="currentColor" stroke-linecap="round" stroke-linejoin="round" d="M11.68 20.029v7.942m-8.18 0v-7.942l5.261 7.942v-7.942m5.937 7.048c.496.596 1.092.894 1.985.894h1.192a1.991 1.991 0 0 0 1.985-1.985h0A1.991 1.991 0 0 0 17.875 24h-1.29a1.991 1.991 0 0 1-1.986-1.985h0c0-1.092.893-1.986 1.985-1.986h1.191c.894 0 1.49.199 1.986.894m15.665 4.368h-3.574m-.893 2.68l2.68-7.942l2.68 7.942m2.919 0v-7.942l5.261 7.942v-7.942m-21.621 7.048c.496.596 1.092.894 1.985.894h1.192a1.991 1.991 0 0 0 1.985-1.985h0A1.991 1.991 0 0 0 26.055 24h-1.29a1.991 1.991 0 0 1-1.986-1.985h0c0-1.092.893-1.986 1.985-1.986h1.191c.894 0 1.49.199 1.986.894M3.5 17.05l6.076-.003a15.712 15.712 0 0 1 28.85.001l6.074.003m-41 13.898l6.076.004a15.712 15.712 0 0 0 28.85-.001l6.074-.003"/></svg>