<svg xmlns="http://www.w3.org/2000/svg" width="1em" height="1em" viewBox="0 0 48 48"><path fill="none" stroke="currentColor" stroke-linecap="round" stroke-linejoin="round" d="M24.12 33.476c1.302 1.792 2.896 5.338 9.318 5.527H43.5l-6.177-8.225c-2.716-3.918-4.413-5.122-6.667-5.287l-9.071 10.952c-2.27 2.85-6.275 2.76-9.294 2.76H4.5l6.522-8.67c2.972-4.574 6.137-5.042 10.518-5.042h9.116m0-2.982H21.54c-4.381 0-7.546-.468-10.518-5.042L4.5 8.797h7.79c3.02 0 7.024-.09 9.295 2.76zc2.255-.165 3.952-1.37 6.668-5.287L43.5 8.997H33.438c-6.422.189-8.016 3.735-9.318 5.527"/></svg>