<svg xmlns="http://www.w3.org/2000/svg" width="1em" height="1em" viewBox="0 0 48 48"><path fill="none" stroke="currentColor" stroke-linecap="round" stroke-linejoin="round" d="m12.519 23.188l.53-2.465l-7.549-4.66l.028 7.31zm-.345 3.445l-6.656.014l.028 6.535l7.017-3.88zm-1.612 6.419l1.967 1.302l5.222-8.875l2.26 2.883l4.612-8.76l9.47 16.253l2.522-2.845l5.885 8.11l-36.979.008zm31.722.296l-6.53-4.041l.865-3.228l5.677-.007zm-.01-10.46l-6.595.122l-.776-2.897l7.378-4.204zm.008-10.85l-9.02 5.378l-2.273-2.273l4.775-8.27l6.54.055zM28.46 13.62l-3.427.15l.094-6.878h7.01c.242.453-2.776 5.168-3.678 6.729m-6.274-6.73l-.075 6.56l-2.78.745L14.66 6.9zm-5.51 8.809l-1.968 1.968l-9.085-5.245l-.019-5.55l5.712.018z"/></svg>