<svg xmlns="http://www.w3.org/2000/svg" width="1em" height="1em" viewBox="0 0 48 48"><path fill="none" stroke="currentColor" stroke-linecap="round" stroke-linejoin="round" d="M28.963 39.837H8.176a2 2 0 0 1-2-2h0V10.212a2 2 0 0 1 2-2h2.955m5.288 0h11.64m4.542 0h3.201a2 2 0 0 1 2 2V28.83"/><path fill="none" stroke="currentColor" stroke-linecap="round" stroke-linejoin="round" d="M18.826 19.291h6.324v6.324h-6.324zm9.627 0h6.324v6.324h-6.324zm-19.252 0h6.324v6.324H9.201zm9.625 9.838h6.324v6.324h-6.324zm-9.625 0h6.324v6.324H9.201zM12.43 5.5h2.403a1 1 0 0 1 1 1h0v5.043a1 1 0 0 1-1 1H12.43a1 1 0 0 1-1-1V6.5a1 1 0 0 1 1-1m16.714 0h2.402a1 1 0 0 1 1 1v5.043a1 1 0 0 1-1 1h-2.402a1 1 0 0 1-1-1h0V6.5a1 1 0 0 1 1-1"/><circle cx="34.776" cy="35.452" r="7.048" fill="none" stroke="currentColor" stroke-linecap="round" stroke-linejoin="round"/><path fill="none" stroke="currentColor" stroke-linecap="round" stroke-linejoin="round" d="m37.81 39.977l-3.121-2.202l-3.279 1.96l1.13-3.65l-2.878-2.512l3.82-.053l1.5-3.514l1.23 3.617l3.806.34l-3.06 2.29Z"/><path fill="none" stroke="currentColor" stroke-miterlimit="5.571" d="M6.404 16.24h31.405"/></svg>