<svg xmlns="http://www.w3.org/2000/svg" width="1em" height="1em" viewBox="0 0 48 48"><path fill="none" stroke="currentColor" stroke-linecap="round" stroke-linejoin="round" d="M28.692 9.686a14.888 14.888 0 0 0-4.697-.75c-8.321 0-15.06 6.748-15.06 15.07c0 8.31 6.739 15.058 15.06 15.058s15.059-6.748 15.059-15.059c0-.979-.094-1.926-.271-2.853l4.874-5.863a21.363 21.363 0 0 1 1.843 8.716c0 11.872-9.633 21.495-21.505 21.495S2.5 35.877 2.5 24.005C2.5 12.123 12.123 2.5 23.995 2.5c3.114 0 6.082.667 8.758 1.864z"/><path fill="none" stroke="currentColor" stroke-linecap="round" stroke-linejoin="round" d="M37.029 6.897L23.819 23.69l-5.61-5.61l-3.966 4.11l10.045 10.027l16.659-21.445l.002.007v-.01a21.546 21.546 0 0 0-3.926-3.864z"/></svg>