<svg xmlns="http://www.w3.org/2000/svg" width="1em" height="1em" viewBox="0 0 48 48"><path fill="none" stroke="currentColor" stroke-linecap="round" stroke-linejoin="round" d="M5.5 21.423h37m-37 5.572h37m-37 5.572h37m-37 5.571h37m-37-21.066c1.077.727 2.144 1.454 2.786 1.2c.652-.265.878-1.512 1.596-1.597c.718-.075 1.926 1.01 2.88 1.115c.945.104 1.634-.765 2.522-.926c.897-.16 2.002.387 2.852.529c.859.142 1.463-.123 2.172-.283c.698-.151 1.492-.208 2.011-.151c.51.047.746.198 1.247.226c.51.029 1.284-.066 2.058-.141s1.55-.123 2.23-.161c.67-.038 1.246-.075 2.001-.01c.756.067 1.681.227 2.304.199c.624-.028.935-.236 1.577-.264c.643-.029 1.606.132 2.314.056c.699-.085 1.133-.415 1.71-.462c.566-.057 1.274.16 1.86.283c.585.113 1.039.132 1.501-.02c.463-.14.926-.462 1.38-.783m-.001-1.22h-37"/><path fill="none" stroke="currentColor" stroke-linecap="round" stroke-linejoin="round" d="M40.5 5.5h-33a2 2 0 0 0-2 2v33a2 2 0 0 0 2 2h33a2 2 0 0 0 2-2v-33a2 2 0 0 0-2-2"/></svg>