<svg xmlns="http://www.w3.org/2000/svg" width="1em" height="1em" viewBox="0 0 48 48"><path fill="none" stroke="currentColor" stroke-linecap="round" stroke-linejoin="round" d="M40.5 5.5h-33a2 2 0 0 0-2 2v33a2 2 0 0 0 2 2h33a2 2 0 0 0 2-2v-33a2 2 0 0 0-2-2"/><circle cx="15.25" cy="32.75" r=".75" fill="currentColor"/><circle cx="15.25" cy="32.75" r=".75" fill="currentColor"/><circle cx="17.75" cy="32.75" r=".75" fill="currentColor"/><circle cx="15.25" cy="30.25" r=".75" fill="currentColor"/><circle cx="17.75" cy="30.25" r=".75" fill="currentColor"/><circle cx="15.25" cy="27.75" r=".75" fill="currentColor"/><circle cx="15.25" cy="27.75" r=".75" fill="currentColor"/><circle cx="17.75" cy="27.75" r=".75" fill="currentColor"/><circle cx="15.25" cy="25.25" r=".75" fill="currentColor"/><circle cx="17.75" cy="25.25" r=".75" fill="currentColor"/><circle cx="15.25" cy="22.75" r=".75" fill="currentColor"/><circle cx="15.25" cy="22.75" r=".75" fill="currentColor"/><circle cx="17.75" cy="22.75" r=".75" fill="currentColor"/><circle cx="15.25" cy="20.25" r=".75" fill="currentColor"/><circle cx="17.75" cy="20.25" r=".75" fill="currentColor"/><circle cx="15.25" cy="17.75" r=".75" fill="currentColor"/><circle cx="15.25" cy="17.75" r=".75" fill="currentColor"/><circle cx="17.75" cy="17.75" r=".75" fill="currentColor"/><circle cx="20.25" cy="20.25" r=".75" fill="currentColor"/><circle cx="22.75" cy="20.25" r=".75" fill="currentColor"/><circle cx="20.25" cy="17.75" r=".75" fill="currentColor"/><circle cx="20.25" cy="17.75" r=".75" fill="currentColor"/><circle cx="22.75" cy="22.75" r=".75" fill="currentColor"/><circle cx="25.25" cy="22.75" r=".75" fill="currentColor"/><circle cx="25.25" cy="25.25" r=".75" fill="currentColor"/><circle cx="27.75" cy="25.25" r=".75" fill="currentColor"/><circle cx="27.75" cy="27.75" r=".75" fill="currentColor"/><circle cx="15.25" cy="15.25" r=".75" fill="currentColor"/><circle cx="17.75" cy="15.25" r=".75" fill="currentColor"/><circle cx="30.25" cy="32.75" r=".75" fill="currentColor"/><circle cx="30.25" cy="32.75" r=".75" fill="currentColor"/><circle cx="32.75" cy="32.75" r=".75" fill="currentColor"/><circle cx="30.25" cy="30.25" r=".75" fill="currentColor"/><circle cx="32.75" cy="30.25" r=".75" fill="currentColor"/><circle cx="30.25" cy="27.75" r=".75" fill="currentColor"/><circle cx="30.25" cy="27.75" r=".75" fill="currentColor"/><circle cx="32.75" cy="27.75" r=".75" fill="currentColor"/><circle cx="30.25" cy="25.25" r=".75" fill="currentColor"/><circle cx="32.75" cy="25.25" r=".75" fill="currentColor"/><circle cx="30.25" cy="22.75" r=".75" fill="currentColor"/><circle cx="30.25" cy="22.75" r=".75" fill="currentColor"/><circle cx="32.75" cy="22.75" r=".75" fill="currentColor"/><circle cx="30.25" cy="20.25" r=".75" fill="currentColor"/><circle cx="32.75" cy="20.25" r=".75" fill="currentColor"/><circle cx="30.25" cy="17.75" r=".75" fill="currentColor"/><circle cx="30.25" cy="17.75" r=".75" fill="currentColor"/><circle cx="32.75" cy="17.75" r=".75" fill="currentColor"/><circle cx="30.25" cy="15.25" r=".75" fill="currentColor"/><circle cx="32.75" cy="15.25" r=".75" fill="currentColor"/></svg>