<svg xmlns="http://www.w3.org/2000/svg" width="1em" height="1em" viewBox="0 0 48 48"><circle cx="35.679" cy="37.443" r="2.811" fill="none" stroke="currentColor" stroke-linecap="round" stroke-linejoin="round"/><circle cx="10.884" cy="9.411" r="1.249" fill="none" stroke="currentColor" stroke-linecap="round" stroke-linejoin="round"/><path fill="none" stroke="currentColor" stroke-linecap="round" stroke-linejoin="round" d="M9.01 26.267h29.98a2.5 2.5 0 0 1 2.498 2.499v11.237A2.498 2.498 0 0 1 38.99 42.5H9.01a2.5 2.5 0 0 1-2.499-2.498V28.765a2.498 2.498 0 0 1 2.497-2.498M9.01 5.5h29.98a2.5 2.5 0 0 1 2.498 2.498v11.237a2.498 2.498 0 0 1-2.497 2.498H9.01a2.5 2.5 0 0 1-2.499-2.499V7.997A2.498 2.498 0 0 1 9.01 5.5"/><circle cx="10.922" cy="30.498" r="1.249" fill="none" stroke="currentColor" stroke-linecap="round" stroke-linejoin="round"/><circle cx="35.679" cy="16.378" r="2.811" fill="none" stroke="currentColor" stroke-linecap="round" stroke-linejoin="round"/><path fill="none" stroke="currentColor" stroke-linecap="round" stroke-linejoin="round" d="M15.447 9.41h10.45m5.809 0h6.784m-6.784 21.088h6.784m-23.16 0h10.626M9.673 37.602H20.3M9.673 16.378H20.3"/></svg>