<svg xmlns="http://www.w3.org/2000/svg" width="1em" height="1em" viewBox="0 0 48 48"><path fill="none" stroke="currentColor" stroke-linecap="round" stroke-linejoin="round" d="M22.52 17.83H5.744a14.79 14.79 0 0 0-1.241 4.386H22.52m0 8.066H5.795A14.79 14.79 0 0 1 4.5 25.764h18.02m7.415 8.396a14.791 14.791 0 0 1-21.39.113c4.176-.008 9.8-.031 13.975-.057m5.551-.05l1.864-.006m3.655-6.796a14.787 14.787 0 0 1-1.012 2.918h-4.506M8.435 13.841a14.791 14.791 0 0 1 21.52.02z"/><path fill="none" stroke="currentColor" stroke-linecap="round" stroke-linejoin="round" d="M22.52 35.032V13.193l15.668 12.123V13.193H43.5v21.84L28.07 23.094v11.937z"/><path fill="none" stroke="currentColor" stroke-linecap="round" stroke-linejoin="round" d="M28.513 17.83c3.371.008.75-.02 4.121.012c.635 1.386 1.03 2.6 1.214 4.115"/></svg>