<svg xmlns="http://www.w3.org/2000/svg" width="1em" height="1em" viewBox="0 0 48 48"><path fill="none" stroke="currentColor" stroke-linecap="round" stroke-linejoin="round" d="M12.748 16.952v-5.609h.95a2.804 2.804 0 0 1 2.805 2.804h0a2.804 2.804 0 0 1-2.804 2.805zm-5.1-.011v-5.587h1.88a1.875 1.875 0 0 1 .001 3.75H7.65m10.199-3.738v5.586m0-2.793h1.826m-1.826-2.793h2.799"/><path fill="none" stroke="currentColor" stroke-linecap="round" stroke-linejoin="round" d="M5.5 7.229v13.566a2 2 0 0 0 2 2h13.295a2 2 0 0 0 2-2V7.5a2 2 0 0 0-2-2H7.229A1.73 1.73 0 0 0 5.5 7.23z"/><rect width="17.295" height="17.295" x="25.205" y="5.5" fill="none" stroke="currentColor" stroke-linecap="round" stroke-linejoin="round" rx="2" ry="2"/><rect width="17.295" height="17.295" x="25.205" y="25.205" fill="none" stroke="currentColor" stroke-linecap="round" stroke-linejoin="round" rx="2" ry="2"/><path fill="none" stroke="currentColor" stroke-linecap="round" stroke-linejoin="round" d="M30.742 18.471V8.959h3.2a3.2 3.2 0 0 1 0 6.39h-3.2m6.293 13.748l-3.183 4.756l3.183 4.756m-6.364-9.512l3.181 4.756l-3.181 4.756m-10.903-9.512l-2.81 9.511m-2.81-9.511l2.81 9.511m-2.81-9.511l-2.811 9.511m-2.81-9.511l2.81 9.511"/><rect width="17.295" height="17.295" x="5.5" y="25.205" fill="none" stroke="currentColor" stroke-linecap="round" stroke-linejoin="round" rx="2" ry="2"/></svg>