<svg xmlns="http://www.w3.org/2000/svg" width="1em" height="1em" viewBox="0 0 48 48"><path fill="none" stroke="currentColor" stroke-linecap="round" stroke-linejoin="round" d="M40.5 5.5h-33a2 2 0 0 0-2 2v33a2 2 0 0 0 2 2h33a2 2 0 0 0 2-2v-33a2 2 0 0 0-2-2"/><circle cx="20.669" cy="14.135" r="3.336" fill="none" stroke="currentColor" stroke-linecap="round" stroke-linejoin="round"/><circle cx="16.175" cy="18.993" r=".75" fill="currentColor"/><circle cx="14.016" cy="21.152" r=".75" fill="currentColor"/><circle cx="11.857" cy="23.311" r=".75" fill="currentColor"/><circle cx="9.699" cy="25.47" r=".75" fill="currentColor"/><circle cx="7.54" cy="27.628" r=".75" fill="currentColor"/><circle cx="16.175" cy="36.264" r=".75" fill="currentColor"/><circle cx="18.404" cy="38.493" r=".75" fill="currentColor"/><circle cx="20.633" cy="40.722" r=".75" fill="currentColor"/><circle cx="14.016" cy="34.105" r=".75" fill="currentColor"/><circle cx="11.857" cy="31.946" r=".75" fill="currentColor"/><circle cx="9.699" cy="29.787" r=".75" fill="currentColor"/></svg>