<svg xmlns="http://www.w3.org/2000/svg" width="1em" height="1em" viewBox="0 0 48 48"><path fill="none" stroke="currentColor" stroke-linecap="round" stroke-linejoin="round" d="M45.5 23.986c0 12.677-10.984 22.8-23.95 21.364c-9.872-1.093-17.821-9.042-18.914-18.914c-1.392-12.579 8.093-23.292 20.236-23.92c.617-.033 1.128.48 1.128 1.098V14.76c0 .553-.414 1.017-.963 1.081a8.21 8.21 0 0 0-7.077 9.789c.62 3.198 3.197 5.775 6.395 6.395c5.252 1.02 9.845-2.972 9.845-8.04a8.188 8.188 0 0 0-4.338-7.229a1.085 1.085 0 0 1-.497-1.355l4.073-10.377a1.105 1.105 0 0 1 1.496-.59C40.347 7.824 45.5 15.305 45.5 23.987Z"/></svg>