<svg xmlns="http://www.w3.org/2000/svg" width="1em" height="1em" viewBox="0 0 48 48"><path fill="none" stroke="currentColor" stroke-linecap="round" stroke-linejoin="round" d="M7.447 5.5A1.943 1.943 0 0 0 5.5 7.447v33.106A1.943 1.943 0 0 0 7.447 42.5h33.106a1.943 1.943 0 0 0 1.947-1.947V7.447A1.943 1.943 0 0 0 40.553 5.5ZM5.5 12.645h37m-3.5 1.5v-3m-10 3v-3m-10 3v-3m-10 3v-3m11.375 14.332L24 23.503m0 0v14.501"/><path fill="none" stroke="currentColor" stroke-linecap="round" stroke-linejoin="round" d="M24 38.004a10.103 10.103 0 1 0-3.989-.817"/></svg>