<svg xmlns="http://www.w3.org/2000/svg" width="1em" height="1em" viewBox="0 0 48 48"><circle cx="24" cy="24" r="21.5" fill="none" stroke="currentColor" stroke-linecap="round" stroke-linejoin="round"/><circle cx="24" cy="24" r="21.5" fill="none" stroke="currentColor" stroke-linecap="round" stroke-linejoin="round"/><path fill="none" stroke="currentColor" stroke-linecap="round" stroke-linejoin="round" d="M16.544 16.577c-6.168 6.196-8.72 14.608-7.713 22.66c8.055.971 16.456-1.619 22.625-7.814c6.168-6.196 8.72-14.608 7.713-22.66c-8.055-.97-16.456 1.619-22.625 7.814"/><path fill="none" stroke="currentColor" stroke-linecap="round" stroke-linejoin="round" d="M31.423 16.544c-6.196-6.168-14.608-8.72-22.66-7.713c-.971 8.055 1.619 16.456 7.814 22.625c6.195 6.168 14.608 8.72 22.66 7.713c.97-8.055-1.619-16.456-7.814-22.625"/></svg>