<svg xmlns="http://www.w3.org/2000/svg" width="1em" height="1em" viewBox="0 0 48 48"><path fill="none" stroke="currentColor" stroke-linecap="round" stroke-linejoin="round" d="M17.766 24.754c.21-1.19 1.343-2.154 2.533-2.154h0m-2.154 0l-1.006 5.707m11.21-8.614l-1.519 8.614M35.654 24c1.189 0 1.983.964 1.773 2.154s-1.344 2.153-2.533 2.153h-3.553l1.519-8.614h3.553c1.19 0 1.984.964 1.774 2.153S36.843 24 35.654 24m0 0h-5.438m-5.003 2.154c-.21 1.189-1.336 2.153-2.517 2.153h-.75c-.782 0-1.303-.639-1.164-1.427s.885-1.426 1.667-1.426h2.892"/><path fill="none" stroke="currentColor" stroke-linecap="round" stroke-linejoin="round" d="M21.975 23.166c.611-.52.983-.566 1.984-.566c1.138 0 1.797.5 1.558 1.852l-.68 3.855m-12.55 0c-1.576 0-2.628-1.277-2.35-2.853l.512-2.908c.278-1.576 1.78-2.853 3.357-2.853h0c1.576 0 2.628 1.278 2.35 2.853l-.512 2.908c-.278 1.576-1.781 2.853-3.357 2.853"/><path fill="none" stroke="currentColor" stroke-linecap="round" stroke-linejoin="round" d="M12.087 31.587a7.587 7.587 0 0 1 0-15.174h23.827a7.587 7.587 0 0 1 0 15.174z"/></svg>