<svg xmlns="http://www.w3.org/2000/svg" width="1em" height="1em" viewBox="0 0 48 48"><path fill="none" stroke="currentColor" stroke-linecap="round" stroke-linejoin="round" d="M5.5 32.865v10.039h11.508L34.284 24.92c4.27.98 3.863 3.156 2.747 4.026s-3.074-.843-3.074-.843c0 3.7 3.673 5.06 6.285 1.605c2.611-3.455 1.414-7.318-2.068-7.944L22.531 14.23c-3.102-3.02-5.85-2.394-7.563.218c-1.714 2.612-1.415 4.57 2.013 5.523c-1.034-1.878-1.143-4.625.707-4.163s2.83 2.04 2.83 2.04zm16.617-6.478L5.5 42.904"/><path fill="none" stroke="currentColor" stroke-linecap="round" stroke-linejoin="round" d="M34.48 19.986s3.993-1.676 4.428-5.893c.218-2.109 2.748 6.53-.734 7.672c-3.476.136-3.89 3.156-3.89 3.156m-13.766-7.073c2.203-.823 2.013-3.619 2.013-3.619s4.87-7.563 8.678-3.373c-4.244.408-4.896 5.196-4.896 5.196m3.729 1.796c.147-.13 8.615-8.842 8.615-8.842"/><path fill="none" stroke="currentColor" stroke-linecap="round" stroke-linejoin="round" d="M41.654 6.027c1.485 1.384.676 2.51.125 3.162s-1.78 1.102-3.122-.183c-1.13-1.081-.917-2.516-.224-3.23s1.688-1.178 3.22.25ZM16.247 22.118l5.871-2.233l-.353 1.956l.352 4.546l6.405-.283l1.929-.944v3.75"/></svg>