<svg xmlns="http://www.w3.org/2000/svg" width="1em" height="1em" viewBox="0 0 48 48"><rect width="5.053" height="5.053" x="21.473" y="21.473" fill="none" stroke="currentColor" stroke-linecap="round" stroke-linejoin="round" rx=".632" ry=".632" transform="rotate(-45 24 24)"/><path fill="none" stroke="currentColor" stroke-linecap="round" stroke-linejoin="round" d="M21.157 4.262a5.685 5.685 0 0 1 5.685 0l12.83 7.407a5.685 5.685 0 0 1 2.843 4.924v14.814a5.685 5.685 0 0 1-2.843 4.924l-12.83 7.407a5.685 5.685 0 0 1-5.685 0l-12.83-7.407a5.685 5.685 0 0 1-2.842-4.924V16.593a5.685 5.685 0 0 1 2.842-4.924z"/><path fill="none" stroke="currentColor" stroke-linecap="round" stroke-linejoin="round" d="m5.565 29.88l17.44-17.441a1.263 1.263 0 0 1 1.766-.021l7.432 7.089m10.245-.897L25.007 36.051a1.263 1.263 0 0 1-1.766.021l-7.431-7.088"/></svg>