<svg xmlns="http://www.w3.org/2000/svg" width="1em" height="1em" viewBox="0 0 48 48"><path fill="none" stroke="currentColor" stroke-linecap="round" stroke-linejoin="round" d="M40.5 5.5h-33a2 2 0 0 0-2 2v33a2 2 0 0 0 2 2h33a2 2 0 0 0 2-2v-33a2 2 0 0 0-2-2m-3.41 21.63l-1.67-1.73m-2.71-2.8l-1.67-1.73m1.67 4.53l-1.67 1.73m6.05-6.26l-1.67 1.73"/><path fill="none" stroke="currentColor" stroke-linecap="round" stroke-linejoin="round" d="M11.245 27.13v-6.26h3.206c1.174 0 1.985.69 1.985 1.864s-.811 1.798-1.985 1.798h-3.206m14.092 1.021h-4.099m-1.025 1.577l3.074-6.26l3.075 6.26"/></svg>