<svg xmlns="http://www.w3.org/2000/svg" width="1em" height="1em" viewBox="0 0 48 48"><path fill="none" stroke="currentColor" stroke-linecap="round" stroke-linejoin="round" d="M8.818 43.5V19.682C8.818 11.312 15.631 4.5 24 4.5s15.182 6.813 15.182 15.182S32.369 34.863 24 34.863c-4.762 0-8.647 3.875-8.647 8.637zc0-5.153 2.587-9.73 6.535-12.47A15.056 15.056 0 0 1 24 28.318c4.762 0 8.647-3.876 8.647-8.637c0-4.772-3.885-8.647-8.647-8.647s-8.647 3.875-8.647 8.647v11.347m17.289-11.349h6.539m-30.362 0h6.539"/></svg>