<svg xmlns="http://www.w3.org/2000/svg" width="1em" height="1em" viewBox="0 0 48 48"><path fill="none" stroke="currentColor" stroke-linecap="round" stroke-linejoin="round" d="M13.184 14.341a3.226 3.226 0 1 1-6.452 0a3.226 3.226 0 0 1 6.452 0m-2.232 17.157a3.226 3.226 0 1 1-6.452 0a3.226 3.226 0 0 1 6.452 0M43.5 38.077a3.226 3.226 0 0 1-3.226 3.226h0a3.226 3.226 0 0 1-3.226-3.226h0a3.226 3.226 0 0 1 3.226-3.226h0a3.226 3.226 0 0 1 3.226 3.226M41.378 9.923a3.226 3.226 0 0 1-3.226 3.226h0a3.226 3.226 0 0 1-3.226-3.226h0a3.226 3.226 0 0 1 3.226-3.226h0a3.226 3.226 0 0 1 3.226 3.226M13.1 13.82l21.876-3.562m3.167 2.89l1.847 21.75m-2.849 2.591l-26.32-5.164m-2.685-3.989l1.486-10.823"/></svg>