<svg xmlns="http://www.w3.org/2000/svg" width="1em" height="1em" viewBox="0 0 48 48"><path fill="none" stroke="currentColor" stroke-linecap="round" stroke-linejoin="round" d="m39.079 35.958l1.61 1.598A21.5 21.5 0 0 0 45.5 24h0c0-11.874-9.626-21.5-21.5-21.5S2.5 12.126 2.5 24S12.126 45.5 24 45.5a21.5 21.5 0 0 0 13.315-4.62l-6.48-6.477a12.307 12.307 0 0 1-2.897 1.41c-3.147 1.055-6.713.79-9.652-.756c-3.33-1.688-5.79-4.967-6.49-8.631c-.759-3.678.29-7.672 2.75-10.506c2.013-2.395 4.97-3.924 8.068-4.293h0l.438-.024c4.81-.464 9.706 2.25 11.932 6.527c1.912 3.495 1.937 7.904.144 11.448a12.027 12.027 0 0 1-.907 1.53z"/></svg>