<svg xmlns="http://www.w3.org/2000/svg" width="1em" height="1em" viewBox="0 0 48 48"><path fill="none" stroke="currentColor" stroke-linecap="round" stroke-linejoin="round" d="M43.5 37.5v-27a2 2 0 0 0-2-2h-35a2 2 0 0 0-2 2v27a2 2 0 0 0 2 2h35a2 2 0 0 0 2-2"/><path fill="none" stroke="currentColor" stroke-linecap="round" stroke-linejoin="round" d="M16 32.545a.75.75 0 1 0 .75.75a.74.74 0 0 0-.73-.75z"/><path fill="none" stroke="currentColor" stroke-linecap="round" stroke-linejoin="round" d="M22.16 33.395a2 2 0 0 1-2 2h-8.32a2 2 0 0 1-2-2v-18.79a2 2 0 0 1 2-2h8.32a2 2 0 0 1 2 2zM9.84 16.225h12.32m3.68-.5h12.32m-12.32 5.5h12.32m-12.32 5.5h12.32m-12.32 5.5h12.32"/><path fill="none" stroke="currentColor" stroke-linecap="round" stroke-linejoin="round" d="M9.84 30.685h12.32M18.109 18.75l-4.218 5.2h4.218l-3.912 4.21"/></svg>