<svg xmlns="http://www.w3.org/2000/svg" width="1em" height="1em" viewBox="0 0 48 48"><path fill="none" stroke="currentColor" stroke-linecap="round" stroke-linejoin="round" d="m15.107 20.294l2.957-2.957a4.903 4.903 0 0 0 1.244-4.87a24.095 24.095 0 0 1-.881-4.384C18.27 6.6 16.977 5.5 15.488 5.5H8.58c-1.777 0-3.145 1.535-2.989 3.304c1.575 17.829 15.777 32.03 33.606 33.606c1.77.156 3.304-1.207 3.304-2.984v-6.16c0-2.248-1.102-3.536-2.583-3.693a24.095 24.095 0 0 1-4.384-.88a4.903 4.903 0 0 0-4.87 1.243l-2.957 2.957"/><path fill="none" stroke="currentColor" stroke-linecap="round" stroke-linejoin="round" d="M11.393 5.5c0 2.627.325 5.179.938 7.616C15.728 26.614 27.947 36.608 42.5 36.608"/></svg>