<svg xmlns="http://www.w3.org/2000/svg" width="1em" height="1em" viewBox="0 0 48 48"><path fill="none" stroke="currentColor" stroke-linecap="round" stroke-linejoin="round" d="M21.479 12.65c4.408-2.339 10.072-4.175 16.331-4.994m3.392 4.333c-.866 4.893-2.69 10.1-6.064 15.096c3.454-5.316 3.283-12.077 2.672-19.43zc-7.99-1.816-13.63-2.064-19.723.662m-.057-8.518L28.293 3c-6.955 4.594-12.21 9.703-14.514 15.615M12.69 5.79l-4.26 5.6m21.51 22.489a11.515 11.515 0 0 1-5.996 1.673M28.293 3c3.412 4.728 5.763 11.115 6.51 16.565c-3.88-8.188-15.009-12.513-22.115-13.775c-1.475 7.21-1.325 13.774-.179 19.944m22.294-6.17c-2.86-9.353-17.997-9.165-26.375-8.172m0 0c.831 5.18 2.072 9.914 4.081 14.342a11.657 11.657 0 0 1-.132-1.751a11.53 11.53 0 0 1 2.952-7.72m0 0a11.54 11.54 0 0 1 8.616-3.848c-6.913-.696-13.905 2.564-20.22 6.506m-.358 8.196c5.4 3.73 12.163 8.273 20.58 8.434M3.723 18.921l-.358 8.196a46.698 46.698 0 0 1 11.963-10.852m5.4 18.833a11.594 11.594 0 0 1-6.643-5.063c-5.08-3.54-7.497-6.788-10.362-11.114m28.348 13.297a11.616 11.616 0 0 1-2.13 1.661c-4.472 3.417-10.557 5.763-17.864 6.607m0 0l-5.43-6.112m0 0c1.936-7.138 3.79-12.638 8.683-18.11m-2.82 9.47c-.864 4.981-.985 9.164-.432 14.752m11.868-4.935a11.569 11.569 0 0 1-3.216-.453c-2.561 1.152-9.491.349-14.084-.724M26.463 45l-6.691-1.506m0 0c-3.122-4.736-5.542-8.988-5.685-13.457m21.429-6.054a11.533 11.533 0 0 1-3.444 8.235c-3.954 3.818-6.647 8.146-12.3 11.276m-7.262-17.76a11.478 11.478 0 0 0 1.578 4.303c3.07 5.375 6.39 10.273 12.375 14.963m14.802-8.292l-5.817 3.87m0 0c-5.72-1.082-10.143-3.35-14.717-5.48m3.216-22.683a11.52 11.52 0 0 1 7.443 2.713c6.513 5.24 8.668 14.091 9.875 21.58c-6.848 1.145-14.266-.07-20.534-1.61m-6.95-16.483c1.79-5.922 4.002-9.792 7.641-14.482c6.37 4.617 11.275 10.648 13.382 15.432c1.973 7.127 2.384 14.19.644 21.012m9.186-18.9l-.42 5.66m0 0c-3.522 2.918-8.99 5.268-14.272 6.542m1.448-18.752c1.78-.61 8.554 3.438 13.244 6.55c-3.59 4.999-8.248 9.237-14.692 12.202M26.462 45c6.292-6.655 9.794-17.787 9.053-21.017a11.544 11.544 0 0 0-4.127-8.856c5.591 2.209 9.623 7.424 12.825 12.21"/></svg>