<svg xmlns="http://www.w3.org/2000/svg" width="1em" height="1em" viewBox="0 0 48 48"><path fill="none" stroke="currentColor" stroke-linecap="round" stroke-linejoin="round" d="M22.484 6.195c4.792 0 9.462 1.367 12.556 1.367S41.166 5.5 41.166 5.5c.06 5.641 1.77 12.03-11.464 18.197c-11.13 5.186-8.25 18.803-8.25 18.803C14.66 37.769 9.2 31.764 9.2 19.026s10.306-12.83 13.284-12.83Z"/><path fill="none" stroke="currentColor" stroke-linecap="round" stroke-linejoin="round" d="M21.15 39.868c7.36-5.634 12.252-19.204 6.55-29.152c-4.246 1.517-5.883 5.641-5.883 5.641c-1.077-.333-3.14-.318-4.2.016c-.85-2.73-3.878-5.317-6.087-5.767"/><path fill="none" stroke="currentColor" stroke-linecap="round" stroke-linejoin="round" d="M23.075 25.13c.546-1.752 1.752-3.185 3.412-3.526c.341 1.615.296 3.48-3.412 3.526M11.53 10.716c1.175 1.327 2.76 5.702 2.646 9.5c2.73 1.57 4.254 6.096 4.686 8.417h1.507c.432-2.32 1.956-6.847 4.685-8.416c-.114-3.799 1.471-8.174 2.646-9.5M16.155 25.13c-.546-1.752-1.751-3.185-3.412-3.526c-.341 1.615-.295 3.48 3.412 3.526"/><path fill="none" stroke="currentColor" stroke-linecap="round" stroke-linejoin="round" d="M20.369 28.633c2.327-1.024 6.76-3.424 6.76-3.424m-8.267 3.424c-3.505-1.449-9.38-4.85-9.38-4.85"/><path fill="none" stroke="currentColor" stroke-linecap="round" stroke-linejoin="round" d="M21.477 34.63c-4.088-2.199-6.281-4.784-7.25-8.235"/></svg>