<svg xmlns="http://www.w3.org/2000/svg" width="1em" height="1em" viewBox="0 0 48 48"><path fill="none" stroke="currentColor" stroke-linecap="round" stroke-linejoin="round" d="M40.3 42.5H7.7a2.22 2.22 0 0 1-2.2-2.2V7.7a2.22 2.22 0 0 1 2.2-2.2h32.6a2.22 2.22 0 0 1 2.2 2.2v32.6a2.22 2.22 0 0 1-2.2 2.2m-14.08-30v17.2"/><path fill="none" stroke="currentColor" stroke-linecap="round" stroke-linejoin="round" d="M26.22 22.6a4.31 4.31 0 0 1 4.3-4.3h0a4.31 4.31 0 0 1 4.3 4.3v7.1m-21.64-4.3a4.31 4.31 0 0 0 4.3 4.3h0a4.31 4.31 0 0 0 4.3-4.3v-2.8a4.31 4.31 0 0 0-4.3-4.3h0a4.31 4.31 0 0 0-4.3 4.3m0-4.3v17.2"/></svg>