<svg xmlns="http://www.w3.org/2000/svg" width="1em" height="1em" viewBox="0 0 48 48"><path fill="none" stroke="currentColor" stroke-linecap="round" stroke-linejoin="round" d="M24 2.5c11.879 0 21.5 9.621 21.5 21.5S35.879 45.5 24 45.5S2.5 35.879 2.5 24S12.121 2.5 24 2.5"/><path fill="none" stroke="currentColor" stroke-linecap="round" stroke-linejoin="round" d="M6.52 20.39c-.23 1.17-.36 2.37-.36 3.61c0 9.86 7.98 17.84 17.84 17.84c6.79 0 12.7-3.79 15.71-9.37M6.52 20.39l-3.46-1.26m40.11 14.6l-3.46-1.26M20.446 36V18.196M28.076 36V18.196"/><path fill="none" stroke="currentColor" stroke-linecap="round" stroke-linejoin="round" d="M35.054 14.544v1.326a2.326 2.326 0 0 1-2.326 2.326H15.272a2.326 2.326 0 0 0-2.326 2.326v3.015m7.5-10.037V12m7.63 1.5V12"/></svg>