<svg xmlns="http://www.w3.org/2000/svg" width="1em" height="1em" viewBox="0 0 48 48"><path fill="none" stroke="currentColor" stroke-linecap="round" stroke-linejoin="round" d="m18.401 38.689l4.297 4.297m0 0l2.518 2.516M22.862 2.576l2.517 2.517m0 0l4.298 4.297m-4.46 36.115a21.419 21.419 0 0 1-11.191-2.44m0 .002a21.57 21.57 0 0 1-9.015-9.014m-.001 0a21.434 21.434 0 0 1-2.395-8.235M22.86 2.573a21.419 21.419 0 0 1 11.191 2.44m0-.001a21.569 21.569 0 0 1 9.016 9.013m0 0a21.435 21.435 0 0 1 2.396 8.24m-18.574 9.808c5.597-1.286 10.679-4.732 10.029-10.642c-4.448-1.264-9.434 3.16-10.384 8.852c-.51-9.679-7.98-14.14-15.072-13.99c-.294 7.033 3.537 13.948 12.72 15.493c-.65-4.336-4.856-7.981-8.83-11.672c4.56 3.608 8.368 7.395 11.537 11.96Z"/></svg>