<svg xmlns="http://www.w3.org/2000/svg" width="1em" height="1em" viewBox="0 0 48 48"><path fill="none" stroke="currentColor" stroke-linecap="round" stroke-linejoin="round" d="M17.445 12.263s.696-2.514 2.151-.279m.001 0A25.628 25.628 0 0 1 24 11.667M13.857 21.84c-2.211-.909-6.39-2.85-7.198-4.817c-1.11-2.7-4.575 1.683.636 5.4m-1.209-.764s-2.05 3.012 3.28 4.946m-1.086-.234s-.495 3.433 6.317 4.082m17.111-10.795s.386 2.695-.726 2.958a44.93 44.93 0 0 1-6.981.61a44.939 44.939 0 0 1-6.982-.609c-1.112-.264-.726-2.959-.726-2.959a113.285 113.285 0 0 0 15.415 0m-13.432-2.263c.019-.86.226-2.098 1.261-2.098c1.025 0 1.272 1.164 1.319 1.986"/><path fill="none" stroke="currentColor" stroke-linecap="round" stroke-linejoin="round" d="M30.557 12.263c4.583.676 3.682 2.8 3.66 7.36S32.86 37.53 31.744 38.636s-5.143 1.08-7.744 1.08s-6.66.027-7.775-1.08s-2.42-14.455-2.441-19.014s-.923-6.683 3.66-7.359m13.113 0s-.697-2.514-2.152-.279"/><path fill="none" stroke="currentColor" stroke-linecap="round" stroke-linejoin="round" d="M28.405 11.984A25.627 25.627 0 0 0 24 11.667m5.726 5.733c-.008-.81-.184-2.05-1.19-2.05c-1.017 0-1.222 1.215-1.25 1.992m5.427 18.808s3.998-2.212 5.01-2.28s-.17-2.167-4.274-1.936M21.63 35.748v-7.152h2.326a2.414 2.414 0 1 1 0 4.827h-2.325"/><path fill="none" stroke="currentColor" stroke-linecap="round" stroke-linejoin="round" d="M24.358 11.667s1.09-2.468-.492-3.383m1.775 3.339a2.47 2.47 0 0 0 .783-1.98m-3.484 1.869a1.467 1.467 0 0 0-1.143-1.949M34.143 21.84c2.211-.909 6.39-2.85 7.198-4.817c1.11-2.7 4.575 1.683-.636 5.4m1.209-.764s2.05 3.012-3.28 4.946m1.086-.234s.495 3.433-6.317 4.082"/></svg>