<svg xmlns="http://www.w3.org/2000/svg" width="1em" height="1em" viewBox="0 0 48 48"><rect width="27.145" height="13.997" x="10.428" y="14.741" fill="none" stroke="currentColor" stroke-linecap="round" stroke-linejoin="round" rx="3.077" ry="3.077"/><path fill="none" stroke="currentColor" stroke-linecap="round" stroke-linejoin="round" d="M35.118 9.3a2.331 2.331 0 0 1 2.331 2.331v.43a3.72 3.72 0 0 0 3.72 3.72h0a2.331 2.331 0 0 1 2.331 2.331v7.158a2.331 2.331 0 0 1-2.33 2.331h0a3.72 3.72 0 0 0-3.72 3.72v.43a2.331 2.331 0 0 1-2.332 2.331h-18.72l-3.393 4.112c-.827 1.002-2.454.417-2.454-.882v-5.99a3.72 3.72 0 0 0-3.72-3.72h0A2.331 2.331 0 0 1 4.5 25.27v-7.158a2.331 2.331 0 0 1 2.33-2.331h0a3.72 3.72 0 0 0 3.72-3.72v-.43a2.331 2.331 0 0 1 2.332-2.33z"/><path fill="none" stroke="currentColor" stroke-linecap="round" stroke-linejoin="round" d="M15.697 20.07a2.477 2.477 0 0 1 4.954 0v2.826a2.477 2.477 0 0 1-4.954 0zm11.652 0a2.477 2.477 0 0 1 4.954 0v2.826a2.477 2.477 0 0 1-4.954 0z"/></svg>