<svg xmlns="http://www.w3.org/2000/svg" width="1em" height="1em" viewBox="0 0 48 48"><g fill="none" stroke="currentColor" stroke-linecap="round" stroke-linejoin="round"><path d="M24.133 43.5C35.303 35.884 39.79 30.554 39.9 23.678c.11-6.878-4.476-10.721-7.896-10.704c-5.728.03-7.788 4.038-7.788 4.038s-2.633-4.063-8.507-3.54c-5.006.447-7.69 5.662-7.609 9.414s.928 7.028 7.387 10.674c3.556 2.008 8.538 6.468 8.646 9.94"/><path d="M24.274 14.385c-1.012-3.628.791-6.554 2.142-7.628c1.308-1.04 3.105-2.488 7.054-2.226c.065 2.358-.859 4.643-2.081 5.666c-1.223 1.023-3.542 1.442-4.825 2.288c-1.284.846-2.29 1.9-2.29 1.9"/></g></svg>