<svg xmlns="http://www.w3.org/2000/svg" width="1em" height="1em" viewBox="0 0 48 48"><path fill="none" stroke="currentColor" stroke-linecap="round" stroke-linejoin="round" d="M24.114 28.234h2.193m-1.253 4.229v-5.247c0-.627.47-1.097 1.097-1.097h0c.548 0 .861.157 1.096.47m11.951-10.041l-2.263 2.222m3.467 2.522H38.06m-3.7-5.653v2.341m-3.555-.268a.677.677 0 0 1-.676.676c-.405 0-.54-.203-.675-.338s-.27-.338-.675-.338a.677.677 0 0 0-.675.676m2.624 5.864v-4.364m0 2.748a1.62 1.62 0 0 1-1.616 1.616h0a1.62 1.62 0 0 1-1.617-1.616v-1.05c0-.89.728-1.617 1.617-1.617h0a1.62 1.62 0 0 1 1.616 1.616M39.81 31.64c-.247.494-.823.823-1.4.823h0a1.652 1.652 0 0 1-1.646-1.647v-1.07c0-.906.741-1.647 1.647-1.647h0c.905 0 1.646.741 1.646 1.647v.576h-3.293m-2.152 1.318c-.247.494-.823.823-1.4.823h0a1.652 1.652 0 0 1-1.646-1.647v-1.07c0-.906.741-1.647 1.647-1.647h0c.905 0 1.646.741 1.646 1.647v.576h-3.293M20.833 23.43c-.247.494-.824.823-1.4.823h0a1.652 1.652 0 0 1-1.647-1.647v-1.07c0-.906.741-1.647 1.647-1.647h0c.906 0 1.647.741 1.647 1.647v.576h-3.294m4.928-2.223h3.233l-3.233 4.364h3.233M28.53 28.1v4.364m0-2.748c0-.889.728-1.616 1.617-1.616h0M14.71 19.888v4.364m0-2.748a1.62 1.62 0 0 1 1.616-1.616h0m17.936 4.364a1.652 1.652 0 0 1-1.647-1.647v-1.07c0-.906.741-1.647 1.647-1.647h0c.905 0 1.646.741 1.646 1.647v1.07a1.65 1.65 0 0 1-1.646 1.647M8.579 24.18v-6.367h2.07a2.14 2.14 0 0 1 2.148 2.132v.018a2.14 2.14 0 0 1-2.132 2.148H8.579"/><rect width="37" height="37" x="5.5" y="5.5" fill="none" stroke="currentColor" stroke-linecap="round" stroke-linejoin="round" rx="2" ry="2"/></svg>