<svg xmlns="http://www.w3.org/2000/svg" width="1em" height="1em" viewBox="0 0 48 48"><circle cx="24" cy="24" r="21.5" fill="none" stroke="currentColor" stroke-linecap="round" stroke-linejoin="round"/><path fill="none" stroke="currentColor" stroke-linecap="round" stroke-linejoin="round" d="M45.5 24c0 6.877-5.574 12.45-12.45 12.45s-12.452-3.324-12.452-10.2c0-5.512 4.417-8.203 9.42-8.484c-12.56-3.869-16.57 4.362-16.57 11.832S20.093 43 27.856 45.154"/><path fill="none" stroke="currentColor" stroke-linecap="round" stroke-linejoin="round" d="M13.448 29.598c0-12.112 5.637-14.608 10.519-15.16c-8.406-1.102-19.705 3.015-16.191 23.667"/><path fill="none" stroke="currentColor" stroke-linecap="round" stroke-linejoin="round" d="M11.575 17.943c6.903-6.888 18.466-7.616 21.998-.943c-4.732-11.234-20.433-13.196-29.67-.651"/></svg>