<svg xmlns="http://www.w3.org/2000/svg" width="1em" height="1em" viewBox="0 0 48 48"><path fill="none" stroke="currentColor" stroke-linecap="round" stroke-linejoin="round" d="M40.67 22.23V7.3H7.27v17.33m0 6.54v9.53h8.02m25.385-7.105V40.7H19.072"/><circle cx="7.273" cy="27.896" r="3.269" fill="none" stroke="currentColor" stroke-linecap="round" stroke-linejoin="round"/><path fill="none" stroke="currentColor" stroke-linecap="round" stroke-linejoin="round" d="M27.106 40.7v-8.035m0-9.497v-8.675m8.868-2.691v5.388M7.273 14.493h5.886c0-1.779.875-3.232 1.94-3.232c1.075 0 1.942 1.453 1.942 3.232c0-1.779.866-3.232 1.94-3.232s1.941 1.453 1.941 3.232c0-1.779.867-3.232 1.941-3.232c1.065 0 1.941 1.453 1.941 3.232h7.005m8.866 0h-4.704m-8.174 18.168h-1.385a1.641 1.641 0 0 1-1.641-1.64v-6.212a1.64 1.64 0 0 1 1.64-1.641h1.386c.906 0 1.641.735 1.641 1.64v6.212a1.64 1.64 0 0 1-1.64 1.641m14.016.937h-2.279a1.641 1.641 0 0 1-1.64-1.641v-8.084a1.64 1.64 0 0 1 1.64-1.641h2.279c.906 0 1.64.734 1.64 1.64v8.085a1.64 1.64 0 0 1-1.64 1.64m-5.84-19.104l-4.162 2.81l-.004-5.615zM15.292 37.175v7.049m3.784-7.049v7.049"/></svg>