<svg xmlns="http://www.w3.org/2000/svg" width="1em" height="1em" viewBox="0 0 48 48"><path fill="none" stroke="currentColor" stroke-linecap="round" stroke-linejoin="round" d="M13.624 25.71a11.695 11.695 0 0 0-1.588 5.902c0 6.49 5.26 11.75 11.75 11.75s11.75-5.261 11.75-11.75s-5.261-11.75-11.75-11.75c-2.524 0-4.862.796-6.777 2.15m16.939.001a11.696 11.696 0 0 0 1.588-5.902c0-3.244-1.316-6.182-3.442-8.308"/><path fill="none" stroke="currentColor" stroke-linecap="round" stroke-linejoin="round" d="M37.805 4.362H23.786c-6.49 0-11.75 5.26-11.75 11.75s5.26 11.749 11.75 11.749c2.615 0 5.03-.854 6.982-2.298"/></svg>