<svg xmlns="http://www.w3.org/2000/svg" width="1em" height="1em" viewBox="0 0 48 48"><path fill="none" stroke="currentColor" stroke-linecap="round" stroke-linejoin="round" d="M41.56 21.993a7.274 7.274 0 0 0-12.23-4.336H18.66a7.284 7.284 0 0 0-4.997-1.999h0a7.294 7.294 0 0 0-7.244 6.335h0L4.511 37.22c-.32 3.886 6.525 3.996 7.804 1.319l3.087-4.897a4.317 4.317 0 0 1 3.587-2.298h9.992a4.237 4.237 0 0 1 3.617 2.298l3.088 4.896c1.278 2.658 8.123 2.568 7.803-1.318Z"/><circle cx="23.985" cy="12.853" r=".75" fill="currentColor"/><circle cx="23.985" cy="8.379" r=".75" fill="currentColor"/></svg>