<svg xmlns="http://www.w3.org/2000/svg" width="1em" height="1em" viewBox="0 0 48 48"><circle cx="24" cy="24" r="21.5" fill="none" stroke="currentColor" stroke-linecap="round" stroke-linejoin="round"/><path fill="none" stroke="currentColor" stroke-linecap="round" stroke-linejoin="round" d="M7 26.586v-7.077h2.3c1.327 0 2.389 1.061 2.389 2.388s-1.062 2.389-2.389 2.389H7m7.085-3.893v5.308c0 .531.354.885.885.885h.265m-2.123-4.778h1.946m2.574-1.415v5.308c0 .531.353.885.884.885h.266m-2.124-4.778h1.946m18.854-2.394v7.172m0-1.505l3.188-3.276m-2.125 2.213L41 26.497m-10.634-1.704c0 .986-.807 1.793-1.793 1.793h0a1.798 1.798 0 0 1-1.793-1.793v-1.165c0-.986.807-1.793 1.793-1.793h0c.986 0 1.793.806 1.793 1.793m0 2.958v-4.841m5.389 4.841v-2.958c0-.987-.807-1.794-1.793-1.794s-1.793.807-1.793 1.793m0 2.959v-4.841M23.366 23c.986 0 1.793.807 1.793 1.793s-.807 1.793-1.793 1.793h-2.958v-7.172h2.958c.986 0 1.793.807 1.793 1.793S24.352 23 23.366 23m0 0h-2.958"/></svg>