<svg xmlns="http://www.w3.org/2000/svg" width="1em" height="1em" viewBox="0 0 48 48"><path fill="none" stroke="currentColor" stroke-linecap="round" stroke-linejoin="round" d="M8.18 8.973c-.25.039-.49.96-.973 1.44c-.354.346-.795.324-1.03.752c-.088.16-.06.433-.16.695c-.198.524-.893.571-.893 1.143c-.002.616.58.734 1.084 1.172c.393.352.431.595.908.766c.406.138 1.01-.314 1.555-.152c.448.134.876.23.977.69c.089.422-.006 1.079-.548 1.003c-.183-.02-.976-.287-1.95-.184c-1.174.134-2.515.517-2.646 1.827c-.072.732.833 1.595 1.707 1.42c.605-.12.319-.832.648-1.179c.432-.443 2.878 1.55 5.151 1.55c.958 0 1.67-.243 2.377-.983c.065-.057.146-.178.248-.185c.096.007.265.102.32.143c1.831 1.471 3.215 4.423 9.945 4.458c.947.005 2.025.457 2.905 1.26c.785.727 1.245 1.856 1.69 3.001c.674 1.72 1.881 3.392 3.711 5.254c.1.1 1.607 1.27 1.727 1.358c.02.012.13.277.092.425c-.045 1.116-.207 4.36 2.212 4.508c.591.03.436-.386.436-.673c0-.565-.104-1.126.194-1.705c.408-.795-.864-1.162-.827-2.883c.026-1.283-1.051-1.064-1.598-2.042c-.315-.566-.595-.866-.575-1.56c.123-3.897-.83-6.458-1.304-7.087c-.37-.475-.677-.664-.338-.884c2.019-1.333 2.185-1.655 2.718-2.385c1.04-1.425 2.04-4.829 3.37-5.844c.269-.209.956-.722 1.378-.924c1.242-.586 1.897-.94 2.257-1.292c.571-.556.78-1.906.234-2.61c-.68-.867-1.858-.178-2.377.13c-3.712 2.202-4.26 6.088-5.545 8.32c-1.025 1.783-2.693 3.092-4.184 3.2c-1.118.082-2.323-.144-3.523-.67c-2.918-1.28-4.515-2.932-4.891-3.224c-.784-.605-6.87-6.58-11.802-6.823c0 0-.612-1.226-.766-1.246c-.36-.046-.73.732-.994.822c-.249.083-.667-.843-.918-.802"/></svg>