<svg xmlns="http://www.w3.org/2000/svg" width="1em" height="1em" viewBox="0 0 48 48"><path fill="none" stroke="currentColor" stroke-linecap="round" stroke-linejoin="round" d="M11.313 14.814c-1.442.884-3.213 1.476-3.668.922c-.455-.555.477-1.84 1.784-2.913c1.308-1.073 3.57-1.52 4.058-.994c.868.936-.848 2.172-2.174 2.985M7.205 32.19s-1.653-7.32-2.483-11.155c-.258-1.19.16-2.388.822-3.409c.513-.79 2.101-1.892 2.101-1.892m2.474 17.222L8.48 25.249l1.973-.42l-.917-4.31l22.958-4.88l.916 4.311l2.115-.45l1.638 7.708l2.516-1.92l2.766.798l.622-.132l.433 2.037l-38.524 8.4l-.476-2.24l.692-.147l2.014-1.813z"/></svg>