<svg xmlns="http://www.w3.org/2000/svg" width="1em" height="1em" viewBox="0 0 48 48"><path fill="none" stroke="currentColor" stroke-linecap="round" stroke-linejoin="round" d="M38.5 5.5h-8.665a2.725 2.725 0 0 0-2.725 2.725v.749c0 .807.303 1.607.908 2.14a6.06 6.06 0 0 1 1.978 5.55c-.42 2.629-2.613 4.721-5.256 5.033a6.078 6.078 0 0 1-6.816-6.032c0-1.775.762-3.367 1.976-4.477c.6-.548.99-1.288.99-2.101v-.862A2.725 2.725 0 0 0 18.164 5.5H9.5a4 4 0 0 0-4 4v29a4 4 0 0 0 4 4h29a4 4 0 0 0 4-4v-29a4 4 0 0 0-4-4"/></svg>