<svg xmlns="http://www.w3.org/2000/svg" width="1em" height="1em" viewBox="0 0 48 48"><path fill="none" stroke="currentColor" stroke-linecap="round" stroke-linejoin="round" d="M41.294 20.109L38.764 24l-2.529-3.891m2.529 7.782V24M26.64 25.286a2.647 2.647 0 0 1-2.658 2.658h0c-1.477 0-2.658-1.182-2.658-2.56v-2.658c0-1.476 1.181-2.658 2.658-2.56h0a2.542 2.542 0 0 1 2.56 2.56h0M12.32 27.891l-2.529-2.626m-.001 2.626a2.512 2.512 0 0 1-2.529-2.53v-2.626c0-1.459 1.168-2.626 2.53-2.626h0c1.459 0 2.53 1.167 2.53 2.626v2.53c0 1.459-1.07 2.626-2.53 2.626"/><ellipse cx="9.794" cy="24" fill="none" stroke="currentColor" stroke-linecap="round" stroke-linejoin="round" rx="8.529" ry="5.844" transform="rotate(-67.923 9.794 24)"/><ellipse cx="23.982" cy="24" fill="none" stroke="currentColor" stroke-linecap="round" stroke-linejoin="round" rx="8.529" ry="5.844" transform="rotate(-67.923 23.982 24)"/><ellipse cx="38.206" cy="24" fill="none" stroke="currentColor" stroke-linecap="round" stroke-linejoin="round" rx="8.529" ry="5.844" transform="rotate(-67.923 38.206 24)"/></svg>