<svg xmlns="http://www.w3.org/2000/svg" width="1em" height="1em" viewBox="0 0 48 48"><path fill="none" stroke="currentColor" stroke-linecap="round" stroke-linejoin="round" d="m36.063 22.575l-2.586 10.517l-10.683 2.503l19.85 6.637z"/><path fill="none" stroke="currentColor" stroke-linecap="round" stroke-linejoin="round" d="M37.692 40.577A21.412 21.412 0 0 1 24 45.5C12.126 45.5 2.5 35.874 2.5 24S12.126 2.5 24 2.5S45.5 12.126 45.5 24a21.41 21.41 0 0 1-4.537 13.212"/><path fill="none" stroke="currentColor" stroke-linecap="round" stroke-linejoin="round" d="M29.665 37.893A14.957 14.957 0 0 1 24 39c-8.284 0-15-6.716-15-15S15.716 9 24 9s15 6.716 15 15c0 1.716-.288 3.364-.819 4.9"/></svg>