<svg xmlns="http://www.w3.org/2000/svg" width="1em" height="1em" viewBox="0 0 48 48"><path fill="none" stroke="currentColor" stroke-linecap="round" stroke-linejoin="round" d="M42.189 19.88a1.428 1.428 0 0 0-1.097-.512H8.215a1.643 1.643 0 0 0-1.62 1.36l-1.097 6.224a1.432 1.432 0 0 0 1.41 1.68h32.877a1.643 1.643 0 0 0 1.62-1.36l1.097-6.224a1.429 1.429 0 0 0-.313-1.169M25.474 16.18a6.543 6.543 0 0 0 6.178-5.247a4.639 4.639 0 0 0-.947-3.86A4.516 4.516 0 0 0 27.167 5.5a6.543 6.543 0 0 0-6.178 5.246a4.638 4.638 0 0 0 .947 3.86a4.516 4.516 0 0 0 3.538 1.573M22.526 31.82a6.543 6.543 0 0 0-6.178 5.247a4.638 4.638 0 0 0 .947 3.86a4.515 4.515 0 0 0 3.538 1.573a6.543 6.543 0 0 0 6.178-5.246a4.639 4.639 0 0 0-.947-3.86a4.516 4.516 0 0 0-3.538-1.573"/></svg>