<svg xmlns="http://www.w3.org/2000/svg" width="1em" height="1em" viewBox="0 0 48 48"><path fill="none" stroke="currentColor" stroke-linecap="round" stroke-linejoin="round" d="M6.27 9.47a1.77 1.77 0 0 0-1.77 1.78v24.82a1.77 1.77 0 0 0 1.77 1.77h35.46a1.78 1.78 0 0 0 1.77-1.77V11.25a1.78 1.78 0 0 0-1.77-1.78Zm12.41 7a1.77 1.77 0 0 1 1.77 1.77h0a1.77 1.77 0 1 1-1.77-1.77m5.32 0a1.77 1.77 0 0 1 1.77 1.77h0A1.77 1.77 0 1 1 24 16.52Zm5.32 0a1.77 1.77 0 0 1 1.77 1.77h0a1.77 1.77 0 1 1-1.77-1.77m5.32 0a1.77 1.77 0 0 1 1.77 1.77h0a1.78 1.78 0 1 1-1.77-1.77m-16 5.32a1.77 1.77 0 1 1-1.77 1.77a1.77 1.77 0 0 1 1.81-1.72Zm5.32 0a1.77 1.77 0 1 1-1.77 1.77A1.77 1.77 0 0 1 24 21.84Zm5.32 0a1.77 1.77 0 1 1-1.77 1.77a1.77 1.77 0 0 1 1.81-1.72Zm5.32 0a1.77 1.77 0 1 1-1.78 1.77a1.77 1.77 0 0 1 1.82-1.72Zm-16 5.32a1.77 1.77 0 1 1-1.77 1.77a1.77 1.77 0 0 1 1.85-1.72Zm5.32 0a1.77 1.77 0 1 1-1.77 1.77A1.77 1.77 0 0 1 24 27.16Zm5.32 0a1.77 1.77 0 1 1-1.77 1.77a1.77 1.77 0 0 1 1.85-1.72Zm5.32 0a1.77 1.77 0 1 1-1.78 1.77a1.77 1.77 0 0 1 1.86-1.72ZM24 5.39L13.08 9.47"/></svg>