<svg xmlns="http://www.w3.org/2000/svg" width="1em" height="1em" viewBox="0 0 48 48"><path fill="none" stroke="currentColor" stroke-linecap="round" stroke-linejoin="round" d="M16.53 12.75h3.725c.945 0 1.526.833 1.233 1.77l-1.094 3.505c-.424 1.357-1.762 2.37-3.132 2.37h0m-1.309-4.37l-1.183 6.706m11.678-2.235h5.511m-1.04 0l1-5.667c.202-1.149-.565-2.08-1.714-2.08h-1.254c-.41 0-.813.097-1.185.269m-13.437-.269l-1.366 7.747m24.015 0l.999-5.667c.202-1.149-.565-2.08-1.713-2.08H35.01c-.41 0-.812.097-1.185.269m-7.799 3.605h-3.119m10.81 8.646l3.417 7.746m1.366-7.746l-.52 2.953c-.179 1.01-1.142 1.83-2.153 1.83h0m-3.476 2.963l.52-2.953c.18-1.01 1.143-1.83 2.153-1.83h0m-3.426-2.963l-1.366 7.746m-16.899-7.746l-.586 3.326m2.698-3.326l-.587 3.326m3.061-4.782l-.257 1.456h5.511l-3.428 7.645m5.479-7.468a3.392 3.392 0 0 1 1.07-.177h0c1.724 0 2.874 1.397 2.57 3.12l-.266 1.507c-.304 1.723-1.946 3.12-3.67 3.12h0a2.85 2.85 0 0 1-1.008-.178M9.5 35.251l1.366-7.747l-.022-2.235"/><rect width="37" height="37" x="5.5" y="5.5" fill="none" stroke="currentColor" stroke-linecap="round" stroke-linejoin="round" rx="2" ry="2"/></svg>