<svg xmlns="http://www.w3.org/2000/svg" width="1em" height="1em" viewBox="0 0 48 48"><path fill="none" stroke="currentColor" stroke-linecap="round" stroke-linejoin="round" d="M5.5 37.704V10.296C5.5 7.647 7.709 5.5 10.433 5.5h27.134c2.724 0 4.933 2.147 4.933 4.796v27.408m-37 0c0 2.649 2.209 4.796 4.933 4.796h27.134c2.724 0 4.933-2.147 4.933-4.796m-37 0V20.406c0-1.496.694-2.803 1.762-3.674M42.5 37.704V26.698c0-.426-.058-.85-.174-1.262l-.103-.367a4.776 4.776 0 0 0-1.485-2.325M7.262 16.732a5.013 5.013 0 0 1 4.256-1.005l27.031 5.926a4.981 4.981 0 0 1 2.19 1.09M9.277 15.742v-3.64c0-1.332 1.11-2.411 2.48-2.411h24.485c1.37 0 2.48 1.08 2.48 2.41v9.553M29.5 29.5v8h4.001m-20.001 0v-8h2.62c1.481 0 2.682 1.203 2.682 2.687s-1.2 2.686-2.682 2.686m0 0H13.5m2.62 0l2.619 2.625M24.8 33.5a2 2 0 1 1 0 4h-3.3v-8h3.301a2 2 0 1 1 0 4m0 0H21.5m9.548-17.783a1.372 1.372 0 0 1-2.565-.681v-.892a1.372 1.372 0 0 1 2.563-.684m5.13 2.257a1.372 1.372 0 0 1-2.564-.681v-.892a1.372 1.372 0 0 1 2.563-.684"/></svg>