<svg xmlns="http://www.w3.org/2000/svg" width="1em" height="1em" viewBox="0 0 48 48"><path fill="none" stroke="currentColor" stroke-linecap="round" stroke-linejoin="round" d="M38.203 25.776c.981-.013 1.966.035 2.947-.023c1.28-.116 2.328-1.288 2.338-2.573c.024-3.436-.002-6.87.011-10.306c.008-.548-.033-1.114-.283-1.611c-.435-.962-1.505-1.54-2.539-1.49c-4.641.002-9.283-.001-13.924.002c-1.197-.048-2.37.79-2.652 1.972c-.178.856-.064 1.739-.091 2.605m14.193 11.423c-.6-.001-1.2.005-1.8.012c-2.845.016-5.69-.005-8.533.008c-.464-.026-.707.439-1.013.71c-.95.937-1.842 1.939-2.846 2.82c-.048-4.357-.025-8.717-.011-13.076a93.65 93.65 0 0 0 .01-1.896m14.193 11.423c-.056 3.204-.005 6.41-.026 9.613c.049.78-.59 1.482-1.34 1.591c-.615.1-1.134-.312-1.667-.54c-1.856-.922-3.947-1.303-6.007-1.237c-2.828.128-5.57 1.266-7.773 3.027c-.634-.383-1.204-.864-1.844-1.237c-2.305-1.342-5.013-2.06-7.68-1.782c-1.81.133-3.541.78-5.139 1.618c-.978.555-2.295-.33-2.216-1.44c-.015-6.165 0-12.332-.008-18.497c-.023-.585.105-1.267.643-1.597c4.014-2.226 8.99-2.58 13.294-1.016c1.011.292 1.917.84 2.865 1.283c.904-.367 1.77-.883 2.705-1.21m-2.705 2.7c.045 5.475.066 13.397.085 18.872M7.597 20.59H18.16M7.597 30.027h3.521M7.597 22.95h4.695m-4.695 2.36H18.16m-3.52 2.358h3.52m-10.563 0h4.695m2.347-4.718h3.521m-4.694 7.077h4.694m10.564-16.513h10.563m-10.563 2.359h4.695m-4.695 2.359h10.563m-3.521 2.359h3.521m-10.563 0h4.695m2.347-4.718h3.521"/></svg>