<svg xmlns="http://www.w3.org/2000/svg" width="1em" height="1em" viewBox="0 0 48 48"><path fill="none" stroke="currentColor" stroke-linecap="round" stroke-linejoin="round" d="M26.522 22.896a2.56 2.56 0 0 1 2.56-2.56h0a2.56 2.56 0 0 1 2.56 2.56v4.225m-5.12-6.785v6.785m5.121-4.225a2.56 2.56 0 0 1 2.56-2.56h0a2.56 2.56 0 0 1 2.561 2.56v4.225M3.5 22.896a2.56 2.56 0 0 1 2.56-2.56h0m-2.56 0v6.785m20.102-10.242v10.242M20.73 24.56a2.56 2.56 0 0 1-2.56 2.561h0a2.56 2.56 0 0 1-2.56-2.56v-1.665a2.56 2.56 0 0 1 2.56-2.56h0a2.56 2.56 0 0 1 2.56 2.56m0 4.225v-6.785m-7.868 5.494a2.56 2.56 0 0 1-2.225 1.291h0a2.56 2.56 0 0 1-2.56-2.56v-1.665a2.56 2.56 0 0 1 2.56-2.56h0a2.56 2.56 0 0 1 2.561 2.56v.832H8.077m36.087 2.102a2.56 2.56 0 0 1-2.225 1.291h0a2.56 2.56 0 0 1-2.56-2.56v-1.665a2.56 2.56 0 0 1 2.56-2.56h0a2.56 2.56 0 0 1 2.561 2.56v.832h-5.121M44.635 18C42.035 9.049 33.789 2.5 24 2.5S5.965 9.049 3.366 18m0 12C5.965 38.951 14.21 45.5 24 45.5S42.035 38.951 44.635 30"/></svg>