<svg xmlns="http://www.w3.org/2000/svg" width="1em" height="1em" viewBox="0 0 48 48"><path fill="none" stroke="currentColor" stroke-linecap="round" stroke-linejoin="round" d="M29.837 24.942V12.144M18.03 24.942V12.144m22.86 16.241A28.682 28.682 0 0 1 24 33.881a28.682 28.682 0 0 1-16.89-5.494"/><path fill="none" stroke="currentColor" stroke-linecap="round" stroke-linejoin="round" d="M7.152 12.145v27.993a2.356 2.356 0 0 0 2.35 2.362h28.981a2.356 2.356 0 0 0 2.361-2.351V12.145zV7.862A2.356 2.356 0 0 1 9.503 5.5h28.98a2.356 2.356 0 0 1 2.361 2.351v4.294"/></svg>