<svg xmlns="http://www.w3.org/2000/svg" width="1em" height="1em" viewBox="0 0 48 48"><path fill="none" stroke="currentColor" stroke-linecap="round" stroke-linejoin="round" d="M14.92 16.636c1.98-3.98 6.16-6.065 7.4-10.452a1.875 1.875 0 0 1 2.843-.462c.824.198 2.51-.384 2.502.976c.452.94-.255 2.681 1.299 2.415c.721.078 1.27.738 1.996.558c1.387-.161 1.258 2.431 1.717 3.321c.334.621 1.8 1.735 2.215 2.24c.242.433-.324.588-.218 1.082c-.172 1.673.961.911 1.473.025c.43-.978 1.105.243 1.63.28c1.165-2.048 1.82-.732 1.29 1.002c.063 1.314.656.363 1.3.166c1.249-.14.525 1.148 1.133 1.743c1.136.603 1.207 1.795.889 2.895c.099.262-.626.66-.567.714c.546-.177 1.852-.863 2.493-.688c.466.68.002 1.678-.845 1.987c-1.722.847-7.892 3.694-5.615 6.155c.42.27 1.047.532 1.561.532c.747.107 1.314-.824 1.796-.314c1.109 2.238-2.804.736-2.266 3.112c.145.455 1.057.607.897 1.168c-2.003.523.378 2.84-1.821 1.875c-1.099-.248-3.08-.938-2.808.688c-.405.395-1.13 1.129-1.787 1.22c-.47-.052-1.177-.583-1.055-.723c1.8.097 1.537-.961 1.3-2.415c0-.48.374-.279.531-.444c.166-.166.105-.689-.087-.942c-.513-.742-3.846.541-2.973-1.124c.718-1.26-.408-.081-1.055-.018c-.435.061-.714-.261-.845-.322c-.308.303-.24 3.046-.21 3.53c.753.822 1.057 2.195.454 3.54c-.445.81-1.456 1.028-1.648 1.255c1.68 2.99-2.568.869-3.783-.323c-2.906-1.326-.964-3.462-2.58-3.46c-.405-.101-.37-1.812-.76-1.814c-.174.061-.426.558-.984.523c-6.515-3.597-7.207 1.584-10.296-5.082c-.594-2.048.24-2.415-1.813-2.145c-1.92.175-.625-3.698-1.116-4.62c-.227-.724-.915-.305-1.508-.288c-1.118.01-1.725-1.182-1.421-2.092c.304-1.101 1.481-1.81 2.206-2.92c.749-.967.937-2.545 2.17-2.459c.969-.03 1.286 1.448 1.979 1.692c.41.043 1.081-.401 1.683-.637c1.156-.529 2.588.095 3.304-.95"/><path fill="none" stroke="currentColor" stroke-linecap="round" stroke-linejoin="round" d="M20.262 22.803v-7.932h4.911c2.776 0 5.027 2.255 5.027 5.037s-2.25 5.038-5.027 5.038l4.91 4.921m-7.358-2.458H17.8m2.462 2.462v-4.925"/></svg>