<svg xmlns="http://www.w3.org/2000/svg" width="1em" height="1em" viewBox="0 0 48 48"><path fill="none" stroke="currentColor" stroke-linecap="round" stroke-linejoin="round" d="M4.5 11.5a3 3 0 0 1 3-3h8.718a4 4 0 0 1 2.325.745l4.914 3.51a4 4 0 0 0 2.325.745H40.5a3 3 0 0 1 3 3v20a3 3 0 0 1-3 3h-33a3 3 0 0 1-3-3z"/><path fill="none" stroke="currentColor" stroke-linecap="round" stroke-linejoin="round" d="M18.7 34.5v-16h5.238c2.961 0 5.362 2.406 5.362 5.374s-2.4 5.373-5.362 5.373H18.7m5.238 0l5.238 5.249"/></svg>