<svg xmlns="http://www.w3.org/2000/svg" width="1em" height="1em" viewBox="0 0 48 48"><path fill="none" stroke="currentColor" stroke-linecap="round" stroke-linejoin="round" d="m8.574 14.79l10.488 2.574c2.51.653 2.997 2.292 2.958 4.227l.039 17.484c-.039 2.054-1.558 2.998-3.535 2.459L8.036 38.998c-1.909-.458-2.46-1.427-2.536-3.612l.077-17.369c.127-2.586 1.303-3.481 2.996-3.228Z"/><path fill="none" stroke="currentColor" stroke-linecap="round" stroke-linejoin="round" d="m15.767 16.555l.106-3.649c-.106-1.553 1.18-2.588 2.651-2.305l10.988 2.651c2.01.36 2.613 1.382 2.651 3.343l.192 18.33c.005 1.65-.565 2.97-2.497 2.497l-7.8-1.64"/><path fill="none" stroke="currentColor" stroke-linecap="round" stroke-linejoin="round" d="m25.879 12.375l-.017-3.196c.017-2.424 1.346-3.146 3.035-2.767l10.22 2.421c1.973.553 3.448 1.524 3.38 3.804V30.66c0 1.152-.837 2.994-3.764 2.46l-6.41-1.172"/></svg>