<svg xmlns="http://www.w3.org/2000/svg" width="1em" height="1em" viewBox="0 0 48 48"><path fill="none" stroke="currentColor" stroke-linecap="round" stroke-linejoin="round" d="M14.85 20.05a7.577 7.577 0 1 0-3.272 14.414m26.833-14.886A7.58 7.58 0 0 1 44 26.886c0 3.739-2.703 6.835-6.258 7.464m-9.367-20.19a7.065 7.065 0 0 1 2.978-.656a7.137 7.137 0 0 1 7.058 6.074"/><path fill="none" stroke="currentColor" stroke-linecap="round" stroke-linejoin="round" d="M11.202 19.316a8.96 8.96 0 0 1-.066-1.037a9.115 9.115 0 0 1 9.118-9.118a9.068 9.068 0 0 1 8.12 4.999a8.888 8.888 0 0 1 .998 4.12M19.338 38.839a4.488 4.488 0 1 1 4.126-6.255h5.259l1.507 1.507l1.507-1.507h1.38l1.192 1.766l-1.193 1.767h-9.652a4.489 4.489 0 0 1-4.126 2.722"/><circle cx="18.493" cy="34.463" r="1.251" fill="none" stroke="currentColor" stroke-linecap="round" stroke-linejoin="round"/></svg>