<svg xmlns="http://www.w3.org/2000/svg" width="1em" height="1em" viewBox="0 0 48 48"><path fill="none" stroke="currentColor" stroke-linecap="round" stroke-linejoin="round" d="m5.815 15.64l2.056 20.267a8.445 8.445 0 0 0 8.402 7.593h15.454a8.445 8.445 0 0 0 8.402-7.593l2.056-20.268Z"/><path fill="none" stroke="currentColor" stroke-linecap="round" stroke-linejoin="round" d="M15.633 15.64v-2.816a8.366 8.366 0 0 1 16.732 0v2.815M20.398 34.394c.8.672 1.663.98 3.602.98h.983a2.899 2.899 0 0 0 2.895-2.902h0a2.899 2.899 0 0 0-2.895-2.902h-1.966a2.899 2.899 0 0 1-2.895-2.902h0a2.899 2.899 0 0 1 2.895-2.901H24c1.94 0 2.803.307 3.602.979"/></svg>