<svg xmlns="http://www.w3.org/2000/svg" width="1em" height="1em" viewBox="0 0 48 48"><path fill="none" stroke="currentColor" stroke-linecap="round" stroke-linejoin="round" d="m26.87 6.041l2.865 2.868l-2.867 2.867m-5.739 0L18.265 8.91l2.867-2.868m-2.867 2.867h11.47M24 6.041v5.736"/><circle cx="24" cy="24" r="21.5" fill="none" stroke="currentColor" stroke-linecap="round" stroke-linejoin="round"/><path fill="none" stroke="currentColor" stroke-linecap="round" stroke-linejoin="round" d="M4.421 15.318h39.158m-21.601 6.557h4.154a3.915 3.915 0 0 1 3.915 3.915v9.507h0h-11.984h0V25.79a3.915 3.915 0 0 1 3.915-3.915m-2.909-2.183h9.862m-5.439 2.183l-1.7-2.183m2.716 2.183l1.7-2.183m-8.145 10.261h11.984m-8.096-5.271h4.208"/><circle cx="20.84" cy="32.54" r=".75" fill="currentColor"/><circle cx="27.16" cy="32.54" r=".75" fill="currentColor"/><path fill="none" stroke="currentColor" stroke-linecap="round" stroke-linejoin="round" d="M18.063 37.759h11.984m-13.571 2.65h15.048m-11.402-5.118l-2.848 5.112m10.575-5.112l2.849 5.112"/></svg>