<svg xmlns="http://www.w3.org/2000/svg" width="1em" height="1em" viewBox="0 0 48 48"><path fill="none" stroke="currentColor" stroke-linecap="round" stroke-linejoin="round" d="M15.064 21.952a8.936 8.936 0 0 1 17.872 0m0 6.398a8.936 8.936 0 1 1-17.872 0"/><path fill="none" stroke="currentColor" stroke-linecap="round" stroke-miterlimit="4.75" d="M15.064 28.35v-6.4m17.872.002v6.397m-21.358-9.306h3.701m-3.701 6.144h3.289m-3.289 6.145h3.701M32.72 19.043h3.702m-3.339 6.144h3.339m-3.702 6.145h3.702M20.207 13.634l-2.92-2.92m10.483 2.954l2.95-2.949m-9.727 11.379h6.064m-6.064 6.179h6.064"/><circle cx="24" cy="24" r="21.5" fill="none" stroke="currentColor" stroke-linecap="round" stroke-linejoin="round"/></svg>