<svg xmlns="http://www.w3.org/2000/svg" width="1em" height="1em" viewBox="0 0 48 48"><path fill="none" stroke="currentColor" stroke-linecap="round" stroke-linejoin="round" d="M40.5 5.5h-33a2 2 0 0 0-2 2v33a2 2 0 0 0 2 2h33a2 2 0 0 0 2-2v-33a2 2 0 0 0-2-2"/><path fill="none" stroke="currentColor" stroke-linecap="round" stroke-linejoin="round" d="M39.402 42.5L10.748 24c-1.767-1.262-3.084-1.44-3.084-1.44m7.233-4.766C20 14.486 28.86 9.047 28.86 9.047c-3.981-.73-10.542-.841-10.542-.841c-2.075 3.645-3.42 9.588-3.42 9.588m16.797 12.692c.45-1.998 1.357-3.542 2.826-4.033"/><path fill="none" stroke="currentColor" stroke-linecap="round" stroke-linejoin="round" d="M33.276 42.5c-1.207-2.172-1.933-5.542-1.926-8.647M19.019 42.5c2.86-5.794 2.313-10.841 1.724-14.836m.471-.788c-2.59 2.36-5.337 4.446-7.074 4.446c-3.07 0-8.448-8.116-8.64-8.916s.481-2.355 3.13-1.261s3.998 1.64 5.09 4.668"/><path fill="none" stroke="currentColor" stroke-linecap="round" stroke-linejoin="round" d="M19.019 15.166c.258 1.862 2.195 3.427 3.617 4.002l.532.925c-3.84 1.542-8.952 6.042-8.952 6.042m17.896-1.612s4.094 3.028 4.094 3.87s-4.15 2.747-9.828 2.474c-1.514-.87-4.838-.367-3.722 3.147c.715 2.25 3.237 1.388 4.268.379C34.297 34 42.5 30.748 42.5 28.953s-4.332-6.504-6.8-9.42s-5.158-3.028-7.794-2.916c0 0-.729-3.309-2.763-5.275m-13.487 13.13c-1.532.71-4.562.645-5.247-.472"/><path fill="none" stroke="currentColor" stroke-linecap="round" stroke-linejoin="round" d="M26.092 12.47c2.62-1.629 3.882.221 7.268-.472"/><path fill="none" stroke="currentColor" stroke-linecap="round" stroke-linejoin="round" d="M36.598 7.33c-2.88.168-4.726 4.618-8.306 4.449m-.385 4.838c-.919.533-1.815 2.026-1.815 2.026c1.49 1.05 2.873 2.355 2.873 2.355c1.146-1.714 3.647-3.8 3.647-3.8m-9.444 2.895c1.462-.546 2.924-1.45 2.924-1.45"/></svg>