<svg xmlns="http://www.w3.org/2000/svg" width="1em" height="1em" viewBox="0 0 48 48"><path fill="none" stroke="currentColor" stroke-linecap="round" stroke-linejoin="round" d="M16.826 4.5A1.153 1.153 0 0 0 15.8 5.525V6.55a1.078 1.078 0 0 0 1.025.883h3.17c.075 8.413-.59 13.854-4.015 14.072a4.007 4.007 0 0 0-4.004 4.003h10.021v15.99L24 43.5l2.002-2.002v-15.99h10.02a4.007 4.007 0 0 0-4.002-4.003c-3.943-.136-4.333-5.442-4.016-14.073h3.171a1.078 1.078 0 0 0 1.024-.882V5.525A1.153 1.153 0 0 0 31.175 4.5Zm5.172 21.008h4.004"/></svg>