<svg xmlns="http://www.w3.org/2000/svg" width="1em" height="1em" viewBox="0 0 48 48"><path fill="none" stroke="currentColor" stroke-linecap="round" stroke-linejoin="round" d="m21.918 29.976l-4.521-18.527m2.554 19.135L12.26 15.579m6.371 16.332L9.181 21.76m14.667 7.949l-.092-19.707m1.911 19.945l4.513-18.498m-2.554 19.135l7.691-15.005m-6.37 16.332l9.45-10.151M23.756 10.002c-10.427 0-16.35 9.891-14.905 18.504l4.57 3.478l.754 5.785l7.988.037c.374.406.972.645 1.626.646c.654 0 1.251-.24 1.625-.646l7.988-.037l.755-5.785l4.57-3.478c1.445-8.613-4.543-18.504-14.97-18.504"/><path fill="none" stroke="currentColor" stroke-linecap="round" stroke-linejoin="round" d="M25.87 41.576c-.38.484-1.147.79-1.984.788c-.838 0-1.604-.307-1.98-.793m-.205-.07l-10.13-.012l-.967-7.41l-5.852-4.455c-.526-4.393-.296-8.281 1.335-11.938c1.692-3.794 4.755-7.12 8.286-9.306c2.968-1.836 6.614-2.745 10.104-2.744c3.167 0 6.454.86 9.166 2.495c3.497 2.108 6.707 5.219 8.364 8.951c1.711 3.856 1.782 8.799 1.06 12.612L37.16 34.08l-.967 7.41l-10.13.013"/></svg>