<svg xmlns="http://www.w3.org/2000/svg" width="1em" height="1em" viewBox="0 0 48 48"><path fill="none" stroke="currentColor" stroke-linecap="round" stroke-linejoin="round" d="M40.5 5.5h-33a2 2 0 0 0-2 2v33a2 2 0 0 0 2 2h33a2 2 0 0 0 2-2v-33a2 2 0 0 0-2-2"/><path fill="none" stroke="currentColor" stroke-linecap="round" stroke-linejoin="round" d="M15.837 17.759L24 21.771l8.163-4.012m2.682 24.738v-8.264l-2.682-1.319L24 36.927l-8.163-4.013l-2.682 1.319L24 39.563l10.845-5.33m-4.746-20.566L24 8.991l-6.099 4.676L24 16.665z"/><path fill="none" stroke="currentColor" stroke-linecap="round" stroke-linejoin="round" d="M17.901 13.667v3.062L24 19.727l6.099-2.998v-3.062M24 8.991v7.674M13.155 34.233v8.264M24 39.563v2.934"/><path fill="none" stroke="currentColor" stroke-linecap="round" stroke-linejoin="round" d="M32.163 32.914V17.759l-2.064-1.03M15.837 32.914V17.759l2.064-1.03M24 36.927V21.771m-7.356 17.146v3.58m3.234-2.349v2.349m11.253-3.58v3.58m-3.235-2.349v2.349m-9.349-10.793V21.629m2.662 11.429V22.982m8.018 8.722V21.629m-2.661 11.429V22.982"/></svg>