<svg xmlns="http://www.w3.org/2000/svg" width="1em" height="1em" viewBox="0 0 48 48"><rect width="37" height="37" x="5.5" y="5.5" fill="none" stroke="currentColor" stroke-linecap="round" stroke-linejoin="round" rx="5" ry="5"/><path fill="none" stroke="currentColor" stroke-linecap="round" stroke-linejoin="round" d="M5.47 16.13h37m-27.12 14.3a4.98 4.98 0 0 0 4.96 5h.04a4.83 4.83 0 0 0 4.82-5v-5a4.94 4.94 0 0 0-4.82-5a5.1 5.1 0 0 0-5 5zm17.3-10v15M28.9 22.5l3.75-2.06M17.2 13.57l1.75-5.27l1.74 5.27m-.57-1.74h-2.34m4.47 1.77V8.31h1.73a1.77 1.77 0 0 1 0 3.54h-1.73m6.78.04l1.73 1.72m-3.45 0V8.36h1.72a1.77 1.77 0 0 1 0 3.54h-1.72"/></svg>