<svg xmlns="http://www.w3.org/2000/svg" width="1em" height="1em" viewBox="0 0 48 48"><path fill="none" stroke="currentColor" stroke-linecap="round" stroke-linejoin="round" d="M37.5 5.5c2.77 0 5 2.23 5 5v27c0 2.77-2.23 5-5 5h-27c-2.77 0-5-2.23-5-5v-27c0-2.77 2.23-5 5-5zm-32 27.281h37M5.521 15.37H42.48M8.948 20.12v8.099m3.203-8.099v8.099m3.198-8.099v8.099m23.88-4a3.539 3.539 0 1 1-3.541-3.547a3.537 3.537 0 0 1 3.541 3.536zM18.588 20.12v8.099"/><path fill="currentColor" d="M36.438 24.208a.75.75 0 1 1-1.5 0a.75.75 0 0 1 1.5 0"/></svg>