<svg xmlns="http://www.w3.org/2000/svg" width="1em" height="1em" viewBox="0 0 48 48"><path fill="none" stroke="currentColor" stroke-linecap="round" stroke-linejoin="round" d="M18.718 30.91c1.935-.506 3.998-.407 5.282-.407m0 0l.566-2.303m-.049 5.003l-.517-2.7m-3.693-2.13l1.052 2.156m-.384 2.674l.384-2.674m-4.222-13.126c1.387 2.278 4.705 3.244 4.705 3.244c1.337 2.575-.322 5.869-1.535 5.968s-6.588-3.17-3.17-9.212"/><path fill="none" stroke="currentColor" stroke-linecap="round" stroke-linejoin="round" d="M16.745 22.944c.33 1.015 1.118 1.015 1.118 1.015"/><path fill="none" stroke="currentColor" stroke-linecap="round" stroke-linejoin="round" d="M24 36.224h2.084c2.278 0 2.724-4.012 3.021-4.953s1.882-1.833 3.715-2.328c0 0-.297-.545-.793-1.536c1.734-1.287 4.26-4.754 4.26-7.783c0-3.028-1.635-9.75-12.287-9.75c-10.652 0-12.287 6.722-12.287 9.75s2.526 6.496 4.26 7.783a55.147 55.147 0 0 1-.793 1.536c1.833.495 3.418 1.387 3.715 2.328s.743 4.953 3.021 4.953z"/><path fill="none" stroke="currentColor" stroke-linecap="round" stroke-linejoin="round" d="M29.283 30.91c-1.936-.506-3.999-.407-5.283-.407m6.863-13.1c-1.387 2.278-4.705 3.244-4.705 3.244c-1.337 2.575.322 5.869 1.535 5.968s6.588-3.17 3.17-9.212"/><path fill="none" stroke="currentColor" stroke-linecap="round" stroke-linejoin="round" d="M33.266 21.167c-.421 1.295-1.428 1.295-1.428 1.295m-4.423 8.125l.527-2.123m-.346 4.474l-.181-2.351"/><path fill="none" stroke="currentColor" stroke-linecap="round" stroke-linejoin="round" d="M25.46 9.93c1.85-1.91 4.43-3.09 7.3-3.09C38.42 6.84 43 11.42 43 17.08c0 1.29-.25 2.52-.69 3.66C38.93 30.48 24 41.16 24 41.16S9.07 30.48 5.69 20.74C5.25 19.6 5 18.37 5 17.08C5 11.42 9.58 6.84 15.24 6.84c2.87 0 5.45 1.18 7.3 3.09"/></svg>