<svg xmlns="http://www.w3.org/2000/svg" width="1em" height="1em" viewBox="0 0 48 48"><circle cx="22.115" cy="11.441" r=".75" fill="currentColor"/><path fill="none" stroke="currentColor" stroke-linecap="round" stroke-linejoin="round" d="M36.158 26.232c0 6.83-5.549 13.883-12.393 16.158c-5.613-1.953-12.392-9.112-12.392-15.941s5.548-12.583 12.392-12.583s12.393 5.537 12.393 12.366"/><path fill="none" stroke="currentColor" stroke-linecap="round" stroke-linejoin="round" d="M21.07 21.237h5.467l2.896 4.949l-2.896 5.02H21.07l-2.788-5.02zm12.379-2.722l-5.464 5.196m1.448 2.475l6.725.046m-8.173 2.464l5.935 5.261m-10.116-2.75l-.038 11.183m-3.719-13.028l-6.128 4.781m4.364-7.957l-6.91.263m8.304-2.737l-5.414-5.291m9.541 2.816l-.038-7.37m7.454 2.486c5.913-.61 9.515 1.662 8.892 9.856l-4.296-2.872m-1.122 9.098c3.13 1.977 5.076 4.647 3.789 9.21c-3.46 1.87-6.25.337-8.749-2.688m-11.166.383c-2.79 1.455-4.87 4.213-9.262 2.74c-1.744-4.518 1.023-7.077 3.593-9.722m-1.156-8.932L8.22 25.788C6.386 16.4 11.138 15.79 16.353 16.4m11.756-1.753c1.068-12.3-9.485-12.073-8.766-.056"/><circle cx="25.832" cy="11.441" r=".75" fill="currentColor"/></svg>