<svg xmlns="http://www.w3.org/2000/svg" width="1em" height="1em" viewBox="0 0 48 48"><path fill="none" stroke="currentColor" stroke-linecap="round" stroke-linejoin="round" d="M41.47 7.28H6.53a2 2 0 0 0-2 1.88v22.25a2 2 0 0 0 2 1.88h2.61v7.43l8.26-7.43h24.07a2 2 0 0 0 2-1.88V9.16a2 2 0 0 0-2-1.88"/><path fill="none" stroke="currentColor" stroke-linecap="round" stroke-linejoin="round" d="M25.61 28.6A8.47 8.47 0 0 0 30 14.3M22.38 12A8.47 8.47 0 0 0 18 26.27M29.39 14.9l-1.38 1.38v-3.8h3.8l-1.39 1.38zM18.61 25.67l1.38-1.38v3.8H16.2l1.38-1.38zM24 20.99v-5.96m4.01 8.07L24 20.99"/></svg>