<svg xmlns="http://www.w3.org/2000/svg" width="1em" height="1em" viewBox="0 0 48 48"><path fill="none" stroke="currentColor" stroke-linecap="round" stroke-linejoin="round" d="M18.05 34.423a11.995 11.995 0 1 0-4.474-4.473"/><path fill="none" stroke="currentColor" stroke-linecap="round" stroke-linejoin="round" d="m24 24l-10.024 5.179l4.845 4.845zM8.797 39.203l10.024-5.179l-4.845-4.845zM24 9.482V2.5m0 43v-6.981m-7.259-27.092L13.25 5.38m21.5 37.24l-3.491-6.047M11.427 16.741L5.38 13.25m37.24 21.5l-6.047-3.491M9.482 24H2.5m43 0h-6.981m4.101-10.75l-6.047 3.491M34.75 5.38l-3.491 6.047M38.519 24H45.5m-43 0h6.982"/></svg>