<svg xmlns="http://www.w3.org/2000/svg" width="1em" height="1em" viewBox="0 0 48 48"><path fill="none" stroke="currentColor" stroke-linecap="round" stroke-linejoin="round" d="M39.187 19.115a4.839 4.839 0 1 0-9.678 0a4.839 4.839 0 0 0 9.678 0V6.865H42.5M13.19 25.877h5.135m-5.136-5.19h10.27m-10.27-5.19h10.27m7.69 11.308v4.128a3.572 3.572 0 0 1-3.564 3.58H11.944L5.5 41.135h0V10.448a3.572 3.572 0 0 1 3.564-3.58H27.57a3.572 3.572 0 0 1 3.58 3.564v.994m-.007 15.386a8.37 8.37 0 0 1-.001-15.395"/></svg>