<svg xmlns="http://www.w3.org/2000/svg" width="1em" height="1em" viewBox="0 0 48 48"><path fill="none" stroke="currentColor" stroke-linecap="round" stroke-linejoin="round" d="M39.5 39.564h-31a4 4 0 0 1-4-4V12.436a4 4 0 0 1 4-4h31a4 4 0 0 1 4 4v23.128a4 4 0 0 1-4 4"/><circle cx="24" cy="24" r="5.809" fill="none" stroke="currentColor" stroke-linecap="round" stroke-linejoin="round"/><path fill="none" stroke="currentColor" stroke-linecap="round" stroke-linejoin="round" d="M13.006 34.993a15.49 15.49 0 0 1-3.133-4.5C8.93 28.453 8.45 26.267 8.45 24s.48-4.453 1.426-6.498a15.485 15.485 0 0 1 3.13-4.496l2.687 2.687a11.71 11.71 0 0 0-2.366 3.4c-.715 1.546-1.077 3.195-1.077 4.907s.362 3.361 1.075 4.902a11.719 11.719 0 0 0 2.369 3.406zm21.988 0l-2.687-2.685a11.728 11.728 0 0 0 2.367-3.402c.715-1.546 1.076-3.195 1.076-4.906s-.361-3.36-1.074-4.903a11.745 11.745 0 0 0-2.37-3.403l2.688-2.687a15.538 15.538 0 0 1 3.133 4.499c.944 2.043 1.424 4.229 1.424 6.494s-.48 4.451-1.426 6.497a15.519 15.519 0 0 1-3.13 4.496Z"/></svg>