<svg xmlns="http://www.w3.org/2000/svg" width="1em" height="1em" viewBox="0 0 48 48"><path fill="none" stroke="currentColor" stroke-linecap="round" stroke-linejoin="round" d="m22.57 7.065l-4.145-2.553l-.372 4.854l3.41 1.108zm-10.911 6.936l-4.732-1.147l1.147 4.732h3.585zm7.492 3.585h-5.71V9.743l7.47 2.427c-.554 1.816-1.166 3.613-1.76 5.416m20.748 0l1.147-4.732l-4.731 1.147v3.585zM29.93 9.352l-.371-4.854l-4.146 2.553l1.108 3.409zm-1.094 8.233l-1.764-5.43l7.459-2.423v7.853c-1.898.035-3.797.008-5.695 0m6.412 19.733l4.854-.372l-2.553-4.145l-3.409 1.108zm4.75-12.026L44.5 23.44l-3.709-3.153l-2.9 2.106zm-8.168 1.504l4.619-3.356l4.61 6.345l-7.47 2.427c-.62-1.794-1.18-3.608-1.76-5.416ZM15.044 38.992l1.853 4.502l3.154-3.71l-2.107-2.899zm12.906.802l3.153 3.708l1.853-4.501l-2.9-2.107zm-3.956-7.304l4.62 3.356l-4.61 6.344l-4.616-6.354c1.515-1.143 3.066-2.237 4.606-3.347M7.209 20.294L3.5 23.448L8.002 25.3l2.107-2.9zm3.225 12.521l-2.553 4.146l4.854.37l1.108-3.408zm5.725-6.018l-1.765 5.43l-7.458-2.423l4.616-6.354c1.556 1.088 3.076 2.225 4.607 3.347"/></svg>