<svg xmlns="http://www.w3.org/2000/svg" width="1em" height="1em" viewBox="0 0 48 48"><path fill="none" stroke="currentColor" stroke-linecap="round" stroke-linejoin="round" d="m25.06 36.085l-7.853-4.129l-7.853 4.129l1.499-8.745L4.5 21.147l8.78-1.276l3.927-7.956l3.927 7.956m17.289 10.831V23.04h2.509c1.418 0 2.568 1.152 2.568 2.574s-1.15 2.573-2.568 2.573h-2.509m2.509-.001l2.509 2.514m-16.879-7.661h5.076M29.1 30.702v-7.663"/><path fill="none" stroke="currentColor" stroke-linecap="round" stroke-linejoin="round" d="M20.135 29.863c.47.611 1.06.84 1.879.84h1.135a1.912 1.912 0 0 0 1.911-1.912v-.009a1.912 1.912 0 0 0-1.911-1.911h-1.252a1.914 1.914 0 0 1-1.914-1.914h0c0-1.06.859-1.918 1.918-1.918h1.129c.82 0 1.409.228 1.878.84m10.748 4.285H32.26m-.841 2.538l2.539-7.663l2.538 7.663"/></svg>