<svg xmlns="http://www.w3.org/2000/svg" width="1em" height="1em" viewBox="0 0 48 48"><path fill="none" stroke="currentColor" stroke-linecap="round" stroke-linejoin="round" d="m22.459 36.754l-10.072 4.842l2.177-12.692L5.5 19.831l12.691-2.177l5.804-11.607L29.8 17.654l12.7 2.177l-9.073 9.073l2.177 13.05l-10.07-5.214"/><path fill="none" stroke="currentColor" stroke-linecap="round" stroke-linejoin="round" d="M23.995 18.554c1.857 0 3.357 1.548 3.357 3.453s-1.5 3.454-3.357 3.454s-3.356-1.548-3.356-3.454s1.499-3.453 3.356-3.453m1.451 19.056c-.967.967-1.935.967-2.902 0l-1.083-10.882c1.69 1.212 3.382 1.212 5.078 0zm-1.451-5.22v-2.902"/></svg>