<svg xmlns="http://www.w3.org/2000/svg" width="1em" height="1em" viewBox="0 0 48 48"><path fill="none" stroke="currentColor" stroke-linecap="round" stroke-linejoin="round" d="M33.274 30.17h3.135l6.93-3.466V37.97l-6.93-3.496l-3.135-.03M18.505 19.197a3.862 3.862 0 1 1-7.724 0a3.862 3.862 0 0 1 7.724 0m18.978 0a3.862 3.862 0 1 1-7.724 0a3.862 3.862 0 0 1 7.724 0m-13.492-3.29a10.011 10.011 0 1 1 9.499 13.174h-.001c-.072 0-.143 0-.215-.002m-19.277-.011A10.011 10.011 0 0 1 4.5 19.07c0-5.529 4.482-10.011 10.011-10.011a10.01 10.01 0 0 1 9.5 6.853m9.263 13.15v1.108m0 4.275v4.496H14v-9.906"/></svg>