<svg xmlns="http://www.w3.org/2000/svg" width="1em" height="1em" viewBox="0 0 48 48"><path fill="none" stroke="currentColor" stroke-linecap="round" stroke-linejoin="round" d="M4.5 31.916h38.71M4.5 29.751h38.71m.29-3.826a1.327 1.327 0 1 1-2.655-.002a1.327 1.327 0 0 1 2.655.003zm-6.748-2.31v.774c0 1.712-1.379 2.864-3.093 2.864h-1.685c-1.713 0-3.091-1.151-3.091-2.864m7.427-6.664c-.636-.452-1.379-.586-2.65-.713c-.56-.057-1.686 0-1.686 0c-1.713 0-3.221.894-2.937 2.583c.13.763.47 1.64 4.124 1.873c1.55.1 3.36.137 3.591 2.147M24.78 21.728v5.525m-7.926-9.08c2.063-1.356 4.898-1.788 6.559-.586l1.377-1.503m-1.376 1.503c.829.6 1.365 1.607 1.366 3.11v1.031c-3.467.022-7.951-.713-7.945 2.765c.005 2.925 3.116 2.765 4.293 2.528M5.204 24.224v3.029m0-10.24v7.211c3.122 3.709 7.536 4.425 7.536.671v-7.883"/></svg>