<svg xmlns="http://www.w3.org/2000/svg" width="1em" height="1em" viewBox="0 0 48 48"><path fill="none" stroke="currentColor" stroke-linecap="round" stroke-linejoin="round" d="M9.093 14.447c1.884 1.9 6.266.154 7.522.154s1.073.934 1.073.934m9.07 7.845l-7.538 7.844h2.972l-2.451 3.554h7.017l2.267-3.401h-3.37l1.9-2.758h-2.973zm-6.22 19.12a3.554 3.554 0 1 0-7.11 0zm-2.462 0v-.908m-2.186.908v-.908M24 17.328c-.597 0-.766-.337-1.532-.245c-.461.055-.812.414-.812 1.18c0 1.593 1.394 1.577 2.344 1.577"/><ellipse cx="21.303" cy="13.988" fill="none" stroke="currentColor" stroke-linecap="round" stroke-linejoin="round" rx="1.486" ry="1.148" transform="rotate(-71.745 21.303 13.988)"/><path fill="none" stroke="currentColor" stroke-linecap="round" stroke-linejoin="round" d="M36.893 32.995s-2.322-.086-3.67 1.875c-1.348 1.961.782 3.708 2.084 3.708c3.635 0 5.148-5.24 5.148-10.173c0-2.69-1.669-5.013-3.218-5.669c-.52-3.125-4.198-3.37-6.986-2.252c.757-1.198 1.617-3.127.061-4.949c0 0 2.375 2.176 6.282 2.176s4.949-2.528 4.949-4.06c0-1.532-.445-4.688-5.27-8.15c1.301 2.006.688 4.825-1.9 4.825c-2.59 0-6.359-2.375-7.125-2.375s-1.011.537 0 2.375C26.513 9.53 25.624 9.04 24 9.04s-2.512.49-3.248 1.287c1.011-1.838.766-2.375 0-2.375s-4.535 2.375-7.124 2.375s-3.202-2.819-1.9-4.826c-4.826 3.463-5.27 6.619-5.27 8.15s1.041 4.06 4.948 4.06s6.282-2.175 6.282-2.175c-1.556 1.822-.696 3.75.061 4.949c-2.788-1.119-6.465-.873-6.986 2.252c-1.549.656-3.217 2.978-3.217 5.669c0 4.933 1.512 10.173 5.147 10.173c1.303 0 3.432-1.747 2.084-3.708s-3.67-1.875-3.67-1.875"/><path fill="none" stroke="currentColor" stroke-linecap="round" stroke-linejoin="round" d="M38.907 14.447c-1.884 1.9-6.266.154-7.522.154s-1.073.934-1.073.934M27.463 42.5a3.554 3.554 0 1 1 7.108 0zm2.461 0v-.908m2.186.908v-.908m5.679-7.947s-2.865-1.425-3.187-5.67c-.382 4.858-4.678 9.807-10.602 12.32c-5.924-2.513-10.219-7.461-10.602-12.318c-.322 4.244-3.187 5.669-3.187 5.669M24 17.328c.598 0 .766-.337 1.532-.245c.461.055.812.414.812 1.18c0 1.593-1.394 1.577-2.344 1.577"/><ellipse cx="26.697" cy="13.988" fill="none" stroke="currentColor" stroke-linecap="round" stroke-linejoin="round" rx="1.148" ry="1.486" transform="rotate(-18.256 26.696 13.988)"/><path fill="none" stroke="currentColor" stroke-linecap="round" stroke-linejoin="round" d="M21.238 28.483c-1.47-2.287-1.747-4.983.218-4.999c1.414-.011.912 1.896.912 1.896c.812-.815 1.866-1.38 2.283-.746c.574.873-3.413 3.849-3.413 3.849"/></svg>