<svg xmlns="http://www.w3.org/2000/svg" width="1em" height="1em" viewBox="0 0 48 48"><path fill="none" stroke="currentColor" stroke-linecap="round" stroke-linejoin="round" d="M12.044 37.261h3.783a.22.22 0 0 0 .203-.3c-2.513-6.442-1.442-11.835 5.891-16.706a.221.221 0 0 0 .068-.298l-1.002-1.623a.216.216 0 0 1 .227-.326l8.901 1.743a.217.217 0 0 1 .17.263l-2.112 8.923a.217.217 0 0 1-.398.06l-.998-1.69a.21.21 0 0 0-.356-.014c-2.445 3.623-.359 7.504 2.643 9.005c4.414 2.207 9.708 1.25 13.024-3.749c3.642-5.49.045-14.524-8.567-14.635a.228.228 0 0 1-.21-.154c-3.46-10.338-20.275-9.907-21.255 3.901a.232.232 0 0 1-.201.21c-10.702 1.214-8.926 15.39.189 15.39"/></svg>