<svg xmlns="http://www.w3.org/2000/svg" width="1em" height="1em" viewBox="0 0 48 48"><path fill="none" stroke="currentColor" stroke-linecap="round" stroke-linejoin="round" d="m8.34 8.214l15.762-2.676a2.665 2.665 0 0 1 3.075 2.18s0 0 0 0l4.196 24.737a2.665 2.665 0 0 1-2.179 3.075s0 0 0 0l-15.761 2.675a2.665 2.665 0 0 1-3.064-2.18L6.16 11.29a2.665 2.665 0 0 1 2.18-3.075z"/><path fill="none" stroke="currentColor" stroke-linecap="round" stroke-linejoin="round" d="m27.533 9.972l9.752 2.428c3.935.77 5.34 2.812 4.219 6.127l-5.179 20.65c-.755 2.92-2.693 3.915-5.815 2.987L19.7 39.618c-1.294-.287-2.592-.866-3.894-1.736"/></svg>