<svg xmlns="http://www.w3.org/2000/svg" width="1em" height="1em" viewBox="0 0 48 48"><path fill="none" stroke="currentColor" stroke-linecap="round" stroke-linejoin="round" d="M39.765 20.623v-3.16L35.6 20.265H25.217c-3.135 0-5.7 2.565-5.7 5.7v8.123c0 3.134 2.565 5.7 5.7 5.7H37.8c3.135 0 5.7-2.565 5.7-5.7v-8.123c0-2.444-1.562-4.536-3.735-5.342"/><path fill="none" stroke="currentColor" stroke-linecap="round" stroke-linejoin="round" d="M8.235 27.377v3.16l4.165-2.802h10.383c3.135 0 5.7-2.565 5.7-5.7v-8.122c0-3.135-2.565-5.7-5.7-5.7H10.2c-3.135 0-5.7 2.565-5.7 5.7v8.122c0 2.444 1.562 4.536 3.735 5.342"/></svg>