<svg xmlns="http://www.w3.org/2000/svg" width="1em" height="1em" viewBox="0 0 48 48"><path fill="none" stroke="currentColor" stroke-linecap="round" stroke-linejoin="round" d="M23.296 12.576c5.955 0 10.787 4.796 10.787 10.715c0 5.929-4.832 10.725-10.787 10.725c-5.964 0-10.796-4.796-10.796-10.725c0-5.92 4.832-10.715 10.796-10.715m7.568 18.346l4.636 4.502"/><path fill="none" stroke="currentColor" stroke-linecap="round" stroke-linejoin="round" d="M40.5 5.5h-33a2 2 0 0 0-2 2v33a2 2 0 0 0 2 2h33a2 2 0 0 0 2-2v-33a2 2 0 0 0-2-2"/></svg>