<svg xmlns="http://www.w3.org/2000/svg" width="1em" height="1em" viewBox="0 0 48 48"><path fill="none" stroke="currentColor" stroke-linecap="round" stroke-linejoin="round" d="M24.988 30.37c3.591 1.84 6.515 1.831 9.173-.984m4.156-5.036a1.967 1.967 0 1 1-3.934 0a1.967 1.967 0 0 1 3.934 0m-14.211 1.053c0 1.086-.88 1.967-1.967 1.967h0a1.967 1.967 0 1 1 1.967-1.967M15.556 5.5l25.536.905c.637-.19.652 9.493.591 14.317c-.083 6.592.028 19.777.028 19.777l-2.573-2.039c-.859-.68-1.303-.83-2.105.009l-3.09 3.232l-3.416-2.437c-.696-.496-1.157-1.062-2.337 0l-3.117 2.804l-3.855-2.492c-.512-.33-1.152-1.103-2.246.148L16.546 42.5c-.884-17.175-.58-25.606-.99-37M6.334 9.707s-.076 3.272-.029 4.907c.256 8.92 1.693 26.716 1.693 26.716l2.534-1.1c.531-.23.59-.121 1.047.08M15.556 5.5L6.334 9.707l3.664 6.19M15.556 5.5L9.998 15.898l1.58 24.412l4.968 2.19"/></svg>