<svg xmlns="http://www.w3.org/2000/svg" width="1em" height="1em" viewBox="0 0 48 48"><circle cx="24" cy="24" r=".75" fill="currentColor"/><path fill="none" stroke="currentColor" stroke-linecap="round" stroke-linejoin="round" d="M27.363 31V17h4.55a4.725 4.725 0 1 1 0 9.45h-4.55m4.9 0L36.638 31M12.363 17h9.275m-4.55 0v14"/><path fill="none" stroke="currentColor" stroke-linecap="round" stroke-linejoin="round" d="M5.5 19.6v20.9a2 2 0 0 0 2 2h33a2 2 0 0 0 2-2v-33a2 2 0 0 0-2-2h-33a2 2 0 0 0-2 2z"/></svg>