<svg xmlns="http://www.w3.org/2000/svg" width="1em" height="1em" viewBox="0 0 48 48"><circle cx="13.59" cy="11.903" r="4.799" fill="none" stroke="currentColor" stroke-linecap="round" stroke-linejoin="round"/><path fill="none" stroke="currentColor" stroke-linecap="round" stroke-linejoin="round" d="M21.862 5.504c-.823 5.987-1.234 8.318-1.234 12.797c0 2.651 1.442 4.159 3.372 4.159M13.453 42.504V25.157a4.316 4.316 0 0 1 1.37-3.29a3.626 3.626 0 0 0-3.427 3.015a28.449 28.449 0 0 1 .366-6.124c-2.56 1.326-3.337 2.194-3.611 4.022a8.85 8.85 0 0 1 .64-3.61A7.192 7.192 0 0 0 5.5 25.384v14.488"/><path fill="none" stroke="currentColor" stroke-linecap="round" stroke-linejoin="round" d="M20.63 17.89a3.738 3.738 0 0 0-3.083 5.642"/><path fill="none" stroke="currentColor" stroke-linecap="round" stroke-linejoin="round" d="M13.453 26.162c1.85-1.805 4.87-3.702 10.547-3.702m-10.547 8.362A15.01 15.01 0 0 1 24 26.985M13.453 40.392C17.337 38.289 22.1 38.228 24 38.228"/><path fill="none" stroke="currentColor" stroke-linecap="round" stroke-linejoin="round" d="M18.211 27.934c0 3.347-.234 6.882 2.844 6.882S24 30.397 24 26.985"/><path fill="none" stroke="currentColor" stroke-linecap="round" stroke-linejoin="round" d="M18.227 30.527c0 2.262-.478 4.502-1.53 4.502s-1.163-1.844-1.163-5.744"/><path fill="none" stroke="currentColor" stroke-linecap="round" stroke-linejoin="round" d="M13.453 36.446c1.005.251 2.12-.984 2.12-4.503m4.829-9.191l-.985-.772"/><circle cx="13.59" cy="11.903" r="1.493" fill="none" stroke="currentColor" stroke-linecap="round" stroke-linejoin="round"/><path fill="none" stroke="currentColor" stroke-linecap="round" stroke-linejoin="round" d="M40.5 5.504h-33a2 2 0 0 0-2 2v33a2 2 0 0 0 2 2h33a2 2 0 0 0 2-2v-33a2 2 0 0 0-2-2"/><path fill="none" stroke="currentColor" stroke-linecap="round" stroke-linejoin="round" d="M19.731 38.485c0-1.338.47-2.314 2.024-2.314a1.84 1.84 0 0 1 1.798 2.059m-8.333 1.357c0-1.71.122-2.502 1.828-2.838c1.913-.376 2.453 1.736 2.453 1.736m-4.281.581a1.515 1.515 0 0 0-1.767-1.226"/><circle cx="34.41" cy="11.903" r="4.799" fill="none" stroke="currentColor" stroke-linecap="round" stroke-linejoin="round"/><path fill="none" stroke="currentColor" stroke-linecap="round" stroke-linejoin="round" d="M26.138 5.504c.823 5.987 1.234 8.318 1.234 12.797c0 2.651-1.442 4.159-3.372 4.159m10.548 20.044V25.157a4.316 4.316 0 0 0-1.372-3.29a3.626 3.626 0 0 1 3.428 3.015a28.449 28.449 0 0 0-.366-6.124c2.56 1.326 3.337 2.194 3.611 4.022a8.85 8.85 0 0 0-.64-3.61a7.192 7.192 0 0 1 3.291 6.215v14.488"/><path fill="none" stroke="currentColor" stroke-linecap="round" stroke-linejoin="round" d="M27.37 17.89a3.738 3.738 0 0 1 3.083 5.642"/><path fill="none" stroke="currentColor" stroke-linecap="round" stroke-linejoin="round" d="M34.548 26.162C32.696 24.357 29.678 22.46 24 22.46m10.548 8.362A15.01 15.01 0 0 0 24 26.985m10.548 13.407c-3.885-2.103-8.649-2.164-10.548-2.164"/><path fill="none" stroke="currentColor" stroke-linecap="round" stroke-linejoin="round" d="M29.789 27.934c0 3.347.234 6.882-2.844 6.882S24 30.397 24 26.985"/><path fill="none" stroke="currentColor" stroke-linecap="round" stroke-linejoin="round" d="M29.774 30.527c0 2.262.477 4.502 1.528 4.502s1.164-1.844 1.164-5.744"/><path fill="none" stroke="currentColor" stroke-linecap="round" stroke-linejoin="round" d="M34.548 36.446c-1.006.251-2.12-.984-2.12-4.503m-4.83-9.191l.985-.772"/><circle cx="34.41" cy="11.903" r="1.493" fill="none" stroke="currentColor" stroke-linecap="round" stroke-linejoin="round"/><path fill="none" stroke="currentColor" stroke-linecap="round" stroke-linejoin="round" d="M28.269 38.485c0-1.338-.47-2.314-2.024-2.314a1.84 1.84 0 0 0-1.798 2.059m8.333 1.357c0-1.71-.122-2.502-1.827-2.838c-1.914-.376-2.454 1.736-2.454 1.736m4.281.581a1.515 1.515 0 0 1 1.767-1.226"/></svg>