<svg xmlns="http://www.w3.org/2000/svg" width="1em" height="1em" viewBox="0 0 48 48"><path fill="none" stroke="currentColor" stroke-linecap="round" stroke-linejoin="round" d="M17.591 13.92a2.698 2.698 0 0 0-3.815.013h-.001h0a2.698 2.698 0 0 0-.004 3.816s0 0 0 0zm16.5 16.466a2.698 2.698 0 0 1-.003 3.816h-.001h0a2.698 2.698 0 0 1-3.816.013v-.001zM15.52 32.497l16.07-16.103m-5.234-5.223l10.467 10.445M30.83 37.64l-2.704-2.698a4.504 4.504 0 0 1-.021-6.37l.014-.014l.448-.45a4.504 4.504 0 0 1 6.385-.006l2.703 2.698M17.17 10.357l2.704 2.698a4.504 4.504 0 0 1 .021 6.37l-.014.014l-.448.45a4.504 4.504 0 0 1-6.385.006l-2.703-2.698M29.672 4.5L43.49 18.29m-.307 6.97l-5.528 5.539m-6.826 6.84l-5.527 5.54m-6.97.321L4.51 29.707m.317-6.98l5.518-5.53m6.826-6.84l5.527-5.54m2.614 38.35c-2.385-1.537-5.24-1.421-6.938.28a4.445 4.445 0 0 0-.048.049M4.514 29.713l.049-.048c1.697-1.702 1.806-4.557.265-6.938m38.343 2.542c-1.541-2.381-1.432-5.237.266-6.938l.049-.047M29.673 4.5a4.246 4.246 0 0 1-.047.048h0c-1.698 1.701-4.553 1.817-6.938.28"/></svg>