<svg xmlns="http://www.w3.org/2000/svg" width="1em" height="1em" viewBox="0 0 48 48"><path fill="none" stroke="currentColor" stroke-linecap="round" stroke-linejoin="round" d="m36.386 11.078l-.003-.002c-.013-.01-.03-.014-.042-.023a1.27 1.27 0 0 0-.582-1.178c-1.996-1.28-5.856-3.147-9.68-1.615V5.355c0-1.19-.863-2.16-1.923-2.16h-1.723c-1.061 0-1.924.97-1.924 2.16v3.182c-1.724-.307-5.48-.61-9.09 1.545a1.28 1.28 0 0 0-.546 1.572c.023.061.065.107.095.162c-.08.02-.161.039-.24.06c-.182.048-.358.14-.51.264C5.948 15.692 3.5 20.757 3.5 26.035c0 10.35 9.196 18.77 20.5 18.77s20.5-8.42 20.5-18.77c0-5.921-2.957-11.373-8.114-14.957"/><path fill="none" stroke="currentColor" stroke-linecap="round" stroke-linejoin="round" d="M36.383 11.076c-2.72-.465-6.043-.856-6.62 1.261c-.095.642.207 1.27.769 1.601c2.016 1.227 3.122 2.536 3.71 4.426c-2.426-1.839-6.342-3.418-8.385-2.187a1.592 1.592 0 0 0-.473 1.154c.075 4.814-1.588 8.043-2.556 9.504c-.923-1.957-1.208-6.167-1.156-9.627a1.576 1.576 0 0 0-1.387-1.582c-2.825-.28-5.458 1.272-7.67 2.867c.908-1.658 2.235-3.214 3.663-4.269c.678-.449 1.437-.977 1.305-1.9c-.732-2.544-4.37-1.832-6.615-.508m-4.306 15.41a8.777 8.777 0 0 0 1.13 3.213M7.38 20.85a10.925 10.925 0 0 0-.629 2.972"/></svg>