<svg xmlns="http://www.w3.org/2000/svg" width="1em" height="1em" viewBox="0 0 48 48"><circle cx="24" cy="24" r="21.5" fill="none" stroke="currentColor" stroke-linecap="round" stroke-linejoin="round"/><path fill="none" stroke="currentColor" stroke-linecap="round" stroke-linejoin="round" d="M39.5 38.9V15.082a2 2 0 0 0-2-2h-27a2 2 0 0 0-2 2V38.9"/><path fill="none" stroke="currentColor" stroke-linecap="round" stroke-linejoin="round" d="M34.042 18.605H13.958a2 2 0 0 0-2 2v11.148a2 2 0 0 0 2 2h20.084a2 2 0 0 0 2-2V20.605a2 2 0 0 0-2-2M27.75 39.11c-1.121 1.163-2.422 1.78-3.75 1.78c-1.328 0-2.629-.617-3.75-1.78"/><circle cx="18.048" cy="26.136" r="3.048" fill="none" stroke="currentColor" stroke-linecap="round" stroke-linejoin="round"/><circle cx="29.952" cy="26.136" r="3.048" fill="none" stroke="currentColor" stroke-linecap="round" stroke-linejoin="round"/><path fill="none" stroke="currentColor" stroke-linecap="round" stroke-linejoin="round" d="M24 13.082v-5.92m4.106 8.681h-8.211"/><circle cx="17.593" cy="15.843" r=".75" fill="currentColor"/><circle cx="18.048" cy="26.179" r=".75" fill="currentColor"/><circle cx="29.952" cy="26.179" r=".75" fill="currentColor"/><circle cx="30.419" cy="15.843" r=".75" fill="currentColor"/><path fill="none" stroke="currentColor" stroke-linecap="round" stroke-linejoin="round" d="M24.821 6.342a.821.821 0 1 1-1.642 0a.821.821 0 0 1 1.642 0"/></svg>