<svg xmlns="http://www.w3.org/2000/svg" width="1em" height="1em" viewBox="0 0 48 48"><path fill="none" stroke="currentColor" stroke-linecap="round" stroke-linejoin="round" d="M19.379 42.071s-2.856-.454-6.917-1.596c0 0-1.736-17.27-3.859-30.004c3.744-3.314 8.744-4.35 8.744-4.35"/><circle cx="16.413" cy="31.36" r="4.939" fill="none" stroke="currentColor" stroke-linecap="round" stroke-linejoin="round"/><path fill="none" stroke="currentColor" stroke-linecap="round" stroke-linejoin="round" d="m13.003 7.644l1.963 13.442m6.352.894c.561-2.568 2.57-5.068 2.57-5.068m4.733 25.159s2.856-.454 6.917-1.596c0 0 1.736-17.27 3.859-30.004c-3.744-3.314-8.744-4.35-8.744-4.35"/><circle cx="31.587" cy="31.36" r="4.939" fill="none" stroke="currentColor" stroke-linecap="round" stroke-linejoin="round"/><path fill="none" stroke="currentColor" stroke-linecap="round" stroke-linejoin="round" d="M28.986 21.22s-1.436-5.58-2.338-8c0 0 3.487-6.077 4.388-7.814c0 0-2.771-.858-5.183-.906c0 0-1.081 2.093-1.853 4.264c-.772-2.17-1.853-4.264-1.853-4.264c-2.412.048-5.183.906-5.183.906c.9 1.737 4.388 7.815 4.388 7.815c-.901 2.419-2.338 7.999-2.338 7.999M24 34.258c2.433 2.322 4.621 7.813 4.621 7.813c-1.518 1.25-3.08 1.429-4.621 1.429c-1.54 0-3.103-.179-4.621-1.429c0 0 2.188-5.491 4.621-7.813"/><path fill="none" stroke="currentColor" stroke-linecap="round" stroke-linejoin="round" d="M37.532 23.3c-2.928-2.972-8.51-3.486-13.532.6c-5.022-4.086-10.604-3.572-13.532-.6M34.997 7.644l-1.963 13.442"/><path fill="none" stroke="currentColor" stroke-linecap="round" stroke-linejoin="round" d="M26.682 21.98c-.561-2.568-2.57-5.068-2.57-5.068M12.17 37.692c2.4 1.088 8.688 1.187 8.688 1.187m14.969-1.187c-2.4 1.088-8.688 1.187-8.688 1.187"/></svg>