<svg xmlns="http://www.w3.org/2000/svg" width="1em" height="1em" viewBox="0 0 48 48"><path fill="none" stroke="currentColor" stroke-linecap="round" stroke-linejoin="round" d="M37.555 33.151H18.41a2.156 2.156 0 0 1-2.059-2.795l4.344-13.99a2.156 2.156 0 0 1 2.059-1.517h19.195a2.156 2.156 0 0 1 2.057 2.802l-4.394 13.99a2.156 2.156 0 0 1-2.057 1.51"/><path fill="none" stroke="currentColor" stroke-linecap="round" stroke-linejoin="round" d="m27.64 18.45l-2.695 9.15a.536.536 0 0 0 .723.645l9.673-4.095a.536.536 0 0 0 .105-.928l-6.977-5.055a.536.536 0 0 0-.83.283ZM7.957 24h7.45m-9.366 6.794h7.4m-9.547-3.27h7.284"/></svg>