<svg xmlns="http://www.w3.org/2000/svg" width="1em" height="1em" viewBox="0 0 48 48"><path fill="none" stroke="currentColor" stroke-linecap="round" stroke-linejoin="round" d="M14.49 13.4h5.2m8.62 0h5.2m-11.787 8v-8h2.6c1.5 0 2.7 1.2 2.7 2.7s-1.2 2.7-2.7 2.7h-2.6m2.698-.002l2.502 2.502m-9.833.1v-8m13.82 8v-8"/><path fill="none" stroke="currentColor" stroke-linecap="round" stroke-linejoin="round" d="M40.5 5.5h-33a2 2 0 0 0-2 2v33a2 2 0 0 0 2 2h33a2 2 0 0 0 2-2v-33a2 2 0 0 0-2-2"/><path fill="none" stroke="currentColor" stroke-linecap="round" stroke-linejoin="round" d="M23.83 26.6v8h4m-14.12-8v8m2.46-8h5.2l-5.2 8h5.2m8.92-4h2.6m1.4 4h-4v-8h4"/></svg>