<svg xmlns="http://www.w3.org/2000/svg" width="1em" height="1em" viewBox="0 0 48 48"><path fill="none" stroke="currentColor" stroke-linecap="round" stroke-linejoin="round" d="M21.723 21.4v-8h2.6c1.5 0 2.7 1.2 2.7 2.7s-1.2 2.7-2.7 2.7h-2.6m2.698-.002l2.502 2.502M14.49 13.4h5.2m-2.6 8v-8m11.22 0h5.2m-2.6 8v-8m3.49 21.2v-8H37c1.5 0 2.7 1.2 2.7 2.7S38.5 32 37 32h-2.6m2.698-.002L39.6 34.5M8.3 26.6v8m5.3-8v8m-5.3-4.1h5.3m15.3.1h2.6m1.4 4h-4v-8h4m-7.5 4c1.1 0 2 .9 2 2s-.9 2-2 2h-3.3v-8h3.3c1.1 0 2 .9 2 2s-.9 2-2 2m0 0h-3.3m-2.45 1.3h-3.6m-.9 2.7l2.7-8l2.7 8"/><path fill="none" stroke="currentColor" stroke-linecap="round" stroke-linejoin="round" d="M40.5 5.5h-33a2 2 0 0 0-2 2v33a2 2 0 0 0 2 2h33a2 2 0 0 0 2-2v-33a2 2 0 0 0-2-2"/></svg>