<svg xmlns="http://www.w3.org/2000/svg" width="1em" height="1em" viewBox="0 0 48 48"><path fill="none" stroke="currentColor" stroke-linecap="round" stroke-linejoin="round" d="m35.422 15.922l-3.291-3.291l-2.593-2.6l-1.638 1.638l-.954.954l-2.247 2.254l-.699.7l-.699-.7l-2.246-2.254l-.955-.954l-1.638-1.63l-5.884 5.883c-6.312 6.305-6.312 16.54 0 22.844c6.305 6.312 16.54 6.312 22.844 0c6.312-6.305 6.312-16.54 0-22.844M24 20.762l3.291 3.29c1.819 1.82 1.819 4.765 0 6.583s-4.764 1.819-6.582 0s-1.819-4.764 0-6.582zm8.83 15.411c-4.877 4.885-12.783 4.885-17.66 0c-4.884-4.877-4.884-12.782 0-17.659l3.292-3.29l2.945 2.945l-3.29 3.291a8.314 8.314 0 0 0 0 11.768A8.275 8.275 0 0 0 24 35.67a8.22 8.22 0 0 0 3.952-1a8.409 8.409 0 0 0 1.932-1.442a8.314 8.314 0 0 0 0-11.768l-3.292-3.291l2.946-2.946l3.291 3.291c4.885 4.877 4.885 12.783 0 17.66Z"/><path fill="none" stroke="currentColor" stroke-linecap="round" stroke-linejoin="round" d="M27.416 7.906L24 11.323l-3.416-3.407L24 4.5zM24 15.576l-2.593 2.593M24 20.761l1.593-1.593l1-.999"/><path fill="none" stroke="currentColor" stroke-linecap="round" stroke-linejoin="round" d="M27.416 7.906L24 11.323l-3.416-3.407L24 4.5z"/></svg>