<svg xmlns="http://www.w3.org/2000/svg" width="1em" height="1em" viewBox="0 0 48 48"><circle cx="24" cy="24" r="7.688" fill="none" stroke="currentColor" stroke-linecap="round" stroke-linejoin="round"/><circle cx="36.813" cy="24" r="7.688" fill="none" stroke="currentColor" stroke-linecap="round" stroke-linejoin="round"/><circle cx="11.188" cy="24" r="7.688" fill="none" stroke="currentColor" stroke-linecap="round" stroke-linejoin="round"/><path fill="none" stroke="currentColor" stroke-linecap="round" stroke-linejoin="round" d="M8.537 20h5.301m-2.65 8v-8m10.32 7.124A2.238 2.238 0 0 0 23.47 28h1.184a1.998 1.998 0 0 0 1.996-2h0a1.998 1.998 0 0 0-1.996-2h-1.308a1.998 1.998 0 0 1-1.996-2h0a1.998 1.998 0 0 1 1.996-2h1.184a2.238 2.238 0 0 1 1.962.877M37.463 24a2 2 0 0 1 0 4h-3.3v-8h3.3a2 2 0 0 1 0 4m-.001 0h-3.299"/></svg>