<svg xmlns="http://www.w3.org/2000/svg" width="1em" height="1em" viewBox="0 0 48 48"><path fill="none" stroke="currentColor" stroke-linecap="round" stroke-linejoin="round" d="M24.939 6.941a16.3 16.3 0 0 1 .904 5.351h0a16.29 16.29 0 0 1-1.559 6.952m-9.326 8.414a16.289 16.289 0 0 1-10.345.155M18.235 7.01a10.161 10.161 0 0 1 1.48 5.281h0c0 5.611-4.549 10.16-10.16 10.161A10.16 10.16 0 0 1 4.5 21.107m20.985 19.952h11.199m-9.083-6.466v-9.12l8.52 4.56zm-6.765-12.84h20.497c1.2 0 2.167.967 2.167 2.167v12.495c0 1.2-.967 2.167-2.167 2.167H20.836c-1.2 0-2.167-.967-2.167-2.167V23.92c0-1.2.967-2.167 2.167-2.167"/></svg>