<svg xmlns="http://www.w3.org/2000/svg" width="1em" height="1em" viewBox="0 0 48 48"><path fill="none" stroke="currentColor" stroke-linecap="round" stroke-linejoin="round" d="M40.5 5.5h-33a2 2 0 0 0-2 2v33a2 2 0 0 0 2 2h33a2 2 0 0 0 2-2v-33a2 2 0 0 0-2-2M12.01 20h5.2m-2.6 8v-8"/><path fill="none" stroke="currentColor" stroke-linecap="round" stroke-linejoin="round" d="m25.21 20l-2.6 8l-2.6-8m12.58 4c-1.1 0-2 .9-2 2s.9 2 2 2h1.3c1.1 0 2-.9 2-2s-.9-2-2-2m.1 0c1.1 0 2-.9 2-2s-.9-2-2-2h-1.3c-1.1 0-2 .9-2 2s.9 2 2 2m-.1 0h1.4"/></svg>