<svg xmlns="http://www.w3.org/2000/svg" width="1em" height="1em" viewBox="0 0 48 48"><path fill="none" stroke="currentColor" stroke-linecap="round" stroke-linejoin="round" d="M20.694 13.29c1.175-6.599 3.403-7.663 3.403-7.663c5.557 3.932 5.648 10.666 5.648 10.666c5.694-4.79 11.825-2.378 12.564-.497c.994 2.53-2.034 7.683-5.695 9.988c2.488 3.747 2.643 9.205 2.53 12.012c-.043 1.035-.949 1.801-1.982 1.729c-7.745-.545-11.213-4.748-11.213-4.748c-1.949 4.203-9.762 8.316-11.457 7.49c-2.494-1.217-4.18-7.264-2.192-14.45c-4.926-3.977-7.23-7.23-6.734-9.4s3.209-4.971 9.265-4.971c5.378 0 9.942 5.923 9.942 5.923c-4.108-1.375-9.25-2.032-12.79-.56c4.204 2.455 8.045 4.583 8.497 6.613c.485 2.176-1.085 6.644-1.085 6.644c2.35-3.3 4.791-4.927 6.463-4.927s8.09 5.966 8.09 5.966c.316-3.073-1.898-7.909-1.898-7.909c5.468-5.107 6.824-8.09 6.824-8.09c-4.113-1.898-9.13-.813-9.13-.813"/></svg>