<svg xmlns="http://www.w3.org/2000/svg" width="1em" height="1em" viewBox="0 0 48 48"><circle cx="8.609" cy="22.82" r="6.109" fill="none" stroke="currentColor" stroke-linecap="round" stroke-linejoin="round"/><circle cx="34.051" cy="9.424" r="6.109" fill="none" stroke="currentColor" stroke-linecap="round" stroke-linejoin="round"/><circle cx="32.675" cy="38.576" r="6.109" fill="none" stroke="currentColor" stroke-linecap="round" stroke-linejoin="round"/><path fill="none" stroke="currentColor" stroke-linecap="round" stroke-linejoin="round" d="M38.239 36.052A17.351 17.351 0 0 0 43.084 24a17.34 17.34 0 0 0-3.975-11.074M8.969 28.918c2.122 7.22 8.798 12.492 16.706 12.492c.523 0 1.04-.023 1.552-.069m1.295-34.519a17.539 17.539 0 0 0-2.833-.232h-.015c-6.075 0-11.424 3.113-14.539 7.83a17.38 17.38 0 0 0-1.33 2.408"/></svg>