<svg xmlns="http://www.w3.org/2000/svg" width="1em" height="1em" viewBox="0 0 48 48"><path fill="none" stroke="currentColor" stroke-linecap="round" stroke-linejoin="round" d="M29.075 19.36c.516-.02.907.447.698 1.287l-2.518 11.866c-.176.843-.73 1.117-1.391.655c-1.585-1.107-6.005-4.436-6.005-4.436a.182.182 0 0 1-.005-.292l6.942-6.265l-9.185 5.33a.194.194 0 0 1-.18.02l-3.696-1.153c-.82-.251-.825-.814.184-1.219l14.784-5.701a.99.99 0 0 1 .372-.092"/><path fill="none" stroke="currentColor" stroke-linecap="round" stroke-linejoin="round" d="M23.412 11c5.293-.29 10.8 2.76 12.63 9.75c10.375 1.408 9.484 15.304.06 16.27H13.275c-10.94-1.473-12.436-17.4 0-19.543A12.028 12.028 0 0 1 23.412 11m0 0"/></svg>