<svg xmlns="http://www.w3.org/2000/svg" width="1em" height="1em" viewBox="0 0 48 48"><circle cx="24" cy="24" r="21.5" fill="none" stroke="currentColor" stroke-linecap="round" stroke-linejoin="round"/><path fill="none" stroke="currentColor" stroke-linecap="round" stroke-linejoin="round" d="M35.608 25.117c-2.778.888-2.284.542-2.418-.457c-9.289 1.298-16.4 11.359-12.174 15.794l.996 1.046l-1.583-.408c-10.701-2.76-1.16-18.42 11.975-20.913c0 0 .414-.044.135-.556c-1.055-1.931 5.501 1.926 7.255 4.532c.41.608-1.813.203-4.186.961zm-9.194 6.141c-3.623 3.229-6.051 10.005 1.08 9.704c-.961-3.708.551-7.403 4.506-8.507c2.442-.681 3.633.943 3.402 2.463l-.196 1.284c-.065 1.009 1.986-1.893 2.438-3.265c1.861-5.645-4.996-7.233-11.23-1.679m6.602-14.42c-9.903 1.294-18.236 9.88-19.515 15.02m-2.849-1.974c1.72-7.687 11.342-15.204 18.09-16.224m-15.21 6.21c.634.567 1.055.943.355 1.277c-.7.334-2.324.786-4.26 2.27c-1.553 1.19 1.316-6.773 1.916-7.16c.15-.097.396.837.77.422c1.657-1.844 13.626-12.466 21.368-5.21c-10.31-2.478-20.84 7.782-20.149 8.4zM8.158 17.3c.548-5.486 8.046-10.494 12.398-10.8"/></svg>