<svg xmlns="http://www.w3.org/2000/svg" width="1em" height="1em" viewBox="0 0 48 48"><g fill="none" stroke="currentColor" stroke-linecap="round" stroke-linejoin="round"><path d="m15.098 34.279l2.2 2.198a.928.928 0 0 1 .003 1.313l-.004.004l-1.08 1.079a.928.928 0 0 1-1.313.003l-.003-.003l-2.199-2.2a.928.928 0 0 1-.003-1.312l.003-.002l1.08-1.08a.928.928 0 0 1 1.311-.005zm-1.295 3.494L9.076 42.5M34.262 9.728l7.587 7.587m-6.758 2.06l4.037-4.035m-6.926 1.145l4.035-4.035m-14.98 18.593l2.529 2.53m.36-5.42l2.53 2.529m.36-5.419l2.53 2.529m.361-5.42l2.53 2.53m-.929-8.875l4.022 4.022a1.75 1.75 0 0 1 .006 2.475l-.006.006l-14.86 14.859a1.75 1.75 0 0 1-2.475.006l-.006-.006l-4.022-4.022a1.75 1.75 0 0 1-.006-2.475l.006-.006l14.86-14.86a1.75 1.75 0 0 1 2.475-.005z"/><path d="M15.73 17.098v2.554h2.555v2.555h-2.554v2.554h-2.555v-2.554h-2.554v-2.555h2.554v-2.554zm2.428-8.22v3.11s4.598.254 4.598 3.832v6.524M10.75 8.876v3.113s-4.599.28-4.599 3.831v12.861c0 .674.665 1.394 1.339 1.394h7.52M9.85 5.5h9.207c.493 0 .889.397.889.889v1.543a.887.887 0 0 1-.889.889H9.85a.888.888 0 0 1-.889-.887V6.389c0-.492.397-.889.89-.889Z"/></g></svg>