<svg xmlns="http://www.w3.org/2000/svg" width="1em" height="1em" viewBox="0 0 48 48"><g fill="none" stroke="currentColor" stroke-linecap="round" stroke-linejoin="round"><path d="M21.09 28.416a8.295 8.295 0 1 1 0-.01z"/><path d="M16.99 28.406a3.648 3.648 0 1 1 0-.004zm4.333-14.648l2.627 19.333l5.066.61l-.346-8.16l1.208-.15l1.523 6.9l4.15-.091l-1.893-19.016l-4.486-.182l.091 7.365l-1.145.11s-1.293-8.1-1.612-8.857c-.162-.383-.204-.405-.645-.21c-.225.1-4.538 2.348-4.538 2.348M43.5 30.477a2.915 2.915 0 1 1 0-.003zm-.67-3.887l-4.186-.635l-.768-12.392l5.285-.72z"/></g></svg>