<svg xmlns="http://www.w3.org/2000/svg" width="1em" height="1em" viewBox="0 0 48 48"><path fill="none" stroke="currentColor" stroke-linecap="round" stroke-linejoin="round" d="M40.5 5.5h-33a2 2 0 0 0-2 2v33a2 2 0 0 0 2 2h33a2 2 0 0 0 2-2v-33a2 2 0 0 0-2-2"/><path fill="none" stroke="currentColor" stroke-linecap="round" stroke-linejoin="round" d="M10.78 5.5c-.45 1.62-.69 3.34-.69 5.11c0 10.61 8.6 19.21 19.21 19.21v6.13c5.11 0 9.76-2 13.2-5.27"/><circle cx="17.969" cy="14.493" r="2.903" fill="none" stroke="currentColor" stroke-linecap="round" stroke-linejoin="round"/><circle cx="26.953" cy="14.493" r="2.903" fill="none" stroke="currentColor" stroke-linecap="round" stroke-linejoin="round"/><circle cx="35.938" cy="14.493" r="2.903" fill="none" stroke="currentColor" stroke-linecap="round" stroke-linejoin="round"/></svg>