<svg xmlns="http://www.w3.org/2000/svg" width="1em" height="1em" viewBox="0 0 48 48"><path fill="none" stroke="currentColor" stroke-linecap="round" stroke-linejoin="round" d="m14.434 40.872l12.83-7.564a5.647 5.647 0 0 0 2.779-4.864v-15.64c0-5.099-5.542-8.265-9.934-5.676l-12.83 7.564A5.647 5.647 0 0 0 4.5 19.556v15.64c0 5.099 5.542 8.265 9.934 5.676"/><path fill="none" stroke="currentColor" stroke-linecap="round" stroke-linejoin="round" d="m27.891 40.872l12.83-7.564a5.647 5.647 0 0 0 2.779-4.864v-15.64c0-5.099-5.542-8.265-9.934-5.676l-12.83 7.564a5.647 5.647 0 0 0-2.779 4.864v15.64c0 5.099 5.542 8.265 9.934 5.676"/></svg>