<svg xmlns="http://www.w3.org/2000/svg" width="1em" height="1em" viewBox="0 0 48 48"><path fill="none" stroke="currentColor" stroke-linecap="round" stroke-linejoin="round" d="m4.5 12.482l5.147 13.752c1.704 4.11 6.113 4.62 7.841 4.353l-4.767-12.75C10.884 13.84 8.18 11.966 4.5 12.483m10.063 5.05l3.38 9.187c1.171 2.907 5.125 4.698 7.614 4.1l-3.243-9.086c-1.22-3.495-5.111-4.331-7.751-4.2Z"/><path fill="none" stroke="currentColor" stroke-linecap="round" stroke-linejoin="round" d="m24.496 27.845l4.07-10.19c1.827-3.931 4.511-6.408 8.917-5.971l-7.275 18.77c-1.641 4.276-4.889 6.482-9.066 5.785l2.17-5.43m17.802-13.186h-3.288a1.113 1.113 0 1 0 0 2.226h.801c1.366 0 1.88-.72 2.487-2.226m2.386-5.989h-3.288a1.113 1.113 0 1 0 0 2.226h.801c1.366 0 1.88-.72 2.487-2.226"/></svg>