<svg xmlns="http://www.w3.org/2000/svg" width="1em" height="1em" viewBox="0 0 48 48"><path fill="none" stroke="currentColor" stroke-linecap="round" stroke-linejoin="round" d="M23.396 13.428a11.18 11.18 0 0 1 9.489 17.086m-9.49-17.085H9.865A4.356 4.356 0 0 0 5.5 17.796v20.342a4.354 4.354 0 0 0 4.365 4.365h20.341a4.357 4.357 0 0 0 4.368-4.365"/><path fill="none" stroke="currentColor" stroke-linecap="round" stroke-linejoin="round" d="M22.006 13.429v-3.235h4.262v3.61m3.611 1.698l2.861-2.862l2.595 2.62l-2.862 2.862m2.1 7.847h3.235v-4.262h-3.61"/><path fill="none" stroke="currentColor" stroke-linecap="round" stroke-linejoin="round" d="m32.499 18.097l2.861-2.862l-2.62-2.594l-2.862 2.861m-5.272 19.07a11.18 11.18 0 0 1-9.49-17.086"/><path fill="none" stroke="currentColor" stroke-linecap="round" stroke-linejoin="round" d="M24.606 34.571h13.53a4.356 4.356 0 0 0 4.364-4.367V9.862a4.354 4.354 0 0 0-4.364-4.365H17.794a4.357 4.357 0 0 0-4.368 4.365"/><path fill="none" stroke="currentColor" stroke-linecap="round" stroke-linejoin="round" d="M25.995 34.571v3.235h-4.263v-3.61m-3.609-1.698L15.26 35.36l-2.595-2.621l2.862-2.862m-2.098-7.846h-3.236v4.262h3.61"/><path fill="none" stroke="currentColor" stroke-linecap="round" stroke-linejoin="round" d="m15.502 29.903l-2.862 2.862l2.62 2.595l2.862-2.862"/><circle cx="24" cy="24" r="4.14" fill="none" stroke="currentColor" stroke-linecap="round" stroke-linejoin="round"/></svg>