<svg xmlns="http://www.w3.org/2000/svg" width="1em" height="1em" viewBox="0 0 48 48"><path fill="none" stroke="currentColor" stroke-linecap="round" stroke-linejoin="round" d="M13.613 18.112c.98 3.396 1.963 6.793 2.791 8.888c.828 2.095 1.503 2.888 2.156 2.888c.653 0 1.282-.793 2.049-2.303c.766-1.51 1.672-3.737 2.26-5.174c.578-1.415.851-2.066 1.132-2.095m0 0c.282.03.554.68 1.133 2.095c.588 1.437 1.49 3.664 2.257 5.174c.767 1.51 1.396 2.303 2.05 2.303c.652 0 1.33-.793 2.158-2.888c.828-2.095 1.808-5.492 2.789-8.888"/><path fill="none" stroke="currentColor" stroke-linecap="round" stroke-linejoin="round" d="M4.514 35.671H37.08M27.163 8.382c-4.768 0-8.52 0-12.114 1.51c-3.594 1.508-7.029 4.524-8.746 7.605c-1.717 3.08-1.716 6.227-1.73 9.924c-.016 3.697-.044 7.947-.073 12.197h16.333c4.769 0 8.524 0 12.118-1.51c3.594-1.508 7.026-4.524 8.743-7.605c1.717-3.08 1.72-6.227 1.734-9.924c.015-3.697.043-7.947.072-12.197z"/></svg>