<svg xmlns="http://www.w3.org/2000/svg" width="1em" height="1em" viewBox="0 0 48 48"><path fill="none" stroke="currentColor" stroke-linecap="round" stroke-linejoin="round" d="M18.668 27.133c1.948-.143 4.203-.716 4.203-2.528c0-1.766-4.26-1.974-4.26 1.728c0 3.884 3.61 3.858 6.481 1.806"/><path fill="none" stroke="currentColor" stroke-linecap="round" stroke-linejoin="round" d="M24.84 27.133c1.949-.143 4.203-.716 4.203-2.528c0-1.766-4.26-1.974-4.26 1.728c0 3.884 3.61 3.858 6.481 1.806"/><path fill="none" stroke="currentColor" stroke-linecap="round" stroke-linejoin="round" d="M31.073 27.128c1.948-.143 4.142-.711 4.142-2.523c0-1.766-4.26-1.974-4.26 1.728c0 3.884 4.595 4.469 7.206.24M19.68 18.857c-.663 2.962-4.58 10.133-6.782 10.133c-1.442 0 .78-5.554-.448-10.133c.297 3.16-4.287 10.133-5.943 10.133s.565-9.665-.643-9.665s-1.364.331-1.364.331m39-1.169c-1.5 1.812-2.475 4.403-2.864 7.19"/><circle cx="40.168" cy="28.451" r="1.052" fill="none" stroke="currentColor" stroke-linecap="round" stroke-linejoin="round"/></svg>