<svg xmlns="http://www.w3.org/2000/svg" width="1em" height="1em" viewBox="0 0 48 48"><path fill="none" stroke="currentColor" stroke-linecap="round" stroke-linejoin="round" d="M24 2.502c-11.884.013-21.508 9.657-21.495 21.541A21.519 21.519 0 0 0 5.152 34.36l-1.65 10.139l10.139-1.65c10.41 5.71 23.477 1.901 29.188-8.509c5.71-10.41 1.9-23.477-8.509-29.187A21.498 21.498 0 0 0 24 2.502"/><path fill="none" stroke="currentColor" stroke-linecap="round" stroke-linejoin="round" d="M17.004 32.122c2.312 2.187 4.485 2.429 4.485 2.429c1.812-1.62 2.8-3.066 3.902-6.164c0 0-4.305-4.175-5.185-5.489c0 0-2 1.026-3.549 1.168c-1.166.107-3.157-.49-3.157-.49c.016 1.664 1.154 6.323 3.504 8.546"/><path fill="none" stroke="currentColor" stroke-linecap="round" stroke-linejoin="round" d="M20.206 22.898c1.085-.613 3.07-2.026 3.99-1.226c.72.587 1.383 1.24 1.982 1.951c.626.818-.239 2.895-.787 4.764"/><path fill="none" stroke="currentColor" stroke-linecap="round" stroke-linejoin="round" d="M25.172 22.545c1.92-1.723 9.328-9.096 9.328-9.096M14.322 27.482c2.416.181 4.009-.349 4.009-.349m-1.791 4.502c3.529-.495 4.751-2.265 4.751-2.265"/></svg>