<svg xmlns="http://www.w3.org/2000/svg" width="1em" height="1em" viewBox="0 0 48 48"><path fill="none" stroke="currentColor" stroke-linecap="round" stroke-linejoin="round" d="m9.5 20.653l2.342 7.986a.85.85 0 0 0 1.616.047l1.893-5.289a.829.829 0 0 1 1.579.058l1.434 5.174a.83.83 0 0 0 1.58.058l3.565-9.937m2.038 10.487v-4.414m2.241-4.073h6.799a1.264 1.264 0 0 1 .676 2.33l-6.037 3.825a1.264 1.264 0 0 0 .677 2.332H38.5"/><circle cx="25.547" cy="22.562" r=".75" fill="currentColor"/><path fill="none" stroke="currentColor" stroke-linecap="round" stroke-linejoin="round" d="M40.5 5.5h-33a2 2 0 0 0-2 2v33a2 2 0 0 0 2 2h33a2 2 0 0 0 2-2v-33a2 2 0 0 0-2-2"/></svg>