<svg xmlns="http://www.w3.org/2000/svg" width="1em" height="1em" viewBox="0 0 48 48"><path fill="none" stroke="currentColor" stroke-linecap="round" stroke-linejoin="round" d="M40.5 5.5h-33a2 2 0 0 0-2 2v33a2 2 0 0 0 2 2h33a2 2 0 0 0 2-2v-33a2 2 0 0 0-2-2"/><path fill="none" stroke="currentColor" stroke-linecap="round" stroke-linejoin="round" d="M5.5 35.36c12.981 4.08 23.2-5.215 29.972-5.215c2.252 0 4.727.74 7.028 1.727"/><path fill="none" stroke="currentColor" stroke-linecap="round" stroke-linejoin="round" d="M42.5 24.972H32.023l-4.878-5.509l-4.879 5.509v9.43m11.187-7.012v2.95m3.806-3.076v3.021m3.302-2.306v3.13"/><circle cx="27.082" cy="26.486" r="2.166" fill="none" stroke="currentColor" stroke-linecap="round" stroke-linejoin="round"/><path fill="none" stroke="currentColor" stroke-linecap="round" stroke-linejoin="round" d="m17.471 17.991l1.251-2.167H16.22l-1.25-2.166l-1.251 2.166h-2.502l1.251 2.167l-1.251 2.166h2.502l1.251 2.166l1.25-2.166h2.502zm12.744-9.572l.628 1.767l1.695-.805l-.806 1.694l1.768.628l-1.768.629l.806 1.694l-1.695-.805l-.628 1.767l-.628-1.767l-1.695.805l.806-1.694l-1.768-.629l1.768-.628l-.806-1.694l1.695.805zm-13.68 16.958l-3.004 5.204h6.009z"/></svg>