<svg xmlns="http://www.w3.org/2000/svg" width="1em" height="1em" viewBox="0 0 48 48"><path fill="none" stroke="currentColor" stroke-linecap="round" stroke-miterlimit="10" d="M33.15 45.5a27.11 27.11 0 0 0 9.311-10.123a23.362 23.362 0 0 0 2.996-10.554a20.93 20.93 0 0 0-2.387-10.744a21.906 21.906 0 0 0-10.422-9.467a21.632 21.632 0 0 0-11.7-1.981a21.775 21.775 0 0 0-14.444 8.583a18.468 18.468 0 0 0-3.892 13.311c.645 4.379 2.293 9.282 5.626 12.195c1.257 1.098 4.626 5.125 14.955 3.802a17.071 17.071 0 0 0 11.7-7.258a15.066 15.066 0 0 0 2.303-11.067a14.529 14.529 0 0 0-6.995-9.837a13.824 13.824 0 0 0-13.633 0a11.938 11.938 0 0 0-5.587 7.927a10.828 10.828 0 0 0 2.614 9.168c3.14 3.14 8.834 4.477 12.762 1.72a8.75 8.75 0 0 0 3.426-9.026c-.143-.585-1.003-3.987-4.011-4.906c-2.758-.848-6.387.68-7.235 3.522a5.682 5.682 0 0 0 .967 4.62"/></svg>