<svg xmlns="http://www.w3.org/2000/svg" width="1em" height="1em" viewBox="0 0 48 48"><circle cx="24" cy="24" r="21.5" fill="none" stroke="currentColor" stroke-linecap="round" stroke-linejoin="round"/><path fill="none" stroke="currentColor" stroke-linecap="round" stroke-linejoin="round" d="M17.534 20.425a68.048 68.048 0 0 1-2.49-5.874c-.53-1.397-1.036-2.954-.577-4.436c.258-.972 1.177-1.81 2.227-1.575c3.99 1.156 5.038 7.391 6.27 10.864c2.102-3.515 3.469-7.954 7-10.306c2.71-1.694 4.164 1.833 3.644 4.075c-.274 1.31-1.164 2.365-1.976 3.389c-2.129 2.696-3.969 5.616-5.536 8.673c-1.747 3.407-3.167 7.017-3.785 10.795c-.142 1.261-.531 2.688-1.841 3.18c-1.346.551-3.1.331-4.093-.788c-2.581-3.416 1.467-10.506 3.563-13.555a55.768 55.768 0 0 1-2.406-4.442"/></svg>