<svg xmlns="http://www.w3.org/2000/svg" width="1em" height="1em" viewBox="0 0 48 48"><path fill="none" stroke="currentColor" stroke-linecap="round" stroke-linejoin="round" d="m39.082 10.09l-12.8-5.185a5.615 5.615 0 0 0-4.263 0L8.879 10.09a2.002 2.002 0 0 0-1.272 1.902v12.48c0 11.168 11.61 19.014 16.593 19.014s16.193-7.876 16.193-19.015V11.99a2.002 2.002 0 0 0-1.312-1.9Z"/><path fill="none" stroke="currentColor" stroke-linecap="round" stroke-linejoin="round" d="M33.61 33.357a1.371 1.371 0 0 1-1.371 1.351h-.07c-10.694-.826-19.19-9.322-20.016-20.015a1.341 1.341 0 0 1 1.271-1.431h3.002a2.692 2.692 0 0 1 2.632 2.301c.111.727.282 1.444.51 2.142a1.581 1.581 0 0 1-.4 1.561l-1.66 1.702a19.235 19.235 0 0 0 8.386 8.346l1.771-1.751c.357-.37.896-.498 1.381-.33c.735.238 1.488.419 2.252.54a2.802 2.802 0 0 1 2.322 2.662z"/></svg>