<svg xmlns="http://www.w3.org/2000/svg" width="1em" height="1em" viewBox="0 0 48 48"><path fill="none" stroke="currentColor" stroke-linecap="round" stroke-linejoin="round" d="M43.862 27.17c-2.727 3.25 1.182 7.11-4.247 9.506c-3.985 1.451-2.53 6.749-8.43 6.11c-4.177-.736-5.566 4.578-10.355 1.076c-3.25-2.727-7.11 1.182-9.506-4.247c-1.451-3.985-6.748-2.53-6.11-8.43C5.952 27.008.637 25.62 4.14 20.83c2.726-3.25-1.182-7.11 4.246-9.506c3.985-1.451 2.53-6.748 8.43-6.11C20.992 5.952 22.38.637 27.17 4.14c3.25 2.726 7.11-1.182 9.506 4.246c1.451 3.985 6.748 2.53 6.11 8.43c-.737 4.177 4.578 5.566 1.076 10.355"/><rect width="6.01" height="6.01" x="20.995" y="14.62" fill="none" stroke="currentColor" stroke-linecap="round" stroke-linejoin="round" rx="1" ry="1" transform="rotate(45 24 17.625)"/><rect width="6.01" height="6.01" x="27.369" y="20.995" fill="none" stroke="currentColor" stroke-linecap="round" stroke-linejoin="round" rx="1" ry="1" transform="rotate(45 30.375 24)"/><rect width="6.01" height="6.01" x="14.62" y="20.995" fill="none" stroke="currentColor" stroke-linecap="round" stroke-linejoin="round" rx="1" ry="1" transform="rotate(45 17.626 24)"/><rect width="6.01" height="6.01" x="20.995" y="27.369" fill="none" stroke="currentColor" stroke-linecap="round" stroke-linejoin="round" rx="1" ry="1" transform="rotate(45 24 30.375)"/></svg>