<svg xmlns="http://www.w3.org/2000/svg" width="1em" height="1em" viewBox="0 0 48 48"><path fill="none" stroke="currentColor" stroke-linecap="round" stroke-linejoin="round" d="M30.504 27.908H17.496a.483.483 0 0 1-.482-.483v-1.852c0-.226.092-.443.255-.6l2.898-2.791v-4.546c0-.407.33-.738.738-.738h1.191a1.898 1.898 0 1 1 3.797 0h1.192c.407 0 .738.33.738.739v4.545l2.907 2.79a.833.833 0 0 1 .256.602v1.851a.483.483 0 0 1-.482.483"/><circle cx="24" cy="31.378" r="1.622" fill="none" stroke="currentColor" stroke-linecap="round" stroke-linejoin="round"/><path fill="none" stroke="currentColor" stroke-linecap="round" stroke-linejoin="round" d="M43.112 14.394a5.006 5.006 0 0 0-3.533-3.533c-2.314-.894-24.732-1.332-31.236.025A5.006 5.006 0 0 0 4.81 14.42c-1.045 4.583-1.124 14.491.026 19.177a5.006 5.006 0 0 0 3.533 3.533c4.583 1.055 26.371 1.203 31.236 0a5.006 5.006 0 0 0 3.533-3.533c1.114-4.993 1.193-14.287-.026-19.203"/></svg>