<svg xmlns="http://www.w3.org/2000/svg" width="1em" height="1em" viewBox="0 0 48 48"><path fill="none" stroke="currentColor" stroke-linecap="round" stroke-linejoin="round" d="M38.72 40.5H9.28a1.78 1.78 0 0 1-1.78-1.78V9.28A1.78 1.78 0 0 1 9.28 7.5h29.44a1.78 1.78 0 0 1 1.78 1.78v29.44a1.78 1.78 0 0 1-1.78 1.78M9.28 7.5v-3m4.21 3v-3m4.2 3v-3m4.21 3v-3m4.2 3v-3m4.21 3v-3m4.2 3v-3m4.21 3v-3m-29.44 39v-3m4.21 3v-3m4.2 3v-3m4.21 3v-3m4.2 3v-3m4.21 3v-3m4.2 3v-3m4.21 3v-3"/><path fill="none" stroke="currentColor" stroke-linecap="round" stroke-linejoin="round" d="M38.72 40.5H9.28a1.78 1.78 0 0 1-1.78-1.78V9.28A1.78 1.78 0 0 1 9.28 7.5h29.44a1.78 1.78 0 0 1 1.78 1.78v29.44a1.78 1.78 0 0 1-1.78 1.78M9.28 7.5v-3m4.21 3v-3m4.2 3v-3m4.21 3v-3m4.2 3v-3m4.21 3v-3m4.2 3v-3m4.21 3v-3m-29.44 39v-3m4.21 3v-3m4.2 3v-3m4.21 3v-3m4.2 3v-3m4.21 3v-3m4.2 3v-3m4.21 3v-3M40.5 9.28h3m-3 4.21h3m-3 4.2h3m-3 4.21h3m-3 4.2h3m-3 4.21h3m-3 4.2h3m-3 4.21h3M4.5 9.28h3m-3 4.21h3m-3 4.2h3m-3 4.21h3m-3 4.2h3m-3 4.21h3m-3 4.2h3m-3 4.21h3"/><circle cx="24" cy="24" r="3.5" fill="none" stroke="currentColor" stroke-linecap="round" stroke-linejoin="round"/><circle cx="24" cy="24" r="12.5" fill="none" stroke="currentColor" stroke-linecap="round" stroke-linejoin="round"/></svg>