<svg xmlns="http://www.w3.org/2000/svg" width="1em" height="1em" viewBox="0 0 24 24"><path fill="currentColor" fill-rule="evenodd" d="M22 10v4a1.5 1.5 0 0 1-1.5 1.5h-.9v.31c0 1.14-.878 2.09-2.015 2.178l-1.268.099a68.39 68.39 0 0 1-10.634 0l-1.348-.105a2.392 2.392 0 0 1-2.173-1.99a24.149 24.149 0 0 1 0-7.985a2.392 2.392 0 0 1 2.173-1.989l1.348-.105a68.397 68.397 0 0 1 10.634 0l1.268.099A2.184 2.184 0 0 1 19.6 8.19v.31h.9A1.5 1.5 0 0 1 22 10m-11.21-.803a.75.75 0 0 0-.76-.75c-1.38.016-2.758.08-4.135.189l-.188.015a1.004 1.004 0 0 0-.9.78a11.686 11.686 0 0 0 0 5.12c.095.429.459.745.896.781l.175.015c1.382.114 2.767.18 4.152.197a.75.75 0 0 0 .76-.75z" clip-rule="evenodd"/></svg>