<svg xmlns="http://www.w3.org/2000/svg" width="1em" height="1em" viewBox="0 0 24 24"><path fill="currentColor" fill-rule="evenodd" d="M8.002 4.553a50.577 50.577 0 0 1 8.099.04l1.624.138a2.666 2.666 0 0 1 2.408 2.252l.102.669a20.665 20.665 0 0 1-.096 6.835a2.343 2.343 0 0 1-2.305 1.923H8.858c-.207 0-.41.051-.592.149l-3.911 2.102A.75.75 0 0 1 3.25 18V9.483a4.93 4.93 0 0 1 4.559-4.915zM8 9.5A1.25 1.25 0 1 0 8 12a1.25 1.25 0 0 0 0-2.5m4 0a1.25 1.25 0 1 0 0 2.5a1.25 1.25 0 0 0 0-2.5m2.75 1.25a1.25 1.25 0 1 1 2.5 0a1.25 1.25 0 0 1-2.5 0" clip-rule="evenodd"/></svg>