<svg xmlns="http://www.w3.org/2000/svg" width="1em" height="1em" viewBox="0 0 24 24"><path fill="currentColor" fill-rule="evenodd" d="M1.393 13.253a1.584 1.584 0 0 1 0-2.505a25.759 25.759 0 0 1 7.143-3.901l.466-.166c1.023-.364 2.1.329 2.238 1.381c.114.867.19 1.746.227 2.629a25.76 25.76 0 0 1 7.069-3.844l.466-.166c1.023-.364 2.1.329 2.238 1.381c.34 2.59.34 5.286 0 7.876c-.138 1.052-1.215 1.745-2.238 1.381l-.466-.165a25.762 25.762 0 0 1-7.07-3.845a30.082 30.082 0 0 1-.226 2.63c-.138 1.051-1.215 1.744-2.238 1.38l-.466-.165a25.76 25.76 0 0 1-7.143-3.902m.918-1.32a.084.084 0 0 0 0 .133a24.261 24.261 0 0 0 6.727 3.674l.466.166c.1.035.232-.033.249-.163c.322-2.46.322-5.025 0-7.486a.194.194 0 0 0-.25-.162l-.465.165a24.26 24.26 0 0 0-6.727 3.674m10 0a.084.084 0 0 0 0 .133a24.26 24.26 0 0 0 6.727 3.674l.466.166c.1.035.232-.033.249-.163c.322-2.46.322-5.025 0-7.486a.194.194 0 0 0-.25-.162l-.465.165c-2.423.86-4.694 2.1-6.727 3.674" clip-rule="evenodd"/></svg>