<svg xmlns="http://www.w3.org/2000/svg" width="1em" height="1em" viewBox="0 0 24 24"><path fill="currentColor" fill-rule="evenodd" d="M4.25 5A2.75 2.75 0 0 1 7 2.25h7.987a1.75 1.75 0 0 1 1.422.73l3.013 4.197c.213.298.328.655.328 1.02V19A2.75 2.75 0 0 1 17 21.75H7A2.75 2.75 0 0 1 4.25 19zM7 3.75c-.69 0-1.25.56-1.25 1.25v14c0 .69.56 1.25 1.25 1.25h10c.69 0 1.25-.56 1.25-1.25V8.897H15a.75.75 0 0 1-.75-.75V3.75z" clip-rule="evenodd"/><path fill="currentColor" d="M15.086 13.219a.75.75 0 0 1-1.055.117l-1.28-1.026v3.44a.75.75 0 0 1-1.5 0v-3.44l-1.282 1.026a.75.75 0 0 1-.937-1.172l2.497-1.998a.747.747 0 0 1 .465-.166h.008c.18 0 .344.064.473.17l2.494 1.994a.75.75 0 0 1 .117 1.055"/></svg>