<svg xmlns="http://www.w3.org/2000/svg" width="1em" height="1em" viewBox="0 0 24 24"><path fill="currentColor" fill-rule="evenodd" d="M7.994 3.124a.75.75 0 0 1 .65-.374h6.713a.75.75 0 0 1 .649.374l6.643 11.482a.75.75 0 0 1-.01.77l-3.41 5.518a.75.75 0 0 1-.638.356H5.41a.75.75 0 0 1-.638-.356l-3.41-5.518a.75.75 0 0 1-.01-.77zm.651 1.87L2.874 14.97l2.518 4.077l2.603-4.441l.001-.003l3.119-5.361zm3.338 5.739l-2.036 3.499h4.07zm3.77 3.499H20.7L14.924 4.25H9.947zm4.902 1.5H9.073L6.718 19.75h11.455z" clip-rule="evenodd"/></svg>