<svg xmlns="http://www.w3.org/2000/svg" width="1em" height="1em" viewBox="0 0 24 24"><path fill="currentColor" fill-rule="evenodd" d="M14.25 5.5a3.25 3.25 0 1 1 .833 2.173l-2.717 1.482l-3.04 1.737a3.254 3.254 0 0 1 .31 2.464l5.447 2.971a3.25 3.25 0 1 1-.719 1.316l-5.447-2.97a3.25 3.25 0 1 1-.652-4.902l3.37-1.926l2.729-1.489a3.254 3.254 0 0 1-.114-.856m3.25-1.75a1.75 1.75 0 1 0 0 3.5a1.75 1.75 0 0 0 0-3.5m-11 7a1.75 1.75 0 1 0 0 3.5a1.75 1.75 0 0 0 0-3.5m9.25 7.75a1.75 1.75 0 1 1 3.5 0a1.75 1.75 0 0 1-3.5 0" clip-rule="evenodd"/></svg>