<svg xmlns="http://www.w3.org/2000/svg" width="1em" height="1em" viewBox="0 0 24 24"><path fill="currentColor" d="M9.25 3a.75.75 0 0 1 .75-.75h4a.75.75 0 0 1 .75.75v.75H19a.75.75 0 0 1 0 1.5H5a.75.75 0 0 1 0-1.5h4.25z"/><path fill="currentColor" fill-rule="evenodd" d="M6.24 7.945a.5.5 0 0 1 .497-.445h10.526a.5.5 0 0 1 .497.445l.2 1.801a44.213 44.213 0 0 1 0 9.771l-.02.177a2.603 2.603 0 0 1-2.226 2.29a26.788 26.788 0 0 1-7.428 0a2.603 2.603 0 0 1-2.227-2.29l-.02-.177a44.239 44.239 0 0 1 0-9.77zm4.51 3.455a.75.75 0 0 0-1.5 0v7a.75.75 0 0 0 1.5 0zm4 0a.75.75 0 0 0-1.5 0v7a.75.75 0 0 0 1.5 0z" clip-rule="evenodd"/></svg>