<svg xmlns="http://www.w3.org/2000/svg" width="1em" height="1em" viewBox="0 0 24 24"><path fill="currentColor" fill-rule="evenodd" d="M6.77 3.082a47.472 47.472 0 0 1 10.46 0c1.899.212 3.43 1.707 3.653 3.613a45.67 45.67 0 0 1 0 10.61c-.223 1.906-1.754 3.401-3.652 3.614a47.468 47.468 0 0 1-10.461 0c-1.899-.213-3.43-1.708-3.653-3.613a45.672 45.672 0 0 1 0-10.611C3.34 4.789 4.871 3.294 6.77 3.082m4.103 13.325a.949.949 0 0 0 .074-.368v-9.08A.966.966 0 0 0 9.973 6H6.972A.966.966 0 0 0 6 6.959v9.08c0 .254.103.498.285.678c.182.18.429.282.687.283h3a.982.982 0 0 0 .69-.281a.96.96 0 0 0 .211-.312m6.842-3.69A.955.955 0 0 0 18 12.04V6.96a.966.966 0 0 0-.971-.96h-3.002a.968.968 0 0 0-.974.959v5.08c0 .255.103.5.286.68c.182.18.43.28.688.281h3.002a.981.981 0 0 0 .686-.283" clip-rule="evenodd"/></svg>