<svg xmlns="http://www.w3.org/2000/svg" width="1em" height="1em" viewBox="0 0 24 24"><path fill="currentColor" d="M13.241 3.085c.447.062.759.458.759.91c0 .646-.626 1.11-1.269 1.043a7.089 7.089 0 0 0-1.462 0C10.626 5.104 10 4.64 10 3.994c0-.45.312-.847.759-.91a9.08 9.08 0 0 1 2.482.001m-.51 15.877c.643-.067 1.269.397 1.269 1.044c0 .45-.312.847-.759.91a9.076 9.076 0 0 1-2.482 0c-.447-.063-.759-.46-.759-.91c0-.647.626-1.11 1.269-1.044a7.094 7.094 0 0 0 1.462 0m2.769-.281c0 .765.781 1.274 1.422.855a9.049 9.049 0 0 0 2.614-2.614c.42-.64-.09-1.422-.855-1.422c-.382 0-.73.207-.95.52a7.04 7.04 0 0 1-1.711 1.711c-.313.22-.52.568-.52.95M19 6.713V7a1 1 0 0 1-1 1h-3a1 1 0 1 1 0-2h.739a1.117 1.117 0 0 1-.239-.68c0-.766.781-1.275 1.422-.856l.078.052V4a1 1 0 1 1 2 0v2.703zM7.078 4.463c.64-.418 1.422.09 1.422.856c0 .382-.207.73-.52.95A7.04 7.04 0 0 0 6.27 7.98c-.22.313-.568.52-.95.52c-.765 0-1.274-.781-.855-1.422a9.049 9.049 0 0 1 2.614-2.614M3.085 10.76a9.08 9.08 0 0 0 0 2.482c.062.447.458.759.91.759c.646 0 1.11-.626 1.043-1.269a7.082 7.082 0 0 1 0-1.462C5.104 10.626 4.64 10 3.994 10c-.45 0-.847.312-.91.759m3.993 8.777c.64.42 1.422-.09 1.422-.855c0-.382-.207-.73-.52-.95A7.04 7.04 0 0 1 6.27 16.02c-.22-.313-.568-.52-.95-.52c-.765 0-1.274.781-.855 1.422a9.049 9.049 0 0 0 2.614 2.614m13.867-6.538c.06-.549-.393-.998-.945-.998h-.134c-.478 0-.861.402-.92.877c-.072.575.346 1.123.926 1.123h.134c.45 0 .847-.312.91-.759z"/></svg>