<svg xmlns="http://www.w3.org/2000/svg" width="1em" height="1em" viewBox="0 0 16 16"><path fill="currentColor" d="M8.957 2.076a6.042 6.042 0 0 0-1.914 0a.663.663 0 0 0-.543.668c0 .494.493.841.984.785a4.547 4.547 0 0 1 1.032 0c.49.056.984-.291.984-.785a.662.662 0 0 0-.543-.668M8.516 12.47a4.551 4.551 0 0 1-1.032 0c-.49-.056-.984.291-.984.785c0 .327.22.616.543.668a6.05 6.05 0 0 0 1.914 0a.663.663 0 0 0 .543-.668c0-.494-.493-.841-.984-.785m1.984-.292c0-.273.14-.524.351-.697c.23-.19.442-.4.631-.631a.913.913 0 0 1 .697-.351c.597 0 .983.617.625 1.095a6.034 6.034 0 0 1-1.21 1.21c-.477.357-1.094-.029-1.094-.626m0-8.358c0-.597.617-.983 1.095-.625c.14.105.275.216.405.332V2.75a.75.75 0 0 1 1.5 0v3a.75.75 0 0 1-.75.75h-3a.75.75 0 0 1 0-1.5h1.604a4.537 4.537 0 0 0-.503-.482a.914.914 0 0 1-.351-.697m-7.304.584c-.358.478.028 1.095.625 1.095c.273 0 .524-.14.697-.351c.19-.23.4-.442.631-.63A.914.914 0 0 0 5.5 3.82c0-.597-.617-.983-1.095-.625a6.035 6.035 0 0 0-1.21 1.21m-1.12 2.638a.663.663 0 0 1 .668-.543c.494 0 .841.493.785.984a4.547 4.547 0 0 0 0 1.032c.056.49-.291.984-.785.984a.662.662 0 0 1-.668-.543a6.044 6.044 0 0 1 0-1.914m1.12 4.552c-.358-.478.028-1.095.625-1.095c.273 0 .524.14.697.351c.19.23.4.442.631.63a.914.914 0 0 1 .351.698c0 .597-.617.983-1.095.625a6.036 6.036 0 0 1-1.21-1.21m10.728-2.638a.662.662 0 0 1-.668.543h-.126c-.432 0-.736-.431-.675-.86a.75.75 0 0 1 1.485.212z"/></svg>