<svg xmlns="http://www.w3.org/2000/svg" width="1em" height="1em" viewBox="0 0 16 16"><path fill="currentColor" d="M9.132 2.107a6.031 6.031 0 0 0-2.264 0a.461.461 0 0 0-.368.46c0 .328.32.562.644.506a5.033 5.033 0 0 1 1.712 0c.324.056.644-.178.644-.507a.461.461 0 0 0-.368-.46m-.276 10.82a5.024 5.024 0 0 1-1.712 0c-.324-.056-.644.178-.644.507c0 .222.15.418.368.46a6.032 6.032 0 0 0 2.264 0a.461.461 0 0 0 .368-.46c0-.329-.32-.563-.644-.507m1.644-.292c0-.188.101-.36.258-.464a5.029 5.029 0 0 0 1.413-1.413a.561.561 0 0 1 .464-.258c.384 0 .635.397.428.72a6.03 6.03 0 0 1-1.843 1.843c-.323.207-.72-.044-.72-.428m0-9.27c0-.384.397-.635.72-.428c.477.303.908.673 1.28 1.094V2.5a.5.5 0 0 1 1 0v3a.5.5 0 0 1-.5.5h-3a.5.5 0 0 1 0-1h2a5.03 5.03 0 0 0-1.242-1.171a.561.561 0 0 1-.258-.464M2.937 4.78c-.207.323.044.72.428.72c.188 0 .36-.101.464-.258a5.027 5.027 0 0 1 1.413-1.413a.561.561 0 0 0 .258-.464c0-.384-.397-.635-.72-.428A6.032 6.032 0 0 0 2.937 4.78m-.83 2.088a.461.461 0 0 1 .46-.368c.328 0 .562.32.506.644a5.033 5.033 0 0 0 0 1.712c.056.324-.178.644-.507.644a.461.461 0 0 1-.46-.368a6.031 6.031 0 0 1 0-2.264m.83 4.352c-.207-.323.044-.72.428-.72c.188 0 .36.101.464.258c.371.56.852 1.042 1.413 1.413a.561.561 0 0 1 .258.464c0 .384-.397.635-.72.428a6.032 6.032 0 0 1-1.843-1.843m10.956-2.088a.461.461 0 0 1-.46.368c-.328 0-.562-.32-.506-.644c.023-.132.04-.265.053-.4a.5.5 0 0 1 .996.089a5.996 5.996 0 0 1-.083.587"/></svg>