<svg xmlns="http://www.w3.org/2000/svg" width="1em" height="1em" viewBox="0 0 20 20"><path fill="currentColor" d="M8.535 2.643A.679.679 0 0 0 8 3.32c0 .498.496.849.987.765a6.042 6.042 0 0 1 2.025 0c.492.084.988-.267.988-.765a.679.679 0 0 0-.536-.677a7.536 7.536 0 0 0-2.93 0m.452 13.272c-.491-.084-.987.267-.987.765c0 .325.216.614.535.677a7.536 7.536 0 0 0 2.93 0A.679.679 0 0 0 12 16.68c0-.498-.496-.849-.988-.765a6.042 6.042 0 0 1-2.025 0M7 15.657c0 .575-.59.955-1.072.642A7.54 7.54 0 0 1 3.7 14.072C3.388 13.59 3.767 13 4.342 13c.285 0 .545.154.706.389c.42.612.95 1.143 1.563 1.563c.234.16.389.42.389.705M7 4.343a.865.865 0 0 1-.39.705c-.202.139-.396.29-.58.452h1.22a.75.75 0 0 1 0 1.5h-3a.75.75 0 0 1-.75-.75v-3a.75.75 0 0 1 1.5 0v1.16c.29-.26.6-.497.928-.71C6.41 3.389 7 3.769 7 4.344m7.072-.642c-.483-.313-1.072.067-1.072.642c0 .284.154.544.389.705c.612.42 1.143.95 1.563 1.563c.16.235.42.389.705.389c.575 0 .954-.59.642-1.072A7.54 7.54 0 0 0 14.072 3.7m3.285 4.834a7.536 7.536 0 0 1 0 2.93a.679.679 0 0 1-.677.535c-.499 0-.849-.496-.765-.988a6.042 6.042 0 0 0 0-2.024C15.83 8.496 16.18 8 16.68 8c.325 0 .614.216.677.535M14.072 16.3c-.483.313-1.072-.067-1.072-.642c0-.284.154-.544.389-.705a6.035 6.035 0 0 0 1.563-1.563a.865.865 0 0 1 .705-.389c.575 0 .954.59.642 1.072a7.54 7.54 0 0 1-2.227 2.227M2.537 10.75c-.041-.412.298-.749.713-.749c.414 0 .745.337.796.748c.01.089.024.177.039.264c.083.492-.267.988-.766.988a.679.679 0 0 1-.676-.535a7.49 7.49 0 0 1-.106-.716"/></svg>