<svg xmlns="http://www.w3.org/2000/svg" width="1em" height="1em" viewBox="0 0 32 32"><path fill="currentColor" d="M19.162 3.387c.504.126.838.592.838 1.112c0 .853-.872 1.438-1.705 1.252A10.54 10.54 0 0 0 16 5.5c-.788 0-1.556.087-2.295.252c-.832.185-1.705-.4-1.705-1.253c0-.52.334-.986.838-1.112A13.027 13.027 0 0 1 16 3c1.09 0 2.15.134 3.162.387m-.867 22.861c.832-.185 1.705.4 1.705 1.253c0 .52-.334.986-.838 1.112A13.028 13.028 0 0 1 16 29c-1.09 0-2.15-.134-3.162-.387c-.504-.126-.838-.592-.838-1.112c0-.853.873-1.438 1.705-1.253a10.536 10.536 0 0 0 4.59 0M22 25.32c0 1.01 1.066 1.641 1.869 1.03a13.073 13.073 0 0 0 2.48-2.48c.611-.803-.02-1.869-1.03-1.869c-.44 0-.846.218-1.121.561a10.561 10.561 0 0 1-1.637 1.637a1.45 1.45 0 0 0-.561 1.12m0-18.638c0 .439.218.846.561 1.12c.081.066.161.132.24.199H20.75a1.25 1.25 0 1 0 0 2.5h5c.69 0 1.25-.56 1.25-1.25v-5a1.25 1.25 0 1 0-2.5 0v1.914a13.076 13.076 0 0 0-.631-.513C23.066 5.04 22 5.671 22 6.681M8.131 5.65C8.934 5.04 10 5.671 10 6.681c0 .44-.219.846-.561 1.121A10.563 10.563 0 0 0 7.802 9.44a1.45 1.45 0 0 1-1.121.56C5.67 10 5.04 8.934 5.65 8.131a13.077 13.077 0 0 1 2.48-2.48m-4.744 7.187A13.027 13.027 0 0 0 3 16c0 1.09.134 2.15.387 3.162c.126.504.592.838 1.112.838c.853 0 1.438-.872 1.253-1.705A10.537 10.537 0 0 1 5.5 16c0-.788.087-1.556.252-2.295c.185-.832-.4-1.705-1.253-1.705c-.52 0-.986.334-1.112.838m4.744 13.51c.803.612 1.869-.02 1.869-1.029c0-.44-.219-.846-.561-1.121a10.562 10.562 0 0 1-1.637-1.637A1.45 1.45 0 0 0 6.681 22c-1.01 0-1.641 1.066-1.03 1.869a13.075 13.075 0 0 0 2.48 2.48m20.81-9.1c.065-.687-.5-1.248-1.191-1.248c-.69 0-1.242.562-1.323 1.247a10.44 10.44 0 0 1-.179 1.048c-.185.832.4 1.705 1.253 1.705c.52 0 .986-.334 1.112-.838c.155-.621.266-1.26.328-1.914"/></svg>