<svg xmlns="http://www.w3.org/2000/svg" width="1em" height="1em" viewBox="0 0 20 20"><path fill="currentColor" d="M3.073 5.338a.509.509 0 0 0 .38.663a.509.509 0 0 0 .6-.462A2 2 0 0 1 6 4h8a2 2 0 0 1 1.947 1.54a.509.509 0 0 0 .6.462a.509.509 0 0 0 .38-.664A3.001 3.001 0 0 0 14 3H6C4.57 3 3.375 4 3.073 5.338m0 9.324a.509.509 0 0 1 .38-.663a.509.509 0 0 1 .6.462A2 2 0 0 0 6 16h8a2 2 0 0 0 1.947-1.54a.509.509 0 0 1 .6-.462a.509.509 0 0 1 .38.664A3.001 3.001 0 0 1 14 17H6c-1.43 0-2.625-1-2.927-2.338M16.5 12a.5.5 0 0 1-.5-.5v-3a.5.5 0 0 1 1 0v3a.5.5 0 0 1-.5.5M3 11.5a.5.5 0 0 0 1 0v-3a.5.5 0 0 0-1 0z"/></svg>