<svg xmlns="http://www.w3.org/2000/svg" width="1em" height="1em" viewBox="0 0 24 24"><path fill="currentColor" d="M7.5 6.5a1 1 0 1 1 2 0a1 1 0 0 1-2 0m1 6a1 1 0 1 0 0 2a1 1 0 0 0 0-2m-1-2.5a1 1 0 1 1 2 0a1 1 0 0 1-2 0M12 5.5a1 1 0 1 0 0 2a1 1 0 0 0 0-2M11 10a1 1 0 1 1 2 0a1 1 0 0 1-2 0M4 4.25A2.25 2.25 0 0 1 6.25 2h8a2.25 2.25 0 0 1 2.25 2.25V9.5h1.253a2.25 2.25 0 0 1 2.25 2.25v1.353c-.44.123-.835.354-1.155.661a3.238 3.238 0 0 0-.345-.742v-1.273a.75.75 0 0 0-.75-.75H15.75a.75.75 0 0 1-.75-.75V4.25a.75.75 0 0 0-.75-.75h-8a.75.75 0 0 0-.75.75V20h5.502c.014.504.116 1.016.322 1.5H4.75a.75.75 0 0 1-.75-.75zm14 10.5a2.25 2.25 0 1 1-4.5 0a2.25 2.25 0 0 1 4.5 0m1.5 5.125c0 1.556-1.071 3.125-3.75 3.125c-2.679 0-3.75-1.563-3.75-3.125C12 18.84 12.72 18 13.607 18h4.286c.887 0 1.607.84 1.607 1.875m1.25-2.375a1.75 1.75 0 1 0 0-3.5a1.75 1.75 0 0 0 0 3.5m-.252 2.375a4.06 4.06 0 0 1-.582 2.124l.088.001c2.143 0 3-1.098 3-2.187c0-.725-.575-1.313-1.286-1.313h-1.54c.208.424.32.9.32 1.375"/></svg>