<svg xmlns="http://www.w3.org/2000/svg" width="1em" height="1em" viewBox="0 0 24 24"><path fill="currentColor" d="M17.75 3A3.25 3.25 0 0 1 21 6.25v8.016a2.107 2.107 0 0 0-.224.15l-.016.013a2.51 2.51 0 0 0-1.26-1.221V8.5h-15v9.25c0 .966.784 1.75 1.75 1.75H11V21H6.25A3.25 3.25 0 0 1 3 17.75V6.25A3.25 3.25 0 0 1 6.25 3zm0 1.5H6.25A1.75 1.75 0 0 0 4.5 6.25V7h15v-.75a1.75 1.75 0 0 0-1.75-1.75M13.5 14a1.5 1.5 0 0 0-1.5 1.5v6a1.5 1.5 0 0 0 1.5 1.5h5a1.5 1.5 0 0 0 1.5-1.5v-.779l1.385 1.066a1 1 0 0 0 1.61-.793v-4.992a1 1 0 0 0-1.61-.793L20 16.275V15.5a1.5 1.5 0 0 0-1.5-1.5z"/></svg>