<svg xmlns="http://www.w3.org/2000/svg" width="1em" height="1em" viewBox="0 0 24 24"><path fill="currentColor" d="M21 8.5v5.766a2.107 2.107 0 0 0-.224.15l-.016.013A2.5 2.5 0 0 0 18.5 13h-5a2.5 2.5 0 0 0-2.5 2.5V21H6.25A3.25 3.25 0 0 1 3 17.75V8.5zM17.75 3A3.25 3.25 0 0 1 21 6.25V7H3v-.75A3.25 3.25 0 0 1 6.25 3zM13.5 14a1.5 1.5 0 0 0-1.5 1.5v6a1.5 1.5 0 0 0 1.5 1.5h5a1.5 1.5 0 0 0 1.5-1.5v-.779l1.385 1.066a1 1 0 0 0 1.61-.793v-4.992a1 1 0 0 0-1.61-.793L20 16.275V15.5a1.5 1.5 0 0 0-1.5-1.5z"/></svg>