<svg xmlns="http://www.w3.org/2000/svg" width="1em" height="1em" viewBox="0 0 24 24"><path fill="currentColor" d="M15.986 4a2.25 2.25 0 0 0-2.236-2h-3.5a2.25 2.25 0 0 0-2.236 2H6.25A2.25 2.25 0 0 0 4 6.25v13.5A2.25 2.25 0 0 0 6.25 22h4.919a1.746 1.746 0 0 1-.016-1.465l.015-.035H6.25a.75.75 0 0 1-.75-.75V6.25a.75.75 0 0 1 .75-.75h2.129c.404.603 1.091 1 1.871 1h3.5c.78 0 1.467-.397 1.871-1h2.129a.75.75 0 0 1 .75.75v4.599c.036.06.069.122.097.186L20 14.171V6.25A2.25 2.25 0 0 0 17.75 4zm.009.096L16 4.25c0-.052-.002-.103-.005-.154M10.25 3.5h3.5a.75.75 0 0 1 0 1.5h-3.5a.75.75 0 0 1 0-1.5m7.435 7.944a.75.75 0 0 0-1.37 0l-2.677 5.985a.828.828 0 0 0-.014.03l-1.559 3.485a.75.75 0 1 0 1.37.612l1.367-3.056h4.396l1.367 3.056a.75.75 0 1 0 1.37-.612l-1.56-3.485a.828.828 0 0 0-.013-.03zM17 13.587L18.527 17h-3.054z"/></svg>