<svg xmlns="http://www.w3.org/2000/svg" width="1em" height="1em" viewBox="0 0 32 32"><path fill="currentColor" d="M23.5 4h-1.67A3.001 3.001 0 0 0 19 2h-6a3.001 3.001 0 0 0-2.83 2H8.5A3.5 3.5 0 0 0 5 7.5v19A3.5 3.5 0 0 0 8.5 30h5.612a13.947 13.947 0 0 1-.758-.619a2.5 2.5 0 0 1 .521-4.114c1.064-.535 1.386-.978 1.614-1.346c.125-.203.182-.311.258-.455c.07-.132.155-.293.324-.587a7.374 7.374 0 0 1 1.185-1.577a5.995 5.995 0 0 1 5.476-1.63l3.22-3.22c.31-.31.667-.544 1.048-.703V7.5A3.5 3.5 0 0 0 23.5 4M13 4h6a1 1 0 1 1 0 2h-6a1 1 0 1 1 0-2m16.487 13.513a1.75 1.75 0 0 1 0 2.474l-3.831 3.832a4.502 4.502 0 0 1-.975 4.908a6.722 6.722 0 0 1-4.171 1.898c-1.862.146-3.994-.47-6.169-2.372a1 1 0 0 1 .209-1.646c1.318-.664 1.846-1.3 2.215-1.897c.133-.216.224-.385.326-.576c.079-.146.164-.305.28-.505c.232-.404.519-.84.946-1.266a4.501 4.501 0 0 1 4.846-1l3.85-3.85a1.75 1.75 0 0 1 2.474 0M16.771 27.595c1.37.89 2.589 1.114 3.582 1.036a4.723 4.723 0 0 0 2.913-1.318a2.5 2.5 0 1 0-3.535-3.536c-.257.257-.443.53-.628.85c-.054.094-.122.219-.197.357c-.135.248-.294.54-.44.777a6.286 6.286 0 0 1-1.695 1.834"/></svg>