<svg xmlns="http://www.w3.org/2000/svg" width="1em" height="1em" viewBox="0 0 16 16"><path fill="currentColor" d="M3.106 1.552a1 1 0 0 1 1.79 0l2 4A1 1 0 0 1 6 7H2.004a1 1 0 0 1-.895-1.447zM6.001 6l-2-4.001L2.004 6zM4 14a2 2 0 0 1-1.723-3.016l2.739 2.74A1.991 1.991 0 0 1 4 14m-1.016-3.723a2 2 0 0 1 2.74 2.74zM4 15a3 3 0 1 0 0-6a3 3 0 0 0 0 6m8.515-5.854a1 1 0 0 0-1.03 0l-2 1.2a1 1 0 0 0-.485.857v1.596a1 1 0 0 0 .486.857l2 1.2a1 1 0 0 0 1.028 0l2-1.2A1 1 0 0 0 15 12.8v-1.596a1 1 0 0 0-.486-.857zM10 12.799v-1.596l2-1.2l2 1.2v1.596l-2 1.2zM10 3a1 1 0 0 1 1-1h2a1 1 0 0 1 1 1v2a1 1 0 0 1-1 1h-2a1 1 0 0 1-1-1zm1-2a2 2 0 0 0-2 2v2a2 2 0 0 0 2 2h2a2 2 0 0 0 2-2V3a2 2 0 0 0-2-2z"/></svg>