<svg xmlns="http://www.w3.org/2000/svg" width="1em" height="1em" viewBox="0 0 16 16"><path fill="currentColor" d="M6.125 6C6.045 6.625 6 7.297 6 8c0 .703.044 1.375.125 2h.082a5.512 5.512 0 0 1 3.697-3.765A14.35 14.35 0 0 0 9.875 6zM5 8c0 .693.04 1.365.117 2H2.34A5.99 5.99 0 0 1 2 8c0-.701.12-1.374.341-2h2.776A16.827 16.827 0 0 0 5 8m.272 3h-2.47a6.016 6.016 0 0 0 3.421 2.733a6.18 6.18 0 0 1-.457-.957A10.53 10.53 0 0 1 5.272 11m4.436-6a9.263 9.263 0 0 0-.407-1.417c-.213-.554-.455-.969-.698-1.236C8.36 2.08 8.156 2 8 2c-.156 0-.36.08-.603.347c-.243.267-.485.682-.698 1.236c-.159.414-.297.89-.407 1.417zm1.02 0a10.522 10.522 0 0 0-.494-1.776a6.178 6.178 0 0 0-.457-.957A6.016 6.016 0 0 1 13.197 5zM5.272 5h-2.47a6.016 6.016 0 0 1 3.421-2.733c-.17.285-.323.608-.457.957c-.201.522-.368 1.12-.494 1.776M7 11.5a4.5 4.5 0 1 0 9 0a4.5 4.5 0 0 0-9 0m6.5-3a.5.5 0 0 1 .5.5v1.5a.5.5 0 0 1-.5.5H12a.5.5 0 0 1 0-1h.468a1.982 1.982 0 0 0-.933-.25a2 2 0 0 0-1.45.586a.5.5 0 0 1-.706-.707A3 3 0 0 1 13 9.152V9a.5.5 0 0 1 .5-.5m-.876 5.532A2.999 2.999 0 0 1 10 13.848V14a.5.5 0 0 1-1 0v-1.5a.5.5 0 0 1 .5-.5H11a.5.5 0 0 1 0 1h-.468a1.999 1.999 0 0 0 2.383-.336a.5.5 0 0 1 .706.707c-.285.285-.624.51-.997.66"/></svg>