<svg xmlns="http://www.w3.org/2000/svg" width="1em" height="1em" viewBox="0 0 24 24"><path fill="currentColor" d="M11.077 16.498a6.475 6.475 0 0 0 1.555 5.309c-.208.125-.42.19-.63.19c-1.197 0-2.401-2.094-3.038-5.204l-.058-.294zm-3.704 0c.365 2.083.983 3.855 1.792 5.094A10.03 10.03 0 0 1 3.067 16.5zm-.303-6.5a28.205 28.205 0 0 0 .033 4.42l.057.58H2.458a10.048 10.048 0 0 1-.258-5zm8.356 0c.034.43.056.869.068 1.317a6.523 6.523 0 0 0-3.995 3.683L8.676 15a25.973 25.973 0 0 1-.132-4.512l.033-.489zm6.377 0a10.047 10.047 0 0 1 .17 2.785a6.48 6.48 0 0 0-4.988-1.763a12.513 12.513 0 0 0-.013-.365l-.039-.656zm-6.965-7.593a10.027 10.027 0 0 1 6.536 6.093h-4.591c-.296-2.265-.878-4.231-1.675-5.647l-.162-.276zm-5.673 0c-.88 1.35-1.535 3.329-1.883 5.654l-.061.44H2.63A10.03 10.03 0 0 1 8.74 2.54l.303-.1zM12.002 2c1.318 0 2.645 2.542 3.214 6.183l.046.315H8.741C9.28 4.69 10.645 2 12 2m11 15.5a5.5 5.5 0 1 0-11 0a5.5 5.5 0 0 0 11 0M17.5 14a.5.5 0 0 1 .5.5V17h2a.5.5 0 0 1 0 1h-2.5a.5.5 0 0 1-.5-.5v-3a.5.5 0 0 1 .5-.5"/></svg>