<svg xmlns="http://www.w3.org/2000/svg" width="1em" height="1em" viewBox="0 0 16 16"><path fill="currentColor" d="M2 8a6.003 6.003 0 0 0 4.509 5.813A5.48 5.48 0 0 1 6 11.5a5.5 5.5 0 0 1 .207-1.5h-.028A10.936 10.936 0 0 1 6 8c0-.714.064-1.39.179-2H9.82c.016.081.03.164.043.247a5.47 5.47 0 0 1 .98-.208L10.837 6h1.747l.05.117a5.46 5.46 0 0 1 1.18.392A6 6 0 0 0 2 8m6-5c.374 0 .875.356 1.313 1.318c.094.208.181.436.26.682H6.427a6.19 6.19 0 0 1 .26-.682C7.125 3.356 7.627 3 8 3m-2.223.904c-.15.332-.283.7-.393 1.096H4a5.017 5.017 0 0 1 2.038-1.6a5.45 5.45 0 0 0-.261.504M5.163 6A12.055 12.055 0 0 0 5 8c0 .699.057 1.373.163 2H3.416A4.983 4.983 0 0 1 3 8c0-.711.148-1.388.416-2zm.221 5c.11.396.242.764.393 1.096c.079.174.166.343.26.504A5.017 5.017 0 0 1 4 11zm4.578-7.6A5.018 5.018 0 0 1 12 5h-1.384a7.526 7.526 0 0 0-.393-1.096a5.454 5.454 0 0 0-.26-.504M7 11.5a4.5 4.5 0 1 0 9 0a4.5 4.5 0 0 0-9 0m6.5-3a.5.5 0 0 1 .5.5v1.5a.5.5 0 0 1-.5.5H12a.5.5 0 0 1 0-1h.468a1.982 1.982 0 0 0-.933-.25a2 2 0 0 0-1.45.586a.5.5 0 0 1-.706-.707A3 3 0 0 1 13 9.152V9a.5.5 0 0 1 .5-.5m-.876 5.532A2.999 2.999 0 0 1 10 13.848V14a.5.5 0 0 1-1 0v-1.5a.5.5 0 0 1 .5-.5H11a.5.5 0 0 1 0 1h-.468a1.999 1.999 0 0 0 2.383-.336a.5.5 0 0 1 .706.707c-.285.285-.624.51-.997.66"/></svg>