<svg xmlns="http://www.w3.org/2000/svg" width="1em" height="1em" viewBox="0 0 16 16"><path fill="currentColor" d="M16 4.5a4.5 4.5 0 1 1-9 0a4.5 4.5 0 0 1 9 0m-4-2a.5.5 0 0 0-1 0V4H9.5a.5.5 0 0 0 0 1H11v1.5a.5.5 0 0 0 1 0V5h1.5a.5.5 0 0 0 0-1H12zm0 9.002V9.978a5.476 5.476 0 0 0 1-.185V11.7a.5.5 0 0 1-.119.324l-.001.001l-.002.003l-.006.006l-.02.022a5.456 5.456 0 0 1-.323.324c-.22.203-.542.472-.958.74c-.83.536-2.048 1.08-3.57 1.08c-1.523 0-2.741-.544-3.572-1.08a7.09 7.09 0 0 1-.959-.74a5.475 5.475 0 0 1-.322-.324l-.02-.021l-.005-.007l-.002-.003H3.12A.502.502 0 0 1 3 11.7V8.02l-1-.678V10.5a.5.5 0 0 1-1 0v-4a.39.39 0 0 1 .003-.049a.498.498 0 0 1 .223-.47l5.092-3.329c-.157.44-.26.907-.3 1.39L2.404 6.408l4.756 3.22a1.5 1.5 0 0 0 1.682 0l.26-.176c.37.18.764.319 1.175.412l-.874.592a2.5 2.5 0 0 1-2.803 0L4 8.696v2.806a6.09 6.09 0 0 0 .971.778c.72.464 1.752.92 3.03.92c1.277 0 2.309-.456 3.028-.92a6.09 6.09 0 0 0 .971-.778"/></svg>