<svg xmlns="http://www.w3.org/2000/svg" width="1em" height="1em" viewBox="0 0 24 24"><path fill="currentColor" d="M10.678 2.087a10.085 10.085 0 0 1 2.644 0a.75.75 0 0 1-.197 1.487a8.586 8.586 0 0 0-2.25 0a.75.75 0 0 1-.197-1.487m10.394 7.946a.75.75 0 0 1 .841.645a10.089 10.089 0 0 1 0 2.644a.75.75 0 0 1-1.487-.197a8.572 8.572 0 0 0 0-2.25a.75.75 0 0 1 .646-.842m-18.143 0a.75.75 0 0 1 .645.842a8.586 8.586 0 0 0 0 2.25a.75.75 0 0 1-1.487.197a10.085 10.085 0 0 1 0-2.644a.75.75 0 0 1 .841-.645m7.104 11.039a.75.75 0 0 1 .842-.646a8.572 8.572 0 0 0 2.25 0a.75.75 0 0 1 .197 1.487a10.089 10.089 0 0 1-2.644 0a.75.75 0 0 1-.645-.841m8.042-17.016a10.099 10.099 0 0 1 1.87 1.87a.75.75 0 0 1-1.19.912a8.585 8.585 0 0 0-1.593-1.592a.75.75 0 0 1 .913-1.19m1.73 12.968a.75.75 0 0 1 .14 1.051a10.1 10.1 0 0 1-1.87 1.87a.75.75 0 0 1-.913-1.19a8.571 8.571 0 0 0 1.592-1.592a.75.75 0 0 1 1.052-.14M6.978 4.194a.75.75 0 0 1-.14 1.052a8.587 8.587 0 0 0-1.591 1.592a.75.75 0 1 1-1.19-.913a10.087 10.087 0 0 1 1.869-1.87a.75.75 0 0 1 1.052.14m-2.783 12.83a.75.75 0 0 1 1.052.139a8.584 8.584 0 0 0 1.592 1.592a.75.75 0 1 1-.913 1.19a10.1 10.1 0 0 1-1.87-1.87a.75.75 0 0 1 .14-1.051m12.15-8.111a2.653 2.653 0 0 0-3.89-.124L12 9.252l-.456-.462a2.653 2.653 0 0 0-3.891 3.605l3.78 4.35a.75.75 0 0 0 1.133 0l3.78-4.35a2.653 2.653 0 0 0 0-3.481"/></svg>