<svg xmlns="http://www.w3.org/2000/svg" width="1em" height="1em" viewBox="0 0 32 32"><path fill="currentColor" d="M16 5c5.707 0 10.399 4.346 10.947 9.91a9.016 9.016 0 0 1 2.05 1.379c.002-.096.003-.193.003-.289c0-7.18-5.82-13-13-13a12.958 12.958 0 0 0-9 3.62V4a1 1 0 0 0-2 0v5a1 1 0 0 0 1 1h5a1 1 0 1 0 0-2H8.45c1.97-1.86 4.627-3 7.55-3m1.343 11a8.96 8.96 0 0 1 4.144-1.873A.996.996 0 0 0 21 14h-4V9a1 1 0 1 0-2 0v6a1 1 0 0 0 1 1zm-1.054 12.997a9.016 9.016 0 0 1-1.38-2.05C9.346 26.399 5 21.707 5 16c0-.31.013-.615.038-.918a1 1 0 1 0-1.994-.164C3.015 15.275 3 15.636 3 16c0 7.18 5.82 13 13 13c.096 0 .193-.001.289-.003M23 15.5a7.5 7.5 0 1 1 0 15a7.5 7.5 0 0 1 0-15m2.72 3.72L23 21.94l-2.72-2.72a.75.75 0 1 0-1.06 1.06L21.94 23l-2.72 2.72a.75.75 0 1 0 1.06 1.06L23 24.06l2.72 2.72a.75.75 0 1 0 1.06-1.06L24.06 23l2.72-2.72a.75.75 0 1 0-1.06-1.06"/></svg>