<svg xmlns="http://www.w3.org/2000/svg" width="1em" height="1em" viewBox="0 0 28 28"><path fill="currentColor" d="M14 4.5a9.5 9.5 0 0 1 9.493 9.12a7.496 7.496 0 0 1 1.496.871c.007-.162.011-.326.011-.491c0-6.075-4.925-11-11-11a10.963 10.963 0 0 0-7.5 2.953V4.25a.75.75 0 0 0-1.5 0v4c0 .414.336.75.75.75h4a.75.75 0 0 0 0-1.5H7.072A9.472 9.472 0 0 1 14 4.5M15.4 15a7.503 7.503 0 0 1 2.402-1.5H14.5V7.75a.75.75 0 0 0-1.5 0v6.5c0 .414.336.75.75.75zm-.909 9.99a7.496 7.496 0 0 1-.87-1.497C8.55 23.293 4.5 19.12 4.5 14c0-.393.024-.78.07-1.16a.75.75 0 0 0-1.49-.18C3.028 13.1 3 13.547 3 14c0 6.075 4.925 11 11 11c.165 0 .329-.004.491-.01M27 20.5a6.5 6.5 0 1 1-13 0a6.5 6.5 0 0 1 13 0m-9.146-3.354a.5.5 0 0 0-.708.708l2.647 2.646l-2.647 2.646a.5.5 0 0 0 .708.708l2.646-2.647l2.646 2.647a.5.5 0 0 0 .708-.708L21.207 20.5l2.647-2.646a.5.5 0 0 0-.708-.708L20.5 19.793z"/></svg>