<svg xmlns="http://www.w3.org/2000/svg" width="1em" height="1em" viewBox="0 0 48 48"><path fill="currentColor" d="M24 8.5c8.15 0 14.832 6.291 15.453 14.283c.9.328 1.753.752 2.547 1.26V24c0-9.941-8.059-18-18-18a17.943 17.943 0 0 0-12.5 5.048V8.25a1.25 1.25 0 1 0-2.5 0v6.5c0 .69.56 1.25 1.25 1.25h6.5a1.25 1.25 0 1 0 0-2.5h-4.152c2.834-3.076 6.893-5 11.402-5m3.334 16a12.946 12.946 0 0 1 4.355-2.075A1.247 1.247 0 0 0 30.75 22H25v-7.75a1.25 1.25 0 1 0-2.5 0v9c0 .69.56 1.25 1.25 1.25zM24.044 42a12.95 12.95 0 0 1-1.261-2.547C14.79 38.833 8.5 32.15 8.5 24c0-.867.071-1.716.207-2.542a1.25 1.25 0 0 0-2.466-.407A18.037 18.037 0 0 0 6 24c0 9.941 8.059 18 18 18zM46 35c0 6.075-4.925 11-11 11s-11-4.925-11-11s4.925-11 11-11s11 4.925 11 11m-5.293-4.293a1 1 0 0 0-1.414-1.414L35 33.586l-4.293-4.293a1 1 0 0 0-1.414 1.414L33.586 35l-4.293 4.293a1 1 0 0 0 1.414 1.414L35 36.414l4.293 4.293a1 1 0 0 0 1.414-1.414L36.414 35z"/></svg>