<svg xmlns="http://www.w3.org/2000/svg" width="1em" height="1em" viewBox="0 0 16 16"><path fill="currentColor" d="M4.5 2A2.5 2.5 0 0 0 2 4.5v7A2.5 2.5 0 0 0 4.5 14h7a2.5 2.5 0 0 0 2.5-2.5v-7A2.5 2.5 0 0 0 11.5 2zM3 4.5A1.5 1.5 0 0 1 4.5 3h7A1.5 1.5 0 0 1 13 4.5v7a1.5 1.5 0 0 1-1.5 1.5h-7A1.5 1.5 0 0 1 3 11.5zM6 8a2 2 0 1 1 4 0a2 2 0 0 1-4 0m-.959-.5H4.5a.5.5 0 0 0 0 1h.541A3.002 3.002 0 0 0 7.5 10.959v.541a.5.5 0 0 0 1 0v-.541A3.002 3.002 0 0 0 10.959 8.5h.541a.5.5 0 0 0 0-1h-.541A3.002 3.002 0 0 0 8.5 5.041V4.5a.5.5 0 0 0-1 0v.541A3.003 3.003 0 0 0 5.041 7.5M9 8a1 1 0 1 1-2 0a1 1 0 0 1 2 0"/></svg>