<svg xmlns="http://www.w3.org/2000/svg" width="1em" height="1em" viewBox="0 0 20 20"><path fill="currentColor" d="M17 10a7 7 0 1 1-14 0a7 7 0 0 1 14 0m-7 8a8 8 0 1 0 0-16a8 8 0 0 0 0 16m-2-8c0-1.073.154-1.975.487-2.591c.163-.301.362-.523.597-.671c.234-.147.53-.238.916-.238s.682.091.916.238c.235.148.434.37.597.671c.333.616.487 1.518.487 2.591c0 1.073-.154 1.975-.487 2.591a1.744 1.744 0 0 1-.597.671c-.234.147-.53.238-.916.238s-.682-.091-.916-.238a1.744 1.744 0 0 1-.597-.671C8.154 11.975 8 11.073 8 10m2-4.5c-.552 0-1.037.133-1.448.39a2.74 2.74 0 0 0-.945 1.044C7.158 7.766 7 8.864 7 10s.158 2.235.607 3.066c.228.422.537.786.945 1.043c.411.258.896.391 1.448.391c.552 0 1.037-.133 1.448-.39a2.74 2.74 0 0 0 .945-1.044c.449-.832.607-1.93.607-3.066s-.158-2.234-.607-3.066a2.739 2.739 0 0 0-.945-1.043C11.037 5.633 10.552 5.5 10 5.5"/></svg>