<svg xmlns="http://www.w3.org/2000/svg" width="1em" height="1em" viewBox="0 0 16 16"><path fill="currentColor" d="M5.5 3a1.5 1.5 0 1 0 0 3a1.5 1.5 0 0 0 0-3M3 4.5a2.5 2.5 0 1 1 5 0a2.5 2.5 0 0 1-5 0m8.5-.5a1 1 0 1 0 0 2a5.5 5.5 0 0 0-1.578.23a2 2 0 1 1 3.155 0A5.5 5.5 0 0 0 11.5 6a1 1 0 1 0 0-2M7.257 8H3a1.5 1.5 0 0 0-1.5 1.5v.112a1.387 1.387 0 0 0 .01.137a2.853 2.853 0 0 0 .524 1.342c.548.755 1.588 1.409 3.466 1.409c.205 0 .4-.008.587-.023A5.533 5.533 0 0 1 6 11.5v-.019a6.424 6.424 0 0 1-.5.019c-1.622 0-2.332-.549-2.658-.997a1.853 1.853 0 0 1-.338-.858a.906.906 0 0 1-.004-.048V9.5A.5.5 0 0 1 3 9h3.6c.183-.358.404-.693.657-1m4.243 8a4.5 4.5 0 1 0-3.936-2.318l-.545 1.789a.41.41 0 0 0 .51.51l1.79-.544A4.48 4.48 0 0 0 11.5 16M9 10.5a.5.5 0 0 1 .5-.5h4a.5.5 0 0 1 0 1h-4a.5.5 0 0 1-.5-.5m.5 2.5a.5.5 0 0 1 0-1h2a.5.5 0 0 1 0 1z"/></svg>