<svg xmlns="http://www.w3.org/2000/svg" width="1em" height="1em" viewBox="0 0 20 20"><path fill="currentColor" d="M17.132 1.06a.5.5 0 0 1 .677.203A9.958 9.958 0 0 1 19 6a9.958 9.958 0 0 1-1.19 4.737a.5.5 0 1 1-.881-.474A8.958 8.958 0 0 0 18 6a8.958 8.958 0 0 0-1.071-4.263a.5.5 0 0 1 .203-.677m-2.325 1.974a.5.5 0 0 1 .654.269A6.98 6.98 0 0 1 16 6a6.98 6.98 0 0 1-.539 2.697a.5.5 0 1 1-.922-.385A5.98 5.98 0 0 0 15 6c0-.82-.164-1.6-.461-2.312a.5.5 0 0 1 .268-.654M5 6a4 4 0 1 1 8 0a4 4 0 0 1-8 0m-3 7c0-1.113.903-2 2.009-2H14a2 2 0 0 1 2 2c0 1.691-.833 2.966-2.135 3.797C12.583 17.614 10.855 18 9 18c-1.855 0-3.583-.386-4.865-1.203C2.833 15.967 2 14.69 2 13"/></svg>