<svg xmlns="http://www.w3.org/2000/svg" width="1em" height="1em" viewBox="0 0 16 16"><path fill="currentColor" d="m6.527 10.782l-.001-.003a5.305 5.305 0 0 1-.19-.062a5.011 5.011 0 0 1-2.284-1.649a5 5 0 1 1 8.924-3.567c.027.275-.2.499-.476.499c-.276 0-.497-.225-.53-.499a4 4 0 1 0-5.285 4.278a1.5 1.5 0 1 1-.158 1.003m-.793.775a6.02 6.02 0 0 1-2.482-1.889A1.493 1.493 0 0 0 3 10.5v.5c0 1.971 1.86 4 5 4c3.14 0 5-2.029 5-4v-.5A1.5 1.5 0 0 0 11.5 9H10a2.5 2.5 0 1 1-4.266 2.557M11 6c0-.914-.409-1.733-1.054-2.283a3 3 0 1 0-3.518 4.84A2.49 2.49 0 0 1 8 7.999a2.49 2.49 0 0 1 1.572.556A2.998 2.998 0 0 0 11 6"/></svg>