<svg xmlns="http://www.w3.org/2000/svg" width="1em" height="1em" viewBox="0 0 24 24"><path fill="currentColor" d="m10.155 14.773l-.009-.021a6.996 6.996 0 0 1-.402-.123l-.01-.004A6.996 6.996 0 0 1 5 8a7 7 0 0 1 13.96-.749c.044.412-.296.749-.71.749s-.745-.338-.8-.748a5.501 5.501 0 1 0-7.279 5.937a2 2 0 0 1 3.829.81c0 .598-.262 1.134-.677 1.5A1.99 1.99 0 0 1 12 16a1.993 1.993 0 0 1-1.845-1.227m-2.158.727a8.528 8.528 0 0 1-2.003-1.485a2.25 2.25 0 0 0-1.99 2.234v.578c0 .892.318 1.756.898 2.435c1.566 1.834 3.952 2.74 7.098 2.74s5.533-.906 7.102-2.74a3.75 3.75 0 0 0 .901-2.438v-.575a2.249 2.249 0 0 0-2.248-2.25H15.5c0 .538-.12 1.046-.337 1.5h2.592a.75.75 0 0 1 .748.75v.575a2.25 2.25 0 0 1-.54 1.463c-1.257 1.468-3.224 2.214-5.963 2.214c-2.738 0-4.704-.746-5.957-2.213a2.25 2.25 0 0 1-.54-1.462v-.577a.75.75 0 0 1 .75-.75zM8 8a4 4 0 1 1 6.243 3.313A3.486 3.486 0 0 0 12 10.5a2.5 2.5 0 1 0 0-5a2.5 2.5 0 0 0 0 5c-.854 0-1.636.306-2.242.813A3.986 3.986 0 0 1 8 8"/></svg>