<svg xmlns="http://www.w3.org/2000/svg" width="1em" height="1em" viewBox="0 0 24 24"><path fill="currentColor" d="M20.392.466a.75.75 0 0 1 1.018.297A12.945 12.945 0 0 1 23 7c0 2.258-.576 4.384-1.59 6.236a.75.75 0 0 1-1.316-.72A11.446 11.446 0 0 0 21.501 7c0-2-.51-3.88-1.407-5.516a.75.75 0 0 1 .298-1.018M17.29 3.06a.75.75 0 0 1 .985.393A8.973 8.973 0 0 1 19.001 7a8.972 8.972 0 0 1-.726 3.545a.75.75 0 1 1-1.378-.591A7.473 7.473 0 0 0 17.5 7a7.48 7.48 0 0 0-.604-2.954a.75.75 0 0 1 .393-.985m.713 13.188a2.249 2.249 0 0 0-2.248-2.25H4.252a2.249 2.249 0 0 0-2.25 2.25v.577c0 .893.32 1.756.9 2.435c1.565 1.835 3.952 2.74 7.097 2.74c3.146 0 5.533-.905 7.102-2.739a3.75 3.75 0 0 0 .901-2.438zm-13.75-.75h11.502a.75.75 0 0 1 .748.75v.575a2.25 2.25 0 0 1-.54 1.463c-1.257 1.468-3.224 2.214-5.963 2.214c-2.738 0-4.704-.746-5.957-2.214a2.25 2.25 0 0 1-.54-1.46v-.578a.75.75 0 0 1 .75-.75M15 7.005a5 5 0 1 0-10 0a5 5 0 0 0 10 0m-8.5 0a3.5 3.5 0 1 1 7 0a3.5 3.5 0 0 1-7 0"/></svg>