<svg xmlns="http://www.w3.org/2000/svg" width="1em" height="1em" viewBox="0 0 24 24"><path fill="currentColor" d="M3.28 2.22a.75.75 0 1 0-1.06 1.06l1.25 1.25A3.247 3.247 0 0 0 2 7.25v9.5A3.25 3.25 0 0 0 5.25 20h6.772A6.47 6.47 0 0 1 11 16.5c0-1.267.363-2.45.99-3.45l.729.73a5.5 5.5 0 0 0 7.502 7.502l.498.498a.75.75 0 0 0 1.061-1.06zm15.44 17.56c-.38.142-.79.219-1.22.219a3.49 3.49 0 0 1-2.5-1.05v.55a.5.5 0 0 1-1 0v-2a.5.5 0 0 1 .5-.5h1.44l.882.883A.498.498 0 0 1 16.5 18h-1a2.496 2.496 0 0 0 2.406.967zm-3.863-8.106l1.512 1.512A3.494 3.494 0 0 1 17.5 13c.98 0 1.865.403 2.5 1.05v-.55a.5.5 0 0 1 1 0v2a.5.5 0 0 1-.5.5h-1.318l3.143 3.143a5.5 5.5 0 0 0-7.467-7.468m3.392 3.392l-1.05-1.05a2.496 2.496 0 0 1 2.3.982h-.999a.498.498 0 0 0-.25.068M7.182 4l6.943 6.944A6.469 6.469 0 0 1 17.5 10c1.747 0 3.332.689 4.5 1.81V7.25A3.25 3.25 0 0 0 18.75 4z"/></svg>