<svg xmlns="http://www.w3.org/2000/svg" width="1em" height="1em" viewBox="0 0 24 24"><path fill="currentColor" d="M16.088 6.412a2.844 2.844 0 0 0-1.347-.955l-1.378-.448a.544.544 0 0 1 0-1.025l1.378-.448A2.839 2.839 0 0 0 16.5 1.774l.011-.034l.448-1.377a.544.544 0 0 1 1.027 0l.447 1.377a2.835 2.835 0 0 0 1.799 1.796l1.377.448l.028.007a.544.544 0 0 1 0 1.025l-1.378.448a2.839 2.839 0 0 0-1.798 1.796l-.448 1.377a.544.544 0 0 1-1.026 0l-.448-1.377a2.837 2.837 0 0 0-.45-.848m7.695 3.801l-.766-.248a1.577 1.577 0 0 1-.998-.999l-.25-.764a.302.302 0 0 0-.57 0l-.248.764a1.576 1.576 0 0 1-.984.999l-.765.248a.302.302 0 0 0 0 .57l.765.249a1.578 1.578 0 0 1 1 1.002l.248.764a.302.302 0 0 0 .57 0l.249-.764a1.576 1.576 0 0 1 .999-.999l.765-.248a.302.302 0 0 0 0-.57zM12.072 4H5.25A3.25 3.25 0 0 0 2 7.25v9.5A3.25 3.25 0 0 0 5.25 20h13.5A3.25 3.25 0 0 0 22 16.75v-2.819a1.29 1.29 0 0 1-1.29-.122a1.35 1.35 0 0 1-.49-.65l-.24-.76a.59.59 0 0 0-.14-.23a.742.742 0 0 0-.22-.14l-.79-.25a1.31 1.31 0 0 1-.63-.48a1.26 1.26 0 0 1-.24-.75a1.28 1.28 0 0 1 .18-.66a1.45 1.45 0 0 1-.68.16a1.57 1.57 0 0 1-.89-.28a1.58 1.58 0 0 1-.57-.77l-.41-1.45a1.929 1.929 0 0 0-.29-.55l-.18-.1a1.92 1.92 0 0 0-.72-.44l-1.4-.46a1.54 1.54 0 0 1-.72-.64A1.57 1.57 0 0 1 12.072 4"/></svg>