<svg xmlns="http://www.w3.org/2000/svg" width="1em" height="1em" viewBox="0 0 16 16"><path fill="currentColor" d="M16 4.5a4.5 4.5 0 1 1-9 0a4.5 4.5 0 0 1 9 0m-4-2a.5.5 0 0 0-1 0V4H9.5a.5.5 0 0 0 0 1H11v1.5a.5.5 0 0 0 1 0V5h1.5a.5.5 0 0 0 0-1H12zm-.5 7.5c.899 0 1.748-.216 2.497-.598c.002.032.003.065.003.098v2.75A1.75 1.75 0 0 1 12.25 14H11V9.978c.165.014.332.022.5.022m-1.51-.21a5.502 5.502 0 0 1-2.641-1.682A2 2 0 0 0 6 10v4h4v-4c0-.071-.004-.141-.01-.21M4.5 2h2.1c-.384.75-.6 1.6-.6 2.5a5.48 5.48 0 0 0 .749 2.773a3.011 3.011 0 0 0-1.13.9A2.498 2.498 0 0 0 2 7.5v-3A2.5 2.5 0 0 1 4.5 2M5 14H3.75A1.75 1.75 0 0 1 2 12.25V9.5a1.5 1.5 0 1 1 3 0z"/></svg>