<svg xmlns="http://www.w3.org/2000/svg" width="1em" height="1em" viewBox="0 0 24 24"><path fill="currentColor" d="M18.586 6.414a1.994 1.994 0 0 0 1.9.527a2 2 0 1 0-1.9-.527M14.268 20A2 2 0 0 0 18 19a1.994 1.994 0 0 0-.586-1.414a1.994 1.994 0 0 0-1.9-.527A2.004 2.004 0 0 0 14 19c0 .364.097.706.268 1M4 21a2 2 0 1 1 0-4a2 2 0 0 1 0 4M6.586 6.414a1.994 1.994 0 0 0 1.9.527A2.004 2.004 0 0 0 10 5a2 2 0 1 0-3.414 1.414m-2.77 9.592l2.445-8.56a2.986 2.986 0 0 0 1.924.548l-2.446 8.56a2.986 2.986 0 0 0-1.923-.548M17.17 6h-6.342a2.996 2.996 0 0 0 0-2h6.342a2.996 2.996 0 0 0 0 2m-4 14a2.997 2.997 0 0 1 0-2H6.829a2.995 2.995 0 0 1 0 2zm2.645-3.994l2.445-8.56a2.986 2.986 0 0 0 1.924.548l-2.446 8.56a2.986 2.986 0 0 0-1.923-.548"/></svg>