<svg xmlns="http://www.w3.org/2000/svg" width="1em" height="1em" viewBox="0 0 24 24"><path fill="currentColor" d="M6.75 8a.75.75 0 0 0 0 1.5h4.5a.75.75 0 0 0 0-1.5zM6 11.75a.75.75 0 0 1 .75-.75h8.5c.211 0 .402.087.538.228a6.484 6.484 0 0 0-2.442 1.272H6.75a.75.75 0 0 1-.75-.75m14.5-5v4.982A6.518 6.518 0 0 1 22 12.81V6.75A2.75 2.75 0 0 0 19.25 4H4.75A2.75 2.75 0 0 0 2 6.75v10.5A2.75 2.75 0 0 0 4.75 20h6.748a6.452 6.452 0 0 1-.422-1.5H4.75c-.69 0-1.25-.56-1.25-1.25V6.75c0-.69.56-1.25 1.25-1.25h14.5c.69 0 1.25.56 1.25 1.25m-9.186 8.75a6.471 6.471 0 0 1 .708-1.5H6.75a.75.75 0 0 0 0 1.5zM23 17.5a5.5 5.5 0 1 1-11 0a5.5 5.5 0 0 1 11 0m-8.5-.5a.5.5 0 0 0 0 1h4.793l-1.647 1.646a.5.5 0 0 0 .708.708l2.5-2.5a.5.5 0 0 0 0-.708l-2.5-2.5a.5.5 0 0 0-.708.708L19.293 17z"/></svg>