<svg xmlns="http://www.w3.org/2000/svg" width="1em" height="1em" viewBox="0 0 28 28"><path fill="currentColor" d="M6.25 3h15.5A3.25 3.25 0 0 1 25 6.25v15.5A3.25 3.25 0 0 1 21.75 25H6.25A3.25 3.25 0 0 1 3 21.75V6.25A3.25 3.25 0 0 1 6.25 3M4.5 6.25v1.188L7.438 4.5H6.25A1.75 1.75 0 0 0 4.5 6.25m0 3.31v2.878L12.438 4.5H9.56zM14.56 4.5L4.5 14.56v2.879L17.439 4.5zm5 0L4.5 19.56v2.19c0 .206.036.404.101.587L22.337 4.601a1.747 1.747 0 0 0-.587-.101zm3.839 1.161L5.66 23.398c.184.066.382.102.589.102h2.188L23.5 8.438V6.25a1.74 1.74 0 0 0-.102-.589m.101 4.899L10.56 23.5h2.878L23.5 13.439zm0 5l-7.94 7.94h2.879l5.061-5.061zm0 5l-2.94 2.94h1.19a1.75 1.75 0 0 0 1.75-1.75z"/></svg>