<svg xmlns="http://www.w3.org/2000/svg" width="1em" height="1em" viewBox="0 0 20 20"><path fill="currentColor" d="M19 14.5a4.5 4.5 0 1 1-9 0a4.5 4.5 0 0 1 9 0m-4-2a.5.5 0 0 0-1 0V14h-1.5a.5.5 0 0 0 0 1H14v1.5a.5.5 0 0 0 1 0V15h1.5a.5.5 0 0 0 0-1H15zm-5.108-1.004a5.53 5.53 0 0 1 1.604-1.604a1.5 1.5 0 1 0-1.604 1.604m-.858 2.387A4.002 4.002 0 0 1 10 6a4.002 4.002 0 0 1 3.883 3.034a5.557 5.557 0 0 1 1.02-.02A5.002 5.002 0 0 0 5 10a5.002 5.002 0 0 0 4.015 4.903a5.577 5.577 0 0 1 .02-1.02m.56 3.105a7 7 0 1 1 7.394-7.394a5.47 5.47 0 0 1 1.008.66a8 8 0 1 0-7.742 7.742a5.506 5.506 0 0 1-.66-1.008"/></svg>