<svg xmlns="http://www.w3.org/2000/svg" width="1em" height="1em" viewBox="0 0 24 24"><path fill="currentColor" d="M12 6.5a5.5 5.5 0 1 0-11 0a5.5 5.5 0 0 0 11 0M6.5 3a.5.5 0 0 1 .5.5V6h2a.5.5 0 0 1 0 1H6.5a.5.5 0 0 1-.5-.5v-3a.5.5 0 0 1 .5-.5m4.5 8.19A6.478 6.478 0 0 1 6.5 13a6.473 6.473 0 0 1-2.969-.716A2.75 2.75 0 0 0 2 14.75V17c0 .865.4 1.636 1.023 2.14a3.25 3.25 0 0 0 6.32.61h4.814a3.251 3.251 0 0 0 6.258-.258A2.75 2.75 0 0 0 22 17v-1.688a2.75 2.75 0 0 0-2.083-2.668l-2.183-.546l-2.508-4.246A2.75 2.75 0 0 0 13 6.504c0 .515-.06 1.016-.174 1.496h.032c.443 0 .852.234 1.077.614l2 3.386H11zm-6.5 7.56a1.75 1.75 0 1 1 3.5 0a1.75 1.75 0 0 1-3.5 0m12.75 1.75a1.75 1.75 0 1 1 0-3.5a1.75 1.75 0 0 1 0 3.5"/></svg>