<svg xmlns="http://www.w3.org/2000/svg" width="1em" height="1em" viewBox="0 0 20 20"><path fill="currentColor" d="m14.878 1.282l.348 1.071a2.205 2.205 0 0 0 1.399 1.397l1.071.348l.021.006a.423.423 0 0 1 0 .798l-1.071.348a2.208 2.208 0 0 0-1.399 1.397l-.348 1.07a.423.423 0 0 1-.798 0l-.349-1.07a2.23 2.23 0 0 0-.532-.867a2.224 2.224 0 0 0-.866-.536l-1.071-.348a.423.423 0 0 1 0-.798l1.071-.348a2.208 2.208 0 0 0 1.377-1.397l.348-1.07a.423.423 0 0 1 .799 0m4.905 7.931l-.766-.248a1.577 1.577 0 0 1-.998-.999l-.25-.764a.302.302 0 0 0-.57 0l-.248.764a1.576 1.576 0 0 1-.984.999l-.765.248a.303.303 0 0 0 0 .57l.765.249a1.578 1.578 0 0 1 1 1.002l.248.764a.302.302 0 0 0 .57 0l.249-.764a1.576 1.576 0 0 1 .999-.999l.765-.248a.303.303 0 0 0 0-.57zM17 12.901a1.453 1.453 0 0 0 1 .02V14.5a1.5 1.5 0 0 1-1.5 1.5h-13A1.5 1.5 0 0 1 2 14.5v-9A1.5 1.5 0 0 1 3.5 4h6.588a1.419 1.419 0 0 0-.088.496c0 .176.031.346.09.504H3.5a.5.5 0 0 0-.5.5v9a.5.5 0 0 0 .5.5H6v-1.5A1.5 1.5 0 0 1 7.5 12h5a1.5 1.5 0 0 1 1.5 1.5V15h2.5a.5.5 0 0 0 .5-.5zM10 11a2.5 2.5 0 1 0 0-5a2.5 2.5 0 0 0 0 5"/></svg>