<svg xmlns="http://www.w3.org/2000/svg" width="1em" height="1em" viewBox="0 0 48 48"><path fill="currentColor" d="M32.833 13.112a5.36 5.36 0 0 0-2.544-1.805l-2.603-.845a1.028 1.028 0 0 1 0-1.937l2.602-.845a5.362 5.362 0 0 0 3.323-3.33l.022-.064l.845-2.6a1.027 1.027 0 0 1 1.94 0l.845 2.6A5.356 5.356 0 0 0 40.66 7.68l2.602.845l.052.013a1.028 1.028 0 0 1 0 1.937l-2.602.845a5.361 5.361 0 0 0-3.397 3.394l-.846 2.6a1.027 1.027 0 0 1-1.563.497a1.027 1.027 0 0 1-.375-.497l-.846-2.6a5.354 5.354 0 0 0-.852-1.602m14.776 6.872l-1.378-.448a2.839 2.839 0 0 1-1.797-1.796l-.448-1.377a.544.544 0 0 0-1.027 0l-.448 1.377a2.835 2.835 0 0 1-1.77 1.796l-1.378.448a.545.545 0 0 0 0 1.025l1.378.448c.151.05.298.113.438.188l.003.015a2.837 2.837 0 0 1 1.357 1.61l.448 1.377a.545.545 0 0 0 1.01.039v-.01a.504.504 0 0 0 .016-.039l.448-1.377a2.837 2.837 0 0 1 1.798-1.796l1.378-.448a.545.545 0 0 0 0-1.025zM25.41 8H7.75A3.75 3.75 0 0 0 4 11.75v24.5A3.75 3.75 0 0 0 7.75 40h32.5A3.75 3.75 0 0 0 44 36.25v-9.3a2.551 2.551 0 0 1-2-.41a2.544 2.544 0 0 1-.5-.52v10.23c0 .69-.56 1.25-1.25 1.25H34v-6.25A3.25 3.25 0 0 0 30.75 28h-13.5A3.25 3.25 0 0 0 14 31.25v6.25H7.75c-.69 0-1.25-.56-1.25-1.25v-24.5c0-.69.56-1.25 1.25-1.25h17.41a3.001 3.001 0 0 1 .25-2.5M24 26a6 6 0 1 0 0-12a6 6 0 0 0 0 12"/></svg>