<svg xmlns="http://www.w3.org/2000/svg" width="1em" height="1em" viewBox="0 0 16 16"><path fill="currentColor" d="m10.878.282l.348 1.071a2.205 2.205 0 0 0 1.398 1.397l1.072.348l.021.006a.423.423 0 0 1 0 .798l-1.071.348a2.208 2.208 0 0 0-1.399 1.397l-.348 1.07a.423.423 0 0 1-.798 0l-.348-1.07a2.204 2.204 0 0 0-1.399-1.403l-1.072-.348a.423.423 0 0 1 0-.798l1.072-.348a2.208 2.208 0 0 0 1.377-1.397l.348-1.07a.423.423 0 0 1 .799 0m4.905 7.931l-.765-.248a1.577 1.577 0 0 1-1-.999l-.248-.764a.302.302 0 0 0-.57 0l-.25.764a1.576 1.576 0 0 1-.983.999l-.765.248a.303.303 0 0 0 0 .57l.765.249a1.578 1.578 0 0 1 1 1.002l.248.764a.302.302 0 0 0 .57 0l.249-.764a1.576 1.576 0 0 1 .999-.999l.765-.248a.303.303 0 0 0 0-.57zM13.502 12H11v-1a1 1 0 0 0-1-1H6a1 1 0 0 0-1 1v1H2.75a.75.75 0 0 1-.75-.75v-6.5A.75.75 0 0 1 2.75 4h3.34A1.418 1.418 0 0 1 6 3.496c0-.173.03-.34.088-.496H2.75A1.75 1.75 0 0 0 1 4.75v6.5c0 .966.784 1.75 1.75 1.75h10.5A1.75 1.75 0 0 0 15 11.25v-.928a.54.54 0 0 0-.022.055l-.25.762c-.1.28-.26.49-.48.65c-.22.16-.478.21-.746.211m-5.47-6.801l-.462-.153a2 2 0 1 0 2.248 2.788a1.403 1.403 0 0 1-.145-.09a1.51 1.51 0 0 1-.52-.692l-.36-1.092c-.09-.23-.18-.36-.29-.47a1.311 1.311 0 0 0-.471-.291"/></svg>