<svg xmlns="http://www.w3.org/2000/svg" width="1em" height="1em" viewBox="0 0 16 16"><path fill="currentColor" d="M6.332 5A1.75 1.75 0 1 1 4.75 4h4.5a1.75 1.75 0 0 1 1.643 1.147a1.35 1.35 0 0 0-.37.28a4.328 4.328 0 0 1-.543.496A.752.752 0 0 0 9.25 5a.75.75 0 0 0-.312 1.432a2.53 2.53 0 0 1-.588.068c-.224 0-.428.052-.605.143A1.742 1.742 0 0 1 7.668 5zM12 2.5v2.599c.177.072.34.183.476.328c.175.188.35.347.524.482V2.5A1.5 1.5 0 0 0 11.5 1h-9A1.5 1.5 0 0 0 1 2.5V9a1.5 1.5 0 0 0 1.5 1.5h4.508c-.005-.122-.006-.244-.008-.366V9.5H2.5A.5.5 0 0 1 2 9V2.5a.5.5 0 0 1 .5-.5h9a.5.5 0 0 1 .5.5M4 5.75a.75.75 0 1 0 1.5 0a.75.75 0 0 0-1.5 0M11.499 15a.33.33 0 0 1-.11-.02c-.691-.246-1.28-.574-1.761-.979L9.627 14a4.344 4.344 0 0 1-.877-.999L8.749 13c-.462-.728-.712-1.608-.745-2.635L8 10.125v-2.25c0-.207.157-.375.35-.375c1.07 0 2.033-.458 2.903-1.39A.338.338 0 0 1 11.5 6c.09 0 .178.037.246.11c.87.932 1.833 1.39 2.903 1.39c.193 0 .35.168.35.375v2.25l-.004.24c-.033 1.027-.283 1.907-.745 2.635v.001c-.238.373-.53.707-.878.999v.001c-.483.406-1.07.733-1.762.98a.329.329 0 0 1-.11.019"/></svg>