<svg xmlns="http://www.w3.org/2000/svg" width="1em" height="1em" viewBox="0 0 20 20"><path fill="currentColor" d="M2.854 2.146a.5.5 0 1 0-.708.708l1.355 1.354A2.5 2.5 0 0 0 2 6.5v2.264a17.73 17.73 0 0 1 1.72-1.411c.626-.443 1.297-.833 1.917-1.01l1.96 1.96a3.86 3.86 0 0 1-.259.488c-.167.272-.374.556-.576.834l-.023.03c-.211.292-.421.582-.609.881c-.158.285-.2.622-.13.865a.533.533 0 0 0 .166.265c.073.061.19.119.379.136c.33.03.759-.083 1.286-.272a.5.5 0 1 1 .338.94c-.52.188-1.14.38-1.714.328a1.658 1.658 0 0 1-.928-.363a1.524 1.524 0 0 1-.486-.753c-.16-.546-.05-1.165.224-1.648l.005-.009l.006-.01c.21-.337.443-.657.655-.948l.01-.014c.213-.291.399-.547.545-.785c.326-.53.298-.724.222-.835a.394.394 0 0 0-.25-.175c-.113-.026-.278-.024-.505.036c-.46.12-1.038.438-1.654.875c-.853.604-1.701 1.38-2.299 1.985V13.5A2.5 2.5 0 0 0 4.5 16h10.793l1.853 1.854a.5.5 0 0 0 .708-.708zm8.393 9.809A1.841 1.841 0 0 1 9.044 9.75zm-.727-3.557l2.1 2.102l.422-.127c.3-.09.572-.254.794-.477L17.44 6.28c.71-.714.745-1.85.102-2.605l-.1-.11l-.11-.103a1.904 1.904 0 0 0-2.593.1l-3.612 3.626a1.906 1.906 0 0 0-.465.765zm6.807 6.808l-3.905-3.905a2.892 2.892 0 0 0 1.123-.699L18 7.134V13.5c0 .66-.255 1.26-.673 1.706M6.121 4l3.603 3.603a2.9 2.9 0 0 1 .695-1.121L12.89 4z"/></svg>