<svg xmlns="http://www.w3.org/2000/svg" width="1em" height="1em" viewBox="0 0 24 24"><path fill="currentColor" fill-rule="evenodd" d="M20.375 8.174c.163-.4.688-1.987-.163-4.137c0 0-1.312-.413-4.3 1.625c-1.25-.35-2.587-.4-3.912-.4c-1.325 0-2.662.05-3.912.4c-2.988-2.05-4.3-1.625-4.3-1.625c-.85 2.15-.325 3.737-.163 4.137C2.612 9.262 2 10.662 2 12.362c0 6.437 4.163 7.887 9.975 7.887c5.813 0 10.025-1.45 10.025-7.887c0-1.7-.613-3.1-1.625-4.188M12 19.024c-4.125 0-7.475-.187-7.475-4.187c0-.95.475-1.85 1.275-2.588c1.338-1.225 3.625-.575 6.2-.575c2.588 0 4.85-.65 6.2.575c.813.738 1.275 1.625 1.275 2.588c0 3.987-3.35 4.187-7.475 4.187m-3.137-6.262c-.825 0-1.5 1-1.5 2.225s.674 2.237 1.5 2.237c.825 0 1.5-1 1.5-2.237c0-1.238-.675-2.225-1.5-2.225m6.275 0c-.825 0-1.5.987-1.5 2.225c0 1.237.675 2.237 1.5 2.237s1.5-1 1.5-2.237c0-1.238-.663-2.225-1.5-2.225"/></svg>