<svg xmlns="http://www.w3.org/2000/svg" width="4.13em" height="1em" viewBox="0 0 512 124"><defs><linearGradient id="logosGradio0" x1="-6.452%" x2="85.236%" y1="49.784%" y2="49.784%"><stop offset="0%" stop-color="#F9D100"/><stop offset="100%" stop-color="#F97700"/></linearGradient><linearGradient id="logosGradio1" x1="106.079%" x2="14.268%" y1="49.784%" y2="49.784%"><stop offset="0%" stop-color="#F9D100"/><stop offset="100%" stop-color="#F97700"/></linearGradient><linearGradient id="logosGradio2" x1="-12.871%" x2="169.796%" y1="75.863%" y2="74.878%"><stop offset="0%" stop-color="#F9D100"/><stop offset="100%" stop-color="#F97700"/></linearGradient></defs><path fill="#232D36" d="m181.672 105.842l9.04-11.158c4.998 4.578 10.567 6.867 16.709 6.867c4.12 0 7.515-.61 10.185-1.831c2.67-1.221 4.005-2.9 4.005-5.036c0-3.624-2.956-5.436-8.869-5.436c-1.602 0-3.986.191-7.152.573c-3.166.381-5.55.572-7.153.572c-9.841 0-14.762-3.529-14.762-10.586c0-2.021.82-4.005 2.46-5.95c1.64-1.946 3.548-3.376 5.722-4.292c-6.98-4.54-10.471-10.967-10.471-19.283c0-6.561 2.403-11.978 7.21-16.25c4.806-4.31 10.719-6.466 17.738-6.466c5.493 0 10.09 1.03 13.79 3.09l5.607-6.523l9.899 8.983l-6.81 4.978c2.366 3.586 3.548 7.82 3.548 12.703c0 6.98-2.136 12.57-6.408 16.765c-4.234 4.158-9.594 6.237-16.079 6.237c-1.03 0-2.403-.095-4.12-.286l-2.346-.343c-.267 0-1.296.42-3.09 1.259c-1.754.8-2.632 1.64-2.632 2.517c0 1.526 1.317 2.289 3.949 2.289c1.182 0 3.166-.286 5.95-.858c2.785-.572 5.17-.858 7.153-.858c13.923 0 20.885 5.588 20.885 16.765c0 6.18-2.785 11.024-8.354 14.533c-5.57 3.548-12.283 5.322-20.141 5.322c-9.384 0-17.872-2.766-25.463-8.297m14.305-55.503c0 3.624.992 6.542 2.975 8.755c2.022 2.174 4.73 3.261 8.125 3.261c3.396 0 6.009-1.068 7.84-3.204c1.83-2.136 2.746-5.073 2.746-8.812c0-3.09-.992-5.703-2.975-7.839c-1.946-2.136-4.483-3.204-7.61-3.204c-3.281 0-5.951 1.03-8.011 3.09c-2.06 2.06-3.09 4.71-3.09 7.953m84.511-8.182c-2.554-1.678-5.357-2.518-8.408-2.518c-3.32 0-6.276 1.507-8.87 4.52c-2.557 3.014-3.834 6.695-3.834 11.044v34.904H245.07V28.825h14.305v5.607c4.006-4.5 9.326-6.752 15.964-6.752c4.884 0 8.62.744 11.215 2.232zm45.149 41.827c-1.299 2.137-3.567 3.891-6.81 5.264a25.927 25.927 0 0 1-10.07 2.003c-6.6 0-11.788-1.64-15.565-4.92c-3.776-3.32-5.664-8.011-5.664-14.077c0-7.095 2.65-12.645 7.955-16.65c5.339-4.006 12.91-6.008 22.715-6.008c1.677 0 3.663.286 5.95.858c0-7.21-4.559-10.815-13.674-10.815c-5.379 0-9.88.897-13.505 2.69l-3.089-11.1c4.921-2.366 10.776-3.549 17.567-3.549c9.345 0 16.192 2.137 20.539 6.409c4.35 4.234 6.524 12.283 6.524 24.147v13.103c0 8.163 1.64 13.294 4.921 15.392c-1.182 2.06-2.499 3.319-3.948 3.776c-1.449.496-3.11.744-4.976.744c-2.06 0-3.912-.763-5.551-2.289c-1.643-1.526-2.748-3.185-3.319-4.978m-1.375-22.716c-2.441-.496-4.27-.744-5.493-.744c-11.291 0-16.937 3.7-16.937 11.1c0 5.494 3.186 8.24 9.557 8.24c8.584 0 12.873-4.291 12.873-12.874zm69.178 28.839v-3.72c-1.182 1.298-3.184 2.442-6.008 3.434a27.163 27.163 0 0 1-8.753 1.43c-8.544 0-15.277-2.708-20.198-8.125c-4.885-5.417-7.325-12.97-7.325-22.659c0-9.689 2.803-17.566 8.412-23.631c5.645-6.104 12.7-9.156 21.17-9.156c4.655 0 8.889.954 12.702 2.861V5.994l14.306-3.433v87.546zm0-46.634c-3.052-2.441-6.236-3.662-9.554-3.662c-5.723 0-10.129 1.755-13.217 5.264c-3.092 3.472-4.636 8.469-4.636 14.992c0 12.74 6.14 19.11 18.424 19.11c1.375 0 3.051-.4 5.035-1.2c2.023-.84 3.34-1.68 3.948-2.518zm39.883-38.394c2.287 0 4.234.82 5.836 2.46c1.64 1.602 2.46 3.548 2.46 5.837c0 2.288-.82 4.253-2.46 5.893c-1.602 1.602-3.549 2.403-5.836 2.403c-2.29 0-4.252-.8-5.894-2.403c-1.603-1.64-2.404-3.605-2.404-5.893c0-2.289.801-4.235 2.404-5.837c1.642-1.64 3.604-2.46 5.894-2.46m-7.38 85.028V40.555h-7.841v-11.73h22.316v61.282zm27.179-30.784c0-9.346 2.69-16.956 8.068-22.83c5.416-5.875 12.548-8.813 21.399-8.813c9.308 0 16.535 2.823 21.687 8.469c5.148 5.646 7.724 13.37 7.724 23.174c0 9.765-2.634 17.528-7.896 23.288c-5.226 5.76-12.397 8.64-21.515 8.64c-9.309 0-16.554-2.9-21.743-8.697c-5.151-5.836-7.724-13.58-7.724-23.231m14.875 0c0 13.504 4.866 20.256 14.592 20.256c4.464 0 7.991-1.755 10.585-5.265c2.631-3.51 3.948-8.506 3.948-14.991c0-13.313-4.844-19.97-14.533-19.97c-4.464 0-8.01 1.755-10.644 5.264c-2.631 3.51-3.948 8.412-3.948 14.706"/><path fill="url(#logosGradio0)" d="M66.415 35.891a9.057 9.057 0 0 1 9.008 0l61.862 35.46c6.07 3.48 6.07 12.235 0 15.714l-61.862 35.46a9.057 9.057 0 0 1-9.008 0L4.553 87.065c-6.07-3.48-6.07-12.235 0-15.714zm4.502 18.292l-43.65 25.023l43.65 25.019l43.65-25.019z"/><path fill="url(#logosGradio1)" d="M66.415 1.2a9.057 9.057 0 0 1 9.008 0l61.862 35.459c6.07 3.48 6.07 12.235 0 15.715L75.423 87.833a9.057 9.057 0 0 1-9.008 0L4.553 52.373c-6.07-3.479-6.07-12.235 0-15.714zm4.502 18.291l-43.65 25.023l43.65 25.019l43.65-25.019z"/><path fill="url(#logosGradio2)" d="m66.592 35.878l8.961 15.741l-62.015 35.306l-8.962-15.741z"/></svg>