<svg xmlns="http://www.w3.org/2000/svg" width="1em" height="1em" viewBox="0 0 64 64"><g fill="#d0d2d3"><path d="M39.09 47.912c0 2.674-2.951 4.838-6.595 4.838c-3.643 0-6.596-2.164-6.596-4.838V4.772c0-2.672 2.953-4.839 6.596-4.839c3.644 0 6.595 2.167 6.595 4.839z"/><ellipse cx="32.5" cy="52.966" rx="12.436" ry="10.634"/></g><path fill="#ec1c24" d="M37.75 46.09V19.365H27.249V46.09c-2.792 1.498-4.652 4.145-4.652 7.169c0 4.677 4.434 8.47 9.903 8.47c5.47 0 9.903-3.793 9.903-8.47c0-3.02-1.861-5.671-4.653-7.169"/><path fill="#1f2e35" d="M27.639 20.381c-.338 0-.612-.454-.612-1.013c0-.56.274-1.013.612-1.013h6.796c.338 0 .612.454.612 1.013c0 .559-.274 1.013-.612 1.013zm0 6.974c-.338 0-.612-.453-.612-1.01c0-.56.274-1.015.612-1.015h6.796c.338 0 .612.455.612 1.015c0 .559-.274 1.01-.612 1.01zm0 6.975c-.338 0-.612-.453-.612-1.013c0-.559.274-1.013.612-1.013h6.796c.338 0 .612.454.612 1.013c0 .56-.274 1.013-.612 1.013zm0-20.924c-.338 0-.612-.454-.612-1.012c0-.56.274-1.013.612-1.013h6.796c.338 0 .612.454.612 1.013c0 .559-.274 1.012-.612 1.012z"/></svg>