<svg xmlns="http://www.w3.org/2000/svg" width="1em" height="1em" viewBox="0 0 64 64"><circle cx="31.867" cy="31.867" r="29.521" fill="#e0e7ec"/><path fill="#98a9b4" d="M31.869 0C14.297 0 0 14.295 0 31.869c0 17.57 14.297 31.865 31.869 31.865s31.865-14.295 31.865-31.865C63.734 14.295 49.439 0 31.869 0m0 57.53c-14.15 0-25.665-11.514-25.665-25.665S17.717 6.2 31.869 6.2c14.15 0 25.663 11.513 25.663 25.665c-.001 14.15-11.512 25.665-25.663 25.665"/><path fill="#85939c" d="M33.738 52.741c0 1.434-.844 2.594-1.883 2.594c-1.039 0-1.883-1.16-1.883-2.594V31.746c0-1.436.844-2.593 1.883-2.593c1.04 0 1.883 1.158 1.883 2.593z"/><path fill="#788288" d="M47.76 28.99c1.432 0 2.594.844 2.594 1.881c0 1.039-1.164 1.883-2.596 1.883l-15.195.006c-1.429 0-2.591-.846-2.589-1.883c-.002-1.039 1.161-1.883 2.589-1.885z"/></svg>