<svg xmlns="http://www.w3.org/2000/svg" width="1em" height="1em" viewBox="0 0 64 64"><path fill="currentColor" d="M32 32.001v-1h-1v-.318a14.82 14.82 0 0 0 7.605-4.076l.707-.707l-.74-.74A13.94 13.94 0 0 0 42 16c0-7.732-6.268-14-14-14S14 8.268 14 16c0 3.506 1.297 6.702 3.426 9.159l-.741.741l.708.707A14.841 14.841 0 0 0 25 30.683v.318h-1v1H14v12h10v7h1V53h1v9h4v-9h1v-1.999h1v-1h18v-18zm10.57 1.529h6.158v1H42.57zm6.159 1.995v1H38.633v-1zM35.203 33.53h6.158v1h-6.158zM22 9c0-1.1.9-2 2-2h8c1.1 0 2 .9 2 2v8c0 .734-.405 1.373-1 1.72V21c0 .55-.451 1-1 1c-.551 0-1-.45-1-1v-2h-6v2c0 .55-.451 1-1 1c-.551 0-1-.45-1-1v-2.28c-.595-.348-1-.986-1-1.72zm4.142 19.851a12.886 12.886 0 0 1-6.601-2.978l1.419-1.419a10.921 10.921 0 0 0 7.039 2.542a10.92 10.92 0 0 0 7.039-2.541l1.42 1.418a12.88 12.88 0 0 1-6.6 2.978l-.858.123v2.027h-2v-2.027zm-6.626 4.711h3.313v2.964h-3.313zm-3.576 0h1.625v2.964H15.94zm3.313 8.937H15.94v-2.998h3.313zm3.575.001h-1.656v-2.998h1.656zM30 49.001h-1V51h-2v-1.999h-1v-16h4zm13.85-.503H33.253v-1H43.85zm4.879 0h-3.701v-1h3.701zm0-1.994H37.414v-1h11.314zm-7.231-6.001v-1h7.23v1zm7.231.994v1H44.96v-1zm-4.845 0v1h-3.769v-1zm-3.728-.994h-7.23v-1h7.23zm-.926.994v1h-3.768v-1z"/><path fill="currentColor" d="M25 13h6c.549 0 1-.45 1-1v-2c0-.55-.451-1-1-1h-6c-.551 0-1 .45-1 1v2c0 .55.449 1 1 1"/><circle cx="25" cy="16" r="1" fill="currentColor"/><circle cx="31" cy="16" r="1" fill="currentColor"/></svg>