<svg xmlns="http://www.w3.org/2000/svg" width="1em" height="1em" viewBox="0 0 64 64"><path fill="currentColor" d="M62.069 50.934L64 41.6h-3.179v-3.732h.918v-.933h-.918v-4.668h.918v-3.733H48.897V24.8h1.834v3.732h.918V24.8h1.834v3.732h.918V24.8h1.834v3.732h.917V24.8h1.835v3.732h.918V24.8h1.834v-.934H48.897V19.2h1.835v-3.733h-5.505v-5.6h-1.834v5.6h-1.835V8h-1.834v7.467H12.206V19.2h1.835v9.333h-1.834v3.733h.706l-2.805 4.668H3.034v.933h1.835V41.6H0l4.812 9.334H0V64h64V50.934zm-7.67-9.334h-1.835v-1.866h1.835zm2.752 0h-1.836v-1.866h1.817v-1.866h.019zm1.836 0h-.919v-3.732h.919zM15.876 19.2h31.187v4.667h-1.835v-2.8h-5.503v5.6h5.503v1.866h.918V24.8h.917v3.733H15.876zm-.813 13.067h43.925v4.668h-1.854v-2.802H51.63v5.601h.019V41.6H19.546v-1.866h.892v-5.601h-3.669l-1.376 2.802H12.26zm-4.69 9.333h-.918l.917-1.527V41.6zm.917-3.053l.408-.68h1.427V41.6H11.29zm4.586 1.186V41.6h-1.835v-1.866h1.835zm-1.835-.051v-1.814h.892zm4.586 1.918h-1.834v-1.866h1.834zm-9.08-3.733l-1.01 1.681v-1.681zm-3.761 0H7.62v3.207l-.315.526H5.786zm-2.752 5.6h58.705l-1.545 7.467l-.387 1.867H7.845l-.962-1.867zm8.522 12.109c-1.725.719-2.948-.299-4.597-.582c.101-.018.171-.021.219-.018c1.432-.142 2.723.703 4.201.047c1.724-.726 2.951.298 4.598.581c-1.522.266-2.867-.719-4.421-.028m16.99 3.67c-1.652-.18-2.968.293-4.524.778c-2.852.89-4.926-.853-7.61-1.351c.118-.021.208-.029.286-.033c1.351-.15 2.48.414 3.819.561c1.653.183 2.969-.297 4.525-.782c2.85-.885 4.928.851 7.609 1.354c-1.481.28-2.672-.37-4.105-.527m15.852-3.67c-2.435 1.024-4.196-.434-6.544-.714c2.24-.271 4.088 1.165 6.368.161a4.401 4.401 0 0 1 1.603-.356h.283c1.563.046 2.959.864 4.659 1.067c-2.241.274-4.089-1.16-6.369-.158m8.994 3.248c-1.723.72-2.947-.299-4.597-.582a.954.954 0 0 1 .22-.018c1.434-.141 2.725.703 4.202.046c1.722-.724 2.95.299 4.597.581c-1.522.268-2.869-.717-4.422-.027"/><path fill="currentColor" d="M44.289 34.133h5.503v5.601h-5.503zm-7.338 0h5.503v5.601h-5.503zm-7.339 0h5.502v5.601h-5.502zm-7.34 0h5.504v5.601h-5.504zM17.71 21.067h5.503v5.6H17.71zm7.339 0h5.504v5.6h-5.504zm7.338 0h5.503v5.6h-5.503z"/></svg>