<svg xmlns="http://www.w3.org/2000/svg" width="1em" height="1em" viewBox="0 0 64 64"><path fill="currentColor" d="M32 2C15.432 2 2 15.432 2 32s13.432 30 30 30s30-13.432 30-30S48.568 2 32 2m-6.344 15.685l-3.131-.897l.893 3.131l-2.26-2.339l-.792 3.157l-.791-3.157l-2.265 2.339l.895-3.131l-3.128.895l2.337-2.265l-3.157-.788l3.157-.793l-2.339-2.265l3.13.895l-.895-3.129l2.265 2.34l.789-3.16l.792 3.16l2.264-2.34l-.895 3.131l3.129-.895l-2.338 2.263l3.158.79l-3.158.791zm22.415-8.593a28.372 28.372 0 0 1 3.247 2.668L4.798 38.619a27.781 27.781 0 0 1-.683-4.148zM59.202 25.38a27.91 27.91 0 0 1 .683 4.148L15.928 54.906a28.278 28.278 0 0 1-3.248-2.668z"/></svg>