<svg xmlns="http://www.w3.org/2000/svg" width="1em" height="1em" viewBox="0 0 64 64"><path fill="currentColor" d="M32 2C15.432 2 2 15.432 2 32s13.432 30 30 30s30-13.432 30-30S48.568 2 32 2m-5.517 25.698l-1.965-1.326l-1.966 1.326l.743-2.158l-1.957-1.336l2.423-.006l.757-2.152l.757 2.152l2.423.006l-1.956 1.336zm-5.299-5.652l-1.965-1.327l-1.966 1.327l.743-2.157l-1.957-1.336l2.423-.01l.757-2.15l.757 2.15l2.423.01l-1.958 1.336zm-5.3 5.652l-1.965-1.326l-1.964 1.326l.741-2.158l-1.957-1.336l2.423-.006l.757-2.152l.757 2.152l2.423.006l-1.956 1.336zm10.599-11.305l-1.965-1.327l-1.966 1.327l.743-2.156l-1.957-1.339l2.423-.008l.757-2.15l.757 2.15l2.423.008l-1.956 1.339zM13.162 12.89l.757-2.15l.757 2.15l2.423.008l-1.956 1.339l.741 2.156l-1.965-1.327l-1.964 1.327l.741-2.156l-1.461-.999c.105-.116.215-.228.322-.343zm39.58.322a27.991 27.991 0 0 1 5.909 10.212L11.257 50.787a27.99 27.99 0 0 1-5.908-10.212z"/></svg>