<svg xmlns="http://www.w3.org/2000/svg" width="1em" height="1em" viewBox="0 0 64 64"><path fill="currentColor" d="M32 2C15.432 2 2 15.432 2 32s13.432 30 30 30s30-13.432 30-30S48.568 2 32 2M19.217 24.134a4.916 4.916 0 1 1 0-9.834c2.716 0 4.916 2.201 4.916 4.917s-2.2 4.917-4.916 4.917m1.169.529l-1.169 4.387l-1.171-4.388c.378.081.769.126 1.171.126c.401 0 .792-.045 1.169-.125m-5.297-9.183a5.565 5.565 0 0 0-1.175 2.024L10.701 14.3zm-.789-4.779l3.205 3.213a5.542 5.542 0 0 0-2.024 1.175zm-.531 7.345a5.56 5.56 0 0 0 0 2.34l-4.386-1.169zm.145 2.882c.245.76.651 1.445 1.175 2.023l-4.388 1.183zm1.566 2.415a5.58 5.58 0 0 0 2.025 1.176L14.3 27.732zm2.566-9.574l1.171-4.385l1.169 4.385a5.56 5.56 0 0 0-2.34 0m4.905 1.32a5.569 5.569 0 0 0-2.023-1.175l3.205-3.213zm4.781-.789l-3.214 3.206a5.557 5.557 0 0 0-1.176-2.025zm-4.781 9.043l1.182 4.39l-3.207-3.214a5.585 5.585 0 0 0 2.025-1.176m.391-.392a5.567 5.567 0 0 0 1.177-2.025l3.214 3.208zm1.321-2.565c.08-.377.125-.768.125-1.169c0-.402-.045-.793-.126-1.171l4.388 1.171zM32 60C16.561 60 4 47.439 4 32h28V4c15.439 0 28 12.561 28 28S47.439 60 32 60"/></svg>