<svg xmlns="http://www.w3.org/2000/svg" width="1em" height="1em" viewBox="0 0 64 64"><path fill="currentColor" d="m34.718 36.916l1.216-.922l1.214.922l-.46-1.5l1.212-.931l-1.5-.004l-.466-1.498l-.467 1.498l-1.5.004l1.212.931zm-22.155-1.5l-.461 1.5l1.214-.922l1.216.922l-.461-1.5l1.212-.931l-1.5-.004l-.467-1.498l-.466 1.498l-1.5.004zM37.9 46.285l-1.5-.004l-.466-1.498l-.467 1.498l-1.5.004l1.212.931l-.461 1.501l1.216-.923l1.214.923l-.46-1.501zm-24.117-.004l-.467-1.498l-.466 1.498l-1.5.004l1.213.931l-.461 1.501l1.214-.923l1.216.923l-.461-1.501l1.212-.931z"/><path fill="currentColor" d="M32 2C15.432 2 2 15.432 2 32s13.432 30 30 30s30-13.432 30-30S48.568 2 32 2m27.369 35.9H4.631A27.997 27.997 0 0 1 4 32h56c0 2.023-.221 3.996-.631 5.9m-39.92 16.717l-1.216-.924l-1.216.924l.461-1.502l-1.212-.93l1.5-.004l.467-1.498l.467 1.498l1.5.004l-1.212.93zm6.883 1.967l-1.215-.924l-1.217.924l.461-1.502l-1.211-.93l1.5-.004l.467-1.498l.467 1.498l1.5.004l-1.213.93zm5.9-1.967l-1.216-.924l-1.216.924l.461-1.502l-1.212-.93l1.5-.004l.467-1.498l.467 1.498l1.5.004l-1.212.93zM10.322 49.7a28.06 28.06 0 0 1-3.706-5.9h50.768a28.06 28.06 0 0 1-3.706 5.9zm22.894-19.667L32 29.11l-1.216.923l.461-1.501l-1.212-.931l1.5-.004L32 26.1l.467 1.498l1.5.004l-1.212.931zm-6.884-2.949l-1.215-.924l-1.217.924l.461-1.502l-1.211-.93l1.5-.004l.467-1.498l.467 1.498l1.5.004l-1.213.93zm-6.883 2.949l-1.216-.923l-1.216.923l.461-1.501l-1.212-.931l1.5-.004l.467-1.498l.467 1.498l1.5.004l-1.212.931z"/></svg>