<svg xmlns="http://www.w3.org/2000/svg" width="1em" height="1em" viewBox="0 0 64 64"><path fill="currentColor" d="M0 0v64h64V0zm55.25 46.531c-2.45.469-6.227 4.908-8.719 4.844c-2.283-.059-5.467-4.878-7.75-4.844c-1.746.025-4.105 3.51-5.813 3.875c-1.44.31-4.355-1.188-5.813-.969c-2.143.321-5.595 3.661-7.75 3.875c-2.748.272-7.908-3.179-10.656-2.906c-1.588.158-5.042 2.187-6.749 3.243v-8.087h60v1.752c-1.751-.371-5.326-1.055-6.75-.783M2 43.625v-2.924h60v2.924zm0-4.844v-1.938h60v1.938zm0-3.859v-.984h60v.984zm53.534-23.024l.969.969l-.969.969l-.969-.969zM53.597 8.57l.969-.969l.969.969l-.969.969zm2.622-4.179l1.453-1.453l1.453 1.453l-1.453 1.453zm2.422 17.723l.969.969l-.969.969l-.969-.969zm.726-13.606l.969-.969l.969.969l-.969.969zM48.953 16.5L47.5 15.047l1.453-1.453l1.453 1.453zm.727 5.086l-.969.969l-.969-.969l.969-.969zm.242-11.867l-1.453-1.453l1.453-1.453l1.453 1.453zm-6.781 3.875l1.453 1.453l-1.453 1.453l-1.453-1.453zm-2.422-3.391l1.453-1.453l1.453 1.453l-1.453 1.453zm4.844 17.922l.969.969l-.969.969l-.969-.969zm.566-15.196l-.969-.969l.969-.969l.969.969zm-1.293-5.874l.969-.969l.969.969l-.969.969zm-7.508 9.929l.969.969l-.969.969l-.969-.969zm-2.422-3.875l1.453-1.453l1.453 1.453l-1.453 1.453zm2.664-3.39l-.968-.969l.969-.969l.969.969zm-6.539 3.39l-1.453 1.453l-1.453-1.453l1.453-1.453zm-.484-9.687l.969-.969l.969.969l-.969.969zM32 16.984l-.969-.969l.969-.968l.969.969zm.969 3.875l-1.453 1.453l-1.453-1.453l1.453-1.453zm-6.055 5.086l.969.969l-.969.969l-.969-.969zm-1.211-5.57l-1.453-1.453l1.453-1.453l1.453 1.453zm-5.57-2.802l-.969.969l-.969-.969l.969-.969zM19.164 6.57l.969-.969l.969.969l-.969.969zm.727 13.805l1.453 1.453l-1.453 1.453l-1.453-1.453zm.484-6.286l1.453-1.453l1.453 1.453l-1.453 1.453zM15.289 26.43l.969.969l-.969.969l-.969-.969zm-1.211-6.055l-1.453-1.453l1.453-1.453l1.453 1.453zM8.508 8.508l-.969-.969l.969-.969l.969.969zm1.695 10.034l-.969.969l-.969-.969l.969-.969zm-.969 3.771l1.453 1.453l-1.453 1.453l-1.453-1.453zm-4.117 5.085l.969.969l-.969.969l-.969-.969zm-1.453-3.39l.969-.969l.969.969l-.969.969zm2.18-7.024l-.969-.969l.969-.969l.969.969z"/></svg>