<svg xmlns="http://www.w3.org/2000/svg" width="1em" height="1em" viewBox="0 0 64 64"><path fill="currentColor" d="M32 2C15.432 2 2 15.432 2 32c0 16.566 13.432 30 30 30s30-13.434 30-30C62 15.432 48.568 2 32 2M18 15c0-1 1-2 2-2h4c1 0 2 1 2 2v4c0 1-1 2-2 1.998h-4C19 21 18 20 18 19zm10 21l-1-9l-1 24h-3l-1-13l-1 13h-3l-1-24l-1 9h-3l1-11c0-1 1-2 2-2h12c1 0 2 1 2 2l1 11zm10-21c0-1 1-2 2-2h4c1 0 2 1 2 2v4c0 1-1 2-2 1.998h-4C39 21 38 20 38 19zm10 21l-2-9v4l2 9h-2v11h-3V40h-2v11h-3V40h-2l2-9v-4l-2 9h-3l3-11c0-1 1-2 2-2h8c1 0 2 1 2 2l3 11z"/></svg>