<svg xmlns="http://www.w3.org/2000/svg" width="1em" height="1em" viewBox="0 0 512 512"><path fill="currentColor" d="M88 160a64 64 0 1 0-64-64a64.072 64.072 0 0 0 64 64m0-96a32 32 0 1 1-32 32a32.036 32.036 0 0 1 32-32m168-32a64 64 0 1 0 64 64a64.072 64.072 0 0 0-64-64m0 96a32 32 0 1 1 32-32a32.036 32.036 0 0 1-32 32m168 32a64 64 0 1 0-64-64a64.072 64.072 0 0 0 64 64m0-96a32 32 0 1 1-32 32a32.036 32.036 0 0 1 32-32M88 192a64 64 0 1 0 64 64a64.072 64.072 0 0 0-64-64m0 96a32 32 0 1 1 32-32a32.036 32.036 0 0 1-32 32m168-96a64 64 0 1 0 64 64a64.072 64.072 0 0 0-64-64m0 96a32 32 0 1 1 32-32a32.036 32.036 0 0 1-32 32m168-96a64 64 0 1 0 64 64a64.072 64.072 0 0 0-64-64m0 96a32 32 0 1 1 32-32a32.036 32.036 0 0 1-32 32m0 64a64 64 0 1 0 64 64a64.072 64.072 0 0 0-64-64m0 96a32 32 0 1 1 32-32a32.036 32.036 0 0 1-32 32M56 408h32v32H56zm96 0h32v32h-32zm96 0h32v32h-32z"/></svg>