<svg xmlns="http://www.w3.org/2000/svg" width="1em" height="1em" viewBox="0 0 512 512"><path fill="currentColor" d="M256 16A240 240 0 0 0 86.294 425.706A240 240 0 0 0 425.706 86.294A238.432 238.432 0 0 0 256 16m-148.239 94.25q4.21 5.825 8.145 12.466c18.663 31.593 29.823 72.765 31.985 117.284H48.609a207.386 207.386 0 0 1 59.152-129.75m0 291.5A207.386 207.386 0 0 1 48.609 272h99.282c-2.162 44.519-13.322 85.691-31.985 117.284q-3.925 6.646-8.145 12.466M240 463.391a206.866 206.866 0 0 1-108.049-40.532a190.612 190.612 0 0 0 11.507-17.3c21.483-36.368 34.233-83.3 36.471-133.559H240ZM240 240h-60.071c-2.238-50.257-14.988-97.191-36.471-133.559a190.612 190.612 0 0 0-11.507-17.3A206.866 206.866 0 0 1 240 48.609Zm32-191.391a206.866 206.866 0 0 1 108.049 40.532a190.612 190.612 0 0 0-11.507 17.3c-21.483 36.368-34.233 83.3-36.471 133.559H272Zm0 414.782V272h60.071c2.238 50.257 14.988 97.191 36.471 133.559a190.612 190.612 0 0 0 11.507 17.3A206.866 206.866 0 0 1 272 463.391m132.239-61.641q-4.21-5.824-8.145-12.466c-18.663-31.593-29.823-72.765-31.985-117.284h99.282a207.386 207.386 0 0 1-59.152 129.75M364.109 240c2.162-44.519 13.322-85.691 31.985-117.284q3.925-6.646 8.145-12.466A207.386 207.386 0 0 1 463.391 240Z"/></svg>