<svg xmlns="http://www.w3.org/2000/svg" width="1em" height="1em" viewBox="0 0 512 512"><path fill="currentColor" d="M21 21v448.263L121.022 369.24C95.286 338.604 79.75 299.142 79.75 256c0-97.34 78.91-176.25 176.25-176.25c43.143 0 82.603 15.535 113.24 41.272L469.41 21zm470 21.59L390.831 142.614c25.816 30.658 41.42 70.17 41.42 113.387c0 97.34-78.91 176.25-176.25 176.25c-43.217 0-82.73-15.603-113.388-41.419l-100.17 100.17H491zm-235 65.36c-35.393 0-67.794 12.475-93.266 33.194l65.654 65.653c8.163-4.594 17.577-7.197 27.612-7.197c31.149 0 56.4 25.251 56.4 56.4c0 10.035-2.602 19.449-7.197 27.612l65.653 65.654c20.72-25.472 33.194-57.873 33.194-93.266c0-81.766-66.284-148.05-148.05-148.05m-114.856 54.784C120.425 188.206 107.95 220.607 107.95 256c0 81.766 66.284 148.05 148.05 148.05c35.393 0 67.794-12.475 93.266-33.194l-65.654-65.653c-8.163 4.594-17.577 7.197-27.612 7.197c-31.149 0-56.4-25.251-56.4-56.4c0-10.035 2.602-19.449 7.197-27.612z"/></svg>