<svg xmlns="http://www.w3.org/2000/svg" width="1em" height="1em" viewBox="0 0 512 512"><path fill="currentColor" d="m491 21l-99.117 57.869L491 136.59zm0 146.434l-99.117-57.868v115.59zm0 30.697l-99.117 57.722L491 313.722zm0 146.288l-99.117-57.575v115.59zm0 30.99l-99.117 57.722L491 491zM367.426 21l-99.117 57.869l99.117 57.722zm0 146.434l-99.117-57.868v115.59zm0 30.697l-99.117 57.722l99.117 57.869zm0 146.288l-99.117-57.575v115.59zm0 30.99l-99.117 57.722L367.426 491zM243.69 78.87L144.574 21v115.59zm0 30.697l-99.117 57.868l99.117 57.722zm0 146.287l-99.117-57.722v115.59zm0 30.99l-99.117 57.576l99.117 58.015zm0 146.288l-99.117-57.722V491zM120.117 78.87L21 21v115.59zm0 30.697L21 167.434l99.117 57.722zm0 146.287L21 198.131v115.59zm0 30.99L21 344.42l99.117 58.015zm0 146.288L21 375.41V491z"/></svg>