<svg xmlns="http://www.w3.org/2000/svg" width="1em" height="1em" viewBox="0 0 512 512"><path fill="currentColor" d="M375 32v41H100.326l-49.6 62h410.547l-49.6-62H393V32zM85.727 153L96 163.273L106.273 153zm64 0L160 163.273L170.273 153zm64 0L224 163.273L234.273 153zm64 0l11.185 11.186L300.645 153zm64 0L352 163.273L362.273 153zm64 0L416 163.273L426.273 153zM128 156.727L108.727 176L128 195.273L147.273 176zm64 0L172.727 176L192 195.273L211.273 176zm64 0L236.727 176l19.42 19.422l19.736-18.813L256 156.726zm128 0L364.727 176L384 195.273L403.273 176zm-62.623 1.377l-19.732 18.814L320 195.273L339.273 176zM73 165.727v20.546L83.273 176zm366 0L428.727 176L439 186.273zm-343 23L85.727 199h20.546zm64 0L149.727 199h20.546zm64 0L213.727 199h20.546zm128 0L341.727 199h20.546zm64 0L405.727 199h20.546zm-127.387.613l-10.13 9.66h19.79zM73 217v126h366V217zm23 39h80v32H96zm112 0h96v32h-96zm128 0h80v32h-80zM75.5 361l43.5 58v-30l-21-28zm61.5 0v126h23v-71h48v71h167V361zm277 0l-21 28v30l43.5-58zm-174 55h32v32h-32zm64 0h32v32h-32z"/></svg>