<svg xmlns="http://www.w3.org/2000/svg" width="1em" height="1em" viewBox="0 0 512 512"><path fill="currentColor" d="M256 25C163.7 25 89 99.66 89 192c0 92.3 74.7 167 167 167s167-74.7 167-167c0-92.34-74.7-167-167-167m129.8 111.3a15.37 27.75 2.13 0 1 14.3 28.3a15.37 27.75 2.13 0 1-16.4 27.1a15.37 27.75 2.13 0 1-14.3-28.3a15.37 27.75 2.13 0 1 16.4-27.1m-49.4 25.8a19.12 35.25 24.94 0 1 5.1 1.3a19.12 35.25 24.94 0 1 1.4 40.8a19.12 35.25 24.94 0 1-32.2 22.6a19.12 35.25 24.94 0 1-1.5-40.8a19.12 35.25 24.94 0 1 27.2-23.9m38.9 55.1a15.37 27.75 22.37 0 1 1.2 0a15.37 27.75 22.37 0 1 3 .6a15.37 27.75 22.37 0 1 3.6 31.5a15.37 27.75 22.37 0 1-24.8 19.8a15.37 27.75 22.37 0 1-3.6-31.5a15.37 27.75 22.37 0 1 20.6-20.4M288 247.1a19.12 35.25 54.78 0 1 12.6 5.8a19.12 35.25 54.78 0 1-19.1 36.1a19.12 35.25 54.78 0 1-39.2 3.6a19.12 35.25 54.78 0 1 19.1-36.1a19.12 35.25 54.78 0 1 26.6-9.4m39.2 37.2a15.37 27.75 46.31 0 1 1.4 0a15.37 27.75 46.31 0 1 7.5 3a15.37 27.75 46.31 0 1-9.4 30.3a15.37 27.75 46.31 0 1-30.7 8a15.37 27.75 46.31 0 1 9.4-30.3a15.37 27.75 46.31 0 1 21.8-11m-133.8 81.8C224 412.5 224 431 224 494h64c0-63 0-81.5 30.6-127.9C299.1 373.2 278 377 256 377s-43.1-3.8-62.6-10.9"/></svg>