<svg xmlns="http://www.w3.org/2000/svg" width="1em" height="1em" viewBox="0 0 512 512"><path fill="currentColor" d="m160 15.78l-37.4 56.07l-8 1.5l-.6-.13l-.1.24l-98.05 18.25L39 104.6V160h18v-45.3l68.7 38.3h12.4l40.3 94H96v18h23v39h18v-39h42.8l-64 208h82.5L256 314.3L313.7 473h82.5l-64.1-208H375v39h18v-39h23v-18h-82.4l40.3-94h12.4l68.7-38.3V160h18v-55.4l23.2-12.89l-98.1-18.25l-.1-.24l-.6.13l-8-1.5L352 15.78L315.2 71H196.8zm0 32.44L175.2 71h-30.4zm192 0L367.2 71h-30.4zM183.2 89h145.6L256 105.6zm-69 2.73l101.2 23.07l-86.1 19.6l-61.15-34.1zm283.6 0l46 8.57l-61.1 34.1l-86.1-19.6zM256 124.1l47.9 10.9h-95.8zM165.8 153h43.1l-15.1 28.1zm63.6 0h53.2l22.3 41.3l-48.9 49l-48.9-49zm73.7 0h43.1l-28 28.1zm-132.4 30.4l63.6 63.6h-36.4zm170.6 0L314.1 247h-36.4zM203.4 265h51.4l-31.3 85.9zm53.8 0h51.4l-20.1 85.9zm-66.4 25.4l19.8 84.6h-45.8zm130.4 0l26 84.6h-45.8zM159.3 393h48.9l-22.5 62h-45.5zm144.5 0h48.9l19.1 62h-45.5z"/></svg>