<svg xmlns="http://www.w3.org/2000/svg" width="1em" height="1em" viewBox="0 0 512 512"><path fill="currentColor" d="M137 41v78h190V41h-30v48h-18V73h-14v16h-18V41h-30v48h-18V73h-14v16h-18V41zm208 19.273v25.454L394.273 135H329v18h128v-18h-37.273zM173.977 137l20.91 46h79.445l29.272-46zm-10.268 20.912L159.147 183h15.965l-11.404-25.088zm147.29.996L295.668 183H311zM155.875 201l-8.363 46h56.693l-20.91-46zm47.193 0l20.91 46h9.626l29.273-46h-59.81zm81.145 0l-29.272 46H311v-46zM144.24 265l-8.365 46h57.002l23.578-37.05l-4.068-8.95zm99.246 0l-6.607 10.383L253.067 311H311v-46zm-18.14 28.508L214.216 311h19.08zM132.604 329l-8.364 46h27.908l29.274-46zm70.156 0l-29.274 46h88.9l-20.907-46zm58.49 0l20.908 46H311v-46zm-140.283 64l-6.28 34.553c1.007.52 1.993 1.08 2.952 1.68L140.694 393h-19.728zm41.066 0l-31.34 49.248C134.68 448.565 137 456.025 137 464c0 2.386-.218 4.722-.615 7h23.392a40.821 40.821 0 0 1-.615-7c0-22.537 18.463-41 41-41s41 18.463 41 41c0 2.386-.218 4.722-.615 7h23.068a40.721 40.721 0 0 1-.615-7c0-16.127 9.456-30.165 23.092-36.848L270.568 393zm128.31 0l13.636 30h.02c2.386 0 4.722.218 7 .615V393h-20.658zM96 441c-12.81 0-23 10.19-23 23s10.19 23 23 23s23-10.19 23-23s-10.19-23-23-23m104.162 0c-12.81 0-23 10.19-23 23s10.19 23 23 23s23-10.19 23-23s-10.19-23-23-23M304 441c-12.81 0-23 10.19-23 23s10.19 23 23 23s23-10.19 23-23s-10.19-23-23-23"/></svg>