<svg xmlns="http://www.w3.org/2000/svg" width="1em" height="1em" viewBox="0 0 24 24"><g fill="currentColor" fill-rule="evenodd" clip-rule="evenodd"><path d="M8 7V2.2a2 2 0 0 0-.5.4l-4 3.9a2 2 0 0 0-.3.5zm2 0V2h7a2 2 0 0 1 2 2v.1a5 5 0 0 0-4.7 1.4l-6.7 6.6a3 3 0 0 0-.8 1.6l-.7 3.7a3 3 0 0 0 3.5 3.5l3.7-.7a3 3 0 0 0 1.5-.9l4.2-4.2V20a2 2 0 0 1-2 2H5a2 2 0 0 1-2-2V9h5a2 2 0 0 0 2-2"/><path d="M17.4 8a1 1 0 0 1 1.2.3a1 1 0 0 1 0 1.6l-.3.3l-1.6-1.5l.4-.4l.3-.2Zm-2.1 2.1l-4.6 4.7l-.4 1.9l1.9-.4l4.6-4.7zM17.9 6a3 3 0 0 0-2.2 1L9 13.5a1 1 0 0 0-.2.5L8 17.8a1 1 0 0 0 1.2 1.1l3.7-.7c.2 0 .4-.1.5-.3l6.6-6.6A3 3 0 0 0 18 6Z"/></g></svg>