<svg xmlns="http://www.w3.org/2000/svg" width="1em" height="1em" viewBox="0 0 24 24"><path fill="currentColor" fill-rule="evenodd" d="M17.3 4a1 1 0 0 0-.9.2a1 1 0 0 0-.4.8v8.6c-.6-.3-1.3-.5-2-.5c-2 0-4 1.4-4 3.5c0 2 2 3.4 4 3.4s4-1.3 4-3.4V6.8a3 3 0 0 1 1 2.3c0 .5.4 1 1 1s1-.5 1-1a5 5 0 0 0-1.9-4a6.4 6.4 0 0 0-1.8-1ZM4 5a1 1 0 0 0-1 1c0 .6.4 1 1 1h9c.6 0 1-.4 1-1c0-.5-.4-1-1-1zm0 4a1 1 0 0 0-1 1c0 .6.4 1 1 1h9c.6 0 1-.4 1-1c0-.5-.4-1-1-1zm0 4.1a1 1 0 0 0-1 1c0 .6.4 1 1 1h4c.6 0 1-.4 1-1c0-.5-.4-1-1-1z" clip-rule="evenodd"/></svg>