<svg xmlns="http://www.w3.org/2000/svg" width="1em" height="1em" viewBox="0 0 24 24"><path fill="currentColor" fill-rule="evenodd" d="M5 3a2 2 0 0 0-2 2v14c0 1.1.9 2 2 2h14a2 2 0 0 0 2-2V7c0-.6-.4-1-1-1h-1a1 1 0 1 0 0 2v11h-2V5a2 2 0 0 0-2-2zm7 4c0-.6.4-1 1-1h.5a1 1 0 1 1 0 2H13a1 1 0 0 1-1-1m0 3c0-.6.4-1 1-1h.5a1 1 0 1 1 0 2H13a1 1 0 0 1-1-1m-6 4c0-.6.4-1 1-1h6a1 1 0 1 1 0 2H7a1 1 0 0 1-1-1m0 3c0-.6.4-1 1-1h6a1 1 0 1 1 0 2H7a1 1 0 0 1-1-1M7 6a1 1 0 0 0-1 1v3c0 .6.4 1 1 1h3c.6 0 1-.4 1-1V7c0-.6-.4-1-1-1zm1 3V8h1v1z" clip-rule="evenodd"/></svg>