<svg xmlns="http://www.w3.org/2000/svg" width="1em" height="1em" viewBox="0 0 24 24"><path fill="currentColor" fill-rule="evenodd" d="M20.3 8.6c.1.3.3.6.6.8a3.5 3.5 0 0 1 0 5.2a2.4 2.4 0 0 0-.8 1.9a3.5 3.5 0 0 1-3.6 3.6a2.5 2.5 0 0 0-2 .8a3.5 3.5 0 0 1-5 0a2.4 2.4 0 0 0-2-.8A3.5 3.5 0 0 1 4 16.5a2.4 2.4 0 0 0-.8-2a3.5 3.5 0 0 1 0-5a2.4 2.4 0 0 0 .8-2A3.5 3.5 0 0 1 7.5 4a2.4 2.4 0 0 0 2-.8a3.5 3.5 0 0 1 5 0a2.4 2.4 0 0 0 2 .8A3.5 3.5 0 0 1 20 7.5c0 .4 0 .7.2 1ZM9.9 7.4a1 1 0 1 0 0 2a1 1 0 0 0 0-2m6 2.2a1 1 0 0 0-1.5-1.4l-6.2 6.2a1 1 0 0 0 1.4 1.4l6.2-6.2Zm-2.9 5a1 1 0 1 0 0 2a1 1 0 1 0 0-2" clip-rule="evenodd"/></svg>