<svg xmlns="http://www.w3.org/2000/svg" width="1em" height="1em" viewBox="0 0 24 24"><path fill="none" stroke="currentColor" stroke-linecap="round" stroke-linejoin="round" stroke-width="2" d="M8.9 15.1L15 9m-1-5a2.8 2.8 0 0 0 2.3.9a2.8 2.8 0 0 1 2.9 3a2.8 2.8 0 0 0 .9 2.1a2.8 2.8 0 0 1 0 4.2a2.8 2.8 0 0 0-.9 2.2a2.8 2.8 0 0 1-3 2.9a2.8 2.8 0 0 0-2.1.9a2.8 2.8 0 0 1-4.2 0a2.8 2.8 0 0 0-2.2-.9a2.8 2.8 0 0 1-2.9-3a2.8 2.8 0 0 0-.9-2.1a2.8 2.8 0 0 1 0-4.2a2.8 2.8 0 0 0 .9-2.2a2.8 2.8 0 0 1 3-2.9A2.8 2.8 0 0 0 9.9 4a2.8 2.8 0 0 1 4.2 0Z"/></svg>