<svg xmlns="http://www.w3.org/2000/svg" width="1em" height="1em" viewBox="0 0 24 24"><g fill="currentColor"><path d="M13 6a2 2 0 0 0-3.3-1.5l-4 3.4H4a2 2 0 0 0-2 2V14c0 1.2.9 2 2 2h1.6l4.1 3.5A2 2 0 0 0 13 18z"/><path fill-rule="evenodd" d="M14.8 7.7a1 1 0 0 1 1.4 0a6.1 6.1 0 0 1 0 8.6a1 1 0 0 1-1.3 0a1 1 0 0 1 0-1.5a4 4 0 0 0-.1-5.7a1 1 0 0 1 0-1.4" clip-rule="evenodd"/><path fill-rule="evenodd" d="M17.7 4.8a1 1 0 0 1 1.4 0a10.2 10.2 0 0 1 0 14.4a1 1 0 0 1-1.4 0a1 1 0 0 1 0-1.4a8.2 8.2 0 0 0 0-11.6a1 1 0 0 1 0-1.4" clip-rule="evenodd"/></g></svg>