<svg xmlns="http://www.w3.org/2000/svg" width="1em" height="1em" viewBox="0 0 48 48"><g fill="none" stroke="currentColor" stroke-width="4"><path d="M13.5 39.37A16.927 16.927 0 0 0 24 43c3.963 0 7.61-1.356 10.5-3.63M19 9.747C12.051 11.882 7 18.351 7 26c0 1.925.32 3.775.91 5.5M29 9.747C35.949 11.882 41 18.351 41 26c0 1.925-.32 3.775-.91 5.5"/><path stroke-linecap="round" stroke-linejoin="round" d="M43 36c0 1.342-.528 2.56-1.388 3.458A5 5 0 1 1 43 36m-28 0c0 1.342-.528 2.56-1.388 3.458A5 5 0 1 1 15 36M29 9c0 1.342-.528 2.56-1.388 3.458A5 5 0 1 1 29 9"/></g></svg>