<svg xmlns="http://www.w3.org/2000/svg" width="1em" height="1em" viewBox="0 0 48 48"><g fill="none"><path stroke="currentColor" stroke-linecap="round" stroke-linejoin="round" stroke-width="4" d="m17 10l-2-5c-2.167.833-6.8 5.8-6 13m22-8l2-5c2.167.833 6.8 5.8 6 13"/><path stroke="currentColor" stroke-width="4" d="M42 28.5C42 38.165 33.941 43 24 43S6 38.165 6 28.5S14.059 9 24 9s18 9.835 18 19.5Z"/><circle cx="20" cy="17" r="2" fill="currentColor"/><circle cx="28" cy="17" r="2" fill="currentColor"/><path stroke="currentColor" stroke-linecap="round" stroke-linejoin="round" stroke-width="4" d="M24 26c0 1.657.5 5.5-3 5.5a3 3 0 0 1-3-3"/><path stroke="currentColor" stroke-linecap="round" stroke-linejoin="round" stroke-width="4" d="M24.025 26c0 1.657-.5 5.5 3 5.5a3 3 0 0 0 3-3"/><path stroke="currentColor" stroke-linejoin="round" stroke-width="4" d="M26 25.75c0 .69-2 1.75-2 1.75s-2-1.06-2-1.75s.5-1.25 2-1.25s2 .56 2 1.25Z"/></g></svg>