<svg xmlns="http://www.w3.org/2000/svg" width="1em" height="1em" viewBox="0 0 48 48"><g fill="none"><path stroke="currentColor" stroke-linejoin="round" stroke-width="4" d="M5 6a1 1 0 0 1 1-1h10a1 1 0 0 1 1 1v36a1 1 0 0 1-1 1H6a1 1 0 0 1-1-1z"/><circle cx="11" cy="35" r="2" fill="currentColor"/><path stroke="currentColor" stroke-linecap="round" stroke-linejoin="round" stroke-width="4" d="M11 11v14M23.978 9.756l10.06-2.515a1 1 0 0 1 1.21.72l7.5 29.063a1 1 0 0 1-.725 1.22l-10.06 2.515a1 1 0 0 1-1.211-.72l-7.5-29.063a1 1 0 0 1 .726-1.22"/><circle cx="35" cy="32" r="2" fill="currentColor"/><path stroke="currentColor" stroke-linecap="round" stroke-linejoin="round" stroke-width="4" d="m31 16l2.5 10"/></g></svg>