<svg xmlns="http://www.w3.org/2000/svg" width="1em" height="1em" viewBox="0 0 48 48"><g fill="none" stroke="currentColor"><path stroke-linecap="round" stroke-linejoin="round" stroke-width="4" d="M9 20v10a8 8 0 0 0 8 8h14a8 8 0 0 0 8-8V20m-5 18v4m-20-4v4m6 2h8"/><path stroke-linejoin="round" stroke-width="4" d="M9 16.36C9 13 15 4 24 4s15 9 15 12.36V20H9z"/><path fill="currentColor" d="M20.5 32a1.5 1.5 0 1 1-3 0a1.5 1.5 0 0 1 3 0Zm10 0a1.5 1.5 0 1 1-3 0a1.5 1.5 0 0 1 3 0Z"/><path stroke-linecap="round" stroke-linejoin="round" stroke-width="4" d="M22 11h4"/></g></svg>