<svg xmlns="http://www.w3.org/2000/svg" width="1em" height="1em" viewBox="0 0 48 48"><g fill="none" stroke="currentColor" stroke-width="4"><path stroke-linejoin="round" d="M36 12H10v24h26z"/><path stroke-linejoin="round" d="M27 24a4 4 0 1 0-8 0a4 4 0 0 0 8 0Z"/><path stroke-linecap="round" d="M15 12c0-.073.008-.146.025-.217l1.607-7A1.026 1.026 0 0 1 17.641 4h10.743c.484 0 .903.326 1.008.783l1.608 7M15 36c0 .073.008.146.025.217l1.607 7c.105.458.524.783 1.009.783h10.743c.484 0 .903-.325 1.008-.783l1.608-7M39 16v4"/></g></svg>