<svg xmlns="http://www.w3.org/2000/svg" width="1em" height="1em" viewBox="0 0 48 48"><g fill="none"><path stroke="currentColor" stroke-linecap="round" stroke-linejoin="round" stroke-width="4" d="M7 9v15a6 6 0 0 0 6 6h22a6 6 0 0 0 6-6V9"/><path stroke="currentColor" stroke-linecap="round" stroke-linejoin="round" stroke-width="4" d="M7 10a6 6 0 0 1 6-6h22a6 6 0 0 1 0 12H13a6 6 0 0 1-6-6"/><circle cx="15" cy="10" r="2" fill="currentColor"/><circle cx="21" cy="10" r="2" fill="currentColor"/><circle cx="27" cy="10" r="2" fill="currentColor"/><circle cx="33" cy="10" r="2" fill="currentColor"/><path stroke="currentColor" stroke-linecap="round" stroke-linejoin="round" stroke-width="4" d="M19 30v14m10-14v14"/></g></svg>