<svg xmlns="http://www.w3.org/2000/svg" width="1em" height="1em" viewBox="0 0 48 48"><g fill="none"><path d="M6 38v-6h36v6h-6v-6H12v6z"/><path stroke="currentColor" stroke-linecap="round" stroke-linejoin="round" stroke-width="4" d="M42 38v-6h-6v6zM6 38v-6h6v6zm18-22H4v16h40V16h-6m-28 8h8"/><path stroke="currentColor" stroke-linecap="round" stroke-linejoin="round" stroke-width="4" d="M31 23a7 7 0 1 0 0-14a7 7 0 0 0 0 14"/><path fill="currentColor" d="M31 19a3 3 0 1 0 0-6a3 3 0 0 0 0 6"/></g></svg>