<svg xmlns="http://www.w3.org/2000/svg" width="1em" height="1em" viewBox="0 0 48 48"><g fill="none"><rect width="36" height="36" x="6" y="6" stroke="currentColor" stroke-width="4" rx="3"/><path fill="currentColor" d="M17 30h-4.586c-.89 0-1.337 1.077-.707 1.707l4.586 4.586c.63.63 1.707.184 1.707-.707V31a1 1 0 0 0-1-1m13 1v4.586c0 .89 1.077 1.337 1.707.707l4.586-4.586c.63-.63.184-1.707-.707-1.707H31a1 1 0 0 0-1 1m1-13h4.586c.89 0 1.337-1.077.707-1.707l-4.586-4.586c-.63-.63-1.707-.184-1.707.707V17a1 1 0 0 0 1 1m-13-1v-4.586c0-.89-1.077-1.337-1.707-.707l-4.586 4.586c-.63.63-.184 1.707.707 1.707H17a1 1 0 0 0 1-1"/></g></svg>