<svg xmlns="http://www.w3.org/2000/svg" width="1em" height="1em" viewBox="0 0 48 48"><g fill="none"><path stroke="currentColor" stroke-linejoin="round" stroke-width="4" d="M9 23h30v11a2 2 0 0 1-2 2H11a2 2 0 0 1-2-2zM9 8a2 2 0 0 1 2-2h26a2 2 0 0 1 2 2v15H9z"/><path stroke="currentColor" stroke-linecap="round" stroke-linejoin="round" stroke-width="4" d="M15 42a3 3 0 0 1-3-3v-3h6v3a3 3 0 0 1-3 3m18 0a3 3 0 0 1-3-3v-3h6v3a3 3 0 0 1-3 3"/><path stroke="currentColor" stroke-linecap="round" stroke-width="4" d="M6 12v4m36-4v4"/><circle cx="15" cy="30" r="2" fill="currentColor"/><circle cx="33" cy="30" r="2" fill="currentColor"/><path stroke="currentColor" stroke-linecap="round" stroke-width="4" d="m31 6l-9 10m16-9l-5 6"/></g></svg>