<svg xmlns="http://www.w3.org/2000/svg" width="1em" height="1em" viewBox="0 0 50 50"><path fill="currentColor" d="m46.476 20.662l-.013-.101a1.27 1.27 0 0 0-.127-.362L40 10s-.808-1-1-1H12L3.88 19.853l-.096.1l-.013.047a1.78 1.78 0 0 0-.168.35l-.033.097a1.575 1.575 0 0 0 .013.95l.038.109c.051.129.114.247.188.352L23.44 46.725l.04.057c.101.13.224.245.374.35l.114.071c.112.07.229.126.399.188l.111.037c.192.049.359.072.522.072c.165 0 .326-.022.543-.078l.133-.047c.13-.046.247-.103.388-.19l.088-.055c.151-.107.272-.223.339-.314l19.656-24.893a1.747 1.747 0 0 0 .33-.79l.015-.129l.008-.102zM35.936 20l2.798-5.063L41.53 20zm-1.678 3h6.638L29.832 37.015zm-1.642-4.518L28.575 13h7.07zM19.672 23h10.659L25 39.877zm1.057-3L25 14.204L29.271 20zm-3.008-1.972L15.869 13h5.557zm2.449 18.988L9.105 23h6.639zm-7.505-22.044L14.518 20H8.96z"/></svg>