<svg xmlns="http://www.w3.org/2000/svg" width="0.94em" height="1em" viewBox="0 0 15 16"><path fill="currentColor" d="M6 12.25V13H3.75v-.81l1.18-1.46v-.03H3.75V10H6v.7l-1.27 1.55zm1.12.75h.75v-3h-.75zM9 13h.75v-.9h.4c.6 0 1.1-.45 1.1-1.06s-.48-1.05-1.1-1.05H9v3Zm.75-1.59v-.72h.31c.2 0 .35.13.35.35s-.15.36-.35.36h-.31ZM5.5 2c-.28 0-.5-.22-.5-.5V1c0-.28.22-.5.5-.5s.5.22.5.5v.5c0 .28-.22.5-.5.5m0 3c-.28 0-.5-.22-.5-.5v-1c0-.28.22-.5.5-.5s.5.22.5.5v1c0 .28-.22.5-.5.5"/><path fill="currentColor" d="M12.5 16h-10c-.83 0-1.5-.67-1.5-1.5v-13C1 .67 1.67 0 2.5 0h7.09c.4 0 .78.16 1.06.44l2.91 2.91c.28.28.44.66.44 1.06V14.5c0 .83-.67 1.5-1.5 1.5M2.5 1c-.28 0-.5.22-.5.5v13c0 .28.22.5.5.5h10c.28 0 .5-.22.5-.5V4.41a.47.47 0 0 0-.15-.35L9.94 1.15A.51.51 0 0 0 9.59 1z"/><path fill="currentColor" d="M13.38 5h-2.91C9.66 5 9 4.34 9 3.53V.62c0-.28.22-.5.5-.5s.5.22.5.5v2.91c0 .26.21.47.47.47h2.91c.28 0 .5.22.5.5s-.22.5-.5.5m-9.63 5.38h1.22v.38H3.75z"/></svg>