<svg xmlns="http://www.w3.org/2000/svg" width="1em" height="1em" viewBox="0 0 128 128"><path fill="currentColor" d="M34.872 0a1.94 1.94 0 0 0-.307.028A1.933 1.933 0 0 0 32.97 1.64L17.911 98l9.911-18.867l25.066-47.724L36.6 1.028l-.002-.002A1.935 1.935 0 0 0 34.872 0m28.387 18.294c-.722 0-1.38.396-1.716 1.035l-7.459 14.203l-.008-.014l-34.1 64.922l10.75-10.767l34.46-34.52l11.503-11.524l-11.712-22.3a1.938 1.938 0 0 0-1.718-1.035m32.175 8.301a1.907 1.907 0 0 0-.52.054a1.938 1.938 0 0 0-.913.514L79.18 42.006L66.623 54.589l-48.994 49.078l41.613 23.337h.002a7.846 7.846 0 0 0 7.653 0l42.532-23.647l-12.145-75.153v.008a1.937 1.937 0 0 0-1.324-1.524a1.957 1.957 0 0 0-.526-.093m14.938 77.4l-.6.049l.249.146z"/></svg>