<svg xmlns="http://www.w3.org/2000/svg" width="1em" height="1em" viewBox="0 0 128 128"><path fill="currentColor" d="M63.8 16.283a4.956 4.915 0 0 0-1.9.48L35.984 29.146a4.956 4.915 0 0 0-2.681 3.334L26.91 60.295a4.956 4.915 0 0 0 .672 3.77a4.956 4.915 0 0 0 .283.39L45.803 86.76a4.956 4.915 0 0 0 3.875 1.847l28.765-.006a4.956 4.915 0 0 0 3.875-1.845l17.932-22.307a4.956 4.915 0 0 0 .957-4.16l-6.402-27.815a4.956 4.915 0 0 0-2.682-3.336l-25.92-12.375a4.956 4.915 0 0 0-2.402-.48zm.257 9.465c.856 0 1.55.773 1.55 1.724c.001.135.009.315.004.44c-.02.549-.139.969-.21 1.474c-.131 1.083-.244 1.98-.176 2.815c.06.417.304.582.505.775c.005.113.024.487.037.694a20.329 20.329 0 0 1 12.877 6.22l.59-.42c.2.012.64.072.942-.103c.694-.467 1.327-1.116 2.092-1.893c.35-.371.607-.725 1.023-1.084c.095-.081.24-.191.346-.275c.744-.594 1.778-.531 2.312.139c.534.67.363 1.693-.38 2.287c-.106.084-.243.2-.342.275c-.443.326-.85.493-1.29.752c-.927.573-1.696 1.048-2.306 1.62c-.288.309-.266.6-.291.88c-.086.079-.39.348-.551.494a20.079 20.079 0 0 1 2.906 6.719c.562 2.447.65 4.892.324 7.242l.627.182c.113.16.345.547.67.674c.798.25 1.697.343 2.782.457c.509.042.948.017 1.488.119c.129.024.318.075.451.105c.914.22 1.501 1.06 1.313 1.889c-.19.828-1.083 1.333-2.002 1.135l-.024-.004l-.031-.01c-.128-.028-.288-.056-.4-.086c-.531-.142-.916-.354-1.393-.537c-1.026-.368-1.875-.675-2.703-.795c-.42-.033-.636.167-.87.32a23.627 23.627 0 0 0-.661-.115a20.189 20.189 0 0 1-8.944 11.25c.074.179.2.558.258.625c-.098.262-.245.514-.12.916c.302.78.79 1.544 1.378 2.463c.284.425.575.75.832 1.236c.061.117.142.293.201.416c.399.853.106 1.837-.66 2.205c-.772.372-1.732-.02-2.145-.88c-.059-.12-.141-.28-.191-.395c-.22-.503-.297-.935-.451-1.422c-.352-1.032-.642-1.887-1.065-2.61c-.236-.35-.525-.393-.79-.48c-.05-.084-.234-.422-.333-.597a20.138 20.138 0 0 1-2.662.802a20.037 20.037 0 0 1-11.652-.838l-.352.637c-.261.07-.513.14-.668.324c-.565.674-.79 1.757-1.2 2.787c-.156.487-.228.919-.448 1.422c-.05.114-.135.274-.194.395v.004l-.004.004c-.413.855-1.37 1.246-2.14.875c-.766-.37-1.059-1.352-.66-2.205c.059-.123.138-.3.199-.416c.257-.486.548-.816.832-1.24c.587-.92 1.103-1.743 1.404-2.524c.076-.26-.037-.614-.138-.877l.283-.676c-4.13-2.446-7.391-6.346-8.947-11.17l-.676.116c-.182-.102-.545-.342-.89-.315c-.829.12-1.68.427-2.706.795c-.477.183-.862.39-1.393.533c-.112.03-.272.062-.4.09c-.01.003-.02.008-.031.01l-.022.004c-.92.198-1.812-.307-2.002-1.135c-.189-.828.399-1.668 1.313-1.89l.021-.005c.005 0 .01-.002.014-.003c.13-.03.295-.074.414-.096c.54-.102.98-.077 1.488-.12c1.085-.113 1.983-.205 2.782-.456c.253-.104.494-.453.666-.674l.65-.19a20.069 20.069 0 0 1 3.166-13.992l-.498-.445c-.032-.194-.074-.64-.312-.895c-.61-.572-1.38-1.048-2.307-1.62c-.44-.26-.843-.426-1.285-.753c-.094-.07-.22-.175-.323-.257l-.023-.018c-.744-.593-.915-1.617-.38-2.287c.3-.377.759-.563 1.235-.547c.371.013.755.149 1.08.408c.106.084.252.194.346.276c.417.358.671.712 1.022 1.084c.765.777 1.396 1.42 2.09 1.888c.364.213.645.127.922.09c.089.066.389.28.56.397a19.954 19.954 0 0 1 10.137-5.79a20.173 20.173 0 0 1 2.802-.431l.038-.656c.206-.2.438-.49.504-.803c.067-.834-.042-1.73-.172-2.813c-.072-.505-.193-.927-.213-1.476c-.004-.113.003-.267.004-.397c0-.014-.004-.028-.004-.043c0-.952.694-1.724 1.55-1.724zm-1.942 12.03a16.355 16.355 0 0 0-1.654.286a15.984 15.984 0 0 0-7.697 4.193l6.673 4.73l.012-.007a1.367 1.367 0 0 0 2.172-1.047l.033-.015zm3.887 0l.46 8.126l.009.004a1.37 1.37 0 0 0 2.174 1.043l.023.01l6.629-4.7a16.118 16.118 0 0 0-9.295-4.482zm-15.656 7.519a15.979 15.979 0 0 0-2.268 10.113l7.809-2.254l.006-.027a1.37 1.37 0 0 0 .71-.467a1.366 1.366 0 0 0-.173-1.883l.007-.033zm27.379.004l-6.06 5.42l.005.019a1.352 1.352 0 0 0-.434.725a1.369 1.369 0 0 0 .97 1.625l.009.033l7.847 2.26a16.141 16.141 0 0 0-.338-5.2a16.175 16.175 0 0 0-1.998-4.882zm-14.918 5.867l-1.555 1.935l.558 2.42l2.246 1.08l2.24-1.078l.557-2.42l-1.55-1.937zm8.001 6.634a1.369 1.369 0 0 0-1.186 1.91l-.01.012l3.136 7.575a15.996 15.996 0 0 0 6.467-8.123l-8.078-1.366l-.014.016a1.356 1.356 0 0 0-.315-.024m-13.566.034a1.382 1.382 0 0 0-.268.023l-.013-.016l-8.008 1.358a16.066 16.066 0 0 0 6.447 8.068l3.102-7.498l-.024-.03c.111-.256.144-.547.077-.84a1.368 1.368 0 0 0-1.313-1.065m6.766 3.285a1.372 1.372 0 0 0-1.158.722h-.006l-3.938 7.12a16.041 16.041 0 0 0 8.754.45a16.371 16.371 0 0 0 1.578-.44l-3.95-7.133h-.028a1.36 1.36 0 0 0-.614-.584a1.348 1.348 0 0 0-.638-.135M3.586 92.65L0 93.22v18.06h3.586v-5.51a7.514 7.514 0 0 1 1.18 1.18a12.574 12.574 0 0 1 1.181 1.489a15.923 15.923 0 0 1 1.05 1.53c.305.48.611.92.874 1.357h4.111c-.262-.525-.614-1.094-1.007-1.75a18.675 18.675 0 0 0-1.31-1.926a55.098 55.098 0 0 0-1.487-1.834a17.662 17.662 0 0 0-1.488-1.576a72.503 72.503 0 0 0 2.623-2.754c.83-.874 1.662-1.837 2.493-2.8H7.564c-.218.264-.523.612-.83.962c-.306.35-.656.744-1.006 1.182c-.363.409-.728.818-1.093 1.224c-.377.378-.714.756-1.05 1.133zm27.855 0l-3.586.569v17.666a5.527 5.527 0 0 0 1.094.307c.438.088.875.175 1.313.219c.48.044.917.087 1.398.13c.481.044.918.089 1.355.089a8.003 8.003 0 0 0 2.8-.438a6.725 6.725 0 0 0 2.054-1.355a5.628 5.628 0 0 0 1.268-2.098a7.918 7.918 0 0 0 .437-2.756a12.418 12.418 0 0 0-.305-2.668a5.274 5.274 0 0 0-1.05-2.098a4.736 4.736 0 0 0-1.748-1.312a5.54 5.54 0 0 0-2.362-.48a7.238 7.238 0 0 0-1.4.13a6.108 6.108 0 0 0-1.268.393zm66.776 2.319l-3.586.569v10.58a11.334 11.334 0 0 0 .219 2.23a4.339 4.339 0 0 0 .83 1.75a4.047 4.047 0 0 0 1.53 1.093a6.682 6.682 0 0 0 2.448.395a8.407 8.407 0 0 0 1.969-.174a6.965 6.965 0 0 0 1.443-.44l-.525-2.796a7.11 7.11 0 0 1-1.137.304a10.72 10.72 0 0 1-1.18.088c-.787 0-1.356-.22-1.619-.656a3.516 3.516 0 0 1-.392-1.793v-4.46h4.285v-2.974h-4.285zm25.275 3.368c-1.53 0-2.756.349-3.63 1.048a3.327 3.327 0 0 0-1.313 2.8a4.237 4.237 0 0 0 .263 1.573a3.42 3.42 0 0 0 .743 1.137a4.372 4.372 0 0 0 1.138.787c.437.219.961.438 1.53.657a8.295 8.295 0 0 1 1.619.744c.35.218.525.436.525.742a.766.766 0 0 1-.394.744a3.593 3.593 0 0 1-1.399.174h-.002a8.047 8.047 0 0 1-1.79-.174a13.365 13.365 0 0 1-1.882-.568l-.613 2.93a7.982 7.982 0 0 0 1.531.482a10.109 10.109 0 0 0 2.799.305c1.75 0 3.06-.306 3.979-.962a3.26 3.26 0 0 0 1.4-2.843a4.538 4.538 0 0 0-.176-1.4a2.284 2.284 0 0 0-.611-1.092a3.265 3.265 0 0 0-1.182-.918a14.424 14.424 0 0 0-1.967-.875c-.393-.175-.7-.262-.962-.393a14.69 14.69 0 0 1-.569-.35a.734.734 0 0 1-.306-.351a1.277 1.277 0 0 1-.088-.395c0-.612.525-.918 1.662-.918a6.118 6.118 0 0 1 1.619.176c.481.13.918.263 1.355.395l.612-2.8a8.085 8.085 0 0 0-1.66-.437a12.44 12.44 0 0 0-2.231-.218m-75.695.043a5.844 5.844 0 0 0-2.276.437a5.097 5.097 0 0 0-1.923 1.268a6.692 6.692 0 0 0-1.356 2.1a7.463 7.463 0 0 0-.523 2.929h-.002a10.271 10.271 0 0 0 .351 2.625a6.312 6.312 0 0 0 1.223 2.098a6.439 6.439 0 0 0 2.1 1.355a7.69 7.69 0 0 0 2.972.525c.438 0 .918-.043 1.356-.087a9.871 9.871 0 0 0 1.27-.174a4.409 4.409 0 0 0 1.093-.221c.35-.13.612-.217.787-.305l-.482-2.93a7.845 7.845 0 0 1-1.575.438a9.267 9.267 0 0 1-1.923.174a4.16 4.16 0 0 1-2.45-.656a2.397 2.397 0 0 1-1.048-1.748h8.134c0-.22.043-.438.043-.656a4.002 4.002 0 0 0 .043-.7c0-2.098-.525-3.717-1.574-4.81a5.597 5.597 0 0 0-4.24-1.662m38.35 0a5.844 5.844 0 0 0-2.274.437a5.097 5.097 0 0 0-1.924 1.268a6.692 6.692 0 0 0-1.355 2.1a7.462 7.462 0 0 0-.526 2.929a10.269 10.269 0 0 0 .35 2.625a6.312 6.312 0 0 0 1.224 2.098a6.438 6.438 0 0 0 2.1 1.355a7.69 7.69 0 0 0 2.973.525c.437 0 .918-.043 1.355-.087a9.873 9.873 0 0 0 1.27-.174a4.408 4.408 0 0 0 1.091-.221c.35-.13.613-.217.788-.305l-.48-2.93a7.844 7.844 0 0 1-1.575.438a9.267 9.267 0 0 1-1.924.174a4.16 4.16 0 0 1-2.45-.656a2.397 2.397 0 0 1-1.048-1.748h8.133c0-.22.045-.438.045-.656a4 4 0 0 0 .043-.7c0-2.098-.525-3.717-1.574-4.81a5.597 5.597 0 0 0-4.243-1.662zm24.269 0a5.844 5.844 0 0 0-2.274.437a5.097 5.097 0 0 0-1.923 1.268a6.692 6.692 0 0 0-1.356 2.1a7.462 7.462 0 0 0-.525 2.929a8.647 8.647 0 0 0 .351 2.625a6.312 6.312 0 0 0 1.223 2.098a6.438 6.438 0 0 0 2.1 1.355a7.69 7.69 0 0 0 2.972.525c.438 0 .918-.043 1.356-.087a9.871 9.871 0 0 0 1.27-.174a4.408 4.408 0 0 0 1.091-.221c.35-.13.614-.217.79-.305l-.483-2.93a7.844 7.844 0 0 1-1.574.438a9.267 9.267 0 0 1-1.924.174a4.16 4.16 0 0 1-2.45-.656a2.397 2.397 0 0 1-1.048-1.748h8.132c0-.22.045-.438.045-.656a4.001 4.001 0 0 0 .043-.7c0-2.098-.524-3.717-1.574-4.81a5.597 5.597 0 0 0-4.242-1.662m-48.889.045a12.302 12.302 0 0 0-2.93.304a18.601 18.601 0 0 0-2.275.613v12.026h3.586v-9.664a6.869 6.869 0 0 1 .701-.131a7.71 7.71 0 0 1 .83-.088a7.237 7.237 0 0 1 1.4.13a6.57 6.57 0 0 1 1.137.22l.612-2.975c-.175-.043-.437-.13-.7-.174a33.245 33.245 0 0 1-.831-.13a5.975 5.975 0 0 0-.83-.09a4.256 4.256 0 0 0-.7-.042zm10.363 0a21.144 21.144 0 0 0-5.377.699h-.002v12.289h3.544v-9.752a4.332 4.332 0 0 1 .787-.088a5.576 5.576 0 0 1 .83-.045c.83 0 1.398.22 1.705.7c.306.482.437 1.313.437 2.45v6.69H77.4v-7.13a9.755 9.755 0 0 0-.262-2.36a5.108 5.108 0 0 0-.874-1.836a3.746 3.746 0 0 0-1.705-1.182a6.67 6.67 0 0 0-2.668-.436zm-58.336.26v7.04a10.283 10.283 0 0 0 .264 2.364a4.017 4.017 0 0 0 2.537 3.06a7.046 7.046 0 0 0 2.71.438a16.903 16.903 0 0 0 3.019-.22a17.016 17.016 0 0 0 2.361-.481l.043-12.2h-3.586v9.752c-.262.044-.48.044-.787.088a5.576 5.576 0 0 1-.83.043c-.831 0-1.399-.262-1.705-.787c-.306-.525-.438-1.355-.438-2.492v-6.604zm34.284 2.58a2.09 2.09 0 0 1 1.752.788a2.658 2.658 0 0 1 .392.787a2.827 2.827 0 0 1 .17.83h-4.719a6.394 6.394 0 0 1 .22-.872a2.294 2.294 0 0 1 .437-.788a1.74 1.74 0 0 1 .699-.525a2.642 2.642 0 0 1 1.049-.22m38.351 0a2.09 2.09 0 0 1 1.75.788a2.659 2.659 0 0 1 .395.787a2.828 2.828 0 0 1 .168.83h-4.717a6.391 6.391 0 0 1 .219-.872a2.294 2.294 0 0 1 .437-.788a1.74 1.74 0 0 1 .7-.525a2.642 2.642 0 0 1 1.048-.22m24.227 0a2.09 2.09 0 0 1 1.75.788a2.658 2.658 0 0 1 .392.787a2.827 2.827 0 0 1 .172.83h-4.718a6.392 6.392 0 0 1 .218-.872a2.294 2.294 0 0 1 .438-.788a1.74 1.74 0 0 1 .7-.525a2.642 2.642 0 0 1 1.048-.22m-77.008.177c1.706 0 2.537 1.136 2.537 3.453a4.484 4.484 0 0 1-.742 2.668a2.708 2.708 0 0 1-2.23 1.006c-.307 0-.615-.043-.877-.043c-.263-.044-.48-.044-.655-.088v-6.515a3.304 3.304 0 0 1 .875-.35a4.67 4.67 0 0 1 1.092-.13z"/></svg>