<svg xmlns="http://www.w3.org/2000/svg" width="1em" height="1em" viewBox="0 0 128 128"><g fill="currentColor"><path d="M101.84 41.72V86l-37.66 22.32l-.34.31v16.57l.34.32l53-30.64V33.12l-.5-.12l-15 8.36l.08.36"/><path d="m26.4 86.4l37.78 21.92v17.2l-53.4-30.76V33.24l.55-.08l14.91 8.67l.16.5z"/><path d="m26.4 42.32l-15.62-9.08L64.06 2.48l53.16 30.64l-15.38 8.6l-37.78-21.56zM30.06 84V65.9l.41.24L45 74.59l.12.07v17.53zm53.21 8.6V75l.1-.05l14.27-8.35l.44-.26v17.5zm-18.42 10.86l-.41-.42V86l.51-.18l14.27-8.32l.44-.25V94.7l-14.8 8.76"/><path d="M49.8 95.23V77.17l.41.23l14.51 8.45l.12 17.61zm13.49-72.29L48.48 31.7l15.05 8.76l14.8-8.64zM30.06 60.36V42.55h.41L45 51l.12.33v17.26z"/><path d="m44.86 33.8l-14.8 8.76l15.05 8.76l14.8-8.64zM83.27 69V51.7l.1-.41L97.64 43l.44.1v17.11z"/><path d="M83 34.21L68.22 43l15.05 8.76l14.8-8.64zM64.85 79.85l-.41-.42V62.79l.41-.21l.1-.41l14.27-8.32l.44.1v17.14l-14.8 8.76"/><path d="M49.8 71.63V53.82h.41l14.51 8.45l.12.33v17.25z"/><path d="m64.6 45.06l-14.8 8.76l15.05 8.76l14.8-8.64z"/></g></svg>