<svg xmlns="http://www.w3.org/2000/svg" width="1em" height="1em" viewBox="0 0 20 20"><g fill="currentColor"><path fill-rule="evenodd" d="M10.988 7.391L5.04 12.348c-1.537 1.28.384 3.585 1.92 2.304l5.04-4.2l5.04 4.2c1.536 1.28 3.457-1.024 1.92-2.304L13.012 7.39A1.482 1.482 0 0 0 12 6.973a1.482 1.482 0 0 0-1.012.418" clip-rule="evenodd" opacity=".2"/><path d="m16.32 12.116l-6-5l-.64.768l6 5z"/><path d="m15.68 12.884l-6-5c-.512-.427.128-1.195.64-.768l6 5c.512.427-.128 1.195-.64.768"/><path d="m4.32 12.884l6-5l-.64-.768l-6 5z"/><path d="m3.68 12.116l6-5c.512-.427 1.152.341.64.768l-6 5c-.512.427-1.152-.341-.64-.768"/></g></svg>