<svg xmlns="http://www.w3.org/2000/svg" width="1em" height="1em" viewBox="0 0 26 26"><g fill="currentColor"><path fill-rule="evenodd" d="M13.5 26C20.404 26 26 20.404 26 13.5S20.404 1 13.5 1S1 6.596 1 13.5S6.596 26 13.5 26m0-2C19.299 24 24 19.299 24 13.5S19.299 3 13.5 3S3 7.701 3 13.5S7.701 24 13.5 24" clip-rule="evenodd" opacity=".2"/><path fill-rule="evenodd" d="M15.5 8.022a5.5 5.5 0 0 1 5 5.478v2.925A2.96 2.96 0 0 1 22 19a2 2 0 0 1-2 2h-3.5a2 2 0 1 1-4 0H9a2 2 0 0 1-2-2a2.96 2.96 0 0 1 1.5-2.575V13.5a5.5 5.5 0 0 1 5-5.478V6a1 1 0 1 1 2 0z" clip-rule="evenodd" opacity=".2"/><path d="M11 20a.5.5 0 0 1 1 0a1 1 0 1 0 2 0a.5.5 0 0 1 1 0a2 2 0 1 1-4 0"/><path fill-rule="evenodd" d="M20.5 17.5a2.96 2.96 0 0 0-1.5-2.575V12a5.5 5.5 0 0 0-5.5-5.5h-1A5.5 5.5 0 0 0 7 12v2.925A2.96 2.96 0 0 0 5.5 17.5a2 2 0 0 0 2 2h11a2 2 0 0 0 2-2M18 15.558l.295.133l.055.024A1.96 1.96 0 0 1 19.5 17.5a1 1 0 0 1-1 1h-11a1 1 0 0 1-1-1c0-.769.45-1.467 1.15-1.784l.055-.025l.295-.133V12a4.5 4.5 0 0 1 4.5-4.5h1A4.5 4.5 0 0 1 18 12z" clip-rule="evenodd"/><path d="M12.5 4.5a.5.5 0 0 1 1 0V7a.5.5 0 0 1-1 0z"/><path fill-rule="evenodd" d="M13 24.5c6.351 0 11.5-5.149 11.5-11.5S19.351 1.5 13 1.5S1.5 6.649 1.5 13S6.649 24.5 13 24.5m0 1c6.904 0 12.5-5.596 12.5-12.5S19.904.5 13 .5S.5 6.096.5 13S6.096 25.5 13 25.5" clip-rule="evenodd"/></g></svg>