<svg xmlns="http://www.w3.org/2000/svg" width="1em" height="1em" viewBox="0 0 20 20"><g fill="currentColor"><path fill-rule="evenodd" d="m12 11.797l-6.556 4.808a.75.75 0 0 1-.888-1.21l6.676-4.895l-6.676-4.895a.75.75 0 0 1 .888-1.21L12 9.203V1.5a.5.5 0 0 1 .8-.4l6 4.5a.5.5 0 0 1 0 .8l-5.467 4.1l5.467 4.1a.5.5 0 0 1 0 .8l-6 4.5a.5.5 0 0 1-.8-.4z" clip-rule="evenodd" opacity=".2"/><path fill-rule="evenodd" d="m11.232 10.398l5.571-4.25a.5.5 0 0 0 0-.796l-5.571-4.25a.5.5 0 0 0-.803.398V10a.5.5 0 0 0 .803.398m.197-1.408V2.51l4.247 3.24z" clip-rule="evenodd"/><path fill-rule="evenodd" d="m11.232 18.898l5.571-4.25a.5.5 0 0 0 0-.796l-5.571-4.25a.5.5 0 0 0-.803.398v8.5a.5.5 0 0 0 .803.398m.197-7.888l4.247 3.24l-4.247 3.24z" clip-rule="evenodd"/><path d="M11.228 9.6a.5.5 0 1 1-.598.8L3.665 5.207a.5.5 0 1 1 .598-.801z"/><path d="M11.228 10.4a.5.5 0 1 0-.598-.8l-6.965 5.194a.5.5 0 0 0 .598.801z"/></g></svg>