<svg xmlns="http://www.w3.org/2000/svg" width="1em" height="1em" viewBox="0 0 26 26"><g fill="currentColor"><path d="M26 14c0 6.627-5.373 12-12 12S2 20.627 2 14S7.373 2 14 2s12 5.373 12 12" opacity=".2"/><path fill-rule="evenodd" d="M7.5 6a.5.5 0 0 1 .5-.5h10a.5.5 0 0 1 .5.5v14a.5.5 0 0 1-.855.352L13 15.676l-4.645 4.676A.5.5 0 0 1 7.5 20zm1 .5v12.287l4.145-4.172a.5.5 0 0 1 .71 0l4.145 4.172V6.5z" clip-rule="evenodd"/><path fill-rule="evenodd" d="M13 24.5c6.351 0 11.5-5.149 11.5-11.5S19.351 1.5 13 1.5S1.5 6.649 1.5 13S6.649 24.5 13 24.5m0 1c6.904 0 12.5-5.596 12.5-12.5S19.904.5 13 .5S.5 6.096.5 13S6.096 25.5 13 25.5" clip-rule="evenodd"/></g></svg>