<svg xmlns="http://www.w3.org/2000/svg" width="1em" height="1em" viewBox="0 0 20 20"><g fill="currentColor"><path fill-rule="evenodd" d="M13 6.5H7A2.5 2.5 0 0 0 4.5 9v5A2.5 2.5 0 0 0 7 16.5h6a2.5 2.5 0 0 0 2.5-2.5v-.024l2.348 1.565a.5.5 0 0 0 .777-.416v-7a.5.5 0 0 0-.777-.416L15.5 9.274V9A2.5 2.5 0 0 0 13 6.5" clip-rule="evenodd" opacity=".2"/><path fill-rule="evenodd" d="M11 4.5H5A2.5 2.5 0 0 0 2.5 7v5A2.5 2.5 0 0 0 5 14.5h6a2.5 2.5 0 0 0 2.5-2.5V7A2.5 2.5 0 0 0 11 4.5M3.5 7A1.5 1.5 0 0 1 5 5.5h6A1.5 1.5 0 0 1 12.5 7v5a1.5 1.5 0 0 1-1.5 1.5H5A1.5 1.5 0 0 1 3.5 12z" clip-rule="evenodd"/><path fill-rule="evenodd" d="M15.728 5.58L12.75 7.517a.5.5 0 0 0-.228.414l-.027 2.612a.5.5 0 0 0 .227.425l3.004 1.952a.5.5 0 0 0 .773-.419V6a.5.5 0 0 0-.773-.42m-.226 6l-2.001-1.301l.021-2.07l1.98-1.287z" clip-rule="evenodd"/><path d="M1.15 1.878a.514.514 0 0 1 .728-.727l16.971 16.971a.514.514 0 0 1-.727.727z"/></g></svg>