<svg xmlns="http://www.w3.org/2000/svg" width="1em" height="1em" viewBox="0 0 26 26"><g fill="currentColor"><path fill-rule="evenodd" d="M13.5 26C20.404 26 26 20.404 26 13.5S20.404 1 13.5 1S1 6.596 1 13.5S6.596 26 13.5 26m0-2C19.299 24 24 19.299 24 13.5S19.299 3 13.5 3S3 7.701 3 13.5S7.701 24 13.5 24" clip-rule="evenodd" opacity=".2"/><g opacity=".2"><path d="M15.31 8.353a4 4 0 1 1 6.706 4.362l-2.18 3.353a4 4 0 0 1-6.707-4.362z"/><path fill-rule="evenodd" d="M15.392 15.564a2 2 0 0 1-.587-2.767l2.181-3.353a2 2 0 1 1 3.353 2.18l-2.18 3.354a2 2 0 0 1-2.767.586m-2.442.202a3.999 3.999 0 0 1 .179-4.06l2.18-3.353a4 4 0 1 1 6.707 4.362l-2.18 3.353a4 4 0 0 1-6.886-.302" clip-rule="evenodd"/><path d="M10.362 12.293a4 4 0 0 1 6.706 4.361l-2.18 3.353a4 4 0 0 1-6.707-4.361z"/><path fill-rule="evenodd" d="M10.444 19.503a2 2 0 0 1-.586-2.767l2.18-3.353a2 2 0 1 1 3.354 2.18l-2.181 3.354a2 2 0 0 1-2.767.586m-2.442.202a3.999 3.999 0 0 1 .179-4.06l2.18-3.352a4 4 0 0 1 6.707 4.361l-2.18 3.353a4 4 0 0 1-6.886-.302" clip-rule="evenodd"/></g><path fill-rule="evenodd" d="M13.346 14.902a3 3 0 0 1-.879-4.15l2.18-3.354a3 3 0 1 1 5.03 3.272l-2.18 3.353a3 3 0 0 1-4.15.88m-1.31.193a4.002 4.002 0 0 1-.407-4.889l2.18-3.353a4 4 0 1 1 6.707 4.362l-2.18 3.353a4 4 0 0 1-6.3.527" clip-rule="evenodd"/><path fill-rule="evenodd" d="M8.398 18.842a3 3 0 0 1-.879-4.151l2.18-3.353a3 3 0 1 1 5.03 3.271l-2.18 3.353a3 3 0 0 1-4.15.88m-1.31.193a4.002 4.002 0 0 1-.407-4.89l2.18-3.352a4 4 0 1 1 6.707 4.361l-2.18 3.353a4 4 0 0 1-6.3.528" clip-rule="evenodd"/><path fill-rule="evenodd" d="M13 24.5c6.351 0 11.5-5.149 11.5-11.5S19.351 1.5 13 1.5S1.5 6.649 1.5 13S6.649 24.5 13 24.5m0 1c6.904 0 12.5-5.596 12.5-12.5S19.904.5 13 .5S.5 6.096.5 13S6.096 25.5 13 25.5" clip-rule="evenodd"/></g></svg>