<svg xmlns="http://www.w3.org/2000/svg" width="1em" height="1em" viewBox="0 0 20 20"><g fill="currentColor"><path fill-rule="evenodd" d="M5 8a1.5 1.5 0 0 1 1.5-1.5h10a1.5 1.5 0 0 1 0 3h-10A1.5 1.5 0 0 1 5 8m0 6a1.5 1.5 0 0 1 1.5-1.5h10a1.5 1.5 0 0 1 0 3h-10A1.5 1.5 0 0 1 5 14" clip-rule="evenodd" opacity=".2"/><path fill-rule="evenodd" d="M4.5 7a.5.5 0 0 1 .5-.5h10a.5.5 0 0 1 0 1H5a.5.5 0 0 1-.5-.5m0 6a.5.5 0 0 1 .5-.5h10a.5.5 0 0 1 0 1H5a.5.5 0 0 1-.5-.5" clip-rule="evenodd"/><path d="M1.15 1.878a.514.514 0 0 1 .728-.727l16.971 16.971a.514.514 0 0 1-.727.727z"/></g></svg>