<svg xmlns="http://www.w3.org/2000/svg" width="1em" height="1em" viewBox="0 0 20 20"><g fill="currentColor"><g opacity=".2"><path d="M4 4.5a1 1 0 0 1 1-1h13.08a1 1 0 0 1 .819 1.573L16.6 8.357a.25.25 0 0 0 0 .286l2.299 3.284a1 1 0 0 1-.82 1.573H5a1 1 0 0 1-1-1z"/><path fill-rule="evenodd" d="M5 4.5a1 1 0 0 1 1 1v13a1 1 0 1 1-2 0v-13a1 1 0 0 1 1-1" clip-rule="evenodd"/></g><path fill-rule="evenodd" d="M16.58 3H3.5v8h13.08l-2.3-3.283a1.25 1.25 0 0 1 0-1.434zM3.5 2a1 1 0 0 0-1 1v8a1 1 0 0 0 1 1h13.08a1 1 0 0 0 .819-1.573L15.1 7.143a.25.25 0 0 1 0-.286l2.3-3.284A1 1 0 0 0 16.579 2z" clip-rule="evenodd"/><path fill-rule="evenodd" d="M3 3a.5.5 0 0 1 .5.5v14a.5.5 0 0 1-1 0v-14A.5.5 0 0 1 3 3" clip-rule="evenodd"/></g></svg>