<svg xmlns="http://www.w3.org/2000/svg" width="1em" height="1em" viewBox="0 0 20 20"><g fill="currentColor"><path d="M12.219 7.5H17.5A2.5 2.5 0 0 1 20 10v7a2.5 2.5 0 0 1-2.5 2.5h-11A2.5 2.5 0 0 1 4 17V7.5A2.5 2.5 0 0 1 6.5 5h2.84a2.5 2.5 0 0 1 2.17 1.26z" opacity=".2"/><path fill-rule="evenodd" d="M15.5 5.5h-5.281L9.51 4.26A2.5 2.5 0 0 0 7.34 3H4.5A2.5 2.5 0 0 0 2 5.5V15a2.5 2.5 0 0 0 2.5 2.5h11A2.5 2.5 0 0 0 18 15V8a2.5 2.5 0 0 0-2.5-2.5m-11 11A1.5 1.5 0 0 1 3 15V5.5A1.5 1.5 0 0 1 4.5 4h2.84a1.5 1.5 0 0 1 1.302.756l.852 1.492a.5.5 0 0 0 .435.252H15.5A1.5 1.5 0 0 1 17 8v7a1.5 1.5 0 0 1-1.5 1.5z" clip-rule="evenodd"/></g></svg>