<svg xmlns="http://www.w3.org/2000/svg" width="1em" height="1em" viewBox="0 0 26 26"><g fill="currentColor" fill-rule="evenodd" clip-rule="evenodd"><path d="M13.5 26C20.404 26 26 20.404 26 13.5S20.404 1 13.5 1S1 6.596 1 13.5S6.596 26 13.5 26m0-2C19.299 24 24 19.299 24 13.5S19.299 3 13.5 3S3 7.701 3 13.5S7.701 24 13.5 24" opacity=".2"/><path d="M15.789 8.703a.497.497 0 0 0-.135-.283l-.485-.505a1.5 1.5 0 0 0-2.448.416a1.5 1.5 0 0 0-2.137.66a1.5 1.5 0 0 0-2.09 2.004a1.5 1.5 0 0 0-.517 2.427l.405.422a1.5 1.5 0 0 0-.465 2.406l3.884 4.053c.451.47.994.846 1.594 1.101l.034.015a4.706 4.706 0 0 0 3.675.005a.499.499 0 0 0 .088-.016l1.154-.326a6.946 6.946 0 0 0 1.016-.374l.121-.056a6.15 6.15 0 0 0 1.686-1.147l.101-.097a4.706 4.706 0 0 0 1.114-5.144l-1.523-3.81a.509.509 0 0 0-.034-.07L20.07 8.73a1.531 1.531 0 0 0-2.783 0a1.594 1.594 0 0 0-1.497-.028M8.138 3.673a1 1 0 0 1 1.389.265l1.206 1.778a1 1 0 0 1-1.655 1.123L7.872 5.062a1 1 0 0 1 .266-1.39m8.516-.062a1 1 0 0 0-1.345.436l-.907 1.777a1 1 0 0 0 1.781.909l.907-1.777a1 1 0 0 0-.436-1.346M12.509 3a1 1 0 0 1 1 1v1.777a1 1 0 1 1-2 0V4a1 1 0 0 1 1-1" opacity=".2"/><path d="M6.268 13.422a1.5 1.5 0 1 1 2.166-2.076l2.767 2.888a.5.5 0 1 1-.722.692l-2.767-2.888a.5.5 0 0 0-.722.692l2.767 2.888a.5.5 0 0 1-.722.692z"/><path d="M7.02 11.316a1.5 1.5 0 1 1 2.166-2.075l2.767 2.888a.5.5 0 1 1-.722.692L8.464 9.932a.5.5 0 1 0-.722.692l2.767 2.888a.5.5 0 0 1-.722.692z"/><path d="M9.156 10.654a1.5 1.5 0 1 1 2.166-2.075l3.116 3.251a.5.5 0 1 1-.723.692L10.6 9.271a.5.5 0 1 0-.722.692l2.767 2.888a.5.5 0 1 1-.722.691z"/><path d="M13.24 10.452a1.595 1.595 0 0 1 3.01-.992l.75 1.63a.5.5 0 1 1-.91.417l-.748-1.631a.595.595 0 0 0-1.124.37l.396 1.892a.5.5 0 1 1-.979.204z"/><path d="M7.695 17.08a.5.5 0 0 1 .707.015l2.411 2.516c.358.373.788.67 1.264.873l.034.015a3.705 3.705 0 0 0 3-.043l.139-.064c.5-.23.957-.54 1.353-.92l.127-.123a3.705 3.705 0 0 0 .878-4.05l-1.523-3.81a.5.5 0 1 1 .929-.372l1.522 3.81a4.706 4.706 0 0 1-1.114 5.144l-.127.122a5.938 5.938 0 0 1-1.627 1.108l-.139.064a4.703 4.703 0 0 1-3.81.054l-.034-.015a4.827 4.827 0 0 1-1.594-1.101l-2.41-2.516a.5.5 0 0 1 .014-.707"/><path d="M6.207 16.25a1.5 1.5 0 0 1 2.166-2.076l1.384 1.444a.5.5 0 1 1-.722.692l-1.384-1.444a.5.5 0 1 0-.722.692l2.768 2.888a.5.5 0 1 1-.722.692zm5.087-6.26a1.5 1.5 0 1 1 2.166-2.075l.484.506a.5.5 0 1 1-.722.691l-.484-.505a.5.5 0 0 0-.722.692l1.383 1.444a.5.5 0 0 1-.722.692zm4.235-.097a1.531 1.531 0 0 1 2.83-1.162l.779 1.697a.5.5 0 0 1-.91.417l-.778-1.697a.531.531 0 0 0-.981.403l.611 1.683a.5.5 0 0 1-.94.342z"/><path d="M18.502 10.175a.5.5 0 0 1 .65.278l1.522 3.81a4.706 4.706 0 0 1-1.114 5.145l-.101.097a6.15 6.15 0 0 1-1.685 1.147l-.122.056l-.209-.454l.21.454a6.946 6.946 0 0 1-1.017.374l-1.154.326a.5.5 0 1 1-.271-.963l1.153-.325c.298-.084.59-.191.87-.32l.122-.057a5.15 5.15 0 0 0 1.411-.96l.102-.097a3.706 3.706 0 0 0 .877-4.051l-1.523-3.81a.5.5 0 0 1 .279-.65M7.22 4.086a.5.5 0 0 1 .694.133L9.12 5.997a.5.5 0 0 1-.827.561L7.086 4.781a.5.5 0 0 1 .133-.695m8.008-.031a.5.5 0 0 0-.672.218l-.907 1.777a.5.5 0 1 0 .89.455l.907-1.778a.5.5 0 0 0-.218-.672M11.31 3.5a.5.5 0 0 1 .5.5v1.777a.5.5 0 1 1-1 0V4a.5.5 0 0 1 .5-.5"/><path d="M13 24.5c6.351 0 11.5-5.149 11.5-11.5S19.351 1.5 13 1.5S1.5 6.649 1.5 13S6.649 24.5 13 24.5m0 1c6.904 0 12.5-5.596 12.5-12.5S19.904.5 13 .5S.5 6.096.5 13S6.096 25.5 13 25.5"/></g></svg>