<svg xmlns="http://www.w3.org/2000/svg" width="1em" height="1em" viewBox="0 0 26 26"><g fill="currentColor"><path d="M26 14c0 6.627-5.373 12-12 12S2 20.627 2 14S7.373 2 14 2s12 5.373 12 12" opacity=".2"/><g fill-rule="evenodd" clip-rule="evenodd"><path d="M4 13h1.389v7a.5.5 0 0 0 .5.5H19.11a.5.5 0 0 0 .5-.5v-7H21a.5.5 0 0 0 .33-.875l-8.5-7.5a.5.5 0 0 0-.66 0l-8.5 7.5A.5.5 0 0 0 4 13m1.889-1h-.567L12.5 5.667L19.678 12h-.567a.5.5 0 0 0-.5.5v7H6.39v-7a.5.5 0 0 0-.5-.5"/><path d="M13.708 14.5h-2.5a1 1 0 0 0-1 1v4a1 1 0 0 0 1 1h2.5a1 1 0 0 0 1-1v-4a1 1 0 0 0-1-1m-2.5 5v-4h2.5v4z"/></g><path fill-rule="evenodd" d="M13 24.5c6.351 0 11.5-5.149 11.5-11.5S19.351 1.5 13 1.5S1.5 6.649 1.5 13S6.649 24.5 13 24.5m0 1c6.904 0 12.5-5.596 12.5-12.5S19.904.5 13 .5S.5 6.096.5 13S6.096 25.5 13 25.5" clip-rule="evenodd"/></g></svg>