<svg xmlns="http://www.w3.org/2000/svg" width="1em" height="1em" viewBox="0 0 26 26"><g fill="currentColor" fill-rule="evenodd" clip-rule="evenodd"><path d="M13.5 26C20.404 26 26 20.404 26 13.5S20.404 1 13.5 1S1 6.596 1 13.5S6.596 26 13.5 26m0-2C19.299 24 24 19.299 24 13.5S19.299 3 13.5 3S3 7.701 3 13.5S7.701 24 13.5 24" opacity=".2"/><path d="M4.6 4.6a1.5 1.5 0 0 1 2.122 0l15.556 15.557a1.5 1.5 0 1 1-2.121 2.121L4.6 6.722a1.5 1.5 0 0 1 0-2.121" opacity=".2"/><path d="M3.454 3.454a.5.5 0 0 1 .707 0l18.385 18.385a.5.5 0 0 1-.707.707L3.454 4.16a.5.5 0 0 1 0-.707"/><path d="M13 24.5c6.351 0 11.5-5.149 11.5-11.5S19.351 1.5 13 1.5S1.5 6.649 1.5 13S6.649 24.5 13 24.5m0 1c6.904 0 12.5-5.596 12.5-12.5S19.904.5 13 .5S.5 6.096.5 13S6.096 25.5 13 25.5"/></g></svg>