<svg xmlns="http://www.w3.org/2000/svg" width="1em" height="1em" viewBox="0 0 26 26"><g fill="currentColor"><path d="M26 14c0 6.627-5.373 12-12 12S2 20.627 2 14S7.373 2 14 2s12 5.373 12 12" opacity=".2"/><g fill-rule="evenodd" clip-rule="evenodd"><path d="M8.616 9.653a.5.5 0 0 1 .064-.704l4-3.333a.5.5 0 1 1 .64.768l-4 3.333a.5.5 0 0 1-.704-.064"/><path d="M17.384 9.653a.5.5 0 0 1-.704.064l-4-3.333a.5.5 0 1 1 .64-.768l4 3.333a.5.5 0 0 1 .064.704M13 7.5a.5.5 0 0 1 .5.5v8a.5.5 0 0 1-1 0V8a.5.5 0 0 1 .5-.5m4.384 8.846a.5.5 0 0 1-.064.705l-4 3.333a.5.5 0 0 1-.64-.768l4-3.334a.5.5 0 0 1 .704.064"/><path d="M8.616 16.346a.5.5 0 0 1 .704-.064l4 3.334a.5.5 0 0 1-.64.768l-4-3.333a.5.5 0 0 1-.064-.704"/><path d="M13 20a.5.5 0 0 1-.5-.5v-13a.5.5 0 0 1 1 0v13a.5.5 0 0 1-.5.5"/></g><path fill-rule="evenodd" d="M13 24.5c6.351 0 11.5-5.149 11.5-11.5S19.351 1.5 13 1.5S1.5 6.649 1.5 13S6.649 24.5 13 24.5m0 1c6.904 0 12.5-5.596 12.5-12.5S19.904.5 13 .5S.5 6.096.5 13S6.096 25.5 13 25.5" clip-rule="evenodd"/></g></svg>