<svg xmlns="http://www.w3.org/2000/svg" width="1em" height="1em" viewBox="0 0 26 26"><g fill="currentColor"><path d="M26 14c0 6.627-5.373 12-12 12S2 20.627 2 14S7.373 2 14 2s12 5.373 12 12" opacity=".2"/><path fill-rule="evenodd" d="m3.874 10.454l7.823 2.046l2.803 7.868a.5.5 0 0 0 .95-.026l4.746-16.085a.5.5 0 0 0-.655-.61L3.826 9.502a.5.5 0 0 0 .048.952m1.783-.567l13.296-4.954l-4.027 13.652l-2.376-6.67a.5.5 0 0 0-.344-.315z" clip-rule="evenodd"/><path d="m19 4.293l.707.707L12 12.707L11.293 12z"/><path fill-rule="evenodd" d="M13 24.5c6.351 0 11.5-5.149 11.5-11.5S19.351 1.5 13 1.5S1.5 6.649 1.5 13S6.649 24.5 13 24.5m0 1c6.904 0 12.5-5.596 12.5-12.5S19.904.5 13 .5S.5 6.096.5 13S6.096 25.5 13 25.5" clip-rule="evenodd"/></g></svg>