<svg xmlns="http://www.w3.org/2000/svg" width="1em" height="1em" viewBox="0 0 26 26"><g fill="currentColor"><path fill-rule="evenodd" d="M13.5 26C20.404 26 26 20.404 26 13.5S20.404 1 13.5 1S1 6.596 1 13.5S6.596 26 13.5 26m0-2C19.299 24 24 19.299 24 13.5S19.299 3 13.5 3S3 7.701 3 13.5S7.701 24 13.5 24" clip-rule="evenodd" opacity=".2"/><g opacity=".2"><path d="M12.75 10.75a3 3 0 1 1-6 0a3 3 0 0 1 6 0"/><path fill-rule="evenodd" d="M9.75 11.75a1 1 0 1 0 0-2a1 1 0 0 0 0 2m0 2a3 3 0 1 0 0-6a3 3 0 0 0 0 6" clip-rule="evenodd"/><path fill-rule="evenodd" d="M9.8 14.5A1.5 1.5 0 0 0 8.3 16v1.5a1 1 0 0 1-2 0V16a3.5 3.5 0 0 1 7 0v.5a1 1 0 1 1-2 0V16a1.5 1.5 0 0 0-1.5-1.5" clip-rule="evenodd"/><path d="M15.75 10.75a3 3 0 1 0 6 0a3 3 0 0 0-6 0"/><path fill-rule="evenodd" d="M18.75 11.75a1 1 0 1 1 0-2a1 1 0 0 1 0 2m0 2a3 3 0 1 1 0-6a3 3 0 0 1 0 6" clip-rule="evenodd"/><path fill-rule="evenodd" d="M18.7 14.5a1.5 1.5 0 0 1 1.5 1.5v1.5a1 1 0 1 0 2 0V16a3.5 3.5 0 0 0-7 0v.5a1 1 0 1 0 2 0V16a1.5 1.5 0 0 1 1.5-1.5" clip-rule="evenodd"/><path fill-rule="evenodd" d="M14.3 17.25a1.5 1.5 0 0 0-1.5 1.5v1.5a1 1 0 0 1-2 0v-1.5a3.5 3.5 0 0 1 7 0v1.5a1 1 0 1 1-2 0v-1.5a1.5 1.5 0 0 0-1.5-1.5" clip-rule="evenodd"/><path d="M17.25 13.5a3 3 0 1 1-6 0a3 3 0 0 1 6 0"/><path fill-rule="evenodd" d="M14.25 14.5a1 1 0 1 0 0-2a1 1 0 0 0 0 2m0 2a3 3 0 1 0 0-6a3 3 0 0 0 0 6" clip-rule="evenodd"/><path d="M7.25 14.5h5v4h-5zm9 0h5v4h-5z"/><path d="M12.25 16.5h4l.5 4.75h-5z"/></g><path fill-rule="evenodd" d="M8 12a2 2 0 1 0 0-4a2 2 0 0 0 0 4m0 1a3 3 0 1 0 0-6a3 3 0 0 0 0 6" clip-rule="evenodd"/><path fill-rule="evenodd" d="M6.854 11.896a.5.5 0 0 1 0 .708l-.338.337A3.47 3.47 0 0 0 5.5 15.394v1.856a.5.5 0 1 1-1 0v-1.856a4.47 4.47 0 0 1 1.309-3.16l.337-.338a.5.5 0 0 1 .708 0m11.792-.3a.5.5 0 0 0 0 .708l.338.337A3.469 3.469 0 0 1 20 15.094v2.156a.5.5 0 0 0 1 0v-2.156a4.47 4.47 0 0 0-1.309-3.16l-.337-.338a.5.5 0 0 0-.708 0" clip-rule="evenodd"/><path fill-rule="evenodd" d="M17 12a2 2 0 1 1 0-4a2 2 0 0 1 0 4m0 1a3 3 0 1 1 0-6a3 3 0 0 1 0 6m-4.5 3.25a2.5 2.5 0 0 0-2.5 2.5v1.3a.5.5 0 0 1-1 0v-1.3a3.5 3.5 0 0 1 7 0v1.3a.5.5 0 1 1-1 0v-1.3a2.5 2.5 0 0 0-2.5-2.5" clip-rule="evenodd"/><path fill-rule="evenodd" d="M12.5 14.75a2 2 0 1 0 0-4a2 2 0 0 0 0 4m0 1a3 3 0 1 0 0-6a3 3 0 0 0 0 6" clip-rule="evenodd"/><path fill-rule="evenodd" d="M13 24.5c6.351 0 11.5-5.149 11.5-11.5S19.351 1.5 13 1.5S1.5 6.649 1.5 13S6.649 24.5 13 24.5m0 1c6.904 0 12.5-5.596 12.5-12.5S19.904.5 13 .5S.5 6.096.5 13S6.096 25.5 13 25.5" clip-rule="evenodd"/></g></svg>