<svg xmlns="http://www.w3.org/2000/svg" width="1em" height="1em" viewBox="0 0 20 20"><g fill="currentColor" fill-rule="evenodd" clip-rule="evenodd"><g opacity=".2"><path d="M11.5 4h-5V2h5a5 5 0 0 1 5 5v1a5 5 0 0 1-5 5h-5v-2h5a3 3 0 0 0 3-3V7a3 3 0 0 0-3-3"/><path d="M6.5 2a1 1 0 0 1 1 1v15.5a1 1 0 1 1-2 0V3a1 1 0 0 1 1-1"/><path d="M2.5 5.936a1 1 0 0 1 1-1h14a1 1 0 1 1 0 2h-14a1 1 0 0 1-1-1m0 3a1 1 0 0 1 1-1h14a1 1 0 1 1 0 2h-14a1 1 0 0 1-1-1"/></g><path d="M10.5 2.5h-5v-1h5A4.5 4.5 0 0 1 15 6v1a4.5 4.5 0 0 1-4.5 4.5h-5v-1h5A3.5 3.5 0 0 0 14 7V6a3.5 3.5 0 0 0-3.5-3.5"/><path d="M5.5 1.5A.5.5 0 0 1 6 2v15.5a.5.5 0 0 1-1 0V2a.5.5 0 0 1 .5-.5"/><path d="M2 4.936a.5.5 0 0 1 .5-.5h14a.5.5 0 0 1 0 1h-14a.5.5 0 0 1-.5-.5m0 3a.5.5 0 0 1 .5-.5h14a.5.5 0 0 1 0 1h-14a.5.5 0 0 1-.5-.5"/></g></svg>