<svg xmlns="http://www.w3.org/2000/svg" width="1em" height="1em" viewBox="0 0 20 20"><g fill="currentColor"><path fill-rule="evenodd" d="M11.5 4.5A1.5 1.5 0 0 0 10 6v3.5H6.5a1.5 1.5 0 0 0 0 3H10V16a1.5 1.5 0 0 0 3 0v-3.5h3.5a1.5 1.5 0 0 0 0-3H13V6a1.5 1.5 0 0 0-1.5-1.5" clip-rule="evenodd" opacity=".2"/><path d="M5 10.5a.5.5 0 0 1 0-1h10a.5.5 0 0 1 0 1z"/><path d="M9.5 5a.5.5 0 0 1 1 0v10a.5.5 0 0 1-1 0z"/><path d="M1.15 1.878a.514.514 0 0 1 .728-.727l16.971 16.971a.514.514 0 0 1-.727.727z"/></g></svg>