<svg xmlns="http://www.w3.org/2000/svg" width="1em" height="1em" viewBox="0 0 26 26"><g fill="currentColor"><path fill-rule="evenodd" d="M13.5 26C20.404 26 26 20.404 26 13.5S20.404 1 13.5 1S1 6.596 1 13.5S6.596 26 13.5 26m0-2C19.299 24 24 19.299 24 13.5S19.299 3 13.5 3S3 7.701 3 13.5S7.701 24 13.5 24" clip-rule="evenodd" opacity=".2"/><g opacity=".2"><path fill-rule="evenodd" d="M17.816 8.864c1.32-.97 3.184-.027 3.184 1.612v2.048c0 1.64-1.863 2.583-3.184 1.612l-1.908-1.402l.907-1.234l-.907-1.234zm-.21 2.636L19 12.524v-2.048z" clip-rule="evenodd"/><path d="m15.5 11.75l3.75-2.598v5.196z"/><path fill-rule="evenodd" d="M18.414 21.908a1 1 0 0 1-1.32.507L14 21.04v.962a1 1 0 1 1-2 0v-.962l-3.094 1.375a1 1 0 0 1-.812-1.827L12 18.852v-3.85a1 1 0 1 1 2 0v3.85l3.906 1.736a1 1 0 0 1 .508 1.32" clip-rule="evenodd"/><path d="M10.5 10a1 1 0 0 1 1-1h3a1 1 0 0 1 1 1v3a1 1 0 0 1-1 1h-3a1 1 0 0 1-1-1z"/><path fill-rule="evenodd" d="M9.5 10a2 2 0 0 1 2-2h3a2 2 0 0 1 2 2v3a2 2 0 0 1-2 2h-3a2 2 0 0 1-2-2zm5 0h-3v3h3z" clip-rule="evenodd"/><path fill-rule="evenodd" d="M15.293 9.709a1 1 0 0 1 0-1.415l2.693-2.693a1 1 0 1 1 1.415 1.414L16.707 9.71a1 1 0 0 1-1.414 0m3.914 7.497a1 1 0 0 1-1.414 0l-2.5-2.498a1 1 0 0 1 1.414-1.415l2.5 2.499a1 1 0 0 1 0 1.414" clip-rule="evenodd"/></g><path fill-rule="evenodd" d="M17.168 7.872c.997-.665 2.332.05 2.332 1.248v3.263c0 1.198-1.335 1.913-2.332 1.248l-2.945-1.963l.554-.832l2.946 1.963a.5.5 0 0 0 .777-.416V9.12a.5.5 0 0 0-.777-.416l-2.946 1.964l-.554-.832zm-.711 13.083a.5.5 0 0 1-.66.254L12 19.52v1.73a.5.5 0 0 1-1 0v-1.73l-3.797 1.688a.5.5 0 0 1-.406-.914L11 18.427v-4.175a.5.5 0 1 1 1 0v4.175l4.203 1.868a.5.5 0 0 1 .254.66" clip-rule="evenodd"/><path fill-rule="evenodd" d="M8 8.752a1.5 1.5 0 0 1 1.5-1.5h4a1.5 1.5 0 0 1 1.5 1.5v4a1.5 1.5 0 0 1-1.5 1.5h-4a1.5 1.5 0 0 1-1.5-1.5zm1.5-.5a.5.5 0 0 0-.5.5v4a.5.5 0 0 0 .5.5h4a.5.5 0 0 0 .5-.5v-4a.5.5 0 0 0-.5-.5z" clip-rule="evenodd"/><path fill-rule="evenodd" d="M14.146 8.605a.5.5 0 0 1 0-.707l3-3a.5.5 0 0 1 .708.707l-3 3a.5.5 0 0 1-.708 0m3.708 8a.5.5 0 0 1-.708 0l-3-3a.5.5 0 0 1 .707-.707l3 3a.5.5 0 0 1 0 .707" clip-rule="evenodd"/><path fill-rule="evenodd" d="M13 24.5c6.351 0 11.5-5.149 11.5-11.5S19.351 1.5 13 1.5S1.5 6.649 1.5 13S6.649 24.5 13 24.5m0 1c6.904 0 12.5-5.596 12.5-12.5S19.904.5 13 .5S.5 6.096.5 13S6.096 25.5 13 25.5" clip-rule="evenodd"/></g></svg>