<svg xmlns="http://www.w3.org/2000/svg" width="1em" height="1em" viewBox="0 0 26 26"><g fill="currentColor"><path fill-rule="evenodd" d="M13.5 26C20.404 26 26 20.404 26 13.5S20.404 1 13.5 1S1 6.596 1 13.5S6.596 26 13.5 26m0-2C19.299 24 24 19.299 24 13.5S19.299 3 13.5 3S3 7.701 3 13.5S7.701 24 13.5 24" clip-rule="evenodd" opacity=".2"/><g opacity=".2"><path d="M17.636 6.692a1 1 0 0 1 .524-.276l2.6-.484a1 1 0 0 1 1.167 1.162l-.474 2.599a1 1 0 0 1-.279.53l-7.367 7.315a1 1 0 0 1-1.412-.003l-2.088-2.088a1 1 0 0 1 0-1.414z"/><path fill-rule="evenodd" d="m19.542 9.025l.157-.861l-.867.161l-6.405 6.414l.678.677zM18.16 6.416a1 1 0 0 0-.524.276l-7.33 7.34a1 1 0 0 0 0 1.415l2.09 2.088a1 1 0 0 0 1.411.003l7.367-7.315a1 1 0 0 0 .28-.53l.473-2.599a1 1 0 0 0-1.166-1.162z" clip-rule="evenodd"/><path fill-rule="evenodd" d="M10.182 13.467a1.5 1.5 0 0 0-2.118 2.125l4.25 4.234a1.5 1.5 0 1 0 2.118-2.125z" clip-rule="evenodd"/><path fill-rule="evenodd" d="m11.93 17.947l-3.466 3.65a1 1 0 0 1-1.431.02l-.691-.688a1 1 0 0 1-.002-1.415l3.553-3.565a1 1 0 0 1 1.415 0l.603.602a1 1 0 0 1 .018 1.396" clip-rule="evenodd"/></g><path fill-rule="evenodd" d="M10.912 15.084a.5.5 0 0 1-.002-.707l3.53-3.542a.5.5 0 0 1 .708.705l-3.53 3.543a.5.5 0 0 1-.706 0" clip-rule="evenodd"/><path fill-rule="evenodd" d="M20.04 6.505a.5.5 0 0 0-.583-.582l-2.6.485a.5.5 0 0 0-.262.138L10.2 12.964a.5.5 0 0 0 0 .707l2.126 2.117a.5.5 0 0 0 .707 0l6.394-6.419a.5.5 0 0 0 .138-.263zm-.766-1.565a1.5 1.5 0 0 1 1.75 1.744l-.474 2.602a1.5 1.5 0 0 1-.413.79l-6.394 6.417a1.5 1.5 0 0 1-2.122.004L9.496 14.38a1.5 1.5 0 0 1-.004-2.122l6.394-6.418a1.5 1.5 0 0 1 .788-.416z" clip-rule="evenodd"/><path fill-rule="evenodd" d="M6.31 12.618a2 2 0 0 1 2.83-.006l4.25 4.235a2 2 0 0 1-2.823 2.834l-4.251-4.235a2 2 0 0 1-.005-2.828m2.123.703a1 1 0 1 0-1.411 1.417l4.25 4.234a1 1 0 0 0 1.412-1.417z" clip-rule="evenodd"/><path fill-rule="evenodd" d="m8.121 16.533l-2.823 2.834a.5.5 0 0 0 .001.707l.709.706a.5.5 0 0 0 .707-.001l2.823-2.834l.709.706l-2.824 2.834a1.5 1.5 0 0 1-2.12.003l-.71-.705a1.5 1.5 0 0 1-.003-2.122l2.823-2.833z" clip-rule="evenodd"/><path fill-rule="evenodd" d="M13 24.5c6.351 0 11.5-5.149 11.5-11.5S19.351 1.5 13 1.5S1.5 6.649 1.5 13S6.649 24.5 13 24.5m0 1c6.904 0 12.5-5.596 12.5-12.5S19.904.5 13 .5S.5 6.096.5 13S6.096 25.5 13 25.5" clip-rule="evenodd"/></g></svg>