<svg xmlns="http://www.w3.org/2000/svg" width="1em" height="1em" viewBox="0 0 26 26"><g fill="currentColor"><path fill-rule="evenodd" d="M13.5 26C20.404 26 26 20.404 26 13.5S20.404 1 13.5 1S1 6.596 1 13.5S6.596 26 13.5 26m0-2C19.299 24 24 19.299 24 13.5S19.299 3 13.5 3S3 7.701 3 13.5S7.701 24 13.5 24" clip-rule="evenodd" opacity=".2"/><path fill-rule="evenodd" d="M12.555 21.494a.75.75 0 1 1-1.06 1.06l-2.477-2.476l-.69.69l.841.84a.75.75 0 1 1-1.06 1.061L5.28 19.841a.75.75 0 0 1 1.061-1.06l.927.926l.69-.69l-2.428-2.426a.75.75 0 0 1 1.061-1.06l1.068 1.067a1.99 1.99 0 0 1 .548-1.027l6.979-6.979a2 2 0 0 1 1.435-.585l1.375.014c.27.003.528.06.763.16l2.71-2.711a.75.75 0 1 1 1.061 1.06l-2.712 2.713c.095.226.15.473.156.733l.032 1.407a2 2 0 0 1-.585 1.46l-6.971 6.97a1.99 1.99 0 0 1-1.027.549z" clip-rule="evenodd" opacity=".2"/><path fill-rule="evenodd" d="M6.207 14.571a2 2 0 0 0 0 2.829l1.414 1.414a2 2 0 0 0 2.829 0l6.97-6.971a2 2 0 0 0 .586-1.46l-.032-1.407a2 2 0 0 0-1.978-1.955l-1.375-.014a2 2 0 0 0-1.435.585zm10.507-3.436l-6.971 6.972a1 1 0 0 1-1.415 0l-1.414-1.415a1 1 0 0 1 0-1.414L13.893 8.3a1 1 0 0 1 .718-.293l1.374.014a1 1 0 0 1 .99.978l.031 1.407a1 1 0 0 1-.292.73" clip-rule="evenodd"/><path d="M12.52 15.107a.5.5 0 1 1-.706.707l-1.415-1.415a.5.5 0 1 1 .708-.707zm-5.956 5.657a.5.5 0 0 1-.707.707l-2.529-2.529a.5.5 0 1 1 .708-.707zm3.79-.118a.5.5 0 1 1-.708.707l-6-6a.5.5 0 1 1 .708-.707zm4.288-7.661a.5.5 0 0 1-.707.707l-1.414-1.414a.5.5 0 0 1 .707-.707z"/><path d="m5 20.457l-.707-.707l2.457-2.457l.707.707zM19.854 4.354a.5.5 0 1 1 .707.707l-3 3a.5.5 0 1 1-.707-.707z"/><path fill-rule="evenodd" d="M13 24.5c6.351 0 11.5-5.149 11.5-11.5S19.351 1.5 13 1.5S1.5 6.649 1.5 13S6.649 24.5 13 24.5m0 1c6.904 0 12.5-5.596 12.5-12.5S19.904.5 13 .5S.5 6.096.5 13S6.096 25.5 13 25.5" clip-rule="evenodd"/></g></svg>