<svg xmlns="http://www.w3.org/2000/svg" width="1em" height="1em" viewBox="0 0 20 20"><g fill="currentColor"><g opacity=".2"><path d="M3.25 3a1 1 0 0 1 1-1h13a1 1 0 0 1 1 1v16a1 1 0 0 1-1 1h-13a1 1 0 0 1-1-1z"/><path fill-rule="evenodd" d="M5.25 4v14h11V4zm-1-2a1 1 0 0 0-1 1v16a1 1 0 0 0 1 1h13a1 1 0 0 0 1-1V3a1 1 0 0 0-1-1z" clip-rule="evenodd"/></g><path fill-rule="evenodd" d="M1.75 2A1.5 1.5 0 0 1 3.25.5h13a1.5 1.5 0 0 1 1.5 1.5v16a1.5 1.5 0 0 1-1.5 1.5h-13a1.5 1.5 0 0 1-1.5-1.5zm1.5-.5a.5.5 0 0 0-.5.5v16a.5.5 0 0 0 .5.5h13a.5.5 0 0 0 .5-.5V2a.5.5 0 0 0-.5-.5z" clip-rule="evenodd"/><path fill-rule="evenodd" d="M7.75 17a.5.5 0 0 1 .5-.5h3a.5.5 0 0 1 0 1h-3a.5.5 0 0 1-.5-.5" clip-rule="evenodd"/></g></svg>