<svg xmlns="http://www.w3.org/2000/svg" width="1em" height="1em" viewBox="0 0 20 20"><g fill="currentColor" fill-rule="evenodd" clip-rule="evenodd"><g opacity=".2"><path d="M4.919 2.936a1 1 0 0 1 1.395.233l5 7a1 1 0 1 1-1.628 1.162l-5-7a1 1 0 0 1 .233-1.395"/><path d="M16.081 2.936a1 1 0 0 0-1.395.233l-5 7a1 1 0 0 0 1.628 1.162l5-7a1 1 0 0 0-.233-1.395"/><path d="M5 11.75a1 1 0 0 1 1-1h9a1 1 0 1 1 0 2H6a1 1 0 0 1-1-1"/><path d="M10.5 9.75a1 1 0 0 1 1 1v7a1 1 0 1 1-2 0v-7a1 1 0 0 1 1-1"/></g><path d="M3.832 2.584a.5.5 0 0 1 .694.139l5 7.5a.5.5 0 0 1-.832.554l-5-7.5a.5.5 0 0 1 .138-.693"/><path d="M14.387 2.584a.5.5 0 0 0-.693.139l-5 7.5a.5.5 0 0 0 .832.554l5-7.5a.5.5 0 0 0-.139-.693"/><path d="M4.11 11a.5.5 0 0 1 .5-.5h9a.5.5 0 0 1 0 1h-9a.5.5 0 0 1-.5-.5"/><path d="M9.11 10a.5.5 0 0 1 .5.5V17a.5.5 0 0 1-1 0v-6.5a.5.5 0 0 1 .5-.5"/></g></svg>