<svg xmlns="http://www.w3.org/2000/svg" width="1em" height="1em" viewBox="0 0 32 32"><path fill="currentColor" d="M15.996 3L13 6.004h2V12l1 1l1-1V6.004h2zM7 7v4l1.293-1.293L12.586 14H14v-1.414L9.707 8.293L11 7zm5.414 0l-1.293 1.293L14 11.172V7zM18 7v4.172l2.879-2.879L19.586 7zm3 0l1.293 1.293L18 12.586V14h1.414l4.293-4.293L25 11V7zM8.293 11.121L7 12.414V14h4.172zm15.414 0L20.828 14H25v-1.586zM6.004 13L3 16.004L6.004 19v-2H12l1-1l-1-1H6.004zm19.992 0v2H20l-1 1l1 1h5.996v2L29 15.996zM7 18v1.586l1.293 1.293L11.172 18zm5.586 0l-4.293 4.293L7 21v4h4l-1.293-1.293L14 19.414V18zM18 18v1.414l4.293 4.293L21 25h4v-4l-1.293 1.293L19.414 18zm2.828 0l2.879 2.879L25 19.586V18zM16 19l-1 1v5.996h-2L16.004 29L19 25.996h-2V20zm-2 1.828l-2.879 2.879L12.414 25H14zm4 0V25h1.586l1.293-1.293z"/></svg>