<svg xmlns="http://www.w3.org/2000/svg" width="1em" height="1em" viewBox="0 0 32 32"><path fill="currentColor" d="M3.72 2.28L2.28 3.72l9.581 9.583l1.428 1.426l3.973 3.972l1.441 1.444l9.576 9.576l1.442-1.442l-9.325-9.324l1.448-1.017C25.306 17.52 28 14.57 28 11c0-3.855-3.145-7-7-7c-3.578 0-6.53 2.715-6.938 6.188l-1.007 1.425zM21 6c2.773 0 5 2.227 5 5a4.995 4.995 0 0 1-.813 2.75L18.25 6.812A4.995 4.995 0 0 1 21 6m-4.188 2.25l6.938 6.938A5.003 5.003 0 0 1 21 16c-2.773 0-5-2.227-5-5c0-1.016.297-1.965.813-2.75zm-6.09 6.662L6 21.594l-.469.687l.563.594l.812.813l-2.625 2.593L5.72 27.72l2.562-2.594L9.656 26.5l.719-.5l6.715-4.72l-1.44-1.438l-5.744 4.064l-1.781-1.843l4.027-5.72l-1.43-1.43z"/></svg>