<svg xmlns="http://www.w3.org/2000/svg" width="1em" height="1em" viewBox="0 0 32 32"><path fill="currentColor" d="M7 6v2H3v18h4v2h2v-2h2v2h2v-2h2v2h2v-2h2v2h2v-2h2v2h2v-2h4V8h-4V6h-2v2h-2V6h-2v2h-2V6h-2v2h-2V6h-2v2H9V6zm-2 4h22v14H5zm3 2c-.55 0-1 .45-1 1s.45 1 1 1s1-.45 1-1s-.45-1-1-1m4 0c-.55 0-1 .45-1 1s.45 1 1 1s1-.45 1-1s-.45-1-1-1m4 0c-.55 0-1 .45-1 1s.45 1 1 1s1-.45 1-1s-.45-1-1-1m4 0c-.55 0-1 .45-1 1s.45 1 1 1s1-.45 1-1s-.45-1-1-1m4 0c-.55 0-1 .45-1 1s.45 1 1 1s1-.45 1-1s-.45-1-1-1M8 16c-.55 0-1 .45-1 1s.45 1 1 1s1-.45 1-1s-.45-1-1-1m16 0c-.55 0-1 .45-1 1s.45 1 1 1s1-.45 1-1s-.45-1-1-1M8 20c-.55 0-1 .45-1 1s.45 1 1 1s1-.45 1-1s-.45-1-1-1m4 0c-.55 0-1 .45-1 1s.45 1 1 1s1-.45 1-1s-.45-1-1-1m4 0c-.55 0-1 .45-1 1s.45 1 1 1s1-.45 1-1s-.45-1-1-1m4 0c-.55 0-1 .45-1 1s.45 1 1 1s1-.45 1-1s-.45-1-1-1m4 0c-.55 0-1 .45-1 1s.45 1 1 1s1-.45 1-1s-.45-1-1-1"/></svg>