<svg xmlns="http://www.w3.org/2000/svg" width="0.92em" height="1em" viewBox="0 0 22 24"><path fill="currentColor" d="M21.416 15.661L14.75 12l6.666-3.661a1.127 1.127 0 0 0 .43-1.554l.003.005l-.913-1.584a1.126 1.126 0 0 0-1.562-.397l.005-.003l-6.503 3.943l.163-7.603v-.022c0-.621-.503-1.125-1.124-1.125h-1.826c-.621 0-1.125.504-1.125 1.125v.025v-.001l.163 7.603l-6.504-3.942a1.124 1.124 0 0 0-1.554.394l-.003.005l-.913 1.581A1.123 1.123 0 0 0 .58 8.335l.006.003l6.666 3.661L.586 15.66a1.127 1.127 0 0 0-.43 1.554l-.003-.005l.913 1.582a1.126 1.126 0 0 0 1.562.397l-.005.003l6.503-3.943l-.163 7.603v.024c0 .621.504 1.125 1.125 1.125h1.826c.621 0 1.125-.504 1.125-1.125v-.025v.001l-.163-7.603l6.503 3.943a1.124 1.124 0 0 0 1.554-.394l.003-.005l.913-1.582a1.123 1.123 0 0 0-.427-1.546z"/></svg>