<svg xmlns="http://www.w3.org/2000/svg" width="1em" height="1em" viewBox="0 0 24 24"><path fill="currentColor" d="M22 2.25h-3.25V.75a.75.75 0 0 0-1.5-.001V2.25h-4.5V.75a.75.75 0 0 0-1.5-.001V2.25h-4.5V.75a.75.75 0 0 0-1.5-.001V2.25H2a2 2 0 0 0-2 1.999v17.75a2 2 0 0 0 2 2h20a2 2 0 0 0 2-2V4.249a2 2 0 0 0-2-1.999M22.5 22a.5.5 0 0 1-.499.5H2a.5.5 0 0 1-.5-.5V4.25a.5.5 0 0 1 .5-.499h3.25v1.5a.75.75 0 0 0 1.5.001V3.751h4.5v1.5a.75.75 0 0 0 1.5.001V3.751h4.5v1.5a.75.75 0 0 0 1.5.001V3.751H22a.5.5 0 0 1 .499.499z"/><path fill="currentColor" d="M5.25 9h3v2.25h-3zm0 3.75h3V15h-3zm0 3.75h3v2.25h-3zm5.25 0h3v2.25h-3zm0-3.75h3V15h-3zm0-3.75h3v2.25h-3zm5.25 7.5h3v2.25h-3zm0-3.75h3V15h-3zm0-3.75h3v2.25h-3z"/></svg>