<svg xmlns="http://www.w3.org/2000/svg" width="0.59em" height="1em" viewBox="0 0 14 24"><path fill="currentColor" d="M9.456 17.441a11.592 11.592 0 0 0 3.647-1.518l-.047.028a1.817 1.817 0 0 0-1.943-3.069l.008-.005c-1.184.751-2.625 1.196-4.17 1.196s-2.987-.446-4.202-1.215l.032.019a1.815 1.815 0 0 0-2.496.558l-.004.007v.005a1.812 1.812 0 0 0 .56 2.496l.007.004A11.354 11.354 0 0 0 4.37 17.42l.078.015L.979 20.9a1.796 1.796 0 0 0-.538 1.284c0 .489.195.932.51 1.256l.03.03c.326.327.777.529 1.275.529s.949-.202 1.275-.529l3.421-3.404l3.4 3.406a1.814 1.814 0 1 0 2.566-2.565zm-2.505-5.052a6.194 6.194 0 1 0-6.2-6.194v.006a6.2 6.2 0 0 0 6.2 6.188m0-8.758A2.565 2.565 0 1 1 4.386 6.2v-.002a2.567 2.567 0 0 1 2.565-2.567"/></svg>