<svg xmlns="http://www.w3.org/2000/svg" width="0.84em" height="1em" viewBox="0 0 20 24"><path fill="currentColor" d="M17 13V3h-7v17.766a22.036 22.036 0 0 0 3.376-2.177l-.048.036Q17 15.751 17 13m3-12v12a7.15 7.15 0 0 1-.541 2.712l.017-.048a9.968 9.968 0 0 1-1.315 2.37l.018-.026a14.545 14.545 0 0 1-1.827 1.98l-.013.012a21.487 21.487 0 0 1-1.915 1.567l-.062.043q-.906.64-1.89 1.211t-1.398.774t-.664.313a.932.932 0 0 1-.818-.002l.005.002q-.25-.11-.664-.313t-1.398-.774t-1.89-1.211a21.613 21.613 0 0 1-1.996-1.624l.015.014a14.574 14.574 0 0 1-1.815-1.958l-.025-.034a9.813 9.813 0 0 1-1.273-2.277l-.024-.067a7.034 7.034 0 0 1-.523-2.663V1c.008-.549.451-.992.999-1h18.001c.549.008.992.451 1 .999V1z"/></svg>