<svg xmlns="http://www.w3.org/2000/svg" width="1em" height="1em" viewBox="0 0 24 24"><g fill="none"><path d="M24 0v24H0V0zM12.594 23.258l-.012.002l-.071.035l-.02.004l-.014-.004l-.071-.036c-.01-.003-.019 0-.024.006l-.004.01l-.017.428l.005.02l.01.013l.104.074l.015.004l.012-.004l.104-.074l.012-.016l.004-.017l-.017-.427c-.002-.01-.009-.017-.016-.018m.264-.113l-.014.002l-.184.093l-.01.01l-.003.011l.018.43l.005.012l.008.008l.201.092c.012.004.023 0 .029-.008l.004-.014l-.034-.614c-.003-.012-.01-.02-.02-.022m-.715.002a.023.023 0 0 0-.027.006l-.006.014l-.034.614c0 .012.007.02.017.024l.015-.002l.201-.093l.01-.008l.003-.011l.018-.43l-.003-.012l-.01-.01z"/><path fill="currentColor" d="m13.414 2.808l7.778 7.778a2 2 0 0 1 0 2.829l-7.778 7.778a2 2 0 0 1-2.828 0l-7.778-7.778a2 2 0 0 1 0-2.829l7.778-7.778a2 2 0 0 1 2.828 0M12 4.222L4.222 12L12 19.78L19.778 12zM12.002 15a1 1 0 0 1 .117 1.993l-.117.007a1 1 0 0 1-.119-1.993zM12 8c.867 0 1.538.76 1.43 1.62l-.438 3.504a1 1 0 0 1-1.984 0L10.57 9.62A1.441 1.441 0 0 1 12 8"/></g></svg>