<svg xmlns="http://www.w3.org/2000/svg" width="1em" height="1em" viewBox="0 0 24 24"><g fill="none"><path d="M24 0v24H0V0zM12.594 23.258l-.012.002l-.071.035l-.02.004l-.014-.004l-.071-.035c-.01-.004-.019-.001-.024.005l-.004.01l-.017.428l.005.02l.01.013l.105.074l.014.004l.012-.004l.104-.074l.012-.016l.004-.017l-.017-.427c-.002-.01-.009-.017-.016-.018m.264-.113l-.013.002l-.185.093l-.01.01l-.003.011l.018.43l.005.012l.008.008l.201.092c.012.004.023 0 .029-.008l.004-.014l-.034-.614c-.003-.012-.01-.02-.02-.022m-.715.002a.023.023 0 0 0-.027.006l-.006.014l-.034.614c0 .012.007.02.017.024l.015-.002l.201-.092l.01-.009l.004-.011l.017-.43l-.003-.012l-.01-.01z"/><path fill="currentColor" d="M4.5 6A1.5 1.5 0 0 1 6 4.5h8a1.5 1.5 0 0 1 0 3H9.621l9.097 9.097a1.5 1.5 0 0 1-2.122 2.12L7.5 9.623V14a1.5 1.5 0 0 1-3 0z"/></g></svg>