<svg xmlns="http://www.w3.org/2000/svg" width="1em" height="1em" viewBox="0 0 24 24"><g fill="none" fill-rule="evenodd"><path d="m12.593 23.258l-.011.002l-.071.035l-.02.004l-.014-.004l-.071-.035c-.01-.004-.019-.001-.024.005l-.004.01l-.017.428l.005.02l.01.013l.104.074l.015.004l.012-.004l.104-.074l.012-.016l.004-.017l-.017-.427c-.002-.01-.009-.017-.017-.018m.265-.113l-.013.002l-.185.093l-.01.01l-.003.011l.018.43l.005.012l.008.007l.201.093c.012.004.023 0 .029-.008l.004-.014l-.034-.614c-.003-.012-.01-.02-.02-.022m-.715.002a.023.023 0 0 0-.027.006l-.006.014l-.034.614c0 .012.007.02.017.024l.015-.002l.201-.093l.01-.008l.004-.011l.017-.43l-.003-.012l-.01-.01z"/><path fill="currentColor" d="M2.686 10.462a2.5 2.5 0 0 0 0 3.536l2.829 2.828a2.5 2.5 0 0 0 4.242-2.121l.973-.973l6.078 7.014a2.793 2.793 0 1 0 3.94-3.94l-7.013-6.079l.972-.972a2.5 2.5 0 0 0 2.121-4.243L14 2.685a2.5 2.5 0 0 0-4.243 2.122l-4.95 4.949a2.496 2.496 0 0 0-2.12.707M12.94 8.695l-4.242 4.242l-2.122-2.121l4.243-4.243zM4.1 12.584a.5.5 0 1 1 .707-.708l2.829 2.829a.5.5 0 1 1-.707.707zm7.778-7.779a.5.5 0 1 1 .707-.707l2.829 2.829a.5.5 0 1 1-.707.707zm6.442 14.631l-6.008-6.932l.194-.195l6.933 6.008a.793.793 0 1 1-1.12 1.12"/></g></svg>