<svg xmlns="http://www.w3.org/2000/svg" width="1em" height="1em" viewBox="0 0 24 24"><g fill="none" fill-rule="evenodd"><path d="m12.594 23.258l-.012.002l-.071.035l-.02.004l-.014-.004l-.071-.036c-.01-.003-.019 0-.024.006l-.004.01l-.017.428l.005.02l.01.013l.104.074l.015.004l.012-.004l.104-.074l.012-.016l.004-.017l-.017-.427c-.002-.01-.009-.017-.016-.018m.264-.113l-.014.002l-.184.093l-.01.01l-.003.011l.018.43l.005.012l.008.008l.201.092c.012.004.023 0 .029-.008l.004-.014l-.034-.614c-.003-.012-.01-.02-.02-.022m-.715.002a.023.023 0 0 0-.027.006l-.006.014l-.034.614c0 .012.007.02.017.024l.015-.002l.201-.093l.01-.008l.003-.011l.018-.43l-.003-.012l-.01-.01z"/><path fill="currentColor" d="M9.447 3.106a1 1 0 0 1 .447 1.341L8.618 7h6.764l-1.276-2.553a1 1 0 1 1 1.788-.894L17.618 7H20a2 2 0 0 1 2 2v1a2 2 0 0 1-1.157 1.814l-1.519 6.837A3 3 0 0 1 16.396 21H7.604a3 3 0 0 1-2.928-2.35l-1.52-6.836A2 2 0 0 1 2 10V9a2 2 0 0 1 2-2h2.382l1.724-3.447a1 1 0 0 1 1.341-.447M16.98 9H20v1H4V9h3.02z"/></g></svg>