<svg xmlns="http://www.w3.org/2000/svg" width="1em" height="1em" viewBox="0 0 24 24"><g fill="none"><path d="M24 0v24H0V0zM12.594 23.258l-.012.002l-.071.035l-.02.004l-.014-.004l-.071-.036c-.01-.003-.019 0-.024.006l-.004.01l-.017.428l.005.02l.01.013l.104.074l.015.004l.012-.004l.104-.074l.012-.016l.004-.017l-.017-.427c-.002-.01-.009-.017-.016-.018m.264-.113l-.014.002l-.184.093l-.01.01l-.003.011l.018.43l.005.012l.008.008l.201.092c.012.004.023 0 .029-.008l.004-.014l-.034-.614c-.003-.012-.01-.02-.02-.022m-.715.002a.023.023 0 0 0-.027.006l-.006.014l-.034.614c0 .012.007.02.017.024l.015-.002l.201-.093l.01-.008l.003-.011l.018-.43l-.003-.012l-.01-.01z"/><path fill="currentColor" d="M5.353 14.513a4.501 4.501 0 0 1 5.314-2.022a6.502 6.502 0 0 0 5.263 8.707A10.02 10.02 0 0 1 7 20.66a4.5 4.5 0 0 1-1.647-6.147M21.198 8.07A10.02 10.02 0 0 1 20.66 17a4.5 4.5 0 0 1-8.169-3.667a6.502 6.502 0 0 0 8.707-5.263M9.487 5.353a4.502 4.502 0 0 1 2.022 5.314a6.502 6.502 0 0 0-8.707 5.263A10.02 10.02 0 0 1 3.34 7a4.5 4.5 0 0 1 6.147-1.647M12 2c1.752 0 3.483.464 5 1.34a4.5 4.5 0 0 1-3.667 8.169A6.502 6.502 0 0 0 8.07 2.802A9.968 9.968 0 0 1 12 2"/></g></svg>