<svg xmlns="http://www.w3.org/2000/svg" width="1em" height="1em" viewBox="0 0 24 24"><g fill="none" fill-rule="evenodd"><path d="M24 0v24H0V0zM12.594 23.258l-.012.002l-.071.035l-.02.004l-.014-.004l-.071-.036c-.01-.003-.019 0-.024.006l-.004.01l-.017.428l.005.02l.01.013l.104.074l.015.004l.012-.004l.104-.074l.012-.016l.004-.017l-.017-.427c-.002-.01-.009-.017-.016-.018m.264-.113l-.014.002l-.184.093l-.01.01l-.003.011l.018.43l.005.012l.008.008l.201.092c.012.004.023 0 .029-.008l.004-.014l-.034-.614c-.003-.012-.01-.02-.02-.022m-.715.002a.023.023 0 0 0-.027.006l-.006.014l-.034.614c0 .012.007.02.017.024l.015-.002l.201-.093l.01-.008l.003-.011l.018-.43l-.003-.012l-.01-.01z"/><path fill="currentColor" d="M11.778 4.371a1 1 0 0 1-.15 1.407c-.559.452-.924.886-1.163 1.276a2 2 0 1 1-2.46 1.792c-.024-.492.02-1.15.293-1.892c.326-.884.956-1.829 2.073-2.732a1 1 0 0 1 1.407.15ZM15 5a1 1 0 1 0 0 2h5a1 1 0 1 0 0-2zm0 4a1 1 0 1 0 0 2h5a1 1 0 1 0 0-2zM4 14a1 1 0 0 1 1-1h15a1 1 0 1 1 0 2H5a1 1 0 0 1-1-1m1 3a1 1 0 1 0 0 2h15a1 1 0 1 0 0-2zM3.006 8.846a2 2 0 1 0 2.459-1.792c.239-.39.604-.824 1.164-1.276A1 1 0 1 0 5.37 4.222c-1.117.903-1.747 1.848-2.073 2.732a4.757 4.757 0 0 0-.292 1.892Z"/></g></svg>