<svg xmlns="http://www.w3.org/2000/svg" width="1em" height="1em" viewBox="0 0 24 24"><g fill="none"><path d="M24 0v24H0V0zM12.594 23.258l-.012.002l-.071.035l-.02.004l-.014-.004l-.071-.036c-.01-.003-.019 0-.024.006l-.004.01l-.017.428l.005.02l.01.013l.104.074l.015.004l.012-.004l.104-.074l.012-.016l.004-.017l-.017-.427c-.002-.01-.009-.017-.016-.018m.264-.113l-.014.002l-.184.093l-.01.01l-.003.011l.018.43l.005.012l.008.008l.201.092c.012.004.023 0 .029-.008l.004-.014l-.034-.614c-.003-.012-.01-.02-.02-.022m-.715.002a.023.023 0 0 0-.027.006l-.006.014l-.034.614c0 .012.007.02.017.024l.015-.002l.201-.093l.01-.008l.003-.011l.018-.43l-.003-.012l-.01-.01z"/><path fill="currentColor" d="M16.75 1.272a1 1 0 0 1 1 1v1a1 1 0 1 1-2 0v-1a1 1 0 0 1 1-1m-3.897 2.25a1 1 0 0 1 1.366-.366l.866.5a1 1 0 0 1-1 1.732l-.866-.5a1 1 0 0 1-.366-1.366m7.428 1.366a1 1 0 1 0-1-1.732l-.866.5a1 1 0 1 0 1 1.732zm-3.506.842a1 1 0 0 1 .366 1.366l-.275.476l.866.5a1 1 0 0 1 .48 1.066l-.121.59c1.874 2.426 2.274 5.783.676 8.55c-2.142 3.71-6.98 4.837-10.767 2.65c-3.788-2.187-5.231-6.94-3.089-10.65c1.598-2.768 4.705-4.1 7.743-3.689l.45-.4a1 1 0 0 1 1.164-.117l.866.5l.275-.476a1 1 0 0 1 1.366-.366m-2.883 2.434l-.268.238a1 1 0 0 1-.86.232c-2.428-.485-4.901.531-6.12 2.643c-1.547 2.68-.553 6.24 2.356 7.919c2.908 1.68 6.489.76 8.035-1.919c1.22-2.112.863-4.761-.77-6.622a1 1 0 0 1-.247-.728l.018-.132l.072-.352zM12 10.035a1 1 0 0 1 .002 2a1.96 1.96 0 0 0-1.702.983a1 1 0 1 1-1.732-1A3.963 3.963 0 0 1 12 10.035m7.416-3.879l.866.5a1 1 0 1 1-1 1.732l-.866-.5a1 1 0 1 1 1-1.732"/></g></svg>