<svg xmlns="http://www.w3.org/2000/svg" width="1em" height="1em" viewBox="0 0 24 24"><g fill="none" fill-rule="evenodd"><path d="M24 0v24H0V0zM12.594 23.258l-.012.002l-.071.035l-.02.004l-.014-.004l-.071-.036c-.01-.003-.019 0-.024.006l-.004.01l-.017.428l.005.02l.01.013l.104.074l.015.004l.012-.004l.104-.074l.012-.016l.004-.017l-.017-.427c-.002-.01-.009-.017-.016-.018m.264-.113l-.014.002l-.184.093l-.01.01l-.003.011l.018.43l.005.012l.008.008l.201.092c.012.004.023 0 .029-.008l.004-.014l-.034-.614c-.003-.012-.01-.02-.02-.022m-.715.002a.023.023 0 0 0-.027.006l-.006.014l-.034.614c0 .012.007.02.017.024l.015-.002l.201-.093l.01-.008l.003-.011l.018-.43l-.003-.012l-.01-.01z"/><path fill="currentColor" d="M7.783 4.016c1.444.262 2.928 1 4.217 2.132c1.29-1.132 2.773-1.87 4.217-2.132c1.627-.296 3.306.004 4.482 1.18c1.153 1.154 1.465 2.791 1.197 4.387c-.24 1.431-.948 2.906-2.047 4.195A5 5 0 0 1 12 19a5 5 0 0 1-7.85-5.222c-1.096-1.289-1.806-2.764-2.045-4.195c-.268-1.596.044-3.233 1.197-4.387C4.477 4.02 6.156 3.72 7.783 4.016M4.715 6.61c.581-.581 1.522-.843 2.71-.627c1.02.185 2.144.716 3.167 1.59a2.75 2.75 0 0 0-.06.055c-.363.346-.645.8-.86 1.283C9.24 9.882 9 11.15 9 12.5c0 1.349.241 2.618.672 3.588c.215.483.497.937.86 1.283c.044.042.09.082.138.122A3 3 0 0 1 6.208 13.9A1 1 0 0 0 6 12.842c-1.089-1.136-1.73-2.435-1.924-3.589c-.194-1.157.07-2.072.64-2.642m8.615 10.882a3 3 0 0 0 4.462-3.592A1 1 0 0 1 18 12.84c1.089-1.135 1.73-2.434 1.924-3.588c.194-1.157-.069-2.072-.64-2.642c-.58-.581-1.521-.843-2.71-.627c-1.018.185-2.143.716-3.166 1.59l.06.055c.363.346.645.8.86 1.283c.43.97.672 2.239.672 3.588c0 1.349-.241 2.618-.672 3.588c-.215.483-.497.937-.86 1.283c-.044.042-.09.082-.138.122M11 12.5c0-1.136.207-2.117.5-2.776c.147-.33.296-.537.41-.646c.08-.076.1-.076.179 0c.115.11.264.315.411.646c.293.66.5 1.64.5 2.776s-.207 2.117-.5 2.776c-.147.33-.296.536-.411.646c-.08.075-.099.075-.178 0c-.115-.11-.264-.316-.412-.646c-.292-.66-.5-1.64-.5-2.776"/></g></svg>