<svg xmlns="http://www.w3.org/2000/svg" width="1em" height="1em" viewBox="0 0 24 24"><g fill="none" fill-rule="evenodd"><path d="M24 0v24H0V0zM12.594 23.258l-.012.002l-.071.035l-.02.004l-.014-.004l-.071-.036c-.01-.003-.019 0-.024.006l-.004.01l-.017.428l.005.02l.01.013l.104.074l.015.004l.012-.004l.104-.074l.012-.016l.004-.017l-.017-.427c-.002-.01-.009-.017-.016-.018m.264-.113l-.014.002l-.184.093l-.01.01l-.003.011l.018.43l.005.012l.008.008l.201.092c.012.004.023 0 .029-.008l.004-.014l-.034-.614c-.003-.012-.01-.02-.02-.022m-.715.002a.023.023 0 0 0-.027.006l-.006.014l-.034.614c0 .012.007.02.017.024l.015-.002l.201-.093l.01-.008l.003-.011l.018-.43l-.003-.012l-.01-.01z"/><path fill="currentColor" d="M12 6.149c-1.289-1.133-2.773-1.87-4.217-2.133c-1.627-.295-3.306.005-4.482 1.18C2.148 6.35 1.836 7.989 2.104 9.585c.24 1.43.949 2.906 2.047 4.194A5 5 0 0 0 12 19a5 5 0 0 0 7.85-5.222c1.097-1.288 1.806-2.763 2.045-4.194c.268-1.596-.044-3.234-1.197-4.387c-1.176-1.176-2.855-1.476-4.482-1.18c-1.444.262-2.928 1-4.217 2.132"/></g></svg>