<svg xmlns="http://www.w3.org/2000/svg" width="1em" height="1em" viewBox="0 0 24 24"><g fill="none" fill-rule="evenodd"><path d="M24 0v24H0V0zM12.594 23.258l-.012.002l-.071.035l-.02.004l-.014-.004l-.071-.036c-.01-.003-.019 0-.024.006l-.004.01l-.017.428l.005.02l.01.013l.104.074l.015.004l.012-.004l.104-.074l.012-.016l.004-.017l-.017-.427c-.002-.01-.009-.017-.016-.018m.264-.113l-.014.002l-.184.093l-.01.01l-.003.011l.018.43l.005.012l.008.008l.201.092c.012.004.023 0 .029-.008l.004-.014l-.034-.614c-.003-.012-.01-.02-.02-.022m-.715.002a.023.023 0 0 0-.027.006l-.006.014l-.034.614c0 .012.007.02.017.024l.015-.002l.201-.093l.01-.008l.003-.011l.018-.43l-.003-.012l-.01-.01z"/><path fill="currentColor" d="M18.664 15.058a1 1 0 0 1 .78 1.838l-.108.046l-4.363 1.558l4.363 1.558a1 1 0 0 1-.56 1.917l-.112-.033L12 19.562l-6.664 2.38a1 1 0 0 1-.78-1.838l.108-.046L9.027 18.5l-4.363-1.558a1 1 0 0 1 .56-1.917l.112.033L12 17.438zM11.23 2.892l.707-.46l.22-.133c.49-.277 1.03-.46 1.497-.054c.28.242.373.583.323.93l-.04.205l-.015.14c-.005.084-.005.189.008.307c.086.771.611 1.322 1.155 1.821l.457.416l.342.323c.812.792 1.708 1.86 2.085 3.37c.454 1.814.006 3.441-1.182 4.587C15.641 15.452 13.921 16 12 16c-3.169 0-6-2.052-6-5.5c0-2.696 1.782-4.825 3.342-6.19a18.07 18.07 0 0 1 1.89-1.418m.99 6.372L12 9l-.221.264l-.237.301l-.187.252l-.2.284C10.609 10.9 10 11.997 10 12.917c0 1.15.896 2.083 2 2.083c1.105 0 2-.933 2-2.083c0-.92-.609-2.017-1.155-2.816l-.2-.284l-.187-.252z"/></g></svg>