<svg xmlns="http://www.w3.org/2000/svg" width="1em" height="1em" viewBox="0 0 24 24"><g fill="none" fill-rule="evenodd"><path d="M24 0v24H0V0zM12.594 23.258l-.012.002l-.071.035l-.02.004l-.014-.004l-.071-.036c-.01-.003-.019 0-.024.006l-.004.01l-.017.428l.005.02l.01.013l.104.074l.015.004l.012-.004l.104-.074l.012-.016l.004-.017l-.017-.427c-.002-.01-.009-.017-.016-.018m.264-.113l-.014.002l-.184.093l-.01.01l-.003.011l.018.43l.005.012l.008.008l.201.092c.012.004.023 0 .029-.008l.004-.014l-.034-.614c-.003-.012-.01-.02-.02-.022m-.715.002a.023.023 0 0 0-.027.006l-.006.014l-.034.614c0 .012.007.02.017.024l.015-.002l.201-.093l.01-.008l.003-.011l.018-.43l-.003-.012l-.01-.01z"/><path fill="currentColor" d="M3 6a3 3 0 0 1 3-3h9c1.737 0 3.301.738 4.397 1.917a24 24 0 0 1 .973-.611a1 1 0 1 1 .987 1.74c-.105.06-.876.553-.861.543A5.98 5.98 0 0 1 21 9v9a3 3 0 0 1-3 3H6a3 3 0 0 1-3-3zm16.656 1.174a5.005 5.005 0 0 0-1.09-1.68a30.96 30.96 0 0 0-1.69 1.31c-1.642 1.366-3.614 3.29-5.239 5.718a9.858 9.858 0 0 0-1.746-1.785a6.858 6.858 0 0 0-.965-.636a3.414 3.414 0 0 0-.451-.21a1 1 0 0 0-.689 1.878c.025.01.37.152.876.546c.578.45 1.376 1.239 2.146 2.557a1 1 0 0 0 1.733-.01c1.584-2.792 3.787-5 5.614-6.52a29.008 29.008 0 0 1 1.501-1.168"/></g></svg>