<svg xmlns="http://www.w3.org/2000/svg" width="1em" height="1em" viewBox="0 0 24 24"><g fill="none" fill-rule="evenodd"><path d="M24 0v24H0V0zM12.594 23.258l-.012.002l-.071.035l-.02.004l-.014-.004l-.071-.036c-.01-.003-.019 0-.024.006l-.004.01l-.017.428l.005.02l.01.013l.104.074l.015.004l.012-.004l.104-.074l.012-.016l.004-.017l-.017-.427c-.002-.01-.009-.017-.016-.018m.264-.113l-.014.002l-.184.093l-.01.01l-.003.011l.018.43l.005.012l.008.008l.201.092c.012.004.023 0 .029-.008l.004-.014l-.034-.614c-.003-.012-.01-.02-.02-.022m-.715.002a.023.023 0 0 0-.027.006l-.006.014l-.034.614c0 .012.007.02.017.024l.015-.002l.201-.093l.01-.008l.003-.011l.018-.43l-.003-.012l-.01-.01z"/><path fill="currentColor" d="M7 3a4 4 0 0 1 4 4v3a1 1 0 0 1-1 1H7a4 4 0 1 1 0-8m2 4a2 2 0 1 0-2 2h2zm5 4a1 1 0 0 1-1-1V7a4 4 0 1 1 4 4zm1-4v2h2a2 2 0 1 0-2-2m6 10a4 4 0 0 0-4-4h-3a1 1 0 0 0-1 1v3a4 4 0 0 0 8 0m-4-2a2 2 0 1 1-2 2v-2zm-7-2a1 1 0 0 1 1 1v3a4 4 0 1 1-4-4zm-1 4v-2H7a2 2 0 1 0 2 2"/></g></svg>