<svg xmlns="http://www.w3.org/2000/svg" width="1em" height="1em" viewBox="0 0 24 24"><g fill="none" fill-rule="evenodd"><path d="M24 0v24H0V0zM12.594 23.258l-.012.002l-.071.035l-.02.004l-.014-.004l-.071-.036c-.01-.003-.019 0-.024.006l-.004.01l-.017.428l.005.02l.01.013l.104.074l.015.004l.012-.004l.104-.074l.012-.016l.004-.017l-.017-.427c-.002-.01-.009-.017-.016-.018m.264-.113l-.014.002l-.184.093l-.01.01l-.003.011l.018.43l.005.012l.008.008l.201.092c.012.004.023 0 .029-.008l.004-.014l-.034-.614c-.003-.012-.01-.02-.02-.022m-.715.002a.023.023 0 0 0-.027.006l-.006.014l-.034.614c0 .012.007.02.017.024l.015-.002l.201-.093l.01-.008l.003-.011l.018-.43l-.003-.012l-.01-.01z"/><path fill="currentColor" d="m13.25 2.795l7.998 4.617a2.5 2.5 0 0 1 1.25 2.165v4.846a2.5 2.5 0 0 1-1.25 2.165l-7.998 4.617a2.5 2.5 0 0 1-2.5 0l-7.998-4.617a2.5 2.5 0 0 1-1.25-2.165V9.577a2.5 2.5 0 0 1 1.25-2.165l7.998-4.617a2.5 2.5 0 0 1 2.5 0M8.198 13.732L6.002 15l4.498 2.597V15.06zm7.604 0L13.5 15.061v2.536L17.998 15zM12 11.537l-.802.463l.802.463l.802-.463zm-7.498.061v.804L5.198 12zm14.996 0l-.696.402l.696.402zM13.5 6.403V8.94l2.302 1.329L17.998 9zm-3 0L6.002 9l2.196 1.268l2.302-1.33V6.404Z"/></g></svg>