<svg xmlns="http://www.w3.org/2000/svg" width="1em" height="1em" viewBox="0 0 24 24"><g fill="none" fill-rule="evenodd"><path d="M24 0v24H0V0zM12.594 23.258l-.012.002l-.071.035l-.02.004l-.014-.004l-.071-.036c-.01-.003-.019 0-.024.006l-.004.01l-.017.428l.005.02l.01.013l.104.074l.015.004l.012-.004l.104-.074l.012-.016l.004-.017l-.017-.427c-.002-.01-.009-.017-.016-.018m.264-.113l-.014.002l-.184.093l-.01.01l-.003.011l.018.43l.005.012l.008.008l.201.092c.012.004.023 0 .029-.008l.004-.014l-.034-.614c-.003-.012-.01-.02-.02-.022m-.715.002a.023.023 0 0 0-.027.006l-.006.014l-.034.614c0 .012.007.02.017.024l.015-.002l.201-.093l.01-.008l.003-.011l.018-.43l-.003-.012l-.01-.01z"/><path fill="currentColor" d="M16 2a1 1 0 0 1 1 1h2a2 2 0 0 1 2 2v15a2 2 0 0 1-2 2H5a2 2 0 0 1-2-2V5a2 2 0 0 1 2-2h2a1 1 0 0 1 2 0h6a1 1 0 0 1 1-1M7 5a1 1 0 0 0 2 0h6a1 1 0 1 0 2 0h2v15H5V5zm5 4a1 1 0 1 0 0 2a1 1 0 0 0 0-2m-3 1a3 3 0 1 1 6 0a3 3 0 0 1-6 0m-.051 7.316c.152-.457.44-.758.902-.968C10.353 16.12 11.065 16 12 16s1.647.12 2.149.348c.463.21.75.51.902.968a1 1 0 0 0 1.898-.632c-.348-1.043-1.06-1.742-1.973-2.157C14.103 14.13 13.065 14 12 14s-2.103.13-2.976.527c-.912.415-1.625 1.114-1.973 2.157a1 1 0 0 0 1.898.632"/></g></svg>