<svg xmlns="http://www.w3.org/2000/svg" width="1em" height="1em" viewBox="0 0 24 24"><g fill="none" fill-rule="evenodd"><path d="M24 0v24H0V0zM12.594 23.258l-.012.002l-.071.035l-.02.004l-.014-.004l-.071-.036c-.01-.003-.019 0-.024.006l-.004.01l-.017.428l.005.02l.01.013l.104.074l.015.004l.012-.004l.104-.074l.012-.016l.004-.017l-.017-.427c-.002-.01-.009-.017-.016-.018m.264-.113l-.014.002l-.184.093l-.01.01l-.003.011l.018.43l.005.012l.008.008l.201.092c.012.004.023 0 .029-.008l.004-.014l-.034-.614c-.003-.012-.01-.02-.02-.022m-.715.002a.023.023 0 0 0-.027.006l-.006.014l-.034.614c0 .012.007.02.017.024l.015-.002l.201-.093l.01-.008l.003-.011l.018-.43l-.003-.012l-.01-.01z"/><path fill="currentColor" d="M11 2.423a2 2 0 0 1 1.842-.082l.158.082l3.33 1.922a2 2 0 0 1 .993 1.569l.007.163v3.846l3.33 1.922a2 2 0 0 1 .993 1.569l.007.163v3.846a2 2 0 0 1-.861 1.644l-.139.088l-3.33 1.922a2 2 0 0 1-1.843.082l-.157-.082L12 19.155l-3.33 1.922a2 2 0 0 1-1.843.082l-.157-.082l-3.33-1.922a2 2 0 0 1-.993-1.568l-.007-.164v-3.846a2 2 0 0 1 .861-1.644l.139-.088l3.33-1.922V6.077a2 2 0 0 1 .861-1.644l.139-.088zm5.33 9.232L13.134 13.5l3.196 1.845l3.196-1.845zm-8.66 0L4.474 13.5l3.196 1.845l3.196-1.845zm4.33-7.5L8.804 6L12 7.845L15.196 6z"/></g></svg>