<svg xmlns="http://www.w3.org/2000/svg" width="1em" height="1em" viewBox="0 0 24 24"><g fill="none" fill-rule="evenodd"><path d="M24 0v24H0V0zM12.594 23.258l-.012.002l-.071.035l-.02.004l-.014-.004l-.071-.036c-.01-.003-.019 0-.024.006l-.004.01l-.017.428l.005.02l.01.013l.104.074l.015.004l.012-.004l.104-.074l.012-.016l.004-.017l-.017-.427c-.002-.01-.009-.017-.016-.018m.264-.113l-.014.002l-.184.093l-.01.01l-.003.011l.018.43l.005.012l.008.008l.201.092c.012.004.023 0 .029-.008l.004-.014l-.034-.614c-.003-.012-.01-.02-.02-.022m-.715.002a.023.023 0 0 0-.027.006l-.006.014l-.034.614c0 .012.007.02.017.024l.015-.002l.201-.093l.01-.008l.003-.011l.018-.43l-.003-.012l-.01-.01z"/><path fill="currentColor" d="M19.83 4.829a1 1 0 0 1-.26.964L17.804 7.56a3 3 0 0 1-4.242 4.243l-1.768 1.768a1 1 0 0 1-1.672-.444L9.085 9.329l-2.798 2.798L11.535 20H14a1 1 0 0 1 0 2H8a1 1 0 0 1 0-2h1.13l-4.508-6.763a2 2 0 0 1 .25-2.524l3.606-3.606l-.48-1.758a1 1 0 0 1 .258-.97l2.121-2.122a1 1 0 0 1 .97-.257l7.779 2.12a1 1 0 0 1 .703.709m-4.855 5.56a1 1 0 0 0 1.414-1.414zm-3.593-6.307l-1.3 1.3l1.515 5.556l5.341-5.34z"/></g></svg>