<svg xmlns="http://www.w3.org/2000/svg" width="1em" height="1em" viewBox="0 0 24 24"><g fill="none" fill-rule="evenodd"><path d="M24 0v24H0V0zM12.594 23.258l-.012.002l-.071.035l-.02.004l-.014-.004l-.071-.036c-.01-.003-.019 0-.024.006l-.004.01l-.017.428l.005.02l.01.013l.104.074l.015.004l.012-.004l.104-.074l.012-.016l.004-.017l-.017-.427c-.002-.01-.009-.017-.016-.018m.264-.113l-.014.002l-.184.093l-.01.01l-.003.011l.018.43l.005.012l.008.008l.201.092c.012.004.023 0 .029-.008l.004-.014l-.034-.614c-.003-.012-.01-.02-.02-.022m-.715.002a.023.023 0 0 0-.027.006l-.006.014l-.034.614c0 .012.007.02.017.024l.015-.002l.201-.093l.01-.008l.003-.011l.018-.43l-.003-.012l-.01-.01z"/><path fill="currentColor" d="M20.447 3.106a1 1 0 0 1 .447 1.341v.001c-.258.517-2.291 4.582-5.285 8.531c-1.496 1.974-3.26 3.956-5.192 5.452C8.494 19.921 6.312 21 4 21a1 1 0 1 1 0-2c1.688 0 3.444-.796 5.192-2.15c1.74-1.348 3.383-3.178 4.824-5.08c2.88-3.798 4.846-7.73 5.09-8.217a1 1 0 0 1 1.341-.447"/></g></svg>