<svg xmlns="http://www.w3.org/2000/svg" width="1em" height="1em" viewBox="0 0 24 24"><g fill="none"><path d="M24 0v24H0V0zM12.594 23.258l-.012.002l-.071.035l-.02.004l-.014-.004l-.071-.036c-.01-.003-.019 0-.024.006l-.004.01l-.017.428l.005.02l.01.013l.104.074l.015.004l.012-.004l.104-.074l.012-.016l.004-.017l-.017-.427c-.002-.01-.009-.017-.016-.018m.264-.113l-.014.002l-.184.093l-.01.01l-.003.011l.018.43l.005.012l.008.008l.201.092c.012.004.023 0 .029-.008l.004-.014l-.034-.614c-.003-.012-.01-.02-.02-.022m-.715.002a.023.023 0 0 0-.027.006l-.006.014l-.034.614c0 .012.007.02.017.024l.015-.002l.201-.093l.01-.008l.003-.011l.018-.43l-.003-.012l-.01-.01z"/><path fill="currentColor" d="M19 17a3 3 0 1 1-2.83 4H15a1 1 0 1 1 0-2h1.17A3.001 3.001 0 0 1 19 17m.106-13.447a1 1 0 1 1 1.788.894l-.374.731l-.476.89l-.412.739l-.354.62l-.393.666l-.283.468l-.453.731l-.321.504l-.336.516l-.35.524l-.364.53l-.377.536l-.39.538l-.402.54c-1.496 1.973-3.26 3.955-5.192 5.451C8.494 19.921 6.312 21 4 21a1 1 0 1 1 0-2c1.688 0 3.444-.796 5.192-2.15c1.74-1.348 3.383-3.178 4.824-5.08l.199-.264l.39-.531l.377-.53l.364-.525l.35-.52l.337-.51l.477-.749l.443-.717l.534-.898l.357-.619l.412-.739l.41-.762zM19 19a1 1 0 1 0 0 2a1 1 0 0 0 0-2m-7 0a1 1 0 0 1 .117 1.993L12 21h-1a1 1 0 0 1-.117-1.993L11 19z"/></g></svg>