<svg xmlns="http://www.w3.org/2000/svg" width="1em" height="1em" viewBox="0 0 24 24"><g fill="none" fill-rule="evenodd"><path d="M24 0v24H0V0zM12.594 23.258l-.012.002l-.071.035l-.02.004l-.014-.004l-.071-.036c-.01-.003-.019 0-.024.006l-.004.01l-.017.428l.005.02l.01.013l.104.074l.015.004l.012-.004l.104-.074l.012-.016l.004-.017l-.017-.427c-.002-.01-.009-.017-.016-.018m.264-.113l-.014.002l-.184.093l-.01.01l-.003.011l.018.43l.005.012l.008.008l.201.092c.012.004.023 0 .029-.008l.004-.014l-.034-.614c-.003-.012-.01-.02-.02-.022m-.715.002a.023.023 0 0 0-.027.006l-.006.014l-.034.614c0 .012.007.02.017.024l.015-.002l.201-.093l.01-.008l.003-.011l.018-.43l-.003-.012l-.01-.01z"/><path fill="currentColor" d="M9 3a1 1 0 0 1 .993.883L10 4l.002.562l.019 1.185l.045 1.478l.068 1.567l.018.35l3.334-2a1 1 0 0 1 1.507.74L15 8v2.132l4.445-2.964a1 1 0 0 1 1.548.71L21 8v12a1 1 0 0 1-.883.993L20 21H4a1 1 0 0 1-.995-1.1l.096-.976l.173-1.856l.183-2.137l.123-1.566l.078-1.091l.126-1.974l.091-1.7l.076-1.85l.026-.92L4 4.34v-.337a1 1 0 0 1 .883-.997L5 3zm4 6.766l-2.717 1.63l.089 1.299l.105 1.408l.123 1.52l.143 1.631l.163 1.746H19V9.869l-4.445 2.963A1 1 0 0 1 13 12zM8.007 5H5.993l-.035 1.54l-.062 1.65l-.087 1.74l-.058.986l-.094 1.435l-.18 2.416l-.15 1.79l-.176 1.936l-.048.507h3.794l-.14-1.493l-.124-1.41l-.11-1.33l-.18-2.416l-.094-1.435l-.106-1.894l-.05-1.092l-.057-1.594l-.022-.894zM13 14a1 1 0 0 1 1 1v1a1 1 0 1 1-2 0v-1a1 1 0 0 1 1-1m4 0a1 1 0 0 1 .993.883L18 15v1a1 1 0 0 1-1.993.117L16 16v-1a1 1 0 0 1 1-1"/></g></svg>