<svg xmlns="http://www.w3.org/2000/svg" width="1em" height="1em" viewBox="0 0 24 24"><g fill="none" fill-rule="evenodd"><path d="m12.593 23.258l-.011.002l-.071.035l-.02.004l-.014-.004l-.071-.035c-.01-.004-.019-.001-.024.005l-.004.01l-.017.428l.005.02l.01.013l.104.074l.015.004l.012-.004l.104-.074l.012-.016l.004-.017l-.017-.427c-.002-.01-.009-.017-.017-.018m.265-.113l-.013.002l-.185.093l-.01.01l-.003.011l.018.43l.005.012l.008.007l.201.093c.012.004.023 0 .029-.008l.004-.014l-.034-.614c-.003-.012-.01-.02-.02-.022m-.715.002a.023.023 0 0 0-.027.006l-.006.014l-.034.614c0 .012.007.02.017.024l.015-.002l.201-.093l.01-.008l.004-.011l.017-.43l-.003-.012l-.01-.01z"/><path fill="currentColor" d="M20 13v5a3 3 0 0 1-3 3h-4v-8zm-9 0v8H7a3 3 0 0 1-3-3v-5zM9 2a3.99 3.99 0 0 1 3 1.354A3.99 3.99 0 0 1 15 2h.5A1.5 1.5 0 0 1 17 3.5V4c0 .729-.195 1.412-.535 2H19a2 2 0 0 1 2 2v2c0 .364-.097.706-.268 1H13V8a1 1 0 1 0-2 0v3H3.268A1.99 1.99 0 0 1 3 10V8a2 2 0 0 1 2-2h2.535A3.982 3.982 0 0 1 7 4v-.5A1.5 1.5 0 0 1 8.5 2Zm0 2a2 2 0 0 0 2 2a2 2 0 0 0-2-2m6 0a2 2 0 0 0-2 2a2 2 0 0 0 2-2"/></g></svg>