<svg xmlns="http://www.w3.org/2000/svg" width="1em" height="1em" viewBox="0 0 24 24"><g fill="none" fill-rule="evenodd"><path d="M24 0v24H0V0zM12.594 23.258l-.012.002l-.071.035l-.02.004l-.014-.004l-.071-.036c-.01-.003-.019 0-.024.006l-.004.01l-.017.428l.005.02l.01.013l.104.074l.015.004l.012-.004l.104-.074l.012-.016l.004-.017l-.017-.427c-.002-.01-.009-.017-.016-.018m.264-.113l-.014.002l-.184.093l-.01.01l-.003.011l.018.43l.005.012l.008.008l.201.092c.012.004.023 0 .029-.008l.004-.014l-.034-.614c-.003-.012-.01-.02-.02-.022m-.715.002a.023.023 0 0 0-.027.006l-.006.014l-.034.614c0 .012.007.02.017.024l.015-.002l.201-.093l.01-.008l.003-.011l.018-.43l-.003-.012l-.01-.01z"/><path fill="currentColor" d="M5 7.5a4.5 4.5 0 1 1 9 0a4.5 4.5 0 0 1-9 0M9.5 5a2.5 2.5 0 1 0 0 5a2.5 2.5 0 0 0 0-5m0 8c1.993 0 3.805.608 5.137 1.466c.667.43 1.238.937 1.653 1.49c.407.545.71 1.2.71 1.901c0 .755-.35 1.36-.864 1.797c-.485.41-1.117.676-1.77.859c-1.313.367-3.05.487-4.866.487c-1.816 0-3.553-.12-4.865-.487c-.654-.183-1.286-.449-1.77-.859C2.349 19.218 2 18.612 2 17.857c0-.702.303-1.356.71-1.9c.415-.554.986-1.062 1.653-1.49C5.695 13.607 7.507 13 9.5 13m0 2c-1.597 0-3.035.492-4.055 1.148c-.51.328-.89.682-1.134 1.007c-.25.334-.311.576-.311.702c0 .074.015.15.157.27c.173.148.494.314 1.016.46c1.04.29 2.553.413 4.327.413s3.287-.123 4.327-.413c.522-.146.843-.312 1.016-.46c.142-.12.157-.196.157-.27c0-.126-.061-.368-.311-.702c-.244-.325-.624-.679-1.134-1.007C12.535 15.492 11.097 15 9.5 15m8.5-2c1.32 0 2.518.436 3.4 1.051c.822.573 1.6 1.477 1.6 2.52c0 .587-.253 1.073-.638 1.426c-.357.328-.809.528-1.244.66c-.87.263-1.99.343-3.118.343h-.203c.13-.348.203-.73.203-1.143c0-.224-.022-.44-.06-.65L17.893 17H18c1.081 0 1.96-.082 2.539-.257c.262-.08.397-.16.455-.206c-.029-.118-.185-.46-.738-.845a4.009 4.009 0 0 0-3.331-.546a7.508 7.508 0 0 0-1.684-1.48A6.064 6.064 0 0 1 18 13m-3-4a3 3 0 1 1 6 0a3 3 0 0 1-6 0m3-1a1 1 0 1 0 0 2a1 1 0 0 0 0-2"/></g></svg>