<svg xmlns="http://www.w3.org/2000/svg" width="1em" height="1em" viewBox="0 0 24 24"><g fill="none"><path d="M24 0v24H0V0zM12.594 23.258l-.012.002l-.071.035l-.02.004l-.014-.004l-.071-.036c-.01-.003-.019 0-.024.006l-.004.01l-.017.428l.005.02l.01.013l.104.074l.015.004l.012-.004l.104-.074l.012-.016l.004-.017l-.017-.427c-.002-.01-.009-.017-.016-.018m.264-.113l-.014.002l-.184.093l-.01.01l-.003.011l.018.43l.005.012l.008.008l.201.092c.012.004.023 0 .029-.008l.004-.014l-.034-.614c-.003-.012-.01-.02-.02-.022m-.715.002a.023.023 0 0 0-.027.006l-.006.014l-.034.614c0 .012.007.02.017.024l.015-.002l.201-.093l.01-.008l.003-.011l.018-.43l-.003-.012l-.01-.01z"/><path fill="currentColor" d="M12 12c1.873 0 3.57.62 4.815 1.487c1.183.825 2.185 2.051 2.185 3.37c0 .724-.309 1.324-.796 1.77c-.458.421-1.056.694-1.672.88C15.301 19.88 13.68 20 12 20c-1.68 0-3.301-.12-4.532-.493c-.616-.186-1.214-.459-1.673-.88C5.31 18.182 5 17.582 5 16.858c0-1.319 1.002-2.545 2.185-3.37C8.43 12.62 10.127 12 12 12m7 1c1.044 0 1.992.345 2.693.833c.64.447 1.307 1.19 1.307 2.096c0 .517-.225.946-.56 1.253c-.306.281-.684.446-1.029.55c-.47.142-1.025.215-1.601.247c.122-.345.19-.72.19-1.122c0-1.535-.959-2.839-2.032-3.744A4.78 4.78 0 0 1 19 13M5 13c.357 0 .703.04 1.032.113C4.96 14.018 4 15.322 4 16.857c0 .402.068.777.19 1.122c-.576-.032-1.13-.105-1.601-.247c-.345-.104-.723-.269-1.03-.55A1.677 1.677 0 0 1 1 15.93c0-.905.666-1.649 1.307-2.096A4.756 4.756 0 0 1 5 13m13.5-6a2.5 2.5 0 1 1 0 5a2.5 2.5 0 0 1 0-5m-13 0a2.5 2.5 0 1 1 0 5a2.5 2.5 0 0 1 0-5M12 3a4 4 0 1 1 0 8a4 4 0 0 1 0-8"/></g></svg>