<svg xmlns="http://www.w3.org/2000/svg" width="1em" height="1em" viewBox="0 0 24 24"><g fill="none"><path d="M24 0v24H0V0zM12.594 23.258l-.012.002l-.071.035l-.02.004l-.014-.004l-.071-.036c-.01-.003-.019 0-.024.006l-.004.01l-.017.428l.005.02l.01.013l.104.074l.015.004l.012-.004l.104-.074l.012-.016l.004-.017l-.017-.427c-.002-.01-.009-.017-.016-.018m.264-.113l-.014.002l-.184.093l-.01.01l-.003.011l.018.43l.005.012l.008.008l.201.092c.012.004.023 0 .029-.008l.004-.014l-.034-.614c-.003-.012-.01-.02-.02-.022m-.715.002a.023.023 0 0 0-.027.006l-.006.014l-.034.614c0 .012.007.02.017.024l.015-.002l.201-.093l.01-.008l.003-.011l.018-.43l-.003-.012l-.01-.01z"/><path fill="currentColor" d="m17.956 2.169l.111.055l.866.5a1 1 0 0 1 .488 1.02l-.026.12l-.567 1.983a1 1 0 0 1-1.344.649l-.118-.058l-1.534 2.656c.92.721 1.369 1.493 1.674 2.213c.223.523.414 1.205.306 1.939c-.105.712-.477 1.362-1.14 1.888l-.189.14c-.433.305-.44.657-.328 1.097l.105.383c.183.688.401 1.764.072 3.01c-.276 1.043-.943 1.865-1.7 2.411c-.745.538-1.666.871-2.538.826c-1.36-.07-2.749-.41-4.594-1.475c-1.845-1.065-2.834-2.098-3.574-3.24c-.475-.733-.647-1.698-.554-2.612c.094-.928.473-1.917 1.238-2.677c.784-.779 1.66-1.147 2.328-1.352l.315-.091l.272-.07c.524-.134.799-.233.88-.73l.017-.134c.085-.951.478-1.677 1.093-2.165c.58-.46 1.268-.635 1.832-.704c.712-.087 1.521-.092 2.486.243l.267.1l1.534-2.656a1 1 0 0 1-.303-1.461l.084-.1l1.433-1.482a1 1 0 0 1 1.108-.226M11.59 9.736c-.38.047-.656.147-.833.287c-.126.1-.266.269-.325.63l-.017.144c-.065.732-.296 1.336-.734 1.791c-.416.432-.957.638-1.516.796l-.569.156c-.536.155-1.061.363-1.576.875c-.381.379-.602.908-.659 1.462c-.057.568.068 1.051.243 1.32c.558.862 1.308 1.68 2.896 2.597c1.588.917 2.672 1.157 3.697 1.21c.32.016.802-.117 1.265-.45c.452-.326.799-.782.936-1.301c.186-.702.104-1.261-.03-1.803l-.094-.36c-.17-.631-.31-1.274-.124-1.921c.155-.54.495-.997.991-1.388l.194-.144c.38-.266.472-.504.499-.683c.033-.223-.018-.512-.168-.865c-.234-.55-.557-1.117-1.432-1.679l-.197-.12l-.074-.043c-1.034-.588-1.737-.589-2.373-.511m-1.523 6.344l.866.5a1 1 0 1 1-1 1.732l-.866-.5a1 1 0 1 1 1-1.732m2.683-3.647a1.5 1.5 0 0 1 .615 1.92l-.066.129a1.5 1.5 0 0 1-2.67-1.363l.072-.137a1.5 1.5 0 0 1 2.05-.55Z"/></g></svg>