<svg xmlns="http://www.w3.org/2000/svg" width="1em" height="1em" viewBox="0 0 24 24"><g fill="none"><path d="M24 0v24H0V0zM12.594 23.258l-.012.002l-.071.035l-.02.004l-.014-.004l-.071-.036c-.01-.003-.019 0-.024.006l-.004.01l-.017.428l.005.02l.01.013l.104.074l.015.004l.012-.004l.104-.074l.012-.016l.004-.017l-.017-.427c-.002-.01-.009-.017-.016-.018m.264-.113l-.014.002l-.184.093l-.01.01l-.003.011l.018.43l.005.012l.008.008l.201.092c.012.004.023 0 .029-.008l.004-.014l-.034-.614c-.003-.012-.01-.02-.02-.022m-.715.002a.023.023 0 0 0-.027.006l-.006.014l-.034.614c0 .012.007.02.017.024l.015-.002l.201-.093l.01-.008l.003-.011l.018-.43l-.003-.012l-.01-.01z"/><path fill="currentColor" d="M7.032 14.136a1 1 0 0 1 .707 1.225l-1.553 5.796a1 1 0 0 1-1.932-.518l1.553-5.795a1 1 0 0 1 1.225-.708m10.5 0a1 1 0 0 1 .707 1.225l-1.553 5.796a1 1 0 1 1-1.932-.518l1.553-5.795a1 1 0 0 1 1.225-.708m-7 0a1 1 0 0 1 .707 1.225l-1.553 5.796a1 1 0 0 1-1.932-.518l1.553-5.795a1 1 0 0 1 1.225-.707Zm2.275.708a1 1 0 0 1 1.956.403l-.024.114l-1.553 5.796a1 1 0 0 1-1.955-.404l.023-.114zM11.5 2a6.502 6.502 0 0 1 6.086 4.212a6.002 6.002 0 0 1 2.43 10.246l.155-.58a3 3 0 0 0-4.647-3.213a2.994 2.994 0 0 0-3.5 0a2.994 2.994 0 0 0-3.5 0a3 3 0 0 0-4.648 1.66l-.553 2.063A5 5 0 0 1 5 8.416A6.5 6.5 0 0 1 11.5 2"/></g></svg>