<svg xmlns="http://www.w3.org/2000/svg" width="1em" height="1em" viewBox="0 0 24 24"><g fill="none" fill-rule="evenodd"><path d="M24 0v24H0V0zM12.594 23.258l-.012.002l-.071.035l-.02.004l-.014-.004l-.071-.036c-.01-.003-.019 0-.024.006l-.004.01l-.017.428l.005.02l.01.013l.104.074l.015.004l.012-.004l.104-.074l.012-.016l.004-.017l-.017-.427c-.002-.01-.009-.017-.016-.018m.264-.113l-.014.002l-.184.093l-.01.01l-.003.011l.018.43l.005.012l.008.008l.201.092c.012.004.023 0 .029-.008l.004-.014l-.034-.614c-.003-.012-.01-.02-.02-.022m-.715.002a.023.023 0 0 0-.027.006l-.006.014l-.034.614c0 .012.007.02.017.024l.015-.002l.201-.093l.01-.008l.003-.011l.018-.43l-.003-.012l-.01-.01z"/><path fill="currentColor" d="M15 3c.236 0 .454.082.627.22l4.998 4A1 1 0 0 1 20 9h-3.276l.253 1.77l2.972 8.914a1 1 0 1 1-1.898.632l-.626-1.878L12 14.305l-5.425 4.133l-.626 1.878a1 1 0 0 1-1.898-.632l2.972-8.915L7.276 9H4a1 1 0 0 1-.625-1.78l4.999-4A.998.998 0 0 1 9 3zm-6.228 8.846l-1.074 3.222l2.652-2.02zm6.456 0l-1.578 1.202l2.652 2.02zM14.704 9H9.296l-.094.658L12 11.79l2.798-2.132zm-.571-4H9.867l-.285 2h4.836zm-6.48 1.358L6.851 7h.71zm8.694 0L16.44 7h.71z"/></g></svg>