<svg xmlns="http://www.w3.org/2000/svg" width="1em" height="1em" viewBox="0 0 24 24"><g fill="none" fill-rule="evenodd"><path d="M24 0v24H0V0zM12.594 23.258l-.012.002l-.071.035l-.02.004l-.014-.004l-.071-.036c-.01-.003-.019 0-.024.006l-.004.01l-.017.428l.005.02l.01.013l.104.074l.015.004l.012-.004l.104-.074l.012-.016l.004-.017l-.017-.427c-.002-.01-.009-.017-.016-.018m.264-.113l-.014.002l-.184.093l-.01.01l-.003.011l.018.43l.005.012l.008.008l.201.092c.012.004.023 0 .029-.008l.004-.014l-.034-.614c-.003-.012-.01-.02-.02-.022m-.715.002a.023.023 0 0 0-.027.006l-.006.014l-.034.614c0 .012.007.02.017.024l.015-.002l.201-.093l.01-.008l.003-.011l.018-.43l-.003-.012l-.01-.01z"/><path fill="currentColor" d="M14.5 3a6.5 6.5 0 0 1 6.496 6.267L21 9.5v6a6.5 6.5 0 0 1-6.267 6.496L14.5 22h-5a6.5 6.5 0 0 1-6.496-6.267L3 15.5v-6a6.5 6.5 0 0 1 6.267-6.496L9.5 3zm3.931 4.308c-.092.095-.188.18-.284.256c-.428.338-.987.599-1.588.799C15.346 8.767 13.734 9 12 9s-3.346-.233-4.559-.637c-.601-.2-1.16-.461-1.588-.8a2.813 2.813 0 0 1-.284-.255a4.474 4.474 0 0 0-.561 1.929L5 9.5v6a4.5 4.5 0 0 0 4.288 4.495L9.5 20h5a4.5 4.5 0 0 0 4.495-4.288L19 15.5v-6a4.48 4.48 0 0 0-.569-2.192M12 5c-1.58 0-2.968.215-3.926.534c-.477.16-.795.327-.975.466c.18.14.498.307.975.466C9.032 6.786 10.42 7 12 7s2.967-.215 3.926-.534c.477-.16.795-.327.975-.466c-.18-.14-.498-.307-.975-.466C14.967 5.214 13.58 5 12 5"/></g></svg>