<svg xmlns="http://www.w3.org/2000/svg" width="1em" height="1em" viewBox="0 0 24 24"><g fill="none" fill-rule="evenodd"><path d="M24 0v24H0V0zM12.594 23.258l-.012.002l-.071.035l-.02.004l-.014-.004l-.071-.036c-.01-.003-.019 0-.024.006l-.004.01l-.017.428l.005.02l.01.013l.104.074l.015.004l.012-.004l.104-.074l.012-.016l.004-.017l-.017-.427c-.002-.01-.009-.017-.016-.018m.264-.113l-.014.002l-.184.093l-.01.01l-.003.011l.018.43l.005.012l.008.008l.201.092c.012.004.023 0 .029-.008l.004-.014l-.034-.614c-.003-.012-.01-.02-.02-.022m-.715.002a.023.023 0 0 0-.027.006l-.006.014l-.034.614c0 .012.007.02.017.024l.015-.002l.201-.093l.01-.008l.003-.011l.018-.43l-.003-.012l-.01-.01z"/><path fill="currentColor" d="M20.255 5.52c-.331-1.087-1.464-1.504-2.394-1.194L7 7.946L5.632 7.49A2 2 0 0 0 3 9.388v4.225a2 2 0 0 0 2.632 1.897L7 15.054l.778.26l-.269.627a2 2 0 0 0 1.206 2.685l5.096 1.698a2 2 0 0 0 2.47-1.109l.4-.933l1.18.393c.93.31 2.063-.108 2.394-1.195c.325-1.064.745-3.015.745-5.98c0-2.965-.42-4.916-.745-5.98m-5.477 12.127l-5.096-1.699l-.335.78l5.096 1.7z"/></g></svg>