<svg xmlns="http://www.w3.org/2000/svg" width="1em" height="1em" viewBox="0 0 24 24"><g fill="none" fill-rule="evenodd"><path d="M24 0v24H0V0zM12.593 23.258l-.011.002l-.071.035l-.02.004l-.014-.004l-.071-.035c-.01-.004-.019-.001-.024.005l-.004.01l-.017.428l.005.02l.01.013l.104.074l.015.004l.012-.004l.104-.074l.012-.016l.004-.017l-.017-.427c-.002-.01-.009-.017-.017-.018m.265-.113l-.013.002l-.185.093l-.01.01l-.003.011l.018.43l.005.012l.008.007l.201.093c.012.004.023 0 .029-.008l.004-.014l-.034-.614c-.003-.012-.01-.02-.02-.022m-.715.002a.023.023 0 0 0-.027.006l-.006.014l-.034.614c0 .012.007.02.017.024l.015-.002l.201-.093l.01-.008l.004-.011l.017-.43l-.003-.012l-.01-.01z"/><path fill="currentColor" d="M20 4a2 2 0 0 1 2 2v12a2 2 0 0 1-2 2H4a2 2 0 0 1-2-2V6a2 2 0 0 1 2-2zM9.5 12h-2a2.5 2.5 0 0 0-2.495 2.336L5 14.5v.5a1 1 0 0 0 1.993.117L7 15v-.5a.5.5 0 0 1 .41-.492L7.5 14h2a.5.5 0 0 1 .492.41l.008.09v.5a1 1 0 0 0 1.993.117L12 15v-.5a2.5 2.5 0 0 0-2.336-2.495zm8.5 1h-4l-.117.007a1 1 0 0 0 0 1.986L14 15h4l.117-.007a1 1 0 0 0 0-1.986zm-2-3h-2a1 1 0 0 0-.117 1.993L14 12h2a1 1 0 0 0 .117-1.993zM8.5 8a1.75 1.75 0 1 0 0 3.5a1.75 1.75 0 0 0 0-3.5"/></g></svg>