<svg xmlns="http://www.w3.org/2000/svg" width="1em" height="1em" viewBox="0 0 24 24"><g fill="none" fill-rule="evenodd"><path d="M24 0v24H0V0zM12.593 23.258l-.011.002l-.071.035l-.02.004l-.014-.004l-.071-.035c-.01-.004-.019-.001-.024.005l-.004.01l-.017.428l.005.02l.01.013l.104.074l.015.004l.012-.004l.104-.074l.012-.016l.004-.017l-.017-.427c-.002-.01-.009-.017-.017-.018m.265-.113l-.013.002l-.185.093l-.01.01l-.003.011l.018.43l.005.012l.008.007l.201.093c.012.004.023 0 .029-.008l.004-.014l-.034-.614c-.003-.012-.01-.02-.02-.022m-.715.002a.023.023 0 0 0-.027.006l-.006.014l-.034.614c0 .012.007.02.017.024l.015-.002l.201-.093l.01-.008l.004-.011l.017-.43l-.003-.012l-.01-.01z"/><path fill="currentColor" d="M8 9v12a1 1 0 1 0 0 2h8a1 1 0 1 0 0-2V9c0-2.205-.687-4.12-1.436-5.482a9.25 9.25 0 0 0-1.136-1.65C13.062 1.455 12.588 1 12 1c-.592 0-1.061.454-1.428.868a9.25 9.25 0 0 0-1.136 1.65C8.687 4.88 8 6.795 8 9m2.019-.567A8.687 8.687 0 0 0 10 9v4.586L12.586 11zm.471-2.357L14 9.586V9c0-1.795-.563-3.38-1.189-4.518A7.537 7.537 0 0 0 12 3.274c-.238.281-.527.69-.811 1.208c-.255.463-.499 1-.699 1.594M14 12.414L11.414 15L14 17.586zm0 7.952a1 1 0 0 1-.207-.159L10 16.414V21h4z"/></g></svg>