<svg xmlns="http://www.w3.org/2000/svg" width="1em" height="1em" viewBox="0 0 24 24"><g fill="none"><path d="M24 0v24H0V0zM12.594 23.258l-.012.002l-.071.035l-.02.004l-.014-.004l-.071-.036c-.01-.003-.019 0-.024.006l-.004.01l-.017.428l.005.02l.01.013l.104.074l.015.004l.012-.004l.104-.074l.012-.016l.004-.017l-.017-.427c-.002-.01-.009-.017-.016-.018m.264-.113l-.014.002l-.184.093l-.01.01l-.003.011l.018.43l.005.012l.008.008l.201.092c.012.004.023 0 .029-.008l.004-.014l-.034-.614c-.003-.012-.01-.02-.02-.022m-.715.002a.023.023 0 0 0-.027.006l-.006.014l-.034.614c0 .012.007.02.017.024l.015-.002l.201-.093l.01-.008l.003-.011l.018-.43l-.003-.012l-.01-.01z"/><path fill="currentColor" d="m10.137 6.74l.168 2.188l.25-.166A1 1 0 0 0 11 7.93V4a1 1 0 1 1 2 0v3.93a1 1 0 0 0 .445.832l.25.166l.168-2.188c.121-1.574 1.932-2.394 3.194-1.447l.585.438a7 7 0 0 1 2.718 4.536l1.08 7.019c.358 2.327-1.982 4.141-4.147 3.214l-1.055-.453a5 5 0 0 1-3.015-4.979l.296-3.853l-1.183-.79a3.017 3.017 0 0 1-.336-.26a2.737 2.737 0 0 1-.336.26l-1.183.79l.296 3.853a5 5 0 0 1-3.015 4.98l-1.056.452c-2.164.927-4.505-.887-4.147-3.214l1.08-7.019a7 7 0 0 1 2.719-4.536l.584-.438c1.263-.947 3.074-.127 3.195 1.447"/></g></svg>