<svg xmlns="http://www.w3.org/2000/svg" width="1em" height="1em" viewBox="0 0 24 24"><g fill="none" fill-rule="evenodd"><path d="M24 0v24H0V0zM12.594 23.258l-.012.002l-.071.035l-.02.004l-.014-.004l-.071-.036c-.01-.003-.019 0-.024.006l-.004.01l-.017.428l.005.02l.01.013l.104.074l.015.004l.012-.004l.104-.074l.012-.016l.004-.017l-.017-.427c-.002-.01-.009-.017-.016-.018m.264-.113l-.014.002l-.184.093l-.01.01l-.003.011l.018.43l.005.012l.008.008l.201.092c.012.004.023 0 .029-.008l.004-.014l-.034-.614c-.003-.012-.01-.02-.02-.022m-.715.002a.023.023 0 0 0-.027.006l-.006.014l-.034.614c0 .012.007.02.017.024l.015-.002l.201-.093l.01-.008l.003-.011l.018-.43l-.003-.012l-.01-.01z"/><path fill="currentColor" d="M5 6a3 3 0 0 1 5.995-.176L11 6.01c0 .408-.039.799-.107 1.171c-.264 1.433-.964 2.58-1.57 3.352c-.307.39-.598.694-.815.904c-.124.12-.25.238-.385.345a1 1 0 0 1-1.34-1.479L7.118 10l.224-.228A7.153 7.153 0 0 0 7.971 9A3 3 0 0 1 5 6m3-1a1 1 0 1 0 0 2a1 1 0 0 0 0-2m10 0a1 1 0 1 0-2 0v12.414l-1.121-1.121a1 1 0 0 0-1.415 1.414l2.829 2.828a1 1 0 0 0 1.414 0l2.828-2.828a1 1 0 1 0-1.414-1.414L18 17.413zM8 13a3 3 0 0 0-3 3v2a3 3 0 1 0 6 0v-2a3 3 0 0 0-3-3m-1 3a1 1 0 1 1 2 0v2a1 1 0 1 1-2 0z"/></g></svg>