<svg xmlns="http://www.w3.org/2000/svg" width="1em" height="1em" viewBox="0 0 24 24"><g fill="none" fill-rule="evenodd"><path d="M24 0v24H0V0zM12.594 23.258l-.012.002l-.071.035l-.02.004l-.014-.004l-.071-.036c-.01-.003-.019 0-.024.006l-.004.01l-.017.428l.005.02l.01.013l.104.074l.015.004l.012-.004l.104-.074l.012-.016l.004-.017l-.017-.427c-.002-.01-.009-.017-.016-.018m.264-.113l-.014.002l-.184.093l-.01.01l-.003.011l.018.43l.005.012l.008.008l.201.092c.012.004.023 0 .029-.008l.004-.014l-.034-.614c-.003-.012-.01-.02-.02-.022m-.715.002a.023.023 0 0 0-.027.006l-.006.014l-.034.614c0 .012.007.02.017.024l.015-.002l.201-.093l.01-.008l.003-.011l.018-.43l-.003-.012l-.01-.01z"/><path fill="currentColor" d="M12.267 3.452c-.23-.187-.5-.325-.798-.397a1.993 1.993 0 0 0-.89-.055h-5.58a2 2 0 0 0-2 2v10.903a5.025 5.025 0 0 0 .671 2.6a4.969 4.969 0 0 0 1.82 1.822a4.97 4.97 0 0 0 2.5.676a4.97 4.97 0 0 0 2.591-.718l9.445-5.453a2 2 0 0 0 .732-2.732l-2.79-4.831a1.991 1.991 0 0 0-.87-1.025zM13 13.34V6.185l3.098 1.789zm6.026-.242l-5.366 3.098L17.238 10zM9.5 16a1.5 1.5 0 1 1-3 0a1.5 1.5 0 0 1 3 0"/></g></svg>