<svg xmlns="http://www.w3.org/2000/svg" width="1em" height="1em" viewBox="0 0 24 24"><g fill="none" fill-rule="evenodd"><path d="M24 0v24H0V0zM12.594 23.258l-.012.002l-.071.035l-.02.004l-.014-.004l-.071-.036c-.01-.003-.019 0-.024.006l-.004.01l-.017.428l.005.02l.01.013l.104.074l.015.004l.012-.004l.104-.074l.012-.016l.004-.017l-.017-.427c-.002-.01-.009-.017-.016-.018m.264-.113l-.014.002l-.184.093l-.01.01l-.003.011l.018.43l.005.012l.008.008l.201.092c.012.004.023 0 .029-.008l.004-.014l-.034-.614c-.003-.012-.01-.02-.02-.022m-.715.002a.023.023 0 0 0-.027.006l-.006.014l-.034.614c0 .012.007.02.017.024l.015-.002l.201-.093l.01-.008l.003-.011l.018-.43l-.003-.012l-.01-.01z"/><path fill="currentColor" d="M12 6a6 6 0 0 0-5.996 6.212a3.75 3.75 0 0 1 4.661 1.986a3.5 3.5 0 0 1 2.31 3.723A6.002 6.002 0 0 0 12 6m-.05 14a3.49 3.49 0 0 1-2.45 1H5a3 3 0 0 1-1.483-5.608a3.74 3.74 0 0 1 .647-1.773a8 8 0 0 1 12.103-8.387a2.526 2.526 0 0 1 4.313.204a2.388 2.388 0 0 1-.831 4.57A8 8 0 0 1 12 20l-.05-.001Zm6.985-11.991h.676a.389.389 0 0 0 .064-.773a1 1 0 0 1-.804-.726a.528.528 0 0 0-1.026.028c.416.445.783.939 1.09 1.471M7.25 14c-.501 0-.952.21-1.273.549a1.74 1.74 0 0 0-.466 1.399a1 1 0 0 1-.753 1.081A1 1 0 0 0 5 19h4.5a1.497 1.497 0 0 0 1.5-1.5a1.5 1.5 0 0 0-1.255-1.48a1 1 0 0 1-.805-.727A1.751 1.751 0 0 0 7.25 14"/></g></svg>