<svg xmlns="http://www.w3.org/2000/svg" width="1em" height="1em" viewBox="0 0 24 24"><g fill="none"><path d="M24 0v24H0V0zM12.594 23.258l-.012.002l-.071.035l-.02.004l-.014-.004l-.071-.036c-.01-.003-.019 0-.024.006l-.004.01l-.017.428l.005.02l.01.013l.104.074l.015.004l.012-.004l.104-.074l.012-.016l.004-.017l-.017-.427c-.002-.01-.009-.017-.016-.018m.264-.113l-.014.002l-.184.093l-.01.01l-.003.011l.018.43l.005.012l.008.008l.201.092c.012.004.023 0 .029-.008l.004-.014l-.034-.614c-.003-.012-.01-.02-.02-.022m-.715.002a.023.023 0 0 0-.027.006l-.006.014l-.034.614c0 .012.007.02.017.024l.015-.002l.201-.093l.01-.008l.003-.011l.018-.43l-.003-.012l-.01-.01z"/><path fill="currentColor" d="M18.293 17.293a1 1 0 0 1 1.497 1.32l-.083.094l-1.5 1.5a3.121 3.121 0 0 1-4.414 0a1.122 1.122 0 0 0-1.488-.087l-.098.087l-.5.5a1 1 0 0 1-1.497-1.32l.083-.094l.5-.5a3.121 3.121 0 0 1 4.414 0a1.122 1.122 0 0 0 1.488.087l.098-.087zm-1.81-13.31A2.5 2.5 0 0 1 20.14 7.39l-.122.13L8.442 19.095a1.501 1.501 0 0 1-.505.333l-.145.049l-2.837.807a1.001 1.001 0 0 1-1.262-1.13l.025-.107l.807-2.838a1.5 1.5 0 0 1 .28-.536l.102-.114z"/></g></svg>