<svg xmlns="http://www.w3.org/2000/svg" width="1em" height="1em" viewBox="0 0 24 24"><g fill="none" fill-rule="evenodd"><path d="M24 0v24H0V0zM12.594 23.258l-.012.002l-.071.035l-.02.004l-.014-.004l-.071-.036c-.01-.003-.019 0-.024.006l-.004.01l-.017.428l.005.02l.01.013l.104.074l.015.004l.012-.004l.104-.074l.012-.016l.004-.017l-.017-.427c-.002-.01-.009-.017-.016-.018m.264-.113l-.014.002l-.184.093l-.01.01l-.003.011l.018.43l.005.012l.008.008l.201.092c.012.004.023 0 .029-.008l.004-.014l-.034-.614c-.003-.012-.01-.02-.02-.022m-.715.002a.023.023 0 0 0-.027.006l-.006.014l-.034.614c0 .012.007.02.017.024l.015-.002l.201-.093l.01-.008l.003-.011l.018-.43l-.003-.012l-.01-.01z"/><path fill="currentColor" d="M8.843 4.687A2.099 2.099 0 0 1 12 3.31a2.099 2.099 0 0 1 3.157 1.377l1.451 7.255a2 2 0 0 0 1.476 1.548l1.696.424a1.5 1.5 0 0 1 1.107 1.75l-.694 3.469a2 2 0 0 1-2.51 1.53l-3.057-.873A4.993 4.993 0 0 1 12 17.983a4.994 4.994 0 0 1-2.626 1.807l-3.057.874a2 2 0 0 1-2.51-1.531l-.694-3.47a1.5 1.5 0 0 1 1.107-1.749l1.696-.424a2 2 0 0 0 1.476-1.548zm-2.65 10.795l-1.025.257l.6 3.002l1.081-.31zm11.613 0l-.655 2.95l1.081.309l.6-3.002z"/></g></svg>