<svg xmlns="http://www.w3.org/2000/svg" width="1em" height="1em" viewBox="0 0 24 24"><g fill="none"><path d="M24 0v24H0V0zM12.594 23.258l-.012.002l-.071.035l-.02.004l-.014-.004l-.071-.036c-.01-.003-.019 0-.024.006l-.004.01l-.017.428l.005.02l.01.013l.104.074l.015.004l.012-.004l.104-.074l.012-.016l.004-.017l-.017-.427c-.002-.01-.009-.017-.016-.018m.264-.113l-.014.002l-.184.093l-.01.01l-.003.011l.018.43l.005.012l.008.008l.201.092c.012.004.023 0 .029-.008l.004-.014l-.034-.614c-.003-.012-.01-.02-.02-.022m-.715.002a.023.023 0 0 0-.027.006l-.006.014l-.034.614c0 .012.007.02.017.024l.015-.002l.201-.093l.01-.008l.003-.011l.018-.43l-.003-.012l-.01-.01z"/><path fill="currentColor" d="M5 4a2 2 0 0 1 2-2h10a2 2 0 0 1 2 2v1c0 1.441-.609 2.984-1.4 4.316A14.3 14.3 0 0 1 15.533 12a14.3 14.3 0 0 1 2.065 2.684C18.391 16.016 19 17.56 19 19v1a2 2 0 0 1-2 2H7a2 2 0 0 1-2-2v-1c0-1.441.609-2.984 1.4-4.316A14.298 14.298 0 0 1 8.467 12c-.756-.767-1.48-1.7-2.065-2.684C5.609 7.984 5 6.44 5 5z"/></g></svg>