<svg xmlns="http://www.w3.org/2000/svg" width="1em" height="1em" viewBox="0 0 24 24"><g fill="none" fill-rule="evenodd"><path d="M24 0v24H0V0zM12.594 23.258l-.012.002l-.071.035l-.02.004l-.014-.004l-.071-.036c-.01-.003-.019 0-.024.006l-.004.01l-.017.428l.005.02l.01.013l.104.074l.015.004l.012-.004l.104-.074l.012-.016l.004-.017l-.017-.427c-.002-.01-.009-.017-.016-.018m.264-.113l-.014.002l-.184.093l-.01.01l-.003.011l.018.43l.005.012l.008.008l.201.092c.012.004.023 0 .029-.008l.004-.014l-.034-.614c-.003-.012-.01-.02-.02-.022m-.715.002a.023.023 0 0 0-.027.006l-.006.014l-.034.614c0 .012.007.02.017.024l.015-.002l.201-.093l.01-.008l.003-.011l.018-.43l-.003-.012l-.01-.01z"/><path fill="currentColor" d="M17.52 4a2 2 0 0 1 1.442.614l.12.137l3.05 3.812c.757.947.134 2.334-1.04 2.432L20.96 11H20v8a1 1 0 0 1-1.993.117L18 19v-8h-2v7a2 2 0 0 1-1.85 1.995L14 20H6a2 2 0 0 1-1.994-1.85L4 18v-7h-.96c-1.212 0-1.906-1.353-1.25-2.33l.08-.107l3.049-3.812a2 2 0 0 1 1.38-.743L6.482 4zM7 11H6v7h8v-7h-1v4a1 1 0 0 1-1 1H8a1 1 0 0 1-1-1zm4 0H9v3h2zm6.52-5H6.48l-2.4 3h15.84z"/></g></svg>