<svg xmlns="http://www.w3.org/2000/svg" width="1em" height="1em" viewBox="0 0 24 24"><g fill="none"><path d="M24 0v24H0V0zM12.594 23.258l-.012.002l-.071.035l-.02.004l-.014-.004l-.071-.036c-.01-.003-.019 0-.024.006l-.004.01l-.017.428l.005.02l.01.013l.104.074l.015.004l.012-.004l.104-.074l.012-.016l.004-.017l-.017-.427c-.002-.01-.009-.017-.016-.018m.264-.113l-.014.002l-.184.093l-.01.01l-.003.011l.018.43l.005.012l.008.008l.201.092c.012.004.023 0 .029-.008l.004-.014l-.034-.614c-.003-.012-.01-.02-.02-.022m-.715.002a.023.023 0 0 0-.027.006l-.006.014l-.034.614c0 .012.007.02.017.024l.015-.002l.201-.093l.01-.008l.003-.011l.018-.43l-.003-.012l-.01-.01z"/><path fill="currentColor" d="M13 3a1 1 0 1 0-2 0v3.586L8.707 4.293a1 1 0 0 0-1.414 1.414L11 9.414V11H9.414L5.707 7.293a1 1 0 0 0-1.414 1.414L6.586 11H3a1 1 0 1 0 0 2h3.586l-2.293 2.293a1 1 0 1 0 1.414 1.414L9.414 13H11v1.586l-3.707 3.707a1 1 0 1 0 1.414 1.414L11 17.414V21a1 1 0 1 0 2 0v-3.586l2.293 2.293a1 1 0 0 0 1.414-1.414L13 14.586V13h1.586l3.707 3.707a1 1 0 0 0 1.414-1.414L17.414 13H21a1 1 0 1 0 0-2h-3.586l2.293-2.293a1 1 0 0 0-1.414-1.414L14.586 11H13V9.414l3.707-3.707a1 1 0 0 0-1.414-1.414L13 6.586z"/></g></svg>