<svg xmlns="http://www.w3.org/2000/svg" width="1em" height="1em" viewBox="0 0 24 24"><g fill="none"><path d="M24 0v24H0V0zM12.594 23.258l-.012.002l-.071.035l-.02.004l-.014-.004l-.071-.036c-.01-.003-.019 0-.024.006l-.004.01l-.017.428l.005.02l.01.013l.104.074l.015.004l.012-.004l.104-.074l.012-.016l.004-.017l-.017-.427c-.002-.01-.009-.017-.016-.018m.264-.113l-.014.002l-.184.093l-.01.01l-.003.011l.018.43l.005.012l.008.008l.201.092c.012.004.023 0 .029-.008l.004-.014l-.034-.614c-.003-.012-.01-.02-.02-.022m-.715.002a.023.023 0 0 0-.027.006l-.006.014l-.034.614c0 .012.007.02.017.024l.015-.002l.201-.093l.01-.008l.003-.011l.018-.43l-.003-.012l-.01-.01z"/><path fill="currentColor" d="M10.105 4h3.79l.5 5h-4.79zm-.7 7h5.19l.5 5H13v2h2a1 1 0 1 1 0 2H9a1 1 0 1 1 0-2h2v-2H8.905zm7.2 0l.5 5h3.285a1.5 1.5 0 0 0 1.471-1.794L21.22 11zm-.7-7l.5 5h4.415l-.679-3.392A2 2 0 0 0 18.181 4zm-7.81 0H5.82a2 2 0 0 0-1.961 1.608L3.18 9h4.415zm-.7 7H2.78l-.641 3.206A1.5 1.5 0 0 0 3.609 16h3.286z"/></g></svg>