<svg xmlns="http://www.w3.org/2000/svg" width="1em" height="1em" viewBox="0 0 24 24"><g fill="none"><path d="M24 0v24H0V0zM12.594 23.258l-.012.002l-.071.035l-.02.004l-.014-.004l-.071-.036c-.01-.003-.019 0-.024.006l-.004.01l-.017.428l.005.02l.01.013l.104.074l.015.004l.012-.004l.104-.074l.012-.016l.004-.017l-.017-.427c-.002-.01-.009-.017-.016-.018m.264-.113l-.014.002l-.184.093l-.01.01l-.003.011l.018.43l.005.012l.008.008l.201.092c.012.004.023 0 .029-.008l.004-.014l-.034-.614c-.003-.012-.01-.02-.02-.022m-.715.002a.023.023 0 0 0-.027.006l-.006.014l-.034.614c0 .012.007.02.017.024l.015-.002l.201-.093l.01-.008l.003-.011l.018-.43l-.003-.012l-.01-.01z"/><path fill="currentColor" d="M12.496 12.632a1 1 0 0 1 .372 1.364L11.723 16h1.105a1.1 1.1 0 0 1 .955 1.646l-1.915 3.35a1 1 0 1 1-1.736-.992L11.277 18h-1.105a1.1 1.1 0 0 1-.955-1.646l1.915-3.35a1 1 0 0 1 1.364-.372M15 18.5a1 1 0 0 1 1.931.517l-.258.966a1 1 0 1 1-1.932-.517zm-9.78 0a1 1 0 0 1 1.932.517l-.26.966a1 1 0 1 1-1.931-.517zm12.04-4.571a1 1 0 0 1 .707 1.225l-.259.966a1 1 0 0 1-1.932-.518l.259-.966a1 1 0 0 1 1.225-.707m-9.78 0a1 1 0 0 1 .707 1.225l-.259.966a1 1 0 1 1-1.932-.518l.259-.966a1 1 0 0 1 1.225-.707M11.5 2a6.502 6.502 0 0 1 6.086 4.212a6.002 6.002 0 0 1 3.214 9.389a1 1 0 0 1-1.6-1.202a4.001 4.001 0 0 0-2.545-6.346a1.01 1.01 0 0 1-.81-.732A4.5 4.5 0 0 0 7.027 9a1.01 1.01 0 0 1-.76 1.09a3.002 3.002 0 0 0-1.97 4.216l.103.193a1 1 0 1 1-1.731 1.002A5 5 0 0 1 5 8.416A6.5 6.5 0 0 1 11.5 2"/></g></svg>