<svg xmlns="http://www.w3.org/2000/svg" width="1em" height="1em" viewBox="0 0 24 24"><g fill="none" fill-rule="evenodd"><path d="m12.594 23.258l-.012.002l-.071.035l-.02.004l-.014-.004l-.071-.036c-.01-.003-.019 0-.024.006l-.004.01l-.017.428l.005.02l.01.013l.104.074l.015.004l.012-.004l.104-.074l.012-.016l.004-.017l-.017-.427c-.002-.01-.009-.017-.016-.018m.264-.113l-.014.002l-.184.093l-.01.01l-.003.011l.018.43l.005.012l.008.008l.201.092c.012.004.023 0 .029-.008l.004-.014l-.034-.614c-.003-.012-.01-.02-.02-.022m-.715.002a.023.023 0 0 0-.027.006l-.006.014l-.034.614c0 .012.007.02.017.024l.015-.002l.201-.093l.01-.008l.003-.011l.018-.43l-.003-.012l-.01-.01z"/><path fill="currentColor" d="M11.2 1.401a1.001 1.001 0 0 1 1.516-.1l.085.1L15.5 5h4.645a1.5 1.5 0 0 1 1.367 2.119l-.06.116l-8.363 14.868a1.25 1.25 0 0 1-2.105.115l-.073-.115L2.548 7.235a1.5 1.5 0 0 1 1.177-2.23L3.855 5H8.5zM8.433 7H4.71L12 19.96L19.29 7h-3.724l-2.623 4.371a1.1 1.1 0 0 1-1.886 0zM12 3.667l-1.796 2.395L12 9.056l1.797-2.994z"/></g></svg>