<svg xmlns="http://www.w3.org/2000/svg" width="1em" height="1em" viewBox="0 0 24 24"><g fill="none"><path d="M24 0v24H0V0zM12.594 23.258l-.012.002l-.071.035l-.02.004l-.014-.004l-.071-.036c-.01-.003-.019 0-.024.006l-.004.01l-.017.428l.005.02l.01.013l.104.074l.015.004l.012-.004l.104-.074l.012-.016l.004-.017l-.017-.427c-.002-.01-.009-.017-.016-.018m.264-.113l-.014.002l-.184.093l-.01.01l-.003.011l.018.43l.005.012l.008.008l.201.092c.012.004.023 0 .029-.008l.004-.014l-.034-.614c-.003-.012-.01-.02-.02-.022m-.715.002a.023.023 0 0 0-.027.006l-.006.014l-.034.614c0 .012.007.02.017.024l.015-.002l.201-.093l.01-.008l.003-.011l.018-.43l-.003-.012l-.01-.01z"/><path fill="currentColor" d="m17.707 4.293l2.829 2.828a1 1 0 0 1-1.415 1.415L18 7.414V20a1 1 0 1 1-2 0V7.414l-1.121 1.122a1 1 0 1 1-1.415-1.415l2.829-2.828a1 1 0 0 1 1.414 0M8 12c.674 0 1.28.396 1.556 1.002l.054.132l2.332 6.53a1 1 0 0 1-1.838.78l-.046-.108L9.581 19H6.419l-.477 1.336a1 1 0 0 1-1.917-.56l.033-.112l2.332-6.53A1.71 1.71 0 0 1 8 12m0 2.573L7.133 17h1.734zM10.759 3c.94 0 1.43 1.092.855 1.792l-.078.086L7.414 9H11a1 1 0 0 1 .117 1.993L11 11H5.241c-.94 0-1.43-1.092-.855-1.792l.078-.086L8.586 5H5a1 1 0 0 1-.117-1.993L5 3z"/></g></svg>