<svg xmlns="http://www.w3.org/2000/svg" width="1em" height="1em" viewBox="0 0 15 15"><path fill="currentColor" d="M5.854 8.146L5.5 7.793l-.707.707l.353.354zM7.5 10.5l-.354.354l.354.353l.354-.353zm2.354-1.646l.353-.354l-.707-.707l-.354.353zM.5 7.5H0zm7-7V0zm0 14V14zm7-7H14zM5.146 8.854l2 2l.708-.708l-2-2zm2.708 2l2-2l-.708-.708l-2 2zM8 10.5V4H7v6.5zm-7-3A6.5 6.5 0 0 1 7.5 1V0A7.5 7.5 0 0 0 0 7.5zM7.5 14A6.5 6.5 0 0 1 1 7.5H0A7.5 7.5 0 0 0 7.5 15zM14 7.5A6.5 6.5 0 0 1 7.5 14v1A7.5 7.5 0 0 0 15 7.5zm1 0A7.5 7.5 0 0 0 7.5 0v1A6.5 6.5 0 0 1 14 7.5z"/></svg>