<svg xmlns="http://www.w3.org/2000/svg" width="1em" height="1em" viewBox="0 0 15 15"><path fill="currentColor" d="m11.5 13.5l.157-.475l-.218-.072l-.197.119zm2-2l-.421-.27l-.129.202l.076.226zm1 2.99l-.157.476a.5.5 0 0 0 .631-.634zm-3.258-1.418c-.956.575-2.485.919-3.742.919v1c1.385 0 3.106-.37 4.258-1.063zM7.5 13.99c-3.59 0-6.5-2.908-6.5-6.496H0a7.498 7.498 0 0 0 7.5 7.496zM1 7.495A6.498 6.498 0 0 1 7.5 1V0A7.498 7.498 0 0 0 0 7.495zM7.5 1C11.09 1 14 3.908 14 7.495h1A7.498 7.498 0 0 0 7.5 0zM14 7.495c0 1.331-.296 2.758-.921 3.735l.842.54C14.686 10.575 15 8.937 15 7.495zm-2.657 6.48l3 .99l.314-.949l-3-.99zm3.631.357l-1-2.99l-.948.316l1 2.991z"/></svg>