<svg xmlns="http://www.w3.org/2000/svg" width="1em" height="1em" viewBox="0 0 15 15"><path fill="currentColor" d="m10.146 10.146l-.353.354l.707.707l.354-.353zM13.5 7.5l.354.354l.353-.354l-.353-.354zm-2.646-3.354l-.354-.353l-.707.707l.353.354zm-6.708 6.708l.354.353l.707-.707l-.353-.354zM1.5 7.5l-.354-.354l-.353.354l.353.354zm3.354-2.646l.353-.354l-.707-.707l-.354.353zm6 6l3-3l-.708-.708l-3 3zm3-3.708l-3-3l-.708.708l3 3zm-9 3l-3-3l-.708.708l3 3zm-3-2.292l3-3l-.708-.708l-3 3zm6.153-6.436l-2 12l.986.164l2-12z"/></svg>