<svg xmlns="http://www.w3.org/2000/svg" width="1em" height="1em" viewBox="0 0 15 15"><path fill="currentColor" d="m.5 12.5l-.354-.354l-.146.147v.207zM8 5l.354-.354a.5.5 0 0 0-.708 0zm2 2l.354.354a.5.5 0 0 0 0-.708zm-7.5 7.5v.5h.207l.147-.146zm-2 0H0a.5.5 0 0 0 .5.5zm7-10l-.354-.354l-.353.354l.353.354zm3.086-3.086l-.354-.353zm2.828 0l-.353.354zm.172.172l.353-.354zm0 2.828l-.354-.353zM10.5 7.5l-.354.354l.354.353l.354-.353zM.854 12.854l7.5-7.5l-.708-.708l-7.5 7.5zm6.792-7.5l2 2l.708-.708l-2-2zm2 1.292l-7.5 7.5l.708.708l7.5-7.5zM2.5 14h-2v1h2zm-1.5.5v-2H0v2zM6.146 3.854l5 5l.708-.708l-5-5zm1.708 1l3.085-3.086l-.707-.707l-3.086 3.085zm5.207-3.086l.171.171l.707-.707l-.171-.171zm.171 2.293l-3.086 3.085l.708.708l3.085-3.086zm-2.378 3.085l-3-3l-.708.708l3 3zm2.378-5.207a1.5 1.5 0 0 1 0 2.122l.707.707a2.5 2.5 0 0 0 0-3.536zm-2.293-.171a1.5 1.5 0 0 1 2.122 0l.707-.707a2.5 2.5 0 0 0-3.536 0z"/></svg>