<svg xmlns="http://www.w3.org/2000/svg" width="1em" height="1em" viewBox="0 0 15 15"><path fill="currentColor" d="m7.5.5l.369-.338a.5.5 0 0 0-.738 0zm0 13l-.393.309a.5.5 0 0 0 .786 0zM4.623 9.838l-.393.31zm.246-6.467L4.5 3.032zm5.262 0l.369-.338zm.246 6.467l.393.31zM8 15V.5H7V15zm-.107-1.809L5.016 9.53l-.786.618l2.877 3.662zM5.237 3.708L7.87.838L7.13.162L4.5 3.032zM7.131.838l2.632 2.87l.737-.675L7.869.163zm2.853 8.691l-2.877 3.662l.786.618l2.877-3.662zm-.221-5.82a4.5 4.5 0 0 1 .22 5.82l.787.618a5.5 5.5 0 0 0-.27-7.114zm-4.747 5.82a4.5 4.5 0 0 1 .221-5.82L4.5 3.032a5.5 5.5 0 0 0-.27 7.114z"/></svg>