<svg xmlns="http://www.w3.org/2000/svg" width="1em" height="1em" viewBox="0 0 15 15"><path fill="currentColor" d="M3.5 4a.5.5 0 1 0 0 1a.5.5 0 0 0 0-1"/><path fill="currentColor" fill-rule="evenodd" d="M7 .5v12a.5.5 0 0 1-.5.5h-3A3.5 3.5 0 0 1 0 9.5v-6A3.5 3.5 0 0 1 3.5 0h3a.5.5 0 0 1 .5.5m-5 4a1.5 1.5 0 1 1 3 0a1.5 1.5 0 0 1-3 0" clip-rule="evenodd"/><path fill="currentColor" d="M11.5 10a.5.5 0 1 0 0 1a.5.5 0 0 0 0-1"/><path fill="currentColor" fill-rule="evenodd" d="M15 5.5v6a3.5 3.5 0 0 1-3.5 3.5h-3a.5.5 0 0 1-.5-.5v-12a.5.5 0 0 1 .5-.5h3A3.5 3.5 0 0 1 15 5.5m-5 5a1.5 1.5 0 1 1 3 0a1.5 1.5 0 0 1-3 0" clip-rule="evenodd"/></svg>