<svg xmlns="http://www.w3.org/2000/svg" width="1em" height="1em" viewBox="0 0 15 15"><path fill="currentColor" d="m6.086 2.914l-.354-.353zM1.914 7.086l-.353-.354zm0 2.828l.354-.353zm3.172 3.172l.353-.354zm2.828 0l.354.353zm4.172-4.172l-.354-.353zm0-2.828l.353-.354zM8.914 2.914l-.353.354zm3.767 7.586l.353-.354l-.353-.353l-.354.353zm1.18 1.18l-.353.354zM11.639 14l.312-.39zm2.086 0l-.312-.39zM5.732 2.56L1.561 6.733l.707.707l4.171-4.171zm-4.171 7.708l3.171 3.171l.707-.707l-3.171-3.171zm6.707 3.171l4.171-4.171l-.707-.707l-4.171 4.171zm4.171-7.707L9.268 2.561l-.707.707l3.171 3.171zm0 3.536a2.5 2.5 0 0 0 0-3.536l-.707.707a1.5 1.5 0 0 1 0 2.122zm-7.707 4.171a2.5 2.5 0 0 0 3.536 0l-.707-.707a1.5 1.5 0 0 1-2.122 0zM1.561 6.732a2.5 2.5 0 0 0 0 3.536l.707-.707a1.5 1.5 0 0 1 0-2.122zm4.878-3.464a1.5 1.5 0 0 1 2.122 0l.707-.707a2.5 2.5 0 0 0-3.536 0zM7 7V2.5H6V7zM2 2.5v4h1v-4zM4.5 0A2.5 2.5 0 0 0 2 2.5h1A1.5 1.5 0 0 1 4.5 1zM7 2.5A2.5 2.5 0 0 0 4.5 0v1A1.5 1.5 0 0 1 6 2.5zM1.5 10h10V9h-10zm10.827.854l1.181 1.18l.707-.707l-1.18-1.18zm-.473 1.18l1.18-1.18l-.707-.708l-1.18 1.181zm.096 1.576c-.29-.232-.422-.51-.437-.77c-.016-.257.08-.545.34-.806l-.707-.707c-.443.444-.666 1.004-.632 1.575c.035.569.324 1.099.811 1.488zm1.462 0a1.17 1.17 0 0 1-1.462 0l-.625.78a2.17 2.17 0 0 0 2.711 0zm.096-1.576c.26.26.357.549.341.807c-.016.259-.147.537-.437.769l.624.78c.487-.39.777-.919.811-1.489c.035-.57-.188-1.13-.632-1.574z"/></svg>