<svg xmlns="http://www.w3.org/2000/svg" width="1em" height="1em" viewBox="0 0 15 15"><path fill="currentColor" d="m3.5 10.494l.257-.429l-.119-.07H3.5zm0-5.996v.5h.138l.12-.071zm5-2.998H9a.5.5 0 0 0-.757-.429zm0 11.992l-.257.429A.5.5 0 0 0 9 13.492zm5.353-9.348l-.353-.353l-.707.707l.354.354zm-.706 5.996l-.354.354l.707.707l.353-.353zM3.5 9.994h-2v1h2zm-2 0a.5.5 0 0 1-.5-.5H0c0 .83.672 1.5 1.5 1.5zm-.5-.5V5.498H0v3.998zm0-3.997a.5.5 0 0 1 .5-.499v-1a1.5 1.5 0 0 0-1.5 1.5zm.5-.499h2v-1h-2zm2.257-.071l5-2.998l-.514-.858l-5 2.998zM8 1.5v11.992h1V1.5zm.757 11.563l-5-2.998l-.514.858l5 2.998zM13.5 4.498c-.353.354-.354.354-.354.353a.01.01 0 0 1-.002-.002l.003.003l.02.022a3.186 3.186 0 0 1 .386.597c.22.439.447 1.112.447 2.025h1c0-1.086-.272-1.911-.553-2.472a4.198 4.198 0 0 0-.39-.639a2.932 2.932 0 0 0-.181-.217l-.014-.015l-.005-.005l-.002-.002l-.001-.001zm.5 2.998c0 .913-.228 1.586-.447 2.025a3.184 3.184 0 0 1-.386.597a.83.83 0 0 1-.02.022l-.003.003l.001-.001l.001-.001l.354.353c.353.354.354.354.354.353h.001l.002-.003l.005-.005l.014-.014l.043-.048c.035-.04.082-.097.137-.17c.11-.146.251-.36.391-.639c.28-.56.553-1.386.553-2.472z"/></svg>