<svg xmlns="http://www.w3.org/2000/svg" width="1em" height="1em" viewBox="0 0 16 16"><path fill="currentColor" d="M5 13V3h3.362c1.116 0 1.954.224 2.515.673c.565.449.848 1.113.848 1.992c0 .467-.137.881-.41 1.243c-.273.357-.645.634-1.116.831c.556.151.993.44 1.314.865c.325.422.487.925.487 1.511c0 .898-.299 1.603-.897 2.116c-.598.513-1.443.769-2.536.769zm1.356-4.677v3.599h2.24c.63 0 1.127-.158 1.49-.474c.367-.32.55-.76.55-1.319c0-1.204-.673-1.806-2.02-1.806zm0-1.058h2.049c.593 0 1.066-.144 1.42-.433c.357-.288.536-.68.536-1.174c0-.55-.165-.948-.494-1.195c-.33-.252-.831-.378-1.505-.378H6.356z"/></svg>