<svg xmlns="http://www.w3.org/2000/svg" width="1em" height="1em" viewBox="0 0 16 16"><path fill="currentColor" fill-rule="evenodd" d="M8.568 1.031A6.8 6.8 0 0 1 12.76 3.05a7.06 7.06 0 0 1 .46 9.39a6.85 6.85 0 0 1-8.58 1.74a7 7 0 0 1-3.12-3.5a7.12 7.12 0 0 1-.23-4.71a7 7 0 0 1 2.77-3.79a6.8 6.8 0 0 1 4.508-1.149M9.04 13.88a5.89 5.89 0 0 0 3.41-2.07a6.07 6.07 0 0 0-.4-8.06a5.82 5.82 0 0 0-7.43-.74a6.06 6.06 0 0 0 .5 10.29a5.81 5.81 0 0 0 3.92.58M7.375 6h1.25V5h-1.25zm1.25 1v4h-1.25V7z" clip-rule="evenodd"/></svg>