<svg xmlns="http://www.w3.org/2000/svg" width="1em" height="1em" viewBox="0 0 16 16"><g fill="currentColor"><path fill-rule="evenodd" d="m8.185 1.083l-.558.004l-5.909 4.037l.004.828L7.63 9.915l.55.004l6.092-3.963l.003-.836zm-5.293 4.45l5.021-3.43l5.176 3.43l-5.176 3.368zm4.739 6.882L1.793 8.5h1.795l4.325 2.9l4.459-2.9h1.833l-.8.52a4.002 4.002 0 0 0-4.21 2.739l-1.013.66zm1.373.776l-1.09.71L3.587 11H1.793l5.838 3.915l.55.004l1.02-.663a3.988 3.988 0 0 1-.197-1.065" clip-rule="evenodd"/><circle cx="13" cy="13" r="3"/></g></svg>