<svg xmlns="http://www.w3.org/2000/svg" width="1em" height="1em" viewBox="0 0 16 16"><g fill="currentColor" fill-rule="evenodd" clip-rule="evenodd"><path d="M5 2.41L5.78 2l9 6v.83L9 12.683v-1.2l4.6-3.063L6 3.35V7H5z"/><path d="M4.872 7.808c-.85-.053-1.705.159-2.403.641c-.753.485-1.233 1.184-1.499 2.03c-.269.81-.213 1.72.106 2.518a3.774 3.774 0 0 0 1.658 1.873c.756.432 1.616.537 2.467.378c.861-.162 1.61-.645 2.143-1.285l.005-.006c.529-.687.852-1.489.852-2.352a3.882 3.882 0 0 0-1.066-2.72l-.006-.005c-.585-.585-1.388-1.018-2.257-1.072M2.951 9.183c.512-.373 1.172-.517 1.792-.47h.001c.656.048 1.22.328 1.697.804c.516.516.803 1.274.803 2.038v.014c.047.649-.183 1.26-.566 1.789c-.426.518-.993.85-1.61.991a2.512 2.512 0 0 1-1.83-.282c-.572-.333-1-.808-1.288-1.43c-.28-.607-.282-1.265-.091-1.885v-.004a2.865 2.865 0 0 1 1.092-1.565m3.403 1.67l-2 2h-.708l-1-1l.708-.707l.646.647l1.646-1.647z"/></g></svg>