<svg xmlns="http://www.w3.org/2000/svg" width="1em" height="1em" viewBox="0 0 16 16"><g fill="currentColor"><path d="M5 4.001H1.5l-.5.5v10l.5.5h11l.5-.5V11.5h-1v2.501H2v-9h3z"/><path fill-rule="evenodd" d="M6 11H5V8.5a5.002 5.002 0 0 1 4-4.9V2.349a1.349 1.349 0 0 1 2.333-.923l3.646 3.89v1.368l-3.646 3.89A1.349 1.349 0 0 1 9 9.65V8.6c-.933.211-1.384.711-1.632 1.145A2.925 2.925 0 0 0 7 11zm4-6.5a4 4 0 0 0-4 4V10h.176c.138-.443.384-.965.824-1.417c.442-.455 1.08-.839 2-1a5.762 5.762 0 0 1 1-.083v2.151a.349.349 0 0 0 .603.239L14.25 6l-3.647-3.89a.349.349 0 0 0-.603.24z" clip-rule="evenodd"/><path d="M7 11c.052 0 .06 0 0 0m0 0v.008v-.006z"/></g></svg>