<svg xmlns="http://www.w3.org/2000/svg" width="1em" height="1em" viewBox="0 0 24 24"><g fill="none" stroke="currentColor"><path d="M8.5 9.5h-.807c-.44 0-.66 0-.868.05a1.8 1.8 0 0 0-.52.215c-.182.112-.337.267-.649.579l-1.312 1.313c-.312.31-.467.466-.579.648a1.8 1.8 0 0 0-.215.52c-.05.208-.05.428-.05.868v3.927c0 1.008 0 1.512.196 1.897a1.8 1.8 0 0 0 .787.787c.385.196.889.196 1.897.196h11.24c1.008 0 1.512 0 1.897-.196a1.8 1.8 0 0 0 .787-.787c.196-.385.196-.889.196-1.897v-3.927c0-.44 0-.66-.05-.868a1.802 1.802 0 0 0-.215-.52c-.112-.182-.267-.337-.578-.649l-1.314-1.312c-.31-.312-.466-.467-.648-.579a1.8 1.8 0 0 0-.52-.215c-.207-.05-.428-.05-.868-.05H15.5"/><path d="M20.5 14.5h-2.558c-.696 0-1.044 0-1.306.189c-.262.188-.372.518-.592 1.178l-.088.265c-.22.66-.33.99-.592 1.18c-.262.188-.61.188-1.306.188H9.943c-.696 0-1.044 0-1.306-.189s-.372-.518-.592-1.178l-.088-.265c-.22-.66-.33-.99-.592-1.18c-.262-.188-.61-.188-1.306-.188H3.5m5-7.6c0-.14 0-.21.027-.264a.25.25 0 0 1 .11-.109C8.69 6.5 8.76 6.5 8.9 6.5h6.2c.14 0 .21 0 .264.027a.25.25 0 0 1 .109.11c.027.053.027.123.027.263v4.2c0 .14 0 .21-.027.264a.251.251 0 0 1-.11.109c-.053.027-.123.027-.263.027H8.9c-.14 0-.21 0-.264-.027a.25.25 0 0 1-.109-.11C8.5 11.31 8.5 11.24 8.5 11.1zm6-.4V6c0-.465 0-.697-.038-.89a2 2 0 0 0-1.572-1.572C12.697 3.5 12.465 3.5 12 3.5s-.697 0-.89.038A2 2 0 0 0 9.538 5.11C9.5 5.303 9.5 5.535 9.5 6v.5"/></g></svg>