<svg xmlns="http://www.w3.org/2000/svg" width="1em" height="1em" viewBox="0 0 24 24"><g fill="none"><circle cx="12" cy="12" r="1" fill="currentColor"/><path stroke="currentColor" stroke-width="2" d="M15 12c0 2.667-.434 5.035-1.1 6.7c-.334.835-.707 1.444-1.07 1.827c-.36.381-.641.473-.83.473c-.189 0-.47-.091-.83-.473c-.363-.384-.736-.992-1.07-1.827C9.434 17.035 9 14.667 9 12s.434-5.035 1.1-6.7c.334-.835.707-1.443 1.07-1.827c.36-.381.641-.473.83-.473c.189 0 .47.091.83.473c.363.384.736.992 1.07 1.827c.666 1.665 1.1 4.033 1.1 6.7Z"/><path stroke="currentColor" stroke-width="2" d="M13.5 14.598c-2.31 1.333-4.578 2.142-6.352 2.397c-.89.129-1.604.11-2.117-.012c-.511-.122-.73-.32-.825-.483c-.095-.163-.156-.453-.006-.956c.151-.505.492-1.133 1.048-1.84c1.109-1.408 2.943-2.969 5.252-4.302c2.31-1.333 4.578-2.142 6.352-2.397c.89-.128 1.604-.11 2.117.012c.511.122.73.32.825.483c.095.163.156.453.006.956c-.15.506-.492 1.133-1.048 1.84c-1.109 1.409-2.942 2.969-5.252 4.302Z"/><path stroke="currentColor" stroke-width="2" d="M13.5 9.402C11.19 8.068 8.922 7.26 7.148 7.005c-.89-.129-1.604-.11-2.117.012c-.511.122-.73.32-.825.483c-.095.163-.156.452-.006.956c.151.505.492 1.133 1.048 1.84c1.109 1.408 2.943 2.969 5.252 4.302c2.31 1.333 4.578 2.141 6.352 2.397c.89.128 1.604.11 2.117-.012c.511-.122.73-.32.825-.483c.095-.163.156-.453.006-.956c-.15-.506-.492-1.133-1.048-1.84c-1.109-1.409-2.942-2.969-5.252-4.302Z"/></g></svg>