<svg xmlns="http://www.w3.org/2000/svg" width="1em" height="1em" viewBox="0 0 24 24"><g fill="none"><path fill="currentColor" fill-rule="evenodd" d="M14.455 2.474a6.586 6.586 0 0 0-9.001 5.385l-.252 2.266l-.006.054a7 7 0 0 1-.939 2.782l-.028.047l-.578.963l-.024.04c-.242.403-.46.768-.606 1.077c-.148.314-.307.74-.23 1.224a2 2 0 0 0 .691 1.222c.376.314.822.397 1.168.432c.34.034.766.034 1.235.034h12.23c.469 0 .894 0 1.235-.034c.345-.035.792-.118 1.167-.432a2 2 0 0 0 .692-1.222c.077-.483-.082-.91-.23-1.224c-.146-.31-.364-.674-.606-1.077l-.024-.04l-.578-.963l-.028-.047a6.999 6.999 0 0 1-.815-2.047a5.023 5.023 0 0 1-2.045-.04a9.001 9.001 0 0 0 1.141 3.11l.032.053l.578.963c.273.456.438.733.536.94l.014.032a2.31 2.31 0 0 1-.035.004c-.227.023-.55.024-1.081.024H5.932c-.531 0-.854-.001-1.082-.024a2.337 2.337 0 0 1-.034-.004l.014-.032c.098-.207.263-.484.536-.94l.578-.963l.032-.053a9 9 0 0 0 1.207-3.577l.007-.06l.252-2.267a4.586 4.586 0 0 1 5.893-3.882a5.004 5.004 0 0 1 1.12-1.724m2.527 1.804a2 2 0 0 0-.937 2.145c.12.225.222.461.305.707a1.998 1.998 0 0 0 2.203.793l-.007-.064a6.564 6.564 0 0 0-1.564-3.581" clip-rule="evenodd"/><path stroke="currentColor" stroke-linecap="round" stroke-width="2" d="M9.102 17.665c.171.957.548 1.802 1.072 2.405c.524.603 1.166.93 1.826.93c.66 0 1.302-.327 1.826-.93s.9-1.448 1.072-2.405"/><circle cx="18" cy="6" r="2.5" fill="currentColor" stroke="currentColor"/></g></svg>