<svg xmlns="http://www.w3.org/2000/svg" width="1em" height="1em" viewBox="0 0 24 24"><path fill="currentColor" d="m12 4l.759-.651a1 1 0 0 0-1.518 0zm0 0a172.412 172.412 0 0 0-.76-.65v.001a1.106 1.106 0 0 0-.005.004l-.013.016a15.397 15.397 0 0 0-.215.261A30.616 30.616 0 0 0 8.64 7.048C7.367 9.19 6 12.133 6 15h2c0-2.31 1.133-4.866 2.36-6.93a28.62 28.62 0 0 1 2.203-3.181a14.97 14.97 0 0 1 .196-.238zm6 11c0-2.867-1.367-5.81-2.64-7.952a30.607 30.607 0 0 0-2.367-3.416a16.933 16.933 0 0 0-.215-.261l-.013-.016a1.106 1.106 0 0 0-.004-.004l-.002-.002L12 4l-.759.651l.002.002a.988.988 0 0 0 .045.054a24.13 24.13 0 0 1 .692.883a28.62 28.62 0 0 1 1.66 2.48C14.867 10.134 16 12.69 16 15zm-2 0a4 4 0 0 1-4 4v2a6 6 0 0 0 6-6zm-4 4a4 4 0 0 1-4-4H6a6 6 0 0 0 6 6z"/></svg>