<svg xmlns="http://www.w3.org/2000/svg" width="1em" height="1em" viewBox="0 0 24 24"><g fill="none"><path stroke="currentColor" stroke-linecap="round" stroke-linejoin="round" stroke-width="2" d="m7 16l.276 1.658c.266 1.596.4 2.394.959 2.868c.56.474 1.369.474 2.987.474h1.556c1.618 0 2.428 0 2.987-.474c.56-.474.693-1.272.959-2.868L17 16"/><path stroke="currentColor" stroke-linecap="round" stroke-width="2" d="M13.5 4.5C14 3.5 15 3 16 3"/><circle cx="12" cy="6" r="2" stroke="currentColor" stroke-linecap="round" stroke-linejoin="round" stroke-width="2"/><path fill="currentColor" fill-rule="evenodd" d="M10 7.535a4.016 4.016 0 0 0-1.668 1.866a1 1 0 0 1-.893.6a2.5 2.5 0 1 0 1.512 4.535a1 1 0 0 1 1.076-.056A3.98 3.98 0 0 0 12 15c.72 0 1.392-.19 1.973-.52a1 1 0 0 1 1.076.056a2.5 2.5 0 1 0 1.512-4.535a1 1 0 0 1-.893-.6A4.017 4.017 0 0 0 14 7.535V5.341a6.02 6.02 0 0 1 3.23 2.718a4.501 4.501 0 1 1-2.81 8.433A5.984 5.984 0 0 1 12 17a5.96 5.96 0 0 1-2.42-.509A4.5 4.5 0 1 1 6.77 8.06A6.02 6.02 0 0 1 10 5.341z" clip-rule="evenodd"/></g></svg>