<svg xmlns="http://www.w3.org/2000/svg" width="1em" height="1em" viewBox="0 0 24 24"><g fill="none"><path fill="currentColor" fill-opacity=".25" d="M4 12c0-1.886 0-2.828.586-3.414C5.172 8 6.114 8 8 8h.784c.104 0 .156 0 .196-.028c.039-.029.055-.078.088-.177l.476-1.427c.22-.66.33-.99.592-1.18C10.398 5 10.746 5 11.442 5h3.117c.695 0 1.043 0 1.305.189s.372.519.592 1.179l.495 1.486a.351.351 0 0 0 .032.079c.02.03.05.052.086.062c.02.005.041.005.085.005c.788 0 1.181 0 1.498.11a2 2 0 0 1 1.239 1.238c.109.317.109.71.109 1.498V14c0 1.886 0 2.828-.586 3.414C18.828 18 17.886 18 16 18H8c-1.886 0-2.828 0-3.414-.586C4 16.828 4 15.886 4 14z"/><path stroke="currentColor" stroke-linecap="round" stroke-linejoin="round" d="M14.5 6.5h-3"/><circle cx="13" cy="13" r="3" fill="currentColor"/><rect width="3" height="1" x="4" y="6" fill="currentColor" fill-opacity=".25" rx=".5"/></g></svg>