<svg xmlns="http://www.w3.org/2000/svg" width="1em" height="1em" viewBox="0 0 24 24"><g fill="none" stroke="currentColor" stroke-width="2"><path d="M9.942 10.687a36.488 36.488 0 0 1-.008-2.265c.595.324 1.3.725 1.958 1.14c.48.302.918.602 1.26.876c.37.295.537.487.58.562c.043.075.127.315.197.783c.066.434.106.962.129 1.53c.03.776.024 1.588.008 2.265a36.42 36.42 0 0 1-1.958-1.14c-.48-.303-.917-.603-1.26-.876c-.37-.295-.537-.487-.58-.562c-.043-.075-.126-.315-.197-.783a14.468 14.468 0 0 1-.129-1.53Z"/><circle cx="12" cy="12" r="9"/></g></svg>