<svg xmlns="http://www.w3.org/2000/svg" width="1em" height="1em" viewBox="0 0 24 24"><g fill="none" stroke="currentColor"><path d="M15 3H9a4 4 0 0 0-4 4v8"/><path d="M8.5 11.5c0-1.184 0-2.03.074-2.684c.073-.643.21-1.035.443-1.338a2.5 2.5 0 0 1 .461-.461c.303-.232.696-.37 1.338-.443c.653-.073 1.5-.074 2.684-.074c1.184 0 2.03 0 2.684.074c.642.073 1.035.21 1.338.443c.173.133.328.288.461.461c.232.303.37.695.443 1.338c.073.653.074 1.5.074 2.684v4c0 1.184 0 2.03-.074 2.684c-.073.642-.21 1.035-.443 1.338a2.502 2.502 0 0 1-.461.461c-.302.232-.695.37-1.338.443c-.653.073-1.5.074-2.684.074c-1.184 0-2.03 0-2.684-.074c-.643-.073-1.035-.21-1.338-.443a2.501 2.501 0 0 1-.461-.461c-.232-.302-.37-.695-.443-1.338c-.073-.653-.074-1.5-.074-2.684z"/></g></svg>