<svg xmlns="http://www.w3.org/2000/svg" width="1em" height="1em" viewBox="0 0 24 24"><g fill="none"><path fill="currentColor" fill-opacity=".25" d="m17.004 17.98l1.711-9.415c.117-.642.176-.963.013-1.049c-.162-.085-.394.145-.857.604l-.886.88L12 10L6.996 9l-.863-.865c-.465-.465-.697-.698-.86-.612c-.162.085-.104.408.014 1.054l1.71 9.402a.068.068 0 0 0 .018.036a7.05 7.05 0 0 0 9.97 0a.068.068 0 0 0 .019-.036"/><ellipse cx="12" cy="7" stroke="currentColor" stroke-linecap="round" stroke-width="1.2" rx="7" ry="3"/><path stroke="currentColor" stroke-linecap="round" stroke-width="1.2" d="m5 7l1.996 10.98a.068.068 0 0 0 .019.035v0a7.05 7.05 0 0 0 9.97 0v0a.068.068 0 0 0 .019-.036L19 7"/></g></svg>