<svg xmlns="http://www.w3.org/2000/svg" width="1em" height="1em" viewBox="0 0 24 24"><path fill="currentColor" fill-rule="evenodd" d="M2.327 5.638C2 6.28 2 7.12 2 8.8v6.4c0 1.68 0 2.52.327 3.162a3 3 0 0 0 1.311 1.311C4.28 20 5.12 20 6.8 20H11v-4.757a2 2 0 0 0-.586-1.415l-1.261-1.26L8 11.413V12a1 1 0 1 1-2 0V8h4a1 1 0 1 1 0 2h-.586l2.414 2.414c.06.06.117.12.172.183a3.69 3.69 0 0 1 .172-.183L14.586 10H14a1 1 0 1 1 0-2h4v4a1 1 0 1 1-2 0v-.586l-2.414 2.414A2 2 0 0 0 13 15.243V20h4.2c1.68 0 2.52 0 3.162-.327a3 3 0 0 0 1.311-1.311C22 17.72 22 16.88 22 15.2V8.8c0-1.68 0-2.52-.327-3.162a3 3 0 0 0-1.311-1.311C19.72 4 18.88 4 17.2 4H6.8c-1.68 0-2.52 0-3.162.327a3 3 0 0 0-1.311 1.311" clip-rule="evenodd"/></svg>