<svg xmlns="http://www.w3.org/2000/svg" width="1em" height="1em" viewBox="0 0 24 24"><g fill="none" stroke="currentColor" stroke-linecap="round" stroke-width="2"><path stroke-linejoin="round" d="m17 13l-4.121 4.121A3 3 0 0 0 12 19.243V20m5-7h-2l2 2z"/><path stroke-linejoin="round" d="m7 13l4.121 4.121A3 3 0 0 1 12 19.243V20m-5-7h2l-2 2zm5-4.5V20m0-11.5l1.5 1.5h-3z"/><path d="M16 19h.2c1.68 0 2.52 0 3.162-.327a3 3 0 0 0 1.311-1.311C21 16.72 21 15.88 21 14.2V9.8c0-1.68 0-2.52-.327-3.162a3 3 0 0 0-1.311-1.311C18.72 5 17.88 5 16.2 5H7.8c-1.68 0-2.52 0-3.162.327a3 3 0 0 0-1.311 1.311C3 7.28 3 8.12 3 9.8v4.4c0 1.68 0 2.52.327 3.162a3 3 0 0 0 1.311 1.311C5.28 19 6.12 19 7.8 19H8"/></g></svg>