<svg xmlns="http://www.w3.org/2000/svg" width="1em" height="1em" viewBox="0 0 24 24"><g fill="none" stroke="currentColor" stroke-linecap="round" stroke-width="2"><path d="m7 8l4.121 4.121A3 3 0 0 1 12 14.243V16M7 8h3M7 8v3"/><path d="m17 8l-4.121 4.121A3 3 0 0 0 12 14.243V16m5-8h-3m3 0v3"/><path d="M3 7.8c0-1.68 0-2.52.327-3.162a3 3 0 0 1 1.311-1.311C5.28 3 6.12 3 7.8 3h8.4c1.68 0 2.52 0 3.162.327a3 3 0 0 1 1.311 1.311C21 5.28 21 6.12 21 7.8v8.4c0 1.68 0 2.52-.327 3.162a3 3 0 0 1-1.311 1.311C18.72 21 17.88 21 16.2 21H7.8c-1.68 0-2.52 0-3.162-.327a3 3 0 0 1-1.311-1.311C3 18.72 3 17.88 3 16.2z"/></g></svg>