<svg xmlns="http://www.w3.org/2000/svg" width="1em" height="1em" viewBox="0 0 24 24"><path fill="currentColor" fill-rule="evenodd" d="M3.327 4.638C3 5.28 3 6.12 3 7.8v8.4c0 1.68 0 2.52.327 3.162a3 3 0 0 0 1.311 1.311C5.28 21 6.12 21 7.8 21h8.4c1.68 0 2.52 0 3.162-.327a3 3 0 0 0 1.311-1.311C21 18.72 21 17.88 21 16.2V7.8c0-1.68 0-2.52-.327-3.162a3 3 0 0 0-1.311-1.311C18.72 3 17.88 3 16.2 3H7.8c-1.68 0-2.52 0-3.162.327a3 3 0 0 0-1.311 1.311M7 7H6v4a1 1 0 1 0 2 0v-.586l2.414 2.414A2 2 0 0 1 11 14.243V18a1 1 0 1 0 2 0v-3.757a2 2 0 0 1 .586-1.415L16 10.414V11a1 1 0 1 0 2 0V7h-4a1 1 0 1 0 0 2h.586l-2.414 2.414c-.06.06-.117.12-.172.183a3.988 3.988 0 0 0-.172-.183L9.414 9H10a1 1 0 1 0 0-2z" clip-rule="evenodd"/></svg>