<svg xmlns="http://www.w3.org/2000/svg" width="1em" height="1em" viewBox="0 0 24 24"><g fill="none" stroke="currentColor" stroke-width="2"><path d="M20 11.5c0 5.068-5.972 8.47-7.596 9.302a.875.875 0 0 1-.808 0C9.972 19.97 4 16.568 4 11.5C4 7 7.876 4 12 4c4.267 0 8 3 8 7.5Z"/><path d="m8.97 11.81l2.799 2.947c.092.097.139.146.195.157a.18.18 0 0 0 .072 0c.056-.011.103-.06.195-.157l2.799-2.946a1.806 1.806 0 1 0-2.898-2.107l-.07.128a.071.071 0 0 1-.124 0l-.07-.128A1.806 1.806 0 1 0 8.97 11.81Z"/></g></svg>