<svg xmlns="http://www.w3.org/2000/svg" width="1em" height="1em" viewBox="0 0 24 24"><path fill="none" stroke="currentColor" stroke-linecap="round" d="M5.5 12.5V5c0-.236 0-.354.073-.427C5.646 4.5 5.764 4.5 6 4.5h4.086c.204 0 .306 0 .398.038c.092.038.164.11.309.255l.414.414c.145.145.217.217.309.255c.092.038.194.038.398.038h5.11c.271 0 .407 0 .448.085c.04.085-.045.191-.215.403l-2.575 3.198c-.12.15-.181.226-.181.314s.06.163.181.314l2.575 3.198c.17.212.256.317.215.403c-.04.085-.177.085-.449.085h-5.109c-.204 0-.306 0-.398-.038c-.092-.038-.164-.11-.309-.255l-.414-.414c-.145-.145-.217-.217-.309-.255c-.092-.038-.194-.038-.398-.038zm0 0v6"/></svg>