<svg xmlns="http://www.w3.org/2000/svg" width="1em" height="1em" viewBox="0 0 24 24"><g fill="none"><path stroke="currentColor" stroke-linejoin="round" stroke-width="2" d="M15 5v6.697a1 1 0 0 0 .168.555l4.796 7.193A1 1 0 0 1 19.132 21H4.868a1 1 0 0 1-.833-1.555l4.796-7.193A1 1 0 0 0 9 11.697V5"/><path fill="currentColor" d="m16.9 18.2l-2.1-2.8a1 1 0 0 0-.8-.4h-4a1 1 0 0 0-.8.4l-2.1 2.8a.5.5 0 0 0 .4.8h9a.5.5 0 0 0 .4-.8"/><path stroke="currentColor" stroke-linecap="round" stroke-linejoin="round" stroke-width="2" d="M7 5h10"/></g></svg>