<svg xmlns="http://www.w3.org/2000/svg" width="1em" height="1em" viewBox="0 0 24 24"><defs><mask id="letsIconsFolderFileAltDuotoneLine0"><g fill="none"><path stroke="silver" stroke-opacity=".25" d="M13.5 4v1.9c0 .56 0 .84.109 1.054a1 1 0 0 0 .437.437c.214.109.494.109 1.054.109H17"/><path stroke="silver" stroke-opacity=".25" d="M17.5 11V7.163c0-.245 0-.367-.028-.482a.998.998 0 0 0-.12-.29c-.061-.1-.148-.187-.32-.36L14.968 3.97c-.173-.173-.26-.26-.36-.322a1 1 0 0 0-.29-.12c-.115-.027-.237-.027-.482-.027H8.9c-.84 0-1.26 0-1.581.163a1.5 1.5 0 0 0-.656.656c-.163.32-.163.74-.163 1.581V7"/><path stroke="#fff" d="M3.5 9.9c0-.84 0-1.26.163-1.581a1.5 1.5 0 0 1 .656-.656c.32-.163.74-.163 1.581-.163h2.413c.431 0 .646 0 .837.066a1.2 1.2 0 0 1 .448.277c.144.14.24.333.433.718l.938 1.878c.193.385.29.578.433.719c.127.124.28.219.448.277c.19.065.406.065.837.065H18.1c.84 0 1.26 0 1.581.164a1.5 1.5 0 0 1 .656.655c.163.321.163.741.163 1.581v4.2c0 .84 0 1.26-.163 1.581a1.5 1.5 0 0 1-.656.656c-.32.163-.74.163-1.581.163H5.9c-.84 0-1.26 0-1.581-.163a1.5 1.5 0 0 1-.656-.656c-.163-.32-.163-.74-.163-1.58z"/></g></mask></defs><path fill="currentColor" d="M0 0h24v24H0z" mask="url(#letsIconsFolderFileAltDuotoneLine0)"/></svg>