<svg xmlns="http://www.w3.org/2000/svg" width="1em" height="1em" viewBox="0 0 24 24"><defs><mask id="letsIconsFolderCopyDuotoneLine0"><g fill="none" stroke-width="1.2"><path stroke="#fff" stroke-linejoin="round" d="M16.04 6.384a.6.6 0 0 0 .46.216h2.3c.57 0 .961 0 1.265.025c.296.024.455.069.57.128a1.4 1.4 0 0 1 .612.611c.06.116.104.275.128.571c.024.304.025.695.025 1.265v2.6c0 .57 0 .961-.025 1.265c-.024.296-.069.455-.128.57a1.4 1.4 0 0 1-.611.612c-.116.06-.275.104-.571.128c-.304.024-.695.025-1.265.025h-7.6c-.57 0-.961 0-1.265-.025c-.296-.024-.455-.069-.57-.128a1.4 1.4 0 0 1-.612-.611c-.06-.116-.104-.275-.128-.571C8.6 12.76 8.6 12.37 8.6 11.8V6.2c0-.57 0-.961.025-1.265c.024-.296.069-.455.128-.57a1.4 1.4 0 0 1 .611-.612c.116-.06.275-.104.571-.128c.304-.025.695-.025 1.265-.025h1.301c.584 0 .765.005.926.048a1.4 1.4 0 0 1 .442.207c.136.096.256.232.63.68z"/><path stroke="silver" stroke-miterlimit="1.414" stroke-opacity=".25" d="M6 7H5a2 2 0 0 0-2 2v1m3 10H5a2 2 0 0 1-2-2v-1m10 3h1a2 2 0 0 0 2-2v-1m-5 3H8m-5-8v3"/></g></mask></defs><path fill="currentColor" d="M0 0h24v24H0z" mask="url(#letsIconsFolderCopyDuotoneLine0)"/></svg>