<svg xmlns="http://www.w3.org/2000/svg" width="1em" height="1em" viewBox="0 0 24 24"><defs><mask id="letsIconsFolderDublicateDuotoneLine0"><g fill="none" stroke-linejoin="round" stroke-width="1.2"><path stroke="#fff" d="M15.04 7.384a.6.6 0 0 0 .46.216h2.3c.57 0 .961 0 1.265.025c.296.024.455.069.57.128a1.4 1.4 0 0 1 .612.611c.06.116.104.275.128.571c.024.304.025.695.025 1.265v2.6c0 .57 0 .961-.025 1.265c-.024.296-.069.455-.128.57a1.4 1.4 0 0 1-.611.612c-.116.06-.275.104-.571.128c-.304.024-.695.025-1.265.025h-7.6c-.57 0-.961 0-1.265-.025c-.296-.024-.455-.069-.57-.128a1.4 1.4 0 0 1-.612-.611c-.06-.116-.104-.275-.128-.571C7.6 13.76 7.6 13.37 7.6 12.8V7.2c0-.57 0-.961.025-1.265c.024-.296.069-.455.128-.57a1.4 1.4 0 0 1 .611-.612c.116-.06.275-.104.571-.128C9.24 4.6 9.63 4.6 10.2 4.6h1.301c.584 0 .765.005.926.048a1.4 1.4 0 0 1 .442.207c.136.096.256.232.63.68z"/><path stroke="silver" stroke-opacity=".25" d="M17 15v1.8c0 1.12 0 1.68-.218 2.108a2 2 0 0 1-.874.874C15.48 20 14.92 20 13.8 20H6.2c-1.12 0-1.68 0-2.108-.218a2 2 0 0 1-.874-.874C3 18.48 3 17.92 3 16.8v-5.6c0-1.12 0-1.68.218-2.108a2 2 0 0 1 .874-.874C4.52 8 5.08 8 6.2 8H8"/></g></mask></defs><path fill="currentColor" d="M0 0h24v24H0z" mask="url(#letsIconsFolderDublicateDuotoneLine0)"/></svg>