<svg xmlns="http://www.w3.org/2000/svg" width="1em" height="1em" viewBox="0 0 24 24"><g fill="none" stroke="currentColor"><path stroke-linecap="round" d="M14.5 18.5H5.9c-.84 0-1.26 0-1.581-.163a1.5 1.5 0 0 1-.656-.656c-.163-.32-.163-.74-.163-1.58V6.9c0-.84 0-1.26.163-1.581a1.5 1.5 0 0 1 .656-.656c.32-.163.74-.163 1.581-.163h2.572c.376 0 .564 0 .734.052a1.2 1.2 0 0 1 .414.221c.137.113.242.27.45.582l.86 1.29c.208.313.313.47.45.582c.122.1.263.176.413.222c.171.051.359.051.735.051H16.5c.465 0 .697 0 .888.051a1.5 1.5 0 0 1 1.061 1.061c.051.191.051.423.051.888v0m-9 4h7"/><path d="M5.953 11.141c.197-.59.295-.885.477-1.103a1.5 1.5 0 0 1 .602-.434C7.297 9.5 7.608 9.5 8.23 9.5h9.94c1.124 0 1.687 0 2.055.236a1.5 1.5 0 0 1 .649.899c.106.425-.072.958-.427 2.024l-1.4 4.2c-.197.59-.295.885-.477 1.104a1.5 1.5 0 0 1-.602.433c-.265.104-.576.104-1.198.104H6.83c-1.124 0-1.687 0-2.056-.235a1.5 1.5 0 0 1-.648-.9c-.106-.424.071-.957.427-2.023z"/></g></svg>