<svg xmlns="http://www.w3.org/2000/svg" width="1em" height="1em" viewBox="0 0 24 24"><circle cx="12" cy="12" r="3" fill="currentColor"/><path fill="currentColor" fill-opacity=".25" fill-rule="evenodd" d="M12 2.4a.6.6 0 0 1 .6.6v2.025a7.002 7.002 0 0 1 6.375 6.375H21a.6.6 0 1 1 0 1.2h-2.025a7.002 7.002 0 0 1-6.376 6.375A11.462 11.462 0 0 1 12.6 19v2a.6.6 0 1 1-1.2 0v-2.025a7.002 7.002 0 0 1-6.375-6.376L5 12.6H3a.6.6 0 1 1 0-1.2h2.025A7.002 7.002 0 0 1 11.4 5.025V3a.6.6 0 0 1 .6-.6M12 18a6 6 0 1 0 0-12a6 6 0 0 0 0 12" clip-rule="evenodd"/></svg>