<svg xmlns="http://www.w3.org/2000/svg" width="1em" height="1em" viewBox="0 0 24 24"><g fill="none"><path stroke="currentColor" stroke-linecap="round" stroke-width="2" d="m17 12l-4.738 8.528c-.116.209-.174.313-.262.313c-.088 0-.146-.104-.262-.313L7 12"/><path fill="currentColor" d="m6.233 11.259l.27-.963zm11.534 0l-.27-.963zm-.224-4.246l-.934.357zm-3.247-3.518l.41-.913zm-4.592 0l-.41-.913zM7.757 4.904l-.734-.678zm-1.3 2.109l-.934-.358zm11.45.8l-.473.88zm-.166-.202l.963-.27zm.047.125l-.78.625zm-11.694.076l-.472-.881zm.165-.201l-.963-.27zm-.047.125l.78.625zm-.59-.805C4.712 7.418 4 8.366 4 9.56h2c0-.346.201-.672.566-.867zM4 9.56c0 1.177.733 2.316 1.963 2.66l.54-1.925C6.23 10.219 6 9.943 6 9.56zm1.963 2.66c1.773.5 3.84.78 6.037.78v-2c-2.033 0-3.917-.261-5.497-.704zM12 13c2.197 0 4.264-.281 6.037-.779l-.54-1.925c-1.58.443-3.464.704-5.497.704zm6.037-.779c1.23-.344 1.963-1.483 1.963-2.66h-2c0 .382-.23.658-.503.735zM20 9.561c0-1.195-.712-2.143-1.622-2.63l-.944 1.763c.365.195.566.52.566.866zm-1.296-2.22a7.88 7.88 0 0 0-.227-.686l-1.868.715c.064.167.12.338.17.51zm-.227-.686a7.56 7.56 0 0 0-1.5-2.43l-1.47 1.357A5.56 5.56 0 0 1 16.61 7.37zm-1.5-2.43a6.991 6.991 0 0 0-2.271-1.643l-.82 1.825c.602.27 1.154.668 1.622 1.175zm-2.271-1.643A6.602 6.602 0 0 0 12 2v2c.645 0 1.286.138 1.887.407zM12 2c-.93 0-1.85.199-2.706.582l.82 1.825A4.583 4.583 0 0 1 12 4zm-2.706.582a6.992 6.992 0 0 0-2.271 1.644l1.47 1.356a4.993 4.993 0 0 1 1.62-1.175zM7.023 4.226a7.56 7.56 0 0 0-1.5 2.43l1.868.714a5.56 5.56 0 0 1 1.101-1.788zm-1.5 2.43a7.865 7.865 0 0 0-.227.685l1.926.54c.048-.173.105-.344.169-.511zm12.855.275a4.305 4.305 0 0 1-.032-.017a.848.848 0 0 1 .222.196l-1.56 1.251c.111.138.231.219.291.256c.054.034.114.066.135.077zm-1.6.95c.006.02.024.085.046.146c.025.072.078.201.184.334l1.56-1.251a.86.86 0 0 1 .138.242l.007.02l-.01-.031zm-10.212.813c.02-.011.08-.043.135-.077c.06-.037.18-.118.29-.256L5.432 7.11a.849.849 0 0 1 .208-.188c.013-.008.02-.012.015-.008a3.173 3.173 0 0 1-.032.017zM5.296 7.34a2.672 2.672 0 0 1-.009.031l.007-.02a.851.851 0 0 1 .138-.242l1.56 1.251a1.15 1.15 0 0 0 .185-.334c.022-.06.04-.126.045-.146z"/><path stroke="currentColor" stroke-linecap="round" stroke-width="2" d="M17.732 7.845C16.864 8.072 15.5 8.5 14 8.5"/></g></svg>