<svg xmlns="http://www.w3.org/2000/svg" width="1em" height="1em" viewBox="0 0 24 24"><g fill="none"><path fill="currentColor" fill-rule="evenodd" d="M2.019 7.495C2 8.224 2 9.052 2 10v2h8.097a3.308 3.308 0 0 0-1.082-.299L7 11.5c-1.313-.131-1.97-.197-2.503-.413a4 4 0 0 1-2.335-2.58c-.083-.284-.124-.596-.143-1.012m19.855-1.72L21.5 17a3.62 3.62 0 0 1-2.56-1.06l-1.128-1.128c-.37-.37-.555-.555-.742-.673a2 2 0 0 0-2.14 0c-.187.118-.372.303-.742.673l-.774.774A.829.829 0 0 1 12 15v7h2c3.771 0 5.657 0 6.828-1.172C22 19.657 22 17.771 22 14v-4c0-1.793 0-3.16-.126-4.225" clip-rule="evenodd"/><path stroke="currentColor" stroke-width="2" d="M3 10c0-1.914.002-3.249.138-4.256c.131-.978.372-1.496.74-1.865c.37-.37.888-.61 1.866-.741C6.751 3.002 8.086 3 10 3h4c1.914 0 3.249.002 4.256.138c.978.131 1.496.372 1.865.74l.69-.69l-.69.69c.37.37.61.888.742 1.866C20.998 6.751 21 8.086 21 10v4c0 1.914-.002 3.249-.137 4.256c-.132.978-.373 1.496-.742 1.865c-.369.37-.887.61-1.865.742c-1.007.135-2.342.137-4.256.137h-1v-7.054c0-.425 0-.837-.046-1.176c-.051-.384-.177-.821-.54-1.184c-.363-.363-.8-.489-1.184-.54C10.89 11 10.48 11 10.055 11H3z"/><circle cx="16" cy="8" r="2" fill="currentColor"/><path fill="currentColor" d="M8 16v-1h1v1zm-4.375 4.78a1 1 0 1 1-1.25-1.56zM7 21v-5h2v5zm1-4H3v-2h5zm.625-.22l-5 4l-1.25-1.56l5-4z"/></g></svg>