<svg xmlns="http://www.w3.org/2000/svg" width="1em" height="1em" viewBox="0 0 24 24"><g fill="none"><path fill="currentColor" fill-rule="evenodd" d="m3.5 15.5l1.91-1.91c1.346-1.345 2.018-2.018 2.747-2.08c.367-.03.735.04 1.065.205c.654.328 1.028 1.203 1.778 2.952l.053.124c.326.761.49 1.142.758 1.308a1 1 0 0 0 .7.134c.31-.054.603-.347 1.188-.932l.113-.113c.722-.722 1.082-1.082 1.491-1.234a2 2 0 0 1 1.394 0c.409.152.77.512 1.49 1.234l.752.751a3.621 3.621 0 0 0 1.964 1.012c-.125 1.327-.413 2.216-1.075 2.877C18.657 21 16.771 21 13 21h-2c-3.771 0-5.657 0-6.828-1.172C3 18.657 3 16.771 3 13v-2c0-2.84 0-4.61.5-5.812z" clip-rule="evenodd"/><path stroke="currentColor" stroke-width="2" d="M12 3h-1C7.229 3 5.343 3 4.172 4.172C3 5.343 3 7.229 3 11v2c0 3.771 0 5.657 1.172 6.828C5.343 21 7.229 21 11 21h2c3.771 0 5.657 0 6.828-1.172C21 18.657 21 16.771 21 13v-1"/><path fill="currentColor" d="M21 3V2h1v1zm-4.375 4.78a1 1 0 0 1-1.25-1.56zM20 8V3h2v5zm1-4h-5V2h5zm.625-.22l-5 4l-1.25-1.56l5-4z"/></g></svg>