<svg xmlns="http://www.w3.org/2000/svg" width="1em" height="1em" viewBox="0 0 24 24"><g fill="none"><path stroke="currentColor" d="M3 11c0-3.771 0-5.657 1.172-6.828C5.343 3 7.229 3 11 3h2c3.771 0 5.657 0 6.828 1.172C21 5.343 21 7.229 21 11v2c0 3.771 0 5.657-1.172 6.828C18.657 21 16.771 21 13 21h-2c-3.771 0-5.657 0-6.828-1.172C3 18.657 3 16.771 3 13z"/><path fill="currentColor" fill-rule="evenodd" d="m18.998 14.29l-.344-.343l-.015-.016c-.401-.4-.724-.723-1.008-.962c-.292-.246-.576-.434-.909-.534a2.5 2.5 0 0 0-1.444 0c-.333.1-.617.288-.91.534c-.283.239-.606.562-1.007.962l-.015.016c-.3.3-.5.5-.663.634c-.161.133-.231.155-.26.16a.5.5 0 0 1-.349-.067c-.024-.016-.081-.062-.181-.245a11.014 11.014 0 0 1-.38-.835l-.053-.124l-.013-.029c-.364-.85-.654-1.527-.936-2.028c-.287-.51-.606-.915-1.065-1.145a2.5 2.5 0 0 0-1.33-.256c-.513.043-.959.3-1.415.667c-.448.361-.969.881-1.623 1.536l-.022.021l-.056.057v1.414l.763-.764c.681-.68 1.164-1.162 1.565-1.485c.4-.321.655-.431.871-.45a1.5 1.5 0 0 1 .799.154c.194.097.39.294.641.741c.253.45.522 1.075.901 1.96l.054.125l.01.023c.154.36.284.664.41.896c.13.239.29.466.534.617a1.5 1.5 0 0 0 1.049.202c.282-.05.514-.202.723-.375c.204-.168.438-.402.716-.68l.017-.017c.42-.42.713-.712.96-.92c.242-.205.406-.297.554-.342c.282-.085.584-.085.866 0c.148.045.312.137.554.341c.247.209.54.501.96.921l1.029 1.028c.013-.41.019-.87.022-1.392" clip-rule="evenodd"/><circle cx="16.5" cy="7.5" r="1.5" fill="currentColor"/></g></svg>