<svg xmlns="http://www.w3.org/2000/svg" width="1em" height="1em" viewBox="0 0 24 24"><g fill="none" stroke="currentColor"><path d="m3.5 18l2.46-2.684c1.276-1.391 1.913-2.087 2.69-2.154a2 2 0 0 1 .567.032c.764.154 1.319.918 2.429 2.444l.375.515c.22.303.33.455.449.544a1 1 0 0 0 1.13.051c.127-.079.25-.22.497-.501c.534-.61.801-.916 1.07-1.078a2 2 0 0 1 2.35.21c.235.207.443.555.86 1.25L19.5 18.5"/><path stroke-linecap="round" d="M6.5 8.5V5m11 3.5V5m-15 12V7m19 0v10M17.507 4.963c1.64.307 2.868.743 3.505 1.246c.637.502.65 1.045.04 1.55c-.611.505-1.816.945-3.44 1.258c-1.624.313-3.584.482-5.597.483c-2.013 0-3.975-.167-5.602-.478c-1.628-.312-2.838-.751-3.455-1.255c-.618-.505-.61-1.047.02-1.55c.631-.504 1.853-.94 3.49-1.25"/><path d="M21.5 17c0 .663-1 1.299-2.782 1.768c-1.782.469-4.198.732-6.718.732c-2.52 0-4.936-.263-6.718-.732C3.501 18.298 2.5 17.663 2.5 17"/></g></svg>