<svg xmlns="http://www.w3.org/2000/svg" width="1em" height="1em" viewBox="0 0 24 24"><g fill="currentColor" fill-rule="evenodd" clip-rule="evenodd"><path d="m4.872 9.995l-1.54-1.369a.5.5 0 0 0-.664.748l1.449 1.288c.257-.229.509-.451.755-.667m3.054 3.973c.33.262.642.496.943.701C9.94 15.402 10.91 15.81 12 15.81c1.09 0 2.059-.408 3.131-1.14c1.055-.722 2.26-1.793 3.817-3.177l.028-.025l2.356-2.094a.5.5 0 1 0-.664-.748l-2.357 2.095c-1.59 1.414-2.748 2.442-3.744 3.123c-.984.672-1.756.966-2.567.966c-.811 0-1.583-.294-2.567-.966a14.77 14.77 0 0 1-.742-.546c-.238.207-.492.43-.765.67"/><path d="M16.074 10.031a16.66 16.66 0 0 0-.943-.7C14.06 8.598 13.09 8.189 12 8.189c-1.09 0-2.059.409-3.131 1.142c-1.055.72-2.26 1.792-3.818 3.176l-.027.024l-2.356 2.095a.5.5 0 0 0 .664.747L5.69 13.28c1.59-1.414 2.749-2.442 3.744-3.123c.984-.672 1.756-.967 2.567-.967c.811 0 1.583.295 2.567.967c.237.162.483.343.742.545c.238-.206.492-.429.765-.67m3.809 3.307l-.755.667l1.54 1.368a.5.5 0 0 0 .664-.747z"/></g></svg>