<svg xmlns="http://www.w3.org/2000/svg" width="1em" height="1em" viewBox="0 0 24 24"><g fill="none" stroke="currentColor" stroke-width="2"><path stroke-linecap="round" d="M3 6.2c0-1.12 0-1.68.218-2.108a2 2 0 0 1 .874-.874C4.52 3 5.08 3 6.2 3h11.6c1.12 0 1.68 0 2.108.218a2 2 0 0 1 .874.874C21 4.52 21 5.08 21 6.2v11.6c0 1.12 0 1.68-.218 2.108a2 2 0 0 1-.874.874C19.48 21 18.92 21 17.8 21H6.2c-1.12 0-1.68 0-2.108-.218a2 2 0 0 1-.874-.874C3 19.48 3 18.92 3 17.8z"/><path d="M19 21L15 6.5m6-.5L3 8m10 6.088c0 1.84-1.739 3.145-2.569 3.664a.807.807 0 0 1-.862 0C8.739 17.233 7 15.927 7 14.088C7 12.235 8.454 11 10 11c1.6 0 3 1.235 3 3.088Z"/></g></svg>