<svg xmlns="http://www.w3.org/2000/svg" width="1em" height="1em" viewBox="0 0 24 24"><path fill="currentColor" fill-opacity=".25" fill-rule="evenodd" d="M11.94 5.213C11.846 5.149 11.886 5 12 5a7 7 0 1 1-.565 13.978c-1.093-.088-1.64-.131-1.72-.492c-.08-.36.529-.707 1.746-1.4A6.998 6.998 0 0 0 15 11a6.993 6.993 0 0 0-3.06-5.787" clip-rule="evenodd"/><path fill="currentColor" d="m11.435 18.978l.048-.599zm-1.72-.492l.586-.13zM11.94 5.213l.339-.496zM18.4 12A6.4 6.4 0 0 0 12 5.6V4.4a7.6 7.6 0 0 1 7.6 7.6zM12 18.4a6.4 6.4 0 0 0 6.4-6.4h1.2a7.6 7.6 0 0 1-7.6 7.6zm-.517-.02c.17.013.343.02.517.02v1.2c-.206 0-.41-.008-.613-.024zm-.319-1.816a6.398 6.398 0 0 0 3.236-5.565h1.2c0 2.832-1.548 5.3-3.842 6.608zm3.236-5.565a6.393 6.393 0 0 0-2.798-5.29l.677-.992A7.593 7.593 0 0 1 15.6 11zm-3.013 8.577c-.524-.042-.99-.078-1.33-.158c-.321-.076-.806-.257-.927-.801l1.171-.261c-.04-.184-.212-.163.032-.106c.228.054.581.084 1.15.13zm.371-1.97c-.624.356-1.04.595-1.299.787a.904.904 0 0 0-.182.16c-.001.002.013-.017.023-.056a.311.311 0 0 0 .001-.141l-1.171.26a.936.936 0 0 1 .16-.744c.12-.175.289-.32.454-.443c.33-.245.827-.527 1.42-.865zM12 5.6a.49.49 0 0 0 .47-.359a.482.482 0 0 0-.191-.524l-.677.992a.718.718 0 0 1-.288-.785A.71.71 0 0 1 12 4.4z"/><path fill="currentColor" fill-opacity=".25" stroke="currentColor" stroke-width="1.2" d="M5.4 10.2c.101.304.152.456.203.523a.5.5 0 0 0 .794 0c.05-.067.102-.219.203-.523c.082-.245.123-.368.176-.479a2 2 0 0 1 .945-.945c.111-.053.234-.094.479-.176c.304-.101.456-.152.523-.203a.5.5 0 0 0 0-.794c-.067-.05-.219-.102-.523-.203c-.245-.082-.368-.123-.479-.176a2 2 0 0 1-.945-.945A4.365 4.365 0 0 1 6.6 5.8c-.101-.304-.152-.456-.203-.522a.5.5 0 0 0-.794 0c-.05.066-.102.218-.203.522a4.365 4.365 0 0 1-.176.479a2 2 0 0 1-.945.945A4.365 4.365 0 0 1 3.8 7.4c-.304.101-.456.152-.522.203a.5.5 0 0 0 0 .794c.066.05.218.102.522.203c.245.082.368.123.479.176a2 2 0 0 1 .945.945c.053.111.094.234.176.479Z"/></svg>