<svg xmlns="http://www.w3.org/2000/svg" width="1em" height="1em" viewBox="0 0 24 24"><g fill="none"><path fill="currentColor" d="m13.435 19.978l.04-.499zm-1.72-.492l.489-.108zM13.94 6.213l.282-.413zM20.5 13A6.5 6.5 0 0 0 14 6.5v-1a7.5 7.5 0 0 1 7.5 7.5zM14 19.5a6.5 6.5 0 0 0 6.5-6.5h1a7.5 7.5 0 0 1-7.5 7.5zm-.525-.02c.173.013.348.02.525.02v1a7.57 7.57 0 0 1-.605-.024zm-.261-1.83A6.497 6.497 0 0 0 16.5 12h1a7.498 7.498 0 0 1-3.791 6.52zM16.5 12a6.493 6.493 0 0 0-2.841-5.374l.563-.826A7.493 7.493 0 0 1 17.5 12zm-3.105 8.476c-.528-.042-.985-.077-1.314-.155c-.316-.075-.746-.242-.854-.726l.976-.217c-.027-.124-.144-.09.107-.03c.237.056.6.086 1.165.131zm.314-1.956c-.622.354-1.045.596-1.31.792a.969.969 0 0 0-.204.185c-.01.013.027-.038.008-.12l-.976.218a.836.836 0 0 1 .144-.666c.112-.162.27-.3.433-.42c.324-.24.814-.519 1.41-.858zM14 6.5a.391.391 0 0 0 .374-.285a.382.382 0 0 0-.152-.415l-.563.826a.618.618 0 0 1-.249-.676a.609.609 0 0 1 .59-.45z"/><path stroke="currentColor" d="M7.4 11.2c.101.304.152.456.203.523a.5.5 0 0 0 .794 0c.05-.067.102-.219.203-.523c.082-.245.123-.368.176-.479a2 2 0 0 1 .945-.945c.111-.053.234-.094.479-.176c.304-.101.456-.152.523-.203a.5.5 0 0 0 0-.794c-.067-.05-.219-.102-.523-.203c-.245-.082-.368-.123-.479-.176a2 2 0 0 1-.945-.945A4.365 4.365 0 0 1 8.6 6.8c-.101-.304-.152-.456-.203-.522a.5.5 0 0 0-.794 0c-.05.066-.102.218-.203.522a4.365 4.365 0 0 1-.176.479a2 2 0 0 1-.945.945A4.365 4.365 0 0 1 5.8 8.4c-.304.101-.456.152-.522.203a.5.5 0 0 0 0 .794c.066.05.218.102.522.203c.245.082.368.123.479.176a2 2 0 0 1 .945.945c.053.111.094.234.176.479Z"/></g></svg>