<svg xmlns="http://www.w3.org/2000/svg" width="1em" height="1em" viewBox="0 0 24 24"><path fill="none" stroke="currentColor" stroke-width="2" d="M9 16H6.252c-.234 0-.351 0-.45.01a2 2 0 0 0-1.792 1.792c-.01.099-.01.216-.01.45c0 .28 0 .42.012.531a2 2 0 0 0 2.16 1.77c.11-.01.248-.037.522-.092l.296-.06c.38-.075.571-.113.731-.175a2 2 0 0 0 1.25-1.524c.029-.17.029-.364.029-.751V9.279c0-1.57 0-2.354.453-2.907c.454-.553 1.223-.707 2.763-1.015l2-.4c2.213-.443 3.32-.664 4.052-.064c.732.6.732 1.729.732 3.986V9m0 5v1.95c0 .389 0 .582-.03.752a2 2 0 0 1-1.248 1.524c-.161.062-.351.1-.732.176l-.296.06c-.274.054-.411.082-.523.091a2 2 0 0 1-2.159-1.77c-.012-.11-.012-.25-.012-.53c0-.235 0-.352.01-.451a2 2 0 0 1 1.792-1.792c.099-.01.216-.01.45-.01zm0 0V9m0 0L9 11"/></svg>