<svg xmlns="http://www.w3.org/2000/svg" width="1em" height="1em" viewBox="0 0 24 24"><path fill="currentColor" fill-opacity=".25" d="m17.707 13.707l2.648 2.648a.912.912 0 0 1 0 1.29a5.471 5.471 0 0 1-7.151.508l-1.575-1.182a22.996 22.996 0 0 1-4.6-4.6l-1.182-1.575a5.471 5.471 0 0 1 .508-7.151a.912.912 0 0 1 1.29 0l2.648 2.648a1 1 0 0 1 0 1.414L9.272 8.728a.533.533 0 0 0-.1.616a12.262 12.262 0 0 0 5.484 5.484a.533.533 0 0 0 .616-.1l1.02-1.02a1 1 0 0 1 1.415 0"/><path fill="currentColor" fill-rule="evenodd" d="M20.355 17.645a.912.912 0 0 0 0-1.29l-2.648-2.648a1 1 0 0 0-1.414 0l-.793.793l3.905 3.905a5.51 5.51 0 0 0 .95-.76M5.595 4.595L9.5 8.5l.793-.793a1 1 0 0 0 0-1.414L7.645 3.645a.912.912 0 0 0-1.29 0a5.48 5.48 0 0 0-.76.95" clip-rule="evenodd"/></svg>