<svg xmlns="http://www.w3.org/2000/svg" width="1em" height="1em" viewBox="0 0 24 24"><g fill="none"><path fill="currentColor" fill-rule="evenodd" d="M12.398 17.804C13.881 17.034 19 14.016 19 9A7 7 0 1 0 5 9c0 5.016 5.119 8.035 6.602 8.804a.855.855 0 0 0 .796 0M12 12a3 3 0 1 0 0-6a3 3 0 0 0 0 6" clip-rule="evenodd"/><path stroke="currentColor" stroke-linecap="round" stroke-width="2" d="M18.062 16.5c.615.456.938.973.938 1.5s-.323 1.044-.938 1.5c-.614.456-1.498.835-2.562 1.098c-1.064.263-2.271.402-3.5.402s-2.436-.139-3.5-.402s-1.948-.642-2.562-1.098C5.323 19.044 5 18.527 5 18s.323-1.044.938-1.5"/></g></svg>