<svg xmlns="http://www.w3.org/2000/svg" width="1em" height="1em" viewBox="0 0 24 24"><path fill="currentColor" fill-opacity=".25" fill-rule="evenodd" d="M5.965 15.17c-.552.148-.828.222-.917.464c-.09.243.059.46.356.893a8 8 0 1 0 7.219-12.502c-.524-.041-.786-.062-.951.137c-.166.2-.092.475.056 1.028l1.643 6.132l.003.01c.012.044.054.196.073.347a1.64 1.64 0 0 1-.202 1.04a1.646 1.646 0 0 1-.8.695c-.14.058-.292.098-.337.11l-.01.002z" clip-rule="evenodd"/><path fill="currentColor" d="M9.67 3.307c-.124-.464-.186-.695-.383-.796c-.198-.102-.407-.022-.827.136a10 10 0 0 0-6.33 10.964c.073.442.109.664.295.784c.187.12.418.059.882-.066l7.727-2.07c.455-.122.683-.183.787-.363c.103-.179.042-.407-.08-.862z"/></svg>