<svg xmlns="http://www.w3.org/2000/svg" width="1em" height="1em" viewBox="0 0 24 24"><g fill="none" stroke="currentColor" stroke-width="2"><path stroke-linecap="round" d="M12 3v2m0 5.5v2m0 5.5v3"/><path d="M17 14.6c0-.56 0-.84-.109-1.054a1 1 0 0 0-.437-.437C16.24 13 15.96 13 15.4 13H5.769c-.282 0-.424 0-.554.036a1 1 0 0 0-.321.154c-.11.08-.198.19-.374.41l-.72.9c-.286.357-.428.536-.483.733a1 1 0 0 0 0 .534c.055.197.197.376.483.733l.72.9c.176.22.264.33.374.41a1 1 0 0 0 .321.154c.13.036.272.036.554.036H15.4c.56 0 .84 0 1.054-.109a1 1 0 0 0 .437-.437C17 17.24 17 16.96 17 16.4zm-10-8c0-.56 0-.84.109-1.054a1 1 0 0 1 .437-.437C7.76 5 8.04 5 8.6 5h9.631c.282 0 .424 0 .554.036a1 1 0 0 1 .321.154c.11.08.198.19.374.41l.72.9c.286.357.428.536.483.733c.048.175.048.36 0 .534c-.055.197-.197.376-.483.733l-.72.9c-.176.22-.264.33-.374.41a1 1 0 0 1-.321.154c-.13.036-.272.036-.554.036H8.6c-.56 0-.84 0-1.054-.109a1 1 0 0 1-.437-.437C7 9.24 7 8.96 7 8.4z"/></g></svg>