<svg xmlns="http://www.w3.org/2000/svg" width="1em" height="1em" viewBox="0 0 24 24"><defs><mask id="letsIconsRingDuotoneLine0"><g fill="none" stroke-linecap="round"><path stroke="silver" stroke-opacity=".25" d="M12 6.5v0c-2.057 0-3.85 1.4-4.349 3.396l-.728 2.912a4.51 4.51 0 0 1-1.874 2.66v0c-.464.309-.245 1.032.313 1.032h13.276c.558 0 .777-.723.313-1.033v0a4.51 4.51 0 0 1-1.874-2.658l-.728-2.913A4.483 4.483 0 0 0 12 6.5zm0 0V3"/><path stroke="#fff" d="M9.585 18.647a2.5 2.5 0 0 0 4.83 0"/></g></mask></defs><path fill="currentColor" d="M0 0h24v24H0z" mask="url(#letsIconsRingDuotoneLine0)"/></svg>