<svg xmlns="http://www.w3.org/2000/svg" width="1em" height="1em" viewBox="0 0 24 24"><g fill="none" stroke="currentColor" stroke-linecap="round" stroke-width="2"><path d="m9.096 20.793l2.831-6.136c.024-.05.035-.075.051-.083a.05.05 0 0 1 .044 0c.016.008.027.033.05.083l2.832 6.136c.03.063.044.095.039.114a.05.05 0 0 1-.034.033c-.02.005-.05-.01-.113-.042l-2.76-1.38h0a.103.103 0 0 0-.027-.011a.047.047 0 0 0-.018 0a.103.103 0 0 0-.027.01h0l-2.76 1.381c-.063.031-.094.047-.113.042a.05.05 0 0 1-.034-.033c-.005-.019.01-.05.039-.114ZM5 17L8 3m11 14L16 3m-4 7V8"/><path d="M17 17h.8c1.12 0 1.68 0 2.108-.218a2 2 0 0 0 .874-.874C21 15.48 21 14.92 21 13.8V6.2c0-1.12 0-1.68-.218-2.108a2 2 0 0 0-.874-.874C19.48 3 18.92 3 17.8 3H6.2c-1.12 0-1.68 0-2.108.218a2 2 0 0 0-.874.874C3 4.52 3 5.08 3 6.2v7.6c0 1.12 0 1.68.218 2.108a2 2 0 0 0 .874.874C4.52 17 5.08 17 6.2 17H7"/></g></svg>