<svg xmlns="http://www.w3.org/2000/svg" width="1em" height="1em" viewBox="0 0 24 24"><path fill="none" stroke="currentColor" stroke-linecap="round" stroke-width="2" d="m9.096 20.793l2.831-6.136c.024-.05.035-.075.051-.083a.05.05 0 0 1 .044 0c.016.008.027.033.05.083l2.832 6.136c.03.063.044.095.039.114a.05.05 0 0 1-.034.033c-.02.005-.05-.01-.113-.042l-2.76-1.38h0a.103.103 0 0 0-.027-.011a.047.047 0 0 0-.018 0a.103.103 0 0 0-.027.01h0l-2.76 1.381c-.063.031-.094.047-.113.042a.05.05 0 0 1-.034-.033c-.005-.019.01-.05.039-.114ZM4 18L7 4m13 14L17 4m-5 7V9m0-3V4"/></svg>