<svg xmlns="http://www.w3.org/2000/svg" width="1em" height="1em" viewBox="0 0 24 24"><g fill="none" stroke="currentColor" stroke-width="2"><path d="M5 16c.71 0 1.1-.551 1.25-.806c.19-.32.326-.719.427-1.123C6.883 13.247 7 12.161 7 11c0-1.162-.117-2.247-.323-3.071c-.1-.404-.237-.802-.427-1.123C6.1 6.55 5.71 6 5 6s-1.1.551-1.25.806c-.19.32-.326.719-.427 1.123C3.117 8.753 3 9.839 3 11c0 1.162.117 2.247.323 3.071c.1.404.237.802.427 1.124c.15.254.54.805 1.25.805Z"/><path stroke-linecap="round" d="M19 16c.693 0 1.082-.528 1.239-.788c.193-.32.333-.721.438-1.141c.213-.853.323-1.956.323-3.071c0-1.115-.11-2.218-.323-3.071c-.105-.42-.245-.82-.438-1.141C20.082 6.528 19.693 6 19 6m0 0s-3.062 1-7 1C8.063 7 5 6 5 6m0 10s1.441-.764 4.5-1m9.5 1s-1.441-.764-4.5-1M10 8v2m4-2v2"/><circle cx="12" cy="13" r="3"/><path stroke-linecap="round" stroke-linejoin="round" d="M9.5 15L6 18l2 .5L9.5 20l2.5-4l2.5 4l1.5-1.5l2-.5l-3.5-3"/></g></svg>