<svg xmlns="http://www.w3.org/2000/svg" width="1em" height="1em" viewBox="0 0 24 24"><mask id="letsIconsSadAlt0" width="4" height="3" x="7" y="8" fill="#000" maskUnits="userSpaceOnUse"><path fill="#fff" d="M7 8h4v3H7z"/><path d="M9.5 9c.24 0 .36 0 .433.122c.073.123.03.201-.055.357a1 1 0 0 1-1.756 0c-.085-.156-.128-.234-.055-.357C8.14 9 8.26 9 8.5 9H9z"/></mask><mask id="letsIconsSadAlt1" width="4" height="3" x="13" y="8" fill="#000" maskUnits="userSpaceOnUse"><path fill="#fff" d="M13 8h4v3h-4z"/><path d="M15.5 9c.24 0 .36 0 .433.122c.073.123.03.201-.055.357a1 1 0 0 1-1.756 0c-.085-.156-.128-.234-.055-.357C14.14 9 14.26 9 14.5 9h.5z"/></mask><g fill="none"><circle cx="12" cy="12" r="10" stroke="currentColor" stroke-linecap="round" stroke-width="2"/><path stroke="currentColor" stroke-linecap="round" stroke-width="2" d="M7.881 16.244c.493-.427 1.142-.735 1.842-.937A8.308 8.308 0 0 1 12 15c.786 0 1.57.103 2.277.307c.7.202 1.35.51 1.842.937"/><path fill="currentColor" d="M9.5 9c.24 0 .36 0 .433.122c.073.123.03.201-.055.357a1 1 0 0 1-1.756 0c-.085-.156-.128-.234-.055-.357C8.14 9 8.26 9 8.5 9H9z"/><path stroke="currentColor" stroke-linecap="round" d="M9.5 9c.24 0 .36 0 .433.122c.073.123.03.201-.055.357a1 1 0 0 1-1.756 0c-.085-.156-.128-.234-.055-.357C8.14 9 8.26 9 8.5 9H9z" mask="url(#letsIconsSadAlt0)"/><path fill="currentColor" d="M15.5 9c.24 0 .36 0 .433.122c.073.123.03.201-.055.357a1 1 0 0 1-1.756 0c-.085-.156-.128-.234-.055-.357C14.14 9 14.26 9 14.5 9h.5z"/><path stroke="currentColor" stroke-linecap="round" d="M15.5 9c.24 0 .36 0 .433.122c.073.123.03.201-.055.357a1 1 0 0 1-1.756 0c-.085-.156-.128-.234-.055-.357C14.14 9 14.26 9 14.5 9h.5z" mask="url(#letsIconsSadAlt1)"/></g></svg>