<svg xmlns="http://www.w3.org/2000/svg" width="1em" height="1em" viewBox="0 0 24 24"><g fill="none"><path fill="currentColor" d="m7.096 8.025l.49.097zm.937-2.069l-.396-.304zm1.756-1.44l.22.448zm4.422 0l-.22.448zm1.756 1.44l-.397.305zm.937 2.069l.49-.098zM7.025 8.5l-.498-.05zm.899 6.882l.462.191zm-.541.54l.191.463zm9.234 0l.192-.461zm-.54-.54l.461-.192zm.898-6.882l.497-.05zm.525.999a3 3 0 0 1 3 3h1a4 4 0 0 0-4-4zm3 3a3 3 0 0 1-3 3v1a4 4 0 0 0 4-4zm-4 2v-2.444h-1V14.5zm0-2.444a1.5 1.5 0 0 0-1.5-1.5v1a.5.5 0 0 1 .5.5zm-1.5-1.5H9v1h6zm-6 0a1.5 1.5 0 0 0-1.5 1.5h1a.5.5 0 0 1 .5-.5zm-1.5 1.5V14.5h1v-2.444zm-1 3.444a3 3 0 0 1-3-3h-1a4 4 0 0 0 4 4zm-3-3a3 3 0 0 1 3-3v-1a4 4 0 0 0-4 4zm3.106-4.573c-.035.174-.06.349-.079.524l.995.1a4.77 4.77 0 0 1 .064-.429zm1.03-2.275a5.5 5.5 0 0 0-1.03 2.275l.98.195A4.5 4.5 0 0 1 8.43 6.26zm1.931-1.585a5.5 5.5 0 0 0-1.93 1.585l.793.609a4.5 4.5 0 0 1 1.58-1.297zM12 3.5a5.5 5.5 0 0 0-2.433.567l.443.897A4.5 4.5 0 0 1 12 4.5zm2.433.567A5.5 5.5 0 0 0 12 3.5v1a4.5 4.5 0 0 1 1.99.464zm1.93 1.585a5.5 5.5 0 0 0-1.93-1.585l-.443.897a4.5 4.5 0 0 1 1.58 1.297zm1.031 2.275a5.5 5.5 0 0 0-1.03-2.275l-.794.609a4.5 4.5 0 0 1 .843 1.861zm.079.524a5.482 5.482 0 0 0-.079-.524l-.98.195c.028.142.05.285.063.429zM6.5 9.5c.563 0 .972-.45 1.022-.95l-.995-.1a.072.072 0 0 1-.02.044a.027.027 0 0 1-.007.006zm1 5c0 .24 0 .395-.008.513a.58.58 0 0 1-.03.178l.924.383c.067-.163.092-.328.103-.493c.011-.16.011-.355.011-.581zm-1 2c.226 0 .42 0 .581-.01a1.57 1.57 0 0 0 .493-.104l-.383-.924a.575.575 0 0 1-.178.03a8.434 8.434 0 0 1-.513.008zm.962-1.309a.5.5 0 0 1-.27.27l.382.925a1.5 1.5 0 0 0 .812-.812zM17.5 15.5c-.24 0-.395 0-.513-.008a.574.574 0 0 1-.178-.03l-.383.924c.163.067.328.092.493.103c.16.011.355.011.581.011zm-2-1c0 .226 0 .42.01.581c.012.165.037.33.104.493l.924-.383a.574.574 0 0 1-.03-.178a8.434 8.434 0 0 1-.008-.513zm1.309.962a.5.5 0 0 1-.27-.27l-.925.382a1.5 1.5 0 0 0 .812.812zM17.5 8.5l-.008-.006a.072.072 0 0 1-.02-.043l-.995.1c.05.499.46.949 1.023.949z"/><rect width="8" height="10" x="8" y="11" stroke="currentColor" rx="2"/><path stroke="currentColor" stroke-linecap="round" d="M11.5 16h1"/></g></svg>