<svg xmlns="http://www.w3.org/2000/svg" width="1em" height="1em" viewBox="0 0 24 24"><g fill="none"><path fill="currentColor" fill-opacity=".25" fill-rule="evenodd" d="M16.975 8.5c.028.276.249.5.525.5a3.5 3.5 0 1 1 0 7c-.466 0-.699 0-.883-.076a1 1 0 0 1-.54-.541C16 15.199 16 14.966 16 14.5v-1.444a2 2 0 0 0-2-2h-4a2 2 0 0 0-2 2V14.5c0 .466 0 .699-.076.883a1 1 0 0 1-.541.54C7.199 16 6.966 16 6.5 16a3.5 3.5 0 1 1 0-7a.542.542 0 0 0 .525-.5a5 5 0 0 1 9.95 0" clip-rule="evenodd"/><path fill="currentColor" d="m7.096 8.025l.589.117zm.937-2.069l-.476-.365zm1.756-1.44l.265.538zm4.422 0l-.265.538zm1.756 1.44l-.476.365zm.937 2.069l.588-.118zM7.025 8.5l-.597-.06zm.899 6.882l.554.23zm-.541.54l.23.555zm9.234 0l.23-.553zm-.54-.54l.553-.23zm.898-6.882l.597-.06zm.525 1.1a2.9 2.9 0 0 1 2.9 2.9h1.2a4.1 4.1 0 0 0-4.1-4.1zm2.9 2.9a2.9 2.9 0 0 1-2.9 2.9v1.2a4.1 4.1 0 0 0 4.1-4.1zm-3.8 2v-1.444h-1.2V14.5zm0-1.444a2.6 2.6 0 0 0-2.6-2.6v1.2a1.4 1.4 0 0 1 1.4 1.4zm-2.6-2.6h-4v1.2h4zm-4 0a2.6 2.6 0 0 0-2.6 2.6h1.2a1.4 1.4 0 0 1 1.4-1.4zm-2.6 2.6V14.5h1.2v-1.444zM6.5 15.4a2.9 2.9 0 0 1-2.9-2.9H2.4a4.1 4.1 0 0 0 4.1 4.1zm-2.9-2.9a2.9 2.9 0 0 1 2.9-2.9V8.4a4.1 4.1 0 0 0-4.1 4.1zm2.908-4.593a5.6 5.6 0 0 0-.08.534l1.194.12c.014-.14.035-.28.063-.42zm1.05-2.316a5.6 5.6 0 0 0-1.05 2.316l1.177.235a4.4 4.4 0 0 1 .824-1.82zm1.965-1.613A5.6 5.6 0 0 0 7.557 5.59l.952.73a4.4 4.4 0 0 1 1.545-1.267zM12 3.4a5.6 5.6 0 0 0-2.477.578l.53 1.076A4.4 4.4 0 0 1 12 4.6zm2.477.578A5.6 5.6 0 0 0 12 3.4v1.2a4.4 4.4 0 0 1 1.946.454zm1.966 1.613a5.6 5.6 0 0 0-1.966-1.613l-.53 1.076A4.4 4.4 0 0 1 15.49 6.32zm1.05 2.316a5.6 5.6 0 0 0-1.05-2.316l-.952.73c.41.536.693 1.159.825 1.82zm.079.534a5.585 5.585 0 0 0-.08-.534l-1.177.235c.028.139.049.278.063.419zM6.5 9.6c.62 0 1.067-.496 1.122-1.04l-1.194-.12c0-.003.002-.01.01-.017a.075.075 0 0 1 .023-.015A.101.101 0 0 1 6.5 8.4zm.9 4.9c0 .241 0 .392-.008.506a.507.507 0 0 1-.022.147l1.108.46c.074-.178.1-.355.111-.525c.011-.165.011-.363.011-.588zm-.9 2.1c.225 0 .423 0 .588-.01c.17-.012.347-.038.524-.112l-.459-1.108a.512.512 0 0 1-.147.022a8.392 8.392 0 0 1-.506.008zm.87-1.447a.4.4 0 0 1-.217.217l.46 1.108a1.6 1.6 0 0 0 .865-.866zm10.13.247c-.241 0-.392 0-.506-.008a.512.512 0 0 1-.147-.022l-.46 1.108c.178.074.355.1.525.111c.165.011.363.011.588.011zm-2.1-.9c0 .225 0 .423.01.588c.012.17.038.347.112.524l1.108-.459a.512.512 0 0 1-.022-.147a8.391 8.391 0 0 1-.008-.506zm1.447.87a.4.4 0 0 1-.217-.217l-1.108.46a1.6 1.6 0 0 0 .866.865zM17.5 8.4c.013 0 .027.003.039.008c.011.005.018.01.023.015c.008.007.01.014.01.018l-1.194.12c.055.543.501 1.039 1.122 1.039z"/><rect width="8" height="10" x="8" y="11" stroke="currentColor" stroke-width="1.2" rx="2"/><path stroke="currentColor" stroke-linecap="round" stroke-width="1.2" d="M11.5 16h1"/></g></svg>