<svg xmlns="http://www.w3.org/2000/svg" width="1em" height="1em" viewBox="0 0 24 24"><path fill="currentColor" fill-opacity=".25" d="m5.31 6.693l-1.324 2.5C3.258 10.568 2.894 11.255 2.894 12c0 .745.364 1.432 1.092 2.807l1.324 2.5c.823 1.556 1.235 2.333 1.949 2.763c.714.43 1.594.43 3.354.43h2.774c1.76 0 2.64 0 3.354-.43s1.126-1.207 1.95-2.763l1.323-2.5c.728-1.375 1.092-2.062 1.092-2.807c0-.745-.364-1.432-1.092-2.807l-1.324-2.5c-.823-1.556-1.235-2.333-1.949-2.763c-.714-.43-1.594-.43-3.354-.43h-2.774c-1.76 0-2.64 0-3.354.43s-1.126 1.207-1.95 2.763"/><circle cx="12" cy="12" r="3" fill="currentColor"/></svg>