<svg xmlns="http://www.w3.org/2000/svg" width="1em" height="1em" viewBox="0 0 24 24"><path fill="currentColor" fill-opacity=".25" fill-rule="evenodd" d="M5.058 12a.058.058 0 0 0-.058.059V19c0 .943 0 1.414.293 1.707C5.586 21 6.057 21 7 21h10c.943 0 1.414 0 1.707-.293C19 20.414 19 19.943 19 19v-6.941a.059.059 0 0 0-.058-.059h-1.278c-.141 0-.318 0-.475-.017a1.487 1.487 0 0 1-.697-.25a.186.186 0 0 0-.207-.003a1.605 1.605 0 0 1-.666.24c-.222.03-.484.03-.709.03h-1.563c-.178 0-.393 0-.581-.024l-.645-.082c-.442-.054.2-.054-.242 0l-.645.082c-.188.024-.403.024-.581.024H9.09c-.225 0-.487 0-.709-.03a1.606 1.606 0 0 1-.666-.24a.186.186 0 0 0-.207.003c-.25.173-.504.228-.697.25a4.426 4.426 0 0 1-.475.017h-.029zm.876-1c-.497 0-.94-.445-.712-.886c.221-.43.632-.724 1.453-1.31l3-2.143C10.798 5.859 11.36 5.458 12 5.458c.64 0 1.202.4 2.325 1.203l3 2.143c.821.586 1.232.88 1.453 1.31c.227.441-.215.886-.712.886h-.373c-.335 0-.503 0-.631-.09a.503.503 0 0 1-.161-.203c-.044-.089-.087-.204-.144-.356l-.21-.56l-.434-1.156l-.017-.045c-.22-.585-.329-.878-.415-.857c-.087.021-.048.332.03.952l.005.047l.144 1.144c.048.386.078.63.031.8a.405.405 0 0 1-.083.155c-.149.169-.413.169-.94.169h-1.485c-.42 0-.63 0-.772-.125a.387.387 0 0 1-.087-.112c-.062-.116-.088-.284-.121-.54l-.013-.099l-.18-1.44l-.005-.046l-.007-.05c-.073-.588-.11-.882-.198-.882c-.088 0-.125.294-.198.882l-.007.05l-.005.045l-.18 1.441l-.013.1c-.032.255-.059.423-.12.54a.387.387 0 0 1-.088.11c-.141.126-.351.126-.772.126H9.133c-.528 0-.792 0-.941-.17a.373.373 0 0 1-.083-.154c-.047-.17-.017-.414.031-.8l.143-1.143v-.001l.006-.047c.078-.62.117-.93.03-.952c-.086-.021-.196.272-.415.857l-.017.044v.001L7.454 9.79l-.21.561c-.058.152-.1.267-.145.356a.504.504 0 0 1-.16.204c-.13.089-.297.089-.632.089z" clip-rule="evenodd"/><path fill="currentColor" d="M4.621 4.515c.182-.728.273-1.091.544-1.303C5.437 3 5.812 3 6.562 3h10.876c.75 0 1.125 0 1.397.212c.27.212.362.575.544 1.303l1.466 5.864c.071.286.107.429.032.525c-.075.096-.223.096-.517.096h-2.616c-.358 0-.538 0-.67-.099c-.133-.099-.185-.27-.288-.614l-.689-2.295c-.216-.722-.324-1.083-.414-1.066c-.089.018-.051.393.024 1.143L15.89 9.9c.051.514.077.771-.072.935c-.149.165-.407.165-.923.165h-1.49c-.43 0-.645 0-.788-.13c-.143-.128-.164-.342-.207-.77l-.211-2.11c-.072-.723-.108-1.085-.199-1.085c-.09 0-.127.362-.199 1.085l-.211 2.11c-.043.428-.064.642-.207.77c-.143.13-.358.13-.788.13h-1.49c-.516 0-.774 0-.923-.165c-.15-.164-.123-.42-.072-.935l.183-1.831c.075-.75.113-1.125.023-1.143c-.089-.017-.197.344-.413 1.066l-.69 2.295c-.102.344-.154.515-.287.614c-.132.099-.312.099-.67.099H3.64c-.294 0-.442 0-.517-.096c-.075-.096-.04-.24.032-.525zM12.5 15h-1a2 2 0 0 0-2 2v3.85c0 .083.067.15.15.15h4.7a.15.15 0 0 0 .15-.15V17a2 2 0 0 0-2-2"/></svg>