<svg xmlns="http://www.w3.org/2000/svg" width="1em" height="1em" viewBox="0 0 24 24"><g fill="none"><path fill="currentColor" fill-opacity=".25" fill-rule="evenodd" d="M3.173 13.756a9 9 0 0 0 2.358 4.501c.057.06.153.06.211 0l4.03-4.03a.156.156 0 0 1 .215-.002A2.99 2.99 0 0 0 12 15a2.99 2.99 0 0 0 2.013-.775a.156.156 0 0 1 .214.002l4.03 4.03a.148.148 0 0 0 .212 0a9 9 0 1 0-15.296-4.501" clip-rule="evenodd"/><path stroke="currentColor" stroke-linecap="round" stroke-linejoin="round" stroke-width="2" d="m12 12l5-3"/></g></svg>