<svg xmlns="http://www.w3.org/2000/svg" width="1em" height="1em" viewBox="0 0 24 24"><g fill="none"><path stroke="currentColor" stroke-width="2" d="M9 18H5a2 2 0 0 1-2-2V6a2 2 0 0 1 2-2h12a2 2 0 0 1 2 2v2M4 8h16M4 13h5"/><path stroke="currentColor" stroke-width="2" d="M11.54 16.972a2 2 0 0 1 0-1.944l.676-1.213l.712-1.19a2 2 0 0 1 1.684-.973L16 11.63l1.388.022a2 2 0 0 1 1.684.972l.713 1.191l.674 1.213a2 2 0 0 1 0 1.944l-.674 1.213l-.713 1.19a2 2 0 0 1-1.684.973L16 20.37l-1.388-.022a2 2 0 0 1-1.684-.972l-.713-1.191z"/><circle cx="16" cy="16" r="1" fill="currentColor"/></g></svg>