<svg xmlns="http://www.w3.org/2000/svg" width="1em" height="1em" viewBox="0 0 24 24"><g fill="none" stroke="currentColor"><path d="M3 8.5c0-1.398 0-2.097.228-2.648a3 3 0 0 1 1.624-1.624C5.403 4 6.102 4 7.5 4h9c1.398 0 2.097 0 2.648.228a3 3 0 0 1 1.624 1.624C21 6.403 21 7.102 21 8.5v.75a.75.75 0 0 1-.75.75H20a2 2 0 1 0 0 4h.25a.75.75 0 0 1 .75.75v.75c0 1.398 0 2.097-.228 2.648a3 3 0 0 1-1.624 1.624C18.597 20 17.898 20 16.5 20h-9c-1.398 0-2.097 0-2.648-.228a3 3 0 0 1-1.624-1.624C3 17.597 3 16.898 3 15.5v-.75a.75.75 0 0 1 .75-.75H4a2 2 0 1 0 0-4h-.25A.75.75 0 0 1 3 9.25z"/><path fill="currentColor" d="M11.557 10.689c.168-.435.252-.653.388-.683a.254.254 0 0 1 .11 0c.136.03.22.248.388.682c.096.248.144.372.233.456a.53.53 0 0 0 .081.063c.104.064.233.076.491.1c.437.04.656.061.722.19a.28.28 0 0 1 .028.086c.022.145-.138.297-.46.6l-.089.084c-.15.142-.225.213-.269.301a.56.56 0 0 0-.051.17c-.014.098.008.2.052.406l.016.074c.079.369.118.553.069.644a.26.26 0 0 1-.216.138c-.1.005-.241-.114-.524-.353c-.185-.158-.278-.236-.382-.267a.505.505 0 0 0-.288 0c-.104.03-.197.11-.383.267c-.282.239-.423.358-.523.353a.26.26 0 0 1-.216-.138c-.049-.09-.01-.275.07-.644l.015-.074c.044-.205.066-.308.052-.406a.56.56 0 0 0-.051-.17c-.044-.088-.119-.16-.269-.3l-.09-.085c-.32-.303-.481-.455-.459-.6a.28.28 0 0 1 .028-.086c.067-.129.285-.15.722-.19c.258-.024.387-.036.49-.1a.53.53 0 0 0 .082-.063c.09-.084.137-.208.233-.456Z"/></g></svg>