<svg xmlns="http://www.w3.org/2000/svg" width="1em" height="1em" viewBox="0 0 24 24"><path fill="currentColor" fill-rule="evenodd" d="M18.252 3.427a.5.5 0 0 1 .748.435v16.276a.5.5 0 0 1-.748.434l-2.256-1.288a1 1 0 0 0-.992 0l-2.21 1.262a1.6 1.6 0 0 1-1.588 0l-2.21-1.262a1 1 0 0 0-.992 0l-2.256 1.289A.5.5 0 0 1 5 20.138V3.862a.5.5 0 0 1 .748-.435l2.256 1.29a1 1 0 0 0 .992 0l2.21-1.263a1.6 1.6 0 0 1 1.588 0l2.21 1.262a1 1 0 0 0 .992 0zM9.5 9a.5.5 0 1 0 0 1h5a.5.5 0 0 0 0-1zm0 2.5a.5.5 0 0 0 0 1h5a.5.5 0 0 0 0-1zm0 2.5a.5.5 0 0 0 0 1h5a.5.5 0 0 0 0-1z" clip-rule="evenodd"/></svg>