<svg xmlns="http://www.w3.org/2000/svg" width="1em" height="1em" viewBox="0 0 24 24"><path fill="currentColor" d="m5.915 4.558l.097.49zM3.558 6.915l.49.097zm0 10.17l-.49.098zm2.357 2.357l-.098.49zm6.936-11.43l-.075-.495zm0 5l-.075-.495zm0 5l-.075-.495zm0-7.023l.074-.495zm0 5l-.075.494zm.074-10.495A.5.5 0 0 1 12.5 5h-1a1.5 1.5 0 0 0 1.276 1.483zM12.5 5v-.35h-1V5zm-.65-1h-4.6v1h4.6zm-4.6 0c-.673 0-1.083-.002-1.433.067l.195.981C6.242 5.002 6.53 5 7.25 5zm-1.433.067a3.5 3.5 0 0 0-2.75 2.75l.981.195a2.5 2.5 0 0 1 1.964-1.964zm-2.75 2.75c-.07.35-.067.76-.067 1.433h1c0-.721.002-1.008.048-1.238zM3 8.25v.5h1v-.5zm0 .5C3 9.44 3.56 10 4.25 10V9A.25.25 0 0 1 4 8.75zM4.25 10c.966 0 1.75.784 1.75 1.75h1A2.75 2.75 0 0 0 4.25 9zM6 11.75v.5h1v-.5zm0 .5A1.75 1.75 0 0 1 4.25 14v1A2.75 2.75 0 0 0 7 12.25zM4.25 14C3.56 14 3 14.56 3 15.25h1a.25.25 0 0 1 .25-.25zM3 15.25v.5h1v-.5zm0 .5c0 .673-.002 1.082.067 1.433l.981-.195C4.002 16.758 4 16.47 4 15.75zm.067 1.433a3.5 3.5 0 0 0 2.75 2.75l.195-.981a2.5 2.5 0 0 1-1.964-1.964zm2.75 2.75c.35.07.76.067 1.433.067v-1c-.721 0-1.008-.002-1.238-.048zM7.25 20h4.6v-1h-4.6zm5.25-.65V19h-1v.35zm0-.35a.5.5 0 0 1 .425-.494l-.149-.99A1.5 1.5 0 0 0 11.5 19zm0-2.85v1.7h1v-1.7zm-1-1.15a1.5 1.5 0 0 0 1.276 1.483l.149-.989A.5.5 0 0 1 12.5 15zm0-1v1h1v-1zm1.276-1.483A1.5 1.5 0 0 0 11.5 14h1a.5.5 0 0 1 .425-.494zM12.5 11.15v1.7h1v-1.7zm-1-1.15a1.5 1.5 0 0 0 1.276 1.483l.149-.989A.5.5 0 0 1 12.5 10zm0-1v1h1V9zm1.276-1.483A1.5 1.5 0 0 0 11.5 9h1a.5.5 0 0 1 .425-.494zM12.5 6.15v1.7h1v-1.7zm.425 2.356a.669.669 0 0 0 .575-.656h-1a.33.33 0 0 1 .276-.333zm0 5a.669.669 0 0 0 .575-.656h-1a.33.33 0 0 1 .276-.333zm0 5a.669.669 0 0 0 .575-.656h-1a.33.33 0 0 1 .276-.333zM11.85 20a.65.65 0 0 0 .65-.65h-1a.35.35 0 0 1 .35-.35zm1.65-8.85a.669.669 0 0 0-.575-.656l-.149.99a.331.331 0 0 1-.276-.334zm-1-6.5a.65.65 0 0 0-.65-.65v1a.35.35 0 0 1-.35-.35zm1 11.5a.669.669 0 0 0-.575-.656l-.149.99a.331.331 0 0 1-.276-.334zm-.724-9.667a.331.331 0 0 1-.276-.333h1a.669.669 0 0 0-.575-.656z"/><path fill="currentColor" fill-opacity=".25" d="m18.085 19.442l.098.49zm2.357-2.357l.49.098zm0-10.17l.49-.098zm-2.357-2.357l.098-.49zM15 18.5a.5.5 0 0 1 .5.5h1a1.5 1.5 0 0 0-1.5-1.5zm.5.5v.35h1V19zm.65 1h.6v-1h-.6zm.6 0c.673 0 1.082.002 1.433-.067l-.195-.981c-.23.046-.517.048-1.238.048zm1.433-.067a3.5 3.5 0 0 0 2.75-2.75l-.981-.195a2.5 2.5 0 0 1-1.964 1.964zm2.75-2.75c.07-.35.067-.76.067-1.433h-1c0 .72-.002 1.008-.048 1.238zM21 15.75v-.5h-1v.5zm0-.5c0-.69-.56-1.25-1.25-1.25v1a.25.25 0 0 1 .25.25zM19.75 14A1.75 1.75 0 0 1 18 12.25h-1A2.75 2.75 0 0 0 19.75 15zM18 12.25v-.5h-1v.5zm0-.5c0-.966.784-1.75 1.75-1.75V9A2.75 2.75 0 0 0 17 11.75zM19.75 10c.69 0 1.25-.56 1.25-1.25h-1a.25.25 0 0 1-.25.25zM21 8.75v-.5h-1v.5zm0-.5c0-.673.002-1.083-.067-1.433l-.981.195c.046.23.048.517.048 1.238zm-.067-1.433a3.5 3.5 0 0 0-2.75-2.75l-.195.981a2.5 2.5 0 0 1 1.964 1.964zm-2.75-2.75c-.35-.07-.76-.067-1.433-.067v1c.72 0 1.008.002 1.238.048zM16.75 4h-.6v1h.6zm-1.25.65V5h1v-.35zm0 .35a.5.5 0 0 1-.5.5v1A1.5 1.5 0 0 0 16.5 5zm0 3V6h-1v2zm1 1A1.5 1.5 0 0 0 15 7.5v1a.5.5 0 0 1 .5.5zm0 1V9h-1v1zM15 11.5a1.5 1.5 0 0 0 1.5-1.5h-1a.5.5 0 0 1-.5.5zm.5 1.5v-2h-1v2zm1 1a1.5 1.5 0 0 0-1.5-1.5v1a.5.5 0 0 1 .5.5zm0 1v-1h-1v1zM15 16.5a1.5 1.5 0 0 0 1.5-1.5h-1a.5.5 0 0 1-.5.5zm.5 1.5v-2h-1v2zm-1-5a.5.5 0 0 0 .5.5v-1a.5.5 0 0 1 .5.5zm.5-2.5a.5.5 0 0 0-.5.5h1a.5.5 0 0 1-.5.5zm0 5a.5.5 0 0 0-.5.5h1a.5.5 0 0 1-.5.5zm0 2a.5.5 0 0 1 .5.5h-1a.5.5 0 0 0 .5.5zM14.5 8a.5.5 0 0 0 .5.5v-1a.5.5 0 0 1 .5.5zm.5-2.5a.5.5 0 0 0-.5.5h1a.5.5 0 0 1-.5.5zM16.15 4a.65.65 0 0 0-.65.65h1a.35.35 0 0 1-.35.35zm-.65 15.35c0 .359.291.65.65.65v-1a.35.35 0 0 1 .35.35z"/></svg>