<svg xmlns="http://www.w3.org/2000/svg" width="1em" height="1em" viewBox="0 0 24 24"><path fill="currentColor" d="m8 20l-.354.354l.354.353l.354-.353L8 20Zm0-8h-.5h.5Zm2-1.5a.5.5 0 0 0 0-1v1Zm-6.354 5.854l4 4l.708-.708l-4-4l-.708.708Zm4.708 4l4-4l-.708-.708l-4 4l.708.708ZM8.5 20v-8h-1v8h1Zm0-8a1.5 1.5 0 0 1 1.5-1.5v-1A2.5 2.5 0 0 0 7.5 12h1ZM16 4l-.354-.354l.354-.353l.354.353L16 4Zm0 8h.5h-.5Zm-2 2.5a.5.5 0 0 1 0-1v1Zm-2.354-6.854l4-4l.708.708l-4 4l-.708-.708Zm4.708-4l4 4l-.708.708l-4-4l.708-.708ZM16.5 4v8h-1V4h1Zm0 8a2.5 2.5 0 0 1-2.5 2.5v-1a1.5 1.5 0 0 0 1.5-1.5h1Z"/></svg>