<svg xmlns="http://www.w3.org/2000/svg" width="1em" height="1em" viewBox="0 0 24 24"><g fill="none"><path fill="currentColor" fill-rule="evenodd" d="M15.92 12.799a4 4 0 0 0-4.719-4.719l.923.923a3 3 0 0 1 2.874 2.873zm-6.527-2.285a3 3 0 0 0 4.093 4.093l.726.726a4 4 0 0 1-5.545-5.545z" clip-rule="evenodd"/><path fill="currentColor" fill-rule="evenodd" d="m16.154 17.275l-.735-.734c-1.064.579-2.22.959-3.419.959c-1.672 0-3.262-.74-4.633-1.726c-1.367-.984-2.474-2.182-3.17-3.026c-.423-.515-.467-.604-.467-.748c0-.143.044-.233.468-.748c.67-.812 1.72-1.953 3.018-2.915L6.5 7.623c-1.33 1.007-2.396 2.17-3.074 2.993l-.059.072c-.33.399-.637.77-.637 1.312s.307.913.637 1.312l.059.072c.725.88 1.894 2.149 3.357 3.201C8.243 17.635 10.036 18.5 12 18.5c1.51 0 2.92-.511 4.154-1.225M9.19 6.07c.88-.35 1.824-.569 2.81-.569c1.964 0 3.758.865 5.217 1.915c1.463 1.052 2.632 2.321 3.357 3.201l.059.072c.33.399.637.77.637 1.312s-.307.913-.637 1.312l-.059.072a19.988 19.988 0 0 1-1.983 2.086l-.708-.708a18.943 18.943 0 0 0 1.92-2.014c.424-.515.467-.604.467-.748c0-.143-.043-.233-.468-.748c-.695-.844-1.802-2.042-3.17-3.026C15.263 7.24 13.673 6.5 12 6.5c-.694 0-1.375.128-2.031.348z" clip-rule="evenodd"/><path stroke="currentColor" d="m5 2l16 16"/></g></svg>