<svg xmlns="http://www.w3.org/2000/svg" width="1em" height="1em" viewBox="0 0 24 24"><defs><mask id="letsIconsViewDuotoneLine0"><g fill="none" stroke-width="1.2"><circle cx="12" cy="12" r="3.4" stroke="#fff"/><path stroke="silver" stroke-opacity=".25" d="M20.188 10.934c.388.472.582.707.582 1.066c0 .359-.194.594-.582 1.066C18.768 14.79 15.636 18 12 18c-3.636 0-6.768-3.21-8.188-4.934c-.388-.472-.582-.707-.582-1.066c0-.359.194-.594.582-1.066C5.232 9.21 8.364 6 12 6c3.636 0 6.768 3.21 8.188 4.934Z"/></g></mask></defs><path fill="currentColor" d="M0 0h24v24H0z" mask="url(#letsIconsViewDuotoneLine0)"/></svg>