<svg xmlns="http://www.w3.org/2000/svg" width="1em" height="1em" viewBox="0 0 24 24"><defs><path id="letsIconsViewHideDuotone0" fill="currentColor" d="M15.92 12.799a4 4 0 0 0-4.719-4.719zM8.667 9.788a4 4 0 0 0 5.545 5.545z"/></defs><g fill="none"><use href="#letsIconsViewHideDuotone0" fill-rule="evenodd" clip-rule="evenodd"/><path fill="currentColor" fill-opacity=".25" fill-rule="evenodd" d="m15.787 16.909l-8.929-8.93c-1.314.986-2.373 2.138-3.046 2.955c-.388.472-.582.707-.582 1.066c0 .359.194.594.582 1.066C5.232 14.79 8.364 18 12 18c1.353 0 2.636-.445 3.787-1.091M9.577 6.456A6.988 6.988 0 0 1 12 6c3.636 0 6.768 3.21 8.188 4.934c.388.472.582.707.582 1.066c0 .359-.194.594-.582 1.066a19.456 19.456 0 0 1-1.95 2.05z" clip-rule="evenodd"/><use href="#letsIconsViewHideDuotone0" fill-rule="evenodd" clip-rule="evenodd"/><path stroke="currentColor" stroke-width="1.2" d="m8 5l12 12"/></g></svg>