<svg xmlns="http://www.w3.org/2000/svg" width="1em" height="1em" viewBox="0 0 24 24"><g fill="none" stroke="currentColor" stroke-width="1.2"><circle cx="12" cy="12" r="8" fill="currentColor" fill-opacity=".25"/><path d="M18.572 6.421c-.724.782-1.685 1.424-2.805 1.872A10.17 10.17 0 0 1 12.133 9a10.273 10.273 0 0 1-3.664-.615C7.33 7.964 6.34 7.346 5.583 6.583m12.989 10.996c-.724-.782-1.685-1.424-2.805-1.872A10.17 10.17 0 0 0 12.133 15a10.272 10.272 0 0 0-3.664.615c-1.139.42-2.128 1.038-2.886 1.801M12 4v16m8-8H4"/></g></svg>