<svg xmlns="http://www.w3.org/2000/svg" width="1em" height="1em" viewBox="0 0 24 24"><path fill="currentColor" d="M24 2.344v19.312A2.345 2.345 0 0 1 21.656 24H2.344A2.345 2.345 0 0 1 0 21.656V2.344A2.345 2.345 0 0 1 2.344 0h19.312A2.345 2.345 0 0 1 24 2.344m-13.328-.586l-.41.709l5.021 8.693l5.43-9.402zm2.213 7.702H11.12a.901.901 0 0 0-.75.446l-.925 1.605l-.007.011a.901.901 0 0 0 0 .872l.924 1.599l.01.017a.893.893 0 0 0 .755.428c.002 0 1.178.001 1.765-.002a.888.888 0 0 0 .75-.436c.311-.539.624-1.077.933-1.617a.879.879 0 0 0-.006-.863l-.008-.013l-.921-1.595l-.005-.008a.897.897 0 0 0-.75-.444M2.36 22.18L9.699 9.475H6.215l-4.457 7.717l.002 4.182a.94.94 0 0 0 .6.806m11.844.062l-5.479-9.486l-5.485 9.486zM12.926 8.676l-3.125-5.41l-3.125 5.41zm9.316 6.56H11.08l4.046 7.006h6.197a.938.938 0 0 0 .919-.937zm-.635-13.428l-7.295 12.63h7.93V2.695a.938.938 0 0 0-.635-.887"/></svg>