<svg xmlns="http://www.w3.org/2000/svg" width="1em" height="1em" viewBox="0 0 24 24"><path fill="currentColor" d="M23.994 15.133c.079 1.061-.668 1.927-1.69 2.005a1.8 1.8 0 0 1-1.928-1.651c-.078-1.062.63-1.849 1.691-1.967c1.023-.078 1.849.59 1.927 1.613m-12.623 4.955c-.944 0-1.73.786-1.73 1.809c0 1.14.747 1.848 1.887 1.848c.904-.04 1.691-.865 1.691-1.809c0-.983-.904-1.848-1.848-1.848m1.061-9.675c-.039-.865-.078-1.73.08-2.556c.156-.944.314-1.887.904-2.674c.707-.983 1.809-.944 2.399.118c.314.511.432 1.062.471 1.652c0 .354.158.432.472.393c.944-.157 1.888-.157 2.792.197c.118.039.236.118.394 0c.314-.276.393-1.652.196-2.006c-.354-.63-.904-.55-1.455-.55c-.629.039-1.18-.158-1.612-.67c-.393-.471-.511-1.06-.59-1.65c-.04-.276-.079-.512-.315-.709c-.55-.55-1.809-.432-2.477.118c-2.556 2.045-2.989 5.467-1.534 8.18c.04.118.118.236.275.157m7.984 3.658c.354-.511.865-.747 1.415-.983a.973.973 0 0 0 .59-.472c.354-.669-.078-1.81-.747-2.36c-2.595-2.006-5.938-1.612-8.18.433c-.118.078-.157.196-.078.314c.786-.236 1.612-.472 2.477-.51c.905-.08 1.848-.158 2.753.235c1.14.472 1.337 1.534.472 2.36c-.393.393-.905.668-1.455.825c-.315.08-.354.236-.236.551c.354.865.59 1.77.472 2.753c-.04.157-.079.275.078.393c.354.236 1.691 0 1.967-.275c.511-.472.314-1.023.196-1.534c-.157-.63-.078-1.219.276-1.73m-7.197-2.045c-.118-.079-.197-.118-.315 0c.472.708.905 1.455 1.259 2.241c.314.866.668 1.73.55 2.714c-.118 1.18-1.1 1.69-2.123 1.101c-.511-.275-.905-.669-1.22-1.14c-.196-.276-.393-.276-.629-.08c-.747.63-1.533 1.102-2.516 1.26c-.158 0-.315 0-.394.157c-.118.393.472 1.612.826 1.809c.59.354 1.062 0 1.534-.276c.55-.314 1.101-.432 1.73-.236c.59.197.983.63 1.337 1.102c.158.196.315.353.63.432c.747.197 1.77-.59 2.084-1.376c1.18-3.028-.157-6.135-2.753-7.708m-2.556 2.438c.472-.669.826-1.416.983-2.202c-.157-.04-.197.04-.315.078c-.904.944-1.848 1.849-3.067 2.478c-.472.236-.983.433-1.534.433c-.865 0-1.376-.551-1.298-1.416a2.92 2.92 0 0 1 .787-1.849c.236-.275.236-.432-.04-.668c-.786-.55-1.494-1.22-1.848-2.124c-.078-.275-.275-.275-.51-.157a4.293 4.293 0 0 0-.434.236c-1.022.63-1.14 1.416-.275 2.28c.63.63.944 1.338.708 2.203c-.118.433-.354.747-.63 1.101a.95.95 0 0 0-.235.787c.079.747.826 1.494 1.73 1.573c2.517.236 4.562-.63 5.978-2.753m-4.68-5.152c1.376 1.18 3.067 1.455 4.837 1.377c.157 0 .315 0 .354-.118c.04-.197-.157-.197-.275-.236c-.826-.354-1.691-.63-2.438-1.14S6.848 8.25 6.534 7.266c-.236-.747.078-1.415.825-1.651c.669-.236 1.337-.236 1.967 0c.393.157.55.078.629-.354c.118-.747.354-1.455.826-2.085c.55-.786.55-.865-.354-1.376c-.04 0-.04-.04-.079-.04c-.865-.471-1.534-.196-1.848.709c-.472 1.376-1.377 1.887-2.832 1.612a3.657 3.657 0 0 0-.472-.079c-.747.118-1.18.55-1.297 1.14c-.158 1.81.786 3.107 2.084 4.17m-2.32 3.658c-.079-.944-1.023-1.652-2.045-1.534c-.905.079-1.691 1.022-1.613 1.966c.08.983 1.023 1.77 1.967 1.652c1.14-.079 1.73-1.18 1.69-2.084zm15.18-8.298c.943-.079 1.73-.983 1.651-1.927c-.078-.983-1.022-1.77-2.005-1.691c-1.023.079-1.73.983-1.652 1.966s.983 1.73 2.006 1.652m-12.27-.826c1.062-.157 1.77-1.023 1.652-2.045C8.107.897 7.163.149 6.18.267c-1.062.118-1.691.944-1.573 2.085c.118.865 1.061 1.612 1.966 1.494"/></svg>