<svg xmlns="http://www.w3.org/2000/svg" width="1em" height="1em" viewBox="0 0 24 24"><path fill="currentColor" d="M14.845 9.408c-1.39 1.02-3.405 1.563-5.142 1.563a9.333 9.333 0 0 1-6.277-2.383c-.131-.117-.014-.277.142-.185a12.693 12.693 0 0 0 6.285 1.658a12.54 12.54 0 0 0 4.791-.977c.236-.098.433.154.203.324zm.579-.656c-.179-.226-1.175-.109-1.623-.055c-.137.016-.158-.103-.035-.187c.796-.556 2.099-.396 2.25-.21c.155.187-.04 1.488-.785 2.11c-.115.096-.224.044-.172-.083c.168-.416.543-1.35.365-1.575m-1.592-4.17v-.54c0-.082.062-.137.137-.137h2.435c.078 0 .14.055.14.135v.464c0 .078-.066.18-.185.34L15.1 6.635c.468-.01.965.06 1.39.297a.243.243 0 0 1 .129.212v.574c0 .082-.089.172-.179.123a2.816 2.816 0 0 0-2.572.006c-.086.045-.174-.045-.174-.125v-.548c0-.088.002-.238.09-.37l1.462-2.089h-1.271c-.078 0-.142-.053-.144-.135zm4.808-.747c1.1 0 1.694.94 1.694 2.133c0 1.153-.656 2.068-1.694 2.068c-1.079 0-1.665-.94-1.665-2.109c0-1.177.594-2.092 1.665-2.092m.006.771c-.545 0-.58.739-.58 1.202c0 .462-.006 1.449.574 1.449c.574 0 .601-.796.601-1.282c0-.318-.014-.7-.11-1.001c-.083-.263-.249-.368-.485-.368m-6.008 3.342c-.049.04-.14.045-.174.016a1.907 1.907 0 0 1-.425-.492c-.406.412-.695.537-1.222.537c-.622 0-1.108-.383-1.108-1.148a1.251 1.251 0 0 1 .79-1.204c.402-.177.964-.208 1.393-.257c0 0 .035-.461-.09-.63a.521.521 0 0 0-.417-.19c-.273 0-.54.147-.593.433c-.014.082-.074.151-.14.143l-.707-.076a.13.13 0 0 1-.11-.154c.163-.865.949-1.128 1.655-1.128c.36 0 .83.097 1.115.367c.36.335.327.78.327 1.268v1.149c0 .344.143.496.279.68c.047.068.057.148-.002.198c-.152.125-.57.488-.57.488zm-.746-1.797v-.16c-.536 0-1.102.115-1.102.743c0 .318.166.533.451.533c.206 0 .394-.127.513-.335c.144-.256.138-.494.138-.781M2.928 7.948c-.047.041-.138.045-.173.016c-.254-.195-.424-.492-.424-.492c-.408.412-.696.537-1.223.537c-.623 0-1.107-.383-1.107-1.148a1.251 1.251 0 0 1 .79-1.204c.401-.177.963-.207 1.392-.257c0 0 .035-.461-.09-.63a.521.521 0 0 0-.417-.19c-.274 0-.539.148-.592.433c-.015.082-.076.151-.14.143l-.71-.076a.13.13 0 0 1-.108-.154c.162-.865.95-1.128 1.655-1.128c.361 0 .83.097 1.116.367c.359.335.324.78.324 1.268v1.149c0 .344.144.496.279.68c.047.068.057.148-.002.198c-.152.125-.57.488-.57.488m-.745-1.797v-.16c-.535 0-1.101.115-1.101.743c0 .318.164.533.45.533c.206 0 .395-.127.514-.334c.143-.257.137-.495.137-.782m2.913-.334v2.002a.138.138 0 0 1-.14.137h-.738a.137.137 0 0 1-.14-.137V4.053a.138.138 0 0 1 .14-.138h.691a.137.137 0 0 1 .138.138v.482h.014c.18-.476.519-.7.974-.7c.464 0 .753.224.962.7a1.052 1.052 0 0 1 1.022-.7c.312 0 .65.127.857.415c.236.318.187.779.187 1.185v2.386c0 .076-.064.135-.144.135h-.738a.137.137 0 0 1-.133-.135V5.817c0-.16.014-.558-.02-.708c-.056-.256-.222-.328-.438-.328a.492.492 0 0 0-.44.312c-.077.19-.07.508-.07.724V7.82c0 .076-.064.135-.144.135h-.739a.137.137 0 0 1-.133-.135V5.817c0-.423.068-1.042-.457-1.042c-.534 0-.513.603-.513 1.042zm16.808 2.002a.137.137 0 0 1-.138.137h-.74a.137.137 0 0 1-.138-.137V4.053a.137.137 0 0 1 .138-.138h.683c.082 0 .14.064.14.107v.576h.014c.205-.517.496-.763 1.009-.763c.332 0 .656.12.863.445c.193.304.193.813.193 1.178v2.379a.14.14 0 0 1-.141.119h-.743a.14.14 0 0 1-.131-.119V5.552c0-.763-.293-.786-.464-.786c-.197 0-.357.154-.424.296a1.703 1.703 0 0 0-.123.722zM.19 20.059c-.127 0-.19-.062-.19-.192v-4.449c0-.127.063-.19.19-.19h.425c.062 0 .113.014.148.039c.035.024.06.073.072.143l.057.304c.613-.419 1.21-.628 1.79-.628c.596 0 .998.226 1.209.677c.632-.451 1.263-.677 1.895-.677c.441 0 .78.123 1.016.37c.236.25.354.602.354 1.058v3.354c0 .127-.065.19-.192.19H6.4c-.128 0-.193-.061-.193-.19v-3.085c0-.319-.062-.554-.18-.706c-.124-.154-.315-.23-.575-.23c-.468 0-.936.144-1.41.43a.997.997 0 0 1 .01.142v3.448c0 .128-.063.191-.19.191h-.566c-.127 0-.19-.061-.19-.19v-3.085c0-.319-.062-.554-.183-.706c-.123-.154-.314-.23-.575-.23a2.6 2.6 0 0 0-1.399.42v3.6c0 .128-.061.191-.19.191zm9.731.143c-.453 0-.8-.127-1.044-.382c-.242-.254-.363-.613-.363-1.077v-3.32c0-.13.062-.193.191-.193h.564c.13 0 .193.063.193.19v3.022c0 .342.066.595.201.757c.133.162.349.242.642.242c.46 0 .923-.152 1.389-.458v-3.565c0-.127.061-.19.19-.19h.565c.129 0 .192.063.192.19v4.452c0 .125-.063.188-.192.188h-.41a.26.26 0 0 1-.15-.037c-.035-.026-.058-.073-.072-.143l-.066-.333c-.595.437-1.204.657-1.83.657m5.44 0c-.537 0-1.02-.088-1.446-.267a.375.375 0 0 1-.158-.105a.308.308 0 0 1-.043-.18v-.269c0-.115.037-.172.115-.172c.045 0 .123.02.238.058c.423.133.862.199 1.313.199c.314 0 .552-.062.714-.181c.164-.121.244-.295.244-.523a.492.492 0 0 0-.148-.373a1.606 1.606 0 0 0-.541-.285l-.815-.304c-.71-.26-1.062-.706-1.062-1.333c0-.415.16-.75.484-1.001c.322-.255.744-.382 1.267-.382a3.487 3.487 0 0 1 1.217.22a.338.338 0 0 1 .164.098c.03.041.047.103.047.185v.258c0 .115-.041.172-.123.172a.862.862 0 0 1-.222-.047a3.55 3.55 0 0 0-1.035-.154c-.612 0-.92.208-.92.62c0 .164.052.295.155.39c.102.096.303.2.603.315l.746.288c.378.143.648.318.815.519c.166.198.248.457.248.775c0 .451-.168.81-.507 1.077c-.338.266-.788.4-1.35.4zm3.065-.144c-.127 0-.193-.061-.193-.19v-4.45c0-.127.066-.19.193-.19h.564c.127 0 .193.063.193.19v4.452c0 .125-.066.188-.193.188zm.287-5.688c-.185 0-.33-.051-.437-.156a.558.558 0 0 1-.158-.414a.56.56 0 0 1 .158-.414a.59.59 0 0 1 .437-.158c.185 0 .328.053.435.158a.549.549 0 0 1 .158.414c0 .17-.051.308-.158.414a.596.596 0 0 1-.435.156m4.002 5.793c-.753 0-1.33-.213-1.727-.642c-.4-.43-.6-1.05-.6-1.863c0-.806.206-1.432.618-1.873c.41-.44.995-.662 1.748-.662c.344 0 .683.062 1.015.183c.07.024.12.055.148.094s.043.103.043.19v.257c0 .127-.041.19-.123.19a.605.605 0 0 1-.154-.028a2.83 2.83 0 0 0-.796-.113c-.535 0-.923.134-1.159.404s-.353.7-.353 1.293v.123c0 .576.12 1 .36 1.272c.24.268.617.404 1.134.404c.266 0 .554-.043.861-.134a.614.614 0 0 1 .144-.028c.082 0 .125.063.125.19v.259c0 .082-.012.143-.039.18a.329.329 0 0 1-.152.103c-.314.135-.677.2-1.093.2z"/></svg>