<svg xmlns="http://www.w3.org/2000/svg" width="1em" height="1em" viewBox="0 0 24 24"><path fill="currentColor" d="m19.351 15.563l-5.486-7.941a2.684 2.684 0 0 0-.702-.702c-.276-.188-.62-.283-1.03-.283c-.43 0-.784.101-1.064.302c-.28.202-.512.43-.696.683l-5.63 7.94h3.215l4.122-5.827l1.575 2.323c.148.21.304.436.466.676c.161.24.304.44.426.597a9.106 9.106 0 0 0-.741-.026H10.78l-1.64 2.258zM12 24C5.373 24 0 18.627 0 12S5.373 0 12 0s12 5.373 12 12s-5.373 12-12 12m0-21.61a9.61 9.61 0 1 0 0 19.22a9.61 9.61 0 1 0 0-19.22"/></svg>