<svg xmlns="http://www.w3.org/2000/svg" width="1em" height="1em" viewBox="0 0 24 24"><path fill="currentColor" d="M5.2 0c-.552 0-1 .43-1 .958V11.5h15.6V.958c0-.529-.448-.958-1-.958zm3.2 2.3h2.4c.331 0 .6.257.6.575a.588.588 0 0 1-.6.575H8.4a.588.588 0 0 1-.6-.575c0-.318.269-.575.6-.575M1.064 12C.476 12 0 12.448 0 13v10c0 .552.476 1 1.064 1H8.8a1 1 0 0 1-1-1v-8h-3a.6.6 0 1 1 0-1.201h3V12zM23 12H8.299v11c0 .552.477 1 1.064 1H23a1 1 0 0 0 1-1V13a1 1 0 0 0-1-1m-9.8 10.2H9.6V21h3.6zm2.4-1.8h-6v-1.2h6zM15 15h-2.4a.6.6 0 0 1 0-1.201H15A.602.602 0 0 1 15 15"/></svg>