<svg xmlns="http://www.w3.org/2000/svg" width="1em" height="1em" viewBox="0 0 24 24"><path fill="currentColor" d="M.44 15.414a13.706 13.706 0 0 1-.436-3.44a13.7 13.7 0 0 1 .436-3.44a3.468 3.468 0 0 1 3.044 3.44a3.468 3.468 0 0 1-3.044 3.44m3.973-3.44a1.087 1.087 0 1 0 2.175 0a1.087 1.087 0 0 0-2.175 0m19.147-3.44a3.468 3.468 0 0 0-3.044 3.44a3.468 3.468 0 0 0 3.044 3.44a13.731 13.731 0 0 0 .436-3.44c0-1.188-.152-2.341-.436-3.44m-6.148 3.44a1.087 1.087 0 1 0 2.175 0a1.087 1.087 0 0 0-2.175 0m-5.435 8.546a3.47 3.47 0 0 0-3.44 3.044a13.736 13.736 0 0 0 3.441.436c1.189 0 2.34-.151 3.44-.436a3.47 3.47 0 0 0-3.44-3.044m.001-3.104a1.088 1.088 0 1 0 0 2.176a1.088 1.088 0 0 0 0-2.176m0-13.936c1.772 0 3.23-1.33 3.44-3.044A13.735 13.735 0 0 0 11.978 0c-1.189 0-2.341.152-3.44.436a3.469 3.469 0 0 0 3.44 3.044zm0 .929a1.087 1.087 0 1 0 0 2.174a1.087 1.087 0 0 0 0-2.174m6.032 13.596a3.468 3.468 0 0 0-.282 4.582a13.762 13.762 0 0 0 4.863-4.865a3.47 3.47 0 0 0-4.58.283m-.657-2.195a1.09 1.09 0 0 0-1.539 1.539a1.088 1.088 0 1 0 1.54-1.539M5.966 5.96a3.467 3.467 0 0 0 .282-4.581a13.768 13.768 0 0 0-4.864 4.864a3.468 3.468 0 0 0 4.582-.283m.657.658A1.088 1.088 0 1 0 8.16 8.156a1.088 1.088 0 0 0-1.538-1.539m15.962-.386a13.76 13.76 0 0 0-4.864-4.864a3.468 3.468 0 0 0 .283 4.581a3.469 3.469 0 0 0 4.581.283m-5.238 1.912a1.089 1.089 0 1 0-1.539-1.537a1.089 1.089 0 0 0 1.539 1.537M1.377 17.71a13.763 13.763 0 0 0 4.865 4.865a3.468 3.468 0 0 0-4.865-4.865m5.239-1.912a1.088 1.088 0 1 0 1.538 1.538a1.088 1.088 0 0 0-1.538-1.538"/></svg>