<svg xmlns="http://www.w3.org/2000/svg" width="1em" height="1em" viewBox="0 0 24 24"><path fill="currentColor" d="M20.034 11.837a2.976 2.976 0 0 1-1.868 2.718l-4.385 1.401l-.06-5.23c-.011-1.256-.514-2.48-1.135-2.727c-2.024-.816-4.054-1.619-6.07-2.456a1.028 1.028 0 0 1-.509-.934c.001-.272.11-.532.303-.724c.115-.061.236-.111.36-.149L18.049.084c1.051-.331 1.91.341 1.91 1.504zm-7.02 10.296c.011 1.256-.485 2.073-1.102 1.821c-2.287-.916-4.565-1.869-6.854-2.773c-.775-.509-.999-1.023-.999-2.653L3.975 7.471a4.295 4.295 0 0 1 .256-1.732a2.755 2.755 0 0 1 1.116-1.368c.063-.044.129-.085.196-.121c-.195.19-.304.451-.303.723c-.019.381.175.741.504.934l1.13.467l4.945 2.013c.616.252 1.135 1.47 1.135 2.726c.027 3.673.043 7.347.06 11.02"/></svg>