<svg xmlns="http://www.w3.org/2000/svg" width="1em" height="1em" viewBox="0 0 24 24"><path fill="currentColor" d="M.841 18.938c.494.86 1.247 1.262 2.192 1.368c3.394.387 13.519.176 13.534.176c2.402 0 4.33-1.1 4.852-3.372c.133-.579.238-2.54.117-4.619c-.126-2.16-1.11-3.587-4.048-3.787c-3.901-.264-9.42-.14-11.651.09c-1.193.124-1.887.939-1.872 2.05c.036 2.647.065 3.054.093 3.197c1.185.17 1.17.18 1.206.116c.21-.385.596-.642 1.032-.688c.503-.066.124-.046 10.598-.205c.41 0 .653.185.729.588c.086.522.102 1.054.047 1.58c-.034.45-.404 1.166-1.08 1.175c-.015 0-7.503.035-11.076-.13c-1.08-.05-2.263-1.114-2.263-3.094c0-.841 0-3.548.07-4.39A2.235 2.235 0 0 1 5.174 6.96c1.333-.242 13.753-.095 14.542.085c2.241.513 2.43 3.198 2.437 3.255c.21 1.543.23 3.283.211 4.855c-.046 3.548-1.371 4.327-1.814 4.84c-.133.154.039.225.3.415c1.115-.209 2.708-1.427 3.02-4.011c.12-.999.213-3.283.02-7.382c-.125-2.661-1.243-4.954-4.952-5.376c-3.217-.366-10.3-.074-13.482 0C-.097 3.767.008 6.937.006 8.229c-.021 8.174-.014 9.233.836 10.709Z"/></svg>