<svg xmlns="http://www.w3.org/2000/svg" width="1em" height="1em" viewBox="0 0 24 24"><path fill="currentColor" d="M5.856 9.6L3.72 9.564l.036-2.46l6.312-3.516L5.94 1.14L8.028 0l4.092 2.436h.012L16.284.108h.06l1.992 1.188l-4.188 2.352l6.168 3.684v2.46l-2.124-.036l.012-1.284L13.116 5.4l-.024 2.076l-1.224-.012v-.002l-.84-.01l.024-2.076l-5.172 2.94zm12.252 6.072l-5.16 2.94l.024-2.064l-2.064-.024l-.024 2.064l-5.1-3.072l.012-1.248H3.684v2.4l6.168 3.684l2.011 1.197l.005.015L15.972 24h.06l2.028-1.14l-4.128-2.448l-.02.011l.008-.023l6.324-3.516l.036-2.508l-2.148-.024zM5.664 22.704l1.992 1.188h.06l4.152-2.328l-2.016-1.212zm13.68-12.024a1.368 1.368 0 1 0 0 2.736a1.368 1.368 0 0 0 0-2.736M4.656 13.224a1.368 1.368 0 1 0 0-2.736a1.368 1.368 0 0 0 0 2.736m7.416-5.004a1.368 1.368 0 1 0 0 2.736a1.368 1.368 0 0 0 0-2.736m-.108 4.812a1.368 1.368 0 1 0 0 2.736a1.368 1.368 0 0 0 0-2.736"/></svg>