<svg xmlns="http://www.w3.org/2000/svg" width="1em" height="1em" viewBox="0 0 24 24"><path fill="currentColor" d="M7.207 0c-.484 0-.877.102-1.182.3c-.305.2-.46.463-.46.78v21.809c0 .277.159.528.476.76c.315.234.703.351 1.166.351c.443 0 .83-.117 1.168-.35c.335-.231.506-.484.506-.761V1.082c0-.32-.163-.577-.49-.782c-.327-.198-.72-.3-1.184-.3m9.523 8.662c-.483 0-.871.098-1.168.3l-4.439 2.783c-.199.186-.284.469-.247.855c.034.383.21.747.524 1.09c.314.347.666.563 1.068.655c.396.09.697.041.896-.143l1.755-1.095v9.782c0 .277.153.528.461.76c.3.234.687.351 1.15.351c.463 0 .863-.117 1.199-.35c.337-.233.506-.484.506-.761V9.739c0-.32-.165-.578-.49-.776c-.325-.203-.73-.301-1.215-.301"/></svg>