<svg xmlns="http://www.w3.org/2000/svg" width="1em" height="1em" viewBox="0 0 24 24"><path fill="currentColor" d="m11.338 12.448l12.08 6.991l-2.894 1.73l-1.92 1.093c-.298.199-.563.298-.894.165h-.033c-.033 0-.066 0-.1-.033l-11.42-6.587v6.72c-.245 0-.382-.039-.563-.133l-5.03-2.946a1.141 1.141 0 0 1-.563-.96V5.871l10.766 6.24zm5.755-10.774l-4.466 2.553l4.466 2.596zm6.046 2.546l-4.436-2.549a1.931 1.931 0 0 0-.86-.198v6.654L7.879 2.334l-1.126-.63c-.497-.264-.927-.297-1.423-.066l-1.953 1.16L.86 4.253a1.778 1.778 0 0 0-.729.827l.244.141l3.262 1.891l7.424 4.303l-.659-.382l.739.428l.577.34l5.077 2.938l6.998 4.05l.107.062c.066-.231.099-.653.099-.653V5.71c0-.629-.331-1.192-.86-1.49M6.907 22.253l4.453-2.58l-4.453-2.568z"/></svg>