<svg xmlns="http://www.w3.org/2000/svg" width="1em" height="1em" viewBox="0 0 24 24"><path fill="currentColor" d="M14.887 8.804a.583.583 0 0 0-.417-.172H.585A.586.586 0 0 0 0 9.219v5.562c0 .325.262.587.585.587H14.47a.583.583 0 0 0 .417-.172l2.633-2.774a.607.607 0 0 0 0-.837zm-4.38 1.684c.07-.066.162-.1.257-.097a.374.374 0 0 1 .305.172a.31.31 0 0 1 .05.172a.306.306 0 0 1-.05.173a.367.367 0 0 1-.134.124a.364.364 0 0 1-.486-.124a.316.316 0 0 1-.048-.173a.326.326 0 0 1 .106-.247m-6.804 2.86a1.102 1.102 0 0 1-1.971 0a1.424 1.424 0 0 1-.15-.66c-.002-.221.05-.44.153-.635a1.17 1.17 0 0 1 .413-.453c.348-.22.792-.22 1.14 0c.175.111.318.268.413.453c.103.195.155.414.153.635a1.42 1.42 0 0 1-.151.66m2.465-1.083a.736.736 0 0 0-.645-.34a.544.544 0 0 0-.318.1a.688.688 0 0 0-.234.27a1.002 1.002 0 0 0-.084.422a.95.95 0 0 0 .084.39a.581.581 0 0 0 .545.356a.976.976 0 0 0 .191-.02a.567.567 0 0 0 .128-.054a.858.858 0 0 0 .292-.243l.332.385a1.223 1.223 0 0 1-.948.426a1.196 1.196 0 0 1-.617-.16a1.136 1.136 0 0 1-.428-.45a1.348 1.348 0 0 1-.155-.645c-.002-.226.05-.448.155-.648c.098-.189.246-.347.428-.458a1.19 1.19 0 0 1 .628-.172a1.3 1.3 0 0 1 .552.12a.968.968 0 0 1 .404.345zm2.858 1.618H7.14v-.446h.655V10.87h-.619v-.453h1.2v3.02h.65zm2.581 0H9.943v-.462h.574v-1.474h-.55v-.46h1.118v1.934h.514zm2.812-2.8a1.2 1.2 0 0 0-.264-.194a.56.56 0 0 0-.245-.052a.44.44 0 0 0-.355.141a.627.627 0 0 0-.12.417v.098h.732v.456h-.729v1.934h-.557v-1.94h-.514v-.457h.514v-.1c-.005-.192.04-.382.132-.55a.885.885 0 0 1 .357-.345c.153-.08.324-.121.497-.119c.298-.003.585.118.792.334zm-11.213 1.18c.047.136.07.279.067.423c.002.144-.02.286-.067.422a.637.637 0 0 1-.194.286a.458.458 0 0 1-.297.101a.446.446 0 0 1-.291-.1a.635.635 0 0 1-.195-.279a1.272 1.272 0 0 1-.067-.43c-.003-.144.02-.287.068-.422a.613.613 0 0 1 .192-.273a.455.455 0 0 1 .295-.088a.477.477 0 0 1 .297.094c.087.07.154.16.192.266M24 15.088a.28.28 0 0 1-.28.28h-4.67a.28.28 0 0 1-.279-.28v-.274a.28.28 0 0 1 .28-.28h4.671a.28.28 0 0 1 .278.28z"/></svg>