<svg xmlns="http://www.w3.org/2000/svg" width="1em" height="1em" viewBox="0 0 24 24"><path fill="currentColor" d="M6.338 23.028c-.117-.56-.353-1.678-.382-1.678c-4.977-2.975-4.388-8.128-2.739-11.073c.353 3.71 6.92 6.273 3.092 10.808c-.03.059.177.765.353 1.413c.766-1.296 1.915-2.856 1.856-3.004C3.806 8.01 18.53 7.126 21.592 0c1.385 6.89-.706 17.55-12.544 20.26c-.06.03-2.15 3.71-2.238 3.74c0-.059-.884-.03-.766-.324c.059-.177.177-.412.294-.648m-.147-2.768c1.502-1.737-.265-4.712-1.325-5.683c1.796 3.092 1.679 4.888 1.325 5.683"/></svg>