<svg xmlns="http://www.w3.org/2000/svg" width="1em" height="1em" viewBox="0 0 24 24"><path fill="currentColor" d="M5.971 6.816h3.241c1.469 0 2.741-.448 2.741-2.084c0-1.3-1.117-1.576-2.19-1.576H6.748zm12.834 8.753h5.168l-4.664 3.228l.755 5.087l-4.041-3.07L10.599 24l2.536-5.392s-2.95-3.075-2.947-3.075c-.198-.262-.265-.936-.265-1.226c0-.367.024-.739.049-1.134c.028-.451.058-.933.058-1.476c0-1.338-.59-2.038-2.036-2.038H5.283l-1.18 5.525H.026L3.269 0h7.672c2.852 0 5.027.702 5.027 3.936c0 2.276-1.12 3.894-3.592 4.233v.045c1.162.276 1.598 1.062 1.598 2.527c0 .585-.018 1.098-.034 1.581c-.015.428-.03.834-.03 1.243c0 .525.137 1.382.48 1.968h.567l3.028-5.06zm-1.233-2.948l-2.187 3.654h-3.457l2.103 2.189l-1.73 3.672l3.777-2.218l2.976 2.263l-.553-3.731l3.093-2.139h-3.43z"/></svg>