<svg xmlns="http://www.w3.org/2000/svg" width="1em" height="1em" viewBox="0 0 24 24"><path fill="currentColor" d="M8.554 2.938c.56-.103 1.126-.177 1.695-.22c.128-.01.218-.031.273-.121c.094-.153.26-.211.492-.228c.624-.047 1.243-.05 1.869-.007c.301.02.503.097.618.295c.046.078.124.107.242.116c.245.017.49.043.733.076c.316.042.629.096.957.15a2.057 2.057 0 0 0-.244-.512c-.379-.605-.986-1.018-1.89-1.185c-.679-.126-1.366-.114-2.054-.075c-.43.025-.842.11-1.226.259c-.8.307-1.193.831-1.466 1.452Zm-8.079.553c.272.103.527.245.757.423c.503.385.849.843 1.17 1.313c.356.522.637 1.067.901 1.62c.053-.033.057-.07.068-.108c.135-.437.293-.869.496-1.292c.36-.75.841-1.444 1.718-1.953c.088-.051.08-.087.015-.147a5.395 5.395 0 0 0-.927-.706a1.786 1.786 0 0 0-.955-.24c-.793.013-1.515.2-2.199.475c-.394.158-.76.343-1.044.615m7.245-.165c-1.072.24-1.899.706-2.473 1.406c-.458.557-.708 1.173-.936 1.793a15.233 15.233 0 0 0-.55 1.969a52.617 52.617 0 0 0-.589 3.215c-.122.783-.235 1.568-.34 2.354c-.15 1.115-.285 2.23-.295 3.352c-.01.985.021 1.966.44 2.916c.274.623.746 1.135 1.54 1.477c.823.353 1.724.544 2.647.688c1.366.213 2.755.283 4.148.3c1.498.016 2.994-.01 4.48-.167c1.09-.115 2.157-.29 3.168-.62c.92-.3 1.59-.768 1.955-1.463c.362-.69.486-1.408.528-2.136c.095-1.644-.124-3.277-.354-4.91a83.408 83.408 0 0 0-.573-3.588c-.135-.73-.28-1.459-.468-2.182c-.22-.84-.48-1.672-.931-2.466c-.55-.967-1.473-1.65-2.876-1.944c-3.4-.71-7.039-.326-8.521.006m14.169 9.746c0 .095.005.19.038.283l.111.766c-.016.048-.008.094.024.156c.026-.064.083-.1.065-.155l.336-1.198c.023-.045.045-.089.033-.137c.065-.11.08-.228.12-.342c.244-.69.41-1.392.566-2.095c.173-.773.321-1.55.512-2.32a9.878 9.878 0 0 0 .296-2.862c-.017-.356-.04-.714-.172-1.083c-.11.062-.206.108-.29.165c-.386.26-.66.582-.906.915c-.699.95-1.153 1.967-1.577 2.993c-.021.052-.009.102.003.154c.22.93.38 1.867.53 2.804c.105.652.207 1.304.31 1.956zM.067 4.334c-.07.204-.066.412-.067.62c-.002.941.139 1.874.308 2.807c.147.81.352 1.613.551 2.417c.191.78.391 1.558.6 2.335c.2.739.272 1.487.348 2.236c.005.054-.007.113.045.168c.01-.016.023-.027.025-.039c.136-1.097.292-2.191.469-3.282c.172-1.064.337-2.129.58-3.186c.032-.138.07-.272 0-.417c-.141-.284-.247-.576-.382-.861c-.357-.754-.737-1.502-1.306-2.189c-.23-.278-.47-.555-.84-.754c-.083-.052-.174-.145-.274-.112c-.084.027-.053.141-.07.217c-.002.013.008.027.013.04m22.248-1.497a7.182 7.182 0 0 0-2.429-.4a1.25 1.25 0 0 0-.673.197c-.343.22-.58.494-.784.787c-.042.06.003.084.056.116c.233.139.45.303.646.49c.676.643 1.022 1.392 1.307 2.16c.087.234.164.47.256.734c.28-.574.55-1.12.903-1.64c.43-.632.893-1.249 1.699-1.682c.063-.033.13-.056.195-.085c.084-.022.033-.044 0-.066c-.016-.048-.06-.082-.111-.112a.425.425 0 0 0-.19-.131a2.437 2.437 0 0 0-.596-.28c-.09-.035-.171-.083-.28-.088z"/></svg>