<svg xmlns="http://www.w3.org/2000/svg" width="1em" height="1em" viewBox="0 0 24 24"><path fill="currentColor" d="m23.876 18.031l-3.962 4.14a.92.92 0 0 1-.306.21a.94.94 0 0 1-.367.074H.46a.469.469 0 0 1-.252-.073a.451.451 0 0 1-.17-.196a.438.438 0 0 1-.031-.255a.444.444 0 0 1 .117-.23l3.965-4.139a.92.92 0 0 1 .305-.21a.94.94 0 0 1 .366-.075h18.78a.47.47 0 0 1 .252.074a.453.453 0 0 1 .17.196a.438.438 0 0 1 .031.255a.444.444 0 0 1-.117.23m-3.962-8.335a.92.92 0 0 0-.306-.21a.941.941 0 0 0-.367-.075H.46a.469.469 0 0 0-.252.073a.451.451 0 0 0-.17.197a.438.438 0 0 0-.031.254a.444.444 0 0 0 .117.23l3.965 4.14a.92.92 0 0 0 .305.21a.94.94 0 0 0 .366.074h18.78a.469.469 0 0 0 .252-.073a.453.453 0 0 0 .17-.196a.438.438 0 0 0 .031-.255a.444.444 0 0 0-.117-.23zM.46 6.723h18.782a.941.941 0 0 0 .367-.075a.92.92 0 0 0 .306-.21l3.962-4.14a.444.444 0 0 0 .117-.23a.438.438 0 0 0-.032-.254a.453.453 0 0 0-.17-.196a.469.469 0 0 0-.252-.073H4.76a.941.941 0 0 0-.366.074a.92.92 0 0 0-.305.21L.125 5.97a.444.444 0 0 0-.117.23a.438.438 0 0 0 .03.254a.451.451 0 0 0 .17.196a.469.469 0 0 0 .252.074z"/></svg>