<svg xmlns="http://www.w3.org/2000/svg" width="1em" height="1em" viewBox="0 0 24 24"><path fill="currentColor" d="m17.012 16.776l.417-.257l4.155-3.1c1.413-1.248 2.293-2.686 2.293-4.607c-.006-3.849-3.037-5.771-6.614-5.771c-1.663 0-3.122.447-4.283 1.256V2.852L0 2.86l.007 4.395l3.85-.008l.016 13.886l5.355-.008l-.016-13.886h1.443a7.97 7.97 0 0 0-.516 2.02l4.518.884c.076-1.376.547-3.102 2.219-3.102c1.101 0 1.753.832 1.753 1.87c0 1.557-1.305 2.653-2.4 3.592l-6.082 4.56l.006 4.085l13.642-.016l.205-4.371z"/></svg>