<svg xmlns="http://www.w3.org/2000/svg" width="1em" height="1em" viewBox="0 0 24 24"><path fill="currentColor" d="M21.576 1.742c-.051 0-.102.003-.152.008c-1.724.137-3.14 1.095-4.098 2.773a8.284 8.284 0 0 0-.53 1.126c-.659-.396-1.624-.825-2.706-.825c-.203 0-.405.016-.602.046c-.729.112-2.949.453-4.497 1.938c-.77.74-1.333 1.733-1.687 2.49c-.861-.7-2.262-1.565-3.924-1.565c-.737 0-1.459.172-2.147.513c-.78.355-1.239 1.496-1.233 2.4c.005.701.288 1.223.777 1.433a.797.797 0 0 0 .321.054c.736 0 3.983-.568 5.928-.938l1.662 4.448l.081.08l.214.212l.767.762l.974.97c-.153.118-.319.25-.486.392c-.914.773-1.321 1.388-1.321 1.886c0 1.016 1.629 2.313 2.955 2.313c.302 0 .585-.11.841-.229l.535-.416c.415-.383.758-.935 1.027-1.484c1.002-.094 1.966-.459 2.773-.871l1.013-.584c.684-.44 1.121-.819 1.165-.857l.167-.147l.269-6.285L18.1 7.202c.821-.301 1.848-.687 2.799-1.058c2.667-1.042 2.771-1.185 2.881-1.336c.291-.402.293-.932.007-1.495c-.394-.772-1.329-1.571-2.211-1.571m0 1.041c.39 0 1.025.496 1.284 1.003c.084.165.107.294.095.366c-.539.301-3.252 1.358-5.268 2.094c.428-1.228 1.488-3.278 3.827-3.459l.022-.002c.013-.002.026-.002.04-.002M14.09 5.865c.967 0 1.851.461 2.385.812c.197.13.348.245.436.317l.017.045l.01.029l.182.488l1.493 3.995l-.097 2.281c-.858-.114-1.604-.115-2.285-.015a6.247 6.247 0 0 0-1.043.247a7.175 7.175 0 0 0-.206.073l-.629-1.534l-.426-1.04l-2.139-5.221a9.979 9.979 0 0 1 1.858-.443a2.83 2.83 0 0 1 .444-.034m-2.727.641l2.072 5.056l.426 1.041l.7 1.706c-1.103.498-2.128 1.306-3.361 2.364l-.925-.921l-.692-.687l-.047-.126l-1.475-3.948l-.159-.427c.044-.121.114-.302.208-.52c.297-.69.839-1.754 1.602-2.485c.491-.472 1.077-.81 1.651-1.053m1.013.158a.233.233 0 1 0 .232.233a.232.232 0 0 0-.232-.233m.39.845a.234.234 0 0 0-.233.233a.233.233 0 0 0 .466 0a.234.234 0 0 0-.233-.233m.325.781a.233.233 0 0 0-.233.232a.233.233 0 0 0 .466 0a.233.233 0 0 0-.233-.232m-9.711.483c1.41 0 2.64.809 3.365 1.416c-1.978.376-4.892.877-5.597.902c-.057-.067-.106-.226-.108-.452c-.004-.646.339-1.32.626-1.447l.021-.01a3.78 3.78 0 0 1 1.693-.409m12.7.38a1.62 1.62 0 0 0-.887.264a1.618 1.618 0 0 0-.703 1.028c-.089.425-.007.859.23 1.222a1.62 1.62 0 0 0 1.363.737a1.627 1.627 0 0 0-.003-3.251m0 .91a.715.715 0 0 1 .392 1.315a.709.709 0 0 1-.389.116a.715.715 0 0 1-.702-.862a.714.714 0 0 1 .31-.452a.702.702 0 0 1 .389-.117m-5.23.951c-.316 0-.623.091-.888.265a1.616 1.616 0 0 0-.703 1.027c-.089.425-.007.859.23 1.222a1.622 1.622 0 0 0 2.25.473c.364-.237.613-.602.703-1.027a1.614 1.614 0 0 0-.23-1.223a1.623 1.623 0 0 0-1.362-.737m0 .91a.716.716 0 0 1 .701.863a.715.715 0 0 1-.699.568a.713.713 0 0 1-.6-.324a.71.71 0 0 1-.102-.538a.714.714 0 0 1 .31-.452a.71.71 0 0 1 .39-.117m6.315 2.275a9.267 9.267 0 0 1 1.331.09l-.123 2.881a11.3 11.3 0 0 1-1.386.935c-.641.367-1.426.728-2.246.901a4.672 4.672 0 0 1-1.104.104l-.034-.034a425.889 425.889 0 0 0-2.024-2.026l-.055-.055c1.452-1.245 2.574-2.11 3.874-2.522a5.655 5.655 0 0 1 1.053-.227c.229-.028.466-.044.714-.047m-.237.203a.233.233 0 1 0 0 .466a.233.233 0 0 0 0-.466m.845 0a.233.233 0 0 0 0 .466a.233.233 0 0 0 0-.466m-.609 1.287c-.44.069-1.343.456-2.137.826c-.793.369-1.476.722-1.476.722c1.795 1.468 3.8-.765 3.613-1.548m-5.699 2.717a357.85 357.85 0 0 1 1.572 1.577l.055.056l-.028.144c-.24.399-.506.716-.777.848a.948.948 0 0 1-.415.087c-.897 0-1.881-.897-1.914-1.216c.054-.25.714-.894 1.507-1.496"/></svg>