<svg xmlns="http://www.w3.org/2000/svg" width="1em" height="1em" viewBox="0 0 24 24"><path fill="currentColor" d="M12 0C5.385 0 0 5.339 0 12c0 6.614 5.385 12 12 12c6.614 0 12-5.386 12-12S18.614 0 12 0M8.648 3.813c1.275-.068 10.697 2.302 11.43 2.943c.614.85.614 9.118 0 9.685c-.284.095-2.127-.283-4.205-.755c0 2.031-.143 3.966-.426 4.203c-.756.236-10.772-2.267-11.527-2.928c-.615-.85-.615-9.119 0-9.686c.283-.094 2.079.284 4.205.756c0-2.031.142-3.969.425-4.205a.448.448 0 0 1 .098-.013m-.523 4.265c-.048 2.362.095 4.961.425 5.434c.426.378 4.158 1.418 7.276 2.174c.047-2.41-.095-5.008-.426-5.481c-.425-.378-4.157-1.418-7.275-2.127"/></svg>