<svg xmlns="http://www.w3.org/2000/svg" width="1em" height="1em" viewBox="0 0 24 24"><path fill="currentColor" d="M14 3.559c-3.102 0-3.836.489-5.06 1.877L0 15.232c7.143-.326 9.348 6.858 16.572 4.858L24 3.559zm-2.477 1.586a.608.608 0 0 1 .395.128c.204.164.164.409.164.409c-.04.367-.408.611-.408.611c-.327.286-.776 1.102-.776 1.102c-.49.775-1.06 2.286-1.55 3.796c-.653 2.286-1.063 4.408-1.104 4.612c-.04.204-.122.449-.326.449c-.286 0-.326-.367-.326-.408c0-.041-.367-4.49-.367-4.49s-.042-.204-.082-.204c0 0-.08-.04-.163.164l-.408.897c-.163.408-.449.246-.449.246c-.245-.122-.082-.408-.082-.408l.898-2.246c.205-.49.53-.45.53-.45c.285.041.287.327.287.45c.04.122.326 3.43.326 3.43c.04.367.082.244.082.244C8.858 9.517 10.94 5.6 10.94 5.6c.197-.34.408-.445.584-.455zm4.793 2.793c.126-.01.174.07.174.07c.123.204-.164.449-.164.449c-.245.286-.449.082-.449.082c-.204-.163.123-.45.123-.45c.138-.106.241-.146.316-.152zm2.178.394a.27.27 0 0 1 .037.002c.368 0 .326.49.326.49l-.123 1.346c-.081.571.368.37.368.37c0-.042.122-.084.49-.247c.326-.122.49-.04.572.082c.082.122.04.245-.041.367c-.082.163-.449.286-.734.367c-.204.041-.37.123-.37.123c-.49.123-1.06.368-1.06.368a28.677 28.677 0 0 0-3.55 1.795c-.042.163-.042.285-.042.367c0 0-.162 2.204-.203 2.531c0 0-.002.41.04.654c.04.245.205.775-.122.979a.394.394 0 0 1-.572-.082c0-.041-.123-.163-.041-.776c0 0 .164-1.592.205-2.082l.082-1.142c-2.694 1.673-4.164 3.183-4.164 3.183c-.163.164-.53.45-.776.123c-.244-.326.409-.816.409-.816c1.428-1.225 3.102-2.285 4.572-3.143l.039-.367s.042-.122-.08-.04c0 0-.49.286-.858.122c0 0-.287-.123-.287-.572c0 0 .001-1.388.573-1.959c0 0 .325-.326.652-.326c.204 0 .165.286-.08.49c-.245.245-.286.529-.367.856c0 0-.206.939.12.898c0 0 .328.001.45-.57c0 0 .203-1.308.244-1.471c0-.163.043-.53.37-.53c0 0 .325 0 .284.245c0 0-.244 1.591-.367 2.734a34.2 34.2 0 0 1 3.592-1.795c.082-.04.041-.04.041-.04c-.245-.082-.123-.614-.123-.614l.123-1.102c0-.285-.326-.123-.326-.123c-.245.164-.408.45-.408.45c-.123.204-.205 1.142-.205 1.142c-.041.49-.327.572-.327.572c-.326.123-.367-.082-.367-.082c-.04-.122.041-.57.041-.57l.162-1.185c.041-.531.409-.612.409-.612a.454.454 0 0 1 .326 0c.122.041.205 0 .287 0c.122 0 .285-.164.285-.164c.245-.214.421-.244.494-.246m-2.486.897c.222.01.115.373.115.412c-.04.04-.246 1.591-.246 1.591c-.04.409-.408.49-.408.49c-.327.082-.244-.245-.244-.245l.04-.327l.286-1.51c.04-.326.408-.408.408-.408a.262.262 0 0 1 .049-.003m-5.237.53a.191.191 0 0 1 .21.126s.08.163-.206.408c0 0-.327.327-.49.041c0 0-.121-.204.205-.45c0 0 .144-.11.281-.124zm1.57.829c.144.017.19.154.19.154c.123.286-.328.49-.328.49c-.408.245-.447.776-.447.776l-.082.734c-.041.53-.408.612-.408.612c-.49.163-.286-.694-.286-.694c.041-.204.163-1.224.163-1.224c.04-.613.408-.612.367-.653c.04 0 .326-.04.326-.04s.124-.042.328-.124a.343.343 0 0 1 .178-.031zm-2 .68c.1.001.292.057.231.455l-.246 1.345l-.082.49s-.04.245-.244.368c0 0-.49.244-.45-.123l.247-1.96s.08-.488.488-.57c0 0 .024-.006.057-.005z"/></svg>