<svg xmlns="http://www.w3.org/2000/svg" width="1em" height="1em" viewBox="0 0 20 20"><circle cx="10" cy="5.5" r="4.5" fill="currentColor"/><path fill="currentColor" d="M0 16.288v-1.632l1.012-.168c.055-.22.164-.437.324-.76l.014-.028l-.619-.844l1.181-1.18l.844.618q.37-.226.788-.338l.112-1.012h1.632l.141.851l.027.161c.282.056.507.17.788.338l.844-.619l1.18 1.181l-.562.844c.106.176.168.33.227.49l.025.07l.01.027q.035.096.076.2L9 14.6v1.631l-1.012.17c-.057.28-.17.505-.338.786l.563.844l-.969.969l-.213.213l-.32-.213l-.524-.35c-.199.1-.443.2-.691.3l-.05.02l-.046.018l-.002.012l-.167 1H3.544l-.167-1l-.002-.012c-.281-.057-.506-.17-.787-.338l-.477.35l-.367.27l-1.182-1.182l.62-.844a3 3 0 0 1-.338-.788Zm4.5.843a1.66 1.66 0 0 0 1.688-1.687c0-.956-.732-1.688-1.688-1.688s-1.688.732-1.688 1.688s.732 1.687 1.688 1.687M10 11c-.739 0-1.418.047-2.04.133l1.594 1.596l-.574.862l1.02.12v3.367l-1.098.183l.598.897l-.842.842H18v-3c0-2-2.083-5-8-5"/></svg>