<svg xmlns="http://www.w3.org/2000/svg" width="1em" height="1em" viewBox="0 0 48 48"><path fill="#45413c" d="M2.92 44.57a21.08 2.43 0 1 0 42.16 0a21.08 2.43 0 1 0-42.16 0" opacity=".15"/><path fill="#656769" d="M4 5.62v36.76A1.61 1.61 0 0 0 5.64 44H42.4a1.61 1.61 0 0 0 1.6-1.62V12.53a3.23 3.23 0 0 0-1-2.29L37.78 5a3.25 3.25 0 0 0-2.3-1H5.64A1.61 1.61 0 0 0 4 5.62"/><path fill="#87898c" d="M43.07 10.24L37.78 5a3.25 3.25 0 0 0-2.3-1H5.64A1.61 1.61 0 0 0 4 5.62v4.46a1.61 1.61 0 0 1 1.64-1.62h29.84a3.25 3.25 0 0 1 2.3.95l5.29 5.29A3.23 3.23 0 0 1 44 17v-4.47a3.23 3.23 0 0 0-.93-2.29"/><path fill="none" stroke="#45413c" stroke-linecap="round" stroke-linejoin="round" d="M4 5.62v36.76A1.61 1.61 0 0 0 5.64 44H42.4a1.61 1.61 0 0 0 1.6-1.62V12.53a3.23 3.23 0 0 0-1-2.29L37.78 5a3.25 3.25 0 0 0-2.3-1H5.64A1.61 1.61 0 0 0 4 5.62"/><path fill="#daedf7" d="M13.75 4h19.46v10.4a.81.81 0 0 1-.81.81H14.56a.81.81 0 0 1-.81-.81z"/><path fill="#fff" d="M13.75 4h19.46v3.31H13.75z"/><path fill="none" stroke="#45413c" stroke-linecap="round" stroke-linejoin="round" d="M13.75 4h19.46v10.4a.81.81 0 0 1-.81.81H14.56a.81.81 0 0 1-.81-.81z"/><path fill="#fff" stroke="#45413c" stroke-linecap="round" stroke-linejoin="round" d="M8.48 26.43h30V44h-30z"/><path fill="none" stroke="#45413c" stroke-linecap="round" stroke-linejoin="round" d="M29.29 7.31v4.32"/><path fill="#80ddff" stroke="#45413c" stroke-linecap="round" stroke-linejoin="round" d="M10.1 20.76h26.76a1.62 1.62 0 0 1 1.62 1.62v4.05h0h-30h0v-4.05a1.62 1.62 0 0 1 1.62-1.62"/></svg>