<svg xmlns="http://www.w3.org/2000/svg" width="1em" height="1em" viewBox="0 0 48 48"><path fill="#fff" stroke="#45413c" stroke-linecap="round" stroke-linejoin="round" d="M45 12.25h-6.32A45.89 45.89 0 0 1 24 9.88A45.73 45.73 0 0 0 9.37 7.5H3c-.58 0-1 .35-1 .79v26a.94.94 0 0 0 1 .79h6.37A46 46 0 0 1 24 37.46a45.62 45.62 0 0 0 14.65 2.38H45a.93.93 0 0 0 1-.79V13a.94.94 0 0 0-1-.75"/><path fill="#e04122" stroke="#45413c" stroke-linecap="round" stroke-linejoin="round" d="M16.394 26.402a9.26 8.11 70.31 1 0 15.272-5.465a9.26 8.11 70.31 1 0-15.272 5.465"/><path fill="#45413c" d="M12.5 45.5a11.5 1.5 0 1 0 23 0a11.5 1.5 0 1 0-23 0" opacity=".15"/></svg>