<svg xmlns="http://www.w3.org/2000/svg" width="1em" height="1em" viewBox="0 0 48 48"><path fill="#45413c" d="M13 45.5a11 1.5 0 1 0 22 0a11 1.5 0 1 0-22 0" opacity=".15"/><path fill="#bf8256" d="M38 24.86a5 5 0 0 0 .94-2.9c0-2.88-1.87-5-6.42-5a4.27 4.27 0 0 0-2.82-7.47h-5.17c-1-.34-2.18-2.57-1.62-5.07a.7.7 0 0 0-.78-.84c-7.88 1.19-9.36 11-7.06 13.38C8.91 17 8 22.11 10 24.86c-9.24 3-7 16.64 2.61 16.64h22.76C45 41.5 47.22 27.83 38 24.86"/><path fill="#dea47a" d="M13.42 25.76a4.76 4.76 0 0 1 3.88-6.32a1.38 1.38 0 0 0 1.09-1.69a10.51 10.51 0 0 1 4.52-10.66a5.87 5.87 0 0 1 0-2.64a.72.72 0 0 0-.17-.63a.73.73 0 0 0-.61-.21c-7.88 1.19-9.36 11-7.06 13.38C8.91 17 8 22.11 10 24.86c-8.56 2.75-7.31 14.69.62 16.42C7 37.5 7.28 30.46 12.7 27.71a1.61 1.61 0 0 0 .72-1.95"/><path fill="#45413c" stroke="#45413c" stroke-linecap="round" stroke-linejoin="round" d="M15 28.15a.91.91 0 1 1-.91-.91a.91.91 0 0 1 .91.91m20.49 0a.91.91 0 1 1-.91-.91a.91.91 0 0 1 .91.91"/><path fill="#ffb0ca" stroke="#45413c" stroke-linecap="round" stroke-linejoin="round" d="M18.16 31.33a.92.92 0 0 0-.9 1.05a6.82 6.82 0 0 0 13.48 0a.92.92 0 0 0-.9-1.05Z"/><path fill="#ff87af" stroke="#45413c" stroke-linecap="round" stroke-linejoin="round" d="M29.37 35.52A10.87 10.87 0 0 0 24 34.26a10.87 10.87 0 0 0-5.37 1.26a6.8 6.8 0 0 0 10.74 0"/><path fill="none" stroke="#45413c" stroke-linecap="round" stroke-linejoin="round" d="M38 24.86a5 5 0 0 0 .94-2.9c0-2.88-1.87-5-6.42-5a4.27 4.27 0 0 0-2.82-7.47h-5.17c-1-.34-2.18-2.57-1.62-5.07a.72.72 0 0 0-.17-.63a.73.73 0 0 0-.61-.21c-7.88 1.19-9.36 11-7.06 13.38C8.91 17 8 22.11 10 24.86c-9.24 3-7 16.64 2.61 16.64h22.76C45 41.5 47.22 27.83 38 24.86"/><path fill="#915e3a" d="M9.13 32.7a2.27 1.36 0 1 0 4.54 0a2.27 1.36 0 1 0-4.54 0m25.91 0a2.27 1.36 0 1 0 4.54 0a2.27 1.36 0 1 0-4.54 0"/></svg>