<svg xmlns="http://www.w3.org/2000/svg" width="1em" height="1em" viewBox="0 0 48 48"><path fill="#ffe500" d="M4 21.5a20 20 0 1 0 40 0a20 20 0 1 0-40 0"/><path fill="#ebcb00" d="M24 1.5a20 20 0 1 0 20 20a20 20 0 0 0-20-20m0 37a18.25 18.25 0 1 1 18.25-18.25A18.25 18.25 0 0 1 24 38.5"/><path fill="#fff48c" d="M18 5.5a6 1.5 0 1 0 12 0a6 1.5 0 1 0-12 0"/><path fill="none" stroke="#45413c" stroke-linecap="round" stroke-linejoin="round" d="M4 21.5a20 20 0 1 0 40 0a20 20 0 1 0-40 0"/><path fill="#45413c" d="M8 45.5a16 1.5 0 1 0 32 0a16 1.5 0 1 0-32 0" opacity=".15"/><path fill="#ffaa54" d="M40 26.5c0 .83-1.12 1.5-2.5 1.5s-2.5-.67-2.5-1.5s1.12-1.5 2.5-1.5s2.5.67 2.5 1.5m-32 0c0 .83 1.12 1.5 2.5 1.5s2.5-.67 2.5-1.5s-1.12-1.5-2.5-1.5s-2.5.67-2.5 1.5"/><path fill="#ffb0ca" stroke="#45413c" stroke-linecap="round" stroke-linejoin="round" d="M16.47 27.93c.5 8 5.09 11 6.85 12a1.37 1.37 0 0 0 1.36 0c1.76-1 6.35-3.92 6.85-12a1.37 1.37 0 0 0-1.38-1.45h-12.3a1.37 1.37 0 0 0-1.38 1.45"/><path fill="#ff6242" d="M24 33c0-1.5 4.5-1.06 4.5.5V40a4.5 4.5 0 0 1-9 0v-6.5c0-1.56 4.5-2 4.5-.5"/><path fill="#ff866e" d="M24 33c0-1.5-4.5-1.06-4.5.5v2c0-1.56 9-1.56 9 0v-2c0-1.56-4.5-2-4.5-.5"/><path fill="none" stroke="#45413c" stroke-linecap="round" stroke-linejoin="round" d="M24 33c0-1.5 4.5-1.06 4.5.5V40a4.5 4.5 0 0 1-9 0v-6.5c0-1.56 4.5-2 4.5-.5"/><path fill="#45413c" stroke="#45413c" stroke-linecap="round" stroke-linejoin="round" d="M35 21a1 1 0 1 0 1-1a1 1 0 0 0-1 1"/><path fill="none" stroke="#45413c" stroke-linecap="round" stroke-linejoin="round" d="M9.5 21.5a1.75 1.75 0 0 1 3.5 0"/></svg>