<svg xmlns="http://www.w3.org/2000/svg" width="1em" height="1em" viewBox="0 0 15 15"><path fill="currentColor" d="M6.176 1.176a.249.249 0 0 0-.352 0l-4.4 4.4A.25.25 0 0 0 1.6 6H3v6.751a.25.25 0 0 0 .249.249h3.5A.248.248 0 0 0 7 12.753v-7.43c0-.066.026-.13.073-.176L8.5 3.5zM6 11H5v-1h1zm0-2H5V8h1zm0-3v1H5V6zm6.75-3h-.5a.25.25 0 0 0-.25.25V5l-1.324-1.824a.249.249 0 0 0-.352 0L8.056 5.932A.246.246 0 0 0 8 6.088v6.66a.249.249 0 0 0 .246.252h1.5a.253.253 0 0 0 .254-.252V11h1v1.747a.253.253 0 0 0 .253.253h1.5a.25.25 0 0 0 .247-.249V3.25a.25.25 0 0 0-.25-.25M10 8H9V7h1zm2 0h-1V7h1zm-2 2H9V9h1zm2 0h-1V9h1z"/></svg>