<svg xmlns="http://www.w3.org/2000/svg" width="1em" height="1em" viewBox="0 0 2048 2048"><path fill="currentColor" d="M128 128v1792h384v128H0V0h1115l549 549v91h-640V128zm1024 91v293h293zm384 1061l-192 256l-192-256h128V768h128v512zm512 64l-256 192v-128h-192l96-128h96v-128zm-1401 64q9-81 39-155t82-139l91 91q-69 90-84 203zm128 128q15 113 84 203l-91 91q-51-64-81-138t-40-156zm377-505q-113 15-203 84l-91-91q64-51 138-81t156-40zm421 708q69-90 84-203h128q-9 81-39 155t-82 139zm-293 174q113-15 203-84l91 91q-64 51-138 81t-156 40zm-422 7l91-91q90 69 203 84v128q-81-9-155-39t-139-82"/></svg>