<svg xmlns="http://www.w3.org/2000/svg" width="1em" height="1em" viewBox="0 0 2048 2048"><path fill="currentColor" d="M1088 960h320v128h-320v320H960v-320H640V960h320V640h128zm-64-832q124 0 238 32t214 90t181 140t140 181t91 214t32 239q0 124-32 238t-90 214t-140 181t-181 140t-214 91t-239 32q-124 0-238-32t-214-90t-181-140t-140-181t-91-214t-32-239q0-124 32-238t90-214t140-181t181-140t214-91t239-32m0 1664q106 0 204-27t183-78t156-120t120-155t77-184t28-204q0-106-27-204t-78-183t-120-156t-155-120t-184-77t-204-28q-106 0-204 27t-183 78t-156 120t-120 155t-77 184t-28 204q0 106 27 204t78 183t120 156t155 120t184 77t204 28"/></svg>