<svg xmlns="http://www.w3.org/2000/svg" width="1em" height="1em" viewBox="0 0 2048 2048"><path fill="currentColor" d="M1792 768q52 0 99 20t81 55t55 82t21 99q0 53-20 99t-55 81t-82 55t-99 21h-448l-384 768H512l256-768H512l-64 128H0l128-384L0 640h448l64 128h256L512 0h448l384 768zm0 384q27 0 50-10t40-27t28-41t10-50q0-27-10-50t-27-40t-41-28t-50-10h-527q-99-192-193-383T881 128H690q64 193 127 384t129 384H433l-64-128H178q21 64 41 128t44 128q-23 64-43 128t-42 128h191l64-128h513q-66 192-129 383t-127 385h191q97-193 191-384t193-384z"/></svg>