<svg xmlns="http://www.w3.org/2000/svg" width="1em" height="1em" viewBox="0 0 2048 2048"><path fill="currentColor" d="M512 920q64 32 132 71t124 89t92 115t36 149q0 83-29 158t-80 135t-121 99t-154 51v133H384v-132q-109-13-204-69T15 1577l98-82q52 63 121 106t150 58v-659q-43-21-88-45t-88-53t-80-62t-66-74t-45-87T0 576q0-83 29-158t80-135t121-99t154-51V0h128v132q109 13 204 69t165 142l-98 82q-52-63-121-106t-150-58zM128 576q0 51 25 93t62 78t83 63t86 46V262q-56 12-103 41t-81 70t-53 94t-19 109m384 1082q56-12 103-41t81-70t53-94t19-109q0-51-25-94t-62-78t-83-62t-86-46zm1521-17q-57 69-135 110t-170 41q-83 0-153-28t-128-75t-105-111t-82-134t-58-146t-35-146h-143v-128h130q-1-16-1-32t-1-32v-32q0-16 2-32h-130V768h143q12-71 35-146t58-146t81-134t105-110t129-76t153-28q92 0 169 41t136 110l-98 82q-38-47-91-76t-116-29q-63 0-116 23t-99 63t-80 91t-63 108t-45 115t-28 112h239v128h-254q-1 16-1 32t-1 32v32q0 16 2 32h254v128h-239q10 53 28 111t45 115t62 109t81 91t98 62t117 24q62 0 115-29t92-76z"/></svg>