<svg xmlns="http://www.w3.org/2000/svg" width="1em" height="1em" viewBox="0 0 2048 2048"><path fill="currentColor" d="M896 1024H384V512h512zM512 640v256h256V640zm1152-128v512h-512V512zm-128 384V640h-256v256zM0 256h2048v768h-128V384H128v768h896v128H0zm1989 1113l49 119l-124 51q6 30 6 61t-6 61l124 51l-49 119l-124-52q-35 51-86 86l52 124l-119 49l-51-124q-30 6-61 6t-61-6l-51 124l-119-49l52-124q-51-35-86-86l-124 52l-49-119l124-51q-6-30-6-61t6-61l-124-51l49-119l124 52q35-51 86-86l-52-124l119-49l51 124q30-6 61-6t61 6l51-124l119 49l-52 124q51 35 86 86zm-197 231q0-40-15-75t-41-61t-61-41t-75-15q-40 0-75 15t-61 41t-41 61t-15 75q0 40 15 75t41 61t61 41t75 15q40 0 75-15t61-41t41-61t15-75"/></svg>