<svg xmlns="http://www.w3.org/2000/svg" width="1em" height="1em" viewBox="0 0 2048 2048"><path fill="currentColor" d="M2048 256v759q-28-35-60-67t-68-59V384H128v1152h612q3 32 8 64t14 64H0V256zm-576 640q119 0 224 45t183 124t123 183t46 224q0 119-45 224t-124 183t-183 123t-224 46q-119 0-224-45t-183-124t-123-183t-46-224q0-119 45-224t124-183t183-123t224-46m0 1024q93 0 174-35t142-96t96-142t36-175q0-93-35-174t-96-142t-142-96t-175-36q-93 0-174 35t-142 96t-96 142t-36 175q0 93 35 174t96 142t142 96t175 36m-64-768h128v384h-128zm0 512h128v128h-128z"/></svg>