<svg xmlns="http://www.w3.org/2000/svg" width="1em" height="1em" viewBox="0 0 2048 2048"><path fill="currentColor" d="M1024 896q27 0 50 10t40 27t28 41t10 50q0 27-10 50t-27 40t-41 28t-50 10q-27 0-50-10t-40-27t-28-41t-10-50q0-27 10-50t27-40t41-28t50-10m576 256q93 0 174 35t143 96t96 142t35 175q0 93-35 174t-96 143t-142 96t-175 35q-93 0-174-35t-143-96t-96-142t-35-175q0-93 35-174t96-143t142-96t175-35m-320 448q0 66 25 124t68 102t102 69t125 25q47 0 92-13t84-40l-443-443q-26 39-39 84t-14 92m587 176q26-39 39-84t14-92q0-66-25-124t-69-101t-102-69t-124-26q-47 0-92 13t-84 40zM640 1024q0 74 26 139t72 117t108 84t136 42q19 2 38 2t39 0q-22 63-29 128q-152 0-294-38t-273-107t-247-162T0 1024q97-109 213-203t246-162t273-108t292-39q153 0 296 36t272 104t245 161t211 211l-91 91l-8-9q-108-126-232-224t-280-161q48 66 73 144t26 159v6q-65 7-128 29v-35q0-79-30-149t-83-122t-122-82t-149-31q-79 0-149 30t-122 83t-82 122t-31 149m-37 291q-45-64-68-138t-23-153q0-78 23-152t68-139q-120 52-226 126t-200 165q94 91 200 165t226 126"/></svg>