<svg xmlns="http://www.w3.org/2000/svg" width="1em" height="1em" viewBox="0 0 2048 2048"><path fill="currentColor" d="M960 512q93 0 174 35t143 96t96 142t35 175q0 93-35 174t-96 143t-142 96t-175 35q-93 0-174-35t-143-96t-96-142t-35-175q0-93 35-174t96-143t142-96t175-35m0 768q66 0 124-25t101-68t69-102t26-125q0-66-25-124t-69-101t-102-69t-124-26q-66 0-124 25t-102 69t-69 102t-25 124q0 66 25 124t68 102t102 69t125 25m64-896H896V192h128zM507 598L372 462l90-90l136 135zm-123 426H192V896h192zm123 298l91 91l-136 135l-90-90zm389 214h128v192H896zm517-214l135 136l-90 90l-136-135zm315-426v128h-192V896zm-315-298l-91-91l136-135l90 90z"/></svg>