<svg xmlns="http://www.w3.org/2000/svg" width="1em" height="1em" viewBox="0 0 2048 2048"><path fill="currentColor" d="M1836 517q42 87 63 184t21 195q0 131-36 252t-102 227t-162 190t-212 141v86H768v128h256v128H384v-128h256v-128H0V896h128q0-124 32-238t90-214t140-181t181-140t214-91t239-32q130 0 252 36t227 102t190 162t141 212h2zm-147-5q-73-127-187-217t-254-134q48 78 77 169t47 182zm103 384q0-132-44-256h-356q16 128 16 255t0 257h340q44-124 44-256m-512 0q0-65-4-128t-12-128H784q-8 64-12 127t-4 129zm-256-763q-29 0-55 21t-49 56t-41 78t-33 85t-25 79t-15 60h436q-5-23-15-60t-24-79t-33-85t-41-77t-49-56t-56-22m-224 28q-140 43-254 133T359 512h317q17-90 46-181t78-170M300 640q-44 124-44 256h384q0-65 4-128t12-128zM128 1664h1152v-640H128zm1280-103q88-51 159-122t123-159h-282z"/></svg>