<svg xmlns="http://www.w3.org/2000/svg" width="1em" height="1em" viewBox="0 0 2048 2048"><path fill="currentColor" d="M704 256q97 0 187 25t168 71t143 110t110 142t71 169t25 187q0 97-25 187t-71 168t-110 143t-142 110t-169 71t-187 25q-97 0-187-25t-168-71t-143-110t-110-142t-71-169T0 960q0-97 25-187t71-168t110-143t142-110t169-71t187-25m0 1280q119 0 224-45t183-124t123-183t46-224q0-119-45-224t-124-183t-183-123t-224-46q-119 0-224 45T297 553T174 736t-46 224q0 119 45 224t124 183t183 123t224 46M475 896h677v128H475l210 211l-90 90l-365-365l365-365l90 90zm1189 0h384v128h-384zm384-384v128h-512V512zm-384 768h384v128h-384z"/></svg>