<svg xmlns="http://www.w3.org/2000/svg" width="1em" height="1em" viewBox="0 0 2048 2048"><path fill="currentColor" d="M1408 774q16-1 31-1t32 0q37 0 94 3t121 14t129 28t116 46t84 67t33 93v768q0 54-32 93t-84 68t-116 47t-129 29t-121 15t-94 4q-37 0-94-4t-121-14t-128-29t-116-47t-84-69t-33-93v-768q0-41 20-73t52-57t74-44t84-32t83-21t71-12V512H256v768H128V512H0V384L768 0l768 384v128h-128zM286 384h964L768 143zm1634 1408v-603q-110 51-219 71t-229 20q-120 0-229-20t-219-71v603q0 11 10 21t19 15q38 27 91 45t111 28t115 15t102 4q45 0 101-4t115-14t111-29t92-45q8-5 18-15t11-21m-448-640q45 0 101-4t115-14t111-29t92-45q7-5 18-15t11-21q0-11-11-21t-18-15q-38-27-91-44t-112-28t-114-15t-102-5q-45 0-102 4t-114 15t-111 28t-92 45q-7 5-18 15t-11 21q0 11 11 21t18 15q38 27 91 45t111 28t115 15t102 4M384 1280v-128h128v128zm256 0v-128h128v128zm-256-256V896h128v128zm0-256V640h128v128zm256 256V896h128v128z"/></svg>