<svg xmlns="http://www.w3.org/2000/svg" width="1em" height="1em" viewBox="0 0 2048 2048"><path fill="currentColor" d="M1664 1024V896h128v128zm0-1024v128h-128V0zm256 1152h-128v-128h128zM1408 0v128h-128V0zm-256 1024V896h128v128zM896 0v128H768V0zm512 1024V896h128v128zm512-256v128h-128V768zm-896 128v128H896V896zm0-256v128H896V640zm0-256v128H896V384zM1152 0v128h-128V0zm768 512v128h-128V512zM896 1255v-103h128v26q-67 33-128 77m1024-999v128h-128V256zm0-256v128h-128V0zM0 1408v-128h128v128zm0 256v-128h128v128zm0-512v-128h128v128zm256-256v128H128V896zM0 768h128v128H0zm256 1152v-128h128v128zm256 0v-128h128v128zm0-1024v128H384V896zM640 0v128H512V0zM384 0v128H256V0zm640 256H896V128h128zM768 896v128H640V896zM128 0v128H0V0zM0 1920v-128h128v128zM128 512v128H0V512zm0-256v128H0V256zm1920 1536h-128q0-66-21-122t-59-103t-87-82t-107-60t-118-36t-120-13q-59 0-120 12t-118 37t-106 59t-87 82t-59 103t-22 123H768q0-84 26-157t71-133t107-108t133-79t148-50t155-17q77 0 154 17t149 49t132 80t107 107t72 134t26 157m-640-256q53 0 100 20t81 54t55 82t20 100q0 53-20 100t-54 81t-82 55t-100 20q-53 0-100-20t-81-54t-55-82t-20-100q0-53 20-100t54-81t82-55t100-20m0 384q26 0 49-10t41-27t28-41t10-50q0-26-10-49t-27-41t-41-28t-50-10q-26 0-49 10t-41 27t-28 41t-10 50q0 26 10 49t27 41t41 28t50 10"/></svg>