<svg xmlns="http://www.w3.org/2000/svg" width="1em" height="1em" viewBox="0 0 2048 2048"><path fill="currentColor" d="M1792 0q27 0 50 10t40 27t28 41t10 50v480q0 45-9 77t-24 58t-31 46t-31 40t-23 44t-10 55v992q0 27-10 50t-27 40t-41 28t-50 10H256V0zM640 128v384h256V128zm1024 800q0-31-9-54t-24-44t-31-41t-31-45t-23-58t-10-78V128h-512v512H768v128H640V640H512V128H384v1792h384v-128h128v128h768zm128-800h-128v480q0 24 4 42t13 33t20 29t27 32q15-17 26-31t20-30t13-33t5-42zM640 896h128v128H640zm0 256h128v128H640zm0 256h128v128H640zm128 256v128H640v-128zm0-768V768h128v128zm0 256v-128h128v128zm0 256v-128h128v128zm0 256v-128h128v128z"/></svg>