<svg xmlns="http://www.w3.org/2000/svg" width="1em" height="1em" viewBox="0 0 16 16"><path fill="currentColor" fill-rule="evenodd" d="M5.56 4.403c.27.314.223.784-.015 1.123A2.986 2.986 0 0 0 5 7.25c0 .642.202 1.237.545 1.724c.238.339.284.809.015 1.123c-.27.315-.75.354-1.015.036A4.482 4.482 0 0 1 3.5 7.25c0-1.097.393-2.102 1.045-2.883c.266-.318.745-.279 1.015.036m4.88 0c-.27.314-.223.784.015 1.123c.344.487.545 1.082.545 1.724c0 .642-.201 1.237-.545 1.724c-.238.339-.284.809-.015 1.123c.27.315.75.354 1.015.036A4.482 4.482 0 0 0 12.5 7.25a4.482 4.482 0 0 0-1.045-2.883c-.265-.318-.745-.279-1.015.036m1.953-2.278c-.27.315-.23.785.05 1.092A5.978 5.978 0 0 1 14 7.25c0 1.553-.59 2.968-1.558 4.033c-.278.307-.319.777-.05 1.092c.27.314.747.353 1.033.053A7.474 7.474 0 0 0 15.5 7.25c0-2.008-.79-3.832-2.075-5.178c-.286-.3-.763-.261-1.032.053m-8.786 0c-.27-.314-.746-.353-1.032-.053A7.475 7.475 0 0 0 .5 7.25c0 2.008.79 3.832 2.075 5.178c.286.3.763.261 1.032-.053c.27-.315.23-.785-.05-1.092A5.978 5.978 0 0 1 2 7.25c0-1.553.59-2.968 1.558-4.033c.278-.307.319-.777.05-1.092ZM8.75 8.55a1.5 1.5 0 1 0-1.5 0v5.701a.75.75 0 0 0 1.5 0v-5.7Z" clip-rule="evenodd"/></svg>