<svg xmlns="http://www.w3.org/2000/svg" width="1em" height="1em" viewBox="0 0 16 16"><g fill="none"><g clip-path="url(#gravityUiChevronsExpandVertical0)"><path fill="currentColor" fill-rule="evenodd" d="M3.58 4.109a.75.75 0 0 0 1.061 1.06L8 1.811l3.354 3.353a.75.75 0 0 0 1.06-1.06L8.53.22a.75.75 0 0 0-1.06 0zm8.84 7.782a.75.75 0 1 0-1.061-1.06l-3.36 3.358l-3.353-3.353a.75.75 0 1 0-1.06 1.06L7.47 15.78a.75.75 0 0 0 1.06 0z" clip-rule="evenodd"/></g><defs><clipPath id="gravityUiChevronsExpandVertical0"><path fill="currentColor" d="M0 0h16v16H0z"/></clipPath></defs></g></svg>