<svg xmlns="http://www.w3.org/2000/svg" width="1em" height="1em" viewBox="0 0 16 16"><path fill="currentColor" fill-rule="evenodd" d="M8 15A7 7 0 1 0 8 1a7 7 0 0 0 0 14M6.44 4.54c.43-.354.994-.565 1.56-.565c1.217 0 2.34.82 2.34 2.14c0 .377-.079.745-.298 1.1c-.208.339-.513.614-.875.867c-.217.153-.326.257-.379.328c-.038.052-.038.07-.038.089a.75.75 0 0 1-1.5 0c0-.794.544-1.286 1.056-1.645c.28-.196.402-.332.46-.425a.543.543 0 0 0 .073-.313c0-.3-.243-.641-.839-.641a.997.997 0 0 0-.608.224c-.167.137-.231.286-.231.417a.75.75 0 0 1-1.5 0c0-.673.345-1.22.78-1.577ZM9 11a1 1 0 1 1-2 0a1 1 0 0 1 2 0" clip-rule="evenodd"/></svg>