<svg xmlns="http://www.w3.org/2000/svg" width="1em" height="1em" viewBox="0 0 16 16"><path fill="currentColor" fill-rule="evenodd" d="M10 9.5h.621l.44.44l1.51 1.51a.174.174 0 0 0 .295-.136l-.112-1.454l-.062-.809l.642-.495C14.037 8.016 14.5 7.211 14.5 6c0-1.214-.465-2.019-1.17-2.56c-.754-.578-1.902-.94-3.33-.94c-1.428 0-2.576.362-3.33.94C5.966 3.98 5.5 4.786 5.5 6s.465 2.019 1.17 2.56c.754.578 1.902.94 3.33.94m.52 2.02l.99.99a1.673 1.673 0 0 0 2.851-1.312l-.111-1.453C15.33 8.91 16 7.663 16 6c0-3.333-2.686-5-6-5c-2.127 0-3.995.687-5.06 2.06C2.131 3.384 0 5.03 0 8c0 1.663.669 2.911 1.75 3.745l-.111 1.453A1.673 1.673 0 0 0 4.49 14.51L6 13c1.803 0 3.42-.493 4.52-1.48M4.143 4.736C4.05 5.126 4 5.548 4 6c0 2.905 2.04 4.544 4.759 4.918c-.717.366-1.654.582-2.759.582h-.621l-.44.44l-1.51 1.51a.174.174 0 0 1-.295-.136l.112-1.454l.062-.809l-.642-.495C1.963 10.016 1.5 9.211 1.5 8c0-1.214.465-2.019 1.17-2.56c.391-.3.887-.541 1.473-.704" clip-rule="evenodd"/></svg>