<svg xmlns="http://www.w3.org/2000/svg" width="1em" height="1em" viewBox="0 0 16 16"><path fill="currentColor" fill-rule="evenodd" d="M11.836 1.5a.664.664 0 0 1 .491 1.11l-.354.39H4.027l-.354-.39a.664.664 0 0 1 .49-1.11zm-6.445 3l2.124 2.336a.5.5 0 0 0 .37.164h.23a.5.5 0 0 0 .37-.164L10.61 4.5zm.652 2.947L3.5 4.65v1.852a.5.5 0 0 0 .123.328L4.87 8.266a4.51 4.51 0 0 1 1.172-.82Zm-2.08 2.061L2.492 7.814A2 2 0 0 1 2 6.502V2a2 2 0 0 1 2-2h8a2 2 0 0 1 2 2v4.502a2 2 0 0 1-.49 1.312l-1.474 1.694a4.5 4.5 0 1 1-8.073 0m7.166-1.242a4.51 4.51 0 0 0-1.172-.82L12.5 4.65v1.852a.5.5 0 0 1-.123.328L11.13 8.266ZM11 11.5a3 3 0 1 1-6 0a3 3 0 0 1 6 0" clip-rule="evenodd"/></svg>