<svg xmlns="http://www.w3.org/2000/svg" width="1em" height="1em" viewBox="0 0 16 16"><path fill="currentColor" fill-rule="evenodd" d="M8 6.5a2 2 0 1 0 0-4a2 2 0 0 0 0 4M8 8a3.5 3.5 0 1 0 0-7a3.5 3.5 0 0 0 0 7m1 1.225a.71.71 0 0 0-.679-.72A11.087 11.087 0 0 0 8 8.5c-3.85 0-7 2-7 4A2.5 2.5 0 0 0 3.5 15h8.75a.75.75 0 0 0 0-1.5H3.5a1 1 0 0 1-1-1c0-.204.22-.809 1.32-1.459C4.838 10.44 6.32 10 8 10c.058 0 .117 0 .175.002c.442.008.825-.335.825-.777m4-.286l-.97-.97a.75.75 0 1 0-1.06 1.061l.97.97l-.97.97a.75.75 0 1 0 1.06 1.06l.97-.97l.97.97a.75.75 0 1 0 1.06-1.06l-.97-.97l.97-.97a.75.75 0 0 0-1.06-1.06l-.97.97Z" clip-rule="evenodd"/></svg>