<svg xmlns="http://www.w3.org/2000/svg" width="1em" height="1em" viewBox="0 0 16 16"><path fill="currentColor" fill-rule="evenodd" d="m7.835 6l.76-2.027L9.336 2H5.5a.716.716 0 0 0-.664.45L2.513 8.257a.177.177 0 0 0 .164.243h4.965l-.732 2.013l-1.082 2.975a.382.382 0 0 0 .637.392l6.956-7.391A.29.29 0 0 0 13.21 6zm2.728-3l.235-.627A1.386 1.386 0 0 0 9.5.5h-4c-.906 0-1.72.552-2.057 1.393L1.12 7.7A1.677 1.677 0 0 0 2.677 10H5.5l-.545 1.5l-.537 1.475a1.882 1.882 0 0 0 3.14 1.933l6.956-7.391A1.79 1.79 0 0 0 13.21 4.5H10z" clip-rule="evenodd"/></svg>