<svg xmlns="http://www.w3.org/2000/svg" width="1em" height="1em" viewBox="0 0 24 24"><path fill="none" stroke="currentColor" stroke-linecap="round" stroke-linejoin="round" stroke-width="2" d="M20 15H4m16 0V7.197c0-1.118 0-1.678-.218-2.105a2.001 2.001 0 0 0-.875-.874C18.48 4 17.92 4 16.8 4H7.2c-1.12 0-1.68 0-2.108.218a1.999 1.999 0 0 0-.874.874C4 5.52 4 6.08 4 7.2V15m16 0v1.803c0 1.118 0 1.677-.218 2.104a2.003 2.003 0 0 1-.875.875c-.427.218-.986.218-2.104.218H7.197c-1.118 0-1.678 0-2.105-.218a2.001 2.001 0 0 1-.874-.875C4 18.48 4 17.92 4 16.8V15"/></svg>