<svg xmlns="http://www.w3.org/2000/svg" width="1em" height="1em" viewBox="0 0 24 24"><path fill="none" stroke="currentColor" stroke-linecap="round" stroke-linejoin="round" stroke-width="2" d="M15 20H9m-5-6.2V8.2c0-1.12 0-1.68.218-2.108c.192-.377.497-.682.874-.874C5.52 5 6.08 5 7.2 5h9.6c1.12 0 1.68 0 2.107.218c.377.192.683.497.875.874c.218.427.218.987.218 2.105v5.606c0 1.118 0 1.677-.218 2.104a2.003 2.003 0 0 1-.875.875c-.427.218-.986.218-2.104.218H7.197c-1.118 0-1.678 0-2.105-.218a2.001 2.001 0 0 1-.874-.875C4 15.48 4 14.92 4 13.8"/></svg>