<svg xmlns="http://www.w3.org/2000/svg" width="1em" height="1em" viewBox="0 0 32 32"><g fill="none"><g filter="url(#f865id1d)"><path fill="url(#f865id0)" d="M6.5 20a1.5 1.5 0 1 0 0-3a1.5 1.5 0 0 0 0 3"/></g><path fill="url(#f865id1)" d="M29 28H8v-4h21v2.67z"/><path fill="url(#f865id2)" d="M15 12H9v2h6z"/><path fill="url(#f865id3)" d="M15 12H9v2h6z"/><path fill="url(#f865id4)" d="M7 6h10V4c0-.55-.45-1-1-1H8c-.55 0-1 .45-1 1z"/><path fill="url(#f865idu)" d="M7 6h10V4c0-.55-.45-1-1-1H8c-.55 0-1 .45-1 1z"/><path fill="url(#f865idv)" d="M7 6h10V4c0-.55-.45-1-1-1H8c-.55 0-1 .45-1 1z"/><path fill="url(#f865id5)" d="M7 6h10V4c0-.55-.45-1-1-1H8c-.55 0-1 .45-1 1z"/><path fill="url(#f865id6)" d="M7 9.41V7h10v2.41c0 .38-.15.74-.42 1.01L15 12H9l-1.58-1.58C7.15 10.15 7 9.79 7 9.41"/><path fill="url(#f865idw)" d="M7 9.41V7h10v2.41c0 .38-.15.74-.42 1.01L15 12H9l-1.58-1.58C7.15 10.15 7 9.79 7 9.41"/><path fill="url(#f865idx)" d="M7 9.41V7h10v2.41c0 .38-.15.74-.42 1.01L15 12H9l-1.58-1.58C7.15 10.15 7 9.79 7 9.41"/><path fill="url(#f865id7)" d="M7 9.41V7h10v2.41c0 .38-.15.74-.42 1.01L15 12H9l-1.58-1.58C7.15 10.15 7 9.79 7 9.41"/><path fill="url(#f865id8)" d="M16 17c-.55 0-1-.45-1-1s.45-1 1-1s1 .45 1 1c0 .56-.45 1-1 1"/><g filter="url(#f865id1e)"><path fill="url(#f865id9)" d="M23.5 24H7.78C6.8 24 6 23.2 6 22.22v-5.47C6 15.23 7.23 14 8.75 14H23.5z"/></g><g filter="url(#f865id1f)"><path fill="url(#f865ida)" d="M29 24H19V7.76c0-.97.78-1.75 1.75-1.75h6.49c.97 0 1.75.78 1.75 1.75V24z"/><path fill="url(#f865idy)" d="M29 24H19V7.76c0-.97.78-1.75 1.75-1.75h6.49c.97 0 1.75.78 1.75 1.75V24z"/></g><path fill="url(#f865idz)" d="M29 24H19V7.76c0-.97.78-1.75 1.75-1.75h6.49c.97 0 1.75.78 1.75 1.75V24z"/><path fill="url(#f865idb)" d="M2.7 29H8v-5l-1-1l-4.81 4.76A.724.724 0 0 0 2.7 29"/><path fill="url(#f865idc)" d="M2.7 29H8v-5l-1-1l-4.81 4.76A.724.724 0 0 0 2.7 29"/><path fill="url(#f865idd)" d="M2.7 29H8v-5l-1-1l-4.81 4.76A.724.724 0 0 0 2.7 29"/><g filter="url(#f865id1g)"><path fill="url(#f865ide)" d="M15 29a2 2 0 1 0 0-4a2 2 0 0 0 0 4"/></g><g filter="url(#f865id1h)"><path fill="url(#f865idf)" d="M10.828 29a2 2 0 1 0 0-4a2 2 0 0 0 0 4"/><path fill="url(#f865id10)" d="M10.828 29a2 2 0 1 0 0-4a2 2 0 0 0 0 4"/></g><path fill="url(#f865idg)" d="M29 22H6v2h23z"/><g filter="url(#f865id1i)"><path fill="url(#f865idh)" d="M15 26h-4c-.55 0-1 .45-1 1s.45 1 1 1h4c.55 0 1-.45 1-1s-.45-1-1-1"/><path fill="url(#f865id11)" d="M15 26h-4c-.55 0-1 .45-1 1s.45 1 1 1h4c.55 0 1-.45 1-1s-.45-1-1-1"/><path fill="url(#f865id12)" d="M15 26h-4c-.55 0-1 .45-1 1s.45 1 1 1h4c.55 0 1-.45 1-1s-.45-1-1-1"/><path fill="url(#f865idi)" d="M15 26h-4c-.55 0-1 .45-1 1s.45 1 1 1h4c.55 0 1-.45 1-1s-.45-1-1-1"/></g><path fill="url(#f865id13)" d="M15 26h-4c-.55 0-1 .45-1 1s.45 1 1 1h4c.55 0 1-.45 1-1s-.45-1-1-1"/><path fill="url(#f865idj)" d="M17 6H7v2h10z"/><path fill="url(#f865id14)" d="M17 6H7v2h10z"/><g filter="url(#f865id1j)"><path fill="url(#f865idk)" d="M21 29a3 3 0 1 0 0-6a3 3 0 0 0 0 6"/></g><g filter="url(#f865id1k)"><path stroke="url(#f865idl)" stroke-width=".25" d="M23.549 26a2.549 2.549 0 1 1-5.098 0a2.549 2.549 0 0 1 5.098 0Z"/></g><g filter="url(#f865id1l)"><path fill="url(#f865id15)" d="M21 28a2 2 0 1 0 0-4a2 2 0 0 0 0 4"/><path fill="url(#f865id16)" d="M21 28a2 2 0 1 0 0-4a2 2 0 0 0 0 4"/><path fill="url(#f865id17)" d="M21 28a2 2 0 1 0 0-4a2 2 0 0 0 0 4"/></g><g filter="url(#f865id1m)"><path fill="#B8A7B6" d="M21 27.416a1.416 1.416 0 1 0 0-2.832a1.416 1.416 0 0 0 0 2.832"/></g><g filter="url(#f865id1n)"><path fill="url(#f865idm)" d="M27 29a3 3 0 1 0 0-6a3 3 0 0 0 0 6"/></g><g filter="url(#f865id1o)"><path fill="url(#f865id18)" d="M27 28a2 2 0 1 0 0-4a2 2 0 0 0 0 4"/><path fill="url(#f865id19)" d="M27 28a2 2 0 1 0 0-4a2 2 0 0 0 0 4"/><path fill="url(#f865id1a)" d="M27 28a2 2 0 1 0 0-4a2 2 0 0 0 0 4"/></g><g filter="url(#f865id1p)"><path fill="#B8A7B6" d="M27 27.416a1.416 1.416 0 1 0 0-2.832a1.416 1.416 0 0 0 0 2.832"/></g><g filter="url(#f865id1q)"><path stroke="url(#f865idn)" stroke-width=".25" d="M29.549 26a2.549 2.549 0 1 1-5.098 0a2.549 2.549 0 0 1 5.098 0Z"/></g><path fill="url(#f865id1b)" d="M21 28a2 2 0 1 0 0-4a2 2 0 0 0 0 4"/><path fill="url(#f865id1c)" d="M27 28a2 2 0 1 0 0-4a2 2 0 0 0 0 4"/><g filter="url(#f865id1r)"><rect width="6.044" height="6.044" x="20.956" y="8.031" fill="url(#f865ido)" rx="1"/><rect width="6.044" height="6.044" x="20.956" y="8.031" fill="url(#f865idp)" rx="1"/><rect width="6.044" height="6.044" x="20.956" y="8.031" fill="url(#f865idq)" rx="1"/></g><g filter="url(#f865id1s)"><path stroke="url(#f865idr)" stroke-linecap="square" d="M8.8 15.386h9.412"/></g><g filter="url(#f865id1t)"><path stroke="url(#f865ids)" stroke-linecap="round" stroke-width=".4" d="M8.332 3.723h7.75"/></g><g filter="url(#f865id1u)"><path stroke="url(#f865idt)" stroke-linecap="round" stroke-width=".8" d="M21 7h6.004a1 1 0 0 1 1 1v12.966"/></g><defs><linearGradient id="f865id0" x1="6.497" x2="6.497" y1="17.517" y2="20.49" gradientUnits="userSpaceOnUse"><stop stop-color="#E29A24"/><stop offset="1" stop-color="#B6702E"/></linearGradient><linearGradient id="f865id1" x1="18.497" x2="18.497" y1="23.634" y2="26.319" gradientUnits="userSpaceOnUse"><stop stop-color="#231928"/><stop offset="1" stop-color="#353037"/></linearGradient><linearGradient id="f865id2" x1="9" x2="15" y1="13.003" y2="13.003" gradientUnits="userSpaceOnUse"><stop offset=".117" stop-color="#312D34"/><stop offset=".6" stop-color="#52455C"/><stop offset=".845" stop-color="#52455C"/><stop offset="1" stop-color="#3D273B"/></linearGradient><linearGradient id="f865id3" x1="12" x2="12" y1="12" y2="12.239" gradientUnits="userSpaceOnUse"><stop stop-color="#32203E"/><stop offset="1" stop-color="#32203E" stop-opacity="0"/></linearGradient><linearGradient id="f865id4" x1="8.29" x2="16.771" y1="9.503" y2="9.503" gradientUnits="userSpaceOnUse"><stop stop-color="#2E2635"/><stop offset="1" stop-color="#7D6488"/></linearGradient><linearGradient id="f865id5" x1="12" x2="12" y1="12.219" y2="9.483" gradientUnits="userSpaceOnUse"><stop offset=".592" stop-color="#31203D"/><stop offset="1" stop-color="#31203D" stop-opacity="0"/></linearGradient><linearGradient id="f865id6" x1="8.29" x2="16.771" y1="9.503" y2="9.503" gradientUnits="userSpaceOnUse"><stop stop-color="#2E2635"/><stop offset="1" stop-color="#7D6488"/></linearGradient><linearGradient id="f865id7" x1="12" x2="12" y1="12.219" y2="9.483" gradientUnits="userSpaceOnUse"><stop offset=".592" stop-color="#31203D"/><stop offset="1" stop-color="#31203D" stop-opacity="0"/></linearGradient><linearGradient id="f865id8" x1="14.998" x2="16.997" y1="16.003" y2="16.003" gradientUnits="userSpaceOnUse"><stop stop-color="#1C1C1C"/><stop offset="1" stop-color="#9B9B9B"/></linearGradient><linearGradient id="f865id9" x1="14.748" x2="14.748" y1="21.947" y2="15.762" gradientUnits="userSpaceOnUse"><stop stop-color="#3E3842"/><stop offset="1" stop-color="#5D4A6D"/></linearGradient><linearGradient id="f865ida" x1="23.997" x2="23.997" y1="6.01" y2="21.833" gradientUnits="userSpaceOnUse"><stop stop-color="#D53779"/><stop offset="1" stop-color="#E73450"/></linearGradient><linearGradient id="f865idb" x1="2.549" x2="8.362" y1="27.594" y2="27.594" gradientUnits="userSpaceOnUse"><stop stop-color="#DF346A"/><stop offset="1" stop-color="#EB344A"/></linearGradient><linearGradient id="f865idc" x1="3.784" x2="4.712" y1="26" y2="26.921" gradientUnits="userSpaceOnUse"><stop offset=".273" stop-color="#9C4150"/><stop offset="1" stop-color="#9C4150" stop-opacity="0"/></linearGradient><linearGradient id="f865idd" x1="4.987" x2="4.987" y1="29.226" y2="28.166" gradientUnits="userSpaceOnUse"><stop offset=".316" stop-color="#A52C66"/><stop offset="1" stop-color="#A52C66" stop-opacity="0"/></linearGradient><linearGradient id="f865ide" x1="15.256" x2="15.256" y1="28.704" y2="25" gradientUnits="userSpaceOnUse"><stop stop-color="#413649"/><stop offset="1" stop-color="#644D74"/></linearGradient><linearGradient id="f865idf" x1="11.085" x2="11.085" y1="29" y2="25" gradientUnits="userSpaceOnUse"><stop stop-color="#45394F"/><stop offset="1" stop-color="#644D74"/></linearGradient><linearGradient id="f865idg" x1="6" x2="29" y1="24" y2="24" gradientUnits="userSpaceOnUse"><stop stop-color="#706671"/><stop offset=".093" stop-color="#A99AAA"/><stop offset=".932" stop-color="#C9B9C1"/><stop offset="1" stop-color="#F3E8E2"/></linearGradient><linearGradient id="f865idh" x1="13.174" x2="13.174" y1="26" y2="28" gradientUnits="userSpaceOnUse"><stop stop-color="#B7ABB2"/><stop offset="1" stop-color="#B19DB2"/></linearGradient><linearGradient id="f865idi" x1="13" x2="13" y1="28.359" y2="27.438" gradientUnits="userSpaceOnUse"><stop stop-color="#8E689F"/><stop offset="1" stop-color="#8E689F" stop-opacity="0"/></linearGradient><linearGradient id="f865idj" x1="7.544" x2="17.128" y1="7.003" y2="7.003" gradientUnits="userSpaceOnUse"><stop stop-color="#A2693C"/><stop offset=".501" stop-color="#FAA845"/><stop offset=".738" stop-color="#FFC651"/><stop offset=".942" stop-color="#FFC651"/><stop offset="1" stop-color="#F6B253"/></linearGradient><linearGradient id="f865idk" x1="21.384" x2="21.384" y1="28.556" y2="23" gradientUnits="userSpaceOnUse"><stop stop-color="#2F1C3B"/><stop offset="1" stop-color="#644D74"/></linearGradient><linearGradient id="f865idl" x1="22.713" x2="20.142" y1="23.59" y2="28.037" gradientUnits="userSpaceOnUse"><stop stop-color="#7A6788"/><stop offset="1" stop-color="#7A6788" stop-opacity="0"/></linearGradient><linearGradient id="f865idm" x1="27.384" x2="27.384" y1="28.556" y2="23" gradientUnits="userSpaceOnUse"><stop stop-color="#2F1C3B"/><stop offset="1" stop-color="#644D74"/></linearGradient><linearGradient id="f865idn" x1="28.713" x2="26.142" y1="23.59" y2="28.037" gradientUnits="userSpaceOnUse"><stop stop-color="#7A6788"/><stop offset="1" stop-color="#7A6788" stop-opacity="0"/></linearGradient><linearGradient id="f865ido" x1="27" x2="21.08" y1="7.781" y2="14.076" gradientUnits="userSpaceOnUse"><stop stop-color="#44AFF5"/><stop offset="1" stop-color="#55E4FF"/></linearGradient><linearGradient id="f865idp" x1="20.737" x2="22.205" y1="12.438" y2="12.438" gradientUnits="userSpaceOnUse"><stop stop-color="#57FAFF"/><stop offset="1" stop-color="#57FAFF" stop-opacity="0"/></linearGradient><linearGradient id="f865idq" x1="23.799" x2="23.799" y1="7.438" y2="11.053" gradientUnits="userSpaceOnUse"><stop stop-color="#1C89EA"/><stop offset="1" stop-color="#1C89EA" stop-opacity="0"/></linearGradient><linearGradient id="f865idr" x1="9.079" x2="21.278" y1="16.41" y2="16.41" gradientUnits="userSpaceOnUse"><stop stop-color="#695579"/><stop offset="1" stop-color="#644F7C" stop-opacity="0"/></linearGradient><linearGradient id="f865ids" x1="9.989" x2="16.662" y1="4.752" y2="4.752" gradientUnits="userSpaceOnUse"><stop stop-color="#827091" stop-opacity="0"/><stop offset="1" stop-color="#827091"/></linearGradient><linearGradient id="f865idt" x1="19.79" x2="29.35" y1="15.029" y2="10.529" gradientUnits="userSpaceOnUse"><stop stop-color="#DF4F8A" stop-opacity="0"/><stop offset="1" stop-color="#EA4B89"/></linearGradient><radialGradient id="f865idu" cx="0" cy="0" r="1" gradientTransform="matrix(-2.19642 0 0 -4.65125 17.656 9.774)" gradientUnits="userSpaceOnUse"><stop offset=".255" stop-color="#42203E"/><stop offset="1" stop-color="#42203E" stop-opacity="0"/></radialGradient><radialGradient id="f865idv" cx="0" cy="0" r="1" gradientTransform="matrix(0 -4.23289 2.65918 0 14.34 7.5)" gradientUnits="userSpaceOnUse"><stop stop-color="#685575"/><stop offset="1" stop-color="#685575" stop-opacity="0"/></radialGradient><radialGradient id="f865idw" cx="0" cy="0" r="1" gradientTransform="matrix(-2.19642 0 0 -4.65125 17.656 9.774)" gradientUnits="userSpaceOnUse"><stop offset=".255" stop-color="#42203E"/><stop offset="1" stop-color="#42203E" stop-opacity="0"/></radialGradient><radialGradient id="f865idx" cx="0" cy="0" r="1" gradientTransform="matrix(0 -4.23289 2.65918 0 14.34 7.5)" gradientUnits="userSpaceOnUse"><stop stop-color="#685575"/><stop offset="1" stop-color="#685575" stop-opacity="0"/></radialGradient><radialGradient id="f865idy" cx="0" cy="0" r="1" gradientTransform="matrix(-1.77074 1.82344 -.99056 -.96193 29 6.21)" gradientUnits="userSpaceOnUse"><stop stop-color="#F2508E"/><stop offset="1" stop-color="#F2508E" stop-opacity="0"/></radialGradient><radialGradient id="f865idz" cx="0" cy="0" r="1" gradientTransform="rotate(-35.149 41.262 -19.4)scale(4.96699 12.4225)" gradientUnits="userSpaceOnUse"><stop offset=".681" stop-color="#E53352"/><stop offset="1" stop-color="#E53352" stop-opacity="0"/></radialGradient><radialGradient id="f865id10" cx="0" cy="0" r="1" gradientTransform="rotate(90.813 -7.878 18.955)scale(1.10167)" gradientUnits="userSpaceOnUse"><stop offset=".807" stop-color="#342340"/><stop offset="1" stop-color="#342340" stop-opacity="0"/></radialGradient><radialGradient id="f865id11" cx="0" cy="0" r="1" gradientTransform="matrix(-5.90625 0 0 -3.81111 15.55 27)" gradientUnits="userSpaceOnUse"><stop offset=".788" stop-color="#664356" stop-opacity="0"/><stop offset="1" stop-color="#664356"/></radialGradient><radialGradient id="f865id12" cx="0" cy="0" r="1" gradientTransform="rotate(155.833 5.16 14.978)scale(1.145 1.10706)" gradientUnits="userSpaceOnUse"><stop stop-color="#D8CACC"/><stop offset="1" stop-color="#D8CACC" stop-opacity="0"/></radialGradient><radialGradient id="f865id13" cx="0" cy="0" r="1" gradientTransform="rotate(142.321 4.064 15.42)scale(4.6818 3.58383)" gradientUnits="userSpaceOnUse"><stop stop-color="#EFE3DD"/><stop offset="1" stop-color="#EFE3DD" stop-opacity="0"/></radialGradient><radialGradient id="f865id14" cx="0" cy="0" r="1" gradientTransform="matrix(-1.16037 0 0 -1.39681 17.325 8)" gradientUnits="userSpaceOnUse"><stop offset=".071" stop-color="#C0813E"/><stop offset="1" stop-color="#C0813E" stop-opacity="0"/></radialGradient><radialGradient id="f865id15" cx="0" cy="0" r="1" gradientTransform="rotate(120.433 3.614 18.721)scale(3.37735)" gradientUnits="userSpaceOnUse"><stop offset=".444" stop-color="#B8A6B6"/><stop offset="1" stop-color="#8E6D9C"/></radialGradient><radialGradient id="f865id16" cx="0" cy="0" r="1" gradientTransform="matrix(3.00633 -2.28934 2.38519 3.1322 19.837 27.038)" gradientUnits="userSpaceOnUse"><stop offset=".689" stop-color="#F4E9E4" stop-opacity="0"/><stop offset="1" stop-color="#F4E9E4"/></radialGradient><radialGradient id="f865id17" cx="0" cy="0" r="1" gradientTransform="rotate(-137.731 16.107 9.089)scale(3.93651)" gradientUnits="userSpaceOnUse"><stop offset=".534" stop-color="#6E656E" stop-opacity="0"/><stop offset="1" stop-color="#6E656E"/></radialGradient><radialGradient id="f865id18" cx="0" cy="0" r="1" gradientTransform="rotate(120.433 6.614 20.438)scale(3.37735)" gradientUnits="userSpaceOnUse"><stop offset=".444" stop-color="#B8A6B6"/><stop offset="1" stop-color="#8E6D9C"/></radialGradient><radialGradient id="f865id19" cx="0" cy="0" r="1" gradientTransform="matrix(3.00633 -2.28934 2.38519 3.1322 25.837 27.038)" gradientUnits="userSpaceOnUse"><stop offset=".689" stop-color="#F4E9E4" stop-opacity="0"/><stop offset="1" stop-color="#F4E9E4"/></radialGradient><radialGradient id="f865id1a" cx="0" cy="0" r="1" gradientTransform="rotate(-137.731 19.107 7.929)scale(3.93651)" gradientUnits="userSpaceOnUse"><stop offset=".534" stop-color="#6E656E" stop-opacity="0"/><stop offset="1" stop-color="#6E656E"/></radialGradient><radialGradient id="f865id1b" cx="0" cy="0" r="1" gradientTransform="rotate(127.161 5.538 17.714)scale(4.04845)" gradientUnits="userSpaceOnUse"><stop stop-color="#EFE3DD"/><stop offset="1" stop-color="#EFE3DD" stop-opacity="0"/></radialGradient><radialGradient id="f865id1c" cx="0" cy="0" r="1" gradientTransform="rotate(127.161 8.538 19.204)scale(4.04845)" gradientUnits="userSpaceOnUse"><stop stop-color="#EFE3DD"/><stop offset="1" stop-color="#EFE3DD" stop-opacity="0"/></radialGradient><filter id="f865id1d" width="3" height="3" x="5" y="17" color-interpolation-filters="sRGB" filterUnits="userSpaceOnUse"><feFlood flood-opacity="0" result="BackgroundImageFix"/><feBlend in="SourceGraphic" in2="BackgroundImageFix" result="shape"/><feColorMatrix in="SourceAlpha" result="hardAlpha" values="0 0 0 0 0 0 0 0 0 0 0 0 0 0 0 0 0 0 127 0"/><feOffset/><feGaussianBlur stdDeviation=".3"/><feComposite in2="hardAlpha" k2="-1" k3="1" operator="arithmetic"/><feColorMatrix values="0 0 0 0 0.733333 0 0 0 0 0.533333 0 0 0 0 0.223529 0 0 0 1 0"/><feBlend in2="shape" result="effect1_innerShadow_18_9008"/></filter><filter id="f865id1e" width="18.75" height="10" x="6" y="14" color-interpolation-filters="sRGB" filterUnits="userSpaceOnUse"><feFlood flood-opacity="0" result="BackgroundImageFix"/><feBlend in="SourceGraphic" in2="BackgroundImageFix" result="shape"/><feColorMatrix in="SourceAlpha" result="hardAlpha" values="0 0 0 0 0 0 0 0 0 0 0 0 0 0 0 0 0 0 127 0"/><feOffset dx="1.25"/><feGaussianBlur stdDeviation=".75"/><feComposite in2="hardAlpha" k2="-1" k3="1" operator="arithmetic"/><feColorMatrix values="0 0 0 0 0.172549 0 0 0 0 0.156863 0 0 0 0 0.188235 0 0 0 1 0"/><feBlend in2="shape" result="effect1_innerShadow_18_9008"/></filter><filter id="f865id1f" width="11" height="17.99" x="19" y="6.01" color-interpolation-filters="sRGB" filterUnits="userSpaceOnUse"><feFlood flood-opacity="0" result="BackgroundImageFix"/><feBlend in="SourceGraphic" in2="BackgroundImageFix" result="shape"/><feColorMatrix in="SourceAlpha" result="hardAlpha" values="0 0 0 0 0 0 0 0 0 0 0 0 0 0 0 0 0 0 127 0"/><feOffset dx="1"/><feGaussianBlur stdDeviation=".5"/><feComposite in2="hardAlpha" k2="-1" k3="1" operator="arithmetic"/><feColorMatrix values="0 0 0 0 0.592157 0 0 0 0 0.172549 0 0 0 0 0.305882 0 0 0 1 0"/><feBlend in2="shape" result="effect1_innerShadow_18_9008"/></filter><filter id="f865id1g" width="4" height="4" x="13" y="25" color-interpolation-filters="sRGB" filterUnits="userSpaceOnUse"><feFlood flood-opacity="0" result="BackgroundImageFix"/><feBlend in="SourceGraphic" in2="BackgroundImageFix" result="shape"/><feColorMatrix in="SourceAlpha" result="hardAlpha" values="0 0 0 0 0 0 0 0 0 0 0 0 0 0 0 0 0 0 127 0"/><feOffset/><feGaussianBlur stdDeviation=".25"/><feComposite in2="hardAlpha" k2="-1" k3="1" operator="arithmetic"/><feColorMatrix values="0 0 0 0 0.188235 0 0 0 0 0.113725 0 0 0 0 0.243137 0 0 0 1 0"/><feBlend in2="shape" result="effect1_innerShadow_18_9008"/></filter><filter id="f865id1h" width="4" height="4" x="8.828" y="25" color-interpolation-filters="sRGB" filterUnits="userSpaceOnUse"><feFlood flood-opacity="0" result="BackgroundImageFix"/><feBlend in="SourceGraphic" in2="BackgroundImageFix" result="shape"/><feColorMatrix in="SourceAlpha" result="hardAlpha" values="0 0 0 0 0 0 0 0 0 0 0 0 0 0 0 0 0 0 127 0"/><feOffset/><feGaussianBlur stdDeviation=".2"/><feComposite in2="hardAlpha" k2="-1" k3="1" operator="arithmetic"/><feColorMatrix values="0 0 0 0 0.188235 0 0 0 0 0.113725 0 0 0 0 0.243137 0 0 0 1 0"/><feBlend in2="shape" result="effect1_innerShadow_18_9008"/></filter><filter id="f865id1i" width="6" height="2.1" x="10" y="26" color-interpolation-filters="sRGB" filterUnits="userSpaceOnUse"><feFlood flood-opacity="0" result="BackgroundImageFix"/><feBlend in="SourceGraphic" in2="BackgroundImageFix" result="shape"/><feColorMatrix in="SourceAlpha" result="hardAlpha" values="0 0 0 0 0 0 0 0 0 0 0 0 0 0 0 0 0 0 127 0"/><feOffset dy=".1"/><feGaussianBlur stdDeviation=".2"/><feComposite in2="hardAlpha" k2="-1" k3="1" operator="arithmetic"/><feColorMatrix values="0 0 0 0 0.501961 0 0 0 0 0.478431 0 0 0 0 0.47451 0 0 0 1 0"/><feBlend in2="shape" result="effect1_innerShadow_18_9008"/></filter><filter id="f865id1j" width="6" height="6" x="18" y="23" color-interpolation-filters="sRGB" filterUnits="userSpaceOnUse"><feFlood flood-opacity="0" result="BackgroundImageFix"/><feBlend in="SourceGraphic" in2="BackgroundImageFix" result="shape"/><feColorMatrix in="SourceAlpha" result="hardAlpha" values="0 0 0 0 0 0 0 0 0 0 0 0 0 0 0 0 0 0 127 0"/><feOffset/><feGaussianBlur stdDeviation=".25"/><feComposite in2="hardAlpha" k2="-1" k3="1" operator="arithmetic"/><feColorMatrix values="0 0 0 0 0.188235 0 0 0 0 0.113725 0 0 0 0 0.243137 0 0 0 1 0"/><feBlend in2="shape" result="effect1_innerShadow_18_9008"/></filter><filter id="f865id1k" width="6.148" height="6.148" x="17.926" y="22.926" color-interpolation-filters="sRGB" filterUnits="userSpaceOnUse"><feFlood flood-opacity="0" result="BackgroundImageFix"/><feBlend in="SourceGraphic" in2="BackgroundImageFix" result="shape"/><feGaussianBlur result="effect1_foregroundBlur_18_9008" stdDeviation=".2"/></filter><filter id="f865id1l" width="4.4" height="4.4" x="18.7" y="23.9" color-interpolation-filters="sRGB" filterUnits="userSpaceOnUse"><feFlood flood-opacity="0" result="BackgroundImageFix"/><feColorMatrix in="SourceAlpha" result="hardAlpha" values="0 0 0 0 0 0 0 0 0 0 0 0 0 0 0 0 0 0 127 0"/><feOffset dx="-.1" dy=".1"/><feGaussianBlur stdDeviation=".1"/><feComposite in2="hardAlpha" operator="out"/><feColorMatrix values="0 0 0 0 0.2 0 0 0 0 0.137255 0 0 0 0 0.247059 0 0 0 1 0"/><feBlend in2="BackgroundImageFix" result="effect1_dropShadow_18_9008"/><feBlend in="SourceGraphic" in2="effect1_dropShadow_18_9008" result="shape"/></filter><filter id="f865id1m" width="4.332" height="4.332" x="18.834" y="23.834" color-interpolation-filters="sRGB" filterUnits="userSpaceOnUse"><feFlood flood-opacity="0" result="BackgroundImageFix"/><feBlend in="SourceGraphic" in2="BackgroundImageFix" result="shape"/><feGaussianBlur result="effect1_foregroundBlur_18_9008" stdDeviation=".375"/></filter><filter id="f865id1n" width="6" height="6" x="24" y="23" color-interpolation-filters="sRGB" filterUnits="userSpaceOnUse"><feFlood flood-opacity="0" result="BackgroundImageFix"/><feBlend in="SourceGraphic" in2="BackgroundImageFix" result="shape"/><feColorMatrix in="SourceAlpha" result="hardAlpha" values="0 0 0 0 0 0 0 0 0 0 0 0 0 0 0 0 0 0 127 0"/><feOffset/><feGaussianBlur stdDeviation=".25"/><feComposite in2="hardAlpha" k2="-1" k3="1" operator="arithmetic"/><feColorMatrix values="0 0 0 0 0.188235 0 0 0 0 0.113725 0 0 0 0 0.243137 0 0 0 1 0"/><feBlend in2="shape" result="effect1_innerShadow_18_9008"/></filter><filter id="f865id1o" width="4.4" height="4.4" x="24.7" y="23.9" color-interpolation-filters="sRGB" filterUnits="userSpaceOnUse"><feFlood flood-opacity="0" result="BackgroundImageFix"/><feColorMatrix in="SourceAlpha" result="hardAlpha" values="0 0 0 0 0 0 0 0 0 0 0 0 0 0 0 0 0 0 127 0"/><feOffset dx="-.1" dy=".1"/><feGaussianBlur stdDeviation=".1"/><feComposite in2="hardAlpha" operator="out"/><feColorMatrix values="0 0 0 0 0.2 0 0 0 0 0.137255 0 0 0 0 0.247059 0 0 0 1 0"/><feBlend in2="BackgroundImageFix" result="effect1_dropShadow_18_9008"/><feBlend in="SourceGraphic" in2="effect1_dropShadow_18_9008" result="shape"/></filter><filter id="f865id1p" width="4.332" height="4.332" x="24.834" y="23.834" color-interpolation-filters="sRGB" filterUnits="userSpaceOnUse"><feFlood flood-opacity="0" result="BackgroundImageFix"/><feBlend in="SourceGraphic" in2="BackgroundImageFix" result="shape"/><feGaussianBlur result="effect1_foregroundBlur_18_9008" stdDeviation=".375"/></filter><filter id="f865id1q" width="6.148" height="6.148" x="23.926" y="22.926" color-interpolation-filters="sRGB" filterUnits="userSpaceOnUse"><feFlood flood-opacity="0" result="BackgroundImageFix"/><feBlend in="SourceGraphic" in2="BackgroundImageFix" result="shape"/><feGaussianBlur result="effect1_foregroundBlur_18_9008" stdDeviation=".2"/></filter><filter id="f865id1r" width="6.544" height="6.544" x="20.456" y="8.031" color-interpolation-filters="sRGB" filterUnits="userSpaceOnUse"><feFlood flood-opacity="0" result="BackgroundImageFix"/><feBlend in="SourceGraphic" in2="BackgroundImageFix" result="shape"/><feColorMatrix in="SourceAlpha" result="hardAlpha" values="0 0 0 0 0 0 0 0 0 0 0 0 0 0 0 0 0 0 127 0"/><feOffset dx="-.5" dy=".5"/><feGaussianBlur stdDeviation=".5"/><feComposite in2="hardAlpha" k2="-1" k3="1" operator="arithmetic"/><feColorMatrix values="0 0 0 0 0.141176 0 0 0 0 0.490196 0 0 0 0 0.870588 0 0 0 1 0"/><feBlend in2="shape" result="effect1_innerShadow_18_9008"/></filter><filter id="f865id1s" width="12.412" height="3" x="7.3" y="13.886" color-interpolation-filters="sRGB" filterUnits="userSpaceOnUse"><feFlood flood-opacity="0" result="BackgroundImageFix"/><feBlend in="SourceGraphic" in2="BackgroundImageFix" result="shape"/><feGaussianBlur result="effect1_foregroundBlur_18_9008" stdDeviation=".5"/></filter><filter id="f865id1t" width="8.95" height="1.2" x="7.732" y="3.123" color-interpolation-filters="sRGB" filterUnits="userSpaceOnUse"><feFlood flood-opacity="0" result="BackgroundImageFix"/><feBlend in="SourceGraphic" in2="BackgroundImageFix" result="shape"/><feGaussianBlur result="effect1_foregroundBlur_18_9008" stdDeviation=".2"/></filter><filter id="f865id1u" width="9.404" height="16.366" x="19.8" y="5.8" color-interpolation-filters="sRGB" filterUnits="userSpaceOnUse"><feFlood flood-opacity="0" result="BackgroundImageFix"/><feBlend in="SourceGraphic" in2="BackgroundImageFix" result="shape"/><feGaussianBlur result="effect1_foregroundBlur_18_9008" stdDeviation=".4"/></filter></defs></g></svg>