<svg xmlns="http://www.w3.org/2000/svg" width="1em" height="1em" viewBox="0 0 32 32"><g fill="none"><path fill="url(#f1287id0)" d="M26.478 11.561c-2.243-2.143-5.051-3.376-6.334-3.816l-4.062 12.312h5.89c2.916-1.118 4.431-4.528 4.986-6.894a1.682 1.682 0 0 0-.48-1.602"/><g filter="url(#f1287id1r)"><path fill="url(#f1287id1)" d="M25.979 11.106c.169.147.336.299.5.455c.431.413.616 1.02.48 1.602c-.462 1.964-1.584 4.649-3.62 6.143l-1.038-.694c2.587-1.72 3.696-4.97 3.678-7.506"/><path fill="url(#f1287id2)" d="M25.979 11.106c.169.147.336.299.5.455c.431.413.616 1.02.48 1.602c-.462 1.964-1.584 4.649-3.62 6.143l-1.038-.694c2.587-1.72 3.696-4.97 3.678-7.506"/></g><path fill="url(#f1287id3)" d="M5.77 11.561c2.243-2.143 5.052-3.376 6.334-3.816l4.063 12.312h-5.891c-2.916-1.118-4.43-4.528-4.986-6.894a1.682 1.682 0 0 1 .48-1.602"/><g filter="url(#f1287id1s)"><path fill="url(#f1287idz)" d="M6.27 11.106c-.17.147-.336.299-.5.455a1.682 1.682 0 0 0-.48 1.602c.461 1.964 1.584 4.649 3.62 6.143l1.038-.694c-2.588-1.72-3.697-4.97-3.678-7.506"/></g><path fill="url(#f1287id10)" d="M15.935 15.588c-6.04 0-10.938 5.1-10.938 11.14v3.235h21.875V26.73c0-6.04-4.896-11.14-10.937-11.14"/><path fill="url(#f1287id4)" d="M15.935 15.588c-6.04 0-10.938 5.1-10.938 11.14v3.235h21.875V26.73c0-6.04-4.896-11.14-10.937-11.14"/><path fill="url(#f1287id5)" d="M15.935 15.588c-6.04 0-10.938 5.1-10.938 11.14v3.235h21.875V26.73c0-6.04-4.896-11.14-10.937-11.14"/><path fill="url(#f1287id6)" d="M15.935 15.588c-6.04 0-10.938 5.1-10.938 11.14v3.235h21.875V26.73c0-6.04-4.896-11.14-10.937-11.14"/><path fill="url(#f1287id7)" d="M15.935 15.588c-6.04 0-10.938 5.1-10.938 11.14v3.235h21.875V26.73c0-6.04-4.896-11.14-10.937-11.14"/><path fill="url(#f1287id8)" d="M15.935 15.588c-6.04 0-10.938 5.1-10.938 11.14v3.235h21.875V26.73c0-6.04-4.896-11.14-10.937-11.14"/><path fill="url(#f1287id11)" d="M15.935 15.588c-6.04 0-10.938 5.1-10.938 11.14v3.235h21.875V26.73c0-6.04-4.896-11.14-10.937-11.14"/><path fill="url(#f1287id12)" d="M15.935 15.588c-6.04 0-10.938 5.1-10.938 11.14v3.235h21.875V26.73c0-6.04-4.896-11.14-10.937-11.14"/><path fill="url(#f1287id9)" d="M23.11 18.359v11.604h3.762V26.73c0-3.295-1.456-6.31-3.761-8.37"/><path fill="url(#f1287ida)" d="M23.11 18.359v11.604h3.762V26.73c0-3.295-1.456-6.31-3.761-8.37"/><path fill="url(#f1287idb)" d="M8.76 18.359v11.604H4.996V26.73c0-3.295 1.457-6.31 3.762-8.37"/><path fill="url(#f1287idc)" d="M8.76 18.359v11.604H4.996V26.73c0-3.295 1.457-6.31 3.762-8.37"/><path fill="url(#f1287id13)" d="M8.76 18.359v11.604H4.996V26.73c0-3.295 1.457-6.31 3.762-8.37"/><path fill="url(#f1287id14)" d="M12.733 29.963V16.071a10.7 10.7 0 0 1 3.183-.483c1.124 0 2.208.175 3.23.497v13.878z"/><path fill="url(#f1287id15)" d="M12.733 29.963V16.071a10.7 10.7 0 0 1 3.183-.483c1.124 0 2.208.175 3.23.497v13.878z"/><path fill="url(#f1287id16)" d="M12.733 29.963V16.071a10.7 10.7 0 0 1 3.183-.483c1.124 0 2.208.175 3.23.497v13.878z"/><g filter="url(#f1287id1t)"><path fill="#BB172A" d="M12.964 19.845v-3.484h5.968v3.387c0 .374-.216.56-.721.322c-.686-.322-2.278-1.501-2.278-1.501s-1.792 1.288-2.23 1.483c-.437.195-.74.168-.74-.207"/></g><g filter="url(#f1287id1u)"><path fill="#C91A3B" d="m14.177 17.916l-1.144 6.986a.402.402 0 0 0 .602.409l.201-.118a.506.506 0 0 1 .554.028l.706.513a1.1 1.1 0 0 0 1.294 0l.706-.513a.506.506 0 0 1 .553-.028l.202.118a.402.402 0 0 0 .602-.409l-1.145-6.986z"/></g><g filter="url(#f1287id1v)"><path fill="url(#f1287idd)" d="M12.733 19.702v-3.754h6.43v3.649c0 .403-.233.603-.777.347c-.739-.347-2.453-1.617-2.453-1.617S14 19.714 13.53 19.924c-.47.21-.797.181-.797-.223"/><path fill="url(#f1287ide)" d="M12.733 19.702v-3.754h6.43v3.649c0 .403-.233.603-.777.347c-.739-.347-2.453-1.617-2.453-1.617S14 19.714 13.53 19.924c-.47.21-.797.181-.797-.223"/><path fill="url(#f1287idf)" d="M12.733 19.702v-3.754h6.43v3.649c0 .403-.233.603-.777.347c-.739-.347-2.453-1.617-2.453-1.617S14 19.714 13.53 19.924c-.47.21-.797.181-.797-.223"/></g><g filter="url(#f1287id1w)"><path fill="url(#f1287id17)" d="m14.084 19.6l-.859 5.24a.402.402 0 0 0 .602.409l.202-.118a.507.507 0 0 1 .553.027l.706.514a1.1 1.1 0 0 0 1.294 0l.706-.514a.506.506 0 0 1 .553-.027l.202.117a.402.402 0 0 0 .602-.408l-.857-5.235c-.81-.504-1.855-1.279-1.855-1.279s-1.107.796-1.85 1.273"/></g><g filter="url(#f1287id1x)"><path fill="url(#f1287id18)" d="M10.783 7.58a3 3 0 0 1 2.999-3.082h4.31a3 3 0 0 1 3 3.06l-.198 6.36c-.035 1.77-1.408 3.142-3.178 3.142h-3.51c-1.761 0-3.07-1.351-3.194-3.118z"/><path fill="url(#f1287idg)" d="M10.783 7.58a3 3 0 0 1 2.999-3.082h4.31a3 3 0 0 1 3 3.06l-.198 6.36c-.035 1.77-1.408 3.142-3.178 3.142h-3.51c-1.761 0-3.07-1.351-3.194-3.118z"/><path fill="url(#f1287id19)" d="M10.783 7.58a3 3 0 0 1 2.999-3.082h4.31a3 3 0 0 1 3 3.06l-.198 6.36c-.035 1.77-1.408 3.142-3.178 3.142h-3.51c-1.761 0-3.07-1.351-3.194-3.118z"/><path fill="url(#f1287idh)" d="M10.783 7.58a3 3 0 0 1 2.999-3.082h4.31a3 3 0 0 1 3 3.06l-.198 6.36c-.035 1.77-1.408 3.142-3.178 3.142h-3.51c-1.761 0-3.07-1.351-3.194-3.118z"/><path fill="url(#f1287idi)" d="M10.783 7.58a3 3 0 0 1 2.999-3.082h4.31a3 3 0 0 1 3 3.06l-.198 6.36c-.035 1.77-1.408 3.142-3.178 3.142h-3.51c-1.761 0-3.07-1.351-3.194-3.118z"/><path fill="url(#f1287idj)" d="M10.783 7.58a3 3 0 0 1 2.999-3.082h4.31a3 3 0 0 1 3 3.06l-.198 6.36c-.035 1.77-1.408 3.142-3.178 3.142h-3.51c-1.761 0-3.07-1.351-3.194-3.118z"/></g><g filter="url(#f1287id1y)"><path fill="url(#f1287id1a)" d="m20.154 4.635l-3.08 1.027a1.048 1.048 0 0 0 .47 2.033l3.063-.41z"/></g><g filter="url(#f1287id1z)"><path stroke="url(#f1287id1b)" stroke-width=".2" d="M14.513 13.464a2.936 2.936 0 0 0 2.87 0c.077-.043.17.022.143.106c-.26.85-.993 1.026-1.578 1.026c-.585 0-1.317-.176-1.578-1.026c-.026-.084.066-.149.143-.107Z"/></g><path fill="#88024E" d="M14.513 13.464a2.936 2.936 0 0 0 2.87 0c.077-.043.17.022.143.106c-.26.85-.993 1.026-1.578 1.026c-.585 0-1.317-.176-1.578-1.026c-.026-.084.066-.149.143-.107"/><path fill="url(#f1287id1c)" d="m17.154 14.62l-.396-.895a3.17 3.17 0 0 0 .623-.263c.102-.058.248.043.218.156l-.257.986a.1.1 0 0 1-.188.016"/><path fill="url(#f1287id1d)" d="m14.735 14.62l.396-.895a3.167 3.167 0 0 1-.623-.263c-.103-.058-.249.043-.22.156l.259.986a.1.1 0 0 0 .188.016"/><path fill="#DECEE7" fill-rule="evenodd" d="M16.458 19.113a.125.125 0 0 1 .141.107l.649 4.671a.125.125 0 1 1-.248.035l-.648-4.672a.125.125 0 0 1 .106-.141" clip-rule="evenodd"/><path fill="url(#f1287id1e)" fill-rule="evenodd" d="M16.458 19.113a.125.125 0 0 1 .141.107l.649 4.671a.125.125 0 1 1-.248.035l-.648-4.672a.125.125 0 0 1 .106-.141" clip-rule="evenodd"/><path fill="#DECEE8" fill-rule="evenodd" d="M15.438 19.113a.125.125 0 0 0-.141.107l-.649 4.671a.125.125 0 0 0 .248.035l.649-4.672a.125.125 0 0 0-.107-.141" clip-rule="evenodd"/><path fill="url(#f1287id1f)" fill-rule="evenodd" d="M15.438 19.113a.125.125 0 0 0-.141.107l-.649 4.671a.125.125 0 0 0 .248.035l.649-4.672a.125.125 0 0 0-.107-.141" clip-rule="evenodd"/><g filter="url(#f1287id20)"><path fill="#C68378" d="m15.69 10.635l-.82 1.7c-.102.35.142.7.488.7h.738c.346 0 .59-.355.488-.7l-.498-1.7c-.107-.377-.283-.377-.395 0"/></g><g filter="url(#f1287id21)"><path fill="#E4AC8F" d="m15.583 10.471l-.531 1.702a.54.54 0 0 0 .52.7h.788a.54.54 0 0 0 .52-.7l-.531-1.702c-.114-.377-.646-.377-.766 0"/><path fill="url(#f1287id1g)" d="m15.583 10.471l-.531 1.702a.54.54 0 0 0 .52.7h.788a.54.54 0 0 0 .52-.7l-.531-1.702c-.114-.377-.646-.377-.766 0"/><path fill="url(#f1287id1h)" d="m15.583 10.471l-.531 1.702a.54.54 0 0 0 .52.7h.788a.54.54 0 0 0 .52-.7l-.531-1.702c-.114-.377-.646-.377-.766 0"/><path fill="url(#f1287id1i)" d="m15.583 10.471l-.531 1.702a.54.54 0 0 0 .52.7h.788a.54.54 0 0 0 .52-.7l-.531-1.702c-.114-.377-.646-.377-.766 0"/></g><path fill="#fff" d="M18.356 9.325c.654 0 1.206.45 1.356 1.06a.274.274 0 0 1-.268.34h-2.232a.23.23 0 0 1-.228-.272a1.399 1.399 0 0 1 1.372-1.128"/><path fill="url(#f1287idk)" d="M18.15 9.597a.893.893 0 0 1 .86 1.129h-1.725a.897.897 0 0 1 .865-1.129"/><path fill="#000" d="M17.638 10.49a.51.51 0 0 1 .511-.511a.51.51 0 0 1 .455.747h-.905a.463.463 0 0 1-.061-.236"/><g filter="url(#f1287id22)"><path fill="#FF809E" fill-opacity=".6" d="M18.084 9.786c.063.085-.07.189-.221.302c-.151.113-.263.192-.327.107s.007-.246.159-.359c.15-.113.325-.135.389-.05"/><path fill="url(#f1287idl)" d="M18.084 9.786c.063.085-.07.189-.221.302c-.151.113-.263.192-.327.107s.007-.246.159-.359c.15-.113.325-.135.389-.05"/></g><g filter="url(#f1287id23)"><path fill="url(#f1287id1j)" d="M18.945 10.372a.841.841 0 0 0-.232-.463l-.26.286l.117.228z"/></g><path fill="#fff" d="M13.571 9.325c-.654 0-1.206.45-1.356 1.06a.274.274 0 0 0 .268.34h2.233a.23.23 0 0 0 .227-.272a1.402 1.402 0 0 0-1.372-1.128"/><path fill="url(#f1287idm)" d="M13.778 9.597a.893.893 0 0 0-.86 1.128h1.725a.915.915 0 0 0 .032-.235a.9.9 0 0 0-.897-.893"/><path fill="#000" d="M14.29 10.49a.51.51 0 0 0-.512-.512a.51.51 0 0 0-.455.747h.906a.506.506 0 0 0 .06-.235"/><g filter="url(#f1287id24)"><path fill="url(#f1287id1k)" d="M14.594 10.385c0-.289-.235-.481-.298-.54l-.289.28l.178.361z"/></g><g filter="url(#f1287id25)"><ellipse cx="13.509" cy="9.978" fill="#FF809E" fill-opacity=".6" rx=".39" ry=".197" transform="rotate(-27.914 13.509 9.978)"/><ellipse cx="13.509" cy="9.978" fill="url(#f1287idn)" rx=".39" ry=".197" transform="rotate(-27.914 13.509 9.978)"/></g><path fill="url(#f1287id1l)" d="M20.945 12.31c.037-1.41.045-2.426.076-3.638c.49-.32 1.231-.682 1.833-.97c.214-.103.456.02.461.257c.014.641-.118 1.504-.656 2.528c-.62 1.215-1.21 1.655-1.714 1.823"/><path fill="url(#f1287ido)" d="M20.945 12.31c.037-1.41.045-2.426.076-3.638c.49-.32 1.231-.682 1.833-.97c.214-.103.456.02.461.257c.014.641-.118 1.504-.656 2.528c-.62 1.215-1.21 1.655-1.714 1.823"/><path fill="url(#f1287id1m)" d="M20.945 12.31c.037-1.41.045-2.426.076-3.638c.49-.32 1.231-.682 1.833-.97c.214-.103.456.02.461.257c.014.641-.118 1.504-.656 2.528c-.62 1.215-1.21 1.655-1.714 1.823"/><path fill="url(#f1287id1n)" d="M10.846 8.669c.034 1.21.073 2.413.109 3.638c-.507-.163-1.116-.605-1.744-1.835c-.538-1.025-.67-1.887-.656-2.528c.005-.237.247-.36.46-.258c.61.292 1.337.659 1.83.983"/><path fill="url(#f1287idp)" d="M10.846 8.669c.034 1.21.073 2.413.109 3.638c-.507-.163-1.116-.605-1.744-1.835c-.538-1.025-.67-1.887-.656-2.528c.005-.237.247-.36.46-.258c.61.292 1.337.659 1.83.983"/><g filter="url(#f1287id26)"><path fill="url(#f1287idq)" d="M20.98 11.696a821.122 821.122 0 0 0 .131-2.371l1.11-.764c.165-.114.383.004.355.204c-.117.82-.534 2.067-1.596 2.931"/><path fill="url(#f1287idr)" d="M20.98 11.696a821.122 821.122 0 0 0 .131-2.371l1.11-.764c.165-.114.383.004.355.204c-.117.82-.534 2.067-1.596 2.931"/></g><g filter="url(#f1287id27)"><path fill="url(#f1287ids)" d="m10.778 9.338l.062 1.134l.069 1.24C9.833 10.847 9.41 9.59 9.294 8.765c-.028-.2.19-.318.355-.204z"/><path fill="url(#f1287idt)" d="m10.778 9.338l.062 1.134l.069 1.24C9.833 10.847 9.41 9.59 9.294 8.765c-.028-.2.19-.318.355-.204z"/></g><path fill="url(#f1287idu)" d="m10.37 10.082l-.617-2.736c-.117-.426-.242-1.394.024-2.013c.264-.612.68-.836 1.05-1.035c.125-.066.243-.13.35-.205c.083-.058.16-.11.235-.16c.298-.201.536-.361.875-.762c.422-.5 1.056-1.005 1.76-1.114c.406-.064.784.036 1.146.132c.259.069.509.135.755.137c.246-.002.497-.068.755-.137c.362-.096.74-.196 1.147-.132c.703.109 1.337.613 1.76 1.114c.338.4.576.56.874.762l.236.16c.106.075.224.139.348.205c.37.199.787.423 1.05 1.035c.268.62.142 1.587.025 2.013l-.616 2.736c-.054.238-.298.398-.542.398l.032-1.71c0-1.346-.334-2.387-1.032-3.035c-.982-.91-1.858-.91-2.483-.91c-.675 0-.847.379-1.041.745l-.09.165c-.155.268-.336.337-.423.33c-.087.007-.267-.062-.42-.33a3.806 3.806 0 0 1-.091-.165c-.195-.366-.368-.745-1.043-.745c-.625 0-1.5 0-2.483.91c-.697.648-1.032 1.69-1.032 3.034l.021 1.72a.546.546 0 0 1-.53-.407"/><path fill="url(#f1287idv)" d="m10.37 10.082l-.617-2.736c-.117-.426-.242-1.394.024-2.013c.264-.612.68-.836 1.05-1.035c.125-.066.243-.13.35-.205c.083-.058.16-.11.235-.16c.298-.201.536-.361.875-.762c.422-.5 1.056-1.005 1.76-1.114c.406-.064.784.036 1.146.132c.259.069.509.135.755.137c.246-.002.497-.068.755-.137c.362-.096.74-.196 1.147-.132c.703.109 1.337.613 1.76 1.114c.338.4.576.56.874.762l.236.16c.106.075.224.139.348.205c.37.199.787.423 1.05 1.035c.268.62.142 1.587.025 2.013l-.616 2.736c-.054.238-.298.398-.542.398l.032-1.71c0-1.346-.334-2.387-1.032-3.035c-.982-.91-1.858-.91-2.483-.91c-.675 0-.847.379-1.041.745l-.09.165c-.155.268-.336.337-.423.33c-.087.007-.267-.062-.42-.33a3.806 3.806 0 0 1-.091-.165c-.195-.366-.368-.745-1.043-.745c-.625 0-1.5 0-2.483.91c-.697.648-1.032 1.69-1.032 3.034l.021 1.72a.546.546 0 0 1-.53-.407"/><path fill="url(#f1287idw)" d="m10.37 10.082l-.617-2.736c-.117-.426-.242-1.394.024-2.013c.264-.612.68-.836 1.05-1.035c.125-.066.243-.13.35-.205c.083-.058.16-.11.235-.16c.298-.201.536-.361.875-.762c.422-.5 1.056-1.005 1.76-1.114c.406-.064.784.036 1.146.132c.259.069.509.135.755.137c.246-.002.497-.068.755-.137c.362-.096.74-.196 1.147-.132c.703.109 1.337.613 1.76 1.114c.338.4.576.56.874.762l.236.16c.106.075.224.139.348.205c.37.199.787.423 1.05 1.035c.268.62.142 1.587.025 2.013l-.616 2.736c-.054.238-.298.398-.542.398l.032-1.71c0-1.346-.334-2.387-1.032-3.035c-.982-.91-1.858-.91-2.483-.91c-.675 0-.847.379-1.041.745l-.09.165c-.155.268-.336.337-.423.33c-.087.007-.267-.062-.42-.33a3.806 3.806 0 0 1-.091-.165c-.195-.366-.368-.745-1.043-.745c-.625 0-1.5 0-2.483.91c-.697.648-1.032 1.69-1.032 3.034l.021 1.72a.546.546 0 0 1-.53-.407"/><path fill="url(#f1287idx)" d="m10.37 10.082l-.617-2.736c-.117-.426-.242-1.394.024-2.013c.264-.612.68-.836 1.05-1.035c.125-.066.243-.13.35-.205c.083-.058.16-.11.235-.16c.298-.201.536-.361.875-.762c.422-.5 1.056-1.005 1.76-1.114c.406-.064.784.036 1.146.132c.259.069.509.135.755.137c.246-.002.497-.068.755-.137c.362-.096.74-.196 1.147-.132c.703.109 1.337.613 1.76 1.114c.338.4.576.56.874.762l.236.16c.106.075.224.139.348.205c.37.199.787.423 1.05 1.035c.268.62.142 1.587.025 2.013l-.616 2.736c-.054.238-.298.398-.542.398l.032-1.71c0-1.346-.334-2.387-1.032-3.035c-.982-.91-1.858-.91-2.483-.91c-.675 0-.847.379-1.041.745l-.09.165c-.155.268-.336.337-.423.33c-.087.007-.267-.062-.42-.33a3.806 3.806 0 0 1-.091-.165c-.195-.366-.368-.745-1.043-.745c-.625 0-1.5 0-2.483.91c-.697.648-1.032 1.69-1.032 3.034l.021 1.72a.546.546 0 0 1-.53-.407"/><g filter="url(#f1287id28)"><path fill="#1E1E1E" fill-rule="evenodd" d="M14.195 8.389a2.153 2.153 0 0 0-1.417.37a.475.475 0 1 1-.53-.788a3.103 3.103 0 0 1 2.037-.528a.475.475 0 1 1-.09.946" clip-rule="evenodd"/></g><g filter="url(#f1287id29)"><path stroke="url(#f1287id1o)" stroke-linecap="round" stroke-width=".25" d="M12.513 8.365a2.628 2.628 0 0 1 1.727-.45"/></g><g filter="url(#f1287id2a)"><path stroke="url(#f1287id1p)" stroke-linecap="round" stroke-width=".25" d="M12.513 8.279a2.628 2.628 0 0 1 1.727-.45"/></g><g filter="url(#f1287id2b)"><path fill="#1E1E1E" fill-rule="evenodd" d="M17.784 8.389a2.153 2.153 0 0 1 1.417.37a.475.475 0 1 0 .53-.788a3.103 3.103 0 0 0-2.037-.528a.475.475 0 1 0 .09.946" clip-rule="evenodd"/></g><g filter="url(#f1287id2c)"><path stroke="url(#f1287id1q)" stroke-linecap="round" stroke-width=".25" d="M19.598 8.279a2.945 2.945 0 0 0-1.936-.504"/></g><g filter="url(#f1287id2d)"><path fill="url(#f1287idy)" d="M16.45 4.226c-.25.315-.42.986-.46 1.53c.352-1.033.773-1.247 1.258-1.347c1.139-.152 2.78.504 3.359 1.038l-.374-1.038c-2.665-1.182-3.425-.635-3.783-.183"/></g><defs><radialGradient id="f1287id0" cx="0" cy="0" r="1" gradientTransform="matrix(3.93792 -7.29125 14.315 7.73138 20.553 16.769)" gradientUnits="userSpaceOnUse"><stop stop-color="#D82535"/><stop offset="1" stop-color="#E82E5C"/></radialGradient><radialGradient id="f1287id1" cx="0" cy="0" r="1" gradientTransform="matrix(-2.92122 7.06151 -2.22108 -.91882 27.573 12.245)" gradientUnits="userSpaceOnUse"><stop offset=".18" stop-color="#534263"/><stop offset="1" stop-color="#3D3743"/></radialGradient><radialGradient id="f1287id2" cx="0" cy="0" r="1" gradientTransform="matrix(-1.56248 4.15626 -.42744 -.1607 27.323 12.713)" gradientUnits="userSpaceOnUse"><stop stop-color="#574B64"/><stop offset="1" stop-color="#574B64" stop-opacity="0"/></radialGradient><radialGradient id="f1287id3" cx="0" cy="0" r="1" gradientTransform="matrix(-4.58397 -6.61442 12.98618 -8.99977 12.493 17.046)" gradientUnits="userSpaceOnUse"><stop stop-color="#D82535"/><stop offset="0" stop-color="#E33E4B"/><stop offset="1" stop-color="#E73665"/></radialGradient><radialGradient id="f1287id4" cx="0" cy="0" r="1" gradientTransform="rotate(-118.874 16.525 8.487)scale(12.4902 33.343)" gradientUnits="userSpaceOnUse"><stop offset=".87" stop-color="#56475F" stop-opacity="0"/><stop offset="1" stop-color="#56475F"/></radialGradient><radialGradient id="f1287id5" cx="0" cy="0" r="1" gradientTransform="rotate(-65.133 29.239 1.614)scale(12.2618 28.8332)" gradientUnits="userSpaceOnUse"><stop offset=".863" stop-color="#60506B" stop-opacity="0"/><stop offset="1" stop-color="#60506B"/></radialGradient><radialGradient id="f1287id6" cx="0" cy="0" r="1" gradientTransform="matrix(-3.71875 0 0 -14.5625 23.292 23.338)" gradientUnits="userSpaceOnUse"><stop stop-color="#746784"/><stop offset="1" stop-color="#604F70" stop-opacity="0"/></radialGradient><radialGradient id="f1287id7" cx="0" cy="0" r="1" gradientTransform="matrix(0 15.6875 -.22656 0 19.206 16.744)" gradientUnits="userSpaceOnUse"><stop offset=".039" stop-color="#47304F"/><stop offset="1" stop-color="#47304F" stop-opacity="0"/></radialGradient><radialGradient id="f1287id8" cx="0" cy="0" r="1" gradientTransform="matrix(-1.15623 3.5 -5.72433 -1.89104 12.667 16.37)" gradientUnits="userSpaceOnUse"><stop offset=".095" stop-color="#47374C"/><stop offset="1" stop-color="#47374C" stop-opacity="0"/></radialGradient><radialGradient id="f1287id9" cx="0" cy="0" r="1" gradientTransform="matrix(0 -11.6045 2.48458 0 23.855 29.963)" gradientUnits="userSpaceOnUse"><stop offset=".467" stop-color="#6B5A80"/><stop offset="1" stop-color="#605075"/></radialGradient><radialGradient id="f1287ida" cx="0" cy="0" r="1" gradientTransform="matrix(0 -13.5781 .52466 0 23.11 29.963)" gradientUnits="userSpaceOnUse"><stop offset=".196" stop-color="#48335E"/><stop offset="1" stop-color="#48335E" stop-opacity="0"/></radialGradient><radialGradient id="f1287idb" cx="0" cy="0" r="1" gradientTransform="matrix(0 -10.2188 2.95614 0 7.292 29.963)" gradientUnits="userSpaceOnUse"><stop stop-color="#543E6E"/><stop offset="1" stop-color="#483859"/></radialGradient><radialGradient id="f1287idc" cx="0" cy="0" r="1" gradientTransform="matrix(-4.21875 0 0 -14.5625 8.542 29.494)" gradientUnits="userSpaceOnUse"><stop offset=".57" stop-color="#655578" stop-opacity="0"/><stop offset="1" stop-color="#655578"/></radialGradient><radialGradient id="f1287idd" cx="0" cy="0" r="1" gradientTransform="rotate(57.496 -7.297 21.845)scale(4.18715 6.17567)" gradientUnits="userSpaceOnUse"><stop offset=".118" stop-color="#B3A9BC"/><stop offset="1" stop-color="#EAE1F3"/></radialGradient><radialGradient id="f1287ide" cx="0" cy="0" r="1" gradientTransform="matrix(.375 3.375 -7.05108 .78345 14.73 14.37)" gradientUnits="userSpaceOnUse"><stop offset=".339" stop-color="#A99494"/><stop offset="1" stop-color="#A99494" stop-opacity="0"/></radialGradient><radialGradient id="f1287idf" cx="0" cy="0" r="1" gradientTransform="matrix(0 1.87568 -2.6343 0 15.948 16.4)" gradientUnits="userSpaceOnUse"><stop offset=".208" stop-color="#776484"/><stop offset="1" stop-color="#9C8EA7" stop-opacity="0"/></radialGradient><radialGradient id="f1287idg" cx="0" cy="0" r="1" gradientTransform="scale(10.1319 11.1444)rotate(90 .5 1.117)" gradientUnits="userSpaceOnUse"><stop offset=".618" stop-color="#D1958D" stop-opacity="0"/><stop offset=".944" stop-color="#BF788C"/></radialGradient><radialGradient id="f1287idh" cx="0" cy="0" r="1" gradientTransform="matrix(0 -1.36518 1.59886 0 18.24 9.044)" gradientUnits="userSpaceOnUse"><stop stop-color="#E2A18C"/><stop offset="1" stop-color="#E2A18C" stop-opacity="0"/></radialGradient><radialGradient id="f1287idi" cx="0" cy="0" r="1" gradientTransform="matrix(0 -1.45269 1.71908 0 13.71 9.01)" gradientUnits="userSpaceOnUse"><stop stop-color="#C2837A"/><stop offset="1" stop-color="#C2837A" stop-opacity="0"/></radialGradient><radialGradient id="f1287idj" cx="0" cy="0" r="1" gradientTransform="matrix(0 -11.5241 14.9952 0 15.937 16.022)" gradientUnits="userSpaceOnUse"><stop offset=".931" stop-color="#B27E5C" stop-opacity="0"/><stop offset="1" stop-color="#B27E5C"/></radialGradient><radialGradient id="f1287idk" cx="0" cy="0" r="1" gradientTransform="rotate(-117.266 12.234 -.373)scale(.57126 .90459)" gradientUnits="userSpaceOnUse"><stop offset=".426" stop-color="#FF136B"/><stop offset="1" stop-color="#FF242F"/></radialGradient><radialGradient id="f1287idl" cx="0" cy="0" r="1" gradientTransform="matrix(-.23208 -.29907 .41175 -.31952 17.919 10.158)" gradientUnits="userSpaceOnUse"><stop offset=".766" stop-color="#FFC2C8" stop-opacity="0"/><stop offset="1" stop-color="#FFC2C8"/></radialGradient><radialGradient id="f1287idm" cx="0" cy="0" r="1" gradientTransform="matrix(-.26172 -.50781 .80412 -.41444 13.803 10.33)" gradientUnits="userSpaceOnUse"><stop offset=".426" stop-color="#FF136B"/><stop offset="1" stop-color="#FF242F"/></radialGradient><radialGradient id="f1287idn" cx="0" cy="0" r="1" gradientTransform="rotate(-90.897 11.814 -1.495)scale(.4945 .5944)" gradientUnits="userSpaceOnUse"><stop offset=".766" stop-color="#FFC2C8" stop-opacity="0"/><stop offset="1" stop-color="#FFC2C8"/></radialGradient><radialGradient id="f1287ido" cx="0" cy="0" r="1" gradientTransform="matrix(-1.0193 1.125 -.25102 -.22744 23.316 7.807)" gradientUnits="userSpaceOnUse"><stop offset=".071" stop-color="#E2B89E"/><stop offset="1" stop-color="#E2B89E" stop-opacity="0"/></radialGradient><radialGradient id="f1287idp" cx="0" cy="0" r="1" gradientTransform="rotate(122.009 2.922 7.096)scale(.56277 2.95205)" gradientUnits="userSpaceOnUse"><stop offset=".316" stop-color="#9D6448"/><stop offset="1" stop-color="#9D6448" stop-opacity="0"/></radialGradient><radialGradient id="f1287idq" cx="0" cy="0" r="1" gradientTransform="matrix(1.59772 -1.40625 .53061 .60286 20.98 10.338)" gradientUnits="userSpaceOnUse"><stop stop-color="#DBA489"/><stop offset="1" stop-color="#D29C84"/></radialGradient><radialGradient id="f1287idr" cx="0" cy="0" r="1" gradientTransform="matrix(.625 -.0625 .1101 1.101 20.86 10.745)" gradientUnits="userSpaceOnUse"><stop offset=".119" stop-color="#DFAA8C"/><stop offset="1" stop-color="#DFAA8C" stop-opacity="0"/></radialGradient><radialGradient id="f1287ids" cx="0" cy="0" r="1" gradientTransform="rotate(-132.082 7.744 2.73)scale(2.41247 2.17677)" gradientUnits="userSpaceOnUse"><stop offset=".106" stop-color="#B37861"/><stop offset="1" stop-color="#B47C70"/></radialGradient><radialGradient id="f1287idt" cx="0" cy="0" r="1" gradientTransform="matrix(-1.18123 .63382 -1.16713 -2.17513 11.01 9.795)" gradientUnits="userSpaceOnUse"><stop offset=".583" stop-color="#C08775" stop-opacity="0"/><stop offset="1" stop-color="#C08775"/></radialGradient><radialGradient id="f1287idu" cx="0" cy="0" r="1" gradientTransform="matrix(-4.93271 6.4606 -9.67475 -7.38675 20.88 4.029)" gradientUnits="userSpaceOnUse"><stop stop-color="#252525"/><stop offset="1" stop-color="#191818"/></radialGradient><radialGradient id="f1287idv" cx="0" cy="0" r="1" gradientTransform="rotate(-102.114 9.345 .93)scale(6.55215 1.19385)" gradientUnits="userSpaceOnUse"><stop offset=".19" stop-color="#47423F"/><stop offset="1" stop-color="#47423F" stop-opacity="0"/></radialGradient><radialGradient id="f1287idw" cx="0" cy="0" r="1" gradientTransform="matrix(1.25 -1.25 1.2273 1.2273 20.287 3.716)" gradientUnits="userSpaceOnUse"><stop offset=".308" stop-color="#464646"/><stop offset="1" stop-color="#464646" stop-opacity="0"/></radialGradient><radialGradient id="f1287idx" cx="0" cy="0" r="1" gradientTransform="matrix(0 1.15625 -2.7392 0 15.948 1.904)" gradientUnits="userSpaceOnUse"><stop stop-color="#4D4D4D"/><stop offset="1" stop-color="#4D4D4D" stop-opacity="0"/></radialGradient><radialGradient id="f1287idy" cx="0" cy="0" r="1" gradientTransform="matrix(-.125 -1.20384 6.351 -.65945 17.482 4.812)" gradientUnits="userSpaceOnUse"><stop offset=".319" stop-color="#454445"/><stop offset=".789" stop-color="#454445" stop-opacity="0"/></radialGradient><linearGradient id="f1287idz" x1="5.54" x2="8.862" y1="12" y2="18.369" gradientUnits="userSpaceOnUse"><stop stop-color="#554961"/><stop offset="1" stop-color="#302736"/></linearGradient><linearGradient id="f1287id10" x1="15.935" x2="15.935" y1="15.588" y2="29.963" gradientUnits="userSpaceOnUse"><stop stop-color="#503D5D"/><stop offset="1" stop-color="#553D71"/></linearGradient><linearGradient id="f1287id11" x1="8.661" x2="8.938" y1="29.963" y2="29.963" gradientUnits="userSpaceOnUse"><stop stop-color="#453455"/><stop offset="1" stop-color="#453455" stop-opacity="0"/></linearGradient><linearGradient id="f1287id12" x1="23.206" x2="22.776" y1="29.963" y2="29.963" gradientUnits="userSpaceOnUse"><stop offset=".136" stop-color="#4A2F65"/><stop offset="1" stop-color="#665579" stop-opacity="0"/></linearGradient><linearGradient id="f1287id13" x1="8.759" x2="7.51" y1="28.776" y2="28.776" gradientUnits="userSpaceOnUse"><stop stop-color="#423153"/><stop offset="1" stop-color="#423153" stop-opacity="0"/></linearGradient><linearGradient id="f1287id14" x1="15.939" x2="15.939" y1="20.932" y2="29.963" gradientUnits="userSpaceOnUse"><stop stop-color="#E32D3D"/><stop offset="1" stop-color="#FF3779"/></linearGradient><linearGradient id="f1287id15" x1="15.939" x2="15.939" y1="29.963" y2="27.307" gradientUnits="userSpaceOnUse"><stop stop-color="#F73397"/><stop offset="1" stop-color="#F73397" stop-opacity="0"/></linearGradient><linearGradient id="f1287id16" x1="19.542" x2="17.698" y1="28.776" y2="28.776" gradientUnits="userSpaceOnUse"><stop offset=".119" stop-color="#C52133"/><stop offset="1" stop-color="#DD2864" stop-opacity="0"/></linearGradient><linearGradient id="f1287id17" x1="15.935" x2="15.935" y1="17.854" y2="25.882" gradientUnits="userSpaceOnUse"><stop stop-color="#F4DFF7"/><stop offset="1" stop-color="#F3E0FF"/></linearGradient><linearGradient id="f1287id18" x1="19.919" x2="12.314" y1="10.779" y2="11.857" gradientUnits="userSpaceOnUse"><stop stop-color="#FAC39E"/><stop offset="1" stop-color="#C9917C"/></linearGradient><linearGradient id="f1287id19" x1="10.546" x2="12.848" y1="13.595" y2="13.309" gradientUnits="userSpaceOnUse"><stop stop-color="#D99E84"/><stop offset="1" stop-color="#D99E84" stop-opacity="0"/></linearGradient><linearGradient id="f1287id1a" x1="15.654" x2="23.806" y1="7.667" y2="4.748" gradientUnits="userSpaceOnUse"><stop stop-color="#C89F8B"/><stop offset="1" stop-color="#C89F8B" stop-opacity="0"/></linearGradient><linearGradient id="f1287id1b" x1="15.948" x2="15.948" y1="14.706" y2="14.284" gradientUnits="userSpaceOnUse"><stop stop-color="#CE9588"/><stop offset="1" stop-color="#CE9588" stop-opacity="0"/></linearGradient><linearGradient id="f1287id1c" x1="17.479" x2="16.94" y1="13.893" y2="14.135" gradientUnits="userSpaceOnUse"><stop stop-color="#E6DEEC"/><stop offset="1" stop-color="#D3CADB"/></linearGradient><linearGradient id="f1287id1d" x1="14.969" x2="14.516" y1="14.135" y2="14.062" gradientUnits="userSpaceOnUse"><stop stop-color="#D1C8D8"/><stop offset="1" stop-color="#C7BECF"/></linearGradient><linearGradient id="f1287id1e" x1="16.351" x2="16.479" y1="19.112" y2="19.721" gradientUnits="userSpaceOnUse"><stop stop-color="#D2BDD8"/><stop offset="1" stop-color="#DFCFE8" stop-opacity="0"/></linearGradient><linearGradient id="f1287id1f" x1="15.546" x2="15.417" y1="19.112" y2="19.721" gradientUnits="userSpaceOnUse"><stop stop-color="#D2BDD8"/><stop offset="1" stop-color="#DFCFE8" stop-opacity="0"/></linearGradient><linearGradient id="f1287id1g" x1="15.101" x2="16.04" y1="11.807" y2="11.807" gradientUnits="userSpaceOnUse"><stop stop-color="#CB9173"/><stop offset="1" stop-color="#CB9173" stop-opacity="0"/></linearGradient><linearGradient id="f1287id1h" x1="16.905" x2="15.879" y1="12.129" y2="12.115" gradientUnits="userSpaceOnUse"><stop stop-color="#FEC8A4"/><stop offset="1" stop-color="#FEC8A4" stop-opacity="0"/></linearGradient><linearGradient id="f1287id1i" x1="16.161" x2="16.161" y1="12.872" y2="12.299" gradientUnits="userSpaceOnUse"><stop stop-color="#C98583"/><stop offset="1" stop-color="#C98583" stop-opacity="0"/></linearGradient><linearGradient id="f1287id1j" x1="18.886" x2="18.63" y1="10.136" y2="10.301" gradientUnits="userSpaceOnUse"><stop stop-color="#FF6D74"/><stop offset="1" stop-color="#E5E5E5" stop-opacity="0"/></linearGradient><linearGradient id="f1287id1k" x1="14.524" x2="14.21" y1="10.128" y2="10.322" gradientUnits="userSpaceOnUse"><stop stop-color="#FF6D74"/><stop offset="1" stop-color="#E5E5E5" stop-opacity="0"/></linearGradient><linearGradient id="f1287id1l" x1="21.542" x2="22.417" y1="8.432" y2="11.12" gradientUnits="userSpaceOnUse"><stop stop-color="#CB9B7D"/><stop offset=".581" stop-color="#D6A18C"/></linearGradient><linearGradient id="f1287id1m" x1="21.862" x2="22.131" y1="8.174" y2="8.596" gradientUnits="userSpaceOnUse"><stop stop-color="#B28566"/><stop offset="1" stop-color="#B28566" stop-opacity="0"/></linearGradient><linearGradient id="f1287id1n" x1="8.981" x2="11.396" y1="10.514" y2="9.507" gradientUnits="userSpaceOnUse"><stop stop-color="#C18677"/><stop offset="1" stop-color="#AD7B61"/></linearGradient><linearGradient id="f1287id1o" x1="12.913" x2="14.317" y1="8.298" y2="8.031" gradientUnits="userSpaceOnUse"><stop stop-color="#4F494B" stop-opacity="0"/><stop offset="1" stop-color="#4F494B"/></linearGradient><linearGradient id="f1287id1p" x1="13.738" x2="13.252" y1="7.957" y2="7.091" gradientUnits="userSpaceOnUse"><stop stop-color="#353435"/><stop offset="1" stop-color="#353435" stop-opacity="0"/></linearGradient><linearGradient id="f1287id1q" x1="18.225" x2="18.769" y1="7.918" y2="6.947" gradientUnits="userSpaceOnUse"><stop stop-color="#353435"/><stop offset="1" stop-color="#353435" stop-opacity="0"/></linearGradient><filter id="f1287id1r" width="4.702" height="8.2" x="22.301" y="11.106" color-interpolation-filters="sRGB" filterUnits="userSpaceOnUse"><feFlood flood-opacity="0" result="BackgroundImageFix"/><feBlend in="SourceGraphic" in2="BackgroundImageFix" result="shape"/><feColorMatrix in="SourceAlpha" result="hardAlpha" values="0 0 0 0 0 0 0 0 0 0 0 0 0 0 0 0 0 0 127 0"/><feOffset dx=".15"/><feComposite in2="hardAlpha" k2="-1" k3="1" operator="arithmetic"/><feColorMatrix values="0 0 0 0 0.313726 0 0 0 0 0.247059 0 0 0 0 0.32549 0 0 0 1 0"/><feBlend in2="shape" result="effect1_innerShadow_4002_1228"/></filter><filter id="f1287id1s" width="4.902" height="8.4" x="5.146" y="11.006" color-interpolation-filters="sRGB" filterUnits="userSpaceOnUse"><feFlood flood-opacity="0" result="BackgroundImageFix"/><feBlend in="SourceGraphic" in2="BackgroundImageFix" result="shape"/><feColorMatrix in="SourceAlpha" result="hardAlpha" values="0 0 0 0 0 0 0 0 0 0 0 0 0 0 0 0 0 0 127 0"/><feOffset dx="-.1" dy=".1"/><feGaussianBlur stdDeviation=".125"/><feComposite in2="hardAlpha" k2="-1" k3="1" operator="arithmetic"/><feColorMatrix values="0 0 0 0 0.360784 0 0 0 0 0.321569 0 0 0 0 0.364706 0 0 0 1 0"/><feBlend in2="shape" result="effect1_innerShadow_4002_1228"/><feColorMatrix in="SourceAlpha" result="hardAlpha" values="0 0 0 0 0 0 0 0 0 0 0 0 0 0 0 0 0 0 127 0"/><feOffset dx=".1" dy="-.1"/><feGaussianBlur stdDeviation=".125"/><feComposite in2="hardAlpha" k2="-1" k3="1" operator="arithmetic"/><feColorMatrix values="0 0 0 0 0.360784 0 0 0 0 0.32549 0 0 0 0 0.396078 0 0 0 1 0"/><feBlend in2="effect1_innerShadow_4002_1228" result="effect2_innerShadow_4002_1228"/></filter><filter id="f1287id1t" width="6.968" height="4.815" x="12.464" y="15.861" color-interpolation-filters="sRGB" filterUnits="userSpaceOnUse"><feFlood flood-opacity="0" result="BackgroundImageFix"/><feBlend in="SourceGraphic" in2="BackgroundImageFix" result="shape"/><feGaussianBlur result="effect1_foregroundBlur_4002_1228" stdDeviation=".25"/></filter><filter id="f1287id1u" width="6.431" height="9.028" x="12.527" y="17.416" color-interpolation-filters="sRGB" filterUnits="userSpaceOnUse"><feFlood flood-opacity="0" result="BackgroundImageFix"/><feBlend in="SourceGraphic" in2="BackgroundImageFix" result="shape"/><feGaussianBlur result="effect1_foregroundBlur_4002_1228" stdDeviation=".25"/></filter><filter id="f1287id1v" width="6.43" height="4.46" x="12.733" y="15.598" color-interpolation-filters="sRGB" filterUnits="userSpaceOnUse"><feFlood flood-opacity="0" result="BackgroundImageFix"/><feBlend in="SourceGraphic" in2="BackgroundImageFix" result="shape"/><feColorMatrix in="SourceAlpha" result="hardAlpha" values="0 0 0 0 0 0 0 0 0 0 0 0 0 0 0 0 0 0 127 0"/><feOffset dy="-.35"/><feGaussianBlur stdDeviation=".35"/><feComposite in2="hardAlpha" k2="-1" k3="1" operator="arithmetic"/><feColorMatrix values="0 0 0 0 0.901961 0 0 0 0 0.835294 0 0 0 0 0.956863 0 0 0 1 0"/><feBlend in2="shape" result="effect1_innerShadow_4002_1228"/><feColorMatrix in="SourceAlpha" result="hardAlpha" values="0 0 0 0 0 0 0 0 0 0 0 0 0 0 0 0 0 0 127 0"/><feOffset dy="-.25"/><feGaussianBlur stdDeviation=".2"/><feComposite in2="hardAlpha" k2="-1" k3="1" operator="arithmetic"/><feColorMatrix values="0 0 0 0 0.839216 0 0 0 0 0.733333 0 0 0 0 0.905882 0 0 0 1 0"/><feBlend in2="effect1_innerShadow_4002_1228" result="effect2_innerShadow_4002_1228"/></filter><filter id="f1287id1w" width="5.531" height="8.006" x="13.22" y="18.076" color-interpolation-filters="sRGB" filterUnits="userSpaceOnUse"><feFlood flood-opacity="0" result="BackgroundImageFix"/><feBlend in="SourceGraphic" in2="BackgroundImageFix" result="shape"/><feColorMatrix in="SourceAlpha" result="hardAlpha" values="0 0 0 0 0 0 0 0 0 0 0 0 0 0 0 0 0 0 127 0"/><feOffset dx=".1" dy="-.25"/><feGaussianBlur stdDeviation=".25"/><feComposite in2="hardAlpha" k2="-1" k3="1" operator="arithmetic"/><feColorMatrix values="0 0 0 0 0.854902 0 0 0 0 0.705882 0 0 0 0 0.941176 0 0 0 1 0"/><feBlend in2="shape" result="effect1_innerShadow_4002_1228"/><feColorMatrix in="SourceAlpha" result="hardAlpha" values="0 0 0 0 0 0 0 0 0 0 0 0 0 0 0 0 0 0 127 0"/><feOffset dy=".2"/><feGaussianBlur stdDeviation=".25"/><feComposite in2="hardAlpha" k2="-1" k3="1" operator="arithmetic"/><feColorMatrix values="0 0 0 0 0.760784 0 0 0 0 0.670588 0 0 0 0 0.847059 0 0 0 1 0"/><feBlend in2="effect1_innerShadow_4002_1228" result="effect2_innerShadow_4002_1228"/></filter><filter id="f1287id1x" width="10.31" height="12.713" x="10.782" y="4.498" color-interpolation-filters="sRGB" filterUnits="userSpaceOnUse"><feFlood flood-opacity="0" result="BackgroundImageFix"/><feBlend in="SourceGraphic" in2="BackgroundImageFix" result="shape"/><feColorMatrix in="SourceAlpha" result="hardAlpha" values="0 0 0 0 0 0 0 0 0 0 0 0 0 0 0 0 0 0 127 0"/><feOffset dy=".15"/><feGaussianBlur stdDeviation=".15"/><feComposite in2="hardAlpha" k2="-1" k3="1" operator="arithmetic"/><feColorMatrix values="0 0 0 0 0.752941 0 0 0 0 0.501961 0 0 0 0 0.34902 0 0 0 1 0"/><feBlend in2="shape" result="effect1_innerShadow_4002_1228"/></filter><filter id="f1287id1y" width="8.25" height="7.07" x="14.357" y="2.635" color-interpolation-filters="sRGB" filterUnits="userSpaceOnUse"><feFlood flood-opacity="0" result="BackgroundImageFix"/><feBlend in="SourceGraphic" in2="BackgroundImageFix" result="shape"/><feGaussianBlur result="effect1_foregroundBlur_4002_1228" stdDeviation="1"/></filter><filter id="f1287id1z" width="3.566" height="1.546" x="14.165" y="13.25" color-interpolation-filters="sRGB" filterUnits="userSpaceOnUse"><feFlood flood-opacity="0" result="BackgroundImageFix"/><feBlend in="SourceGraphic" in2="BackgroundImageFix" result="shape"/><feGaussianBlur result="effect1_foregroundBlur_4002_1228" stdDeviation=".05"/></filter><filter id="f1287id20" width="3.262" height="4.184" x="14.096" y="9.602" color-interpolation-filters="sRGB" filterUnits="userSpaceOnUse"><feFlood flood-opacity="0" result="BackgroundImageFix"/><feBlend in="SourceGraphic" in2="BackgroundImageFix" result="shape"/><feGaussianBlur result="effect1_foregroundBlur_4002_1228" stdDeviation=".375"/></filter><filter id="f1287id21" width="2.379" height="3.184" x="14.777" y="9.939" color-interpolation-filters="sRGB" filterUnits="userSpaceOnUse"><feFlood flood-opacity="0" result="BackgroundImageFix"/><feBlend in="SourceGraphic" in2="BackgroundImageFix" result="shape"/><feGaussianBlur result="effect1_foregroundBlur_4002_1228" stdDeviation=".125"/></filter><filter id="f1287id22" width=".787" height=".697" x="17.413" y="9.634" color-interpolation-filters="sRGB" filterUnits="userSpaceOnUse"><feFlood flood-opacity="0" result="BackgroundImageFix"/><feBlend in="SourceGraphic" in2="BackgroundImageFix" result="shape"/><feGaussianBlur result="effect1_foregroundBlur_4002_1228" stdDeviation=".05"/></filter><filter id="f1287id23" width=".892" height=".914" x="18.253" y="9.709" color-interpolation-filters="sRGB" filterUnits="userSpaceOnUse"><feFlood flood-opacity="0" result="BackgroundImageFix"/><feBlend in="SourceGraphic" in2="BackgroundImageFix" result="shape"/><feGaussianBlur result="effect1_foregroundBlur_4002_1228" stdDeviation=".1"/></filter><filter id="f1287id24" width=".987" height="1.041" x="13.807" y="9.646" color-interpolation-filters="sRGB" filterUnits="userSpaceOnUse"><feFlood flood-opacity="0" result="BackgroundImageFix"/><feBlend in="SourceGraphic" in2="BackgroundImageFix" result="shape"/><feGaussianBlur result="effect1_foregroundBlur_4002_1228" stdDeviation=".1"/></filter><filter id="f1287id25" width=".914" height=".705" x="13.052" y="9.626" color-interpolation-filters="sRGB" filterUnits="userSpaceOnUse"><feFlood flood-opacity="0" result="BackgroundImageFix"/><feBlend in="SourceGraphic" in2="BackgroundImageFix" result="shape"/><feGaussianBlur result="effect1_foregroundBlur_4002_1228" stdDeviation=".05"/></filter><filter id="f1287id26" width="2.098" height="3.68" x="20.73" y="8.266" color-interpolation-filters="sRGB" filterUnits="userSpaceOnUse"><feFlood flood-opacity="0" result="BackgroundImageFix"/><feBlend in="SourceGraphic" in2="BackgroundImageFix" result="shape"/><feGaussianBlur result="effect1_foregroundBlur_4002_1228" stdDeviation=".125"/></filter><filter id="f1287id27" width="2.017" height="3.595" x="9.092" y="8.316" color-interpolation-filters="sRGB" filterUnits="userSpaceOnUse"><feFlood flood-opacity="0" result="BackgroundImageFix"/><feBlend in="SourceGraphic" in2="BackgroundImageFix" result="shape"/><feGaussianBlur result="effect1_foregroundBlur_4002_1228" stdDeviation=".1"/></filter><filter id="f1287id28" width="2.927" height="1.811" x="12.038" y="7.029" color-interpolation-filters="sRGB" filterUnits="userSpaceOnUse"><feFlood flood-opacity="0" result="BackgroundImageFix"/><feBlend in="SourceGraphic" in2="BackgroundImageFix" result="shape"/><feColorMatrix in="SourceAlpha" result="hardAlpha" values="0 0 0 0 0 0 0 0 0 0 0 0 0 0 0 0 0 0 127 0"/><feOffset dx=".25" dy="-.4"/><feGaussianBlur stdDeviation=".3"/><feComposite in2="hardAlpha" k2="-1" k3="1" operator="arithmetic"/><feColorMatrix values="0 0 0 0 0.0431373 0 0 0 0 0.0196078 0 0 0 0 0.027451 0 0 0 1 0"/><feBlend in2="shape" result="effect1_innerShadow_4002_1228"/></filter><filter id="f1287id29" width="2.477" height="1.211" x="12.138" y="7.529" color-interpolation-filters="sRGB" filterUnits="userSpaceOnUse"><feFlood flood-opacity="0" result="BackgroundImageFix"/><feBlend in="SourceGraphic" in2="BackgroundImageFix" result="shape"/><feGaussianBlur result="effect1_foregroundBlur_4002_1228" stdDeviation=".125"/></filter><filter id="f1287id2a" width="2.577" height="1.311" x="12.088" y="7.393" color-interpolation-filters="sRGB" filterUnits="userSpaceOnUse"><feFlood flood-opacity="0" result="BackgroundImageFix"/><feBlend in="SourceGraphic" in2="BackgroundImageFix" result="shape"/><feGaussianBlur result="effect1_foregroundBlur_4002_1228" stdDeviation=".15"/></filter><filter id="f1287id2b" width="2.927" height="1.811" x="17.264" y="7.029" color-interpolation-filters="sRGB" filterUnits="userSpaceOnUse"><feFlood flood-opacity="0" result="BackgroundImageFix"/><feBlend in="SourceGraphic" in2="BackgroundImageFix" result="shape"/><feColorMatrix in="SourceAlpha" result="hardAlpha" values="0 0 0 0 0 0 0 0 0 0 0 0 0 0 0 0 0 0 127 0"/><feOffset dx=".25" dy="-.4"/><feGaussianBlur stdDeviation=".3"/><feComposite in2="hardAlpha" k2="-1" k3="1" operator="arithmetic"/><feColorMatrix values="0 0 0 0 0.0431373 0 0 0 0 0.0196078 0 0 0 0 0.027451 0 0 0 1 0"/><feBlend in2="shape" result="effect1_innerShadow_4002_1228"/></filter><filter id="f1287id2c" width="2.785" height="1.367" x="17.237" y="7.337" color-interpolation-filters="sRGB" filterUnits="userSpaceOnUse"><feFlood flood-opacity="0" result="BackgroundImageFix"/><feBlend in="SourceGraphic" in2="BackgroundImageFix" result="shape"/><feGaussianBlur result="effect1_foregroundBlur_4002_1228" stdDeviation=".15"/></filter><filter id="f1287id2d" width="5.117" height="2.558" x="15.74" y="3.448" color-interpolation-filters="sRGB" filterUnits="userSpaceOnUse"><feFlood flood-opacity="0" result="BackgroundImageFix"/><feBlend in="SourceGraphic" in2="BackgroundImageFix" result="shape"/><feGaussianBlur result="effect1_foregroundBlur_4002_1228" stdDeviation=".125"/></filter></defs></g></svg>