<svg xmlns="http://www.w3.org/2000/svg" width="1em" height="1em" viewBox="0 0 32 32"><g fill="none"><path fill="url(#f1049id0)" d="M3.601 29.408c0-5.916 4.854-10.711 10.842-10.711s10.842 4.795 10.842 10.71v.464H3.601z"/><path fill="url(#f1049id1)" d="M3.601 29.408c0-5.916 4.854-10.711 10.842-10.711s10.842 4.795 10.842 10.71v.464H3.601z"/><path fill="url(#f1049id2)" d="M3.601 29.408c0-5.916 4.854-10.711 10.842-10.711s10.842 4.795 10.842 10.71v.464H3.601z"/><path fill="url(#f1049id3)" d="M3.601 29.408c0-5.916 4.854-10.711 10.842-10.711s10.842 4.795 10.842 10.71v.464H3.601z"/><path fill="url(#f1049id4)" d="M3.601 29.408c0-5.916 4.854-10.711 10.842-10.711s10.842 4.795 10.842 10.71v.464H3.601z"/><path fill="url(#f1049id5)" d="M21.577 29.87h3.708v-.462c0-3.218-1.436-6.103-3.709-8.067z"/><path fill="url(#f1049id6)" d="M21.577 29.87h3.708v-.462c0-3.218-1.436-6.103-3.709-8.067z"/><path fill="#2B7FDE" d="M7.31 21.341c-2.273 1.964-3.71 4.85-3.71 8.067v.463h3.71z"/><path fill="url(#f1049id7)" d="M7.31 21.341c-2.273 1.964-3.71 4.85-3.71 8.067v.463h3.71z"/><path fill="url(#f1049id8)" d="M7.31 21.341c-2.273 1.964-3.71 4.85-3.71 8.067v.463h3.71z"/><path fill="#F4AA28" d="M12.63 18.49h3.985v1.384c0 1.1-.892 1.812-1.992 1.812s-1.992-.712-1.992-1.812z"/><path fill="url(#f1049id9)" d="M12.63 18.49h3.985v1.384c0 1.1-.892 1.812-1.992 1.812s-1.992-.712-1.992-1.812z"/><path fill="url(#f1049ida)" d="M12.63 18.49h3.985v1.384c0 1.1-.892 1.812-1.992 1.812s-1.992-.712-1.992-1.812z"/><circle cx="9.862" cy="13.666" r="1.671" fill="url(#f1049idb)"/><g filter="url(#f1049id18)"><circle cx="9.862" cy="13.666" r=".996" fill="url(#f1049id1u)"/></g><g filter="url(#f1049id19)"><circle cx="19.384" cy="13.666" r="1.671" fill="url(#f1049id1v)"/><circle cx="19.384" cy="13.666" r="1.671" fill="url(#f1049idc)"/></g><g filter="url(#f1049id1a)"><circle cx="19.384" cy="13.666" r=".996" fill="#FFBF34"/><circle cx="19.384" cy="13.666" r=".996" fill="url(#f1049idd)"/><circle cx="19.384" cy="13.666" r=".996" fill="url(#f1049ide)"/></g><path fill="url(#f1049id1w)" d="M9.51 13.053a29.99 29.99 0 0 1-.059-1.44c0-.267.108-.587.322-.747l.162-.16c.268-.214.375-.534.375-.855v-.854a.52.52 0 0 1 .43-.534c.644-.16 1.986-.427 3.92-.427c1.932 0 3.274.267 3.919.427c.214.054.43.267.43.534v.854c0 .32.16.641.375.855c.503.352.471.546.43.96c-.013.13-.054 1.196-.09 1.442l-.266 3.962c-.16 1.771-1.553 3.006-3.213 3.006H13.03c-1.713 0-3.052-1.235-3.213-3.006z"/><path fill="url(#f1049id1x)" d="M9.51 13.053a29.99 29.99 0 0 1-.059-1.44c0-.267.108-.587.322-.747l.162-.16c.268-.214.375-.534.375-.855v-.854a.52.52 0 0 1 .43-.534c.644-.16 1.986-.427 3.92-.427c1.932 0 3.274.267 3.919.427c.214.054.43.267.43.534v.854c0 .32.16.641.375.855c.503.352.471.546.43.96c-.013.13-.054 1.196-.09 1.442l-.266 3.962c-.16 1.771-1.553 3.006-3.213 3.006H13.03c-1.713 0-3.052-1.235-3.213-3.006z"/><path fill="url(#f1049idf)" d="M9.51 13.053a29.99 29.99 0 0 1-.059-1.44c0-.267.108-.587.322-.747l.162-.16c.268-.214.375-.534.375-.855v-.854a.52.52 0 0 1 .43-.534c.644-.16 1.986-.427 3.92-.427c1.932 0 3.274.267 3.919.427c.214.054.43.267.43.534v.854c0 .32.16.641.375.855c.503.352.471.546.43.96c-.013.13-.054 1.196-.09 1.442l-.266 3.962c-.16 1.771-1.553 3.006-3.213 3.006H13.03c-1.713 0-3.052-1.235-3.213-3.006z"/><path fill="url(#f1049idg)" d="M9.51 13.053a29.99 29.99 0 0 1-.059-1.44c0-.267.108-.587.322-.747l.162-.16c.268-.214.375-.534.375-.855v-.854a.52.52 0 0 1 .43-.534c.644-.16 1.986-.427 3.92-.427c1.932 0 3.274.267 3.919.427c.214.054.43.267.43.534v.854c0 .32.16.641.375.855c.503.352.471.546.43.96c-.013.13-.054 1.196-.09 1.442l-.266 3.962c-.16 1.771-1.553 3.006-3.213 3.006H13.03c-1.713 0-3.052-1.235-3.213-3.006z"/><path fill="url(#f1049idh)" d="M9.51 13.053a29.99 29.99 0 0 1-.059-1.44c0-.267.108-.587.322-.747l.162-.16c.268-.214.375-.534.375-.855v-.854a.52.52 0 0 1 .43-.534c.644-.16 1.986-.427 3.92-.427c1.932 0 3.274.267 3.919.427c.214.054.43.267.43.534v.854c0 .32.16.641.375.855c.503.352.471.546.43.96c-.013.13-.054 1.196-.09 1.442l-.266 3.962c-.16 1.771-1.553 3.006-3.213 3.006H13.03c-1.713 0-3.052-1.235-3.213-3.006z"/><g filter="url(#f1049id1b)"><path fill="#FFA91B" d="m19.438 7.182l.429.214c.752.373 1.181 1.228 1.02 2.135l-.59 3.043c-.053.314-.26.526-.573.534c.036-.505.069-1.318.082-1.446c.043-.434-.025-.561-.422-.957c-.215-.213-.376-.533-.376-.854v-.854c0-.267-.215-.48-.43-.534c-.644-.16-1.986-.427-3.919-.427s-3.275.267-3.92.427a.52.52 0 0 0-.429.534v.854c0 .32-.107.64-.376.854l-.16.16c-.216.16-.324.495-.324.762c.014.156.035 1.053.06 1.426a.634.634 0 0 1-.596-.532l-.59-3.043c-.108-.854.322-1.709 1.073-2.082c1.015-.445 1.385-1.12 2.202-1.815c.59-.534 1.45-.694 2.201-.32c.537.16 1.127.16 1.664 0c.806-.268 1.719-.054 2.363.533l.805.8c.215.268.483.428.805.588"/><path fill="url(#f1049idi)" d="m19.438 7.182l.429.214c.752.373 1.181 1.228 1.02 2.135l-.59 3.043c-.053.314-.26.526-.573.534c.036-.505.069-1.318.082-1.446c.043-.434-.025-.561-.422-.957c-.215-.213-.376-.533-.376-.854v-.854c0-.267-.215-.48-.43-.534c-.644-.16-1.986-.427-3.919-.427s-3.275.267-3.92.427a.52.52 0 0 0-.429.534v.854c0 .32-.107.64-.376.854l-.16.16c-.216.16-.324.495-.324.762c.014.156.035 1.053.06 1.426a.634.634 0 0 1-.596-.532l-.59-3.043c-.108-.854.322-1.709 1.073-2.082c1.015-.445 1.385-1.12 2.202-1.815c.59-.534 1.45-.694 2.201-.32c.537.16 1.127.16 1.664 0c.806-.268 1.719-.054 2.363.533l.805.8c.215.268.483.428.805.588"/><path fill="url(#f1049id1y)" d="m19.438 7.182l.429.214c.752.373 1.181 1.228 1.02 2.135l-.59 3.043c-.053.314-.26.526-.573.534c.036-.505.069-1.318.082-1.446c.043-.434-.025-.561-.422-.957c-.215-.213-.376-.533-.376-.854v-.854c0-.267-.215-.48-.43-.534c-.644-.16-1.986-.427-3.919-.427s-3.275.267-3.92.427a.52.52 0 0 0-.429.534v.854c0 .32-.107.64-.376.854l-.16.16c-.216.16-.324.495-.324.762c.014.156.035 1.053.06 1.426a.634.634 0 0 1-.596-.532l-.59-3.043c-.108-.854.322-1.709 1.073-2.082c1.015-.445 1.385-1.12 2.202-1.815c.59-.534 1.45-.694 2.201-.32c.537.16 1.127.16 1.664 0c.806-.268 1.719-.054 2.363.533l.805.8c.215.268.483.428.805.588"/><path fill="url(#f1049idj)" d="m19.438 7.182l.429.214c.752.373 1.181 1.228 1.02 2.135l-.59 3.043c-.053.314-.26.526-.573.534c.036-.505.069-1.318.082-1.446c.043-.434-.025-.561-.422-.957c-.215-.213-.376-.533-.376-.854v-.854c0-.267-.215-.48-.43-.534c-.644-.16-1.986-.427-3.919-.427s-3.275.267-3.92.427a.52.52 0 0 0-.429.534v.854c0 .32-.107.64-.376.854l-.16.16c-.216.16-.324.495-.324.762c.014.156.035 1.053.06 1.426a.634.634 0 0 1-.596-.532l-.59-3.043c-.108-.854.322-1.709 1.073-2.082c1.015-.445 1.385-1.12 2.202-1.815c.59-.534 1.45-.694 2.201-.32c.537.16 1.127.16 1.664 0c.806-.268 1.719-.054 2.363.533l.805.8c.215.268.483.428.805.588"/><path fill="url(#f1049idk)" d="m19.438 7.182l.429.214c.752.373 1.181 1.228 1.02 2.135l-.59 3.043c-.053.314-.26.526-.573.534c.036-.505.069-1.318.082-1.446c.043-.434-.025-.561-.422-.957c-.215-.213-.376-.533-.376-.854v-.854c0-.267-.215-.48-.43-.534c-.644-.16-1.986-.427-3.919-.427s-3.275.267-3.92.427a.52.52 0 0 0-.429.534v.854c0 .32-.107.64-.376.854l-.16.16c-.216.16-.324.495-.324.762c.014.156.035 1.053.06 1.426a.634.634 0 0 1-.596-.532l-.59-3.043c-.108-.854.322-1.709 1.073-2.082c1.015-.445 1.385-1.12 2.202-1.815c.59-.534 1.45-.694 2.201-.32c.537.16 1.127.16 1.664 0c.806-.268 1.719-.054 2.363.533l.805.8c.215.268.483.428.805.588"/><path fill="url(#f1049idl)" d="m19.438 7.182l.429.214c.752.373 1.181 1.228 1.02 2.135l-.59 3.043c-.053.314-.26.526-.573.534c.036-.505.069-1.318.082-1.446c.043-.434-.025-.561-.422-.957c-.215-.213-.376-.533-.376-.854v-.854c0-.267-.215-.48-.43-.534c-.644-.16-1.986-.427-3.919-.427s-3.275.267-3.92.427a.52.52 0 0 0-.429.534v.854c0 .32-.107.64-.376.854l-.16.16c-.216.16-.324.495-.324.762c.014.156.035 1.053.06 1.426a.634.634 0 0 1-.596-.532l-.59-3.043c-.108-.854.322-1.709 1.073-2.082c1.015-.445 1.385-1.12 2.202-1.815c.59-.534 1.45-.694 2.201-.32c.537.16 1.127.16 1.664 0c.806-.268 1.719-.054 2.363.533l.805.8c.215.268.483.428.805.588"/><path fill="url(#f1049idm)" d="m19.438 7.182l.429.214c.752.373 1.181 1.228 1.02 2.135l-.59 3.043c-.053.314-.26.526-.573.534c.036-.505.069-1.318.082-1.446c.043-.434-.025-.561-.422-.957c-.215-.213-.376-.533-.376-.854v-.854c0-.267-.215-.48-.43-.534c-.644-.16-1.986-.427-3.919-.427s-3.275.267-3.92.427a.52.52 0 0 0-.429.534v.854c0 .32-.107.64-.376.854l-.16.16c-.216.16-.324.495-.324.762c.014.156.035 1.053.06 1.426a.634.634 0 0 1-.596-.532l-.59-3.043c-.108-.854.322-1.709 1.073-2.082c1.015-.445 1.385-1.12 2.202-1.815c.59-.534 1.45-.694 2.201-.32c.537.16 1.127.16 1.664 0c.806-.268 1.719-.054 2.363.533l.805.8c.215.268.483.428.805.588"/></g><path fill="url(#f1049idn)" d="m19.438 7.182l.429.214c.752.373 1.181 1.228 1.02 2.135l-.59 3.043c-.053.314-.26.526-.573.534c.036-.505.069-1.318.082-1.446c.043-.434-.025-.561-.422-.957c-.215-.213-.376-.533-.376-.854v-.854c0-.267-.215-.48-.43-.534c-.644-.16-1.986-.427-3.919-.427s-3.275.267-3.92.427a.52.52 0 0 0-.429.534v.854c0 .32-.107.64-.376.854l-.16.16c-.216.16-.324.495-.324.762c.014.156.035 1.053.06 1.426a.634.634 0 0 1-.596-.532l-.59-3.043c-.108-.854.322-1.709 1.073-2.082c1.015-.445 1.385-1.12 2.202-1.815c.59-.534 1.45-.694 2.201-.32c.537.16 1.127.16 1.664 0c.806-.268 1.719-.054 2.363.533l.805.8c.215.268.483.428.805.588"/><path fill="url(#f1049ido)" d="m19.438 7.182l.429.214c.752.373 1.181 1.228 1.02 2.135l-.59 3.043c-.053.314-.26.526-.573.534c.036-.505.069-1.318.082-1.446c.043-.434-.025-.561-.422-.957c-.215-.213-.376-.533-.376-.854v-.854c0-.267-.215-.48-.43-.534c-.644-.16-1.986-.427-3.919-.427s-3.275.267-3.92.427a.52.52 0 0 0-.429.534v.854c0 .32-.107.64-.376.854l-.16.16c-.216.16-.324.495-.324.762c.014.156.035 1.053.06 1.426a.634.634 0 0 1-.596-.532l-.59-3.043c-.108-.854.322-1.709 1.073-2.082c1.015-.445 1.385-1.12 2.202-1.815c.59-.534 1.45-.694 2.201-.32c.537.16 1.127.16 1.664 0c.806-.268 1.719-.054 2.363.533l.805.8c.215.268.483.428.805.588"/><path fill="url(#f1049idp)" d="m19.438 7.182l.429.214c.752.373 1.181 1.228 1.02 2.135l-.59 3.043c-.053.314-.26.526-.573.534c.036-.505.069-1.318.082-1.446c.043-.434-.025-.561-.422-.957c-.215-.213-.376-.533-.376-.854v-.854c0-.267-.215-.48-.43-.534c-.644-.16-1.986-.427-3.919-.427s-3.275.267-3.92.427a.52.52 0 0 0-.429.534v.854c0 .32-.107.64-.376.854l-.16.16c-.216.16-.324.495-.324.762c.014.156.035 1.053.06 1.426a.634.634 0 0 1-.596-.532l-.59-3.043c-.108-.854.322-1.709 1.073-2.082c1.015-.445 1.385-1.12 2.202-1.815c.59-.534 1.45-.694 2.201-.32c.537.16 1.127.16 1.664 0c.806-.268 1.719-.054 2.363.533l.805.8c.215.268.483.428.805.588"/><path fill="url(#f1049idq)" d="m19.438 7.182l.429.214c.752.373 1.181 1.228 1.02 2.135l-.59 3.043c-.053.314-.26.526-.573.534c.036-.505.069-1.318.082-1.446c.043-.434-.025-.561-.422-.957c-.215-.213-.376-.533-.376-.854v-.854c0-.267-.215-.48-.43-.534c-.644-.16-1.986-.427-3.919-.427s-3.275.267-3.92.427a.52.52 0 0 0-.429.534v.854c0 .32-.107.64-.376.854l-.16.16c-.216.16-.324.495-.324.762c.014.156.035 1.053.06 1.426a.634.634 0 0 1-.596-.532l-.59-3.043c-.108-.854.322-1.709 1.073-2.082c1.015-.445 1.385-1.12 2.202-1.815c.59-.534 1.45-.694 2.201-.32c.537.16 1.127.16 1.664 0c.806-.268 1.719-.054 2.363.533l.805.8c.215.268.483.428.805.588"/><g filter="url(#f1049id1c)"><path fill="#F1901C" d="m14.338 13.544l-.82 1.701c-.103.35.142.7.488.7h.738c.346 0 .59-.355.488-.7l-.498-1.701c-.107-.377-.284-.377-.396 0"/></g><g filter="url(#f1049id1d)"><path fill="#FFCC28" d="m14.231 13.38l-.531 1.702a.54.54 0 0 0 .52.7h.787c.37 0 .63-.356.521-.7l-.531-1.702c-.114-.376-.646-.376-.766 0"/><path fill="url(#f1049id1z)" d="m14.231 13.38l-.531 1.702a.54.54 0 0 0 .52.7h.787c.37 0 .63-.356.521-.7l-.531-1.702c-.114-.376-.646-.376-.766 0"/><path fill="url(#f1049id20)" d="m14.231 13.38l-.531 1.702a.54.54 0 0 0 .52.7h.787c.37 0 .63-.356.521-.7l-.531-1.702c-.114-.376-.646-.376-.766 0"/><path fill="url(#f1049id21)" d="m14.231 13.38l-.531 1.702a.54.54 0 0 0 .52.7h.787c.37 0 .63-.356.521-.7l-.531-1.702c-.114-.376-.646-.376-.766 0"/></g><g filter="url(#f1049id1e)"><path stroke="url(#f1049idr)" stroke-width=".2" d="M14.614 16.8c-.508 0-.985-.12-1.386-.33c-.137-.07-.285.085-.198.21c.335.508.919.846 1.584.846s1.25-.338 1.584-.846c.087-.13-.06-.28-.198-.21c-.4.21-.873.33-1.386.33Z"/></g><path fill="#8A004F" d="M14.614 16.8c-.508 0-.985-.12-1.386-.33c-.137-.07-.285.085-.198.21c.335.508.919.846 1.584.846s1.25-.338 1.584-.846c.087-.13-.06-.28-.198-.21c-.4.21-.873.33-1.386.33"/><path fill="#fff" d="M17.004 12.234c.654 0 1.206.45 1.356 1.06a.274.274 0 0 1-.268.34h-2.233a.23.23 0 0 1-.227-.271a1.399 1.399 0 0 1 1.372-1.129"/><path fill="url(#f1049ids)" d="M16.797 12.506a.893.893 0 0 1 .86 1.129h-1.725a.897.897 0 0 1 .865-1.129"/><path fill="#000" d="M16.285 13.4a.51.51 0 0 1 .512-.512a.51.51 0 0 1 .455.747h-.906a.462.462 0 0 1-.06-.236"/><g filter="url(#f1049id1f)"><path fill="#C7A7A3" d="M16.731 12.695c.064.085-.07.189-.22.302c-.151.113-.264.192-.327.107c-.064-.085.007-.245.158-.358c.152-.114.326-.136.39-.051"/><path fill="url(#f1049idt)" d="M16.731 12.695c.064.085-.07.189-.22.302c-.151.113-.264.192-.327.107c-.064-.085.007-.245.158-.358c.152-.114.326-.136.39-.051"/></g><g filter="url(#f1049id1g)"><path fill="url(#f1049id22)" d="M17.593 13.282a.841.841 0 0 0-.232-.463l-.26.285l.117.228z"/></g><path fill="#fff" d="M12.219 12.234c-.654 0-1.206.45-1.356 1.06a.274.274 0 0 0 .268.34h2.233a.23.23 0 0 0 .227-.271a1.402 1.402 0 0 0-1.372-1.129"/><path fill="url(#f1049idu)" d="M12.426 12.506a.893.893 0 0 0-.86 1.129h1.724a.915.915 0 0 0 .033-.236a.9.9 0 0 0-.897-.893"/><path fill="#000" d="M12.938 13.4a.51.51 0 0 0-.512-.512a.51.51 0 0 0-.455.747h.906a.508.508 0 0 0 .06-.236"/><g filter="url(#f1049id1h)"><path fill="url(#f1049id23)" d="M13.242 13.294c0-.288-.235-.48-.299-.539l-.288.28l.178.36z"/></g><g filter="url(#f1049id1i)"><ellipse cx="12.156" cy="12.888" fill="#C7A7A3" fill-opacity=".9" rx=".39" ry=".197" transform="rotate(-27.914 12.156 12.888)"/><ellipse cx="12.156" cy="12.888" fill="url(#f1049idv)" rx=".39" ry=".197" transform="rotate(-27.914 12.156 12.888)"/></g><g filter="url(#f1049id1j)"><path fill="url(#f1049idw)" fill-rule="evenodd" d="M16.395 11.459c.72-.068 1.183.213 1.295.317a.473.473 0 0 0 .64-.696c-.306-.282-1.032-.656-2.023-.563a.473.473 0 0 0 .088.942" clip-rule="evenodd"/></g><g filter="url(#f1049id1k)"><path stroke="#D76D5B" stroke-linecap="round" stroke-width=".25" d="M18.01 11.317c-.209-.193-.803-.52-1.658-.44"/></g><g filter="url(#f1049id1l)"><path fill="url(#f1049idx)" fill-rule="evenodd" d="M12.833 11.459c-.72-.068-1.183.213-1.295.317a.473.473 0 0 1-.64-.696c.306-.282 1.032-.656 2.023-.563a.473.473 0 1 1-.088.942" clip-rule="evenodd"/></g><g filter="url(#f1049id1m)"><path stroke="#D76D5B" stroke-linecap="round" stroke-width=".25" d="M11.218 11.317c.21-.193.803-.52 1.659-.44"/></g><path fill="url(#f1049idy)" d="M20.283 6.381c-1.215-.027-1.642-.097-2.18-.285l1.061 1.785c.189.318.538.506.901.44c.85-.155 2.12-.53 2.703-1.053c.843-.758.785-1.492.715-1.758c-.07-.265-.211-.445-.352-.453c-.14-.008-.26.062-.39.375c-.212.508-.883.985-2.458.95"/><path fill="url(#f1049idz)" d="M20.283 6.381c-1.215-.027-1.642-.097-2.18-.285l1.061 1.785c.189.318.538.506.901.44c.85-.155 2.12-.53 2.703-1.053c.843-.758.785-1.492.715-1.758c-.07-.265-.211-.445-.352-.453c-.14-.008-.26.062-.39.375c-.212.508-.883.985-2.458.95"/><path fill="url(#f1049id10)" d="M20.283 6.381c-1.215-.027-1.642-.097-2.18-.285l1.061 1.785c.189.318.538.506.901.44c.85-.155 2.12-.53 2.703-1.053c.843-.758.785-1.492.715-1.758c-.07-.265-.211-.445-.352-.453c-.14-.008-.26.062-.39.375c-.212.508-.883.985-2.458.95"/><path fill="url(#f1049id11)" d="M20.283 6.381c-1.215-.027-1.642-.097-2.18-.285l1.061 1.785c.189.318.538.506.901.44c.85-.155 2.12-.53 2.703-1.053c.843-.758.785-1.492.715-1.758c-.07-.265-.211-.445-.352-.453c-.14-.008-.26.062-.39.375c-.212.508-.883.985-2.458.95"/><path fill="url(#f1049id12)" d="M20.283 6.381c-1.215-.027-1.642-.097-2.18-.285l1.061 1.785c.189.318.538.506.901.44c.85-.155 2.12-.53 2.703-1.053c.843-.758.785-1.492.715-1.758c-.07-.265-.211-.445-.352-.453c-.14-.008-.26.062-.39.375c-.212.508-.883.985-2.458.95"/><path fill="url(#f1049id24)" d="m24.342 3.159l-1.388 4.83l1.186.345l1.072-3.729a1.15 1.15 0 0 0-.784-1.421z"/><path fill="url(#f1049id25)" d="m24.342 3.159l-1.388 4.83l1.186.345l1.072-3.729a1.15 1.15 0 0 0-.784-1.421z"/><path fill="url(#f1049id26)" d="m19.694 5.736l5.42 1.536l-.338 1.188l-4.313-1.222a1.15 1.15 0 0 1-.793-1.42z"/><path fill="url(#f1049id27)" d="m19.694 5.736l5.42 1.536l-.338 1.188l-4.313-1.222a1.15 1.15 0 0 1-.793-1.42z"/><g filter="url(#f1049id1n)"><circle cx="23.739" cy="7.515" r=".313" fill="url(#f1049id13)"/><circle cx="23.739" cy="7.515" r=".313" fill="url(#f1049id14)"/><circle cx="23.739" cy="7.515" r=".313" fill="url(#f1049id15)"/></g><g filter="url(#f1049id1o)"><path fill="url(#f1049id16)" fill-rule="evenodd" d="M23.013 7.957a.1.1 0 0 0-.124.068l-.104.357a.215.215 0 0 1-.174.148a1.842 1.842 0 1 0 1.514.434a.214.214 0 0 1-.068-.22l.101-.349a.1.1 0 0 0-.068-.124zm.74 2.391a.844.844 0 1 1-1.687 0a.844.844 0 0 1 1.688 0" clip-rule="evenodd"/></g><path fill="url(#f1049id28)" fill-rule="evenodd" d="M23.013 7.957a.1.1 0 0 0-.124.068l-.104.357a.215.215 0 0 1-.174.148a1.842 1.842 0 1 0 1.514.434a.214.214 0 0 1-.068-.22l.101-.349a.1.1 0 0 0-.068-.124zm.74 2.391a.844.844 0 1 1-1.687 0a.844.844 0 0 1 1.688 0" clip-rule="evenodd"/><g filter="url(#f1049id1p)"><path fill="url(#f1049id17)" fill-rule="evenodd" d="M24.457 7.17a.1.1 0 0 1 .123-.07l.36.095c.079.02.162-.01.216-.073a1.842 1.842 0 1 1-.412 1.52a.215.215 0 0 0-.153-.171l-.351-.094a.1.1 0 0 1-.071-.122zm1.664 1.87a.844.844 0 1 0 .872-1.444a.844.844 0 0 0-.872 1.445" clip-rule="evenodd"/></g><g filter="url(#f1049id1q)"><circle cx="26.558" cy="8.318" r="1.671" stroke="url(#f1049id29)" stroke-width=".1"/></g><g filter="url(#f1049id1r)"><circle cx="26.558" cy="8.318" r="1.117" stroke="url(#f1049id2a)" stroke-width=".1"/></g><g filter="url(#f1049id1s)"><circle cx="22.91" cy="10.332" r="1.117" stroke="url(#f1049id2b)" stroke-width=".1"/></g><g filter="url(#f1049id1t)"><circle cx="22.91" cy="10.332" r="1.652" stroke="url(#f1049id2c)" stroke-width=".1"/></g><defs><radialGradient id="f1049id0" cx="0" cy="0" r="1" gradientTransform="rotate(154.071 8.254 14.159)scale(15.0662 17.3462)" gradientUnits="userSpaceOnUse"><stop stop-color="#339FF3"/><stop offset="1" stop-color="#2477DD"/></radialGradient><radialGradient id="f1049id1" cx="0" cy="0" r="1" gradientTransform="rotate(-115.528 17.4 10.835)scale(12.9022 18.5657)" gradientUnits="userSpaceOnUse"><stop offset=".879" stop-color="#407DA5" stop-opacity="0"/><stop offset="1" stop-color="#407DA5"/></radialGradient><radialGradient id="f1049id2" cx="0" cy="0" r="1" gradientTransform="rotate(166.984 5.917 10.473)scale(6.38273 2.1839)" gradientUnits="userSpaceOnUse"><stop offset=".236" stop-color="#145491"/><stop offset="1" stop-color="#27719E" stop-opacity="0"/></radialGradient><radialGradient id="f1049id3" cx="0" cy="0" r="1" gradientTransform="matrix(-2.6713 0 0 -14.1675 21.546 29.871)" gradientUnits="userSpaceOnUse"><stop offset=".133" stop-color="#459BFC"/><stop offset="1" stop-color="#459BFC" stop-opacity="0"/></radialGradient><radialGradient id="f1049id4" cx="0" cy="0" r="1" gradientTransform="matrix(1.24045 0 0 9.50024 7.166 29.871)" gradientUnits="userSpaceOnUse"><stop stop-color="#1F6CE0"/><stop offset="1" stop-color="#1F6CE0" stop-opacity="0"/></radialGradient><radialGradient id="f1049id5" cx="0" cy="0" r="1" gradientTransform="matrix(3.25185 0 0 9.13279 21.576 29.092)" gradientUnits="userSpaceOnUse"><stop offset=".576" stop-color="#43A2FF"/><stop offset="1" stop-color="#43A0F3"/></radialGradient><radialGradient id="f1049id6" cx="0" cy="0" r="1" gradientTransform="matrix(.87006 0 0 11.9715 21.576 29.87)" gradientUnits="userSpaceOnUse"><stop stop-color="#367BF1"/><stop offset="1" stop-color="#367BF1" stop-opacity="0"/></radialGradient><radialGradient id="f1049id7" cx="0" cy="0" r="1" gradientTransform="matrix(-3.70862 0 0 -8.85437 7.31 29.871)" gradientUnits="userSpaceOnUse"><stop offset=".614" stop-color="#517CC3" stop-opacity="0"/><stop offset=".956" stop-color="#517CC3"/></radialGradient><radialGradient id="f1049id8" cx="0" cy="0" r="1" gradientTransform="matrix(-.8463 0 0 -10.457 7.31 29.871)" gradientUnits="userSpaceOnUse"><stop offset=".111" stop-color="#438DEC"/><stop offset="1" stop-color="#438DEC" stop-opacity="0"/></radialGradient><radialGradient id="f1049id9" cx="0" cy="0" r="1" gradientTransform="matrix(.5625 1.75 -3.03541 .97567 13.7 19.506)" gradientUnits="userSpaceOnUse"><stop offset=".243" stop-color="#C37D25"/><stop offset="1" stop-color="#C37D25" stop-opacity="0"/></radialGradient><radialGradient id="f1049ida" cx="0" cy="0" r="1" gradientTransform="rotate(139.583 4.382 13.566)scale(2.48229 1.07513)" gradientUnits="userSpaceOnUse"><stop offset=".285" stop-color="#F5C028"/><stop offset="1" stop-color="#FFC328" stop-opacity="0"/><stop offset="1" stop-color="#F5C028" stop-opacity="0"/></radialGradient><radialGradient id="f1049idb" cx="0" cy="0" r="1" gradientTransform="matrix(1.75652 0 0 3.07393 8.19 13.666)" gradientUnits="userSpaceOnUse"><stop offset=".351" stop-color="#E6962B"/><stop offset="1" stop-color="#CA8F29"/></radialGradient><radialGradient id="f1049idc" cx="0" cy="0" r="1" gradientTransform="matrix(.82748 -.60254 .68772 .94447 19.756 13.401)" gradientUnits="userSpaceOnUse"><stop offset=".543" stop-color="#FFC532"/><stop offset="1" stop-color="#FFC532" stop-opacity="0"/></radialGradient><radialGradient id="f1049idd" cx="0" cy="0" r="1" gradientTransform="matrix(.82204 -1.51196 .88496 .48114 19.343 14.488)" gradientUnits="userSpaceOnUse"><stop offset=".69" stop-color="#F4A51A" stop-opacity="0"/><stop offset="1" stop-color="#F4A51A"/></radialGradient><radialGradient id="f1049ide" cx="0" cy="0" r="1" gradientTransform="matrix(.25953 .2569 -.33118 .33457 19.385 13.666)" gradientUnits="userSpaceOnUse"><stop stop-color="#E59B1F"/><stop offset="1" stop-color="#E59B1F" stop-opacity="0"/></radialGradient><radialGradient id="f1049idf" cx="0" cy="0" r="1" gradientTransform="scale(9.40738 8.23895)rotate(90 .07 1.536)" gradientUnits="userSpaceOnUse"><stop offset=".712" stop-color="#F39C27" stop-opacity="0"/><stop offset="1" stop-color="#BB7930"/></radialGradient><radialGradient id="f1049idg" cx="0" cy="0" r="1" gradientTransform="matrix(0 -1.30832 1.61023 0 16.962 12.393)" gradientUnits="userSpaceOnUse"><stop stop-color="#FFBA0D"/><stop offset="1" stop-color="#FFBA0D" stop-opacity="0"/></radialGradient><radialGradient id="f1049idh" cx="0" cy="0" r="1" gradientTransform="matrix(0 -1.39218 1.7313 0 12.4 12.36)" gradientUnits="userSpaceOnUse"><stop stop-color="#EE911A"/><stop offset="1" stop-color="#EE911A" stop-opacity="0"/></radialGradient><radialGradient id="f1049idi" cx="0" cy="0" r="1" gradientTransform="matrix(-3.43986 4.43352 -7.5396 -5.84979 18.31 5.946)" gradientUnits="userSpaceOnUse"><stop stop-color="#FFE336"/><stop offset="1" stop-color="#FFE336" stop-opacity="0"/></radialGradient><radialGradient id="f1049idj" cx="0" cy="0" r="1" gradientTransform="rotate(-95.29 9.807 .238)scale(2.00292 .98368)" gradientUnits="userSpaceOnUse"><stop offset=".222" stop-color="#FFB42C"/><stop offset="1" stop-color="#FFB42C" stop-opacity="0"/></radialGradient><radialGradient id="f1049idk" cx="0" cy="0" r="1" gradientTransform="matrix(.85996 -1.96834 1.60534 .70136 18.845 11.927)" gradientUnits="userSpaceOnUse"><stop offset=".479" stop-color="#E57D1C"/><stop offset="1" stop-color="#E57D1C" stop-opacity="0"/></radialGradient><radialGradient id="f1049idl" cx="0" cy="0" r="1" gradientTransform="matrix(.99373 1.23303 -1.08867 .87739 13.838 5.057)" gradientUnits="userSpaceOnUse"><stop stop-color="#FFCE2C"/><stop offset="1" stop-color="#FFCE2C" stop-opacity="0"/></radialGradient><radialGradient id="f1049idm" cx="0" cy="0" r="1" gradientTransform="matrix(1.45237 -3.03851 1.04984 .50181 18.807 9.443)" gradientUnits="userSpaceOnUse"><stop stop-color="#FFD93A"/><stop offset="1" stop-color="#FFD93A" stop-opacity="0"/></radialGradient><radialGradient id="f1049idn" cx="0" cy="0" r="1" gradientTransform="matrix(.26142 1.01586 -1.67013 .42978 15.31 5.057)" gradientUnits="userSpaceOnUse"><stop offset=".208" stop-color="#DDB13B"/><stop offset="1" stop-color="#FFC926" stop-opacity="0"/></radialGradient><radialGradient id="f1049ido" cx="0" cy="0" r="1" gradientTransform="matrix(1.108 1.60044 -3.3305 2.30572 10.228 6.319)" gradientUnits="userSpaceOnUse"><stop offset=".288" stop-color="#C9993E"/><stop offset="1" stop-color="#F29322" stop-opacity="0"/></radialGradient><radialGradient id="f1049idp" cx="0" cy="0" r="1" gradientTransform="matrix(-7.21429 3.2501 -4.0668 -9.02713 15.768 9.298)" gradientUnits="userSpaceOnUse"><stop offset=".756" stop-color="#CF7D35" stop-opacity="0"/><stop offset=".959" stop-color="#CF7D35"/></radialGradient><radialGradient id="f1049idq" cx="0" cy="0" r="1" gradientTransform="rotate(109.643 7.603 11.426)scale(2.74487 1.764)" gradientUnits="userSpaceOnUse"><stop offset=".346" stop-color="#F4B22D"/><stop offset="1" stop-color="#F4B22D" stop-opacity="0"/></radialGradient><radialGradient id="f1049idr" cx="0" cy="0" r="1" gradientTransform="matrix(.02462 -.62786 1.8836 .07386 14.53 17.682)" gradientUnits="userSpaceOnUse"><stop stop-color="#FFD069"/><stop offset="1" stop-color="#FFBE30" stop-opacity="0"/></radialGradient><radialGradient id="f1049ids" cx="0" cy="0" r="1" gradientTransform="matrix(0 .90401 -1.06968 0 16.795 13.317)" gradientUnits="userSpaceOnUse"><stop offset=".75" stop-color="#925C51"/><stop offset="1" stop-color="#694B43"/><stop offset="1" stop-color="#804D49"/><stop offset="1" stop-color="#85534D"/></radialGradient><radialGradient id="f1049idt" cx="0" cy="0" r="1" gradientTransform="matrix(-.23208 -.29907 .41175 -.31952 16.566 13.067)" gradientUnits="userSpaceOnUse"><stop offset=".766" stop-color="#FFE6E2" stop-opacity="0"/><stop offset=".966" stop-color="#FFE6E2"/></radialGradient><radialGradient id="f1049idu" cx="0" cy="0" r="1" gradientTransform="matrix(0 .90406 -1.06973 0 12.428 13.317)" gradientUnits="userSpaceOnUse"><stop offset=".75" stop-color="#925C51"/><stop offset="1" stop-color="#694B43"/><stop offset="1" stop-color="#804D49"/><stop offset="1" stop-color="#85534D"/></radialGradient><radialGradient id="f1049idv" cx="0" cy="0" r="1" gradientTransform="rotate(-90.897 12.57 .625)scale(.4945 .5944)" gradientUnits="userSpaceOnUse"><stop offset=".766" stop-color="#FFE6E2" stop-opacity="0"/><stop offset=".966" stop-color="#FFE6E2"/></radialGradient><radialGradient id="f1049idw" cx="0" cy="0" r="1" gradientTransform="rotate(-76.373 15.822 -5.117)scale(.83606 1.83421)" gradientUnits="userSpaceOnUse"><stop offset=".657" stop-color="#C64F38"/><stop offset="1" stop-color="#BB4F29"/></radialGradient><radialGradient id="f1049idx" cx="0" cy="0" r="1" gradientTransform="rotate(-103.627 10.59 .95)scale(.83606 1.83421)" gradientUnits="userSpaceOnUse"><stop offset=".657" stop-color="#C64F38"/><stop offset="1" stop-color="#BB4F29"/></radialGradient><radialGradient id="f1049idy" cx="0" cy="0" r="1" gradientTransform="rotate(152.815 10.952 5.477)scale(5.16422 4.07334)" gradientUnits="userSpaceOnUse"><stop stop-color="#E98728"/><stop offset=".901" stop-color="#FFD530"/></radialGradient><radialGradient id="f1049idz" cx="0" cy="0" r="1" gradientTransform="matrix(.03906 .32813 -.31029 .03694 23.134 5.156)" gradientUnits="userSpaceOnUse"><stop stop-color="#FFD437"/><stop offset="1" stop-color="#FFBE22" stop-opacity="0"/></radialGradient><radialGradient id="f1049id10" cx="0" cy="0" r="1" gradientTransform="matrix(4.17626 .56873 -.43132 3.16722 19.343 5.883)" gradientUnits="userSpaceOnUse"><stop offset=".949" stop-color="#FCB831" stop-opacity="0"/><stop offset="1" stop-color="#FCB831"/></radialGradient><radialGradient id="f1049id11" cx="0" cy="0" r="1" gradientTransform="rotate(165.562 10.232 5.23)scale(2.61605 1.13614)" gradientUnits="userSpaceOnUse"><stop stop-color="#DA7126"/><stop offset="1" stop-color="#F09F2B" stop-opacity="0"/></radialGradient><radialGradient id="f1049id12" cx="0" cy="0" r="1" gradientTransform="matrix(1.23439 1.92187 -3.1166 2.00174 20.696 5.984)" gradientUnits="userSpaceOnUse"><stop offset=".893" stop-color="#C36841" stop-opacity="0"/><stop offset="1" stop-color="#C36841"/></radialGradient><radialGradient id="f1049id13" cx="0" cy="0" r="1" gradientTransform="rotate(141.18 10.65 7.923)scale(.43619)" gradientUnits="userSpaceOnUse"><stop offset=".168" stop-color="#EBDBE4"/><stop offset="1" stop-color="#C7B1B5"/></radialGradient><radialGradient id="f1049id14" cx="0" cy="0" r="1" gradientTransform="matrix(.19922 -.48438 1.17186 .48198 23.594 7.862)" gradientUnits="userSpaceOnUse"><stop offset=".147" stop-color="#996E9F"/><stop offset="1" stop-color="#C8B3B7" stop-opacity="0"/></radialGradient><radialGradient id="f1049id15" cx="0" cy="0" r="1" gradientTransform="matrix(.4375 .04684 -.05916 .55254 23.369 7.424)" gradientUnits="userSpaceOnUse"><stop offset=".181" stop-color="#A4888C"/><stop offset="1" stop-color="#A4888C" stop-opacity="0"/></radialGradient><radialGradient id="f1049id16" cx="0" cy="0" r="1" gradientTransform="matrix(2.20247 -1.61719 2.56784 3.49718 21.396 10.611)" gradientUnits="userSpaceOnUse"><stop offset=".205" stop-color="#FF7046"/><stop offset="1" stop-color="#FF2D78"/></radialGradient><radialGradient id="f1049id17" cx="0" cy="0" r="1" gradientTransform="matrix(2.53124 -1.40627 1.98705 3.57664 24.543 8.788)" gradientUnits="userSpaceOnUse"><stop offset=".205" stop-color="#FF7046"/><stop offset="1" stop-color="#FF2D78"/></radialGradient><filter id="f1049id18" width="2.992" height="2.992" x="8.366" y="12.17" color-interpolation-filters="sRGB" filterUnits="userSpaceOnUse"><feFlood flood-opacity="0" result="BackgroundImageFix"/><feBlend in="SourceGraphic" in2="BackgroundImageFix" result="shape"/><feGaussianBlur result="effect1_foregroundBlur_4002_23" stdDeviation=".25"/></filter><filter id="f1049id19" width="3.592" height="3.592" x="17.713" y="11.745" color-interpolation-filters="sRGB" filterUnits="userSpaceOnUse"><feFlood flood-opacity="0" result="BackgroundImageFix"/><feBlend in="SourceGraphic" in2="BackgroundImageFix" result="shape"/><feColorMatrix in="SourceAlpha" result="hardAlpha" values="0 0 0 0 0 0 0 0 0 0 0 0 0 0 0 0 0 0 127 0"/><feOffset dx=".25" dy="-.25"/><feGaussianBlur stdDeviation=".25"/><feComposite in2="hardAlpha" k2="-1" k3="1" operator="arithmetic"/><feColorMatrix values="0 0 0 0 0.85098 0 0 0 0 0.560784 0 0 0 0 0.376471 0 0 0 1 0"/><feBlend in2="shape" result="effect1_innerShadow_4002_23"/></filter><filter id="f1049id1a" width="2.992" height="2.992" x="17.888" y="12.17" color-interpolation-filters="sRGB" filterUnits="userSpaceOnUse"><feFlood flood-opacity="0" result="BackgroundImageFix"/><feBlend in="SourceGraphic" in2="BackgroundImageFix" result="shape"/><feGaussianBlur result="effect1_foregroundBlur_4002_23" stdDeviation=".25"/></filter><filter id="f1049id1b" width="12.614" height="8.301" x="8.307" y="4.807" color-interpolation-filters="sRGB" filterUnits="userSpaceOnUse"><feFlood flood-opacity="0" result="BackgroundImageFix"/><feBlend in="SourceGraphic" in2="BackgroundImageFix" result="shape"/><feColorMatrix in="SourceAlpha" result="hardAlpha" values="0 0 0 0 0 0 0 0 0 0 0 0 0 0 0 0 0 0 127 0"/><feOffset dy="-.25"/><feGaussianBlur stdDeviation=".125"/><feComposite in2="hardAlpha" k2="-1" k3="1" operator="arithmetic"/><feColorMatrix values="0 0 0 0 0.984314 0 0 0 0 0.584314 0 0 0 0 0.129412 0 0 0 1 0"/><feBlend in2="shape" result="effect1_innerShadow_4002_23"/><feColorMatrix in="SourceAlpha" result="hardAlpha" values="0 0 0 0 0 0 0 0 0 0 0 0 0 0 0 0 0 0 127 0"/><feOffset dy="-.25"/><feGaussianBlur stdDeviation=".125"/><feComposite in2="hardAlpha" k2="-1" k3="1" operator="arithmetic"/><feColorMatrix values="0 0 0 0 0.972549 0 0 0 0 0.572549 0 0 0 0 0.0156863 0 0 0 1 0"/><feBlend in2="effect1_innerShadow_4002_23" result="effect2_innerShadow_4002_23"/></filter><filter id="f1049id1c" width="3.262" height="4.184" x="12.744" y="12.511" color-interpolation-filters="sRGB" filterUnits="userSpaceOnUse"><feFlood flood-opacity="0" result="BackgroundImageFix"/><feBlend in="SourceGraphic" in2="BackgroundImageFix" result="shape"/><feGaussianBlur result="effect1_foregroundBlur_4002_23" stdDeviation=".375"/></filter><filter id="f1049id1d" width="2.079" height="2.884" x="13.575" y="12.998" color-interpolation-filters="sRGB" filterUnits="userSpaceOnUse"><feFlood flood-opacity="0" result="BackgroundImageFix"/><feBlend in="SourceGraphic" in2="BackgroundImageFix" result="shape"/><feGaussianBlur result="effect1_foregroundBlur_4002_23" stdDeviation=".05"/></filter><filter id="f1049id1e" width="3.621" height="1.474" x="12.804" y="16.253" color-interpolation-filters="sRGB" filterUnits="userSpaceOnUse"><feFlood flood-opacity="0" result="BackgroundImageFix"/><feBlend in="SourceGraphic" in2="BackgroundImageFix" result="shape"/><feGaussianBlur result="effect1_foregroundBlur_4002_23" stdDeviation=".05"/></filter><filter id="f1049id1f" width=".787" height=".697" x="16.06" y="12.543" color-interpolation-filters="sRGB" filterUnits="userSpaceOnUse"><feFlood flood-opacity="0" result="BackgroundImageFix"/><feBlend in="SourceGraphic" in2="BackgroundImageFix" result="shape"/><feGaussianBlur result="effect1_foregroundBlur_4002_23" stdDeviation=".05"/></filter><filter id="f1049id1g" width=".892" height=".914" x="16.901" y="12.619" color-interpolation-filters="sRGB" filterUnits="userSpaceOnUse"><feFlood flood-opacity="0" result="BackgroundImageFix"/><feBlend in="SourceGraphic" in2="BackgroundImageFix" result="shape"/><feGaussianBlur result="effect1_foregroundBlur_4002_23" stdDeviation=".1"/></filter><filter id="f1049id1h" width=".987" height="1.041" x="12.455" y="12.555" color-interpolation-filters="sRGB" filterUnits="userSpaceOnUse"><feFlood flood-opacity="0" result="BackgroundImageFix"/><feBlend in="SourceGraphic" in2="BackgroundImageFix" result="shape"/><feGaussianBlur result="effect1_foregroundBlur_4002_23" stdDeviation=".1"/></filter><filter id="f1049id1i" width=".914" height=".705" x="11.7" y="12.535" color-interpolation-filters="sRGB" filterUnits="userSpaceOnUse"><feFlood flood-opacity="0" result="BackgroundImageFix"/><feBlend in="SourceGraphic" in2="BackgroundImageFix" result="shape"/><feGaussianBlur result="effect1_foregroundBlur_4002_23" stdDeviation=".05"/></filter><filter id="f1049id1j" width="2.604" height="1.648" x="15.879" y="10.253" color-interpolation-filters="sRGB" filterUnits="userSpaceOnUse"><feFlood flood-opacity="0" result="BackgroundImageFix"/><feBlend in="SourceGraphic" in2="BackgroundImageFix" result="shape"/><feColorMatrix in="SourceAlpha" result="hardAlpha" values="0 0 0 0 0 0 0 0 0 0 0 0 0 0 0 0 0 0 127 0"/><feOffset dy="-.25"/><feGaussianBlur stdDeviation=".2"/><feComposite in2="hardAlpha" k2="-1" k3="1" operator="arithmetic"/><feColorMatrix values="0 0 0 0 0.698039 0 0 0 0 0.25098 0 0 0 0 0.313726 0 0 0 1 0"/><feBlend in2="shape" result="effect1_innerShadow_4002_23"/></filter><filter id="f1049id1k" width="2.709" height="1.502" x="15.826" y="10.339" color-interpolation-filters="sRGB" filterUnits="userSpaceOnUse"><feFlood flood-opacity="0" result="BackgroundImageFix"/><feBlend in="SourceGraphic" in2="BackgroundImageFix" result="shape"/><feGaussianBlur result="effect1_foregroundBlur_4002_23" stdDeviation=".2"/></filter><filter id="f1049id1l" width="2.604" height="1.648" x="10.745" y="10.253" color-interpolation-filters="sRGB" filterUnits="userSpaceOnUse"><feFlood flood-opacity="0" result="BackgroundImageFix"/><feBlend in="SourceGraphic" in2="BackgroundImageFix" result="shape"/><feColorMatrix in="SourceAlpha" result="hardAlpha" values="0 0 0 0 0 0 0 0 0 0 0 0 0 0 0 0 0 0 127 0"/><feOffset dy="-.25"/><feGaussianBlur stdDeviation=".2"/><feComposite in2="hardAlpha" k2="-1" k3="1" operator="arithmetic"/><feColorMatrix values="0 0 0 0 0.698039 0 0 0 0 0.25098 0 0 0 0 0.313726 0 0 0 1 0"/><feBlend in2="shape" result="effect1_innerShadow_4002_23"/></filter><filter id="f1049id1m" width="2.709" height="1.502" x="10.693" y="10.339" color-interpolation-filters="sRGB" filterUnits="userSpaceOnUse"><feFlood flood-opacity="0" result="BackgroundImageFix"/><feBlend in="SourceGraphic" in2="BackgroundImageFix" result="shape"/><feGaussianBlur result="effect1_foregroundBlur_4002_23" stdDeviation=".2"/></filter><filter id="f1049id1n" width=".726" height=".726" x="23.426" y="7.102" color-interpolation-filters="sRGB" filterUnits="userSpaceOnUse"><feFlood flood-opacity="0" result="BackgroundImageFix"/><feBlend in="SourceGraphic" in2="BackgroundImageFix" result="shape"/><feColorMatrix in="SourceAlpha" result="hardAlpha" values="0 0 0 0 0 0 0 0 0 0 0 0 0 0 0 0 0 0 127 0"/><feOffset dx=".1" dy="-.1"/><feGaussianBlur stdDeviation=".1"/><feComposite in2="hardAlpha" k2="-1" k3="1" operator="arithmetic"/><feColorMatrix values="0 0 0 0 0.52549 0 0 0 0 0.388235 0 0 0 0 0.501961 0 0 0 1 0"/><feBlend in2="shape" result="effect1_innerShadow_4002_23"/></filter><filter id="f1049id1o" width="3.834" height="4.387" x="20.968" y="7.903" color-interpolation-filters="sRGB" filterUnits="userSpaceOnUse"><feFlood flood-opacity="0" result="BackgroundImageFix"/><feBlend in="SourceGraphic" in2="BackgroundImageFix" result="shape"/><feColorMatrix in="SourceAlpha" result="hardAlpha" values="0 0 0 0 0 0 0 0 0 0 0 0 0 0 0 0 0 0 127 0"/><feOffset dx=".05" dy="-.05"/><feGaussianBlur stdDeviation=".1"/><feComposite in2="hardAlpha" k2="-1" k3="1" operator="arithmetic"/><feColorMatrix values="0 0 0 0 0.945098 0 0 0 0 0.45098 0 0 0 0 0.333333 0 0 0 1 0"/><feBlend in2="shape" result="effect1_innerShadow_4002_23"/><feColorMatrix in="SourceAlpha" result="hardAlpha" values="0 0 0 0 0 0 0 0 0 0 0 0 0 0 0 0 0 0 127 0"/><feOffset dx="-.1" dy=".1"/><feGaussianBlur stdDeviation=".1"/><feComposite in2="hardAlpha" k2="-1" k3="1" operator="arithmetic"/><feColorMatrix values="0 0 0 0 1 0 0 0 0 0.282353 0 0 0 0 0.435294 0 0 0 1 0"/><feBlend in2="effect1_innerShadow_4002_23" result="effect2_innerShadow_4002_23"/></filter><filter id="f1049id1p" width="4.283" height="3.734" x="24.166" y="6.426" color-interpolation-filters="sRGB" filterUnits="userSpaceOnUse"><feFlood flood-opacity="0" result="BackgroundImageFix"/><feBlend in="SourceGraphic" in2="BackgroundImageFix" result="shape"/><feColorMatrix in="SourceAlpha" result="hardAlpha" values="0 0 0 0 0 0 0 0 0 0 0 0 0 0 0 0 0 0 127 0"/><feOffset dx=".05" dy="-.05"/><feGaussianBlur stdDeviation=".05"/><feComposite in2="hardAlpha" k2="-1" k3="1" operator="arithmetic"/><feColorMatrix values="0 0 0 0 0.882353 0 0 0 0 0.203922 0 0 0 0 0.435294 0 0 0 1 0"/><feBlend in2="shape" result="effect1_innerShadow_4002_23"/></filter><filter id="f1049id1q" width="3.843" height="3.843" x="24.637" y="6.397" color-interpolation-filters="sRGB" filterUnits="userSpaceOnUse"><feFlood flood-opacity="0" result="BackgroundImageFix"/><feBlend in="SourceGraphic" in2="BackgroundImageFix" result="shape"/><feGaussianBlur result="effect1_foregroundBlur_4002_23" stdDeviation=".1"/></filter><filter id="f1049id1r" width="2.734" height="2.734" x="25.191" y="6.951" color-interpolation-filters="sRGB" filterUnits="userSpaceOnUse"><feFlood flood-opacity="0" result="BackgroundImageFix"/><feBlend in="SourceGraphic" in2="BackgroundImageFix" result="shape"/><feGaussianBlur result="effect1_foregroundBlur_4002_23" stdDeviation=".1"/></filter><filter id="f1049id1s" width="2.734" height="2.734" x="21.543" y="8.965" color-interpolation-filters="sRGB" filterUnits="userSpaceOnUse"><feFlood flood-opacity="0" result="BackgroundImageFix"/><feBlend in="SourceGraphic" in2="BackgroundImageFix" result="shape"/><feGaussianBlur result="effect1_foregroundBlur_4002_23" stdDeviation=".1"/></filter><filter id="f1049id1t" width="3.805" height="3.805" x="21.008" y="8.43" color-interpolation-filters="sRGB" filterUnits="userSpaceOnUse"><feFlood flood-opacity="0" result="BackgroundImageFix"/><feBlend in="SourceGraphic" in2="BackgroundImageFix" result="shape"/><feGaussianBlur result="effect1_foregroundBlur_4002_23" stdDeviation=".1"/></filter><linearGradient id="f1049id1u" x1="9.862" x2="9.221" y1="13.945" y2="13.945" gradientUnits="userSpaceOnUse"><stop stop-color="#BD6A1E"/><stop offset="1" stop-color="#D77A1C"/></linearGradient><linearGradient id="f1049id1v" x1="20.471" x2="19.652" y1="12.574" y2="15.112" gradientUnits="userSpaceOnUse"><stop stop-color="#FFE446"/><stop offset="1" stop-color="#FFC339"/></linearGradient><linearGradient id="f1049id1w" x1="18.654" x2="11.01" y1="14.056" y2="15.195" gradientUnits="userSpaceOnUse"><stop stop-color="#FFE833"/><stop offset=".916" stop-color="#F9A528"/></linearGradient><linearGradient id="f1049id1x" x1="9.213" x2="11.528" y1="16.755" y2="16.453" gradientUnits="userSpaceOnUse"><stop stop-color="#D19C3A"/><stop offset="1" stop-color="#D19C3A" stop-opacity="0"/></linearGradient><linearGradient id="f1049id1y" x1="9.748" x2="12.653" y1="13.399" y2="8.239" gradientUnits="userSpaceOnUse"><stop stop-color="#E07027"/><stop offset="1" stop-color="#E07027" stop-opacity="0"/></linearGradient><linearGradient id="f1049id1z" x1="13.749" x2="14.688" y1="14.716" y2="14.716" gradientUnits="userSpaceOnUse"><stop stop-color="#FAA416"/><stop offset="1" stop-color="#FAA416" stop-opacity="0"/></linearGradient><linearGradient id="f1049id20" x1="15.553" x2="14.527" y1="15.039" y2="15.024" gradientUnits="userSpaceOnUse"><stop stop-color="#FFE721"/><stop offset="1" stop-color="#FFE721" stop-opacity="0"/></linearGradient><linearGradient id="f1049id21" x1="14.809" x2="14.809" y1="15.782" y2="15.208" gradientUnits="userSpaceOnUse"><stop stop-color="#EB8A1C"/><stop offset="1" stop-color="#EB8A1C" stop-opacity="0"/></linearGradient><linearGradient id="f1049id22" x1="17.573" x2="17.259" y1="13.037" y2="13.231" gradientUnits="userSpaceOnUse"><stop stop-color="#B4948D"/><stop offset="1" stop-color="#B4948D" stop-opacity="0"/></linearGradient><linearGradient id="f1049id23" x1="13.172" x2="12.858" y1="13.037" y2="13.231" gradientUnits="userSpaceOnUse"><stop stop-color="#B4948D"/><stop offset="1" stop-color="#B4948D" stop-opacity="0"/></linearGradient><linearGradient id="f1049id24" x1="24.949" x2="23.758" y1="5.564" y2="5.219" gradientUnits="userSpaceOnUse"><stop stop-color="#9B8299"/><stop offset="1" stop-color="#D9B4C8"/></linearGradient><linearGradient id="f1049id25" x1="23.801" x2="23.875" y1="7.057" y2="6.768" gradientUnits="userSpaceOnUse"><stop offset=".16" stop-color="#A28B95"/><stop offset="1" stop-color="#C0A0B5" stop-opacity="0"/></linearGradient><linearGradient id="f1049id26" x1="22.887" x2="23.152" y1="7.913" y2="6.616" gradientUnits="userSpaceOnUse"><stop stop-color="#9B8299"/><stop offset="1" stop-color="#D9B4C8"/></linearGradient><linearGradient id="f1049id27" x1="24.298" x2="24.1" y1="7.994" y2="7.939" gradientUnits="userSpaceOnUse"><stop stop-color="#93768E"/><stop offset="1" stop-color="#A2889F" stop-opacity="0"/></linearGradient><linearGradient id="f1049id28" x1="23.637" x2="23.578" y1="8.084" y2="8.311" gradientUnits="userSpaceOnUse"><stop offset=".209" stop-color="#B71143"/><stop offset="1" stop-color="#FF3178" stop-opacity="0"/></linearGradient><linearGradient id="f1049id29" x1="24.887" x2="28.077" y1="8.687" y2="7.214" gradientUnits="userSpaceOnUse"><stop offset=".616" stop-color="#FF4F4F"/><stop offset=".9" stop-color="#FF6792"/></linearGradient><linearGradient id="f1049id2a" x1="25.441" x2="27.573" y1="8.565" y2="7.58" gradientUnits="userSpaceOnUse"><stop offset=".247" stop-color="#FF7E7A"/><stop offset=".669" stop-color="#FF7E7A" stop-opacity="0"/></linearGradient><linearGradient id="f1049id2b" x1="21.793" x2="23.925" y1="10.578" y2="9.594" gradientUnits="userSpaceOnUse"><stop offset=".247" stop-color="#FF9266"/><stop offset=".669" stop-color="#FF9266" stop-opacity="0"/></linearGradient><linearGradient id="f1049id2c" x1="24.563" x2="22.91" y1="9.791" y2="10.332" gradientUnits="userSpaceOnUse"><stop stop-color="#FF5C88"/><stop offset="1" stop-color="#FF5185" stop-opacity="0"/></linearGradient></defs></g></svg>