<svg xmlns="http://www.w3.org/2000/svg" width="1em" height="1em" viewBox="0 0 32 32"><g fill="none"><path fill="url(#f1385id0)" d="M30.005 18.32L17.895 6.21a2.468 2.468 0 0 0-3.62.14L2.285 20.34c-.18.21-.28.48-.28.76l-.01 8.76c0 .08.06.14.14.14h27.87z"/><path fill="url(#f1385id1)" d="M30.005 18.32L17.895 6.21a2.468 2.468 0 0 0-3.62.14L2.285 20.34c-.18.21-.28.48-.28.76l-.01 8.76c0 .08.06.14.14.14h27.87z"/><path fill="url(#f1385idy)" d="M30.005 18.32L17.895 6.21a2.468 2.468 0 0 0-3.62.14L2.285 20.34c-.18.21-.28.48-.28.76l-.01 8.76c0 .08.06.14.14.14h27.87z"/><path fill="url(#f1385id2)" d="M30.005 18.32L17.895 6.21a2.468 2.468 0 0 0-3.62.14L2.285 20.34c-.18.21-.28.48-.28.76l-.01 8.76c0 .08.06.14.14.14h27.87z"/><path fill="url(#f1385id3)" d="M30.005 18.32L17.895 6.21a2.468 2.468 0 0 0-3.62.14L2.285 20.34c-.18.21-.28.48-.28.76l-.01 8.76c0 .08.06.14.14.14h27.87z"/><path fill="url(#f1385id4)" d="m30.005 5.87l-2.9-3.16c-.91-.99-2.5-.94-3.34.11L1.995 30h28.01z"/><path fill="url(#f1385id5)" d="m30.005 5.87l-2.9-3.16c-.91-.99-2.5-.94-3.34.11L1.995 30h28.01z"/><path fill="url(#f1385id6)" d="m30.005 5.87l-2.9-3.16c-.91-.99-2.5-.94-3.34.11L1.995 30h28.01z"/><path fill="url(#f1385id7)" d="m30.005 5.87l-2.9-3.16c-.91-.99-2.5-.94-3.34.11L1.995 30h28.01z"/><g filter="url(#f1385idl)"><path fill="url(#f1385id8)" d="m6.783 25.196l4.708-6.299h17.443v10.35H8.813a2.534 2.534 0 0 1-2.03-4.05"/><path fill="url(#f1385id9)" d="m6.783 25.196l4.708-6.299h17.443v10.35H8.813a2.534 2.534 0 0 1-2.03-4.05"/></g><g filter="url(#f1385idm)"><path fill="#786E7C" d="M14.495 30a2 2 0 1 0 0-4a2 2 0 0 0 0 4"/><path fill="url(#f1385ida)" d="M14.495 30a2 2 0 1 0 0-4a2 2 0 0 0 0 4"/></g><g filter="url(#f1385idn)"><path fill="#6E6371" d="M20.015 30a2 2 0 1 0 0-4a2 2 0 0 0 0 4"/><path fill="url(#f1385idb)" d="M20.015 30a2 2 0 1 0 0-4a2 2 0 0 0 0 4"/></g><g filter="url(#f1385ido)"><path fill="#55435B" fill-rule="evenodd" d="M16.48 27.555h-2.098c-.28 0-.5.22-.5.5s.22.5.5.5h1.964a1.995 1.995 0 0 0 .134-1" clip-rule="evenodd"/></g><g filter="url(#f1385idp)"><path fill="#55435B" fill-rule="evenodd" d="M18.106 27.555h1.42c.189 0 .337.22.337.5s-.148.5-.338.5h-1.329a2.843 2.843 0 0 1-.09-1" clip-rule="evenodd"/></g><g filter="url(#f1385idq)"><path fill="#5F5562" d="M30.015 26c-1.1 0-2 .9-2 2s.9 2 2 2z"/><path fill="url(#f1385idc)" d="M30.015 26c-1.1 0-2 .9-2 2s.9 2 2 2z"/></g><g filter="url(#f1385idr)"><path fill="url(#f1385idz)" d="M19.515 28.5h-5c-.28 0-.5-.22-.5-.5s.22-.5.5-.5h5c.28 0 .5.22.5.5c0 .27-.23.5-.5.5"/></g><g filter="url(#f1385ids)"><path fill="url(#f1385idd)" d="M11.015 12.015a1 1 0 0 1 1-1h18V28h-18c-.55 0-1-.45-1-1z"/></g><path fill="url(#f1385ide)" d="M30.015 13h-19v10h19z"/><path fill="url(#f1385idf)" d="M30.015 13h-19v10h19z"/><g filter="url(#f1385idt)"><path fill="url(#f1385idg)" d="M13.015 22h-2l.01-8h2c.55 0 1 .45 1 1l-.01 6c0 .55-.45 1-1 1"/></g><g filter="url(#f1385idu)"><path fill="url(#f1385idh)" d="M18.995 22h-1.98c-.55 0-1-.45-1-1l.01-6c0-.55.45-1 1-1h1.98c.55 0 1 .45 1 1l-.01 6c0 .55-.45 1-1 1"/><path fill="url(#f1385id10)" d="M18.995 22h-1.98c-.55 0-1-.45-1-1l.01-6c0-.55.45-1 1-1h1.98c.55 0 1 .45 1 1l-.01 6c0 .55-.45 1-1 1"/></g><g filter="url(#f1385idv)"><path fill="url(#f1385idi)" d="M24.995 22h-1.98c-.55 0-1-.45-1-1l.01-6c0-.55.45-1 1-1h1.98c.55 0 1 .45 1 1l-.01 6c0 .55-.45 1-1 1"/><path fill="url(#f1385id11)" d="M24.995 22h-1.98c-.55 0-1-.45-1-1l.01-6c0-.55.45-1 1-1h1.98c.55 0 1 .45 1 1l-.01 6c0 .55-.45 1-1 1"/></g><g filter="url(#f1385idw)"><path fill="url(#f1385idj)" d="M29.995 22h-.98c-.55 0-1-.45-1-1l.01-6c0-.55.45-1 1-1h.98z"/><path fill="url(#f1385id12)" d="M29.995 22h-.98c-.55 0-1-.45-1-1l.01-6c0-.55.45-1 1-1h.98z"/></g><path fill="url(#f1385id13)" d="M29.995 22h-.98c-.55 0-1-.45-1-1l.01-6c0-.55.45-1 1-1h.98z"/><path fill="url(#f1385id14)" d="M13.505 25h-1c-.28 0-.5-.22-.5-.5s.22-.5.5-.5h1c.28 0 .5.22.5.5s-.23.5-.5.5"/><path fill="url(#f1385id15)" d="M13.505 25h-1c-.28 0-.5-.22-.5-.5s.22-.5.5-.5h1c.28 0 .5.22.5.5s-.23.5-.5.5"/><g filter="url(#f1385idx)"><path stroke="url(#f1385idk)" stroke-linecap="round" stroke-width=".4" d="M11.871 11.724h16.602"/></g><defs><linearGradient id="f1385id0" x1="5.797" x2="20.125" y1="23.26" y2="7.247" gradientUnits="userSpaceOnUse"><stop stop-color="#37806E"/><stop offset="1" stop-color="#398869"/></linearGradient><linearGradient id="f1385id1" x1="19.628" x2="18.592" y1="7.322" y2="8.468" gradientUnits="userSpaceOnUse"><stop stop-color="#59A083"/><stop offset="1" stop-color="#59A083" stop-opacity="0"/></linearGradient><linearGradient id="f1385id2" x1="8.682" x2="9.333" y1="13.184" y2="13.742" gradientUnits="userSpaceOnUse"><stop stop-color="#407561"/><stop offset="1" stop-color="#407561" stop-opacity="0"/></linearGradient><linearGradient id="f1385id3" x1="16.918" x2="16.381" y1="11.805" y2="11.369" gradientUnits="userSpaceOnUse"><stop offset=".099" stop-color="#1D543F"/><stop offset="1" stop-color="#1D543F" stop-opacity="0"/></linearGradient><linearGradient id="f1385id4" x1="17.366" x2="27.217" y1="12.571" y2="19.62" gradientUnits="userSpaceOnUse"><stop stop-color="#52DB8B"/><stop offset="1" stop-color="#4ECE7F"/></linearGradient><linearGradient id="f1385id5" x1="18.269" x2="18.269" y1="32.183" y2="16.547" gradientUnits="userSpaceOnUse"><stop stop-color="#39BE73"/><stop offset="1" stop-color="#39BE73" stop-opacity="0"/></linearGradient><linearGradient id="f1385id6" x1="28.866" x2="28.147" y1="4.662" y2="5.335" gradientUnits="userSpaceOnUse"><stop stop-color="#66F9A1"/><stop offset="1" stop-color="#66F9A1" stop-opacity="0"/></linearGradient><linearGradient id="f1385id7" x1="16.242" x2="17.506" y1="11.461" y2="12.484" gradientUnits="userSpaceOnUse"><stop offset=".186" stop-color="#56B878"/><stop offset="1" stop-color="#56B878" stop-opacity="0"/></linearGradient><linearGradient id="f1385id8" x1="16.868" x2="7.514" y1="24.591" y2="33.449" gradientUnits="userSpaceOnUse"><stop offset=".203" stop-color="#2E935A"/><stop offset="1" stop-color="#2E935A" stop-opacity="0"/></linearGradient><linearGradient id="f1385id9" x1="30.109" x2="17.546" y1="28.568" y2="28.568" gradientUnits="userSpaceOnUse"><stop stop-color="#34815F"/><stop offset="1" stop-color="#34815F" stop-opacity="0"/></linearGradient><linearGradient id="f1385ida" x1="13.495" x2="13.495" y1="27.734" y2="28.296" gradientUnits="userSpaceOnUse"><stop stop-color="#534350"/><stop offset="1" stop-color="#534350" stop-opacity="0"/></linearGradient><linearGradient id="f1385idb" x1="19.015" x2="19.015" y1="27.734" y2="28.296" gradientUnits="userSpaceOnUse"><stop stop-color="#4D3A4C"/><stop offset="1" stop-color="#4D3A4C" stop-opacity="0"/></linearGradient><linearGradient id="f1385idc" x1="28.515" x2="28.515" y1="27.734" y2="28.296" gradientUnits="userSpaceOnUse"><stop stop-color="#483342"/><stop offset="1" stop-color="#483342" stop-opacity="0"/></linearGradient><linearGradient id="f1385idd" x1="11.01" x2="30.01" y1="25.499" y2="25.499" gradientUnits="userSpaceOnUse"><stop stop-color="#FECD5B"/><stop offset="1" stop-color="#FF8643"/></linearGradient><linearGradient id="f1385ide" x1="30.015" x2="11.015" y1="17.074" y2="17.074" gradientUnits="userSpaceOnUse"><stop stop-color="#CBBED4"/><stop offset="1" stop-color="#DFD4E6"/></linearGradient><linearGradient id="f1385idf" x1="10.914" x2="11.877" y1="23.001" y2="23.001" gradientUnits="userSpaceOnUse"><stop stop-color="#8B8692"/><stop offset="1" stop-color="#8B8692" stop-opacity="0"/></linearGradient><linearGradient id="f1385idg" x1="11.871" x2="14.388" y1="19.302" y2="19.302" gradientUnits="userSpaceOnUse"><stop stop-color="#4ACDFE"/><stop offset="1" stop-color="#38A9D9"/></linearGradient><linearGradient id="f1385idh" x1="18.673" x2="18.673" y1="14.001" y2="22.001" gradientUnits="userSpaceOnUse"><stop stop-color="#40C1FF"/><stop offset="1" stop-color="#4FF4FF"/></linearGradient><linearGradient id="f1385idi" x1="24.673" x2="24.673" y1="14.001" y2="22.001" gradientUnits="userSpaceOnUse"><stop stop-color="#40C1FF"/><stop offset="1" stop-color="#4FF4FF"/></linearGradient><linearGradient id="f1385idj" x1="29.341" x2="29.341" y1="14.001" y2="22.001" gradientUnits="userSpaceOnUse"><stop stop-color="#40C1FF"/><stop offset="1" stop-color="#4FF4FF"/></linearGradient><linearGradient id="f1385idk" x1="12.166" x2="24.751" y1="12.724" y2="12.724" gradientUnits="userSpaceOnUse"><stop stop-color="#FED956"/><stop offset="1" stop-color="#FED956" stop-opacity="0"/></linearGradient><filter id="f1385idl" width="25.656" height="13.349" x="4.778" y="17.398" color-interpolation-filters="sRGB" filterUnits="userSpaceOnUse"><feFlood flood-opacity="0" result="BackgroundImageFix"/><feBlend in="SourceGraphic" in2="BackgroundImageFix" result="shape"/><feGaussianBlur result="effect1_foregroundBlur_18_9634" stdDeviation=".75"/></filter><filter id="f1385idm" width="4.2" height="4.2" x="12.495" y="25.801" color-interpolation-filters="sRGB" filterUnits="userSpaceOnUse"><feFlood flood-opacity="0" result="BackgroundImageFix"/><feBlend in="SourceGraphic" in2="BackgroundImageFix" result="shape"/><feColorMatrix in="SourceAlpha" result="hardAlpha" values="0 0 0 0 0 0 0 0 0 0 0 0 0 0 0 0 0 0 127 0"/><feOffset dx=".2" dy="-.2"/><feGaussianBlur stdDeviation=".125"/><feComposite in2="hardAlpha" k2="-1" k3="1" operator="arithmetic"/><feColorMatrix values="0 0 0 0 0.34902 0 0 0 0 0.309804 0 0 0 0 0.384314 0 0 0 1 0"/><feBlend in2="shape" result="effect1_innerShadow_18_9634"/></filter><filter id="f1385idn" width="4.2" height="4.2" x="18.015" y="25.801" color-interpolation-filters="sRGB" filterUnits="userSpaceOnUse"><feFlood flood-opacity="0" result="BackgroundImageFix"/><feBlend in="SourceGraphic" in2="BackgroundImageFix" result="shape"/><feColorMatrix in="SourceAlpha" result="hardAlpha" values="0 0 0 0 0 0 0 0 0 0 0 0 0 0 0 0 0 0 127 0"/><feOffset dx=".2" dy="-.2"/><feGaussianBlur stdDeviation=".125"/><feComposite in2="hardAlpha" k2="-1" k3="1" operator="arithmetic"/><feColorMatrix values="0 0 0 0 0.341176 0 0 0 0 0.270588 0 0 0 0 0.392157 0 0 0 1 0"/><feBlend in2="shape" result="effect1_innerShadow_18_9634"/></filter><filter id="f1385ido" width="3.113" height="1.5" x="13.632" y="27.305" color-interpolation-filters="sRGB" filterUnits="userSpaceOnUse"><feFlood flood-opacity="0" result="BackgroundImageFix"/><feBlend in="SourceGraphic" in2="BackgroundImageFix" result="shape"/><feGaussianBlur result="effect1_foregroundBlur_18_9634" stdDeviation=".125"/></filter><filter id="f1385idp" width="2.068" height="1.3" x="17.946" y="27.405" color-interpolation-filters="sRGB" filterUnits="userSpaceOnUse"><feFlood flood-opacity="0" result="BackgroundImageFix"/><feBlend in="SourceGraphic" in2="BackgroundImageFix" result="shape"/><feGaussianBlur result="effect1_foregroundBlur_18_9634" stdDeviation=".075"/></filter><filter id="f1385idq" width="2.2" height="4.2" x="28.015" y="25.801" color-interpolation-filters="sRGB" filterUnits="userSpaceOnUse"><feFlood flood-opacity="0" result="BackgroundImageFix"/><feBlend in="SourceGraphic" in2="BackgroundImageFix" result="shape"/><feColorMatrix in="SourceAlpha" result="hardAlpha" values="0 0 0 0 0 0 0 0 0 0 0 0 0 0 0 0 0 0 127 0"/><feOffset dx=".2" dy="-.2"/><feGaussianBlur stdDeviation=".125"/><feComposite in2="hardAlpha" k2="-1" k3="1" operator="arithmetic"/><feColorMatrix values="0 0 0 0 0.298039 0 0 0 0 0.243137 0 0 0 0 0.309804 0 0 0 1 0"/><feBlend in2="shape" result="effect1_innerShadow_18_9634"/></filter><filter id="f1385idr" width="6" height="1" x="14.015" y="27.501" color-interpolation-filters="sRGB" filterUnits="userSpaceOnUse"><feFlood flood-opacity="0" result="BackgroundImageFix"/><feBlend in="SourceGraphic" in2="BackgroundImageFix" result="shape"/><feColorMatrix in="SourceAlpha" result="hardAlpha" values="0 0 0 0 0 0 0 0 0 0 0 0 0 0 0 0 0 0 127 0"/><feOffset/><feGaussianBlur stdDeviation=".15"/><feComposite in2="hardAlpha" k2="-1" k3="1" operator="arithmetic"/><feColorMatrix values="0 0 0 0 0.423529 0 0 0 0 0.341176 0 0 0 0 0.470588 0 0 0 1 0"/><feBlend in2="shape" result="effect1_innerShadow_18_9634"/></filter><filter id="f1385ids" width="19.6" height="17.586" x="11.015" y="10.415" color-interpolation-filters="sRGB" filterUnits="userSpaceOnUse"><feFlood flood-opacity="0" result="BackgroundImageFix"/><feBlend in="SourceGraphic" in2="BackgroundImageFix" result="shape"/><feColorMatrix in="SourceAlpha" result="hardAlpha" values="0 0 0 0 0 0 0 0 0 0 0 0 0 0 0 0 0 0 127 0"/><feOffset dx=".6" dy="-.6"/><feGaussianBlur stdDeviation=".3"/><feComposite in2="hardAlpha" k2="-1" k3="1" operator="arithmetic"/><feColorMatrix values="0 0 0 0 0 0 0 0 0 0 0 0 0 0 0 0 0 0 0.25 0"/><feBlend in2="shape" result="effect1_innerShadow_18_9634"/></filter><filter id="f1385idt" width="3.01" height="9" x="11.015" y="14.001" color-interpolation-filters="sRGB" filterUnits="userSpaceOnUse"><feFlood flood-opacity="0" result="BackgroundImageFix"/><feBlend in="SourceGraphic" in2="BackgroundImageFix" result="shape"/><feColorMatrix in="SourceAlpha" result="hardAlpha" values="0 0 0 0 0 0 0 0 0 0 0 0 0 0 0 0 0 0 127 0"/><feOffset dy="1"/><feGaussianBlur stdDeviation=".75"/><feComposite in2="hardAlpha" k2="-1" k3="1" operator="arithmetic"/><feColorMatrix values="0 0 0 0 0.109804 0 0 0 0 0.517647 0 0 0 0 0.85098 0 0 0 1 0"/><feBlend in2="shape" result="effect1_innerShadow_18_9634"/></filter><filter id="f1385idu" width="4.49" height="8.5" x="15.515" y="14.001" color-interpolation-filters="sRGB" filterUnits="userSpaceOnUse"><feFlood flood-opacity="0" result="BackgroundImageFix"/><feBlend in="SourceGraphic" in2="BackgroundImageFix" result="shape"/><feColorMatrix in="SourceAlpha" result="hardAlpha" values="0 0 0 0 0 0 0 0 0 0 0 0 0 0 0 0 0 0 127 0"/><feOffset dx="-.5" dy=".5"/><feGaussianBlur stdDeviation=".6"/><feComposite in2="hardAlpha" k2="-1" k3="1" operator="arithmetic"/><feColorMatrix values="0 0 0 0 0.117647 0 0 0 0 0.552941 0 0 0 0 0.941176 0 0 0 1 0"/><feBlend in2="shape" result="effect1_innerShadow_18_9634"/></filter><filter id="f1385idv" width="4.49" height="8.5" x="21.515" y="14.001" color-interpolation-filters="sRGB" filterUnits="userSpaceOnUse"><feFlood flood-opacity="0" result="BackgroundImageFix"/><feBlend in="SourceGraphic" in2="BackgroundImageFix" result="shape"/><feColorMatrix in="SourceAlpha" result="hardAlpha" values="0 0 0 0 0 0 0 0 0 0 0 0 0 0 0 0 0 0 127 0"/><feOffset dx="-.5" dy=".5"/><feGaussianBlur stdDeviation=".6"/><feComposite in2="hardAlpha" k2="-1" k3="1" operator="arithmetic"/><feColorMatrix values="0 0 0 0 0.117647 0 0 0 0 0.552941 0 0 0 0 0.941176 0 0 0 1 0"/><feBlend in2="shape" result="effect1_innerShadow_18_9634"/></filter><filter id="f1385idw" width="1.99" height="8.5" x="28.015" y="14.001" color-interpolation-filters="sRGB" filterUnits="userSpaceOnUse"><feFlood flood-opacity="0" result="BackgroundImageFix"/><feBlend in="SourceGraphic" in2="BackgroundImageFix" result="shape"/><feColorMatrix in="SourceAlpha" result="hardAlpha" values="0 0 0 0 0 0 0 0 0 0 0 0 0 0 0 0 0 0 127 0"/><feOffset dy=".5"/><feGaussianBlur stdDeviation=".6"/><feComposite in2="hardAlpha" k2="-1" k3="1" operator="arithmetic"/><feColorMatrix values="0 0 0 0 0.117647 0 0 0 0 0.552941 0 0 0 0 0.941176 0 0 0 1 0"/><feBlend in2="shape" result="effect1_innerShadow_18_9634"/></filter><filter id="f1385idx" width="18.202" height="1.6" x="11.071" y="10.924" color-interpolation-filters="sRGB" filterUnits="userSpaceOnUse"><feFlood flood-opacity="0" result="BackgroundImageFix"/><feBlend in="SourceGraphic" in2="BackgroundImageFix" result="shape"/><feGaussianBlur result="effect1_foregroundBlur_18_9634" stdDeviation=".3"/></filter><radialGradient id="f1385idy" cx="0" cy="0" r="1" gradientTransform="matrix(2.2334 10.05033 -4.10412 .91203 11.986 18.674)" gradientUnits="userSpaceOnUse"><stop offset=".284" stop-color="#205845"/><stop offset="1" stop-color="#205845" stop-opacity="0"/></radialGradient><radialGradient id="f1385idz" cx="0" cy="0" r="1" gradientTransform="matrix(5.18722 0 0 .60043 14.823 27.999)" gradientUnits="userSpaceOnUse"><stop stop-color="#CFB6D9"/><stop offset="1" stop-color="#A28DAD"/></radialGradient><radialGradient id="f1385id10" cx="0" cy="0" r="1" gradientTransform="matrix(0 -8.0868 1.69368 0 16.316 22.89)" gradientUnits="userSpaceOnUse"><stop stop-color="#5AFFFF"/><stop offset="1" stop-color="#5AFFFF" stop-opacity="0"/></radialGradient><radialGradient id="f1385id11" cx="0" cy="0" r="1" gradientTransform="matrix(0 -8.0868 1.69368 0 22.316 22.89)" gradientUnits="userSpaceOnUse"><stop stop-color="#5AFFFF"/><stop offset="1" stop-color="#5AFFFF" stop-opacity="0"/></radialGradient><radialGradient id="f1385id12" cx="0" cy="0" r="1" gradientTransform="matrix(0 -8.0868 .84472 0 28.165 22.89)" gradientUnits="userSpaceOnUse"><stop stop-color="#5AFFFF"/><stop offset="1" stop-color="#5AFFFF" stop-opacity="0"/></radialGradient><radialGradient id="f1385id13" cx="0" cy="0" r="1" gradientTransform="matrix(-1.25738 0 0 -6.1856 30.267 18.15)" gradientUnits="userSpaceOnUse"><stop offset=".234" stop-color="#4DD8FF"/><stop offset="1" stop-color="#4DD8FF" stop-opacity="0"/></radialGradient><radialGradient id="f1385id14" cx="0" cy="0" r="1" gradientTransform="matrix(1.56502 0 0 1.02944 12.005 24.5)" gradientUnits="userSpaceOnUse"><stop stop-color="#FF8437"/><stop offset="1" stop-color="#F6483A"/></radialGradient><radialGradient id="f1385id15" cx="0" cy="0" r="1" gradientTransform="matrix(2.13501 0 0 1.1707 11.87 24.5)" gradientUnits="userSpaceOnUse"><stop offset=".717" stop-color="#D4221B" stop-opacity="0"/><stop offset="1" stop-color="#D4221B"/></radialGradient></defs></g></svg>