<svg xmlns="http://www.w3.org/2000/svg" width="1em" height="1em" viewBox="0 0 32 32"><g fill="none"><path stroke="url(#f1459idc)" stroke-linecap="round" stroke-linejoin="round" stroke-miterlimit="10" stroke-width="3" d="M28 27.94L3 3"/><path fill="url(#f1459idd)" d="m3.51 7.35l1.89 7.06c.62 2.33 3.54 3.11 5.24 1.4l5.17-5.17c1.71-1.71.92-4.62-1.4-5.24L7.35 3.51c-2.33-.62-4.46 1.51-3.84 3.84"/><path fill="url(#f1459id0)" d="m3.51 7.35l1.89 7.06c.62 2.33 3.54 3.11 5.24 1.4l5.17-5.17c1.71-1.71.92-4.62-1.4-5.24L7.35 3.51c-2.33-.62-4.46 1.51-3.84 3.84"/><g filter="url(#f1459id7)"><path fill="#4F3D81" d="m5.55 8.196l1.302 4.862c.427 1.605 2.438 2.143 3.61.965l3.56-3.561c1.178-1.178.634-3.182-.964-3.61l-4.863-1.3C6.59 5.124 5.123 6.59 5.55 8.196"/></g><g filter="url(#f1459id8)"><path fill="#30143D" d="M15.875 10.125c-2.687 0-6.062 2.5-6.062 5.906c2.156.938 4.812 1.407 6.062 0c1.25-1.406 2.25-3.75 0-5.906"/></g><path fill="url(#f1459id1)" d="M16.78 23.63a6.85 6.85 0 1 0 0-13.7a6.85 6.85 0 0 0 0 13.7"/><path fill="url(#f1459id2)" d="M16.78 23.63a6.85 6.85 0 1 0 0-13.7a6.85 6.85 0 0 0 0 13.7"/><g filter="url(#f1459id9)"><path fill="#C26454" d="m16.573 22.993l6.45-6.45c1.477.3 1.696 3.363-.21 5.27c-3.047 3.046-6.047 2.562-6.24 1.18"/></g><path fill="url(#f1459ide)" d="m28.4 21.95l-6.45 6.45a3.664 3.664 0 0 1-5.18-5.18l6.45-6.45a3.664 3.664 0 0 1 5.18 5.18"/><path fill="url(#f1459id3)" d="m28.4 21.95l-6.45 6.45a3.664 3.664 0 0 1-5.18-5.18l6.45-6.45a3.664 3.664 0 0 1 5.18 5.18"/><path fill="url(#f1459id4)" d="m28.4 21.95l-6.45 6.45a3.664 3.664 0 0 1-5.18-5.18l6.45-6.45a3.664 3.664 0 0 1 5.18 5.18"/><path fill="url(#f1459id5)" d="m28.4 21.95l-6.45 6.45a3.664 3.664 0 0 1-5.18-5.18l6.45-6.45a3.664 3.664 0 0 1 5.18 5.18"/><path fill="url(#f1459id6)" d="m28.4 21.95l-6.45 6.45a3.664 3.664 0 0 1-5.18-5.18l6.45-6.45a3.664 3.664 0 0 1 5.18 5.18"/><path stroke="url(#f1459idf)" stroke-linecap="round" stroke-linejoin="round" stroke-miterlimit="10" stroke-width="3" d="m28 27.94l-3.4-3.39"/><g filter="url(#f1459ida)"><path stroke="#8C7FCF" stroke-linecap="round" stroke-width=".5" d="M5.875 5.312c.042-.104.3-.25 1 0s5.375 1.605 7.625 2.25"/></g><g filter="url(#f1459idb)"><ellipse cx="15" cy="7.562" fill="#6E65A3" rx="1" ry="1.219" transform="rotate(-17.403 15 7.562)"/></g><defs><radialGradient id="f1459id0" cx="0" cy="0" r="1" gradientTransform="matrix(-1.12502 5.0625 -5.06152 -1.1248 8 17.063)" gradientUnits="userSpaceOnUse"><stop stop-color="#4C2E6E"/><stop offset="1" stop-color="#503372" stop-opacity="0"/></radialGradient><radialGradient id="f1459id1" cx="0" cy="0" r="1" gradientTransform="rotate(163.142 9.746 8.15)scale(10.7756)" gradientUnits="userSpaceOnUse"><stop offset=".109" stop-color="#FFCEB9"/><stop offset=".619" stop-color="#DD9490"/><stop offset="1" stop-color="#A06866"/></radialGradient><radialGradient id="f1459id2" cx="0" cy="0" r="1" gradientTransform="rotate(106.243 -1.815 16.611)scale(8.2675)" gradientUnits="userSpaceOnUse"><stop stop-color="#C56E96"/><stop offset="1" stop-color="#F1A1C4" stop-opacity="0"/></radialGradient><radialGradient id="f1459id3" cx="0" cy="0" r="1" gradientTransform="rotate(73.034 1.813 27.866)scale(3.85529)" gradientUnits="userSpaceOnUse"><stop stop-color="#FFE"/><stop offset=".527" stop-color="#FCEED2"/><stop offset="1" stop-color="#F5E2CD" stop-opacity="0"/></radialGradient><radialGradient id="f1459id4" cx="0" cy="0" r="1" gradientTransform="matrix(5.9375 1.75 -1.24769 4.23323 18.188 29.875)" gradientUnits="userSpaceOnUse"><stop stop-color="#D998B6"/><stop offset="1" stop-color="#DD9BB2" stop-opacity="0"/></radialGradient><radialGradient id="f1459id5" cx="0" cy="0" r="1" gradientTransform="rotate(105.888 1.83 22.334)scale(4.48379 2.13703)" gradientUnits="userSpaceOnUse"><stop offset=".279" stop-color="#D597A2"/><stop offset="1" stop-color="#D798A3" stop-opacity="0"/></radialGradient><radialGradient id="f1459id6" cx="0" cy="0" r="1" gradientTransform="matrix(-1.63504 6.4375 -3.7333 -.9482 15.697 24.25)" gradientUnits="userSpaceOnUse"><stop stop-color="#BC997F"/><stop offset="1" stop-color="#D5AF96" stop-opacity="0"/></radialGradient><filter id="f1459id7" width="12.181" height="12.183" x="3.975" y="3.976" color-interpolation-filters="sRGB" filterUnits="userSpaceOnUse"><feFlood flood-opacity="0" result="BackgroundImageFix"/><feBlend in="SourceGraphic" in2="BackgroundImageFix" result="shape"/><feGaussianBlur result="effect1_foregroundBlur_18_29625" stdDeviation=".75"/></filter><filter id="f1459id8" width="9.401" height="8.794" x="8.813" y="9.125" color-interpolation-filters="sRGB" filterUnits="userSpaceOnUse"><feFlood flood-opacity="0" result="BackgroundImageFix"/><feBlend in="SourceGraphic" in2="BackgroundImageFix" result="shape"/><feGaussianBlur result="effect1_foregroundBlur_18_29625" stdDeviation=".5"/></filter><filter id="f1459id9" width="9.614" height="9.531" x="15.572" y="15.543" color-interpolation-filters="sRGB" filterUnits="userSpaceOnUse"><feFlood flood-opacity="0" result="BackgroundImageFix"/><feBlend in="SourceGraphic" in2="BackgroundImageFix" result="shape"/><feGaussianBlur result="effect1_foregroundBlur_18_29625" stdDeviation=".5"/></filter><filter id="f1459ida" width="13.125" height="6.888" x="3.625" y="2.924" color-interpolation-filters="sRGB" filterUnits="userSpaceOnUse"><feFlood flood-opacity="0" result="BackgroundImageFix"/><feBlend in="SourceGraphic" in2="BackgroundImageFix" result="shape"/><feGaussianBlur result="effect1_foregroundBlur_18_29625" stdDeviation="1"/></filter><filter id="f1459idb" width="5.044" height="5.402" x="12.478" y="4.861" color-interpolation-filters="sRGB" filterUnits="userSpaceOnUse"><feFlood flood-opacity="0" result="BackgroundImageFix"/><feBlend in="SourceGraphic" in2="BackgroundImageFix" result="shape"/><feGaussianBlur result="effect1_foregroundBlur_18_29625" stdDeviation=".75"/></filter><linearGradient id="f1459idc" x1="3" x2="5.375" y1="5.063" y2="2.688" gradientUnits="userSpaceOnUse"><stop stop-color="#A96E55"/><stop offset=".5" stop-color="#DBA579"/><stop offset=".994" stop-color="#FFD59E"/></linearGradient><linearGradient id="f1459idd" x1="3.875" x2="16.25" y1="11.125" y2="6.125" gradientUnits="userSpaceOnUse"><stop offset=".016" stop-color="#4A3E60"/><stop offset=".183" stop-color="#422B69"/><stop offset=".585" stop-color="#595295"/></linearGradient><linearGradient id="f1459ide" x1="20.063" x2="25.469" y1="19.688" y2="25.094" gradientUnits="userSpaceOnUse"><stop offset=".006" stop-color="#D1AE93"/><stop offset=".22" stop-color="#DEC6B5"/><stop offset=".549" stop-color="#F5D3C9"/><stop offset=".871" stop-color="#F9D9CC"/><stop offset="1" stop-color="#E2C4C2"/></linearGradient><linearGradient id="f1459idf" x1="27.363" x2="25.238" y1="25.179" y2="27.305" gradientUnits="userSpaceOnUse"><stop stop-color="#FFD6A1"/><stop offset=".251" stop-color="#FFD6A1"/><stop offset=".574" stop-color="#EAAA86"/><stop offset=".994" stop-color="#C1706A"/></linearGradient></defs></g></svg>