<svg xmlns="http://www.w3.org/2000/svg" width="1em" height="1em" viewBox="0 0 32 32"><g fill="none"><g filter="url(#f1481idn)"><path fill="url(#f1481id14)" d="M24.954 21.246a3.152 3.152 0 1 0 0-6.303a3.152 3.152 0 0 0 0 6.303"/><path fill="url(#f1481id0)" d="M24.954 21.246a3.152 3.152 0 1 0 0-6.303a3.152 3.152 0 0 0 0 6.303"/></g><g filter="url(#f1481ido)"><path fill="#7A5654" d="M24.954 20.09a1.995 1.995 0 1 0 0-3.99a1.995 1.995 0 0 0 0 3.99"/><path fill="url(#f1481id1)" d="M24.954 20.09a1.995 1.995 0 1 0 0-3.99a1.995 1.995 0 0 0 0 3.99"/><path fill="url(#f1481id2)" d="M24.954 20.09a1.995 1.995 0 1 0 0-3.99a1.995 1.995 0 0 0 0 3.99"/></g><g filter="url(#f1481idp)"><path fill="url(#f1481id3)" d="M7.218 21.246a3.152 3.152 0 1 0 0-6.303a3.152 3.152 0 0 0 0 6.303"/></g><g filter="url(#f1481idq)"><path fill="url(#f1481id15)" d="M7.218 20.09a1.995 1.995 0 1 0 0-3.99a1.995 1.995 0 0 0 0 3.99"/></g><g filter="url(#f1481idr)"><path fill="url(#f1481id4)" d="M15.27 4.505c-5.2 0-9.2 4.4-8.9 9.5l.8 10.4c.3 3.3 2.8 5.6 6 5.6h6c3.1 0 5.7-2.3 6-5.6l.7-10.4c.4-5.2-3.7-9.5-8.9-9.5z"/><path fill="url(#f1481id5)" d="M15.27 4.505c-5.2 0-9.2 4.4-8.9 9.5l.8 10.4c.3 3.3 2.8 5.6 6 5.6h6c3.1 0 5.7-2.3 6-5.6l.7-10.4c.4-5.2-3.7-9.5-8.9-9.5z"/><path fill="url(#f1481id6)" d="M15.27 4.505c-5.2 0-9.2 4.4-8.9 9.5l.8 10.4c.3 3.3 2.8 5.6 6 5.6h6c3.1 0 5.7-2.3 6-5.6l.7-10.4c.4-5.2-3.7-9.5-8.9-9.5z"/><path fill="url(#f1481id7)" d="M15.27 4.505c-5.2 0-9.2 4.4-8.9 9.5l.8 10.4c.3 3.3 2.8 5.6 6 5.6h6c3.1 0 5.7-2.3 6-5.6l.7-10.4c.4-5.2-3.7-9.5-8.9-9.5z"/><path fill="url(#f1481id8)" d="M15.27 4.505c-5.2 0-9.2 4.4-8.9 9.5l.8 10.4c.3 3.3 2.8 5.6 6 5.6h6c3.1 0 5.7-2.3 6-5.6l.7-10.4c.4-5.2-3.7-9.5-8.9-9.5z"/><path fill="url(#f1481id9)" d="M15.27 4.505c-5.2 0-9.2 4.4-8.9 9.5l.8 10.4c.3 3.3 2.8 5.6 6 5.6h6c3.1 0 5.7-2.3 6-5.6l.7-10.4c.4-5.2-3.7-9.5-8.9-9.5z"/><path fill="url(#f1481ida)" d="M15.27 4.505c-5.2 0-9.2 4.4-8.9 9.5l.8 10.4c.3 3.3 2.8 5.6 6 5.6h6c3.1 0 5.7-2.3 6-5.6l.7-10.4c.4-5.2-3.7-9.5-8.9-9.5z"/><path fill="url(#f1481idb)" d="M15.27 4.505c-5.2 0-9.2 4.4-8.9 9.5l.8 10.4c.3 3.3 2.8 5.6 6 5.6h6c3.1 0 5.7-2.3 6-5.6l.7-10.4c.4-5.2-3.7-9.5-8.9-9.5z"/></g><path fill="url(#f1481idc)" d="M15.27 4.505c-5.2 0-9.2 4.4-8.9 9.5l.8 10.4c.3 3.3 2.8 5.6 6 5.6h6c3.1 0 5.7-2.3 6-5.6l.7-10.4c.4-5.2-3.7-9.5-8.9-9.5z"/><g filter="url(#f1481ids)"><path fill="url(#f1481id16)" d="m24.11 8.575l-5.739 1.914a1.953 1.953 0 0 0 .877 3.788l5.706-.764z"/></g><g filter="url(#f1481idt)"><path fill="#71404A" d="m15.638 17.89l-1.571 3.1c-.2.6.3 1.3.9 1.3h1.4c.7 0 1.1-.6.9-1.3l-.9-3.1c-.227-.655-.429-.7-.729 0"/></g><g filter="url(#f1481idu)"><path fill="#8C5F5E" d="m15.567 17.614l-1 3.1c-.2.6.3 1.3.9 1.3h1.4c.7 0 1.1-.6.9-1.3l-.956-3.1c-.226-.655-.944-.7-1.244 0"/><path fill="url(#f1481id17)" d="m15.567 17.614l-1 3.1c-.2.6.3 1.3.9 1.3h1.4c.7 0 1.1-.6.9-1.3l-.956-3.1c-.226-.655-.944-.7-1.244 0"/><path fill="url(#f1481id18)" d="m15.567 17.614l-1 3.1c-.2.6.3 1.3.9 1.3h1.4c.7 0 1.1-.6.9-1.3l-.956-3.1c-.226-.655-.944-.7-1.244 0"/><path fill="url(#f1481id19)" d="m15.567 17.614l-1 3.1c-.2.6.3 1.3.9 1.3h1.4c.7 0 1.1-.6.9-1.3l-.956-3.1c-.226-.655-.944-.7-1.244 0"/><path fill="url(#f1481idd)" d="m15.567 17.614l-1 3.1c-.2.6.3 1.3.9 1.3h1.4c.7 0 1.1-.6.9-1.3l-.956-3.1c-.226-.655-.944-.7-1.244 0"/></g><path fill="#7F7680" d="M8.356 11.554a2 2 0 1 0-3.245-1.26l.407 5.714c.04.562.508.99 1.072.99v-3.52a1 1 0 0 1 .366-.773l1.403-1.15z"/><path fill="url(#f1481ide)" d="M8.356 11.554a2 2 0 1 0-3.245-1.26l.407 5.714c.04.562.508.99 1.072.99v-3.52a1 1 0 0 1 .366-.773l1.403-1.15z"/><path fill="url(#f1481idf)" d="M8.356 11.554a2 2 0 1 0-3.245-1.26l.407 5.714c.04.562.508.99 1.072.99v-3.52a1 1 0 0 1 .366-.773l1.403-1.15z"/><g filter="url(#f1481idv)"><path fill="#9F9AA1" d="M23.904 11.554a2 2 0 1 1 3.246-1.26l-.409 5.714c-.04.562-.508.997-1.071.997V13.48a1 1 0 0 0-.366-.774l-1.403-1.15z"/><path fill="url(#f1481idg)" d="M23.904 11.554a2 2 0 1 1 3.246-1.26l-.409 5.714c-.04.562-.508.997-1.071.997V13.48a1 1 0 0 0-.366-.774l-1.403-1.15z"/><path fill="url(#f1481idh)" d="M23.904 11.554a2 2 0 1 1 3.246-1.26l-.409 5.714c-.04.562-.508.997-1.071.997V13.48a1 1 0 0 0-.366-.774l-1.403-1.15z"/><path fill="url(#f1481idi)" d="M23.904 11.554a2 2 0 1 1 3.246-1.26l-.409 5.714c-.04.562-.508.997-1.071.997V13.48a1 1 0 0 0-.366-.774l-1.403-1.15z"/></g><path fill="#88014F" stroke="url(#f1481id1a)" stroke-width=".1" d="M13.61 23.182a.335.335 0 0 0-.4.069a.305.305 0 0 0-.034.393a3.58 3.58 0 0 0 2.994 1.599a3.58 3.58 0 0 0 2.994-1.6a.31.31 0 0 0-.034-.396a.336.336 0 0 0-.4-.066a5.524 5.524 0 0 1-2.56.607c-.938 0-1.82-.22-2.56-.606Z"/><path fill="#875A52" d="M18.11 18.79a.5.5 0 0 1 .706.038c.195.218.377.37.612.474c.24.106.575.18 1.095.18a.5.5 0 0 1 0 1c-.612 0-1.094-.087-1.499-.265c-.409-.181-.701-.44-.954-.722a.5.5 0 0 1 .04-.706"/><path fill="#6D4844" d="M13.335 18.817a.5.5 0 0 1 .724.69h-.001l-.002.002l-.004.004l-.011.012a1.775 1.775 0 0 1-.169.15a3.562 3.562 0 0 1-2.255.806a.5.5 0 1 1 0-1a2.561 2.561 0 0 0 1.718-.665"/><rect width="6" height="1" x="13.17" y="7.149" fill="url(#f1481id1b)" rx=".5"/><rect width="10" height="1" x="11.126" y="9.528" fill="url(#f1481id1c)" rx=".5"/><path fill="#fff" d="M11.632 15.596c-1.218 0-2.246.84-2.526 1.974a.511.511 0 0 0 .499.635h4.16a.43.43 0 0 0 .423-.506a2.612 2.612 0 0 0-2.556-2.103"/><path fill="url(#f1481idj)" d="M12.018 16.103a1.664 1.664 0 0 0-1.604 2.102h3.215c.037-.143.06-.287.06-.438a1.675 1.675 0 0 0-1.671-1.665"/><path fill="#000" d="M12.97 17.767a.949.949 0 0 0-.952-.953a.95.95 0 0 0-.953.953c0 .159.037.31.106.438h1.686a.946.946 0 0 0 .114-.438"/><g filter="url(#f1481idw)"><path fill="url(#f1481id1d)" d="M13.538 17.571c0-.538-.437-.896-.556-1.004l-.537.52l.33.673z"/></g><g filter="url(#f1481idx)"><ellipse cx="11.516" cy="16.814" fill="#C7A7A3" fill-opacity=".9" rx=".726" ry=".368" transform="rotate(-27.914 11.516 16.814)"/><ellipse cx="11.516" cy="16.814" fill="url(#f1481idk)" rx=".726" ry=".368" transform="rotate(-27.914 11.516 16.814)"/></g><path fill="#fff" d="M20.547 15.596c1.218 0 2.247.84 2.526 1.974a.511.511 0 0 1-.499.635h-4.16a.43.43 0 0 1-.423-.506a2.606 2.606 0 0 1 2.556-2.103"/><path fill="url(#f1481idl)" d="M20.162 16.103a1.664 1.664 0 0 1 1.603 2.102h-3.214a1.706 1.706 0 0 1-.06-.438a1.67 1.67 0 0 1 1.67-1.664"/><path fill="#000" d="M19.209 17.767c0-.53.423-.953.953-.953s.953.423.953.953c0 .159-.038.31-.106.438h-1.687a.862.862 0 0 1-.113-.438"/><g filter="url(#f1481idy)"><path fill="#C7A7A3" d="M20.04 16.454c.118.159-.13.352-.412.563c-.282.21-.49.359-.609.2c-.119-.158.014-.458.296-.668c.281-.21.606-.253.724-.095"/><path fill="url(#f1481idm)" d="M20.04 16.454c.118.159-.13.352-.412.563c-.282.21-.49.359-.609.2c-.119-.158.014-.458.296-.668c.281-.21.606-.253.724-.095"/></g><g filter="url(#f1481idz)"><path fill="url(#f1481id1e)" d="M21.644 17.548a1.567 1.567 0 0 0-.432-.863l-.484.532l.218.425z"/></g><g filter="url(#f1481id10)"><path stroke="#8A8A8A" stroke-linecap="round" stroke-width="1.75" d="M19.389 13.005c.71-.093 2.086-.078 3.164.813"/></g><g filter="url(#f1481id11)"><path stroke="url(#f1481id1f)" stroke-linecap="round" stroke-width=".4" d="M19.389 12.7c.883-.07 2.195.04 3.258.844"/></g><g filter="url(#f1481id12)"><path stroke="#8A8A8A" stroke-linecap="round" stroke-width="1.75" d="M12.951 13.005c-.71-.093-2.086-.078-3.164.813"/></g><g filter="url(#f1481id13)"><path stroke="url(#f1481id1g)" stroke-linecap="round" stroke-width=".4" d="M12.951 12.7c-.883-.07-2.195.04-3.258.844"/></g><defs><radialGradient id="f1481id0" cx="0" cy="0" r="1" gradientTransform="rotate(-36.06 39.855 -30.613)scale(1.93052 2.20343)" gradientUnits="userSpaceOnUse"><stop offset=".543" stop-color="#7C524C"/><stop offset="1" stop-color="#7C524C" stop-opacity="0"/></radialGradient><radialGradient id="f1481id1" cx="0" cy="0" r="1" gradientTransform="matrix(1.64694 -3.0292 1.773 .96396 24.87 19.741)" gradientUnits="userSpaceOnUse"><stop offset=".755" stop-color="#73443E" stop-opacity="0"/><stop offset=".916" stop-color="#73443E"/></radialGradient><radialGradient id="f1481id2" cx="0" cy="0" r="1" gradientTransform="matrix(.51997 .5147 -.66351 .67031 24.954 18.094)" gradientUnits="userSpaceOnUse"><stop stop-color="#6C443E"/><stop offset="1" stop-color="#6C443E" stop-opacity="0"/></radialGradient><radialGradient id="f1481id3" cx="0" cy="0" r="1" gradientTransform="matrix(3.31277 0 0 5.79738 4.067 18.094)" gradientUnits="userSpaceOnUse"><stop offset=".351" stop-color="#664249"/><stop offset="1" stop-color="#613641"/></radialGradient><radialGradient id="f1481id4" cx="0" cy="0" r="1" gradientTransform="rotate(152.026 9.333 10.293)scale(17.0552 31.3253)" gradientUnits="userSpaceOnUse"><stop stop-color="#9B6C5F"/><stop offset="1" stop-color="#74494D"/></radialGradient><radialGradient id="f1481id5" cx="0" cy="0" r="1" gradientTransform="rotate(158.66 12.363 6.765)scale(9.9616 12.7935)" gradientUnits="userSpaceOnUse"><stop stop-color="#9D7A6A"/><stop offset="1" stop-color="#9D7A6A" stop-opacity="0"/></radialGradient><radialGradient id="f1481id6" cx="0" cy="0" r="1" gradientTransform="matrix(0 -2.625 3.09375 0 20.935 15.787)" gradientUnits="userSpaceOnUse"><stop stop-color="#855254"/><stop offset="1" stop-color="#855254" stop-opacity="0"/></radialGradient><radialGradient id="f1481id7" cx="0" cy="0" r="1" gradientTransform="rotate(-90 13.909 2.159)scale(3.3125)" gradientUnits="userSpaceOnUse"><stop offset=".172" stop-color="#6F404D"/><stop offset="1" stop-color="#6F404D" stop-opacity="0"/></radialGradient><radialGradient id="f1481id8" cx="0" cy="0" r="1" gradientTransform="matrix(-2.35307 -1.63196 1.28997 -1.85996 24.971 10.352)" gradientUnits="userSpaceOnUse"><stop offset=".584" stop-color="#764838"/><stop offset="1" stop-color="#764838" stop-opacity="0"/></radialGradient><radialGradient id="f1481id9" cx="0" cy="0" r="1" gradientTransform="rotate(127.136 .708 7.006)scale(2.8667 2.49422)" gradientUnits="userSpaceOnUse"><stop offset=".476" stop-color="#5D3734"/><stop offset="1" stop-color="#5D3734" stop-opacity="0"/></radialGradient><radialGradient id="f1481ida" cx="0" cy="0" r="1" gradientTransform="matrix(0 1.75 -4.63513 0 17.688 4.13)" gradientUnits="userSpaceOnUse"><stop stop-color="#8D7063"/><stop offset="1" stop-color="#8D7063" stop-opacity="0"/></radialGradient><radialGradient id="f1481idb" cx="0" cy="0" r="1" gradientTransform="matrix(5.50258 5.98865 -10.42381 9.57777 7.94 4.505)" gradientUnits="userSpaceOnUse"><stop stop-color="#745B51"/><stop offset="1" stop-color="#745B51" stop-opacity="0"/></radialGradient><radialGradient id="f1481idc" cx="0" cy="0" r="1" gradientTransform="matrix(0 -5.8125 26.0906 0 16.125 30.005)" gradientUnits="userSpaceOnUse"><stop stop-color="#7B406A"/><stop offset="1" stop-color="#7C4C57" stop-opacity="0"/></radialGradient><radialGradient id="f1481idd" cx="0" cy="0" r="1" gradientTransform="matrix(0 .36044 -1.11102 0 16.745 21.086)" gradientUnits="userSpaceOnUse"><stop stop-color="#976F6A"/><stop offset="1" stop-color="#976F6A" stop-opacity="0"/></radialGradient><radialGradient id="f1481ide" cx="0" cy="0" r="1" gradientTransform="rotate(139.273 2.452 6.033)scale(4.16691 7.99724)" gradientUnits="userSpaceOnUse"><stop stop-color="#BBB6B3"/><stop offset="1" stop-color="#807680" stop-opacity="0"/></radialGradient><radialGradient id="f1481idf" cx="0" cy="0" r="1" gradientTransform="matrix(0 3.04688 -.9516 0 7.09 14.85)" gradientUnits="userSpaceOnUse"><stop offset=".237" stop-color="#735551"/><stop offset="1" stop-color="#735551" stop-opacity="0"/></radialGradient><radialGradient id="f1481idg" cx="0" cy="0" r="1" gradientTransform="matrix(1.98438 -2.09375 .72837 .69032 24.622 13.287)" gradientUnits="userSpaceOnUse"><stop offset=".231" stop-color="#8F8286"/><stop offset="1" stop-color="#8F8286" stop-opacity="0"/></radialGradient><radialGradient id="f1481idh" cx="0" cy="0" r="1" gradientTransform="matrix(-1.46875 2.625 -2.01353 -1.12662 25.904 9.13)" gradientUnits="userSpaceOnUse"><stop offset=".18" stop-color="#C0BFC0"/><stop offset="1" stop-color="#C0BFC0" stop-opacity="0"/></radialGradient><radialGradient id="f1481idi" cx="0" cy="0" r="1" gradientTransform="matrix(.32886 -4.54687 .85753 .06202 26.841 16.38)" gradientUnits="userSpaceOnUse"><stop stop-color="#B1ADB0"/><stop offset="1" stop-color="#B1ADB0" stop-opacity="0"/></radialGradient><radialGradient id="f1481idj" cx="0" cy="0" r="1" gradientTransform="matrix(0 1.68433 -1.993 0 12.021 17.614)" gradientUnits="userSpaceOnUse"><stop offset=".75" stop-color="#7F584B"/><stop offset="1" stop-color="#694B43"/><stop offset="1" stop-color="#804D49"/><stop offset="1" stop-color="#5D4139"/></radialGradient><radialGradient id="f1481idk" cx="0" cy="0" r="1" gradientTransform="rotate(-90.897 14.309 3.046)scale(.92129 1.10743)" gradientUnits="userSpaceOnUse"><stop offset=".766" stop-color="#FFE6E2" stop-opacity="0"/><stop offset=".966" stop-color="#FFE6E2"/></radialGradient><radialGradient id="f1481idl" cx="0" cy="0" r="1" gradientTransform="matrix(0 1.68424 -1.9929 0 20.158 17.614)" gradientUnits="userSpaceOnUse"><stop offset=".75" stop-color="#7F584B"/><stop offset="1" stop-color="#694B43"/><stop offset="1" stop-color="#804D49"/><stop offset="1" stop-color="#5D4139"/></radialGradient><radialGradient id="f1481idm" cx="0" cy="0" r="1" gradientTransform="rotate(-127.812 14.066 3.742)scale(.70528 .97101)" gradientUnits="userSpaceOnUse"><stop offset=".766" stop-color="#FFE6E2" stop-opacity="0"/><stop offset=".966" stop-color="#FFE6E2"/></radialGradient><filter id="f1481idn" width="6.553" height="6.553" x="21.802" y="14.693" color-interpolation-filters="sRGB" filterUnits="userSpaceOnUse"><feFlood flood-opacity="0" result="BackgroundImageFix"/><feBlend in="SourceGraphic" in2="BackgroundImageFix" result="shape"/><feColorMatrix in="SourceAlpha" result="hardAlpha" values="0 0 0 0 0 0 0 0 0 0 0 0 0 0 0 0 0 0 127 0"/><feOffset dx=".25" dy="-.25"/><feGaussianBlur stdDeviation=".25"/><feComposite in2="hardAlpha" k2="-1" k3="1" operator="arithmetic"/><feColorMatrix values="0 0 0 0 0.482353 0 0 0 0 0.278431 0 0 0 0 0.372549 0 0 0 1 0"/><feBlend in2="shape" result="effect1_innerShadow_3987_20110"/></filter><filter id="f1481ido" width="4.991" height="4.991" x="22.459" y="15.599" color-interpolation-filters="sRGB" filterUnits="userSpaceOnUse"><feFlood flood-opacity="0" result="BackgroundImageFix"/><feBlend in="SourceGraphic" in2="BackgroundImageFix" result="shape"/><feGaussianBlur result="effect1_foregroundBlur_3987_20110" stdDeviation=".25"/></filter><filter id="f1481idp" width="6.503" height="6.303" x="4.067" y="14.943" color-interpolation-filters="sRGB" filterUnits="userSpaceOnUse"><feFlood flood-opacity="0" result="BackgroundImageFix"/><feBlend in="SourceGraphic" in2="BackgroundImageFix" result="shape"/><feColorMatrix in="SourceAlpha" result="hardAlpha" values="0 0 0 0 0 0 0 0 0 0 0 0 0 0 0 0 0 0 127 0"/><feOffset dx=".2"/><feGaussianBlur stdDeviation=".15"/><feComposite in2="hardAlpha" k2="-1" k3="1" operator="arithmetic"/><feColorMatrix values="0 0 0 0 0.517647 0 0 0 0 0.384314 0 0 0 0 0.34902 0 0 0 1 0"/><feBlend in2="shape" result="effect1_innerShadow_3987_20110"/></filter><filter id="f1481idq" width="4.991" height="4.991" x="4.723" y="15.599" color-interpolation-filters="sRGB" filterUnits="userSpaceOnUse"><feFlood flood-opacity="0" result="BackgroundImageFix"/><feBlend in="SourceGraphic" in2="BackgroundImageFix" result="shape"/><feGaussianBlur result="effect1_foregroundBlur_3987_20110" stdDeviation=".25"/></filter><filter id="f1481idr" width="20.793" height="25.5" x="6.104" y="4.505" color-interpolation-filters="sRGB" filterUnits="userSpaceOnUse"><feFlood flood-opacity="0" result="BackgroundImageFix"/><feBlend in="SourceGraphic" in2="BackgroundImageFix" result="shape"/><feColorMatrix in="SourceAlpha" result="hardAlpha" values="0 0 0 0 0 0 0 0 0 0 0 0 0 0 0 0 0 0 127 0"/><feOffset dx="1"/><feGaussianBlur stdDeviation=".75"/><feComposite in2="hardAlpha" k2="-1" k3="1" operator="arithmetic"/><feColorMatrix values="0 0 0 0 0.513726 0 0 0 0 0.372549 0 0 0 0 0.345098 0 0 0 1 0"/><feBlend in2="shape" result="effect1_innerShadow_3987_20110"/><feColorMatrix in="SourceAlpha" result="hardAlpha" values="0 0 0 0 0 0 0 0 0 0 0 0 0 0 0 0 0 0 127 0"/><feOffset dx="-.25"/><feGaussianBlur stdDeviation=".375"/><feComposite in2="hardAlpha" k2="-1" k3="1" operator="arithmetic"/><feColorMatrix values="0 0 0 0 0.623529 0 0 0 0 0.498039 0 0 0 0 0.439216 0 0 0 1 0"/><feBlend in2="effect1_innerShadow_3987_20110" result="effect2_innerShadow_3987_20110"/></filter><filter id="f1481ids" width="11.918" height="9.719" x="15.036" y="6.575" color-interpolation-filters="sRGB" filterUnits="userSpaceOnUse"><feFlood flood-opacity="0" result="BackgroundImageFix"/><feBlend in="SourceGraphic" in2="BackgroundImageFix" result="shape"/><feGaussianBlur result="effect1_foregroundBlur_3987_20110" stdDeviation="1"/></filter><filter id="f1481idt" width="4.796" height="6.408" x="13.272" y="16.631" color-interpolation-filters="sRGB" filterUnits="userSpaceOnUse"><feFlood flood-opacity="0" result="BackgroundImageFix"/><feBlend in="SourceGraphic" in2="BackgroundImageFix" result="shape"/><feGaussianBlur result="effect1_foregroundBlur_3987_20110" stdDeviation=".375"/></filter><filter id="f1481idu" width="3.796" height="5.408" x="14.272" y="16.855" color-interpolation-filters="sRGB" filterUnits="userSpaceOnUse"><feFlood flood-opacity="0" result="BackgroundImageFix"/><feBlend in="SourceGraphic" in2="BackgroundImageFix" result="shape"/><feGaussianBlur result="effect1_foregroundBlur_3987_20110" stdDeviation=".125"/></filter><filter id="f1481idv" width="4.3" height="9.2" x="23.17" y="7.805" color-interpolation-filters="sRGB" filterUnits="userSpaceOnUse"><feFlood flood-opacity="0" result="BackgroundImageFix"/><feBlend in="SourceGraphic" in2="BackgroundImageFix" result="shape"/><feColorMatrix in="SourceAlpha" result="hardAlpha" values="0 0 0 0 0 0 0 0 0 0 0 0 0 0 0 0 0 0 127 0"/><feOffset dx=".3" dy="-.2"/><feGaussianBlur stdDeviation=".25"/><feComposite in2="hardAlpha" k2="-1" k3="1" operator="arithmetic"/><feColorMatrix values="0 0 0 0 0.580392 0 0 0 0 0.568627 0 0 0 0 0.556863 0 0 0 1 0"/><feBlend in2="shape" result="effect1_innerShadow_3987_20110"/></filter><filter id="f1481idw" width="1.493" height="1.594" x="12.245" y="16.367" color-interpolation-filters="sRGB" filterUnits="userSpaceOnUse"><feFlood flood-opacity="0" result="BackgroundImageFix"/><feBlend in="SourceGraphic" in2="BackgroundImageFix" result="shape"/><feGaussianBlur result="effect1_foregroundBlur_3987_20110" stdDeviation=".1"/></filter><filter id="f1481idx" width="1.529" height="1.141" x="10.751" y="16.243" color-interpolation-filters="sRGB" filterUnits="userSpaceOnUse"><feFlood flood-opacity="0" result="BackgroundImageFix"/><feBlend in="SourceGraphic" in2="BackgroundImageFix" result="shape"/><feGaussianBlur result="effect1_foregroundBlur_3987_20110" stdDeviation=".05"/></filter><filter id="f1481idy" width="1.294" height="1.125" x="18.875" y="16.258" color-interpolation-filters="sRGB" filterUnits="userSpaceOnUse"><feFlood flood-opacity="0" result="BackgroundImageFix"/><feBlend in="SourceGraphic" in2="BackgroundImageFix" result="shape"/><feGaussianBlur result="effect1_foregroundBlur_3987_20110" stdDeviation=".05"/></filter><filter id="f1481idz" width="1.316" height="1.357" x="20.528" y="16.485" color-interpolation-filters="sRGB" filterUnits="userSpaceOnUse"><feFlood flood-opacity="0" result="BackgroundImageFix"/><feBlend in="SourceGraphic" in2="BackgroundImageFix" result="shape"/><feGaussianBlur result="effect1_foregroundBlur_3987_20110" stdDeviation=".1"/></filter><filter id="f1481id10" width="5.214" height="3" x="18.514" y="11.693" color-interpolation-filters="sRGB" filterUnits="userSpaceOnUse"><feFlood flood-opacity="0" result="BackgroundImageFix"/><feBlend in="SourceGraphic" in2="BackgroundImageFix" result="shape"/><feColorMatrix in="SourceAlpha" result="hardAlpha" values="0 0 0 0 0 0 0 0 0 0 0 0 0 0 0 0 0 0 127 0"/><feOffset dx=".3" dy="-.4"/><feGaussianBlur stdDeviation=".3"/><feComposite in2="hardAlpha" k2="-1" k3="1" operator="arithmetic"/><feColorMatrix values="0 0 0 0 0.345098 0 0 0 0 0.305882 0 0 0 0 0.368627 0 0 0 1 0"/><feBlend in2="shape" result="effect1_innerShadow_3987_20110"/></filter><filter id="f1481id11" width="4.458" height="2.061" x="18.789" y="12.083" color-interpolation-filters="sRGB" filterUnits="userSpaceOnUse"><feFlood flood-opacity="0" result="BackgroundImageFix"/><feBlend in="SourceGraphic" in2="BackgroundImageFix" result="shape"/><feGaussianBlur result="effect1_foregroundBlur_3987_20110" stdDeviation=".2"/></filter><filter id="f1481id12" width="5.214" height="3" x="8.912" y="11.693" color-interpolation-filters="sRGB" filterUnits="userSpaceOnUse"><feFlood flood-opacity="0" result="BackgroundImageFix"/><feBlend in="SourceGraphic" in2="BackgroundImageFix" result="shape"/><feColorMatrix in="SourceAlpha" result="hardAlpha" values="0 0 0 0 0 0 0 0 0 0 0 0 0 0 0 0 0 0 127 0"/><feOffset dx=".3" dy="-.4"/><feGaussianBlur stdDeviation=".3"/><feComposite in2="hardAlpha" k2="-1" k3="1" operator="arithmetic"/><feColorMatrix values="0 0 0 0 0.345098 0 0 0 0 0.305882 0 0 0 0 0.368627 0 0 0 1 0"/><feBlend in2="shape" result="effect1_innerShadow_3987_20110"/></filter><filter id="f1481id13" width="4.458" height="2.061" x="9.093" y="12.083" color-interpolation-filters="sRGB" filterUnits="userSpaceOnUse"><feFlood flood-opacity="0" result="BackgroundImageFix"/><feBlend in="SourceGraphic" in2="BackgroundImageFix" result="shape"/><feGaussianBlur result="effect1_foregroundBlur_3987_20110" stdDeviation=".2"/></filter><linearGradient id="f1481id14" x1="27.005" x2="25.459" y1="16.034" y2="20.822" gradientUnits="userSpaceOnUse"><stop stop-color="#96776B"/><stop offset="1" stop-color="#855A5B"/></linearGradient><linearGradient id="f1481id15" x1="7.218" x2="5.934" y1="18.653" y2="18.653" gradientUnits="userSpaceOnUse"><stop stop-color="#553038"/><stop offset="1" stop-color="#59323C"/></linearGradient><linearGradient id="f1481id16" x1="15.727" x2="30.915" y1="14.224" y2="8.787" gradientUnits="userSpaceOnUse"><stop stop-color="#A07C72"/><stop offset="1" stop-color="#A07C72" stop-opacity="0"/></linearGradient><linearGradient id="f1481id17" x1="14.652" x2="16.3" y1="20.064" y2="20.064" gradientUnits="userSpaceOnUse"><stop stop-color="#754E46"/><stop offset="1" stop-color="#754E46" stop-opacity="0"/></linearGradient><linearGradient id="f1481id18" x1="17.818" x2="16.017" y1="20.655" y2="20.63" gradientUnits="userSpaceOnUse"><stop stop-color="#9D766B"/><stop offset="1" stop-color="#9D766B" stop-opacity="0"/></linearGradient><linearGradient id="f1481id19" x1="16.512" x2="16.512" y1="22.014" y2="20.965" gradientUnits="userSpaceOnUse"><stop stop-color="#7C4559"/><stop offset="1" stop-color="#7C4559" stop-opacity="0"/></linearGradient><linearGradient id="f1481id1a" x1="14.236" x2="15.047" y1="24.955" y2="23.672" gradientUnits="userSpaceOnUse"><stop stop-color="#865E63"/><stop offset=".663" stop-color="#865E63" stop-opacity="0"/></linearGradient><linearGradient id="f1481id1b" x1="13.17" x2="17.938" y1="8.149" y2="8.149" gradientUnits="userSpaceOnUse"><stop stop-color="#6C4E44"/><stop offset="1" stop-color="#7A584D"/></linearGradient><linearGradient id="f1481id1c" x1="13.313" x2="19.844" y1="10.528" y2="10.528" gradientUnits="userSpaceOnUse"><stop stop-color="#684943"/><stop offset="1" stop-color="#7E5E56"/></linearGradient><linearGradient id="f1481id1d" x1="13.408" x2="12.823" y1="17.093" y2="17.453" gradientUnits="userSpaceOnUse"><stop stop-color="#B4948D"/><stop offset="1" stop-color="#B4948D" stop-opacity="0"/></linearGradient><linearGradient id="f1481id1e" x1="21.608" x2="21.023" y1="17.093" y2="17.453" gradientUnits="userSpaceOnUse"><stop stop-color="#B4948D"/><stop offset="1" stop-color="#B4948D" stop-opacity="0"/></linearGradient><linearGradient id="f1481id1f" x1="22.646" x2="19.154" y1="13.544" y2="13.544" gradientUnits="userSpaceOnUse"><stop stop-color="#A8A7A9"/><stop offset="1" stop-color="#A8A7A9" stop-opacity="0"/></linearGradient><linearGradient id="f1481id1g" x1="13.147" x2="9.693" y1="12.683" y2="14.026" gradientUnits="userSpaceOnUse"><stop stop-color="#A8A7A9"/><stop offset="1" stop-color="#A8A7A9" stop-opacity="0"/></linearGradient></defs></g></svg>