<svg xmlns="http://www.w3.org/2000/svg" width="1em" height="1em" viewBox="0 0 32 32"><g fill="none"><path fill="url(#f1499id0)" d="M8.06 30H5.94c-.52 0-.94-.42-.94-.94v-4.11c0-.52.42-.95.94-.95h2.11c.53 0 .95.43.95.95v4.11c0 .52-.42.94-.94.94"/><path fill="url(#f1499id1)" d="M8.06 30H5.94c-.52 0-.94-.42-.94-.94v-4.11c0-.52.42-.95.94-.95h2.11c.53 0 .95.43.95.95v4.11c0 .52-.42.94-.94.94"/><path fill="url(#f1499id2)" d="M8.06 30H5.94c-.52 0-.94-.42-.94-.94v-4.11c0-.52.42-.95.94-.95h2.11c.53 0 .95.43.95.95v4.11c0 .52-.42.94-.94.94"/><g filter="url(#f1499id18)"><path fill="url(#f1499id3)" d="M23.59 4H8.41C6.52 4 5 5.47 5 7.29v14.266h22V7.29C27 5.47 25.48 4 23.59 4"/></g><path fill="url(#f1499id4)" d="M23.59 4H8.41C6.52 4 5 5.47 5 7.29v14.266h22V7.29C27 5.47 25.48 4 23.59 4"/><path fill="url(#f1499id1o)" d="M23.59 4H8.41C6.52 4 5 5.47 5 7.29v14.266h22V7.29C27 5.47 25.48 4 23.59 4"/><path fill="url(#f1499id5)" d="M23.59 4H8.41C6.52 4 5 5.47 5 7.29v14.266h22V7.29C27 5.47 25.48 4 23.59 4"/><path fill="url(#f1499id6)" d="M26.06 30h-2.11c-.53 0-.95-.42-.95-.94v-4.11c0-.52.42-.94.94-.94h2.11c.52 0 .94.42.94.94v4.11c.01.52-.41.94-.93.94"/><path fill="url(#f1499id7)" d="M26.06 30h-2.11c-.53 0-.95-.42-.95-.94v-4.11c0-.52.42-.94.94-.94h2.11c.52 0 .94.42.94.94v4.11c.01.52-.41.94-.93.94"/><path fill="url(#f1499id8)" d="M26.06 30h-2.11c-.53 0-.95-.42-.95-.94v-4.11c0-.52.42-.94.94-.94h2.11c.52 0 .94.42.94.94v4.11c.01.52-.41.94-.93.94"/><g filter="url(#f1499id19)"><path fill="url(#f1499id9)" d="M5 20v5.58c0 .79.64 1.42 1.42 1.42h19.16c.78 0 1.42-.63 1.42-1.42V20z"/></g><path fill="url(#f1499ida)" d="M5 20v5.58c0 .79.64 1.42 1.42 1.42h19.16c.78 0 1.42-.63 1.42-1.42V20z"/><path fill="url(#f1499idb)" d="M5 20v5.58c0 .79.64 1.42 1.42 1.42h19.16c.78 0 1.42-.63 1.42-1.42V20z"/><path fill="url(#f1499idc)" d="M27 16h2v-2h-2z"/><path fill="url(#f1499idd)" d="M27 16h2v-2h-2z"/><path fill="url(#f1499ide)" d="M27 16h2v-2h-2z"/><path fill="url(#f1499idf)" d="M27 16h2v-2h-2z"/><path fill="url(#f1499idg)" d="M27 16h2v-2h-2z"/><path fill="url(#f1499idh)" d="M5 14H3v2h2z"/><path fill="url(#f1499idi)" d="M5 14H3v2h2z"/><path fill="url(#f1499idj)" d="M5 14H3v2h2z"/><path fill="url(#f1499idk)" d="M5 14H3v2h2z"/><path fill="url(#f1499idl)" d="M5 14H3v2h2z"/><g filter="url(#f1499id1a)"><path fill="url(#f1499idm)" d="M2.78 17h.44c.43 0 .78-.35.78-.78v-3.44c0-.43-.35-.78-.78-.78h-.44c-.43 0-.78.35-.78.78v3.44c0 .43.35.78.78.78"/><path fill="url(#f1499idn)" d="M2.78 17h.44c.43 0 .78-.35.78-.78v-3.44c0-.43-.35-.78-.78-.78h-.44c-.43 0-.78.35-.78.78v3.44c0 .43.35.78.78.78"/></g><g filter="url(#f1499id1b)"><path fill="url(#f1499ido)" d="M28.78 17h.44c.43 0 .78-.35.78-.78v-3.44c0-.43-.35-.78-.78-.78h-.44c-.43 0-.78.35-.78.78v3.44c0 .43.35.78.78.78"/><path fill="url(#f1499idp)" d="M28.78 17h.44c.43 0 .78-.35.78-.78v-3.44c0-.43-.35-.78-.78-.78h-.44c-.43 0-.78.35-.78.78v3.44c0 .43.35.78.78.78"/></g><g filter="url(#f1499id1c)"><path stroke="url(#f1499idq)" stroke-width=".2" d="M24.01 19H7.99c-.55 0-.99-.45-.99-.99V10h18v8.01c0 .54-.44.99-.99.99Z"/></g><g filter="url(#f1499id1d)"><path fill="url(#f1499idr)" d="M24.01 19H7.99c-.55 0-.99-.45-.99-.99V10h18v8.01c0 .54-.44.99-.99.99"/></g><path fill="url(#f1499ids)" d="M24.01 19H7.99c-.55 0-.99-.45-.99-.99V10h18v8.01c0 .54-.44.99-.99.99"/><path fill="url(#f1499idt)" d="M24.01 19H7.99c-.55 0-.99-.45-.99-.99V10h18v8.01c0 .54-.44.99-.99.99"/><path fill="url(#f1499idu)" d="M24.01 19H7.99c-.55 0-.99-.45-.99-.99V10h18v8.01c0 .54-.44.99-.99.99"/><path fill="url(#f1499id1p)" d="M24.01 19H7.99c-.55 0-.99-.45-.99-.99V10h18v8.01c0 .54-.44.99-.99.99"/><g filter="url(#f1499id1e)"><path stroke="url(#f1499idv)" stroke-width=".2" d="M19.5 24h-7c-.28 0-.5-.22-.5-.5s.22-.5.5-.5h7c.28 0 .5.22.5.5s-.22.5-.5.5Z"/></g><g filter="url(#f1499id1f)"><path fill="#656466" d="M19.5 24h-7c-.28 0-.5-.22-.5-.5s.22-.5.5-.5h7c.28 0 .5.22.5.5s-.22.5-.5.5"/></g><g filter="url(#f1499id1g)"><path stroke="url(#f1499idw)" stroke-width=".2" d="M21.5 22h-11c-.28 0-.5-.22-.5-.5c0-.27.22-.5.5-.5h11c.28 0 .5.22.5.5s-.22.5-.5.5Z"/></g><g filter="url(#f1499id1h)"><path fill="#656466" d="M21.5 22h-11c-.28 0-.5-.22-.5-.5c0-.27.22-.5.5-.5h11c.28 0 .5.22.5.5s-.22.5-.5.5"/></g><g stroke-width=".15" filter="url(#f1499id1i)"><path stroke="url(#f1499idx)" d="M8 22c0-.55-.426-1-.947-1H5.159v4h1.894c.52 0 .947-.45.947-1z"/><path stroke="url(#f1499idy)" d="M8 22c0-.55-.426-1-.947-1H5.159v4h1.894c.52 0 .947-.45.947-1z"/></g><g filter="url(#f1499id1j)"><path fill="url(#f1499idz)" d="M8 22c0-.55-.45-1-1-1H5v4h2c.55 0 1-.45 1-1z"/></g><g stroke-width=".15" filter="url(#f1499id1k)"><path stroke="url(#f1499id10)" d="M24 24c0 .55.435 1 .966 1H26.9v-4h-1.933c-.532 0-.967.45-.967 1z"/><path stroke="url(#f1499id11)" d="M24 24c0 .55.435 1 .966 1H26.9v-4h-1.933c-.532 0-.967.45-.967 1z"/></g><g filter="url(#f1499id1l)"><path fill="url(#f1499id12)" d="M24 24c0 .55.45 1 1 1h2v-4h-2c-.55 0-1 .45-1 1z"/></g><path fill="url(#f1499id13)" d="M24 24c0 .55.45 1 1 1h2v-4h-2c-.55 0-1 .45-1 1z"/><path fill="url(#f1499id14)" d="M24 24c0 .55.45 1 1 1h2v-4h-2c-.55 0-1 .45-1 1z"/><path fill="url(#f1499id15)" d="M24 24c0 .55.45 1 1 1h2v-4h-2c-.55 0-1 .45-1 1z"/><g filter="url(#f1499id1m)"><path fill="url(#f1499id16)" d="M25 10H7V7.99c0-.55.44-.99.99-.99h16.03c.54 0 .98.44.98.99z"/></g><g filter="url(#f1499id1n)"><path stroke="url(#f1499id17)" stroke-linecap="round" stroke-width=".25" d="M7.81 18.138h16.056"/></g><defs><linearGradient id="f1499id0" x1="7.878" x2="7.878" y1="27.775" y2="30" gradientUnits="userSpaceOnUse"><stop stop-color="#260E3B"/><stop offset="1" stop-color="#401361"/></linearGradient><linearGradient id="f1499id1" x1="5" x2="5.731" y1="27.989" y2="27.989" gradientUnits="userSpaceOnUse"><stop stop-color="#453E52"/><stop offset="1" stop-color="#453E52" stop-opacity="0"/></linearGradient><linearGradient id="f1499id2" x1="7.144" x2="7.144" y1="30.297" y2="29.609" gradientUnits="userSpaceOnUse"><stop stop-color="#602C86"/><stop offset="1" stop-color="#602C86" stop-opacity="0"/></linearGradient><linearGradient id="f1499id3" x1="12.522" x2="12.522" y1="20.586" y2="4.884" gradientUnits="userSpaceOnUse"><stop stop-color="#B3AABC"/><stop offset="1" stop-color="#D8D4DD"/></linearGradient><linearGradient id="f1499id4" x1="27" x2="26.144" y1="16.826" y2="16.826" gradientUnits="userSpaceOnUse"><stop stop-color="#B8B6BB"/><stop offset="1" stop-color="#BAB7BD" stop-opacity="0"/></linearGradient><linearGradient id="f1499id5" x1="16" x2="16" y1="3.624" y2="4.904" gradientUnits="userSpaceOnUse"><stop offset=".3" stop-color="#FAFAFA"/><stop offset="1" stop-color="#FAFAFA" stop-opacity="0"/></linearGradient><linearGradient id="f1499id6" x1="25.871" x2="25.871" y1="27.778" y2="30" gradientUnits="userSpaceOnUse"><stop stop-color="#260E3B"/><stop offset="1" stop-color="#401361"/></linearGradient><linearGradient id="f1499id7" x1="23" x2="23.729" y1="27.992" y2="27.992" gradientUnits="userSpaceOnUse"><stop stop-color="#453E52"/><stop offset="1" stop-color="#453E52" stop-opacity="0"/></linearGradient><linearGradient id="f1499id8" x1="25.138" x2="25.138" y1="30.296" y2="29.61" gradientUnits="userSpaceOnUse"><stop stop-color="#602C86"/><stop offset="1" stop-color="#602C86" stop-opacity="0"/></linearGradient><linearGradient id="f1499id9" x1="16" x2="16" y1="24.355" y2="27" gradientUnits="userSpaceOnUse"><stop stop-color="#F6C34A"/><stop offset="1" stop-color="#D99D43"/></linearGradient><linearGradient id="f1499ida" x1="30.43" x2="25.458" y1="27" y2="27" gradientUnits="userSpaceOnUse"><stop stop-color="#98732C"/><stop offset="1" stop-color="#98732C" stop-opacity="0"/></linearGradient><linearGradient id="f1499idb" x1="5" x2="6.708" y1="27" y2="27" gradientUnits="userSpaceOnUse"><stop stop-color="#C6A860"/><stop offset="1" stop-color="#C6A860" stop-opacity="0"/></linearGradient><linearGradient id="f1499idc" x1="27" x2="28" y1="15.003" y2="15.003" gradientUnits="userSpaceOnUse"><stop stop-color="#302A3A"/><stop offset="1" stop-color="#32293E"/></linearGradient><linearGradient id="f1499idd" x1="27.55" x2="27.55" y1="16" y2="15.813" gradientUnits="userSpaceOnUse"><stop stop-color="#1E0E2D"/><stop offset="1" stop-color="#1E0E2D" stop-opacity="0"/></linearGradient><linearGradient id="f1499ide" x1="26.956" x2="27.136" y1="15.195" y2="15.195" gradientUnits="userSpaceOnUse"><stop stop-color="#271E33"/><stop offset="1" stop-color="#271E33" stop-opacity="0"/></linearGradient><linearGradient id="f1499idf" x1="28" x2="27.745" y1="15.195" y2="15.195" gradientUnits="userSpaceOnUse"><stop stop-color="#271E33"/><stop offset="1" stop-color="#271E33" stop-opacity="0"/></linearGradient><linearGradient id="f1499idg" x1="27.862" x2="27.862" y1="14.031" y2="14.195" gradientUnits="userSpaceOnUse"><stop stop-color="#4C4656"/><stop offset="1" stop-color="#4C4656" stop-opacity="0"/></linearGradient><linearGradient id="f1499idh" x1="3" x2="4" y1="15.003" y2="15.003" gradientUnits="userSpaceOnUse"><stop stop-color="#302A3A"/><stop offset="1" stop-color="#32293E"/></linearGradient><linearGradient id="f1499idi" x1="3.55" x2="3.55" y1="16" y2="15.813" gradientUnits="userSpaceOnUse"><stop stop-color="#1E0E2D"/><stop offset="1" stop-color="#1E0E2D" stop-opacity="0"/></linearGradient><linearGradient id="f1499idj" x1="2.956" x2="3.136" y1="15.195" y2="15.195" gradientUnits="userSpaceOnUse"><stop stop-color="#271E33"/><stop offset="1" stop-color="#271E33" stop-opacity="0"/></linearGradient><linearGradient id="f1499idk" x1="4" x2="3.745" y1="15.195" y2="15.195" gradientUnits="userSpaceOnUse"><stop stop-color="#271E33"/><stop offset="1" stop-color="#271E33" stop-opacity="0"/></linearGradient><linearGradient id="f1499idl" x1="3.862" x2="3.862" y1="14.031" y2="14.195" gradientUnits="userSpaceOnUse"><stop stop-color="#4C4656"/><stop offset="1" stop-color="#4C4656" stop-opacity="0"/></linearGradient><linearGradient id="f1499idm" x1="3.503" x2="3.503" y1="17" y2="12.438" gradientUnits="userSpaceOnUse"><stop stop-color="#2B2533"/><stop offset="1" stop-color="#342943"/></linearGradient><linearGradient id="f1499idn" x1="3" x2="3" y1="12" y2="12.703" gradientUnits="userSpaceOnUse"><stop offset=".222" stop-color="#4C4457"/><stop offset="1" stop-color="#4C4457" stop-opacity="0"/></linearGradient><linearGradient id="f1499ido" x1="29.503" x2="29.503" y1="17" y2="12.438" gradientUnits="userSpaceOnUse"><stop stop-color="#2B2533"/><stop offset="1" stop-color="#342943"/></linearGradient><linearGradient id="f1499idp" x1="29" x2="29" y1="12" y2="12.703" gradientUnits="userSpaceOnUse"><stop offset=".222" stop-color="#4C4457"/><stop offset="1" stop-color="#4C4457" stop-opacity="0"/></linearGradient><linearGradient id="f1499idq" x1="16.417" x2="16.417" y1="19.537" y2="10.213" gradientUnits="userSpaceOnUse"><stop stop-color="#DFDDE3"/><stop offset="1" stop-color="#DFDDE3" stop-opacity="0"/></linearGradient><linearGradient id="f1499idr" x1="7" x2="25" y1="14.498" y2="14.5" gradientUnits="userSpaceOnUse"><stop stop-color="#2A99F1"/><stop offset="1" stop-color="#41B0E5"/></linearGradient><linearGradient id="f1499ids" x1="6.472" x2="7.472" y1="15.656" y2="15.656" gradientUnits="userSpaceOnUse"><stop stop-color="#0787E1"/><stop offset="1" stop-color="#0787E1" stop-opacity="0"/></linearGradient><linearGradient id="f1499idt" x1="16" x2="16" y1="9.695" y2="12.002" gradientUnits="userSpaceOnUse"><stop offset=".159" stop-color="#144E97"/><stop offset="1" stop-color="#144E97" stop-opacity="0"/></linearGradient><linearGradient id="f1499idu" x1="16" x2="16" y1="10" y2="10.223" gradientUnits="userSpaceOnUse"><stop stop-color="#1F53A9"/><stop offset="1" stop-color="#1E53AA" stop-opacity="0"/></linearGradient><linearGradient id="f1499idv" x1="16.185" x2="16.185" y1="23.781" y2="23.024" gradientUnits="userSpaceOnUse"><stop stop-color="#FFDE69"/><stop offset="1" stop-color="#CA9049"/></linearGradient><linearGradient id="f1499idw" x1="16.278" x2="16.278" y1="21.781" y2="21.024" gradientUnits="userSpaceOnUse"><stop stop-color="#FFDE69"/><stop offset="1" stop-color="#CA9049"/></linearGradient><linearGradient id="f1499idx" x1="7.675" x2="6.722" y1="25.141" y2="23.938" gradientUnits="userSpaceOnUse"><stop stop-color="#FFDE69"/><stop offset="1" stop-color="#FFDE69" stop-opacity="0"/></linearGradient><linearGradient id="f1499idy" x1="6.36" x2="7.766" y1="23" y2="20.897" gradientUnits="userSpaceOnUse"><stop stop-color="#CA9049" stop-opacity="0"/><stop offset="1" stop-color="#CA9049"/></linearGradient><linearGradient id="f1499idz" x1="6.5" x2="6.5" y1="21" y2="25" gradientUnits="userSpaceOnUse"><stop stop-color="#BEB0BF"/><stop offset="1" stop-color="#F3F0E9"/></linearGradient><linearGradient id="f1499id10" x1="24.441" x2="26.001" y1="25.094" y2="23.625" gradientUnits="userSpaceOnUse"><stop stop-color="#F4C86E"/><stop offset="1" stop-color="#F4C86E" stop-opacity="0"/></linearGradient><linearGradient id="f1499id11" x1="24.806" x2="26.96" y1="22.827" y2="20.719" gradientUnits="userSpaceOnUse"><stop stop-color="#8E5D32" stop-opacity="0"/><stop offset="1" stop-color="#8E5D32"/></linearGradient><linearGradient id="f1499id12" x1="25.5" x2="25.5" y1="21" y2="25" gradientUnits="userSpaceOnUse"><stop stop-color="#B1A2B4"/><stop offset="1" stop-color="#EBE7E2"/></linearGradient><linearGradient id="f1499id13" x1="27.431" x2="26.471" y1="23.36" y2="23.36" gradientUnits="userSpaceOnUse"><stop stop-color="#CCC0CD"/><stop offset="1" stop-color="#CCC0CD" stop-opacity="0"/></linearGradient><linearGradient id="f1499id14" x1="25.004" x2="25.055" y1="25.433" y2="24.093" gradientUnits="userSpaceOnUse"><stop stop-color="#EDE8E2"/><stop offset="1" stop-color="#EDE8E2" stop-opacity="0"/></linearGradient><linearGradient id="f1499id15" x1="23.563" x2="25.737" y1="21" y2="23" gradientUnits="userSpaceOnUse"><stop offset=".09" stop-color="#B3A1B8"/><stop offset="1" stop-color="#B3A1B8" stop-opacity="0"/></linearGradient><linearGradient id="f1499id16" x1="7" x2="24.004" y1="8.503" y2="8.503" gradientUnits="userSpaceOnUse"><stop stop-color="#2B2731"/><stop offset="1" stop-color="#362A46"/></linearGradient><linearGradient id="f1499id17" x1="8.179" x2="23.266" y1="18.692" y2="18.692" gradientUnits="userSpaceOnUse"><stop stop-color="#4AB8FF"/><stop offset="1" stop-color="#50CEFC"/></linearGradient><filter id="f1499id18" width="23" height="18.556" x="5" y="4" color-interpolation-filters="sRGB" filterUnits="userSpaceOnUse"><feFlood flood-opacity="0" result="BackgroundImageFix"/><feBlend in="SourceGraphic" in2="BackgroundImageFix" result="shape"/><feColorMatrix in="SourceAlpha" result="hardAlpha" values="0 0 0 0 0 0 0 0 0 0 0 0 0 0 0 0 0 0 127 0"/><feOffset dy="1"/><feGaussianBlur stdDeviation=".5"/><feComposite in2="hardAlpha" k2="-1" k3="1" operator="arithmetic"/><feColorMatrix values="0 0 0 0 0.980392 0 0 0 0 0.980392 0 0 0 0 0.980392 0 0 0 1 0"/><feBlend in2="shape" result="effect1_innerShadow_18_9860"/><feColorMatrix in="SourceAlpha" result="hardAlpha" values="0 0 0 0 0 0 0 0 0 0 0 0 0 0 0 0 0 0 127 0"/><feOffset dx="1"/><feGaussianBlur stdDeviation=".5"/><feComposite in2="hardAlpha" k2="-1" k3="1" operator="arithmetic"/><feColorMatrix values="0 0 0 0 0.592157 0 0 0 0 0.584314 0 0 0 0 0.603922 0 0 0 1 0"/><feBlend in2="effect1_innerShadow_18_9860" result="effect2_innerShadow_18_9860"/></filter><filter id="f1499id19" width="22" height="8" x="5" y="19" color-interpolation-filters="sRGB" filterUnits="userSpaceOnUse"><feFlood flood-opacity="0" result="BackgroundImageFix"/><feBlend in="SourceGraphic" in2="BackgroundImageFix" result="shape"/><feColorMatrix in="SourceAlpha" result="hardAlpha" values="0 0 0 0 0 0 0 0 0 0 0 0 0 0 0 0 0 0 127 0"/><feOffset dy="-1"/><feGaussianBlur stdDeviation=".75"/><feComposite in2="hardAlpha" k2="-1" k3="1" operator="arithmetic"/><feColorMatrix values="0 0 0 0 0.713726 0 0 0 0 0.34902 0 0 0 0 0.521569 0 0 0 1 0"/><feBlend in2="shape" result="effect1_innerShadow_18_9860"/></filter><filter id="f1499id1a" width="2.2" height="5.2" x="2" y="11.8" color-interpolation-filters="sRGB" filterUnits="userSpaceOnUse"><feFlood flood-opacity="0" result="BackgroundImageFix"/><feBlend in="SourceGraphic" in2="BackgroundImageFix" result="shape"/><feColorMatrix in="SourceAlpha" result="hardAlpha" values="0 0 0 0 0 0 0 0 0 0 0 0 0 0 0 0 0 0 127 0"/><feOffset dx=".2" dy="-.2"/><feGaussianBlur stdDeviation=".2"/><feComposite in2="hardAlpha" k2="-1" k3="1" operator="arithmetic"/><feColorMatrix values="0 0 0 0 0.12549 0 0 0 0 0.0784314 0 0 0 0 0.180392 0 0 0 1 0"/><feBlend in2="shape" result="effect1_innerShadow_18_9860"/></filter><filter id="f1499id1b" width="2.2" height="5.2" x="28" y="11.8" color-interpolation-filters="sRGB" filterUnits="userSpaceOnUse"><feFlood flood-opacity="0" result="BackgroundImageFix"/><feBlend in="SourceGraphic" in2="BackgroundImageFix" result="shape"/><feColorMatrix in="SourceAlpha" result="hardAlpha" values="0 0 0 0 0 0 0 0 0 0 0 0 0 0 0 0 0 0 127 0"/><feOffset dx=".2" dy="-.2"/><feGaussianBlur stdDeviation=".2"/><feComposite in2="hardAlpha" k2="-1" k3="1" operator="arithmetic"/><feColorMatrix values="0 0 0 0 0.12549 0 0 0 0 0.0784314 0 0 0 0 0.180392 0 0 0 1 0"/><feBlend in2="shape" result="effect1_innerShadow_18_9860"/></filter><filter id="f1499id1c" width="18.4" height="9.4" x="6.8" y="9.8" color-interpolation-filters="sRGB" filterUnits="userSpaceOnUse"><feFlood flood-opacity="0" result="BackgroundImageFix"/><feBlend in="SourceGraphic" in2="BackgroundImageFix" result="shape"/><feGaussianBlur result="effect1_foregroundBlur_18_9860" stdDeviation=".05"/></filter><filter id="f1499id1d" width="19" height="10" x="6" y="10" color-interpolation-filters="sRGB" filterUnits="userSpaceOnUse"><feFlood flood-opacity="0" result="BackgroundImageFix"/><feBlend in="SourceGraphic" in2="BackgroundImageFix" result="shape"/><feColorMatrix in="SourceAlpha" result="hardAlpha" values="0 0 0 0 0 0 0 0 0 0 0 0 0 0 0 0 0 0 127 0"/><feOffset dx="-1" dy="1"/><feGaussianBlur stdDeviation="1"/><feComposite in2="hardAlpha" k2="-1" k3="1" operator="arithmetic"/><feColorMatrix values="0 0 0 0 0.133333 0 0 0 0 0.54902 0 0 0 0 0.741176 0 0 0 1 0"/><feBlend in2="shape" result="effect1_innerShadow_18_9860"/></filter><filter id="f1499id1e" width="8.4" height="1.4" x="11.8" y="22.8" color-interpolation-filters="sRGB" filterUnits="userSpaceOnUse"><feFlood flood-opacity="0" result="BackgroundImageFix"/><feBlend in="SourceGraphic" in2="BackgroundImageFix" result="shape"/><feGaussianBlur result="effect1_foregroundBlur_18_9860" stdDeviation=".05"/></filter><filter id="f1499id1f" width="8" height="1.4" x="12" y="23" color-interpolation-filters="sRGB" filterUnits="userSpaceOnUse"><feFlood flood-opacity="0" result="BackgroundImageFix"/><feBlend in="SourceGraphic" in2="BackgroundImageFix" result="shape"/><feColorMatrix in="SourceAlpha" result="hardAlpha" values="0 0 0 0 0 0 0 0 0 0 0 0 0 0 0 0 0 0 127 0"/><feOffset dy=".4"/><feGaussianBlur stdDeviation=".2"/><feComposite in2="hardAlpha" k2="-1" k3="1" operator="arithmetic"/><feColorMatrix values="0 0 0 0 0.219608 0 0 0 0 0.168627 0 0 0 0 0.270588 0 0 0 1 0"/><feBlend in2="shape" result="effect1_innerShadow_18_9860"/></filter><filter id="f1499id1g" width="12.4" height="1.4" x="9.8" y="20.8" color-interpolation-filters="sRGB" filterUnits="userSpaceOnUse"><feFlood flood-opacity="0" result="BackgroundImageFix"/><feBlend in="SourceGraphic" in2="BackgroundImageFix" result="shape"/><feGaussianBlur result="effect1_foregroundBlur_18_9860" stdDeviation=".05"/></filter><filter id="f1499id1h" width="12" height="1.4" x="10" y="21" color-interpolation-filters="sRGB" filterUnits="userSpaceOnUse"><feFlood flood-opacity="0" result="BackgroundImageFix"/><feBlend in="SourceGraphic" in2="BackgroundImageFix" result="shape"/><feColorMatrix in="SourceAlpha" result="hardAlpha" values="0 0 0 0 0 0 0 0 0 0 0 0 0 0 0 0 0 0 127 0"/><feOffset dy=".4"/><feGaussianBlur stdDeviation=".2"/><feComposite in2="hardAlpha" k2="-1" k3="1" operator="arithmetic"/><feColorMatrix values="0 0 0 0 0.219608 0 0 0 0 0.168627 0 0 0 0 0.270588 0 0 0 1 0"/><feBlend in2="shape" result="effect1_innerShadow_18_9860"/></filter><filter id="f1499id1i" width="3.191" height="4.35" x="4.984" y="20.825" color-interpolation-filters="sRGB" filterUnits="userSpaceOnUse"><feFlood flood-opacity="0" result="BackgroundImageFix"/><feBlend in="SourceGraphic" in2="BackgroundImageFix" result="shape"/><feGaussianBlur result="effect1_foregroundBlur_18_9860" stdDeviation=".05"/></filter><filter id="f1499id1j" width="3.5" height="4.5" x="4.5" y="21" color-interpolation-filters="sRGB" filterUnits="userSpaceOnUse"><feFlood flood-opacity="0" result="BackgroundImageFix"/><feBlend in="SourceGraphic" in2="BackgroundImageFix" result="shape"/><feColorMatrix in="SourceAlpha" result="hardAlpha" values="0 0 0 0 0 0 0 0 0 0 0 0 0 0 0 0 0 0 127 0"/><feOffset dx="-.5" dy=".5"/><feGaussianBlur stdDeviation=".25"/><feComposite in2="hardAlpha" k2="-1" k3="1" operator="arithmetic"/><feColorMatrix values="0 0 0 0 0.768627 0 0 0 0 0.721569 0 0 0 0 0.760784 0 0 0 1 0"/><feBlend in2="shape" result="effect1_innerShadow_18_9860"/></filter><filter id="f1499id1k" width="3.25" height="4.35" x="23.825" y="20.825" color-interpolation-filters="sRGB" filterUnits="userSpaceOnUse"><feFlood flood-opacity="0" result="BackgroundImageFix"/><feBlend in="SourceGraphic" in2="BackgroundImageFix" result="shape"/><feGaussianBlur result="effect1_foregroundBlur_18_9860" stdDeviation=".05"/></filter><filter id="f1499id1l" width="3.5" height="4.5" x="24" y="21" color-interpolation-filters="sRGB" filterUnits="userSpaceOnUse"><feFlood flood-opacity="0" result="BackgroundImageFix"/><feBlend in="SourceGraphic" in2="BackgroundImageFix" result="shape"/><feColorMatrix in="SourceAlpha" result="hardAlpha" values="0 0 0 0 0 0 0 0 0 0 0 0 0 0 0 0 0 0 127 0"/><feOffset dy=".5"/><feGaussianBlur stdDeviation=".25"/><feComposite in2="hardAlpha" k2="-1" k3="1" operator="arithmetic"/><feColorMatrix values="0 0 0 0 0.666667 0 0 0 0 0.592157 0 0 0 0 0.686275 0 0 0 1 0"/><feBlend in2="shape" result="effect1_innerShadow_18_9860"/><feColorMatrix in="SourceAlpha" result="hardAlpha" values="0 0 0 0 0 0 0 0 0 0 0 0 0 0 0 0 0 0 127 0"/><feOffset dx=".5"/><feGaussianBlur stdDeviation=".25"/><feComposite in2="hardAlpha" k2="-1" k3="1" operator="arithmetic"/><feColorMatrix values="0 0 0 0 0.72549 0 0 0 0 0.694118 0 0 0 0 0.705882 0 0 0 1 0"/><feBlend in2="effect1_innerShadow_18_9860" result="effect2_innerShadow_18_9860"/></filter><filter id="f1499id1m" width="18" height="3.15" x="7" y="6.85" color-interpolation-filters="sRGB" filterUnits="userSpaceOnUse"><feFlood flood-opacity="0" result="BackgroundImageFix"/><feBlend in="SourceGraphic" in2="BackgroundImageFix" result="shape"/><feColorMatrix in="SourceAlpha" result="hardAlpha" values="0 0 0 0 0 0 0 0 0 0 0 0 0 0 0 0 0 0 127 0"/><feOffset dy="-.15"/><feGaussianBlur stdDeviation=".1"/><feComposite in2="hardAlpha" k2="-1" k3="1" operator="arithmetic"/><feColorMatrix values="0 0 0 0 0.156863 0 0 0 0 0.0509804 0 0 0 0 0.25098 0 0 0 1 0"/><feBlend in2="shape" result="effect1_innerShadow_18_9860"/></filter><filter id="f1499id1n" width="17.305" height="1.25" x="7.185" y="17.513" color-interpolation-filters="sRGB" filterUnits="userSpaceOnUse"><feFlood flood-opacity="0" result="BackgroundImageFix"/><feBlend in="SourceGraphic" in2="BackgroundImageFix" result="shape"/><feGaussianBlur result="effect1_foregroundBlur_18_9860" stdDeviation=".25"/></filter><radialGradient id="f1499id1o" cx="0" cy="0" r="1" gradientTransform="matrix(0 -6.15815 12.6696 0 14.05 21.556)" gradientUnits="userSpaceOnUse"><stop stop-color="#C7BED2"/><stop offset="1" stop-color="#C7BED2" stop-opacity="0"/></radialGradient><radialGradient id="f1499id1p" cx="0" cy="0" r="1" gradientTransform="matrix(0 -5.0625 7.0625 0 19.19 21.25)" gradientUnits="userSpaceOnUse"><stop stop-color="#3ACAFC"/><stop offset="1" stop-color="#3ACAFC" stop-opacity="0"/></radialGradient></defs></g></svg>