<svg xmlns="http://www.w3.org/2000/svg" width="1em" height="1em" viewBox="0 0 32 32"><g fill="none"><g clip-path="url(#f1963idg)"><path fill="url(#f1963id0)" d="M15.999 29.998c9.334 0 13.999-6.268 13.999-14c0-7.73-4.665-13.998-14-13.998C6.665 2 2 8.268 2 15.999c0 7.731 4.664 13.999 13.999 13.999"/><path fill="url(#f1963id1)" d="M15.999 29.998c9.334 0 13.999-6.268 13.999-14c0-7.73-4.665-13.998-14-13.998C6.665 2 2 8.268 2 15.999c0 7.731 4.664 13.999 13.999 13.999"/><path fill="url(#f1963id2)" d="M15.999 29.998c9.334 0 13.999-6.268 13.999-14c0-7.73-4.665-13.998-14-13.998C6.665 2 2 8.268 2 15.999c0 7.731 4.664 13.999 13.999 13.999"/><path fill="url(#f1963id3)" fill-opacity=".6" d="M15.999 29.998c9.334 0 13.999-6.268 13.999-14c0-7.73-4.665-13.998-14-13.998C6.665 2 2 8.268 2 15.999c0 7.731 4.664 13.999 13.999 13.999"/><path fill="url(#f1963id4)" d="M15.999 29.998c9.334 0 13.999-6.268 13.999-14c0-7.73-4.665-13.998-14-13.998C6.665 2 2 8.268 2 15.999c0 7.731 4.664 13.999 13.999 13.999"/><path fill="url(#f1963id5)" d="M15.999 29.998c9.334 0 13.999-6.268 13.999-14c0-7.73-4.665-13.998-14-13.998C6.665 2 2 8.268 2 15.999c0 7.731 4.664 13.999 13.999 13.999"/><path fill="url(#f1963id6)" d="M15.999 29.998c9.334 0 13.999-6.268 13.999-14c0-7.73-4.665-13.998-14-13.998C6.665 2 2 8.268 2 15.999c0 7.731 4.664 13.999 13.999 13.999"/><path fill="url(#f1963id7)" d="M15.999 29.998c9.334 0 13.999-6.268 13.999-14c0-7.73-4.665-13.998-14-13.998C6.665 2 2 8.268 2 15.999c0 7.731 4.664 13.999 13.999 13.999"/><path fill="#fff" fill-rule="evenodd" d="M15 16.5a4.5 4.5 0 1 1-9 0a4.5 4.5 0 0 1 9 0m10.96-.02a4.48 4.48 0 1 1-8.96 0a4.48 4.48 0 0 1 8.96 0" clip-rule="evenodd"/><path fill="url(#f1963ida)" d="M7 15.88C7 13.74 8.74 12 10.88 12c2.14 0 3.88 1.74 3.88 3.88c0 2.14-1.74 3.88-3.88 3.88c-2.14 0-3.88-1.74-3.88-3.88"/><path fill="url(#f1963idb)" d="M17 15.88c0-2.14 1.74-3.88 3.88-3.88c2.14 0 3.88 1.74 3.88 3.88c0 2.14-1.74 3.88-3.88 3.88c-2.14 0-3.88-1.74-3.88-3.88"/><path fill="url(#f1963idc)" d="M13.844 14.072c.368.795.064 1.628-.681 1.865c-.746.237-1.639-.214-2.007-1.01c-.368-.794-.064-1.627.681-1.864c.746-.238 1.639.221 2.007 1.009"/><path fill="url(#f1963idd)" d="M23.844 14.072c.368.795.064 1.628-.681 1.865c-.746.237-1.639-.214-2.007-1.01c-.368-.794-.064-1.627.681-1.864c.737-.238 1.639.221 2.007 1.009"/><path stroke="url(#f1963ide)" stroke-linecap="round" stroke-linejoin="round" stroke-width="1.25" d="M10.5 7.5s-.5 3-4 3"/><path stroke="url(#f1963id8)" stroke-linecap="round" stroke-linejoin="round" stroke-width="1.25" d="M10.5 7.5s-.5 3-4 3"/><path stroke="url(#f1963id9)" stroke-linecap="round" stroke-linejoin="round" stroke-width="1.25" d="M21.5 7.5s.5 3 4 3"/><path stroke="url(#f1963idf)" stroke-linecap="round" stroke-width="2" d="M14 25s.5-1 2-1s2 1 2 1"/></g><defs><radialGradient id="f1963id0" cx="0" cy="0" r="1" gradientTransform="rotate(132.839 10.786 10.065)scale(37.5033)" gradientUnits="userSpaceOnUse"><stop stop-color="#FFF478"/><stop offset=".475" stop-color="#FFB02E"/><stop offset="1" stop-color="#F70A8D"/></radialGradient><radialGradient id="f1963id1" cx="0" cy="0" r="1" gradientTransform="rotate(131.878 10.74 10.193)scale(38.9487)" gradientUnits="userSpaceOnUse"><stop stop-color="#FFF478"/><stop offset=".475" stop-color="#FFB02E"/><stop offset="1" stop-color="#F70A8D"/></radialGradient><radialGradient id="f1963id2" cx="0" cy="0" r="1" gradientTransform="rotate(101.31 2.876 12.808)scale(17.8466 22.8581)" gradientUnits="userSpaceOnUse"><stop offset=".788" stop-color="#F59639" stop-opacity="0"/><stop offset=".973" stop-color="#FF7DCE"/></radialGradient><radialGradient id="f1963id3" cx="0" cy="0" r="1" gradientTransform="matrix(-29 29 -29 -29 18 14)" gradientUnits="userSpaceOnUse"><stop offset=".315" stop-opacity="0"/><stop offset="1"/></radialGradient><radialGradient id="f1963id4" cx="0" cy="0" r="1" gradientTransform="rotate(77.692 -2.555 18.434)scale(28.1469)" gradientUnits="userSpaceOnUse"><stop offset=".508" stop-color="#7D6133" stop-opacity="0"/><stop offset="1" stop-color="#715B32"/></radialGradient><radialGradient id="f1963id5" cx="0" cy="0" r="1" gradientTransform="matrix(7.5 10.99996 -7.97335 5.4364 16.5 16.5)" gradientUnits="userSpaceOnUse"><stop stop-color="#FFB849"/><stop offset="1" stop-color="#FFB847" stop-opacity="0"/></radialGradient><radialGradient id="f1963id6" cx="0" cy="0" r="1" gradientTransform="matrix(11.49998 2 -2 11.49998 20.5 18)" gradientUnits="userSpaceOnUse"><stop stop-color="#FFA64B"/><stop offset=".9" stop-color="#FFAE46" stop-opacity="0"/></radialGradient><radialGradient id="f1963id7" cx="0" cy="0" r="1" gradientTransform="rotate(43.971 -9.827 29.173)scale(59.0529)" gradientUnits="userSpaceOnUse"><stop offset=".185" stop-opacity="0"/><stop offset="1" stop-opacity=".4"/></radialGradient><radialGradient id="f1963id8" cx="0" cy="0" r="1" gradientTransform="matrix(2.5 3.5 -3.5 2.5 7 7)" gradientUnits="userSpaceOnUse"><stop offset=".542" stop-color="#493032"/><stop offset=".807" stop-color="#5E445A"/><stop offset=".955" stop-color="#4A2C42"/></radialGradient><radialGradient id="f1963id9" cx="0" cy="0" r="1" gradientTransform="rotate(125.538 10.699 9.933)scale(4.30116)" gradientUnits="userSpaceOnUse"><stop stop-color="#C2B4B5"/><stop offset=".887" stop-color="#462B45"/><stop offset="1" stop-color="#4A2C42"/></radialGradient><linearGradient id="f1963ida" x1="12.372" x2="10.88" y1="12" y2="19.76" gradientUnits="userSpaceOnUse"><stop stop-color="#553B3E"/><stop offset="1" stop-color="#3D2432"/></linearGradient><linearGradient id="f1963idb" x1="22.372" x2="20.88" y1="12" y2="19.76" gradientUnits="userSpaceOnUse"><stop stop-color="#553B3E"/><stop offset="1" stop-color="#3D2432"/></linearGradient><linearGradient id="f1963idc" x1="11.783" x2="12.629" y1="12.948" y2="15.598" gradientUnits="userSpaceOnUse"><stop offset=".006" stop-color="#fff"/><stop offset="1" stop-color="#fff" stop-opacity="0"/></linearGradient><linearGradient id="f1963idd" x1="21.778" x2="22.624" y1="12.948" y2="15.598" gradientUnits="userSpaceOnUse"><stop offset=".006" stop-color="#fff"/><stop offset="1" stop-color="#fff" stop-opacity="0"/></linearGradient><linearGradient id="f1963ide" x1="9.5" x2="9.5" y1="7" y2="8.5" gradientUnits="userSpaceOnUse"><stop offset=".03" stop-color="#524049"/><stop offset="1" stop-color="#4A2C42"/></linearGradient><linearGradient id="f1963idf" x1="16" x2="16" y1="22" y2="24" gradientUnits="userSpaceOnUse"><stop stop-color="#4F3C43"/><stop offset="1" stop-color="#512756"/></linearGradient><clipPath id="f1963idg"><path fill="#fff" d="M0 0h32v32H0z"/></clipPath></defs></g></svg>