<svg xmlns="http://www.w3.org/2000/svg" width="1em" height="1em" viewBox="0 0 32 32"><defs><path id="f2037id0" fill="#3E3746" d="M14.058 2.998c0-.551.447-.998.998-.998h2.002a.998.998 0 1 1 0 1.995h-2.002a.998.998 0 0 1-.998-.997"/></defs><g fill="none"><g filter="url(#f2037idw)"><path fill="url(#f2037id1)" d="M24.068 28a2.006 2.006 0 1 1-4.012 0a2.006 2.006 0 0 1 4.011 0"/></g><g filter="url(#f2037idx)"><path fill="url(#f2037id2)" d="M12.056 28a2 2 0 1 1-4 0a2 2 0 0 1 4 0"/></g><path fill="url(#f2037id3)" d="M5.059 24.453a.5.5 0 0 1 .5-.5h20.997a.5.5 0 0 1 .5.5V27.5a.5.5 0 0 1-.5.5H5.559a.5.5 0 0 1-.5-.5z"/><path fill="url(#f2037id1f)" d="M5.059 24.453a.5.5 0 0 1 .5-.5h20.997a.5.5 0 0 1 .5.5V27.5a.5.5 0 0 1-.5.5H5.559a.5.5 0 0 1-.5-.5z"/><path fill="url(#f2037id4)" d="M5.059 24.453a.5.5 0 0 1 .5-.5h20.997a.5.5 0 0 1 .5.5V27.5a.5.5 0 0 1-.5.5H5.559a.5.5 0 0 1-.5-.5z"/><path fill="url(#f2037id1g)" d="M5.059 24.453a.5.5 0 0 1 .5-.5h20.997a.5.5 0 0 1 .5.5V27.5a.5.5 0 0 1-.5.5H5.559a.5.5 0 0 1-.5-.5z"/><path fill="url(#f2037id5)" d="M5.059 24.453a.5.5 0 0 1 .5-.5h20.997a.5.5 0 0 1 .5.5V27.5a.5.5 0 0 1-.5.5H5.559a.5.5 0 0 1-.5-.5z"/><path fill="url(#f2037id6)" d="M5.059 24.453a.5.5 0 0 1 .5-.5h20.997a.5.5 0 0 1 .5.5V27.5a.5.5 0 0 1-.5.5H5.559a.5.5 0 0 1-.5-.5z"/><g filter="url(#f2037idy)"><path fill="url(#f2037id7)" fill-rule="evenodd" d="M14.32 2.727a.5.5 0 0 1 .27-.08h2.958a.5.5 0 0 1 .277.084l4.33 2.872a.5.5 0 0 1-.043.858l-5.106 2.711a.5.5 0 0 1-.235.059h-1.364a.5.5 0 0 1-.228-.056l-5.285-2.71a.5.5 0 0 1-.042-.866zm.418.92L11.342 5.83a.15.15 0 0 0 .012.26l4.174 2.14h1.119l4.032-2.14a.15.15 0 0 0 .012-.257l-3.293-2.186z" clip-rule="evenodd"/></g><path fill="url(#f2037id8)" fill-rule="evenodd" d="M14.32 2.727a.5.5 0 0 1 .27-.08h2.958a.5.5 0 0 1 .277.084l4.33 2.872a.5.5 0 0 1-.043.858l-5.106 2.711a.5.5 0 0 1-.235.059h-1.364a.5.5 0 0 1-.228-.056l-5.285-2.71a.5.5 0 0 1-.042-.866zm.418.92L11.342 5.83a.15.15 0 0 0 .012.26l4.174 2.14h1.119l4.032-2.14a.15.15 0 0 0 .012-.257l-3.293-2.186z" clip-rule="evenodd"/><g filter="url(#f2037idz)"><path stroke="url(#f2037id9)" stroke-linecap="round" stroke-width=".2" d="m17.414 8.42l4.372-2.467"/></g><g filter="url(#f2037id10)"><path stroke="url(#f2037ida)" stroke-linecap="round" stroke-width=".2" d="M14.878 8.458L10.16 5.953"/></g><g filter="url(#f2037id11)"><path fill="url(#f2037idb)" d="M11.05 8.994a1 1 0 0 1 1-1h8.006a1 1 0 0 1 1 1V11a1 1 0 0 1-1 1H12.05a1 1 0 0 1-1-1z"/></g><path fill="url(#f2037idc)" d="M11.05 8.994a1 1 0 0 1 1-1h8.006a1 1 0 0 1 1 1V11a1 1 0 0 1-1 1H12.05a1 1 0 0 1-1-1z"/><g filter="url(#f2037id12)"><path fill="url(#f2037idd)" d="M2.056 13.294A3.294 3.294 0 0 1 5.35 10h21.416a3.294 3.294 0 0 1 0 6.588H5.35a3.294 3.294 0 0 1-3.294-3.294"/><path fill="url(#f2037ide)" d="M2.056 13.294A3.294 3.294 0 0 1 5.35 10h21.416a3.294 3.294 0 0 1 0 6.588H5.35a3.294 3.294 0 0 1-3.294-3.294"/></g><g filter="url(#f2037id13)"><path stroke="url(#f2037idf)" d="M3.62 13.545v-.16l-.092-.13c-.213-.3-.23-.845.055-1.376c.273-.508.763-.878 1.38-.878h22.063c.69 0 1.212.283 1.552.716c.346.441.525 1.068.451 1.775l-.003.026v.026c0 .646-.366 1.276-.97 1.763c-.605.487-1.39.781-2.105.781H6.164a2.544 2.544 0 0 1-2.543-2.544Z"/></g><path fill="url(#f2037idg)" d="M2.055 12.97H30.06V24H2.055z"/><path fill="url(#f2037idh)" d="M2.055 12.97H30.06V24H2.055z"/><path fill="url(#f2037idi)" d="M2.055 12.97H30.06V24H2.055z"/><g filter="url(#f2037id14)"><path stroke="url(#f2037idj)" stroke-width=".4" d="M22.056 14.75a.75.75 0 0 1 .75-.75h4.5a.75.75 0 0 1 .75.75v9.649a.75.75 0 0 1-.75.75h-4.5a.75.75 0 0 1-.75-.75z"/></g><g filter="url(#f2037id15)"><path fill="url(#f2037idk)" d="M22.056 14.75a.75.75 0 0 1 .75-.75h4.5a.75.75 0 0 1 .75.75v9.649a.75.75 0 0 1-.75.75h-4.5a.75.75 0 0 1-.75-.75z"/><path fill="url(#f2037idl)" d="M22.056 14.75a.75.75 0 0 1 .75-.75h4.5a.75.75 0 0 1 .75.75v9.649a.75.75 0 0 1-.75.75h-4.5a.75.75 0 0 1-.75-.75z"/></g><g filter="url(#f2037id16)"><path stroke="url(#f2037idm)" stroke-width=".3" d="M5.062 16.75a.75.75 0 0 1 .75-.75h2.494a.75.75 0 0 1 .75.75v2.5a.75.75 0 0 1-.75.75H5.812a.75.75 0 0 1-.75-.75z"/></g><g filter="url(#f2037id17)"><path fill="url(#f2037idn)" d="M5.062 16.75a.75.75 0 0 1 .75-.75h2.494a.75.75 0 0 1 .75.75v2.5a.75.75 0 0 1-.75.75H5.812a.75.75 0 0 1-.75-.75z"/></g><g filter="url(#f2037id18)"><path stroke="url(#f2037ido)" stroke-width=".3" d="M14.056 16.75a.75.75 0 0 1 .75-.75H17.3a.75.75 0 0 1 .75.75v2.5a.75.75 0 0 1-.75.75h-2.494a.75.75 0 0 1-.75-.75z"/></g><g filter="url(#f2037id19)"><path fill="url(#f2037idp)" d="M14.056 16.75a.75.75 0 0 1 .75-.75H17.3a.75.75 0 0 1 .75.75v2.5a.75.75 0 0 1-.75.75h-2.494a.75.75 0 0 1-.75-.75z"/></g><g filter="url(#f2037id1a)"><path fill="url(#f2037idq)" d="M23.05 16.75a.75.75 0 0 1 .75-.75h2.494a.75.75 0 0 1 .75.75v2.5a.75.75 0 0 1-.75.75H23.8a.75.75 0 0 1-.75-.75z"/></g><path fill="url(#f2037idr)" fill-rule="evenodd" d="M2.055 24v1a1 1 0 0 0 1 1H29.06a1 1 0 0 0 1-1v-1z" clip-rule="evenodd"/><path fill="url(#f2037ids)" fill-rule="evenodd" d="M2.055 24v1a1 1 0 0 0 1 1H29.06a1 1 0 0 0 1-1v-1z" clip-rule="evenodd"/><path fill="url(#f2037idt)" fill-rule="evenodd" d="M2.055 24v1a1 1 0 0 0 1 1H29.06a1 1 0 0 0 1-1v-1z" clip-rule="evenodd"/><path fill="url(#f2037id1h)" fill-rule="evenodd" d="M2.055 24v1a1 1 0 0 0 1 1H29.06a1 1 0 0 0 1-1v-1z" clip-rule="evenodd"/><path fill="url(#f2037id1i)" fill-rule="evenodd" d="M2.055 24v1a1 1 0 0 0 1 1H29.06a1 1 0 0 0 1-1v-1z" clip-rule="evenodd"/><g filter="url(#f2037id1b)"><path stroke="url(#f2037idu)" stroke-linecap="round" stroke-width=".2" d="m17.557 3.201l4.3 2.772"/></g><g filter="url(#f2037id1c)"><path stroke="url(#f2037idv)" stroke-linecap="round" stroke-width=".2" d="m14.39 3.201l-4.301 2.772"/></g><g filter="url(#f2037id1d)"><use href="#f2037id0"/></g><g filter="url(#f2037id1e)"><use href="#f2037id0"/></g><path fill="url(#f2037id1j)" d="M14.058 2.998c0-.551.447-.998.998-.998h2.002a.998.998 0 1 1 0 1.995h-2.002a.998.998 0 0 1-.998-.997"/><defs><linearGradient id="f2037id1" x1="22.062" x2="22.062" y1="27.587" y2="29.021" gradientUnits="userSpaceOnUse"><stop stop-color="#311B43"/><stop offset="1" stop-color="#463655"/></linearGradient><linearGradient id="f2037id2" x1="10.056" x2="10.056" y1="27.588" y2="29.018" gradientUnits="userSpaceOnUse"><stop stop-color="#311B43"/><stop offset="1" stop-color="#463655"/></linearGradient><linearGradient id="f2037id3" x1="6.087" x2="27.056" y1="28" y2="28" gradientUnits="userSpaceOnUse"><stop stop-color="#524667"/><stop offset="1" stop-color="#45434B"/></linearGradient><linearGradient id="f2037id4" x1="16.057" x2="16.057" y1="25.947" y2="26.262" gradientUnits="userSpaceOnUse"><stop stop-color="#553B73"/><stop offset="1" stop-color="#553B73" stop-opacity="0"/></linearGradient><linearGradient id="f2037id5" x1="16.057" x2="16.057" y1="28.153" y2="27.387" gradientUnits="userSpaceOnUse"><stop stop-color="#7D47A5"/><stop offset="1" stop-color="#7D47A5" stop-opacity="0"/></linearGradient><linearGradient id="f2037id6" x1="5.059" x2="6.554" y1="27.2" y2="27.2" gradientUnits="userSpaceOnUse"><stop stop-color="#4D4863"/><stop offset="1" stop-color="#4D4863" stop-opacity="0"/></linearGradient><linearGradient id="f2037id7" x1="21.877" x2="9.622" y1="6.539" y2="6.539" gradientUnits="userSpaceOnUse"><stop stop-color="#69646F"/><stop offset="1" stop-color="#807A87"/></linearGradient><linearGradient id="f2037id8" x1="18.25" x2="13.684" y1="9.907" y2="3.222" gradientUnits="userSpaceOnUse"><stop stop-color="#47444B"/><stop offset="1" stop-color="#47444B" stop-opacity="0"/></linearGradient><linearGradient id="f2037id9" x1="22.854" x2="19.167" y1="9.249" y2="10.409" gradientUnits="userSpaceOnUse"><stop stop-color="#68626F" stop-opacity="0"/><stop offset="1" stop-color="#68626F"/></linearGradient><linearGradient id="f2037ida" x1="10.255" x2="11.111" y1="5.874" y2="8.97" gradientUnits="userSpaceOnUse"><stop stop-color="#7C787F" stop-opacity="0"/><stop offset="1" stop-color="#7C787F"/></linearGradient><linearGradient id="f2037idb" x1="16.053" x2="16.053" y1="7.994" y2="10.382" gradientUnits="userSpaceOnUse"><stop stop-color="#3D3B40"/><stop offset="1" stop-color="#333637"/></linearGradient><linearGradient id="f2037idc" x1="16.053" x2="16.053" y1="7.994" y2="8.437" gradientUnits="userSpaceOnUse"><stop stop-color="#323232"/><stop offset="1" stop-color="#323232" stop-opacity="0"/></linearGradient><linearGradient id="f2037idd" x1="16.058" x2="16.058" y1="10" y2="13.294" gradientUnits="userSpaceOnUse"><stop stop-color="#33DC7A"/><stop offset="1" stop-color="#41D291"/></linearGradient><linearGradient id="f2037ide" x1="3.742" x2="11.475" y1="15.013" y2="10" gradientUnits="userSpaceOnUse"><stop stop-color="#5BE6B3"/><stop offset="1" stop-color="#5BE6B3" stop-opacity="0"/></linearGradient><linearGradient id="f2037idf" x1="25.683" x2="2.307" y1="9.25" y2="16" gradientUnits="userSpaceOnUse"><stop offset=".035" stop-color="#51F993"/><stop offset=".485" stop-color="#51F993" stop-opacity="0"/><stop offset="1" stop-color="#5DE5B5"/></linearGradient><linearGradient id="f2037idg" x1="2.055" x2="14.571" y1="22.096" y2="22.096" gradientUnits="userSpaceOnUse"><stop stop-color="#FFC856"/><stop offset="1" stop-color="#FFE15B"/></linearGradient><linearGradient id="f2037idh" x1="1.739" x2="4.621" y1="24" y2="24" gradientUnits="userSpaceOnUse"><stop stop-color="#B36A4D"/><stop offset=".343" stop-color="#E08D38"/><stop offset="1" stop-color="#E08D38" stop-opacity="0"/></linearGradient><linearGradient id="f2037idi" x1="30.527" x2="27.251" y1="20.944" y2="20.944" gradientUnits="userSpaceOnUse"><stop stop-color="#FFFF59"/><stop offset="1" stop-color="#FFFF59" stop-opacity="0"/></linearGradient><linearGradient id="f2037idj" x1="22.056" x2="28.056" y1="18.708" y2="18.708" gradientUnits="userSpaceOnUse"><stop stop-color="#FFF858"/><stop offset="1" stop-color="#EEB542"/></linearGradient><linearGradient id="f2037idk" x1="22.056" x2="28.707" y1="23.37" y2="14" gradientUnits="userSpaceOnUse"><stop stop-color="#FF8B4B"/><stop offset="1" stop-color="#FF6648"/></linearGradient><linearGradient id="f2037idl" x1="22.056" x2="22.917" y1="21.736" y2="21.736" gradientUnits="userSpaceOnUse"><stop stop-color="#FF913F"/><stop offset="1" stop-color="#FF913F" stop-opacity="0"/></linearGradient><linearGradient id="f2037idm" x1="5.248" x2="8.026" y1="19.64" y2="17.171" gradientUnits="userSpaceOnUse"><stop stop-color="#FFF858"/><stop offset="1" stop-color="#EEB542"/></linearGradient><linearGradient id="f2037idn" x1="8.736" x2="5.062" y1="16.417" y2="20.635" gradientUnits="userSpaceOnUse"><stop stop-color="#3F7EFF"/><stop offset="1" stop-color="#37A4FF"/></linearGradient><linearGradient id="f2037ido" x1="14.242" x2="17.02" y1="19.64" y2="17.171" gradientUnits="userSpaceOnUse"><stop stop-color="#FFF858"/><stop offset="1" stop-color="#EEB542"/></linearGradient><linearGradient id="f2037idp" x1="17.73" x2="14.056" y1="16.417" y2="20.635" gradientUnits="userSpaceOnUse"><stop stop-color="#3F7EFF"/><stop offset="1" stop-color="#37A4FF"/></linearGradient><linearGradient id="f2037idq" x1="26.724" x2="23.05" y1="16.417" y2="20.635" gradientUnits="userSpaceOnUse"><stop stop-color="#3F7EFF"/><stop offset="1" stop-color="#37A4FF"/></linearGradient><linearGradient id="f2037idr" x1="16.057" x2="16.057" y1="24" y2="27.123" gradientUnits="userSpaceOnUse"><stop stop-color="#43C59D"/><stop offset="1" stop-color="#3A7C92"/></linearGradient><linearGradient id="f2037ids" x1="31.577" x2="28.738" y1="22.729" y2="25" gradientUnits="userSpaceOnUse"><stop offset=".843" stop-color="#4BF19A"/><stop offset="1" stop-color="#4BF19A" stop-opacity="0"/></linearGradient><linearGradient id="f2037idt" x1=".292" x2="3.057" y1="23.688" y2="25.594" gradientUnits="userSpaceOnUse"><stop offset=".838" stop-color="#4D9E80"/><stop offset="1" stop-color="#4D9E80" stop-opacity="0"/></linearGradient><linearGradient id="f2037idu" x1="23.187" x2="19.109" y1="6.792" y2="8.006" gradientUnits="userSpaceOnUse"><stop stop-color="#68626F" stop-opacity="0"/><stop offset="1" stop-color="#68626F"/></linearGradient><linearGradient id="f2037idv" x1="8.759" x2="12.838" y1="6.792" y2="8.006" gradientUnits="userSpaceOnUse"><stop stop-color="#70627F" stop-opacity="0"/><stop offset="1" stop-color="#70627F"/></linearGradient><filter id="f2037idw" width="4.262" height="4.262" x="20.056" y="25.744" color-interpolation-filters="sRGB" filterUnits="userSpaceOnUse"><feFlood flood-opacity="0" result="BackgroundImageFix"/><feBlend in="SourceGraphic" in2="BackgroundImageFix" result="shape"/><feColorMatrix in="SourceAlpha" result="hardAlpha" values="0 0 0 0 0 0 0 0 0 0 0 0 0 0 0 0 0 0 127 0"/><feOffset dx=".25" dy="-.25"/><feGaussianBlur stdDeviation=".3"/><feComposite in2="hardAlpha" k2="-1" k3="1" operator="arithmetic"/><feColorMatrix values="0 0 0 0 0.290196 0 0 0 0 0.145098 0 0 0 0 0.392157 0 0 0 1 0"/><feBlend in2="shape" result="effect1_innerShadow_18_9104"/></filter><filter id="f2037idx" width="4.25" height="4.25" x="8.056" y="25.75" color-interpolation-filters="sRGB" filterUnits="userSpaceOnUse"><feFlood flood-opacity="0" result="BackgroundImageFix"/><feBlend in="SourceGraphic" in2="BackgroundImageFix" result="shape"/><feColorMatrix in="SourceAlpha" result="hardAlpha" values="0 0 0 0 0 0 0 0 0 0 0 0 0 0 0 0 0 0 127 0"/><feOffset dx=".25" dy="-.25"/><feGaussianBlur stdDeviation=".3"/><feComposite in2="hardAlpha" k2="-1" k3="1" operator="arithmetic"/><feColorMatrix values="0 0 0 0 0.290196 0 0 0 0 0.145098 0 0 0 0 0.392157 0 0 0 1 0"/><feBlend in2="shape" result="effect1_innerShadow_18_9104"/></filter><filter id="f2037idy" width="12.756" height="6.983" x="9.622" y="2.447" color-interpolation-filters="sRGB" filterUnits="userSpaceOnUse"><feFlood flood-opacity="0" result="BackgroundImageFix"/><feBlend in="SourceGraphic" in2="BackgroundImageFix" result="shape"/><feColorMatrix in="SourceAlpha" result="hardAlpha" values="0 0 0 0 0 0 0 0 0 0 0 0 0 0 0 0 0 0 127 0"/><feOffset dy=".2"/><feGaussianBlur stdDeviation=".3"/><feComposite in2="hardAlpha" k2="-1" k3="1" operator="arithmetic"/><feColorMatrix values="0 0 0 0 0.211765 0 0 0 0 0.168627 0 0 0 0 0.270588 0 0 0 1 0"/><feBlend in2="shape" result="effect1_innerShadow_18_9104"/><feColorMatrix in="SourceAlpha" result="hardAlpha" values="0 0 0 0 0 0 0 0 0 0 0 0 0 0 0 0 0 0 127 0"/><feOffset dy="-.2"/><feGaussianBlur stdDeviation=".3"/><feComposite in2="hardAlpha" k2="-1" k3="1" operator="arithmetic"/><feColorMatrix values="0 0 0 0 0.360784 0 0 0 0 0.352941 0 0 0 0 0.364706 0 0 0 1 0"/><feBlend in2="effect1_innerShadow_18_9104" result="effect2_innerShadow_18_9104"/></filter><filter id="f2037idz" width="4.972" height="3.066" x="17.114" y="5.653" color-interpolation-filters="sRGB" filterUnits="userSpaceOnUse"><feFlood flood-opacity="0" result="BackgroundImageFix"/><feBlend in="SourceGraphic" in2="BackgroundImageFix" result="shape"/><feGaussianBlur result="effect1_foregroundBlur_18_9104" stdDeviation=".1"/></filter><filter id="f2037id10" width="5.718" height="3.505" x="9.66" y="5.453" color-interpolation-filters="sRGB" filterUnits="userSpaceOnUse"><feFlood flood-opacity="0" result="BackgroundImageFix"/><feBlend in="SourceGraphic" in2="BackgroundImageFix" result="shape"/><feGaussianBlur result="effect1_foregroundBlur_18_9104" stdDeviation=".2"/></filter><filter id="f2037id11" width="10.805" height="4.006" x="10.651" y="7.994" color-interpolation-filters="sRGB" filterUnits="userSpaceOnUse"><feFlood flood-opacity="0" result="BackgroundImageFix"/><feBlend in="SourceGraphic" in2="BackgroundImageFix" result="shape"/><feColorMatrix in="SourceAlpha" result="hardAlpha" values="0 0 0 0 0 0 0 0 0 0 0 0 0 0 0 0 0 0 127 0"/><feOffset dx="-.4"/><feGaussianBlur stdDeviation=".2"/><feComposite in2="hardAlpha" k2="-1" k3="1" operator="arithmetic"/><feColorMatrix values="0 0 0 0 0.34902 0 0 0 0 0.341176 0 0 0 0 0.364706 0 0 0 1 0"/><feBlend in2="shape" result="effect1_innerShadow_18_9104"/><feColorMatrix in="SourceAlpha" result="hardAlpha" values="0 0 0 0 0 0 0 0 0 0 0 0 0 0 0 0 0 0 127 0"/><feOffset dx=".4"/><feGaussianBlur stdDeviation=".2"/><feComposite in2="hardAlpha" k2="-1" k3="1" operator="arithmetic"/><feColorMatrix values="0 0 0 0 0.117647 0 0 0 0 0.160784 0 0 0 0 0.129412 0 0 0 1 0"/><feBlend in2="effect1_innerShadow_18_9104" result="effect2_innerShadow_18_9104"/></filter><filter id="f2037id12" width="29.004" height="6.588" x="2.056" y="10" color-interpolation-filters="sRGB" filterUnits="userSpaceOnUse"><feFlood flood-opacity="0" result="BackgroundImageFix"/><feBlend in="SourceGraphic" in2="BackgroundImageFix" result="shape"/><feColorMatrix in="SourceAlpha" result="hardAlpha" values="0 0 0 0 0 0 0 0 0 0 0 0 0 0 0 0 0 0 127 0"/><feOffset dx="1"/><feGaussianBlur stdDeviation=".75"/><feComposite in2="hardAlpha" k2="-1" k3="1" operator="arithmetic"/><feColorMatrix values="0 0 0 0 0.286275 0 0 0 0 0.627451 0 0 0 0 0.462745 0 0 0 1 0"/><feBlend in2="shape" result="effect1_innerShadow_18_9104"/></filter><filter id="f2037id13" width="29.677" height="9.087" x="1.368" y="9.001" color-interpolation-filters="sRGB" filterUnits="userSpaceOnUse"><feFlood flood-opacity="0" result="BackgroundImageFix"/><feBlend in="SourceGraphic" in2="BackgroundImageFix" result="shape"/><feGaussianBlur result="effect1_foregroundBlur_18_9104" stdDeviation=".75"/></filter><filter id="f2037id14" width="7" height="12.149" x="21.556" y="13.5" color-interpolation-filters="sRGB" filterUnits="userSpaceOnUse"><feFlood flood-opacity="0" result="BackgroundImageFix"/><feBlend in="SourceGraphic" in2="BackgroundImageFix" result="shape"/><feGaussianBlur result="effect1_foregroundBlur_18_9104" stdDeviation=".15"/></filter><filter id="f2037id15" width="6.25" height="11.399" x="21.806" y="14" color-interpolation-filters="sRGB" filterUnits="userSpaceOnUse"><feFlood flood-opacity="0" result="BackgroundImageFix"/><feBlend in="SourceGraphic" in2="BackgroundImageFix" result="shape"/><feColorMatrix in="SourceAlpha" result="hardAlpha" values="0 0 0 0 0 0 0 0 0 0 0 0 0 0 0 0 0 0 127 0"/><feOffset dx="-.25" dy=".25"/><feGaussianBlur stdDeviation=".25"/><feComposite in2="hardAlpha" k2="-1" k3="1" operator="arithmetic"/><feColorMatrix values="0 0 0 0 0.976471 0 0 0 0 0.219608 0 0 0 0 0.266667 0 0 0 1 0"/><feBlend in2="shape" result="effect1_innerShadow_18_9104"/></filter><filter id="f2037id16" width="4.694" height="4.7" x="4.712" y="15.65" color-interpolation-filters="sRGB" filterUnits="userSpaceOnUse"><feFlood flood-opacity="0" result="BackgroundImageFix"/><feBlend in="SourceGraphic" in2="BackgroundImageFix" result="shape"/><feGaussianBlur result="effect1_foregroundBlur_18_9104" stdDeviation=".1"/></filter><filter id="f2037id17" width="4.294" height="4.3" x="4.762" y="16" color-interpolation-filters="sRGB" filterUnits="userSpaceOnUse"><feFlood flood-opacity="0" result="BackgroundImageFix"/><feBlend in="SourceGraphic" in2="BackgroundImageFix" result="shape"/><feColorMatrix in="SourceAlpha" result="hardAlpha" values="0 0 0 0 0 0 0 0 0 0 0 0 0 0 0 0 0 0 127 0"/><feOffset dx="-.3" dy=".3"/><feGaussianBlur stdDeviation=".25"/><feComposite in2="hardAlpha" k2="-1" k3="1" operator="arithmetic"/><feColorMatrix values="0 0 0 0 0.188235 0 0 0 0 0.337255 0 0 0 0 0.921569 0 0 0 1 0"/><feBlend in2="shape" result="effect1_innerShadow_18_9104"/></filter><filter id="f2037id18" width="4.694" height="4.7" x="13.706" y="15.65" color-interpolation-filters="sRGB" filterUnits="userSpaceOnUse"><feFlood flood-opacity="0" result="BackgroundImageFix"/><feBlend in="SourceGraphic" in2="BackgroundImageFix" result="shape"/><feGaussianBlur result="effect1_foregroundBlur_18_9104" stdDeviation=".1"/></filter><filter id="f2037id19" width="4.294" height="4.3" x="13.756" y="16" color-interpolation-filters="sRGB" filterUnits="userSpaceOnUse"><feFlood flood-opacity="0" result="BackgroundImageFix"/><feBlend in="SourceGraphic" in2="BackgroundImageFix" result="shape"/><feColorMatrix in="SourceAlpha" result="hardAlpha" values="0 0 0 0 0 0 0 0 0 0 0 0 0 0 0 0 0 0 127 0"/><feOffset dx="-.3" dy=".3"/><feGaussianBlur stdDeviation=".25"/><feComposite in2="hardAlpha" k2="-1" k3="1" operator="arithmetic"/><feColorMatrix values="0 0 0 0 0.188235 0 0 0 0 0.337255 0 0 0 0 0.921569 0 0 0 1 0"/><feBlend in2="shape" result="effect1_innerShadow_18_9104"/></filter><filter id="f2037id1a" width="4.294" height="4.3" x="22.75" y="16" color-interpolation-filters="sRGB" filterUnits="userSpaceOnUse"><feFlood flood-opacity="0" result="BackgroundImageFix"/><feBlend in="SourceGraphic" in2="BackgroundImageFix" result="shape"/><feColorMatrix in="SourceAlpha" result="hardAlpha" values="0 0 0 0 0 0 0 0 0 0 0 0 0 0 0 0 0 0 127 0"/><feOffset dx="-.3" dy=".3"/><feGaussianBlur stdDeviation=".25"/><feComposite in2="hardAlpha" k2="-1" k3="1" operator="arithmetic"/><feColorMatrix values="0 0 0 0 0.188235 0 0 0 0 0.337255 0 0 0 0 0.921569 0 0 0 1 0"/><feBlend in2="shape" result="effect1_innerShadow_18_9104"/></filter><filter id="f2037id1b" width="4.901" height="3.372" x="17.257" y="2.901" color-interpolation-filters="sRGB" filterUnits="userSpaceOnUse"><feFlood flood-opacity="0" result="BackgroundImageFix"/><feBlend in="SourceGraphic" in2="BackgroundImageFix" result="shape"/><feGaussianBlur result="effect1_foregroundBlur_18_9104" stdDeviation=".1"/></filter><filter id="f2037id1c" width="4.901" height="3.372" x="9.789" y="2.901" color-interpolation-filters="sRGB" filterUnits="userSpaceOnUse"><feFlood flood-opacity="0" result="BackgroundImageFix"/><feBlend in="SourceGraphic" in2="BackgroundImageFix" result="shape"/><feGaussianBlur result="effect1_foregroundBlur_18_9104" stdDeviation=".1"/></filter><filter id="f2037id1d" width="4.398" height="2.395" x="14.058" y="1.6" color-interpolation-filters="sRGB" filterUnits="userSpaceOnUse"><feFlood flood-opacity="0" result="BackgroundImageFix"/><feBlend in="SourceGraphic" in2="BackgroundImageFix" result="shape"/><feColorMatrix in="SourceAlpha" result="hardAlpha" values="0 0 0 0 0 0 0 0 0 0 0 0 0 0 0 0 0 0 127 0"/><feOffset dx=".4" dy="-.4"/><feGaussianBlur stdDeviation=".2"/><feComposite in2="hardAlpha" k2="-1" k3="1" operator="arithmetic"/><feColorMatrix values="0 0 0 0 0.145098 0 0 0 0 0.137255 0 0 0 0 0.168627 0 0 0 1 0"/><feBlend in2="shape" result="effect1_innerShadow_18_9104"/></filter><filter id="f2037id1e" width="4.798" height="2.795" x="13.658" y="1.6" color-interpolation-filters="sRGB" filterUnits="userSpaceOnUse"><feFlood flood-opacity="0" result="BackgroundImageFix"/><feBlend in="SourceGraphic" in2="BackgroundImageFix" result="shape"/><feColorMatrix in="SourceAlpha" result="hardAlpha" values="0 0 0 0 0 0 0 0 0 0 0 0 0 0 0 0 0 0 127 0"/><feOffset dx="-.4" dy=".4"/><feGaussianBlur stdDeviation=".2"/><feComposite in2="hardAlpha" k2="-1" k3="1" operator="arithmetic"/><feColorMatrix values="0 0 0 0 0.337255 0 0 0 0 0.282353 0 0 0 0 0.396078 0 0 0 1 0"/><feBlend in2="shape" result="effect1_innerShadow_18_9104"/><feColorMatrix in="SourceAlpha" result="hardAlpha" values="0 0 0 0 0 0 0 0 0 0 0 0 0 0 0 0 0 0 127 0"/><feOffset dx=".4" dy="-.4"/><feGaussianBlur stdDeviation=".2"/><feComposite in2="hardAlpha" k2="-1" k3="1" operator="arithmetic"/><feColorMatrix values="0 0 0 0 0.145098 0 0 0 0 0.137255 0 0 0 0 0.168627 0 0 0 1 0"/><feBlend in2="effect1_innerShadow_18_9104" result="effect2_innerShadow_18_9104"/></filter><radialGradient id="f2037id1f" cx="0" cy="0" r="1" gradientTransform="matrix(0 -4.04685 17 0 13.432 28)" gradientUnits="userSpaceOnUse"><stop stop-color="#7D6496"/><stop offset="1" stop-color="#7C6595" stop-opacity="0"/></radialGradient><radialGradient id="f2037id1g" cx="0" cy="0" r="1" gradientTransform="matrix(0 1.68745 -2.22601 0 26.598 25.546)" gradientUnits="userSpaceOnUse"><stop offset=".288" stop-color="#2C2639"/><stop offset="1" stop-color="#2C2639" stop-opacity="0"/></radialGradient><radialGradient id="f2037id1h" cx="0" cy="0" r="1" gradientTransform="matrix(6.7663 -.21595 .03761 1.17847 2.85 26.406)" gradientUnits="userSpaceOnUse"><stop stop-color="#7696D5"/><stop offset="1" stop-color="#7696D5" stop-opacity="0"/></radialGradient><radialGradient id="f2037id1i" cx="0" cy="0" r="1" gradientTransform="rotate(-179.293 14.572 13.185)scale(7.77465 1.5497)" gradientUnits="userSpaceOnUse"><stop stop-color="#7696D5"/><stop offset="1" stop-color="#7696D5" stop-opacity="0"/></radialGradient><radialGradient id="f2037id1j" cx="0" cy="0" r="1" gradientTransform="matrix(-.85603 .39534 -.39189 -.84855 18.056 2.392)" gradientUnits="userSpaceOnUse"><stop stop-color="#6B5F77"/><stop offset="1" stop-color="#6B5F77" stop-opacity="0"/></radialGradient></defs></g></svg>