<svg xmlns="http://www.w3.org/2000/svg" width="0.97em" height="1em" viewBox="0 0 32 33"><g fill="none"><g clip-path="url(#f2060id1o)"><path fill="url(#f2060id0)" d="M24.059 8.696c-.946.037-1.505.811-1.5 1.75c-.357-.438-.895-.807-1.5-.75c-.742.07-1.591.788-1.5 1.75l.5 4.5c-.5-1.5-1.5-1.5-2-1.5c-1 0-2.086 1.453-1.086 2.953c0 0 2.247 3.19 3.086 6.547c.486 1.944 2.5 3.5 4.5 3.5c2.932 0 5-2.5 5.5-5l1-7.5c.098-.822-.367-1.73-1.527-1.868c-.428-.052-.667.111-.973.368v-1.5c.041-.827-.698-1.4-1.526-1.44a1.498 1.498 0 0 0-1.258.576v-.636c-.037-.966-.75-1.787-1.716-1.75"/><path fill="url(#f2060id1)" d="M18.059 14.446c.5 0 1.5 0 2 1.5c.13.392.242.688.328 1.063c.547 3.093.075 4.416-.767 5.506c-1-2.778-2.647-5.116-2.647-5.116c-1-1.5.086-2.953 1.086-2.953"/><path fill="url(#f2060id2)" d="M18.059 14.446c.5 0 1.5 0 2 1.5c.13.392.242.688.328 1.063c.547 3.093.075 4.416-.767 5.506c-1-2.778-2.647-5.116-2.647-5.116c-1-1.5.086-2.953 1.086-2.953"/><path fill="url(#f2060id13)" d="M18.059 14.446c.5 0 1.5 0 2 1.5c.13.392.242.688.328 1.063c.547 3.093.075 4.416-.767 5.506c-1-2.778-2.647-5.116-2.647-5.116c-1-1.5.086-2.953 1.086-2.953"/><path fill="url(#f2060id3)" d="M18.059 14.446c.5 0 1.5 0 2 1.5c.13.392.242.688.328 1.063c.547 3.093.075 4.416-.767 5.506c-1-2.778-2.647-5.116-2.647-5.116c-1-1.5.086-2.953 1.086-2.953"/><path fill="url(#f2060id4)" d="M18.059 14.446c.5 0 1.5 0 2 1.5c.13.392.242.688.328 1.063c.547 3.093.075 4.416-.767 5.506c-1-2.778-2.647-5.116-2.647-5.116c-1-1.5.086-2.953 1.086-2.953"/><path fill="url(#f2060id5)" d="M22.559 10.446c-.357-.439-.895-.807-1.5-.75c-.742.07-1.591.788-1.5 1.75l.482 4.211c.171 1.672 2.041 1.43 2.877 0c-.289-1.375-.312-2.82-.359-5.21"/><path fill="url(#f2060id14)" d="M22.559 10.446c-.357-.439-.895-.807-1.5-.75c-.742.07-1.591.788-1.5 1.75l.482 4.211c.171 1.672 2.041 1.43 2.877 0c-.289-1.375-.312-2.82-.359-5.21"/><path fill="url(#f2060id15)" d="M22.559 10.446c-.357-.439-.895-.807-1.5-.75c-.742.07-1.591.788-1.5 1.75l.482 4.211c.171 1.672 2.041 1.43 2.877 0c-.289-1.375-.312-2.82-.359-5.21"/><path fill="url(#f2060id16)" d="M22.559 10.446c-.357-.439-.895-.807-1.5-.75c-.742.07-1.591.788-1.5 1.75l.482 4.211c.171 1.672 2.041 1.43 2.877 0c-.289-1.375-.312-2.82-.359-5.21"/><path fill="url(#f2060id6)" d="M22.559 10.446c-.357-.439-.895-.807-1.5-.75c-.742.07-1.591.788-1.5 1.75l.482 4.211c.171 1.672 2.041 1.43 2.877 0c-.289-1.375-.312-2.82-.359-5.21"/><ellipse fill="url(#f2060id7)" fill-opacity=".6" rx=".84" ry="1.171" transform="scale(-1 1)rotate(22.121 -39.084 -49.266)"/><path fill="url(#f2060id8)" d="M24.059 8.696c-.946.037-1.505.811-1.5 1.75c.011 2.313.11 4.14.36 5.219c.64 1.14 1.906.953 2.554.383c-.14-.742-.25-2.198-.105-3.496c.09-.809.23-1.184.407-1.47v-.636c-.037-.966-.75-1.787-1.716-1.75"/><path fill="url(#f2060id17)" d="M24.059 8.696c-.946.037-1.505.811-1.5 1.75c.011 2.313.11 4.14.36 5.219c.64 1.14 1.906.953 2.554.383c-.14-.742-.25-2.198-.105-3.496c.09-.809.23-1.184.407-1.47v-.636c-.037-.966-.75-1.787-1.716-1.75"/><path fill="url(#f2060id9)" d="M24.059 8.696c-.946.037-1.505.811-1.5 1.75c.011 2.313.11 4.14.36 5.219c.64 1.14 1.906.953 2.554.383c-.14-.742-.25-2.198-.105-3.496c.09-.809.23-1.184.407-1.47v-.636c-.037-.966-.75-1.787-1.716-1.75"/><ellipse fill="url(#f2060ida)" rx=".964" ry="1.171" transform="scale(-1 1)rotate(29.728 -31.093 -41.44)"/><path fill="url(#f2060idb)" d="M28.559 13.446v-1.5c.041-.827-.698-1.4-1.526-1.44a1.498 1.498 0 0 0-1.258.576c-.248.318-.394 1.111-.442 1.935c-.305 5.187 1.552 5.134 2.242 4.445c.054-.532.24-2.29.437-2.836c.14-.625.305-.93.547-1.18"/><path fill="url(#f2060id18)" d="M28.559 13.446v-1.5c.041-.827-.698-1.4-1.526-1.44a1.498 1.498 0 0 0-1.258.576c-.248.318-.394 1.111-.442 1.935c-.305 5.187 1.552 5.134 2.242 4.445c.054-.532.24-2.29.437-2.836c.14-.625.305-.93.547-1.18"/><path fill="url(#f2060idc)" d="M28.559 13.446v-1.5c.041-.827-.698-1.4-1.526-1.44a1.498 1.498 0 0 0-1.258.576c-.248.318-.394 1.111-.442 1.935c-.305 5.187 1.552 5.134 2.242 4.445c.054-.532.24-2.29.437-2.836c.14-.625.305-.93.547-1.18"/><ellipse fill="url(#f2060idd)" rx=".84" ry="1.171" transform="scale(-1 1)rotate(19.408 -48.41 -74.915)"/><path fill="url(#f2060ide)" d="M31.06 14.946c.098-.822-.368-1.73-1.527-1.868c-.429-.052-.668.111-.974.368c-.636.533-.89 2.906-.984 4.234c.377 1.487 1.203 2.704 2.689 3.229z"/><path fill="url(#f2060id19)" d="M31.06 14.946c.098-.822-.368-1.73-1.527-1.868c-.429-.052-.668.111-.974.368c-.636.533-.89 2.906-.984 4.234c.377 1.487 1.203 2.704 2.689 3.229z"/><path fill="url(#f2060idf)" d="M31.06 14.946c.098-.822-.368-1.73-1.527-1.868c-.429-.052-.668.111-.974.368c-.636.533-.89 2.906-.984 4.234c.377 1.487 1.203 2.704 2.689 3.229z"/><g filter="url(#f2060id1m)"><path fill="url(#f2060idg)" d="M24.704 25.137c2.316-2.028 3.062-5.666 3.873-7.898c.61-1.677 1.826-.663 1.71.208c-.143 1.067-.43 3.418-.673 4.93c-.305 1.89-1.986 3.61-3.15 4.053c-1.593.607-3.933.61-1.76-1.293"/></g><ellipse fill="url(#f2060idh)" rx=".84" ry="1.171" transform="scale(-1 1)rotate(19.408 -57.307 -80.8)"/><path fill="url(#f2060idi)" d="M7.941 8.696c.946.037 1.505.811 1.5 1.75c.357-.438.895-.807 1.5-.75c.742.07 1.591.788 1.5 1.75l-.5 4.5c.5-1.5 1.5-1.5 2-1.5c1 0 2.086 1.453 1.086 2.953c0 0-2.247 3.19-3.086 6.547c-.486 1.944-2.5 3.5-4.5 3.5c-2.931 0-5-2.5-5.5-5l-1-7.5c-.099-.822.367-1.73 1.527-1.868c.428-.052.667.111.973.368v-1.5c-.041-.827.698-1.4 1.526-1.44c.507-.026.968.204 1.258.576v-.636c.037-.966.75-1.787 1.716-1.75"/><path fill="url(#f2060idj)" d="M13.941 14.446c-.5 0-1.5 0-2 1.5c-.13.392-.242.688-.328 1.063c-.547 3.093-.075 4.416.767 5.506c1-2.778 2.647-5.116 2.647-5.116c1-1.5-.086-2.953-1.086-2.953"/><path fill="url(#f2060idk)" d="M13.941 14.446c-.5 0-1.5 0-2 1.5c-.13.392-.242.688-.328 1.063c-.547 3.093-.075 4.416.767 5.506c1-2.778 2.647-5.116 2.647-5.116c1-1.5-.086-2.953-1.086-2.953"/><path fill="url(#f2060id1a)" d="M13.941 14.446c-.5 0-1.5 0-2 1.5c-.13.392-.242.688-.328 1.063c-.547 3.093-.075 4.416.767 5.506c1-2.778 2.647-5.116 2.647-5.116c1-1.5-.086-2.953-1.086-2.953"/><path fill="url(#f2060idl)" d="M13.941 14.446c-.5 0-1.5 0-2 1.5c-.13.392-.242.688-.328 1.063c-.547 3.093-.075 4.416.767 5.506c1-2.778 2.647-5.116 2.647-5.116c1-1.5-.086-2.953-1.086-2.953"/><path fill="url(#f2060idm)" d="M13.941 14.446c-.5 0-1.5 0-2 1.5c-.13.392-.242.688-.328 1.063c-.547 3.093-.075 4.416.767 5.506c1-2.778 2.647-5.116 2.647-5.116c1-1.5-.086-2.953-1.086-2.953"/><path fill="url(#f2060idn)" d="M9.441 10.446c.357-.439.895-.807 1.5-.75c.742.07 1.591.788 1.5 1.75l-.482 4.211c-.171 1.672-2.041 1.43-2.877 0c.289-1.375.312-2.82.359-5.21"/><path fill="url(#f2060id1b)" d="M9.441 10.446c.357-.439.895-.807 1.5-.75c.742.07 1.591.788 1.5 1.75l-.482 4.211c-.171 1.672-2.041 1.43-2.877 0c.289-1.375.312-2.82.359-5.21"/><path fill="url(#f2060id1c)" d="M9.441 10.446c.357-.439.895-.807 1.5-.75c.742.07 1.591.788 1.5 1.75l-.482 4.211c-.171 1.672-2.041 1.43-2.877 0c.289-1.375.312-2.82.359-5.21"/><path fill="url(#f2060id1d)" d="M9.441 10.446c.357-.439.895-.807 1.5-.75c.742.07 1.591.788 1.5 1.75l-.482 4.211c-.171 1.672-2.041 1.43-2.877 0c.289-1.375.312-2.82.359-5.21"/><path fill="url(#f2060ido)" d="M9.441 10.446c.357-.439.895-.807 1.5-.75c.742.07 1.591.788 1.5 1.75l-.482 4.211c-.171 1.672-2.041 1.43-2.877 0c.289-1.375.312-2.82.359-5.21"/><ellipse cx="10.571" cy="11.091" fill="url(#f2060idp)" fill-opacity=".6" rx=".84" ry="1.171" transform="rotate(22.12 10.571 11.091)"/><path fill="url(#f2060idq)" d="M7.941 8.696c.946.037 1.505.811 1.5 1.75c-.011 2.313-.11 4.14-.36 5.219c-.64 1.14-1.906.953-2.554.383c.14-.742.25-2.198.105-3.496c-.09-.809-.23-1.184-.407-1.47v-.636c.037-.966.75-1.787 1.716-1.75"/><path fill="url(#f2060id1e)" d="M7.941 8.696c.946.037 1.505.811 1.5 1.75c-.011 2.313-.11 4.14-.36 5.219c-.64 1.14-1.906.953-2.554.383c.14-.742.25-2.198.105-3.496c-.09-.809-.23-1.184-.407-1.47v-.636c.037-.966.75-1.787 1.716-1.75"/><path fill="url(#f2060idr)" d="M7.941 8.696c.946.037 1.505.811 1.5 1.75c-.011 2.313-.11 4.14-.36 5.219c-.64 1.14-1.906.953-2.554.383c.14-.742.25-2.198.105-3.496c-.09-.809-.23-1.184-.407-1.47v-.636c.037-.966.75-1.787 1.716-1.75"/><ellipse cx="7.359" cy="9.965" fill="url(#f2060ids)" rx=".964" ry="1.171" transform="rotate(29.728 7.359 9.965)"/><path fill="url(#f2060idt)" d="M3.441 13.446v-1.5c-.041-.827.698-1.4 1.526-1.44c.507-.026.968.204 1.258.576c.248.318.394 1.111.443 1.935c.304 5.187-1.553 5.134-2.243 4.445c-.054-.532-.24-2.29-.437-2.836c-.14-.625-.305-.93-.547-1.18"/><path fill="url(#f2060id1f)" d="M3.441 13.446v-1.5c-.041-.827.698-1.4 1.526-1.44c.507-.026.968.204 1.258.576c.248.318.394 1.111.443 1.935c.304 5.187-1.553 5.134-2.243 4.445c-.054-.532-.24-2.29-.437-2.836c-.14-.625-.305-.93-.547-1.18"/><path fill="url(#f2060idu)" d="M3.441 13.446v-1.5c-.041-.827.698-1.4 1.526-1.44c.507-.026.968.204 1.258.576c.248.318.394 1.111.443 1.935c.304 5.187-1.553 5.134-2.243 4.445c-.054-.532-.24-2.29-.437-2.836c-.14-.625-.305-.93-.547-1.18"/><ellipse cx="4.355" cy="11.83" fill="url(#f2060idv)" rx=".84" ry="1.171" transform="rotate(19.408 4.355 11.83)"/><path fill="url(#f2060idw)" d="M.94 14.946c-.098-.822.368-1.73 1.527-1.868c.429-.052.668.111.974.368c.636.533.89 2.906.984 4.234c-.377 1.487-1.203 2.704-2.689 3.229z"/><path fill="url(#f2060id1g)" d="M.94 14.946c-.098-.822.368-1.73 1.527-1.868c.429-.052.668.111.974.368c.636.533.89 2.906.984 4.234c-.377 1.487-1.203 2.704-2.689 3.229z"/><path fill="url(#f2060idx)" d="M.94 14.946c-.098-.822.368-1.73 1.527-1.868c.429-.052.668.111.974.368c.636.533.89 2.906.984 4.234c-.377 1.487-1.203 2.704-2.689 3.229z"/><g filter="url(#f2060id1n)"><path fill="url(#f2060idy)" d="M7.296 25.137c-2.316-2.028-3.062-5.666-3.873-7.898c-.61-1.677-1.826-.663-1.71.208c.143 1.067.43 3.418.673 4.93c.305 1.89 1.986 3.61 3.15 4.053c1.593.607 3.933.61 1.76-1.293"/></g><ellipse cx="1.894" cy="14.452" fill="url(#f2060idz)" rx=".84" ry="1.171" transform="rotate(19.408 1.894 14.452)"/><path fill="#1F8BFB" d="m15.532 6.198l-.75-2.001a.5.5 0 0 1 .468-.676h1.5a.5.5 0 0 1 .468.676l-.75 2a.5.5 0 0 1-.936 0"/><path fill="url(#f2060id1h)" d="m15.532 6.198l-.75-2.001a.5.5 0 0 1 .468-.676h1.5a.5.5 0 0 1 .468.676l-.75 2a.5.5 0 0 1-.936 0"/><path fill="url(#f2060id10)" d="m15.532 6.198l-.75-2.001a.5.5 0 0 1 .468-.676h1.5a.5.5 0 0 1 .468.676l-.75 2a.5.5 0 0 1-.936 0"/><path fill="url(#f2060id1i)" d="m15.532 6.198l-.75-2.001a.5.5 0 0 1 .468-.676h1.5a.5.5 0 0 1 .468.676l-.75 2a.5.5 0 0 1-.936 0"/><path fill="#1F8BFB" d="m19.257 6.72l.657-2.02a.5.5 0 0 1 .787-.236l1.166.93a.5.5 0 0 1-.055.82l-1.823 1.09a.5.5 0 0 1-.732-.583"/><path fill="url(#f2060id1j)" d="m19.257 6.72l.657-2.02a.5.5 0 0 1 .787-.236l1.166.93a.5.5 0 0 1-.055.82l-1.823 1.09a.5.5 0 0 1-.732-.583"/><path fill="url(#f2060id11)" d="m19.257 6.72l.657-2.02a.5.5 0 0 1 .787-.236l1.166.93a.5.5 0 0 1-.055.82l-1.823 1.09a.5.5 0 0 1-.732-.583"/><path fill="#1F8BFB" d="m12.924 6.612l-.947-1.953a.5.5 0 0 0-.812-.127l-1.05 1.104a.5.5 0 0 0 .166.805l1.997.85a.5.5 0 0 0 .646-.679"/><path fill="url(#f2060id1k)" d="m12.924 6.612l-.947-1.953a.5.5 0 0 0-.812-.127l-1.05 1.104a.5.5 0 0 0 .166.805l1.997.85a.5.5 0 0 0 .646-.679"/><path fill="url(#f2060id12)" d="m12.924 6.612l-.947-1.953a.5.5 0 0 0-.812-.127l-1.05 1.104a.5.5 0 0 0 .166.805l1.997.85a.5.5 0 0 0 .646-.679"/><path fill="url(#f2060id1l)" d="m12.924 6.612l-.947-1.953a.5.5 0 0 0-.812-.127l-1.05 1.104a.5.5 0 0 0 .166.805l1.997.85a.5.5 0 0 0 .646-.679"/></g><defs><radialGradient id="f2060id0" cx="0" cy="0" r="1" gradientTransform="matrix(1.87492 19.75 -11.73355 1.1139 24.51 11.571)" gradientUnits="userSpaceOnUse"><stop stop-color="#FBB848"/><stop offset=".325" stop-color="#F8BA29"/><stop offset=".663" stop-color="#FFBF49"/><stop offset=".797" stop-color="#FFA15B"/><stop offset=".856" stop-color="#F98B73"/></radialGradient><radialGradient id="f2060id1" cx="0" cy="0" r="1" gradientTransform="matrix(9.17881 17.78127 -3.19315 1.64833 18.599 17.321)" gradientUnits="userSpaceOnUse"><stop stop-color="#F9C043"/><stop offset=".26" stop-color="#FFBD3C"/><stop offset=".674" stop-color="#F6A731"/><stop offset=".741" stop-color="#E2924D"/></radialGradient><radialGradient id="f2060id2" cx="0" cy="0" r="1" gradientTransform="rotate(-28.686 48.354 -24.048)scale(1.88798 3.65245)" gradientUnits="userSpaceOnUse"><stop stop-color="#F98B73"/><stop offset="1" stop-color="#F98B73" stop-opacity="0"/></radialGradient><radialGradient id="f2060id3" cx="0" cy="0" r="1" gradientTransform="matrix(-6.15523 -7.75428 2.70785 -2.14945 22.196 21.263)" gradientUnits="userSpaceOnUse"><stop offset=".751" stop-color="#D28A03" stop-opacity="0"/><stop offset="1" stop-color="#D28A03"/></radialGradient><radialGradient id="f2060id4" cx="0" cy="0" r="1" gradientTransform="matrix(-.90625 .4375 -1.56633 -3.24458 18.978 17.352)" gradientUnits="userSpaceOnUse"><stop stop-color="#FFCD6C"/><stop offset="1" stop-color="#FFC149" stop-opacity="0"/></radialGradient><radialGradient id="f2060id5" cx="0" cy="0" r="1" gradientTransform="matrix(1.68304 18.06246 -4.19444 .39083 21.235 13.821)" gradientUnits="userSpaceOnUse"><stop stop-color="#FFC352"/><stop offset=".272" stop-color="#FDBD42"/><stop offset=".422" stop-color="#F2A923"/></radialGradient><radialGradient id="f2060id6" cx="0" cy="0" r="1" gradientTransform="matrix(-5.24998 -6.16216 4.14966 -3.53539 24.228 15.852)" gradientUnits="userSpaceOnUse"><stop offset=".751" stop-color="#D28A03" stop-opacity="0"/><stop offset="1" stop-color="#D28A03"/></radialGradient><radialGradient id="f2060id7" cx="0" cy="0" r="1" gradientTransform="rotate(62.683 -.631 1.267)scale(1.07896 .89832)" gradientUnits="userSpaceOnUse"><stop stop-color="#FECF68"/><stop offset="1" stop-color="#F7C658" stop-opacity="0"/></radialGradient><radialGradient id="f2060id8" cx="0" cy="0" r="1" gradientTransform="matrix(-2.24148 23.2065 -5.62209 -.54303 25.217 11.062)" gradientUnits="userSpaceOnUse"><stop stop-color="#FFD93D"/><stop offset=".303" stop-color="#FCB84B"/><stop offset=".437" stop-color="#F2A923"/></radialGradient><radialGradient id="f2060id9" cx="0" cy="0" r="1" gradientTransform="matrix(-5.01583 -6.59352 4.33413 -3.29706 27.026 15.289)" gradientUnits="userSpaceOnUse"><stop offset=".751" stop-color="#D28A03" stop-opacity="0"/><stop offset="1" stop-color="#D28A03"/></radialGradient><radialGradient id="f2060ida" cx="0" cy="0" r="1" gradientTransform="matrix(.73722 .94172 -.84343 .66028 .813 1.257)" gradientUnits="userSpaceOnUse"><stop stop-color="#FFE65B"/><stop offset="1" stop-color="#FFE65D" stop-opacity="0"/></radialGradient><radialGradient id="f2060idb" cx="0" cy="0" r="1" gradientTransform="rotate(95.99 8.273 18.962)scale(21.7849 5.72377)" gradientUnits="userSpaceOnUse"><stop stop-color="#FFD93D"/><stop offset=".303" stop-color="#FBB43E"/><stop offset=".437" stop-color="#F2A626"/></radialGradient><radialGradient id="f2060idc" cx="0" cy="0" r="1" gradientTransform="rotate(-129.57 18.837 1.307)scale(7.98582 5.34932)" gradientUnits="userSpaceOnUse"><stop offset=".751" stop-color="#D28A03" stop-opacity="0"/><stop offset="1" stop-color="#D28A03"/></radialGradient><radialGradient id="f2060idd" cx="0" cy="0" r="1" gradientTransform="rotate(62.683 -.631 1.267)scale(1.07896 .89832)" gradientUnits="userSpaceOnUse"><stop stop-color="#FFE65B"/><stop offset="1" stop-color="#FFE65D" stop-opacity="0"/></radialGradient><radialGradient id="f2060ide" cx="0" cy="0" r="1" gradientTransform="rotate(95.969 8.275 21.446)scale(23.4396 6.13729)" gradientUnits="userSpaceOnUse"><stop stop-color="#FFD93D"/><stop offset=".303" stop-color="#FFBA40"/><stop offset=".437" stop-color="#F2A626"/></radialGradient><radialGradient id="f2060idf" cx="0" cy="0" r="1" gradientTransform="rotate(-129.471 20.863 2.193)scale(8.58043 5.74377)" gradientUnits="userSpaceOnUse"><stop offset=".751" stop-color="#D28A03" stop-opacity="0"/><stop offset="1" stop-color="#D28A03"/></radialGradient><radialGradient id="f2060idg" cx="0" cy="0" r="1" gradientTransform="rotate(-161.865 16.356 9.034)scale(2.44916 9.02353)" gradientUnits="userSpaceOnUse"><stop stop-color="#FFCF32"/><stop offset=".214" stop-color="#FFCE59"/><stop offset="1" stop-color="#FFCD5B" stop-opacity="0"/></radialGradient><radialGradient id="f2060idh" cx="0" cy="0" r="1" gradientTransform="rotate(62.683 -.631 1.267)scale(1.07896 .89832)" gradientUnits="userSpaceOnUse"><stop stop-color="#FFE65B"/><stop offset="1" stop-color="#FFE65D" stop-opacity="0"/></radialGradient><radialGradient id="f2060idi" cx="0" cy="0" r="1" gradientTransform="rotate(95.423 -1.517 9.192)scale(19.8388 11.7863)" gradientUnits="userSpaceOnUse"><stop stop-color="#FBB848"/><stop offset=".325" stop-color="#F8BA29"/><stop offset=".663" stop-color="#FFBF49"/><stop offset=".797" stop-color="#FFA15B"/><stop offset=".856" stop-color="#F98B73"/></radialGradient><radialGradient id="f2060idj" cx="0" cy="0" r="1" gradientTransform="matrix(-9.17878 17.78128 -3.19315 -1.64832 13.401 17.321)" gradientUnits="userSpaceOnUse"><stop stop-color="#F9C043"/><stop offset=".26" stop-color="#FFBD3C"/><stop offset=".674" stop-color="#F6A731"/><stop offset=".741" stop-color="#E2924D"/></radialGradient><radialGradient id="f2060idk" cx="0" cy="0" r="1" gradientTransform="rotate(-151.314 9.851 8.273)scale(1.88798 3.65245)" gradientUnits="userSpaceOnUse"><stop stop-color="#F98B73"/><stop offset="1" stop-color="#F98B73" stop-opacity="0"/></radialGradient><radialGradient id="f2060idl" cx="0" cy="0" r="1" gradientTransform="matrix(6.15524 -7.75427 2.70785 2.14945 9.804 21.263)" gradientUnits="userSpaceOnUse"><stop offset=".751" stop-color="#D28A03" stop-opacity="0"/><stop offset="1" stop-color="#D28A03"/></radialGradient><radialGradient id="f2060idm" cx="0" cy="0" r="1" gradientTransform="rotate(25.769 -31.418 37.14)scale(1.00633 3.60287)" gradientUnits="userSpaceOnUse"><stop stop-color="#FFCD6C"/><stop offset="1" stop-color="#FFC149" stop-opacity="0"/></radialGradient><radialGradient id="f2060idn" cx="0" cy="0" r="1" gradientTransform="matrix(-1.68292 18.06247 -4.19444 -.3908 10.765 13.821)" gradientUnits="userSpaceOnUse"><stop stop-color="#FFC352"/><stop offset=".272" stop-color="#FDBD42"/><stop offset=".422" stop-color="#F2A923"/></radialGradient><radialGradient id="f2060ido" cx="0" cy="0" r="1" gradientTransform="matrix(5.24998 -6.16216 4.14966 3.53539 7.772 15.853)" gradientUnits="userSpaceOnUse"><stop offset=".751" stop-color="#D28A03" stop-opacity="0"/><stop offset="1" stop-color="#D28A03"/></radialGradient><radialGradient id="f2060idp" cx="0" cy="0" r="1" gradientTransform="rotate(62.683 -3.91 14.216)scale(1.07897 .89832)" gradientUnits="userSpaceOnUse"><stop stop-color="#FECF68"/><stop offset="1" stop-color="#F7C658" stop-opacity="0"/></radialGradient><radialGradient id="f2060idq" cx="0" cy="0" r="1" gradientTransform="matrix(2.24148 23.2065 -5.62209 .54303 6.783 11.062)" gradientUnits="userSpaceOnUse"><stop stop-color="#FFD93D"/><stop offset=".303" stop-color="#FCB84B"/><stop offset=".437" stop-color="#F2A923"/></radialGradient><radialGradient id="f2060idr" cx="0" cy="0" r="1" gradientTransform="matrix(5.01583 -6.59352 4.33413 3.29706 4.974 15.289)" gradientUnits="userSpaceOnUse"><stop offset=".751" stop-color="#D28A03" stop-opacity="0"/><stop offset="1" stop-color="#D28A03"/></radialGradient><radialGradient id="f2060ids" cx="0" cy="0" r="1" gradientTransform="matrix(.73722 .94172 -.84343 .66028 7.208 10.05)" gradientUnits="userSpaceOnUse"><stop stop-color="#FFE65B"/><stop offset="1" stop-color="#FFE65D" stop-opacity="0"/></radialGradient><radialGradient id="f2060idt" cx="0" cy="0" r="1" gradientTransform="rotate(84.01 -5.056 8.58)scale(21.7849 5.72377)" gradientUnits="userSpaceOnUse"><stop stop-color="#FFD93D"/><stop offset=".303" stop-color="#FBB43E"/><stop offset=".437" stop-color="#F2A626"/></radialGradient><radialGradient id="f2060idu" cx="0" cy="0" r="1" gradientTransform="rotate(-50.43 18.775 6.025)scale(7.98582 5.34932)" gradientUnits="userSpaceOnUse"><stop offset=".751" stop-color="#D28A03" stop-opacity="0"/><stop offset="1" stop-color="#D28A03"/></radialGradient><radialGradient id="f2060idv" cx="0" cy="0" r="1" gradientTransform="rotate(62.683 -7.625 9.482)scale(1.07897 .89832)" gradientUnits="userSpaceOnUse"><stop stop-color="#FFE65B"/><stop offset="1" stop-color="#FFE65D" stop-opacity="0"/></radialGradient><radialGradient id="f2060idw" cx="0" cy="0" r="1" gradientTransform="rotate(84.031 -7.805 8.575)scale(23.4396 6.13729)" gradientUnits="userSpaceOnUse"><stop stop-color="#FFD93D"/><stop offset=".303" stop-color="#FFBA40"/><stop offset=".437" stop-color="#F2A626"/></radialGradient><radialGradient id="f2060idx" cx="0" cy="0" r="1" gradientTransform="matrix(5.45447 -6.62363 4.43388 3.65124 -.433 19.691)" gradientUnits="userSpaceOnUse"><stop offset=".751" stop-color="#D28A03" stop-opacity="0"/><stop offset="1" stop-color="#D28A03"/></radialGradient><radialGradient id="f2060idy" cx="0" cy="0" r="1" gradientTransform="matrix(2.3275 -.76232 2.80864 8.5753 2.913 22.71)" gradientUnits="userSpaceOnUse"><stop stop-color="#FFCF32"/><stop offset=".214" stop-color="#FFCE59"/><stop offset="1" stop-color="#FFCD5B" stop-opacity="0"/></radialGradient><radialGradient id="f2060idz" cx="0" cy="0" r="1" gradientTransform="rotate(62.683 -11.008 8.772)scale(1.07897 .89832)" gradientUnits="userSpaceOnUse"><stop stop-color="#FFE65B"/><stop offset="1" stop-color="#FFE65D" stop-opacity="0"/></radialGradient><radialGradient id="f2060id10" cx="0" cy="0" r="1" gradientTransform="rotate(151.607 8.423 4.263)scale(1.31436 1.4542)" gradientUnits="userSpaceOnUse"><stop stop-color="#1B77D7"/><stop offset="1" stop-color="#1B77D7" stop-opacity="0"/></radialGradient><radialGradient id="f2060id11" cx="0" cy="0" r="1" gradientTransform="matrix(-1.51563 0 0 -1.49593 22.719 5.866)" gradientUnits="userSpaceOnUse"><stop stop-color="#1B77D7"/><stop offset="1" stop-color="#1B77D7" stop-opacity="0"/></radialGradient><radialGradient id="f2060id12" cx="0" cy="0" r="1" gradientTransform="matrix(-1.38639 .61543 -.60363 -1.3598 13.706 4.857)" gradientUnits="userSpaceOnUse"><stop stop-color="#1B77D7"/><stop offset="1" stop-color="#1B77D7" stop-opacity="0"/></radialGradient><linearGradient id="f2060id13" x1="20.622" x2="19.297" y1="16.321" y2="16.839" gradientUnits="userSpaceOnUse"><stop stop-color="#D28A03"/><stop offset="1" stop-color="#D28A03" stop-opacity="0"/></linearGradient><linearGradient id="f2060id14" x1="20.978" x2="19.723" y1="16.985" y2="12.966" gradientUnits="userSpaceOnUse"><stop stop-color="#F9BB2A"/><stop offset="1" stop-color="#FDC03E" stop-opacity="0"/></linearGradient><linearGradient id="f2060id15" x1="23.884" x2="21.603" y1="12.227" y2="12.696" gradientUnits="userSpaceOnUse"><stop stop-color="#D28A03"/><stop offset="1" stop-color="#D28A03" stop-opacity="0"/></linearGradient><linearGradient id="f2060id16" x1="18.322" x2="20.228" y1="13.665" y2="13.509" gradientUnits="userSpaceOnUse"><stop stop-color="#D28A03"/><stop offset="1" stop-color="#D28A03" stop-opacity="0"/></linearGradient><linearGradient id="f2060id17" x1="23.791" x2="22.746" y1="16.5" y2="12.193" gradientUnits="userSpaceOnUse"><stop stop-color="#F9BA30"/><stop offset="1" stop-color="#FDC03E" stop-opacity="0"/></linearGradient><linearGradient id="f2060id18" x1="25.299" x2="25.471" y1="16.884" y2="13.774" gradientUnits="userSpaceOnUse"><stop stop-color="#F9BB2A"/><stop offset="1" stop-color="#FDC03E" stop-opacity="0"/></linearGradient><linearGradient id="f2060id19" x1="27.697" x2="27.759" y1="19.04" y2="16.587" gradientUnits="userSpaceOnUse"><stop stop-color="#FDC03E"/><stop offset="1" stop-color="#FDC03E" stop-opacity="0"/></linearGradient><linearGradient id="f2060id1a" x1="11.378" x2="12.703" y1="16.321" y2="16.839" gradientUnits="userSpaceOnUse"><stop stop-color="#D28A03"/><stop offset="1" stop-color="#D28A03" stop-opacity="0"/></linearGradient><linearGradient id="f2060id1b" x1="11.022" x2="12.277" y1="16.985" y2="12.966" gradientUnits="userSpaceOnUse"><stop stop-color="#F9BB2A"/><stop offset="1" stop-color="#FDC03E" stop-opacity="0"/></linearGradient><linearGradient id="f2060id1c" x1="8.116" x2="10.397" y1="12.227" y2="12.696" gradientUnits="userSpaceOnUse"><stop stop-color="#D28A03"/><stop offset="1" stop-color="#D28A03" stop-opacity="0"/></linearGradient><linearGradient id="f2060id1d" x1="13.678" x2="11.772" y1="13.665" y2="13.509" gradientUnits="userSpaceOnUse"><stop stop-color="#D28A03"/><stop offset="1" stop-color="#D28A03" stop-opacity="0"/></linearGradient><linearGradient id="f2060id1e" x1="8.21" x2="9.254" y1="16.5" y2="12.193" gradientUnits="userSpaceOnUse"><stop stop-color="#F9BA30"/><stop offset="1" stop-color="#FDC03E" stop-opacity="0"/></linearGradient><linearGradient id="f2060id1f" x1="6.701" x2="6.529" y1="16.884" y2="13.774" gradientUnits="userSpaceOnUse"><stop stop-color="#F9BB2A"/><stop offset="1" stop-color="#FDC03E" stop-opacity="0"/></linearGradient><linearGradient id="f2060id1g" x1="4.303" x2="4.241" y1="19.04" y2="16.587" gradientUnits="userSpaceOnUse"><stop stop-color="#FDC03E"/><stop offset="1" stop-color="#FDC03E" stop-opacity="0"/></linearGradient><linearGradient id="f2060id1h" x1="14.749" x2="15.453" y1="4.884" y2="4.603" gradientUnits="userSpaceOnUse"><stop stop-color="#1B77D7"/><stop offset="1" stop-color="#1B77D7" stop-opacity="0"/></linearGradient><linearGradient id="f2060id1i" x1="16.922" x2="16.25" y1="5.837" y2="5.524" gradientUnits="userSpaceOnUse"><stop stop-color="#41A5FF"/><stop offset="1" stop-color="#41A5FF" stop-opacity="0"/></linearGradient><linearGradient id="f2060id1j" x1="19.578" x2="20.047" y1="5.337" y2="5.493" gradientUnits="userSpaceOnUse"><stop stop-color="#1B77D7"/><stop offset="1" stop-color="#1B77D7" stop-opacity="0"/></linearGradient><linearGradient id="f2060id1k" x1="10.11" x2="10.555" y1="6.602" y2="5.767" gradientUnits="userSpaceOnUse"><stop stop-color="#1B77D7"/><stop offset="1" stop-color="#1B77D7" stop-opacity="0"/></linearGradient><linearGradient id="f2060id1l" x1="12.976" x2="12.293" y1="5.759" y2="6.093" gradientUnits="userSpaceOnUse"><stop stop-color="#41A5FF"/><stop offset="1" stop-color="#41A5FF" stop-opacity="0"/></linearGradient><filter id="f2060id1m" width="7.47" height="11.453" x="23.324" y="15.837" color-interpolation-filters="sRGB" filterUnits="userSpaceOnUse"><feFlood flood-opacity="0" result="BackgroundImageFix"/><feBlend in="SourceGraphic" in2="BackgroundImageFix" result="shape"/><feGaussianBlur result="effect1_foregroundBlur_20020_6080" stdDeviation=".25"/></filter><filter id="f2060id1n" width="7.47" height="11.453" x="1.206" y="15.837" color-interpolation-filters="sRGB" filterUnits="userSpaceOnUse"><feFlood flood-opacity="0" result="BackgroundImageFix"/><feBlend in="SourceGraphic" in2="BackgroundImageFix" result="shape"/><feGaussianBlur result="effect1_foregroundBlur_20020_6080" stdDeviation=".25"/></filter><clipPath id="f2060id1o"><path fill="#fff" d="M0 .5h32v32H0z"/></clipPath></defs></g></svg>