<svg xmlns="http://www.w3.org/2000/svg" width="1em" height="1em" viewBox="0 0 32 32"><g fill="none"><path fill="url(#f2134idd)" d="m21.99 18l-8-15v15z"/><path fill="url(#f2134id0)" d="m7.99 18l5-12v12z"/><path fill="url(#f2134id1)" d="m7.99 18l5-12v12z"/><path fill="url(#f2134id2)" d="m7.99 18l5-12v12z"/><g filter="url(#f2134ida)"><path fill="url(#f2134id3)" d="M13.49 2a.5.5 0 0 0-.5.5v15.45a.05.05 0 0 1-.05.05H7.49a.5.5 0 0 0 0 1h5.45a.05.05 0 0 1 .05.05v1.637a.5.5 0 1 0 1 0V19.05a.05.05 0 0 1 .05-.05h8.45a.5.5 0 0 0 0-1h-8.45a.05.05 0 0 1-.05-.05V2.5a.5.5 0 0 0-.5-.5"/></g><g filter="url(#f2134idb)"><path fill="url(#f2134id4)" d="M13.49 2a.5.5 0 0 0-.5.5v15.45a.05.05 0 0 1-.05.05H7.49a.5.5 0 0 0 0 1h5.45a.05.05 0 0 1 .05.05v1.637a.5.5 0 1 0 1 0V19.05a.05.05 0 0 1 .05-.05h8.45a.5.5 0 0 0 0-1h-8.45a.05.05 0 0 1-.05-.05V2.5a.5.5 0 0 0-.5-.5"/></g><rect width="24" height="2" x="3.99" y="20" fill="url(#f2134id5)" rx="1"/><rect width="24" height="2" x="3.99" y="20" fill="url(#f2134id6)" rx="1"/><path fill="url(#f2134id7)" d="m8.99 27l-3-5h21v5z"/><path fill="url(#f2134id8)" d="m8.99 27l-3-5h21v5z"/><path fill="url(#f2134id9)" d="m8.99 27l-3-5h21v5z"/><g filter="url(#f2134idc)"><path fill="url(#f2134ide)" d="M30 24c-1.75 0-1.75 1-3.51 1c-1.75 0-1.75-1-3.51-1c-1.75 0-1.74 1-3.49 1c-1.75 0-1.76-1-3.51-1c-1.75 0-1.74 1-3.49 1c-1.75 0-1.76-1-3.51-1c-1.75 0-1.75 1-3.49 1c-1.75 0-1.75-1-3.5-1v6h28z"/></g><defs><linearGradient id="f2134id0" x1="8.811" x2="12.99" y1="16.188" y2="16.188" gradientUnits="userSpaceOnUse"><stop stop-color="#FFA251"/><stop offset="1" stop-color="#FFBA57"/></linearGradient><linearGradient id="f2134id1" x1="13.103" x2="12.752" y1="15.449" y2="15.449" gradientUnits="userSpaceOnUse"><stop stop-color="#D7976C"/><stop offset="1" stop-color="#D7976C" stop-opacity="0"/></linearGradient><linearGradient id="f2134id2" x1="10.49" x2="10.865" y1="11.844" y2="12" gradientUnits="userSpaceOnUse"><stop stop-color="#FDA150"/><stop offset="1" stop-color="#FDA150" stop-opacity="0"/></linearGradient><linearGradient id="f2134id3" x1="13.99" x2="13.99" y1="19.152" y2="2.677" gradientUnits="userSpaceOnUse"><stop stop-color="#FFF8F6"/><stop offset="1" stop-color="#fff"/></linearGradient><linearGradient id="f2134id4" x1="13.99" x2="13.99" y1="19.152" y2="2.677" gradientUnits="userSpaceOnUse"><stop stop-color="#FFF8F6"/><stop offset="1" stop-color="#fff"/></linearGradient><linearGradient id="f2134id5" x1="15.99" x2="15.99" y1="18.5" y2="26.5" gradientUnits="userSpaceOnUse"><stop offset=".1" stop-color="#FE915D"/><stop offset=".285" stop-color="#FFA357"/><stop offset=".494" stop-color="#C74735"/></linearGradient><linearGradient id="f2134id6" x1="3.99" x2="4.936" y1="21" y2="21" gradientUnits="userSpaceOnUse"><stop stop-color="#C36C42"/><stop offset="1" stop-color="#C36C42" stop-opacity="0"/></linearGradient><linearGradient id="f2134id7" x1="16.49" x2="16.49" y1="22" y2="25.746" gradientUnits="userSpaceOnUse"><stop stop-color="#E65B50"/><stop offset="1" stop-color="#DA5B4C"/></linearGradient><linearGradient id="f2134id8" x1="16.49" x2="16.49" y1="22" y2="22.539" gradientUnits="userSpaceOnUse"><stop stop-color="#C64733"/><stop offset="1" stop-color="#C64733" stop-opacity="0"/></linearGradient><linearGradient id="f2134id9" x1="7" x2="7.349" y1="23.677" y2="23.471" gradientUnits="userSpaceOnUse"><stop offset=".418" stop-color="#C64733"/><stop offset="1" stop-color="#C64733" stop-opacity="0"/></linearGradient><filter id="f2134ida" width="16" height="19.387" x="6.99" y="1.8" color-interpolation-filters="sRGB" filterUnits="userSpaceOnUse"><feFlood flood-opacity="0" result="BackgroundImageFix"/><feBlend in="SourceGraphic" in2="BackgroundImageFix" result="shape"/><feColorMatrix in="SourceAlpha" result="hardAlpha" values="0 0 0 0 0 0 0 0 0 0 0 0 0 0 0 0 0 0 127 0"/><feOffset dy="-.2"/><feGaussianBlur stdDeviation=".2"/><feComposite in2="hardAlpha" k2="-1" k3="1" operator="arithmetic"/><feColorMatrix values="0 0 0 0 0.901961 0 0 0 0 0.611765 0 0 0 0 0.576471 0 0 0 1 0"/><feBlend in2="shape" result="effect1_innerShadow_18_12128"/></filter><filter id="f2134idb" width="16.2" height="19.387" x="6.99" y="1.8" color-interpolation-filters="sRGB" filterUnits="userSpaceOnUse"><feFlood flood-opacity="0" result="BackgroundImageFix"/><feBlend in="SourceGraphic" in2="BackgroundImageFix" result="shape"/><feColorMatrix in="SourceAlpha" result="hardAlpha" values="0 0 0 0 0 0 0 0 0 0 0 0 0 0 0 0 0 0 127 0"/><feOffset dy="-.2"/><feGaussianBlur stdDeviation=".2"/><feComposite in2="hardAlpha" k2="-1" k3="1" operator="arithmetic"/><feColorMatrix values="0 0 0 0 0.901961 0 0 0 0 0.611765 0 0 0 0 0.576471 0 0 0 1 0"/><feBlend in2="shape" result="effect1_innerShadow_18_12128"/><feColorMatrix in="SourceAlpha" result="hardAlpha" values="0 0 0 0 0 0 0 0 0 0 0 0 0 0 0 0 0 0 127 0"/><feOffset dx=".2"/><feGaussianBlur stdDeviation=".2"/><feComposite in2="hardAlpha" k2="-1" k3="1" operator="arithmetic"/><feColorMatrix values="0 0 0 0 0.768627 0 0 0 0 0.662745 0 0 0 0 0.678431 0 0 0 1 0"/><feBlend in2="effect1_innerShadow_18_12128" result="effect2_innerShadow_18_12128"/></filter><filter id="f2134idc" width="28.61" height="6.6" x="1.39" y="24" color-interpolation-filters="sRGB" filterUnits="userSpaceOnUse"><feFlood flood-opacity="0" result="BackgroundImageFix"/><feBlend in="SourceGraphic" in2="BackgroundImageFix" result="shape"/><feColorMatrix in="SourceAlpha" result="hardAlpha" values="0 0 0 0 0 0 0 0 0 0 0 0 0 0 0 0 0 0 127 0"/><feOffset dx="-.6" dy=".6"/><feGaussianBlur stdDeviation=".3"/><feComposite in2="hardAlpha" k2="-1" k3="1" operator="arithmetic"/><feColorMatrix values="0 0 0 0 0.384314 0 0 0 0 0.67451 0 0 0 0 0.996078 0 0 0 1 0"/><feBlend in2="shape" result="effect1_innerShadow_18_12128"/><feColorMatrix in="SourceAlpha" result="hardAlpha" values="0 0 0 0 0 0 0 0 0 0 0 0 0 0 0 0 0 0 127 0"/><feOffset dy=".4"/><feGaussianBlur stdDeviation=".2"/><feComposite in2="hardAlpha" k2="-1" k3="1" operator="arithmetic"/><feColorMatrix values="0 0 0 0 0.305882 0 0 0 0 0.556863 0 0 0 0 0.882353 0 0 0 1 0"/><feBlend in2="effect1_innerShadow_18_12128" result="effect2_innerShadow_18_12128"/></filter><radialGradient id="f2134idd" cx="0" cy="0" r="1" gradientTransform="matrix(-6.00681 3.78811 -6.50824 -10.32012 19.689 13.32)" gradientUnits="userSpaceOnUse"><stop stop-color="#FFE85A"/><stop offset="1" stop-color="#FFC75B"/></radialGradient><radialGradient id="f2134ide" cx="0" cy="0" r="1" gradientTransform="matrix(0 -4.84893 21.462 0 18.84 30)" gradientUnits="userSpaceOnUse"><stop stop-color="#51A9FF"/><stop offset="1" stop-color="#529DF9"/></radialGradient></defs></g></svg>