<svg xmlns="http://www.w3.org/2000/svg" width="1em" height="1em" viewBox="0 0 32 32"><defs><path id="f2279id0" fill="#FAB240" d="M8.165 5.916c.2.2.52.2.72 0l.96-.96c.2-.2.2-.52 0-.72c-.2-.2-.52-.2-.72 0l-.96.96c-.2.2-.2.52 0 .72"/></defs><g fill="none"><path fill="url(#f2279id1)" d="M12.995 13.106h-.99v2.04h.99z"/><path fill="url(#f2279id2)" d="M12.995 13.106h-.99v2.04h.99z"/><path fill="url(#f2279id3)" d="M3.995 12.576h-1v3.5h1z"/><path fill="url(#f2279id1a)" d="M3.995 12.576h-1v3.5h1z"/><path fill="url(#f2279id4)" d="M7.975 12.576h-1v3.5h1z"/><path fill="url(#f2279id1b)" d="M7.975 12.576h-1v3.5h1z"/><path fill="url(#f2279id5)" d="M19.995 13.076h-1.01v2.03h1.01z"/><path fill="url(#f2279id6)" d="M19.995 13.076h-1.01v2.03h1.01z"/><path fill="url(#f2279id7)" d="M22.985 12.076h-1.01v4h1.01z"/><path fill="url(#f2279id1c)" d="M22.985 12.076h-1.01v4h1.01z"/><path fill="url(#f2279id8)" d="M27.005 12.076h-1.01v4h1.01z"/><path fill="url(#f2279id1d)" d="M27.005 12.076h-1.01v4h1.01z"/><path fill="url(#f2279id9)" d="M30.005 18.036v12.07h-28v-12.07c0-.1.01-.2.02-.3c.02-.22.06-.43.13-.63c.01-.02.01-.04.02-.06a2.95 2.95 0 0 1 2.76-1.94h22.14c1.27 0 2.35.81 2.76 1.94c.01.02.01.04.02.06c.05.15.09.32.11.49c.03.14.04.29.04.44"/><path fill="url(#f2279ida)" d="M30.005 18.036v12.07h-28v-12.07c0-.1.01-.2.02-.3c.02-.22.06-.43.13-.63c.01-.02.01-.04.02-.06a2.95 2.95 0 0 1 2.76-1.94h22.14c1.27 0 2.35.81 2.76 1.94c.01.02.01.04.02.06c.05.15.09.32.11.49c.03.14.04.29.04.44"/><path fill="url(#f2279idb)" d="M30.005 18.036v12.07h-28v-12.07c0-.1.01-.2.02-.3c.02-.22.06-.43.13-.63c.01-.02.01-.04.02-.06a2.95 2.95 0 0 1 2.76-1.94h22.14c1.27 0 2.35.81 2.76 1.94c.01.02.01.04.02.06c.05.15.09.32.11.49c.03.14.04.29.04.44"/><path fill="url(#f2279idc)" d="M30.005 18.036v12.07h-28v-12.07c0-.1.01-.2.02-.3c.02-.22.06-.43.13-.63c.01-.02.01-.04.02-.06a2.95 2.95 0 0 1 2.76-1.94h22.14c1.27 0 2.35.81 2.76 1.94c.01.02.01.04.02.06c.05.15.09.32.11.49c.03.14.04.29.04.44"/><g filter="url(#f2279ido)"><path fill="url(#f2279idd)" d="M6.995 23.086c-1.66 0-3 1.34-3 3v4.02h6v-4.02c0-1.65-1.35-3-3-3"/></g><g filter="url(#f2279idp)"><path fill="url(#f2279ide)" d="M15.985 21.086c-1.66 0-3 1.34-3 3v6.02h6v-6.02c0-1.66-1.34-3-3-3"/></g><g filter="url(#f2279idq)"><path fill="url(#f2279idf)" d="M24.995 23.096c-1.66 0-3 1.34-3 3v4.01h6v-4.01c0-1.65-1.35-3-3-3"/></g><g filter="url(#f2279idr)"><path fill="url(#f2279idg)" d="M20.055 13.106h-8.09a.96.96 0 0 1-.96-.96v-4.08c0-.53.43-.96.96-.96h8.09c.53 0 .96.43.96.96v4.08c0 .53-.43.96-.96.96"/></g><g filter="url(#f2279ids)"><path fill="url(#f2279id1e)" d="M2.995 11.516v1.14c0 .32.4.53.77.41l1.95-.62c.38-.12.38-.55 0-.67l-2.01-.65c-.34-.09-.71.1-.71.39"/></g><g filter="url(#f2279idt)"><path fill="url(#f2279id1f)" d="M6.975 11.516v1.14c0 .32.4.53.77.41l1.95-.62c.38-.12.38-.55 0-.67l-2.01-.65c-.34-.09-.71.1-.71.39"/></g><g filter="url(#f2279idu)"><path fill="url(#f2279id1g)" d="M21.975 11.526v1.13c0 .31.4.53.77.41l1.95-.61c.38-.12.38-.54 0-.66l-2.01-.64c-.34-.11-.71.08-.71.37"/></g><g filter="url(#f2279idv)"><path fill="url(#f2279id1h)" d="M25.995 11.526v1.14c0 .32.4.53.77.41l1.95-.61c.38-.12.38-.54 0-.67l-2.01-.65c-.34-.11-.71.09-.71.38"/></g><path fill="url(#f2279idh)" d="M30.005 18.026v.07h-28v-.07c0-.1.01-.2.02-.3c.02-.22.06-.43.13-.63h27.7c.05.15.09.32.11.49c.03.14.04.29.04.44"/><g filter="url(#f2279idw)"><path fill="#FFB340" d="M12.485 9.096a.49.49 0 1 1 .49-.49c.01.27-.22.49-.49.49"/></g><g filter="url(#f2279idx)"><path fill="#42DC80" d="M15.495 9.096a.49.49 0 1 1 .49-.49c.01.27-.21.49-.49.49"/></g><g filter="url(#f2279idy)"><path fill="#FF8738" d="M19.495 12.106a.49.49 0 1 1 .002-.982a.49.49 0 0 1-.002.982"/><path fill="url(#f2279id1i)" d="M19.495 12.106a.49.49 0 1 1 .002-.982a.49.49 0 0 1-.002.982"/></g><g filter="url(#f2279idz)"><path fill="#FFB340" d="M13.555 12.096h-1.14c-.23 0-.42-.19-.42-.42v-1.14c0-.23.19-.42.42-.42h1.14c.23 0 .42.19.42.42v1.14a.41.41 0 0 1-.42.42"/></g><g filter="url(#f2279id10)"><path fill="#42DC80" d="M16.565 12.096h-1.14c-.23 0-.42-.19-.42-.42v-1.14c0-.23.19-.42.42-.42h1.14c.23 0 .42.19.42.42v1.14a.41.41 0 0 1-.42.42"/></g><g filter="url(#f2279id11)"><path fill="#FF8738" d="M19.495 9.096h-1a.49.49 0 0 1 0-.98h1a.49.49 0 0 1 0 .98"/><path fill="url(#f2279id1j)" d="M19.495 9.096h-1a.49.49 0 0 1 0-.98h1a.49.49 0 0 1 0 .98"/></g><path fill="url(#f2279id1k)" d="M5.475 5.106a.5.5 0 1 0 0-1a.5.5 0 0 0 0 1"/><path fill="url(#f2279id1l)" d="M7.495 9.106a.5.5 0 1 0 0-1a.5.5 0 0 0 0 1"/><path fill="url(#f2279id1m)" d="M11.475 6.106a.5.5 0 1 0 0-1a.5.5 0 0 0 0 1"/><path fill="url(#f2279id1n)" d="M23.495 10.106a.5.5 0 1 0 0-1a.5.5 0 0 0 0 1"/><path fill="url(#f2279id1o)" d="M28.475 10.086a.5.5 0 1 0 0-1a.5.5 0 0 0 0 1"/><path fill="url(#f2279id1p)" d="M27.445 5.116a.5.5 0 1 0 0-1a.5.5 0 0 0 0 1"/><g filter="url(#f2279id12)"><path fill="#836898" d="M5.815 9.916c-.2.2-.52.2-.72 0l-.96-.96c-.2-.2-.2-.52 0-.72c.2-.2.52-.2.72 0l.96.96c.2.2.2.52 0 .72"/></g><g filter="url(#f2279id13)"><path fill="#836898" d="M22.795 6.956c-.2.2-.52.2-.72 0l-.96-.96c-.2-.2-.2-.52 0-.72c.2-.2.52-.2.72 0l.96.96c.2.2.2.52 0 .72"/></g><g filter="url(#f2279id14)"><use href="#f2279id0"/></g><g filter="url(#f2279id15)"><use href="#f2279id0"/><path fill="url(#f2279idi)" d="M8.165 5.916c.2.2.52.2.72 0l.96-.96c.2-.2.2-.52 0-.72c-.2-.2-.52-.2-.72 0l-.96.96c-.2.2-.2.52 0 .72"/></g><path fill="url(#f2279idj)" d="M8.165 5.916c.2.2.52.2.72 0l.96-.96c.2-.2.2-.52 0-.72c-.2-.2-.52-.2-.72 0l-.96.96c-.2.2-.2.52 0 .72"/><g filter="url(#f2279id16)"><path fill="#48DC86" d="M25.095 8.916c.2.2.52.2.72 0l.96-.96c.2-.2.2-.52 0-.72c-.2-.2-.52-.2-.72 0l-.96.96c-.19.2-.19.52 0 .72"/></g><path fill="url(#f2279id1q)" d="M25.095 8.916c.2.2.52.2.72 0l.96-.96c.2-.2.2-.52 0-.72c-.2-.2-.52-.2-.72 0l-.96.96c-.19.2-.19.52 0 .72"/><path fill="url(#f2279idk)" fill-opacity=".2" d="M25.095 8.916c.2.2.52.2.72 0l.96-.96c.2-.2.2-.52 0-.72c-.2-.2-.52-.2-.72 0l-.96.96c-.19.2-.19.52 0 .72"/><g filter="url(#f2279id17)"><path stroke="url(#f2279idl)" stroke-linecap="round" stroke-width=".6" d="M14.661 22.247c-.335.053-1.006.531-1.006 2.012v5.434"/></g><g filter="url(#f2279id18)"><path stroke="url(#f2279idm)" stroke-linecap="round" stroke-width=".6" d="M5.805 24.46c-.328.038-.984.374-.984 1.415v3.818"/></g><g filter="url(#f2279id19)"><path stroke="url(#f2279idn)" stroke-linecap="round" stroke-width=".6" d="M23.629 24.46c-.328.038-.984.374-.984 1.415v3.818"/></g><defs><linearGradient id="f2279id1" x1="12.617" x2="11.823" y1="14.126" y2="14.126" gradientUnits="userSpaceOnUse"><stop stop-color="#E1D8E1"/><stop offset=".889" stop-color="#79767B"/></linearGradient><linearGradient id="f2279id2" x1="13.096" x2="12.829" y1="12.983" y2="13.697" gradientUnits="userSpaceOnUse"><stop stop-color="#7D7282"/><stop offset="1" stop-color="#7D7282" stop-opacity="0"/></linearGradient><linearGradient id="f2279id3" x1="3.673" x2="2.896" y1="14.326" y2="14.326" gradientUnits="userSpaceOnUse"><stop stop-color="#E1D8E1"/><stop offset="1" stop-color="#79767B"/></linearGradient><linearGradient id="f2279id4" x1="7.653" x2="6.876" y1="14.326" y2="14.326" gradientUnits="userSpaceOnUse"><stop stop-color="#E1D8E1"/><stop offset="1" stop-color="#79767B"/></linearGradient><linearGradient id="f2279id5" x1="19.609" x2="18.8" y1="14.091" y2="14.091" gradientUnits="userSpaceOnUse"><stop stop-color="#E1D8E1"/><stop offset=".843" stop-color="#79767B"/></linearGradient><linearGradient id="f2279id6" x1="20.098" x2="19.838" y1="12.954" y2="13.668" gradientUnits="userSpaceOnUse"><stop stop-color="#7D7282"/><stop offset="1" stop-color="#7D7282" stop-opacity="0"/></linearGradient><linearGradient id="f2279id7" x1="22.66" x2="21.875" y1="14.076" y2="14.076" gradientUnits="userSpaceOnUse"><stop stop-color="#E1D8E1"/><stop offset="1" stop-color="#79767B"/></linearGradient><linearGradient id="f2279id8" x1="26.68" x2="25.895" y1="14.076" y2="14.076" gradientUnits="userSpaceOnUse"><stop stop-color="#E1D8E1"/><stop offset="1" stop-color="#79767B"/></linearGradient><linearGradient id="f2279id9" x1="17.155" x2="17.155" y1="31.22" y2="14.683" gradientUnits="userSpaceOnUse"><stop stop-color="#D5C6DE"/><stop offset=".816" stop-color="#D5C6DE"/><stop offset=".84" stop-color="#D2CFD4"/><stop offset="1" stop-color="#D2CFD4"/></linearGradient><linearGradient id="f2279ida" x1="30.898" x2="25.424" y1="30.106" y2="30.106" gradientUnits="userSpaceOnUse"><stop stop-color="#F7F5F8"/><stop offset="1" stop-color="#F7F5F8" stop-opacity="0"/></linearGradient><linearGradient id="f2279idb" x1="1.325" x2="6.062" y1="27.076" y2="27.076" gradientUnits="userSpaceOnUse"><stop stop-color="#6F6774"/><stop offset="1" stop-color="#6F6774" stop-opacity="0"/></linearGradient><linearGradient id="f2279idc" x1="16.005" x2="16.005" y1="14.898" y2="15.883" gradientUnits="userSpaceOnUse"><stop stop-color="#B4B3B5"/><stop offset="1" stop-color="#B4B3B5" stop-opacity="0"/></linearGradient><linearGradient id="f2279idd" x1="5.702" x2="10.953" y1="26.595" y2="26.595" gradientUnits="userSpaceOnUse"><stop stop-color="#4E3E5C"/><stop offset="1" stop-color="#1E1A21"/></linearGradient><linearGradient id="f2279ide" x1="14.693" x2="19.942" y1="25.595" y2="25.595" gradientUnits="userSpaceOnUse"><stop stop-color="#4E3E5C"/><stop offset="1" stop-color="#1E1A21"/></linearGradient><linearGradient id="f2279idf" x1="23.703" x2="28.953" y1="26.6" y2="26.6" gradientUnits="userSpaceOnUse"><stop stop-color="#4E3E5C"/><stop offset="1" stop-color="#1E1A21"/></linearGradient><linearGradient id="f2279idg" x1="11.002" x2="21.012" y1="10.106" y2="10.106" gradientUnits="userSpaceOnUse"><stop stop-color="#3C373F"/><stop offset="1" stop-color="#574468"/></linearGradient><linearGradient id="f2279idh" x1="2" x2="30" y1="17.593" y2="17.593" gradientUnits="userSpaceOnUse"><stop stop-color="#8D3255"/><stop offset=".281" stop-color="#E03970"/><stop offset=".698" stop-color="#EF3849"/><stop offset="1" stop-color="#FF525E"/></linearGradient><linearGradient id="f2279idi" x1="8.208" x2="8.911" y1="6.164" y2="5.492" gradientUnits="userSpaceOnUse"><stop stop-color="#BA652C"/><stop offset="1" stop-color="#BA652C" stop-opacity="0"/></linearGradient><linearGradient id="f2279idj" x1="9.995" x2="9.38" y1="4.211" y2="4.789" gradientUnits="userSpaceOnUse"><stop stop-color="#FFF05C"/><stop offset="1" stop-color="#FFF05C" stop-opacity="0"/></linearGradient><linearGradient id="f2279idk" x1="25.357" x2="25.7" y1="8.977" y2="8.563" gradientUnits="userSpaceOnUse"><stop stop-color="#3E956F"/><stop offset="1" stop-color="#3E956F" stop-opacity="0"/></linearGradient><linearGradient id="f2279idl" x1="13.454" x2="13.454" y1="30.28" y2="22.005" gradientUnits="userSpaceOnUse"><stop stop-color="#624F74"/><stop offset="1" stop-color="#624F74" stop-opacity="0"/></linearGradient><linearGradient id="f2279idm" x1="4.624" x2="4.624" y1="30.106" y2="24.291" gradientUnits="userSpaceOnUse"><stop stop-color="#624F74"/><stop offset="1" stop-color="#624F74" stop-opacity="0"/></linearGradient><linearGradient id="f2279idn" x1="22.449" x2="22.449" y1="30.106" y2="24.291" gradientUnits="userSpaceOnUse"><stop stop-color="#624F74"/><stop offset="1" stop-color="#624F74" stop-opacity="0"/></linearGradient><filter id="f2279ido" width="6" height="7.52" x="3.995" y="23.086" color-interpolation-filters="sRGB" filterUnits="userSpaceOnUse"><feFlood flood-opacity="0" result="BackgroundImageFix"/><feBlend in="SourceGraphic" in2="BackgroundImageFix" result="shape"/><feColorMatrix in="SourceAlpha" result="hardAlpha" values="0 0 0 0 0 0 0 0 0 0 0 0 0 0 0 0 0 0 127 0"/><feOffset dy=".5"/><feGaussianBlur stdDeviation=".5"/><feComposite in2="hardAlpha" k2="-1" k3="1" operator="arithmetic"/><feColorMatrix values="0 0 0 0 0.164706 0 0 0 0 0.0784314 0 0 0 0 0.227451 0 0 0 1 0"/><feBlend in2="shape" result="effect1_innerShadow_18_5384"/></filter><filter id="f2279idp" width="6" height="9.52" x="12.985" y="21.086" color-interpolation-filters="sRGB" filterUnits="userSpaceOnUse"><feFlood flood-opacity="0" result="BackgroundImageFix"/><feBlend in="SourceGraphic" in2="BackgroundImageFix" result="shape"/><feColorMatrix in="SourceAlpha" result="hardAlpha" values="0 0 0 0 0 0 0 0 0 0 0 0 0 0 0 0 0 0 127 0"/><feOffset dy=".5"/><feGaussianBlur stdDeviation=".5"/><feComposite in2="hardAlpha" k2="-1" k3="1" operator="arithmetic"/><feColorMatrix values="0 0 0 0 0.164706 0 0 0 0 0.0784314 0 0 0 0 0.227451 0 0 0 1 0"/><feBlend in2="shape" result="effect1_innerShadow_18_5384"/></filter><filter id="f2279idq" width="6" height="7.51" x="21.995" y="23.096" color-interpolation-filters="sRGB" filterUnits="userSpaceOnUse"><feFlood flood-opacity="0" result="BackgroundImageFix"/><feBlend in="SourceGraphic" in2="BackgroundImageFix" result="shape"/><feColorMatrix in="SourceAlpha" result="hardAlpha" values="0 0 0 0 0 0 0 0 0 0 0 0 0 0 0 0 0 0 127 0"/><feOffset dy=".5"/><feGaussianBlur stdDeviation=".5"/><feComposite in2="hardAlpha" k2="-1" k3="1" operator="arithmetic"/><feColorMatrix values="0 0 0 0 0.164706 0 0 0 0 0.0784314 0 0 0 0 0.227451 0 0 0 1 0"/><feBlend in2="shape" result="effect1_innerShadow_18_5384"/></filter><filter id="f2279idr" width="10.81" height="6.8" x="10.605" y="6.706" color-interpolation-filters="sRGB" filterUnits="userSpaceOnUse"><feFlood flood-opacity="0" result="BackgroundImageFix"/><feBlend in="SourceGraphic" in2="BackgroundImageFix" result="shape"/><feColorMatrix in="SourceAlpha" result="hardAlpha" values="0 0 0 0 0 0 0 0 0 0 0 0 0 0 0 0 0 0 127 0"/><feOffset dx="-.4" dy=".4"/><feGaussianBlur stdDeviation=".3"/><feComposite in2="hardAlpha" k2="-1" k3="1" operator="arithmetic"/><feColorMatrix values="0 0 0 0 0.447059 0 0 0 0 0.376471 0 0 0 0 0.509804 0 0 0 1 0"/><feBlend in2="shape" result="effect1_innerShadow_18_5384"/><feColorMatrix in="SourceAlpha" result="hardAlpha" values="0 0 0 0 0 0 0 0 0 0 0 0 0 0 0 0 0 0 127 0"/><feOffset dx=".4" dy="-.4"/><feGaussianBlur stdDeviation=".3"/><feComposite in2="hardAlpha" k2="-1" k3="1" operator="arithmetic"/><feColorMatrix values="0 0 0 0 0.176471 0 0 0 0 0.156863 0 0 0 0 0.184314 0 0 0 1 0"/><feBlend in2="effect1_innerShadow_18_5384" result="effect2_innerShadow_18_5384"/></filter><filter id="f2279ids" width="3.255" height="2.247" x="2.995" y="10.854" color-interpolation-filters="sRGB" filterUnits="userSpaceOnUse"><feFlood flood-opacity="0" result="BackgroundImageFix"/><feBlend in="SourceGraphic" in2="BackgroundImageFix" result="shape"/><feColorMatrix in="SourceAlpha" result="hardAlpha" values="0 0 0 0 0 0 0 0 0 0 0 0 0 0 0 0 0 0 127 0"/><feOffset dx=".25" dy="-.25"/><feGaussianBlur stdDeviation=".25"/><feComposite in2="hardAlpha" k2="-1" k3="1" operator="arithmetic"/><feColorMatrix values="0 0 0 0 0.545098 0 0 0 0 0.141176 0 0 0 0 0.329412 0 0 0 1 0"/><feBlend in2="shape" result="effect1_innerShadow_18_5384"/></filter><filter id="f2279idt" width="3.255" height="2.247" x="6.975" y="10.854" color-interpolation-filters="sRGB" filterUnits="userSpaceOnUse"><feFlood flood-opacity="0" result="BackgroundImageFix"/><feBlend in="SourceGraphic" in2="BackgroundImageFix" result="shape"/><feColorMatrix in="SourceAlpha" result="hardAlpha" values="0 0 0 0 0 0 0 0 0 0 0 0 0 0 0 0 0 0 127 0"/><feOffset dx=".25" dy="-.25"/><feGaussianBlur stdDeviation=".25"/><feComposite in2="hardAlpha" k2="-1" k3="1" operator="arithmetic"/><feColorMatrix values="0 0 0 0 0.545098 0 0 0 0 0.141176 0 0 0 0 0.329412 0 0 0 1 0"/><feBlend in2="shape" result="effect1_innerShadow_18_5384"/></filter><filter id="f2279idu" width="3.255" height="2.225" x="21.975" y="10.874" color-interpolation-filters="sRGB" filterUnits="userSpaceOnUse"><feFlood flood-opacity="0" result="BackgroundImageFix"/><feBlend in="SourceGraphic" in2="BackgroundImageFix" result="shape"/><feColorMatrix in="SourceAlpha" result="hardAlpha" values="0 0 0 0 0 0 0 0 0 0 0 0 0 0 0 0 0 0 127 0"/><feOffset dx=".25" dy="-.25"/><feGaussianBlur stdDeviation=".25"/><feComposite in2="hardAlpha" k2="-1" k3="1" operator="arithmetic"/><feColorMatrix values="0 0 0 0 0.545098 0 0 0 0 0.141176 0 0 0 0 0.329412 0 0 0 1 0"/><feBlend in2="shape" result="effect1_innerShadow_18_5384"/></filter><filter id="f2279idv" width="3.255" height="2.245" x="25.995" y="10.865" color-interpolation-filters="sRGB" filterUnits="userSpaceOnUse"><feFlood flood-opacity="0" result="BackgroundImageFix"/><feBlend in="SourceGraphic" in2="BackgroundImageFix" result="shape"/><feColorMatrix in="SourceAlpha" result="hardAlpha" values="0 0 0 0 0 0 0 0 0 0 0 0 0 0 0 0 0 0 127 0"/><feOffset dx=".25" dy="-.25"/><feGaussianBlur stdDeviation=".25"/><feComposite in2="hardAlpha" k2="-1" k3="1" operator="arithmetic"/><feColorMatrix values="0 0 0 0 0.545098 0 0 0 0 0.141176 0 0 0 0 0.329412 0 0 0 1 0"/><feBlend in2="shape" result="effect1_innerShadow_18_5384"/></filter><filter id="f2279idw" width="1.28" height="1.28" x="11.845" y="7.966" color-interpolation-filters="sRGB" filterUnits="userSpaceOnUse"><feFlood flood-opacity="0" result="BackgroundImageFix"/><feBlend in="SourceGraphic" in2="BackgroundImageFix" result="shape"/><feColorMatrix in="SourceAlpha" result="hardAlpha" values="0 0 0 0 0 0 0 0 0 0 0 0 0 0 0 0 0 0 127 0"/><feOffset dx="-.15" dy=".15"/><feGaussianBlur stdDeviation=".2"/><feComposite in2="hardAlpha" k2="-1" k3="1" operator="arithmetic"/><feColorMatrix values="0 0 0 0 0.858824 0 0 0 0 0.352941 0 0 0 0 0.129412 0 0 0 1 0"/><feBlend in2="shape" result="effect1_innerShadow_18_5384"/><feColorMatrix in="SourceAlpha" result="hardAlpha" values="0 0 0 0 0 0 0 0 0 0 0 0 0 0 0 0 0 0 127 0"/><feOffset dx=".15" dy="-.15"/><feGaussianBlur stdDeviation=".15"/><feComposite in2="hardAlpha" k2="-1" k3="1" operator="arithmetic"/><feColorMatrix values="0 0 0 0 1 0 0 0 0 0.882353 0 0 0 0 0.215686 0 0 0 1 0"/><feBlend in2="effect1_innerShadow_18_5384" result="effect2_innerShadow_18_5384"/></filter><filter id="f2279idx" width="1.28" height="1.28" x="14.855" y="7.966" color-interpolation-filters="sRGB" filterUnits="userSpaceOnUse"><feFlood flood-opacity="0" result="BackgroundImageFix"/><feBlend in="SourceGraphic" in2="BackgroundImageFix" result="shape"/><feColorMatrix in="SourceAlpha" result="hardAlpha" values="0 0 0 0 0 0 0 0 0 0 0 0 0 0 0 0 0 0 127 0"/><feOffset dx="-.15" dy=".15"/><feGaussianBlur stdDeviation=".15"/><feComposite in2="hardAlpha" k2="-1" k3="1" operator="arithmetic"/><feColorMatrix values="0 0 0 0 0.105882 0 0 0 0 0.6 0 0 0 0 0.317647 0 0 0 1 0"/><feBlend in2="shape" result="effect1_innerShadow_18_5384"/><feColorMatrix in="SourceAlpha" result="hardAlpha" values="0 0 0 0 0 0 0 0 0 0 0 0 0 0 0 0 0 0 127 0"/><feOffset dx=".15" dy="-.15"/><feGaussianBlur stdDeviation=".15"/><feComposite in2="hardAlpha" k2="-1" k3="1" operator="arithmetic"/><feColorMatrix values="0 0 0 0 0.309804 0 0 0 0 1 0 0 0 0 0.595817 0 0 0 1 0"/><feBlend in2="effect1_innerShadow_18_5384" result="effect2_innerShadow_18_5384"/></filter><filter id="f2279idy" width="1.13" height="1.13" x="18.855" y="11.126" color-interpolation-filters="sRGB" filterUnits="userSpaceOnUse"><feFlood flood-opacity="0" result="BackgroundImageFix"/><feBlend in="SourceGraphic" in2="BackgroundImageFix" result="shape"/><feColorMatrix in="SourceAlpha" result="hardAlpha" values="0 0 0 0 0 0 0 0 0 0 0 0 0 0 0 0 0 0 127 0"/><feOffset dx="-.15" dy=".15"/><feGaussianBlur stdDeviation=".15"/><feComposite in2="hardAlpha" k2="-1" k3="1" operator="arithmetic"/><feColorMatrix values="0 0 0 0 0.858824 0 0 0 0 0.32549 0 0 0 0 0.101961 0 0 0 1 0"/><feBlend in2="shape" result="effect1_innerShadow_18_5384"/></filter><filter id="f2279idz" width="2.28" height="2.28" x="11.845" y="9.966" color-interpolation-filters="sRGB" filterUnits="userSpaceOnUse"><feFlood flood-opacity="0" result="BackgroundImageFix"/><feBlend in="SourceGraphic" in2="BackgroundImageFix" result="shape"/><feColorMatrix in="SourceAlpha" result="hardAlpha" values="0 0 0 0 0 0 0 0 0 0 0 0 0 0 0 0 0 0 127 0"/><feOffset dx="-.15" dy=".15"/><feGaussianBlur stdDeviation=".2"/><feComposite in2="hardAlpha" k2="-1" k3="1" operator="arithmetic"/><feColorMatrix values="0 0 0 0 0.858824 0 0 0 0 0.352941 0 0 0 0 0.129412 0 0 0 1 0"/><feBlend in2="shape" result="effect1_innerShadow_18_5384"/><feColorMatrix in="SourceAlpha" result="hardAlpha" values="0 0 0 0 0 0 0 0 0 0 0 0 0 0 0 0 0 0 127 0"/><feOffset dx=".15" dy="-.15"/><feGaussianBlur stdDeviation=".15"/><feComposite in2="hardAlpha" k2="-1" k3="1" operator="arithmetic"/><feColorMatrix values="0 0 0 0 1 0 0 0 0 0.882353 0 0 0 0 0.215686 0 0 0 1 0"/><feBlend in2="effect1_innerShadow_18_5384" result="effect2_innerShadow_18_5384"/></filter><filter id="f2279id10" width="2.28" height="2.28" x="14.855" y="9.966" color-interpolation-filters="sRGB" filterUnits="userSpaceOnUse"><feFlood flood-opacity="0" result="BackgroundImageFix"/><feBlend in="SourceGraphic" in2="BackgroundImageFix" result="shape"/><feColorMatrix in="SourceAlpha" result="hardAlpha" values="0 0 0 0 0 0 0 0 0 0 0 0 0 0 0 0 0 0 127 0"/><feOffset dx="-.15" dy=".15"/><feGaussianBlur stdDeviation=".15"/><feComposite in2="hardAlpha" k2="-1" k3="1" operator="arithmetic"/><feColorMatrix values="0 0 0 0 0.105882 0 0 0 0 0.6 0 0 0 0 0.317647 0 0 0 1 0"/><feBlend in2="shape" result="effect1_innerShadow_18_5384"/><feColorMatrix in="SourceAlpha" result="hardAlpha" values="0 0 0 0 0 0 0 0 0 0 0 0 0 0 0 0 0 0 127 0"/><feOffset dx=".15" dy="-.15"/><feGaussianBlur stdDeviation=".15"/><feComposite in2="hardAlpha" k2="-1" k3="1" operator="arithmetic"/><feColorMatrix values="0 0 0 0 0.309804 0 0 0 0 1 0 0 0 0 0.595817 0 0 0 1 0"/><feBlend in2="effect1_innerShadow_18_5384" result="effect2_innerShadow_18_5384"/></filter><filter id="f2279id11" width="2.13" height="1.13" x="17.855" y="8.116" color-interpolation-filters="sRGB" filterUnits="userSpaceOnUse"><feFlood flood-opacity="0" result="BackgroundImageFix"/><feBlend in="SourceGraphic" in2="BackgroundImageFix" result="shape"/><feColorMatrix in="SourceAlpha" result="hardAlpha" values="0 0 0 0 0 0 0 0 0 0 0 0 0 0 0 0 0 0 127 0"/><feOffset dx="-.15" dy=".15"/><feGaussianBlur stdDeviation=".15"/><feComposite in2="hardAlpha" k2="-1" k3="1" operator="arithmetic"/><feColorMatrix values="0 0 0 0 0.858824 0 0 0 0 0.32549 0 0 0 0 0.101961 0 0 0 1 0"/><feBlend in2="shape" result="effect1_innerShadow_18_5384"/></filter><filter id="f2279id12" width="2.28" height="2.28" x="3.985" y="7.786" color-interpolation-filters="sRGB" filterUnits="userSpaceOnUse"><feFlood flood-opacity="0" result="BackgroundImageFix"/><feBlend in="SourceGraphic" in2="BackgroundImageFix" result="shape"/><feColorMatrix in="SourceAlpha" result="hardAlpha" values="0 0 0 0 0 0 0 0 0 0 0 0 0 0 0 0 0 0 127 0"/><feOffset dx=".3" dy="-.3"/><feGaussianBlur stdDeviation=".2"/><feComposite in2="hardAlpha" k2="-1" k3="1" operator="arithmetic"/><feColorMatrix values="0 0 0 0 0.301961 0 0 0 0 0.196078 0 0 0 0 0.376471 0 0 0 1 0"/><feBlend in2="shape" result="effect1_innerShadow_18_5384"/></filter><filter id="f2279id13" width="2.28" height="2.28" x="20.965" y="4.826" color-interpolation-filters="sRGB" filterUnits="userSpaceOnUse"><feFlood flood-opacity="0" result="BackgroundImageFix"/><feBlend in="SourceGraphic" in2="BackgroundImageFix" result="shape"/><feColorMatrix in="SourceAlpha" result="hardAlpha" values="0 0 0 0 0 0 0 0 0 0 0 0 0 0 0 0 0 0 127 0"/><feOffset dx=".3" dy="-.3"/><feGaussianBlur stdDeviation=".2"/><feComposite in2="hardAlpha" k2="-1" k3="1" operator="arithmetic"/><feColorMatrix values="0 0 0 0 0.301961 0 0 0 0 0.196078 0 0 0 0 0.376471 0 0 0 1 0"/><feBlend in2="shape" result="effect1_innerShadow_18_5384"/></filter><filter id="f2279id14" width="2.08" height="2.08" x="8.015" y="4.086" color-interpolation-filters="sRGB" filterUnits="userSpaceOnUse"><feFlood flood-opacity="0" result="BackgroundImageFix"/><feBlend in="SourceGraphic" in2="BackgroundImageFix" result="shape"/><feColorMatrix in="SourceAlpha" result="hardAlpha" values="0 0 0 0 0 0 0 0 0 0 0 0 0 0 0 0 0 0 127 0"/><feOffset dx=".1" dy=".1"/><feGaussianBlur stdDeviation=".2"/><feComposite in2="hardAlpha" k2="-1" k3="1" operator="arithmetic"/><feColorMatrix values="0 0 0 0 0.705882 0 0 0 0 0.376471 0 0 0 0 0.180392 0 0 0 1 0"/><feBlend in2="shape" result="effect1_innerShadow_18_5384"/></filter><filter id="f2279id15" width="2.08" height="2.08" x="8.015" y="4.086" color-interpolation-filters="sRGB" filterUnits="userSpaceOnUse"><feFlood flood-opacity="0" result="BackgroundImageFix"/><feBlend in="SourceGraphic" in2="BackgroundImageFix" result="shape"/><feColorMatrix in="SourceAlpha" result="hardAlpha" values="0 0 0 0 0 0 0 0 0 0 0 0 0 0 0 0 0 0 127 0"/><feOffset dx=".1" dy=".1"/><feGaussianBlur stdDeviation=".2"/><feComposite in2="hardAlpha" k2="-1" k3="1" operator="arithmetic"/><feColorMatrix values="0 0 0 0 0.705882 0 0 0 0 0.376471 0 0 0 0 0.180392 0 0 0 1 0"/><feBlend in2="shape" result="effect1_innerShadow_18_5384"/></filter><filter id="f2279id16" width="2.273" height="2.28" x="24.952" y="7.086" color-interpolation-filters="sRGB" filterUnits="userSpaceOnUse"><feFlood flood-opacity="0" result="BackgroundImageFix"/><feBlend in="SourceGraphic" in2="BackgroundImageFix" result="shape"/><feColorMatrix in="SourceAlpha" result="hardAlpha" values="0 0 0 0 0 0 0 0 0 0 0 0 0 0 0 0 0 0 127 0"/><feOffset dx=".3" dy=".3"/><feGaussianBlur stdDeviation=".2"/><feComposite in2="hardAlpha" k2="-1" k3="1" operator="arithmetic"/><feColorMatrix values="0 0 0 0 0.243137 0 0 0 0 0.584314 0 0 0 0 0.435294 0 0 0 1 0"/><feBlend in2="shape" result="effect1_innerShadow_18_5384"/></filter><filter id="f2279id17" width="2.806" height="9.246" x="12.755" y="21.347" color-interpolation-filters="sRGB" filterUnits="userSpaceOnUse"><feFlood flood-opacity="0" result="BackgroundImageFix"/><feBlend in="SourceGraphic" in2="BackgroundImageFix" result="shape"/><feGaussianBlur result="effect1_foregroundBlur_18_5384" stdDeviation=".3"/></filter><filter id="f2279id18" width="2.784" height="7.032" x="3.921" y="23.56" color-interpolation-filters="sRGB" filterUnits="userSpaceOnUse"><feFlood flood-opacity="0" result="BackgroundImageFix"/><feBlend in="SourceGraphic" in2="BackgroundImageFix" result="shape"/><feGaussianBlur result="effect1_foregroundBlur_18_5384" stdDeviation=".3"/></filter><filter id="f2279id19" width="2.784" height="7.032" x="21.745" y="23.56" color-interpolation-filters="sRGB" filterUnits="userSpaceOnUse"><feFlood flood-opacity="0" result="BackgroundImageFix"/><feBlend in="SourceGraphic" in2="BackgroundImageFix" result="shape"/><feGaussianBlur result="effect1_foregroundBlur_18_5384" stdDeviation=".3"/></filter><radialGradient id="f2279id1a" cx="0" cy="0" r="1" gradientTransform="rotate(124.985 -1.405 7.443)scale(.68602 .87215)" gradientUnits="userSpaceOnUse"><stop stop-color="#C1B3BC"/><stop offset="1" stop-color="#C1B3BC" stop-opacity="0"/></radialGradient><radialGradient id="f2279id1b" cx="0" cy="0" r="1" gradientTransform="rotate(124.985 .585 8.48)scale(.68602 .87215)" gradientUnits="userSpaceOnUse"><stop stop-color="#C1B3BC"/><stop offset="1" stop-color="#C1B3BC" stop-opacity="0"/></radialGradient><radialGradient id="f2279id1c" cx="0" cy="0" r="1" gradientTransform="matrix(-.39727 .64235 -.77769 -.48097 22.876 12.402)" gradientUnits="userSpaceOnUse"><stop stop-color="#C1B3BC"/><stop offset="1" stop-color="#C1B3BC" stop-opacity="0"/></radialGradient><radialGradient id="f2279id1d" cx="0" cy="0" r="1" gradientTransform="matrix(-.39727 .64235 -.77769 -.48097 26.897 12.403)" gradientUnits="userSpaceOnUse"><stop stop-color="#C1B3BC"/><stop offset="1" stop-color="#C1B3BC" stop-opacity="0"/></radialGradient><radialGradient id="f2279id1e" cx="0" cy="0" r="1" gradientTransform="matrix(-2.54124 0 0 -1.77242 5.536 12.108)" gradientUnits="userSpaceOnUse"><stop stop-color="#FF4755"/><stop offset="1" stop-color="#BB2263"/></radialGradient><radialGradient id="f2279id1f" cx="0" cy="0" r="1" gradientTransform="matrix(-2.54126 0 0 -1.77242 9.516 12.108)" gradientUnits="userSpaceOnUse"><stop stop-color="#FF4755"/><stop offset="1" stop-color="#BB2263"/></radialGradient><radialGradient id="f2279id1g" cx="0" cy="0" r="1" gradientTransform="matrix(-2.54126 0 0 -1.75307 24.516 12.118)" gradientUnits="userSpaceOnUse"><stop stop-color="#FF4755"/><stop offset="1" stop-color="#BB2263"/></radialGradient><radialGradient id="f2279id1h" cx="0" cy="0" r="1" gradientTransform="matrix(-2.54124 0 0 -1.77076 28.536 12.12)" gradientUnits="userSpaceOnUse"><stop stop-color="#FF4755"/><stop offset="1" stop-color="#BB2263"/></radialGradient><radialGradient id="f2279id1i" cx="0" cy="0" r="1" gradientTransform="matrix(.38577 -.42956 1.02063 .9166 19.005 12.322)" gradientUnits="userSpaceOnUse"><stop stop-color="#FFC137"/><stop offset="1" stop-color="#FFC137" stop-opacity="0"/></radialGradient><radialGradient id="f2279id1j" cx="0" cy="0" r="1" gradientTransform="matrix(.77942 -.42955 .86787 1.57474 18.005 9.312)" gradientUnits="userSpaceOnUse"><stop stop-color="#FFC137"/><stop offset="1" stop-color="#FFC137" stop-opacity="0"/></radialGradient><radialGradient id="f2279id1k" cx="0" cy="0" r="1" gradientTransform="rotate(140.057 2.045 3.27)scale(.8423)" gradientUnits="userSpaceOnUse"><stop stop-color="#FF5560"/><stop offset=".938" stop-color="#8B2B57"/></radialGradient><radialGradient id="f2279id1l" cx="0" cy="0" r="1" gradientTransform="rotate(140.364 2.34 5.626)scale(.68725)" gradientUnits="userSpaceOnUse"><stop stop-color="#53F48B"/><stop offset="1" stop-color="#358A65"/></radialGradient><radialGradient id="f2279id1m" cx="0" cy="0" r="1" gradientTransform="rotate(140.364 4.871 4.843)scale(.68725)" gradientUnits="userSpaceOnUse"><stop stop-color="#8B6FA2"/><stop offset="1" stop-color="#422F51"/></radialGradient><radialGradient id="f2279id1n" cx="0" cy="0" r="1" gradientTransform="rotate(141.889 10.231 8.831)scale(.82073)" gradientUnits="userSpaceOnUse"><stop stop-color="#FEDE95"/><stop offset=".354" stop-color="#FFCB53"/><stop offset=".891" stop-color="#A87A39"/></radialGradient><radialGradient id="f2279id1o" cx="0" cy="0" r="1" gradientTransform="rotate(141.889 12.725 9.681)scale(.82073)" gradientUnits="userSpaceOnUse"><stop stop-color="#FEDE95"/><stop offset=".354" stop-color="#FFCB53"/><stop offset=".891" stop-color="#A87A39"/></radialGradient><radialGradient id="f2279id1p" cx="0" cy="0" r="1" gradientTransform="rotate(140.057 13.028 7.267)scale(.8423)" gradientUnits="userSpaceOnUse"><stop stop-color="#FF5560"/><stop offset=".938" stop-color="#8B2B57"/></radialGradient><radialGradient id="f2279id1q" cx="0" cy="0" r="1" gradientTransform="matrix(-.74505 .62256 -.67049 -.8024 27.068 7.086)" gradientUnits="userSpaceOnUse"><stop stop-color="#55FF91"/><stop offset="1" stop-color="#55FF91" stop-opacity="0"/></radialGradient></defs></g></svg>