<svg xmlns="http://www.w3.org/2000/svg" width="1em" height="1em" viewBox="0 0 32 32"><g fill="none"><path fill="url(#f2379id0)" d="M14.715 30c0-1.1-.9-2-2-2s-2 .9-2 2"/><path fill="url(#f2379id1)" d="M14.715 30c0-1.1-.9-2-2-2s-2 .9-2 2"/><path fill="url(#f2379id2)" d="M14.715 30c0-1.1-.9-2-2-2s-2 .9-2 2"/><path fill="url(#f2379id3)" d="M14.715 30c0-1.1-.9-2-2-2s-2 .9-2 2"/><g filter="url(#f2379idt)"><path fill="url(#f2379id4)" d="M3.006 2c-.8 0-1.44.65-1.44 1.44V5c0 8.2 6.61 11.72 10 14.66c5 4.34 3.62 7.75 2 10.34h4c5.74-8.5 2.5-10.15 5-13.99c1.97-3.02 7-4.01 7-11.01V3.44c0-.8-.65-1.44-1.44-1.44z"/><path fill="url(#f2379id5)" d="M3.006 2c-.8 0-1.44.65-1.44 1.44V5c0 8.2 6.61 11.72 10 14.66c5 4.34 3.62 7.75 2 10.34h4c5.74-8.5 2.5-10.15 5-13.99c1.97-3.02 7-4.01 7-11.01V3.44c0-.8-.65-1.44-1.44-1.44z"/><path fill="url(#f2379id6)" d="M3.006 2c-.8 0-1.44.65-1.44 1.44V5c0 8.2 6.61 11.72 10 14.66c5 4.34 3.62 7.75 2 10.34h4c5.74-8.5 2.5-10.15 5-13.99c1.97-3.02 7-4.01 7-11.01V3.44c0-.8-.65-1.44-1.44-1.44z"/></g><path fill="url(#f2379idi)" d="M3.006 2c-.8 0-1.44.65-1.44 1.44V5c0 8.2 6.61 11.72 10 14.66c5 4.34 3.62 7.75 2 10.34h4c5.74-8.5 2.5-10.15 5-13.99c1.97-3.02 7-4.01 7-11.01V3.44c0-.8-.65-1.44-1.44-1.44z"/><g filter="url(#f2379idu)"><path fill="url(#f2379id7)" d="M14.215 15.991c4.375 5.688 2.916 11.563 1.875 13.438h1.25c3.65-5.75 3.229-11.521 2.562-13.438z"/></g><path fill="url(#f2379id8)" d="M20.715 30c0-1.1-.9-2-2-2s-2 .9-2 2"/><path fill="url(#f2379id9)" d="M20.715 30c0-1.1-.9-2-2-2s-2 .9-2 2"/><path fill="url(#f2379ida)" d="M21.715 30c0-.55-.45-1-1-1s-1 .45-1 1"/><path fill="url(#f2379idb)" d="M11.715 30c0-.55-.45-1-1-1s-1 .45-1 1"/><path fill="url(#f2379idc)" d="M11.715 30c0-.55-.45-1-1-1s-1 .45-1 1"/><g filter="url(#f2379idv)"><rect width="8.996" height="1.938" x="5.581" y="5.668" fill="#B0A9B3" rx=".969"/></g><g filter="url(#f2379idw)"><rect width="8.996" height="1.938" x="17.936" y="9.983" fill="#B0A9B3" rx=".969"/></g><g filter="url(#f2379idx)"><path fill="#9F98A2" d="M14.577 20.452a.97.97 0 0 1 .969-.969H19.7a.969.969 0 1 1 0 1.938h-4.154a.969.969 0 0 1-.969-.969"/></g><g filter="url(#f2379idy)"><rect width="8.996" height="1.938" x="7.469" y="4.116" fill="url(#f2379idj)" rx=".969"/><rect width="8.996" height="1.938" x="7.469" y="4.116" fill="url(#f2379idd)" rx=".969"/><rect width="8.996" height="1.938" x="7.469" y="4.116" fill="url(#f2379idk)" rx=".969"/></g><g filter="url(#f2379idz)"><path fill="url(#f2379idl)" d="M3.652 14.054a.97.97 0 0 1 .97-.97h11.843a.969.969 0 1 1 0 1.938H4.62a.969.969 0 0 1-.969-.969"/><path fill="url(#f2379ide)" d="M3.652 14.054a.97.97 0 0 1 .97-.97h11.843a.969.969 0 1 1 0 1.938H4.62a.969.969 0 0 1-.969-.969"/><path fill="url(#f2379idm)" d="M3.652 14.054a.97.97 0 0 1 .97-.97h11.843a.969.969 0 1 1 0 1.938H4.62a.969.969 0 0 1-.969-.969"/></g><g filter="url(#f2379id10)"><path fill="url(#f2379idn)" d="M19.57 9.093a.97.97 0 0 1 .97-.97h8.925a.969.969 0 1 1 0 1.937h-8.926a.969.969 0 0 1-.969-.967"/><path fill="url(#f2379idf)" d="M19.57 9.093a.97.97 0 0 1 .97-.97h8.925a.969.969 0 1 1 0 1.937h-8.926a.969.969 0 0 1-.969-.967"/><path fill="url(#f2379ido)" d="M19.57 9.093a.97.97 0 0 1 .97-.97h8.925a.969.969 0 1 1 0 1.937h-8.926a.969.969 0 0 1-.969-.967"/></g><g filter="url(#f2379id11)"><path fill="url(#f2379idp)" d="M15.566 18.944a.97.97 0 0 1 .97-.97h4.929a.969.969 0 1 1 0 1.938h-4.93a.969.969 0 0 1-.969-.968"/><path fill="url(#f2379idg)" d="M15.566 18.944a.97.97 0 0 1 .97-.97h4.929a.969.969 0 1 1 0 1.938h-4.93a.969.969 0 0 1-.969-.968"/><path fill="url(#f2379idq)" d="M15.566 18.944a.97.97 0 0 1 .97-.97h4.929a.969.969 0 1 1 0 1.938h-4.93a.969.969 0 0 1-.969-.968"/></g><g filter="url(#f2379id12)"><path fill="url(#f2379idr)" d="M13.379 24.952a.97.97 0 0 1 .969-.97h3.18a.969.969 0 0 1 0 1.938h-3.18a.969.969 0 0 1-.97-.969"/><path fill="url(#f2379idh)" d="M13.379 24.952a.97.97 0 0 1 .969-.97h3.18a.969.969 0 0 1 0 1.938h-3.18a.969.969 0 0 1-.97-.969"/><path fill="url(#f2379ids)" d="M13.379 24.952a.97.97 0 0 1 .969-.97h3.18a.969.969 0 0 1 0 1.938h-3.18a.969.969 0 0 1-.97-.969"/></g><defs><radialGradient id="f2379id0" cx="0" cy="0" r="1" gradientTransform="matrix(-1.25247 -1.95587 2.24001 -1.43442 13.788 29.82)" gradientUnits="userSpaceOnUse"><stop offset=".338" stop-color="#A19AA4"/><stop offset="1" stop-color="#807B83"/></radialGradient><radialGradient id="f2379id1" cx="0" cy="0" r="1" gradientTransform="matrix(2.4271 .3095 -.34827 2.7312 11.982 28.898)" gradientUnits="userSpaceOnUse"><stop offset=".631" stop-color="#B6B4B6" stop-opacity="0"/><stop offset="1" stop-color="#B6B4B6"/></radialGradient><radialGradient id="f2379id2" cx="0" cy="0" r="1" gradientTransform="rotate(-74.407 26.572 6.556)scale(1.54896 .61917)" gradientUnits="userSpaceOnUse"><stop offset=".128" stop-color="#878189"/><stop offset="1" stop-color="#878189" stop-opacity="0"/></radialGradient><radialGradient id="f2379id3" cx="0" cy="0" r="1" gradientTransform="matrix(.85937 -.20313 .2583 1.09278 11.09 29.874)" gradientUnits="userSpaceOnUse"><stop offset=".672" stop-color="#7B777D"/><stop offset=".846" stop-color="#7B777D" stop-opacity="0"/></radialGradient><radialGradient id="f2379id4" cx="0" cy="0" r="1" gradientTransform="matrix(0 23.8125 -32.6082 0 21.254 1.304)" gradientUnits="userSpaceOnUse"><stop offset=".118" stop-color="#E7E3E9"/><stop offset="1" stop-color="#AFA5B3"/></radialGradient><radialGradient id="f2379id5" cx="0" cy="0" r="1" gradientTransform="rotate(-27.693 58.04 -2.026)scale(12.776 16.6012)" gradientUnits="userSpaceOnUse"><stop stop-color="#8B8191"/><stop offset="1" stop-color="#8B8191" stop-opacity="0"/></radialGradient><radialGradient id="f2379id6" cx="0" cy="0" r="1" gradientTransform="matrix(-11.2854 0 0 -5.97903 26.058 14.09)" gradientUnits="userSpaceOnUse"><stop stop-color="#ABA5AE"/><stop offset="1" stop-color="#ABA5AE" stop-opacity="0"/></radialGradient><radialGradient id="f2379id7" cx="0" cy="0" r="1" gradientTransform="matrix(2.88349 -18.8125 4.89318 .75 17.465 28.678)" gradientUnits="userSpaceOnUse"><stop offset=".315" stop-color="#D2CCD4"/><stop offset="1" stop-color="#D2CCD4" stop-opacity="0"/></radialGradient><radialGradient id="f2379id8" cx="0" cy="0" r="1" gradientTransform="matrix(-3.09375 0 0 -3.18368 20.012 29.757)" gradientUnits="userSpaceOnUse"><stop stop-color="#DAD8DB"/><stop offset="1" stop-color="#766F7C"/></radialGradient><radialGradient id="f2379id9" cx="0" cy="0" r="1" gradientTransform="matrix(-.72864 0 0 -.73638 20.031 30)" gradientUnits="userSpaceOnUse"><stop offset=".426" stop-color="#716B73"/><stop offset="1" stop-color="#716B73" stop-opacity="0"/></radialGradient><radialGradient id="f2379ida" cx="0" cy="0" r="1" gradientTransform="matrix(-1.69121 0 0 -1.74037 21.508 29.878)" gradientUnits="userSpaceOnUse"><stop stop-color="#E0DEE1"/><stop offset="1" stop-color="#78707B"/></radialGradient><radialGradient id="f2379idb" cx="0" cy="0" r="1" gradientTransform="matrix(-1.07101 0 0 -.91715 11.328 29.687)" gradientUnits="userSpaceOnUse"><stop stop-color="#C3C0C5"/><stop offset="1" stop-color="#8B858E"/></radialGradient><radialGradient id="f2379idc" cx="0" cy="0" r="1" gradientTransform="matrix(.69531 0 0 .52896 9.715 30.046)" gradientUnits="userSpaceOnUse"><stop stop-color="#837589"/><stop offset="1" stop-color="#837589" stop-opacity="0"/></radialGradient><radialGradient id="f2379idd" cx="0" cy="0" r="1" gradientTransform="matrix(0 .7796 -5.30132 0 14.809 4.928)" gradientUnits="userSpaceOnUse"><stop stop-color="#D6D5D7"/><stop offset="1" stop-color="#D6D5D7" stop-opacity="0"/></radialGradient><radialGradient id="f2379ide" cx="0" cy="0" r="1" gradientTransform="matrix(0 .7796 -8.12117 0 14.896 13.897)" gradientUnits="userSpaceOnUse"><stop stop-color="#D6D5D7"/><stop offset="1" stop-color="#D6D5D7" stop-opacity="0"/></radialGradient><radialGradient id="f2379idf" cx="0" cy="0" r="1" gradientTransform="matrix(0 1.125 -12.79 0 28.434 8.936)" gradientUnits="userSpaceOnUse"><stop stop-color="#D2D0D5"/><stop offset="1" stop-color="#D2D0D5" stop-opacity="0"/></radialGradient><radialGradient id="f2379idg" cx="0" cy="0" r="1" gradientTransform="matrix(0 1.125 -7.13996 0 21.17 18.787)" gradientUnits="userSpaceOnUse"><stop stop-color="#D6D5D7"/><stop offset="1" stop-color="#D6D5D7" stop-opacity="0"/></radialGradient><radialGradient id="f2379idh" cx="0" cy="0" r="1" gradientTransform="matrix(0 1.125 -5.32045 0 17.554 24.795)" gradientUnits="userSpaceOnUse"><stop stop-color="#D6D5D7"/><stop offset="1" stop-color="#D6D5D7" stop-opacity="0"/></radialGradient><linearGradient id="f2379idi" x1="27.715" x2="27.715" y1=".303" y2="2.616" gradientUnits="userSpaceOnUse"><stop stop-color="#CFCCD0"/><stop offset="1" stop-color="#CFCCD0" stop-opacity="0"/></linearGradient><linearGradient id="f2379idj" x1="7.469" x2="15.201" y1="5.085" y2="5.085" gradientUnits="userSpaceOnUse"><stop stop-color="#888689"/><stop offset="1" stop-color="#C7C7C8"/></linearGradient><linearGradient id="f2379idk" x1="16.465" x2="15.184" y1="5.366" y2="5.366" gradientUnits="userSpaceOnUse"><stop stop-color="#ECEBED"/><stop offset="1" stop-color="#ECEBED" stop-opacity="0"/></linearGradient><linearGradient id="f2379idl" x1="3.652" x2="15.498" y1="14.053" y2="14.053" gradientUnits="userSpaceOnUse"><stop stop-color="#888689"/><stop offset="1" stop-color="#C7C7C8"/></linearGradient><linearGradient id="f2379idm" x1="17.434" x2="15.471" y1="14.335" y2="14.335" gradientUnits="userSpaceOnUse"><stop stop-color="#ECEBED"/><stop offset="1" stop-color="#ECEBED" stop-opacity="0"/></linearGradient><linearGradient id="f2379idn" x1="19.57" x2="28.908" y1="9.093" y2="9.093" gradientUnits="userSpaceOnUse"><stop stop-color="#888689"/><stop offset="1" stop-color="#C7C7C8"/></linearGradient><linearGradient id="f2379ido" x1="30.434" x2="28.886" y1="9.374" y2="9.374" gradientUnits="userSpaceOnUse"><stop stop-color="#D2CDD4"/><stop offset="1" stop-color="#D2CDD4" stop-opacity="0"/></linearGradient><linearGradient id="f2379idp" x1="15.566" x2="21.469" y1="18.944" y2="18.944" gradientUnits="userSpaceOnUse"><stop stop-color="#888689"/><stop offset="1" stop-color="#C7C7C8"/></linearGradient><linearGradient id="f2379idq" x1="22.434" x2="21.456" y1="19.225" y2="19.225" gradientUnits="userSpaceOnUse"><stop stop-color="#ECEBED"/><stop offset="1" stop-color="#ECEBED" stop-opacity="0"/></linearGradient><linearGradient id="f2379idr" x1="13.379" x2="17.777" y1="24.951" y2="24.951" gradientUnits="userSpaceOnUse"><stop stop-color="#888689"/><stop offset="1" stop-color="#C7C7C8"/></linearGradient><linearGradient id="f2379ids" x1="18.496" x2="17.767" y1="25.233" y2="25.233" gradientUnits="userSpaceOnUse"><stop stop-color="#ECEBED"/><stop offset="1" stop-color="#ECEBED" stop-opacity="0"/></linearGradient><filter id="f2379idt" width="28.5" height="28.5" x="1.566" y="1.5" color-interpolation-filters="sRGB" filterUnits="userSpaceOnUse"><feFlood flood-opacity="0" result="BackgroundImageFix"/><feBlend in="SourceGraphic" in2="BackgroundImageFix" result="shape"/><feColorMatrix in="SourceAlpha" result="hardAlpha" values="0 0 0 0 0 0 0 0 0 0 0 0 0 0 0 0 0 0 127 0"/><feOffset dx=".5" dy="-.5"/><feGaussianBlur stdDeviation=".5"/><feComposite in2="hardAlpha" k2="-1" k3="1" operator="arithmetic"/><feColorMatrix values="0 0 0 0 0.580392 0 0 0 0 0.509804 0 0 0 0 0.611765 0 0 0 1 0"/><feBlend in2="shape" result="effect1_innerShadow_18_15245"/></filter><filter id="f2379idu" width="9.133" height="16.438" x="12.715" y="14.491" color-interpolation-filters="sRGB" filterUnits="userSpaceOnUse"><feFlood flood-opacity="0" result="BackgroundImageFix"/><feBlend in="SourceGraphic" in2="BackgroundImageFix" result="shape"/><feGaussianBlur result="effect1_foregroundBlur_18_15245" stdDeviation=".75"/></filter><filter id="f2379idv" width="12.996" height="5.938" x="3.581" y="3.668" color-interpolation-filters="sRGB" filterUnits="userSpaceOnUse"><feFlood flood-opacity="0" result="BackgroundImageFix"/><feBlend in="SourceGraphic" in2="BackgroundImageFix" result="shape"/><feGaussianBlur result="effect1_foregroundBlur_18_15245" stdDeviation="1"/></filter><filter id="f2379idw" width="12.996" height="5.938" x="15.935" y="7.983" color-interpolation-filters="sRGB" filterUnits="userSpaceOnUse"><feFlood flood-opacity="0" result="BackgroundImageFix"/><feBlend in="SourceGraphic" in2="BackgroundImageFix" result="shape"/><feGaussianBlur result="effect1_foregroundBlur_18_15245" stdDeviation="1"/></filter><filter id="f2379idx" width="10.092" height="5.938" x="12.577" y="17.483" color-interpolation-filters="sRGB" filterUnits="userSpaceOnUse"><feFlood flood-opacity="0" result="BackgroundImageFix"/><feBlend in="SourceGraphic" in2="BackgroundImageFix" result="shape"/><feGaussianBlur result="effect1_foregroundBlur_18_15245" stdDeviation="1"/></filter><filter id="f2379idy" width="9.246" height="2.188" x="7.469" y="3.866" color-interpolation-filters="sRGB" filterUnits="userSpaceOnUse"><feFlood flood-opacity="0" result="BackgroundImageFix"/><feBlend in="SourceGraphic" in2="BackgroundImageFix" result="shape"/><feColorMatrix in="SourceAlpha" result="hardAlpha" values="0 0 0 0 0 0 0 0 0 0 0 0 0 0 0 0 0 0 127 0"/><feOffset dx=".25" dy="-.25"/><feGaussianBlur stdDeviation=".25"/><feComposite in2="hardAlpha" k2="-1" k3="1" operator="arithmetic"/><feColorMatrix values="0 0 0 0 0.466667 0 0 0 0 0.454902 0 0 0 0 0.470588 0 0 0 1 0"/><feBlend in2="shape" result="effect1_innerShadow_18_15245"/></filter><filter id="f2379idz" width="14.031" height="2.188" x="3.652" y="12.835" color-interpolation-filters="sRGB" filterUnits="userSpaceOnUse"><feFlood flood-opacity="0" result="BackgroundImageFix"/><feBlend in="SourceGraphic" in2="BackgroundImageFix" result="shape"/><feColorMatrix in="SourceAlpha" result="hardAlpha" values="0 0 0 0 0 0 0 0 0 0 0 0 0 0 0 0 0 0 127 0"/><feOffset dx=".25" dy="-.25"/><feGaussianBlur stdDeviation=".25"/><feComposite in2="hardAlpha" k2="-1" k3="1" operator="arithmetic"/><feColorMatrix values="0 0 0 0 0.466667 0 0 0 0 0.454902 0 0 0 0 0.470588 0 0 0 1 0"/><feBlend in2="shape" result="effect1_innerShadow_18_15245"/></filter><filter id="f2379id10" width="11.113" height="2.188" x="19.57" y="7.874" color-interpolation-filters="sRGB" filterUnits="userSpaceOnUse"><feFlood flood-opacity="0" result="BackgroundImageFix"/><feBlend in="SourceGraphic" in2="BackgroundImageFix" result="shape"/><feColorMatrix in="SourceAlpha" result="hardAlpha" values="0 0 0 0 0 0 0 0 0 0 0 0 0 0 0 0 0 0 127 0"/><feOffset dx=".25" dy="-.25"/><feGaussianBlur stdDeviation=".25"/><feComposite in2="hardAlpha" k2="-1" k3="1" operator="arithmetic"/><feColorMatrix values="0 0 0 0 0.466667 0 0 0 0 0.454902 0 0 0 0 0.470588 0 0 0 1 0"/><feBlend in2="shape" result="effect1_innerShadow_18_15245"/></filter><filter id="f2379id11" width="7.117" height="2.188" x="15.566" y="17.725" color-interpolation-filters="sRGB" filterUnits="userSpaceOnUse"><feFlood flood-opacity="0" result="BackgroundImageFix"/><feBlend in="SourceGraphic" in2="BackgroundImageFix" result="shape"/><feColorMatrix in="SourceAlpha" result="hardAlpha" values="0 0 0 0 0 0 0 0 0 0 0 0 0 0 0 0 0 0 127 0"/><feOffset dx=".25" dy="-.25"/><feGaussianBlur stdDeviation=".25"/><feComposite in2="hardAlpha" k2="-1" k3="1" operator="arithmetic"/><feColorMatrix values="0 0 0 0 0.466667 0 0 0 0 0.454902 0 0 0 0 0.470588 0 0 0 1 0"/><feBlend in2="shape" result="effect1_innerShadow_18_15245"/></filter><filter id="f2379id12" width="5.367" height="2.188" x="13.379" y="23.733" color-interpolation-filters="sRGB" filterUnits="userSpaceOnUse"><feFlood flood-opacity="0" result="BackgroundImageFix"/><feBlend in="SourceGraphic" in2="BackgroundImageFix" result="shape"/><feColorMatrix in="SourceAlpha" result="hardAlpha" values="0 0 0 0 0 0 0 0 0 0 0 0 0 0 0 0 0 0 127 0"/><feOffset dx=".25" dy="-.25"/><feGaussianBlur stdDeviation=".25"/><feComposite in2="hardAlpha" k2="-1" k3="1" operator="arithmetic"/><feColorMatrix values="0 0 0 0 0.466667 0 0 0 0 0.454902 0 0 0 0 0.470588 0 0 0 1 0"/><feBlend in2="shape" result="effect1_innerShadow_18_15245"/></filter></defs></g></svg>