<svg xmlns="http://www.w3.org/2000/svg" width="1em" height="1em" viewBox="0 0 32 32"><g fill="none"><g filter="url(#f2385idx)"><path fill="url(#f2385id1i)" d="M28.98 4.934H2.99c-.56 0-1.01-.45-1.01-1.01s.45-1.01 1.01-1.01h25.99c.56 0 1.01.45 1.01 1.01a1.02 1.02 0 0 1-1.01 1.01"/><path fill="url(#f2385id4)" d="M28.98 4.934H2.99c-.56 0-1.01-.45-1.01-1.01s.45-1.01 1.01-1.01h25.99c.56 0 1.01.45 1.01 1.01a1.02 1.02 0 0 1-1.01 1.01"/><path fill="url(#f2385id5)" d="M28.98 4.934H2.99c-.56 0-1.01-.45-1.01-1.01s.45-1.01 1.01-1.01h25.99c.56 0 1.01.45 1.01 1.01a1.02 1.02 0 0 1-1.01 1.01"/><path fill="url(#f2385id1j)" d="M28.98 4.934H2.99c-.56 0-1.01-.45-1.01-1.01s.45-1.01 1.01-1.01h25.99c.56 0 1.01.45 1.01 1.01a1.02 1.02 0 0 1-1.01 1.01"/><path fill="url(#f2385id1k)" d="M28.98 4.934H2.99c-.56 0-1.01-.45-1.01-1.01s.45-1.01 1.01-1.01h25.99c.56 0 1.01.45 1.01 1.01a1.02 1.02 0 0 1-1.01 1.01"/></g><g filter="url(#f2385idy)"><path fill="url(#f2385id6)" d="M5.98 27.882a2 2 0 1 0 0-4a2 2 0 0 0 0 4"/><path fill="url(#f2385id7)" d="M5.98 27.882a2 2 0 1 0 0-4a2 2 0 0 0 0 4"/></g><g filter="url(#f2385idz)"><path fill="url(#f2385id8)" d="M11.49 27.882a2 2 0 1 0 0-4a2 2 0 0 0 0 4"/><path fill="url(#f2385id9)" d="M11.49 27.882a2 2 0 1 0 0-4a2 2 0 0 0 0 4"/></g><g filter="url(#f2385id10)"><mask id="f2385id0" fill="#fff"><path d="M9.624 25.335h1.448c.206 0 .367.22.367.5s-.161.5-.367.5H9.713a2.641 2.641 0 0 1-.09-1"/></mask><path fill="#34253E" d="M9.624 25.335h1.448c.206 0 .367.22.367.5s-.161.5-.367.5H9.713a2.641 2.641 0 0 1-.09-1"/><path fill="#000" d="m9.624 25.335l-.995-.097l.088-.903h.907zm.09 1v1h-.752l-.21-.721zm1.358 0H9.624v-2h1.448zm-.633-.5c0 .044.012.134.088.237a.678.678 0 0 0 .545.263v-2c.489 0 .856.267 1.067.553c.208.284.3.623.3.947zm.633-.5a.678.678 0 0 0-.545.263a.405.405 0 0 0-.088.237h2a1.6 1.6 0 0 1-.3.947c-.21.287-.578.553-1.067.553zm-1.359 0h1.36v2h-1.36zm-.96 1.279A3.641 3.641 0 0 1 8.61 25.6h2c0 .166.023.32.063.456zM8.61 25.6c0-.123.006-.244.018-.363l1.99.194a1.858 1.858 0 0 0-.008.169z" mask="url(#f2385id0)"/></g><g filter="url(#f2385id11)"><mask id="f2385id1" fill="#fff"><path d="M7.923 25.406H5.951c-.28 0-.5.22-.5.5s.22.5.5.5H7.8a1.995 1.995 0 0 0 .122-1"/></mask><path fill="#34253E" d="M7.923 25.406H5.951c-.28 0-.5.22-.5.5s.22.5.5.5H7.8a1.995 1.995 0 0 0 .122-1"/><path fill="#000" d="m7.923 25.406l.992-.132l-.116-.869h-.876zm-.121 1v1h.68l.25-.633zm-1.851 0h1.972v-2H5.951zm.5-.5c0 .272-.228.5-.5.5v-2c-.832 0-1.5.667-1.5 1.5zm-.5-.5c.272 0 .5.227.5.5h-2c0 .832.668 1.5 1.5 1.5zm1.85 0h-1.85v2H7.8zm.93 1.367c.136-.343.21-.715.21-1.102h-2a.995.995 0 0 1-.07.367zm.21-1.102a3.02 3.02 0 0 0-.026-.397l-1.983.263a.983.983 0 0 1 .009.134z" mask="url(#f2385id1)"/></g><g filter="url(#f2385id12)"><path fill="url(#f2385id1l)" d="M10.99 26.382h-5c-.28 0-.5-.22-.5-.5s.22-.5.5-.5h5c.28 0 .5.22.5.5s-.22.5-.5.5"/><path fill="url(#f2385ida)" d="M10.99 26.382h-5c-.28 0-.5-.22-.5-.5s.22-.5.5-.5h5c.28 0 .5.22.5.5s-.22.5-.5.5"/></g><g filter="url(#f2385id13)"><path fill="url(#f2385idb)" d="M20.47 27.882a2 2 0 1 0 0-4a2 2 0 0 0 0 4"/><path fill="url(#f2385idc)" d="M20.47 27.882a2 2 0 1 0 0-4a2 2 0 0 0 0 4"/></g><g filter="url(#f2385id14)"><path fill="url(#f2385idd)" d="M25.98 27.882a2 2 0 1 0 0-4a2 2 0 0 0 0 4"/><path fill="url(#f2385ide)" d="M25.98 27.882a2 2 0 1 0 0-4a2 2 0 0 0 0 4"/></g><g filter="url(#f2385id15)"><mask id="f2385id2" fill="#fff"><path d="M22.384 25.406h-1.972c-.28 0-.5.22-.5.5s.22.5.5.5h1.85a1.995 1.995 0 0 0 .122-1"/></mask><path fill="#34253E" d="M22.384 25.406h-1.972c-.28 0-.5.22-.5.5s.22.5.5.5h1.85a1.995 1.995 0 0 0 .122-1"/><path fill="#000" d="m22.384 25.406l.992-.132l-.116-.869h-.876zm-.121 1v1h.68l.25-.633zm-1.851 0h1.972v-2h-1.972zm.5-.5c0 .272-.228.5-.5.5v-2c-.832 0-1.5.667-1.5 1.5zm-.5-.5c.272 0 .5.227.5.5h-2c0 .832.668 1.5 1.5 1.5zm1.85 0h-1.85v2h1.85zm.93 1.367c.136-.343.21-.715.21-1.102h-2a.994.994 0 0 1-.07.367zm.21-1.102c0-.134-.009-.267-.026-.397l-1.983.263a.983.983 0 0 1 .009.134z" mask="url(#f2385id2)"/></g><g filter="url(#f2385id16)"><mask id="f2385id3" fill="#fff"><path d="M24.059 25.335h1.448c.205 0 .367.22.367.5s-.162.5-.367.5h-1.36a2.642 2.642 0 0 1-.088-1"/></mask><path fill="#34253E" d="M24.059 25.335h1.448c.205 0 .367.22.367.5s-.162.5-.367.5h-1.36a2.642 2.642 0 0 1-.088-1"/><path fill="#000" d="m24.059 25.335l-.996-.097l.088-.903h.908zm.089 1v1h-.751l-.21-.721zm1.359 0h-1.448v-2h1.448zm-.633-.5a.41.41 0 0 0 .087.237a.678.678 0 0 0 .546.263v-2c.488 0 .856.267 1.066.553c.209.284.3.623.3.947zm.633-.5a.678.678 0 0 0-.546.263a.405.405 0 0 0-.087.237h2a1.6 1.6 0 0 1-.3.947a1.325 1.325 0 0 1-1.067.553zm-1.36 0h1.36v2h-1.36zm-.96 1.279a3.64 3.64 0 0 1-.141-1.013h2c0 .166.023.32.062.456zm-.141-1.013c0-.123.006-.244.017-.363l1.99.194a2.315 2.315 0 0 0-.007.169z" mask="url(#f2385id3)"/></g><g filter="url(#f2385id17)"><path fill="url(#f2385id1m)" d="M25.48 26.382h-5c-.28 0-.5-.22-.5-.5s.22-.5.5-.5h5c.28 0 .5.22.5.5s-.22.5-.5.5"/><path fill="url(#f2385idf)" d="M25.48 26.382h-5c-.28 0-.5-.22-.5-.5s.22-.5.5-.5h5c.28 0 .5.22.5.5s-.22.5-.5.5"/></g><g fill-rule="evenodd" clip-rule="evenodd" filter="url(#f2385id18)"><path fill="url(#f2385idg)" d="m16.69 4.329l.782.782c.582.518.48.98 0 1.428l-.782.783a1.01 1.01 0 0 1-1.428 0l-.782-.783c-.543-.48-.473-.996 0-1.428l.782-.782c.527-.551 1.01-.465 1.428 0m-.707.707a.01.01 0 0 0-.014 0l-.782.782a.01.01 0 0 0 0 .014l.782.783a.01.01 0 0 0 .014 0l.782-.783a.01.01 0 0 0 0-.014z"/><path fill="url(#f2385idh)" d="m16.69 4.329l.782.782c.582.518.48.98 0 1.428l-.782.783a1.01 1.01 0 0 1-1.428 0l-.782-.783c-.543-.48-.473-.996 0-1.428l.782-.782c.527-.551 1.01-.465 1.428 0m-.707.707a.01.01 0 0 0-.014 0l-.782.782a.01.01 0 0 0 0 .014l.782.783a.01.01 0 0 0 .014 0l.782-.783a.01.01 0 0 0 0-.014z"/></g><g filter="url(#f2385id19)"><path fill="url(#f2385idi)" d="M24.79 6.882H7.16c-.65 0-1.18.53-1.18 1.18v2.019h20V8.062c0-.65-.53-1.18-1.19-1.18"/><path fill="url(#f2385idj)" d="M24.79 6.882H7.16c-.65 0-1.18.53-1.18 1.18v2.019h20V8.062c0-.65-.53-1.18-1.19-1.18"/></g><path fill="url(#f2385id1n)" d="M24.79 6.882H7.16c-.65 0-1.18.53-1.18 1.18v2.019h20V8.062c0-.65-.53-1.18-1.19-1.18"/><g filter="url(#f2385id1a)"><path fill="url(#f2385idk)" d="m29.98 10.882l-.01-.96c-.06-.59-.55-1.04-1.15-1.04H3.14c-.64 0-1.16.52-1.16 1.16V20.92h27.99z"/></g><g filter="url(#f2385id1b)"><path fill="url(#f2385idl)" d="M1.98 19.882v4.96c.06.59.55 1.04 1.15 1.04h25.68c.64 0 1.16-.52 1.16-1.16v-4.84z"/></g><path fill="url(#f2385idm)" d="M1.98 19.882v4.96c.06.59.55 1.04 1.15 1.04h25.68c.64 0 1.16-.52 1.16-1.16v-4.84z"/><g filter="url(#f2385id1c)"><path fill="url(#f2385idn)" d="M5.9 11.882H1.98v7H5.9c.61 0 1.1-.49 1.1-1.1v-4.8c-.01-.6-.5-1.1-1.1-1.1"/></g><g filter="url(#f2385id1d)"><path fill="url(#f2385ido)" d="M13.88 11.882h-3.79c-.61 0-1.1.49-1.1 1.1v3.85c0 .61.49 1.1 1.1 1.1h3.79c.61 0 1.1-.49 1.1-1.1v-3.85c0-.6-.49-1.1-1.1-1.1"/><path fill="url(#f2385idp)" d="M13.88 11.882h-3.79c-.61 0-1.1.49-1.1 1.1v3.85c0 .61.49 1.1 1.1 1.1h3.79c.61 0 1.1-.49 1.1-1.1v-3.85c0-.6-.49-1.1-1.1-1.1"/></g><g filter="url(#f2385id1e)"><path fill="url(#f2385idq)" d="M21.88 11.882h-3.79c-.61 0-1.1.49-1.1 1.1v3.85c0 .61.49 1.1 1.1 1.1h3.79c.61 0 1.1-.49 1.1-1.1v-3.85c0-.6-.49-1.1-1.1-1.1"/><path fill="url(#f2385idr)" d="M21.88 11.882h-3.79c-.61 0-1.1.49-1.1 1.1v3.85c0 .61.49 1.1 1.1 1.1h3.79c.61 0 1.1-.49 1.1-1.1v-3.85c0-.6-.49-1.1-1.1-1.1"/></g><path fill="url(#f2385ids)" d="M29.97 11.882h-3.89c-.61 0-1.1.49-1.1 1.1v4.8c0 .61.49 1.1 1.1 1.1h3.89z"/><path fill="url(#f2385id1o)" d="M29.97 11.882h-3.89c-.61 0-1.1.49-1.1 1.1v4.8c0 .61.49 1.1 1.1 1.1h3.89z"/><path fill="url(#f2385idt)" d="M29.98 27.872h-28v2h28z"/><path fill="url(#f2385idu)" d="M2.98 22.882h-1v-2h1c.55 0 1 .45 1 1c0 .56-.45 1-1 1"/><g filter="url(#f2385id1f)"><path fill="url(#f2385idv)" d="M2.695 28.356h26.57v.516H2.695z"/></g><g filter="url(#f2385id1g)"><path stroke="#685E71" stroke-width=".1" d="m15.05 5.934l.804.797"/></g><g filter="url(#f2385id1h)"><path stroke="url(#f2385idw)" stroke-linecap="round" stroke-width=".5" d="M25.73 18.135v-3.928"/></g><defs><linearGradient id="f2385id4" x1="29.99" x2="20.26" y1="4.934" y2="4.934" gradientUnits="userSpaceOnUse"><stop stop-color="#CAC8CB"/><stop offset="1" stop-color="#CAC8CB" stop-opacity="0"/></linearGradient><linearGradient id="f2385id5" x1="30.275" x2="28.902" y1="4.235" y2="4.235" gradientUnits="userSpaceOnUse"><stop stop-color="#E6E5E8"/><stop offset="1" stop-color="#E6E5E8" stop-opacity="0"/></linearGradient><linearGradient id="f2385id6" x1="5.534" x2="5.534" y1="27.882" y2="25.668" gradientUnits="userSpaceOnUse"><stop stop-color="#483E4E"/><stop offset="1" stop-color="#45344F"/><stop offset="1" stop-color="#45344F"/></linearGradient><linearGradient id="f2385id7" x1="4.98" x2="4.98" y1="25.615" y2="26.178" gradientUnits="userSpaceOnUse"><stop stop-color="#382340"/><stop offset="1" stop-color="#382340" stop-opacity="0"/></linearGradient><linearGradient id="f2385id8" x1="11.044" x2="11.044" y1="27.882" y2="25.668" gradientUnits="userSpaceOnUse"><stop stop-color="#483E4E"/><stop offset="1" stop-color="#45344F"/><stop offset="1" stop-color="#45344F"/></linearGradient><linearGradient id="f2385id9" x1="10.49" x2="10.49" y1="25.615" y2="26.178" gradientUnits="userSpaceOnUse"><stop stop-color="#382340"/><stop offset="1" stop-color="#382340" stop-opacity="0"/></linearGradient><linearGradient id="f2385ida" x1="5.49" x2="9.393" y1="26.382" y2="26.382" gradientUnits="userSpaceOnUse"><stop stop-color="#817187"/><stop offset="1" stop-color="#817187" stop-opacity="0"/></linearGradient><linearGradient id="f2385idb" x1="20.024" x2="20.024" y1="27.882" y2="25.668" gradientUnits="userSpaceOnUse"><stop stop-color="#483E4E"/><stop offset="1" stop-color="#45344F"/><stop offset="1" stop-color="#45344F"/></linearGradient><linearGradient id="f2385idc" x1="19.47" x2="19.47" y1="25.615" y2="26.178" gradientUnits="userSpaceOnUse"><stop stop-color="#382340"/><stop offset="1" stop-color="#382340" stop-opacity="0"/></linearGradient><linearGradient id="f2385idd" x1="25.534" x2="25.534" y1="27.882" y2="25.668" gradientUnits="userSpaceOnUse"><stop stop-color="#483E4E"/><stop offset="1" stop-color="#45344F"/><stop offset="1" stop-color="#45344F"/></linearGradient><linearGradient id="f2385ide" x1="24.98" x2="24.98" y1="25.615" y2="26.178" gradientUnits="userSpaceOnUse"><stop stop-color="#382340"/><stop offset="1" stop-color="#382340" stop-opacity="0"/></linearGradient><linearGradient id="f2385idf" x1="19.98" x2="23.883" y1="26.382" y2="26.382" gradientUnits="userSpaceOnUse"><stop stop-color="#817187"/><stop offset="1" stop-color="#817187" stop-opacity="0"/></linearGradient><linearGradient id="f2385idg" x1="14.824" x2="17.154" y1="5.782" y2="5.782" gradientUnits="userSpaceOnUse"><stop stop-color="#504657"/><stop offset="1" stop-color="#745F85"/></linearGradient><linearGradient id="f2385idh" x1="17.362" x2="16.936" y1="4.918" y2="5.346" gradientUnits="userSpaceOnUse"><stop stop-color="#8F79A0"/><stop offset="1" stop-color="#8F79A0" stop-opacity="0"/></linearGradient><linearGradient id="f2385idi" x1="5.976" x2="25.977" y1="7.885" y2="7.885" gradientUnits="userSpaceOnUse"><stop stop-color="#99969B"/><stop offset="1" stop-color="#C1BCC4"/></linearGradient><linearGradient id="f2385idj" x1="5.98" x2="7.345" y1="8.882" y2="8.882" gradientUnits="userSpaceOnUse"><stop stop-color="#69696A"/><stop offset="1" stop-color="#69696A" stop-opacity="0"/></linearGradient><linearGradient id="f2385idk" x1="1.976" x2="29.98" y1="14.385" y2="14.385" gradientUnits="userSpaceOnUse"><stop stop-color="#C3BBC8"/><stop offset="1" stop-color="#DDD3E4"/></linearGradient><linearGradient id="f2385idl" x1="29.966" x2="1.976" y1="22.885" y2="22.885" gradientUnits="userSpaceOnUse"><stop stop-color="#E53B87"/><stop offset="1" stop-color="#FF3F62"/></linearGradient><linearGradient id="f2385idm" x1="29.97" x2="28.825" y1="22.882" y2="22.882" gradientUnits="userSpaceOnUse"><stop stop-color="#F24993"/><stop offset="1" stop-color="#F24993" stop-opacity="0"/></linearGradient><linearGradient id="f2385idn" x1="2.449" x2="6.783" y1="18.36" y2="15.703" gradientUnits="userSpaceOnUse"><stop stop-color="#45D4FF"/><stop offset="1" stop-color="#3BB4FF"/></linearGradient><linearGradient id="f2385ido" x1="9.55" x2="13.695" y1="17.481" y2="13.972" gradientUnits="userSpaceOnUse"><stop stop-color="#44D8FF"/><stop offset="1" stop-color="#3FBEFF"/></linearGradient><linearGradient id="f2385idp" x1="8.706" x2="10.237" y1="14.907" y2="14.907" gradientUnits="userSpaceOnUse"><stop stop-color="#4AE1FF"/><stop offset="1" stop-color="#4AE1FF" stop-opacity="0"/></linearGradient><linearGradient id="f2385idq" x1="17.55" x2="21.695" y1="17.481" y2="13.972" gradientUnits="userSpaceOnUse"><stop stop-color="#44D8FF"/><stop offset="1" stop-color="#3FBEFF"/></linearGradient><linearGradient id="f2385idr" x1="16.706" x2="18.237" y1="14.907" y2="14.907" gradientUnits="userSpaceOnUse"><stop stop-color="#4AE1FF"/><stop offset="1" stop-color="#4AE1FF" stop-opacity="0"/></linearGradient><linearGradient id="f2385ids" x1="24.974" x2="29.968" y1="15.385" y2="15.385" gradientUnits="userSpaceOnUse"><stop stop-color="#3FCDFF"/><stop offset="1" stop-color="#40C3FF"/></linearGradient><linearGradient id="f2385idt" x1="5.612" x2="29.98" y1="29.872" y2="29.872" gradientUnits="userSpaceOnUse"><stop stop-color="#2B1842"/><stop offset="1" stop-color="#5E3783"/></linearGradient><linearGradient id="f2385idu" x1="1.976" x2="3.397" y1="21.885" y2="21.885" gradientUnits="userSpaceOnUse"><stop stop-color="#FFAA17"/><stop offset="1" stop-color="#EB552A"/></linearGradient><linearGradient id="f2385idv" x1="2.695" x2="29.265" y1="28.872" y2="28.872" gradientUnits="userSpaceOnUse"><stop stop-color="#423458"/><stop offset="1" stop-color="#694596"/></linearGradient><linearGradient id="f2385idw" x1="25.815" x2="25.815" y1="18.135" y2="14.015" gradientUnits="userSpaceOnUse"><stop stop-color="#4DE3FF"/><stop offset="1" stop-color="#4DE3FF" stop-opacity="0"/></linearGradient><filter id="f2385idx" width="28.61" height="2.17" x="1.98" y="2.764" color-interpolation-filters="sRGB" filterUnits="userSpaceOnUse"><feFlood flood-opacity="0" result="BackgroundImageFix"/><feBlend in="SourceGraphic" in2="BackgroundImageFix" result="shape"/><feColorMatrix in="SourceAlpha" result="hardAlpha" values="0 0 0 0 0 0 0 0 0 0 0 0 0 0 0 0 0 0 127 0"/><feOffset dx=".6" dy="-.15"/><feGaussianBlur stdDeviation=".4"/><feComposite in2="hardAlpha" k2="-1" k3="1" operator="arithmetic"/><feColorMatrix values="0 0 0 0 0.380392 0 0 0 0 0.356863 0 0 0 0 0.4 0 0 0 1 0"/><feBlend in2="shape" result="effect1_innerShadow_18_9715"/></filter><filter id="f2385idy" width="4.2" height="4.15" x="3.88" y="23.732" color-interpolation-filters="sRGB" filterUnits="userSpaceOnUse"><feFlood flood-opacity="0" result="BackgroundImageFix"/><feBlend in="SourceGraphic" in2="BackgroundImageFix" result="shape"/><feColorMatrix in="SourceAlpha" result="hardAlpha" values="0 0 0 0 0 0 0 0 0 0 0 0 0 0 0 0 0 0 127 0"/><feOffset dx=".1" dy="-.15"/><feGaussianBlur stdDeviation=".125"/><feComposite in2="hardAlpha" k2="-1" k3="1" operator="arithmetic"/><feColorMatrix values="0 0 0 0 0.0666667 0 0 0 0 0.0470588 0 0 0 0 0.0862745 0 0 0 1 0"/><feBlend in2="shape" result="effect1_innerShadow_18_9715"/><feColorMatrix in="SourceAlpha" result="hardAlpha" values="0 0 0 0 0 0 0 0 0 0 0 0 0 0 0 0 0 0 127 0"/><feOffset dx="-.1" dy="-.15"/><feGaussianBlur stdDeviation=".125"/><feComposite in2="hardAlpha" k2="-1" k3="1" operator="arithmetic"/><feColorMatrix values="0 0 0 0 0.0666667 0 0 0 0 0.0470588 0 0 0 0 0.0862745 0 0 0 1 0"/><feBlend in2="effect1_innerShadow_18_9715" result="effect2_innerShadow_18_9715"/></filter><filter id="f2385idz" width="4.2" height="4.15" x="9.39" y="23.732" color-interpolation-filters="sRGB" filterUnits="userSpaceOnUse"><feFlood flood-opacity="0" result="BackgroundImageFix"/><feBlend in="SourceGraphic" in2="BackgroundImageFix" result="shape"/><feColorMatrix in="SourceAlpha" result="hardAlpha" values="0 0 0 0 0 0 0 0 0 0 0 0 0 0 0 0 0 0 127 0"/><feOffset dx=".1" dy="-.15"/><feGaussianBlur stdDeviation=".125"/><feComposite in2="hardAlpha" k2="-1" k3="1" operator="arithmetic"/><feColorMatrix values="0 0 0 0 0.0666667 0 0 0 0 0.0470588 0 0 0 0 0.0862745 0 0 0 1 0"/><feBlend in2="shape" result="effect1_innerShadow_18_9715"/><feColorMatrix in="SourceAlpha" result="hardAlpha" values="0 0 0 0 0 0 0 0 0 0 0 0 0 0 0 0 0 0 127 0"/><feOffset dx="-.1" dy="-.15"/><feGaussianBlur stdDeviation=".125"/><feComposite in2="hardAlpha" k2="-1" k3="1" operator="arithmetic"/><feColorMatrix values="0 0 0 0 0.0666667 0 0 0 0 0.0470588 0 0 0 0 0.0862745 0 0 0 1 0"/><feBlend in2="effect1_innerShadow_18_9715" result="effect2_innerShadow_18_9715"/></filter><filter id="f2385id10" width="2.328" height="1.5" x="9.361" y="25.085" color-interpolation-filters="sRGB" filterUnits="userSpaceOnUse"><feFlood flood-opacity="0" result="BackgroundImageFix"/><feBlend in="SourceGraphic" in2="BackgroundImageFix" result="shape"/><feGaussianBlur result="effect1_foregroundBlur_18_9715" stdDeviation=".125"/></filter><filter id="f2385id11" width="2.99" height="1.5" x="5.201" y="25.155" color-interpolation-filters="sRGB" filterUnits="userSpaceOnUse"><feFlood flood-opacity="0" result="BackgroundImageFix"/><feBlend in="SourceGraphic" in2="BackgroundImageFix" result="shape"/><feGaussianBlur result="effect1_foregroundBlur_18_9715" stdDeviation=".125"/></filter><filter id="f2385id12" width="6" height="1" x="5.49" y="25.382" color-interpolation-filters="sRGB" filterUnits="userSpaceOnUse"><feFlood flood-opacity="0" result="BackgroundImageFix"/><feBlend in="SourceGraphic" in2="BackgroundImageFix" result="shape"/><feColorMatrix in="SourceAlpha" result="hardAlpha" values="0 0 0 0 0 0 0 0 0 0 0 0 0 0 0 0 0 0 127 0"/><feOffset/><feGaussianBlur stdDeviation=".15"/><feComposite in2="hardAlpha" k2="-1" k3="1" operator="arithmetic"/><feColorMatrix values="0 0 0 0 0.423529 0 0 0 0 0.341176 0 0 0 0 0.470588 0 0 0 1 0"/><feBlend in2="shape" result="effect1_innerShadow_18_9715"/></filter><filter id="f2385id13" width="4.2" height="4.15" x="18.37" y="23.732" color-interpolation-filters="sRGB" filterUnits="userSpaceOnUse"><feFlood flood-opacity="0" result="BackgroundImageFix"/><feBlend in="SourceGraphic" in2="BackgroundImageFix" result="shape"/><feColorMatrix in="SourceAlpha" result="hardAlpha" values="0 0 0 0 0 0 0 0 0 0 0 0 0 0 0 0 0 0 127 0"/><feOffset dx=".1" dy="-.15"/><feGaussianBlur stdDeviation=".125"/><feComposite in2="hardAlpha" k2="-1" k3="1" operator="arithmetic"/><feColorMatrix values="0 0 0 0 0.0666667 0 0 0 0 0.0470588 0 0 0 0 0.0862745 0 0 0 1 0"/><feBlend in2="shape" result="effect1_innerShadow_18_9715"/><feColorMatrix in="SourceAlpha" result="hardAlpha" values="0 0 0 0 0 0 0 0 0 0 0 0 0 0 0 0 0 0 127 0"/><feOffset dx="-.1" dy="-.15"/><feGaussianBlur stdDeviation=".125"/><feComposite in2="hardAlpha" k2="-1" k3="1" operator="arithmetic"/><feColorMatrix values="0 0 0 0 0.0666667 0 0 0 0 0.0470588 0 0 0 0 0.0862745 0 0 0 1 0"/><feBlend in2="effect1_innerShadow_18_9715" result="effect2_innerShadow_18_9715"/></filter><filter id="f2385id14" width="4.2" height="4.15" x="23.88" y="23.732" color-interpolation-filters="sRGB" filterUnits="userSpaceOnUse"><feFlood flood-opacity="0" result="BackgroundImageFix"/><feBlend in="SourceGraphic" in2="BackgroundImageFix" result="shape"/><feColorMatrix in="SourceAlpha" result="hardAlpha" values="0 0 0 0 0 0 0 0 0 0 0 0 0 0 0 0 0 0 127 0"/><feOffset dx=".1" dy="-.15"/><feGaussianBlur stdDeviation=".125"/><feComposite in2="hardAlpha" k2="-1" k3="1" operator="arithmetic"/><feColorMatrix values="0 0 0 0 0.0666667 0 0 0 0 0.0470588 0 0 0 0 0.0862745 0 0 0 1 0"/><feBlend in2="shape" result="effect1_innerShadow_18_9715"/><feColorMatrix in="SourceAlpha" result="hardAlpha" values="0 0 0 0 0 0 0 0 0 0 0 0 0 0 0 0 0 0 127 0"/><feOffset dx="-.1" dy="-.15"/><feGaussianBlur stdDeviation=".125"/><feComposite in2="hardAlpha" k2="-1" k3="1" operator="arithmetic"/><feColorMatrix values="0 0 0 0 0.0666667 0 0 0 0 0.0470588 0 0 0 0 0.0862745 0 0 0 1 0"/><feBlend in2="effect1_innerShadow_18_9715" result="effect2_innerShadow_18_9715"/></filter><filter id="f2385id15" width="2.99" height="1.5" x="19.662" y="25.155" color-interpolation-filters="sRGB" filterUnits="userSpaceOnUse"><feFlood flood-opacity="0" result="BackgroundImageFix"/><feBlend in="SourceGraphic" in2="BackgroundImageFix" result="shape"/><feGaussianBlur result="effect1_foregroundBlur_18_9715" stdDeviation=".125"/></filter><filter id="f2385id16" width="2.328" height="1.5" x="23.796" y="25.085" color-interpolation-filters="sRGB" filterUnits="userSpaceOnUse"><feFlood flood-opacity="0" result="BackgroundImageFix"/><feBlend in="SourceGraphic" in2="BackgroundImageFix" result="shape"/><feGaussianBlur result="effect1_foregroundBlur_18_9715" stdDeviation=".125"/></filter><filter id="f2385id17" width="6" height="1" x="19.98" y="25.382" color-interpolation-filters="sRGB" filterUnits="userSpaceOnUse"><feFlood flood-opacity="0" result="BackgroundImageFix"/><feBlend in="SourceGraphic" in2="BackgroundImageFix" result="shape"/><feColorMatrix in="SourceAlpha" result="hardAlpha" values="0 0 0 0 0 0 0 0 0 0 0 0 0 0 0 0 0 0 127 0"/><feOffset/><feGaussianBlur stdDeviation=".15"/><feComposite in2="hardAlpha" k2="-1" k3="1" operator="arithmetic"/><feColorMatrix values="0 0 0 0 0.423529 0 0 0 0 0.341176 0 0 0 0 0.470588 0 0 0 1 0"/><feBlend in2="shape" result="effect1_innerShadow_18_9715"/></filter><filter id="f2385id18" width="3.873" height="3.67" x="14.098" y="3.947" color-interpolation-filters="sRGB" filterUnits="userSpaceOnUse"><feFlood flood-opacity="0" result="BackgroundImageFix"/><feBlend in="SourceGraphic" in2="BackgroundImageFix" result="shape"/><feColorMatrix in="SourceAlpha" result="hardAlpha" values="0 0 0 0 0 0 0 0 0 0 0 0 0 0 0 0 0 0 127 0"/><feOffset dx=".1"/><feGaussianBlur stdDeviation=".2"/><feComposite in2="hardAlpha" k2="-1" k3="1" operator="arithmetic"/><feColorMatrix values="0 0 0 0 0.168627 0 0 0 0 0.160784 0 0 0 0 0.180392 0 0 0 1 0"/><feBlend in2="shape" result="effect1_innerShadow_18_9715"/></filter><filter id="f2385id19" width="20.25" height="3.198" x="5.98" y="6.882" color-interpolation-filters="sRGB" filterUnits="userSpaceOnUse"><feFlood flood-opacity="0" result="BackgroundImageFix"/><feBlend in="SourceGraphic" in2="BackgroundImageFix" result="shape"/><feColorMatrix in="SourceAlpha" result="hardAlpha" values="0 0 0 0 0 0 0 0 0 0 0 0 0 0 0 0 0 0 127 0"/><feOffset dx=".25"/><feGaussianBlur stdDeviation=".3"/><feComposite in2="hardAlpha" k2="-1" k3="1" operator="arithmetic"/><feColorMatrix values="0 0 0 0 0.411765 0 0 0 0 0.411765 0 0 0 0 0.411765 0 0 0 1 0"/><feBlend in2="shape" result="effect1_innerShadow_18_9715"/></filter><filter id="f2385id1a" width="29.2" height="12.637" x="1.38" y="8.882" color-interpolation-filters="sRGB" filterUnits="userSpaceOnUse"><feFlood flood-opacity="0" result="BackgroundImageFix"/><feBlend in="SourceGraphic" in2="BackgroundImageFix" result="shape"/><feColorMatrix in="SourceAlpha" result="hardAlpha" values="0 0 0 0 0 0 0 0 0 0 0 0 0 0 0 0 0 0 127 0"/><feOffset dx="-.6" dy=".6"/><feGaussianBlur stdDeviation=".375"/><feComposite in2="hardAlpha" k2="-1" k3="1" operator="arithmetic"/><feColorMatrix values="0 0 0 0 0.980392 0 0 0 0 0.964706 0 0 0 0 0.988235 0 0 0 1 0"/><feBlend in2="shape" result="effect1_innerShadow_18_9715"/><feColorMatrix in="SourceAlpha" result="hardAlpha" values="0 0 0 0 0 0 0 0 0 0 0 0 0 0 0 0 0 0 127 0"/><feOffset dx=".6" dy=".1"/><feGaussianBlur stdDeviation=".5"/><feComposite in2="hardAlpha" k2="-1" k3="1" operator="arithmetic"/><feColorMatrix values="0 0 0 0 0.588235 0 0 0 0 0.576471 0 0 0 0 0.596078 0 0 0 1 0"/><feBlend in2="effect1_innerShadow_18_9715" result="effect2_innerShadow_18_9715"/></filter><filter id="f2385id1b" width="27.99" height="6.5" x="1.98" y="19.382" color-interpolation-filters="sRGB" filterUnits="userSpaceOnUse"><feFlood flood-opacity="0" result="BackgroundImageFix"/><feBlend in="SourceGraphic" in2="BackgroundImageFix" result="shape"/><feColorMatrix in="SourceAlpha" result="hardAlpha" values="0 0 0 0 0 0 0 0 0 0 0 0 0 0 0 0 0 0 127 0"/><feOffset dy="-.5"/><feGaussianBlur stdDeviation=".5"/><feComposite in2="hardAlpha" k2="-1" k3="1" operator="arithmetic"/><feColorMatrix values="0 0 0 0 0.556863 0 0 0 0 0.027451 0 0 0 0 0.227451 0 0 0 1 0"/><feBlend in2="shape" result="effect1_innerShadow_18_9715"/></filter><filter id="f2385id1c" width="6.27" height="8" x=".73" y="11.882" color-interpolation-filters="sRGB" filterUnits="userSpaceOnUse"><feFlood flood-opacity="0" result="BackgroundImageFix"/><feBlend in="SourceGraphic" in2="BackgroundImageFix" result="shape"/><feColorMatrix in="SourceAlpha" result="hardAlpha" values="0 0 0 0 0 0 0 0 0 0 0 0 0 0 0 0 0 0 127 0"/><feOffset dx="-1.25" dy="1"/><feGaussianBlur stdDeviation=".625"/><feComposite in2="hardAlpha" k2="-1" k3="1" operator="arithmetic"/><feColorMatrix values="0 0 0 0 0.152941 0 0 0 0 0.6 0 0 0 0 0.952941 0 0 0 1 0"/><feBlend in2="shape" result="effect1_innerShadow_18_9715"/></filter><filter id="f2385id1d" width="6.74" height="6.55" x="8.24" y="11.882" color-interpolation-filters="sRGB" filterUnits="userSpaceOnUse"><feFlood flood-opacity="0" result="BackgroundImageFix"/><feBlend in="SourceGraphic" in2="BackgroundImageFix" result="shape"/><feColorMatrix in="SourceAlpha" result="hardAlpha" values="0 0 0 0 0 0 0 0 0 0 0 0 0 0 0 0 0 0 127 0"/><feOffset dx="-.75" dy=".5"/><feGaussianBlur stdDeviation=".375"/><feComposite in2="hardAlpha" k2="-1" k3="1" operator="arithmetic"/><feColorMatrix values="0 0 0 0 0.152941 0 0 0 0 0.6 0 0 0 0 0.952941 0 0 0 1 0"/><feBlend in2="shape" result="effect1_innerShadow_18_9715"/></filter><filter id="f2385id1e" width="6.74" height="6.55" x="16.24" y="11.882" color-interpolation-filters="sRGB" filterUnits="userSpaceOnUse"><feFlood flood-opacity="0" result="BackgroundImageFix"/><feBlend in="SourceGraphic" in2="BackgroundImageFix" result="shape"/><feColorMatrix in="SourceAlpha" result="hardAlpha" values="0 0 0 0 0 0 0 0 0 0 0 0 0 0 0 0 0 0 127 0"/><feOffset dx="-.75" dy=".5"/><feGaussianBlur stdDeviation=".375"/><feComposite in2="hardAlpha" k2="-1" k3="1" operator="arithmetic"/><feColorMatrix values="0 0 0 0 0.152941 0 0 0 0 0.6 0 0 0 0 0.952941 0 0 0 1 0"/><feBlend in2="shape" result="effect1_innerShadow_18_9715"/></filter><filter id="f2385id1f" width="27.77" height="1.716" x="2.095" y="27.756" color-interpolation-filters="sRGB" filterUnits="userSpaceOnUse"><feFlood flood-opacity="0" result="BackgroundImageFix"/><feBlend in="SourceGraphic" in2="BackgroundImageFix" result="shape"/><feGaussianBlur result="effect1_foregroundBlur_18_9715" stdDeviation=".3"/></filter><filter id="f2385id1g" width="1.075" height="1.068" x="14.915" y="5.799" color-interpolation-filters="sRGB" filterUnits="userSpaceOnUse"><feFlood flood-opacity="0" result="BackgroundImageFix"/><feBlend in="SourceGraphic" in2="BackgroundImageFix" result="shape"/><feGaussianBlur result="effect1_foregroundBlur_18_9715" stdDeviation=".05"/></filter><filter id="f2385id1h" width="1.5" height="5.428" x="24.979" y="13.457" color-interpolation-filters="sRGB" filterUnits="userSpaceOnUse"><feFlood flood-opacity="0" result="BackgroundImageFix"/><feBlend in="SourceGraphic" in2="BackgroundImageFix" result="shape"/><feGaussianBlur result="effect1_foregroundBlur_18_9715" stdDeviation=".25"/></filter><radialGradient id="f2385id1i" cx="0" cy="0" r="1" gradientTransform="matrix(0 2.1221 -42.3018 0 23.06 3.307)" gradientUnits="userSpaceOnUse"><stop stop-color="#C4BEC8"/><stop offset="1" stop-color="#8F8C92"/></radialGradient><radialGradient id="f2385id1j" cx="0" cy="0" r="1" gradientTransform="matrix(-.8894 1.01 -.9057 -.79756 30.213 2.914)" gradientUnits="userSpaceOnUse"><stop stop-color="#E6E5E8"/><stop offset="1" stop-color="#E6E5E8" stop-opacity="0"/></radialGradient><radialGradient id="f2385id1k" cx="0" cy="0" r="1" gradientTransform="matrix(-1.55838 .74715 -.3997 -.83367 14.928 5.087)" gradientUnits="userSpaceOnUse"><stop offset=".548" stop-color="#58565A"/><stop offset="1" stop-color="#58565A" stop-opacity="0"/></radialGradient><radialGradient id="f2385id1l" cx="0" cy="0" r="1" gradientTransform="matrix(5.18722 0 0 .60043 6.298 25.88)" gradientUnits="userSpaceOnUse"><stop stop-color="#CFB6D9"/><stop offset="1" stop-color="#A28DAD"/></radialGradient><radialGradient id="f2385id1m" cx="0" cy="0" r="1" gradientTransform="matrix(5.18722 0 0 .60043 20.788 25.88)" gradientUnits="userSpaceOnUse"><stop stop-color="#CFB6D9"/><stop offset="1" stop-color="#A28DAD"/></radialGradient><radialGradient id="f2385id1n" cx="0" cy="0" r="1" gradientTransform="matrix(-1.29667 0 0 -8.10796 25.98 10.08)" gradientUnits="userSpaceOnUse"><stop stop-color="#DEDCDF"/><stop offset="1" stop-color="#DEDCDF" stop-opacity="0"/></radialGradient><radialGradient id="f2385id1o" cx="0" cy="0" r="1" gradientTransform="matrix(5.55258 -.8966 .3502 2.16879 24.98 12.265)" gradientUnits="userSpaceOnUse"><stop offset=".466" stop-color="#269AF3"/><stop offset="1" stop-color="#269AF3" stop-opacity="0"/></radialGradient></defs></g></svg>