<svg xmlns="http://www.w3.org/2000/svg" width="1em" height="1em" viewBox="0 0 32 32"><g fill="none"><path fill="url(#f2405id0)" d="M9.127 13.614v-3.63h-3.36c-.5 0-.9.4-.9.9v2.16c0 .71.3 1.34.78 1.79c.14.13.22.32.22.51v.68c0 1.63 1.33 2.96 2.96 2.96h1.36v-5.37z"/><path fill="url(#f2405idm)" d="M9.127 13.614v-3.63h-3.36c-.5 0-.9.4-.9.9v2.16c0 .71.3 1.34.78 1.79c.14.13.22.32.22.51v.68c0 1.63 1.33 2.96 2.96 2.96h1.36v-5.37z"/><path fill="url(#f2405idn)" d="M9.127 13.614v-3.63h-3.36c-.5 0-.9.4-.9.9v2.16c0 .71.3 1.34.78 1.79c.14.13.22.32.22.51v.68c0 1.63 1.33 2.96 2.96 2.96h1.36v-5.37z"/><path fill="url(#f2405id1)" d="M9.127 13.614v-3.63h-3.36c-.5 0-.9.4-.9.9v2.16c0 .71.3 1.34.78 1.79c.14.13.22.32.22.51v.68c0 1.63 1.33 2.96 2.96 2.96h1.36v-5.37z"/><path fill="url(#f2405ido)" d="M22.507 19.254h2.36c.2 0 .35.19.31.38l-2.21 9.96c-.06.23-.27.39-.5.39h-2.21a.32.32 0 0 1-.31-.38l2.25-10.1c.03-.15.16-.25.31-.25"/><path fill="url(#f2405id2)" d="M22.507 19.254h2.36c.2 0 .35.19.31.38l-2.21 9.96c-.06.23-.27.39-.5.39h-2.21a.32.32 0 0 1-.31-.38l2.25-10.1c.03-.15.16-.25.31-.25"/><path fill="url(#f2405id3)" d="M22.507 19.254h2.36c.2 0 .35.19.31.38l-2.21 9.96c-.06.23-.27.39-.5.39h-2.21a.32.32 0 0 1-.31-.38l2.25-10.1c.03-.15.16-.25.31-.25"/><path fill="url(#f2405id4)" d="M22.507 19.254h2.36c.2 0 .35.19.31.38l-2.21 9.96c-.06.23-.27.39-.5.39h-2.21a.32.32 0 0 1-.31-.38l2.25-10.1c.03-.15.16-.25.31-.25"/><path fill="url(#f2405idp)" d="M16.207 17.984h-3l2.57 11.61c.05.23.26.39.49.39h2.21c.2 0 .35-.18.31-.38z"/><path fill="url(#f2405id5)" d="M16.207 17.984h-3l2.57 11.61c.05.23.26.39.49.39h2.21c.2 0 .35-.18.31-.38z"/><path fill="url(#f2405id6)" d="M16.207 17.984h-3l2.57 11.61c.05.23.26.39.49.39h2.21c.2 0 .35-.18.31-.38z"/><path fill="url(#f2405id7)" d="M16.207 17.984h-3l2.57 11.61c.05.23.26.39.49.39h2.21c.2 0 .35-.18.31-.38z"/><path fill="url(#f2405idq)" d="m8.057 3.024l2.81.56v2.06l-5-.03v-.8a1.83 1.83 0 0 1 2.19-1.79"/><path fill="url(#f2405idr)" d="m8.057 3.024l2.81.56v2.06l-5-.03v-.8a1.83 1.83 0 0 1 2.19-1.79"/><path fill="url(#f2405ids)" d="m8.057 3.024l2.81.56v2.06l-5-.03v-.8a1.83 1.83 0 0 1 2.19-1.79"/><path fill="url(#f2405id8)" d="m8.057 3.024l2.81.56v2.06l-5-.03v-.8a1.83 1.83 0 0 1 2.19-1.79"/><path fill="url(#f2405id9)" d="m29.88 14.474l-3-4.03l-1.11-1.55a2.189 2.189 0 0 0-3.56 0l-1.21 1.7c-.25.35-.77.35-1.02 0l-1.21-1.7a2.189 2.189 0 0 0-3.56 0l-2.27 3.17c-.28.42-.93.22-.94-.28v-9.53c0-.15-.13-.27-.28-.27c-.95 0-1.72 1.27-1.72 2.23c0 .15-.13.27-.28.27H5.51C3.57 4.484 2 6.054 2 7.994v.87c0 .62.5 1.12 1.12 1.12h2.94c.52-.01.94.41.94.93v2.38c0 2.67 1.47 5.01 3.64 6.25c.22.13.36.36.36.62v9.31c0 .28.22.51.5.51h2c.28 0 .5-.22.5-.5v-8.25a.25.25 0 0 1 .25-.25H22c.689 0 1.338-.14 1.935-.386c.12-.05.259.02.287.148c.173.79.436 1.555.798 2.278l.85 1.71c.09.16.13.35.13.53v4.15c0 .31.25.57.57.57h1.93c.28 0 .5-.22.5-.5l-.01-14.21c.37.31 1.01.08 1.01-.44c0-.13-.04-.26-.12-.36"/><path fill="url(#f2405idt)" d="m29.88 14.474l-3-4.03l-1.11-1.55a2.189 2.189 0 0 0-3.56 0l-1.21 1.7c-.25.35-.77.35-1.02 0l-1.21-1.7a2.189 2.189 0 0 0-3.56 0l-2.27 3.17c-.28.42-.93.22-.94-.28v-9.53c0-.15-.13-.27-.28-.27c-.95 0-1.72 1.27-1.72 2.23c0 .15-.13.27-.28.27H5.51C3.57 4.484 2 6.054 2 7.994v.87c0 .62.5 1.12 1.12 1.12h2.94c.52-.01.94.41.94.93v2.38c0 2.67 1.47 5.01 3.64 6.25c.22.13.36.36.36.62v9.31c0 .28.22.51.5.51h2c.28 0 .5-.22.5-.5v-8.25a.25.25 0 0 1 .25-.25H22c.689 0 1.338-.14 1.935-.386c.12-.05.259.02.287.148c.173.79.436 1.555.798 2.278l.85 1.71c.09.16.13.35.13.53v4.15c0 .31.25.57.57.57h1.93c.28 0 .5-.22.5-.5l-.01-14.21c.37.31 1.01.08 1.01-.44c0-.13-.04-.26-.12-.36"/><path fill="url(#f2405idu)" d="m29.88 14.474l-3-4.03l-1.11-1.55a2.189 2.189 0 0 0-3.56 0l-1.21 1.7c-.25.35-.77.35-1.02 0l-1.21-1.7a2.189 2.189 0 0 0-3.56 0l-2.27 3.17c-.28.42-.93.22-.94-.28v-9.53c0-.15-.13-.27-.28-.27c-.95 0-1.72 1.27-1.72 2.23c0 .15-.13.27-.28.27H5.51C3.57 4.484 2 6.054 2 7.994v.87c0 .62.5 1.12 1.12 1.12h2.94c.52-.01.94.41.94.93v2.38c0 2.67 1.47 5.01 3.64 6.25c.22.13.36.36.36.62v9.31c0 .28.22.51.5.51h2c.28 0 .5-.22.5-.5v-8.25a.25.25 0 0 1 .25-.25H22c.689 0 1.338-.14 1.935-.386c.12-.05.259.02.287.148c.173.79.436 1.555.798 2.278l.85 1.71c.09.16.13.35.13.53v4.15c0 .31.25.57.57.57h1.93c.28 0 .5-.22.5-.5l-.01-14.21c.37.31 1.01.08 1.01-.44c0-.13-.04-.26-.12-.36"/><path fill="url(#f2405idv)" d="m29.88 14.474l-3-4.03l-1.11-1.55a2.189 2.189 0 0 0-3.56 0l-1.21 1.7c-.25.35-.77.35-1.02 0l-1.21-1.7a2.189 2.189 0 0 0-3.56 0l-2.27 3.17c-.28.42-.93.22-.94-.28v-9.53c0-.15-.13-.27-.28-.27c-.95 0-1.72 1.27-1.72 2.23c0 .15-.13.27-.28.27H5.51C3.57 4.484 2 6.054 2 7.994v.87c0 .62.5 1.12 1.12 1.12h2.94c.52-.01.94.41.94.93v2.38c0 2.67 1.47 5.01 3.64 6.25c.22.13.36.36.36.62v9.31c0 .28.22.51.5.51h2c.28 0 .5-.22.5-.5v-8.25a.25.25 0 0 1 .25-.25H22c.689 0 1.338-.14 1.935-.386c.12-.05.259.02.287.148c.173.79.436 1.555.798 2.278l.85 1.71c.09.16.13.35.13.53v4.15c0 .31.25.57.57.57h1.93c.28 0 .5-.22.5-.5l-.01-14.21c.37.31 1.01.08 1.01-.44c0-.13-.04-.26-.12-.36"/><path fill="url(#f2405idw)" d="m29.88 14.474l-3-4.03l-1.11-1.55a2.189 2.189 0 0 0-3.56 0l-1.21 1.7c-.25.35-.77.35-1.02 0l-1.21-1.7a2.189 2.189 0 0 0-3.56 0l-2.27 3.17c-.28.42-.93.22-.94-.28v-9.53c0-.15-.13-.27-.28-.27c-.95 0-1.72 1.27-1.72 2.23c0 .15-.13.27-.28.27H5.51C3.57 4.484 2 6.054 2 7.994v.87c0 .62.5 1.12 1.12 1.12h2.94c.52-.01.94.41.94.93v2.38c0 2.67 1.47 5.01 3.64 6.25c.22.13.36.36.36.62v9.31c0 .28.22.51.5.51h2c.28 0 .5-.22.5-.5v-8.25a.25.25 0 0 1 .25-.25H22c.689 0 1.338-.14 1.935-.386c.12-.05.259.02.287.148c.173.79.436 1.555.798 2.278l.85 1.71c.09.16.13.35.13.53v4.15c0 .31.25.57.57.57h1.93c.28 0 .5-.22.5-.5l-.01-14.21c.37.31 1.01.08 1.01-.44c0-.13-.04-.26-.12-.36"/><path fill="url(#f2405idx)" d="m29.88 14.474l-3-4.03l-1.11-1.55a2.189 2.189 0 0 0-3.56 0l-1.21 1.7c-.25.35-.77.35-1.02 0l-1.21-1.7a2.189 2.189 0 0 0-3.56 0l-2.27 3.17c-.28.42-.93.22-.94-.28v-9.53c0-.15-.13-.27-.28-.27c-.95 0-1.72 1.27-1.72 2.23c0 .15-.13.27-.28.27H5.51C3.57 4.484 2 6.054 2 7.994v.87c0 .62.5 1.12 1.12 1.12h2.94c.52-.01.94.41.94.93v2.38c0 2.67 1.47 5.01 3.64 6.25c.22.13.36.36.36.62v9.31c0 .28.22.51.5.51h2c.28 0 .5-.22.5-.5v-8.25a.25.25 0 0 1 .25-.25H22c.689 0 1.338-.14 1.935-.386c.12-.05.259.02.287.148c.173.79.436 1.555.798 2.278l.85 1.71c.09.16.13.35.13.53v4.15c0 .31.25.57.57.57h1.93c.28 0 .5-.22.5-.5l-.01-14.21c.37.31 1.01.08 1.01-.44c0-.13-.04-.26-.12-.36"/><path fill="url(#f2405idy)" d="m29.88 14.474l-3-4.03l-1.11-1.55a2.189 2.189 0 0 0-3.56 0l-1.21 1.7c-.25.35-.77.35-1.02 0l-1.21-1.7a2.189 2.189 0 0 0-3.56 0l-2.27 3.17c-.28.42-.93.22-.94-.28v-9.53c0-.15-.13-.27-.28-.27c-.95 0-1.72 1.27-1.72 2.23c0 .15-.13.27-.28.27H5.51C3.57 4.484 2 6.054 2 7.994v.87c0 .62.5 1.12 1.12 1.12h2.94c.52-.01.94.41.94.93v2.38c0 2.67 1.47 5.01 3.64 6.25c.22.13.36.36.36.62v9.31c0 .28.22.51.5.51h2c.28 0 .5-.22.5-.5v-8.25a.25.25 0 0 1 .25-.25H22c.689 0 1.338-.14 1.935-.386c.12-.05.259.02.287.148c.173.79.436 1.555.798 2.278l.85 1.71c.09.16.13.35.13.53v4.15c0 .31.25.57.57.57h1.93c.28 0 .5-.22.5-.5l-.01-14.21c.37.31 1.01.08 1.01-.44c0-.13-.04-.26-.12-.36"/><path fill="url(#f2405idz)" d="m29.88 14.474l-3-4.03l-1.11-1.55a2.189 2.189 0 0 0-3.56 0l-1.21 1.7c-.25.35-.77.35-1.02 0l-1.21-1.7a2.189 2.189 0 0 0-3.56 0l-2.27 3.17c-.28.42-.93.22-.94-.28v-9.53c0-.15-.13-.27-.28-.27c-.95 0-1.72 1.27-1.72 2.23c0 .15-.13.27-.28.27H5.51C3.57 4.484 2 6.054 2 7.994v.87c0 .62.5 1.12 1.12 1.12h2.94c.52-.01.94.41.94.93v2.38c0 2.67 1.47 5.01 3.64 6.25c.22.13.36.36.36.62v9.31c0 .28.22.51.5.51h2c.28 0 .5-.22.5-.5v-8.25a.25.25 0 0 1 .25-.25H22c.689 0 1.338-.14 1.935-.386c.12-.05.259.02.287.148c.173.79.436 1.555.798 2.278l.85 1.71c.09.16.13.35.13.53v4.15c0 .31.25.57.57.57h1.93c.28 0 .5-.22.5-.5l-.01-14.21c.37.31 1.01.08 1.01-.44c0-.13-.04-.26-.12-.36"/><path fill="url(#f2405ida)" d="M7.367 7.804c-.28 0-.5-.22-.5-.5v-.87c0-.28.22-.5.5-.5s.5.22.5.5v.88c0 .27-.22.49-.5.49"/><path fill="url(#f2405idb)" d="M7.367 7.804c-.28 0-.5-.22-.5-.5v-.87c0-.28.22-.5.5-.5s.5.22.5.5v.88c0 .27-.22.49-.5.49"/><path fill="url(#f2405idc)" d="M7.367 7.804c-.28 0-.5-.22-.5-.5v-.87c0-.28.22-.5.5-.5s.5.22.5.5v.88c0 .27-.22.49-.5.49"/><path fill="url(#f2405id10)" d="M3.367 8.984c-.28 0-.5-.22-.5-.5v-.44c0-.28.22-.5.5-.5s.5.22.5.5v.44c0 .28-.22.5-.5.5"/><path fill="url(#f2405idd)" d="M11.007 20.207c0-.5-.316-.586-.71-.879c0-1.187.96-3.328 2.242-3.328c1.28 0 1.468 1.969 1.468 2.781v10.703c0 .28-.22.5-.5.5h-2c-.28 0-.5-.22-.5-.5z"/><path fill="url(#f2405ide)" d="M11.007 20.207c0-.5-.316-.586-.71-.879c0-1.187.96-3.328 2.242-3.328c1.28 0 1.468 1.969 1.468 2.781v10.703c0 .28-.22.5-.5.5h-2c-.28 0-.5-.22-.5-.5z"/><path fill="url(#f2405id11)" d="M28.99 29.588V14.813c-1.719 0-4.83 2.468-4.83 5.775l.012.062a.204.204 0 0 1 .05.096c.173.79.436 1.555.798 2.278l.85 1.71c.09.16.13.35.13.53v4.15c0 .31.25.57.57.57h1.93a.494.494 0 0 0 .49-.396"/><path fill="url(#f2405idf)" d="M28.99 29.588V14.813c-1.719 0-4.83 2.468-4.83 5.775l.012.062a.204.204 0 0 1 .05.096c.173.79.436 1.555.798 2.278l.85 1.71c.09.16.13.35.13.53v4.15c0 .31.25.57.57.57h1.93a.494.494 0 0 0 .49-.396"/><g filter="url(#f2405id16)"><path fill="url(#f2405idg)" d="m20.595 16.374l-3.978-8.11c.714 0 1.386.335 1.817.905l2.16 2.862z"/></g><g filter="url(#f2405id17)"><path fill="url(#f2405id12)" d="M24.42 9.235v6.708l4.063 4.548v-6.527l-3.612-4.878a.25.25 0 0 0-.45.15"/></g><path fill="url(#f2405id13)" fill-rule="evenodd" d="M24.226 20.766v-5.953H14.007v6.36a.25.25 0 0 1 .243-.189H22c.689 0 1.338-.14 1.935-.386a.211.211 0 0 1 .291.168" clip-rule="evenodd"/><path fill="url(#f2405id14)" fill-rule="evenodd" d="M24.226 20.766v-5.953H14.007v6.36a.25.25 0 0 1 .243-.189H22c.689 0 1.338-.14 1.935-.386a.211.211 0 0 1 .291.168" clip-rule="evenodd"/><path fill="url(#f2405id15)" fill-rule="evenodd" d="M24.226 20.766v-5.953H14.007v6.36a.25.25 0 0 1 .243-.189H22c.689 0 1.338-.14 1.935-.386a.211.211 0 0 1 .291.168" clip-rule="evenodd"/><g filter="url(#f2405id18)"><path fill="url(#f2405idh)" d="M11.68 11.828V2.547c-.85.525-1.022 6.406-1 9.281z"/></g><g filter="url(#f2405id19)"><rect width="1.375" height="5.953" x="10.179" y="7.188" fill="url(#f2405idi)" rx=".687"/></g><g filter="url(#f2405id1a)"><path fill="#FEB98C" d="M12.707 18.547h.66v10.438h-.66z"/></g><g filter="url(#f2405id1b)"><path fill="url(#f2405idj)" d="M27.703 15.191h.66v13.994h-.66z"/></g><g filter="url(#f2405id1c)"><path stroke="url(#f2405idk)" stroke-width=".5" d="m15.523 21.14l1.969 8.157"/></g><g filter="url(#f2405id1d)"><path stroke="url(#f2405idl)" stroke-width=".5" d="m23.304 21.14l-1.968 8.157"/></g><g filter="url(#f2405id1e)"><path stroke="#FEB98C" stroke-linecap="round" stroke-width=".3" d="M13.398 17.656c.203.396.61 1.519.61 2.844"/></g><defs><linearGradient id="f2405id0" x1="6.367" x2="6.367" y1="8.672" y2="18.609" gradientUnits="userSpaceOnUse"><stop stop-color="#9D481F"/><stop offset="1" stop-color="#C27550"/></linearGradient><linearGradient id="f2405id1" x1="1.461" x2="5.679" y1="13.172" y2="13.172" gradientUnits="userSpaceOnUse"><stop stop-color="#FEB98C"/><stop offset="1" stop-color="#FEB98C" stop-opacity="0"/></linearGradient><linearGradient id="f2405id2" x1="23.554" x2="26.213" y1="28.484" y2="19.319" gradientUnits="userSpaceOnUse"><stop stop-color="#7E3834" stop-opacity="0"/><stop offset=".878" stop-color="#7E3834"/></linearGradient><linearGradient id="f2405id3" x1="24.842" x2="24.617" y1="28.14" y2="21.859" gradientUnits="userSpaceOnUse"><stop stop-color="#D57446"/><stop offset="1" stop-color="#D57446" stop-opacity="0"/></linearGradient><linearGradient id="f2405id4" x1="23.422" x2="23.422" y1="30.581" y2="28.968" gradientUnits="userSpaceOnUse"><stop stop-color="#C26378"/><stop offset="1" stop-color="#C26378" stop-opacity="0"/></linearGradient><linearGradient id="f2405id5" x1="17.058" x2="15.675" y1="28.307" y2="19.479" gradientUnits="userSpaceOnUse"><stop stop-color="#7E3834" stop-opacity="0"/><stop offset=".878" stop-color="#7E3834"/></linearGradient><linearGradient id="f2405id6" x1="18.429" x2="18.429" y1="27.922" y2="21.484" gradientUnits="userSpaceOnUse"><stop stop-color="#D57446"/><stop offset="1" stop-color="#D57446" stop-opacity="0"/></linearGradient><linearGradient id="f2405id7" x1="16.916" x2="16.916" y1="30.652" y2="28.847" gradientUnits="userSpaceOnUse"><stop stop-color="#C26378"/><stop offset="1" stop-color="#C26378" stop-opacity="0"/></linearGradient><linearGradient id="f2405id8" x1="9.132" x2="9.132" y1="5.453" y2="4.078" gradientUnits="userSpaceOnUse"><stop offset=".22" stop-color="#824530"/><stop offset="1" stop-color="#824530" stop-opacity="0"/></linearGradient><linearGradient id="f2405id9" x1="16" x2="16" y1="9.859" y2="23.047" gradientUnits="userSpaceOnUse"><stop stop-color="#E9B077"/><stop offset="1" stop-color="#D48153"/></linearGradient><linearGradient id="f2405ida" x1="7.705" x2="7.093" y1="6.869" y2="6.869" gradientUnits="userSpaceOnUse"><stop stop-color="#574D50"/><stop offset=".855" stop-color="#31232C"/></linearGradient><linearGradient id="f2405idb" x1="8.023" x2="8.023" y1="8.015" y2="7.336" gradientUnits="userSpaceOnUse"><stop stop-color="#552D52"/><stop offset="1" stop-color="#552D52" stop-opacity="0"/></linearGradient><linearGradient id="f2405idc" x1="6.657" x2="7.109" y1="6.984" y2="6.984" gradientUnits="userSpaceOnUse"><stop stop-color="#574D50"/><stop offset="1" stop-color="#574D50" stop-opacity="0"/></linearGradient><linearGradient id="f2405idd" x1="10.929" x2="10.929" y1="29.984" y2="20.547" gradientUnits="userSpaceOnUse"><stop stop-color="#D67F50"/><stop offset="1" stop-color="#D67F50" stop-opacity="0"/></linearGradient><linearGradient id="f2405ide" x1="12.761" x2="12.761" y1="30.762" y2="28.659" gradientUnits="userSpaceOnUse"><stop stop-color="#C26378"/><stop offset="1" stop-color="#C26378" stop-opacity="0"/></linearGradient><linearGradient id="f2405idf" x1="27.367" x2="27.367" y1="30.828" y2="28.547" gradientUnits="userSpaceOnUse"><stop stop-color="#C26378"/><stop offset="1" stop-color="#C26378" stop-opacity="0"/></linearGradient><linearGradient id="f2405idg" x1="17.597" x2="21.179" y1="8.264" y2="15.734" gradientUnits="userSpaceOnUse"><stop stop-color="#FBC791"/><stop offset="1" stop-color="#FBC791" stop-opacity="0"/></linearGradient><linearGradient id="f2405idh" x1="11.826" x2="14.829" y1="1.578" y2="3.359" gradientUnits="userSpaceOnUse"><stop stop-color="#F9CC9E"/><stop offset="1" stop-color="#F9CC9E" stop-opacity="0"/></linearGradient><linearGradient id="f2405idi" x1="11.756" x2="6.819" y1="15.234" y2="8.969" gradientUnits="userSpaceOnUse"><stop stop-color="#F9CC9E"/><stop offset="1" stop-color="#F9CC9E" stop-opacity="0"/></linearGradient><linearGradient id="f2405idj" x1="27.295" x2="27.295" y1="30.469" y2="19.861" gradientUnits="userSpaceOnUse"><stop stop-color="#FBC791"/><stop offset="1" stop-color="#FBC791" stop-opacity="0"/></linearGradient><linearGradient id="f2405idk" x1="15.804" x2="17.492" y1="21.391" y2="29.297" gradientUnits="userSpaceOnUse"><stop stop-color="#CA886C"/><stop offset="1" stop-color="#F9A372"/></linearGradient><linearGradient id="f2405idl" x1="23.023" x2="21.335" y1="21.391" y2="29.297" gradientUnits="userSpaceOnUse"><stop stop-color="#CA886C"/><stop offset="1" stop-color="#F9A372"/></linearGradient><radialGradient id="f2405idm" cx="0" cy="0" r="1" gradientTransform="rotate(101.957 -.696 7.526)scale(2.71516 2.23715)" gradientUnits="userSpaceOnUse"><stop stop-color="#803815"/><stop offset="1" stop-color="#9D481F" stop-opacity="0"/></radialGradient><radialGradient id="f2405idn" cx="0" cy="0" r="1" gradientTransform="matrix(-1.99996 -5.00001 2.57528 -1.03009 9.867 20.11)" gradientUnits="userSpaceOnUse"><stop stop-color="#D15C76"/><stop offset="1" stop-color="#C26378" stop-opacity="0"/></radialGradient><radialGradient id="f2405ido" cx="0" cy="0" r="1" gradientTransform="matrix(3.51943 12.57426 -2.75967 .77241 23.903 27.358)" gradientUnits="userSpaceOnUse"><stop stop-color="#C56B44"/><stop offset="1" stop-color="#7E3834"/></radialGradient><radialGradient id="f2405idp" cx="0" cy="0" r="1" gradientTransform="rotate(75.069 -8.888 24.867)scale(14.5539 3.06377)" gradientUnits="userSpaceOnUse"><stop stop-color="#C56B44"/><stop offset="1" stop-color="#7E3834"/></radialGradient><radialGradient id="f2405idq" cx="0" cy="0" r="1" gradientTransform="matrix(3.6875 2.125 -2.07665 3.6036 6.742 2.766)" gradientUnits="userSpaceOnUse"><stop offset=".349" stop-color="#D98C47"/><stop offset="1" stop-color="#824530"/></radialGradient><radialGradient id="f2405idr" cx="0" cy="0" r="1" gradientTransform="matrix(1.75 .5971 -.3919 1.1486 7.492 3.719)" gradientUnits="userSpaceOnUse"><stop stop-color="#D18F61"/><stop offset="1" stop-color="#C7885C" stop-opacity="0"/></radialGradient><radialGradient id="f2405ids" cx="0" cy="0" r="1" gradientTransform="rotate(-151.518 5.931 1.14)scale(1.671 .968)" gradientUnits="userSpaceOnUse"><stop stop-color="#824530"/><stop offset="1" stop-color="#824530" stop-opacity="0"/></radialGradient><radialGradient id="f2405idt" cx="0" cy="0" r="1" gradientTransform="rotate(74.952 4.699 18.264)scale(6.8926 3.39462)" gradientUnits="userSpaceOnUse"><stop stop-color="#C98A55"/><stop offset="1" stop-color="#C98A55" stop-opacity="0"/></radialGradient><radialGradient id="f2405idu" cx="0" cy="0" r="1" gradientTransform="rotate(106.345 3.745 9.157)scale(6.77376 2.69222)" gradientUnits="userSpaceOnUse"><stop stop-color="#C98A55"/><stop offset="1" stop-color="#C98A55" stop-opacity="0"/></radialGradient><radialGradient id="f2405idv" cx="0" cy="0" r="1" gradientTransform="matrix(1.9375 -5.5 5.49458 1.9356 9.117 21.11)" gradientUnits="userSpaceOnUse"><stop stop-color="#BF7E48"/><stop offset="1" stop-color="#C98A55" stop-opacity="0"/></radialGradient><radialGradient id="f2405idw" cx="0" cy="0" r="1" gradientTransform="rotate(-34.87 21.457 5.386)scale(8.41763 3.5093)" gradientUnits="userSpaceOnUse"><stop stop-color="#C9578E"/><stop offset="1" stop-color="#C9578E" stop-opacity="0"/></radialGradient><radialGradient id="f2405idx" cx="0" cy="0" r="1" gradientTransform="matrix(4.25 -4.125 3.96394 4.08406 6.304 20.922)" gradientUnits="userSpaceOnUse"><stop stop-color="#C26378"/><stop offset="1" stop-color="#C26378" stop-opacity="0"/></radialGradient><radialGradient id="f2405idy" cx="0" cy="0" r="1" gradientTransform="matrix(-6.56253 3.49994 -4.1559 -7.79248 32.304 12.484)" gradientUnits="userSpaceOnUse"><stop stop-color="#FBC791"/><stop offset="1" stop-color="#FBC791" stop-opacity="0"/></radialGradient><radialGradient id="f2405idz" cx="0" cy="0" r="1" gradientTransform="rotate(-127.493 18.875 .627)scale(2.87517 1.11703)" gradientUnits="userSpaceOnUse"><stop stop-color="#D57E34"/><stop offset="1" stop-color="#D47E34" stop-opacity="0"/></radialGradient><radialGradient id="f2405id10" cx="0" cy="0" r="1" gradientTransform="matrix(.4375 0 0 .82813 3.171 8.422)" gradientUnits="userSpaceOnUse"><stop stop-color="#C78E72"/><stop offset="1" stop-color="#BC7748"/></radialGradient><radialGradient id="f2405id11" cx="0" cy="0" r="1" gradientTransform="matrix(3.45797 -2.21875 3.45797 5.38932 23.117 23.86)" gradientUnits="userSpaceOnUse"><stop stop-color="#C26378"/><stop offset="1" stop-color="#C26378" stop-opacity="0"/></radialGradient><radialGradient id="f2405id12" cx="0" cy="0" r="1" gradientTransform="matrix(-2.92193 10.0312 -32.1442 -9.3631 26.452 9.734)" gradientUnits="userSpaceOnUse"><stop stop-color="#FBC791"/><stop offset="1" stop-color="#FBC791" stop-opacity="0"/></radialGradient><radialGradient id="f2405id13" cx="0" cy="0" r="1" gradientTransform="matrix(0 -4.15625 9.7655 0 18.523 22.328)" gradientUnits="userSpaceOnUse"><stop stop-color="#C26378"/><stop offset="1" stop-color="#C26378" stop-opacity="0"/></radialGradient><radialGradient id="f2405id14" cx="0" cy="0" r="1" gradientTransform="matrix(0 -2.25 16.9992 0 18.523 21.422)" gradientUnits="userSpaceOnUse"><stop stop-color="#D86BA6"/><stop offset=".407" stop-color="#D86BA6" stop-opacity="0"/></radialGradient><radialGradient id="f2405id15" cx="0" cy="0" r="1" gradientTransform="rotate(-71.893 26.06 2.17)scale(10.3566 13.0023)" gradientUnits="userSpaceOnUse"><stop stop-color="#C26378"/><stop offset="1" stop-color="#C26378" stop-opacity="0"/></radialGradient><filter id="f2405id16" width="5.978" height="10.109" x="15.617" y="7.264" color-interpolation-filters="sRGB" filterUnits="userSpaceOnUse"><feFlood flood-opacity="0" result="BackgroundImageFix"/><feBlend in="SourceGraphic" in2="BackgroundImageFix" result="shape"/><feGaussianBlur result="effect1_foregroundBlur_28327_3315" stdDeviation=".5"/></filter><filter id="f2405id17" width="6.563" height="14.007" x="23.171" y="7.735" color-interpolation-filters="sRGB" filterUnits="userSpaceOnUse"><feFlood flood-opacity="0" result="BackgroundImageFix"/><feBlend in="SourceGraphic" in2="BackgroundImageFix" result="shape"/><feGaussianBlur result="effect1_foregroundBlur_28327_3315" stdDeviation=".625"/></filter><filter id="f2405id18" width="2.002" height="10.281" x="10.178" y="2.047" color-interpolation-filters="sRGB" filterUnits="userSpaceOnUse"><feFlood flood-opacity="0" result="BackgroundImageFix"/><feBlend in="SourceGraphic" in2="BackgroundImageFix" result="shape"/><feGaussianBlur result="effect1_foregroundBlur_28327_3315" stdDeviation=".25"/></filter><filter id="f2405id19" width="3.375" height="7.953" x="9.179" y="6.188" color-interpolation-filters="sRGB" filterUnits="userSpaceOnUse"><feFlood flood-opacity="0" result="BackgroundImageFix"/><feBlend in="SourceGraphic" in2="BackgroundImageFix" result="shape"/><feGaussianBlur result="effect1_foregroundBlur_28327_3315" stdDeviation=".5"/></filter><filter id="f2405id1a" width="2.66" height="12.438" x="11.707" y="17.547" color-interpolation-filters="sRGB" filterUnits="userSpaceOnUse"><feFlood flood-opacity="0" result="BackgroundImageFix"/><feBlend in="SourceGraphic" in2="BackgroundImageFix" result="shape"/><feGaussianBlur result="effect1_foregroundBlur_28327_3315" stdDeviation=".5"/></filter><filter id="f2405id1b" width="2.66" height="15.994" x="26.703" y="14.191" color-interpolation-filters="sRGB" filterUnits="userSpaceOnUse"><feFlood flood-opacity="0" result="BackgroundImageFix"/><feBlend in="SourceGraphic" in2="BackgroundImageFix" result="shape"/><feGaussianBlur result="effect1_foregroundBlur_28327_3315" stdDeviation=".5"/></filter><filter id="f2405id1c" width="3.955" height="9.774" x="14.53" y="20.332" color-interpolation-filters="sRGB" filterUnits="userSpaceOnUse"><feFlood flood-opacity="0" result="BackgroundImageFix"/><feBlend in="SourceGraphic" in2="BackgroundImageFix" result="shape"/><feGaussianBlur result="effect1_foregroundBlur_28327_3315" stdDeviation=".375"/></filter><filter id="f2405id1d" width="3.955" height="9.774" x="20.343" y="20.332" color-interpolation-filters="sRGB" filterUnits="userSpaceOnUse"><feFlood flood-opacity="0" result="BackgroundImageFix"/><feBlend in="SourceGraphic" in2="BackgroundImageFix" result="shape"/><feGaussianBlur result="effect1_foregroundBlur_28327_3315" stdDeviation=".375"/></filter><filter id="f2405id1e" width="2.409" height="4.644" x="12.498" y="16.756" color-interpolation-filters="sRGB" filterUnits="userSpaceOnUse"><feFlood flood-opacity="0" result="BackgroundImageFix"/><feBlend in="SourceGraphic" in2="BackgroundImageFix" result="shape"/><feGaussianBlur result="effect1_foregroundBlur_28327_3315" stdDeviation=".375"/></filter></defs></g></svg>