<svg xmlns="http://www.w3.org/2000/svg" width="1em" height="1em" viewBox="0 0 32 32"><g fill="none"><g filter="url(#f2408ide)"><path fill="url(#f2408id0)" d="M5.01 29.938h21.98c1.66 0 3.01-1.35 3.01-3.01V20a2 2 0 0 0-2-2H4a2 2 0 0 0-2 2v6.927c0 1.67 1.35 3.01 3.01 3.01"/></g><g filter="url(#f2408idf)"><path fill="url(#f2408ida)" d="M7.79 28.31c13.705 0 17.717-1.868 17.717-2.783c0-.914-4.697-2.784-17.717-2.784z"/></g><g filter="url(#f2408idg)"><path fill="url(#f2408id1)" d="M24.25 7.878L7.12 25.008c-.2.2-.2.52 0 .72c.2.2.52.2.72 0l17.13-17.13c.2-.2.2-.52 0-.72c-.2-.2-.52-.2-.72 0"/><path fill="url(#f2408idb)" d="M24.25 7.878L7.12 25.008c-.2.2-.2.52 0 .72c.2.2.52.2.72 0l17.13-17.13c.2-.2.2-.52 0-.72c-.2-.2-.52-.2-.72 0"/></g><path fill="url(#f2408id2)" d="M22.82 25.848c.76.76 1.95.82 2.52.08c3.9-5.1 3.49-12.46-1.21-17.16c-4.7-4.7-12.08-5.12-17.18-1.22c-.74.56-.68 1.75.08 2.51l.76.76l7.579 7.643l6.681 6.617z"/><path fill="url(#f2408idc)" d="M22.82 25.848c.76.76 1.95.82 2.52.08c3.9-5.1 3.49-12.46-1.21-17.16c-4.7-4.7-12.08-5.12-17.18-1.22c-.74.56-.68 1.75.08 2.51l.76.76l7.579 7.643l6.681 6.617z"/><path fill="url(#f2408id3)" d="M22.82 25.848c.76.76 1.95.82 2.52.08c3.9-5.1 3.49-12.46-1.21-17.16c-4.7-4.7-12.08-5.12-17.18-1.22c-.74.56-.68 1.75.08 2.51l.76.76l7.579 7.643l6.681 6.617z"/><path fill="url(#f2408id4)" d="M22.82 25.848c.76.76 1.95.82 2.52.08c3.9-5.1 3.49-12.46-1.21-17.16c-4.7-4.7-12.08-5.12-17.18-1.22c-.74.56-.68 1.75.08 2.51l.76.76l7.579 7.643l6.681 6.617z"/><path fill="url(#f2408idd)" d="M22.82 25.848c.76.76 1.95.82 2.52.08c3.9-5.1 3.49-12.46-1.21-17.16c-4.7-4.7-12.08-5.12-17.18-1.22c-.74.56-.68 1.75.08 2.51l.76.76l7.579 7.643l6.681 6.617z"/><path fill="url(#f2408id5)" d="M24.233 8.894c3.785 3.97 2.83 11.161-2.193 16.184l-3.576-3.579l.006-.002c4.96-4.959 7.479-10.518 5.763-12.603"/><path fill="url(#f2408id6)" d="M24.233 8.894c3.785 3.97 2.83 11.161-2.193 16.184l-3.576-3.579l.006-.002c4.96-4.959 7.479-10.518 5.763-12.603"/><path fill="url(#f2408id7)" d="M23.96 8.62c-3.971-3.78-11.15-2.823-16.17 2.198l3.55 3.577c4.964-4.962 10.531-7.49 12.62-5.774"/><path fill="url(#f2408id8)" d="M23.96 8.62c-3.971-3.78-11.15-2.823-16.17 2.198l3.55 3.577c4.964-4.962 10.531-7.49 12.62-5.774"/><g filter="url(#f2408idh)"><path stroke="url(#f2408id9)" stroke-linecap="round" stroke-width=".25" d="m7.4 25.27l5.574-5.582"/></g><defs><linearGradient id="f2408id0" x1="27.019" x2="12.029" y1="29.124" y2="20.73" gradientUnits="userSpaceOnUse"><stop stop-color="#FFC250"/><stop offset="1" stop-color="#FFB000"/></linearGradient><linearGradient id="f2408id1" x1="24.997" x2="7.146" y1="7.887" y2="25.738" gradientUnits="userSpaceOnUse"><stop stop-color="#A66459"/><stop offset=".589" stop-color="#8A3F42"/><stop offset="1" stop-color="#7B4230"/></linearGradient><linearGradient id="f2408id2" x1="22.13" x2="13.192" y1="14.375" y2="16.438" gradientUnits="userSpaceOnUse"><stop stop-color="#FF6072"/><stop offset="1" stop-color="#EC3A51"/></linearGradient><linearGradient id="f2408id3" x1="13.089" x2="15.984" y1="17.67" y2="14.775" gradientUnits="userSpaceOnUse"><stop stop-color="#CB3A43"/><stop offset=".481" stop-color="#D92E49"/><stop offset=".671" stop-color="#D92E49" stop-opacity="0"/></linearGradient><linearGradient id="f2408id4" x1="29.691" x2="22.653" y1="23.289" y2="18.238" gradientUnits="userSpaceOnUse"><stop stop-color="#EE442B"/><stop offset="1" stop-color="#EE442B" stop-opacity="0"/></linearGradient><linearGradient id="f2408id5" x1="15.067" x2="24.005" y1="18.188" y2="9.25" gradientUnits="userSpaceOnUse"><stop stop-color="#E5DFEA"/><stop offset="1" stop-color="#FEFCFF"/></linearGradient><linearGradient id="f2408id6" x1="13.692" x2="16.474" y1="19" y2="16.219" gradientUnits="userSpaceOnUse"><stop stop-color="#C9B9C9"/><stop offset=".612" stop-color="#D4C9DC"/><stop offset=".815" stop-color="#D4C9DC" stop-opacity="0"/></linearGradient><linearGradient id="f2408id7" x1="15.067" x2="24.005" y1="18.188" y2="9.25" gradientUnits="userSpaceOnUse"><stop stop-color="#E5DFEA"/><stop offset="1" stop-color="#FEFCFF"/></linearGradient><linearGradient id="f2408id8" x1="13.692" x2="16.474" y1="19" y2="16.219" gradientUnits="userSpaceOnUse"><stop stop-color="#C9B9C9"/><stop offset=".612" stop-color="#D4C9DC"/><stop offset=".815" stop-color="#D4C9DC" stop-opacity="0"/></linearGradient><linearGradient id="f2408id9" x1="7.786" x2="13.589" y1="24.667" y2="23.419" gradientUnits="userSpaceOnUse"><stop stop-color="#7F5951"/><stop offset="1" stop-color="#7F5951" stop-opacity="0"/></linearGradient><radialGradient id="f2408ida" cx="0" cy="0" r="1" gradientTransform="matrix(-19.2226 0 0 -5.27651 24.27 25.177)" gradientUnits="userSpaceOnUse"><stop stop-color="#D7731C"/><stop offset="1" stop-color="#D7731C" stop-opacity="0"/></radialGradient><radialGradient id="f2408idb" cx="0" cy="0" r="1" gradientTransform="matrix(-.70434 .59401 -.38087 -.4516 25.062 7.812)" gradientUnits="userSpaceOnUse"><stop stop-color="#C18E80"/><stop offset=".993" stop-color="#C18E80" stop-opacity="0"/></radialGradient><radialGradient id="f2408idc" cx="0" cy="0" r="1" gradientTransform="rotate(-23.165 55.075 -29.849)scale(12.8413 20.2531)" gradientUnits="userSpaceOnUse"><stop offset=".768" stop-color="#EA596B" stop-opacity="0"/><stop offset="1" stop-color="#EA596B"/></radialGradient><radialGradient id="f2408idd" cx="0" cy="0" r="1" gradientTransform="rotate(-119.416 15.314 2.748)scale(13.489 22.5036)" gradientUnits="userSpaceOnUse"><stop stop-color="#CA3E4B" stop-opacity="0"/><stop offset=".611" stop-color="#CA3E4B" stop-opacity="0"/><stop offset="1" stop-color="#CA3E4B"/></radialGradient><filter id="f2408ide" width="28.15" height="11.938" x="1.85" y="18" color-interpolation-filters="sRGB" filterUnits="userSpaceOnUse"><feFlood flood-opacity="0" result="BackgroundImageFix"/><feBlend in="SourceGraphic" in2="BackgroundImageFix" result="shape"/><feColorMatrix in="SourceAlpha" result="hardAlpha" values="0 0 0 0 0 0 0 0 0 0 0 0 0 0 0 0 0 0 127 0"/><feOffset dx="-.15"/><feGaussianBlur stdDeviation=".25"/><feComposite in2="hardAlpha" k2="-1" k3="1" operator="arithmetic"/><feColorMatrix values="0 0 0 0 1 0 0 0 0 0.886275 0 0 0 0 0.45098 0 0 0 1 0"/><feBlend in2="shape" result="effect1_innerShadow_18_15504"/></filter><filter id="f2408idf" width="19.716" height="7.568" x="6.79" y="21.743" color-interpolation-filters="sRGB" filterUnits="userSpaceOnUse"><feFlood flood-opacity="0" result="BackgroundImageFix"/><feBlend in="SourceGraphic" in2="BackgroundImageFix" result="shape"/><feGaussianBlur result="effect1_foregroundBlur_18_15504" stdDeviation=".5"/></filter><filter id="f2408idg" width="18.15" height="18.35" x="6.97" y="7.528" color-interpolation-filters="sRGB" filterUnits="userSpaceOnUse"><feFlood flood-opacity="0" result="BackgroundImageFix"/><feBlend in="SourceGraphic" in2="BackgroundImageFix" result="shape"/><feColorMatrix in="SourceAlpha" result="hardAlpha" values="0 0 0 0 0 0 0 0 0 0 0 0 0 0 0 0 0 0 127 0"/><feOffset dy="-.2"/><feGaussianBlur stdDeviation=".25"/><feComposite in2="hardAlpha" k2="-1" k3="1" operator="arithmetic"/><feColorMatrix values="0 0 0 0 0.498039 0 0 0 0 0.262745 0 0 0 0 0.109804 0 0 0 1 0"/><feBlend in2="shape" result="effect1_innerShadow_18_15504"/></filter><filter id="f2408idh" width="6.325" height="6.333" x="7.024" y="19.313" color-interpolation-filters="sRGB" filterUnits="userSpaceOnUse"><feFlood flood-opacity="0" result="BackgroundImageFix"/><feBlend in="SourceGraphic" in2="BackgroundImageFix" result="shape"/><feGaussianBlur result="effect1_foregroundBlur_18_15504" stdDeviation=".125"/></filter></defs></g></svg>