<svg xmlns="http://www.w3.org/2000/svg" width="1em" height="1em" viewBox="0 0 32 32"><g fill="none"><circle cx="16" cy="16" r="14" fill="url(#f2442id0)"/><circle cx="16" cy="16" r="14" fill="url(#f2442id1)"/><circle cx="16" cy="16" r="14" fill="url(#f2442id2)"/><circle cx="16" cy="16" r="14" fill="url(#f2442id3)"/><circle cx="15.5" cy="5.5" r="1.5" fill="url(#f2442idj)"/><circle cx="22.5" cy="11.5" r="2.5" fill="url(#f2442idk)"/><circle cx="16.5" cy="21.5" r="2.5" fill="url(#f2442idl)"/><g filter="url(#f2442idx)"><circle cx="9.5" cy="12.5" r="3.5" stroke="url(#f2442idm)" stroke-width=".2"/></g><path fill="url(#f2442idn)" d="M10.189 28.74a14.054 14.054 0 0 1-5.439-4.405a3.5 3.5 0 1 1 5.439 4.406"/><path fill="url(#f2442id4)" d="M10.189 28.74a14.054 14.054 0 0 1-5.439-4.405a3.5 3.5 0 1 1 5.439 4.406"/><path fill="url(#f2442ido)" d="M28.955 21.316a14.04 14.04 0 0 1-4.073 5.507a3.5 3.5 0 0 1 4.074-5.507"/><path fill="url(#f2442id5)" d="M15.681 29.996c.106.003.212.004.319.004c7.732 0 14-6.268 14-14S23.732 2 16 2c-.107 0-.213.001-.32.004C11.606 5.304 9 10.348 9 16a17.96 17.96 0 0 0 6.681 13.996"/><path fill="url(#f2442id6)" d="M15.681 29.996c.106.003.212.004.319.004c7.732 0 14-6.268 14-14S23.732 2 16 2c-.107 0-.213.001-.32.004C11.606 5.304 9 10.348 9 16a17.96 17.96 0 0 0 6.681 13.996"/><g filter="url(#f2442idy)"><circle cx="22.5" cy="11.5" r="2.5" fill="url(#f2442id7)"/><circle cx="22.5" cy="11.5" r="2.6" stroke="url(#f2442idp)" stroke-width=".2"/></g><circle cx="16.5" cy="21.5" r="2.5" fill="url(#f2442idq)"/><g filter="url(#f2442idz)"><circle cx="16.5" cy="21.5" r="2.5" stroke="url(#f2442idr)" stroke-width=".25"/></g><circle cx="16.5" cy="21.5" r="2.5" fill="url(#f2442id8)"/><circle cx="16.5" cy="21.5" r="2.5" fill="url(#f2442id9)"/><circle cx="16.5" cy="21.5" r="2.5" fill="url(#f2442ida)"/><circle cx="16.5" cy="21.5" r="2.5" fill="url(#f2442idb)"/><circle cx="9.5" cy="12.5" r="3.5" fill="url(#f2442idc)"/><circle cx="9.5" cy="12.5" r="3.5" fill="url(#f2442idd)"/><circle cx="9.5" cy="12.5" r="3.5" fill="url(#f2442ide)"/><g filter="url(#f2442id10)"><path stroke="url(#f2442ids)" stroke-width=".2" d="M28.902 21.21a3.392 3.392 0 0 0-1.424-.312c-1.892 0-3.425 1.545-3.425 3.45c0 .879.326 1.68.863 2.29"/></g><path fill="url(#f2442idt)" d="M28.955 21.316a14.04 14.04 0 0 1-4.073 5.507a3.5 3.5 0 0 1 4.074-5.507"/><path fill="url(#f2442idu)" d="M28.955 21.316a14.04 14.04 0 0 1-4.073 5.507a3.5 3.5 0 0 1 4.074-5.507"/><path fill="url(#f2442idf)" d="M28.955 21.316a14.04 14.04 0 0 1-4.073 5.507a3.5 3.5 0 0 1 4.074-5.507"/><g filter="url(#f2442id11)"><path stroke="url(#f2442idv)" stroke-width=".2" d="M9 15.965a3.5 3.5 0 0 0 1.367-6.856"/></g><path fill="url(#f2442idg)" d="M9 15.965c1.253-1.034 2.148-2.241 2.148-3.897c0-1.338-.387-2.466-.781-2.96A3.502 3.502 0 0 1 9 15.965"/><g filter="url(#f2442id12)"><ellipse cx="16" cy="5.5" fill="url(#f2442idh)" rx="1.704" ry="1.5"/><ellipse cx="16" cy="5.5" fill="url(#f2442idi)" rx="1.704" ry="1.5"/><path stroke="url(#f2442idw)" stroke-width=".1" d="M16 7.05c.962 0 1.754-.688 1.754-1.55c0-.862-.792-1.55-1.754-1.55c-.963 0-1.754.688-1.754 1.55c0 .862.791 1.55 1.754 1.55Z"/></g><defs><radialGradient id="f2442id0" cx="0" cy="0" r="1" gradientTransform="rotate(133.363 8.703 9.384)scale(24.7588)" gradientUnits="userSpaceOnUse"><stop stop-color="#FEED6E"/><stop offset="1" stop-color="#F7CA32"/></radialGradient><radialGradient id="f2442id1" cx="0" cy="0" r="1" gradientTransform="matrix(.38605 19.97867 -22.83274 .4412 12.492 8.506)" gradientUnits="userSpaceOnUse"><stop stop-color="#FAC26F"/><stop offset="1" stop-color="#CD7442"/></radialGradient><radialGradient id="f2442id2" cx="0" cy="0" r="1" gradientTransform="rotate(-168.07 8.836 7.164)scale(14.3091 29.0338)" gradientUnits="userSpaceOnUse"><stop offset=".6" stop-color="#B28D55" stop-opacity="0"/><stop offset=".91" stop-color="#B08647"/></radialGradient><radialGradient id="f2442id3" cx="0" cy="0" r="1" gradientTransform="rotate(-32.811 41.724 5.974)scale(8.72756)" gradientUnits="userSpaceOnUse"><stop stop-color="#AD6648"/><stop offset="1" stop-color="#AD6648" stop-opacity="0"/></radialGradient><radialGradient id="f2442id4" cx="0" cy="0" r="1" gradientTransform="rotate(-142.952 9.324 11.92)scale(5.57176 3.36972)" gradientUnits="userSpaceOnUse"><stop offset=".888" stop-color="#AF4C46" stop-opacity="0"/><stop offset="1" stop-color="#AF4C46"/></radialGradient><radialGradient id="f2442id5" cx="0" cy="0" r="1" gradientTransform="rotate(124.824 9.012 11.963)scale(18.85 17.2968)" gradientUnits="userSpaceOnUse"><stop stop-color="#9F76CC"/><stop offset=".815" stop-color="#6F419E"/></radialGradient><radialGradient id="f2442id6" cx="0" cy="0" r="1" gradientTransform="matrix(-21.21512 9.36406 -13.30043 -30.13332 28.34 11.924)" gradientUnits="userSpaceOnUse"><stop offset=".52" stop-color="#402D53" stop-opacity="0"/><stop offset="1" stop-color="#402D53"/></radialGradient><radialGradient id="f2442id7" cx="0" cy="0" r="1" gradientTransform="matrix(6.91643 -5.39316 1.77476 2.27603 20 13.396)" gradientUnits="userSpaceOnUse"><stop offset=".2" stop-color="#B085D8"/><stop offset="1" stop-color="#8E61B7"/></radialGradient><radialGradient id="f2442id8" cx="0" cy="0" r="1" gradientTransform="matrix(2.29671 -3.78 4.40069 2.67384 15.472 23.51)" gradientUnits="userSpaceOnUse"><stop stop-color="#724D94"/><stop offset="1" stop-color="#6F4197"/></radialGradient><radialGradient id="f2442id9" cx="0" cy="0" r="1" gradientTransform="rotate(118.54 2.158 15.508)scale(3.1046 3.20092)" gradientUnits="userSpaceOnUse"><stop offset=".789" stop-color="#8B72A3" stop-opacity="0"/><stop offset="1" stop-color="#8B72A3"/></radialGradient><radialGradient id="f2442ida" cx="0" cy="0" r="1" gradientTransform="matrix(3.52289 -4.27779 2.99635 2.46758 14.67 23.642)" gradientUnits="userSpaceOnUse"><stop offset=".8" stop-color="#64398C" stop-opacity="0"/><stop offset="1" stop-color="#64398C"/></radialGradient><radialGradient id="f2442idb" cx="0" cy="0" r="1" gradientTransform="matrix(2.94774 2.48038 -2.63083 3.12654 15.676 20.873)" gradientUnits="userSpaceOnUse"><stop offset=".825" stop-color="#664289" stop-opacity="0"/><stop offset="1" stop-color="#664289"/></radialGradient><radialGradient id="f2442idc" cx="0" cy="0" r="1" gradientTransform="rotate(-47.175 20.864 -.52)scale(6.98771)" gradientUnits="userSpaceOnUse"><stop stop-color="#F6B953"/><stop offset="1" stop-color="#D5A04B"/></radialGradient><radialGradient id="f2442idd" cx="0" cy="0" r="1" gradientTransform="matrix(-4.07919 0 0 -3.91074 10.08 12.5)" gradientUnits="userSpaceOnUse"><stop offset=".894" stop-color="#FFC553" stop-opacity="0"/><stop offset="1" stop-color="#FFC553"/></radialGradient><radialGradient id="f2442ide" cx="0" cy="0" r="1" gradientTransform="matrix(5.375 -5.4375 4.05278 4.0062 6.813 15.136)" gradientUnits="userSpaceOnUse"><stop offset=".636" stop-color="#BD8D44" stop-opacity="0"/><stop offset="1" stop-color="#BD8D44"/></radialGradient><radialGradient id="f2442idf" cx="0" cy="0" r="1" gradientTransform="matrix(-.0625 -4.28125 5.84388 -.08531 27.279 25.1)" gradientUnits="userSpaceOnUse"><stop offset=".777" stop-color="#663F8E" stop-opacity="0"/><stop offset=".992" stop-color="#663F8E"/></radialGradient><radialGradient id="f2442idg" cx="0" cy="0" r="1" gradientTransform="matrix(-2.50004 4.40623 -2.55733 -1.451 12.5 11.35)" gradientUnits="userSpaceOnUse"><stop stop-color="#614776"/><stop offset="1" stop-color="#62427C"/></radialGradient><radialGradient id="f2442idh" cx="0" cy="0" r="1" gradientTransform="matrix(-2.51084 0 0 -2.73027 17.127 5.5)" gradientUnits="userSpaceOnUse"><stop offset=".286" stop-color="#79529B"/><stop offset="1" stop-color="#A276C9"/></radialGradient><radialGradient id="f2442idi" cx="0" cy="0" r="1" gradientTransform="matrix(2.14598 0 0 1.88931 15.558 5.5)" gradientUnits="userSpaceOnUse"><stop offset=".711" stop-color="#664581" stop-opacity="0"/><stop offset="1" stop-color="#664581"/></radialGradient><linearGradient id="f2442idj" x1="16.5" x2="14.5" y1="4.5" y2="6.5" gradientUnits="userSpaceOnUse"><stop stop-color="#F5C224"/><stop offset="1" stop-color="#FFEF71"/></linearGradient><linearGradient id="f2442idk" x1="24.167" x2="20.833" y1="9.833" y2="13.167" gradientUnits="userSpaceOnUse"><stop stop-color="#F5C224"/><stop offset="1" stop-color="#FFEF71"/></linearGradient><linearGradient id="f2442idl" x1="18.167" x2="14.833" y1="19.833" y2="23.167" gradientUnits="userSpaceOnUse"><stop stop-color="#F5C224"/><stop offset="1" stop-color="#FFEF71"/></linearGradient><linearGradient id="f2442idm" x1="11.325" x2="6.934" y1="9.361" y2="15.057" gradientUnits="userSpaceOnUse"><stop stop-color="#E4AC50"/><stop offset="1" stop-color="#D79C38"/></linearGradient><linearGradient id="f2442idn" x1="10.307" x2="5.964" y1="24.331" y2="26.993" gradientUnits="userSpaceOnUse"><stop stop-color="#BD6152"/><stop offset="1" stop-color="#AE6B71"/></linearGradient><linearGradient id="f2442ido" x1="29.833" x2="25.167" y1="22.167" y2="26.833" gradientUnits="userSpaceOnUse"><stop stop-color="#F6C72D"/><stop offset="1" stop-color="#FFF073"/></linearGradient><linearGradient id="f2442idp" x1="20.577" x2="23.646" y1="9" y2="14" gradientUnits="userSpaceOnUse"><stop stop-color="#A57CD3"/><stop offset=".492" stop-color="#A57CD3" stop-opacity="0"/><stop offset="1" stop-color="#A57CD3"/></linearGradient><linearGradient id="f2442idq" x1="18.167" x2="14.833" y1="19.833" y2="23.167" gradientUnits="userSpaceOnUse"><stop stop-color="#0F0F0F"/><stop offset="1" stop-color="#704E8D"/></linearGradient><linearGradient id="f2442idr" x1="19" x2="14.409" y1="19.675" y2="23.332" gradientUnits="userSpaceOnUse"><stop stop-color="#683B92"/><stop offset="1" stop-color="#683B92" stop-opacity="0"/></linearGradient><linearGradient id="f2442ids" x1="27.338" x2="24.231" y1="20.781" y2="26.152" gradientUnits="userSpaceOnUse"><stop stop-color="#7246A2"/><stop offset=".999" stop-color="#7E55AC"/></linearGradient><linearGradient id="f2442idt" x1="29.833" x2="25.167" y1="22.167" y2="26.833" gradientUnits="userSpaceOnUse"><stop stop-color="#0F0F0F"/><stop offset="1" stop-color="#704E8D"/></linearGradient><linearGradient id="f2442idu" x1="25.873" x2="27.06" y1="25.975" y2="19.787" gradientUnits="userSpaceOnUse"><stop stop-color="#8A60B5"/><stop offset="1" stop-color="#885BB3"/></linearGradient><linearGradient id="f2442idv" x1="13.5" x2="10.797" y1="13.007" y2="12.928" gradientUnits="userSpaceOnUse"><stop stop-color="#5F3E80"/><stop offset="1" stop-color="#5F3E80" stop-opacity="0"/></linearGradient><linearGradient id="f2442idw" x1="17.35" x2="14.761" y1="4.297" y2="6.843" gradientUnits="userSpaceOnUse"><stop stop-color="#7B52A5"/><stop offset="1" stop-color="#875CB4"/></linearGradient><filter id="f2442idx" width="7.8" height="7.8" x="5.6" y="8.6" color-interpolation-filters="sRGB" filterUnits="userSpaceOnUse"><feFlood flood-opacity="0" result="BackgroundImageFix"/><feBlend in="SourceGraphic" in2="BackgroundImageFix" result="shape"/><feGaussianBlur result="effect1_foregroundBlur_18_14055" stdDeviation=".15"/></filter><filter id="f2442idy" width="5.8" height="5.8" x="19.6" y="8.6" color-interpolation-filters="sRGB" filterUnits="userSpaceOnUse"><feFlood flood-opacity="0" result="BackgroundImageFix"/><feBlend in="SourceGraphic" in2="BackgroundImageFix" result="shape"/><feGaussianBlur result="effect1_foregroundBlur_18_14055" stdDeviation=".1"/></filter><filter id="f2442idz" width="5.75" height="5.75" x="13.625" y="18.625" color-interpolation-filters="sRGB" filterUnits="userSpaceOnUse"><feFlood flood-opacity="0" result="BackgroundImageFix"/><feBlend in="SourceGraphic" in2="BackgroundImageFix" result="shape"/><feGaussianBlur result="effect1_foregroundBlur_18_14055" stdDeviation=".125"/></filter><filter id="f2442id10" width="5.591" height="6.505" x="23.653" y="20.498" color-interpolation-filters="sRGB" filterUnits="userSpaceOnUse"><feFlood flood-opacity="0" result="BackgroundImageFix"/><feBlend in="SourceGraphic" in2="BackgroundImageFix" result="shape"/><feGaussianBlur result="effect1_foregroundBlur_18_14055" stdDeviation=".15"/></filter><filter id="f2442id11" width="12.114" height="15.089" x="4.986" y="5.011" color-interpolation-filters="sRGB" filterUnits="userSpaceOnUse"><feFlood flood-opacity="0" result="BackgroundImageFix"/><feBlend in="SourceGraphic" in2="BackgroundImageFix" result="shape"/><feGaussianBlur result="effect1_foregroundBlur_18_14055" stdDeviation="2"/></filter><filter id="f2442id12" width="4.008" height="3.6" x="13.996" y="3.7" color-interpolation-filters="sRGB" filterUnits="userSpaceOnUse"><feFlood flood-opacity="0" result="BackgroundImageFix"/><feBlend in="SourceGraphic" in2="BackgroundImageFix" result="shape"/><feGaussianBlur result="effect1_foregroundBlur_18_14055" stdDeviation=".1"/></filter></defs></g></svg>