<svg xmlns="http://www.w3.org/2000/svg" width="1em" height="1em" viewBox="0 0 32 32"><g fill="none"><circle cx="16" cy="16" r="14" fill="url(#f2460id0)"/><g filter="url(#f2460idt)"><circle cx="16" cy="16" r="14" fill="url(#f2460id1)"/><circle cx="16" cy="16" r="14" fill="url(#f2460id2)"/></g><circle cx="15.5" cy="5.5" r="1.5" fill="url(#f2460idh)"/><circle cx="22.5" cy="11.5" r="2.5" fill="url(#f2460idi)"/><circle cx="16.5" cy="21.5" r="2.5" fill="url(#f2460idj)"/><path fill="url(#f2460id3)" fill-rule="evenodd" d="M10.189 28.74a14.054 14.054 0 0 1-5.439-4.405a3.5 3.5 0 1 1 5.439 4.406" clip-rule="evenodd"/><path fill="url(#f2460id4)" fill-rule="evenodd" d="M10.189 28.74a14.054 14.054 0 0 1-5.439-4.405a3.5 3.5 0 1 1 5.439 4.406" clip-rule="evenodd"/><path fill="url(#f2460idk)" fill-rule="evenodd" d="M28.955 21.316a14.04 14.04 0 0 1-4.073 5.507a3.5 3.5 0 0 1 4.074-5.507" clip-rule="evenodd"/><path fill="url(#f2460id5)" fill-rule="evenodd" d="M15.681 29.996c.106.003.212.004.319.004c7.732 0 14-6.268 14-14S23.732 2 16 2c-.107 0-.213.001-.32.004C11.606 5.304 9 10.348 9 16a17.96 17.96 0 0 0 6.681 13.996" clip-rule="evenodd"/><path fill="url(#f2460id6)" fill-rule="evenodd" d="M15.681 29.996c.106.003.212.004.319.004c7.732 0 14-6.268 14-14S23.732 2 16 2c-.107 0-.213.001-.32.004C11.606 5.304 9 10.348 9 16a17.96 17.96 0 0 0 6.681 13.996" clip-rule="evenodd"/><path fill="url(#f2460id7)" fill-rule="evenodd" d="M15.681 29.996c.106.003.212.004.319.004c7.732 0 14-6.268 14-14S23.732 2 16 2c-.107 0-.213.001-.32.004C11.606 5.304 9 10.348 9 16a17.96 17.96 0 0 0 6.681 13.996" clip-rule="evenodd"/><g filter="url(#f2460idu)"><path stroke="url(#f2460idl)" stroke-width=".3" d="M28.764 21.234c-.887 2.16-2.255 3.963-4.032 5.422c-.548-.618-.732-1.265-.732-2.156a3.5 3.5 0 0 1 3.5-3.5c.52 0 .82.032 1.264.234Z"/></g><g filter="url(#f2460idv)"><ellipse cx="16" cy="5.5" fill="url(#f2460id8)" rx="1.724" ry="1.5"/><ellipse cx="16" cy="5.5" fill="url(#f2460id9)" rx="1.724" ry="1.5"/><path stroke="url(#f2460idm)" stroke-width=".15" d="M16 7.075c.983 0 1.8-.696 1.8-1.575c0-.88-.817-1.575-1.8-1.575c-.983 0-1.8.696-1.8 1.575c0 .88.817 1.575 1.8 1.575Z"/></g><g filter="url(#f2460idw)"><circle cx="22.5" cy="11.5" r="2.5" fill="url(#f2460ida)"/><circle cx="22.5" cy="11.5" r="2.6" stroke="url(#f2460idn)" stroke-width=".2"/></g><circle cx="16.5" cy="21.5" r="2.5" fill="url(#f2460ido)"/><g filter="url(#f2460idx)"><circle cx="16.5" cy="21.5" r="2.5" fill="url(#f2460idb)"/><circle cx="16.5" cy="21.5" r="2.5" fill="url(#f2460idc)"/><circle cx="16.5" cy="21.5" r="2.575" stroke="url(#f2460idp)" stroke-width=".15"/></g><circle cx="9.5" cy="12.5" r="3.5" fill="url(#f2460idd)"/><circle cx="9.5" cy="12.5" r="3.5" fill="url(#f2460ide)"/><path fill="url(#f2460idq)" fill-rule="evenodd" d="M28.955 21.316a14.04 14.04 0 0 1-4.073 5.507a3.5 3.5 0 0 1 4.074-5.507" clip-rule="evenodd"/><path fill="url(#f2460idr)" fill-rule="evenodd" d="M28.955 21.316a14.04 14.04 0 0 1-4.073 5.507a3.5 3.5 0 0 1 4.074-5.507" clip-rule="evenodd"/><path fill="url(#f2460idf)" fill-rule="evenodd" d="M28.955 21.316a14.04 14.04 0 0 1-4.073 5.507a3.5 3.5 0 0 1 4.074-5.507" clip-rule="evenodd"/><path fill="url(#f2460idg)" fill-rule="evenodd" d="M28.955 21.316a14.04 14.04 0 0 1-4.073 5.507a3.5 3.5 0 0 1 4.074-5.507" clip-rule="evenodd"/><path fill="url(#f2460ids)" d="M9 15.965c1.078-.798 2.188-2.298 2.188-3.954c0-.849-.282-2.094-.821-2.903A3.502 3.502 0 0 1 9 15.965"/><defs><radialGradient id="f2460id0" cx="0" cy="0" r="1" gradientTransform="rotate(133.363 8.703 9.384)scale(24.7588)" gradientUnits="userSpaceOnUse"><stop stop-color="#FEED6E"/><stop offset="1" stop-color="#F7CA32"/></radialGradient><radialGradient id="f2460id1" cx="0" cy="0" r="1" gradientTransform="rotate(119.055 6.106 6.092)scale(18.53 14.6474)" gradientUnits="userSpaceOnUse"><stop stop-color="#7C619B"/><stop offset="1" stop-color="#473858"/></radialGradient><radialGradient id="f2460id2" cx="0" cy="0" r="1" gradientTransform="matrix(-1.5186 -5.68059 8.7298 -2.33375 13.16 30.372)" gradientUnits="userSpaceOnUse"><stop stop-color="#6A4D88"/><stop offset="1" stop-color="#6A4D88" stop-opacity="0"/></radialGradient><radialGradient id="f2460id3" cx="0" cy="0" r="1" gradientTransform="matrix(5.00567 .33575 -.2758 4.1118 5.623 25.535)" gradientUnits="userSpaceOnUse"><stop stop-color="#524560"/><stop offset="1" stop-color="#5D4375"/></radialGradient><radialGradient id="f2460id4" cx="0" cy="0" r="1" gradientTransform="matrix(-2.4688 -2.6094 2.50068 -2.36594 7.875 26.089)" gradientUnits="userSpaceOnUse"><stop offset=".897" stop-color="#39264B" stop-opacity="0"/><stop offset=".974" stop-color="#39264B"/></radialGradient><radialGradient id="f2460id5" cx="0" cy="0" r="1" gradientTransform="rotate(122.598 9.967 12.565)scale(14.0954 17.5907)" gradientUnits="userSpaceOnUse"><stop stop-color="#FFF9AC"/><stop offset="1" stop-color="#FFC64F"/></radialGradient><radialGradient id="f2460id6" cx="0" cy="0" r="1" gradientTransform="rotate(120.548 12.641 11.245)scale(26.5615 33.5752)" gradientUnits="userSpaceOnUse"><stop offset=".666" stop-color="#FA9F56" stop-opacity="0"/><stop offset="1" stop-color="#EE8965"/></radialGradient><radialGradient id="f2460id7" cx="0" cy="0" r="1" gradientTransform="matrix(9.49988 19.80205 -20.52668 9.84751 14 10.198)" gradientUnits="userSpaceOnUse"><stop offset=".837" stop-color="#D7908F" stop-opacity="0"/><stop offset="1" stop-color="#D7908F"/></radialGradient><radialGradient id="f2460id8" cx="0" cy="0" r="1" gradientTransform="matrix(-3.00536 0 0 -3.27072 17.281 5.5)" gradientUnits="userSpaceOnUse"><stop offset=".437" stop-color="#F3BB63"/><stop offset="1" stop-color="#FFF3A5"/></radialGradient><radialGradient id="f2460id9" cx="0" cy="0" r="1" gradientTransform="matrix(2.75536 0 0 2.97042 14.969 5.5)" gradientUnits="userSpaceOnUse"><stop offset=".639" stop-color="#CD9E56" stop-opacity="0"/><stop offset="1" stop-color="#CD9E56"/></radialGradient><radialGradient id="f2460ida" cx="0" cy="0" r="1" gradientTransform="matrix(5.625 -4.39546 1.44644 1.85106 20 13.396)" gradientUnits="userSpaceOnUse"><stop offset=".2" stop-color="#FFF8B1"/><stop offset="1" stop-color="#FFD975"/></radialGradient><radialGradient id="f2460idb" cx="0" cy="0" r="1" gradientTransform="rotate(135 4.38 13.926)scale(3.93533 4.69999)" gradientUnits="userSpaceOnUse"><stop offset=".183" stop-color="#F29E64"/><stop offset="1" stop-color="#FFD87E"/></radialGradient><radialGradient id="f2460idc" cx="0" cy="0" r="1" gradientTransform="matrix(3.28124 -3.12501 2.54646 2.67376 15.094 23.01)" gradientUnits="userSpaceOnUse"><stop offset=".837" stop-color="#E3915B" stop-opacity="0"/><stop offset="1" stop-color="#E3915B"/></radialGradient><radialGradient id="f2460idd" cx="0" cy="0" r="1" gradientTransform="rotate(118.867 2.135 8.518)scale(5.56671)" gradientUnits="userSpaceOnUse"><stop stop-color="#664783"/><stop offset="1" stop-color="#654B7F"/></radialGradient><radialGradient id="f2460ide" cx="0" cy="0" r="1" gradientTransform="matrix(-3.65738 -.7461 .79628 -3.90337 9.5 12.5)" gradientUnits="userSpaceOnUse"><stop offset=".828" stop-color="#8B6BA9" stop-opacity="0"/><stop offset="1" stop-color="#8B6BA9"/></radialGradient><radialGradient id="f2460idf" cx="0" cy="0" r="1" gradientTransform="matrix(-.87214 -5.64197 4.67917 -.72331 27.35 26.823)" gradientUnits="userSpaceOnUse"><stop offset=".85" stop-color="#DFA14C" stop-opacity="0"/><stop offset="1" stop-color="#C28255"/></radialGradient><radialGradient id="f2460idg" cx="0" cy="0" r="1" gradientTransform="rotate(122.849 7.272 18.953)scale(4.72413 4.02056)" gradientUnits="userSpaceOnUse"><stop offset=".718" stop-color="#FFE38A" stop-opacity="0"/><stop offset=".952" stop-color="#FFE38A"/></radialGradient><linearGradient id="f2460idh" x1="16.5" x2="14.5" y1="4.5" y2="6.5" gradientUnits="userSpaceOnUse"><stop stop-color="#F5C224"/><stop offset="1" stop-color="#FFEF71"/></linearGradient><linearGradient id="f2460idi" x1="24.167" x2="20.833" y1="9.833" y2="13.167" gradientUnits="userSpaceOnUse"><stop stop-color="#F5C224"/><stop offset="1" stop-color="#FFEF71"/></linearGradient><linearGradient id="f2460idj" x1="18.167" x2="14.833" y1="19.833" y2="23.167" gradientUnits="userSpaceOnUse"><stop stop-color="#F5C224"/><stop offset="1" stop-color="#FFEF71"/></linearGradient><linearGradient id="f2460idk" x1="29.833" x2="25.167" y1="22.167" y2="26.833" gradientUnits="userSpaceOnUse"><stop stop-color="#F6C72D"/><stop offset="1" stop-color="#FFF073"/></linearGradient><linearGradient id="f2460idl" x1="27.982" x2="24.639" y1="20.656" y2="26.313" gradientUnits="userSpaceOnUse"><stop stop-color="#F5BD64"/><stop offset="1" stop-color="#FFDC75"/></linearGradient><linearGradient id="f2460idm" x1="17.724" x2="16.544" y1="5.17" y2="5.17" gradientUnits="userSpaceOnUse"><stop stop-color="#FDC36B"/><stop offset="1" stop-color="#FFDD7B"/></linearGradient><linearGradient id="f2460idn" x1="20.577" x2="23.646" y1="9" y2="14" gradientUnits="userSpaceOnUse"><stop stop-color="#FFF9AC"/><stop offset=".492" stop-color="#FFF9AC" stop-opacity="0"/><stop offset="1" stop-color="#FFF9AC"/></linearGradient><linearGradient id="f2460ido" x1="18.167" x2="14.833" y1="19.833" y2="23.167" gradientUnits="userSpaceOnUse"><stop stop-color="#0F0F0F"/><stop offset="1" stop-color="#704E8D"/></linearGradient><linearGradient id="f2460idp" x1="18.25" x2="14.369" y1="19.32" y2="23.257" gradientUnits="userSpaceOnUse"><stop stop-color="#FBAC52"/><stop offset="1" stop-color="#FFB053"/></linearGradient><linearGradient id="f2460idq" x1="29.833" x2="25.167" y1="22.167" y2="26.833" gradientUnits="userSpaceOnUse"><stop stop-color="#0F0F0F"/><stop offset="1" stop-color="#704E8D"/></linearGradient><linearGradient id="f2460idr" x1="26.059" x2="25.915" y1="21.826" y2="25.986" gradientUnits="userSpaceOnUse"><stop stop-color="#FFD36A"/><stop offset="1" stop-color="#EFB872"/></linearGradient><linearGradient id="f2460ids" x1="12.61" x2="7.633" y1="10.904" y2="13.038" gradientUnits="userSpaceOnUse"><stop stop-color="#C29346"/><stop offset="1" stop-color="#E1AA4E"/></linearGradient><filter id="f2460idt" width="28.2" height="28" x="2" y="2" color-interpolation-filters="sRGB" filterUnits="userSpaceOnUse"><feFlood flood-opacity="0" result="BackgroundImageFix"/><feBlend in="SourceGraphic" in2="BackgroundImageFix" result="shape"/><feColorMatrix in="SourceAlpha" result="hardAlpha" values="0 0 0 0 0 0 0 0 0 0 0 0 0 0 0 0 0 0 127 0"/><feOffset dx=".2"/><feGaussianBlur stdDeviation="1"/><feComposite in2="hardAlpha" k2="-1" k3="1" operator="arithmetic"/><feColorMatrix values="0 0 0 0 0.470588 0 0 0 0 0.447059 0 0 0 0 0.501961 0 0 0 1 0"/><feBlend in2="shape" result="effect1_innerShadow_18_13946"/></filter><filter id="f2460idu" width="5.707" height="6.614" x="23.55" y="20.55" color-interpolation-filters="sRGB" filterUnits="userSpaceOnUse"><feFlood flood-opacity="0" result="BackgroundImageFix"/><feBlend in="SourceGraphic" in2="BackgroundImageFix" result="shape"/><feGaussianBlur result="effect1_foregroundBlur_18_13946" stdDeviation=".15"/></filter><filter id="f2460idv" width="4.148" height="3.7" x="13.926" y="3.65" color-interpolation-filters="sRGB" filterUnits="userSpaceOnUse"><feFlood flood-opacity="0" result="BackgroundImageFix"/><feBlend in="SourceGraphic" in2="BackgroundImageFix" result="shape"/><feGaussianBlur result="effect1_foregroundBlur_18_13946" stdDeviation=".1"/></filter><filter id="f2460idw" width="6" height="6" x="19.5" y="8.5" color-interpolation-filters="sRGB" filterUnits="userSpaceOnUse"><feFlood flood-opacity="0" result="BackgroundImageFix"/><feBlend in="SourceGraphic" in2="BackgroundImageFix" result="shape"/><feGaussianBlur result="effect1_foregroundBlur_18_13946" stdDeviation=".15"/></filter><filter id="f2460idx" width="5.7" height="5.7" x="13.65" y="18.65" color-interpolation-filters="sRGB" filterUnits="userSpaceOnUse"><feFlood flood-opacity="0" result="BackgroundImageFix"/><feBlend in="SourceGraphic" in2="BackgroundImageFix" result="shape"/><feGaussianBlur result="effect1_foregroundBlur_18_13946" stdDeviation=".1"/></filter></defs></g></svg>