<svg xmlns="http://www.w3.org/2000/svg" width="1em" height="1em" viewBox="0 0 32 32"><g fill="none"><path fill="url(#f2805id0)" d="M14.713 7.693h1.744v2h-1.744z" transform="rotate(39.16 14.713 7.693)"/><path fill="url(#f2805id1)" d="M18.232 8.05c-.081-.148-.066-.412-.047-.505l-.445 1.02c.14.074.378.139.515-.032c.098-.12.079-.3-.023-.484"/><g filter="url(#f2805idq)"><path fill="url(#f2805id2)" d="M15.931 9.654c-.914-.453-1.535-1.234-1.71-1.617l.662-1.593a1.205 1.205 0 0 1 1.034-.738l1.656-.11c.13-.008.263-.002.372.067c.288.182.576.644.369 1.475c-.229 1.081-.501 1.744-.749 2.227c-.177.344-.533.572-.916.506a3.145 3.145 0 0 1-.718-.217"/><path fill="url(#f2805id3)" d="M15.931 9.654c-.914-.453-1.535-1.234-1.71-1.617l.662-1.593a1.205 1.205 0 0 1 1.034-.738l1.656-.11c.13-.008.263-.002.372.067c.288.182.576.644.369 1.475c-.229 1.081-.501 1.744-.749 2.227c-.177.344-.533.572-.916.506a3.145 3.145 0 0 1-.718-.217"/><path fill="url(#f2805id4)" d="M15.931 9.654c-.914-.453-1.535-1.234-1.71-1.617l.662-1.593a1.205 1.205 0 0 1 1.034-.738l1.656-.11c.13-.008.263-.002.372.067c.288.182.576.644.369 1.475c-.229 1.081-.501 1.744-.749 2.227c-.177.344-.533.572-.916.506a3.145 3.145 0 0 1-.718-.217"/></g><path fill="#86004C" fill-rule="evenodd" d="M16.98 8.458a.1.1 0 0 1 .132.05c.032.07.15.243.339.324a.1.1 0 0 1-.079.184a.917.917 0 0 1-.442-.425a.1.1 0 0 1 .05-.133" clip-rule="evenodd"/><g filter="url(#f2805idr)"><path fill="#453A3A" fill-rule="evenodd" d="M17.866 6.937a.724.724 0 0 0-.488-.028a.1.1 0 0 1-.066-.189a.922.922 0 0 1 .637.035a.1.1 0 1 1-.083.182" clip-rule="evenodd"/></g><g filter="url(#f2805ids)"><path fill="#7355BD" d="M11.168 10.56c-1.006 1.232-1.414 2.669-1.594 3.274l3.992 1.25c.125-1.023.75-2.718 1.172-3.375c.422-.656.489-.87.555-1.347c.066-.477-.256-1.195-1.336-1.395c-.844-.156-1.854.45-2.789 1.594"/><path fill="url(#f2805id5)" d="M11.168 10.56c-1.006 1.232-1.414 2.669-1.594 3.274l3.992 1.25c.125-1.023.75-2.718 1.172-3.375c.422-.656.489-.87.555-1.347c.066-.477-.256-1.195-1.336-1.395c-.844-.156-1.854.45-2.789 1.594"/></g><path fill="url(#f2805id6)" d="M9.598 13.717c-.243.895-.203 1.762-.11 2.024l6.309-.063z"/><path fill="url(#f2805id11)" d="m5.232 16.973l21.725-.022v6.25l-18.008-.117z"/><path fill="url(#f2805id12)" d="m5.232 16.973l21.725-.022v6.25l-18.008-.117z"/><path fill="url(#f2805id7)" d="m5.232 16.973l21.725-.022v6.25l-18.008-.117z"/><path fill="url(#f2805id8)" d="m5.232 16.973l21.725-.022v6.25l-18.008-.117z"/><g filter="url(#f2805idt)"><path fill="url(#f2805id9)" d="M3.504 20.936c-.775-.425-1.254-.422-1.445-.422v5.937H29.94v-5.937c-1.562 0-2.214 1.156-3.53 1.156c-1.317 0-2.188-1.156-3.548-1.156c-1.117 0-2.242 1.156-3.508 1.156c-.972 0-2.203-1.156-3.39-1.156c-1.258 0-2.262 1.156-3.399 1.156c-.558 0-.836-.101-1.539-.437c-.703-.336-1.324-.704-1.98-.704c-.654 0-1.311.334-1.88.622l-.007.003c-.57.29-1.031.516-1.656.516s-1.031-.203-2-.734"/><path fill="url(#f2805ida)" d="M3.504 20.936c-.775-.425-1.254-.422-1.445-.422v5.937H29.94v-5.937c-1.562 0-2.214 1.156-3.53 1.156c-1.317 0-2.188-1.156-3.548-1.156c-1.117 0-2.242 1.156-3.508 1.156c-.972 0-2.203-1.156-3.39-1.156c-1.258 0-2.262 1.156-3.399 1.156c-.558 0-.836-.101-1.539-.437c-.703-.336-1.324-.704-1.98-.704c-.654 0-1.311.334-1.88.622l-.007.003c-.57.29-1.031.516-1.656.516s-1.031-.203-2-.734"/><path fill="url(#f2805idb)" d="M3.504 20.936c-.775-.425-1.254-.422-1.445-.422v5.937H29.94v-5.937c-1.562 0-2.214 1.156-3.53 1.156c-1.317 0-2.188-1.156-3.548-1.156c-1.117 0-2.242 1.156-3.508 1.156c-.972 0-2.203-1.156-3.39-1.156c-1.258 0-2.262 1.156-3.399 1.156c-.558 0-.836-.101-1.539-.437c-.703-.336-1.324-.704-1.98-.704c-.654 0-1.311.334-1.88.622l-.007.003c-.57.29-1.031.516-1.656.516s-1.031-.203-2-.734"/></g><g filter="url(#f2805idu)"><rect width="23.859" height="2.191" x="4.086" y="15.515" fill="url(#f2805id13)" rx="1.095"/><rect width="23.859" height="2.191" x="4.086" y="15.515" fill="url(#f2805idc)" rx="1.095"/><rect width="23.859" height="2.191" x="4.086" y="15.515" fill="url(#f2805idd)" rx="1.095"/><rect width="23.859" height="2.191" x="4.086" y="15.515" fill="url(#f2805ide)" rx="1.095"/></g><rect width="1.28" height=".637" x="19.523" y="13.051" fill="url(#f2805idf)" rx=".318" transform="rotate(-21.787 19.523 13.05)"/><path fill="url(#f2805idg)" d="M21.334 12.266a.59.59 0 0 1 .829.84l-8.439 8.331a.59.59 0 1 1-.829-.84z"/><path fill="url(#f2805id14)" d="M21.334 12.266a.59.59 0 0 1 .829.84l-8.439 8.331a.59.59 0 1 1-.829-.84z"/><path fill="url(#f2805id15)" d="M21.334 12.266a.59.59 0 0 1 .829.84l-8.439 8.331a.59.59 0 1 1-.829-.84z"/><g filter="url(#f2805idv)"><path fill="url(#f2805idh)" d="M11.366 20.315a1.917 1.917 0 1 1 2.712 2.71l-2.468 2.47a1.917 1.917 0 1 1-2.712-2.711z"/></g><g filter="url(#f2805idw)"><path fill="url(#f2805id16)" d="M3.504 24.436c-.775-.425-1.254-.422-1.445-.422v5.937H29.94v-5.937c-1.562 0-2.214 1.156-3.53 1.156c-1.317 0-2.188-1.156-3.548-1.156c-1.117 0-2.242 1.156-3.508 1.156c-.972 0-2.203-1.156-3.39-1.156c-1.258 0-2.262 1.156-3.399 1.156c-.558 0-.836-.101-1.539-.437c-.703-.336-1.324-.704-1.98-.704c-.654 0-1.311.334-1.88.622l-.007.003c-.57.29-1.031.516-1.656.516s-1.031-.203-2-.734"/><path fill="url(#f2805idi)" d="M3.504 24.436c-.775-.425-1.254-.422-1.445-.422v5.937H29.94v-5.937c-1.562 0-2.214 1.156-3.53 1.156c-1.317 0-2.188-1.156-3.548-1.156c-1.117 0-2.242 1.156-3.508 1.156c-.972 0-2.203-1.156-3.39-1.156c-1.258 0-2.262 1.156-3.399 1.156c-.558 0-.836-.101-1.539-.437c-.703-.336-1.324-.704-1.98-.704c-.654 0-1.311.334-1.88.622l-.007.003c-.57.29-1.031.516-1.656.516s-1.031-.203-2-.734"/><path fill="url(#f2805id17)" d="M3.504 24.436c-.775-.425-1.254-.422-1.445-.422v5.937H29.94v-5.937c-1.562 0-2.214 1.156-3.53 1.156c-1.317 0-2.188-1.156-3.548-1.156c-1.117 0-2.242 1.156-3.508 1.156c-.972 0-2.203-1.156-3.39-1.156c-1.258 0-2.262 1.156-3.399 1.156c-.558 0-.836-.101-1.539-.437c-.703-.336-1.324-.704-1.98-.704c-.654 0-1.311.334-1.88.622l-.007.003c-.57.29-1.031.516-1.656.516s-1.031-.203-2-.734"/></g><g filter="url(#f2805idx)"><path fill="#886657" d="M16.504 13.772c-.713-.332-1.443-.966-1.719-1.242l1.281-1.192c1.157 1.11 2.375 1.278 2.684 1.352c.395.093 1.538.3 2.168.73c.516.352.379.992.07 1.266c-.254.225-.675.336-1.011.203c-.336-.133-.559-.27-1.227-.398a9.901 9.901 0 0 1-2.246-.72"/><path fill="url(#f2805idj)" d="M16.504 13.772c-.713-.332-1.443-.966-1.719-1.242l1.281-1.192c1.157 1.11 2.375 1.278 2.684 1.352c.395.093 1.538.3 2.168.73c.516.352.379.992.07 1.266c-.254.225-.675.336-1.011.203c-.336-.133-.559-.27-1.227-.398a9.901 9.901 0 0 1-2.246-.72"/></g><g filter="url(#f2805idy)"><path stroke="url(#f2805id18)" stroke-width=".4" d="M15.43 11.712c.291.35.889.871 1.804 1.165c1.438.46 1.734.515 2.36.726"/></g><g filter="url(#f2805idz)"><path fill="url(#f2805idk)" d="M13.004 11.06c.6.72 1.333 1.556 1.625 1.884l1.656-1.485c-.33-.396-1.117-1.303-1.617-1.765c-.625-.578-1.27-.192-1.469 0c-.172.165-.672.687-.195 1.367"/></g><path fill="url(#f2805idl)" d="m16.914 7.468l.116.062l.57-.289c-.28-.16-.543-.127-.722.025c-.068.058-.042.16.036.202"/><path fill="#fff" d="M17.645 7.77c.048.013.099-.026.124-.083l.003-.01c.066-.246-.096-.437-.295-.49c-.189-.05-.434.031-.5.277l-.003.01c-.015.06.01.119.066.134z"/><path fill="url(#f2805idm)" d="M17.72 7.79c.02-.036.038-.063.051-.112c.048-.178-.02-.355-.169-.394c-.138-.037-.296.079-.343.256a.515.515 0 0 0-.012.124z"/><path fill="url(#f2805idn)" d="M17.641 7.769c.03-.034.05-.07.061-.11c.027-.099-.019-.206-.097-.227c-.08-.021-.17.04-.198.148a.271.271 0 0 0-.002.126z"/><path fill="#fff" d="M17.545 7.398c.016-.037.07-.048.119-.026c.049.022.075.07.059.106c-.017.036-.07.048-.119.026c-.049-.022-.075-.07-.059-.106"/><g filter="url(#f2805id10)"><path fill="url(#f2805ido)" d="M13.6 6.773c.332-.227.418-.442.515-1.094c.219-1.094.542-1.306.969-1.547c.449-.254 1.195-.188 1.703.195c.558.42.668.341 1.348.363c.722.024.972.496.988.91c.015.415-.207.981-.934 1.032c-.834.058-.875-.688-1.574-.531c-.596.133-.727 1.316-.976 1.796c-.159.306-.3 1.013-1.165 1.211c-.921.211-1.68-.562-1.554-1.328c.1-.612.382-.805.68-1.007"/><path fill="url(#f2805idp)" d="M13.6 6.773c.332-.227.418-.442.515-1.094c.219-1.094.542-1.306.969-1.547c.449-.254 1.195-.188 1.703.195c.558.42.668.341 1.348.363c.722.024.972.496.988.91c.015.415-.207.981-.934 1.032c-.834.058-.875-.688-1.574-.531c-.596.133-.727 1.316-.976 1.796c-.159.306-.3 1.013-1.165 1.211c-.921.211-1.68-.562-1.554-1.328c.1-.612.382-.805.68-1.007"/></g><defs><radialGradient id="f2805id0" cx="0" cy="0" r="1" gradientTransform="rotate(112.51 5.32 9.65)scale(1.02069 1.88161)" gradientUnits="userSpaceOnUse"><stop offset=".142" stop-color="#683A26"/><stop offset="1" stop-color="#754F43"/></radialGradient><radialGradient id="f2805id1" cx="0" cy="0" r="1" gradientTransform="rotate(109.376 6.266 10.516)scale(.62401 .57809)" gradientUnits="userSpaceOnUse"><stop offset=".463" stop-color="#8D6E63"/><stop offset="1" stop-color="#7C5741"/></radialGradient><radialGradient id="f2805id2" cx="0" cy="0" r="1" gradientTransform="rotate(161.861 8.173 5.272)scale(2.84448 2.94485)" gradientUnits="userSpaceOnUse"><stop offset=".176" stop-color="#8F695D"/><stop offset="1" stop-color="#81534E"/></radialGradient><radialGradient id="f2805id3" cx="0" cy="0" r="1" gradientTransform="rotate(107.289 5.875 10.18)scale(.61776 .64399)" gradientUnits="userSpaceOnUse"><stop stop-color="#9A796D"/><stop offset="1" stop-color="#9A796D" stop-opacity="0"/></radialGradient><radialGradient id="f2805id4" cx="0" cy="0" r="1" gradientTransform="matrix(-.60106 2 -1.01904 -.30625 16.903 6.087)" gradientUnits="userSpaceOnUse"><stop offset=".128" stop-color="#926D66"/><stop offset="1" stop-color="#926D66" stop-opacity="0"/></radialGradient><radialGradient id="f2805id5" cx="0" cy="0" r="1" gradientTransform="rotate(72.474 -1.04 15.235)scale(4.35856 2.29046)" gradientUnits="userSpaceOnUse"><stop offset=".08" stop-color="#57399F"/><stop offset="1" stop-color="#57399F" stop-opacity="0"/></radialGradient><radialGradient id="f2805id6" cx="0" cy="0" r="1" gradientTransform="rotate(15.117 -49.08 48.648)scale(4.82315 2.16799)" gradientUnits="userSpaceOnUse"><stop offset=".396" stop-color="#8D8695"/><stop offset=".77" stop-color="#697167"/></radialGradient><radialGradient id="f2805id7" cx="0" cy="0" r="1" gradientTransform="matrix(5.5625 -6.21875 2.25745 2.01923 13.145 22.014)" gradientUnits="userSpaceOnUse"><stop stop-color="#659941"/><stop offset="1" stop-color="#79AF4C" stop-opacity="0"/></radialGradient><radialGradient id="f2805id8" cx="0" cy="0" r="1" gradientTransform="matrix(-2.15625 -1.84376 1.36973 -1.60188 11.332 21.92)" gradientUnits="userSpaceOnUse"><stop stop-color="#528C3F"/><stop offset="1" stop-color="#528C3F" stop-opacity="0"/></radialGradient><radialGradient id="f2805id9" cx="0" cy="0" r="1" gradientTransform="rotate(133.063 7.223 15.085)scale(9.15342 18.4848)" gradientUnits="userSpaceOnUse"><stop stop-color="#379FE9"/><stop offset="1" stop-color="#3691DF"/></radialGradient><radialGradient id="f2805ida" cx="0" cy="0" r="1" gradientTransform="rotate(-133.468 9.89 10.4)scale(4.13363 7.33334)" gradientUnits="userSpaceOnUse"><stop stop-color="#286EC5"/><stop offset="1" stop-color="#286EC5" stop-opacity="0"/></radialGradient><radialGradient id="f2805idb" cx="0" cy="0" r="1" gradientTransform="matrix(-4.875 .37502 -1.76114 -22.89326 31.55 23.108)" gradientUnits="userSpaceOnUse"><stop offset=".288" stop-color="#38A7FB"/><stop offset="1" stop-color="#38A7FB" stop-opacity="0"/></radialGradient><radialGradient id="f2805idc" cx="0" cy="0" r="1" gradientTransform="matrix(-1.28125 0 0 -1 27.55 16.139)" gradientUnits="userSpaceOnUse"><stop stop-color="#78BB7D"/><stop offset="1" stop-color="#78BB7D" stop-opacity="0"/></radialGradient><radialGradient id="f2805idd" cx="0" cy="0" r="1" gradientTransform="matrix(16.1875 0 0 .71644 4.27 16.61)" gradientUnits="userSpaceOnUse"><stop stop-color="#7CAF55"/><stop offset="1" stop-color="#7CAF55" stop-opacity="0"/></radialGradient><radialGradient id="f2805ide" cx="0" cy="0" r="1" gradientTransform="matrix(0 .8125 -9.78125 0 17.957 16.389)" gradientUnits="userSpaceOnUse"><stop stop-color="#70A762"/><stop offset="1" stop-color="#70A762" stop-opacity="0"/></radialGradient><radialGradient id="f2805idf" cx="0" cy="0" r="1" gradientTransform="matrix(.6797 -.01657 .00353 .14487 20.018 13.311)" gradientUnits="userSpaceOnUse"><stop stop-color="#81675E"/><stop offset="1" stop-color="#76594D"/></radialGradient><radialGradient id="f2805idg" cx="0" cy="0" r="1" gradientTransform="rotate(135.21 8.316 10.764)scale(12.0651 1.31103)" gradientUnits="userSpaceOnUse"><stop offset=".236" stop-color="#FECCA0"/><stop offset="1" stop-color="#DA9C63"/></radialGradient><radialGradient id="f2805idh" cx="0" cy="0" r="1" gradientTransform="matrix(-3.55739 3.43749 -2.0246 -2.09522 14.64 20.951)" gradientUnits="userSpaceOnUse"><stop stop-color="#FBC998"/><stop offset="1" stop-color="#E9B37E"/></radialGradient><radialGradient id="f2805idi" cx="0" cy="0" r="1" gradientTransform="matrix(-3.09375 0 0 -12.375 30.176 28.92)" gradientUnits="userSpaceOnUse"><stop stop-color="#65DEFF"/><stop offset="1" stop-color="#5DC9FF" stop-opacity="0"/></radialGradient><radialGradient id="f2805idj" cx="0" cy="0" r="1" gradientTransform="matrix(.60937 -.29688 .16254 .33364 20.747 13.9)" gradientUnits="userSpaceOnUse"><stop stop-color="#977970"/><stop offset="1" stop-color="#977970" stop-opacity="0"/></radialGradient><radialGradient id="f2805idk" cx="0" cy="0" r="1" gradientTransform="matrix(2.15625 2.4375 -1.4473 1.28031 15.176 10.139)" gradientUnits="userSpaceOnUse"><stop offset=".049" stop-color="#9178D3"/><stop offset="1" stop-color="#7151BE"/></radialGradient><radialGradient id="f2805idl" cx="0" cy="0" r="1" gradientTransform="matrix(-.36061 .26664 -.28066 -.37957 17.457 7.26)" gradientUnits="userSpaceOnUse"><stop stop-color="#3D3D3D"/><stop offset="1" stop-color="#191919"/></radialGradient><radialGradient id="f2805idm" cx="0" cy="0" r="1" gradientTransform="matrix(.12683 -.48047 .539 .14228 17.543 7.748)" gradientUnits="userSpaceOnUse"><stop offset=".626" stop-color="#6B4841"/><stop offset="1" stop-color="#A38C84"/></radialGradient><radialGradient id="f2805idn" cx="0" cy="0" r="1" gradientTransform="matrix(.07385 .26172 -.25328 .07147 17.49 7.483)" gradientUnits="userSpaceOnUse"><stop stop-color="#3D3D3D"/><stop offset="1" stop-color="#191919"/></radialGradient><radialGradient id="f2805ido" cx="0" cy="0" r="1" gradientTransform="rotate(163.724 8.884 4.308)scale(5.51064 6.88411)" gradientUnits="userSpaceOnUse"><stop offset=".332" stop-color="#31222A"/><stop offset="1" stop-color="#2D2029"/></radialGradient><radialGradient id="f2805idp" cx="0" cy="0" r="1" gradientTransform="matrix(-1.35938 .17969 -.15962 -1.20756 18.854 5.306)" gradientUnits="userSpaceOnUse"><stop stop-color="#3F3438"/><stop offset="1" stop-color="#3F3438" stop-opacity="0"/></radialGradient><filter id="f2805idq" width="4.364" height="4.439" x="14.22" y="5.444" color-interpolation-filters="sRGB" filterUnits="userSpaceOnUse"><feFlood flood-opacity="0" result="BackgroundImageFix"/><feBlend in="SourceGraphic" in2="BackgroundImageFix" result="shape"/><feColorMatrix in="SourceAlpha" result="hardAlpha" values="0 0 0 0 0 0 0 0 0 0 0 0 0 0 0 0 0 0 127 0"/><feOffset dx=".2" dy="-.15"/><feGaussianBlur stdDeviation=".25"/><feComposite in2="hardAlpha" k2="-1" k3="1" operator="arithmetic"/><feColorMatrix values="0 0 0 0 0.482353 0 0 0 0 0.25098 0 0 0 0 0.219608 0 0 0 1 0"/><feBlend in2="shape" result="effect1_innerShadow_3987_23068"/></filter><filter id="f2805idr" width=".763" height=".367" x="17.245" y="6.579" color-interpolation-filters="sRGB" filterUnits="userSpaceOnUse"><feFlood flood-opacity="0" result="BackgroundImageFix"/><feBlend in="SourceGraphic" in2="BackgroundImageFix" result="shape"/><feColorMatrix in="SourceAlpha" result="hardAlpha" values="0 0 0 0 0 0 0 0 0 0 0 0 0 0 0 0 0 0 127 0"/><feOffset dy="-.1"/><feGaussianBlur stdDeviation=".05"/><feComposite in2="hardAlpha" k2="-1" k3="1" operator="arithmetic"/><feColorMatrix values="0 0 0 0 0.133333 0 0 0 0 0.0705882 0 0 0 0 0.0941176 0 0 0 1 0"/><feBlend in2="shape" result="effect1_innerShadow_3987_23068"/></filter><filter id="f2805ids" width="6.377" height="6.141" x="9.574" y="8.943" color-interpolation-filters="sRGB" filterUnits="userSpaceOnUse"><feFlood flood-opacity="0" result="BackgroundImageFix"/><feBlend in="SourceGraphic" in2="BackgroundImageFix" result="shape"/><feColorMatrix in="SourceAlpha" result="hardAlpha" values="0 0 0 0 0 0 0 0 0 0 0 0 0 0 0 0 0 0 127 0"/><feOffset dx=".65"/><feGaussianBlur stdDeviation=".6"/><feComposite in2="hardAlpha" k2="-1" k3="1" operator="arithmetic"/><feColorMatrix values="0 0 0 0 0.407843 0 0 0 0 0.321569 0 0 0 0 0.666667 0 0 0 1 0"/><feBlend in2="shape" result="effect1_innerShadow_3987_23068"/></filter><filter id="f2805idt" width="27.983" height="6.037" x="2.059" y="20.514" color-interpolation-filters="sRGB" filterUnits="userSpaceOnUse"><feFlood flood-opacity="0" result="BackgroundImageFix"/><feBlend in="SourceGraphic" in2="BackgroundImageFix" result="shape"/><feColorMatrix in="SourceAlpha" result="hardAlpha" values="0 0 0 0 0 0 0 0 0 0 0 0 0 0 0 0 0 0 127 0"/><feOffset dx=".1" dy=".1"/><feGaussianBlur stdDeviation=".075"/><feComposite in2="hardAlpha" k2="-1" k3="1" operator="arithmetic"/><feColorMatrix values="0 0 0 0 0.180392 0 0 0 0 0.541176 0 0 0 0 0.729412 0 0 0 1 0"/><feBlend in2="shape" result="effect1_innerShadow_3987_23068"/></filter><filter id="f2805idu" width="24.059" height="2.191" x="3.886" y="15.515" color-interpolation-filters="sRGB" filterUnits="userSpaceOnUse"><feFlood flood-opacity="0" result="BackgroundImageFix"/><feBlend in="SourceGraphic" in2="BackgroundImageFix" result="shape"/><feColorMatrix in="SourceAlpha" result="hardAlpha" values="0 0 0 0 0 0 0 0 0 0 0 0 0 0 0 0 0 0 127 0"/><feOffset dx="-.2"/><feGaussianBlur stdDeviation=".375"/><feComposite in2="hardAlpha" k2="-1" k3="1" operator="arithmetic"/><feColorMatrix values="0 0 0 0 0.278431 0 0 0 0 0.529412 0 0 0 0 0.184314 0 0 0 1 0"/><feBlend in2="shape" result="effect1_innerShadow_3987_23068"/></filter><filter id="f2805idv" width="6.802" height="6.803" x="8.337" y="19.253" color-interpolation-filters="sRGB" filterUnits="userSpaceOnUse"><feFlood flood-opacity="0" result="BackgroundImageFix"/><feBlend in="SourceGraphic" in2="BackgroundImageFix" result="shape"/><feColorMatrix in="SourceAlpha" result="hardAlpha" values="0 0 0 0 0 0 0 0 0 0 0 0 0 0 0 0 0 0 127 0"/><feOffset dx=".5" dy="-.5"/><feGaussianBlur stdDeviation=".625"/><feComposite in2="hardAlpha" k2="-1" k3="1" operator="arithmetic"/><feColorMatrix values="0 0 0 0 0.776471 0 0 0 0 0.556863 0 0 0 0 0.341176 0 0 0 1 0"/><feBlend in2="shape" result="effect1_innerShadow_3987_23068"/></filter><filter id="f2805idw" width="27.983" height="6.037" x="1.959" y="24.014" color-interpolation-filters="sRGB" filterUnits="userSpaceOnUse"><feFlood flood-opacity="0" result="BackgroundImageFix"/><feBlend in="SourceGraphic" in2="BackgroundImageFix" result="shape"/><feColorMatrix in="SourceAlpha" result="hardAlpha" values="0 0 0 0 0 0 0 0 0 0 0 0 0 0 0 0 0 0 127 0"/><feOffset dx="-.1" dy=".1"/><feGaussianBlur stdDeviation=".2"/><feComposite in2="hardAlpha" k2="-1" k3="1" operator="arithmetic"/><feColorMatrix values="0 0 0 0 0.384314 0 0 0 0 0.843137 0 0 0 0 1 0 0 0 1 0"/><feBlend in2="shape" result="effect1_innerShadow_3987_23068"/></filter><filter id="f2805idx" width="6.678" height="4.108" x="14.785" y="10.838" color-interpolation-filters="sRGB" filterUnits="userSpaceOnUse"><feFlood flood-opacity="0" result="BackgroundImageFix"/><feBlend in="SourceGraphic" in2="BackgroundImageFix" result="shape"/><feColorMatrix in="SourceAlpha" result="hardAlpha" values="0 0 0 0 0 0 0 0 0 0 0 0 0 0 0 0 0 0 127 0"/><feOffset dx=".2" dy="-.5"/><feGaussianBlur stdDeviation=".4"/><feComposite in2="hardAlpha" k2="-1" k3="1" operator="arithmetic"/><feColorMatrix values="0 0 0 0 0.419608 0 0 0 0 0.286275 0 0 0 0 0.258824 0 0 0 1 0"/><feBlend in2="shape" result="effect1_innerShadow_3987_23068"/></filter><filter id="f2805idy" width="5.181" height="3.008" x="14.876" y="11.184" color-interpolation-filters="sRGB" filterUnits="userSpaceOnUse"><feFlood flood-opacity="0" result="BackgroundImageFix"/><feBlend in="SourceGraphic" in2="BackgroundImageFix" result="shape"/><feGaussianBlur result="effect1_foregroundBlur_3987_23068" stdDeviation=".2"/></filter><filter id="f2805idz" width="3.882" height="3.705" x="12.803" y="9.239" color-interpolation-filters="sRGB" filterUnits="userSpaceOnUse"><feFlood flood-opacity="0" result="BackgroundImageFix"/><feBlend in="SourceGraphic" in2="BackgroundImageFix" result="shape"/><feColorMatrix in="SourceAlpha" result="hardAlpha" values="0 0 0 0 0 0 0 0 0 0 0 0 0 0 0 0 0 0 127 0"/><feOffset dx=".4" dy="-.15"/><feGaussianBlur stdDeviation=".4"/><feComposite in2="hardAlpha" k2="-1" k3="1" operator="arithmetic"/><feColorMatrix values="0 0 0 0 0.337255 0 0 0 0 0.243137 0 0 0 0 0.611765 0 0 0 1 0"/><feBlend in2="shape" result="effect1_innerShadow_3987_23068"/></filter><filter id="f2805id10" width="6.317" height="5.313" x="12.906" y="3.831" color-interpolation-filters="sRGB" filterUnits="userSpaceOnUse"><feFlood flood-opacity="0" result="BackgroundImageFix"/><feBlend in="SourceGraphic" in2="BackgroundImageFix" result="shape"/><feColorMatrix in="SourceAlpha" result="hardAlpha" values="0 0 0 0 0 0 0 0 0 0 0 0 0 0 0 0 0 0 127 0"/><feOffset dx=".1" dy="-.15"/><feGaussianBlur stdDeviation=".3"/><feComposite in2="hardAlpha" k2="-1" k3="1" operator="arithmetic"/><feColorMatrix values="0 0 0 0 0.164706 0 0 0 0 0.0588235 0 0 0 0 0.0784314 0 0 0 1 0"/><feBlend in2="shape" result="effect1_innerShadow_3987_23068"/></filter><linearGradient id="f2805id11" x1="25.051" x2="7.801" y1="18.858" y2="24.233" gradientUnits="userSpaceOnUse"><stop offset=".353" stop-color="#86BF45"/><stop offset="1" stop-color="#679951"/></linearGradient><linearGradient id="f2805id12" x1="27.145" x2="26.441" y1="20.42" y2="20.42" gradientUnits="userSpaceOnUse"><stop stop-color="#99D852"/><stop offset="1" stop-color="#99D852" stop-opacity="0"/></linearGradient><linearGradient id="f2805id13" x1="16.015" x2="16.395" y1="15.264" y2="18.795" gradientUnits="userSpaceOnUse"><stop stop-color="#79B34C"/><stop offset="1" stop-color="#4D8C4E"/></linearGradient><linearGradient id="f2805id14" x1="17.168" x2="17.582" y1="16.299" y2="16.694" gradientUnits="userSpaceOnUse"><stop stop-color="#CD9157"/><stop offset="1" stop-color="#EEB683" stop-opacity="0"/></linearGradient><linearGradient id="f2805id15" x1="19.52" x2="19.184" y1="15.983" y2="15.631" gradientUnits="userSpaceOnUse"><stop stop-color="#D59C7A"/><stop offset="1" stop-color="#D59C7A" stop-opacity="0"/></linearGradient><linearGradient id="f2805id16" x1="18.457" x2="12.738" y1="23.389" y2="33.483" gradientUnits="userSpaceOnUse"><stop stop-color="#5FCDFF"/><stop offset="1" stop-color="#4AADFF"/></linearGradient><linearGradient id="f2805id17" x1="18.02" x2="18.02" y1="29.951" y2="29.67" gradientUnits="userSpaceOnUse"><stop stop-color="#59A0FF"/><stop offset="1" stop-color="#55BEFF" stop-opacity="0"/></linearGradient><linearGradient id="f2805id18" x1="15.804" x2="20.086" y1="12.244" y2="13.962" gradientUnits="userSpaceOnUse"><stop stop-color="#957168"/><stop offset="1" stop-color="#957168" stop-opacity="0"/></linearGradient></defs></g></svg>