<svg xmlns="http://www.w3.org/2000/svg" width="1em" height="1em" viewBox="0 0 32 32"><g fill="none"><path fill="#322A2E" d="M18.594 2h11.212v17h-7.643a5.349 5.349 0 0 1-5.357-5.357c0-.843.202-1.634.539-2.342a.856.856 0 0 0 0-.758a5.584 5.584 0 0 1-.54-2.375c0-1.126.336-2.152.906-3.026l.004-.007a5.393 5.393 0 0 0 .876-2.948V2.17c0-.057.001-.113.003-.17"/><path fill="url(#f2572id0)" d="M18.594 2h11.212v17h-7.643a5.349 5.349 0 0 1-5.357-5.357c0-.843.202-1.634.539-2.342a.856.856 0 0 0 0-.758a5.584 5.584 0 0 1-.54-2.375c0-1.126.336-2.152.906-3.026l.004-.007a5.393 5.393 0 0 0 .876-2.948V2.17c0-.057.001-.113.003-.17"/><path fill="url(#f2572id1)" d="M18.594 2h11.212v17h-7.643a5.349 5.349 0 0 1-5.357-5.357c0-.843.202-1.634.539-2.342a.856.856 0 0 0 0-.758a5.584 5.584 0 0 1-.54-2.375c0-1.126.336-2.152.906-3.026l.004-.007a5.393 5.393 0 0 0 .876-2.948V2.17c0-.057.001-.113.003-.17"/><path fill="url(#f2572id2)" d="M18.594 2h11.212v17h-7.643a5.349 5.349 0 0 1-5.357-5.357c0-.843.202-1.634.539-2.342a.856.856 0 0 0 0-.758a5.584 5.584 0 0 1-.54-2.375c0-1.126.336-2.152.906-3.026l.004-.007a5.393 5.393 0 0 0 .876-2.948V2.17c0-.057.001-.113.003-.17"/><g filter="url(#f2572id18)"><path fill="url(#f2572id3)" d="M21.806 11a2.75 2.75 0 1 0 0-5.5a2.75 2.75 0 0 0 0 5.5"/></g><g filter="url(#f2572id19)"><path stroke="#685246" stroke-linecap="round" stroke-width=".15" d="M19.47 8.181c0-.689.297-1.309.77-1.737"/></g><g filter="url(#f2572id1a)"><path fill="#2F1D21" d="M21.805 9.815a1.565 1.565 0 1 0 0-3.13a1.565 1.565 0 0 0 0 3.13"/></g><path fill="url(#f2572id4)" d="M30.056 16.84V30H12.672a18.069 18.069 0 0 1 17.384-13.16"/><path fill="url(#f2572id5)" d="M30.056 16.84V30H12.672a18.069 18.069 0 0 1 17.384-13.16"/><path fill="url(#f2572id1m)" d="M30.056 12c-1.657 0-3 1.38-3 3.081v3.838c0 1.701 1.343 3.081 3 3.081z"/><path fill="url(#f2572id6)" d="M30.056 12c-1.657 0-3 1.38-3 3.081v3.838c0 1.701 1.343 3.081 3 3.081z"/><path fill="#462C2D" d="M22.315 2a2.26 2.26 0 0 0-.919.86c-.223.372-.34.802-.34 1.241v.141l.227 5.882a8.905 8.905 0 0 0 .687 3.27a8.56 8.56 0 0 0 1.832 2.742a8.101 8.101 0 0 0 2.696 1.793a7.8 7.8 0 0 0 3.145.568h.413V2z"/><path fill="url(#f2572id1n)" d="M22.315 2a2.26 2.26 0 0 0-.919.86c-.223.372-.34.802-.34 1.241v.141l.227 5.882a8.905 8.905 0 0 0 .687 3.27a8.56 8.56 0 0 0 1.832 2.742a8.101 8.101 0 0 0 2.696 1.793a7.8 7.8 0 0 0 3.145.568h.413V2z"/><path fill="url(#f2572id7)" d="M22.315 2a2.26 2.26 0 0 0-.919.86c-.223.372-.34.802-.34 1.241v.141l.227 5.882a8.905 8.905 0 0 0 .687 3.27a8.56 8.56 0 0 0 1.832 2.742a8.101 8.101 0 0 0 2.696 1.793a7.8 7.8 0 0 0 3.145.568h.413V2z"/><path fill="url(#f2572id8)" d="M22.315 2a2.26 2.26 0 0 0-.919.86c-.223.372-.34.802-.34 1.241v.141l.227 5.882a8.905 8.905 0 0 0 .687 3.27a8.56 8.56 0 0 0 1.832 2.742a8.101 8.101 0 0 0 2.696 1.793a7.8 7.8 0 0 0 3.145.568h.413V2z"/><path fill="url(#f2572id9)" d="M22.315 2a2.26 2.26 0 0 0-.919.86c-.223.372-.34.802-.34 1.241v.141l.227 5.882a8.905 8.905 0 0 0 .687 3.27a8.56 8.56 0 0 0 1.832 2.742a8.101 8.101 0 0 0 2.696 1.793a7.8 7.8 0 0 0 3.145.568h.413V2z"/><path fill="url(#f2572ida)" d="M22.315 2a2.26 2.26 0 0 0-.919.86c-.223.372-.34.802-.34 1.241v.141l.227 5.882a8.905 8.905 0 0 0 .687 3.27a8.56 8.56 0 0 0 1.832 2.742a8.101 8.101 0 0 0 2.696 1.793a7.8 7.8 0 0 0 3.145.568h.413V2z"/><path fill="#523132" d="m19.329 25.914l-.485.922l-6.656-2.5c.052-.255.222-.994.484-1.906c.263-.913.844-2.328 1.141-2.953l6.64 2.187l.737-1.37a1.498 1.498 0 0 1 2.22-.487c.66.495.794 1.43.289 2.083c-.361.466-.76.97-1.105 1.383c-.87 1.045-1.64 1.454-2.297 1.75a2.226 2.226 0 0 0-.968.891"/><path fill="url(#f2572idb)" d="m19.329 25.914l-.485.922l-6.656-2.5c.052-.255.222-.994.484-1.906c.263-.913.844-2.328 1.141-2.953l6.64 2.187l.737-1.37a1.498 1.498 0 0 1 2.22-.487c.66.495.794 1.43.289 2.083c-.361.466-.76.97-1.105 1.383c-.87 1.045-1.64 1.454-2.297 1.75a2.226 2.226 0 0 0-.968.891"/><path fill="url(#f2572idc)" d="m19.329 25.914l-.485.922l-6.656-2.5c.052-.255.222-.994.484-1.906c.263-.913.844-2.328 1.141-2.953l6.64 2.187l.737-1.37a1.498 1.498 0 0 1 2.22-.487c.66.495.794 1.43.289 2.083c-.361.466-.76.97-1.105 1.383c-.87 1.045-1.64 1.454-2.297 1.75a2.226 2.226 0 0 0-.968.891"/><path fill="url(#f2572idd)" d="m19.329 25.914l-.485.922l-6.656-2.5c.052-.255.222-.994.484-1.906c.263-.913.844-2.328 1.141-2.953l6.64 2.187l.737-1.37a1.498 1.498 0 0 1 2.22-.487c.66.495.794 1.43.289 2.083c-.361.466-.76.97-1.105 1.383c-.87 1.045-1.64 1.454-2.297 1.75a2.226 2.226 0 0 0-.968.891"/><path fill="url(#f2572ide)" d="m19.329 25.914l-.485.922l-6.656-2.5c.052-.255.222-.994.484-1.906c.263-.913.844-2.328 1.141-2.953l6.64 2.187l.737-1.37a1.498 1.498 0 0 1 2.22-.487c.66.495.794 1.43.289 2.083c-.361.466-.76.97-1.105 1.383c-.87 1.045-1.64 1.454-2.297 1.75a2.226 2.226 0 0 0-.968.891"/><path fill="url(#f2572idf)" d="m19.329 25.914l-.485.922l-6.656-2.5c.052-.255.222-.994.484-1.906c.263-.913.844-2.328 1.141-2.953l6.64 2.187l.737-1.37a1.498 1.498 0 0 1 2.22-.487c.66.495.794 1.43.289 2.083c-.361.466-.76.97-1.105 1.383c-.87 1.045-1.64 1.454-2.297 1.75a2.226 2.226 0 0 0-.968.891"/><path fill="url(#f2572idg)" d="m19.329 25.914l-.485.922l-6.656-2.5c.052-.255.222-.994.484-1.906c.263-.913.844-2.328 1.141-2.953l6.64 2.187l.737-1.37a1.498 1.498 0 0 1 2.22-.487c.66.495.794 1.43.289 2.083c-.361.466-.76.97-1.105 1.383c-.87 1.045-1.64 1.454-2.297 1.75a2.226 2.226 0 0 0-.968.891"/><rect width="2.859" height="8.147" x="21.341" y="13.466" fill="url(#f2572idh)" rx="1.429" transform="rotate(25.409 21.34 13.466)"/><rect width="2.859" height="8.147" x="21.341" y="13.466" fill="url(#f2572idi)" rx="1.429" transform="rotate(25.409 21.34 13.466)"/><rect width="2.859" height="8.147" x="21.341" y="13.466" fill="url(#f2572idj)" rx="1.429" transform="rotate(25.409 21.34 13.466)"/><path fill="url(#f2572idk)" d="M19.57 17.464a2.427 2.427 0 0 0-2.296.874L18.5 20.36c-.058.732.093 2.24 1.22 2.381c1.408.177 1.935-1.088 1.995-2.381c.06-1.285-.724-2.664-2.146-2.896"/><path fill="url(#f2572idl)" d="M19.57 17.464a2.427 2.427 0 0 0-2.296.874L18.5 20.36c-.058.732.093 2.24 1.22 2.381c1.408.177 1.935-1.088 1.995-2.381c.06-1.285-.724-2.664-2.146-2.896"/><path fill="url(#f2572idm)" d="M19.57 17.464a2.427 2.427 0 0 0-2.296.874L18.5 20.36c-.058.732.093 2.24 1.22 2.381c1.408.177 1.935-1.088 1.995-2.381c.06-1.285-.724-2.664-2.146-2.896"/><path fill="url(#f2572idn)" d="M19.57 17.464a2.427 2.427 0 0 0-2.296.874L18.5 20.36c-.058.732.093 2.24 1.22 2.381c1.408.177 1.935-1.088 1.995-2.381c.06-1.285-.724-2.664-2.146-2.896"/><path fill="url(#f2572ido)" d="M18.172 17.414a2.49 2.49 0 0 0-2.382.93l1.273 2.148c-.06.779.097 2.381 1.266 2.531c1.46.188 2.007-1.156 2.07-2.53c.062-1.367-.75-2.832-2.227-3.079"/><path fill="url(#f2572idp)" d="M18.172 17.414a2.49 2.49 0 0 0-2.382.93l1.273 2.148c-.06.779.097 2.381 1.266 2.531c1.46.188 2.007-1.156 2.07-2.53c.062-1.367-.75-2.832-2.227-3.079"/><path fill="url(#f2572idq)" d="M18.172 17.414a2.49 2.49 0 0 0-2.382.93l1.273 2.148c-.06.779.097 2.381 1.266 2.531c1.46.188 2.007-1.156 2.07-2.53c.062-1.367-.75-2.832-2.227-3.079"/><path fill="url(#f2572idr)" d="M18.172 17.414a2.49 2.49 0 0 0-2.382.93l1.273 2.148c-.06.779.097 2.381 1.266 2.531c1.46.188 2.007-1.156 2.07-2.53c.062-1.367-.75-2.832-2.227-3.079"/><path fill="url(#f2572ids)" d="M17.97 21.41c.597-1.607-.206-2.863-1.063-3.223c-1.038-.435-2.5-.085-3.149 1.415l.29 1.015l1.174-.512c.082-.035.167.048.137.132c-.64 1.789.251 2.099.641 2.286c.249.12 1.415.38 1.97-1.113"/><path fill="url(#f2572idt)" d="M17.97 21.41c.597-1.607-.206-2.863-1.063-3.223c-1.038-.435-2.5-.085-3.149 1.415l.29 1.015l1.174-.512c.082-.035.167.048.137.132c-.64 1.789.251 2.099.641 2.286c.249.12 1.415.38 1.97-1.113"/><g filter="url(#f2572id1b)"><path fill="url(#f2572id1o)" d="M29.806 7.439a.716.716 0 0 0-.624.484l-.997 2.878a.742.742 0 0 0-.029.404a.812.812 0 0 0 .19.372c.097.11.223.199.368.26c.145.062.306.094.468.094h.624z"/></g><path fill="url(#f2572id1p)" d="M30.056 7.313a.716.716 0 0 0-.624.484l-.997 2.878a.743.743 0 0 0-.029.403a.813.813 0 0 0 .19.372a1 1 0 0 0 .368.26c.145.062.306.094.468.095h.624z"/><path fill="url(#f2572id1q)" d="M30.056 7.313a.716.716 0 0 0-.624.484l-.997 2.878a.743.743 0 0 0-.029.403a.813.813 0 0 0 .19.372a1 1 0 0 0 .368.26c.145.062.306.094.468.095h.624z"/><path fill="url(#f2572idu)" d="M30.056 7.313a.716.716 0 0 0-.624.484l-.997 2.878a.743.743 0 0 0-.029.403a.813.813 0 0 0 .19.372a1 1 0 0 0 .368.26c.145.062.306.094.468.095h.624z"/><g filter="url(#f2572id1c)"><path stroke="url(#f2572idv)" stroke-width=".2" d="M30.056 13.627a4.844 4.844 0 0 1-.25.005a4.839 4.839 0 0 1-2.372-.604a.248.248 0 0 0-.164-.023a.26.26 0 0 0-.145.086a.296.296 0 0 0-.033.333c.293.483.695.881 1.169 1.156a3.072 3.072 0 0 0 1.795.41z"/></g><path fill="#2C021A" d="M30.056 13.627a4.844 4.844 0 0 1-.25.005a4.839 4.839 0 0 1-2.372-.604a.248.248 0 0 0-.164-.023a.26.26 0 0 0-.145.086a.296.296 0 0 0-.033.333c.293.483.695.881 1.169 1.156a3.072 3.072 0 0 0 1.795.41z"/><g filter="url(#f2572id1d)"><path fill="#1F1E1E" fill-rule="evenodd" d="M26.631 4.026a4.303 4.303 0 0 0-2.592.429a.505.505 0 0 1-.676-.206a.485.485 0 0 1 .21-.662a5.322 5.322 0 0 1 3.206-.53c.274.04.462.29.421.557a.499.499 0 0 1-.569.412" clip-rule="evenodd"/></g><path fill="url(#f2572id1r)" d="m18.703 26.342l-5.94-2.639a.5.5 0 0 0-.66.254l-.617 1.39a.5.5 0 0 0 .254.659l5.94 2.639a.5.5 0 0 0 .66-.254l.617-1.39a.5.5 0 0 0-.254-.66"/><path fill="url(#f2572id1s)" d="m18.703 26.342l-5.94-2.639a.5.5 0 0 0-.66.254l-.617 1.39a.5.5 0 0 0 .254.659l5.94 2.639a.5.5 0 0 0 .66-.254l.617-1.39a.5.5 0 0 0-.254-.66"/><path fill="url(#f2572idw)" d="m18.703 26.342l-5.94-2.639a.5.5 0 0 0-.66.254l-.617 1.39a.5.5 0 0 0 .254.659l5.94 2.639a.5.5 0 0 0 .66-.254l.617-1.39a.5.5 0 0 0-.254-.66"/><path fill="url(#f2572id1t)" d="m18.703 26.342l-5.94-2.639a.5.5 0 0 0-.66.254l-.617 1.39a.5.5 0 0 0 .254.659l5.94 2.639a.5.5 0 0 0 .66-.254l.617-1.39a.5.5 0 0 0-.254-.66"/><path fill="url(#f2572idx)" d="m18.703 26.342l-5.94-2.639a.5.5 0 0 0-.66.254l-.617 1.39a.5.5 0 0 0 .254.659l5.94 2.639a.5.5 0 0 0 .66-.254l.617-1.39a.5.5 0 0 0-.254-.66"/><path fill="url(#f2572idy)" d="m18.703 26.342l-5.94-2.639a.5.5 0 0 0-.66.254l-.617 1.39a.5.5 0 0 0 .254.659l5.94 2.639a.5.5 0 0 0 .66-.254l.617-1.39a.5.5 0 0 0-.254-.66"/><path fill="url(#f2572id1u)" d="M18.93 30H8.097l1.76-4.056a1.58 1.58 0 0 1 .87-.837a1.55 1.55 0 0 1 1.197.028l6.204 2.773c.377.175.672.492.82.885c.149.39.141.823-.02 1.207"/><path fill="url(#f2572id1v)" d="M18.93 30H8.097l1.76-4.056a1.58 1.58 0 0 1 .87-.837a1.55 1.55 0 0 1 1.197.028l6.204 2.773c.377.175.672.492.82.885c.149.39.141.823-.02 1.207"/><path fill="url(#f2572idz)" d="M18.93 30H8.097l1.76-4.056a1.58 1.58 0 0 1 .87-.837a1.55 1.55 0 0 1 1.197.028l6.204 2.773c.377.175.672.492.82.885c.149.39.141.823-.02 1.207"/><path fill="url(#f2572id10)" d="M18.93 30H8.097l1.76-4.056a1.58 1.58 0 0 1 .87-.837a1.55 1.55 0 0 1 1.197.028l6.204 2.773c.377.175.672.492.82.885c.149.39.141.823-.02 1.207"/><path fill="url(#f2572id11)" d="M18.93 30H8.097l1.76-4.056a1.58 1.58 0 0 1 .87-.837a1.55 1.55 0 0 1 1.197.028l6.204 2.773c.377.175.672.492.82.885c.149.39.141.823-.02 1.207"/><g filter="url(#f2572id1e)"><path fill="url(#f2572id12)" fill-rule="evenodd" d="M14.677 8.866a.85.85 0 0 1 .937.753a5.644 5.644 0 0 0 1.487 3.242a.85.85 0 0 1-1.242 1.161a7.344 7.344 0 0 1-1.935-4.219a.85.85 0 0 1 .753-.937" clip-rule="evenodd"/></g><g filter="url(#f2572id1f)"><path fill="url(#f2572id13)" fill-rule="evenodd" d="M11.776 9.346a.85.85 0 0 1 .942.747c.207 1.788 1.008 3.299 2.22 4.708a.85.85 0 1 1-1.29 1.108c-1.367-1.59-2.363-3.408-2.619-5.62a.85.85 0 0 1 .747-.943" clip-rule="evenodd"/></g><g filter="url(#f2572id1g)"><path stroke="#D4D2DD" stroke-linecap="round" stroke-width=".5" d="M12.144 10.032c.12 1.041.848 3.49 2.436 5.146"/></g><g filter="url(#f2572id1h)"><path stroke="#D4D2DD" stroke-linecap="round" stroke-width=".5" d="M15.01 9.631c.144.831.671 2.716 1.634 3.61"/></g><path fill="url(#f2572id14)" d="M23.219 6.805c.006.343.315.507.469.547h1.992l2.164-.711C26.538 5.116 24.69 5.578 23.93 6c-.24.125-.717.46-.711.805"/><path fill="#fff" d="M25.885 5.684a2.487 2.487 0 0 0-2.412 1.885c-.08.31.159.607.477.607h3.972a.41.41 0 0 0 .405-.484a2.495 2.495 0 0 0-2.442-2.008"/><path fill="url(#f2572id15)" d="M26.254 6.168a1.589 1.589 0 0 0-1.532 2.008h3.07c.036-.138.058-.275.058-.42a1.6 1.6 0 0 0-1.596-1.588"/><path fill="#000" d="M27.164 7.757a.906.906 0 0 0-.91-.91a.906.906 0 0 0-.91.91c0 .151.036.296.1.419h1.612a.902.902 0 0 0 .108-.42"/><g filter="url(#f2572id1i)"><path fill="url(#f2572id1w)" d="M27.705 7.57c0-.514-.417-.856-.53-.96l-.514.497l.316.644z"/></g><g filter="url(#f2572id1j)"><path fill="url(#f2572id16)" fill-opacity=".9" d="M26.343 6.627c.091.171.046.38-.35.413a.355.355 0 0 0-.259.161c-.165.243-.382.163-.47-.002c-.103-.195.055-.48.353-.638c.298-.158.623-.129.726.066"/><path fill="url(#f2572id17)" d="M26.343 6.627c.091.171.046.38-.35.413a.355.355 0 0 0-.259.161c-.165.243-.382.163-.47-.002c-.103-.195.055-.48.353-.638c.298-.158.623-.129.726.066"/></g><g filter="url(#f2572id1k)"><path stroke="url(#f2572id1x)" stroke-linecap="round" stroke-width=".25" d="M23.793 4a4.947 4.947 0 0 1 2.984-.5"/></g><g filter="url(#f2572id1l)"><path stroke="url(#f2572id1y)" stroke-linecap="round" stroke-width=".35" d="M15.967 18.723c-.93 0-1.799.546-2.774 4.446"/></g><defs><radialGradient id="f2572id0" cx="0" cy="0" r="1" gradientTransform="rotate(138.425 10.852 11.954)scale(10.949 12.1957)" gradientUnits="userSpaceOnUse"><stop offset=".391" stop-color="#1C0E25"/><stop offset="1" stop-color="#1C0E25" stop-opacity="0"/></radialGradient><radialGradient id="f2572id1" cx="0" cy="0" r="1" gradientTransform="rotate(97.998 9.416 11.52)scale(3.12067 2.7251)" gradientUnits="userSpaceOnUse"><stop offset=".368" stop-color="#0B030A"/><stop offset="1" stop-color="#0B030A" stop-opacity="0"/></radialGradient><radialGradient id="f2572id2" cx="0" cy="0" r="1" gradientTransform="matrix(2.23268 1.01324 -4.44268 9.78947 18.344 2)" gradientUnits="userSpaceOnUse"><stop offset=".231" stop-color="#555151"/><stop offset="1" stop-color="#555151" stop-opacity="0"/></radialGradient><radialGradient id="f2572id3" cx="0" cy="0" r="1" gradientTransform="matrix(3.25 3.40625 -3.96363 3.78181 19.65 7.028)" gradientUnits="userSpaceOnUse"><stop stop-color="#47302C"/><stop offset="1" stop-color="#2F1C20"/></radialGradient><radialGradient id="f2572id4" cx="0" cy="0" r="1" gradientTransform="matrix(-8.25 6.43749 -5.94882 -7.62374 28.68 21.653)" gradientUnits="userSpaceOnUse"><stop stop-color="#7E62B9"/><stop offset=".745" stop-color="#765DAD"/></radialGradient><radialGradient id="f2572id5" cx="0" cy="0" r="1" gradientTransform="matrix(-8.55223 2.82027 -1.53546 -4.65615 27.652 17.195)" gradientUnits="userSpaceOnUse"><stop stop-color="#50366C"/><stop offset="1" stop-color="#50366C" stop-opacity="0"/></radialGradient><radialGradient id="f2572id6" cx="0" cy="0" r="1" gradientTransform="matrix(0 2.80525 -.67168 0 27.587 17.977)" gradientUnits="userSpaceOnUse"><stop offset=".28" stop-color="#503D41"/><stop offset="1" stop-color="#503D41" stop-opacity="0"/></radialGradient><radialGradient id="f2572id7" cx="0" cy="0" r="1" gradientTransform="matrix(0 10.6679 -11.8137 0 29.187 8.198)" gradientUnits="userSpaceOnUse"><stop offset=".419" stop-color="#391E2F" stop-opacity="0"/><stop offset="1" stop-color="#411C47"/></radialGradient><radialGradient id="f2572id8" cx="0" cy="0" r="1" gradientTransform="rotate(119.105 12.621 13.168)scale(10.4079 12.0481)" gradientUnits="userSpaceOnUse"><stop offset=".938" stop-color="#452647" stop-opacity="0"/><stop offset="1" stop-color="#452844"/></radialGradient><radialGradient id="f2572id9" cx="0" cy="0" r="1" gradientTransform="matrix(0 -2.61637 3.38383 0 26.007 5.67)" gradientUnits="userSpaceOnUse"><stop offset=".21" stop-color="#381E22"/><stop offset="1" stop-color="#381E22" stop-opacity="0"/></radialGradient><radialGradient id="f2572ida" cx="0" cy="0" r="1" gradientTransform="matrix(2.3125 2.3125 -6.50814 6.50814 21.922 2.42)" gradientUnits="userSpaceOnUse"><stop offset=".134" stop-color="#5E483F"/><stop offset="1" stop-color="#5E483F" stop-opacity="0"/></radialGradient><radialGradient id="f2572idb" cx="0" cy="0" r="1" gradientTransform="matrix(-.46875 3.1875 -3.36293 -.49455 18.313 21.664)" gradientUnits="userSpaceOnUse"><stop offset=".44" stop-color="#472F30"/><stop offset="1" stop-color="#472F30" stop-opacity="0"/></radialGradient><radialGradient id="f2572idc" cx="0" cy="0" r="1" gradientTransform="matrix(-2.28364 1.52242 -.4085 -.61276 23.83 20.195)" gradientUnits="userSpaceOnUse"><stop offset=".247" stop-color="#695655"/><stop offset="1" stop-color="#695655" stop-opacity="0"/></radialGradient><radialGradient id="f2572idd" cx="0" cy="0" r="1" gradientTransform="matrix(4.28125 .52344 -.73073 5.9767 13.5 22.633)" gradientUnits="userSpaceOnUse"><stop offset=".021" stop-color="#43272A"/><stop offset="1" stop-color="#43272A" stop-opacity="0"/></radialGradient><radialGradient id="f2572ide" cx="0" cy="0" r="1" gradientTransform="matrix(-1.10937 2.25782 -1.76414 -.8668 16.563 20.898)" gradientUnits="userSpaceOnUse"><stop offset=".655" stop-color="#381624"/><stop offset="1" stop-color="#381624" stop-opacity="0"/></radialGradient><radialGradient id="f2572idf" cx="0" cy="0" r="1" gradientTransform="matrix(-.56251 2.03125 -1.89905 -.5259 18.016 21.633)" gradientUnits="userSpaceOnUse"><stop offset=".505" stop-color="#381624"/><stop offset="1" stop-color="#381624" stop-opacity="0"/></radialGradient><radialGradient id="f2572idg" cx="0" cy="0" r="1" gradientTransform="matrix(1.1985 -.0243 .0289 1.42614 21.32 20.096)" gradientUnits="userSpaceOnUse"><stop offset=".17" stop-color="#4C3531"/><stop offset="1" stop-color="#4C3531" stop-opacity="0"/></radialGradient><radialGradient id="f2572idh" cx="0" cy="0" r="1" gradientTransform="matrix(2.29841 -.29606 .55646 4.31989 21.741 17.768)" gradientUnits="userSpaceOnUse"><stop stop-color="#3A2320"/><stop offset="1" stop-color="#4A3032"/></radialGradient><radialGradient id="f2572idi" cx="0" cy="0" r="1" gradientTransform="matrix(1.33724 -1.8461 .63208 .45786 23.805 13.26)" gradientUnits="userSpaceOnUse"><stop offset=".201" stop-color="#695655"/><stop offset="1" stop-color="#695655" stop-opacity="0"/></radialGradient><radialGradient id="f2572idj" cx="0" cy="0" r="1" gradientTransform="rotate(91.156 2.573 19.124)scale(3.52879 .49425)" gradientUnits="userSpaceOnUse"><stop offset=".238" stop-color="#634E42"/><stop offset="1" stop-color="#634E42" stop-opacity="0"/></radialGradient><radialGradient id="f2572idk" cx="0" cy="0" r="1" gradientTransform="rotate(173.089 10.446 10.35)scale(2.0776 1.54328)" gradientUnits="userSpaceOnUse"><stop offset=".262" stop-color="#6C5855"/><stop offset="1" stop-color="#4F3435"/></radialGradient><radialGradient id="f2572idl" cx="0" cy="0" r="1" gradientTransform="matrix(1.23147 -.56064 .71722 1.5754 20.143 22.758)" gradientUnits="userSpaceOnUse"><stop stop-color="#421F33"/><stop offset="1" stop-color="#421F33" stop-opacity="0"/></radialGradient><radialGradient id="f2572idm" cx="0" cy="0" r="1" gradientTransform="matrix(1.0098 4.1052 -2.79361 .68718 19.614 18.929)" gradientUnits="userSpaceOnUse"><stop offset=".874" stop-color="#704C65" stop-opacity="0"/><stop offset=".928" stop-color="#704C65"/></radialGradient><radialGradient id="f2572idn" cx="0" cy="0" r="1" gradientTransform="rotate(-31.891 43.59 -22.383)scale(2.48437 2.73467)" gradientUnits="userSpaceOnUse"><stop offset=".591" stop-color="#402628"/><stop offset="1" stop-color="#402628" stop-opacity="0"/></radialGradient><radialGradient id="f2572ido" cx="0" cy="0" r="1" gradientTransform="matrix(-2.14016 .2657 -.20201 -1.62719 20.757 19.439)" gradientUnits="userSpaceOnUse"><stop offset=".262" stop-color="#6C5855"/><stop offset="1" stop-color="#4F3435"/></radialGradient><radialGradient id="f2572idp" cx="0" cy="0" r="1" gradientTransform="matrix(1.27785 -.59587 .77426 1.6604 18.767 23.04)" gradientUnits="userSpaceOnUse"><stop stop-color="#4C1F2B"/><stop offset="1" stop-color="#4C1F2B" stop-opacity="0"/></radialGradient><radialGradient id="f2572idq" cx="0" cy="0" r="1" gradientTransform="matrix(1.04783 4.36318 -2.90657 .69802 18.218 18.971)" gradientUnits="userSpaceOnUse"><stop offset=".874" stop-color="#704C65" stop-opacity="0"/><stop offset=".928" stop-color="#704C65"/></radialGradient><radialGradient id="f2572idr" cx="0" cy="0" r="1" gradientTransform="matrix(2.21876 -1.25 1.60689 2.85223 16.483 19.947)" gradientUnits="userSpaceOnUse"><stop offset=".591" stop-color="#402628"/><stop offset="1" stop-color="#402628" stop-opacity="0"/></radialGradient><radialGradient id="f2572ids" cx="0" cy="0" r="1" gradientTransform="rotate(147.824 6.311 12.248)scale(2.9396 1.7606)" gradientUnits="userSpaceOnUse"><stop offset=".086" stop-color="#6A5756"/><stop offset="1" stop-color="#492B2D"/></radialGradient><radialGradient id="f2572idt" cx="0" cy="0" r="1" gradientTransform="rotate(-86.517 20.281 2.71)scale(1.8002 3.61142)" gradientUnits="userSpaceOnUse"><stop offset=".095" stop-color="#4B202C"/><stop offset="1" stop-color="#4B202C" stop-opacity="0"/></radialGradient><radialGradient id="f2572idu" cx="0" cy="0" r="1" gradientTransform="matrix(.80876 -2.23473 .60375 .2185 28.68 10.005)" gradientUnits="userSpaceOnUse"><stop offset=".34" stop-color="#5D453B"/><stop offset="1" stop-color="#5D453B" stop-opacity="0"/></radialGradient><radialGradient id="f2572idv" cx="0" cy="0" r="1" gradientTransform="matrix(1.0625 -1.07812 1.80317 1.77704 27.84 14.57)" gradientUnits="userSpaceOnUse"><stop stop-color="#4D3C3C"/><stop offset="1" stop-color="#4D3C3C" stop-opacity="0"/></radialGradient><radialGradient id="f2572idw" cx="0" cy="0" r="1" gradientTransform="matrix(.84375 -1.84375 1.43559 .65696 16.152 27.383)" gradientUnits="userSpaceOnUse"><stop stop-color="#946FDE"/><stop offset="1" stop-color="#946FDE" stop-opacity="0"/></radialGradient><radialGradient id="f2572idx" cx="0" cy="0" r="1" gradientTransform="matrix(.39063 -.85937 11.7734 5.35156 16.278 27.195)" gradientUnits="userSpaceOnUse"><stop offset=".115" stop-color="#9C84D9"/><stop offset=".314" stop-color="#9C84D9" stop-opacity="0"/></radialGradient><radialGradient id="f2572idy" cx="0" cy="0" r="1" gradientTransform="matrix(-.54023 1.26161 -13.46265 -5.76482 17.559 25.758)" gradientUnits="userSpaceOnUse"><stop offset=".073" stop-color="#AC8CE9"/><stop offset=".417" stop-color="#AC8CE9" stop-opacity="0"/></radialGradient><radialGradient id="f2572idz" cx="0" cy="0" r="1" gradientTransform="rotate(110.556 -.956 19.465)scale(1.335 7.37895)" gradientUnits="userSpaceOnUse"><stop offset=".207" stop-color="#A28BE1"/><stop offset="1" stop-color="#A28BE1" stop-opacity="0"/></radialGradient><radialGradient id="f2572id10" cx="0" cy="0" r="1" gradientTransform="matrix(2.28125 -5.49215 3.07788 1.27844 8.684 30)" gradientUnits="userSpaceOnUse"><stop stop-color="#957DB3"/><stop offset="1" stop-color="#957DB3" stop-opacity="0"/></radialGradient><radialGradient id="f2572id11" cx="0" cy="0" r="1" gradientTransform="matrix(0 -2.9375 3.65625 0 15.84 31.008)" gradientUnits="userSpaceOnUse"><stop stop-color="#946FE2"/><stop offset="1" stop-color="#946FE2" stop-opacity="0"/></radialGradient><radialGradient id="f2572id12" cx="0" cy="0" r="1" gradientTransform="rotate(151.783 6.808 7.718)scale(2.18107 6.10648)" gradientUnits="userSpaceOnUse"><stop offset=".256" stop-color="#CFCBD9"/><stop offset="1" stop-color="#978CA5"/></radialGradient><radialGradient id="f2572id13" cx="0" cy="0" r="1" gradientTransform="rotate(150.678 5.418 8.054)scale(2.66165 7.63701)" gradientUnits="userSpaceOnUse"><stop offset=".256" stop-color="#CFCBD9"/><stop offset="1" stop-color="#978CA5"/></radialGradient><radialGradient id="f2572id14" cx="0" cy="0" r="1" gradientTransform="matrix(-1.86229 -.38309 .38425 -1.86796 25.009 7.09)" gradientUnits="userSpaceOnUse"><stop offset=".7" stop-color="#2B2A2C"/><stop offset="1" stop-color="#201724"/></radialGradient><radialGradient id="f2572id15" cx="0" cy="0" r="1" gradientTransform="matrix(0 1.44457 -2.29775 0 26.257 7.017)" gradientUnits="userSpaceOnUse"><stop offset=".802" stop-color="#925C51"/><stop offset="1" stop-color="#694B43"/><stop offset="1" stop-color="#804D49"/><stop offset="1" stop-color="#85534D"/></radialGradient><radialGradient id="f2572id16" cx="0" cy="0" r="1" gradientTransform="matrix(-.34794 -.5716 1.04132 -.63385 26 7.282)" gradientUnits="userSpaceOnUse"><stop offset=".208" stop-color="#C7A7A3" stop-opacity=".25"/><stop offset=".79" stop-color="#C7A7A3"/></radialGradient><radialGradient id="f2572id17" cx="0" cy="0" r="1" gradientTransform="rotate(-118.61 15.262 -3.998)scale(.99834 .93105)" gradientUnits="userSpaceOnUse"><stop offset=".766" stop-color="#FFE6E2" stop-opacity="0"/><stop offset=".966" stop-color="#FFE6E2"/></radialGradient><filter id="f2572id18" width="5.5" height="5.75" x="19.056" y="5.25" color-interpolation-filters="sRGB" filterUnits="userSpaceOnUse"><feFlood flood-opacity="0" result="BackgroundImageFix"/><feBlend in="SourceGraphic" in2="BackgroundImageFix" result="shape"/><feColorMatrix in="SourceAlpha" result="hardAlpha" values="0 0 0 0 0 0 0 0 0 0 0 0 0 0 0 0 0 0 127 0"/><feOffset dy="-.25"/><feGaussianBlur stdDeviation=".25"/><feComposite in2="hardAlpha" k2="-1" k3="1" operator="arithmetic"/><feColorMatrix values="0 0 0 0 0.231373 0 0 0 0 0.109804 0 0 0 0 0.176471 0 0 0 1 0"/><feBlend in2="shape" result="effect1_innerShadow_2520_9951"/></filter><filter id="f2572id19" width="1.421" height="2.388" x="19.144" y="6.119" color-interpolation-filters="sRGB" filterUnits="userSpaceOnUse"><feFlood flood-opacity="0" result="BackgroundImageFix"/><feBlend in="SourceGraphic" in2="BackgroundImageFix" result="shape"/><feGaussianBlur result="effect1_foregroundBlur_2520_9951" stdDeviation=".125"/></filter><filter id="f2572id1a" width="4.13" height="4.13" x="19.74" y="6.185" color-interpolation-filters="sRGB" filterUnits="userSpaceOnUse"><feFlood flood-opacity="0" result="BackgroundImageFix"/><feBlend in="SourceGraphic" in2="BackgroundImageFix" result="shape"/><feGaussianBlur result="effect1_foregroundBlur_2520_9951" stdDeviation=".25"/></filter><filter id="f2572id1b" width="2.665" height="5.492" x="27.641" y="6.939" color-interpolation-filters="sRGB" filterUnits="userSpaceOnUse"><feFlood flood-opacity="0" result="BackgroundImageFix"/><feBlend in="SourceGraphic" in2="BackgroundImageFix" result="shape"/><feGaussianBlur result="effect1_foregroundBlur_2520_9951" stdDeviation=".25"/></filter><filter id="f2572id1c" width="3.4" height="2.4" x="26.856" y="12.8" color-interpolation-filters="sRGB" filterUnits="userSpaceOnUse"><feFlood flood-opacity="0" result="BackgroundImageFix"/><feBlend in="SourceGraphic" in2="BackgroundImageFix" result="shape"/><feGaussianBlur result="effect1_foregroundBlur_2520_9951" stdDeviation=".05"/></filter><filter id="f2572id1d" width="4.05" height="1.761" x="23.306" y="2.75" color-interpolation-filters="sRGB" filterUnits="userSpaceOnUse"><feFlood flood-opacity="0" result="BackgroundImageFix"/><feBlend in="SourceGraphic" in2="BackgroundImageFix" result="shape"/><feColorMatrix in="SourceAlpha" result="hardAlpha" values="0 0 0 0 0 0 0 0 0 0 0 0 0 0 0 0 0 0 127 0"/><feOffset dx=".15" dy="-.25"/><feGaussianBlur stdDeviation=".2"/><feComposite in2="hardAlpha" k2="-1" k3="1" operator="arithmetic"/><feColorMatrix values="0 0 0 0 0.0666667 0 0 0 0 0.0313726 0 0 0 0 0.0901961 0 0 0 1 0"/><feBlend in2="shape" result="effect1_innerShadow_2520_9951"/></filter><filter id="f2572id1e" width="3.711" height="5.581" x="13.819" y="8.761" color-interpolation-filters="sRGB" filterUnits="userSpaceOnUse"><feFlood flood-opacity="0" result="BackgroundImageFix"/><feBlend in="SourceGraphic" in2="BackgroundImageFix" result="shape"/><feColorMatrix in="SourceAlpha" result="hardAlpha" values="0 0 0 0 0 0 0 0 0 0 0 0 0 0 0 0 0 0 127 0"/><feOffset dx=".2" dy="-.1"/><feGaussianBlur stdDeviation=".3"/><feComposite in2="hardAlpha" k2="-1" k3="1" operator="arithmetic"/><feColorMatrix values="0 0 0 0 0.427451 0 0 0 0 0.380392 0 0 0 0 0.478431 0 0 0 1 0"/><feBlend in2="shape" result="effect1_innerShadow_2520_9951"/><feColorMatrix in="SourceAlpha" result="hardAlpha" values="0 0 0 0 0 0 0 0 0 0 0 0 0 0 0 0 0 0 127 0"/><feOffset dx="-.1" dy=".05"/><feGaussianBlur stdDeviation=".15"/><feComposite in2="hardAlpha" k2="-1" k3="1" operator="arithmetic"/><feColorMatrix values="0 0 0 0 0.678431 0 0 0 0 0.678431 0 0 0 0 0.694118 0 0 0 1 0"/><feBlend in2="effect1_innerShadow_2520_9951" result="effect2_innerShadow_2520_9951"/></filter><filter id="f2572id1f" width="4.419" height="7.014" x="10.923" y="9.241" color-interpolation-filters="sRGB" filterUnits="userSpaceOnUse"><feFlood flood-opacity="0" result="BackgroundImageFix"/><feBlend in="SourceGraphic" in2="BackgroundImageFix" result="shape"/><feColorMatrix in="SourceAlpha" result="hardAlpha" values="0 0 0 0 0 0 0 0 0 0 0 0 0 0 0 0 0 0 127 0"/><feOffset dx=".2" dy="-.1"/><feGaussianBlur stdDeviation=".3"/><feComposite in2="hardAlpha" k2="-1" k3="1" operator="arithmetic"/><feColorMatrix values="0 0 0 0 0.427451 0 0 0 0 0.380392 0 0 0 0 0.478431 0 0 0 1 0"/><feBlend in2="shape" result="effect1_innerShadow_2520_9951"/><feColorMatrix in="SourceAlpha" result="hardAlpha" values="0 0 0 0 0 0 0 0 0 0 0 0 0 0 0 0 0 0 127 0"/><feOffset dx="-.1" dy=".05"/><feGaussianBlur stdDeviation=".15"/><feComposite in2="hardAlpha" k2="-1" k3="1" operator="arithmetic"/><feColorMatrix values="0 0 0 0 0.678431 0 0 0 0 0.678431 0 0 0 0 0.694118 0 0 0 1 0"/><feBlend in2="effect1_innerShadow_2520_9951" result="effect2_innerShadow_2520_9951"/></filter><filter id="f2572id1g" width="3.936" height="6.647" x="11.394" y="9.282" color-interpolation-filters="sRGB" filterUnits="userSpaceOnUse"><feFlood flood-opacity="0" result="BackgroundImageFix"/><feBlend in="SourceGraphic" in2="BackgroundImageFix" result="shape"/><feGaussianBlur result="effect1_foregroundBlur_2520_9951" stdDeviation=".25"/></filter><filter id="f2572id1h" width="3.133" height="5.109" x="14.261" y="8.881" color-interpolation-filters="sRGB" filterUnits="userSpaceOnUse"><feFlood flood-opacity="0" result="BackgroundImageFix"/><feBlend in="SourceGraphic" in2="BackgroundImageFix" result="shape"/><feGaussianBlur result="effect1_foregroundBlur_2520_9951" stdDeviation=".25"/></filter><filter id="f2572id1i" width="1.444" height="1.54" x="26.461" y="6.411" color-interpolation-filters="sRGB" filterUnits="userSpaceOnUse"><feFlood flood-opacity="0" result="BackgroundImageFix"/><feBlend in="SourceGraphic" in2="BackgroundImageFix" result="shape"/><feGaussianBlur result="effect1_foregroundBlur_2520_9951" stdDeviation=".1"/></filter><filter id="f2572id1j" width="1.35" height="1.095" x="25.133" y="6.359" color-interpolation-filters="sRGB" filterUnits="userSpaceOnUse"><feFlood flood-opacity="0" result="BackgroundImageFix"/><feBlend in="SourceGraphic" in2="BackgroundImageFix" result="shape"/><feGaussianBlur result="effect1_foregroundBlur_2520_9951" stdDeviation=".05"/></filter><filter id="f2572id1k" width="3.734" height="1.3" x="23.418" y="3.075" color-interpolation-filters="sRGB" filterUnits="userSpaceOnUse"><feFlood flood-opacity="0" result="BackgroundImageFix"/><feBlend in="SourceGraphic" in2="BackgroundImageFix" result="shape"/><feGaussianBlur result="effect1_foregroundBlur_2520_9951" stdDeviation=".125"/></filter><filter id="f2572id1l" width="4.123" height="5.795" x="12.519" y="18.048" color-interpolation-filters="sRGB" filterUnits="userSpaceOnUse"><feFlood flood-opacity="0" result="BackgroundImageFix"/><feBlend in="SourceGraphic" in2="BackgroundImageFix" result="shape"/><feGaussianBlur result="effect1_foregroundBlur_2520_9951" stdDeviation=".25"/></filter><linearGradient id="f2572id1m" x1="30.064" x2="30.064" y1="18.299" y2="22" gradientUnits="userSpaceOnUse"><stop stop-color="#412333"/><stop offset="1" stop-color="#4C2741"/></linearGradient><linearGradient id="f2572id1n" x1="21.056" x2="23.695" y1="9.384" y2="9.224" gradientUnits="userSpaceOnUse"><stop offset=".278" stop-color="#4E332F"/><stop offset="1" stop-color="#4E332F" stop-opacity="0"/></linearGradient><linearGradient id="f2572id1o" x1="28.528" x2="29.201" y1="11.646" y2="8.931" gradientUnits="userSpaceOnUse"><stop stop-color="#341B23"/><stop offset="1" stop-color="#341B23" stop-opacity="0"/></linearGradient><linearGradient id="f2572id1p" x1="29.809" x2="29.809" y1="11.805" y2="7.133" gradientUnits="userSpaceOnUse"><stop offset=".528" stop-color="#492F2C"/><stop offset="1" stop-color="#492F2C" stop-opacity="0"/></linearGradient><linearGradient id="f2572id1q" x1="29.845" x2="29.845" y1="11.805" y2="9.96" gradientUnits="userSpaceOnUse"><stop stop-color="#391F2F"/><stop offset=".721" stop-color="#391F2F" stop-opacity="0"/></linearGradient><linearGradient id="f2572id1r" x1="12.121" x2="16.327" y1="24.539" y2="29.824" gradientUnits="userSpaceOnUse"><stop stop-color="#7F5DBC"/><stop offset="1" stop-color="#926CDC"/></linearGradient><linearGradient id="f2572id1s" x1="11.59" x2="14.715" y1="24.414" y2="25.82" gradientUnits="userSpaceOnUse"><stop stop-color="#977EB0"/><stop offset="1" stop-color="#977EB0" stop-opacity="0"/></linearGradient><linearGradient id="f2572id1t" x1="15.733" x2="14.71" y1="25.022" y2="27.325" gradientUnits="userSpaceOnUse"><stop stop-color="#8B6BA9"/><stop offset=".16" stop-color="#8B6BA9" stop-opacity="0"/></linearGradient><linearGradient id="f2572id1u" x1="9.368" x2="17.555" y1="28.059" y2="31.153" gradientUnits="userSpaceOnUse"><stop stop-color="#7D5DBB"/><stop offset="1" stop-color="#8C6AD7"/></linearGradient><linearGradient id="f2572id1v" x1="15.09" x2="14.493" y1="26.414" y2="27.903" gradientUnits="userSpaceOnUse"><stop stop-color="#7D699C"/><stop offset="1" stop-color="#7E6A9F" stop-opacity="0"/></linearGradient><linearGradient id="f2572id1w" x1="27.581" x2="27.023" y1="7.113" y2="7.457" gradientUnits="userSpaceOnUse"><stop stop-color="#B4948D"/><stop offset="1" stop-color="#B4948D" stop-opacity="0"/></linearGradient><linearGradient id="f2572id1x" x1="26.543" x2="23.605" y1="3.555" y2="4.195" gradientUnits="userSpaceOnUse"><stop stop-color="#323232"/><stop offset="1" stop-color="#323232" stop-opacity="0"/></linearGradient><linearGradient id="f2572id1y" x1="14.537" x2="14.537" y1="18.567" y2="23.169" gradientUnits="userSpaceOnUse"><stop stop-color="#715B4E"/><stop offset="1" stop-color="#715B4E" stop-opacity="0"/></linearGradient></defs></g></svg>