<svg xmlns="http://www.w3.org/2000/svg" width="1em" height="1em" viewBox="0 0 32 32"><g fill="none"><g filter="url(#f2898idw)"><path fill="url(#f2898id1g)" fill-rule="evenodd" d="M29.396 20.528a6.045 6.045 0 0 0 .604-2.66c0-.871-.18-1.689-.5-2.434h.01a5.936 5.936 0 0 0-.525-.957l-.004-.005A6.04 6.04 0 0 1 28 11.17v-.02A6.152 6.152 0 0 0 21.85 5c-.34 0-.661-.15-.85-.434A6.163 6.163 0 0 0 16 2a6.163 6.163 0 0 0-5 2.566c-.189.264-.51.434-.85.434c-.052 0-.105 0-.158.002A6.152 6.152 0 0 0 4 11.151v.019c0 1.17-.34 2.32-.981 3.302l-.005.007A6.151 6.151 0 0 0 2 17.868c0 .962.226 1.849.604 2.66a.96.96 0 0 1 0 .85A6.085 6.085 0 0 0 2 24c0 3.32 2.68 6 6 6h16c3.32 0 6-2.68 6-6a6.08 6.08 0 0 0-.604-2.623a.96.96 0 0 1 0-.849" clip-rule="evenodd"/><path fill="url(#f2898id0)" fill-rule="evenodd" d="M29.396 20.528a6.045 6.045 0 0 0 .604-2.66c0-.871-.18-1.689-.5-2.434h.01a5.936 5.936 0 0 0-.525-.957l-.004-.005A6.04 6.04 0 0 1 28 11.17v-.02A6.152 6.152 0 0 0 21.85 5c-.34 0-.661-.15-.85-.434A6.163 6.163 0 0 0 16 2a6.163 6.163 0 0 0-5 2.566c-.189.264-.51.434-.85.434c-.052 0-.105 0-.158.002A6.152 6.152 0 0 0 4 11.151v.019c0 1.17-.34 2.32-.981 3.302l-.005.007A6.151 6.151 0 0 0 2 17.868c0 .962.226 1.849.604 2.66a.96.96 0 0 1 0 .85A6.085 6.085 0 0 0 2 24c0 3.32 2.68 6 6 6h16c3.32 0 6-2.68 6-6a6.08 6.08 0 0 0-.604-2.623a.96.96 0 0 1 0-.849" clip-rule="evenodd"/><path fill="url(#f2898id1)" fill-rule="evenodd" d="M29.396 20.528a6.045 6.045 0 0 0 .604-2.66c0-.871-.18-1.689-.5-2.434h.01a5.936 5.936 0 0 0-.525-.957l-.004-.005A6.04 6.04 0 0 1 28 11.17v-.02A6.152 6.152 0 0 0 21.85 5c-.34 0-.661-.15-.85-.434A6.163 6.163 0 0 0 16 2a6.163 6.163 0 0 0-5 2.566c-.189.264-.51.434-.85.434c-.052 0-.105 0-.158.002A6.152 6.152 0 0 0 4 11.151v.019c0 1.17-.34 2.32-.981 3.302l-.005.007A6.151 6.151 0 0 0 2 17.868c0 .962.226 1.849.604 2.66a.96.96 0 0 1 0 .85A6.085 6.085 0 0 0 2 24c0 3.32 2.68 6 6 6h16c3.32 0 6-2.68 6-6a6.08 6.08 0 0 0-.604-2.623a.96.96 0 0 1 0-.849" clip-rule="evenodd"/><path fill="url(#f2898id2)" fill-rule="evenodd" d="M29.396 20.528a6.045 6.045 0 0 0 .604-2.66c0-.871-.18-1.689-.5-2.434h.01a5.936 5.936 0 0 0-.525-.957l-.004-.005A6.04 6.04 0 0 1 28 11.17v-.02A6.152 6.152 0 0 0 21.85 5c-.34 0-.661-.15-.85-.434A6.163 6.163 0 0 0 16 2a6.163 6.163 0 0 0-5 2.566c-.189.264-.51.434-.85.434c-.052 0-.105 0-.158.002A6.152 6.152 0 0 0 4 11.151v.019c0 1.17-.34 2.32-.981 3.302l-.005.007A6.151 6.151 0 0 0 2 17.868c0 .962.226 1.849.604 2.66a.96.96 0 0 1 0 .85A6.085 6.085 0 0 0 2 24c0 3.32 2.68 6 6 6h16c3.32 0 6-2.68 6-6a6.08 6.08 0 0 0-.604-2.623a.96.96 0 0 1 0-.849" clip-rule="evenodd"/><path fill="url(#f2898id3)" fill-rule="evenodd" d="M29.396 20.528a6.045 6.045 0 0 0 .604-2.66c0-.871-.18-1.689-.5-2.434h.01a5.936 5.936 0 0 0-.525-.957l-.004-.005A6.04 6.04 0 0 1 28 11.17v-.02A6.152 6.152 0 0 0 21.85 5c-.34 0-.661-.15-.85-.434A6.163 6.163 0 0 0 16 2a6.163 6.163 0 0 0-5 2.566c-.189.264-.51.434-.85.434c-.052 0-.105 0-.158.002A6.152 6.152 0 0 0 4 11.151v.019c0 1.17-.34 2.32-.981 3.302l-.005.007A6.151 6.151 0 0 0 2 17.868c0 .962.226 1.849.604 2.66a.96.96 0 0 1 0 .85A6.085 6.085 0 0 0 2 24c0 3.32 2.68 6 6 6h16c3.32 0 6-2.68 6-6a6.08 6.08 0 0 0-.604-2.623a.96.96 0 0 1 0-.849" clip-rule="evenodd"/><path fill="url(#f2898id4)" fill-rule="evenodd" d="M29.396 20.528a6.045 6.045 0 0 0 .604-2.66c0-.871-.18-1.689-.5-2.434h.01a5.936 5.936 0 0 0-.525-.957l-.004-.005A6.04 6.04 0 0 1 28 11.17v-.02A6.152 6.152 0 0 0 21.85 5c-.34 0-.661-.15-.85-.434A6.163 6.163 0 0 0 16 2a6.163 6.163 0 0 0-5 2.566c-.189.264-.51.434-.85.434c-.052 0-.105 0-.158.002A6.152 6.152 0 0 0 4 11.151v.019c0 1.17-.34 2.32-.981 3.302l-.005.007A6.151 6.151 0 0 0 2 17.868c0 .962.226 1.849.604 2.66a.96.96 0 0 1 0 .85A6.085 6.085 0 0 0 2 24c0 3.32 2.68 6 6 6h16c3.32 0 6-2.68 6-6a6.08 6.08 0 0 0-.604-2.623a.96.96 0 0 1 0-.849" clip-rule="evenodd"/><path fill="url(#f2898id5)" fill-rule="evenodd" d="M29.396 20.528a6.045 6.045 0 0 0 .604-2.66c0-.871-.18-1.689-.5-2.434h.01a5.936 5.936 0 0 0-.525-.957l-.004-.005A6.04 6.04 0 0 1 28 11.17v-.02A6.152 6.152 0 0 0 21.85 5c-.34 0-.661-.15-.85-.434A6.163 6.163 0 0 0 16 2a6.163 6.163 0 0 0-5 2.566c-.189.264-.51.434-.85.434c-.052 0-.105 0-.158.002A6.152 6.152 0 0 0 4 11.151v.019c0 1.17-.34 2.32-.981 3.302l-.005.007A6.151 6.151 0 0 0 2 17.868c0 .962.226 1.849.604 2.66a.96.96 0 0 1 0 .85A6.085 6.085 0 0 0 2 24c0 3.32 2.68 6 6 6h16c3.32 0 6-2.68 6-6a6.08 6.08 0 0 0-.604-2.623a.96.96 0 0 1 0-.849" clip-rule="evenodd"/><path fill="url(#f2898id6)" fill-rule="evenodd" d="M29.396 20.528a6.045 6.045 0 0 0 .604-2.66c0-.871-.18-1.689-.5-2.434h.01a5.936 5.936 0 0 0-.525-.957l-.004-.005A6.04 6.04 0 0 1 28 11.17v-.02A6.152 6.152 0 0 0 21.85 5c-.34 0-.661-.15-.85-.434A6.163 6.163 0 0 0 16 2a6.163 6.163 0 0 0-5 2.566c-.189.264-.51.434-.85.434c-.052 0-.105 0-.158.002A6.152 6.152 0 0 0 4 11.151v.019c0 1.17-.34 2.32-.981 3.302l-.005.007A6.151 6.151 0 0 0 2 17.868c0 .962.226 1.849.604 2.66a.96.96 0 0 1 0 .85A6.085 6.085 0 0 0 2 24c0 3.32 2.68 6 6 6h16c3.32 0 6-2.68 6-6a6.08 6.08 0 0 0-.604-2.623a.96.96 0 0 1 0-.849" clip-rule="evenodd"/><path fill="url(#f2898id7)" fill-rule="evenodd" d="M29.396 20.528a6.045 6.045 0 0 0 .604-2.66c0-.871-.18-1.689-.5-2.434h.01a5.936 5.936 0 0 0-.525-.957l-.004-.005A6.04 6.04 0 0 1 28 11.17v-.02A6.152 6.152 0 0 0 21.85 5c-.34 0-.661-.15-.85-.434A6.163 6.163 0 0 0 16 2a6.163 6.163 0 0 0-5 2.566c-.189.264-.51.434-.85.434c-.052 0-.105 0-.158.002A6.152 6.152 0 0 0 4 11.151v.019c0 1.17-.34 2.32-.981 3.302l-.005.007A6.151 6.151 0 0 0 2 17.868c0 .962.226 1.849.604 2.66a.96.96 0 0 1 0 .85A6.085 6.085 0 0 0 2 24c0 3.32 2.68 6 6 6h16c3.32 0 6-2.68 6-6a6.08 6.08 0 0 0-.604-2.623a.96.96 0 0 1 0-.849" clip-rule="evenodd"/><path fill="url(#f2898id8)" fill-rule="evenodd" d="M29.396 20.528a6.045 6.045 0 0 0 .604-2.66c0-.871-.18-1.689-.5-2.434h.01a5.936 5.936 0 0 0-.525-.957l-.004-.005A6.04 6.04 0 0 1 28 11.17v-.02A6.152 6.152 0 0 0 21.85 5c-.34 0-.661-.15-.85-.434A6.163 6.163 0 0 0 16 2a6.163 6.163 0 0 0-5 2.566c-.189.264-.51.434-.85.434c-.052 0-.105 0-.158.002A6.152 6.152 0 0 0 4 11.151v.019c0 1.17-.34 2.32-.981 3.302l-.005.007A6.151 6.151 0 0 0 2 17.868c0 .962.226 1.849.604 2.66a.96.96 0 0 1 0 .85A6.085 6.085 0 0 0 2 24c0 3.32 2.68 6 6 6h16c3.32 0 6-2.68 6-6a6.08 6.08 0 0 0-.604-2.623a.96.96 0 0 1 0-.849" clip-rule="evenodd"/></g><g filter="url(#f2898idx)"><path fill="url(#f2898id1h)" d="M7.264 20.9a3 3 0 1 0 0-6a3 3 0 0 0 0 6"/></g><g filter="url(#f2898idy)"><path fill="url(#f2898id9)" d="M25 20.9a3 3 0 1 0 0-6a3 3 0 0 0 0 6"/></g><g filter="url(#f2898idz)"><path fill="#FFCA38" d="M25 19.903a2.003 2.003 0 1 0 0-4.006a2.003 2.003 0 0 0 0 4.006"/><path fill="url(#f2898ida)" d="M25 19.903a2.003 2.003 0 1 0 0-4.006a2.003 2.003 0 0 0 0 4.006"/></g><g filter="url(#f2898id10)"><path fill="#E28527" d="M7.3 19.903a2.003 2.003 0 1 0 0-4.006a2.003 2.003 0 0 0 0 4.006"/><path fill="url(#f2898idb)" d="M7.3 19.903a2.003 2.003 0 1 0 0-4.006a2.003 2.003 0 0 0 0 4.006"/></g><g filter="url(#f2898id11)"><path fill="url(#f2898idc)" d="M6.515 15.546h.023l-.019-.495l-.019-.57c.038-1.77 1.07-2.454 1.51-2.683c.03-.01.063-.023.096-.038a1.58 1.58 0 0 1 .096-.038a4.296 4.296 0 0 0 2.217-2.301l.153-.362a.492.492 0 0 1 .86-.095a7.201 7.201 0 0 0 5.947 3.12h6.003c.336 0 2.018.163 2.118 2.484l-.221 5.729c-.23 5.225-4.31 8.733-9.291 8.733c-4.98 0-9.061-3.508-9.291-8.733z"/><path fill="url(#f2898idd)" d="M6.515 15.546h.023l-.019-.495l-.019-.57c.038-1.77 1.07-2.454 1.51-2.683c.03-.01.063-.023.096-.038a1.58 1.58 0 0 1 .096-.038a4.296 4.296 0 0 0 2.217-2.301l.153-.362a.492.492 0 0 1 .86-.095a7.201 7.201 0 0 0 5.947 3.12h6.003c.336 0 2.018.163 2.118 2.484l-.221 5.729c-.23 5.225-4.31 8.733-9.291 8.733c-4.98 0-9.061-3.508-9.291-8.733z"/><path fill="url(#f2898ide)" d="M6.515 15.546h.023l-.019-.495l-.019-.57c.038-1.77 1.07-2.454 1.51-2.683c.03-.01.063-.023.096-.038a1.58 1.58 0 0 1 .096-.038a4.296 4.296 0 0 0 2.217-2.301l.153-.362a.492.492 0 0 1 .86-.095a7.201 7.201 0 0 0 5.947 3.12h6.003c.336 0 2.018.163 2.118 2.484l-.221 5.729c-.23 5.225-4.31 8.733-9.291 8.733c-4.98 0-9.061-3.508-9.291-8.733z"/><path fill="url(#f2898idf)" d="M6.515 15.546h.023l-.019-.495l-.019-.57c.038-1.77 1.07-2.454 1.51-2.683c.03-.01.063-.023.096-.038a1.58 1.58 0 0 1 .096-.038a4.296 4.296 0 0 0 2.217-2.301l.153-.362a.492.492 0 0 1 .86-.095a7.201 7.201 0 0 0 5.947 3.12h6.003c.336 0 2.018.163 2.118 2.484l-.221 5.729c-.23 5.225-4.31 8.733-9.291 8.733c-4.98 0-9.061-3.508-9.291-8.733z"/><path fill="url(#f2898idg)" d="M6.515 15.546h.023l-.019-.495l-.019-.57c.038-1.77 1.07-2.454 1.51-2.683c.03-.01.063-.023.096-.038a1.58 1.58 0 0 1 .096-.038a4.296 4.296 0 0 0 2.217-2.301l.153-.362a.492.492 0 0 1 .86-.095a7.201 7.201 0 0 0 5.947 3.12h6.003c.336 0 2.018.163 2.118 2.484l-.221 5.729c-.23 5.225-4.31 8.733-9.291 8.733c-4.98 0-9.061-3.508-9.291-8.733z"/><path fill="url(#f2898idh)" d="M6.515 15.546h.023l-.019-.495l-.019-.57c.038-1.77 1.07-2.454 1.51-2.683c.03-.01.063-.023.096-.038a1.58 1.58 0 0 1 .096-.038a4.296 4.296 0 0 0 2.217-2.301l.153-.362a.492.492 0 0 1 .86-.095a7.201 7.201 0 0 0 5.947 3.12h6.003c.336 0 2.018.163 2.118 2.484l-.221 5.729c-.23 5.225-4.31 8.733-9.291 8.733c-4.98 0-9.061-3.508-9.291-8.733z"/><path fill="url(#f2898idi)" d="M6.515 15.546h.023l-.019-.495l-.019-.57c.038-1.77 1.07-2.454 1.51-2.683c.03-.01.063-.023.096-.038a1.58 1.58 0 0 1 .096-.038a4.296 4.296 0 0 0 2.217-2.301l.153-.362a.492.492 0 0 1 .86-.095a7.201 7.201 0 0 0 5.947 3.12h6.003c.336 0 2.018.163 2.118 2.484l-.221 5.729c-.23 5.225-4.31 8.733-9.291 8.733c-4.98 0-9.061-3.508-9.291-8.733z"/></g><path fill="url(#f2898idj)" d="M6.515 15.546h.023l-.019-.495l-.019-.57c.038-1.77 1.07-2.454 1.51-2.683c.03-.01.063-.023.096-.038a1.58 1.58 0 0 1 .096-.038a4.296 4.296 0 0 0 2.217-2.301l.153-.362a.492.492 0 0 1 .86-.095a7.201 7.201 0 0 0 5.947 3.12h6.003c.336 0 2.018.163 2.118 2.484l-.221 5.729c-.23 5.225-4.31 8.733-9.291 8.733c-4.98 0-9.061-3.508-9.291-8.733z"/><g filter="url(#f2898id12)"><path fill="#EB8B29" d="m15.268 17.485l-1.274 3.17a1.005 1.005 0 0 0 .97 1.303h1.466c.688 0 1.173-.662.971-1.304l-.99-3.17c-.213-.701-.92-.701-1.143 0"/></g><g filter="url(#f2898id13)"><path fill="url(#f2898id1i)" d="m15.287 17.227l-.99 3.169a1.005 1.005 0 0 0 .97 1.304h1.466c.688 0 1.173-.662.97-1.304l-.99-3.17c-.213-.702-1.203-.702-1.426 0"/><path fill="url(#f2898idk)" d="m15.287 17.227l-.99 3.169a1.005 1.005 0 0 0 .97 1.304h1.466c.688 0 1.173-.662.97-1.304l-.99-3.17c-.213-.702-1.203-.702-1.426 0"/><path fill="url(#f2898id1j)" d="m15.287 17.227l-.99 3.169a1.005 1.005 0 0 0 .97 1.304h1.466c.688 0 1.173-.662.97-1.304l-.99-3.17c-.213-.702-1.203-.702-1.426 0"/><path fill="url(#f2898id1k)" d="m15.287 17.227l-.99 3.169a1.005 1.005 0 0 0 .97 1.304h1.466c.688 0 1.173-.662.97-1.304l-.99-3.17c-.213-.702-1.203-.702-1.426 0"/></g><path fill="url(#f2898id1l)" d="m15.287 17.227l-.99 3.169a1.005 1.005 0 0 0 .97 1.304h1.466c.688 0 1.173-.662.97-1.304l-.99-3.17c-.213-.702-1.203-.702-1.426 0"/><path fill="url(#f2898idl)" d="m15.287 17.227l-.99 3.169a1.005 1.005 0 0 0 .97 1.304h1.466c.688 0 1.173-.662.97-1.304l-.99-3.17c-.213-.702-1.203-.702-1.426 0"/><path fill="#8A004F" stroke="url(#f2898id1m)" stroke-width=".1" d="M13.373 22.642a.338.338 0 0 0-.41.072a.323.323 0 0 0-.034.408A3.652 3.652 0 0 0 16 24.8c1.29 0 2.422-.672 3.071-1.678a.327.327 0 0 0-.035-.412a.339.339 0 0 0-.409-.069a5.566 5.566 0 0 1-2.627.637a5.594 5.594 0 0 1-2.627-.636Z"/><g filter="url(#f2898id14)"><path fill="#635D5F" d="M18.13 16.839c.494-.87 1.246-1.558 2.866-1.558c.709 0 1.392.197 2 .688c.501.405.434.923.046 1.117l-1.037.592c-1.215-.393-2.56-.446-3.876-.839"/></g><g filter="url(#f2898id15)"><path fill="#635D5F" d="M13.871 16.839c-.495-.87-1.247-1.558-2.866-1.558c-.71 0-1.393.197-2 .688c-.502.405-.434.923-.046 1.117l1.036.592c1.216-.393 2.56-.446 3.876-.839"/></g><g filter="url(#f2898id16)"><path fill="#DFCBC9" d="m9.665 14.585l-.008.005a.5.5 0 0 1-.514-.858h.001l.002-.002l.006-.003l.017-.01a3.259 3.259 0 0 1 .277-.143c.184-.088.445-.2.765-.302c.633-.202 1.52-.372 2.476-.203a.5.5 0 1 1-.174.985c-.743-.132-1.457-.002-1.998.171a5.093 5.093 0 0 0-.85.36"/></g><g filter="url(#f2898id17)"><path fill="#DFCBC9" fill-rule="evenodd" d="m22.957 13.732l-.257.43za.5.5 0 0 1-.514.858l-.008-.005a3.642 3.642 0 0 0-.21-.109a5.08 5.08 0 0 0-.64-.25c-.54-.174-1.255-.304-1.998-.172a.5.5 0 1 1-.174-.985c.957-.169 1.843.001 2.477.203a6.112 6.112 0 0 1 .98.412l.061.033l.017.01l.006.003l.002.002z" clip-rule="evenodd"/></g><path fill="#fff" d="M20.458 15.39c1.217 0 2.246.84 2.526 1.975a.511.511 0 0 1-.5.635h-4.159a.43.43 0 0 1-.424-.507a2.606 2.606 0 0 1 2.557-2.102"/><path fill="url(#f2898idm)" d="M20.072 15.898A1.664 1.664 0 0 1 21.675 18h-3.214a1.706 1.706 0 0 1-.06-.439a1.67 1.67 0 0 1 1.671-1.663"/><path fill="#000" d="M19.119 17.561c0-.53.424-.953.953-.953c.53 0 .953.424.953.953a.94.94 0 0 1-.106.439h-1.686a.861.861 0 0 1-.114-.439"/><g filter="url(#f2898id18)"><path fill="#C7A7A3" d="M19.95 16.25c.118.158-.13.351-.411.562c-.282.21-.491.359-.61.2c-.118-.159.014-.458.296-.668c.282-.211.606-.253.725-.095"/><path fill="url(#f2898idn)" d="M19.95 16.25c.118.158-.13.351-.411.562c-.282.21-.491.359-.61.2c-.118-.159.014-.458.296-.668c.282-.211.606-.253.725-.095"/></g><g filter="url(#f2898id19)"><path fill="url(#f2898id1n)" d="M21.554 17.342a1.567 1.567 0 0 0-.431-.862l-.485.531l.219.426z"/></g><path fill="#fff" d="M11.542 15.39c-1.217 0-2.246.84-2.526 1.975a.511.511 0 0 0 .5.635h4.159a.43.43 0 0 0 .424-.507a2.612 2.612 0 0 0-2.557-2.102"/><path fill="url(#f2898ido)" d="M11.928 15.898A1.664 1.664 0 0 0 10.324 18h3.215c.038-.144.06-.287.06-.439a1.675 1.675 0 0 0-1.671-1.663"/><path fill="#000" d="M12.88 17.561a.949.949 0 0 0-.952-.953a.949.949 0 0 0-.953.953c0 .16.038.31.106.439h1.687a.945.945 0 0 0 .113-.439"/><g filter="url(#f2898id1a)"><path fill="url(#f2898id1o)" d="M13.448 17.366c0-.538-.437-.896-.555-1.005l-.538.52l.33.674z"/></g><g filter="url(#f2898id1b)"><ellipse cx="11.426" cy="16.608" fill="#C7A7A3" fill-opacity=".9" rx=".726" ry=".368" transform="rotate(-27.914 11.426 16.608)"/><ellipse cx="11.426" cy="16.608" fill="url(#f2898idp)" rx=".726" ry=".368" transform="rotate(-27.914 11.426 16.608)"/></g><g filter="url(#f2898id1c)"><path stroke="url(#f2898id1p)" stroke-linecap="round" stroke-width=".4" d="M19.616 13.476c.602-.146 2.097-.073 3.096.642"/></g><g filter="url(#f2898id1d)"><path stroke="url(#f2898id1q)" stroke-linecap="round" stroke-width=".4" d="M12.548 13.476c-.601-.146-2.097-.073-3.096.642"/></g><g filter="url(#f2898id1e)"><path fill="url(#f2898idq)" d="M4.208 13.344a.33.33 0 0 1-.069.07zc.175-.231.409-.909.52-2.117c.158-1.72.758-4.016 2.747-5.063c1.927-1.172 2.606-.312 4.2-1.64c.431-.359 1.406-2.032 4.107-1.672c2.7.359 6.609 2.984 9.092 4.898c2.194 1.691 2.188 4.625.906 6.375c.027-.61-.354-2.313-2.296-2.313h-5.65c-2.467 0-4.747-.887-6.54-3.687c-.264.01-.821.127-1.213 1.102c-.49 1.218-2.132 2.375-3.743 2.875c-1.178.366-1.848.96-2.13 1.242"/><path fill="url(#f2898idr)" d="M4.208 13.344a.33.33 0 0 1-.069.07zc.175-.231.409-.909.52-2.117c.158-1.72.758-4.016 2.747-5.063c1.927-1.172 2.606-.312 4.2-1.64c.431-.359 1.406-2.032 4.107-1.672c2.7.359 6.609 2.984 9.092 4.898c2.194 1.691 2.188 4.625.906 6.375c.027-.61-.354-2.313-2.296-2.313h-5.65c-2.467 0-4.747-.887-6.54-3.687c-.264.01-.821.127-1.213 1.102c-.49 1.218-2.132 2.375-3.743 2.875c-1.178.366-1.848.96-2.13 1.242"/><path fill="url(#f2898ids)" d="M4.208 13.344a.33.33 0 0 1-.069.07zc.175-.231.409-.909.52-2.117c.158-1.72.758-4.016 2.747-5.063c1.927-1.172 2.606-.312 4.2-1.64c.431-.359 1.406-2.032 4.107-1.672c2.7.359 6.609 2.984 9.092 4.898c2.194 1.691 2.188 4.625.906 6.375c.027-.61-.354-2.313-2.296-2.313h-5.65c-2.467 0-4.747-.887-6.54-3.687c-.264.01-.821.127-1.213 1.102c-.49 1.218-2.132 2.375-3.743 2.875c-1.178.366-1.848.96-2.13 1.242"/><path fill="url(#f2898idt)" d="M4.208 13.344a.33.33 0 0 1-.069.07zc.175-.231.409-.909.52-2.117c.158-1.72.758-4.016 2.747-5.063c1.927-1.172 2.606-.312 4.2-1.64c.431-.359 1.406-2.032 4.107-1.672c2.7.359 6.609 2.984 9.092 4.898c2.194 1.691 2.188 4.625.906 6.375c.027-.61-.354-2.313-2.296-2.313h-5.65c-2.467 0-4.747-.887-6.54-3.687c-.264.01-.821.127-1.213 1.102c-.49 1.218-2.132 2.375-3.743 2.875c-1.178.366-1.848.96-2.13 1.242"/><path fill="url(#f2898idu)" d="M4.208 13.344a.33.33 0 0 1-.069.07zc.175-.231.409-.909.52-2.117c.158-1.72.758-4.016 2.747-5.063c1.927-1.172 2.606-.312 4.2-1.64c.431-.359 1.406-2.032 4.107-1.672c2.7.359 6.609 2.984 9.092 4.898c2.194 1.691 2.188 4.625.906 6.375c.027-.61-.354-2.313-2.296-2.313h-5.65c-2.467 0-4.747-.887-6.54-3.687c-.264.01-.821.127-1.213 1.102c-.49 1.218-2.132 2.375-3.743 2.875c-1.178.366-1.848.96-2.13 1.242"/><path fill="url(#f2898idv)" d="M4.208 13.344a.33.33 0 0 1-.069.07zc.175-.231.409-.909.52-2.117c.158-1.72.758-4.016 2.747-5.063c1.927-1.172 2.606-.312 4.2-1.64c.431-.359 1.406-2.032 4.107-1.672c2.7.359 6.609 2.984 9.092 4.898c2.194 1.691 2.188 4.625.906 6.375c.027-.61-.354-2.313-2.296-2.313h-5.65c-2.467 0-4.747-.887-6.54-3.687c-.264.01-.821.127-1.213 1.102c-.49 1.218-2.132 2.375-3.743 2.875c-1.178.366-1.848.96-2.13 1.242"/></g><g filter="url(#f2898id1f)"><path stroke="url(#f2898id1r)" stroke-linecap="round" stroke-width=".1" d="M10.79 5.406c-.01.625.12 1.932.47 3.157"/></g><defs><radialGradient id="f2898id0" cx="0" cy="0" r="1" gradientTransform="matrix(3.4375 -5.0625 11.54282 7.83772 22.688 30)" gradientUnits="userSpaceOnUse"><stop stop-color="#D1B4E2"/><stop offset="1" stop-color="#D1B4E2" stop-opacity="0"/></radialGradient><radialGradient id="f2898id1" cx="0" cy="0" r="1" gradientTransform="rotate(91.389 -2.965 17.792)scale(10.3155 9.93913)" gradientUnits="userSpaceOnUse"><stop offset=".761" stop-color="#BC94D2"/><stop offset="1" stop-color="#BC94D2" stop-opacity="0"/></radialGradient><radialGradient id="f2898id2" cx="0" cy="0" r="1" gradientTransform="rotate(143.392 1.675 13.174)scale(8.17498 9.57702)" gradientUnits="userSpaceOnUse"><stop offset=".035" stop-color="#BE9DB3"/><stop offset="1" stop-color="#BE9DB3" stop-opacity="0"/></radialGradient><radialGradient id="f2898id3" cx="0" cy="0" r="1" gradientTransform="matrix(-1.04688 1.2344 -1.73986 -1.47556 6.11 19.797)" gradientUnits="userSpaceOnUse"><stop stop-color="#BE9FB5"/><stop offset="1" stop-color="#BE9FB5" stop-opacity="0"/></radialGradient><radialGradient id="f2898id4" cx="0" cy="0" r="1" gradientTransform="matrix(-2.9375 -.18749 .2295 -3.59572 7.375 15.375)" gradientUnits="userSpaceOnUse"><stop stop-color="#C09EA4"/><stop offset="1" stop-color="#C09EA4" stop-opacity="0"/></radialGradient><radialGradient id="f2898id5" cx="0" cy="0" r="1" gradientTransform="matrix(3.37515 6.18753 -10.26426 5.5989 9.5 3.5)" gradientUnits="userSpaceOnUse"><stop offset=".132" stop-color="#B3AEAE"/><stop offset="1" stop-color="#B3AEAE" stop-opacity="0"/></radialGradient><radialGradient id="f2898id6" cx="0" cy="0" r="1" gradientTransform="matrix(-2.06248 2.25002 -3.14436 -2.88229 26.25 7.188)" gradientUnits="userSpaceOnUse"><stop stop-color="#F0EEF0"/><stop offset="1" stop-color="#F0EEF0" stop-opacity="0"/></radialGradient><radialGradient id="f2898id7" cx="0" cy="0" r="1" gradientTransform="matrix(-3.43734 1 -2.17588 -7.4792 30 16.313)" gradientUnits="userSpaceOnUse"><stop stop-color="#F0EBF1"/><stop offset="1" stop-color="#F0EBF1" stop-opacity="0"/></radialGradient><radialGradient id="f2898id8" cx="0" cy="0" r="1" gradientTransform="rotate(160.182 13.403 13.42)scale(7.37407 11.7491)" gradientUnits="userSpaceOnUse"><stop stop-color="#F3EBF6"/><stop offset="1" stop-color="#F3EBF6" stop-opacity="0"/></radialGradient><radialGradient id="f2898id9" cx="0" cy="0" r="1" gradientTransform="rotate(-24.444 54.974 -44.958)scale(5.09754 6.22385)" gradientUnits="userSpaceOnUse"><stop offset=".572" stop-color="#FFC531"/><stop offset=".905" stop-color="#FFE549"/></radialGradient><radialGradient id="f2898ida" cx="0" cy="0" r="1" gradientTransform="rotate(-20.298 63.52 -59.437)scale(2.43229)" gradientUnits="userSpaceOnUse"><stop offset=".71" stop-color="#FFBA25" stop-opacity="0"/><stop offset="1" stop-color="#FFBA25"/></radialGradient><radialGradient id="f2898idb" cx="0" cy="0" r="1" gradientTransform="matrix(-2.00258 0 0 -1.9156 7.3 17.9)" gradientUnits="userSpaceOnUse"><stop offset=".415" stop-color="#D67923" stop-opacity="0"/><stop offset="1" stop-color="#D67923"/></radialGradient><radialGradient id="f2898idc" cx="0" cy="0" r="1" gradientTransform="matrix(-12.1254 5.59142 -7.48399 -16.22955 21.33 16.898)" gradientUnits="userSpaceOnUse"><stop stop-color="#FFE644"/><stop offset="1" stop-color="#EB9235"/></radialGradient><radialGradient id="f2898idd" cx="0" cy="0" r="1" gradientTransform="matrix(-3.93342 2.08053 -1.76518 -3.33722 19.543 18.198)" gradientUnits="userSpaceOnUse"><stop stop-color="#FFE842"/><stop offset="1" stop-color="#FFE842" stop-opacity="0"/></radialGradient><radialGradient id="f2898ide" cx="0" cy="0" r="1" gradientTransform="matrix(1.56038 -7.5418 9.56914 1.97983 11.936 29.543)" gradientUnits="userSpaceOnUse"><stop stop-color="#E4883F"/><stop offset="1" stop-color="#E4883F" stop-opacity="0"/></radialGradient><radialGradient id="f2898idf" cx="0" cy="0" r="1" gradientTransform="matrix(-1.6285 12.3161 -14.25988 -1.88553 17.007 17.19)" gradientUnits="userSpaceOnUse"><stop offset=".706" stop-color="#D6775D" stop-opacity="0"/><stop offset="1" stop-color="#D6775D"/></radialGradient><radialGradient id="f2898idg" cx="0" cy="0" r="1" gradientTransform="rotate(164.542 7.229 11.158)scale(10.4893 18.0594)" gradientUnits="userSpaceOnUse"><stop offset=".877" stop-color="#D4993E" stop-opacity="0"/><stop offset="1" stop-color="#D4993E"/></radialGradient><radialGradient id="f2898idh" cx="0" cy="0" r="1" gradientTransform="matrix(0 -2.14551 2.83442 0 20.29 16.118)" gradientUnits="userSpaceOnUse"><stop offset=".259" stop-color="#FFBB31"/><stop offset="1" stop-color="#FFBB31" stop-opacity="0"/></radialGradient><radialGradient id="f2898idi" cx="0" cy="0" r="1" gradientTransform="matrix(0 -2.5356 2.90597 0 12.424 16.28)" gradientUnits="userSpaceOnUse"><stop stop-color="#F09429"/><stop offset="1" stop-color="#F09429" stop-opacity="0"/></radialGradient><radialGradient id="f2898idj" cx="0" cy="0" r="1" gradientTransform="matrix(-2.51128 0 0 -8.26719 25.5 18.891)" gradientUnits="userSpaceOnUse"><stop stop-color="#FFDA39"/><stop offset="1" stop-color="#FFDA39" stop-opacity="0"/></radialGradient><radialGradient id="f2898idk" cx="0" cy="0" r="1" gradientTransform="rotate(-105.892 16.374 3.53)scale(4.74883 2.71734)" gradientUnits="userSpaceOnUse"><stop offset=".017" stop-color="#FFE848"/><stop offset="1" stop-color="#FFE848" stop-opacity="0"/></radialGradient><radialGradient id="f2898idl" cx="0" cy="0" r="1" gradientTransform="rotate(144.462 5.13 12.44)scale(2.93624 3.93288)" gradientUnits="userSpaceOnUse"><stop offset=".797" stop-color="#E2802F" stop-opacity="0"/><stop offset="1" stop-color="#E2802F"/></radialGradient><radialGradient id="f2898idm" cx="0" cy="0" r="1" gradientTransform="matrix(0 1.51263 -2.406 0 20.068 16.787)" gradientUnits="userSpaceOnUse"><stop offset=".802" stop-color="#925C51"/><stop offset="1" stop-color="#694B43"/><stop offset="1" stop-color="#804D49"/><stop offset="1" stop-color="#85534D"/></radialGradient><radialGradient id="f2898idn" cx="0" cy="0" r="1" gradientTransform="matrix(-.43239 -.5572 .76712 -.5953 19.643 16.944)" gradientUnits="userSpaceOnUse"><stop offset=".766" stop-color="#FFE6E2" stop-opacity="0"/><stop offset=".966" stop-color="#FFE6E2"/></radialGradient><radialGradient id="f2898ido" cx="0" cy="0" r="1" gradientTransform="matrix(0 1.51264 -2.40602 0 11.932 16.787)" gradientUnits="userSpaceOnUse"><stop offset=".802" stop-color="#925C51"/><stop offset="1" stop-color="#694B43"/><stop offset="1" stop-color="#804D49"/><stop offset="1" stop-color="#85534D"/></radialGradient><radialGradient id="f2898idp" cx="0" cy="0" r="1" gradientTransform="rotate(-90.897 14.163 2.987)scale(.92124 1.10737)" gradientUnits="userSpaceOnUse"><stop offset=".766" stop-color="#FFE6E2" stop-opacity="0"/><stop offset=".966" stop-color="#FFE6E2"/></radialGradient><radialGradient id="f2898idq" cx="0" cy="0" r="1" gradientTransform="matrix(12.71085 -4.56251 6.67385 18.5929 13.79 14.187)" gradientUnits="userSpaceOnUse"><stop offset=".862" stop-color="#D6D4D5" stop-opacity="0"/><stop offset="1" stop-color="#D6D4D5"/></radialGradient><radialGradient id="f2898idr" cx="0" cy="0" r="1" gradientTransform="rotate(106.6 9.5 12.234)scale(5.67398 14.16)" gradientUnits="userSpaceOnUse"><stop stop-color="#F7F3F6"/><stop offset="1" stop-color="#F7F3F6" stop-opacity="0"/></radialGradient><radialGradient id="f2898ids" cx="0" cy="0" r="1" gradientTransform="matrix(-3.18752 4.68748 -4.73732 -3.22141 8.813 7.812)" gradientUnits="userSpaceOnUse"><stop stop-color="#DDCFD8"/><stop offset="1" stop-color="#DDCFD8" stop-opacity="0"/></radialGradient><radialGradient id="f2898idt" cx="0" cy="0" r="1" gradientTransform="rotate(-159.55 13.848 4.504)scale(7.87103 4.0049)" gradientUnits="userSpaceOnUse"><stop offset=".39" stop-color="#E1CEDA"/><stop offset="1" stop-color="#E1CEDA" stop-opacity="0"/></radialGradient><radialGradient id="f2898idu" cx="0" cy="0" r="1" gradientTransform="matrix(1.1663 -4.375 8.83665 2.35571 15.396 11.562)" gradientUnits="userSpaceOnUse"><stop stop-color="#D7C1D4"/><stop offset="1" stop-color="#D7C1D4" stop-opacity="0"/></radialGradient><radialGradient id="f2898idv" cx="0" cy="0" r="1" gradientTransform="matrix(-1.34376 1.46322 -.86926 -.7983 9.531 7)" gradientUnits="userSpaceOnUse"><stop offset=".3" stop-color="#DFD3DA"/><stop offset="1" stop-color="#DFD3DA" stop-opacity="0"/></radialGradient><filter id="f2898idw" width="28.25" height="28.75" x="2" y="1.25" color-interpolation-filters="sRGB" filterUnits="userSpaceOnUse"><feFlood flood-opacity="0" result="BackgroundImageFix"/><feBlend in="SourceGraphic" in2="BackgroundImageFix" result="shape"/><feColorMatrix in="SourceAlpha" result="hardAlpha" values="0 0 0 0 0 0 0 0 0 0 0 0 0 0 0 0 0 0 127 0"/><feOffset dx=".25" dy="-.75"/><feGaussianBlur stdDeviation=".75"/><feComposite in2="hardAlpha" k2="-1" k3="1" operator="arithmetic"/><feColorMatrix values="0 0 0 0 0.662745 0 0 0 0 0.537255 0 0 0 0 0.756863 0 0 0 1 0"/><feBlend in2="shape" result="effect1_innerShadow_3987_19518"/></filter><filter id="f2898idx" width="6.15" height="6.25" x="4.264" y="14.9" color-interpolation-filters="sRGB" filterUnits="userSpaceOnUse"><feFlood flood-opacity="0" result="BackgroundImageFix"/><feBlend in="SourceGraphic" in2="BackgroundImageFix" result="shape"/><feColorMatrix in="SourceAlpha" result="hardAlpha" values="0 0 0 0 0 0 0 0 0 0 0 0 0 0 0 0 0 0 127 0"/><feOffset dx=".15" dy=".25"/><feGaussianBlur stdDeviation=".25"/><feComposite in2="hardAlpha" k2="-1" k3="1" operator="arithmetic"/><feColorMatrix values="0 0 0 0 0.835294 0 0 0 0 0.627451 0 0 0 0 0.305882 0 0 0 1 0"/><feBlend in2="shape" result="effect1_innerShadow_3987_19518"/></filter><filter id="f2898idy" width="6" height="6.25" x="22" y="14.65" color-interpolation-filters="sRGB" filterUnits="userSpaceOnUse"><feFlood flood-opacity="0" result="BackgroundImageFix"/><feBlend in="SourceGraphic" in2="BackgroundImageFix" result="shape"/><feColorMatrix in="SourceAlpha" result="hardAlpha" values="0 0 0 0 0 0 0 0 0 0 0 0 0 0 0 0 0 0 127 0"/><feOffset dy="-.25"/><feGaussianBlur stdDeviation=".25"/><feComposite in2="hardAlpha" k2="-1" k3="1" operator="arithmetic"/><feColorMatrix values="0 0 0 0 0.937255 0 0 0 0 0.576471 0 0 0 0 0.341176 0 0 0 1 0"/><feBlend in2="shape" result="effect1_innerShadow_3987_19518"/></filter><filter id="f2898idz" width="5.005" height="5.005" x="22.497" y="15.398" color-interpolation-filters="sRGB" filterUnits="userSpaceOnUse"><feFlood flood-opacity="0" result="BackgroundImageFix"/><feBlend in="SourceGraphic" in2="BackgroundImageFix" result="shape"/><feGaussianBlur result="effect1_foregroundBlur_3987_19518" stdDeviation=".25"/></filter><filter id="f2898id10" width="4.505" height="4.505" x="5.047" y="15.648" color-interpolation-filters="sRGB" filterUnits="userSpaceOnUse"><feFlood flood-opacity="0" result="BackgroundImageFix"/><feBlend in="SourceGraphic" in2="BackgroundImageFix" result="shape"/><feGaussianBlur result="effect1_foregroundBlur_3987_19518" stdDeviation=".125"/></filter><filter id="f2898id11" width="19" height="20.679" x="6.5" y="8.752" color-interpolation-filters="sRGB" filterUnits="userSpaceOnUse"><feFlood flood-opacity="0" result="BackgroundImageFix"/><feBlend in="SourceGraphic" in2="BackgroundImageFix" result="shape"/><feColorMatrix in="SourceAlpha" result="hardAlpha" values="0 0 0 0 0 0 0 0 0 0 0 0 0 0 0 0 0 0 127 0"/><feOffset dy=".4"/><feGaussianBlur stdDeviation=".3"/><feComposite in2="hardAlpha" k2="-1" k3="1" operator="arithmetic"/><feColorMatrix values="0 0 0 0 0.901961 0 0 0 0 0.556863 0 0 0 0 0.160784 0 0 0 1 0"/><feBlend in2="shape" result="effect1_innerShadow_3987_19518"/></filter><filter id="f2898id12" width="4.5" height="6" x="13.447" y="16.458" color-interpolation-filters="sRGB" filterUnits="userSpaceOnUse"><feFlood flood-opacity="0" result="BackgroundImageFix"/><feBlend in="SourceGraphic" in2="BackgroundImageFix" result="shape"/><feGaussianBlur result="effect1_foregroundBlur_3987_19518" stdDeviation=".25"/></filter><filter id="f2898id13" width="4" height="5.5" x="14" y="16.45" color-interpolation-filters="sRGB" filterUnits="userSpaceOnUse"><feFlood flood-opacity="0" result="BackgroundImageFix"/><feBlend in="SourceGraphic" in2="BackgroundImageFix" result="shape"/><feGaussianBlur result="effect1_foregroundBlur_3987_19518" stdDeviation=".125"/></filter><filter id="f2898id14" width="5.423" height="2.397" x="17.929" y="15.281" color-interpolation-filters="sRGB" filterUnits="userSpaceOnUse"><feFlood flood-opacity="0" result="BackgroundImageFix"/><feBlend in="SourceGraphic" in2="BackgroundImageFix" result="shape"/><feColorMatrix in="SourceAlpha" result="hardAlpha" values="0 0 0 0 0 0 0 0 0 0 0 0 0 0 0 0 0 0 127 0"/><feOffset dx="-.2"/><feGaussianBlur stdDeviation=".2"/><feComposite in2="hardAlpha" k2="-1" k3="1" operator="arithmetic"/><feColorMatrix values="0 0 0 0 0.141176 0 0 0 0 0.0862745 0 0 0 0 0.176471 0 0 0 1 0"/><feBlend in2="shape" result="effect1_innerShadow_3987_19518"/></filter><filter id="f2898id15" width="5.423" height="2.397" x="8.648" y="15.281" color-interpolation-filters="sRGB" filterUnits="userSpaceOnUse"><feFlood flood-opacity="0" result="BackgroundImageFix"/><feBlend in="SourceGraphic" in2="BackgroundImageFix" result="shape"/><feColorMatrix in="SourceAlpha" result="hardAlpha" values="0 0 0 0 0 0 0 0 0 0 0 0 0 0 0 0 0 0 127 0"/><feOffset dx=".2"/><feGaussianBlur stdDeviation=".125"/><feComposite in2="hardAlpha" k2="-1" k3="1" operator="arithmetic"/><feColorMatrix values="0 0 0 0 0.133333 0 0 0 0 0.0784314 0 0 0 0 0.168627 0 0 0 1 0"/><feBlend in2="shape" result="effect1_innerShadow_3987_19518"/></filter><filter id="f2898id16" width="4.4" height="1.861" x="8.9" y="12.8" color-interpolation-filters="sRGB" filterUnits="userSpaceOnUse"><feFlood flood-opacity="0" result="BackgroundImageFix"/><feBlend in="SourceGraphic" in2="BackgroundImageFix" result="shape"/><feColorMatrix in="SourceAlpha" result="hardAlpha" values="0 0 0 0 0 0 0 0 0 0 0 0 0 0 0 0 0 0 127 0"/><feOffset dx=".2" dy="-.2"/><feGaussianBlur stdDeviation=".15"/><feComposite in2="hardAlpha" k2="-1" k3="1" operator="arithmetic"/><feColorMatrix values="0 0 0 0 0.788235 0 0 0 0 0.666667 0 0 0 0 0.627451 0 0 0 1 0"/><feBlend in2="shape" result="effect1_innerShadow_3987_19518"/></filter><filter id="f2898id17" width="4.4" height="1.861" x="19" y="12.8" color-interpolation-filters="sRGB" filterUnits="userSpaceOnUse"><feFlood flood-opacity="0" result="BackgroundImageFix"/><feBlend in="SourceGraphic" in2="BackgroundImageFix" result="shape"/><feColorMatrix in="SourceAlpha" result="hardAlpha" values="0 0 0 0 0 0 0 0 0 0 0 0 0 0 0 0 0 0 127 0"/><feOffset dx=".2" dy="-.2"/><feGaussianBlur stdDeviation=".15"/><feComposite in2="hardAlpha" k2="-1" k3="1" operator="arithmetic"/><feColorMatrix values="0 0 0 0 0.788235 0 0 0 0 0.666667 0 0 0 0 0.627451 0 0 0 1 0"/><feBlend in2="shape" result="effect1_innerShadow_3987_19518"/></filter><filter id="f2898id18" width="1.294" height="1.125" x="18.786" y="16.053" color-interpolation-filters="sRGB" filterUnits="userSpaceOnUse"><feFlood flood-opacity="0" result="BackgroundImageFix"/><feBlend in="SourceGraphic" in2="BackgroundImageFix" result="shape"/><feGaussianBlur result="effect1_foregroundBlur_3987_19518" stdDeviation=".05"/></filter><filter id="f2898id19" width="1.316" height="1.357" x="20.438" y="16.28" color-interpolation-filters="sRGB" filterUnits="userSpaceOnUse"><feFlood flood-opacity="0" result="BackgroundImageFix"/><feBlend in="SourceGraphic" in2="BackgroundImageFix" result="shape"/><feGaussianBlur result="effect1_foregroundBlur_3987_19518" stdDeviation=".1"/></filter><filter id="f2898id1a" width="1.493" height="1.594" x="12.155" y="16.161" color-interpolation-filters="sRGB" filterUnits="userSpaceOnUse"><feFlood flood-opacity="0" result="BackgroundImageFix"/><feBlend in="SourceGraphic" in2="BackgroundImageFix" result="shape"/><feGaussianBlur result="effect1_foregroundBlur_3987_19518" stdDeviation=".1"/></filter><filter id="f2898id1b" width="1.529" height="1.141" x="10.661" y="16.038" color-interpolation-filters="sRGB" filterUnits="userSpaceOnUse"><feFlood flood-opacity="0" result="BackgroundImageFix"/><feBlend in="SourceGraphic" in2="BackgroundImageFix" result="shape"/><feGaussianBlur result="effect1_foregroundBlur_3987_19518" stdDeviation=".05"/></filter><filter id="f2898id1c" width="4.296" height="1.904" x="19.016" y="12.814" color-interpolation-filters="sRGB" filterUnits="userSpaceOnUse"><feFlood flood-opacity="0" result="BackgroundImageFix"/><feBlend in="SourceGraphic" in2="BackgroundImageFix" result="shape"/><feGaussianBlur result="effect1_foregroundBlur_3987_19518" stdDeviation=".2"/></filter><filter id="f2898id1d" width="4.296" height="1.904" x="8.852" y="12.814" color-interpolation-filters="sRGB" filterUnits="userSpaceOnUse"><feFlood flood-opacity="0" result="BackgroundImageFix"/><feBlend in="SourceGraphic" in2="BackgroundImageFix" result="shape"/><feGaussianBlur result="effect1_foregroundBlur_3987_19518" stdDeviation=".2"/></filter><filter id="f2898id1e" width="23.514" height="12.324" x="3.639" y="2.301" color-interpolation-filters="sRGB" filterUnits="userSpaceOnUse"><feFlood flood-opacity="0" result="BackgroundImageFix"/><feBlend in="SourceGraphic" in2="BackgroundImageFix" result="shape"/><feColorMatrix in="SourceAlpha" result="hardAlpha" values="0 0 0 0 0 0 0 0 0 0 0 0 0 0 0 0 0 0 127 0"/><feOffset dx=".1" dy=".1"/><feComposite in2="hardAlpha" k2="-1" k3="1" operator="arithmetic"/><feColorMatrix values="0 0 0 0 0 0 0 0 0 0 0 0 0 0 0 0 0 0 0.25 0"/><feBlend in2="shape" result="effect1_innerShadow_3987_19518"/><feGaussianBlur result="effect2_foregroundBlur_3987_19518" stdDeviation=".25"/></filter><filter id="f2898id1f" width=".969" height="3.656" x="10.54" y="5.156" color-interpolation-filters="sRGB" filterUnits="userSpaceOnUse"><feFlood flood-opacity="0" result="BackgroundImageFix"/><feBlend in="SourceGraphic" in2="BackgroundImageFix" result="shape"/><feGaussianBlur result="effect1_foregroundBlur_3987_19518" stdDeviation=".1"/></filter><linearGradient id="f2898id1g" x1="27.188" x2="11.25" y1="6.875" y2="28.688" gradientUnits="userSpaceOnUse"><stop stop-color="#E4E2E4"/><stop offset="1" stop-color="#C5B1C7"/></linearGradient><linearGradient id="f2898id1h" x1="4.264" x2="9.781" y1="18.063" y2="18.063" gradientUnits="userSpaceOnUse"><stop stop-color="#E79B27"/><stop offset="1" stop-color="#B96201"/></linearGradient><linearGradient id="f2898id1i" x1="16" x2="16" y1="21.7" y2="16.7" gradientUnits="userSpaceOnUse"><stop stop-color="#FFC134"/><stop offset="1" stop-color="#F8C73F"/></linearGradient><linearGradient id="f2898id1j" x1="14.049" x2="15.642" y1="20.279" y2="20.474" gradientUnits="userSpaceOnUse"><stop stop-color="#F8A322"/><stop offset="1" stop-color="#F8A322" stop-opacity="0"/></linearGradient><linearGradient id="f2898id1k" x1="16" x2="16" y1="21.872" y2="20.734" gradientUnits="userSpaceOnUse"><stop stop-color="#E48538"/><stop offset="1" stop-color="#E48538" stop-opacity="0"/></linearGradient><linearGradient id="f2898id1l" x1="16.146" x2="16.146" y1="21.823" y2="21.563" gradientUnits="userSpaceOnUse"><stop stop-color="#E2802F"/><stop offset="1" stop-color="#E2802F" stop-opacity="0"/></linearGradient><linearGradient id="f2898id1m" x1="14.641" x2="15.485" y1="24.625" y2="23" gradientUnits="userSpaceOnUse"><stop stop-color="#FEAC35"/><stop offset="1" stop-color="#FEAC35" stop-opacity="0"/></linearGradient><linearGradient id="f2898id1n" x1="21.519" x2="20.934" y1="16.887" y2="17.248" gradientUnits="userSpaceOnUse"><stop stop-color="#B4948D"/><stop offset="1" stop-color="#B4948D" stop-opacity="0"/></linearGradient><linearGradient id="f2898id1o" x1="13.319" x2="12.733" y1="16.887" y2="17.248" gradientUnits="userSpaceOnUse"><stop stop-color="#B4948D"/><stop offset="1" stop-color="#B4948D" stop-opacity="0"/></linearGradient><linearGradient id="f2898id1p" x1="22.625" x2="19.616" y1="13.875" y2="13.875" gradientUnits="userSpaceOnUse"><stop stop-color="#E7DAD6"/><stop offset="1" stop-color="#E7DAD6" stop-opacity="0"/></linearGradient><linearGradient id="f2898id1q" x1="9.539" x2="12.548" y1="13.875" y2="13.875" gradientUnits="userSpaceOnUse"><stop stop-color="#E7DAD6"/><stop offset="1" stop-color="#E7DAD6" stop-opacity="0"/></linearGradient><linearGradient id="f2898id1r" x1="10.338" x2="10.947" y1="5.781" y2="8.484" gradientUnits="userSpaceOnUse"><stop stop-color="#BBB3B8"/><stop offset="1" stop-color="#D2B4C6"/></linearGradient></defs></g></svg>