<svg xmlns="http://www.w3.org/2000/svg" width="1em" height="1em" viewBox="0 0 32 32"><g fill="none"><g filter="url(#f2941idu)"><path fill="url(#f2941id0)" d="M7.457 11.257a5 5 0 0 1 6.632-1.75l2.88 1.565l-4.305 7.08l-1.415-3.54l-4.317 7.519a2.535 2.535 0 0 1-3.49.922l-.116-.069a2.535 2.535 0 0 1-.88-3.494l3.62-5.986l-.005-.004l.28-.451l.584-.964c.17-.283.338-.556.532-.828"/><path fill="url(#f2941idj)" d="M7.457 11.257a5 5 0 0 1 6.632-1.75l2.88 1.565l-4.305 7.08l-1.415-3.54l-4.317 7.519a2.535 2.535 0 0 1-3.49.922l-.116-.069a2.535 2.535 0 0 1-.88-3.494l3.62-5.986l-.005-.004l.28-.451l.584-.964c.17-.283.338-.556.532-.828"/><path fill="url(#f2941id1)" d="M7.457 11.257a5 5 0 0 1 6.632-1.75l2.88 1.565l-4.305 7.08l-1.415-3.54l-4.317 7.519a2.535 2.535 0 0 1-3.49.922l-.116-.069a2.535 2.535 0 0 1-.88-3.494l3.62-5.986l-.005-.004l.28-.451l.584-.964c.17-.283.338-.556.532-.828"/></g><path fill="url(#f2941id2)" d="m15.173 27.117l-.671-1.725l1.352-1.986h14.03v4.579a2 2 0 0 1-2 2h-8.517a4.5 4.5 0 0 1-4.194-2.869"/><path fill="url(#f2941id3)" d="m15.173 27.117l-.671-1.725l1.352-1.986h14.03v4.579a2 2 0 0 1-2 2h-8.517a4.5 4.5 0 0 1-4.194-2.869"/><path fill="url(#f2941idk)" d="m15.173 27.117l-.671-1.725l1.352-1.986h14.03v4.579a2 2 0 0 1-2 2h-8.517a4.5 4.5 0 0 1-4.194-2.869"/><rect width="4.832" height="6.985" x="9.933" y="22.892" fill="url(#f2941idl)" rx="2.416"/><rect width="4.832" height="6.985" x="9.933" y="22.892" fill="url(#f2941idm)" rx="2.416"/><rect width="4.832" height="6.985" x="9.933" y="22.892" fill="url(#f2941id4)" rx="2.416"/><path fill="url(#f2941idn)" d="M18.14 2.266a.5.5 0 0 1 .684-.184l2.963 1.71a.5.5 0 0 1 .184.681L8.43 28.12a.5.5 0 0 1-.211.199l-3.176 1.575c-.162.08-.298 0-.306-.18l-.226-3.541a.5.5 0 0 1 .065-.273z"/><path fill="url(#f2941ido)" d="M18.14 2.266a.5.5 0 0 1 .684-.184l2.963 1.71a.5.5 0 0 1 .184.681L8.43 28.12a.5.5 0 0 1-.211.199l-3.176 1.575c-.162.08-.298 0-.306-.18l-.226-3.541a.5.5 0 0 1 .065-.273z"/><g filter="url(#f2941idv)"><path stroke="url(#f2941id5)" stroke-linecap="round" d="M17.241 8.382L8.19 24.319"/></g><g filter="url(#f2941idw)"><path fill="url(#f2941id6)" d="M9.933 22.03c-1.251.875-1.653 2.634-.838 3.924c.836 1.321 2.674 1.709 4.005.89l3.53-2.174a.912.912 0 0 1 1.263.313a6.84 6.84 0 0 0 6.588 3.321l3.832-.394a1.75 1.75 0 0 0 1.57-1.741v-7.13a2.81 2.81 0 0 0-1.736-2.585c-2.227-.928-6.282-2.689-10.295-4.785l-4.741 8.28z"/><path fill="url(#f2941idp)" d="M9.933 22.03c-1.251.875-1.653 2.634-.838 3.924c.836 1.321 2.674 1.709 4.005.89l3.53-2.174a.912.912 0 0 1 1.263.313a6.84 6.84 0 0 0 6.588 3.321l3.832-.394a1.75 1.75 0 0 0 1.57-1.741v-7.13a2.81 2.81 0 0 0-1.736-2.585c-2.227-.928-6.282-2.689-10.295-4.785l-4.741 8.28z"/><path fill="url(#f2941idq)" d="M9.933 22.03c-1.251.875-1.653 2.634-.838 3.924c.836 1.321 2.674 1.709 4.005.89l3.53-2.174a.912.912 0 0 1 1.263.313a6.84 6.84 0 0 0 6.588 3.321l3.832-.394a1.75 1.75 0 0 0 1.57-1.741v-7.13a2.81 2.81 0 0 0-1.736-2.585c-2.227-.928-6.282-2.689-10.295-4.785l-4.741 8.28z"/><path fill="url(#f2941id7)" d="M9.933 22.03c-1.251.875-1.653 2.634-.838 3.924c.836 1.321 2.674 1.709 4.005.89l3.53-2.174a.912.912 0 0 1 1.263.313a6.84 6.84 0 0 0 6.588 3.321l3.832-.394a1.75 1.75 0 0 0 1.57-1.741v-7.13a2.81 2.81 0 0 0-1.736-2.585c-2.227-.928-6.282-2.689-10.295-4.785l-4.741 8.28z"/></g><path fill="url(#f2941id8)" d="M9.933 22.03c-1.251.875-1.653 2.634-.838 3.924c.836 1.321 2.674 1.709 4.005.89l3.53-2.174a.912.912 0 0 1 1.263.313a6.84 6.84 0 0 0 6.588 3.321l3.832-.394a1.75 1.75 0 0 0 1.57-1.741v-7.13a2.81 2.81 0 0 0-1.736-2.585c-2.227-.928-6.282-2.689-10.295-4.785l-4.741 8.28z"/><path fill="url(#f2941id9)" d="M9.933 22.03c-1.251.875-1.653 2.634-.838 3.924c.836 1.321 2.674 1.709 4.005.89l3.53-2.174a.912.912 0 0 1 1.263.313a6.84 6.84 0 0 0 6.588 3.321l3.832-.394a1.75 1.75 0 0 0 1.57-1.741v-7.13a2.81 2.81 0 0 0-1.736-2.585c-2.227-.928-6.282-2.689-10.295-4.785l-4.741 8.28z"/><path fill="url(#f2941idr)" d="m16.925 13.287l-3.807 6.65l1.758-1.104a5.25 5.25 0 0 1 3.498-.757l2.431.33z"/><path fill="url(#f2941ida)" d="m16 5.995l1.073-1.869l3.823 2.225l-1.07 1.87z"/><path fill="url(#f2941idb)" d="m16 5.995l1.073-1.869l3.823 2.225l-1.07 1.87z"/><path fill="url(#f2941idc)" d="M8.386 28.182a.5.5 0 0 1-.168.136l-3.176 1.575c-.162.08-.298 0-.306-.18l-.226-3.541a.5.5 0 0 1 .02-.169z"/><path fill="url(#f2941idd)" d="M8.386 28.182a.5.5 0 0 1-.168.136l-3.176 1.575c-.162.08-.298 0-.306-.18l-.226-3.541a.5.5 0 0 1 .02-.169z"/><path fill="url(#f2941ide)" d="M8.386 28.182a.5.5 0 0 1-.168.136l-3.176 1.575c-.162.08-.298 0-.306-.18l-.226-3.541a.5.5 0 0 1 .02-.169z"/><path fill="url(#f2941idf)" d="m5.859 29.488l-.817.405c-.162.08-.298 0-.306-.18l-.058-.906z"/><g filter="url(#f2941idx)"><path fill="url(#f2941idg)" d="m17.818 20.62l-5.632 3.042a.69.69 0 1 0 .66 1.212l5.062-2.772a2 2 0 0 1 1.624-.132l9.097 3.2v-4.91h-9.385a3 3 0 0 0-1.426.36"/></g><path fill="url(#f2941idh)" d="m13.118 19.936l1.758-1.103a5.25 5.25 0 0 1 3.498-.757l1.468.2l-1.939 6.723l-.01-.016a.912.912 0 0 0-1.263-.313l-3.53 2.173c-1.33.82-3.169.432-4.005-.89c-.815-1.289-.413-3.048.838-3.922l3.178-2.082z"/><path fill="url(#f2941ids)" d="m13.118 19.936l1.758-1.103a5.25 5.25 0 0 1 3.498-.757l1.468.2l-1.939 6.723l-.01-.016a.912.912 0 0 0-1.263-.313l-3.53 2.173c-1.33.82-3.169.432-4.005-.89c-.815-1.289-.413-3.048.838-3.922l3.178-2.082z"/><path fill="url(#f2941idt)" d="m13.118 19.936l1.758-1.103a5.25 5.25 0 0 1 3.498-.757l1.468.2l-1.939 6.723l-.01-.016a.912.912 0 0 0-1.263-.313l-3.53 2.173c-1.33.82-3.169.432-4.005-.89c-.815-1.289-.413-3.048.838-3.922l3.178-2.082z"/><g filter="url(#f2941idy)"><path stroke="url(#f2941idi)" stroke-linecap="round" stroke-width=".25" d="m18.719 2.503l2.848 1.737"/></g><defs><linearGradient id="f2941id0" x1="12.229" x2="5.3" y1="9.853" y2="21.762" gradientUnits="userSpaceOnUse"><stop stop-color="#D9A485"/><stop offset="1" stop-color="#CE8B7D"/></linearGradient><linearGradient id="f2941id1" x1="3.702" x2="4.555" y1="16.743" y2="17.283" gradientUnits="userSpaceOnUse"><stop stop-color="#D9A484"/><stop offset="1" stop-color="#D9A484" stop-opacity="0"/></linearGradient><linearGradient id="f2941id2" x1="16.529" x2="23.094" y1="24.288" y2="30.41" gradientUnits="userSpaceOnUse"><stop stop-color="#C8817C"/><stop offset="1" stop-color="#B37197"/></linearGradient><linearGradient id="f2941id3" x1="30.064" x2="28.992" y1="29.985" y2="29.985" gradientUnits="userSpaceOnUse"><stop stop-color="#E0B7A0"/><stop offset="1" stop-color="#E0B7A0" stop-opacity="0"/></linearGradient><linearGradient id="f2941id4" x1="9.333" x2="11.13" y1="27.262" y2="27.262" gradientUnits="userSpaceOnUse"><stop stop-color="#D69983"/><stop offset="1" stop-color="#D69983" stop-opacity="0"/></linearGradient><linearGradient id="f2941id5" x1="10.097" x2="18.224" y1="22.631" y2="8.382" gradientUnits="userSpaceOnUse"><stop stop-color="#E98D53"/><stop offset="1" stop-color="#E98D53" stop-opacity="0"/></linearGradient><linearGradient id="f2941id6" x1="17.949" x2="28.389" y1="13.474" y2="23.983" gradientUnits="userSpaceOnUse"><stop stop-color="#FDBD96"/><stop offset="1" stop-color="#E4A998"/></linearGradient><linearGradient id="f2941id7" x1="24.375" x2="23.375" y1="13.844" y2="15.781" gradientUnits="userSpaceOnUse"><stop stop-color="#F1C198"/><stop offset="1" stop-color="#F1C198" stop-opacity="0"/></linearGradient><linearGradient id="f2941id8" x1="23.814" x2="22.001" y1="14.125" y2="17.875" gradientUnits="userSpaceOnUse"><stop stop-color="#EEBF97"/><stop offset="1" stop-color="#EEBF97" stop-opacity="0"/></linearGradient><linearGradient id="f2941id9" x1="30.376" x2="27.814" y1="21.188" y2="21.188" gradientUnits="userSpaceOnUse"><stop stop-color="#EEBF97"/><stop offset="1" stop-color="#EEBF97" stop-opacity="0"/></linearGradient><linearGradient id="f2941ida" x1="15.539" x2="19.525" y1="4.487" y2="6.501" gradientUnits="userSpaceOnUse"><stop stop-color="#9E999F"/><stop offset="1" stop-color="#D9CCEC"/></linearGradient><linearGradient id="f2941idb" x1="20.896" x2="19.969" y1="7.453" y2="6.875" gradientUnits="userSpaceOnUse"><stop stop-color="#9C979A"/><stop offset="1" stop-color="#D4C5DE" stop-opacity="0"/><stop offset="1" stop-color="#9C979A" stop-opacity="0"/></linearGradient><linearGradient id="f2941idc" x1="4.939" x2="6.215" y1="27.964" y2="28.351" gradientUnits="userSpaceOnUse"><stop stop-color="#CE8C7F"/><stop offset="1" stop-color="#E79196"/></linearGradient><linearGradient id="f2941idd" x1="7.69" x2="6.257" y1="29.509" y2="28.682" gradientUnits="userSpaceOnUse"><stop stop-color="#E086A3"/><stop offset="1" stop-color="#E086A3" stop-opacity="0"/></linearGradient><linearGradient id="f2941ide" x1="6.531" x2="6.353" y1="27.031" y2="27.32" gradientUnits="userSpaceOnUse"><stop stop-color="#EB947F"/><stop offset="1" stop-color="#EB947F" stop-opacity="0"/></linearGradient><linearGradient id="f2941idf" x1="4.942" x2="5.44" y1="29.424" y2="29.824" gradientUnits="userSpaceOnUse"><stop stop-color="#3B1A3B"/><stop offset="1" stop-color="#5A1870"/><stop offset="1" stop-color="#3F0C46"/></linearGradient><linearGradient id="f2941idg" x1="14.855" x2="31.23" y1="22.715" y2="23.25" gradientUnits="userSpaceOnUse"><stop stop-color="#FFCCB3"/><stop offset="1" stop-color="#FFD3AC"/></linearGradient><linearGradient id="f2941idh" x1="10.564" x2="13.345" y1="19.781" y2="22.65" gradientUnits="userSpaceOnUse"><stop stop-color="#DD8B63"/><stop offset="1" stop-color="#DD8B63" stop-opacity="0"/></linearGradient><linearGradient id="f2941idi" x1="21.428" x2="18.719" y1="4.078" y2="2.596" gradientUnits="userSpaceOnUse"><stop stop-color="#FF756D" stop-opacity="0"/><stop offset=".339" stop-color="#FF756D"/><stop offset="1" stop-color="#FF756D" stop-opacity="0"/></linearGradient><radialGradient id="f2941idj" cx="0" cy="0" r="1" gradientTransform="rotate(151.144 5.93 6.87)scale(2.4229 2.39271)" gradientUnits="userSpaceOnUse"><stop stop-color="#C28A69"/><stop offset="1" stop-color="#C28A69" stop-opacity="0"/></radialGradient><radialGradient id="f2941idk" cx="0" cy="0" r="1" gradientTransform="matrix(1.10752 -.52992 1.23905 2.58958 14.502 26.291)" gradientUnits="userSpaceOnUse"><stop stop-color="#A26160"/><stop offset="1" stop-color="#A26160" stop-opacity="0"/></radialGradient><radialGradient id="f2941idl" cx="0" cy="0" r="1" gradientTransform="matrix(-2.38708 3.92266 -4.72646 -2.87622 14.026 25.954)" gradientUnits="userSpaceOnUse"><stop stop-color="#9F5A57"/><stop offset="1" stop-color="#B47079"/></radialGradient><radialGradient id="f2941idm" cx="0" cy="0" r="1" gradientTransform="matrix(0 4.4973 -3.95465 0 12.349 25.55)" gradientUnits="userSpaceOnUse"><stop offset=".776" stop-color="#B46D8C" stop-opacity="0"/><stop offset="1" stop-color="#B46D8C"/></radialGradient><radialGradient id="f2941idn" cx="0" cy="0" r="1" gradientTransform="matrix(9.03508 -16.18294 6.82694 3.81154 9.78 21.496)" gradientUnits="userSpaceOnUse"><stop stop-color="#DA7838"/><stop offset="1" stop-color="#F14E4B"/></radialGradient><radialGradient id="f2941ido" cx="0" cy="0" r="1" gradientTransform="matrix(2.78125 -4.4375 3.06055 1.91824 12.442 21.745)" gradientUnits="userSpaceOnUse"><stop stop-color="#B94D0B"/><stop offset="1" stop-color="#B94D0B" stop-opacity="0"/></radialGradient><radialGradient id="f2941idp" cx="0" cy="0" r="1" gradientTransform="matrix(-6.99141 -6.95223 4.42821 -4.45317 22.776 30.354)" gradientUnits="userSpaceOnUse"><stop offset=".212" stop-color="#BC7588"/><stop offset="1" stop-color="#BC7588" stop-opacity="0"/></radialGradient><radialGradient id="f2941idq" cx="0" cy="0" r="1" gradientTransform="rotate(149.931 11.96 13)scale(5.17395 1.57367)" gradientUnits="userSpaceOnUse"><stop stop-color="#FFD0A8"/><stop offset="1" stop-color="#FFD0A8" stop-opacity="0"/></radialGradient><radialGradient id="f2941idr" cx="0" cy="0" r="1" gradientTransform="rotate(-45.605 30.782 -5.494)scale(7.31574 8.64406)" gradientUnits="userSpaceOnUse"><stop offset=".117" stop-color="#C78173"/><stop offset=".561" stop-color="#BA6857"/><stop offset="1" stop-color="#BA6857" stop-opacity="0"/></radialGradient><radialGradient id="f2941ids" cx="0" cy="0" r="1" gradientTransform="matrix(3.73694 -2.5625 3.33108 4.85777 8.67 25.969)" gradientUnits="userSpaceOnUse"><stop stop-color="#BA7A7B"/><stop offset="1" stop-color="#BA7A7B" stop-opacity="0"/></radialGradient><radialGradient id="f2941idt" cx="0" cy="0" r="1" gradientTransform="matrix(1.5625 -1.6875 2.0981 1.9427 12.031 28.031)" gradientUnits="userSpaceOnUse"><stop stop-color="#B66F8A"/><stop offset="1" stop-color="#B66F8A" stop-opacity="0"/></radialGradient><filter id="f2941idu" width="15.189" height="15.507" x="1.78" y="7.899" color-interpolation-filters="sRGB" filterUnits="userSpaceOnUse"><feFlood flood-opacity="0" result="BackgroundImageFix"/><feBlend in="SourceGraphic" in2="BackgroundImageFix" result="shape"/><feColorMatrix in="SourceAlpha" result="hardAlpha" values="0 0 0 0 0 0 0 0 0 0 0 0 0 0 0 0 0 0 127 0"/><feOffset dx="-.3" dy="-1"/><feGaussianBlur stdDeviation="1"/><feComposite in2="hardAlpha" k2="-1" k3="1" operator="arithmetic"/><feColorMatrix values="0 0 0 0 0.690196 0 0 0 0 0.372549 0 0 0 0 0.329412 0 0 0 1 0"/><feBlend in2="shape" result="effect1_innerShadow_20020_6350"/></filter><filter id="f2941idv" width="12.051" height="18.937" x="6.69" y="6.882" color-interpolation-filters="sRGB" filterUnits="userSpaceOnUse"><feFlood flood-opacity="0" result="BackgroundImageFix"/><feBlend in="SourceGraphic" in2="BackgroundImageFix" result="shape"/><feGaussianBlur result="effect1_foregroundBlur_20020_6350" stdDeviation=".5"/></filter><filter id="f2941idw" width="21.213" height="16.921" x="8.671" y="11.419" color-interpolation-filters="sRGB" filterUnits="userSpaceOnUse"><feFlood flood-opacity="0" result="BackgroundImageFix"/><feBlend in="SourceGraphic" in2="BackgroundImageFix" result="shape"/><feColorMatrix in="SourceAlpha" result="hardAlpha" values="0 0 0 0 0 0 0 0 0 0 0 0 0 0 0 0 0 0 127 0"/><feOffset dy="-.25"/><feGaussianBlur stdDeviation=".25"/><feComposite in2="hardAlpha" k2="-1" k3="1" operator="arithmetic"/><feColorMatrix values="0 0 0 0 0.729412 0 0 0 0 0.462745 0 0 0 0 0.596078 0 0 0 1 0"/><feBlend in2="shape" result="effect1_innerShadow_20020_6350"/></filter><filter id="f2941idx" width="20.805" height="8.91" x="9.824" y="18.26" color-interpolation-filters="sRGB" filterUnits="userSpaceOnUse"><feFlood flood-opacity="0" result="BackgroundImageFix"/><feBlend in="SourceGraphic" in2="BackgroundImageFix" result="shape"/><feGaussianBlur result="effect1_foregroundBlur_20020_6350" stdDeviation="1"/></filter><filter id="f2941idy" width="3.598" height="2.487" x="18.344" y="2.128" color-interpolation-filters="sRGB" filterUnits="userSpaceOnUse"><feFlood flood-opacity="0" result="BackgroundImageFix"/><feBlend in="SourceGraphic" in2="BackgroundImageFix" result="shape"/><feGaussianBlur result="effect1_foregroundBlur_20020_6350" stdDeviation=".125"/></filter></defs></g></svg>