<svg xmlns="http://www.w3.org/2000/svg" width="1em" height="1em" viewBox="0 0 32 32"><g fill="none"><path fill="url(#f2945id0)" d="M29.757 15.875c0 7.732-6.268 14-14 14s-14-6.268-14-14s6.268-14 14-14s14 6.268 14 14"/><path fill="url(#f2945id4)" d="M29.757 15.875c0 7.732-6.268 14-14 14s-14-6.268-14-14s6.268-14 14-14s14 6.268 14 14"/><path fill="url(#f2945id1)" d="M29.757 15.875c0 7.732-6.268 14-14 14s-14-6.268-14-14s6.268-14 14-14s14 6.268 14 14"/><path fill="url(#f2945id2)" d="M29.757 15.875c0 7.732-6.268 14-14 14s-14-6.268-14-14s6.268-14 14-14s14 6.268 14 14"/><path fill="url(#f2945id3)" d="M29.757 15.875c0 7.732-6.268 14-14 14s-14-6.268-14-14s6.268-14 14-14s14 6.268 14 14"/><defs><radialGradient id="f2945id0" cx="0" cy="0" r="1" gradientTransform="rotate(130.168 9.965 9.872)scale(27.8086)" gradientUnits="userSpaceOnUse"><stop offset=".232" stop-color="#F3BB4B"/><stop offset=".959" stop-color="#C79738"/></radialGradient><radialGradient id="f2945id1" cx="0" cy="0" r="1" gradientTransform="rotate(136.38 10.092 10.202)scale(14.6767 15.816)" gradientUnits="userSpaceOnUse"><stop offset=".179" stop-color="#FFE764"/><stop offset="1" stop-color="#F8CA4D" stop-opacity="0"/></radialGradient><radialGradient id="f2945id2" cx="0" cy="0" r="1" gradientTransform="matrix(-19.25 0 0 -20 20.249 15.875)" gradientUnits="userSpaceOnUse"><stop offset=".62" stop-color="#C69B40" stop-opacity="0"/><stop offset=".951" stop-color="#E8C290"/></radialGradient><radialGradient id="f2945id3" cx="0" cy="0" r="1" gradientTransform="scale(23.3208 21)rotate(90 .127 .55)" gradientUnits="userSpaceOnUse"><stop offset=".792" stop-color="#E5A152" stop-opacity="0"/><stop offset="1" stop-color="#D17887"/></radialGradient><linearGradient id="f2945id4" x1="15.757" x2="15.757" y1="1.875" y2="8.375" gradientUnits="userSpaceOnUse"><stop stop-color="#E1B45D"/><stop offset="1" stop-color="#E1B45D" stop-opacity="0"/></linearGradient></defs></g></svg>