<svg xmlns="http://www.w3.org/2000/svg" width="1em" height="1em" viewBox="0 0 56 56"><path fill="currentColor" d="M28 51.906c13.055 0 23.906-10.828 23.906-23.906c0-13.055-10.875-23.906-23.93-23.906C14.899 4.094 4.095 14.945 4.095 28c0 13.078 10.828 23.906 23.906 23.906m0-3.984C16.937 47.922 8.1 39.062 8.1 28c0-11.04 8.813-19.922 19.876-19.922c11.039 0 19.921 8.883 19.945 19.922c.023 11.063-8.883 19.922-19.922 19.922M14.78 30.882c0 5.626 4.102 9.141 9.563 9.141h3.21c1.055 0 1.829-.609 1.829-1.687s-.774-1.664-1.782-1.664h-3.257c-3.54 0-6.117-2.297-6.117-5.977c0-3.61 2.648-5.601 6.093-5.601h7.008L34.094 25l-1.36 1.008l-2.93 2.812a1.649 1.649 0 0 0-.515 1.219c0 .961.726 1.711 1.664 1.711a1.59 1.59 0 0 0 1.195-.492l6.258-6.399c.375-.375.61-.867.61-1.406c0-.562-.235-1.055-.61-1.43l-6.234-6.328a1.53 1.53 0 0 0-1.195-.515c-.962 0-1.688.75-1.688 1.71c0 .493.21.915.539 1.22l2.414 2.343l1.852 1.453l-2.766-.093H24.32c-5.46 0-9.539 3.421-9.539 9.07"/></svg>