<svg xmlns="http://www.w3.org/2000/svg" width="1em" height="1em" viewBox="0 0 56 56"><path fill="currentColor" d="M28 51.906c13.055 0 23.906-10.828 23.906-23.906c0-13.055-10.875-23.906-23.93-23.906C14.899 4.094 4.095 14.945 4.095 28c0 13.078 10.828 23.906 23.906 23.906m0-3.984C16.937 47.922 8.1 39.062 8.1 28c0-11.04 8.813-19.922 19.876-19.922c11.039 0 19.921 8.883 19.945 19.922c.023 11.063-8.883 19.922-19.922 19.922m0-31.969c-.516 0-.89.188-1.36.656l-7.968 7.922c-.305.305-.445.727-.445 1.219c0 .96.726 1.688 1.687 1.688c.492 0 .937-.188 1.242-.516l2.906-2.93l2.368-2.812l-.188 4.945v12.21c0 1.032.727 1.759 1.758 1.759c1.008 0 1.758-.727 1.758-1.758V26.125l-.188-4.969l2.367 2.836l2.907 2.93c.304.351.726.515 1.242.515c.96 0 1.71-.726 1.71-1.687c0-.492-.163-.914-.491-1.219l-7.922-7.922c-.469-.445-.867-.656-1.383-.656"/></svg>