<svg xmlns="http://www.w3.org/2000/svg" width="1em" height="1em" viewBox="0 0 56 56"><path fill="currentColor" d="M13.785 49.574h28.453c4.899 0 7.336-2.437 7.336-7.265V13.69c0-4.828-2.437-7.265-7.336-7.265H13.785c-4.875 0-7.36 2.414-7.36 7.265v28.62c0 4.851 2.485 7.265 7.36 7.265m.07-3.773c-2.343 0-3.656-1.242-3.656-3.68V13.88c0-2.414 1.313-3.68 3.656-3.68h28.313c2.32 0 3.633 1.266 3.633 3.68v28.24c0 2.438-1.313 3.68-3.633 3.68ZM24.73 40.13c5.649 0 9.047-4.055 9.047-9.54v-6.983l-.07-2.79l1.453 1.852l2.344 2.438c.305.304.726.515 1.219.515c.96 0 1.71-.726 1.71-1.664c0-.492-.163-.89-.515-1.219l-6.328-6.21c-.399-.4-.89-.633-1.43-.633c-.562 0-1.031.234-1.43.632l-6.375 6.235c-.328.328-.492.726-.492 1.218c0 .915.727 1.641 1.711 1.641c.445 0 .89-.164 1.195-.492l2.836-2.953l1.008-1.36l-.117 2.79v6.984c0 3.445-1.969 6.094-5.578 6.094c-3.703 0-5.977-2.578-5.977-6.118V27.31c0-.985-.586-1.758-1.664-1.758c-1.101 0-1.687.773-1.687 1.805v3.21c0 5.485 3.515 9.563 9.14 9.563"/></svg>