<svg xmlns="http://www.w3.org/2000/svg" width="1em" height="1em" viewBox="0 0 56 56"><path fill="currentColor" d="M30.344 49.504c1.148 0 2.039-.516 3.234-1.523L52.07 30.52c.867-.868 1.196-1.735 1.196-2.508c0-.797-.329-1.664-1.196-2.532L33.578 8.185c-1.336-1.102-2.039-1.688-3.188-1.688c-1.617 0-2.788 1.313-2.788 2.883v8.86h-.68c-16.852 0-24.188 10.804-24.188 28.124c0 2.016 1.149 3.14 2.39 3.14c1.009 0 2.087-.233 2.884-1.733c4.101-7.665 9.844-9.961 18.914-9.961h.68v8.953c0 1.57 1.171 2.742 2.742 2.742"/></svg>