<svg xmlns="http://www.w3.org/2000/svg" width="1em" height="1em" viewBox="0 0 56 56"><path fill="currentColor" d="M12.18 44.465c-1.219 0-2.04.867-2.04 2.086c0 1.218.821 2.11 2.04 2.11h31.593c1.243 0 2.086-.892 2.086-2.11c0-1.219-.843-2.086-2.086-2.086h-15.28c.398-.117.75-.328 1.077-.68L45.086 28.27c.469-.493.68-1.008.68-1.57c0-1.173-.844-2.063-2.04-2.063a2.19 2.19 0 0 0-1.5.586l-5.25 5.18l-7.054 7.71l.187-5.015V9.426c0-1.219-.89-2.086-2.109-2.086c-1.219 0-2.086.867-2.086 2.086v23.672l.164 5.039l-7.055-7.735l-5.25-5.18c-.375-.374-.937-.585-1.5-.585c-1.171 0-2.039.89-2.039 2.062c0 .563.235 1.078.704 1.57L26.43 43.786a2.4 2.4 0 0 0 1.101.68Z"/></svg>