<svg xmlns="http://www.w3.org/2000/svg" width="1em" height="1em" viewBox="0 0 56 56"><path fill="currentColor" d="M13.785 49.574h28.453c4.899 0 7.336-2.437 7.336-7.265V13.69c0-4.828-2.437-7.265-7.336-7.265H13.785c-4.875 0-7.36 2.414-7.36 7.265v28.62c0 4.851 2.485 7.265 7.36 7.265m2.836-18.726c0-5.93 4.29-9.492 10.055-9.492h7.383l2.93.093l-1.946-1.547l-2.578-2.508a1.729 1.729 0 0 1-.563-1.265c0-1.008.774-1.758 1.758-1.758c.516 0 .89.164 1.242.54l6.586 6.632c.375.422.656.914.656 1.5s-.28 1.078-.656 1.477l-6.61 6.726c-.327.375-.726.54-1.265.54c-.937 0-1.71-.774-1.71-1.806c0-.445.163-.937.538-1.265l3.117-2.977l1.43-1.054l-2.93.093h-7.382c-3.656 0-6.446 2.086-6.446 5.883c0 3.914 2.72 6.305 6.47 6.305h3.421c1.031 0 1.852.633 1.852 1.781c0 1.102-.82 1.734-1.899 1.734H26.7c-5.766 0-10.078-3.703-10.078-9.632"/></svg>