<svg xmlns="http://www.w3.org/2000/svg" width="1em" height="1em" viewBox="0 0 56 56"><path fill="currentColor" d="M28 51.906c13.055 0 23.906-10.828 23.906-23.906c0-13.055-10.875-23.906-23.93-23.906C14.899 4.094 4.095 14.945 4.095 28c0 13.078 10.828 23.906 23.906 23.906m0-3.984C16.937 47.922 8.1 39.062 8.1 28c0-11.04 8.813-19.922 19.876-19.922c11.039 0 19.921 8.883 19.945 19.922c.023 11.063-8.883 19.922-19.922 19.922m-2.203-10.078c.843 0 1.453-.61 1.453-1.453v-4.828h.375c4.898 0 7.992 1.218 10.172 5.343c.422.797 1.008.938 1.547.938c.656 0 1.289-.586 1.289-1.664c0-9.352-3.961-15.094-13.008-15.094h-.375V16.28c0-.82-.61-1.523-1.477-1.523c-.633 0-1.03.281-1.687.89l-9.961 9.305c-.492.445-.633.914-.633 1.36c0 .421.164.89.633 1.335l9.96 9.375c.587.54 1.079.82 1.712.82"/></svg>