<svg xmlns="http://www.w3.org/2000/svg" width="1em" height="1em" viewBox="0 0 56 56"><path fill="currentColor" d="M13.785 49.574h28.453c4.899 0 7.336-2.437 7.336-7.265V13.69c0-4.828-2.437-7.265-7.336-7.265H13.785c-4.875 0-7.36 2.414-7.36 7.265v28.62c0 4.851 2.485 7.265 7.36 7.265m1.149-21.633c0-.562.187-1.03.726-1.57l8.977-8.976c.375-.352.843-.54 1.406-.54c1.101 0 1.969.844 1.969 1.946c0 .562-.282 1.078-.61 1.406l-3.304 3.281l-3.188 2.672l5.648-.234h13.735c1.172 0 1.969.844 1.992 2.015c0 1.172-.797 2.016-1.992 2.016H26.559l-5.649-.21l3.188 2.694l3.304 3.235c.352.351.61.844.61 1.43c0 1.101-.868 1.945-1.97 1.945c-.562 0-1.03-.235-1.405-.563l-8.977-8.953c-.516-.515-.726-.984-.726-1.594"/></svg>