<svg xmlns="http://www.w3.org/2000/svg" width="1em" height="1em" viewBox="0 0 56 56"><path fill="currentColor" d="M9.426 43.246h37.148c2.227 0 3.54-1.148 3.54-2.836c0-2.344-2.368-4.453-4.407-6.539c-1.547-1.617-1.969-4.945-2.133-7.64c-.187-9-2.554-15.211-8.812-17.461c-.867-3.047-3.305-5.485-6.75-5.485c-3.47 0-5.883 2.438-6.774 5.485c-6.234 2.25-8.625 8.46-8.789 17.46c-.187 2.696-.586 6.024-2.156 7.641c-2.016 2.086-4.406 4.195-4.406 6.54c0 1.687 1.336 2.835 3.539 2.835m11.437 3.188c.282 3.422 3.164 6.28 7.149 6.28c3.96 0 6.843-2.858 7.148-6.28Z"/></svg>