<svg xmlns="http://www.w3.org/2000/svg" width="1em" height="1em" viewBox="0 0 56 56"><path fill="currentColor" d="M6.529 50.323c-1.091 0-1.952-.35-2.583-1.052c-.582-.648-.896-1.498-.94-2.55L3 46.454V8.87c0-1.19.315-2.133.946-2.827c.582-.641 1.36-.987 2.335-1.036L6.53 5h26.807c1.077 0 1.93.347 2.562 1.042c.582.64.895 1.493.94 2.557l.005.27v6.59h12.65c.993 0 1.798.3 2.411.897l.15.156c.582.647.896 1.497.94 2.549l.006.267v27.126c0 1.176-.315 2.115-.946 2.817c-.582.647-1.355.996-2.317 1.046l-.245.006zm30.314-3.869c0 .153-.005.302-.016.447h11.538c.411 0 .716-.1.915-.298c.17-.17.267-.424.291-.76l.007-.175V20.115c0-.425-.1-.737-.298-.936c-.17-.17-.419-.267-.745-.291l-.17-.006l-11.522-.001zM32.21 8.423H7.656c-.426 0-.737.099-.936.297c-.17.17-.267.424-.291.76l-.006.176v36.012c0 .425.099.736.297.935c.17.17.424.267.76.291l.176.007l4.867-.001v-6.27c0-.838.174-1.474.52-1.907l.108-.124c.38-.393.945-.607 1.694-.643l.23-.005h9.694c.878 0 1.523.216 1.934.648c.374.393.578.988.612 1.785l.005.245l-.001 6.271h4.89c.411 0 .716-.099.914-.297c.17-.17.268-.424.292-.76l.006-.175V9.656c0-.426-.1-.737-.298-.936c-.198-.198-.503-.297-.914-.297m-8.354 32.313h-7.866c-.412 0-.637.187-.675.562l-.005.118l-.001 5.484h9.226v-5.484c0-.412-.187-.637-.561-.675zm21.067-2.105c.441 0 .68.202.717.607l.005.116v3.316c0 .442-.202.681-.607.718l-.115.005h-3.423c-.429 0-.66-.203-.697-.607l-.004-.116v-3.316c0-.442.196-.681.59-.718l.111-.005zm0-8.12c.441 0 .68.202.717.607l.005.115v3.316c0 .442-.202.681-.607.718l-.115.005h-3.423c-.429 0-.66-.202-.697-.607l-.004-.116v-3.316c0-.442.196-.681.59-.718l.111-.005zm-27.913-1.723c.537 0 .826.248.867.743l.005.129v4.018c0 .536-.248.825-.743.866l-.129.005h-4.145c-.51 0-.785-.247-.824-.742l-.005-.13V29.66c0-.536.235-.825.706-.867l.123-.005zm9.95 0c.536 0 .824.248.866.743l.005.129v4.018c0 .536-.248.825-.743.866l-.129.005h-4.124c-.523 0-.805-.247-.845-.742l-.005-.13V29.66c0-.536.241-.825.724-.867l.126-.005zm17.963-6.399c.441 0 .68.203.717.608l.005.115v3.317c0 .441-.202.68-.607.717l-.115.005h-3.423c-.429 0-.66-.202-.697-.607l-.004-.115v-3.317c0-.441.196-.68.59-.718l.111-.005zm-27.913-2.02c.537 0 .826.248.867.744l.005.128v4.018c0 .537-.248.826-.743.867l-.129.005h-4.145c-.51 0-.785-.248-.824-.743l-.005-.129v-4.018c0-.536.235-.825.706-.866l.123-.005zm9.95 0c.536 0 .824.248.866.744l.005.128v4.018c0 .537-.248.826-.743.867l-.129.005h-4.124c-.523 0-.805-.248-.845-.743l-.005-.129v-4.018c0-.536.241-.825.724-.866l.126-.005zm-9.95-8.417c.537 0 .826.247.867.742l.005.13v4.017c0 .536-.248.825-.743.866l-.129.006h-4.145c-.51 0-.785-.248-.824-.743l-.005-.129v-4.018c0-.536.235-.825.706-.866l.123-.005zm9.95 0c.536 0 .824.247.866.742l.005.13v4.017c0 .536-.248.825-.743.866l-.129.006h-4.124c-.523 0-.805-.248-.845-.743l-.005-.129v-4.018c0-.536.241-.825.724-.866l.126-.005z"/></svg>