<svg xmlns="http://www.w3.org/2000/svg" width="1em" height="1em" viewBox="0 0 56 56"><path fill="currentColor" d="M37.24 50.284h12.255c1.076 0 1.93-.35 2.56-1.05c.63-.702.945-1.64.945-2.815V19.316c0-1.175-.315-2.113-.945-2.814c-.63-.701-1.484-1.052-2.56-1.052H38.28v30.97c0 .722-.088 1.405-.265 2.05a7.24 7.24 0 0 1-.776 1.815m5.862-24.086V22.8c0-.495.248-.743.743-.743h3.526c.496 0 .743.248.743.743v3.399c0 .51-.247.765-.743.765h-3.526c-.495 0-.743-.255-.743-.765m0 8.369v-3.399c0-.495.248-.743.743-.743h3.526c.496 0 .743.248.743.743v3.399c0 .495-.247.743-.743.743h-3.526c-.495 0-.743-.248-.743-.743m0 8.368v-3.398c0-.51.248-.765.743-.765h3.526c.496 0 .743.255.743.765v3.398c0 .496-.247.744-.743.744h-3.526c-.495 0-.743-.248-.743-.744M3 46.42c0 1.175.315 2.113.945 2.814c.63.701 1.49 1.051 2.58 1.051h25.32c1.09 0 1.95-.35 2.58-1.05c.63-.702.945-1.64.945-2.815V8.866c0-1.19-.315-2.131-.945-2.825c-.63-.694-1.49-1.041-2.58-1.041H6.524c-1.09 0-1.95.347-2.58 1.04C3.315 6.736 3 7.677 3 8.867zm8.836.446v-6.903c0-.496.149-.889.446-1.18c.297-.29.687-.435 1.168-.435h11.661c.496 0 .889.146 1.179.436c.29.29.435.683.435 1.179v6.903zm-.701-30.459v-4.12c0-.61.29-.914.87-.914h4.249c.609 0 .913.305.913.913v4.121c0 .609-.304.913-.913.913h-4.248c-.58 0-.871-.304-.871-.913m10.26 0v-4.12c0-.61.297-.914.891-.914h4.227c.609 0 .913.305.913.913v4.121c0 .609-.304.913-.913.913h-4.227c-.594 0-.892-.304-.892-.913m-10.26 8.666v-4.12c0-.61.29-.914.87-.914h4.249c.609 0 .913.305.913.914v4.12c0 .609-.304.913-.913.913h-4.248c-.58 0-.871-.304-.871-.913m10.26 0v-4.12c0-.61.297-.914.891-.914h4.227c.609 0 .913.305.913.914v4.12c0 .609-.304.913-.913.913h-4.227c-.594 0-.892-.304-.892-.913m-10.26 8.666v-4.12c0-.61.29-.914.87-.914h4.249c.609 0 .913.305.913.914v4.12c0 .61-.304.914-.913.914h-4.248c-.58 0-.871-.305-.871-.914m10.26 0v-4.12c0-.61.297-.914.891-.914h4.227c.609 0 .913.305.913.914v4.12c0 .61-.304.914-.913.914h-4.227c-.594 0-.892-.305-.892-.914"/></svg>