<svg xmlns="http://www.w3.org/2000/svg" width="1em" height="1em" viewBox="0 0 56 56"><path fill="currentColor" d="M28 51.906c13.055 0 23.906-10.828 23.906-23.906c0-13.055-10.875-23.906-23.93-23.906C14.899 4.094 4.095 14.945 4.095 28c0 13.078 10.828 23.906 23.906 23.906m0-3.984C16.937 47.922 8.1 39.062 8.1 28c0-11.04 8.813-19.922 19.876-19.922c11.039 0 19.921 8.883 19.945 19.922c.023 11.063-8.883 19.922-19.922 19.922m-10.313-9.305h20.579c2.46 0 3.75-1.242 3.75-3.68V22.423c0-2.461-1.29-3.703-3.75-3.703h-2.813c-.937 0-1.219-.164-1.758-.774l-.96-1.078c-.587-.656-1.196-1.008-2.415-1.008H25.54c-1.219 0-1.828.352-2.438 1.008l-.96 1.078c-.54.563-.82.774-1.758.774h-2.696c-2.507 0-3.773 1.242-3.773 3.703v12.516c0 2.437 1.266 3.68 3.773 3.68m10.149-3.328a7.032 7.032 0 0 1-7.055-7.055c0-3.89 3.164-7.007 7.055-7.007a6.982 6.982 0 0 1 7.008 7.007c0 4.008-3.117 7.055-7.008 7.055m9.21-10.172a1.595 1.595 0 0 1-1.593-1.594c0-.89.727-1.593 1.594-1.593c.867 0 1.57.703 1.57 1.593c.024.891-.703 1.594-1.57 1.594m-9.21 8.133a5.001 5.001 0 0 0 4.992-5.016a4.996 4.996 0 0 0-4.992-4.992c-2.766 0-5.016 2.227-5.016 4.992a5.006 5.006 0 0 0 5.016 5.016"/></svg>