<svg xmlns="http://www.w3.org/2000/svg" width="1em" height="1em" viewBox="0 0 56 56"><path fill="currentColor" d="M18.964 51.506c2.207 0 4.274-.416 6.202-1.247a16.306 16.306 0 0 0 5.09-3.436a15.886 15.886 0 0 0 3.436-5.09c.824-1.935 1.235-4.007 1.235-6.214c0-2.192-.415-4.251-1.247-6.179a16.17 16.17 0 0 0-8.514-8.515c-1.928-.831-3.995-1.247-6.202-1.247c-2.192 0-4.256.416-6.19 1.247a16.134 16.134 0 0 0-8.527 8.515C3.416 31.268 3 33.327 3 35.52c0 2.206.416 4.278 1.247 6.213a16.134 16.134 0 0 0 3.436 5.09a16.134 16.134 0 0 0 5.09 3.436c1.935.831 3.999 1.247 6.19 1.247m0-3.628a12 12 0 0 1-4.785-.964a12.591 12.591 0 0 1-3.945-2.653a12.209 12.209 0 0 1-2.653-3.934c-.635-1.497-.953-3.1-.953-4.808c0-1.693.318-3.284.953-4.773a12.242 12.242 0 0 1 2.653-3.923a12.591 12.591 0 0 1 3.945-2.653a12 12 0 0 1 4.785-.964c1.708 0 3.307.322 4.796.964a12.49 12.49 0 0 1 6.576 6.576c.642 1.49.963 3.08.963 4.773c0 1.709-.32 3.311-.963 4.808a12.455 12.455 0 0 1-6.576 6.587c-1.49.642-3.088.964-4.796.964m9.047-11.95c2.192 0 4.252-.412 6.18-1.236a16.052 16.052 0 0 0 5.09-3.436a16.052 16.052 0 0 0 3.436-5.09c.824-1.928 1.235-3.995 1.235-6.202s-.411-4.27-1.235-6.19a16.088 16.088 0 0 0-3.436-5.08a16.21 16.21 0 0 0-5.09-3.447C32.263 4.416 30.203 4 28.01 4c-2.207 0-4.274.416-6.201 1.247a16.211 16.211 0 0 0-5.091 3.447a16.248 16.248 0 0 0-3.447 5.08c-.831 1.92-1.247 3.983-1.247 6.19c0 2.207.416 4.274 1.247 6.202a16.21 16.21 0 0 0 3.447 5.09a16.053 16.053 0 0 0 5.09 3.436c1.928.824 3.995 1.236 6.202 1.236m0-3.629c-1.708 0-3.31-.317-4.807-.952a12.208 12.208 0 0 1-3.934-2.653a12.629 12.629 0 0 1-2.653-3.934c-.643-1.49-.964-3.088-.964-4.796c0-1.708.321-3.303.964-4.785a12.666 12.666 0 0 1 2.653-3.923a12.362 12.362 0 0 1 3.934-2.664c1.497-.643 3.1-.964 4.807-.964c1.694 0 3.285.321 4.774.964c1.489.642 2.8 1.527 3.934 2.653a12.242 12.242 0 0 1 2.653 3.923c.635 1.489.952 3.088.952 4.796c0 1.708-.317 3.307-.952 4.796a12.374 12.374 0 0 1-2.653 3.934a12.374 12.374 0 0 1-3.934 2.653c-1.49.635-3.08.952-4.774.952m9.048 19.207c2.192 0 4.252-.416 6.18-1.247a16.31 16.31 0 0 0 5.09-3.436a15.886 15.886 0 0 0 3.435-5.09C52.588 39.798 53 37.726 53 35.519c0-2.192-.412-4.251-1.236-6.179a15.92 15.92 0 0 0-3.435-5.08a16.31 16.31 0 0 0-5.09-3.435c-1.928-.831-3.988-1.247-6.18-1.247c-2.207 0-4.278.416-6.213 1.247a16.134 16.134 0 0 0-8.526 8.515c-.832 1.928-1.247 3.987-1.247 6.18c0 2.206.415 4.278 1.247 6.213a16.134 16.134 0 0 0 3.435 5.09a16.134 16.134 0 0 0 5.09 3.436c1.936.831 4.007 1.247 6.214 1.247m0-3.628c-1.708 0-3.31-.322-4.807-.964a12.455 12.455 0 0 1-3.934-2.653a12.455 12.455 0 0 1-2.654-3.934c-.642-1.497-.963-3.1-.963-4.808c0-1.693.321-3.284.963-4.773a12.455 12.455 0 0 1 6.587-6.576c1.497-.642 3.1-.964 4.808-.964c1.693 0 3.284.322 4.773.964a12.493 12.493 0 0 1 6.576 6.576c.643 1.49.964 3.08.964 4.773c0 1.709-.317 3.311-.952 4.808a12.3 12.3 0 0 1-2.642 3.934a12.453 12.453 0 0 1-3.934 2.653a12 12 0 0 1-4.785.964"/></svg>