<svg xmlns="http://www.w3.org/2000/svg" width="1em" height="1em" viewBox="0 0 56 56"><path fill="currentColor" d="M28 3.886c14.265 0 25.83 9.704 25.83 21.673c0 11.971-11.565 21.676-25.83 21.676a30.9 30.9 0 0 1-3.903-.246l-.643-.09c-1.163-.276-2.102-.03-3.132.496l-.33.175l-.336.192l-.347.207l-1.538.947l-.433.258l-.456.262l-.482.266l-.51.268c-1.4.713-3.121 1.425-5.353 1.99c-1.37.347-1.729.113-1.071-.754l.17-.211l.206-.234l.116-.126c.097-.102.193-.206.289-.314l.285-.328l.28-.341l.138-.175l.27-.358c.132-.181.26-.365.384-.552l.24-.376c1.283-2.08 1.885-4.355.292-5.528l-.774-.53l-.503-.358C5.53 37.805 2.17 32.008 2.17 25.56C2.17 13.59 13.733 3.886 28 3.886m0 3.676c-12.463 0-22.281 8.24-22.281 17.976c0 5.027 2.605 9.786 7.173 13.19l1.013.71l.137.082l.178.131c1.822 1.342 2.692 3.139 2.814 5.098l.484-.265l.468-.25l.442-.227l.209-.103l.385-.18c.181-.081.343-.147.482-.194a8.475 8.475 0 0 1 4.611-.288a27.6 27.6 0 0 0 3.885.273c12.462 0 22.281-8.24 22.281-17.977c0-9.736-9.82-17.976-22.281-17.976M31.758 32c.82 0 1.453.656 1.453 1.477c0 .75-.56 1.333-1.31 1.4l-.143.006H16.453c-.844 0-1.453-.61-1.453-1.407c0-.772.54-1.398 1.307-1.47l.146-.006zm8.344-7.82c.82 0 1.453.656 1.453 1.476c0 .75-.56 1.334-1.31 1.4l-.143.006H16.453c-.844 0-1.453-.609-1.453-1.406c0-.772.54-1.399 1.307-1.47l.146-.006zm0-8.18c.82 0 1.453.633 1.453 1.43c0 .772-.56 1.378-1.31 1.446l-.143.007H16.453c-.844 0-1.453-.633-1.453-1.453c0-.75.54-1.355 1.307-1.424l.146-.006z"/></svg>