<svg xmlns="http://www.w3.org/2000/svg" width="1em" height="1em" viewBox="0 0 56 56"><path fill="currentColor" d="M27.988 51.672c.375 0 .985-.14 1.594-.469c13.313-7.476 17.906-10.64 17.906-19.195v-17.93c0-2.46-1.078-3.234-3.047-4.078c-2.765-1.148-11.718-4.36-14.484-5.32c-.633-.211-1.289-.352-1.969-.352c-.656 0-1.312.188-1.945.352c-2.766.843-11.719 4.195-14.484 5.32c-1.97.82-3.047 1.617-3.047 4.078v17.93c0 8.554 4.617 11.695 17.906 19.195c.61.328 1.195.469 1.57.469m0-4.266c-.351 0-.75-.14-1.453-.562c-10.828-6.563-14.297-8.485-14.297-15.703V14.78c0-.797.164-1.101.797-1.36c3.563-1.405 10.43-3.843 14.04-5.132c.35-.14.656-.21.913-.21c.282 0 .563.07.938.21c3.61 1.29 10.406 3.89 14.039 5.133c.633.234.797.562.797 1.36V31.14c0 7.218-3.492 9.117-14.297 15.703c-.703.422-1.102.562-1.477.562m-2.93-8.32c.797 0 1.43-.375 1.899-1.125l11.578-18.21c.305-.445.586-.984.586-1.5c0-1.078-.96-1.758-1.945-1.758c-.61 0-1.196.375-1.617 1.078L24.965 34.516l-5.438-7.055c-.539-.68-1.078-.938-1.734-.938c-1.031 0-1.828.82-1.828 1.875c0 .516.21 1.032.539 1.477l6.539 8.11c.656.75 1.242 1.101 2.016 1.101"/></svg>