<svg xmlns="http://www.w3.org/2000/svg" width="1em" height="1em" viewBox="0 0 56 56"><path fill="currentColor" d="M13.785 49.574h28.453c4.899 0 7.336-2.437 7.336-7.265V13.69c0-4.828-2.437-7.265-7.336-7.265H13.785c-4.875 0-7.36 2.414-7.36 7.265v28.62c0 4.851 2.485 7.265 7.36 7.265m11.04-9.586c-.821 0-1.43-.351-2.087-1.148l-6.773-8.344c-.352-.445-.563-1.008-.563-1.523c0-1.102.868-1.946 1.899-1.946c.68 0 1.265.258 1.804.985l5.602 7.242l10.898-17.461c.446-.727 1.055-1.078 1.665-1.078c1.03 0 2.038.68 2.038 1.805c0 .515-.304 1.078-.609 1.546L26.793 38.84c-.516.773-1.172 1.148-1.969 1.148"/></svg>