<svg xmlns="http://www.w3.org/2000/svg" width="1em" height="1em" viewBox="0 0 56 56"><path fill="currentColor" d="M29.149 48.356c.609 0 1.124-.235 1.523-.633l18.586-18.141c.445-.445.68-.984.68-1.57c0-.61-.258-1.196-.703-1.57L30.672 8.276a2.105 2.105 0 0 0-1.524-.632c-1.218 0-2.132.937-2.132 2.156c0 .562.234 1.125.61 1.523l17.062 16.688l-17.063 16.687c-.375.399-.61.938-.61 1.524c0 1.218.915 2.133 2.133 2.133m-20.93 0c.586 0 1.125-.235 1.523-.633l18.563-18.141c.445-.445.68-.984.68-1.57c0-.61-.235-1.196-.68-1.57L9.742 8.276c-.422-.398-.937-.632-1.523-.632A2.122 2.122 0 0 0 6.063 9.8c0 .562.257 1.125.632 1.523l17.04 16.688l-17.04 16.687c-.375.399-.632.938-.632 1.524c0 1.218.937 2.133 2.156 2.133"/></svg>