<svg xmlns="http://www.w3.org/2000/svg" width="1em" height="1em" viewBox="0 0 56 56"><path fill="currentColor" d="M13.785 49.574h28.453c4.899 0 7.336-2.437 7.336-7.265V13.69c0-4.828-2.437-7.265-7.336-7.265H13.785c-4.875 0-7.36 2.414-7.36 7.265v28.62c0 4.851 2.485 7.265 7.36 7.265m5.906-11.203c-1.148 0-2.109-.937-2.109-2.086c0-.539.234-1.054.656-1.476l6.797-6.844l-6.797-6.82c-.422-.422-.656-.938-.656-1.477c0-1.172.96-2.133 2.11-2.133c.562 0 1.054.211 1.476.633l6.844 6.844l6.843-6.844a1.973 1.973 0 0 1 1.454-.633a2.14 2.14 0 0 1 2.132 2.133c0 .54-.234 1.055-.656 1.477l-6.82 6.82l6.82 6.844c.422.422.656.937.656 1.476c0 1.149-.96 2.086-2.133 2.086c-.538 0-1.054-.21-1.43-.586l-6.866-6.89l-6.868 6.89a2.036 2.036 0 0 1-1.453.586"/></svg>