<svg xmlns="http://www.w3.org/2000/svg" width="1em" height="1em" viewBox="0 0 56 56"><path fill="currentColor" d="M12.262 45.754h29.086c7.687 0 13.406-5.836 13.406-13.078c0-7.453-6.094-12.914-14.04-12.914c-2.929-5.79-8.366-9.516-15.14-9.516c-8.812 0-16.078 6.89-16.851 15.61c-4.243 1.218-7.477 4.921-7.477 9.867c0 5.53 4.031 10.03 11.016 10.03m-.047-3.773c-4.805 0-7.219-2.672-7.219-6.141c0-2.836 1.64-5.344 5.625-6.422c1.29-.328 1.758-.937 1.875-2.273c.54-7.641 6.281-13.149 13.078-13.149c5.274 0 9.422 2.883 11.953 8.086c.54 1.125 1.242 1.523 2.625 1.523c6.938 0 10.852 4.196 10.852 9.188c0 5.11-4.078 9.188-9.422 9.188Z"/></svg>