<svg xmlns="http://www.w3.org/2000/svg" width="1em" height="1em" viewBox="0 0 56 56"><path fill="currentColor" d="M12.262 37.106h29.086c7.687 0 13.406-5.837 13.406-13.079c0-7.453-6.094-12.914-14.04-12.914c-2.929-5.789-8.366-9.515-15.14-9.515c-8.812 0-16.078 6.89-16.851 15.609c-4.243 1.219-7.477 4.922-7.477 9.867c0 5.531 4.031 10.031 11.016 10.031m-.047-3.774c-4.805 0-7.219-2.672-7.219-6.14c0-2.837 1.64-5.368 5.625-6.422c1.29-.329 1.758-.938 1.875-2.274c.54-7.64 6.281-13.148 13.078-13.148c5.274 0 9.422 2.882 11.953 8.086c.54 1.125 1.242 1.523 2.625 1.523c6.938 0 10.852 4.195 10.852 9.188c0 5.109-4.078 9.187-9.422 9.187ZM43.246 43.48H12.754c-.82 0-1.477.633-1.477 1.5c0 .844.657 1.477 1.477 1.477h30.492c.82 0 1.477-.633 1.477-1.477c0-.867-.657-1.5-1.477-1.5m0 7.97H12.754c-.82 0-1.477.632-1.477 1.476c0 .843.657 1.476 1.477 1.476h30.492c.82 0 1.477-.633 1.477-1.476c0-.844-.657-1.477-1.477-1.477"/></svg>