<svg xmlns="http://www.w3.org/2000/svg" width="1em" height="1em" viewBox="0 0 56 56"><path fill="currentColor" d="M28.012 10.305c1.523 0 2.742-1.242 2.742-2.766a2.746 2.746 0 0 0-2.742-2.742a2.75 2.75 0 0 0-2.766 2.742a2.756 2.756 0 0 0 2.766 2.766m16.969 7.054a2.731 2.731 0 0 0 2.742-2.742a2.716 2.716 0 0 0-2.742-2.742a2.73 2.73 0 0 0-2.743 2.742a2.746 2.746 0 0 0 2.742 2.742m-33.985.047a2.746 2.746 0 0 0 2.742-2.742a2.73 2.73 0 0 0-2.742-2.742a2.716 2.716 0 0 0-2.742 2.742a2.73 2.73 0 0 0 2.742 2.742m17.016 30.282c8.883 0 16.125-7.196 16.125-16.149c0-8.93-7.242-16.125-16.125-16.125c-8.907 0-16.149 7.195-16.149 16.125c0 8.953 7.243 16.148 16.149 16.148m0-28.711c6.914 0 12.562 5.625 12.562 12.562c0 6.938-5.648 12.563-12.562 12.563a12.56 12.56 0 0 1-7.828-2.743l9.023-9.023c.656-.656.656-1.64 0-2.344c-.586-.61-1.687-.61-2.297 0l-9 9.024a12.353 12.353 0 0 1-2.484-7.477c0-6.937 5.648-12.562 12.586-12.562M51.988 34.28a2.73 2.73 0 0 0 2.742-2.742a2.716 2.716 0 0 0-2.742-2.742a2.73 2.73 0 0 0-2.742 2.742a2.746 2.746 0 0 0 2.742 2.742m-47.976 0a2.746 2.746 0 0 0 2.742-2.742a2.73 2.73 0 0 0-2.742-2.742a2.716 2.716 0 0 0-2.742 2.742a2.73 2.73 0 0 0 2.742 2.742m6.984 16.899a2.73 2.73 0 0 0 2.742-2.742a2.746 2.746 0 0 0-2.742-2.743a2.73 2.73 0 0 0-2.742 2.742a2.716 2.716 0 0 0 2.742 2.743m33.961.023a2.716 2.716 0 0 0 2.742-2.742a2.73 2.73 0 0 0-2.742-2.742a2.746 2.746 0 0 0-2.742 2.742a2.73 2.73 0 0 0 2.742 2.742"/></svg>