<svg xmlns="http://www.w3.org/2000/svg" width="1em" height="1em" viewBox="0 0 56 56"><path fill="currentColor" d="M28 51.906c13.055 0 23.906-10.828 23.906-23.906c0-13.055-10.875-23.906-23.93-23.906C14.899 4.094 4.095 14.945 4.095 28c0 13.078 10.828 23.906 23.906 23.906m0-3.984C16.937 47.922 8.1 39.062 8.1 28c0-11.04 8.813-19.922 19.876-19.922c11.039 0 19.921 8.883 19.945 19.922c.023 11.063-8.883 19.922-19.922 19.922m-.07-25.734c1.687 0 2.882-1.125 2.882-2.579c0-1.664-1.172-2.812-2.882-2.812c-1.57 0-2.79 1.148-2.79 2.812c0 1.453 1.22 2.578 2.79 2.578m-9.07 7.804h18.257c1.313 0 2.18-.68 2.18-1.922c0-1.289-.82-1.992-2.18-1.992H18.86c-1.383 0-2.226.703-2.226 1.992c0 1.242.89 1.922 2.226 1.922m9.07 9.305c1.687 0 2.882-1.149 2.882-2.602c0-1.664-1.172-2.789-2.882-2.789c-1.57 0-2.79 1.125-2.79 2.79c0 1.452 1.22 2.6 2.79 2.6"/></svg>