<svg xmlns="http://www.w3.org/2000/svg" width="1em" height="1em" viewBox="0 0 56 56"><path fill="currentColor" fill-rule="evenodd" d="M28 4c13.255 0 24 10.745 24 24S41.255 52 28 52S4 41.255 4 28S14.745 4 28 4m0 4C16.954 8 8 16.954 8 28s8.954 20 20 20s20-8.954 20-20S39.046 8 28 8m1.714 5.429a7.714 7.714 0 1 1 0 15.428a1.714 1.714 0 0 1-.148-3.422l.148-.006a4.286 4.286 0 1 0-4.285-4.286v13.016l3.143-3.143A1.716 1.716 0 0 1 31 31.012a1.713 1.713 0 0 1-.004 2.428l-6.054 6.054a1.715 1.715 0 0 1-1.19.506a1.718 1.718 0 0 1-1.266-.506l-6.054-6.054a1.716 1.716 0 0 1-.003-2.428a1.713 1.713 0 0 1 2.427.004L22 34.159V21.143a7.714 7.714 0 0 1 7.714-7.714"/></svg>