<svg xmlns="http://www.w3.org/2000/svg" width="1em" height="1em" viewBox="0 0 56 56"><path fill="currentColor" d="m29.622 4.22l.854 1.193l.418.59l.818 1.166l.4.577l.78 1.14l.757 1.124l.732 1.106l.708 1.09l.344.538l.671 1.063l.647 1.046l.623 1.028l.597 1.012a97.842 97.842 0 0 1 1.648 2.93l.5.943l.241.465l.464.917C43.608 27.748 45 32.365 45 36c0 9.389-7.611 17-17 17s-17-7.611-17-17c0-3.635 1.392-8.252 4.176-13.852l.464-.917l.24-.465l.501-.942a97.841 97.841 0 0 1 1.648-2.931l.597-1.012l.623-1.028l.647-1.046l.67-1.063l.345-.539l.708-1.089l.732-1.106l.757-1.123l.78-1.14l.806-1.159l.412-.585l.842-1.184l.43-.598a2 2 0 0 1 3.244 0M28 8.842l-.79 1.137l-.766 1.118l-.741 1.1l-.361.543l-.703 1.072l-.679 1.053l-.653 1.035l-.318.51l-.616 1.007l-.298.497l-.58.978l-.553.96c-.271.474-.533.942-.785 1.403l-.492.911l-.467.893c-.152.294-.3.585-.443.873l-.417.853l-.393.835c-.254.55-.491 1.086-.712 1.61l-.32.774C15.637 31.193 15 33.866 15 36c0 7.18 5.82 13 13 13s13-5.82 13-13c0-2.134-.636-4.807-1.914-7.997l-.319-.775c-.22-.523-.458-1.06-.712-1.61l-.393-.834l-.417-.853a72.29 72.29 0 0 0-.443-.873l-.467-.893l-.492-.911c-.252-.46-.514-.929-.785-1.404l-.554-.959l-.579-.978l-.603-.998a152.68 152.68 0 0 0-.629-1.016l-.653-1.035l-.679-1.053l-.703-1.072l-.36-.543l-.742-1.1l-.765-1.118c-.26-.376-.523-.755-.791-1.137m10.471 26.25c.004.065.003.13-.003.194c-.32 3.408-1.412 6.043-3.276 7.907c-1.786 1.787-4.281 2.864-7.485 3.232l-.422.044a1.255 1.255 0 0 1-1.37-1.326a1.337 1.337 0 0 1 1.394-1.255c2.254.1 4.272-.74 6.055-2.523c1.702-1.702 2.546-3.618 2.531-5.75l-.008-.305a1.337 1.337 0 0 1 1.255-1.395a1.255 1.255 0 0 1 1.33 1.177"/></svg>