<svg xmlns="http://www.w3.org/2000/svg" width="1em" height="1em" viewBox="0 0 56 56"><path fill="currentColor" d="M9.965 50.207h36.07c3.985 0 6.469-2.86 6.469-6.469c0-1.078-.281-2.18-.867-3.187L33.567 9.074c-1.22-2.133-3.352-3.281-5.555-3.281c-2.18 0-4.336 1.148-5.579 3.281l-18.07 31.5a6.253 6.253 0 0 0-.867 3.164c0 3.61 2.508 6.469 6.469 6.469m.047-3.68c-1.641 0-2.72-1.336-2.72-2.789c0-.422.071-.914.306-1.406l18.046-31.477c.516-.89 1.454-1.312 2.368-1.312c.914 0 1.804.398 2.32 1.312l18.047 31.5c.234.47.351.961.351 1.383c0 1.453-1.125 2.79-2.742 2.79Zm18-5.367c3.468 0 6.328-2.719 6.328-6.187c0-1.992-.985-3.867-1.922-5.625l-3.82-7.055a.642.642 0 0 0-.586-.375c-.282 0-.422.14-.563.398l-3.844 7.032c-.96 1.758-1.922 3.633-1.922 5.625c0 3.468 2.86 6.187 6.329 6.187"/></svg>