<svg xmlns="http://www.w3.org/2000/svg" width="1em" height="1em" viewBox="0 0 56 56"><path fill="currentColor" d="M28 51.906c13.055 0 23.906-10.828 23.906-23.906c0-13.055-10.875-23.906-23.93-23.906C14.899 4.094 4.095 14.945 4.095 28c0 13.078 10.828 23.906 23.906 23.906m0-3.984C16.937 47.922 8.1 39.062 8.1 28c0-11.04 8.813-19.922 19.876-19.922c11.039 0 19.921 8.883 19.945 19.922c.023 11.063-8.883 19.922-19.922 19.922m-7.735-19.899c0-1.71-1.453-3.164-3.164-3.164c-1.734 0-3.164 1.453-3.164 3.164s1.454 3.165 3.164 3.165c1.711 0 3.165-1.454 3.165-3.165m10.875 0c0-1.71-1.476-3.164-3.163-3.164c-1.735 0-3.165 1.453-3.165 3.164s1.477 3.165 3.165 3.165c1.687 0 3.163-1.454 3.163-3.165m10.876 0c0-1.71-1.454-3.164-3.165-3.164c-1.734 0-3.187 1.453-3.187 3.164s1.477 3.165 3.187 3.165c1.711 0 3.165-1.454 3.165-3.165"/></svg>