<svg xmlns="http://www.w3.org/2000/svg" width="1em" height="1em" viewBox="0 0 56 56"><path fill="currentColor" d="M28 15.32c-2.602 0-4.687-2.086-4.687-4.734A4.671 4.671 0 0 1 28 5.899a4.671 4.671 0 0 1 4.688 4.687c0 2.648-2.086 4.734-4.688 4.734m0 17.344c-2.602 0-4.687-2.062-4.687-4.664s2.085-4.664 4.687-4.664c2.602 0 4.688 2.062 4.688 4.664S30.602 32.664 28 32.664m0 17.438a4.686 4.686 0 0 1-4.687-4.688c0-2.648 2.085-4.734 4.687-4.734c2.602 0 4.688 2.086 4.688 4.734A4.686 4.686 0 0 1 28 50.102"/></svg>