<svg xmlns="http://www.w3.org/2000/svg" width="1em" height="1em" viewBox="0 0 56 56"><path fill="currentColor" d="M28 51.906c13.055 0 23.906-10.828 23.906-23.906c0-13.055-10.875-23.906-23.93-23.906C14.899 4.094 4.095 14.945 4.095 28c0 13.078 10.828 23.906 23.906 23.906m-8.273-23.883c0 1.852-1.618 3.493-3.493 3.493c-1.898 0-3.469-1.641-3.469-3.493c0-1.875 1.547-3.515 3.47-3.515c1.874 0 3.492 1.664 3.492 3.515m11.718 0c0 1.852-1.594 3.493-3.468 3.493c-1.876 0-3.47-1.641-3.47-3.493c0-1.875 1.571-3.515 3.47-3.515c1.874 0 3.468 1.664 3.468 3.515m11.742 0c0 1.852-1.593 3.493-3.492 3.493c-1.851 0-3.492-1.641-3.492-3.493c0-1.875 1.617-3.515 3.492-3.515c1.899 0 3.492 1.664 3.492 3.515"/></svg>