<svg xmlns="http://www.w3.org/2000/svg" width="1em" height="1em" viewBox="0 0 56 56"><path fill="currentColor" d="M28 51.906c13.055 0 23.906-10.828 23.906-23.906c0-13.055-10.875-23.906-23.93-23.906C14.899 4.094 4.095 14.945 4.095 28c0 13.078 10.828 23.906 23.906 23.906m0-3.984C16.937 47.922 8.1 39.062 8.1 28c0-11.04 8.813-19.922 19.876-19.922c11.039 0 19.921 8.883 19.945 19.922c.023 11.063-8.883 19.922-19.922 19.922m-.023-18.633c.398 0 .843-.164 1.288-.61L39.6 18.344c-.28-.235-.96-.469-1.968-.469H18.297c-.985 0-1.688.234-1.969.469L26.664 28.68c.469.468.914.609 1.313.609m-4.641-1.242L15.18 19.89c-.141.234-.211.797-.211 1.617v12.984c0 .82.07 1.406.234 1.688Zm9.187 0l8.133 8.133c.164-.282.235-.867.235-1.688V21.508c0-.82-.07-1.383-.188-1.617Zm-4.57 3.094c-.844 0-1.5-.305-2.414-1.149l-.75-.703l-8.414 8.414c.281.258.937.422 1.922.422h19.312c.985 0 1.64-.164 1.922-.422l-8.414-8.414l-.75.703c-.914.844-1.57 1.149-2.414 1.149"/></svg>