<svg xmlns="http://www.w3.org/2000/svg" width="1em" height="1em" viewBox="0 0 56 56"><path fill="currentColor" d="M28 51.906c13.055 0 23.906-10.828 23.906-23.906c0-13.055-10.875-23.906-23.93-23.906C14.899 4.094 4.095 14.945 4.095 28c0 13.078 10.828 23.906 23.906 23.906m-9.305-26.554c-1.265 0-2.133-.61-2.133-1.852c0-1.266.82-1.898 2.133-1.898h18.516c1.336 0 2.133.632 2.133 1.898c0 1.242-.844 1.852-2.133 1.852Zm0 9.117c-1.265 0-2.133-.633-2.133-1.875c0-1.266.82-1.899 2.133-1.899h18.516c1.336 0 2.133.633 2.133 1.899c0 1.242-.844 1.875-2.133 1.875Z"/></svg>