<svg xmlns="http://www.w3.org/2000/svg" width="1em" height="1em" viewBox="0 0 56 56"><path fill="currentColor" d="M28 51.906c13.055 0 23.906-10.828 23.906-23.906c0-13.055-10.875-23.906-23.93-23.906C14.899 4.094 4.095 14.945 4.095 28c0 13.078 10.828 23.906 23.906 23.906m-.023-20.39c-1.243 0-1.922-.727-1.97-1.97L25.68 17.97c-.047-1.29.937-2.203 2.273-2.203c1.313 0 2.32.937 2.274 2.226l-.329 11.555c-.047 1.265-.75 1.969-1.921 1.969m0 8.625c-1.36 0-2.626-1.078-2.626-2.532c0-1.453 1.243-2.53 2.626-2.53c1.359 0 2.624 1.054 2.624 2.53c0 1.477-1.289 2.532-2.624 2.532"/></svg>