<svg xmlns="http://www.w3.org/2000/svg" width="1em" height="1em" viewBox="0 0 56 56"><path fill="currentColor" d="M27.988 51.297c.375 0 .961-.14 1.57-.445C42.66 43.469 47.185 40.375 47.185 31.96V14.289c0-2.414-1.055-3.187-3-4.008c-2.743-1.125-11.532-4.289-14.25-5.25c-.633-.187-1.266-.328-1.946-.328c-.656 0-1.289.14-1.922.328c-2.718.985-11.507 4.149-14.25 5.25c-1.945.797-3 1.594-3 4.008v17.672c0 8.414 4.547 11.484 17.625 18.89c.61.305 1.172.446 1.547.446m0-20.414c-1.218 0-1.922-.727-1.968-1.969l-.305-11.578c-.047-1.29.914-2.203 2.25-2.203c1.336 0 2.344.937 2.297 2.226l-.352 11.555c-.047 1.266-.726 1.969-1.922 1.969m0 8.625c-1.336 0-2.625-1.078-2.625-2.531c0-1.454 1.266-2.532 2.625-2.532c1.383 0 2.649 1.055 2.649 2.532c0 1.476-1.29 2.53-2.649 2.53"/></svg>