<svg xmlns="http://www.w3.org/2000/svg" width="1em" height="1em" viewBox="0 0 56 56"><path fill="currentColor" d="M28.008 15c3.577 0 6.597.292 9.061.875c2.464.583 4.337 1.44 5.619 2.568a5.786 5.786 0 0 1 1.373 1.741h3.59c1.135 0 2.1.224 2.896.671a4.45 4.45 0 0 1 1.823 1.914c.42.829.63 1.821.63 2.977c0 1.755-.398 3.306-1.194 4.653c-.796 1.347-1.91 2.399-3.345 3.157c-1.331.703-2.867 1.08-4.608 1.13l-.558.008c-.806 1.088-1.924 2.028-3.355 2.82c-1.488.823-3.244 1.458-5.267 1.905c-2.022.447-4.244.67-6.665.67c-2.431 0-4.659-.223-6.681-.67c-2.023-.447-3.778-1.082-5.267-1.905c-1.374-.76-2.46-1.657-3.257-2.691l-.097-.131h-.138c-1.782 0-3.355-.326-4.718-.98l-.311-.156c-1.434-.758-2.549-1.81-3.345-3.157C3.398 29.052 3 27.501 3 25.746c0-1.156.21-2.148.63-2.977a4.449 4.449 0 0 1 1.823-1.914c.717-.402 1.57-.623 2.56-.663l.335-.007h3.591a5.793 5.793 0 0 1 1.373-1.742c1.282-1.129 3.157-1.985 5.627-2.568c2.47-.583 5.493-.875 9.07-.875M11.39 22.818H8.348c-.872 0-1.543.262-2.011.785c-.47.524-.704 1.238-.704 2.143c0 1.221.281 2.309.843 3.263a5.918 5.918 0 0 0 2.347 2.24c.795.429 1.69.687 2.685.775a6.623 6.623 0 0 1-.11-.936l-.007-.32zm36.262 0h-3.043v7.95c0 .43-.039.848-.117 1.255c1.003-.086 1.9-.345 2.693-.773a5.933 5.933 0 0 0 2.34-2.241c.56-.954.841-2.042.841-3.263c0-.905-.234-1.62-.703-2.143c-.43-.48-1.029-.74-1.798-.78zm-12.136 6.15H20.5c-.37 0-.69.133-.957.4c-.267.268-.4.592-.4.974c0 .37.133.69.4.957a1.3 1.3 0 0 0 .801.392l.156.008h15.015c.381 0 .706-.133.973-.4c.267-.268.4-.586.4-.957c0-.382-.133-.706-.4-.973c-.23-.23-.5-.36-.813-.393zm0-6.297H20.5c-.37 0-.69.133-.957.4c-.267.268-.4.587-.4.957c0 .382.133.706.4.974a1.3 1.3 0 0 0 .801.392l.156.008h15.015c.381 0 .706-.133.973-.4c.267-.268.4-.592.4-.974c0-.37-.133-.69-.4-.956c-.23-.23-.5-.36-.813-.393z"/></svg>