<svg xmlns="http://www.w3.org/2000/svg" width="1em" height="1em" viewBox="0 0 56 56"><path fill="currentColor" d="M8.969 51.004c.984 0 1.781-.773 1.781-1.781V36.215c.586-.258 2.79-1.102 6.234-1.102c8.672 0 14.11 4.243 22.36 4.243c3.656 0 5.015-.399 6.797-1.196c1.617-.726 2.672-1.945 2.672-4.101V10.246c0-1.242-1.079-1.992-2.438-1.992c-1.148 0-3.305 1.008-7.336 1.008c-8.25 0-13.664-4.266-22.36-4.266c-3.656 0-5.038.398-6.82 1.195c-1.617.727-2.671 1.97-2.671 4.102v38.93c0 .96.82 1.78 1.78 1.78m30.375-15.211c-7.805 0-13.336-4.219-22.36-4.219c-2.578 0-4.898.305-6.234.844v-22.03c.328-.75 2.273-1.828 5.93-1.828c8.25 0 13.758 4.242 22.36 4.242c2.554 0 4.663-.305 6.233-.774v21.938c-.328.75-2.273 1.828-5.93 1.828"/></svg>