<svg xmlns="http://www.w3.org/2000/svg" width="1em" height="1em" viewBox="0 0 56 56"><path fill="currentColor" d="M28 51.906c13.055 0 23.906-10.828 23.906-23.906c0-13.055-10.875-23.906-23.93-23.906C14.899 4.094 4.095 14.945 4.095 28c0 13.078 10.828 23.906 23.906 23.906m0-3.984C16.937 47.922 8.1 39.062 8.1 28c0-11.04 8.813-19.922 19.876-19.922c11.039 0 19.921 8.883 19.945 19.922c.023 11.063-8.883 19.922-19.922 19.922M14.85 23.406h26.274v-.867c0-2.32-1.219-3.516-3.586-3.516h-11.18c-.797 0-1.219-.21-1.781-.68l-.727-.562c-.796-.61-1.335-.82-2.437-.82h-3.422c-1.992 0-3.14 1.148-3.14 3.398Zm0 11.719c0 2.32 1.243 3.516 3.586 3.516H37.89c2.039 0 3.234-1.196 3.234-3.516v-9.82H14.85Z"/></svg>