<svg xmlns="http://www.w3.org/2000/svg" width="1em" height="1em" viewBox="0 0 56 56"><path fill="currentColor" d="M46.867 9.262c-2.39-2.39-5.765-2.766-9.75-2.766H18.836c-3.937 0-7.312.375-9.703 2.766c-2.39 2.39-2.742 5.742-2.742 9.656v18.094c0 4.008.351 7.336 2.742 9.726c2.39 2.39 5.766 2.766 9.773 2.766h18.211c3.985 0 7.36-.375 9.75-2.766c2.391-2.39 2.742-5.718 2.742-9.726V18.988c0-4.008-.351-7.36-2.742-9.726m-36.703 9.14c0-2.46.305-4.992 1.711-6.398c1.43-1.43 3.984-1.734 6.445-1.734h7.993v8.578c-1.547-3-4.196-4.852-7.149-4.852c-3.351 0-5.883 2.508-5.883 5.93c0 2.953 2.086 5.39 5.04 6.726h-8.157Zm35.672-.07v8.32h-8.719c2.953-1.336 5.04-3.773 5.04-6.726c0-3.422-2.532-5.93-5.907-5.93c-2.93 0-5.578 1.852-7.125 4.852V10.27h8.625c2.414 0 4.945.328 6.375 1.734c1.406 1.43 1.711 3.914 1.711 6.328m-20.672 7.969c-4.617 0-8.578-3.164-8.578-6.117c0-1.782 1.078-2.86 2.766-2.86c3.468 0 6.515 3.867 6.515 8.32v.657Zm5.11 0h-.704v-.656c0-4.454 3.024-8.32 6.493-8.32c1.71 0 2.789 1.077 2.789 2.859c0 2.953-3.961 6.117-8.578 6.117m7.476 19.43h-8.625V30.87h.188c1.546 4.828 7.336 9.047 10.945 9.586c1.336.188 2.156-.773 2.156-1.805c0-1.125-.68-1.875-1.898-1.992c-3.235-.351-7.758-4.57-9.117-7.43h14.437v8.415c0 2.437-.305 4.921-1.71 6.351c-1.43 1.406-3.962 1.734-6.376 1.734m-19.5 0c-2.414 0-4.945-.329-6.351-1.735c-1.43-1.43-1.735-3.914-1.735-6.352v-8.413H24.04c-1.36 2.859-5.883 7.078-9.117 7.43c-1.219.116-1.899.866-1.899 1.991c0 1.032.82 1.992 2.157 1.805c3.61-.539 9.398-4.758 10.945-9.586h.188v14.86Z"/></svg>