<svg xmlns="http://www.w3.org/2000/svg" width="1em" height="1em" viewBox="0 0 56 56"><path fill="currentColor" d="m7.586 42.941l16.266 9.235c2.789 1.593 5.46 1.617 8.296 0l16.266-9.235c2.18-1.242 3.375-2.507 3.375-5.906V18.801c0-3.305-1.219-4.5-3.21-5.649l-16.313-9.28c-2.906-1.665-5.696-1.641-8.532 0l-16.312 9.28C5.43 14.301 4.21 15.496 4.21 18.801v18.234c0 3.399 1.195 4.664 3.375 5.906m2.203-3.28c-1.336-.75-1.781-1.477-1.781-2.743V18.965c0-1.172.469-1.852 1.64-2.531l15.75-9.024c1.782-1.008 3.375-1.055 5.204 0l15.75 9.024c1.172.68 1.64 1.359 1.64 2.53v17.954c0 1.266-.445 1.992-1.781 2.742L30.6 48.543c-1.874 1.055-3.398 1.031-5.203 0Z"/></svg>