<svg xmlns="http://www.w3.org/2000/svg" width="1em" height="1em" viewBox="0 0 56 56"><path fill="currentColor" d="M28 51.906c13.055 0 23.906-10.828 23.906-23.906c0-13.055-10.875-23.906-23.93-23.906C14.899 4.094 4.095 14.945 4.095 28c0 13.078 10.828 23.906 23.906 23.906m0-3.984C16.937 47.922 8.1 39.062 8.1 28c0-11.04 8.813-19.922 19.876-19.922c11.039 0 19.921 8.883 19.945 19.922c.023 11.063-8.883 19.922-19.922 19.922m-6.094-8.602h12.188c1.617 0 2.39-.797 2.39-2.554V27.39c0-1.547-.586-2.344-1.828-2.532V22.07c0-4.57-2.765-7.523-6.656-7.523c-3.89 0-6.656 2.953-6.656 7.523v2.813c-1.243.187-1.852.984-1.852 2.508v9.375c0 1.757.773 2.554 2.414 2.554m1.875-17.507c0-2.954 1.688-4.899 4.219-4.899c2.531 0 4.219 1.945 4.219 4.898v3.024H23.78Z"/></svg>