<svg xmlns="http://www.w3.org/2000/svg" width="1em" height="1em" viewBox="0 0 56 56"><path fill="currentColor" fill-rule="evenodd" d="M28 52C14.745 52 4 41.255 4 28S14.745 4 28 4s24 10.745 24 24s-10.745 24-24 24m4.411-20.48v-1.797h-8.97c-.031-.429-.063-.874-.063-1.351s.032-.939.08-1.384h8.953v-1.797h-8.588c1.034-3.451 3.88-5.233 7.475-5.233c1.097 0 2.401.128 3.085.287v-3.022c-.652-.207-2.035-.366-3.117-.366c-5.47 0-9.924 2.847-11.133 8.334h-3.276v1.797h3.006c-.048.445-.064.907-.064 1.384c0 .46.016.922.064 1.351h-3.006v1.798h3.276c1.21 5.487 5.646 8.35 11.15 8.35c1.112 0 2.432-.128 3.116-.319v-3.037c-.636.174-1.972.27-3.117.27c-3.61 0-6.441-1.797-7.475-5.264z"/></svg>