<svg xmlns="http://www.w3.org/2000/svg" width="1em" height="1em" viewBox="0 0 56 56"><path fill="currentColor" d="M28 51.906c13.055 0 23.906-10.828 23.906-23.906c0-13.055-10.875-23.906-23.93-23.906C14.899 4.094 4.095 14.945 4.095 28c0 13.078 10.828 23.906 23.906 23.906m0-3.984C16.937 47.922 8.1 39.062 8.1 28c0-11.04 8.813-19.922 19.876-19.922c11.039 0 19.921 8.883 19.945 19.922c.023 11.063-8.883 19.922-19.922 19.922m6.703-14.719c-7.102 0-11.648-4.453-11.648-11.555c0-1.476.398-3.562.82-4.664c.117-.304.14-.492.14-.609a.76.76 0 0 0-.773-.75a2.14 2.14 0 0 0-.75.14c-4.852 1.922-8.11 7.172-8.11 12.68c0 7.711 5.884 13.22 13.595 13.22c5.624 0 10.476-3.47 12.164-7.712c.117-.305.14-.61.14-.703c0-.492-.398-.82-.773-.82c-.14 0-.305.023-.563.093c-.984.352-2.625.68-4.242.68"/></svg>