<svg xmlns="http://www.w3.org/2000/svg" width="1em" height="1em" viewBox="0 0 56 56"><path fill="currentColor" fill-rule="evenodd" d="M30.014 30.014v16.158l3.757-3.758a2 2 0 0 1 2.829 2.829l-7.071 7.07a2.036 2.036 0 0 1-.052.05a1.995 1.995 0 0 1-1.463.637a1.99 1.99 0 0 1-1.293-.474a2.014 2.014 0 0 1-.25-.212l-7.07-7.071a2 2 0 1 1 2.828-2.829l3.785 3.785V30.014H9.828l3.758 3.757a2 2 0 0 1-2.829 2.829l-7.07-7.071a2.036 2.036 0 0 1-.05-.052A1.995 1.995 0 0 1 3 28.014c0-.493.178-.945.474-1.293c.063-.088.134-.171.212-.25l7.071-7.07a2 2 0 1 1 2.829 2.828L9.8 26.014h16.213V9.801l-3.785 3.785a2 2 0 0 1-2.829-2.829l7.071-7.07c.079-.08.162-.15.25-.213A1.99 1.99 0 0 1 28.013 3c.578 0 1.098.245 1.463.637a.813.813 0 0 1 .052.05l7.07 7.07a2 2 0 1 1-2.828 2.829l-3.757-3.758v16.186h16.185l-3.785-3.785a2 2 0 0 1 2.829-2.829l7.07 7.071c.08.079.15.162.213.25c.296.348.474.8.474 1.293c0 .578-.245 1.098-.637 1.463a2.036 2.036 0 0 1-.05.052l-7.07 7.07a2 2 0 1 1-2.829-2.828l3.758-3.757z"/></svg>