<svg xmlns="http://www.w3.org/2000/svg" width="1em" height="1em" viewBox="0 0 56 56"><path fill="currentColor" d="M14.148 50.395c.797 0 1.29-.352 1.899-1.243l13.851-20.46L43.422 8.745c.305-.398.445-.82.445-1.36c0-.96-.867-1.78-1.922-1.78c-.843 0-1.336.328-1.992 1.265L26.43 26.863L12.602 47.16c-.305.446-.47.914-.47 1.43c0 1.031.845 1.804 2.016 1.804m.54-22.946c5.062 0 8.109-4.148 8.109-10.758c0-6.609-3.07-10.687-8.11-10.687c-5.015 0-8.109 4.102-8.109 10.687c0 6.633 3.07 10.758 8.11 10.758m0-3.281c-2.72 0-4.313-2.742-4.313-7.477c0-4.664 1.617-7.43 4.313-7.43c2.695 0 4.312 2.743 4.312 7.43c0 4.735-1.594 7.477-4.312 7.477m26.624 25.828c5.063 0 8.11-4.148 8.11-10.734c0-6.633-3.07-10.711-8.11-10.711c-5.015 0-8.109 4.101-8.109 10.71c0 6.61 3.07 10.735 8.11 10.735m0-3.258c-2.718 0-4.312-2.765-4.312-7.476c0-4.688 1.617-7.43 4.313-7.43c2.695 0 4.312 2.719 4.312 7.43c0 4.71-1.594 7.476-4.312 7.476"/></svg>