<svg xmlns="http://www.w3.org/2000/svg" width="1em" height="1em" viewBox="0 0 56 56"><path fill="currentColor" d="M28 51.906c13.055 0 23.906-10.828 23.906-23.906c0-13.055-10.875-23.906-23.93-23.906C14.899 4.094 4.095 14.945 4.095 28c0 13.078 10.828 23.906 23.906 23.906m0-3.984C16.937 47.922 8.1 39.062 8.1 28c0-11.04 8.813-19.922 19.876-19.922c11.039 0 19.921 8.883 19.945 19.922c.023 11.063-8.883 19.922-19.922 19.922m0-21.234c3.398.023 6.117-2.883 6.117-6.704c0-3.562-2.719-6.539-6.117-6.539c-3.399 0-6.117 2.977-6.117 6.54c0 3.82 2.718 6.68 6.117 6.703M17.078 39.977h21.82c.938 0 1.407-.633 1.407-1.477c0-2.625-3.938-9.398-12.305-9.398c-8.367 0-12.305 6.773-12.305 9.398c0 .844.469 1.477 1.383 1.477"/></svg>