<svg xmlns="http://www.w3.org/2000/svg" width="1em" height="1em" viewBox="0 0 56 56"><path fill="currentColor" d="M28 51.906c13.055 0 23.906-10.828 23.906-23.906c0-13.055-10.875-23.906-23.93-23.906C14.899 4.094 4.095 14.945 4.095 28c0 13.078 10.828 23.906 23.906 23.906m0-3.984C16.937 47.922 8.1 39.062 8.1 28c0-11.04 8.813-19.922 19.876-19.922c11.039 0 19.921 8.883 19.945 19.922c.023 11.063-8.883 19.922-19.922 19.922m-.023-26.602c-8.016 0-15.422 2.438-15.422 8.203v.774c0 1.71.937 2.812 2.742 2.578c1.36-.21 2.695-.422 4.992-.867c1.664-.281 2.133-1.055 2.156-2.555v-1.312c0-.446.375-.68.703-.774c.844-.187 2.696-.398 4.852-.398s3.937.164 4.851.398c.329.094.68.399.68.774l.024 1.312c.023 1.477.468 2.274 2.156 2.555c2.203.422 3.562.656 4.969.867c1.804.234 2.742-.844 2.742-2.578v-.774c0-5.742-7.383-8.203-15.445-8.203"/></svg>