<svg xmlns="http://www.w3.org/2000/svg" width="1em" height="1em" viewBox="0 0 56 56"><path fill="currentColor" d="M28 51.906c13.055 0 23.906-10.828 23.906-23.906c0-13.055-10.875-23.906-23.93-23.906C14.899 4.094 4.095 14.945 4.095 28c0 13.078 10.828 23.906 23.906 23.906m-.07-12.234c-1.313 0-2.016-.961-2.016-2.32v-7.29h-7.687c-1.383 0-2.344-.726-2.344-2.015c0-1.336.89-2.086 2.344-2.086h7.687v-7.758c0-1.36.703-2.32 2.016-2.32c1.312 0 2.109.914 2.109 2.32v7.758h7.71c1.43 0 2.321.75 2.321 2.086c0 1.289-.937 2.015-2.32 2.015H30.04v7.29c0 1.406-.797 2.32-2.11 2.32"/></svg>