<svg xmlns="http://www.w3.org/2000/svg" width="1em" height="1em" viewBox="0 0 56 56"><path fill="currentColor" d="M28 51.906c13.055 0 23.906-10.828 23.906-23.906c0-13.055-10.875-23.906-23.93-23.906C14.899 4.094 4.095 14.945 4.095 28c0 13.078 10.828 23.906 23.906 23.906m0-3.984C16.937 47.922 8.1 39.062 8.1 28c0-11.04 8.813-19.922 19.876-19.922c11.039 0 19.921 8.883 19.945 19.922c.023 11.063-8.883 19.922-19.922 19.922m0-16.078c1.055 0 1.969-.75 1.969-1.875v-4.453h4.593c1.008 0 1.829-.868 1.829-1.782c0-.96-.82-1.828-1.829-1.828H29.97v-4.453c0-1.125-.914-1.851-1.97-1.851c-1.054 0-1.991.726-1.991 1.851v4.453h-4.57c-1.008 0-1.829.867-1.829 1.828c0 .914.82 1.782 1.828 1.782h4.57v4.453c0 1.125.938 1.875 1.993 1.875m-6.563 7.476h13.125c1.008 0 1.829-.914 1.829-1.828c0-.96-.82-1.804-1.829-1.804H21.437c-1.007 0-1.828.843-1.828 1.804c0 .914.82 1.828 1.828 1.828"/></svg>