<svg xmlns="http://www.w3.org/2000/svg" width="1em" height="1em" viewBox="0 0 56 56"><path fill="currentColor" d="M10.996 40.094c0 .562.258 1.078.633 1.453l7.664 7.64c.75.774 1.594 1.126 2.414 1.126c.82 0 1.617-.376 2.367-1.126l7.688-7.664c.398-.398.633-.914.633-1.453c0-1.054-.844-1.851-1.782-1.851c-.703 0-1.148.258-1.523.633l-2.016 2.015l-3.61 4.102l.235-7.57v-17.79c0-5.93 3.281-9.914 8.742-9.914c5.063 0 8.602 3.54 8.602 8.86c0 5.133-3.469 8.742-8.25 8.742c-1.664 0-2.086-.352-2.906-.352c-1.008 0-1.828.68-1.828 1.735c0 .703.351 1.242.89 1.64c.89.703 2.367.961 3.727.961c7.453 0 12.328-5.203 12.328-12.726c0-7.735-5.133-12.867-12.563-12.867c-7.617 0-12.773 5.062-12.773 14.085v17.649l.234 7.547l-3.562-4.078l-2.04-2.016c-.374-.375-.82-.633-1.523-.633c-.937 0-1.78.797-1.78 1.852"/></svg>