<svg xmlns="http://www.w3.org/2000/svg" width="1em" height="1em" viewBox="0 0 56 56"><path fill="currentColor" d="M28 51.906c13.055 0 23.906-10.828 23.906-23.906c0-13.055-10.875-23.906-23.93-23.906C14.899 4.094 4.095 14.945 4.095 28c0 13.078 10.828 23.906 23.906 23.906m0-3.984C16.937 47.922 8.1 39.062 8.1 28c0-11.04 8.813-19.922 19.876-19.922c11.039 0 19.921 8.883 19.945 19.922c.023 11.063-8.883 19.922-19.922 19.922m-.492-15.07c1.172 0 1.898-.727 1.898-1.664v-.282c0-1.312.75-2.133 2.39-3.21c2.274-1.5 3.891-2.884 3.891-5.673c0-3.914-3.468-6-7.453-6c-4.031 0-6.68 1.899-7.312 4.055c-.117.399-.211.774-.211 1.172c0 1.031.844 1.617 1.617 1.617c1.336 0 1.547-.726 2.297-1.594c.773-1.289 1.898-2.062 3.469-2.062c2.133 0 3.515 1.195 3.515 3c0 1.594-.984 2.367-3.023 3.773c-1.688 1.172-2.953 2.414-2.953 4.711V31c0 1.242.68 1.852 1.875 1.852m-.047 7.007c1.36 0 2.531-1.078 2.531-2.437c0-1.383-1.148-2.438-2.531-2.438c-1.383 0-2.531 1.078-2.531 2.438c0 1.336 1.171 2.437 2.53 2.437"/></svg>