<svg xmlns="http://www.w3.org/2000/svg" width="1em" height="1em" viewBox="0 0 56 56"><path fill="currentColor" d="M16.094 52.316c.937 0 1.594-.468 2.695-1.5l8.484-7.734l15.82.023c6.985.024 10.735-3.867 10.735-10.734V14.418c0-6.867-3.75-10.734-10.734-10.734H12.906c-6.96 0-10.734 3.843-10.734 10.734v17.953c0 6.89 3.773 10.734 10.734 10.711h1.102v6.82c0 1.453.773 2.414 2.086 2.414m.586-30.375c0-2.835 2.18-4.804 5.015-4.804c3.094 0 5.18 2.46 5.18 5.672c0 6.023-4.805 8.882-7.219 8.882c-.68 0-1.172-.492-1.172-1.101c0-.563.258-.938 1.149-1.195c1.547-.422 3.351-1.641 4.219-3.586h-.188c-.633.773-1.594.937-2.601.937c-2.672 0-4.383-2.11-4.383-4.805m12.797 0c0-2.835 2.18-4.804 5.015-4.804c3.094 0 5.18 2.46 5.18 5.672c0 6.023-4.805 8.882-7.219 8.882c-.68 0-1.172-.492-1.172-1.101c0-.563.258-.938 1.149-1.195c1.547-.422 3.351-1.641 4.218-3.586h-.187c-.633.773-1.594.937-2.602.937c-2.671 0-4.382-2.11-4.382-4.805"/></svg>