<svg xmlns="http://www.w3.org/2000/svg" width="1em" height="1em" viewBox="0 0 56 56"><path fill="currentColor" fill-rule="evenodd" d="M46.172 30.014H9.828l3.758 3.757a2 2 0 0 1-2.829 2.829l-7.07-7.071a2.036 2.036 0 0 1-.05-.052A1.995 1.995 0 0 1 3 28.014c0-.493.178-.945.474-1.293c.063-.088.134-.171.212-.25l7.071-7.07a2 2 0 1 1 2.829 2.828L9.8 26.014h36.398l-3.785-3.785a2 2 0 1 1 2.829-2.829l7.07 7.071c.08.079.15.162.213.25c.296.348.474.8.474 1.293c0 .578-.245 1.098-.637 1.463a2.036 2.036 0 0 1-.05.052l-7.07 7.07a2 2 0 1 1-2.829-2.828z"/></svg>