<svg xmlns="http://www.w3.org/2000/svg" width="1em" height="1em" viewBox="0 0 56 56"><path fill="currentColor" fill-rule="evenodd" d="M42.84 16.12L16.12 42.84h5.526a2.08 2.08 0 1 1 0 4.16H11.248l-.074-.001a2.074 2.074 0 0 1-1.544-.608a2.071 2.071 0 0 1-.602-1.3A2.094 2.094 0 0 1 9 44.752V34.354a2.08 2.08 0 1 1 4.16 0v5.567l26.76-26.762h-5.566a2.08 2.08 0 1 1 0-4.159h10.398c.116 0 .229.01.34.028c.473.038.936.239 1.299.602c.425.424.627.987.608 1.544l.001.074v10.398a2.08 2.08 0 1 1-4.16 0z"/></svg>