<svg xmlns="http://www.w3.org/2000/svg" width="1em" height="1em" viewBox="0 0 56 56"><path fill="currentColor" d="M40.363 52.2V34.433c3.82-3.422 6.235-8.391 6.258-13.875c.023-10.313-8.414-18.727-18.633-18.727c-10.242 0-18.632 8.414-18.632 18.727c0 5.507 2.437 10.5 6.28 13.945v17.695c0 1.383.75 1.969 1.712 1.969c.797 0 1.43-.469 2.062-1.102l7.617-7.593c.399-.375.703-.516.985-.516c.281 0 .562.14.984.516l7.617 7.593c.657.657 1.29 1.102 2.063 1.102c.984 0 1.687-.586 1.687-1.969M28.012 35.511c-8.344-.024-14.836-6.657-14.836-14.953c0-8.32 6.492-15 14.836-15c8.32 0 14.812 6.68 14.836 15c.023 8.296-6.516 14.976-14.836 14.953"/></svg>