<svg xmlns="http://www.w3.org/2000/svg" width="1em" height="1em" viewBox="0 0 56 56"><path fill="currentColor" d="M29.885 53a.913.913 0 0 0 .23-.08a3.53 3.53 0 0 0 .23-.127l17.991-10.248c1.073-.613 1.888-1.314 2.447-2.102c.56-.79.839-2.019.839-3.688v-17.9c0-.705-.061-1.287-.184-1.747L29.885 29.425zm-3.148 0V29.425L5.184 17.108C5.06 17.568 5 18.15 5 18.855v17.9c0 1.67.283 2.899.85 3.688c.567.788 1.379 1.49 2.436 2.102L26.3 52.793c.076.046.149.088.218.127a.749.749 0 0 0 .218.08m1.586-26.333l9.811-5.56l-21.76-12.431l-8.433 4.802c-.52.291-.95.59-1.287.896zm13.005-7.376l8.64-4.917a7.259 7.259 0 0 0-1.264-.896L32.482 4.241C31.057 3.414 29.67 3 28.322 3c-1.363 0-2.757.414-4.181 1.24l-4.665 2.643z"/></svg>