<svg xmlns="http://www.w3.org/2000/svg" width="1em" height="1em" viewBox="0 0 56 56"><path fill="currentColor" d="M8.21 42.225L26.252 52.45c.642.367 1.272.55 1.891.55s1.257-.183 1.914-.55l18.02-10.225c1.054-.611 1.853-1.303 2.395-2.075c.543-.771.814-1.975.814-3.61V18.383c0-1.192-.225-2.178-.676-2.957c-.451-.78-1.158-1.452-2.12-2.018L32.257 4.192C30.883 3.397 29.515 3 28.155 3c-1.36 0-2.736.397-4.127 1.192L7.82 13.408c-.978.566-1.693 1.238-2.144 2.018c-.45.779-.676 1.765-.676 2.957V36.54c0 1.635.275 2.839.825 3.61c.55.772 1.345 1.464 2.385 2.075m2.063-3.026c-.673-.382-1.139-.783-1.399-1.204c-.26-.42-.39-.943-.39-1.57V19.116l17.86 10.202v19.028zm35.763 0l-16.093 9.147V29.318L47.8 19.116v17.309c0 .627-.13 1.15-.39 1.57c-.26.42-.718.822-1.375 1.204m-17.881-13.09L10.456 16.09l7.084-4.057l17.698 10.064zm10.774-6.098L21.162 9.969l4.402-2.499c1.742-.993 3.47-.993 5.181 0l15.108 8.62z"/></svg>