<svg xmlns="http://www.w3.org/2000/svg" width="1em" height="1em" viewBox="0 0 56 56"><path fill="currentColor" d="M28 51.906c13.055 0 23.906-10.828 23.906-23.906c0-13.055-10.875-23.906-23.93-23.906C14.899 4.094 4.095 14.945 4.095 28c0 13.078 10.828 23.906 23.906 23.906m0-3.984C16.937 47.922 8.1 39.062 8.1 28c0-11.04 8.813-19.922 19.876-19.922c11.039 0 19.921 8.883 19.945 19.922c.023 11.063-8.883 19.922-19.922 19.922m-6.82-22.055c1.382 0 2.53-1.219 2.53-2.93c0-1.71-1.148-2.93-2.53-2.93c-1.36 0-2.485 1.22-2.485 2.93c0 1.711 1.125 2.93 2.485 2.93m13.71 0c1.383 0 2.532-1.219 2.532-2.93c0-1.71-1.149-2.93-2.531-2.93c-1.383 0-2.508 1.22-2.508 2.93c0 1.711 1.125 2.93 2.508 2.93M28 39.297c5.648 0 9.187-4.008 9.187-5.531c0-.305-.234-.446-.468-.258c-1.711 1.43-4.594 2.836-8.72 2.836c-4.148 0-7.1-1.5-8.741-2.813c-.235-.21-.469-.07-.469.235c0 1.523 3.539 5.53 9.21 5.53"/></svg>