<svg xmlns="http://www.w3.org/2000/svg" width="1em" height="1em" viewBox="0 0 56 56"><path fill="currentColor" d="M7.656 35.664c1.172-4.102 3.985-6.61 7.852-7.383c1.617-4.992 5.812-7.476 10.64-7.476c.54 0 1.055.047 1.524.117c1.898-2.79 4.828-4.172 8.578-4.125c-.773-2.016-2.977-3.75-6.492-3.75c-1.031 0-1.875.187-2.766.469c-1.922-2.79-4.969-4.524-8.437-4.524c-5.39 0-9.867 4.29-10.149 9.633c-4.125.844-7.148 4.383-7.148 8.672c0 3.844 2.344 7.148 6.398 8.367m10.805 11.344h27.117c5.484 0 9.164-3.89 9.164-8.79c0-4.288-3.047-7.85-7.148-8.671c-.281-5.32-4.664-9.656-10.078-9.656c-3.54 0-6.633 1.78-8.508 4.523a8.403 8.403 0 0 0-2.742-.445c-4.196 0-7.641 3.047-8.25 7.125c-4.36.164-7.805 3.68-7.805 7.968c0 4.43 3.305 7.946 8.25 7.946"/></svg>