<svg xmlns="http://www.w3.org/2000/svg" width="1em" height="1em" viewBox="0 0 56 56"><path fill="currentColor" d="M26 49.451c1.581 0 2.721-1.163 2.721-2.721V9.637c0-1.558-1.14-2.86-2.767-2.86c-1.14 0-1.907.511-3.14 1.674l-10.256 9.698a.911.911 0 0 1-.604.209H5.046C1.768 18.358 0 20.148 0 23.637v9.023c0 3.489 1.767 5.28 5.047 5.28h6.907c.232 0 .441.07.604.209l10.256 9.79c1.116 1.047 2.046 1.512 3.186 1.512m22.489-4.744c.906.604 2.023.372 2.674-.558c3.07-4.28 4.837-9.977 4.837-15.93c0-5.977-1.744-11.675-4.837-15.954c-.674-.907-1.768-1.14-2.674-.535c-.884.605-1.024 1.744-.326 2.744c2.535 3.721 4.093 8.605 4.093 13.744c0 5.14-1.512 10.07-4.117 13.745c-.65 1-.534 2.14.35 2.744m-9.28-6.28c.791.559 1.93.373 2.605-.534c1.814-2.442 2.907-6.024 2.907-9.675c0-3.65-1.116-7.209-2.907-9.697c-.674-.907-1.79-1.093-2.605-.535c-1.023.674-1.14 1.86-.395 2.883c1.349 1.814 2.163 4.582 2.163 7.35c0 2.767-.86 5.534-2.186 7.371c-.698 1-.582 2.14.418 2.838"/></svg>