<svg xmlns="http://www.w3.org/2000/svg" width="1em" height="1em" viewBox="0 0 56 56"><path fill="currentColor" d="M26.68 12.579v35.308c0 .705.615 1.266 1.32 1.266c.705 0 1.338-.561 1.338-1.266V12.579c0-.705-.633-1.248-1.338-1.248c-.705 0-1.32.543-1.32 1.248M4.16 40.832h12.88c2.767 0 4.16-1.338 4.16-4.124V23.74c0-2.75-1.393-4.106-4.16-4.106H4.16C1.393 19.633 0 20.99 0 23.74v12.97c0 2.785 1.393 4.123 4.16 4.123m34.801 0H51.84c2.767 0 4.16-1.338 4.16-4.124V23.74c0-2.75-1.393-4.106-4.16-4.106H38.961c-2.767 0-4.16 1.357-4.16 4.106v12.97c0 2.785 1.393 4.123 4.16 4.123"/></svg>