<svg xmlns="http://www.w3.org/2000/svg" width="1em" height="1em" viewBox="0 0 56 56"><path fill="currentColor" d="m35.36 28.89l15.187-8.812c1.875-1.101 2.625-1.969 2.625-3.258c0-1.265-.75-2.133-2.625-3.234L32.195 2.946c-1.125-.657-2.039-.962-2.976-.962c-.938 0-1.852.305-2.977.961L15.578 9.11l2.836 2.86l9.773-5.578c.375-.211.704-.328 1.032-.328c.328 0 .656.117 1.03.328L48.086 16.61c.117.047.187.118.187.211c0 .117-.07.188-.187.235l-15.61 8.953Zm14.437 23.508c.703.704 1.875.704 2.555 0a1.79 1.79 0 0 0 0-2.554L6.086 3.602c-.703-.704-1.852-.704-2.578 0c-.703.68-.68 1.875 0 2.554Zm-30.07-25.476L7.023 14.219c-1.289.89-1.78 1.617-1.78 2.672c0 1.218.679 2.039 2.483 3.093Zm9.492 16.312c.843 0 1.57-.398 2.554-.984l2.438-1.453l-2.766-2.766l-1.336.774c-.328.187-.633.328-.89.328c-.258 0-.563-.14-.89-.328L6.601 26.265c-.657.305-1.36 1.102-1.36 2.063c0 .727.422 1.524 1.29 2.04L26.663 42.25c.984.586 1.71.984 2.555.984m13.195-7.265l9.492-5.602c.891-.539 1.29-1.312 1.29-2.039c0-.96-.727-1.758-1.36-2.062L39.719 33.25ZM29.219 54.016c.843 0 1.57-.399 2.554-.985l9.258-5.437l-2.742-2.719l-8.18 4.734c-.328.188-.633.328-.89.328c-.258 0-.563-.14-.89-.328L6.601 37.047c-.657.328-1.36 1.101-1.36 2.062c0 .727.422 1.547 1.29 2.04L26.663 53.03c.984.586 1.71.985 2.555.985m19.968-11.25l2.72-1.618c.866-.492 1.288-1.312 1.288-2.039c0-.96-.726-1.734-1.359-2.062l-5.274 3.07Z"/></svg>