<svg xmlns="http://www.w3.org/2000/svg" width="1em" height="1em" viewBox="0 0 56 56"><path fill="currentColor" d="M6.004 32.98c0 5.954 3.984 9.938 9.937 9.938c2.602 0 5.016-.89 6.703-2.25c-.937 2.531-2.671 4.453-3.68 5.625c-1.452 1.805-.773 4.195 1.782 4.195H35.23c2.555 0 3.235-2.39 1.782-4.195c-1.008-1.172-2.742-3.094-3.68-5.625c1.688 1.36 4.125 2.25 6.703 2.25c5.977 0 9.961-3.984 9.961-9.937c0-9.891-14.016-14.743-19.71-25.758c-.493-.961-1.032-1.711-2.298-1.711c-1.265 0-1.781.75-2.297 1.71C19.996 18.239 6.004 23.09 6.004 32.98m3.445-.046c0-7.899 13.031-11.766 18.54-23.602C33.495 21.168 46.55 25.035 46.55 32.934c0 4.054-2.696 6.726-6.75 6.726c-2.836 0-5.133-1.219-6.68-2.625c-1.406-1.242-3.445-.656-3.352 1.477c.258 2.414 1.875 6.023 3.54 8.015c.328.399.14.727-.212.727H22.902c-.375 0-.562-.328-.234-.727c1.664-1.992 3.281-5.601 3.539-8.015c.094-2.133-1.945-2.72-3.352-1.477c-1.547 1.406-3.843 2.625-6.68 2.625c-4.054 0-6.726-2.672-6.726-6.726"/></svg>