<svg xmlns="http://www.w3.org/2000/svg" width="1em" height="1em" viewBox="0 0 56 56"><path fill="currentColor" fill-rule="evenodd" d="M28 51.906C14.797 51.906 4.094 41.203 4.094 28S14.797 4.094 28 4.094S51.906 14.797 51.906 28S41.203 51.906 28 51.906M28 7.92c11.09 0 20.081 8.99 20.081 20.081c0 11.09-8.99 20.081-20.081 20.081c-11.09 0-20.081-8.99-20.081-20.081a20.023 20.023 0 0 1 6.185-14.497c.144-.138.33-.307.558-.507l.092-.071a.928.928 0 0 1 1.242.185l.019.023a.956.956 0 0 1-.112 1.318a15.42 15.42 0 0 0-.53.485A18.114 18.114 0 0 0 9.83 28c0 10.034 8.135 18.169 18.169 18.169S46.169 38.034 46.169 28S38.034 9.831 28 9.831v8.606a.956.956 0 1 1-1.913 0V8.875a.956.956 0 0 1 1.127-.941c.26-.01.523-.015.786-.015M17.031 18.438c-.82-1.172.399-2.391 1.57-1.57L31 25.515c2.227 1.547 2.601 4.172.75 6.093c-1.899 1.852-4.523 1.453-6.07-.773Z"/></svg>