<svg xmlns="http://www.w3.org/2000/svg" width="1em" height="1em" viewBox="0 0 56 56"><path fill="currentColor" d="M7.715 48.004h40.57c4.899 0 7.36-2.438 7.36-7.266V27.801c0-2.11-.352-3.094-1.336-4.453l-8.11-10.946c-2.554-3.492-3.96-4.406-8.11-4.406H17.91c-4.148 0-5.555.914-8.11 4.406L1.692 23.348C.707 24.707.355 25.69.355 27.8v12.937c0 4.852 2.485 7.266 7.36 7.266m20.273-13.57c-3.515 0-5.765-3.047-5.765-5.93v-.07c0-1.055-.633-2.04-1.922-2.04H5.348c-.774 0-.938-.656-.563-1.171l8.672-11.907c1.101-1.5 2.484-2.039 4.195-2.039h20.696c1.71 0 3.093.54 4.195 2.04l8.648 11.906c.375.515.211 1.172-.562 1.172H35.7c-1.289 0-1.922.984-1.922 2.039v.07c0 2.883-2.25 5.93-5.789 5.93"/></svg>