<svg xmlns="http://www.w3.org/2000/svg" width="1em" height="1em" viewBox="0 0 56 56"><path fill="currentColor" d="M14.875 52.445c14.063 0 25.055-9.539 25.055-24.445c0-6.54-5.414-11.953-11.93-11.953c-2.32 0-4.523.68-6.375 1.851C25.164 11.031 32.43 7.094 41.102 7.094c1.03 0 1.828-.797 1.828-1.758c0-1.008-.797-1.781-1.828-1.781c-14.063 0-25.055 9.539-25.055 24.445c0 6.54 5.414 11.953 11.953 11.953c2.32 0 4.5-.68 6.352-1.851c-3.54 6.867-10.805 10.804-19.477 10.804c-1.031 0-1.805.774-1.805 1.782c0 .96.774 1.757 1.805 1.757M28 36.367c-4.594 0-8.39-3.797-8.39-8.367s3.796-8.367 8.39-8.367c4.57 0 8.367 3.797 8.367 8.367S32.57 36.367 28 36.367m0-4.969c1.875 0 3.398-1.546 3.398-3.398A3.4 3.4 0 0 0 28 24.602A3.4 3.4 0 0 0 24.602 28A3.4 3.4 0 0 0 28 31.398"/></svg>