<svg xmlns="http://www.w3.org/2000/svg" width="1em" height="1em" viewBox="0 0 56 56"><path fill="currentColor" d="M28 51.906c13.055 0 23.906-10.828 23.906-23.906c0-13.055-10.875-23.906-23.93-23.906C14.899 4.094 4.095 14.945 4.095 28c0 13.078 10.828 23.906 23.906 23.906m0-3.984C16.937 47.922 8.1 39.062 8.1 28c0-11.04 8.813-19.922 19.876-19.922c11.039 0 19.921 8.883 19.945 19.922c.023 11.063-8.883 19.922-19.922 19.922M16.328 37h23.344C41.805 37 43 35.805 43 33.648V21.062c0-2.132-1.172-3.304-3.328-3.304H16.328c-2.133 0-3.328 1.172-3.328 3.305v12.585C13 35.828 14.172 37 16.328 37m.352-3.023c-.446 0-.563-.118-.563-.54V21.32c0-.445.117-.539.563-.539h22.593c.47 0 .563.117.563.54v12.116c0 .422-.117.54-.563.54Zm3.656 7.804h15.281c.774 0 1.36-.61 1.383-1.406c.023-.75-.61-1.406-1.383-1.406H20.336c-.75 0-1.36.633-1.36 1.383c0 .82.586 1.43 1.36 1.43"/></svg>