<svg xmlns="http://www.w3.org/2000/svg" width="1em" height="1em" viewBox="0 0 56 56"><path fill="currentColor" d="M7.785 30.672c.703 0 1.195-.516 1.594-1.125c1.312-1.992 2.86-3.235 5.18-3.235c2.343 0 3.703 1.22 4.851 3.211c.375.657.797 1.149 1.5 1.149s1.149-.492 1.5-1.125c.774-1.383 2.11-2.485 3.61-3.024v19.829c0 1.828-1.29 3.257-3.258 3.257c-1.922 0-3.211-1.453-3.211-3.257c0-1.43-.89-2.25-2.016-2.25c-1.101 0-1.945.82-1.945 2.25c0 4.007 3.047 7.195 7.172 7.195c4.148 0 7.218-3.188 7.218-7.195V26.523a6.94 6.94 0 0 1 3.61 3.024c.351.633.773 1.125 1.5 1.125c.703 0 1.125-.492 1.5-1.149c1.148-1.968 2.508-3.21 4.851-3.21c2.32 0 3.891 1.359 5.18 3.375c.398.609.89.984 1.594.984c.96 0 1.875-.774 1.875-2.04c0-8.366-6.328-19.968-20.11-21V4.54c0-1.242-.843-2.086-1.992-2.086c-1.125 0-1.968.844-1.968 2.086v3.094c-13.782 1.031-20.11 12.633-20.11 21c0 1.265.89 2.039 1.875 2.039"/></svg>