<svg xmlns="http://www.w3.org/2000/svg" width="1em" height="1em" viewBox="0 0 56 56"><path fill="currentColor" d="M7.785 30.672c.703 0 1.195-.516 1.594-1.125c1.312-1.992 2.86-3.235 5.18-3.235c2.343 0 3.703 1.22 4.851 3.211c.375.657.797 1.149 1.5 1.149s1.149-.492 1.5-1.125c.774-1.383 2.11-2.485 3.61-3.024v19.829c0 1.828-1.29 3.257-3.258 3.257c-1.922 0-3.211-1.453-3.211-3.257c0-1.43-.89-2.25-2.016-2.25c-1.101 0-1.945.82-1.945 2.25c0 4.007 3.047 7.195 7.172 7.195c4.148 0 7.218-3.188 7.218-7.195V26.523a6.94 6.94 0 0 1 3.61 3.024c.351.633.773 1.125 1.5 1.125c.703 0 1.125-.492 1.5-1.149c1.148-1.968 2.508-3.21 4.851-3.21c2.32 0 3.891 1.218 5.18 3.234c.398.61.89 1.125 1.594 1.125c.96 0 1.875-.774 1.875-2.04c0-8.366-6.328-19.968-20.11-21V4.54c0-1.242-.843-2.086-1.992-2.086c-1.125 0-1.968.844-1.968 2.086v3.094c-13.782 1.031-20.11 12.633-20.11 21c0 1.265.89 2.039 1.875 2.039m26.93-4.406c-1.383-2.04-3.938-3.516-6.727-3.516c-2.765 0-5.32 1.477-6.703 3.516c-.117.187-.164.257-.281.257c-.094 0-.188-.07-.281-.257c-1.313-2.344-3.493-3.399-5.696-3.399c-2.343 0-4.265 1.219-5.39 2.813c1.242-6.07 7.218-14.508 18.351-14.508c11.157 0 17.133 8.437 18.375 14.508c-1.125-1.594-3.047-2.813-5.39-2.813c-2.203 0-4.407 1.055-5.696 3.399c-.117.187-.187.257-.28.257c-.118 0-.165-.07-.282-.257"/></svg>