<svg xmlns="http://www.w3.org/2000/svg" width="1em" height="1em" viewBox="0 0 56 56"><path fill="currentColor" fill-rule="evenodd" d="M28 52C14.745 52 4 41.255 4 28S14.745 4 28 4s24 10.745 24 24s-10.745 24-24 24m3.356-19.714V19.27l3.143 3.143a1.713 1.713 0 0 0 2.428.004c.67-.67.669-1.756-.003-2.428l-6.054-6.054a1.718 1.718 0 0 0-1.504-.484a1.715 1.715 0 0 0-.952.484l-6.054 6.054a1.713 1.713 0 0 0-.004 2.428c.67.67 1.756.668 2.428-.004l3.143-3.143v13.016A4.286 4.286 0 1 1 23.642 28a1.714 1.714 0 1 0 0-3.428a7.714 7.714 0 1 0 7.714 7.714"/></svg>