<svg xmlns="http://www.w3.org/2000/svg" width="1em" height="1em" viewBox="0 0 16 16"><path fill="currentColor" d="m5.951.249l.981-.195l.195.981l-.981.195zm2.926 14.717l.981-.195l.195.981l-.981.195zM.055 9.071l.981-.195l.195.981l-.981.195zm14.718-2.926l.981-.195l.195.981l-.981.195zm-3.302-4.248l.556-.831l.831.556l-.556.831zM3.139 14.441l.56-.83l.83.56l-.56.83zM1.069 3.989l.56-.83l.83.56l-.56.83zm12.478 8.31l.556-.831l.831.556l-.556.831zM8.875 1.039L9.07.058l.981.195l-.195.981zM5.953 15.745l.195-.981l.981.195l-.195.981zM.061 6.931l.195-.981l.981.195l-.195.981zm14.706 2.923l.195-.981l.981.195l-.195.981zM3.139 1.628l.831-.556l.556.831l-.831.556zm8.338 12.473l.831-.556l.556.831l-.831.556zM1.071 12.033l.831-.556l.556.831l-.831.556zM13.539 3.63l.83-.56l.56.83l-.83.56z"/><path fill="currentColor" d="M14 8a5.99 5.99 0 0 0-2.258-4.681L8.42 8.31l-.84-.59l3.32-5A5.93 5.93 0 0 0 8 1.973a6 6 0 1 0 6 6.029z"/></svg>