<svg xmlns="http://www.w3.org/2000/svg" width="1em" height="1em" viewBox="0 0 24 24"><g fill="none"><rect width="9" height="19" x="2" y="8.364" stroke="currentColor" stroke-linecap="round" stroke-linejoin="round" stroke-width="2" rx="4.5" transform="rotate(-45 2 8.364)"/><path fill="currentColor" d="m11.546 18.617l.354-.353L5.535 11.9l-.354.353a4.5 4.5 0 0 0 6.364 6.364zm.707-13.435l-.354.354l6.365 6.364l.353-.354a4.5 4.5 0 1 0-6.364-6.364"/><path stroke="currentColor" stroke-linecap="round" stroke-linejoin="round" stroke-width="2" d="m11.546 18.617l.354-.353L5.535 11.9l-.354.353a4.5 4.5 0 0 0 6.364 6.364zm.707-13.435l-.354.354l6.365 6.364l.353-.354a4.5 4.5 0 1 0-6.364-6.364m-.353 8.839"/></g></svg>