<svg xmlns="http://www.w3.org/2000/svg" width="1em" height="1em" viewBox="0 0 24 24"><path fill="currentColor" fill-rule="evenodd" d="M1 12C1 5.925 5.925 1 12 1s11 4.925 11 11s-4.925 11-11 11S1 18.075 1 12m11.814-7.581a1 1 0 0 0-1.628 0l-5 7a1 1 0 0 0 0 1.162l5 7a1 1 0 0 0 1.628 0l5-7a1 1 0 0 0 0-1.162zM12 12.923L9.693 12L12 11.077l2.307.923zm.371 2.005l1.832-.732L12 17.279l-2.203-3.083l1.832.732a1 1 0 0 0 .742 0M12 6.72L9.797 9.804l1.832-.732a1 1 0 0 1 .742 0l1.832.732z" clip-rule="evenodd"/></svg>