<svg xmlns="http://www.w3.org/2000/svg" width="1em" height="1em" viewBox="0 0 24 24"><path fill="currentColor" fill-rule="evenodd" d="M6 3a3 3 0 0 0-3 3v12a3 3 0 0 0 3 3h12a3 3 0 0 0 3-3V6a3 3 0 0 0-3-3zm4 5a1 1 0 0 1 1-1h6a1 1 0 1 1 0 2h-6a1 1 0 0 1-1-1m0 4a1 1 0 0 1 1-1h6a1 1 0 1 1 0 2h-6a1 1 0 0 1-1-1m0 4a1 1 0 0 1 1-1h6a1 1 0 1 1 0 2h-6a1 1 0 0 1-1-1M7 7a1 1 0 0 0 0 2h.001a1 1 0 0 0 0-2zm-1 5a1 1 0 0 1 1-1h.001a1 1 0 1 1 0 2H7a1 1 0 0 1-1-1m1 3a1 1 0 1 0 0 2h.001a1 1 0 1 0 0-2z" clip-rule="evenodd"/></svg>