<svg xmlns="http://www.w3.org/2000/svg" width="1em" height="1em" viewBox="0 0 24 24"><path fill="currentColor" d="m14.5 12.75l1.55 1.975q.05.075.55.275q.425 0 .625-.387t-.075-.738L15.75 12l1.425-1.9q.275-.35.075-.725T16.6 9q-.175 0-.312.075t-.238.2L14.5 11.25v-1.5q0-.325-.213-.538T13.75 9q-.325 0-.537.213T13 9.75v4.5q0 .325.213.538t.537.212q.325 0 .538-.213t.212-.537zm-5 .75v.75q0 .325.213.538t.537.212q.325 0 .538-.213T11 14.25v-.75h.25q.325 0 .538-.213T12 12.75q0-.325-.213-.537T11.25 12H11V9.75q0-.325-.213-.537T10.25 9q-.325 0-.537.213T9.5 9.75V12H8V9.75q0-.325-.213-.537T7.25 9q-.325 0-.537.213T6.5 9.75v3q0 .325.213.538t.537.212zM5 21q-.825 0-1.412-.587T3 19V5q0-.825.588-1.412T5 3h14q.825 0 1.413.588T21 5v14q0 .825-.587 1.413T19 21z"/></svg>