<svg xmlns="http://www.w3.org/2000/svg" width="1em" height="1em" viewBox="0 0 24 24"><path fill="currentColor" d="M5 17.85q1.35-1.325 3.138-2.087T12 15q2.075 0 3.863.763T19 17.85V5H5zM12 13q1.45 0 2.475-1.025T15.5 9.5q0-1.45-1.025-2.475T12 6q-1.45 0-2.475 1.025T8.5 9.5q0 1.45 1.025 2.475T12 13m-7 8q-.825 0-1.412-.587T3 19V5q0-.825.588-1.412T5 3h14q.825 0 1.413.588T21 5v14q0 .825-.587 1.413T19 21zm2-2h10v-.25q-1.05-.875-2.325-1.312T12 17q-1.4 0-2.675.438T7 18.75zm5-8q-.625 0-1.062-.437T10.5 9.5q0-.625.438-1.062T12 8q.625 0 1.063.438T13.5 9.5q0 .625-.437 1.063T12 11m0 .425"/></svg>