<svg xmlns="http://www.w3.org/2000/svg" width="1em" height="1em" viewBox="0 0 24 24"><path fill="currentColor" d="M17.5 16.5v2q0 .2.15.35T18 19q.2 0 .35-.15t.15-.35v-2h2q.2 0 .35-.15T21 16q0-.2-.15-.35t-.35-.15h-2v-2q0-.2-.15-.35T18 13q-.2 0-.35.15t-.15.35v2h-2q-.2 0-.35.15T15 16q0 .2.15.35t.35.15zM18 21q-2.075 0-3.537-1.463T13 16q0-2.075 1.463-3.537T18 11q2.075 0 3.538 1.463T23 16q0 2.075-1.463 3.538T18 21M4 17V8q0-.475.213-.9t.587-.7l6-4.5q.275-.2.575-.3T12 1.5q.325 0 .625.1t.575.3l6 4.5q.375.275.588.7T20 8v1.3q-.475-.15-.975-.225T18 9V8l-6-4.5L6 8v9h5.075q.075.525.225 1.025t.375.975H6q-.825 0-1.412-.587T4 17m8-6.75"/></svg>