<svg xmlns="http://www.w3.org/2000/svg" width="1em" height="1em" viewBox="0 0 24 24"><path fill="currentColor" d="M12 2h.5q.25 0 .5.05v2.025q-.25-.05-.488-.063T12 4Q9.475 4 7.738 5.738T6 10.2q0 1.775 1.475 4.063T12 19.35q3.05-2.8 4.525-5.087T18 10.2V10h2v.2q0 1.65-.763 3.275t-1.824 3.05q-1.063 1.425-2.2 2.538t-1.888 1.762q-.275.25-.625.375t-.7.125q-.35 0-.7-.125t-.625-.375Q9.05 19.325 7.8 17.9t-2.087-2.762q-.838-1.338-1.275-2.575T4 10.2q0-3.75 2.413-5.975T12 2m0 10q.825 0 1.413-.587T14 10q0-.825-.587-1.412T12 8q-.825 0-1.412.588T10 10q0 .825.588 1.413T12 12m6-7v2q0 .425.288.713T19 8q.425 0 .713-.288T20 7V5h2q.425 0 .713-.288T23 4q0-.425-.288-.712T22 3h-2V1q0-.425-.288-.712T19 0q-.425 0-.712.288T18 1v2h-2q-.425 0-.712.288T15 4q0 .425.288.713T16 5z"/></svg>