<svg xmlns="http://www.w3.org/2000/svg" width="1em" height="1em" viewBox="0 0 24 24"><path fill="currentColor" d="M14 20H8q-.825 0-1.412-.587T6 18V8q0-.425.288-.712T7 7q.425 0 .713.288T8 8v10h6q.425 0 .713.288T15 19q0 .425-.288.713T14 20M11.5 6q-.825 0-1.412-.587T9.5 4q0-.825.588-1.412T11.5 2q.825 0 1.413.588T13.5 4q0 .825-.587 1.413T11.5 6M16 21v-4h-5q-.825 0-1.412-.587T9 15V9.5q0-1.05.725-1.775T11.5 7q1.05 0 1.775.725T14 9.5V14h2q.825 0 1.413.588T18 16v5q0 .425-.288.713T17 22q-.425 0-.712-.288T16 21"/></svg>