<svg xmlns="http://www.w3.org/2000/svg" width="1em" height="1em" viewBox="0 0 24 24"><path fill="currentColor" d="M6 19q-1.25 0-2.125-.875T3 16H1V7q0-.825.588-1.412T3 5h14l6 6v5h-2q0 1.25-.875 2.125T18 19q-1.25 0-2.125-.875T15 16H9q0 1.25-.875 2.125T6 19m9-9h4l-3-3h-1zm-6 0h4V7H9zm-6 0h4V7H3zm3 7.25q.525 0 .888-.363T7.25 16q0-.525-.363-.888T6 14.75q-.525 0-.888.363T4.75 16q0 .525.363.888T6 17.25m12 0q.525 0 .888-.363T19.25 16q0-.525-.363-.888T18 14.75q-.525 0-.888.363T16.75 16q0 .525.363.888t.887.362M3 14h.8q.425-.45.975-.725T6 13q.675 0 1.225.275T8.2 14h7.6q.425-.45.975-.725T18 13q.675 0 1.225.275T20.2 14h.8v-2H3zm18-2H3z"/></svg>