<svg xmlns="http://www.w3.org/2000/svg" width="1em" height="1em" viewBox="0 0 24 24"><path fill="currentColor" d="m10.95 16.55l5.65-5.65l-1.425-1.425L10.95 13.7l-2.125-2.125L7.4 13zM12 22q-1.875 0-3.512-.712t-2.85-1.925q-1.213-1.213-1.925-2.85T3 13q0-1.875.713-3.512t1.924-2.85q1.213-1.213 2.85-1.925T12 4q1.875 0 3.513.713t2.85 1.925q1.212 1.212 1.925 2.85T21 13q0 1.875-.712 3.513t-1.925 2.85q-1.213 1.212-2.85 1.925T12 22M5.6 2.35L7 3.75L2.75 8l-1.4-1.4zm12.8 0l4.25 4.25l-1.4 1.4L17 3.75z"/></svg>