<svg xmlns="http://www.w3.org/2000/svg" width="1em" height="1em" viewBox="0 0 24 24"><path fill="currentColor" d="M8 16h8q.425 0 .713-.288T17 15q0-.425-.288-.712T16 14H8q-.425 0-.712.288T7 15q0 .425.288.713T8 16m1.575-5.5q.5-.475 1.125-.737T12 9.5q1 0 1.825.55t1.25 1.45q.125.275.413.375t.562-.025q.3-.125.425-.4t-.025-.55q-.65-1.3-1.838-2.1T12 8q-.975 0-1.888.375T8.5 9.45v-.7q0-.325-.213-.537T7.75 8q-.325 0-.537.213T7 8.75v2.5q0 .325.213.538T7.75 12h2.5q.325 0 .538-.213T11 11.25q0-.325-.213-.537t-.537-.213zM12 22q-2.075 0-3.9-.788t-3.175-2.137q-1.35-1.35-2.137-3.175T2 12q0-2.075.788-3.9t2.137-3.175q1.35-1.35 3.175-2.137T12 2q2.075 0 3.9.788t3.175 2.137q1.35 1.35 2.138 3.175T22 12q0 2.075-.788 3.9t-2.137 3.175q-1.35 1.35-3.175 2.138T12 22m0-2q3.35 0 5.675-2.325T20 12q0-3.35-2.325-5.675T12 4Q8.65 4 6.325 6.325T4 12q0 3.35 2.325 5.675T12 20m0-8"/></svg>