<svg xmlns="http://www.w3.org/2000/svg" width="1em" height="1em" viewBox="0 0 24 24"><path fill="currentColor" d="M12 22q-1.525 0-3.125-.55t-2.9-1.5q-1.3-.95-2.137-2.225T3 15v-2q0-.3.275-.45t.525.05l2.275 1.7q.35.275.387.738t-.287.787l-.725.725q.725 1.275 2.3 2.2T11 19.925V11H9q-.425 0-.712-.288T8 10q0-.425.288-.712T9 9h2V7.825q-.875-.325-1.437-1.088T9 5q0-1.25.875-2.125T12 2q1.25 0 2.125.875T15 5q0 .975-.562 1.738T13 7.825V9h2q.425 0 .713.288T16 10q0 .425-.288.713T15 11h-2v8.925q1.675-.25 3.25-1.175t2.3-2.2l-.725-.725q-.325-.325-.288-.787t.388-.738l2.275-1.7q.25-.2.525-.05T21 13v2q0 1.45-.838 2.725t-2.137 2.225q-1.3.95-2.9 1.5T12 22m0-16q.425 0 .713-.287T13 5q0-.425-.288-.712T12 4q-.425 0-.712.288T11 5q0 .425.288.713T12 6"/></svg>