<svg xmlns="http://www.w3.org/2000/svg" width="1em" height="1em" viewBox="0 0 24 24"><path fill="currentColor" d="M9 11.5V10h6v1.5zm1 3V13h4v1.5zM9 22l-1.35-4.55q-1.2-.95-1.925-2.375T5 12q0-1.65.725-3.075T7.65 6.55L9 2h6l1.35 4.55q1.2.95 1.925 2.375T19 12q0 1.65-.725 3.075T16.35 17.45L15 22zm3-5q2.075 0 3.538-1.463T17 12q0-2.075-1.463-3.537T12 7Q9.925 7 8.463 8.463T7 12q0 2.075 1.463 3.538T12 17M10.1 5.25q.5-.125.963-.2T12 4.975q.475 0 .938.075t.962.2L13.5 4h-3zM10.5 20h3l.4-1.25q-.5.125-.962.188T12 19q-.475 0-.937-.062t-.963-.188zm-.4-16h3.8zm.4 16h-.4h3.8z"/></svg>