<svg xmlns="http://www.w3.org/2000/svg" width="1em" height="1em" viewBox="0 0 24 24"><path fill="currentColor" d="M6 20q-.825 0-1.412-.587T4 18q0-.825.588-1.412T6 16q.825 0 1.413.588T8 18q0 .825-.587 1.413T6 20m0-6q-.825 0-1.412-.587T4 12q0-.825.588-1.412T6 10q.825 0 1.413.588T8 12q0 .825-.587 1.413T6 14m0-6q-.825 0-1.412-.587T4 6q0-.825.588-1.412T6 4q.825 0 1.413.588T8 6q0 .825-.587 1.413T6 8m6 0q-.825 0-1.412-.587T10 6q0-.825.588-1.412T12 4q.825 0 1.413.588T14 6q0 .825-.587 1.413T12 8m6 0q-.825 0-1.412-.587T16 6q0-.825.588-1.412T18 4q.825 0 1.413.588T20 6q0 .825-.587 1.413T18 8m-6 6q-.825 0-1.412-.587T10 12q0-.825.588-1.412T12 10q.825 0 1.413.588T14 12q0 .825-.587 1.413T12 14m1 6v-3.075l6.575-6.55l3.075 3.05L16.075 20zm6.575-5.6l.925-.975l-.925-.925l-.95.95z"/></svg>