<svg xmlns="http://www.w3.org/2000/svg" width="1em" height="1em" viewBox="0 0 24 24"><path fill="currentColor" d="M6 20q-.825 0-1.412-.587T4 18q0-.825.588-1.412T6 16q.825 0 1.413.588T8 18q0 .825-.587 1.413T6 20m6 0q-.825 0-1.412-.587T10 18q0-.825.588-1.412T12 16q.825 0 1.413.588T14 18q0 .825-.587 1.413T12 20m6 0q-.825 0-1.412-.587T16 18q0-.825.588-1.412T18 16q.825 0 1.413.588T20 18q0 .825-.587 1.413T18 20M6 14q-.825 0-1.412-.587T4 12q0-.825.588-1.412T6 10q.825 0 1.413.588T8 12q0 .825-.587 1.413T6 14m6 0q-.825 0-1.412-.587T10 12q0-.825.588-1.412T12 10q.825 0 1.413.588T14 12q0 .825-.587 1.413T12 14m6 0q-.825 0-1.412-.587T16 12q0-.825.588-1.412T18 10q.825 0 1.413.588T20 12q0 .825-.587 1.413T18 14M6 8q-.825 0-1.412-.587T4 6q0-.825.588-1.412T6 4q.825 0 1.413.588T8 6q0 .825-.587 1.413T6 8m6 0q-.825 0-1.412-.587T10 6q0-.825.588-1.412T12 4q.825 0 1.413.588T14 6q0 .825-.587 1.413T12 8m6 0q-.825 0-1.412-.587T16 6q0-.825.588-1.412T18 4q.825 0 1.413.588T20 6q0 .825-.587 1.413T18 8"/></svg>