<svg xmlns="http://www.w3.org/2000/svg" width="1em" height="1em" viewBox="0 0 24 24"><path fill="currentColor" d="M10.325 12q.425 0 .713-.288t.287-.712q0-.425-.287-.712T10.325 10q-.425 0-.712.288T9.325 11q0 .425.288.713t.712.287M7 12q.425 0 .713-.288T8 11q0-.425-.288-.712T7 10q-.425 0-.712.288T6 11q0 .425.288.713T7 12m6.675 0q.425 0 .713-.288t.287-.712q0-.425-.288-.712T13.676 10q-.425 0-.712.288t-.288.712q0 .425.288.713t.712.287M17 12q.425 0 .713-.288T18 11q0-.425-.288-.712T17 10q-.425 0-.712.288T16 11q0 .425.288.713T17 12m-5 8q-2.475 0-4.237-.337T6 18.85V18H4q-.825 0-1.412-.587T2 16V6q0-.825.588-1.412T4 4h16q.825 0 1.413.588T22 6v10q0 .825-.587 1.413T20 18h-2v.85q0 .475-1.763.813T12 20"/></svg>