<svg xmlns="http://www.w3.org/2000/svg" width="1em" height="1em" viewBox="0 0 24 24"><path fill="currentColor" d="M10.6 13.25L8.45 11.1q-.275-.275-.7-.275t-.7.275q-.275.275-.275.7t.275.7l2.85 2.85q.3.3.7.3t.7-.3l5.65-5.65q.275-.275.275-.7t-.275-.7q-.275-.275-.7-.275t-.7.275zM5 21q-.825 0-1.412-.587T3 19V5q0-.825.588-1.412T5 3h4.2q.325-.9 1.088-1.45T12 1q.95 0 1.713.55T14.8 3H19q.825 0 1.413.588T21 5v14q0 .825-.587 1.413T19 21zm7-16.75q.325 0 .538-.213t.212-.537q0-.325-.213-.537T12 2.75q-.325 0-.537.213t-.213.537q0 .325.213.538T12 4.25"/></svg>