<svg xmlns="http://www.w3.org/2000/svg" width="1em" height="1em" viewBox="0 0 24 24"><path fill="currentColor" d="M10.75 19h2.5v-4.5h1.5v-6h-5.5v6h1.5zM12 22q-2.05 0-3.875-.788t-3.187-2.15q-1.363-1.362-2.15-3.187T2 12q0-2.075.788-3.887t2.15-3.175Q6.3 3.575 8.124 2.788T12 2q2.075 0 3.888.788t3.174 2.15q1.363 1.362 2.15 3.175T22 12q0 2.05-.788 3.875t-2.15 3.188q-1.362 1.362-3.175 2.15T12 22m0-14q.65 0 1.075-.425T13.5 6.5q0-.65-.425-1.075T12 5q-.65 0-1.075.425T10.5 6.5q0 .65.425 1.075T12 8"/></svg>