<svg xmlns="http://www.w3.org/2000/svg" width="1em" height="1em" viewBox="0 0 24 24"><path fill="currentColor" d="M4 21q-1.25 0-2.125-.875T1 18q0-.975.563-1.75T3 15.175v-6.35q-.875-.3-1.437-1.075T1 6q0-1.25.875-2.125T4 3q1.25 0 2.125.875T7 6q0 .975-.562 1.75T5 8.825V11h6V8.825q-.875-.3-1.437-1.075T9 6q0-1.25.875-2.125T12 3q1.25 0 2.125.875T15 6q0 .975-.562 1.75T13 8.825V11h5q.425 0 .713-.287T19 10V8.825q-.875-.3-1.437-1.075T17 6q0-1.25.875-2.125T20 3q1.25 0 2.125.875T23 6q0 .975-.562 1.75T21 8.825V10q0 1.25-.875 2.125T18 13h-5v2.175q.875.3 1.438 1.075T15 18q0 1.25-.875 2.125T12 21q-1.25 0-2.125-.875T9 18q0-.975.563-1.75T11 15.175V13H5v2.175q.875.3 1.438 1.075T7 18q0 1.25-.875 2.125T4 21m0-2q.425 0 .713-.288T5 18q0-.425-.288-.712T4 17q-.425 0-.712.288T3 18q0 .425.288.713T4 19M4 7q.425 0 .713-.288T5 6q0-.425-.288-.712T4 5q-.425 0-.712.288T3 6q0 .425.288.713T4 7m8 12q.425 0 .713-.288T13 18q0-.425-.288-.712T12 17q-.425 0-.712.288T11 18q0 .425.288.713T12 19m0-12q.425 0 .713-.288T13 6q0-.425-.288-.712T12 5q-.425 0-.712.288T11 6q0 .425.288.713T12 7m8 0q.425 0 .713-.288T21 6q0-.425-.288-.712T20 5q-.425 0-.712.288T19 6q0 .425.288.713T20 7m0-1"/></svg>