<svg xmlns="http://www.w3.org/2000/svg" width="1em" height="1em" viewBox="0 0 24 24"><path fill="currentColor" d="M20.15 18.125L18.725 16.7q.425-.4.775-.862t.625-.963q-1.2-.125-2.35-.45t-2.2-.875L10.4 8.375q-.55-1.05-.875-2.187T9.1 3.85q-.5.275-.962.625t-.863.775l-1.4-1.4q1.075-1.1 2.438-1.825T11.25 1q-.45 2.475.275 4.838t2.5 4.137q1.775 1.775 4.138 2.5T23 12.75q-.275 1.575-1.012 2.938t-1.838 2.437m-.775 4.925l-2.7-2.7q-.85.325-1.737.488T13.1 21q-2.1 0-3.937-.8t-3.2-2.162Q4.6 16.675 3.8 14.837T3 10.9q0-.95.163-1.838t.487-1.737L.975 4.65L2.4 3.225l18.4 18.4zM13.1 19q.5 0 1-.062t.975-.188L5.25 8.925q-.125.5-.187.988T5 10.9q0 3.375 2.363 5.738T13.1 19m-.1-8.025"/></svg>