<svg xmlns="http://www.w3.org/2000/svg" width="1em" height="1em" viewBox="0 0 24 24"><path fill="currentColor" d="M19.8 22.6L1.4 4.2l1.4-1.4l18.4 18.4zM10 21.5q-.2 0-.35-.15T9.5 21q0-.2.15-.35t.35-.15q.2 0 .35.15t.15.35q0 .2-.15.35t-.35.15m4 0q-.2 0-.35-.15T13.5 21q0-.2.15-.35t.35-.15q.2 0 .35.15t.15.35q0 .2-.15.35t-.35.15M6 19q-.425 0-.712-.288T5 18q0-.425.288-.712T6 17q.425 0 .713.288T7 18q0 .425-.288.713T6 19m4 0q-.425 0-.712-.288T9 18q0-.425.288-.712T10 17q.425 0 .713.288T11 18q0 .425-.288.713T10 19m4 0q-.425 0-.712-.288T13 18q0-.425.288-.712T14 17q.425 0 .713.288T15 18q0 .425-.288.713T14 19m-4-3.5q-.65 0-1.075-.425T8.5 14q0-.65.425-1.075T10 12.5q.65 0 1.075.425T11.5 14q0 .65-.425 1.075T10 15.5M6 15q-.425 0-.712-.288T5 14q0-.425.288-.712T6 13q.425 0 .713.288T7 14q0 .425-.288.713T6 15m11.8-.025l-.775-.775q-.1-.5.213-.85T18 13q.425 0 .713.288T19 14q0 .45-.35.763t-.85.212M3 14.5q-.2 0-.35-.15T2.5 14q0-.2.15-.35T3 13.5q.2 0 .35.15t.15.35q0 .2-.15.35T3 14.5m18 0q-.2 0-.35-.15T20.5 14q0-.2.15-.35t.35-.15q.2 0 .35.15t.15.35q0 .2-.15.35t-.35.15m-6.7-3.05L12.55 9.7q.125-.525.5-.862T14 8.5q.65 0 1.075.425T15.5 10q0 .575-.35.963t-.85.487M6 11q-.425 0-.712-.287T5 10q0-.425.288-.712T6 9q.425 0 .713.288T7 10q0 .425-.288.713T6 11m12 0q-.425 0-.712-.288T17 10q0-.425.288-.712T18 9q.425 0 .713.288T19 10q0 .425-.288.713T18 11m-15-.5q-.2 0-.35-.15T2.5 10q0-.2.15-.35T3 9.5q.2 0 .35.15t.15.35q0 .2-.15.35T3 10.5m18 0q-.2 0-.35-.15T20.5 10q0-.2.15-.35T21 9.5q.2 0 .35.15t.15.35q0 .2-.15.35t-.35.15M14 7q-.425 0-.712-.288T13 6q0-.425.288-.712T14 5q.425 0 .713.288T15 6q0 .425-.288.713T14 7m-4.175-.025l-.8-.8q-.075-.5.225-.837T10 5q.425 0 .712.287T11 6q0 .45-.337.75t-.838.225M18 7q-.425 0-.712-.288T17 6q0-.425.288-.712T18 5q.425 0 .713.288T19 6q0 .425-.288.713T18 7m-8-3.5q-.2 0-.35-.15T9.5 3q0-.2.15-.35T10 2.5q.2 0 .35.15t.15.35q0 .2-.15.35T10 3.5m4 0q-.2 0-.35-.15T13.5 3q0-.2.15-.35T14 2.5q.2 0 .35.15t.15.35q0 .2-.15.35T14 3.5"/></svg>