<svg xmlns="http://www.w3.org/2000/svg" width="1em" height="1em" viewBox="0 0 24 24"><path fill="currentColor" d="M12 9q-.425 0-.712-.288T11 8q0-.425.288-.712T12 7q.425 0 .713.288T13 8q0 .425-.288.713T12 9m-4 4q-.425 0-.712-.288T7 12q0-.425.288-.712T8 11q.425 0 .713.288T9 12q0 .425-.288.713T8 13m4 0q-.425 0-.712-.288T11 12q0-.425.288-.712T12 11q.425 0 .713.288T13 12q0 .425-.288.713T12 13m4 0q-.425 0-.712-.288T15 12q0-.425.288-.712T16 11q.425 0 .713.288T17 12q0 .425-.288.713T16 13m-4 4q-.425 0-.712-.288T11 16q0-.425.288-.712T12 15q.425 0 .713.288T13 16q0 .425-.288.713T12 17M4 5q-.425 0-.712-.288T3 4q0-.425.288-.712T4 3q.425 0 .713.288T5 4q0 .425-.288.713T4 5m4 0q-.425 0-.712-.288T7 4q0-.425.288-.712T8 3q.425 0 .713.288T9 4q0 .425-.288.713T8 5m4 0q-.425 0-.712-.288T11 4q0-.425.288-.712T12 3q.425 0 .713.288T13 4q0 .425-.288.713T12 5m4 0q-.425 0-.712-.288T15 4q0-.425.288-.712T16 3q.425 0 .713.288T17 4q0 .425-.288.713T16 5m4 0q-.425 0-.712-.288T19 4q0-.425.288-.712T20 3q.425 0 .713.288T21 4q0 .425-.288.713T20 5M4 9q-.425 0-.712-.288T3 8q0-.425.288-.712T4 7q.425 0 .713.288T5 8q0 .425-.288.713T4 9m16 0q-.425 0-.712-.288T19 8q0-.425.288-.712T20 7q.425 0 .713.288T21 8q0 .425-.288.713T20 9M4 13q-.425 0-.712-.288T3 12q0-.425.288-.712T4 11q.425 0 .713.288T5 12q0 .425-.288.713T4 13m16 0q-.425 0-.712-.288T19 12q0-.425.288-.712T20 11q.425 0 .713.288T21 12q0 .425-.288.713T20 13M4 17q-.425 0-.712-.288T3 16q0-.425.288-.712T4 15q.425 0 .713.288T5 16q0 .425-.288.713T4 17m16 0q-.425 0-.712-.288T19 16q0-.425.288-.712T20 15q.425 0 .713.288T21 16q0 .425-.288.713T20 17M4 21q-.425 0-.712-.288T3 20q0-.425.288-.712T4 19h16q.425 0 .713.288T21 20q0 .425-.288.713T20 21z"/></svg>