<svg xmlns="http://www.w3.org/2000/svg" width="1em" height="1em" viewBox="0 0 24 24"><path fill="currentColor" d="M12 9q-.425 0-.712-.288T11 8q0-.425.288-.712T12 7q.425 0 .713.288T13 8q0 .425-.288.713T12 9m-4 4q-.425 0-.712-.288T7 12q0-.425.288-.712T8 11q.425 0 .713.288T9 12q0 .425-.288.713T8 13m4 0q-.425 0-.712-.288T11 12q0-.425.288-.712T12 11q.425 0 .713.288T13 12q0 .425-.288.713T12 13m4 0q-.425 0-.712-.288T15 12q0-.425.288-.712T16 11q.425 0 .713.288T17 12q0 .425-.288.713T16 13m-4 4q-.425 0-.712-.288T11 16q0-.425.288-.712T12 15q.425 0 .713.288T13 16q0 .425-.288.713T12 17m-7 2h14V5H5zm0 2q-.825 0-1.412-.587T3 19V5q0-.825.588-1.412T5 3h14q.825 0 1.413.588T21 5v14q0 .825-.587 1.413T19 21z"/></svg>