<svg xmlns="http://www.w3.org/2000/svg" width="1em" height="1em" viewBox="0 0 24 24"><path fill="currentColor" d="M5 20v-2h4.55l-1.1-1.1l1.4-1.4l3.5 3.5l-3.5 3.5l-1.4-1.4l1.1-1.1zm0-3V2h14v15h-2v-1.55q-1-.725-2.262-1.088T12 14q-1.475 0-2.738.363T7 15.45V17zm2-3.85q1.2-.575 2.463-.862T12 12q1.275 0 2.538.288T17 13.15V4H7zM14 20v-2h5v2zm-2-9q-1.25 0-2.125-.875T9 8q0-1.25.875-2.125T12 5q1.25 0 2.125.875T15 8q0 1.25-.875 2.125T12 11m0-2q.425 0 .713-.288T13 8q0-.425-.288-.712T12 7q-.425 0-.712.288T11 8q0 .425.288.713T12 9m0-1"/></svg>