<svg xmlns="http://www.w3.org/2000/svg" width="1em" height="1em" viewBox="0 0 24 24"><path fill="currentColor" d="M16 17q1.25 0 2.125.875T19 20q0 1.25-.875 2.125T16 23q-.95 0-1.713-.55T13.176 21H8q-.825 0-1.412-.587T6 19V9q0-.825.588-1.412T8 7h6V4h-1q-.425 0-.712-.288T12 3q0-.425.288-.712T13 2h2q.425 0 .713.288T16 3zm-7 2V9H8v10zm2-10v10h2.175q.1-.375.325-.687t.5-.563V9zm5 12.5q.625 0 1.063-.437T17.5 20q0-.625-.437-1.062T16 18.5q-.625 0-1.062.438T14.5 20q0 .625.438 1.063T16 21.5M9 19V9zm2-10v10z"/></svg>