<svg xmlns="http://www.w3.org/2000/svg" width="1em" height="1em" viewBox="0 0 24 24"><path fill="currentColor" d="M18.5 9V8h-1v1zM2 17q1.25 0 2.125.875T5 20H2zm0-4q2.925 0 4.963 2.038T9 20H7q0-2.075-1.463-3.537T2 15zm0-4q2.275 0 4.275.863t3.5 2.362q1.5 1.5 2.363 3.5T13 20h-2q0-1.875-.712-3.512t-1.926-2.85q-1.212-1.213-2.85-1.925T2 11zm13 11q0-2.725-1.025-5.087t-2.787-4.126Q9.425 9.026 7.062 8.012T2 7V4h9.3q-.15.475-.225.975T11 6q0 2.9 2.05 4.95T18 13q1.075 0 2.1-.325t1.9-.95V20zm3-9q-2.075 0-3.537-1.463T13 6q0-2.075 1.463-3.537T18 1q2.075 0 3.538 1.463T23 6q0 2.075-1.463 3.538T18 11m-.5-4h1V3h-1z"/></svg>