<svg xmlns="http://www.w3.org/2000/svg" width="1em" height="1em" viewBox="0 0 24 24"><path fill="currentColor" d="M5 21q-.825 0-1.412-.587T3 19v-3q0-.425.288-.712T4 15q.425 0 .713.288T5 16v3h3q.425 0 .713.288T9 20q0 .425-.288.713T8 21zm14 0h-3q-.425 0-.712-.288T15 20q0-.425.288-.712T16 19h3v-3q0-.425.288-.712T20 15q.425 0 .713.288T21 16v3q0 .825-.587 1.413T19 21M3 8V5q0-.825.588-1.412T5 3h3q.425 0 .713.288T9 4q0 .425-.288.713T8 5H5v3q0 .425-.288.713T4 9q-.425 0-.712-.288T3 8m16 0V5h-3q-.425 0-.712-.288T15 4q0-.425.288-.712T16 3h3q.825 0 1.413.588T21 5v3q0 .425-.288.713T20 9q-.425 0-.712-.288T19 8m-7 9q-2.075 0-3.537-1.463T7 12q0-2.075 1.463-3.537T12 7q2.075 0 3.538 1.463T17 12q0 2.075-1.463 3.538T12 17m0-2q1.25 0 2.125-.875T15 12q0-1.25-.875-2.125T12 9q-1.25 0-2.125.875T9 12q0 1.25.875 2.125T12 15m0-3"/></svg>