<svg xmlns="http://www.w3.org/2000/svg" width="1em" height="1em" viewBox="0 0 24 24"><path fill="currentColor" d="M14.5 11.75q.525 0 .888-.363t.362-.887q0-.525-.363-.888T14.5 9.25q-.525 0-.888.363t-.362.887q0 .525.363.888t.887.362m-5 0q.525 0 .888-.363t.362-.887q0-.525-.363-.888T9.5 9.25q-.525 0-.888.363t-.362.887q0 .525.363.888t.887.362M12 17q1.5 0 2.713-.825T16.5 14h-9q.575 1.35 1.788 2.175T12 17m0 4q-1.875 0-3.512-.712t-2.85-1.925q-1.213-1.213-1.925-2.85T3 12q0-1.875.713-3.512t1.924-2.85q1.213-1.213 2.85-1.925T12 3q1.875 0 3.513.713t2.85 1.924q1.212 1.213 1.925 2.85T21 12q0 1.875-.712 3.513t-1.925 2.85q-1.213 1.212-2.85 1.925T12 21m.4-12.5q.425 0 .963-.162T13.9 7.6q0-.3-.2-.525t-.5-.225q-.2 0-.387.075T12.4 7q-.525 0-.887-.362t-.363-.888q0-.275.088-.462t.262-.263q-.475.05-.925.125T9.7 5.4q-.025.075-.038.175t-.012.175q0 1.125.813 1.938T12.4 8.5"/></svg>