<svg xmlns="http://www.w3.org/2000/svg" width="1em" height="1em" viewBox="0 0 24 24"><path fill="currentColor" d="M8.5 16H16q1.25 0 2.125-.875T19 13q0-1.25-.875-2.125T16 10q-.2-1.45-1.325-2.475T12.15 6.5q-1.275 0-2.312.65T8.3 9q-1.425.125-2.363 1.088T5 12.5q0 1.45 1.025 2.475T8.5 16m0-2q-.625 0-1.062-.437T7 12.5q0-.625.438-1.062T8.5 11H10v-.5q0-.825.588-1.412T12 8.5q.825 0 1.413.588T14 10.5V12h2q.425 0 .713.288T17 13q0 .425-.288.713T16 14zm3.5 8q-2.075 0-3.9-.788t-3.175-2.137q-1.35-1.35-2.137-3.175T2 12q0-2.075.788-3.9t2.137-3.175q1.35-1.35 3.175-2.137T12 2q2.075 0 3.9.788t3.175 2.137q1.35 1.35 2.138 3.175T22 12q0 2.075-.788 3.9t-2.137 3.175q-1.35 1.35-3.175 2.138T12 22m0-2q3.35 0 5.675-2.325T20 12q0-3.35-2.325-5.675T12 4Q8.65 4 6.325 6.325T4 12q0 3.35 2.325 5.675T12 20m0-8"/></svg>