<svg xmlns="http://www.w3.org/2000/svg" width="1em" height="1em" viewBox="0 0 24 24"><path fill="currentColor" d="M10 6q-.825 0-1.412-.587T8 4q0-.825.588-1.412T10 2q.825 0 1.413.588T12 4q0 .825-.587 1.413T10 6m6.5 12q1.05 0 1.775-.725T19 15.5q0-1.05-.725-1.775T16.5 13q-1.05 0-1.775.725T14 15.5q0 1.05.725 1.775T16.5 18m5.1 4l-2.7-2.7q-.55.35-1.15.525T16.5 20q-1.875 0-3.187-1.312T12 15.5q0-1.875 1.313-3.187T16.5 11q1.875 0 3.188 1.313T21 15.5q0 .65-.175 1.25T20.3 17.9l2.7 2.7zM11 22v-3.025q.375.6.888 1.1t1.112.9V22zm-4 0V9q-1.525-.125-3.025-.363T1 8l.5-2q2.1.575 4.213.788T10 7q2.175 0 4.288-.213T18.5 6l.5 2q-1.475.4-2.975.638T13 9v1.025q-1.35.875-2.175 2.313T10 15.5v.25q0 .125.025.25H9v6z"/></svg>