<svg xmlns="http://www.w3.org/2000/svg" width="1em" height="1em" viewBox="0 0 24 24"><path fill="currentColor" d="M14 16h2v-3h3v-2h-3V8h-2v3h-3v2h3zm-8 4.5q-2.725-.95-4.362-3.287T0 12q0-2.875 1.638-5.212T6 3.5v2.2q-1.85.875-2.925 2.575T2 12q0 2.025 1.075 3.725T6 18.3zm9 .5q-1.875 0-3.512-.712t-2.85-1.925q-1.213-1.213-1.925-2.85T6 12q0-1.875.713-3.512t1.925-2.85q1.212-1.213 2.85-1.925T15 3q1.875 0 3.513.713t2.85 1.924q1.212 1.213 1.925 2.85T24 12q0 1.875-.712 3.513t-1.925 2.85q-1.213 1.212-2.85 1.925T15 21"/></svg>