<svg xmlns="http://www.w3.org/2000/svg" width="1em" height="1em" viewBox="0 0 24 24"><path fill="currentColor" d="M12 22q-2.075 0-3.9-.788t-3.175-2.137q-1.35-1.35-2.137-3.175T2 12q0-1.875.725-3.675T4.75 5.112Q6.05 3.7 7.875 2.837t4-.862q.525 0 1.075.05t1.125.175q-.225 1.125.15 2.125t1.125 1.662q.75.663 1.788.913t2.137-.125q-.65 1.475.188 2.825T21.95 11q.025.275.038.512t.012.513q0 2.05-.788 3.862t-2.137 3.175q-1.35 1.363-3.175 2.15T12 22m-1.5-12q.625 0 1.063-.437T12 8.5q0-.625-.437-1.062T10.5 7q-.625 0-1.062.438T9 8.5q0 .625.438 1.063T10.5 10m-2 5q.625 0 1.063-.437T10 13.5q0-.625-.437-1.062T8.5 12q-.625 0-1.062.438T7 13.5q0 .625.438 1.063T8.5 15m6.5 1q.425 0 .713-.288T16 15q0-.425-.288-.712T15 14q-.425 0-.712.288T14 15q0 .425.288.713T15 16m-3 4q3.05 0 5.413-2.1T20 12.55q-1.25-.55-1.963-1.5t-.962-2.125q-1.925-.275-3.3-1.65t-1.7-3.3q-2-.05-3.512.725T6.037 6.688Q5.025 7.9 4.514 9.325T4 12q0 3.325 2.338 5.663T12 20m0-8.1"/></svg>