<svg xmlns="http://www.w3.org/2000/svg" width="1em" height="1em" viewBox="0 0 24 24"><path fill="currentColor" d="M4 18v-8v.325V6zM4 8h16V6H4zm7.575 12H4q-.825 0-1.412-.587T2 18V6q0-.825.588-1.412T4 4h16q.825 0 1.413.588T22 6v5.325q-.875-.625-1.912-.975T17.9 10q-1.425 0-2.687.538T13 12H4v6h6.975q.075.525.225 1.025t.375.975m3.925-.1l-.725.225q-.325.1-.637-.025t-.488-.4l-.2-.35q-.175-.3-.125-.65t.325-.575l.55-.475q-.05-.325-.05-.65t.05-.65l-.55-.475q-.275-.225-.325-.562t.125-.638l.225-.375q.175-.275.475-.4t.625-.025l.725.225q.275-.2.538-.337t.562-.263l.15-.725q.075-.35.338-.562T17.7 12h.4q.35 0 .612.225t.338.575l.15.7q.3.125.562.262t.538.338l.725-.225q.325-.1.638.025t.487.4l.2.35q.175.3.125.65t-.325.575l-.55.475q.05.325.05.65t-.05.65l.55.475q.275.225.325.563t-.125.637l-.225.375q-.175.275-.475.4t-.625.025L20.3 19.9q-.275.2-.538.337t-.562.263l-.15.725q-.075.35-.337.563T18.1 22h-.4q-.35 0-.612-.225t-.338-.575l-.15-.7q-.3-.125-.562-.262T15.5 19.9m2.4-.9q.825 0 1.413-.587T19.9 17q0-.825-.587-1.412T17.9 15q-.825 0-1.412.588T15.9 17q0 .825.588 1.413T17.9 19"/></svg>