<svg xmlns="http://www.w3.org/2000/svg" width="1em" height="1em" viewBox="0 0 24 24"><path fill="currentColor" d="M16.5 9.75q-.625 0-1.062-.437T15 8.25q0-.625.438-1.062T16.5 6.75q.625 0 1.063.438T18 8.25q0 .625-.437 1.063T16.5 9.75m-9 0q-.625 0-1.062-.437T6 8.25q0-.625.438-1.062T7.5 6.75q.625 0 1.063.438T9 8.25q0 .625-.437 1.063T7.5 9.75M12 12.5q-.625 0-1.062-.437T10.5 11q0-.625.438-1.062T12 9.5q.625 0 1.063.438T13.5 11q0 .625-.437 1.063T12 12.5M12 7q-.625 0-1.062-.437T10.5 5.5q0-.625.438-1.062T12 4q.625 0 1.063.438T13.5 5.5q0 .625-.437 1.063T12 7m0 13q-.5 0-1.012-.075t-.988-.2V16.15q0-.875.588-1.512T12 14q.825 0 1.413.638T14 16.15v3.575q-.475.125-.987.2T12 20m-3.5-.8q-.5-.2-.962-.45t-.888-.55q-.7-.5-1.112-1.3t-.413-1.7q0-.65-.137-1.212T4.5 12.925q-.25-.325-.937-.987T2.3 10.7q-.275-.275-.275-.7t.275-.7q.275-.275.7-.275t.7.275l3.825 3.625q.5.45.738 1.063T8.5 15.25zm7 0v-3.95q0-.65.25-1.275t.725-1.05L20.3 9.3q.3-.275.713-.275t.687.275q.275.275.275.7t-.275.7q-.575.575-1.263 1.225t-.937 1q-.35.5-.488 1.063t-.137 1.212q0 .9-.413 1.713t-1.137 1.312q-.4.275-.862.525t-.963.45"/></svg>