<svg xmlns="http://www.w3.org/2000/svg" width="1em" height="1em" viewBox="0 0 24 24"><path fill="currentColor" d="M18 18q.625 0 1.063-.437T19.5 16.5q0-.625-.437-1.062T18 15q-.625 0-1.062.438T16.5 16.5q0 .625.438 1.063T18 18m0 3q.75 0 1.4-.35t1.075-.975q-.575-.35-1.2-.513T18 19q-.65 0-1.275.162t-1.2.513q.425.625 1.075.975T18 21m0 2q-2.075 0-3.537-1.462T13 18q0-2.075 1.463-3.537T18 13q2.075 0 3.538 1.463T23 18q0 2.075-1.463 3.538T18 23M8 9h8q.425 0 .713-.288T17 8q0-.425-.288-.712T16 7H8q-.425 0-.712.288T7 8q0 .425.288.713T8 9M5 21q-.825 0-1.412-.587T3 19V5q0-.825.588-1.412T5 3h14q.825 0 1.413.588T21 5v5.45q0 .45-.375.7t-.8.1q-.425-.125-.888-.188T18 11q-.275 0-.513.013t-.487.062q-.225-.05-.5-.062T16 11H8q-.425 0-.712.288T7 12q0 .425.288.713T8 13h5.125q-.45.425-.812.925T11.675 15H8q-.425 0-.712.288T7 16q0 .425.288.713T8 17h3.075q-.05.25-.062.488T11 18q0 .5.05.95t.175.875q.125.425-.125.8t-.675.375z"/></svg>