<svg xmlns="http://www.w3.org/2000/svg" width="1em" height="1em" viewBox="0 0 24 24"><path fill="currentColor" d="M2 18v-.8q0-.825.425-1.55t1.175-1.1q1.5-.75 3.113-1.15t3.312-.4q.4 0 .688.288t.287.762q0 .4-.288.675t-.687.275q-1.775 0-3.2.45t-2.325.9q-.225.125-.363.35T4 17.2v.8h6q.425 0 .713.288T11 19q0 .425-.288.713T10 20H4q-.825 0-1.412-.587T2 18m15 3.025q-.2 0-.4-.05t-.375-.175l-3-1.75q-.35-.2-.537-.538t-.188-.737V14.25q0-.4.188-.737t.537-.538l3-1.75q.175-.125.375-.175T17 11q.2 0 .388.063t.362.162l3 1.75q.35.2.55.538t.2.737v3.525q0 .4-.2.738t-.55.537l-3 1.75q-.175.1-.363.163t-.387.062M10 12q-1.65 0-2.825-1.175T6 8q0-1.65 1.175-2.825T10 4q1.65 0 2.825 1.175T14 8q0 1.65-1.175 2.825T10 12m0-2q.825 0 1.413-.587T12 8q0-.825-.587-1.412T10 6q-.825 0-1.412.588T8 8q0 .825.588 1.413T10 10m4.65 3.85L17 15.225l2.35-1.375L17 12.5zm3.1 5.2l2.25-1.3V15l-2.25 1.325zM14 17.75l2.25 1.325V16.35L14 15.025z"/></svg>