<svg xmlns="http://www.w3.org/2000/svg" width="1em" height="1em" viewBox="0 0 24 24"><path fill="currentColor" d="M8.5 15q-.625 0-1.062-.437T7 13.5q0-.625.438-1.062T8.5 12q.625 0 1.063.438T10 13.5q0 .625-.437 1.063T8.5 15m3.5 3q-.625 0-1.062-.437T10.5 16.5q0-.625.438-1.062T12 15q.625 0 1.063.438T13.5 16.5q0 .625-.437 1.063T12 18m-3.5 3q-.625 0-1.062-.437T7 19.5q0-.625.438-1.062T8.5 18q.625 0 1.063.438T10 19.5q0 .625-.437 1.063T8.5 21m7-6q-.625 0-1.062-.437T14 13.5q0-.625.438-1.062T15.5 12q.625 0 1.063.438T17 13.5q0 .625-.437 1.063T15.5 15m0 6q-.625 0-1.062-.437T14 19.5q0-.625.438-1.062T15.5 18q.625 0 1.063.438T17 19.5q0 .625-.437 1.063T15.5 21m3.5-3q-.625 0-1.062-.437T17.5 16.5q0-.625.438-1.062T19 15q.625 0 1.063.438T20.5 16.5q0 .625-.437 1.063T19 18M5 18q-.625 0-1.062-.437T3.5 16.5q0-.625.438-1.062T5 15q.625 0 1.063.438T6.5 16.5q0 .625-.437 1.063T5 18M5 4v1h14V4zm3.1 3l.3 1h7.2l.3-1zm-1.15 3L6 7H3V2h18v5h-3l-1.15 3zM5 4v1z"/></svg>