<svg xmlns="http://www.w3.org/2000/svg" width="1em" height="1em" viewBox="0 0 24 24"><path fill="currentColor" d="M12 16.5q1.875 0 3.188-1.312T16.5 12q0-1.875-1.312-3.187T12 7.5q-1.875 0-3.187 1.313T7.5 12q0 1.875 1.313 3.188T12 16.5m0-3.5q-.425 0-.712-.288T11 12q0-.425.288-.712T12 11q.425 0 .713.288T13 12q0 .425-.288.713T12 13m9 5q-.425 0-.712-.288T20 17v-6q0-.425.288-.712T21 10q.425 0 .713.288T22 11v6q0 .425-.288.713T21 18m0 4q-.425 0-.712-.288T20 21q0-.425.288-.712T21 20q.425 0 .713.288T22 21q0 .425-.288.713T21 22m-9 0q-2.075 0-3.9-.788t-3.175-2.137q-1.35-1.35-2.137-3.175T2 12q0-2.075.788-3.9t2.137-3.175q1.35-1.35 3.175-2.137T12 2q2.575 0 4.775 1.213t3.575 3.312q.325.475.025.975t-.9.5H19q-.425 0-.712.288T18 9v10.275q0 .35-.162.638t-.438.487q-1.225.775-2.6 1.188T12 22"/></svg>