<svg xmlns="http://www.w3.org/2000/svg" width="1em" height="1em" viewBox="0 0 24 24"><path fill="currentColor" d="M12 18q2.5 0 4.25-1.75T18 12q0-2.5-1.75-4.25T12 6Q9.5 6 7.75 7.75T6 12q0 2.5 1.75 4.25T12 18m-2-5q-.425 0-.712-.288T9 12q0-.425.288-.712T10 11h4q.425 0 .713.288T15 12q0 .425-.288.713T14 13zm2 9q-2.075 0-3.9-.788t-3.175-2.137q-1.35-1.35-2.137-3.175T2 12q0-2.075.788-3.9t2.137-3.175q1.35-1.35 3.175-2.137T12 2q2.075 0 3.9.788t3.175 2.137q1.35 1.35 2.138 3.175T22 12q0 2.075-.788 3.9t-2.137 3.175q-1.35 1.35-3.175 2.138T12 22m0-2q3.35 0 5.675-2.325T20 12q0-3.35-2.325-5.675T12 4Q8.65 4 6.325 6.325T4 12q0 3.35 2.325 5.675T12 20m0-8"/></svg>