<svg xmlns="http://www.w3.org/2000/svg" width="1em" height="1em" viewBox="0 0 24 24"><path fill="currentColor" d="M9 20q-.825 0-1.412-.587T7 18q0-.825.588-1.412T9 16q.825 0 1.413.588T11 18q0 .825-.587 1.413T9 20m6 0q-.825 0-1.412-.587T13 18q0-.825.588-1.412T15 16q.825 0 1.413.588T17 18q0 .825-.587 1.413T15 20m-6-6q-.825 0-1.412-.587T7 12q0-.825.588-1.412T9 10q.825 0 1.413.588T11 12q0 .825-.587 1.413T9 14m6 0q-.825 0-1.412-.587T13 12q0-.825.588-1.412T15 10q.825 0 1.413.588T17 12q0 .825-.587 1.413T15 14M9 8q-.825 0-1.412-.587T7 6q0-.825.588-1.412T9 4q.825 0 1.413.588T11 6q0 .825-.587 1.413T9 8m6 0q-.825 0-1.412-.587T13 6q0-.825.588-1.412T15 4q.825 0 1.413.588T17 6q0 .825-.587 1.413T15 8"/></svg>