<svg xmlns="http://www.w3.org/2000/svg" width="1em" height="1em" viewBox="0 0 24 24"><path fill="currentColor" d="M6.5 6q-.825 0-1.412-.587T4.5 4q0-.825.588-1.412T6.5 2q.825 0 1.413.588T8.5 4q0 .825-.587 1.413T6.5 6M17 11q-.625 0-1.062-.437T15.5 9.5q0-.625.438-1.062T17 8q.625 0 1.063.438T18.5 9.5q0 .625-.437 1.063T17 11M4.5 22v-7H3V9q0-.825.588-1.412T5 7h3q.55 0 1 .263T9.725 8l3.575 6.175l1.025-1.525q.2-.3.538-.475t.712-.175H18.5q.625 0 1.063.438T20 13.5V17h-1v5h-4v-7.1l-.775 1.1h-2.2L9.5 11.6V22z"/></svg>