<svg xmlns="http://www.w3.org/2000/svg" width="1em" height="1em" viewBox="0 0 24 24"><path fill="currentColor" d="M5 21q-.425 0-.712-.288T4 20v-3q0-.825.588-1.412T6 15h12q.825 0 1.413.588T20 17v3q0 .425-.288.713T19 21q-.425 0-.712-.288T18 20v-3H6v3q0 .425-.288.713T5 21m-.5-7q-.625 0-1.062-.437T3 12.5q0-.625.438-1.062T4.5 11q.625 0 1.063.438T6 12.5q0 .625-.437 1.063T4.5 14M7 14V5q0-.825.588-1.412T9 3h6q.825 0 1.413.588T17 5v9zm12.5 0q-.625 0-1.062-.437T18 12.5q0-.625.438-1.062T19.5 11q.625 0 1.063.438T21 12.5q0 .625-.437 1.063T19.5 14"/></svg>