<svg xmlns="http://www.w3.org/2000/svg" width="1em" height="1em" viewBox="0 0 24 24"><path fill="currentColor" d="M12 22q-2.075 0-3.9-.788t-3.175-2.137q-1.35-1.35-2.137-3.175T2 12q0-1.5.425-2.887T3.65 6.5L2.075 4.925q-.3-.3-.3-.712t.3-.713q.3-.3.713-.3t.712.3l17 17q.3.3.3.7t-.3.7q-.3.3-.712.3t-.713-.3L17.5 20.35q-1.225.8-2.613 1.225T12 22m.05-7.1l-3-3l-2.325 4.875q-.125.25.063.438t.437.062zm7.125 1.425L14.9 12.05l2.375-4.825q.125-.25-.062-.437t-.438-.063L11.95 9.1L7.675 4.825q-.45-.45-.362-1.075t.662-.9q.95-.425 1.963-.637T12 2q2.075 0 3.9.788t3.175 2.137q1.35 1.35 2.138 3.175T22 12q0 1.05-.213 2.063t-.637 1.962q-.275.575-.887.675t-1.088-.375"/></svg>