<svg xmlns="http://www.w3.org/2000/svg" width="1em" height="1em" viewBox="0 0 24 24"><path fill="currentColor" d="M12 22q-2.05 0-3.875-.788t-3.187-2.15q-1.363-1.362-2.15-3.187T2 12q0-2.075.788-3.9t2.15-3.175Q6.3 3.575 8.124 2.788T12 2q2.075 0 3.9.788t3.175 2.137q1.35 1.35 2.138 3.175T22 12q0 2.05-.788 3.875t-2.137 3.188q-1.35 1.362-3.175 2.15T12 22m0-18Q9.225 4 7.1 5.663T4.275 9.9q.5-.125 1.038-.488T6.55 7.65q.375-.775 1.1-1.213T9.25 6h5.5q.875 0 1.6.438t1.1 1.212q.7 1.425 1.263 1.775t1.012.475q-.7-2.575-2.812-4.237T12 4m0 16q3.35 0 5.688-2.35T20 11.95q-1.775-.175-2.725-1.112T15.65 8.55q-.125-.275-.363-.413T14.776 8H9.25q-.3 0-.537.138t-.363.412q-.675 1.375-1.65 2.313T4 11.975q0 3.35 2.338 5.688T12 20m-3-5.75q-.525 0-.888-.363T7.75 13q0-.525.363-.888T9 11.75q.525 0 .888.363t.362.887q0 .525-.363.888T9 14.25m6 0q-.525 0-.888-.363T13.75 13q0-.525.363-.888T15 11.75q.525 0 .888.363t.362.887q0 .525-.363.888T15 14.25M12 6"/></svg>