<svg xmlns="http://www.w3.org/2000/svg" width="1em" height="1em" viewBox="0 0 24 24"><path fill="currentColor" d="M18 6q-.825 0-1.412-.587T16 4q0-.825.588-1.412T18 2q.825 0 1.413.588T20 4q0 .825-.587 1.413T18 6m-1 16V10.95h-1.825L16.5 7h3l3 9H20v6zm-4.5-10.5q-.625 0-1.062-.437T11 10q0-.625.438-1.062T12.5 8.5q.625 0 1.063.438T14 10q0 .625-.437 1.063T12.5 11.5M5.5 6q-.825 0-1.412-.587T3.5 4q0-.825.588-1.412T5.5 2q.825 0 1.413.588T7.5 4q0 .825-.587 1.413T5.5 6m-2 16v-7H2V7h7v8H7.5v7zm7.5 0v-4h-1v-5.5h5V18h-1v4z"/></svg>