<svg xmlns="http://www.w3.org/2000/svg" width="1em" height="1em" viewBox="0 0 24 24"><path fill="currentColor" d="M13.325 13q-.8-1.125-2.112-1.562T8.5 11q-1.4 0-2.713.438T3.675 13zM8.5 9q1.15 0 2.338.288t2.2.887q1.012.6 1.737 1.5t.975 2.125q.1.475-.2.837t-.775.363H2.225q-.475 0-.775-.363t-.2-.837q.25-1.225.988-2.125t1.75-1.5q1.012-.6 2.187-.888T8.5 9M2 19q-.425 0-.712-.288T1 18q0-.425.288-.712T2 17h13q.425 0 .713.288T16 18q0 .425-.288.713T15 19zm17.7 4H18v-2h1.4l1.4-14h-9.55l-.1-.875q-.05-.45.238-.788T12.125 5H16V2q0-.425.288-.712T17 1q.425 0 .713.288T18 2v3h3.9q.45 0 .75.325t.25.775l-1.55 15.45q-.075.625-.55 1.038T19.7 23M18 21h1.4zM2 23q-.425 0-.712-.288T1 22q0-.425.288-.712T2 21h13q.425 0 .713.288T16 22q0 .425-.288.713T15 23zm6.5-10"/></svg>