<svg xmlns="http://www.w3.org/2000/svg" width="1em" height="1em" viewBox="0 0 24 24"><path fill="currentColor" d="M8 13.65V7q0-.425.288-.712T9 6h1q.425 0 .713.288T11 7v6.65l-.125-.125q-.575-.55-1.375-.55t-1.375.55zm5 1.5V3q0-.425.288-.712T14 2h1q.425 0 .713.288T16 3v9.15zM3 18.6V11q0-.425.288-.712T4 10h1q.425 0 .713.288T6 11v4.6zm2.4 2.45q-.65 0-.913-.612T4.7 19.35l4.1-4.1q.275-.275.663-.3t.687.25L13 17.65l5.6-5.6H18q-.425 0-.712-.288T17 11.05q0-.425.288-.712T18 10.05h3q.425 0 .713.288t.287.712v3q0 .425-.288.713T21 15.05q-.425 0-.712-.288T20 14.05v-.6l-6.25 6.25q-.275.275-.663.3t-.687-.25L9.55 17.3L6.1 20.75q-.125.125-.312.213t-.388.087"/></svg>