<svg xmlns="http://www.w3.org/2000/svg" width="1em" height="1em" viewBox="0 0 24 24"><path fill="currentColor" d="M4 22v-2h2v-3H3v-6h3V8H4V6h2.35q.625-1.75 2.163-2.875T12 2q1.95 0 3.488 1.125T17.65 6H20v2h-2v3h3v6h-3v3h2v2zM8.525 6h6.95q-.525-.9-1.437-1.45T12 4q-1.125 0-2.037.55T8.525 6M8 20h8v-5h3v-2h-3V8H8v5H5v2h3zm4-2.5q1.45 0 2.475-1.025T15.5 14q0-1.45-1.025-2.475T12 10.5q-1.45 0-2.475 1.025T8.5 14q0 1.45 1.025 2.475T12 17.5m0-2q-.625 0-1.062-.437T10.5 14q0-.625.438-1.062T12 12.5q.625 0 1.063.438T13.5 14q0 .625-.437 1.063T12 15.5M12 8"/></svg>