<svg xmlns="http://www.w3.org/2000/svg" width="1em" height="1em" viewBox="0 0 24 24"><path fill="currentColor" d="M5 13.05v-2q0-.825.588-1.412T7 9.05h10q.825 0 1.413.588T19 11.05v2q0 .825-.587 1.413T17 15.05H7q-.825 0-1.412-.587T5 13.05M11 4V3q0-.425.288-.712T12 2q.425 0 .713.288T13 3v1q0 .425-.288.713T12 5q-.425 0-.712-.288T11 4m7 1.7l.4-.4q.275-.275.7-.275t.7.275q.275.275.275.7t-.275.7l-.4.4q-.275.275-.7.275T18 7.1q-.275-.275-.275-.7T18 5.7M11 21v-1q0-.425.288-.712T12 19q.425 0 .713.288T13 20v1q0 .425-.288.713T12 22q-.425 0-.712-.288T11 21m7.4-2.2l-.4-.4q-.275-.275-.275-.7T18 17q.275-.275.7-.275t.7.275l.4.4q.275.275.275.7t-.275.7q-.275.275-.7.275t-.7-.275M4.6 7.1l-.4-.4q-.275-.275-.275-.7t.275-.7q.275-.275.7-.275t.7.275l.4.4q.275.275.275.7T6 7.1q-.275.275-.7.275T4.6 7.1m-.4 10.3l.4-.4q.275-.275.7-.275T6 17q.275.275.275.7T6 18.4l-.4.4q-.275.275-.7.275t-.7-.275q-.275-.275-.275-.7t.275-.7"/></svg>