<svg xmlns="http://www.w3.org/2000/svg" width="1em" height="1em" viewBox="0 0 24 24"><path fill="currentColor" d="M17 20.975q-.425 0-.712-.288T16 19.976v-2h-2q-.425 0-.712-.288T13 16.976q0-.425.288-.712t.712-.288h2v-2q0-.425.288-.712t.712-.288q.425 0 .713.288t.287.712v2h2q.425 0 .713.288t.287.712q0 .425-.288.713t-.712.287h-2v2q0 .425-.288.713t-.712.287M8 18q-.425 0-.712-.288T7 17q0-.425.288-.712T8 16h2.5q.425 0 .713.288T11.5 17q0 .425-.288.713T10.5 18zm0-4q-.425 0-.712-.288T7 13q0-.425.288-.712T8 12h2.5q.425 0 .713.288T11.5 13q0 .425-.288.713T10.5 14zm0-4q-.425 0-.712-.288T7 9q0-.425.288-.712T8 8h10q.425 0 .713.288T19 9q0 .425-.288.713T18 10zm0-4q-.425 0-.712-.288T7 5q0-.425.288-.712T8 4h10q.425 0 .713.288T19 5q0 .425-.288.713T18 6zM4 6q-.425 0-.712-.288T3 5q0-.425.288-.712T4 4q.425 0 .713.288T5 5q0 .425-.288.713T4 6m0 4q-.425 0-.712-.288T3 9q0-.425.288-.712T4 8q.425 0 .713.288T5 9q0 .425-.288.713T4 10m0 4q-.425 0-.712-.288T3 13q0-.425.288-.712T4 12q.425 0 .713.288T5 13q0 .425-.288.713T4 14m0 4q-.425 0-.712-.288T3 17q0-.425.288-.712T4 16q.425 0 .713.288T5 17q0 .425-.288.713T4 18"/></svg>