<svg xmlns="http://www.w3.org/2000/svg" width="1em" height="1em" viewBox="0 0 24 24"><path fill="currentColor" d="M4 17q-.425 0-.712-.288T3 16V8q0-.425.288-.712T4 7q.425 0 .713.288T5 8v3h4V8q0-.425.288-.712T10 7q.425 0 .713.288T11 8v8q0 .425-.288.713T10 17q-.425 0-.712-.288T9 16v-3H5v3q0 .425-.288.713T4 17m10 0q-.425 0-.712-.288T13 16q0-.425.288-.712T14 15h5v-2h-3q-.425 0-.712-.288T15 12q0-.425.288-.712T16 11h3V9h-5q-.425 0-.712-.288T13 8q0-.425.288-.712T14 7h5q.825 0 1.413.588T21 9v6q0 .825-.587 1.413T19 17z"/></svg>