<svg xmlns="http://www.w3.org/2000/svg" width="1em" height="1em" viewBox="0 0 24 24"><path fill="currentColor" d="M16 22q-2.5 0-4.25-1.75T10 16q0-2.5 1.75-4.25T16 10q2.5 0 4.25 1.75T22 16q0 2.5-1.75 4.25T16 22m0-2q1.65 0 2.825-1.175T20 16q0-1.65-1.175-2.825T16 12q-1.65 0-2.825 1.175T12 16q0 1.65 1.175 2.825T16 20M2 20V9.95L4.15 5H3V2h9v3h-1.15l1.65 3.8q-.475.25-.9.525t-.8.625L8.7 5H6.3L4 10.4V18h4.25q.125.525.337 1.038T9.1 20zM16 9q-1.05 0-1.775-.725T13.5 6.5q0-1.05.725-1.775T16 4zq0-1.05.725-1.775T18.5 6.5q1.05 0 1.775.725T21 9z"/></svg>