<svg xmlns="http://www.w3.org/2000/svg" width="1em" height="1em" viewBox="0 0 24 24"><path fill="currentColor" d="M12.1 21q-.425 0-.712-.288T11.1 20q0-.175.075-.363t.225-.337l4.275-4.275q.15-.15.15-.363t-.15-.362q-.15-.15-.363-.138t-.362.163l-4.25 4.25q-.15.15-.325.225t-.375.075q-.425 0-.712-.288T9 17.876q0-.25.075-.413t.2-.287L13.55 12.9q.15-.15.15-.35t-.15-.35q-.15-.15-.35-.15t-.35.15l-4.275 4.25q-.15.15-.325.225t-.4.075q-.4 0-.7-.3t-.3-.7q0-.2.075-.375t.225-.325l4.25-4.25q.15-.15.15-.363t-.15-.362q-.15-.15-.35-.15t-.35.15L6.45 14.35q-.125.125-.3.2t-.425.075q-.425 0-.712-.288t-.288-.712q0-.2.075-.375t.225-.325l4.9-4.9q.275-.275.688-.25t.687.3l3.05 3.05q.275.275.65.438t.75.162q.8 0 1.4-.562t.6-1.438q0-.35-.125-.725t-.45-.7L12.7 3.825q.425-.4.95-.612T14.7 3q.65 0 1.2.213t1 .662l4.225 4.25q.45.45.663 1T22 10.4q0 .5-.225 1.013t-.65.937L12.8 20.7q-.2.2-.35.25t-.35.05m-8.575-8l-.65-.65q-.425-.4-.65-.95T2 10.25q0-.65.25-1.2t.625-.925L7.1 3.875q.4-.4.95-.638T9.125 3q.675 0 1.2.188t1.025.687L16.475 9q.15.15.225.325t.075.375q0 .4-.3.7t-.7.3q-.225 0-.375-.062t-.325-.238L12 7.35q-.575-.575-1.412-.575t-1.413.575z"/></svg>