<svg xmlns="http://www.w3.org/2000/svg" width="1em" height="1em" viewBox="0 0 24 24"><path fill="currentColor" d="M12 4q-1.125 0-2.15.275t-1.925.8l-1.45-1.45q1.175-.8 2.575-1.213T12 2q2.075 0 3.9.788t3.175 2.137q1.35 1.35 2.138 3.175T22 12q0 1.55-.425 2.95t-1.225 2.575l-1.45-1.45q.525-.9.813-1.925T20 12q0-3.35-2.325-5.675T12 4m0 5.175l-1.5-1.5V6.75q0-.325.213-.538T11.25 6q.325 0 .538.213T12 6.75zM17.5 7.5v3q0 .6-.45 1.05T16 12h-1.175L13 10.175V6.75q0-.325.213-.537T13.75 6H16q.6 0 1.05.45t.45 1.05m-3 3H16v-3h-1.5zm-4 5v-1h-2v1zm-2 1.5v1.25q0 .325-.213.538T7.75 19q-.325 0-.537-.213T7 18.25v-4.5q0-.325.213-.537T7.75 13h2.75q.625 0 1.063.438T12 14.5v1q0 .45-.262.813t-.638.587l.475 1.1q.15.35-.062.675t-.588.325q-.2 0-.387-.112t-.263-.313L9.6 17zM7 8.4l1.5 1.5v1.35q0 .325-.213.538T7.75 12q-.325 0-.537-.213T7 11.25zM4.275 5.675l1.4 1.425q-.8 1.05-1.237 2.263T4 12q0 3.35 2.325 5.675T12 20q1.425 0 2.65-.437t2.275-1.238l1.4 1.4q-1.275 1.1-2.887 1.687T12 22q-2.075 0-3.9-.788t-3.175-2.137q-1.35-1.35-2.137-3.175T2 12q0-1.825.6-3.437t1.675-2.888M21.2 22.6q-.275.275-.7.275t-.7-.275L1.4 4.2q-.275-.275-.275-.7t.275-.7q.275-.275.7-.275t.7.275l18.4 18.4q.275.275.275.7t-.275.7"/></svg>