<svg xmlns="http://www.w3.org/2000/svg" width="1em" height="1em" viewBox="0 0 24 24"><path fill="currentColor" d="M10 12q-1.65 0-2.825-1.175T6 8q0-1.65 1.175-2.825T10 4q1.65 0 2.825 1.175T14 8q0 1.65-1.175 2.825T10 12m-6 8q-.825 0-1.412-.587T2 18v-.8q0-.825.425-1.55t1.175-1.1q1.275-.65 2.875-1.1T10 13q.75 0 1.463.075t1.387.225l-1.525 1.525q-.875.875-.875 2.125t.875 2.125l.925.925zm11.55-2.4l4.35-4.35q.275-.275.7-.275t.7.275q.275.275.275.7t-.275.7l-5.05 5.05q-.3.3-.7.3t-.7-.3l-2.05-2.05q-.275-.275-.275-.7t.275-.7q.275-.275.7-.275t.7.275z"/></svg>