<svg xmlns="http://www.w3.org/2000/svg" width="1em" height="1em" viewBox="0 0 24 24"><path fill="currentColor" d="M4 20q-.825 0-1.412-.587T2 18V6q0-.825.588-1.412T4 4v2.85L1.35 4.2q-.3-.3-.288-.712t.313-.713q.3-.3.713-.3t.712.3l18.375 18.4q.3.3.3.7t-.3.7q-.3.3-.712.3t-.713-.3L17.15 20zm0-2h11.15l-10-10H4zM22 6v11q0 .5-.312.75T21 18q-.375 0-.687-.262T20 16.975V8h-8.325q-.4 0-.763-.15t-.637-.425L8.55 5.7q-.225-.25-.275-.525t.075-.55q.125-.275.35-.45T9.275 4H20q.825 0 1.413.588T22 6m-4 5v2.35q0 .375-.238.55t-.512.175q-.275 0-.513-.187t-.237-.538V11.5h-1.85q-.35 0-.537-.237t-.188-.513q0-.275.175-.513t.55-.237H17q.425 0 .713.288T18 11"/></svg>