<svg xmlns="http://www.w3.org/2000/svg" width="1em" height="1em" viewBox="0 0 24 24"><path fill="currentColor" d="M20.5 16.5q-.625 0-1.062-.437T19 15v-2.5q0-.625.438-1.062T20.5 11q.625 0 1.063.438T22 12.5V15q0 .625-.437 1.063T20.5 16.5M9 12q-1.65 0-2.825-1.175T5 8q0-1.65 1.175-2.825T9 4q.35 0 .688.05t.662.175q-.65.775-1 1.737T9 8q0 1.075.35 2.038t1 1.737q-.325.125-.663.175T9 12m6 0q-1.65 0-2.825-1.175T11 8q0-1.65 1.175-2.825T15 4q1.65 0 2.825 1.175T19 8q0 1.65-1.175 2.825T15 12m-8 8v-2.775q0-.85.425-1.575t1.175-1.1q1.275-.65 2.888-1.1T15 13q.3 0 .588.013t.562.037q-1.05 1.9-.4 3.95t2.575 3zm13-.5v-1.05q-1.2-.175-2.025-1.012t-.95-2.013q-.025-.2.125-.312T17.5 15q.2 0 .338.1t.187.3q.15.875.85 1.488t1.625.612q.925 0 1.613-.587t.837-1.463q.05-.2.2-.325T23.5 15q.2 0 .35.138t.125.337q-.15 1.15-.975 1.975t-2 1v1.05q0 .2-.15.35t-.35.15q-.2 0-.35-.15T20 19.5M1 18v-.775q0-.85.425-1.575t1.175-1.1q.95-.5 2.063-.862t2.437-.563q-1 .7-1.55 1.775T5 17.225V18q0 .5.125 1t.4 1H3q-.825 0-1.412-.587T1 18"/></svg>