<svg xmlns="http://www.w3.org/2000/svg" width="1em" height="1em" viewBox="0 0 24 24"><path fill="currentColor" d="M8 19q-2.925 0-4.962-2.037T1 12q0-2.925 2.038-4.962T8 5q.675 0 1.313.125t1.237.35Q9.1 6.7 8.3 8.4T7.5 12q0 1.9.8 3.6t2.25 2.925q-.6.225-1.237.35T8 19m8 0q-.675 0-1.312-.125t-1.238-.35q.425-.35.8-.762t.7-.863q.275.05.525.075T16 17q2.075 0 3.538-1.463T21 12q0-2.075-1.463-3.537T16 7q-.275 0-.525.025t-.525.075q-.325-.45-.7-.862t-.8-.763q.6-.225 1.238-.35T16 5q2.925 0 4.963 2.038T23 12q0 2.925-2.037 4.963T16 19m-4-1.55q-.175 0-.35-.062t-.3-.188q-1.15-.95-1.75-2.325T9 12q0-1.5.6-2.875T11.35 6.8q.125-.125.3-.187T12 6.55q.175 0 .35.063t.3.187q1.15.95 1.75 2.325T15 12q0 1.5-.6 2.875T12.65 17.2q-.125.125-.3.188t-.35.062"/></svg>