<svg xmlns="http://www.w3.org/2000/svg" width="1em" height="1em" viewBox="0 0 24 24"><path fill="currentColor" d="M3 21q-.825 0-1.412-.587T1 19V6q0-.825.588-1.412T3 4h18q.825 0 1.413.588T23 6v13q0 .825-.587 1.413T21 21zm0-2h18V6H3zm5.5-2h7q.2 0 .35-.15t.15-.35q0-.2-.15-.35T15.5 16h-7q-.2 0-.35.15T8 16.5q0 .2.15.35t.35.15M3 19V6zm3-9q.425 0 .713-.288T7 9q0-.425-.288-.712T6 8q-.425 0-.712.288T5 9q0 .425.288.713T6 10m4 0q.425 0 .713-.288T11 9q0-.425-.288-.712T10 8q-.425 0-.712.288T9 9q0 .425.288.713T10 10m4 0q.425 0 .713-.288T15 9q0-.425-.288-.712T14 8q-.425 0-.712.288T13 9q0 .425.288.713T14 10m4 0q.425 0 .713-.288T19 9q0-.425-.288-.712T18 8q-.425 0-.712.288T17 9q0 .425.288.713T18 10M6 14q.425 0 .713-.288T7 13q0-.425-.288-.712T6 12q-.425 0-.712.288T5 13q0 .425.288.713T6 14m4 0q.425 0 .713-.288T11 13q0-.425-.288-.712T10 12q-.425 0-.712.288T9 13q0 .425.288.713T10 14m4 0q.425 0 .713-.288T15 13q0-.425-.288-.712T14 12q-.425 0-.712.288T13 13q0 .425.288.713T14 14m4 0q.425 0 .713-.288T19 13q0-.425-.288-.712T18 12q-.425 0-.712.288T17 13q0 .425.288.713T18 14"/></svg>