<svg xmlns="http://www.w3.org/2000/svg" width="1em" height="1em" viewBox="0 0 24 24"><path fill="currentColor" d="M6 20q-1.25 0-2.125-.875T3 17H1V4h16v4h3l3 4v5h-2q0 1.25-.875 2.125T18 20q-1.25 0-2.125-.875T15 17H9q0 1.25-.875 2.125T6 20m0-2q.425 0 .713-.288T7 17q0-.425-.288-.712T6 16q-.425 0-.712.288T5 17q0 .425.288.713T6 18m-3-3h.8q.425-.45.975-.725T6 14q.675 0 1.225.275T8.2 15H15V6H3zm15 3q.425 0 .713-.288T19 17q0-.425-.288-.712T18 16q-.425 0-.712.288T17 17q0 .425.288.713T18 18m-1-5h4.25L19 10h-2zm-8-2.5"/></svg>