<svg xmlns="http://www.w3.org/2000/svg" width="1em" height="1em" viewBox="0 0 24 24"><path fill="currentColor" d="M8.75 11.25q0 1.525 1.025 2.663T12 16q1.2-.95 2.225-2.087t1.025-2.663q0-1.35-.95-2.3T12 8q-1.35 0-2.3.95t-.95 2.3M12 12q-.425 0-.712-.288T11 11q0-.425.288-.712T12 10q.425 0 .713.288T13 11q0 .425-.288.713T12 12m-4 7q-2.925 0-4.962-2.037T1 12q0-2.925 2.038-4.962T8 5h8q2.925 0 4.963 2.038T23 12q0 2.925-2.037 4.963T16 19zm0-2h8q2.075 0 3.538-1.463T21 12q0-2.075-1.463-3.537T16 7H8Q5.925 7 4.463 8.463T3 12q0 2.075 1.463 3.538T8 17m4-5"/></svg>