<svg xmlns="http://www.w3.org/2000/svg" width="1em" height="1em" viewBox="0 0 24 24"><path fill="currentColor" d="M18 18q.625 0 1.063-.437T19.5 16.5q0-.625-.437-1.062T18 15q-.625 0-1.062.438T16.5 16.5q0 .625.438 1.063T18 18m0 3q.75 0 1.4-.35t1.075-.975q-.575-.35-1.2-.513T18 19q-.65 0-1.275.162t-1.2.513q.425.625 1.075.975T18 21M9 8h6V6q0-1.25-.875-2.125T12 3q-1.25 0-2.125.875T9 6zm3.25 14H4V8h3V6q0-2.075 1.463-3.537T12 1q2.075 0 3.538 1.463T17 6v2h3v3.3q-.45-.15-.937-.225T18 11v-1H6v10h5.3q.2.6.4 1.038t.55.962M18 23q-2.075 0-3.537-1.463T13 18q0-2.075 1.463-3.537T18 13q2.075 0 3.538 1.463T23 18q0 2.075-1.463 3.538T18 23M6 10v10z"/></svg>