<svg xmlns="http://www.w3.org/2000/svg" width="1em" height="1em" viewBox="0 0 24 24"><path fill="currentColor" d="M13.5 20H7q-.825 0-1.412-.587T5 18v-6.5q0-3.55 2.475-6.025T13.5 3q3.55 0 6.025 2.475T22 11.5q0 3.55-2.475 6.025T13.5 20m0-5q1.45 0 2.475-1.025T17 11.5q0-1.45-1.025-2.475T13.5 8q-1.45 0-2.475 1.025T10 11.5q0 1.45 1.025 2.475T13.5 15m0-2q-.625 0-1.063-.437T12 11.5q0-.625.438-1.062T13.5 10q.625 0 1.063.438T15 11.5q0 .625-.437 1.063T13.5 13M3 20q-.425 0-.712-.288T2 19v-3q0-.425.288-.712T3 15q.425 0 .713.288T4 16v3q0 .425-.288.713T3 20"/></svg>