<svg xmlns="http://www.w3.org/2000/svg" width="1em" height="1em" viewBox="0 0 24 24"><path fill="currentColor" d="M4 20q-.825 0-1.412-.587T2 18V4q0-.825.588-1.412T4 2h9q.825 0 1.413.588T15 4v4.05q-.525.05-1.025.188T13 8.575V4H4v14h4v2zm4-3.025V16q0-.275.013-.537t.062-.538Q7.6 14.8 7.3 14.4t-.3-.9q0-.625.438-1.062T8.5 12q.125 0 .25.025T9 12.1q.25-.45.563-.862t.662-.788q-.375-.225-.812-.337T8.5 10q-1.45 0-2.475 1.025T5 13.5q0 1.35.863 2.313T8 16.975M8.5 8.5q.625 0 1.063-.437T10 7q0-.625-.437-1.062T8.5 5.5q-.625 0-1.062.438T7 7q0 .625.438 1.063T8.5 8.5M14 22h-2q-.825 0-1.412-.587T10 20v-4q0-2.5 1.75-4.25T16 10q2.5 0 4.25 1.75T22 16v4q0 .825-.587 1.413T20 22h-2v-5h2.5v-1q0-1.875-1.312-3.187T16 11.5q-1.875 0-3.187 1.313T11.5 16v1H14z"/></svg>