<svg xmlns="http://www.w3.org/2000/svg" width="1em" height="1em" viewBox="0 0 24 24"><path fill="currentColor" d="M19.8 22.6L1.4 4.2q-.275-.275-.275-.7t.275-.7q.275-.275.7-.275t.7.275l18.4 18.4q.275.275.275.7t-.275.7q-.275.275-.7.275t-.7-.275M5 6.425l2 2V18h9.6l2.4 2.4v.6q0 .825-.587 1.413T17 23H7q-.825 0-1.412-.587T5 21zM7 20v1h10v-1zm10 0v1H7v-1zm0-5V6H9.65q-.4 0-.763-.162T8.25 5.4L5.975 3.15q-.575-.575-.213-1.362T7 1h10q.825 0 1.413.588T19 3v12q0 .425-.288.713T18 16q-.425 0-.712-.288T17 15"/></svg>