<svg xmlns="http://www.w3.org/2000/svg" width="1em" height="1em" viewBox="0 0 24 24"><path fill="currentColor" d="M3 20v-1l2-2v3q0 .425-.288.713T4 21q-.425 0-.712-.288T3 20m4 0v-5l2-2v7q0 .425-.288.713T8 21q-.425 0-.712-.288T7 20m4 0v-7l2 2.025V20q0 .425-.288.713T12 21q-.425 0-.712-.288T11 20m4 0v-4.975l2-2V20q0 .425-.288.713T16 21q-.425 0-.712-.288T15 20m4 0v-9l2-2v11q0 .425-.288.713T20 21q-.425 0-.712-.288T19 20M3.3 12.7l5.275-5.275Q9.15 6.85 10 6.85t1.425.575L14 10l5.3-5.3q.3-.3.713-.288t.712.313q.275.3.263.713t-.288.687L15.425 11.4q-.575.575-1.425.575t-1.425-.575L10 8.825l-5.3 5.3q-.3.3-.712.288t-.713-.313q-.275-.3-.262-.712T3.3 12.7"/></svg>