<svg xmlns="http://www.w3.org/2000/svg" width="1em" height="1em" viewBox="0 0 24 24"><path fill="currentColor" d="M10 15q.425 0 .713-.288T11 14v-4q0-.425-.288-.712T10 9q-.425 0-.712.288T9 10v4q0 .425.288.713T10 15m4 0q.425 0 .713-.288T15 14v-4q0-.425-.288-.712T14 9q-.425 0-.712.288T13 10v4q0 .425.288.713T14 15m-2 7q-2.075 0-3.9-.788t-3.175-2.137q-1.35-1.35-2.137-3.175T2 12q0-.8.125-1.6T2.5 8.825q.125-.4.513-.537t.737.062q.375.2.538.588t.037.812q-.15.55-.238 1.113T4 12q0 3.35 2.325 5.675T12 20q3.35 0 5.675-2.325T20 12q0-3.35-2.325-5.675T12 4q-.6 0-1.187.087T9.65 4.35q-.425.125-.8-.025T8.3 3.8q-.175-.375-.013-.762t.563-.513q.75-.275 1.55-.4T12 2q2.075 0 3.9.788t3.175 2.137q1.35 1.35 2.138 3.175T22 12q0 2.075-.788 3.9t-2.137 3.175q-1.35 1.35-3.175 2.138T12 22M5.5 7q-.625 0-1.062-.437T4 5.5q0-.625.438-1.062T5.5 4q.625 0 1.063.438T7 5.5q0 .625-.437 1.063T5.5 7m.5 5q0-2.5 1.75-4.25T12 6q2.5 0 4.25 1.75T18 12q0 2.5-1.75 4.25T12 18q-2.5 0-4.25-1.75T6 12"/></svg>