<svg xmlns="http://www.w3.org/2000/svg" width="1em" height="1em" viewBox="0 0 24 24"><path fill="currentColor" d="M19.425 18H16.25q-.425 0-.712-.288T15.25 17q0-.425.288-.712T16.25 16h3.175l-.9-.9q-.275-.275-.275-.687t.3-.713q.275-.275.7-.275t.7.275l2.6 2.6q.3.3.3.7t-.3.7l-2.6 2.6q-.275.275-.687.288t-.713-.288q-.275-.275-.275-.7t.275-.7zM10 15q1.4 0 2.525-.687T14.3 12.5q-.875-.725-1.975-1.112T10 11q-1.225 0-2.325.388T5.7 12.5q.65 1.125 1.775 1.813T10 15m0-5q.825 0 1.413-.587T12 8q0-.825-.587-1.412T10 6q-.825 0-1.412.588T8 8q0 .825.588 1.413T10 10m0 11.325q-.35 0-.7-.125t-.625-.375Q7.05 19.325 5.8 17.9t-2.087-2.762q-.838-1.338-1.275-2.575T2 10.2q0-3.75 2.413-5.975T10 2q3.175 0 5.588 2.225T18 10.2q0 .225-.012.463t-.063.487H15.9q.05-.25.075-.488T16 10.2q0-2.725-1.737-4.462T10 4Q7.475 4 5.738 5.738T4 10.2q0 1.775 1.475 4.063T10 19.35q.575-.5 1.063-1t.937-.975l.225.225l.488.488q.262.262.475.487l.212.225q-.575.6-1.15 1.163t-.925.862q-.275.25-.625.375t-.7.125"/></svg>