<svg xmlns="http://www.w3.org/2000/svg" width="1em" height="1em" viewBox="0 0 24 24"><path fill="currentColor" d="M12 18q-.825 0-1.412-.587T10 16V8q0-.825.588-1.412T12 6h8q.825 0 1.413.588T22 8v8q0 .825-.587 1.413T20 18zm0-10v8h8V8zM7 8q-.425 0-.712-.288T6 7q0-.425.288-.712T7 6q.425 0 .713.288T8 7q0 .425-.288.713T7 8M3 8q-.425 0-.712-.288T2 7q0-.425.288-.712T3 6q.425 0 .713.288T4 7q0 .425-.288.713T3 8m0 5q-.425 0-.712-.288T2 12q0-.425.288-.712T3 11q.425 0 .713.288T4 12q0 .425-.288.713T3 13m0 5q-.425 0-.712-.288T2 17q0-.425.288-.712T3 16q.425 0 .713.288T4 17q0 .425-.288.713T3 18m4 0q-.425 0-.712-.288T6 17q0-.425.288-.712T7 16q.425 0 .713.288T8 17q0 .425-.288.713T7 18m9-6"/></svg>