<svg xmlns="http://www.w3.org/2000/svg" width="1em" height="1em" viewBox="0 0 24 24"><path fill="currentColor" d="M8 14q-.825 0-1.412-.587T6 12V4q0-.825.588-1.412T8 2h8q.825 0 1.413.588T18 4v8q0 .825-.587 1.413T16 14zm-1 4q-.425 0-.712-.288T6 17q0-.425.288-.712T7 16q.425 0 .713.288T8 17q0 .425-.288.713T7 18m0 4q-.425 0-.712-.288T6 21q0-.425.288-.712T7 20q.425 0 .713.288T8 21q0 .425-.288.713T7 22m5 0q-.425 0-.712-.288T11 21q0-.425.288-.712T12 20q.425 0 .713.288T13 21q0 .425-.288.713T12 22m5 0q-.425 0-.712-.288T16 21q0-.425.288-.712T17 20q.425 0 .713.288T18 21q0 .425-.288.713T17 22m0-4q-.425 0-.712-.288T16 17q0-.425.288-.712T17 16q.425 0 .713.288T18 17q0 .425-.288.713T17 18"/></svg>