<svg xmlns="http://www.w3.org/2000/svg" width="1em" height="1em" viewBox="0 0 24 24"><path fill="currentColor" d="M12 22q-2.075 0-3.537-1.463T7 17V7q0-2.075 1.463-3.537T12 2q2.075 0 3.538 1.463T17 7v10q0 2.075-1.463 3.538T12 22m0-12q.825 0 1.413-.587T14 8q0-.825-.587-1.412T12 6q-.825 0-1.412.588T10 8q0 .825.588 1.413T12 10m0 8q.825 0 1.413-.587T14 16q0-.825-.587-1.412T12 14q-.825 0-1.412.588T10 16q0 .825.588 1.413T12 18m0-1q-.425 0-.712-.288T11 16q0-.425.288-.712T12 15q.425 0 .713.288T13 16q0 .425-.288.713T12 17"/></svg>