<svg xmlns="http://www.w3.org/2000/svg" width="1em" height="1em" viewBox="0 0 24 24"><path fill="currentColor" d="M6 21q-1.25 0-2.125-.875T3 18V9q0-.425.288-.712T4 8q.425 0 .713.288T5 9v9q0 .425.288.713T6 19q.425 0 .713-.288T7 18V6q0-1.25.875-2.125T10 3q1.25 0 2.125.875T13 6v12q0 .425.288.713T14 19q.425 0 .713-.288T15 18V6q0-1.25.875-2.125T18 3q1.25 0 2.125.875T21 6v9q0 .425-.288.713T20 16q-.425 0-.712-.288T19 15V6q0-.425-.288-.712T18 5q-.425 0-.712.288T17 6v12q0 1.25-.875 2.125T14 21q-1.25 0-2.125-.875T11 18V6q0-.425-.288-.712T10 5q-.425 0-.712.288T9 6v12q0 1.25-.875 2.125T6 21"/></svg>