<svg xmlns="http://www.w3.org/2000/svg" width="1em" height="1em" viewBox="0 0 24 24"><path fill="currentColor" d="m16.5 13.675l3.5 3.5V8q0-1.4-.85-2.45T17 4.15V3q0-.425-.288-.713T16 2h-1q-.425 0-.712.288T14 3v1h-4V3q0-.425-.288-.712T9 2H8q-.425 0-.712.288T7 3v1.15L14.825 12h.675q.425 0 .713.288T16.5 13zm2.575 8.225l-2.5-2.5h2.8L20 20q0 .825-.587 1.413T18 22H6q-.825 0-1.412-.587T4 20V8q0-.825.313-1.55t.862-1.275l.975.975v2.825L2.1 4.925q-.275-.275-.275-.687t.275-.713q.3-.3.713-.3t.712.3L20.475 20.5q.275.275.287.688t-.287.712q-.275.275-.7.275t-.7-.275m-7.9-7.9l-2-2H8.5q-.425 0-.712.288T7.5 13q0 .425.288.713T8.5 14z"/></svg>