<svg xmlns="http://www.w3.org/2000/svg" width="1em" height="1em" viewBox="0 0 24 24"><path fill="currentColor" d="M12 22q-2.075 0-3.9-.788t-3.175-2.137q-1.35-1.35-2.137-3.175T2 12q0-2.075.788-3.9t2.137-3.175q1.35-1.35 3.175-2.137T12 2q2.075 0 3.9.788t3.175 2.137q1.35 1.35 2.138 3.175T22 12q0 2.075-.788 3.9t-2.137 3.175q-1.35 1.35-3.175 2.138T12 22m0-2q3.35 0 5.675-2.325T20 12q0-3.35-2.325-5.675T12 4Q8.65 4 6.325 6.325T4 12q0 3.35 2.325 5.675T12 20m.975-2q-.975 0-1.75-.6T10.1 15.85q-.075-.2-.162-.388t-.238-.337L8.45 13.85q-.65-.65-1.05-1.5t-.4-1.8q0-1.875 1.313-3.213T11.5 6q1.3 0 2.388.688T15.55 8.55q.25.5-.038.975T14.65 10q-.3 0-.537-.162T13.75 9.4q-.325-.65-.925-1.025T11.5 8q-1.05 0-1.775.725T9 10.5q0 .525.188 1t.562.85l1.375 1.35q.35.35.563.763t.362.862q.125.3.375.488T13 16q.275 0 .513-.137t.362-.388q.125-.225.35-.35t.5-.125q.575 0 .875.475t.025.975q-.4.725-1.112 1.138T12.974 18m.525-4q.625 0 1.063-.437T15 12.5q0-.625-.437-1.062T13.5 11q-.625 0-1.062.438T12 12.5q0 .625.438 1.063T13.5 14"/></svg>