<svg xmlns="http://www.w3.org/2000/svg" width="1em" height="1em" viewBox="0 0 24 24"><path fill="currentColor" d="M9 17h6q.425 0 .713-.288T16 16q0-.425-.288-.712T15 15H9q-.425 0-.712.288T8 16q0 .425.288.713T9 17m1.95-5.8L9.5 9.75q-.275-.275-.7-.275t-.7.275q-.275.275-.275.7t.275.7l2.15 2.15q.3.3.7.3t.7-.3l4.25-4.25q.3-.3.288-.713t-.313-.687q-.3-.275-.712-.262t-.688.287zM12 22q-2.075 0-3.9-.788t-3.175-2.137q-1.35-1.35-2.137-3.175T2 12q0-2.075.788-3.9t2.137-3.175q1.35-1.35 3.175-2.137T12 2q2.075 0 3.9.788t3.175 2.137q1.35 1.35 2.138 3.175T22 12q0 2.075-.788 3.9t-2.137 3.175q-1.35 1.35-3.175 2.138T12 22m0-2q3.35 0 5.675-2.325T20 12q0-3.35-2.325-5.675T12 4Q8.65 4 6.325 6.325T4 12q0 3.35 2.325 5.675T12 20m0-8"/></svg>