<svg xmlns="http://www.w3.org/2000/svg" width="1em" height="1em" viewBox="0 0 24 24"><path fill="currentColor" d="M3.5 12q0 1.575.525 2.938t1.45 2.487q.2.25.213.575t-.213.55q-.225.225-.562.2t-.563-.3q-1.125-1.325-1.737-2.963T2 12q0-1.85.613-3.488T4.35 5.55q.225-.275.563-.287t.562.212q.225.225.213.538t-.213.562Q4.55 7.7 4.025 9.063T3.5 12m3 0q0 .95.288 1.788t.812 1.537q.2.275.2.575t-.225.525q-.225.225-.525.213t-.5-.263q-.725-.9-1.137-2.013T5 12q0-1.25.413-2.363T6.55 7.625q.2-.25.5-.262t.525.212Q7.8 7.8 7.8 8.1t-.2.575q-.525.7-.812 1.537T6.5 12m4.5 4.5q0-.575-.387-1.137t-.863-1.175q-.475-.613-.862-1.276T8.5 11.5q0-1.45 1.025-2.475T12 8q1.45 0 2.475 1.025T15.5 11.5q0 .75-.387 1.413t-.863 1.274q-.475.613-.862 1.176T13 16.5zm0 1.5v-.5h2v.5q0 .425-.288.713T12 19q-.425 0-.712-.288T11 18m6.5-6q0-.95-.288-1.787T16.4 8.675q-.2-.275-.2-.575t.225-.525q.225-.225.525-.212t.5.262q.725.9 1.138 2.013T19 12q0 1.25-.413 2.363t-1.137 2.012q-.2.25-.5.263t-.525-.213Q16.2 16.2 16.2 15.9t.2-.575q.525-.7.813-1.537T17.5 12m3 0q0-1.575-.525-2.937t-1.45-2.488q-.2-.25-.212-.575t.212-.55q.225-.225.563-.2t.562.3q1.125 1.325 1.738 2.963T22 12q0 1.85-.612 3.488T19.65 18.45q-.225.275-.562.288t-.563-.213q-.225-.225-.212-.537t.212-.563q.925-1.125 1.45-2.488T20.5 12"/></svg>