<svg xmlns="http://www.w3.org/2000/svg" width="1em" height="1em" viewBox="0 0 24 24"><path fill="currentColor" d="M12 22q-2.075 0-3.9-.788t-3.175-2.137q-1.35-1.35-2.137-3.175T2 12q0-2.075.788-3.9t2.137-3.175q1.35-1.35 3.175-2.137T12 2q2.1 0 3.913.788t3.162 2.137q1.35 1.35 2.138 3.163T22 12q0 .25-.012.488t-.038.462q-.05.425-.362.65t-.738.15q-.425-.075-.675-.425t-.2-.775q0-.125.013-.275T20 12q0-1.675-.612-3.125t-1.713-2.55q-1.1-1.1-2.55-1.713T12 4Q8.65 4 6.325 6.325T4 12q0 3.35 2.325 5.675T12 20q1.125 0 2.163-.288t1.962-.862q.35-.2.763-.15t.637.4q.25.35.163.763t-.438.637q-1.175.725-2.488 1.113T12 22m7.25-4q-.525 0-.888-.363T18 16.75q0-.525.363-.888t.887-.362q.525 0 .888.363t.362.887q0 .525-.363.888T19.25 18M13 11.6l3 3q.275.275.275.7T16 16q-.275.275-.7.275T14.6 16l-3.3-3.3q-.15-.15-.225-.337T11 11.975V8q0-.425.288-.712T12 7q.425 0 .713.288T13 8z"/></svg>