<svg xmlns="http://www.w3.org/2000/svg" width="1em" height="1em" viewBox="0 0 24 24"><path fill="currentColor" d="M7.5 11q-1.45 0-2.475-1.025T4 7.5q0-1.45 1.025-2.475T7.5 4q1.45 0 2.475 1.025T11 7.5q0 1.45-1.025 2.475T7.5 11m0-2q.625 0 1.063-.437T9 7.5q0-.625-.437-1.062T7.5 6q-.625 0-1.062.438T6 7.5q0 .625.438 1.063T7.5 9m9 11q-1.45 0-2.475-1.025T13 16.5q0-1.45 1.025-2.475T16.5 13q1.45 0 2.475 1.025T20 16.5q0 1.45-1.025 2.475T16.5 20m0-2q.625 0 1.063-.437T18 16.5q0-.625-.437-1.062T16.5 15q-.625 0-1.062.438T15 16.5q0 .625.438 1.063T16.5 18M4.7 19.3q-.275-.275-.275-.7t.275-.7L17.9 4.7q.275-.275.7-.275t.7.275q.275.275.275.7t-.275.7L6.1 19.3q-.275.275-.7.275t-.7-.275"/></svg>