<svg xmlns="http://www.w3.org/2000/svg" width="1em" height="1em" viewBox="0 0 24 24"><path fill="currentColor" d="M5.85 18h8q.325 0 .463-.275t-.063-.525l-2.4-3.175q-.15-.2-.4-.2t-.4.2l-1.8 2.425q-.15.2-.4.2t-.4-.2l-.8-1.075q-.15-.2-.4-.2t-.4.2L5.45 17.2q-.2.25-.063.525T5.85 18M5 21q-.825 0-1.413-.587T3 19V9q0-.825.588-1.412T5 7h10q.825 0 1.413.588T17 9v10q0 .825-.587 1.413T15 21zM4 5q-.425 0-.713-.288T3 4q0-.425.288-.712T4 3q.425 0 .713.288T5 4q0 .425-.288.713T4 5m4 0q-.425 0-.712-.288T7 4q0-.425.288-.712T8 3q.425 0 .713.288T9 4q0 .425-.288.713T8 5m4 0q-.425 0-.712-.288T11 4q0-.425.288-.712T12 3q.425 0 .713.288T13 4q0 .425-.288.713T12 5m4 0q-.425 0-.712-.288T15 4q0-.425.288-.712T16 3q.425 0 .713.288T17 4q0 .425-.288.713T16 5m4 0q-.425 0-.712-.288T19 4q0-.425.288-.712T20 3q.425 0 .713.288T21 4q0 .425-.288.713T20 5m0 4q-.425 0-.712-.288T19 8q0-.425.288-.712T20 7q.425 0 .713.288T21 8q0 .425-.288.713T20 9m0 4q-.425 0-.712-.288T19 12q0-.425.288-.712T20 11q.425 0 .713.288T21 12q0 .425-.288.713T20 13m0 4q-.425 0-.712-.288T19 16q0-.425.288-.712T20 15q.425 0 .713.288T21 16q0 .425-.288.713T20 17m0 4q-.425 0-.712-.288T19 20q0-.425.288-.712T20 19q.425 0 .713.288T21 20q0 .425-.288.713T20 21"/></svg>