<svg xmlns="http://www.w3.org/2000/svg" width="1em" height="1em" viewBox="0 0 24 24"><path fill="currentColor" d="M4.725 22q-.425.05-.737-.187t-.363-.663L2.025 8.2q-.05-.425.188-.737t.662-.363l2.15-.25V16q0 1.25.875 2.125T8.025 19h10.45v.3q0 .425-.288.738t-.712.362zm3.3-5q-.425 0-.712-.288T7.025 16V3q0-.425.288-.712T8.025 2h13q.425 0 .713.288t.287.712v13q0 .425-.287.713t-.713.287zm6.5-3q-.075-1.65-1.287-2.825T10.325 10q.125 1.65 1.313 2.825T14.525 14m0-3q.425 0 .713-.288t.287-.712v-.25l.25.1q.375.15.763.075t.587-.425q.225-.375.15-.8t-.5-.6l-.25-.1l.25-.1q.425-.175.488-.613t-.138-.787q-.225-.375-.6-.437t-.75.087l-.25.1V6q0-.425-.288-.712T14.526 5q-.425 0-.712.288T13.525 6v.25l-.25-.1q-.375-.15-.75-.088t-.6.438q-.2.35-.137.788t.487.612l.25.1l-.25.1q-.425.175-.5.6t.15.8q.2.35.588.425t.762-.075l.25-.1V10q0 .425.288.713t.712.287m0-2q-.425 0-.712-.288T13.525 8q0-.425.288-.712T14.525 7q.425 0 .713.288t.287.712q0 .425-.288.713T14.526 9m0 5q1.7 0 2.888-1.175T18.725 10q-1.7 0-2.912 1.175T14.525 14"/></svg>