<svg xmlns="http://www.w3.org/2000/svg" width="1em" height="1em" viewBox="0 0 24 24"><path fill="currentColor" d="M3 15q-.425 0-.712-.288T2 14q0-.425.288-.712T3 13h3q.425 0 .713.288T7 14q0 .425-.288.713T6 15zm7 0q-.425 0-.712-.288T9 14q0-.425.288-.712T10 13h3q.425 0 .713.288T14 14q0 .425-.288.713T13 15zm7 0q-.425 0-.712-.288T16 14q0-.425.288-.712T17 13h3q.425 0 .713.288T21 14q0 .425-.288.713T20 15zM3 11q-.425 0-.712-.288T2 10q0-.425.288-.712T3 9h17q.425 0 .713.288T21 10q0 .425-.288.713T20 11z"/></svg>