<svg xmlns="http://www.w3.org/2000/svg" width="1em" height="1em" viewBox="0 0 24 24"><path fill="currentColor" d="M2 20q-.425 0-.712-.288T1 19q0-.425.288-.712T2 18h4v-2H3q-.425 0-.712-.288T2 15q0-.425.288-.712T3 14h3v-2H4.05q-.425 0-.712-.288T3.05 11q0-.425.288-.712T4.05 10H6V7.05l-1.525-3.3q-.175-.375-.038-.762t.513-.563q.375-.175.763-.037t.562.512L8.2 7h11.6l-1.525-3.25q-.175-.375-.037-.762t.512-.563q.375-.175.763-.037t.562.512L21.8 6.6q.1.2.15.413t.05.437V18q0 .825-.587 1.413T20 20zm10-7h4q.425 0 .713-.288T17 12q0-.425-.288-.712T16 11h-4q-.425 0-.712.288T11 12q0 .425.288.713T12 13m-4 5h12V9H8zm0 0V9z"/></svg>