<svg xmlns="http://www.w3.org/2000/svg" width="1em" height="1em" viewBox="0 0 24 24"><path fill="currentColor" d="M17 20q.2 0 .35-.15t.15-.35v-3q0-.2-.15-.35T17 16q-.2 0-.35.15t-.15.35v3q0 .2.15.35T17 20m0-5q.2 0 .35-.15t.15-.35q0-.2-.15-.35T17 14q-.2 0-.35.15t-.15.35q0 .2.15.35T17 15M5 4v16zv5zm3 10h2.5q.425 0 .713-.288T11.5 13q0-.425-.288-.712T10.5 12H8q-.425 0-.712.288T7 13q0 .425.288.713T8 14m0 4h1q.425 0 .713-.288T10 17q0-.425-.288-.712T9 16H8q-.425 0-.712.288T7 17q0 .425.288.713T8 18m-3 4q-.825 0-1.412-.587T3 20V4q0-.825.588-1.412T5 2h7.175q.4 0 .763.15t.637.425l4.85 4.85q.275.275.425.638t.15.762v.325q0 .425-.288.712T18 10.15q-.425 0-.712-.288T17 9.15V9h-4q-.425 0-.712-.288T12 8V4H5v16h5.525q.425 0 .713.288t.287.712q0 .425-.288.713t-.712.287zm12-10q2.075 0 3.538 1.463T22 17q0 2.075-1.463 3.538T17 22q-2.075 0-3.537-1.463T12 17q0-2.075 1.463-3.537T17 12"/></svg>