<svg xmlns="http://www.w3.org/2000/svg" width="1em" height="1em" viewBox="0 0 24 24"><path fill="currentColor" d="M12 22q-2.075 0-3.9-.788t-3.175-2.137q-1.35-1.35-2.137-3.175T2 12q0-2.075.788-3.9t2.137-3.175q1.35-1.35 3.175-2.137T12 2q2.075 0 3.9.788t3.175 2.137q1.35 1.35 2.138 3.175T22 12q0 2.075-.788 3.9t-2.137 3.175q-1.35 1.35-3.175 2.138T12 22m0-2q1.4 0 2.638-.437t2.262-1.238L15.475 16.9q-.725.525-1.612.813T12 18q-2.5 0-4.25-1.75T6 12q0-2.5 1.75-4.25T12 6q2.5 0 4.25 1.75T18 12q0 .975-.3 1.875t-.825 1.625l1.425 1.425q.8-1.025 1.25-2.275T20 12q0-3.35-2.325-5.675T12 4Q8.65 4 6.325 6.325T4 12q0 3.35 2.325 5.675T12 20m0-4q.55 0 1.063-.137t.962-.413L12.5 13.925q-.125.05-.25.063T12 14q-.825 0-1.412-.587T10 12q0-.825.588-1.412T12 10q.825 0 1.413.588T14 12q0 .15-.012.288t-.063.262l1.5 1.5q.275-.45.425-.962T16 12q0-1.65-1.175-2.825T12 8q-1.65 0-2.825 1.175T8 12q0 1.65 1.175 2.825T12 16"/></svg>