<svg xmlns="http://www.w3.org/2000/svg" width="1em" height="1em" viewBox="0 0 24 24"><path fill="currentColor" d="M3 19q-.825 0-1.412-.587T1 17V7q0-.825.588-1.412T3 5h10q.825 0 1.413.588T15 7v10q0 .825-.587 1.413T13 19zm0-3.65q1.1-.65 2.35-1T8 14q1.4 0 2.65.35t2.35 1V7H3zM8 16q-1.025 0-2 .25T4.15 17h7.7q-.875-.5-1.85-.75T8 16m0-2.75q-1.125 0-1.937-.812T5.25 10.5q0-1.125.813-1.937T8 7.75q1.125 0 1.938.813t.812 1.937q0 1.125-.812 1.938T8 13.25m0-1.85q.375 0 .638-.262T8.9 10.5q0-.375-.262-.638T8 9.6q-.375 0-.638.263T7.1 10.5q0 .375.263.638T8 11.4m9 7.6V5h2v14zm4 0V5h2v14zM8 17"/></svg>