<svg xmlns="http://www.w3.org/2000/svg" width="1em" height="1em" viewBox="0 0 24 24"><path fill="currentColor" d="M5 21q-.425 0-.712-.288T4 20v-4q0-.825.588-1.412T6 14h12q.825 0 1.413.588T20 16v4q0 .425-.288.713T19 21zm4-8q-2.075 0-3.537-1.463T4 8q0-2.075 1.463-3.537T9 3h6q2.075 0 3.538 1.463T20 8q0 2.075-1.463 3.538T15 13zm0-4q.425 0 .713-.288T10 8q0-.425-.288-.712T9 7q-.425 0-.712.288T8 8q0 .425.288.713T9 9m6 0q.425 0 .713-.288T16 8q0-.425-.288-.712T15 7q-.425 0-.712.288T14 8q0 .425.288.713T15 9"/></svg>