<svg xmlns="http://www.w3.org/2000/svg" width="1em" height="1em" viewBox="0 0 24 24"><path fill="currentColor" d="M13 22q-.925 0-1.812-.187t-1.738-.538q-.375-.15-.5-.537t.025-.763q.15-.375.525-.537t.75.012q.65.275 1.338.413T13 20q2.925 0 4.963-2.037T20 13q0-2.925-2.05-4.962T12.975 6H12.8l.9.9q.275.275.275.7t-.275.7q-.275.275-.7.275t-.7-.275L9.7 5.7q-.125-.125-.2-.312T9.425 5q0-.2.075-.387t.2-.313l2.6-2.6q.275-.275.7-.275t.7.275q.275.275.275.7t-.275.7l-.9.9h.175q3.75 0 6.388 2.625T22 13q0 3.75-2.625 6.375T13 22m-6-3.425q-.2 0-.375-.062T6.3 18.3l-4.6-4.6q-.15-.15-.212-.325T1.425 13q0-.2.063-.375T1.7 12.3l4.6-4.6q.15-.15.325-.213T7 7.426q.2 0 .375.063T7.7 7.7l4.6 4.6q.15.15.213.325t.062.375q0 .2-.062.375t-.213.325l-4.6 4.6q-.15.15-.325.213T7 18.575m0-2.425L10.15 13L7 9.85L3.85 13zM7 13"/></svg>