<svg xmlns="http://www.w3.org/2000/svg" width="1em" height="1em" viewBox="0 0 24 24"><path fill="currentColor" d="M5 21q-.825 0-1.412-.587T3 19v-4q0-.825.588-1.412T5 13h10V9h2v4h2q.825 0 1.413.588T21 15v4q0 .825-.587 1.413T19 21zm2-3q.425 0 .713-.288T8 17q0-.425-.288-.712T7 16q-.425 0-.712.288T6 17q0 .425.288.713T7 18m3.5 0q.425 0 .713-.288T11.5 17q0-.425-.288-.712T10.5 16q-.425 0-.712.288T9.5 17q0 .425.288.713T10.5 18m3.5 0q.425 0 .713-.288T15 17q0-.425-.288-.712T14 16q-.425 0-.712.288T13 17q0 .425.288.713T14 18m.25-9.75L12.8 6.8q.65-.6 1.45-.95T16 5.5q.95 0 1.75.35t1.45.95l-1.45 1.45q-.35-.35-.788-.55T16 7.5q-.525 0-.963.2t-.787.55m-2.5-2.5l-1.4-1.4q1.1-1.1 2.55-1.725T16 2q1.65 0 3.1.625t2.55 1.725l-1.4 1.4q-.825-.825-1.912-1.287T16 4q-1.25 0-2.337.463T11.75 5.75"/></svg>