<svg xmlns="http://www.w3.org/2000/svg" width="1em" height="1em" viewBox="0 0 24 24"><path fill="currentColor" d="m15.3 16.7l1.4-1.4l-3.7-3.7V7h-2v5.4zM12 22q-2.075 0-3.9-.788t-3.175-2.137q-1.35-1.35-2.137-3.175T2 12q0-2.075.788-3.9t2.137-3.175q1.35-1.35 3.175-2.137T12 2q2.075 0 3.9.788t3.175 2.137q1.35 1.35 2.138 3.175T22 12q0 2.075-.788 3.9t-2.137 3.175q-1.35 1.35-3.175 2.138T12 22m0-2q3.325 0 5.663-2.337T20 12q0-3.325-2.337-5.663T12 4Q8.675 4 6.337 6.338T4 12q0 3.325 2.338 5.663T12 20"/></svg>