<svg xmlns="http://www.w3.org/2000/svg" width="1em" height="1em" viewBox="0 0 24 24"><path fill="currentColor" d="M3 18.5v-13q0-.55.438-.837t.937-.088L17.3 10H17q-.875 0-1.65.2t-1.5.55L5 7v3.5l6 1.5l-6 1.5V17l5.4-2.3q-.2.575-.3 1.138T10 17v.05l-5.6 2.375q-.5.2-.95-.088T3 18.5M17 22q-2.075 0-3.537-1.463T12 17q0-2.075 1.463-3.537T17 12q2.075 0 3.538 1.463T22 17q0 2.075-1.463 3.538T17 22m.5-5.2v-2.3q0-.2-.15-.35T17 14q-.2 0-.35.15t-.15.35v2.275q0 .2.075.388t.225.337l1.5 1.5q.15.15.35.15T19 19q.15-.15.15-.35T19 18.3zM5 14.7V7v10z"/></svg>