<svg xmlns="http://www.w3.org/2000/svg" width="1em" height="1em" viewBox="0 0 24 24"><path fill="currentColor" d="M19.075 21.9L8.125 10.975q-.05.25-.088.5T8 12q0 .575.15 1.088t.425.962q.225.35.213.775t-.313.725q-.3.3-.725.288t-.65-.363q-.525-.725-.812-1.625T6 12q0-.7.15-1.35t.425-1.225L5.1 7.95q-.525.9-.812 1.913T4 12q0 1.4.425 2.638t1.225 2.237q.275.35.275.763t-.3.712q-.3.3-.725.288t-.7-.363q-1.05-1.3-1.625-2.887T2 12q0-1.55.438-2.925T3.65 6.5L2.075 4.925q-.3-.3-.3-.712t.3-.713q.3-.3.713-.3t.712.3l17 17q.3.3.3.7t-.3.7q-.3.3-.712.3t-.713-.3m1.275-4.4l-1.45-1.45q.525-.9.813-1.912T20 12q0-1.4-.425-2.637T18.35 7.125q-.275-.35-.288-.763t.288-.712q.3-.3.738-.288t.712.363Q20.85 7 21.425 8.6T22 12q0 1.525-.437 2.913T20.35 17.5m-2.925-2.925l-1.55-1.55q.05-.25.088-.5T16 12q0-.575-.15-1.088t-.425-.962q-.225-.35-.2-.775t.325-.725q.3-.3.7-.287t.65.362q.525.725.813 1.613T18 12q0 .7-.15 1.35t-.425 1.225"/></svg>