<svg xmlns="http://www.w3.org/2000/svg" width="1em" height="1em" viewBox="0 0 24 24"><path fill="currentColor" d="M4 12q0 1.4.425 2.638t1.225 2.237q.275.35.275.763t-.3.712q-.3.3-.725.288t-.7-.363q-1.05-1.3-1.625-2.887T2 12q0-1.8.575-3.4T4.2 5.725q.275-.35.7-.363t.725.288q.3.3.3.712t-.275.763q-.8 1.025-1.225 2.263T4 12m4 0q0 .575.15 1.088t.425.962q.225.35.213.775t-.313.725q-.3.3-.725.288t-.65-.363q-.525-.725-.812-1.625T6 12q0-.975.288-1.862T7.1 8.525q.25-.35.663-.35t.712.3q.3.3.313.713t-.213.762q-.275.45-.425.963T8 12m4 2q-.825 0-1.412-.587T10 12q0-.825.588-1.412T12 10q.825 0 1.413.588T14 12q0 .825-.587 1.413T12 14m4-2q0-.575-.15-1.088t-.425-.962q-.225-.35-.2-.775t.325-.725q.3-.3.7-.287t.65.362q.525.725.813 1.613T18 12q0 .95-.288 1.85t-.812 1.625q-.225.35-.65.35t-.725-.3q-.3-.3-.312-.712t.212-.763q.275-.45.425-.962T16 12m4 0q0-1.4-.425-2.637T18.35 7.125q-.275-.35-.288-.763t.288-.712q.3-.3.738-.288t.712.363Q20.85 7 21.425 8.6T22 12q0 1.8-.575 3.388T19.8 18.275q-.275.35-.7.363t-.725-.288q-.3-.3-.3-.712t.275-.763q.8-1.025 1.225-2.262T20 12"/></svg>