<svg xmlns="http://www.w3.org/2000/svg" width="1em" height="1em" viewBox="0 0 24 24"><path fill="currentColor" d="M12 17.5q1.7 0 3.088-.962T17.1 14H6.9q.625 1.575 2.013 2.538T12 17.5M7.8 11l1.1-1.05L9.95 11L11 9.95L8.9 7.8L6.75 9.95zm6.25 0l1.05-1.05L16.2 11l1.05-1.05L15.1 7.8L13 9.95zM12 22q-2.075 0-3.9-.788t-3.175-2.137q-1.35-1.35-2.137-3.175T2 12q0-2.075.788-3.9t2.137-3.175q1.35-1.35 3.175-2.137T12 2q2.075 0 3.9.788t3.175 2.137q1.35 1.35 2.138 3.175T22 12q0 2.075-.788 3.9t-2.137 3.175q-1.35 1.35-3.175 2.138T12 22"/></svg>