<svg xmlns="http://www.w3.org/2000/svg" width="1em" height="1em" viewBox="0 0 24 24"><path fill="currentColor" d="M12 17.5q.975 0 1.875-.437t1.675-1.313l-1.1-1q-.55.6-1.175.913T12 15.974q-.65 0-1.275-.312T9.55 14.75l-1.1 1q.8.875 1.688 1.313T12 17.5m0 4.5q-2.075 0-3.9-.788t-3.175-2.137q-1.35-1.35-2.137-3.175T2 12q0-2.075.788-3.9t2.137-3.175q1.35-1.35 3.175-2.137T12 2q2.075 0 3.9.788t3.175 2.137q1.35 1.35 2.138 3.175T22 12q0 2.075-.788 3.9t-2.137 3.175q-1.35 1.35-3.175 2.138T12 22M8.5 12q1.05 0 1.75-.763t.975-1.812l-1.45-.35q-.125.55-.438.988T8.5 10.5q-.525 0-.837-.437t-.438-.988l-1.45.35q.275 1.05.975 1.813T8.5 12m7 0q1.05 0 1.75-.763t.975-1.812l-1.45-.35q-.125.55-.437.988t-.838.437q-.525 0-.837-.437t-.438-.988l-1.45.35q.275 1.05.975 1.813T15.5 12"/></svg>