<svg xmlns="http://www.w3.org/2000/svg" width="1em" height="1em" viewBox="0 0 24 24"><path fill="currentColor" d="M12 22q-2.05 0-3.875-.788t-3.187-2.15q-1.363-1.362-2.15-3.187T2 12q0-2.075.788-3.887t2.15-3.175Q6.3 3.575 8.124 2.788T12 2q2.075 0 3.888.788t3.174 2.15q1.363 1.362 2.15 3.175T22 12q0 2.05-.788 3.875t-2.15 3.188q-1.362 1.362-3.175 2.15T12 22m-4.5-9q.625 0 1.063-.437T9 11.5q0-.625-.437-1.062T7.5 10q-.625 0-1.062.438T6 11.5q0 .625.438 1.063T7.5 13m9 0q.625 0 1.063-.437T18 11.5q0-.625-.437-1.062T16.5 10q-.625 0-1.062.438T15 11.5q0 .625.438 1.063T16.5 13M9 17.5q.625 0 1.063-.437T10.5 16q0-.625-.437-1.062T9 14.5q-.625 0-1.062.438T7.5 16q0 .625.438 1.063T9 17.5m6 0q.625 0 1.063-.437T16.5 16q0-.625-.437-1.062T15 14.5q-.625 0-1.062.438T13.5 16q0 .625.438 1.063T15 17.5M10.5 9h3q.65 0 1.075-.425T15 7.5q0-.65-.425-1.075T13.5 6h-3q-.65 0-1.075.425T9 7.5q0 .65.425 1.075T10.5 9M12 20q3.325 0 5.663-2.337T20 12q0-3.325-2.337-5.663T12 4Q8.675 4 6.337 6.338T4 12q0 3.325 2.338 5.663T12 20"/></svg>