<svg xmlns="http://www.w3.org/2000/svg" width="1em" height="1em" viewBox="0 0 24 24"><path fill="currentColor" d="M8 23V9h8v14zm4-8.75q.525 0 .888-.363T13.25 13q0-.525-.363-.888T12 11.75q-.525 0-.888.363T10.75 13q0 .525.363.888t.887.362m-3.55-6.8l-1.4-1.4q1-1 2.275-1.525T12 4q1.4 0 2.675.525T16.95 6.05l-1.4 1.4q-.725-.725-1.637-1.088T12 6q-1 0-1.912.363T8.45 7.45m-2.8-2.8L4.2 3.2Q5.775 1.675 7.788.837T12 0q2.2 0 4.213.838T19.75 3.25l-1.4 1.4q-1.25-1.3-2.9-1.975T12 2q-1.8 0-3.45.675T5.65 4.65M10 21h4V11h-4zm0 0h4z"/></svg>