<svg xmlns="http://www.w3.org/2000/svg" width="1em" height="1em" viewBox="0 0 24 24"><path fill="currentColor" d="m16.6 18l-3.175-3.175L14.85 13.4L18 16.55V15q0-.425.288-.712T19 14q.425 0 .713.288T20 15v4q0 .425-.288.713T19 20h-4q-.425 0-.712-.288T14 19q0-.425.288-.712T15 18zM18 7.4L6.091 19.309q-.266.266-.691.266t-.7-.275q-.275-.275-.275-.7t.275-.7L16.6 6H15q-.425 0-.712-.287T14 5q0-.425.288-.712T15 4h4q.425 0 .713.288T20 5v4q0 .425-.288.713T19 10q-.425 0-.712-.288T18 9zm-8.825 3.175L4.7 6.1q-.275-.275-.275-.7t.275-.7q.281-.275.703-.275T6.1 4.7l4.475 4.475z"/></svg>