<svg xmlns="http://www.w3.org/2000/svg" width="1em" height="1em" viewBox="0 0 24 24"><path fill="currentColor" d="M4.425 22q-.45 0-.725-.3t-.275-.7q0-.2.063-.375T3.7 20.3L20.3 3.725q.15-.15.325-.225T21 3.425q.4 0 .7.275t.3.725V12.7q-.45-.275-.95-.437T20 12V6.85L6.825 20h6.425q.2.575.5 1.075t.675.925zM19 19.425L17.6 20.8q-.275.275-.687.288T16.2 20.8q-.275-.275-.275-.7t.275-.7l1.4-1.4l-1.4-1.4q-.275-.275-.275-.7t.275-.7q.275-.275.7-.275t.7.275l1.4 1.4l1.4-1.4q.275-.275.687-.287t.713.287q.275.275.275.7t-.275.7L20.425 18l1.375 1.4q.275.275.288.688t-.288.712q-.275.275-.7.275t-.7-.275zM6.825 20L20 6.85q-1.9 1.9-3.45 3.438t-3.037 3.024L10.425 16.4z"/></svg>