<svg xmlns="http://www.w3.org/2000/svg" width="1em" height="1em" viewBox="0 0 24 24"><path fill="currentColor" d="M8 13q.425 0 .713-.288T9 12v-2q0-.425-.288-.712T8 9q-.425 0-.712.288T7 10v2q0 .425.288.713T8 13m4 2q-.45 0-.725.275T11 16v.5q0 .2.15.35t.35.15h1q.2 0 .35-.15t.15-.35V16q0-.45-.275-.725T12 15m4-2q.425 0 .713-.288T17 12v-2q0-.425-.288-.712T16 9q-.425 0-.712.288T15 10v2q0 .425.288.713T16 13m-4 9q-2.075 0-3.9-.788t-3.175-2.137q-1.35-1.35-2.137-3.175T2 12q0-2.075.788-3.9t2.137-3.175q1.35-1.35 3.175-2.137T12 2q2.075 0 3.9.788t3.175 2.137q1.35 1.35 2.138 3.175T22 12q0 2.075-.788 3.9t-2.137 3.175q-1.35 1.35-3.175 2.138T12 22"/></svg>