<svg xmlns="http://www.w3.org/2000/svg" width="1em" height="1em" viewBox="0 0 24 24"><path fill="currentColor" d="M13.25 12.75q-.325 0-.537-.213T12.5 12q0-.325.213-.537t.537-.213q.325 0 .538.213T14 12q0 .325-.213.538t-.537.212m-5 0q-.325 0-.537-.213T7.5 12q0-.325.213-.537t.537-.213q.325 0 .538.213T9 12q0 .325-.213.538t-.537.212m7.5 0q-.325 0-.537-.213T15 12q0-.325.213-.537t.537-.213q.325 0 .538.213T16.5 12q0 .325-.213.538t-.537.212m-5 0q-.325 0-.537-.213T10 12q0-.325.213-.537t.537-.213q.325 0 .538.213T11.5 12q0 .325-.213.538t-.537.212M3 19q-.825 0-1.412-.587T1 17V7q0-.825.588-1.412T3 5h18q.825 0 1.413.588T23 7v10q0 .825-.587 1.413T21 19zm1-2V7H3v10zm2 0h12V7H6zm14 0h1V7h-1zM4 7H3zm16 0h1z"/></svg>