<svg xmlns="http://www.w3.org/2000/svg" width="1em" height="1em" viewBox="0 0 24 24"><path fill="currentColor" d="M5 19q-.425 0-.712-.288T4 18q0-.425.288-.712T5 17q.425 0 .713.288T6 18q0 .425-.288.713T5 19m4.5 0q-.425 0-.712-.288T8.5 18q0-.425.288-.712T9.5 17q.425 0 .713.288T10.5 18q0 .425-.288.713T9.5 19m4.5 0q-.425 0-.712-.288T13 18q0-.425.288-.712T14 17q.425 0 .713.288T15 18q0 .425-.288.713T14 19m4.5 0q-.425 0-.712-.288T17.5 18q0-.425.288-.712T18.5 17q.425 0 .713.288T19.5 18q0 .425-.288.713T18.5 19M3 15q-.425 0-.712-.288T2 14q0-.425.288-.712T3 13q.425 0 .713.288T4 14q0 .425-.288.713T3 15m4.5 0q-.425 0-.712-.288T6.5 14q0-.425.288-.712T7.5 13q.425 0 .713.288T8.5 14q0 .425-.288.713T7.5 15m4.5 0q-.425 0-.712-.288T11 14q0-.425.288-.712T12 13q.425 0 .713.288T13 14q0 .425-.288.713T12 15m4.5 0q-.425 0-.712-.288T15.5 14q0-.425.288-.712T16.5 13q.425 0 .713.288T17.5 14q0 .425-.288.713T16.5 15m4.5 0q-.425 0-.712-.288T20 14q0-.425.288-.712T21 13q.425 0 .713.288T22 14q0 .425-.288.713T21 15M5 11q-.425 0-.712-.288T4 10q0-.425.288-.712T5 9q.425 0 .713.288T6 10q0 .425-.288.713T5 11m4.5 0q-.425 0-.712-.288T8.5 10q0-.425.288-.712T9.5 9q.425 0 .713.288T10.5 10q0 .425-.288.713T9.5 11m4.5 0q-.425 0-.712-.288T13 10q0-.425.288-.712T14 9q.425 0 .713.288T15 10q0 .425-.288.713T14 11m4.5 0q-.425 0-.712-.288T17.5 10q0-.425.288-.712T18.5 9q.425 0 .713.288T19.5 10q0 .425-.288.713T18.5 11M3 7q-.425 0-.712-.288T2 6q0-.425.288-.712T3 5q.425 0 .713.288T4 6q0 .425-.288.713T3 7m4.5 0q-.425 0-.712-.288T6.5 6q0-.425.288-.712T7.5 5q.425 0 .713.288T8.5 6q0 .425-.288.713T7.5 7M12 7q-.425 0-.712-.288T11 6q0-.425.288-.712T12 5q.425 0 .713.288T13 6q0 .425-.288.713T12 7m4.5 0q-.425 0-.712-.288T15.5 6q0-.425.288-.712T16.5 5q.425 0 .713.288T17.5 6q0 .425-.288.713T16.5 7M21 7q-.425 0-.712-.288T20 6q0-.425.288-.712T21 5q.425 0 .713.288T22 6q0 .425-.288.713T21 7"/></svg>