<svg xmlns="http://www.w3.org/2000/svg" width="1em" height="1em" viewBox="0 0 24 24"><path fill="currentColor" d="m2 17l3.5-9.35q.125-.3.475-.475T7.2 7q.325 0 .575.175t.375.475l3.025 8.075q.175.475-.113.875t-.787.4q-.3 0-.55-.187t-.35-.463l-.2-.525q-.2-.55-.812-.887T6.225 14.6q-.575 0-1.062.338t-.688.912L4.1 17zm3.5-4.1h2.6L6.9 9.15h-.15zm10.45 2.3h4.15q.375 0 .638.263T21 16.1q0 .375-.262.638T20.1 17h-5.8q-.25 0-.425-.175T13.7 16.4v-.95q0-.175.05-.337t.175-.288L18.75 8.8H14.8q-.375 0-.638-.262T13.9 7.9q0-.375.263-.638T14.8 7h5.55q.25 0 .425.175t.175.425v.95q0 .175-.05.337t-.175.288zM9.425 4.575L11.65 2.35q.15-.15.35-.15t.35.15l2.225 2.225q.125.125.063.275T14.4 5H9.6q-.175 0-.237-.15t.062-.275M11.65 21.65l-2.225-2.225q-.125-.125-.062-.275T9.6 19h4.8q.175 0 .238.15t-.063.275L12.35 21.65q-.15.15-.35.15t-.35-.15"/></svg>