<svg xmlns="http://www.w3.org/2000/svg" width="1em" height="1em" viewBox="0 0 24 24"><path fill="currentColor" d="M7.825 21.85L2.15 16.2l4.225-4.225V6.3l11.35 11.325H12.05zm5.075-6.225L8.375 11.1v1.7l-3.4 3.4L7.8 19.025l3.4-3.4zm6.7 1.125l-1.45-1.45q1.125-2.05.788-4.337T16.95 7.025q-1.65-1.65-3.937-1.987t-4.338.787l-1.45-1.45q2.675-1.7 5.788-1.362T18.375 5.6q2.25 2.25 2.588 5.363T19.6 16.75m-2.95-2.95l-1.7-1.7q0-.625-.187-1.212t-.613-1.013q-.45-.45-1.037-.65t-1.238-.2l-1.7-1.7Q11.6 6.9 13.05 7.15t2.5 1.3q1.05 1.05 1.288 2.488T16.65 13.8m-7.7 1.25"/></svg>