<svg xmlns="http://www.w3.org/2000/svg" width="1em" height="1em" viewBox="0 0 24 24"><path fill="currentColor" d="M23 10.025q-1.8 0-3.45-.687t-2.925-1.963Q15.35 6.1 14.662 4.45T13.976 1h2q0 1.425.525 2.7t1.525 2.275q1 1 2.275 1.538t2.7.537zm0-3.975q-1.025 0-1.937-.375t-1.638-1.1q-.725-.725-1.1-1.638T17.95 1h1.975q0 .625.238 1.188t.662.987q.425.425.988.65T23 4.05zM10 13q-1.65 0-2.825-1.175T6 9q0-1.65 1.175-2.825T10 5q1.65 0 2.825 1.175T14 9q0 1.65-1.175 2.825T10 13m-8 8v-2.8q0-.825.425-1.55t1.175-1.1q1.275-.65 2.875-1.1T10 14q1.925 0 3.525.45t2.875 1.1q.75.375 1.175 1.1T18 18.2V21zm2-2h12v-.8q0-.275-.137-.5t-.363-.35q-.9-.45-2.312-.9T10 16q-1.775 0-3.187.45t-2.313.9q-.225.125-.363.35T4 18.2zm6-8q.825 0 1.413-.587T12 9q0-.825-.587-1.412T10 7q-.825 0-1.412.588T8 9q0 .825.588 1.413T10 11m0 8"/></svg>