<svg xmlns="http://www.w3.org/2000/svg" width="1em" height="1em" viewBox="0 0 24 24"><path fill="currentColor" d="M12 12q-.425 0-.712-.288T11 11q0-.425.288-.712T12 10q.425 0 .713.288T13 11q0 .425-.288.713T12 12m0-4q-.425 0-.712-.288T11 7q0-.425.288-.712T12 6q.425 0 .713.288T13 7q0 .425-.288.713T12 8m0-4q-.425 0-.712-.288T11 3q0-.425.288-.712T12 2q.425 0 .713.288T13 3q0 .425-.288.713T12 4m3 10q-.425 0-.712-.288T14 13q0-.425.288-.712T15 12q.425 0 .713.288T16 13q0 .425-.288.713T15 14m2.825-2.85q-.425 0-.712-.288t-.288-.712q0-.425.288-.712t.712-.288q.425 0 .713.288t.287.712q0 .425-.288.713t-.712.287m2.825-2.8q-.425 0-.712-.288t-.288-.712q0-.425.288-.712t.712-.288q.425 0 .713.288t.287.712q0 .425-.287.713t-.713.287M9 14q-.425 0-.712-.288T8 13q0-.425.288-.712T9 12q.425 0 .713.288T10 13q0 .425-.288.713T9 14m-2.825-2.85q-.425 0-.712-.288t-.288-.712q0-.425.288-.712t.712-.288q.425 0 .713.288t.287.712q0 .425-.287.713t-.713.287M3.35 8.35q-.425 0-.712-.288T2.35 7.35q0-.425.288-.712t.712-.288q.425 0 .713.288t.287.712q0 .425-.287.713t-.713.287M11 22v-4H7v-2h10v2h-4v4z"/></svg>