<svg xmlns="http://www.w3.org/2000/svg" width="1em" height="1em" viewBox="0 0 24 24"><path fill="currentColor" d="M16 22q-.825 0-1.412-.587T14 20q0-.825.588-1.412T16 18q.825 0 1.413.588T18 20q0 .825-.587 1.413T16 22M6 22q-.825 0-1.412-.587T4 20q0-.825.588-1.412T6 18q.825 0 1.413.588T8 20q0 .825-.587 1.413T6 22m3.6-7H15V8.675zm-2.175 2q-.65 0-.913-.575t.163-1.075L16.2 4.175q.5-.575 1.113-.875T18.65 3q1.4 0 2.375.975T22 6.35v.025q0 .425-.288.713T21 7.375q-.425 0-.712-.288T20 6.376V6.35q0-.575-.387-.962T18.65 5q-.275 0-.487.1t-.388.3L17 6.275V15q0 .825-.587 1.413T15 17zM9.6 9.6L5.525 5.525q-.325-.325-.262-.75t.437-.65q1-.55 2.088-.837T10 3q1.125 0 2.213.275T14.3 4.1zm-.125-2.95l1.375-1.6q-.2-.025-.425-.038T10 5q-.5 0-.963.075t-.937.2zm0 0"/></svg>