<svg xmlns="http://www.w3.org/2000/svg" width="1em" height="1em" viewBox="0 0 24 24"><path fill="currentColor" d="M5.825 16L7.7 17.875q.275.275.275.688t-.275.712q-.3.3-.712.3t-.713-.3L2.7 15.7q-.15-.15-.213-.325T2.426 15q0-.2.063-.375T2.7 14.3l3.6-3.6q.3-.3.7-.287t.7.312q.275.3.288.7t-.288.7L5.825 14H12q.425 0 .713.288T13 15q0 .425-.288.713T12 16zm12.35-6H12q-.425 0-.712-.288T11 9q0-.425.288-.712T12 8h6.175L16.3 6.125q-.275-.275-.275-.687t.275-.713q.3-.3.713-.3t.712.3L21.3 8.3q.15.15.212.325t.063.375q0 .2-.063.375T21.3 9.7l-3.6 3.6q-.3.3-.7.288t-.7-.313q-.275-.3-.288-.7t.288-.7z"/></svg>