<svg xmlns="http://www.w3.org/2000/svg" width="1em" height="1em" viewBox="0 0 24 24"><path fill="currentColor" d="M20 21q-.425 0-.712-.288T19 20q0-.425.288-.712T20 19q.425 0 .713.288T21 20q0 .425-.288.713T20 21m-4 0q-.425 0-.712-.288T15 20q0-.425.288-.712T16 19q.425 0 .713.288T17 20q0 .425-.288.713T16 21m-4 0q-.425 0-.712-.288T11 20q0-.425.288-.712T12 19q.425 0 .713.288T13 20q0 .425-.288.713T12 21m-4 0q-.425 0-.712-.288T7 20q0-.425.288-.712T8 19q.425 0 .713.288T9 20q0 .425-.288.713T8 21M20 5q-.425 0-.712-.288T19 4q0-.425.288-.712T20 3q.425 0 .713.288T21 4q0 .425-.288.713T20 5m-4 0q-.425 0-.712-.288T15 4q0-.425.288-.712T16 3q.425 0 .713.288T17 4q0 .425-.288.713T16 5m-4 0q-.425 0-.712-.288T11 4q0-.425.288-.712T12 3q.425 0 .713.288T13 4q0 .425-.288.713T12 5M8 5q-.425 0-.712-.288T7 4q0-.425.288-.712T8 3q.425 0 .713.288T9 4q0 .425-.288.713T8 5M4 21q-.425 0-.712-.288T3 20V4q0-.425.288-.712T4 3q.425 0 .713.288T5 4v16q0 .425-.288.713T4 21m9.825-8l.9.9q.275.275.275.688t-.3.712q-.275.275-.7.275t-.7-.275l-2.6-2.6q-.3-.3-.3-.7t.3-.7l2.6-2.6q.275-.275.7-.275t.7.275q.3.3.3.713t-.275.687l-.9.9H20q.425 0 .713.288T21 12q0 .425-.288.713T20 13z"/></svg>