<svg xmlns="http://www.w3.org/2000/svg" width="1em" height="1em" viewBox="0 0 24 24"><path fill="currentColor" d="M10 3q-.425 0-.712-.288T9 2q0-.425.288-.712T10 1h4q.425 0 .713.288T15 2q0 .425-.288.713T14 3zm2 11q.425 0 .713-.288T13 13V9q0-.425-.288-.712T12 8q-.425 0-.712.288T11 9v4q0 .425.288.713T12 14m0 8q-1.85 0-3.488-.712T5.65 19.35q-1.225-1.225-1.937-2.863T3 13q0-1.85.713-3.488T5.65 6.65q1.225-1.225 2.863-1.937T12 4q1.55 0 2.975.5t2.675 1.45l.7-.7q.275-.275.7-.275t.7.275q.275.275.275.7t-.275.7l-.7.7Q20 8.6 20.5 10.025T21 13q0 1.85-.713 3.488T18.35 19.35q-1.225 1.225-2.863 1.938T12 22"/></svg>