<svg xmlns="http://www.w3.org/2000/svg" width="1em" height="1em" viewBox="0 0 24 24"><path fill="currentColor" d="M4 20q-.825 0-1.412-.587T2 18V6q0-.825.588-1.412T4 4h16q.825 0 1.413.588T22 6v4q0 .425-.288.713T21 11q-.425 0-.712-.288T20 10V8l-7.475 4.675q-.125.075-.262.113t-.263.037q-.125 0-.262-.037t-.263-.113L4 8v10h7q.425 0 .713.288T12 19q0 .425-.288.713T11 20zm8-9l8-5H4zm-8 7v-7v.075V8v.25V6.8q0-.275 0 0V6v.8v-.012V8.25V8zm15 5q-2.075 0-3.537-1.463T14 18q0-2.075 1.463-3.537T19 13q2.075 0 3.538 1.463T24 18q0 2.075-1.463 3.538T19 23m-2.5-4.5h5q.2 0 .35-.15T22 18q0-.2-.15-.35t-.35-.15h-5q-.2 0-.35.15T16 18q0 .2.15.35t.35.15"/></svg>