<svg xmlns="http://www.w3.org/2000/svg" width="1em" height="1em" viewBox="0 0 24 24"><path fill="currentColor" d="M17 21q-.425 0-.712-.288T16 20v-3q0-.425.288-.712T17 16v-1q0-.825.588-1.412T19 13q.825 0 1.413.588T21 15v1q.425 0 .713.288T22 17v3q0 .425-.288.713T21 21zm1-5h2v-1q0-.425-.288-.712T19 14q-.425 0-.712.288T18 15zm-6-1.8q-1.125 0-1.912-.788T9.3 11.5q0-1.125.788-1.912T12 8.8q1.125 0 1.913.788T14.7 11.5q0 1.125-.787 1.913T12 14.2m0 4.8q-3.35 0-6.262-1.8T1.4 12.35q-.1-.2-.15-.412T1.2 11.5q0-.225.05-.437t.15-.413Q2.825 7.6 5.738 5.8T12 4q3.525 0 6.438 1.9T22.8 11H19q-.7 0-1.325.175t-1.175.5V11.5q0-1.875-1.312-3.187T12 7q-1.875 0-3.187 1.313T7.5 11.5q0 1.875 1.313 3.188T12 16q.55 0 1.063-.125t.962-.35q-.025.125-.025.238v3.062q-.5.075-1 .125T12 19"/></svg>