<svg xmlns="http://www.w3.org/2000/svg" width="1em" height="1em" viewBox="0 0 24 24"><path fill="currentColor" d="M15 18v-3h-2.8q-.8 1.35-2.175 2.175T7 18q-2.5 0-4.25-1.75T1 12q0-2.5 1.75-4.25T7 6q1.65 0 3.025.825T12.2 9H19v2h-8.15q-.2-.975-1.2-1.987T7 8Q5.35 8 4.175 9.175T3 12q0 1.65 1.175 2.825T7 16q1.65 0 2.65-1.012T10.85 13H17v3h2v2zm-8-4q.825 0 1.413-.587T9 12q0-.825-.587-1.412T7 10q-.825 0-1.412.588T5 12q0 .825.588 1.413T7 14m15 4q-.425 0-.712-.288T21 17q0-.425.288-.712T22 16q.425 0 .713.288T23 17q0 .425-.288.713T22 18m-1-4V9h2v5z"/></svg>