<svg xmlns="http://www.w3.org/2000/svg" width="1em" height="1em" viewBox="0 0 24 24"><path fill="currentColor" d="M12 18q-.425 0-.712-.288T11 17q0-.425.288-.712T12 16q.425 0 .713.288T13 17q0 .425-.288.713T12 18m-1-4v-3.025l2 2V14q0 .425-.288.713T12 15q-.425 0-.712-.288T11 14m10.825 4.95l-5.45-5.425L12 6l-1.175 2l-1.45-1.45l1.75-3.05Q11.4 3 12 3t.875.5zM4.45 19h11.725L8.75 11.575zm15.325 3.575L18.175 21H2.725q-.575 0-.85-.5t0-1L7.3 10.125L1.375 4.2q-.3-.3-.288-.712t.313-.713q.3-.3.713-.3t.712.3l18.375 18.4q.3.3.3.7t-.3.7q-.3.3-.712.3t-.713-.3m-6.175-11.8"/></svg>