<svg xmlns="http://www.w3.org/2000/svg" width="1em" height="1em" viewBox="0 0 24 24"><path fill="currentColor" d="M20 17q-.425 0-.712-.288T19 16q0-.425.288-.712T20 15q.425 0 .713.288T21 16q0 .425-.288.713T20 17m1-4h-1q-.425 0-.712-.288T19 12q0-.425.288-.712T20 11h1q.425 0 .713.288T22 12q0 .425-.288.713T21 13m1-4h-2q-.425 0-.712-.288T19 8q0-.425.288-.725t.712-.3h2q.425 0 .713.3T23 8q0 .425-.288.713T22 9M7.75 22q-.35 0-.6-.2t-.35-.525L5.65 17.45q-1.2-.95-1.925-2.375T3 12q0-1.65.725-3.075T5.65 6.55L6.8 2.725q.1-.325.35-.525t.6-.2h4.5q.35 0 .6.2t.35.525l1.15 3.825q1.2.95 1.925 2.375T17 12q0 1.65-.725 3.075T14.35 17.45l-1.15 3.825q-.1.325-.35.525t-.6.2zM10 17q2.075 0 3.538-1.463T15 12q0-2.075-1.463-3.537T10 7Q7.925 7 6.463 8.463T5 12q0 2.075 1.463 3.538T10 17"/></svg>