<svg xmlns="http://www.w3.org/2000/svg" width="1em" height="1em" viewBox="0 0 24 24"><path fill="currentColor" d="M2 13.8q0-1.6.725-3.187T4.55 7.575q1.1-1.45 2.388-2.725T9.325 2.6q.15-.125.313-.188T10 2.35q.2 0 .363.063t.312.187q1.125 1 2.4 2.263t2.375 2.712q1.1 1.45 1.825 3.025T18 13.8v.2h-2v-.2q0-1.825-1.512-4.125T10 4.65Q7.025 7.375 5.513 9.675T4 13.8q0 .7.125 1.35t.375 1.225v3.475q-1.175-1.125-1.838-2.675T2 13.8M7.5 22q-.425 0-.712-.288T6.5 21v-4q0-.425.288-.712T7.5 16H10q.425 0 .713.288T11 17v4q0 .425-.288.713T10 22zm.5-1.5h1.5v-3H8zm5.5-.5v1.25q0 .325-.213.538T12.75 22q-.325 0-.537-.213T12 21.25v-4.5q0-.325.213-.537T12.75 16h2.75q.625 0 1.063.438T17 17.5v1q0 .45-.25.825t-.65.575l.5 1.15q.15.35-.062.65t-.588.3q-.2 0-.375-.112t-.25-.313L14.65 20zm6 0v1.25q0 .325-.213.538T18.75 22q-.325 0-.537-.213T18 21.25v-4.5q0-.325.213-.537T18.75 16h2.75q.625 0 1.063.438T23 17.5v1q0 .625-.437 1.063T21.5 20zm-6-1.5h2v-1h-2zm6 0h2v-1h-2z"/></svg>