<svg xmlns="http://www.w3.org/2000/svg" width="1em" height="1em" viewBox="0 0 24 24"><path fill="currentColor" d="M14.5 20h-2v1.25q0 .325-.213.538T11.75 22q-.325 0-.537-.213T11 21.25v-4.5q0-.325.213-.537T11.75 16h2.75q.6 0 1.05.45T16 17.5v1q0 .6-.45 1.05T14.5 20m4-.5v1.75q0 .325-.213.538T17.75 22q-.325 0-.537-.213T17 21.25v-4.5q0-.325.213-.537T17.75 16q.325 0 .538.213t.212.537V18h2v-1.25q0-.325.213-.537T21.25 16q.325 0 .538.213t.212.537v4.5q0 .325-.213.538T21.25 22q-.325 0-.537-.213t-.213-.537V19.5zm-6-1h2v-1h-2zM9 21.95q-3.05-.35-5.025-2.625T2 13.8q0-1.6.725-3.187T4.55 7.575q1.1-1.45 2.388-2.725T9.325 2.6q.15-.125.313-.188T10 2.35q.2 0 .363.063t.312.187q1.125 1 2.4 2.263t2.375 2.712q1.1 1.45 1.825 3.025T18 13.8v.2h-7q-.825 0-1.412.588T9 16z"/></svg>