<svg xmlns="http://www.w3.org/2000/svg" width="1em" height="1em" viewBox="0 0 24 24"><path fill="currentColor" d="M7.5 15q.425 0 .713-.288T8.5 14q0-.425-.288-.712T7.5 13q-.425 0-.712.288T6.5 14q0 .425.288.713T7.5 15M9 12q.425 0 .713-.288T10 11q0-.425-.288-.712T9 10q-.425 0-.712.288T8 11q0 .425.288.713T9 12m0 6q.425 0 .713-.288T10 17q0-.425-.288-.712T9 16q-.425 0-.712.288T8 17q0 .425.288.713T9 18m1.5-3q.425 0 .713-.288T11.5 14q0-.425-.288-.712T10.5 13q-.425 0-.712.288T9.5 14q0 .425.288.713T10.5 15m0-6q.425 0 .713-.288T11.5 8q0-.425-.288-.712T10.5 7q-.425 0-.712.288T9.5 8q0 .425.288.713T10.5 9m1.5 3q.425 0 .713-.288T13 11q0-.425-.288-.712T12 10q-.425 0-.712.288T11 11q0 .425.288.713T12 12m0 6q.425 0 .713-.288T13 17q0-.425-.288-.712T12 16q-.425 0-.712.288T11 17q0 .425.288.713T12 18m1.5-3q.425 0 .713-.288T14.5 14q0-.425-.288-.712T13.5 13q-.425 0-.712.288T12.5 14q0 .425.288.713T13.5 15m0-6q.425 0 .713-.288T14.5 8q0-.425-.288-.712T13.5 7q-.425 0-.712.288T12.5 8q0 .425.288.713T13.5 9m1.5 3q.425 0 .713-.288T16 11q0-.425-.288-.712T15 10q-.425 0-.712.288T14 11q0 .425.288.713T15 12m0 6q.425 0 .713-.288T16 17q0-.425-.288-.712T15 16q-.425 0-.712.288T14 17q0 .425.288.713T15 18m1.5-3q.425 0 .713-.288T17.5 14q0-.425-.288-.712T16.5 13q-.425 0-.712.288T15.5 14q0 .425.288.713T16.5 15M12 22q-3.425 0-5.712-2.35T4 13.8q0-2.5 1.988-5.437T12 2q4.025 3.425 6.013 6.363T20 13.8q0 3.5-2.287 5.85T12 22m0-2q2.6 0 4.3-1.763T18 13.8q0-1.825-1.513-4.125T12 4.65Q9.025 7.375 7.513 9.675T6 13.8q0 2.675 1.7 4.438T12 20m0-8"/></svg>