<svg xmlns="http://www.w3.org/2000/svg" width="1em" height="1em" viewBox="0 0 24 24"><path fill="currentColor" d="M7 18.95q-1.225 0-1.95.55t-2.025.775q-.425.075-.725-.2t-.3-.7q0-.425.287-.712T3 18.25q.9-.275 1.7-.763T7 17q.95 0 1.563.213t1.137.474q.525.263 1.05.488T12 18.4q.725 0 1.25-.225t1.05-.488q.525-.262 1.15-.475T17 17q1.5 0 2.3.488t1.7.762q.425.125.713.413t.287.712q0 .425-.3.7t-.725.2q-1.3-.225-2.025-.775T17 18.95q-.7 0-1.213.213t-1.025.474q-.512.263-1.15.488T12 20.35q-.975 0-1.612-.225t-1.15-.488q-.513-.262-1.013-.474T7 18.95m0-4.45q-1.225 0-1.95.55t-2.025.775q-.425.075-.725-.2t-.3-.7q0-.425.287-.712T3 13.8q.9-.275 1.7-.763T7 12.55q.95 0 1.563.213t1.137.475q.525.262 1.05.487t1.25.225q.725 0 1.25-.225t1.05-.487q.525-.263 1.15-.475T17 12.55q1.5 0 2.3.488t1.7.762q.425.125.713.413t.287.712q0 .425-.3.7t-.725.2q-1.3-.225-2.025-.775T17 14.5q-.725 0-1.237.212t-1.026.475q-.512.263-1.137.488T12 15.9q-.975 0-1.612-.225t-1.15-.488q-.513-.262-1.013-.474T7 14.5m0-4.45q-1.225 0-1.95.55t-2.025.775q-.425.075-.725-.2t-.3-.7q0-.425.287-.712T3 9.35q.9-.275 1.7-.763T7 8.1q.95 0 1.563.213t1.137.474q.525.263 1.05.488T12 9.5q.725 0 1.25-.225t1.05-.488q.525-.262 1.15-.475T17 8.1q1.5 0 2.3.488t1.7.762q.425.125.713.413t.287.712q0 .425-.3.7t-.725.2q-1.3-.225-2.025-.775T17 10.05q-.7 0-1.213.212t-1.025.475q-.512.263-1.15.488T12 11.45q-.975 0-1.612-.225t-1.15-.487q-.513-.263-1.013-.475T7 10.05M7 5.6q-1.225 0-1.95.55t-2.025.775Q2.6 7 2.3 6.725t-.3-.7q0-.425.287-.712T3 4.9q.9-.275 1.7-.763T7 3.65q.95 0 1.563.213t1.137.475q.525.262 1.05.487T12 5.05q.725 0 1.25-.225t1.05-.488q.525-.262 1.15-.474T17 3.65q1.5 0 2.3.488T21 4.9q.425.125.713.413t.287.712q0 .425-.3.7t-.725.2q-1.3-.225-2.025-.775T17 5.6q-.7 0-1.213.213t-1.025.475q-.512.262-1.15.487T12 7q-.975 0-1.612-.225t-1.15-.488q-.513-.262-1.013-.474T7 5.6"/></svg>