<svg xmlns="http://www.w3.org/2000/svg" width="1em" height="1em" viewBox="0 0 24 24"><path fill="currentColor" d="M19.95 21q-3.125 0-6.187-1.35T8.2 15.8q-2.5-2.5-3.85-5.55T3 4.05V3h5.9l.925 5.025l-2.85 2.875q.55.975 1.225 1.85t1.45 1.625q.725.725 1.588 1.388T13.1 17l2.9-2.9l5 1.025V21zM16.5 11q-.425 0-.712-.288T15.5 10q0-.425.288-.712T16.5 9q.425 0 .713.288T17.5 10q0 .425-.288.713T16.5 11M14 8.55L12.95 7.5q.725-.725 1.638-1.112T16.5 6q1 0 1.913.388T20.05 7.5L19 8.55q-.5-.5-1.137-.775T16.5 7.5q-.725 0-1.362.275T14 8.55M11.9 6.4l-1.05-1.05q1.125-1.125 2.588-1.737T16.5 3q1.6 0 3.063.613T22.15 5.35L21.1 6.4q-.925-.925-2.113-1.412T16.5 4.5q-1.3 0-2.475.5T11.9 6.4"/></svg>