<svg xmlns="http://www.w3.org/2000/svg" width="1em" height="1em" viewBox="0 0 24 24"><path fill="currentColor" d="M4 21q-.45 0-.675-.437t-.15-.938q.375-2.625.863-4.762t1.1-3.663q.612-1.525 1.337-2.362T8 8q1 0 1.975 1.425t1.625 4.15q.325-2.55.763-4.525t.987-3.325q.55-1.35 1.213-2.037T16 3q1.025 0 1.838 1.175t1.437 3.35q.625 2.175 1.038 5.263t.612 6.912q.025.5-.225.9t-.7.4q-.425 0-.763-.275t-.462-.7q-.525-1.95-1.362-3.487T16 15q-.575 0-1.4 1.5t-1.35 3.45q-.125.45-.462.75T12 21q-.45 0-.775-.337t-.375-.813q-.225-1.65-.562-3.225t-.725-2.887q-.388-1.313-.788-2.263T8 10.125q-.375.4-.775 1.35t-.788 2.263q-.387 1.312-.724 2.887T5.15 19.85q-.05.475-.375.813T4 21m9.5-6.5q.575-.75 1.2-1.125T16 13q.65 0 1.288.388T18.5 14.5q-.45-3.8-1.125-6.337T16 5.05q-.7.575-1.375 3.15T13.5 14.5"/></svg>