<svg xmlns="http://www.w3.org/2000/svg" width="1em" height="1em" viewBox="0 0 24 24"><path fill="currentColor" d="M10 6h4V4h-4zm8 17q-2.075 0-3.537-1.463T13 18q0-2.075 1.463-3.537T18 13q2.075 0 3.538 1.463T23 18q0 2.075-1.463 3.538T18 23M4 21q-.825 0-1.412-.587T2 19V8q0-.825.588-1.412T4 6h4V4q0-.825.588-1.412T10 2h4q.825 0 1.413.588T16 4v2h4q.825 0 1.413.588T22 8v4.275q-.875-.625-1.9-.95T18 11q-2.9 0-4.95 2.05T11 18q0 .775.163 1.538T11.675 21zm14 0q.2 0 .35-.15t.15-.35q0-.2-.15-.35T18 20q-.2 0-.35.15t-.15.35q0 .2.15.35T18 21m-.5-2h1v-4h-1z"/></svg>