<svg xmlns="http://www.w3.org/2000/svg" width="1em" height="1em" viewBox="0 0 512 512"><path fill="currentColor" d="M236.158 211.998h39.653l9.85-13.56V92.204h-59.35v106.24zm-25.562 47.385l12.252-37.71l-9.854-13.563l-101.033-32.828L93.62 231.73l101.048 32.831zm37.165 38.947l-32.077-23.307l-15.943 5.189l-62.442 85.944l48.014 34.881l62.448-85.947zm48.532-23.307L264.21 298.33v16.76l62.444 85.947l48.02-34.88l-62.453-85.954zm-7.18-53.36l12.258 37.717l15.942 5.171l101.033-32.822l-18.338-56.447l-101.04 32.833zm121.928 91.192l-76.804-24.96l5.082-15.645l76.799 24.959zm-97.953-123.303l-13.308-9.668l47.462-65.338l13.312 9.666zm-113.385-.6l-47.457-65.334l13.312-9.67l47.457 65.339zm-99.09 122.921l-5.08-15.643l76.797-24.945l5.078 15.643zm146.64 107.289h16.448v-80.756h-16.447zm-119.542 58.385c-170.281-98.17-170.281-344.925 0-443.094S512 59.662 512 256S297.993 575.716 127.711 477.547M460.152 256c0-156.574-170.664-254.964-306.459-176.677s-135.794 275.067 0 353.354S460.153 412.574 460.153 256"/></svg>