<svg xmlns="http://www.w3.org/2000/svg" width="1em" height="1em" viewBox="0 0 512 512"><path fill="currentColor" d="M256.011 34.297L0 477.703h512zm-58.294 390.494V255.503l5.252-23.5l146.616 84.62l17.729 16.314l-146.63 84.657zm7.46-202.665l7.103-31.752l104.736 96.306zM188.07 427.818l-31.047 9.725l31.047-138.857zm186.694-88.035l23.954 22.024l-135.803 42.55zM216.716 178.055l10.068-26.657l118.773 145.13zM144.14 439.86l-28.123 4.599l66.31-175.44zm263.022-68.052l18.045 22.042l-185.083 30.297zm-176.27-238.263l10.464-21.329l126.792 189.048zM98.497 449.83l-23.704 1.6l100.342-204.348zm340.118-43.494l13.231 19.729l-227.122 15.279zm-54.85-112.112L246.449 89.468l9.562-16.55zm-222.557-57.12L52.553 458.398h-19.11zm61.726 221.293l246.061-16.554l9.56 16.554z"/></svg>