<svg xmlns="http://www.w3.org/2000/svg" width="1em" height="1em" viewBox="0 0 512 512"><path fill="currentColor" d="m503.243 344.02l-69.284-85.847l66.48-82.731l-94.872-22.236l6.5-100.554L315 87.898L262.847 0l-55.025 85.77l-99.81-41.11l9.453 110.7l-99.144 18.305l73.093 75.51l-82.657 84.417l109.733 19.571l-12.997 115.208l99.545-53.017l42.504 77.343v1.058h.582L258.15 512l10.334-18.245h.373v-.659l42.88-75.707l94.028 50.191l-1.166-109.582zm-153.898-18.633l44.006-14.593l39.593 16.275l-48.297 6.84zm-53.454 1.604l-37.405 51.26l-38.766-54.764l40.184-46.065zm37.832-175.094V220.8l-65.99 24.075v-66.976zm-87.305 23.79v64.703l-56.306-22.237l-4.188-66.82zm-63.337 62.606l61.486 24.285l-41.822 47.939l-63.75-20.34zm93.618 26l63.896-23.31l36.325 52.8l-62.393 20.698zm161.903 42.057l-37.874-15.568l-26.938-39.157l31.276 13.167zm14.565-114.62l-42.141 52.441l-49.004-20.628l32.58-45.539zm-75.025-27.355l-23.104 32.295v-59.74l26.873-30.782zm-19.513-63.973l-24.981 28.616l-49.955 19.681l24.133-29.853zm-96.667-49.68l31.12 52.457l-34.427 42.59l-30.115-42.95zm-50.013 65.564l22.026 31.415l-51.09-20.57l-26.48-33.724zm-48.267 20.91l3.498 55.795l-22.083-27.21l-5.008-58.633zM72.03 190.842l57.363-10.59l32.575 40.142l-46.197 15.63zm49.384 65.776l25.443-8.609l-32.58 38.347l-33.336 11.597zm-38.346 63.16l37.59-13.077l46.813 14.936l-30.503 7.754zm62.687 29.374l53.967-13.716V388l-62.08 33.059zm75.282 39.998v-26.91l26.505 37.443v37.697zm47.82 10.717l27.034-35.735v27.172l-27.034 47.726zm48.35-9.761V339.56l60.705 14.654l.73 68.686z"/></svg>