<svg xmlns="http://www.w3.org/2000/svg" width="1em" height="1em" viewBox="0 0 512 512"><path fill="currentColor" d="M127.711 477.547c-170.281-98.17-170.281-344.925 0-443.094S512 59.662 512 256S297.993 575.716 127.711 477.547M462.954 256c0-158.723-173.007-258.463-310.664-179.102s-137.658 278.842 0 358.203S462.954 414.722 462.954 256m-72.926 125.707l-49.843-45.427l3.882-4.253l49.843 45.426zm-271.379-3.63l-3.752-4.365l51.16-43.93l3.752 4.366zm282.812-9.795l-53.968-40.436l3.455-4.613l53.967 40.436zm-294.821-5.226l-3.274-4.738l55.472-38.349l3.275 4.738zm304.914-9.233l-57.59-35.08l2.993-4.918l57.59 35.08zm-315.283-6.971l-2.763-5.053l59.175-32.334l2.762 5.053zm323.942-8.389l-60.69-29.397l2.509-5.188l60.69 29.398zm-332.567-8.8l-2.217-5.322l62.232-25.97l2.217 5.322zm339.713-7.32L364.13 298.9l2.003-5.401l63.229 23.444zm-346.49-10.678l-1.649-5.525l64.604-19.326l1.649 5.525zm352.06-6.048l-65.181-17.279l1.474-5.57l65.18 17.279zM76.01 293.047l-1.063-5.66l66.272-12.467l1.064 5.66zm360.863-4.619L370.33 277.48l.934-5.683l66.543 10.949zM73.124 274.031l-.467-5.74l67.212-5.468l.467 5.739zm366.022-3.084l-67.28-4.523l.383-5.75l67.28 4.523zm-299.49-14.543L72.24 254.82l.135-5.762l67.414 1.584zm232.677-1.134l-.168-5.762l67.403-1.946l.168 5.761zm-232.081-11.03l-66.88-8.623l.737-5.716l66.88 8.622zm231.361-1.126l-.765-5.71l66.835-8.983l.765 5.71zm-229.496-10.912l-65.611-15.565l1.327-5.604l65.611 15.565zm227.521-1.103l-1.361-5.598l65.524-15.92l1.361 5.599zm-224.41-10.67L81.6 198.089l1.908-5.434l63.627 22.339zm221.18-1.072l-1.935-5.424l63.504-22.682l1.936 5.424zm-216.856-10.313L88.61 180.178l2.464-5.204l60.941 28.866zm212.423-1.027l-2.498-5.193l60.787-29.195l2.498 5.194zm-206.932-9.84L97.453 163.1l2.998-4.923l57.59 35.077zm201.34-.973l-3.027-4.906l57.4-35.39l3.026 4.906zM161.64 187.94l-53.607-40.906l3.493-4.58l53.608 40.906zm188.042-.906l-3.522-4.563l53.388-41.196l3.522 4.563zm-180.41-8.583l-49.039-46.287l3.955-4.192l49.04 46.288zm156.155-15.796l-4.704-3.33l39.013-55.006l4.704 3.33zm-10.139-6.746l-5.018-2.824l33.043-58.778l5.019 2.825zm-111.827 9.36c-69.736 40.204-69.736 141.258 0 181.462c69.736 40.204 157.38-10.324 157.38-90.731s-87.644-130.935-157.38-90.731m41.806 109.267c-14.247-8.213-14.247-28.859 0-37.072c14.246-8.213 32.151 2.11 32.151 18.536s-17.905 26.75-32.151 18.536m38.414-32.828c-24.434-14.087-24.434-49.496 0-63.583s55.145 3.618 55.145 31.792c0 28.174-30.71 45.878-55.145 31.791"/></svg>