<svg xmlns="http://www.w3.org/2000/svg" width="1em" height="1em" viewBox="0 0 512 512"><path fill="currentColor" d="M360.848 22.51L0 113.456L85.163 489.49L512 357.774zm104.72 313.314l-57.37 17.351l-15.834-86.248l-12.89 3.273l-63.58-158.109l47.772-12.67zM360.325 91.671l-47.631 12.46l-15.951-39.667L343.44 52.5zm-72.551-24.909l15.725 39.774l-174.233 45.575l-3.378-10.977l-77.612 36.79l-11.47-46.854zM112.81 442.594l-39.315-160.69l160.393-44.408l51.417 152.683zm161.436-272.773L60.488 227.809L48.43 178.555l86.453-7.41l-3.295-10.167l175.075-46.438l62.841 158.948l-13.363 4.236l50.876 75.809l-59.063 17.863zM148.565 378.208c-33.107-19.087-31.347-66.645 3.161-85.084c33.704-18.01 74.81-1.317 76.918 40.83c1.974 39.47-46.972 63.34-80.08 44.254m72.522-45.626c-3.004-35.527-36.778-49.694-66.138-34.006c-30.06 16.063-29.866 58.072-.753 74.214c27.301 15.137 69.957-3.951 66.891-40.208m-59.82 28.56l4.79-46.585l9.839-3.134l27.95 36.049l-7.579 4.212l-8.036-10.171l-17.476 5.113l-.78 11.991zm9.84-21.681l13.178-3.943l-11.696-15.71z"/></svg>