<svg xmlns="http://www.w3.org/2000/svg" width="1em" height="1em" viewBox="0 0 16 16"><path fill="currentColor" fill-rule="evenodd" d="M6.66.112a8.049 8.049 0 0 1 2.68 0a.75.75 0 1 1-.25 1.479a6.549 6.549 0 0 0-2.18 0A.75.75 0 1 1 6.66.11m4.924 1.54a.75.75 0 0 1 1.046-.177a8.04 8.04 0 0 1 1.895 1.895a.75.75 0 1 1-1.223.869a6.54 6.54 0 0 0-1.54-1.541a.75.75 0 0 1-.178-1.046m-7.168 0a.75.75 0 0 1-.177 1.046a6.541 6.541 0 0 0-1.541 1.54a.75.75 0 0 1-1.223-.868A8.042 8.042 0 0 1 3.37 1.475a.75.75 0 0 1 1.046.177M.976 6.045a.75.75 0 0 1 .615.865a6.549 6.549 0 0 0 0 2.18a.75.75 0 1 1-1.48.25a8.048 8.048 0 0 1 0-2.68a.75.75 0 0 1 .865-.615m14.048 0a.75.75 0 0 1 .864.615a8.047 8.047 0 0 1 0 2.68a.75.75 0 1 1-1.479-.25a6.552 6.552 0 0 0 0-2.18a.75.75 0 0 1 .615-.865m-13.372 5.54a.75.75 0 0 1 1.046.176a6.54 6.54 0 0 0 1.54 1.541a.75.75 0 1 1-.868 1.223a8.04 8.04 0 0 1-1.895-1.895a.75.75 0 0 1 .177-1.046m12.696 0a.75.75 0 0 1 .177 1.045a8.04 8.04 0 0 1-1.895 1.895a.75.75 0 1 1-.869-1.223a6.538 6.538 0 0 0 1.541-1.54a.75.75 0 0 1 1.046-.178m-8.303 3.439a.75.75 0 0 1 .865-.615a6.552 6.552 0 0 0 2.18 0a.75.75 0 1 1 .25 1.48a8.047 8.047 0 0 1-2.68 0a.75.75 0 0 1-.615-.865" clip-rule="evenodd"/></svg>