<svg xmlns="http://www.w3.org/2000/svg" width="1em" height="1em" viewBox="0 0 16 16"><path fill="currentColor" fill-rule="evenodd" d="M4.78 3.28a.75.75 0 0 0-1.06-1.06L1.75 4.19l-.47-.47A.75.75 0 0 0 .22 4.78l1 1a.75.75 0 0 0 1.06 0zM6 3.75A.75.75 0 0 1 6.75 3h8.5a.75.75 0 0 1 0 1.5h-8.5A.75.75 0 0 1 6 3.75M6 8a.75.75 0 0 1 .75-.75h8.5a.75.75 0 0 1 0 1.5h-8.5A.75.75 0 0 1 6 8m.75 3.5a.75.75 0 0 0 0 1.5h8.5a.75.75 0 0 0 0-1.5zm-1.97-1.28a.75.75 0 0 1 0 1.06l-2.5 2.5a.75.75 0 0 1-1.06 0l-1-1a.75.75 0 1 1 1.06-1.06l.47.47l1.97-1.97a.75.75 0 0 1 1.06 0" clip-rule="evenodd"/></svg>