<svg xmlns="http://www.w3.org/2000/svg" width="1em" height="1em" viewBox="0 0 16 16"><path fill="currentColor" fill-rule="evenodd" d="M1.5 2.5v8h13v-8zM1 12h4v1.5H3.75a.75.75 0 0 0 0 1.5h8.5a.75.75 0 0 0 0-1.5H11V12h4a1 1 0 0 0 1-1V2a1 1 0 0 0-1-1H1a1 1 0 0 0-1 1v9a1 1 0 0 0 1 1m5.5 1.5V12h3v1.5zm5-7.75a.75.75 0 0 0-1.5 0v2.5a.75.75 0 0 0 1.5 0zM7.75 4a.75.75 0 0 1 .75.75v3.5a.75.75 0 0 1-1.5 0v-3.5A.75.75 0 0 1 7.75 4M5.5 6.75a.75.75 0 0 0-1.5 0v1.5a.75.75 0 0 0 1.5 0z" clip-rule="evenodd"/></svg>