<svg xmlns="http://www.w3.org/2000/svg" width="1em" height="1em" viewBox="0 0 16 16"><path fill="currentColor" d="m6.43 1.168l-.74-.123zm-.156.939l.74.123zm-.173.2l.237.711zM4.02 3.509l-.498-.56zm-.26.05l.263-.702zm-.893-.334l.263-.703zm-.608.218l-.65-.375zM1.183 5.307l-.65-.375zm.115.636l.477-.579l-.477.58Zm.736.606l-.477.579l.477-.58Zm.086.25l.735.149l-.735-.15Zm0 2.403l.735-.15zm-.086.25l.476.578l-.476-.579Zm-.736.605l-.476-.58zm-.115.636l-.65.375zm1.077 1.864l.65-.375zm.608.218l.263.703zm.893-.334l-.263-.703zm.26.05l-.498.56zm2.08 1.202l.237-.711zm.173.2l.74-.123zm.156.94l.74-.124l-.74.123Zm3.14 0l-.74-.124l.74.123Zm.156-.94l.74.123zm.173-.2l.238.712zm2.08-1.202l-.497-.561zm.26-.05l.263-.703zm.893.334l-.263.703zm.609-.218l-.65-.375zm1.076-1.864l.65.375zm-.115-.636l-.477.579zm-.736-.606l-.476.58zm-.086-.25l.735.15zm0-2.403l.735-.15zm.086-.25l-.476-.578zm.736-.605l-.477-.579l.477.58Zm.115-.636l.65-.375zM13.74 3.443l-.65.375zm-.609-.218l-.263-.703zm-.893.334l-.263-.702zm-.26-.05l-.497.561l.497-.56ZM9.9 2.307l-.237.711zm-.173-.2l.74-.123zm-.156-.94l-.74.124zM6.924 1.5h2.152V0H6.924zm.246-.209a.25.25 0 0 1-.246.209V0A1.25 1.25 0 0 0 5.69 1.044zm-.156.94l.156-.94l-1.48-.246l-.156.939zm-.676.787c.343-.114.613-.41.676-.788l-1.48-.246a.494.494 0 0 1 .33-.389zM4.518 4.07a5.244 5.244 0 0 1 1.82-1.052l-.474-1.423a6.744 6.744 0 0 0-2.34 1.353zm-1.02.192c.36.134.75.048 1.02-.192l-.995-1.122a.494.494 0 0 1 .501-.091zm-.893-.335l.893.335l.526-1.405l-.893-.335zm.304-.11a.25.25 0 0 1-.304.11l.526-1.405a1.25 1.25 0 0 0-1.521.546l1.3.75ZM1.833 5.683l1.076-1.864l-1.299-.75L.534 4.932zm-.058-.318a.25.25 0 0 1 .058.318l-1.3-.75a1.25 1.25 0 0 0 .289 1.59zm.735.606l-.735-.606l-.953 1.158l.735.606zm.345.978a1.006 1.006 0 0 0-.345-.978l-.953 1.158a.494.494 0 0 1-.172-.48zM2.75 8c0-.361.036-.713.105-1.052l-1.47-.3c-.088.438-.135.89-.135 1.352zm.105 1.052A5.277 5.277 0 0 1 2.75 8h-1.5c0 .462.047.914.135 1.351zm-.345.978c.296-.243.417-.624.345-.978l-1.47.3a.494.494 0 0 1 .172-.48zm-.735.606l.735-.606l-.953-1.158l-.735.606zm.058-.318a.25.25 0 0 1-.058.318L.822 9.478a1.25 1.25 0 0 0-.288 1.59zm1.076 1.864l-1.076-1.864l-1.3.75l1.077 1.864zm-.304-.109a.25.25 0 0 1 .304.11l-1.299.75c.306.528.949.76 1.521.545zm.893-.335l-.893.335l.526 1.405l.893-.335zm1.02.192a1.006 1.006 0 0 0-1.02-.191l.526 1.404a.494.494 0 0 1-.5-.091zm1.82 1.052a5.243 5.243 0 0 1-1.82-1.052l-.995 1.122a6.745 6.745 0 0 0 2.34 1.353zm.676.788a1.006 1.006 0 0 0-.676-.788l-.474 1.423a.494.494 0 0 1-.33-.388zm.156.939l-.156-.94l-1.48.248l.157.939l1.48-.247Zm-.246-.209a.25.25 0 0 1 .246.209l-1.48.247A1.25 1.25 0 0 0 6.925 16zm2.152 0H6.924V16h2.152zm-.246.209a.25.25 0 0 1 .246-.209V16a1.25 1.25 0 0 0 1.233-1.044zm.156-.94l-.156.94l1.48.247l.156-.94zm.676-.787c-.343.114-.613.41-.676.788l1.48.246a.494.494 0 0 1-.33.389zm1.82-1.052a5.244 5.244 0 0 1-1.82 1.052l.474 1.423a6.745 6.745 0 0 0 2.34-1.353zm1.02-.191a1.006 1.006 0 0 0-1.02.19l.995 1.123a.494.494 0 0 1-.501.091l.526-1.405Zm.893.334l-.893-.335l-.526 1.405l.893.335zm-.304.11a.25.25 0 0 1 .304-.11l-.526 1.405a1.25 1.25 0 0 0 1.521-.546l-1.299-.75Zm1.076-1.865l-1.076 1.864l1.299.75l1.076-1.864zm.058.318a.25.25 0 0 1-.058-.318l1.3.75a1.25 1.25 0 0 0-.289-1.59zm-.735-.606l.735.606l.953-1.158l-.735-.606zm-.345-.978c-.072.354.049.735.345.978l.953-1.158c.15.123.206.311.172.48zM13.25 8c0 .361-.036.713-.105 1.052l1.47.3c.088-.438.135-.89.135-1.352zm-.105-1.052c.069.339.105.69.105 1.052h1.5c0-.462-.046-.914-.135-1.351zm.345-.978a1.007 1.007 0 0 0-.345.978l1.47-.3a.494.494 0 0 1-.172.48zm.735-.606l-.735.606l.953 1.158l.735-.606zm-.058.318a.25.25 0 0 1 .058-.318l.953 1.158a1.25 1.25 0 0 0 .288-1.59zm-1.076-1.864l1.076 1.864l1.3-.75l-1.077-1.864zm.304.109a.25.25 0 0 1-.304-.11l1.299-.75a1.25 1.25 0 0 0-1.521-.545zm-.893.334l.893-.334l-.526-1.405l-.893.335zm-1.02-.19c.27.24.66.325 1.02.19l-.526-1.404a.494.494 0 0 1 .5.091zm-1.82-1.053a5.244 5.244 0 0 1 1.82 1.052l.995-1.122a6.744 6.744 0 0 0-2.34-1.353zm-.676-.788c.063.379.333.674.676.788l.474-1.423a.494.494 0 0 1 .33.389zm-.156-.939l.156.94l1.48-.247l-.157-.94l-1.48.247Zm.246.209a.25.25 0 0 1-.246-.209l1.48-.246A1.25 1.25 0 0 0 9.075 0v1.5ZM10.25 8A2.25 2.25 0 0 1 8 10.25v1.5A3.75 3.75 0 0 0 11.75 8zM8 5.75A2.25 2.25 0 0 1 10.25 8h1.5A3.75 3.75 0 0 0 8 4.25zM5.75 8A2.25 2.25 0 0 1 8 5.75v-1.5A3.75 3.75 0 0 0 4.25 8zM8 10.25A2.25 2.25 0 0 1 5.75 8h-1.5A3.75 3.75 0 0 0 8 11.75z"/></svg>