<svg xmlns="http://www.w3.org/2000/svg" width="1em" height="1em" viewBox="0 0 24 24"><path fill="currentColor" d="M12 10c3.976 0 8-1.374 8-4s-4.024-4-8-4s-8 1.374-8 4s4.024 4 8 4"/><path fill="currentColor" d="M4 10c0 2.626 4.024 4 8 4s8-1.374 8-4V8c0 2.626-4.024 4-8 4s-8-1.374-8-4z"/><path fill="currentColor" d="M4 14c0 2.626 4.024 4 8 4s8-1.374 8-4v-2c0 2.626-4.024 4-8 4s-8-1.374-8-4z"/><path fill="currentColor" d="M4 18c0 2.626 4.024 4 8 4s8-1.374 8-4v-2c0 2.626-4.024 4-8 4s-8-1.374-8-4z"/></svg>