<svg xmlns="http://www.w3.org/2000/svg" width="1em" height="1em" viewBox="0 0 24 24"><path fill="currentColor" d="M12 2c-4.963 0-9 4.037-9 9c0 3.328 1.82 6.232 4.513 7.79l-2.067 1.378A1 1 0 0 0 6 22h12a1 1 0 0 0 .555-1.832l-2.067-1.378C19.18 17.232 21 14.328 21 11c0-4.963-4.037-9-9-9m0 16c-3.859 0-7-3.141-7-7s3.141-7 7-7s7 3.141 7 7s-3.141 7-7 7"/><path fill="currentColor" d="M12 6c-2.757 0-5 2.243-5 5s2.243 5 5 5s5-2.243 5-5s-2.243-5-5-5m-1.5 5a1.5 1.5 0 1 1 .001-3.001A1.5 1.5 0 0 1 10.5 11"/></svg>