<svg xmlns="http://www.w3.org/2000/svg" width="1em" height="1em" viewBox="0 0 16 16"><path fill="currentColor" d="M8 16A8 8 0 1 0 8 0a8 8 0 0 0 0 16M8 1.5a6.5 6.5 0 1 1 0 13a6.5 6.5 0 0 1 0-13M4 5a1 1 0 1 1 2 0a1 1 0 0 1-2 0m6 0a1 1 0 1 1 2 0a1 1 0 0 1-2 0m1.345 5h1.014a2.505 2.505 0 0 1-1.624 2.665a2.502 2.502 0 0 1-3.204-1.494a1.502 1.502 0 0 0-1.923-.896A1.502 1.502 0 0 0 4.655 12H3.642a2.505 2.505 0 0 1 1.624-2.665a2.502 2.502 0 0 1 3.204 1.494a1.502 1.502 0 0 0 1.923.896A1.502 1.502 0 0 0 11.346 10z"/></svg>