<svg xmlns="http://www.w3.org/2000/svg" width="1em" height="1em" viewBox="0 0 26 26"><g fill="none"><defs><mask id="pepiconsPopArrowUpCircleFilled0"><path fill="#fff" d="M0 0h26v26H0z"/><g fill="#000" fill-rule="evenodd" clip-rule="evenodd"><path d="M8.232 11.974a1 1 0 0 1 .128-1.409l4-3.333a1 1 0 1 1 1.28 1.536l-4 3.334a1 1 0 0 1-1.408-.128"/><path d="M17.768 11.974a1 1 0 0 1-1.408.128l-4-3.334a1 1 0 1 1 1.28-1.536l4 3.333a1 1 0 0 1 .128 1.409"/><path d="M13 9a1 1 0 0 1 1 1v8a1 1 0 1 1-2 0v-8a1 1 0 0 1 1-1"/></g></mask></defs><circle cx="13" cy="13" r="13" fill="currentColor" mask="url(#pepiconsPopArrowUpCircleFilled0)"/></g></svg>