<svg xmlns="http://www.w3.org/2000/svg" width="1em" height="1em" viewBox="0 0 26 26"><g fill="currentColor" fill-rule="evenodd" clip-rule="evenodd"><path d="M10.354 8.903a1 1 0 0 1 1.087-.906l5.185.472a1 1 0 1 1-.181 1.991l-5.186-.47a1 1 0 0 1-.905-1.087"/><path d="M17.097 15.646a1 1 0 0 1-1.086-.905l-.471-5.186a1 1 0 1 1 1.991-.181l.472 5.185a1 1 0 0 1-.906 1.087"/><path d="M15.828 10.172a1 1 0 0 1 0 1.414l-5.656 5.657a1 1 0 0 1-1.415-1.415l5.657-5.656a1 1 0 0 1 1.414 0"/><path d="M13 24c6.075 0 11-4.925 11-11S19.075 2 13 2S2 6.925 2 13s4.925 11 11 11m0 2c7.18 0 13-5.82 13-13S20.18 0 13 0S0 5.82 0 13s5.82 13 13 13"/></g></svg>