<svg xmlns="http://www.w3.org/2000/svg" width="1em" height="1em" viewBox="0 0 26 26"><g fill="none"><defs><mask id="pepiconsPopArrowsSpinCircleFilled0"><path fill="#fff" d="M0 0h26v26H0z"/><g fill="#000"><path d="M8.05 17.95a1 1 0 1 1 1.414-1.415A5 5 0 0 0 18 13a1 1 0 1 1 2 0a7 7 0 0 1-11.95 4.95"/><path d="M16.559 15.832a1 1 0 1 1-1.11-1.664l3-2a1 1 0 1 1 1.11 1.664z"/><path d="M21.832 15.445a1 1 0 0 1-1.664 1.11l-2-3a1 1 0 1 1 1.664-1.11zm-3.975-7.594a1 1 0 1 1-1.414 1.414a5 5 0 0 0-8.536 3.536a1 1 0 1 1-2 0a7 7 0 0 1 11.95-4.95"/><path d="M9.349 9.969a1 1 0 0 1 1.11 1.664l-3.001 2a1 1 0 1 1-1.11-1.664z"/><path d="M4.075 10.356a1 1 0 1 1 1.664-1.11l2 3a1 1 0 1 1-1.664 1.11z"/></g></mask></defs><circle cx="13" cy="13" r="13" fill="currentColor" mask="url(#pepiconsPopArrowsSpinCircleFilled0)"/></g></svg>