<svg xmlns="http://www.w3.org/2000/svg" width="1em" height="1em" viewBox="0 0 20 20"><g fill="currentColor"><path fill-rule="evenodd" d="M8.974 14.768a1 1 0 0 1-1.409-.128l-3.333-4a1 1 0 1 1 1.536-1.28l3.334 4a1 1 0 0 1-.128 1.408" clip-rule="evenodd"/><path fill-rule="evenodd" d="M8.974 5.232a1 1 0 0 1 .128 1.408l-3.334 4a1 1 0 1 1-1.536-1.28l3.333-4a1 1 0 0 1 1.409-.128" clip-rule="evenodd"/><path fill-rule="evenodd" d="M6 10a1 1 0 0 1 1-1h8a1 1 0 1 1 0 2H7a1 1 0 0 1-1-1" clip-rule="evenodd"/><path d="M1.293 2.707a1 1 0 0 1 1.414-1.414l16 16a1 1 0 0 1-1.414 1.414z"/></g></svg>