<svg xmlns="http://www.w3.org/2000/svg" width="1em" height="1em" viewBox="0 0 20 20"><g fill="currentColor"><path fill-rule="evenodd" d="M5.232 8.974a1 1 0 0 1 .128-1.409l4-3.333a1 1 0 1 1 1.28 1.536l-4 3.334a1 1 0 0 1-1.408-.128" clip-rule="evenodd"/><path fill-rule="evenodd" d="M14.768 8.974a1 1 0 0 1-1.408.128l-4-3.334a1 1 0 1 1 1.28-1.536l4 3.333a1 1 0 0 1 .128 1.409" clip-rule="evenodd"/><path fill-rule="evenodd" d="M10 6a1 1 0 0 1 1 1v8a1 1 0 1 1-2 0V7a1 1 0 0 1 1-1" clip-rule="evenodd"/><path d="M1.293 2.707a1 1 0 0 1 1.414-1.414l16 16a1 1 0 0 1-1.414 1.414z"/></g></svg>