<svg xmlns="http://www.w3.org/2000/svg" width="1em" height="1em" viewBox="0 0 26 26"><g fill="none"><defs><mask id="pepiconsPopBulletinNoticeCircleFilled0"><path fill="#fff" d="M0 0h26v26H0z"/><g fill="#000" fill-rule="evenodd" clip-rule="evenodd"><path d="M3 10a2 2 0 0 1 2-2h16a2 2 0 0 1 2 2v11a2 2 0 0 1-2 2H5a2 2 0 0 1-2-2zm18 0H5v11h16z"/><path d="M8.75 12.5a.75.75 0 0 1 .75-.75h7a.75.75 0 0 1 0 1.5h-7a.75.75 0 0 1-.75-.75m-1 3a.75.75 0 0 1 .75-.75h9a.75.75 0 0 1 0 1.5h-9a.75.75 0 0 1-.75-.75m1 3a.75.75 0 0 1 .75-.75h7a.75.75 0 0 1 0 1.5h-7a.75.75 0 0 1-.75-.75m5.664-12.672a2 2 0 0 0-2.828 0l-3.879 3.88a1 1 0 1 1-1.414-1.415l3.879-3.879a4 4 0 0 1 5.656 0l3.88 3.879a1 1 0 0 1-1.415 1.414z"/></g></mask></defs><circle cx="13" cy="13" r="13" fill="currentColor" mask="url(#pepiconsPopBulletinNoticeCircleFilled0)"/></g></svg>