<svg xmlns="http://www.w3.org/2000/svg" width="1em" height="1em" viewBox="0 0 26 26"><g fill="currentColor" fill-rule="evenodd" clip-rule="evenodd"><path d="M6.213 8.8c.015.759-.398 1.785-.935 2.321a2.658 2.658 0 0 0 0 3.76c.53.528.92 1.444.935 2.192c.014.662.273 1.32.778 1.824a2.648 2.648 0 0 0 1.748.775c.791.04 1.827.5 2.387 1.06a2.658 2.658 0 0 0 3.759 0c.56-.56 1.596-1.02 2.387-1.06a2.648 2.648 0 0 0 1.748-.775a2.65 2.65 0 0 0 .777-1.826c.015-.746.4-1.656.929-2.184a2.663 2.663 0 0 0 .006-3.766c-.536-.535-.95-1.562-.934-2.32a2.65 2.65 0 0 0-.778-1.932a2.651 2.651 0 0 0-2.015-.775c-.713.036-1.615-.31-2.12-.816a2.658 2.658 0 0 0-3.76 0c-.504.505-1.406.852-2.12.816a2.651 2.651 0 0 0-2.014.775A2.65 2.65 0 0 0 6.213 8.8m9.828.826a1 1 0 0 1 .389 1.36l-2.768 4.982a1.019 1.019 0 0 1-.298.343a1.001 1.001 0 0 1-1.23-.045l-2.759-2.207a1 1 0 1 1 1.25-1.562l1.853 1.483l2.203-3.966a1 1 0 0 1 1.36-.388"/><path d="M13 24c6.075 0 11-4.925 11-11S19.075 2 13 2S2 6.925 2 13s4.925 11 11 11m0 2c7.18 0 13-5.82 13-13S20.18 0 13 0S0 5.82 0 13s5.82 13 13 13"/></g></svg>