<svg xmlns="http://www.w3.org/2000/svg" width="1em" height="1em" viewBox="0 0 26 26"><g fill="currentColor"><path fill-rule="evenodd" d="M8.675 5.5a1 1 0 0 1 1-1h6.643a1 1 0 0 1 1 1v3.875a1 1 0 0 1-1 1H9.675a1 1 0 0 1-1-1zm2 1v1.875h4.643V6.5z" clip-rule="evenodd"/><path d="M8 8v11h10V8h-1V6h2a1 1 0 0 1 1 1v13a1 1 0 0 1-1 1H7a1 1 0 0 1-1-1V7a1 1 0 0 1 1-1h2v2z"/><path fill-rule="evenodd" d="M13 24c6.075 0 11-4.925 11-11S19.075 2 13 2S2 6.925 2 13s4.925 11 11 11m0 2c7.18 0 13-5.82 13-13S20.18 0 13 0S0 5.82 0 13s5.82 13 13 13" clip-rule="evenodd"/></g></svg>