<svg xmlns="http://www.w3.org/2000/svg" width="1em" height="1em" viewBox="0 0 26 26"><g fill="none"><defs><mask id="pepiconsPopCountdownCircleFilled0"><path fill="#fff" d="M0 0h26v26H0z"/><g fill="#000"><path fill-rule="evenodd" d="M12.5 6a1 1 0 0 1 1-1a8 8 0 1 1-8 8a1 1 0 0 1 2 0a6 6 0 1 0 6-6a1 1 0 0 1-1-1" clip-rule="evenodd"/><path fill-rule="evenodd" d="M9.394 14.447a1 1 0 0 0-.447-1.341l-2-1a1 1 0 1 0-.894 1.789l2 1a1 1 0 0 0 1.341-.448" clip-rule="evenodd"/><path d="M11.5 6.5a1 1 0 1 1-2 0a1 1 0 0 1 2 0M9 8a1 1 0 1 1-2 0a1 1 0 0 1 2 0m-1.5 2.5a1 1 0 1 1-2 0a1 1 0 0 1 2 0"/><path fill-rule="evenodd" d="M7.207 12.293a1 1 0 0 1 0 1.414l-1.5 1.5a1 1 0 0 1-1.414-1.414l1.5-1.5a1 1 0 0 1 1.414 0M13.5 9a1 1 0 0 1 1 1v3a1 1 0 1 1-2 0v-3a1 1 0 0 1 1-1" clip-rule="evenodd"/><path fill-rule="evenodd" d="M17.5 13a1 1 0 0 1-1 1h-3a1 1 0 1 1 0-2h3a1 1 0 0 1 1 1" clip-rule="evenodd"/></g></mask></defs><circle cx="13" cy="13" r="13" fill="currentColor" mask="url(#pepiconsPopCountdownCircleFilled0)"/></g></svg>