<svg xmlns="http://www.w3.org/2000/svg" width="1em" height="1em" viewBox="0 0 26 26"><g fill="none"><defs><mask id="pepiconsPopDownUpCircleFilled0"><path fill="#fff" d="M0 0h26v26H0z"/><g fill="#000" fill-rule="evenodd" clip-rule="evenodd"><path d="M13.293 10.707a1 1 0 0 1 0-1.414l3-3a1 1 0 1 1 1.414 1.414l-3 3a1 1 0 0 1-1.414 0"/><path d="M20.707 10.707a1 1 0 0 1-1.414 0l-3-3a1 1 0 0 1 1.414-1.414l3 3a1 1 0 0 1 0 1.414"/><path d="M17 8a1 1 0 0 1 1 1v8a1 1 0 1 1-2 0V9a1 1 0 0 1 1-1m-4.293 7.293a1 1 0 0 1 0 1.414l-3 3a1 1 0 0 1-1.414-1.414l3-3a1 1 0 0 1 1.414 0"/><path d="M5.293 15.293a1 1 0 0 1 1.414 0l3 3a1 1 0 1 1-1.414 1.414l-3-3a1 1 0 0 1 0-1.414"/><path d="M9 18a1 1 0 0 1-1-1V9a1 1 0 1 1 2 0v8a1 1 0 0 1-1 1"/></g></mask></defs><circle cx="13" cy="13" r="13" fill="currentColor" mask="url(#pepiconsPopDownUpCircleFilled0)"/></g></svg>