<svg xmlns="http://www.w3.org/2000/svg" width="1em" height="1em" viewBox="0 0 26 26"><g fill="currentColor" fill-rule="evenodd" clip-rule="evenodd"><path d="M10.07 15.082c.7.393 1.733.668 2.928.668c1.196 0 2.229-.275 2.928-.668c.73-.41.906-.822.906-1.05c0-.23-.176-.64-.906-1.052c-.7-.393-1.732-.668-2.928-.668c-1.195 0-2.228.275-2.927.668c-.73.411-.906.822-.906 1.051c0 .23.176.64.906 1.051m-.98 1.743c-1.019-.573-1.925-1.521-1.925-2.794c0-1.272.906-2.22 1.925-2.794c1.05-.59 2.434-.925 3.908-.925c1.474 0 2.858.334 3.908.925c1.02.573 1.926 1.522 1.926 2.794c0 1.273-.907 2.221-1.926 2.794c-1.05.591-2.434.925-3.908.925c-1.474 0-2.857-.334-3.908-.925"/><path d="M12.998 8.5a1 1 0 0 1 1 1v1.813a1 1 0 0 1-2 0V9.5a1 1 0 0 1 1-1m2.613.321a1 1 0 0 1 .785 1.177l-.302 1.51a1 1 0 0 1-1.962-.392l.303-1.51a1 1 0 0 1 1.176-.785m-5.225 0A1 1 0 0 0 9.6 9.998l.302 1.51a1 1 0 0 0 1.961-.392l-.302-1.51a1 1 0 0 0-1.176-.785"/><path d="M7.65 9.85a1 1 0 0 0-.342 1.373l.906 1.51a1 1 0 0 0 1.715-1.029l-.906-1.51A1 1 0 0 0 7.65 9.85m10.696 0a1 1 0 0 1 .343 1.373l-.906 1.51a1 1 0 1 1-1.715-1.029l.906-1.51a1 1 0 0 1 1.372-.343m-5.858 3.879a.51.51 0 1 0 1.02 0a.51.51 0 0 0-1.02 0m.51 2.51a2.51 2.51 0 1 1 0-5.021a2.51 2.51 0 0 1 0 5.02M4.5 7A2.5 2.5 0 0 1 7 4.5h1.962a1 1 0 0 1 0 2H7a.5.5 0 0 0-.5.5v2.25a1 1 0 0 1-2 0zm11.25-1.5a1 1 0 0 1 1-1H19A2.5 2.5 0 0 1 21.5 7v2.25a1 1 0 1 1-2 0V7a.5.5 0 0 0-.5-.5h-2.25a1 1 0 0 1-1-1M5.5 15.462a1 1 0 0 1 1 1V19a.5.5 0 0 0 .5.5h2.25a1 1 0 1 1 0 2H7A2.5 2.5 0 0 1 4.5 19v-2.538a1 1 0 0 1 1-1m15 .288a1 1 0 0 1 1 1V19a2.5 2.5 0 0 1-2.5 2.5h-2.25a1 1 0 1 1 0-2H19a.5.5 0 0 0 .5-.5v-2.25a1 1 0 0 1 1-1"/><path d="M13 24c6.075 0 11-4.925 11-11S19.075 2 13 2S2 6.925 2 13s4.925 11 11 11m0 2c7.18 0 13-5.82 13-13S20.18 0 13 0S0 5.82 0 13s5.82 13 13 13"/></g></svg>