<svg xmlns="http://www.w3.org/2000/svg" width="1em" height="1em" viewBox="0 0 26 26"><g fill="currentColor"><path d="M4.688 11.306a1 1 0 1 1 1.624-1.167c.304.423.773.827 1.38 1.177c1.293.746 3.085 1.184 5.012 1.184c1.928 0 3.72-.437 5.013-1.184c.607-.35 1.076-.754 1.38-1.177a1 1 0 1 1 1.624 1.167c-.48.669-1.164 1.257-2.004 1.742c-1.612.93-3.748 1.452-6.013 1.452c-2.264 0-4.4-.522-6.012-1.452c-.84-.485-1.524-1.073-2.004-1.742"/><path d="M14 14a1 1 0 1 0-2 0v2.5a1 1 0 1 0 2 0zm-5.47-.242a1 1 0 0 1 1.94.485l-.5 2a1 1 0 1 1-1.94-.485zm8.44 0a1 1 0 0 0-1.94.485l.5 2a1 1 0 1 0 1.94-.485zm2.555-2.465a1 1 0 1 0-1.414 1.414l2 2a1 1 0 0 0 1.414-1.414zm-13.447.034a1 1 0 0 1 1.48 1.346l-1.818 2a1 1 0 1 1-1.48-1.346z"/><path fill-rule="evenodd" d="M13 24c6.075 0 11-4.925 11-11S19.075 2 13 2S2 6.925 2 13s4.925 11 11 11m0 2c7.18 0 13-5.82 13-13S20.18 0 13 0S0 5.82 0 13s5.82 13 13 13" clip-rule="evenodd"/></g></svg>