<svg xmlns="http://www.w3.org/2000/svg" width="1em" height="1em" viewBox="0 0 20 20"><g fill="currentColor" fill-rule="evenodd" clip-rule="evenodd"><path d="M5.75 11.5a.75.75 0 0 1 .75-.75h7a.75.75 0 0 1 0 1.5h-7a.75.75 0 0 1-.75-.75m0 3a.75.75 0 0 1 .75-.75h7a.75.75 0 0 1 0 1.5h-7a.75.75 0 0 1-.75-.75"/><path d="M2.5 2.5c0-1.102.898-2 2-2h6.69c.562 0 1.092.238 1.465.631l.006.007l4.312 4.702c.359.383.527.884.527 1.36v10.3c0 1.102-.898 2-2 2h-11c-1.102 0-2-.898-2-2zm8.689 0H4.5v15h11V7.192l-4.296-4.685l-.003-.001a.041.041 0 0 0-.012-.006"/><path d="M11.19.5a1 1 0 0 1 1 1v4.7h4.31a1 1 0 1 1 0 2h-5.31a1 1 0 0 1-1-1V1.5a1 1 0 0 1 1-1"/></g></svg>