<svg xmlns="http://www.w3.org/2000/svg" width="1em" height="1em" viewBox="0 0 20 20"><path fill="currentColor" fill-rule="evenodd" d="M1.5 2.5a1 1 0 0 0-1 1v13a1 1 0 0 0 1 1h17a1 1 0 0 0 1-1v-13a1 1 0 0 0-1-1zm14 2h1a.5.5 0 0 1 .5.5v1a.5.5 0 0 1-.5.5h-1A.5.5 0 0 1 15 6V5a.5.5 0 0 1 .5-.5m1 3h-1a.5.5 0 0 0-.5.5v1a.5.5 0 0 0 .5.5h1A.5.5 0 0 0 17 9V8a.5.5 0 0 0-.5-.5m-1 3h1a.5.5 0 0 1 .5.5v1a.5.5 0 0 1-.5.5h-1a.5.5 0 0 1-.5-.5v-1a.5.5 0 0 1 .5-.5m1 3h-1a.5.5 0 0 0-.5.5v1a.5.5 0 0 0 .5.5h1a.5.5 0 0 0 .5-.5v-1a.5.5 0 0 0-.5-.5m-13-9h1A.5.5 0 0 1 5 5v1a.5.5 0 0 1-.5.5h-1A.5.5 0 0 1 3 6V5a.5.5 0 0 1 .5-.5m1 3h-1A.5.5 0 0 0 3 8v1a.5.5 0 0 0 .5.5h1A.5.5 0 0 0 5 9V8a.5.5 0 0 0-.5-.5m-1 3h1a.5.5 0 0 1 .5.5v1a.5.5 0 0 1-.5.5h-1A.5.5 0 0 1 3 12v-1a.5.5 0 0 1 .5-.5m1 3h-1a.5.5 0 0 0-.5.5v1a.5.5 0 0 0 .5.5h1A.5.5 0 0 0 5 15v-1a.5.5 0 0 0-.5-.5m2 2v-11h7v11z" clip-rule="evenodd"/></svg>