<svg xmlns="http://www.w3.org/2000/svg" width="1em" height="1em" viewBox="0 0 26 26"><g fill="currentColor"><path fill-rule="evenodd" d="M4.5 6.5a2 2 0 0 1 2-2h10.586a2 2 0 0 1 1.414.586L20.914 7.5a2 2 0 0 1 .586 1.414V19.5a2 2 0 0 1-2 2h-13a2 2 0 0 1-2-2zm2 0v13h13V8.914L17.086 6.5z" clip-rule="evenodd"/><path fill-rule="evenodd" d="M8 14a2 2 0 0 1 2-2h6a2 2 0 0 1 2 2v7h-2v-7h-6v7H8zm.5-6a2 2 0 0 0 2 2h4a2 2 0 0 0 2-2V6a1 1 0 1 0-2 0v2h-4V6a1 1 0 0 0-2 0z" clip-rule="evenodd"/><path d="M4.293 5.707a1 1 0 0 1 1.414-1.414l16 16a1 1 0 0 1-1.414 1.414z"/><path fill-rule="evenodd" d="M13 24c6.075 0 11-4.925 11-11S19.075 2 13 2S2 6.925 2 13s4.925 11 11 11m0 2c7.18 0 13-5.82 13-13S20.18 0 13 0S0 5.82 0 13s5.82 13 13 13" clip-rule="evenodd"/></g></svg>