<svg xmlns="http://www.w3.org/2000/svg" width="1em" height="1em" viewBox="0 0 20 20"><g fill="currentColor"><path fill-rule="evenodd" d="M3 7.25a1 1 0 0 1 1-1h12a1 1 0 1 1 0 2H4a1 1 0 0 1-1-1m0 5.5a1 1 0 0 1 1-1h12a1 1 0 1 1 0 2H4a1 1 0 0 1-1-1" clip-rule="evenodd"/><path fill-rule="evenodd" d="M7.833 3.004a1 1 0 0 1 .914 1.08l-1 12a1 1 0 1 1-1.994-.167l1-12a1 1 0 0 1 1.08-.913m5.5 0a1 1 0 0 1 .914 1.08l-1 12a1 1 0 0 1-1.993-.167l1-12a1 1 0 0 1 1.08-.913" clip-rule="evenodd"/><path d="M1.293 2.707a1 1 0 0 1 1.414-1.414l16 16a1 1 0 0 1-1.414 1.414z"/></g></svg>