<svg xmlns="http://www.w3.org/2000/svg" width="1em" height="1em" viewBox="0 0 26 26"><g fill="currentColor"><path fill-rule="evenodd" d="M6 10.25a1 1 0 0 1 1-1h12a1 1 0 1 1 0 2H7a1 1 0 0 1-1-1m0 5.5a1 1 0 0 1 1-1h12a1 1 0 1 1 0 2H7a1 1 0 0 1-1-1" clip-rule="evenodd"/><path fill-rule="evenodd" d="M10.833 6.004a1 1 0 0 1 .914 1.08l-1 12a1 1 0 1 1-1.994-.167l1-12a1 1 0 0 1 1.08-.913m5.5 0a1 1 0 0 1 .914 1.08l-1 12a1 1 0 0 1-1.993-.167l1-12a1 1 0 0 1 1.08-.913" clip-rule="evenodd"/><path d="M4.293 5.707a1 1 0 0 1 1.414-1.414l16 16a1 1 0 0 1-1.414 1.414z"/><path fill-rule="evenodd" d="M13 24c6.075 0 11-4.925 11-11S19.075 2 13 2S2 6.925 2 13s4.925 11 11 11m0 2c7.18 0 13-5.82 13-13S20.18 0 13 0S0 5.82 0 13s5.82 13 13 13" clip-rule="evenodd"/></g></svg>