<svg xmlns="http://www.w3.org/2000/svg" width="1em" height="1em" viewBox="0 0 26 26"><g fill="none"><defs><mask id="pepiconsPopLeafCircleFilled0"><path fill="#fff" d="M0 0h26v26H0z"/><g fill="#000" fill-rule="evenodd" clip-rule="evenodd"><path d="M6.148 10.844c.554 2.152 1.72 4.35 3.05 5.679c1.85 1.851 3.584 2.517 4.972 2.57c1.377.052 2.617-.49 3.546-1.422c.367-.367.636-.937.753-1.715c.116-.77.072-1.674-.115-2.631c-.699-3.581-4.045-6.461-8.217-7.477c-1.911-.465-3.065-.305-3.632.265c-.34.34-.597.931-.671 1.798c-.073.85.04 1.864.314 2.933M3.692 7.821c.091-1.06.423-2.11 1.196-2.885c1.506-1.51 3.918-1.338 5.882-.86c4.837 1.177 8.851 4.543 9.702 8.902c.21 1.08.277 2.173.127 3.17c-.15.99-.523 1.955-1.265 2.7a7.074 7.074 0 0 1-5.312 2.084c-2.145-.082-4.374-1.096-6.47-3.191c-1.607-1.608-2.894-4.099-3.5-6.458c-.307-1.187-.452-2.385-.36-3.462"/><path d="M14.196 9.46c.585.086.978.56.878 1.06l-.472 2.343l2.283 2.614l1.535 2.048l2.014 3.02c.294.441.114 1.002-.402 1.253c-.516.251-1.173.097-1.466-.343l-1.987-2.98l-1.223-1.63l-3.762-.497c-.587-.078-.99-.547-.898-1.048c.09-.502.64-.845 1.227-.768l1.643.217l-.918-1.05l-3.893-3.338c-.42-.359-.418-.94.003-1.299a1.21 1.21 0 0 1 1.52.003l2.479 2.124l.197-.98c.1-.5.657-.835 1.242-.75"/></g></mask></defs><circle cx="13" cy="13" r="13" fill="currentColor" mask="url(#pepiconsPopLeafCircleFilled0)"/></g></svg>