<svg xmlns="http://www.w3.org/2000/svg" width="1em" height="1em" viewBox="0 0 20 20"><g fill="currentColor"><path fill-rule="evenodd" d="M13 7H7a4 4 0 0 0-4 4v4a4 4 0 0 0 4 4h6a4 4 0 0 0 4-4v-4a4 4 0 0 0-4-4m-8 4a2 2 0 0 1 2-2h6a2 2 0 0 1 2 2v4a2 2 0 0 1-2 2H7a2 2 0 0 1-2-2z" clip-rule="evenodd"/><path d="M8 8a1 1 0 1 1-2 0V4a4 4 0 1 1 8 0v.5a1 1 0 1 1-2 0V4a2 2 0 1 0-4 0z"/><path fill-rule="evenodd" d="M8 13a2 2 0 1 0 4 0a2 2 0 0 0-4 0m2.5 0a.5.5 0 1 1-1 0a.5.5 0 0 1 1 0" clip-rule="evenodd"/></g></svg>