<svg xmlns="http://www.w3.org/2000/svg" width="1em" height="1em" viewBox="0 0 26 26"><g fill="currentColor"><path fill-rule="evenodd" d="M7.475 7.475a5.5 5.5 0 1 0 7.778 7.778a5.5 5.5 0 0 0-7.778-7.778m6.364 6.364a3.5 3.5 0 1 1-4.95-4.95a3.5 3.5 0 0 1 4.95 4.95" clip-rule="evenodd"/><path d="M14.192 16.314a1.5 1.5 0 1 1 2.122-2.122l3.535 3.536a1.5 1.5 0 1 1-2.121 2.121z"/><path fill-rule="evenodd" d="M13 24c6.075 0 11-4.925 11-11S19.075 2 13 2S2 6.925 2 13s4.925 11 11 11m0 2c7.18 0 13-5.82 13-13S20.18 0 13 0S0 5.82 0 13s5.82 13 13 13" clip-rule="evenodd"/></g></svg>