<svg xmlns="http://www.w3.org/2000/svg" width="1em" height="1em" viewBox="0 0 26 26"><g fill="currentColor"><path fill-rule="evenodd" d="M7.828 7.828a6 6 0 1 0 8.486 8.486a6 6 0 0 0-8.486-8.486M14.9 14.9a4 4 0 1 1-5.656-5.656A4 4 0 0 1 14.9 14.9" clip-rule="evenodd"/><path d="M14.9 17.728a1.5 1.5 0 1 1 2.12-2.121l3.536 3.535a1.5 1.5 0 1 1-2.121 2.121zm-4.693-4.564a1 1 0 0 1 0-2h4a1 1 0 1 1 0 2z"/><path d="M11.207 10.164a1 1 0 0 1 2 0v4a1 1 0 1 1-2 0z"/><path d="M4.293 5.707a1 1 0 0 1 1.414-1.414l16 16a1 1 0 0 1-1.414 1.414z"/><path fill-rule="evenodd" d="M13 24c6.075 0 11-4.925 11-11S19.075 2 13 2S2 6.925 2 13s4.925 11 11 11m0 2c7.18 0 13-5.82 13-13S20.18 0 13 0S0 5.82 0 13s5.82 13 13 13" clip-rule="evenodd"/></g></svg>