<svg xmlns="http://www.w3.org/2000/svg" width="1em" height="1em" viewBox="0 0 26 26"><g fill="none"><defs><mask id="pepiconsPopLoopCircleFilled0"><path fill="#fff" d="M0 0h26v26H0z"/><g fill="#000"><path fill-rule="evenodd" d="M7.475 7.475a5.5 5.5 0 1 0 7.778 7.778a5.5 5.5 0 0 0-7.778-7.778m6.364 6.364a3.5 3.5 0 1 1-4.95-4.95a3.5 3.5 0 0 1 4.95 4.95" clip-rule="evenodd"/><path d="M14.192 16.314a1.5 1.5 0 1 1 2.122-2.122l3.535 3.536a1.5 1.5 0 1 1-2.121 2.121z"/></g></mask></defs><circle cx="13" cy="13" r="13" fill="currentColor" mask="url(#pepiconsPopLoopCircleFilled0)"/></g></svg>