<svg xmlns="http://www.w3.org/2000/svg" width="1em" height="1em" viewBox="0 0 26 26"><g fill="none"><defs><mask id="pepiconsPopMenuCircleFilled0"><path fill="#fff" d="M0 0h26v26H0z"/><path fill="#000" fill-rule="evenodd" d="M5 11a1 1 0 0 1 1-1h10.308a1 1 0 1 1 0 2H6a1 1 0 0 1-1-1m0-4a1 1 0 0 1 1-1h14a1 1 0 1 1 0 2H6a1 1 0 0 1-1-1m0 8a1 1 0 0 1 1-1h14a1 1 0 1 1 0 2H6a1 1 0 0 1-1-1m0 4a1 1 0 0 1 1-1h10.308a1 1 0 1 1 0 2H6a1 1 0 0 1-1-1" clip-rule="evenodd"/></mask></defs><circle cx="13" cy="13" r="13" fill="currentColor" mask="url(#pepiconsPopMenuCircleFilled0)"/></g></svg>