<svg xmlns="http://www.w3.org/2000/svg" width="1em" height="1em" viewBox="0 0 20 20"><g fill="currentColor"><path fill-rule="evenodd" d="M7.5 4.5a2.5 2.5 0 0 1 5 0v4a2.5 2.5 0 0 1-5 0z" clip-rule="evenodd"/><path d="M10 18.5c-2.834 0-4.5-.208-4.5-1s1.666-1 4.5-1s4.5.208 4.5 1s-1.666 1-4.5 1"/><path d="M9.036 13.5h2V18h-2z"/><path d="M14 8a1 1 0 1 1 2 0v1.8c0 2.914-2.721 5.2-6 5.2s-6-2.286-6-5.2V8a1 1 0 0 1 2 0v1.8c0 1.725 1.756 3.2 4 3.2c2.244 0 4-1.475 4-3.2z"/><path d="M1.293 2.707a1 1 0 0 1 1.414-1.414l16 16a1 1 0 0 1-1.414 1.414z"/></g></svg>