<svg xmlns="http://www.w3.org/2000/svg" width="1em" height="1em" viewBox="0 0 20 20"><g fill="currentColor"><path fill-rule="evenodd" d="M8.764 6.128a4.506 4.506 0 0 1 2.6-3.196c.93-.41.727-1.784-.281-1.908C6.47.458 2.162 3.522 1.188 8.102c-1.035 4.87 2.067 9.656 6.93 10.69c4.862 1.033 9.642-2.078 10.677-6.947a9.045 9.045 0 0 0 .195-2.166c-.032-1.019-1.388-1.343-1.877-.449a4.504 4.504 0 0 1-4.885 2.245a4.505 4.505 0 0 1-3.464-5.347m-.23 10.708c-3.782-.804-6.195-4.528-5.39-8.318a7.022 7.022 0 0 1 4.727-5.23a6.512 6.512 0 0 0-1.063 2.424c-.747 3.516 1.493 6.973 5.005 7.72a6.487 6.487 0 0 0 4.636-.751c-1.273 3.053-4.57 4.866-7.916 4.155" clip-rule="evenodd"/><path d="M1.293 2.707a1 1 0 0 1 1.414-1.414l16 16a1 1 0 0 1-1.414 1.414z"/></g></svg>