<svg xmlns="http://www.w3.org/2000/svg" width="1em" height="1em" viewBox="0 0 26 26"><g fill="currentColor"><path d="M12.781 4.698c4.323 2.937 6.469 5.064 6.469 6.606c0 1.492-.82 2.7-2.396 3.583c-.436.245-.922-.232-.685-.672c.407-.758.273-1.607-.461-2.617c-.774-1.065-1.89-1.84-3.365-2.328A.5.5 0 0 1 12 8.795V5.111a.5.5 0 0 1 .781-.413M10.75 20.75c-1.77 0-3.25-1.143-3.25-2.625S8.98 15.5 10.75 15.5S14 16.643 14 18.125s-1.48 2.625-3.25 2.625"/><path d="M13 7a1 1 0 0 1 1 1v10a1 1 0 1 1-2 0V8a1 1 0 0 1 1-1"/><path fill-rule="evenodd" d="M13 24c6.075 0 11-4.925 11-11S19.075 2 13 2S2 6.925 2 13s4.925 11 11 11m0 2c7.18 0 13-5.82 13-13S20.18 0 13 0S0 5.82 0 13s5.82 13 13 13" clip-rule="evenodd"/></g></svg>