<svg xmlns="http://www.w3.org/2000/svg" width="1em" height="1em" viewBox="0 0 20 20"><g fill="currentColor"><path d="M9.863 9.318a1 1 0 0 1 0 1.364l-4.632 4.963c-.62.664-1.731.226-1.731-.682V5.037c0-.908 1.112-1.346 1.731-.682z"/><path fill-rule="evenodd" d="M7.764 10L5.5 7.574v4.852zm2.1.682a1 1 0 0 0 0-1.364L5.23 4.355c-.62-.664-1.731-.226-1.731.682v9.926c0 .908 1.112 1.346 1.731.682z" clip-rule="evenodd"/><path d="M14.863 9.318a1 1 0 0 1 0 1.364l-4.632 4.963c-.62.664-1.731.226-1.731-.682V5.037c0-.908 1.112-1.346 1.731-.682z"/><path fill-rule="evenodd" d="M12.764 10L10.5 7.574v4.852zm2.1.682a1 1 0 0 0 0-1.364L10.23 4.355c-.62-.664-1.731-.226-1.731.682v9.926c0 .908 1.112 1.346 1.731.682z" clip-rule="evenodd"/><path fill-rule="evenodd" d="M15.5 4a1 1 0 0 1 1 1v10a1 1 0 1 1-2 0V5a1 1 0 0 1 1-1" clip-rule="evenodd"/></g></svg>