<svg xmlns="http://www.w3.org/2000/svg" width="1em" height="1em" viewBox="0 0 20 20"><g fill="currentColor"><path fill-rule="evenodd" d="M15.156 16.992A2 2 0 0 1 13.42 18H6.58a2 2 0 0 1-1.736-1.008l-3.429-6a2 2 0 0 1 0-1.984l3.429-6A2 2 0 0 1 6.58 2h6.84a2 2 0 0 1 1.736 1.008l3.429 6a2 2 0 0 1 0 1.984zM6.58 16h6.84l3.428-6l-3.428-6H6.58l-3.428 6z" clip-rule="evenodd"/><path fill-rule="evenodd" d="M10 8a2 2 0 1 0 0 4a2 2 0 0 0 0-4m-4 2a4 4 0 1 1 8 0a4 4 0 0 1-8 0" clip-rule="evenodd"/><path d="M1.293 2.707a1 1 0 0 1 1.414-1.414l16 16a1 1 0 0 1-1.414 1.414z"/></g></svg>