<svg xmlns="http://www.w3.org/2000/svg" width="1em" height="1em" viewBox="0 0 26 26"><g fill="currentColor"><path fill-rule="evenodd" d="M18.156 19.992A2 2 0 0 1 16.42 21H9.58a2 2 0 0 1-1.736-1.008l-3.429-6a2 2 0 0 1 0-1.984l3.429-6A2 2 0 0 1 9.58 5h6.84a2 2 0 0 1 1.736 1.008l3.429 6a2 2 0 0 1 0 1.984zM9.58 19h6.84l3.428-6l-3.428-6H9.58l-3.428 6z" clip-rule="evenodd"/><path fill-rule="evenodd" d="M13 11a2 2 0 1 0 0 4a2 2 0 0 0 0-4m-4 2a4 4 0 1 1 8 0a4 4 0 0 1-8 0" clip-rule="evenodd"/><path d="M4.293 5.707a1 1 0 0 1 1.414-1.414l16 16a1 1 0 0 1-1.414 1.414z"/><path fill-rule="evenodd" d="M13 24c6.075 0 11-4.925 11-11S19.075 2 13 2S2 6.925 2 13s4.925 11 11 11m0 2c7.18 0 13-5.82 13-13S20.18 0 13 0S0 5.82 0 13s5.82 13 13 13" clip-rule="evenodd"/></g></svg>