<svg xmlns="http://www.w3.org/2000/svg" width="1em" height="1em" viewBox="0 0 20 20"><g fill="currentColor"><path fill-rule="evenodd" d="M1.685 6.659c-.926.309-.906 1.626.03 1.906l7.493 2.242l2.447 7.71c.293.922 1.596.932 1.902.013L18.86 2.62a1 1 0 0 0-1.265-1.265zm3.633.897l11.012-3.67l-3.698 11.096l-1.677-5.284a1 1 0 0 0-.667-.655z" clip-rule="evenodd"/><path d="m17.767 1.44l1.044 1.077l-8.828 8.544l-1.044-1.078z"/><path d="M1.293 2.707a1 1 0 0 1 1.414-1.414l16 16a1 1 0 0 1-1.414 1.414z"/></g></svg>