<svg xmlns="http://www.w3.org/2000/svg" width="1em" height="1em" viewBox="0 0 26 26"><g fill="currentColor"><path fill-rule="evenodd" d="M16.198 4.22L6.12 14.298a1 1 0 0 0-.282.555l-.705 4.594a1 1 0 0 0 1.14 1.14l4.595-.705a1 1 0 0 0 .555-.281L21.501 9.523a1 1 0 0 0 0-1.414l-3.89-3.89a1 1 0 0 0-1.413 0M7.317 18.404l.448-2.924l9.14-9.14l2.475 2.476l-9.14 9.14z" clip-rule="evenodd"/><path d="m14.442 8.247l1.06-1.061l3.242 3.24l-1.061 1.061zM4.293 5.707a1 1 0 0 1 1.414-1.414l16 16a1 1 0 0 1-1.414 1.414z"/><path fill-rule="evenodd" d="M13 24c6.075 0 11-4.925 11-11S19.075 2 13 2S2 6.925 2 13s4.925 11 11 11m0 2c7.18 0 13-5.82 13-13S20.18 0 13 0S0 5.82 0 13s5.82 13 13 13" clip-rule="evenodd"/></g></svg>