<svg xmlns="http://www.w3.org/2000/svg" width="1em" height="1em" viewBox="0 0 20 20"><g fill="currentColor" fill-rule="evenodd" clip-rule="evenodd"><path d="M4 8.25a1 1 0 1 0 0-2a1 1 0 0 0 0 2m0 2a3 3 0 1 0 0-6a3 3 0 0 0 0 6"/><path d="M4.05 11a1.5 1.5 0 0 0-1.5 1.5V14a1 1 0 0 1-2 0v-1.5a3.5 3.5 0 0 1 7 0V14a1 1 0 1 1-2 0v-1.5a1.5 1.5 0 0 0-1.5-1.5M16 8.25a1 1 0 1 1 0-2a1 1 0 0 1 0 2m0 2a3 3 0 1 1 0-6a3 3 0 0 1 0 6"/><path d="M15.95 11a1.5 1.5 0 0 1 1.5 1.5V14a1 1 0 1 0 2 0v-1.5a3.5 3.5 0 0 0-7 0V14a1 1 0 1 0 2 0v-1.5a1.5 1.5 0 0 1 1.5-1.5"/><path d="M10.05 13.75a2.5 2.5 0 0 0-2.5 2.5v1.5a1 1 0 0 1-2 0v-1.5a4.5 4.5 0 0 1 9 0v1.5a1 1 0 1 1-2 0v-1.5a2.5 2.5 0 0 0-2.5-2.5"/><path d="M10 11a1 1 0 1 0 0-2a1 1 0 0 0 0 2m0 2a3 3 0 1 0 0-6a3 3 0 0 0 0 6"/></g></svg>