<svg xmlns="http://www.w3.org/2000/svg" width="1em" height="1em" viewBox="0 0 26 26"><g fill="none"><defs><mask id="pepiconsPopPesoCircleFilled0"><path fill="#fff" d="M0 0h26v26H0z"/><g fill="#000" fill-rule="evenodd" clip-rule="evenodd"><path d="M14 6.5H9v-2h5a5 5 0 0 1 5 5v1a5 5 0 0 1-5 5H9v-2h5a3 3 0 0 0 3-3v-1a3 3 0 0 0-3-3"/><path d="M9 4.5a1 1 0 0 1 1 1V21a1 1 0 1 1-2 0V5.5a1 1 0 0 1 1-1"/><path d="M5 8.436a1 1 0 0 1 1-1h14a1 1 0 1 1 0 2H6a1 1 0 0 1-1-1m0 3a1 1 0 0 1 1-1h14a1 1 0 1 1 0 2H6a1 1 0 0 1-1-1"/></g></mask></defs><circle cx="13" cy="13" r="13" fill="currentColor" mask="url(#pepiconsPopPesoCircleFilled0)"/></g></svg>