<svg xmlns="http://www.w3.org/2000/svg" width="1em" height="1em" viewBox="0 0 26 26"><g fill="currentColor" fill-rule="evenodd" clip-rule="evenodd"><path d="m13.546 7.182l6.364 6.364a4.5 4.5 0 1 1-6.364 6.364l-6.364-6.364a4.5 4.5 0 1 1 6.364-6.364M16 12.5c-.667-.667-1.5-.833-2.5-.5c-1 .333-1.667 1.333-2 3l3.42 3.444l.006.006c.973.973 2.55.973 3.524 0l.007-.008a2.49 2.49 0 0 0-.015-3.52z"/><path d="M13 24c6.075 0 11-4.925 11-11S19.075 2 13 2S2 6.925 2 13s4.925 11 11 11m0 2c7.18 0 13-5.82 13-13S20.18 0 13 0S0 5.82 0 13s5.82 13 13 13"/></g></svg>