<svg xmlns="http://www.w3.org/2000/svg" width="1em" height="1em" viewBox="0 0 26 26"><g fill="currentColor"><path d="M11.637 12.318a1 1 0 0 0 0 1.364l4.632 4.963c.62.664 1.731.226 1.731-.682V8.037c0-.908-1.112-1.346-1.731-.682z"/><path fill-rule="evenodd" d="M13.736 13L16 10.574v4.852zm-2.1.682a1 1 0 0 1 0-1.364l4.633-4.963c.62-.664 1.731-.226 1.731.682v9.926c0 .908-1.112 1.346-1.731.682z" clip-rule="evenodd"/><path d="M6.637 12.318a1 1 0 0 0 0 1.364l4.632 4.963c.62.664 1.731.226 1.731-.682V8.037c0-.908-1.112-1.346-1.731-.682z"/><path fill-rule="evenodd" d="M8.736 13L11 10.574v4.852zm-2.1.682a1 1 0 0 1 0-1.364l4.633-4.963c.62-.664 1.731-.226 1.731.682v9.926c0 .908-1.112 1.346-1.731.682z" clip-rule="evenodd"/><path d="M4.293 5.707a1 1 0 0 1 1.414-1.414l16 16a1 1 0 0 1-1.414 1.414z"/><path fill-rule="evenodd" d="M13 24c6.075 0 11-4.925 11-11S19.075 2 13 2S2 6.925 2 13s4.925 11 11 11m0 2c7.18 0 13-5.82 13-13S20.18 0 13 0S0 5.82 0 13s5.82 13 13 13" clip-rule="evenodd"/></g></svg>