<svg xmlns="http://www.w3.org/2000/svg" width="1em" height="1em" viewBox="0 0 26 26"><g fill="currentColor"><path fill-rule="evenodd" d="M8 16a3 3 0 1 0 0-6a3 3 0 0 0 0 6m0-4a1 1 0 1 1 0 2a1 1 0 0 1 0-2m9-1a3 3 0 1 0 0-6a3 3 0 0 0 0 6m0-4a1 1 0 1 1 0 2a1 1 0 0 1 0-2m0 14a3 3 0 1 0 0-6a3 3 0 0 0 0 6m0-4a1 1 0 1 1 0 2a1 1 0 0 1 0-2" clip-rule="evenodd"/><path d="m9.236 12.777l-.763-1.291l6.791-4.013l.763 1.291zm6.021 5.752l.772-1.286l-6.286-3.772l-.772 1.286z"/><path fill-rule="evenodd" d="M13 24c6.075 0 11-4.925 11-11S19.075 2 13 2S2 6.925 2 13s4.925 11 11 11m0 2c7.18 0 13-5.82 13-13S20.18 0 13 0S0 5.82 0 13s5.82 13 13 13" clip-rule="evenodd"/></g></svg>