<svg xmlns="http://www.w3.org/2000/svg" width="1em" height="1em" viewBox="0 0 26 26"><g fill="none"><defs><mask id="pepiconsPopSmartphoneNotchCircleFilled0"><path fill="#fff" d="M0 0h26v26H0z"/><path fill="#000" fill-rule="evenodd" d="M9 3h9c1.105 0 2 .943 2 2.105v15.79C20 22.057 19.105 23 18 23H9c-1.105 0-2-.943-2-2.105V5.105C7 3.943 7.895 3 9 3m1 2a1 1 0 0 0-1 1v14a1 1 0 0 0 1 1h7a1 1 0 0 0 1-1V6a1 1 0 0 0-1-1h-1v1.5a.5.5 0 0 1-.5.5h-4a.5.5 0 0 1-.5-.5V5z" clip-rule="evenodd"/></mask></defs><circle cx="13" cy="13" r="13" fill="currentColor" mask="url(#pepiconsPopSmartphoneNotchCircleFilled0)"/></g></svg>