<svg xmlns="http://www.w3.org/2000/svg" width="1em" height="1em" viewBox="0 0 26 26"><g fill="none"><defs><mask id="pepiconsPopSmartphoneCutoutCircleFilled0"><path fill="#fff" d="M0 0h26v26H0z"/><g fill="#000" fill-rule="evenodd" clip-rule="evenodd"><path d="M17.5 3h-9a2 2 0 0 0-2 2v16a2 2 0 0 0 2 2h9a2 2 0 0 0 2-2V5a2 2 0 0 0-2-2m-9 18V5h9v16z"/><path d="M10.5 6.5a1 1 0 0 1 1-1h3a1 1 0 1 1 0 2h-3a1 1 0 0 1-1-1"/></g></mask></defs><circle cx="13" cy="13" r="13" fill="currentColor" mask="url(#pepiconsPopSmartphoneCutoutCircleFilled0)"/></g></svg>