<svg xmlns="http://www.w3.org/2000/svg" width="1em" height="1em" viewBox="0 0 26 26"><g fill="none"><defs><mask id="pepiconsPopSoftDrinkCircleFilled0"><path fill="#fff" d="M0 0h26v26H0z"/><g fill="#000"><path fill-rule="evenodd" d="M16.411 7H9.589a2.502 2.502 0 0 0-2.481 2.803l1.22 10A2.5 2.5 0 0 0 10.809 22h4.385a2.5 2.5 0 0 0 2.481-2.198l1.218-10A2.5 2.5 0 0 0 16.41 7M9.529 9.004A.5.5 0 0 1 9.589 9h6.822a.5.5 0 0 1 .496.56l-1.217 10a.5.5 0 0 1-.496.44h-4.385a.5.5 0 0 1-.496-.44l-1.22-10a.5.5 0 0 1 .436-.556" clip-rule="evenodd"/><path d="M12.217 17.72a.75.75 0 0 1-1.434-.44l4-13a.75.75 0 1 1 1.434.44z"/><path d="M8.5 13.25a.75.75 0 0 1 0-1.5h9a.75.75 0 0 1 0 1.5zm6.818-8.022a.75.75 0 0 1 .364-1.456l4 1a.75.75 0 1 1-.364 1.456z"/></g></mask></defs><circle cx="13" cy="13" r="13" fill="currentColor" mask="url(#pepiconsPopSoftDrinkCircleFilled0)"/></g></svg>