<svg xmlns="http://www.w3.org/2000/svg" width="1em" height="1em" viewBox="0 0 26 26"><g fill="currentColor"><path d="m13 18.97l-4.295 1.916a1 1 0 0 1-1.402-1.019l.494-4.677l-3.148-3.493a1 1 0 0 1 .535-1.647l4.6-.976L12.134 5a1 1 0 0 1 1.732 0l2.35 4.074l4.6.976a1 1 0 0 1 .535 1.647l-3.148 3.494l.494 4.676a1 1 0 0 1-1.402 1.018z"/><path d="M4.293 5.707a1 1 0 0 1 1.414-1.414l16 16a1 1 0 0 1-1.414 1.414z"/><path fill-rule="evenodd" d="M13 24c6.075 0 11-4.925 11-11S19.075 2 13 2S2 6.925 2 13s4.925 11 11 11m0 2c7.18 0 13-5.82 13-13S20.18 0 13 0S0 5.82 0 13s5.82 13 13 13" clip-rule="evenodd"/></g></svg>