<svg xmlns="http://www.w3.org/2000/svg" width="1em" height="1em" viewBox="0 0 20 20"><g fill="currentColor" fill-rule="evenodd" clip-rule="evenodd"><path d="M10 5.5a5.5 5.5 0 1 0 0 11a5.5 5.5 0 0 0 0-11M2.5 11a7.5 7.5 0 1 1 15 0a7.5 7.5 0 0 1-15 0"/><path d="M2.793 3.793a1 1 0 0 1 1.414 0l1.5 1.5a1 1 0 0 1-1.414 1.414l-1.5-1.5a1 1 0 0 1 0-1.414m11.5 2.914a1 1 0 0 0 1.414 0l1.5-1.5a1 1 0 0 0-1.414-1.414l-1.5 1.5a1 1 0 0 0 0 1.414M13.28 8.375a1 1 0 0 1-.155 1.406l-2.5 2a1 1 0 0 1-1.25-1.562l2.5-2a1 1 0 0 1 1.406.156M9 4V2h2v2z"/><path d="M7.5 2a1 1 0 0 1 1-1h3a1 1 0 1 1 0 2h-3a1 1 0 0 1-1-1"/></g></svg>