<svg xmlns="http://www.w3.org/2000/svg" width="1em" height="1em" viewBox="0 0 26 26"><g fill="none"><defs><mask id="pepiconsPopStudioBackdropCircleFilled0"><path fill="#fff" d="M0 0h26v26H0z"/><g fill="#000" fill-rule="evenodd" clip-rule="evenodd"><path d="M6 6a1.5 1.5 0 0 1 1.5-1.5h11A1.5 1.5 0 0 1 20 6v7a1.5 1.5 0 0 1-1.5 1.5h-11A1.5 1.5 0 0 1 6 13zm2 .5v6h10v-6z"/><path d="M4.75 5.5a1 1 0 0 1 1-1h14.5a1 1 0 1 1 0 2H5.75a1 1 0 0 1-1-1m1.97 14l1.26-6.304l-1.96-.392l-1.381 6.902a1.5 1.5 0 0 0 1.47 1.794H19.89a1.5 1.5 0 0 0 1.471-1.794l-1.38-6.902l-1.962.392L19.28 19.5z"/></g></mask></defs><circle cx="13" cy="13" r="13" fill="currentColor" mask="url(#pepiconsPopStudioBackdropCircleFilled0)"/></g></svg>