<svg xmlns="http://www.w3.org/2000/svg" width="1em" height="1em" viewBox="0 0 26 26"><g fill="none"><defs><mask id="pepiconsPopTabletCircleFilled0"><path fill="#fff" d="M0 0h26v26H0z"/><g fill="#000" fill-rule="evenodd" clip-rule="evenodd"><path d="M4.5 5a2 2 0 0 1 2-2h13a2 2 0 0 1 2 2v16a2 2 0 0 1-2 2h-13a2 2 0 0 1-2-2zm15 0h-13v16h13z"/><path d="M10.75 19a1 1 0 0 1 1-1h2.5a1 1 0 1 1 0 2h-2.5a1 1 0 0 1-1-1"/></g></mask></defs><circle cx="13" cy="13" r="13" fill="currentColor" mask="url(#pepiconsPopTabletCircleFilled0)"/></g></svg>