<svg xmlns="http://www.w3.org/2000/svg" width="1em" height="1em" viewBox="0 0 26 26"><g fill="currentColor"><path fill-rule="evenodd" d="M7 11v7a1 1 0 0 0 1 1h10a1 1 0 0 0 1-1v-7a1 1 0 0 0-1-1H8a1 1 0 0 0-1 1m-2 7a3 3 0 0 0 3 3h10a3 3 0 0 0 3-3v-7a3 3 0 0 0-3-3H8a3 3 0 0 0-3 3z" clip-rule="evenodd"/><path fill-rule="evenodd" d="M12.875 8.78a1 1 0 0 1-.156-1.405l2-2.5a1 1 0 0 1 1.562 1.25l-2 2.5a1 1 0 0 1-1.406.156" clip-rule="evenodd"/><path fill-rule="evenodd" d="M13.125 8.78a1 1 0 0 0 .156-1.405l-2-2.5a1 1 0 1 0-1.562 1.25l2 2.5a1 1 0 0 0 1.406.156M15 14.5l-3.25 2v-4z" clip-rule="evenodd"/><path fill-rule="evenodd" d="M15.5 14.5a.5.5 0 0 1-.238.426l-3.25 2a.5.5 0 0 1-.762-.426v-4a.5.5 0 0 1 .762-.426l3.25 2a.5.5 0 0 1 .238.426m-3.25-1.105v2.21l1.796-1.105z" clip-rule="evenodd"/><path d="M4.293 5.707a1 1 0 0 1 1.414-1.414l16 16a1 1 0 0 1-1.414 1.414z"/><path fill-rule="evenodd" d="M13 24c6.075 0 11-4.925 11-11S19.075 2 13 2S2 6.925 2 13s4.925 11 11 11m0 2c7.18 0 13-5.82 13-13S20.18 0 13 0S0 5.82 0 13s5.82 13 13 13" clip-rule="evenodd"/></g></svg>