<svg xmlns="http://www.w3.org/2000/svg" width="1em" height="1em" viewBox="0 0 26 26"><g fill="currentColor"><path fill-rule="evenodd" d="M7.501 13.866a1 1 0 0 1 0-1.732l10-5.769A1 1 0 0 1 19 7.231V18.77a1 1 0 0 1-1.5.866z" clip-rule="evenodd"/><path fill-rule="evenodd" d="M17.5 6.365a1 1 0 0 1 1.5.866V18.77a1 1 0 0 1-1.5.866l-9.999-5.769a1 1 0 0 1 0-1.732zM12.003 13L16 15.306v-4.612z" clip-rule="evenodd"/><path d="M4.293 5.707a1 1 0 0 1 1.414-1.414l16 16a1 1 0 0 1-1.414 1.414z"/><path fill-rule="evenodd" d="M13 24c6.075 0 11-4.925 11-11S19.075 2 13 2S2 6.925 2 13s4.925 11 11 11m0 2c7.18 0 13-5.82 13-13S20.18 0 13 0S0 5.82 0 13s5.82 13 13 13" clip-rule="evenodd"/></g></svg>