<svg xmlns="http://www.w3.org/2000/svg" width="1em" height="1em" viewBox="0 0 26 26"><g fill="currentColor"><path fill-rule="evenodd" d="M18.499 12.134a1 1 0 0 1 0 1.732l-10 5.769A1 1 0 0 1 7 18.769V7.23a1 1 0 0 1 1.5-.866z" clip-rule="evenodd"/><path fill-rule="evenodd" d="M8.5 19.635a1 1 0 0 1-1.5-.866V7.23a1 1 0 0 1 1.5-.866l9.999 5.769a1 1 0 0 1 0 1.732zM13.997 13L10 10.694v4.612z" clip-rule="evenodd"/><path d="M4.293 5.707a1 1 0 0 1 1.414-1.414l16 16a1 1 0 0 1-1.414 1.414z"/><path fill-rule="evenodd" d="M13 24c6.075 0 11-4.925 11-11S19.075 2 13 2S2 6.925 2 13s4.925 11 11 11m0 2c7.18 0 13-5.82 13-13S20.18 0 13 0S0 5.82 0 13s5.82 13 13 13" clip-rule="evenodd"/></g></svg>