<svg xmlns="http://www.w3.org/2000/svg" width="1em" height="1em" viewBox="0 0 20 20"><g fill="currentColor"><path fill-rule="evenodd" d="M4.419 2.186a1 1 0 0 1 1.395.233l5 7a1 1 0 1 1-1.628 1.162l-5-7a1 1 0 0 1 .233-1.395" clip-rule="evenodd"/><path fill-rule="evenodd" d="M15.581 2.186a1 1 0 0 0-1.395.233l-5 7a1 1 0 0 0 1.628 1.162l5-7a1 1 0 0 0-.233-1.395" clip-rule="evenodd"/><path fill-rule="evenodd" d="M4.5 11a1 1 0 0 1 1-1h9a1 1 0 1 1 0 2h-9a1 1 0 0 1-1-1" clip-rule="evenodd"/><path fill-rule="evenodd" d="M10 9a1 1 0 0 1 1 1v7a1 1 0 1 1-2 0v-7a1 1 0 0 1 1-1" clip-rule="evenodd"/><path d="M1.293 2.707a1 1 0 0 1 1.414-1.414l16 16a1 1 0 0 1-1.414 1.414z"/></g></svg>