<svg xmlns="http://www.w3.org/2000/svg" width="1em" height="1em" viewBox="0 0 26 26"><g fill="currentColor"><path fill-rule="evenodd" d="M7.419 5.186a1 1 0 0 1 1.395.233l5 7a1 1 0 1 1-1.628 1.162l-5-7a1 1 0 0 1 .233-1.395" clip-rule="evenodd"/><path fill-rule="evenodd" d="M18.581 5.186a1 1 0 0 0-1.395.233l-5 7a1 1 0 0 0 1.628 1.162l5-7a1 1 0 0 0-.233-1.395" clip-rule="evenodd"/><path fill-rule="evenodd" d="M7.5 14a1 1 0 0 1 1-1h9a1 1 0 1 1 0 2h-9a1 1 0 0 1-1-1" clip-rule="evenodd"/><path fill-rule="evenodd" d="M13 12a1 1 0 0 1 1 1v7a1 1 0 1 1-2 0v-7a1 1 0 0 1 1-1" clip-rule="evenodd"/><path d="M4.293 5.707a1 1 0 0 1 1.414-1.414l16 16a1 1 0 0 1-1.414 1.414z"/><path fill-rule="evenodd" d="M13 24c6.075 0 11-4.925 11-11S19.075 2 13 2S2 6.925 2 13s4.925 11 11 11m0 2c7.18 0 13-5.82 13-13S20.18 0 13 0S0 5.82 0 13s5.82 13 13 13" clip-rule="evenodd"/></g></svg>