<svg xmlns="http://www.w3.org/2000/svg" width="1em" height="1em" viewBox="0 0 24 24"><path fill="currentColor" d="M14.36 14.23a3.76 3.76 0 0 1-4.72 0a1 1 0 0 0-1.28 1.54a5.68 5.68 0 0 0 7.28 0a1 1 0 1 0-1.28-1.54M9 11.71l.29-.3l.29.3a1 1 0 0 0 1.42 0a1 1 0 0 0 0-1.42l-.3-.29l.3-.29a1 1 0 0 0-1.46-1.42l-.29.3l-.25-.3a1 1 0 1 0-1.46 1.42l.3.29l-.3.29a1 1 0 0 0 0 1.42a1 1 0 0 0 1.42 0ZM12 2a10 10 0 1 0 10 10A10 10 0 0 0 12 2m0 18a8 8 0 1 1 8-8a8 8 0 0 1-8 8m5-11.71a1 1 0 0 0-1.42 0l-.29.3l-.29-.3a1 1 0 0 0-1.42 1.42l.3.29l-.3.29a1 1 0 0 0 0 1.42a1 1 0 0 0 1.42 0l.29-.3l.29.3a1 1 0 0 0 1.42 0a1 1 0 0 0 0-1.42l-.3-.29l.3-.29a1 1 0 0 0 0-1.42"/></svg>