<svg xmlns="http://www.w3.org/2000/svg" width="1em" height="1em" viewBox="0 0 24 24"><path fill="currentColor" d="M8 19a3 3 0 0 1-3-3V8a3 3 0 0 1 3-3a1 1 0 0 0 0-2a5 5 0 0 0-5 5v8a5 5 0 0 0 5 5a1 1 0 0 0 0-2m7.71-3.29a1 1 0 0 0 0-1.42L13.41 12l2.3-2.29a1 1 0 0 0-1.42-1.42L12 10.59l-2.29-2.3a1 1 0 0 0-1.42 1.42l2.3 2.29l-2.3 2.29a1 1 0 0 0 0 1.42a1 1 0 0 0 1.42 0l2.29-2.3l2.29 2.3a1 1 0 0 0 1.42 0M16 3a1 1 0 0 0 0 2a3 3 0 0 1 3 3v8a3 3 0 0 1-3 3a1 1 0 0 0 0 2a5 5 0 0 0 5-5V8a5 5 0 0 0-5-5"/></svg>