<svg xmlns="http://www.w3.org/2000/svg" width="1em" height="1em" viewBox="0 0 26 26"><g fill="currentColor"><path d="m18.68 10.116l-6 5l.64.768l6-5z"/><path d="m19.32 10.884l-6 5c-.512.427-1.152-.341-.64-.768l6-5c.512-.427 1.152.341.64.768"/><path d="m6.68 10.884l6 5l.64-.768l-6-5z"/><path d="m7.32 10.116l6 5c.512.427-.128 1.195-.64.768l-6-5c-.512-.427.128-1.195.64-.768"/><path fill-rule="evenodd" d="M13 24.5c6.351 0 11.5-5.149 11.5-11.5S19.351 1.5 13 1.5S1.5 6.649 1.5 13S6.649 24.5 13 24.5m0 1c6.904 0 12.5-5.596 12.5-12.5S19.904.5 13 .5S.5 6.096.5 13S6.096 25.5 13 25.5" clip-rule="evenodd"/></g></svg>