<svg xmlns="http://www.w3.org/2000/svg" width="1em" height="1em" viewBox="0 0 26 26"><g fill="none"><defs><mask id="pepiconsPencilArrowSpinCircleFilled0"><path fill="#fff" d="M0 0h26v26H0z"/><g fill="#000"><path d="M16.374 8.038a.5.5 0 0 1-.563.827A5 5 0 1 0 18 13a.5.5 0 0 1 1 0a6 6 0 1 1-2.626-4.962"/><path d="M15.769 14.585a.5.5 0 1 1-.539-.842l3.482-2.227a.5.5 0 1 1 .539.842z"/><path d="M20.947 15.114a.5.5 0 0 1-.913.407l-1.509-3.38a.5.5 0 1 1 .914-.408z"/></g></mask></defs><circle cx="13" cy="13" r="13" fill="currentColor" mask="url(#pepiconsPencilArrowSpinCircleFilled0)"/></g></svg>