<svg xmlns="http://www.w3.org/2000/svg" width="1em" height="1em" viewBox="0 0 20 20"><path fill="currentColor" fill-rule="evenodd" d="M10 2.682L3.938 6.5h12.124zm.267-1.014a.5.5 0 0 0-.533 0L1.939 6.577c-.424.267-.235.923.267.923h15.588c.502 0 .691-.656.267-.923zM2 17a.5.5 0 0 1 .5-.5h15a.5.5 0 0 1 0 1h-15A.5.5 0 0 1 2 17m1.5-8.5A.5.5 0 0 1 4 9v6a.5.5 0 0 1-1 0V9a.5.5 0 0 1 .5-.5m3 0A.5.5 0 0 1 7 9v6a.5.5 0 0 1-1 0V9a.5.5 0 0 1 .5-.5m3 0a.5.5 0 0 1 .5.5v6a.5.5 0 0 1-1 0V9a.5.5 0 0 1 .5-.5m3 0a.5.5 0 0 1 .5.5v6a.5.5 0 0 1-1 0V9a.5.5 0 0 1 .5-.5m3 0a.5.5 0 0 1 .5.5v6a.5.5 0 0 1-1 0V9a.5.5 0 0 1 .5-.5" clip-rule="evenodd"/></svg>