<svg xmlns="http://www.w3.org/2000/svg" width="1em" height="1em" viewBox="0 0 26 26"><g fill="none"><defs><mask id="pepiconsPencilBatteryCircleFilled0"><path fill="#fff" d="M0 0h26v26H0z"/><g fill="#000" transform="translate(3 3)"><rect width="2" height="5" x="16" y="7.5" rx=".5"/><path d="M4 7.5h2.5v5H4zm3.25 0h2.5v5h-2.5zm3.25 0H13v5h-2.5z"/><path fill-rule="evenodd" d="M14 5.5H3A1.5 1.5 0 0 0 1.5 7v6A1.5 1.5 0 0 0 3 14.5h11a1.5 1.5 0 0 0 1.5-1.5V7A1.5 1.5 0 0 0 14 5.5M2.5 7a.5.5 0 0 1 .5-.5h11a.5.5 0 0 1 .5.5v6a.5.5 0 0 1-.5.5H3a.5.5 0 0 1-.5-.5z" clip-rule="evenodd"/></g></mask></defs><circle cx="13" cy="13" r="13" fill="currentColor" mask="url(#pepiconsPencilBatteryCircleFilled0)"/></g></svg>