<svg xmlns="http://www.w3.org/2000/svg" width="1em" height="1em" viewBox="0 0 26 26"><g fill="none"><defs><mask id="pepiconsPencilBluetoothCircleFilled0"><path fill="#fff" d="M0 0h26v26H0z"/><g fill="#000"><path fill-rule="evenodd" d="m14.232 13.398l5.571-4.25a.5.5 0 0 0 0-.796l-5.571-4.25a.5.5 0 0 0-.803.398V13a.5.5 0 0 0 .803.398m.197-1.408V5.51l4.247 3.24z" clip-rule="evenodd"/><path fill-rule="evenodd" d="m14.232 21.898l5.571-4.25a.5.5 0 0 0 0-.796l-5.571-4.25a.5.5 0 0 0-.803.398v8.5a.5.5 0 0 0 .803.398m.197-7.888l4.247 3.24l-4.247 3.24z" clip-rule="evenodd"/><path d="M14.228 12.6a.5.5 0 1 1-.598.8L6.665 8.207a.5.5 0 1 1 .598-.801z"/><path d="M14.228 13.4a.5.5 0 1 0-.598-.8l-6.965 5.194a.5.5 0 0 0 .598.801z"/></g></mask></defs><circle cx="13" cy="13" r="13" fill="currentColor" mask="url(#pepiconsPencilBluetoothCircleFilled0)"/></g></svg>