<svg xmlns="http://www.w3.org/2000/svg" width="1em" height="1em" viewBox="0 0 26 26"><g fill="none"><defs><mask id="pepiconsPencilBookmarkCircleFilled0"><path fill="#fff" d="M0 0h26v26H0z"/><path fill="#000" fill-rule="evenodd" d="M7.5 6a.5.5 0 0 1 .5-.5h10a.5.5 0 0 1 .5.5v14a.5.5 0 0 1-.855.352L13 15.676l-4.645 4.676A.5.5 0 0 1 7.5 20zm1 .5v12.287l4.145-4.172a.5.5 0 0 1 .71 0l4.145 4.172V6.5z" clip-rule="evenodd"/></mask></defs><circle cx="13" cy="13" r="13" fill="currentColor" mask="url(#pepiconsPencilBookmarkCircleFilled0)"/></g></svg>