<svg xmlns="http://www.w3.org/2000/svg" width="1em" height="1em" viewBox="0 0 26 26"><g fill="currentColor"><path d="M15.675 18.138a.675.675 0 1 1-1.35 0a.675.675 0 0 1 1.35 0"/><path fill-rule="evenodd" d="M15 17.963a.175.175 0 1 0 0 .35a.175.175 0 0 0 0-.35m-1.175.174a1.175 1.175 0 1 1 2.35 0a1.175 1.175 0 0 1-2.35 0" clip-rule="evenodd"/><path fill-rule="evenodd" d="M9 6.5A2.5 2.5 0 0 1 11.5 4h7A2.5 2.5 0 0 1 21 6.5v13a2.5 2.5 0 0 1-2.5 2.5H11a2 2 0 0 1-2-2v-1.5a.5.5 0 0 1 1 0V20a1 1 0 0 0 1 1h7.5a1.5 1.5 0 0 0 1.5-1.5v-13A1.5 1.5 0 0 0 18.5 5h-7A1.5 1.5 0 0 0 10 6.5v3.25a.5.5 0 0 1-1 0z" clip-rule="evenodd"/><path fill-rule="evenodd" d="M5.893 15.795c.62.35 1.512.581 2.524.581c1.013 0 1.904-.232 2.525-.581c.637-.358.893-.775.893-1.122c0-.348-.256-.765-.893-1.123c-.62-.35-1.512-.58-2.525-.58c-1.012 0-1.903.23-2.524.58c-.637.358-.893.775-.893 1.123c0 .347.256.764.893 1.122m-.49.872C4.62 16.227 4 15.542 4 14.673c0-.87.621-1.555 1.402-1.994c.797-.449 1.864-.71 3.015-.71c1.152 0 2.219.261 3.016.71c.78.439 1.402 1.124 1.402 1.994c0 .869-.621 1.554-1.402 1.994c-.797.448-1.864.71-3.016.71c-1.15 0-2.218-.262-3.015-.71" clip-rule="evenodd"/><path fill-rule="evenodd" d="M8.417 10.5a.5.5 0 0 1 .5.5v1.47a.5.5 0 0 1-1 0V11a.5.5 0 0 1 .5-.5m2.057.255a.5.5 0 0 1 .392.588l-.244 1.224a.5.5 0 0 1-.981-.196l.245-1.224a.5.5 0 0 1 .588-.392m-4.114 0a.5.5 0 0 0-.392.588l.245 1.224a.5.5 0 1 0 .98-.196l-.244-1.224a.5.5 0 0 0-.588-.392m-2.118.795a.5.5 0 0 0-.172.687l.735 1.224a.5.5 0 1 0 .857-.515l-.734-1.224a.5.5 0 0 0-.686-.171m8.349-.001a.5.5 0 0 1 .172.687l-.735 1.224a.5.5 0 1 1-.857-.515l.734-1.224a.5.5 0 0 1 .686-.171" clip-rule="evenodd"/><path d="M8.42 13.4a1.25 1.25 0 1 1 0 2.5a1.25 1.25 0 0 1 0-2.5"/><path fill-rule="evenodd" d="M7.67 14.65a.75.75 0 1 0 1.5 0a.75.75 0 0 0-1.5 0m.75 1.75a1.75 1.75 0 1 1 0-3.5a1.75 1.75 0 0 1 0 3.5" clip-rule="evenodd"/><path d="M4.15 4.878a.514.514 0 0 1 .728-.727l16.971 16.971a.514.514 0 0 1-.727.727z"/><path fill-rule="evenodd" d="M13 24.5c6.351 0 11.5-5.149 11.5-11.5S19.351 1.5 13 1.5S1.5 6.649 1.5 13S6.649 24.5 13 24.5m0 1c6.904 0 12.5-5.596 12.5-12.5S19.904.5 13 .5S.5 6.096.5 13S6.096 25.5 13 25.5" clip-rule="evenodd"/></g></svg>