<svg xmlns="http://www.w3.org/2000/svg" width="1em" height="1em" viewBox="0 0 20 20"><g fill="currentColor" fill-rule="evenodd" clip-rule="evenodd"><path d="M6.175 2.5a.5.5 0 0 1 .5-.5h6.643a.5.5 0 0 1 .5.5v3.875a.5.5 0 0 1-.5.5H6.675a.5.5 0 0 1-.5-.5zm1 .5v2.875h5.643V3z"/><path d="M4.5 17V5h2V4h-2a1 1 0 0 0-1 1v12a1 1 0 0 0 1 1h7.854a4.02 4.02 0 0 1-.819-1zm11-5.97c.35.045.685.133 1 .26V5a1 1 0 0 0-1-1h-2v1h2z"/><path d="M15 18a3 3 0 1 0 0-6a3 3 0 0 0 0 6m0 1a4 4 0 1 0 0-8a4 4 0 0 0 0 8"/><path d="M16.582 13.882a.5.5 0 0 1 .078.703l-1.106 1.382a1 1 0 0 1-1.488.082l-.696-.695a.5.5 0 0 1 .708-.707l.696.695l1.105-1.382a.5.5 0 0 1 .703-.078"/></g></svg>