<svg xmlns="http://www.w3.org/2000/svg" width="1em" height="1em" viewBox="0 0 26 26"><g fill="none"><defs><mask id="pepiconsPencilContractCircleFilled0"><path fill="#fff" d="M0 0h26v26H0z"/><g fill="#000"><path d="M8.354 18.354a.5.5 0 0 1-.708-.708l4-4a.5.5 0 0 1 .708.708z"/><path d="M12.5 18a.5.5 0 0 1-1 0v-4a.5.5 0 0 1 1 0z"/><path d="M8 14.5a.5.5 0 0 1 0-1h4a.5.5 0 0 1 0 1zm6.354-2.146a.5.5 0 0 1-.708-.708l4-4a.5.5 0 0 1 .708.708z"/><path d="M14 12.5a.5.5 0 0 1 0-1h4a.5.5 0 0 1 0 1z"/><path d="M14.5 12a.5.5 0 0 1-1 0V8a.5.5 0 0 1 1 0z"/></g></mask></defs><circle cx="13" cy="13" r="13" fill="currentColor" mask="url(#pepiconsPencilContractCircleFilled0)"/></g></svg>