<svg xmlns="http://www.w3.org/2000/svg" width="1em" height="1em" viewBox="0 0 26 26"><g fill="none"><defs><mask id="pepiconsPencilDownUpCircleFilled0"><path fill="#fff" d="M0 0h26v26H0z"/><g fill="#000" fill-rule="evenodd" clip-rule="evenodd"><path d="M13.646 10.354a.5.5 0 0 1 0-.708l3-3a.5.5 0 0 1 .708.708l-3 3a.5.5 0 0 1-.708 0"/><path d="M20.354 10.354a.5.5 0 0 1-.708 0l-3-3a.5.5 0 0 1 .708-.708l3 3a.5.5 0 0 1 0 .708"/><path d="M17 7a.5.5 0 0 1 .5.5V17a.5.5 0 0 1-1 0V7.5A.5.5 0 0 1 17 7m-4.646 8.646a.5.5 0 0 1 0 .708l-3 3a.5.5 0 0 1-.708-.708l3-3a.5.5 0 0 1 .708 0"/><path d="M5.646 15.646a.5.5 0 0 1 .708 0l3 3a.5.5 0 0 1-.708.708l-3-3a.5.5 0 0 1 0-.708"/><path d="M9 19a.5.5 0 0 1-.5-.5V9a.5.5 0 0 1 1 0v9.5a.5.5 0 0 1-.5.5"/></g></mask></defs><circle cx="13" cy="13" r="13" fill="currentColor" mask="url(#pepiconsPencilDownUpCircleFilled0)"/></g></svg>