<svg xmlns="http://www.w3.org/2000/svg" width="1em" height="1em" viewBox="0 0 26 26"><g fill="none"><defs><mask id="pepiconsPencilEyeCircleFilled0"><path fill="#fff" d="M0 0h26v26H0z"/><g fill="#000"><path fill-rule="evenodd" d="M13 19c4.658 0 8.5-2.161 8.5-5S17.658 9 13 9c-4.658 0-8.5 2.161-8.5 5s3.842 5 8.5 5m0-9c4.179 0 7.5 1.868 7.5 4c0 2.132-3.321 4-7.5 4s-7.5-1.868-7.5-4c0-2.132 3.321-4 7.5-4" clip-rule="evenodd"/><path d="M12.5 6.5a.5.5 0 0 1 1 0v3a.5.5 0 0 1-1 0zm4.01.402a.5.5 0 0 1 .98.196l-.5 2.5a.5.5 0 0 1-.98-.196zm-7.02 0a.5.5 0 0 0-.98.196l.5 2.5a.5.5 0 0 0 .98-.196zM5.429 8.243a.5.5 0 0 0-.858.514l1.5 2.5a.5.5 0 0 0 .858-.514zm15.142 0a.5.5 0 1 1 .858.514l-1.5 2.5a.5.5 0 1 1-.858-.514zM16 13.5a3 3 0 1 1-6 0a3 3 0 0 1 6 0"/></g></mask></defs><circle cx="13" cy="13" r="13" fill="currentColor" mask="url(#pepiconsPencilEyeCircleFilled0)"/></g></svg>