<svg xmlns="http://www.w3.org/2000/svg" width="1em" height="1em" viewBox="0 0 26 26"><g fill="none"><defs><mask id="pepiconsPencilFastForwardCircleFilled0"><path fill="#fff" d="M0 0h26v26H0z"/><g fill="#000" fill-rule="evenodd" clip-rule="evenodd"><path d="M6.5 17.796L11.981 13L6.5 8.204zm6.14-4.043a1 1 0 0 0 0-1.506L7.159 7.451c-.647-.566-1.659-.106-1.659.753v9.592a1 1 0 0 0 1.659.753z"/><path d="M13.5 17.796L18.981 13L13.5 8.204zm6.14-4.043a1 1 0 0 0 0-1.506l-5.482-4.796c-.646-.566-1.658-.106-1.658.753v9.592a1 1 0 0 0 1.659.753z"/></g></mask></defs><circle cx="13" cy="13" r="13" fill="currentColor" mask="url(#pepiconsPencilFastForwardCircleFilled0)"/></g></svg>