<svg xmlns="http://www.w3.org/2000/svg" width="1em" height="1em" viewBox="0 0 20 20"><g fill="currentColor"><path fill-rule="evenodd" d="M3.5 2.75a.5.5 0 0 0-.5.5v13a.5.5 0 0 0 .5.5h13a.5.5 0 0 0 .5-.5V5.664a.5.5 0 0 0-.146-.353l-2.415-2.415a.5.5 0 0 0-.353-.146zm-1.5.5a1.5 1.5 0 0 1 1.5-1.5h10.586a1.5 1.5 0 0 1 1.06.44l2.415 2.414A1.5 1.5 0 0 1 18 5.664V16.25a1.5 1.5 0 0 1-1.5 1.5h-13a1.5 1.5 0 0 1-1.5-1.5z" clip-rule="evenodd"/><path fill-rule="evenodd" d="M5.5 10.75A1.5 1.5 0 0 1 7 9.25h6a1.5 1.5 0 0 1 1.5 1.5v7h-1v-7a.5.5 0 0 0-.5-.5H7a.5.5 0 0 0-.5.5v7h-1zm.5-6a1.5 1.5 0 0 0 1.5 1.5h4a1.5 1.5 0 0 0 1.5-1.5v-2a.5.5 0 0 0-1 0v2a.5.5 0 0 1-.5.5h-4a.5.5 0 0 1-.5-.5v-2a.5.5 0 0 0-1 0z" clip-rule="evenodd"/><path d="M1.15 1.878a.514.514 0 0 1 .728-.727l16.971 16.971a.514.514 0 0 1-.727.727z"/></g></svg>