<svg xmlns="http://www.w3.org/2000/svg" width="1em" height="1em" viewBox="0 0 26 26"><g fill="currentColor" fill-rule="evenodd" clip-rule="evenodd"><path d="M6.5 5.75a.5.5 0 0 0-.5.5v13a.5.5 0 0 0 .5.5h13a.5.5 0 0 0 .5-.5V8.664a.5.5 0 0 0-.146-.353l-2.415-2.415a.5.5 0 0 0-.353-.146zm-1.5.5a1.5 1.5 0 0 1 1.5-1.5h10.586a1.5 1.5 0 0 1 1.06.44l2.415 2.414A1.5 1.5 0 0 1 21 8.664V19.25a1.5 1.5 0 0 1-1.5 1.5h-13a1.5 1.5 0 0 1-1.5-1.5z"/><path d="M8.5 13.75a1.5 1.5 0 0 1 1.5-1.5h6a1.5 1.5 0 0 1 1.5 1.5v7h-1v-7a.5.5 0 0 0-.5-.5h-6a.5.5 0 0 0-.5.5v7h-1zm.5-6a1.5 1.5 0 0 0 1.5 1.5h4a1.5 1.5 0 0 0 1.5-1.5v-2a.5.5 0 0 0-1 0v2a.5.5 0 0 1-.5.5h-4a.5.5 0 0 1-.5-.5v-2a.5.5 0 0 0-1 0z"/><path d="M13 24.5c6.351 0 11.5-5.149 11.5-11.5S19.351 1.5 13 1.5S1.5 6.649 1.5 13S6.649 24.5 13 24.5m0 1c6.904 0 12.5-5.596 12.5-12.5S19.904.5 13 .5S.5 6.096.5 13S6.096 25.5 13 25.5"/></g></svg>