<svg xmlns="http://www.w3.org/2000/svg" width="1em" height="1em" viewBox="0 0 26 26"><g fill="none"><defs><mask id="pepiconsPencilFloppyDiskCircleFilled0"><path fill="#fff" d="M0 0h26v26H0z"/><g fill="#000" fill-rule="evenodd" clip-rule="evenodd"><path d="M6.5 5.75a.5.5 0 0 0-.5.5v13a.5.5 0 0 0 .5.5h13a.5.5 0 0 0 .5-.5V8.664a.5.5 0 0 0-.146-.353l-2.415-2.415a.5.5 0 0 0-.353-.146zm-1.5.5a1.5 1.5 0 0 1 1.5-1.5h10.586a1.5 1.5 0 0 1 1.06.44l2.415 2.414A1.5 1.5 0 0 1 21 8.664V19.25a1.5 1.5 0 0 1-1.5 1.5h-13a1.5 1.5 0 0 1-1.5-1.5z"/><path d="M8.5 13.75a1.5 1.5 0 0 1 1.5-1.5h6a1.5 1.5 0 0 1 1.5 1.5v7h-1v-7a.5.5 0 0 0-.5-.5h-6a.5.5 0 0 0-.5.5v7h-1zm.5-6a1.5 1.5 0 0 0 1.5 1.5h4a1.5 1.5 0 0 0 1.5-1.5v-2a.5.5 0 0 0-1 0v2a.5.5 0 0 1-.5.5h-4a.5.5 0 0 1-.5-.5v-2a.5.5 0 0 0-1 0z"/></g></mask></defs><circle cx="13" cy="13" r="13" fill="currentColor" mask="url(#pepiconsPencilFloppyDiskCircleFilled0)"/></g></svg>