<svg xmlns="http://www.w3.org/2000/svg" width="1em" height="1em" viewBox="0 0 26 26"><g fill="currentColor"><g fill-rule="evenodd" clip-rule="evenodd"><path d="M7 14a1 1 0 0 1 1-1h10a1 1 0 1 1 0 2H8a1 1 0 0 1-1-1m2-9.5a.5.5 0 0 1 .5.5v5a.5.5 0 0 1-1 0V5a.5.5 0 0 1 .5-.5"/><path d="M9 9.5a.5.5 0 0 1 .5.5v3.5a.5.5 0 0 1-1 0V10a.5.5 0 0 1 .5-.5m8 0a.5.5 0 0 1 .5.5v3.5a.5.5 0 0 1-1 0V10a.5.5 0 0 1 .5-.5"/><path d="M17 4.5a.5.5 0 0 1 .5.5v5a.5.5 0 0 1-1 0V5a.5.5 0 0 1 .5-.5m1.413 16.782a.5.5 0 0 1-.695.13l-9.5-6.5a.5.5 0 0 1 .564-.825l9.5 6.5a.5.5 0 0 1 .13.695"/><path d="M7.587 21.282a.5.5 0 0 0 .695.13l9.5-6.5a.5.5 0 0 0-.564-.825l-9.5 6.5a.5.5 0 0 0-.13.695M17 7H9V6h8zm0 3H9V9h8zM5.5 11a.5.5 0 0 1 .5-.5h3a.5.5 0 0 1 0 1H6a.5.5 0 0 1-.5-.5m11 0a.5.5 0 0 1 .5-.5h3a.5.5 0 0 1 0 1h-3a.5.5 0 0 1-.5-.5"/></g><path d="M4.15 4.878a.514.514 0 0 1 .728-.727l16.971 16.971a.514.514 0 0 1-.727.727z"/><path fill-rule="evenodd" d="M13 24.5c6.351 0 11.5-5.149 11.5-11.5S19.351 1.5 13 1.5S1.5 6.649 1.5 13S6.649 24.5 13 24.5m0 1c6.904 0 12.5-5.596 12.5-12.5S19.904.5 13 .5S.5 6.096.5 13S6.096 25.5 13 25.5" clip-rule="evenodd"/></g></svg>