<svg xmlns="http://www.w3.org/2000/svg" width="1em" height="1em" viewBox="0 0 26 26"><g fill="currentColor"><path fill-rule="evenodd" d="M18.5 8.5h-5.281l-.709-1.24A2.5 2.5 0 0 0 10.34 6H7.5A2.5 2.5 0 0 0 5 8.5V18a2.5 2.5 0 0 0 2.5 2.5h11A2.5 2.5 0 0 0 21 18v-7a2.5 2.5 0 0 0-2.5-2.5m-11 11A1.5 1.5 0 0 1 6 18V8.5A1.5 1.5 0 0 1 7.5 7h2.84a1.5 1.5 0 0 1 1.302.756l.852 1.492a.5.5 0 0 0 .435.252H18.5A1.5 1.5 0 0 1 20 11v7a1.5 1.5 0 0 1-1.5 1.5z" clip-rule="evenodd"/><path d="M4.15 4.878a.514.514 0 0 1 .728-.727l16.971 16.971a.514.514 0 0 1-.727.727z"/><path fill-rule="evenodd" d="M13 24.5c6.351 0 11.5-5.149 11.5-11.5S19.351 1.5 13 1.5S1.5 6.649 1.5 13S6.649 24.5 13 24.5m0 1c6.904 0 12.5-5.596 12.5-12.5S19.904.5 13 .5S.5 6.096.5 13S6.096 25.5 13 25.5" clip-rule="evenodd"/></g></svg>