<svg xmlns="http://www.w3.org/2000/svg" width="1em" height="1em" viewBox="0 0 26 26"><g fill="none"><defs><mask id="pepiconsPencilGridCircleFilled0"><path fill="#fff" d="M0 0h26v26H0z"/><path fill="#000" fill-rule="evenodd" d="M7.5 7.5v4h4v-4zm-.5-1a.5.5 0 0 0-.5.5v5a.5.5 0 0 0 .5.5h5a.5.5 0 0 0 .5-.5V7a.5.5 0 0 0-.5-.5zm7.5 1v4h4v-4zm-.5-1a.5.5 0 0 0-.5.5v5a.5.5 0 0 0 .5.5h5a.5.5 0 0 0 .5-.5V7a.5.5 0 0 0-.5-.5zm-6.5 8v4h4v-4zm-.5-1a.5.5 0 0 0-.5.5v5a.5.5 0 0 0 .5.5h5a.5.5 0 0 0 .5-.5v-5a.5.5 0 0 0-.5-.5zm7.5 1v4h4v-4zm-.5-1a.5.5 0 0 0-.5.5v5a.5.5 0 0 0 .5.5h5a.5.5 0 0 0 .5-.5v-5a.5.5 0 0 0-.5-.5z" clip-rule="evenodd"/></mask></defs><circle cx="13" cy="13" r="13" fill="currentColor" mask="url(#pepiconsPencilGridCircleFilled0)"/></g></svg>