<svg xmlns="http://www.w3.org/2000/svg" width="1em" height="1em" viewBox="0 0 20 20"><g fill="currentColor"><path d="M15.608 3.558c-.39 0-.758.133-1.048.355V2.257A1.751 1.751 0 0 0 11.594 1a1.75 1.75 0 0 0-1.584-1c-.847 0-1.55.6-1.717 1.4A1.781 1.781 0 0 0 7.2 1.024c-.97 0-1.75.79-1.75 1.745v7.293l-.815-1.623c-.29-.59-.88-.945-1.539-.945c-.223 0-.434.045-.635.122a1.712 1.712 0 0 0-.97.979a1.74 1.74 0 0 0 .067 1.378l1.873 3.736v.022l.033.022c.223.39.424.745.603 1.079c.256.467.49.878.724 1.278c.491.823.926 1.39 1.406 1.835c1.17 1.09 2.72 1.556 5.207 1.556c1.985 0 3.58-.9 4.639-2.613c.859-1.39 1.327-3.29 1.327-5.37V5.304a1.75 1.75 0 0 0-1.75-1.745zm.636 7.97c0 1.735-.368 3.492-1.16 4.781c-.77 1.257-1.94 2.08-3.68 2.08c-2.442 0-3.624-.49-4.45-1.257c-.434-.4-.802-.923-1.204-1.59c-.234-.389-.457-.79-.702-1.234c-.19-.344-.39-.7-.625-1.112L2.55 9.461a.597.597 0 0 1 .535-.867a.59.59 0 0 1 .536.333l1.472 2.935a.79.79 0 0 0 .3.334c.079.044.179.078.28.1h.11c.068 0 .135 0 .202-.022a.794.794 0 0 0 .457-.345a.69.69 0 0 0 .1-.289V2.769a.634.634 0 0 1 1.271 0v6.736a.77.77 0 0 0 1.54 0v-7.76a.634.634 0 0 1 1.27 0v7.249a.77.77 0 0 0 1.54 0V2.257a.634.634 0 0 1 1.271 0v7.482a.77.77 0 0 0 1.539 0V5.303a.634.634 0 0 1 1.271 0z"/><path d="M1.15 1.878a.514.514 0 0 1 .728-.727l16.971 16.971a.514.514 0 0 1-.727.727z"/></g></svg>