<svg xmlns="http://www.w3.org/2000/svg" width="1em" height="1em" viewBox="0 0 26 26"><g fill="none"><defs><mask id="pepiconsPencilHeadphoneCircleFilled0"><path fill="#fff" d="M0 0h26v26H0z"/><g fill="#000"><path d="M20.406 17.911a.5.5 0 1 1-.95-.315c.358-1.076.544-2.236.544-3.43c0-4.725-2.971-7.912-7-7.912S6 9.44 6 14.166a10.9 10.9 0 0 0 .544 3.43a.5.5 0 1 1-.95.315A11.9 11.9 0 0 1 5 14.166c0-5.262 3.403-8.912 8-8.912c4.597 0 8 3.65 8 8.912a11.9 11.9 0 0 1-.594 3.745"/><path d="M8.977 20.034a3 3 0 0 1-2.942-3.04v-.022a2.978 2.978 0 0 1 3.018-2.938h.017a1 1 0 0 1 .98 1.014l-.054 4a1 1 0 0 1-1.019.986M17.089 14a3 3 0 0 1 2.942 3.04v.022A2.978 2.978 0 0 1 17.013 20h-.016a1 1 0 0 1-.981-1.014l.054-4A1 1 0 0 1 17.089 14"/></g></mask></defs><circle cx="13" cy="13" r="13" fill="currentColor" mask="url(#pepiconsPencilHeadphoneCircleFilled0)"/></g></svg>