<svg xmlns="http://www.w3.org/2000/svg" width="1em" height="1em" viewBox="0 0 20 20"><g fill="currentColor"><path fill-rule="evenodd" d="M4 5a1.5 1.5 0 0 0-1.5 1.5v7A1.5 1.5 0 0 0 4 15h12a1.5 1.5 0 0 0 1.5-1.5v-7A1.5 1.5 0 0 0 16 5zM1.5 6.5A2.5 2.5 0 0 1 4 4h12a2.5 2.5 0 0 1 2.5 2.5v7A2.5 2.5 0 0 1 16 16H4a2.5 2.5 0 0 1-2.5-2.5z" clip-rule="evenodd"/><path fill-rule="evenodd" d="M9.182 7.818a.5.5 0 0 1 .5-.5h2.727a.5.5 0 0 1 0 1H9.682a.5.5 0 0 1-.5-.5m0 4.092a.5.5 0 0 1 .5-.5h5.454a.5.5 0 1 1 0 1H9.682a.5.5 0 0 1-.5-.5m0-2.728a.5.5 0 0 1 .5-.5h5.454a.5.5 0 0 1 0 1H9.682a.5.5 0 0 1-.5-.5m0 1.364a.5.5 0 0 1 .5-.5h5.454a.5.5 0 1 1 0 1H9.682a.5.5 0 0 1-.5-.5" clip-rule="evenodd"/><path d="M7.773 9.182a1.364 1.364 0 1 1-2.728 0a1.364 1.364 0 0 1 2.728 0"/><path d="M8.045 11.776c0 .688-.732.622-1.636.622c-.904 0-1.636.066-1.636-.623c0-.688.732-1.557 1.636-1.557c.904 0 1.636.87 1.636 1.557"/></g></svg>