<svg xmlns="http://www.w3.org/2000/svg" width="1em" height="1em" viewBox="0 0 26 26"><g fill="none"><defs><mask id="pepiconsPencilLetterCircleFilled0"><path fill="#fff" d="M0 0h26v26H0z"/><g fill="#000" fill-rule="evenodd" clip-rule="evenodd"><path d="M20 7H6a.5.5 0 0 0-.5.5v11a.5.5 0 0 0 .5.5h14a.5.5 0 0 0 .5-.5v-11A.5.5 0 0 0 20 7M6.5 18V8h13v10z"/><path d="m20.324 7.88l-7.045 6a.5.5 0 0 1-.65-.001l-6.956-6A.5.5 0 0 1 6 7h14a.5.5 0 0 1 .324.88M18.642 8H7.345l5.612 4.841z"/></g></mask></defs><circle cx="13" cy="13" r="13" fill="currentColor" mask="url(#pepiconsPencilLetterCircleFilled0)"/></g></svg>