<svg xmlns="http://www.w3.org/2000/svg" width="1em" height="1em" viewBox="0 0 20 20"><g fill="currentColor"><path fill-rule="evenodd" d="M2.5 8a.5.5 0 0 1 .5.5V17h14V8.5a.5.5 0 0 1 1 0v9a.5.5 0 0 1-.5.5h-15a.5.5 0 0 1-.5-.5v-9a.5.5 0 0 1 .5-.5" clip-rule="evenodd"/><path fill-rule="evenodd" d="M3 5.5a.5.5 0 0 1 .5-.5h13a.5.5 0 0 1 .5.5v4.67a.5.5 0 0 1-.223.416l-6.5 4.33a.5.5 0 0 1-.554 0l-6.5-4.33A.5.5 0 0 1 3 10.17zM4 6v3.902l6 3.997l6-3.997V6z" clip-rule="evenodd"/><path fill-rule="evenodd" d="M9.723 2.084a.5.5 0 0 1 .554 0l4.5 3l-.554.832L10 3.101L5.777 5.916l-.554-.832zm7.131 5.062l1 1l-.708.708l-1-1zm-13 .708l-1 1l-.708-.708l1-1zM6.75 8A.25.25 0 0 1 7 7.75h6a.25.25 0 1 1 0 .5H7A.25.25 0 0 1 6.75 8m.5 2a.25.25 0 0 1 .25-.25h5a.25.25 0 1 1 0 .5h-5a.25.25 0 0 1-.25-.25" clip-rule="evenodd"/><path d="M1.15 1.878a.514.514 0 0 1 .728-.727l16.971 16.971a.514.514 0 0 1-.727.727z"/></g></svg>