<svg xmlns="http://www.w3.org/2000/svg" width="1em" height="1em" viewBox="0 0 26 26"><g fill="none"><defs><mask id="pepiconsPencilListCircleFilled0"><path fill="#fff" d="M0 0h26v26H0z"/><g fill="#000"><path d="M9.5 9a1.5 1.5 0 1 1-3 0a1.5 1.5 0 0 1 3 0m0 4a1.5 1.5 0 1 1-3 0a1.5 1.5 0 0 1 3 0m0 4a1.5 1.5 0 1 1-3 0a1.5 1.5 0 0 1 3 0"/><path fill-rule="evenodd" d="M10.5 9.5A.5.5 0 0 1 11 9h8a.5.5 0 0 1 0 1h-8a.5.5 0 0 1-.5-.5m0 4a.5.5 0 0 1 .5-.5h8a.5.5 0 0 1 0 1h-8a.5.5 0 0 1-.5-.5m0 4a.5.5 0 0 1 .5-.5h8a.5.5 0 0 1 0 1h-8a.5.5 0 0 1-.5-.5" clip-rule="evenodd"/></g></mask></defs><circle cx="13" cy="13" r="13" fill="currentColor" mask="url(#pepiconsPencilListCircleFilled0)"/></g></svg>