<svg xmlns="http://www.w3.org/2000/svg" width="1em" height="1em" viewBox="0 0 20 20"><g fill="currentColor"><path fill-rule="evenodd" d="M2 8.5a.5.5 0 0 1 .5-.5h11.308a.5.5 0 0 1 0 1H2.5a.5.5 0 0 1-.5-.5m0-4a.5.5 0 0 1 .5-.5h15a.5.5 0 0 1 0 1h-15a.5.5 0 0 1-.5-.5m0 8a.5.5 0 0 1 .5-.5h15a.5.5 0 0 1 0 1h-15a.5.5 0 0 1-.5-.5m0 4a.5.5 0 0 1 .5-.5h11.308a.5.5 0 0 1 0 1H2.5a.5.5 0 0 1-.5-.5" clip-rule="evenodd"/><path d="M1.15 1.878a.514.514 0 0 1 .728-.727l16.971 16.971a.514.514 0 0 1-.727.727z"/></g></svg>