<svg xmlns="http://www.w3.org/2000/svg" width="1em" height="1em" viewBox="0 0 20 20"><g fill="currentColor" fill-rule="evenodd" clip-rule="evenodd"><path d="M2 4.5a2 2 0 0 1 2-2h11.748a2 2 0 0 1 2 2v7.651a2 2 0 0 1-2 2h-5.374v2.778a.5.5 0 0 1-1 0V14.15H8.5a.5.5 0 0 1 0-1h7.248a1 1 0 0 0 1-1V4.5a1 1 0 0 0-1-1H4a1 1 0 0 0-1 1V7a.5.5 0 0 1-1 0z"/><path d="M5.687 17.59a.5.5 0 0 1 .5-.5h7.374a.5.5 0 1 1 0 1H6.187a.5.5 0 0 1-.5-.5m-.016-8.65a2.693 2.693 0 1 0-2.527 4.756A2.693 2.693 0 0 0 5.67 8.94m-4.524.645a3.693 3.693 0 1 1 1.985 5.199l-1.871 3.52a.5.5 0 0 1-.883-.47l1.87-3.52a3.694 3.694 0 0 1-1.101-4.73"/></g></svg>