<svg xmlns="http://www.w3.org/2000/svg" width="1em" height="1em" viewBox="0 0 20 20"><path fill="currentColor" fill-rule="evenodd" d="M8.275 6.024a5.006 5.006 0 0 1 2.887-3.55c.465-.205.364-.892-.14-.954C6.667.986 2.597 3.88 1.677 8.206c-.977 4.6 1.952 9.12 6.544 10.097c4.592.976 9.107-1.962 10.085-6.562a8.55 8.55 0 0 0 .184-2.047c-.016-.509-.694-.671-.939-.224a5.004 5.004 0 0 1-5.427 2.494a5.005 5.005 0 0 1-3.849-5.94m-5.62 2.39a7.52 7.52 0 0 1 6.618-5.923c-.989.844-1.694 2-1.976 3.325a6.005 6.005 0 0 0 4.62 7.126a6 6 0 0 0 5.446-1.584a7.627 7.627 0 0 1-.035.175c-.863 4.06-4.847 6.653-8.899 5.792c-4.051-.862-6.636-4.85-5.773-8.91" clip-rule="evenodd"/></svg>