<svg xmlns="http://www.w3.org/2000/svg" width="1em" height="1em" viewBox="0 0 20 20"><g fill="currentColor"><path d="M12.75 12a1 1 0 1 1-2 0a1 1 0 0 1 2 0m-3.5 0a1 1 0 1 1-2 0a1 1 0 0 1 2 0"/><path fill-rule="evenodd" d="M10 7a3 3 0 1 0 0-6a3 3 0 0 0 0 6m0-5a2 2 0 1 1 0 4a2 2 0 0 1 0-4m.5 12h-1A1.5 1.5 0 0 0 8 15.5v2A1.5 1.5 0 0 0 9.5 19h1a1.5 1.5 0 0 0 1.5-1.5v-2a1.5 1.5 0 0 0-1.5-1.5M9 15.5a.5.5 0 0 1 .5-.5h1a.5.5 0 0 1 .5.5v2a.5.5 0 0 1-.5.5h-1a.5.5 0 0 1-.5-.5z" clip-rule="evenodd"/><path d="M15.5 3.75a.75.75 0 0 1 0-1.5h2a.75.75 0 0 1 0 1.5zm-13 0a.75.75 0 0 1 0-1.5h2a.75.75 0 0 1 0 1.5z"/><path d="m4.106 3.364l.302-.97l3.698.742l-.302.97zm7.788-.228l.302.97l3.698-.742l-.302-.97z"/><path fill-rule="evenodd" d="M14.5 10.5a4.5 4.5 0 1 0-9 0V13a2 2 0 0 0 2 2h5a2 2 0 0 0 2-2zm-8 0a3.5 3.5 0 1 1 7 0V13a1 1 0 0 1-1 1h-5a1 1 0 0 1-1-1z" clip-rule="evenodd"/></g></svg>