<svg xmlns="http://www.w3.org/2000/svg" width="1em" height="1em" viewBox="0 0 20 20"><g fill="currentColor" fill-rule="evenodd" clip-rule="evenodd"><path d="M13.347 5.616a.5.5 0 0 1 .704.064l3.333 4a.5.5 0 0 1-.768.64l-3.333-4a.5.5 0 0 1 .064-.704"/><path d="M13.347 14.384a.5.5 0 0 1-.064-.704l3.333-4a.5.5 0 1 1 .768.64l-3.333 4a.5.5 0 0 1-.704.064"/><path d="M3.5 9.5h13a.5.5 0 1 1 0 1h-13a.5.5 0 0 1 0-1"/><path d="M6.653 14.384a.5.5 0 0 1-.704-.064l-3.333-4a.5.5 0 0 1 .768-.64l3.333 4a.5.5 0 0 1-.064.704"/><path d="M6.653 5.616a.5.5 0 0 1 .064.704l-3.333 4a.5.5 0 0 1-.768-.64l3.333-4a.5.5 0 0 1 .704-.064M4.5 10a.5.5 0 0 1 .5-.5h8a.5.5 0 0 1 0 1H5a.5.5 0 0 1-.5-.5"/></g></svg>