<svg xmlns="http://www.w3.org/2000/svg" width="1em" height="1em" viewBox="0 0 20 20"><g fill="currentColor"><path fill-rule="evenodd" d="M5.616 6.653a.5.5 0 0 1 .064-.704l4-3.333a.5.5 0 1 1 .64.768l-4 3.333a.5.5 0 0 1-.704-.064" clip-rule="evenodd"/><path fill-rule="evenodd" d="M14.384 6.653a.5.5 0 0 1-.704.064l-4-3.333a.5.5 0 1 1 .64-.768l4 3.333a.5.5 0 0 1 .064.704M10 4.5a.5.5 0 0 1 .5.5v8a.5.5 0 0 1-1 0V5a.5.5 0 0 1 .5-.5m4.384 8.847a.5.5 0 0 1-.064.704l-4 3.333a.5.5 0 0 1-.64-.768l4-3.333a.5.5 0 0 1 .704.064" clip-rule="evenodd"/><path fill-rule="evenodd" d="M5.616 13.347a.5.5 0 0 1 .704-.064l4 3.333a.5.5 0 0 1-.64.768l-4-3.333a.5.5 0 0 1-.064-.704" clip-rule="evenodd"/><path fill-rule="evenodd" d="M10 17a.5.5 0 0 1-.5-.5v-13a.5.5 0 0 1 1 0v13a.5.5 0 0 1-.5.5" clip-rule="evenodd"/><path d="M1.15 1.878a.514.514 0 0 1 .728-.727l16.971 16.971a.514.514 0 0 1-.727.727z"/></g></svg>