<svg xmlns="http://www.w3.org/2000/svg" width="1em" height="1em" viewBox="0 0 26 26"><g fill="none"><defs><mask id="pepiconsPencilNutCircleFilled0"><path fill="#fff" d="M0 0h26v26H0z"/><g fill="#000" fill-rule="evenodd" clip-rule="evenodd"><path d="M17.722 19.744a1.5 1.5 0 0 1-1.302.756H9.58a1.5 1.5 0 0 1-1.302-.756l-3.429-6a1.5 1.5 0 0 1 0-1.488l3.429-6A1.5 1.5 0 0 1 9.58 5.5h6.84a1.5 1.5 0 0 1 1.302.756l3.429 6a1.5 1.5 0 0 1 0 1.488zM16.42 19.5a.5.5 0 0 0 .434-.252l3.428-6a.5.5 0 0 0 0-.496l-3.428-6a.5.5 0 0 0-.434-.252H9.58a.5.5 0 0 0-.434.252l-3.428 6a.5.5 0 0 0 0 .496l3.428 6a.5.5 0 0 0 .434.252z"/><path d="M13 10.5a2.5 2.5 0 1 0 0 5a2.5 2.5 0 0 0 0-5M9.5 13a3.5 3.5 0 1 1 7 0a3.5 3.5 0 0 1-7 0"/></g></mask></defs><circle cx="13" cy="13" r="13" fill="currentColor" mask="url(#pepiconsPencilNutCircleFilled0)"/></g></svg>