<svg xmlns="http://www.w3.org/2000/svg" width="1em" height="1em" viewBox="0 0 26 26"><g fill="currentColor" fill-rule="evenodd" clip-rule="evenodd"><path d="M6.944 14.79a.5.5 0 0 1 .141-.277L17.163 4.435a.5.5 0 0 1 .707 0l3.89 3.89a.5.5 0 0 1 0 .706L11.68 19.11a.5.5 0 0 1-.277.14l-4.595.706a.5.5 0 0 1-.57-.57zm.964.314l-.577 3.76l3.759-.578l9.609-9.608l-3.183-3.182z"/><path d="m18.472 11.173l-3.537-3.53l.707-.708l3.536 3.53z"/><path d="M13 24.5c6.351 0 11.5-5.149 11.5-11.5S19.351 1.5 13 1.5S1.5 6.649 1.5 13S6.649 24.5 13 24.5m0 1c6.904 0 12.5-5.596 12.5-12.5S19.904.5 13 .5S.5 6.096.5 13S6.096 25.5 13 25.5"/></g></svg>