<svg xmlns="http://www.w3.org/2000/svg" width="1em" height="1em" viewBox="0 0 26 26"><g fill="none"><defs><mask id="pepiconsPencilPesoCircleFilled0"><path fill="#fff" d="M0 0h26v26H0z"/><g fill="#000" fill-rule="evenodd" clip-rule="evenodd"><path d="M13.5 5.5h-5v-1h5A4.5 4.5 0 0 1 18 9v1a4.5 4.5 0 0 1-4.5 4.5h-5v-1h5A3.5 3.5 0 0 0 17 10V9a3.5 3.5 0 0 0-3.5-3.5"/><path d="M8.5 4.5A.5.5 0 0 1 9 5v15.5a.5.5 0 0 1-1 0V5a.5.5 0 0 1 .5-.5"/><path d="M5 7.936a.5.5 0 0 1 .5-.5h14a.5.5 0 0 1 0 1h-14a.5.5 0 0 1-.5-.5m0 3a.5.5 0 0 1 .5-.5h14a.5.5 0 0 1 0 1h-14a.5.5 0 0 1-.5-.5"/></g></mask></defs><circle cx="13" cy="13" r="13" fill="currentColor" mask="url(#pepiconsPencilPesoCircleFilled0)"/></g></svg>