<svg xmlns="http://www.w3.org/2000/svg" width="1em" height="1em" viewBox="0 0 20 20"><g fill="currentColor"><path fill-rule="evenodd" d="M10 11a3 3 0 1 0 0-6a3 3 0 0 0 0 6m0-5a2 2 0 1 1 0 4a2 2 0 0 1 0-4" clip-rule="evenodd"/><path fill-rule="evenodd" d="M3 8.123C3 12.125 7.223 19 10 19s7-6.875 7-10.877C17 4.191 13.868 1 10 1S3 4.191 3 8.123m13 0C16 11.643 12.096 18 10 18s-6-6.357-6-9.877C4 4.74 6.688 2 10 2s6 2.74 6 6.123" clip-rule="evenodd"/><path d="M1.15 1.878a.514.514 0 0 1 .728-.727l16.971 16.971a.514.514 0 0 1-.727.727z"/></g></svg>