<svg xmlns="http://www.w3.org/2000/svg" width="1em" height="1em" viewBox="0 0 20 20"><g fill="currentColor"><path d="M11 16.25a1.25 1.25 0 1 1-2.5 0a1.25 1.25 0 0 1 2.5 0"/><path fill-rule="evenodd" d="M9.71 4.065c-.807 0-1.524.24-2.053.614c-.51.36-.825.826-.922 1.308a.75.75 0 1 1-1.47-.297c.186-.922.762-1.696 1.526-2.236c.796-.562 1.82-.89 2.919-.89c2.325 0 4.508 1.535 4.508 3.757c0 1.292-.768 2.376-1.834 3.029a.75.75 0 0 1-.784-1.28c.729-.446 1.118-1.093 1.118-1.749c0-1.099-1.182-2.256-3.008-2.256m0 5.265a.75.75 0 0 1 .75.75v1.502a.75.75 0 1 1-1.5 0V10.08a.75.75 0 0 1 .75-.75" clip-rule="evenodd"/><path fill-rule="evenodd" d="M12.638 8.326a.75.75 0 0 1-.258 1.029l-2.285 1.368a.75.75 0 1 1-.77-1.287l2.285-1.368a.75.75 0 0 1 1.028.258" clip-rule="evenodd"/><path d="M1.15 1.878a.514.514 0 0 1 .728-.727l16.971 16.971a.514.514 0 0 1-.727.727z"/></g></svg>