<svg xmlns="http://www.w3.org/2000/svg" width="1em" height="1em" viewBox="0 0 26 26"><g fill="none"><defs><mask id="pepiconsPencilRadioCircleFilled0"><path fill="#fff" d="M0 0h26v26H0z"/><g fill="#000"><path fill-rule="evenodd" d="M18 10H8a2 2 0 0 0-2 2v6a2 2 0 0 0 2 2h10a2 2 0 0 0 2-2v-6a2 2 0 0 0-2-2M8 9a3 3 0 0 0-3 3v6a3 3 0 0 0 3 3h10a3 3 0 0 0 3-3v-6a3 3 0 0 0-3-3z" clip-rule="evenodd"/><path d="M13 15a2.5 2.5 0 1 1-5 0a2.5 2.5 0 0 1 5 0"/><path fill-rule="evenodd" d="M17.447 4.474a.5.5 0 0 1-.223.67l-10 5a.5.5 0 1 1-.448-.894l10-5a.5.5 0 0 1 .671.224M14 13.65a.35.35 0 0 1 .35-.35h3.3a.35.35 0 1 1 0 .7h-3.3a.35.35 0 0 1-.35-.35m0 1.5a.35.35 0 0 1 .35-.35h3.3a.35.35 0 1 1 0 .7h-3.3a.35.35 0 0 1-.35-.35m0 1.5a.35.35 0 0 1 .35-.35h3.3a.35.35 0 1 1 0 .7h-3.3a.35.35 0 0 1-.35-.35" clip-rule="evenodd"/></g></mask></defs><circle cx="13" cy="13" r="13" fill="currentColor" mask="url(#pepiconsPencilRadioCircleFilled0)"/></g></svg>