<svg xmlns="http://www.w3.org/2000/svg" width="1em" height="1em" viewBox="0 0 20 20"><g fill="currentColor" fill-rule="evenodd" clip-rule="evenodd"><path d="M11.5 5.5a3 3 0 1 0 0 6a3 3 0 0 0 0-6m-4 3a4 4 0 1 1 8 0a4 4 0 0 1-8 0"/><path d="M2.5 4a2 2 0 1 1 4 0v3.272c0 1 .35 1.967.99 2.735l1.394 1.673a.5.5 0 0 1-.768.64l-1.394-1.673A5.272 5.272 0 0 1 5.5 7.272V4a1 1 0 0 0-2 0v3.75a4.5 4.5 0 0 0 .53 2.118l3.411 6.397a.5.5 0 0 1-.882.47l-3.412-6.397A5.5 5.5 0 0 1 2.5 7.75z"/><path d="M8 12a.5.5 0 0 1 .5-.5H11a5.5 5.5 0 0 1 5.5 5.5v2a.5.5 0 0 1-1 0v-2a4.5 4.5 0 0 0-4.5-4.5H8.5A.5.5 0 0 1 8 12m-1 4a.5.5 0 0 1 .5.5V19a.5.5 0 0 1-1 0v-2.5A.5.5 0 0 1 7 16"/></g></svg>