<svg xmlns="http://www.w3.org/2000/svg" width="1em" height="1em" viewBox="0 0 26 26"><g fill="currentColor"><path fill-rule="evenodd" d="M8.5 11.5a3 3 0 1 0 0-6a3 3 0 0 0 0 6m0-5a2 2 0 1 1 0 4a2 2 0 0 1 0-4m0 15a3 3 0 1 0 0-6a3 3 0 0 0 0 6m0-5a2 2 0 1 1 0 4a2 2 0 0 1 0-4" clip-rule="evenodd"/><path d="M19.978 18.782a.5.5 0 0 1-.697.718l-8.876-8.627a.5.5 0 1 1 .697-.717z"/><path d="M10.146 16.146a.5.5 0 0 0 .708.708l9-9a.5.5 0 0 0-.708-.708z"/><path fill-rule="evenodd" d="M13 24.5c6.351 0 11.5-5.149 11.5-11.5S19.351 1.5 13 1.5S1.5 6.649 1.5 13S6.649 24.5 13 24.5m0 1c6.904 0 12.5-5.596 12.5-12.5S19.904.5 13 .5S.5 6.096.5 13S6.096 25.5 13 25.5" clip-rule="evenodd"/></g></svg>