<svg xmlns="http://www.w3.org/2000/svg" width="1em" height="1em" viewBox="0 0 20 20"><g fill="currentColor"><path fill-rule="evenodd" d="M11.558 2.332a3.5 3.5 0 0 0-3.115 0L4.807 4.14C3.707 4.686 2.99 5.75 3 6.935c.016 1.776.207 4.132.949 5.688c.824 1.728 2.8 3.456 4.368 4.625c1.007.75 2.357.75 3.364 0c1.567-1.169 3.544-2.897 4.368-4.626c.742-1.555.933-3.91.949-5.687c.01-1.184-.705-2.25-1.806-2.796zm-3.56-.895a4.5 4.5 0 0 1 4.004 0l3.636 1.806c1.402.697 2.375 2.09 2.36 3.7c-.015 1.783-.2 4.337-1.045 6.11c-.94 1.972-3.103 3.826-4.673 4.997a3.794 3.794 0 0 1-4.56 0c-1.57-1.171-3.733-3.025-4.673-4.997C2.2 11.28 2.017 8.726 2 6.943c-.014-1.61.96-3.003 2.361-3.7z" clip-rule="evenodd"/><path d="m9.505 1.5l3.467 1l3.963 2.368l.496 2.632l-.496 2.5h-6.93a.5.5 0 0 1-.5-.5z"/><path d="M2.57 9.5H9.5a.5.5 0 0 1 .5.5v8.5L5.542 16L3.56 12.5z"/><path d="M1.15 1.878a.514.514 0 0 1 .728-.727l16.971 16.971a.514.514 0 0 1-.727.727z"/></g></svg>