<svg xmlns="http://www.w3.org/2000/svg" width="1em" height="1em" viewBox="0 0 26 26"><g fill="currentColor"><path fill-rule="evenodd" d="M7 5a1.5 1.5 0 0 1 1.5-1.5h9A1.5 1.5 0 0 1 19 5v16a1.5 1.5 0 0 1-1.5 1.5h-9A1.5 1.5 0 0 1 7 21zm1.5-.5A.5.5 0 0 0 8 5v16a.5.5 0 0 0 .5.5h9a.5.5 0 0 0 .5-.5V5a.5.5 0 0 0-.5-.5z" clip-rule="evenodd"/><path fill-rule="evenodd" d="M10.5 6a1 1 0 0 1 1-1h3a1 1 0 1 1 0 2h-3a1 1 0 0 1-1-1" clip-rule="evenodd"/><path d="M4.15 4.878a.514.514 0 0 1 .728-.727l16.971 16.971a.514.514 0 0 1-.727.727z"/><path fill-rule="evenodd" d="M13 24.5c6.351 0 11.5-5.149 11.5-11.5S19.351 1.5 13 1.5S1.5 6.649 1.5 13S6.649 24.5 13 24.5m0 1c6.904 0 12.5-5.596 12.5-12.5S19.904.5 13 .5S.5 6.096.5 13S6.096 25.5 13 25.5" clip-rule="evenodd"/></g></svg>