<svg xmlns="http://www.w3.org/2000/svg" width="1em" height="1em" viewBox="0 0 26 26"><g fill="currentColor"><path fill-rule="evenodd" d="M6.25 12v5a3 3 0 0 0 3 3h7.5a3 3 0 0 0 3-3v-5a3 3 0 0 0-3-3h-7.5a3 3 0 0 0-3 3m3 7a2 2 0 0 1-2-2v-5a2 2 0 0 1 2-2h7.5a2 2 0 0 1 2 2v5a2 2 0 0 1-2 2z" clip-rule="evenodd"/><path d="m12.86 8.688l2-2.5c.416-.52 1.197.104.78.624l-2 2.5c-.416.52-1.197-.104-.78-.624"/><path d="m11.86 9.312l-2-2.5c-.417-.52.364-1.145.78-.624l2 2.5c.417.52-.364 1.145-.78.624M4.15 4.878a.514.514 0 0 1 .728-.727l16.971 16.971a.514.514 0 0 1-.727.727z"/><path fill-rule="evenodd" d="M13 24.5c6.351 0 11.5-5.149 11.5-11.5S19.351 1.5 13 1.5S1.5 6.649 1.5 13S6.649 24.5 13 24.5m0 1c6.904 0 12.5-5.596 12.5-12.5S19.904.5 13 .5S.5 6.096.5 13S6.096 25.5 13 25.5" clip-rule="evenodd"/></g></svg>