<svg xmlns="http://www.w3.org/2000/svg" width="1em" height="1em" viewBox="0 0 26 26"><g fill="currentColor"><path d="M11.5 17.999a.5.5 0 1 1-1 0v-6a.5.5 0 0 1 1 0zm2 0a.5.5 0 1 1-1 0v-6a.5.5 0 0 1 1 0zm2 0a.5.5 0 1 1-1 0v-6a.5.5 0 0 1 1 0zm-1-10.5h-3a1.501 1.501 0 0 1 3-.001z"/><path d="M7.5 7.999a.5.5 0 1 1 0-1h11a.5.5 0 0 1 0 1z"/><path fill-rule="evenodd" d="M17.5 8.5h-9A.5.5 0 0 0 8 9v11a.5.5 0 0 0 .5.5h9a.5.5 0 0 0 .5-.5V9a.5.5 0 0 0-.5-.5M9 19.5v-10h8v10z" clip-rule="evenodd"/><path fill-rule="evenodd" d="M13 24.5c6.351 0 11.5-5.149 11.5-11.5S19.351 1.5 13 1.5S1.5 6.649 1.5 13S6.649 24.5 13 24.5m0 1c6.904 0 12.5-5.596 12.5-12.5S19.904.5 13 .5S.5 6.096.5 13S6.096 25.5 13 25.5" clip-rule="evenodd"/></g></svg>