<svg xmlns="http://www.w3.org/2000/svg" width="1em" height="1em" viewBox="0 0 26 26"><g fill="currentColor"><path fill-rule="evenodd" d="M13 9a4 4 0 1 0 0 8a4 4 0 0 0 0-8m-5 4a5 5 0 1 1 10 0a5 5 0 0 1-10 0" clip-rule="evenodd"/><path fill-rule="evenodd" d="M13 11a.5.5 0 0 1 .5.5V13a.5.5 0 0 1-1 0v-1.5a.5.5 0 0 1 .5-.5" clip-rule="evenodd"/><path fill-rule="evenodd" d="M15 13a.5.5 0 0 1-.5.5H13a.5.5 0 0 1 0-1h1.5a.5.5 0 0 1 .5.5m-4-7.5a.5.5 0 0 1 .5-.5h3a.5.5 0 0 1 0 1h-3a.5.5 0 0 1-.5-.5" clip-rule="evenodd"/><path fill-rule="evenodd" d="M11.637 5.02a.5.5 0 0 1 .344.617l-1 3.5a.5.5 0 0 1-.962-.274l1-3.5a.5.5 0 0 1 .618-.344m0 15.961a.5.5 0 0 0 .344-.617l-1-3.5a.5.5 0 0 0-.962.274l1 3.5a.5.5 0 0 0 .618.344m2.726-.001a.5.5 0 0 1-.344-.617l1-3.5a.5.5 0 0 1 .962.274l-1 3.5a.5.5 0 0 1-.618.344m0-15.961a.5.5 0 0 0-.344.617l1 3.5a.5.5 0 0 0 .962-.274l-1-3.5a.5.5 0 0 0-.618-.344" clip-rule="evenodd"/><path fill-rule="evenodd" d="M11 20.5a.5.5 0 0 1 .5-.5h3a.5.5 0 0 1 0 1h-3a.5.5 0 0 1-.5-.5" clip-rule="evenodd"/><path d="M4.15 4.878a.514.514 0 0 1 .728-.727l16.971 16.971a.514.514 0 0 1-.727.727z"/><path fill-rule="evenodd" d="M13 24.5c6.351 0 11.5-5.149 11.5-11.5S19.351 1.5 13 1.5S1.5 6.649 1.5 13S6.649 24.5 13 24.5m0 1c6.904 0 12.5-5.596 12.5-12.5S19.904.5 13 .5S.5 6.096.5 13S6.096 25.5 13 25.5" clip-rule="evenodd"/></g></svg>