<svg xmlns="http://www.w3.org/2000/svg" width="1em" height="1em" viewBox="0 0 20 20"><g fill="currentColor"><g fill-rule="evenodd" clip-rule="evenodd"><path d="M7.058 10.856a.603.603 0 0 0-.439-.667a.49.49 0 0 0-.603.42l.52.125l-.52-.125v.003l-.001.004l-.002.01a1.738 1.738 0 0 0-.013.14a3.15 3.15 0 0 0-.004.354c.013.283.068.681.256 1.078c.187.395.457.688.665.876a3.074 3.074 0 0 0 .389.298l.009.005l.003.002l.002.001l.234-.482l-.233.483a.49.49 0 0 0 .706-.202a.603.603 0 0 0-.24-.764h.001l.002.002l-.008-.005a1.919 1.919 0 0 1-.214-.167a1.616 1.616 0 0 1-.38-.491a1.62 1.62 0 0 1-.138-.61a1.977 1.977 0 0 1 .007-.277z"/><path d="M13.327 1.641c.54.27.302.751.05 1.257c-.274.554-.564 1.138.146 1.504a7.133 7.133 0 1 1-9.61 3.066c1.07-2.073 4.102-5.059 8.917-5.763c.163-.024.329-.045.496-.064M12.311 2.81C8.224 3.626 5.686 6.213 4.8 7.927a6.133 6.133 0 1 0 8.263-2.636a1.869 1.869 0 0 1-.736-.649a1.605 1.605 0 0 1-.248-.914c.009-.345.124-.673.232-.919"/></g><path d="M1.15 1.878a.514.514 0 0 1 .728-.727l16.971 16.971a.514.514 0 0 1-.727.727z"/></g></svg>