<svg xmlns="http://www.w3.org/2000/svg" width="1em" height="1em" viewBox="0 0 32 32"><path fill="currentColor" d="M9.403 9.957L9.4 20.78h2.818l-.072-7.327l8.28 10.513l2.228 2.83l-.018-1.573l-.029-14.179h-2.774l.072 7.386L9.577 5.306l-.173-.22v3.948l-.004.92zM16 32C7.163 32 0 24.837 0 16S7.163 0 16 0s16 7.163 16 16s-7.163 16-16 16"/><path fill="currentColor" d="m9.403 9.957l11.024 14.01l-8.281-10.514l.072 7.327H9.4zm0-.923l.001-3.947l.173.219l-.161-.204zm10.502 9.396l-.072-7.386h2.774l.03 14.18l-.038-3.37z" opacity=".398"/></svg>