<svg xmlns="http://www.w3.org/2000/svg" width="1em" height="1em" viewBox="0 0 32 32"><g fill="currentColor" fill-rule="evenodd"><path d="M16 32C7.163 32 0 24.837 0 16S7.163 0 16 0s16 7.163 16 16s-7.163 16-16 16M6 10.23l10 5.704l10-5.704l-5-2.8l-5.004 2.872L11 7.432zm0 9l10 5.704l10-5.704l-5-2.8l-5 2.874l-5-2.871l-5 2.798z"/><g fill-rule="nonzero"><path fill-opacity=".604" d="m11 22.119l5-2.82v5.635zm0-9l5-2.82v5.635z"/><path fill-opacity=".299" d="m26 19.23l-5 2.886V16.43zm0-9l-5 2.886V7.43z"/><path fill-opacity=".197" d="M11 22.116v-5.683l5 2.87zm0-9V7.433l5 2.87z"/><path fill-opacity=".404" d="m21 22.116l-5 2.818v-5.63zm0-9l-5 2.818v-5.63z"/><path fill-opacity=".5" d="M11 16.433v5.683l-5-2.885zm0-9v5.683l-5-2.885z"/></g></g></svg>