<svg xmlns="http://www.w3.org/2000/svg" width="1em" height="1em" viewBox="0 0 32 32"><path fill="currentColor" fill-rule="evenodd" d="M16 32C7.163 32 0 24.837 0 16S7.163 0 16 0s16 7.163 16 16s-7.163 16-16 16m-1.78-16.411a1.507 1.507 0 1 0 0-3.014a1.507 1.507 0 0 0 0 3.014m3.698 0a1.507 1.507 0 1 0 0-3.014a1.507 1.507 0 0 0 0 3.014m-3.699 3.699a1.507 1.507 0 1 0 0-3.014a1.507 1.507 0 0 0 0 3.014m3.699 0a1.507 1.507 0 1 0 0-3.014a1.507 1.507 0 0 0 0 3.014m3.698-4.11a1.096 1.096 0 1 0 0-2.192a1.096 1.096 0 0 0 0 2.192m0 3.699a1.096 1.096 0 1 0 0-2.192a1.096 1.096 0 0 0 0 2.192m-11.232-3.699a1.096 1.096 0 1 0 0-2.192a1.096 1.096 0 0 0 0 2.192m0 3.699a1.096 1.096 0 1 0 0-2.192a1.096 1.096 0 0 0 0 2.192m3.835 3.698a1.096 1.096 0 1 0 0-2.191a1.096 1.096 0 0 0 0 2.191m3.699 0a1.096 1.096 0 1 0 0-2.191a1.096 1.096 0 0 0 0 2.191M14.219 11.48a1.096 1.096 0 1 0 0-2.191a1.096 1.096 0 0 0 0 2.191m3.699 0a1.096 1.096 0 1 0 0-2.191a1.096 1.096 0 0 0 0 2.191m-3.699-4.11a.685.685 0 1 0 0-1.369a.685.685 0 0 0 0 1.37zm3.699 0a.685.685 0 1 0 0-1.369a.685.685 0 0 0 0 1.37zm7.397 7.398a.685.685 0 1 0 0-1.37a.685.685 0 0 0 0 1.37m0 3.699a.685.685 0 1 0 0-1.37a.685.685 0 0 0 0 1.37m-18.63-3.699a.685.685 0 1 0 0-1.37a.685.685 0 0 0 0 1.37m0 3.699a.685.685 0 1 0 0-1.37a.685.685 0 0 0 0 1.37M14.219 26a.685.685 0 1 0 0-1.37a.685.685 0 0 0 0 1.37m3.699 0a.685.685 0 1 0 0-1.37a.685.685 0 0 0 0 1.37"/></svg>