<svg xmlns="http://www.w3.org/2000/svg" width="1em" height="1em" viewBox="0 0 32 32"><path fill="currentColor" d="M16 32C7.163 32 0 24.837 0 16S7.163 0 16 0s16 7.163 16 16s-7.163 16-16 16m-.028-28C9.372 4 4 9.372 4 15.972s5.372 11.982 11.982 11.982c6.609 0 11.981-5.372 11.981-11.982C27.963 9.363 22.582 4 15.973 4zm0 23.03c-6.092 0-11.058-4.956-11.058-11.058C4.924 9.88 9.88 4.923 15.972 4.923c6.093 0 11.059 4.957 11.059 11.059c0 6.092-4.957 11.049-11.059 11.049zM9.774 10.658l4.686 4.686l.882-.881l-4.687-4.687zm6.818 6.82l4.686 4.687l.882-.882l-4.687-4.686zm-1.496-1.502l.888.888l.881-.881l-.887-.888zm1.509-1.474l.881.88l4.687-4.686l-.882-.88zM9.808 21.29l.88.881l4.687-4.686l-.881-.881z"/></svg>