<svg xmlns="http://www.w3.org/2000/svg" width="1em" height="1em" viewBox="0 0 32 32"><path fill="currentColor" d="M16 0c8.837 0 16 7.163 16 16s-7.163 16-16 16S0 24.837 0 16S7.163 0 16 0m0 23.412c-.874 0-1.583.691-1.583 1.544c0 .853.709 1.544 1.583 1.544c.875 0 1.583-.691 1.583-1.544c0-.853-.708-1.544-1.583-1.544m3.958-2.213c-.874 0-1.583.69-1.583 1.544c0 .852.709 1.544 1.583 1.544c.875 0 1.584-.692 1.584-1.544c0-.853-.71-1.544-1.584-1.544m-8.391.36c-.7 0-1.267.553-1.267 1.235s.567 1.235 1.267 1.235s1.266-.553 1.266-1.235s-.567-1.235-1.266-1.235m12.35-2.677c-.875 0-1.584.692-1.584 1.545c0 .852.71 1.544 1.584 1.544c.874 0 1.583-.692 1.583-1.544c0-.853-.709-1.545-1.583-1.545m-7.917.31c-.7 0-1.267.552-1.267 1.235c0 .682.567 1.235 1.267 1.235s1.267-.553 1.267-1.235c0-.683-.567-1.236-1.267-1.236zm-8.761.514a.73.73 0 0 0-.739.72c0 .398.33.721.739.721a.73.73 0 0 0 .739-.72a.73.73 0 0 0-.74-.721zm12.72-2.78c-.7 0-1.267.554-1.267 1.236c0 .682.567 1.235 1.266 1.235c.7 0 1.267-.553 1.267-1.235s-.567-1.235-1.267-1.235zm-8.392.31a.99.99 0 0 0-1.003.977a.99.99 0 0 0 1.003.978a.99.99 0 0 0 1.002-.978a.99.99 0 0 0-1.002-.978zm12.35-2.78c-.875 0-1.584.691-1.584 1.544c0 .853.71 1.544 1.584 1.544c.874 0 1.583-.691 1.583-1.544c0-.853-.709-1.544-1.583-1.544M16 15.022a.99.99 0 0 0-1.003.978a.99.99 0 0 0 1.003.978a.99.99 0 0 0 1.003-.978a.99.99 0 0 0-1.003-.978m-8.761.257A.73.73 0 0 0 6.5 16c0 .398.33.72.739.72a.73.73 0 0 0 .739-.72a.73.73 0 0 0-.74-.72zm12.72-2.625c-.7 0-1.267.553-1.267 1.236c0 .682.567 1.235 1.266 1.235c.7 0 1.267-.553 1.267-1.235c0-.683-.567-1.236-1.267-1.236zm-8.392.258a.99.99 0 0 0-1.003.978a.99.99 0 0 0 1.003.978a.99.99 0 0 0 1.002-.978a.99.99 0 0 0-1.002-.978m12.35-2.883c-.875 0-1.584.692-1.584 1.544c0 .853.71 1.545 1.584 1.545c.874 0 1.583-.692 1.583-1.545c0-.852-.709-1.544-1.583-1.544M16 10.34c-.7 0-1.267.552-1.267 1.235c0 .682.567 1.235 1.267 1.235s1.267-.553 1.267-1.235c0-.683-.567-1.236-1.267-1.236zm-8.761.514a.73.73 0 0 0-.739.72c0 .399.33.721.739.721a.73.73 0 0 0 .739-.72a.73.73 0 0 0-.74-.721zm12.72-3.088c-.875 0-1.584.691-1.584 1.544c0 .853.709 1.544 1.583 1.544c.875 0 1.584-.691 1.584-1.544c0-.853-.71-1.544-1.584-1.544zm-8.392.309c-.7 0-1.267.553-1.267 1.235s.567 1.235 1.267 1.235s1.266-.553 1.266-1.235s-.567-1.235-1.266-1.235M16 5.5c-.874 0-1.583.691-1.583 1.544c0 .853.709 1.544 1.583 1.544c.875 0 1.583-.691 1.583-1.544c0-.853-.708-1.544-1.583-1.544"/></svg>