<svg xmlns="http://www.w3.org/2000/svg" width="1em" height="1em" viewBox="0 0 24 24"><path fill="currentColor" d="m12.707 16.707l4-4a1.004 1.004 0 0 0 0-1.414l-4-4a1 1 0 0 0-1.414 1.414L13.586 11H8a1 1 0 0 0 0 2h5.586l-2.293 2.293a1 1 0 0 0 1.414 1.414"/><path fill="currentColor" d="M22 12a10 10 0 1 0-10 10a10.011 10.011 0 0 0 10-10m-10.707 4.707a1 1 0 0 1 0-1.414L13.586 13H8a1 1 0 0 1 0-2h5.586l-2.293-2.293a1 1 0 0 1 1.414-1.414l4 4a1.004 1.004 0 0 1 0 1.414l-4 4a1 1 0 0 1-1.414 0" opacity=".5"/></svg>