<svg xmlns="http://www.w3.org/2000/svg" width="1em" height="1em" viewBox="0 0 48 48"><defs><mask id="ipTAdobeIndesign0"><g fill="none" stroke="#fff" stroke-width="4"><path fill="#555" d="M39 6H9a3 3 0 0 0-3 3v30a3 3 0 0 0 3 3h30a3 3 0 0 0 3-3V9a3 3 0 0 0-3-3Z"/><path stroke-linecap="round" stroke-linejoin="round" d="M16 15v18m16-16v16"/><path stroke-linecap="round" stroke-linejoin="round" d="M28 33c-2.5 0-4-1.6-4-4s1.5-4 4-4h4v8z" clip-rule="evenodd"/></g></mask></defs><path fill="currentColor" d="M0 0h48v48H0z" mask="url(#ipTAdobeIndesign0)"/></svg>