<svg xmlns="http://www.w3.org/2000/svg" width="1em" height="1em" viewBox="0 0 48 48"><defs><mask id="ipTBatteryFull0"><g fill="none"><path fill="#555" stroke="#fff" stroke-linecap="round" stroke-linejoin="round" stroke-width="4" d="M38 14H6a2 2 0 0 0-2 2v16a2 2 0 0 0 2 2h32a2 2 0 0 0 2-2V16a2 2 0 0 0-2-2"/><path fill="#fff" d="M42 20h2a2 2 0 0 1 2 2v4a2 2 0 0 1-2 2h-2z"/><path stroke="#fff" stroke-linecap="round" stroke-linejoin="round" stroke-width="4" d="M13 21v6m6-6v6m6-6v6m6-6v6"/></g></mask></defs><path fill="currentColor" d="M0 0h48v48H0z" mask="url(#ipTBatteryFull0)"/></svg>