<svg xmlns="http://www.w3.org/2000/svg" width="1em" height="1em" viewBox="0 0 48 48"><defs><mask id="ipTBirthdayCake0"><g fill="none"><path fill="#555" d="M8 40h32V24H8z"/><path stroke="#fff" stroke-linecap="round" stroke-linejoin="round" stroke-width="4" d="M40 40H8m32 0H4h4m32 0h4m-4 0V24H8v16"/><path stroke="#fff" stroke-linecap="round" stroke-linejoin="round" stroke-width="4" d="m40 34l-4-2l-4 2l-4-2l-4 2l-4-2l-4 2l-4-2l-4 2m24-10v-9m-8 9v-9m-8 9v-9m16-5V8m-8 2V8m-8 2V8M8 24v16m32-16v16"/></g></mask></defs><path fill="currentColor" d="M0 0h48v48H0z" mask="url(#ipTBirthdayCake0)"/></svg>