<svg xmlns="http://www.w3.org/2000/svg" width="1em" height="1em" viewBox="0 0 48 48"><defs><mask id="ipTBlade0"><g fill="none"><path fill="#555" stroke="#fff" stroke-linecap="round" stroke-linejoin="round" stroke-width="4" d="M8 14v3H6a2 2 0 0 0-2 2v10a2 2 0 0 0 2 2h2v3a2 2 0 0 0 2 2h27a2 2 0 0 0 2-2v-3h3a2 2 0 0 0 2-2V19a2 2 0 0 0-2-2h-3v-3a2 2 0 0 0-2-2H10a2 2 0 0 0-2 2"/><path stroke="#fff" stroke-linecap="round" stroke-linejoin="round" stroke-width="4" d="M12 24h24"/><circle cx="24" cy="24" r="4" fill="#fff"/><path stroke="#fff" stroke-linecap="round" stroke-linejoin="round" stroke-width="4" d="M32 29V19M16 29V19"/></g></mask></defs><path fill="currentColor" d="M0 0h48v48H0z" mask="url(#ipTBlade0)"/></svg>