<svg xmlns="http://www.w3.org/2000/svg" width="1em" height="1em" viewBox="0 0 48 48"><defs><mask id="ipTCamp0"><g fill="none" stroke="#fff" stroke-linecap="round" stroke-linejoin="round" stroke-width="4"><path d="M44 35h-4L24 6.5L8 35H4"/><path fill="#555" d="M24 31c-2.761 0-5 3.582-5 8v2h10v-2c0-4.418-2.239-8-5-8"/><path d="M4 41h40M15 23s5-4 9-4s9 4 9 4m7-17l-2 3l2 3m0-6l2 3l-2 3M7 17l-1 2l1 2m0-4l1 2l-1 2"/></g></mask></defs><path fill="currentColor" d="M0 0h48v48H0z" mask="url(#ipTCamp0)"/></svg>