<svg xmlns="http://www.w3.org/2000/svg" width="1em" height="1em" viewBox="0 0 48 48"><defs><mask id="ipTDataLock0"><g fill="none" stroke="#fff" stroke-linecap="round" stroke-linejoin="round" stroke-width="4"><path fill="#555" d="M39 28v4h-8v-4a4 4 0 0 1 8 0m-13 4h18v12H26z"/><path d="M32 6h6a4 4 0 0 1 4 4v6M16 42h-6a4 4 0 0 1-4-4v-6M22 8v12c0 2.21-4.03 4-9 4s-9-1.79-9-4V8"/><path d="M22 14c0 2.21-4.03 4-9 4s-9-1.79-9-4"/><path fill="#555" d="M22 8c0 2.21-4.03 4-9 4s-9-1.79-9-4s4.03-4 9-4s9 1.79 9 4"/></g></mask></defs><path fill="currentColor" d="M0 0h48v48H0z" mask="url(#ipTDataLock0)"/></svg>