<svg xmlns="http://www.w3.org/2000/svg" width="1em" height="1em" viewBox="0 0 48 48"><defs><mask id="ipTInstagram0"><g fill="none"><path fill="#555" stroke="#fff" stroke-linejoin="round" stroke-width="4" d="M34 6H14a8 8 0 0 0-8 8v20a8 8 0 0 0 8 8h20a8 8 0 0 0 8-8V14a8 8 0 0 0-8-8Z"/><path fill="#555" stroke="#fff" stroke-linejoin="round" stroke-width="4" d="M24 32a8 8 0 1 0 0-16a8 8 0 0 0 0 16Z"/><path fill="#fff" d="M35 15a2 2 0 1 0 0-4a2 2 0 0 0 0 4"/></g></mask></defs><path fill="currentColor" d="M0 0h48v48H0z" mask="url(#ipTInstagram0)"/></svg>