<svg xmlns="http://www.w3.org/2000/svg" width="1em" height="1em" viewBox="0 0 48 48"><defs><mask id="ipTMedicineBottle0"><g fill="none" stroke="#fff" stroke-width="4"><path fill="#555" stroke-linejoin="round" d="M34 10H14a2 2 0 0 0-2 2v30a2 2 0 0 0 2 2h20a2 2 0 0 0 2-2V12a2 2 0 0 0-2-2Z"/><path stroke-linecap="round" d="M12 18h24"/><path stroke-linecap="round" stroke-linejoin="round" d="M12 15v6m24-6v6"/><path fill="#555" stroke-linejoin="round" d="M32 4H16v6h16z"/><path stroke-linecap="round" d="M20 31h8m-4-4v8"/></g></mask></defs><path fill="currentColor" d="M0 0h48v48H0z" mask="url(#ipTMedicineBottle0)"/></svg>