<svg xmlns="http://www.w3.org/2000/svg" width="1em" height="1em" viewBox="0 0 48 48"><defs><mask id="ipTMinusTheTop0"><g fill="none" stroke="#fff" stroke-linecap="round" stroke-linejoin="round" stroke-width="4"><path fill="#555" d="M5 41V21a2 2 0 0 1 2-2h20a2 2 0 0 1 2 2v20a2 2 0 0 1-2 2H7a2 2 0 0 1-2-2"/><path d="M43 7v20a2 2 0 0 1-2 2H31a2 2 0 0 1-2-2v-6a2 2 0 0 0-2-2h-6a2 2 0 0 1-2-2V7a2 2 0 0 1 2-2h20a2 2 0 0 1 2 2"/></g></mask></defs><path fill="currentColor" d="M0 0h48v48H0z" mask="url(#ipTMinusTheTop0)"/></svg>