<svg xmlns="http://www.w3.org/2000/svg" width="1em" height="1em" viewBox="0 0 48 48"><defs><mask id="ipTRailway0"><g fill="none"><path fill="#555" stroke="#fff" stroke-linejoin="round" stroke-width="4" d="M12 6a2 2 0 0 1 2-2h20a2 2 0 0 1 2 2v24a2 2 0 0 1-2 2H14a2 2 0 0 1-2-2z"/><circle cx="18" cy="26" r="2" fill="#fff"/><circle cx="30" cy="26" r="2" fill="#fff"/><path stroke="#fff" stroke-linecap="round" stroke-linejoin="round" stroke-width="4" d="M12 20h24M21 38h6m-9 6h12"/><path stroke="#fff" stroke-linecap="round" stroke-width="4" d="m17 32l-6 12m20-12l6 12"/><path stroke="#fff" stroke-linecap="round" stroke-linejoin="round" stroke-width="4" d="M36 15v10M12 15v10"/></g></mask></defs><path fill="currentColor" d="M0 0h48v48H0z" mask="url(#ipTRailway0)"/></svg>