<svg xmlns="http://www.w3.org/2000/svg" width="1em" height="1em" viewBox="0 0 48 48"><defs><mask id="ipTRopeSkipping0"><g fill="none"><path stroke="#fff" stroke-linecap="round" stroke-linejoin="round" stroke-width="4" d="M10 32V11a7 7 0 1 1 14 0v26a7 7 0 1 0 14 0V16"/><path fill="#555" d="M41 4v12h-6V4z"/><path stroke="#fff" stroke-linecap="round" stroke-linejoin="round" stroke-width="4" d="M32 16h3m9 0h-3m0 0V4h-6v12m6 0h-6"/><path fill="#555" d="M7 44V32h6v12z"/><path stroke="#fff" stroke-linecap="round" stroke-linejoin="round" stroke-width="4" d="M16 32h-3m-9 0h3m0 0v12h6V32m-6 0h6"/></g></mask></defs><path fill="currentColor" d="M0 0h48v48H0z" mask="url(#ipTRopeSkipping0)"/></svg>