<svg xmlns="http://www.w3.org/2000/svg" width="1em" height="1em" viewBox="0 0 48 48"><defs><mask id="ipTServer0"><g fill="none"><path fill="#555" stroke="#fff" stroke-linejoin="round" stroke-width="4" d="M44 4H4v16h40zm0 24H4v16h40z"/><path fill="#fff" d="M13 10h-2a1 1 0 0 0-1 1v2a1 1 0 0 0 1 1h2a1 1 0 0 0 1-1v-2a1 1 0 0 0-1-1m0 24h-2a1 1 0 0 0-1 1v2a1 1 0 0 0 1 1h2a1 1 0 0 0 1-1v-2a1 1 0 0 0-1-1m8-24h-2a1 1 0 0 0-1 1v2a1 1 0 0 0 1 1h2a1 1 0 0 0 1-1v-2a1 1 0 0 0-1-1m0 24h-2a1 1 0 0 0-1 1v2a1 1 0 0 0 1 1h2a1 1 0 0 0 1-1v-2a1 1 0 0 0-1-1"/></g></mask></defs><path fill="currentColor" d="M0 0h48v48H0z" mask="url(#ipTServer0)"/></svg>