<svg xmlns="http://www.w3.org/2000/svg" width="1em" height="1em" viewBox="0 0 48 48"><defs><mask id="ipTShop0"><g fill="none" stroke="#fff" stroke-linecap="round" stroke-linejoin="round" stroke-width="4"><path fill="#555" d="M4 12h40v8l-1.398.84a7 7 0 0 1-7.203 0L34 20l-1.398.84a7 7 0 0 1-7.203 0L24 20l-1.398.84a7 7 0 0 1-7.203 0L14 20l-1.399.84a7 7 0 0 1-7.202 0L4 20z"/><path d="M8 22.489V44h32V22M8 11.822V4h32v8"/><path fill="#555" d="M19 32h10v12H19z"/></g></mask></defs><path fill="currentColor" d="M0 0h48v48H0z" mask="url(#ipTShop0)"/></svg>