<svg xmlns="http://www.w3.org/2000/svg" width="1em" height="1em" viewBox="0 0 48 48"><defs><mask id="ipTWallet0"><g fill="none" stroke="#fff" stroke-width="4"><path stroke-linecap="round" stroke-linejoin="round" d="M17.982 11.969L31.785 4l4.612 7.989z" clip-rule="evenodd"/><path fill="#555" stroke-linejoin="round" d="M4 14a2 2 0 0 1 2-2h36a2 2 0 0 1 2 2v28a2 2 0 0 1-2 2H6a2 2 0 0 1-2-2z"/><path fill="#555" stroke-linejoin="round" d="M35.25 33H44V23h-8.75c-2.9 0-5.25 2.239-5.25 5s2.35 5 5.25 5Z"/><path stroke-linecap="round" d="M44 16.5v24"/></g></mask></defs><path fill="currentColor" d="M0 0h48v48H0z" mask="url(#ipTWallet0)"/></svg>