<svg xmlns="http://www.w3.org/2000/svg" width="1em" height="1em" viewBox="0 0 1024 1024"><path fill="currentColor" fill-opacity=".88" fill-rule="evenodd" d="M101.283 662c-10.652 0-19.53-3.297-26.63-9.89C67.55 645.514 64 637.41 64 627.793c0-9.891 3.653-17.996 10.96-24.315c7.306-6.32 16.422-9.479 27.347-9.479c11.062 0 20.11 3.194 27.143 9.582c7.033 6.389 10.55 14.459 10.55 24.213c0 10.028-3.585 18.236-10.755 24.624c-7.17 6.388-16.49 9.582-27.962 9.582M458 657h-66.969L269.624 471.648c-7.121-10.835-12.052-18.995-14.79-24.48h-.822c1.095 10.422 1.643 26.331 1.643 47.726V657H193V362h71.488l116.888 179.592c5.341 8.092 10.271 16.115 14.79 24.07h.822c-1.095-6.858-1.643-20.367-1.643-40.527V362H458zm244 0H525V362h170.208v54.104h-103.73v65.624h96.527v53.898h-96.527v67.476H702zm258-240.896h-83.953V657h-66.505V416.104H726V362h234z"/></svg>