<svg xmlns="http://www.w3.org/2000/svg" width="1em" height="1em" viewBox="0 0 24 24"><path fill="none" stroke="currentColor" stroke-linecap="round" stroke-linejoin="round" stroke-width="1.5" d="M7.5 20.886c-1.463-.144-2.447-.47-3.182-1.204c-.735-.735-1.06-1.72-1.204-3.182M7.5 3.114c-1.463.144-2.447.47-3.182 1.204c-.735.735-1.06 1.72-1.204 3.182M16.5 3.114c1.463.144 2.447.47 3.182 1.204c.735.735 1.06 1.72 1.204 3.182M16.5 20.886c1.463-.144 2.447-.47 3.182-1.204c.735-.735 1.06-1.72 1.204-3.182M8 10l4 2m-4-2v4l4 2m-4-6l4-2l4 2m-4 2l4-2m-4 2v4m4-6v4l-4 2"/></svg>