<svg xmlns="http://www.w3.org/2000/svg" width="1em" height="1em" viewBox="0 0 24 24"><g fill="none" stroke="currentColor" stroke-linecap="round" stroke-linejoin="round" stroke-width="1.5"><path d="M7.5 20.886c-1.463-.144-2.447-.47-3.182-1.204c-.735-.735-1.06-1.72-1.204-3.182M7.5 3.114c-1.463.144-2.447.47-3.182 1.204c-.735.735-1.06 1.72-1.204 3.182M16.5 3.114c1.463.144 2.447.47 3.182 1.204c.735.735 1.06 1.72 1.204 3.182M16.5 20.886c1.463-.144 2.447-.47 3.182-1.204c.735-.735 1.06-1.72 1.204-3.182"/><path stroke-miterlimit="1" d="M15 12a3 3 0 1 0-6 0a3 3 0 0 0 6 0"/></g></svg>