<svg xmlns="http://www.w3.org/2000/svg" width="1em" height="1em" viewBox="0 0 14 14"><path fill="currentColor" fill-rule="evenodd" d="M1.62.051h9.312c.857 0 1.552.695 1.552 1.552v.077L6.276 4.784L.07 1.68v-.077A1.55 1.55 0 0 1 1.62.051M.07 3.078V7.81c0 .857.694 1.552 1.551 1.552h4.927c.257-.292.622-.51 1.094-.592c.516-.09.926-.481 1.04-.991l.022-.095c.431-1.97 3.237-1.983 3.686-.016l.009.04l.016.07c.016.067.036.131.061.193c.006-.053.009-.107.009-.161V3.078L6.556 6.042a.625.625 0 0 1-.56 0zm9.696 4.84c.183-.837 1.373-.842 1.564-.007l.009.04l.018.077a2.394 2.394 0 0 0 1.921 1.812c.873.152.873 1.404 0 1.556a2.395 2.395 0 0 0-1.925 1.827l-.023.103c-.19.834-1.381.83-1.564-.007l-.02-.088a2.38 2.38 0 0 0-1.917-1.836c-.871-.152-.871-1.402 0-1.553a2.38 2.38 0 0 0 1.915-1.827l.014-.064z" clip-rule="evenodd"/></svg>