<svg xmlns="http://www.w3.org/2000/svg" width="1em" height="1em" viewBox="0 0 14 14"><path fill="currentColor" fill-rule="evenodd" d="M9.805.745c.18-.825 1.356-.83 1.544-.006l.009.038l.017.075c.21.895.935 1.58 1.843 1.738c.861.15.861 1.386 0 1.536c-.912.159-1.64.85-1.846 1.752l-.023.099c-.188.824-1.363.819-1.544-.007l-.018-.084a2.283 2.283 0 0 0-1.84-1.761c-.86-.15-.86-1.384 0-1.534A2.283 2.283 0 0 0 9.785.84l.014-.063zM7.771 5.142C6.429 4.91 5.987 3.541 6.444 2.56a.888.888 0 0 0-.622-.256h-.73a.89.89 0 0 0-.827.569l-.382.987l-1.316.747l-1.05-.16a.89.89 0 0 0-.889.435l-.355.623a.89.89 0 0 0 .07 1.005l.668.827V8.83l-.65.827a.89.89 0 0 0-.07 1.004l.355.623a.89.89 0 0 0 .89.435l1.049-.16l1.298.747l.382.988a.889.889 0 0 0 .827.569h.747a.89.89 0 0 0 .827-.57l.383-.987l1.298-.746l1.05.16a.888.888 0 0 0 .889-.436l.355-.623a.89.89 0 0 0-.07-1.004l-.668-.827V7.503c-.522-.198-.96-.636-1.107-1.312l-.019-.085a1.25 1.25 0 0 0-1.006-.964M5.457 9.94a1.858 1.858 0 1 0 0-3.715a1.858 1.858 0 0 0 0 3.715" clip-rule="evenodd"/></svg>