<svg xmlns="http://www.w3.org/2000/svg" width="1em" height="1em" viewBox="0 0 14 14"><path fill="currentColor" fill-rule="evenodd" d="M.219 1.28A.75.75 0 0 1 1.279.219l3.43 3.43l-.028-.193a3.185 3.185 0 0 1 .652-2.435a2.123 2.123 0 0 1 3.333 0c.543.688.779 1.568.652 2.435L9.114 4.85l4.117 2.088a1.062 1.062 0 0 1-.714 1.982L9.24 8.18l4.54 4.54a.75.75 0 0 1-1.06 1.061L.218 1.28Zm5.19 6.953l5.169 5.168c-.282.37-.796.542-1.273.335l-2.305-1l-2.305 1a1.064 1.064 0 0 1-1.111-1.788l2.04-1.729l-.214-1.986ZM2.99 5.812L5.247 8.07l-3.764.85a1.062 1.062 0 0 1-.714-1.982z" clip-rule="evenodd"/></svg>