<svg xmlns="http://www.w3.org/2000/svg" width="1em" height="1em" viewBox="0 0 14 14"><path fill="currentColor" fill-rule="evenodd" d="M7 0C5.152 0 3.413.361 2.122 1.24C.803 2.14 0 3.548 0 5.5c0 1.92.783 4.023 2.021 5.65C3.256 12.77 5.011 14 7 14c1.988 0 3.744-1.23 4.979-2.85C13.217 9.522 14 7.42 14 5.5c0-1.953-.803-3.361-2.122-4.26C10.587.362 8.848 0 7 0M2.52 4.169a3.262 3.262 0 0 1 2.552.512a.25.25 0 0 1 .062.062a3.262 3.262 0 0 1 .512 2.551a.25.25 0 0 1-.192.192a3.262 3.262 0 0 1-2.55-.512a.25.25 0 0 1-.063-.063a3.261 3.261 0 0 1-.512-2.55a.25.25 0 0 1 .192-.192Zm7.63-.01a3.262 3.262 0 0 1 1.33.01a.25.25 0 0 1 .191.192a3.262 3.262 0 0 1-.512 2.55a.25.25 0 0 1-.063.063a3.262 3.262 0 0 1-2.55.512a.25.25 0 0 1-.192-.192a3.262 3.262 0 0 1 .512-2.55a.25.25 0 0 1 .062-.063a3.262 3.262 0 0 1 1.222-.521Z" clip-rule="evenodd"/></svg>