<svg xmlns="http://www.w3.org/2000/svg" width="1em" height="1em" viewBox="0 0 14 14"><path fill="currentColor" fill-rule="evenodd" d="M6.25 2.284a.75.75 0 1 1 1.5 0a.75.75 0 0 1-1.5 0m3 0a2.25 2.25 0 0 1-1.5 2.122v.872h.75a.75.75 0 0 1 0 1.5h-.75v5.612a4.75 4.75 0 0 0 3.94-3.94H11a.75.75 0 0 1 0-1.5h1.5a.75.75 0 0 1 .75.75a6.25 6.25 0 0 1-12.5 0a.75.75 0 0 1 .75-.75H3a.75.75 0 1 1 0 1.5h-.69a4.75 4.75 0 0 0 3.94 3.94V6.778H5.5a.75.75 0 1 1 0-1.5h.75v-.872a2.25 2.25 0 1 1 3-2.122" clip-rule="evenodd"/></svg>