<svg xmlns="http://www.w3.org/2000/svg" width="1em" height="1em" viewBox="0 0 14 14"><g fill="none" stroke="currentColor" stroke-linecap="round" stroke-linejoin="round"><path d="M1.805 12.584a.977.977 0 0 0 1.791.247l.21-.36m3.112-3.035H5.566l1.444-2.49l1.938-3.342a.977.977 0 0 0-1.69-.98l-.248.427l-.247-.427a.977.977 0 1 0-1.69.98l.808 1.394l-2.574 4.438H1.602a.977.977 0 1 0 0 1.954H7.75"/><path d="m8.939 6.324l1.775 3.113h1.556a.977.977 0 0 1 0 1.954h-.423l.268.461a.977.977 0 1 1-1.69.98L7.939 8.575"/></g></svg>