<svg xmlns="http://www.w3.org/2000/svg" width="1em" height="1em" viewBox="0 0 14 14"><path fill="currentColor" fill-rule="evenodd" d="M7.961 12.5H6.038a.75.75 0 0 0 0 1.5h1.923a.75.75 0 0 0 0-1.5M5.288.75c0 .414.336.75.75.75h1.923a.75.75 0 1 0 0-1.5H6.038a.75.75 0 0 0-.75.75m5.643 11.674a.75.75 0 0 0 .397 1.447a3.64 3.64 0 0 0 2.508-2.424a.75.75 0 1 0-1.432-.446a2.14 2.14 0 0 1-1.473 1.423m-7.862 0a.75.75 0 1 1-.397 1.447a3.64 3.64 0 0 1-2.508-2.424a.75.75 0 0 1 1.432-.446a2.14 2.14 0 0 0 1.473 1.423m-1.57-4.462a.75.75 0 0 1-1.5 0V6.038a.75.75 0 0 1 1.5 0zm11.751.75a.75.75 0 0 1-.75-.75V6.038a.75.75 0 0 1 1.5 0v1.924a.75.75 0 0 1-.75.75M1.596 2.999a.75.75 0 1 1-1.432-.446A3.64 3.64 0 0 1 2.672.129a.75.75 0 1 1 .397 1.447a2.14 2.14 0 0 0-1.473 1.423m11.747.493a.75.75 0 0 1-.939-.493a2.14 2.14 0 0 0-1.473-1.423a.75.75 0 1 1 .397-1.447a3.64 3.64 0 0 1 2.508 2.424a.75.75 0 0 1-.493.939M7.75 4a.75.75 0 0 0-1.5 0v3.5H5a.5.5 0 0 0-.354.854l2 2a.5.5 0 0 0 .708 0l2-2A.5.5 0 0 0 9 7.5H7.75z" clip-rule="evenodd"/></svg>