<svg xmlns="http://www.w3.org/2000/svg" width="1em" height="1em" viewBox="0 0 14 14"><path fill="currentColor" fill-rule="evenodd" d="M7.985 4.146a.625.625 0 0 1 .515-.271H11a.625.625 0 1 1 0 1.25H9.41l1.166 3.031a2.876 2.876 0 1 1-2.2 1.669l-.885 1.062a.622.622 0 0 1-.429.235l-1.2.15A2.875 2.875 0 1 1 3.694 8.21l.547-1.094l-.595-.991H3a.625.625 0 1 1 0-1.25h2.5a.625.625 0 1 1 0 1.25h-.396l.38.635l.009.013l1.59 2.65L8.89 7.257l-.973-2.532a.625.625 0 0 1 .068-.578Zm2.432 7.078l-.539-1.4a1.625 1.625 0 1 0 1.167-.448l.538 1.4a.625.625 0 0 1-1.166.448M9.404 8.591l.005.014a2.873 2.873 0 0 0-.038.026zm-4.4-.204l-.44.88l-.483.968l1.074-.134l.815-.102l-.967-1.612Zm-.438 3.047l-1.488.186a.625.625 0 0 1-.637-.9l.67-1.341A1.623 1.623 0 0 0 1.375 11a1.625 1.625 0 0 0 3.19.434Z" clip-rule="evenodd"/></svg>