<svg xmlns="http://www.w3.org/2000/svg" width="1em" height="1em" viewBox="0 0 14 14"><g fill="none" stroke="currentColor" stroke-linecap="round" stroke-linejoin="round"><path d="m3.021 12.75l-1.914-1.914a2 2 0 0 1-.586-1.414V5.25a1 1 0 0 1 1-1v0a1 1 0 0 1 1 1v3m8.458 4.5l1.914-1.914a2 2 0 0 0 .585-1.414V5.25a1 1 0 0 0-1-1v0a1 1 0 0 0-1 1v3"/><path d="m3.436 10.078l-.707-.707a1 1 0 0 1 1.414-1.414L5.436 9.25a2 2 0 0 1 .585 1.414v2.086m4.543-2.672l.707-.707a1 1 0 0 0-1.414-1.414L8.564 9.25a2 2 0 0 0-.585 1.414v2.086m1.042-7.584c0-1.127-2-3.916-2-3.916s-2 2.79-2 3.916c0 .552.211 1.083.586 1.474c.375.39.884.61 1.414.61c.53 0 1.04-.22 1.415-.61a2.13 2.13 0 0 0 .585-1.474"/></g></svg>