<svg xmlns="http://www.w3.org/2000/svg" width="1em" height="1em" viewBox="0 0 14 14"><path fill="currentColor" fill-rule="evenodd" d="M2.569 1.748c0-.122.095-.204.192-.204h8.478c.097 0 .192.082.192.204v3.416H2.57V1.748ZM2.76.044c-.944 0-1.692.772-1.692 1.704v10.504c0 .931.748 1.704 1.692 1.704h8.478c.944 0 1.692-.772 1.692-1.704V1.748c0-.932-.748-1.704-1.692-1.704zm1.068 8.675a.75.75 0 1 0 0-1.5a.75.75 0 0 0 0 1.5M7 8.72a.75.75 0 1 0 0-1.5a.75.75 0 0 0 0 1.5m3.92-.75a.75.75 0 1 1-1.5 0a.75.75 0 0 1 1.5 0m-7.09 3.974a.75.75 0 1 0 0-1.5a.75.75 0 0 0 0 1.5m3.921-.75a.75.75 0 1 1-1.5 0a.75.75 0 0 1 1.5 0m2.42.75a.75.75 0 1 0 0-1.5a.75.75 0 0 0 0 1.5M8.465 2.802a.625.625 0 1 0 0 1.25h1.419a.625.625 0 1 0 0-1.25z" clip-rule="evenodd"/></svg>