<svg xmlns="http://www.w3.org/2000/svg" width="1em" height="1em" viewBox="0 0 14 14"><path fill="currentColor" fill-rule="evenodd" d="M4.5 1a1 1 0 0 1 1-1h3a1 1 0 0 1 1 1v.5a1 1 0 0 1-1 1h-3a1 1 0 0 1-1-1zm6.25 0h.5a1.5 1.5 0 0 1 1.5 1.5v10a1.5 1.5 0 0 1-1.5 1.5h-8.5a1.5 1.5 0 0 1-1.5-1.5v-10A1.5 1.5 0 0 1 2.75 1h.5v.5A2.25 2.25 0 0 0 5.5 3.75h3a2.25 2.25 0 0 0 2.25-2.25zM5.97 5.948c0-.217.176-.392.393-.392h1.275c.216 0 .392.175.392.392v1.56h1.56c.217 0 .392.176.392.393v1.275a.392.392 0 0 1-.392.392H8.03v1.56a.392.392 0 0 1-.392.393H6.362a.392.392 0 0 1-.392-.393v-1.56H4.41a.392.392 0 0 1-.392-.392V7.9c0-.217.175-.393.392-.393h1.56z" clip-rule="evenodd"/></svg>