<svg xmlns="http://www.w3.org/2000/svg" width="1em" height="1em" viewBox="0 0 14 14"><path fill="currentColor" fill-rule="evenodd" d="M7.883.046a4.368 4.368 0 0 0-4.582 2.717a3.693 3.693 0 0 0-.732 7.184a4.501 4.501 0 0 1 6.726-3.083a2 2 0 0 1 2.583 2.56l-.207.563a3.23 3.23 0 0 0 .015-6.192A4.368 4.368 0 0 0 7.883.046M7 8.986a1.75 1.75 0 1 0 1.132 3.084a.75.75 0 0 1 .971 1.143a3.25 3.25 0 1 1 .102-4.865l.397-.248a.75.75 0 0 1 1.102.894l-.545 1.487a.742.742 0 0 1-.173.279a.744.744 0 0 1-.68.212l-1.433-.247a.75.75 0 0 1-.27-1.375l.238-.15A1.743 1.743 0 0 0 7 8.987Z" clip-rule="evenodd"/></svg>