<svg xmlns="http://www.w3.org/2000/svg" width="1em" height="1em" viewBox="0 0 14 14"><path fill="currentColor" fill-rule="evenodd" d="M5.438 1.608A1.562 1.562 0 1 1 7.75 2.98v1.076c1.304.114 2.498.532 3.42 1.258c1.108.874 1.788 2.17 1.788 3.81v.364H11.52c-.544 0-1.052.273-1.353.726l-.294.441a.375.375 0 0 1-.312.168H4.44a.375.375 0 0 1-.312-.168l-.294-.441a1.625 1.625 0 0 0-1.353-.726H1.042v-.364c0-1.64.68-2.936 1.788-3.81c.922-.726 2.116-1.144 3.42-1.258V2.979a1.562 1.562 0 0 1-.812-1.37Zm-4.396 9.13v1.716a1.5 1.5 0 0 0 1.5 1.5h8.916a1.5 1.5 0 0 0 1.5-1.5v-1.717H11.52a.375.375 0 0 0-.312.168l-.294.441a1.623 1.623 0 0 1-1.353.726H4.44a1.625 1.625 0 0 1-1.353-.726l-.294-.441a.375.375 0 0 0-.312-.168zM4.75 7a.75.75 0 1 0 0 1.5a.75.75 0 0 0 0-1.5m3.75.75a.75.75 0 1 1 1.5 0a.75.75 0 0 1-1.5 0" clip-rule="evenodd"/></svg>