<svg xmlns="http://www.w3.org/2000/svg" width="1em" height="1em" viewBox="0 0 14 14"><g fill="none" stroke="currentColor" stroke-linecap="round" stroke-linejoin="round"><path d="M6 4.74c3.038 0 5.5-.95 5.5-2.12C11.5 1.45 9.038.5 6 .5S.5 1.45.5 2.62C.5 3.79 2.962 4.74 6 4.74m5.5.26V2.62"/><path d="M.5 2.62v6.76c0 1.071 2.048 1.923 4.71 2.091"/><path d="M.5 6c0 1.086 2.155 1.983 4.865 2.074M10.47 6.5V8m-3.03.25l1.3.75m-1.3 2.75l1.3-.75m1.73 2.5V12m3.03-.25L12.2 11m1.3-2.75L12.2 9m-1.73 3a2 2 0 1 0 0-4a2 2 0 0 0 0 4"/></g></svg>