<svg xmlns="http://www.w3.org/2000/svg" width="1em" height="1em" viewBox="0 0 14 14"><path fill="currentColor" fill-rule="evenodd" d="M1.62 1.62a.202.202 0 0 1 .143-.06a.75.75 0 1 0 0-1.5A1.702 1.702 0 0 0 .06 1.763a.75.75 0 0 0 1.5 0c0-.054.022-.105.06-.143m9.867-.81a.75.75 0 0 1 .75-.75a1.702 1.702 0 0 1 1.703 1.703a.75.75 0 0 1-1.5 0a.202.202 0 0 0-.203-.203a.75.75 0 0 1-.75-.75M4.825 3.64a1.185 1.185 0 1 0 0 2.37a1.185 1.185 0 0 0 0-2.37m5.086 1.51L5.15 9.91a.75.75 0 1 1-1.06-1.06l4.76-4.76a.75.75 0 0 1 1.06 1.06Zm-.736 2.84a1.185 1.185 0 1 0 0 2.37a1.185 1.185 0 0 0 0-2.37M.81 11.487a.75.75 0 0 1 .75.75a.202.202 0 0 0 .203.203a.75.75 0 0 1 0 1.5A1.702 1.702 0 0 1 .06 12.237a.75.75 0 0 1 .75-.75m13.13.75a.75.75 0 0 0-1.5 0a.202.202 0 0 1-.203.203a.75.75 0 0 0 0 1.5a1.702 1.702 0 0 0 1.703-1.703M3.87.81a.75.75 0 0 1 .75-.75h.952a.75.75 0 0 1 0 1.5h-.953a.75.75 0 0 1-.75-.75ZM8.427.06a.75.75 0 0 0 0 1.5h.953a.75.75 0 1 0 0-1.5zM3.87 13.19a.75.75 0 0 1 .75-.75h.953a.75.75 0 0 1 0 1.5H4.62a.75.75 0 0 1-.75-.75m4.56-.75a.75.75 0 0 0 0 1.5h.952a.75.75 0 0 0 0-1.5zm4.76-8.57a.75.75 0 0 1 .75.75v.952a.75.75 0 0 1-1.5 0v-.953a.75.75 0 0 1 .75-.75Zm.75 4.558a.75.75 0 0 0-1.5 0v.953a.75.75 0 0 0 1.5 0zM.81 3.87a.75.75 0 0 1 .75.75v.953a.75.75 0 0 1-1.5 0V4.62a.75.75 0 0 1 .75-.75m.75 4.56a.75.75 0 0 0-1.5 0v.952a.75.75 0 0 0 1.5 0z" clip-rule="evenodd"/></svg>