<svg xmlns="http://www.w3.org/2000/svg" width="1em" height="1em" viewBox="0 0 14 14"><path fill="currentColor" fill-rule="evenodd" d="M1.5 7.033a5.5 5.5 0 1 1 6.377 5.431a.067.067 0 0 1-.032-.001a.093.093 0 0 1-.034-.022a.218.218 0 0 1-.061-.158v-1.452a3.629 3.629 0 0 0 2.878-3.55V5.73a.75.75 0 0 0-.75-.75h-.566V3.77a.75.75 0 0 0-1.5 0v1.21H6.188V3.77a.75.75 0 0 0-1.5 0v1.21h-.564a.75.75 0 0 0-.75.75v1.55a3.629 3.629 0 0 0 2.877 3.55v1.453c0 .927.782 1.834 1.865 1.661A7.002 7.002 0 0 0 7 .033a7 7 0 0 0-3.5 13.064a.75.75 0 1 0 .75-1.299A5.497 5.497 0 0 1 1.5 7.033" clip-rule="evenodd"/></svg>