<svg xmlns="http://www.w3.org/2000/svg" width="1em" height="1em" viewBox="0 0 14 14"><path fill="currentColor" fill-rule="evenodd" d="M10.025 2c.435 0 .867.072 1.277.215a1 1 0 0 0 .656-1.89A5.89 5.89 0 0 0 9.954.001a6.77 6.77 0 0 0-5.951 4.19H2a1 1 0 1 0 0 2h1.52a6.62 6.62 0 0 0-.02.81a6.77 6.77 0 0 0 .02.808H2a1 1 0 1 0 0 2h2.003A6.768 6.768 0 0 0 9.996 14a6 6 0 0 0 2.4-.492a1 1 0 0 0-.793-1.836a4 4 0 0 1-1.579.328a4.77 4.77 0 0 1-3.776-2.19H8a1 1 0 1 0 0-2H5.53a4.77 4.77 0 0 1-.03-.768a1.006 1.006 0 0 0 0-.082a4.57 4.57 0 0 1 .03-.768H8a1 1 0 0 0 0-2H6.248A4.768 4.768 0 0 1 10.025 2" clip-rule="evenodd"/></svg>