<svg xmlns="http://www.w3.org/2000/svg" width="1em" height="1em" viewBox="0 0 14 14"><path fill="currentColor" fill-rule="evenodd" d="M1.44.44A1.5 1.5 0 0 1 2.5 0h6a.5.5 0 0 1 .354.146l4 4A.5.5 0 0 1 13 4.5v8a1.5 1.5 0 0 1-1.5 1.5h-9A1.5 1.5 0 0 1 1 12.5v-11c0-.398.158-.78.44-1.06m4.59 5.53a.75.75 0 0 1 0 1.06L4.56 8.5l1.47 1.47a.75.75 0 1 1-1.06 1.06l-2-2a.75.75 0 0 1 0-1.06l2-2a.75.75 0 0 1 1.06 0m1.94 1.06a.75.75 0 0 1 1.06-1.06l2 2a.75.75 0 0 1 0 1.06l-2 2a.75.75 0 1 1-1.06-1.06L9.44 8.5z" clip-rule="evenodd"/></svg>