<svg xmlns="http://www.w3.org/2000/svg" width="1em" height="1em" viewBox="0 0 14 14"><path fill="currentColor" fill-rule="evenodd" d="M3.5 0A1.5 1.5 0 0 0 2 1.5v5.949c.057.045.112.094.164.147l.706.706l.706-.706a2 2 0 0 1 2.828 2.828l-.706.706l.706.706A2 2 0 0 1 6.844 14H12.5a1.5 1.5 0 0 0 1.5-1.5v-8a.5.5 0 0 0-.146-.354l-4-4A.5.5 0 0 0 9.5 0zm2.02 8.48a.75.75 0 0 1 0 1.06l-1.59 1.59l1.59 1.59a.75.75 0 1 1-1.06 1.06l-1.59-1.59l-1.59 1.59a.75.75 0 0 1-1.06-1.06l1.59-1.59L.22 9.54a.75.75 0 1 1 1.06-1.06l1.59 1.59l1.59-1.59a.75.75 0 0 1 1.06 0" clip-rule="evenodd"/></svg>