<svg xmlns="http://www.w3.org/2000/svg" width="1em" height="1em" viewBox="0 0 14 14"><g fill="none" stroke="currentColor" stroke-linecap="round" stroke-linejoin="round"><path d="M6.033 7.92L.852 13.102M7 9.006l-.16.16a2 2 0 0 0-.005 2.815l.332.336m1.188-9.809l3.09 3.09L8.45 9.535a.5.5 0 0 1-.751.051L4.367 6.254a.5.5 0 0 1 .05-.752z"/><path d="M7.936 2.09a.721.721 0 0 1-.17-.263a.538.538 0 0 1-.027-.282a.397.397 0 0 1 .11-.231c.06-.06.14-.099.232-.111l4.357-.406a.56.56 0 0 1 .263.04a.726.726 0 0 1 .403.403a.56.56 0 0 1 .04.263l-.394 4.37a.397.397 0 0 1-.11.23a.397.397 0 0 1-.232.111a.535.535 0 0 1-.274-.025a.718.718 0 0 1-.259-.16l-3.939-3.94Zm2.088 8.488l.451.45m2.35-.45l-.452.45m-2.349 2.074l.451-.452m2.35.452l-.452-.452"/></g></svg>