<svg xmlns="http://www.w3.org/2000/svg" width="1em" height="1em" viewBox="0 0 14 14"><path fill="currentColor" fill-rule="evenodd" d="M9.03.22a.75.75 0 1 0-1.06 1.06l.72.72H6.5a.5.5 0 0 0-.5.5v5a.5.5 0 0 0 .5.5h2.875V3.5a.625.625 0 1 1 1.25 0V8H13.5a.5.5 0 0 0 .5-.5v-5a.5.5 0 0 0-.5-.5h-2.19l.72-.72A.75.75 0 0 0 10.97.22l-.97.97zM1.843 7H0v4l1.828 1.828A4 4 0 0 0 4.657 14H10.5a1.5 1.5 0 0 0 0-3H7.723a2.11 2.11 0 0 1-3.515.892l-1.45-1.45a.625.625 0 1 1 .884-.884l1.45 1.45a.86.86 0 0 0 1.306-1.11L4.672 8.172A4 4 0 0 0 1.843 7" clip-rule="evenodd"/></svg>