<svg xmlns="http://www.w3.org/2000/svg" width="1em" height="1em" viewBox="0 0 14 14"><path fill="currentColor" fill-rule="evenodd" d="M1.315.606a.75.75 0 0 1 .99-.38l8.591 3.828l.361-.795a.75.75 0 0 1 1.386.05l.8 2.16a.75.75 0 0 1-.438.963l-2.15.81a.75.75 0 0 1-.948-1.013l.368-.81l-8.58-3.822a.75.75 0 0 1-.38-.99ZM1.25 5.5a1 1 0 0 0-1 1v7a.5.5 0 0 0 .5.5h2.5a.5.5 0 0 0 .5-.5v-7a1 1 0 0 0-1-1zm4.293 1.793A1 1 0 0 1 6.25 7h1.5a1 1 0 0 1 1 1v5.5a.5.5 0 0 1-.5.5h-2.5a.5.5 0 0 1-.5-.5V8a1 1 0 0 1 .293-.707M11.25 8.5a1 1 0 0 0-1 1v4a.5.5 0 0 0 .5.5h2.5a.5.5 0 0 0 .5-.5v-4a1 1 0 0 0-1-1z" clip-rule="evenodd"/></svg>