<svg xmlns="http://www.w3.org/2000/svg" width="1em" height="1em" viewBox="0 0 14 14"><path fill="currentColor" fill-rule="evenodd" d="M7.311 1.477a.75.75 0 0 1 .092 1.057c-.335.398-.418.793-.374 1.247c.05.501.249 1.038.5 1.695l.017.045c.23.602.504 1.318.575 2.04c.077.786-.083 1.602-.718 2.358a.75.75 0 1 1-1.148-.965c.334-.398.418-.794.373-1.248c-.049-.5-.249-1.037-.5-1.694l-.017-.045c-.23-.603-.504-1.318-.575-2.04c-.077-.787.083-1.603.719-2.359a.75.75 0 0 1 1.056-.09Zm-2.809 1.98a.75.75 0 1 0-1.148-.966c-.593.705-.81 1.401-.715 2.099c.082.602.395 1.123.619 1.495l.027.045c.26.433.41.703.446.97c.026.197 0 .481-.377.93a.75.75 0 0 0 1.148.966c.593-.705.81-1.4.715-2.098c-.082-.603-.395-1.123-.619-1.495l-.027-.045c-.26-.433-.41-.703-.446-.97c-.027-.197 0-.482.377-.931m8.41 3.43a.75.75 0 0 0-1.026 1.093a1.923 1.923 0 0 1 .593 1.191c-.016.504-.419 1.125-1.428 1.666c-.999.535-2.43.89-4.051.89c-1.622 0-3.053-.353-4.052-.886c-1.01-.539-1.412-1.158-1.427-1.662a1.91 1.91 0 0 1 .594-1.199a.75.75 0 0 0-1.027-1.093a3.423 3.423 0 0 0-1.065 2.2a.75.75 0 0 0-.003.062c0 1.332.997 2.362 2.222 3.016c1.256.67 2.94 1.061 4.758 1.061c1.82 0 3.503-.394 4.76-1.067c1.224-.656 2.22-1.689 2.22-3.019a3.41 3.41 0 0 0-1.067-2.253Zm-2.387-3.523a.75.75 0 0 0-1.281-.78c-.429.706-.562 1.357-.5 1.978c.055.566.271 1.063.437 1.445l.016.036c.183.421.305.718.336 1.029c.027.273-.016.603-.29 1.052a.75.75 0 1 0 1.282.779c.429-.705.561-1.356.5-1.977c-.055-.566-.271-1.064-.437-1.445l-.016-.036c-.183-.422-.305-.719-.336-1.03c-.027-.273.016-.602.29-1.051Z" clip-rule="evenodd"/></svg>