<svg xmlns="http://www.w3.org/2000/svg" width="1em" height="1em" viewBox="0 0 14 14"><path fill="currentColor" fill-rule="evenodd" d="M1 1.5A1.5 1.5 0 0 1 2.5 0h9A1.5 1.5 0 0 1 13 1.5v.981H1zm0 2.231V12.5A1.5 1.5 0 0 0 2.5 14h9a1.5 1.5 0 0 0 1.5-1.5V3.731zM3.392 8.5a3.627 3.627 0 0 1 .206-1.202A3.609 3.609 0 1 1 3.392 8.5m1.11-.3a.5.5 0 0 1 .493-.417h.354c.765 0 1.213.187 1.616.354l.06.025c.377.157.758.304 1.511.304h.497a.5.5 0 0 1 .493.582A2.548 2.548 0 0 1 4.502 8.2" clip-rule="evenodd"/></svg>