<svg xmlns="http://www.w3.org/2000/svg" width="1em" height="1em" viewBox="0 0 14 14"><path fill="currentColor" fill-rule="evenodd" d="m7 .5l.4-.3a.5.5 0 0 0-.8 0zm4.717 10.157A4.997 4.997 0 0 0 12 9c0-.74-.324-1.668-.75-2.588c-.433-.94-1.007-1.944-1.575-2.86A51.756 51.756 0 0 0 7.453.273L7.414.218l-.01-.014l-.003-.003V.2L7 .5L6.6.2l-.001.002l-.003.003l-.01.014l-.039.052l-.145.198a52.374 52.374 0 0 0-1.966 2.906L1.28.22A.75.75 0 1 0 .22 1.28l12.5 12.5a.75.75 0 1 0 1.06-1.06zm-8.69-4.82l7.08 7.08A5 5 0 0 1 2 9c0-.74.324-1.668.75-2.588c.087-.19.18-.382.277-.575" clip-rule="evenodd"/></svg>