<svg xmlns="http://www.w3.org/2000/svg" width="1em" height="1em" viewBox="0 0 14 14"><path fill="currentColor" fill-rule="evenodd" d="M12.918 1.623a1.623 1.623 0 1 1-3.246 0a1.623 1.623 0 0 1 3.246 0m1.024 5.037a.75.75 0 0 1-.732.586H7.098a.75.75 0 1 1 0-1.5h1.596A2.706 2.706 0 0 1 14 6.493a.27.27 0 0 1-.058.167M1.359 3.324a1.811 1.811 0 1 0 3.622 0a1.811 1.811 0 0 0-3.622 0M0 9.019a3.17 3.17 0 1 1 6.34 0v.858a.5.5 0 0 1-.5.5h-.86l-.398 3.185a.5.5 0 0 1-.496.438H2.253a.5.5 0 0 1-.496-.438l-.399-3.185H.5a.5.5 0 0 1-.5-.5z" clip-rule="evenodd"/></svg>