<svg xmlns="http://www.w3.org/2000/svg" width="1em" height="1em" viewBox="0 0 14 14"><path fill="currentColor" d="M3.25 10a.75.75 0 1 0 .75.75a.76.76 0 0 0-.75-.75Zm-2 2.5a.75.75 0 1 0 .75.75a.76.76 0 0 0-.75-.75Zm6-2.5a.75.75 0 1 0 .75.75a.76.76 0 0 0-.75-.75ZM5 12.5a.75.75 0 1 0 .75.75a.76.76 0 0 0-.75-.75Zm5.75-2.5a.75.75 0 1 0 .75.75a.76.76 0 0 0-.75-.75ZM9 12.5a.75.75 0 1 0 .75.75a.76.76 0 0 0-.75-.75Zm3.75 0a.75.75 0 1 0 .75.75a.76.76 0 0 0-.75-.75Z"/><path fill="none" stroke="currentColor" stroke-linecap="round" stroke-linejoin="round" d="M11 8a2.5 2.5 0 1 0-.62-4.92a3.5 3.5 0 0 0-6.76 0A2.5 2.5 0 1 0 3 8Z"/></svg>