<svg xmlns="http://www.w3.org/2000/svg" width="1em" height="1em" viewBox="0 0 14 14"><path fill="currentColor" fill-rule="evenodd" d="M7.75 2.306a.75.75 0 0 0-1.5 0v1.127H1.836a.75.75 0 0 0 0 1.5h.32L.196 10.08a.75.75 0 0 0-.049.267a3.097 3.097 0 1 0 6.195 0a.75.75 0 0 0-.05-.267l-1.96-5.147h5.335l-1.96 5.147a.75.75 0 0 0-.049.267a3.097 3.097 0 1 0 6.195 0a.749.749 0 0 0-.05-.267l-1.96-5.147h.32a.75.75 0 0 0 0-1.5H7.75zM4.657 10L3.244 6.29L1.833 10h2.825Zm6.098-3.71L12.168 10H9.343z" clip-rule="evenodd"/></svg>