<svg xmlns="http://www.w3.org/2000/svg" width="1em" height="1em" viewBox="0 0 14 14"><path fill="currentColor" fill-rule="evenodd" d="M3.208.845a9.75 9.75 0 0 1 7.584 0a.75.75 0 0 1-.584 1.382a8.25 8.25 0 0 0-6.416 0A.75.75 0 0 1 3.208.845m1.39 2.08a7.53 7.53 0 0 1 4.843 0a.75.75 0 0 1-.482 1.42a6.03 6.03 0 0 0-3.878 0a.75.75 0 0 1-.482-1.42ZM0 6.97c0-.823.71-1.422 1.5-1.422h11c.79 0 1.5.6 1.5 1.422v5.532c0 .822-.71 1.421-1.5 1.421h-11c-.79 0-1.5-.599-1.5-1.421zm5.5 3.422a.5.5 0 0 0 0 1h3a.5.5 0 1 0 0-1zm-3.5.5a.5.5 0 0 1 .5-.5h1a.5.5 0 0 1 0 1h-1a.5.5 0 0 1-.5-.5m8 0a.5.5 0 0 1 .5-.5h1a.5.5 0 0 1 0 1h-1a.5.5 0 0 1-.5-.5m-7.5-3a.5.5 0 0 0 0 1h1a.5.5 0 1 0 0-1zm2.167.5a.5.5 0 0 1 .5-.5h1a.5.5 0 0 1 0 1h-1a.5.5 0 0 1-.5-.5m3.166-.5a.5.5 0 0 0 0 1h1a.5.5 0 1 0 0-1zm2.167.5a.5.5 0 0 1 .5-.5h1a.5.5 0 0 1 0 1h-1a.5.5 0 0 1-.5-.5" clip-rule="evenodd"/></svg>