<svg xmlns="http://www.w3.org/2000/svg" width="1em" height="1em" viewBox="0 0 14 14"><path fill="currentColor" fill-rule="evenodd" d="M1.75 1.5a.25.25 0 0 0-.25.25v10.489a.53.53 0 0 0 .123.148a.753.753 0 0 0 .179.113H8.25a.25.25 0 0 0 .25-.25v-2.5a.75.75 0 0 1 1.5 0v2.5A1.75 1.75 0 0 1 8.25 14h-6.5a1.44 1.44 0 0 1-.602-.15c-.17-.08-.342-.19-.498-.322c-.289-.246-.65-.686-.65-1.278V1.75C0 .784.784 0 1.75 0H5a.75.75 0 0 1 0 1.5zM10 0a4 4 0 0 0-4 4a4.17 4.17 0 0 0 .32 1.58l-.683 1.6a.2.2 0 0 0 .21.276L7.64 7.23A4 4 0 1 0 10 0m0 1.5a.5.5 0 0 1 .5.5v1.5a.5.5 0 1 1-1 0V2a.5.5 0 0 1 .5-.5m.75 4a.75.75 0 1 0-1.5 0a.75.75 0 0 0 1.5 0M4.5 9.75a.75.75 0 0 0 0 1.5h1a.75.75 0 0 0 0-1.5z" clip-rule="evenodd"/></svg>