<svg xmlns="http://www.w3.org/2000/svg" width="1em" height="1em" viewBox="0 0 14 14"><path fill="currentColor" fill-rule="evenodd" d="M5 .754A.75.75 0 0 0 4.309.29H1.042a.748.748 0 0 0-.75.75v3.266a.75.75 0 0 0 1.28.53l1.103-1.103l2.502 2.503a.75.75 0 0 0 1.06-1.061l-2.5-2.501L4.838 1.57a.75.75 0 0 0 .163-.817Zm1.737 12.525a2.7 2.7 0 0 1-3.37-.36l-.38-.38a.91.91 0 0 1 0-1.28l1.6-1.59a.9.9 0 0 1 1.27 0a.91.91 0 0 0 1.28 0l2.55-2.55a.91.91 0 0 0 0-1.28a.9.9 0 0 1 0-1.27l1.54-1.6a.91.91 0 0 1 1.28 0l.38.38a2.7 2.7 0 0 1 .41 3.37a24.232 24.232 0 0 1-6.56 6.56" clip-rule="evenodd"/></svg>