<svg xmlns="http://www.w3.org/2000/svg" width="1em" height="1em" viewBox="0 0 14 14"><g fill="none" stroke="currentColor" stroke-linecap="round" stroke-linejoin="round"><path d="M8.605 1.595L3.587.515a.49.49 0 0 0-.6.37l-1.36 6.408L.619 12a.49.49 0 0 0 .37.58l1.2.26a.49.49 0 0 0 .58-.38l.999-4.679l3.438.74a3.519 3.519 0 0 0 4.259-3.429a3.588 3.588 0 0 0-2.86-3.498v0Zm-1.36 4.658l-2.998-.65l.55-2.599l2.998.65a1.32 1.32 0 0 1-.56 2.579z"/><path d="m5.146 13.5l.62-2.899l2.999.63c2.239.49 4.598-1.86 4.628-4.288c0-.405-.067-.807-.2-1.19"/></g></svg>