<svg xmlns="http://www.w3.org/2000/svg" width="1em" height="1em" viewBox="0 0 14 14"><path fill="currentColor" fill-rule="evenodd" d="M1.776.076a1.7 1.7 0 0 0-1.7 1.7v1.425a.75.75 0 1 0 1.5 0V1.776a.2.2 0 0 1 .2-.2h1.425a.75.75 0 1 0 0-1.5zm2.22 2.67c-.69 0-1.25.56-1.25 1.25v2.073c0 .69.56 1.25 1.25 1.25h2.073c.69 0 1.25-.56 1.25-1.25V3.996c0-.69-.56-1.25-1.25-1.25zm.25 3.073V4.246h1.573v1.573zM10.049.826a.75.75 0 0 1 .75-.75h1.425a1.7 1.7 0 0 1 1.7 1.7v1.425a.75.75 0 0 1-1.5 0V1.776a.2.2 0 0 0-.2-.2h-1.425a.75.75 0 0 1-.75-.75M1.576 10.8a.75.75 0 0 0-1.5 0v1.425a1.7 1.7 0 0 0 1.7 1.7h1.425a.75.75 0 0 0 0-1.5H1.776a.2.2 0 0 1-.2-.2zm11.598-.75a.75.75 0 0 1 .75.75v1.425a1.7 1.7 0 0 1-1.7 1.7h-1.425a.75.75 0 0 1 0-1.5h1.425a.2.2 0 0 0 .2-.2V10.8a.75.75 0 0 1 .75-.75m-8.928-.86a.75.75 0 0 0-1.5 0v1.314c0 .414.336.75.75.75H4.81a.75.75 0 0 0 0-1.5h-.564zm1.46 0a.75.75 0 0 1 .75-.75H7a.75.75 0 0 1 .75.75v1.314a.75.75 0 0 1-1.5 0v-.593a.75.75 0 0 1-.544-.72ZM9.94 3.496a.75.75 0 1 0-1.5 0V4.81c0 .414.336.75.75.75h1.314a.75.75 0 1 0 0-1.5H9.94zM8.44 7a.75.75 0 0 1 .75-.75h1.314a.75.75 0 0 1 .75.75v.639a.75.75 0 0 1-1.492.111H9.19A.75.75 0 0 1 8.44 7m1.5 2.19a.75.75 0 0 0-1.5 0v1.314c0 .414.336.75.75.75h1.314a.75.75 0 1 0 0-1.5H9.94z" clip-rule="evenodd"/></svg>