<svg xmlns="http://www.w3.org/2000/svg" width="1em" height="1em" viewBox="0 0 14 14"><path fill="currentColor" fill-rule="evenodd" d="M5.626 1.31c.98-1.646 3.337-1.72 4.42-.14l.593.866l.82-.405a.625.625 0 0 1 .859.789l-1.151 2.936a.625.625 0 0 1-.747.375l-3.085-.844a.625.625 0 0 1-.112-1.163l.686-.339l-.561-.88a.375.375 0 0 0-.597-.048L5.628 3.724a.625.625 0 0 1-1.004-.735zm-1.85 3.358a.625.625 0 0 1 .697.459l.812 3.093a.625.625 0 0 1-.951.679l-.637-.425l-.482.927a.375.375 0 0 0 .257.54l1.659.34a.625.625 0 0 1-.134 1.236l-1.956-.027C1.126 11.463-.117 9.46.711 7.732l.453-.948l-.76-.507A.625.625 0 0 1 .656 5.14l3.118-.471Zm3.386 6.552a.625.625 0 0 1 .05-.834l2.272-2.25a.625.625 0 0 1 1.064.485l-.05.763l1.044-.045a.375.375 0 0 0 .34-.494l-.537-1.605a.625.625 0 0 1 1.139-.503l.954 1.708c.934 1.672-.18 3.75-2.09 3.897l-1.047.081l-.059.912a.625.625 0 0 1-1.112.35z" clip-rule="evenodd"/></svg>