<svg xmlns="http://www.w3.org/2000/svg" width="1em" height="1em" viewBox="0 0 14 14"><path fill="none" stroke="currentColor" stroke-linecap="round" stroke-linejoin="round" d="M8.5.67a6.7 6.7 0 0 0-3 0m-1.91.8a7 7 0 0 0-1.19.93a7 7 0 0 0-.93 1.19M.67 5.5a6.7 6.7 0 0 0 0 3m.8 1.91a7 7 0 0 0 .93 1.19c.362.352.76.664 1.19.93m1.91.8a6.702 6.702 0 0 0 3 0m1.91-.8c.43-.266.828-.578 1.19-.93c.352-.362.664-.761.93-1.19m.8-1.91a6.702 6.702 0 0 0 0-3m-.8-1.91a6.997 6.997 0 0 0-.93-1.19a6.995 6.995 0 0 0-1.19-.93"/></svg>