<svg xmlns="http://www.w3.org/2000/svg" width="1em" height="1em" viewBox="0 0 14 14"><path fill="currentColor" fill-rule="evenodd" d="M0 7a7 7 0 1 1 14 0A7 7 0 0 1 0 7m4.083.612c.346.15.61.37.803.631a3.626 3.626 0 0 1 2.127-.683c.896 0 1.613.316 2.11.67c.192-.256.454-.47.794-.618a.625.625 0 1 1 .498 1.146c-.37.16-.6.65-.364 1.297a.625.625 0 1 1-1.174.429a2.725 2.725 0 0 1-.166-.964c-.226-.251-.824-.71-1.698-.71c-.91 0-1.522.499-1.724.741c0 .317-.058.637-.166.933a.625.625 0 0 1-1.174-.43c.236-.646.006-1.135-.364-1.296a.625.625 0 1 1 .498-1.146m.499-1.61a1.024 1.024 0 0 1 .002-2.05h.003a1.025 1.025 0 0 1-.003 2.05zm4.831 0a1.025 1.025 0 0 1 .003-2.05h.002a1.024 1.024 0 0 1-.002 2.05z" clip-rule="evenodd"/></svg>