<svg xmlns="http://www.w3.org/2000/svg" width="1em" height="1em" viewBox="0 0 14 14"><path fill="currentColor" fill-rule="evenodd" d="M0 7a7 7 0 1 1 14 0A7 7 0 0 1 0 7m3.56-2.324c0 .565.457 1.024 1.022 1.025h.002a1.025 1.025 0 0 0 .003-2.049h-.003c-.565 0-1.024.459-1.024 1.024m4.831 0c0 .565.457 1.024 1.022 1.025h.003a1.024 1.024 0 0 0 .002-2.049h-.002c-.566 0-1.025.459-1.025 1.024M7.364 6.39a.625.625 0 1 0-.266 1.222l.447.097c.19.041.249.285.098.408l-.37.3a.625.625 0 0 0 0 .97l.37.3a.233.233 0 0 1-.098.407l-.447.097a.625.625 0 0 0 .266 1.222l.446-.097c1.125-.245 1.526-1.594.813-2.414c.713-.821.312-2.17-.813-2.415z" clip-rule="evenodd"/></svg>