<svg xmlns="http://www.w3.org/2000/svg" width="1em" height="1em" viewBox="0 0 14 14"><path fill="currentColor" fill-rule="evenodd" d="M14 7A7 7 0 1 0 0 7a7 7 0 0 0 14 0M8.26 2.4c-.051.04-.195.117-.45.18a3.45 3.45 0 0 1-1.617 0c-.255-.063-.4-.14-.45-.18a.625.625 0 0 0-.792.966c.26.213.611.345.94.427a4.698 4.698 0 0 0 2.22 0c.33-.082.681-.214.94-.427a.625.625 0 1 0-.791-.967Zm.756 6.877c0-1.143-.865-2.14-2.013-2.14c-1.15 0-2.014.997-2.014 2.14c0 1.143.865 2.14 2.014 2.14c1.148 0 2.013-.997 2.013-2.14m.403-2.91a1.024 1.024 0 0 0-.002-2.05h-.002a1.025 1.025 0 0 0 .002 2.05zm-4.83 0a1.025 1.025 0 0 0-.003-2.05h-.003a1.025 1.025 0 0 0 .003 2.05h.002Z" clip-rule="evenodd"/></svg>