<svg xmlns="http://www.w3.org/2000/svg" width="1em" height="1em" viewBox="0 0 14 14"><path fill="currentColor" fill-rule="evenodd" d="M14 7A7 7 0 1 0 0 7a7 7 0 0 0 14 0M9.509 8.837a.625.625 0 1 1 1.207.325a3.85 3.85 0 0 1-7.431 0a.625.625 0 0 1 1.207-.325a2.6 2.6 0 0 0 5.017 0m.544-4.945c.993-1.217 2.04-.352 2.054.58c0 1.389-1.66 2.528-2.053 2.528S8 5.86 8 4.473c.014-.933 1.061-1.798 2.053-.58Zm-8.16.58c.014-.932 1.061-1.797 2.053-.58c.993-1.217 2.04-.352 2.054.58C6 5.862 4.34 7 3.946 7c-.392 0-2.053-1.14-2.053-2.527Z" clip-rule="evenodd"/></svg>