<svg xmlns="http://www.w3.org/2000/svg" width="1em" height="1em" viewBox="0 0 14 14"><path fill="currentColor" fill-rule="evenodd" d="M7 .25a6.75 6.75 0 1 0 0 13.5A6.75 6.75 0 0 0 7 .25M5 5.125a.375.375 0 0 0-.375.375v3c0 .207.168.375.375.375h.5a.625.625 0 1 1 0 1.25H5A1.625 1.625 0 0 1 3.375 8.5v-3c0-.897.728-1.625 1.625-1.625h.5a.625.625 0 1 1 0 1.25zm4.375.375A.375.375 0 0 0 9 5.125h-.5a.625.625 0 1 1 0-1.25H9c.897 0 1.625.728 1.625 1.625v3c0 .897-.728 1.625-1.625 1.625h-.5a.625.625 0 1 1 0-1.25H9a.375.375 0 0 0 .375-.375z" clip-rule="evenodd"/></svg>