<svg xmlns="http://www.w3.org/2000/svg" width="1em" height="1em" viewBox="0 0 14 14"><path fill="currentColor" fill-rule="evenodd" d="M0 6.75a6.75 6.75 0 1 1 13.5 0a6.75 6.75 0 0 1-13.5 0m7.483-.446a.625.625 0 1 0-.939.825l.75.852l-.889 1.01a.625.625 0 1 0 .94.825l.78-.888l.78.888a.625.625 0 1 0 .94-.825l-.888-1.01l.749-.852a.625.625 0 1 0-.94-.825l-.641.73zM5.39 3.47a.625.625 0 0 0-.615.518l-.667 3.836l-.286-.4a.625.625 0 1 0-1.017.727l1.154 1.615a.625.625 0 0 0 1.124-.256l.833-4.79h3.397a.625.625 0 1 0 0-1.25z" clip-rule="evenodd"/></svg>