<svg xmlns="http://www.w3.org/2000/svg" width="1em" height="1em" viewBox="0 0 14 14"><path fill="currentColor" fill-rule="evenodd" d="M2 0a.5.5 0 0 0-.453.288l-1.5 3.209a.5.5 0 0 0-.045.253H0v.945c0 .524.226 1.026.63 1.396c.402.37.949.578 1.519.578h.3a2.25 2.25 0 0 0 1.52-.578c.164-.15.298-.322.4-.508c.127-.17.333-.17.452-.014c.103.192.24.368.407.522c.403.37.95.578 1.52.578h.537a2.25 2.25 0 0 0 1.52-.578c.156-.144.286-.307.386-.484c.131-.205.36-.2.48-.01c.101.181.233.348.392.494c.403.37.95.578 1.52.578h.268a2.25 2.25 0 0 0 1.52-.578c.403-.37.629-.872.629-1.396V3.75h-.002a.5.5 0 0 0-.045-.253l-1.5-3.209A.5.5 0 0 0 12 0zM1 13V7.729c1.188.392 2.605.217 3.578-.536c1.298 1.004 3.549 1.004 4.846 0c.978.756 2.392.928 3.576.526V13a1 1 0 0 1-1 1h-1.255v-3.79a.21.21 0 0 0-.07-.155a.25.25 0 0 0-.17-.064H8.513a.25.25 0 0 0-.17.064a.21.21 0 0 0-.07.155V14H2a1 1 0 0 1-1-1m1.502-2.24V9.5a.5.5 0 0 1 .5-.5h3.014a.5.5 0 0 1 .5.5v1.26a.5.5 0 0 1-.5.5H3.002a.5.5 0 0 1-.5-.5" clip-rule="evenodd"/></svg>