<svg xmlns="http://www.w3.org/2000/svg" width="1em" height="1em" viewBox="0 0 14 14"><g fill="none" stroke="currentColor" stroke-linecap="round" stroke-linejoin="round"><path d="M6 1.05a1.18 1.18 0 0 1 2 0l1.94 3.07l2.53.31a1.16 1.16 0 0 1 .75 1.91l-2.11 2.42l.68 3.35a1.17 1.17 0 0 1-.46 1.17a1.19 1.19 0 0 1-1.26.07L7 11.67l-3.07 1.68a1.19 1.19 0 0 1-1.26-.07a1.17 1.17 0 0 1-.46-1.17l.68-3.35L.78 6.34a1.16 1.16 0 0 1 .75-1.91l2.53-.31Z"/><path d="M5.5 5.52h2a1 1 0 0 1 1 1v2a1 1 0 0 1-1 1h-2m3-2h-3"/></g></svg>