<svg xmlns="http://www.w3.org/2000/svg" width="1em" height="1em" viewBox="0 0 14 14"><path fill="currentColor" fill-rule="evenodd" d="M10.213 2.538A5.499 5.499 0 0 0 1.595 8.01a.75.75 0 0 1-1.474.277a6.999 6.999 0 0 1 11.163-6.821l.612-.612a.5.5 0 0 1 .854.353V3.5a.5.5 0 0 1-.5.5H9.957a.5.5 0 0 1-.353-.853zm2.791 2.577a.75.75 0 0 1 .876.598a6.999 6.999 0 0 1-11.164 6.821l-.612.613a.5.5 0 0 1-.854-.354V10.5a.5.5 0 0 1 .5-.5h2.293a.5.5 0 0 1 .354.854l-.61.609a5.499 5.499 0 0 0 8.618-5.472a.75.75 0 0 1 .6-.876ZM8.5 5.5a1.5 1.5 0 1 1-3 0a1.5 1.5 0 0 1 3 0M7 7.525a2.998 2.998 0 0 0-2.517 1.367c-.188.29.05.633.395.633h4.244c.345 0 .583-.343.395-.633A2.997 2.997 0 0 0 7 7.525" clip-rule="evenodd"/></svg>