<svg xmlns="http://www.w3.org/2000/svg" width="1em" height="1em" viewBox="0 0 14 14"><path fill="currentColor" fill-rule="evenodd" d="M1.573 1.573A.25.25 0 0 1 1.75 1.5h1.5a.75.75 0 0 0 0-1.5h-1.5A1.75 1.75 0 0 0 0 1.75v1.5a.75.75 0 0 0 1.5 0v-1.5a.25.25 0 0 1 .073-.177M2.5 4.375c.345 0 .625.28.625.625v4.5a.625.625 0 1 1-1.25 0V5c0-.345.28-.625.625-.625m2.25 1c.345 0 .625.28.625.625v2.5a.625.625 0 1 1-1.25 0V6c0-.345.28-.625.625-.625M7.625 5a.625.625 0 1 0-1.25 0v4.5a.625.625 0 1 0 1.25 0zm1.625.375c.345 0 .625.28.625.625v2.5a.625.625 0 1 1-1.25 0V6c0-.345.28-.625.625-.625M12.125 5a.625.625 0 1 0-1.25 0v4.5a.625.625 0 1 0 1.25 0zm1.125 5a.75.75 0 0 1 .75.75v1.5A1.75 1.75 0 0 1 12.25 14h-1.5a.75.75 0 0 1 0-1.5h1.5a.25.25 0 0 0 .25-.25v-1.5a.75.75 0 0 1 .75-.75M.75 10a.75.75 0 0 1 .75.75v1.5a.25.25 0 0 0 .25.25h1.5a.75.75 0 0 1 0 1.5h-1.5A1.75 1.75 0 0 1 0 12.25v-1.5A.75.75 0 0 1 .75 10m10-10a.75.75 0 0 0 0 1.5h1.5a.25.25 0 0 1 .25.25v1.5a.75.75 0 0 0 1.5 0v-1.5A1.75 1.75 0 0 0 12.25 0z" clip-rule="evenodd"/></svg>