<svg xmlns="http://www.w3.org/2000/svg" width="1em" height="1em" viewBox="0 0 14 14"><path fill="currentColor" fill-rule="evenodd" d="M9 3.005A1.454 1.454 0 0 0 6.716 1.78l-.003.002L2.842 4.5H1.5C.68 4.5 0 5.18 0 6v2c0 .82.68 1.5 1.5 1.5h1.339l3.78 2.716l.007.005c.97.672 2.348-.024 2.374-1.21zm2.741.408a.75.75 0 0 1 1.056.1c.83 1.003 1.175 2.207 1.175 3.487c0 1.28-.346 2.484-1.175 3.487a.75.75 0 0 1-1.156-.956c.566-.684.831-1.53.831-2.531c0-1.001-.265-1.847-.83-2.53a.75.75 0 0 1 .1-1.057Zm-1.54 1.875a.75.75 0 0 1 .996.362c.197.419.292.881.276 1.35a2.94 2.94 0 0 1-.276 1.35a.75.75 0 0 1-1.358-.635a1.44 1.44 0 0 0 .134-.68a.745.745 0 0 1 0-.07a1.44 1.44 0 0 0-.134-.68a.75.75 0 0 1 .361-.997Z" clip-rule="evenodd"/></svg>