<svg xmlns="http://www.w3.org/2000/svg" width="1em" height="1em" viewBox="0 0 14 14"><path fill="currentColor" fill-rule="evenodd" d="M9 3.005A1.454 1.454 0 0 0 6.716 1.78l-.003.002L2.842 4.5H1.5C.68 4.5 0 5.18 0 6v2c0 .82.68 1.5 1.5 1.5h1.339l3.78 2.716l.007.005c.97.672 2.348-.024 2.374-1.21zm4.78 2.09a.75.75 0 0 1 0 1.06L12.936 7l.844.845a.75.75 0 0 1-1.06 1.06l-.845-.844l-.845.844a.75.75 0 1 1-1.06-1.06L10.814 7l-.844-.845a.75.75 0 0 1 1.06-1.06l.845.844l.845-.844a.75.75 0 0 1 1.06 0" clip-rule="evenodd"/></svg>