<svg xmlns="http://www.w3.org/2000/svg" width="1em" height="1em" viewBox="0 0 14 14"><path fill="currentColor" fill-rule="evenodd" d="M5.5 0A1.5 1.5 0 0 0 4 1.5v1.191A5.244 5.244 0 0 0 1.75 7c0 1.784.89 3.36 2.25 4.309V12.5A1.5 1.5 0 0 0 5.5 14h3a1.5 1.5 0 0 0 1.5-1.5v-1.191A5.244 5.244 0 0 0 12.25 7c0-1.784-.89-3.36-2.25-4.309V1.5A1.5 1.5 0 0 0 8.5 0zM3.25 7a3.75 3.75 0 1 1 7.5 0a3.75 3.75 0 0 1-7.5 0m4.742-1.813a.625.625 0 1 0-1.005-.744L5.33 6.683a.625.625 0 0 0 .503.997h1.106l-.667 1.202a.625.625 0 1 0 1.093.606l1.182-2.13A.625.625 0 0 0 8 6.43h-.928z" clip-rule="evenodd"/></svg>