<svg xmlns="http://www.w3.org/2000/svg" width="1em" height="1em" viewBox="0 0 14 14"><path fill="currentColor" fill-rule="evenodd" d="M.219.219a.75.75 0 0 0 0 1.06l.178.179c.018.014.035.03.051.046l12.328 12.328a.75.75 0 0 0 1.005-1.112L7.289 6.228a5.422 5.422 0 0 1 3.56 1.592a.75.75 0 0 0 1.065-1.057a6.922 6.922 0 0 0-6.02-1.955l-.021.004l-.819-.818a7.91 7.91 0 0 1 7.54 2.075a.75.75 0 0 0 1.061-1.06a9.41 9.41 0 0 0-9.802-2.217L1.28.22a.75.75 0 0 0-1.061 0Zm4.695 7.518l1.11 1.11a2.539 2.539 0 0 0-.814.56a.75.75 0 1 1-1.075-1.046c.234-.24.496-.45.78-.624Zm-1.81-1.81l1.084 1.084v.001h-.002l-.014.01a5.352 5.352 0 0 0-.302.2a5.624 5.624 0 0 0-.71.598a.75.75 0 0 1-1.064-1.057a7.122 7.122 0 0 1 1.008-.836m-1.77-1.77l1.07 1.07a9.022 9.022 0 0 0-.999.842a.75.75 0 1 1-1.06-1.06c.317-.319.64-.585.989-.852m6.976 7.782a1.31 1.31 0 1 1-2.62 0a1.31 1.31 0 0 1 2.62 0" clip-rule="evenodd"/></svg>