<svg xmlns="http://www.w3.org/2000/svg" width="1em" height="1em" viewBox="0 0 14 14"><path fill="currentColor" fill-rule="evenodd" d="M1.759 2.357A1 1 0 1 0 .24 3.659l2.123 2.474l.001.001a1.923 1.923 0 0 0 2.808.116l.005-.005L6.972 4.45l1.795 1.795l.005.005a1.923 1.923 0 0 0 2.803-.11l2.176-2.47a1 1 0 1 0-1.502-1.323l-2.13 2.42l-1.781-1.78l-.002-.002a1.923 1.923 0 0 0-2.727 0L3.827 4.767zm0 5.189A1 1 0 1 0 .24 8.848l2.123 2.474h.001a1.921 1.921 0 0 0 2.808.116l.005-.005L6.972 9.64l1.795 1.794l.005.005a1.922 1.922 0 0 0 2.803-.11l2.176-2.47a1 1 0 1 0-1.502-1.322l-2.13 2.42l-1.781-1.78l-.002-.002a1.923 1.923 0 0 0-2.727 0L3.827 9.956z" clip-rule="evenodd"/></svg>