<svg xmlns="http://www.w3.org/2000/svg" width="1em" height="1em" viewBox="0 0 24 24"><path fill="currentColor" fill-rule="evenodd" d="M5.048 15.124a2.512 2.512 0 0 1-2.515 2.514A2.512 2.512 0 0 1 .02 15.124a2.512 2.512 0 0 1 2.514-2.514h2.515zm1.257 0a2.512 2.512 0 0 1 2.514-2.514a2.512 2.512 0 0 1 2.514 2.514v6.286a2.512 2.512 0 0 1-2.514 2.514a2.512 2.512 0 0 1-2.514-2.514zM8.819 5.029a2.512 2.512 0 0 1-2.514-2.515A2.512 2.512 0 0 1 8.819 0a2.512 2.512 0 0 1 2.514 2.514V5.03zm0 1.276a2.512 2.512 0 0 1 2.514 2.514a2.512 2.512 0 0 1-2.514 2.514H2.514A2.512 2.512 0 0 1 0 8.82a2.512 2.512 0 0 1 2.514-2.514zm10.076 2.514a2.512 2.512 0 0 1 2.515-2.514a2.512 2.512 0 0 1 2.514 2.514a2.512 2.512 0 0 1-2.514 2.514h-2.515zm-1.257 0a2.512 2.512 0 0 1-2.514 2.514a2.512 2.512 0 0 1-2.515-2.514V2.514A2.512 2.512 0 0 1 15.124 0a2.512 2.512 0 0 1 2.514 2.514zm-2.514 10.076a2.512 2.512 0 0 1 2.514 2.514a2.512 2.512 0 0 1-2.514 2.515a2.512 2.512 0 0 1-2.514-2.515v-2.514zm0-1.257a2.512 2.512 0 0 1-2.514-2.514a2.512 2.512 0 0 1 2.514-2.514h6.305a2.512 2.512 0 0 1 2.514 2.514a2.512 2.512 0 0 1-2.514 2.514z"/></svg>