<svg xmlns="http://www.w3.org/2000/svg" width="1em" height="1em" viewBox="0 0 16 16"><path fill="currentColor" d="M16 7.38A7.82 7.82 0 0 0 8 .5a7.82 7.82 0 0 0-8 6.88v1.24a7.82 7.82 0 0 0 8 6.88a7.82 7.82 0 0 0 8-6.88zm-1.25 0h-3a11.34 11.34 0 0 0-.43-2.54a7.6 7.6 0 0 0 1.75-1a6 6 0 0 1 1.65 3.54zm-9.18 0a9.69 9.69 0 0 1 .37-2.14A8.43 8.43 0 0 0 8 5.5a8.49 8.49 0 0 0 2.09-.26a10.2 10.2 0 0 1 .37 2.14zm4.92 1.24a9.59 9.59 0 0 1-.37 2.14a8.53 8.53 0 0 0-4.18 0a9.69 9.69 0 0 1-.37-2.14zm.4-5A11.82 11.82 0 0 0 10 2a6.89 6.89 0 0 1 2 1a6.57 6.57 0 0 1-1.14.66zm-2.6-1.86a10 10 0 0 1 1.38 2.3A7.63 7.63 0 0 1 8 4.25a7.56 7.56 0 0 1-1.67-.19a9.82 9.82 0 0 1 1.38-2.3zm-3.15 1.9A6.57 6.57 0 0 1 4 3a6.89 6.89 0 0 1 2-1a10.38 10.38 0 0 0-.86 1.66M3 3.83a7.6 7.6 0 0 0 1.75 1a11 11 0 0 0-.43 2.54h-3A6 6 0 0 1 3 3.83M1.28 8.62h3a11 11 0 0 0 .43 2.54a7.6 7.6 0 0 0-1.75 1a6 6 0 0 1-1.68-3.54m3.86 3.72A10.38 10.38 0 0 0 6 14a6.89 6.89 0 0 1-2-1a6.57 6.57 0 0 1 1.14-.66m2.57 1.9a9.82 9.82 0 0 1-1.38-2.3a7.43 7.43 0 0 1 3.34 0a9.76 9.76 0 0 1-1.38 2.3zm3.15-1.9a6.57 6.57 0 0 1 1.19.66a7.24 7.24 0 0 1-2 1a11.48 11.48 0 0 0 .81-1.66m2.14-.17a7.6 7.6 0 0 0-1.75-1a10.8 10.8 0 0 0 .43-2.54h3A6 6 0 0 1 13 12.17"/></svg>