<svg xmlns="http://www.w3.org/2000/svg" width="1em" height="1em" viewBox="0 0 24 24"><path fill="currentColor" d="m12 20.689l-2.01-1.163l-.002 2.31L12 23l2.011-1.165l-.002-2.309zm4.007-2.32l.003 2.31L21.5 17.5v-6.354l-2 1.151v4.05zm3.493-8.38l2-1.151V6.5l-1.996-1.156L17.508 6.5L19.5 7.653zm-3.988-4.645l1.996-1.155L12 1L6.492 4.189l1.996 1.156L12 3.31zM6.492 6.5L4.496 5.345L2.5 6.5v2.338l2 1.152V7.653zM2.5 11.146l2 1.152v4.049l3.492 2.022l-.003 2.31L2.5 17.5zm15-2.34l-1.988-1.15L12 9.689L8.488 7.656L6.5 8.806v2.335l3.498 2.015l-.004 4.06L12 18.378l2.006-1.161L14 13.155l3.499-2.014zM7.995 16.06l.002-1.748L6.5 13.45v1.745zm2.488-9.56L12 7.378l1.516-.878L12 5.622zm5.52 7.81l1.497-.861v1.745l-1.495.866z"/></svg>