<svg xmlns="http://www.w3.org/2000/svg" width="1em" height="1em" viewBox="0 0 24 24"><path fill="currentColor" d="M2.05 13h5.477a17.9 17.9 0 0 0 2.925 8.88A10.005 10.005 0 0 1 2.049 13m0-2a10.005 10.005 0 0 1 8.402-8.881a17.9 17.9 0 0 0-2.925 8.88zm19.9 0h-5.477a17.9 17.9 0 0 0-2.925-8.881a10.005 10.005 0 0 1 8.403 8.88m0 2a10.005 10.005 0 0 1-8.402 8.88A17.9 17.9 0 0 0 16.473 13zM9.53 13h4.94A15.908 15.908 0 0 1 12 20.592A15.908 15.908 0 0 1 9.53 13m0-2A15.908 15.908 0 0 1 12 3.408A15.908 15.908 0 0 1 14.47 11z"/></svg>