<svg xmlns="http://www.w3.org/2000/svg" width="1em" height="1em" viewBox="0 0 24 24"><path fill="currentColor" d="M5.005 9.003a1 1 0 0 1 1 1a6.97 6.97 0 0 1 4.33 1.5h2.17c1.332 0 2.529.579 3.353 1.498l3.147.002a5 5 0 0 1 4.516 2.851c-2.365 3.12-6.194 5.149-10.516 5.149c-2.79 0-5.15-.604-7.061-1.658a.998.998 0 0 1-.94.658h-3a1 1 0 0 1-1-1v-9a1 1 0 0 1 1-1zm1 3v5.02l.045.034c1.794 1.26 4.133 1.946 6.955 1.946c3.004 0 5.798-1.156 7.835-3.13l.133-.133l-.12-.1a2.994 2.994 0 0 0-1.643-.63l-.205-.007l-2.112-.001c.073.322.112.657.112 1v1h-9v-2h6.79l-.034-.079a2.501 2.501 0 0 0-2.092-1.415l-.164-.005h-2.93a4.985 4.985 0 0 0-3.57-1.5m-2-1h-1v7h1zm9.646-7.425l.354.354l.353-.354a2.5 2.5 0 0 1 3.536 3.536l-3.89 3.889l-3.888-3.89a2.5 2.5 0 1 1 3.535-3.535M11.53 4.992a.5.5 0 0 0-.059.637l.058.07l2.475 2.475l2.476-2.475a.5.5 0 0 0 .058-.637l-.058-.07a.5.5 0 0 0-.638-.057l-.07.057l-1.769 1.77l-1.767-1.77l-.068-.058a.5.5 0 0 0-.638.058"/></svg>