<svg xmlns="http://www.w3.org/2000/svg" width="1em" height="1em" viewBox="0 0 24 24"><path fill="currentColor" d="M12 19a1.5 1.5 0 1 1 0 3a1.5 1.5 0 0 1 0-3m7.5 0a1.5 1.5 0 1 1 0 3a1.5 1.5 0 0 1 0-3m-15 0a1.5 1.5 0 1 1 0 3a1.5 1.5 0 0 1 0-3M17 7a5 5 0 0 1 0 10c-1.844 0-3.51-1.04-5-3.121C10.51 15.959 8.844 17 7 17A5 5 0 0 1 7 7c1.844 0 3.51 1.04 5 3.121C13.49 8.041 15.156 7 17 7M7 9a3 3 0 1 0 0 6c1.254 0 2.51-.875 3.759-2.854l.089-.147l-.09-.145c-1.197-1.896-2.4-2.78-3.601-2.85zm10 0c-1.254 0-2.51.875-3.759 2.854l-.09.146l.09.146c1.198 1.896 2.4 2.78 3.602 2.85L17 15a3 3 0 1 0 0-6m-5-7a1.5 1.5 0 1 1 0 3a1.5 1.5 0 0 1 0-3M4.5 2a1.5 1.5 0 1 1 0 3a1.5 1.5 0 0 1 0-3m15 0a1.5 1.5 0 1 1 0 3a1.5 1.5 0 0 1 0-3"/></svg>