<svg xmlns="http://www.w3.org/2000/svg" width="1em" height="1em" viewBox="0 0 24 24"><path fill="currentColor" d="M12 2c5.523 0 10 4.477 10 10s-4.477 10-10 10S2 17.523 2 12S6.477 2 12 2M7.197 14.682l-2.175 2.173a8.547 8.547 0 0 0 1.818 1.9l.305.223l2.173-2.175a5.527 5.527 0 0 1-1.98-1.883zm9.606 0a5.527 5.527 0 0 1-1.883 1.98l-.238.14l2.173 2.176a8.552 8.552 0 0 0 1.9-1.818l.223-.305zM12 8a4 4 0 1 0 0 8a4 4 0 0 0 0-8M7.145 5.022a8.549 8.549 0 0 0-1.9 1.818l-.223.305l2.175 2.173a5.527 5.527 0 0 1 1.883-1.98l.238-.14zm9.71 0l-2.173 2.175a5.527 5.527 0 0 1 1.98 1.883l.14.238l2.176-2.173a8.548 8.548 0 0 0-1.818-1.9z"/></svg>