<svg xmlns="http://www.w3.org/2000/svg" width="1em" height="1em" viewBox="0 0 24 24"><path fill="currentColor" d="m17.657 14.828l-1.414-1.414L17.657 12A4 4 0 1 0 12 6.343l-1.414 1.414l-1.414-1.414l1.414-1.414a6 6 0 0 1 8.485 8.485zm-2.828 2.829l-1.415 1.414a6 6 0 0 1-8.485-8.485l1.414-1.414l1.414 1.414L6.343 12A4 4 0 0 0 12 17.657l1.414-1.414zm0-9.9l1.414 1.415l-7.071 7.07l-1.415-1.414zM5.775 2.293l1.932-.518L8.743 5.64l-1.932.518zm9.483 16.068l1.932-.518l1.035 3.864l-1.932.518zM2.293 5.775l3.864 1.036l-.518 1.931l-3.864-1.035zm16.068 9.483l3.864 1.035l-.518 1.932l-3.864-1.036z"/></svg>