<svg xmlns="http://www.w3.org/2000/svg" width="1em" height="1em" viewBox="0 0 24 24"><path fill="currentColor" d="M8.667 11.511a1.276 1.276 0 0 1-1.285-1.285c0-.718.568-1.286 1.285-1.286c.718 0 1.285.568 1.285 1.286c0 .717-.567 1.285-1.285 1.285m6.667 0a1.276 1.276 0 0 1-1.285-1.285c0-.718.568-1.286 1.285-1.286s1.285.568 1.285 1.286c0 .717-.568 1.285-1.285 1.285m-8.511 7.704l.715-.436a4 4 0 0 1 2.706-.536c.211.033.385.059.52.076a9.38 9.38 0 0 0 1.237.081c4.42 0 7.9-3.022 7.9-6.6S16.42 5.2 12 5.2c-4.421 0-7.9 3.022-7.9 6.6c0 1.365.5 2.673 1.431 3.78c.049.058.12.138.215.236a4 4 0 0 1 1.1 3.102zm-.63 2.727a1 1 0 0 1-1.527-.93l.189-2.26a2 2 0 0 0-.55-1.551a7.033 7.033 0 0 1-.303-.333C2.806 15.447 2.1 13.695 2.1 11.8c0-4.75 4.432-8.6 9.9-8.6c5.467 0 9.9 3.85 9.9 8.6s-4.433 8.6-9.9 8.6c-.51 0-1.01-.034-1.5-.098c-.152-.02-.342-.048-.568-.084a2 2 0 0 0-1.353.268z"/></svg>