<svg xmlns="http://www.w3.org/2000/svg" width="1em" height="1em" viewBox="0 0 512 512"><path fill="#8E6049" d="M52.749 213.583a3.241 3.241 0 0 1-3.242-3.242V163.14a3.241 3.241 0 1 1 6.484 0v47.201a3.241 3.241 0 0 1-3.242 3.242m67.78-3.241v-47.201a3.241 3.241 0 1 0-6.484 0v47.201a3.241 3.241 0 1 0 6.484 0"/><path fill="#F4580B" d="M44.677 160.189h80.683v29.504H44.677z"/><path fill="#597B91" d="M327.426 16.239h-3.902a3.517 3.517 0 0 0-3.517 3.517v133.796a3.517 3.517 0 0 0 3.517 3.517h3.902a3.517 3.517 0 0 0 3.517-3.517V19.755a3.517 3.517 0 0 0-3.517-3.516M154.918 206.775H16.209a4.201 4.201 0 0 0-4.201 4.201v291.162a4.201 4.201 0 0 0 4.201 4.201h138.709a4.201 4.201 0 0 0 4.201-4.201V210.975a4.2 4.2 0 0 0-4.201-4.2"/><path fill="#B0E9FF" d="M38.818 367.912h-8.727a2.419 2.419 0 0 1-2.419-2.419v-26.791a2.419 2.419 0 0 1 2.419-2.419h8.727a2.419 2.419 0 0 1 2.419 2.419v26.791a2.418 2.418 0 0 1-2.419 2.419m27.974-2.419v-26.791a2.419 2.419 0 0 0-2.419-2.419h-8.727a2.419 2.419 0 0 0-2.419 2.419v26.791a2.419 2.419 0 0 0 2.419 2.419h8.727a2.419 2.419 0 0 0 2.419-2.419m25.554 0v-26.791a2.419 2.419 0 0 0-2.419-2.419H81.2a2.419 2.419 0 0 0-2.419 2.419v26.791a2.419 2.419 0 0 0 2.419 2.419h8.727a2.419 2.419 0 0 0 2.419-2.419m25.555 0v-26.791a2.419 2.419 0 0 0-2.419-2.419h-8.727a2.419 2.419 0 0 0-2.419 2.419v26.791a2.419 2.419 0 0 0 2.419 2.419h8.727a2.419 2.419 0 0 0 2.419-2.419m25.554 0v-26.791a2.419 2.419 0 0 0-2.419-2.419h-8.727a2.419 2.419 0 0 0-2.419 2.419v26.791a2.419 2.419 0 0 0 2.419 2.419h8.727a2.419 2.419 0 0 0 2.419-2.419m-102.217-89.28v-26.791a2.419 2.419 0 0 0-2.419-2.419h-8.727a2.419 2.419 0 0 0-2.419 2.419v26.791a2.419 2.419 0 0 0 2.419 2.419h8.727a2.42 2.42 0 0 0 2.419-2.419m25.554 0v-26.791a2.419 2.419 0 0 0-2.419-2.419h-8.727a2.419 2.419 0 0 0-2.419 2.419v26.791a2.419 2.419 0 0 0 2.419 2.419h8.727a2.419 2.419 0 0 0 2.419-2.419m25.554 0v-26.791a2.419 2.419 0 0 0-2.419-2.419H81.2a2.419 2.419 0 0 0-2.419 2.419v26.791a2.419 2.419 0 0 0 2.419 2.419h8.727a2.419 2.419 0 0 0 2.419-2.419m25.555 0v-26.791a2.419 2.419 0 0 0-2.419-2.419h-8.727a2.419 2.419 0 0 0-2.419 2.419v26.791a2.419 2.419 0 0 0 2.419 2.419h8.727a2.419 2.419 0 0 0 2.419-2.419m25.554 0v-26.791a2.419 2.419 0 0 0-2.419-2.419h-8.727a2.419 2.419 0 0 0-2.419 2.419v26.791a2.419 2.419 0 0 0 2.419 2.419h8.727a2.419 2.419 0 0 0 2.419-2.419M41.238 415.262v-26.791a2.419 2.419 0 0 0-2.419-2.419h-8.727a2.419 2.419 0 0 0-2.419 2.419v26.791a2.419 2.419 0 0 0 2.419 2.419h8.727a2.42 2.42 0 0 0 2.419-2.419m25.554 0v-26.791a2.419 2.419 0 0 0-2.419-2.419h-8.727a2.419 2.419 0 0 0-2.419 2.419v26.791a2.419 2.419 0 0 0 2.419 2.419h8.727a2.419 2.419 0 0 0 2.419-2.419m25.554 0v-26.791a2.419 2.419 0 0 0-2.419-2.419H81.2a2.419 2.419 0 0 0-2.419 2.419v26.791a2.419 2.419 0 0 0 2.419 2.419h8.727a2.419 2.419 0 0 0 2.419-2.419m25.555 0v-26.791a2.419 2.419 0 0 0-2.419-2.419h-8.727a2.419 2.419 0 0 0-2.419 2.419v26.791a2.419 2.419 0 0 0 2.419 2.419h8.727a2.419 2.419 0 0 0 2.419-2.419m25.554 0v-26.791a2.419 2.419 0 0 0-2.419-2.419h-8.727a2.419 2.419 0 0 0-2.419 2.419v26.791a2.419 2.419 0 0 0 2.419 2.419h8.727a2.419 2.419 0 0 0 2.419-2.419"/><path fill="#464A4C" d="M160.128 226.389H9.909a4.438 4.438 0 0 1-4.439-4.439v-10.737a4.438 4.438 0 0 1 4.439-4.439h150.219a4.438 4.438 0 0 1 4.439 4.439v10.737a4.438 4.438 0 0 1-4.439 4.439m4.439 83.482v-10.737a4.438 4.438 0 0 0-4.439-4.439H9.909a4.438 4.438 0 0 0-4.439 4.439v10.737a4.438 4.438 0 0 0 4.439 4.439h150.219a4.438 4.438 0 0 0 4.439-4.439m0 143.048v-10.737a4.438 4.438 0 0 0-4.439-4.439H9.909a4.438 4.438 0 0 0-4.439 4.439v10.737a4.438 4.438 0 0 0 4.439 4.439h150.219a4.438 4.438 0 0 0 4.439-4.439"/><path fill="#AAA9A2" d="M331.262 73.649h-11.574c-5.761 0-10.431 4.67-10.431 10.431v45.187c0 5.761 4.67 10.431 10.431 10.431h11.574c5.761 0 10.431-4.67 10.431-10.431V84.079c0-5.76-4.67-10.43-10.431-10.43"/><path fill="#D1CFC3" d="M356.832 125.894h-62.715a6.85 6.85 0 0 0-6.849 6.849v141.903a6.85 6.85 0 0 0 6.849 6.849h62.715a6.85 6.85 0 0 0 6.849-6.849V132.744a6.849 6.849 0 0 0-6.849-6.85"/><path fill="#AAA9A2" d="M391.66 203.707h-21.137a9.627 9.627 0 0 0 2.069-5.967v-41.929c0-5.345-4.333-9.679-9.679-9.679h-10.739c-5.345 0-9.679 4.333-9.679 9.679v41.929c0 2.254.777 4.322 2.069 5.967h-38.177a9.627 9.627 0 0 0 2.069-5.967v-41.929c0-5.345-4.333-9.679-9.679-9.679h-10.74c-5.345 0-9.679 4.333-9.679 9.679v41.929c0 2.254.777 4.322 2.069 5.967H259.29a4.01 4.01 0 0 0-4.009 4.009v297.315a4.01 4.01 0 0 0 4.009 4.009h132.37a4.01 4.01 0 0 0 4.009-4.009V207.716a4.01 4.01 0 0 0-4.009-4.009"/><path fill="#B1EAFE" d="M220.89 101.684c0-11.618-9.418-21.036-21.036-21.036c-9.79 0-17.994 6.698-20.34 15.754a12.458 12.458 0 0 0-7.094-2.208c-6.917 0-12.524 5.607-12.524 12.524c0 .973.122 1.916.332 2.826a12.041 12.041 0 0 0-2.911-.368c-6.666 0-12.069 5.404-12.069 12.069c0 6.666 5.404 12.069 12.069 12.069h63.573c8.735 0 15.815-7.081 15.815-15.815s-7.08-15.815-15.815-15.815"/><circle cx="138.912" cy="63.494" r="23.757" fill="#FFCF53"/><path fill="#B1EAFE" d="M482.064 42.415c-1.227 0-2.412.167-3.551.449c.256-1.109.405-2.26.405-3.447c0-8.438-6.841-15.279-15.279-15.279c-3.203 0-6.173.989-8.629 2.674c-2.865-11.045-12.9-19.2-24.841-19.2c-14.173 0-25.663 11.49-25.663 25.663c-10.656 0-19.294 8.638-19.294 19.294s8.638 19.294 19.294 19.294h77.558c8.132 0 14.724-6.592 14.724-14.724c0-8.132-6.592-14.724-14.724-14.724"/><path fill="#D1CFC3" d="M327.281 188.011h-3.612a3.255 3.255 0 0 0-3.255 3.255v263.778a3.255 3.255 0 0 0 3.255 3.255h3.612a3.255 3.255 0 0 0 3.255-3.255V191.266a3.255 3.255 0 0 0-3.255-3.255"/><path fill="#00B89C" d="M488.041 328.36h-112.93a3.42 3.42 0 0 0-3.42 3.42v173.84a3.42 3.42 0 0 0 3.42 3.42h112.93a3.42 3.42 0 0 0 3.42-3.42V331.78a3.42 3.42 0 0 0-3.42-3.42"/><path fill="#FFF" d="M404.757 386.23h-12.696a3.519 3.519 0 0 1-3.519-3.519V363.96a3.519 3.519 0 0 1 3.519-3.519h12.696a3.519 3.519 0 0 1 3.519 3.519v18.751a3.52 3.52 0 0 1-3.519 3.519m36.242-3.52v-18.751a3.519 3.519 0 0 0-3.519-3.519h-12.696a3.519 3.519 0 0 0-3.519 3.519v18.751a3.519 3.519 0 0 0 3.519 3.519h12.696a3.518 3.518 0 0 0 3.519-3.519m32.724 0v-18.751a3.519 3.519 0 0 0-3.519-3.519h-12.696a3.519 3.519 0 0 0-3.519 3.519v18.751a3.519 3.519 0 0 0 3.519 3.519h12.696a3.518 3.518 0 0 0 3.519-3.519m-65.447 104.101v-51.946a3.519 3.519 0 0 0-3.519-3.519h-12.696a3.519 3.519 0 0 0-3.519 3.519v51.946a3.519 3.519 0 0 0 3.519 3.519h12.696a3.52 3.52 0 0 0 3.519-3.519m32.723 0v-51.946a3.519 3.519 0 0 0-3.519-3.519h-12.696a3.519 3.519 0 0 0-3.519 3.519v51.946a3.519 3.519 0 0 0 3.519 3.519h12.696a3.519 3.519 0 0 0 3.519-3.519m32.724 0v-51.946a3.519 3.519 0 0 0-3.519-3.519h-12.696a3.519 3.519 0 0 0-3.519 3.519v51.946a3.519 3.519 0 0 0 3.519 3.519h12.696a3.52 3.52 0 0 0 3.519-3.519"/><path fill="#597B91" d="M492.283 344.329H369.982a3.614 3.614 0 0 1-3.614-3.614v-8.741a3.614 3.614 0 0 1 3.614-3.614h122.301a3.614 3.614 0 0 1 3.614 3.614v8.741a3.614 3.614 0 0 1-3.614 3.614m3.614 67.967v-8.741a3.614 3.614 0 0 0-3.614-3.614H369.982a3.614 3.614 0 0 0-3.614 3.614v8.741a3.614 3.614 0 0 0 3.614 3.614h122.301a3.614 3.614 0 0 0 3.614-3.614"/><path fill="#FF473E" d="M304.602 359.713H184.666a2.996 2.996 0 0 0-2.996 2.996V504.17a2.996 2.996 0 0 0 2.996 2.996h119.935a2.996 2.996 0 0 0 2.996-2.996V362.709a2.995 2.995 0 0 0-2.995-2.996"/><path fill="#FFF" d="M225.552 442.525h-16.721a7.73 7.73 0 0 1-7.729-7.729v-35.1a7.73 7.73 0 0 1 7.729-7.729h16.721a7.73 7.73 0 0 1 7.729 7.729v35.1a7.728 7.728 0 0 1-7.729 7.729"/><path fill="#597B91" d="M247.63 459.078h36.486v48.031H247.63z"/><path fill="#2B3B47" d="M243.593 468.363c-3.292 0-5.645-3.096-4.905-6.304c2.857-12.373 13.944-21.597 27.185-21.597s24.328 9.224 27.185 21.597c.741 3.208-1.612 6.304-4.905 6.304zm-59.938-105.654h121.958c1.186 0 2.24-.757 2.618-1.881l4.96-14.74a2.762 2.762 0 0 0-2.618-3.643H178.695a2.762 2.762 0 0 0-2.618 3.643l4.96 14.74a2.762 2.762 0 0 0 2.618 1.881"/></svg>