<svg xmlns="http://www.w3.org/2000/svg" width="1em" height="1em" viewBox="0 0 512 512"><path fill="#DCE2E2" d="M433.694 507.594H78.306c-11.929 0-21.6-9.671-21.6-21.6V25.317c0-11.929 9.671-21.6 21.6-21.6h263.026l113.961 112.739v369.538c.001 11.929-9.67 21.6-21.599 21.6"/><path fill="#96A9B2" d="M292.284 79.728H106.557a7.904 7.904 0 0 1 0-15.808h185.728a7.904 7.904 0 1 1-.001 15.808m-20.594 46.49a7.904 7.904 0 0 0-7.904-7.904H106.557a7.904 7.904 0 0 0 0 15.808h157.229a7.904 7.904 0 0 0 7.904-7.904m123.269 54.394a7.904 7.904 0 0 0-7.904-7.904H106.557a7.904 7.904 0 0 0 0 15.808h280.498a7.904 7.904 0 0 0 7.904-7.904m-17.603 54.393a7.904 7.904 0 0 0-7.904-7.904H106.557a7.904 7.904 0 0 0 0 15.808h262.896a7.903 7.903 0 0 0 7.903-7.904M271.69 289.399a7.904 7.904 0 0 0-7.904-7.904H106.557a7.904 7.904 0 0 0 0 15.808h157.229a7.903 7.903 0 0 0 7.904-7.904m123.269 54.394a7.904 7.904 0 0 0-7.904-7.904H106.557a7.904 7.904 0 0 0 0 15.808h280.498a7.904 7.904 0 0 0 7.904-7.904m0 54.394a7.904 7.904 0 0 0-7.904-7.904H106.557a7.904 7.904 0 0 0 0 15.808h280.498a7.904 7.904 0 0 0 7.904-7.904m0 54.393a7.904 7.904 0 0 0-7.904-7.904H106.557a7.904 7.904 0 0 0 0 15.808h280.498a7.904 7.904 0 0 0 7.904-7.904"/><path fill="#B9C5C6" d="m341.333 3.717l112.739 112.739h-88.776c-13.235 0-23.963-10.729-23.963-23.963z"/></svg>