<svg xmlns="http://www.w3.org/2000/svg" width="1em" height="1em" viewBox="0 0 512 512"><path fill="#DADBDC" d="M74.921 232.369h371.01v276.304H74.921z"/><path fill="#FF473E" d="M93.967 202.812h324.065v64.54H93.967z"/><path fill="#D32A2A" d="M93.967 264.791h324.065v18.507H93.967z"/><path fill="#FFF" d="M199.32 342.844h112.314v142.084H199.32z"/><path fill="#2B3B47" d="M255.477 379.636c-19.534 0-35.369 15.835-35.369 35.369v69.923h70.738v-69.923c0-19.534-15.835-35.369-35.369-35.369"/><path fill="#B6B8BA" d="M11.25 173.327h82.717v335.346H11.25zm406.783 335.346h82.717V173.327h-82.717zm-87.823-26.055a7.2 7.2 0 0 0-7.2-7.2H187.943a7.2 7.2 0 0 0-7.2 7.2V506.5H330.21zm-3.732-123.314v-20.297H184.475v20.297a7.2 7.2 0 0 0 7.2 7.2h127.603a7.2 7.2 0 0 0 7.2-7.2"/><path fill="#2B3B47" d="M459.23 91.791a4.5 4.5 0 0 1-4.5-4.5V28.102a4.5 4.5 0 0 1 9 0v59.189a4.5 4.5 0 0 1-4.5 4.5m-402.121-4.5V28.102a4.5 4.5 0 0 0-9 0v59.189a4.5 4.5 0 0 0 9 0m12.294 145.845v-19.188a7.2 7.2 0 0 0-7.2-7.2H43.015a7.2 7.2 0 0 0-7.2 7.2v19.188a7.2 7.2 0 0 0 7.2 7.2h19.188a7.2 7.2 0 0 0 7.2-7.2m0 51.726v-19.188a7.2 7.2 0 0 0-7.2-7.2H43.015a7.2 7.2 0 0 0-7.2 7.2v19.188a7.2 7.2 0 0 0 7.2 7.2h19.188a7.2 7.2 0 0 0 7.2-7.2m406.782-51.726v-19.188a7.2 7.2 0 0 0-7.2-7.2h-19.188a7.2 7.2 0 0 0-7.2 7.2v19.188a7.2 7.2 0 0 0 7.2 7.2h19.188a7.2 7.2 0 0 0 7.2-7.2m0 51.726v-19.188a7.2 7.2 0 0 0-7.2-7.2h-19.188a7.2 7.2 0 0 0-7.2 7.2v19.188a7.2 7.2 0 0 0 7.2 7.2h19.188a7.2 7.2 0 0 0 7.2-7.2M131.671 405.874v-40.771c0-6.069-4.92-10.99-10.99-10.99h-.961c-6.069 0-10.99 4.92-10.99 10.99v40.771a1.8 1.8 0 0 0 1.8 1.8h19.341a1.8 1.8 0 0 0 1.8-1.8m39.921 0v-40.771c0-6.069-4.92-10.99-10.99-10.99h-.961c-6.069 0-10.99 4.92-10.99 10.99v40.771a1.8 1.8 0 0 0 1.8 1.8h19.341a1.8 1.8 0 0 0 1.8-1.8m190.71 0v-40.771c0-6.069-4.92-10.99-10.99-10.99h-.961c-6.069 0-10.99 4.92-10.99 10.99v40.771a1.8 1.8 0 0 0 1.8 1.8h19.341a1.8 1.8 0 0 0 1.8-1.8m39.922 0v-40.771c0-6.069-4.92-10.99-10.99-10.99h-.961c-6.069 0-10.99 4.92-10.99 10.99v40.771a1.8 1.8 0 0 0 1.8 1.8h19.341a1.8 1.8 0 0 0 1.8-1.8"/><path fill="#FFB636" d="m458.719 7.561l48.872 17.144c3.211 1.126 3.211 5.668 0 6.794l-48.872 17.144c-2.341.821-4.792-.916-4.792-3.397V10.958c.001-2.481 2.451-4.218 4.792-3.397M47.306 10.958v34.287c0 2.481 2.451 4.218 4.792 3.397l48.872-17.144c3.211-1.126 3.211-5.668 0-6.794L52.098 7.561c-2.341-.821-4.792.916-4.792 3.397"/><path fill="#FF473E" d="M326.478 341.299H184.475v-2.007c0-12.083 9.795-21.879 21.879-21.879h98.245c12.083 0 21.879 9.796 21.879 21.879zM93.967 173.327l-33.492-95.21c-2.613-7.429-13.12-7.429-15.733 0l-33.492 95.21zm406.783 0l-33.492-95.211c-2.613-7.429-13.12-7.429-15.733 0l-33.492 95.211z"/></svg>