<svg xmlns="http://www.w3.org/2000/svg" width="1em" height="1em" viewBox="0 0 512 512"><path fill="#E8E8E8" d="M494.661 425.149c-159.52-37.139-319.04 45.468-478.559 8.329C7.209 431.416 0 422.098 0 413.212V98.788C0 89.89 7.209 84.79 16.101 86.851c159.52 37.139 319.04-45.468 478.559-8.329c8.892 2.061 16.101 11.379 16.101 20.266v314.424c.001 8.898-7.208 13.998-16.1 11.937"/><circle cx="255.381" cy="256" r="92.048" fill="#FF473E"/><path fill="#0B67B2" d="M346.636 245.675c-2.258-10.955-10.722-35.009-41.54-35.009c-39.905 0-53.429 81.667-100.095 81.667c-37 0-41.667-36.334-41.667-36.334c0 50.837 41.211 92.048 92.048 92.048s92.048-41.211 92.048-92.048c0-2.295-.087-4.57-.252-6.824c-.128-.875-.307-2.052-.542-3.5"/><path fill="#2B3B47" d="M42.333 199.333a7.155 7.155 0 0 1 0-10.118l38.882-38.882a7.155 7.155 0 0 1 10.118 10.118l-38.882 38.882a7.153 7.153 0 0 1-10.118 0m27.113 16.994l38.882-38.882a7.155 7.155 0 0 0-10.118-10.118l-38.882 38.882a7.155 7.155 0 0 0 0 10.118a7.153 7.153 0 0 0 10.118 0m16.994 16.994l38.882-38.882a7.155 7.155 0 0 0-10.118-10.118l-38.882 38.882a7.155 7.155 0 0 0 10.118 10.118m318.495-88.471l38.882 38.882a7.155 7.155 0 0 0 10.118-10.118l-38.882-38.882a7.155 7.155 0 0 0-10.118 10.118m10.244 44.232l11.644 11.644a7.155 7.155 0 0 0 10.118-10.118l-11.644-11.644a7.155 7.155 0 0 0-10.118 10.118m-25.587-25.586l11.644 11.644a7.155 7.155 0 0 0 10.118-10.118l-11.644-11.644a7.155 7.155 0 0 0-10.118 10.118m59.575-8.402l11.644 11.644a7.155 7.155 0 0 0 10.118-10.118l-11.644-11.644a7.155 7.155 0 0 0-10.118 10.118m-25.587-25.586l11.644 11.644a7.155 7.155 0 0 0 10.118-10.118l-11.644-11.644a7.155 7.155 0 0 0-10.118 10.118M123.67 365.387l-37.23-37.23a7.155 7.155 0 0 0-10.118 10.118l37.23 37.23a7.155 7.155 0 0 0 10.118-10.118m-33.988 33.988l-37.23-37.23a7.155 7.155 0 0 0-10.118 10.118l37.23 37.23a7.155 7.155 0 0 0 10.118-10.118m-8.593-42.581L69.445 345.15a7.155 7.155 0 0 0-10.118 10.118l11.644 11.644a7.155 7.155 0 0 0 10.118-10.118m25.587 25.587l-11.644-11.644a7.155 7.155 0 0 0-10.118 10.118l11.644 11.644a7.155 7.155 0 0 0 10.118-10.118m351.784-30.244l11.644-11.644a7.155 7.155 0 0 0-10.118-10.118l-11.644 11.644a7.155 7.155 0 0 0 10.118 10.118m-25.587 25.587l11.644-11.644a7.155 7.155 0 0 0-10.118-10.118l-11.644 11.644a7.155 7.155 0 0 0 10.118 10.118m-8.401-59.575l11.644-11.644a7.155 7.155 0 0 0-10.118-10.118l-11.644 11.644a7.155 7.155 0 0 0 10.118 10.118m-25.587 25.587l11.644-11.644a7.155 7.155 0 0 0-10.118-10.118l-11.644 11.644a7.155 7.155 0 0 0 10.118 10.118m42.581-8.593l11.644-11.644a7.155 7.155 0 0 0-10.118-10.118l-11.644 11.644a7.155 7.155 0 0 0 10.118 10.118m-25.587 25.587l11.644-11.644a7.155 7.155 0 0 0-10.118-10.118l-11.644 11.644a7.155 7.155 0 0 0 10.118 10.118"/></svg>