<svg xmlns="http://www.w3.org/2000/svg" width="1em" height="1em" viewBox="0 0 512 512"><path fill="#597B91" d="M500.951 489.617c0 6.6-5.4 12-12 12H21.716c-6.6 0-12-5.4-12-12V22.383c0-6.6 5.4-12 12-12H488.95c6.6 0 12 5.4 12 12"/><path fill="#132028" d="M66.479 273.685v227.932H21.716c-6.6 0-12-5.4-12-12V270.443h53.521a3.241 3.241 0 0 1 3.242 3.242m364.489-69.831H293.092a4.176 4.176 0 0 0-4.176 4.176v293.588h146.226V208.03a4.174 4.174 0 0 0-4.174-4.176m-197.65 108.037h-87.85a2.661 2.661 0 0 0-2.661 2.661v187.066h93.171V314.551a2.66 2.66 0 0 0-2.66-2.66m255.633 189.726c6.6 0 12-5.4 12-12v-160.97h-42.472a3.242 3.242 0 0 0-3.242 3.242v169.729z"/><path fill="#597B91" d="M25.246 334.437h-8.44a2.34 2.34 0 0 1-2.34-2.34v-25.908a2.34 2.34 0 0 1 2.34-2.34h8.44a2.34 2.34 0 0 1 2.34 2.34v25.908a2.34 2.34 0 0 1-2.34 2.34m27.053-2.339V306.19a2.34 2.34 0 0 0-2.34-2.34h-8.44a2.34 2.34 0 0 0-2.34 2.34v25.908a2.34 2.34 0 0 0 2.34 2.34h8.44a2.341 2.341 0 0 0 2.34-2.34m-24.713 48.13V354.32a2.34 2.34 0 0 0-2.34-2.34h-8.44a2.34 2.34 0 0 0-2.34 2.34v25.908a2.34 2.34 0 0 0 2.34 2.34h8.44a2.341 2.341 0 0 0 2.34-2.34m24.713 0V354.32a2.34 2.34 0 0 0-2.34-2.34h-8.44a2.34 2.34 0 0 0-2.34 2.34v25.908a2.34 2.34 0 0 0 2.34 2.34h8.44a2.341 2.341 0 0 0 2.34-2.34m-24.713 47.035v-25.908a2.34 2.34 0 0 0-2.34-2.34h-8.44a2.34 2.34 0 0 0-2.34 2.34v25.908a2.34 2.34 0 0 0 2.34 2.34h8.44a2.341 2.341 0 0 0 2.34-2.34m24.713 0v-25.908a2.34 2.34 0 0 0-2.34-2.34h-8.44a2.34 2.34 0 0 0-2.34 2.34v25.908a2.34 2.34 0 0 0 2.34 2.34h8.44a2.341 2.341 0 0 0 2.34-2.34m-24.713 48.13v-25.908a2.34 2.34 0 0 0-2.34-2.34h-8.44a2.34 2.34 0 0 0-2.34 2.34v25.908a2.34 2.34 0 0 0 2.34 2.34h8.44a2.341 2.341 0 0 0 2.34-2.34m24.713 0v-25.908a2.34 2.34 0 0 0-2.34-2.34h-8.44a2.34 2.34 0 0 0-2.34 2.34v25.908a2.34 2.34 0 0 0 2.34 2.34h8.44a2.341 2.341 0 0 0 2.34-2.34m269.085-192.125v-33.371a3.014 3.014 0 0 0-3.014-3.014H307.5a3.014 3.014 0 0 0-3.014 3.014v33.371a3.014 3.014 0 0 0 3.014 3.014h10.871a3.013 3.013 0 0 0 3.013-3.014m31.832 0v-33.371a3.014 3.014 0 0 0-3.014-3.014h-10.871a3.014 3.014 0 0 0-3.014 3.014v33.371a3.014 3.014 0 0 0 3.014 3.014h10.871a3.014 3.014 0 0 0 3.014-3.014m31.831 0v-33.371a3.014 3.014 0 0 0-3.014-3.014h-10.871a3.014 3.014 0 0 0-3.014 3.014v33.371a3.014 3.014 0 0 0 3.014 3.014h10.871a3.013 3.013 0 0 0 3.014-3.014m31.831 0v-33.371a3.014 3.014 0 0 0-3.014-3.014h-10.871a3.014 3.014 0 0 0-3.014 3.014v33.371a3.014 3.014 0 0 0 3.014 3.014h10.871a3.013 3.013 0 0 0 3.014-3.014m-95.494 61.994v-33.371a3.014 3.014 0 0 0-3.014-3.014H307.5a3.014 3.014 0 0 0-3.014 3.014v33.371a3.014 3.014 0 0 0 3.014 3.014h10.871a3.014 3.014 0 0 0 3.013-3.014m31.832 0v-33.371a3.014 3.014 0 0 0-3.014-3.014h-10.871a3.014 3.014 0 0 0-3.014 3.014v33.371a3.014 3.014 0 0 0 3.014 3.014h10.871a3.015 3.015 0 0 0 3.014-3.014m31.831 0v-33.371a3.014 3.014 0 0 0-3.014-3.014h-10.871a3.014 3.014 0 0 0-3.014 3.014v33.371a3.014 3.014 0 0 0 3.014 3.014h10.871a3.014 3.014 0 0 0 3.014-3.014m31.831 0v-33.371a3.014 3.014 0 0 0-3.014-3.014h-10.871a3.014 3.014 0 0 0-3.014 3.014v33.371a3.014 3.014 0 0 0 3.014 3.014h10.871a3.014 3.014 0 0 0 3.014-3.014m-95.494 60.583v-33.371a3.014 3.014 0 0 0-3.014-3.014H307.5a3.014 3.014 0 0 0-3.014 3.014v33.371a3.014 3.014 0 0 0 3.014 3.014h10.871a3.013 3.013 0 0 0 3.013-3.014m31.832 0v-33.371a3.014 3.014 0 0 0-3.014-3.014h-10.871a3.014 3.014 0 0 0-3.014 3.014v33.371a3.014 3.014 0 0 0 3.014 3.014h10.871a3.014 3.014 0 0 0 3.014-3.014m31.831 0v-33.371a3.014 3.014 0 0 0-3.014-3.014h-10.871a3.014 3.014 0 0 0-3.014 3.014v33.371a3.014 3.014 0 0 0 3.014 3.014h10.871a3.013 3.013 0 0 0 3.014-3.014m31.831 0v-33.371a3.014 3.014 0 0 0-3.014-3.014h-10.871a3.014 3.014 0 0 0-3.014 3.014v33.371a3.014 3.014 0 0 0 3.014 3.014h10.871a3.013 3.013 0 0 0 3.014-3.014m-95.494 61.994v-33.371a3.014 3.014 0 0 0-3.014-3.014H307.5a3.014 3.014 0 0 0-3.014 3.014v33.371a3.014 3.014 0 0 0 3.014 3.014h10.871a3.015 3.015 0 0 0 3.013-3.014m31.832 0v-33.371a3.014 3.014 0 0 0-3.014-3.014h-10.871a3.014 3.014 0 0 0-3.014 3.014v33.371a3.014 3.014 0 0 0 3.014 3.014h10.871a3.015 3.015 0 0 0 3.014-3.014m31.831 0v-33.371a3.014 3.014 0 0 0-3.014-3.014h-10.871a3.014 3.014 0 0 0-3.014 3.014v33.371a3.014 3.014 0 0 0 3.014 3.014h10.871a3.015 3.015 0 0 0 3.014-3.014m31.831 0v-33.371a3.014 3.014 0 0 0-3.014-3.014h-10.871a3.014 3.014 0 0 0-3.014 3.014v33.371a3.014 3.014 0 0 0 3.014 3.014h10.871a3.015 3.015 0 0 0 3.014-3.014"/><path fill="#2B3B47" d="M342.349 246.034v255.583H215.052V246.034a3.634 3.634 0 0 1 3.635-3.635h120.027a3.634 3.634 0 0 1 3.635 3.635m-142.653-59.462a4.647 4.647 0 0 0 4.647-4.647v-11.24a4.647 4.647 0 0 0-4.647-4.647H42.429a4.647 4.647 0 0 0-4.647 4.647v11.24a4.647 4.647 0 0 0 4.647 4.647h2.198v71.51h-2.198a4.647 4.647 0 0 0-4.647 4.647v11.24a4.647 4.647 0 0 0 4.647 4.647h2.198V407.84h-2.198a4.647 4.647 0 0 0-4.647 4.647v11.24a4.647 4.647 0 0 0 4.647 4.647h2.198v73.48h154.012v-73.48h1.057a4.647 4.647 0 0 0 4.647-4.647v-11.24a4.647 4.647 0 0 0-4.647-4.647h-1.057V278.617h1.057a4.647 4.647 0 0 0 4.647-4.647v-11.24a4.647 4.647 0 0 0-4.647-4.647h-1.057v-71.51h1.057zm278.818 183.114H372.888a2.212 2.212 0 0 0-2.097 2.918l3.973 11.805c.12.357.328.665.591.91a2.396 2.396 0 0 0-.084.597v115.701h100.86V385.916c0-.207-.034-.405-.084-.597c.263-.245.471-.553.591-.91l3.973-11.805a2.213 2.213 0 0 0-2.097-2.918"/><path fill="#F7F9AA" d="M148.157 60.349a6.872 6.872 0 1 1-13.745 0a6.872 6.872 0 0 1 13.745 0m196.61-4.484a6.872 6.872 0 1 0 0 13.745a6.872 6.872 0 0 0 0-13.745m-101.124 80.996l-3.462 7.015a2.378 2.378 0 0 1-1.793 1.302l-7.742 1.125c-1.953.284-2.732 2.683-1.319 4.061l5.602 5.46c.561.547.817 1.335.685 2.107l-1.322 7.71c-.334 1.945 1.708 3.428 3.454 2.51l6.924-3.64a2.38 2.38 0 0 1 2.216 0l6.924 3.64c1.747.918 3.788-.565 3.454-2.51l-1.322-7.71a2.382 2.382 0 0 1 .685-2.107l5.602-5.46c1.413-1.377.633-3.777-1.319-4.061l-7.742-1.125a2.384 2.384 0 0 1-1.793-1.302l-3.462-7.015c-.874-1.77-3.397-1.77-4.27 0m94.04-12.455c-6.146 0-11.127 4.982-11.127 11.127s4.982 11.127 11.127 11.127s11.127-4.982 11.127-11.127s-4.982-11.127-11.127-11.127"/><path fill="#FFCF53" d="M240.693 314.157h-9.464a2.624 2.624 0 0 1-2.624-2.624v-29.051a2.624 2.624 0 0 1 2.624-2.624h9.464a2.624 2.624 0 0 1 2.624 2.624v29.051a2.625 2.625 0 0 1-2.624 2.624m30.334-2.624v-29.051a2.624 2.624 0 0 0-2.624-2.624h-9.464a2.624 2.624 0 0 0-2.624 2.624v29.051a2.624 2.624 0 0 0 2.624 2.624h9.464a2.624 2.624 0 0 0 2.624-2.624m27.711 0v-29.051a2.624 2.624 0 0 0-2.624-2.624h-9.464a2.624 2.624 0 0 0-2.624 2.624v29.051a2.624 2.624 0 0 0 2.624 2.624h9.464a2.624 2.624 0 0 0 2.624-2.624m27.711 0v-29.051a2.624 2.624 0 0 0-2.624-2.624h-9.464a2.624 2.624 0 0 0-2.624 2.624v29.051a2.624 2.624 0 0 0 2.624 2.624h9.464a2.624 2.624 0 0 0 2.624-2.624m-83.133 53.969v-29.051a2.624 2.624 0 0 0-2.624-2.624h-9.464a2.624 2.624 0 0 0-2.624 2.624v29.051a2.624 2.624 0 0 0 2.624 2.624h9.464a2.624 2.624 0 0 0 2.624-2.624m27.711 0v-29.051a2.624 2.624 0 0 0-2.624-2.624h-9.464a2.624 2.624 0 0 0-2.624 2.624v29.051a2.624 2.624 0 0 0 2.624 2.624h9.464a2.624 2.624 0 0 0 2.624-2.624m27.711 0v-29.051a2.624 2.624 0 0 0-2.624-2.624h-9.464a2.624 2.624 0 0 0-2.624 2.624v29.051a2.624 2.624 0 0 0 2.624 2.624h9.464a2.625 2.625 0 0 0 2.624-2.624m27.711 0v-29.051a2.624 2.624 0 0 0-2.624-2.624h-9.464a2.624 2.624 0 0 0-2.624 2.624v29.051a2.624 2.624 0 0 0 2.624 2.624h9.464a2.625 2.625 0 0 0 2.624-2.624m-83.133 52.741v-29.051a2.624 2.624 0 0 0-2.624-2.624h-9.464a2.624 2.624 0 0 0-2.624 2.624v29.051a2.624 2.624 0 0 0 2.624 2.624h9.464a2.624 2.624 0 0 0 2.624-2.624m27.711 0v-29.051a2.624 2.624 0 0 0-2.624-2.624h-9.464a2.624 2.624 0 0 0-2.624 2.624v29.051a2.624 2.624 0 0 0 2.624 2.624h9.464a2.624 2.624 0 0 0 2.624-2.624m27.711 0v-29.051a2.624 2.624 0 0 0-2.624-2.624h-9.464a2.624 2.624 0 0 0-2.624 2.624v29.051a2.624 2.624 0 0 0 2.624 2.624h9.464a2.625 2.625 0 0 0 2.624-2.624m27.711 0v-29.051a2.624 2.624 0 0 0-2.624-2.624h-9.464a2.624 2.624 0 0 0-2.624 2.624v29.051a2.624 2.624 0 0 0 2.624 2.624h9.464a2.625 2.625 0 0 0 2.624-2.624m-83.133 53.968V443.16a2.624 2.624 0 0 0-2.624-2.624h-9.464a2.624 2.624 0 0 0-2.624 2.624v29.051a2.624 2.624 0 0 0 2.624 2.624h9.464a2.624 2.624 0 0 0 2.624-2.624m27.711 0V443.16a2.624 2.624 0 0 0-2.624-2.624h-9.464a2.624 2.624 0 0 0-2.624 2.624v29.051a2.624 2.624 0 0 0 2.624 2.624h9.464a2.624 2.624 0 0 0 2.624-2.624m27.711 0V443.16a2.624 2.624 0 0 0-2.624-2.624h-9.464a2.624 2.624 0 0 0-2.624 2.624v29.051a2.624 2.624 0 0 0 2.624 2.624h9.464a2.624 2.624 0 0 0 2.624-2.624m27.711 0V443.16a2.624 2.624 0 0 0-2.624-2.624h-9.464a2.624 2.624 0 0 0-2.624 2.624v29.051a2.624 2.624 0 0 0 2.624 2.624h9.464a2.624 2.624 0 0 0 2.624-2.624M75.228 332.201v-28.047a2.533 2.533 0 0 0-2.533-2.533h-9.137a2.533 2.533 0 0 0-2.533 2.533v28.047a2.533 2.533 0 0 0 2.533 2.533h9.137a2.533 2.533 0 0 0 2.533-2.533m26.753 0v-28.047a2.533 2.533 0 0 0-2.533-2.533h-9.137a2.533 2.533 0 0 0-2.533 2.533v28.047a2.533 2.533 0 0 0 2.533 2.533h9.137a2.533 2.533 0 0 0 2.533-2.533m26.753 0v-28.047a2.533 2.533 0 0 0-2.533-2.533h-9.137a2.533 2.533 0 0 0-2.533 2.533v28.047a2.533 2.533 0 0 0 2.533 2.533h9.137a2.533 2.533 0 0 0 2.533-2.533m26.753 0v-28.047a2.533 2.533 0 0 0-2.533-2.533h-9.137a2.533 2.533 0 0 0-2.533 2.533v28.047a2.533 2.533 0 0 0 2.533 2.533h9.137a2.533 2.533 0 0 0 2.533-2.533m26.754 0v-28.047a2.533 2.533 0 0 0-2.533-2.533h-9.137a2.533 2.533 0 0 0-2.533 2.533v28.047a2.533 2.533 0 0 0 2.533 2.533h9.137a2.533 2.533 0 0 0 2.533-2.533M75.228 238.733v-28.047a2.533 2.533 0 0 0-2.533-2.533h-9.137a2.533 2.533 0 0 0-2.533 2.533v28.047a2.533 2.533 0 0 0 2.533 2.533h9.137a2.533 2.533 0 0 0 2.533-2.533m26.753 0v-28.047a2.533 2.533 0 0 0-2.533-2.533h-9.137a2.533 2.533 0 0 0-2.533 2.533v28.047a2.533 2.533 0 0 0 2.533 2.533h9.137a2.533 2.533 0 0 0 2.533-2.533m26.753 0v-28.047a2.533 2.533 0 0 0-2.533-2.533h-9.137a2.533 2.533 0 0 0-2.533 2.533v28.047a2.533 2.533 0 0 0 2.533 2.533h9.137a2.533 2.533 0 0 0 2.533-2.533m26.753 0v-28.047a2.533 2.533 0 0 0-2.533-2.533h-9.137a2.533 2.533 0 0 0-2.533 2.533v28.047a2.533 2.533 0 0 0 2.533 2.533h9.137a2.533 2.533 0 0 0 2.533-2.533m26.754 0v-28.047a2.533 2.533 0 0 0-2.533-2.533h-9.137a2.533 2.533 0 0 0-2.533 2.533v28.047a2.533 2.533 0 0 0 2.533 2.533h9.137a2.533 2.533 0 0 0 2.533-2.533M75.228 384.304v-28.047a2.533 2.533 0 0 0-2.533-2.533h-9.137a2.533 2.533 0 0 0-2.533 2.533v28.047a2.533 2.533 0 0 0 2.533 2.533h9.137a2.533 2.533 0 0 0 2.533-2.533m26.753 0v-28.047a2.533 2.533 0 0 0-2.533-2.533h-9.137a2.533 2.533 0 0 0-2.533 2.533v28.047a2.533 2.533 0 0 0 2.533 2.533h9.137a2.533 2.533 0 0 0 2.533-2.533m26.753 0v-28.047a2.533 2.533 0 0 0-2.533-2.533h-9.137a2.533 2.533 0 0 0-2.533 2.533v28.047a2.533 2.533 0 0 0 2.533 2.533h9.137a2.533 2.533 0 0 0 2.533-2.533m26.753 0v-28.047a2.533 2.533 0 0 0-2.533-2.533h-9.137a2.533 2.533 0 0 0-2.533 2.533v28.047a2.533 2.533 0 0 0 2.533 2.533h9.137a2.533 2.533 0 0 0 2.533-2.533m26.754 0v-28.047a2.533 2.533 0 0 0-2.533-2.533h-9.137a2.533 2.533 0 0 0-2.533 2.533v28.047a2.533 2.533 0 0 0 2.533 2.533h9.137a2.533 2.533 0 0 0 2.533-2.533m234.367 59.349V415.54a6.191 6.191 0 0 0-6.191-6.191h-13.393a6.191 6.191 0 0 0-6.191 6.191v28.113a6.191 6.191 0 0 0 6.191 6.191h13.393a6.191 6.191 0 0 0 6.191-6.191m44.36 0V415.54a6.191 6.191 0 0 0-6.191-6.191h-13.393a6.191 6.191 0 0 0-6.191 6.191v28.113a6.191 6.191 0 0 0 6.191 6.191h13.393a6.192 6.192 0 0 0 6.191-6.191M47.285 68.859c-7.368 0-13.34 5.973-13.34 13.34s5.973 13.34 13.34 13.34s13.34-5.973 13.34-13.34s-5.972-13.34-13.34-13.34m181.321-28.722c-7.368 0-13.34 5.973-13.34 13.34s5.973 13.34 13.34 13.34s13.34-5.973 13.34-13.34s-5.973-13.34-13.34-13.34m232.362 136.167a8.43 8.43 0 0 0-8.43 8.43a8.43 8.43 0 0 0 8.43 8.43a8.43 8.43 0 0 0 8.43-8.43a8.43 8.43 0 0 0-8.43-8.43m-346.436-47.642a6.872 6.872 0 1 0 0 13.745a6.872 6.872 0 0 0 0-13.745M432.259 28.531c-9.608 0-18.438 3.308-25.434 8.834c.804-.06 1.613-.1 2.431-.1c17.863 0 32.343 14.481 32.343 32.343s-14.481 32.343-32.343 32.343c-.819 0-1.628-.041-2.431-.1c6.996 5.526 15.826 8.834 25.434 8.834c22.686 0 41.077-18.391 41.077-41.077s-18.39-41.077-41.077-41.077"/></svg>