<svg xmlns="http://www.w3.org/2000/svg" width="1em" height="1em" viewBox="0 0 512 512"><path fill="#E8E8E8" d="M378.882 279.557H133.118c-11.909 0-21.563-9.654-21.563-21.563V30.166c0-11.909 9.654-21.563 21.563-21.563h245.764c11.909 0 21.563 9.654 21.563 21.563v227.828c0 11.908-9.654 21.563-21.563 21.563"/><path fill="#C5CFD1" d="M460.834 503.578H51.165c-23.421 0-42.408-18.987-42.408-42.408V245.265c0-23.422 18.987-42.409 42.409-42.409h409.668c23.422 0 42.409 18.987 42.409 42.409v215.904c0 23.422-18.987 42.409-42.409 42.409"/><circle cx="431.049" cy="259.611" r="19.946" fill="#FFF"/><circle cx="374.059" cy="259.611" r="19.946" fill="#FF473E"/><path fill="#1C4C5A" d="M379.074 308H132.926C106.605 308 85 329.063 85 355.384V503h9v1h333V355.384C427 329.063 405.395 308 379.074 308M104 410v-54.616C104 339.215 116.757 326 132.926 326h246.148C395.243 326 408 339.215 408 355.384V410zM232.372 68.481h-79.606a6.267 6.267 0 0 1 0-12.532h79.606a6.267 6.267 0 0 1 0 12.532m137.797-6.266a6.266 6.266 0 0 0-6.266-6.266h-100.75a6.266 6.266 0 0 0 0 12.532h100.75a6.266 6.266 0 0 0 6.266-6.266m-12.171 96.067a6.266 6.266 0 0 0-6.266-6.266H229.863a6.267 6.267 0 0 0 0 12.532h121.869a6.266 6.266 0 0 0 6.266-6.266m-29.219-48.033a6.266 6.266 0 0 0-6.266-6.266H152.765a6.267 6.267 0 0 0 0 12.532h169.749a6.265 6.265 0 0 0 6.265-6.266m-126.714 48.033a6.267 6.267 0 0 0-6.266-6.266h-43.034a6.267 6.267 0 0 0 0 12.532h43.034a6.266 6.266 0 0 0 6.266-6.266"/></svg>