<svg xmlns="http://www.w3.org/2000/svg" width="1em" height="1em" viewBox="0 0 512 512"><path fill="#0D7A7C" d="M59.006 310.554h395.988c15.613 0 28.285 10.583 28.285 23.624v106.307c0 13.052-12.672 23.624-28.285 23.624H59.006c-15.613 0-28.285-10.572-28.285-23.624V334.178c0-13.04 12.672-23.624 28.285-23.624"/><path fill="#332A23" d="M257 30.447c14.647 0 26.959 9.405 31.605 22.447h24.512C313.117 28.101 287.999 8 257 8c-30.988 0-56.117 20.101-56.117 44.894h24.512c4.646-13.042 16.97-22.447 31.605-22.447"/><path fill="#065654" d="M153.936 52.894h206.128c48.764 0 88.341 43.373 88.341 96.852v322.838c0 17.837-13.192 32.284-29.447 32.284H95.042c-16.255 0-29.447-14.447-29.447-32.284V149.745c0-53.478 39.547-96.851 88.341-96.851"/><path fill="#0D7A7C" d="M109.765 52.894h294.469c32.524 0 58.894 31.891 58.894 71.226v71.226c0 39.335-26.37 71.244-58.894 71.244H109.765c-32.524 0-58.894-31.909-58.894-71.244V124.12c.001-39.335 26.37-71.226 58.894-71.226"/><path fill="#F2A74E" d="M139.212 362.087s11.352 29.447 22.542 29.447c10.881 0 21.629-29.447 21.629-29.447V52.894h-44.17zM330.617 52.894v309.193s11.352 29.447 22.542 29.447c10.881 0 21.629-29.447 21.629-29.447V52.894z"/><path fill="#332A23" d="M146.574 332.64h29.447c12.197 0 22.085-9.888 22.085-22.085c0-12.197-9.888-22.085-22.085-22.085h-29.447c-12.197 0-22.085 9.888-22.085 22.085c0 12.197 9.888 22.085 22.085 22.085m169.32-22.086c0 12.197 9.888 22.085 22.085 22.085h29.447c12.197 0 22.085-9.888 22.085-22.085c0-12.197-9.888-22.085-22.085-22.085h-29.447c-12.197 0-22.085 9.888-22.085 22.085"/><path fill="#D7F4F7" d="m292.833 147.803l-23.889-23.878c-6.598-6.598-17.281-6.598-23.878 0l-23.899 23.878c-6.598 6.598-6.598 17.291 0 23.889l23.899 23.868c6.598 6.598 17.27 6.598 23.878 0l23.889-23.868c6.597-6.599 6.597-17.292 0-23.889m-45.827 17.26a5.109 5.109 0 0 1-5.107 5.107a5.115 5.115 0 0 1-5.107-5.107V154.85a5.115 5.115 0 0 1 5.107-5.107a5.109 5.109 0 0 1 5.107 5.107zm30.64 0a5.109 5.109 0 0 1-5.107 5.107a5.115 5.115 0 0 1-5.107-5.107V154.85a5.115 5.115 0 0 1 5.107-5.107a5.109 5.109 0 0 1 5.107 5.107z"/></svg>