<svg xmlns="http://www.w3.org/2000/svg" width="1em" height="1em" viewBox="0 0 512 512"><path fill="#16AFE4" d="m221.574 304.285l267.477-44.782c3.955-.662 3.955-6.345 0-7.007l-267.477-44.782a3.552 3.552 0 0 0-4.139 3.504v89.563a3.552 3.552 0 0 0 4.139 3.504m85.45 187.22l183.6-142.612c3.079-2.392.614-7.28-3.14-6.226l-223.821 62.855a3.553 3.553 0 0 0-2.212 5.02l40.22 79.756a3.554 3.554 0 0 0 5.353 1.207m-43.36-385.029l223.821 62.855c3.754 1.054 6.219-3.834 3.14-6.226l-183.6-142.612a3.552 3.552 0 0 0-5.351 1.206l-40.22 79.756a3.552 3.552 0 0 0 2.21 5.021"/></svg>