<svg xmlns="http://www.w3.org/2000/svg" width="1em" height="1em" viewBox="0 0 512 512"><path fill="#597B91" d="M463.962 58.145H52.959c-7.574 0-13.713 6.14-13.713 13.713V454.75c0 6.577 5.692 11.91 12.714 11.91h413.002c7.022 0 12.714-5.332 12.714-11.91V71.858c-.001-7.574-6.14-13.713-13.714-13.713"/><circle cx="64.638" cy="90.45" r="9.349" fill="#D32A2A"/><circle cx="450.448" cy="90.45" r="9.349" fill="#132028"/><circle cx="94.793" cy="90.45" r="9.349" fill="#59CAFC"/><path fill="#FFF" d="M401.169 101.021h-262.88c-5.589 0-10.12-4.531-10.12-10.12v-.903c0-5.589 4.531-10.12 10.12-10.12h262.88c5.589 0 10.12 4.531 10.12 10.12v.903c0 5.59-4.531 10.12-10.12 10.12"/><path fill="#CFD3D3" d="M172.378 101.021h-33.637c-5.839 0-10.572-4.733-10.572-10.572c0-5.839 4.733-10.572 10.572-10.572h33.637z"/><path fill="#E0E0E0" d="M61.234 122.755v312.127c0 6.325 5.122 11.452 11.44 11.452h371.63c6.318 0 11.44-5.127 11.44-11.452V122.755z"/></svg>