<svg xmlns="http://www.w3.org/2000/svg" width="1em" height="1em" viewBox="0 0 24 24"><g fill="none" stroke-linecap="round" stroke-linejoin="round" stroke-width="2"><path d="M0 0h24v24H0z"/><path fill="currentColor" d="M18 3a3 3 0 0 1 2.995 2.824L21 6v12a3 3 0 0 1-2.824 2.995L18 21H6a3 3 0 0 1-2.995-2.824L3 18V6a3 3 0 0 1 2.824-2.995L6 3zm0 2H9v14h9a1 1 0 0 0 .993-.883L19 18V6a1 1 0 0 0-.883-.993zm-4.387 4.21l.094.083l2 2a1 1 0 0 1 .083 1.32l-.083.094l-2 2a1 1 0 0 1-1.497-1.32l.083-.094L13.585 12l-1.292-1.293a1 1 0 0 1-.083-1.32l.083-.094a1 1 0 0 1 1.32-.083"/></g></svg>