<svg xmlns="http://www.w3.org/2000/svg" width="1em" height="1em" viewBox="0 0 24 24"><path fill="currentColor" d="M19.778 4.929a3.5 3.5 0 0 0-4.95 0L12.707 7.05l-1.415-1.414l2.122-2.121a5.5 5.5 0 0 1 7.778 7.778l-3.182 3.182a5.5 5.5 0 0 1-7.778 0l-1.533-1.533l1.415-1.414l1.532 1.533a3.5 3.5 0 0 0 4.95 0l3.182-3.182a3.5 3.5 0 0 0 0-4.95m-7.425 6.01a3.5 3.5 0 0 0-4.95 0l-3.182 3.182a3.5 3.5 0 0 0 4.95 4.95l2.122-2.121l1.414 1.414l-2.122 2.121a5.5 5.5 0 0 1-7.778-7.778L5.99 9.525a5.5 5.5 0 0 1 7.778 0l1.296 1.296l-1.414 1.414z"/></svg>