<svg xmlns="http://www.w3.org/2000/svg" width="1em" height="1em" viewBox="0 0 8 8"><path fill="currentColor" d="M1.5 0C.67 0 0 .67 0 1.5S.67 3 1.5 3H2v1h-.5C.67 4 0 4.67 0 5.5S.67 7 1.5 7S3 6.33 3 5.5V5h1v.5C4 6.33 4.67 7 5.5 7S7 6.33 7 5.5S6.33 4 5.5 4H5V3h.5C6.33 3 7 2.33 7 1.5S6.33 0 5.5 0S4 .67 4 1.5V2H3v-.5C3 .67 2.33 0 1.5 0m0 1c.28 0 .5.22.5.5V2h-.5c-.28 0-.5-.22-.5-.5s.22-.5.5-.5m4 0c.28 0 .5.22.5.5s-.22.5-.5.5H5v-.5c0-.28.22-.5.5-.5M3 3h1v1H3zM1.5 5H2v.5c0 .28-.22.5-.5.5S1 5.78 1 5.5s.22-.5.5-.5M5 5h.5c.28 0 .5.22.5.5s-.22.5-.5.5s-.5-.22-.5-.5z"/></svg>