<svg xmlns="http://www.w3.org/2000/svg" width="1em" height="1em" viewBox="0 0 24 24"><path fill="currentColor" d="M19.437 18.218H4.563a2.5 2.5 0 0 1-2.5-2.5V8.282a2.5 2.5 0 0 1 2.5-2.5h14.874a2.5 2.5 0 0 1 2.5 2.5v7.436a2.5 2.5 0 0 1-2.5 2.5M4.563 6.782a1.5 1.5 0 0 0-1.5 1.5v7.436a1.5 1.5 0 0 0 1.5 1.5h14.874a1.5 1.5 0 0 0 1.5-1.5V8.282a1.5 1.5 0 0 0-1.5-1.5Z"/><path fill="currentColor" d="M12 12.786H5.064a.5.5 0 0 1 0-1H12a.5.5 0 0 1 0 1m2 2.928H5.064a.5.5 0 1 1 0-1H14a.5.5 0 0 1 0 1"/><rect width="4" height="2" x="15.436" y="8.283" fill="currentColor" rx=".5"/></svg>