<svg xmlns="http://www.w3.org/2000/svg" width="1em" height="1em" viewBox="0 0 24 24"><path fill="currentColor" d="M18.436 20.94H5.562a2.5 2.5 0 0 1-2.5-2.5V5.567a2.5 2.5 0 0 1 2.5-2.5h12.874a2.5 2.5 0 0 1 2.5 2.5V18.44a2.5 2.5 0 0 1-2.5 2.5M5.562 4.067a1.5 1.5 0 0 0-1.5 1.5V18.44a1.5 1.5 0 0 0 1.5 1.5h12.874a1.5 1.5 0 0 0 1.5-1.5V5.567a1.5 1.5 0 0 0-1.5-1.5Z"/><path fill="currentColor" d="M6.544 8.287a.5.5 0 0 1 0-1H12a.5.5 0 0 1 0 1ZM9.271 12.5a.5.5 0 0 1 0-1h5.454a.5.5 0 0 1 0 1ZM12 16.724a.5.5 0 0 1 0-1h5.455a.5.5 0 0 1 0 1Z"/></svg>