<svg xmlns="http://www.w3.org/2000/svg" width="1em" height="1em" viewBox="0 0 24 24"><path fill="none" stroke="currentColor" d="M8 8L1 1m7 7c-.279-.279-.458-.793-.569-1.253a5.422 5.422 0 0 1-.104-1.88c.056-.489.165-1.026.381-1.242M8 8c-.279-.279-.793-.458-1.253-.569a5.421 5.421 0 0 0-1.88-.104c-.489.056-1.026.165-1.242.381M8 16l-7 7m7-7c-.279.279-.458.793-.569 1.253a5.422 5.422 0 0 0-.104 1.88c.056.489.165 1.026.381 1.242M8 16c-.279.279-.793.458-1.253.569a5.422 5.422 0 0 1-1.88.104c-.489-.056-1.026-.165-1.242-.381M16 8l7-7m-7 7c.279-.279.458-.793.569-1.253a5.422 5.422 0 0 0 .104-1.88c-.056-.489-.165-1.026-.381-1.242M16 8c.279-.279.793-.458 1.253-.569a5.42 5.42 0 0 1 1.88-.104c.489.056 1.026.165 1.242.381M16 16l7 7m-7-7c.279.279.458.793.569 1.253a5.43 5.43 0 0 1 .104 1.88c-.056.489-.165 1.026-.381 1.242M16 16c.279.279.793.458 1.253.569a5.422 5.422 0 0 0 1.88.104c.489-.056 1.026-.165 1.242-.381M15 12a3 3 0 1 1-6 0a3 3 0 0 1 6 0Z"/></svg>