<svg xmlns="http://www.w3.org/2000/svg" width="1em" height="1em" viewBox="0 0 256 256"><g fill="none"><rect width="256" height="256" fill="#242938" rx="60"/><path fill="#43B049" fill-rule="evenodd" d="M128.217 28c-3.823 0-7.646.293-11.24.586a118.907 118.907 0 0 1 15.076 12.158l3.823 3.555l-3.823 3.823a103.355 103.355 0 0 0-9.456 10.055v.293a20.666 20.666 0 0 0-1.478 1.772a57.5 57.5 0 0 1 7.098-.294a67.998 67.998 0 0 1 67.069 67.994a67.998 67.998 0 0 1-67.069 67.994a66.262 66.262 0 0 1-35.478-10.055c-5.102.59-10.234.888-15.37.892a54.996 54.996 0 0 1-7.097-.306c.273 8.013.967 16.006 2.077 23.946a98.23 98.23 0 0 0 55.868 17.153a99.772 99.772 0 0 0 70.557-29.226A99.775 99.775 0 0 0 228 127.783a99.774 99.774 0 0 0-29.226-70.557A99.767 99.767 0 0 0 128.217 28M74.119 43.963a99.225 99.225 0 0 1 21.868-10.641a152.717 152.717 0 0 0-6.818 14.183a137.885 137.885 0 0 0-15.05-3.542m-5.61 36.28c3.99-.266 7.782-.519 11.817-.519a60.312 60.312 0 0 0-10.641 13.598a100.674 100.674 0 0 1-2.37-12.999zM64.957 180.54v.586l-.892-.268a116.67 116.67 0 0 1-22.467-4.141l-.587-.293l.293-.599a158.267 158.267 0 0 1 8.271-20.658l.306-.599l.586.293a150.03 150.03 0 0 0 15.37 7.646l.598.294v.586a108.316 108.316 0 0 0-1.478 17.153m0 5.898v-.587h-.6a152.788 152.788 0 0 1-19.217-3.249l-1.771-.294l.892 1.479A103.33 103.33 0 0 0 65.25 206.84l1.185 1.185v-2.077a155.045 155.045 0 0 1-1.478-19.51m56.161-141.594c-2.064 2.077-4.142 4.434-6.206 6.805a86.683 86.683 0 0 0-3.556 4.447c-4.131-1.963-8.366-3.654-12.563-5.329l-.728-.29a122.373 122.373 0 0 1 8.27-16.567a174.475 174.475 0 0 1 14.783 10.934m-73.9 63.862l.293.586l.586-.292a151.849 151.849 0 0 1 14.49-9.163l.586-.294v-.598a114.36 114.36 0 0 1-3.25-17.42v-.6h-.586a128.9 128.9 0 0 0-21.588 5.913l-.586.293l.293.6a90.072 90.072 0 0 0 9.762 20.975m-1.772 10.045l.586-.586l.357.841a154.783 154.783 0 0 0 10.348 12.998l.293.294l-.293.598a135.135 135.135 0 0 0-8.92 13.598l-.294.586l-.586-.293a170.45 170.45 0 0 1-16.567-12.412l-.599-.599l.6-.536a137.912 137.912 0 0 1 15.075-14.489m39.901 62.675h1.771l-1.478-1.186a61.558 61.558 0 0 1-13.597-15.368v-.294l-1.173-.598v.892a132.77 132.77 0 0 0-1.185 15.674v.586h.586c1.185 0 2.367.074 3.55.147c1.181.074 2.363.147 3.548.147zm.892-125.042a116.986 116.986 0 0 0-4.142 14.49a131.123 131.123 0 0 0-15.369.853c-.34-6.503-.242-13.02.293-19.51a140 140 0 0 1 19.218 4.167m5.314 14.173a86.523 86.523 0 0 1 13.903-6.792a82.101 82.101 0 0 0-10.654-4.435c-1.172 3.543-2.357 7.391-3.25 11.227m-46.986 81.06h.573l-.28 1.173a165.405 165.405 0 0 0-7.098 16.567l-.587 1.478l-.586-1.478a93.31 93.31 0 0 1-7.99-27.781l-.293-1.785l1.478 1.185a168.241 168.241 0 0 0 14.783 10.641m13.292-94.648a98.815 98.815 0 0 0-15.37 19.804c4.984-1.467 10.269-2.633 15.543-3.797l.12-.026c-.294-5.34-.294-10.654-.294-15.98m2.956 68.287v1.771l-.841-1.491c-2.243-2.464-4.309-5.274-6.339-8.033c-.646-.878-1.289-1.752-1.932-2.608l-.892-.598l.6-.294c3.67-2.557 7.34-4.831 11.01-7.106l.458-.285l1.479-.879l-.587 1.784a69.627 69.627 0 0 0-2.956 17.739m.88 12.126l-.294-1.772l-.879 1.479c-2.663 3.823-5.327 7.977-7.646 12.119l-.306.586l.599.293c4.015 2.305 8.319 4.321 12.63 6.34l.368.173l1.479.586l-.586-1.478a65.459 65.459 0 0 1-5.366-18.326M42.78 113.086l-.6.294a73.349 73.349 0 0 0-12.998 12.463L28 127.027v-1.771a99.7 99.7 0 0 1 4.728-28.087l.599-1.772l.586 1.478a159.696 159.696 0 0 0 8.577 15.612z" clip-rule="evenodd"/></g></svg>