<svg xmlns="http://www.w3.org/2000/svg" width="1em" height="1em" viewBox="0 0 256 256"><g fill="none"><rect width="256" height="256" fill="#242938" rx="60"/><g clip-path="url(#skillIconsScikitlearnDark0)"><path fill="#F89939" d="M181.405 160.654c24.426-24.424 28.486-59.964 9.067-79.38c-19.416-19.416-54.954-15.357-79.378 9.066c-24.425 24.424-17.36 71.086-9.066 79.381c6.702 6.702 54.954 15.357 79.377-9.067"/><path fill="#3499CD" d="M81.182 125.361c-14.17-14.169-34.792-16.528-46.06-5.261c-11.266 11.267-8.911 31.891 5.262 46.059c14.173 14.174 41.248 10.075 46.057 5.261c3.892-3.885 8.915-31.887-5.26-46.059"/><path fill="#010101" d="M130.073 154.668c-2.503 2.304-4.699 4.004-6.586 5.097c-1.888 1.096-3.688 1.644-5.401 1.644c-1.97 0-3.559-.764-4.765-2.292c-1.207-1.53-1.808-3.581-1.808-6.161c0-3.867.838-8.508 2.514-13.92c1.673-5.416 3.71-10.407 6.103-14.973l7.017-2.597c.22-.074.387-.112.498-.112c.532 0 .972.393 1.31 1.174c.341.785.512 1.839.512 3.164c0 3.757-.864 7.394-2.597 10.911c-1.733 3.519-4.438 7.274-8.121 11.27c-.148 1.916-.221 3.231-.221 3.95c0 1.604.294 2.872.883 3.812c.59.941 1.372 1.408 2.348 1.408c.996 0 2.054-.356 3.178-1.074c1.121-.72 2.834-2.21 5.136-4.477zm-10.578-10.799a33.707 33.707 0 0 0 5.691-8.741c1.454-3.228 2.18-6.003 2.18-8.329c0-.678-.1-1.229-.302-1.643c-.202-.415-.462-.623-.774-.623c-.679 0-1.67 1.696-2.969 5.089c-1.299 3.393-2.574 8.142-3.826 14.247"/><path fill="#010101" d="M150.737 154.667c-2.338 2.305-4.437 4.005-6.298 5.098c-1.86 1.096-3.911 1.643-6.159 1.643c-2.505 0-4.526-.801-6.066-2.401c-1.536-1.605-2.304-3.712-2.304-6.327c0-3.903 1.353-7.435 4.063-10.593c2.704-3.16 5.707-4.738 9.003-4.738c1.713 0 3.083.443 4.116 1.327c1.031.885 1.547 2.043 1.547 3.48c0 3.813-4.051 6.905-12.154 9.281c.736 3.589 2.66 5.387 5.773 5.387c1.216 0 2.375-.327 3.479-.979c1.107-.655 2.772-2.107 5.001-4.352zm-14.474-5.109c4.713-1.327 7.071-3.774 7.071-7.347c0-1.768-.646-2.651-1.933-2.651c-1.216 0-2.375.924-3.479 2.776c-1.108 1.85-1.659 4.256-1.659 7.222"/><path fill="#010101" d="M180.238 154.668c-2.947 2.798-5.056 4.624-6.325 5.472c-1.271.847-2.486 1.269-3.647 1.269c-2.91 0-4.281-2.568-4.116-7.706c-1.841 2.632-3.541 4.575-5.097 5.83c-1.555 1.252-3.161 1.876-4.821 1.876c-1.618 0-2.994-.758-4.129-2.277c-1.134-1.52-1.697-3.383-1.697-5.595c0-2.761.758-5.395 2.276-7.901c1.521-2.505 3.468-4.528 5.843-6.075c2.375-1.547 4.476-2.322 6.297-2.322c2.303 0 3.915 1.06 4.836 3.176l5.645-3.119h1.55l-2.439 8.092c-1.252 4.071-1.88 6.861-1.88 8.371c0 1.583.56 2.375 1.685 2.375c.715 0 1.507-.382 2.373-1.147c.866-.765 2.079-1.93 3.644-3.495v3.176zm-20.22 1.521c1.841 0 3.576-1.57 5.209-4.709c1.63-3.141 2.444-6.039 2.444-8.69c0-1.03-.232-1.837-.69-2.416c-.462-.582-1.079-.87-1.851-.87c-1.842 0-3.589 1.565-5.234 4.696c-1.648 3.132-2.474 6.013-2.474 8.644c0 .996.245 1.802.733 2.419c.487.618 1.106.926 1.863.926"/><path fill="#010101" d="M200.873 154.668c-4.623 4.529-8.187 6.796-10.691 6.796c-1.124 0-2.073-.474-2.845-1.42c-.771-.949-1.16-2.124-1.16-3.524c0-2.597 1.392-6.076 4.172-10.441c-1.364.7-2.854 1.186-4.475 1.463c-1.197 2.21-3.077 4.586-5.635 7.125h-.634v-2.483a36.235 36.235 0 0 0 3.894-4.808c-1.586-.7-2.376-1.741-2.376-3.119c0-1.42.481-2.934 1.451-4.548c.966-1.609 2.296-2.414 3.992-2.414c1.436 0 2.153.734 2.153 2.208c0 1.161-.414 2.817-1.244 4.973c3.056-.333 5.727-2.669 8.012-7.017l2.512-.111l-2.569 7.072c-1.067 2.983-1.758 5.015-2.07 6.091c-.312 1.076-.47 2.031-.47 2.859c0 .774.18 1.393.538 1.85c.359.464.843.692 1.451.692c.662 0 1.299-.227 1.906-.675c.607-.455 1.97-1.702 4.089-3.745v3.176z"/><path fill="#010101" d="M228 154.668c-4.253 4.496-7.902 6.741-10.939 6.741c-1.234 0-2.228-.432-2.983-1.298c-.757-.865-1.134-2.025-1.134-3.479c0-1.971.811-4.982 2.432-9.032c.865-2.174 1.299-3.557 1.299-4.144c0-.59-.232-.885-.69-.885c-.257 0-.6.13-1.023.386c-.388.258-.839.62-1.355 1.079c-.459.423-.976.938-1.547 1.544a45.065 45.065 0 0 0-1.6 1.769l-1.549 1.797c-.68.828-1.104 1.702-1.269 2.623a41.691 41.691 0 0 0-.554 4.312c-.057.974-.083 2.289-.083 3.95l-6.105 1.434c-.201-2.486-.304-4.337-.304-5.551c0-2.965.345-5.774 1.037-8.425c.69-2.654 1.798-5.635 3.328-8.951l6.739-1.298c-1.417 3.813-2.347 6.813-2.789 9.004c3.02-3.37 5.415-5.702 7.189-7.002c1.772-1.299 3.35-1.946 4.729-1.946c.937 0 1.72.354 2.344 1.061c.627.709.938 1.598.938 2.661c0 1.766-.791 4.676-2.373 8.729c-1.088 2.78-1.631 4.583-1.631 5.416c0 1.109.452 1.663 1.356 1.663c1.347 0 3.528-1.778 6.537-5.332z"/><path fill="#fff" d="M140.525 123.723c.043.488.165.862.365 1.122c.369.471 1.008.707 1.918.707c.542 0 1.019-.117 1.431-.35c.412-.238.617-.604.617-1.097c0-.374-.165-.658-.495-.853c-.212-.119-.629-.257-1.252-.415l-1.162-.292c-.742-.184-1.29-.39-1.642-.618c-.628-.395-.943-.943-.943-1.642c0-.823.296-1.49.886-1.999c.596-.509 1.395-.764 2.398-.764c1.311 0 2.256.385 2.836 1.154c.363.488.539 1.013.529 1.577h-1.382a1.69 1.69 0 0 0-.35-.902c-.336-.385-.918-.577-1.747-.577c-.553 0-.973.105-1.26.317a.997.997 0 0 0-.422.837c0 .379.187.683.56.91c.217.136.537.255.959.358l.968.235c1.051.255 1.755.502 2.113.74c.569.374.853.962.853 1.764c0 .774-.295 1.444-.886 2.007c-.585.564-1.479.845-2.682.845c-1.295 0-2.213-.292-2.755-.877c-.536-.591-.824-1.32-.861-2.187zm10.809-6.225c.981 0 1.777.238 2.389.715c.618.477.989 1.298 1.114 2.463h-1.423c-.086-.537-.284-.981-.593-1.333c-.309-.358-.804-.537-1.487-.537c-.932 0-1.598.455-1.999 1.366c-.261.59-.391 1.319-.391 2.186c0 .872.185 1.606.553 2.202c.369.596.948.894 1.739.894c.607 0 1.087-.184 1.439-.552c.357-.374.604-.883.739-1.528h1.423c-.163 1.154-.569 1.999-1.219 2.536c-.651.531-1.482.796-2.495.796c-1.138 0-2.046-.414-2.723-1.243c-.677-.835-1.016-1.875-1.016-3.121c0-1.528.371-2.718 1.113-3.568c.743-.851 1.688-1.276 2.837-1.276m4.966.292h1.487v8.664H156.3zm0-3.275h1.487v1.658H156.3zm3.673 0h1.406v6.933l3.755-3.698h1.869l-3.332 3.259l3.519 5.445h-1.869l-2.715-4.389l-1.227 1.122v3.267h-1.406zm8.355 3.275h1.487v8.664h-1.487zm0-3.275h1.487v1.658h-1.487zm3.999.805h1.479v2.43h1.39v1.194h-1.39v5.681c0 .304.103.507.309.61c.113.06.303.089.569.089h.227c.081-.005.176-.013.285-.024v1.154a3.26 3.26 0 0 1-.529.106a5.008 5.008 0 0 1-.585.032c-.682 0-1.146-.173-1.39-.52c-.243-.352-.365-.807-.365-1.365v-5.763h-1.179v-1.194h1.179z"/></g><defs><clipPath id="skillIconsScikitlearnDark0"><path fill="#fff" d="M28 69h200v107.86H28z"/></clipPath></defs></g></svg>