<svg xmlns="http://www.w3.org/2000/svg" width="1.25em" height="1em" viewBox="0 0 640 512"><path fill="currentColor" d="M32 64c17.7 0 32 14.3 32 32v320c0 17.7-14.3 32-32 32S0 433.7 0 416V96c0-17.7 14.3-32 32-32m214.6 73.4c12.5 12.5 12.5 32.8 0 45.3L205.3 224h229.5l-41.4-41.4c-12.5-12.5-12.5-32.8 0-45.3s32.8-12.5 45.3 0l96 96c12.5 12.5 12.5 32.8 0 45.3l-96 96c-12.5 12.5-32.8 12.5-45.3 0s-12.5-32.8 0-45.3l41.3-41.3H205.2l41.4 41.4c12.5 12.5 12.5 32.8 0 45.3s-32.8 12.5-45.3 0l-96-96c-12.5-12.5-12.5-32.8 0-45.3l96-96c12.5-12.5 32.8-12.5 45.3 0M640 96v320c0 17.7-14.3 32-32 32s-32-14.3-32-32V96c0-17.7 14.3-32 32-32s32 14.3 32 32"/></svg>