<svg xmlns="http://www.w3.org/2000/svg" width="1em" height="1em" viewBox="0 0 512 512"><path fill="currentColor" d="m99.5 144.8l79.2 79.2l96 96l92.5 92.5C335.9 434.9 297.5 448 256 448c-106 0-192-86-192-192c0-41.5 13.1-79.9 35.5-111.2M333.3 288l-32-32H384v32zm32 32H400c8.8 0 16-7.2 16-16v-64c0-8.8-7.2-16-16-16H269.3L144.8 99.5C176.1 77.1 214.5 64 256 64c106 0 192 86 192 192c0 41.5-13.1 79.9-35.5 111.2zM256 512a256 256 0 1 0 0-512a256 256 0 1 0 0 512m16-416c-8.8 0-16 7.2-16 16c0 26.5 21.5 48 48 48h32c8.8 0 16 7.2 16 16s7.2 16 16 16s16-7.2 16-16c0-26.5-21.5-48-48-48h-32c-8.8 0-16-7.2-16-16s-7.2-16-16-16m-42.5 224l-96-96H112c-8.8 0-16 7.2-16 16v64c0 8.8 7.2 16 16 16z"/></svg>