<svg xmlns="http://www.w3.org/2000/svg" width="0.88em" height="1em" viewBox="0 0 448 512"><path fill="currentColor" d="M0 448c0 17.7 14.3 32 32 32s32-14.3 32-32V112c0-8.8 7.2-16 16-16h336c17.7 0 32-14.3 32-32s-14.3-32-32-32H80C35.8 32 0 67.8 0 112zm160 0a32 32 0 1 0-64 0a32 32 0 1 0 64 0m192 0a32 32 0 1 0-64 0a32 32 0 1 0 64 0m-96 0a32 32 0 1 0-64 0a32 32 0 1 0 64 0m192 0a32 32 0 1 0-64 0a32 32 0 1 0 64 0m-32-160a32 32 0 1 0 0-64a32 32 0 1 0 0 64m0 32a32 32 0 1 0 0 64a32 32 0 1 0 0-64m0-128a32 32 0 1 0 0-64a32 32 0 1 0 0 64"/></svg>