<svg xmlns="http://www.w3.org/2000/svg" width="1.25em" height="1em" viewBox="0 0 640 512"><path fill="currentColor" d="M64 32c-17.7 0-32 14.3-32 32s14.3 32 32 32h40v64H32v128c53 0 96 43 96 96v64c0 17.7 14.3 32 32 32h32c17.7 0 32-14.3 32-32v-64c0-53 43-96 96-96c6.3 0 12.4.6 18.3 1.7C367.1 231.8 426.9 192 496 192c42.5 0 81.6 15.1 112 40.2V160h-72V96h40c17.7 0 32-14.3 32-32s-14.3-32-32-32zm424 64v64h-80V96zm-128 0v64h-80V96zm-128 0v64h-80V96zm264 416a144 144 0 1 0 0-288a144 144 0 1 0 0 288m0-96a24 24 0 1 1 0 48a24 24 0 1 1 0-48m0-144c8.8 0 16 7.2 16 16v80c0 8.8-7.2 16-16 16s-16-7.2-16-16v-80c0-8.8 7.2-16 16-16"/></svg>