<svg xmlns="http://www.w3.org/2000/svg" width="1.13em" height="1em" viewBox="0 0 576 512"><path fill="currentColor" d="M0 96c0-35.3 28.7-64 64-64h448c35.3 0 64 28.7 64 64v320c0 35.3-28.7 64-64 64H64c-35.3 0-64-28.7-64-64zm128 192a32 32 0 1 0 0-64a32 32 0 1 0 0 64m32-128a32 32 0 1 0-64 0a32 32 0 1 0 64 0m-32 224a32 32 0 1 0 0-64a32 32 0 1 0 0 64m96-248c-13.3 0-24 10.7-24 24s10.7 24 24 24h224c13.3 0 24-10.7 24-24s-10.7-24-24-24zm0 96c-13.3 0-24 10.7-24 24s10.7 24 24 24h224c13.3 0 24-10.7 24-24s-10.7-24-24-24zm0 96c-13.3 0-24 10.7-24 24s10.7 24 24 24h224c13.3 0 24-10.7 24-24s-10.7-24-24-24z"/></svg>