<svg xmlns="http://www.w3.org/2000/svg" width="0.75em" height="1em" viewBox="0 0 384 512"><path fill="currentColor" d="M112 24c0-13.3-10.7-24-24-24S64 10.7 64 24v72H48c-26.5 0-48 21.5-48 48v156.1C0 312.8 5.1 325 14.1 334l3.9 3.9c9 9 14.1 21.2 14.1 33.9V464c0 26.5 21.5 48 48 48H304c26.5 0 48-21.5 48-48v-92.1c0-12.7 5.1-24.9 14.1-33.9l3.9-3.9c9-9 14.1-21.2 14.1-33.9V144c0-26.5-21.5-48-48-48H320c0-17.7-14.3-32-32-32s-32 14.3-32 32h-32c0-17.7-14.3-32-32-32s-32 14.3-32 32h-48zm0 136h160c8.8 0 16 7.2 16 16s-7.2 16-16 16H112c-8.8 0-16-7.2-16-16s7.2-16 16-16m0 64h160c8.8 0 16 7.2 16 16s-7.2 16-16 16H112c-8.8 0-16-7.2-16-16s7.2-16 16-16m0 64h160c8.8 0 16 7.2 16 16s-7.2 16-16 16H112c-8.8 0-16-7.2-16-16s7.2-16 16-16"/></svg>