<svg xmlns="http://www.w3.org/2000/svg" width="1em" height="1em" viewBox="0 0 24 24"><g fill="none" stroke="currentColor" stroke-width="1.5"><path d="M1 15V9a6 6 0 0 1 6-6h10a6 6 0 0 1 6 6v6a6 6 0 0 1-6 6H7a6 6 0 0 1-6-6Z"/><path stroke-linecap="round" d="m10.5 10l-.172-.172a2.828 2.828 0 0 0-2-.828v0A2.828 2.828 0 0 0 5.5 11.828v.344A2.828 2.828 0 0 0 8.328 15v0c.75 0 1.47-.298 2-.828L10.5 14m8-4l-.172-.172a2.828 2.828 0 0 0-2-.828v0a2.828 2.828 0 0 0-2.828 2.828v.344A2.828 2.828 0 0 0 16.328 15v0c.75 0 1.47-.298 2-.828L18.5 14"/></g></svg>