<svg xmlns="http://www.w3.org/2000/svg" width="1em" height="1em" viewBox="0 0 24 24"><path fill="none" stroke="currentColor" stroke-linecap="round" stroke-linejoin="round" stroke-width="1.5" d="M12 13v5m0 3.01l.01-.011M4 13.5l-.485.121A2 2 0 0 0 2 15.561v1.877a2 2 0 0 0 1.515 1.94l1.74.436A.6.6 0 0 0 6 19.23v-5.463a.6.6 0 0 0-.746-.582zm0 0V13c0-4.97 3.582-9 8-9s8 4.03 8 9v.5m0 0l.485.121A2 2 0 0 1 22 15.561v1.877a2 2 0 0 1-1.515 1.94l-1.74.436A.6.6 0 0 1 18 19.23v-5.463a.6.6 0 0 1 .745-.582z"/></svg>