<svg xmlns="http://www.w3.org/2000/svg" width="1em" height="1em" viewBox="0 0 24 24"><path fill="currentColor" fill-rule="evenodd" d="M2.25 3.6c0-.746.604-1.35 1.35-1.35h16.8c.746 0 1.35.604 1.35 1.35v16.8a1.35 1.35 0 0 1-1.35 1.35H3.6a1.35 1.35 0 0 1-1.35-1.35zM12 8.75c1.131 0 1.75.707 1.75 1.25c0 .42-.117.722-.288.911c-.16.177-.442.339-.962.339a.75.75 0 0 0 0 1.5c.52 0 .802.162.962.339c.17.19.288.492.288.911c0 .543-.619 1.25-1.75 1.25s-1.75-.707-1.75-1.25a.75.75 0 0 0-1.5 0c0 1.666 1.62 2.75 3.25 2.75s3.25-1.084 3.25-2.75c0-.685-.193-1.383-.676-1.917a2.452 2.452 0 0 0-.079-.083a2.36 2.36 0 0 0 .079-.083c.483-.534.676-1.232.676-1.917c0-1.666-1.62-2.75-3.25-2.75S8.75 8.334 8.75 10a.75.75 0 0 0 1.5 0c0-.543.619-1.25 1.75-1.25" clip-rule="evenodd"/></svg>