<svg xmlns="http://www.w3.org/2000/svg" width="1em" height="1em" viewBox="0 0 24 24"><defs><path id="iconoirPodcast0" d="M6 19a9.985 9.985 0 0 1-4-8C2 5.477 6.477 1 12 1s10 4.477 10 10a9.985 9.985 0 0 1-4 8"/></defs><g fill="none" stroke="currentColor" stroke-linecap="round" stroke-linejoin="round" stroke-width="1.5"><use href="#iconoirPodcast0"/><use href="#iconoirPodcast0"/><path d="M7.528 15a6 6 0 1 1 8.944 0"/><path d="M12 13a2 2 0 1 0 0-4a2 2 0 0 0 0 4m-1.924 3.283l.815-.543a2 2 0 0 1 2.218 0l.815.543a2 2 0 0 1 .863 1.993l-.509 3.053A2 2 0 0 1 12.307 23h-.612a2 2 0 0 1-1.973-1.671l-.508-3.053a2 2 0 0 1 .863-1.993"/></g></svg>