<svg xmlns="http://www.w3.org/2000/svg" width="1em" height="1em" viewBox="0 0 24 24"><g fill="none" stroke="currentColor" stroke-linecap="round" stroke-width="1.5"><path stroke-linejoin="round" d="M9.609 7h4.782A2.609 2.609 0 0 1 17 9.609a.391.391 0 0 1-.391.391H7.39A.391.391 0 0 1 7 9.609A2.609 2.609 0 0 1 9.609 7"/><path stroke-linejoin="round" d="M9 3h6a6 6 0 0 1 6 6v4a6 6 0 0 1-6 6H9a6 6 0 0 1-6-6V9a6 6 0 0 1 6-6m7 12.01l.01-.011M8 15.01l.01-.011"/><path d="m10.5 19l-2 2.5m5-2.5l2 2.5m1-2.5l2 2.5M7.5 19l-2 2.5"/></g></svg>