<svg xmlns="http://www.w3.org/2000/svg" width="1em" height="1em" viewBox="0 0 24 24"><g fill="none" stroke="currentColor" stroke-linecap="round" stroke-linejoin="round" stroke-width="1.5"><path d="M16.5 5h3.9a.6.6 0 0 1 .6.6v14.8a.6.6 0 0 1-.6.6H3.6a.6.6 0 0 1-.6-.6V5.6a.6.6 0 0 1 .6-.6h3.9"/><path d="m16.279 6.329l.205-1.23a.605.605 0 0 0 0-.198l-.206-1.23A2 2 0 0 0 14.307 2H9.694a2 2 0 0 0-1.973 1.671l-.205 1.23a.6.6 0 0 0 0 .198l.205 1.23A2 2 0 0 0 9.694 8h4.612a2 2 0 0 0 1.973-1.671M12 8l-1-2.5M7 17h10"/></g></svg>