<svg xmlns="http://www.w3.org/2000/svg" width="1em" height="1em" viewBox="0 0 24 24"><path fill="none" stroke="currentColor" stroke-linecap="round" stroke-linejoin="round" stroke-width="1.5" d="M5.812 7s-.453.628-.996 1.667M18.188 7s.453.628.997 1.667m-14.37 0C4.008 10.214 3 12.674 3 15.333C5.813 15.333 7.5 17 7.5 17s1.125 5 4.5 5s4.5-5 4.5-5s1.688-1.667 4.5-1.667c0-2.659-1.007-5.119-1.815-6.666m-14.37 0s-2.94-2.223 0-6.667c.997.556 3.81 2.778 3.81 2.778S10.313 3.667 12 3.667c1.688 0 3.375 1.11 3.375 1.11S18.188 2.557 19.313 2c2.812 4.445-.128 6.667-.128 6.667M11 18h1m1 0h-1m0 0v1m-3.5-6.5L10 14m5.5-1.5L14 14"/></svg>