<svg xmlns="http://www.w3.org/2000/svg" width="1em" height="1em" viewBox="0 0 50 50"><path fill="currentColor" d="M25 26c-4.4 0-8-3.6-8-8s3.6-8 8-8s8 3.6 8 8s-3.6 8-8 8m0-12.2c-2.3 0-4.2 1.9-4.2 4.2s1.9 4.2 4.2 4.2s4.2-1.9 4.2-4.2s-1.9-4.2-4.2-4.2"/><path fill="currentColor" d="M33.6 26.8c-.7-.9-1.9-1-2.8-.4c0 0-2.2 1.6-5.8 1.6c-3.6 0-5.8-1.6-5.8-1.6c-.9-.7-2.1-.5-2.8.4c-.7.9-.5 2.1.4 2.8c.1.1 2.2 1.7 5.7 2.2l-5.3 5.4c-.8.8-.8 2.1 0 2.8c.4.4.9.6 1.4.6c.5 0 1-.2 1.4-.6l5-5.1l5 5.1c.4.4.9.6 1.4.6c.5 0 1-.2 1.4-.6c.8-.8.8-2 0-2.8l-5.3-5.4c3.5-.6 5.6-2.2 5.7-2.2c.9-.7 1.1-2 .4-2.8"/></svg>