<svg xmlns="http://www.w3.org/2000/svg" width="1em" height="1em" viewBox="0 0 48 48"><g fill="none" stroke="currentColor" stroke-linecap="round" stroke-linejoin="round" stroke-width="4"><path d="m16 22l-6-10l-6 10"/><path fill="currentColor" fill-rule="evenodd" d="M10 28a6 6 0 0 0 6-6H4a6 6 0 0 0 6 6" clip-rule="evenodd"/><path d="m44 22l-6-10l-6 10"/><path fill="currentColor" fill-rule="evenodd" d="M38 28a6 6 0 0 0 6-6H32a6 6 0 0 0 6 6" clip-rule="evenodd"/><path d="M24 6v36M10 12h28m-28 0h28m0 30H10"/></g></svg>