<svg xmlns="http://www.w3.org/2000/svg" width="1em" height="1em" viewBox="0 0 48 48"><defs><mask id="ipSBottleTwo0"><g fill="none" stroke-linecap="round" stroke-width="4"><path fill="#fff" stroke="#fff" stroke-linejoin="round" d="M15 21.56a9.82 9.82 0 0 1 4.767-8.42a.479.479 0 0 0 .233-.411V4h8v8.729c0 .168.088.324.233.41A9.82 9.82 0 0 1 33 21.56V42a2 2 0 0 1-2 2H17a2 2 0 0 1-2-2z"/><path stroke="#000" d="M20 10h8"/><path stroke="#000" stroke-linejoin="round" d="M33 23h-9v15h9"/><path stroke="#fff" stroke-linejoin="round" d="M33 40V21m-13-9V8m8 4V8"/></g></mask></defs><path fill="currentColor" d="M0 0h48v48H0z" mask="url(#ipSBottleTwo0)"/></svg>