<svg xmlns="http://www.w3.org/2000/svg" width="1em" height="1em" viewBox="0 0 48 48"><g fill="none"><path fill="currentColor" stroke="currentColor" stroke-linejoin="round" stroke-width="4" d="M40 12a4 4 0 1 0 0-8a4 4 0 0 0 0 8Zm0 32a4 4 0 1 0 0-8a4 4 0 0 0 0 8ZM8 12a4 4 0 1 0 0-8a4 4 0 0 0 0 8Zm0 32a4 4 0 1 0 0-8a4 4 0 0 0 0 8Z"/><path stroke="currentColor" stroke-linecap="round" stroke-linejoin="round" stroke-width="4" d="M20 8h8"/><path fill="currentColor" fill-rule="evenodd" d="M32 16L16 32z" clip-rule="evenodd"/><path stroke="currentColor" stroke-linecap="round" stroke-linejoin="round" stroke-width="4" d="M32 16L16 32m24-12v8"/></g></svg>