<svg xmlns="http://www.w3.org/2000/svg" width="1em" height="1em" viewBox="0 0 48 48"><defs><mask id="ipSComposition0"><g fill="none"><path fill="#fff" fill-rule="evenodd" d="m39.828 21.786l-17.86 17.86c-3.414 3.414-9.03 3.332-12.545-.182c-3.515-3.515-3.597-9.132-.182-12.546L27.1 9.058" clip-rule="evenodd"/><path stroke="#fff" stroke-linecap="round" stroke-width="4" d="m39.828 21.786l-17.86 17.86c-3.414 3.414-9.03 3.332-12.545-.182c-3.515-3.515-3.597-9.132-.182-12.546L27.1 9.058M8.734 27.424l26.144-.688"/><path fill="#000" d="M29.393 20.907a2 2 0 1 0-2.828-2.829a2 2 0 0 0 2.828 2.829m-5.657 2.829a2 2 0 1 0-2.828-2.829a2 2 0 0 0 2.828 2.828"/><path stroke="#fff" stroke-linecap="round" stroke-width="4" d="m23.565 5.522l19.798 19.8"/></g></mask></defs><path fill="currentColor" d="M0 0h48v48H0z" mask="url(#ipSComposition0)"/></svg>