<svg xmlns="http://www.w3.org/2000/svg" width="1em" height="1em" viewBox="0 0 48 48"><defs><mask id="ipSDocSearch0"><g fill="none"><path fill="#fff" stroke="#fff" stroke-linecap="round" stroke-linejoin="round" stroke-width="4" d="M38 4H10a2 2 0 0 0-2 2v36a2 2 0 0 0 2 2h28a2 2 0 0 0 2-2V6a2 2 0 0 0-2-2"/><path fill="#fff" d="M28 16c0 1.38-.56 2.63-1.465 3.535A5 5 0 1 1 28 16"/><path stroke="#000" stroke-linecap="round" stroke-linejoin="round" stroke-width="4" d="m30 23l-3.465-3.465m0 0a5 5 0 1 0-7.071-7.07a5 5 0 0 0 7.072 7.07M17 30h14m-14 6h7"/></g></mask></defs><path fill="currentColor" d="M0 0h48v48H0z" mask="url(#ipSDocSearch0)"/></svg>