<svg xmlns="http://www.w3.org/2000/svg" width="1em" height="1em" viewBox="0 0 48 48"><g fill="none" stroke="currentColor" stroke-linecap="round" stroke-width="4"><path fill="currentColor" fill-rule="evenodd" d="M21 40a15.95 15.95 0 0 0 11.314-4.686A15.95 15.95 0 0 0 37 24a15.95 15.95 0 0 0-4.686-11.314A15.95 15.95 0 0 0 21 8a15.95 15.95 0 0 0-11.314 4.686A15.95 15.95 0 0 0 5 24a15.95 15.95 0 0 0 4.686 11.314A15.95 15.95 0 0 0 21 40Z" clip-rule="evenodd"/><path d="M36.557 39.556A21.932 21.932 0 0 0 43 24a21.932 21.932 0 0 0-6.443-15.556"/></g></svg>