<svg xmlns="http://www.w3.org/2000/svg" width="1em" height="1em" viewBox="0 0 48 48"><defs><mask id="ipSIMac0"><g fill="none"><path fill="#fff" stroke="#fff" stroke-linejoin="round" stroke-width="4" d="M4 6h40v22H4z"/><path stroke="#fff" stroke-linecap="round" stroke-linejoin="round" stroke-width="4" d="M44 28v8H4v-8"/><path fill="#000" d="M13.09 18h-2.18a.91.91 0 0 0-.91.91v2.18c0 .503.407.91.91.91h2.18a.91.91 0 0 0 .91-.91v-2.18a.91.91 0 0 0-.91-.91m0-6h-2.18a.91.91 0 0 0-.91.91v2.18c0 .503.407.91.91.91h2.18a.91.91 0 0 0 .91-.91v-2.18a.91.91 0 0 0-.91-.91m8 6h-2.18a.91.91 0 0 0-.91.91v2.18c0 .503.407.91.91.91h2.18a.91.91 0 0 0 .91-.91v-2.18a.91.91 0 0 0-.91-.91m0-6h-2.18a.91.91 0 0 0-.91.91v2.18c0 .503.407.91.91.91h2.18a.91.91 0 0 0 .91-.91v-2.18a.91.91 0 0 0-.91-.91m8 6h-2.18a.91.91 0 0 0-.91.91v2.18c0 .503.407.91.91.91h2.18a.91.91 0 0 0 .91-.91v-2.18a.91.91 0 0 0-.91-.91m0-6h-2.18a.91.91 0 0 0-.91.91v2.18c0 .503.407.91.91.91h2.18a.91.91 0 0 0 .91-.91v-2.18a.91.91 0 0 0-.91-.91m8 0h-2.18a.91.91 0 0 0-.91.91v2.18c0 .503.407.91.91.91h2.18a.91.91 0 0 0 .91-.91v-2.18a.91.91 0 0 0-.91-.91"/><path stroke="#fff" stroke-linecap="round" stroke-linejoin="round" stroke-width="4" d="M20.846 36L16 42h16l-4.846-6"/></g></mask></defs><path fill="currentColor" d="M0 0h48v48H0z" mask="url(#ipSIMac0)"/></svg>