<svg xmlns="http://www.w3.org/2000/svg" width="1em" height="1em" viewBox="0 0 48 48"><defs><mask id="ipSPowerSupply0"><g fill="none" stroke-linecap="round" stroke-linejoin="round" stroke-width="4"><path fill="#fff" stroke="#fff" d="M32.297 6H15.704a1 1 0 0 0-.942.662l-6.67 18.581a1 1 0 0 0-.04.525l1.793 9.42a1 1 0 0 0 .982.812h26.346a1 1 0 0 0 .982-.813l1.794-9.419a1 1 0 0 0-.041-.525l-6.67-18.58A1 1 0 0 0 32.297 6"/><path stroke="#fff" d="M24 36v8"/><path stroke="#000" d="M24 12v6m-7.5 5.402l3 5.196m12-5.196l-3 5.196"/></g></mask></defs><path fill="currentColor" d="M0 0h48v48H0z" mask="url(#ipSPowerSupply0)"/></svg>