<svg xmlns="http://www.w3.org/2000/svg" width="1em" height="1em" viewBox="0 0 48 48"><defs><mask id="ipSRepositioning0"><g fill="none" stroke-linecap="round" stroke-linejoin="round" stroke-width="4"><path fill="#fff" stroke="#fff" d="M33 22c0 7-9 13-9 13s-9-6-9-13a9 9 0 0 1 18 0"/><path fill="#000" stroke="#000" d="M24 25a3 3 0 1 0 0-6a3 3 0 0 0 0 6"/><path stroke="#fff" d="M9 14s7.5-11.5 20.5-7S42 24.5 42 24.5M42 8v16m-3 10s-6 11-19.5 7.5S6 24 6 24m0 0v16"/></g></mask></defs><path fill="currentColor" d="M0 0h48v48H0z" mask="url(#ipSRepositioning0)"/></svg>