<svg xmlns="http://www.w3.org/2000/svg" width="1em" height="1em" viewBox="0 0 48 48"><defs><mask id="ipSRoadCone0"><g fill="none"><path fill="#fff" d="M27 6h-6l-1.25 4.5L18.5 15L16 24l-2.5 9l-1.25 4.5L11 42h26l-1.5-5.4L32 24l-2.5-9l-1.25-4.5z"/><path stroke="#fff" stroke-linecap="round" stroke-linejoin="round" stroke-width="4" d="m37 42l-1.5-5.4L32 24l-2.5-9l-1.25-4.5L27 6h-6l-1.25 4.5L18.5 15L16 24l-2.5 9l-1.25 4.5L11 42m26 0H11zm0 0H6h5zm0 0h5z"/><path stroke="#000" stroke-linecap="round" stroke-linejoin="round" stroke-width="4" d="M13.5 33h21M32 24H16m13.5-9h-11"/><path stroke="#fff" stroke-linecap="round" stroke-linejoin="round" stroke-width="4" d="m28.25 10.5l7.25 26.1m-23.25.9l7.5-27"/></g></mask></defs><path fill="currentColor" d="M0 0h48v48H0z" mask="url(#ipSRoadCone0)"/></svg>