<svg xmlns="http://www.w3.org/2000/svg" width="1em" height="1em" viewBox="0 0 48 48"><g fill="none" stroke="currentColor" stroke-width="4"><path fill="currentColor" stroke-linejoin="round" d="M10 30h6a6 6 0 0 1 0 12h-6z"/><path stroke-linecap="round" stroke-linejoin="round" d="M10 28v16M4 32h6m-6 6h6m12-2h8a2 2 0 0 0 2-2V23m0-19v7m-9.121-3.121l4.243 4.243m-4.243 12.999l4.243-4.242m13.999-13l-4.242 4.243m4.242 12.999L36.88 20.88"/><circle cx="32" cy="17" r="6" fill="currentColor"/><path stroke-linecap="round" stroke-linejoin="round" d="M20 17h6m12 0h6"/></g></svg>