<svg xmlns="http://www.w3.org/2000/svg" width="1em" height="1em" viewBox="0 0 24 24"><g fill="none"><circle cx="17" cy="7" r="3" fill="currentColor" opacity=".16"/><circle cx="7" cy="17" r="3" fill="currentColor" opacity=".16"/><path fill="currentColor" d="M14 14h6v5a1 1 0 0 1-1 1h-4a1 1 0 0 1-1-1zM4 4h6v5a1 1 0 0 1-1 1H5a1 1 0 0 1-1-1z" opacity=".16"/><circle cx="17" cy="7" r="3" stroke="currentColor" stroke-linecap="round" stroke-linejoin="round" stroke-width="2"/><circle cx="7" cy="17" r="3" stroke="currentColor" stroke-linecap="round" stroke-linejoin="round" stroke-width="2"/><path stroke="currentColor" stroke-linecap="round" stroke-linejoin="round" stroke-width="2" d="M14 14h6v5a1 1 0 0 1-1 1h-4a1 1 0 0 1-1-1zM4 4h6v5a1 1 0 0 1-1 1H5a1 1 0 0 1-1-1z"/></g></svg>