<svg xmlns="http://www.w3.org/2000/svg" width="1em" height="1em" viewBox="0 0 24 24"><g fill="none"><path fill="currentColor" fill-rule="evenodd" d="M12 21a9 9 0 1 0 0-18a9 9 0 0 0 0 18m3-12l-3.693.739a2 2 0 0 0-1.568 1.568L9 15l3.693-.739a2 2 0 0 0 1.569-1.568z" clip-rule="evenodd" opacity=".16"/><circle cx="12" cy="12" r="9" stroke="currentColor" stroke-linecap="round" stroke-linejoin="round" stroke-width="2"/><path stroke="currentColor" stroke-linecap="round" stroke-linejoin="round" stroke-width="2" d="M11.307 9.739L15 9l-.739 3.693a2 2 0 0 1-1.568 1.569L9 15l.739-3.693a2 2 0 0 1 1.568-1.568"/></g></svg>