<svg xmlns="http://www.w3.org/2000/svg" width="1em" height="1em" viewBox="0 0 24 24"><g fill="none"><path fill="currentColor" d="m15 14l-.74.123a.75.75 0 0 1 .74-.873zM4 14v.75a.75.75 0 0 1-.75-.75zm16.522-2.392l.735-.147zM6 3.25h11.36v1.5H6zm12.56 11.5H15v-1.5h3.56zm-2.82-.873l.806 4.835l-1.48.247l-.806-4.836zm-.92 6.873h-.214v-1.5h.213zm-3.335-1.67L8.97 15.307l1.248-.832l2.515 3.773zM7.93 14.75H4v-1.5h3.93zM3.25 14V6h1.5v8zm16.807-8.54l1.2 6l-1.47.295l-1.2-6zM8.97 15.308a1.25 1.25 0 0 0-1.04-.557v-1.5c.92 0 1.778.46 2.288 1.225zm7.576 3.405a1.75 1.75 0 0 1-1.726 2.038v-1.5a.25.25 0 0 0 .246-.291zm2.014-5.462a1.25 1.25 0 0 0 1.226-1.495l1.471-.294a2.75 2.75 0 0 1-2.697 3.289zm-1.2-10a2.75 2.75 0 0 1 2.697 2.21l-1.47.295A1.25 1.25 0 0 0 17.36 4.75zm-2.754 17.5a3.75 3.75 0 0 1-3.12-1.67l1.247-.832a2.25 2.25 0 0 0 1.873 1.002zM6 4.75c-.69 0-1.25.56-1.25 1.25h-1.5A2.75 2.75 0 0 1 6 3.25z"/><path stroke="currentColor" stroke-width="1.5" d="M8 14V4"/></g></svg>