<svg xmlns="http://www.w3.org/2000/svg" width="1em" height="1em" viewBox="0 0 24 24"><path fill="currentColor" d="M8.884 6.884a1.25 1.25 0 1 0-1.768-1.768zM5 9l-.884-.884a1.25 1.25 0 0 0 0 1.768zm2.116 3.884a1.25 1.25 0 1 0 1.768-1.768zM5 15.75a1.25 1.25 0 0 0 0 2.5zM7.116 5.116l-3 3l1.768 1.768l3-3zm-3 4.768l3 3l1.768-1.768l-3-3zM5 10.25h11v-2.5H5zM18.75 13A2.75 2.75 0 0 1 16 15.75v2.5c2.9 0 5.25-2.35 5.25-5.25zM16 10.25A2.75 2.75 0 0 1 18.75 13h2.5c0-2.9-2.35-5.25-5.25-5.25zm-11 8h11v-2.5H5z"/></svg>