<svg xmlns="http://www.w3.org/2000/svg" width="1em" height="1em" viewBox="0 0 24 24"><g fill="none"><path fill="currentColor" d="M5 3h14v18l-1.032-.884a2 2 0 0 0-2.603 0L14.333 21l-1.031-.884a2 2 0 0 0-2.604 0L9.667 21l-1.032-.884a2 2 0 0 0-2.603 0L5 21z" opacity=".16"/><path stroke="currentColor" stroke-linecap="round" stroke-linejoin="round" stroke-width="2" d="M5 3h14v18l-1.032-.884a2 2 0 0 0-2.603 0L14.333 21l-1.031-.884a2 2 0 0 0-2.604 0L9.667 21l-1.032-.884a2 2 0 0 0-2.603 0L5 21zm10 4H9m6 4H9m6 4h-4"/></g></svg>