<svg xmlns="http://www.w3.org/2000/svg" width="1em" height="1em" viewBox="0 0 24 24"><g fill="none"><path fill="currentColor" d="M9 11a3 3 0 0 0 4.562 2.562L9 9z" opacity=".16"/><path stroke="currentColor" stroke-linecap="round" stroke-linejoin="round" stroke-width="2" d="M19 11c0 .71-.106 1.395-.302 2.04M12 18a7 7 0 0 1-7-7m7 7v3m0-3a6.97 6.97 0 0 0 4.425-1.576M9.714 4.057A3 3 0 0 1 15 6v3.343M9 9v2a3 3 0 0 0 4.562 2.562"/><path stroke="currentColor" stroke-linecap="round" stroke-width="2" d="m4 4l16 16"/></g></svg>