<svg xmlns="http://www.w3.org/2000/svg" width="1em" height="1em" viewBox="0 0 24 24"><g fill="none"><path stroke="currentColor" stroke-linecap="round" stroke-linejoin="round" d="M4 4.001h16v14a2 2 0 0 1-2 2H6a2 2 0 0 1-2-2z"/><path fill="currentColor" d="M13.418 7.274a.5.5 0 0 0-.836-.548zm-4.361 4.831a.5.5 0 1 0 .836.548zM14.5 14a2.5 2.5 0 0 1-2.5 2.5v1a3.5 3.5 0 0 0 3.5-3.5zM12 16.5A2.5 2.5 0 0 1 9.5 14h-1a3.5 3.5 0 0 0 3.5 3.5zM9.5 14a2.5 2.5 0 0 1 2.5-2.5v-1A3.5 3.5 0 0 0 8.5 14zm2.5-2.5a2.5 2.5 0 0 1 2.5 2.5h1a3.5 3.5 0 0 0-3.5-3.5zm.582-4.774l-3.525 5.38l.836.547l3.525-5.379z"/></g></svg>