<svg xmlns="http://www.w3.org/2000/svg" width="1em" height="1em" viewBox="0 0 24 24"><g fill="none"><circle cx="12" cy="12" r="9" fill="currentColor" opacity=".16"/><circle cx="12" cy="12" r="9" stroke="currentColor" stroke-linecap="round" stroke-linejoin="round" stroke-width="2"/><path fill="currentColor" d="M13.836 7.548a1 1 0 1 0-1.672-1.096zM8.64 11.831a1 1 0 0 0 1.672 1.096zM14 14a2 2 0 0 1-2 2v2a4 4 0 0 0 4-4zm-2 2a2 2 0 0 1-2-2H8a4 4 0 0 0 4 4zm-2-2a2 2 0 0 1 2-2v-2a4 4 0 0 0-4 4zm2-2a2 2 0 0 1 2 2h2a4 4 0 0 0-4-4zm.164-5.548l-3.525 5.38l1.672 1.095l3.525-5.379z"/></g></svg>