<svg xmlns="http://www.w3.org/2000/svg" width="1em" height="1em" viewBox="0 0 24 24"><g fill="none"><path fill="currentColor" d="M3 3V2a1 1 0 0 0-1 1zm15.293 11.293l-.911-.412A1 1 0 0 0 17.586 15zM21 17l.707.707a1 1 0 0 0 0-1.414zm-4 4l-.707.707a1 1 0 0 0 1.414 0zm-2.707-2.707l.707-.707a1 1 0 0 0-1.12-.204zM11 2H3v2h8zm9 9a9 9 0 0 0-9-9v2a7 7 0 0 1 7 7zm-.796 3.705A8.97 8.97 0 0 0 20 11h-2a6.971 6.971 0 0 1-.618 2.88zM17.586 15l2.707 2.707l1.414-1.414L19 13.586zm2.707 1.293l-4 4l1.414 1.414l4-4zm-2.586 4L15 17.586L13.586 19l2.707 2.707zM11 20a8.971 8.971 0 0 0 3.705-.796l-.824-1.822A6.97 6.97 0 0 1 11 18zm-9-9a9 9 0 0 0 9 9v-2a7 7 0 0 1-7-7zm0-8v8h2V3z"/><circle cx="11" cy="11" r="2" fill="currentColor" transform="rotate(-180 11 11)"/><path stroke="currentColor" stroke-linecap="round" stroke-linejoin="round" stroke-width="2" d="m3 3l8 8"/></g></svg>