<svg xmlns="http://www.w3.org/2000/svg" width="1em" height="1em" viewBox="0 0 24 24"><g fill="none"><path fill="currentColor" d="M16 5a2 2 0 1 1 4 0a2 2 0 0 1-4 0m0 14a2 2 0 1 1 3.998-.002A2 2 0 0 1 16 19M4 12a2 2 0 1 1 4 0a2 2 0 0 1-4 0" opacity=".16"/><path stroke="currentColor" stroke-linecap="round" stroke-linejoin="round" stroke-width="2" d="M16.272 6.008A2 2 0 0 0 20 5a2 2 0 1 0-3.728 1.008m0 0l-8.544 4.984m0 0a2 2 0 1 0 0 2.016m0-2.016a2 2 0 0 1 0 2.016m0 0l8.544 4.984m0 0a2 2 0 1 1 3.454 2.014a2 2 0 0 1-3.454-2.014"/></g></svg>