<svg xmlns="http://www.w3.org/2000/svg" width="1em" height="1em" viewBox="0 0 24 24"><g fill="none"><path fill="currentColor" d="m18.339 15.119l-10.355.74a2 2 0 0 1-2.137-1.842L5.231 6H21l-.816 7.345a2 2 0 0 1-1.845 1.774" opacity=".16"/><path fill="currentColor" d="M3 2a1 1 0 0 0 0 2zm2 1l.997-.077A1 1 0 0 0 5 2zm16 3l.994.11A1 1 0 0 0 21 5zM5.23 6l-.996.077zm13.109 9.119l.07.997zm-10.355.74l-.071-.998zM3 4h2V2H3zm5.055 12.856l10.355-.74l-.143-1.995l-10.354.74zm13.123-3.401l.816-7.345l-1.988-.22l-.816 7.344zM4.003 3.077l.23 3l1.995-.154l-.23-3zm.23 3l.617 8.017l1.995-.154l-.617-8.017zM21 5H5.23v2H21zm-2.59 11.116a3 3 0 0 0 2.768-2.661l-1.988-.22a1 1 0 0 1-.923.886zM7.913 14.861a1 1 0 0 1-1.069-.92l-1.994.152a3 3 0 0 0 3.205 2.763z"/><path stroke="currentColor" stroke-linecap="round" stroke-linejoin="round" stroke-width="2" d="M11.5 11h3"/><path stroke="currentColor" stroke-linejoin="round" stroke-width="3" d="M17.5 20.5h.01v.01h-.01zm-9 0h.01v.01H8.5z"/></g></svg>