<svg xmlns="http://www.w3.org/2000/svg" width="1em" height="1em" viewBox="0 0 24 24"><path fill="currentColor" fill-rule="evenodd" d="M2 11.999c0-5.523 4.477-10 10-10s10 4.477 10 10s-4.477 10-10 10s-10-4.477-10-10M12 6.5A1.5 1.5 0 0 0 10.5 8v.01a1.5 1.5 0 0 0 1.5 1.5h.01a1.5 1.5 0 0 0 1.5-1.5V8a1.5 1.5 0 0 0-1.5-1.5zm0 8a1.5 1.5 0 0 0-1.5 1.5v.01a1.5 1.5 0 0 0 1.5 1.5h.01a1.5 1.5 0 0 0 1.5-1.5V16a1.5 1.5 0 0 0-1.5-1.5zM8 12a1 1 0 0 1 1-1h6a1 1 0 0 1 0 2H9a1 1 0 0 1-1-1" clip-rule="evenodd"/></svg>