<svg xmlns="http://www.w3.org/2000/svg" width="1em" height="1em" viewBox="0 0 24 24"><path fill="currentColor" d="M3 10H1.75c0 .69.56 1.25 1.25 1.25zm0 4v-1.25c-.69 0-1.25.56-1.25 1.25zm18-4v1.25c.69 0 1.25-.56 1.25-1.25zm0 4h1.25c0-.69-.56-1.25-1.25-1.25zM5 6.25h5v-2.5H5zm5 0h9v-2.5h-9zm9 11.5h-9v2.5h9zm-9 0H5v2.5h5zM8.75 5v14h2.5V5zm-5.22 6.47a.75.75 0 0 1 0 1.06l1.768 1.768a3.25 3.25 0 0 0 0-4.596zm16.94 1.06a.75.75 0 0 1 0-1.06l-1.768-1.768a3.25 3.25 0 0 0 0 4.596zM3 11.25a.74.74 0 0 1 .53.22l1.768-1.768A3.244 3.244 0 0 0 3 8.75zM4.25 10V7h-2.5v3zm0 7v-3h-2.5v3zm-.72-4.47a.744.744 0 0 1-.53.22v2.5c.83 0 1.664-.318 2.298-.952zm16.94-1.06a.744.744 0 0 1 .53-.22v-2.5c-.83 0-1.664.318-2.298.952zM19.75 7v3h2.5V7zm0 7v3h2.5v-3zM21 12.75a.744.744 0 0 1-.53-.22l-1.768 1.768A3.244 3.244 0 0 0 21 15.25zm-16 5a.75.75 0 0 1-.75-.75h-2.5A3.25 3.25 0 0 0 5 20.25zm14 2.5A3.25 3.25 0 0 0 22.25 17h-2.5a.75.75 0 0 1-.75.75zm0-14a.75.75 0 0 1 .75.75h2.5A3.25 3.25 0 0 0 19 3.75zM5 3.75A3.25 3.25 0 0 0 1.75 7h2.5A.75.75 0 0 1 5 6.25z"/></svg>