<svg xmlns="http://www.w3.org/2000/svg" width="1em" height="1em" viewBox="0 0 512 512"><path fill="currentColor" d="M149.3 0h-42.7v64h42.7zm256 0h-42.7v64h42.7zM234.7 384H192V192l-85.3 21.3v32l42.7-10.7V384h-42.7v21.3h128zm192-384v85.3h-85.3V0H170.7v85.3H85.3V0H0v512h512V0zm42.6 469.3H42.7V128h426.7v341.3zm-149.3-64c53.3 0 85.3-42.7 85.3-106.7S373.3 192 320 192c-53.4 0-85.3 42.7-85.3 106.7s32 106.6 85.3 106.6m0-181.3c21.3 0 32 32 32 74.7s-10.7 74.7-32 74.7s-32-32-32-74.7s10.7-74.7 32-74.7"/></svg>