<svg xmlns="http://www.w3.org/2000/svg" width="1em" height="1em" viewBox="0 0 512 512"><path fill="currentColor" d="M426.7 341.3c-29.1 0-54.8 14.6-70.2 36.9L167.4 278.1c1.9-7.1 3.3-14.4 3.3-22.1c0-7.7-1.3-15-3.3-22.1l189.1-100.1c15.4 22.3 41 36.9 70.2 36.9c47.1 0 85.3-38.2 85.3-85.3S473.8 0 426.7 0s-85.3 38.2-85.3 85.3c0 .8.2 1.6.2 2.4l-199 105.4c-15.1-13.8-35.1-22.4-57.2-22.4C38.2 170.6 0 208.9 0 256s38.2 85.3 85.3 85.3c22.1 0 42-8.6 57.2-22.4l199 105.4c0 .9-.2 1.6-.2 2.4c0 47.1 38.2 85.3 85.3 85.3s85.3-38.2 85.3-85.3s-38.1-85.4-85.2-85.4m0-298.6c23.5 0 42.7 19.1 42.7 42.7c0 23.5-19.1 42.7-42.7 42.7c-23.5 0-42.7-19.1-42.7-42.7s19.1-42.7 42.7-42.7m-341.4 256c-23.5 0-42.7-19.1-42.7-42.7c0-23.5 19.1-42.7 42.7-42.7c23.5 0 42.7 19.1 42.7 42.7c0 23.5-19.1 42.7-42.7 42.7m341.4 170.6c-23.5 0-42.7-19.1-42.7-42.7c0-23.5 19.1-42.7 42.7-42.7c23.5 0 42.7 19.1 42.7 42.7c-.1 23.6-19.2 42.7-42.7 42.7"/></svg>