<svg xmlns="http://www.w3.org/2000/svg" width="1em" height="1em" viewBox="0 0 24 24"><mask id="lineMdPhoneOff0"><path fill="none" fill-opacity="0" stroke="#fff" stroke-dasharray="64" stroke-dashoffset="64" stroke-linecap="round" stroke-linejoin="round" stroke-width="2" d="M8 3C8.5 3 10.5 7.5 10.5 8C10.5 9 9 10 8.5 11C8 12 9 13 10 14C10.3943 14.3943 12 16 13 15.5C14 15 15 13.5 16 13.5C16.5 13.5 21 15.5 21 16C21 18 19.5 19.5 18 20C16.5 20.5 15.5 20.5 13.5 20C11.5 19.5 10 19 7.5 16.5C5 14 4.5 12.5 4 10.5C3.5 8.5 3.5 7.5 4 6C4.5 4.5 6 3 8 3Z"><animate fill="freeze" attributeName="stroke-dashoffset" dur="0.6s" values="64;0"/></path><g fill="none" stroke-dasharray="26" stroke-dashoffset="26" stroke-linecap="round" stroke-width="2" transform="rotate(135 12 12)"><path stroke="#000" d="M1 11h24"/><path stroke="#fff" d="M1 13h22"/><animate fill="freeze" attributeName="stroke-dashoffset" begin=".7" dur="0.2s" values="26;0"/></g></mask><rect width="24" height="24" fill="currentColor" mask="url(#lineMdPhoneOff0)"/></svg>