<svg xmlns="http://www.w3.org/2000/svg" width="1em" height="1em" viewBox="0 0 32 32"><path fill="currentColor" d="M30 19.092v12.88H2v-5.386l6.747-6.747l.708.708c.236.236.48.463.733.68L4 27.414v2.558h24v-8.91c.186-.166.369-.339.546-.516zm-20.85-3.19A10.955 10.955 0 0 1 8 11C8 4.925 12.925 0 19 0s11 4.925 11 11c0 1.76-.414 3.425-1.15 4.9l-1.51-1.51A8.973 8.973 0 0 0 28 11a9 9 0 1 0-17.34 3.391z"/><path fill="currentColor" d="M19 20a8.96 8.96 0 0 0 5.618-1.968l-4.202-4.204a2 2 0 0 0-2.828 0l-4.205 4.205A8.96 8.96 0 0 0 19 20m-2.826-7.586a4 4 0 0 1 5.656 0l5.656 5.657l-.707.707A10.967 10.967 0 0 1 19 22a10.967 10.967 0 0 1-7.778-3.221l-.707-.707z" class="ouiIcon__fillSecondary"/></svg>