<svg xmlns="http://www.w3.org/2000/svg" width="1em" height="1em" viewBox="0 0 16 16"><path fill="currentColor" d="M4.934 3.063a1.5 1.5 0 0 1 .547.321l.112.115l6.07 6.915a1.5 1.5 0 0 1-.646 2.41l-.142.04l-9.031 2.097A1.5 1.5 0 0 1 .037 13.19l.043-.159L3.04 4.02a1.5 1.5 0 0 1 1.893-.957M4.027 4.25l-.036.083l-2.961 9.011a.5.5 0 0 0 .498.656l.09-.013l2.937-.681l-1.399-1.508a.5.5 0 0 1 .666-.74l.067.06l1.788 1.927l2.634-.611l-3.198-3.601a.5.5 0 0 1 .682-.726l.066.062l3.559 4.007l1.229-.284a.5.5 0 0 0 .15-.063l.067-.049a.5.5 0 0 0 .099-.632l-.053-.073l-6.07-6.916a.5.5 0 0 0-.138-.11l-.082-.035l-.088-.02a.5.5 0 0 0-.507.256m11.66 5.039a2.5 2.5 0 0 1-.975 3.399a.5.5 0 0 1-.485-.875a1.5 1.5 0 0 0-1.454-2.624a.5.5 0 0 1-.485-.875a2.5 2.5 0 0 1 3.399.975m-5.03-6.206a.5.5 0 0 1 .338.544l-.02.088l-.677 2.035l2.068-.721a.5.5 0 0 1 .6.225l.036.082a.5.5 0 0 1-.225.6l-.082.037L9.67 7.028a.5.5 0 0 1-.659-.55l.02-.08l.995-3a.5.5 0 0 1 .632-.316M14.5 4a.5.5 0 1 1 0 1a.5.5 0 0 1 0-1M7.862.403a2.5 2.5 0 0 1 .735 3.459a.5.5 0 0 1-.839-.545a1.5 1.5 0 1 0-2.516-1.634a.5.5 0 0 1-.839-.545A2.5 2.5 0 0 1 7.862.403M13.5 2a.5.5 0 1 1 0 1a.5.5 0 0 1 0-1m-3-1a.5.5 0 1 1 0 1a.5.5 0 0 1 0-1m4-1a.5.5 0 1 1 0 1a.5.5 0 0 1 0-1"/></svg>