<svg xmlns="http://www.w3.org/2000/svg" width="1em" height="1em" viewBox="0 0 16 16"><path fill="currentColor" d="M5.822 1.874a.5.5 0 1 1 .335.942a5.517 5.517 0 0 0-3.34 3.341a.5.5 0 1 1-.943-.335a6.517 6.517 0 0 1 3.948-3.948M1.864 10.15a.5.5 0 1 1 .944-.33a5.517 5.517 0 0 0 3.365 3.37a.5.5 0 0 1-.333.943a6.517 6.517 0 0 1-3.976-3.983m8.302 3.981a.5.5 0 1 1-.333-.943a5.517 5.517 0 0 0 3.347-3.332a.5.5 0 1 1 .941.337a6.517 6.517 0 0 1-3.955 3.938m3.968-8.285a.5.5 0 1 1-.943.331A5.517 5.517 0 0 0 9.85 2.82a.5.5 0 0 1 .337-.942a6.517 6.517 0 0 1 3.946 3.968M8.5 3.5a.5.5 0 0 1-1 0V.997a.5.5 0 0 1 1 0zm-4.997 4a.5.5 0 0 1 0 1H1a.5.5 0 0 1 0-1zM7.5 12.497a.5.5 0 0 1 1 0V15a.5.5 0 1 1-1 0zM12.497 8.5a.5.5 0 0 1 0-1H15a.5.5 0 1 1 0 1zM8 9a1 1 0 1 1 0-2a1 1 0 0 1 0 2"/></svg>