<svg xmlns="http://www.w3.org/2000/svg" width="1em" height="1em" viewBox="0 0 16 16"><path fill="currentColor" d="M9.035 9A3.5 3.5 0 0 1 15 7.05V4.5c0-1.072-.648-1.72-2.098-2.01a.5.5 0 0 1 .196-.98C14.981 1.886 16 2.905 16 4.5v4.25c0 .072-.015.14-.043.202A3.5 3.5 0 1 1 9.035 10h-2.07A3.5 3.5 0 1 1 .043 8.952A.498.498 0 0 1 0 8.75V4.5c0-1.595 1.019-2.614 2.902-2.99a.5.5 0 0 1 .196.98C1.648 2.78 1 3.428 1 4.5v2.55A3.5 3.5 0 0 1 6.965 9zM3.5 12a2.5 2.5 0 1 0 0-5a2.5 2.5 0 0 0 0 5m9 0a2.5 2.5 0 1 0 0-5a2.5 2.5 0 0 0 0 5"/></svg>