<svg xmlns="http://www.w3.org/2000/svg" width="1em" height="1em" viewBox="0 0 16 16"><path fill="currentColor" d="M15 9a1 1 0 0 1 .993.883L16 10v5a1 1 0 0 1-.883.993L15 16H7a1 1 0 0 1-.993-.883L6 15v-5a1 1 0 0 1 .883-.993L7 9zM2.5 10a.5.5 0 0 1 .492.41L3 10.5V12h1.5a.5.5 0 0 1 .09.992L4.5 13H3v1.5a.5.5 0 0 1-.992.09L2 14.5V13H.5a.5.5 0 0 1-.09-.992L.5 12H2v-1.5a.5.5 0 0 1 .5-.5M15 10H7v5h8zm-1 3v1H8v-1zm1-13a1 1 0 0 1 1 1v5a1 1 0 0 1-1 1H1a1 1 0 0 1-1-1V1a1 1 0 0 1 1-1zm0 1H1v5h14zM8 4v1H2V4z"/></svg>