<svg xmlns="http://www.w3.org/2000/svg" width="1em" height="1em" viewBox="0 0 16 16"><path fill="currentColor" d="M2.21 4.008h11.55V0h1v4.008h.088c.619 0 1.122.504 1.122 1.123V7.49c0 .62-.503 1.122-1.122 1.122H1.122A1.122 1.122 0 0 1 0 7.49V5.13c0-.618.503-1.122 1.122-1.122h.089V0h1zm11.549 1H1.12A.123.123 0 0 0 1 5.13v2.36c0 .068.055.122.122.122h13.725a.122.122 0 0 0 .122-.122V5.13a.123.123 0 0 0-.122-.122zm-5.301 9.097l2.405-2.26l.686.728l-3.58 3.363l-3.58-3.363l.686-.728l2.383 2.24V9.578h1z"/></svg>