<svg xmlns="http://www.w3.org/2000/svg" width="1em" height="1em" viewBox="0 0 16 16"><path fill="currentColor" d="M8 14A6 6 0 1 1 8 2a6 6 0 0 1 0 12m0-1A5 5 0 1 0 8 3a5 5 0 0 0 0 10m-.186-1.065A.785.785 0 0 1 7 11.12c0-.48.34-.82.814-.82c.475 0 .809.34.809.82c0 .475-.334.815-.809.815M5.9 6.317C5.96 5.168 6.755 4.4 8.048 4.4c1.218 0 2.091.759 2.091 1.8c0 .736-.36 1.304-1.03 1.707c-.56.33-.717.56-.717 1.022v.305l-.1.1H7.47l-.1-.1v-.431c-.005-.646.302-1.104.987-1.514c.527-.322.708-.59.708-1.047c0-.536-.416-.91-1.05-.91c-.652 0-1.064.374-1.112.998l-.1.092H6z"/></svg>