<svg xmlns="http://www.w3.org/2000/svg" width="1em" height="1em" viewBox="0 0 16 16"><path fill="currentColor" fill-rule="evenodd" d="M7.684.895L6.074.358a1 1 0 0 0-1.296.753L4.2 4H2.5a.5.5 0 0 0 0 1h1.626a4.007 4.007 0 0 0 .11 2.359l-2.072-.345A1 1 0 0 0 1 8v1c.364 0 .706.097 1 .268V8l1 .167l1.859.31l2.163.36l.478.08v6L2 14v-1.268A1.99 1.99 0 0 1 1 13v1a1 1 0 0 0 .836.986l6 1c.108.018.22.018.328 0l6-1A1 1 0 0 0 15 14v-1a1.99 1.99 0 0 1-1-.268V14l-5.5.917v-6l.478-.08l2.163-.36L13 8.166L14 8v1.268A1.99 1.99 0 0 1 15 9V8a1 1 0 0 0-1.164-.986l-2.073.345A3.991 3.991 0 0 0 11.874 5H13.5a.5.5 0 0 0 0-1h-1.7l-.578-2.89A1 1 0 0 0 9.925.359L8.316.895a1 1 0 0 1-.632 0m2.88 6.664A3.013 3.013 0 0 0 10.83 5H5.17a3.013 3.013 0 0 0 .266 2.559L8 7.986zM10.8 4H9.2L9 3l1.5-.5zM1 12a1 1 0 1 0 0-2a1 1 0 0 0 0 2m14 0a1 1 0 1 0 0-2a1 1 0 0 0 0 2"/></svg>