<svg xmlns="http://www.w3.org/2000/svg" width="1em" height="1em" viewBox="0 0 16 16"><path fill="currentColor" fill-rule="evenodd" d="M6 2a.86.86 0 0 0-.792.511l-1.33 2.924l-3.128.446c-.71.102-1.001.976-.496 1.487l2.313 2.336l-.563 3.268A.877.877 0 0 0 2.864 14a.86.86 0 0 0 .429-.116L6 12.343l2.707 1.542c.14.08.287.116.43.116a.877.877 0 0 0 .859-1.027l-.563-3.269l2.313-2.336c.505-.511.214-1.385-.496-1.487l-3.128-.446l-1.33-2.923A.86.86 0 0 0 6 2m8 8h2v1h-2v2h-1v-2h-2v-1h2V8h1zM6 3c.073 0 .095.049.104.07l1.267 2.783l.162.356l.387.055l2.978.425a.11.11 0 0 1 .095.08a.116.116 0 0 1-.029.126L8.762 9.121l-.259.261l.063.362l.535 3.112c.007.04 0 .07-.023.098a.127.127 0 0 1-.091.046a.106.106 0 0 1-.055-.016l-2.578-1.469L6 11.314l-.354.201l-2.579 1.469a.103.103 0 0 1-.054.016a.127.127 0 0 1-.091-.046a.115.115 0 0 1-.024-.098l.536-3.112l.063-.362l-.259-.261l-2.202-2.226a.116.116 0 0 1-.029-.126a.108.108 0 0 1 .094-.08l2.98-.425l.386-.055l.162-.356l1.267-2.786C5.905 3.05 5.927 3 6 3"/></svg>