<svg xmlns="http://www.w3.org/2000/svg" width="1em" height="1em" viewBox="0 0 16 16"><path fill="currentColor" d="M16 3v11a2 2 0 0 1-2 2H2a2 2 0 0 1-2-2V2a2 2 0 0 1 2-2h12a2 2 0 0 1 2 2zm-1 0V2a1 1 0 0 0-1-1H2a1 1 0 0 0-1 1v1zm0 1H1v10a1 1 0 0 0 1 1h12a1 1 0 0 0 1-1zM4.5 6a.5.5 0 0 1 0 1H2.496a.5.5 0 1 1 0-1zm5.214 0c.158 0 .286.224.286.5s-.128.5-.286.5H6.286C6.128 7 6 6.776 6 6.5s.128-.5.286-.5zM4.5 9a.5.5 0 0 1 0 1H2.496a.5.5 0 1 1 0-1zm5.214 0c.158 0 .286.224.286.5s-.128.5-.286.5H6.286C6.128 10 6 9.776 6 9.5s.128-.5.286-.5zM4.5 12a.5.5 0 1 1 0 1H2.496a.5.5 0 1 1 0-1zm9-6a.5.5 0 1 1 0 1h-2.004a.5.5 0 0 1 0-1zm0 3a.5.5 0 1 1 0 1h-2.004a.5.5 0 0 1 0-1zm0 3a.5.5 0 1 1 0 1h-2.004a.5.5 0 0 1 0-1zm-3.786 0c.158 0 .286.224.286.5s-.128.5-.286.5H6.286C6.128 13 6 12.776 6 12.5s.128-.5.286-.5z"/></svg>