<svg xmlns="http://www.w3.org/2000/svg" width="1em" height="1em" viewBox="0 0 16 16"><path fill="currentColor" fill-rule="evenodd" d="M8 3a4.99 4.99 0 0 1 4 2c.628.836 1 1.875 1 3a4.978 4.978 0 0 1-.999 3H12a4.992 4.992 0 0 1-4 2a4.992 4.992 0 0 1-4-1.999V11a5 5 0 0 1 4-8m.948 8H7.052c.277.626.623 1 .948 1c.325 0 .67-.374.948-1M6 11l-.645.001c.274.242.581.446.914.606A5.445 5.445 0 0 1 6 11.001m4.645.001H10a5.51 5.51 0 0 1-.269.606c.333-.16.64-.364.914-.606m-5.133-2.5H4.031a3.98 3.98 0 0 0 .505 1.5h1.172a9.186 9.186 0 0 1-.196-1.5m3.975 0H6.513c.03.544.104 1.05.21 1.5h2.553c.107-.45.182-.956.21-1.5m2.482 0h-1.481a9.186 9.186 0 0 1-.196 1.5h1.172a3.98 3.98 0 0 0 .505-1.5M5.708 6H4.535c-.261.452-.437.96-.504 1.5h1.481A9.187 9.187 0 0 1 5.708 6m3.568 0H6.724a8.357 8.357 0 0 0-.21 1.499h2.973a8.479 8.479 0 0 0-.21-1.5M11.465 6h-1.173c.102.467.17.972.196 1.5h1.481a3.974 3.974 0 0 0-.504-1.5M6.269 4.393l-.124.062c-.286.15-.551.333-.79.545H6a5.51 5.51 0 0 1 .269-.607M8 4c-.326 0-.671.375-.948 1h1.896C8.671 4.376 8.326 4 8 4m1.73.393l.038.071c.083.168.161.347.232.536h.646a4.006 4.006 0 0 0-.915-.607"/></svg>