<svg xmlns="http://www.w3.org/2000/svg" width="1em" height="1em" viewBox="0 0 16 16"><path fill="currentColor" d="M10.5 2c0 .022 0 .043-.002.064l1.559 1.04a1 1 0 1 1-.555.832l-1.559-1.04a.996.996 0 0 1-.702.07L7.466 4.741A1.001 1.001 0 0 1 6.5 6a1 1 0 0 1-.998-1.064l-1.559-1.04a1 1 0 1 1 .555-.832l1.559 1.04a.996.996 0 0 1 .702-.07l1.775-1.775A1.001 1.001 0 0 1 9.5 1a1 1 0 0 1 1 1"/><path fill="currentColor" d="M8.5 13a.5.5 0 0 1-1 0V8.5h-2V13a.5.5 0 0 1-1 0V7.5h-2V13a.5.5 0 0 1-1 0V7.2a.7.7 0 0 1 .7-.7h2.6a.7.7 0 0 1 .7.7v.3h2V6.2a.7.7 0 0 1 .7-.7h2.6a.7.7 0 0 1 .7.7V7h2.3a.7.7 0 0 1 .7.7V13a.5.5 0 0 1-1 0V8h-2v5a.5.5 0 0 1-1 0V6.5h-2zm-8 1.5A.5.5 0 0 1 1 14h14a.5.5 0 0 1 0 1H1a.5.5 0 0 1-.5-.5"/></svg>