<svg xmlns="http://www.w3.org/2000/svg" width="1em" height="1em" viewBox="0 0 100 100"><path fill="currentColor" d="M2.5 12.5A2.5 2.5 0 0 0 0 15v70a2.5 2.5 0 0 0 2.5 2.5h95A2.5 2.5 0 0 0 100 85V15a2.5 2.5 0 0 0-2.5-2.5zm4.768 5h13.65l6.824 11.82l-6.824 11.823H7.268L5 37.215V21.428zm18.267 0h24.99l-5.668 9.82h-13.65zm29.61 0h13.65l6.824 11.82l-6.824 11.823h-13.65L48.32 29.32zm18.267 0H95v5.896l-2.266 3.924h-13.65zM31.207 31.32h13.648l3.415 5.91l3.412 5.913l-6.825 11.82h-13.65l-6.826-11.82zm47.877 0h13.648L95 35.248v15.79l-2.266 3.925h-13.65l-6.826-11.82l3.414-5.913zM7.268 45.143h13.65l3.412 5.91l3.412 5.91l-3.412 5.91l-3.412 5.91H7.268L5 64.855V49.07zm47.877 0h13.65l3.412 5.91l3.412 5.91l-3.412 5.91l-3.412 5.91h-13.65l-3.413-5.91l-3.412-5.91l3.412-5.91zm-23.938 13.82h13.648l2.413 4.178l4.412 7.642L44.918 82.5H31.146l-6.765-11.717l3.412-5.91zm47.877 0h13.648L95 62.89v15.79l-2.205 3.82H79.023l-2.218-3.844l-4.545-7.873zM7.268 72.783h13.65l5.61 9.717H5v-5.79zm47.877 0h13.65l3.412 5.912l2.195 3.805H49.535z" color="currentColor"/></svg>