<svg xmlns="http://www.w3.org/2000/svg" width="1em" height="1em" viewBox="0 0 100 100"><path fill="currentColor" d="M49.932 22.56a4.725 2.593 0 0 0-3.274.76L1.383 48.166a4.725 2.593 0 0 0 0 3.668L46.658 76.68a4.725 2.593 0 0 0 6.684 0l45.275-24.846a4.725 2.593 0 0 0 0-3.668L53.342 23.32a4.725 2.593 0 0 0-3.41-.76M50 28.82l5.768 3.166l-38.592 21.18L11.406 50zm13.043 7.159l4.043 2.218l-38.594 21.18l-4.043-2.219zm11.318 6.21L88.596 50l-10.313 5.66l-14.234-7.81zm-15.51 8.51l14.235 7.813L50 71.18l-14.234-7.81z" color="currentColor"/></svg>