<svg xmlns="http://www.w3.org/2000/svg" width="1em" height="1em" viewBox="0 0 100 100"><path fill="currentColor" fill-rule="evenodd" d="M65.809 5a2.5 2.5 0 0 0-1.03.232L34.166 19.453L3.553 5.233A2.5 2.5 0 0 0 0 7.5v70.29a2.5 2.5 0 0 0 1.447 2.267l31.666 14.71A2.5 2.5 0 0 0 34.19 95a2.5 2.5 0 0 0 1.032-.232l30.613-14.221l30.613 14.22A2.5 2.5 0 0 0 100 92.5V22.21a2.5 2.5 0 0 0-1.447-2.267L66.887 5.233A2.5 2.5 0 0 0 65.809 5m1.142 5.775L95 23.805v64.777L67.322 75.725zm-2.998.354l.37 64.605l-28.677 13.323l-.369-64.606zM5 11.418l27.275 12.67l.371 64.95L5 76.192z" color="currentColor"/></svg>