<svg xmlns="http://www.w3.org/2000/svg" width="1em" height="1em" viewBox="0 0 100 100"><path fill="currentColor" d="M2.5 12.5A2.5 2.5 0 0 0 0 15v70a2.5 2.5 0 0 0 2.5 2.5h95A2.5 2.5 0 0 0 100 85V15a2.5 2.5 0 0 0-2.5-2.5zm2.5 5h45.32l-.033 5.709l-16.68 27.607L5 64.092zm48.322 0H95v19.246l-25.982 8.397l-15.729-21.99zm-1.431 8.857l14.785 20.668l-5.862 11.106l-9.933 1.396l-14.147-8.084zM95 39.898V82.5h-7.232L63.637 59.213l5.84-11.067zM34.584 53.67l14.574 8.328L50.967 82.5H5V67.398zm26.686 7.426L83.447 82.5H53.98L52.2 62.371z" color="currentColor"/><path fill="currentColor" d="M61.366 68.73a5 5 0 0 0-5 5a5 5 0 0 0 5 5a5 5 0 0 0 5-5a5 5 0 0 0-5-5m-28.13-10.37a11 10.9 0 0 0-11 10.9a11 10.9 0 0 0 11 10.898a11 10.9 0 0 0 11-10.898a11 10.9 0 0 0-11-10.9m49.955-10.268a10 9.908 0 0 0-10 9.908a10 9.908 0 0 0 10 9.909a10 9.908 0 0 0 10-9.909a10 9.908 0 0 0-10-9.908m-7.676-27.281a7.5 7.431 0 0 0-7.49 7.43a7.5 7.431 0 0 0 7.5 7.431a7.5 7.431 0 0 0 7.5-7.431a7.5 7.431 0 0 0-7.5-7.43a7.5 7.431 0 0 0-.01 0M53.272 40.664a5 5 0 0 0-5 5a5 5 0 0 0 5 5a5 5 0 0 0 5-5a5 5 0 0 0-5-5M21.158 21.257a13.5 13.376 0 0 0-13.5 13.377a13.5 13.376 0 0 0 13.5 13.377a13.5 13.376 0 0 0 13.5-13.377a13.5 13.376 0 0 0-13.5-13.377" color="currentColor"/></svg>