<svg xmlns="http://www.w3.org/2000/svg" width="1em" height="1em" viewBox="0 0 48 48"><g fill="none" stroke="#000" stroke-linejoin="round" stroke-width="4"><path fill="#2F88FF" d="M40 12C42.2091 12 44 10.2091 44 8C44 5.79086 42.2091 4 40 4C37.7909 4 36 5.79086 36 8C36 10.2091 37.7909 12 40 12Z"/><path fill="#2F88FF" d="M8 44C10.2091 44 12 42.2091 12 40C12 37.7909 10.2091 36 8 36C5.79086 36 4 37.7909 4 40C4 42.2091 5.79086 44 8 44Z"/><path stroke-linecap="round" d="M40 20V40H20"/><path stroke-linecap="round" d="M8 28V8H28"/></g></svg>