<svg xmlns="http://www.w3.org/2000/svg" width="1em" height="1em" viewBox="0 0 48 48"><g fill="none" stroke-linecap="round" stroke-linejoin="round" stroke-width="4"><path fill="#2F88FF" stroke="#000" d="M44 38V10C44 8.89543 43.1046 8 42 8H6C4.89543 8 4 8.89543 4 10V38C4 39.1046 4.89543 40 6 40H42C43.1046 40 44 39.1046 44 38Z"/><path stroke="#fff" d="M24.9999 8C24.9999 8 19.9999 18 20.9999 25H26.9999L27.9999 40"/><path stroke="#000" d="M34 40H22"/><path stroke="#000" d="M30 8H18"/><path stroke="#fff" d="M34 16V18"/><path stroke="#fff" d="M14 16V18"/><path stroke="#fff" d="M13 29C13 29 17.1905 32 24 32C30.8095 32 35 29 35 29"/></g></svg>