<svg xmlns="http://www.w3.org/2000/svg" width="1.34em" height="1em" viewBox="0 0 32 24"><g fill="none"><path fill="#4141DB" fill-rule="evenodd" d="M0 0v24h32V0z" clip-rule="evenodd"/><mask id="flagpackCv0" width="32" height="24" x="0" y="0" maskUnits="userSpaceOnUse" style="mask-type:luminance"><path fill="#fff" fill-rule="evenodd" d="M0 0v24h32V0z" clip-rule="evenodd"/></mask><g mask="url(#flagpackCv0)"><path fill="#F90000" stroke="#F7FCFF" stroke-width="2" d="M0 13h-1v4h34v-4h-1z"/><g filter="url(#flagpackCv1)"><path fill="#FFDE00" fill-rule="evenodd" d="m9.796 10.26l.726-.51l.702.51l-.218-.906l.564-.574h-.718l-.331-.74l-.283.74h-.842l.645.574zm3 1.6l.726-.51l.702.51l-.218-.906l.564-.574h-.718l-.331-.74l-.283.74h-.842l.645.574zm3.126 1.89l-.726.51l.245-.906l-.645-.574h.842l.283-.74l.33.74h.719l-.564.574l.218.906zm-.726 4.51l.726-.51l.702.51l-.218-.906l.564-.574h-.718l-.331-.74l-.283.74h-.842l.645.574zm-1.674 1.89l-.726.51l.245-.906l-.645-.574h.842l.283-.74l.33.74h.719l-.564.574l.218.906zm-3.726 2.11l.726-.51l.702.51l-.218-.906l.564-.574h-.718l-.331-.74l-.283.74h-.842l.645.574zm-2.274-2.11l-.726.51l.245-.906l-.645-.574h.842l.283-.74l.33.74h.719l-.564.574l.218.906zm-3.126-1.89l.726-.51l.702.51l-.218-.906l.564-.574h-.718l-.331-.74l-.283.74h-.842l.645.574zm.726-4.51l-.726.51l.245-.906l-.645-.574h.842l.283-.74l.33.74h.719l-.564.574l.218.906zm1.674-1.89l.726-.51l.702.51l-.218-.906l.564-.574h-.718l-.331-.74l-.283.74h-.842l.645.574z" clip-rule="evenodd"/></g></g><defs><filter id="flagpackCv1" width="20.974" height="22.219" x="-.004" y="4.041" color-interpolation-filters="sRGB" filterUnits="userSpaceOnUse"><feFlood flood-opacity="0" result="BackgroundImageFix"/><feColorMatrix in="SourceAlpha" result="hardAlpha" values="0 0 0 0 0 0 0 0 0 0 0 0 0 0 0 0 0 0 127 0"/><feOffset/><feGaussianBlur stdDeviation="2"/><feColorMatrix values="0 0 0 0 0 0 0 0 0 0 0 0 0 0 0 0 0 0 0.24 0"/><feBlend in2="BackgroundImageFix" result="effect1_dropShadow_270_67487"/><feBlend in="SourceGraphic" in2="effect1_dropShadow_270_67487" result="shape"/></filter></defs></g></svg>