<svg xmlns="http://www.w3.org/2000/svg" width="1em" height="1em" viewBox="0 0 48 48"><g fill="none"><g clip-path="url(#healthicons7Negative0)"><path fill="currentColor" fill-rule="evenodd" d="M48 0H0v48h48zM16 10a2 2 0 1 0 0 4h11.922a73.401 73.401 0 0 0-4.599 7.369c-2.42 4.444-4.613 9.603-5.302 14.343a2 2 0 0 0 3.958.576c.59-4.06 2.531-8.734 4.858-13.006c2.316-4.254 4.918-7.933 6.678-9.977A2 2 0 0 0 32 10z" clip-rule="evenodd"/></g><defs><clipPath id="healthicons7Negative0"><path d="M0 0h48v48H0z"/></clipPath></defs></g></svg>