<svg xmlns="http://www.w3.org/2000/svg" width="1em" height="1em" viewBox="0 0 48 48"><g fill="none"><g fill="currentColor" clip-path="url(#healthiconsAccidentAndEmergencyNegative0)"><path fill-rule="evenodd" d="M33 36H15v-2h18z" clip-rule="evenodd"/><path fill-rule="evenodd" d="M48 0H0v48h48zM9 6a3 3 0 0 0-3 3v30a3 3 0 0 0 3 3h30a3 3 0 0 0 3-3V9a3 3 0 0 0-3-3z" clip-rule="evenodd"/><path fill-rule="evenodd" d="M20.489 16.33c-1.643.284-2.84 1.676-3.036 3.332L16 32h16l-1.456-12.355c-.194-1.648-1.38-3.037-3.014-3.323c-2.45-.429-4.492-.433-7.041.008m1.241 4.318a1 1 0 0 0-1.984-.248l-.905 7.238a1 1 0 1 0 1.984.248z" clip-rule="evenodd"/><path d="M13 24c0 .337.015.67.045 1H10v-2h3.045c-.03.33-.045.663-.045 1m2.012-6.344a10.98 10.98 0 0 0-1.001 1.732l-2.635-1.522l1-1.732zm4.376-3.646c-.61.283-1.189.619-1.732 1.002l-1.522-2.636l1.732-1zM24 13c-.337 0-.67.015-1 .045V10h2v3.045A11.17 11.17 0 0 0 24 13m6.344 2.012a10.989 10.989 0 0 0-1.732-1.001l1.522-2.635l1.732 1zm3.646 4.376a10.98 10.98 0 0 0-1.002-1.732l2.636-1.522l1 1.732zM35 24c0-.337-.015-.67-.045-1H38v2h-3.045c.03-.33.045-.663.045-1"/></g><defs><clipPath id="healthiconsAccidentAndEmergencyNegative0"><path d="M0 0h48v48H0z"/></clipPath></defs></g></svg>