<svg xmlns="http://www.w3.org/2000/svg" width="1em" height="1em" viewBox="0 0 48 48"><path fill="currentColor" fill-rule="evenodd" d="M19.572 10.283a1 1 0 0 0-1.414.02l-3 3.086a1 1 0 0 0-.074 1.309c.744.962 1.463 1.674 2.374 2.175c.546.3 1.132.508 1.786.661c-.37.475-.718.992-1.043 1.54l-2.85-1.084l-1.182-2.756a1 1 0 1 0-1.838.789l1.35 3.145a1 1 0 0 0 .564.54l3.032 1.154a20.664 20.664 0 0 0-.775 1.993l-2.748-1.045l-1.922-2.88a1 1 0 1 0-1.664 1.111l2.1 3.145a1 1 0 0 0 .477.38l3.22 1.224c-.056.245-.107.49-.153.736a11.875 11.875 0 0 0-.565.242c-.379.174-.89.431-1.41.762c-.512.327-1.071.75-1.512 1.267c-.439.515-.825 1.2-.825 2.026c0 1.204.438 2.53.823 3.48a18.172 18.172 0 0 0 .781 1.671l.015.028l.005.008l.001.003a1 1 0 0 0 1.75-.97l-.003-.004l-.01-.018a13.582 13.582 0 0 1-.2-.389a16.337 16.337 0 0 1-.485-1.08c-.365-.9-.677-1.928-.677-2.73c0-.177.083-.417.347-.727c.262-.307.64-.607 1.066-.878a8.98 8.98 0 0 1 .612-.356c-.016.296-.025.59-.025.882C15.5 35.156 19.622 39 24 39c4.379 0 8.5-3.844 8.5-10.257c0-.292-.008-.586-.025-.882c.197.105.406.224.612.356c.425.27.804.57 1.066.878c.264.31.347.55.347.728c0 .8-.312 1.828-.677 2.73a16.197 16.197 0 0 1-.685 1.468l-.01.018l-.002.004a1 1 0 1 0 1.749.97l.002-.003l.004-.008l.015-.028l.053-.099a18.172 18.172 0 0 0 .728-1.572c.385-.95.823-2.276.823-3.48c0-.825-.386-1.51-.825-2.026c-.44-.516-1-.94-1.512-1.267a11.929 11.929 0 0 0-1.975-1.004a20.198 20.198 0 0 0-.152-.736l3.22-1.225a1 1 0 0 0 .476-.379l2.1-3.145a1 1 0 0 0-1.663-1.11l-1.923 2.879l-2.748 1.045a20.664 20.664 0 0 0-.775-1.993l3.033-1.154a1 1 0 0 0 .563-.54l1.35-3.145a1 1 0 1 0-1.838-.789l-1.183 2.756l-2.85 1.084a14.582 14.582 0 0 0-1.041-1.54a6.945 6.945 0 0 0 1.785-.661c.911-.501 1.63-1.213 2.374-2.176a1 1 0 0 0-.074-1.308l-3-3.086a1 1 0 0 0-1.434 1.394l2.373 2.44c-.418.456-.796.76-1.202.983c-.57.313-1.271.512-2.365.662c-.096-.808-.38-1.556-.815-2.153c-.544-.746-1.38-1.315-2.399-1.315c-1.019 0-1.855.569-2.399 1.315c-.435.597-.718 1.345-.814 2.153c-1.094-.15-1.797-.35-2.366-.662c-.406-.223-.784-.527-1.201-.983l2.372-2.44a1 1 0 0 0-.02-1.414M34 34.529c.874.485.875.484.875.484zm-20 0l-.874.484zm9.217-19.722c-.27.37-.467.93-.467 1.593v.036l.006.521l-.424.303c-1.222.874-2.441 2.576-3.36 4.714c-.91 2.12-1.472 4.549-1.472 6.769C17.5 34.259 20.923 37 24 37c3.078 0 6.5-2.741 6.5-8.257c0-2.22-.562-4.65-1.472-6.769c-.919-2.138-2.138-3.84-3.36-4.714l-.424-.303l.006-.52V16.4c0-.663-.197-1.223-.467-1.593c-.27-.37-.56-.493-.783-.493c-.224 0-.513.123-.783.493" clip-rule="evenodd"/></svg>