<svg xmlns="http://www.w3.org/2000/svg" width="1em" height="1em" viewBox="0 0 48 48"><g fill="currentColor"><path d="M12 27.25a1 1 0 1 0 0-2a1 1 0 0 0 0 2"/><path fill-rule="evenodd" d="M32 11a1 1 0 0 1 1-1c6.05 0 11 4.787 11 10.747c0 1.455-.297 2.845-.834 4.112c.54 1.443.834 3.006.834 4.637v2.754H4.361A.361.361 0 0 1 4 31.889c0-5.055 3.493-9.44 8.42-10.569l.111-.025c.46-1.676 1.46-3.447 2.348-4.335c1.616-1.616 4.203-1.65 5.777-.076c.32.319.573.68.76 1.066a26.491 26.491 0 0 1 9.338-1.7c4.653 0 8.746 2.4 11.109 6.028A8.59 8.59 0 0 0 42 20.747C42 15.94 37.995 12 33 12a1 1 0 0 1-1-1m-10.192 8.942a4.186 4.186 0 0 1-1.229 2.719c-1.616 1.616-6.154 3.602-7.728 2.028c-.318-.318-.491-.758-.55-1.27a8.845 8.845 0 0 0-6.149 6.831h13.935c.453-2.574 2.624-4.571 5.3-4.571h4.361l.094-.211v-.002l.122-.273c.295-.66.721-1.582 1.305-2.529c.801-1.3 1.969-2.762 3.607-3.635a11.217 11.217 0 0 0-4.122-.779a24.49 24.49 0 0 0-8.946 1.692m11.164 3.771c1.009-1.637 2.387-3.095 4.272-3.403A11.233 11.233 0 0 1 42 29.496v.754H22.134c.414-1.506 1.739-2.571 3.253-2.571h4.936c.398 0 .65-.225.72-.289c.095-.09.16-.181.195-.234c.073-.11.137-.235.186-.336c.075-.154.165-.358.263-.578l.103-.233c.286-.64.67-1.464 1.182-2.296m-13.807-2.466c-.532.532-1.77 1.293-3.088 1.724c-.64.21-1.176.298-1.552.293a1.534 1.534 0 0 1-.23-.019a1.535 1.535 0 0 1-.019-.23c-.006-.377.083-.912.293-1.553c.43-1.316 1.192-2.555 1.724-3.088c.87-.87 2.19-.834 2.949-.076c.758.758.794 2.078-.077 2.949m-4.845 2.099l-.001-.004z" clip-rule="evenodd"/></g></svg>