<svg xmlns="http://www.w3.org/2000/svg" width="1em" height="1em" viewBox="0 0 48 48"><g fill="currentColor" fill-rule="evenodd" clip-rule="evenodd"><path d="M20.452 22.789c-1.574 1.574-6.027 3.474-7.601 1.9c-.715-.715-.713-2.024-.351-3.387l-.08.018A10.842 10.842 0 0 0 4 31.89c0 .2.162.361.361.361H44v-2.754c0-3.588-1.427-6.843-3.744-9.228l-2.785.01c-2.002.224-3.45 1.733-4.5 3.435c-.512.832-.895 1.656-1.18 2.295l-.104.234c-.098.22-.188.424-.263.577a2.912 2.912 0 0 1-.186.337a1.32 1.32 0 0 1-.196.234c-.069.064-.32.288-.72.288h-4.935c-1.514 0-2.84 1.066-3.253 2.572v2H20v-1c0-3.038 2.374-5.572 5.387-5.572h4.361l.093-.209l.002-.003l.121-.273c.295-.66.721-1.582 1.305-2.53c1.112-1.803 2.93-3.92 5.731-4.34l.861-.007a13.184 13.184 0 0 0-7.107-2.066c-3.288 0-6.54.612-9.591 1.797a4.033 4.033 0 0 1-.711 4.741M12 27.25a1 1 0 1 0 0-2a1 1 0 0 0 0 2"/><path d="M34.774 16.871a13.236 13.236 0 0 0-4.02-.621a26.492 26.492 0 0 0-9.591 1.797a4.03 4.03 0 0 1-.71 4.741c-1.113 1.112-3.66 2.387-5.616 2.485c-.813.04-1.524-.122-1.986-.584c-.32-.32-.496-.758-.561-1.266a3.56 3.56 0 0 1-.017-.16c-.044-.544.03-1.157.183-1.788l.044-.173l-.08.018A10.844 10.844 0 0 0 4 31.888c0 .2.162.362.361.362H44v-2.754a13.2 13.2 0 0 0-3.717-9.2l-.027-.028l-2.785.01c-.101.012-.2.027-.299.044c-.765.138-1.446.466-2.052.918c-.857.64-1.565 1.526-2.148 2.473c-.513.832-.896 1.656-1.182 2.295c0 .003-.002.005-.003.008a56.023 56.023 0 0 1-.194.437l-.019.042c-.054.121-.105.232-.15.324a2.912 2.912 0 0 1-.186.337a1.32 1.32 0 0 1-.196.234c-.069.064-.32.288-.72.288h-4.935c-1.514 0-2.84 1.066-3.253 2.572v2H20v-1a5.702 5.702 0 0 1 .207-1.53a5.65 5.65 0 0 1 .975-1.952c.98-1.268 2.49-2.09 4.205-2.09h4.361l.031-.07l.062-.139l.002-.003l.113-.256l.008-.017c.295-.66.721-1.582 1.305-2.53c.802-1.3 1.97-2.762 3.607-3.634A6.559 6.559 0 0 1 37 18.323l.861-.007a13.186 13.186 0 0 0-.865-.506l-.08-.042a13.164 13.164 0 0 0-2.142-.897m-2.458 1.486c-.51-.07-1.032-.107-1.562-.107a24.49 24.49 0 0 0-7.154 1.068a6.017 6.017 0 0 1-1.734 4.885c-1.07 1.07-2.886 2.08-4.613 2.624c-.762.24-1.6.42-2.433.448a3.001 3.001 0 1 1-5.563-2.242a8.849 8.849 0 0 0-3.105 5.217h11.913c.472-3.62 3.472-6.572 7.322-6.572h3.071c.284-.6.65-1.32 1.109-2.064c.622-1.009 1.519-2.233 2.75-3.257m-19.595 8.586a1 1 0 1 0-1.443-1.386a1 1 0 0 0 1.443 1.386m11.595 3.307H42v-.754c0-2.752-.986-5.27-2.627-7.225l-1.77.007c-1.029.155-2.003.983-2.928 2.484c-.442.717-.782 1.443-1.058 2.061l-.099.222m-9.202 3.205c.273-.37.681-.572 1.071-.572h4.936a3.056 3.056 0 0 0 2.084-.826c.259-.242.423-.478.495-.587c.153-.229.265-.457.322-.573m.272-.597l.002-.003l.017-.04l.002-.004l.001-.003m-.294.647c.087-.178.185-.4.272-.597Z"/><path d="M16.05 23.012c1.286-.406 2.484-1.134 2.988-1.638a2.031 2.031 0 0 0-2.873-2.872c-.503.503-1.232 1.701-1.637 2.988c-.197.624-.277 1.145-.267 1.512c.004.118.015.198.026.25c.052.012.133.023.25.026c.368.01.889-.07 1.513-.266m-3.2 1.677c1.575 1.574 6.028-.326 7.602-1.9a4.031 4.031 0 0 0-5.7-5.701c-1.575 1.574-3.475 6.027-1.901 7.6M32 11a1 1 0 0 1 1-1c6.05 0 11 4.787 11 10.747a10.51 10.51 0 0 1-1.105 4.7l-1.79-.893A8.504 8.504 0 0 0 42 20.747C42 15.94 37.995 12 33 12a1 1 0 0 1-1-1"/></g></svg>