<svg xmlns="http://www.w3.org/2000/svg" width="1em" height="1em" viewBox="0 0 48 48"><g fill="none"><g fill="currentColor" clip-path="url(#healthiconsAsthmaInhalerNegative0)"><path d="m8.847 9.778l1.162 4.333l5.54-2.519l-.903-3.367z"/><path fill-rule="evenodd" d="M48 0H0v48h48zM16.32 6.741a1 1 0 0 0-1.225-.707l-7.733 2.07a1 1 0 0 0-.708 1.225l1.508 5.622l-1.076.489a1 1 0 0 0-.55 1.174l5.68 20.708A5.003 5.003 0 0 0 17.04 41H30a1.001 1.001 0 0 0 1-1V28a1 1 0 0 0-1-1h-6.175l-4.276-15.947a1 1 0 0 0-1.381-.651l-.772.35zM35 29h-2v10h2zm4 3a1 1 0 1 1-2 0a1 1 0 0 1 2 0m-1 5a1 1 0 1 0 0-2a1 1 0 0 0 0 2m5-3a1 1 0 1 1-2 0a1 1 0 0 1 2 0m-1-3a1 1 0 1 0 0-2a1 1 0 0 0 0 2m1 7a1 1 0 1 1-2 0a1 1 0 0 1 2 0" clip-rule="evenodd"/></g><defs><clipPath id="healthiconsAsthmaInhalerNegative0"><path d="M0 0h48v48H0z"/></clipPath></defs></g></svg>