<svg xmlns="http://www.w3.org/2000/svg" width="1em" height="1em" viewBox="0 0 48 48"><g fill="currentColor"><path fill-rule="evenodd" d="M26.828 8.444a9 9 0 0 1 12.728 12.728L21.172 39.557A9 9 0 0 1 8.444 26.829zm11.314 1.414a7 7 0 0 0-9.9 0L9.859 28.243a7 7 0 1 0 9.9 9.9l18.384-18.385a7 7 0 0 0 0-9.9" clip-rule="evenodd"/><path fill-rule="evenodd" d="M24 16.929a2 2 0 0 1 2.828 0l4.243 4.242a2 2 0 0 1 0 2.829L24 31.07a2 2 0 0 1-2.828 0l-4.243-4.242a2 2 0 0 1 0-2.828zm5.657 5.657l-4.243-4.243l-7.071 7.071l4.243 4.243z" clip-rule="evenodd"/><path d="M33.121 16.121a1 1 0 1 1-1.414-1.413a1 1 0 0 1 1.414 1.413m1-4a1 1 0 1 1-1.414-1.413a1 1 0 0 1 1.414 1.413m-4 1a1 1 0 1 1-1.414-1.413a1 1 0 0 1 1.414 1.413m6 6a1 1 0 1 1-1.414-1.413a1 1 0 0 1 1.414 1.413m1-4a1 1 0 1 1-1.414-1.413a1 1 0 0 1 1.414 1.413M14.707 31.707a1 1 0 1 1 1.414 1.415a1 1 0 0 1-1.414-1.415m-1 4a1 1 0 1 1 1.414 1.415a1 1 0 0 1-1.414-1.415m4-1a1 1 0 1 1 1.414 1.415a1 1 0 0 1-1.414-1.415m-6-6a1 1 0 1 1 1.414 1.415a1 1 0 0 1-1.414-1.415m-1 4a1 1 0 1 1 1.414 1.415a1 1 0 0 1-1.414-1.415"/></g></svg>