<svg xmlns="http://www.w3.org/2000/svg" width="1em" height="1em" viewBox="0 0 48 48"><g fill="currentColor"><path d="M24.6 42.806c.331 0 .6.267.6.597c0 .33-.269.597-.6.597a.598.598 0 0 1-.6-.597c0-.33.269-.597.6-.597m0-2.986a.598.598 0 1 1 0 1.194a.598.598 0 0 1-.6-.596c0-.33.269-.597.6-.597m0-2.985c.331 0 .6.267.6.597c0 .33-.269.597-.6.597a.598.598 0 0 1-.6-.597c0-.33.269-.597.6-.597m0-2.986a.598.598 0 1 1 0 1.194a.598.598 0 0 1-.6-.596c0-.33.269-.597.6-.597m0-2.985c.331 0 .6.267.6.597c0 .33-.269.597-.6.597a.598.598 0 0 1-.6-.597c0-.33.269-.597.6-.597m0-2.986a.599.599 0 1 1 0 1.194a.599.599 0 0 1-.6-.596c0-.33.269-.597.6-.597m0-2.985c.331 0 .6.267.6.597c0 .33-.269.597-.6.597a.598.598 0 0 1-.6-.597a.6.6 0 0 1 .6-.598m0-2.985a.598.598 0 1 1 0 1.194a.598.598 0 0 1-.6-.596a.6.6 0 0 1 .6-.598m0-2.985a.6.6 0 0 1 .6.597c0 .33-.269.597-.6.597a.598.598 0 0 1-.6-.597c0-.33.269-.597.6-.597m0-2.985a.6.6 0 0 1 .6.597c0 .33-.269.597-.6.597a.598.598 0 0 1-.6-.597c0-.33.269-.597.6-.597m0-2.985a.6.6 0 0 1 .6.597c0 .33-.269.597-.6.597a.598.598 0 0 1-.6-.597c0-.33.269-.597.6-.597m0-2.985c.331 0 .6.267.6.597c0 .33-.269.597-.6.597a.598.598 0 0 1-.6-.597c0-.33.269-.597.6-.597m0-2.985c.331 0 .6.267.6.597c0 .33-.269.597-.6.597a.598.598 0 0 1-.6-.597c0-.33.269-.597.6-.597M24.6 4c.331 0 .6.267.6.597c0 .33-.269.597-.6.597a.598.598 0 0 1-.6-.597c0-.33.269-.597.6-.597m-3.4 5.677c0 .824-.672 1.492-1.5 1.492s-1.5-.668-1.5-1.492c0-.825.672-1.493 1.5-1.493s1.5.668 1.5 1.493m0 4.808c0 .825-.672 1.493-1.5 1.493s-1.5-.668-1.5-1.493c0-.824.672-1.492 1.5-1.492s1.5.668 1.5 1.492m0 4.809c0 .824-.672 1.492-1.5 1.492s-1.5-.668-1.5-1.492c0-.825.672-1.493 1.5-1.493s1.5.669 1.5 1.493m0 4.808c0 .825-.672 1.493-1.5 1.493s-1.5-.668-1.5-1.493c0-.824.672-1.492 1.5-1.492s1.5.668 1.5 1.492m0 4.809c0 .824-.672 1.492-1.5 1.492s-1.5-.668-1.5-1.492s.672-1.492 1.5-1.492s1.5.668 1.5 1.492m0 4.809c0 .824-.672 1.492-1.5 1.492s-1.5-.668-1.5-1.492c0-.825.672-1.493 1.5-1.493s1.5.668 1.5 1.493m0 4.808c0 .825-.672 1.493-1.5 1.493s-1.5-.669-1.5-1.493c0-.824.672-1.492 1.5-1.492s1.5.668 1.5 1.492M31 9.677c0 .824-.672 1.492-1.5 1.492S28 10.501 28 9.677c0-.825.672-1.493 1.5-1.493s1.5.668 1.5 1.493m0 4.808c0 .825-.672 1.493-1.5 1.493S28 15.31 28 14.485c0-.824.672-1.492 1.5-1.492s1.5.668 1.5 1.492m0 4.809c0 .824-.672 1.492-1.5 1.492s-1.5-.668-1.5-1.492s.672-1.493 1.5-1.493s1.5.669 1.5 1.493m0 4.809c0 .824-.672 1.492-1.5 1.492s-1.5-.668-1.5-1.492c0-.825.672-1.493 1.5-1.493s1.5.668 1.5 1.492m0 4.809c0 .824-.672 1.493-1.5 1.493S28 29.735 28 28.91c0-.824.672-1.492 1.5-1.492s1.5.668 1.5 1.492m0 4.81c0 .824-.672 1.492-1.5 1.492S28 34.544 28 33.72c0-.825.672-1.493 1.5-1.493s1.5.668 1.5 1.493m0 4.808c0 .825-.672 1.493-1.5 1.493s-1.5-.669-1.5-1.493c0-.824.672-1.492 1.5-1.492s1.5.668 1.5 1.492"/><path fill-rule="evenodd" d="M32 6H16a2 2 0 0 0-2 2v32a2 2 0 0 0 2 2h16a2 2 0 0 0 2-2V8a2 2 0 0 0-2-2M16 4a4 4 0 0 0-4 4v32a4 4 0 0 0 4 4h16a4 4 0 0 0 4-4V8a4 4 0 0 0-4-4z" clip-rule="evenodd"/></g></svg>