<svg xmlns="http://www.w3.org/2000/svg" width="1em" height="1em" viewBox="0 0 48 48"><g fill="none"><g fill="currentColor" clip-path="url(#healthiconsBlisterPillsOvalX16Negative0)"><path d="M16 24a1 1 0 1 1-2 0a1 1 0 0 1 2 0m2 1a1 1 0 1 0 0-2a1 1 0 0 0 0 2m4-1a1 1 0 1 1-2 0a1 1 0 0 1 2 0m2 1a1 1 0 1 0 0-2a1 1 0 0 0 0 2m4-1a1 1 0 1 1-2 0a1 1 0 0 1 2 0m2 1a1 1 0 1 0 0-2a1 1 0 0 0 0 2m4-1a1 1 0 1 1-2 0a1 1 0 0 1 2 0M19.179 8.836a1.182 1.182 0 0 0-1.672 0l-1.671 1.671a1.182 1.182 0 1 0 1.671 1.672l1.672-1.672a1.182 1.182 0 0 0 0-1.671m2.661 0a1.182 1.182 0 1 1 1.672 1.671l-1.671 1.672a1.182 1.182 0 0 1-1.672-1.671zm6.006 0a1.182 1.182 0 0 0-1.672 0l-1.671 1.671a1.182 1.182 0 1 0 1.671 1.672l1.672-1.672a1.182 1.182 0 0 0 0-1.671m2.661 0a1.182 1.182 0 1 1 1.672 1.671l-1.672 1.672a1.182 1.182 0 0 1-1.672-1.671zm-11.328 6a1.182 1.182 0 0 0-1.672 0l-1.671 1.671a1.182 1.182 0 1 0 1.671 1.672l1.672-1.672a1.182 1.182 0 0 0 0-1.671m2.661 0a1.182 1.182 0 1 1 1.672 1.671l-1.671 1.672a1.182 1.182 0 0 1-1.672-1.672zm6.006 0a1.182 1.182 0 0 0-1.672 0l-1.671 1.671a1.182 1.182 0 1 0 1.671 1.672l1.672-1.672a1.182 1.182 0 0 0 0-1.671m2.661 0a1.182 1.182 0 1 1 1.672 1.671l-1.672 1.672a1.182 1.182 0 0 1-1.671-1.672zm-11.328 15a1.182 1.182 0 0 0-1.672 0l-1.671 1.671a1.182 1.182 0 1 0 1.671 1.672l1.672-1.672a1.182 1.182 0 0 0 0-1.671m2.661 0a1.182 1.182 0 1 1 1.672 1.671l-1.671 1.672a1.182 1.182 0 0 1-1.672-1.672zm6.006 0a1.182 1.182 0 0 0-1.672 0l-1.671 1.671a1.182 1.182 0 1 0 1.671 1.672l1.672-1.672a1.182 1.182 0 0 0 0-1.671m2.661 0a1.182 1.182 0 1 1 1.672 1.671l-1.672 1.672a1.182 1.182 0 0 1-1.671-1.672zm-11.328 6a1.182 1.182 0 0 0-1.672 0l-1.671 1.671a1.182 1.182 0 1 0 1.671 1.672l1.672-1.672a1.182 1.182 0 0 0 0-1.671m2.661 0a1.182 1.182 0 1 1 1.672 1.671l-1.671 1.672a1.182 1.182 0 0 1-1.672-1.672zm6.006 0a1.182 1.182 0 0 0-1.672 0l-1.671 1.671a1.182 1.182 0 1 0 1.671 1.672l1.672-1.672a1.182 1.182 0 0 0 0-1.671m2.661 0a1.182 1.182 0 1 1 1.672 1.671l-1.672 1.672a1.182 1.182 0 0 1-1.671-1.672z"/><path fill-rule="evenodd" d="M0 0h48v48H0zm16 4a4 4 0 0 0-4 4v15a1 1 0 1 1 0 2v15a4 4 0 0 0 4 4h16a4 4 0 0 0 4-4V25a1 1 0 1 1 0-2V8a4 4 0 0 0-4-4z" clip-rule="evenodd"/></g><defs><clipPath id="healthiconsBlisterPillsOvalX16Negative0"><path d="M0 0h48v48H0z"/></clipPath></defs></g></svg>