<svg xmlns="http://www.w3.org/2000/svg" width="1em" height="1em" viewBox="0 0 48 48"><g fill="none"><g fill="currentColor" clip-path="url(#healthiconsBlisterPillsOvalX14Negative0)"><path d="M23.6 39.8a.6.6 0 1 1 0 1.2a.6.6 0 0 1 0-1.2m.6-2.4a.6.6 0 1 0-1.2 0a.6.6 0 0 0 1.2 0m-.6-3.6a.6.6 0 1 1 0 1.2a.6.6 0 0 1 0-1.2m.6-2.4a.6.6 0 1 0-1.2 0a.6.6 0 0 0 1.2 0m-.6-3.6a.6.6 0 1 1 0 1.2a.6.6 0 0 1 0-1.2m.6-2.4a.6.6 0 1 0-1.2 0a.6.6 0 0 0 1.2 0m-.6-3.6a.6.6 0 1 1 0 1.2a.6.6 0 0 1 0-1.2m.6-2.4a.6.6 0 1 0-1.2 0a.6.6 0 0 0 1.2 0m-.6-3.6a.6.6 0 1 1 0 1.2a.6.6 0 0 1 0-1.2m.6-2.4a.6.6 0 1 0-1.2 0a.6.6 0 0 0 1.2 0m-.6-3.6a.6.6 0 1 1 0 1.2a.6.6 0 0 1 0-1.2m.6-2.4a.6.6 0 1 0-1.2 0a.6.6 0 0 0 1.2 0"/><path fill-rule="evenodd" d="M48 0H0v48h48zM16 4h7.153a.6.6 0 1 0 .894 0H32a4 4 0 0 1 4 4v32a4 4 0 0 1-4 4h-8.4a.6.6 0 1 0 0-1.2a.6.6 0 0 0 0 1.2H16a4 4 0 0 1-4-4V8a4 4 0 0 1 4-4" clip-rule="evenodd"/><path d="M17.84 6.836a1.182 1.182 0 1 1 1.672 1.671l-1.671 1.672a1.182 1.182 0 0 1-1.672-1.672zm0 5a1.182 1.182 0 1 1 1.672 1.671l-1.671 1.672a1.182 1.182 0 0 1-1.672-1.672zm0 5a1.182 1.182 0 1 1 1.672 1.671l-1.671 1.672a1.182 1.182 0 0 1-1.672-1.672zm0 5a1.182 1.182 0 1 1 1.672 1.671l-1.671 1.672a1.182 1.182 0 0 1-1.672-1.672zm0 5a1.182 1.182 0 1 1 1.672 1.671l-1.671 1.672a1.182 1.182 0 0 1-1.672-1.672zm0 5a1.182 1.182 0 1 1 1.672 1.671l-1.671 1.672a1.182 1.182 0 0 1-1.672-1.672zm0 5a1.182 1.182 0 1 1 1.672 1.671l-1.671 1.672a1.182 1.182 0 0 1-1.672-1.672zm12-30a1.182 1.182 0 1 1 1.672 1.671l-1.671 1.672a1.182 1.182 0 0 1-1.672-1.672zm0 5a1.182 1.182 0 1 1 1.672 1.671l-1.671 1.672a1.182 1.182 0 0 1-1.672-1.672zm0 5a1.182 1.182 0 1 1 1.672 1.671l-1.671 1.672a1.182 1.182 0 0 1-1.672-1.672zm0 5a1.182 1.182 0 1 1 1.672 1.671l-1.671 1.672a1.182 1.182 0 0 1-1.672-1.672zm0 5a1.182 1.182 0 1 1 1.672 1.671l-1.671 1.672a1.182 1.182 0 0 1-1.672-1.672zm0 5a1.182 1.182 0 1 1 1.672 1.671l-1.671 1.672a1.182 1.182 0 0 1-1.672-1.672zm0 5a1.182 1.182 0 1 1 1.672 1.671l-1.671 1.672a1.182 1.182 0 0 1-1.672-1.672z"/></g><defs><clipPath id="healthiconsBlisterPillsOvalX14Negative0"><path d="M0 0h48v48H0z"/></clipPath></defs></g></svg>