<svg xmlns="http://www.w3.org/2000/svg" width="1em" height="1em" viewBox="0 0 48 48"><g fill="none"><g fill="currentColor" clip-path="url(#healthiconsBlisterPillsRoundX16Negative0)"><path fill-rule="evenodd" d="M48 0H0v48h48zM12 8a4 4 0 0 1 4-4h16a4 4 0 0 1 4 4v15a1 1 0 1 0 0 2v15a4 4 0 0 1-4 4H16a4 4 0 0 1-4-4V25a1 1 0 1 0 0-2zm3 17a1 1 0 1 0 0-2a1 1 0 0 0 0 2m4-1a1 1 0 1 1-2 0a1 1 0 0 1 2 0m2 1a1 1 0 1 0 0-2a1 1 0 0 0 0 2m4-1a1 1 0 1 1-2 0a1 1 0 0 1 2 0m2 1a1 1 0 1 0 0-2a1 1 0 0 0 0 2m4-1a1 1 0 1 1-2 0a1 1 0 0 1 2 0m2 1a1 1 0 1 0 0-2a1 1 0 0 0 0 2" clip-rule="evenodd"/><path d="M18 10.5a1.5 1.5 0 1 1-3 0a1.5 1.5 0 0 1 3 0m5 0a1.5 1.5 0 1 1-3 0a1.5 1.5 0 0 1 3 0m5 0a1.5 1.5 0 1 1-3 0a1.5 1.5 0 0 1 3 0m5 0a1.5 1.5 0 1 1-3 0a1.5 1.5 0 0 1 3 0m-15 5a1.5 1.5 0 1 1-3 0a1.5 1.5 0 0 1 3 0m5 0a1.5 1.5 0 1 1-3 0a1.5 1.5 0 0 1 3 0m5 0a1.5 1.5 0 1 1-3 0a1.5 1.5 0 0 1 3 0m5 0a1.5 1.5 0 1 1-3 0a1.5 1.5 0 0 1 3 0m-15 16a1.5 1.5 0 1 1-3 0a1.5 1.5 0 0 1 3 0m5 0a1.5 1.5 0 1 1-3 0a1.5 1.5 0 0 1 3 0m5 0a1.5 1.5 0 1 1-3 0a1.5 1.5 0 0 1 3 0m5 0a1.5 1.5 0 1 1-3 0a1.5 1.5 0 0 1 3 0m-15 5a1.5 1.5 0 1 1-3 0a1.5 1.5 0 0 1 3 0m5 0a1.5 1.5 0 1 1-3 0a1.5 1.5 0 0 1 3 0m5 0a1.5 1.5 0 1 1-3 0a1.5 1.5 0 0 1 3 0m5 0a1.5 1.5 0 1 1-3 0a1.5 1.5 0 0 1 3 0"/></g><defs><clipPath id="healthiconsBlisterPillsRoundX16Negative0"><path d="M0 0h48v48H0z"/></clipPath></defs></g></svg>