<svg xmlns="http://www.w3.org/2000/svg" width="1em" height="1em" viewBox="0 0 48 48"><path fill="currentColor" fill-rule="evenodd" d="M12 8a4 4 0 0 1 4-4h16a4 4 0 0 1 4 4v15a1 1 0 1 0 0 2v15a4 4 0 0 1-4 4H16a4 4 0 0 1-4-4V25a1 1 0 1 0 0-2zm3 17a1 1 0 1 0 0-2a1 1 0 0 0 0 2m4-1a1 1 0 1 1-2 0a1 1 0 0 1 2 0m2 1a1 1 0 1 0 0-2a1 1 0 0 0 0 2m4-1a1 1 0 1 1-2 0a1 1 0 0 1 2 0m2 1a1 1 0 1 0 0-2a1 1 0 0 0 0 2m4-1a1 1 0 1 1-2 0a1 1 0 0 1 2 0m2 1a1 1 0 1 0 0-2a1 1 0 0 0 0 2M19.179 8.836a1.182 1.182 0 0 0-1.672 0l-1.671 1.671a1.182 1.182 0 1 0 1.671 1.672l1.672-1.672a1.182 1.182 0 0 0 0-1.671m2.662 0a1.182 1.182 0 0 1 1.671 1.671l-1.671 1.672a1.182 1.182 0 0 1-1.672-1.672zm6.005 0a1.182 1.182 0 0 0-1.672 0l-1.671 1.671a1.182 1.182 0 1 0 1.671 1.672l1.672-1.672a1.182 1.182 0 0 0 0-1.671m2.661 0a1.182 1.182 0 1 1 1.672 1.671l-1.672 1.672a1.182 1.182 0 0 1-1.671-1.672zm-11.328 6a1.182 1.182 0 0 0-1.672 0l-1.671 1.671a1.182 1.182 0 1 0 1.671 1.672l1.672-1.672a1.182 1.182 0 0 0 0-1.671m2.662 0a1.182 1.182 0 1 1 1.671 1.671l-1.671 1.672a1.182 1.182 0 0 1-1.672-1.672zm6.005 0a1.182 1.182 0 0 0-1.672 0l-1.671 1.671a1.182 1.182 0 1 0 1.671 1.672l1.672-1.672a1.182 1.182 0 0 0 0-1.671m2.661 0a1.182 1.182 0 1 1 1.672 1.671l-1.672 1.672a1.182 1.182 0 0 1-1.671-1.672zm-11.328 15a1.182 1.182 0 0 0-1.672 0l-1.671 1.671a1.182 1.182 0 1 0 1.671 1.672l1.672-1.672a1.182 1.182 0 0 0 0-1.671m2.662 0a1.182 1.182 0 1 1 1.671 1.671l-1.671 1.672a1.182 1.182 0 0 1-1.672-1.672zm6.005 0a1.182 1.182 0 0 0-1.672 0l-1.671 1.671a1.182 1.182 0 1 0 1.671 1.672l1.672-1.672a1.182 1.182 0 0 0 0-1.671m2.661 0a1.182 1.182 0 1 1 1.672 1.671l-1.672 1.672a1.182 1.182 0 0 1-1.671-1.672zm-11.328 6a1.182 1.182 0 0 0-1.672 0l-1.671 1.671a1.182 1.182 0 1 0 1.671 1.672l1.672-1.672a1.182 1.182 0 0 0 0-1.671m2.662 0a1.182 1.182 0 1 1 1.671 1.671l-1.671 1.672a1.182 1.182 0 0 1-1.672-1.672zm6.005 0a1.182 1.182 0 0 0-1.672 0l-1.671 1.671a1.182 1.182 0 1 0 1.671 1.672l1.672-1.672a1.182 1.182 0 0 0 0-1.671m2.661 0a1.182 1.182 0 1 1 1.672 1.671l-1.672 1.672a1.182 1.182 0 0 1-1.671-1.672z" clip-rule="evenodd"/></svg>