<svg xmlns="http://www.w3.org/2000/svg" width="1em" height="1em" viewBox="0 0 48 48"><g fill="currentColor"><path fill-rule="evenodd" d="M18 25.31V6h2v20.363c0 1.22-1.403 1.94-2.39 1.176L5.836 18.412l1.225-1.58l5.877 4.555l-.725-6.575l1.988-.219l.937 8.5zm8-5.056V6h2v13.43l2.143-1.082l1.38-6.266l1.954.43l-1.03 4.674l7.603-3.836l.9 1.786l-12.77 6.442c-.957.484-2.18-.17-2.18-1.324m15.54-2.98l.92 1.776l-6.089 3.16l5.365 1.305l-.472 1.943l-7.594-1.847l-5.15 2.673a.94.94 0 0 0-.52.83V42h-2V27.113c0-1.102.624-2.099 1.598-2.604zM9.088 26.926l-4.696-3.59l1.214-1.589l13.236 10.119A2.951 2.951 0 0 1 20 34.21V42h-2v-7.79a.951.951 0 0 0-.371-.756l-6.51-4.978l-5.392 1.359l-.489-1.94z" clip-rule="evenodd"/><path d="M25.227 12.85a1 1 0 1 1-1.7 1.055a1 1 0 0 1 1.7-1.055m-2 9a1 1 0 1 1-1.7 1.055a1 1 0 0 1 1.7-1.056m1 7.001a1 1 0 1 1-1.7 1.055a1 1 0 0 1 1.7-1.056m-1 9.001a1 1 0 1 1-1.7 1.055a1 1 0 0 1 1.7-1.056m0-28.999a1 1 0 1 1-1.7 1.055a1 1 0 0 1 1.7-1.055"/></g></svg>