<svg xmlns="http://www.w3.org/2000/svg" width="1em" height="1em" viewBox="0 0 48 48"><g fill="currentColor"><path d="M26 29.857c0 1.2-.88 2.143-2 2.143s-2-.943-2-2.143c0-1.2 2-3.857 2-3.857s2 2.743 2 3.857"/><path fill-rule="evenodd" d="M10.649 21.337a1.35 1.35 0 0 1-.268-.044c-1.867-.5-2.338-4.799-1.052-9.6c1.287-4.8 3.843-8.287 5.71-7.787a1.4 1.4 0 0 1 .255.095c.076.003.152.014.228.034l1.705.457l.041.012c1.343.423 1.904 1.707 2.203 3.18c.222 1.097.345 2.536.431 4.336l1.172.314a3.006 3.006 0 0 1 1.93-2.165c.063-2.735.921-4.607 2.437-5.55c1.549-.963 3.432-.73 4.973-.03c1.554.707 2.986 1.98 3.757 3.486c.79 1.543.913 3.421-.39 5.05c-.88 1.099-1.185 2.1-1.18 2.962c.007.87.332 1.699.886 2.438C34.633 20.051 36.598 21 38 21a1 1 0 1 1 0 2c-2.098 0-4.632-1.301-6.113-3.275c-.758-1.01-1.276-2.245-1.285-3.624c-.01-1.389.497-2.825 1.617-4.226c.697-.871.695-1.868.172-2.888c-.54-1.056-1.61-2.033-2.805-2.577c-1.21-.55-2.326-.567-3.09-.092c-.704.438-1.43 1.5-1.492 3.854A3.001 3.001 0 0 1 27 13v5c1.214.912 2 2.364 2 4v.89l2.352 1.86v6.875l1.477 6.938c.657 2.143-.584 5.437-3.693 5.437H18.864c-3.11 0-4.35-3.294-3.693-5.437l1.477-6.938V24.75L19 22.89V22a4.99 4.99 0 0 1 2-4v-.51l-2.44-.654c-.937 1.45-1.735 2.587-2.453 3.401c-.995 1.126-2.123 1.957-3.497 1.652a.989.989 0 0 1-.042-.01l-1.704-.457a1 1 0 0 1-.215-.085m1.192-3.133c.853-1.163 1.722-2.993 2.318-5.217c.596-2.223.758-4.243.6-5.677c-.064-.594-.177-1.015-.287-1.286c-.232.18-.54.488-.893.97c-.852 1.163-1.722 2.994-2.318 5.217c-.595 2.223-.757 4.243-.6 5.677c.065.594.177 1.015.287 1.286c.232-.18.54-.488.893-.97m1.182 1.726c1.193-1.388 2.336-3.694 3.068-6.425c.732-2.73.895-5.299.556-7.098l.037.01c.21.073.555.327.826 1.663c.26 1.278.377 3.182.47 5.931c-1.455 2.335-2.51 3.925-3.372 4.902c-.903 1.022-1.33 1.07-1.548 1.027zM24 19a3 3 0 0 0-3 3h6a3 3 0 0 0-3-3m1-2v-4a1 1 0 1 0-2 0v4zm-4.18 7l-2.172 1.718v6.118l-.923 4.333c1.409.453 4.323 1.1 6.644-.31c2.283-1.387 4.627-.784 5.77-.332l-.787-3.691v-6.118L27.18 24z" clip-rule="evenodd"/></g></svg>