<svg xmlns="http://www.w3.org/2000/svg" width="1em" height="1em" viewBox="0 0 48 48"><g fill="none"><g clip-path="url(#healthiconsBurnNegative0)"><path fill="currentColor" d="M0 0h48v48H0z"/><path d="M42.999 26.499a1.5 1.5 0 0 0-1.5-1.5h-15.5v-2h12.5a1.5 1.5 0 0 0 0-3H22.914c-1.905 0-2.732-2.41-1.228-3.579l4.097-3.186a1.518 1.518 0 0 0-1.72-2.496l-11.391 6.89L11.5 16l11.524-6.972a3.518 3.518 0 0 1 3.986 5.784L22.915 18H38.5a3.5 3.5 0 0 1 3.161 5.004a3.5 3.5 0 0 1 0 6.992A3.5 3.5 0 0 1 38.5 35h-2.837a3.5 3.5 0 0 1-3.163 5H12.813l2.687-2l16.999-.001a1.5 1.5 0 0 0 0-3h-8.618v-2H38.5a1.5 1.5 0 0 0 0-3H26v-2h15.5a1.5 1.5 0 0 0 1.5-1.5"/><path d="M8.567 17c0 .823-.08 1.6-.225 2.347c-.528 2.729-1.914 5.042-3.364 7.643c-1.677 3.007-.994 5.72.517 8.253c.561.942 1.238 1.86 1.95 2.757l-.001-.593c-.002-1.09-.003-1.932.055-2.642c.167-2.049.827-2.991 3.395-5.571c1.172 2.097.879 4.268.448 6.474c-.043.22-.087.439-.132.659A47.066 47.066 0 0 0 10.894 38c.47-.226.933-.437 1.388-.644c.271-.123.54-.245.804-.368c2.094-.974 3.936-2.012 5.106-4.338c1.38-2.745.77-4.913-.178-7.537c-.321-.889-.681-1.83-1.017-2.863c-.407 1.5-1.166 2.864-1.658 3.818c-.982-3.802-3.782-6.587-6.772-9.068" clip-rule="evenodd"/></g><defs><clipPath id="healthiconsBurnNegative0"><path d="M0 0h48v48H0z"/></clipPath></defs></g></svg>