<svg xmlns="http://www.w3.org/2000/svg" width="1em" height="1em" viewBox="0 0 48 48"><g fill="currentColor" fill-rule="evenodd" clip-rule="evenodd"><path d="M15 23a2 2 0 0 0-2 2v2a2 2 0 0 0 2 2h2a2 2 0 0 0 2-2v-2a2 2 0 0 0-2-2zm0 2v2h2v-2zm6 0a2 2 0 0 1 2-2h2a2 2 0 0 1 2 2v2a2 2 0 0 1-2 2h-2a2 2 0 0 1-2-2zm2 0h2v2h-2zm8-2a2 2 0 0 0-2 2v2a2 2 0 0 0 2 2h2a2 2 0 0 0 2-2v-2a2 2 0 0 0-2-2zm0 2v2h2v-2zm-18 8a2 2 0 0 1 2-2h2a2 2 0 0 1 2 2v2a2 2 0 0 1-2 2h-2a2 2 0 0 1-2-2zm2 2v-2h2v2zm8-4a2 2 0 0 0-2 2v2a2 2 0 0 0 2 2h2a2 2 0 0 0 2-2v-2a2 2 0 0 0-2-2zm2 2h-2v2h2zm4 0a2 2 0 0 1 2-2h2a2 2 0 0 1 2 2v2a2 2 0 0 1-2 2h-2a2 2 0 0 1-2-2zm2 2v-2h2v2z"/><path d="M16 6a1 1 0 0 0-1 1v3h-4a4 4 0 0 0-4 4v24a4 4 0 0 0 4 4h26a4 4 0 0 0 4-4V14a4 4 0 0 0-4-4h-2v3a1 1 0 1 1-2 0V7a1 1 0 1 0-2 0v3H19v3a1 1 0 1 1-2 0V7a1 1 0 0 0-1-1M9 38V21h30v17a2 2 0 0 1-2 2H11a2 2 0 0 1-2-2"/></g></svg>