<svg xmlns="http://www.w3.org/2000/svg" width="1em" height="1em" viewBox="0 0 48 48"><g fill="none"><g clip-path="url(#healthiconsCallCentreNegative0)"><path fill="currentColor" fill-rule="evenodd" d="M0 0h48v48H0zm23.404 13.826a7.201 7.201 0 0 1 3.836 8.89l7.575 5.883V26.26h1.633a1.998 1.998 0 0 0 1.873-2.7l-4.234-11.273c-.349-.93-1.025-1.55-1.875-2.33l-.297-.275c-1.994-1.849-4.222-3.2-8.511-3.577zm-6-7.585v7.605a7.201 7.201 0 0 0 5.673 13.234l10.585 8.22c-.257.12-.544.188-.847.188h-4.293V42H11.41V30.008C9.684 28.216 6 23.742 6 17.975C6 14.3 8.415 7.595 17.405 6.24m4 8.851a5.402 5.402 0 0 1 3.477 8.33L38.714 34.16a2.25 2.25 0 1 1-1.182 1.614l-14.07-10.922a5.4 5.4 0 1 1-4.058-9.76V6h2zm.798 5.308a1.8 1.8 0 1 1-3.6 0a1.8 1.8 0 0 1 3.6 0" clip-rule="evenodd"/></g><defs><clipPath id="healthiconsCallCentreNegative0"><path d="M0 0h48v48H0z"/></clipPath></defs></g></svg>