<svg xmlns="http://www.w3.org/2000/svg" width="1em" height="1em" viewBox="0 0 48 48"><g fill="none"><g fill="currentColor" clip-path="url(#healthiconsCancelNegative0)"><path d="M24 42c4.97 0 9.47-2.015 12.728-5.272L11.272 11.272A17.943 17.943 0 0 0 6 24c0 9.941 8.059 18 18 18M12.765 9.936l25.299 25.3A17.924 17.924 0 0 0 42 24c0-9.941-8.059-18-18-18c-4.25 0-8.156 1.473-11.235 3.936"/><path fill-rule="evenodd" d="M48 0H0v48h48zM24 44c11.046 0 20-8.954 20-20S35.046 4 24 4S4 12.954 4 24s8.954 20 20 20" clip-rule="evenodd"/></g><defs><clipPath id="healthiconsCancelNegative0"><path d="M0 0h48v48H0z"/></clipPath></defs></g></svg>