<svg xmlns="http://www.w3.org/2000/svg" width="1em" height="1em" viewBox="0 0 48 48"><g fill="none"><g clip-path="url(#healthiconsCityNegative0)"><path fill="currentColor" fill-rule="evenodd" d="M48 0H0v48h48zM9 42a1 1 0 1 0 0 2h30a1 1 0 1 0 0-2h-1V25a1 1 0 0 0-1-1h-4V10L17 4v16h-2v-7h-2v7h-2a1 1 0 0 0-1 1v21zm3-20v20h5V22zm24 20h-2v-2h-3v2h-2V26h7zM22 13h-2v2h2zm2 0h2v2h-2zm6 0h-2v2h2zm-10 4h2v2h-2zm6 0h-2v2h2zm2 0h2v2h-2zm-6 4h-2v2h2zm2 0h2v2h-2zm6 0h-2v2h2zm-10 4h2v2h-2zm6 0h-2v2h2zm-4 4h-2v2h2zm2 0h2v2h-2zm-4 4h2v2h-2zm6 0h-2v2h2zm-4 4h-2v2h2zm2 0h2v2h-2zm7-7h3v-2h-3zm3 4h-3v-2h3zm-3 4h3v-2h-3z" clip-rule="evenodd"/></g><defs><clipPath id="healthiconsCityNegative0"><path d="M0 0h48v48H0z"/></clipPath></defs></g></svg>