<svg xmlns="http://www.w3.org/2000/svg" width="1em" height="1em" viewBox="0 0 48 48"><path fill="currentColor" fill-rule="evenodd" d="M19 4a1 1 0 0 0-1 1v4a1 1 0 0 0 1 1h1v1.273a1.5 1.5 0 0 0-1 1.415V39a5 5 0 0 0 10 0V12.688a1.5 1.5 0 0 0-1-1.415V10h1a1 1 0 0 0 1-1V5a1 1 0 0 0-1-1zm2 9.102a1.5 1.5 0 0 0 1-1.415V10h4v1.688a1.5 1.5 0 0 0 1 1.414V18h-6zm6 11.883L22.015 20H21v1.157l6 6zM24.844 20L27 22.157v-1.172L26.015 20zM27 29.985l-6-6v2.172l6 6zm0 7.172l-6-6v-2.172l6 6zm-.125 2.703L21 33.985v2.172l5.041 5.041c.387-.359.679-.819.834-1.338M24 42a3 3 0 0 1-3-3v-.015L24.015 42zM20 6v2h8V6z" clip-rule="evenodd"/></svg>