<svg xmlns="http://www.w3.org/2000/svg" width="1em" height="1em" viewBox="0 0 48 48"><g fill="none"><g clip-path="url(#healthiconsClinicalANegative0)"><path fill="currentColor" fill-rule="evenodd" d="M48 0H0v48h48zM18 5a1 1 0 0 1 1-1h10a1 1 0 0 1 1 1v3a1 1 0 0 1-1 1h-1v2.273a1.5 1.5 0 0 1 1 1.415V39a5 5 0 0 1-10 0V12.688a1.5 1.5 0 0 1 1-1.415V9h-1a1 1 0 0 1-1-1zm4 4v2.688a1.5 1.5 0 0 1-1 1.414V18h6v-4.898a1.5 1.5 0 0 1-1-1.415V9z" clip-rule="evenodd"/></g><defs><clipPath id="healthiconsClinicalANegative0"><path d="M0 0h48v48H0z"/></clipPath></defs></g></svg>