<svg xmlns="http://www.w3.org/2000/svg" width="1em" height="1em" viewBox="0 0 48 48"><path fill="currentColor" fill-rule="evenodd" d="M6 9a3 3 0 0 1 3-3h30a3 3 0 0 1 3 3v30a3 3 0 0 1-3 3H9a3 3 0 0 1-3-3zm6.19 11.276c0-4.294 2.78-8.276 6.59-8.276c2.643 0 4.604 1.787 5.815 4.32c1.21-2.533 3.171-4.32 5.815-4.32c3.809 0 6.59 3.983 6.59 8.276C37 29.466 24.595 36 24.595 36s-8.265-4.09-11.303-10.805h3.774l1.674-2.927L20.696 29l4.58-5.79h4.685A1.03 1.03 0 0 0 31 22.187a1.03 1.03 0 0 0-1.039-1.022H24.26l-2.691 3.403l-2.2-7.569l-3.518 6.153h-3.287c-.24-.92-.375-1.88-.375-2.877m.364 2.876H10v2.043h3.285z" clip-rule="evenodd"/></svg>