<svg xmlns="http://www.w3.org/2000/svg" width="1em" height="1em" viewBox="0 0 48 48"><g fill="currentColor"><path fill-rule="evenodd" d="m40.272 31.501l.088.016l.013-.029zM24 40c1.882 0 3.688-.325 5.365-.922l2.094 1.309A17.934 17.934 0 0 1 24 42c-9.941 0-18-8.059-18-18S14.059 6 24 6s18 8.059 18 18c0 .416-.014.828-.042 1.237l-2.027.259A16.1 16.1 0 0 0 40 24c0-8.837-7.163-16-16-16S8 15.163 8 24s7.163 16 16 16" clip-rule="evenodd"/><path fill-rule="evenodd" d="M17.241 18.349a1 1 0 0 1 1.314-.181l3 2a1 1 0 0 1 0 1.664l-3 2a1 1 0 0 1-1.267-1.534c.724-.734.825-1.08.824-1.26c-.002-.202-.129-.574-.85-1.363a1 1 0 0 1-.02-1.326m17.517 0a1 1 0 0 0-1.314-.181l-3 2a1 1 0 0 0 0 1.664l3 2a1 1 0 0 0 1.267-1.534c-.724-.734-.825-1.08-.824-1.26c.002-.202.129-.574.85-1.363a1 1 0 0 0 .02-1.326" clip-rule="evenodd"/><path d="M32 31a6 6 0 1 1-12 0a6 6 0 0 1 12 0"/><path fill-rule="evenodd" d="M26 35a4 4 0 1 0 0-8a4 4 0 0 0 0 8m0 2a6 6 0 1 0 0-12a6 6 0 0 0 0 12m15.99-6.475a.938.938 0 0 1-1.011.935l-1.55-.115a1.066 1.066 0 0 1-.968-1.08a.938.938 0 0 1 1.01-.935l1.55.114c.546.04.98.524.968 1.08m-4.745-.349a.938.938 0 0 1-1.01.935l-1.147-.085a1.066 1.066 0 0 1-.969-1.08a.938.938 0 0 1 1.01-.935l1.148.084c.546.04.98.524.968 1.08m-1.674 7.908c.388-.372 1.014-.337 1.4.079l1.859 2.009c.385.416.382 1.054-.006 1.426c-.388.373-1.014.337-1.4-.078l-1.859-2.01c-.385-.415-.382-1.054.006-1.426m-3.127-3.378c.388-.372 1.014-.337 1.4.079l.892.965c.385.416.383 1.054-.005 1.427c-.388.372-1.015.337-1.4-.08l-.893-.964c-.385-.416-.382-1.055.006-1.427m7.37.666c.197-.508.77-.736 1.28-.508l.173.077c.51.228.763.826.565 1.335c-.197.51-.77.737-1.28.51l-.174-.078c-.51-.228-.762-.826-.565-1.335m-6.134-2.745c.197-.51.77-.738 1.28-.51l3.272 1.464c.51.228.762.826.565 1.335a.94.94 0 0 1-1.28.51l-3.272-1.464c-.51-.228-.763-.826-.565-1.335" clip-rule="evenodd"/></g></svg>