<svg xmlns="http://www.w3.org/2000/svg" width="1em" height="1em" viewBox="0 0 48 48"><g fill="none"><g clip-path="url(#healthiconsCrisisResponseCenterPersonNegative0)"><path fill="currentColor" fill-rule="evenodd" d="M48 0H0v48h48zM23 6H6v12h17zm19 0H25v12h17zM6 32V20h17v4.083A6.002 6.002 0 0 0 18.341 32zm24-2a5.99 5.99 0 0 1-.341 2H42V20H25v4.083c2.838.476 5 2.944 5 5.917M14.5 16a1 1 0 1 0 0-2a1 1 0 0 0 0 2m-1-7a1 1 0 1 1 2 0v3a1 1 0 1 1-2 0zM32 25h7a1 1 0 1 0 0-2h-7a1 1 0 1 0 0 2M9 25v-2h2v2zm0 2v2h2v-2zm4-2v-2h2v2zm0 2v2h2v-2zm4-2v-2h2v2zm15 3a1 1 0 0 0 1 1h6a1 1 0 1 0 0-2h-6a1 1 0 0 0-1 1m8.207-18.793L34.5 14.914l-2.5-2.5l-2.293 2.293l-1.414-1.414L32 9.586l2.5 2.5l4.293-4.293zM24 36c-2.336 0-7 .71-7 2.121V41h14v-2.879C31 36.711 26.336 36 24 36m0-2a4 4 0 1 0 0-8a4 4 0 0 0 0 8" clip-rule="evenodd"/></g><defs><clipPath id="healthiconsCrisisResponseCenterPersonNegative0"><path d="M0 0h48v48H0z"/></clipPath></defs></g></svg>