<svg xmlns="http://www.w3.org/2000/svg" width="1em" height="1em" viewBox="0 0 48 48"><g fill="none"><g clip-path="url(#healthiconsDatabaseNegative0)"><path fill="currentColor" fill-rule="evenodd" d="M48 0H0v48h48zm-9 16.179V9.75C39 7.679 32.284 6 24 6C15.716 6 9 7.679 9 9.75v6.429c0 2.07 6.716 3.75 15 3.75c8.284 0 15-1.68 15-3.75m-15 6.214c-6.795 0-12.535-1.13-14.379-2.679c-.404.34-.621.7-.621 1.072v6.428c0 2.071 6.716 3.75 15 3.75c8.284 0 15-1.679 15-3.75v-6.428c0-.373-.217-.732-.621-1.072c-1.844 1.55-7.584 2.679-14.379 2.679M9.621 31c1.844 1.549 7.584 2.679 14.379 2.679S36.535 32.549 38.379 31c.404.34.621.7.621 1.071V38.5c0 2.071-6.716 3.75-15 3.75c-8.284 0-15-1.679-15-3.75v-6.429c0-.372.217-.731.621-1.071m20.712 8a1.333 1.333 0 1 0 0-2.667a1.333 1.333 0 0 0 0 2.667M37 36.333a1.333 1.333 0 1 1-2.667 0a1.333 1.333 0 0 1 2.667 0" clip-rule="evenodd"/></g><defs><clipPath id="healthiconsDatabaseNegative0"><path d="M0 0h48v48H0z"/></clipPath></defs></g></svg>