<svg xmlns="http://www.w3.org/2000/svg" width="1em" height="1em" viewBox="0 0 48 48"><g fill="currentColor"><path d="M23 11v3h-3v2h3v3h2v-3h3v-2h-3v-3z"/><path fill-rule="evenodd" d="M6 9a3 3 0 0 1 3-3h30a3 3 0 0 1 3 3v30a3 3 0 0 1-3 3H9a3 3 0 0 1-3-3zm2 0a1 1 0 0 1 1-1h30a1 1 0 0 1 1 1v26h-2.666a.995.995 0 0 0-.018-.187l-1.29-6.767l1.935-6.771a1 1 0 0 0-1.923-.55l-1.199 4.198H27v2h1.308v1.692h-.539a1 1 0 0 0-.39 1.921l-1.332 4.16A.999.999 0 0 0 26 35h-4a1 1 0 0 0-.048-.305l-1.33-4.159a1 1 0 0 0-.391-1.92h-.539v-1.693H21v-2h-7.84l-1.199-4.198a1 1 0 1 0-1.922.55l1.934 6.771l-1.289 6.767a1.013 1.013 0 0 0-.018.187H8zm31 31a1 1 0 0 0 1-1v-2H8v2a1 1 0 0 0 1 1zm-4.982-11.813l.081.428h-3.791v-1.692h3.96l-.23.802a1 1 0 0 0-.02.462M35.315 35l-.762-4H29.33l-1.28 4zm-21.333-6.813l-.081.428h3.791v-1.692h-3.96l.23.802a1 1 0 0 1 .02.462M12.685 35l.762-4h5.223l1.28 4z" clip-rule="evenodd"/></g></svg>