<svg xmlns="http://www.w3.org/2000/svg" width="1em" height="1em" viewBox="0 0 48 48"><g fill="none"><g clip-path="url(#healthiconsDroneNegative0)"><path fill="currentColor" fill-rule="evenodd" d="M48 0H0v48h48zM18 35a5 5 0 1 1-2.73-4.456l-1.475 2.896a1.75 1.75 0 1 0 .752.74l2.87-1.524c.372.7.583 1.497.583 2.344m-1.821-6.238l2.541-4.986l-2.29-4.673a7 7 0 1 1 2.895-3.1L24 18.388l4.675-2.385a7 7 0 1 1 2.895 3.1l-2.29 4.672l2.541 4.987a7 7 0 1 1-3.006 2.956L24 29.163l-4.815 2.555a7 7 0 1 1-3.006-2.956m14.403 3.894a5 5 0 1 0 2.147-2.112l1.476 2.896a1.75 1.75 0 1 1-.751.74zm1.87-15.353a5 5 0 1 0-1.994-2.21l2.902-1.48a1.75 1.75 0 1 1 .535.745zm-14.91-2.21a5 5 0 1 0-1.994 2.21l-1.443-2.946a1.75 1.75 0 1 1 .535-.745z" clip-rule="evenodd"/></g><defs><clipPath id="healthiconsDroneNegative0"><path d="M0 0h48v48H0z"/></clipPath></defs></g></svg>