<svg xmlns="http://www.w3.org/2000/svg" width="1em" height="1em" viewBox="0 0 48 48"><g fill="none"><g fill="currentColor" fill-rule="evenodd" clip-path="url(#healthiconsEcoCareNegative0)" clip-rule="evenodd"><path d="M17 24.959c0 2.807 3.142 3.703 5.441 2.957c-1.098 3.251-.078 5.784.83 6.764l1.467-1.36c-.356-.384-1.164-1.945-.551-4.267C25.298 31.943 31 31.47 31 27.198V16c-2.882 2.439-5.961 3.403-8.495 4.197C19.323 21.193 17 21.92 17 24.959m7.433 3.32l-1.867-.707c.5-1.32 1.35-2.752 2.69-4.241a1 1 0 1 1 1.487 1.338c-1.183 1.315-1.901 2.53-2.31 3.61"/><path d="M48 0H0v48h48zM15.563 7C10.035 7 6 12.64 6 18.724C6 32.304 24 41 24 41s18-9.256 18-22.276C42 12.642 37.965 7 32.438 7C28.602 7 25.755 9.531 24 13.121C22.243 9.531 19.398 7 15.563 7"/></g><defs><clipPath id="healthiconsEcoCareNegative0"><path d="M0 0h48v48H0z"/></clipPath></defs></g></svg>