<svg xmlns="http://www.w3.org/2000/svg" width="1em" height="1em" viewBox="0 0 48 48"><g fill="currentColor"><path fill-rule="evenodd" d="M32.5 23a2.5 2.5 0 1 0 0-5a2.5 2.5 0 0 0 0 5m0 2a4.5 4.5 0 1 0 0-9a4.5 4.5 0 0 0 0 9" clip-rule="evenodd"/><path fill-rule="evenodd" d="M17.244 38.504A16 16 0 1 0 30.755 9.497a16 16 0 0 0-13.51 29.007l-.845 1.813A18 18 0 1 1 31.6 7.683a18 18 0 0 1-15.2 32.634z" clip-rule="evenodd"/><path d="m13.475 19.883l.636.772zm.748-.615l-.636-.773zm1.336 3.668l.257.966zm1.445.435l-.86.512zm.211 2.901a1 1 0 1 0 1.826-.818zm.066-2.296l-.94.343zm12.646 3.133l.92-.393zm-2.349-1.149l.254.968h.001zm2.242 3.627l-.904-.427zM28.725 31.1l.72.694zm-2.93 2.34l-.555-.831zm-2.926 1.766l.479.878zm-1.035.536l-.434-.9zm-.394.177l-.373-.928zm-.29.1l-.266-.964zm-.4.07l-.077-.997zm-.559-.034l-.199.98zm-1.213-.773l.804-.594zm-.132-.202l.871-.492l-.003-.006zm-.038-.07l-.881.473zm-.05-.095l-.891.454zm-.113-.227l.896-.443zm-.346-.706l-.899.438zm-.169-.347l.899-.438zm-.84-1.718l-.897.44zm-.698-1.409l.893-.449a1 1 0 0 0-1.31-.46zm-.587.27l.419.908zm-1.262.568l.37.929zm-1.485-3.714l.371.928zm.872-.394l.42.907zm.946-.435l-.414-.91zm1.131-.492l-.374-.928zm.517-.19l.297.956zm.363-.09l.174.985zm.352-.034l-.018-1zm.815.15l-.377.927zm.626.403l-.685.729zm.194.208l.774-.633zm.163.224l.835-.55zm.19.314l.87-.492zm.403.757l-.888.458zm1.05 2.1l-.897.44zm.609 1.243l-.9.439a1 1 0 0 0 1.394.43zm2.085-1.282l-.556-.831zm.13-.088l.56.829a1 1 0 0 0 .09-1.589zm-.492-.63l.894-.448zm-2.072-4.644l-.926.376zm1.103-2.605l-.376-.927zm2.604 1.102l.927-.375zm1.015 2.298l-.913.408zm.338.754l-.913.41a1 1 0 0 0 1.138.564zm.93-.225l.244.97zm.328-.084l.25.968h.002zm.09-.024l.252.968h.002zm-13.437-5.313l.747-.615l-1.27-1.544l-.748.614zm1.19 1.315c-.755.201-1.25-.095-1.44-.374a.57.57 0 0 1-.106-.412c.018-.122.094-.314.356-.53l-1.27-1.544c-.59.485-.961 1.1-1.063 1.776a2.57 2.57 0 0 0 .43 1.837c.716 1.047 2.114 1.577 3.608 1.18zm2.562.89c-.165-.278-.459-.755-1.044-.953c-.522-.177-1.073-.056-1.518.063l.515 1.932c.206-.055.327-.076.397-.083c.066-.006.036.007-.035-.017a.423.423 0 0 1-.143-.085a2.213 2.213 0 0 1 .11.166zm-3.005-2.82c.732-.602 1.102-1.36 1.129-2.198c.025-.782-.25-1.537-.59-2.195c-.345-.668-.807-1.334-1.262-1.95c-.477-.648-.913-1.201-1.318-1.774l-1.633 1.154c.411.582.922 1.237 1.341 1.806c.442.6.826 1.16 1.094 1.68c.273.53.378.927.369 1.214c-.008.23-.087.46-.4.718zm4.183 5.414c-.278-.62-.729-1.569-.82-1.82l-1.88.685c.124.339.653 1.46.874 1.953zm-2.896-1.571c.069.115.13.256.196.436l1.88-.686a4.538 4.538 0 0 0-.358-.773zm14.702 2.833a3 3 0 0 0-3.523-1.723l.51 1.934a1 1 0 0 1 1.174.575zm-.123 3.299c.343-.727.694-1.961.123-3.299l-1.84.786c.26.606.123 1.206-.091 1.658zm-1.28 1.779c.434-.45.937-1.052 1.28-1.78l-1.808-.854c-.212.448-.549.87-.912 1.247zm-3.093 2.478c1.044-.697 2.212-1.562 3.094-2.478l-1.44-1.387c-.733.76-1.76 1.53-2.765 2.202zm-3.003 1.812a40.325 40.325 0 0 0 3.003-1.812l-1.11-1.663a38.358 38.358 0 0 1-2.85 1.719zm-1.081.56c.291-.14.665-.333 1.08-.56l-.956-1.756c-.397.216-.739.392-.99.513zm-.454.203c.155-.062.316-.137.454-.203L21.4 34.84a5.17 5.17 0 0 1-.333.15zm-.396.135c.183-.05.332-.11.396-.135l-.746-1.856a1.727 1.727 0 0 1-.183.064zm-.591.104c.292-.022.517-.083.591-.104l-.533-1.927c-.029.008-.11.03-.211.037zm-.834-.051c.383.078.694.062.834.051l-.153-1.994a.977.977 0 0 1-.282-.017zm-1.818-1.159a3.005 3.005 0 0 0 1.818 1.159l.398-1.96a1.005 1.005 0 0 1-.608-.388zm-.198-.303c.013.022.088.154.198.303l1.608-1.189a1.1 1.1 0 0 1-.062-.093l-.002-.005h-.001zm-.05-.09l.053.095l1.735-.996a1.772 1.772 0 0 1-.025-.044zm-.059-.114l.06.114l1.762-.945a4.265 4.265 0 0 1-.04-.077zm-.119-.238l.119.238l1.782-.908a22.022 22.022 0 0 1-.108-.215zm-.348-.711l.348.711l1.793-.886l-.343-.702zm-.169-.347l.169.347l1.798-.877l-.169-.346zm-.838-1.715c.296.601.589 1.203.838 1.715l1.798-.876c-.25-.512-.544-1.116-.841-1.721zm-.695-1.4c.215.427.454.91.695 1.4l1.795-.882c-.242-.493-.485-.982-.703-1.417zm.726.728l.583-.268l-.831-1.82l-.59.272zm-1.31.589c.272-.11.81-.358 1.31-.589l-.838-1.816c-.532.246-1.005.464-1.214.547zm-3.9-1.673a3 3 0 0 0 3.9 1.673l-.742-1.858a1 1 0 0 1-1.3-.557zm1.673-3.899a3 3 0 0 0-1.672 3.9l1.857-.743a1 1 0 0 1 .557-1.3zm.823-.373c-.429.198-.708.327-.823.373l.742 1.857c.179-.071.527-.232.92-.415zm.952-.437c-.349.159-.674.309-.952.437l.84 1.816c.278-.129.597-.277.94-.432zm1.171-.51c-.354.143-.778.332-1.17.51l.826 1.82c.39-.176.78-.35 1.092-.475zm.594-.216a7.873 7.873 0 0 0-.594.216l.748 1.855c.153-.062.307-.12.44-.162zm.485-.12a3.95 3.95 0 0 0-.485.12l.594 1.91c.063-.02.149-.045.24-.06zm.51-.05a3.24 3.24 0 0 0-.51.05l.349 1.97c.044-.009.114-.019.196-.02zm1.209.224a3.063 3.063 0 0 0-1.21-.224l.036 2c.063-.001.23 0 .42.077zm.933.6a3.038 3.038 0 0 0-.933-.6l-.754 1.853c.176.071.288.176.318.205zm.284.304a3.174 3.174 0 0 0-.284-.305l-1.369 1.459c.048.045.084.087.105.112zm.224.307a3.683 3.683 0 0 0-.224-.307L18.3 27.391c.043.053.078.104.101.14zm.225.372a6.569 6.569 0 0 0-.225-.372l-1.67 1.099c.05.076.102.166.154.257zm.422.79c-.15-.292-.298-.57-.422-.79l-1.741.984c.105.186.238.437.386.723zm1.059 2.117c-.37-.752-.753-1.523-1.059-2.116l-1.777.916c.296.576.672 1.332 1.04 2.082zm.61 1.247c-.192-.393-.4-.82-.61-1.247l-1.795.882l.607 1.242zm.63-1.675c-.69.46-1.404.892-2.024 1.244l.99 1.739c.65-.37 1.407-.827 2.145-1.32zm.126-.085l-.125.085l1.11 1.663l.136-.091zm-.826.647c.207.413.477.72.737.942l1.3-1.52a1.007 1.007 0 0 1-.249-.319zm-2.104-4.717c.219.54 1.968 4.446 2.104 4.717l1.788-.896l-.028-.06l-.072-.156l-.228-.502a432.26 432.26 0 0 1-.655-1.46a153.984 153.984 0 0 1-1.056-2.395zm1.653-3.908a3 3 0 0 0-1.653 3.908l1.853-.752a1 1 0 0 1 .551-1.302zm3.907 1.654a3 3 0 0 0-3.907-1.654l.751 1.854a1 1 0 0 1 1.303.55zm1.001 2.265a168.541 168.541 0 0 1-1-2.265l-1.854.75c.09.223.558 1.279 1.028 2.331zm.337.753l-.337-.753l-1.826.816l.338.755zm-.227-.786c-.253.064-.58.144-.91.22l.45 1.95c.347-.081.688-.165.95-.23zm.323-.083l-.323.083l.49 1.94l.334-.086zm.09-.023l-.091.024l.503 1.935l.09-.023zm.027-.007l-.03.008l.507 1.935l.03-.008z"/></g></svg>