<svg xmlns="http://www.w3.org/2000/svg" width="1em" height="1em" viewBox="0 0 48 48"><g fill="none"><g clip-path="url(#healthiconsGeoLocationNegative0)"><path fill="currentColor" fill-rule="evenodd" d="M48 0H0v48h48zM23.424 41.817L24 41zm1.152 0L24 41zm0 0l.004-.002l.01-.007l.03-.023l.118-.085c.1-.074.246-.182.43-.324c.368-.282.89-.697 1.513-1.23a43.403 43.403 0 0 0 4.575-4.54C34.564 31.78 38 26.32 38 20.076c0-3.73-1.474-7.31-4.098-9.95A13.962 13.962 0 0 0 24 6a13.962 13.962 0 0 0-9.902 4.125A14.117 14.117 0 0 0 10 20.077c0 6.243 3.436 11.703 6.744 15.529a43.403 43.403 0 0 0 4.575 4.54c.624.533 1.145.948 1.513 1.23a25.536 25.536 0 0 0 .547.41l.032.022l.009.007l.004.002c.345.243.807.243 1.152 0M24 25a5 5 0 1 0 0-10a5 5 0 0 0 0 10" clip-rule="evenodd"/></g><defs><clipPath id="healthiconsGeoLocationNegative0"><path d="M0 0h48v48H0z"/></clipPath></defs></g></svg>