<svg xmlns="http://www.w3.org/2000/svg" width="1em" height="1em" viewBox="0 0 48 48"><g fill="currentColor"><path d="M17 31v-2h2v2z"/><path fill-rule="evenodd" d="M20 4a3 3 0 0 0-3 3h-4a3 3 0 0 0-3 3v31a3 3 0 0 0 3 3h22a3 3 0 0 0 3-3V10a3 3 0 0 0-3-3h-4a3 3 0 0 0-3-3zm-1 3a1 1 0 0 1 1-1h8a1 1 0 0 1 1 1v2a1 1 0 0 1-1 1h-8a1 1 0 0 1-1-1zm-3 13a1 1 0 1 0 0 2h7a1 1 0 1 0 0-2zm-1-4a1 1 0 0 1 1-1h15.5a1 1 0 1 1 0 2H16a1 1 0 0 1-1-1m0 12a1 1 0 0 1 1-1h4a1 1 0 0 1 1 1v4a1 1 0 0 1-1 1h-4a1 1 0 0 1-1-1zm13 4a3 3 0 1 0 0-6a3 3 0 1 0 0 6m-6 4.5c0-2.116 3.997-3.182 6-3.182s6 1.066 6 3.182V39H22z" clip-rule="evenodd"/></g></svg>