<svg xmlns="http://www.w3.org/2000/svg" width="1em" height="1em" viewBox="0 0 48 48"><g fill="none"><g clip-path="url(#healthiconsHighBarsNegative0)"><path fill="currentColor" fill-rule="evenodd" d="M48 0H0v48h48zM35 6a3 3 0 0 0-3 3v30a3 3 0 0 0 3 3h4a3 3 0 0 0 3-3V9a3 3 0 0 0-3-3zM19 21a3 3 0 0 1 3-3h4a3 3 0 0 1 3 3v18a3 3 0 0 1-3 3h-4a3 3 0 0 1-3-3zM9 30a3 3 0 0 0-3 3v6a3 3 0 0 0 3 3h4a3 3 0 0 0 3-3v-6a3 3 0 0 0-3-3z" clip-rule="evenodd"/></g><defs><clipPath id="healthiconsHighBarsNegative0"><path d="M0 0h48v48H0z"/></clipPath></defs></g></svg>