<svg xmlns="http://www.w3.org/2000/svg" width="1em" height="1em" viewBox="0 0 48 48"><g fill="none"><g clip-path="url(#healthiconsHomeAltNegative0)"><path fill="currentColor" fill-rule="evenodd" d="M0 0h48v48H0zm20 31v8a1 1 0 0 1-1 1h-7a1 1 0 0 1-1-1V23.925l-3.294 3.283a1 1 0 0 1-1.412-1.416l17.056-17l.708-.706l.706.708l16.944 17a1 1 0 0 1-1.416 1.412L37 23.903V39a1 1 0 0 1-1 1h-7a1 1 0 0 1-1-1v-8a2 2 0 0 0-2-2h-4a2 2 0 0 0-2 2" clip-rule="evenodd"/></g><defs><clipPath id="healthiconsHomeAltNegative0"><path d="M0 0h48v48H0z"/></clipPath></defs></g></svg>