<svg xmlns="http://www.w3.org/2000/svg" width="1em" height="1em" viewBox="0 0 48 48"><g fill="none"><g fill="currentColor" clip-path="url(#healthiconsLetrinaNegative0)"><path d="M21 11h6l-6.518.033A4.03 4.03 0 0 1 21 11"/><path fill-rule="evenodd" d="M27 13a2 2 0 0 1 2 2v20a2 2 0 0 1-2 2h-6a2 2 0 0 1-2-2V15a2 2 0 0 1 2-2zm-3 7c1.035 0 1.875-.895 1.875-2s-.84-2-1.875-2c-1.035 0-1.875.895-1.875 2s.84 2 1.875 2" clip-rule="evenodd"/><path fill-rule="evenodd" d="M14 6h20a2 2 0 0 1 2 2v5.4l-2.89-3.084l-1.46 1.368l4.35 4.64v2.075l-2.89-3.083l-1.46 1.368l4.35 4.64v2.075l-2.89-3.083l-1.46 1.368l4.35 4.64v2.075l-2.89-3.083l-1.46 1.368l4.35 4.64v2.075l-2.89-3.083l-1.46 1.368l4.35 4.64V40a2 2 0 0 1-2 2H14a2 2 0 0 1-2-2v-3.669l4.357-4.647l-1.46-1.368L12 33.407v-2.076l4.357-4.647l-1.46-1.368L12 28.407v-2.076l4.357-4.647l-1.46-1.368L12 23.407v-2.076l4.357-4.647l-1.46-1.368L12 18.407v-2.076l4.357-4.647l-1.46-1.368L12 13.407V8a2 2 0 0 1 2-2m13 2h-6a4 4 0 0 0-4 4v23a4 4 0 0 0 4 4h6a4 4 0 0 0 4-4V12a4.002 4.002 0 0 0-4-4" clip-rule="evenodd"/><path fill-rule="evenodd" d="M48 0H0v48h48zM10 8a4 4 0 0 1 4-4h20a4 4 0 0 1 4 4v32a4 4 0 0 1-4 4H14a4 4 0 0 1-4-4z" clip-rule="evenodd"/></g><defs><clipPath id="healthiconsLetrinaNegative0"><path d="M0 0h48v48H0z"/></clipPath></defs></g></svg>