<svg xmlns="http://www.w3.org/2000/svg" width="1em" height="1em" viewBox="0 0 48 48"><g fill="none"><g fill="currentColor" fill-rule="evenodd" clip-path="url(#healthiconsMalariaMixedMicroscopeNegative0)" clip-rule="evenodd"><path d="M9.693 22.308c1.18 1.527 4.627.841 7.698-1.533c3.072-2.373 4.606-5.536 3.426-7.063c-1.18-1.527-4.628-.84-7.7 1.533c-3.07 2.374-4.604 5.536-3.424 7.063m3.876-1.918a1 1 0 1 0 0-2a1 1 0 0 0 0 2m2.794-3.406a.5.5 0 1 1-1 0a.5.5 0 0 1 1 0m-.726 1.906a.5.5 0 1 0 0-1a.5.5 0 0 0 0 1m2.71-2.813a.7.7 0 1 1-1.4 0a.7.7 0 0 1 1.4 0m13.04 11.773c3.287 1.984 5.151 4.918 4.165 6.551c-.987 1.634-4.451 1.35-7.738-.634c-3.286-1.985-5.15-4.918-4.164-6.552c.986-1.634 4.45-1.35 7.737.635m1.032 4.048a1 1 0 1 1-2 0a1 1 0 0 1 2 0m-2.454-.732a.453.453 0 1 0 0-.906a.453.453 0 0 0 0 .906m-2.691-2.127a.447.447 0 1 1-.894 0a.447.447 0 0 1 .894 0m1.042 1.673a.768.768 0 1 0 0-1.536a.768.768 0 0 0 0 1.536m4.09-14.71c1.645 3.519 1.562 7.034-.188 7.852c-1.749.819-4.5-1.37-6.147-4.889c-1.646-3.518-1.562-7.033.187-7.852c1.75-.818 4.502 1.371 6.148 4.89M30.3 17.076a1 1 0 1 1-2 0a1 1 0 0 1 2 0m-2.5-1.48a.5.5 0 1 0 0-1a.5.5 0 0 0 0 1m3.076 3.954a.7.7 0 1 1-1.4 0a.7.7 0 0 1 1.4 0M20.568 30.933c1.784 3.549 1.8 7.145.035 8.032c-1.764.887-4.64-1.271-6.425-4.82c-1.784-3.55-1.8-7.145-.036-8.032c1.765-.887 4.642 1.27 6.426 4.82m-2.11 2.087a1 1 0 1 1-2 0a1 1 0 0 1 2 0m-1.085-1.897a.453.453 0 1 0 0-.906a.453.453 0 0 0 0 .906m-1.206-1.496a.5.5 0 1 1-1 0a.5.5 0 0 1 1 0m2.7 6.209a.7.7 0 1 0 0-1.4a.7.7 0 0 0 0 1.4"/><path d="M48 0H0v48h48zM24 44c11.046 0 20-8.954 20-20S35.046 4 24 4S4 12.954 4 24s8.954 20 20 20"/></g><defs><clipPath id="healthiconsMalariaMixedMicroscopeNegative0"><path d="M0 0h48v48H0z"/></clipPath></defs></g></svg>