<svg xmlns="http://www.w3.org/2000/svg" width="1em" height="1em" viewBox="0 0 48 48"><g fill="currentColor" fill-rule="evenodd" clip-rule="evenodd"><path d="M4.08 18.222L18.222 4.08L26 11.858L11.858 26zm2.828 0l4.95 4.95l11.314-11.314l-4.95-4.95z"/><path d="m11.858 23.172l11.314-11.314l17.677 17.678a8 8 0 1 1-11.313 11.313zm2.828 0L30.95 39.435a6 6 0 0 0 8.485-8.485L23.172 14.686z"/><path d="m19.636 23.879l7.778-7.779l12.021 12.021l-7.778 7.779zm2.828 0l9.193 9.192l4.95-4.95l-9.193-9.192zM8.322 13.98l7.425 7.424l-1.414 1.414l-7.425-7.425zm3.536-3.536l7.424 7.424l-1.414 1.415l-7.424-7.425zm3.535-3.536l7.425 7.425l-1.414 1.414l-7.425-7.425z"/><path d="M25.602 32.231c-.639.64-1.028 1.21-1.128 1.51l-1.898-.633c.254-.76.925-1.604 1.612-2.29c.712-.713 1.593-1.407 2.425-1.823l.895 1.788c-.582.291-1.292.835-1.906 1.448"/></g></svg>