<svg xmlns="http://www.w3.org/2000/svg" width="1em" height="1em" viewBox="0 0 48 48"><g fill="none"><g fill="currentColor" clip-path="url(#healthiconsMediumBarsNegative0)"><path d="M34 9a1 1 0 0 1 1-1h4a1 1 0 0 1 1 1v30a1 1 0 0 1-1 1h-4a1 1 0 0 1-1-1z"/><path fill-rule="evenodd" d="M48 0H0v48h48zM22 18a3 3 0 0 0-3 3v18a3 3 0 0 0 3 3h4a3 3 0 0 0 3-3V21a3 3 0 0 0-3-3zM6 33a3 3 0 0 1 3-3h4a3 3 0 0 1 3 3v6a3 3 0 0 1-3 3H9a3 3 0 0 1-3-3zM35 6a3 3 0 0 0-3 3v30a3 3 0 0 0 3 3h4a3 3 0 0 0 3-3V9a3 3 0 0 0-3-3z" clip-rule="evenodd"/></g><defs><clipPath id="healthiconsMediumBarsNegative0"><path d="M0 0h48v48H0z"/></clipPath></defs></g></svg>