<svg xmlns="http://www.w3.org/2000/svg" width="1em" height="1em" viewBox="0 0 48 48"><g fill="none"><g fill="currentColor" fill-rule="evenodd" clip-path="url(#healthiconsMedicalSearchNegative0)" clip-rule="evenodd"><path d="M27 34c7.18 0 13-5.82 13-13S34.18 8 27 8s-13 5.82-13 13s5.82 13 13 13m-2-15v-4h4v4h4v4h-4v4h-4v-4h-4v-4z"/><path d="M0 0h48v48H0zm14.632 32.126l-1.705.119L6 39.172L8.828 42l6.884-6.884l.158-1.4l1.346-1.346A14.942 14.942 0 0 0 27 36c8.284 0 15-6.716 15-15c0-8.284-6.716-15-15-15c-8.284 0-15 6.716-15 15c0 3.826 1.432 7.317 3.79 9.967z"/></g><defs><clipPath id="healthiconsMedicalSearchNegative0"><path d="M0 0h48v48H0z"/></clipPath></defs></g></svg>