<svg xmlns="http://www.w3.org/2000/svg" width="1em" height="1em" viewBox="0 0 48 48"><path fill="currentColor" fill-rule="evenodd" d="M0 0h48v48H0zm18.142 4L4 18.142l7.778 7.778l1.403-1.403l16.36 16.36a8 8 0 1 0 11.314-11.313l-16.36-16.36l1.425-1.426zm18.47 24.15l-9.192-9.193l-4.95 4.95l9.193 9.192zM26.007 17.543l-2.828-2.828l-8.486 8.485l9.346 9.345c.523-.715 1.337-1.51 2.152-2.09l-6.548-6.548zm-7.778-.707l-4.95-4.95l-1.414 1.414l4.95 4.95zM16.814 8.35l-1.415 1.415l4.95 4.95l1.414-1.415zm-7.072 7.072l-1.414 1.414l4.95 4.95l1.414-1.415z" clip-rule="evenodd"/></svg>