<svg xmlns="http://www.w3.org/2000/svg" width="1em" height="1em" viewBox="0 0 48 48"><g fill="currentColor" fill-rule="evenodd" clip-rule="evenodd"><path d="M21 10a2 2 0 0 0-2 2h-3a2 2 0 0 0-2 2v22a2 2 0 0 0 2 2h16a2 2 0 0 0 2-2V14a2 2 0 0 0-2-2h-3a2 2 0 0 0-2-2zm0 2h6v2h-6zm3.557 16l-2.493 6.649a1 1 0 1 0 1.872.702l1.259-3.355h2.61l1.259 3.355a1 1 0 1 0 1.872-.702L28.444 28h2.858a1 1 0 1 0 0-2h-10.3a1 1 0 0 0 0 2zM31 19.24H17v-2h14zM17 23.4h5v-2h-5zm11.5-.4a2 2 0 1 1-4 0a2 2 0 0 1 4 0"/><path d="M39 8H9a1 1 0 0 0-1 1v30a1 1 0 0 0 1 1h30a1 1 0 0 0 1-1V9a1 1 0 0 0-1-1M9 6a3 3 0 0 0-3 3v30a3 3 0 0 0 3 3h30a3 3 0 0 0 3-3V9a3 3 0 0 0-3-3z"/></g></svg>