<svg xmlns="http://www.w3.org/2000/svg" width="1em" height="1em" viewBox="0 0 48 48"><g fill="none"><g clip-path="url(#healthiconsMinerWorkerNegative0)"><path fill="currentColor" fill-rule="evenodd" d="M0 0h48v48H0zm31.904 18.76a8 8 0 1 1-15.809 0c-2.606-.914-3.958-2.396-2.492-4.447c.038.181.087.356.148.525a1 1 0 1 0 1.882-.676c-.172-.479-.197-1.24.045-2.15a6 6 0 0 1 .282-.25A7.488 7.488 0 0 1 18 8.954v3.526a1 1 0 0 0 2 0V7.71a8.928 8.928 0 0 1 3-.69v3.46a1 1 0 0 0 2 0V7.075a9.997 9.997 0 0 1 3 .807v4.599a1 1 0 0 0 2 0V9.13c.995.835 1.697 1.829 2.1 2.818a3.9 3.9 0 0 1 .235.122c.216.803.212 1.542.017 2.098a1 1 0 1 0 1.887.662c.06-.173.11-.35.15-.53c1.479 2.057.127 3.544-2.485 4.459m-13.865.554c.842.17 1.742.3 2.674.391a3.501 3.501 0 0 0 6.574 0c.932-.09 1.832-.221 2.674-.391a6 6 0 1 1-11.923 0M24 20a1.5 1.5 0 1 1 0-3a1.5 1.5 0 0 1 0 3m1-13a1 1 0 1 0-2 0zm7 22.135V42H16V29.135a39.478 39.478 0 0 1 3.534-.735L23 31h2l3.466-2.6c1.15.184 2.348.43 3.534.735m-20 1.29a29.243 29.243 0 0 1 2-.717V42h-2zM36 42h-2V29.708c.687.22 1.357.459 2 .717zM10 31.345C7.635 32.597 6 34.167 6 36v6h4zM38 42h4v-6c0-1.833-1.635-3.404-4-4.655zm-12-5a2 2 0 1 1-4 0a2 2 0 0 1 4 0" clip-rule="evenodd"/></g><defs><clipPath id="healthiconsMinerWorkerNegative0"><path d="M0 0h48v48H0z"/></clipPath></defs></g></svg>