<svg xmlns="http://www.w3.org/2000/svg" width="1em" height="1em" viewBox="0 0 48 48"><g fill="none"><g fill="currentColor" clip-path="url(#healthiconsMinistryOfHealthNegative0)"><path d="M25 12v-2h-2v2h-2v2h2v2h2v-2h2v-2zm1 17a2 2 0 1 0-4 0v8h4z"/><path fill-rule="evenodd" d="M48 0H0v48h48zM24.625 5.22a1 1 0 0 0-1.25 0L8.65 17H6v6h36v-6h-2.65zM20 29a4 4 0 0 1 8 0v8h6v-4h2v-8h4v8h2v4h2v6H4v-6h2v-4h2v-8h4v8h2v4h6z" clip-rule="evenodd"/></g><defs><clipPath id="healthiconsMinistryOfHealthNegative0"><path d="M0 0h48v48H0z"/></clipPath></defs></g></svg>