<svg xmlns="http://www.w3.org/2000/svg" width="1em" height="1em" viewBox="0 0 48 48"><g fill="currentColor"><path d="M16.222 31.778a1 1 0 0 1 0-1.414L22.586 24l-6.364-6.364a1 1 0 0 1 1.414-1.414L24 22.586l6.364-6.364a1 1 0 0 1 1.414 1.414L25.414 24l6.364 6.364a1 1 0 0 1-1.414 1.414L24 25.414l-6.364 6.364a1 1 0 0 1-1.414 0"/><path fill-rule="evenodd" d="M24 44c11.046 0 20-8.954 20-20S35.046 4 24 4S4 12.954 4 24s8.954 20 20 20m0-2c9.941 0 18-8.059 18-18S33.941 6 24 6S6 14.059 6 24s8.059 18 18 18" clip-rule="evenodd"/></g></svg>