<svg xmlns="http://www.w3.org/2000/svg" width="1em" height="1em" viewBox="0 0 48 48"><g fill="currentColor" fill-rule="evenodd" clip-rule="evenodd"><path d="M39 8H9a1 1 0 0 0-1 1v30a1 1 0 0 0 1 1h30a1 1 0 0 0 1-1V9a1 1 0 0 0-1-1M9 6a3 3 0 0 0-3 3v30a3 3 0 0 0 3 3h30a3 3 0 0 0 3-3V9a3 3 0 0 0-3-3z"/><path d="M20.046 37.997a.733.733 0 0 1-.643-.804l.57-6.443l2.875 1.582l.662-4.135a.714.714 0 0 1 .817-.607a.737.737 0 0 1 .585.85l-.985 6.158l-2.734-1.504l-.375 4.235a.719.719 0 0 1-.773.668m-9.955-9.939a.755.755 0 0 1 .274-1.006l5.645-3.28l.39 3.516l3.868-1.878a.7.7 0 0 1 .945.358c.166.37.012.81-.344.982l-5.655 2.744l-.372-3.35l-3.783 2.199a.696.696 0 0 1-.968-.285m3.304-14.932a.695.695 0 0 1 .976-.248l5.662 3.574l-2.827 2.146l3.602 2.666c.32.237.395.698.167 1.03a.693.693 0 0 1-.99.174l-5.21-3.855l2.698-2.048l-3.84-2.423a.756.756 0 0 1-.238-1.016m15.566-3.115c.386.071.644.455.576.857l-1.068 6.299l-2.703-1.799l-.97 3.994a.71.71 0 0 1-.864.535a.742.742 0 0 1-.515-.897l1.454-5.983l2.568 1.71l.698-4.116a.714.714 0 0 1 .823-.6m8.953 10.367a.755.755 0 0 1-.281 1.004l-5.412 3.087l-.344-3.332l-3.622 1.722a.7.7 0 0 1-.942-.365a.752.752 0 0 1 .351-.98l5.416-2.574l.327 3.167l3.542-2.021a.697.697 0 0 1 .965.292m-3.688 13.398a.695.695 0 0 1-.976.248l-5.344-3.372l2.642-2.006l-3.307-2.447a.758.758 0 0 1-.166-1.03a.693.693 0 0 1 .99-.175l4.914 3.637l-2.513 1.907l3.521 2.223a.756.756 0 0 1 .239 1.015"/></g></svg>