<svg xmlns="http://www.w3.org/2000/svg" width="1em" height="1em" viewBox="0 0 48 48"><g fill="none"><g clip-path="url(#healthiconsPavedRoadAltNegative0)"><path fill="currentColor" fill-rule="evenodd" d="M48 .04L0 0l-.04 48l48 .04zM12.994 7.97a2 2 0 0 1 2.001-1.998l18 .015a2 2 0 0 1 1.999 2.002l-.027 32a2 2 0 0 1-2.001 1.998l-18-.015a2 2 0 0 1-1.999-2.001zM24.011 10a1 1 0 0 0-1.001 1l-.003 4a1 1 0 1 0 2 0l.003-4a1 1 0 0 0-1-1M24 21a1 1 0 0 0-1 1l-.003 4a1 1 0 1 0 2 0L25 22a1 1 0 0 0-1-1m-1.01 12a1 1 0 0 1 2 0l-.003 4a1 1 0 0 1-2 0z" clip-rule="evenodd"/></g><defs><clipPath id="healthiconsPavedRoadAltNegative0"><path d="M0 0h48v48H0z"/></clipPath></defs></g></svg>