<svg xmlns="http://www.w3.org/2000/svg" width="1em" height="1em" viewBox="0 0 48 48"><g fill="none"><g clip-path="url(#healthiconsPill1Negative0)"><path fill="currentColor" fill-rule="evenodd" d="M48 0H0v48h48zM24 44c11.046 0 20-8.954 20-20S35.046 4 24 4S4 12.954 4 24s8.954 20 20 20m18-20c0 9.941-8.059 18-18 18S6 33.941 6 24S14.059 6 24 6s18 8.059 18 18m-7.793-9.707a1 1 0 0 1 0 1.414l-18.5 18.5a1 1 0 0 1-1.414-1.414l18.5-18.5a1 1 0 0 1 1.414 0" clip-rule="evenodd"/></g><defs><clipPath id="healthiconsPill1Negative0"><path d="M0 0h48v48H0z"/></clipPath></defs></g></svg>