<svg xmlns="http://www.w3.org/2000/svg" width="1em" height="1em" viewBox="0 0 48 48"><path fill="currentColor" fill-rule="evenodd" d="M17 9C9.82 9 4 14.82 4 22a5.002 5.002 0 0 0 4 4.9V29a8 8 0 0 0 15.653 2.336a.558.558 0 0 1 .17-.264A.274.274 0 0 1 24 31c.05 0 .11.017.177.072c.07.058.135.15.17.264A8 8 0 0 0 40 29v-2.1a5.002 5.002 0 0 0 4-4.9c0-7.18-5.82-13-13-13zm22.872 15.871A3.001 3.001 0 0 0 42 22c0-6.075-4.925-11-11-11H17c-6.075 0-11 4.925-11 11a3 3 0 0 0 2.128 2.871A5.002 5.002 0 0 1 13 21h22a5.002 5.002 0 0 1 4.872 3.871M10 26a3 3 0 0 1 3-3h22a3 3 0 0 1 3 3v3a6 6 0 0 1-11.74 1.753C25.98 29.833 25.14 29 24 29c-1.141 0-1.98.834-2.26 1.753A6 6 0 0 1 10 29z" clip-rule="evenodd"/></svg>