<svg xmlns="http://www.w3.org/2000/svg" width="1em" height="1em" viewBox="0 0 48 48"><g fill="none"><g clip-path="url(#healthiconsProviderFstNegative0)"><path fill="currentColor" fill-rule="evenodd" d="M48 0H0v48h48zM7 6a1 1 0 0 0-1 1v9a1 1 0 0 0 1 1h9a1 1 0 0 0 1-1V7a1 1 0 0 0-1-1zm25 25a1 1 0 0 0-1 1v9a1 1 0 0 0 1 1h9a1 1 0 0 0 1-1v-9a1 1 0 0 0-1-1zm-4.793-5.207l3.184 3.184l-1.414 1.414l-3.184-3.184zm-1.553-1.553l-3.977-3.977h4.218v-2h-7.632v7.632h2v-4.218l3.977 3.977z" clip-rule="evenodd"/></g><defs><clipPath id="healthiconsProviderFstNegative0"><path d="M0 0h48v48H0z"/></clipPath></defs></g></svg>