<svg xmlns="http://www.w3.org/2000/svg" width="1em" height="1em" viewBox="0 0 48 48"><g fill="none"><g clip-path="url(#healthiconsPwidNegative0)"><path fill="currentColor" fill-rule="evenodd" d="M48 0H0v48h48zM27.707 15.293L27 14.586l-1.293-1.293l-1.414 1.414L25.586 16l-5.879 5.879a3.001 3.001 0 0 0-.529 3.529l-1.31 1.31l-2.164-2.454l-7.377 7.765l4.124 2.886A6 6 0 0 0 15.89 36H31a2 2 0 0 0 2 2h9a2 2 0 0 0 2-2v-6a2 2 0 0 0-2-2h-.5v6h-3a3 3 0 0 1-3-3v-1.5h2V31a1 1 0 0 0 1 1h1v-4a2 2 0 0 0-2-2H34l-3 2h-9.464l-4 4h-2.122l5.179-5.178a3.001 3.001 0 0 0 3.528-.53L30 20.415l1.293 1.293l1.414-1.414L31.414 19l-.707-.707l-.793-.793L33 14.414l1.293 1.293l1.414-1.414l-4-4l-1.414 1.414L31.586 13L28.5 16.086zm-3.728 5.143L27 17.414L28.586 19l-3.022 3.021zM16.475 33.06l-.06-.061h.12zM4 11l10.375 11.759l-7.705 8.11L4 29z" clip-rule="evenodd"/></g><defs><clipPath id="healthiconsPwidNegative0"><path d="M0 0h48v48H0z"/></clipPath></defs></g></svg>