<svg xmlns="http://www.w3.org/2000/svg" width="1em" height="1em" viewBox="0 0 48 48"><g fill="none"><g clip-path="url(#healthiconsSNegative0)"><path fill="currentColor" fill-rule="evenodd" d="M48 0H0v48h48zM18 18a4 4 0 0 1 4-4h4a4.002 4.002 0 0 1 3.773 2.666a2 2 0 0 0 3.771-1.332A8.003 8.003 0 0 0 26 10h-4a8 8 0 1 0 0 16h4a4 4 0 0 1 0 8h-4a4.002 4.002 0 0 1-3.773-2.666a2 2 0 0 0-3.771 1.332A8.003 8.003 0 0 0 22 38h4a8 8 0 1 0 0-16h-4a4 4 0 0 1-4-4" clip-rule="evenodd"/></g><defs><clipPath id="healthiconsSNegative0"><path d="M0 0h48v48H0z"/></clipPath></defs></g></svg>