<svg xmlns="http://www.w3.org/2000/svg" width="1em" height="1em" viewBox="0 0 48 48"><g fill="currentColor"><path d="M11.537 10.293a1 1 0 0 1 0 1.414L10.244 13h27.512l-1.293-1.293a1 1 0 0 1 1.414-1.414l2.121 2.121a2 2 0 0 1 0 2.829l-2.121 2.12a1 1 0 0 1-1.414-1.413l.95-.95H10.588l.95.95a1 1 0 0 1-1.415 1.414l-2.121-2.122a2 2 0 0 1 0-2.828l2.121-2.121a1 1 0 0 1 1.414 0"/><path fill-rule="evenodd" d="M15 25.5c0 1.934-1.566 3.5-3.5 3.5A3.499 3.499 0 0 1 8 25.5a3.5 3.5 0 0 1 3.5-3.5c1.934 0 3.5 1.566 3.5 3.5M11.5 27a1.499 1.499 0 1 0 0-3a1.5 1.5 0 1 0 0 3M4 34.267C4 31.429 8.997 30 11.5 30s7.5 1.43 7.5 4.267V38H4zm2 0c0-.127.168-.707 1.64-1.378c1.303-.594 2.895-.89 3.86-.89c.965 0 2.557.296 3.86.89c1.472.671 1.64 1.251 1.64 1.377V36H6zM40 25.5c0 1.934-1.566 3.5-3.5 3.5a3.499 3.499 0 0 1-3.5-3.5c0-1.934 1.566-3.5 3.5-3.5s3.5 1.566 3.5 3.5M36.5 27a1.499 1.499 0 1 0 0-3a1.5 1.5 0 1 0 0 3M29 34.267C29 31.429 33.997 30 36.5 30s7.5 1.43 7.5 4.267V38H29zm2 0c0-.127.168-.707 1.64-1.378c1.303-.594 2.895-.89 3.86-.89c.965 0 2.557.296 3.86.89c1.472.671 1.64 1.251 1.64 1.377V36H31z" clip-rule="evenodd"/></g></svg>