<svg xmlns="http://www.w3.org/2000/svg" width="1em" height="1em" viewBox="0 0 48 48"><g fill="none"><g clip-path="url(#healthiconsSugarAltNegative0)"><path fill="currentColor" fill-rule="evenodd" d="M0 0h48v48H0zm43.993 17.883a1 1 0 0 1-.876 1.11c-8.512 1.002-14.91 1.974-20.233 8.632c-1.4 1.75-2.465 3.033-3.346 3.958c-.88.924-1.632 1.553-2.422 1.942c-.814.4-1.587.506-2.423.523a27.36 27.36 0 0 1-1.313-.019h-.013A50.85 50.85 0 0 0 11.795 34c-2.897 0-4.857-1.793-6.034-3.412a13.076 13.076 0 0 1-1.704-3.254l-.006-.019l-.002-.006v-.002S4.047 27.305 5 27l-.952.305A1 1 0 0 1 5 26h16.627c5.826-7.017 12.915-8.012 21.256-8.993a1 1 0 0 1 1.11.876M5 22h2v2H5zm10 0h-2v2h2zm-5-.414L11.414 23L10 24.414L8.586 23zM19.414 23L18 21.586L16.586 23L18 24.414zM11 18h2v2h-2zm-1.586 1L8 17.586L6.586 19L8 20.414zM12 13.586L13.414 15L12 16.414L10.586 15zM17.414 19L16 17.586L14.586 19L16 20.414z" clip-rule="evenodd"/></g><defs><clipPath id="healthiconsSugarAltNegative0"><path d="M0 0h48v48H0z"/></clipPath></defs></g></svg>