<svg xmlns="http://www.w3.org/2000/svg" width="1em" height="1em" viewBox="0 0 48 48"><path fill="currentColor" d="M40.5 9a1.5 1.5 0 1 0 0-3a1.5 1.5 0 0 0 0 3m-19.387 5.172a33.92 33.92 0 0 0-10.542 13.85A34.041 34.041 0 0 0 8 41a1 1 0 0 1-2 0c0-4.715.925-9.384 2.721-13.74a35.922 35.922 0 0 1 11.68-15.06c.07-.053.145-.095.222-.127a1.502 1.502 0 0 1 2.402-.162a1.5 1.5 0 0 1-1.912 2.26m3.26 9.259l.723-.69l-1.381-1.446l-.724.69a28.907 28.907 0 0 0-1.676 1.741l-.663.75l1.497 1.325l.663-.748a26.854 26.854 0 0 1 1.56-1.621m-4.264 5.223l.535-.845l-1.69-1.07l-.534.845a31.642 31.642 0 0 0-2.258 4.255l-.4.916l1.832.801l.4-.916a29.656 29.656 0 0 1 2.115-3.986m-3.613 8.248l.262-.965l-1.93-.524l-.262.965c-.21.77-.392 1.553-.546 2.343l-.192.982l1.963.383l.192-.981c.145-.744.316-1.479.513-2.203m15.034-9.053c.059-.037.113-.08.162-.125a1.5 1.5 0 1 0-1.178-1.597a18.711 18.711 0 0 0-2.958 2.265a17.773 17.773 0 0 0-4.108 5.775A16.917 16.917 0 0 0 22 41a1 1 0 0 0 2 0c0-2.066.433-4.113 1.277-6.026a15.773 15.773 0 0 1 3.647-5.124a16.706 16.706 0 0 1 2.605-2.001M42 12.5a1.5 1.5 0 1 1-3 0a1.5 1.5 0 0 1 3 0M40.5 19a1.5 1.5 0 1 0 0-3a1.5 1.5 0 0 0 0 3m1 2.35a1 1 0 1 1-2 0a1 1 0 0 1 2 0M35.412 9.618a1.5 1.5 0 1 0-.42-2.97a1.5 1.5 0 0 0 .42 2.97m1.976 3.255a1.5 1.5 0 1 1-2.97.42a1.5 1.5 0 0 1 2.97-.42m-.574 6.646a1.5 1.5 0 1 0-.42-2.97a1.5 1.5 0 0 0 .42 2.97m1.976 3.255a1.5 1.5 0 1 1-2.97.42a1.5 1.5 0 0 1 2.97-.42m-9.498-11.16a1.5 1.5 0 1 0-1.23-2.737a1.5 1.5 0 0 0 1.23 2.737m2.803 2.577a1.5 1.5 0 1 1-2.737 1.23a1.5 1.5 0 0 1 2.737-1.23m1.295 6.544a1.5 1.5 0 1 0-1.229-2.737a1.5 1.5 0 0 0 1.23 2.737m1.686 1.531a1 1 0 1 1-1.825.82a1 1 0 0 1 1.825-.82m-8.428-5.584a1.5 1.5 0 1 1-2.28 1.95a1.5 1.5 0 0 1 2.28-1.95m3.084 5.915a1.5 1.5 0 1 0-1.95-2.28a1.5 1.5 0 0 0 1.95 2.28m-3.039-8.037a.868.868 0 1 0 0-1.737a.868.868 0 0 0 0 1.736m3.461 3.475a.868.868 0 1 1-1.736 0a.868.868 0 0 1 1.736 0m3.555-1.244a.868.868 0 1 0 0-1.737a.868.868 0 0 0 0 1.736m5.624-1.657a.868.868 0 1 1-1.736 0a.868.868 0 0 1 1.736 0m-6.624-2.903a.868.868 0 1 0 0-1.737a.868.868 0 0 0 0 1.737M39 10.132a.868.868 0 1 1-1.736 0a.868.868 0 0 1 1.736 0"/></svg>