<svg xmlns="http://www.w3.org/2000/svg" width="1em" height="1em" viewBox="0 0 48 48"><g fill="none"><g clip-path="url(#healthiconsVillageNegative0)"><path fill="currentColor" fill-rule="evenodd" d="M48 0H0v48h48zM17.555 6.168a1 1 0 0 0-1.11 0l-6 4A1 1 0 0 0 10 11v8a1 1 0 0 0 1 1h4v-7h4v7h4a1 1 0 0 0 1-1v-8a1 1 0 0 0-.445-.832zm16.941 5.964a1 1 0 0 0-.992 0l-7 4A1 1 0 0 0 26 17v10a1 1 0 0 0 1 1h5v-8h4v8h5a1 1 0 0 0 1-1V17a1 1 0 0 0-.504-.868zM14.553 24.106l-8 4A1 1 0 0 0 6 29v12a1 1 0 0 0 1 1h6v-9h4v9h6a1 1 0 0 0 1-1V29a1 1 0 0 0-.553-.894l-8-4a1 1 0 0 0-.894 0" clip-rule="evenodd"/></g><defs><clipPath id="healthiconsVillageNegative0"><path d="M0 0h48v48H0z"/></clipPath></defs></g></svg>