<svg xmlns="http://www.w3.org/2000/svg" width="1em" height="1em" viewBox="0 0 128 128"><radialGradient id="notoFaceExhaling0" cx="64" cy="3167.6" r="56.96" gradientTransform="translate(0 -3106)" gradientUnits="userSpaceOnUse"><stop offset=".5" stop-color="#FDE030"/><stop offset=".919" stop-color="#F7C02B"/><stop offset="1" stop-color="#F4A223"/></radialGradient><path fill="url(#notoFaceExhaling0)" d="M64 117.5c-27.9 0-58-17.5-58-55.9S36.1 5.7 64 5.7c15.5 0 29.8 5.1 40.4 14.4C115.9 30.3 122 44.7 122 61.6s-6.1 31.2-17.6 41.4c-10.6 9.3-25 14.5-40.4 14.5"/><path fill="#EB8F00" d="M111.9 28.3c5.3 8.6 8.1 18.8 8.1 30.2c0 16.9-6.1 31.2-17.6 41.4c-10.6 9.3-25 14.5-40.4 14.5c-18.1 0-37-7.3-48.2-22.9c10.8 17.7 31 25.9 50.2 25.9c15.4 0 29.8-5.2 40.4-14.5C115.9 92.8 122 78.5 122 61.6c0-12.8-3.5-24.1-10.1-33.3"/><path fill="#422B0D" d="M44.7 30.8s1.9-1.1 3.5.3c.9.7 1.4 2.1.4 3.1c-4 5-14.5 8-19.6 6.5c-1-.3-1.5-1.4-1.2-2.3c.3-.9 1.1-1.4 2-1.3c6.7-.7 11-2.8 14.9-6.3m25.2-.5s-1.9-1.1-3.5.3c-.9.7-1.4 2.1-.4 3.1c4 5 14.5 8 19.6 6.5c1-.3 1.5-1.4 1.2-2.3c-.3-.9-1.1-1.4-2-1.3c-6.6-.7-10.9-2.9-14.9-6.3m-34.6 61c-.4 3.5 3.4 3.9 3.4 3.9s28 1.2 36.8 1.2c5.2 0 4.3-5.2-.8-9.1c-3.1-2.3-8.1-4.8-19.8-4.8c-8.9 0-19.1 4.9-19.6 8.8"/><path fill="#F48FB1" d="M46 95.5s4.6-3.5 11-3.6c7.8-.1 14.6 4.5 14.6 4.5s-7.1.1-13.9-.1s-11.7-.8-11.7-.8"/><path fill="#422B0D" d="M46.1 57.6H25.3c-1.4 0-2.5-1.1-2.5-2.5s1.1-2.5 2.5-2.5h20.8c1.4 0 2.5 1.1 2.5 2.5s-1.2 2.5-2.5 2.5"/><path fill="#422B0D" d="M28.9 55.6c0 .5-.1.9-.1 1.4c0 5.9 3.4 9.4 7 9.4s7-3.5 7-9.4c0-.5 0-1-.1-1.4zm60.4 2H68.5c-1.4 0-2.5-1.1-2.5-2.5s1.1-2.5 2.5-2.5h20.8c1.4 0 2.5 1.1 2.5 2.5s-1.1 2.5-2.5 2.5"/><path fill="#422B0D" d="M72.5 55.1c-.1.6-.1 1.3-.1 2c0 5.9 3.4 9.4 7 9.4c3.7 0 7-3.5 7-9.4c0-.7-.1-1.4-.1-2z"/><path fill="#EB8F00" d="M67.2 102.9c-2 .4-3.6.5-5.3.6c-1.6.1-3.2.1-4.8 0s-3.1-.2-4.7-.4s-3.2-.4-5.2-.8l-.1-.3c1.6-.7 3.3-1.1 5-1.3c1.7-.2 3.4-.3 5.1-.2c1.7.1 3.4.3 5.1.6c1.7.3 3.3.8 4.9 1.4z"/><path fill="#FFF" d="M37.7 92.8c-2 .3-4.1.5-6.1.7c-2.7.3-5.5.4-7.8-.8c-1.1-.6-2.1-1.4-3.2-2c-2.7-1.4-6.1-1-8.9.4C9.3 92.4 8 94.5 7.3 97c-.7 2.6.8 5.5 2.9 7c3.8 2.7 1.6 3.1 2.7 6.8c1.1 4 4.9 6.2 8.9 5c1.4-.4 2.8-1.4 4.2-1.7c1.6-.3 2.9.7 4.4.6c3.3 0 5.1-2.6 5.5-5.9c.2-1.6 0-3.2.3-4.8c.9-4.9 5.3-8.2 8.9-11.6c1.7-1.6-1.7-.8-2.3-.7c-1.6.5-3.4.8-5.1 1.1"/><path fill="#92CBEB" d="M6.8 97c.7-2.6 2.4-4.9 4.8-6.2c2.7-1.4 6.5-1.9 9.3-.2c.2.1.3.3.4.5c-1.2-.1-2.4-.2-3.6-.1c-1.7.2-3.5.7-4.7 1.9c-.5.5-.9 1-1.3 1.6c-.9 1.5-1.5 3.3-1 5.1c.3 1.3 1.5 2.8 3 3.1c1.6.2 3-1.2 4.7-1c.7.1 1.5.9 1.1 1.5c-.2.4-.7.4-1.2.5c-1.4.3-2.6 1.2-3.1 2.5c-.3.6-.4 1.3-.4 2c0 2.6 1.8 5.1 4.2 5.9c1.6.5 3.4.3 4.8-.4c.7-.4 1.1-1.1 1.8-1.4c.7-.3 1.7-.4 2.4-.3c.8 0 1.6.2 2.4.1c1.9-.2 3.3-1.5 4.1-3.1c.9-1.9.6-3.7.8-5.8c.2-1.8 1.1-3.4 2.2-4.8c1.1-1.3 2.3-2.5 3.7-3.6c.7-.6 1.5-1 2.2-1.4c.3-.2 2-1.4 2.2-1.3c.3.1.3.4-.3.9c-3.6 3.4-8.1 6.7-8.9 11.6c-.3 1.6-.1 3.2-.3 4.8c-.3 3.3-2.7 6.8-6 6.8c-1.6 0-3.2-.9-4.8-.6c-1.4.3-2.7 1.5-4.1 1.9c-4 1.2-8.6-1.9-9.7-5.9c-1-3.7 1.2-4.4-2.6-7.1c-2.1-1.6-2.9-4.9-2.1-7.5"/></svg>