<svg xmlns="http://www.w3.org/2000/svg" width="1em" height="1em" viewBox="0 0 20 20"><path fill="currentColor" d="M3.76 16h12.48A7.998 7.998 0 0 0 10 3a7.998 7.998 0 0 0-6.24 13M10 4c.55 0 1 .45 1 1s-.45 1-1 1s-1-.45-1-1s.45-1 1-1M6 6c.55 0 1 .45 1 1s-.45 1-1 1s-1-.45-1-1s.45-1 1-1m8 0c.55 0 1 .45 1 1s-.45 1-1 1s-1-.45-1-1s.45-1 1-1m-5.37 5.55L12 7v6c0 1.1-.9 2-2 2s-2-.9-2-2c0-.57.24-1.08.63-1.45M4 10c.55 0 1 .45 1 1s-.45 1-1 1s-1-.45-1-1s.45-1 1-1m12 0c.55 0 1 .45 1 1s-.45 1-1 1s-1-.45-1-1s.45-1 1-1m-5 3c0-.55-.45-1-1-1s-1 .45-1 1s.45 1 1 1s1-.45 1-1"/></svg>