<svg xmlns="http://www.w3.org/2000/svg" width="1em" height="1em" viewBox="0 0 100 100"><circle cx="50.178" cy="49.646" r="7.796" fill="currentColor"/><path fill="currentColor" d="M85.342 21.482a2 2 0 0 1-2-2v-3h-3a2 2 0 0 1 0-4h5a2 2 0 0 1 2 2v5a2 2 0 0 1-2 2m-13.618-5h-8.618a2 2 0 0 1 0-4h8.618a2 2 0 0 1 0 4m-17.237 0H45.87a2 2 0 0 1 0-4h8.618a2 2 0 0 1-.001 4m-17.235 0h-8.618a2 2 0 0 1 0-4h8.618a2 2 0 0 1 0 4m-22.236 5a2 2 0 0 1-2-2v-5a2 2 0 0 1 2-2h5a2 2 0 0 1 0 4h-3v3a2 2 0 0 1-2 2m0 51.708a2 2 0 0 1-2-2v-8.618a2 2 0 0 1 4 0v8.618a2 2 0 0 1-2 2m0-17.236a2 2 0 0 1-2-2v-8.618a2 2 0 0 1 4 0v8.618a2 2 0 0 1-2 2m0-17.235a2 2 0 0 1-2-2v-8.618a2 2 0 0 1 4 0v8.618a2 2 0 0 1-2 2m5 48.09h-5a2 2 0 0 1-2-2v-5a2 2 0 0 1 4 0v3h3a2 2 0 0 1 0 4m51.707 0h-8.617a2 2 0 0 1 0-4h8.617a2 2 0 0 1 0 4m-17.236 0h-8.618a2 2 0 0 1 0-4h8.618a2 2 0 0 1 0 4m-17.236 0h-8.618a2 2 0 0 1 0-4h8.618a2 2 0 0 1 0 4m48.091 0h-5a2 2 0 0 1 0-4h3v-3a2 2 0 0 1 4 0v5a2 2 0 0 1-2 2m0-13.619a2 2 0 0 1-2-2v-8.618a2 2 0 0 1 4 0v8.618a2 2 0 0 1-2 2m0-17.236a2 2 0 0 1-2-2v-8.618a2 2 0 0 1 4 0v8.618a2 2 0 0 1-2 2m0-17.235a2 2 0 0 1-2-2v-8.618a2 2 0 0 1 4 0v8.618a2 2 0 0 1-2 2"/></svg>