<svg xmlns="http://www.w3.org/2000/svg" width="1em" height="1em" viewBox="0 0 72 72"><ellipse cx="32.369" cy="32.724" fill="#fff" rx="15.616" ry="15.304"/><path fill="#fff" d="M44.099 22.255s10.663 7.56 13.183 12.408l-.679.872l-7.852-5.525s-.369-1.357-.475 2.326s-4.178-10.081-4.178-10.081Z"/><path fill="#92d3f5" d="M17.974 37.97c2.308 5.382 8.322 10.764 14.7 10.764s11.912-5.645 14.7-10.764z"/><path fill="#61b2e4" d="M41.749 37.97c-2.46 4.516-6.972 9.914-12.4 10.618c.735.096 1.476.145 2.217.146c6.379 0 14.129-5.645 16.917-10.764z"/><g fill="none" stroke="#000" stroke-linecap="round" stroke-linejoin="round" stroke-width="2"><path d="m49.302 32.588l7.673 5.465l2.303-2.236S46.837 16.442 32.675 16.442c-9.05-.131-16.493 7.097-16.627 16.146c.134 9.049 7.577 16.277 16.627 16.146c9.049.13 16.492-7.097 16.627-16.146"/><path d="m12.722 55.558l5.543-10.764h28.82l5.542 10.764M32.675 44.794v10.764"/></g></svg>