<svg xmlns="http://www.w3.org/2000/svg" width="1em" height="1em" viewBox="0 0 72 72"><path fill="#A57939" d="M57.922 59.715H14.078c-.55 0-1-.45-1-1V35.182c0-.55.45-1 1-1h43.844c.55 0 1 .45 1 1v23.533c0 .55-.45 1-1 1"/><g fill="none" stroke="#000" stroke-linecap="round" stroke-linejoin="round" stroke-miterlimit="10" stroke-width="2"><path d="M57.922 59.715H14.078c-.55 0-1-.45-1-1V35.182c0-.55.45-1 1-1h43.844c.55 0 1 .45 1 1v23.533c0 .55-.45 1-1 1"/><path d="M57.719 60.002H14.362a1.145 1.145 0 0 1-1.145-1.145V35.103c0-.632.513-1.145 1.145-1.145H57.72c.632 0 1.144.513 1.144 1.145v23.754c0 .633-.512 1.145-1.145 1.145M13.443 47.011h45.366M40.028 38.97h-8.027m8.027 13.003h-8.027m4.046-42.848v18.87m6.155-6.121l-6.14 6.14m-6.19-6.14l6.14 6.14"/></g></svg>