<svg xmlns="http://www.w3.org/2000/svg" width="1em" height="1em" viewBox="0 0 72 72"><path fill="#fff" d="m27 11.248l.352 10.2s4.22-4.713 7.668-2.673s10.692 6.049 12.732 6.049s3.165-.07 3.165-.07l-.14-12.17s-1.76.493-3.659.211s-6.936-2.443-7.526-2.673c-1.266-.492-4.502-1.828-7.034-1.266S27 11.248 27 11.248M20.42 42.19l15.532-8.118L51.13 42.19z"/><path fill="#3f3f3f" d="M18.703 46.663h34.234v12.164H18.703z"/><path fill="#d0cfce" d="M27.31 19.74a13.522 13.522 0 0 1 6.933-1.817c4.542 0 8.438 6.247 14.334 6.247c.87 0 1.304-.392 2.182-.392c.727 0 1.017.52 1.017 1.439v1.565c0 .717-.783 1.531-3.081 1.531c-6.91 0-10.806-3.908-14.815-3.908c-2.39.045-4.71.82-6.649 2.219v-4.267zM10.314 62.339h51.01v3.512h-51.01zm2.375-3.512h46.262v3.512H12.689z"/><path fill="#9b9b9a" d="m46.15 41.118l-10.33-5.055l-10.331 5.055z"/><path fill="#d0cfce" d="M11.784 43.15h48.071v3.512H11.784z"/><path fill="#fff" d="M17.383 46.663h5.429v12.164h-5.429zm15.722 0h5.429v12.164h-5.429zm15.722 0h5.429v12.164h-5.429z"/><g fill="none" stroke="#000" stroke-linecap="round" stroke-width="2"><path stroke-linejoin="round" d="M27.31 10.34a13.415 13.415 0 0 1 6.933-2.147c4.542 0 8.438 3.937 14.334 3.937c.87 0 1.304-.391 2.182-.391c.727 0 1.017.52 1.017 1.438v13.605c0 .717-.783 1.531-3.081 1.531c-6.91 0-10.806-3.908-14.815-3.908c-2.39.045-4.71.82-6.649 2.219v-4.267"/><path stroke-miterlimit="10" d="M23.972 8.347v30.686"/><path stroke-linejoin="round" d="M63.325 65.852H8.314m3-3.513h49.011M11.784 43.15h48.071v3.512H11.784zM58.95 62.339H12.689m1-3.512H57.95M17.383 46.663h5.429v12.164h-5.429zm15.722 0h5.429v12.164h-5.429zm15.722 0h5.429v12.164h-5.429zm6.334-3.513L35.82 33.04L16.478 43.15z"/></g></svg>