<svg xmlns="http://www.w3.org/2000/svg" width="1em" height="1em" viewBox="0 0 72 72"><path fill="#a57939" d="M59.65 9.614c-.062.004-4.9 4.868-5.962 5.512c-1.541 1.031-2.505 3.779-2.643 3.915L29.119 39.759a15.973 15.973 0 0 1 1.955 2.187l22.887-21.65a7.528 7.528 0 0 0 3.314-1.967c.306-.362 4.602-4.24 4.97-4.97c.757-1.497-2.093-3.777-2.595-3.745"/><path fill="#ea5a47" d="M34.708 38.436a.893.893 0 0 0-.215.215a.981.981 0 0 1 .216-.213Zm-4.274 3.042c-.032-.047-.066-.093-.1-.14c.034.047.068.093.1.14"/><circle cx="21.349" cy="49.342" r="12" fill="#d0cfce"/><g fill="none" stroke="#000" stroke-linecap="round" stroke-linejoin="round" stroke-width="2"><path d="m15.248 50.252l5.101 4.943m34.338-35.589a5.044 5.044 0 0 0 2.237-.58c.63-.397 3.532-3.361 5.182-5.068a1.698 1.698 0 0 0-.024-2.382l-1.529-1.529a1.694 1.694 0 0 0-2.379-.026c-1.827 1.765-5.133 4.973-5.461 5.385a3.317 3.317 0 0 0-.465 1.447a1.724 1.724 0 0 1-.5 1.005L29.554 39.497"/><circle cx="21.349" cy="49.342" r="12"/></g></svg>