<svg xmlns="http://www.w3.org/2000/svg" width="1em" height="1em" viewBox="0 0 72 72"><path fill="#b1cc33" d="m37.74 28.902l10.198-10.198l5.247 5.247l-10.199 10.198c-1.158 1.159-1.856 2.672-1.921 4.169l-.127 2.923c-.104 2.382-1.214 4.79-3.059 6.635L20.671 65.084c-1.542 1.543-3.839 1.748-5.128.459l-9.197-9.197c-1.29-1.29-1.084-3.586.459-5.129L24.013 34.01c1.845-1.845 4.253-2.955 6.635-3.059l2.923-.127c1.497-.065 3.01-.763 4.168-1.922"/><path fill="#5c9e31" d="m16.351 60.785l6.166-6.166c6.811-6.812 9.14-10.896 9.894-13.128c.673-1.995 1.855-3.862 3.406-5.413L50.564 21.33l2.62 2.62l-10.198 10.2c-1.158 1.158-1.856 2.671-1.921 4.168l-.127 2.923c-.104 2.382-1.214 4.79-3.059 6.635L20.671 65.084c-1.543 1.543-3.839 1.748-5.128.459l-4.595-4.596c2.511 2.512 5.403-.163 5.403-.163"/><path fill="#b1cc33" d="M37.686 48.07L20.671 65.083c-1.543 1.543-3.839 1.748-5.128.459l-9.197-9.197c-1.29-1.29-1.084-3.586.459-5.128L23.82 34.203z"/><path fill="#5c9e31" d="m32.316 41.88l5.78 5.78l-17.367 17.366c-1.575 1.575-3.922 1.78-5.243.46l-4.708-4.708c2.573 2.573 5.525-.156 5.525-.156l6.293-6.293c6.075-6.075 8.654-10.027 9.72-12.45"/><path fill="#d0cfce" d="m8.239 49.782l13.27-13.271l13.867 13.866l-13.271 13.271z"/><path fill="#9b9b9a" d="M35.378 50.378L22.106 63.649l-4.812-4.812l6.636-6.636c2.556-2.556 4.681-4.82 6.448-6.823z"/><path fill="#fcea2b" d="m37.74 28.902l10.198-10.198l5.247 5.247l-10.199 10.198c-1.158 1.159-1.856 2.672-1.921 4.169l-3.552-.005c-2.275-.003-3.93-1.657-3.934-3.93l-.008-3.56c1.497-.064 3.01-.762 4.168-1.92"/><path fill="#f1b31c" d="M42.986 34.15c-1.159 1.158-1.856 2.671-1.921 4.168l-3.552-.005c-1.105-.002-2.062-.393-2.756-1.055c.33-.41.684-.805 1.06-1.18L50.564 21.33l2.62 2.62z"/><path fill="#fcea2b" d="m46.658 21.011l4.044 4.045c.824.824 2.776.221 4.337-1.34c1.561-1.56 2.164-3.513 1.34-4.337l-4.045-4.045c-.824-.824-2.776-.221-4.337 1.34c-1.561 1.56-2.164 3.513-1.34 4.337"/><path fill="#f1b31c" d="M52.87 21.547c1.561-1.561 2.147-3.53 1.302-4.375l2.345 2.345c.845.845.26 2.814-1.302 4.375c-1.561 1.561-3.53 2.147-4.375 1.302l-2.345-2.345c.845.845 2.814.259 4.375-1.302"/><path fill="#f4aa41" d="m55.658 12.011l4.044 4.045c.824.824 3.001-.004 4.837-1.84c1.836-1.836 2.664-4.013 1.84-4.837l-4.045-4.045c-.824-.824-3.001.004-4.837 1.84c-1.836 1.836-2.664 4.013-1.84 4.837"/><path fill="#e27022" d="M62.37 12.047c1.135-1.135 1.878-2.407 2.08-3.412a.542.542 0 0 1 .917-.268l1.15 1.15c.845.845.034 3.039-1.802 4.875c-1.836 1.836-4.03 2.647-4.875 1.802l-1.15-1.15a.542.542 0 0 1 .268-.917c1.005-.202 2.277-.945 3.412-2.08"/><g fill="none" stroke="#000" stroke-width="2"><path stroke-miterlimit="10" d="m62.334 5.334l1.838 1.838l2.345 2.345c.845.845.034 3.039-1.802 4.875c-1.836 1.836-4.03 2.647-4.875 1.802l-.138-.138l-4.044-4.045c-.825-.824.003-3.001 1.839-4.837c1.836-1.836 4.013-2.664 4.837-1.84Z"/><path stroke-linecap="round" stroke-miterlimit="10" d="M56.021 20.502c.303.906-.143 2.234-1.183 3.274c-.897.898-2.003 1.34-2.873 1.254l-8.68 8.68a6.965 6.965 0 0 0-1.1 1.433a6.34 6.34 0 0 0-.656 1.615a5.57 5.57 0 0 0-.165 1.12l-.127 2.923c-.104 2.382-1.214 4.79-3.058 6.635l-.194.193l-17.014 17.015h0c-1.544 1.543-3.84 1.749-5.129.46l-9.197-9.198c-.806-.806-1.028-2.005-.704-3.167a4.496 4.496 0 0 1 1.163-1.961L24.312 33.57c1.844-1.845 4.253-2.955 6.635-3.058l2.923-.128v0a5.765 5.765 0 0 0 1.671-.33a6.73 6.73 0 0 0 2.498-1.591l8.555-8.556c-.242-.902.198-2.17 1.202-3.173c1.167-1.167 2.696-1.586 3.586-1.038"/><path stroke-linecap="round" stroke-linejoin="round" d="m22 37l13 13m-26.5.5l13 13"/></g></svg>