<svg xmlns="http://www.w3.org/2000/svg" width="1em" height="1em" viewBox="0 0 72 72"><path fill="#f4aa41" d="M16.423 52.51c.01-.024.011-.05.019-.076a.99.99 0 0 0-.504-1.224a8.37 8.37 0 0 1-3.115-2.634a9.713 9.713 0 0 1-1.795-5.57a1.001 1.001 0 0 0-.915-1.079c-.033-.002-.062.012-.094.013l-.008-.002h-.01a5.412 5.412 0 0 0-4.35 1.852c-1.045 1.352-1.256 3.318-.62 5.861a6.763 6.763 0 0 0 3.447 4.066a6.37 6.37 0 0 0 2.698.569a11.252 11.252 0 0 0 4.741-1.225c.204-.132.375-.31.497-.52c.006-.01.004-.02.008-.03"/><path fill="#b1cc33" d="M47.406 31.66c-.228-.167-5.621-4.06-9.578-1.937c-.107.057-.197.141-.3.206c-2.318-.638-6.242-1.208-9.021 1.064c-.084.068-.152.153-.231.225c-1.704-.197-7.35-.553-10.54 2.79a7.359 7.359 0 0 0-1.496 2.368c-.756.123-5.035.96-6.638 4.33c-1.14 2.396-.63 5.394 1.525 8.928c.035.055 2.77 4.227 7.683 4.227a10.54 10.54 0 0 0 4.67-1.203c.431.068.867.103 1.304.103c.493 0 .984-.04 1.47-.116a12.15 12.15 0 0 0 3.436-1.108a.402.402 0 0 1 .377.01a4.528 4.528 0 0 0 2.24.563a7.691 7.691 0 0 0 4.308-1.604a.036.036 0 0 1 .054.012c.358.708.677 1.435.954 2.178l.084.296c.252.912.869 3.152 3.42 3.151c.396-.003.79-.05 1.176-.138c1.988-.44 2.91-2.698 2.53-6.196c-.003-.026-.018-.046-.023-.071a.985.985 0 0 0-.057-.18a.975.975 0 0 0-.093-.19c-.013-.018-.015-.04-.03-.06c-1.75-2.278-1.919-5.787-.5-10.43c.855-2.798 1.934-4.67 3.207-5.56l.015-.016a.986.986 0 0 0 .054-1.643z"/><path fill="#b1cc33" d="M55.64 35.402a.998.998 0 0 0-.434-.631a.971.971 0 0 0-.302-.477c-.213-.173-5.245-4.238-9.211-2.415c-2.591 1.19-3.97 4.515-4.099 9.882c-.089 3.69.367 6.536 1.354 8.45a26.62 26.62 0 0 1 1.132 2.91l.062.276c.192.911.68 3.21 3.453 3.209c.264-.001.528-.02.79-.056a2.94 2.94 0 0 0 2.344-1.896a.935.935 0 0 0 .048-.133c.228-.821.36-1.666.392-2.518c0-.03-.014-.056-.017-.085a1.224 1.224 0 0 0-.116-.385c-.01-.02-.011-.042-.023-.06c-.575-.915-1.073-3.006-.173-7.778c.803-4.26 2.196-6.718 4.03-7.107a1 1 0 0 0 .77-1.186"/><path fill="#b1cc33" d="M54.6 57.25a3.384 3.384 0 0 1-3.726-3.23l-.043-.247a22.47 22.47 0 0 0-.926-2.67c-.859-1.807-1.137-4.409-.823-7.719c.439-4.625 1.906-7.462 4.36-8.436c3.838-1.523 8.484 2.271 9.097 2.792a5.44 5.44 0 0 1 2.244 3.842c.528 3.943-2.28 9.018-8.346 15.085a.99.99 0 0 1-.157.128c-.435.284-.94.44-1.46.452a4.936 4.936 0 0 1-.22.004m1.13-1.29"/><path fill="#5c9e31" d="M65.575 44.167a7.89 7.89 0 0 0-.972-.585a.976.976 0 0 0-.42-.248a1.002 1.002 0 0 0-1.223.711a26.25 26.25 0 0 1-3.978 7.825a1 1 0 0 0 .253 1.392l.014.006c.382.505.93.86 1.547 1.005c.351.075.713.089 1.069.042a4.947 4.947 0 0 0 1.985-.75a.982.982 0 0 0 .08-.061c2.306-1.95 3.449-3.916 3.396-5.843a4.79 4.79 0 0 0-1.75-3.494"/><g fill="none" stroke="#000" stroke-linecap="round" stroke-linejoin="round"><path stroke-width="2" d="M16.487 37.35S5.702 38.819 11.97 49.097a8.632 8.632 0 0 0 7.15 3.755"/><path stroke-width="2" d="M10.012 42.938c-1.862.018-5.438.76-4.016 6.45c0 0 1.749 6.429 9.495 2.769M28.613 32.27S14.091 29.868 16.95 43.248c1.7 7.96 6.015 8.902 9.15 8.41"/><path stroke-width="2" d="M37.617 30.993c-3.314-.99-12.08-2.466-10.95 10.068c.86 9.546 4.309 10.53 6.81 9.896"/><path stroke-width="2" d="M46.815 32.467s-12.373-9.055-11.597 8.171c.187 4.165.904 6.834 1.874 8.495l.027.045a31.69 31.69 0 0 1 1.459 3.223c.319 1.034.612 3.268 3.508 2.628c.19-.041.372-.112.539-.21"/><path stroke-width="2" d="M54.27 35.069s-11.295-9.24-11.677 6.717c-.092 3.858.421 6.373 1.245 7.975l.023.044a28.9 28.9 0 0 1 1.19 3.079c.24.977.374 3.06 3.2 2.675a1.75 1.75 0 0 0 .933-.417"/><path stroke-width="2" d="M55.73 55.96c-.28.182-.607.282-.941.288c-2.794.09-2.8-1.777-2.975-2.668a24.985 24.985 0 0 0-.98-2.848l-.02-.04c-.71-1.5-1.062-3.786-.736-7.212c1.345-14.172 11.862-4.936 11.862-4.936s6.269 3.58-3.94 15.02m-38.882-.711s1.363.4 0 2.688m6.981-3.888s1.362.4 0 2.688m7.379-3.383s1.362.4 0 2.689"/><path stroke-width="1.881" d="M59.804 52.44c1.159 1.938 3.52.346 3.52.346c5.708-4.829 1.69-7.865 1.69-7.865a6.685 6.685 0 0 0-1.052-.611"/></g></svg>