<svg xmlns="http://www.w3.org/2000/svg" width="1em" height="1em" viewBox="0 0 72 72"><path stroke="#000" stroke-linejoin="round" stroke-width="2.25" d="M37.9 21.38c2.481 0 4.867.905 6.72 2.547a1.125 1.125 0 1 0 1.493-1.683A12.37 12.37 0 0 0 37.9 19.13c-6.823 0-12.38 5.552-12.38 12.38v9c0 6.823 5.552 12.38 12.38 12.38c3.03 0 5.948-1.106 8.212-3.114a1.125 1.125 0 1 0-1.493-1.683a10.115 10.115 0 0 1-6.72 2.547c-5.582 0-10.12-4.543-10.12-10.12v-9c0-5.582 4.543-10.12 10.12-10.12z"/><path fill="#92d3f5" stroke="#92d3f5" d="M35.02 8.261a1.953 1.953 0 0 1 1.952 0l22.56 13.02c.604.348.976.993.976 1.69v26.05a1.95 1.95 0 0 1-.976 1.69l-22.56 13.02a1.953 1.953 0 0 1-1.952 0l-22.56-13.02a1.95 1.95 0 0 1-.976-1.69v-26.05c0-.698.372-1.342.976-1.69z"/><path fill="#1e50a0" stroke="#1e50a0" stroke-linejoin="bevel" stroke-width="2" d="m12.47 50.71l48.04-27.74v26.05l-.976 1.69l-22.56 13.02h-1.952z"/><path fill="#61b2e4" stroke="#61b2e4" stroke-linejoin="bevel" stroke-width="2" d="m12.47 50.71l48.04-27.74v26.05l-.976 1.69l-22.56 13.02h-1.952z"/><path fill="#61b2e4" stroke="#61b2e4" stroke-width="2" d="M60.51 22.98L36.49 36.85L59.18 48.4c0-.995 1.337-1.317 1.337-2.228v-23.19"/><path fill="#fff" stroke="#fff" stroke-linejoin="round" stroke-width="2.25" d="M37.9 21.38c2.481 0 4.867.905 6.72 2.547a1.125 1.125 0 1 0 1.493-1.683A12.37 12.37 0 0 0 37.9 19.13c-6.823 0-12.38 5.552-12.38 12.38v9c0 6.823 5.552 12.38 12.38 12.38c3.03 0 5.948-1.106 8.212-3.114a1.125 1.125 0 1 0-1.493-1.683a10.115 10.115 0 0 1-6.72 2.547c-5.582 0-10.12-4.543-10.12-10.12v-9c0-5.582 4.543-10.12 10.12-10.12z"/><path fill="none" stroke="#000" stroke-width="2" d="M35.02 8.261a1.953 1.953 0 0 1 1.952 0l22.56 13.02c.604.348.976.993.976 1.69v26.05a1.95 1.95 0 0 1-.976 1.69l-22.56 13.02a1.953 1.953 0 0 1-1.952 0l-22.56-13.02a1.95 1.95 0 0 1-.976-1.69v-26.05c0-.698.372-1.342.976-1.69z"/></svg>