<svg xmlns="http://www.w3.org/2000/svg" width="1em" height="1em" viewBox="0 0 72 72"><path fill="#D0CFCE" d="M15.935 30.255a.908.908 0 0 1-.807.813C9.968 31.621 6 36.701 6 42.885c0 6.553 4.545 11.865 10.15 11.865h38.698C61.008 54.75 66 49.136 66 42.211c0-6.636-4.585-12.069-10.388-12.51a.966.966 0 0 1-.889-.779c-1.296-6.657-7.276-11.659-14.346-11.659c-4.595 0-8.688 2.08-11.346 5.39c-.26.323-.696.47-1.08.31c-1.022-.429-2.102-.636-3.311-.636c-4.567 0-8.316 3.485-8.705 7.928"/><path fill="none" stroke="#000" stroke-linecap="round" stroke-linejoin="round" stroke-miterlimit="10" stroke-width="2" d="M15.935 30.255a.905.905 0 0 1-.803.813C9.97 31.618 6 36.7 6 42.885c0 6.553 4.545 11.865 10.15 11.865h38.698C61.008 54.75 66 49.136 66 42.211c0-6.638-4.587-12.07-10.392-12.51a.964.964 0 0 1-.885-.78c-1.296-6.656-7.276-11.658-14.346-11.658c-4.597 0-8.691 2.082-11.349 5.393c-.258.322-.69.47-1.07.31c-1.025-.431-2.107-.64-3.318-.64c-4.567 0-8.316 3.486-8.705 7.93"/></svg>