<svg xmlns="http://www.w3.org/2000/svg" width="1em" height="1em" viewBox="0 0 72 72"><path fill="#b1cc33" d="M51.56 17.73c-.509.003-1.018.034-1.524.091l-.673.072l-.317-.6c-2.673-5.047-8.5-8.308-14.854-8.308c-9.026 0-16.369 6.4-16.369 14.268c.002.517.035 1.032.1 1.544l.1.824l-.792.251c-4.015 1.272-6.608 4.186-6.608 7.421c0 4.445 4.851 8.061 10.813 8.061a13.17 13.17 0 0 0 6.584-1.688l.591-.34l.19.15l.343.275c2.714 2.167 7.082 3.462 11.683 3.462c7.763 0 14.32-3.69 14.32-8.06a4.411 4.411 0 0 0-.077-.806l-.139-.75l-.021-.118l.842-.266c4.021-1.27 6.621-4.185 6.621-7.425c.002-4.439-4.85-8.058-10.812-8.058"/><path fill="#5c9e31" d="M39.469 27.997s4.916 7.331 15.442 5.488l.628 1.706l-.827 2.619c-2.59 3.187-5.093 4.65-9.103 5.535l-7.939.044l-7.212-1.933l-1.846-2.126a17.56 17.56 0 0 0 10.856-11.333"/><g fill="none" stroke="#000" stroke-linecap="round" stroke-width="2"><path stroke-linejoin="round" d="M35.789 63.943V52.776l-7.63-7.516m7.63 7.516l4.368-4.546"/><path stroke-miterlimit="10" d="M63.375 25.773c0-5-5.29-9.06-11.814-9.06a15.38 15.38 0 0 0-1.63.1c-2.764-5.217-8.763-8.84-15.739-8.84c-9.593 0-17.369 6.836-17.369 15.268c.002.558.038 1.114.108 1.667c-4.288 1.36-7.306 4.595-7.306 8.374c0 5 5.29 9.061 11.813 9.061c2.48.021 4.922-.607 7.084-1.822c2.791 2.23 7.257 3.681 12.308 3.681c8.46 0 15.32-4.057 15.32-9.06a5.464 5.464 0 0 0-.095-.987c4.293-1.36 7.32-4.598 7.32-8.382Z"/></g></svg>