<svg xmlns="http://www.w3.org/2000/svg" width="1em" height="1em" viewBox="0 0 72 72"><path fill="#92D3F5" d="M56 46.707c0 11.774-8.954 21.296-20 21.296s-20-9.545-20-21.32c0 0-.219-14.309 16.656-40.188c0 0 3.167-5.37 6.354-.353C55.885 32.022 56 46.707 56 46.707"/><path fill="#61B2E4" d="M36 4c12.875 10.375 19.875 40.874 19.875 40.874c0 15.001-8.83 23.127-19.875 23.127c0 0 22-18.127 0-64.002"/><path fill="none" stroke="#000" stroke-linecap="round" stroke-linejoin="round" stroke-miterlimit="10" stroke-width="2" d="M56 46.707c0 11.774-8.954 21.296-20 21.296s-20-9.545-20-21.32c0 0-.219-14.309 16.656-40.188c0 0 3.167-5.37 6.354-.353C55.885 32.022 56 46.707 56 46.707"/></svg>