<svg xmlns="http://www.w3.org/2000/svg" width="1em" height="1em" viewBox="0 0 72 72"><path fill="#fff" d="m42.373 61.936l-12.031-.087l.53-5.433c.266-2.73 2.73-4.82 5.683-4.82c2.52 0 4.645 1.74 4.962 4.061z"/><path fill="#d0cfce" d="m36.16 48.889l-.018 2.586s-3.098.077-5.355 3.693a14.11 14.11 0 0 0-1.615 6.581l-10.54-.245s6.834-3.138 8.882-6.753a52.386 52.386 0 0 0 2.616-5.958"/><path fill="#9b9b9a" d="m36.122 48.449l-.004 3.026s3.098.077 5.355 3.693a14.111 14.111 0 0 1 1.615 6.581l10.54-.245s-6.834-3.137-8.882-6.753a53.733 53.733 0 0 1-2.697-6.17"/><path fill="#b1cc33" d="M5.96 63.44h30.041v2.587H5.96z"/><path fill="#5c9e31" d="M36 63.44h30.041v2.587H36z"/><path fill="#d0cfce" d="M36.111 42.528H30.13L36 19.286l.111 4.938z"/><path fill="#9b9b9a" d="M40.931 42.528h-4.82l-.036-21.647l1.068 4.647z"/><path fill="#d0cfce" d="M36.178 48.012h-7.595l-.578-4.113l8.173-.012z"/><path fill="#9b9b9a" d="M43.031 48.012h-6.853v-4.077h7.862z"/><g fill="none" stroke="#000" stroke-width="2"><path stroke-linecap="round" stroke-linejoin="round" d="M27.44 43.224h17.12l-1.041 5.5H28.385zM5.019 62.528h61.962v4.5H5.019z"/><path stroke-miterlimit="10" d="M29.786 62.028c0-5.314 2.845-9.622 6.356-9.622s6.356 4.308 6.356 9.622"/><path stroke-linecap="round" stroke-linejoin="round" d="M42.878 49.528c.622 2.12 1.651 4.1 3.03 5.826a25.029 25.029 0 0 0 8.353 6.674M28.832 49.353a17.875 17.875 0 0 1-3.364 7.001a18.536 18.536 0 0 1-7.691 5.538M31.14 42.594a156.771 156.771 0 0 0 4.484-25.801c.237-2.69.402-5.31.495-7.858"/><path stroke-linecap="round" stroke-linejoin="round" d="M41.028 42.594a156.771 156.771 0 0 1-4.483-25.801a151.34 151.34 0 0 1-.495-7.858"/></g></svg>