<svg xmlns="http://www.w3.org/2000/svg" width="1em" height="1em" viewBox="0 0 72 72"><path fill="#fff" d="m25.709 51.255l1.635-2.615l1.389-3.758v-1.879l1.879-.246l1.716 5.23l-3.105.572l-1.226 4.249v1.47l-3.268-.408z"/><path fill="#9b9b9a" d="M53.118 45.107H41.915v5.621H30.481v5.621H19.242v5.504h33.876z"/><g fill="#fcea2b"><path d="m28.542 33.555l5.558.96c.95.178 1.694.922 1.872 1.873l1.87 8.96a1.724 1.724 0 0 1-1.03 2.267a2.082 2.082 0 0 1-2.27-1.502l-2.39-7.82l-5.17-.511c-4.472-.402-6.063-1.671-5.186-6.156c.154-.791 2.562-11.038 2.562-11.038a13.845 13.845 0 0 1 3.629-.998c1.47 0 3.163 1.124 2.717 3.768c-.173 1.023-1.176 6.417-1.176 6.417z"/><path d="m27.057 40.94l-.549 3.786a8.604 8.604 0 0 1-1.192 3.066l-2.682 5.688a2.03 2.03 0 0 1-2.436.834c-.72-.363-.829-1.494-.387-2.417l2.614-6.95l.506-4.427z"/><circle cx="31.665" cy="13.406" r="3.402"/></g><g fill="none" stroke="#000" stroke-linecap="round" stroke-linejoin="round" stroke-width="2"><path d="m38.678 29.079l-4.651-1.012M27.741 38.49l-1.233 6.236a8.604 8.604 0 0 1-1.192 3.066l-2.682 5.688a2.03 2.03 0 0 1-2.436.834c-.72-.363-.829-1.494-.387-2.417l2.614-6.95l.506-4.097"/><path d="m28.542 33.555l5.558.96c.95.178 1.694.922 1.872 1.873l1.87 8.96a1.724 1.724 0 0 1-1.03 2.267a2.082 2.082 0 0 1-2.27-1.502l-2.39-7.82l-5.17-.511c-4.472-.402-6.063-1.671-5.186-6.156c.154-.791 2.562-11.038 2.562-11.038a13.845 13.845 0 0 1 3.629-.998c1.47 0 3.163 1.124 2.717 3.768c-.173 1.023-1.176 6.417-1.176 6.417"/><path d="M52.788 45.107H41.915v5.621H30.481v5.621H19.242v4.844m-2.446-29.89s1.448-6.025 1.807-7.38a2.31 2.31 0 0 1 1.427-1.666l4.327-1.669m3.907-7.182a3.402 3.402 0 1 1 3.401 3.401h0"/></g></svg>