<svg xmlns="http://www.w3.org/2000/svg" width="1em" height="1em" viewBox="0 0 72 72"><circle cx="36" cy="35.998" r="28" fill="#fff"/><path fill="#a57939" stroke="#a57939" stroke-width="2" d="M52.99 45.478a19.836 19.836 0 0 1-12.02 9.248a19.797 19.797 0 0 1-15.03-1.979l3.463-6.007c8.406-15.49 5.906-11.48 21.62-2.395z"/><ellipse cx="35.04" cy="24.707" fill="#6a462f" stroke="#6a462f" stroke-width="2" rx="7.993" ry="8.057" transform="rotate(-70 35.04 24.707)"/><ellipse cx="26.906" cy="36.213" fill="#5c9e31" rx="8.057" ry="7.99" transform="rotate(-10 26.905 36.213)"/><path fill="#6a462f" d="M20.32 40.538a8.075 8.075 0 0 0 6.682 3.535c4.45 0 8.057-3.577 8.057-7.99s-3.607-7.99-8.057-7.99a8.153 8.153 0 0 0-.639.03c.033.044.066.09.098.136a7.977 7.977 0 0 1 .728 1.422a7.935 7.935 0 0 1-1.896 8.627a8.044 8.044 0 0 1-1.26.992a8.078 8.078 0 0 1-3.713 1.238"/><ellipse cx="43.124" cy="36.559" fill="#6a462f" rx="7.99" ry="8.057" transform="rotate(-70 43.124 36.56)"/><g fill="none" stroke="#000" stroke-width="2"><path stroke-linecap="round" d="m51.28 44.49l1.703.985c-5.471 9.48-17.57 12.74-27.02 7.278l3.463-6.007"/><circle cx="36.01" cy="36" r="28" stroke-miterlimit="10"/><path stroke-linecap="round" d="M27.02 24.79a7.916 7.916 0 0 1 .477-2.947c1.509-4.147 6.122-6.274 10.3-4.752c3.519 1.281 5.611 4.739 5.286 8.274"/><ellipse cx="26.715" cy="35.927" rx="8.057" ry="7.99" transform="rotate(-10 26.715 35.927)"/><ellipse cx="43.333" cy="36.491" rx="8.345" ry="8.411" transform="rotate(-70 43.333 36.491)"/><path stroke-linecap="round" stroke-linejoin="round" d="M20.02 40.39a8.075 8.075 0 0 0 6.682 3.535c4.45 0 8.057-3.577 8.057-7.99h0c0-4.413-3.607-7.99-8.057-7.99a8.153 8.153 0 0 0-.639.03c.033.044.066.09.098.136a7.977 7.977 0 0 1 .728 1.422a7.935 7.935 0 0 1-1.896 8.627a8.044 8.044 0 0 1-1.26.992a8.078 8.078 0 0 1-3.713 1.238"/></g></svg>