<svg xmlns="http://www.w3.org/2000/svg" width="1em" height="1em" viewBox="0 0 72 72"><path fill="#d0cfce" d="M58.831 59.603a2.104 2.104 0 0 0 .922-1.741V24.608H16.835v31.919c0 .045-.003.09-.008.134a7.627 7.627 0 0 1-.336 1.32a6.544 6.544 0 0 1-.275.7c-.03.069-.062.136-.095.206c-.06.12-.118.243-.185.358a7.358 7.358 0 0 1-.431.707l42.159.01a2.076 2.076 0 0 0 1.167-.359"/><path fill="#9b9b9a" d="M14.613 59.706c1.343-.205 1.747-2.592 1.883-4.796l.502-29.349s-.388-1.318-.075-1.318l2.908.072h36.804l.069-4.01c-.017.281 0-3.357 0-3.357l-26.638.782c-.997.02-1.553-.646-1.72-1.629c-.065-.382-.023-1.32-.102-1.7c-.192-.925-1.16-1.347-2.104-1.365c-3.284-.062-11.388-.198-11.388-.198c-1.103 0-2.847 1.116-2.847 2.219l.082 44.66c.003.252.218.198.468.174c.626-.06 1.799-.13 2.158-.185"/><g fill="none" stroke="#000" stroke-linecap="round" stroke-linejoin="round" stroke-width="2"><path d="M57.008 20.304v-3.356l-27.338-.002a.364.364 0 0 1-.36-.369l-.068-1.517c-.116-1.787-1.34-3.003-2.996-3.003H14.959a3 3 0 0 0-3 3V56"/><path d="M16.961 55.37c-.147 2.618-2.417 4.3-4.33 4.592l44.415.01a3 3 0 0 0 3-3V25.316a1 1 0 0 0-1-1H17.965a1 1 0 0 0-1 1z"/></g></svg>