<svg xmlns="http://www.w3.org/2000/svg" width="1em" height="1em" viewBox="0 0 72 72"><path fill="#fcea2b" stroke="#fcea2b" stroke-miterlimit="10" stroke-width="1.8" d="M36 32c8.284 0 12.89 5.303 15 11c1.579 4.26-5.484 11.717-15.007 11.012C26.62 53.32 19.865 49 21 43c1.13-5.97 6.716-11 15-11Z"/><path fill="#fcea2b" d="M42.25 36c2 9 9 9 9 9c2-6-6-11-6-11c7-6 1-10 1-10c0-10-10.375-11-10.375-11C25.5 15 26.25 24 26.25 24c-6 4 .625 9.75.625 9.75S19.25 38 21.25 45c0 0 8 0 8-9"/><path fill="#f1b31c" d="M36.622 26.603s5.925-.29 0 5.233c0 0-5.925-5.233 0-5.233"/><path fill="none" stroke="#000" stroke-linecap="round" stroke-linejoin="round" stroke-width="2" d="M23 49s4.797 5.025 13.48 5.012C45 54 49 49 49 49M33.625 13.5l-2.5-1.875m4 1.25l-1-2.125m3 2.5L37.25 10"/><path fill="none" stroke="#000" stroke-linecap="round" stroke-linejoin="round" stroke-width="2" d="m31.596 53.731l-.971 4.519L27.5 60m6-1l-2.875-.75m9.279-4.519l.971 4.519L44 60m-6-1l2.875-.75"/><circle cx="32.25" cy="23" r="2"/><circle cx="40.25" cy="23" r="2"/><path fill="none" stroke="#000" stroke-linecap="round" stroke-linejoin="round" stroke-width="2" d="M36.372 26.603s5.913-.29 0 5.233c0 0-5.913-5.233 0-5.233"/><path fill="none" stroke="#000" stroke-linecap="round" stroke-linejoin="round" stroke-width="2" d="M42 36c2 9 9 9 9 9c2-6-6-11-6-11c7-6 1-10 1-10c0-10-10.375-11-10.375-11C25.25 15 26 24 26 24c-6 4 .625 9.75.625 9.75S19 38 21 45c0 0 8 0 8-9"/></svg>