<svg xmlns="http://www.w3.org/2000/svg" width="1em" height="1em" viewBox="0 0 72 72"><path fill="#fcea2b" d="M17.563 12h42.438v47.5H17.563z"/><path fill="#b1cc33" d="M18 12h42v47.5H18z"/><path fill="#5c9e31" d="M14.675 12h1.642a2.675 2.675 0 0 1 2.675 2.675v42.15a2.675 2.675 0 0 1-2.675 2.675h-1.642c-1.477 0-2.175-1.198-2.175-2.675v-42.15c0-1.477.698-2.675 2.175-2.675"/><path fill="none" stroke="#000" stroke-linecap="round" stroke-linejoin="round" stroke-width="2" d="M18 13v46m44.909-4.185A1.986 1.986 0 0 0 64 53.047V9.083C64 7.933 63.067 7 61.917 7H16.459c-1.597 0-3.089.8-3.973 2.13h0a1.889 1.889 0 0 0 1.573 2.935h3.808L20 12.047h39.917v48H14.058a1.89 1.89 0 0 1-1.891-1.85V10.575"/><path fill="none" stroke="#000" stroke-linecap="round" stroke-linejoin="round" stroke-width="2" d="M39.533 27.219v7h3m-8.825 0a2.5 2.5 0 0 1-2.5-2.5v-2a2.5 2.5 0 0 1 2.5-2.5h0a2.5 2.5 0 0 1 2.5 2.5v2a2.5 2.5 0 0 1-2.5 2.5"/><circle cx="45.533" cy="34.219" r="1"/><path fill="none" stroke="#000" stroke-linecap="round" stroke-linejoin="round" stroke-width="2" d="m28.416 27.29l-1.518 7h-1.361l-1.537-7m25.401 1.717a2.151 2.151 0 0 1 2.107-1.717h0c.57 0 1.117.226 1.52.63a1.66 1.66 0 0 1-.019 2.251l-3.652 4.119h4.3"/></svg>