<svg xmlns="http://www.w3.org/2000/svg" width="1em" height="1em" viewBox="0 0 72 72"><defs><path id="openmojiHighHeeledShoe0" d="M25.501 34.561c2.916 2.372 5.458 5.385 6.764 9.15c4.333 12.493 1.03 12.728 4.333 17.345c3.98 5.56 40.725 5.177 23.375-7.08c0 0-12.254 2.98-16.94-1.355c0 0-5.427-17.955-26.14-38.379c0 0-4.5 2.328-6.243 8.046"/></defs><path fill="#d22f27" d="M25.501 34.561c2.916 2.372 5.458 5.385 6.764 9.15c4.333 12.493 1.03 12.728 4.333 17.345c3.98 5.56 40.725 5.177 23.375-7.08c0 0-12.254 2.98-16.94-1.355c0 0-5.427-17.955-26.14-38.379c0 0-4.5 2.328-6.243 8.046c0 0-1.104 1.85.56 3.816c1.557 1.84 14.291 8.457 14.291 8.457"/><path fill="#d22f27" d="M25.108 35.453c2.915 2.372 5.851 4.493 7.157 8.257c4.333 12.494 1.03 12.73 4.333 17.346c3.764 5.26 36.834 5.201 25.735-5.189c-1.286-1.203-3.075-1.696-4.813-1.415c-2.906.472-7.814.97-11.482-.186a5.75 5.75 0 0 1-3.639-3.428c-1.773-4.61-7.597-17.608-21.571-32.555c-2.57-2.749-5.884-2.418-7.836.798l-.122.205c-.908 1.558-2.243 3.467-1.536 5.126l.113.262c.535 1.235 13.66 10.779 13.66 10.779Z"/><path fill="#3f3f3f" d="m19.962 33.086l-2 27.872h-3.84V32.086l-2.912-5.982s6.65 3.811 10.526 6.911z"/><g fill="none" stroke="#000" stroke-linecap="round" stroke-linejoin="round" stroke-width="2"><path d="m19.962 33.086l-2 27.872h-3.84V32.086l-2.912-5.982s6.65 3.811 10.526 6.911z"/><use href="#openmojiHighHeeledShoe0"/><use href="#openmojiHighHeeledShoe0"/></g></svg>