<svg xmlns="http://www.w3.org/2000/svg" width="1em" height="1em" viewBox="0 0 72 72"><path fill="#a57939" d="m22.801 11.596l1.786 6.502l-4.543 5.088l-9.243 15.243l1.046 3.55l2.073.72l3.796.657l2.659-2.481l7.39-2.29s.253 1.037 5.687 5.105c.813.609 1.099 1.14 1.87 2.358l.496 3.28c.15 1.798-.455 3.845-1.068 5.542l-.746 1.64c-.38 1.052-1.799 1.96-2.484 2.845c-.434.56-1.092.973.448 1.637c4.822 2.075 22.455 7.374 32-6.73l-.292-3.502a18.57 18.57 0 0 0-1.07-4.85a14.394 14.394 0 0 0-2.868-4.733l-2.291-2.518l-1.311-2.04l.053-5.423l-2.397-4.374l-4.49-3.727l-2.667-4.5l-5.167-4.166l-5.63-.944a7.802 7.802 0 0 0-2.03-.072l-3.439.327a3.195 3.195 0 0 1-2.03-.311l-1.129-.588a11.3 11.3 0 0 0-4.409-1.246Z"/><path fill="#6a462f" d="M64.983 62.366c-.91-2.343-.485-6.708-.604-9.26c-.527-11.22-6.84-14.65-6.84-14.65l-1.316.194c1.075-6.526-1.642-10.867-1.642-10.867l-4.7-4.438l-.825.327c-3.016-7.24-9.409-9.291-9.167-9.492l-10.6-.615l2.461 4.065l5.792 2.08l3.532 2.842l2.276 4.312l.284 4.893l-1.417 5.643l-.192 3.552c-.089 1.64.132 3.282.65 4.84l.8 2.406c2.32 7.116 7.771 7.284 9.416 7.164l.036.786l.042.32c1.012 4.441 6.55 7.32 10.26 8.089c1.244.257 2.214-1.006 1.754-2.191m-12.59-8.453l.448.374l.014.297c-.157-.223-.318-.446-.463-.67"/><path fill="none" stroke="#000" stroke-linecap="round" stroke-linejoin="round" stroke-width="2" d="M57.205 36.868c1.768 2.362 6.545 6.682 6.045 16.238m-32-12.136s8.478 6.783 0 18.766"/><path fill="none" stroke="#000" stroke-linecap="round" stroke-linejoin="round" stroke-width="2" d="M33.946 29.955c.55 8.356-9.322 9.703-11.954 10.335c-.332.08-.632.25-.873.492l-2.223 2.222c-.35.35-.824.546-1.318.546h-3.512a2.795 2.795 0 0 1-2.651-1.911l-.531-1.593a2.795 2.795 0 0 1 .255-2.322l8.786-14.643l4.724-4.724l-2.116-6.906s7.803-.698 8.414 5.331c0 0 16.928 2.442 10.553 19.383c0 0-1.625 5.949 2.375 11.185"/><path fill="none" stroke="#000" stroke-linecap="round" stroke-linejoin="round" stroke-width="2" d="M29.667 13.106s22.244-4.02 19.958 19.959"/><path fill="none" stroke="#000" stroke-linecap="round" stroke-linejoin="round" stroke-width="2" d="M48.669 22.24s14.766 6.587 5.456 22.22c0 0-5.375 6.563.625 13.605"/><circle cx="23.167" cy="28.016" r="2"/></svg>