<svg xmlns="http://www.w3.org/2000/svg" width="1em" height="1em" viewBox="0 0 72 72"><path fill="#ea5a47" d="M17 55v-3h7v3"/><circle cx="36" cy="17" r="10" fill="#ea5a47"/><path fill="#3f3f3f" d="M27 55c0-3.866 4.03-7 9-7s9 3.134 9 7"/><path fill="#9b9b9a" stroke="#9b9b9a" stroke-linecap="round" stroke-linejoin="round" stroke-width="2" d="M33 27h6v21h-6z"/><path fill="#9b9b9a" d="M14 55h44v10H14z"/><path fill="#d22f27" d="m41 8.75l-6.78 17.677l2.688-.199a8.342 8.342 0 0 0 5.284-2.42l.855-.855a7.42 7.42 0 0 0 2.153-4.708l.075-1.029a7.321 7.321 0 0 0-1.585-5.104z"/><g fill="none" stroke="#000" stroke-width="2"><path stroke-linecap="round" stroke-linejoin="round" d="M14 55h44v10H14z"/><path stroke-miterlimit="10" d="M27 55c0-3.866 4.03-7 9-7s9 3.134 9 7"/><path stroke-linecap="round" stroke-linejoin="round" d="M17 55v-3h7v3m15-10.297V27h-6v17.705"/><circle cx="36" cy="17" r="10" stroke-miterlimit="10"/></g></svg>