<svg xmlns="http://www.w3.org/2000/svg" width="1em" height="1em" viewBox="0 0 72 72"><path fill="#b399c8" d="M11.896 12.336h47.236v47.236H11.896z"/><g fill="none" stroke="#000" stroke-width="1.968"><path stroke-linecap="round" stroke-linejoin="round" d="M12.29 12.336h47.236v47.236H12.29zm23.618 42.611v-9.841"/><path stroke-linecap="round" stroke-linejoin="round" d="m40.434 46.287l2.953 5.904c4.526-3.838 9.545-9.152 9.545-14.17s-2.263-9.645-5.806-12.597c1.575 2.165 2.362 4.724 2.362 7.578v.393c-.295 4.133-4.527 8.758-8.266 11.907c-.296.296-.59.493-.788.69L36.4 49.14l-.196.196l-4.035 3.248"/><path stroke-linejoin="round" d="M38.171 30.246c-.098 3.74 0 6.692.394 9.644c.098.492.098.886.196 1.378c.099.689.197 1.377.296 1.968c-1.87 1.28-3.051 2.067-3.051 2.067s-1.181-.788-2.854-2.067c.099-.689.197-1.378.295-1.968c.099-.394.099-.886.197-1.28c.295-2.853.492-5.904.394-9.644c-.099-3.444-.394-5.215-.788-7.282c-.098-.295-.098-.689-.196-.984c-.197-.689-.296-1.378-.492-2.165l3.542-2.362l3.543 2.362c-.197.787-.394 1.575-.492 2.165c-.098.394-.197.69-.197.984c-.492 1.87-.689 3.74-.787 7.184Z"/><path stroke-linecap="round" stroke-miterlimit="10" d="M33.94 30.246c.098 3.74 0 6.79-.394 9.644c-3.74-1.082-6.495-4.428-6.495-8.561c0-3.937 2.559-7.184 6.003-8.365c.492 1.968.787 3.838.885 7.282Zm10.923 1.083a8.798 8.798 0 0 1-6.298 8.463c-.296-2.854-.492-5.905-.394-9.644c.098-3.445.394-5.314.787-7.184c3.445 1.28 5.905 4.527 5.905 8.365Z"/><path stroke-linecap="round" stroke-linejoin="round" d="m39.647 52.388l-4.035-3.247l-.196-.197l-4.035-3.15c-.295-.196-.59-.393-.787-.688c-3.642-3.15-7.972-7.775-8.267-11.908v-.393c0-2.854.788-5.413 2.362-7.578c-3.444 3.051-5.806 7.578-5.806 12.596s5.019 10.333 9.546 14.171c.689-1.377 2.361-4.625 2.952-5.904"/></g></svg>