<svg xmlns="http://www.w3.org/2000/svg" width="1em" height="1em" viewBox="0 0 72 72"><defs><path id="openmojiLemon0" d="M16.03 55.937a5.479 5.479 0 0 1-1.018-6.081c-4.257-8.348-1.675-20.26 6.954-28.89c8.63-8.63 20.542-11.21 28.89-6.954a5.48 5.48 0 0 1 6.175 1.11a5.48 5.48 0 0 1 1.11 6.175c4.266 8.357 1.675 20.26-6.954 28.89s-20.533 11.22-28.89 6.954a5.48 5.48 0 0 1-6.267-1.204"/></defs><path fill="#fcea2b" d="M16.03 55.937a5.479 5.479 0 0 1-1.018-6.081c-4.257-8.348-1.675-20.26 6.954-28.89c8.63-8.63 20.542-11.21 28.89-6.954a5.48 5.48 0 0 1 6.175 1.11a5.48 5.48 0 0 1 1.11 6.175c4.266 8.357 1.675 20.26-6.954 28.89s-20.533 11.22-28.89 6.954a5.48 5.48 0 0 1-6.267-1.204"/><path fill="#f4aa41" d="M50.556 50.012C41.925 58.643 30.02 61.234 21.66 56.97c34.683 0 36.337-35.145 36.337-35.145c4.274 8.35 1.18 19.557-7.442 28.188"/><path fill="#f4aa41" d="M30.454 59.988C27.178 59.988 20 57 20 57l-2.5-1.03h4.161c13.988 0 24.18-5.737 30.295-17.048c4.587-8.488 5.04-17.06 5.043-17.145l.177-3.755l1.713 3.347c4.464 8.723 1.47 20.244-7.626 29.35c-6 6-13.69 9.27-20.809 9.27m-3.525-2.302c7.453 1.35 16.268-1.729 22.92-8.38c7.086-7.095 10.257-16.001 8.6-23.313c-1.63 8.848-7.92 29.064-31.52 31.693"/><path fill="#f4aa41" d="M56.961 14.9s1.827 4.824.968 7.235l-4.101-4.101zM16.826 56.208s4.396 1.942 6.637.707l-4.705-3.39z"/><g fill="none" stroke="#000" stroke-linecap="round" stroke-miterlimit="10" stroke-width="2"><use href="#openmojiLemon0"/><use href="#openmojiLemon0"/></g></svg>