<svg xmlns="http://www.w3.org/2000/svg" width="1em" height="1em" viewBox="0 0 72 72"><g fill="#d0cfce"><path d="M27 36v2.292c0 1.734.689 3.397 1.915 4.623A7.12 7.12 0 0 0 33.949 45h26.344a8.86 8.86 0 0 0 3.291-.634a7.194 7.194 0 0 0 4.308-4.935c.072-.286.108-.58.108-.876v-4.923c0-1.073-.25-2.132-.73-3.092a6.174 6.174 0 0 0-4.025-3.229A10.426 10.426 0 0 0 60.716 27H48v6h11.2c.526 0 1.044.122 1.514.357l.394.197c.547.273.892.832.892 1.443v2.892c0 .68-.385 1.303-.994 1.607a4.767 4.767 0 0 1-2.132.504H36.815a4.383 4.383 0 0 1-3.099-1.284l-.428-.428a.985.985 0 0 1-.288-.696V36z"/><path d="M45 36v-2.399a6.28 6.28 0 0 0-1.84-4.44a7.354 7.354 0 0 0-5.216-2.154l-26.118.058c-.945 0-2.277.115-3.154.466l-.803.321a6.043 6.043 0 0 0-3.618 4.145A8.396 8.396 0 0 0 4 34.034v4.121a7.82 7.82 0 0 0 .826 3.497a5.71 5.71 0 0 0 3.722 2.986l.487.122c.64.16 1.3.241 1.96.241H24v-6H13.016a4.302 4.302 0 0 1-1.924-.454A1.975 1.975 0 0 1 10 36.779v-2.432c0-.826.467-1.58 1.205-1.95A3.766 3.766 0 0 1 12.889 32h22.59c.974 0 1.908.387 2.597 1.076l.32.32c.387.386.604.911.604 1.46V36z"/></g><g fill="none" stroke="#000" stroke-linecap="round" stroke-linejoin="round" stroke-width="2"><path d="M49.042 27H62c3.3 0 6 2.7 6 6v6c0 3.3-2.7 6-6 6H33c-3.3 0-6-2.7-6-6v-2"/><path d="M49 33h11c1.105 0 2 .737 2 1.647v2.706c0 .91-.895 1.647-2 1.647H35c-1.104 0-2-.738-2-1.647v-.374"/><path d="M22.988 45H10c-3.3 0-6-2.7-6-6v-6c0-3.3 2.7-6 6-6h29c3.3 0 6 2.7 6 6v2"/><path d="M23 39H12c-1.105 0-2-.737-2-1.647v-2.706c0-.91.895-1.647 2-1.647h25c1.104 0 2 .738 2 1.647v.346"/></g></svg>