<svg xmlns="http://www.w3.org/2000/svg" width="1em" height="1em" viewBox="0 0 72 72"><path fill="#d0cfce" d="M22.71 47.807H50V67H22.71z"/><path fill="#9b9b9a" d="M41 42.609V67h9V43z"/><path fill="#d0cfce" d="M22.71 42.609H50v5.198H22.71z"/><path fill="#ea5a47" d="M26.908 42.41h17.894V15.32s-1-10.397-17.894-9.097z"/><path fill="#d22f27" d="M41 37V10c1.84 2.088 2.572 2.501 3.328 4.88l.767 22.916l-.043 4.615h-4.054z"/><path fill="#d22f27" d="M44.035 15.443c-1.063 1.683-5.348.885-9.571-1.782c-4.088-2.581-5.605-4.563-5.59-6.803c.002-.222.165-.43.386-.452c.42-.044 1.04.261 1.704.229c2.544-.316 5.842.562 8.034 1.892c4.224 2.667 5.054 5.65 5.037 6.916"/><path fill="none" stroke="#fff" stroke-linecap="round" stroke-miterlimit="10" stroke-width="2" d="M32.5 18.5V31"/><g fill="none" stroke="#000" stroke-width="2"><path stroke-linecap="round" stroke-linejoin="round" d="M23.328 66V42.609H50V66M27.908 38.512V6.222C43.33 4.313 45 15.32 45 15.32l-.103 23.067"/><path stroke-miterlimit="10" d="M23.328 48.327H50"/><path stroke-linecap="round" stroke-linejoin="round" d="M32 11a14.843 14.843 0 0 0 9 5"/></g></svg>