<svg xmlns="http://www.w3.org/2000/svg" width="1em" height="1em" viewBox="0 0 72 72"><path fill="#d0cfce" fill-rule="evenodd" d="M21.42 12H13c-.248 2.726 1.224 6.435 2.772 10.334c1.28 3.225 2.611 6.58 3.065 9.62l-1.886 22.63A5 5 0 0 0 21.934 60h27.744a5 5 0 0 0 4.99-5.312L52.313 17l-.02-.312l-.234-3.75A1 1 0 0 0 51.06 12H25.1z" clip-rule="evenodd"/><g fill="#9B9B9A"><path fill-rule="evenodd" d="m20.12 16.571l-.002.014l-.035.415l-3.132 37.585A5 5 0 0 0 21.934 60h27.744a5 5 0 0 0 4.99-5.312L52.313 17l-.02-.312l-.234-3.75A1 1 0 0 0 51.06 12H21.42a1 1 0 0 0-.997.917z" clip-rule="evenodd"/><path d="m20.118 16.585l-.997-.083zm.001-.014l.996.086v-.003zm-.036.429l.997.083zm-3.132 37.585l-.996-.083zm37.717.103l-.998.063zM52.313 17l.998-.062zm-.02-.312l-.998.063zm-.234-3.75l.998-.063zm-31.635-.021l.996.083zm.69 3.75l.001-.01l-1.992-.172l-.002.017zm-.034.416l.035-.415l-1.994-.166l-.034.415zm-3.132 37.585l3.132-37.585l-1.993-.166l-3.132 37.585zM21.934 59a4 4 0 0 1-3.986-4.332l-1.993-.166A6 6 0 0 0 21.934 61zm27.744 0H21.934v2h27.744zm3.992-4.25A4 4 0 0 1 49.678 59v2a6 6 0 0 0 5.988-6.374zm-2.355-37.688l2.355 37.689l1.996-.125l-2.355-37.688zm-.02-.312l.02.312l1.996-.124l-.02-.312zM51.061 13l.234 3.75l1.996-.124l-.234-3.75zm0 0l1.996-.125A2 2 0 0 0 51.06 11zm-3.758 0h3.758v-2h-3.758zM25.1 13h22.202v-2H25.1zm-3.68 0h3.68v-2h-3.68zm0 0v-2a2 2 0 0 0-1.994 1.834zm-.305 3.654L21.42 13l-1.993-.166l-.304 3.654z"/></g><path fill="#D0CFCE" fill-rule="evenodd" d="M30.526 16.28v.012L30.51 17l-.863 37.886A5 5 0 0 0 34.646 60h.323a5 5 0 0 0 5-5.085L39.32 17l-.07-4.017a1 1 0 0 0-.999-.983H31.6a1 1 0 0 0-1 .977z" clip-rule="evenodd"/><path fill="#9B9B9A" d="m30.526 16.292l-1-.023zm0-.012l1 .026v-.003zm-.016.72l1 .023zm-.863 37.886l-1-.023zm10.321.029l-1 .017zM39.321 17l1-.017zm-.07-4.017l1-.017zm-8.65-.006l1 .023zm.925 3.338v-.01l-2-.05v.015zm-.016.708l.016-.708l-2-.046l-.016.708zm-.863 37.886l.863-37.886l-2-.046l-.863 37.886zM34.646 59a4 4 0 0 1-4-4.091l-1.999-.046A6 6 0 0 0 34.646 61zm.323 0h-.323v2h.323zm4-4.068a4 4 0 0 1-4 4.068v2a6 6 0 0 0 6-6.102zm-.648-37.915l.648 37.915l2-.035l-.649-37.914zM38.252 13l.069 4.017l2-.034l-.07-4.017zm0 0l2-.034a2 2 0 0 0-2-1.966zm-3.335 0h3.335v-2h-3.335zm-3.316 0h3.316v-2h-3.316zm0 0v-2a2 2 0 0 0-2 1.954zm-.075 3.303L31.601 13l-2-.046l-.074 3.303z"/><path d="M12 12v-1a1 1 0 0 0-.996.91zm2.772 10.334l.93-.368zM18 34h-1a1 1 0 0 0 1 1zm.667-.009l.997.083a1 1 0 0 0-1.023-1.082zm-1.716 20.594l-.996-.083zm37.717.103l-.998.063zM52.313 17l.998-.062zm-.02-.312l-.998.063zm-.234-3.75l.998-.063zM12 13h9.42v-2H12zm3.701 8.966c-.778-1.96-1.515-3.821-2.031-5.528c-.52-1.72-.78-3.18-.674-4.347l-1.992-.181c-.141 1.557.21 3.315.751 5.106c.545 1.804 1.317 3.747 2.087 5.687zM19 34c0-3.763-1.748-8.127-3.299-12.034l-1.859.737C15.442 26.733 17 30.702 17 34zm-.36-1.008A26.71 26.71 0 0 1 18 33v2c.235 0 .466-.003.694-.01zm-.97.916l-1.715 20.594l1.993.166l1.716-20.594zm-1.715 20.594A6 6 0 0 0 21.934 61v-2a4 4 0 0 1-3.986-4.332zM21.934 61h27.744v-2H21.934zm27.744 0a6 6 0 0 0 5.988-6.374l-1.996.125A4 4 0 0 1 49.678 59zm5.988-6.374l-2.355-37.688l-1.996.124l2.355 37.689zm-2.355-37.688l-.02-.312l-1.996.125l.02.311zm-.02-.312l-.234-3.75L51.06 13l.234 3.75zm-.234-3.75A2 2 0 0 0 51.06 11v2zM51.06 11h-3.758v2h3.758zm-3.758 0H30.5v2h16.803zM30.5 11h-5.4v2h5.4zm-5.4 0h-3.68v2h3.68z"/><path fill="none" stroke="#000" stroke-linecap="round" stroke-width="2" d="m20.25 15l-1.542 18.5"/><path fill="none" stroke="#000" stroke-linecap="round" stroke-linejoin="round" stroke-width="2" d="m54.5 21.5l-.07-1.927a2 2 0 0 1 1.998-2.073h8.26a2 2 0 0 1 1.98 2.287l-3.92 27A2 2 0 0 1 60.77 48.5H58a2 2 0 0 1-2-2v-1.562"/></svg>