<svg xmlns="http://www.w3.org/2000/svg" width="1em" height="1em" viewBox="0 0 72 72"><g stroke-linecap="round" stroke-linejoin="round" stroke-miterlimit="10" stroke-width="2"><path fill="#9B9B9A" d="M54.07 59H27.68a.805.805 0 0 1-.805-.805v-45.39c0-.445.36-.805.805-.805h26.39c.444 0 .805.36.805.805v45.39c0 .444-.36.805-.805.805"/><path fill="#D0CFCE" d="M50.594 52.053H31.156a.781.781 0 0 1-.781-.781V18.834c0-.431.35-.781.781-.781h19.438c.431 0 .78.35.78.781v32.438a.78.78 0 0 1-.78.781"/><path fill="#FFF" d="M37 15h8z"/></g><g stroke="#000" stroke-miterlimit="10"><path fill="none" stroke-linecap="round" stroke-linejoin="round" stroke-width="2" d="M54.07 59H27.68a.805.805 0 0 1-.805-.805v-45.39c0-.445.36-.805.805-.805h26.39c.444 0 .805.36.805.805v45.39c0 .444-.36.805-.805.805"/><path fill="none" stroke-linecap="round" stroke-linejoin="round" stroke-width="2" d="M50.594 52.053H31.156a.781.781 0 0 1-.781-.781V18.834c0-.431.35-.781.781-.781h19.438c.431 0 .78.35.78.781v32.438a.78.78 0 0 1-.78.781"/><circle cx="41" cy="55.5" r="1.5"/><path fill="none" stroke-linecap="round" stroke-linejoin="round" stroke-width="2" d="M37 15h8z"/><path d="M16.53 42.751L17.64 44l7.86-8.497L17.635 27l-1.105 1.24l5.166 5.55c.146.157.169.443.05.638c-.064.106-.162.168-.264.168H6.5v1.813h14.968c.188 0 .34.203.34.453a.522.522 0 0 1-.127.353z"/></g></svg>