<svg xmlns="http://www.w3.org/2000/svg" width="1em" height="1em" viewBox="0 0 72 72"><path fill="#9b9b9a" d="m30.507 19.701l-.575-.586a2.969 2.969 0 0 0-2.21-.89l-1.897.058a2.969 2.969 0 0 0-2.192 1.069l-.596.717a5.335 5.335 0 0 0-1.224 3.745a1.473 1.473 0 0 0 1.595 1.374l5.234-.45a2.969 2.969 0 0 0 1.865-5.036Zm-6.243 22.006l-.198.565a2.104 2.104 0 0 1-.287.544l-1.4 1.917c-.58.795-.92 1.74-.978 2.722l-.04.668c-.03.512.127 1.017.442 1.42c.35.447.863.749 1.427.802c.965.091 1.879-.062 2.733-.507l2.652-1.862c.23-.16.424-.366.573-.604l2.335-3.72c.158-.25.26-.532.302-.825l.055-.394a2.104 2.104 0 0 0-2.297-2.386l-2.617.268a2.108 2.108 0 0 1-.365.005l-.202-.014a2.104 2.104 0 0 0-2.135 1.401"/><path fill="#d0cfce" d="m33.52 19.265l-1.369.062a10.537 10.537 0 0 0-4.352 2.06l-.733.584a2.02 2.02 0 0 0-.511.607l-.688 1.253a2.02 2.02 0 0 1-1.553 1.035l-1.463.158a19.942 19.942 0 0 0-3.151.6l-3.622.996a3.112 3.112 0 0 0-.955.448a17.3 17.3 0 0 0-4.4 4.447l-.4.587a10.323 10.323 0 0 0-1.416 3.047l-.071.256a2.019 2.019 0 0 0 .362 1.795a4.87 4.87 0 0 0 2.811 1.74l3.743.789c.5.105 1.01.156 1.52.153l7.273-.053c.414-.003.819.121 1.16.356l1.382.952l.347.265c.762.582 1.01 1.62.592 2.483l-.914 1.892a2.01 2.01 0 0 0-.136.369l-.443 1.695a2.019 2.019 0 0 0 2.854 2.317l3.845-2.474c1.573-.886 3.518-.747 5.31-.52l1.9.241c.097.012.192.031.286.057l.282.079a17.43 17.43 0 0 0 11.26-.665c.1-.041.197-.09.289-.146a7.162 7.162 0 0 0 2.34-2.322l1.479-2.372c.063-.101.117-.208.162-.32l.564-1.416c.059-.146.1-.3.123-.455l.343-2.351a12.468 12.468 0 0 0-1.38-7.754a17.076 17.076 0 0 0-1.757-2.624l-1.653-2.032a6.968 6.968 0 0 0-4.117-2.452l-.495-.093a19.846 19.846 0 0 0-7.006-.061a2.019 2.019 0 0 1-1.657-.461a11.28 11.28 0 0 0-3.754-2.141l-2.232-.61"/><g fill="none" stroke="#000" stroke-linecap="round" stroke-linejoin="round" stroke-width="2"><path d="M53.593 45.388c-.889.843-1.964 1.543-3.322 2.108c-2.21.92-4.653 1.136-7.026.81l-8.931-1.226m5.763-23.588c2-1 5-2 10 0c3.828 1.531 10 8 7.02 15.95a32.018 32.018 0 0 1-.66 1.633m-19.767.543c-.515 1.874-4.37 6.554-5.815 8.321c-1.607 1.967-6.7.553-4.858-3.11c.738-1.468 1.914-2.696 2.152-4.322c.052-.351.082-.692.097-1.018"/><path d="M22.382 49.219c-.69-.73-.826-1.977.399-3.678c.617-.858 2.155-2.664 2.277-4.74c0 0-2.908-.23-4.216-.234c-13.839-.042-12.042-5.166-11.858-5.69c.299-.854 4.015-6.565 6.905-8.01c4.37-2.185 9.686-1.636 9.686-1.636c1.502-5.74 10.524-9.671 14.201-1.092c3.277 7.647-4.7 10.353-7.7 10.353m24.361 6.582c2 0 3.64 3.418 2.64 6.418s-1.822 3.957-6.192 6.142c-8.74 4.37-19.663 2.185-29.644.36c-6.311-1.154-9.236.64-10.164 2.498c-1.093 2.185 1.68 5.86 7.035 4.79"/><path d="M22.65 21.699c.158-.852.464-1.625.843-2.186c2.206-3.269 6.834-1.815 7.642 0"/></g></svg>