<svg xmlns="http://www.w3.org/2000/svg" width="1em" height="1em" viewBox="0 0 72 72"><circle cx="22.258" cy="26.11" r="3" fill="#d0cfce"/><circle cx="46.153" cy="26.11" r="3" fill="#d0cfce"/><path fill="#3f3f3f" d="M46.153 16.11c-5.514 0-10 4.486-10 10s4.486 10 10 10s10-4.485 10-10s-4.485-10-10-10m0 13c-1.654 0-3-1.346-3-3s1.346-3 3-3s3 1.346 3 3s-1.345 3-3 3m-23.895-13c-5.514 0-10 4.486-10 10s4.486 10 10 10s10-4.485 10-10c0-5.514-4.486-10-10-10m0 13c-1.655 0-3-1.346-3-3s1.345-3 3-3s3 1.346 3 3s-1.346 3-3 3m-1.829 15.127l6.998.815c.376-.147 2.842-.37 2.842-.37s2.814 1.782 3.188 4.571c.375 2.79-4.643 3.815-4.869 3.815c-2.515 0-3.628-4.56-3.632-4.603l-4.527-.695l.57 2.249c.285 1.13.424 2.292.413 3.458l-.016 1.613c0 .447 1.387 1.808 1.865 1.808h24.826V40.031H20.43z"/><path fill="#9b9b9a" d="m51.727 42.827l-.005.003l.164-.057z"/><path fill="#9b9b9a" d="m61.183 54.97l-.238-13.608s-9.289 1.498-9.246 1.482c.008-.003.015-.01.023-.014l-3.445.983v9.22l3.629 1.034l-.142-.043c-.018-.005 9.418.946 9.418.946"/><path fill="#d0cfce" d="M24.218 48.465c.113.02 2.597 3.539 2.675 3.603c.064.054 3.39 1.027 3.602 1c.21-.029 2.295-2.027 2.353-2.135c.019-.034 1.175-1.76.83-3.2c-.243-1.01-2.005-1.881-2.07-1.93c-.158-.121-3.69-.735-3.7-.737c0 0-15.537-2.56-15.65-2.638l-4.365-3.515l-1.332 8.05l4.745-.735c.111-.017 12.912 2.236 12.912 2.236"/><g fill="none" stroke="#000" stroke-linecap="round" stroke-linejoin="round" stroke-width="2"><path d="M21.396 40.03h26.692v16.868H23.26c-1.03 0-1.865-.81-1.865-1.808v-3.124"/><path d="m7.915 39.39l-1.152 7.573l5.017-.779l13.594 2.492a4.105 4.105 0 1 0 2.359-3.435l-15.268-2.799z"/><circle cx="46.154" cy="26.11" r="10"/><circle cx="46.154" cy="26.11" r="3"/><circle cx="22.258" cy="26.11" r="10"/><circle cx="22.258" cy="26.11" r="3"/><path d="m52.053 53.068l8.892 2.113v-13.82l-8.892 2.412"/></g></svg>