<svg xmlns="http://www.w3.org/2000/svg" width="1em" height="1em" viewBox="0 0 72 72"><path fill="#61b2e4" d="M58 11H14a3 3 0 0 0-3 3v44a3 3 0 0 0 3 3h44a3 3 0 0 0 3-3V14a3 3 0 0 0-3-3"/><path fill="#3f3f3f" fill-rule="evenodd" d="M61 46.247C53.353 42.873 44.895 41 36 41s-17.353 1.873-25 5.247V58a3 3 0 0 0 3 3h44a3 3 0 0 0 3-3z"/><g fill="#fff"><path fill-rule="evenodd" d="M44 19h-1v3h1a2 2 0 0 1 2 2v15L29 20h-8v3h2a2 2 0 0 1 2 2v17a2 2 0 0 1-2 2h-1v3h9v-3h-1a2 2 0 0 1-2-2V25l13.956 16.282c2.39.228 4.74.592 7.044 1.083V24a2 2 0 0 1 2-2h1v-3z"/><path d="M43 19v-1a1 1 0 0 0-1 1zm0 3h-1a1 1 0 0 0 1 1zm3 17l-.745.667A1 1 0 0 0 47 39zM29 20l.745-.667A1 1 0 0 0 29 19zm-8 0v-1a1 1 0 0 0-1 1zm0 3h-1a1 1 0 0 0 1 1zm4 2h-1zm0 17h1zm-3 2v-1a1 1 0 0 0-1 1zm0 3h-1a1 1 0 0 0 1 1zm9 0v1a1 1 0 0 0 1-1zm0-3h1a1 1 0 0 0-1-1zm-3-2h1zm0-17l.76-.65A1 1 0 0 0 27 25zm13.956 16.282l-.759.651a1 1 0 0 0 .664.345zM49 42.365l-.209.978A1 1 0 0 0 50 42.365zM52 22v1a1 1 0 0 0 1-1zm0-3h1a1 1 0 0 0-1-1zm-9 1h1v-2h-1zm1 2v-3h-2v3zm0-1h-1v2h1zm3 3a3 3 0 0 0-3-3v2a1 1 0 0 1 1 1zm0 15V24h-2v15zM28.255 20.667l17 19l1.49-1.334l-17-19zM28 21h1v-2h-1zm-5 0h5v-2h-5zm-2 0h2v-2h-2zm1 2v-3h-2v3zm1-1h-2v2h2zm3 3a3 3 0 0 0-3-3v2a1 1 0 0 1 1 1zm0 17V25h-2v17zm-3 3a3 3 0 0 0 3-3h-2a1 1 0 0 1-1 1zm-1 0h1v-2h-1zm1 2v-3h-2v3zm0-1h-1v2h1zm7 0h-7v2h7zm1 0h-1v2h1zm-1-2v3h2v-3zm0 1h1v-2h-1zm-3-3a3 3 0 0 0 3 3v-2a1 1 0 0 1-1-1zm0-17v17h2V25zm15.716 15.632L28.759 24.349l-1.518 1.302l13.956 16.282zm6.493.755c-2.34-.5-4.73-.869-7.158-1.1l-.19 1.99c2.352.225 4.665.583 6.93 1.066zM48 42v.365h2V42zm0-18v18h2V24zm3-3a3 3 0 0 0-3 3h2a1 1 0 0 1 1-1zm1 0h-1v2h1zm-1-2v3h2v-3zm0 1h1v-2h-1zm-7 0h7v-2h-7z"/></g><g fill="none" stroke="#000" stroke-width="2"><path stroke-miterlimit="10" d="M58 11H14a3 3 0 0 0-3 3v44a3 3 0 0 0 3 3h44a3 3 0 0 0 3-3V14a3 3 0 0 0-3-3Z"/><path stroke-linecap="round" stroke-linejoin="round" d="M40 39L28 25v17a2 2 0 0 0 2 2h1v3h-9v-3h1a2 2 0 0 0 2-2V25a2 2 0 0 0-2-2h-2v-3h8l17 19V24a2 2 0 0 0-2-2h-1v-3h9v3h-1a2 2 0 0 0-2 2v16"/><path stroke-linecap="round" d="M61 46.247C53.353 42.873 44.895 41 36 41c-1.683 0-3.35.067-5 .199m-20 5.048a61.53 61.53 0 0 1 9-3.163"/></g></svg>