<svg xmlns="http://www.w3.org/2000/svg" width="1em" height="1em" viewBox="0 0 72 72"><path fill="#f4aa41" d="M34.322 64.164a1 1 0 0 1-.5-.134l-22.69-13.332a1 1 0 0 1-.5-.866l-.25-27.414a1 1 0 0 1 .5-.866L35.072 7.22c.31-.178.69-.178 1 0l22.69 13.082a1 1 0 0 1 .003 1.731l-23.193 14l-.25 27.133a1 1 0 0 1-1 .998"/><path fill="#f4aa41" d="m36 64.572l24.759-14.108l-.346-28.476l-24.841 14.045z"/><path fill="#d0cfce" d="M44.442 37.978a2.471 2.471 0 0 1-1.25-2.163v-4.172l-22.88-15.53c.692-.456 6.218-3.632 6.56-3.722l26.15 13.002a1 1 0 0 1 .5.866v6.024a3.29 3.29 0 0 1-1.64 2.841l-4.945 2.854c-.77.45-1.725.45-2.496 0zm.396 21.497v-3.336a2.978 2.978 0 0 1 1.485-2.572l6.073-3.507a1.847 1.847 0 0 1 2.77 1.6s-.022 1.605-.33 1.847c-2.04 1.61-9.998 6.279-9.998 5.968"/><path fill="#3f3f3f" d="M44.427 45.946v.869a1.497 1.497 0 0 0 2.246 1.296l6.804-3.76a2.28 2.28 0 0 0 1.14-1.975v-1.118a1.444 1.444 0 0 0-2.166-1.25l-6.745 3.724a2.556 2.556 0 0 0-1.279 2.214"/><path fill="#fff" d="m31.083 38.917l-8.298-4.653v7.442l8.298 4.653z"/><g fill="none" stroke="#000" stroke-linecap="round" stroke-linejoin="round" stroke-width="2"><path d="M61.262 21.168L35.572 6.336L9.882 21.168v29.664l25.69 14.832l25.69-14.832zm-25.69 14.865v29.631m.058-29.631L9.94 21.201m42.577 5.049l8.745-5.049m-25.69 14.832l8.616-4.974"/><path d="m26.884 11.457l25.638 14.801v6.025a2.28 2.28 0 0 1-1.14 1.975l-4.944 2.854a1.497 1.497 0 0 1-2.246-1.296v-4.749L18.624 16.25m12.459 22.667l-8.298-4.653v7.442l8.298 4.653zm23.084 15.749V51.66a.847.847 0 0 0-1.271-.734l-6.073 3.506a1.97 1.97 0 0 0-.985 1.707v3.336m-1.411-13.529v.869a1.497 1.497 0 0 0 2.246 1.296l6.804-3.76a2.28 2.28 0 0 0 1.14-1.975v-1.118a1.444 1.444 0 0 0-2.166-1.25l-6.745 3.724a2.556 2.556 0 0 0-1.279 2.214"/></g></svg>