<svg xmlns="http://www.w3.org/2000/svg" width="1em" height="1em" viewBox="0 0 72 72"><path fill="#9b9b9a" d="M16.05 54.946a3.008 3.008 0 0 1-3.008-3.009v-8.862l-.002-3.407c0-.211.247-.326.408-.19l3.78 3.3a.752.752 0 0 0 .484.177h23.28A3.008 3.008 0 0 1 44 45.963v5.974a3.008 3.008 0 0 1-3.008 3.008z"/><path fill="#d0cfce" d="M58.647 32.468a.25.25 0 0 0 .41-.191V20.018a3.024 3.024 0 0 0-3.024-3.024H31.122a3.024 3.024 0 0 0-3.024 3.024v6.006a3.024 3.024 0 0 0 3.024 3.024h23.33c.178 0 .35.063.487.178z"/><g fill="#fcea2b"><circle cx="13.02" cy="20.122" r="3"/><circle cx="59.08" cy="42.036" r="3"/><path d="M8.566 29.248a7.412 7.412 0 0 1 4.596-1.843a5.217 5.217 0 0 1 3.811 1.435a5.7 5.7 0 0 1 1.687 3.162l.365 2.12l-12.081-.008l.319-2.42a3.945 3.945 0 0 1 1.303-2.446m46.75 21.365a5.057 5.057 0 0 1 3.136-1.257l1.413-.058a3.848 3.848 0 0 1 2.812 1.058a7.453 7.453 0 0 1 2.205 4.134l.266 1.548l-12.081-.008l.21-1.593a6.17 6.17 0 0 1 2.04-3.824Z"/></g><g fill="none" stroke="#000" stroke-width="2"><circle cx="13.02" cy="20.122" r="3" stroke-miterlimit="10"/><path stroke-linecap="round" stroke-linejoin="round" d="M7.02 33.122s1-4.31 3-5.31s4-1 6 0s3 5.31 3 5.31"/><circle cx="59.08" cy="42.036" r="3" stroke-miterlimit="10"/><path stroke-linecap="round" stroke-linejoin="round" d="M53.08 55.036s1-4.31 3-5.31s4-1 6 0s3 5.31 3 5.31"/><path stroke-miterlimit="10" d="M16.05 54.946a3.008 3.008 0 0 1-3.008-3.009v-8.862l-.002-3.407c0-.211.247-.326.408-.19l3.78 3.3a.752.752 0 0 0 .484.177h23.28A3.008 3.008 0 0 1 44 45.963v5.974a3.008 3.008 0 0 1-3.008 3.008zm42.597-22.478a.25.25 0 0 0 .41-.191V20.018a3.024 3.024 0 0 0-3.024-3.024H31.122a3.024 3.024 0 0 0-3.024 3.024v6.006a3.024 3.024 0 0 0 3.024 3.024h23.33c.178 0 .35.063.487.178z"/></g></svg>