<svg xmlns="http://www.w3.org/2000/svg" width="1em" height="1em" viewBox="0 0 72 72"><path fill="#fff" d="M26.28 46.974V28.652s.206-4.156 5.338-4.135s8.997.021 8.997.021s9.233 1.134 7.359 8.98s-4.742 8.221-12.22 8.346l-9.006 7.65z"/><path fill="#ea5a47" d="M38.795 24.26a.455.455 0 0 0 .021-.104c.001-.012.007-.022.007-.034a.428.428 0 0 0-.012-.06a.487.487 0 0 0-.004-.066c-2.117-8.122-10.418-12.99-18.54-10.872a15.197 15.197 0 0 0-8.048 5.23a.484.484 0 0 0-.091.087a29.508 29.508 0 0 0 .292 34.728a.5.5 0 0 0 .698.103l.009-.009l.008-.003a.5.5 0 0 0 .115-.698c-4.572-6.372-3.114-15.244 3.258-19.816a14.2 14.2 0 0 1 9.73-2.59c.015.002.028-.004.04-.004s.024.008.037.008a.5.5 0 0 0 .5-.5v-.154a4.89 4.89 0 0 1 4.883-4.884h6.624a.515.515 0 0 0 .126-.016c.013-.003.022-.012.034-.017a.442.442 0 0 0 .229-.165a.365.365 0 0 0 .084-.165z"/><path fill="#d22f27" d="M38.81 24.062a.365.365 0 0 0-.003-.066c-2.112-8.118-10.405-12.986-18.523-10.874a15.188 15.188 0 0 0-7.032 4.078c7.402-3.915 16.576-1.087 20.49 6.315c.192.362.369.73.53 1.107h4.051a.515.515 0 0 0 .126-.016c.013-.003.022-.012.034-.017a.482.482 0 0 0 .089-.043a.507.507 0 0 0 .078-.053a.475.475 0 0 0 .061-.07a.461.461 0 0 0 .055-.08a.7.7 0 0 0 .05-.187c.001-.012.007-.022.007-.034a.406.406 0 0 0-.012-.06"/><path fill="#f4aa41" d="M47.917 34.247a.46.46 0 0 0 .104-.016c.012-.004.023-.002.034-.006a.447.447 0 0 0 .052-.032a.486.486 0 0 0 .061-.027a15.197 15.197 0 0 0 5.498-17.757c-1.629-4.358-5.096-7.176-9.517-8.624c-.037-.02-.57-.294-.613-.305a27.695 27.695 0 0 0-17.505.599a29.26 29.26 0 0 0-14.425 11.576a.5.5 0 0 0 .147.69l.012.005l.006.007a.5.5 0 0 0 .694-.137c4.369-6.513 13.19-8.25 19.703-3.881a14.2 14.2 0 0 1 5.83 8.21c.004.013.014.023.019.036s.001.024.006.036a.5.5 0 0 0 .643.293s.144-.053.144-.053c2.523-.943 7.198 1.67 8.14 4.193l.462 4.878a.52.52 0 0 0 .059.112c.007.01.019.016.027.026c.06.077.142.131.235.156c.031.01.063.019.095.023a.44.44 0 0 0 .089-.002"/><path fill="#e27022" d="M48.619 34.443a.454.454 0 0 0 .06-.027c6.866-4.819 8.525-14.291 3.706-21.156a15.187 15.187 0 0 0-6.281-5.162c6.257 5.565 6.818 15.148 1.254 21.405c-.272.306-.556.6-.852.883l1.418 3.796a.48.48 0 0 0 .059.112c.007.01.019.016.027.026a.482.482 0 0 0 .072.068c.024.02.05.04.077.055a.752.752 0 0 0 .18.056a.45.45 0 0 0 .09-.002a.46.46 0 0 0 .104-.017c.011-.003.023 0 .034-.005a.414.414 0 0 0 .052-.032"/><path fill="#b1cc33" d="M49.754 11.142a14.123 14.123 0 0 1 5.196 11.96a14.123 14.123 0 0 1-7.023 10.988a9.353 9.353 0 0 1-10.732 7.97c1.78 5.689 8.089 9.367 14.014 8.716s11.074-5.182 13.104-10.786s-.406-13.447-2.48-17.255c-2.067-3.796-6.84-9.292-12.08-11.593"/><path fill="#5c9e31" d="M52.648 47.257a13.8 13.8 0 0 1-12.279-5.359a8.08 8.08 0 0 1-3.174.01c1.78 5.69 8.089 9.367 14.014 8.717s11.074-5.182 13.104-10.787c.097-.266.174-.542.251-.818a16.142 16.142 0 0 1-11.916 8.237"/><path fill="#92d3f5" d="M37.013 42.466c3.822 7.339 12.87 10.19 20.21 6.367a14.982 14.982 0 0 0 6.408-6.446c-1.314 12.723-12.693 21.97-25.415 20.657a23.154 23.154 0 0 1-4.398-.891a10.472 10.472 0 0 1-6.99-11.5c.886-4.828 5.72-8.594 10.185-8.187"/><path fill="#61b2e4" d="M29.851 46.768c-2.09 11.028 8.54 17.673 15.304 15.91c-12.589 3.623-18.005-6.6-18.407-13.164c1.208-1.109 1.666-1.468 3.103-2.746"/><path fill="#b399c8" d="M40.255 64.354c-7.695-.581-13.72-6.86-13.985-14.572l.002-19.69c-5.356-.995-11.062 1.99-13.783 6.709a16.89 16.89 0 0 0-.152 15.687A22.347 22.347 0 0 0 24.364 63a29.444 29.444 0 0 0 15.891 1.354"/><path fill="#8967aa" d="M12.37 36.948a13.93 13.93 0 0 0-1.837 8.473a13.458 13.458 0 0 1 1.837-5.723a13.143 13.143 0 0 1 13.097-6.103v-2.75a13.143 13.143 0 0 0-13.097 6.103"/><g fill="none" stroke="#000" stroke-linecap="round" stroke-linejoin="round" stroke-width="2"><path d="M12.465 19.135c5.023-6.38 14.267-7.48 20.647-2.456a14.703 14.703 0 0 1 5.13 7.838m6.204-16.245c7.76 2.392 12.113 10.622 9.721 18.382a14.705 14.705 0 0 1-6.29 8.16M65.042 36c-.001 8.12-6.585 14.7-14.704 14.7a14.702 14.702 0 0 1-13.36-8.573m9.315 20.999c-7.567 2.955-16.096-.783-19.051-8.35a14.707 14.707 0 0 1-1.008-5.341M12.762 53.25C8.03 46.652 9.54 37.47 16.136 32.735a14.7 14.7 0 0 1 10.072-2.68"/><path d="M36.042 7c-16.017 0-29 12.984-29 29s12.983 29 29 29s29-12.984 29-29s-12.984-29-29-29m11.932 26.519a8.608 8.608 0 0 1-8.608 8.608h-5.833l-7.3 7.308V29.9a5.384 5.384 0 0 1 5.385-5.384h7.748a8.608 8.608 0 0 1 8.608 8.608z"/></g></svg>