<svg xmlns="http://www.w3.org/2000/svg" width="1em" height="1em" viewBox="0 0 72 72"><path fill="#fff" d="M14.736 54.187c.41.166.872.276 1.334.276c.718 0 1.436-.276 2.051-.718l25.39-14.866l.257-.277c.667-.718 1.026-1.602 1.026-2.597s-.36-1.934-1.026-2.597l-.257-.277l-25.39-14.976c-.923-.774-2.256-.94-3.385-.443c-1.282.553-2.103 1.935-2.103 3.427V50.76c0 1.493.82 2.874 2.103 3.427"/><path fill="none" stroke="#000" stroke-linecap="round" stroke-linejoin="round" stroke-width="2" d="M14.158 54.717c.42.17.895.283 1.368.283c.737 0 1.474-.283 2.106-.737l26.052-15.254l.263-.284C44.632 37.988 45 37.081 45 36.06s-.368-1.985-1.053-2.665l-.263-.284l-26.052-15.367c-.948-.794-2.316-.964-3.474-.454c-1.316.567-2.158 1.985-2.158 3.516V51.2c0 1.53.842 2.948 2.158 3.516M60 17v38m-8-38v38"/></svg>