<svg xmlns="http://www.w3.org/2000/svg" width="1em" height="1em" viewBox="0 0 72 72"><path fill="#3F3F3F" d="M38.655 12.841h-15.92v3.42h15.92c7.363 0 16.14 3.213 16.14 18.526c0 11.606-5.348 17.492-15.896 17.492H21.074l5.543-5.09l-2.03-2.21l-9.8 9.01l9.8 8.992l2.03-2.21l-5.525-5.073H38.9c12.455 0 19.315-7.427 19.315-20.911c0-13.947-7.13-21.946-19.559-21.946"/><path d="M38.655 10.841h-15.92a2 2 0 0 0-2 2v3.42a2 2 0 0 0 2 2h15.92c9.382 0 14.14 5.56 14.14 16.526c0 10.569-4.416 15.492-13.896 15.492H26.21l1.76-1.617a2 2 0 0 0 .121-2.826l-2.03-2.21a2 2 0 0 0-2.826-.12l-9.801 9.01a2 2 0 0 0 .001 2.946l9.801 8.992c.384.353.869.527 1.352.527c.54 0 1.08-.218 1.473-.647l2.03-2.209a2.002 2.002 0 0 0-.12-2.826l-1.743-1.6H38.9c13.545 0 21.315-8.352 21.315-22.912c0-14.994-8.06-23.946-21.559-23.946m.244 44.857H21.092l5.525 5.074l-2.03 2.209l-9.8-8.993l9.8-9.01l2.03 2.21l-5.543 5.09H38.9c10.548 0 15.896-5.884 15.896-17.491c0-15.313-8.777-18.527-16.14-18.527h-15.92v-3.419h15.92c12.43 0 19.559 8 19.559 21.946c0 13.485-6.86 20.91-19.315 20.91"/></svg>