<svg xmlns="http://www.w3.org/2000/svg" width="1em" height="1em" viewBox="0 0 72 72"><path fill="#92d3f5" d="M32.088 60.149H15.813V30.696H23.8a105.35 105.35 0 0 1 7.255 9.608c3.112 4.945 1.033 19.845 1.033 19.845"/><path fill="#ea5a47" d="M32.157 43.944h-9.615l.064 13.453h9.583"/><path fill="#fff" d="M23.8 30.696c.463-1.294.7-2.657.7-4.031V22.84l8.487-3.113V16h-8.844c-5.918 0-8.33 6.492-8.33 6.492v8.204"/><path fill="#fff" d="M27.935 22.51c-.352 2.144 3.812 8.574 3.812 8.574l.423-.116a1.232 1.232 0 0 0 .86-1.55a38.275 38.275 0 0 1-.94-7.477l.166-1.692"/><path fill="#d0cfce" d="M31.213 22.064s-2.617 1.612-1.851 5.976l-2.032-5.21l-.202-1.04l4.085-1.413z"/><path fill="#61b2e4" d="M21.782 31.084s7.24 8.124 8.718 12.86l.76-.84a.92.92 0 0 0 .06-1.161l-7.68-10.495z"/><path fill="#d22f27" d="M30.193 43.77s.32 11.52-.479 13.212l.492.038a2.272 2.272 0 0 0 2.446-2.286l-.076-8.603a2.383 2.383 0 0 0-2.383-2.362"/><path fill="#61b2e4" d="m30.702 57.553l-.893 2.075l.579.045a1.358 1.358 0 0 0 1.463-1.353v-.607z"/><path fill="none" stroke="#000" stroke-linecap="round" stroke-linejoin="round" stroke-width="2" d="M32.197 60.149H15.922V30.696h7.987a105.35 105.35 0 0 1 7.255 9.608c3.113 4.945 1.033 19.845 1.033 19.845"/><path fill="none" stroke="#000" stroke-linecap="round" stroke-linejoin="round" stroke-width="2" d="M32.266 43.944h-9.615l.064 13.453h9.583M15.922 30.696V23.09c0-.427.091-.844.276-1.229c.783-1.63 3.275-5.862 8.054-5.862h8.844v3.727l-8.487 3.113v5.648c0 .168-.03.334-.086.492l-.614 1.716"/><path fill="none" stroke="#000" stroke-linecap="round" stroke-linejoin="round" stroke-width="2" d="M27.351 22.51c-.352 2.144 3.813 8.574 3.813 8.574l.422-.116a1.232 1.232 0 0 0 .86-1.55a38.275 38.275 0 0 1-.94-7.477l.166-1.692"/><rect width="2.978" height="5.601" x="32.271" y="15.012" rx=".951" ry=".951"/><circle cx="54.043" cy="17.791" r="2"/><circle cx="54.043" cy="8.791" r="2"/><circle cx="47.836" cy="13.791" r="2"/><circle cx="47.836" cy="21.791" r="2"/><circle cx="54.043" cy="26.956" r="2"/><circle cx="40.87" cy="17.791" r="2"/></svg>