<svg xmlns="http://www.w3.org/2000/svg" width="1em" height="1em" viewBox="0 0 72 72"><path fill="#6a462f" d="M43.77 56.994a19.888 19.888 0 0 0 2.832-12.493l-2.099-3.083l-4.108-1.535c.055.641 1.57 5.524 2.013 6.798c.1.289.144.593.131.898c-.248 5.499-1.561 6.987-1.895 7.279a2.91 2.91 0 0 0-.063.05l-.016.01l.003.003c-.365.31-.59.755-.622 1.234a1.946 1.946 0 0 0 1.868 1.996a2.007 2.007 0 0 0 1.618-.629l.002.002l.008-.012a1.78 1.78 0 0 0 .329-.518m-10.555-.888a69.16 69.16 0 0 0 .162-7.313a10.34 10.34 0 0 0-1.072-5.29l-2.125.392l-1.102 2.581l.896 2.64c1.192 3.389.69 4.975.165 5.684a2.279 2.279 0 0 0-.605.524l-.008.003l.003.002a1.827 1.827 0 0 0-.308 1.885c.51.972 1.71 1.35 2.685.847a2.22 2.22 0 0 0 1.197-1.253c.002-.01.008-.02.01-.028c.077-.216.111-.445.102-.674"/><path fill="#a57939" d="M20.273 26.998a17.313 17.313 0 0 1 2.844 9.032c0 .032.004.063.012.094c.086.376.717 2.939 2.136 3.904c0 0 2.423 2.393-1.835 3.686c0 0-6.852 2.415-4.76 6.544c0 0 1.483 2.577 3.354.074l.098-.193a2.46 2.46 0 0 0-.114-1.675c-.087-.197-.011-.5.152-.64a4.418 4.418 0 0 1 4.043-.91s2.322.981 5.226-3.575l.092-.108c.47-.39 4.061-3.166 10.568-2.524a.536.536 0 0 1 .323.147c.854.827 5.68 5.438 8.54 6.89l.13.097a7.515 7.515 0 0 1 1.874 6.705l-.137.251c-.423.43-1.833 2.121.89 3.156l.22.038c.58-.021 3.133-.312 2.03-3.777a.477.477 0 0 1-.026-.147c-.004-.722-.088-6.96-1.744-10.44l-.14-.18c-.373-.307-1.874-2.125-.74-10.924c.005-.045.18-.147.167-.19c-.196-.676 1.124-2.73 1.744-3.328c.185-.166 6.978-6.328 2.742-10.65c-.03-.03-.223-.26-.521-.483c-.442-.381-3.612-3.078-7.11-1.29c-1.075.549-1.893 1.49-2.478 2.546a12.67 12.67 0 0 0-.897 2.012c-.746 2.617 1.065 4.798 2.062 2.265c.09-.228 1.31-2.043 1.396-2.309a.539.539 0 0 1 .14-.227c.514-.475 2.913-2.407 4.118 1.713c0 0 1.069 3.63-4.451 5.489a.538.538 0 0 1-.392-.016c-.775-.348-4.053-1.572-9.231-.078l-.024.006c-.306.052-10.228 1.702-11.347-6.599c0 0-.74-4.576-3.08-4.64l-5.207-.786s-2.271-.017-2.616 1.694c0 0-.041 1.402-2.624 1.328c-.663.003-3.114-.421-2.086 2.312a.549.549 0 0 1 .016.362c-.218.673-.787 3.15 2.577 3.408c0 0 2.943-.15 4.066 1.936"/><g fill="none" stroke="#000" stroke-miterlimit="10" stroke-width="2"><path stroke-linecap="round" d="M40.82 41.566c.21.623 1.752 4.76 1.883 5.115c.106.287.153.593.139.898c-.264 5.499-1.66 6.987-2.015 7.279c-.023.016.021-.018 0 0m2.225 2.819c3.873-3.454 3.543-13.176 3.543-13.176"/><path d="M40.826 54.858a2.22 2.22 0 0 0-.742 1.297a1.875 1.875 0 0 0 1.68 1.996a1.715 1.715 0 0 0 1.457-.628l.002.002M29.08 46.477l.896 2.64c1.191 3.388.69 4.974.164 5.683l-.61.529a1.827 1.827 0 0 0-.308 1.885c.51.972 1.71 1.35 2.685.847a2.22 2.22 0 0 0 1.197-1.253c.002-.01.008-.02.01-.028c.077-.216.112-.445.103-.673c.182-2.433.236-4.874.161-7.313c.05-.77.013-1.543-.112-2.305a9.876 9.876 0 0 0-.96-2.986"/><g stroke-linecap="round"><path d="M18.466 47.75a3.505 3.505 0 0 0 .204 2.508a1.893 1.893 0 0 0 2.436 1.084c.885-.405.864-1.798.56-2.826m-.046-.15a4.585 4.585 0 0 1 3.71-1.612c.186.002.37.03.548.083a3.027 3.027 0 0 0 3.67-1.374M53.42 33.055l-.296 5.633s-.21 3.692.808 4.541a7.093 7.093 0 0 1 1.272 4.753s.536 5.758.697 7.991"/><path d="M48.447 23.824c2.543-6.457 5.18-3.19 5.18-3.19c3.178 3.94-.993 6.362-2.83 7.188a1.763 1.763 0 0 1-1.39-.02c-2.562-1.029-8.826.18-8.826.18c-7.852.733-9.478-2.557-9.478-2.557a48.827 48.827 0 0 1-3.064-7.227a1.842 1.842 0 0 0-1.048-1.163a20.718 20.718 0 0 0-5.153-1.034c-3.137-.36-3.515 1.65-3.515 1.65c-.532 1.37-1.437 1.324-1.437 1.324l-1.864.007c-2.311.13-1.331 2.503-1.331 2.503c-.586 3.089 3.088 3.727 3.088 3.727a4.769 4.769 0 0 1 3.195 1.332a18.137 18.137 0 0 1 2.929 7.827c.213 3.674 1.734 4.962 1.734 4.962c2.855 2.77 0 3.82 0 3.82c-4.208 1.524-5.75 3.231-6.143 4.606M55.9 55.973c.186 1.666-.982 2.09-2.084 2.019a1.892 1.892 0 0 1-1.88-1.89c.073-.495.186-.983.338-1.459m3.626 1.33l.027.39"/><path d="M52.125 55.257c.373-1.245 1.089-4.493-.628-7.015a1.726 1.726 0 0 0-.481-.467c-1.13-.742-5.418-3.653-7.326-6.34a1.524 1.524 0 0 0-1.12-.623c-2.488-.218-10.334-.441-13.208 4.982"/></g></g><path fill="#d22f27" d="M23.326 31.433s4.815 1.051 7.93-4.343c0 0 2.322 2.14 8.043 1.981a21.33 21.33 0 0 0-.558 10.735a15.311 15.311 0 0 0-7.15 2.147a6.012 6.012 0 0 0-4.792-1.134a4.952 4.952 0 0 0-1.363-2.096s-1.357-1.01-1.533-4.317z"/><path fill="none" stroke="#fff" stroke-miterlimit="10" stroke-width="2" d="M34.144 34.748h-4.581m2.287 2.29v-4.58"/></svg>