<svg xmlns="http://www.w3.org/2000/svg" width="1em" height="1em" viewBox="0 0 72 72"><g fill="none" stroke="#000" stroke-linecap="round" stroke-linejoin="round" stroke-width="2"><path d="m39.179 35.642l15.018-17.26a3.989 3.989 0 0 0-6.38-4.788L18.579 59.193l16.39-18.727"/><path d="M49.908 19.66c-.743.516-1.472.675-1.915.343c-.703-.527-.416-2.098.642-3.507s2.485-2.123 3.188-1.595a.907.907 0 0 1 .311.45"/><path d="M49.005 16.048c.541.28 1.057.606 1.542.975a13.166 13.166 0 0 1 5.21 13.203s-1.613 8.934-10.897 9.209c-8.505.252-21.409-8.633-33.86 2.798m23.59-23.669s6.029-4.803 12.183-3.343"/></g><path fill="#fff" d="m43.962 34.38l6.447-7.144s4.123 9.35-6.447 7.143"/><path fill="#d0cfce" d="M54.002 11.998a5.009 5.009 0 0 0-7.008 1.03l-.02.026l-29.237 45.598a1 1 0 0 0 1.595 1.198L54.95 19.04a4.995 4.995 0 0 0-.948-7.042m-3.62 5.81a3.283 3.283 0 0 1-1.769 1.37a3.281 3.281 0 0 1 .822-2.08a3.283 3.283 0 0 1 1.768-1.37a3.288 3.288 0 0 1-.821 2.08"/><path fill="none" stroke="#000" stroke-linecap="round" stroke-linejoin="round" stroke-width="2" d="m39.179 35.642l15.018-17.26a3.989 3.989 0 0 0-6.38-4.788L18.579 59.193l16.39-18.727"/><path fill="none" stroke="#000" stroke-linecap="round" stroke-linejoin="round" stroke-width="2" d="M49.908 19.66c-.743.516-1.472.675-1.915.343c-.703-.527-.416-2.098.642-3.507s2.485-2.123 3.188-1.595a.907.907 0 0 1 .311.45"/><path fill="#92d3f5" d="M46.3 14.106c-6.286-1.075-12.087 3.474-12.34 3.675a1 1 0 0 0 1.246 1.565c.051-.04 4.805-3.75 9.896-3.372zm2.959 3.239c.232.147.46.306.683.475a12.093 12.093 0 0 1 4.831 12.226c-.061.332-1.605 8.142-9.943 8.389a32.328 32.328 0 0 1-7.983-1.305c-7.68-1.854-17.234-4.16-26.524 4.367a1 1 0 0 0 1.354 1.473c8.503-7.805 17.107-5.73 24.7-3.896c2.77.8 5.63 1.257 8.512 1.361c9.98-.297 11.835-9.934 11.837-9.962a14.055 14.055 0 0 0-5.574-14.245a12.073 12.073 0 0 0-.434-.315a3.863 3.863 0 0 0-1.404 1.344z"/></svg>