<svg xmlns="http://www.w3.org/2000/svg" width="1em" height="1em" viewBox="0 0 72 72"><path fill="#e67a94" d="M60.5 25c0-7.444-6.056-13.5-13.5-13.5a13.494 13.494 0 0 0-11 5.672A13.494 13.494 0 0 0 25 11.5c-7.444 0-13.5 6.056-13.5 13.5c0 2.729.84 5.408 2.383 7.65l-.034.028L34.715 58.54h2.57l20.228-25.07l.668-.837l-.036-.024A13.534 13.534 0 0 0 60.5 25"/><path fill="#fcea2b" d="M26.676 38.305c.105.581.668 1.056 1.421 1.198l10.146 1.917l-10.15 1.918c-.754.142-1.312.616-1.417 1.197l-2.574 8.43l-2.775-8.43c-.105-.581-.663-1.055-1.416-1.197c-2.954-.558-5.16-1.918-5.16-1.918c-.001 0 2.206-1.36 5.16-1.918c.753-.142.846-.825.951-1.406l1.793-10.178c.063-.347 1.679-2.596 1.741-2.248z"/><path fill="#f1b31c" d="m24.587 53.919l1.025-7.875c-1.924-3.336-3.347-6.796-4.243-9.26l-.244 1.53c-.093.582-.586 1.055-1.251 1.197c-2.553.863-4.507 1.978-4.592 1.997c.081.017 1.972.692 4.591 1.837c.666.142 1.159.616 1.252 1.197l2.764 9.377c.055.347.643.347.698 0"/><path fill="#fcea2b" d="M51.882 18.936c.087.464.55.842 1.168.955l7.066 1.296c.331.06.335.405.004.465l-7.074 1.297c-.619.114-1.077.491-1.164.955L50.01 33.978c-.051.277-.598.277-.65 0l-1.873-10.074c-.086-.463-.544-.841-1.163-.955l-7.075-1.296c-.33-.061-.33-.405 0-.465l7.075-1.297c.619-.114.695-.658.782-1.122l2.223-8.116c.052-.277.63-2.07.681-1.792z"/><path fill="#f1b31c" d="m50.075 33.978l1.21-8.87c-1.312-2.66-2.283-5.42-2.894-7.385l-.166 1.22c-.064.464-.4.841-.854.955l-5.189 1.296c-.243.06-.243.404 0 .465l5.189 1.296c.454.114.79.491.854.955l1.374 10.068c.037.277.438.277.476 0"/><g fill="none" stroke="#000" stroke-linecap="round" stroke-linejoin="round" stroke-width="2"><path d="M29.15 50.05L36 58.54l20.734-25.698l-.004-.003A12.44 12.44 0 0 0 59.5 25M45.25 12.622A12.51 12.51 0 0 0 36 19.06a12.497 12.497 0 0 0-11-6.56c-6.904 0-12.5 5.596-12.5 12.5c0 2.97 1.04 5.694 2.77 7.839l-.004.003l2.16 2.678"/><path d="m22.556 32.45l1.546-8.06l.506 3.016l1.682 10.043c.19 1.127 1.187 2.033 2.543 2.309L37 41.42l-8.173 1.663c-1.352.275-2.348 1.181-2.537 2.308L24.103 58.45l-2.188-13.058c-.189-1.128-1.185-2.034-2.537-2.309l-8.173-1.663l8.173-1.663c1.352-.275 2.267-1.847 2.455-2.974m27.015-22.516l1.234-6.427l.403 2.405l1.341 8.008c.151.899.947 1.622 2.028 1.841l6.262 1.326l-6.267 1.326c-1.078.22-1.872.942-2.023 1.84L50.082 35l-1.745-10.413c-.15-.899-.944-1.621-2.023-1.84l-6.517-1.327l6.517-1.326c1.079-.22 1.808-1.473 1.958-2.371"/></g></svg>