<svg xmlns="http://www.w3.org/2000/svg" width="1em" height="1em" viewBox="0 0 72 72"><path fill="#92d3f5" d="M16.598 20.026c.239 1.888.574 4.446 1.011 7.492c.364 2.53.55 3.684.945 3.724c.818.084 1.882-4.52 2.073-5.349c.446-1.928.73-3.89.848-5.866"/><path fill="#61b2e4" d="M13.781 15.056h9.686v4.408h-9.686zm9.551 14.815c.509.07.866.774 2.272 6.456c1.446 5.84 1.265 5.89 1.824 6.985c1.581 3.099 3.03 2.699 5.603 6.57c2.219 3.34 1.508 4.189 2.974 5.16c2.966 1.964 7.297-.563 12.266.958c1.987.47 2.09 1.408 3.435 2.945c.913 1.135 2.086 3.136 2.808 5.114c.202.553-.064 1.192-.627 1.363c-2.485.755-8.982-2.203-18.492-.543c-4.453.777-8.145 2.4-8.907 1.173c-.843-1.356 3.239-4.033 2.728-7.733c-.304-2.203-2.628-4.566-4.042-7.565c-2.441-5.174-3.452-10.354-4.725-15.05c.651-3.154 1.73-5.992 2.883-5.833"/><ellipse cx="41.903" cy="46.206" fill="#92d3f5" rx="4.857" ry="5.806"/><path fill="#f4aa41" d="M16.141 13.355a2.822 2.822 0 0 1 .096-2.424c.514-1.012 1.378-1.142 2.645-1.925c2.725-1.683 3.14-3.806 4.049-3.567c.937.246 1.033 2.638 1.06 3.276c.06 1.511.166 4.128-1.716 5.466c-1.943 1.38-5.282.883-6.134-.826"/><path fill="none" stroke="#92d3f5" stroke-linecap="round" stroke-miterlimit="10" stroke-width="2" d="M41.484 30.529v6.101m10.817-2.26l-4.814 4.314M31.56 34.186l4.314 4.314m-5.212 4.489h3.605m16.022.25h6.101"/><g fill="none" stroke="#000" stroke-linecap="round" stroke-linejoin="round" stroke-width="2"><path d="M13.364 15.056h10.102v4.408H13.364zm2.918-1.319a3.543 3.543 0 0 1-.231-2.35c.348-1.191 1.336-1.56 3.178-2.913c2.84-2.088 3.307-3.284 4.006-3.013c.942.365.96 2.898.53 4.601a7.434 7.434 0 0 1-.729 1.821m-6.458 7.959c.875 7.977 1.703 11.961 2.482 11.952c.68-.008 1.324-3.058 1.93-9.148m-1.418 12.811c.58 1.981 1.17 4 2.34 8.04c1.437 4.966 1.481 5.164 1.794 5.922c2.437 5.899 5.014 6.542 4.666 9.6a43.515 43.515 0 0 1-1.436 5.563c-.182.619-.34 1.128-.448 1.47M22.987 29.1a51.059 51.059 0 0 1 2.872 8.116c1.276 4.519.834 4.78 1.885 6.73c2.274 4.223 5.048 4.298 7.088 8.793c.336.917.89 1.738 1.615 2.392a6.777 6.777 0 0 0 4.845 1.286c1.968-.203 3.216-1.083 4.897-1.342a5.382 5.382 0 0 1 5.063 2.24c1.096 1.003 1.912 3.135 3.5 7.357"/><ellipse cx="41.903" cy="46.206" rx="5" ry="6.101"/><path d="M50.289 43.717h6.101m-8.252-4.708l4.813-4.314m-10.833 1.919v-6.101m-7.851 12.954h-3.605m4.693-4.503l-4.314-4.314"/></g></svg>