<svg xmlns="http://www.w3.org/2000/svg" width="1em" height="1em" viewBox="0 0 72 72"><path fill="#61b2e4" d="m23.513 14.31l-2.69 1.71V56h30.354V16.02l-2.871-1.63l-3.207-.861l.161-.613a2.115 2.115 0 0 0-1.242-2.496L40.56 9a12.834 12.834 0 0 0-7.84-.615l-2.028.482a6.955 6.955 0 0 0-4.683 3.797l-.373.79zM61 31.329l-9.823-3V16.021l12.823 6z"/><path fill="#92d3f5" d="M44.812 11.273s2.571 1.087-3.787 11.134l-3.209-5.165l4.505-4.846l1.553-1.781M27.93 10.61l2.007 2.75l4.513 4.853l-3.21 5.165c-7.157-8.853-4.706-11.283-4.706-11.283"/><path fill="#61b2e4" d="m11 31.329l9.823-3V16.021L8 22.021z"/><path fill="none" stroke="#000" stroke-linecap="round" stroke-linejoin="round" stroke-width="2" d="m48.306 15.24l2.871.781V56H20.823V16.021l2.69-.861M61 31.329l-9.823-3V16.021l12.823 6zm-50 0l9.823-3V16.021L8 22.021z"/><path fill="none" stroke="#000" stroke-linecap="round" stroke-linejoin="round" stroke-width="2" d="m42.322 12.396l-4.506 4.846l3.209 5.165c7.158-8.853 4.707-11.283 4.707-11.283c-10.443-8.361-19.69 0-19.69 0s-2.452 2.43 4.706 11.283l3.21-5.165l-4.513-4.853"/><circle cx="35.887" cy="21.675" r=".853"/><circle cx="35.887" cy="24.942" r=".853"/><circle cx="35.887" cy="28.208" r=".853"/></svg>