<svg xmlns="http://www.w3.org/2000/svg" width="1em" height="1em" viewBox="0 0 72 72"><path fill="#fff" d="m21.034 22.287l30.595.469L51 29l2.441-.057l-2.164 18.312H20.8l-2.12-17.393l3.027.105z"/><path fill="#d22f27" d="m51 27l2.882-.021l-.441 1.964L51 29zm-32.84-.127L21 27v2l-2.662-.5zm2.652 21.742l30.501.199l-.266 1.46l-30.035-.033z"/><g fill="none" stroke="#000" stroke-linecap="round" stroke-linejoin="round" stroke-width="2"><path d="m17.712 29.958l2.85 24.542h30.875l2.85-24.542"/><path d="M54.269 29.956L51.437 54.5H20.562L17 23.625m38 0l-.73 6.331M15 22L8 37m49-15l7 15M20 22h32m-32 0l2 15m30-15l-2 15m-28 0h28M21 51h30m-31-3h31M18 26h2m-2 3h2m32-3h2m-2 3h2m-12-7l12.709-11.276a.961.961 0 0 0-1.359-1.36zm-4 0L49.32 6.549a.955.955 0 0 0-.29-1.359a.997.997 0 0 0-1.36.291z"/></g></svg>