<svg xmlns="http://www.w3.org/2000/svg" width="1em" height="1em" viewBox="0 0 72 72"><path fill="#fff" d="M35.97 3.452c-3 0-4.683 2.433-4.683 5.434v23.106h9.118l.25-23.106c0-3.001-1.683-5.434-4.684-5.434"/><path fill="#ea5a47" d="M40.566 47.498C44.092 49.327 47 53.004 47 57.243c0 6.061-4.925 10.975-11 10.975s-11-4.914-11-10.975c0-4.254 3.138-8.198 6.684-10.02l.09-18.52s7.571 1.436 8.773-1.144z"/><path fill="#d22f27" d="M37.042 29.403c1.692-.15 1.282-.33 3.485-1.241l.024 18.828c0 .557.182 1.104.535 1.539c2.168 2.67 5.252 5.211 5.252 9.091c0 5.994-4.99 10.037-10.431 10.037c0 0 10.103-7.61 1.692-16.586c-.356-.38-.551-1.23-.551-1.775z"/><g fill="none" stroke="#000" stroke-linecap="round" stroke-linejoin="round" stroke-width="2"><path d="M38.387 35.913c-.721.16-1.974.266-3.4.266c-2.236 0-4.049-.26-4.049-.582m7.449 8.013c-.721.16-1.974.266-3.4.266c-2.236 0-4.049-.26-4.049-.581m7.449-15.079c-.721.16-1.974.266-3.4.266c-2.236 0-4.049-.261-4.049-.582m7.449-7.382c-.721.16-1.974.266-3.4.266c-2.236 0-4.049-.26-4.049-.582"/><path d="M29.663 49.462c1.294-.963 1.276-2.236 1.276-2.236V8.639a5.082 5.082 0 1 1 10.165 0v38.587s.005 1.286 1.298 2.249a10.146 10.146 0 0 1 3.788 7.916c0 5.614-4.55 10.165-10.165 10.165S25.86 63.005 25.86 57.391c0-1.536.34-2.992.95-4.297"/><path d="M38.387 12.82c-.721.16-1.974.266-3.4.266c-2.236 0-4.049-.26-4.049-.581"/></g></svg>