<svg xmlns="http://www.w3.org/2000/svg" width="1em" height="1em" viewBox="0 0 72 72"><path fill="#9b9b9a" d="m53.213 6.21l-6.25 6s-5.875-3.125-12-3.125s-10.75 3-10.75 3L17.03 8.229l-2.703-.645l-1.45 2.096l-1.532 6.933s-.852 7.724 1.773 9.599s-2.41 15.597-2.41 15.597l3.636 5.818l5.083 4.62A41.807 41.807 0 0 0 24 55.856l.338.23s3.333 7.583 10.994 5.595c0 0 5.756 3.488 10.38-5.47l1.347-.808a25.15 25.15 0 0 0 2.227-1.504l4.678-3.536l6.124-8.028S56.72 31.93 57.47 28.43s2.867-9.39 2.617-11.14s-1.375-8.453-1.375-8.453s-1.875-4.75-5.5-2.625Z"/><path fill="#3f3f3f" d="M10.898 43.242c.657.975 2.11.906 2.666-.13c1.618-3.012 4.85-7.781 9.024-7.61l6.723-.37a1.561 1.561 0 0 1 1.359.655l1.535 2.161c.146.205.239.435.273.683c.151 1.09.505 4.335-.136 7.248c-.349 1.589.771 3.155 2.398 3.17c.679.006 1.414.065 2.188.204c.754.136 1.382-.573 1.13-1.296c-.66-1.898-1.392-5.188-.642-9.329c.054-.297.199-.576.406-.796l1.942-2.06c.311-.33.751-.508 1.205-.488l2.941.13c.063.003.125.01.187.02l3.152.525c.16.027.315.03.475.006c1.238-.18 7.342-.69 9.184 6.454c.334 1.294 2.044 1.585 2.795.48c.245-.36.33-.805.231-1.23l-2.598-11.245a1.56 1.56 0 0 1 .005-.722l.642-2.625l1.97-8.081c.052-.21.059-.427.022-.639l-1.233-7.06a1.56 1.56 0 0 0-.09-.316l-1.23-3.048a1.628 1.628 0 0 0-.19-.354a3.52 3.52 0 0 0-2.584-1.432l-1.19-.087a1.561 1.561 0 0 0-1.3.542l-3.654 4.274a1.561 1.561 0 0 1-.607.436l-.767.306c-.35.14-.738.149-1.094.025l-4.503-1.572a1.556 1.556 0 0 0-.402-.084l-8.73-.629a1.56 1.56 0 0 0-.61.078l-7.243 2.438a1.561 1.561 0 0 1-1.557-.333l-5.466-5.045a1.561 1.561 0 0 0-.95-.41l-1.37-.096a1.561 1.561 0 0 0-1.422.712l-1.618 2.514c-.099.153-.17.322-.21.499l-1.422 6.255c-.038.17-.048.344-.029.517l.719 6.532c.015.137.048.271.098.399l1.635 4.173c.105.268.134.56.083.844l-1.185 6.64a1.56 1.56 0 0 1-.044.185l-1.753 5.696c-.139.45-.066.94.198 1.332zm18.591 9.793s4.438-2.563 11.188.125l.062.812l-2.25 1.5l-.937 1.625s-1.313 1.25-2 1s-3-1.125-3-1.125l-.75-1.562l-2.625-1.438l.062-.875"/><path fill="#9b9b9a" d="M55.275 8.71s5.25 8.563.75 17.5c0 0-4.437-6.5-7.937-6.375c0 0 7.062-4.25 7.187-11.125m-40.552 0s-5.25 8.563-.75 17.5c0 0 4.437-6.5 7.937-6.375c0 0-7.062-4.25-7.187-11.125m14.454 53.366c.087 1.832.549 2.831 1.534 3.492c.587.395 1.293.574 2 .612l3.98.216c1.03.055 2.082-.2 2.878-.855c.917-.754 1.327-1.809 1.17-3.259z"/><circle cx="26.25" cy="40.275" r="2"/><circle cx="44.294" cy="40.511" r="2"/><path fill="none" stroke="#000" stroke-linecap="round" stroke-linejoin="round" stroke-width="2" d="m29.312 53.975l2.375 1.396s.49 2.966 3.27 2.748v3.562s-3.468 1.76-6.343-.53c-2.237-1.784-3.594-4.688-3.594-4.688m-3.281-3.125c-3.83-1.078-6.302-3.08-7.846-5.504L9.87 42.326c2.774-7.05 2.576-14.134 2.576-14.134c-4.708-8.667-1.625-17.459-1.625-17.459c2.032-6.629 5.156-5.88 6.327-5.314c.285.138.513.36.682.628c3.137 4.983 9.658 8.561 9.658 8.561"/><path fill="none" stroke="#000" stroke-linecap="round" stroke-linejoin="round" stroke-width="2" d="M15.614 9.213s.375 7.5 7.313 10.375c0 0-6.699 1.679-7.782 6.345m39.711-16.72s-.375 7.5-7.313 10.375c0 0 6.698 1.679 7.782 6.345M30.947 40.51s2.711-4.38-1.25-5.668c-2.791-.908-6.208 1.058-6.208 1.058m11.843 25.781s3.469 1.76 6.344-.53c2.237-1.784 3.594-4.688 3.594-4.688m-4.583-2.488l-2.791 1.396s-.157 2.966-2.938 2.748"/><path fill="none" stroke="#000" stroke-linecap="round" stroke-linejoin="round" stroke-width="2" d="M42.8 14.95s6.834-3.75 9.876-8.916c0 0 4.25-3.25 6.792 5.041c0 0 3.083 8.792-1.626 17.459c0 0-.067 7.318 2.63 13.792l-4.697 6.736c-1.56 2.022-3.871 3.674-7.224 4.617"/><path fill="none" stroke="#000" stroke-linecap="round" stroke-linejoin="round" stroke-width="2" d="M39.343 40.852s-2.711-4.38 1.25-5.668c2.791-.908 6.208 1.058 6.208 1.058m-22.113-24.79s7.953-5.578 21.352 0M31.353 65.869c2.72 1.485 5.29 1.353 7.75 0"/></svg>