<svg xmlns="http://www.w3.org/2000/svg" width="1em" height="1em" viewBox="0 0 72 72"><path fill="#6a462f" d="m11.044 30.533l-.25 28.425h8.878l2.753-22.217"/><path fill="#6a462f" d="m11.21 34.533l.5 24.175l7.089.25l2-18.425M59.064 52.31c2.775.039 5.907-.189 8.442-1.171c.708 6.525-.593 8.251-3.991 9.744c-5.663 2.487-19.568 1.292-23.336-1.49c-4.567-3.371-2.56-3.97-10.35-14.656c-6.188-8.49-18.7-13.928-18.7-13.928v-5.77s20.747 6.67 25.004 17.835c.799 2.093 2.815 3.437 4.305 4.88c0 0 7.278 4.396 18.626 4.556"/><path fill="#a57939" d="m41.343 57.587l4.022-20.846l12.73 2.53l-2.714 21.032"/><g fill="none" stroke="#000" stroke-linecap="round" stroke-linejoin="round" stroke-width="2"><path d="M11.21 34.533v24.425h7.839l2-18.425"/><path d="M59.497 53.177a35.022 35.022 0 0 0 8.009-2.038c.708 6.525-.593 8.251-3.991 9.744c-5.663 2.487-19.568 1.292-23.336-1.49c-4.567-3.371-2.56-3.97-10.35-14.656c-6.188-8.49-18.7-13.928-18.7-13.928v-5.77s20.747 6.67 25.004 17.835a14.485 14.485 0 0 0 3.483 5.294"/><path d="m41.752 56.773l3.613-20.032l12.73 2.53l-2.614 20.032"/></g></svg>