<svg xmlns="http://www.w3.org/2000/svg" width="1em" height="1em" viewBox="0 0 32 32"><g fill="currentColor"><path d="M19.5 8.5a3.5 3.5 0 1 1-7 0a3.5 3.5 0 0 1 7 0m-6.599 15.099a.25.25 0 0 1 .004-.342l.266-.277a.5.5 0 0 0-.015-.707l-1.083-1.038a.5.5 0 0 0-.707.015l-.59.615a2.25 2.25 0 0 0-.035 3.076l1.712 1.871a1.25 1.25 0 1 0 1.844-1.687zm6.161 0a.25.25 0 0 0-.004-.342l-.266-.277a.5.5 0 0 1 .015-.707l1.083-1.038a.5.5 0 0 1 .707.015l.59.615a2.25 2.25 0 0 1 .036 3.076l-1.712 1.871a1.25 1.25 0 1 1-1.845-1.687zm-6.318-10.306A1 1 0 0 1 13.45 13h5.098a1 1 0 0 1 .707.293l1.778 1.778l1.561-1.56l.015.014a1 1 0 0 1 1.389 1.389l.01.01l-.08.08a.997.997 0 0 1-.108.109l-2.08 2.08a1 1 0 0 1-1.414 0L19 15.864V17.5a.5.5 0 0 1-.5.5h-5a.5.5 0 0 1-.5-.5v-1.635l-1.327 1.327a1 1 0 0 1-1.414 0l-2.08-2.079a.996.996 0 0 1-.108-.108l-.08-.08l.01-.011a1 1 0 0 1 1.389-1.389l.015-.015l1.56 1.561zM19.5 19a.5.5 0 0 1 .5.5v.293a.5.5 0 0 1-.146.353l-1.561 1.561a1 1 0 0 1-.707.293h-3.172a1 1 0 0 1-.707-.293l-1.56-1.56a.5.5 0 0 1-.147-.354V19.5a.5.5 0 0 1 .5-.5z"/><path d="M6 1a5 5 0 0 0-5 5v20a5 5 0 0 0 5 5h20a5 5 0 0 0 5-5V6a5 5 0 0 0-5-5zM3 6a3 3 0 0 1 3-3h20a3 3 0 0 1 3 3v20a3 3 0 0 1-3 3H6a3 3 0 0 1-3-3z"/></g></svg>