<svg xmlns="http://www.w3.org/2000/svg" width="1em" height="1em" viewBox="0 0 32 32"><path fill="currentColor" d="M16 1c8.284 0 15 6.716 15 15c0 8.284-6.716 15-15 15c-8.284 0-15-6.716-15-15C1 7.716 7.716 1 16 1m-1.814 2.126l14.689 14.688a13.12 13.12 0 0 0 .089-2.79L16.975 3.037a13.187 13.187 0 0 0-2.789.09m-1.752.37c-.722.205-1.42.471-2.084.793l17.36 17.36c.322-.665.588-1.362.794-2.084zM26.95 23.01L8.99 5.05a13.05 13.05 0 0 0-1.637 1.242l18.355 18.355c.455-.511.87-1.058 1.242-1.637m-2.303 2.697L6.293 7.354A12.962 12.962 0 0 0 5.05 8.991l17.96 17.96a13.053 13.053 0 0 0 1.637-1.242m-2.996 2.004L4.289 10.35a12.911 12.911 0 0 0-.794 2.084l16.07 16.07c.723-.205 1.42-.471 2.085-.793m-3.837 1.164L3.126 14.186a13.113 13.113 0 0 0-.09 2.79l11.989 11.988a13.231 13.231 0 0 0 2.789-.09m-5.366-.366l-8.957-8.957a13.027 13.027 0 0 0 8.957 8.957m16.06-16.06a13.026 13.026 0 0 0-8.956-8.958z"/></svg>