<svg xmlns="http://www.w3.org/2000/svg" width="1em" height="1em" viewBox="0 0 32 32"><path fill="currentColor" d="M5 2a3 3 0 0 0-3 3v2h4a1 1 0 0 0 1-1V2zm4 0v4a1 1 0 0 0 1 1h12a1 1 0 0 0 1-1V2zm16 0v4a1 1 0 0 0 1 1h4V5a3 3 0 0 0-3-3zm5 7H18a1 1 0 0 0-1 1v4a1 1 0 0 0 1 1h12zm0 8h-4a1 1 0 0 0-1 1v4a1 1 0 0 0 1 1h4zm0 8H18a1 1 0 0 0-1 1v4h10a3 3 0 0 0 3-3zm-15 5v-4a1 1 0 0 0-1-1H2v2a3 3 0 0 0 3 3zM2 23h4a1 1 0 0 0 1-1v-4a1 1 0 0 0-1-1H2zm0-8h12a1 1 0 0 0 1-1v-4a1 1 0 0 0-1-1H2zm7 3a1 1 0 0 1 1-1h12a1 1 0 0 1 1 1v4a1 1 0 0 1-1 1H10a1 1 0 0 1-1-1z"/></svg>