<svg xmlns="http://www.w3.org/2000/svg" width="1em" height="1em" viewBox="0 0 32 32"><g fill="currentColor"><path d="M12 21a4 4 0 0 1 8 0v1a4 4 0 0 1-8 0zm0-7a2 2 0 1 0 0-4a2 2 0 0 0 0 4"/><path d="M5.5 11.5a5 5 0 1 0 10 0a5 5 0 0 0-10 0m5-4a4 4 0 1 1 0 8a4 4 0 0 1 0-8M20 14a2 2 0 1 0 0-4a2 2 0 0 0 0 4"/><path d="M16.5 11.5a5 5 0 1 1 10 0a5 5 0 0 1-10 0m5-4a4 4 0 1 0 0 8a4 4 0 0 0 0-8"/><path d="M4.763 5.423C7.313 2.654 11.095 1 16 1c4.904 0 8.686 1.654 11.235 4.423c2.537 2.755 3.764 6.515 3.764 10.576c0 4.061-1.227 7.82-3.764 10.576c-2.55 2.769-6.331 4.423-11.235 4.423c-4.904 0-8.686-1.654-11.236-4.423C2.226 23.82 1 20.06 1 15.999c0-4.061 1.226-7.821 3.763-10.576m1.472 1.355C4.105 9.089 3 12.328 3 15.998c0 3.671 1.106 6.91 3.235 9.222c2.116 2.298 5.333 3.778 9.764 3.778c4.43 0 7.648-1.48 9.764-3.778c2.129-2.311 3.235-5.55 3.235-9.221c0-3.67-1.106-6.91-3.235-9.221C23.647 4.48 20.43 3 16 3S8.352 4.48 6.236 6.778"/></g></svg>