<svg xmlns="http://www.w3.org/2000/svg" width="1em" height="1em" viewBox="0 0 32 32"><g fill="currentColor"><path d="M14.211 19a4.442 4.442 0 0 1-3.68 1.95c-.452 0-.889-.067-1.301-.192a.147.147 0 0 0-.19.138a1.104 1.104 0 0 1-2.209 0V20a1 1 0 0 1 1-1zm3.539 0a4.442 4.442 0 0 0 3.68 1.95c.452 0 .89-.067 1.302-.192c.093-.029.19.04.19.138a1.104 1.104 0 0 0 2.208 0V20a1 1 0 0 0-1-1zM10.016 7.404l.003-.016a.5.5 0 0 1 .986.165l-.493-.082l.493.083v.002l-.001.004l-.002.01a1.753 1.753 0 0 1-.033.151a4.498 4.498 0 0 1-.745 1.552c-.65.866-1.795 1.702-3.718 1.702a.5.5 0 0 1 0-1c1.583 0 2.44-.667 2.917-1.302a3.496 3.496 0 0 0 .575-1.194zm12.008 0l-.004-.016v-.001a.5.5 0 0 0-.986.166l.493-.082l-.493.083v.002l.001.004l.002.01a1.753 1.753 0 0 0 .034.151a4.494 4.494 0 0 0 .745 1.552c.65.866 1.794 1.702 3.717 1.702a.5.5 0 1 0 0-1c-1.583 0-2.44-.667-2.917-1.302a3.497 3.497 0 0 1-.575-1.194a1.791 1.791 0 0 1-.018-.075m-8.506 15.031a.75.75 0 0 0-1.003 1.115c.926.834 2.25 1.206 3.506 1.206c1.254 0 2.58-.372 3.506-1.206a.75.75 0 1 0-1.004-1.115c-.576.518-1.504.822-2.502.822c-.999 0-1.927-.304-2.503-.822m1.3-6.15c0 .619-.152 1.202-.42 1.715H7.834a3.701 3.701 0 1 1 6.982-1.715m-1.288.054c.546-.378.614-1.226.151-1.894c-.462-.669-1.28-.904-1.826-.527c-.546.378-.614 1.227-.151 1.895c.462.668 1.28.904 1.826.526M17.565 18h6.561a3.701 3.701 0 1 0-6.561 0m5.446-1.66c-.546.377-1.364.141-1.826-.527c-.463-.668-.395-1.517.151-1.895c.547-.377 1.364-.142 1.827.527c.462.668.394 1.516-.152 1.894"/><path d="M4.768 5.391C7.321 2.62 11.108.963 16.018.963s8.698 1.656 11.25 4.428c2.541 2.759 3.769 6.524 3.769 10.59c0 4.067-1.228 7.832-3.768 10.59C24.716 29.343 20.929 31 16.019 31S7.32 29.343 4.768 26.57C2.227 23.813 1 20.048 1 15.981c0-4.066 1.228-7.831 3.768-10.59M6.24 6.746C4.108 9.061 3 12.306 3 15.981c0 3.676 1.108 6.92 3.24 9.236C8.359 27.518 11.58 29 16.018 29c4.438 0 7.66-1.482 9.78-3.783c2.131-2.316 3.239-5.56 3.239-9.236c0-3.675-1.108-6.92-3.24-9.235c-2.12-2.301-5.341-3.783-9.779-3.783c-4.437 0-7.659 1.482-9.778 3.783"/></g></svg>