<svg xmlns="http://www.w3.org/2000/svg" width="1em" height="1em" viewBox="0 0 32 32"><path fill="currentColor" d="M4.125 3A3.125 3.125 0 0 0 1 6.125V14h.002a3.182 3.182 0 0 0-.002.125v13.802a3.125 3.125 0 0 0 3.125 3.125h23.75A3.125 3.125 0 0 0 31 27.928V14.125c0-.042 0-.084-.003-.125H31v-3.863a3.125 3.125 0 0 0-3.125-3.125H16.888c-.299 0-.585-.118-.796-.329l-2.477-2.475A4.121 4.121 0 0 0 10.699 3zM29 11.209A3.118 3.118 0 0 0 27.875 11H4.125A3.11 3.11 0 0 0 3 11.209V6.125C3 5.504 3.504 5 4.125 5h6.574c.564 0 1.104.224 1.502.622l2.477 2.476c.586.585 1.38.914 2.21.914h10.987c.622 0 1.125.504 1.125 1.125zM3 14.125C3 13.504 3.504 13 4.125 13h23.75c.622 0 1.125.504 1.125 1.125v13.802c0 .622-.503 1.125-1.125 1.125H4.125A1.125 1.125 0 0 1 3 27.928z"/></svg>