<svg xmlns="http://www.w3.org/2000/svg" width="1em" height="1em" viewBox="0 0 32 32"><path fill="currentColor" d="M5.67 1A4.666 4.666 0 0 0 1 5.67v20.66A4.666 4.666 0 0 0 5.67 31h20.66A4.666 4.666 0 0 0 31 26.33V5.67A4.666 4.666 0 0 0 26.33 1zM3 5.67A2.666 2.666 0 0 1 5.67 3h2.62a13.096 13.096 0 0 1 3.013 3.587a12.385 12.385 0 0 0-3.29 2.688A11.56 11.56 0 0 0 5.5 9c-.862 0-1.697.099-2.5.28zm14.34-.66c-.155 0-.309.003-.462.009A12.539 12.539 0 0 1 18.998 3h7.332A2.666 2.666 0 0 1 29 5.67v7.65c-1.667-4.836-6.258-8.31-11.66-8.31m0 2c5.36 0 9.767 4.082 10.28 9.308a9.011 9.011 0 0 0-5.067 3.625a11.939 11.939 0 0 0-5.82-1.921a11.52 11.52 0 0 0-6.622-8.06A10.294 10.294 0 0 1 17.34 7.01m-2.653 11.061c-5.508.6-9.904 4.93-10.593 10.416A2.664 2.664 0 0 1 3 26.33V11.342A9.328 9.328 0 0 1 5.5 11c4.408 0 8.115 3 9.187 7.071M6.05 29c.5-5.054 4.77-9 9.951-9a9.995 9.995 0 0 1 9.951 9zm21.857-.513a11.965 11.965 0 0 0-3.77-7.312A6.998 6.998 0 0 1 29 18.071v8.259c0 .888-.43 1.672-1.094 2.157"/></svg>