<svg xmlns="http://www.w3.org/2000/svg" width="1em" height="1em" viewBox="0 0 32 32"><path fill="currentColor" d="M15.008 30.722a1.485 1.485 0 0 0 1.059.34a1.524 1.524 0 0 0 1.009-.476l13.478-14.271a1.522 1.522 0 0 0 .341-1.203v-.008a1.424 1.424 0 0 0-.279-.677c-.039-.056-.89-1.192-1.89-2.525l-.334-.447l-1.033-1.375l-.438-.585c-.76-1.014-1.351-1.802-1.4-1.87a.796.796 0 0 0-.1-.125a1.53 1.53 0 0 0-1.211-.6H7.773a1.545 1.545 0 0 0-1.2.606l-5.19 6.852a2.507 2.507 0 0 0-.128.178a1.42 1.42 0 0 0 .174 1.83l13.427 14.212c.029.032.118.115.152.144M3.659 15.812h6.407l4.595 11.641zm7.514-1l4.26-5.912h1.049l4.259 5.913zm-.032 1h9.632l-4.816 12.201zm10.707 0h6.435L17.228 27.519zm6.902-.494l.025-.026a9.76 9.76 0 0 1-.025-.034zm-.334-.505h-6.443L17.713 8.9h6.264l1.783 2.379l1.036 1.373l.36.48zm-18.475 0H3.544L8.026 8.9H14.2z"/></svg>