<svg xmlns="http://www.w3.org/2000/svg" width="1em" height="1em" viewBox="0 0 32 32"><g fill="currentColor"><path d="m16.685 7.603l-1.6-1.18a.788.788 0 0 1-.17-1.11c.26-.36.76-.43 1.11-.17l1.6 1.18c.36.26.43.76.17 1.11c-.26.36-.76.43-1.11.17m-4.93 1.12l-1.18 1.6c-.26.34-.19.84.16 1.1c.36.26.85.19 1.11-.16l1.18-1.6c.26-.35.19-.85-.17-1.11a.778.778 0 0 0-1.1.17m11.29 3.86l-.92-1.76a.794.794 0 0 0-1.41.73l.92 1.76a.794.794 0 0 0 1.41-.73m-10.18 4.119l-.81-1.81a.795.795 0 0 1 1.45-.65l.81 1.81a.795.795 0 0 1-1.45.65m-4.94-1.089l-1.76.92a.794.794 0 0 0 .73 1.41l1.76-.92c.39-.2.54-.68.34-1.07a.8.8 0 0 0-1.07-.34m18.54 3.06l-1.6-1.18a.788.788 0 0 0-1.11.17c-.26.35-.19.85.17 1.11l1.6 1.18c.35.26.85.19 1.11-.17c.25-.35.18-.85-.17-1.11m-6.24-1.92l-1.98.14c-.44.03-.82-.3-.85-.73c-.04-.44.29-.82.73-.85l1.98-.14c.44-.04.82.29.85.73c.04.44-.29.82-.73.85m5.87 6.54l-1.46 1.35a.791.791 0 1 1-1.08-1.16l1.46-1.35a.791.791 0 1 1 1.08 1.16m-18.61-2.19l1 1.72a.8.8 0 0 1-.3 1.08c-.38.22-.86.09-1.08-.29l-.99-1.72a.788.788 0 0 1 .29-1.08c.38-.22.86-.09 1.08.29m8.39-10.49l1.82.78c.4.18.59.64.42 1.04a.79.79 0 0 1-1.04.42l-1.82-.78a.79.79 0 0 1-.42-1.04a.79.79 0 0 1 1.04-.42"/><path d="M21.736 29h.491a7.768 7.768 0 0 0 6.719-11.66L22.152 5.56a7.1 7.1 0 0 0-12.309 0L3.049 17.342A7.772 7.772 0 0 0 9.769 29h.495c.55.614 1.348 1 2.236 1h7a2.99 2.99 0 0 0 2.236-1m.764-2.007V19a1 1 0 0 0-1-1h-11a1 1 0 0 0-1 1v7.993a5.77 5.77 0 0 1-4.718-8.652l6.794-11.783a5.1 5.1 0 0 1 8.844 0l6.794 11.783a5.77 5.77 0 0 1-4.714 8.652"/></g></svg>