<svg xmlns="http://www.w3.org/2000/svg" width="1em" height="1em" viewBox="0 0 32 32"><path fill="currentColor" d="M6.256 1.972a3.203 3.203 0 0 1 4.546.003l.002.002L30.05 21.223a3.203 3.203 0 0 1-.002 4.546l-.002.002l-4.292 4.292l-.003.002a3.212 3.212 0 0 1-4.546.012l-19.26-19.26a3.203 3.203 0 0 1 .003-4.546zm2.871 1.215a1.206 1.206 0 0 0-1.457.2L3.356 7.691a1.203 1.203 0 0 0 .004 1.712l19.26 19.26a1.212 1.212 0 0 0 1.711-.006l.004-.004l4.3-4.3l.005-.004c.338-.335.437-.822.288-1.249l-1.424 1.424a.5.5 0 0 1-.708-.707l1.51-1.51l-1.766-1.765l-.76.786a.5.5 0 0 1-.72-.695l.773-.798l-1.64-1.64l-1.51 1.51a.5.5 0 0 1-.707-.708l1.51-1.51l-1.726-1.725l-.76.786a.5.5 0 0 1-.72-.695l.773-.798l-1.64-1.64l-1.51 1.51a.5.5 0 0 1-.707-.708l1.51-1.51l-1.71-1.709l-.77.783a.5.5 0 0 1-.712-.701l.776-.789l-1.647-1.646l-1.51 1.51a.5.5 0 0 1-.707-.708l1.51-1.51l-1.717-1.717l-.761.78a.5.5 0 0 1-.716-.699l.77-.788l-1.649-1.648l-1.51 1.51a.5.5 0 1 1-.707-.708z"/></svg>