<svg xmlns="http://www.w3.org/2000/svg" width="1em" height="1em" viewBox="0 0 32 32"><g fill="currentColor"><path d="m15.579 11.636l-1.023 1.741a.422.422 0 0 0 .146.57a.39.39 0 0 0 .202.053h1.942a.39.39 0 0 0 .203-.054a.407.407 0 0 0 .201-.36a.422.422 0 0 0-.056-.209l-1.023-1.74a.4.4 0 0 0-.296-.137a.388.388 0 0 0-.296.136M4 16a1 1 0 0 1 1-1h1.528A5.978 5.978 0 0 0 5 19c0 1.537.578 2.939 1.528 4H5a1 1 0 0 1-1-1zm7 0a1 1 0 0 0-.67-.944a4.001 4.001 0 0 0 0 7.888A1 1 0 0 0 11 22v-1a2 2 0 1 1 0-4zm17 0a1 1 0 0 0-1-1h-1.528A5.978 5.978 0 0 1 27 19a5.978 5.978 0 0 1-1.528 4H27a1 1 0 0 0 1-1zm-7 0a1 1 0 0 1 .67-.944a4.001 4.001 0 0 1 0 7.888A1 1 0 0 1 21 22v-1a2 2 0 1 0 0-4zm-9 0a1 1 0 0 1 1-1h6a1 1 0 0 1 1 1v6a1 1 0 0 1-1 1h-6a1 1 0 0 1-1-1zm1.5 2a.5.5 0 0 0 0 1h5a.5.5 0 0 0 0-1zm0 2a.5.5 0 0 0 0 1h5a.5.5 0 0 0 0-1z"/><path d="M5 9a4 4 0 0 0-4 4v14a4 4 0 0 0 4 4h22a4 4 0 0 0 4-4V13a4 4 0 0 0-4-4zm-2 4a2 2 0 0 1 2-2h22a2 2 0 0 1 2 2v13.236A2.989 2.989 0 0 1 27 27H5a2.99 2.99 0 0 1-2-.764z"/></g></svg>