<svg xmlns="http://www.w3.org/2000/svg" width="1em" height="1em" viewBox="0 0 512 512"><path fill="currentColor" d="M255.967 8c-14.421 0-28.906 3.167-39.9 9.51L69.403 102.207c-21.987 12.675-39.899 43.754-39.899 69.084v169.42c0 25.336 17.912 56.425 39.899 69.093l146.666 84.715c10.993 6.324 25.478 9.482 39.898 9.482c14.486 0 28.906-3.158 39.9-9.482l146.732-84.715c21.922-12.668 39.899-43.757 39.899-69.093V171.29c0-25.33-17.977-56.41-39.9-69.084L295.867 17.511C284.872 11.167 270.452 8 255.966 8m25.993 106.596c11.446 0 21.216 6.111 26.324 15.365l-14.161 3.723c-2.651-3.305-7.572-5.371-12.163-5.371c-9.57 0-15.516 6.856-15.516 16.369c0 9.99 6.527 16.188 15.516 16.188c5.561 0 10.87-2.808 13.262-6.773l14.029 3.638c-4.786 10.243-15.134 17.022-27.291 17.022c-16.555 0-29.943-12.641-29.943-30.075c0-17.448 13.388-30.086 29.943-30.086m-82.773 2.255H246.2v12.475h-16.947v43.167h-13.32v-43.167h-16.747Zm155.95 80.792c4.235 0 8.469 1.602 11.67 4.813l17.846 17.827c6.402 6.428 6.402 16.929 0 23.35L228.221 400.094c-6.467 6.415-16.939 6.415-23.34 0l-68.934-68.914c-6.402-6.415-5.044-18.277 0-23.34l17.847-17.828c6.402-6.428 16.874-6.428 23.34 0l27.746 27.726c6.402 6.415 16.874 6.415 23.341 0l115.236-115.282c3.2-3.211 7.444-4.813 11.68-4.813"/></svg>