<svg xmlns="http://www.w3.org/2000/svg" width="1em" height="1em" viewBox="0 0 40 40"><path fill="currentColor" d="M26.554 35.436H1.786a1.413 1.413 0 0 1-1.411-1.411V4.987c0-.777.633-1.41 1.411-1.41h34.698c.777 0 1.41.633 1.41 1.41V29.13a.5.5 0 0 1-1 0V4.987a.41.41 0 0 0-.41-.41H1.786a.41.41 0 0 0-.411.41v29.038c0 .226.184.411.411.411h24.768a.5.5 0 0 1 0 1"/><path fill="currentColor" d="M17.729 35.436a.5.5 0 0 1-.5-.5V4.077a.5.5 0 0 1 1 0v30.859a.5.5 0 0 1-.5.5m-9.559 0a.5.5 0 0 1-.5-.5V4.077a.5.5 0 0 1 1 0v30.859c0 .277-.223.5-.5.5m18.384-7.316a.5.5 0 0 1-.5-.5V4.077a.5.5 0 0 1 1 0V27.62a.5.5 0 0 1-.5.5"/><path fill="currentColor" d="M37.312 9.404H1.188a.5.5 0 0 1 0-1h36.125a.5.5 0 1 1-.001 1m-.349 5.292H1.188a.5.5 0 0 1 0-1h35.775a.5.5 0 0 1 0 1m-10.409 5.293H1.188a.5.5 0 0 1 0-1h25.366a.5.5 0 0 1 0 1m-.465 5.263H.875a.5.5 0 0 1 0-1h25.214a.5.5 0 0 1 0 1m-4.629 5.256H.875a.5.5 0 0 1 0-1H21.46a.5.5 0 0 1 0 1m9.921 7.089a.504.504 0 0 1-.354-.146l-7.701-7.702a.5.5 0 0 1 .707-.707l7.348 7.349l7.328-7.329a.5.5 0 0 1 .707.707l-7.682 7.683a.503.503 0 0 1-.353.145"/><path fill="currentColor" d="M31.381 37.597a.5.5 0 0 1-.5-.5V16.485a.5.5 0 0 1 1 0v20.611a.5.5 0 0 1-.5.501M.982 4.295h7.055v4.406H.982z"/></svg>