<svg xmlns="http://www.w3.org/2000/svg" width="1em" height="1em" viewBox="0 0 40 40"><path fill="currentColor" d="M24.758 28.065c-6.73 0-12.204-5.475-12.204-12.205c0-6.731 5.475-12.207 12.204-12.207c6.729 0 12.204 5.476 12.204 12.207c0 6.73-5.475 12.205-12.204 12.205m0-23.532c-6.245 0-11.325 5.082-11.325 11.328c0 6.245 5.08 11.326 11.325 11.326s11.325-5.081 11.325-11.326c0-6.246-5.08-11.328-11.325-11.328"/><path fill="currentColor" d="M34.169 16.3a.44.44 0 0 1-.44-.44c0-4.948-4.025-8.974-8.972-8.974a.44.44 0 0 1 0-.88c5.432 0 9.851 4.42 9.851 9.853a.439.439 0 0 1-.439.441M3.478 36.346a.44.44 0 0 1-.291-.769l13.116-11.548a.44.44 0 0 1 .582.659L3.768 36.236a.436.436 0 0 1-.29.11"/></svg>