<svg xmlns="http://www.w3.org/2000/svg" width="1em" height="1em" viewBox="0 0 22 22"><path fill="currentColor" d="M3 15h1v-1H3m4 1h1v-1H7m10 1h1v-1h-1M2 17H1v-1h1m4 1H5v-1h1m14 1h-1v-1h1m-6 2h1v-1h-1m-7 2h1v-1H7m10 2h-1v-1h1M6 21H5v-1h1m2 2H7v-1h1v-1H7v-1H6v-1h1v-1h1v-1H7v-1H6v-1H5v1H4v1H3v-1H2v-1H1v1H0v-1h1v-1h1v1h1v-1h1v1h1v-1h1v1h1v-1h1v1h1v1H8v1h1v1H8v1h1v1H8v1h1v1H8m4 1h-2V12H0v-2h10V0h2v10h10v2H12m4 10h-1v-1h-1v1h-1v-1h1v-1h-1v-1h1v-1h-1v-1h1v-1h-1v-1h1v-1h-1v-1h1v1h1v-1h1v1h1v-1h1v1h1v-1h1v1h1v-1h1v1h-1v1h1v1h-1v-1h-1v-1h-1v1h-1v1h-1v-1h-1v-1h-1v1h-1v1h1v1h1v1h-1v1h-1v1h1v1h1Z"/></svg>