<svg xmlns="http://www.w3.org/2000/svg" width="1em" height="1em" viewBox="0 0 22 22"><path fill="currentColor" d="M17 2h-1V1h1M6 3H5V2h1m8 2h1V3h-1M7 5h1V4H7m10 2h-1V5h1m4 1h-1V5h1M6 7H5V6h1m8 2h1V7h-1m4 1h1V7h-1m3 2h-1V8h-1v1h-1V8h-1v1h-1V8h-1v1h-1V8h-1V7h1V6h-1V5h1V4h-1V3h1V2h-1V1h1V0h1v1h-1v1h1v1h1v1h-1v1h-1v1h1v1h1v1h1V7h1V6h1v1h1v1h1V7h1v1h-1M7 9h1V8H7m-1 4H5v-1h1m1 4h1v-1H7m10 1h1v-1h-1M6 17H5v-1h1m14 1h-1v-1h1m-6 2h1v-1h-1m-7 2h1v-1H7m10 2h-1v-1h1M6 21H5v-1h1m2 2H7v-1h1v-1H7v-1H6v-1h1v-1h1v-1H7v-1H6v-1h1v-1h1v-1H7v-1h1v-1H7V9H6V8h1V7h1V6H7V5H6V4h1V3h1V2H7V1H6V0h1v1h1V0h1v1H8v1h1v1H8v1h1v1H8v1h1v1H8v1h1v1H8v1h1v1H8v1h1v1H8v1h1v1H8v1h1v1H8v1h1v1H8v1h1v1H8m4 1h-2V0h2v10h10v2H12m4 10h-1v-1h-1v1h-1v-1h1v-1h-1v-1h1v-1h-1v-1h1v-1h-1v-1h1v-1h-1v-1h1v1h1v-1h1v1h1v-1h1v1h1v-1h1v1h1v-1h1v1h-1v1h1v1h-1v-1h-1v-1h-1v1h-1v1h-1v-1h-1v-1h-1v1h-1v1h1v1h1v1h-1v1h-1v1h1v1h1Z"/></svg>