<svg xmlns="http://www.w3.org/2000/svg" width="1em" height="1em" viewBox="0 0 22 22"><path fill="currentColor" d="M9 9h1V2H3v1h1v1h1v1h1v1h1v1h1v1h1m4 5h1v-1h-1m2 1h1v-1h-1m2 1h1v-1h-1m2 1h1v-1h-1m-5 2h1v-1h-1m2 1h1v-1h-1m2 1h1v-1h-1m-3 2h1v-1h-1m2 1h1v-1h-1m2 1h1v-1h-1m-5 3h-1v-1h1m2 0h1v-1h-1m2 1h1v-1h-1m-1 2h1v-1h-1m2 1h1v-1h-1m-5 3h-1v-1h1m2 1h-1v-1h1m2 0h1v-1h-1M2 19h1v-1h1v-1h1v-1h1v-1h1v-1h1v-1h1v-1H2m17 7h1v-1h-1m3 4H0V0h22v2h-2v8h2m-9 0V2h-2v8m5 0V2h-2v8m5 0V2h-2v8m-7 1v-1H9V9H8V8H7V7H6V6H5V5H4V4H3V3H2v8m9 9v-8h-1v1H9v1H8v1H7v1H6v1H5v1H4v1H3v1m16 0v-1h-1v-1h-1v-1h-1v-1h-1v-1h-1v-1h-1v-1h-1v7Z"/></svg>