<svg xmlns="http://www.w3.org/2000/svg" width="1em" height="1em" viewBox="0 0 22 22"><path fill="currentColor" d="M9 9h1V2H8v1H6v1H5v1h1v1h1v1h1v1h1m4 5h1v-1h-1m2 1h1v-1h-1m2 1h1v-1h-1m2 1h1v-1h-1m-5 2h1v-1h-1m2 1h1v-1h-1m2 1h1v-1h-1m-3 2h1v-1h-1m2 1h1v-1h-1m-1 2h1v-1h-1m2 1h1v-1h-1M4 17h1v-1h1v-1h1v-1h1v-1h1v-1H2v2h1v2h1m11 2h-1v-1h-1v-1h1v1h1m2 0h1v-1h-1m-3 6H8v-1H5v-1H4v-1H3v-1H2v-1H1v-3H0V8h1V5h1V4h1V3h1V2h1V1h3V0h14v2h-2v8h2v4h-1v3h-1v1h-1v1h-1v1h-1v1h-3m-1-11V2h-2v8m5 0V2h-2v8m5 0V2h-2v8m-7 1v-1H9V9H8V8H7V7H6V6H5V5H4v1H3v2H2v3m9 9v-8h-1v1H9v1H8v1H7v1H6v1H5v1h1v1h2v1m6 0v-1h2v-1h1v-1h-1v-1h-1v-1h-1v-1h-1v-1h-1v7Z"/></svg>