<svg xmlns="http://www.w3.org/2000/svg" width="1em" height="1em" viewBox="0 0 24 24"><path fill="currentColor" d="M15.5 8.25h-7c-.28 0-.5-.22-.5-.5v-1.5c0-.28.22-.5.5-.5h7c.28 0 .5.22.5.5v1.5c0 .28-.22.5-.5.5m.5 3v-1c0-.28-.22-.5-.5-.5h-1c-.28 0-.5.22-.5.5v1c0 .28.22.5.5.5h1c.28 0 .5-.22.5-.5m-6 0v-1c0-.28-.22-.5-.5-.5h-1c-.28 0-.5.22-.5.5v1c0 .28.22.5.5.5h1c.28 0 .5-.22.5-.5m3 0v-1c0-.28-.22-.5-.5-.5h-1c-.28 0-.5.22-.5.5v1c0 .28.22.5.5.5h1c.28 0 .5-.22.5-.5m3 3.25v-1c0-.28-.22-.5-.5-.5h-1c-.28 0-.5.22-.5.5v1c0 .28.22.5.5.5h1c.28 0 .5-.22.5-.5m-6 0v-1c0-.28-.22-.5-.5-.5h-1c-.28 0-.5.22-.5.5v1c0 .28.22.5.5.5h1c.28 0 .5-.22.5-.5m3 0v-1c0-.28-.22-.5-.5-.5h-1c-.28 0-.5.22-.5.5v1c0 .28.22.5.5.5h1c.28 0 .5-.22.5-.5m3 3.25v-1c0-.28-.22-.5-.5-.5h-1c-.28 0-.5.22-.5.5v1c0 .28.22.5.5.5h1c.28 0 .5-.22.5-.5m-3 0v-1c0-.28-.22-.5-.5-.5h-4c-.28 0-.5.22-.5.5v1c0 .28.22.5.5.5h4c.28 0 .5-.22.5-.5m6.25 1.75v-15c0-1.24-1.01-2.25-2.25-2.25H7c-1.24 0-2.25 1.01-2.25 2.25v15c0 1.24 1.01 2.25 2.25 2.25h10c1.24 0 2.25-1.01 2.25-2.25M17 3.75c.41 0 .75.34.75.75v15c0 .41-.34.75-.75.75H7c-.41 0-.75-.34-.75-.75v-15c0-.41.34-.75.75-.75z"/></svg>