<svg xmlns="http://www.w3.org/2000/svg" width="1em" height="1em" viewBox="0 0 24 24"><path fill="currentColor" d="M8.38 19.75a.75.75 0 0 1-.54-.22L5.34 17a.75.75 0 0 1 0-1.06a.77.77 0 0 1 1.07 0l2 2l2-2a.77.77 0 0 1 1.07 0a.75.75 0 0 1 0 1.06l-2.5 2.5a.74.74 0 0 1-.6.25"/><path fill="currentColor" d="M8.38 19.75a.76.76 0 0 1-.76-.75V5a.76.76 0 0 1 .76-.75a.75.75 0 0 1 .74.75v14a.75.75 0 0 1-.74.75m8.74-8.5a.75.75 0 0 1-.74-.75V6.44l-.38.22a.75.75 0 0 1-.73-1.32l.65-.34a1.19 1.19 0 0 1 1.22-.11a1.29 1.29 0 0 1 .74 1.18v4.43a.76.76 0 0 1-.76.75m-.5 6A2.25 2.25 0 1 1 18.88 15a2.24 2.24 0 0 1-2.26 2.25m0-3a.75.75 0 0 0 0 1.5a.75.75 0 1 0 0-1.5"/><path fill="currentColor" d="M16.11 19.25h-.49a.75.75 0 0 1 0-1.5h.49a1.28 1.28 0 0 0 1.25-1.19V15a.75.75 0 0 1 .74-.75a.76.76 0 0 1 .76.75v1.64a2.79 2.79 0 0 1-2.75 2.61"/></svg>