<svg xmlns="http://www.w3.org/2000/svg" width="1em" height="1em" viewBox="0 0 24 24"><path fill="currentColor" d="M21 6c0-1.654-1.346-3-3-3a2.993 2.993 0 0 0-2.815 2h-6.37A2.993 2.993 0 0 0 6 3C4.346 3 3 4.346 3 6c0 1.302.839 2.401 2 2.815v6.369A2.997 2.997 0 0 0 3 18c0 1.654 1.346 3 3 3a2.993 2.993 0 0 0 2.815-2h6.369a2.994 2.994 0 0 0 2.815 2c1.654 0 3-1.346 3-3a2.997 2.997 0 0 0-2-2.816V8.816A2.996 2.996 0 0 0 21 6m-3-1a1.001 1.001 0 1 1-1 1c0-.551.448-1 1-1m-2.815 12h-6.37A2.99 2.99 0 0 0 7 15.184V8.816A2.99 2.99 0 0 0 8.815 7h6.369A2.99 2.99 0 0 0 17 8.815v6.369A2.99 2.99 0 0 0 15.185 17M6 5a1.001 1.001 0 1 1-1 1c0-.551.448-1 1-1m0 14a1.001 1.001 0 0 1 0-2a1.001 1.001 0 0 1 0 2m12 0a1.001 1.001 0 0 1 0-2a1.001 1.001 0 0 1 0 2"/></svg>