<svg xmlns="http://www.w3.org/2000/svg" width="1.07em" height="1em" viewBox="0 0 34 32"><g fill="currentColor"><path d="M34 30.5v-19a.5.5 0 0 0-1 0v19a.5.5 0 0 1-.5.5h-31a.5.5 0 0 1-.5-.5v-19a.5.5 0 0 0-1 0v19c0 .827.673 1.5 1.5 1.5h31c.827 0 1.5-.673 1.5-1.5"/><path d="M4.5 23a.5.5 0 0 0 0 1H6v3.5a.5.5 0 0 0 1 0V24h6v3.5a.5.5 0 0 0 1 0V24h6v3.5a.5.5 0 0 0 1 0V24h6v3.5a.5.5 0 0 0 1 0V24h1.5a.5.5 0 0 0 0-1H28v-5h1.5a.5.5 0 0 0 0-1H28v-4.5a.5.5 0 0 0-1 0V17h-6v-4.5a.5.5 0 0 0-1 0V17h-6v-4.5a.5.5 0 0 0-1 0V17H7v-4.5a.5.5 0 0 0-1 0V17H4.5a.5.5 0 0 0 0 1H6v5zM27 18v5h-6v-5zm-7 0v5h-6v-5zM7 18h6v5H7zM28.5 3h4.25c.087 0 .25 0 .25.5V8H1V3.5a.5.5 0 0 1 .5-.5h4a.5.5 0 0 0 0-1h-4C.673 2 0 2.673 0 3.5v5a.5.5 0 0 0 .5.5h33a.5.5 0 0 0 .5-.5v-5c0-1.106-.646-1.5-1.25-1.5H28.5a.5.5 0 0 0 0 1"/><path d="M22.5 3a.5.5 0 0 0 0-1h-11a.5.5 0 0 0 0 1zM9 4.5v-4a.5.5 0 0 0-1 0v4a.5.5 0 0 0 1 0m16.5.5a.5.5 0 0 0 .5-.5v-4a.5.5 0 0 0-1 0v4a.5.5 0 0 0 .5.5"/></g></svg>