<svg xmlns="http://www.w3.org/2000/svg" width="1em" height="1em" viewBox="0 0 32 32"><g fill="currentColor"><path d="M16-.034C7.159-.034-.035 7.158-.035 16S7.159 32.034 16 32.034S32.035 24.842 32.035 16S24.841-.034 16-.034m0 31C7.748 30.966 1.035 24.252 1.035 16S7.748 1.034 16 1.034S30.965 7.748 30.965 16S24.252 30.966 16 30.966"/><path d="M10.5 16.5c1.103 0 2-.897 2-2s-.897-2-2-2s-2 .897-2 2s.897 2 2 2m0-3a1.001 1.001 0 1 1-1 1c0-.552.449-1 1-1m11 3c1.103 0 2-.897 2-2s-.897-2-2-2s-2 .897-2 2s.897 2 2 2m0-3a1.001 1.001 0 1 1-1 1c0-.552.449-1 1-1m1.323 8.575a8.995 8.995 0 0 1-6.588 2.891a8.977 8.977 0 0 1-6.656-2.967a.535.535 0 0 0-.794.717a10.053 10.053 0 0 0 7.45 3.318c2.788 0 5.476-1.179 7.373-3.234a.534.534 0 1 0-.785-.725"/></g></svg>