<svg xmlns="http://www.w3.org/2000/svg" width="0.88em" height="1em" viewBox="0 0 28 32"><path fill="currentColor" d="M14 0C8.486 0 4 4.486 4 10v3H2.5A2.503 2.503 0 0 0 0 15.5v14C0 30.878 1.122 32 2.5 32h23c1.378 0 2.5-1.122 2.5-2.5v-14c0-1.378-1.122-2.5-2.5-2.5H24v-3c0-5.514-4.486-10-10-10M5 10c0-4.962 4.038-9 9-9s9 4.038 9 9v3h-3v-3c0-3.309-2.691-6-6-6s-6 2.691-6 6v3H5zm14 3H9v-3c0-2.757 2.243-5 5-5s5 2.243 5 5zm-6.707 8l-5 5H2.707l5-5zm6 0l-5 5H8.707l5-5zm6 0l-5 5h-4.586l5-5zM27 21v5h-6.293l5-5zM1.293 26H1v-5h5.293zM25.5 31h-23c-.827 0-1.5-.673-1.5-1.5V27h26v2.5c0 .827-.673 1.5-1.5 1.5M27 15.5V20H1v-4.5c0-.827.673-1.5 1.5-1.5h23c.827 0 1.5.673 1.5 1.5"/></svg>