<svg xmlns="http://www.w3.org/2000/svg" width="1em" height="1em" viewBox="0 0 32 32"><g fill="none" fill-rule="evenodd"><circle cx="16" cy="16" r="16" fill="#347FFB" fill-rule="nonzero"/><path fill="#FFF" d="m19.7 13.055l-2.869 7.75l-.018.047l-.526-1.055l-1.1.5l2.885-7.797l1.1-.5zm7.18.183L24.012 21l-.527-1.058l-1.1.5l.067-.182l2.867-7.76l1.1-.5l.525 1.055zm-6.14 6.712l1.689-4.563l-1.103.5l-.524-1.057l-1.694 4.562l.525 1.058zm-9.137-4.5H6.558l.86.8l-.86.813h5.04l.856-.813zM5.86 18.833h8.155l-.857.807l.857.805H5.86L5 19.64zm2.501-6.768h8.15l-.854.808l.855.805h-8.15l-.86-.806l.86-.807z"/></g></svg>