<svg xmlns="http://www.w3.org/2000/svg" width="1em" height="1em" viewBox="0 0 32 32"><g fill="none" fill-rule="evenodd"><circle cx="16" cy="16" r="16" fill="#005FFA" fill-rule="nonzero"/><path fill="#FFF" d="M20.694 14.598a3.407 3.407 0 0 0-1.41-.305h-4.917a1.71 1.71 0 0 1-1.71-1.71v-5.89H9.239v7.6a3.42 3.42 0 0 0 3.42 3.42h4.916a1.71 1.71 0 0 1 1.71 1.71v5.89h3.419v-7.6a3.419 3.419 0 0 0-2.01-3.115M9.356 19.803v5.744h3.42v-2.325a3.42 3.42 0 0 0-3.42-3.419M19.88 6.929h-.714v2.325a3.42 3.42 0 0 0 3.42 3.42V6.928H19.88z"/></g></svg>