<svg xmlns="http://www.w3.org/2000/svg" width="1em" height="1em" viewBox="0 0 32 32"><g fill="none" fill-rule="evenodd"><circle cx="16" cy="16" r="16" fill="#384182"/><path fill="#FFF" d="m9.5 27l3.618-16.789l2.03 12.6zm3.688-16.885l5.497 12.709l-3.443-.06l-2.054-12.65zm.082-.096l7.2 1.023l-1.668 11.782zm5.66 12.624l1.623-11.493l1.062 1.348zm1.517-11.71l-7.026-.999l6.326-2.082zm-7.06-1.107l4.306-2.985l2.054.903zm-.106-.036l.83-1.589l3.512-1.408zm.83-1.66l.396-1.24l2.894-.097l-3.29 1.336zm.373-1.337l.933-.999l2.008.903zm.992-1.059l1.4-.686l1.81 2.118zm1.599-.602l2.089.915l-.374 1.131zm1.785 2.082l.385-1.155l.467 1.589zM16.923 5h1.529l.757.842a.048.048 0 0 1-.054.076zm2.416.963l3.11.868a.072.072 0 0 1 0 .14l-2.643.725z"/></g></svg>