<svg xmlns="http://www.w3.org/2000/svg" width="1em" height="1em" viewBox="0 0 24 24"><path fill="currentColor" d="M6.77 10.192v4.058q0 .19.125.316q.126.126.317.126q.19 0 .316-.126t.126-.316v-4.5q0-.19-.126-.316t-.316-.126H5.827q-.19 0-.316.126t-.126.316t.126.316q.126.126.316.126zm3.115 4.5h2.346q.329 0 .549-.22q.22-.22.22-.549v-3.846q0-.329-.22-.55q-.22-.22-.55-.22H9.886q-.33 0-.55.22q-.22.221-.22.55v3.846q0 .329.22.55q.22.22.55.22m.115-.885v-3.616h2.115v3.616zm5.329-1.481l2.16 2.225q.05.056.324.14q.297 0 .41-.268q.114-.268-.085-.484l-1.944-1.978l1.964-1.947q.198-.196.075-.452q-.123-.255-.4-.255q-.08 0-.162.036q-.083.037-.144.104l-2.198 2.187V9.75q0-.19-.126-.316t-.316-.126q-.19 0-.317.126q-.126.126-.126.316v4.5q0 .19.126.316t.317.126q.19 0 .316-.126t.126-.316zM5.615 20q-.69 0-1.152-.462Q4 19.075 4 18.385V5.615q0-.69.463-1.152Q4.925 4 5.615 4h12.77q.69 0 1.152.463q.463.462.463 1.152v12.77q0 .69-.462 1.152q-.463.463-1.153.463zm0-1h12.77q.23 0 .423-.192q.192-.193.192-.423V5.615q0-.23-.192-.423Q18.615 5 18.385 5H5.615q-.23 0-.423.192Q5 5.385 5 5.615v12.77q0 .23.192.423q.193.192.423.192M5 5v14z"/></svg>