<svg xmlns="http://www.w3.org/2000/svg" width="1em" height="1em" viewBox="0 0 24 24"><path fill="currentColor" d="M6.77 14.692h.884V9.308h-2.27v.884H6.77zm3.115 0h2.346q.329 0 .549-.22q.22-.22.22-.549v-3.846q0-.329-.22-.55q-.22-.22-.55-.22H9.886q-.33 0-.55.22q-.22.221-.22.55v3.846q0 .329.22.55q.22.22.55.22m.115-.885v-3.616h2.115v3.616zm4.462.884h.884v-2.365l2.289 2.365h1.211l-2.634-2.73l2.634-2.654h-1.173l-2.327 2.327V9.308h-.884zM5.615 20q-.69 0-1.152-.462Q4 19.075 4 18.385V5.615q0-.69.463-1.152Q4.925 4 5.615 4h12.77q.69 0 1.152.463q.463.462.463 1.152v12.77q0 .69-.462 1.152q-.463.463-1.153.463z"/></svg>