<svg xmlns="http://www.w3.org/2000/svg" width="1em" height="1em" viewBox="0 0 24 24"><path fill="currentColor" d="M5.885 10.192H4.827q-.192 0-.317-.125t-.125-.316t.125-.317q.125-.126.317-.126h1.5q.192 0 .317.125t.125.317v4.5q0 .192-.125.317t-.316.125q-.191 0-.317-.125t-.126-.317zm3.384 4.058v-1.865q0-.327.221-.548q.222-.222.548-.222h2.27v-1.423H9.712q-.192 0-.317-.125q-.126-.125-.126-.316t.126-.317q.125-.126.317-.126h2.711q.327 0 .548.22q.221.222.221.549v1.538q0 .327-.22.548q-.222.222-.549.222h-2.27v1.423h2.597q.192 0 .317.125t.125.316t-.125.317q-.125.126-.317.126H9.712q-.192 0-.317-.125q-.126-.125-.126-.317m9.077.442h-2.711q-.192 0-.317-.125q-.126-.125-.126-.316t.126-.317q.125-.126.317-.126h2.596v-1.423h-1.654q-.154 0-.27-.116q-.115-.115-.115-.269t.116-.27q.115-.115.269-.115h1.654v-1.423h-2.596q-.192 0-.317-.125q-.126-.125-.126-.316t.126-.317q.125-.126.317-.126h2.711q.327 0 .548.22q.221.222.221.549v3.846q0 .327-.22.548q-.222.221-.549.221"/></svg>