<svg xmlns="http://www.w3.org/2000/svg" width="1em" height="1em" viewBox="0 0 24 24"><path fill="currentColor" d="M8.808 10.192v4.058q0 .192.125.317t.316.125t.317-.125q.126-.125.126-.317v-4.5q0-.192-.125-.317t-.317-.125h-1.5q-.192 0-.317.125t-.125.316t.125.317q.125.126.317.126zm3.769 4.5h2.346q.327 0 .548-.22q.221-.222.221-.549v-3.846q0-.327-.22-.548q-.222-.221-.549-.221h-2.346q-.327 0-.548.22q-.221.222-.221.549v3.846q0 .327.22.548q.222.221.549.221m.115-.769v-1.538h2.116v1.538zm0-2.308v-1.538h2.116v1.538zM5.615 20q-.69 0-1.152-.462Q4 19.075 4 18.385V5.615q0-.69.463-1.152Q4.925 4 5.615 4h12.77q.69 0 1.152.463q.463.462.463 1.152v12.77q0 .69-.462 1.152q-.463.463-1.153.463z"/></svg>