<svg xmlns="http://www.w3.org/2000/svg" width="1em" height="1em" viewBox="0 0 24 24"><path fill="currentColor" d="M6.885 14.692h3.884v-.884h-3v-1.423H10q.329 0 .549-.22q.22-.22.22-.55v-1.538q0-.329-.22-.55q-.22-.22-.549-.22H6.885v.885h3v1.423H7.654q-.329 0-.55.22q-.22.22-.22.55zm5.961 0h3.308q.444 0 .76-.316q.317-.316.317-.76v-3.231q0-.445-.317-.761q-.316-.316-.76-.316h-3.308zm.885-.884v-3.616h2.307q.116 0 .212.096q.096.097.096.212v3q0 .115-.096.212q-.096.096-.212.096zM5.615 20q-.69 0-1.152-.462Q4 19.075 4 18.385V5.615q0-.69.463-1.152Q4.925 4 5.615 4h12.77q.69 0 1.152.463q.463.462.463 1.152v12.77q0 .69-.462 1.152q-.463.463-1.153.463z"/></svg>