<svg xmlns="http://www.w3.org/2000/svg" width="1em" height="1em" viewBox="0 0 24 24"><path fill="currentColor" d="M8.27 18.115H3.5q-.26 0-.437-.177q-.178-.178-.178-.438t.178-.437q.177-.178.437-.178h4.77q.268 0 .442-.173t.173-.443v-3.038q0-.27-.173-.443t-.443-.173H3.5q-.26 0-.437-.177q-.178-.178-.178-.438t.178-.437q.177-.178.437-.178h4.77q.268 0 .442-.173t.173-.443V7.731q0-.27-.173-.443t-.443-.173H3.5q-.26 0-.437-.178q-.178-.177-.178-.437t.178-.437q.177-.178.437-.178h4.77q.788 0 1.317.528q.528.53.528 1.318v3.054q0 .47-.333.843q-.334.372-.747.372q.413 0 .747.372q.333.372.333.843v3.054q0 .789-.528 1.318q-.53.528-1.318.528m6.462-1.23h4.538q.27 0 .443-.173t.173-.443V7.731q0-.27-.173-.443t-.443-.173h-4.538q-.27 0-.443.173t-.173.443v8.538q0 .27.173.443t.443.173m0 1.23q-.789 0-1.318-.528q-.528-.53-.528-1.318V7.731q0-.789.528-1.318q.53-.528 1.318-.528h4.538q.789 0 1.318.528q.528.53.528 1.318v8.538q0 .789-.528 1.318q-.53.528-1.318.528z"/></svg>