<svg xmlns="http://www.w3.org/2000/svg" width="1em" height="1em" viewBox="0 0 24 24"><path fill="currentColor" d="M9.965 15.877q-2.911-.387-4.938-1.452Q3 13.36 3 12q0-1.613 2.618-2.807Q8.237 8 12 8t6.382 1.193Q21 10.387 21 12q0 1.015-1.209 1.951q-1.208.936-3.228 1.47q-.207.067-.385-.045q-.178-.113-.178-.32q0-.239.147-.406q.147-.167.36-.24q1.693-.5 2.593-1.196T20 12q0-.858-2.137-1.929T12 9q-3.725 0-5.863 1.071T4 12q0 .715 1.66 1.601t4.202 1.253l-1.677-1.677q-.14-.14-.15-.344q-.01-.204.15-.364t.353-.16q.195 0 .354.16l2.389 2.389q.242.242.242.565q0 .323-.242.565l-2.389 2.389q-.14.14-.341.153q-.201.012-.366-.153q-.16-.16-.163-.351q-.003-.191.157-.357z"/></svg>