<svg xmlns="http://www.w3.org/2000/svg" width="1em" height="1em" viewBox="0 0 24 24"><path fill="currentColor" d="M8.692 13.115h6.616v-.165q0-.792-.937-1.313q-.936-.522-2.371-.522t-2.371.522q-.937.52-.937 1.313zM12 9.5q.633 0 1.066-.434Q13.5 8.633 13.5 8t-.434-1.066Q12.633 6.5 12 6.5t-1.066.434Q10.5 7.367 10.5 8t.434 1.066Q11.367 9.5 12 9.5M6.077 17l-1.704 1.704q-.379.379-.876.174Q3 18.673 3 18.133V4.615q0-.69.463-1.152Q3.925 3 4.615 3h14.77q.69 0 1.152.463q.463.462.463 1.152v10.77q0 .69-.462 1.153q-.463.462-1.153.462zm-.427-1h13.735q.23 0 .423-.192q.192-.193.192-.423V4.615q0-.23-.192-.423Q19.615 4 19.385 4H4.615q-.23 0-.423.192Q4 4.385 4 4.615v13.03zM4 16V4z"/></svg>