<svg xmlns="http://www.w3.org/2000/svg" width="1em" height="1em" viewBox="0 0 24 24"><path fill="currentColor" d="M12.885 14.692h.884v-2.365l2.289 2.365h1.229l-2.652-2.73l2.652-2.654h-1.19l-2.328 2.327V9.308h-.884zm-3.231 0h.884v-1.5h1.231v-.884h-1.23v-3h-.885v3H7.769v-3h-.884v3.884h2.769zM5.615 20q-.69 0-1.152-.462Q4 19.075 4 18.385V5.615q0-.69.463-1.152Q4.925 4 5.615 4h12.77q.69 0 1.152.463q.463.462.463 1.152v12.77q0 .69-.462 1.152q-.463.463-1.153.463zm0-1h12.77q.23 0 .423-.192q.192-.193.192-.423V5.615q0-.23-.192-.423Q18.615 5 18.385 5H5.615q-.23 0-.423.192Q5 5.385 5 5.615v12.77q0 .23.192.423q.193.192.423.192M5 5v14z"/></svg>