<svg xmlns="http://www.w3.org/2000/svg" width="1em" height="1em" viewBox="0 0 24 24"><path fill="currentColor" d="M16.73 12.385V13.5q0 .154.116.27q.116.115.27.115t.269-.116q.115-.115.115-.269v-1.115h1.115q.154 0 .27-.116Q19 12.154 19 12t-.115-.27q-.116-.115-.27-.115H17.5V10.5q0-.154-.115-.27q-.116-.115-.27-.115t-.269.116q-.115.115-.115.269v1.115h-1.116q-.153 0-.269.116q-.115.115-.115.269t.115.27q.116.115.27.115zm-4.21-.058l2.165 2.225q.05.056.319.14q.29 0 .404-.262q.113-.263-.085-.478l-1.938-1.99l1.963-1.958q.198-.196.075-.446t-.4-.25q-.079 0-.16.038q-.08.038-.14.102l-2.204 2.187V9.75q0-.192-.125-.317t-.316-.125t-.317.125q-.126.125-.126.317v4.5q0 .192.125.317t.316.125t.317-.125q.126-.125.126-.317zm-3.712.865v1.058q0 .192.125.317t.316.125t.317-.125q.126-.125.126-.317v-1.058h.789q.191 0 .317-.125q.125-.125.125-.316t-.125-.317q-.126-.126-.317-.126h-.789V9.75q0-.192-.125-.317t-.316-.125t-.317.125q-.126.125-.126.317v2.558H6.923V9.75q0-.192-.125-.317t-.316-.125q-.192 0-.318.125t-.126.317v3q0 .192.126.317q.125.125.317.125zM5.615 20q-.69 0-1.152-.462Q4 19.075 4 18.385V5.615q0-.69.463-1.152Q4.925 4 5.615 4h12.77q.69 0 1.152.463q.463.462.463 1.152v12.77q0 .69-.462 1.152q-.463.463-1.153.463z"/></svg>