<svg xmlns="http://www.w3.org/2000/svg" width="1em" height="1em" viewBox="0 0 24 24"><path fill="currentColor" d="M7.885 16.5H4q-.213 0-.356-.144Q3.5 16.212 3.5 16t.144-.356Q3.787 15.5 4 15.5h3.885q.269 0 .442-.173t.173-.442v-1.77q0-.269-.173-.442t-.442-.173H4q-.213 0-.356-.144T3.5 12V8q0-.213.144-.356T4 7.5h5q.213 0 .356.144q.144.144.144.357t-.144.356Q9.213 8.5 9 8.5H4.5v3h3.385q.666 0 1.14.475q.475.474.475 1.14v1.77q0 .666-.475 1.14q-.474.475-1.14.475m6.23 0q-.666 0-1.14-.475q-.475-.474-.475-1.14v-5.77q0-.666.475-1.14q.474-.475 1.14-.475H20q.213 0 .356.144q.144.144.144.357t-.144.356Q20.213 8.5 20 8.5h-5.885q-.269 0-.442.173t-.173.442v5.77q0 .269.173.442t.442.173h4.77q.269 0 .442-.173t.173-.442V12.5h-2q-.213 0-.356-.144Q17 12.212 17 12t.144-.356q.144-.143.356-.143H20q.213 0 .356.144T20.5 12v2.885q0 .666-.475 1.14q-.474.475-1.14.475z"/></svg>