<svg xmlns="http://www.w3.org/2000/svg" width="1em" height="1em" viewBox="0 0 24 24"><path fill="currentColor" d="M3.5 16.5v-1h4.385q.269 0 .442-.173t.173-.442v-1.77q0-.269-.173-.442t-.442-.173H3.5v-5h6v1h-5v3h3.385q.67 0 1.143.472q.472.472.472 1.143v1.77q0 .67-.472 1.143q-.472.472-1.143.472zm17-5v3.385q0 .67-.472 1.143q-.472.472-1.143.472h-4.77q-.67 0-1.143-.472q-.472-.472-.472-1.143v-5.77q0-.67.472-1.143q.472-.472 1.143-.472h4.923q.499 0 .903.27q.405.27.559.73h-6.385q-.269 0-.442.173t-.173.442v5.77q0 .269.173.442t.442.173h4.77q.269 0 .442-.173t.173-.442V12.5H17v-1z"/></svg>