<svg xmlns="http://www.w3.org/2000/svg" width="1em" height="1em" viewBox="0 0 24 24"><path fill="currentColor" d="M7.548 21.885q-.19 0-.311-.122q-.122-.12-.122-.301v-2.924q0-.18.122-.301q.12-.122.301-.122H9.5q.154 0 .27.116q.115.115.115.269t-.116.27q-.115.115-.269.115H7.885v.73h1.577q.18 0 .301.122q.122.12.122.309v1.408q0 .188-.122.31q-.12.12-.311.12zm4.837-1.5V21.5q0 .154-.116.27q-.115.115-.269.115t-.27-.116q-.115-.115-.115-.269v-2.98q0-.162.122-.283q.12-.122.282-.122H13.5q.154 0 .27.116q.115.115.115.269t-.116.27q-.115.115-.269.115h-1.115v.73H13q.154 0 .27.116q.115.115.115.269t-.116.27q-.115.115-.269.115zm3.23-1.5H15q-.154 0-.27-.116q-.115-.115-.115-.269t.116-.27q.115-.115.269-.115h2q.154 0 .27.116q.115.115.115.269t-.116.27q-.115.115-.269.115h-.615V21.5q0 .154-.116.27q-.115.115-.269.115t-.27-.116q-.115-.115-.115-.269zm-7.73 2.23h1.23v-.73h-1.23zm-3.183-6.807l1.117 1.117q.123.129.133.304q.01.175-.139.323T5.5 16.2q-.165 0-.313-.148l-1.68-1.679q-.242-.242-.242-.565q0-.323.243-.566l1.679-1.679q.128-.128.303-.138q.175-.01.323.138q.149.149.149.314t-.149.313l-1.117 1.118h14.602l-1.117-1.118q-.123-.128-.133-.303q-.01-.175.139-.324q.148-.148.313-.148t.313.148l1.68 1.68q.242.242.242.565t-.243.565l-1.679 1.679q-.128.129-.303.138q-.175.01-.323-.138t-.149-.314q0-.165.149-.313l1.117-1.117zM3 9.5v-.133q0-.465.248-.802q.248-.336.67-.528q.592-.256 1.24-.397q.65-.14 1.342-.14q.692 0 1.341.14q.65.14 1.242.397q.42.192.669.528q.248.337.248.802V9.5zm11 0v-.133q0-.465.248-.802q.248-.336.67-.528q.592-.256 1.24-.397q.65-.14 1.342-.14q.692 0 1.341.14q.65.14 1.242.397q.42.192.669.528q.248.337.248.802V9.5zM6.5 5.885q-.633 0-1.066-.434Q5 5.017 5 4.385q0-.633.434-1.067q.433-.433 1.066-.433t1.066.433Q8 3.752 8 4.385q0 .632-.434 1.066q-.433.434-1.066.434m11 0q-.633 0-1.066-.434Q16 5.017 16 4.385q0-.633.434-1.067q.433-.433 1.066-.433t1.066.433Q19 3.752 19 4.385q0 .632-.434 1.066q-.433.434-1.066.434"/></svg>