<svg xmlns="http://www.w3.org/2000/svg" width="1em" height="1em" viewBox="0 0 24 24"><path fill="currentColor" d="M12.885 14.692h.884v-2.365l2.289 2.365h1.211l-2.634-2.73l2.634-2.654h-1.173l-2.327 2.327V9.308h-.884zm-5.231 0H10q.329 0 .549-.22q.22-.22.22-.549v-1.538q0-.33-.22-.55q-.22-.22-.549-.22H7.77v-1.423h3v-.884H7.653q-.329 0-.55.22q-.22.22-.22.549v3.846q0 .329.22.55q.221.22.55.22m.115-.77v-1.538h2.116v1.538zM5.615 20q-.69 0-1.152-.462Q4 19.075 4 18.385V5.615q0-.69.463-1.152Q4.925 4 5.615 4h12.77q.69 0 1.152.463q.463.462.463 1.152v12.77q0 .69-.462 1.152q-.463.463-1.153.463z"/></svg>