<svg xmlns="http://www.w3.org/2000/svg" width="1em" height="1em" viewBox="0 0 24 24"><path fill="currentColor" d="M9.054 10.192L7.729 14.08q-.067.227.058.42q.125.193.376.193q.16 0 .27-.085q.11-.086.165-.245l1.41-4.139q.13-.346-.083-.63q-.213-.285-.56-.285h-2.75q-.19 0-.316.126t-.126.316t.126.316q.126.126.316.126zm2.984 2.135l2.16 2.225q.05.056.325.14q.296 0 .41-.268q.113-.268-.085-.484l-1.944-1.978l1.963-1.947q.198-.196.075-.452q-.123-.255-.4-.255q-.079 0-.161.036q-.083.037-.144.104l-2.199 2.187V9.75q0-.19-.126-.316q-.125-.126-.316-.126q-.19 0-.316.126t-.126.316v4.5q0 .19.126.316t.316.126q.19 0 .316-.126t.126-.316zm4.693.058V13.5q0 .162.111.273q.112.112.273.112q.162 0 .273-.112q.112-.111.112-.273v-1.115h1.115q.162 0 .273-.112Q19 12.162 19 12t-.112-.273q-.111-.112-.273-.112H17.5V10.5q0-.162-.112-.273q-.111-.112-.273-.112q-.161 0-.273.112q-.111.111-.111.273v1.115h-1.116q-.161 0-.273.112q-.111.111-.111.273t.111.273q.112.112.273.112zM5.615 20q-.69 0-1.152-.462Q4 19.075 4 18.385V5.615q0-.69.463-1.152Q4.925 4 5.615 4h12.77q.69 0 1.152.463q.463.462.463 1.152v12.77q0 .69-.462 1.152q-.463.463-1.153.463zm0-1h12.77q.23 0 .423-.192q.192-.193.192-.423V5.615q0-.23-.192-.423Q18.615 5 18.385 5H5.615q-.23 0-.423.192Q5 5.385 5 5.615v12.77q0 .23.192.423q.193.192.423.192M5 5v14z"/></svg>