<svg xmlns="http://www.w3.org/2000/svg" width="1em" height="1em" viewBox="0 0 24 24"><path fill="currentColor" d="m12.888 6.692l-1.217 3.887q-.067.227.058.42q.125.193.377.193q.16 0 .279-.085q.119-.086.175-.245l1.294-4.139q.111-.346-.092-.63q-.204-.285-.55-.285h-2.77q-.19 0-.316.126T10 6.25t.126.316q.126.126.316.126zM5.615 20q-.69 0-1.152-.462Q4 19.075 4 18.385V5.615q0-.69.463-1.152Q4.925 4 5.615 4h12.77q.69 0 1.152.463q.463.462.463 1.152v12.77q0 .69-.462 1.152q-.463.463-1.153.463zm1.577-6.308h1.616v2.558q0 .19.126.316t.316.126t.316-.126q.126-.126.126-.316v-2.558h1.616v4.058q0 .19.126.316t.316.126t.316-.126q.126-.126.126-.316V13.5q0-.31-.191-.501t-.501-.191H7q-.31 0-.501.191t-.191.501v4.25q0 .19.126.316t.316.126t.316-.126q.126-.126.126-.316zm7.5 3H17q.31 0 .501-.191t.191-.501v-2.5q0-.31-.191-.501T17 12.808h-2.75q-.19 0-.316.126t-.126.316v4.5q0 .19.126.316t.316.126t.316-.126q.126-.126.126-.316zm0-.884v-2.116h2.116v2.116z"/></svg>