<svg xmlns="http://www.w3.org/2000/svg" width="1em" height="1em" viewBox="0 0 24 24"><path fill="currentColor" d="M10.885 11.192h2.346q.329 0 .549-.22q.22-.22.22-.549V6.577q0-.329-.22-.55q-.22-.22-.55-.22h-2.345q-.33 0-.55.22q-.22.221-.22.55v3.846q0 .329.22.55q.22.22.55.22M11 8.114V6.577h2.115v1.538zm0 2.308V8.885h2.115v1.538zm-4.692 7.77h.884v-4.5h1.616v3h.884v-3h1.616v4.5h.884V13.5q0-.31-.191-.501t-.501-.191H7q-.31 0-.501.191t-.191.501zm7.5 0h.884v-1.5H17q.31 0 .501-.192q.191-.191.191-.501v-2.5q0-.31-.191-.501t-.501-.19h-3.192zm.884-2.385v-2.116h2.116v2.116zM5.615 20q-.69 0-1.152-.462Q4 19.075 4 18.385V5.615q0-.69.463-1.152Q4.925 4 5.615 4h12.77q.69 0 1.152.463q.463.462.463 1.152v12.77q0 .69-.462 1.152q-.463.463-1.153.463zm0-1h12.77q.23 0 .423-.192q.192-.193.192-.423V5.615q0-.23-.192-.423Q18.615 5 18.385 5H5.615q-.23 0-.423.192Q5 5.385 5 5.615v12.77q0 .23.192.423q.193.192.423.192M5 5v14z"/></svg>