<svg xmlns="http://www.w3.org/2000/svg" width="1em" height="1em" viewBox="0 0 24 24"><path fill="currentColor" d="M8.192 21q-1.748 0-2.97-1.251Q4 18.5 4 16.75t1.241-2.99q1.242-1.24 2.97-1.24v1.018q-1.326 0-2.269.943Q5 15.423 5 16.75q0 1.327.942 2.27q.943.942 2.289.942t2.288-.943q.943-.942.943-2.269h1q0 1.748-1.261 3Q9.941 21 8.192 21m8.346-1v-3.75q0-.192-.105-.308q-.106-.115-.318-.115H11q-1.004 0-1.575-.87t-.14-1.8l2.042-4.484H8.802l-.696 1.839l-.944-.32l.661-1.8q.167-.44.488-.656t.785-.217h3.873q.875 0 1.328.644q.453.643.06 1.514l-2.207 4.785h3.927q.613 0 1.037.433q.424.434.424 1.047V20zM14.77 6.808q-.67 0-1.133-.463t-.463-1.133q0-.672.463-1.134q.462-.463 1.133-.463t1.124.463q.453.462.453 1.134q0 .67-.453 1.133q-.453.463-1.124.463"/></svg>