<svg xmlns="http://www.w3.org/2000/svg" width="1em" height="1em" viewBox="0 0 24 24"><path fill="currentColor" d="M5.615 20q-.69 0-1.152-.462Q4 19.075 4 18.385V5.615q0-.69.463-1.152Q4.925 4 5.615 4h12.77q.69 0 1.152.463q.463.462.463 1.152V7h-6.385q-1.198 0-1.906.709Q11 8.417 11 9.615v4.77q0 1.198.709 1.906q.708.709 1.906.709H20v1.385q0 .69-.462 1.152q-.463.463-1.153.463zm8-4q-.69 0-1.152-.462Q12 15.075 12 14.385v-4.77q0-.69.463-1.152Q12.925 8 13.615 8h5.77q.69 0 1.152.463q.463.462.463 1.152v4.77q0 .69-.462 1.153q-.463.462-1.153.462zM16 13.5q.65 0 1.075-.425T17.5 12q0-.65-.425-1.075T16 10.5q-.65 0-1.075.425T14.5 12q0 .65.425 1.075T16 13.5"/></svg>