<svg xmlns="http://www.w3.org/2000/svg" width="1em" height="1em" viewBox="0 0 24 24"><path fill="currentColor" d="M6.5 16.5v-7q0-.213.144-.356Q6.788 9 7 9t.356.144q.143.143.143.356v7q0 .213-.144.356T6.999 17q-.212 0-.356-.144q-.143-.143-.143-.356m5 0v-7q0-.213.144-.356Q11.788 9 12 9t.356.144q.143.143.143.356v7q0 .213-.144.356Q12.212 17 12 17t-.356-.144q-.143-.143-.143-.356M4.038 20q-.212 0-.356-.144t-.144-.357q0-.212.144-.356q.144-.143.356-.143h15.924q.212 0 .356.144t.144.357q0 .212-.144.356q-.144.143-.356.143zM16.5 16.5v-7q0-.213.144-.356T17 9q.212 0 .356.144q.143.143.143.356v7q0 .213-.144.356Q17.212 17 17 17t-.356-.144q-.143-.143-.143-.356M20.038 7H3.92q-.158 0-.27-.11q-.11-.11-.11-.268V6.39q0-.116.058-.199t.153-.134l7.562-3.608q.324-.162.686-.162q.362 0 .69.162l7.531 3.583q.102.067.172.163q.07.096.07.219v.167q0 .19-.114.304q-.114.114-.309.114"/></svg>