<svg xmlns="http://www.w3.org/2000/svg" width="1em" height="1em" viewBox="0 0 24 24"><path fill="currentColor" d="m20.927 21.615l-2.787-2.761q-.411.313-.904.48q-.494.166-1.044.166q-1.372 0-2.35-.975q-.977-.975-.977-2.344q0-1.37.975-2.343q.975-.973 2.345-.973q1.369 0 2.342.972q.973.972.973 2.336q0 .554-.17 1.048q-.168.494-.482.906l2.767 2.78zM5.807 19.52q-1.364 0-2.335-.973q-.972-.973-.972-2.373q0-1.364.972-2.336q.971-.972 2.336-.972q1.4 0 2.373.972q.973.972.973 2.336q0 1.4-.973 2.373t-2.373.973m0-1q.998 0 1.672-.674q.674-.674.674-1.672q0-.952-.674-1.63q-.674-.678-1.672-.678q-.952 0-1.63.678q-.678.678-.678 1.63q0 .998.678 1.672q.678.674 1.63.674m10.384 0q.952 0 1.63-.674q.678-.674.678-1.672q0-.952-.678-1.63q-.678-.678-1.63-.678q-.998 0-1.672.678q-.674.678-.674 1.63q0 .998.674 1.672q.674.674 1.672.674M5.808 9.173q-1.365 0-2.336-.973Q2.5 7.227 2.5 5.827q0-1.364.972-2.336q.971-.972 2.336-.972q1.4 0 2.373.972q.973.971.973 2.336q0 1.4-.973 2.373t-2.373.973m10.384 0q-1.4 0-2.373-.973t-.973-2.373q0-1.365.973-2.336q.973-.972 2.373-.972q1.365 0 2.336.972q.972.972.972 2.336q0 1.4-.972 2.373q-.971.973-2.336.973m-10.384-1q.998 0 1.672-.674q.674-.674.674-1.672q0-.952-.674-1.63q-.674-.678-1.672-.678q-.952 0-1.63.678q-.678.678-.678 1.63q0 .998.678 1.672q.678.674 1.63.674m10.384 0q.952 0 1.63-.674q.678-.674.678-1.672q0-.952-.678-1.63q-.678-.678-1.63-.678q-.998 0-1.672.678q-.674.678-.674 1.63q0 .998.674 1.672q.674.674 1.672.674m-.019-2.327"/></svg>