<svg xmlns="http://www.w3.org/2000/svg" width="1em" height="1em" viewBox="0 0 24 24"><path fill="currentColor" d="M6.077 11.192v-.849q0-1.528.687-2.775q.688-1.247 1.851-2.062L7.03 3.919l.74-.765l1.798 1.798q.535-.262 1.163-.395t1.266-.134q.639 0 1.27.134t1.167.395l1.798-1.798l.74.765l-1.586 1.587q1.163.815 1.85 2.062q.688 1.247.688 2.775v.85zM14.538 9.5q.36 0 .603-.243q.244-.244.244-.603q0-.36-.244-.603t-.603-.243q-.36 0-.602.243t-.244.603q0 .36.244.603q.243.243.602.243m-5.076 0q.36 0 .602-.243t.244-.603q0-.36-.244-.603t-.602-.243q-.36 0-.603.243q-.244.243-.244.603t.244.603q.243.243.603.243M12 21.346q-2.475 0-4.199-1.724q-1.724-1.724-1.724-4.199v-3.385h11.846v3.39q0 2.478-1.724 4.198q-1.724 1.72-4.199 1.72"/></svg>