<svg xmlns="http://www.w3.org/2000/svg" width="1em" height="1em" viewBox="0 0 24 24"><path fill="currentColor" d="M5.885 20.5q-.348 0-.7-.205q-.35-.205-.512-.497l-2.115-3.702q-.162-.292-.171-.699q-.01-.407.17-.699L8.674 4.202q.18-.292.522-.497q.342-.205.69-.205h4.23q.348 0 .69.205q.341.205.522.497l3.935 6.761q-.287-.034-.563-.026q-.276.007-.568.05L14.35 4.5h-4.7L3.3 15.4l2.35 4.1h7.842q.121.287.272.527q.151.24.357.473zm1.653-4l-.436-.775l4.402-7.667h.992l2.506 4.38q-.194.172-.374.367t-.34.39L12 9.2l-3.615 6.3h4.753q-.078.244-.118.485q-.04.24-.058.515zm10.962 4v-3h-3v-1h3v-3h1v3h3v1h-3v3z"/></svg>