<svg xmlns="http://www.w3.org/2000/svg" width="1em" height="1em" viewBox="0 0 24 24"><path fill="currentColor" d="M5.73 19v-4.5h4.54V19v-4.5H5.73zM2 20v-8.5l6-4.27l6.288 4.482q-.176.176-.337.366q-.16.19-.338.366L8 8.488L3 12v7h2.73v-4.5h4.54V20h-1v-4.5H6.73V20zM22 4v8.567q-.233-.2-.473-.35q-.24-.152-.527-.292V5h-9.615v2.188l-1-.719V4zm-4.77 4.77h1.54V7.23h-1.54zM18 22q-1.671 0-2.836-1.164T14 18q0-1.671 1.164-2.836T18 14q1.671 0 2.836 1.164T22 18q0 1.671-1.164 2.836T18 22m-.385-1.115h.77v-2.5h2.5v-.77h-2.5v-2.5h-.77v2.5h-2.5v.77h2.5z"/></svg>