<svg xmlns="http://www.w3.org/2000/svg" width="1em" height="1em" viewBox="0 0 24 24"><path fill="currentColor" d="M18.93 20q-2.528 0-5.184-1.266q-2.656-1.267-4.934-3.555q-2.28-2.289-3.546-4.935Q4 7.598 4 5.07q0-.458.3-.763Q4.6 4 5.05 4h2.473q.408 0 .712.257t.411.658L9.142 7.3q.07.42-.025.733q-.094.313-.332.513L6.59 10.592q.616 1.118 1.361 2.076q.745.959 1.59 1.817q.87.87 1.874 1.62q1.004.749 2.204 1.414l2.139-2.177q.244-.263.549-.347q.305-.083.674-.033l2.104.43q.407.1.661.41q.254.311.254.713v2.435q0 .45-.306.75q-.305.3-.763.3M16 8h-2.5q-.213 0-.356-.144T13 7.499q0-.212.144-.356Q13.288 7 13.5 7H16V4.5q0-.213.144-.356T16.5 4q.212 0 .356.144q.143.144.143.356V7h2.5q.213 0 .356.144q.144.144.144.357q0 .212-.144.356Q19.713 8 19.5 8H17v2.5q0 .213-.144.356q-.144.144-.357.144q-.212 0-.356-.144Q16 10.713 16 10.5z"/></svg>