<svg xmlns="http://www.w3.org/2000/svg" width="1em" height="1em" viewBox="0 0 24 24"><path fill="currentColor" d="M12.003 21q-1.866 0-3.51-.708q-1.643-.709-2.859-1.924q-1.216-1.214-1.925-2.856Q3 13.87 3 12.003q0-1.866.709-3.51t1.924-2.859Q6.848 4.418 8.49 3.709Q10.133 3 12 3q.883 0 1.721.154q.839.154 1.608.48q.284.106.358.31q.075.204.007.387q-.067.182-.232.28t-.358.018q-.708-.321-1.482-.475Q12.847 4 12 4Q8.675 4 6.337 6.338T4 12q0 3.325 2.338 5.663T12 20q3.325 0 5.663-2.337T20 12q0-.546-.07-1.081q-.068-.535-.207-1.04q-.067-.225.058-.371t.307-.202q.183-.056.373.04q.19.095.256.362q.145.557.214 1.127T21 12q0 1.868-.708 3.51q-.709 1.643-1.924 2.858q-1.214 1.215-2.856 1.923Q13.87 21 12.003 21M20.5 4.5H19q-.213 0-.356-.144q-.144-.144-.144-.357t.144-.356Q18.788 3.5 19 3.5h1.5V2q0-.213.144-.356q.144-.144.357-.144t.356.144q.143.144.143.356v1.5H23q.213 0 .356.144q.144.144.144.357t-.144.356Q23.213 4.5 23 4.5h-1.5V6q0 .213-.144.356q-.144.144-.357.144t-.356-.144Q20.5 6.213 20.5 6zm-5.188 6.115q.467 0 .789-.326q.322-.327.322-.794t-.327-.788q-.326-.322-.793-.322t-.789.326q-.322.327-.322.794t.327.788q.327.322.793.322m-6.615 0q.466 0 .789-.326q.322-.327.322-.794t-.327-.788q-.327-.322-.793-.322t-.789.326q-.322.327-.322.794t.327.788q.326.322.793.322M12 16.885q1.243 0 2.292-.575q1.05-.575 1.72-1.56q.134-.246.007-.498T15.6 14H8.4q-.292 0-.42.252q-.126.252.008.498q.67.985 1.73 1.56q1.06.575 2.282.575"/></svg>