<svg xmlns="http://www.w3.org/2000/svg" width="1em" height="1em" viewBox="0 0 24 24"><path fill="currentColor" d="M11.5 12.5V16q0 .213.144.356q.144.144.357.144t.356-.144q.143-.143.143-.356v-3.5H16q.213 0 .356-.144q.144-.144.144-.357t-.144-.356Q16.213 11.5 16 11.5h-3.5V8q0-.213-.144-.356Q12.212 7.5 12 7.5t-.356.144Q11.5 7.788 11.5 8v3.5H8q-.213 0-.356.144q-.144.144-.144.357t.144.356q.144.143.356.143zM5.615 20q-.69 0-1.152-.462Q4 19.075 4 18.385V5.615q0-.69.463-1.152Q4.925 4 5.615 4h12.77q.69 0 1.152.463q.463.462.463 1.152v12.77q0 .69-.462 1.152q-.463.463-1.153.463z"/></svg>