<svg xmlns="http://www.w3.org/2000/svg" width="1em" height="1em" viewBox="0 0 24 24"><path fill="currentColor" d="M8.615 22q-.666 0-1.14-.475Q7 21.052 7 20.386v-3.308h1V18.5h10v-13H8v1.423H7V3.625q0-.68.475-1.153Q7.949 2 8.615 2h8.77q.666 0 1.14.475q.475.474.475 1.14v16.77q0 .666-.475 1.14q-.474.475-1.14.475zM10.5 10.208l-5.746 5.746q-.14.14-.344.15q-.204.01-.364-.15t-.16-.354q0-.194.16-.354L9.792 9.5H6q-.213 0-.356-.144Q5.5 9.212 5.5 9t.144-.356Q5.788 8.5 6 8.5h4.692q.344 0 .576.232q.232.232.232.576V14q0 .213-.144.356q-.144.144-.357.144t-.356-.144Q10.5 14.213 10.5 14z"/></svg>