<svg xmlns="http://www.w3.org/2000/svg" width="1em" height="1em" viewBox="0 0 24 24"><path fill="currentColor" d="M11.5 10.5V13q0 .213.144.356q.144.144.357.144t.356-.144q.143-.143.143-.356v-2.5H15q.213 0 .356-.144q.144-.144.144-.357t-.144-.356Q15.213 9.5 15 9.5h-2.5V7q0-.213-.144-.356Q12.212 6.5 12 6.5t-.356.144Q11.5 6.788 11.5 7v2.5H9q-.213 0-.356.144Q8.5 9.788 8.5 10t.144.356q.143.143.356.143zm.5 10.056q-.235 0-.47-.077q-.234-.077-.432-.25q-1.067-.98-2.163-2.185q-1.097-1.204-1.992-2.493q-.895-1.29-1.467-2.633q-.572-1.343-.572-2.622q0-3.173 2.066-5.234Q9.037 3 12 3t5.03 2.062q2.066 2.061 2.066 5.234q0 1.279-.572 2.613q-.572 1.333-1.458 2.632q-.885 1.3-1.981 2.494q-1.097 1.194-2.164 2.175q-.191.173-.434.26q-.244.086-.487.086"/></svg>