<svg xmlns="http://www.w3.org/2000/svg" width="1em" height="1em" viewBox="0 0 24 24"><path fill="currentColor" d="M12.003 11.73q.668 0 1.14-.475q.472-.475.472-1.143t-.475-1.14q-.476-.472-1.143-.472t-1.14.476q-.472.475-.472 1.143t.475 1.14q.476.472 1.143.472M12 3q.327 0 .625.024t.606.091V4.5q0 .936.666 1.603q.667.666 1.603.666h.73V7.5q0 .936.667 1.603q.667.666 1.603.666h.579q.011.121.014.258q.003.137.003.27q0 1.457-.685 2.938q-.686 1.48-1.662 2.81q-.976 1.328-2.036 2.412q-1.061 1.083-1.792 1.753q-.191.173-.434.26q-.244.086-.487.086q-.235 0-.47-.077q-.234-.077-.432-.25q-1.067-.98-2.163-2.185q-1.097-1.204-1.992-2.493q-.895-1.29-1.467-2.633q-.572-1.343-.572-2.622q0-3.173 2.066-5.234Q9.037 3 12 3m6 2h-2.5q-.213 0-.356-.144T15 4.499q0-.212.144-.356Q15.288 4 15.5 4H18V1.5q0-.213.144-.356T18.5 1q.212 0 .356.144q.143.144.143.356V4h2.5q.213 0 .356.144q.144.144.144.357q0 .212-.144.356Q21.713 5 21.5 5H19v2.5q0 .213-.144.356Q18.712 8 18.5 8t-.356-.144Q18 7.713 18 7.5z"/></svg>