<svg xmlns="http://www.w3.org/2000/svg" width="1em" height="1em" viewBox="0 0 24 24"><path fill="currentColor" d="M17.615 21h.77v-2.5h2.5v-.77h-2.5v-2.5h-.77v2.5h-2.5v.77h2.5zM18 22.115q-1.671 0-2.836-1.164T14 18.115q0-1.67 1.164-2.835T18 14.115q1.671 0 2.836 1.165T22 18.115q0 1.672-1.164 2.836Q19.67 22.115 18 22.115M7.5 8.731h9v-1h-9zM11.521 20H5.615q-.666 0-1.14-.475Q4 19.051 4 18.385V5.615q0-.666.475-1.14Q4.949 4 5.615 4h12.77q.666 0 1.14.475q.475.474.475 1.14v5.95q-.494-.157-.991-.246q-.497-.088-1.009-.088q-.506 0-.984.08t-.94.226V11.5H7.5v1h6.587q-.758.521-1.332 1.223q-.574.702-.945 1.546H7.5v1h3.96q-.108.423-.169.853q-.06.43-.06.878q0 .46.054 1.009q.053.549.236.991"/></svg>