<svg xmlns="http://www.w3.org/2000/svg" width="1em" height="1em" viewBox="0 0 24 24"><path fill="currentColor" d="M11.99 21q-1.862 0-3.5-.71t-2.854-1.925Q4.419 17.15 3.71 15.51Q3 13.869 3 12.003t.709-3.51q.709-1.643 1.924-2.859Q6.848 4.418 8.49 3.709Q10.133 3 12 3q1.535 0 2.905.475q1.37.475 2.499 1.325l-.72.744q-.988-.734-2.174-1.14Q13.324 4 12 4Q8.675 4 6.337 6.338T4 12q0 3.325 2.338 5.663T12 20q.877 0 1.704-.188q.827-.189 1.584-.522l.75.756q-.91.462-1.928.708q-1.02.246-2.12.246m7.51-1.5v-3h-3v-1h3v-3h1v3h3v1h-3v3zm-8.938-3.592L7.004 12.35l.708-.708l2.85 2.85l9.73-9.736l.708.707z"/></svg>