<svg xmlns="http://www.w3.org/2000/svg" width="1em" height="1em" viewBox="0 0 24 24"><path fill="currentColor" d="M17 17q.625 0 1.063-.437T18.5 15.5q0-.625-.437-1.062T17 14q-.625 0-1.062.438T15.5 15.5q0 .625.438 1.063T17 17m0 3q.794 0 1.435-.353q.64-.353 1.06-.953q-.57-.344-1.195-.519Q17.675 18 17 18t-1.3.175q-.625.175-1.194.52q.419.6 1.06.952Q16.205 20 17 20m-5 .962q-3.013-.895-5.007-3.651Q5 14.554 5 11.1V5.692l7-2.615l7 2.615v5.656q-.225-.085-.494-.15q-.27-.067-.506-.123V6.381L12 4.15L6 6.38v4.72q0 1.483.438 2.84q.437 1.358 1.192 2.498q.755 1.139 1.785 1.99t2.198 1.299l.058-.02q.121.3.302.583q.18.283.41.531q-.102.039-.192.07t-.191.07M17 21q-1.671 0-2.836-1.164T13 17q0-1.671 1.164-2.836T17 13q1.671 0 2.836 1.164T21 17q0 1.671-1.164 2.836T17 21m-5-9.062"/></svg>