<svg xmlns="http://www.w3.org/2000/svg" width="1em" height="1em" viewBox="0 0 24 24"><path fill="currentColor" d="M8.565 15.429q.572.571 1.357.574q.786.003 1.357-.568l1.727-1.727l-2.714-2.714l-1.727 1.727q-.552.552-.552 1.354t.552 1.354m6.867-6.855q-.569-.549-1.354-.564q-.786-.016-1.357.555L11 10.287L13.713 13l1.722-1.721q.57-.58.558-1.358q-.012-.779-.561-1.347M5.615 20q-.666 0-1.14-.475Q4 19.051 4 18.385V5.615q0-.666.475-1.14Q4.949 4 5.615 4h4.7q-.136-.765.367-1.383Q11.185 2 12.01 2t1.328.617q.502.618.347 1.383h4.7q.666 0 1.14.475q.475.474.475 1.14v12.77q0 .666-.475 1.14q-.474.475-1.14.475zM12 4.442q.325 0 .538-.212t.212-.538q0-.325-.213-.537T12 2.942q-.325 0-.537.213t-.213.537q0 .325.213.538t.537.212"/></svg>