<svg xmlns="http://www.w3.org/2000/svg" width="1em" height="1em" viewBox="0 0 24 24"><path fill="currentColor" d="M8.565 15.429q.572.571 1.357.574q.786.003 1.357-.568l1.727-1.727l-2.714-2.714l-1.727 1.727q-.552.552-.552 1.354t.552 1.354m6.87-6.858q-.572-.546-1.357-.561q-.786-.016-1.357.555L11 10.287L13.713 13l1.722-1.721q.57-.571.558-1.354q-.012-.783-.558-1.354M4 20V4h6.315q-.136-.765.367-1.383Q11.185 2 12 2q.835 0 1.338.617q.502.618.347 1.383H20v16zm8-15.558q.325 0 .538-.212t.212-.538q0-.325-.213-.537T12 2.942q-.325 0-.537.213t-.213.537q0 .325.213.538t.537.212"/></svg>