<svg xmlns="http://www.w3.org/2000/svg" width="1em" height="1em" viewBox="0 0 24 24"><path fill="currentColor" d="M12 5.462q-.31 0-.54-.23q-.23-.23-.23-.54q0-.31.23-.54q.23-.229.54-.229q.31 0 .54.23q.23.23.23.54q0 .309-.23.539q-.23.23-.54.23m0-3.308q-.31 0-.54-.23q-.23-.23-.23-.54q0-.309.23-.539q.23-.23.54-.23q.31 0 .54.23q.23.23.23.54q0 .31-.23.539q-.23.23-.54.23m-2.946 18.27q-1.235-.759-1.923-2.012q-.689-1.254-.708-2.72q.02-1.679.94-3.045q.922-1.366 2.445-2.087V8.077q0-.213.143-.356q.144-.144.357-.144h3.384q.213 0 .357.144q.143.143.143.356v2.483q1.518.72 2.442 2.087q.924 1.366.943 3.045q-.02 1.466-.708 2.72q-.688 1.253-1.923 2.011zm.292-1h5.308q.892-.668 1.408-1.639q.515-.97.515-2.093q0-1.32-.705-2.424q-.705-1.105-1.895-1.691l-.785-.377V8.577h-2.384V11.2l-.785.377q-1.19.586-1.895 1.69q-.705 1.105-.705 2.425q0 1.123.515 2.093q.516.97 1.408 1.638M6.385 3.153q-.31 0-.54-.229q-.23-.23-.23-.54q0-.309.23-.539q.23-.23.54-.23q.31 0 .539.23q.23.23.23.54q0 .31-.23.539q-.23.23-.54.23m11.231 0q-.31 0-.539-.23q-.23-.23-.23-.54q0-.309.23-.539q.23-.23.54-.23q.309 0 .539.23q.23.23.23.54q0 .31-.23.539q-.23.23-.54.23M8.692 5.462q-.31 0-.54-.23q-.229-.23-.229-.54q0-.31.23-.54q.23-.229.54-.229q.309 0 .539.23q.23.23.23.54q0 .309-.23.539q-.23.23-.54.23m6.616 0q-.31 0-.54-.23q-.23-.23-.23-.54q0-.31.23-.54q.23-.229.54-.229q.31 0 .54.23q.229.23.229.54q0 .309-.23.539q-.23.23-.54.23M12 15.692"/></svg>