<svg xmlns="http://www.w3.org/2000/svg" width="1em" height="1em" viewBox="0 0 24 24"><path fill="currentColor" d="M4 20V7q0-1.237.881-2.119T7 4h7q1.238 0 2.119.881T17 7v1h-1V7q0-.825-.587-1.412T14 5H7q-.825 0-1.412.588T5 7v12h11v-2h1v3zm6.5-5q1.238 0 2.119-.881T13.5 12q0-1.237-.881-2.119T10.5 9q-1.237 0-2.119.881T7.5 12q0 1.238.881 2.119T10.5 15m0-1q-.825 0-1.412-.587T8.5 12q0-.825.588-1.412T10.5 10q.825 0 1.413.588T12.5 12q0 .825-.587 1.413T10.5 14m6-2.5v-1h.4q.383 0 .681-.17q.298-.17.48-.55q.299-.609.841-.944q.543-.336 1.198-.336h.4v1h-.4q-.383 0-.68.17q-.299.17-.482.55q-.298.609-.84.944q-.543.336-1.198.336zm0 4v-1h.4q.383 0 .681-.17q.298-.17.48-.55q.299-.57.841-.925q.543-.355 1.198-.355h.4v1h-.4q-.383 0-.68.17q-.299.17-.482.55q-.298.609-.84.944q-.543.336-1.198.336zM16 19H5z"/></svg>