<svg xmlns="http://www.w3.org/2000/svg" width="1em" height="1em" viewBox="0 0 24 24"><path fill="currentColor" d="M12 5.462q-.31 0-.54-.23q-.23-.23-.23-.54q0-.31.23-.54q.23-.229.54-.229q.31 0 .54.23q.23.23.23.54q0 .309-.23.539q-.23.23-.54.23m0-3.308q-.31 0-.54-.23q-.23-.23-.23-.54q0-.309.23-.539q.23-.23.54-.23q.31 0 .54.23q.23.23.23.54q0 .31-.23.539q-.23.23-.54.23m-2.946 18.27q-1.235-.759-1.923-2.012q-.689-1.254-.708-2.72q.02-1.679.94-3.045q.922-1.366 2.445-2.087V8.077q0-.214.143-.357t.357-.143h3.384q.214 0 .357.143t.143.357v2.483q1.518.72 2.442 2.087q.924 1.366.943 3.045q-.02 1.466-.708 2.72q-.688 1.253-1.923 2.011zm-2.67-17.27q-.309 0-.539-.23q-.23-.23-.23-.54q0-.309.23-.539q.23-.23.54-.23q.31 0 .539.23q.23.23.23.54q0 .31-.23.539q-.23.23-.54.23m11.231 0q-.31 0-.539-.23q-.23-.23-.23-.54q0-.309.23-.539q.23-.23.54-.23q.309 0 .539.23q.23.23.23.54q0 .31-.23.539q-.23.23-.54.23M8.692 5.462q-.31 0-.54-.23q-.229-.23-.229-.54q0-.31.23-.54q.23-.229.54-.229q.309 0 .539.23q.23.23.23.54q0 .309-.23.539q-.23.23-.54.23m6.616 0q-.31 0-.54-.23q-.23-.23-.23-.54q0-.31.23-.54q.23-.229.54-.229q.31 0 .54.23q.229.23.229.54q0 .309-.23.539q-.23.23-.54.23"/></svg>