<svg xmlns="http://www.w3.org/2000/svg" width="1em" height="1em" viewBox="0 0 24 24"><path fill="currentColor" d="M11.48 17q-.1-3.54-2.35-6.141q-2.251-2.601-5.607-2.842q-.22-.011-.371-.16Q3 7.708 3 7.497q0-.21.165-.354q.166-.143.398-.112q3.002.217 5.294 2.175q2.291 1.957 3.143 4.902q.777-2.371 2.471-4.145Q16.165 8.188 18.36 7h-3.572q-.212 0-.356-.144t-.144-.357q0-.212.144-.356q.144-.143.356-.143h4.404q.344 0 .576.232q.232.232.232.576v4.404q0 .212-.144.356t-.357.144q-.212 0-.356-.144q-.143-.144-.143-.356V7.796q-2.71 1.425-4.577 3.804T12.481 17h1.365q.213 0 .356.144t.144.357q0 .212-.144.356q-.143.143-.356.143h-3.75q-.212 0-.356-.144t-.144-.357q0-.212.144-.356q.144-.143.356-.143z"/></svg>