<svg xmlns="http://www.w3.org/2000/svg" width="1em" height="1em" viewBox="0 0 24 24"><path fill="currentColor" d="M19.967 15.829L9.704 12.09l1.708-4.69l10.301 3.738zm-7.952-7.162l-1.025 2.82zm7.004 9.756L3.123 12.631l.348-.933l15.896 5.792zM6.767 10.858q-.873 0-1.484-.612q-.612-.611-.612-1.484q0-.874.612-1.485q.61-.612 1.484-.612t1.485.612q.611.611.611 1.485q0 .873-.61 1.484q-.612.612-1.486.612m-.001-1q.465 0 .781-.315t.316-.78t-.314-.781q-.315-.317-.78-.317t-.781.315q-.317.315-.317.78t.315.781q.314.317.78.317m4.224 1.629l8.393 3.061l.992-2.83l-8.36-3.05zm-4.203-2.7"/></svg>