<svg xmlns="http://www.w3.org/2000/svg" width="1em" height="1em" viewBox="0 0 24 24"><path fill="currentColor" d="m9.977 11.333l1.086-2.962q.16-.41.535-.596q.375-.187.785-.027l6.479 2.362q1.17.42 1.707 1.543q.537 1.122.096 2.293l-.425 1.125q-.13.304-.428.46q-.299.156-.602.025l-8.748-3.193q-.324-.13-.47-.419q-.146-.288-.015-.611m2.038-2.666q-.2.5-.343.957q-.143.457-.337.938l-.345.925zm6.535 9.58l-14.963-5.44q-.189-.067-.275-.259q-.085-.192-.018-.38q.068-.19.263-.278q.195-.088.383-.015l14.964 5.438q.188.068.274.26q.085.192.018.38q-.067.19-.262.278q-.196.088-.384.015M6.767 10.858q-.873 0-1.484-.612q-.612-.611-.612-1.484q0-.874.612-1.485q.61-.612 1.484-.612t1.485.612q.611.611.611 1.485q0 .873-.61 1.484q-.612.612-1.486.612m-.001-1q.465 0 .781-.315t.316-.78t-.314-.781q-.315-.317-.78-.317t-.781.315q-.317.315-.317.78t.315.781q.314.317.78.317m4.224 1.629l8.393 3.061l.339-.95q.266-.8-.08-1.54q-.348-.74-1.137-1.016l-6.49-2.375zm-4.203-2.7"/></svg>