<svg xmlns="http://www.w3.org/2000/svg" width="1em" height="1em" viewBox="0 0 24 24"><path fill="currentColor" d="M20.962 16H3.038q-.44 0-.739-.299q-.299-.3-.299-.74V8.5q0-.213.144-.356Q2.288 8 2.5 8t.356.144Q3 8.287 3 8.5V15h8.5V9.038q0-.44.299-.739q.3-.299.74-.299H19q1.238 0 2.119.881T22 11v3.962q0 .44-.299.739q-.3.299-.74.299M12.5 15H21v-4q0-.825-.587-1.412T19 9h-6.5zm0-6v6zm-5.498 4.115q.883 0 1.498-.617q.615-.618.615-1.5q0-.883-.617-1.498q-.618-.615-1.5-.615q-.883 0-1.498.617q-.615.618-.615 1.5q0 .883.617 1.498q.618.615 1.5.615m-.002-1q-.463 0-.79-.326q-.325-.326-.325-.789t.326-.79q.326-.325.789-.325t.79.326q.325.326.325.789t-.326.79q-.326.325-.789.325M7 11"/></svg>