<svg xmlns="http://www.w3.org/2000/svg" width="1em" height="1em" viewBox="0 0 24 24"><path fill="currentColor" d="M7.885 6.577q-.69 0-1.192-.501q-.5-.501-.5-1.191q0-.69.5-1.192q.501-.5 1.192-.5q.69 0 1.191.5q.5.501.5 1.192q0 .69-.5 1.191q-.501.5-1.191.5M13.5 19H8.05q-.69 0-1.243-.443q-.553-.444-.69-1.134L4.148 7.585q-.061-.225.094-.405q.156-.18.406-.18q.177 0 .308.11q.13.11.167.286l2.012 9.989q.057.23.278.423q.222.192.452.192H13.5q.213 0 .357.143T14 18.5q0 .213-.143.357q-.144.143-.357.143m5.327 1.952L16.523 17h-7.22q-.551 0-.935-.332q-.383-.331-.514-.845l-1.177-5.62q-.217-1.026.466-1.75q.684-.722 1.595-.722q.702 0 1.29.419q.587.42.749 1.146L11.992 15h3.712q.39 0 .725.198t.552.571l2.711 4.683q.104.177.05.378q-.055.2-.232.305t-.378.049q-.201-.055-.305-.232"/></svg>