<svg xmlns="http://www.w3.org/2000/svg" width="1em" height="1em" viewBox="0 0 24 24"><path fill="currentColor" d="M9.538 13V8h7.924q1.237 0 2.118.881T20.462 11v2zm1-4v3zm-7 6.77v-1h16.924v1zM5.654 13q-.904 0-1.51-.606t-.606-1.51q0-.903.606-1.509q.606-.606 1.51-.606t1.51.606q.605.606.605 1.51q0 .903-.606 1.51q-.605.605-1.51.605m0-1q.475 0 .796-.32q.32-.321.32-.795q0-.474-.32-.795q-.321-.32-.795-.32q-.474 0-.795.32q-.32.32-.32.795q0 .474.32.794q.32.321.795.321m4.884 0h8.924v-1q0-.825-.588-1.412T17.462 9h-6.924zm-4.884-1.115"/></svg>