<svg xmlns="http://www.w3.org/2000/svg" width="1em" height="1em" viewBox="0 0 24 24"><path fill="currentColor" d="m9.704 12.09l1.708-4.69l7.45 2.71q1.17.42 1.707 1.543q.537 1.122.096 2.293l-.698 1.883zm2.311-3.423q-.2.5-.343.957q-.143.457-.337.938l-.345.925zm-8.892 3.964l.348-.933l15.896 5.792l-.348.933zm3.644-1.773q-.873 0-1.484-.612q-.612-.611-.612-1.484q0-.874.612-1.485q.61-.612 1.484-.612t1.485.612q.611.611.611 1.485q0 .873-.61 1.484q-.612.612-1.486.612m-.001-1q.465 0 .781-.315t.316-.78t-.314-.781q-.315-.317-.78-.317t-.781.315q-.317.315-.317.78t.315.781q.314.317.78.317m4.224 1.629l8.393 3.061l.339-.95q.266-.8-.08-1.54q-.348-.74-1.137-1.016l-6.49-2.375zm-4.203-2.7"/></svg>