<svg xmlns="http://www.w3.org/2000/svg" width="1em" height="1em" viewBox="0 0 24 24"><path fill="currentColor" d="M6.365 17.192q-.913 0-1.553-.64q-.639-.639-.639-1.552H2.25V6h14.077l5.423 5.115V15h-1.615q0 .913-.64 1.553q-.64.64-1.553.64q-.913 0-1.553-.64q-.639-.64-.639-1.553H8.558q0 .904-.64 1.548t-1.553.644m7.885-6.615h5.462L15.904 7H14.25zm-5.5 0h4.5V7h-4.5zm-5.5 0h4.5V7h-4.5zm3.115 5.673q.525 0 .888-.363T7.615 15q0-.525-.362-.888t-.888-.362q-.525 0-.887.363T5.115 15q0 .525.363.888t.887.362m11.577 0q.525 0 .888-.363t.362-.887q0-.525-.362-.888t-.888-.362q-.525 0-.887.363t-.363.887q0 .525.363.888t.887.362"/></svg>