<svg xmlns="http://www.w3.org/2000/svg" width="1em" height="1em" viewBox="0 0 24 24"><path fill="currentColor" d="m8.927 15.42l8.708-2.312q.336-.081.533-.367q.197-.285.117-.603q-.081-.317-.38-.447q-.3-.13-.617-.049l-2.526.689l-4-3.75l-1.054.234l2.4 4.2l-2.746.677l-1.25-.95l-.604.173zM19.385 19H4.615q-.67 0-1.143-.472Q3 18.056 3 17.385v-2.577q.883-.327 1.441-1.088Q5 12.96 5 12t-.559-1.72Q3.883 9.52 3 9.192V6.615q0-.67.472-1.143Q3.944 5 4.615 5h14.77q.67 0 1.143.472q.472.472.472 1.143v10.77q0 .67-.472 1.143q-.472.472-1.143.472"/></svg>