<svg xmlns="http://www.w3.org/2000/svg" width="1em" height="1em" viewBox="0 0 24 24"><path fill="currentColor" d="M6.365 17.192q-.913 0-1.553-.64q-.639-.639-.639-1.552h-.308q-.666 0-1.14-.475q-.475-.474-.475-1.14V7.623q0-.679.475-1.15Q3.199 6 3.864 6h11.83q.311 0 .594.115t.498.325l4.465 4.197q.236.217.367.524q.131.306.131.645v1.579q0 .666-.474 1.14q-.475.475-1.14.475q0 .913-.64 1.553q-.64.64-1.553.64q-.913 0-1.553-.64q-.639-.64-.639-1.553H8.558q0 .904-.64 1.548t-1.553.644m7.885-6.615h5.462l-3.635-3.404q-.096-.077-.202-.125T15.654 7H14.25zm-5.5 0h4.5V7h-4.5zm-5.5 0h4.5V7H3.865q-.269 0-.442.173t-.173.442zm3.115 5.673q.525 0 .888-.363T7.615 15q0-.525-.362-.888t-.888-.362q-.525 0-.887.363T5.115 15q0 .525.363.888t.887.362m11.577 0q.525 0 .888-.363t.362-.887q0-.525-.362-.888t-.888-.362q-.525 0-.887.363t-.363.887q0 .525.363.888t.887.362M8.296 14h7.716q.213-.45.734-.821q.521-.371 1.196-.371q.675 0 1.168.342q.492.342.763.85h.262q.269 0 .442-.173t.173-.442v-1.808H3.25v1.808q0 .269.173.442t.442.173h.57q.213-.45.734-.821q.521-.371 1.196-.371q.675 0 1.168.342q.492.342.763.85m12.454-2.423H3.25z"/></svg>