<svg xmlns="http://www.w3.org/2000/svg" width="1em" height="1em" viewBox="0 0 24 24"><path fill="currentColor" d="M18.404 8.88q-.595.59-1.366.897t-1.569.306q-.798 0-1.561-.3q-.764-.298-1.362-.902l-1.875-1.875q-.446-.452-1.012-.678q-.565-.226-1.16-.226t-1.16.226q-.564.226-1.01.678L4.8 8.516l-.713-.714l1.51-1.529q.602-.598 1.36-.897q.76-.3 1.54-.3q.782 0 1.53.3q.749.299 1.352.897l1.875 1.875q.474.48 1.037.704q.563.225 1.178.225q.616 0 1.17-.226q.555-.226 1.032-.703l1.529-1.51l.713.714zm0 4.424q-.6.598-1.365.897q-.766.299-1.564.299t-1.564-.299q-.766-.3-1.365-.897l-1.875-1.875q-.446-.452-1.012-.678q-.565-.226-1.16-.226t-1.16.226q-.564.226-1.01.678L4.8 12.939l-.713-.689l1.51-1.554q.602-.598 1.36-.897q.76-.299 1.54-.299q.782 0 1.53.299q.749.3 1.352.897l1.875 1.875q.468.48 1.024.704q.557.225 1.172.225t1.18-.226q.564-.226 1.041-.703l1.529-1.51l.713.714zm-.025 4.423q-.599.598-1.352.897q-.754.3-1.552.3t-1.564-.31t-1.365-.906l-1.9-1.856q-.446-.452-1.012-.678q-.565-.226-1.16-.226t-1.16.226q-.564.226-1.01.678l-1.529 1.51l-.688-.689l1.51-1.554q.598-.598 1.353-.897q.754-.299 1.53-.299q.787 0 1.54.3q.752.298 1.359.896l1.875 1.875q.477.477 1.032.703q.554.226 1.17.226q.615 0 1.178-.225q.563-.224 1.037-.704l1.529-1.51l.688.714z"/></svg>