<svg xmlns="http://www.w3.org/2000/svg" width="1em" height="1em" viewBox="0 0 24 24"><path fill="currentColor" d="M8.25 13.73q.31 0 .52-.21t.21-.52q0-.31-.21-.52t-.52-.21q-.31 0-.52.21t-.21.52q0 .31.21.52t.52.21m3.75 0q.31 0 .52-.21t.21-.52q0-.31-.21-.52t-.52-.21q-.31 0-.52.21t-.21.52q0 .31.21.52t.52.21m3.75 0q.31 0 .52-.21t.21-.52q0-.31-.21-.52t-.52-.21q-.31 0-.52.21t-.21.52q0 .31.21.52t.52.21M12 21q-1.664 0-3.12-.626q-1.454-.626-2.542-1.713q-1.087-1.088-1.713-2.542Q4 14.666 4 13.001q0-1.664.626-3.12q.626-1.454 1.713-2.542q1.088-1.087 2.542-1.713Q10.334 5 11.999 5q1.664 0 3.12.626q1.454.626 2.542 1.713q1.087 1.088 1.713 2.542q.626 1.453.626 3.118q0 1.664-.626 3.12q-.626 1.454-1.713 2.542q-1.088 1.087-2.542 1.713q-1.453.626-3.118.626M2.781 7.262q-.16-.16-.16-.354q0-.195.16-.354L5.554 3.78q.14-.14.344-.15q.204-.01.364.15t.16.354q0 .194-.16.353L3.488 7.262q-.14.14-.344.15q-.204.01-.363-.15m18.438 0q-.16.16-.354.16q-.194 0-.353-.16l-2.774-2.774q-.14-.14-.15-.344q-.01-.204.15-.363q.16-.16.354-.16q.195 0 .354.16l2.773 2.773q.14.14.15.344q.01.204-.15.364M12 20q2.906 0 4.953-2.047T19 13q0-2.906-2.047-4.953T12 6Q9.094 6 7.047 8.047T5 13q0 2.906 2.047 4.953T12 20"/></svg>