<svg xmlns="http://www.w3.org/2000/svg" width="1em" height="1em" viewBox="0 0 24 24"><path fill="currentColor" d="M8.308 16.5q-.344 0-.576-.232q-.232-.232-.232-.576v-.384q0-.344.232-.576q.232-.232.576-.232h7.384q.344 0 .576.232q.232.232.232.576v.384q0 .344-.232.576q-.232.232-.576.232zm0-7q-.344 0-.576-.232q-.232-.232-.232-.576v-.384q0-.344.232-.576q.232-.232.576-.232h7.384q.344 0 .576.232q.232.232.232.576v.384q0 .344-.232.576q-.232.232-.576.232zM3.5 21q-.213 0-.356-.144Q3 20.712 3 20.5t.144-.356Q3.287 20 3.5 20h17q.213 0 .356.144T21 20.5q0 .212-.144.356q-.143.143-.356.143zm0-17q-.213 0-.356-.144T3 3.5q0-.212.144-.356Q3.287 3 3.5 3h17q.213 0 .356.144q.144.144.144.357q0 .212-.144.356Q20.713 4 20.5 4z"/></svg>