<svg xmlns="http://www.w3.org/2000/svg" width="1em" height="1em" viewBox="0 0 24 24"><path fill="currentColor" d="M11.5 20.5v-4.192H8.02q-.414 0-.717-.303T7 15.288q0-.413.303-.716t.716-.303H11.5V9.731H5.02q-.414 0-.717-.303T4 8.712q0-.414.303-.717t.716-.303H11.5V3.5q0-.213.144-.356Q11.788 3 12 3t.356.144q.143.143.143.356v4.192h6.48q.414 0 .717.303t.303.717q0 .413-.303.716t-.716.303H12.5v4.538h3.48q.414 0 .717.303t.303.716q0 .414-.303.717t-.716.303H12.5V20.5q0 .213-.144.356Q12.212 21 12 21t-.356-.144q-.143-.143-.143-.356"/></svg>