<svg xmlns="http://www.w3.org/2000/svg" width="1em" height="1em" viewBox="0 0 24 24"><path fill="currentColor" d="M4.27 21q-.214 0-.357-.143q-.144-.144-.144-.357v-17q0-.213.144-.357Q4.056 3 4.269 3q.214 0 .357.143q.143.144.143.357v17q0 .213-.143.357q-.143.143-.357.143m4.096-4.692q-.413 0-.716-.303t-.303-.717q0-.413.303-.716t.716-.303h4.847q.413 0 .716.303t.303.716q0 .414-.303.717t-.716.303zm0-6.577q-.413 0-.716-.303t-.303-.716q0-.414.303-.717t.716-.303h10.847q.413 0 .716.303t.303.717q0 .413-.303.716t-.716.303z"/></svg>