<svg xmlns="http://www.w3.org/2000/svg" width="1em" height="1em" viewBox="0 0 24 24"><path fill="currentColor" d="M8.615 20q-.413 0-.716-.303t-.303-.716V12.5H3.5q-.213 0-.356-.144Q3 12.212 3 12t.144-.356q.143-.143.356-.143h4.096V5.02q0-.414.303-.717T8.615 4q.414 0 .717.303t.303.716V11.5h4.73V8.02q0-.414.303-.717T15.385 7q.413 0 .716.303t.303.716V11.5H20.5q.213 0 .356.144q.144.144.144.357t-.144.356q-.143.143-.356.143h-4.096v3.48q0 .414-.303.717t-.716.303q-.414 0-.717-.303t-.303-.716V12.5h-4.73v6.48q0 .414-.303.717T8.615 20"/></svg>