<svg xmlns="http://www.w3.org/2000/svg" width="1em" height="1em" viewBox="0 0 24 24"><path fill="currentColor" d="M13.5 13.615q.908 0 1.579-.568q.671-.568.671-1.432h3.75v-7q0-.23-.192-.423Q19.115 4 18.885 4H8.115q-.23 0-.423.192q-.192.193-.192.423v7h3.75q0 .864.674 1.432t1.576.568M8.115 17q-.69 0-1.152-.462q-.463-.463-.463-1.153V4.615q0-.69.463-1.152Q7.425 3 8.115 3h10.77q.69 0 1.152.463q.463.462.463 1.152v10.77q0 .69-.462 1.153q-.463.462-1.153.462zm-3 3q-.69 0-1.152-.462q-.463-.463-.463-1.153V6.615h1v11.77q0 .23.192.423q.193.192.423.192h11.77v1z"/></svg>