<svg xmlns="http://www.w3.org/2000/svg" width="1em" height="1em" viewBox="0 0 24 24"><path fill="currentColor" d="m17.371 18.587l-.656-.656q-.128-.13-.306-.13t-.307.13t-.129.304q0 .175.129.303l.86.86q.186.187.419.187q.232 0 .419-.187l2.098-2.067q.129-.13.139-.297q.01-.169-.139-.317q-.129-.129-.316-.129t-.317.13zM18 22.115q-1.671 0-2.836-1.164T14 18.115q0-1.67 1.164-2.835T18 14.115q1.671 0 2.836 1.165T22 18.115q0 1.672-1.164 2.836Q19.67 22.115 18 22.115M8.385 12L5.346 7.242q-.267-.404-.04-.823Q5.533 6 6.017 6h8.06q.538 0 1.014.244t.79.683l3.506 4.963q-.331-.077-.715-.12q-.384-.045-.707-.04q-2.565.012-4.38 1.763q-1.816 1.751-1.95 4.282q0 .058.003.113q.002.054.014.112H6.017q-.484 0-.711-.42q-.227-.418.04-.822z"/></svg>