<svg xmlns="http://www.w3.org/2000/svg" width="1em" height="1em" viewBox="0 0 24 24"><path fill="currentColor" d="M19 12q-.213 0-.357-.144q-.143-.143-.143-.356V7.108l-1.771 1.746q-.14.14-.339.134q-.198-.007-.347-.153q-.137-.134-.137-.341q0-.207.14-.348l2.389-2.37q.242-.241.565-.241q.323 0 .565.242l2.389 2.37q.146.145.136.343q-.01.198-.155.354T21.588 9q-.201 0-.348-.146l-1.74-1.74V11.5q0 .213-.144.356Q19.212 12 19 12M4.53 20.192q-.52 0-.737-.444q-.217-.444.081-.848l2.577-3.46q.242-.323.646-.323t.646.323l2.816 3.752h8.538l-5-6.65l-3 3.993l-.634-.843l2.988-3.982q.242-.323.646-.323t.646.323l5.385 7.19q.298.404.077.848q-.221.444-.723.444zm6.567-1"/></svg>