<svg xmlns="http://www.w3.org/2000/svg" width="1em" height="1em" viewBox="0 0 24 24"><path fill="currentColor" d="M11.5 4.346v-2q0-.212.144-.356T12 1.846t.356.144q.143.144.143.356v2q0 .213-.144.356q-.144.144-.357.144t-.356-.144q-.143-.143-.143-.356M7.587 5.7L5.992 4.125q-.146-.151-.146-.36q0-.207.146-.353t.35-.147q.205 0 .358.147l1.58 1.58q.147.146.157.354q.01.208-.147.354t-.356.146q-.201 0-.347-.146M4 14.427q0-.137.015-.273q.016-.137.066-.267L5.985 8.5q.073-.238.281-.37q.209-.13.465-.13h3.192v-.827q0-.29.183-.5q.182-.211.452-.211h.65q.182 0 .267.124q.085.124.006.289q-.146.383-.232.781q-.086.399-.109.82q-.02.21-.169.358q-.148.147-.36.147H6.889l-1.61 4.404h8.266q.213 0 .356.144q.144.143.144.356t-.144.356q-.143.144-.356.144H5V19h14v-3.058q0-.212.144-.356t.357-.144q.212 0 .356.144q.143.144.143.356v5.443q0 .256-.18.436t-.438.179q-.257 0-.435-.18q-.178-.179-.178-.435V20H5.231v1.385q0 .256-.18.436T4.613 22q-.257 0-.435-.18Q4 21.642 4 21.386zm5.27 2.996q.31 0 .52-.21q.21-.21.21-.52q0-.31-.21-.52t-.52-.211H7.307q-.31 0-.521.21q-.21.21-.21.52q0 .31.21.52t.52.211zm5.46 0h1.962q.31 0 .521-.21q.21-.21.21-.52q0-.31-.21-.52t-.52-.211H14.73q-.31 0-.52.21q-.211.21-.211.52q0 .31.21.52t.52.211M5 14.385V19zM16.602 9.74l-.796-.796q-.13-.129-.304-.135q-.175-.007-.323.141t-.148.313q0 .166.148.314l.858.858q.242.242.565.242q.323 0 .565-.242l2.27-2.264q.128-.129.138-.304q.01-.175-.138-.323t-.314-.145q-.165.003-.313.145zm.706-4.76q1.67 0 2.835 1.165t1.165 2.836t-1.165 2.835q-1.164 1.165-2.835 1.165t-2.836-1.165q-1.164-1.164-1.164-2.835t1.164-2.836q1.165-1.164 2.836-1.164"/></svg>