<svg xmlns="http://www.w3.org/2000/svg" width="1em" height="1em" viewBox="0 0 24 24"><path fill="currentColor" d="M11.5 4.846v-3h1v3zM7.921 6.06L5.633 3.77l.713-.713l2.289 2.288zM4 22v-7.846L6.162 8h3.761V6.462h1.564q-.274.58-.419 1.203q-.145.623-.145 1.316V9H6.888l-1.61 4.385h7.44q.251.292.545.545q.295.253.637.455H5V19h14v-3.883q.275-.055.515-.148q.24-.092.485-.202V22h-1.23v-2H5.23v2zm2.577-4.577H10v-1.461H6.577zm7.423 0h3.423v-1.461H14zM5 19v-4.615zm11.602-8l3.148-3.142l-.627-.627l-2.521 2.51l-1.11-1.11l-.627.632zm.706 1.98q-1.671 0-2.836-1.164t-1.164-2.835q0-1.671 1.164-2.836q1.165-1.164 2.836-1.164t2.835 1.164q1.165 1.165 1.165 2.836t-1.165 2.835q-1.164 1.165-2.835 1.165"/></svg>