<svg xmlns="http://www.w3.org/2000/svg" width="1em" height="1em" viewBox="0 0 24 24"><path fill="currentColor" d="M7 15h10v-1H7zm0-3h3.385v-.885H8.517q.673-.82 1.548-1.372q.875-.55 1.935-.55q1.348 0 2.414.773q1.067.774 1.532 2.034h.935q-.485-1.635-1.831-2.663q-1.346-1.03-3.05-1.03q-1.225 0-2.282.606q-1.056.606-1.833 1.575V8.615H7zm5.003 9q-1.866 0-3.51-.708q-1.643-.709-2.859-1.924q-1.216-1.214-1.925-2.856Q3 13.87 3 12.003q0-1.866.708-3.51q.709-1.643 1.924-2.859q1.214-1.216 2.856-1.925Q10.13 3 11.997 3q1.866 0 3.51.708q1.643.709 2.859 1.924q1.216 1.214 1.925 2.856Q21 10.13 21 11.997q0 1.866-.708 3.51q-.709 1.643-1.924 2.859q-1.214 1.216-2.856 1.925Q13.87 21 12.003 21"/></svg>