<svg xmlns="http://www.w3.org/2000/svg" width="1em" height="1em" viewBox="0 0 24 24"><path fill="currentColor" d="M8.23 12q-.213 0-.356.144t-.143.356V16q0 .213.144.356q.144.144.356.144q.213 0 .357-.144q.143-.144.143-.356v-3.5q0-.213-.144-.356T8.23 12m7.539-5q-.213 0-.356.144q-.144.143-.144.356V16q0 .213.144.356t.357.144q.213 0 .356-.144t.143-.356V7.5q0-.213-.144-.356Q15.981 7 15.77 7M12 14q-.212 0-.356.144q-.143.144-.143.356V16q0 .213.144.356q.144.144.357.144t.356-.144q.143-.143.143-.356v-1.5q0-.213-.144-.356Q12.212 14 12 14m-6.384 6q-.69 0-1.152-.462Q4 19.075 4 18.385V5.615q0-.69.463-1.152Q4.925 4 5.615 4h12.77q.69 0 1.152.463q.463.462.463 1.152v12.77q0 .69-.462 1.152q-.463.463-1.153.463zm6.386-8.5q.212 0 .356-.144q.143-.144.143-.357t-.144-.356Q12.212 10.5 12 10.5t-.356.144q-.143.144-.143.357t.144.356q.144.143.357.143"/></svg>