<svg xmlns="http://www.w3.org/2000/svg" width="1em" height="1em" viewBox="0 0 24 24"><path fill="currentColor" d="M2.692 17.02q.206-2.272 1.398-4.173q1.192-1.9 3.175-3.02l-1.561-2.7q-.13-.206-.066-.408q.066-.202.277-.327q.2-.105.393-.04q.192.065.319.256l1.565 2.715Q10.012 8.56 12 8.56q1.988 0 3.808.763l1.565-2.715q.127-.19.32-.256q.192-.065.392.04q.211.125.277.327q.065.202-.066.408l-1.561 2.7q1.983 1.12 3.175 3.02q1.192 1.901 1.398 4.172zm5.08-2.328q.445 0 .75-.307q.305-.308.305-.753t-.308-.75q-.307-.305-.752-.305q-.446 0-.75.307q-.305.308-.305.753q0 .446.307.75t.753.305m8.461 0q.446 0 .75-.307q.305-.308.305-.753t-.307-.75q-.308-.305-.753-.305t-.75.307q-.305.308-.305.753q0 .446.308.75t.752.305"/></svg>