<svg xmlns="http://www.w3.org/2000/svg" width="1em" height="1em" viewBox="0 0 24 24"><path fill="currentColor" d="M9.75 11.5q-.192 0-.317-.125t-.125-.316q0-.192.125-.318t.317-.126h4.5q.192 0 .317.125q.125.126.125.317t-.125.317q-.125.126-.317.126zm1 2.385q-.192 0-.317-.125q-.125-.126-.125-.317t.125-.317q.125-.126.317-.126h2.5q.192 0 .317.125t.125.316q0 .192-.125.318t-.317.126zm.212 6.307q-.535 0-.976-.32q-.442-.32-.584-.855l-.56-1.952q-1.257-.738-2.05-2.086T6 12q0-1.63.792-2.979t2.05-2.086l.56-1.952q.142-.535.584-.855t.976-.32h2.076q.535 0 .976.32q.442.32.584.855l.56 1.952q1.257.738 2.05 2.086T18 12q0 1.63-.792 2.979t-2.05 2.086l-.56 1.952q-.142.535-.584.855t-.976.32zM12 17q2.075 0 3.538-1.463T17 12q0-2.075-1.463-3.537T12 7Q9.925 7 8.463 8.463T7 12q0 2.075 1.463 3.538T12 17"/></svg>