<svg xmlns="http://www.w3.org/2000/svg" width="1em" height="1em" viewBox="0 0 24 24"><path fill="currentColor" d="M9.308 14.192v-.884h5.384v.884zm-1-3v-.884h7.384v.884zM7.615 22q-.69 0-1.152-.462Q6 21.075 6 20.385V3.615q0-.69.463-1.152Q6.925 2 7.615 2h8.77q.69 0 1.152.463q.463.462.463 1.152v16.77q0 .69-.462 1.152q-.463.463-1.153.463zM7 19.5v.885q0 .23.192.423q.193.192.423.192h8.77q.23 0 .423-.192q.192-.193.192-.423V19.5zm0-1h10v-13H7zm0-14h10v-.885q0-.23-.192-.423Q16.615 3 16.385 3h-8.77q-.23 0-.423.192Q7 3.385 7 3.615zm0 0V3zm0 15V21z"/></svg>