<svg xmlns="http://www.w3.org/2000/svg" width="1em" height="1em" viewBox="0 0 24 24"><path fill="currentColor" d="m18.538 21l-3.288-3.308l.688-.713l2.1 2.094v-4.861h1v4.861l2.1-2.075l.689.694zM3 21V3h9.5L17 7.5v5.038h-2.962V21zm9-13h4l-4-4zM5.962 18.23h8.076q-.079-.987-.595-1.813q-.516-.827-1.374-1.311l.768-1.373q.04-.081.005-.177q-.034-.096-.127-.146q-.075-.05-.158-.025q-.084.025-.125.105l-.792 1.404q-.384-.161-.795-.245q-.411-.084-.842-.084q-.432 0-.836.087t-.807.242l-.783-1.404q-.05-.086-.143-.105q-.094-.02-.18.03q-.02 0-.08.318l.776 1.373q-.852.484-1.38 1.31q-.527.827-.608 1.815m2.23-1.212q-.161 0-.282-.12q-.122-.122-.122-.284q0-.161.122-.282q.12-.121.282-.121q.162 0 .273.12q.112.122.112.283q0 .162-.115.283q-.116.121-.27.121m3.635 0q-.162 0-.283-.12t-.12-.284q0-.161.12-.282t.283-.121q.161 0 .283.12t.12.283q0 .162-.12.283t-.283.121"/></svg>