<svg xmlns="http://www.w3.org/2000/svg" width="1em" height="1em" viewBox="0 0 24 24"><path fill="currentColor" d="M3 12.003q0-1.866.709-3.51t1.924-2.859Q6.848 4.418 8.49 3.709Q10.133 3 12 3q.498 0 .977.059q.479.058.95.156q-.189.202-.338.422q-.149.219-.272.469q-.33-.043-.649-.074Q12.35 4 12 4Q8.65 4 6.325 6.325T4 12q0 3.35 2.325 5.675T12 20q3.35 0 5.675-2.325T20 12q0-.35-.032-.668q-.031-.319-.074-.65q.25-.122.47-.271q.219-.15.42-.338q.099.471.157.95q.059.48.059.977q0 1.868-.708 3.51q-.709 1.643-1.924 2.858q-1.214 1.215-2.856 1.923Q13.87 21 12.003 21q-1.866 0-3.51-.708q-1.643-.709-2.859-1.924q-1.216-1.214-1.925-2.856Q3 13.87 3 12.003m14.618-3.118q-1.041 0-1.772-.729q-.73-.728-.73-1.77q0-1.04.728-1.77q.728-.731 1.77-.731q1.04 0 1.77.728q.731.729.731 1.77q0 1.04-.728 1.77q-.729.732-1.77.732"/></svg>