<svg xmlns="http://www.w3.org/2000/svg" width="1em" height="1em" viewBox="0 0 24 24"><path fill="currentColor" d="M11.5 12.38V8.193q0-.213.143-.356q.144-.144.357-.144t.357.144q.143.143.143.356v4.189l1.746-1.74q.14-.141.341-.15q.201-.01.367.155q.16.16.16.354t-.16.354l-2.389 2.388q-.242.243-.565.243q-.323 0-.565-.243l-2.389-2.388q-.14-.14-.153-.341t.153-.367q.16-.16.351-.162q.191-.003.357.156zM7.615 22q-.69 0-1.152-.462Q6 21.075 6 20.385V3.615q0-.69.463-1.152Q6.925 2 7.615 2h8.77q.69 0 1.152.463q.463.462.463 1.152v16.77q0 .69-.462 1.152q-.463.463-1.153.463zM7 16.538h10V5.5H7zm3.615 3.116h2.77q.161 0 .273-.112q.111-.111.111-.273q0-.161-.111-.273q-.112-.111-.273-.111h-2.77q-.161 0-.273.111q-.111.112-.111.273q0 .162.111.273q.112.112.273.112"/></svg>