<svg xmlns="http://www.w3.org/2000/svg" width="1em" height="1em" viewBox="0 0 24 24"><path fill="currentColor" d="M17.5 15.692q-1.535 0-2.613-1.079q-1.08-1.078-1.08-2.613t1.08-2.613q1.078-1.08 2.613-1.08t2.613 1.08q1.08 1.078 1.08 2.613t-1.08 2.613q-1.078 1.08-2.613 1.08m0-.885q.454 0 .857-.133q.403-.133.793-.398l-3.927-3.927q-.265.39-.398.793t-.133.857q0 1.165.821 1.987q.822.82 1.987.82m2.277-1.157q.304-.41.417-.803q.114-.393.114-.847q0-1.165-.821-1.987q-.822-.82-1.987-.82q-.454 0-.857.132t-.793.398zM6 22V2h12v4.923h-1V5.5H7v13h10v-1.423h1V22zm1-2.5V21h10v-1.5zm0-15h10V3H7zm0 0V3zm0 15V21z"/></svg>