<svg xmlns="http://www.w3.org/2000/svg" width="1em" height="1em" viewBox="0 0 24 24"><path fill="currentColor" d="m7 9.277l-1.788.992q-.293.162-.577.09q-.285-.07-.447-.363l-1.23-2.154q-.162-.292-.09-.586q.07-.294.363-.456L7.98 4h1.211q.283 0 .45.166q.166.167.166.45v.192q0 .882.654 1.537Q11.117 7 12 7t1.538-.655q.654-.655.654-1.537v-.193q0-.282.167-.449q.166-.166.449-.166h1.211l4.75 2.8q.293.162.364.456q.07.294-.09.586l-1.231 2.154q-.162.292-.444.36q-.281.069-.58-.093L17 9.283v9.948q0 .329-.22.549q-.22.22-.55.22H7.77q-.33 0-.55-.22q-.22-.22-.22-.55z"/></svg>