<svg xmlns="http://www.w3.org/2000/svg" width="1em" height="1em" viewBox="0 0 24 24"><path fill="currentColor" d="M6.615 19.462q-.67 0-1.143-.473Q5 18.517 5 17.846V15q0-.69.463-1.153q.462-.462 1.152-.462h10.77q.69 0 1.152.462Q19 14.31 19 15v2.846q0 .671-.472 1.143q-.472.473-1.143.473zm.231-3h10.308q.367 0 .607-.24q.239-.24.239-.607v-.384q0-.33-.259-.588t-.587-.258H6.846q-.329 0-.587.258T6 15.231v.384q0 .368.24.607q.239.24.606.24m4.502-3.958l-2.95-4.002q-.186-.267-.274-.568q-.087-.301-.037-.624q.223-1.556 1.246-2.548q1.023-.993 2.667-.993t2.667.993q1.023.992 1.246 2.548q.05.323-.037.624q-.088.3-.274.568l-2.95 4.002q-.242.329-.652.329t-.652-.33"/></svg>