<svg xmlns="http://www.w3.org/2000/svg" width="1em" height="1em" viewBox="0 0 24 24"><path fill="currentColor" d="m13.51 21.671l-7.125-2.088v-6.737h2.08q.156 0 .293.028q.136.028.273.078l6.02 2.21q.409.144.717.565q.309.421.309.81q0 .294-.17.455q-.17.162-.453.162h-1.202q-.567 0-1.053-.07t-.893-.217l-1.433-.502q-.161-.055-.313.016q-.152.07-.202.207q-.05.162.025.318q.075.156.236.211l1.571.525q.454.16.977.22q.523.061 1.021.061h5.158q.704 0 1.179.44q.475.44.475 1.137l-6.529 2.16q-.192.061-.478.064q-.285.003-.483-.053M2.385 19.923v-6q0-.46.308-.768q.309-.309.769-.309h.846q.46 0 .768.309q.309.308.309.768v6q0 .46-.309.768q-.309.309-.768.309h-.846q-.46 0-.769-.309q-.308-.308-.308-.768m10.54-10.275l5.34-5.315q.14-.14.332-.134q.191.007.338.153q.14.14.14.344t-.14.344l-5.445 5.445q-.242.242-.565.242q-.323 0-.565-.242l-2.62-2.62q-.146-.146-.152-.353q-.007-.208.158-.354q.146-.14.354-.134q.208.007.354.153z"/></svg>