<svg xmlns="http://www.w3.org/2000/svg" width="1em" height="1em" viewBox="0 0 24 24"><path fill="currentColor" d="M12.925 11.05L9.387 7.512l.713-.689l2.825 2.825l5.675-5.65l.688.689zm-6.521 7.604l7.565 2.208l5.989-1.85q-.03-.456-.276-.657q-.247-.201-.547-.201h-4.743q-.636 0-1.152-.05q-.515-.05-1.055-.239l-2.19-.717l.338-.988l2.025.732q.482.183 1.096.22q.613.036 1.68.042q0-.467-.171-.756q-.173-.288-.494-.402l-5.754-2.111q-.057-.02-.105-.03q-.048-.009-.106-.009h-2.1zm-4 2.346v-8.154h6.08q.137 0 .283.028q.146.028.277.078l5.78 2.117q.536.204.923.733q.388.529.388 1.352h3q.903 0 1.384.565q.481.566.481 1.435v.615l-6.98 2.154l-7.616-2.22V21zm1-1h2v-6.154h-2z"/></svg>