<svg xmlns="http://www.w3.org/2000/svg" width="1em" height="1em" viewBox="0 0 24 24"><path fill="currentColor" d="M11.997 5q2.93 0 4.966 2.033Q19 9.067 19 11.997q0 2.93-2.033 4.966Q14.933 19 12.003 19q-2.93 0-4.966-2.033Q5 14.933 5 12.003q0-2.93 2.033-4.966Q9.067 5 11.997 5M12 18q2.5 0 4.25-1.75T18 12q0-2.5-1.75-4.25T12 6Q9.5 6 7.75 7.75T6 12q0 2.5 1.75 4.25T12 18m0-2.885q1.065 0 1.938-.572q.874-.572 1.293-1.543H8.769q.42.971 1.293 1.543t1.938.572m-3.23-5.112q0 .345.232.575q.234.23.578.23t.575-.233q.23-.234.23-.578q0-.345-.234-.575q-.233-.23-.577-.23q-.345 0-.575.233q-.23.234-.23.578m4.846 0q0 .345.234.575q.233.23.577.23q.345 0 .575-.233q.23-.234.23-.578q0-.345-.233-.575q-.234-.23-.578-.23t-.575.233q-.23.234-.23.578M2 6V4.39q0-1.005.696-1.698Q3.39 2 4.385 2H6v1H4.385q-.589 0-.987.398T3 4.385V6zm2.39 16q-1.005 0-1.698-.695Q2 20.609 2 19.615V18h1v1.615q0 .589.398.987t.987.398H6v1zM18 21.808v-1h1.615q.589 0 .987-.398t.398-.987v-1.615h1v1.61q0 1.005-.695 1.697q-.696.693-1.69.693zM21 6V4.385q0-.589-.398-.987T19.615 3H18V2h1.61q1.005 0 1.698.696Q22 3.39 22 4.385V6zm-9 6"/></svg>