<svg xmlns="http://www.w3.org/2000/svg" width="1em" height="1em" viewBox="0 0 24 24"><path fill="currentColor" d="M11.997 5q2.93 0 4.966 2.033Q19 9.067 19 11.997q0 2.93-2.033 4.966Q14.933 19 12.003 19q-2.93 0-4.966-2.033Q5 14.933 5 12.003q0-2.93 2.033-4.966Q9.067 5 11.997 5M12 15.115q1.065 0 1.938-.572q.874-.572 1.293-1.543H8.769q.42.971 1.293 1.543t1.938.572m-3.23-5.112q0 .345.232.575q.234.23.578.23t.575-.233q.23-.234.23-.578q0-.345-.234-.575q-.233-.23-.577-.23q-.345 0-.575.233q-.23.234-.23.578m4.846 0q0 .345.234.575q.233.23.577.23q.345 0 .575-.233q.23-.234.23-.578q0-.345-.233-.575q-.234-.23-.578-.23t-.575.233q-.23.234-.23.578M2 6V2h4v1H3v3zm0 16v-4h1v3h3v1zm16-.192v-1h3v-3h1v4zM21 6V3h-3V2h4v4z"/></svg>