<svg xmlns="http://www.w3.org/2000/svg" width="1em" height="1em" viewBox="0 0 24 24"><path fill="currentColor" d="M11.997 5q2.93 0 4.966 2.033Q19 9.067 19 11.997q0 2.93-2.033 4.966Q14.933 19 12.003 19q-2.93 0-4.966-2.033Q5 14.933 5 12.003q0-2.93 2.033-4.966Q9.067 5 11.997 5M12 18q2.5 0 4.25-1.75T18 12q0-2.5-1.75-4.25T12 6Q9.5 6 7.75 7.75T6 12q0 2.5 1.75 4.25T12 18m0-2.885q.835 0 1.57-.373q.736-.373 1.236-1.032q.13-.237.007-.473q-.125-.237-.411-.237H9.598q-.286 0-.41.237q-.125.236.006.473q.5.66 1.236 1.032q.735.373 1.57.373m-3.23-5.112q0 .345.232.575q.234.23.578.23t.575-.234q.23-.233.23-.577q0-.345-.234-.575q-.233-.23-.577-.23q-.345 0-.575.233q-.23.234-.23.578m4.846 0q0 .345.234.575q.233.23.577.23q.345 0 .575-.234q.23-.233.23-.577q0-.345-.233-.575q-.234-.23-.578-.23t-.575.233q-.23.234-.23.578M2.5 6q-.212 0-.356-.144Q2 5.713 2 5.5V4.385q0-.994.696-1.69Q3.39 2 4.385 2H5.5q.213 0 .356.144Q6 2.288 6 2.5t-.144.356Q5.713 3 5.5 3H4.385q-.589 0-.987.398T3 4.385V5.5q0 .213-.144.356T2.5 6m1.886 16q-.994 0-1.69-.695Q2 20.609 2 19.615V18.5q0-.213.144-.356Q2.288 18 2.5 18t.356.144q.143.144.143.356v1.115q0 .589.398.987t.987.398H5.5q.213 0 .356.144T6 21.5q0 .212-.144.356T5.5 22zm14.115-.192q-.213 0-.356-.144T18 21.307q0-.213.144-.356t.356-.143h1.115q.589 0 .987-.398t.398-.987v-1.115q0-.213.144-.357t.357-.143q.212 0 .356.143q.143.144.143.357v1.115q0 .994-.695 1.69q-.696.695-1.69.695zM21 5.5V4.385q0-.589-.398-.987T19.615 3H18.5q-.213 0-.356-.144T18 2.5q0-.212.144-.356T18.5 2h1.115q.994 0 1.69.696Q22 3.39 22 4.385V5.5q0 .213-.144.356Q21.712 6 21.5 6t-.356-.144Q21 5.713 21 5.5M12 12"/></svg>