<svg xmlns="http://www.w3.org/2000/svg" width="1em" height="1em" viewBox="0 0 24 24"><path fill="currentColor" d="M12 21.654q-3.321 0-5.66-.797T4 18.654q0-.685.625-1.245t1.679-.907l.817.738q-.888.258-1.505.628q-.616.37-.616.786q0 .765 1.967 1.383q1.968.617 5.033.617t5.033-.617Q19 19.419 19 18.654q0-.416-.616-.786t-1.505-.628l.817-.738q1.054.346 1.679.907q.625.56.625 1.245q0 1.406-2.34 2.203t-5.66.797m0-3.462q-.369 0-.712-.14t-.634-.379l-6.3-5.556q-.171-.16-.263-.358q-.091-.2-.091-.41V9.386q0-.225.066-.437q.067-.212.238-.371l6.338-5.894q.271-.266.622-.398q.35-.133.735-.133q.384 0 .736.133q.352.132.623.398l6.338 5.894q.171.16.238.371q.066.212.066.437v1.961q0 .212-.091.41q-.092.2-.263.36l-6.3 5.555q-.29.24-.634.38q-.343.14-.712.14m-.042-3.7q.357 0 .675-.123q.319-.122.593-.372l5.532-4.925l-6.058-5.63q-.156-.145-.33-.217q-.176-.072-.376-.072t-.375.072q-.175.072-.319.216L5.18 9.135l5.506 4.898q.277.254.596.356q.319.103.676.103M9.003 10.25q.445 0 .75-.308q.305-.307.305-.752q0-.446-.308-.75t-.753-.305q-.445 0-.75.307q-.305.308-.305.753t.308.75q.307.305.753.305m1.593 1.465q.979.39 2.022.194q1.044-.197 1.847-.901q.735-.648.988-1.595q.253-.946-.08-1.863zm1.407-4.465q.445 0 .75-.308q.305-.307.305-.752q0-.446-.308-.75t-.753-.305q-.445 0-.75.307q-.305.308-.305.753t.308.75q.307.305.753.305m-.034 1.592"/></svg>