<svg xmlns="http://www.w3.org/2000/svg" width="1em" height="1em" viewBox="0 0 24 24"><path fill="currentColor" d="m20 16.48l-6.89-5.382q-.54-.429-1.215-.335q-.674.093-1.078.658l-2.515 3.47q-.212.292-.547.335q-.336.043-.609-.174L4 12.558v-1.943q0-.51.444-.727t.848.081l1.939 1.454l3.967-5.583q.404-.565 1.1-.661q.696-.096 1.237.338L16.654 8h1.73q.672 0 1.144.472q.472.472.472 1.143zM4 19v-5.212l2.683 2.162q.54.435 1.224.338q.683-.096 1.087-.661l2.521-3.456q.212-.292.538-.335q.326-.044.599.174L20 17.737V19z"/></svg>