<svg xmlns="http://www.w3.org/2000/svg" width="1em" height="1em" viewBox="0 0 24 24"><path fill="currentColor" d="m7.827 20.02l-3.289-3.29l.689-.707l2.1 2.094v-6.655q0-.27-.173-.443t-.442-.173H3.846q-.671 0-1.143-.472T2.23 9.231V4h1v5.23q0 .27.173.443t.442.173h2.866q.67 0 1.143.472q.472.472.472 1.144v6.636l2.094-2.075l.694.708zm8.346 0l-3.288-3.29l.688-.707l2.1 2.094v-6.655q0-.672.472-1.144q.472-.472 1.143-.472h2.866q.27 0 .442-.173t.173-.442V4h1v5.23q0 .672-.472 1.144q-.472.472-1.143.472h-2.866q-.269 0-.442.173t-.173.443v6.661l2.094-2.1l.695.708z"/></svg>