<svg xmlns="http://www.w3.org/2000/svg" width="1em" height="1em" viewBox="0 0 24 24"><path fill="currentColor" d="m11.5 13.508l-1.765-1.766q-.14-.14-.335-.14t-.335.14q-.14.14-.14.348t.14.34l2.389 2.39q.242.242.565.242q.323 0 .566-.243l2.388-2.388q.14-.134.14-.341t-.14-.348q-.14-.14-.347-.14t-.341.14l-1.766 1.766V9.096q0-.212-.144-.356t-.356-.144q-.213 0-.366.144t-.153.356zM12.003 21q-1.866 0-3.51-.708q-1.643-.709-2.859-1.924q-1.216-1.214-1.925-2.856Q3 13.87 3 12.003q0-1.866.708-3.51q.709-1.643 1.924-2.859q1.214-1.216 2.856-1.925Q10.13 3 11.997 3q1.866 0 3.51.708q1.643.709 2.859 1.924q1.216 1.214 1.925 2.856Q21 10.13 21 11.997q0 1.866-.708 3.51q-.709 1.643-1.924 2.859q-1.214 1.216-2.856 1.925Q13.87 21 12.003 21"/></svg>