<svg xmlns="http://www.w3.org/2000/svg" width="1em" height="1em" viewBox="0 0 24 24"><path fill="currentColor" d="M10.588 12.5H15q.213 0 .356-.144q.144-.144.144-.357t-.144-.356Q15.213 11.5 15 11.5h-4.412l1.766-1.765q.14-.134.14-.341q0-.207-.14-.348t-.348-.14q-.207 0-.34.14l-2.39 2.389q-.241.242-.241.565q0 .323.242.565l2.388 2.389q.14.14.345.13q.203-.009.344-.15q.14-.14.14-.347t-.14-.34zm1.415 8.5q-1.866 0-3.51-.708q-1.643-.709-2.859-1.924q-1.216-1.214-1.925-2.856Q3 13.87 3 12.003q0-1.866.708-3.51q.709-1.643 1.924-2.859q1.214-1.216 2.856-1.925Q10.13 3 11.997 3q1.866 0 3.51.708q1.643.709 2.859 1.924q1.216 1.214 1.925 2.856Q21 10.13 21 11.997q0 1.866-.708 3.51q-.709 1.643-1.924 2.859q-1.214 1.216-2.856 1.925Q13.87 21 12.003 21"/></svg>