<svg xmlns="http://www.w3.org/2000/svg" width="1em" height="1em" viewBox="0 0 24 24"><path fill="currentColor" d="M17.501 18.615q-.84 0-1.42-.58q-.581-.579-.581-1.419q0-.84.58-1.42t1.42-.58q.315 0 .594.095q.28.095.521.297V9.846H21.5v1.539h-2v5.23q0 .84-.58 1.42t-1.419.58m-7.001-7.23q-1.237 0-2.119-.882T7.5 8.385q0-1.238.881-2.12q.881-.88 2.119-.88t2.119.88q.881.882.881 2.12q0 1.237-.881 2.118t-2.119.882m-7 7.23V16.97q0-.625.36-1.161q.361-.537.97-.835q1.455-.698 2.853-1.028q1.398-.33 2.817-.33q.858 0 1.626.105q.768.105 1.51.334q-.707.961-.857 2.209q-.15 1.247.42 2.352z"/></svg>