<svg xmlns="http://www.w3.org/2000/svg" width="1em" height="1em" viewBox="0 0 24 24"><path fill="currentColor" d="M17.5 15.5H15q-.213 0-.356.144q-.144.144-.144.357t.144.356q.144.143.356.143h2.692q.344 0 .576-.232q.232-.232.232-.576V13q0-.213-.144-.356q-.144-.144-.357-.144t-.356.144q-.143.144-.143.356zm-11-7H9q.213 0 .356-.144q.144-.144.144-.357t-.144-.356Q9.213 7.5 9 7.5H6.308q-.344 0-.576.232q-.232.232-.232.576V11q0 .213.144.356q.144.144.357.144t.356-.144Q6.5 11.213 6.5 11zM4.615 19q-.69 0-1.152-.462Q3 18.075 3 17.385V6.615q0-.69.463-1.152Q3.925 5 4.615 5h14.77q.69 0 1.152.463q.463.462.463 1.152v10.77q0 .69-.462 1.152q-.463.463-1.153.463z"/></svg>