<svg xmlns="http://www.w3.org/2000/svg" width="1em" height="1em" viewBox="0 0 24 24"><path fill="currentColor" d="M17.5 15.5H15q-.213 0-.357.143q-.143.144-.143.357t.143.357q.144.143.357.143h2.692q.348 0 .578-.23q.23-.23.23-.578V13q0-.213-.143-.357q-.144-.143-.357-.143t-.357.143q-.143.144-.143.357zm-11-7H9q.213 0 .357-.143Q9.5 8.213 9.5 8t-.143-.357Q9.213 7.5 9 7.5H6.308q-.348 0-.578.23q-.23.23-.23.578V11q0 .213.143.357q.144.143.357.143t.357-.143Q6.5 11.213 6.5 11zM4.615 19q-.69 0-1.152-.462Q3 18.075 3 17.385V6.615q0-.69.463-1.152Q3.925 5 4.615 5h14.77q.69 0 1.152.463q.463.462.463 1.152v10.77q0 .69-.462 1.152q-.463.463-1.153.463zm0-1h14.77q.23 0 .423-.192q.192-.193.192-.423V6.615q0-.23-.192-.423Q19.615 6 19.385 6H4.615q-.23 0-.423.192Q4 6.385 4 6.615v10.77q0 .23.192.423q.193.192.423.192M4 18V6z"/></svg>