<svg xmlns="http://www.w3.org/2000/svg" width="1em" height="1em" viewBox="0 0 24 24"><path fill="currentColor" d="M11.992 22q-2.075 0-3.9-.785q-1.824-.785-3.172-2.138q-1.349-1.354-2.134-3.174Q2 14.083 2 12.008q0-2.097.785-3.92q.785-1.824 2.138-3.18q1.354-1.356 3.174-2.132Q9.917 2 11.993 2q2.1 0 3.924.776q1.825.776 3.178 2.129t2.129 3.178Q22 9.908 22 12.007q0 2.076-.776 3.896q-.776 1.82-2.132 3.174q-1.356 1.353-3.18 2.138q-1.823.785-3.92.785m-.042-3.188l6.837-6.837l-6.837-6.837l-6.837 6.837zm-3.475-4.337v-4h5.88l-1.588-1.6l.708-.708l2.808 2.808l-2.808 2.808l-.708-.708l1.589-1.6H9.475v3z"/></svg>