<svg xmlns="http://www.w3.org/2000/svg" width="1em" height="1em" viewBox="0 0 24 24"><path fill="currentColor" d="M10.613 12.5h4.195q.213 0 .356-.143q.144-.144.144-.357t-.144-.357q-.143-.143-.356-.143h-4.195l1.747-1.746q.14-.14.15-.341q.01-.201-.156-.367q-.16-.16-.354-.16t-.354.16l-2.388 2.389q-.243.242-.243.565q0 .323.243.565l2.388 2.389q.14.14.342.153t.366-.153q.16-.16.16-.354t-.16-.354zM5.615 20q-.67 0-1.143-.472Q4 19.056 4 18.385V5.615q0-.67.472-1.143Q4.944 4 5.615 4h4.7q-.136-.765.367-1.383Q11.185 2 12 2q.835 0 1.338.617q.502.618.347 1.383h4.7q.67 0 1.143.472q.472.472.472 1.143v12.77q0 .67-.472 1.143q-.472.472-1.143.472zm0-1h12.77q.23 0 .423-.192q.192-.193.192-.423V5.615q0-.23-.192-.423Q18.615 5 18.385 5H5.615q-.23 0-.423.192Q5 5.385 5 5.615v12.77q0 .23.192.423q.193.192.423.192M12 4.442q.325 0 .538-.212t.212-.538q0-.325-.213-.537T12 2.942q-.325 0-.537.213t-.213.537q0 .325.213.538t.537.212M5 19V5z"/></svg>