<svg xmlns="http://www.w3.org/2000/svg" width="1em" height="1em" viewBox="0 0 24 24"><path fill="currentColor" d="M11.992 22q-2.075 0-3.9-.785q-1.824-.785-3.172-2.138q-1.349-1.354-2.134-3.174Q2 14.083 2 12.008q0-2.097.785-3.92q.785-1.824 2.138-3.18q1.354-1.356 3.174-2.132Q9.917 2 11.993 2q2.1 0 3.924.776q1.825.776 3.178 2.129t2.129 3.178Q22 9.908 22 12.007q0 2.076-.776 3.896q-.776 1.82-2.132 3.174q-1.356 1.353-3.18 2.138q-1.823.785-3.92.785m-.617-3.763q.25.25.575.25t.575-.25l5.662-5.662q.25-.25.25-.6t-.25-.6l-5.662-5.662q-.25-.25-.575-.25t-.575.25l-5.662 5.662q-.25.25-.25.6t.25.6zm-1.9-6.762v2.5q0 .213-.144.356q-.144.144-.357.144t-.356-.144q-.143-.143-.143-.356v-3q0-.225.138-.362t.362-.138h5.38l-1.24-1.246q-.14-.146-.15-.344q-.01-.198.16-.368q.156-.155.35-.155t.354.16l1.888 1.888q.243.242.243.565q0 .323-.243.565l-1.887 1.89q-.14.14-.344.15q-.204.01-.374-.16q-.155-.156-.155-.344q0-.188.16-.354l1.24-1.246zM12 21q3.775 0 6.388-2.613T21 12q0-3.775-2.613-6.387T12 3Q8.225 3 5.613 5.613T3 12q0 3.775 2.613 6.388T12 21"/></svg>