<svg xmlns="http://www.w3.org/2000/svg" width="1em" height="1em" viewBox="0 0 24 24"><path fill="currentColor" d="M8.462 17.173q-2.272 0-3.867-1.565Q3 14.042 3 11.778Q3 9.516 4.595 7.94Q6.19 6.365 8.462 6.365h8.73q1.587 0 2.697 1.092T21 10.135q0 1.586-1.11 2.678q-1.111 1.09-2.698 1.09H8.923q-.88 0-1.517-.614q-.637-.614-.637-1.498t.627-1.52q.626-.636 1.527-.636h8.308v1H8.923q-.479 0-.816.328q-.338.327-.338.806q0 .48.338.807q.337.328.816.328h8.289q1.165-.006 1.976-.801q.812-.796.812-1.968q0-1.163-.821-1.967q-.821-.803-1.987-.803h-8.73Q6.61 7.36 5.305 8.648Q4 9.937 4 11.786q0 1.823 1.305 3.1q1.305 1.276 3.157 1.287h8.769v1z"/></svg>