<svg xmlns="http://www.w3.org/2000/svg" width="1em" height="1em" viewBox="0 0 24 24"><path fill="currentColor" d="M11.987 20.5q-.214 0-.357-.143q-.143-.144-.143-.357v-1.535q-1.183-.153-2.043-.76q-.86-.605-1.365-1.672q-.079-.177.007-.382q.085-.205.28-.284q.176-.073.378.003t.287.259q.444.904 1.161 1.387q.718.484 1.88.484q1.14 0 2.083-.568q.943-.569.943-1.832q0-1.067-.694-1.714q-.694-.648-2.598-1.26q-1.939-.616-2.73-1.41q-.79-.793-.79-2.066q0-1.394 1.07-2.227q1.069-.833 2.13-.9V4q0-.213.144-.357q.143-.143.357-.143q.213 0 .356.143q.144.144.144.357v1.523q.892.092 1.582.459q.69.366 1.18 1.041q.109.171.058.36q-.051.188-.245.286q-.177.093-.37.042q-.192-.051-.344-.228q-.383-.466-.935-.75q-.553-.283-1.376-.283q-1.158 0-1.954.613q-.796.612-.796 1.587q0 .921.653 1.492q.654.571 2.62 1.193q1.82.577 2.68 1.481q.858.905.858 2.272q0 1.506-1.06 2.393q-1.06.886-2.551.996V20q0 .213-.144.357q-.143.143-.356.143"/></svg>