<svg xmlns="http://www.w3.org/2000/svg" width="1em" height="1em" viewBox="0 0 24 24"><path fill="currentColor" d="M2.23 15.5v-5.385q0-.666.475-1.14Q3.18 8.5 3.846 8.5h1.73q.667 0 1.142.475q.474.474.474 1.14V15.5h-1v-2H3.231v2zm1-3h2.962v-2.385q0-.269-.173-.442T5.577 9.5h-1.73q-.27 0-.443.173t-.173.442zm6.347 3v-7h3.385q.666 0 1.14.475q.475.474.475 1.14v3.77q0 .666-.475 1.14q-.474.475-1.14.475zm1-1h2.385q.269 0 .442-.173t.173-.442v-3.77q0-.269-.173-.442t-.442-.173h-2.385zm6.965-.45l-.707-.713q.275-.267.412-.606q.138-.34.138-.727q0-.412-.138-.739q-.137-.327-.412-.602l.707-.738q.403.402.623.932q.22.53.22 1.143t-.22 1.132q-.22.518-.623.918m2.383 2.421l-.72-.74q.727-.724 1.146-1.68q.418-.954.418-2.051q0-1.102-.418-2.052q-.419-.95-1.145-1.679l.719-.746q.873.871 1.358 2.02q.486 1.148.486 2.454q0 1.307-.486 2.452q-.485 1.146-1.358 2.022"/></svg>