<svg xmlns="http://www.w3.org/2000/svg" width="1em" height="1em" viewBox="0 0 24 24"><path fill="currentColor" d="M5.5 16.962q-.213 0-.357-.144Q5 16.675 5 16.462v-.77h-.385q-.69 0-1.152-.462Q3 14.767 3 14.077V7.73q0-.69.463-1.153t1.152-.463h14.77q.69 0 1.152.463Q21 7.04 21 7.73v6.346q0 .69-.462 1.153t-1.153.462H19v.77q0 .213-.143.356q-.144.144-.357.144t-.357-.144t-.143-.356v-.77H6v.77q0 .213-.143.356t-.357.144M16.615 12.5q.633 0 1.067-.434q.433-.433.433-1.066t-.433-1.066q-.434-.434-1.067-.434q-.632 0-1.066.434q-.434.433-.434 1.066t.434 1.066q.434.434 1.066.434m-9.423 0h4.846q.349 0 .578-.23q.23-.23.23-.578v-1.384q0-.348-.23-.578q-.23-.23-.578-.23H7.192q-.348 0-.578.23q-.23.23-.23.578v1.384q0 .348.23.578q.23.23.578.23"/></svg>