<svg xmlns="http://www.w3.org/2000/svg" width="1em" height="1em" viewBox="0 0 24 24"><path fill="currentColor" d="M11.962 18.73q-1.22-.834-2.6-1.282Q7.98 17 6.5 17q-1.187 0-2.312.299q-1.125.3-2.188.818V6.127q1.027-.58 2.17-.854Q5.313 5 6.5 5q1.47 0 2.85.452T12 6.654v10.87q1.23-.795 2.628-1.16Q16.025 16 17.5 16q.9 0 1.775.15t1.725.47V5.637q.275.099.528.208q.253.11.472.28v11.991q-1.063-.519-2.188-.818Q18.687 17 17.5 17q-1.5 0-2.92.42q-1.418.418-2.618 1.31M14 15V6.5l5-5v9zm-3 2.048V7.244q-1.056-.561-2.184-.903Q7.688 6 6.5 6q-.9 0-1.797.165q-.897.166-1.703.573v9.887q.85-.287 1.725-.456Q5.6 16 6.5 16q1.188 0 2.323.237q1.135.236 2.177.811m0 0V7.244z"/></svg>