<svg xmlns="http://www.w3.org/2000/svg" width="1em" height="1em" viewBox="0 0 24 24"><path fill="currentColor" d="M5.235 15.204q-.358-.739-.547-1.537Q4.5 12.87 4.5 12.05q0-3.138 2.19-5.344Q8.88 4.5 12 4.5h1.387l-2.1-2.1l.707-.708L15.302 5l-3.308 3.308l-.707-.708l2.1-2.1H12q-2.712 0-4.606 1.907Q5.5 9.313 5.5 12.05q0 .592.121 1.208q.121.615.364 1.196zm6.77 7.104L8.699 19l3.308-3.308l.707.708l-2.1 2.1H12q2.712 0 4.606-1.907Q18.5 14.687 18.5 11.95q0-.592-.121-1.208q-.121-.615-.364-1.196l.75-.75q.358.739.547 1.537q.188.798.188 1.617q0 3.138-2.19 5.344Q15.12 19.5 12 19.5h-1.387l2.1 2.1z"/></svg>