<svg xmlns="http://www.w3.org/2000/svg" width="1em" height="1em" viewBox="0 0 24 24"><path fill="currentColor" d="M12.615 21q-.69 0-1.152-.462Q11 20.075 11 19.385v-6.77q0-.69.463-1.152q.462-.463 1.152-.463h6.77q.69 0 1.152.463q.463.462.463 1.152v6.77q0 .69-.462 1.152q-.463.463-1.153.463zm0-1h6.77q.23 0 .423-.192q.192-.193.192-.423v-6.77q0-.23-.192-.423q-.193-.192-.423-.192h-6.77q-.23 0-.423.192q-.192.193-.192.423v6.77q0 .23.192.423q.193.192.423.192M7 17.23V8.616q0-.69.463-1.152Q7.925 7 8.615 7h8.616v1H8.615q-.23 0-.423.192Q8 8.385 8 8.615v8.616zm-4-4V4.616q0-.69.463-1.152Q3.925 3 4.615 3h8.616v1H4.615q-.23 0-.423.192Q4 4.385 4 4.615v8.616zM12 20v-8z"/></svg>