<svg xmlns="http://www.w3.org/2000/svg" width="1em" height="1em" viewBox="0 0 24 24"><path fill="currentColor" d="M11.962 18.73q-1.22-.834-2.6-1.282Q7.98 17 6.5 17q-.78 0-1.534.13q-.753.132-1.466.42q-.544.217-1.022-.121Q2 17.09 2 16.496V6.87q0-.37.205-.669q.205-.298.537-.423q.881-.389 1.833-.583Q5.527 5 6.5 5q1.47 0 2.847.452q1.378.452 2.653 1.202v10.87q1.256-.8 2.665-1.162Q16.075 16 17.5 16q.823 0 1.378.063q.555.064 1.545.345q.212.057.394.01q.183-.049.183-.318V5.638q.144.03.276.08q.132.051.25.136q.237.125.356.356q.118.23.118.505v9.743q0 .594-.507.923q-.506.329-1.108.13q-.695-.269-1.419-.39Q18.242 17 17.5 17q-1.5 0-2.92.42q-1.418.418-2.618 1.31M14 15V6.5l5-5v9z"/></svg>