<svg xmlns="http://www.w3.org/2000/svg" width="1em" height="1em" viewBox="0 0 24 24"><path fill="currentColor" d="M1.615 15.654v-.462q0-.343.233-.575q.232-.232.575-.232H11.7L2.885 7.446v2.939q0 .212-.144.356t-.357.144q-.213 0-.356-.144t-.143-.356v-3.35q0-.46.4-.69q.402-.23.805-.012l11.295 6.255V6.192q0-.343.232-.575q.232-.232.575-.232h1.98q.364 0 .688.152q.325.153.548.438l3.598 4.302q.18.223.279.488q.1.264.1.547v4.264q0 .344-.233.576q-.232.233-.575.233h-1.423q.327 1.096-.375 2.048t-1.894.952q-1.193 0-1.895-.952t-.375-2.048H8.654q.327 1.096-.375 2.048t-1.894.952q-1.193 0-1.895-.952t-.375-2.048H2.346q-.31 0-.52-.21q-.21-.21-.21-.521M6.384 18.5q.65 0 1.075-.444T7.885 17q0-.612-.425-1.056q-.425-.444-1.075-.444t-1.075.444q-.425.444-.425 1.056q0 .612.425 1.056q.425.444 1.075.444m11.5 0q.65 0 1.075-.444T19.385 17q0-.612-.425-1.056q-.425-.444-1.075-.444t-1.075.444q-.425.444-.425 1.056q0 .612.425 1.056q.425.444 1.075.444m-2.5-7.77h5.707l-3.657-4.345h-2.05z"/></svg>