<svg xmlns="http://www.w3.org/2000/svg" width="1em" height="1em" viewBox="0 0 24 24"><path fill="currentColor" d="M11.962 18.454q-.18 0-.365-.046t-.334-.133q-1.101-.644-2.294-.96Q7.777 17 6.5 17q-.78 0-1.534.13q-.753.132-1.466.42q-.544.217-1.022-.121Q2 17.09 2 16.496V6.87q0-.37.205-.669q.205-.298.537-.423q.881-.389 1.833-.583Q5.527 5 6.5 5q1.47 0 2.847.452q1.378.452 2.653 1.202v10.87q1.256-.8 2.665-1.162Q16.075 16 17.5 16q.823 0 1.493.092q.67.093 1.43.316q.212.057.394.01q.183-.049.183-.318V5.638q.144.03.276.08q.132.051.25.136q.237.125.356.356q.118.23.118.505v9.743q0 .594-.507.923q-.506.329-1.108.13q-.695-.269-1.419-.39Q18.242 17 17.5 17q-1.296 0-2.527.315q-1.23.316-2.333.96q-.148.087-.324.133q-.176.046-.354.046m2.748-4.089q-.212.187-.461.078q-.249-.108-.249-.395V6.681q0-.081.038-.168t.093-.144l4.154-4.154q.211-.211.463-.096t.252.408v7.786q0 .106-.04.184t-.097.134zM11 17.048V7.244q-1.056-.58-2.184-.912Q7.688 6 6.5 6q-.925 0-1.713.165q-.789.166-1.422.42q-.153.057-.26.163Q3 6.854 3 7.008v9.136q0 .27.183.318q.182.048.394-.03q.606-.209 1.314-.32Q5.6 16 6.5 16q1.342 0 2.522.313q1.18.314 1.978.735m0 0V7.244z"/></svg>