<svg xmlns="http://www.w3.org/2000/svg" width="1em" height="1em" viewBox="0 0 24 24"><path fill="currentColor" d="M10.308 13.5q.213 0 .356-.144q.144-.144.144-.356V7q0-.213-.144-.356t-.357-.144q-.213 0-.356.144T9.808 7v6q0 .213.144.356t.356.144m3.385 0q.213 0 .356-.144t.143-.356V7q0-.213-.144-.356t-.356-.144q-.213 0-.356.144q-.144.143-.144.356v6q0 .213.144.356t.357.144M6.077 17l-1.704 1.704q-.379.379-.876.17Q3 18.668 3 18.134V4.615q0-.69.463-1.152Q3.925 3 4.615 3h14.77q.69 0 1.152.463q.463.462.463 1.152v10.77q0 .69-.462 1.153q-.463.462-1.153.462z"/></svg>