<svg xmlns="http://www.w3.org/2000/svg" width="1em" height="1em" viewBox="0 0 24 24"><path fill="currentColor" d="M1.615 16.385v-2H11.7L2.885 7.446v3.439h-1v-5h.384l12.116 6.703V5.385h3.538l4.462 5.346v5.654h-2.231q.327 1.096-.375 2.048t-1.894.952q-1.193 0-1.895-.952t-.375-2.048H8.654q.327 1.096-.375 2.048t-1.894.952q-1.193 0-1.895-.952t-.375-2.048zm4.77 2.115q.65 0 1.075-.444T7.885 17q0-.612-.425-1.056q-.425-.444-1.075-.444t-1.075.444q-.425.444-.425 1.056q0 .612.425 1.056q.425.444 1.075.444m11.5 0q.65 0 1.075-.444T19.385 17q0-.612-.425-1.056q-.425-.444-1.075-.444t-1.075.444q-.425.444-.425 1.056q0 .612.425 1.056q.425.444 1.075.444m-2.5-7.77h5.707l-3.657-4.345h-2.05z"/></svg>