<svg xmlns="http://www.w3.org/2000/svg" width="1em" height="1em" viewBox="0 0 24 24"><path fill="currentColor" d="M10.308 14.5q-.348 0-.578-.23q-.23-.23-.23-.578v-3.384q0-.348.23-.578q.23-.23.578-.23h3.384q.348 0 .578.23q.23.23.23.578v3.384q0 .348-.23.578q-.23.23-.578.23zM3 16.28v3.22q0 .213-.143.357Q2.713 20 2.5 20t-.357-.143Q2 19.713 2 19.5v-4.077q0-.348.23-.578q.23-.23.578-.23h4.057q.214 0 .357.144q.143.143.143.356q0 .214-.143.357t-.357.143H3.8q1.16 2.49 3.343 3.938Q9.327 21 12 21q2.812 0 5.087-1.6t3.27-4.202q.091-.252.27-.406q.18-.154.444-.092q.239.062.3.282q.06.22-.03.483q-1.081 2.939-3.622 4.737Q15.18 22 12 22q-2.912 0-5.264-1.497Q4.383 19.006 3 16.28M2.556 11q-.214 0-.332-.178q-.118-.178-.082-.41q.212-1.214.631-2.23q.42-1.017 1.133-2.036q.134-.202.342-.252t.379.121q.177.177.167.388q-.01.21-.15.424q-.598.861-.934 1.723q-.337.862-.556 1.887q-.062.238-.21.4q-.15.163-.388.163M11 2.588q0 .245-.153.39q-.153.147-.416.19q-1.039.174-1.878.536q-.84.361-1.701.96q-.208.14-.418.134q-.21-.006-.388-.183q-.146-.165-.109-.36t.215-.336q1.013-.707 2.024-1.13q1.01-.422 2.243-.627q.239-.037.41.088q.171.125.171.338m6.946 2.047q-.177.177-.39.17q-.214-.007-.421-.167q-.823-.598-1.685-.944q-.862-.346-1.887-.527q-.257-.042-.41-.191Q13 2.826 13 2.588q0-.213.159-.338t.391-.088q1.238.205 2.242.625q1.004.419 2.023 1.132q.197.135.247.343q.05.207-.116.373M21.412 11q-.245 0-.381-.162q-.137-.163-.198-.426q-.2-1.045-.54-1.903q-.34-.859-.995-1.688q-.14-.188-.144-.399q-.004-.21.173-.387q.165-.166.36-.125q.196.04.336.217q.752 1 1.18 2.023t.635 2.262q.037.251-.078.42q-.116.168-.348.168"/></svg>