<svg xmlns="http://www.w3.org/2000/svg" width="1em" height="1em" viewBox="0 0 24 24"><path fill="currentColor" d="M12 20q-1.649 0-3.108-.626q-1.46-.626-2.55-1.716q-1.09-1.09-1.716-2.55Q4 13.648 4 12q0-.965.212-1.849q.211-.884.59-1.671q.379-.788.916-1.46q.538-.672 1.19-1.22l6.107 6.108l-.707.707l-5.4-5.4q-.789.881-1.348 2.051Q5 10.436 5 12q0 2.9 2.05 4.95T12 19q2.9 0 4.95-2.05T19 12q0-2.617-1.76-4.651q-1.761-2.034-4.74-2.326V7h-1V4h.5q1.649 0 3.108.626q1.46.626 2.55 1.716q1.09 1.09 1.716 2.55Q20 10.352 20 12t-.626 3.108q-.626 1.46-1.716 2.55q-1.09 1.09-2.55 1.716Q13.648 20 12 20m-5.001-7.23q-.328 0-.548-.222q-.22-.222-.22-.55t.221-.547q.222-.22.55-.22t.547.221q.22.222.22.55t-.221.547q-.222.22-.55.22m5 5q-.327 0-.547-.221q-.22-.222-.22-.55t.221-.547q.222-.22.55-.22t.547.221q.22.222.22.55t-.221.547q-.222.22-.55.22m5-5q-.327 0-.547-.221q-.22-.222-.22-.55t.221-.547q.222-.22.55-.22t.547.221q.22.222.22.55t-.221.547q-.222.22-.55.22"/></svg>