<svg xmlns="http://www.w3.org/2000/svg" width="1em" height="1em" viewBox="0 0 24 24"><path fill="currentColor" d="M14.96 5.096q-.331 0-.559-.229q-.228-.229-.228-.56q0-.332.23-.56q.228-.228.56-.228q.331 0 .56.23q.227.228.227.56q0 .331-.229.56q-.229.227-.56.227m-.058 15.385q-.332 0-.56-.23q-.228-.228-.228-.56q0-.331.23-.56q.228-.227.56-.227q.332 0 .56.229q.227.229.227.56q0 .332-.229.56q-.229.228-.56.228m4-12.116q-.332 0-.56-.229q-.228-.229-.228-.56q0-.332.23-.56q.228-.228.56-.228q.332 0 .56.23q.227.228.227.56q0 .332-.229.56q-.229.227-.56.227m-.058 8.904q-.332 0-.56-.229q-.227-.229-.227-.56q0-.332.229-.56q.229-.228.56-.228q.332 0 .56.23q.228.228.228.56q0 .331-.23.56q-.228.227-.56.227m1.365-4.48q-.331 0-.559-.23q-.228-.228-.228-.56q0-.332.23-.56q.228-.227.56-.227q.331 0 .56.228q.227.23.227.561q0 .332-.229.56q-.229.227-.56.227M3 11.998q0-3.596 2.449-6.18q2.45-2.585 6-2.806q.226-.012.389.133q.162.146.162.36q0 .203-.157.349q-.156.146-.364.158q-3.16.196-5.32 2.494Q4 8.804 4 12q0 3.221 2.16 5.507q2.16 2.285 5.319 2.481q.208.012.364.162q.157.15.157.35q0 .213-.162.357q-.163.143-.39.131q-3.556-.22-6.002-2.808T3 11.997m9 1.503q-.633 0-1.066-.434Q10.5 12.633 10.5 12q0-.183.032-.34t.12-.3L9.046 9.735q-.14-.14-.13-.345q.009-.203.15-.344q.14-.14.334-.14t.335.14l1.625 1.606q.119-.064.64-.152q.633 0 1.066.434q.434.433.434 1.066t-.434 1.066q-.433.434-1.066.434"/></svg>