<svg xmlns="http://www.w3.org/2000/svg" width="1em" height="1em" viewBox="0 0 24 24"><path fill="currentColor" d="M9.385 2.5v-1h5.23v1zM10 15.865l-1.562-3.084q-.067-.14-.182-.21Q8.14 12.5 8 12.5H4.012q.182-3.163 2.482-5.332Q8.794 5 12 5q1.454 0 2.812.52q1.357.518 2.492 1.468l1.092-1.092l.708.708l-1.092 1.092q.857 1.03 1.38 2.251q.523 1.22.596 2.553h-3.67l-1.86-3.72q-.14-.286-.448-.286t-.448.287zM12 21q-3.206 0-5.506-2.168q-2.3-2.169-2.482-5.332h3.67l1.86 3.72q.14.286.448.295q.308.01.448-.277L14 10.135l1.562 3.084q.067.14.182.21q.116.071.256.071h3.988q-.182 3.163-2.482 5.332Q15.206 21 12 21"/></svg>