<svg xmlns="http://www.w3.org/2000/svg" width="1em" height="1em" viewBox="0 0 24 24"><path fill="currentColor" d="M9.385 18q-.539 0-1.015-.244q-.476-.244-.79-.683l-2.909-4.135q-.298-.428-.298-.938t.298-.938l2.91-4.097q.313-.438.78-.702Q8.827 6 9.385 6h9q.67 0 1.143.472q.472.472.472 1.143v8.77q0 .67-.472 1.143q-.472.472-1.143.472zm4.269-5.292l2.246 2.246q.14.14.344.15q.204.01.364-.15t.16-.354q0-.194-.16-.354L14.362 12l2.246-2.246q.14-.14.15-.344q.01-.204-.15-.364t-.354-.16q-.194 0-.354.16l-2.246 2.246l-2.246-2.246q-.14-.14-.345-.15q-.203-.01-.363.15t-.16.354q0 .194.16.354L12.946 12L10.7 14.246q-.14.14-.15.344q-.01.204.15.364t.354.16q.194 0 .354-.16z"/></svg>