<svg xmlns="http://www.w3.org/2000/svg" width="1em" height="1em" viewBox="0 0 24 24"><path fill="currentColor" d="M12.57 22q-1.935 0-3.62-.928t-2.72-2.584l-3.8-6.107l.303-.302q.269-.275.641-.312q.372-.036.684.177L8 14.556V5q0-.194.144-.347T8.5 4.5q.194 0 .347.153Q9 4.806 9 5v11.463l-4.815-3.228l2.894 4.68q.875 1.448 2.34 2.267q1.467.818 3.15.818q2.671 0 4.551-1.86Q19 17.278 19 14.587V5.5q0-.194.144-.347Q19.288 5 19.5 5q.194 0 .347.153q.153.153.153.347v9.088q0 3.096-2.164 5.254Q15.673 22 12.57 22m-.896-10.5V3q0-.194.144-.347t.357-.153q.213 0 .356.153t.143.347v8.5zm3.673 0V4q0-.194.144-.347t.357-.153q.213 0 .356.153t.143.347v7.5zm-3.754 4.75"/></svg>