<svg xmlns="http://www.w3.org/2000/svg" width="1em" height="1em" viewBox="0 0 24 24"><path fill="currentColor" d="M9.385 18q-.539 0-1.015-.244q-.476-.244-.79-.683L4 12l3.58-5.035q.314-.438.78-.702Q8.828 6 9.386 6h9q.67 0 1.143.472q.472.472.472 1.143v8.77q0 .67-.472 1.143q-.472.472-1.143.472zM19 17V7zm-9.615 0h9q.23 0 .423-.192q.192-.193.192-.423v-8.77q0-.23-.192-.423Q18.615 7 18.385 7h-9q-.289 0-.548.144q-.26.144-.414.356L5.22 12l3.204 4.5q.154.212.414.356t.548.144m1.669-1.692l2.6-2.6l2.6 2.6l.708-.708l-2.6-2.6l2.6-2.6l-.708-.708l-2.6 2.6l-2.6-2.6l-.708.708l2.6 2.6l-2.6 2.6z"/></svg>