<svg xmlns="http://www.w3.org/2000/svg" width="1em" height="1em" viewBox="0 0 24 24"><path fill="currentColor" d="M12.57 22q-1.935 0-3.62-.928t-2.72-2.584l-3.8-6.107l.303-.302q.269-.275.641-.312q.372-.036.684.177L8 14.556V5q0-.194.143-.347q.144-.153.357-.153q.194 0 .347.153Q9 4.806 9 5v6.5h2.673V3q0-.194.143-.347t.357-.153q.214 0 .357.153t.143.347v8.5h2.673V4q0-.194.143-.347t.357-.153q.214 0 .357.153t.143.347v7.5H19v-6q0-.194.143-.347Q19.287 5 19.5 5q.194 0 .347.153q.153.153.153.347v9.088q0 3.099-2.166 5.255Q15.667 22 12.569 22"/></svg>