<svg xmlns="http://www.w3.org/2000/svg" width="1em" height="1em" viewBox="0 0 24 24"><path fill="currentColor" d="m20.048 17.585l-2.263-1.081l1.873-4.74l2.067 3.97q.427.83-.185 1.558q-.611.73-1.492.293m-5.602-.912l.787-8.235q.05-.528.491-.675q.441-.148.938.054l2.115.83q.465.188.616.574q.151.387-.09.987l-2.536 6.465zm-7.208 0l-2.46-6.388q-.201-.543-.117-.99q.083-.447.568-.649l2.115-.829q.523-.207.951-.041q.428.166.478.586l.78 8.311zm-3.338.912q-.823.392-1.454-.267q-.63-.658-.165-1.506l2.111-4.049l1.83 4.74zm6.538-.912l-.892-9.52q-.05-.482.315-.798t.789-.317h2.7q.54 0 .847.346q.307.345.257.847l-.892 9.442z"/></svg>