<svg xmlns="http://www.w3.org/2000/svg" width="1em" height="1em" viewBox="0 0 24 24"><path fill="currentColor" d="M3.5 20q-.213 0-.357-.143Q3 19.713 3 19.5t.143-.357Q3.287 19 3.5 19h8V7.94q-.708-.128-1.25-.642T9.56 6H6.115l2.693 6.738q.105.237.111.486q.006.25-.044.491q-.225.92-1.103 1.41q-.878.49-1.772.49t-1.772-.49q-.878-.49-1.103-1.41q-.05-.242-.044-.491q.006-.249.111-.486L5.885 6H4.5q-.213 0-.357-.143Q4 5.713 4 5.5t.143-.357Q4.287 5 4.5 5h5.06q.165-.837.834-1.418T12 3q.937 0 1.606.582q.669.581.834 1.418h5.06q.213 0 .357.143q.143.144.143.357t-.143.357Q19.713 6 19.5 6h-1.385l2.693 6.738q.105.237.111.486q.006.25-.044.491q-.225.92-1.103 1.41q-.878.49-1.772.49t-1.772-.49q-.878-.49-1.103-1.41q-.05-.242-.044-.491q.006-.249.111-.486L17.885 6H14.44q-.148.785-.69 1.298t-1.25.642V19h8q.213 0 .357.143q.143.144.143.357t-.143.357Q20.713 20 20.5 20zm12.49-6.885h4.02L18 8.092zm-12 0h4.02L6 8.092zM12 7q.617 0 1.059-.441q.441-.442.441-1.059t-.441-1.059Q12.617 4 12 4t-1.059.441Q10.5 4.883 10.5 5.5t.441 1.059Q11.383 7 12 7"/></svg>