<svg xmlns="http://www.w3.org/2000/svg" width="1em" height="1em" viewBox="0 0 24 24"><path fill="currentColor" d="M9 11.77q-.31 0-.54-.23q-.23-.23-.23-.54q0-.31.23-.54q.23-.23.54-.23q.31 0 .54.23q.23.23.23.54q0 .31-.23.54q-.23.23-.54.23m6 0q-.31 0-.54-.23q-.23-.23-.23-.54q0-.31.23-.54q.23-.23.54-.23q.31 0 .54.23q.23.23.23.54q0 .31-.23.54q-.23.23-.54.23M5.615 21q-.67 0-1.143-.472Q4 20.056 4 19.385v-3.962q0-.346.209-.607q.208-.26.56-.33H5V10q0-1.458.548-2.728q.548-1.27 1.501-2.223q.953-.953 2.233-1.5Q10.562 3 12 3q1.458 0 2.728.548q1.27.548 2.223 1.501q.953.953 1.5 2.223Q19 8.542 19 10v4.487h.212q.351.069.57.33q.218.26.218.606v3.962q0 .67-.472 1.143q-.472.472-1.143.472zM5 15.423v3.962q0 .269.173.442t.442.173H7.5v-4.577zM8.5 20h3v-4.577h-3zM6 14.423h5.5V4.037q-2.13.119-3.815 1.781Q6 7.481 6 10zm6.5 0H18V10q0-2.52-1.685-4.182q-1.684-1.662-3.815-1.781zm0 5.577h3v-4.577h-3zm4 0h1.885q.269 0 .442-.173t.173-.442v-3.962h-2.5z"/></svg>