<svg xmlns="http://www.w3.org/2000/svg" width="1em" height="1em" viewBox="0 0 24 24"><path fill="currentColor" d="M8.23 11.77v-1.54h1.54v1.54zm6 0v-1.54h1.54v1.54zM4 21v-6.577h1V10q0-1.458.548-2.728q.548-1.27 1.5-2.223t2.23-1.501Q10.557 3 12 3q1.458 0 2.728.548q1.27.548 2.223 1.501q.953.953 1.5 2.223Q19 8.542 19 10v4.423h1V21zm1-1h2.5v-4.577H5zm3.5 0h3v-4.577h-3zM6 14.423h5.5V4.037q-2.13.119-3.815 1.781Q6 7.481 6 10zm6.5 0H18V10q0-2.52-1.685-4.182q-1.684-1.662-3.815-1.781zm0 5.577h3v-4.577h-3zm4 0H19v-4.577h-2.5z"/></svg>