<svg xmlns="http://www.w3.org/2000/svg" width="1em" height="1em" viewBox="0 0 24 24"><path fill="currentColor" d="M12 10h4.615V9H12zm0 5h4.615v-1H12zm-3-4.27q.508 0 .87-.36q.36-.362.36-.87t-.36-.87q-.362-.36-.87-.36t-.87.36q-.36.362-.36.87t.36.87q.362.36.87.36m0 5q.508 0 .87-.36q.36-.362.36-.87t-.36-.87q-.362-.36-.87-.36t-.87.36q-.36.362-.36.87t.36.87q.362.36.87.36M5.615 20q-.69 0-1.152-.462Q4 19.075 4 18.385V5.615q0-.69.463-1.152Q4.925 4 5.615 4h12.77q.69 0 1.152.463q.463.462.463 1.152v12.77q0 .69-.462 1.152q-.463.463-1.153.463z"/></svg>