<svg xmlns="http://www.w3.org/2000/svg" width="1em" height="1em" viewBox="0 0 24 24"><path fill="currentColor" d="M3 21V7h4v1H4v12h16V8h-3V7h4v14zm3.505-5.308q-.495 0-.846-.346q-.351-.347-.351-.841q0-.495.346-.846q.347-.351.841-.351q.495 0 .846.346q.351.347.351.841q0 .495-.346.846q-.347.351-.841.351m-1.197 2.981v-.298q0-.669.458-1.118q.459-.45 1.084-.45q.292 0 .613.132q.32.131.506.353l.856 1.012q.112.117.207.21q.095.092.199.16zm4-2.98v-.368q0-.665.757-1.091q.758-.426 1.935-.426t1.935.426q.757.426.757 1.091v.367zm9.384 2.98h-3.904q.085-.067.182-.156q.096-.09.186-.194l.875-1.03q.161-.212.503-.349q.341-.136.61-.136q.621 0 1.085.46q.463.46.463 1.107zm-6.687-5.98q-.495 0-.846-.347t-.351-.841q0-.495.346-.846q.347-.351.841-.351q.495 0 .846.346q.351.347.351.841q0 .495-.346.846q-.347.351-.841.351m5.5 3q-.495 0-.846-.346q-.351-.347-.351-.841q0-.495.346-.846q.347-.351.841-.351q.495 0 .846.346q.351.347.351.841q0 .495-.346.846q-.347.351-.841.351M8.737 8q.067-.277.095-.46q.028-.183.028-.407q0-.433-.193-.861q-.192-.429-.66-.982q-.517-.617-.794-1.316q-.278-.699-.278-1.391q0-.232.018-.473q.018-.24.074-.495h.885q-.056.322-.074.544q-.019.222-.019.424q0 .507.22 1.033q.219.526.638 1.084q.556.712.811 1.297q.256.585.256 1.136q0 .216-.018.433T9.652 8zm2.948 0q.067-.277.098-.46q.03-.183.03-.407q0-.433-.2-.861q-.202-.429-.657-.982q-.518-.617-.793-1.316q-.275-.699-.275-1.391q0-.232.016-.473q.015-.24.071-.495h.885q-.056.322-.072.544q-.015.222-.015.424q0 .507.216 1.033q.217.526.636 1.084q.556.712.812 1.297q.255.585.255 1.136q0 .216-.018.433T12.6 8zm3.019 0q.067-.277.095-.46q.028-.183.028-.407q0-.433-.192-.861q-.193-.429-.66-.982q-.517-.617-.795-1.316q-.278-.699-.278-1.391q0-.232.018-.473q.018-.24.074-.495h.885q-.056.322-.071.544q-.016.222-.016.424q0 .507.217 1.033q.216.526.635 1.084q.556.712.812 1.297t.256 1.136q0 .216-.019.433q-.018.217-.074.434z"/></svg>