<svg xmlns="http://www.w3.org/2000/svg" width="1em" height="1em" viewBox="0 0 24 24"><path fill="currentColor" d="M9.001 17.77q.328 0 .548-.222q.22-.222.22-.55t-.221-.547q-.222-.22-.55-.22t-.547.221q-.22.222-.22.55t.221.547q.222.22.55.22m3 0q.327 0 .547-.221q.22-.222.22-.55t-.221-.547q-.222-.22-.55-.22t-.547.221q-.22.222-.22.55t.221.547q.222.22.55.22m3 0q.327 0 .547-.221q.22-.222.22-.55t-.221-.547q-.222-.22-.55-.22t-.547.221q-.22.222-.22.55t.221.547q.222.22.55.22m-6-3q.327 0 .547-.221q.22-.222.22-.55t-.221-.547q-.222-.22-.55-.22t-.547.221q-.22.222-.22.55t.221.547q.222.22.55.22m3 0q.327 0 .547-.221q.22-.222.22-.55t-.221-.547q-.222-.22-.55-.22t-.547.221q-.22.222-.22.55t.221.547q.222.22.55.22m3 0q.327 0 .547-.221q.22-.222.22-.55t-.221-.547q-.222-.22-.55-.22t-.547.221q-.22.222-.22.55t.221.547q.222.22.55.22m-7.387-3.384h8.77V11q0-1.806-1.29-3.095q-1.29-1.29-3.095-1.29q-1.806 0-3.095 1.29q-1.29 1.29-1.29 3.095zm-3 9.615q-.69 0-1.152-.462Q3 20.075 3 19.385V4.615q0-.69.463-1.152Q3.925 3 4.615 3h14.77q.69 0 1.152.463q.463.462.463 1.152v14.77q0 .69-.462 1.152q-.463.463-1.153.463z"/></svg>