<svg xmlns="http://www.w3.org/2000/svg" width="1em" height="1em" viewBox="0 0 24 24"><path fill="currentColor" d="M8.692 21q-.343 0-.575-.232q-.232-.232-.232-.576V5.288q0-.343.232-.575q.232-.232.575-.232h1.616v-.673q0-.344.232-.576q.232-.232.575-.232h1.77q.343 0 .575.232q.232.232.232.576v.673h1.62q.344 0 .574.232q.23.232.23.575v6.266q0 .291-.184.494t-.456.252q-.107.03-.183.048q-.076.016-.178.06V5.462h-6.23v10.73H10.4q.363 0 .586.273q.222.273.16.647q-.05.2-.06.415q-.01.215-.01.415q0 .565.099 1.092q.098.527.294 1.016q.143.348-.048.649q-.19.301-.538.301zm7.885-2.154h-.858q-.223 0-.341-.195q-.118-.195-.001-.407l1.676-3.021q.084-.127.227-.096q.143.03.143.197v1.83h.858q.223 0 .341.195q.118.195.001.407l-1.676 3.021q-.084.127-.227.096q-.143-.03-.143-.197z"/></svg>