<svg xmlns="http://www.w3.org/2000/svg" width="1em" height="1em" viewBox="0 0 24 24"><path fill="currentColor" d="M8.692 21q-.343 0-.575-.232q-.232-.232-.232-.576V5.288q0-.343.232-.575q.232-.232.575-.232h1.616v-.673q0-.344.232-.576q.232-.232.575-.232h1.77q.343 0 .575.232q.232.232.232.576v.673h1.62q.344 0 .574.232q.23.232.23.575v6.904q-.276.039-.516.088q-.24.049-.485.128V5.462h-6.23V20h2.561q.104.287.228.527q.124.24.293.473zm7.693-2.615h-2.116q-.212 0-.356-.144t-.144-.357q0-.213.144-.356t.356-.143h2.116v-2.116q0-.212.144-.356q.143-.144.356-.144t.356.144q.144.144.144.356v2.116H19.5q.213 0 .356.144q.144.143.144.356t-.144.356q-.144.144-.356.144h-2.115V20.5q0 .213-.144.356t-.357.144q-.213 0-.356-.144t-.143-.356z"/></svg>