<svg xmlns="http://www.w3.org/2000/svg" width="1em" height="1em" viewBox="0 0 24 24"><path fill="currentColor" d="M8.696 21q-.352 0-.582-.232q-.23-.232-.23-.576V5.288q0-.343.233-.575q.232-.232.575-.232h1.616V3h3.384v1.48h1.62q.344 0 .574.233q.23.232.23.575v2.654h-1v-2.48H8.884V20h6.23v-1.942h1v2.134q0 .344-.232.576q-.232.232-.575.232zm1.958-4.5v-2.385q0-.666.474-1.14q.475-.475 1.141-.475h4.714l-2.075-2.1l.707-.688L18.904 13l-3.289 3.288l-.713-.713l2.1-2.075h-4.733q-.269 0-.442.173t-.173.442V16.5z"/></svg>