<svg xmlns="http://www.w3.org/2000/svg" width="1em" height="1em" viewBox="0 0 24 24"><path fill="currentColor" d="m19.015 19.742l-5.707-5.669l.707-.708l5.689 5.689q.14.14.14.354q0 .213-.16.354q-.14.14-.334.13q-.194-.01-.335-.15M5.217 17.788q-.62-1.096-.938-2.275q-.317-1.18-.317-2.394q0-1.777.657-3.444q.658-1.667 2.004-2.994Q7.97 5.335 9.64 4.674q1.67-.66 3.41-.66q1.232 0 2.402.32q1.17.32 2.26.941q.449.27.499.771q.05.502-.343.894L6.883 17.925q-.393.392-.897.352q-.505-.04-.769-.489m.875-.5l1.812-1.811q-.4-.564-.791-1.19t-.692-1.331q-.3-.704-.477-1.494t-.198-1.643q-.91 1.821-.768 3.787q.141 1.965 1.114 3.682m2.57-2.519l6.05-6.1q-1.075-.825-2.192-1.299q-1.116-.474-2.114-.632q-.998-.16-1.809.004q-.81.164-1.255.608q-.444.45-.607 1.26q-.164.811-.015 1.812q.15 1.001.623 2.124q.474 1.123 1.319 2.223M17.28 6.15q-1.748-1.03-3.723-1.146q-1.975-.116-3.796.761q.876.002 1.667.198q.79.197 1.494.494t1.338.688q.633.392 1.197.817z"/></svg>