<svg xmlns="http://www.w3.org/2000/svg" width="1em" height="1em" viewBox="0 0 24 24"><path fill="currentColor" d="M19.42 17.433L6.586 4.6q.575-.677 1.258-1.215q.684-.539 1.368-.952q.435-.22.84.003q.405.222.437.681q.137 2.004.948 3.826q.81 1.822 2.252 3.265q1.443 1.442 3.262 2.25q1.82.807 3.829.944q.46.033.687.436q.228.402.015.825q-.387.835-.906 1.515q-.52.68-1.158 1.255m-.334 3.898l-2.314-2.308q-.773.287-1.593.44q-.82.152-1.693.152q-1.889 0-3.544-.713q-1.654-.714-2.892-1.951t-1.95-2.892q-.714-1.655-.714-3.544q0-.853.162-1.674t.45-1.593L2.7 4.952q-.146-.146-.156-.35q-.01-.204.156-.37q.165-.165.36-.165q.194 0 .36.166l16.372 16.384q.14.14.153.342q.013.2-.153.366q-.16.16-.35.163q-.192.002-.357-.157"/></svg>