<svg xmlns="http://www.w3.org/2000/svg" width="1em" height="1em" viewBox="0 0 24 24"><path fill="currentColor" d="M19.42 17.433L6.586 4.6q.767-.888 1.754-1.556t2.16-1.063q-.104 2.34.67 4.549q.772 2.208 2.432 3.868q1.66 1.66 3.82 2.48q2.16.822 4.501.718q-.39 1.152-1.012 2.12q-.623.969-1.492 1.717m.014 4.252l-2.662-2.662q-.773.287-1.593.44q-.82.152-1.693.152q-1.889 0-3.544-.713q-1.654-.714-2.892-1.951t-1.95-2.892q-.714-1.655-.714-3.544q0-.853.162-1.674t.45-1.593L2.34 4.592l.714-.713L20.146 20.97z"/></svg>