<svg xmlns="http://www.w3.org/2000/svg" width="1em" height="1em" viewBox="0 0 24 24"><path fill="currentColor" d="m12 21.77l-6.354-4.766q-.298-.217-.472-.566Q5 16.09 5 15.712V4.615q0-.69.463-1.152Q5.925 3 6.615 3h10.77q.69 0 1.152.463q.463.462.463 1.152v11.097q0 .378-.174.726q-.174.349-.472.566zm0-1.27l5.75-4.308q.115-.096.183-.22q.067-.126.067-.28V4.615q0-.23-.192-.423Q17.615 4 17.385 4H6.615q-.23 0-.423.192Q6 4.385 6 4.615v11.077q0 .154.067.28q.068.124.183.22zm-1.05-6.192l4.958-4.958l-.708-.72l-4.25 4.25l-2.138-2.138l-.72.708zM12 4H6h12z"/></svg>