<svg xmlns="http://www.w3.org/2000/svg" width="1em" height="1em" viewBox="0 0 24 24"><path fill="currentColor" d="M12 21.365q-.267 0-.51-.08q-.242-.081-.46-.243l-5.384-4.038q-.298-.217-.472-.566Q5 16.09 5 15.712V4.615q0-.69.463-1.152Q5.925 3 6.615 3h10.77q.69 0 1.152.463q.463.462.463 1.152v11.097q0 .378-.174.726q-.174.349-.472.566l-5.385 4.038q-.217.162-.46.243q-.242.08-.509.08m-1.05-8.484l-1.785-1.785q-.146-.146-.344-.153q-.198-.006-.363.153q-.166.166-.169.357q-.002.191.163.357l1.933 1.932q.242.243.565.243q.323 0 .565-.243l4.039-4.038q.146-.146.153-.344q.006-.198-.153-.364q-.166-.165-.357-.168q-.191-.003-.357.162z"/></svg>