<svg xmlns="http://www.w3.org/2000/svg" width="1em" height="1em" viewBox="0 0 24 24"><path fill="currentColor" d="M6.5 18v-2q0-.213.144-.356q.144-.144.357-.144t.356.144q.143.144.143.356v2h3v-2q0-.213.144-.357q.144-.143.357-.143t.356.144q.143.144.143.356v2h3v-2q0-.213.144-.357q.144-.143.357-.143t.356.144q.143.144.143.356v2h3.885q.269 0 .442-.173t.173-.442V9.96q-.729.61-1.867.882q-1.138.273-2.345.273q-.875 0-1.738-.144t-1.579-.471H4.615q-.269 0-.442.173T4 11.115v6.27q0 .269.173.442t.442.173zM7 9.5h4.17q-.287-.302-.44-.667q-.153-.366-.153-.833q0-.275.052-.525T10.785 7h-3.17q-.269 0-.442.173T7 7.615zm8.789.615q1.526 0 2.869-.403Q20 9.308 20 8q0-1.308-1.342-1.712q-1.343-.403-2.87-.403q-1.526 0-2.869.403q-1.342.404-1.342 1.712q0 1.308 1.342 1.712q1.343.403 2.87.403M4.615 19q-.666 0-1.14-.475Q3 18.051 3 17.385v-6.27q0-.666.475-1.14q.474-.475 1.14-.475H6V7.615q0-.666.475-1.14Q6.949 6 7.615 6h3.99q.755-.596 1.88-.856q1.126-.26 2.303-.26q1.93 0 3.57.719Q21 6.32 21 8v9.385q0 .666-.475 1.14q-.474.475-1.14.475zM6.5 18H20H4z"/></svg>