<svg xmlns="http://www.w3.org/2000/svg" width="1em" height="1em" viewBox="0 0 24 24"><path fill="currentColor" d="M17.892 20H5.615q-.69 0-1.152-.462Q4 19.075 4 18.385V6.108l-2.17-2.17q-.145-.146-.155-.347q-.01-.2.156-.366q.165-.165.357-.165t.356.165l18.231 18.23q.146.147.156.345q.01.198-.156.363q-.165.166-.357.166t-.356-.166zM20 5.615v10.272q0 .54-.497.745q-.497.205-.876-.174l-3.05-3.05l3.288-3.671q.172-.177.135-.373q-.037-.195-.177-.335q-.14-.14-.336-.143q-.195-.003-.372.18l-3.252 3.628l-7.32-7.32q-.38-.38-.175-.877Q7.573 4 8.113 4h10.272q.69 0 1.152.463q.463.462.463 1.152M9.23 11.988l3.687 3.687q.135.135.316.132q.18-.003.31-.157l-4.7-4.7l-3.697 3.696q-.177.177-.158.375q.018.198.158.339q.14.14.339.158q.198.019.375-.158z"/></svg>