<svg xmlns="http://www.w3.org/2000/svg" width="1em" height="1em" viewBox="0 0 24 24"><path fill="currentColor" d="M17 21q-1.671 0-2.836-1.164T13 17q0-1.671 1.164-2.836T17 13q1.671 0 2.836 1.164T21 17q0 1.671-1.164 2.836T17 21m.2-3.673l1.929-1.91l-.546-.546l-1.91 1.929zM3 11.5V6.615q0-.69.463-1.152Q3.925 5 4.615 5h14.77q.69 0 1.152.463q.463.462.463 1.152v5.427q-.846-.698-1.874-1.062q-1.028-.365-2.126-.365q-1.008 0-1.909.286q-.9.286-1.676.826L11.438 7.78q-.067-.116-.182-.173Q11.14 7.55 11 7.55t-.265.058q-.125.057-.193.173L7 14.89l-1.567-3.11q-.068-.135-.18-.208T5 11.5zM4.615 19q-.69 0-1.152-.462Q3 18.075 3 17.385V12.5h1.683l1.86 3.738q.067.14.18.201T7 16.5q.14 0 .253-.06t.18-.202l3.548-7.103l1.623 3.246q-.92.873-1.454 2.062q-.535 1.19-.535 2.557q0 .506.076 1.009q.076.503.253.991z"/></svg>