<svg xmlns="http://www.w3.org/2000/svg" width="1em" height="1em" viewBox="0 0 24 24"><path fill="currentColor" d="M3.077 20q-.213 0-.356-.144t-.144-.356v-7.346L4.562 6.5q.073-.238.281-.37q.209-.13.465-.13h9.269v1H5.465l-1.473 4.154h10.585v1h4V19.5q0 .213-.144.356t-.356.144h-.23q-.213 0-.357-.144t-.144-.356V18H3.808v1.5q0 .213-.144.356T3.308 20zm2.928-4.308q.466 0 .788-.326q.322-.327.322-.794t-.326-.788q-.327-.322-.794-.322t-.788.326q-.322.327-.322.793t.326.79q.327.321.794.321m9.153 0q.467 0 .79-.326q.321-.327.321-.794t-.326-.788q-.327-.322-.794-.322t-.788.326q-.323.327-.323.793t.327.79q.327.321.793.321m3.184-4.807V6.93l-2.415 2.415l-.546-.546l2.8-2.8l-2.8-2.8l.546-.546l2.415 2.415V1.115h.346l2.735 2.747L19.273 6l2.15 2.15l-2.735 2.735zm.77-5.816l1.219-1.207l-1.22-1.22zm0 4.3L20.33 8.15l-1.22-1.22z"/></svg>