<svg xmlns="http://www.w3.org/2000/svg" width="1em" height="1em" viewBox="0 0 24 24"><path fill="currentColor" d="M8 16.5q-.213 0-.356-.144Q7.5 16.212 7.5 16t.144-.356Q7.788 15.5 8 15.5h4.442q-.734-.54-1.187-1.312t-.54-1.688H5.462q-.213 0-.357-.144q-.143-.144-.143-.357t.143-.356q.144-.143.357-.143h5.253q.106-.915.55-1.687q.443-.773 1.177-1.313H5q-.213 0-.356-.144q-.144-.144-.144-.357t.144-.356Q4.788 7.5 5 7.5h10.192q1.868 0 3.184 1.315q1.316 1.316 1.316 3.182t-1.316 3.185Q17.06 16.5 15.192 16.5zm7.195-1q1.459 0 2.478-1.022t1.02-2.48q0-1.46-1.022-2.479Q16.649 8.5 15.19 8.5t-2.478 1.022q-1.02 1.021-1.02 2.48t1.022 2.479q1.021 1.019 2.48 1.019m-10.386 1q-.213 0-.357-.144q-.143-.144-.143-.357t.143-.356q.144-.143.357-.143h.423q.212 0 .356.144t.144.357t-.144.356q-.144.143-.356.143z"/></svg>