<svg xmlns="http://www.w3.org/2000/svg" width="1em" height="1em" viewBox="0 0 24 24"><path fill="currentColor" d="M20.273 21.42L2.581 3.726q-.14-.14-.15-.344q-.01-.204.15-.364t.354-.16q.194 0 .353.16l17.693 17.693q.14.14.15.344q.01.204-.15.363q-.16.16-.354.16q-.194 0-.354-.16M10 21.5q-.2 0-.35-.15T9.5 21q0-.2.15-.35t.35-.15q.2 0 .35.15t.15.35q0 .2-.15.35t-.35.15m4 0q-.2 0-.35-.15T13.5 21q0-.2.15-.35t.35-.15q.2 0 .35.15t.15.35q0 .2-.15.35t-.35.15m-8-2.654q-.36 0-.603-.243T5.154 18q0-.36.243-.603T6 17.154q.36 0 .603.243t.243.603q0 .36-.243.603T6 18.846m4 0q-.36 0-.603-.243T9.154 18q0-.36.243-.603t.603-.243q.36 0 .603.243t.243.603q0 .36-.243.603t-.603.243m4 0q-.36 0-.603-.243T13.154 18q0-.36.243-.603t.603-.243q.36 0 .603.243t.243.603q0 .36-.243.603t-.603.243m-4-3.654q-.496 0-.844-.348T8.808 14q0-.496.348-.844t.844-.348q.496 0 .844.348t.348.844q0 .496-.348.844t-.844.348m-4-.346q-.36 0-.603-.243T5.154 14q0-.36.243-.603T6 13.154q.36 0 .603.243t.243.603q0 .36-.243.603T6 14.846m11.954-.006l-.794-.794q-.023-.384.222-.638t.623-.254q.358 0 .6.242q.241.241.241.599q0 .378-.254.623t-.638.222M3 14.5q-.2 0-.35-.15T2.5 14q0-.2.15-.35T3 13.5q.2 0 .35.15t.15.35q0 .2-.15.35T3 14.5m18 0q-.2 0-.35-.15T20.5 14q0-.2.15-.35t.35-.15q.2 0 .35.15t.15.35q0 .2-.15.35t-.35.15m-6.72-3.338l-1.442-1.443q.106-.399.424-.655q.317-.256.747-.256q.487 0 .835.348t.348.835q0 .43-.263.75q-.264.32-.648.42M6 10.847q-.36 0-.603-.243T5.154 10q0-.36.243-.603T6 9.154q.36 0 .603.243t.243.603q0 .36-.243.603T6 10.846m12 0q-.36 0-.603-.243T17.154 10q0-.36.243-.603T18 9.154q.36 0 .603.243t.243.603q0 .36-.243.603t-.603.243M3 10.5q-.2 0-.35-.15T2.5 10q0-.2.15-.35T3 9.5q.2 0 .35.15t.15.35q0 .2-.15.35T3 10.5m18 0q-.2 0-.35-.15T20.5 10q0-.2.15-.35T21 9.5q.2 0 .35.15t.15.35q0 .2-.15.35t-.35.15m-7-3.654q-.36 0-.603-.243T13.154 6q0-.36.243-.603T14 5.154q.36 0 .603.243t.243.603q0 .36-.243.603T14 6.846M9.96 6.84l-.8-.8q-.018-.384.227-.635T10 5.154q.36 0 .603.242q.243.241.243.599q0 .378-.25.62q-.252.243-.636.225m8.04.006q-.36 0-.603-.243T17.154 6q0-.36.243-.603T18 5.154q.36 0 .603.243t.243.603q0 .36-.243.603T18 6.846M10 3.5q-.2 0-.35-.15T9.5 3q0-.2.15-.35T10 2.5q.2 0 .35.15t.15.35q0 .2-.15.35T10 3.5m4 0q-.2 0-.35-.15T13.5 3q0-.2.15-.35T14 2.5q.2 0 .35.15t.15.35q0 .2-.15.35T14 3.5"/></svg>