<svg xmlns="http://www.w3.org/2000/svg" width="1em" height="1em" viewBox="0 0 24 24"><path fill="currentColor" d="M10 10.846q.36 0 .603-.243t.243-.603q0-.36-.243-.603T10 9.154q-.36 0-.603.243T9.154 10q0 .36.243.603t.603.243m0 4q.36 0 .603-.243t.243-.603q0-.36-.243-.603T10 13.154q-.36 0-.603.243T9.154 14q0 .36.243.603t.603.243M7 10.5q.2 0 .35-.15T7.5 10q0-.2-.15-.35T7 9.5q-.2 0-.35.15T6.5 10q0 .2.15.35t.35.15m3 7q.2 0 .35-.15t.15-.35q0-.2-.15-.35T10 16.5q-.2 0-.35.15T9.5 17q0 .2.15.35t.35.15m-3-3q.2 0 .35-.15T7.5 14q0-.2-.15-.35T7 13.5q-.2 0-.35.15T6.5 14q0 .2.15.35t.35.15m3-7q.2 0 .35-.15T10.5 7q0-.2-.15-.35T10 6.5q-.2 0-.35.15T9.5 7q0 .2.15.35t.35.15m4 3.346q.36 0 .603-.243t.243-.603q0-.36-.243-.603T14 9.154q-.36 0-.603.243t-.243.603q0 .36.243.603t.603.243M14 7.5q.2 0 .35-.15T14.5 7q0-.2-.15-.35T14 6.5q-.2 0-.35.15T13.5 7q0 .2.15.35t.35.15m3 7q.2 0 .35-.15t.15-.35q0-.2-.15-.35T17 13.5q-.2 0-.35.15t-.15.35q0 .2.15.35t.35.15m0-4q.2 0 .35-.15t.15-.35q0-.2-.15-.35T17 9.5q-.2 0-.35.15t-.15.35q0 .2.15.35t.35.15M12.003 21q-1.866 0-3.51-.708q-1.643-.709-2.859-1.924q-1.216-1.214-1.925-2.856Q3 13.87 3 12.003q0-1.866.708-3.51q.709-1.643 1.924-2.859q1.214-1.216 2.856-1.925Q10.13 3 11.997 3q1.866 0 3.51.708q1.643.709 2.859 1.924q1.216 1.214 1.925 2.856Q21 10.13 21 11.997q0 1.866-.708 3.51q-.709 1.643-1.924 2.859q-1.214 1.216-2.856 1.925Q13.87 21 12.003 21M14 17.5q.2 0 .35-.15t.15-.35q0-.2-.15-.35T14 16.5q-.2 0-.35.15t-.15.35q0 .2.15.35t.35.15m0-2.654q.36 0 .603-.243t.243-.603q0-.36-.243-.603T14 13.154q-.36 0-.603.243t-.243.603q0 .36.243.603t.603.243"/></svg>