<svg xmlns="http://www.w3.org/2000/svg" width="1em" height="1em" viewBox="0 0 24 24"><path fill="currentColor" d="m10.992 12.188l-1.317 4.935q-.025.079-.067.152q-.043.073-.11.125q-.067.052-.143.076q-.076.024-.18.024q-.25 0-.409-.183q-.158-.182-.097-.432l1.92-8.831l-2.954 1.2v1.727q0 .213-.144.356t-.356.144q-.214 0-.357-.144t-.143-.356V8.588l4.434-1.875q.35-.15.66-.187q.311-.038.604.03q.292.067.528.244q.235.177.416.47l.692 1.1q.864 1.424 1.723 2.127q.86.703 1.948.903q.214.037.345.192t.13.37q0 .213-.155.344t-.37.1q-1.457-.258-2.467-1.09q-1.01-.833-1.873-2.181l-.83 2.788l2.08 2.346V17q0 .213-.143.357q-.144.143-.357.143t-.357-.143Q13.5 17.213 13.5 17v-2.223zm2.489-6.669q-.71 0-1.201-.491t-.492-1.201q0-.71.492-1.201t1.2-.491q.71 0 1.202.491q.491.491.491 1.2q0 .71-.491 1.202q-.492.491-1.201.491M12 21q-1.863 0-3.506-.71t-2.857-1.927Q4.42 17.148 3.71 15.506Q3 13.863 3 12q0-2.508 1.23-4.557q1.23-2.049 3.24-3.226q.176-.104.378-.04t.287.248q.084.177.039.375q-.045.198-.222.308Q6.167 6.163 5.084 7.97Q4 9.78 4 12q0 3.35 2.325 5.675T12 20q3.221 0 5.507-2.16q2.285-2.16 2.481-5.319q.012-.208.158-.345q.146-.138.354-.138q.213 0 .357.15q.143.15.131.364q-.22 3.556-2.802 6.002Q15.604 21 12 21"/></svg>