<svg xmlns="http://www.w3.org/2000/svg" width="1em" height="1em" viewBox="0 0 24 24"><path fill="currentColor" d="M20 15.5h-1v2.475q0 .46-.205.808q-.205.348-.553.565q-.348.217-.764.242q-.416.025-.82-.186l-11.962-5.95q-.46-.217-.674-.618q-.214-.401-.214-.83t.214-.823q.215-.395.674-.612L16.658 4.61q.404-.212.82-.184q.416.028.764.245q.348.217.553.566q.205.348.205.807V8.5h1v1h-3v-1h1V6.094q0-.346-.288-.529q-.289-.182-.597-.028l-4.092 2.02q.675.999 1.076 2.122q.401 1.123.401 2.321q0 1.217-.401 2.356q-.4 1.138-1.082 2.136l4.073 2.021q.308.154.597-.028q.288-.183.288-.53V15.5H17v-1h3zm-7.904.529q.639-.889 1.021-1.905q.383-1.016.383-2.124q0-1.088-.373-2.099q-.373-1.01-1.006-1.886l-6.967 3.447q-.346.173-.346.548q0 .375.346.548z"/></svg>