<svg xmlns="http://www.w3.org/2000/svg" width="1em" height="1em" viewBox="0 0 24 24"><path fill="currentColor" d="M15.5 7q-.213 0-.357-.143T15 6.5q0-.213.143-.357Q15.287 6 15.5 6h4q.213 0 .357.143q.143.144.143.357t-.143.357Q19.713 7 19.5 7zM12 16.923l-3.738 1.608q-.808.348-1.535-.134Q6 17.915 6 17.052V5.615q0-.69.463-1.152Q6.925 4 7.615 4H12.5q.213 0 .357.143q.143.144.143.357t-.143.357T12.5 5H7.615q-.23 0-.423.192Q7 5.385 7 5.615v11.393q0 .327.279.519t.586.058L12 15.8l4.135 1.785q.307.134.586-.058q.279-.192.279-.52V11.5q0-.213.143-.357T17.5 11q.213 0 .357.143q.143.144.143.357v5.552q0 .863-.727 1.345t-1.535.134zM12 5H7h6z"/></svg>