<svg xmlns="http://www.w3.org/2000/svg" width="1em" height="1em" viewBox="0 0 24 24"><path fill="currentColor" d="M14.23 21v-2.21l5.333-5.307q.149-.13.308-.19q.16-.062.32-.062q.165 0 .334.064t.298.193l.925.945q.123.148.188.307q.064.16.064.32t-.052.322t-.2.31L16.44 21zm5.96-4.985l.925-.955l-.925-.945l-.95.95zM4.615 19q-.69 0-1.152-.462Q3 18.075 3 17.385V6.615q0-.69.463-1.152Q3.925 5 4.615 5h4.981l2 2h7.789q.69 0 1.152.463q.463.462.463 1.152v2.358q-.215-.073-.437-.1q-.22-.027-.442-.027q-.565 0-1.11.212q-.546.211-1.007.615l-6.158 6.12V19z"/></svg>