<svg xmlns="http://www.w3.org/2000/svg" width="1em" height="1em" viewBox="0 0 24 24"><path fill="currentColor" d="M7.615 21q-1.09 0-1.852-.762Q5 19.475 5 18.385V6q0-1.238.868-2.12Q6.737 3 8 3h11v13.77q-.688 0-1.152.475q-.463.476-.463 1.14q0 .688.463 1.152Q18.312 20 19 20v1zm1.437-8.23h.821l.587-1.583h3.055l.587 1.582h.802l-2.458-6.538h-.923zm1.68-2.34l1.256-3.36h.018l1.236 3.36zM7.616 20h9.364q-.285-.33-.44-.732q-.154-.4-.154-.883q0-.458.152-.872q.151-.413.442-.744H7.615q-.688 0-1.152.476Q6 17.721 6 18.385q0 .688.463 1.152q.464.463 1.152.463"/></svg>