<svg xmlns="http://www.w3.org/2000/svg" width="1em" height="1em" viewBox="0 0 24 24"><path fill="currentColor" d="M4 18V6zm.615 1q-.69 0-1.152-.462Q3 18.075 3 17.385V6.615q0-.69.463-1.152Q3.925 5 4.615 5h4.981l2 2h7.789q.69 0 1.152.463q.463.462.463 1.152v2.358q-.244-.085-.497-.109q-.253-.024-.503-.006V8.615q0-.23-.192-.423Q19.615 8 19.385 8h-8.19l-2-2h-4.58q-.269 0-.442.173T4 6.615v10.77q0 .23.192.423q.193.192.423.192h7.254l-.023.023V19zm9.616 2v-2.21l5.332-5.307q.149-.148.308-.2q.16-.052.32-.052q.165 0 .334.064t.298.193l.925.945q.123.148.188.307q.064.16.064.32t-.062.322q-.061.162-.19.31L16.44 21zm6.884-5.94l-.925-.945zm-6 5.055h.95l3.468-3.473l-.47-.475l-.455-.488l-3.493 3.486zm3.948-3.948l-.455-.488l.925.963z"/></svg>