<svg xmlns="http://www.w3.org/2000/svg" width="1em" height="1em" viewBox="0 0 24 24"><path fill="currentColor" d="M15.5 7q-.213 0-.356-.144T15 6.499q0-.212.144-.356Q15.288 6 15.5 6h4q.213 0 .356.144q.144.144.144.357q0 .212-.144.356Q19.713 7 19.5 7zM12 16.923l-3.738 1.608q-.808.348-1.535-.13Q6 17.926 6 17.052V5.616q0-.666.475-1.14Q6.949 4 7.615 4h5.068q.363 0 .545.313q.182.314.04.662q-.145.365-.206.73Q13 6.07 13 6.5q0 1.742 1.157 3.012Q15.313 10.78 17 10.958q.07.011.124.014q.055.003.107.003q.31.02.54.234q.229.214.229.518v5.325q0 .873-.727 1.35q-.727.477-1.535.129z"/></svg>