<svg xmlns="http://www.w3.org/2000/svg" width="1em" height="1em" viewBox="0 0 24 24"><path fill="currentColor" d="M9.454 15.385q-.36 0-.6-.244t-.239-.605v-1.423q0-.125.072-.208q.07-.084.196-.109q.257-.081.418-.295q.16-.214.16-.501t-.16-.5q-.161-.215-.418-.296q-.125-.025-.196-.109q-.072-.083-.072-.208V9.464q0-.36.244-.605t.604-.244h5.083q.36 0 .6.244t.239.605v1.423q0 .125-.072.208q-.07.084-.196.109q-.257.081-.418.295q-.16.214-.16.501t.16.5q.161.215.418.296q.125.025.196.109q.072.083.072.208v1.423q0 .36-.244.605t-.604.244zM12 14.115q.18 0 .302-.12t.121-.303q0-.18-.121-.302q-.121-.12-.302-.12t-.302.12q-.121.122-.121.302q0 .181.121.302t.302.121m0-1.692q.18 0 .302-.121t.121-.302q0-.18-.121-.302T12 11.577q-.18 0-.302.121t-.121.302q0 .18.121.302t.302.121m0-1.692q.18 0 .302-.121q.121-.122.121-.302q0-.181-.121-.302T12 9.885q-.18 0-.302.12t-.121.303q0 .18.121.302q.121.12.302.12M7.615 22q-.69 0-1.152-.462Q6 21.075 6 20.385V3.615q0-.69.463-1.152Q6.925 2 7.615 2h8.77q.69 0 1.152.463q.463.462.463 1.152v16.77q0 .69-.462 1.152q-.463.463-1.153.463zM7 18.5h10v-13H7z"/></svg>