<svg xmlns="http://www.w3.org/2000/svg" width="1em" height="1em" viewBox="0 0 24 24"><path fill="currentColor" d="m10.5 18.923l-3.738 1.608q-.808.348-1.535-.134q-.727-.482-.727-1.345V7.615q0-.69.463-1.152Q5.425 6 6.115 6h8.77q.69 0 1.153.463q.462.462.462 1.152v11.437q0 .863-.727 1.345t-1.535.134zM19 18.5q-.213 0-.357-.143q-.143-.144-.143-.357V4.615q0-.23-.192-.423Q18.115 4 17.885 4H8q-.213 0-.357-.143Q7.5 3.713 7.5 3.5t.143-.357Q7.787 3 8 3h9.885q.69 0 1.152.463q.463.462.463 1.152V18q0 .213-.143.357q-.144.143-.357.143"/></svg>