<svg xmlns="http://www.w3.org/2000/svg" width="1em" height="1em" viewBox="0 0 24 24"><path fill="currentColor" d="M4 18V6zm.615 1q-.69 0-1.152-.462Q3 18.075 3 17.385V6.615q0-.69.463-1.152Q3.925 5 4.615 5h4.31q.323 0 .628.13q.305.132.522.349L11.596 7h7.789q.69 0 1.152.463q.463.462.463 1.152v1.693q0 .213-.143.356q-.144.144-.357.144t-.357-.144t-.143-.356V8.615q0-.23-.192-.423Q19.615 8 19.385 8h-8.19l-2-2h-4.58q-.269 0-.442.173T4 6.615v10.77q0 .23.192.423q.193.192.423.192h6.731q.214 0 .357.143q.143.144.143.357t-.143.357q-.143.143-.357.143zm9.616 1.192V19.12q0-.161.056-.3q.055-.14.186-.27l5.09-5.066q.149-.148.308-.2q.16-.052.32-.052q.165 0 .334.064t.298.193l.925.945q.123.148.188.307q.064.16.064.32t-.062.322q-.061.162-.19.31l-5.065 5.066q-.131.13-.27.186q-.14.056-.301.056h-1.074q-.348 0-.577-.23q-.23-.23-.23-.578m6.884-5.132l-.925-.945zm-6 5.055h.95l3.468-3.473l-.47-.475l-.455-.488l-3.493 3.486zm3.948-3.948l-.455-.488l.925.963z"/></svg>