<svg xmlns="http://www.w3.org/2000/svg" width="1em" height="1em" viewBox="0 0 24 24"><path fill="currentColor" d="M4 20v-1.23h1.23V20zm0-3.692v-1.231h1.23v1.23zm0-3.693v-1.23h1.23v1.23zm0-3.692v-1.23h1.23v1.23zm0-3.692V4h1.23v1.23zM7.692 20v-1.23h1.231V20zm0-7.385v-1.23h1.231v1.23zm0-7.384V4h1.231v1.23zM11.385 20v-1.23h1.23V20zm0-3.692v-1.231h1.23v1.23zm0-3.693v-1.23h1.23v1.23zm0-3.692v-1.23h1.23v1.23zm0-3.692V4h1.23v1.23zM15.077 20v-1.23h1.23V20zm0-7.385v-1.23h1.23v1.23zm0-7.384V4h1.23v1.23zM19 20V4h1v16z"/></svg>