<svg xmlns="http://www.w3.org/2000/svg" width="1em" height="1em" viewBox="0 0 24 24"><path fill="currentColor" d="M9.796 11.596h4.406q.275 0 .38-.252t-.09-.449L12.56 8.963q-.237-.236-.56-.236q-.323 0-.565.242l-1.927 1.927q-.196.196-.095.448q.1.252.383.252M5.616 20q-.667 0-1.141-.475Q4 19.051 4 18.385V5.615q0-.666.475-1.14Q4.949 4 5.615 4h12.77q.666 0 1.14.475q.475.474.475 1.14v12.77q0 .666-.475 1.14q-.474.475-1.14.475zM5 15h14V5.615q0-.23-.192-.423Q18.615 5 18.385 5H5.615q-.23 0-.423.192Q5 5.385 5 5.615z"/></svg>