<svg xmlns="http://www.w3.org/2000/svg" width="1em" height="1em" viewBox="0 0 24 24"><path fill="currentColor" d="M15 7.808h4zm-10 0h9.046h-.834h.311zm.38-1H18.6l-1.33-1.596q-.097-.097-.222-.154Q16.923 5 16.788 5H7.192q-.134 0-.26.058q-.124.057-.22.154zM10 12.962l2-1l2 1V7.808h-4zM14.03 20H5.616q-.666 0-1.14-.475Q4 19.051 4 18.385V7.487q0-.283.093-.546q.094-.262.28-.48l1.558-1.87q.217-.286.543-.438Q6.8 4 7.176 4h9.61q.376 0 .709.153q.333.152.555.437l1.577 1.91q.186.225.28.491q.093.267.093.553v3.766q-.206-.06-.437-.083q-.23-.023-.448-.023H19V7.808h-4v5.152q-.279.192-.554.516t-.4.634L12 13.096l-3 1.5V7.808H5v10.577q0 .269.173.442t.442.173h7.908q.09.28.224.524q.134.243.284.476m4.565.596v-3h-3v-1h3v-3h1v3h3v1h-3v3z"/></svg>