<svg xmlns="http://www.w3.org/2000/svg" width="1em" height="1em" viewBox="0 0 24 24"><path fill="currentColor" d="M11.996 7.5q-.567 0-.964-.401t-.397-.968q0-.568.4-.965q.402-.397.969-.397t.964.401q.397.401.397.968q0 .568-.4.965q-.402.397-.969.397m-1.342 10.654v-3.808h-.192q-.344 0-.576-.232q-.232-.232-.232-.576V9.923q0-.555.395-.95q.396-.396.951-.396h2q.555 0 .95.395q.396.396.396.951v3.615q0 .344-.232.576q-.232.232-.576.232h-.192v3.808q0 .343-.232.575q-.232.233-.576.233h-1.076q-.344 0-.576-.233q-.232-.232-.232-.575"/></svg>