<svg xmlns="http://www.w3.org/2000/svg" width="1em" height="1em" viewBox="0 0 24 24"><path fill="currentColor" d="M6 20q-.402 0-.701-.299Q5 19.401 5 19V9.873q-.829-.492-1.414-1.212Q3 7.94 3 7q0-1.246.877-2.123Q4.754 4 6 4h12q1.246 0 2.123.877Q21 5.754 21 7q0 .94-.586 1.66T19 9.874V19q0 .402-.299.701q-.3.299-.701.299zm5.608-3.57q.165.16.395.16t.39-.16l3.076-3.038q.166-.165.166-.395t-.166-.39l-3.077-3.076q-.16-.166-.39-.166q-.229 0-.394.166l-3.039 3.077q-.16.16-.16.39q0 .229.16.394zM12 15.409L9.592 13L12 10.554L14.446 13z"/></svg>