<svg xmlns="http://www.w3.org/2000/svg" width="1em" height="1em" viewBox="0 0 24 24"><path fill="currentColor" d="M7.001 16.77q.328 0 .548-.222q.22-.222.22-.55t-.221-.547q-.222-.22-.55-.22t-.547.221q-.22.222-.22.55t.221.547q.222.22.55.22M6.998 7.5q-.212 0-.356.144Q6.5 7.788 6.5 8v5.27q0 .212.144.355q.144.144.357.144t.356-.144q.143-.143.143-.356V8q0-.213-.144-.356q-.144-.144-.357-.144M17 16.5q.213 0 .356-.144q.144-.144.144-.357t-.144-.356Q17.213 15.5 17 15.5h-5q-.213 0-.356.144q-.144.144-.144.357t.144.356q.144.143.356.143zm0-4q.213 0 .356-.144q.144-.144.144-.357t-.144-.356Q17.213 11.5 17 11.5h-5q-.213 0-.356.144q-.144.144-.144.357t.144.356q.144.143.356.143zm0-4q.213 0 .356-.144q.144-.144.144-.357t-.144-.356Q17.213 7.5 17 7.5h-5q-.213 0-.356.144q-.144.144-.144.357t.144.356q.144.143.356.143zM4.615 20q-.69 0-1.152-.462Q3 19.075 3 18.385V5.615q0-.69.463-1.152Q3.925 4 4.615 4h14.77q.69 0 1.152.463q.463.462.463 1.152v12.77q0 .69-.462 1.152q-.463.463-1.153.463z"/></svg>