<svg xmlns="http://www.w3.org/2000/svg" width="1em" height="1em" viewBox="0 0 24 24"><path fill="currentColor" d="M7 16.77q.329 0 .549-.22q.22-.221.22-.55t-.22-.549q-.22-.22-.549-.22t-.549.22q-.22.22-.22.549t.22.549q.22.22.549.22m-.5-3h1V7.5h-1zm5 2.731h6v-1h-6zm0-4h6v-1h-6zm0-4h6v-1h-6zM4.615 20q-.69 0-1.152-.462Q3 19.075 3 18.385V5.615q0-.69.463-1.152Q3.925 4 4.615 4h14.77q.69 0 1.152.463q.463.462.463 1.152v12.77q0 .69-.462 1.152q-.463.463-1.153.463zm0-1h14.77q.23 0 .423-.192q.192-.193.192-.423V5.615q0-.23-.192-.423Q19.615 5 19.385 5H4.615q-.23 0-.423.192Q4 5.385 4 5.615v12.77q0 .23.192.423q.193.192.423.192M4 19V5z"/></svg>