<svg xmlns="http://www.w3.org/2000/svg" width="1em" height="1em" viewBox="0 0 24 24"><path fill="currentColor" d="M8.185 16h.946l.592-1.515q.2-.506.812-.8q.611-.293 2.167-.293q.53 0 .977.294q.448.293.648.799l.475 1.232q.063.145.169.214q.106.069.256.069h.006q.234 0 .366-.186q.132-.187.053-.424l-3.235-8.203q-.036-.09-.148-.139Q12.158 7 11.896 7q-.088 0-.163.048t-.112.139zm2.273-3.408l1.492-4.019h.1l1.53 4.02zM9.066 19h-2.45q-.667 0-1.141-.475Q5 18.051 5 17.385v-2.451l-1.79-1.803q-.237-.243-.348-.534q-.112-.292-.112-.593q0-.302.112-.597q.111-.295.348-.538L5 9.066v-2.45q0-.667.475-1.141Q5.949 5 6.615 5h2.451l1.803-1.79q.243-.237.534-.348q.292-.112.593-.112q.302 0 .597.112q.295.111.538.348L14.934 5h2.45q.667 0 1.141.475q.475.474.475 1.14v2.451l1.79 1.803q.237.243.348.534q.112.292.112.593q0 .302-.112.597q-.111.295-.348.538L19 14.934v2.45q0 .667-.475 1.141q-.474.475-1.14.475h-2.451l-1.803 1.79q-.243.237-.534.348q-.292.112-.593.112q-.302 0-.597-.112q-.295-.111-.538-.348z"/></svg>