<svg xmlns="http://www.w3.org/2000/svg" width="1em" height="1em" viewBox="0 0 24 24"><path fill="currentColor" d="M9.066 19h-2.45q-.667 0-1.141-.475Q5 18.051 5 17.385v-2.451l-1.79-1.803q-.237-.243-.348-.534q-.112-.292-.112-.593q0-.302.112-.597q.111-.295.348-.538L5 9.066v-2.45q0-.667.475-1.141Q5.949 5 6.615 5h2.451l1.803-1.79q.243-.237.534-.348q.292-.112.593-.112q.302 0 .597.112q.295.111.538.348L14.934 5h2.45q.667 0 1.141.475q.475.474.475 1.14v2.451l1.79 1.803q.237.243.348.534q.112.292.112.593q0 .302-.112.597q-.111.295-.348.538L19 14.934v2.45q0 .667-.475 1.141q-.474.475-1.14.475h-2.451l-1.803 1.79q-.243.237-.534.348q-.292.112-.593.112q-.302 0-.597-.112q-.295-.111-.538-.348zM12 16.23q1.756 0 2.993-1.237T16.231 12q0-1.756-1.238-2.993T12 7.769q-1.756 0-2.993 1.238T7.769 12q0 1.756 1.238 2.993T12 16.231m0-1q-1.346 0-2.288-.943q-.943-.942-.943-2.288t.943-2.288q.942-.943 2.288-.943t2.288.943q.943.942.943 2.288t-.943 2.288q-.942.943-2.288.943"/></svg>