<svg xmlns="http://www.w3.org/2000/svg" width="1em" height="1em" viewBox="0 0 24 24"><path fill="currentColor" d="M2.27 19.462q-.213 0-.357-.144t-.144-.357q0-.213.144-.356t.356-.143h19.462q.212 0 .356.143q.144.144.144.357t-.144.356q-.144.144-.356.144zm2.345-2q-.69 0-1.152-.463Q3 16.537 3 15.846v-4.884h4.683l1.86 3.719q.064.127.186.204q.122.077.264.077q.142 0 .269-.068q.126-.067.19-.202L13.95 8.49l1.015 2.018q.106.217.307.335t.42.119H21v4.884q0 .69-.462 1.153t-1.153.463zm5.46-3.99l-1.617-3.23q-.064-.127-.191-.204Q8.14 9.962 8 9.962H3V6.077q0-.69.463-1.153t1.152-.462h14.77q.69 0 1.152.462q.463.463.463 1.153v3.885h-5.183l-1.36-2.72q-.067-.14-.193-.191Q14.138 7 13.999 7q-.14 0-.259.05q-.119.052-.186.18z"/></svg>