<svg xmlns="http://www.w3.org/2000/svg" width="1em" height="1em" viewBox="0 0 24 24"><path fill="currentColor" d="M3 9.962V6.077q0-.69.463-1.153t1.152-.462h14.77q.69 0 1.152.462q.463.463.463 1.153v3.885h-1V6.077q0-.23-.192-.423q-.193-.192-.423-.192H4.615q-.23 0-.423.192Q4 5.846 4 6.077v3.885zm1.615 7.5q-.69 0-1.152-.463Q3 16.537 3 15.846v-4.884h1v4.884q0 .23.192.423q.193.193.423.193h14.77q.23 0 .423-.193q.192-.192.192-.423v-4.884h1v4.884q0 .69-.462 1.153t-1.153.463zm-2.346 2q-.213 0-.357-.144q-.143-.143-.143-.356q0-.214.143-.357q.144-.143.357-.143h19.462q.213 0 .356.143q.144.143.144.357q0 .213-.144.356t-.356.144zm.731-8.5v-1h5q.14 0 .265.073t.193.207l1.617 3.23l3.479-6.241q.067-.13.186-.18Q13.86 7 14 7t.265.05q.125.052.193.192l1.36 2.72H21v1h-5.308q-.217 0-.419-.119q-.202-.118-.308-.335L13.95 8.49l-3.498 6.202q-.067.135-.192.202q-.125.068-.266.068q-.14 0-.262-.074q-.122-.073-.19-.207l-1.86-3.72z"/></svg>