<svg xmlns="http://www.w3.org/2000/svg" width="1em" height="1em" viewBox="0 0 24 24"><path fill="currentColor" d="M3 20h12.462v.23q0 .31-.23.54q-.23.23-.54.23H3.77q-.31 0-.54-.23q-.23-.23-.23-.54zm0-2.385v-.23q0-.31.23-.54q.23-.23.54-.23h3.46v-.346q0-.343.233-.575q.232-.232.575-.232h2.385q.343 0 .576.232q.232.232.232.575v.346h3.461q.31 0 .54.23q.23.23.23.54v.23zm15.385-2.83q-.708-.64-1.2-1.535q-.493-.894-.493-2.03V3.807q0-.344.233-.576Q17.157 3 17.5 3h2.692q.344 0 .576.232q.232.232.232.576v7.411q0 1.137-.451 2.034q-.45.897-1.164 1.532V20H20.5q.213 0 .356.144T21 20.5q0 .212-.144.356q-.143.143-.356.143h-1.308q-.343 0-.575-.232q-.232-.232-.232-.576zm-.693-6.4H20V4h-2.308zm1.193 5.434q.45-.352.782-1.075q.333-.723.333-1.525V9.385h-2.308v1.834q0 .802.366 1.525q.365.723.827 1.075m-.039 0"/></svg>