<svg xmlns="http://www.w3.org/2000/svg" width="1em" height="1em" viewBox="0 0 24 24"><path fill="currentColor" d="M12 4q1.658 0 3.113.626q1.454.626 2.545 1.716q1.09 1.09 1.716 2.546Q20 10.342 20 12q0 1.658-.626 3.113q-.626 1.454-1.716 2.545q-1.09 1.09-2.545 1.716Q13.658 20 12 20q-.91 0-1.85-.215q-.94-.216-1.756-.64l.756-.757q.633.297 1.393.454Q11.303 19 12 19q2.9 0 4.95-2.05T19 12q0-2.9-2.05-4.95T12 5Q9.1 5 7.05 7.05T5 12q0 .754.148 1.447q.148.693.464 1.384l-.75.75q-.431-.785-.647-1.728Q4 12.91 4 12q0-1.658.626-3.113q.626-1.454 1.716-2.545q1.09-1.09 2.546-1.716Q10.342 4 12 4m1.5 11.5v-4.292l-8.715 8.715l-.708-.708l8.715-8.715H8.5v-1h6v6z"/></svg>