<svg xmlns="http://www.w3.org/2000/svg" width="1em" height="1em" viewBox="0 0 24 24"><path fill="currentColor" d="M12 4q1.658 0 3.113.626q1.454.626 2.545 1.716q1.09 1.09 1.716 2.546Q20 10.342 20 12q0 1.658-.626 3.113q-.626 1.454-1.716 2.545q-1.09 1.09-2.545 1.716Q13.658 20 12 20q-.8 0-1.614-.163q-.815-.164-1.54-.497q-.171-.067-.186-.247q-.016-.18.125-.32q.17-.171.384-.222q.214-.051.433.01q.561.21 1.196.325Q11.433 19 12 19q2.9 0 4.95-2.05T19 12q0-2.9-2.05-4.95T12 5Q9.1 5 7.05 7.05T5 12q0 .625.105 1.199q.105.574.333 1.155q.062.22.011.455q-.05.235-.222.406q-.14.14-.33.103t-.257-.208q-.332-.725-.486-1.53Q4 12.775 4 12q0-1.658.626-3.113q.626-1.454 1.716-2.545q1.09-1.09 2.546-1.716Q10.342 4 12 4m1.5 7.208l-8.362 8.361q-.14.14-.344.15q-.204.01-.363-.15q-.16-.16-.16-.354q0-.194.16-.353l8.361-8.362H9q-.213 0-.357-.143Q8.5 10.213 8.5 10t.143-.357Q8.787 9.5 9 9.5h4.692q.348 0 .578.23q.23.23.23.578V15q0 .213-.143.357q-.144.143-.357.143t-.357-.143Q13.5 15.213 13.5 15z"/></svg>