<svg xmlns="http://www.w3.org/2000/svg" width="1em" height="1em" viewBox="0 0 24 24"><path fill="currentColor" d="M14.312 20q-.927 0-1.581-.65q-.654-.649-.654-1.576t.65-1.582q.649-.654 1.576-.654t1.582.65q.653.65.653 1.577t-.649 1.581q-.65.654-1.577.654m-.004-1q.502 0 .866-.364q.364-.365.364-.867t-.364-.866q-.364-.365-.866-.365t-.867.365q-.364.364-.364.866t.364.867q.365.364.867.364m2.192-6q-1.896 0-3.198-1.302T12 8.5q0-1.896 1.302-3.198T16.5 4q1.896 0 3.198 1.302T21 8.5q0 1.896-1.302 3.198T16.5 13m0-1q1.475 0 2.488-1.012T20 8.5q0-1.475-1.012-2.488T16.5 5q-1.475 0-2.488 1.013T13 8.5q0 1.475 1.013 2.488T16.5 12m-9.27 5.23q-1.332 0-2.281-.948Q4 15.332 4 14q0-1.333.949-2.282q.95-.949 2.282-.949t2.282.95q.949.948.949 2.281q0 1.333-.95 2.282q-.949.949-2.281.949m0-1q.92 0 1.576-.656q.655-.655.655-1.576q0-.92-.656-1.575q-.655-.655-1.576-.655q-.92 0-1.575.656Q5 13.08 5 14q0 .92.656 1.575q.655.655 1.575.655m0-2.231"/></svg>