<svg xmlns="http://www.w3.org/2000/svg" width="1em" height="1em" viewBox="0 0 24 24"><path fill="currentColor" d="M8.885 14.5q-2.292 0-3.896-1.604T3.385 9q0-.333.046-.667q.046-.333.13-.648q.068-.212.207-.308t.326-.146q.187-.05.367.003t.322.195l2.702 2.663L9.977 7.6L7.333 4.937q-.143-.143-.196-.336q-.052-.193-.002-.376t.155-.322q.106-.14.298-.207q.316-.104.643-.15t.654-.046q2.291 0 3.895 1.604Q14.385 6.708 14.385 9q0 .69-.139 1.27q-.138.58-.415 1.1l5.819 5.807q.533.528.533 1.292t-.529 1.296q-.529.533-1.294.533q-.766 0-1.298-.538l-5.808-5.814q-.558.258-1.138.406q-.58.148-1.231.148m0-1q.662 0 1.325-.19q.663-.19 1.227-.597l6.344 6.345q.24.24.578.237q.337-.003.578-.243q.24-.24.24-.578t-.24-.578l-6.345-6.338q.393-.539.593-1.201q.2-.663.2-1.357q0-1.827-1.415-3.276q-1.414-1.449-3.628-1.174l2.485 2.485q.242.242.242.565q0 .323-.242.565L8.05 10.942q-.242.243-.565.243q-.323 0-.566-.243L4.435 8.458q-.218 2.425 1.25 3.733q1.469 1.309 3.2 1.309m2.782-1.756"/></svg>