<svg xmlns="http://www.w3.org/2000/svg" width="1em" height="1em" viewBox="0 0 24 24"><path fill="currentColor" d="m17.804 20.508l-6.55-6.562q-.558.258-1.138.406q-.58.148-1.231.148q-2.289 0-3.895-1.606Q3.385 11.288 3.385 9q0-.65.144-1.251q.144-.6.421-1.153l3.535 3.496L9.977 7.6L6.519 4.104q.552-.277 1.134-.44q.582-.164 1.232-.164q2.288 0 3.894 1.606Q14.385 6.712 14.385 9q0 .69-.139 1.27q-.138.58-.415 1.1l6.561 6.55q.223.222.223.551q0 .329-.223.552l-1.523 1.523q-.223.223-.532.204q-.31-.02-.533-.242"/></svg>