<svg xmlns="http://www.w3.org/2000/svg" width="1em" height="1em" viewBox="0 0 24 24"><path fill="currentColor" d="M1.77 17.5v-11q0-.213.142-.357Q2.056 6 2.27 6t.357.143q.143.144.143.357v11q0 .213-.143.357Q2.484 18 2.27 18q-.213 0-.357-.143q-.143-.144-.143-.357m4.23 0v-11q0-.213.143-.357Q6.287 6 6.5 6t.357.143Q7 6.287 7 6.5v11q0 .213-.143.357Q6.713 18 6.5 18t-.357-.143Q6 17.713 6 17.5m5.846.5q-.69 0-1.153-.462q-.462-.463-.462-1.153v-8.77q0-.69.462-1.152Q11.156 6 11.846 6h8.77q.69 0 1.152.463t.463 1.152v8.77q0 .69-.463 1.152q-.462.463-1.153.463zm0-1h8.77q.23 0 .422-.192q.193-.193.193-.423v-8.77q0-.23-.193-.423Q20.846 7 20.615 7h-8.769q-.23 0-.423.192q-.192.193-.192.423v8.77q0 .23.192.423q.192.192.423.192m3.885-2.615l-1.077-1.422q-.13-.161-.323-.158q-.193.003-.323.164l-.856 1.154q-.142.212-.018.429t.366.217h5.462q.242 0 .353-.217q.112-.217-.03-.429l-1.331-1.81q-.13-.161-.323-.161t-.323.161zM11.23 17V7z"/></svg>