<svg xmlns="http://www.w3.org/2000/svg" width="1em" height="1em" viewBox="0 0 24 24"><path fill="currentColor" d="M16.607 11q-1.663 0-2.827-1.164t-1.165-2.843q0-1.658 1.163-2.826Q14.94 3 16.623 3q1.664 0 2.828 1.164T20.615 7q0 1.671-1.172 2.836Q18.271 11 16.607 11m-.376-3.385H17v-3h-.77zm.384 1.847q.2 0 .322-.131q.12-.131.14-.312q0-.192-.13-.336t-.332-.145q-.2 0-.33.131q-.131.131-.131.331t.13.33q.131.132.331.132m-10.11 7.153q.466 0 .788-.326q.322-.327.322-.794t-.326-.788q-.327-.322-.794-.322t-.788.326q-.322.327-.322.794t.326.788q.327.322.794.322m7 0q.466 0 .788-.326q.322-.327.322-.794t-.326-.788q-.327-.322-.794-.322t-.788.326q-.322.327-.322.794t.326.788q.327.322.794.322M4.538 21v-2.396q-.596-.237-1.067-.99T3 16.115V7q0-1.61 1.851-2.305Q6.701 4 10.987 4q-.35.677-.553 1.43q-.203.753-.203 1.57q0 .148.012.276q.013.128.024.262H4V12h8.813q.777.638 1.746 1.012q.968.373 2.056.373q.106 0 .198-.003q.09-.003.187-.015v2.748q0 .747-.471 1.5q-.471.752-1.067.989V21H14.23v-2H5.769v2z"/></svg>