<svg xmlns="http://www.w3.org/2000/svg" width="1em" height="1em" viewBox="0 0 24 24"><path fill="currentColor" d="M7.038 19q-.69 0-1.152-.462q-.463-.463-.463-1.153V8.404L3.143 5.67q-.162-.211-.066-.441T3.44 5h15.368q.69 0 1.153.463q.462.462.462 1.152v10.77q0 .69-.462 1.152q-.463.463-1.153.463zM6.423 6v11.385q0 .23.192.423q.193.192.423.192h11.77q.23 0 .423-.192q.192-.193.192-.423V6.615q0-.23-.192-.423Q19.038 6 18.808 6zm5.262 8.192h4.392q.213 0 .357-.143q.143-.143.143-.357q0-.213-.143-.356q-.144-.144-.357-.144H10.52q-.348 0-.476.324t.117.569l2.061 2.061q.14.14.344.15q.204.01.364-.15t.16-.354q0-.194-.16-.354zm2.477-4.384H9.769q-.213 0-.356.143t-.144.357q0 .213.144.356t.356.144h5.556q.348 0 .476-.324t-.116-.569l-2.062-2.061q-.14-.14-.344-.15q-.204-.01-.364.15t-.16.354q0 .194.16.354zM6.423 6v12z"/></svg>