<svg xmlns="http://www.w3.org/2000/svg" width="1em" height="1em" viewBox="0 0 24 24"><path fill="currentColor" d="M4.615 20q-.69 0-1.152-.462Q3 19.075 3 18.385V14.5h7V16h4v-1.5h7v3.885q0 .69-.462 1.152q-.463.463-1.153.463zM11 15v-2h2v2zm-8-1.5V8.615q0-.69.463-1.152Q3.925 7 4.615 7H9V5.615q0-.69.463-1.152Q9.925 4 10.615 4h2.77q.69 0 1.153.463q.462.462.462 1.152V7h4.385q.69 0 1.152.463q.463.462.463 1.152V13.5h-7V12h-4v1.5zM10 7h4V5.615q0-.23-.192-.423Q13.615 5 13.385 5h-2.77q-.23 0-.423.192q-.192.193-.192.423z"/></svg>