<svg xmlns="http://www.w3.org/2000/svg" width="1em" height="1em" viewBox="0 0 24 24"><path fill="currentColor" d="M4.615 17q-.69 0-1.152-.462Q3 16.075 3 15.385v-6.77q0-.69.463-1.152Q3.925 7 4.615 7h14.77q.69 0 1.152.463q.463.462.463 1.152v6.77q0 .69-.462 1.153q-.463.462-1.153.462zm0-1h14.77q.269 0 .442-.173t.173-.442v-6.77q0-.269-.173-.442T19.385 8H4.615q-.269 0-.442.173T4 8.615v6.77q0 .269.173.442t.442.173m2.943-3.558v1.616q0 .19.126.316T8 14.5t.316-.126q.126-.126.126-.316v-1.616h1.616q.19 0 .316-.126T10.5 12t-.126-.316q-.126-.126-.316-.126H8.442V9.942q0-.19-.126-.316T8 9.5t-.316.126q-.126.126-.126.316v1.616H5.942q-.19 0-.316.126T5.5 12t.126.316q.126.126.316.126zM4 16V8z"/></svg>