<svg xmlns="http://www.w3.org/2000/svg" width="1em" height="1em" viewBox="0 0 24 24"><path fill="currentColor" d="M5 20.5q-.213 0-.356-.144T4.5 20v-1.115h-1v-3.5q0-.213.144-.357T4 14.885h1.5V7q0-1.458 1.021-2.479T9 3.5q1.458 0 2.479 1.021T12.5 7v10q0 1.056.722 1.778T15 19.5q1.056 0 1.778-.722T17.5 17V9.115H16q-.213 0-.356-.143t-.144-.357v-3.5h1V4q0-.213.144-.356T17 3.5h2q.213 0 .356.144T19.5 4v1.115h1v3.5q0 .213-.144.357T20 9.115h-1.5V17q0 1.458-1.021 2.479T15 20.5q-1.458 0-2.479-1.021T11.5 17V7q0-1.056-.722-1.778T9 4.5q-1.056 0-1.778.722T6.5 7v7.885H8q.213 0 .356.143t.144.357v3.5h-1V20q0 .213-.144.356T7 20.5z"/></svg>