<svg xmlns="http://www.w3.org/2000/svg" width="1em" height="1em" viewBox="0 0 24 24"><path fill="currentColor" d="M19 6h-1.5q-.213 0-.356-.144T17 5.499q0-.212.144-.356Q17.288 5 17.5 5H19V3.5q0-.213.144-.356T19.5 3q.212 0 .356.144q.143.143.143.356V5h1.5q.213 0 .356.144q.144.144.144.357q0 .212-.144.356Q21.713 6 21.5 6H20v1.5q0 .213-.144.356Q19.712 8 19.5 8t-.356-.144Q19 7.713 19 7.5zM3.73 21q-.31 0-.52-.23q-.21-.23-.21-.54v-4.768q0-.667.475-1.141q.474-.475 1.14-.475H5V9.692q0-.666.475-1.14q.474-.475 1.14-.475H10.5V6.588q-.43-.28-.715-.638T9.5 5.11q0-.3.11-.565q.11-.266.33-.485l.768-.768q.03-.03.298-.13q.044 0 .286.13l.769.768q.22.22.33.485q.109.265.109.566q0 .481-.285.839q-.284.358-.715.638v1.489h3.885q.666 0 1.14.474q.475.475.475 1.141v4.154h.385q.666 0 1.14.475q.475.474.475 1.14v4.77q0 .31-.23.54q-.23.229-.54.229zM6 13.846h10V9.692q0-.269-.173-.442t-.442-.173h-8.77q-.269 0-.442.173T6 9.692zM4 20h14v-4.538q0-.27-.173-.443t-.442-.173H4.615q-.269 0-.442.173T4 15.462zm2-6.154h10zM4 20h14zm13-6.154H5z"/></svg>