<svg xmlns="http://www.w3.org/2000/svg" width="1em" height="1em" viewBox="0 0 24 24"><path fill="currentColor" d="M5.615 21q-.69 0-1.152-.462Q4 20.075 4 19.385V6.615q0-.69.463-1.152Q4.925 5 5.615 5h1.77V3.308q0-.23.155-.384q.156-.155.386-.155t.383.155q.153.155.153.384V5h7.153V3.27q0-.213.144-.357t.357-.144q.213 0 .356.144t.143.356V5h1.77q.69 0 1.152.463q.463.462.463 1.152v4.752q0 .213-.144.357q-.144.143-.357.143q-.212 0-.356-.143Q19 11.58 19 11.367v-.752H5v8.77q0 .23.192.423q.193.192.423.192h6.435q.213 0 .356.144t.144.357q0 .212-.144.356q-.143.143-.356.143zm12.77 1q-1.672 0-2.836-1.164Q14.385 19.67 14.385 18t1.164-2.836Q16.713 14 18.385 14q1.67 0 2.835 1.164T22.385 18q0 1.671-1.165 2.836T18.385 22m.384-4.165V15.5q0-.154-.115-.27q-.116-.115-.27-.115q-.153 0-.269.116q-.115.115-.115.269v2.333q0 .153.056.296q.056.144.186.275l1.525 1.525q.112.111.264.121q.152.01.282-.121q.131-.13.131-.273q0-.143-.13-.273z"/></svg>