<svg xmlns="http://www.w3.org/2000/svg" width="1em" height="1em" viewBox="0 0 24 24"><path fill="currentColor" d="M5 9.615h14v-3q0-.23-.192-.423Q18.615 6 18.385 6H5.615q-.23 0-.423.192Q5 6.385 5 6.615zm0 0V6zM5.615 21q-.69 0-1.152-.462Q4 20.075 4 19.385V6.615q0-.69.463-1.152Q4.925 5 5.615 5h1.77V2.77h1.077V5h7.153V2.77h1V5h1.77q.69 0 1.152.463q.463.462.463 1.152v5.252q-.244-.09-.494-.134q-.25-.045-.506-.081v-1.037H5v8.77q0 .23.192.423q.193.192.423.192h6.704q.08.28.201.521q.122.24.255.479zm12.77 1q-1.672 0-2.836-1.164Q14.385 19.67 14.385 18t1.164-2.836Q16.713 14 18.385 14q1.67 0 2.835 1.164T22.385 18q0 1.671-1.165 2.836T18.385 22m1.655-1.798l.547-.546l-1.818-1.818v-2.723H18v3.047z"/></svg>