<svg xmlns="http://www.w3.org/2000/svg" width="1em" height="1em" viewBox="0 0 24 24"><path fill="currentColor" d="M5.615 16q-.67 0-1.143-.472Q4 15.056 4 14.385v-4.77q0-.67.472-1.143Q4.944 8 5.615 8h12.77q.67 0 1.143.472q.472.472.472 1.143v4.77q0 .67-.472 1.143q-.472.472-1.143.472zm0-1h12.77q.269 0 .442-.173t.173-.442v-4.77q0-.269-.173-.442T18.385 9H5.615q-.269 0-.442.173T5 9.615v4.77q0 .269.173.442t.442.173m-1.14-9.385q-.194 0-.335-.143Q4 5.33 4 5.115q0-.213.143-.356q.144-.144.357-.144h15.025q.194 0 .335.144q.14.143.14.356q0 .214-.143.357q-.144.143-.357.143zm0 13.77q-.194 0-.335-.144q-.14-.143-.14-.356q0-.214.143-.357q.144-.143.357-.143h15.025q.194 0 .335.143q.14.143.14.357q0 .213-.143.356q-.144.144-.357.144zM5 9h.615q-.269 0-.442.173T5 9.615v4.77q0 .269.173.442t.442.173H5z"/></svg>