<svg xmlns="http://www.w3.org/2000/svg" width="1em" height="1em" viewBox="0 0 24 24"><path fill="currentColor" d="M5.615 21q-.69 0-1.152-.462Q4 20.075 4 19.385V6.615q0-.69.463-1.152Q4.925 5 5.615 5h1.77V3.308q0-.233.153-.386q.152-.153.385-.153t.386.153q.153.153.153.386V5h7.153V3.27q0-.214.144-.357t.356-.144q.214 0 .357.143t.143.357V5h1.77q.69 0 1.152.463q.463.462.463 1.152v12.77q0 .69-.462 1.152q-.463.463-1.153.463zm0-1h12.77q.23 0 .423-.192q.192-.193.192-.423v-8.77H5v8.77q0 .23.192.423q.193.192.423.192"/></svg>