<svg xmlns="http://www.w3.org/2000/svg" width="1em" height="1em" viewBox="0 0 24 24"><path fill="currentColor" d="M13.288 18.23q-.348 0-.597-.248q-.249-.25-.249-.597V6.615q0-.348.25-.597q.248-.249.596-.249h1.76q.348 0 .597.25q.25.248.25.596v10.77q0 .348-.25.597q-.249.249-.597.249zm-4.336 0q-.348 0-.597-.248q-.25-.25-.25-.597V6.615q0-.348.25-.597q.249-.249.597-.249h1.76q.348 0 .597.25q.249.248.249.596v10.77q0 .348-.25.597q-.248.249-.596.249zm-4.337 0q-.367 0-.606-.239q-.24-.24-.24-.606V6.615q0-.367.24-.606q.24-.24.606-.24h1.76q.348 0 .597.25q.25.248.25.596v10.77q0 .348-.25.597q-.249.249-.597.249zm13.01 0q-.348 0-.597-.248q-.25-.25-.25-.597V6.615q0-.348.25-.597q.249-.249.597-.249h1.76q.367 0 .606.24q.24.24.24.606v10.77q0 .367-.24.606q-.24.24-.606.24z"/></svg>