<svg xmlns="http://www.w3.org/2000/svg" width="1em" height="1em" viewBox="0 0 24 24"><path fill="currentColor" d="M17.93 21q-2.528 0-5.184-1.266q-2.656-1.267-4.934-3.555q-2.28-2.289-3.546-4.935Q3 8.598 3 6.07q0-.458.3-.763Q3.6 5 4.05 5h2.473q.408 0 .712.257t.411.658L8.142 8.3q.07.42-.025.733q-.094.313-.332.513L5.59 11.592q.616 1.118 1.361 2.076q.745.959 1.59 1.817q.87.87 1.874 1.62q1.004.749 2.204 1.414l2.139-2.177q.244-.263.549-.347q.305-.083.674-.033l2.104.43q.407.1.661.41q.254.311.254.713v2.435q0 .45-.306.75q-.305.3-.763.3M5.12 10.654l1.92-1.766q.096-.076.124-.211q.03-.135-.01-.25l-.443-2.12q-.039-.153-.135-.23T6.327 6H4.275q-.115 0-.192.077t-.077.192q.029 1.025.32 2.14q.293 1.116.795 2.245m8.45 8.334q1.014.502 2.16.743q1.148.24 2 .257q.115 0 .192-.076q.077-.077.077-.193v-2.007q0-.154-.077-.25q-.077-.097-.23-.135l-1.85-.379q-.116-.038-.203-.01q-.086.03-.182.125zM12.5 4q-.213 0-.356-.144T12 3.5q0-.212.144-.356T12.5 3h8q.213 0 .356.144q.144.144.144.357q0 .212-.144.356Q20.713 4 20.5 4zm0 3.385q-.213 0-.356-.144T12 6.884q0-.213.144-.356t.356-.143h8q.213 0 .356.144q.144.144.144.356q0 .213-.144.356q-.144.144-.356.144zm0 3.384q-.213 0-.356-.144T12 10.27q0-.213.144-.357q.144-.143.356-.143h8q.213 0 .356.144t.144.357q0 .213-.144.356t-.356.143z"/></svg>