<svg xmlns="http://www.w3.org/2000/svg" width="1em" height="1em" viewBox="0 0 24 24"><path fill="currentColor" d="M17.93 21q-2.528 0-5.184-1.266q-2.656-1.267-4.934-3.555q-2.28-2.289-3.546-4.935Q3 8.598 3 6.07q0-.458.3-.763Q3.6 5 4.05 5h2.473q.408 0 .712.257t.411.658L8.142 8.3q.07.42-.025.733q-.094.313-.332.513L5.59 11.592q.616 1.118 1.361 2.076q.745.959 1.59 1.817q.87.87 1.874 1.62q1.004.749 2.204 1.414l2.139-2.177q.244-.263.549-.347q.305-.083.674-.033l2.104.43q.407.1.661.41q.254.311.254.713v2.435q0 .45-.306.75q-.305.3-.763.3m-1.428-9q-1.866 0-3.185-1.315Q12 9.369 12 7.503t1.315-3.185Q14.631 3 16.497 3t3.185 1.315Q21 5.631 21 7.497q0 1.866-1.315 3.185Q18.369 12 16.503 12m-.003-1.615q.154 0 .27-.116q.115-.115.115-.269V7.192q0-.154-.116-.269q-.115-.115-.269-.115t-.27.115q-.115.115-.115.27V10q0 .154.116.27q.115.115.269.115m0-4.693q.2 0 .35-.15t.15-.35q0-.2-.15-.35t-.35-.15q-.2 0-.35.15t-.15.35q0 .2.15.35t.35.15"/></svg>