<svg xmlns="http://www.w3.org/2000/svg" width="1em" height="1em" viewBox="0 0 24 24"><path fill="currentColor" d="M6 6.708V9.5q0 .213-.144.356T5.499 10q-.212 0-.356-.144Q5 9.713 5 9.5V5.808q0-.344.232-.576Q5.464 5 5.808 5H9.5q.213 0 .356.144q.144.144.144.357q0 .212-.144.356Q9.713 6 9.5 6H6.708l5.313 5.313q.217.218.348.518q.131.3.131.632V18.5q0 .213-.144.356Q12.212 19 12 19t-.356-.144q-.143-.143-.143-.356v-6.042q0-.116-.038-.221q-.039-.106-.135-.202zm12 0l-3.488 3.494q-.147.146-.348.156q-.2.01-.366-.156q-.165-.165-.165-.36t.165-.36L17.292 6H14.5q-.213 0-.356-.144T14 5.499q0-.212.144-.356Q14.288 5 14.5 5h3.692q.344 0 .576.232q.232.232.232.576V9.5q0 .213-.144.356q-.144.144-.357.144q-.212 0-.356-.144Q18 9.713 18 9.5z"/></svg>