<svg xmlns="http://www.w3.org/2000/svg" width="1em" height="1em" viewBox="0 0 24 24"><path fill="currentColor" d="M6.615 20q-.666 0-1.14-.475Q5 19.051 5 18.385v-8.077q0-.384.172-.727q.171-.343.474-.566l5.385-4.057q.422-.323.966-.323q.543 0 .972.323l5.385 4.057q.303.223.474.566q.172.343.172.727q-.063.255-.236.474q-.172.218-.456.218h-5.77q-.825 0-1.412.588T10.538 13v4q0 .825.588 1.413t1.412.587H18.5q.213 0 .356.144T19 19.5q0 .212-.144.356q-.143.143-.356.143zm5.923-2.385q-.261 0-.438-.177q-.177-.176-.177-.438v-4q0-.262.177-.438q.177-.177.438-.177h4q.262 0 .439.177q.177.176.177.438v1.462l1.256-.656q.211-.106.4.014q.19.12.19.34v1.68q0 .22-.19.34q-.189.12-.4.014l-1.256-.656V17q0 .262-.177.438q-.177.177-.439.177z"/></svg>