<svg xmlns="http://www.w3.org/2000/svg" width="1em" height="1em" viewBox="0 0 24 24"><path fill="currentColor" d="M6 19.5v-1h5.242l-1.6-1.6l.708-.708L13.158 19l-2.808 2.808l-.708-.708l1.6-1.6zm8 0v-1h4v1zM6 17V4.615q0-.69.463-1.152Q6.925 3 7.615 3h8.77q.69 0 1.152.463q.463.462.463 1.152V17h-5.417l-2.233-2.233L8.117 17zm1-3.312q1.123-.517 2.472-.833q1.35-.317 2.528-.317q1.179 0 2.528.317q1.349.316 2.472.833V4.615q0-.23-.192-.423Q16.615 4 16.385 4h-8.77q-.23 0-.423.192Q7 4.385 7 4.615zm5-2.726q-1.038 0-1.77-.731Q9.5 9.5 9.5 8.46q0-1.038.73-1.769q.732-.73 1.77-.73t1.77.73q.73.731.73 1.77q0 1.038-.73 1.769q-.732.73-1.77.73"/></svg>