<svg xmlns="http://www.w3.org/2000/svg" width="1em" height="1em" viewBox="0 0 24 24"><path fill="currentColor" d="M4.615 21q-.666 0-1.14-.475Q3 20.051 3 19.385V5.615q0-.666.475-1.14Q3.949 4 4.615 4H6V2.846q0-.36.243-.603Q6.487 2 6.846 2h2.308q.36 0 .603.243q.243.244.243.603V4h1.385q.666 0 1.14.475q.475.474.475 1.14V6h6.385q.666 0 1.14.475q.475.474.475 1.14v9.77q0 .666-.475 1.14q-.474.475-1.14.475h-6.423v.385q0 .666-.464 1.14q-.463.475-1.113.475zm5.577-11.27q.31 0 .54-.229q.23-.23.23-.54q0-.31-.23-.539q-.23-.23-.54-.23q-.31 0-.54.23q-.229.23-.229.54q0 .31.23.539q.23.23.54.23m3.922 0q.31 0 .54-.23q.23-.23.23-.54q0-.31-.23-.539q-.23-.23-.54-.23q-.31 0-.539.23q-.23.23-.23.54q0 .31.23.539q.23.23.54.23m3.922 0q.31 0 .54-.23q.23-.23.23-.54q0-.31-.23-.539q-.23-.23-.54-.23q-.31 0-.539.23q-.23.23-.23.54q0 .31.23.539q.23.23.54.23m-7.847 7.077q.31 0 .54-.23q.23-.23.23-.54q0-.31-.23-.539q-.23-.23-.54-.23q-.31 0-.54.23q-.229.23-.229.54q0 .31.23.539q.23.23.54.23m3.922 0q.31 0 .54-.23q.23-.23.23-.54q0-.31-.23-.539q-.23-.23-.54-.23q-.31 0-.539.23q-.23.23-.23.54q0 .31.23.539q.23.23.54.23m3.922 0q.31 0 .54-.23q.23-.23.23-.54q0-.31-.23-.539q-.23-.23-.54-.23q-.31 0-.539.23q-.23.23-.23.54q0 .31.23.539q.23.23.54.23"/></svg>