<svg xmlns="http://www.w3.org/2000/svg" width="1em" height="1em" viewBox="0 0 24 24"><path fill="currentColor" d="M8.615 16q-.67 0-1.143-.472Q7 15.056 7 14.385v-4.77q0-.67.472-1.143Q7.944 8 8.615 8h.77l.757-.758q.131-.13.27-.186q.14-.056.301-.056h2.574q.161 0 .3.056q.14.056.27.186l.758.758h.77q.67 0 1.143.472q.472.472.472 1.143v4.77q0 .67-.472 1.143q-.472.472-1.143.472zm0-1h6.77q.269 0 .442-.173t.173-.442v-4.77q0-.269-.173-.442T15.385 9h-6.77q-.269 0-.442.173T8 9.615v4.77q0 .269.173.442t.442.173M12 13.423q.594 0 1.009-.414q.414-.415.414-1.009q0-.594-.414-1.009q-.415-.414-1.009-.414q-.594 0-1.009.414q-.414.415-.414 1.009q0 .594.414 1.009q.415.414 1.009.414M12.038 23q-4.111 0-7.202-2.628q-3.092-2.628-3.738-6.635q-.056-.252.057-.458t.345-.237q.233-.03.385.136t.188.399q.573 3.602 3.315 5.975t6.443 2.436l-1.581-1.58q-.14-.14-.15-.345q-.01-.203.15-.363t.354-.16q.194 0 .354.16l2.819 2.82q.098.097.055.217q-.044.119-.172.15q-.406.078-.805.096q-.4.017-.817.017m-.076-22q4.111 0 7.202 2.635q3.092 2.634 3.738 6.648q.056.252-.057.448q-.112.196-.345.227q-.233.03-.385-.136t-.188-.399q-.573-3.602-3.314-5.975t-6.444-2.436l1.581 1.58q.14.14.15.345q.01.203-.15.363t-.354.16q-.194 0-.354-.16l-2.819-2.82q-.098-.097-.055-.217q.044-.119.172-.15q.406-.078.805-.096q.4-.017.817-.017"/></svg>