<svg xmlns="http://www.w3.org/2000/svg" width="1em" height="1em" viewBox="0 0 24 24"><path fill="currentColor" d="M3 20.692v-2.5q0-.267.08-.51q.082-.242.243-.459l8.062-10.846l-.823-1.108q-.068-.079-.089-.18q-.021-.1-.006-.192t.068-.18q.052-.088.13-.155q.177-.135.366-.104q.188.03.323.207l.646.883l.646-.883q.135-.177.333-.207q.198-.031.375.104t.208.332q.03.198-.104.375l-.823 1.108l8.042 10.846q.161.217.242.46q.081.242.081.51v2.5q0 .347-.23.577q-.23.23-.578.23H3.808q-.348 0-.578-.23q-.23-.23-.23-.578m4.879-.192h8.242L12 14.725z"/></svg>