<svg xmlns="http://www.w3.org/2000/svg" width="1em" height="1em" viewBox="0 0 24 24"><path fill="currentColor" d="m16.802 17.167l1.471 1.471q.112.112.27.122q.157.01.288-.122q.13-.13.13-.278t-.13-.28l-1.466-1.465l1.472-1.47q.111-.112.12-.27q.01-.158-.12-.288q-.131-.131-.28-.131t-.278.13l-1.471 1.472l-1.471-1.471q-.112-.112-.27-.122q-.157-.01-.288.122q-.13.13-.13.278q0 .148.13.28l1.471 1.47l-1.477 1.477q-.111.112-.121.264q-.01.152.121.282q.13.131.279.131t.279-.13zm-12.61.14V6.616q0-.453.36-.693q.361-.24.765-.059l11.156 4.772h-.07q-.451.038-.909.132q-.457.095-.798.252L5.192 7v3.885L10.038 12l-4.846 1.115V17l6.035-2.57q-.123.287-.204.629q-.08.341-.1.576v.011l-5.6 2.414q-.404.18-.767-.059q-.364-.24-.364-.693m12.616 3.307q-1.671 0-2.836-1.164q-1.164-1.164-1.164-2.836q0-1.67 1.164-2.835q1.165-1.165 2.836-1.165q1.67 0 2.835 1.165t1.165 2.835q0 1.672-1.165 2.836q-1.164 1.164-2.835 1.164M5.192 14.431V7v10z"/></svg>