<svg xmlns="http://www.w3.org/2000/svg" width="1em" height="1em" viewBox="0 0 24 24"><path fill="currentColor" d="M20.45 21.163L17 17.713v2.937h-1V16h4.65v1h-2.962l3.45 3.45zM12 21q-1.868 0-3.51-.708q-1.642-.709-2.857-1.924q-1.215-1.214-1.924-2.856Q3 13.87 3 12.003q0-1.866.708-3.51q.709-1.643 1.924-2.859q1.214-1.216 2.856-1.925Q10.13 3 11.997 3q1.866 0 3.51.709t2.859 1.924q1.216 1.215 1.925 2.857Q21 10.133 21 12q0 .404-.036.808t-.106.807h-1.031q.086-.403.13-.807Q20 12.404 20 12q0-.59-.082-1.18q-.081-.59-.264-1.166h-4.035q.114.577.16 1.167q.048.59.048 1.179q0 .404-.023.808t-.07.807h-1q.047-.403.07-.807q.023-.404.023-.808q0-.59-.047-1.18t-.16-1.166H9.38q-.113.577-.16 1.168t-.047 1.183q0 .591.047 1.178q.047.586.16 1.163h4.005v1H9.619q.365 1.285.942 2.466q.577 1.18 1.439 2.196q.404 0 .808-.044t.807-.093v.992q-.403.05-.807.094Q12.404 21 12 21m-7.654-6.654h4.035q-.114-.577-.16-1.168q-.048-.591-.048-1.183q0-.591.047-1.178q.047-.586.16-1.163H4.347q-.183.577-.264 1.168Q4 11.413 4 12.005q0 .591.082 1.178q.081.586.264 1.163m.408-5.692h3.825q.292-1.252.812-2.4q.52-1.146 1.336-2.15q-1.99.296-3.562 1.507q-1.57 1.21-2.411 3.043m5.973 11.242q-.758-1.023-1.288-2.17t-.85-2.38H4.753q.84 1.814 2.421 3.024t3.552 1.526M9.619 8.654h4.762q-.339-1.287-.945-2.446Q12.83 5.048 12 3.992q-.842 1.016-1.442 2.195q-.6 1.18-.939 2.467m5.793 0h3.834q-.84-1.833-2.411-3.053q-1.572-1.22-3.562-1.497q.758 1.023 1.259 2.18q.5 1.156.88 2.37"/></svg>