<svg xmlns="http://www.w3.org/2000/svg" width="1em" height="1em" viewBox="0 0 24 24"><path fill="currentColor" d="M17 17.713v2.437q0 .213-.143.357q-.144.143-.357.143t-.357-.143Q16 20.363 16 20.15v-3.227q0-.394.264-.659t.66-.264h3.226q.213 0 .357.143q.143.144.143.357t-.143.357q-.144.143-.357.143h-2.462l3.116 3.115q.14.14.14.342q0 .2-.14.347q-.146.165-.357.156q-.21-.01-.357-.156zM12 21q-1.863 0-3.506-.71t-2.857-1.927Q4.42 17.148 3.71 15.506Q3 13.863 3 12t.71-3.506q.711-1.642 1.927-2.857Q6.852 4.42 8.494 3.71Q10.137 3 12 3t3.506.71q1.642.711 2.857 1.927q1.216 1.215 1.926 2.857Q21 10.137 21 12q0 .27-.012.57q-.013.3-.057.568q-.031.214-.187.346q-.156.131-.375.131q-.188 0-.329-.157q-.14-.158-.11-.366q.05-.269.06-.546Q20 12.27 20 12q0-.596-.082-1.183q-.081-.586-.264-1.163h-4.035q.114.577.16 1.163q.048.587.048 1.183q0 .27-.01.566q-.01.297-.034.567q-.031.213-.177.348q-.146.134-.36.134q-.188 0-.341-.152q-.153-.151-.122-.36q.025-.268.034-.551q.01-.283.01-.552q0-.596-.047-1.183q-.047-.586-.16-1.163H9.38q-.113.577-.16 1.163q-.047.587-.047 1.183t.047 1.183q.047.586.16 1.163h3.505q.213 0 .356.143t.144.357q0 .214-.144.357q-.143.143-.356.143H9.619q.358 1.287.939 2.467q.58 1.18 1.442 2.195q.288 0 .577-.007q.288-.007.558-.051q.194-.03.334.107t.14.331q0 .22-.119.366t-.332.177q-.27.044-.57.056q-.3.013-.588.013m-7.654-6.654h4.035q-.114-.577-.16-1.163q-.048-.587-.048-1.183t.047-1.183q.047-.586.16-1.163H4.347q-.183.577-.264 1.163Q4 11.404 4 12t.082 1.183q.081.586.264 1.163m6.38 5.55q-.757-1.023-1.287-2.17q-.53-1.147-.85-2.38H4.753q.84 1.814 2.421 3.024t3.552 1.526M4.754 8.654h3.834q.283-1.252.803-2.4q.52-1.146 1.336-2.15q-1.99.296-3.562 1.507q-1.57 1.21-2.411 3.043m4.865 0h4.762q-.339-1.287-.948-2.447q-.61-1.16-1.433-2.215q-.842 1.016-1.442 2.196q-.6 1.18-.939 2.466m5.793 0h3.834q-.84-1.833-2.411-3.053q-1.572-1.22-3.562-1.497q.758 1.023 1.259 2.18q.5 1.156.88 2.37"/></svg>