<svg xmlns="http://www.w3.org/2000/svg" width="1em" height="1em" viewBox="0 0 24 24"><path fill="currentColor" d="M3 20v-7.846L5.14 6h3.975v1H5.888l-1.473 4.154h8.062l2.49 2.49q-.23.143-.368.388q-.137.246-.137.545q0 .465.325.79t.79.325q.292 0 .531-.137q.24-.138.382-.368l.898.898L19 14.479V20h-1.23v-2H4.23v2zm3.428-4.308q.466 0 .788-.326q.322-.327.322-.794t-.326-.788q-.327-.322-.793-.322t-.79.326q-.321.327-.321.793t.326.79q.327.321.794.321m11.172-2.76l-6.1-6.124V1.5h5.288l6.12 6.125zm-2.6-7.2q.31 0 .52-.21t.21-.52q0-.31-.21-.521T15 4.27q-.31 0-.52.21t-.21.52q0 .31.21.52t.52.21"/></svg>