<svg xmlns="http://www.w3.org/2000/svg" width="1em" height="1em" viewBox="0 0 24 24"><path fill="currentColor" d="M3.5 20q-.213 0-.356-.144T3 19.5v-7.346L4.985 6.5q.073-.238.281-.37q.209-.13.465-.13h3.384v.317q0 .162.013.338q.012.176.057.345H5.888l-1.473 4.154h8.068l2.484 2.484q-.23.143-.368.394q-.137.252-.137.545q0 .465.325.79t.79.325q.442 0 .756-.29q.313-.29.342-.727q.333.108.663.142q.33.035.662-.015q.262-.03.514-.112q.253-.08.486-.211V19.5q0 .213-.144.356T18.5 20h-.23q-.213 0-.357-.144t-.144-.356V18H4.231v1.5q0 .213-.144.356T3.731 20zm2.928-4.308q.466 0 .788-.326q.322-.327.322-.794t-.326-.788q-.327-.322-.793-.322t-.79.326q-.321.327-.321.793t.326.79q.327.321.794.321m10.334-3.642l-4.908-4.908q-.157-.157-.256-.383q-.098-.225-.098-.46V2.711q0-.53.353-.87q.354-.342.859-.342h3.586q.236 0 .461.098q.226.099.383.256l4.908 4.908q.367.367.367.86t-.367.86l-3.567 3.568q-.368.367-.86.367q-.494 0-.861-.367m-1.763-6.32q.31 0 .521-.21t.21-.52q0-.31-.21-.52T15 4.27q-.31 0-.52.21t-.21.52q0 .31.21.52t.52.21"/></svg>