<svg xmlns="http://www.w3.org/2000/svg" width="1em" height="1em" viewBox="0 0 24 24"><path fill="currentColor" d="M4 18v-4.846zm-1 3v-7.846L5.162 7h5.086q-.017.25.002.5q.02.25.056.5H5.888l-1.473 4.154h8.668q.598.408 1.267.66q.67.253 1.435.34H4V18h14v-4.633q.237-.017.506-.1q.269-.082.494-.211V21h-1.23v-2H4.23v2zm12.581-4.308q.467 0 .79-.326q.321-.327.321-.794t-.326-.788q-.327-.322-.794-.322t-.788.326q-.322.327-.322.793t.326.79q.327.321.793.321m-9.153 0q.466 0 .788-.326q.322-.327.322-.794t-.326-.788q-.327-.322-.793-.322t-.79.326q-.321.327-.321.793t.326.79q.327.321.794.321M16.608 11q-1.664 0-2.828-1.164t-1.165-2.843q0-1.658 1.163-2.826Q14.94 3 16.623 3q1.664 0 2.828 1.164T20.615 7q0 1.671-1.172 2.836Q18.271 11 16.607 11m-.376-3.385H17v-3h-.77zm.384 1.847q.2 0 .322-.131q.12-.131.14-.312q0-.192-.13-.336t-.332-.145q-.2 0-.33.131q-.131.131-.131.331t.13.33q.131.132.331.132"/></svg>