<svg xmlns="http://www.w3.org/2000/svg" width="1em" height="1em" viewBox="0 0 24 24"><path fill="currentColor" d="M6.428 15.692q.466 0 .788-.326q.322-.327.322-.794t-.326-.788q-.327-.322-.793-.322t-.79.326q-.321.327-.321.793t.326.79q.327.321.794.321M4 17v-4.846zm.23 1v2H3v-7.846L5.14 6h3.975v1H5.888l-1.473 4.154h8.062l1 1H4V17h14v-1.521l1-1V20h-1.23v-2zM15 5.73q.31 0 .52-.21t.21-.52q0-.31-.21-.52T15 4.27q-.31 0-.52.21t-.21.52q0 .31.21.52t.52.21m2.6 7.203l-6.1-6.125V1.5h5.288l6.12 6.125zm0-1.421l3.887-3.887L16.362 2.5H12.5v3.887zm-2.023 4.18q.292 0 .531-.137q.24-.138.382-.368l-1.523-1.524q-.23.143-.368.382t-.137.532q0 .465.325.79t.79.325m1.42-8.696"/></svg>