<svg xmlns="http://www.w3.org/2000/svg" width="1em" height="1em" viewBox="0 0 24 24"><path fill="currentColor" d="M4 12.577v1.808q0 .23.192.423q.193.192.423.192h14.77q.23 0 .423-.192q.192-.193.192-.423v-1.808zM4.615 3h14.77q.67 0 1.143.472q.472.472.472 1.143v9.77q0 .67-.472 1.143q-.472.472-1.143.472h-4.462v2.952q0 .46-.379.699q-.379.24-.782.028l-1.408-.685q-.162-.086-.354-.086t-.354.086l-1.408.685q-.403.211-.782-.028q-.38-.24-.38-.7V16h-4.46q-.672 0-1.144-.472Q3 15.056 3 14.385v-9.77q0-.67.472-1.143Q3.944 3 4.615 3M4 10.423h16V4.615q0-.23-.192-.423Q19.615 4 19.385 4H4.615q-.23 0-.423.192Q4 4.385 4 4.615zm0 3.962V4h.615q-.23 0-.423.192Q4 4.385 4 4.615zq0 .23.192.423q.193.192.423.192H4z"/></svg>