<svg xmlns="http://www.w3.org/2000/svg" width="1em" height="1em" viewBox="0 0 24 24"><path fill="currentColor" d="M4 16.577v1.808q0 .23.192.423q.193.192.423.192h14.77q.23 0 .423-.192q.192-.193.192-.423v-1.808zM8 7V5.385q0-.69.463-1.153q.462-.463 1.152-.463h4.77q.69 0 1.153.463q.462.462.462 1.153V7h3.385q.69 0 1.152.463q.463.462.463 1.152v9.77q0 .69-.462 1.152q-.463.463-1.153.463H4.615q-.69 0-1.152-.462Q3 19.075 3 18.385v-9.77q0-.69.463-1.152Q3.925 7 4.615 7zm-4 7.423h16V8.615q0-.23-.192-.423Q19.615 8 19.385 8H16v1.115q0 .214-.143.357q-.144.143-.357.143t-.357-.143Q15 9.33 15 9.115V8H9v1.115q0 .214-.143.357q-.144.143-.357.143t-.357-.143Q8 9.33 8 9.115V8H4.615q-.23 0-.423.192Q4 8.385 4 8.615zM9 7h6V5.385q0-.231-.192-.423q-.193-.193-.423-.193h-4.77q-.23 0-.423.193Q9 5.154 9 5.385zM4 18.385V8v1.615V8v1.615V8h.615q-.23 0-.423.192Q4 8.385 4 8.615zq0 .23.192.423q.193.192.423.192H4z"/></svg>