<svg xmlns="http://www.w3.org/2000/svg" width="1em" height="1em" viewBox="0 0 24 24"><path fill="currentColor" d="m10.854 13.898l-1.37-2.044q-.124-.162-.292-.258q-.167-.096-.379-.096H3.88q-.506-.823-.692-1.538Q3 9.246 3 8.5q0-1.908 1.296-3.204Q5.592 4 7.5 4q1.32 0 2.475.675T12 6.638q.87-1.288 2.025-1.963T16.5 4q1.908 0 3.204 1.296Q21 6.592 21 8.5q0 .746-.187 1.462q-.186.715-.692 1.538h-4.873l-1.84-2.762q-.073-.11-.195-.164q-.123-.055-.263-.055q-.152 0-.264.092t-.155.237zM12 20.004l-.758-.685q-2.567-2.33-4.184-3.948q-1.618-1.617-2.53-2.871h4.185l1.86 2.78q.073.13.205.175q.132.045.272.045q.152 0 .255-.091q.103-.092.164-.238l1.677-5.036l1.337 2.011q.125.162.292.258t.379.096h4.317q-.911 1.254-2.529 2.871q-1.617 1.617-4.184 3.948z"/></svg>