<svg xmlns="http://www.w3.org/2000/svg" width="1em" height="1em" viewBox="0 0 24 24"><path fill="currentColor" d="M15.206 20.858q-.237.236-.542.357q-.304.122-.608.122t-.602-.122q-.298-.12-.535-.357l-1.246-1.227q-.236-.237-.345-.526q-.109-.29-.115-.582q-.005-.292.107-.585q.113-.292.318-.534l.266-.296l-8.15-11.65L7 2.212l12.283 12.282q.236.237.357.542q.122.304.122.608t-.122.602q-.12.298-.357.535zm-2.608-4.464l3.614-3.569L7 3.613L5.046 5.567zm1.054 3.75q.192.173.442.173t.423-.173l4.052-4.052q.173-.173.173-.423t-.173-.442L16.9 13.513l-4.52 4.52q-.192.192-.192.452t.193.432zm-1.054-3.75l3.614-3.569z"/></svg>