<svg xmlns="http://www.w3.org/2000/svg" width="1em" height="1em" viewBox="0 0 24 24"><path fill="currentColor" d="M9.5 19V9h-.885q-.269 0-.442.173T8 9.615v8.77q0 .269.173.442t.442.173zm2.277 1H8.615q-.69 0-1.152-.462Q7 19.075 7 18.385v-8.77q0-.69.463-1.152Q7.925 8 8.615 8H14V4h-.615q-.422 0-.711-.29q-.29-.289-.29-.71H15v9.165q-.254.104-.518.237q-.265.133-.482.29V9h-3.5v10h.965q.056.273.13.512q.072.238.182.488m5.53-6.308q1.672 0 2.836 1.165t1.165 2.835q0 1.671-1.165 2.836q-1.164 1.164-2.835 1.164t-2.836-1.164q-1.164-1.165-1.164-2.836q0-1.67 1.164-2.835t2.836-1.165m0 6.846q.217 0 .376-.158q.158-.159.158-.376t-.158-.376q-.159-.159-.376-.159t-.376.159q-.159.159-.159.376t.159.376q.158.158.376.158m-.373-1.784h.746v-.173q0-.294.15-.478t.35-.384q.35-.3.55-.613q.2-.314.2-.775q0-.687-.446-1.124q-.447-.438-1.177-.438q-.537 0-1 .338q-.462.337-.662.874l.685.273q.113-.3.37-.525q.257-.225.607-.225q.413 0 .645.207q.232.206.232.62q0 .294-.17.491q-.169.197-.369.397q-.15.15-.293.32q-.143.169-.268.33q-.075.131-.113.29q-.037.16-.037.322zM9.5 19V9zm1 0V9z"/></svg>