<svg xmlns="http://www.w3.org/2000/svg" width="1em" height="1em" viewBox="0 0 24 24"><path fill="currentColor" d="m17.908 21.175l-2.82-2.75q.2.2.325.475t.125.6q0 .641-.449 1.09q-.45.448-1.091.448q-.642 0-1.09-.449q-.446-.45-.446-1.091q0-.642.448-1.09q.449-.446 1.09-.446q.28 0 .547.097q.266.097.466.291L13.77 17.1q-.942.083-1.567.764q-.625.682-.625 1.636q0 .134.009.25q.008.115.05.25H9.386v-7.342l-.885-.885V20h-.885q-.685 0-1.15-.465T6 18.385V9.538q0-.057.014-.112q.015-.055.044-.107L2.292 5.554q-.14-.14-.15-.344q-.01-.204.15-.364t.354-.16t.354.16l15.615 15.616q.14.14.153.34q.013.202-.147.361q-.146.147-.347.15q-.2.002-.366-.138M14 12.996L8.985 8H13V4h-1.115q-.213 0-.357-.144t-.143-.357q0-.212.143-.356q.144-.143.357-.143h1.307q.344 0 .576.232q.232.232.232.576z"/></svg>