<svg xmlns="http://www.w3.org/2000/svg" width="1em" height="1em" viewBox="0 0 24 24"><path fill="currentColor" d="M8.077 16.846q.385 0 .654-.27q.269-.268.269-.653t-.27-.654Q8.463 15 8.078 15t-.654.27q-.27.268-.27.653t.27.654t.654.27m0-7.847q.385 0 .654-.27Q9 8.463 9 8.078t-.27-.654q-.268-.27-.653-.27t-.654.27t-.27.654q0 .385.27.654T8.077 9M12 12.923q.385 0 .654-.27t.27-.653q0-.385-.27-.654t-.654-.27q-.385 0-.654.27t-.27.654q0 .385.27.654t.654.27m3.923 3.922q.385 0 .654-.27t.27-.653q0-.385-.27-.654T15.923 15q-.385 0-.654.27q-.269.268-.269.653t.27.654q.268.27.653.27m0-7.847q.385 0 .654-.27q.27-.268.27-.653t-.27-.654t-.654-.27q-.385 0-.654.27T15 8.077q0 .385.27.654q.268.269.653.269M4 20V4h16v16zm1-1h14V5H5zm0 0V5z"/></svg>