<svg xmlns="http://www.w3.org/2000/svg" width="1em" height="1em" viewBox="0 0 24 24"><path fill="currentColor" d="M19.25 4.538q-.154 0-.27.116q-.115.115-.115.27v3q0 .153.116.268q.115.116.269.116t.27-.116q.115-.115.115-.269v-3q0-.154-.116-.27q-.115-.115-.269-.115m-2.5 0q-.154 0-.27.116q-.115.115-.115.27v3q0 .153.116.268q.115.116.269.116t.27-.116q.115-.115.115-.269v-3q0-.154-.116-.27q-.115-.115-.269-.115M14.462 19q0-2.379-.9-4.462t-2.458-3.645Q9.547 9.332 7.46 8.435Q5.373 7.538 3 7.538v-.923q0-.666.475-1.14Q3.949 5 4.615 5h7.166q-.073.244-.1.485q-.027.24-.046.515q-.193 2.765 1.684 4.787q1.877 2.02 4.681 2.02q.79 0 1.544-.2T21 12.034v5.352q0 .666-.475 1.14q-.474.475-1.14.475zM18 10.423q-1.671 0-2.836-1.164T14 6.423q0-1.671 1.164-2.835T18 2.423q1.671 0 2.836 1.165T22 6.423q0 1.671-1.164 2.836T18 10.423M3.962 19q-.414 0-.688-.274Q3 18.452 3 18.038q0-.413.274-.687q.274-.274.688-.274q.413 0 .687.274q.274.274.274.687q0 .414-.274.688q-.274.274-.687.274m3.842 0q-.204 0-.35-.141q-.146-.142-.183-.35q-.16-1.497-1.24-2.54q-1.08-1.042-2.596-1.24q-.204-.025-.32-.181Q3 14.39 3 14.19q0-.212.157-.355t.358-.113q1.908.185 3.247 1.523q1.338 1.339 1.51 3.246q.03.208-.11.358t-.358.15m3.773 0q-.233 0-.366-.179q-.134-.179-.165-.43q-.234-3.028-2.372-5.147q-2.137-2.119-5.184-2.31q-.207-.01-.349-.161q-.141-.15-.141-.35q0-.213.157-.36t.378-.134q3.467.19 5.898 2.628t2.632 5.899q.012.232-.132.388q-.144.156-.356.156"/></svg>