<svg xmlns="http://www.w3.org/2000/svg" width="1em" height="1em" viewBox="0 0 24 24"><path fill="currentColor" d="M3.962 19q-.414 0-.688-.274Q3 18.452 3 18.038q0-.413.274-.687q.274-.274.688-.274q.413 0 .687.274q.274.274.274.687q0 .414-.274.688q-.274.274-.687.274m3.846 0q-.208 0-.354-.141q-.146-.142-.183-.35q-.16-1.497-1.24-2.54q-1.08-1.042-2.596-1.24q-.202-.03-.319-.18Q3 14.4 3 14.192q0-.213.157-.356t.358-.113q1.908.185 3.247 1.523q1.338 1.339 1.51 3.246q.03.208-.11.358t-.354.15m3.769 0q-.233 0-.366-.179q-.134-.179-.165-.43q-.234-3.028-2.372-5.147q-2.137-2.119-5.184-2.31q-.207-.01-.349-.157Q3 10.63 3 10.423q0-.213.157-.36t.378-.134q3.467.19 5.898 2.628t2.632 5.899q.012.232-.131.388q-.144.156-.357.156m2.885 0q0-2.379-.898-4.463t-2.457-3.644q-1.56-1.56-3.647-2.457Q5.373 7.538 3 7.538v-.923q0-.67.472-1.143Q3.944 5 4.615 5h14.77q.67 0 1.143.472q.472.472.472 1.143v10.77q0 .67-.472 1.143q-.472.472-1.143.472z"/></svg>