<svg xmlns="http://www.w3.org/2000/svg" width="1em" height="1em" viewBox="0 0 24 24"><path fill="currentColor" d="M19.385 19h-4.923q0-.25-.014-.5q-.013-.25-.04-.5h4.977q.269 0 .442-.173t.173-.442V6.615q0-.269-.173-.442T19.385 6H4.615q-.269 0-.442.173T4 6.615v.977q-.25-.027-.5-.04q-.25-.014-.5-.014v-.923q0-.666.475-1.14Q3.949 5 4.615 5h14.77q.666 0 1.14.475q.475.474.475 1.14v10.77q0 .666-.475 1.14q-.474.475-1.14.475m-11.58 0q-.205 0-.351-.141q-.146-.142-.183-.35q-.16-1.497-1.24-2.55t-2.596-1.23q-.204-.025-.32-.181Q3 14.39 3 14.19q0-.212.16-.355q.16-.144.361-.113q1.908.185 3.243 1.523q1.336 1.339 1.507 3.246q.03.208-.11.358t-.357.15m3.773 0q-.233 0-.366-.179q-.134-.179-.165-.43q-.234-3.028-2.372-5.147q-2.137-2.119-5.184-2.31q-.207-.01-.349-.161q-.141-.15-.141-.35q0-.213.157-.36t.378-.134q3.467.19 5.898 2.628t2.632 5.899q.012.232-.132.388q-.144.156-.356.156m-7.79 0q-.331 0-.56-.229Q3 18.542 3 18.211q0-.332.229-.56q.229-.228.56-.228q.332 0 .56.23q.228.228.228.56q0 .331-.229.56q-.229.227-.56.227"/></svg>