<svg xmlns="http://www.w3.org/2000/svg" width="1em" height="1em" viewBox="0 0 24 24"><path fill="currentColor" d="m4.162 18.73l2.775-7.71q.105-.268.31-.405q.205-.136.447-.136q.162 0 .298.046q.137.046.268.177l4.98 4.98q.131.131.177.268q.046.137.046.298q0 .242-.136.447q-.137.205-.404.31l-7.711 2.776q-.243.086-.47.028q-.227-.059-.388-.22q-.162-.162-.22-.389t.028-.47M21.66 7.526q-.13.148-.304.148t-.304-.129l-.056-.056q-.465-.465-1.106-.465q-.64 0-1.105.465l-5.056 5.056q-.129.13-.304.139q-.175.01-.323-.139t-.148-.313q0-.166.148-.314l5.056-5.055q.704-.704 1.713-.704q1.01 0 1.714.704l.075.075q.128.128.128.294q0 .165-.128.294M9.783 4.775q.148-.148.313-.148q.166 0 .314.148l.298.298q.8.8.8 1.939q0 1.138-.8 1.938l-.287.287q-.129.128-.304.138q-.175.01-.323-.138t-.148-.314q0-.165.148-.313l.287-.287q.542-.542.542-1.311q0-.77-.542-1.312l-.298-.298q-.13-.129-.139-.304q-.01-.175.139-.323m3.665-1.462q.148-.148.314-.148q.165 0 .313.148l1.056 1.056q.723.723.723 1.733q0 1.01-.723 1.733l-3.056 3.055q-.129.13-.304.139q-.175.01-.323-.139t-.148-.313q0-.165.148-.314l3.056-3.055q.465-.466.465-1.106q0-.64-.465-1.106L13.448 3.94q-.129-.128-.138-.303q-.01-.175.138-.324m6.23 10.885q-.147.148-.313.148q-.165 0-.313-.148l-.479-.479q-.561-.561-1.356-.561t-1.355.561l-.48.48q-.128.128-.303.138q-.175.01-.323-.139t-.148-.313q0-.166.148-.314l.479-.479q.819-.819 1.982-.819q1.164 0 1.983.82l.479.478q.129.129.138.304q.01.175-.138.323"/></svg>