<svg xmlns="http://www.w3.org/2000/svg" width="1em" height="1em" viewBox="0 0 24 24"><path fill="currentColor" d="M6.385 19.808v-5.962q0-.69.462-1.153q.463-.462 1.153-.462h.885v-2.077H8q-.69 0-1.153-.463t-.462-1.153V6.192q0-.69.462-1.153Q7.31 4.577 8 4.577h8q.69 0 1.153.462t.462 1.153v2.346q0 .69-.462 1.153T16 10.154h-.885v2.077H16q.69 0 1.153.462t.462 1.153v5.962h-1v-3h-9.23v3zM8 9.154h8q.23 0 .423-.192q.192-.193.192-.424V6.192q0-.23-.192-.423q-.192-.192-.423-.192H8q-.23 0-.423.192q-.192.193-.192.423v2.346q0 .231.192.424q.192.192.423.192m1.885 3.077h4.23v-2.077h-4.23zm-2.5 3.577h9.23v-1.962q0-.23-.192-.423q-.192-.192-.423-.192H8q-.23 0-.423.192q-.192.192-.192.423zm0-6.654V5.577zm0 6.654V13.23z"/></svg>