<svg xmlns="http://www.w3.org/2000/svg" width="1em" height="1em" viewBox="0 0 24 24"><path fill="currentColor" d="M17.615 10.885V9.53l-.865.865l-.546-.546l1.411-1.412V7.385h-1.053L15.15 8.796l-.546-.546l.865-.865h-1.354v-.77h1.354l-.865-.865l.546-.546l1.412 1.392h1.053V5.562L16.204 4.15l.546-.546l.865.865V3.115h.77V4.47l.865-.865l.546.546l-1.411 1.412v1.053h1.053l1.412-1.411l.546.546l-.865.865h1.354v.77H20.53l.865.865l-.546.546l-1.412-1.411h-1.053v1.053l1.411 1.412l-.546.546l-.865-.865v1.354zm-2.477 4.578L14 14.325V19H6v-4.7l-.946.946l-.689-.688L10 8.923l5.827 5.827zM7 18h2.5v-2.5h1V18H13v-4.675l-3-3l-3 2.98zm0 0h6z"/></svg>