<svg xmlns="http://www.w3.org/2000/svg" width="1em" height="1em" viewBox="0 0 24 24"><path fill="currentColor" d="m6.077 17l-1.704 1.704q-.379.379-.876.17Q3 18.668 3 18.134V4.615q0-.69.463-1.152Q3.925 3 4.615 3h14.77q.69 0 1.152.463q.463.462.463 1.152v10.77q0 .69-.462 1.153q-.463.462-1.153.462zM7 13.5h6q.213 0 .356-.144q.144-.144.144-.357t-.144-.356Q13.213 12.5 13 12.5H7q-.213 0-.356.144q-.144.144-.144.357t.144.356q.144.143.356.143m0-3h10q.213 0 .356-.144q.144-.144.144-.357t-.144-.356Q17.213 9.5 17 9.5H7q-.213 0-.356.144Q6.5 9.788 6.5 10t.144.356q.144.143.356.143m0-3h10q.213 0 .356-.144q.144-.144.144-.357t-.144-.356Q17.213 6.5 17 6.5H7q-.213 0-.356.144q-.144.144-.144.357t.144.356Q6.788 7.5 7 7.5"/></svg>