<svg xmlns="http://www.w3.org/2000/svg" width="1em" height="1em" viewBox="0 0 24 24"><path fill="currentColor" d="M14.45 19.5q-.212 0-.356-.144T13.95 19t.144-.356q.144-.143.356-.143h4.402l-3.589-2.529q-.18-.123-.212-.314q-.032-.192.079-.37q.11-.179.308-.21q.197-.033.374.077l3.632 2.523l-1.532-4.15q-.074-.183.025-.375q.098-.192.286-.265q.189-.074.39.025q.202.098.275.286l1.489 4.112l1.154-4.225q.067-.189.231-.305t.353-.05q.189.068.315.233q.126.164.058.352L20.815 19.5zm-6.835-11h6.77q.212 0 .356-.144t.144-.357t-.144-.356q-.144-.143-.356-.143h-6.77q-.212 0-.356.144T7.115 8t.144.356q.144.143.356.143m0 4h3.77q.212 0 .356-.144t.144-.357t-.144-.356q-.144-.143-.356-.143h-3.77q-.212 0-.356.144T7.115 12t.144.356q.144.143.356.143m-1.827 4l-1.598 1.6q-.186.186-.438.089t-.252-.369V5.115q0-.666.475-1.14q.474-.475 1.14-.475h11.77q.666 0 1.14.475q.475.474.475 1.14v4.902q-.192-.011-.385-.014q-.192-.003-.384-.003q-2.39 0-4.06 1.671Q12 13.343 12 15.731q0 .192.003.384q.003.193.014.385z"/></svg>