<svg xmlns="http://www.w3.org/2000/svg" width="1em" height="1em" viewBox="0 0 24 24"><path fill="currentColor" d="M14.45 19.5q-.212 0-.356-.144T13.95 19t.144-.356q.144-.143.356-.143h4.402l-3.589-2.529q-.18-.123-.212-.314q-.032-.192.079-.37q.11-.179.308-.21q.197-.033.374.077l3.632 2.523l-1.532-4.15q-.074-.183.025-.375q.098-.192.286-.265q.189-.074.39.025q.202.098.275.286l1.489 4.112l1.154-4.225q.067-.189.231-.305t.353-.05q.189.068.315.233q.126.164.058.352L20.815 19.5zm-8.662-3L4.19 18.099q-.186.186-.438.089t-.252-.369V5.115q0-.666.475-1.14q.474-.475 1.14-.475h11.77q.666 0 1.14.475q.475.474.475 1.14v4.902q-.125-.011-.25-.014Q18.125 10 18 10t-.25.003q-.125.003-.25.014V5.115q0-.269-.173-.442t-.442-.173H5.115q-.269 0-.442.173t-.173.442V15.5h7.517q-.011.125-.014.25Q12 15.875 12 16t.003.25q.003.125.014.25zm1.827-8h6.77q.212 0 .356-.144t.144-.357t-.144-.356q-.144-.143-.356-.143h-6.77q-.212 0-.356.144T7.115 8t.144.356q.144.143.356.143m0 4h3.77q.212 0 .356-.144t.144-.357t-.144-.356q-.144-.143-.356-.143h-3.77q-.212 0-.356.144T7.115 12t.144.356q.144.143.356.143m-3.115 3v-11z"/></svg>