<svg xmlns="http://www.w3.org/2000/svg" width="1em" height="1em" viewBox="0 0 24 24"><path fill="currentColor" d="M14.45 19.5q-.212 0-.356-.144T13.95 19t.144-.356q.144-.143.356-.143h4.402l-3.589-2.529q-.18-.123-.212-.314q-.032-.192.079-.37q.11-.179.308-.21q.197-.033.374.077l3.632 2.523l-1.532-4.15q-.074-.183.025-.375q.098-.192.286-.265q.189-.074.39.025q.202.098.275.286l1.489 4.112l1.154-4.225q.067-.189.231-.305t.353-.05q.189.068.315.233q.126.164.058.352L20.815 19.5zM3.5 18.788V3.5h15v6.517q-.125-.011-.25-.014Q18.125 10 18 10t-.25.003q-.125.003-.25.014V4.5h-13v11h7.517q-.011.125-.014.25Q12 15.875 12 16t.003.25q.003.125.014.25H5.788zM7.115 8.5h7.77v-1h-7.77zm0 4h4.77v-1h-4.77zm-2.615 3v-11z"/></svg>