<svg xmlns="http://www.w3.org/2000/svg" width="1em" height="1em" viewBox="0 0 24 24"><path fill="currentColor" d="M3.885 19.385q-.214 0-.357-.144t-.143-.356q0-.214.143-.357t.357-.143h16.23q.214 0 .357.143t.143.357q0 .213-.143.356t-.357.144zm2.73-3q-.69 0-1.152-.463Q5 15.46 5 14.77V8.615q0-.69.463-1.152Q5.925 7 6.615 7h3q0-.98.702-1.683q.702-.702 1.683-.702q.98 0 1.683.702q.702.702.702 1.683h3q.69 0 1.152.463q.463.462.463 1.152v6.154q0 .69-.462 1.153t-1.153.463zm10.077-1h.693q.269 0 .442-.173q.173-.174.173-.443V8.615q0-.269-.173-.442T17.385 8h-.693zM10.5 7h3q0-.65-.425-1.075T12 5.5q-.65 0-1.075.425T10.5 7m-3.192 8.385V8h-.693q-.269 0-.442.173T6 8.615v6.154q0 .27.173.443t.442.173zM8.192 8v7.385h7.616V8zm-.884 7.385h.884zm9.384 0h-.884zm-9.384 0H6zm.884 0h7.616zm8.5 0H18z"/></svg>