<svg xmlns="http://www.w3.org/2000/svg" width="1em" height="1em" viewBox="0 0 24 24"><path fill="currentColor" d="M10.558 7h3q0-.65-.425-1.075T12.058 5.5q-.65 0-1.075.425T10.558 7M7.365 8h-.692q-.27 0-.442.173t-.173.442v6.154q0 .27.173.443t.442.173h.692zM3.442 19.385v-1h8.196q.049.273.1.51q.052.236.154.49zM8.25 8v7.385h3.7q-.102.253-.154.48t-.12.52H6.674q-.69 0-1.153-.463t-.462-1.153V8.615q0-.69.462-1.152Q5.983 7 6.673 7h3q0-.98.702-1.683q.702-.702 1.683-.702q.98 0 1.682.702T14.442 7h3q.69 0 1.153.463t.463 1.152v3.07q-.268-.073-.497-.11q-.23-.037-.503-.056V8.615q0-.269-.173-.442T17.442 8h-.692v3.562q-.238.036-.442.07q-.204.033-.443.106V8zm9.308 5.5q1.67 0 2.835 1.164t1.165 2.836q0 1.671-1.165 2.836T17.558 21.5q-1.671 0-2.836-1.164T13.558 17.5q0-1.671 1.164-2.836t2.836-1.164m0 6.846q.217 0 .376-.158t.158-.376q0-.218-.158-.376t-.376-.16q-.218 0-.376.16t-.159.376q0 .217.159.375t.376.16m0-5.77q-.537 0-1 .337q-.462.338-.662.874l.685.274q.113-.3.37-.525q.257-.225.607-.225q.413 0 .645.206q.232.207.232.62q0 .295-.17.492q-.169.197-.369.397q-.15.15-.293.32q-.143.168-.268.33q-.075.13-.113.29q-.037.16-.037.321v.274h.746v-.174q0-.294.15-.477t.35-.384q.35-.3.55-.614q.2-.313.2-.775q0-.686-.446-1.124q-.447-.437-1.177-.437M7.365 8h.885zm0 0H6.058zm.885 0h7.615zm7.615 0h.885zm.885 0h1.308z"/></svg>