<svg xmlns="http://www.w3.org/2000/svg" width="1em" height="1em" viewBox="0 0 24 24"><path fill="currentColor" d="M17.562 14.577q-.46 0-.86.237t-.65.657q-.08.13-.018.26q.063.13.21.19q.125.06.266.014q.14-.047.227-.172q.144-.194.353-.323q.21-.128.462-.128q.42 0 .65.205q.233.205.233.615q0 .3-.17.498q-.169.197-.369.397q-.15.15-.293.32q-.143.168-.268.335q-.075.126-.113.285q-.037.16-.037.324t.102.268q.103.103.268.103q.164 0 .27-.104q.106-.104.106-.27q0-.219.15-.39t.35-.371q.35-.3.55-.614q.2-.313.2-.782q0-.68-.446-1.117q-.447-.437-1.173-.437M10.558 7h3q0-.625-.438-1.062T12.058 5.5q-.625 0-1.063.438T10.558 7m6.192 4.556V7h.692q.667 0 1.141.475q.475.474.475 1.14v3.07q-.552-.143-1.142-.17t-1.166.04m-10.077 4.83q-.666 0-1.14-.475q-.475-.474-.475-1.14V8.614q0-.666.474-1.14Q6.007 7 6.673 7h.692v9.385zm1.577 0V7h1.423q0-1 .697-1.692q.697-.693 1.692-.693t1.688.696q.692.695.692 1.689h1.423v4.763q-1.62.483-2.739 1.72q-1.118 1.238-1.45 2.902zm9.308 3.961q.226 0 .38-.154t.154-.38q0-.227-.154-.38q-.154-.155-.38-.155t-.38.154q-.155.154-.155.38q0 .227.154.381t.38.154m0 1.154q-1.67 0-2.835-1.164T13.558 17.5q0-1.671 1.164-2.836t2.836-1.164q1.67 0 2.835 1.164t1.165 2.836q0 1.671-1.165 2.836T17.558 21.5M3.942 19.385q-.212 0-.356-.144t-.144-.357q0-.213.144-.356t.356-.143h7.696q.043.269.106.512q.064.244.148.488z"/></svg>