<svg xmlns="http://www.w3.org/2000/svg" width="1em" height="1em" viewBox="0 0 24 24"><path fill="currentColor" d="m5.813 16.502l3.897-3.896q.146-.146.353-.153q.208-.007.354.159q.14.153.14.357t-.14.35l-4.013 4.02q-.242.242-.566.242t-.565-.243L3.335 15.4q-.14-.14-.131-.344q.01-.204.15-.344q.14-.14.347-.14t.341.14zm0-7.23L9.71 5.374q.146-.146.353-.153q.208-.007.354.159q.14.153.14.357t-.14.35l-4.013 4.02q-.242.242-.566.242t-.565-.242L3.335 8.169q-.14-.14-.131-.344q.01-.204.15-.344q.14-.14.347-.14t.341.14zm7.706 6.843q-.212 0-.356-.144t-.144-.356q0-.213.144-.356t.356-.144h7q.213 0 .356.144t.144.357q0 .213-.144.356t-.356.143zm0-7.23q-.212 0-.356-.144t-.144-.357q0-.213.144-.356t.356-.143h7q.213 0 .356.144t.144.356q0 .213-.144.356t-.356.144z"/></svg>