<svg xmlns="http://www.w3.org/2000/svg" width="1em" height="1em" viewBox="0 0 24 24"><path fill="currentColor" d="m7.863 4.429l-.55-1.58q-.061-.16.028-.32q.09-.16.26-.221q.155-.062.316.023q.161.085.22.24l.55 1.575q.061.16-.029.32q-.09.162-.254.22q-.166.062-.323-.01q-.158-.073-.218-.247m3.695-1.179v-1.5q0-.192.125-.317t.316-.125t.317.125q.126.125.126.317v1.5q0 .192-.125.317t-.316.125t-.317-.125q-.126-.125-.126-.317m3.761.896l.544-1.575q.06-.16.218-.24q.157-.08.327-.018q.155.062.248.222q.092.16.03.319l-.55 1.575q-.058.155-.22.24q-.16.085-.32.023q-.16-.061-.249-.224q-.09-.162-.028-.322M3.046 22.452q-.19.03-.342-.084q-.151-.116-.179-.303l-.012-.092q-.03-.19.08-.339q.11-.148.301-.176l4.827-.752q.426-.073.756-.345q.329-.273.448-.682l.83-2.65q.183-.542-.028-1.06q-.212-.517-.729-.75l-.794 2.458q-.067.188-.247.29q-.18.1-.378.033t-.3-.247q-.1-.18-.033-.368l2.189-6.866q.107-.361.02-.71q-.086-.347-.386-.497L5.22 16.65q-.323.61-.94.97q-.616.36-1.44.36h-.174q-.198 0-.326-.127t-.127-.326v-.092q0-.199.127-.327q.128-.127.326-.127h.347q.414 0 .771-.208q.358-.208.546-.586l4.027-7.662q.157-.303.473-.394q.315-.09.613.07l.081.047q.656.39.88 1.128q.224.737-.005 1.474l-1.102 3.43q.908.368 1.309 1.25q.4.883.108 1.816l-.85 2.65q-.217.685-.758 1.142q-.542.456-1.238.562zm13.087-.733q-.696-.106-1.238-.562q-.541-.457-.758-1.142l-.85-2.65q-.293-.932.108-1.815q.401-.883 1.309-1.25l-1.102-3.43q-.229-.737-.005-1.475q.224-.737.88-1.128l.08-.046q.299-.161.614-.07q.316.09.473.393l4.027 7.662q.188.378.546.586q.357.208.771.208h.347q.198 0 .326.128q.127.127.127.326v.092q0 .199-.127.326t-.326.128h-.173q-.825 0-1.442-.36q-.616-.361-.94-.97l-3.85-7.34q-.3.15-.386.499q-.086.348.021.71l2.189 6.865q.067.188-.034.368q-.1.18-.299.247q-.198.068-.38-.027q-.182-.094-.245-.296l-.794-2.458q-.517.233-.729.75q-.211.518-.029 1.06l.831 2.65q.12.41.449.682q.329.272.755.345l4.827.752q.19.028.301.177q.11.148.08.338l-.012.093q-.028.187-.18.302q-.15.115-.341.084zm.298-3.7"/></svg>