<svg xmlns="http://www.w3.org/2000/svg" width="1em" height="1em" viewBox="0 0 24 24"><path fill="currentColor" d="m7.863 4.429l-.55-1.58q-.061-.16.028-.32q.09-.16.255-.221q.16-.062.32.02q.159.084.22.243l.55 1.575q.062.16-.03.32q-.093.159-.252.22q-.166.062-.322-.015t-.219-.242m3.695-1.179v-1.5q0-.19.126-.316T12 1.308t.316.126q.126.126.126.316v1.5q0 .19-.126.316T12 3.692t-.316-.126q-.126-.126-.126-.316m3.761.896l.544-1.575q.062-.16.219-.24t.322-.018q.16.062.252.222t.03.319l-.55 1.575q-.061.16-.22.242q-.16.083-.32.021q-.16-.061-.249-.224q-.09-.162-.028-.322m.82 17.573q-.697-.106-1.238-.562q-.541-.457-.759-1.142l-.85-2.65q-.236-.74-.025-1.468q.212-.728.785-1.207l1.071 3.377q.05.143.187.21q.136.07.278.02q.143-.05.218-.187q.075-.137.025-.28l-2.223-6.96q-.23-.737-.005-1.475q.224-.737.88-1.128l.08-.046q.299-.161.612-.068t.475.391l4.027 7.662q.183.384.545.59q.363.204.772.204h.385q.333 0 .552.244q.219.244.169.577l-.575 3.916q-.05.348-.308.534q-.257.187-.605.137zM7.866 21.7l-4.473.689q-.348.05-.606-.137q-.257-.187-.307-.535l-.575-3.915q-.05-.333.169-.577q.22-.244.552-.244h.385q.41 0 .772-.205q.362-.205.545-.59l4.027-7.661q.161-.298.475-.391q.313-.094.611.068l.081.046q.656.39.88 1.128q.224.737-.005 1.474L8.17 17.812q-.05.142.025.278q.075.137.218.187q.142.05.278-.028q.137-.078.187-.22l1.071-3.364q.579.48.79 1.21q.212.73-.025 1.471l-.85 2.65q-.217.685-.758 1.142q-.542.456-1.238.562"/></svg>