<svg xmlns="http://www.w3.org/2000/svg" width="1em" height="1em" viewBox="0 0 24 24"><path fill="currentColor" d="m7.992 4.84l-.807-2.403l.823-.277l.807 2.398zm3.566-1.148V1.308h.884v2.384zm4.45 1.148l-.823-.282l.807-2.398l.823.282zM2.592 22.52l-.146-.995l5.275-.82q.426-.072.756-.344q.329-.273.448-.682l.83-2.65q.183-.542-.028-1.06q-.212-.517-.729-.75l-.94 2.946l-.958-.311l2.335-7.335q.107-.361.02-.71q-.086-.347-.386-.497L5.22 16.65q-.323.61-.92.97q-.596.36-1.287.36h-.8v-1h.8q.41 0 .768-.207q.36-.208.549-.586l4.406-8.389l.788.45q.656.39.88 1.128q.224.737-.005 1.474l-1.102 3.43q.908.368 1.309 1.25q.4.883.108 1.816l-.85 2.65q-.217.685-.758 1.142q-.542.456-1.238.562zm18.816.018l-5.275-.819q-.696-.106-1.238-.562q-.541-.457-.758-1.142l-.85-2.65q-.293-.932.108-1.815q.401-.883 1.309-1.25l-1.102-3.43q-.229-.737-.005-1.475q.224-.737.88-1.128l.788-.45l4.406 8.389q.188.378.546.586q.357.208.771.208h.8v1h-.8q-.69 0-1.287-.36q-.597-.361-.92-.97l-3.85-7.34q-.3.15-.387.499q-.086.348.021.71l2.335 7.334l-.958.312l-.94-2.947q-.517.233-.729.75q-.211.518-.029 1.06l.831 2.65q.12.41.449.682q.329.272.755.345l5.275.82zm-5.466-4.353L14.704 14.3zM9.296 14.28l-1.238 3.884z"/></svg>