<svg xmlns="http://www.w3.org/2000/svg" width="1em" height="1em" viewBox="0 0 24 24"><path fill="currentColor" d="M5.77 19.23h12.46v-1.326q0-.27-.172-.442t-.443-.174H6.385q-.27 0-.443.174t-.173.442zm2.684-2.942h7.092l-.69-4.788H9.144zM5.57 20.231q-.341 0-.571-.232q-.23-.233-.23-.576v-1.52q0-.665.475-1.14q.474-.475 1.14-.475h1.07l.684-4.788H6.27q-.212 0-.356-.144T5.769 11t.144-.356q.144-.143.356-.143h11.462q.212 0 .356.144t.144.357t-.144.356q-.144.143-.356.143h-1.87l.685 4.788h1.065q.676 0 1.148.475q.472.474.472 1.14v1.52q0 .343-.231.576q-.231.232-.573.232zm6.435-16.268q.118 0 .232.034q.113.034.23.101q.46.296 1.024.462q.563.165 1.192.165q.39 0 .72-.063q.332-.064.707-.211q.21-.074.399-.062q.19.013.331.138q.143.125.22.29q.078.164.028.375l-1.19 5.308h-1.03l1.128-4.998q-.288.096-.63.16q-.341.063-.76.063q-.696 0-1.362-.179q-.667-.179-1.244-.525q-.571.346-1.238.525t-1.364.179q-.411 0-.749-.044t-.626-.14l1.11 4.959H8.102L6.93 5.192q-.05-.217.028-.372t.22-.28q.142-.125.325-.147q.183-.022.388.07q.335.135.68.199q.345.063.726.063q.648 0 1.212-.165q.563-.166 1.023-.462q.117-.067.235-.1q.119-.035.237-.035M12 19.231"/></svg>