<svg xmlns="http://www.w3.org/2000/svg" width="1em" height="1em" viewBox="0 0 24 24"><path fill="currentColor" d="M14.388 11.442q-.394 0-.67-.272t-.276-.666t.272-.67q.273-.276.667-.276t.67.272q.276.272.276.666t-.272.67q-.272.276-.667.276m-4.769 0q-.394 0-.67-.272t-.276-.666t.272-.67q.272-.276.667-.276t.67.272q.276.272.276.666t-.272.67q-.273.276-.667.276M12 16.231q-1.212 0-2.222-.604T8.154 14h7.692q-.613 1.023-1.624 1.627q-1.01.604-2.222.604M12.001 20q-1.664 0-3.12-.626q-1.454-.626-2.542-1.713q-1.087-1.088-1.713-2.542Q4 13.666 4 12.001q0-1.664.626-3.12q.626-1.454 1.713-2.542q1.088-1.087 2.542-1.713Q10.334 4 11.999 4q1.664 0 3.12.626q1.454.626 2.542 1.713q1.087 1.088 1.713 2.542q.626 1.453.626 3.118q0 1.664-.626 3.12q-.626 1.454-1.713 2.542q-1.088 1.087-2.542 1.713q-1.453.626-3.118.626M12 19q2.9 0 4.95-2.05T19 12q0-2.9-2.05-4.95T12 5q-.272 0-.544.02q-.271.018-.518.068q-.073.189-.084.325q-.012.137-.012.337q0 .64.459 1.099q.459.459 1.105.459q.277 0 .435-.075q.159-.075.359-.075q.168 0 .28.133q.112.134.112.312q0 .341-.383.465q-.384.124-.809.124q-1.01 0-1.726-.716T9.958 5.75v-.204q0-.09.044-.242q-2.171.634-3.587 2.458Q5 9.585 5 12q0 2.9 2.05 4.95T12 19m0-7"/></svg>