<svg xmlns="http://www.w3.org/2000/svg" width="1em" height="1em" viewBox="0 0 24 24"><path fill="currentColor" d="M10.037 18.935q-2.974-.362-5.005-2.61T3 11q0-3.333 2.332-5.667Q7.664 3 10.995 3q3.332 0 5.668 2.333Q19 7.667 19 11q0 1.44-.5 2.713Q18 14.985 17.146 16H12.95q-1.17 0-2.002.8t-.929 1.95q0 .046.003.092t.015.093M13 13.708l.708-.708l-2.208-2.208V6.5h-1v4.708zM13 21h6q.825 0 1.413-.587T21 19q0-.825-.587-1.412T19 17h-6q-.825 0-1.412.588T11 19q0 .825.588 1.413T13 21m0-1.27q-.31 0-.52-.21t-.21-.52q0-.31.21-.52t.52-.21q.31 0 .52.21t.21.52q0 .31-.21.52t-.52.21m3 0q-.31 0-.52-.21t-.21-.52q0-.31.21-.52t.52-.21q.31 0 .52.21t.21.52q0 .31-.21.52t-.52.21m3 0q-.31 0-.52-.21t-.21-.52q0-.31.21-.52t.52-.21q.31 0 .52.21t.21.52q0 .31-.21.52t-.52.21"/></svg>