<svg xmlns="http://www.w3.org/2000/svg" width="1em" height="1em" viewBox="0 0 24 24"><path fill="currentColor" d="m13 13.708l.708-.708l-2.208-2.208V6.5h-1v4.708zm-2.8 4.22q.323-.834 1.057-1.38Q11.99 16 12.95 16h2.896q1.004-.927 1.579-2.218Q18 12.49 18 11q0-2.925-2.037-4.962T11 4Q8.075 4 6.038 6.038T4 11q0 2.72 1.79 4.678t4.41 2.25M13 22q-1.277 0-2.146-.913q-.87-.912-.817-2.152q-2.974-.362-5.005-2.61T3 11q0-3.333 2.332-5.667Q7.664 3 10.995 3q3.332 0 5.668 2.333Q19 7.667 19 11q0 1.44-.497 2.713q-.497 1.272-1.351 2.287h1.904q1.237 0 2.09.881Q22 17.762 22 19t-.881 2.119Q20.238 22 19 22zm0-1h6q.825 0 1.413-.587T21 19q0-.825-.587-1.412T19 17h-6q-.825 0-1.412.588T11 19q0 .825.588 1.413T13 21m0-1.27q-.31 0-.52-.21t-.21-.52q0-.31.21-.52t.52-.21q.31 0 .52.21t.21.52q0 .31-.21.52t-.52.21m3 0q-.31 0-.52-.21t-.21-.52q0-.31.21-.52t.52-.21q.31 0 .52.21t.21.52q0 .31-.21.52t-.52.21m3 0q-.31 0-.52-.21t-.21-.52q0-.31.21-.52t.52-.21q.31 0 .52.21t.21.52q0 .31-.21.52t-.52.21"/></svg>