<svg xmlns="http://www.w3.org/2000/svg" width="1em" height="1em" viewBox="0 0 24 24"><path fill="currentColor" d="M16.9 13.846q.402.012.782-.03q.38-.041.764-.154q-.256 2.91-2.39 4.874Q13.92 20.5 11 20.5q-1.548 0-2.916-.587q-1.369-.588-2.389-1.608q-1.02-1.02-1.607-2.389T3.5 13q0-2.921 1.964-5.046t4.874-2.42q-.113.385-.154.775t-.03.791q-2.223.337-3.689 1.992Q5 10.748 5 13q0 2.5 1.75 4.25T11 19q2.252 0 3.927-1.465q1.675-1.466 1.973-3.689M17 2.154q2.02 0 3.433 1.413Q21.846 4.981 21.846 7q0 2.02-1.413 3.433q-1.414 1.413-3.433 1.413q-2.02 0-3.433-1.413Q12.154 9.019 12.154 7q0-2.02 1.413-3.433Q14.981 2.154 17 2.154m0 8.192q1.394 0 2.37-.976q.976-.976.976-2.37q0-1.394-.976-2.37q-.976-.976-2.37-.976q-1.394 0-2.37.976q-.976.976-.976 2.37q0 1.394.976 2.37q.976.976 2.37.976m-6.04 2.694"/></svg>