<svg xmlns="http://www.w3.org/2000/svg" width="1em" height="1em" viewBox="0 0 24 24"><path fill="currentColor" d="M12 17.885q.49 0 .851-.342q.36-.341.418-.85h-2.538q.057.509.418.85q.36.342.851.342m-2-3.962V10.77q0-.825.588-1.412T12 8.769q.825 0 1.413.588T14 10.769v3.154zM12.003 21q-1.866 0-3.51-.708q-1.643-.709-2.859-1.924q-1.216-1.214-1.925-2.856Q3 13.87 3 12.003q0-1.866.708-3.51q.709-1.643 1.924-2.859q1.214-1.216 2.856-1.925Q10.13 3 11.997 3q1.866 0 3.51.708q1.643.709 2.859 1.924q1.216 1.214 1.925 2.856Q21 10.13 21 11.997q0 1.866-.708 3.51q-.709 1.643-1.924 2.859q-1.214 1.216-2.856 1.925Q13.87 21 12.003 21M12 20q3.35 0 5.675-2.325T20 12q0-3.35-2.325-5.675T12 4Q8.65 4 6.325 6.325T4 12q0 3.35 2.325 5.675T12 20m-3.615-4.846h7.23q.262 0 .439-.177t.177-.439q0-.261-.177-.438t-.439-.177h-.384v-2.715q0-1.275-.672-2.317q-.672-1.041-1.867-1.314v-.808q0-.31-.191-.52q-.191-.21-.501-.21t-.501.21q-.191.21-.191.52v.808q-1.195.273-1.867 1.295q-.672 1.022-.672 2.297v2.754h-.384q-.262 0-.439.177t-.177.438q0 .262.177.439t.439.177"/></svg>