<svg xmlns="http://www.w3.org/2000/svg" width="1em" height="1em" viewBox="0 0 24 24"><path fill="currentColor" d="M6 20.23q-1.333 0-2.282-.948q-.949-.95-.949-2.282q0-1.333.95-2.282q.948-.949 2.281-.949q1.333 0 2.282.95q.949.948.949 2.281q0 1.333-.95 2.282q-.948.949-2.281.949m12 0q-1.333 0-2.282-.95q-.949-.948-.949-2.281q0-1.333.95-2.282q.948-.949 2.281-.949q1.333 0 2.282.95q.949.948.949 2.281q0 1.333-.95 2.282q-.948.949-2.281.949m-12-1q.921 0 1.576-.656q.655-.655.655-1.576q0-.92-.656-1.575Q6.92 14.77 6 14.77q-.92 0-1.575.656q-.655.655-.655 1.576q0 .92.656 1.575q.655.655 1.576.655m12 0q.92 0 1.575-.656q.655-.655.655-1.576q0-.92-.656-1.575q-.655-.655-1.576-.655q-.92 0-1.575.656q-.655.655-.655 1.576q0 .92.656 1.575q.655.655 1.576.655M12 14.515q-.627 0-1.071-.444q-.444-.444-.444-1.071t.444-1.071q.444-.444 1.071-.444t1.071.444q.444.444.444 1.071t-.444 1.071q-.444.444-1.071.444m0-5.284q-1.333 0-2.282-.95Q8.77 7.334 8.77 6q0-1.333.95-2.282q.948-.949 2.281-.949q1.333 0 2.282.95q.949.948.949 2.281q0 1.333-.95 2.282q-.948.949-2.281.949m0-1q.921 0 1.576-.656q.655-.655.655-1.576q0-.92-.656-1.575Q12.92 3.77 12 3.77t-1.575.656Q9.77 5.08 9.77 6t.656 1.575q.655.655 1.576.655M18 17"/></svg>