<svg xmlns="http://www.w3.org/2000/svg" width="1em" height="1em" viewBox="0 0 24 24"><path fill="currentColor" d="M4.5 15.885q-.213 0-.356-.144T4 15.384q0-.213.144-.356q.143-.143.356-.143h11.25q.213 0 .356.144q.144.143.144.356t-.144.356q-.144.144-.356.144zM6.365 12.5q-.212 0-.356-.144T5.865 12t.144-.356q.144-.143.356-.143h11.25q.213 0 .357.144q.143.144.143.357t-.143.356q-.144.143-.357.143zM8.25 9.115q-.213 0-.356-.144q-.144-.143-.144-.356t.144-.356q.143-.144.356-.144H19.5q.213 0 .356.144t.144.357q0 .213-.144.356t-.356.143z"/></svg>