<svg xmlns="http://www.w3.org/2000/svg" width="1em" height="1em" viewBox="0 0 24 24"><path fill="currentColor" d="m14.02 21.923l-7.616-2.22V21h-4v-8.154h6.373l7.358 2.692v1.616H21v2.615zM3.403 20h2v-6.154h-2zm10.565.862l6.008-1.831v-.877h-6.921L9.95 17.142l.33-.957l2.926.969h1.929v-.92l-6.516-2.388H6.404v4.808zm.896-8.193l-1-.346v-.885q-.011-1.45-1.027-2.463t-2.473-1.013q-1.286 0-2.176.749t-1.193 1.866H5.962q.29-1.371 1.277-2.373q.988-1.002 2.626-1.22V4h-1.5V3h5q.6 0 1.158.16q.558.16 1.029.442l-.733.733q-.33-.162-.69-.248Q13.772 4 13.366 4h-2.5v2.985q1.84.234 2.92 1.539q1.08 1.305 1.08 2.938zM18.5 9.615q-.633 0-1.066-.433Q17 8.748 17 8.115q0-.478.338-1.194Q17.677 6.206 18.5 5q.823 1.206 1.162 1.912q.338.705.338 1.203q0 .633-.434 1.067q-.433.433-1.066.433"/></svg>