<svg xmlns="http://www.w3.org/2000/svg" width="1em" height="1em" viewBox="0 0 24 24"><path fill="currentColor" d="M4.615 12q-.666 0-1.14-.475Q3 11.051 3 10.385v-4.77q0-.666.475-1.14Q3.949 4 4.615 4h14.77q.666 0 1.14.475q.475.474.475 1.14v4.77q0 .666-.475 1.14q-.474.475-1.14.475h-2.058V9.115q0-.666-.475-1.14q-.474-.475-1.14-.475H8.308q-.667 0-1.141.475q-.475.474-.475 1.14V12zm2.847 2.115H8.48q0 1.652-1.165 2.807q-1.164 1.155-2.816 1.155v-1.02q1.23 0 2.096-.857t.866-2.085M7.692 12V9.115q0-.269.173-.442t.443-.173h7.404q.269 0 .442.173t.173.442V12zm3.808 7.115v-5h1v5zm4.038-5h1.02q0 1.231.858 2.087t2.084.856v1.019q-1.652 0-2.807-1.159t-1.155-2.803"/></svg>