<svg xmlns="http://www.w3.org/2000/svg" width="1em" height="1em" viewBox="0 0 24 24"><path fill="currentColor" d="M19.385 12H4.615q-.666 0-1.14-.475Q3 11.051 3 10.385v-4.77q0-.666.475-1.14Q3.949 4 4.615 4h14.77q.666 0 1.14.475q.475.474.475 1.14v4.77q0 .666-.475 1.14q-.474.475-1.14.475M4.5 18.077v-1.02q1.23 0 2.096-.857t.866-2.085H8.48q0 1.652-1.165 2.807q-1.164 1.155-2.816 1.155m15 0q-1.652 0-2.807-1.159t-1.155-2.803h1.02q0 1.231.858 2.087t2.084.856zm-8 1.038v-5h1v5zM19.385 11H20H4zM6.692 11V9.115q0-.666.475-1.14q.474-.475 1.14-.475h7.405q.666 0 1.14.475q.475.474.475 1.14V11h-1V9.115q0-.269-.173-.442t-.442-.173H8.308q-.27 0-.443.173t-.173.442V11zm-2.077 0h14.77q.269 0 .442-.173t.173-.442v-4.77q0-.269-.173-.442T19.385 5H4.615q-.269 0-.442.173T4 5.615v4.77q0 .269.173.442t.442.173"/></svg>