<svg xmlns="http://www.w3.org/2000/svg" width="1em" height="1em" viewBox="0 0 24 24"><path fill="currentColor" d="m11 13.688l-6.977 6.977q-.14.14-.335.131q-.194-.01-.334-.15q-.14-.14-.14-.347t.14-.341L10.312 13H5.5q-.213 0-.356-.144Q5 12.712 5 12.5t.144-.356Q5.288 12 5.5 12h5.692q.344 0 .576.232q.232.232.232.576V18.5q0 .213-.144.356T11.5 19q-.212 0-.356-.144Q11 18.713 11 18.5zM13.688 11H18.5q.213 0 .356.144q.144.144.144.357q0 .212-.144.356q-.143.143-.356.143h-5.692q-.344 0-.576-.232q-.232-.232-.232-.576V5.5q0-.213.144-.356T12.5 5q.212 0 .356.144q.143.144.143.356v4.812l6.977-6.977q.134-.14.341-.14t.347.14q.14.14.14.347t-.14.341z"/></svg>