<svg xmlns="http://www.w3.org/2000/svg" width="1em" height="1em" viewBox="0 0 24 24"><path fill="currentColor" d="M4.654 19.346v-1h3.09q-1.794-1.561-2.519-3.073q-.725-1.511-.725-3.196q0-2.454 1.402-4.409Q7.304 5.713 9.5 4.942v1.062q-1.788.74-2.894 2.403Q5.5 10.069 5.5 12.077q0 1.523.643 2.805q.644 1.281 2.28 2.722v-3.027h1v4.77zM15 19.5q-1.02 0-1.76-.74T12.5 17q0-1.008.68-1.726q.682-.718 1.805-.768q.367-.881 1.147-1.444q.78-.562 1.868-.562q1.229 0 2.134.814q.904.815 1.047 2.186h.307q.839 0 1.425.571q.587.571.587 1.404q0 .838-.58 1.432q-.582.593-1.42.593zm3.4-8.77q-.252-1.14-.838-2.092q-.587-.951-1.985-2.223v3.008h-1v-4.77h4.77v1h-3.091q1.594 1.412 2.253 2.61q.658 1.199.897 2.468zM15 18.5h6.5q.412 0 .706-.294t.294-.706q0-.412-.294-.706T21.5 16.5h-1.25v-.75q0-.937-.657-1.593Q18.937 13.5 18 13.5t-1.564.57q-.628.57-.667 1.372v.058H15q-.617 0-1.059.441q-.441.442-.441 1.059t.441 1.059q.442.441 1.059.441m3-2.5"/></svg>