<svg xmlns="http://www.w3.org/2000/svg" width="1em" height="1em" viewBox="0 0 24 24"><path fill="currentColor" d="M21 19.577V5.115q0-.269-.173-.442t-.442-.173H3.615q-.269 0-.442.173T3 5.115V12q0 .213-.143.357q-.144.143-.357.143t-.357-.143Q2 12.213 2 12V5.115q0-.67.472-1.143q.472-.472 1.143-.472h16.77q.67 0 1.143.472q.472.472.472 1.143v13.097q0 .478-.28.854t-.72.51m-12-6.19q-1.246 0-2.123-.877Q6 11.63 6 10.385q0-1.247.877-2.123q.877-.877 2.123-.877q1.246 0 2.123.877q.877.876.877 2.123q0 1.246-.877 2.123q-.877.877-2.123.877m-5.962 7.23q-.44 0-.739-.299T2 19.576v-.607q0-.619.36-1.158q.361-.54.97-.838q1.416-.679 2.833-1.018q1.418-.34 2.837-.34q1.42 0 2.837.34q1.417.34 2.832 1.018q.61.298.97.838q.361.539.361 1.158v.608q0 .44-.299.74q-.3.298-.74.298z"/></svg>