<svg xmlns="http://www.w3.org/2000/svg" width="1em" height="1em" viewBox="0 0 24 24"><path fill="currentColor" d="M21 19.577V5.115q0-.269-.173-.442t-.442-.173H3.615q-.269 0-.442.173T3 5.115V12.5H2V5.115q0-.666.475-1.14q.474-.475 1.14-.475h16.77q.666 0 1.14.475q.475.474.475 1.14v13.097q0 .478-.28.854t-.72.51m-12-6.19q-1.237 0-2.119-.882T6 10.385q0-1.238.881-2.12q.881-.88 2.119-.88t2.119.88q.881.882.881 2.12q0 1.237-.881 2.118T9 13.385m0-1q.825 0 1.413-.588T11 10.385q0-.825-.587-1.413T9 8.385q-.825 0-1.412.587T7 10.385q0 .825.588 1.412T9 12.385m-7 8.23V18.97q0-.619.36-1.158q.361-.54.97-.838q1.416-.679 2.833-1.018q1.418-.34 2.837-.34q1.42 0 2.837.34q1.417.34 2.832 1.018q.61.298.97.838q.361.539.361 1.158v1.646zm1-1h12v-.646q0-.332-.214-.625q-.215-.292-.594-.494q-1.234-.598-2.546-.916q-1.31-.319-2.646-.319q-1.335 0-2.646.319q-1.312.318-2.546.916q-.38.202-.594.494Q3 18.637 3 18.97zm6 0"/></svg>