<svg xmlns="http://www.w3.org/2000/svg" width="1em" height="1em" viewBox="0 0 24 24"><path fill="currentColor" d="m4.113 12.006l4.24 4.24q.141.14.15.344q.01.204-.15.364t-.353.16q-.194 0-.354-.16l-4.388-4.389q-.131-.13-.184-.267q-.053-.136-.053-.298t.053-.298q.053-.137.184-.267l4.388-4.389q.146-.146.347-.156q.201-.01.367.156q.165.166.165.357t-.165.357zm15.774-.012l-4.24-4.24q-.141-.14-.15-.344q-.01-.204.15-.364t.353-.16q.194 0 .354.16l4.388 4.389q.131.13.184.267q.053.136.053.298t-.053.298q-.053.137-.184.267l-4.388 4.389q-.146.146-.344.153q-.198.006-.364-.159q-.165-.165-.165-.357t.165-.356z"/></svg>