<svg xmlns="http://www.w3.org/2000/svg" width="1em" height="1em" viewBox="0 0 24 24"><path fill="currentColor" d="M12.237 14.66q1.384 0 2.388-.895q1.004-.894 1.004-2.186q0-1.098-.691-1.874q-.692-.776-1.723-.776q-.867 0-1.497.558q-.63.557-.63 1.375q0 .353.134.71t.438.63q.207.196.415.172q.208-.024.342-.164q.135-.14.163-.326q.028-.186-.15-.357q-.107-.108-.224-.298q-.118-.19-.118-.367q0-.333.293-.62t.834-.288q.577 0 .998.45q.422.452.422 1.2q0 .833-.667 1.447q-.666.614-1.706.614q-1.195 0-2.055-.95q-.86-.95-.86-2.382q0-.595.189-1.158t.568-1.04q.123-.183.142-.394q.02-.21-.146-.376q-.165-.165-.379-.153t-.342.19q-.5.604-.779 1.348q-.279.744-.279 1.558q0 1.796 1.13 3.074q1.132 1.278 2.786 1.278M7 17.238q-1.425-1.3-2.212-2.922T4 10.986Q4 7.66 6.333 5.33Q8.667 3 12 3q2.702 0 4.884 1.645q2.181 1.645 2.83 4.25l1.036 4.103q.1.38-.142.691t-.646.311H18v3.385q0 .666-.475 1.14q-.474.475-1.14.475H14v1.5q0 .213-.144.356q-.144.144-.357.144q-.212 0-.356-.144Q13 20.713 13 20.5v-1.683q0-.357.232-.587q.232-.23.576-.23h2.577q.269 0 .442-.173t.173-.442v-3.577q0-.344.232-.576q.232-.232.576-.232H19.7l-.95-3.875q-.575-2.294-2.47-3.71Q14.388 4 12 4Q9.1 4 7.05 6.03T5 10.97q0 1.494.613 2.84q.612 1.345 1.737 2.392L8 16.8v3.7q0 .213-.144.356T7.499 21q-.212 0-.356-.144Q7 20.713 7 20.5zm5.35-4.738"/></svg>