<svg xmlns="http://www.w3.org/2000/svg" width="1em" height="1em" viewBox="0 0 24 24"><path fill="currentColor" d="M12.237 14.66q1.384 0 2.388-.895q1.004-.894 1.004-2.186q0-1.098-.691-1.874q-.692-.776-1.723-.776q-.867 0-1.497.567q-.63.567-.63 1.379q0 .36.15.694q.149.335.422.633l.77-.694q-.17-.127-.256-.28t-.086-.328q0-.352.293-.649q.292-.297.834-.297q.577 0 .998.45q.422.452.422 1.2q0 .833-.667 1.447q-.666.614-1.706.614q-1.195 0-2.055-.95q-.86-.95-.86-2.382q0-.725.284-1.397q.284-.673.823-1.211l-.733-.713q-.665.66-1.033 1.511q-.367.852-.367 1.785q0 1.796 1.13 3.074q1.132 1.278 2.786 1.278M7 21v-3.762q-1.425-1.3-2.212-2.922T4 10.981q0-3.327 2.337-5.654Q8.673 3 12 3q2.702 0 4.884 1.645q2.181 1.645 2.83 4.25L20.743 13q.106.379-.136.69q-.243.31-.646.31H18v3.385q0 .67-.472 1.143q-.472.472-1.143.472H14v2z"/></svg>