<svg xmlns="http://www.w3.org/2000/svg" width="1em" height="1em" viewBox="0 0 24 24"><path fill="currentColor" d="M4 19.192v-1.886q0-.323.13-.628q.132-.305.349-.522l8.298-8.298l-1.815-1.785l.719-.708l2.323 2.304l3.465-3.484q.087-.087.207-.133q.12-.046.243-.046q.143 0 .25.046t.22.133l1.426 1.446q.087.092.133.2q.046.107.046.25q0 .123-.046.243t-.133.207l-3.498 3.498l2.323 2.354l-.713.713l-1.823-1.834l-8.26 8.26q-.217.216-.522.347q-.305.131-.628.131H4.808q-.348 0-.578-.23q-.23-.23-.23-.578M5 19h1.988l8.435-8.485l-1.938-1.938L5 17.012zm10.637-9.712l3.207-3.207l-.925-.925l-3.207 3.227zm0 0l-.925-.905z"/></svg>