<svg xmlns="http://www.w3.org/2000/svg" width="1em" height="1em" viewBox="0 0 24 24"><path fill="currentColor" d="m8.688 19.538l-5.226-5.226q-.231-.231-.347-.512Q3 13.52 3 13.213q0-.286.115-.567q.116-.28.347-.511l5.557-5.552l-2.49-2.414q-.171-.17-.174-.39q-.003-.22.168-.396t.396-.177q.225 0 .402.177l8.752 8.77q.23.232.343.512q.113.281.113.568q0 .305-.113.586q-.112.281-.343.512l-5.208 5.207q-.23.231-.511.347q-.28.115-.567.115q-.306 0-.587-.115q-.28-.116-.512-.347m1.08-12.207l-5.466 5.465q-.115.116-.154.23q-.038.116-.038.232h11.315q0-.116-.038-.231q-.039-.115-.154-.23zM19.318 20q-.707 0-1.179-.493q-.47-.494-.47-1.207q0-.54.23-1.044q.233-.504.6-.944l.36-.447q.186-.217.462-.22q.276-.003.463.215l.403.452q.362.44.597.944q.234.504.234 1.044q0 .713-.496 1.207q-.496.493-1.204.493"/></svg>