<svg xmlns="http://www.w3.org/2000/svg" width="1em" height="1em" viewBox="0 0 24 24"><path fill="currentColor" d="M12 16.288q1.27 0 2.18-.82q.913-.82 1.097-2.041q.03-.212-.1-.348q-.132-.137-.354-.137H9.155q-.209 0-.345.137q-.137.136-.097.347q.177 1.22 1.098 2.041q.92.821 2.189.821M12.001 21q-1.664 0-3.12-.636q-1.454-.635-2.542-1.723q-1.087-1.087-1.713-2.561Q4 14.606 4 12.942V4.615q0-.666.475-1.14Q4.949 3 5.615 3h12.77q.666 0 1.14.475q.475.474.475 1.14v8.327q0 1.664-.626 3.138t-1.713 2.561t-2.542 1.723Q13.666 21 12.001 21m-.01-1q2.909 0 4.959-2.06T19 12.942V4.615q0-.269-.173-.442T18.385 4H5.615q-.269 0-.442.173T5 4.615v8.327q0 2.939 2.04 4.998Q9.08 20 11.99 20m.01 0q-2.92 0-4.96-2.06T5 12.942V4h14v8.942q0 2.939-2.05 4.998Q14.9 20 12 20M9.173 7.635q-.54 0-.966.323q-.426.323-.57.825q-.054.188.067.337q.121.15.344.15h2.265q.202 0 .333-.152q.13-.152.08-.333q-.16-.504-.587-.827q-.426-.323-.966-.323m5.638 0q-.544 0-.958.324q-.414.324-.575.81q-.06.183.06.332q.122.149.345.149h2.265q.202 0 .323-.151q.121-.152.071-.334q-.16-.484-.574-.807q-.413-.323-.957-.323"/></svg>