<svg xmlns="http://www.w3.org/2000/svg" width="1em" height="1em" viewBox="0 0 24 24"><path fill="currentColor" d="M12 16.288q1.246 0 2.18-.819q.935-.819 1.09-2.065H8.711q.153 1.246 1.098 2.065q.944.82 2.19.82m-4.423-7.02h3.23q0-.67-.481-1.153q-.482-.481-1.153-.481t-1.134.481q-.462.482-.462 1.153m5.615-.019h3.231q0-.671-.472-1.143t-1.143-.472t-1.144.472q-.472.472-.472 1.143M12 21q-1.663 0-3.118-.636q-1.455-.635-2.543-1.723q-1.087-1.087-1.713-2.561Q4 14.606 4 12.942V3h16v9.942q0 1.664-.626 3.138t-1.713 2.561t-2.543 1.723Q13.663 21 12 21m0-1q2.9 0 4.95-2.06Q19 15.88 19 12.942V4H5v8.942q0 2.939 2.04 4.998Q9.08 20 12 20m0-8"/></svg>