<svg xmlns="http://www.w3.org/2000/svg" width="1em" height="1em" viewBox="0 0 24 24"><path fill="currentColor" d="M12 16.288q1.38 0 2.344-.982q.964-.983.964-2.364H8.673q0 1.381.977 2.364q.978.982 2.35.982M12.001 21q-1.664 0-3.12-.636q-1.454-.635-2.542-1.723q-1.087-1.087-1.713-2.561Q4 14.606 4 12.942V3h16v9.942q0 1.664-.626 3.138t-1.713 2.561t-2.542 1.723Q13.666 21 12.001 21M7.577 9.27h3.23q0-.672-.479-1.154q-.48-.481-1.153-.481t-1.136.48q-.462.48-.462 1.154m5.615-.019h3.231q0-.671-.475-1.143q-.476-.472-1.144-.472q-.667 0-1.14.474q-.472.475-.472 1.141"/></svg>