<svg xmlns="http://www.w3.org/2000/svg" width="1em" height="1em" viewBox="0 0 24 24"><path fill="currentColor" d="M9 15.5q.633 0 1.066-.434q.434-.433.434-1.066t-.434-1.066Q9.633 12.5 9 12.5t-1.066.434Q7.5 13.367 7.5 14t.434 1.066Q8.367 15.5 9 15.5m6 0q.633 0 1.066-.434q.434-.433.434-1.066t-.434-1.066Q15.633 12.5 15 12.5t-1.066.434Q13.5 13.367 13.5 14t.434 1.066q.433.434 1.066.434m-3-5q.633 0 1.066-.434Q13.5 9.633 13.5 9t-.434-1.066Q12.633 7.5 12 7.5t-1.066.434Q10.5 8.367 10.5 9t.434 1.066q.433.434 1.066.434m.003 10.5q-1.866 0-3.51-.708q-1.643-.709-2.859-1.924q-1.216-1.214-1.925-2.856Q3 13.87 3 12.003q0-1.866.708-3.51q.709-1.643 1.924-2.859q1.214-1.216 2.856-1.925Q10.13 3 11.997 3q1.866 0 3.51.708q1.643.709 2.859 1.924q1.216 1.214 1.925 2.856Q21 10.13 21 11.997q0 1.866-.708 3.51q-.709 1.643-1.924 2.859q-1.214 1.216-2.856 1.925Q13.87 21 12.003 21"/></svg>