<svg xmlns="http://www.w3.org/2000/svg" width="1em" height="1em" viewBox="0 0 24 24"><path fill="currentColor" d="m6.077 17l-1.704 1.704q-.379.379-.876.174Q3 18.673 3 18.133V4.615q0-.69.463-1.152Q3.925 3 4.615 3h14.77q.69 0 1.152.463q.463.462.463 1.152v10.77q0 .69-.462 1.153q-.463.462-1.153.462zm13.308-1q.23 0 .423-.192q.192-.193.192-.423V4.615q0-.23-.192-.423Q19.615 4 19.385 4h-2v5.413q0 .243-.202.361t-.414-.012l-1.086-.652q-.143-.087-.298-.087q-.156 0-.298.087L14 9.762q-.212.13-.413.012q-.202-.118-.202-.36V4h-8.77q-.23 0-.423.192Q4 4.385 4 4.615v13.03L5.65 16zM4 16V4v13.385z"/></svg>