<svg xmlns="http://www.w3.org/2000/svg" width="1em" height="1em" viewBox="0 0 24 24"><path fill="currentColor" d="M15.579 17H4.615q-.69 0-1.152-.462Q3 16.075 3 15.385V4.805q0-.095.01-.172q.01-.077.028-.173l-.798-.798q-.146-.147-.155-.348q-.01-.2.155-.366q.166-.165.357-.165q.191 0 .357.165l18.515 18.515q.146.147.156.345q.01.198-.156.363q-.165.166-.356.166t-.357-.166zM21 4.615v12.598q0 .274-.252.37t-.444-.096L16.317 13.5H17q.213 0 .357-.143q.143-.144.143-.357t-.143-.357Q17.213 12.5 17 12.5h-1.683l-2-2H17q.213 0 .357-.143q.143-.144.143-.357t-.143-.357Q17.213 9.5 17 9.5h-4.683l-2-2H17q.213 0 .357-.143q.143-.144.143-.357t-.143-.357Q17.213 6.5 17 6.5H9.317L7.19 4.373q-.192-.192-.22-.42q-.028-.226.059-.443q.086-.218.273-.364Q7.488 3 7.762 3h11.623q.69 0 1.152.463q.463.462.463 1.152M12.079 13.5l-1-1H7q-.213 0-.357.143q-.143.144-.143.357t.143.357q.144.143.357.143zm-3-3l-.954-.954h-1.27q-.155.029-.255.155T6.5 10q0 .213.143.357q.144.143.357.143z"/></svg>