<svg xmlns="http://www.w3.org/2000/svg" width="1em" height="1em" viewBox="0 0 24 24"><path fill="currentColor" d="M12 19.846q-1.671 0-3.13-.634q-1.46-.635-2.55-1.724q-1.09-1.09-1.724-2.55q-.634-1.46-.634-3.13q0-1.671.634-3.131q.635-1.46 1.724-2.55q1.09-1.089 2.55-1.723q1.459-.635 3.13-.635V1.654l3.385 3.384L12 8.425V6.308q-2.285 0-3.892 1.609Q6.5 9.525 6.5 11.81q0 1.397.638 2.588t1.739 1.932q.323-.585.994-.996q.671-.41 1.544-.516q-.066-.448-.176-.896q-.11-.448-.247-.821q-.232.188-.507.293q-.275.105-.593.105q-.698 0-1.199-.498q-.5-.499-.5-1.199v-.848q0-.36-.11-.668q-.108-.308-.314-.595q1.057-.025 1.881.19q.718.19 1.31.622q.592.433.617 1.312q0 .193-.038.354t-.118.322q-.273-.214-.546-.385t-.567-.3q.367.287.83.854q.462.566.862 1.343q.442-1.033 1.071-2.038q.629-1.004 1.467-1.85q-.478.342-.926.715t-.872.815q-.136-.236-.227-.523q-.09-.287-.09-.585q0-.876.62-1.496q.619-.619 1.501-.619h.841q.484 0 .8-.127q.314-.127.525-.296q.237-.19.367-.423q.08 1.425-.137 2.538q-.205.952-.733 1.743q-.527.79-1.666.79q-.316 0-.6-.085q-.286-.084-.518-.231q-.147.4-.337 1.064q-.19.664-.296 1.429q.799.148 1.408.551q.61.403.925.955q1.082-.74 1.73-1.924q.647-1.183.647-2.6h2.538q0 1.672-.634 3.131q-.635 1.46-1.724 2.55t-2.55 1.724q-1.459.634-3.13.634"/></svg>