<svg xmlns="http://www.w3.org/2000/svg" width="1em" height="1em" viewBox="0 0 24 24"><path fill="currentColor" d="m5.17 20.692l-.132-1.179q-.215-.088-.382-.186q-.168-.098-.343-.223l-1.103.461l-.831-1.438l.929-.698v-.833l-.93-.723l.832-1.438l1.103.461q.164-.113.353-.227q.19-.113.372-.202l.131-1.16h1.662l.13 1.18q.089.025.177.069q.089.044.168.088q.079.044.173.114q.094.069.208.138l1.103-.461l.831 1.438l-.929.698q.02.171.01.417t-.048.377q.096.095.154.148q.057.052.154.147l5.455-3.156l-.817 1.398l.07.052l-4.2 2.415l-.68 1.196l-1.103-.461q-.164.113-.353.227q-.19.113-.372.202l-.131 1.16zm.83-5.5q-.76 0-1.284.524T4.192 17q0 .76.524 1.284T6 18.808q.76 0 1.284-.524T7.808 17q0-.76-.524-1.284T6 15.192m4.17-5.5l-.132-1.16q-.223-.107-.394-.2q-.17-.092-.279-.2l-.173.155v5.461l-.086-.15l-.798.34V8.531l-.904-1.404l.904-.698v-.833l-.93-.723l.832-1.438l1.103.461q.164-.113.353-.227q.19-.113.372-.202l.131-1.16h1.662l.13 1.18q.177.069.335.157q.158.089.39.252l1.104-.461l.831 1.438l-.929.698v.833l.93.723l-.832 1.438l-1.103-.461q-.164.113-.353.227q-.19.113-.372.202l-.131 1.16zm.83-5.5q-.76 0-1.284.524T9.192 6q0 .76.524 1.284T11 7.808q.76 0 1.284-.524T12.808 6q0-.76-.524-1.284T11 4.192m6.17 16.5l-.132-1.179q-.234-.107-.392-.196q-.158-.088-.333-.213l-1.103.461l-.831-1.438l.929-.698v-.833l-.93-.698l.832-1.463l1.103.461q.172-.127.302-.207q.131-.08.347-.197l.076-.365l-5.38-3.78h.757l.062-.497l4.952 3.458h1.402l.13 1.179q.089.025.177.069q.089.044.168.088q.079.044.173.114q.094.069.208.138l1.103-.461l.831 1.438l-.929.698v.833l.93.723l-.832 1.438l-1.103-.461q-.183.133-.363.246q-.18.113-.362.183l-.131 1.16zm.83-5.5q-.76 0-1.284.524T16.192 17q0 .76.524 1.284t1.284.524q.76 0 1.284-.524T19.808 17q0-.76-.524-1.284T18 15.192"/></svg>