<svg xmlns="http://www.w3.org/2000/svg" width="1em" height="1em" viewBox="0 0 24 24"><path fill="currentColor" d="M12 20.385q-1.671 0-2.836-1.165T8 16.385q0-1.672 1.164-2.836T12 12.385q1.671 0 2.836 1.164T16 16.385q0 1.67-1.164 2.835T12 20.385m0-1q1.25 0 2.125-.875T15 16.385q0-1.25-.875-2.125T12 13.385q-1.25 0-2.125.875T9 16.385q0 1.25.875 2.125t2.125.875m-4.962-7.966L3.462 7.804Q5.25 6.265 7.443 5.44Q9.637 4.615 12 4.615t4.557.825q2.193.825 3.981 2.364l-3.576 3.615q-1.045-.87-2.32-1.337q-1.275-.467-2.642-.467t-2.642.467q-1.275.466-2.32 1.337m.112-1.304q1.05-.75 2.288-1.125T12 8.615q1.325 0 2.538.363t2.312 1.087l2.2-2.2q-1.55-1.1-3.338-1.675T12 5.615q-1.925 0-3.713.575T4.95 7.865zm4.85 6.27"/></svg>