<svg xmlns="http://www.w3.org/2000/svg" width="1em" height="1em" viewBox="0 0 24 24"><path fill="currentColor" d="M10 5.808q-.698 0-1.195-.497q-.497-.498-.497-1.196t.497-1.195q.497-.497 1.195-.497t1.195.497q.497.497.497 1.195q0 .698-.497 1.196q-.497.497-1.195.497m6.5 12.5q1.165 0 1.987-.821q.82-.822.82-1.987t-.82-1.987q-.822-.82-1.987-.82t-1.987.82q-.82.822-.82 1.987t.82 1.987q.822.82 1.987.82m5.1 2.981l-2.777-2.776q-.511.388-1.099.592q-.588.204-1.224.204q-1.587 0-2.697-1.11t-1.11-2.698q0-1.587 1.11-2.697t2.697-1.11q1.587 0 2.697 1.11t1.11 2.697q0 .636-.203 1.224q-.204.588-.592 1.1l2.776 2.776zm-10.408.212v-2.813q.202.35.455.648q.253.298.545.563V21.5zm-3.384 0V8.423Q6.34 8.298 4.888 8.1Q3.437 7.9 2 7.539l.23-1q1.928.478 3.855.681q1.928.203 3.913.203t3.915-.203q1.93-.203 3.856-.682l.231 1q-1.437.362-2.888.561q-1.452.2-2.92.324v2.679q-.811.76-1.31 1.803q-.497 1.043-.555 2.249v.058q0 .028.006.057H8.808V21.5z"/></svg>