<svg xmlns="http://www.w3.org/2000/svg" width="1em" height="1em" viewBox="0 0 24 24"><path fill="currentColor" d="M12 16.308q.213 0 .357-.144q.143-.144.143-.357t-.144-.356q-.144-.143-.357-.143t-.356.144q-.143.144-.143.356q0 .213.144.356q.144.144.357.144m0-3.808q.212 0 .356-.144q.143-.144.143-.357t-.144-.356Q12.212 11.5 12 11.5t-.356.144q-.143.144-.143.357t.144.356q.144.143.357.143m0-3.808q.212 0 .356-.144q.143-.144.143-.356q0-.213-.144-.356q-.144-.144-.357-.144t-.356.144q-.143.144-.143.357t.144.356q.144.143.357.143M3 19v-4.192q.883-.327 1.441-1.088Q5 12.96 5 12t-.559-1.72Q3.883 9.52 3 9.192V5h18v4.192q-.883.327-1.441 1.088Q19 11.04 19 12t.559 1.72q.558.76 1.441 1.088V19zm1-1h16v-2.55q-.925-.55-1.463-1.462T18 12q0-1.075.538-1.987T20 8.55V6H4v2.55q.925.55 1.463 1.463T6 12q0 1.075-.537 1.988T4 15.45zm8-6"/></svg>