<svg xmlns="http://www.w3.org/2000/svg" width="1em" height="1em" viewBox="0 0 24 24"><path fill="currentColor" d="m18.427 19.47l-5.021-5.022l1.061-1.061l5.021 5.02q.214.214.214.531q0 .318-.214.531q-.213.214-.53.214q-.318 0-.531-.214m-13.896 0q-.214-.213-.214-.53q0-.318.214-.531l6.427-6.427l-2.97-2.95q-.217.217-.546.217q-.329 0-.546-.217l-.402-.421v1.923q0 .273-.252.369t-.444-.096L3.477 8.485q-.192-.193-.096-.445t.369-.252h1.923l-.377-.376q-.242-.243-.242-.575q0-.333.242-.575l1.58-1.581q.347-.346.759-.514Q8.046 4 8.512 4q.346 0 .658.092t.603.316q.142.105.164.282q.023.177-.114.314L8.5 6.327l.55.55q.217.217.217.546t-.217.546l2.97 2.95l2.557-2.557q-.235-.333-.326-.681q-.091-.348-.091-.764q0-1.225.849-2.074q.849-.849 2.074-.849q.142 0 .25.003q.107.003.244.034q.148.056.2.216q.054.16-.064.278l-1.432 1.433q-.131.13-.131.292q0 .162.13.292l1.178 1.177q.13.131.292.131q.162 0 .292-.13l1.433-1.433q.117-.118.278-.068t.216.204q.031.137.034.244q.003.108.003.25q0 1.225-.85 2.074q-.848.85-2.073.85q-.416 0-.764-.09q-.348-.088-.68-.328L5.591 19.47q-.213.214-.53.214q-.318 0-.531-.214"/></svg>