<svg xmlns="http://www.w3.org/2000/svg" width="1em" height="1em" viewBox="0 0 24 24"><path fill="currentColor" d="M2.615 19.615q-.69 0-1.152-.462Q1 18.69 1 18V6q0-.69.463-1.153t1.152-.462h18.77q.69 0 1.152.462Q23 5.31 23 6v12q0 .69-.462 1.153t-1.153.462zM9 14.231q1.038 0 1.77-.731q.73-.73.73-1.77q0-1.038-.73-1.768Q10.037 9.23 9 9.23t-1.77.73q-.73.731-.73 1.77q0 1.038.73 1.769q.732.73 1.77.73m9.308 3.193l1.615-1.615l-1.23-1.654h-1.728q-.188-.566-.269-1.078q-.08-.513-.08-1.076q0-.563.08-1.051q.08-.487.27-1.103h1.726l1.231-1.654l-1.615-1.615q-1.216.992-1.896 2.412q-.681 1.42-.681 3.011t.68 3.01q.681 1.42 1.897 2.413M3.215 18.615h11.57q-1.05-1.355-2.554-2.177q-1.504-.823-3.231-.823t-3.23.822q-1.505.823-2.555 2.178"/></svg>