<svg xmlns="http://www.w3.org/2000/svg" width="1em" height="1em" viewBox="0 0 24 24"><path fill="currentColor" d="M4.5 21.385v-1h15v1zm0-17.77v-1h15v1zM12 14q1.038 0 1.77-.73q.73-.732.73-1.77t-.73-1.77Q13.037 9 12 9t-1.77.73q-.73.732-.73 1.77t.73 1.77q.732.73 1.77.73m-7.385 5q-.69 0-1.152-.462Q3 18.075 3 17.385V6.615q0-.69.463-1.152Q3.925 5 4.615 5h14.77q.69 0 1.152.463q.463.462.463 1.152v10.77q0 .69-.462 1.152q-.463.463-1.153.463zm2.443-1q1.125-1.015 2.36-1.508Q10.651 16 12 16q1.348 0 2.583.492q1.234.493 2.36 1.508h2.442q.23 0 .423-.192q.192-.193.192-.423V6.615q0-.23-.192-.423Q19.615 6 19.385 6H4.615q-.23 0-.423.192Q4 6.385 4 6.615v10.77q0 .23.192.423q.193.192.423.192zM8.7 18h6.6q-.725-.5-1.562-.75T12 17q-.9 0-1.737.25T8.7 18m3.3-5q-.617 0-1.059-.441q-.441-.442-.441-1.059t.441-1.059Q11.383 10 12 10t1.059.441q.441.442.441 1.059t-.441 1.059Q12.617 13 12 13m0-1"/></svg>