<svg xmlns="http://www.w3.org/2000/svg" width="1em" height="1em" viewBox="0 0 24 24"><path fill="currentColor" d="m18.308 17.423l1.615-1.615l-1.23-1.654h-1.728q-.188-.566-.269-1.078q-.08-.513-.08-1.076q0-.563.08-1.051q.08-.487.27-1.103h1.726l1.231-1.654l-1.615-1.615q-1.216.992-1.896 2.412q-.681 1.42-.681 3.011t.68 3.01q.681 1.42 1.897 2.413M1 19.615V4.385h22v15.23zm13.785-1H22V5.385H2v13.23h1.215q1.05-1.355 2.554-2.177q1.504-.823 3.231-.823t3.23.822q1.505.823 2.555 2.178m-5.787-4.384q1.04 0 1.771-.729q.731-.728.731-1.769q0-1.04-.728-1.771t-1.77-.731q-1.04 0-1.771.728q-.731.729-.731 1.77q0 1.04.729 1.771t1.769.73M4.55 18.616h8.9q-.87-.95-2.026-1.475q-1.156-.525-2.424-.525q-1.275 0-2.425.525T4.55 18.615M9 13.231q-.617 0-1.059-.442q-.441-.44-.441-1.058q0-.618.441-1.059q.442-.441 1.059-.441t1.059.441q.441.441.441 1.059q0 .617-.441 1.058q-.442.442-1.059.442M12 12"/></svg>