<svg xmlns="http://www.w3.org/2000/svg" width="1em" height="1em" viewBox="0 0 24 24"><path fill="currentColor" d="M2.615 19.615q-.69 0-1.152-.462Q1 18.69 1 18V6q0-.69.463-1.153t1.152-.462h18.77q.69 0 1.152.462Q23 5.31 23 6v12q0 .69-.462 1.153t-1.153.462zM9 14.231q1.038 0 1.77-.731q.73-.73.73-1.77q0-1.038-.73-1.768Q10.037 9.23 9 9.23t-1.77.73q-.73.731-.73 1.77q0 1.038.73 1.769q.732.73 1.77.73m-5.785 4.385h11.57q-1.05-1.355-2.554-2.177q-1.504-.823-3.231-.823t-3.23.822q-1.505.823-2.555 2.178M16.615 12q0-.563.081-1.051q.08-.487.27-1.103h1.322q.193 0 .354-.08q.162-.081.293-.243l.578-.765q.187-.243.162-.54t-.242-.516l-.566-.565q-.236-.237-.56-.24q-.322-.003-.565.234q-.979.961-1.495 2.226q-.516 1.264-.516 2.643q0 1.379.516 2.643q.516 1.265 1.495 2.226q.243.237.566.234q.323-.003.56-.24l.565-.565q.217-.217.242-.515q.025-.298-.162-.54l-.578-.766q-.131-.162-.293-.242q-.161-.081-.354-.081h-1.323q-.188-.566-.269-1.078q-.08-.513-.08-1.076"/></svg>