<svg xmlns="http://www.w3.org/2000/svg" width="1em" height="1em" viewBox="0 0 24 24"><path fill="currentColor" d="M7.554 11.996q0 .267-.035.553q-.034.286-.084.55q-.056.213.042.408q.098.195.306.287q.188.073.358-.015q.17-.089.232-.277q.08-.362.13-.748q.05-.387.05-.754t-.05-.754q-.05-.386-.13-.748q-.061-.188-.232-.277q-.17-.088-.358-.015q-.208.092-.306.287q-.098.195-.042.409q.05.263.084.545q.035.282.035.55m3.5.003q0 .638-.085 1.271q-.084.633-.254 1.221q-.067.214.028.406q.095.192.275.262q.192.082.389-.01q.197-.093.26-.304q.205-.688.296-1.4t.09-1.447q0-.736-.09-1.447q-.091-.71-.296-1.398q-.063-.21-.26-.303t-.389-.012q-.18.07-.275.263q-.095.192-.028.406q.17.588.254 1.22q.085.634.085 1.272m3.5 0q0 .963-.144 1.909q-.145.945-.42 1.833q-.067.233.004.444q.07.21.277.302q.189.08.386-.009q.197-.088.26-.302q.331-.992.484-2.048q.153-1.056.153-2.129T15.4 9.871q-.153-1.056-.484-2.048q-.063-.214-.26-.302t-.386-.01q-.206.093-.277.303q-.07.211-.004.444q.275.888.42 1.833q.144.946.144 1.909m-2.55 9q-1.867 0-3.51-.708q-1.644-.709-2.86-1.924q-1.216-1.214-1.925-2.856Q3 13.87 3 12.003q0-1.866.708-3.51q.709-1.643 1.924-2.859q1.214-1.216 2.856-1.925Q10.13 3 11.997 3q1.866 0 3.51.708q1.643.709 2.859 1.924q1.216 1.214 1.925 2.856Q21 10.13 21 11.997q0 1.866-.708 3.51q-.709 1.643-1.924 2.859q-1.214 1.216-2.856 1.925Q13.87 21 12.003 21"/></svg>