<svg xmlns="http://www.w3.org/2000/svg" width="1em" height="1em" viewBox="0 0 24 24"><path fill="currentColor" d="M14.221 16.483q.194.079.4.003q.204-.076.271-.284q.095-.264.157-.51q.063-.248.093-.511l-.879-.88q-.03.386-.111.767q-.08.382-.217.76q-.068.184.02.383q.09.199.266.272m-3.244-1.32q.208.074.4-.012q.192-.086.26-.288q.2-.669.293-1.385q.093-.716.074-1.436l-1.067-1.073q.061.252.076.51q.016.258.016.521q0 .638-.082 1.28q-.082.643-.257 1.257q-.067.194.019.374t.268.252M7.669 13.75q.233.098.435.01q.202-.089.263-.34q.081-.362.121-.708q.04-.345.04-.712t-.04-.713q-.04-.345-.12-.706q-.062-.252-.264-.34q-.202-.09-.435.009q-.157.067-.236.228q-.08.16-.043.33q.05.288.095.596q.044.308.044.596t-.044.596q-.045.308-.095.596q-.036.17.043.327q.079.158.236.231M11.975 21q-1.863 0-3.506-.71t-2.857-1.927q-1.216-1.215-1.926-2.857q-.711-1.643-.711-3.506q0-1.683.571-3.164q.571-1.482 1.6-2.669h1.008l12.83 12.856h-1.407L2.22 3.643q-.146-.147-.146-.348q0-.2.146-.347q.166-.165.367-.165q.2 0 .347.165l18.484 18.51q.146.146.169.347q.022.2-.144.366q-.146.146-.347.146q-.2 0-.366-.146l-3.154-3.148q-1.162.935-2.578 1.456q-1.416.521-3.024.521m7.625-4.192l-4.102-4.102q.03-.173.03-.353V12q0-1.092-.152-2.151q-.153-1.059-.484-2.05q-.067-.209-.265-.297q-.198-.089-.412.015q-.177.073-.262.272q-.086.2-.018.382q.257.837.414 1.73q.157.893.168 1.824l-7.35-7.35q1.046-.66 2.26-1.017Q10.643 3 11.976 3q1.863 0 3.506.71t2.857 1.927q1.216 1.215 1.926 2.857q.711 1.643.711 3.506q0 1.333-.358 2.547q-.357 1.215-1.017 2.26"/></svg>