<svg xmlns="http://www.w3.org/2000/svg" width="1em" height="1em" viewBox="0 0 24 24"><path fill="currentColor" d="M14.5 15.308h1V12.5h2.808v-1H15.5V8.692h-1V11.5h-2.808v1H14.5zM6 19.423q-2.263-.95-3.632-2.96Q1 14.452 1 12t1.368-4.462Q3.737 5.526 6 4.576V5.7q-1.85.875-2.925 2.575T2 12q0 2.025 1.075 3.725T6 18.3zm9.001.577q-1.664 0-3.12-.626q-1.454-.626-2.542-1.713q-1.087-1.088-1.713-2.542Q7 13.666 7 12.001q0-1.664.626-3.12q.626-1.454 1.713-2.542q1.088-1.087 2.542-1.713Q13.334 4 14.999 4q1.664 0 3.12.626q1.454.626 2.542 1.713q1.087 1.088 1.713 2.542q.626 1.453.626 3.118q0 1.664-.626 3.12q-.626 1.454-1.713 2.542q-1.088 1.087-2.542 1.713q-1.453.626-3.118.626M15 19q2.925 0 4.963-2.037T22 12q0-2.925-2.037-4.962T15 5q-2.925 0-4.962 2.038T8 12q0 2.925 2.038 4.963T15 19"/></svg>