<svg xmlns="http://www.w3.org/2000/svg" width="1em" height="1em" viewBox="0 0 24 24"><path fill="currentColor" d="M19.913 17.096L6.827 4.01q1.223-.798 2.64-1.161q1.418-.362 2.993-.362q.417 0 .728.213q.312.213.312.592q0 1.775 1.277 2.917q1.277 1.141 2.967 1.203q.33.007.555.243q.226.235.22.564q-.011 1.023.68 1.883q.691.86 1.603 1.158q.286.088.492.306q.206.219.187.505q-.039 1.333-.439 2.618q-.4 1.286-1.129 2.407M8.5 14.808q.548 0 .928-.39t.38-.918q0-.548-.38-.928t-.928-.38q-.529 0-.918.38q-.39.38-.39.928q0 .529.39.918q.39.39.918.39M12 21q-1.863 0-3.506-.71t-2.857-1.927Q4.42 17.148 3.71 15.506Q3 13.863 3 12q0-1.608.521-3.024t1.456-2.578L2.24 3.662q-.146-.147-.155-.348q-.01-.2.155-.366q.166-.165.357-.165q.191 0 .357.165l18.515 18.515q.146.147.156.345q.01.198-.156.363q-.165.166-.356.166t-.357-.166l-3.154-3.148q-1.162.935-2.578 1.456Q13.608 21 12 21"/></svg>