<svg xmlns="http://www.w3.org/2000/svg" width="1em" height="1em" viewBox="0 0 24 24"><path fill="currentColor" d="M21.48 12.071q-.038 1.333-.438 2.618q-.4 1.286-1.129 2.407l-.738-.738q.546-.91.888-1.951q.343-1.042.418-2.184q-1.327-.53-2.068-1.5q-.742-.97-.876-2.336q-2.06-.18-3.445-1.477q-1.384-1.298-1.517-3.416q-1.398-.107-2.663.231q-1.266.338-2.352 1.017l-.733-.732q1.223-.798 2.64-1.161q1.418-.362 2.993-.362q.417 0 .728.213q.312.213.312.592q0 1.775 1.277 2.917q1.277 1.141 2.967 1.203q.33.007.555.243q.226.235.22.564q-.011 1.023.68 1.883q.691.86 1.603 1.158q.286.088.492.306q.206.219.187.505M8.5 14.808q-.529 0-.918-.39q-.39-.39-.39-.918q0-.548.39-.928t.918-.38q.548 0 .928.38t.38.928q0 .529-.38.918q-.38.39-.928.39M12 21q-1.863 0-3.506-.71t-2.857-1.927Q4.42 17.148 3.71 15.506Q3 13.863 3 12q0-1.608.521-3.024t1.456-2.578L2.24 3.662q-.146-.147-.155-.348q-.01-.2.155-.366q.166-.165.357-.165q.191 0 .357.165l18.515 18.515q.146.147.156.345q.01.198-.156.363q-.165.166-.356.166t-.357-.166l-3.154-3.148q-1.162.935-2.578 1.456Q13.608 21 12 21m0-1q1.394 0 2.628-.454t2.249-1.248L5.702 7.123q-.794 1.015-1.248 2.25Q4 10.605 4 12q0 3.325 2.338 5.663T12 20m1.367-9.45"/></svg>