<svg xmlns="http://www.w3.org/2000/svg" width="1em" height="1em" viewBox="0 0 24 24"><path fill="currentColor" d="M11 19.43q-2.546-.355-4.273-2.272Q5 15.24 5 12.619q0-1.477.555-2.687t1.487-2.19L12 2.885l4.958 4.857q.727.766 1.237 1.708q.51.942.71 2.03H17.9q-.175-.85-.587-1.602Q16.9 9.125 16.25 8.5L12 4.3L7.75 8.5q-.875.825-1.312 1.872Q6 11.42 6 12.62q0 2.175 1.438 3.816q1.437 1.64 3.562 1.99zm2.454-3.793l-.35-.799q.573-.292 1.18-.469q.606-.177 1.216-.177q.537 0 1.07.128q.534.128 1.04.328q.488.2.97.36q.482.16 1.02.16q.556 0 1.067-.162q.512-.162.998-.398l.35.817q-.573.292-1.189.46q-.616.167-1.226.167q-.537 0-1.07-.128q-.534-.128-1.04-.328q-.488-.2-.97-.36q-.482-.16-1.02-.16q-.556 0-1.058.162t-.988.399m0 2.615l-.35-.798q.573-.292 1.18-.47q.606-.176 1.216-.176q.537 0 1.07.128t1.04.327q.488.2.97.36q.482.16 1.02.16q.556 0 1.067-.162q.512-.161.998-.398l.35.817q-.573.293-1.189.46q-.616.167-1.226.167q-.537 0-1.07-.128t-1.04-.327q-.488-.2-.97-.36q-.482-.16-1.02-.16q-.556 0-1.058.162q-.502.161-.988.398m0 2.615l-.35-.798q.573-.292 1.18-.469q.606-.177 1.216-.177q.537 0 1.07.128q.534.128 1.04.328q.488.2.97.36q.482.16 1.02.16q.556 0 1.067-.162q.512-.162.998-.399l.35.818q-.573.292-1.189.46q-.616.167-1.226.167q-.537 0-1.07-.128q-.534-.128-1.04-.328q-.488-.2-.97-.36q-.482-.16-1.02-.16q-.556 0-1.058.162t-.988.398"/></svg>