<svg xmlns="http://www.w3.org/2000/svg" width="1em" height="1em" viewBox="0 0 24 24"><path fill="currentColor" d="M5 18.385v-7.53l-1.538 1.199q-.177.134-.366.104q-.188-.031-.323-.208t-.113-.365q.02-.189.192-.323L5 9.6V7.462q0-.214.143-.357q.144-.143.357-.143t.357.143t.143.357v1.363l5.025-3.823q.217-.162.463-.242q.245-.081.512-.081t.513.08q.245.081.462.243l8.173 6.26q.171.134.192.323q.022.188-.113.365q-.135.171-.323.202q-.189.03-.36-.104L19 10.856v7.529q0 .67-.472 1.143q-.472.472-1.143.472h-3.597q-.161 0-.282-.121t-.121-.283v-3.98q0-.58-.403-.982q-.403-.403-.982-.403t-.982.403q-.403.403-.403.981v3.981q0 .162-.12.283t-.283.121H6.615q-.67 0-1.143-.472Q5 19.056 5 18.385m.55-12.616q-.229 0-.378-.186q-.149-.187-.066-.398q.175-.725.776-1.167q.6-.441 1.349-.441q.41 0 .756-.234q.346-.233.432-.618q.048-.148.174-.244t.286-.096q.248 0 .404.196q.155.196.073.427q-.194.705-.786 1.137q-.591.432-1.34.432q-.409 0-.755.202t-.433.592q-.067.167-.19.283q-.123.115-.302.115"/></svg>