<svg xmlns="http://www.w3.org/2000/svg" width="1em" height="1em" viewBox="0 0 24 24"><path fill="currentColor" d="M20.852 18.04L20 17.188v-5.996h-5.996l-2.385-2.384H20V6.615q0-.269-.173-.442T19.385 6H8.812l-1-1h11.573q.69 0 1.152.463q.463.462.463 1.152v10.77q0 .173-.04.343q-.04.17-.108.312M9.765 11.192H4v6.193q0 .23.192.423q.193.192.423.192h11.958zm11.339 11.339L17.574 19H4.614q-.69 0-1.152-.462Q3 18.075 3 17.385V6.615q0-.69.463-1.152Q3.925 5 4.615 5H5l1 1H4.615q-.23 0-.423.192Q4 6.385 4 6.615v2.193h3.38l-5.5-5.5l.714-.714l19.223 19.223z"/></svg>