<svg xmlns="http://www.w3.org/2000/svg" width="1em" height="1em" viewBox="0 0 24 24"><path fill="currentColor" d="M12.038 23q-4.111 0-7.202-2.628q-3.092-2.628-3.738-6.635q-.056-.252.057-.458t.345-.237q.233-.03.385.136t.188.399q.573 3.602 3.315 5.975t6.443 2.436l-1.581-1.58q-.14-.14-.15-.345q-.01-.203.15-.363t.354-.16q.194 0 .354.16l2.819 2.82q.098.097.055.217q-.044.119-.172.15q-.406.078-.805.096q-.4.017-.817.017m-2.423-7q-.67 0-1.143-.472Q8 15.056 8 14.385V9H6.5q-.213 0-.357-.143Q6 8.713 6 8.5t.143-.357Q6.287 8 6.5 8H8V6.5q0-.213.143-.357Q8.287 6 8.5 6t.357.143Q9 6.287 9 6.5v7.885q0 .23.192.423q.193.192.423.192H18.5q.213 0 .357.143T19 15.5q0 .213-.143.357q-.144.143-.357.143H16v1.5q0 .213-.143.357q-.144.143-.357.143t-.357-.143Q15 17.713 15 17.5V16zM15 14V9.615q0-.23-.192-.423Q14.615 9 14.385 9H10V8h4.385q.67 0 1.143.472q.472.472.472 1.143V14zM11.962 1q4.111 0 7.202 2.635q3.092 2.634 3.738 6.648q.056.252-.057.448q-.112.196-.345.227q-.233.03-.385-.136t-.188-.399q-.573-3.602-3.314-5.975t-6.444-2.436l1.581 1.58q.14.14.15.345q.01.203-.15.363t-.354.16q-.194 0-.354-.16l-2.819-2.82q-.098-.097-.055-.217q.044-.119.172-.15q.406-.078.805-.096q.4-.017.817-.017"/></svg>