<svg xmlns="http://www.w3.org/2000/svg" width="1em" height="1em" viewBox="0 0 24 24"><path fill="currentColor" d="M9.654 15.346v4.039q0 .269.173.442t.442.173h3.443q.269 0 .442-.173t.173-.442v-4.039zm-1-1V9.673H4.615q-.269 0-.442.173T4 10.288v3.443q0 .269.173.442t.442.173zm1 0h4.673V9.673H9.654zm5.673 0h4.058q.269 0 .442-.173t.173-.442V9.673h-4.673zm0-5.673H20V4.615q0-.269-.173-.442T19.385 4h-3.443q-.269 0-.442.173t-.173.442zm-6.673 6.673H4.615q-.666 0-1.14-.474Q3 14.397 3 13.73v-3.443q0-.666.475-1.14q.474-.475 1.14-.475h9.712V4.615q0-.666.474-1.14Q15.276 3 15.942 3h3.443q.666 0 1.14.475q.475.474.475 1.14v9.116q0 .666-.475 1.14q-.474.475-1.14.475h-4.058v4.039q0 .666-.475 1.14q-.474.475-1.14.475h-3.443q-.666 0-1.14-.475q-.475-.474-.475-1.14z"/></svg>