<svg xmlns="http://www.w3.org/2000/svg" width="1em" height="1em" viewBox="0 0 24 24"><path fill="currentColor" d="M15.808 10.096q-.53 0-.9-.37t-.37-.9q0-.528.37-.898t.9-.37q.529 0 .899.37t.37.899q0 .529-.37.899t-.9.37m-7.615 0q-.529 0-.899-.37t-.37-.9q0-.528.37-.898t.9-.37q.528 0 .898.37t.37.899q0 .529-.37.899t-.899.37M12 12.423q-.529 0-.9-.37q-.37-.37-.37-.9q0-.528.37-.898q.371-.37.9-.37t.9.37q.37.37.37.899t-.37.899q-.371.37-.9.37m0-4.654q-.529 0-.9-.37q-.37-.37-.37-.899t.37-.899q.371-.37.9-.37t.9.37q.37.37.37.899t-.37.899q-.371.37-.9.37m.001 11q-.424 0-.86-.056q-.435-.055-.833-.18v-3.018q0-.76.497-1.291q.497-.532 1.195-.532t1.195.532q.497.532.497 1.291v3.018q-.398.125-.832.18q-.435.056-.859.056m-2.963-.684q-.419-.167-.806-.376q-.388-.209-.755-.466q-.604-.428-.95-1.105T6.184 14.7q0-.537-.119-1.002q-.118-.465-.412-.907q-.21-.287-.79-.85q-.58-.563-1.066-1.052q-.233-.233-.233-.586q0-.352.237-.58q.233-.236.592-.236t.592.232l3.234 3.064q.422.38.621.906q.2.526.2 1.061zm5.924 0v-3.327q0-.548.211-1.074q.212-.526.61-.894l3.245-3.07q.255-.233.605-.233t.586.236q.237.237.237.59q0 .352-.232.58q-.484.478-1.073 1.037q-.59.56-.805.86q-.296.422-.412.896q-.117.473-.117 1.021q0 .758-.345 1.436t-.959 1.116q-.338.241-.732.45q-.394.209-.82.376"/></svg>