<svg xmlns="http://www.w3.org/2000/svg" width="1em" height="1em" viewBox="0 0 24 24"><path fill="currentColor" d="M13.327 13.808v-1.5h-2.885q-.261 0-.438-.177t-.177-.439v-1.615q0-.327.221-.548q.221-.221.548-.221h3.173q.192 0 .317.125q.126.125.126.316t-.126.317q-.125.126-.317.126h-3.057v1.5h2.884q.262 0 .439.177t.177.439v1.615q0 .327-.222.548q-.22.221-.548.221H10.27q-.191 0-.317-.125q-.125-.125-.125-.316t.125-.317q.126-.126.317-.126zm6.404 0v-1.5h-2.885q-.261 0-.438-.177t-.177-.439v-1.615q0-.327.22-.548q.222-.221.549-.221h3.173q.192 0 .317.125t.125.316t-.125.317q-.125.126-.317.126h-3.058v1.5H20q.262 0 .438.177q.177.177.177.439v1.615q0 .327-.22.548q-.222.221-.549.221h-3.173q-.192 0-.317-.125t-.125-.316t.125-.317q.125-.126.317-.126zm-15.539.884q-.327 0-.548-.22q-.22-.222-.22-.549v-3.846q0-.31.22-.54q.221-.23.548-.23h2.846q.31 0 .54.23q.23.23.23.54v.563q0 .185-.139.301q-.138.117-.312.117q-.188 0-.31-.126q-.124-.125-.124-.317v-.423H4.308v3.616h2.615v-.423q0-.166.123-.304q.123-.139.311-.139q.174 0 .312.139q.139.138.139.304v.538q0 .327-.23.548q-.23.221-.54.221z"/></svg>