<svg xmlns="http://www.w3.org/2000/svg" width="1em" height="1em" viewBox="0 0 24 24"><path fill="currentColor" d="M6.404 14.692h2.308v-.884H6.519q-.115 0-.211-.096q-.096-.097-.096-.212v-3q0-.115.096-.212q.096-.096.211-.096h2.193v-.884H6.404q-.444 0-.76.316q-.317.316-.317.76v3.231q0 .445.316.761q.317.316.76.316m3.709 0h2.307q.444 0 .76-.316q.317-.316.317-.76v-.924q0-.444-.316-.778q-.317-.333-.76-.333h-1.116q-.116 0-.212-.096q-.096-.097-.096-.212V10.5q0-.115.096-.212q.096-.096.212-.096h2.192v-.884h-2.308q-.444 0-.76.316t-.316.76v.924q0 .444.316.772t.76.328h1.116q.115 0 .211.096t.097.211v.785q0 .115-.097.212q-.096.096-.211.096h-2.192zm6.138 0h1.192L19 9.308h-.923l-1.23 4.257l-1.232-4.257h-.923zM4.615 19q-.69 0-1.152-.462Q3 18.075 3 17.385V6.615q0-.69.463-1.152Q3.925 5 4.615 5h14.77q.69 0 1.152.463q.463.462.463 1.152v10.77q0 .69-.462 1.152q-.463.463-1.153.463zm0-1h14.77q.23 0 .423-.192q.192-.193.192-.423V6.615q0-.23-.192-.423Q19.615 6 19.385 6H4.615q-.23 0-.423.192Q4 6.385 4 6.615v10.77q0 .23.192.423q.193.192.423.192M4 18V6z"/></svg>