<svg xmlns="http://www.w3.org/2000/svg" width="1em" height="1em" viewBox="0 0 24 24"><path fill="currentColor" d="M11.5 19.5v-6H7q-.213 0-.356-.144Q6.5 13.212 6.5 13t.144-.356Q6.788 12.5 7 12.5h4.302L6.398 4.78q-.171-.268-.018-.524Q6.533 4 6.83 4q.137 0 .248.064q.112.065.174.18L12 11.742l4.748-7.498q.062-.115.174-.18Q17.033 4 17.17 4q.297 0 .45.256q.153.256-.018.525L12.698 12.5H17q.213 0 .356.144q.144.144.144.357t-.144.356q-.143.143-.356.143h-4.5v6q0 .213-.144.356Q12.212 20 12 20t-.356-.144q-.143-.143-.143-.356"/></svg>