<svg xmlns="http://www.w3.org/2000/svg" width="1em" height="1em" viewBox="0 0 24 24"><path fill="currentColor" d="M11.5 19.5v-3.192H7q-.213 0-.356-.144t-.144-.357q0-.213.144-.356q.143-.143.356-.143h4.5V12.5H7q-.213 0-.356-.144Q6.5 12.212 6.5 12t.144-.356Q6.788 11.5 7 11.5h3.979L6.706 4.775q-.171-.25-.019-.513Q6.84 4 7.139 4q.136 0 .248.064q.112.065.174.18L12 11.242l4.44-6.998q.062-.115.174-.18q.112-.064.248-.064q.298 0 .45.256q.153.256-.018.525L13.021 11.5H17q.213 0 .356.144q.144.144.144.357t-.144.356q-.143.143-.356.143h-4.5v2.808H17q.213 0 .356.144q.144.144.144.356q0 .213-.144.356q-.144.144-.356.144h-4.5V19.5q0 .213-.144.356Q12.212 20 12 20t-.356-.144q-.143-.143-.143-.356"/></svg>