<svg xmlns="http://www.w3.org/2000/svg" width="1em" height="1em" viewBox="0 0 24 24"><path fill="currentColor" d="M9.5 19.192v-4.246l-2.225 1.387q-.27.17-.522.02q-.253-.152-.253-.455q0-.138.064-.25t.18-.175L9.5 13.744v-3.523l-2.244 1.406q-.25.165-.503.015q-.253-.15-.253-.447q0-.137.06-.248q.062-.112.16-.174L9.5 9.02V4.5q0-.213.144-.356Q9.788 4 10 4t.356.144q.143.144.143.356v3.904l3.244-2.03q.25-.172.503-.02q.253.154.253.451q0 .137-.064.248q-.065.112-.18.174L10.5 9.606v3.523l3.244-2.03q.25-.172.503-.02q.253.154.253.451q0 .137-.064.248q-.065.112-.18.174L10.5 14.33V19h.5q1.971 0 3.52-1.248t1.886-3.298q.03-.202.196-.328t.379-.126q.204 0 .342.15t.108.352q-.35 2.37-2.147 3.934Q13.488 20 11 20h-.692q-.344 0-.576-.232q-.232-.232-.232-.576"/></svg>