<svg xmlns="http://www.w3.org/2000/svg" width="1em" height="1em" viewBox="0 0 24 24"><path fill="currentColor" d="M7.5 19.5v-2.308H6q-.213 0-.356-.144t-.144-.356q0-.213.144-.356q.143-.144.356-.144h1.5v-2.73H6q-.213 0-.356-.144T5.5 12.96q0-.213.144-.356T6 12.462h1.5V4.808q0-.344.232-.576Q7.964 4 8.308 4h5.461q1.979 0 3.355 1.375T18.5 8.727t-1.376 3.356q-1.376 1.379-3.355 1.379H8.5v2.73H12q.213 0 .356.144t.144.357q0 .213-.144.356t-.356.143H8.5V19.5q0 .213-.144.356q-.144.144-.357.144t-.356-.144Q7.5 19.713 7.5 19.5m1-7.038h5.27q1.545 0 2.637-1.093Q17.5 10.276 17.5 8.73q0-1.545-1.093-2.638Q15.315 5 13.77 5H8.5z"/></svg>