<svg xmlns="http://www.w3.org/2000/svg" width="1em" height="1em" viewBox="0 0 24 24"><path fill="currentColor" d="m19.385 20.538l-7.308-7.307l-3.12 3.119q.22.375.324.79q.104.416.104.86q0 1.364-.971 2.336q-.971.972-2.335.972q-1.364 0-2.337-.971q-.973-.971-.973-2.335q0-1.364.972-2.337q.971-.973 2.336-.973q.444 0 .86.104q.415.104.79.323L10.847 12l-3.12-3.12q-.375.22-.79.324q-.416.104-.86.104q-1.364 0-2.336-.971q-.972-.971-.972-2.335q0-1.364.971-2.337q.971-.973 2.335-.973q1.363 0 2.337.972q.973.972.973 2.336q0 .444-.104.86q-.104.415-.323.79L21.23 19.923v.615zm-4.77-9.846l-1.23-1.23l6-6h1.846v.615zM6.077 8.308q.952 0 1.63-.678q.678-.678.678-1.63t-.678-1.63q-.678-.678-1.63-.678t-1.63.678Q3.77 5.048 3.77 6t.678 1.63q.678.678 1.63.678m0 12q.952 0 1.63-.678q.678-.678.678-1.63t-.678-1.63q-.678-.678-1.63-.678t-1.63.678q-.678.678-.678 1.63t.678 1.63q.678.678 1.63.678"/></svg>