<svg xmlns="http://www.w3.org/2000/svg" width="1em" height="1em" viewBox="0 0 24 24"><path fill="currentColor" d="M12 15q-1.246 0-2.123-.877Q9 13.246 9 12q0-1.246.877-2.123Q10.754 9 12 9q1.246 0 2.123.877Q15 10.754 15 12q0 1.246-.877 2.123Q13.246 15 12 15m0-1q.825 0 1.413-.587T14 12q0-.825-.587-1.412T12 10q-.825 0-1.412.588T10 12q0 .825.588 1.413T12 14m0 5q-3.504 0-5.299-.184q-1.795-.183-3.191-.54q-.27-.066-.448-.246q-.177-.18-.177-.45q0-.207.183-.32q.184-.112.41-.045q1.224.333 2.421.486q1.197.153 2.409.176q-1.377-.748-2.343-2.356Q5 13.913 5 12q0-2.35.203-4.55q.203-2.198.54-3.96q.067-.269.227-.437q.16-.168.43-.168q.208 0 .34.183q.131.184.064.41q-.28 1.397-.424 2.517q-.143 1.12-.257 2.313q.806-1.435 2.385-2.371Q10.087 5 12 5q2.927 0 4.886.184t3.585.54q.27.066.457.237t.187.439q0 .208-.183.33q-.184.122-.41.055q-1.243-.281-2.488-.453q-1.246-.172-2.322-.228q1.53.94 2.41 2.529Q19 10.22 19 12q0 3.177-.213 5.116t-.53 3.374q-.067.27-.237.448q-.17.177-.44.177q-.207 0-.329-.174q-.122-.174-.055-.4q.294-1.204.457-2.402q.162-1.197.224-2.408q-.883 1.454-2.462 2.361Q13.837 19 12 19m0-1q2.5 0 4.25-1.75T18 12q0-2.5-1.75-4.25T12 6Q9.5 6 7.75 7.75T6 12q0 2.5 1.75 4.25T12 18"/></svg>