<svg xmlns="http://www.w3.org/2000/svg" width="1em" height="1em" viewBox="0 0 24 24"><path fill="currentColor" d="M4.308 10.5q-.344 0-.576-.232q-.232-.232-.232-.576V4.308q0-.344.232-.576q.232-.232.576-.232h5.384q.344 0 .576.232q.232.232.232.576v5.384q0 .344-.232.576q-.232.232-.576.232zm10 0q-.344 0-.576-.232q-.232-.232-.232-.576V4.308q0-.344.232-.576q.232-.232.576-.232h5.384q.344 0 .576.232q.232.232.232.576v5.384q0 .344-.232.576q-.232.232-.576.232zm-10 10q-.344 0-.576-.232q-.232-.232-.232-.576v-5.384q0-.344.232-.576q.232-.232.576-.232h5.384q.344 0 .576.232q.232.232.232.576v5.384q0 .344-.232.576q-.232.232-.576.232zm12.691 0q-.212 0-.356-.144q-.143-.143-.143-.356v-2.5h-2.525q-.194 0-.335-.144q-.14-.144-.14-.357t.144-.356q.144-.143.356-.143h2.5v-2.525q0-.194.144-.335q.144-.14.357-.14t.356.144q.143.144.143.356v2.5h2.525q.194 0 .335.144q.14.144.14.357t-.144.356q-.143.143-.356.143h-2.5v2.525q0 .194-.144.335q-.144.14-.357.14"/></svg>