<svg xmlns="http://www.w3.org/2000/svg" width="1em" height="1em" viewBox="0 0 24 24"><path fill="currentColor" d="M13.5 8.183V4.817q0-.357.234-.587q.234-.23.58-.23h4.88q.346 0 .576.23q.23.23.23.587v3.366q0 .357-.234.587q-.234.23-.58.23h-4.88q-.346 0-.576-.23q-.23-.23-.23-.587M4 11.2V4.8q0-.34.234-.57q.234-.23.58-.23h4.88q.346 0 .576.23q.23.23.23.57v6.4q0 .34-.234.57q-.234.23-.58.23h-4.88q-.346 0-.576-.23Q4 11.54 4 11.2m9.5 8v-6.4q0-.34.234-.57q.234-.23.58-.23h4.88q.346 0 .576.23q.23.23.23.57v6.4q0 .34-.234.57q-.234.23-.58.23h-4.88q-.346 0-.576-.23q-.23-.23-.23-.57M4 19.183v-3.366q0-.357.234-.587q.234-.23.58-.23h4.88q.346 0 .576.23q.23.23.23.587v3.366q0 .357-.234.587q-.234.23-.58.23h-4.88q-.346 0-.576-.23q-.23-.23-.23-.587M5 11h4.5V5H5zm9.5 8H19v-6h-4.5zm0-11H19V5h-4.5zM5 19h4.5v-3H5zm4.5-3"/></svg>