<svg xmlns="http://www.w3.org/2000/svg" width="1em" height="1em" viewBox="0 0 24 24"><path fill="currentColor" d="M5.615 19q-.69 0-1.152-.462Q4 18.075 4 17.385V4.615q0-.69.463-1.152Q4.925 3 5.615 3h12.77q.69 0 1.152.463q.463.462.463 1.152v6.639q-.115-.012-.218-.017q-.103-.006-.224-.006H19V4.615q0-.23-.192-.423Q18.615 4 18.385 4H5.615q-.23 0-.423.192Q5 4.385 5 4.615v12.77q0 .23.192.423q.193.192.423.192h2.831q.062.28.138.521q.076.24.178.479zM5 17v1V4zm2.5-1.5h1.042q.258-.898.74-1.666q.483-.769 1.168-1.334H7.5zm0-6h3v-3h-3zM14 20q-1.246 0-2.123-.877Q11 18.246 11 17q0-1.246.877-2.123Q12.754 14 14 14h1.808v1H14q-.825 0-1.412.588T12 17q0 .825.588 1.413T14 19h1.808v1zm-.5-10.5h3v-3h-3zm.5 8v-1h6v1zm4.192 2.5v-1H20q.825 0 1.413-.587T22 17q0-.825-.587-1.412T20 15h-1.808v-1H20q1.246 0 2.123.874Q23 15.748 23 17q0 1.246-.877 2.123Q21.246 20 20 20z"/></svg>