<svg xmlns="http://www.w3.org/2000/svg" width="1em" height="1em" viewBox="0 0 24 24"><path fill="currentColor" d="M12 21q-1.868 0-3.51-.708q-1.642-.709-2.857-1.924q-1.215-1.214-1.924-2.856Q3 13.87 3 12.003q0-1.866.708-3.51q.709-1.643 1.924-2.859q1.214-1.216 2.856-1.925Q10.13 3 11.997 3q1.866 0 3.51.709t2.859 1.924q1.216 1.215 1.925 2.857Q21 10.133 21 12v9zm0-1q3.35 0 5.675-2.325T20 12q0-3.35-2.325-5.675T12 4Q8.65 4 6.325 6.325T4 12q0 .71.113 1.394q.114.685.36 1.325l3.546-3.546l3.32 2.775L15.786 9.5H13.5v-1h4v4h-1v-2.267l-5.12 5.094l-3.274-2.8l-3.181 3.18q.992 1.918 2.875 3.105Q9.683 20 12 20m7.27.038q.309 0 .539-.23q.23-.23.23-.539q0-.31-.23-.54q-.23-.229-.54-.229q-.31 0-.54.23q-.229.23-.229.54q0 .309.23.539q.23.23.54.23M11.855 12"/></svg>