<svg xmlns="http://www.w3.org/2000/svg" width="1em" height="1em" viewBox="0 0 24 24"><path fill="currentColor" d="M5.615 20q-.67 0-1.143-.472Q4 19.056 4 18.385V5.615q0-.67.472-1.143Q4.944 4 5.615 4h12.77q.67 0 1.143.472q.472.472.472 1.143v12.77q0 .67-.472 1.143q-.472.472-1.143.472zm10.948-1h1.822q.269 0 .442-.173t.173-.442v-1.822zM5.562 19h2.46l3-3h1.24l-3 3h2.407l3-3h1.24l-3 3h2.414l3-3H19V5.615q0-.269-.173-.442T18.385 5H5.615q-.269 0-.442.173T5 5.615v12.706L7.321 16h1.24zm5.113-8.712l-2.69 2.666q-.14.14-.332.134q-.191-.007-.338-.153q-.14-.14-.14-.345t.14-.344l2.795-2.794q.242-.242.565-.242q.323 0 .565.242l1.435 1.435l3.34-3.34q.14-.141.342-.134q.2.006.347.152q.14.14.14.335t-.14.335l-3.464 3.488q-.242.242-.565.242q-.323 0-.565-.242zM5 18.385V5v14z"/></svg>