<svg xmlns="http://www.w3.org/2000/svg" width="1em" height="1em" viewBox="0 0 24 24"><path fill="currentColor" d="M12 21q-1.868 0-3.51-.707q-1.642-.708-2.857-1.932q-1.215-1.224-1.924-2.864Q3 13.857 3 12q0-3.425 2.244-5.98T11 3.05v1.23q-2.998.408-4.884 2.621T4.231 12q0 3.219 2.275 5.494T12 19.769q1.888 0 3.534-.834q1.645-.835 2.658-2.189l1.062.654q-1.292 1.702-3.17 2.651Q14.209 21 12 21m-.5-5.5v-3h-3v-1h3v-3h1v3h3v1h-3v3zm8.765.05l-1.061-.615q.263-.581.414-1.344q.151-.762.151-1.591q0-2.944-1.924-5.147Q15.921 4.65 13 4.28V3.05q3.377.317 5.688 2.902Q21 8.537 21 12q0 .985-.18 1.885q-.182.9-.555 1.665"/></svg>