<svg xmlns="http://www.w3.org/2000/svg" width="1em" height="1em" viewBox="0 0 24 24"><path fill="currentColor" d="M12 21q-1.863 0-3.506-.71t-2.857-1.927Q4.42 17.148 3.71 15.506Q3 13.863 3 12q0-3.212 1.98-5.658q1.982-2.446 5.14-3.125q.301-.096.539.089q.237.184.237.486q0 .212-.114.374t-.295.217q-2.747.54-4.501 2.676Q4.23 9.194 4.23 12q0 3.233 2.268 5.501Q8.767 19.769 12 19.769q1.685 0 3.224-.68q1.54-.681 2.605-1.916q.163-.177.374-.196q.21-.02.393.12q.229.178.235.465q.006.288-.243.538q-1.33 1.425-3.002 2.163Q13.913 21 12 21m7.77-9q0-2.8-1.778-4.945q-1.777-2.145-4.504-2.672q-.2-.054-.314-.217t-.114-.374q0-.302.247-.477t.549-.098q3.106.608 5.125 3.093Q21 8.794 21 12q0 .72-.105 1.403q-.105.684-.34 1.31q-.067.283-.323.403q-.257.12-.54.019q-.205-.08-.295-.272q-.09-.194-.028-.425q.19-.655.295-1.269q.105-.613.105-1.169"/></svg>