<svg xmlns="http://www.w3.org/2000/svg" width="1em" height="1em" viewBox="0 0 24 24"><path fill="currentColor" d="M19.27 20.038q.309 0 .539-.23q.23-.23.23-.539q0-.31-.23-.54q-.23-.229-.54-.229q-.31 0-.54.23q-.229.23-.229.54q0 .309.23.539q.23.23.54.23M12 21q-2.426 0-4.511-1.196t-3.302-3.358l3.919-3.92l3.275 2.8l5.119-5.093V12.5h1v-4h-4v1h2.287l-4.449 4.448l-3.319-2.775l-4.313 4.314q-.35-.749-.528-1.712Q3 12.812 3 12q0-1.868.708-3.51q.709-1.642 1.924-2.857q1.214-1.215 2.856-1.924Q10.13 3 11.997 3q1.866 0 3.51.709t2.859 1.924q1.216 1.215 1.925 2.857Q21 10.133 21 12v9z"/></svg>