<svg xmlns="http://www.w3.org/2000/svg" width="1em" height="1em" viewBox="0 0 24 24"><path fill="currentColor" d="M4 19.5v-1h11v1zm12.003-7q-1.866 0-3.185-1.315Q11.5 9.869 11.5 8.003t1.315-3.185Q14.131 3.5 15.997 3.5t3.185 1.315Q20.5 6.131 20.5 7.997t-1.315 3.185Q17.869 12.5 16.003 12.5M4 11.5v-1h5.377q.098.28.217.521q.12.24.271.479zm0 4v-1h9.265q.402.177.84.309q.44.131.895.193v.498zm11.615-4.615h.77V7.308h-.77zM16 6.192q.2 0 .35-.15t.15-.35q0-.2-.15-.35t-.35-.15q-.2 0-.35.15t-.15.35q0 .2.15.35t.35.15"/></svg>