<svg xmlns="http://www.w3.org/2000/svg" width="1em" height="1em" viewBox="0 0 24 24"><path fill="currentColor" d="M5.615 20q-.69 0-1.152-.462Q4 19.075 4 18.385V5.615q0-.69.463-1.152Q4.925 4 5.615 4h12.77q.69 0 1.152.463q.463.462.463 1.152v12.77q0 .69-.462 1.152q-.463.463-1.153.463zM5 8.998h14V5.615q0-.23-.192-.423Q18.615 5 18.385 5H5.615q-.23 0-.423.192Q5 5.385 5 5.615zm0 5.004h14V9.998H5zM5.615 19h12.77q.23 0 .423-.192q.192-.193.192-.423v-3.383H5v3.383q0 .23.192.423q.193.192.423.192M7.574 7.804q-.345 0-.575-.233q-.23-.234-.23-.578t.233-.575q.234-.23.578-.23t.575.234q.23.233.23.578q0 .344-.234.574q-.233.23-.577.23m0 5.004q-.345 0-.575-.234q-.23-.233-.23-.577q0-.345.233-.575q.234-.23.578-.23t.575.233q.23.234.23.578q0 .345-.234.575q-.233.23-.577.23m0 5.004q-.345 0-.575-.234q-.23-.233-.23-.578q0-.344.233-.574q.234-.23.578-.23t.575.233q.23.234.23.578t-.234.575q-.233.23-.577.23"/></svg>