<svg xmlns="http://www.w3.org/2000/svg" width="1em" height="1em" viewBox="0 0 24 24"><path fill="currentColor" d="M6 14.846q-.36 0-.603-.243T5.154 14q0-.36.243-.603T6 13.154q.36 0 .603.243t.243.603q0 .36-.243.603T6 14.846m0 4q-.36 0-.603-.243T5.154 18q0-.36.243-.603T6 17.154q.36 0 .603.243t.243.603q0 .36-.243.603T6 18.846m0-8q-.36 0-.603-.243T5.154 10q0-.36.243-.603T6 9.154q.36 0 .603.243t.243.603q0 .36-.243.603T6 10.846M3 10.5q-.2 0-.35-.15T2.5 10q0-.2.15-.35T3 9.5q.2 0 .35.15t.15.35q0 .2-.15.35T3 10.5m3-3.654q-.36 0-.603-.243T5.154 6q0-.36.243-.603T6 5.154q.36 0 .603.243T6.846 6q0 .36-.243.603T6 6.846M3 14.5q-.2 0-.35-.15T2.5 14q0-.2.15-.35T3 13.5q.2 0 .35.15t.15.35q0 .2-.15.35T3 14.5m7 7q-.2 0-.35-.15T9.5 21q0-.2.15-.35t.35-.15q.2 0 .35.15t.15.35q0 .2-.15.35t-.35.15m0-18q-.2 0-.35-.15T9.5 3q0-.2.15-.35T10 2.5q.2 0 .35.15t.15.35q0 .2-.15.35T10 3.5m0 3.346q-.36 0-.603-.243T9.154 6q0-.36.243-.603T10 5.154q.36 0 .603.243t.243.603q0 .36-.243.603T10 6.846m.005 8.346q-.495 0-.846-.346q-.351-.347-.351-.841q0-.495.346-.846q.347-.351.841-.351q.495 0 .846.346q.351.347.351.841q0 .495-.346.846q-.347.351-.841.351m0-4q-.495 0-.846-.346q-.351-.347-.351-.841q0-.495.346-.846q.347-.351.841-.351q.495 0 .846.346q.351.347.351.841q0 .495-.346.846q-.347.351-.841.351M10 18.846q-.36 0-.603-.243T9.154 18q0-.36.243-.603t.603-.243q.36 0 .603.243t.243.603q0 .36-.243.603t-.603.243m2.5 1.635V3.519q1.677.077 3.141.77t2.546 1.842q1.08 1.148 1.697 2.656q.616 1.509.616 3.213q0 1.704-.616 3.213q-.617 1.508-1.697 2.656q-1.081 1.148-2.546 1.842q-1.464.693-3.141.77"/></svg>