<svg xmlns="http://www.w3.org/2000/svg" width="1em" height="1em" viewBox="0 0 24 24"><path fill="currentColor" d="M11.265 19.808q-.225-.655-.575-1.209t-.825-1.032q-.475-.479-1.025-.831q-.55-.353-1.2-.578q.05.725.35 1.35t.8 1.125q.5.5 1.125.803q.625.302 1.35.372m1.45 0q.725-.056 1.356-.356q.63-.3 1.134-.8t.805-1.135q.3-.634.355-1.36q-.645.226-1.204.576t-1.03.825q-.471.475-.829 1.037q-.357.563-.587 1.213M12 11.577q1.592 0 2.7-1.108t1.108-2.7V5.992l-1.75 1.475L12 4.742L9.942 7.467l-1.75-1.475V7.77q0 1.593 1.108 2.7t2.7 1.108m-.385 9.23q-2.083 0-3.541-1.458q-1.459-1.458-1.459-3.541v-.885q1.583.244 2.889 1.139q1.306.894 1.996 2.188v-5.69q-1.823-.177-3.065-1.542Q7.192 9.654 7.192 7.77V3.81l2.616 2.256L12 3.195l2.192 2.87l2.616-2.255v3.96q0 1.884-1.243 3.248q-1.242 1.365-3.065 1.542v5.67q.69-1.274 1.987-2.168q1.296-.895 2.86-1.139v.885q0 2.083-1.454 3.541q-1.452 1.459-3.528 1.459zm-2.15-2.824"/></svg>