<svg xmlns="http://www.w3.org/2000/svg" width="1em" height="1em" viewBox="0 0 24 24"><path fill="currentColor" d="M18.79 18h-6.31q-.212 0-.355-.144q-.144-.144-.144-.357q0-.212.144-.356q.143-.143.356-.143h6.31l-1.722-1.74q-.14-.147-.153-.353q-.012-.207.15-.357q.15-.15.347-.14q.199.01.345.155l2.388 2.37q.242.242.242.565q0 .323-.242.565l-2.388 2.389q-.143.146-.333.146q-.19 0-.35-.15q-.171-.15-.159-.357t.153-.353zM5.212 12.827H4.98q-.31 0-.52-.21q-.211-.21-.211-.52v-.232q0-.31.21-.52q.21-.21.52-.21h.232q.31 0 .52.21q.21.21.21.52v.231q0 .31-.21.52q-.21.21-.52.21m4.863 0q-1.14 0-1.944-.804q-.804-.806-.804-1.945v-4q0-1.14.806-1.945t1.946-.805q1.14 0 1.944.805q.804.806.804 1.945v4q0 1.14-.806 1.945q-.806.805-1.946.805m7.884 0q-1.14 0-1.944-.805q-.803-.806-.803-1.945v-4q0-1.14.806-1.945q.806-.805 1.946-.805t1.944.805q.804.806.804 1.945v4q0 1.14-.806 1.945q-.806.805-1.947.805m-7.882-1q.73 0 1.24-.51t.51-1.24v-4q0-.73-.51-1.24t-1.24-.51q-.73 0-1.24.51t-.51 1.24v4q0 .73.51 1.24t1.24.51m7.885 0q.729 0 1.24-.51q.51-.51.51-1.24v-4q0-.73-.51-1.24q-.511-.51-1.24-.51q-.73 0-1.24.51t-.51 1.24v4q0 .73.51 1.24t1.24.51"/></svg>