<svg xmlns="http://www.w3.org/2000/svg" width="1em" height="1em" viewBox="0 0 24 24"><path fill="currentColor" d="m13.64 18l1.722 1.74q.14.147.152.353t-.158.357q-.16.15-.354.15q-.194 0-.335-.146l-2.363-2.389q-.242-.242-.242-.565t.242-.565l2.363-2.37q.146-.146.347-.155q.201-.01.357.136q.156.146.15.354q-.006.208-.14.36L13.64 17h6.303q.213 0 .357.144q.143.144.143.357q0 .212-.143.356q-.144.143-.357.143zm-8.428-5.173H4.98q-.31 0-.52-.21q-.211-.21-.211-.52v-.232q0-.31.21-.52q.21-.21.52-.21h.232q.31 0 .52.21q.21.21.21.52v.231q0 .31-.21.52q-.21.21-.52.21m4.863 0q-1.14 0-1.944-.804q-.804-.806-.804-1.945v-4q0-1.14.806-1.945t1.946-.805q1.14 0 1.944.805q.804.806.804 1.945v4q0 1.14-.806 1.945q-.806.805-1.946.805m.002-1q.73 0 1.24-.51t.51-1.24v-4q0-.73-.51-1.24t-1.24-.51q-.73 0-1.24.51t-.51 1.24v4q0 .73.51 1.24t1.24.51"/></svg>