<svg xmlns="http://www.w3.org/2000/svg" width="1em" height="1em" viewBox="0 0 24 24"><path fill="currentColor" d="M11.5 21V8.5H4.863q-.298 0-.388-.283q-.09-.282.152-.444l6.913-4.835q.221-.142.462-.142q.24 0 .458.142l6.913 4.835q.242.162.152.444q-.09.283-.388.283H12.5V21q0 .213-.144.356q-.144.144-.357.144t-.356-.144Q11.5 21.213 11.5 21m-8 0v-4.673l-.625-3.483q-.037-.213.076-.374q.113-.161.327-.198q.2-.037.365.08q.165.117.201.315l.633 3.448h3.215q.344 0 .576.233q.232.232.232.575V21q0 .213-.144.356q-.144.144-.357.144t-.356-.144Q7.5 21.213 7.5 21v-3.885h-3V21q0 .213-.144.356q-.144.144-.357.144t-.356-.144Q3.5 21.213 3.5 21m12 0v-4.077q0-.343.232-.575q.232-.233.576-.233h3.215l.633-3.448q.035-.197.188-.315q.152-.117.37-.08q.217.037.332.198q.116.16.079.374l-.625 3.483V21q0 .213-.144.356q-.144.144-.357.144t-.356-.144Q19.5 21.213 19.5 21v-3.885h-3V21q0 .213-.144.356q-.144.144-.357.144t-.356-.144Q15.5 21.213 15.5 21"/></svg>