<svg xmlns="http://www.w3.org/2000/svg" width="1em" height="1em" viewBox="0 0 24 24"><path fill="currentColor" d="M5.73 18q-.69 0-1.152-.462t-.463-1.153V8h-.384q-.213 0-.356-.144q-.144-.144-.144-.357q0-.212.144-.356Q3.518 7 3.73 7h3.115v-.115q0-.31.23-.54q.23-.23.54-.23h1q.309 0 .539.23q.23.23.23.54V7H12.5q.213 0 .356.144q.144.144.144.357q0 .212-.144.356Q12.713 8 12.5 8h-.385v8.385q0 .69-.462 1.152Q11.19 18 10.5 18zm9.655-.5q-.213 0-.357-.144q-.143-.144-.143-.357t.143-.356q.144-.143.357-.143h2q.212 0 .356.144t.144.357t-.144.356q-.144.143-.356.143zm0-4q-.213 0-.357-.144q-.143-.144-.143-.357t.143-.356q.144-.143.357-.143h4q.212 0 .356.144t.144.357t-.144.356q-.144.143-.356.143zm0-4q-.213 0-.357-.144q-.143-.144-.143-.357t.143-.356q.144-.143.357-.143h5q.212 0 .356.144t.144.357t-.144.356q-.144.143-.356.143z"/></svg>