<svg xmlns="http://www.w3.org/2000/svg" width="1em" height="1em" viewBox="0 0 24 24"><path fill="currentColor" d="M18 18.115q.625 0 1.063-.437t.437-1.063q0-.625-.437-1.062T18 15.115q-.625 0-1.062.438t-.438 1.062q0 .625.438 1.063t1.062.437m0 3q.75 0 1.4-.35t1.075-.975q-.575-.35-1.2-.512T18 19.115q-.65 0-1.275.163t-1.2.512q.425.625 1.075.975t1.4.35m0 1q-1.671 0-2.836-1.164Q14 19.787 14 18.115q0-1.67 1.164-2.835T18 14.115q1.671 0 2.836 1.165T22 18.115q0 1.672-1.164 2.836Q19.67 22.115 18 22.115M7.5 8.731h9v-1h-9zM11.521 20H4V4h16v7.565q-.494-.157-.991-.246q-.497-.088-1.009-.088q-.506 0-.984.08t-.94.226V11.5H7.5v1h6.587q-.758.521-1.332 1.223q-.574.702-.945 1.546H7.5v1h3.96q-.108.423-.169.853q-.06.43-.06.878q0 .46.054 1.009q.053.549.236.991"/></svg>