<svg xmlns="http://www.w3.org/2000/svg" width="1em" height="1em" viewBox="0 0 24 24"><path fill="currentColor" d="M18 18.115q.625 0 1.063-.437t.437-1.063q0-.625-.437-1.062T18 15.115q-.625 0-1.062.438t-.438 1.062q0 .625.438 1.063t1.062.437m0 3q.75 0 1.4-.35t1.075-.975q-.575-.35-1.2-.512T18 19.115q-.65 0-1.275.163t-1.2.512q.425.625 1.075.975t1.4.35M4 20V4h16v7.565q-.263-.09-.504-.147q-.24-.056-.496-.112V5H5v14h6.28q.037.28.094.521q.057.24.147.479zm1-1.993V19V5v6.306v-.075zm2.5-1.738h3.96q.055-.256.15-.496l.2-.504H7.5zm0-3.769h6.58q.493-.346.97-.587q.479-.24 1.027-.376V11.5H7.5zm0-3.77h9v-1h-9zM18 22.116q-1.671 0-2.836-1.164T14 18.115q0-1.67 1.164-2.835T18 14.115q1.671 0 2.836 1.165T22 18.115q0 1.672-1.164 2.836Q19.67 22.115 18 22.115"/></svg>