<svg xmlns="http://www.w3.org/2000/svg" width="1em" height="1em" viewBox="0 0 24 24"><path fill="currentColor" d="M16.808 3.125q1.246.02 2.123.887q.877.867.877 2.113q0 .237-.028.66q-.028.425-.103 1.005l-1.394 10.075q-.068.585-.517.935q-.449.35-1.033.35q-.402 0-.707-.221q-.305-.221-.534-.537l-2.963-4.034q-.108-.139-.24-.224t-.314-.086q-.177 0-.554.36l-2.888 3.91q-.254.326-.584.58q-.33.252-.732.252q-.584 0-1.02-.362q-.437-.363-.505-.948L4.323 7.79q-.075-.58-.103-1.004q-.028-.424-.028-.661q0-1.246.877-2.123q.877-.877 2.123-.877q.727 0 1.246.238q.518.237 1.018.512t1.091.513q.591.237 1.453.237q.88 0 1.482-.238q.6-.237 1.1-.512t1.012-.513q.512-.237 1.214-.237m0 1q-.575 0-1.013.238t-.943.512q-.506.275-1.167.513q-.662.237-1.685.237q-.985 0-1.646-.238q-.662-.237-1.167-.512q-.506-.275-.963-.513q-.457-.237-1.032-.237q-.825 0-1.412.588t-.588 1.412q0 .2.025.575t.1.875L6.692 17.7q.025.2.175.313t.35.112q.183 0 .312-.137q.129-.136.236-.294l2.833-3.854q.254-.346.612-.569q.357-.223.79-.223q.413 0 .78.223t.622.57l2.863 3.928q.108.133.212.257t.28.124q.2 0 .363-.112t.188-.313l1.375-10.15q.075-.5.1-.875t.025-.575q0-.825-.588-1.412t-1.412-.588m-4.808 7"/></svg>