<svg xmlns="http://www.w3.org/2000/svg" width="1em" height="1em" viewBox="0 0 24 24"><path fill="currentColor" d="M16.538 20.135L13 18.069v-4.111l3.538-2.068l3.577 2.07v4.102zm-2.196-5.977l2.216 1.279l2.215-1.28l-2.215-1.272zm2.658 4.7l2.23-1.288v-2.724L17 16.19zm-3.115-1.281l2.23 1.306v-2.668l-2.23-1.325zM10 11.385q-1.237 0-2.119-.882T7 8.385q0-1.238.881-2.12q.881-.88 2.119-.88t2.119.88q.881.882.881 2.12q0 1.237-.881 2.118T10 11.385m-7 7.23V16.97q0-.69.348-1.194t.983-.802q1.217-.592 2.51-.975q1.292-.383 3.159-.383h.235q.092 0 .223.012q-.104.258-.165.505l-.116.483H10q-1.679 0-2.928.345q-1.249.344-2.264.89q-.456.24-.632.504Q4 16.618 4 16.97v.646h6.3q.073.237.179.51q.106.271.233.49zm7-8.23q.825 0 1.413-.588T12 8.385q0-.825-.587-1.413T10 6.385q-.825 0-1.412.587T8 8.385q0 .825.588 1.412t1.412.588m.3 7.23"/></svg>