<svg xmlns="http://www.w3.org/2000/svg" width="1em" height="1em" viewBox="0 0 24 24"><path fill="currentColor" d="M18.385 18.654v-2.73h-.77v3.045l2.035 2.035l.546-.546zM12 11.427L5.575 7.713l-.556.303v.507l6.99 4.05L19 8.523v-.511l-.575-.299zm-8 5.121v-9.1l8-4.594l8 4.598v5.242q-.483-.17-.98-.25q-.498-.079-1.02-.079q-2.645 0-4.515 1.87q-1.87 1.87-1.87 4.515q0 .484.068.95q.067.467.22.913l.193.595zm14 6.202q-1.671 0-2.836-1.164T14 18.75q0-1.671 1.164-2.836T18 14.75q1.671 0 2.836 1.164T22 18.75q0 1.671-1.164 2.836T18 22.75"/></svg>