<svg xmlns="http://www.w3.org/2000/svg" width="1em" height="1em" viewBox="0 0 24 24"><path fill="currentColor" d="m11.692 4.173l-6.117 3.54L12 11.427l6.425-3.714l-6.117-3.54q-.154-.096-.308-.096t-.308.096M4 15.61V8.39q0-.434.212-.803q.212-.37.596-.595l6.384-3.679q.212-.125.4-.17q.189-.047.407-.047q.218 0 .42.046q.202.046.389.171l6.384 3.68q.384.225.596.594q.212.369.212.803v3.456h-1V8.523l-7.025 4.05L5 8.523v7.08q0 .155.077.29q.077.134.23.23l6.308 3.667v1.127l-6.807-3.91q-.384-.225-.596-.594Q4 16.044 4 15.61m14 5.717q.2 0 .33-.13q.132-.132.132-.332t-.131-.33q-.131-.131-.331-.131t-.33.13q-.132.131-.132.331t.131.331q.131.13.331.13m-.385-1.922h.77v-3.23h-.77zM18 22.75q-1.671 0-2.836-1.164T14 18.75q0-1.671 1.164-2.836T18 14.75q1.671 0 2.836 1.164T22 18.75q0 1.671-1.164 2.836T18 22.75m-6-10.794"/></svg>