<svg xmlns="http://www.w3.org/2000/svg" width="1em" height="1em" viewBox="0 0 24 24"><path fill="currentColor" d="M12 11.427L5.575 7.713l-.383.222q-.096.057-.144.153Q5 8.185 5 8.281v.242l7 4.05l7-4.05v-.242q0-.096-.048-.193q-.048-.096-.144-.153l-.383-.222zm-.808 9.26l-6.384-3.68q-.38-.217-.594-.59Q4 16.044 4 15.61V8.39q0-.434.214-.807q.215-.373.594-.59l6.384-3.68q.38-.217.808-.217t.808.217l6.384 3.68q.38.217.594.59q.214.373.214.807v4.304q-.483-.17-.976-.25q-.493-.079-1.024-.079q-2.65 0-4.517 1.868q-1.868 1.867-1.868 4.517q0 .57.096 1.105q.095.535.285 1.037q-.213.008-.414-.04q-.201-.046-.39-.165m6.808.64q.2 0 .33-.13q.132-.132.132-.332t-.131-.33q-.131-.131-.331-.131t-.33.13q-.132.131-.132.331t.131.331q.131.13.331.13m-.385-1.922h.77v-3.23h-.77zM18 22.75q-1.671 0-2.836-1.164T14 18.75q0-1.671 1.164-2.836T18 14.75q1.671 0 2.836 1.164T22 18.75q0 1.671-1.164 2.836T18 22.75"/></svg>