<svg xmlns="http://www.w3.org/2000/svg" width="1em" height="1em" viewBox="0 0 24 24"><path fill="currentColor" d="M9 17.5h6q.213 0 .357-.143q.143-.144.143-.357t-.143-.357Q15.213 16.5 15 16.5H9q-.213 0-.357.143q-.143.144-.143.357t.143.357q.144.143.357.143m0-4h6q.213 0 .357-.143q.143-.144.143-.357t-.143-.357Q15.213 12.5 15 12.5H9q-.213 0-.357.143q-.143.144-.143.357t.143.357q.144.143.357.143M6.615 21q-.69 0-1.152-.462Q5 20.075 5 19.385V4.615q0-.69.463-1.152Q5.925 3 6.615 3h7.214q.323 0 .628.13q.305.132.522.349L18.52 7.02q.217.217.348.522q.131.305.131.628v11.214q0 .69-.462 1.152q-.463.463-1.153.463zM14 7.192V4H6.615q-.23 0-.423.192Q6 4.385 6 4.615v14.77q0 .23.192.423q.193.192.423.192h10.77q.23 0 .423-.192q.192-.193.192-.423V8h-3.192q-.348 0-.578-.23q-.23-.23-.23-.578M6 4v4zv16z"/></svg>