<svg xmlns="http://www.w3.org/2000/svg" width="1em" height="1em" viewBox="0 0 24 24"><path fill="currentColor" d="m19.479 20.9l-4.592-4.592h-5.58q-.666 0-1.14-.475q-.475-.474-.475-1.14v-5.58L3.1 4.521q-.14-.14-.15-.341q-.01-.201.146-.367q.17-.165.36-.165t.357.165l16.38 16.38q.145.145.152.344q.007.198-.158.367q-.166.156-.354.158q-.189.003-.354-.162m-5.592-5.592l-5.195-5.195v4.58q0 .269.173.442t.443.173zm2.42-1.825l-1-1V9.308q0-.27-.172-.443q-.173-.173-.443-.173h-3.175l-1-1h4.177q.665 0 1.14.474t.474 1.14zm-8-8.252q-.26 0-.438-.177q-.177-.177-.177-.439q0-.261.177-.438T8.308 4q.261 0 .438.177t.177.438q0 .262-.177.439t-.438.177m3.692 0q-.262 0-.438-.177q-.177-.177-.177-.439q0-.261.177-.438Q11.738 4 12 4t.438.177q.177.177.177.438q0 .262-.177.439q-.176.177-.438.177m3.692 0q-.261 0-.438-.177t-.177-.439q0-.261.177-.438T15.692 4q.262 0 .439.177t.177.438q0 .262-.177.439t-.439.177m3.693 0q-.262 0-.439-.177t-.177-.439q0-.261.177-.438T19.385 4q.261 0 .438.177t.177.438q0 .262-.177.439t-.438.177M4.615 8.923q-.261 0-.438-.177T4 8.308q0-.262.177-.439t.438-.177q.262 0 .439.177t.177.439q0 .261-.177.438t-.439.177m14.77 0q-.262 0-.439-.177t-.177-.438q0-.262.177-.439t.439-.177q.261 0 .438.177t.177.439q0 .261-.177.438t-.438.177m-14.77 3.692q-.261 0-.438-.177Q4 12.262 4 12t.177-.438q.177-.177.438-.177q.262 0 .439.177q.177.176.177.438t-.177.438q-.177.177-.439.177m14.77 0q-.262 0-.439-.177q-.177-.176-.177-.438t.177-.438q.177-.177.439-.177q.261 0 .438.177q.177.176.177.438t-.177.438q-.177.177-.438.177m-14.77 3.693q-.261 0-.438-.177T4 15.692q0-.261.177-.438t.438-.177q.262 0 .439.177t.177.438q0 .262-.177.439t-.439.177m14.77 0q-.262 0-.439-.177t-.177-.439q0-.261.177-.438t.439-.177q.261 0 .438.177t.177.438q0 .262-.177.439t-.438.177M4.615 20q-.261 0-.438-.177T4 19.385q0-.262.177-.439t.438-.177q.262 0 .439.177t.177.439q0 .261-.177.438T4.615 20m3.693 0q-.262 0-.439-.177t-.177-.438q0-.262.177-.439t.439-.177q.261 0 .438.177t.177.439q0 .261-.177.438T8.308 20M12 20q-.262 0-.438-.177q-.177-.177-.177-.438q0-.262.177-.439q.176-.177.438-.177t.438.177q.177.177.177.439q0 .261-.177.438Q12.262 20 12 20m3.692 0q-.261 0-.438-.177t-.177-.438q0-.262.177-.439t.438-.177q.262 0 .439.177t.177.439q0 .261-.177.438t-.439.177"/></svg>