<svg xmlns="http://www.w3.org/2000/svg" width="1em" height="1em" viewBox="0 0 24 24"><path fill="currentColor" d="m9.108 11.758l2.284-2.29l-2.054-2.06l-1.157 1.157l-.708-.707L8.625 6.7L6.673 4.748l-2.29 2.29zm7.834 7.84l2.29-2.29l-1.951-1.952l-1.158 1.152l-.708-.708l1.152-1.158l-2.04-2.034l-2.285 2.284zM17.273 5l1.733 1.733zM7.153 20H4v-3.154l4.394-4.394L3 7.038l3.673-3.673l5.439 5.42l4.467-4.473q.165-.166.348-.239t.39-.073q.208 0 .39.073t.349.239l1.632 1.696q.166.165.23.348q.063.182.063.39t-.064.378q-.063.17-.229.336l-4.428 4.453l5.375 5.414L16.962 21l-5.414-5.394zM5 19h1.727l9.82-9.813l-1.734-1.733L5 17.274zM15.692 8.313l-.879-.86l1.733 1.734z"/></svg>