<svg xmlns="http://www.w3.org/2000/svg" width="1em" height="1em" viewBox="0 0 24 24"><path fill="currentColor" d="M5.5 20.23q-.633 0-1.066-.433Q4 19.363 4 18.731v-3.443q0-.632.434-1.066q.433-.434 1.066-.434h13q.633 0 1.066.434q.434.434.434 1.066v3.443q0 .632-.434 1.066q-.433.434-1.066.434zm.115-1h12.77q.269 0 .442-.172t.173-.443v-3.211q0-.27-.173-.442t-.442-.174H5.615q-.269 0-.442.174T5 15.404v3.211q0 .27.173.443t.442.173m1.045-6.943l-2.181-1.261q-.187-.106-.255-.273q-.068-.167-.018-.354q.05-.187.158-.31q.11-.125.326-.175l3.445-.592L7.2 5.915q-.056-.217.01-.381q.065-.165.207-.27t.33-.116q.186-.01.372.121l2.885 2.05l1.738-3.065q.106-.187.283-.267t.363-.031q.187.05.311.158q.124.11.174.326l.592 3.483l3.408-.954q.217-.056.382.02q.164.074.27.217q.106.142.115.329q.01.186-.12.373l-2.032 2.884l2.647 1.496h-2.05l-2.073-1.173l2.05-2.873l-3.408.937l-.585-3.477l-1.742 3.075l-2.873-2.05l.936 3.408l-3.419.584l2.616 1.57zM12 17"/></svg>