<svg xmlns="http://www.w3.org/2000/svg" width="1em" height="1em" viewBox="0 0 24 24"><path fill="currentColor" d="m10.95 18.637l3.871-3.89q.146-.166.347-.17q.201-.002.367.163q.165.166.165.357t-.165.357l-4.02 4.02q-.242.241-.565.241q-.323 0-.565-.242l-1.92-1.92q-.146-.145-.152-.353q-.007-.208.158-.354q.146-.14.354-.134q.208.007.354.153zM7.523 7.769l.492 1.366q.077.192.231.298q.154.105.346.105h6.816q.192 0 .346-.105q.154-.106.23-.298l.493-1.366zm1.07 2.77q-.516 0-.935-.292q-.42-.291-.6-.782L6.462 7.77h-.847q-.67 0-1.143-.472Q4 6.825 4 6.154V4h16v2.154q0 .671-.472 1.143t-1.143.472h-.847l-.669 1.72q-.186.46-.59.754q-.404.295-.914.295z"/></svg>