<svg xmlns="http://www.w3.org/2000/svg" width="1em" height="1em" viewBox="0 0 24 24"><path fill="currentColor" d="M12 20q-1.93 0-3.703-.68q-1.772-.682-3.226-1.968l.714-.714q1.294 1.16 2.896 1.761q1.602.601 3.344.601q1.723 0 3.322-.588q1.6-.589 2.893-1.73l.708.69q-1.46 1.286-3.238 1.957Q13.93 20 12 20m0-3.77q-1.17 0-2.252-.409q-1.083-.41-1.967-1.16l.707-.707q.745.629 1.657.953q.913.324 1.874.324q.962 0 1.865-.324t1.647-.953l.707.708q-.903.769-1.976 1.169q-1.074.4-2.262.4M7.523 7.769l.646 1.77h7.662l.646-1.77zm-.092 2.77l-.97-2.77H4V4h16v3.77h-2.462l-1.073 2.768z"/></svg>