<svg xmlns="http://www.w3.org/2000/svg" width="1em" height="1em" viewBox="0 0 24 24"><path fill="currentColor" d="M3 6.5V4.615q0-.69.463-1.152Q3.925 3 4.615 3H6.5q.213 0 .357.143Q7 3.287 7 3.5t-.143.357T6.5 4H4.615q-.23 0-.423.192Q4 4.385 4 4.615V6.5q0 .213-.143.357T3.5 7q-.213 0-.357-.143Q3 6.713 3 6.5M4.615 21q-.69 0-1.152-.462Q3 20.075 3 19.385V17.5q0-.213.143-.357Q3.287 17 3.5 17t.357.143T4 17.5v1.885q0 .23.192.423q.193.192.423.192H6.5q.213 0 .357.143T7 20.5q0 .213-.143.357Q6.713 21 6.5 21zm14.77 0H17.5q-.213 0-.357-.143Q17 20.713 17 20.5t.143-.357T17.5 20h1.885q.23 0 .423-.192q.192-.193.192-.423V17.5q0-.213.143-.357T20.5 17q.213 0 .357.143q.143.144.143.357v1.885q0 .69-.462 1.152q-.463.463-1.153.463M20 6.5V4.615q0-.23-.192-.423Q19.615 4 19.385 4H17.5q-.213 0-.357-.143T17 3.5q0-.213.143-.357Q17.287 3 17.5 3h1.885q.69 0 1.152.463q.463.462.463 1.152V6.5q0 .213-.143.357Q20.713 7 20.5 7t-.357-.143T20 6.5m-6.5 2.692q-.71 0-1.201-.491q-.491-.491-.491-1.201t.491-1.201q.491-.491 1.201-.491t1.201.491q.491.491.491 1.201t-.491 1.201q-.491.491-1.201.491m-1.085 8.193h-3l1.039-5.331l-2.954 1.22V16q0 .213-.143.357q-.144.143-.357.143t-.357-.143Q6.5 16.213 6.5 16v-2.858q0-.242.143-.441q.144-.2.36-.305l3.485-1.45q.645-.26.951-.353q.307-.093.561-.093q.39 0 .725.208q.335.207.552.561l1 1.6q.563.908 1.526 1.61q.962.702 2.178.921q.213.056.366.202q.153.146.153.36q0 .213-.153.344q-.153.13-.36.1q-1.274-.2-2.535-.972q-1.262-.772-2.202-2.3z"/></svg>