<svg xmlns="http://www.w3.org/2000/svg" width="1em" height="1em" viewBox="0 0 24 24"><path fill="currentColor" d="M12 20q-1.93 0-3.703-.68q-1.772-.682-3.226-1.968l.714-.714q1.294 1.16 2.896 1.761q1.602.601 3.344.601q1.723 0 3.322-.588q1.6-.589 2.893-1.73l.708.69q-1.46 1.286-3.238 1.957Q13.93 20 12 20m0-3.77q-1.17 0-2.252-.409q-1.083-.41-1.967-1.16l.707-.707q.745.629 1.657.953q.913.324 1.874.324q.962 0 1.865-.324t1.647-.953l.707.708q-.903.769-1.976 1.169q-1.074.4-2.262.4M5 5v1.154q0 .27.173.442t.442.173h12.77q.269 0 .442-.173T19 6.154V5zm2.523 2.77l.492 1.365q.077.192.231.298q.154.105.346.105h6.816q.192 0 .346-.105q.154-.106.23-.298l.493-1.366zm1.07 2.768q-.516 0-.935-.29q-.42-.292-.6-.783L6.462 7.77h-.847q-.67 0-1.143-.472Q4 6.825 4 6.154V4h16v2.154q0 .671-.472 1.143t-1.143.472h-.847l-.669 1.72q-.186.46-.59.754q-.404.295-.914.295zM5 5v1.77z"/></svg>