<svg xmlns="http://www.w3.org/2000/svg" width="1em" height="1em" viewBox="0 0 24 24"><path fill="currentColor" d="M8.592 10.308q-.517 0-.935-.292t-.6-.781l-.595-1.697h-.847q-.666 0-1.14-.474Q4 6.589 4 5.924V3.768h16v2.154q0 .666-.475 1.14q-.474.475-1.14.475h-.847l-.669 1.72q-.183.464-.59.757q-.406.293-.914.293zm-1.069-2.77l.492 1.366q.077.192.231.298q.154.106.346.106h6.816q.192 0 .346-.106q.154-.106.23-.298l.493-1.366zM8.56 14.02q-.416 0-.71-.29q-.292-.292-.292-.707q0-.416.29-.71q.292-.293.707-.293q.416 0 .71.291q.293.291.293.707t-.291.709q-.291.293-.707.293m3.461 3q-.415 0-.709-.29q-.293-.292-.293-.707q0-.416.291-.71q.291-.293.707-.293t.709.291q.293.291.293.707t-.29.709q-.292.293-.707.293m-3.462 3q-.416 0-.709-.29q-.293-.292-.293-.707q0-.416.29-.71q.292-.293.707-.293q.416 0 .71.291q.293.291.293.707t-.291.709q-.291.293-.707.293m6.904-6q-.416 0-.71-.29q-.292-.292-.292-.707q0-.416.29-.71q.292-.293.707-.293q.416 0 .71.291q.293.291.293.707t-.291.709q-.291.293-.707.293m.038 6q-.415 0-.709-.29q-.293-.292-.293-.707q0-.416.291-.71q.291-.293.707-.293q.415 0 .709.291q.293.291.293.707t-.291.709q-.291.293-.707.293m3.404-3q-.416 0-.709-.29q-.293-.292-.293-.708q0-.415.29-.709q.292-.293.708-.293q.415 0 .709.291q.293.291.293.707t-.291.709q-.291.293-.707.293m-13.788 0q-.416 0-.71-.29q-.293-.292-.293-.708q0-.415.291-.709q.291-.293.707-.293t.71.291q.292.291.292.707t-.29.709q-.292.293-.707.293"/></svg>