<svg xmlns="http://www.w3.org/2000/svg" width="1em" height="1em" viewBox="0 0 24 24"><path fill="currentColor" d="M11.5 20v-4h1v4zm7.575-2.948l-2.838-2.814l.713-.713l2.813 2.838zm-14.15 0l-.688-.689l2.813-2.838l.713.713zm2.598-9.283l.492 1.366q.077.192.231.298q.154.105.346.105h6.816q.192 0 .346-.105q.154-.106.23-.298l.493-1.366zm1.07 2.77q-.516 0-.935-.292q-.42-.291-.6-.782L6.462 7.77h-.847q-.67 0-1.143-.472Q4 6.825 4 6.154V4h16v2.154q0 .671-.472 1.143t-1.143.472h-.847l-.669 1.72q-.186.46-.59.754q-.404.295-.914.295z"/></svg>