<svg xmlns="http://www.w3.org/2000/svg" width="1em" height="1em" viewBox="0 0 24 24"><path fill="currentColor" d="M10.95 20.038L8.112 17.2l.713-.688l2.125 2.125l4.225-4.25l.713.713zM5 5v1.154q0 .27.173.442t.442.173h12.77q.269 0 .442-.173T19 6.154V5zm2.523 2.77l.492 1.365q.077.192.231.298q.154.105.346.105h6.816q.192 0 .346-.105q.154-.106.23-.298l.493-1.366zm1.07 2.768q-.516 0-.935-.29q-.42-.292-.6-.783L6.462 7.77h-.847q-.67 0-1.143-.472Q4 6.825 4 6.154V4h16v2.154q0 .671-.472 1.143t-1.143.472h-.847l-.669 1.72q-.186.46-.59.754q-.404.295-.914.295zM5 5v1.77z"/></svg>