<svg xmlns="http://www.w3.org/2000/svg" width="1em" height="1em" viewBox="0 0 24 24"><path fill="currentColor" d="m19.037 15.885l-3.575-3.581V12q0-.343-.233-.575q-.232-.233-.575-.233h-.304l-1.39-1.384h1.694q.343 0 .575-.233q.233-.232.233-.575v-.423q0-.343-.233-.576q-.232-.232-.575-.232H13.23q-.343 0-.576.232q-.232.233-.232.576v.713L7.133 4h10.482q.69 0 1.153.463t.463 1.152V7.77h1.038q.213 0 .357.144q.143.144.143.357t-.143.356q-.144.143-.357.143h-1.038v2.558h1.038q.213 0 .357.144q.143.144.143.357q0 .212-.143.356q-.144.143-.357.143h-1.038v2.558h1.038q.213 0 .357.144q.143.144.143.356q0 .213-.143.356q-.144.144-.357.144zm-11.23.346h2.495q.354 0 .584-.232q.23-.233.23-.576V14q0-.343-.233-.575q-.232-.233-.575-.233H7.813q-.353 0-.583.233Q7 13.657 7 14v1.423q0 .343.232.576q.232.232.576.232M4.335 4.06l14.877 14.877q-.177.5-.629.781q-.452.282-.968.282H4.846q-.69 0-1.153-.462q-.462-.463-.462-1.153V5.615q0-.528.299-.958q.299-.43.805-.597m8.088 8.088v3.27q0 .346.232.58q.233.233.576.233h1.423q.343 0 .575-.232q.233-.233.233-.576v-.236zM8.044 7.77h-.236q-.344 0-.576.233Q7 8.234 7 8.578v2.426q0 .344.232.574q.232.23.576.23h2.494q.354 0 .584-.233q.23-.232.23-.575v-.16zM20.89 22.037L2.375 3.527q-.146-.146-.156-.347q-.01-.201.156-.367q.165-.165.357-.165t.356.165L21.604 21.33q.146.146.156.344q.01.198-.156.364q-.166.165-.357.165q-.191 0-.357-.165"/></svg>