<svg xmlns="http://www.w3.org/2000/svg" width="1em" height="1em" viewBox="0 0 24 24"><path fill="currentColor" d="m19.037 15.885l-3.575-3.581v-1.112H14.35l-1.39-1.384h2.502V7.769h-3.039V9.29l-1.058-1.057v-.464h-.457L7.133 4h10.482q.69 0 1.153.463t.463 1.152V7.77h1.538v1h-1.538v2.558h1.538v1h-1.538v2.558h1.538v1zM7 16.23h4.115v-3.039H7zM4.335 4.06l14.877 14.877q-.177.5-.625.781q-.449.282-.972.282H4.846q-.69 0-1.153-.462q-.462-.463-.462-1.153V5.615q0-.528.299-.958q.299-.43.805-.597m8.088 8.088v4.083h3.039v-1.044zM8.044 7.77H7v4.039h4.115v-.968zm13.2 14.627L2.021 3.173l.714-.713l19.223 19.223z"/></svg>