<svg xmlns="http://www.w3.org/2000/svg" width="1em" height="1em" viewBox="0 0 24 24"><path fill="currentColor" d="M4.423 5.5h8v-.885q0-.23-.192-.423Q12.038 4 11.808 4h-6.77q-.23 0-.423.192q-.192.193-.192.423zM5.038 21q-.69 0-1.152-.462q-.463-.463-.463-1.153V4.615q0-.69.463-1.152Q4.348 3 5.038 3h6.77q.69 0 1.153.463q.462.462.462 1.152v3.697q-.286.165-.527.34q-.24.177-.473.383V6.5h-8v11h6.252q.123.28.27.521q.147.24.324.479H4.423v.885q0 .23.192.423q.193.192.423.192h7.654v-.092q.087.098.185.179q.098.08.213.144q-.217.354-.568.561q-.35.208-.81.208zm11.885-3q1.508 0 2.562-1.054t1.053-2.561q0-1.508-1.053-2.562t-2.562-1.054q-1.508 0-2.561 1.054q-1.054 1.054-1.054 2.562q0 1.507 1.054 2.561Q15.415 18 16.923 18m-1.192 3q-.348 0-.578-.23q-.23-.23-.23-.578v-1.638q-1.177-.56-1.896-1.667q-.72-1.108-.72-2.502q0-1.395.72-2.502q.72-1.108 1.896-1.668V8.577q0-.348.23-.578q.23-.23.578-.23h2.384q.348 0 .578.23q.23.23.23.578v1.638q1.177.56 1.896 1.668q.72 1.107.72 2.502q0 1.394-.72 2.502q-.719 1.107-1.896 1.667v1.638q0 .348-.23.578q-.23.23-.578.23zM4.423 18.5V20zm0-13V4z"/></svg>