<svg xmlns="http://www.w3.org/2000/svg" width="1em" height="1em" viewBox="0 0 24 24"><path fill="currentColor" d="M6.73 19H4.616q-.666 0-1.14-.475Q3 18.051 3 17.385V6.615q0-.666.475-1.14Q3.949 5 4.615 5H19v1H4.615q-.269 0-.442.173T4 6.615v10.77q0 .269.173.442t.442.173h2.116zm4.155-1.885q.625 0 1.062-.437t.438-1.063q0-.625-.438-1.062t-1.062-.438q-.625 0-1.063.438t-.437 1.062q0 .625.437 1.063t1.063.437M9.5 19v-1.448q-.456-.329-.728-.837q-.272-.507-.272-1.1q0-.592.272-1.1q.272-.507.728-.836V12.23h2.77v1.448q.455.329.727.836q.272.508.272 1.1q0 .593-.272 1.1q-.272.508-.728.837V19zm10.692 0h-4.346q-.343 0-.575-.232q-.233-.232-.233-.576V9.808q0-.344.233-.576q.232-.232.575-.232h4.346q.344 0 .576.232q.232.232.232.576v8.384q0 .344-.232.576q-.232.232-.576.232"/></svg>