<svg xmlns="http://www.w3.org/2000/svg" width="1em" height="1em" viewBox="0 0 24 24"><path fill="currentColor" d="M9 17.73h6q.213 0 .357-.142q.143-.144.143-.357q0-.214-.143-.357q-.144-.143-.357-.143H9q-.213 0-.357.143q-.143.143-.143.357q0 .213.143.356q.144.144.357.144m0-2.616h6q.213 0 .357-.143q.143-.143.143-.357q0-.213-.143-.356q-.144-.144-.357-.144H9q-.213 0-.357.144q-.143.143-.143.356q0 .214.143.357q.144.143.357.143m3-7.738q-.396-.49-.759-.8T10.2 6.27q-.708 0-1.204.496T8.5 7.97q0 1.23 1.071 2.167q1.071.937 1.889 1.68q.217.217.54.217q.323 0 .54-.218l1.889-1.67Q15.5 9.198 15.5 7.97q0-.707-.496-1.204q-.496-.496-1.204-.496q-.679 0-1.041.309q-.363.309-.759.799M17.385 21H6.615q-.69 0-1.152-.462Q5 20.075 5 19.385V4.615q0-.69.463-1.152Q5.925 3 6.615 3h10.77q.69 0 1.152.463q.463.462.463 1.152v14.77q0 .69-.462 1.152q-.463.463-1.153.463"/></svg>