<svg xmlns="http://www.w3.org/2000/svg" width="1em" height="1em" viewBox="0 0 24 24"><path fill="currentColor" d="M18.93 20q-2.528 0-5.184-1.266q-2.656-1.267-4.934-3.555q-2.28-2.289-3.546-4.935Q4 7.598 4 5.07q0-.458.3-.763Q4.6 4 5.05 4h2.473q.408 0 .712.257t.411.658L9.142 7.3q.07.42-.025.733q-.094.313-.332.513L6.59 10.592q.616 1.118 1.361 2.076q.745.959 1.59 1.817q.87.87 1.874 1.62q1.004.749 2.204 1.414l2.139-2.177q.244-.263.549-.347q.305-.083.674-.033l2.104.43q.407.1.661.41q.254.311.254.713v2.435q0 .45-.306.75q-.305.3-.763.3M12.808 8.038q-.154 0-.27-.115q-.115-.115-.115-.27t.115-.268q.116-.116.27-.116h1.423v-.884h-1.423q-.154 0-.27-.116q-.115-.115-.115-.269V4.385q0-.162.115-.273q.116-.112.27-.112h1.807q.154 0 .27.115q.115.116.115.27q0 .153-.115.269q-.116.115-.27.115h-1.423v.846h1.423q.154 0 .27.116Q15 5.846 15 6v1.65q0 .165-.115.277q-.116.111-.27.111zm3.384 0q-.154 0-.269-.115q-.115-.115-.115-.27V4.387q0-.163.115-.274q.115-.112.27-.112q.153 0 .269.115q.115.116.115.27v3.267q0 .163-.115.275q-.116.111-.27.111m1.577 0q-.154 0-.269-.115q-.115-.115-.115-.27V4.387q0-.163.115-.274q.115-.112.27-.112h1.845q.154 0 .27.115q.115.116.115.27V6q0 .162-.115.273q-.116.112-.27.112h-1.461v1.262q0 .168-.116.28q-.115.111-.269.111m.385-2.423h1.077V4.77h-1.077z"/></svg>