<svg xmlns="http://www.w3.org/2000/svg" width="1em" height="1em" viewBox="0 0 24 24"><path fill="currentColor" d="M19.2 20q-2.702 0-5.418-1.244t-4.995-3.533q-2.28-2.288-3.533-5.021Q4 7.469 4 4.8V4h4.438l.849 4.083l-2.697 2.51q.685 1.186 1.418 2.167q.732.98 1.527 1.769q.802.84 1.808 1.57q1.007.73 2.295 1.44l2.612-2.708l3.75.756V20zM6.121 9.654l2.092-1.92L7.635 5h-2.63q.03 1.144.308 2.305q.28 1.16.808 2.349m8.45 8.334q.923.464 2.09.724q1.166.26 2.339.276v-2.603l-2.388-.475zm-2.148-9.95V7.27h1.808v-.884h-1.808V4H15v.77h-1.808v.845H15v2.423zm3.385 0V4h.769v4.038zm1.577 0V4H20v2.385h-1.846v1.653zm.769-2.423h1.077V4.77h-1.077z"/></svg>