<svg xmlns="http://www.w3.org/2000/svg" width="1em" height="1em" viewBox="0 0 24 24"><path fill="currentColor" d="M12 19.298q-.348 0-.671-.14t-.566-.431L3.267 9.73q-.186-.218-.28-.475t-.093-.55q0-.187.047-.367t.134-.36l1.779-3.59q.217-.404.603-.647q.385-.242.845-.242h11.396q.46 0 .845.242q.386.243.603.646l1.779 3.59q.087.182.134.361q.047.18.047.367q0 .292-.094.55t-.28.475l-7.495 8.996q-.243.292-.566.432q-.323.14-.671.14M8.817 8.5h6.366l-2-4h-2.366zm2.683 9.56V9.5H4.392zm1 0l7.108-8.56H12.5zm3.792-9.56h3.766L18.23 4.846q-.077-.154-.231-.25t-.327-.096h-3.38zm-12.35 0h3.766l2-4H6.327q-.173 0-.327.096t-.23.25z"/></svg>