<svg xmlns="http://www.w3.org/2000/svg" width="1em" height="1em" viewBox="0 0 24 24"><path fill="currentColor" d="M13 8.5V10q0 .213.144.356q.144.144.357.144t.356-.144Q14 10.213 14 10V8.5h1.5q.213 0 .356-.144q.144-.144.144-.357t-.144-.356Q15.713 7.5 15.5 7.5H14V6q0-.213-.144-.356q-.144-.144-.357-.144t-.356.144Q13 5.788 13 6v1.5h-1.5q-.213 0-.356.144Q11 7.788 11 8t.144.356q.144.143.356.143zm-1.5 6h4q.213 0 .356-.144Q16 14.212 16 14t-.144-.356q-.143-.143-.356-.143h-4q-.213 0-.356.144Q11 13.788 11 14t.144.356q.144.143.356.143M8.615 18q-.69 0-1.152-.462Q7 17.075 7 16.385V3.615q0-.69.463-1.152Q7.925 2 8.615 2h6.214q.331 0 .632.13q.3.132.518.349L19.52 6.02q.217.217.348.518q.131.3.131.632v9.214q0 .69-.462 1.152q-.463.463-1.153.463zm-4 4q-.69 0-1.152-.462Q3 21.075 3 20.385V8.5q0-.213.144-.356Q3.288 8 3.5 8t.356.144Q4 8.287 4 8.5v11.885q0 .23.192.423q.193.192.423.192H13.5q.213 0 .356.144T14 21.5q0 .212-.144.356T13.5 22z"/></svg>