<svg xmlns="http://www.w3.org/2000/svg" width="1em" height="1em" viewBox="0 0 24 24"><path fill="currentColor" d="M1.5 20.5V22q0 .213-.144.356t-.357.144q-.212 0-.356-.144Q.5 22.213.5 22V3.115q0-.666.475-1.14q.474-.475 1.14-.475h6.77q.666 0 1.14.475q.475.474.475 1.14V22q0 .213-.144.356q-.144.144-.357.144t-.356-.144Q9.5 22.213 9.5 22v-1.5zm17.983-5.496l-2.868 2.742V22q0 .213-.144.356t-.356.144q-.213 0-.356-.144T15.615 22v-5.292l2.15-2.089l-.87-4.042q-.858 1.373-1.882 2.016q-1.023.644-2.217.813q-.208.03-.348-.105q-.14-.135-.14-.344t.147-.365q.147-.155.36-.192q1.123-.2 1.839-.7q.715-.498 1.29-1.448l.923-1.494q.356-.587.946-.706q.59-.12 1.222.156l3.961 1.642q.217.106.36.302q.144.196.144.444V13.5q0 .213-.144.356Q23.212 14 23 14t-.356-.144q-.143-.143-.143-.356v-2.767l-2.867-1.196l2.604 12.378q.061.225-.097.405q-.157.18-.41.18q-.176 0-.307-.1t-.186-.277zM4.712 12.46l1.942-1.112q.211-.121.211-.343q0-.222-.211-.353L4.712 9.54q-.212-.13-.404-.005q-.193.124-.193.353v2.224q0 .229.193.353q.192.125.404-.005M17 6.692q-.71 0-1.201-.491q-.491-.491-.491-1.201t.491-1.201q.491-.491 1.201-.491t1.201.491q.491.491.491 1.201t-.491 1.201q-.491.491-1.201.491"/></svg>