<svg xmlns="http://www.w3.org/2000/svg" width="1em" height="1em" viewBox="0 0 24 24"><path fill="currentColor" d="M4.538 20.462L3 18.923h18l-1.538 1.539zM4 17.73q.17-.373.429-.687q.26-.313.571-.606v-7.9H4v-.884h1v-.942H4v-.885h1v-.942H4V4h7.808v1.827H20v.885h-8.192v1.826H8.385v6.831q.58.07 1.142.285q.561.215 1.015.588q.266-1.51 1.46-2.462q1.194-.953 2.746-.953q1.764 0 3.008 1.22Q19 15.265 19 17.03v.7zm7.504-1h6.415q-.098-1.246-1.01-2.075q-.91-.83-2.18-.83q-1.28 0-2.204.824q-.923.823-1.021 2.08M8.384 5.828h2.424v-.942H8.385zm0 1.827h2.424v-.942H8.385zm-2.5-1.827H7.5v-.942H5.885zm0 1.827H7.5v-.942H5.885zm0 8.177q.385-.202.786-.313q.401-.11.83-.167V8.538H5.885zm8.828.9"/></svg>