<svg xmlns="http://www.w3.org/2000/svg" width="1em" height="1em" viewBox="0 0 24 24"><path fill="currentColor" d="M5.029 20.462q-.241 0-.472-.099q-.231-.098-.392-.255l-.488-.489q-.192-.192-.095-.444t.368-.252h16.062q.271 0 .368.252t-.095.444l-.489.489q-.16.157-.391.255q-.231.099-.472.099zM4 17.73q.17-.373.429-.687q.26-.313.571-.606v-7.9h-.558q-.191 0-.317-.125Q4 8.288 4 8.097t.125-.317q.126-.126.317-.126H5v-.942h-.558q-.191 0-.317-.126Q4 6.461 4 6.27t.125-.317q.126-.126.317-.126H5v-.942h-.558q-.191 0-.317-.125Q4 4.634 4 4.443t.125-.317Q4.251 4 4.442 4h5.75q.667 0 1.141.475q.475.474.475 1.14v.212h7.75q.191 0 .317.125q.125.125.125.316q0 .192-.125.318q-.126.126-.317.126h-7.75v.205q0 .677-.475 1.15t-1.14.471H8.384v6.831q.58.07 1.142.285q.561.215 1.015.588q.266-1.529 1.46-2.52q1.194-.991 2.746-.991q1.79 0 3.021 1.258Q19 15.247 19 17.03v.7zM8.385 5.827h2.423V5.5q0-.27-.173-.442t-.443-.173H8.385zm0 1.827h1.807q.27 0 .443-.173t.173-.443v-.326H8.385zm-2.5-1.827H7.5v-.942H5.885zm0 1.827H7.5v-.942H5.885zm0 8.177q.384-.202.785-.313q.401-.11.83-.167V8.538H5.885z"/></svg>