<svg xmlns="http://www.w3.org/2000/svg" width="1em" height="1em" viewBox="0 0 24 24"><path fill="currentColor" d="m4.52 20.462l-1.54-1.539h18l-1.538 1.539zM4 17.73q.17-.373.429-.696q.26-.323.571-.597v-7.9H4v-.884h1v-.942H4v-.885h1v-.942H4V4h6.192q.667 0 1.141.475q.475.474.475 1.14v.212H20v.885h-8.192v.205q0 .677-.475 1.15t-1.14.471H8.384v6.831q.58.089 1.132.294q.552.206 1.025.58q.246-1.51 1.44-2.463q1.195-.953 2.747-.953q1.771 0 3.021 1.22Q19 15.265 19 17.03v.7zm7.504-1h6.415q-.098-1.246-1.01-2.075q-.91-.83-2.18-.83q-1.28 0-2.204.824q-.923.823-1.021 2.08M8.384 5.828h2.424V5.5q0-.27-.173-.442t-.443-.173H8.385zm0 1.827h1.808q.27 0 .443-.173t.173-.443v-.326H8.385zm-2.5-1.827H7.5v-.942H5.885zm0 1.827H7.5v-.942H5.885zm0 8.177q.385-.202.786-.313q.401-.11.83-.167V8.538H5.885zm8.828.9"/></svg>