<svg xmlns="http://www.w3.org/2000/svg" width="1em" height="1em" viewBox="0 0 24 24"><path fill="currentColor" d="M3.5 12q0-3.615 2.663-6.058Q8.827 3.5 12.5 3.5v-.692q0-.243.217-.354q.218-.112.43.03l2.163 1.62q.323.242.323.646t-.323.646l-2.164 1.62q-.211.142-.429.03q-.217-.111-.217-.354V6Q9.86 6 7.93 7.718Q6 9.437 6 12q0 .883.247 1.713q.247.83.73 1.556q.217.323.167.69q-.05.366-.348.583l-.408.298q-.373.293-.817.227q-.444-.065-.711-.444q-.668-1.017-1.014-2.2T3.5 12m8 8.5v.692q0 .243-.217.354q-.218.112-.43-.03l-2.163-1.62q-.323-.242-.323-.646t.323-.646l2.164-1.62q.211-.142.429-.03q.217.111.217.354V18q2.64 0 4.57-1.718Q18 14.563 18 12q0-.883-.247-1.722q-.247-.84-.73-1.566q-.217-.324-.167-.69q.05-.366.348-.584l.408-.298q.373-.292.817-.224t.711.442q.662 1.036 1.011 2.21Q20.5 10.74 20.5 12q0 3.615-2.663 6.058Q15.173 20.5 11.5 20.5"/></svg>