<svg xmlns="http://www.w3.org/2000/svg" width="1em" height="1em" viewBox="0 0 24 24"><path fill="currentColor" d="M12 20.73q-.298 0-.593-.12q-.295-.122-.538-.364l-7.115-7.115q-.242-.243-.364-.538T3.27 12q0-.298.12-.593q.122-.295.364-.538l7.115-7.115q.243-.242.538-.364T12 3.27q.298 0 .593.12q.295.122.538.364l7.115 7.115q.242.243.364.538t.12.593q0 .298-.12.593q-.122.295-.364.538l-7.115 7.115q-.243.242-.538.364t-.593.12M8 16l3.577 3.577q.173.173.423.173t.423-.173l7.154-7.154q.173-.173.173-.423t-.173-.423l-7.154-7.154Q12.25 4.25 12 4.25t-.423.173l-7.154 7.154q-.173.173-.173.423t.173.423zm4 .308L16.308 12L12 7.692l-.708.708l3.089 3.1H7.692v1h6.689l-3.089 3.1zM12 12"/></svg>