<svg xmlns="http://www.w3.org/2000/svg" width="1em" height="1em" viewBox="0 0 24 24"><path fill="currentColor" d="M12.004 20.73q-.302 0-.597-.12q-.294-.122-.538-.364l-7.115-7.115q-.242-.242-.364-.534q-.12-.291-.12-.593t.12-.597q.122-.294.364-.538l7.115-7.115q.242-.242.534-.364q.291-.12.593-.12t.597.12q.294.122.538.364l7.115 7.115q.242.242.364.534q.12.291.12.593t-.12.597q-.122.294-.364.538l-7.115 7.115q-.242.242-.534.364q-.291.12-.593.12m2.377-8.23l-2.74 2.746q-.141.14-.15.341q-.01.201.16.371q.155.155.349.155t.354-.16l3.388-3.388q.243-.242.243-.565q0-.323-.243-.565l-3.388-3.389q-.14-.14-.341-.153t-.371.157q-.155.156-.158.347q-.003.191.156.357l2.74 2.746H8.193q-.212 0-.356.144T7.692 12t.144.356q.144.143.356.143z"/></svg>