<svg xmlns="http://www.w3.org/2000/svg" width="1em" height="1em" viewBox="0 0 24 24"><path fill="currentColor" d="M6.538 20v-2.396q-.488-.212-1.013-.901Q5 16.013 5 15.115V6q0-1.556 1.684-2.278T12 3q3.763 0 5.382.694T19 6v9.115q0 .898-.525 1.588q-.525.69-1.013.9V20H16.23v-2H7.769v2zm5.474-14.462h5.907H6.104zM16 12H6h12zM6 11h12V6.538H6zm2.505 4.615q.466 0 .788-.326q.322-.327.322-.794t-.326-.788q-.327-.322-.794-.322t-.788.326q-.322.327-.322.794t.326.788q.327.322.794.322m7 0q.466 0 .788-.326q.322-.327.322-.794t-.326-.788q-.327-.322-.794-.322t-.788.326q-.322.327-.322.794t.326.788q.327.322.794.322M6.104 5.538h11.815q-.26-.77-1.603-1.154Q14.973 4 12.012 4q-2.945 0-4.288.39q-1.343.389-1.62 1.148M8 17h8q.825 0 1.413-.587T18 15v-3H6v3q0 .825.588 1.413T8 17"/></svg>