<svg xmlns="http://www.w3.org/2000/svg" width="1em" height="1em" viewBox="0 0 24 24"><path fill="currentColor" d="M11.692 21q-1.867 0-3.51-.708q-1.642-.709-2.857-1.924Q4.11 17.154 3.4 15.512q-.709-1.642-.709-3.509q0-1.866.71-3.51t1.923-2.859Q6.54 4.418 8.182 3.709Q9.825 3 11.692 3q2.732 0 4.985 1.493q2.254 1.494 3.32 4.007h-1.805v9.654q-1.286 1.334-2.965 2.09q-1.679.756-3.535.756m0-5.5q1.471 0 2.486-1.014Q15.192 13.47 15.192 12q0-1.471-1.014-2.486Q13.163 8.5 11.692 8.5q-1.47 0-2.485 1.014Q8.192 10.53 8.192 12q0 1.471 1.015 2.486Q10.22 15.5 11.692 15.5m0-2.5q-.425 0-.712-.288T10.692 12q0-.425.288-.712t.712-.288q.425 0 .713.288t.287.712q0 .425-.287.713t-.713.287m9 7.654q-.261 0-.438-.177t-.177-.439q0-.261.177-.438t.438-.177q.262 0 .439.177t.177.438q0 .262-.177.439t-.439.177m-.5-2.654v-7.5h1V18z"/></svg>