<svg xmlns="http://www.w3.org/2000/svg" width="1em" height="1em" viewBox="0 0 24 24"><path fill="currentColor" d="M8 6.77q.31 0 .54-.23q.23-.23.23-.54q0-.31-.23-.54q-.23-.23-.54-.23q-.31 0-.54.23q-.23.23-.23.54q0 .31.23.54q.23.23.54.23m3 0q.31 0 .54-.23q.23-.23.23-.54q0-.31-.23-.54q-.23-.23-.54-.23q-.31 0-.54.23q-.23.23-.23.54q0 .31.23.54q.23.23.54.23m.999 10.73q1.364 0 2.333-.93q.968-.93.968-2.272q0-.627-.212-1.218q-.211-.592-.647-1.027L12 9.612L9.651 11.96q-.478.478-.727 1.084q-.249.605-.224 1.254q.05 1.34 1.003 2.271q.953.931 2.296.931m-.001-.92q-.96 0-1.629-.659q-.669-.66-.669-1.621q0-.45.147-.856q.147-.406.48-.738L12 11.033l1.744 1.744q.294.294.425.702t.131.821q0 .962-.671 1.621q-.672.66-1.631.66M5 21V3h14v18z"/></svg>