<svg xmlns="http://www.w3.org/2000/svg" width="1em" height="1em" viewBox="0 0 24 24"><path fill="currentColor" d="M18.81 19h-4.368q-.213 0-.356-.143t-.144-.357q0-.213.144-.357q.143-.143.356-.143h4.387l-1.746-1.746q-.16-.16-.16-.36q0-.202.165-.348q.14-.14.345-.14t.363.16l2.37 2.369q.236.236.236.565t-.237.565l-2.369 2.37q-.16.16-.354.16q-.194 0-.354-.16q-.165-.166-.165-.357t.165-.357zM5.615 20q-.69 0-1.152-.462Q4 19.075 4 18.385V15.5q0-.213.143-.357Q4.287 15 4.5 15t.357.143T5 15.5v2.885q0 .23.192.423q.193.192.423.192H8.5q.213 0 .357.143T9 19.5q0 .213-.143.357Q8.713 20 8.5 20zM4 8.5V5.615q0-.69.463-1.152Q4.925 4 5.615 4H8.5q.213 0 .357.143Q9 4.287 9 4.5t-.143.357T8.5 5H5.615q-.23 0-.423.192Q5 5.385 5 5.615V8.5q0 .213-.143.357T4.5 9q-.213 0-.357-.143Q4 8.713 4 8.5m15 0V5.615q0-.23-.192-.423Q18.615 5 18.385 5H15.5q-.213 0-.357-.143T15 4.5q0-.213.143-.357Q15.287 4 15.5 4h2.885q.69 0 1.152.463q.463.462.463 1.152V8.5q0 .213-.143.357Q19.713 9 19.5 9t-.357-.143T19 8.5"/></svg>