<svg xmlns="http://www.w3.org/2000/svg" width="1em" height="1em" viewBox="0 0 24 24"><path fill="currentColor" d="M8 13.135v.615q0 .192.125.317t.316.125q.192 0 .318-.125t.126-.317v-2.115q0-.192-.125-.317t-.317-.126q-.191 0-.317.126q-.126.125-.126.317v.615H6.942q-.191 0-.317.125q-.125.125-.125.316q0 .192.125.318q.126.126.317.126zm2.327 0h6.73q.192 0 .318-.125t.125-.317q0-.191-.125-.317q-.126-.126-.317-.126h-6.731q-.192 0-.317.125t-.125.316q0 .192.125.318t.317.126M16 9.75h1.058q.191 0 .317-.125q.125-.125.125-.316q0-.192-.125-.318q-.126-.126-.317-.126H16V8.25q0-.192-.125-.317t-.316-.125q-.192 0-.318.125t-.126.317v2.115q0 .192.125.317t.317.126q.191 0 .317-.126q.126-.125.126-.317zm-9.058 0h6.731q.192 0 .317-.125t.125-.316q0-.192-.125-.318t-.317-.126h-6.73q-.192 0-.318.125t-.125.317q0 .191.125.317q.126.126.317.126M4.615 18q-.69 0-1.152-.462Q3 17.075 3 16.385V5.615q0-.69.463-1.152Q3.925 4 4.615 4h14.77q.69 0 1.152.463q.463.462.463 1.152v10.77q0 .69-.462 1.152q-.463.463-1.153.463H15v1.192q0 .344-.232.576q-.232.232-.576.232H9.808q-.344 0-.576-.232Q9 19.536 9 19.192V18zm0-1h14.77q.23 0 .423-.192q.192-.193.192-.423V5.615q0-.23-.192-.423Q19.615 5 19.385 5H4.615q-.23 0-.423.192Q4 5.385 4 5.615v10.77q0 .23.192.423q.193.192.423.192M4 17V5z"/></svg>