<svg xmlns="http://www.w3.org/2000/svg" width="1em" height="1em" viewBox="0 0 24 24"><path fill="currentColor" d="M2.142 13.435q-.565-.939-.854-1.912Q1 10.55 1 9.6q0-2.338 1.63-3.97Q4.263 4 6.6 4q1.517 0 2.913.788q1.397.787 2.487 2.27q1.09-1.483 2.487-2.27Q15.883 4 17.4 4q2.338 0 3.97 1.63Q23 7.263 23 9.6q0 .912-.288 1.865q-.289.954-.854 1.95q-.157-.206-.37-.37q-.213-.162-.444-.272q.475-.844.716-1.635q.24-.79.24-1.538q0-1.93-1.335-3.265Q19.331 5 17.4 5q-1.544 0-2.805.93q-1.26.93-2.595 2.67q-1.335-1.746-2.595-2.673Q8.145 5 6.6 5Q4.67 5 3.335 6.335Q2 7.669 2 9.6q0 .787.24 1.587q.24.8.697 1.605q-.231.13-.433.283q-.202.154-.362.36M1 21.038v-.863q0-.927.979-1.532t2.54-.605q.287 0 .548.023q.262.022.498.072q-.215.384-.332.808q-.118.423-.118.901v1.196zm6 0v-1.125q0-1.24 1.387-1.97q1.387-.731 3.618-.731q2.253 0 3.624.73Q17 18.673 17 19.913v1.125zm11.885 0v-1.196q0-.478-.105-.901q-.105-.424-.315-.808q.237-.05.5-.072q.261-.023.535-.023q1.575 0 2.537.605q.963.605.963 1.532v.863zm-6.887-2.826q-1.692 0-2.808.451q-1.115.452-1.161 1.164v.211h7.948v-.211q-.052-.712-1.155-1.164q-1.103-.451-2.824-.451m-7.479-1.116q-.587 0-1.005-.418q-.418-.418-.418-1.005q0-.58.418-.992q.418-.412 1.005-.412q.581 0 1.002.412q.421.411.421.992q0 .587-.42 1.005q-.422.418-1.003.418m14.981 0q-.575 0-.999-.418q-.424-.418-.424-1.005q0-.58.424-.992q.424-.412 1.003-.412q.596 0 1.008.412q.411.411.411.992q0 .587-.409 1.005q-.41.418-1.014.418m-7.493-.634q-.91 0-1.555-.64q-.644-.64-.644-1.553q0-.932.64-1.562q.639-.63 1.552-.63q.932 0 1.562.628q.63.629.63 1.557q0 .911-.628 1.555t-1.557.645M12 13.077q-.483 0-.837.343q-.355.343-.355.85q0 .482.355.837t.847.355q.492 0 .837-.355t.345-.847q0-.493-.342-.838q-.343-.345-.85-.345m.006 6.961"/></svg>