<svg xmlns="http://www.w3.org/2000/svg" width="1em" height="1em" viewBox="0 0 24 24"><path fill="currentColor" d="M9.173 21.694q-1.15 0-2.014-.696q-.865-.696-1.192-1.785q-.304.506-.84.774q-.535.269-1.127.269q-1.044 0-1.772-.731q-.728-.73-.728-1.77q0-.92.642-1.677q.643-.757 1.621-.766q-.503-.462-.797-1.111q-.293-.65-.293-1.351q0-.827.407-1.558t1.14-1.204q.067.22.183.473q.116.252.237.454q-.465.352-.703.836q-.239.484-.239 1.024q0 1.554 1.15 2.004q1.15.45 2.367.688l.225.396q-.275.8-.446 1.353q-.17.553-.17 1.022q0 .943.68 1.64q.683.697 1.65.697q.973 0 1.625-.67t1.087-1.64q.436-.97.693-2.053q.256-1.083.426-1.908q.055-.252.232-.393t.385-.074q.233.067.33.278q.097.212.035.464q-.205 1.015-.507 2.238q-.302 1.223-.832 2.285q-.53 1.061-1.356 1.777q-.826.715-2.099.715m1.267-6.92q-.17.17-.412.123q-.241-.047-.438-.218q-1.828-1.654-2.96-2.992Q5.5 10.348 5.5 8.775q0-1.413.968-2.382q.969-.968 2.382-.968q.273 0 .492.032t.416.09q-.12-.232-.189-.472q-.069-.24-.069-.515q0-1.039.73-1.77q.732-.73 1.77-.73t1.77.73q.73.731.73 1.77q0 .275-.07.512t-.188.468q.196-.057.416-.086q.219-.029.492-.029q1.135 0 1.983.645q.848.645 1.163 1.647q-.238-.036-.532-.036q-.293 0-.537.03q-.271-.574-.82-.93q-.55-.356-1.257-.356q-.933 0-1.487.484t-1.444 1.516h-.463q-.914-1.063-1.468-1.532T8.85 6.425q-1.012 0-1.68.67q-.67.668-.67 1.68q0 1.108.997 2.332q.997 1.224 2.788 2.864q.196.166.258.401q.063.236-.103.401m4.323 6.94q-.357 0-.702-.073q-.346-.073-.673-.244q.14-.177.281-.421q.14-.244.25-.452q.218.098.444.135q.227.036.445.036q.973 0 1.664-.697t.691-1.664q0-.475-.17-1.016q-.172-.54-.447-1.34l.244-.396q1.243-.239 2.38-.698q1.138-.46 1.138-2.014q0-1.211-.853-1.796t-1.92-.585q-.914 0-2.112.29t-2.73.785q-.253.068-.47.001q-.217-.066-.285-.299q-.067-.232.077-.425q.145-.192.377-.26q1.518-.48 2.745-.805t2.288-.325q1.513 0 2.698.89t1.185 2.53q0 .701-.284 1.321t-.787 1.12q.978.03 1.62.767t.643 1.678q0 1.019-.728 1.76q-.728.74-1.772.74q-.592 0-1.128-.269q-.535-.268-.84-.774q-.326 1.089-1.21 1.795q-.884.705-2.059.705"/></svg>