<svg xmlns="http://www.w3.org/2000/svg" width="1em" height="1em" viewBox="0 0 24 24"><path fill="currentColor" d="M2.142 13.435q-.565-.939-.854-1.912Q1 10.55 1 9.6q0-2.338 1.63-3.97Q4.263 4 6.6 4q1.517 0 2.913.788q1.397.787 2.487 2.27q1.09-1.483 2.487-2.27Q15.883 4 17.4 4q2.338 0 3.97 1.63Q23 7.263 23 9.6q0 .912-.288 1.865q-.289.954-.854 1.95q-.16-.205-.371-.369q-.212-.163-.443-.273q.475-.844.716-1.635q.24-.79.24-1.538q0-1.93-1.335-3.265Q19.331 5 17.4 5q-1.544 0-2.805.93q-1.26.93-2.595 2.67q-1.335-1.746-2.595-2.673Q8.145 5 6.6 5Q4.67 5 3.335 6.335Q2 7.669 2 9.6q0 .787.24 1.587q.24.8.697 1.605q-.231.13-.433.283q-.202.154-.362.36M1 20.308v-.133q0-.927.978-1.532t2.541-.605q.287 0 .548.023q.262.022.498.072q-.215.384-.332.805q-.118.422-.118.899v1.201H1.731q-.31 0-.52-.21T1 20.308m6-.077v-.318q0-1.24 1.384-1.97q1.383-.731 3.616-.731q2.258 0 3.629.73Q17 18.673 17 19.913v.318q0 .348-.23.578q-.23.23-.578.23H7.808q-.348 0-.578-.23q-.23-.23-.23-.578m11.885.807v-1.201q0-.477-.105-.899q-.105-.42-.315-.805q.237-.05.496-.072q.258-.023.539-.023q1.57 0 2.535.605q.965.605.965 1.532v.133q0 .31-.21.52t-.52.21zM4.519 17.096q-.594 0-1.008-.414q-.415-.415-.415-1.009q0-.58.415-.992q.414-.412 1.008-.412q.581 0 1.002.412q.421.411.421.992q0 .594-.42 1.009q-.422.414-1.003.414m14.981 0q-.575 0-1-.414q-.423-.415-.423-1.009q0-.58.424-.992q.424-.412.999-.412q.6 0 1.012.412q.411.411.411.992q0 .594-.411 1.009q-.412.414-1.012.414m-7.5-.634q-.904 0-1.548-.645q-.644-.644-.644-1.548q0-.929.644-1.56q.644-.632 1.548-.632q.929 0 1.56.632q.632.631.632 1.56q0 .904-.631 1.548q-.632.645-1.561.645"/></svg>