<svg xmlns="http://www.w3.org/2000/svg" width="1em" height="1em" viewBox="0 0 24 24"><path fill="currentColor" d="M9.173 21.694q-1.15 0-2.014-.696q-.865-.696-1.192-1.785q-.304.506-.84.774q-.535.269-1.127.269q-1.044 0-1.772-.73q-.728-.729-.728-1.77q0-.921.642-1.678q.643-.757 1.621-.766q-.503-.462-.797-1.111q-.293-.65-.293-1.351q0-.832.407-1.56q.407-.728 1.14-1.202q.067.222.183.474q.116.251.237.453q-.465.352-.703.84q-.239.486-.239 1.02q0 1.554 1.15 2.004q1.15.45 2.367.688l.225.396q-.275.8-.446 1.353q-.17.553-.17 1.022q0 .935.676 1.636q.677.701 1.654.701q1.065 0 1.748-.802t1.121-1.904q.439-1.102.68-2.267q.241-1.165.405-1.906l.988.275q-.206.99-.492 2.306q-.287 1.315-.816 2.493q-.53 1.178-1.39 2.001q-.861.823-2.225.823M4 19.256q.617 0 1.059-.442q.441-.44.441-1.058t-.441-1.059q-.442-.441-1.059-.441t-1.059.441q-.441.441-.441 1.059q0 .617.441 1.058q.442.442 1.059.442m6.08-4.123q-1.015-.91-1.856-1.701q-.841-.792-1.454-1.552q-.612-.76-.941-1.521q-.329-.76-.329-1.584q0-1.414.968-2.382q.968-.968 2.382-.968q.273 0 .492.032t.416.09q-.12-.232-.189-.475T9.5 4.56q0-1.042.729-1.771t1.769-.73q1.04 0 1.771.73q.731.729.731 1.77q0 .276-.07.513t-.188.468q.196-.057.416-.086q.219-.029.492-.029q1.135 0 1.983.645q.848.645 1.163 1.647q-.236-.036-.53-.036q-.295 0-.54.03q-.27-.574-.82-.93q-.548-.356-1.247-.356q-.942 0-1.496.484t-1.444 1.516h-.463q-.914-1.063-1.468-1.532T8.85 6.425q-1.016 0-1.683.667T6.5 8.775q0 .581.296 1.2q.296.62.852 1.307q.556.687 1.348 1.462t1.798 1.675zM12 6.06q.617 0 1.059-.442q.441-.441.441-1.058q0-.618-.441-1.059Q12.617 3.06 12 3.06t-1.059.44q-.441.442-.441 1.06q0 .617.441 1.058q.442.442 1.059.442m2.763 15.653q-.355 0-.703-.076t-.672-.24q.14-.18.278-.425q.14-.243.253-.449q.222.092.444.132q.223.04.445.04q.973 0 1.664-.7q.691-.699.691-1.662q0-.47-.17-1.013q-.172-.543-.447-1.343l.244-.396q1.243-.239 2.38-.698q1.138-.46 1.138-2.014q0-1.211-.853-1.796t-1.92-.585q-1.008 0-2.352.343t-3.104.929l-.275-.989q1.72-.548 3.095-.934q1.376-.387 2.526-.387q1.513 0 2.698.89t1.185 2.53q0 .693-.284 1.317q-.284.625-.787 1.125q.978.028 1.62.766t.643 1.678q0 1.019-.728 1.76q-.728.74-1.772.74q-.592 0-1.128-.269q-.535-.268-.84-.774q-.326 1.089-1.21 1.795q-.884.705-2.059.705m5.262-2.457q.617 0 1.046-.442q.429-.44.429-1.058t-.441-1.071q-.442-.454-1.059-.454t-1.059.441q-.441.441-.441 1.059q0 .617.454 1.07q.454.455 1.071.455M20 17.73"/></svg>