<svg xmlns="http://www.w3.org/2000/svg" width="1em" height="1em" viewBox="0 0 24 24"><path fill="currentColor" d="M7.502 7.115q-.415 0-.709.291q-.293.291-.293.707t.291.71q.291.292.707.292q.415 0 .709-.29q.293-.292.293-.707q0-.416-.291-.71q-.291-.293-.707-.293m0 8.77q-.415 0-.709.29q-.293.292-.293.707q0 .416.291.71q.291.293.707.293q.415 0 .709-.291q.293-.291.293-.707t-.291-.71q-.291-.292-.707-.292M4.77 4.615h14.462q.327 0 .548.22q.221.22.221.545v5.35q0 .387-.221.636q-.221.25-.548.25H4.769q-.327 0-.548-.25Q4 11.117 4 10.731V5.38q0-.325.221-.545q.221-.22.548-.22m0 8.77h14.423q.368 0 .588.243q.22.243.22.603v5.23q0 .426-.22.675q-.22.249-.588.249H4.808q-.368 0-.588-.25q-.22-.248-.22-.673V14.23q0-.36.201-.603q.2-.243.568-.243"/></svg>