<svg xmlns="http://www.w3.org/2000/svg" width="1em" height="1em" viewBox="0 0 24 24"><path fill="currentColor" d="m17.962 15.117l-.708-.707l3.706-3.706q.286.286.286.708q0 .42-.286.707zm-1.697-1.682l-.713-.708l2.998-2.998l-3.808-3.808q-.173-.173-.442-.173t-.442.173l-2.556 2.556l-.714-.714l2.575-2.575q.46-.46 1.134-.46q.674 0 1.134.46l4.54 4.54zm4.33 8.58l-6.385-6.378l-3.152 3.151H4.365q-.67 0-1.143-.472q-.472-.472-.472-1.143v-.452q0-.438.238-.765q.237-.327.639-.494q.636-.29 1.274-.637t1.259-.812l.894.895q.13.13.34.12q.21-.009.34-.14q.131-.13.141-.34q.01-.21-.121-.34l-.833-.858l.272-.272q.13-.13.292-.278l.832.833q.15.15.34.13q.191-.019.341-.169t.14-.36q-.01-.209-.14-.34l-.996-1.015q.13-.16.224-.339q.093-.178.168-.382l1.143 1.148q.13.13.33.14q.2.01.35-.121q.131-.13.153-.321q.022-.19-.166-.379L2.408 3.829q-.14-.14-.15-.342q-.01-.2.15-.366q.165-.165.356-.165t.357.165l18.18 18.187q.141.14.154.341q.012.201-.153.366q-.16.16-.354.16t-.354-.16M4.377 17.788h6.279l2.865-2.865l-2.29-2.29l-2.864 2.863q-.402.402-.952.39q-.55-.013-.969-.39l-.334-.31q-.581.4-1.147.707q-.565.307-1.203.61v.67q0 .27.173.442q.173.173.442.173m9.625-6.611"/></svg>