<svg xmlns="http://www.w3.org/2000/svg" width="1em" height="1em" viewBox="0 0 24 24"><path fill="currentColor" d="M13 20.5q-.213 0-.356-.144q-.144-.144-.144-.357t.144-.356q.144-.143.356-.143h4.402l-3.589-2.529q-.18-.123-.212-.314q-.032-.192.079-.37q.11-.179.308-.21q.197-.033.374.077l3.632 2.523l-1.532-4.15q-.074-.183.025-.375q.098-.192.286-.265q.189-.074.39.025q.202.098.275.286l1.489 4.112l1.154-4.225q.067-.189.231-.305t.353-.05q.189.068.318.233t.061.352l-1.569 5.8q-.062.177-.191.281q-.13.104-.303.104zm-9-3q-.213 0-.356-.144Q3.5 17.212 3.5 17t.144-.356Q3.787 16.5 4 16.5h6.517q-.017.265-.004.505q.012.24.03.495zm0-4q-.213 0-.356-.144Q3.5 13.212 3.5 13t.144-.356Q3.787 12.5 4 12.5h8.804q-.287.208-.538.458q-.25.25-.485.542zm0-4q-.213 0-.356-.144Q3.5 9.212 3.5 9t.144-.356Q3.787 8.5 4 8.5h13q.213 0 .356.144q.144.144.144.357t-.144.356Q17.213 9.5 17 9.5zm0-4q-.213 0-.356-.144q-.144-.144-.144-.357t.144-.356Q3.787 4.5 4 4.5h13q.213 0 .356.144q.144.144.144.357t-.144.356Q17.213 5.5 17 5.5z"/></svg>