<svg xmlns="http://www.w3.org/2000/svg" width="1em" height="1em" viewBox="0 0 24 24"><path fill="currentColor" d="M17 20.475q-.213 0-.357-.144q-.143-.143-.143-.356v-2.5H14q-.213 0-.356-.144q-.144-.144-.144-.357t.144-.356q.144-.143.356-.143h2.5v-2.5q0-.212.144-.356t.357-.144t.356.144q.143.144.143.356v2.5H20q.213 0 .356.144q.144.144.144.357t-.144.356q-.143.143-.356.143h-2.5v2.5q0 .213-.144.356q-.144.144-.357.144M5 17.5q-.213 0-.356-.144Q4.5 17.212 4.5 17t.144-.356Q4.788 16.5 5 16.5h6.517q-.017.265-.004.505q.012.24.03.495zm0-4q-.213 0-.356-.144Q4.5 13.212 4.5 13t.144-.356Q4.788 12.5 5 12.5h8.804q-.287.208-.538.458q-.25.25-.485.542zm0-4q-.213 0-.356-.144Q4.5 9.212 4.5 9t.144-.356Q4.788 8.5 5 8.5h13q.213 0 .356.144q.144.144.144.357t-.144.356Q18.213 9.5 18 9.5zm0-4q-.213 0-.356-.144q-.144-.144-.144-.357t.144-.356Q4.788 4.5 5 4.5h13q.213 0 .356.144q.144.144.144.357t-.144.356Q18.213 5.5 18 5.5z"/></svg>