<svg xmlns="http://www.w3.org/2000/svg" width="1em" height="1em" viewBox="0 0 24 24"><path fill="currentColor" d="M4.615 19q-.69 0-1.152-.462Q3 18.075 3 17.385V6.615q0-.69.463-1.152Q3.925 5 4.615 5h14.77q.69 0 1.152.463q.463.462.463 1.152v10.77q0 .69-.462 1.152q-.463.463-1.153.463zm0-1h14.77q.23 0 .423-.192q.192-.193.192-.423V8H4v9.385q0 .23.192.423q.193.192.423.192m6.335-2.18l-2.858-2.858l.72-.72l2.138 2.139l4.238-4.239l.72.72zM4.615 18H4V6h.615q-.23 0-.423.192Q4 6.385 4 6.615v10.77q0 .23.192.423q.193.192.423.192"/></svg>