<svg xmlns="http://www.w3.org/2000/svg" width="1em" height="1em" viewBox="0 0 24 24"><path fill="currentColor" d="M7.8 17q-1.063 0-2.072-.383q-1.009-.382-1.78-1.104q-1.008-.97-1.478-2.335T2 10.375q0-1.488.7-2.432Q3.4 7 4.744 7q.235 0 .47.043q.236.044.465.13L12 9.552l6.321-2.379q.229-.086.465-.13q.235-.043.47-.043q1.344 0 2.044.943q.7.944.7 2.432q0 1.438-.47 2.803q-.47 1.364-1.478 2.335q-.771.722-1.78 1.104Q17.263 17 16.2 17q-1.38 0-2.483-.75l-1.102-.75h-1.23l-1.102.75Q9.18 17 7.8 17m0-1q.925 0 1.725-.437T11 14.5h2q.675.625 1.475 1.063T16.2 16q.9 0 1.738-.312t1.487-.963q.85-.85 1.213-2t.362-2.35q0-1.025-.425-1.712T19.225 8q-.075 0-.55.1L12 10.6L5.325 8.1q-.125-.05-.262-.075T4.775 8q-.925 0-1.35.675T3 10.375q0 1.225.363 2.375t1.237 2q.65.625 1.475.938T7.8 16m1.225-1.808q.771 0 1.21-.326q.438-.326.457-.916q-.038-1.11-1.545-2.126Q7.64 9.808 5.975 9.808q-.771 0-1.21.326q-.438.326-.457.916q.038 1.11 1.545 2.126q1.507 1.016 3.172 1.016m-.035-.884q-1.257 0-2.476-.731q-1.218-.73-1.322-1.515q.048-.166.259-.27q.21-.105.559-.105q1.257 0 2.476.733q1.218.734 1.322 1.518q-.048.166-.259.268q-.21.102-.559.102m5.985.91q1.665 0 3.172-1.03q1.507-1.028 1.545-2.138q-.019-.571-.454-.92q-.436-.347-1.213-.347q-1.646.038-3.162 1.057q-1.517 1.02-1.555 2.11q.019.571.457.92q.439.347 1.21.347m.035-.89q-.33-.02-.547-.121q-.217-.102-.265-.268q.104-.765 1.322-1.496q1.218-.73 2.476-.769q.329.02.546.121q.218.102.266.268q-.104.784-1.322 1.525q-1.219.74-2.476.74M12 12"/></svg>