<svg xmlns="http://www.w3.org/2000/svg" width="1em" height="1em" viewBox="0 0 24 24"><path fill="currentColor" d="M4.23 12q0 2.806 1.756 4.941t4.5 2.676q.181.054.296.217t.114.374q0 .302-.237.486q-.238.185-.54.089q-3.157-.68-5.138-3.125Q3 15.212 3 12t1.98-5.658q1.982-2.446 5.14-3.125q.301-.096.539.089q.237.184.237.486q0 .212-.114.374t-.295.217q-2.747.54-4.501 2.676Q4.23 9.194 4.23 12m14.146 6.358q-.915.92-2.063 1.553q-1.147.631-2.458.872q-.302.077-.55-.098q-.246-.175-.246-.477q0-.212.114-.374t.314-.217q1.16-.211 2.18-.764q1.02-.553 1.845-1.378q.806-.83 1.347-1.836q.54-1.004.757-2.15q.054-.2.217-.315t.374-.114q.302 0 .477.247t.098.549q-.24 1.311-.863 2.446q-.622 1.135-1.543 2.056m0-12.716q.921.921 1.543 2.056q.622 1.135.863 2.446q.077.302-.098.55q-.175.246-.477.246q-.212 0-.374-.114t-.217-.314Q19.4 9.365 18.86 8.36q-.54-1.005-1.347-1.836q-.825-.825-1.845-1.378q-1.02-.553-2.18-.764q-.2-.054-.314-.217t-.114-.374q0-.302.247-.477t.549-.098q1.311.24 2.458.872q1.148.632 2.063 1.553"/></svg>