<svg xmlns="http://www.w3.org/2000/svg" width="1em" height="1em" viewBox="0 0 24 24"><path fill="currentColor" d="M9 15V5v14zm-1 .5h1v2.885q0 .269.173.442t.442.173h4.77q.269 0 .442-.173t.173-.442V5.615q0-.269-.173-.442T14.385 5h-4.77q-.269 0-.442.173T9 5.615V14.5H8V5.615q0-.666.475-1.14Q8.949 4 9.615 4h4.77q.666 0 1.14.475q.475.474.475 1.14v12.77q0 .666-.475 1.14q-.474.475-1.14.475h-4.77q-.666 0-1.14-.475Q8 19.051 8 18.385zm4-5.73q.31 0 .54-.23q.23-.23.23-.54q0-.31-.23-.54q-.23-.23-.54-.23q-.31 0-.54.23q-.23.23-.23.54q0 .31.23.54q.23.23.54.23m7.5-1.27q-.213 0-.357-.144Q19 8.213 19 8V4q0-.213.144-.356T19.5 3.5q.212 0 .356.144Q20 3.787 20 4v4q0 .213-.144.356q-.144.144-.357.144m-13.614 7q-.213 0-.357-.144q-.143-.144-.143-.357t.143-.356q.144-.143.357-.143h6.384q.213 0 .356.144q.144.144.144.357t-.144.356q-.143.143-.356.143z"/></svg>