<svg xmlns="http://www.w3.org/2000/svg" width="1em" height="1em" viewBox="0 0 24 24"><path fill="currentColor" d="M9.615 20q-.666 0-1.14-.475Q8 19.051 8 18.385v-2.116h4.27q.523 0 .896-.371q.372-.372.372-.894t-.372-.897q-.373-.376-.897-.376H8V5.615q0-.666.475-1.14Q8.949 4 9.615 4h4.77q.666 0 1.14.475q.475.474.475 1.14v12.77q0 .666-.475 1.14q-.474.475-1.14.475zm-3.73-4.5q-.213 0-.357-.144q-.143-.144-.143-.357t.143-.356q.144-.143.357-.143h6.384q.213 0 .356.144q.144.144.144.357t-.144.356q-.143.143-.356.143zM12 9.77q.31 0 .54-.23q.23-.23.23-.54q0-.31-.23-.54q-.23-.23-.54-.23q-.31 0-.54.23q-.23.23-.23.54q0 .31.23.54q.23.23.54.23m7.5-1.27q-.213 0-.357-.144Q19 8.213 19 8V4q0-.213.144-.356T19.5 3.5q.212 0 .356.144Q20 3.787 20 4v4q0 .213-.144.356q-.144.144-.357.144"/></svg>