<svg xmlns="http://www.w3.org/2000/svg" width="1em" height="1em" viewBox="0 0 24 24"><path fill="currentColor" d="M4.5 20q-.213 0-.357-.143Q4 19.713 4 19.5t.143-.357Q4.287 19 4.5 19H6V5.615q0-.69.463-1.152Q6.925 4 7.615 4h8.77q.69 0 1.152.463q.463.462.463 1.152V19h1.5q.213 0 .357.143q.143.144.143.357t-.143.357Q19.713 20 19.5 20zM7 19h10V5.615q0-.23-.192-.423Q16.615 5 16.385 5h-8.77q-.23 0-.423.192Q7 5.385 7 5.615zm7.23-6.23q.31 0 .54-.23q.23-.23.23-.54q0-.31-.23-.54q-.23-.23-.54-.23q-.309 0-.539.23q-.23.23-.23.54q0 .31.23.54q.23.23.54.23M7 5v14z"/></svg>