<svg xmlns="http://www.w3.org/2000/svg" width="1em" height="1em" viewBox="0 0 24 24"><path fill="currentColor" d="M18.558 22.5q-.593 0-1.167-.09q-.574-.09-1.13-.29L2.539 17.11l.289-.83l6.977 2.545l1.821-4.508l-4.037-3.879q-.54-.488-.431-1.22q.108-.731.766-1.116l4.052-2.404q.31-.192.641-.22q.332-.028.642.109q.31.111.545.36q.235.247.366.582l.325 1.075q.421 1.383 1.188 2.265q.766.883 2.118 1.327l.544-1.638l.83.277l-.857 2.527q-1.888-.435-2.996-1.422q-1.108-.986-1.725-2.86L9.84 10.3l3.025 3.623l-2.11 5.25l3.85 1.394l2.197-6.502q.196.106.392.158t.437.108l-2.202 6.55l1.025.37q.546.19 1.043.277q.497.087 1.06.087q.612 0 1.17-.096q.56-.096 1.09-.307l.645.682q-.685.33-1.406.468q-.721.138-1.498.138M16.173 6.192q-.69 0-1.191-.5q-.501-.502-.501-1.192t.5-1.191q.502-.501 1.192-.501t1.191.5q.501.502.501 1.192t-.5 1.191q-.502.501-1.192.501"/></svg>