<svg xmlns="http://www.w3.org/2000/svg" width="1em" height="1em" viewBox="0 0 24 24"><path fill="currentColor" d="M12 15.248q-.162 0-.298-.053q-.137-.053-.267-.183l-2.62-2.62q-.146-.146-.152-.344q-.007-.198.152-.363q.166-.166.357-.169q.191-.003.357.163L11.5 13.65V5.5q0-.213.143-.357Q11.787 5 12 5t.357.143q.143.144.143.357v8.15l1.971-1.971q.146-.146.347-.153q.201-.007.367.159q.16.165.162.353q.003.189-.162.354l-2.62 2.62q-.13.13-.267.183q-.136.053-.298.053M6.615 19q-.69 0-1.152-.462Q5 18.075 5 17.385v-1.923q0-.214.143-.357q.144-.143.357-.143t.357.143q.143.143.143.357v1.923q0 .23.192.423q.193.192.423.192h10.77q.23 0 .423-.192q.192-.193.192-.423v-1.923q0-.214.143-.357q.144-.143.357-.143t.357.143q.143.143.143.357v1.923q0 .69-.462 1.152q-.463.463-1.153.463z"/></svg>