<svg xmlns="http://www.w3.org/2000/svg" width="1em" height="1em" viewBox="0 0 24 24"><path fill="currentColor" d="M8 16.5h8q.213 0 .356-.144q.144-.144.144-.357t-.144-.356Q16.213 15.5 16 15.5H8q-.213 0-.356.144q-.144.144-.144.357t.144.356q.144.143.356.143m3.5-5.12L9.754 9.64q-.14-.14-.341-.15q-.201-.01-.371.16q-.155.156-.155.35t.16.354l2.388 2.388q.242.243.565.243q.323 0 .565-.243l2.389-2.388q.14-.14.153-.342t-.157-.37q-.156-.155-.347-.158q-.191-.003-.357.156L12.5 11.38V7q0-.213-.144-.356Q12.212 6.5 12 6.5t-.356.144Q11.5 6.788 11.5 7zm.503 9.62q-1.866 0-3.51-.708q-1.643-.709-2.859-1.924q-1.216-1.214-1.925-2.856Q3 13.87 3 12.003q0-1.866.708-3.51q.709-1.643 1.924-2.859q1.214-1.216 2.856-1.925Q10.13 3 11.997 3q1.866 0 3.51.708q1.643.709 2.859 1.924q1.216 1.214 1.925 2.856Q21 10.13 21 11.997q0 1.866-.708 3.51q-.709 1.643-1.924 2.859q-1.214 1.216-2.856 1.925Q13.87 21 12.003 21M12 20q3.35 0 5.675-2.325T20 12q0-3.35-2.325-5.675T12 4Q8.65 4 6.325 6.325T4 12q0 3.35 2.325 5.675T12 20m0-8"/></svg>