<svg xmlns="http://www.w3.org/2000/svg" width="1em" height="1em" viewBox="0 0 24 24"><path fill="currentColor" d="M10.012 20.788q-3.099-.698-5.055-3.153T3 12.006q0-3.172 1.966-5.625q1.967-2.453 5.046-3.15q.244-.068.424.085q.18.153.18.408q0 .178-.098.31q-.097.13-.268.166q-2.75.625-4.5 2.8T4 12q0 2.825 1.75 5t4.5 2.8q.177.056.271.191q.094.135.094.307q0 .246-.18.402q-.18.156-.423.088m3.976-.019q-.225.068-.414-.081q-.19-.15-.19-.397q0-.174.085-.304q.085-.131.262-.187q.68-.15 1.322-.413q.643-.262 1.222-.637q.14-.085.305-.06q.164.026.286.152q.17.177.14.4q-.031.221-.22.362q-.649.403-1.354.695q-.705.291-1.444.47m4.842-3.89q-.122-.129-.143-.284q-.022-.155.063-.295q.375-.57.638-1.216q.262-.645.412-1.315q.037-.173.172-.266q.135-.093.307-.093q.246 0 .402.18t.088.423q-.179.74-.47 1.444q-.292.705-.695 1.355q-.14.188-.372.219q-.232.03-.402-.151m1.452-6.265q-.184 0-.315-.084q-.13-.085-.167-.262q-.154-.675-.424-1.312t-.626-1.232q-.104-.146-.073-.31q.03-.165.153-.287q.17-.17.403-.146q.232.024.37.231q.404.65.696 1.355q.29.705.47 1.444q.068.225-.079.414q-.146.19-.408.19M16.275 5.25q-.575-.375-1.212-.638T13.75 4.2q-.17-.037-.268-.172q-.097-.135-.097-.307q0-.246.18-.402t.423-.088q.749.18 1.45.457q.7.277 1.349.708q.194.14.225.363q.03.222-.14.403q-.122.13-.286.161q-.165.03-.311-.073m-3.78 9.125l2.734-2.735q.165-.165.36-.165q.194 0 .36.165q.164.166.162.36q-.003.194-.169.36l-3.382 3.382q-.237.237-.566.237t-.565-.237l-3.394-3.4q-.166-.165-.163-.356q.003-.192.168-.357q.166-.166.357-.166t.357.166l2.74 2.746V8.192q0-.212.144-.356t.357-.144q.213 0 .356.144t.143.356z"/></svg>