<svg xmlns="http://www.w3.org/2000/svg" width="1em" height="1em" viewBox="0 0 24 24"><path fill="currentColor" d="M10.994 20.95q-1.707-.18-3.162-.957q-1.455-.776-2.52-1.979q-1.066-1.202-1.667-2.754q-.6-1.552-.6-3.266q0-3.47 2.273-6.03q2.274-2.558 5.701-2.926v1q-3.006.425-4.99 2.678q-1.985 2.253-1.985 5.278q0 3.025 1.975 5.278q1.975 2.253 4.975 2.678zm1-4.642l-4.313-4.32l.713-.713l3.1 3.1V7.692h1v6.683l3.094-3.094l.714.719zm1 4.642v-1q1.075-.15 2.063-.546t1.837-1.066l.758.72q-1.04.77-2.217 1.237q-1.177.467-2.44.655m3.95-15.262q-.876-.65-1.863-1.075t-2.063-.575v-1q1.264.17 2.431.646t2.202 1.247zm2.107 11.92l-.708-.714q.65-.85 1.05-1.837t.55-2.063h1.012q-.162 1.264-.644 2.444q-.483 1.18-1.26 2.17m.892-6.614q-.15-1.075-.55-2.062t-1.05-1.838l.746-.752q.739 1.03 1.208 2.209q.47 1.18.658 2.443z"/></svg>