<svg xmlns="http://www.w3.org/2000/svg" width="1em" height="1em" viewBox="0 0 24 24"><path fill="currentColor" d="m12.833 2.677l7.679 4.57q.219.159.353.393q.135.235.135.51v10.235q0 .69-.462 1.152q-.463.463-1.153.463H4.615q-.69 0-1.152-.462Q3 19.075 3 18.385V8.15q0-.275.135-.51q.134-.234.353-.394l7.68-4.57q.378-.216.832-.216t.833.217m-.525 9.78L19.8 8l-7.492-4.458q-.154-.096-.308-.096t-.308.096L4.2 8l7.492 4.458q.154.096.308.096t.308-.096m-1.14.86L4 9.045v9.339q0 .269.173.442t.442.173h14.77q.269 0 .442-.173t.173-.442V9.046l-7.167 4.271q-.38.218-.833.218t-.833-.218M12.833 19H20H4z"/></svg>