<svg xmlns="http://www.w3.org/2000/svg" width="1em" height="1em" viewBox="0 0 24 24"><path fill="currentColor" d="M12 17q-1.925 0-3.323-1.256t-1.639-3.136l1.081.317q.324 1.35 1.393 2.213T12 16q1.65 0 2.825-1.175T16 12q0-1.425-.872-2.5t-2.203-1.4l-.337-1.062q1.881.24 3.147 1.639Q17 10.075 17 12q0 2.083-1.458 3.542Q14.083 17 12 17m.003 4q-1.866 0-3.51-.709t-2.859-1.923q-1.216-1.215-1.925-2.858Q3 13.868 3 12v-.296q0-.148.03-.296L4 11.7v.3q0 3.35 2.325 5.675T12 20q3.35 0 5.675-2.325T20 12q0-3.35-2.325-5.675T12 4h-.3l-.312-.97q.153-.03.306-.03H12q1.868 0 3.51.708q1.643.709 2.858 1.924q1.215 1.214 1.923 2.856Q21 10.13 21 11.997q0 1.866-.708 3.51q-.709 1.643-1.924 2.859q-1.214 1.216-2.856 1.925Q13.87 21 12.003 21m-1.247-9.212L5.962 6.975l-.924 2.794L3 3l6.77 2.038l-2.795.924l4.813 4.794z"/></svg>