<svg xmlns="http://www.w3.org/2000/svg" width="1em" height="1em" viewBox="0 0 24 24"><path fill="currentColor" d="M10.235 15.929q-.368.386-.916.457q-.548.07-1.123-.017q-.334-.069-.615-.078q-.281-.008-.502.213q-.227.227-.225.535q.002.31.06.663q.098.575.03 1.117q-.067.543-.434.948q-.373.398-.915.459q-.541.06-1.105-.026q-.428-.08-.755-.008q-.327.073-.752.51l-.708-.671q.608-.633 1.113-.757q.506-.124 1.047-.066q.469.057.79.086t.56-.204q.246-.24.234-.552q-.011-.311-.08-.665q-.076-.586-.018-1.141q.058-.555.42-.936q.36-.386.902-.457q.542-.07 1.11.017q.355.069.638.09q.284.021.505-.2q.246-.246.235-.558q-.012-.311-.081-.665q-.087-.586-.029-1.141q.058-.555.42-.936q.36-.386.902-.447q.542-.06 1.11.026q.355.07.638.08q.284.012.505-.209q.246-.246.235-.558q-.012-.311-.081-.665q-.087-.58-.016-1.135q.07-.555.431-.942q.362-.386.898-.45q.535-.063 1.075.023q.383.07.673.084q.289.014.51-.207q.246-.246.235-.558q-.012-.311-.081-.665q-.098-.575-.03-1.117q.067-.543.434-.948q.373-.398.911-.459q.539-.06 1.102.026q.43.08.759.008q.33-.073.755-.51l.702.671q-.608.633-1.114.757q-.506.124-1.046.066q-.47-.057-.79-.086t-.56.204q-.246.24-.232.552q.015.311.084.665q.087.58.016 1.136q-.07.554-.431.94q-.362.387-.898.454q-.535.066-1.07-.02q-.388-.075-.665-.09q-.277-.014-.498.207q-.246.246-.247.558q-.001.311.068.665q.087.586.038 1.141q-.048.555-.41.936q-.386.386-.924.45q-.539.063-1.079-.023q-.352-.07-.648-.062q-.296.008-.498.21q-.227.227-.238.535q-.01.31.059.663q.087.586.026 1.141q-.06.555-.416.936M6 10q-1.652 0-2.826-1.174Q2 7.652 2 6q0-1.677 1.174-2.838Q4.348 2 6 2q1.677 0 2.838 1.162Q10 4.323 10 6q0 1.652-1.162 2.826Q7.677 10 6 10m9 12v-7h7v7z"/></svg>