<svg xmlns="http://www.w3.org/2000/svg" width="1em" height="1em" viewBox="0 0 24 24"><path fill="currentColor" d="M7.75 21v-5.673H4v-3.058l7.5-3.338V7.685q-.823-.172-1.354-.819q-.53-.647-.53-1.481q0-.994.692-1.69Q11.001 3 11.991 3t1.682.702q.692.702.692 1.683h-1.038q0-.589-.382-.987Q12.564 4 12 4q-.588 0-.987.398q-.398.398-.398.987q0 .588.398.986q.399.398.987.398h.5v2.162l7.5 3.357v3.039h-3.75V21zM5 14.327h2.75v-.942h8.5v.942H19v-1.392l-7-3.12l-7 3.12zM8.75 20h6.5v-5.615h-6.5zm0-5.615h6.5z"/></svg>