<svg xmlns="http://www.w3.org/2000/svg" width="1em" height="1em" viewBox="0 0 24 24"><path fill="currentColor" d="M4.115 11q-.666 0-1.14-.475q-.475-.474-.475-1.14v-3.27q0-.666.475-1.14q.474-.475 1.14-.475h8.077q.344 0 .576.232q.232.232.232.576v4.884q0 .344-.232.576q-.232.232-.576.232zm0 8.5q-.666 0-1.14-.475q-.475-.474-.475-1.14v-3.27q0-.666.475-1.14Q3.449 13 4.115 13h10.077q.344 0 .576.232q.232.232.232.576v4.884q0 .344-.232.576q-.232.232-.576.232zM17 11h-1.192q-.344 0-.576-.232q-.232-.232-.232-.576V5.308q0-.344.232-.576q.232-.232.576-.232h4.275q.426 0 .67.351q.243.35.082.755l-1.566 4.01h.739q.434 0 .674.366q.24.366.072.77l-2.977 8.48q-.06.165-.192.217q-.131.051-.262.02q-.13-.03-.227-.133Q17 19.233 17 19.07zM6.5 7.75q0-.325-.213-.537T5.75 7q-.325 0-.537.213T5 7.75q0 .325.213.538t.537.212q.325 0 .538-.213T6.5 7.75M5.75 17q.325 0 .538-.213t.212-.537q0-.325-.213-.537T5.75 15.5q-.325 0-.537.213T5 16.25q0 .325.213.538T5.75 17"/></svg>