<svg xmlns="http://www.w3.org/2000/svg" width="1em" height="1em" viewBox="0 0 24 24"><path fill="currentColor" d="M4.846 19.77q-.69 0-1.153-.463q-.462-.463-.462-1.153v-5.616h1v5.616q0 .23.192.423q.192.192.423.192h7.616v1zM8.616 16q-.691 0-1.153-.462Q7 15.075 7 14.385V8.769h1v5.616q0 .23.192.423q.193.192.423.192h7.616v1zm3.769-3.77q-.69 0-1.153-.462t-.463-1.153V5.846q0-.69.463-1.153q.462-.462 1.153-.462h6.769q.69 0 1.153.462q.462.463.462 1.153v4.77q0 .69-.462 1.152q-.463.463-1.153.463zm0-1h6.769q.23 0 .423-.192q.192-.192.192-.423V7.231h-8v3.384q0 .231.193.423q.192.193.423.193"/></svg>