<svg xmlns="http://www.w3.org/2000/svg" width="1em" height="1em" viewBox="0 0 24 24"><path fill="currentColor" d="M8.003 20.5q-1.866 0-3.185-1.316Q3.5 17.868 3.5 16V6.046q0-1.061.748-1.804q.748-.742 1.79-.742H8.5v5h-4V16q0 1.458 1.022 2.48q1.021 1.02 2.48 1.02q1.46 0 2.479-1.02Q11.5 17.457 11.5 16V8q0-1.868 1.315-3.184Q14.131 3.5 15.997 3.5t3.185 1.316Q20.5 6.133 20.5 8v10q0 1.044-.76 1.772q-.761.728-1.786.728H15.5v-5h4V8q0-1.458-1.022-2.48q-1.021-1.02-2.48-1.02q-1.46 0-2.479 1.02Q12.5 6.543 12.5 8v8q0 1.868-1.315 3.184Q9.869 20.5 8.003 20.5"/></svg>