<svg xmlns="http://www.w3.org/2000/svg" width="1em" height="1em" viewBox="0 0 24 24"><path fill="currentColor" d="M9.16 21q-.177 0-.305-.101q-.128-.1-.19-.272L6.192 12.5H3v-1h3.558q.17 0 .299.091q.128.092.19.263L9.1 18.517l3.367-15.102q.037-.177.168-.296q.13-.119.307-.119t.308.116q.13.117.167.294l2.445 10.457l1.803-5.782q.062-.172.19-.273q.128-.1.299-.1t.286.088q.116.088.183.254l1.308 3.446h1.05v1h-1.423q-.171 0-.287-.088q-.115-.089-.183-.235l-.898-2.429l-1.932 6.167q-.062.172-.183.275q-.121.104-.298.098q-.177-.005-.312-.122q-.134-.116-.17-.287L12.941 5.756L9.648 20.59q-.056.177-.184.29T9.16 21"/></svg>