<svg xmlns="http://www.w3.org/2000/svg" width="1em" height="1em" viewBox="0 0 24 24"><path fill="currentColor" d="M8.174 2.77q.213 0 .356.143q.143.144.143.356v8q0 .213-.144.356q-.144.144-.357.144q-.212 0-.356-.144q-.143-.143-.143-.356v-8q0-.212.144-.356t.357-.144m3.654-1q.212 0 .356.144q.143.144.143.356v9q0 .213-.144.356t-.357.144q-.213 0-.356-.144q-.143-.143-.143-.356v-9q0-.212.144-.356t.357-.144M15 16.113V4.27q0-.212.144-.356t.357-.144q.212 0 .356.144q.143.144.143.356v11.266zM5 15.27v3.539q.077 1.017.789 1.74q.711.721 1.711.721h5.675q.305 0 .572-.116q.266-.116.493-.318l5.743-5.781l-.173-.135q-.154-.115-.347-.125q-.192-.01-.346.087l-6.496 3.832q-.534.318-1.13.187q-.597-.13-.97-.615L8.25 15.269zm2.5 7q-1.458 0-2.479-1.02T4 18.768v-4.5h3.942q.384 0 .727.172q.344.172.566.474l2.053 2.74q.154.193.375.241t.433-.067L16 15.535l2.923-1.704q.429-.243.92-.215q.492.028.876.32q.41.313.442.823q.033.51-.324.868l-5.902 5.902q-.368.367-.812.554q-.444.186-.954.186zm-2.5-8H4v-9q0-.213.144-.357q.144-.143.357-.143q.212 0 .356.144Q5 5.058 5 5.27zm0-2.5h10zm2.5 9.5h6.74z"/></svg>