<svg xmlns="http://www.w3.org/2000/svg" width="1em" height="1em" viewBox="0 0 24 24"><path fill="currentColor" d="M7.673 11.77v-8.5q0-.213.144-.357t.357-.144q.213 0 .356.144t.143.356v8.5zm3.654 0v-9.5q0-.213.144-.357t.357-.144q.212 0 .356.144q.143.144.143.356v9.5zM15 16.112V4.27q0-.212.144-.356t.357-.144q.212 0 .356.144q.143.144.143.356v11.266zM7.5 21.27h5.675q.305 0 .572-.116q.266-.116.493-.318l5.743-5.781l-.173-.135q-.154-.115-.347-.125q-.192-.01-.346.087l-7.732 4.56L8.25 15.27H5v3.539q.077 1.017.789 1.74q.711.721 1.711.721m0 1q-1.458 0-2.479-1.02T4 18.768v-4.5h4.75l2.865 3.83L16 15.534l2.923-1.704q.429-.243.92-.215q.492.028.876.32l1.037.772l-6.821 6.82q-.368.368-.812.555q-.444.186-.954.186zm-2.5-8H4v-9q0-.213.144-.356q.144-.144.357-.144q.212 0 .356.144Q5 5.058 5 5.27zm0-2.5h10zm2.5 9.5H5h9.24z"/></svg>