<svg xmlns="http://www.w3.org/2000/svg" width="1em" height="1em" viewBox="0 0 24 24"><path fill="currentColor" d="m12 20.404l-2.471.856q-.137.05-.267.065q-.131.015-.262.015q-.646 0-1.13-.456q-.485-.457-.485-1.159v-4.68l-2.908-4.687q-.13-.212-.187-.426q-.055-.215-.055-.432t.055-.432q.056-.214.187-.426l3.015-4.884q.218-.373.581-.566Q8.437 3 8.865 3h6.27q.428 0 .792.192q.363.193.58.566l3.016 4.884q.13.212.187.426q.055.215.055.432t-.055.432q-.056.214-.187.426l-2.908 4.686v4.681q0 .702-.484 1.159q-.485.456-1.131.456q-.13 0-.262-.015q-.13-.015-.267-.065zm0-1.08l2.808.94q.307.096.557-.077q.25-.174.25-.5V16h-7.23v3.687q0 .326.25.5q.25.173.557.076zM8.865 15h6.27q.153 0 .288-.077q.135-.077.23-.211l3.035-4.885q.097-.154.097-.327t-.097-.327l-3.034-4.885q-.096-.134-.23-.211Q15.287 4 15.133 4H8.866q-.153 0-.288.077q-.135.077-.23.211L5.311 9.173q-.097.154-.097.327t.097.327l3.034 4.885q.096.134.23.211q.136.077.29.077m2.084-3.538l3.89-3.916q.14-.146.342-.143q.2.003.347.143q.165.146.159.357q-.007.21-.153.357l-4.02 4.038q-.242.242-.565.242q-.323 0-.565-.242L8.47 10.404q-.165-.146-.165-.347q0-.201.165-.367q.166-.165.357-.165t.357.165zM12 16H8.385h7.23z"/></svg>