<svg xmlns="http://www.w3.org/2000/svg" width="1em" height="1em" viewBox="0 0 24 24"><path fill="currentColor" d="m14.685 11.829l-.708-.708l2.82-2.82l-1.099-1.097l-2.82 2.82l-.707-.709l5.01-5.028q.146-.147.335-.217q.19-.07.397-.07q.189 0 .381.063q.193.064.352.23l1.067 1.072q.166.16.226.352q.061.193.061.395q0 .188-.07.377q-.07.19-.217.336zM5 19h1.098l5.74-5.74l-.546-.552l-.552-.546L5 17.902zm14.762 2.177l-7.21-7.185L6.519 20H4v-2.513l6.013-6.033l-7.19-7.216l.714-.713l16.938 16.938zm-.743-15.085l-1.111-1.111zM15.7 7.204l1.097 1.098zm-4.407 5.504l-.552-.546l1.098 1.098z"/></svg>