<svg xmlns="http://www.w3.org/2000/svg" width="1em" height="1em" viewBox="0 0 24 24"><path fill="currentColor" d="M5.615 21q-.69 0-1.152-.462Q4 20.075 4 19.385V6.615q0-.69.463-1.152Q4.925 5 5.615 5h1.77V3.308q0-.233.153-.386q.152-.153.385-.153t.386.153q.153.153.153.386V5h7.153V3.27q0-.214.144-.357t.356-.144q.214 0 .357.143t.143.357V5h1.77q.69 0 1.152.463q.463.462.463 1.152v4.602q0 .214-.143.357q-.144.143-.357.143t-.357-.143Q19 11.431 19 11.217v-.602H5v8.77q0 .23.192.423q.193.192.423.192h5.731q.214 0 .357.143q.143.144.143.357t-.143.357q-.143.143-.357.143zM5 9.615h14v-3q0-.23-.192-.423Q18.615 6 18.385 6H5.615q-.23 0-.423.192Q5 6.385 5 6.615zm0 0V6zm9.23 10.577V19.12q0-.161.057-.3q.055-.14.186-.27l5.09-5.066q.149-.148.308-.2q.16-.052.32-.052q.165 0 .334.064t.298.193l.925.945q.123.148.188.307q.064.16.064.32t-.062.322q-.061.162-.19.31l-5.065 5.066q-.131.13-.27.186q-.14.056-.301.056h-1.074q-.348 0-.577-.23q-.23-.23-.23-.578m6.884-5.132l-.925-.945zm-6 5.055h.95l3.468-3.473l-.47-.475l-.455-.488l-3.493 3.486zm3.948-3.948l-.455-.488l.925.963z"/></svg>