<svg xmlns="http://www.w3.org/2000/svg" width="1em" height="1em" viewBox="0 0 24 24"><path fill="currentColor" d="M13 17.02h.5v-1H13q-1.458 0-2.48-1.022q-1.02-1.02-1.02-2.479v-.5h-1v.5q0 1.868 1.316 3.184T13 17.019m-1.023 3q-2.517 0-4.266-1.797q-1.75-1.797-1.75-4.362q0-1.689.552-3.437q.55-1.748 1.428-3.182q.878-1.433 1.946-2.347q1.068-.913 2.094-.913q1.032 0 2.101.902q1.069.903 1.943 2.336q.874 1.432 1.425 3.192q.55 1.76.55 3.449q0 2.565-1.753 4.362q-1.753 1.797-4.27 1.797m.004-1q2.094 0 3.557-1.5Q17 16.016 17 13.873q0-1.472-.478-3.037q-.478-1.566-1.215-2.865q-.738-1.299-1.626-2.145q-.888-.846-1.7-.846q-.814 0-1.701.846T8.655 7.982q-.738 1.308-1.216 2.874q-.477 1.565-.477 3.01q0 2.151 1.462 3.652q1.463 1.501 3.557 1.501m0-7.019"/></svg>