<svg xmlns="http://www.w3.org/2000/svg" width="1em" height="1em" viewBox="0 0 24 24"><path fill="currentColor" d="M11.977 20.02q-2.517 0-4.266-1.798q-1.75-1.797-1.75-4.362q0-1.689.552-3.437q.55-1.748 1.428-3.182q.878-1.433 1.946-2.347q1.068-.913 2.094-.913q1.032 0 2.101.902q1.069.903 1.943 2.336q.874 1.432 1.425 3.192q.55 1.76.55 3.449q0 2.565-1.753 4.362q-1.753 1.797-4.27 1.797m1.023-3q.213 0 .356-.144q.144-.144.144-.356q0-.213-.144-.356q-.143-.144-.356-.144q-1.458 0-2.48-1.02q-1.02-1.021-1.02-2.48q0-.212-.144-.356T9 12.019t-.356.144q-.143.144-.143.356q0 1.868 1.316 3.184T13 17.019"/></svg>