<svg xmlns="http://www.w3.org/2000/svg" width="1em" height="1em" viewBox="0 0 24 24"><path fill="currentColor" d="m7.558 22.673l-.793-.604l3.197-4.09l-.424-4.325q-.153-1.14.049-2.515q.201-1.374.682-2.552l-2.634 1.555V13.5h-1V9.57l4.092-2.443q.452-.254.809-.393q.356-.14.66-.14q.529 0 .965.403q.435.403.937 1.245q.8 1.35 1.498 2.045q.698.694 1.698 1.313q.18-.258.446-.39q.268-.133.6-.133q.587 0 .98.392q.392.393.392.954v10.27h-.77v-10.27q0-.238-.169-.408q-.17-.169-.408-.169q-.238 0-.407.17q-.17.169-.17.407v.654h-.769v-.475q-1.33-.806-2.09-1.547q-.76-.742-1.546-2.134q-.525 1.142-.784 2.434q-.259 1.291-.15 2.287l1.993 3.473v5.577h-1V17.75l-2.37-3.32l-.091 3.897zm5.923-17.48q-.69 0-1.192-.502q-.5-.5-.5-1.191q0-.69.5-1.191q.501-.501 1.192-.501q.69 0 1.191.5q.501.502.501 1.192t-.5 1.191q-.502.501-1.192.501"/></svg>