<svg xmlns="http://www.w3.org/2000/svg" width="1em" height="1em" viewBox="0 0 24 24"><path fill="currentColor" d="M5 16.5q-1.913 0-3.207-1.293Q.5 13.913.5 12q0-1.875 1.318-3.207Q3.137 7.462 5 7.462q1.713 0 2.997 1.16Q9.281 9.78 9.477 11.5h1.765l-2.146-6H7.5v-1h4v1h-1.33l.695 1.962h5.916L15.1 2.846q-.058-.173-.192-.26q-.135-.086-.308-.086h-2.1v-1h2.1q.477 0 .874.263q.397.264.564.73l1.816 4.957H19q1.863 0 3.182 1.318Q23.5 10.087 23.5 11.95q0 1.87-1.315 3.19q-1.316 1.322-3.185 1.322q-1.723 0-2.98-1.135T14.523 12.5H9.477q-.196 1.725-1.498 2.863T5 16.5m0-1q1.256 0 2.214-.793t1.24-2.207H5.5v-1h2.954q-.28-1.42-1.24-2.21Q6.256 8.5 5 8.5q-1.487 0-2.493 1.007Q1.5 10.513 1.5 12q0 1.442 1.007 2.471Q3.513 15.5 5 15.5m7.354-4h2.17q.086-.69.51-1.623q.424-.933 1.235-1.415h-5.05zm6.646 4q1.487 0 2.493-1.029Q22.5 13.442 22.5 12q0-1.487-1.007-2.493Q20.487 8.5 19 8.5q-.223 0-.415.01q-.193.01-.377.067l1.038 2.765l-.938.354l-.989-2.765q-.865.482-1.342 1.327q-.477.844-.477 1.742q0 1.442 1.007 2.471Q17.513 15.5 19 15.5m-6.154 7.154l-5.115-2.577h3.384v-1.73l5.116 2.576h-3.385zM19 12"/></svg>