<svg xmlns="http://www.w3.org/2000/svg" width="1em" height="1em" viewBox="0 0 24 24"><path fill="currentColor" d="M5.23 14v1.385q0 .256-.18.436q-.18.179-.437.179t-.435-.18Q4 15.642 4 15.386V8.427q0-.137.015-.273q.016-.137.061-.272l1.707-4.801q.16-.48.578-.78Q6.78 2 7.298 2h9.404q.518 0 .937.3q.419.3.578.78l1.707 4.802q.045.135.06.272q.016.136.016.273v6.958q0 .256-.18.436q-.18.179-.438.179t-.435-.18q-.178-.179-.178-.435V14zm.185-6.846h13.17l-1.32-3.75q-.077-.192-.23-.298Q16.88 3 16.669 3H7.331q-.212 0-.366.106q-.153.106-.23.298zm2.013 4.538q.466 0 .788-.326q.322-.327.322-.794t-.326-.788q-.327-.322-.793-.322t-.79.326q-.321.327-.321.793t.326.79q.327.321.794.321m9.153 0q.467 0 .79-.326q.321-.327.321-.794t-.326-.788q-.327-.322-.794-.322t-.788.326q-.322.327-.322.793t.326.79q.327.321.793.321m-3.716 9.231v1.085q0 .22-.189.34q-.19.12-.407.01l-3.761-1.902q-.137-.081-.107-.23q.03-.15.187-.15h2.547v-1.084q0-.22.189-.34q.19-.12.407-.01l3.761 1.902q.137.081.107.23q-.03.15-.187.15z"/></svg>