<svg xmlns="http://www.w3.org/2000/svg" width="1em" height="1em" viewBox="0 0 24 24"><path fill="currentColor" d="M6.192 16.615q-1.013 0-1.708-.639q-.696-.64-.86-1.514h-.047q-.421 0-.845-.319T2.308 13V5.615q0-.69.462-1.152Q3.233 4 3.923 4h11.089q.45 0 .85.146t.7.516l3.334 4.326q.206.275.27.569q.065.293.065.643v1.45q.644.3 1.053.905q.408.605.408 1.445q0 1.077-.769 1.846q-.77.77-1.846.77q-1.014 0-1.705-.63q-.691-.63-.876-1.524H8.773q-.177.875-.862 1.514q-.686.64-1.719.64M3.308 8.5h4.5V5H3.923q-.27 0-.442.173t-.173.442zm5.5 5.038h5.961V5H8.808v3.5h3q.213 0 .356.143q.144.144.144.357t-.144.357q-.143.143-.356.143h-3zM15.769 9.5h3.246L15.77 5.254zm-9.577 6.115q.675 0 1.146-.47q.47-.47.47-1.145t-.47-1.145q-.47-.47-1.146-.47t-1.145.47q-.47.47-.47 1.145t.47 1.145q.47.47 1.145.47m12.885 0q.675 0 1.145-.47t.47-1.145t-.47-1.145q-.47-.47-1.145-.47t-1.145.47q-.47.47-.47 1.145t.47 1.145q.47.47 1.145.47m-6.514 6.747l-3.767-1.906q-.136-.081-.108-.23q.027-.15.189-.15h2.546v-1.084q0-.217.19-.338t.4-.016l3.768 1.906q.136.081.108.23q-.027.149-.189.149h-2.546v1.085q0 .217-.19.338t-.4.016M3.308 9.5V13q.011.27.084.365t.258.097q.138-.837.863-1.457q.724-.62 1.68-.62q.467 0 .928.181q.462.182.687.469V9.5zm12.461 4.038h.727q.148-.842.876-1.522t1.859-.558V10.5h-3.462zM3.308 9.5h4.5zm12.461 1h3.462z"/></svg>