<svg xmlns="http://www.w3.org/2000/svg" width="1em" height="1em" viewBox="0 0 24 24"><path fill="currentColor" d="M5.009 16.5q-1.916 0-3.213-1.294Q.5 13.913.5 12q0-1.875 1.316-3.207Q3.133 7.462 5 7.462q1.713 0 2.997 1.16Q9.281 9.78 9.477 11.5h1.765l-2.146-6H8q-.213 0-.356-.144q-.144-.144-.144-.357t.144-.356Q7.788 4.5 8 4.5h3q.213 0 .356.144q.144.144.144.357t-.144.356Q11.213 5.5 11 5.5h-.83l.695 1.962h5.916L15.1 2.846q-.058-.173-.192-.26q-.135-.086-.308-.086H13q-.212 0-.356-.144T12.5 2t.144-.356Q12.788 1.5 13 1.5h1.6q.477 0 .871.267t.567.725l1.816 4.958H19q1.868 0 3.184 1.316Q23.5 10.083 23.5 11.95q0 1.876-1.315 3.194q-1.316 1.318-3.185 1.318q-1.723 0-2.98-1.135T14.523 12.5H9.477q-.196 1.725-1.498 2.863T5.009 16.5M5 15.5q1.256 0 2.214-.793t1.24-2.207H6q-.213 0-.356-.144Q5.5 12.212 5.5 12t.144-.356Q5.788 11.5 6 11.5h2.454q-.28-1.42-1.24-2.21Q6.256 8.5 5 8.5q-1.487 0-2.494 1.006T1.5 12q0 1.442 1.006 2.471T5 15.5m7.354-4h2.17q.086-.69.51-1.623q.424-.933 1.235-1.415h-5.05zm6.645 4q1.488 0 2.494-1.029q1.007-1.029 1.007-2.479q0-1.479-1.006-2.485Q20.488 8.5 19 8.5q-.223 0-.415.01q-.193.01-.377.067l.861 2.302q.073.188-.012.376q-.085.187-.28.264q-.189.073-.38-.012t-.266-.28l-.812-2.296q-.865.482-1.342 1.327q-.477.844-.477 1.742q0 1.442 1.006 2.471q1.006 1.029 2.493 1.029m-6.153 5.423v1.085q0 .22-.19.34q-.189.12-.406.01l-3.762-1.902q-.136-.081-.106-.23q.03-.15.187-.15h2.546v-1.084q0-.22.19-.34q.19-.12.407-.01l3.761 1.902q.137.081.107.23q-.03.15-.188.15zM19 12"/></svg>