<svg xmlns="http://www.w3.org/2000/svg" width="1em" height="1em" viewBox="0 0 24 24"><path fill="currentColor" d="M18 14.5q-.213 0-.356-.144q-.144-.144-.144-.357t.144-.356q.144-.143.356-.143h2q.213 0 .356.144q.144.144.144.357t-.144.356q-.143.143-.356.143zm0 4q-.213 0-.356-.144q-.144-.144-.144-.357t.144-.356q.144-.143.356-.143h2q.213 0 .356.144q.144.144.144.357t-.144.356q-.143.143-.356.143zm-3.5 1q-.825 0-1.412-.587T12.5 17.5h-1.192q-.344 0-.576-.232q-.232-.232-.232-.576v-1.384q0-.344.232-.576q.232-.232.576-.232H12.5q0-.825.588-1.412T14.5 12.5h1.192q.344 0 .576.232q.232.232.232.576v5.384q0 .344-.232.576q-.232.232-.576.232zm-7.5-3q-1.458 0-2.479-1.021T3.5 13q0-1.458 1.021-2.479T7 9.5h1.5q.817 0 1.409-.591q.591-.592.591-1.409q0-.817-.591-1.409Q9.317 5.5 8.5 5.5H5q-.213 0-.356-.144q-.144-.144-.144-.357t.144-.356Q4.788 4.5 5 4.5h3.5q1.258 0 2.129.871T11.5 7.5q0 1.258-.871 2.129T8.5 10.5H7q-1.031 0-1.766.735T4.5 13.004q0 1.033.734 1.764Q5.97 15.5 7 15.5h2q.213 0 .356.144q.144.144.144.357t-.144.356Q9.213 16.5 9 16.5z"/></svg>