<svg xmlns="http://www.w3.org/2000/svg" width="1em" height="1em" viewBox="0 0 24 24"><path fill="currentColor" d="M7.885 13.692v3q0 .348.23.578q.23.23.577.23h.385q.348 0 .578-.23q.23-.23.23-.578v-3h.192q.313-.063.56-.264q.248-.201.248-.543v-1.77q0-.632-.434-1.066q-.434-.434-1.066-.434h-1q-.633 0-1.067.434q-.433.434-.433 1.066v1.77q0 .342.247.543q.247.2.56.264zm1-5q.448 0 .753-.304t.304-.753q0-.448-.305-.753t-.752-.305q-.448 0-.753.305t-.305.753q0 .448.305.753t.753.304m5.303 1.808h2.239q.165 0 .236-.128q.07-.128-.003-.262l-1.14-1.82q-.073-.134-.213-.134t-.214.134l-1.138 1.82q-.073.134-.003.262q.07.128.235.128m1.333 5.21l1.139-1.82q.073-.134.003-.262q-.07-.128-.236-.128h-2.239q-.165 0-.235.128q-.07.128.003.262l1.138 1.82q.073.134.214.134q.14 0 .213-.134M5.615 20q-.69 0-1.152-.462Q4 19.075 4 18.385V5.615q0-.69.463-1.152Q4.925 4 5.615 4h12.77q.69 0 1.152.463q.463.462.463 1.152v12.77q0 .69-.462 1.152q-.463.463-1.153.463z"/></svg>