<svg xmlns="http://www.w3.org/2000/svg" width="1em" height="1em" viewBox="0 0 24 24"><path fill="currentColor" d="M18.077 19.192H5.269q-.49 0-.724-.431q-.233-.432.059-.836l3.604-5.062q.217-.323.575-.497q.357-.174.742-.174h3.89q.135 0 .25-.057q.116-.058.212-.154l4.392-5.131q.373-.429.898-.23q.525.2.525.765v10.192q0 .671-.472 1.143t-1.143.472M7.288 9.808l-3.273 4.586q-.115.177-.313.201q-.198.024-.375-.091q-.177-.116-.201-.314q-.024-.198.091-.375l3.087-4.33q.217-.323.575-.5t.742-.177h4.198l4.185-4.898q.14-.172.338-.177q.198-.006.37.134q.17.14.186.33q.015.188-.125.359l-4.03 4.686q-.218.273-.531.42q-.314.146-.681.146zm-1.646 8.384h12.435q.27 0 .442-.173q.173-.173.173-.442V7.892l-4.065 4.735q-.217.273-.53.42q-.314.145-.682.145H9.52q-.154 0-.279.068t-.22.182zm13.05 0"/></svg>