<svg xmlns="http://www.w3.org/2000/svg" width="1em" height="1em" viewBox="0 0 24 24"><path fill="currentColor" d="M12 20.775q-.304 0-.598-.125q-.295-.125-.539-.354l-7.16-7.16q-.228-.243-.353-.538q-.125-.294-.125-.598t.121-.602q.121-.298.358-.535l7.16-7.16q.243-.249.538-.364q.294-.114.598-.114t.602.118q.298.119.535.36l7.16 7.16q.241.237.36.53q.118.294.118.607q0 .304-.114.598q-.115.295-.365.539l-7.16 7.16q-.236.236-.53.357t-.606.121m.442-1.192l7.14-7.14q.155-.155.155-.443t-.154-.442l-7.14-7.14q-.155-.155-.443-.155t-.442.154l-7.14 7.14q-.155.155-.155.443t.154.442l7.14 7.14q.155.155.443.155t.442-.154m-.441-6.41q.212 0 .356-.144q.143-.143.143-.356v-4.23q0-.213-.144-.357T12 7.942t-.356.144q-.143.144-.143.356v4.231q0 .213.144.356q.144.144.357.144M12 15.403q.262 0 .438-.176q.177-.177.177-.439q0-.261-.177-.438q-.176-.177-.438-.177t-.438.177q-.177.177-.177.438q0 .262.177.439q.176.177.438.177M12 12"/></svg>