<svg xmlns="http://www.w3.org/2000/svg" width="1em" height="1em" viewBox="0 0 24 24"><path fill="currentColor" d="M6.422 19.86q-.07.067-.155.103q-.085.037-.19.037q-.104 0-.199-.04q-.095-.042-.166-.112q-.795-.87-1.253-1.9Q4 16.914 4 15.777q0-.826.237-1.764q.236-.937.853-2.402q.537-1.349.752-2.105q.216-.757.216-1.413q0-.887-.375-1.682q-.375-.796-1.175-1.552q-.082-.079-.117-.177q-.035-.098-.035-.196q0-.097.027-.183q.027-.085.09-.158q.077-.073.178-.12q.1-.045.195-.045t.182.043q.087.044.162.116q.85.814 1.359 1.804q.509.99.509 2.125q0 .76-.221 1.617q-.222.856-.813 2.299q-.568 1.396-.793 2.215q-.225.82-.225 1.544q0 .914.362 1.764q.363.85 1.113 1.663q.057.073.086.159q.03.085.03.17q0 .097-.047.195q-.046.097-.128.165m4.471.003q-.07.064-.156.09q-.085.028-.18.028q-.094 0-.197-.03q-.104-.03-.177-.103q-.795-.888-1.253-1.913t-.459-2.178q0-.836.237-1.755q.236-.92.854-2.39q.517-1.33.742-2.106t.225-1.44q0-.866-.375-1.652q-.375-.785-1.175-1.554q-.07-.077-.111-.18q-.041-.102-.041-.205q0-.085.027-.17t.09-.159q.077-.073.176-.12t.205-.045q.106 0 .187.043q.08.044.15.116q.85.814 1.358 1.804q.509.99.509 2.116q0 .788-.233 1.655q-.232.866-.808 2.262q-.586 1.404-.801 2.223q-.216.82-.216 1.544q0 .909.353 1.753q.353.843 1.103 1.65q.064.075.102.164q.038.09.038.191q0 .102-.046.193q-.046.092-.128.168m4.471-.003q-.07.067-.155.103q-.085.037-.19.037q-.104 0-.199-.04q-.095-.042-.166-.112q-.794-.87-1.263-1.9q-.468-1.033-.468-2.17q0-.826.246-1.764t.864-2.402q.536-1.349.752-2.105Q15 8.75 15 8.094q0-.887-.375-1.682q-.375-.796-1.175-1.552q-.073-.079-.11-.177q-.036-.098-.036-.202q0-.09.024-.164q.024-.073.088-.15q.078-.077.18-.122Q13.7 4 13.8 4q.099 0 .18.038q.08.039.154.102q.85.814 1.358 1.804q.509.99.509 2.116q0 .788-.234 1.645q-.233.857-.826 2.297q-.586 1.423-.802 2.223q-.215.8-.215 1.517q0 .896.375 1.744q.375.847 1.125 1.685q.058.073.087.159q.028.085.028.17q0 .097-.046.195q-.046.097-.128.165M19.5 11q-.212 0-.356-.144T19 10.5q0-.212.144-.356q.144-.143.357-.143q.212 0 .356.144q.143.144.143.357q0 .212-.144.356q-.144.143-.357.143m0-2.77q-.212 0-.356-.143Q19 7.943 19 7.731V4.5q0-.213.144-.356T19.5 4q.212 0 .356.144q.143.144.143.356v3.23q0 .213-.144.357t-.357.144"/></svg>