<svg xmlns="http://www.w3.org/2000/svg" width="1em" height="1em" viewBox="0 0 24 24"><path fill="currentColor" d="M11.994 1.885q-1.554 0-2.99.478q-1.435.48-2.667 1.393l-.714-.714q1.373-1.054 2.998-1.605Q10.246.885 12 .885q1.835 0 3.516.602q1.682.601 3.1 1.75q.17.16.215.373q.044.213-.126.378q-.155.166-.378.156q-.223-.01-.394-.169q-1.258-1.027-2.782-1.559q-1.524-.531-3.157-.531m0 4q-.74 0-1.445.19q-.705.192-1.337.556l-.72-.714q.78-.498 1.673-.765q.895-.267 1.835-.267q1.05 0 2.03.333q.982.334 1.805.932q.164.122.17.317q.007.195-.14.34q-.134.135-.34.14q-.208.007-.385-.103q-.702-.482-1.498-.72q-.796-.24-1.649-.24m4.91 8.45l-4.27-4.276h.04q1.66.211 2.83 1.396q1.17 1.184 1.4 2.87zm-1.422 2.562l-5.373-5.373q-.946.517-1.527 1.478Q8 13.961 8 15.15q0 1.125 1.063 2.763T12 21.325q1.263-1.194 2.148-2.322q.885-1.128 1.333-2.107M12 22.362q-.163 0-.296-.044q-.134-.043-.265-.168q-.652-.61-1.432-1.422q-.781-.813-1.446-1.721q-.666-.909-1.114-1.898Q7 16.119 7 15.15q0-1.383.654-2.533t1.74-1.807L3.215 4.63q-.14-.14-.15-.343q-.01-.204.15-.364t.354-.16q.194 0 .354.16l16.23 16.23q.141.141.15.345q.01.204-.15.364q-.159.16-.353.16t-.354-.16l-3.183-3.183q-.684 1.315-1.678 2.37q-.995 1.055-2.025 2.082q-.131.125-.263.178q-.133.053-.296.053m-.006-6.247q-.466 0-.788-.326q-.322-.327-.322-.794t.325-.788q.325-.322.79-.322q.223 0 .428.084q.204.084.362.242q.158.159.242.364t.083.43q0 .466-.326.788q-.327.322-.794.322m-.245.316"/></svg>