<svg xmlns="http://www.w3.org/2000/svg" width="1em" height="1em" viewBox="0 0 24 24"><path fill="currentColor" d="M11.998 10q2.104 0 3.553 1.507Q17 13.015 17 15.15q0 .729-.287 1.522q-.286.793-.818 1.633t-1.312 1.738t-1.756 1.851q-.18.162-.393.25q-.212.087-.434.087t-.434-.088q-.212-.087-.393-.249q-.994-.97-1.775-1.89q-.78-.917-1.316-1.77q-.536-.85-.809-1.629Q7 15.827 7 15.15q0-2.135 1.447-3.643Q9.895 10 11.998 10m.007 6.115q.466 0 .788-.326q.322-.327.322-.794t-.326-.788q-.327-.322-.794-.322t-.788.326q-.322.327-.322.794t.326.788q.327.322.794.322m-.002-10.23q-.85 0-1.645.238q-.796.239-1.498.721q-.17.11-.378.097t-.344-.15q-.15-.149-.143-.336q.006-.188.17-.305q.823-.598 1.806-.932q.982-.333 2.032-.333t2.03.333q.979.334 1.802.932q.164.122.17.317q.007.195-.14.34q-.134.135-.34.14q-.208.007-.385-.103q-.702-.482-1.494-.72q-.793-.24-1.643-.24m-.003-4q-1.627 0-3.148.52q-1.521.52-2.779 1.546q-.171.16-.394.166q-.223.007-.389-.148q-.165-.17-.111-.38q.054-.211.225-.37q1.398-1.149 3.09-1.741q1.69-.592 3.516-.592t3.506.602q1.682.601 3.1 1.75q.17.16.215.373q.044.213-.126.378q-.155.166-.378.156q-.223-.01-.394-.169q-1.258-1.027-2.782-1.559q-1.524-.531-3.151-.531"/></svg>