<svg xmlns="http://www.w3.org/2000/svg" width="1em" height="1em" viewBox="0 0 24 24"><path fill="currentColor" d="M10.615 20.615q-.213 0-.356-.143t-.144-.357v-5.192q0-.136.016-.273q.015-.137.065-.267l.992-2.802q.162-.48.586-.78q.424-.301.95-.301h5.553q.525 0 .949.3q.424.3.586.78l.992 2.803q.05.13.065.267q.016.137.016.273v5.192q0 .213-.144.357t-.357.143q-.213 0-.356-.143q-.143-.144-.143-.357v-1.192h-8.77v1.192q0 .213-.144.357t-.356.143m.731-6.769h8.308l-.72-2.038q-.057-.193-.21-.308q-.155-.115-.366-.115h-5.716q-.211 0-.365.115t-.212.308zm-.346.885v3.307zm1.577 2.461q.376 0 .63-.254q.255-.254.255-.63t-.255-.63q-.254-.255-.63-.255t-.63.254q-.255.255-.255.63t.255.631q.254.254.63.254m5.846 0q.376 0 .63-.254q.255-.254.255-.63t-.255-.63q-.254-.255-.63-.255t-.63.254q-.255.255-.255.63t.255.631q.254.254.63.254M6.346 12.615v-1.538h1.539v1.538zm4-5V6.077h1.539v1.538zm-4 9v-1.538h1.539v1.538zm0 4v-1.538h1.539v1.538zm-3.23 0V8.885q0-.44.298-.74q.3-.299.74-.299h2.961V3.885q0-.44.3-.74q.298-.299.739-.299h5.923q.44 0 .74.3q.298.298.298.739v4.384h-1V3.846h-6v5h-4v11.77zM11 18.038h9v-3.307h-9z"/></svg>