<svg xmlns="http://www.w3.org/2000/svg" width="1em" height="1em" viewBox="0 0 24 24"><path fill="currentColor" d="M5 20v-1h14v1zm3.135-3.77q-1.304 0-2.22-.886Q5 14.458 5 13.192V4h14.308q.698 0 1.195.472q.497.472.497 1.163v2.23q0 .69-.497 1.163q-.497.472-1.195.472h-2v3.692q0 1.266-.916 2.152q-.915.887-2.219.887zm0-11.23h8.173H6zm9.173 3.5h2q.288 0 .49-.183q.202-.182.202-.452v-2.23q0-.27-.202-.452Q19.596 5 19.308 5h-2zm-3.135 6.73q.88 0 1.508-.6q.627-.601.627-1.445V5H9.885v1.17l1.53 1.257q.05.05.2.4v3.02q0 .2-.15.35t-.35.15h-3.23q-.2 0-.35-.15t-.15-.35v-3.02q0-.05.2-.4l1.53-1.258V5H6v8.185q0 .844.627 1.445q.627.6 1.508.6zM9.115 5h.77z"/></svg>