<svg xmlns="http://www.w3.org/2000/svg" width="1em" height="1em" viewBox="0 0 24 24"><path fill="currentColor" d="M12 21q-1.863 0-3.506-.71t-2.857-1.927Q4.42 17.148 3.71 15.506Q3 13.863 3 12q0-2.762 1.528-5.009q1.528-2.247 4.049-3.297q.221-.084.441-.011q.22.073.3.28q.072.202-.03.388q-.101.186-.298.27q-2.24.916-3.615 2.922Q4 9.55 4 12q0 3.35 2.325 5.675T12 20q3.35 0 5.675-2.325T20 12q0-2.45-1.375-4.457T15.01 4.621q-.197-.084-.298-.27q-.102-.186-.03-.388q.074-.207.288-.286t.43.006q2.527 1.044 4.063 3.294Q21 9.227 21 12q0 1.863-.71 3.506t-1.927 2.857q-1.215 1.216-2.857 1.926Q13.863 21 12 21m-.5-7.633V3.52q0-.213.143-.356q.144-.144.357-.144t.357.144q.143.143.143.356v9.848l2.746-2.74q.14-.14.341-.153t.367.153q.16.16.16.354q0 .194-.16.354l-3.389 3.388q-.242.242-.565.242q-.323 0-.565-.242l-3.389-3.388q-.14-.14-.153-.342q-.012-.2.153-.366q.16-.16.354-.16t.354.16z"/></svg>