<svg xmlns="http://www.w3.org/2000/svg" width="1em" height="1em" viewBox="0 0 24 24"><path fill="currentColor" d="M10.98 14.5h2.04l-.557-3.09q.443-.154.73-.543q.288-.388.288-.867q0-.613-.434-1.047q-.434-.434-1.047-.434t-1.047.434q-.434.434-.434 1.047q0 .479.288.867q.287.389.73.543zM12 20.962q-3.013-.895-5.007-3.651Q5 14.554 5 11.1V5.692l7-2.615l7 2.615V11.1q0 3.454-1.993 6.21q-1.994 2.757-5.007 3.652m0-1.062q2.6-.825 4.3-3.3t1.7-5.5V6.375l-6-2.23l-6 2.23V11.1q0 3.025 1.7 5.5t4.3 3.3m0-7.88"/></svg>