<svg xmlns="http://www.w3.org/2000/svg" width="1em" height="1em" viewBox="0 0 24 24"><path fill="currentColor" d="M11.465 14.5h1.07q.181 0 .317-.151q.136-.152.086-.334l-.475-2.605q.443-.154.73-.545q.288-.392.288-.865q0-.61-.436-1.046t-1.047-.435q-.611 0-1.045.435q-.434.435-.434 1.046q0 .473.288.865q.287.39.73.545l-.475 2.605q-.05.182.086.334q.136.151.317.151M12 20.842q-.137 0-.287-.025t-.28-.075Q8.48 19.617 6.74 16.926Q5 14.235 5 11.1V6.817q0-.514.293-.926q.293-.412.757-.597l5.385-2q.292-.106.565-.106q.273 0 .565.106l5.385 2q.464.185.757.597t.293.926V11.1q0 3.135-1.74 5.826t-4.692 3.816q-.131.05-.281.075t-.287.025"/></svg>