<svg xmlns="http://www.w3.org/2000/svg" width="1em" height="1em" viewBox="0 0 24 24"><path fill="currentColor" d="M5.077 15.85V6.323q-.623-.558-1.155-1.233T2.97 3.656q-.098-.177-.019-.36q.079-.184.262-.258q.201-.073.403.004t.306.273q1.252 2.177 3.395 3.47Q9.46 8.077 12 8.077q2.51 0 4.632-1.262q2.122-1.261 3.38-3.396q.134-.227.339-.353q.205-.126.437-.028q.189.08.247.287q.057.208-.047.39q-.415.748-.931 1.402q-.517.654-1.134 1.206v9.527q0 1.01.48 1.863q.48.852 1.3 1.385q.172.104.24.306q.067.202 0 .404q-.068.188-.242.27q-.174.082-.351-.016q-1.113-.643-1.77-1.761q-.657-1.118-.657-2.451v-8.7q-1.286.913-2.79 1.42q-1.502.507-3.133.507T8.863 8.57q-1.505-.507-2.786-1.42v8.7q0 1.333-.66 2.451t-1.792 1.76q-.177.099-.348.017q-.171-.082-.239-.27q-.067-.202 0-.404q.068-.202.239-.306q.821-.527 1.31-1.383q.49-.855.49-1.865M10.25 18q-.942 0-1.596-.654Q8 16.692 8 15.75v-4.498q0-.24.182-.379q.181-.138.416-.058l.252.081q1.073.371 1.876 1.116q.803.746 1.274 1.696q.452-.95 1.264-1.667q.813-.716 1.886-1.145l.252-.08q.235-.081.416.057q.182.139.182.379v4.498q0 .942-.654 1.596q-.654.654-1.596.654q-.537 0-.991-.232q-.455-.231-.759-.62q-.304.389-.759.62q-.454.232-.991.232"/></svg>