<svg xmlns="http://www.w3.org/2000/svg" width="1em" height="1em" viewBox="0 0 24 24"><path fill="currentColor" d="m3.185 20.277l-.318-.939q.973-.484 1.592-1.426q.618-.943.618-2.062V6.323q-.715-.65-1.3-1.429q-.583-.779-1.029-1.667l.927-.396Q4.86 5.223 7.095 6.65Q9.331 8.077 12 8.077q2.688 0 4.914-1.427q2.226-1.427 3.411-3.82l.927.397q-.446.888-1.033 1.667q-.586.78-1.296 1.43v9.526q0 1.12.606 2.062q.606.942 1.579 1.426l-.318.939q-1.303-.57-2.085-1.767q-.782-1.198-.782-2.66v-8.7q-1.286.913-2.79 1.42q-1.502.507-3.133.507T8.863 8.57q-1.505-.507-2.786-1.42v8.7q0 1.462-.794 2.66q-.795 1.198-2.098 1.767M10.25 18q-.942 0-1.596-.654Q8 16.692 8 15.75v-5.121l.312.075q1.246.371 2.212 1.164q.966.794 1.476 1.84q.51-1.066 1.466-1.85q.957-.783 2.222-1.173L16 10.61v5.14q0 .942-.654 1.596q-.654.654-1.596.654q-.537 0-.991-.232q-.455-.231-.759-.62q-.304.389-.759.62q-.454.232-.991.232"/></svg>