<svg xmlns="http://www.w3.org/2000/svg" width="1em" height="1em" viewBox="0 0 24 24"><path fill="currentColor" d="M3.615 21q-.666 0-1.14-.475Q2 20.051 2 19.385V6.615q0-.666.475-1.14Q2.949 5 3.614 5H11q.213 0 .356.144q.144.144.144.357q0 .212-.144.356Q11.213 6 11 6H3.615q-.269 0-.442.173T3 6.615v12.77q0 .269.173.442t.442.173h12.77q.269 0 .442-.173t.173-.442V14q0-.213.144-.356t.357-.144q.212 0 .356.144q.143.144.143.356v5.385q0 .666-.475 1.14q-.474.475-1.14.475zm2.615-9.5q-.213 0-.356.144T5.731 12v5q0 .213.144.356q.144.144.356.144q.213 0 .357-.144q.143-.144.143-.356v-5q0-.213-.144-.356T6.23 11.5m3.77-3q-.213 0-.357.144Q9.5 8.787 9.5 9v8q0 .213.144.356q.144.144.357.144t.356-.144q.143-.143.143-.356V9q0-.213-.144-.356Q10.212 8.5 10 8.5m3.77 6q-.213 0-.357.144q-.143.144-.143.356v2q0 .213.144.356t.357.144q.213 0 .356-.144T14.27 17v-2q0-.213-.144-.356q-.144-.144-.356-.144m4.231-3q-.788 0-1.513-.26q-.725-.26-1.35-.75l-.683.62q-.166.14-.366.15q-.201.01-.342-.131q-.16-.16-.16-.354t.16-.354l.689-.67q-.42-.618-.677-1.312Q13.5 7.745 13.5 7q0-1.868 1.316-3.184T18 2.5h4.5V7q0 1.868-1.316 3.184T18 11.5m0-1q1.458 0 2.48-1.02Q21.5 8.457 21.5 7V3.5H18q-1.458 0-2.48 1.02Q14.5 5.543 14.5 7q0 .541.197 1.04q.197.5.457.973l3.042-3.042q.16-.16.354-.16t.35.156q.17.17.17.37t-.166.367L15.88 9.727q.44.38.993.577q.553.196 1.126.196m-.535-3.071"/></svg>