<svg xmlns="http://www.w3.org/2000/svg" width="1em" height="1em" viewBox="0 0 24 24"><path fill="currentColor" d="M2 21V5h9.5v1H3v14h14v-6.5h1V21zm3.73-3.5h1v-6h-1zm3.77 0h1v-9h-1zm3.77 0h1v-3h-1zm4.73-6q-.788 0-1.513-.26q-.725-.26-1.35-.75l-1.062.968l-.683-.683l1.043-1.023q-.42-.62-.677-1.313Q13.5 7.745 13.5 7q0-1.868 1.316-3.184T18 2.5h4.5V7q0 1.868-1.316 3.184T18 11.5m0-1q1.458 0 2.48-1.02Q21.5 8.457 21.5 7V3.5H18q-1.458 0-2.48 1.02Q14.5 5.543 14.5 7q0 .541.197 1.04q.197.5.457.973l3.396-3.396l.733.708l-3.402 3.402q.44.38.993.577q.553.196 1.126.196m-.529-3.09"/></svg>