<svg xmlns="http://www.w3.org/2000/svg" width="1em" height="1em" viewBox="0 0 24 24"><path fill="currentColor" d="M1.915 20.192v-1.646q0-.652.348-1.165q.349-.514.983-.831q1.217-.612 2.702-.985q1.485-.373 2.967-.373q1.483 0 2.968.373t2.702.985q.634.317.982.83q.348.514.348 1.166v1.646zm7-7.23q-1.284 0-2.142-.858q-.858-.858-.858-2.258h-.211q-.167 0-.276-.109t-.109-.275q0-.168.109-.276t.276-.11h.211q.039-.759.32-1.38q.28-.621.911-1.184v.95q0 .167.109.275q.108.11.276.11q.167 0 .276-.11q.108-.108.108-.275V6.15q.206-.075.466-.132q.26-.056.534-.056t.535.056q.26.057.465.132v1.312q0 .167.11.276q.108.108.275.108t.276-.109q.109-.108.109-.275v-.95q.65.563.92 1.184q.272.621.31 1.38h.212q.167 0 .276.11t.109.276q0 .167-.11.276t-.275.108h-.212q0 1.4-.857 2.258q-.858.858-2.143.858m0-1q.864 0 1.432-.569q.568-.568.568-1.431h-4q0 .863.569 1.431q.568.569 1.431.569m7.539 2.884l-.073-.711q-.189-.05-.393-.16t-.35-.256l-.661.289l-.385-.67l.589-.423q-.039-.113-.039-.207v-.406q0-.085.039-.217l-.589-.423l.385-.67l.661.289q.139-.139.347-.252q.207-.114.396-.164l.073-.711h.77l.072.711q.189.05.396.164q.208.113.346.252l.662-.289l.385.67l-.589.423q.039.132.039.217v.406q0 .094-.039.207l.589.423l-.385.67l-.662-.289q-.144.144-.349.255t-.393.16l-.073.712zm.384-1.442q.377 0 .64-.264q.264-.263.264-.64t-.263-.64q-.264-.264-.64-.264q-.377 0-.64.264q-.264.263-.264.64t.263.64q.264.264.64.264m2.031-3.98l-.084-.782q-.283-.055-.596-.226T17.69 8l-.743.312l-.43-.739l.657-.48q-.05-.145-.07-.297q-.018-.152-.018-.296t.019-.296q.02-.152.07-.296l-.659-.481l.431-.739l.742.312q.189-.246.501-.416t.596-.226l.084-.781h.862l.084.78q.283.056.596.227q.312.17.5.416l.743-.312l.43.739l-.657.48q.05.145.07.297q.018.152.018.296t-.019.296q-.02.152-.07.296l.659.481l-.431.739L20.912 8q-.189.246-.501.416q-.313.17-.596.226l-.084.781zm.431-1.559q.583 0 .974-.391t.391-.974q0-.583-.39-.974q-.392-.391-.975-.391t-.974.391q-.391.391-.391.974t.391.974q.391.391.974.391"/></svg>