<svg xmlns="http://www.w3.org/2000/svg" width="1em" height="1em" viewBox="0 0 24 24"><path fill="currentColor" d="M7.5 21q-.213 0-.356-.144T7 20.5v-3.262q-1.425-1.3-2.212-2.922T4 10.986Q4 7.66 6.333 5.33Q8.667 3 12 3q2.702 0 4.884 1.645q2.181 1.645 2.83 4.25l1.036 4.103q.1.38-.142.691t-.646.311H18v3.385q0 .666-.475 1.14q-.474.475-1.14.475H14v1.5q0 .213-.144.356T13.5 21h-2.804l.567-5.5H14q.213 0 .356-.144q.144-.144.144-.357t-.144-.356Q14.213 14.5 14 14.5h-2.633l.26-2.408q.05-.586.474-.974q.423-.387 1-.387h2.976q.212 0 .356-.144t.144-.357t-.144-.356q-.144-.143-.356-.143h-2.95q-.98 0-1.688.648t-.812 1.61L9.697 21z"/></svg>