<svg xmlns="http://www.w3.org/2000/svg" width="1em" height="1em" viewBox="0 0 24 24"><path fill="currentColor" d="M6 10.5h6V5.615q0-.23-.192-.423Q11.615 5 11.385 5h-4.77q-.23 0-.423.192Q6 5.385 6 5.615zM6 19h6v-7.5H6zm6 0H6zm.2 1H5.8q-.34 0-.57-.232q-.23-.232-.23-.576V5.615q0-.69.463-1.152Q5.925 4 6.615 4h4.77q.69 0 1.153.463q.462.462.462 1.152v6h.98q.646 0 1.102.457q.456.456.456 1.101v4.606q0 .54.437.938q.437.398.992.398q.589 0 1.013-.398q.424-.398.424-.938V8.885h-.346q-.344 0-.576-.233q-.232-.232-.232-.575V6.894q0-.157.121-.276q.121-.118.283-.118v-.73q0-.155.115-.27q.116-.115.27-.115t.269.115q.115.115.115.27v.73h.846v-.73q0-.155.116-.27q.115-.115.269-.115t.27.115q.114.115.114.27v.73q.162 0 .283.118q.121.119.121.276v1.183q0 .343-.232.575q-.232.233-.575.233h-.347v8.894q0 .915-.67 1.568q-.672.653-1.64.653q-.947 0-1.636-.653q-.688-.653-.688-1.568v-4.606q0-.298-.188-.485q-.187-.188-.485-.188H13v6.692q0 .344-.23.576q-.23.232-.57.232m-3.546-1.885l1.77-3.23h-1.06v-2.52l-1.788 3.231h1.077z"/></svg>