<svg xmlns="http://www.w3.org/2000/svg" width="1em" height="1em" viewBox="0 0 24 24"><path fill="currentColor" d="M17 20.538v-3h-3v-1h3v-3h1v3h3v1h-3v3zM12 21q-1.868 0-3.51-.708q-1.642-.709-2.857-1.924q-1.215-1.214-1.924-2.856Q3 13.87 3 12.003q0-1.866.708-3.51q.709-1.643 1.924-2.859q1.214-1.216 2.856-1.925Q10.13 3 11.997 3q1.866 0 3.51.709t2.859 1.924q1.216 1.215 1.925 2.857Q21 10.133 21 12q0 .2-.015.388q-.016.187-.027.364q-.462-.38-.995-.638t-1.148-.383l1.043-1.156q-.12-.662-.34-1.298q-.222-.637-.556-1.21l-8.681 8.675q.429.575.928 1.048q.499.473 1.099.864q.165.627.492 1.186q.327.56.765 1.022q-.388.069-.77.103Q12.413 21 12 21m-2.256-5.117L18.4 7.208q-.371-.493-.79-.915q-.42-.422-.918-.768l-7.863 7.87q.12.66.35 1.285q.23.624.565 1.203M8.73 12.067l7.079-7.079q-.335-.19-.68-.354q-.345-.165-.718-.272q-2.554.776-4.138 2.899q-1.584 2.122-1.543 4.806M4 12q0 3.28 2.244 5.586q2.244 2.304 5.502 2.397q.212 0 .414-.01t.413-.048q-2.165-1.106-3.513-3.216Q7.712 14.599 7.712 12t1.357-4.709q1.358-2.11 3.523-3.216q-.211-.038-.423-.048q-.211-.01-.423-.01q-3.258.093-5.502 2.397Q4 8.72 4 12m3.712 0"/></svg>