<svg xmlns="http://www.w3.org/2000/svg" width="1em" height="1em" viewBox="0 0 24 24"><path fill="currentColor" d="M14 17.538v-1h7v1zM12 21q-1.863 0-3.506-.71t-2.857-1.927Q4.42 17.148 3.71 15.506Q3 13.863 3 12t.71-3.506q.711-1.642 1.927-2.857Q6.852 4.42 8.494 3.71Q10.137 3 12 3t3.506.71q1.642.711 2.857 1.927q1.216 1.215 1.926 2.857Q21 10.137 21 12q0 .202-.015.388q-.016.187-.027.364q-.462-.38-.995-.638t-1.148-.383l1.043-1.156q-.12-.662-.34-1.298q-.222-.637-.556-1.21l-8.681 8.675q.429.575.928 1.048q.499.473 1.099.864q.165.627.492 1.186q.327.56.765 1.022q-.388.069-.77.103Q12.413 21 12 21m-2.256-5.117L18.4 7.208q-.371-.493-.79-.915q-.42-.422-.918-.768l-7.863 7.87q.12.66.35 1.285q.23.624.565 1.203M8.73 12.067l7.079-7.079q-.335-.19-.68-.354q-.345-.165-.718-.272q-2.554.776-4.138 2.899q-1.584 2.122-1.543 4.806"/></svg>