<svg xmlns="http://www.w3.org/2000/svg" width="1em" height="1em" viewBox="0 0 24 24"><path fill="currentColor" d="M5.615 21q-.69 0-1.152-.462Q4 20.075 4 19.385V6.615q0-.69.463-1.152Q4.925 5 5.615 5h1.77V3.308q0-.23.155-.384q.156-.155.386-.155t.383.155q.153.155.153.384V5h7.153V3.27q0-.213.144-.357t.357-.144q.213 0 .356.144t.143.356V5h1.77q.69 0 1.152.463q.463.462.463 1.152v12.77q0 .69-.462 1.152q-.463.463-1.153.463zm0-1h12.77q.23 0 .423-.192q.192-.193.192-.423v-8.77H5v8.77q0 .23.192.423q.193.192.423.192M8 13.5q-.213 0-.356-.144Q7.5 13.212 7.5 13t.144-.356Q7.788 12.5 8 12.5h8q.213 0 .356.144q.144.144.144.357t-.144.356q-.143.143-.356.143zm0 4q-.213 0-.356-.144Q7.5 17.212 7.5 17t.144-.356Q7.788 16.5 8 16.5h5q.213 0 .356.144q.144.144.144.357t-.144.356q-.143.143-.356.143z"/></svg>