<svg xmlns="http://www.w3.org/2000/svg" width="1em" height="1em" viewBox="0 0 24 24"><path fill="currentColor" d="M15.615 20q-.402 0-.7-.299q-.3-.3-.3-.701v-4.385q0-.402.3-.7q.298-.3.7-.3H20q.402 0 .701.3q.299.298.299.7V19q0 .402-.299.701q-.3.299-.701.299zM3.5 17.308q-.213 0-.357-.144Q3 17.021 3 16.808q0-.214.143-.357q.144-.143.357-.143h7.23q.214 0 .358.143q.143.143.143.357q0 .213-.143.356t-.357.144zm12.115-6.923q-.402 0-.7-.3q-.3-.298-.3-.7V5q0-.402.3-.701q.298-.299.7-.299H20q.402 0 .701.299q.299.3.299.701v4.385q0 .402-.299.7q-.3.3-.701.3zM3.5 7.692q-.213 0-.357-.143Q3 7.406 3 7.192q0-.213.143-.356q.144-.144.357-.144h7.23q.214 0 .358.144t.143.356q0 .214-.143.357q-.144.143-.357.143z"/></svg>