<svg xmlns="http://www.w3.org/2000/svg" width="1em" height="1em" viewBox="0 0 24 24"><path fill="currentColor" d="M18.385 21h-2.827q-.213 0-.357-.144q-.143-.144-.143-.357q0-.212.143-.356q.144-.143.357-.143h2.827q.23 0 .423-.192q.192-.193.192-.423v-8.77H5V14q0 .213-.144.356t-.357.144q-.212 0-.356-.144Q4 14.213 4 14V6.615q0-.69.463-1.152Q4.925 5 5.615 5h1.77V3.308q0-.23.155-.384q.156-.155.386-.155t.383.155q.153.155.153.384V5h7.153V3.27q0-.213.144-.357t.357-.144q.213 0 .356.144t.143.356V5h1.77q.69 0 1.152.463q.463.462.463 1.152v12.77q0 .69-.462 1.152q-.463.463-1.153.463m-8.018-1.5H2q-.213 0-.356-.144Q1.5 19.212 1.5 19t.144-.356Q1.788 18.5 2 18.5h8.367l-2.72-2.765q-.141-.14-.144-.332q-.003-.191.143-.34q.134-.138.341-.138t.348.14l3.388 3.37q.242.242.242.565q0 .323-.242.565l-3.388 3.389q-.14.14-.342.134q-.2-.007-.35-.157q-.137-.137-.137-.331t.14-.335z"/></svg>