<svg xmlns="http://www.w3.org/2000/svg" width="1em" height="1em" viewBox="0 0 24 24"><path fill="currentColor" d="M5.615 21q-.69 0-1.152-.462Q4 20.075 4 19.385V6.615q0-.69.463-1.152Q4.925 5 5.615 5h1.77V2.77h1.077V5h7.153V2.77h1V5h1.77q.69 0 1.152.463q.463.462.463 1.152v5.693h-1v-1.693H5v8.77q0 .23.192.423q.193.192.423.192h6.673v1zM19 23.692q-1.594 0-2.832-.964q-1.237-.965-1.664-2.42h.934q.402 1.119 1.353 1.81q.951.69 2.209.69q1.585 0 2.696-1.112q1.112-1.111 1.112-2.696q0-1.585-1.112-2.696q-1.111-1.112-2.696-1.112q-.917 0-1.754.446q-.836.445-1.446 1.17h1.892v.884h-3.384v-3.384h.884v1.848q.714-.823 1.71-1.336q.996-.512 2.098-.512q1.94 0 3.316 1.376T23.692 19t-1.376 3.316Q20.94 23.692 19 23.692"/></svg>