<svg xmlns="http://www.w3.org/2000/svg" width="1em" height="1em" viewBox="0 0 24 24"><path fill="currentColor" d="m19.475 9.294l-4.8-4.8l.425-.425q.306-.306.742-.303q.437.003.743.309l3.32 3.34q.307.306.307.73t-.306.73zM8.823 19.977q-.286.286-.71.306q-.425.019-.711-.268l-3.379-3.36q-.306-.305-.306-.739q0-.433.306-.74l.496-.495l4.8 4.8zm3.317-.065q-.242.242-.565.242q-.323 0-.565-.242L4.088 12.99q-.242-.242-.242-.565q0-.323.242-.565l1.483-1.489q.242-.242.568-.242q.326 0 .569.242l1.863 1.883l3.689-3.689l-1.883-1.863q-.242-.242-.242-.565t.242-.566l1.483-1.508q.242-.242.578-.242q.335 0 .577.242l6.922 6.922q.242.242.242.578q0 .335-.242.577l-1.508 1.483q-.242.242-.566.242q-.323 0-.565-.242l-1.863-1.883l-3.689 3.689l1.883 1.863q.242.243.242.569q0 .326-.242.568z"/></svg>