<svg xmlns="http://www.w3.org/2000/svg" width="1em" height="1em" viewBox="0 0 24 24"><path fill="currentColor" d="M5 21q-.213 0-.356-.144q-.144-.144-.144-.357q0-.212.144-.356Q4.788 20 5 20h14q.213 0 .356.144t.144.357q0 .212-.144.356Q19.213 21 19 21zm6.997-2.713q-.159 0-.295-.053q-.137-.053-.274-.19l-2.382-2.382q-.14-.14-.153-.342q-.012-.2.157-.37q.156-.156.347-.159q.191-.003.357.157l1.746 1.74V7.312l-1.746 1.74q-.14.14-.341.15q-.201.01-.371-.16q-.155-.155-.155-.35q0-.194.16-.354l2.381-2.381q.137-.138.276-.19q.14-.054.299-.054q.159 0 .295.053q.137.053.274.19l2.382 2.382q.14.14.153.342q.012.2-.157.37q-.156.156-.347.159q-.191.003-.357-.157L12.5 7.312v9.376l1.746-1.74q.14-.14.341-.15q.201-.01.371.16q.155.155.155.35q0 .194-.16.354l-2.381 2.381q-.137.138-.276.19q-.14.054-.299.054M5 4q-.213 0-.356-.144T4.5 3.5q0-.212.144-.356T5 3h14q.213 0 .356.144q.144.144.144.357q0 .212-.144.356Q19.213 4 19 4z"/></svg>