<svg xmlns="http://www.w3.org/2000/svg" width="1em" height="1em" viewBox="0 0 24 24"><path fill="currentColor" d="M10.5 15.5v-3H14q.213 0 .357-.143q.143-.144.143-.357t-.143-.357Q14.213 11.5 14 11.5h-3.5v-3H14q.213 0 .357-.143q.143-.144.143-.357t-.143-.357Q14.213 7.5 14 7.5h-4q-.213 0-.357.143Q9.5 7.787 9.5 8v8q0 .213.143.357q.144.143.357.143h4q.213 0 .357-.143q.143-.144.143-.357t-.143-.357Q14.213 15.5 14 15.5zM5.615 20q-.69 0-1.152-.462Q4 19.075 4 18.385V5.615q0-.69.463-1.152Q4.925 4 5.615 4h12.77q.69 0 1.152.463q.463.462.463 1.152v12.77q0 .69-.462 1.152q-.463.463-1.153.463zm0-1h12.77q.23 0 .423-.192q.192-.193.192-.423V5.615q0-.23-.192-.423Q18.615 5 18.385 5H5.615q-.23 0-.423.192Q5 5.385 5 5.615v12.77q0 .23.192.423q.193.192.423.192M5 5v14z"/></svg>