<svg xmlns="http://www.w3.org/2000/svg" width="1em" height="1em" viewBox="0 0 24 24"><path fill="currentColor" d="M12 22q-.537 0-1.121-.085q-.585-.084-1.41-.267q-1.854 1.529-4.241 1.23q-2.388-.3-3.518-2.245q-.972-1.639-.59-3.504q.38-1.866 1.905-3.123q-.02-.218-.02-.5v-.498q-1.434-1.156-1.828-3.042q-.394-1.885.488-3.447q.887-1.517 2.522-2.099q1.634-.582 3.319-.082q.454-1.482 1.687-2.41Q10.427 1 12 1t2.807.928q1.233.928 1.687 2.41q1.685-.5 3.33.082q1.643.582 2.51 2.1q.883 1.542.49 3.427q-.395 1.886-1.83 3.06v.5q0 .281-.019.499q1.525 1.257 1.906 3.113q.38 1.856-.59 3.514q-1.131 1.946-3.519 2.245q-2.387.299-4.241-1.23q-.825.183-1.41.267Q12.537 22 12 22m-3.723-.827q-.915-.43-1.727-1.028q-.812-.597-1.45-1.374q-.638-.777-1.101-1.666q-.462-.89-.724-1.88q-1 .996-1.192 2.355q-.193 1.358.486 2.541q.821 1.392 2.547 1.713q1.726.32 3.16-.66m7.447 0q1.435.98 3.16.66q1.727-.32 2.548-1.713q.679-1.183.486-2.541q-.192-1.359-1.192-2.355q-.242.99-.714 1.88q-.473.89-1.111 1.666q-.638.777-1.437 1.374q-.8.597-1.74 1.028M12 21q3.35 0 5.675-2.325T20 13q0-.84-.16-1.628q-.161-.787-.482-1.509q-.669.482-1.476.747q-.807.265-1.757.265q-2.342 0-3.983-1.642Q10.5 7.592 10.5 5.25v-.115q-2.792.534-4.646 2.732Q4 10.065 4 13q0 3.35 2.325 5.675T12 21m-3-5.75q-.525 0-.888-.363T7.75 14q0-.525.363-.888T9 12.75q.525 0 .888.363t.362.887q0 .525-.363.888T9 15.25m6 0q-.525 0-.888-.363T13.75 14q0-.525.363-.888T15 12.75q.525 0 .888.363t.362.887q0 .525-.363.888T15 15.25M3.138 11.573q.149-.979.499-1.876q.35-.897.882-1.687q.533-.79 1.23-1.477t1.54-1.187q-1.345-.442-2.69-.013t-2.068 1.68q-.616 1.05-.425 2.358q.19 1.308 1.032 2.202m17.724 0q.861-.894 1.042-2.202q.18-1.308-.435-2.358q-.723-1.251-2.068-1.69q-1.345-.438-2.69.023q.843.5 1.54 1.187q.697.686 1.23 1.477q.532.79.882 1.687t.499 1.876m-4.737-1.698q.84 0 1.533-.235q.692-.234 1.255-.653q-.505-.916-1.24-1.64q-.735-.724-1.623-1.257q-.888-.532-1.907-.811Q13.125 5 12 5q-.135.012-.25.029t-.25.048v.173q0 1.917 1.354 3.271q1.354 1.354 3.271 1.354m-.677-5.167q-.327-1.189-1.273-1.948Q13.229 2 12 2t-2.156.75q-.927.75-1.177 1.9q.766-.315 1.611-.483T12 4q.909 0 1.786.177t1.662.53M18.9 18.772"/></svg>