<svg xmlns="http://www.w3.org/2000/svg" width="1em" height="1em" viewBox="0 0 24 24"><path fill="currentColor" d="M4.615 20q-.69 0-1.152-.462Q3 19.075 3 18.385V5.615q0-.69.463-1.152Q3.925 4 4.615 4h14.77q.69 0 1.152.463q.463.462.463 1.152v12.77q0 .69-.462 1.152q-.463.463-1.153.463zM9 16.5q.213 0 .356-.144q.144-.144.144-.357t-.144-.356Q9.213 15.5 9 15.5H6q-.213 0-.356.144q-.144.144-.144.357t.144.356q.144.143.356.143zm5.55-3.613l-1.071-1.072q-.146-.146-.354-.152q-.208-.007-.354.158q-.14.146-.133.354q.006.208.152.354l1.195 1.194q.242.242.565.242q.323 0 .565-.242l3.32-3.32q.146-.145.155-.343q.01-.198-.155-.364q-.166-.165-.357-.165t-.357.165zM9 12.5q.213 0 .356-.144q.144-.144.144-.357t-.144-.356Q9.213 11.5 9 11.5H6q-.213 0-.356.144q-.144.144-.144.357t.144.356q.144.143.356.143zm0-4q.213 0 .356-.144q.144-.144.144-.357t-.144-.356Q9.213 7.5 9 7.5H6q-.213 0-.356.144Q5.5 7.788 5.5 8t.144.356Q5.788 8.5 6 8.5z"/></svg>