<svg xmlns="http://www.w3.org/2000/svg" width="1em" height="1em" viewBox="0 0 24 24"><path fill="currentColor" d="M18 5.808q-.698 0-1.195-.497q-.497-.498-.497-1.196t.497-1.195q.497-.497 1.195-.497t1.195.497q.497.497.497 1.195q0 .698-.497 1.196q-.497.497-1.195.497M16.73 21.5v-7.77q0-.873-.396-1.573q-.397-.7-1.178-1.11l1.048-2.749q.2-.548.699-.885q.499-.336 1.097-.336t1.097.327q.5.327.7.894l2.703 7.087h-2.654V21.5zm-4.232-10.077q-.546 0-.926-.382t-.38-.928q0-.546.382-.925t.928-.38q.546 0 .926.382t.38.928q0 .545-.382.925t-.928.38M5.5 5.808q-.698 0-1.195-.497q-.497-.498-.497-1.196t.497-1.195q.497-.497 1.195-.497t1.195.497q.497.497.497 1.195q0 .698-.497 1.196q-.497.497-1.195.497M3.73 21.5v-6.577H2.078V9.038q0-.666.474-1.14q.475-.475 1.141-.475h3.616q.666 0 1.14.475t.475 1.14v5.885H7.27V21.5zm7.54 0V18h-1v-4.27q0-.512.358-.871q.36-.359.872-.359h2q.513 0 .872.359t.359.872V18h-1v3.5z"/></svg>