<svg xmlns="http://www.w3.org/2000/svg" width="1em" height="1em" viewBox="0 0 24 24"><path fill="currentColor" d="M11.997 15.462q1.01 0 1.804-.617q.793-.616 1.16-1.549H9.039q.368.933 1.158 1.55q.79.616 1.8.616M9.89 11.923q.467 0 .789-.327q.322-.326.322-.793q0-.466-.327-.789q-.326-.322-.793-.322t-.789.327q-.322.327-.322.793q0 .467.327.789q.326.322.793.322m4.23 0q.468 0 .79-.327q.322-.326.322-.793q0-.466-.327-.789q-.327-.322-.793-.322q-.467 0-.789.327t-.322.793q0 .467.327.789q.326.322.793.322m-5.995-4.83l2.608-3.472q.238-.32.566-.47Q11.627 3 12 3q.373 0 .701.15q.328.15.566.471l2.608 3.471l4.02 1.368q.534.18.822.606q.289.425.289.939q0 .237-.07.471q-.07.234-.228.449l-2.635 3.573l.1 3.83q.025.706-.466 1.189q-.492.483-1.144.483l-.453-.056L12 18.733l-4.11 1.211q-.125.05-.24.053q-.117.003-.213.003q-.666 0-1.15-.483q-.485-.483-.46-1.188l.1-3.856l-2.629-3.548q-.159-.217-.228-.453Q3 10.236 3 10q0-.506.297-.942q.296-.435.828-.618zm.629.859L4.462 9.398q-.289.096-.395.394q-.105.298.087.548l2.792 3.84l-.12 4.16q-.018.327.232.52q.25.192.557.096L12 17.696l4.385 1.285q.307.096.557-.096q.25-.193.231-.52l-.12-4.184l2.793-3.79q.192-.25.087-.549q-.106-.298-.395-.394l-4.292-1.496l-2.765-3.683q-.173-.25-.481-.25t-.48.25zM12 11.519"/></svg>