<svg xmlns="http://www.w3.org/2000/svg" width="1em" height="1em" viewBox="0 0 24 24"><path fill="currentColor" d="M12.003 19q-2.93 0-4.966-2.033Q5 14.933 5 12.003q0-2.93 2.033-4.966Q9.067 5 11.997 5q2.93 0 4.966 2.033Q19 9.067 19 11.997q0 2.93-2.033 4.966Q14.933 19 12.003 19M12 18q2.5 0 4.25-1.75T18 12q0-.435-.062-.857q-.063-.422-.188-.831q-.394.094-.793.14q-.4.048-.798.048q-1.676 0-3.169-.706q-1.492-.706-2.578-1.97q-.624 1.443-1.762 2.522Q7.512 11.425 6 11.938q.017 2.489 1.764 4.275Q9.512 18 12 18m-5.83-7.208q1.157-.517 2.222-1.616q1.066-1.1 1.346-2.745q-1.411.557-2.348 1.707q-.936 1.149-1.22 2.654m3.526 2.958q-.402 0-.674-.272t-.272-.674q0-.402.272-.69t.674-.287q.402 0 .69.287t.287.69q0 .402-.287.674q-.288.272-.69.272m6.458-4.25q.323 0 .617-.029t.598-.111q-.748-1.568-2.203-2.464Q13.712 6 12 6q-.42 0-.771.038q-.352.039-.708.14q.937 1.703 2.486 2.512q1.549.81 3.147.81m-1.843 4.25q-.402 0-.674-.272t-.272-.674q0-.402.272-.69q.272-.287.674-.287t.69.287t.287.69q0 .402-.287.674q-.288.272-.69.272M2 5.5V3.615q0-.69.463-1.152Q2.925 2 3.615 2H5.5q.213 0 .356.144Q6 2.288 6 2.5t-.144.356Q5.713 3 5.5 3H3.615q-.23 0-.423.192Q3 3.385 3 3.615V5.5q0 .213-.144.356T2.5 6q-.212 0-.356-.144T2 5.5M5.5 22H3.615q-.69 0-1.152-.462Q2 21.075 2 20.385V18.5q0-.213.144-.356Q2.288 18 2.5 18t.356.144q.143.144.143.356v1.885q0 .23.192.423q.193.192.423.192H5.5q.213 0 .356.144T6 21.5q0 .212-.144.356T5.5 22m14.885 0H18.5q-.213 0-.356-.144Q18 21.712 18 21.5t.144-.356q.144-.143.356-.143h1.885q.23 0 .423-.192q.192-.193.192-.423V18h1v2.385q0 .69-.462 1.152q-.463.463-1.153.463M21 5.5V3.615q0-.23-.192-.423Q20.615 3 20.385 3H18.5q-.213 0-.356-.144T18 2.5q0-.212.144-.356T18.5 2h1.885q.69 0 1.152.463q.463.462.463 1.152V5.5q0 .213-.144.356Q21.712 6 21.5 6t-.356-.144Q21 5.713 21 5.5m-11.262.93"/></svg>