<svg xmlns="http://www.w3.org/2000/svg" width="1em" height="1em" viewBox="0 0 24 24"><path fill="currentColor" d="M12 21.327q-1.325 0-2.24-.915q-.914-.914-.914-2.239q0-1.185.756-2.057q.756-.872 1.898-1.049V12.5H7.615q-.666 0-1.14-.475Q6 11.551 6 10.885V8.904H4.404q-.343 0-.576-.232q-.232-.233-.232-.576V3.911q0-.355.232-.585q.233-.23.576-.23h4.185q.355 0 .585.232q.23.233.23.576v4.185q0 .355-.232.585q-.233.23-.576.23H7v1.98q0 .27.173.443t.442.173h8.77q.269 0 .442-.173t.173-.442v-2.03q-1.142-.176-1.898-1.048q-.756-.872-.756-2.057q0-1.325.915-2.24q.915-.914 2.24-.914t2.238.915q.915.914.915 2.239q0 1.185-.756 2.057q-.756.872-1.898 1.049v2.029q0 .666-.475 1.14q-.474.475-1.14.475H12.5v2.567q1.142.177 1.898 1.05q.756.871.756 2.056q0 1.325-.915 2.24q-.915.914-2.24.914m5.505-13.423q.894 0 1.522-.632t.628-1.526t-.632-1.522q-.632-.628-1.526-.628t-1.522.632q-.628.632-.628 1.526t.632 1.522q.632.628 1.526.628m-12.908 0h3.808V4.096H4.596zm7.408 12.423q.894 0 1.522-.632t.628-1.526t-.632-1.522q-.632-.628-1.526-.628t-1.522.632q-.628.632-.628 1.526t.632 1.522q.632.628 1.526.628M12 18.173"/></svg>