<svg xmlns="http://www.w3.org/2000/svg" width="1em" height="1em" viewBox="0 0 24 24"><path fill="currentColor" d="M18 5.808q-.698 0-1.195-.497q-.497-.498-.497-1.196t.497-1.195q.497-.497 1.195-.497t1.195.497q.497.497.497 1.195q0 .698-.497 1.196q-.497.497-1.195.497M16.73 21.5V11.046h-1.574l1.479-3.97h2.75l3.115 8.309h-2.654V21.5zm-4.232-10.077q-.546 0-.926-.382t-.38-.928q0-.546.382-.925t.928-.38q.546 0 .926.382t.38.928q0 .545-.382.925t-.928.38M5.5 5.808q-.698 0-1.195-.497q-.497-.498-.497-1.196t.497-1.195q.497-.497 1.195-.497t1.195.497q.497.497.497 1.195q0 .698-.497 1.196q-.497.497-1.195.497M3.73 21.5v-6.577H2.078v-7.5h6.846v7.5H7.27V21.5zm7.54 0V18h-1v-5.5h4.46V18h-1v3.5z"/></svg>