<svg xmlns="http://www.w3.org/2000/svg" width="1em" height="1em" viewBox="0 0 24 24"><path fill="currentColor" d="M10.575 8.665V11.2q0 .127.088.212q.089.084.222.084q.132 0 .213-.085t.08-.212V8.062q0-.087-.062-.15q-.062-.062-.149-.062h-.16q-.045 0-.107.05l-.79.56q-.087.055-.109.158q-.022.103.034.209q.055.106.17.121q.116.015.22-.044zm2.508-.342q.25 0 .417.14q.167.141.167.357q0 .238-.096.43t-.302.398l-1.244 1.239q.013-.014-.075.136v.187q0 .125.085.205q.085.081.192.081h1.833q.125 0 .193-.08q.068-.081.068-.197q0-.115-.075-.186q-.075-.07-.182-.07h-1.349v-.02l.945-.931q.344-.339.477-.609t.134-.582q0-.442-.338-.747q-.339-.305-.825-.305q-.348 0-.635.15q-.286.148-.442.427q-.05.107 0 .204t.165.146q.116.05.22.018q.104-.031.166-.137q.105-.127.23-.19q.125-.064.27-.064m-2.613 7.908q.535 0 .902-.315q.367-.314.367-.793q0-.292-.161-.531q-.162-.24-.448-.351v-.045q.217-.106.358-.326q.14-.22.14-.473q0-.42-.327-.697q-.327-.277-.833-.277q-.296 0-.57.146q-.274.146-.432.382q-.06.107-.026.2q.034.093.15.143q.115.05.218.006q.103-.044.158-.13q.07-.095.473-.218q.262 0 .411.13q.15.131.15.349t-.18.373q-.178.156-.43.156q-.126 0-.197.068q-.07.068-.07.193t.073.196q.073.071.178.071h.063q.295 0 .494.173q.199.172.199.43q0 .238-.187.4q-.186.16-.476.16q-.178 0-.327-.08q-.15-.082-.25-.246q-.06-.102-.16-.149t-.212.003q-.125.05-.17.168t.018.223q.172.293.454.477t.65.184m3.012 0q.523 0 .896-.36q.373-.361.373-.852t-.33-.844q-.33-.352-.777-.352q-.106 0-.378.08h-.02l.652-.926q.063-.106.052-.22q-.011-.116-.12-.178q-.106-.056-.212-.04q-.105.015-.168.12l-.755 1.115q-.294.421-.388.674q-.094.252-.094.531q0 .536.367.894t.902.358m0-.554q-.3 0-.492-.187q-.193-.187-.193-.478q0-.174.09-.336q.09-.163.249-.26q.06-.04.346-.09q.286 0 .485.2q.2.199.2.495q0 .275-.193.466q-.193.19-.492.19M12.003 21q-1.866 0-3.51-.708q-1.643-.709-2.859-1.924q-1.216-1.214-1.925-2.856Q3 13.87 3 12.003q0-1.866.708-3.51q.709-1.643 1.924-2.859q1.214-1.216 2.856-1.925Q10.13 3 11.997 3q1.866 0 3.51.708q1.643.709 2.859 1.924q1.216 1.214 1.925 2.856Q21 10.13 21 11.997q0 1.866-.708 3.51q-.709 1.643-1.924 2.859q-1.214 1.216-2.856 1.925Q13.87 21 12.003 21"/></svg>