<svg xmlns="http://www.w3.org/2000/svg" width="1em" height="1em" viewBox="0 0 24 24"><path fill="currentColor" d="M14.383 14.385q-.666-1.356-2.185-1.794q-1.52-.437-3.14-.437q-1.612 0-3.155.437q-1.543.438-2.17 1.794zm-5.325-3.231q.842 0 1.856.153q1.015.153 1.94.522q.927.37 1.633.99q.705.621.942 1.583q.094.373-.152.678q-.247.305-.637.305H3.475q-.39 0-.636-.305q-.247-.305-.152-.678q.236-.962.945-1.583q.708-.62 1.634-.99q.926-.37 1.938-.522q1.011-.153 1.854-.153m-6.116 7.538q-.212 0-.356-.144t-.144-.356q0-.213.144-.356q.144-.144.356-.144h12.231q.213 0 .356.144t.144.357q0 .213-.144.356q-.143.143-.356.143zM18.988 22h-1.315v-1h1.4l1.4-13.615h-9.011l-.024-.202q-.05-.32.16-.559q.21-.24.527-.24h3.817v-3.5q0-.212.144-.356t.357-.143q.213 0 .356.143t.143.357v3.5h3.727q.364 0 .61.262q.248.263.198.626l-1.415 13.815q-.056.414-.358.663q-.302.249-.716.249m-1.315-1h1.4zm-14.73 1q-.213 0-.357-.144t-.144-.357q0-.212.144-.356Q2.73 21 2.942 21h12.231q.213 0 .356.144t.144.357q0 .212-.144.356t-.356.143zm6.115-7.615"/></svg>