<svg xmlns="http://www.w3.org/2000/svg" width="1em" height="1em" viewBox="0 0 24 24"><path fill="currentColor" d="M9.058 11.154q.842 0 1.856.153q1.015.153 1.94.522q.927.37 1.633.99q.705.621.942 1.583q.094.373-.152.678q-.247.305-.637.305H3.475q-.39 0-.636-.305q-.247-.305-.152-.678q.236-.962.945-1.583q.708-.62 1.634-.99q.926-.37 1.938-.522q1.011-.153 1.854-.153m-6.116 7.538q-.212 0-.356-.144t-.144-.356q0-.213.144-.356q.144-.144.356-.144h12.231q.213 0 .356.144t.144.357q0 .213-.144.356q-.143.143-.356.143zm0 3.308q-.212 0-.356-.144t-.144-.357q0-.212.144-.356Q2.73 21 2.942 21h12.231q.213 0 .356.144t.144.357q0 .212-.144.356t-.356.143zm14.731 0v-6.61q0-2.355-1.758-3.93q-1.757-1.575-4.16-2.064l-.303-2.098q-.05-.365.197-.64q.247-.273.61-.273h3.683v-3.5q0-.213.144-.357t.357-.143q.213 0 .356.143t.143.357v3.5h3.727q.364 0 .61.262q.248.263.198.626l-1.446 14q-.042.303-.273.515q-.231.212-.535.212z"/></svg>