<svg xmlns="http://www.w3.org/2000/svg" width="1em" height="1em" viewBox="0 0 24 24"><path fill="currentColor" d="M4.096 15.106V8.894q0-.373.242-.59q.243-.217.566-.217q.125 0 .236.025q.112.025.218.105l4.661 3.112q.187.13.27.295q.084.164.084.376t-.084.376q-.083.164-.27.295l-4.661 3.112q-.106.08-.218.105q-.111.025-.236.025q-.323 0-.566-.217q-.242-.217-.242-.59m8.885 0V8.894q0-.373.242-.59q.242-.217.565-.217q.125 0 .237.025q.112.025.217.105l4.662 3.112q.186.13.27.295q.084.164.084.376t-.084.376q-.084.164-.27.295l-4.662 3.112q-.105.08-.217.105q-.112.025-.237.025q-.323 0-.565-.217q-.242-.217-.242-.59"/></svg>