<svg xmlns="http://www.w3.org/2000/svg" width="1em" height="1em" viewBox="0 0 24 24"><path fill="currentColor" d="M3 14.462v-1h4.923v-1.366q0-.25-.173-.423t-.423-.173H5.5q-.213 0-.356-.144Q5 11.212 5 11t.144-.356q.144-.143.356-.143h1.827q.671 0 1.134.463q.462.462.462 1.133v1.366H11.5v-6.9q0-1.499 1.038-2.53Q13.576 3 15.068 3q.995 0 1.855.523t1.308 1.439l.9 1.819l-.896.457l-.92-1.838q-.335-.64-.944-1.02T15.061 4q-1.067 0-1.814.747q-.747.747-.747 1.815v6.9h2.577v-1.366q0-.671.462-1.133q.463-.463 1.134-.463H18.5q.213 0 .356.144q.144.144.144.357t-.144.356q-.143.143-.356.143h-1.827q-.25 0-.423.173t-.173.423v1.366H21v1zM6.596 20q-.671 0-1.133-.462Q5 19.075 5 18.404v-3.192h14V18.5q0 .633-.435 1.066q-.435.434-1.046.434z"/></svg>