<svg xmlns="http://www.w3.org/2000/svg" width="1em" height="1em" viewBox="0 0 24 24"><path fill="currentColor" d="M3 14.462v-1h4.923v-1.366q0-.25-.173-.423t-.423-.173H5.5q-.213 0-.357-.143Q5 11.213 5 11t.143-.357q.144-.143.357-.143h1.827q.671 0 1.134.463q.462.462.462 1.133v1.366H11.5v-6.9q0-1.495 1.037-2.528Q13.573 3 15.067 3q.996 0 1.856.523q.86.523 1.308 1.439l.9 1.819l-.896.457l-.92-1.838q-.332-.64-.938-1.02Q15.77 4 15.062 4q-1.068 0-1.815.747q-.747.747-.747 1.815v6.9h2.577v-1.366q0-.671.462-1.133q.463-.463 1.134-.463H18.5q.213 0 .357.143q.143.144.143.357t-.143.357q-.144.143-.357.143h-1.827q-.25 0-.423.173t-.173.423v1.366H21v1zM6.596 20q-.671 0-1.133-.462Q5 19.075 5 18.404v-3.942h1v3.942q0 .25.173.423t.423.173h10.808q.25 0 .423-.173t.173-.423v-3.942h1V18.5q0 .633-.434 1.066q-.433.434-1.047.434z"/></svg>