<svg xmlns="http://www.w3.org/2000/svg" width="1em" height="1em" viewBox="0 0 24 24"><path fill="currentColor" d="M7.154 19.5v-10H8.5V6.462q0-.667.475-1.141q.474-.475 1.14-.475h5.77q.666 0 1.14.475q.475.474.475 1.14V9.5H19q1.042 0 1.77.73q.73.728.73 1.77v5.885q0 .666-.475 1.14q-.474.475-1.14.475zm-2.71 1q.818 0 1.38-.563q.56-.564.56-1.38v-8.115q0-.815-.563-1.379T4.44 8.5q-.817 0-1.378.563q-.562.564-.562 1.38v8.115q0 .815.564 1.379q.564.563 1.38.563M9.5 9.5h7V6.462q0-.27-.173-.443t-.442-.173h-5.77q-.269 0-.442.173t-.173.443zm5.923 4.5q.425 0 .713-.288t.287-.712q0-.425-.287-.712T15.423 12q-.425 0-.712.288t-.288.712q0 .425.288.713t.712.287m3 0q.425 0 .713-.288t.287-.712q0-.425-.287-.712T18.423 12q-.425 0-.712.288t-.288.712q0 .425.288.713t.712.287m-3 3q.425 0 .713-.288t.287-.712q0-.425-.287-.713T15.423 15q-.425 0-.712.287t-.288.713q0 .425.288.712t.712.288m3 0q.425 0 .713-.288t.287-.712q0-.425-.287-.713T18.423 15q-.425 0-.712.287t-.288.713q0 .425.288.712t.712.288m-8.192 0h2.384q.344 0 .576-.232q.232-.232.232-.576v-3.384q0-.344-.232-.576q-.232-.232-.576-.232h-2.384q-.344 0-.576.232q-.232.232-.232.576v3.384q0 .344.232.576q.233.232.576.232"/></svg>