<svg xmlns="http://www.w3.org/2000/svg" width="1em" height="1em" viewBox="0 0 24 24"><path fill="currentColor" d="m18.454 8.746l3.315 3.316l-.707.707l-3.316-3.315q-.448.396-1.038.586q-.59.19-1.208.19q-1.567 0-2.65-1.081q-1.08-1.082-1.08-2.649t1.08-2.65q1.083-1.08 2.65-1.08t2.65 1.08q1.08 1.083 1.08 2.65q0 .675-.209 1.237q-.21.561-.567 1.01M15.5 9.23q1.146 0 1.938-.793q.793-.792.793-1.938t-.793-1.938q-.792-.793-1.938-.793t-1.938.793q-.793.792-.793 1.938t.793 1.938q.792.793 1.938.793M4.615 21q-.69 0-1.152-.462Q3 20.075 3 19.385V6.615q0-.69.463-1.152Q3.925 5 4.615 5H10q-.14.356-.173.807q-.033.45-.033.812q0 2.38 1.656 3.983t4.075 1.604q.437 0 .883-.063t.907-.193L19 13.52v5.865q0 .69-.462 1.152q-.463.463-1.153.463z"/></svg>