<svg xmlns="http://www.w3.org/2000/svg" width="1em" height="1em" viewBox="0 0 24 24"><path fill="currentColor" d="M7 12.5h7q.213 0 .357-.143q.143-.144.143-.357t-.143-.357Q14.213 11.5 14 11.5H7q-.213 0-.357.143q-.143.144-.143.357t.143.357q.144.143.357.143m0-3h7q.213 0 .357-.143q.143-.144.143-.357t-.143-.357Q14.213 8.5 14 8.5H7q-.213 0-.357.143Q6.5 8.787 6.5 9t.143.357Q6.787 9.5 7 9.5M4.615 19q-.69 0-1.152-.462Q3 18.075 3 17.385V6.615q0-.69.463-1.152Q3.925 5 4.615 5h14.77q.69 0 1.152.463q.463.462.463 1.152v10.77q0 .69-.462 1.152q-.463.463-1.153.463zm0-1h14.77q.23 0 .423-.192q.192-.193.192-.423V6.615q0-.23-.192-.423Q19.615 6 19.385 6H4.615q-.23 0-.423.192Q4 6.385 4 6.615v10.77q0 .23.192.423q.193.192.423.192M4 18V6z"/></svg>