<svg xmlns="http://www.w3.org/2000/svg" width="1em" height="1em" viewBox="0 0 24 24"><path fill="currentColor" d="m18.454 8.746l3.315 3.316l-.707.707l-3.316-3.315q-.448.396-1.038.586q-.59.19-1.208.19q-1.567 0-2.65-1.081q-1.08-1.082-1.08-2.649t1.08-2.65q1.083-1.08 2.65-1.08t2.65 1.08q1.08 1.083 1.08 2.65q0 .675-.209 1.237q-.21.561-.567 1.01m-2.955.484q1.147 0 1.94-.792q.792-.792.792-1.938q0-1.147-.792-1.94q-.792-.792-1.938-.792q-1.147 0-1.94.792q-.792.792-.792 1.938q0 1.147.792 1.94q.792.792 1.938.792M3 21V5h7q-.14.356-.173.807q-.033.45-.033.812q0 2.38 1.656 3.983t4.076 1.604q.437 0 .883-.058q.447-.058.906-.198L19 13.52V21z"/></svg>