<svg xmlns="http://www.w3.org/2000/svg" width="1em" height="1em" viewBox="0 0 24 24"><path fill="currentColor" d="m6.077 17l-1.704 1.704q-.379.379-.876.17Q3 18.668 3 18.134V4.615q0-.69.463-1.152Q3.925 3 4.615 3h14.77q.69 0 1.152.463q.463.462.463 1.152v10.77q0 .69-.462 1.153q-.463.462-1.153.462zM12 14.423q.262 0 .438-.177q.177-.177.177-.438q0-.262-.177-.439q-.176-.177-.438-.177t-.438.177q-.177.177-.177.439q0 .261.177.438q.176.177.438.177m0-2.961q.213 0 .357-.144q.143-.144.143-.356V5.885q0-.213-.144-.357q-.144-.143-.357-.143t-.356.143q-.143.144-.143.357v5.077q0 .212.144.356t.357.144"/></svg>