<svg xmlns="http://www.w3.org/2000/svg" width="1em" height="1em" viewBox="0 0 24 24"><path fill="currentColor" d="M13.308 12.577q.329 0 .549-.23q.22-.23.22-.54q0-.13-.073-.382q.256-.062.414-.263q.159-.202.159-.47q0-.329-.22-.549q-.22-.22-.55-.22q-.267 0-.469.156q-.201.156-.263.417l-3.67-1.77q.083-.074.249-.534q0-.329-.22-.549q-.22-.22-.55-.22q-.309 0-.539.22q-.23.22-.23.55q0 .188.098.357q-.255.062-.426.263q-.172.202-.172.495q0 .31.23.54q.23.229.54.229q.253 0 .455-.14t.283-.362l3.63 1.73q-.038.04-.215.503q0 .31.23.54q.23.229.54.229m-9.871-2.02l5.036-6.705l6.598 3.002q1.35.61 2.14 1.834Q18 9.913 18 11.425V22l-7.073-.02q-.554-1.309-.744-2.648q-.19-1.34-.193-2.487q-.002-1.147.094-1.997q.095-.85.112-1.18q-.006-.116-.029-.212q-.023-.096-.163-.116l-.83-.139q-.664-.11-1.592-.416t-2.019-.836q-1.09-.53-2.126-1.391"/></svg>