<svg xmlns="http://www.w3.org/2000/svg" width="1em" height="1em" viewBox="0 0 24 24"><path fill="currentColor" d="M13.308 12.577q.31 0 .54-.23q.229-.23.229-.54q0-.117-.018-.206q-.019-.09-.074-.176q.255-.062.424-.263q.168-.202.168-.47q0-.31-.23-.54q-.23-.229-.54-.229q-.247 0-.459.156q-.211.156-.273.417l-3.67-1.77q.108-.118.179-.247t.07-.287q0-.31-.23-.54q-.23-.229-.54-.229q-.309 0-.539.23q-.23.23-.23.54q0 .092.031.181q.03.09.087.176q-.256.062-.437.263q-.18.202-.18.495q0 .31.23.54q.229.229.539.229q.253 0 .446-.14q.192-.139.273-.362l3.65 1.73q-.039.04-.216.503q0 .31.23.54q.23.229.54.229m-2.381 9.404q-.554-1.31-.744-2.65q-.19-1.339-.193-2.486q-.002-1.147.094-1.997q.095-.85.112-1.18q-.006-.116-.029-.212q-.023-.096-.163-.116l-.83-.139q-.664-.11-1.592-.416t-2.019-.836q-1.09-.53-2.126-1.391l.596-.808q1.032.875 2.143 1.388q1.11.512 2.03.8t1.519.374l.6.088q.546.044.751.433q.205.388.149.742l-.112.838q-.113.837-.125 2.087t.187 2.725Q11.375 20.7 12 22zM18 22h-1V11.425q0-1.2-.638-2.175T14.65 7.775L7.806 4.738l.667-.886l6.598 3.002q1.35.61 2.14 1.834Q18 9.913 18 11.425zm-6 0q-.625-1.3-.825-2.775t-.187-2.725q.012-1.25.125-2.087l.112-.838q.056-.354-.149-.742q-.205-.389-.751-.433l-.6-.088q-.6-.087-1.52-.374t-2.029-.8q-1.11-.513-2.143-1.388q1.032.875 2.143 1.388q1.11.512 2.03.8t1.519.374l.6.088q.546.044.751.433q.205.388.149.742l-.112.838q-.113.837-.125 2.087t.187 2.725Q11.375 20.7 12 22"/></svg>