<svg xmlns="http://www.w3.org/2000/svg" width="1em" height="1em" viewBox="0 0 24 24"><path fill="currentColor" d="M12.806 4.442q.782.966 1.5 1.975t1.394 2.05l4.008-2.998q.186-.136.404-.161q.217-.025.434.085q.217.101.336.302q.118.2.118.42V12q0 1.868-.708 3.51q-.709 1.643-1.924 2.858q-1.214 1.215-2.856 1.923Q13.87 21 12.003 21q-1.866 0-3.51-.709t-2.859-1.923q-1.216-1.215-1.925-2.858Q3 13.868 3 12V6.114q0-.216.118-.418q.119-.202.336-.303q.217-.11.434-.085q.218.025.404.161l3.983 2.998q.677-1.04 1.416-2.04q.74-1 1.522-1.965q.154-.185.35-.29q.197-.105.437-.105t.449.098q.208.097.357.277"/></svg>