<svg xmlns="http://www.w3.org/2000/svg" width="1em" height="1em" viewBox="0 0 24 24"><path fill="currentColor" d="M12.003 21q-1.866 0-3.51-.709t-2.859-1.923q-1.216-1.215-1.925-2.858Q3 13.868 3 12V4.5l5.275 3.967q.852-1.31 1.791-2.55T12 3.52q.894 1.039 1.842 2.288q.948 1.249 1.858 2.66L21 4.5V12q0 1.868-.708 3.51q-.709 1.643-1.924 2.858q-1.214 1.215-2.856 1.923Q13.87 21 12.003 21M12 20q3.35 0 5.675-2.325T20 12V6.5l-4.6 3.45q-1.125-1.8-1.825-2.85T12 5q-.875 1.075-1.625 2.175T8.6 9.95L4 6.5V12q0 3.35 2.325 5.675T12 20m0-7.5"/></svg>