<svg xmlns="http://www.w3.org/2000/svg" width="1em" height="1em" viewBox="0 0 24 24"><path fill="currentColor" d="M9 18q-2.502 0-4.251-1.749Q3 14.501 3 12q0-2.502 1.749-4.251Q6.499 6 9 6q2.502 0 4.251 1.749Q15 9.499 15 12q0 2.502-1.749 4.251Q11.501 18 9 18m7.654-.244q-.267.084-.46-.057q-.194-.141-.194-.426q0-.16.101-.275q.1-.115.26-.177q1.616-.442 2.627-1.78Q20 13.7 20 12t-1.012-3.04q-1.011-1.339-2.626-1.781q-.16-.062-.261-.187T16 6.708q0-.28.19-.414q.19-.134.458-.05q1.929.533 3.14 2.128Q21 9.967 21 12t-1.212 3.625q-1.211 1.592-3.134 2.13"/></svg>