<svg xmlns="http://www.w3.org/2000/svg" width="1em" height="1em" viewBox="0 0 24 24"><path fill="currentColor" d="M3.615 19q-.69 0-1.152-.462Q2 18.075 2 17.385V6.615q0-.69.463-1.152Q2.925 5 3.615 5h16.77q.69 0 1.152.463q.463.462.463 1.152v10.77q0 .69-.462 1.152q-.463.463-1.153.463zm0-1h16.77q.269 0 .442-.173t.173-.442V6.615q0-.269-.173-.442T20.385 6H3.615q-.269 0-.442.173T3 6.615v10.77q0 .269.173.442t.442.173m1.097-7.308L7.298 14.5q.056.087.143.14q.087.052.191.052h.21q.173 0 .3-.124q.127-.125.127-.303V9.721q0-.182-.115-.298q-.115-.115-.296-.115t-.298.115q-.118.116-.118.298v3.587L4.925 9.5q-.062-.106-.162-.149q-.101-.043-.223-.043h-.212q-.195 0-.32.126q-.123.127-.123.326v4.519q0 .182.115.298q.115.115.296.115q.18 0 .298-.115q.118-.116.118-.298zm5.5 4h2.567q.182 0 .298-.115q.115-.115.115-.296t-.115-.298q-.116-.118-.298-.118h-2.087v-1.407h2.087q.182 0 .298-.115q.115-.116.115-.297q0-.18-.115-.298q-.116-.117-.298-.117h-2.087v-1.496h2.087q.182 0 .298-.116q.115-.115.115-.296q0-.18-.115-.298q-.116-.117-.298-.117h-2.567q-.162 0-.283.12t-.121.284v4.576q0 .162.12.283t.284.121m5.211 0h4q.31 0 .501-.191t.191-.501V9.721q0-.182-.115-.298q-.115-.115-.296-.115q-.18 0-.298.115q-.118.116-.118.298v4.087h-1.446V10.72q0-.182-.115-.298q-.115-.115-.296-.115t-.298.115q-.118.116-.118.298v3.087h-1.457V9.72q0-.182-.115-.298q-.116-.115-.297-.115q-.18 0-.298.115q-.117.116-.117.298V14q0 .31.191.501t.501.191M3 18V6z"/></svg>