<svg xmlns="http://www.w3.org/2000/svg" width="1em" height="1em" viewBox="0 0 24 24"><path fill="currentColor" d="M12 18.212q1.367 0 2.3-1.002q.93-1.002.93-2.402V10.73q0-.214-.142-.357t-.357-.143q-.214 0-.357.143t-.143.357v4.077q0 .979-.643 1.691q-.642.713-1.588.713q-.94 0-1.586-.713q-.645-.712-.645-1.691V9.346q0-.398.246-.69q.247-.29.62-.29q.378 0 .622.29q.243.292.243.69v4.962q0 .213.143.356q.144.144.357.144t.357-.144q.143-.143.143-.356V9.346q0-.8-.533-1.39q-.532-.59-1.332-.59t-1.333.59q-.533.59-.533 1.39v5.462q0 1.4.935 2.402q.934 1.002 2.296 1.002M6.615 21q-.69 0-1.152-.462Q5 20.075 5 19.385V4.615q0-.69.463-1.152Q5.925 3 6.615 3h8.116L19 7.27v12.115q0 .69-.462 1.152q-.463.463-1.153.463zm0-1h10.77q.23 0 .423-.192q.192-.193.192-.423V7.769h-2.962q-.348 0-.577-.23q-.23-.23-.23-.577V4H6.615q-.23 0-.423.192Q6 4.385 6 4.615v14.77q0 .23.192.423q.193.192.423.192M6 4v3.77zv16z"/></svg>