<svg xmlns="http://www.w3.org/2000/svg" width="1em" height="1em" viewBox="0 0 24 24"><path fill="currentColor" d="M18.308 16.5h3.361q.213 0 .356.144q.144.144.144.357t-.144.356q-.143.143-.356.143h-2.48l3.115 3.115q.14.136.14.34t-.14.349q-.146.165-.357.156q-.21-.01-.357-.156l-3.09-3.09v2.455q0 .213-.144.356q-.144.144-.357.144t-.356-.144q-.143-.143-.143-.356v-3.361q0-.344.232-.576q.232-.232.576-.232M14 4v3.2q0 .34.23.57q.23.23.57.23H18zM6.615 3h7.214q.331 0 .632.13q.3.132.518.349L18.52 7.02q.217.217.348.518q.131.3.131.632v5.521q0 .344-.232.576q-.232.232-.576.232h-1.884q-.344 0-.576.234q-.232.233-.232.579v4.874q0 .346-.232.58q-.232.233-.576.233H6.615q-.69 0-1.152-.462Q5 20.075 5 19.385V4.615q0-.69.463-1.152Q5.925 3 6.615 3"/></svg>