<svg xmlns="http://www.w3.org/2000/svg" width="1em" height="1em" viewBox="0 0 24 24"><path fill="currentColor" d="m17.435 19.723l-2.37-2.37q-.14-.133-.14-.34t.14-.348q.14-.14.335-.15q.194-.01.335.131l1.765 1.766v-4.387q0-.213.144-.356q.144-.144.357-.144t.356.144q.143.143.143.356v4.387l1.765-1.766q.134-.14.341-.14q.207 0 .348.14t.14.348q0 .207-.14.34l-2.389 2.39q-.242.241-.565.241q-.323 0-.565-.242M15 23.5q-.213 0-.356-.144T14.5 23q0-.212.144-.356q.144-.143.356-.143h6q.213 0 .356.144T21.5 23q0 .212-.144.356q-.143.143-.356.143zm-8.885-4q-.652 0-1.133-.482q-.482-.481-.482-1.133V4.115q0-.652.482-1.133q.481-.482 1.133-.482h6.214q.331 0 .632.13q.3.132.518.349L18.02 7.52q.217.217.348.518q.131.3.131.632v1.662q0 .343-.232.575q-.232.232-.576.232H13.73q-.667 0-1.141.475q-.475.474-.475 1.14v5.937q0 .344-.232.576q-.232.232-.575.232zm7.597-11H17.5l-5-5l5 5l-5-5v3.788q0 .505.353.859q.354.353.859.353"/></svg>