<svg xmlns="http://www.w3.org/2000/svg" width="1em" height="1em" viewBox="0 0 24 24"><path fill="currentColor" d="M18.627 15.854L7.242 4.334q-.13-.13-.186-.27Q7 3.925 7 3.764v-.212q0-.648.452-1.1T8.552 2h6.277q.323 0 .628.13q.305.132.522.349L19.52 6.02q.217.217.348.522q.131.305.131.628v8.112q0 .54-.497.745q-.497.205-.876-.174m2.38 5.861q-.159.16-.353.16t-.354-.16L16.585 18h-7.97q-.69 0-1.152-.462Q7 17.075 7 16.385v-7.97L2.285 3.7q-.14-.14-.15-.344q-.01-.204.15-.364t.353-.16q.195 0 .354.16l18.016 18.016q.14.14.15.344q.01.204-.15.363M16.212 7h2.942L15 2.846L19.154 7L15 2.846v2.942q0 .51.351.861q.35.351.86.351M4.616 22q-.69 0-1.152-.462Q3 21.075 3 20.385V9.5q0-.213.143-.357Q3.287 9 3.5 9t.357.143Q4 9.287 4 9.5v10.885q0 .23.192.423q.193.192.423.192H14.5q.213 0 .357.143q.143.144.143.357t-.143.357Q14.713 22 14.5 22z"/></svg>