<svg xmlns="http://www.w3.org/2000/svg" width="1em" height="1em" viewBox="0 0 24 24"><path fill="currentColor" d="m17.5 18.412l-1.765-1.766q-.14-.14-.335-.14t-.335.14q-.14.14-.14.348q0 .207.14.34l2.37 2.39q.242.241.565.241q.323 0 .565-.242l2.389-2.388q.14-.134.14-.341q0-.207-.14-.348t-.348-.14q-.207 0-.34.14L18.5 18.412v-4.387q0-.213-.144-.356q-.144-.144-.357-.144t-.356.144q-.143.143-.143.356zM15 22.5h6q.213 0 .356.144T21.5 23q0 .212-.144.356q-.143.143-.356.143h-6q-.213 0-.356-.144T14.5 23q0-.212.144-.356q.144-.143.356-.143m-8.885-3q-.652 0-1.133-.482q-.482-.481-.482-1.133V4.115q0-.652.482-1.133q.481-.482 1.133-.482h6.214q.331 0 .632.13q.3.132.518.349L18.02 7.52q.217.217.348.518q.131.3.131.632v1.97q0 .212-.144.356q-.144.143-.357.143t-.356-.143q-.143-.144-.143-.357V8.5h-3.788q-.505 0-.859-.353q-.353-.354-.353-.859V3.5H6.115q-.23 0-.423.192q-.192.193-.192.423v13.77q0 .23.192.423q.193.192.423.192h5.5q.213 0 .357.144q.143.144.143.357t-.143.356q-.144.143-.357.143zm-.615-1v-15z"/></svg>