<svg xmlns="http://www.w3.org/2000/svg" width="1em" height="1em" viewBox="0 0 24 24"><path fill="currentColor" d="M18.385 18h-9.77q-.69 0-1.152-.462Q7 17.075 7 16.385V3.615q0-.69.463-1.152Q7.925 2 8.615 2h6.214q.323 0 .628.13q.305.132.522.349L19.52 6.02q.217.217.348.522q.131.305.131.628v9.214q0 .69-.462 1.152q-.463.463-1.153.463M19 7h-3.077q-.394 0-.659-.264T15 6.076V3H8.615q-.23 0-.423.192Q8 3.385 8 3.615v12.77q0 .23.192.423q.193.192.423.192h9.77q.23 0 .423-.192q.192-.193.192-.423zM4.615 22q-.69 0-1.152-.462Q3 21.075 3 20.385V8.5q0-.213.143-.357Q3.287 8 3.5 8t.357.143Q4 8.287 4 8.5v11.885q0 .23.192.423q.193.192.423.192H13.5q.213 0 .357.143q.143.144.143.357t-.143.357Q13.713 22 13.5 22zM8 3v4zv14z"/></svg>