<svg xmlns="http://www.w3.org/2000/svg" width="1em" height="1em" viewBox="0 0 24 24"><path fill="currentColor" d="M6.615 21q-.69 0-1.152-.462Q5 20.075 5 19.385V4.615q0-.69.463-1.152Q5.925 3 6.615 3h8.116L19 7.27v12.115q0 .69-.462 1.152q-.463.463-1.153.463zM12 18.212q1.367 0 2.3-1.002q.93-1.002.93-2.402V10.23h-1v4.577q0 .979-.642 1.691q-.642.713-1.588.713q-.94 0-1.586-.713q-.645-.712-.645-1.691V9.346q0-.398.246-.69q.247-.29.62-.29q.378 0 .622.29q.243.292.243.69v5.462h1V9.346q0-.8-.533-1.39q-.532-.59-1.332-.59t-1.333.59q-.533.59-.533 1.39v5.462q0 1.4.935 2.402q.934 1.002 2.296 1.002m2.23-10.443H18L14.23 4z"/></svg>