<svg xmlns="http://www.w3.org/2000/svg" width="1em" height="1em" viewBox="0 0 24 24"><path fill="currentColor" d="M14.385 14.5q.69 0 1.153-.462q.462-.463.462-1.153V11.23q0-.593-.31-.883q-.31-.29-.69-.348q.38-.058.69-.348q.31-.29.31-.883V7.115q0-.69-.462-1.152q-.463-.463-1.153-.463H11.5q-.213 0-.357.143Q11 5.787 11 6t.143.357q.144.143.357.143h2.885q.269 0 .442.173t.173.442v1.77q0 .269-.173.442t-.442.173h-1.27q-.213 0-.356.143q-.144.144-.144.357t.144.357q.143.143.356.143h1.27q.269 0 .442.173t.173.442v1.77q0 .269-.173.442t-.442.173H11.5q-.213 0-.357.143Q11 13.787 11 14t.143.357q.144.143.357.143zM8.115 17q-.69 0-1.152-.462q-.463-.463-.463-1.153V4.615q0-.69.463-1.152Q7.425 3 8.115 3h10.77q.69 0 1.152.463q.463.462.463 1.152v10.77q0 .69-.462 1.153q-.463.462-1.153.462zm-3 3q-.69 0-1.152-.462q-.463-.463-.463-1.153V7.115q0-.213.143-.356q.144-.144.357-.144t.357.144t.143.356v11.27q0 .23.192.423q.193.192.423.192h11.27q.213 0 .356.143t.144.357q0 .213-.144.357q-.143.143-.356.143z"/></svg>