<svg xmlns="http://www.w3.org/2000/svg" width="1em" height="1em" viewBox="0 0 24 24"><path fill="currentColor" d="M12.615 14.5h1.77q.69 0 1.153-.462q.462-.463.462-1.153v-1.77q0-.69-.462-1.152q-.463-.463-1.153-.463H12V7.115q0-.269.173-.442t.442-.173H14.5q.213 0 .357-.143Q15 6.213 15 6t-.143-.357Q14.713 5.5 14.5 5.5h-1.885q-.69 0-1.152.463Q11 6.425 11 7.115v5.77q0 .69.463 1.153q.462.462 1.152.462m-.615-4h2.385q.269 0 .442.173t.173.442v1.77q0 .269-.173.442t-.442.173h-1.77q-.23 0-.423-.173q-.192-.173-.192-.442zM8.115 17q-.69 0-1.152-.462q-.463-.463-.463-1.153V4.615q0-.69.463-1.152Q7.425 3 8.115 3h10.77q.69 0 1.152.463q.463.462.463 1.152v10.77q0 .69-.462 1.153q-.463.462-1.153.462zm0-1h10.77q.23 0 .423-.192q.192-.193.192-.423V4.615q0-.23-.192-.423Q19.115 4 18.885 4H8.115q-.23 0-.423.192q-.192.193-.192.423v10.77q0 .23.192.423q.193.192.423.192m-3 4q-.69 0-1.152-.462q-.463-.463-.463-1.153V7.115q0-.213.143-.356q.144-.144.357-.144t.357.144t.143.356v11.27q0 .23.192.423q.193.192.423.192h11.27q.213 0 .356.143t.144.357q0 .213-.144.357q-.143.143-.356.143zM7.5 4v12z"/></svg>