<svg xmlns="http://www.w3.org/2000/svg" width="1em" height="1em" viewBox="0 0 24 24"><path fill="currentColor" d="M5.615 20q-.69 0-1.152-.462Q4 19.075 4 18.385V15h1v3.385q0 .23.192.423q.193.192.423.192H9v1zM15 20v-1h3.385q.23 0 .423-.192q.192-.193.192-.423V15h1v3.385q0 .69-.462 1.152q-.463.463-1.153.463zM4 9V5.615q0-.69.463-1.152Q4.925 4 5.615 4H9v1H5.615q-.23 0-.423.192Q5 5.385 5 5.615V9zm15 0V5.615q0-.23-.192-.423Q18.615 5 18.385 5H15V4h3.385q.69 0 1.152.463q.463.462.463 1.152V9zm-7 5q-.846 0-1.423-.577Q10 12.846 10 12q0-.846.577-1.423Q11.154 10 12 10q.846 0 1.423.577Q14 11.154 14 12q0 .846-.577 1.423Q12.846 14 12 14"/></svg>