<svg xmlns="http://www.w3.org/2000/svg" width="1em" height="1em" viewBox="0 0 24 24"><path fill="currentColor" d="m14.962 6.5l-3.485 7.335q-.11.238.018.452q.128.213.397.213q.14 0 .254-.07q.114-.07.18-.2l3.632-7.626q.03-.062.042-.214V6q0-.213-.143-.357q-.144-.143-.357-.143h-4q-.213 0-.357.143Q11 5.787 11 6t.143.357q.144.143.357.143zM8.115 17q-.69 0-1.152-.462q-.463-.463-.463-1.153V4.615q0-.69.463-1.152Q7.425 3 8.115 3h10.77q.69 0 1.152.463q.463.462.463 1.152v10.77q0 .69-.462 1.153q-.463.462-1.153.462zm0-1h10.77q.23 0 .423-.192q.192-.193.192-.423V4.615q0-.23-.192-.423Q19.115 4 18.885 4H8.115q-.23 0-.423.192q-.192.193-.192.423v10.77q0 .23.192.423q.193.192.423.192m-3 4q-.69 0-1.152-.462q-.463-.463-.463-1.153V7.115q0-.213.143-.356q.144-.144.357-.144t.357.144t.143.356v11.27q0 .23.192.423q.193.192.423.192h11.27q.213 0 .356.143t.144.357q0 .213-.144.357q-.143.143-.356.143zM7.5 4v12z"/></svg>