<svg xmlns="http://www.w3.org/2000/svg" width="1em" height="1em" viewBox="0 0 24 24"><path fill="currentColor" d="M5.115 20q-.69 0-1.152-.462q-.463-.463-.463-1.153V3.5q0-.213.144-.356Q3.788 3 4 3t.356.144q.143.143.143.356v14.885q0 .23.192.423q.193.192.423.192H20q.213 0 .356.144t.144.357q0 .212-.144.356Q20.213 20 20 20zm3-3.5q-.31 0-.52-.21q-.21-.21-.21-.52V9.922q0-.31.21-.52q.21-.21.52-.21h.462q.343 0 .575.233q.233.234.233.58v5.689q0 .345-.233.575q-.232.23-.575.23zm4.5 0q-.31 0-.52-.21q-.21-.21-.21-.52V5q0-.343.232-.575q.232-.233.575-.233h.462q.31 0 .52.21q.21.21.21.521v10.77q0 .343-.232.575q-.232.232-.575.232zm4.5 0q-.31 0-.52-.21q-.21-.21-.21-.52V14q0-.343.232-.575q.232-.233.575-.233h.462q.31 0 .52.21q.21.21.21.521v1.77q0 .343-.232.575q-.232.232-.575.232z"/></svg>