<svg xmlns="http://www.w3.org/2000/svg" width="1em" height="1em" viewBox="0 0 24 24"><path fill="currentColor" d="M11 6q-1.69 0-3.01.988q-1.32.987-1.775 2.54q-.073.184-.247.294q-.174.11-.362.074q-.208-.056-.32-.224q-.113-.168-.046-.364q.522-1.889 2.139-3.098Q8.996 5 11 5q2.052 0 3.243.957q1.192.956 1.757 1.797V5.5q0-.213.143-.357Q16.287 5 16.5 5t.357.143Q17 5.287 17 5.5v3.692q0 .348-.23.578q-.23.23-.578.23H12.5q-.213 0-.357-.143T12 9.5q0-.213.143-.357Q12.287 9 12.5 9h3.038q-.494-1.073-1.622-2.037Q12.788 6 11 6m0 11q-1.475 0-2.849-.726T6 14.246V16.5q0 .213-.143.357Q5.713 17 5.5 17t-.357-.143Q5 16.713 5 16.5v-3.692q0-.348.23-.578q.23-.23.578-.23H9.5q.213 0 .357.143T10 12.5q0 .213-.143.357Q9.713 13 9.5 13H6.462q.551 1.304 1.776 2.152Q9.462 16 11 16q1.665 0 2.97-.97q1.305-.968 1.784-2.492q.079-.207.253-.349q.174-.14.387-.085q.214.061.318.238t.036.385q-.156.635-.45 1.13q-.296.495-.736 1.035l4.392 4.393q.14.14.15.344q.01.204-.15.363q-.16.16-.354.16t-.354-.16L14.854 15.6q-.842.713-1.809 1.057Q12.08 17 11 17"/></svg>