<svg xmlns="http://www.w3.org/2000/svg" width="1em" height="1em" viewBox="0 0 24 24"><path fill="currentColor" d="M6.995 20.23q-1.091 0-1.85-.762q-.76-.763-.76-1.853h-.77q-.666 0-1.14-.474Q2 16.666 2 16v-5h11V7.615q0-.666.475-1.14Q13.949 6 14.615 6H16.5v-.5q0-.343.232-.575q.232-.233.576-.233h.384q.344 0 .576.233q.232.232.232.575V6h.608q.525 0 .949.302q.424.301.585.804l1.283 3.798q.044.133.06.258q.015.125.015.26v6.193h-2.385q0 1.09-.764 1.853q-.764.763-1.856.763q-1.091 0-1.85-.763q-.76-.763-.76-1.853h-4.77q0 1.097-.764 1.856q-.764.76-1.856.76m.005-1q.675 0 1.145-.47t.47-1.136q0-.665-.47-1.145T7 16t-1.145.48q-.47.48-.47 1.145t.47 1.136q.47.47 1.145.47m10 0q.675 0 1.145-.47t.47-1.136q0-.665-.47-1.145T17 16t-1.145.48q-.47.48-.47 1.145t.47 1.136q.47.47 1.145.47M3 12v4q0 .27.173.442t.442.173H4.64q.272-.725.914-1.17Q6.196 15 7 15q.804 0 1.446.445q.642.445.914 1.17H13V12zm11 4.615h.64q.272-.725.914-1.17Q16.196 15 17 15q.804 0 1.446.445q.642.445.914 1.17H21V12h-7zM14 11h6.9l-1.196-3.577q-.058-.192-.221-.308Q19.319 7 19.108 7h-4.493q-.269 0-.442.173T14 7.615zM2 10v-.885h1v-2.23H2V6h9.385v.885h-1v2.23h1V10zm1.885-.885H6.25v-2.23H3.885zm3.25 0H9.5v-2.23H7.135zM13 12H3zm1 0h7z"/></svg>