<svg xmlns="http://www.w3.org/2000/svg" width="1em" height="1em" viewBox="0 0 24 24"><path fill="currentColor" d="M10.6 17.95q.325.275.688.388t.712.112q.725 0 1.313-.462T14 16.65q.125-1.175-.725-1.737T12 13.45q-.125.35-.125.65t.075.65q.075.425.175.8t.025.8q-.125.45-.55.925t-1 .675M3 21V3h18v18zm1-1h2.692v-1h2.981q-.748-.571-1.21-1.42Q8 16.734 8 15.95q0-1.035.27-1.912q.268-.878.787-1.646q.518-.767 1.29-1.435q.77-.669 1.768-1.265q.168 1.062.776 1.992q.609.93 1.797 1.8q.633.485.973 1.115Q16 15.229 16 16q0 .817-.342 1.603q-.343.785-1.081 1.397h2.73v1H20V4H4z"/></svg>