<svg xmlns="http://www.w3.org/2000/svg" width="1em" height="1em" viewBox="0 0 24 24"><path fill="currentColor" d="M9.577 20.5q-.633 0-1.066-.434q-.434-.433-.434-1.066v-.5h7.846v.5q0 .633-.434 1.066q-.433.434-1.066.434zm-1.5-3v-5h7.846v5zm.023-6q.23-.938 1.002-1.768q.771-.83 2.092-1.113v-.211q-.384-.123-.69-.4q-.306-.275-.456-.57L8.17 6.975q-.223-.05-.334-.224q-.112-.174-.112-.366q0-.193.112-.367q.111-.174.334-.224l1.86-.463q.279-.533.803-.855q.524-.322 1.168-.322q.41 0 .77.127q.359.127.657.388l1.488-.4q.38-.119.694.133t.314.65V7.64q0 .418-.334.66t-.731.104l-1.302-.439q-.154.154-.337.26q-.182.106-.413.202v.192q1.213.264 2.045 1.092q.832.827 1.049 1.789zM12 7.385q.406 0 .703-.298Q13 6.79 13 6.385q-.006-.431-.3-.716q-.294-.284-.7-.284q-.425 0-.712.287T11 6.385q0 .425.288.712t.712.288"/></svg>