<svg xmlns="http://www.w3.org/2000/svg" width="1em" height="1em" viewBox="0 0 24 24"><path fill="currentColor" d="M5.077 21v-1H7v-3.904H5.577q-.402 0-.701-.299q-.3-.299-.3-.7v-2.193q0-.402.3-.701q.299-.3.7-.3H7V8H5.077V7h2.042q.356-1.73 1.71-2.865Q10.186 3 12 3q1.815 0 3.17 1.135Q16.525 5.269 16.88 7h2.043v1H17v3.904h1.423q.402 0 .701.299q.3.299.3.7v2.193q0 .402-.3.701q-.299.3-.7.3H17V20h1.923v1zm6.922-3.962q1.259 0 2.15-.89q.89-.889.89-2.147t-.89-2.15q-.89-.89-2.148-.89t-2.15.89q-.89.89-.89 2.148t.89 2.15q.89.89 2.148.89m-.004-1q-.85 0-1.442-.596q-.591-.596-.591-1.448t.595-1.442q.596-.591 1.448-.591t1.442.595q.591.596.591 1.448t-.595 1.442q-.596.591-1.448.591"/></svg>