<svg xmlns="http://www.w3.org/2000/svg" width="1em" height="1em" viewBox="0 0 24 24"><path fill="currentColor" d="M10.6 17.95q.325.275.688.388t.712.112q.725 0 1.313-.462T14 16.65q.125-1.175-.725-1.737T12 13.45q-.125.35-.125.65t.075.65q.075.425.175.8t.025.8q-.125.45-.55.925t-1 .675M3 19.385V4.615q0-.666.475-1.14Q3.949 3 4.615 3h14.77q.666 0 1.14.475q.475.474.475 1.14v14.77q0 .666-.475 1.14q-.474.475-1.14.475H4.615q-.666 0-1.14-.475Q3 20.051 3 19.385M12 19q1.25 0 2.125-.875T15 16q0-.638-.25-1.038t-.7-.712q-.95-.675-1.588-1.412T11.45 11.35q-1.1.875-1.775 1.988T9 15.95q0 .875.9 1.963T12 19m-7.385 1h2.077v-.23q0-.31.23-.54q.23-.23.54-.23h2.211q-.748-.571-1.21-1.42Q8 16.734 8 15.95q0-1.856.854-3.241t2.356-2.417q.173-.13.365-.14q.192-.01.36.058q.167.067.298.186q.13.12.194.317q.338.927.908 1.564q.569.636 1.353 1.208q.633.484.973 1.114Q16 15.229 16 16q0 .817-.342 1.603q-.343.785-1.081 1.397h1.961q.31 0 .54.23q.23.23.23.54V20h2.077q.269 0 .442-.173t.173-.442V4.615q0-.269-.173-.442T19.385 4H4.615q-.269 0-.442.173T4 4.615v14.77q0 .269.173.442t.442.173M12 19"/></svg>