<svg xmlns="http://www.w3.org/2000/svg" width="1em" height="1em" viewBox="0 0 24 24"><path fill="currentColor" d="M20 8.5V6.615q0-.23-.192-.423Q19.615 6 19.385 6H17.5q-.213 0-.357-.143T17 5.5q0-.213.143-.357Q17.287 5 17.5 5h1.885q.69 0 1.152.463q.463.462.463 1.152V8.5q0 .213-.143.357Q20.713 9 20.5 9t-.357-.143T20 8.5m-17 0V6.615q0-.69.463-1.152Q3.925 5 4.615 5H6.5q.213 0 .357.143Q7 5.287 7 5.5t-.143.357T6.5 6H4.615q-.23 0-.423.192Q4 6.385 4 6.615V8.5q0 .213-.143.357T3.5 9q-.213 0-.357-.143Q3 8.713 3 8.5M19.385 19H17.5q-.213 0-.357-.143Q17 18.713 17 18.5t.143-.357T17.5 18h1.885q.23 0 .423-.192q.192-.193.192-.423V15.5q0-.213.143-.357T20.5 15q.213 0 .357.143q.143.144.143.357v1.885q0 .69-.462 1.152q-.463.463-1.153.463m-14.77 0q-.69 0-1.152-.462Q3 18.075 3 17.385V15.5q0-.213.143-.357Q3.287 15 3.5 15t.357.143T4 15.5v1.885q0 .23.192.423q.193.192.423.192H6.5q.213 0 .357.143T7 18.5q0 .213-.143.357Q6.713 19 6.5 19zm2.231-5.462v-3.076q0-.672.472-1.144q.472-.472 1.144-.472h7.076q.672 0 1.144.472q.472.472.472 1.144v3.076q0 .672-.472 1.144q-.472.472-1.144.472H8.462q-.672 0-1.144-.472q-.472-.472-.472-1.144m1.616.616h7.076q.27 0 .443-.173t.173-.443v-3.076q0-.27-.173-.443t-.443-.173H8.462q-.27 0-.443.173t-.173.443v3.076q0 .27.173.443t.443.173m-.616 0V9.846z"/></svg>