<svg xmlns="http://www.w3.org/2000/svg" width="1em" height="1em" viewBox="0 0 24 24"><path fill="currentColor" d="M2.23 12.5v-1h5v1zm6.02-3.542L6.458 7.165l.707-.707L8.958 8.25zM11.5 7.23v-5h1v5zm4.25 1.727l-.708-.708l1.793-1.792l.707.707zm1.02 3.542v-1h5v1zM12 14q-.846 0-1.423-.577Q10 12.846 10 12q0-.846.577-1.423Q11.154 10 12 10q.846 0 1.423.577Q14 11.154 14 12q0 .846-.577 1.423Q12.846 14 12 14m4.835 3.542l-1.793-1.792l.708-.708l1.792 1.793zm-9.67 0l-.707-.707l1.792-1.793l.708.708zM11.5 21.77v-5h1v5z"/></svg>