<svg xmlns="http://www.w3.org/2000/svg" width="1em" height="1em" viewBox="0 0 24 24"><path fill="currentColor" d="m12 15.6l3.68-5.33q.097-.155.02-.318q-.077-.164-.27-.164h-2.753l1.5-5.153q.077-.231-.077-.433Q13.946 4 13.715 4H10q-.27 0-.442.173t-.173.442v6.77q0 .269.173.442T10 12h2zm4.606-4.923l-4.5 6.56q-.131.186-.31.242q-.18.056-.367 0t-.308-.215Q11 17.106 11 16.888V13h-1q-.671 0-1.143-.472t-.472-1.143v-6.77q0-.67.472-1.143Q9.329 3 10 3h3.83q.685 0 1.125.5t.258 1.115L14 8.788h1.606q.727 0 1.068.637q.341.637-.068 1.252M12 12H9.385z"/></svg>