<svg xmlns="http://www.w3.org/2000/svg" width="1em" height="1em" viewBox="0 0 24 24"><path fill="currentColor" d="m15.344 12.513l-.713-.713l1.05-1.53q.096-.155.019-.318q-.077-.164-.27-.164h-2.407l-.271-.27l1.425-4.883q.077-.231-.077-.433Q13.946 4 13.715 4H10q-.27 0-.442.173t-.173.442v1.939l-1-1v-.939q0-.666.474-1.14Q9.334 3 10 3h3.83q.685 0 1.125.5t.258 1.115L14 8.788h1.606q.727 0 1.068.637q.341.637-.068 1.252zm4.489 8.747l-6.218-6.218l-1.51 2.195q-.13.186-.31.242q-.18.056-.366 0q-.187-.056-.308-.21t-.121-.38V13h-1q-.666 0-1.14-.475q-.475-.474-.475-1.14V9.812L2.74 4.167l.714-.713l17.092 17.092zM12.017 9.167"/></svg>