<svg xmlns="http://www.w3.org/2000/svg" width="1em" height="1em" viewBox="0 0 24 24"><path fill="currentColor" d="M7.5 16.5q0-.633.434-1.066Q8.367 15 9 15t1.066.434q.434.433.434 1.066t-.434 1.066Q9.633 18 9 18t-1.066-.434Q7.5 17.133 7.5 16.5m-2 6q-.213 0-.357-.144Q5 22.213 5 22v-7.5q0-.213.144-.356q.144-.144.357-.144q.212 0 .356.144q.143.144.143.356V19h6v-3.2q0-.34.232-.57q.232-.23.576-.23h4.577q.69 0 1.152.463q.463.462.463 1.152V22q0 .213-.144.356q-.144.144-.357.144q-.212 0-.356-.144Q18 22.213 18 22v-2H6v2q0 .213-.144.356t-.357.144M12.8 7.65l-2.65 2.65l.225 1.468q.025.126-.003.226t-.128.2l-.1.1q-.2.2-.437.15t-.363-.275l-.888-1.6l-1.72-.925q-.2-.1-.224-.312t.125-.363l.2-.2q.05-.05.35-.125l1.513.2l2.675-2.669l-4.7-2.55Q6.4 3.5 6.375 3.2t.175-.5l.175-.175q.125-.125.263-.162t.287.012L13.55 4l2.7-2.7q.3-.3.725-.3t.725.3q.3.3.3.725t-.3.725L15 5.45l1.6 6.25q.05.175.013.325t-.163.275l-.1.1q-.225.225-.55.175t-.475-.325zM18 19v-2.385q0-.269-.173-.442T17.385 16H13v3zm-5 0v-3z"/></svg>