<svg xmlns="http://www.w3.org/2000/svg" width="1em" height="1em" viewBox="0 0 24 24"><path fill="currentColor" d="M12 17.692q1.975 0 3.275-1.491q1.3-1.491 1.367-3.543l1.058.969l.627-.627l-2.077-2.077L14.173 13l.627.627l.958-.958q-.112 1.671-1.145 2.905q-1.032 1.234-2.613 1.234q-.306 0-.599-.063q-.293-.062-.574-.149l-.677.677q.454.185.916.302q.463.117.934.117m-4.25-2.615L9.827 13l-.627-.627l-.958.958q.112-1.671 1.145-2.905Q10.419 9.192 12 9.192q.306 0 .599.063q.293.062.574.149l.677-.677q-.454-.185-.916-.302q-.463-.117-.934-.117q-1.975 0-3.275 1.491q-1.3 1.491-1.367 3.543L6.3 12.373L5.673 13zM4.615 20q-.69 0-1.152-.462Q3 19.075 3 18.385V7.615q0-.69.463-1.152Q3.925 6 4.615 6h2.958l1.85-2h5.154l1.85 2h2.958q.69 0 1.152.463q.463.462.463 1.152v10.77q0 .69-.462 1.152q-.463.463-1.153.463zm0-1h14.77q.269 0 .442-.173t.173-.442V7.615q0-.269-.173-.442T19.385 7h-3.397l-1.844-2H9.856L8.012 7H4.615q-.269 0-.442.173T4 7.615v10.77q0 .269.173.442t.442.173M12 13"/></svg>