<svg xmlns="http://www.w3.org/2000/svg" width="1em" height="1em" viewBox="0 0 24 24"><path fill="currentColor" d="M3 20V6h4.573l1.85-2h5.154l1.85 2H21v14zm1-1h16V7h-4.012l-1.844-2H9.856L8.012 7H4zm8-1.308q1.975 0 3.275-1.491q1.3-1.491 1.367-3.543l1.058.969l.627-.627l-2.077-2.077L14.173 13l.627.627l.958-.958q-.112 1.671-1.145 2.905q-1.032 1.234-2.613 1.234q-.306 0-.599-.063q-.293-.062-.574-.149l-.677.677q.454.185.916.302q.463.117.934.117m-4.25-2.615L9.827 13l-.627-.627l-.958.958q.112-1.671 1.145-2.905Q10.419 9.192 12 9.192q.306 0 .599.063q.293.062.574.149l.677-.677q-.454-.185-.916-.302q-.463-.117-.934-.117q-1.975 0-3.275 1.491q-1.3 1.491-1.367 3.543L6.3 12.373L5.673 13z"/></svg>