<svg xmlns="http://www.w3.org/2000/svg" width="1em" height="1em" viewBox="0 0 24 24"><path fill="currentColor" d="M15.692 5.23q-.261 0-.438-.176t-.177-.439q0-.261.177-.438T15.692 4q.262 0 .439.177t.177.438q0 .262-.177.439t-.439.177m3.693 0q-.262 0-.439-.177t-.177-.439q0-.261.177-.438T19.385 4q.261 0 .438.177t.177.438q0 .262-.177.439t-.438.177m0 3.692q-.262 0-.439-.177t-.177-.438q0-.262.177-.439t.439-.177q.261 0 .438.177t.177.439q0 .261-.177.438t-.438.177m0 3.692q-.262 0-.439-.177q-.177-.176-.177-.438t.177-.438q.177-.177.439-.177q.261 0 .438.177q.177.176.177.438t-.177.438q-.177.177-.438.177m0 3.693q-.262 0-.439-.177t-.177-.439q0-.261.177-.438t.439-.177q.261 0 .438.177t.177.438q0 .262-.177.439t-.438.177M15.692 20q-.261 0-.438-.177t-.177-.438q0-.262.177-.439t.438-.177q.262 0 .439.177t.177.439q0 .261-.177.438t-.439.177m3.693 0q-.262 0-.439-.177t-.177-.438q0-.262.177-.439t.439-.177q.261 0 .438.177t.177.439q0 .261-.177.438t-.438.177m-13.77 0q-.666 0-1.14-.475Q4 19.051 4 18.385V5.615q0-.666.475-1.14Q4.949 4 5.615 4h2.808q.213 0 .356.144q.144.144.144.357q0 .212-.144.356Q8.636 5 8.423 5H5.615q-.269 0-.442.173T5 5.615v12.77q0 .269.173.442t.442.173h2.808q.213 0 .356.144t.144.357q0 .212-.144.356q-.143.143-.356.143zm5.885 2.5V1.885q0-.213.144-.357q.144-.143.357-.143t.356.143q.143.144.143.357V22.5q0 .213-.144.356Q12.212 23 12 23t-.356-.144q-.143-.143-.143-.356"/></svg>