<svg xmlns="http://www.w3.org/2000/svg" width="1em" height="1em" viewBox="0 0 24 24"><path fill="currentColor" d="M8.675 17q-1.252 0-1.78-.5q-.53-.5-1.545-.5q-.758 0-1.221.328q-.464.328-1.129.528q-.188.061-.344-.07q-.156-.13-.156-.344q0-.232.156-.4q.156-.169.357-.254q.54-.225.958-.506Q4.388 15 5.344 15q.439 0 .82.109q.38.108 1.024.48l-1.45-5.462l-1.236 1.52q-.135.17-.323.204q-.189.034-.36-.107q-.177-.14-.195-.341q-.018-.201.122-.372L9.35 4.106q.329-.404.838-.538q.51-.133.995.053L19.51 6.8q.182.073.27.265q.09.193.016.375q-.073.189-.268.274q-.195.086-.384.013L17.34 7.02l2.16 8.102q.42.037.768.265q.35.23.744.4q.201.085.345.263q.143.178.143.391q0 .195-.156.325q-.156.131-.344.07q-.646-.2-1.094-.519Q19.458 16 18.675 16q-1.046 0-1.535.5q-.488.5-1.79.5q-1.271 0-1.803-.5T12 16q-1.046 0-1.535.5q-.488.5-1.79.5m0 2.52q1.046 0 1.535-.5q.488-.5 1.79-.5q1.271 0 1.803.5t1.547.5q1.046 0 1.535-.5q.488-.5 1.79-.5q.956 0 1.363.281q.408.282.949.507q.201.084.357.262q.156.178.156.41q0 .214-.156.335q-.156.122-.344.06q-.665-.2-1.104-.528q-.438-.328-1.221-.328q-1.021 0-1.535.5q-.513.5-1.79.5t-1.803-.5q-.526-.5-1.547-.5q-1.046 0-1.535.5q-.488.5-1.79.5t-1.79-.5q-.489-.5-1.535-.5q-.783 0-1.221.328q-.439.328-1.104.528q-.188.062-.357-.07q-.168-.13-.168-.343q0-.233.153-.401q.153-.169.355-.253q.54-.225.96-.507q.42-.282 1.382-.282q1.302 0 1.79.5q.489.5 1.535.5m6.91-3.544l-1.43-5.421q-.05-.162-.186-.242q-.136-.081-.298-.031l-3.098.813q-.161.05-.252.196q-.09.147-.04.308l.954 3.483q.18-.05.364-.066Q11.783 15 12 15q1.31 0 1.932.55q.622.55 1.653.425"/></svg>