<svg xmlns="http://www.w3.org/2000/svg" width="1em" height="1em" viewBox="0 0 24 24"><path fill="currentColor" d="M12.019 19q-.213 0-.356-.144q-.144-.144-.144-.356V11H7.115q-.412 0-.66-.333q-.247-.332-.117-.717l1.508-4.82q.162-.504.586-.817Q8.856 4 9.38 4h5.277q.525 0 .949.313q.424.313.585.818L17.7 9.95q.13.385-.117.717q-.247.333-.66.333H12.52v7.5q0 .213-.144.356q-.144.144-.356.144m-3 2q-.212 0-.356-.144t-.144-.357q0-.212.144-.356Q8.808 20 9.02 20h6q.213 0 .356.144t.144.357q0 .212-.144.356q-.143.143-.356.143z"/></svg>