<svg xmlns="http://www.w3.org/2000/svg" width="1em" height="1em" viewBox="0 0 24 24"><path fill="currentColor" d="M6.5 10.5h5.27v-1H6.5zM4.615 19q-.69 0-1.152-.462Q3 18.075 3 17.385V6.615q0-.69.463-1.152Q3.925 5 4.615 5h14.77q.65 0 1.088.436q.439.435.485 1.074q-.233-.066-.47-.096q-.238-.03-.488-.03q-1.806 0-3.057 1.252q-1.25 1.25-1.25 3.056q0 .435.08.839t.223.777h-3.92V13.5H6.5v1h5.577v.923q-.873.617-1.34 1.55q-.468.93-.468 2.027zm9.962 1.23q.54 0 .924-.383t.384-.924q0-.54-.384-.924t-.924-.384q-.54 0-.924.384t-.384.924q0 .54.384.924t.924.384M20 12q.54 0 .924-.384q.384-.383.384-.924q0-.54-.384-.924q-.384-.383-.924-.383t-.924.383q-.384.384-.384.924t.384.924Q19.46 12 20 12m-5.423 9.23q-.962 0-1.635-.672q-.673-.673-.673-1.635q0-.84.515-1.461q.514-.622 1.293-.787v-2.367H19.5V12.94q-.779-.165-1.293-.786q-.515-.621-.515-1.462q0-.961.673-1.634q.673-.673 1.635-.673t1.635.673q.673.673.673 1.634q0 .84-.515 1.462q-.514.621-1.293.786v2.368h-5.423v1.367q.779.165 1.293.787t.515 1.461q0 .962-.673 1.635q-.674.673-1.635.673"/></svg>