<svg xmlns="http://www.w3.org/2000/svg" width="1em" height="1em" viewBox="0 0 24 24"><path fill="currentColor" d="M4.615 19q-.69 0-1.152-.462Q3 18.075 3 17.385V6.615q0-.69.463-1.152Q3.925 5 4.615 5h14.77q.69 0 1.152.463q.463.462.463 1.152h-6.154q-1.406 0-2.449.812q-1.043.811-1.387 2.073H6.5v1h4.346v3H6.5v1h4.346v.5q0 1.148.374 2.166q.374 1.019 1.047 1.834zm13.731 2.538q-.671 0-1.143-.472t-.472-1.143v-.965q-1.494-.177-2.497-1.3Q13.23 16.538 13.23 15v-4.385q0-.67.46-1.143Q14.15 9 14.845 9h4.77q.67 0 1.143.472q.472.472.472 1.143V15q0 1.537-1.003 2.659q-1.003 1.122-2.497 1.299v.965q0 .27.173.442q.173.173.442.173h2.385v1zm.635-7.038h1.25v-3.885q0-.25-.183-.432q-.183-.183-.433-.183h-4.769q-.27 0-.442.183q-.173.182-.173.432V12.5h.75q.69 0 1.322.317q.632.318 1.074.89q.277.397.708.595q.43.198.896.198"/></svg>