<svg xmlns="http://www.w3.org/2000/svg" width="1em" height="1em" viewBox="0 0 24 24"><path fill="currentColor" d="M4.615 19q-.666 0-1.14-.475Q3 18.051 3 17.385V6.615q0-.666.475-1.14Q3.949 5 4.615 5h14.77q.666 0 1.14.475q.475.474.475 1.14h-6.154q-1.65 0-2.825 1.175t-1.175 2.825V14.5q0 1.233.323 2.398T12.267 19zm13.731 2.538q-.666 0-1.14-.474q-.475-.475-.475-1.14v-.966q-1.494-.177-2.497-1.357T13.23 14.5v-3.885q0-.666.464-1.14Q14.16 9 14.846 9h4.77q.666 0 1.14.475q.475.474.475 1.14V15q0 1.537-1.003 2.659q-1.003 1.122-2.497 1.299v.965q0 .27.173.442q.173.173.442.173h1.885q.212 0 .356.144t.144.357q0 .213-.144.356t-.356.143zm.635-7.038h1.25v-3.885q0-.25-.183-.432q-.183-.183-.433-.183h-4.769q-.27 0-.442.183q-.173.182-.173.432V12.5h.75q.69 0 1.322.317q.632.318 1.074.89q.267.397.702.595q.434.198.902.198m-8.635-4q.213 0 .356-.144q.144-.144.144-.357t-.144-.356q-.143-.143-.356-.143H7q-.213 0-.356.144Q6.5 9.788 6.5 10t.144.356q.144.143.356.143zm0 4q.213 0 .356-.144q.144-.144.144-.357t-.144-.356q-.143-.143-.356-.143H7q-.213 0-.356.144q-.144.144-.144.357t.144.356q.144.143.356.143z"/></svg>