<svg xmlns="http://www.w3.org/2000/svg" width="1em" height="1em" viewBox="0 0 24 24"><path fill="currentColor" d="M13 21.48q-.633 0-1.066-.433q-.434-.434-.434-1.066v-2.018q-2.325-.176-3.912-1.889T6 12V3.615q0-.67.472-1.143Q6.944 2 7.615 2h8.77q.67 0 1.143.472q.472.472.472 1.143V12q0 2.362-1.588 4.074q-1.587 1.713-3.912 1.89v1.901q0 .27.173.443t.442.173h5v1zm.75-7.98h3.015q.108-.365.172-.737Q17 12.39 17 12v-1.5h-3.5v-1H17v-3h-4.5v-1H17V3.615q0-.269-.173-.442T16.385 3h-8.77q-.269 0-.442.173T7 3.615V11.5h2.75q.71 0 1.341.317q.632.318 1.055.89q.277.391.708.592q.43.201.896.201M12 17q1.379 0 2.525-.682t1.802-1.818H13.75q-.71 0-1.341-.317q-.632-.318-1.055-.89q-.277-.391-.708-.592q-.43-.201-.896-.201H7.023q.177 1.898 1.597 3.199T12 17m-.435-3.98"/></svg>