<svg xmlns="http://www.w3.org/2000/svg" width="1em" height="1em" viewBox="0 0 24 24"><path fill="currentColor" d="M6 12.473v-.923q0-.671.472-1.143t1.143-.472h8.77q.67 0 1.143.472q.472.472.472 1.143v.923q0 .671-.472 1.143t-1.143.472h-8.77q-.67 0-1.143-.472Q6 13.144 6 12.473m5.5-8.127V2.962q0-.214.143-.357q.144-.143.357-.143t.357.143q.143.143.143.357v1.384q0 .214-.143.357q-.144.143-.357.143t-.357-.143q-.143-.143-.143-.357m6.462 2.046l.784-.784q.14-.14.344-.15q.204-.01.364.15t.16.354q0 .194-.16.353l-.785.785q-.14.14-.344.15q-.204.01-.363-.15q-.16-.16-.16-.354t.16-.354M11.5 20.962v-1.385q0-.214.143-.357q.144-.143.357-.143t.357.143q.143.143.143.357v1.385q0 .213-.143.356q-.144.144-.357.144t-.357-.144q-.143-.143-.143-.356m7.246-2.547l-.784-.784q-.14-.14-.15-.344q-.01-.204.15-.364t.353-.16q.195 0 .354.16l.785.785q.14.14.15.344q.01.204-.15.363q-.16.16-.354.16t-.354-.16M5.331 7.1l-.785-.785q-.14-.14-.15-.344q-.01-.204.15-.363q.16-.16.354-.16t.354.16l.784.784q.14.14.15.345q.01.203-.15.363q-.16.16-.353.16q-.195 0-.354-.16m-.785 10.608l.785-.785q.14-.14.344-.15q.204-.01.363.15q.16.16.16.354t-.16.354l-.784.784q-.14.14-.344.15q-.204.01-.364-.15t-.16-.353q0-.195.16-.354m3.07-4.62h8.769q.269 0 .442-.173t.173-.442v-.923q0-.27-.173-.442t-.442-.173h-8.77q-.269 0-.442.173T7 11.55v.923q0 .27.173.442t.442.173M12 12.012"/></svg>