<svg xmlns="http://www.w3.org/2000/svg" width="1em" height="1em" viewBox="0 0 24 24"><path fill="currentColor" d="M4.615 19q-.69 0-1.152-.462Q3 18.075 3 17.385V6.615q0-.69.463-1.152Q3.925 5 4.615 5h4.31q.323 0 .628.13q.305.132.522.349L11.596 7h7.789q.69 0 1.152.463q.463.462.463 1.152v8.77q0 .69-.462 1.152q-.463.463-1.153.463zm0-1h14.77q.269 0 .442-.173t.173-.442v-8.77q0-.269-.173-.442T19.385 8h-8.19L9.366 6.173q-.096-.096-.202-.135Q9.06 6 8.945 6h-4.33q-.269 0-.442.173T4 6.615v10.77q0 .269.173.442t.442.173M4 18V6zm10.23-1.385h2.385q.49 0 .842-.35q.35-.352.35-.842v-4.538h.366q.19 0 .316-.126t.126-.317q0-.19-.126-.316T18.173 10h-1.865v-.212q0-.161-.121-.282q-.122-.121-.283-.121h-.962q-.161 0-.282.12q-.122.122-.122.283V10h-1.865q-.19 0-.316.126t-.126.316q0 .19.126.317q.126.126.316.126h.365v4.538q0 .49.351.841t.842.351m-.308-5.73h3v4.538q0 .135-.086.221q-.087.087-.222.087h-2.384q-.135 0-.221-.087q-.087-.086-.087-.22z"/></svg>