<svg xmlns="http://www.w3.org/2000/svg" width="1em" height="1em" viewBox="0 0 24 24"><path fill="currentColor" d="M3.615 19.77q-.67 0-1.143-.473Q2 18.825 2 18.154V7.577q0-.214.143-.357q.144-.143.357-.143t.357.143Q3 7.363 3 7.577v10.577q0 .27.173.442t.442.173H18.5q.213 0 .357.144q.143.143.143.356q0 .214-.143.357q-.144.143-.357.143zm3-3q-.67 0-1.143-.473Q5 15.825 5 15.154V4.615q0-.67.472-1.143Q5.944 3 6.615 3h4.29q.324 0 .629.13q.304.132.522.349L13.576 5h6.809q.67 0 1.143.472q.472.472.472 1.143v8.539q0 .671-.472 1.143t-1.143.472zm0-1h13.77q.269 0 .442-.174t.173-.442V6.615q0-.269-.173-.442T20.385 6h-7.21l-2-2h-4.56q-.269 0-.442.173T6 4.615v10.539q0 .27.173.442t.442.173m-.615 0V4z"/></svg>