<svg xmlns="http://www.w3.org/2000/svg" width="1em" height="1em" viewBox="0 0 24 24"><path fill="currentColor" d="M15.115 22.385q-.632 0-1.066-.434q-.434-.434-.434-1.066q0-.498.285-.881t.715-.542v-6.18q-.43-.159-.715-.53q-.285-.37-.285-.867q0-.633.434-1.067q.434-.433 1.066-.433q.633 0 1.067.433q.433.434.433 1.067q0 .498-.284.868q-.285.37-.716.53v3.702l3.962-1.325q.192-.058.308-.212q.115-.154.115-.365v-1.8q-.43-.16-.715-.53T19 11.885q0-.633.434-1.067q.433-.433 1.066-.433t1.066.433q.434.434.434 1.067q0 .498-.285.868q-.284.37-.715.53v1.794q0 .535-.298.954q-.298.419-.808.58l-4.279 1.416v1.435q.431.16.716.542q.284.383.284.88q0 .633-.433 1.067q-.434.434-1.067.434M4 19V6zm.615 0q-.69 0-1.152-.462Q3 18.075 3 17.385V6.615q0-.69.463-1.152Q3.925 5 4.615 5h4.31q.323 0 .628.13q.305.132.522.349L11.596 7H20.5q.213 0 .357.143q.143.144.143.357t-.143.357Q20.713 8 20.5 8h-9.306l-2-2H4.615q-.269 0-.442.173T4 6.615v10.77q0 .269.173.442t.442.173h6.116q.213 0 .357.143t.143.357q0 .213-.143.357q-.144.143-.357.143z"/></svg>