<svg xmlns="http://www.w3.org/2000/svg" width="1em" height="1em" viewBox="0 0 24 24"><path fill="currentColor" d="M4.615 19q-.69 0-1.152-.462Q3 18.075 3 17.385V6.615q0-.69.463-1.152Q3.925 5 4.615 5h4.31q.323 0 .628.13q.305.132.522.349L11.596 7h7.789q.69 0 1.152.463q.463.462.463 1.152v8.77q0 .69-.462 1.152q-.463.463-1.153.463zM14.9 14.662l1.392 1.063q.131.087.24.006q.108-.081.058-.218l-.51-1.74l1.462-1.188q.106-.087.056-.22t-.186-.134h-1.766l-.554-1.685q-.05-.136-.192-.136t-.192.136l-.554 1.685h-1.766q-.136 0-.186.133t.056.22l1.461 1.19l-.51 1.74q-.05.136.06.217t.239-.006z"/></svg>