<svg xmlns="http://www.w3.org/2000/svg" width="1em" height="1em" viewBox="0 0 24 24"><path fill="currentColor" d="M15.115 22.385q-.632 0-1.066-.434q-.434-.434-.434-1.066q0-.498.285-.881t.715-.542v-6.18q-.43-.159-.715-.53q-.285-.37-.285-.867q0-.633.434-1.067q.434-.433 1.066-.433q.633 0 1.067.433q.433.434.433 1.067q0 .498-.284.868q-.285.37-.716.53v3.702L20 15.525v-2.242q-.43-.16-.715-.53T19 11.885q0-.633.434-1.067q.433-.433 1.066-.433t1.066.433q.434.434.434 1.067q0 .498-.285.868q-.284.37-.715.53v2.955l-5.385 1.789v1.435q.431.16.716.542q.284.383.284.88q0 .633-.433 1.067q-.434.434-1.067.434M4 19V6zm-1 0V5h6.596l2 2H21v1h-9.806l-2-2H4v12h7.23v1z"/></svg>