<svg xmlns="http://www.w3.org/2000/svg" width="1em" height="1em" viewBox="0 0 24 24"><path fill="currentColor" d="M3.615 19.77q-.666 0-1.14-.475Q2 18.82 2 18.154V7.577q0-.213.144-.356q.144-.144.357-.144q.212 0 .356.144q.143.143.143.356v10.577q0 .27.173.442t.442.173H18.5q.213 0 .356.144t.144.357q0 .213-.144.356t-.356.143zm3-3q-.666 0-1.14-.475Q5 15.82 5 15.154V4.615q0-.666.475-1.14Q5.949 3 6.615 3h4.29q.332 0 .633.13q.3.132.518.349L13.576 5h6.809q.666 0 1.14.475q.475.474.475 1.14v8.539q0 .666-.475 1.14q-.474.475-1.14.475z"/></svg>