<svg xmlns="http://www.w3.org/2000/svg" width="1em" height="1em" viewBox="0 0 24 24"><path fill="currentColor" d="M4.5 19q-.633 0-1.066-.434Q3 18.133 3 17.5V6.615q0-.632.491-1.124Q3.983 5 4.615 5h4.31q.323 0 .628.13q.305.132.522.349L11.596 7h8.73q.214 0 .358.143q.143.144.143.357t-.143.357Q20.54 8 20.327 8H7.447q-1.397 0-2.422.898Q4 9.796 4 11.162v6.223q0 .211.106.346q.106.134.279.23l1.917-6.42q.161-.516.593-.836q.432-.32.967-.32h12.823q.813 0 1.304.649q.492.649.255 1.426l-1.646 5.48q-.142.477-.545.769q-.403.291-.9.291z"/></svg>