<svg xmlns="http://www.w3.org/2000/svg" width="1em" height="1em" viewBox="0 0 24 24"><path fill="currentColor" d="M4.615 19q-.69 0-1.152-.462Q3 18.075 3 17.385V6.615q0-.69.463-1.152Q3.925 5 4.612 5h4.309q.333 0 .635.13q.302.132.519.349L11.596 7h7.789q.69 0 1.152.463q.463.462.463 1.152v8.77q0 .69-.462 1.152q-.463.463-1.153.463zm9.616-2.385h2.384q.497 0 .845-.347q.348-.348.348-.845v-4.538h.365q.192 0 .317-.125q.125-.126.125-.317t-.125-.317Q18.365 10 18.173 10h-1.865v-.212q0-.161-.121-.282q-.122-.121-.283-.121h-.962q-.161 0-.282.12q-.122.122-.122.283V10h-1.865q-.192 0-.317.125t-.125.316q0 .192.125.318t.317.126h.365v4.538q0 .497.348.845q.348.347.845.347m-.308-5.73h3v4.538q0 .135-.086.221q-.087.087-.222.087h-2.384q-.135 0-.221-.087q-.087-.086-.087-.22z"/></svg>