<svg xmlns="http://www.w3.org/2000/svg" width="1em" height="1em" viewBox="0 0 24 24"><path fill="currentColor" d="M15.115 22.385q-.632 0-1.066-.434q-.434-.434-.434-1.066q0-.498.285-.881t.715-.542v-6.18q-.43-.159-.715-.53q-.285-.37-.285-.867q0-.633.434-1.067q.434-.433 1.066-.433q.633 0 1.067.433q.433.434.433 1.067q0 .498-.284.868q-.285.37-.716.53v3.702l3.962-1.325q.192-.058.308-.212q.115-.154.115-.365v-1.8q-.43-.16-.715-.53T19 11.885q0-.633.434-1.067q.433-.433 1.066-.433t1.066.433q.434.434.434 1.067q0 .498-.285.868q-.284.37-.715.53v1.794q0 .535-.298.954q-.298.419-.808.58l-4.279 1.416v1.435q.431.16.716.542q.284.383.284.88q0 .633-.433 1.067q-.434.434-1.067.434M4.615 19q-.69 0-1.152-.462Q3 18.075 3 17.385V6.615q0-.69.463-1.152Q3.925 5 4.615 5h4.31q.323 0 .628.13q.305.132.522.349L11.596 7H20.5q.213 0 .357.143q.143.144.143.357t-.143.357Q20.713 8 20.5 8h-5.385q-1.611 0-2.748 1.137q-1.136 1.136-1.136 2.748q0 .755.262 1.43q.263.675.738 1.181v3.777q-.152.177-.268.35q-.117.171-.203.377z"/></svg>