<svg xmlns="http://www.w3.org/2000/svg" width="1em" height="1em" viewBox="0 0 24 24"><path fill="currentColor" d="M7.438 17.577H8.5l1.062-3.012h4.876l1.062 3.012h1.062L12.435 6.192h-.87zm2.454-3.954l2.058-5.796h.1l2.058 5.796zM4.615 21q-.69 0-1.152-.462Q3 20.075 3 19.385V4.615q0-.69.463-1.152Q3.925 3 4.615 3h14.77q.69 0 1.152.463q.463.462.463 1.152v14.77q0 .69-.462 1.152q-.463.463-1.153.463zm0-1h14.77q.23 0 .423-.192q.192-.193.192-.423V4.615q0-.23-.192-.423Q19.615 4 19.385 4H4.615q-.23 0-.423.192Q4 4.385 4 4.615v14.77q0 .23.192.423q.193.192.423.192M4 4v16z"/></svg>