<svg xmlns="http://www.w3.org/2000/svg" width="1em" height="1em" viewBox="0 0 24 24"><path fill="currentColor" d="M9.562 14.565h4.876l.952 2.695q.062.16.177.238q.116.079.281.079q.27 0 .409-.21t.055-.461L12.53 6.452q-.048-.121-.154-.19q-.106-.07-.233-.07h-.288q-.127 0-.233.07q-.106.069-.154.19L7.69 16.906q-.085.244.051.457q.137.214.406.214q.171 0 .284-.079t.18-.244zm.33-.942l2.058-5.796h.1l2.058 5.796zM4.615 21q-.69 0-1.152-.462Q3 20.075 3 19.385V4.615q0-.69.463-1.152Q3.925 3 4.615 3h14.77q.69 0 1.152.463q.463.462.463 1.152v14.77q0 .69-.462 1.152q-.463.463-1.153.463zm0-1h14.77q.23 0 .423-.192q.192-.193.192-.423V4.615q0-.23-.192-.423Q19.615 4 19.385 4H4.615q-.23 0-.423.192Q4 4.385 4 4.615v14.77q0 .23.192.423q.193.192.423.192M4 4v16z"/></svg>