<svg xmlns="http://www.w3.org/2000/svg" width="1em" height="1em" viewBox="0 0 24 24"><path fill="currentColor" d="M6.615 20q-.666 0-1.14-.475Q5 19.051 5 18.385v-8.077q0-.384.172-.727q.171-.343.474-.566l5.385-4.057q.422-.323.966-.323q.543 0 .972.323l5.385 4.057q.303.223.474.566q.172.343.172.727v8.077q0 .666-.475 1.14q-.474.475-1.14.475zm4.116-2.654q.18 0 .302-.121q.12-.121.12-.302v-2.961q.53 0 .9-.37t.37-.9v-2.115q0-.18-.121-.302T12 10.154q-.18 0-.302.121t-.121.302v2.115h-.423v-2.115q0-.18-.121-.302q-.121-.121-.302-.121t-.302.121t-.121.302v2.115h-.423v-2.115q0-.18-.122-.302q-.12-.121-.301-.121t-.302.121q-.122.121-.122.302v2.115q0 .53.37.9t.9.37v2.961q0 .18.12.302t.303.121m3.384 0q.181 0 .302-.121t.121-.302v-6.22q0-.232-.16-.39q-.16-.16-.395-.16q-.577 0-.857.53q-.28.529-.28 1.163v1.728q0 .345.247.546q.247.201.56.265h.04v2.538q0 .18.12.302q.122.121.302.121"/></svg>