<svg xmlns="http://www.w3.org/2000/svg" width="1em" height="1em" viewBox="0 0 24 24"><path fill="currentColor" d="m13.5 5.94l-1.746 1.747q-.146.146-.344.152q-.198.007-.364-.158q-.16-.166-.162-.354q-.003-.189.162-.354l2.389-2.388q.242-.243.565-.243q.323 0 .565.243l2.389 2.388q.14.14.153.341q.012.201-.153.367q-.16.16-.354.16t-.354-.16L14.5 5.94V19.5q0 .213-.143.357Q14.213 20 14 20t-.357-.143q-.143-.144-.143-.357v-3.038q-.488-1.831-1.713-2.728q-1.224-.897-2.67-.897q-.544 0-1.107.056q-.564.057-1.089.145l1.746 1.747q.14.14.15.341q.01.2-.155.366q-.16.16-.354.16q-.195 0-.354-.16l-2.389-2.388q-.242-.242-.242-.566q0-.323.242-.565l2.389-2.388q.14-.14.341-.153q.201-.013.367.153q.16.16.16.353q0 .195-.16.354l-1.74 1.746q.513-.088 1.051-.132q.539-.044 1.121-.044q1.37 0 2.498.597q1.13.597 1.908 1.814z"/></svg>