<svg xmlns="http://www.w3.org/2000/svg" width="1em" height="1em" viewBox="0 0 24 24"><path fill="currentColor" d="M4.962 20.5q-1.039 0-1.77-.73q-.73-.732-.73-1.77q0-.592.26-1.112t.74-.888v-4.5H5.75V6h6.096L16.2 16.19q.13.312.215.633q.085.321.085.677q0 1.258-.871 2.129T13.5 20.5q-.967 0-1.743-.547q-.776-.547-1.086-1.453h-3.27q-.17.88-.859 1.44q-.688.56-1.58.56m12.538-1v-15h1v14h3.038v1zm-12.538 0q.617 0 1.058-.441q.442-.442.442-1.059t-.442-1.059q-.44-.441-1.058-.441q-.618 0-1.06.441q-.44.442-.44 1.059t.44 1.059q.442.441 1.06.441m8.538 0q.817 0 1.409-.591q.591-.592.591-1.409q0-.817-.591-1.409q-.592-.591-1.409-.591q-.817 0-1.409.591q-.591.592-.591 1.409q0 .817.591 1.409q.592.591 1.409.591m-3.825-5h3.86q.25 0 .49.058q.24.057.471.173L11.194 7H6.75v4.5z"/></svg>