<svg xmlns="http://www.w3.org/2000/svg" width="1em" height="1em" viewBox="0 0 24 24"><path fill="currentColor" d="M4.962 20.5q-1.042 0-1.771-.73q-.73-.728-.73-1.77q0-.592.26-1.112q.26-.52.74-.888v-3.692q0-.344.233-.576q.232-.232.575-.232H5.75V6.808q0-.344.232-.576Q6.214 6 6.558 6h4.213q.492 0 .902.258q.41.257.602.717L16.2 16.19q.13.312.215.637q.085.325.085.673q0 1.258-.871 2.129T13.5 20.5q-.967 0-1.743-.547q-.776-.547-1.086-1.453h-3.27q-.17.88-.859 1.44q-.688.56-1.58.56m16.076-1h-2.73q-.344 0-.576-.232q-.232-.232-.232-.576V5q0-.213.144-.356T18 4.5q.212 0 .356.144q.143.144.143.356v13.5h2.538q.213 0 .357.144q.143.144.143.357t-.143.356q-.144.143-.357.143m-16.076 0q.617 0 1.058-.441q.442-.442.442-1.059t-.442-1.059Q5.58 16.5 4.962 16.5q-.618 0-1.06.441q-.44.442-.44 1.059t.44 1.059q.442.441 1.06.441m8.538 0q.817 0 1.409-.591q.591-.592.591-1.409q0-.817-.591-1.409q-.592-.591-1.409-.591q-.817 0-1.409.591q-.591.592-.591 1.409q0 .817.591 1.409q.592.591 1.409.591m-3.825-5h3.86q.25 0 .49.058q.24.057.471.173l-3.148-7.366q-.077-.173-.221-.269T10.79 7H6.75v4.5z"/></svg>