<svg xmlns="http://www.w3.org/2000/svg" width="1em" height="1em" viewBox="0 0 24 24"><path fill="currentColor" d="M2 24v-2h20v2zm12.004-11.712l-2.6-2.6l-3.885 3.885q-.173.173-.173.423t.173.423l1.748 1.754q.173.173.423.173t.423-.173zm-1.887-3.307l2.595 2.594l4.538-4.533q.173-.173.173-.442t-.173-.442l-1.715-1.716q-.173-.173-.443-.173q-.269 0-.442.173zm-1.061-.36l4.015 4.016l-4.244 4.25q-.485.484-1.134.484q-.649 0-1.133-.484l-.193-.193l-1.155 1.133h-2.77l2.535-2.529l-.154-.154q-.485-.484-.49-1.14q-.006-.654.479-1.139zm0 0l4.906-4.906q.484-.484 1.133-.484q.65 0 1.134.484l1.754 1.748q.484.485.484 1.134q0 .65-.484 1.134l-4.912 4.906z"/></svg>