<svg xmlns="http://www.w3.org/2000/svg" width="1em" height="1em" viewBox="0 0 24 24"><path fill="currentColor" d="M11.135 4v10q0 .213-.144.357q-.144.143-.357.143t-.356-.144q-.143-.144-.143-.356V9.73h-.443q-1.4 0-2.373-.982t-.973-2.383q0-1.4.973-2.382Q8.292 3 9.692 3h5.731q.213 0 .356.144q.144.144.144.357q0 .212-.144.356q-.143.143-.356.143h-1.385v10q0 .213-.143.356t-.357.144q-.213 0-.356-.144T13.038 14V4zm6.95 14.327H4.5q-.213 0-.356-.144T4 17.826q0-.213.144-.356q.143-.143.356-.143h13.565l-1.611-1.612q-.16-.16-.16-.363t.16-.364q.16-.16.363-.16t.364.16l2.254 2.254q.242.243.242.566t-.242.565l-2.254 2.273q-.134.16-.341.16t-.367-.16q-.16-.16-.16-.354q0-.194.16-.354z"/></svg>