<svg xmlns="http://www.w3.org/2000/svg" width="1em" height="1em" viewBox="0 0 24 24"><path fill="currentColor" d="m12.546 9.965l-.94-.94l.788-1.904h-2.73L8.426 5.885H18.5q.26 0 .438.178q.177.177.177.437t-.177.438q-.178.177-.438.177h-4.742zM18.985 20.4l-7.62-7.638l-2.138 5.044q-.079.175-.226.28q-.147.106-.347.106q-.339 0-.52-.28q-.18-.281-.047-.589l2.344-5.496l-7.023-7.004q-.14-.14-.15-.344q-.01-.204.15-.364t.354-.16q.194 0 .353.16l15.577 15.577q.14.14.15.345q.01.203-.15.363q-.16.16-.354.16q-.194 0-.353-.16"/></svg>