<svg xmlns="http://www.w3.org/2000/svg" width="1em" height="1em" viewBox="0 0 24 24"><path fill="currentColor" d="M2.385 21.615v-4.23H4V6.615H2.385v-4.23h4.23V4h10.77V2.385h4.23v4.23H20v10.77h1.615v4.23h-4.23V20H6.615v1.615zM6.615 19h10.77v-1.615H19V6.615h-1.615V5H6.615v1.615H5v10.77h1.615zm1.55-3l3.516-9h.638l3.554 9H14.9l-1.03-2.608h-3.728L9.112 16zm2.273-3.408h3.124L12.03 8.573h-.1zM3.385 5.615h2.23v-2.23h-2.23zm15 0h2.23v-2.23h-2.23zm0 15h2.23v-2.23h-2.23zm-15 0h2.23v-2.23h-2.23zm2.23-2.23"/></svg>