<svg xmlns="http://www.w3.org/2000/svg" width="1em" height="1em" viewBox="0 0 24 24"><path fill="currentColor" d="M12 20q-2.921 0-4.96-2.005Q5 15.99 5 13.138q0-1.39.544-2.613t1.402-2.163l-3.77-3.77q-.14-.14-.15-.344q-.009-.204.15-.363q.16-.16.355-.16q.194 0 .354.16L20.23 20.23q.14.14.15.344q.01.204-.15.363q-.16.16-.354.16t-.354-.16l-2.785-2.784q-.87.86-2.132 1.353T12 20m0-1q1.285 0 2.338-.471t1.681-1.094L7.654 9.08q-.679.742-1.166 1.782Q6 11.903 6 13.138q0 2.45 1.75 4.156T12 19m4.958-10.758q1.384 1.366 1.826 3.22q.441 1.855-.067 3.651q-.055.177-.177.262q-.12.085-.298.085q-.28 0-.412-.23q-.132-.228-.045-.497q.528-1.433.028-3.06q-.5-1.629-1.563-2.673L12 4.8l-2 1.956q-.14.14-.344.147q-.204.007-.364-.153q-.165-.165-.165-.357q0-.191.165-.35l2.062-2.018q.148-.148.308-.21q.16-.061.338-.061t.338.064q.16.065.308.207zm-2.72 1.527"/></svg>