<svg xmlns="http://www.w3.org/2000/svg" width="1em" height="1em" viewBox="0 0 24 24"><path fill="currentColor" d="M4.5 20q-.213 0-.356-.144Q4 19.712 4 19.5t.144-.356Q4.288 19 4.5 19h15q.213 0 .356.144T20 19.5q0 .212-.144.356q-.143.143-.356.143zm8-3.75q-.213 0-.356-.144Q12 15.962 12 15.75t.144-.356q.144-.143.356-.143h7q.213 0 .356.144t.144.357q0 .212-.144.356q-.143.143-.356.143zm0-3.75q-.213 0-.356-.144Q12 12.212 12 12t.144-.356q.144-.143.356-.143h7q.213 0 .356.144q.144.144.144.357t-.144.356q-.143.143-.356.143zm0-3.75q-.213 0-.356-.144T12 8.25q0-.212.144-.356q.144-.143.356-.143h7q.213 0 .356.144q.144.144.144.357q0 .212-.144.356q-.143.143-.356.143zM4.5 5q-.213 0-.356-.144T4 4.499q0-.212.144-.356Q4.288 4 4.5 4h15q.213 0 .356.144q.144.144.144.357q0 .212-.144.356Q19.713 5 19.5 5zm.196 9.112q-.192.192-.444.095T4 13.838v-3.676q0-.272.252-.369t.444.095l1.82 1.82q.13.123.13.289q0 .165-.13.295z"/></svg>