<svg xmlns="http://www.w3.org/2000/svg" width="1em" height="1em" viewBox="0 0 24 24"><path fill="currentColor" d="M1.5 20.5v-3.288l2-2V8.788l-2-2V3.5h1v2h3v-2h1v2h3v-2h1v3.288l-2 2V10.5h7V8.788l-2-2V3.5h1v2h3v-2h1v2h3v-2h1v3.288l-2 2v6.424l2 2V20.5h-8V18q0-1.031-.735-1.766t-1.769-.734q-1.033 0-1.764.734Q9.5 16.97 9.5 18v2.5zm1-1h6V18q0-1.458 1.021-2.479T12 14.5q1.458 0 2.479 1.021T15.5 18v1.5h6v-1.887l-2-2V8.387L21.387 6.5h-6.774L16.5 8.387V11.5h-9V8.387L9.387 6.5H2.613L4.5 8.387v7.226l-2 2zM12 13"/></svg>