<svg xmlns="http://www.w3.org/2000/svg" width="1em" height="1em" viewBox="0 0 24 24"><path fill="currentColor" d="M12 21q-1.663 0-3.118-.626q-1.455-.626-2.543-1.713q-1.087-1.088-1.713-2.543Q4 14.663 4 13q0-1.663.626-3.118q.626-1.455 1.713-2.543q1.088-1.087 2.543-1.713Q10.337 5 12 5h.38l-1.31-1.312q-.166-.165-.163-.353q.003-.189.162-.354q.166-.166.367-.159q.2.007.347.153l1.96 1.94q.242.243.242.566t-.243.565l-1.92 1.94q-.166.166-.358.163q-.19-.003-.356-.168q-.16-.166-.153-.364q.007-.198.153-.344L12.38 6H12Q9.075 6 7.038 8.038T5 13q0 2.925 2.038 4.963T12 20q2.925 0 4.963-2.037T19 13q0-.213.143-.357q.144-.143.357-.143t.357.143Q20 12.787 20 13q0 1.663-.626 3.118q-.626 1.455-1.713 2.543q-1.088 1.087-2.543 1.713Q13.663 21 12 21m-1.385-5.308H7.981q-.19 0-.317-.126q-.126-.126-.126-.316t.126-.316q.126-.126.317-.126h2.442v-1.423H8.731q-.162 0-.273-.112q-.112-.111-.112-.273t.112-.273q.111-.112.273-.112h1.692v-1.423H7.981q-.19 0-.317-.126q-.126-.126-.126-.316t.126-.316q.126-.126.317-.126h2.634q.31 0 .501.191q.192.191.192.501v4q0 .31-.192.501q-.191.191-.5.191m3.076 0q-.425 0-.712-.287t-.288-.713v-3.384q0-.425.288-.713t.712-.287h1.77q.425 0 .712.287t.288.713v3.384q0 .425-.288.713t-.712.287zm.116-.884h1.538q.116 0 .173-.058t.058-.173v-3.154q0-.115-.058-.173t-.173-.058h-1.538q-.116 0-.173.058q-.058.058-.058.173v3.154q0 .115.058.173q.057.058.173.058"/></svg>