<svg xmlns="http://www.w3.org/2000/svg" width="1em" height="1em" viewBox="0 0 24 24"><path fill="currentColor" d="M12.001 21q-1.664 0-3.12-.626q-1.454-.626-2.542-1.713q-1.087-1.088-1.713-2.542Q4 14.666 4 13.001q0-1.664.626-3.12q.626-1.454 1.713-2.542q1.088-1.087 2.542-1.713Q10.335 5 12 5h.38l-1.31-1.312q-.166-.165-.163-.353q.003-.189.158-.354q.17-.166.37-.159q.202.007.348.153l1.96 1.94q.242.243.242.566t-.243.565l-1.92 1.94q-.166.166-.358.163q-.19-.003-.36-.168q-.156-.166-.15-.364q.008-.198.154-.344L12.38 6H12Q9.075 6 7.038 8.038T5 13q0 2.925 2.038 4.963T12 20q2.925 0 4.963-2.037T19 13q0-.213.144-.356t.357-.144q.212 0 .356.144q.143.144.143.356q0 1.665-.626 3.119q-.626 1.454-1.713 2.542q-1.088 1.087-2.542 1.713q-1.453.626-3.118.626M13 15.692h-2.75q-.192 0-.317-.125t-.125-.316t.125-.317q.125-.126.317-.126h2.558v-1.423H10.25q-.192 0-.317-.126q-.125-.125-.125-.317V10.75q0-.192.125-.317t.317-.125h3q.192 0 .317.125t.125.316t-.125.317q-.125.126-.317.126h-2.558v1.423h2.558q.192 0 .317.126q.125.125.125.317V15q0 .294-.199.493q-.199.2-.493.2"/></svg>