<svg xmlns="http://www.w3.org/2000/svg" width="1em" height="1em" viewBox="0 0 24 24"><path fill="currentColor" d="M9.423 15.692v-4.5H8.038v-.884h2.27v5.384zm3.27 0q-.426 0-.713-.287t-.288-.713v-3.384q0-.425.288-.713t.712-.287h1.77q.425 0 .712.287t.288.713v3.384q0 .425-.288.713t-.712.287zm.115-.884h1.538q.116 0 .173-.058t.058-.173v-3.154q0-.115-.058-.173t-.173-.058h-1.538q-.116 0-.173.058q-.058.058-.058.173v3.154q0 .115.058.173q.057.058.173.058M12 21q-1.663 0-3.118-.626q-1.455-.626-2.543-1.713q-1.087-1.088-1.713-2.543Q4 14.663 4 13q0-1.663.626-3.118q.626-1.455 1.713-2.543q1.088-1.087 2.543-1.713Q10.337 5 12 5h.38l-1.665-1.665l.708-.72l2.885 2.866l-2.846 2.865l-.708-.72L12.38 6H12Q9.075 6 7.038 8.038T5 13q0 2.925 2.038 4.963T12 20q2.925 0 4.963-2.037T19 13h1q0 1.663-.626 3.118q-.626 1.455-1.713 2.543q-1.088 1.087-2.543 1.713Q13.663 21 12 21"/></svg>