<svg xmlns="http://www.w3.org/2000/svg" width="1em" height="1em" viewBox="0 0 24 24"><path fill="currentColor" d="M12.001 21q-1.664 0-3.12-.626q-1.454-.626-2.542-1.713q-1.087-1.088-1.713-2.542Q4 14.666 4 13.001q0-1.664.626-3.12q.626-1.454 1.713-2.542q1.088-1.087 2.542-1.713Q10.335 5 12 5h.38l-1.665-1.665l.708-.72l2.885 2.866l-2.846 2.865l-.708-.72L12.38 6H12Q9.075 6 7.038 8.038T5 13q0 2.925 2.038 4.963T12 20q2.925 0 4.963-2.037T19 13h1q0 1.663-.626 3.118q-.626 1.455-1.713 2.543q-1.088 1.087-2.542 1.713q-1.453.626-3.118.626m-2.193-5.308v-.884h3v-1.423h-3v-3.077h3.884v.884h-3v1.423H13q.294 0 .493.2q.2.198.2.493V15q0 .294-.2.493q-.199.2-.493.2z"/></svg>