<svg xmlns="http://www.w3.org/2000/svg" width="1em" height="1em" viewBox="0 0 24 24"><path fill="currentColor" d="M4.475 19.256q-1.038 0-1.766-.731q-.728-.73-.728-1.77v-5.384q0-.671.472-1.143t1.143-.472h5.212V5.583q0-.348.23-.578q.23-.23.577-.23h3.25q1.039 0 1.77.73q.73.732.73 1.77v4.173h1.302V10.1q0-.304.115-.583t.331-.496l.649-.642q.292-.292.693-.237q.4.056.593.43l2.652 4.997q.217.404-.022.795t-.7.392h-2.81q-.614 0-1.048-.434q-.433-.434-.453-1.066v-.808H15.36v2.23q.538.349.84.888q.3.54.3 1.19q0 1.038-.73 1.769q-.732.73-1.77.73q-.892 0-1.58-.55q-.69-.55-.866-1.43H6.92q-.177.88-.865 1.43q-.689.55-1.581.55m0-1q.617 0 1.062-.44q.444-.442.444-1.06q0-.617-.442-1.058q-.44-.441-1.058-.441q-.618 0-1.059.441q-.441.441-.441 1.059q0 .617.438 1.058q.439.442 1.056.442m9.525 0q.617 0 1.059-.442q.441-.44.441-1.058q0-.618-.441-1.059q-.442-.441-1.059-.441t-1.059.441q-.441.441-.441 1.059q0 .617.441 1.058q.442.442 1.059.442m6.675-4.5l-2.387-4.502l-.461.48q-.077.078-.115.174q-.039.096-.039.192v3.156q.02.211.154.356q.135.144.346.144zM9.808 11.448h4.557V7.275q0-.617-.441-1.059q-.441-.441-1.059-.441H9.808z"/></svg>