<svg xmlns="http://www.w3.org/2000/svg" width="1em" height="1em" viewBox="0 0 24 24"><path fill="currentColor" d="M7.423 16.577H4.5q-.213 0-.356-.144Q4 16.289 4 16.076t.144-.356q.143-.143.356-.143h3.115q.344 0 .576.232q.232.232.232.576V19.5q0 .213-.144.356T7.922 20q-.212 0-.356-.144q-.143-.144-.143-.356zm9.173 0V19.5q0 .213-.144.356q-.144.144-.357.144q-.212 0-.356-.144q-.143-.144-.143-.356v-3.115q0-.344.232-.576q.233-.232.576-.232h3.115q.213 0 .356.144t.144.357q0 .212-.144.356q-.143.143-.356.143zM7.423 7.423V4.5q0-.213.144-.356Q7.711 4 7.924 4t.356.144q.143.143.143.356v3.115q0 .344-.232.576q-.232.232-.576.232H4.5q-.213 0-.356-.144T4 7.922q0-.212.144-.356q.143-.143.356-.143zm9.173 0h2.923q.213 0 .356.144q.144.144.144.357t-.144.356q-.143.143-.356.143h-3.115q-.343 0-.576-.232q-.232-.232-.232-.576V4.5q0-.213.144-.356T16.097 4q.213 0 .356.144q.143.143.143.356z"/></svg>