<svg xmlns="http://www.w3.org/2000/svg" width="1em" height="1em" viewBox="0 0 24 24"><path fill="currentColor" d="M4.615 20q-.69 0-1.152-.462Q3 19.075 3 18.385V8.5q0-.213.143-.357Q3.287 8 3.5 8t.357.143Q4 8.287 4 8.5v9.885q0 .23.192.423q.193.192.423.192H17.5q.213 0 .357.143q.143.144.143.357t-.143.357Q17.713 20 17.5 20zm4-4q-.69 0-1.152-.462Q7 15.075 7 14.385V4.808q0-.348.23-.578q.23-.23.578-.23h13.384q.348 0 .578.23q.23.23.23.578v9.577q0 .69-.462 1.153q-.463.462-1.153.462zm0-1h11.77q.23 0 .423-.192q.192-.193.192-.423V5H8v9.385q0 .23.192.423q.193.192.423.192m1.885-3h3q.213 0 .357-.143T14 11.5v-4q0-.213-.143-.357T13.5 7h-3q-.213 0-.357.143T10 7.5v4q0 .213.143.357T10.5 12m5.5 0h2q.425 0 .713-.288T19 11q0-.425-.288-.712T18 10h-2q-.425 0-.712.288T15 11q0 .425.288.713T16 12m0-3h2q.425 0 .713-.288T19 8q0-.425-.288-.712T18 7h-2q-.425 0-.712.288T15 8q0 .425.288.713T16 9m-8 6V5z"/></svg>