<svg xmlns="http://www.w3.org/2000/svg" width="1em" height="1em" viewBox="0 0 24 24"><path fill="currentColor" d="M4.115 18q-.666 0-1.14-.475q-.475-.474-.475-1.14v-8.77q0-.666.475-1.14Q3.449 6 4.115 6h8.77q.666 0 1.14.475q.475.474.475 1.14v8.77q0 .666-.475 1.14q-.474.475-1.14.475zm13.202-7q-.357 0-.587-.23q-.23-.23-.23-.587V6.817q0-.357.23-.587q.23-.23.587-.23h3.366q.357 0 .587.23q.23.23.23.587v3.366q0 .357-.23.587q-.23.23-.587.23zM5.5 14.904h6q.233 0 .349-.217q.116-.218-.026-.43l-1.625-2.174q-.13-.162-.323-.162t-.323.162L8 14.153l-1.052-1.395q-.13-.162-.323-.162t-.323.162l-1.125 1.5q-.142.211-.026.429q.116.217.349.217M17.317 18q-.357 0-.587-.23q-.23-.23-.23-.587v-3.366q0-.357.23-.587q.23-.23.587-.23h3.366q.357 0 .587.23q.23.23.23.587v3.366q0 .357-.23.587q-.23.23-.587.23z"/></svg>