<svg xmlns="http://www.w3.org/2000/svg" width="1em" height="1em" viewBox="0 0 24 24"><path fill="currentColor" d="m11.435 8.512l-1.193-1.193q-.13-.13-.186-.274Q10 6.9 10 6.748v-2.94q0-.344.232-.576q.232-.232.576-.232h2.384q.344 0 .576.232q.232.232.232.576v2.94q0 .153-.056.297q-.056.143-.186.274l-1.193 1.193q-.13.13-.27.183q-.139.053-.298.053q-.159 0-.295-.053q-.137-.053-.267-.183m4.053 4.053q-.13-.13-.183-.27q-.053-.139-.053-.298q0-.159.053-.295q.053-.137.183-.267l1.193-1.193q.13-.13.274-.186q.144-.056.297-.056h2.94q.344 0 .576.232q.232.232.232.576v2.384q0 .344-.232.576q-.232.232-.576.232h-2.94q-.153 0-.297-.056q-.143-.056-.274-.186zM3 13.192v-2.384q0-.344.232-.576q.232-.232.576-.232h2.94q.153 0 .297.056q.143.056.274.186l1.193 1.193q.13.13.183.27q.053.139.053.298q0 .159-.053.295q-.053.137-.183.267l-1.193 1.193q-.13.13-.274.186Q6.9 14 6.748 14h-2.94q-.344 0-.576-.232Q3 13.536 3 13.192m7 7v-2.94q0-.153.056-.297q.056-.143.186-.274l1.193-1.193q.13-.13.27-.183q.139-.053.298-.053q.159 0 .295.053q.137.053.267.183l1.193 1.193q.13.13.186.274q.056.144.056.297v2.94q0 .344-.232.576q-.232.232-.576.232h-2.384q-.344 0-.576-.232q-.232-.232-.232-.576M12 7.65l1-1V4h-2v2.65zM4 13h2.65l1-1l-1-1H4zm7 7h2v-2.65l-1-1l-1 1zm6.35-7H20v-2h-2.65l-1 1z"/></svg>