<svg xmlns="http://www.w3.org/2000/svg" width="1em" height="1em" viewBox="0 0 24 24"><path fill="currentColor" d="M4.615 21q-.69 0-1.152-.462Q3 20.075 3 19.385V4.615q0-.69.463-1.152Q3.925 3 4.615 3h14.77q.69 0 1.152.463q.463.462.463 1.152v14.77q0 .69-.462 1.152q-.463.463-1.153.463zm4-7.23q-.31 0-.539-.23q-.23-.23-.23-.54q0-.31.23-.54q.23-.23.54-.23q.309 0 .539.23q.23.23.23.54q0 .31-.23.54q-.23.23-.54.23m6.77 0q-.31 0-.54-.23q-.23-.23-.23-.54q0-.31.23-.54q.23-.23.54-.23q.31 0 .539.23q.23.23.23.54q0 .31-.23.54q-.23.23-.54.23M6 11.253v5.792q0 .196.129.325t.325.129h.092q.196 0 .325-.129T7 17.046V15.5h10v1.546q0 .196.129.325t.325.129h.092q.196 0 .325-.129t.129-.325v-5.792l-1.496-4.3q-.067-.216-.24-.335t-.387-.119H8.123q-.215 0-.387.12t-.24.334zm1.304-.754l1.046-3h7.3l1.046 3z"/></svg>