<svg xmlns="http://www.w3.org/2000/svg" width="1em" height="1em" viewBox="0 0 24 24"><path fill="currentColor" d="M8.885 12.846h6.23q.213 0 .357.144t.143.357q0 .213-.143.356q-.144.143-.357.143h-6.23q-.213 0-.357-.144q-.143-.144-.143-.357q0-.212.143-.356q.144-.143.357-.143m0 3.077h6.23q.213 0 .357.144q.143.144.143.357t-.143.356q-.144.143-.357.143h-6.23q-.213 0-.357-.144q-.143-.144-.143-.357t.143-.356q.144-.143.357-.143m0 3.077h6.23q.213 0 .357.144q.143.144.143.357q0 .212-.143.356q-.144.143-.357.143h-6.23q-.213 0-.357-.144t-.143-.357q0-.212.143-.356q.144-.143.357-.143M6 19.5v-7.73H4.473q-.283 0-.384-.258q-.1-.258.117-.445l6.732-5.848q.212-.211.49-.298q.28-.086.572-.086t.571.086q.279.087.49.298l6.733 5.848q.218.187.117.445q-.101.257-.384.257H18V19.5q0 .213-.144.356q-.144.144-.357.144q-.212 0-.356-.144Q17 19.713 17 19.5v-8.73H7v8.73q0 .213-.144.356T6.499 20q-.212 0-.356-.144Q6 19.713 6 19.5"/></svg>