<svg xmlns="http://www.w3.org/2000/svg" width="1em" height="1em" viewBox="0 0 24 24"><path fill="currentColor" d="M6.192 20q-.213 0-.356-.144q-.144-.144-.144-.356V9.946L3 11.952q-.177.115-.365.097q-.189-.018-.323-.195q-.135-.177-.114-.366q.021-.188.198-.323l8.629-6.452q.217-.161.467-.232q.249-.071.508-.071t.508.07q.25.072.467.233l8.648 6.452q.171.135.195.323q.024.189-.11.366t-.323.195q-.189.018-.366-.097l-2.692-2.006V19.5q0 .213-.144.356q-.144.144-.357.144t-.356-.144q-.143-.144-.143-.356v-9.385H6.692V19.5q0 .213-.144.356q-.144.144-.356.144m2.693-1q-.213 0-.357-.144q-.143-.144-.143-.357q0-.212.143-.356q.144-.143.357-.143h6.23q.213 0 .357.144t.143.357q0 .212-.143.356q-.144.143-.357.143zm0-2.962q-.213 0-.357-.143t-.143-.357q0-.213.143-.356t.357-.144h6.23q.213 0 .357.144t.143.357q0 .213-.143.356q-.144.143-.357.143zm0-2.961q-.213 0-.357-.144q-.143-.144-.143-.357t.143-.356q.144-.143.357-.143h6.23q.213 0 .357.144q.143.144.143.357t-.143.356q-.144.143-.357.143zM6.81 9.115h10.4L12 5.255z"/></svg>