<svg xmlns="http://www.w3.org/2000/svg" width="1em" height="1em" viewBox="0 0 24 24"><path fill="currentColor" d="M8 21q-1.237 0-2.119-.881T5 18V8q0-1.237.881-2.119T8 5h1.5V3h1v2h3V3h1v2H16q1.238 0 2.119.881T19 8v10q0 1.238-.881 2.119T16 21zm0-1h8q.825 0 1.413-.587T18 18V8q0-.825-.587-1.412T16 6H8q-.825 0-1.412.588T6 8v10q0 .825.588 1.413T8 20m.5-10.5h7v-1h-7zm3.497 7.827q.822 0 1.393-.568q.572-.569.572-1.36q0-.636-.373-1.098q-.373-.462-1.589-1.878q-1.229 1.415-1.595 1.882q-.367.466-.367 1.088q0 .797.568 1.366q.568.568 1.39.568M6 6v14z"/></svg>