<svg xmlns="http://www.w3.org/2000/svg" width="1em" height="1em" viewBox="0 0 24 24"><path fill="currentColor" d="M3.98 21.5V16q0-1.038.732-1.77q.73-.73 1.769-.73h2q1.461 0 2.48-1.02q1.02-1.018 1.02-2.48q0-.617-.442-1.059q-.44-.441-1.058-.441q-.633 0-1.067-.434Q8.981 7.633 8.981 7V2.5H10V7q0 .212.135.356q.134.144.346.144q1.038 0 1.769.73q.73.732.73 1.77q0 1.863-1.317 3.182Q10.344 14.5 8.48 14.5h-2q-.618 0-1.059.441q-.441.442-.441 1.059v5.5zm4.02 0H7V20q0-1.038.73-1.77q.732-.73 1.77-.73h4q2.287 0 3.893-1.607Q19 14.287 19 12v-1q0-2.229-1.443-3.864T13.942 5.5q-.805 0-1.374-.578Q12 4.344 12 3.558V2.5h1v1.058q0 .384.279.663t.663.279q2.598 0 4.328 1.922Q20 8.344 20 11v1q0 2.713-1.893 4.607Q16.213 18.5 13.5 18.5h-4q-.617 0-1.059.441Q8 19.383 8 20zm-3.02 0V16q0-.617.442-1.059q.441-.441 1.059-.441h2q1.863 0 3.182-1.318Q12.98 11.863 12.98 10q0-1.038-.789-1.77Q11.404 7.5 10 7.5v-5v5q1.404 0 2.192.73q.789.732.789 1.77q0 1.863-1.319 3.182q-1.317 1.318-3.18 1.318h-2q-.618 0-1.059.441q-.441.442-.441 1.059z"/></svg>