<svg xmlns="http://www.w3.org/2000/svg" width="1em" height="1em" viewBox="0 0 24 24"><path fill="currentColor" d="M10.072 17.692q1.12 0 1.909-.785q.788-.785.788-1.907V7.846h2.846V6.308h-3.73v6.707q-.389-.315-.852-.511q-.462-.196-.956-.196q-1.122 0-1.907.784q-.785.784-.785 1.903q0 1.12.784 1.909q.783.788 1.903.788M12.003 21q-1.866 0-3.51-.708q-1.643-.709-2.859-1.924q-1.216-1.214-1.925-2.856Q3 13.87 3 12.003q0-1.866.708-3.51q.709-1.643 1.924-2.859q1.214-1.216 2.856-1.925Q10.13 3 11.997 3q1.866 0 3.51.708q1.643.709 2.859 1.924q1.216 1.214 1.925 2.856Q21 10.13 21 11.997q0 1.866-.708 3.51q-.709 1.643-1.924 2.859q-1.214 1.216-2.856 1.925Q13.87 21 12.003 21"/></svg>