<svg xmlns="http://www.w3.org/2000/svg" width="1em" height="1em" viewBox="0 0 24 24"><path fill="currentColor" d="M2.346 11.462V10.23h1.23v1.23zm18.077 0V10.23h1.23v1.23zM2.346 7.846v-1.23h1.23v1.23zm18.077 0v-1.23h1.23v1.23zM2.346 4.231V3h1.23v1.23zm3.616 7.23v-1.23h1.23v1.23zm10.846 0v-1.23h1.23v1.23zm3.615-7.23V3h1.23v1.23zm-14.461 0V3h1.23v1.23zm3.615 0V3h1.23v1.23zm3.615 0V3h1.231v1.23zm3.616 0V3h1.23v1.23zm-5.14 17.25q-.5 0-.945-.187q-.444-.186-.807-.546l-4.354-4.344l1.003-1.029l2.781.627V7.5h1v7.308h1.77v-4.27h1v4.27h1.769v-2.885h1v2.885h1.769v-.5h1v3.673q0 1.457-1.021 2.479t-2.48 1.02z"/></svg>