<svg xmlns="http://www.w3.org/2000/svg" width="1em" height="1em" viewBox="0 0 24 24"><path fill="currentColor" d="M2.346 11.462V10.23h1.23v1.23zm18.077 0V10.23h1.23v1.23zM2.346 7.846v-1.23h1.23v1.23zm18.077 0v-1.23h1.23v1.23zM2.346 4.231V3h1.23v1.23zm3.616 7.23v-1.23h1.23v1.23zm10.846 0v-1.23h1.23v1.23zm3.615-7.23V3h1.23v1.23zm-14.461 0V3h1.23v1.23zm3.615 0V3h1.23v1.23zm3.615 0V3h1.231v1.23zm3.616 0V3h1.23v1.23zm-5.14 17.25q-.5 0-.945-.187q-.444-.186-.807-.546l-4.354-4.344l1.003-1.029l2.781.627V7.5h1v9.825l-3.238-.815l3.498 3.536q.227.227.488.33q.262.105.577.105h3.483q1.031 0 1.765-.735t.735-1.765v-3.673h1v3.673q0 1.457-1.021 2.479t-2.48 1.02zm.447-6.423v-4.52h1v4.52zm2.77 0v-2.904h1v2.904zm.269 5.423h-4.548z"/></svg>