<svg xmlns="http://www.w3.org/2000/svg" width="1em" height="1em" viewBox="0 0 24 24"><path fill="currentColor" d="M5.615 20q-.69 0-1.152-.462Q4 19.075 4 18.385V5.615q0-.69.463-1.152Q4.925 4 5.615 4h12.77q.69 0 1.152.463q.463.462.463 1.152v12.77q0 .69-.462 1.152q-.463.463-1.153.463zM8.5 13.885h1q.376 0 .63-.255q.255-.254.255-.63v-.5q0-.154-.116-.27q-.115-.115-.269-.115t-.27.116q-.115.115-.115.269v.5q0 .038-.038.077q-.039.038-.077.038h-1q-.038 0-.077-.038q-.038-.039-.038-.077v-2q0-.038.028-.077q.03-.038.068-.038h1.5q.154 0 .269-.116q.115-.115.115-.269t-.115-.27q-.115-.115-.27-.115H8.5q-.376 0-.63.255q-.255.254-.255.63v2q0 .376.255.63q.254.255.63.255m3.5 0q.154 0 .27-.116q.115-.115.115-.269v-3q0-.154-.116-.27q-.115-.115-.269-.115t-.27.116q-.115.115-.115.269v3q0 .154.116.27q.115.115.269.115m2 0q.154 0 .27-.116q.115-.115.115-.269v-1.115H15.5q.154 0 .27-.116q.115-.115.115-.269t-.116-.27q-.115-.115-.269-.115h-1.115v-.73H16q.154 0 .27-.116q.115-.115.115-.269t-.116-.27q-.115-.115-.269-.115h-2q-.154 0-.27.116q-.115.115-.115.269v3q0 .154.116.27q.115.115.269.115"/></svg>