<svg xmlns="http://www.w3.org/2000/svg" width="1em" height="1em" viewBox="0 0 24 24"><path fill="currentColor" d="M11.808 14.692V9.308h.884v5.384zm-4.885 0q-.565 0-.975-.418q-.41-.418-.41-.966v-2.616q0-.548.41-.966q.41-.418.975-.418h2.308q.315 0 .504.216q.188.216.188.476v.192H7.038q-.23 0-.423.193q-.192.192-.192.423v2.384q0 .231.192.423q.193.193.423.193h1.385q.23 0 .423-.193q.192-.192.192-.423v-1.038h.885v1.154q0 .548-.41.966q-.41.418-.975.418zm7.654 0V9.308h3.885v.884h-3v1.462h2v.884h-2v2.154z"/></svg>