<svg xmlns="http://www.w3.org/2000/svg" width="1em" height="1em" viewBox="0 0 24 24"><path fill="currentColor" d="M14.9 21q-.76 0-1.454-.314t-1.211-.913L6.78 13.427l.8-.61q.406-.307.915-.327q.508-.02.937.272l2.067 1.317V4q0-.213.144-.356q.144-.144.357-.144q.212 0 .356.144q.143.143.143.356v8.5h2.173V7.423q0-.212.144-.356t.357-.144t.356.144q.143.144.143.356V12.5h2.173V8.615q0-.212.144-.356t.357-.144q.213 0 .356.144t.143.356V12.5h2.173v-1.885q0-.212.144-.356t.357-.144q.213 0 .356.144t.143.356V17.5q0 1.458-1.034 2.479Q19.952 21 18.5 21zM4.508 9.5q-1.271 0-2.14-.859Q1.5 7.783 1.5 6.55q0-.754.29-1.283t1.5-1.896L4.5 1.994l1.19 1.383q1.218 1.398 1.514 1.911q.296.514.296 1.262q0 1.218-.871 2.084q-.871.866-2.121.866"/></svg>