<svg xmlns="http://www.w3.org/2000/svg" width="1em" height="1em" viewBox="0 0 24 24"><path fill="currentColor" d="M13.667 21q-.815 0-1.553-.338q-.737-.339-1.22-.985l-4.738-6.271l.263-.289q.25-.275.594-.336q.345-.062.656.12l3.023 1.491V4.5q0-.213.144-.356T11.193 4q.213 0 .359.144t.146.356v11.588L8.12 14.32l3.639 4.806q.342.45.85.663q.507.212 1.06.212h4.313q1.056 0 1.787-.722q.732-.722.732-1.778v-7.308q0-.212.144-.356T21 9.692q.212 0 .356.144q.143.144.143.356V17.5q0 1.458-1.034 2.479T17.981 21zm.295-7.808V7.538q0-.212.143-.356q.144-.144.357-.144t.356.144q.144.144.144.356v5.654zm3.269 0V8.846q0-.212.144-.356t.356-.144q.213 0 .357.144q.143.144.143.356v4.346zM4.885 9.558q-1.258 0-2.13-.855q-.87-.855-.87-2.095q0-.947.586-1.701q.587-.755 1.204-1.478l1.21-1.377l1.19 1.383q.617.723 1.213 1.471q.597.749.597 1.702q0 1.24-.872 2.095q-.87.855-2.128.855m0-1q.817 0 1.408-.572q.592-.571.592-1.378q0-.771-.511-1.365q-.51-.593-1.037-1.15l-.472-.51l-.432.51q-.507.59-1.028 1.167q-.52.577-.52 1.348q0 .807.591 1.378q.591.572 1.409.572m0-2.49"/></svg>