<svg xmlns="http://www.w3.org/2000/svg" width="1em" height="1em" viewBox="0 0 24 24"><path fill="currentColor" d="M8.5 18H4.615q-.69 0-1.152-.462Q3 17.075 3 16.385V5.615q0-.69.463-1.152Q3.925 4 4.615 4h14.77q.69 0 1.152.463q.463.462.463 1.152v1.616h-1V5.615q0-.269-.173-.442T19.385 5H4.615q-.269 0-.442.173T4 5.615v10.77q0 .269.173.442t.442.173h6.77v3H9.308q-.344 0-.576-.232q-.232-.232-.232-.576zm6.688-1.808q0-.831.587-1.417q.586-.587 1.417-.587q.832 0 1.418.587q.586.586.586 1.417q0 .832-.586 1.418t-1.418.586q-.831 0-1.417-.586q-.587-.586-.587-1.418M20.161 9q.36 0 .6.243t.239.604v9.314q0 .36-.244.6q-.243.239-.603.239h-5.93q-.36 0-.599-.243q-.24-.244-.24-.604V9.84q0-.36.244-.6q.244-.239.604-.239zm-2.971.846q-.552 0-.91.36t-.357.912q0 .551.36.909t.912.358q.551 0 .909-.36q.358-.361.358-.912t-.36-.91q-.361-.357-.912-.357m0 9.308q1.247 0 2.105-.856q.859-.856.859-2.103q0-1.247-.856-2.106q-.856-.858-2.103-.858q-1.247 0-2.106.856q-.858.856-.858 2.103q0 1.247.856 2.105q.856.859 2.103.859"/></svg>