<svg xmlns="http://www.w3.org/2000/svg" width="1em" height="1em" viewBox="0 0 24 24"><path fill="currentColor" d="M10 14H3.5q-.213 0-.356-.144Q3 13.712 3 13.5t.144-.356Q3.287 13 3.5 13H10v-2H3.5q-.213 0-.356-.144T3 10.5q0-.212.144-.356Q3.287 10 3.5 10H10V3.5q0-.213.144-.356Q10.288 3 10.5 3t.356.144q.143.143.143.356V10h2V3.5q0-.213.144-.356T13.5 3q.212 0 .356.144q.143.143.143.356V10h6.5q.213 0 .356.144q.144.144.144.357q0 .212-.144.356q-.143.143-.356.143H14v2h6.5q.213 0 .356.144T21 13.5q0 .212-.144.356q-.143.143-.356.143H14v6.5q0 .213-.144.356q-.144.144-.357.144q-.212 0-.356-.144Q13 20.713 13 20.5V14h-2v6.5q0 .213-.144.356T10.5 21q-.212 0-.356-.144Q10 20.713 10 20.5zm1-1h2v-2h-2z"/></svg>