<svg xmlns="http://www.w3.org/2000/svg" width="1em" height="1em" viewBox="0 0 24 24"><path fill="currentColor" d="M16.005 21q-2.082 0-3.543-1.457Q11 18.086 11 16.005q0-2.082 1.457-3.543Q13.914 11 15.995 11q2.082 0 3.543 1.457Q21 13.914 21 15.995q0 2.082-1.457 3.543Q18.086 21 16.005 21M16 20q1.65 0 2.825-1.175T20 16q0-1.65-1.175-2.825T16 12q-1.65 0-2.825 1.175T12 16q0 1.65 1.175 2.825T16 20M3 19v-8.896l2.458-5.489H3.962V3h7.076v1.615H9.542l2.496 5.647q-.205.115-.41.275q-.203.16-.405.355L8.47 4.615H6.531L4 10.342V18h5.288q.068.275.175.528q.106.253.233.472zm13-9.385q-.646-.173-1.073-.696q-.427-.523-.427-1.227t.427-1.227q.427-.523 1.073-.696zq.173-.646.696-1.073q.523-.427 1.227-.427t1.227.427q.523.427.696 1.073z"/></svg>