<svg xmlns="http://www.w3.org/2000/svg" width="1em" height="1em" viewBox="0 0 24 24"><path fill="currentColor" d="M12.692 11.335q.552-.589.776-1.364q.224-.775.224-1.586q0-.812-.224-1.587q-.224-.775-.776-1.363q1.135.103 1.875.95q.74.846.74 2q0 1.153-.74 2q-.74.846-1.875.95m5 7.28v-1.692q0-.735-.265-1.4q-.265-.663-.839-1.096q1.025.315 1.873.903q.847.587.847 1.593v1.692zm4.616-8.115h-5v-1h5zm-13.616.885q-1.237 0-2.118-.882t-.882-2.118q0-1.238.882-2.12q.88-.88 2.118-.88t2.119.88q.881.882.881 2.12q0 1.237-.881 2.118t-2.119.882m-7 7.23V16.97q0-.619.36-1.158q.361-.54.971-.838q1.415-.679 2.833-1.018q1.417-.34 2.836-.34q1.42 0 2.837.34q1.417.34 2.833 1.018q.61.298.97.838q.36.539.36 1.158v1.646z"/></svg>