<svg xmlns="http://www.w3.org/2000/svg" width="1em" height="1em" viewBox="0 0 24 24"><path fill="currentColor" d="m4.538 13.948l1.737-1.736l-1.737-1.737l-1.736 1.737zm13.193-.294l1.769-2.846l1.788 2.846zM12.007 13q-.91 0-1.555-.64q-.644-.639-.644-1.552q0-.932.64-1.562q.639-.63 1.552-.63q.932 0 1.562.628t.63 1.557q0 .91-.628 1.555q-.628.644-1.557.644M1 17.577v-.864q0-.926.979-1.531q.979-.605 2.54-.605q.287 0 .548.022q.262.022.498.072q-.215.385-.332.808q-.118.423-.118.902v1.196zm6 0v-1.125q0-1.24 1.387-1.971q1.387-.731 3.618-.731q2.253 0 3.624.73Q17 15.213 17 16.453v1.125zm12.5-3q1.575 0 2.538.605T23 16.713v.864h-4.115V16.38q0-.479-.105-.902q-.105-.423-.315-.808q.237-.05.5-.072q.261-.022.535-.022"/></svg>