<svg xmlns="http://www.w3.org/2000/svg" width="1em" height="1em" viewBox="0 0 24 24"><path fill="currentColor" d="M5.308 19.5q-.344 0-.576-.232q-.232-.232-.232-.576V9.308q0-.344.232-.576q.232-.232.576-.232h1.384q.344 0 .576.232q.232.232.232.576v9.384q0 .344-.232.576q-.232.232-.576.232zm5 0q-.344 0-.576-.232q-.232-.232-.232-.576v-4.384q0-.344.232-.576q.232-.232.576-.232h1.384q.344 0 .576.232q.232.232.232.576v4.384q0 .344-.232.576q-.232.232-.576.232zm7 0q-.344 0-.576-.232q-.232-.232-.232-.576V5.308q0-.344.232-.576q.232-.232.576-.232h1.384q.344 0 .576.232q.232.232.232.576v13.384q0 .344-.232.576q-.232.232-.576.232z"/></svg>