<svg xmlns="http://www.w3.org/2000/svg" width="1em" height="1em" viewBox="0 0 24 24"><path fill="currentColor" d="M10.775 13q-.422 0-.694-.323t-.204-.754l.204-1.3q.123-.71.676-1.166Q11.31 9 12.004 9q.711 0 1.264.457q.553.456.676 1.166l.204 1.3q.067.43-.204.754q-.272.323-.694.323zm.1-1h2.275l-.2-1.225q-.05-.35-.325-.562T12 10q-.35 0-.612.213t-.313.562zm-7.119 1.687q-.404.025-.708-.155q-.304-.18-.396-.557q-.05-.167-.015-.325q.034-.158.096-.306q0 .018-.025-.075q-.031-.05-.173-.427q-.031-.223.056-.413q.088-.19.228-.329q.02 0 .031-.03q.037-.338.285-.568q.248-.23.594-.23q.017 0 .34.06l.056-.005q.087-.096.225-.144q.138-.048.294-.048q.2 0 .354.058q.154.059.243.2q.018 0 .027.01t.026.01q.235.025.427.156q.193.131.285.358q.03.136.028.241q-.003.105-.053.217q0 .005.025.08q.136.137.198.272q.061.136.061.303q0 .043-.092.372q-.006.011 0 .08q.02.058.03.285q0 .374-.313.642t-.763.268zm15.772.082q-.584 0-1.008-.42q-.424-.42-.424-1.011q0-.215.062-.4q.061-.184.167-.36l-.502-.435q-.179-.14-.062-.353q.116-.213.33-.213h1.432q.59 0 1.005.416q.414.415.414 1v.353q0 .575-.415 1q-.416.423-1 .423M1 16.846v-.133q0-.926.979-1.531q.979-.605 2.54-.605q.287 0 .548.022q.262.022.498.072q-.215.385-.332.808q-.118.423-.118.902v1.196H1.731q-.31 0-.52-.21q-.211-.21-.211-.52m6-.078v-.317q0-1.24 1.387-1.971q1.387-.731 3.618-.731q2.253 0 3.624.73Q17 15.213 17 16.453v.317q0 .344-.232.576q-.232.232-.576.232H7.816q-.356 0-.586-.232Q7 17.114 7 16.77m12.5-2.192q1.575 0 2.538.605t.962 1.53v.133q0 .31-.21.52q-.21.21-.52.21h-3.385v-1.198q0-.48-.105-.901q-.105-.421-.315-.806q.237-.05.5-.072q.261-.022.535-.022m-7.502.173q-1.692 0-2.808.452q-1.115.452-1.161 1.163v.212h7.948v-.212q-.052-.711-1.155-1.163q-1.103-.452-2.824-.452m.027-3.75"/></svg>