<svg xmlns="http://www.w3.org/2000/svg" width="1em" height="1em" viewBox="0 0 24 24"><path fill="currentColor" d="M4.885 21.5v-5h2v5zm4.923 0V8.85q-1.558.425-2.327 1.495q-.77 1.07-.943 2.77h-1q.174-2.738 1.885-4.215Q9.135 7.423 12 7.423q2.615 0 4-.853q1.385-.853 1.5-3.378h1q-.058 2.123-1.12 3.419q-1.063 1.295-3.188 1.597V21.5h-1v-5.885h-2.384V21.5zM12 5.77q-.71 0-1.201-.492q-.491-.491-.491-1.201q0-.71.491-1.201q.491-.491 1.201-.491t1.201.491q.491.491.491 1.201t-.491 1.2Q12.71 5.77 12 5.77"/></svg>