<svg xmlns="http://www.w3.org/2000/svg" width="1em" height="1em" viewBox="0 0 24 24"><path fill="currentColor" d="m11.792 21.712l-8.51-8.51L9.68 6.806l3.265 3.265l1.22-1.22L8.39 3.08L1.854 9.615l1.244 1.245l-.713.713L.438 9.627l7.964-7.964l3.215 3.216l3.235-3.235l8.504 8.504zm-.013-1.416l10.136-10.148l-7.069-7.07l-2.502 2.503l3.266 3.265l-2.666 2.666L9.66 8.227l-4.975 4.975l1.244 1.244l3.821-3.821l.708.708l-3.821 3.82l1.238 1.24l4.052-4.053l.713.714l-4.052 4.052l1.239 1.238l4.052-4.052l.708.708l-4.052 4.052zm-3.67-12.44"/></svg>