<svg xmlns="http://www.w3.org/2000/svg" width="1em" height="1em" viewBox="0 0 24 24"><path fill="currentColor" d="M18.465 20.975q-.161 0-.298-.053q-.136-.053-.267-.184l-4.985-4.965q-.13-.13-.183-.267q-.053-.137-.053-.298q0-.162.053-.298q.053-.137.183-.268l1.664-1.663q.13-.13.267-.184q.137-.053.298-.053q.162 0 .298.053q.137.053.268.184l4.984 4.984q.131.131.184.268q.053.136.053.298q0 .161-.053.298q-.053.136-.184.267l-1.663 1.644q-.131.131-.268.184q-.136.053-.298.053m-12.955.006q-.162 0-.301-.056t-.27-.187L3.28 19.1q-.131-.13-.187-.27t-.056-.301q0-.162.056-.308t.187-.277l5.146-5.146h2.086l.774-.773l-4.24-4.24H5.62L3.096 5.26L5.23 3.127l2.525 2.525v1.425l4.24 4.24l3.016-3.015l-1.845-1.844l1.131-1.131H12.03l-.412-.392l2.839-2.839l.392.392v2.287l1.13-1.13l3.974 3.934q.367.348.544.799q.177.45.177.955q0 .369-.11.717t-.323.658L18.192 8.66l-1.419 1.419l-1.07-1.07l-4.501 4.503v2.119l-5.127 5.107q-.13.131-.267.187q-.137.056-.298.056"/></svg>