<svg xmlns="http://www.w3.org/2000/svg" width="1em" height="1em" viewBox="0 0 24 24"><path fill="currentColor" d="M11.792 20.712q-.367 0-.645-.25q-.278-.249-.278-.654q0-.195.085-.43q.084-.236.254-.405l3.41-3.41q.13-.13.13-.276t-.13-.275q-.131-.131-.286-.119q-.155.013-.267.124l-3.403 3.404q-.17.17-.383.254q-.214.085-.433.085q-.386 0-.655-.269t-.268-.654q0-.231.094-.451q.095-.22.239-.365l3.41-3.41q.13-.13.13-.273q0-.142-.13-.273q-.131-.13-.283-.12q-.152.009-.264.12L8.71 16.47q-.15.15-.372.244q-.224.095-.449.095q-.38 0-.651-.271q-.272-.272-.272-.652q0-.22.085-.433q.085-.214.254-.383l3.173-3.173q.13-.13.13-.276q0-.145-.13-.276t-.283-.12q-.152.009-.263.12l-3.173 3.18q-.145.143-.368.238q-.223.094-.453.094q-.406 0-.665-.259t-.259-.664q0-.22.085-.433t.254-.383l4.342-4.342q.256-.256.601-.25q.345.006.601.262l1.55 1.55q.275.275.621.389t.702.114q.723 0 1.208-.476t.485-1.216q0-.35-.135-.706q-.135-.355-.421-.642l-2.648-2.648l.98-.98q.33-.324.797-.508q.467-.183.934-.183q.496 0 .97.183q.473.184.807.519L21.03 8.47q.315.316.499.77q.184.453.184 1.005q0 .5-.187.945q-.187.446-.496.755l-8.421 8.427q-.162.162-.38.25q-.216.089-.436.089m-7.594-7.539l-1.035-1.035q-.425-.419-.64-1.007q-.215-.589-.215-1.15q0-.593.192-1.075t.49-.781l3.937-3.942q.323-.323.72-.513q.395-.19.863-.19q.502 0 .92.179q.42.178.766.524l4.164 4.163q.15.15.244.373t.094.423q0 .4-.261.671q-.262.272-.662.272q-.225 0-.433-.082q-.207-.082-.382-.257l-1.537-1.53q-.46-.46-1.134-.46q-.674 0-1.133.46z"/></svg>