<svg xmlns="http://www.w3.org/2000/svg" width="1em" height="1em" viewBox="0 0 24 24"><path fill="currentColor" d="M6.058 21.77q-1.588 0-2.708-1.12t-1.12-2.708q0-.191.126-.317q.125-.125.316-.125t.317.125q.126.126.126.317q0 1.22.862 2.08t2.08.863q.192 0 .318.125q.125.125.125.316t-.125.317q-.126.126-.317.126m15.79-15.687q-.192 0-.318-.126q-.126-.125-.126-.317q0-1.102-.77-1.87q-.769-.77-1.87-.77q-.192 0-.318-.125t-.125-.316q0-.192.125-.318q.126-.126.317-.126q1.472 0 2.499 1.027q1.026 1.027 1.026 2.498q0 .192-.125.317t-.316.126M10.915 21.5q-.623 0-1.163-.28t-.908-.808l-5.957-8.727q-.085-.108-.07-.237q.016-.129.118-.225q.32-.321.76-.348q.438-.027.809.233L8 13.537v-8.48q0-.212.144-.356q.144-.143.357-.143q.212 0 .356.143q.143.144.143.357v8.865q0 .482-.432.713q-.431.231-.835-.061l-3.145-2.192l5.08 7.455q.201.316.532.489t.715.173H16.5q1.056 0 1.778-.722T19 18V5.5q0-.213.144-.356T19.5 5q.212 0 .356.144q.143.144.143.356V18q0 1.458-1.021 2.479T16.5 21.5zm1.259-18.942q.213 0 .356.143q.143.144.143.357V11q0 .213-.144.356q-.144.144-.357.144q-.212 0-.356-.144q-.143-.144-.143-.356V3.058q0-.213.144-.357t.357-.143m3.673 1q.213 0 .356.143q.143.144.143.357V11q0 .213-.144.356q-.144.144-.357.144q-.212 0-.356-.144q-.143-.144-.143-.356V4.058q0-.213.144-.357t.357-.143M11.804 16"/></svg>