<svg xmlns="http://www.w3.org/2000/svg" width="1em" height="1em" viewBox="0 0 24 24"><path fill="currentColor" d="M11.702 19.942q.196 0 .402-.088q.206-.089.333-.216l7.796-7.796q.377-.377.581-.77q.205-.395.205-.866q0-.477-.205-.926q-.204-.45-.581-.82l-3.75-3.75q-.371-.377-.763-.553q-.391-.176-.868-.176q-.471 0-.875.176t-.762.553l-.87.87l1.85 1.857q.297.292.443.665t.147.758q0 .78-.51 1.291q-.512.51-1.292.51q-.385 0-.751-.117q-.367-.117-.659-.41L9.66 8.228l-4.318 4.317q-.152.152-.228.345q-.076.194-.076.39q0 .354.227.584t.581.23q.196 0 .402-.09q.206-.088.333-.215L9.75 10.62l.708.708l-3.164 3.17q-.152.151-.228.344q-.076.194-.076.39q0 .334.237.57q.236.237.571.237q.196 0 .402-.088q.206-.088.333-.215l3.4-3.395l.707.708l-3.394 3.4q-.133.127-.218.333q-.086.206-.086.402q0 .334.237.57q.236.237.571.237q.196 0 .39-.076q.193-.076.345-.227l3.4-3.395l.707.708l-3.4 3.4q-.152.152-.228.364q-.076.213-.076.39q0 .354.25.571q.249.217.564.217m-.006 1q-.771 0-1.32-.564q-.55-.565-.482-1.393q-.85.01-1.415-.508q-.566-.517-.537-1.444q-.927.01-1.46-.53q-.534-.54-.486-1.422q-.834.01-1.396-.47q-.562-.478-.562-1.332q0-.385.15-.77q.149-.386.44-.678L9.66 6.806l2.582 2.582q.127.133.314.219q.186.085.42.085q.322 0 .568-.224q.246-.224.246-.583q0-.235-.085-.422q-.086-.186-.218-.313l-3.44-3.44q-.372-.377-.773-.553q-.4-.176-.878-.176q-.471 0-.856.176q-.384.176-.761.553L3.735 7.76q-.322.32-.52.765t-.21.917q-.01.339.058.651q.07.313.22.588l-.758.757q-.252-.401-.394-.925q-.143-.525-.131-1.07q.012-.681.273-1.305q.262-.625.748-1.111l3.025-3.025q.523-.517 1.107-.77q.584-.251 1.262-.251q.68 0 1.253.252q.574.252 1.092.769l.87.871l.872-.871q.523-.517 1.097-.77q.574-.251 1.253-.251t1.262.252q.584.252 1.101.769l3.725 3.725q.518.517.798 1.161q.281.645.281 1.324q0 .678-.28 1.252q-.281.574-.799 1.092l-7.796 7.79q-.311.312-.678.454q-.366.142-.77.142M8.49 8.327"/></svg>