<svg xmlns="http://www.w3.org/2000/svg" width="1em" height="1em" viewBox="0 0 24 24"><path fill="currentColor" d="M11.015 8.627h1.87q.348 0 .578.23q.23.23.23.578v1.869zm2.677 2.677l2.39-1.912q.299-.236.647-.065t.348.55v4.811zm7 7.02q.145-.207.226-.441q.082-.235.082-.498V6.615q0-.69-.462-1.152Q20.075 5 19.385 5H7.388l1 1h10.997q.269 0 .442.173t.173.442V17.17q0 .116-.029.202q-.029.087-.067.144zM4.538 5l1 1h-.923q-.269 0-.442.173T4 6.615v10.77q0 .269.173.442t.442.173h11.497l-2.616-2.615H7.731q-.348 0-.578-.23q-.23-.23-.23-.578V8.812L2.323 4.2q-.14-.14-.153-.341q-.012-.201.153-.367q.16-.16.354-.16t.354.16L20.7 21.162q.14.14.153.34q.012.202-.153.367q-.16.16-.354.16t-.354-.16L17.112 19H4.615q-.69 0-1.152-.462Q3 18.075 3 17.385V6.615q0-.67.443-1.124q.444-.453 1.095-.491m5.716 7.142"/></svg>