<svg xmlns="http://www.w3.org/2000/svg" width="1em" height="1em" viewBox="0 0 24 24"><path fill="currentColor" d="M4.615 19q-.69 0-1.152-.462Q3 18.075 3 17.385V6.615q0-.69.453-1.152Q3.906 5 4.538 5l.312.312v1.415L2.323 4.2q-.14-.14-.15-.344q-.01-.204.15-.364t.354-.16q.194 0 .354.16L20.7 21.162q.14.14.153.34q.012.202-.153.367q-.16.16-.354.16t-.354-.16L17.112 19zm16.077-.677l-3.615-3.635V9.877q0-.379-.348-.55t-.646.065l-2.39 1.912v-1.87q0-.347-.23-.577t-.578-.23h-1.87L7.388 5h11.997q.69 0 1.152.463q.463.462.463 1.152v10.77q0 .263-.082.498q-.081.234-.226.44M7.731 15.385h5.765L6.923 8.812v5.765q0 .348.23.578q.23.23.578.23"/></svg>