<svg xmlns="http://www.w3.org/2000/svg" width="1em" height="1em" viewBox="0 0 24 24"><path fill="currentColor" d="M11.038 20q-.31 0-.539-.23q-.23-.23-.23-.54V7H6.931q-.38 0-.593-.312q-.213-.311-.055-.67q.479-.931 1.39-1.475T9.652 4H13.5q.31 0 .54.23q.23.23.23.54v2.115l2.588-2.589q.142-.142.304-.22T17.51 4h.086q.233 0 .395.143q.163.144.163.357v5.77q0 .213-.163.356q-.162.143-.395.143h-.086q-.185 0-.348-.077t-.304-.219l-2.589-2.588V19.23q0 .31-.23.54q-.23.229-.539.229zm.231-1h2v-6.48h-2zm0-7.5h2V5H9.654q-.65 0-1.235.253q-.584.253-1.01.747h3.86zm1 .5"/></svg>