<svg xmlns="http://www.w3.org/2000/svg" width="1em" height="1em" viewBox="0 0 24 24"><path fill="currentColor" d="M13.923 18.615q.31 0 .54-.23q.23-.23.23-.539q0-.31-.23-.54q-.23-.23-.54-.23q-.31 0-.54.23q-.23.23-.23.54q0 .31.23.54q.23.23.54.23m2.923 0q.31 0 .54-.23q.23-.23.23-.54q0-.31-.23-.54q-.23-.23-.54-.23q-.31 0-.54.23q-.23.23-.23.54q0 .31.23.54q.23.23.54.23M4 13.5V4.615q0-.69.463-1.152Q4.925 3 5.615 3h12.77q.69 0 1.152.463q.463.462.463 1.152V13.5h-1V4.615q0-.23-.192-.423Q18.615 4 18.385 4H5.615q-.23 0-.423.192Q5 4.385 5 4.615V13.5zm1 1v4.885q0 .23.192.423q.193.192.423.192h12.77q.23 0 .423-.192q.192-.193.192-.423V14.5zm.615 6.5q-.69 0-1.152-.462Q4 20.075 4 19.385V13.5h16v5.885q0 .69-.462 1.152q-.463.463-1.153.463zM5 13.5h14zm0 1h14z"/></svg>