<svg xmlns="http://www.w3.org/2000/svg" width="1em" height="1em" viewBox="0 0 24 24"><path fill="currentColor" d="M6.615 14.692H7.5v-2h2.615v2H11V9.308h-.885v2.5H7.5v-2.5h-.885zm6.385 0h3.308q.444 0 .76-.316q.317-.316.317-.76v-3.231q0-.445-.317-.761q-.316-.316-.76-.316H13zm.885-.884v-3.616h2.307q.116 0 .212.096q.096.097.096.212v3q0 .115-.096.212q-.096.096-.212.096zM4.615 19q-.69 0-1.152-.462Q3 18.075 3 17.385V6.615q0-.69.463-1.152Q3.925 5 4.615 5h14.77q.69 0 1.152.463q.463.462.463 1.152v10.77q0 .69-.462 1.152q-.463.463-1.153.463zm0-1h14.77q.23 0 .423-.192q.192-.193.192-.423V6.615q0-.23-.192-.423Q19.615 6 19.385 6H4.615q-.23 0-.423.192Q4 6.385 4 6.615v10.77q0 .23.192.423q.193.192.423.192M4 18V6z"/></svg>