<svg xmlns="http://www.w3.org/2000/svg" width="1em" height="1em" viewBox="0 0 24 24"><path fill="currentColor" d="M16.308 14.25V9.904q0-.248.183-.422q.184-.174.432-.174h2.27q.6 0 1.05.45t.45 1.05v.384q0 .46-.263.85q-.263.389-.792.589l.654 1.477q.093.215-.03.4q-.124.184-.37.184q-.123 0-.234-.061q-.112-.062-.16-.185l-.783-1.754h-1.523v1.558q0 .192-.125.317t-.316.125t-.317-.125q-.126-.125-.126-.317m.884-2.442h2q.231 0 .423-.193q.193-.192.193-.423v-.384q0-.231-.193-.423q-.192-.193-.423-.193h-2zm-13 .384v2.058q0 .192-.125.317t-.316.125t-.317-.125q-.126-.125-.126-.317v-4.5q0-.192.125-.317t.316-.125t.317.125q.126.125.126.317v1.558h2.616V9.75q0-.192.125-.317t.316-.125t.317.125q.126.125.126.317v4.5q0 .192-.125.317t-.316.125t-.317-.125q-.126-.125-.126-.317v-2.058zm8.5 2.5h-2.269q-.248 0-.432-.183q-.183-.184-.183-.432V9.904q0-.248.183-.422q.184-.174.432-.174h2.27q.6 0 1.05.45t.45 1.05v2.384q0 .6-.45 1.05t-1.05.45m-2-.884h2q.23 0 .422-.193q.193-.192.193-.423v-2.384q0-.231-.193-.423q-.192-.193-.423-.193h-2z"/></svg>