<svg xmlns="http://www.w3.org/2000/svg" width="1em" height="1em" viewBox="0 0 24 24"><path fill="currentColor" d="M14.192 10.808h2.116V7.192h-2.116zm-6 5h2.616v-1.616H8.192zm-.884 2.884h.884v-2h1.523l.87 2h.953l-.9-2.061h.612l.442-.443V13.75l-.442-.442H7.308zm0-7h.884V8.9l-.884-.885zM12 21q-1.863 0-3.506-.71t-2.857-1.927Q4.42 17.148 3.71 15.506Q3 13.863 3 12q0-1.985.727-3.595t1.902-2.776L18.37 18.37q-1.217 1.252-2.885 1.94Q13.817 21 12 21m9.192 1.608l-19.8-19.8L2.1 2.1l19.8 19.8zm-1.573-5.839l-5.077-5.077h2.208l.442-.442v-4.5l-.442-.442h-3.442v4.15l-1.616-1.616V6.308h-.884v1.65L7.225 4.375q1.117-.685 2.229-1.03Q10.565 3 12 3q1.863 0 3.506.71t2.857 1.927q1.216 1.215 1.926 2.857Q21 10.137 21 12q0 1.262-.32 2.447t-1.06 2.322"/></svg>