<svg xmlns="http://www.w3.org/2000/svg" width="1em" height="1em" viewBox="0 0 24 24"><path fill="currentColor" d="M5.615 15q-1.237 0-2.118-.881T2.615 12q0-1.237.882-2.119T5.615 9q1.238 0 2.12.881T8.614 12q0 1.238-.88 2.119T5.614 15m10.774 2q-2.081 0-3.543-1.457q-1.461-1.457-1.461-3.538q0-2.082 1.457-3.543Q14.299 7 16.38 7q2.082 0 3.543 1.457q1.462 1.457 1.462 3.538q0 2.082-1.457 3.543Q18.47 17 16.389 17m-.004-1q1.65 0 2.825-1.175T20.385 12q0-1.65-1.175-2.825T16.385 8q-1.65 0-2.825 1.175T12.385 12q0 1.65 1.175 2.825T16.385 16"/></svg>