<svg xmlns="http://www.w3.org/2000/svg" width="1em" height="1em" viewBox="0 0 24 24"><path fill="currentColor" d="M12.005 13q-2.082 0-3.543-1.457Q7 10.086 7 8.005q0-2.082 1.457-3.543Q9.914 3 11.995 3q2.082 0 3.543 1.457Q17 5.914 17 7.995q0 2.082-1.457 3.543Q14.086 13 12.005 13M12 12q1.65 0 2.825-1.175T16 8q0-1.65-1.175-2.825T12 4q-1.65 0-2.825 1.175T8 8q0 1.65 1.175 2.825T12 12m-.5-3.5V10q0 .213.144.356q.144.144.357.144t.356-.144q.143-.143.143-.356V8.5H14q.213 0 .356-.144q.144-.144.144-.357t-.144-.356Q14.213 7.5 14 7.5h-1.5V6q0-.213-.144-.356Q12.212 5.5 12 5.5t-.356.144Q11.5 5.788 11.5 6v1.5H10q-.213 0-.356.144Q9.5 7.788 9.5 8t.144.356q.144.143.356.143zm9.308 11.192H19.25q-.192 0-.317-.125t-.125-.316t.125-.317q.125-.126.317-.126h1.558V17.25q0-.192.125-.317t.316-.125t.317.125q.126.125.126.317v1.558h1.558q.192 0 .317.125t.125.316t-.125.317q-.125.126-.317.126h-1.558v1.558q0 .192-.125.317t-.316.125t-.317-.125q-.126-.125-.126-.317zm-7.5 1.558v-4.5q0-.192.125-.317t.317-.125h2.442q.6 0 1.05.43q.45.431.45 1.07v.384q0 .46-.262.85q-.263.389-.792.589l.654 1.477q.093.215-.03.4q-.124.184-.37.184q-.123 0-.234-.061q-.112-.062-.16-.185l-.783-1.754h-1.523v1.558q0 .192-.125.317t-.316.125t-.317-.125q-.126-.125-.126-.317m.884-2.442h2q.231 0 .423-.193q.193-.192.193-.423v-.384q0-.231-.193-.423q-.192-.193-.423-.193h-2zm-13 .384v2.058q0 .192-.125.317t-.316.125t-.317-.125q-.126-.125-.126-.317v-4.5q0-.192.125-.317t.316-.125t.317.125q.126.125.126.317v1.558h2.616V16.75q0-.192.125-.317t.316-.125t.317.125q.126.125.126.317v4.5q0 .192-.125.317t-.316.125t-.317-.125q-.126-.125-.126-.317v-2.058zm5.616 2.058v-4.5q0-.192.125-.317t.317-.125h2.442q.6 0 1.05.45t.45 1.05v2.384q0 .6-.45 1.05t-1.05.45H7.25q-.192 0-.317-.125t-.125-.317m.884-.442h2q.231 0 .423-.193q.193-.192.193-.423v-2.384q0-.231-.193-.423q-.192-.193-.423-.193h-2z"/></svg>