<svg xmlns="http://www.w3.org/2000/svg" width="1em" height="1em" viewBox="0 0 24 24"><path fill="currentColor" d="M14.808 15.692v1.058q0 .192.125.317t.316.125t.317-.125q.126-.125.126-.317v-1.058h1.058q.192 0 .317-.125t.125-.316t-.125-.317q-.125-.126-.317-.126h-1.058V13.75q0-.192-.125-.317t-.316-.125t-.317.125q-.126.125-.126.317v1.058H13.75q-.192 0-.317.125t-.125.316t.125.317q.125.126.317.126zm-6.616-6.5h2.616v2.058q0 .192.125.317t.316.125t.317-.125q.126-.125.126-.317v-4.5q0-.192-.125-.317t-.316-.125t-.317.125q-.126.125-.126.317v1.558H8.192V6.75q0-.192-.125-.317t-.316-.125t-.317.125q-.126.125-.126.317v4.5q0 .192.125.317t.316.125t.317-.125q.126-.125.126-.317zm5.116 2.058q0 .192.125.317t.317.125h1.942q.639 0 1.07-.43q.43-.431.43-1.07V7.808q0-.639-.43-1.07q-.431-.43-1.07-.43H13.75q-.192 0-.317.125t-.125.317zm-3.116 4.558h-2v-1.616h2q.27 0 .443.173t.173.443v.384q0 .27-.173.443t-.443.173m-2 .884h1.523l.752 1.73q.056.122.157.196q.101.074.234.074q.25 0 .376-.2t.033-.415l-.629-1.446q.452-.187.753-.573q.301-.386.301-.866v-.384q0-.625-.437-1.063t-1.063-.437H7.75q-.192 0-.317.125t-.125.317v4.5q0 .192.125.317t.316.125t.317-.125q.126-.125.126-.317zm6-5.884V7.192h1.5q.27 0 .443.173t.173.443v2.384q0 .27-.173.443t-.443.173zM12.003 21q-1.866 0-3.51-.708q-1.643-.709-2.859-1.924q-1.216-1.214-1.925-2.856Q3 13.87 3 12.003q0-1.866.708-3.51q.709-1.643 1.924-2.859q1.214-1.216 2.856-1.925Q10.13 3 11.997 3q1.866 0 3.51.708q1.643.709 2.859 1.924q1.216 1.214 1.925 2.856Q21 10.13 21 11.997q0 1.866-.708 3.51q-.709 1.643-1.924 2.859q-1.214 1.216-2.856 1.925Q13.87 21 12.003 21"/></svg>