<svg xmlns="http://www.w3.org/2000/svg" width="1em" height="1em" viewBox="0 0 24 24"><path fill="currentColor" d="m20.1 17.304l-4.077-4.058v-.4H19.1V11q0-2.912-2.05-4.956Q15 4 12.1 4q-1.1 0-2.145.341q-1.045.342-1.87.936l-.72-.708q.837-.663 2.074-1.116Q10.677 3 12.1 3q1.658 0 3.113.623q1.454.623 2.545 1.714q1.09 1.09 1.716 2.545Q20.1 9.337 20.1 11zm1.092 5.404l-1.323-1.323H12.1v-1h6.77L17.484 19h-1.462v-1.462L6.017 7.533q-.398.715-.657 1.638q-.26.923-.26 1.829v1.846h3.077V19H4.1v-8q0-1.183.314-2.238t.873-1.966L1.392 2.902l.714-.708l19.794 19.8z"/></svg>