<svg xmlns="http://www.w3.org/2000/svg" width="1em" height="1em" viewBox="0 0 24 24"><path fill="currentColor" d="M11 12.5v1.98q0 .214.153.367t.366.153h.962q.232 0 .376-.153q.143-.153.143-.366V12.5h1.98q.233 0 .377-.153q.143-.153.143-.366v-.962q0-.232-.143-.376q-.144-.143-.376-.143H13V8.52q0-.233-.143-.377Q12.713 8 12.48 8h-.962q-.213 0-.366.143Q11 8.287 11 8.52v1.98H9.02q-.214 0-.367.143q-.153.144-.153.376v.962q0 .213.153.366t.366.153zm1 8.342q-.137 0-.287-.025t-.28-.075Q8.48 19.617 6.74 16.926Q5 14.235 5 11.1V6.817q0-.51.295-.923q.295-.413.755-.6l5.385-2q.292-.106.565-.106q.273 0 .565.106l5.385 2q.46.187.755.6q.295.414.295.923V11.1q0 3.135-1.74 5.826t-4.693 3.816q-.13.05-.28.075t-.287.025"/></svg>