<svg xmlns="http://www.w3.org/2000/svg" width="1em" height="1em" viewBox="0 0 24 24"><path fill="currentColor" d="M11 12.5v1.98q0 .221.15.37t.37.15h.96q.233 0 .377-.15q.143-.149.143-.37V12.5h1.98q.233 0 .377-.15q.143-.149.143-.37v-.96q0-.233-.143-.377q-.144-.143-.376-.143H13V8.52q0-.233-.143-.377Q12.713 8 12.48 8h-.962q-.22 0-.37.143Q11 8.287 11 8.52v1.98H9.02q-.221 0-.37.143q-.15.144-.15.376v.962q0 .22.15.37t.37.149zm1 8.342q-.137 0-.287-.025t-.28-.075Q8.48 19.617 6.74 16.926Q5 14.235 5 11.1V6.817q0-.514.293-.926q.293-.412.757-.597l5.385-2q.292-.106.565-.106q.273 0 .565.106l5.385 2q.464.185.757.597t.293.926V11.1q0 3.135-1.74 5.826t-4.692 3.816q-.131.05-.281.075t-.287.025m0-.942q2.6-.825 4.3-3.3t1.7-5.5V6.798q0-.192-.106-.346q-.106-.154-.298-.23l-5.384-2q-.097-.04-.212-.04t-.212.04l-5.384 2q-.192.076-.298.23Q6 6.606 6 6.798V11.1q0 3.025 1.7 5.5t4.3 3.3m0-7.862"/></svg>