<svg xmlns="http://www.w3.org/2000/svg" width="1em" height="1em" viewBox="0 0 24 24"><path fill="currentColor" d="m12 16.265l-4.02 4.02q-.465.46-1.133.46q-.668 0-1.128-.46l-2.023-2.023q-.46-.466-.46-1.134q0-.668.46-1.128l4.039-4.038L3.754 7.98q-.46-.46-.479-1.131q-.02-.671.44-1.13L5.72 3.714q.466-.46 1.134-.46q.668 0 1.128.46l4 4l4-4q.465-.46 1.134-.46q.668 0 1.127.46l2.023 2.023q.46.466.46 1.134q0 .668-.46 1.128l-4.019 4.02l4 4q.479.47.479 1.145t-.46 1.135l-1.946 1.946q-.479.479-1.16.489q-.68.01-1.159-.47zm.003-5.073q.345 0 .575-.233q.23-.233.23-.578q0-.344-.233-.574q-.234-.23-.578-.23q-.345 0-.575.233q-.23.233-.23.578t.233.574q.234.23.578.23m-3.58.081l2.85-2.85l-4-4Q7.1 4.25 6.85 4.25t-.423.173L4.423 6.427q-.173.173-.173.423t.173.423zm1.965 1.535q.345 0 .575-.234q.23-.233.23-.577q0-.345-.234-.575q-.233-.23-.578-.23q-.344 0-.574.233q-.23.234-.23.578q0 .345.233.575q.233.23.578.23m1.615 1.615q.345 0 .575-.233q.23-.233.23-.578t-.234-.575q-.233-.23-.577-.23q-.345 0-.575.234q-.23.233-.23.578q0 .344.233.574q.234.23.578.23m1.616-1.615q.344 0 .574-.233q.23-.234.23-.578q0-.345-.233-.575q-.233-.23-.578-.23t-.575.233q-.23.234-.23.578q0 .345.234.575q.233.23.578.23m-.911 2.75l4.019 4.019q.173.173.423.173t.423-.173l2.004-2.004q.173-.173.173-.423t-.173-.423l-4.02-4.02zm1.97-.88"/></svg>