<svg xmlns="http://www.w3.org/2000/svg" width="1em" height="1em" viewBox="0 0 24 24"><path fill="currentColor" d="M16.538 21q-.212 0-.356-.144t-.144-.357q0-.212.144-.356q.144-.143.356-.143h3.5v-2.77h-3.5q-.212 0-.356-.143q-.144-.144-.144-.357t.144-.356q.144-.143.356-.143h3.5v-2.77h-3.5q-.212 0-.356-.143q-.144-.144-.144-.357t.144-.356q.144-.143.356-.143h3.5v-2.77h-3.5q-.212 0-.356-.144t-.144-.356q0-.213.144-.356q.144-.144.356-.144h3.5V5.923h-3.5q-.212 0-.356-.144t-.144-.357t.144-.356q.144-.143.356-.143h3.654q.69 0 1.153.463q.463.462.463 1.152v12.847q0 .69-.463 1.152q-.462.463-1.153.463zm-9.753-1h2.353q.193 0 .347-.106q.153-.106.23-.298l2.623-7.265q.077-.212 0-.423q-.076-.212-.269-.327L8.835 9.654H7.088L3.854 11.58q-.192.115-.27.327q-.076.211 0 .423l2.624 7.265q.077.192.23.298q.154.106.347.106m-1.51-.075l-2.623-7.24q-.212-.54-.016-1.088q.196-.547.712-.85l3.614-2.17V3.769q0-.31.23-.54Q7.421 3 7.73 3h.461q.31 0 .54.23q.23.23.23.54v4.807l3.613 2.17q.516.303.712.85q.196.547-.016 1.088l-2.623 7.24q-.18.485-.587.78q-.407.295-.923.295H6.785q-.516 0-.923-.295q-.406-.295-.587-.78"/></svg>