<svg xmlns="http://www.w3.org/2000/svg" width="1em" height="1em" viewBox="0 0 24 24"><path fill="currentColor" d="M8 20.846V16H3.154V8H8V3.154h8V8h4.846v8H16v4.846zM4.154 11.5H9q.135 0 .235.058q.1.057.167.161l1.452 2.166l1.677-5.031q.061-.166.18-.26t.285-.094q.129 0 .245.06q.116.062.18.16l1.835 2.78h4.59V9H15V4.154H9V9H4.154zM9 19.846h6V15h4.846v-2.5H15q-.126 0-.239-.066q-.113-.066-.188-.172l-1.427-2.147l-1.677 5.031q-.061.166-.192.26t-.304.094q-.133 0-.233-.058q-.1-.057-.167-.161L8.72 12.5H4.154V15H9zM12 12"/></svg>