<svg xmlns="http://www.w3.org/2000/svg" width="1em" height="1em" viewBox="0 0 24 24"><path fill="currentColor" d="M14.498 18q.415 0 .709-.291q.293-.291.293-.707q0-.415-.291-.709q-.291-.293-.707-.293q-.415 0-.709.291q-.293.291-.293.707q0 .415.291.709q.291.293.707.293m-5.048-.262l5.788-5.788l-.688-.688l-5.788 5.788zM9.498 13q.415 0 .709-.291q.293-.291.293-.707q0-.415-.291-.709Q9.918 11 9.502 11q-.415 0-.709.291q-.293.291-.293.707q0 .415.291.709q.291.293.707.293m-2.883 8q-.69 0-1.152-.462Q5 20.075 5 19.385V4.615q0-.69.463-1.152Q5.925 3 6.615 3H14.5L19 7.5v11.885q0 .69-.462 1.152q-.463.463-1.153.463zM14 8h4l-4-4z"/></svg>