<svg xmlns="http://www.w3.org/2000/svg" width="1em" height="1em" viewBox="0 0 24 24"><path fill="currentColor" d="M14.5 18q.413 0 .707-.293q.293-.294.293-.707t-.293-.707Q14.913 16 14.5 16t-.707.293q-.293.294-.293.707t.293.707q.294.293.707.293m-5.05-.262l5.788-5.788l-.688-.688l-5.788 5.788zM9.5 13q.413 0 .707-.293q.293-.294.293-.707t-.293-.707Q9.913 11 9.5 11t-.707.293Q8.5 11.587 8.5 12t.293.707Q9.087 13 9.5 13m-2.885 8q-.69 0-1.152-.462Q5 20.075 5 19.385V4.615q0-.69.463-1.152Q5.925 3 6.615 3H14.5L19 7.5v11.885q0 .69-.462 1.152q-.463.463-1.153.463zM14 8V4H6.615q-.23 0-.423.192Q6 4.385 6 4.615v14.77q0 .23.192.423q.193.192.423.192h10.77q.23 0 .423-.192q.192-.193.192-.423V8zM6 4v4zv16z"/></svg>