<svg xmlns="http://www.w3.org/2000/svg" width="1em" height="1em" viewBox="0 0 24 24"><path fill="currentColor" d="M10.898 19.37q-2.263-2.208-3.78-3.846Q5.6 13.887 4.685 12.63q-.915-1.257-1.3-2.243Q3 9.4 3 8.507q0-2.094 1.455-3.55Q5.909 3.5 8 3.5q.957 0 1.85.326q.894.326 1.623.947l-1.29 4.51q-.125.461.106.84q.23.377.632.377h1.964l-.554 5.97q-.025.195.162.22t.238-.15l2.1-6.817q.13-.461-.093-.842q-.223-.381-.626-.381h-1.958l1.486-4.454q.533-.273 1.118-.41q.586-.136 1.204-.136q2.088 0 3.544 1.455q1.456 1.454 1.456 3.545q0 .894-.41 1.89q-.41.995-1.33 2.275q-.92 1.281-2.41 2.919q-1.489 1.637-3.674 3.785q-.215.231-.508.346q-.293.116-.604.116t-.61-.125q-.3-.125-.518-.337"/></svg>