<svg xmlns="http://www.w3.org/2000/svg" width="1em" height="1em" viewBox="0 0 24 24"><path fill="currentColor" d="M12.025 20.675q-2.696-2.702-4.443-4.546q-1.747-1.844-2.766-3.19q-1.018-1.347-1.417-2.37Q3 9.546 3 8.5q0-2.09 1.455-3.545Q5.909 3.5 8 3.5q.957 0 1.85.326q.894.326 1.623.947L9.827 10.5h3.058l-.754 8.067L15.192 8.5h-3.038l1.486-4.454q.533-.273 1.118-.41q.586-.136 1.204-.136q2.09 0 3.545 1.455q1.455 1.454 1.455 3.545q0 1.065-.431 2.123T19.06 13.06q-1.04 1.378-2.756 3.2q-1.716 1.822-4.279 4.416m-.833-2.265l.64-6.91H8.505l1.817-6.344q-.534-.277-1.124-.467Q8.607 4.5 8 4.5q-1.657 0-2.829 1.171T4 8.5q0 .813.345 1.685q.345.87 1.183 2.012q.837 1.141 2.223 2.637t3.441 3.576m2.104-.45q3.698-3.806 5.182-5.856q1.484-2.05 1.484-3.604q0-1.657-1.172-2.829Q17.62 4.5 15.962 4.5q-.39 0-.762.086t-.742.204l-.889 2.71h2.92zM8.504 11.5"/></svg>