<svg xmlns="http://www.w3.org/2000/svg" width="1em" height="1em" viewBox="0 0 24 24"><path fill="currentColor" d="M17.02 21.5q-1.34 0-2.23-.756q-.892-.756-1.398-2.14q-.386-1.096-.87-1.702q-.484-.606-1.845-1.687q-1.512-1.211-2.335-2.719Q7.52 10.988 7.52 9q0-2.783 1.859-4.641Q11.237 2.5 14.019 2.5q2.668 0 4.488 1.695Q20.327 5.89 20.48 8.5h-1q-.154-2.183-1.707-3.591Q16.221 3.5 14.019 3.5q-2.317 0-3.908 1.591Q8.519 6.683 8.519 9q0 1.777.8 3.16q.8 1.382 2.07 2.352q1.184.892 1.823 1.686q.638.794 1.084 1.96q.427 1.119 1.04 1.73q.612.612 1.683.612q.883 0 1.567-.568q.683-.569.856-1.432h1.039q-.173 1.285-1.146 2.142q-.973.858-2.316.858M6.258 16.02q-1.264-1.385-2.001-3.19T3.519 9q0-2.03.738-3.858t2-3.211l.72.669Q5.823 3.908 5.17 5.526Q4.52 7.144 4.52 9q0 1.812.652 3.427t1.806 2.923zm7.761-4.905q-.896 0-1.506-.612q-.61-.613-.61-1.503q0-.896.61-1.506t1.506-.61q.896 0 1.506.61T16.135 9q0 .89-.61 1.503t-1.506.612"/></svg>