<svg xmlns="http://www.w3.org/2000/svg" width="1em" height="1em" viewBox="0 0 24 24"><path fill="currentColor" d="m18.246 15.429l-.713-.714q.952-1.27 1.45-2.72q.498-1.449.498-2.995q0-1.627-.526-3.148q-.526-1.521-1.553-2.817q-.16-.177-.172-.39q-.013-.214.153-.38q.165-.165.379-.114q.213.05.373.228q1.142 1.404 1.744 3.108Q20.48 7.19 20.48 9q0 1.748-.571 3.387q-.572 1.638-1.664 3.042m-2.706-2.706l-.757-.758q.352-.69.525-1.436T15.48 9q0-2.317-1.592-3.909Q12.3 3.5 9.981 3.5q-.766 0-1.496.201q-.731.2-1.383.584l-.744-.745q.798-.517 1.72-.778q.924-.262 1.903-.262q2.782 0 4.641 1.859Q16.481 6.217 16.481 9q0 1.029-.234 1.964q-.234.936-.707 1.76m-3.46-3.463L9.713 6.896q.068-.011.131-.011h.137q.896 0 1.506.61q.61.609.61 1.505q0 .073-.004.134q-.003.06-.014.128M9.98 11.115q-.896 0-1.506-.612q-.61-.613-.61-1.503q0-.248.047-.48q.046-.233.163-.45l2.842 2.842q-.217.111-.453.157q-.235.046-.483.046m10.775 11.056l-7.183-7.177q-.485.435-.991.844q-.507.408-.917.918q-.332.413-.59.88q-.26.466-.448.968q-.5 1.43-1.438 2.163q-.937.733-2.208.733q-1.323 0-2.316-.848q-.992-.848-1.146-2.152q-.019-.213.134-.366t.385-.153q.214 0 .348.153t.172.366q.154.863.856 1.432t1.567.568q.948 0 1.591-.548t1.132-1.794q.238-.602.54-1.144q.302-.54.73-1.03q.434-.476.921-.882q.488-.406.97-.815L5.081 6.502q-.243.448-.383.95q-.14.504-.179 1.048q0 .213-.143.357Q4.233 9 4.019 9q-.213 0-.356-.143q-.144-.144-.144-.357q.039-.763.25-1.455q.212-.691.558-1.297L2.24 3.662q-.146-.147-.155-.348q-.01-.2.155-.366q.166-.165.357-.165q.191 0 .357.165l18.515 18.515q.146.147.156.345q.01.198-.156.363q-.165.166-.356.166t-.357-.166"/></svg>