<svg xmlns="http://www.w3.org/2000/svg" width="1em" height="1em" viewBox="0 0 24 24"><path fill="currentColor" d="m11 19.654l-1.156-1.042q-2.28-2.087-3.799-3.593q-1.518-1.506-2.413-2.679q-.895-1.173-1.264-2.146Q2 9.221 2 8.225q0-1.908 1.296-3.201Q4.592 3.731 6.5 3.731q1.32 0 2.475.672q1.156.672 2.025 1.96q.87-1.288 2.025-1.96q1.156-.672 2.475-.672q1.817 0 3.063 1.172q1.245 1.172 1.402 2.878q-.442-.143-.896-.202q-.454-.06-.913-.06q-2.183.02-3.794 1.52q-1.612 1.501-1.612 3.923q0 .988.362 1.976q.361.987 1.1 1.781q-.533.483-1.17 1.069q-.638.585-1.284 1.181zm6.95-4.19l-2.138-2.114l.713-.708l1.425 1.42l3.525-3.545l.713.708z"/></svg>