<svg xmlns="http://www.w3.org/2000/svg" width="1em" height="1em" viewBox="0 0 24 24"><path fill="currentColor" d="M6.998 17.523q1.04 0 1.771-.73q.731-.728.731-1.77v-4.77q0-.616.441-1.058q.442-.441 1.059-.441t1.059.441q.441.442.441 1.059v4.77q0 1.04.729 1.77q.728.73 1.769.73q1.04 0 1.771-.73q.731-.73.731-1.77v-5.77q0-.617.441-1.059q.442-.441 1.059-.441h2.406l-1.694 1.65l.688.713l2.888-2.863L20.4 4.365l-.688.714l1.675 1.675H19q-1.042 0-1.77.729q-.73.73-.73 1.77v5.77q0 .617-.441 1.059q-.442.441-1.059.441t-1.059-.441q-.441-.442-.441-1.059v-4.77q0-1.04-.728-1.77q-.729-.73-1.77-.73q-1.04 0-1.771.73q-.731.73-.731 1.77v4.77q0 .617-.441 1.059q-.442.441-1.059.441t-1.059-.441Q5.5 15.64 5.5 15.023v-7.27h-1v7.27q0 1.042.729 1.77q.728.73 1.769.73M3.615 20.6q-.666 0-1.14-.475Q2 19.651 2 18.985v-6.847h20v6.847q0 .666-.475 1.14q-.474.475-1.14.475z"/></svg>