<svg xmlns="http://www.w3.org/2000/svg" width="1em" height="1em" viewBox="0 0 24 24"><path fill="currentColor" d="M7 17.523q-1.038 0-1.77-.73q-.73-.731-.73-1.77v-7.27h1v7.27q0 .617.441 1.059q.442.441 1.059.441t1.059-.441q.441-.442.441-1.059v-4.77q0-1.038.73-1.768q.732-.731 1.77-.731t1.77.73q.73.731.73 1.77v4.77q0 .616.441 1.058q.442.441 1.059.441t1.059-.441q.441-.442.441-1.059v-5.77q0-1.038.73-1.768q.732-.731 1.77-.731h2.387l-1.675-1.675l.688-.714l2.888 2.889l-2.888 2.863l-.688-.713l1.694-1.65H19q-.617 0-1.059.441q-.441.442-.441 1.059v5.77q0 1.038-.73 1.768q-.732.731-1.77.731t-1.77-.73q-.73-.731-.73-1.77v-4.77q0-.616-.441-1.058q-.442-.441-1.059-.441t-1.059.441q-.441.442-.441 1.059v4.77q0 1.038-.73 1.768q-.732.731-1.77.731M3.615 20.6q-.67 0-1.143-.472Q2 19.656 2 18.985v-6.847h20v6.847q0 .67-.472 1.143q-.472.472-1.143.472zm0-1h16.77q.269 0 .442-.173t.173-.442v-5.847H3v5.847q0 .269.173.442t.442.173m16.77-6.462H21H3z"/></svg>