<svg xmlns="http://www.w3.org/2000/svg" width="1em" height="1em" viewBox="0 0 24 24"><path fill="currentColor" d="M12.028 17.23q.332 0 .56-.228q.227-.23.227-.56q0-.332-.229-.56q-.229-.228-.56-.228q-.332 0-.56.229q-.228.229-.228.56q0 .332.23.56q.228.228.56.228M12.003 21q-1.866 0-3.51-.708q-1.643-.709-2.859-1.924q-1.216-1.214-1.925-2.856Q3 13.87 3 12.003q0-1.866.708-3.51q.709-1.643 1.924-2.859q1.214-1.216 2.856-1.925Q10.13 3 11.997 3q1.866 0 3.51.708q1.643.709 2.859 1.924q1.216 1.214 1.925 2.856Q21 10.13 21 11.997q0 1.866-.708 3.51q-.709 1.643-1.924 2.859q-1.214 1.216-2.856 1.925Q13.87 21 12.003 21M12 20q3.35 0 5.675-2.325T20 12q0-3.35-2.325-5.675T12 4Q8.65 4 6.325 6.325T4 12q0 3.35 2.325 5.675T12 20m.062-12.262q.76 0 1.308.472q.55.471.55 1.178q0 .55-.31.995q-.308.444-.714.819q-.514.466-.905 1.025q-.391.56-.449 1.233q-.019.196.122.327t.33.132q.202 0 .34-.134q.137-.135.174-.318q.1-.505.402-.899q.302-.393.662-.745q.518-.515.921-1.124q.403-.608.403-1.357q0-1.102-.835-1.818q-.836-.716-1.961-.716q-.835 0-1.553.39t-1.149 1.08q-.098.166-.063.343q.035.177.19.268q.198.105.4.05q.202-.056.356-.233q.332-.414.783-.69q.451-.278.998-.278"/></svg>