<svg xmlns="http://www.w3.org/2000/svg" width="1em" height="1em" viewBox="0 0 24 24"><path fill="currentColor" d="M12.038 17.135q.333 0 .561-.228q.228-.228.228-.56q0-.334-.228-.561q-.228-.228-.56-.228q-.333 0-.561.228q-.228.227-.228.56q0 .333.228.56q.228.229.56.229m2.87-7.82q0-1.138-.778-1.87q-.778-.733-1.99-.733q-.836 0-1.574.395t-1.18 1.116q-.098.16-.022.35q.076.19.273.264q.184.067.375.002q.19-.064.3-.23q.313-.49.745-.728q.431-.239 1.022-.239q.834 0 1.349.471q.514.472.514 1.22q0 .45-.242.873t-.804.923q-.65.613-.965 1.113q-.316.5-.377 1.098q-.03.177.107.33q.137.153.345.153q.196 0 .34-.122q.142-.122.179-.33q.075-.42.294-.76q.22-.342.72-.842q.776-.777 1.073-1.304t.296-1.15M5.615 20q-.69 0-1.152-.462Q4 19.075 4 18.385V5.615q0-.69.463-1.152Q4.925 4 5.615 4h12.77q.69 0 1.152.463q.463.462.463 1.152v12.77q0 .69-.462 1.152q-.463.463-1.153.463z"/></svg>