<svg xmlns="http://www.w3.org/2000/svg" width="1em" height="1em" viewBox="0 0 24 24"><path fill="currentColor" d="M12.028 17.23q.332 0 .56-.228q.227-.23.227-.56q0-.332-.229-.56q-.229-.228-.56-.228q-.332 0-.56.229q-.228.229-.228.56q0 .332.23.56q.228.228.56.228m-.516-3.312h.965q.038-.652.245-1.06q.207-.407.851-1.04q.67-.669.996-1.199q.327-.53.327-1.226q0-1.182-.83-1.884q-.831-.702-1.966-.702q-1.079 0-1.832.586q-.753.587-1.103 1.348l.92.381q.24-.546.687-.965q.447-.42 1.29-.42q.973 0 1.42.534q.449.534.449 1.174q0 .52-.281.928q-.28.409-.73.822q-.87.802-1.14 1.36q-.268.557-.268 1.363M12.003 21q-1.866 0-3.51-.708q-1.643-.709-2.859-1.924q-1.216-1.214-1.925-2.856Q3 13.87 3 12.003q0-1.866.708-3.51q.709-1.643 1.924-2.859q1.214-1.216 2.856-1.925Q10.13 3 11.997 3q1.866 0 3.51.708q1.643.709 2.859 1.924q1.216 1.214 1.925 2.856Q21 10.13 21 11.997q0 1.866-.708 3.51q-.709 1.643-1.924 2.859q-1.214 1.216-2.856 1.925Q13.87 21 12.003 21"/></svg>