<svg xmlns="http://www.w3.org/2000/svg" width="1em" height="1em" viewBox="0 0 24 24"><path fill="currentColor" d="M12 16.692q.213 0 .357-.143q.143-.144.143-.357v-3q0-.212-.144-.356T12 12.692t-.356.144q-.143.144-.143.356v3q0 .213.144.357q.144.143.357.143M12 10.538q.31 0 .54-.23q.23-.23.23-.539q0-.31-.23-.54Q12.31 9 12 9q-.31 0-.54.23q-.23.23-.23.54q0 .309.23.539q.23.23.54.23M6.615 20q-.666 0-1.14-.475Q5 19.051 5 18.385v-8.077q0-.384.172-.727q.171-.343.474-.566l5.385-4.057q.422-.323.966-.323q.543 0 .972.323l5.385 4.057q.303.223.474.566q.172.343.172.727v8.077q0 .666-.475 1.14q-.474.475-1.14.475zm0-1h10.77q.269 0 .442-.173t.173-.442v-8.077q0-.154-.067-.28q-.068-.124-.183-.22l-5.385-4.039q-.153-.134-.365-.134t-.365.134L6.25 9.808q-.115.096-.183.22q-.067.126-.067.28v8.077q0 .269.173.442t.442.173M12 12.308"/></svg>