<svg xmlns="http://www.w3.org/2000/svg" width="1em" height="1em" viewBox="0 0 24 24"><path fill="currentColor" d="m19.479 20.9l-1.883-1.877q-1.167.935-2.583 1.456Q13.596 21 12 21q-1.868 0-3.51-.709t-2.857-1.923q-1.215-1.215-1.924-2.858Q3 13.868 3 12q0-1.596.521-3.012t1.456-2.584L3.094 4.52q-.146-.146-.156-.347q-.01-.2.156-.366q.166-.166.357-.166t.357.166l16.384 16.384q.146.146.156.345q.01.198-.156.363q-.165.165-.356.165t-.357-.165m-.823-5.056l-10.5-10.5q-.373-.368-.286-.88q.088-.512.547-.73q.84-.367 1.734-.55Q11.046 3 11.992 3q1.87 0 3.513.71q1.644.709 2.86 1.925q1.216 1.216 1.926 2.86q.709 1.644.709 3.513q0 .946-.184 1.84q-.183.895-.55 1.735q-.218.46-.725.55q-.506.09-.885-.289"/></svg>