<svg xmlns="http://www.w3.org/2000/svg" width="1em" height="1em" viewBox="0 0 24 24"><path fill="currentColor" d="M4 14.692V5.615q0-.666.475-1.14Q4.949 4 5.615 4h9.077q.667 0 1.141.475q.475.474.475 1.14v9.077q0 .667-.475 1.141q-.474.475-1.14.475H5.614q-.666 0-1.14-.475Q4 15.36 4 14.693m1.615.615h9.077q.27 0 .443-.173t.173-.443V5.615q0-.269-.173-.442T14.692 5H5.615q-.269 0-.442.173T5 5.615v9.077q0 .27.173.443t.442.173M19.385 5.23q-.262 0-.439-.177t-.177-.439q0-.261.177-.438T19.385 4q.261 0 .438.177t.177.438q0 .262-.177.439t-.438.177m0 3.692q-.262 0-.439-.177t-.177-.438q0-.262.177-.439t.439-.177q.261 0 .438.177t.177.439q0 .261-.177.438t-.438.177m0 3.692q-.262 0-.439-.177q-.177-.176-.177-.438t.177-.438q.177-.177.439-.177q.261 0 .438.177q.177.176.177.438t-.177.438q-.177.177-.438.177m0 3.693q-.262 0-.439-.177t-.177-.439q0-.261.177-.438t.439-.177q.261 0 .438.177t.177.438q0 .262-.177.439t-.438.177M4.615 20q-.261 0-.438-.177T4 19.385q0-.262.177-.439t.438-.177q.262 0 .439.177t.177.439q0 .261-.177.438T4.615 20m3.693 0q-.262 0-.439-.177t-.177-.438q0-.262.177-.439t.439-.177q.261 0 .438.177t.177.439q0 .261-.177.438T8.308 20M12 20q-.262 0-.438-.177q-.177-.177-.177-.438q0-.262.177-.439q.176-.177.438-.177t.438.177q.177.177.177.439q0 .261-.177.438Q12.262 20 12 20m3.692 0q-.261 0-.438-.177t-.177-.438q0-.262.177-.439t.438-.177q.262 0 .439.177t.177.439q0 .261-.177.438t-.439.177m3.693 0q-.262 0-.439-.177t-.177-.438q0-.262.177-.439t.439-.177q.261 0 .438.177t.177.439q0 .261-.177.438t-.438.177m-9.231-9.846"/></svg>