<svg xmlns="http://www.w3.org/2000/svg" width="1em" height="1em" viewBox="0 0 24 24"><path fill="currentColor" d="M14.75 14.692v1.058q0 .19.126.316t.316.126q.19 0 .317-.126q.126-.126.126-.316v-1.058h.673q.444 0 .76-.316q.317-.316.317-.76v-3.231q0-.445-.317-.761q-.316-.316-.76-.316h-2.231q-.444 0-.76.316q-.317.316-.317.76v3.231q0 .445.316.761q.317.316.76.316zm-7.25-2h2.615v1.558q0 .19.126.316t.317.126q.19 0 .316-.126T11 14.25v-4.5q0-.19-.126-.316t-.316-.126q-.19 0-.317.126q-.126.126-.126.316v2.058H7.5V9.75q0-.19-.126-.316t-.316-.126q-.19 0-.317.126q-.126.126-.126.316v4.5q0 .19.126.316t.317.126q.19 0 .316-.126t.126-.316zm6.692 1.116q-.115 0-.211-.096q-.096-.097-.096-.212v-3q0-.115.096-.212q.096-.096.211-.096h2q.116 0 .212.096q.096.097.096.212v3q0 .115-.096.212q-.096.096-.212.096zM4.615 19q-.69 0-1.152-.462Q3 18.075 3 17.385V6.615q0-.69.463-1.152Q3.925 5 4.615 5h14.77q.69 0 1.152.463q.463.462.463 1.152v10.77q0 .69-.462 1.152q-.463.463-1.153.463z"/></svg>