<svg xmlns="http://www.w3.org/2000/svg" width="1em" height="1em" viewBox="0 0 24 24"><path fill="currentColor" d="M8.23 18.77q-.412 0-.705-.295q-.294-.293-.294-.706v-2H10v-3.25q-.952.2-1.951-.06q-.999-.26-1.649-.917v-1.407H4.98L2.193 7.346q.862-.784 1.956-1.173q1.094-.388 2.252-.388q.961 0 1.87.273q.907.273 1.73.855V5.077h10v11.692q0 .846-.577 1.423q-.577.577-1.423.577zm2.77-3h6v1q0 .424.288.712t.712.287q.425 0 .713-.287t.287-.713V6.077h-8v1.6l5.5 5.5v.708h-.708l-3.042-3.043l-.565.566q-.293.292-.574.49q-.282.198-.611.348zM5.408 9.134H7.4v1.957q.512.316.952.43q.44.113.856.113q.682 0 1.241-.233t1.047-.721l.546-.546l-1.746-1.747q-.802-.801-1.798-1.202q-.996-.401-2.098-.401q-.73 0-1.421.19q-.69.19-1.237.494zM16 16.769H8.23v1h8.074q-.171-.206-.238-.462Q16 17.051 16 16.77m-7.77 1v-1z"/></svg>