<svg xmlns="http://www.w3.org/2000/svg" width="1em" height="1em" viewBox="0 0 24 24"><path fill="currentColor" d="M8.23 18.77q-.412 0-.705-.295q-.294-.293-.294-.706v-1.192q0-.343.232-.576q.232-.232.575-.232H10v-3.25q-.827.162-1.737-.005t-1.576-.73q-.133-.122-.21-.275q-.077-.153-.077-.334v-1.04H5.31q-.154 0-.297-.056t-.272-.185l-1.93-1.93q-.257-.256-.228-.599q.029-.342.31-.565q.724-.513 1.66-.764q.937-.251 1.847-.251q.961 0 1.87.273q.907.273 1.73.855v-.365q0-.615.428-1.043q.428-.428 1.043-.428h6.923q.662 0 1.134.474q.472.475.472 1.141V16.77q0 .846-.577 1.423q-.577.577-1.423.577zm2.77-3h5.23q.31 0 .54.229q.23.23.23.54v.23q0 .425.288.713t.712.287q.425 0 .713-.287t.287-.713V6.692q0-.269-.173-.442t-.442-.173h-6.77q-.269 0-.442.173T11 6.692v.985l5.36 5.36q.118.111.144.253q.027.143-.037.285q-.063.142-.177.226q-.115.084-.292.084q-.102 0-.196-.043q-.093-.043-.156-.104l-2.896-2.896l-.565.566q-.293.292-.574.49q-.282.198-.611.348zM5.408 9.134h1.184q.344 0 .576.232q.232.232.232.575v1.15q.512.316.952.43q.44.113.856.113q.682 0 1.241-.233t1.047-.721l.546-.546l-1.746-1.747q-.802-.801-1.798-1.202q-.996-.401-2.098-.401q-.73 0-1.421.19q-.69.19-1.237.494zM16 16.769H8.23v1h8.074q-.171-.206-.238-.462Q16 17.051 16 16.77m-7.77 1v-1z"/></svg>