<svg xmlns="http://www.w3.org/2000/svg" width="1em" height="1em" viewBox="0 0 24 24"><path fill="currentColor" d="m15.3 15.988l-3.8-3.8V7.5h1v4.312l3.488 3.488zm-11.354.03q-.421-.822-.65-1.712q-.229-.89-.284-1.806h1.005q.056.794.26 1.55q.206.756.56 1.467zM3.012 11.5q.055-.915.294-1.809q.238-.893.665-1.733l.866.5q-.374.711-.569 1.477q-.195.765-.25 1.565zm4.086 8.035q-.79-.52-1.461-1.184q-.672-.664-1.19-1.455l.865-.52q.446.682 1.025 1.261q.58.58 1.261 1.026zM5.337 7.598l-.89-.5q.518-.79 1.19-1.452q.67-.661 1.461-1.18l.5.87q-.675.447-1.245 1.017q-.57.57-1.016 1.245m6.163 13.39q-.915-.055-1.809-.294q-.893-.238-1.733-.665l.5-.866q.711.374 1.477.569q.765.195 1.565.25zM8.458 4.837l-.5-.866q.84-.427 1.733-.665q.894-.239 1.809-.294v1.005q-.8.056-1.565.251q-.766.195-1.477.569M12.5 20.988v-1.005q.8-.056 1.565-.251q.766-.195 1.477-.569l.5.866q-.84.427-1.733.665q-.894.239-1.809.294m3.042-16.151q-.711-.374-1.477-.569q-.765-.195-1.565-.25V3.011q.915.055 1.809.294q.893.238 1.733.665zm1.36 14.698l-.5-.872q.675-.446 1.245-1.016q.57-.57 1.016-1.245l.872.5q-.52.79-1.181 1.455q-.662.664-1.452 1.178m1.761-11.956q-.446-.675-1.016-1.236q-.57-.56-1.245-1.006l.5-.872q.79.514 1.452 1.166q.661.652 1.175 1.442zm1.32 3.921q-.056-.8-.26-1.565q-.206-.766-.579-1.497l.885-.505q.421.846.662 1.74q.242.892.297 1.827zm.046 4.542l-.866-.5q.374-.711.569-1.477q.195-.765.25-1.565h1.006q-.055.915-.294 1.809q-.238.893-.665 1.733"/></svg>