<svg xmlns="http://www.w3.org/2000/svg" width="1em" height="1em" viewBox="0 0 24 24"><path fill="currentColor" d="M15.948 11.615h3.196l1.189-2.12q.217-.374.217-.783q0-.41-.217-.783l-.73-1.289q-.216-.378-.583-.605q-.366-.227-.82-.227h-2.252l-1.623 2.904zm-5.546 3.289h3.196L15.221 12l-1.623-2.904h-3.196L8.779 12zm0-6.596h3.196l1.623-2.904l-1.163-2.071q-.218-.38-.584-.606q-.366-.227-.82-.227h-1.308q-.454 0-.82.227q-.366.227-.584.606L8.78 5.403zm-.744.404L8.052 5.808H5.8q-.454 0-.82.227q-.367.227-.584.605l-.729 1.29q-.217.373-.217.783q0 .41.217.782l1.189 2.121h3.196zm0 6.576l-1.606-2.903H4.856l-1.189 2.12q-.217.374-.217.783q0 .41.217.783l.73 1.289q.216.378.583.605q.366.227.82.227h2.252zm.744.404l-1.623 2.904l1.186 2.083q.218.373.581.597q.364.224.812.224h1.296q.454 0 .82-.227q.366-.227.584-.606l1.163-2.07l-1.623-2.905zm5.546 2.5H18.2q.454 0 .82-.227q.367-.227.584-.605l.729-1.289q.217-.373.217-.783q0-.41-.217-.782l-1.189-2.121h-3.196l-1.623 2.903z"/></svg>