<svg xmlns="http://www.w3.org/2000/svg" width="1em" height="1em" viewBox="0 0 24 24"><path fill="currentColor" d="M19.423 9.308q.327 0 .548.22q.221.222.221.549v.538q0 .143-.13.225l-.254.16h-.116q-.154 0-.269-.115q-.115-.116-.115-.27v-.423h-2.616v1.5h2.885q.261 0 .438.177t.177.439v1.615q0 .327-.22.548q-.222.221-.549.221h-1.906l-.884-.884h2.675v-1.5h-2.885q-.261 0-.438-.177t-.177-.439v-1.615q0-.327.22-.548q.222-.221.549-.221zM3.308 14.25v-4.5q0-.192.125-.317t.316-.125t.317.125q.126.125.126.317v1.558h2.616V9.75q0-.192.125-.317t.316-.125t.317.125q.126.125.126.317v4.5q0 .192-.125.317t-.316.125t-.317-.125q-.126-.125-.126-.317v-2.058H4.192v2.058q0 .192-.125.317t-.316.125t-.317-.125q-.126-.125-.126-.317m16.17 6.65L3.1 4.521q-.14-.14-.15-.341q-.01-.201.146-.367q.17-.165.36-.165t.357.165l16.374 16.38q.14.14.152.34q.013.202-.157.371q-.155.156-.35.156q-.194 0-.353-.16m-9.248-6.823v-3.133l.884.885v1.979H13.1l.885.884h-3.139q-.248 0-.432-.183q-.183-.184-.183-.432"/></svg>