<svg xmlns="http://www.w3.org/2000/svg" width="1em" height="1em" viewBox="0 0 24 24"><path fill="currentColor" d="M12 3.41q.248 0 .503.07q.255.072.472.233l8.654 6.433q.171.135.192.323q.021.189-.113.366t-.323.198q-.189.02-.366-.1L12 4.25L6 8.715v8.67q0 .269.173.442t.442.173h2.558q.214 0 .357.143q.143.144.143.357t-.143.357Q9.387 19 9.173 19H6.615q-.67 0-1.143-.472Q5 18.056 5 17.385V9.452l-2 1.486q-.171.116-.363.095q-.19-.021-.325-.198q-.135-.172-.111-.36q.024-.188.195-.323l8.629-6.439q.217-.161.463-.232q.245-.071.512-.071m5.5 18.35q-1.127.782-2.207.747q-1.08-.036-1.922-.878q-.842-.842-.878-1.932q-.035-1.09.747-2.197q-.782-1.127-.747-2.207q.036-1.08.878-1.922q.842-.842 1.932-.878q1.09-.035 2.197.747q1.127-.782 2.207-.747q1.08.036 1.922.878q.842.842.878 1.932q.035 1.09-.747 2.197q.782 1.127.747 2.207q-.036 1.08-.878 1.922q-.842.842-1.932.878q-1.09.035-2.197-.747m0-1.22l.862.589q.603.421 1.32.361q.718-.06 1.233-.575q.516-.515.585-1.232q.07-.718-.352-1.321l-.608-.862l.589-.862q.421-.603.361-1.32q-.06-.718-.575-1.233q-.515-.516-1.232-.585q-.718-.07-1.321.352l-.862.608l-.862-.589q-.603-.421-1.32-.361q-.718.06-1.233.575q-.516.515-.585 1.232q-.07.718.352 1.321l.608.862l-.589.862q-.421.603-.361 1.32q.06.718.575 1.233q.515.516 1.232.585q.718.07 1.321-.352zm0-2.252q.333 0 .56-.227q.228-.228.228-.561q0-.333-.227-.56q-.228-.228-.561-.228q-.333 0-.56.227q-.228.228-.228.561q0 .333.227.56q.228.228.561.228m0-.788"/></svg>