<svg xmlns="http://www.w3.org/2000/svg" width="1em" height="1em" viewBox="0 0 24 24"><path fill="currentColor" d="M7.22 19.385q-.585 0-1.038-.383q-.452-.382-.553-.965l-1.287-7.702q-.063-.38.172-.665q.235-.285.623-.285h13.726q.388 0 .623.285q.235.286.172.665l-1.287 7.702q-.1.583-.553.965q-.453.383-1.037.383zm2.78-5.5h4q.213 0 .356-.144t.144-.357q0-.213-.144-.356T14 12.885h-4q-.213 0-.356.144q-.144.143-.144.356t.144.356q.144.144.356.144M6 8q-.213 0-.356-.144T5.5 7.499q0-.212.144-.356Q5.788 7 6 7h12q.213 0 .356.144q.144.144.144.357q0 .212-.144.356Q18.213 8 18 8zm2-2.385q-.213 0-.356-.144q-.144-.143-.144-.356t.144-.356q.143-.144.356-.144h8q.213 0 .356.144t.144.357q0 .213-.144.356T16 5.615z"/></svg>