<svg xmlns="http://www.w3.org/2000/svg" width="1em" height="1em" viewBox="0 0 24 24"><path fill="currentColor" d="M6.506 18q1.069 0 1.823-.742q.754-.741.754-1.816q0-.696-.371-1.348t-1.037-.963l-.362-.216V6.808q0-.34-.222-.574Q6.87 6 6.506 6q-.321 0-.565.234q-.243.233-.243.574v6.107l-.361.216q-.685.336-1.047.966q-.361.63-.361 1.345q0 1.075.754 1.816q.754.742 1.823.742m-.01 1q-1.48 0-2.524-1.04q-1.043-1.04-1.043-2.537q0-1.014.483-1.817q.482-.802 1.286-1.268v-5.53q0-.76.533-1.284Q5.763 5 6.506 5q.78 0 1.294.524q.513.524.513 1.284v5.53q.785.466 1.277 1.281q.493.816.493 1.823q0 1.471-1.053 2.515Q7.977 19 6.496 19m6.608-4.192q-1.066-.69-1.816-1.827t-.75-2.712q0-2.195 1.537-3.732Q13.61 5 15.805 5Q18 5 19.538 6.537q1.539 1.537 1.539 3.732q0 1.575-.75 2.712q-.75 1.136-1.815 1.827zm.315-1h4.858q.829-.639 1.314-1.523q.486-.885.486-2.016q0-1.76-1.255-3.015Q17.567 6 15.805 6q-1.763 0-3.015 1.254q-1.252 1.254-1.252 3.015q0 1.15.526 2.035q.526.884 1.355 1.504M15.808 19q-.523 0-.916-.392q-.392-.393-.392-.916h2.615q0 .523-.392.916q-.392.392-.915.392m-1.923-2.192q-.213 0-.357-.144t-.143-.357q0-.213.143-.356q.144-.143.357-.143h3.846q.212 0 .356.144t.144.356q0 .213-.144.356q-.144.144-.356.144zm1.923-6.904"/></svg>