<svg xmlns="http://www.w3.org/2000/svg" width="1em" height="1em" viewBox="0 0 24 24"><path fill="currentColor" d="M4.808 18q-.344 0-.576-.232Q4 17.536 4 17.192v-4.384q0-.344.232-.576q.232-.232.576-.232h14.384q.344 0 .576.232q.232.232.232.576v4.384q0 .344-.232.576q-.232.232-.576.232zM4.5 10q-.213 0-.356-.144Q4 9.712 4 9.5t.144-.356Q4.288 9 4.5 9h15q.213 0 .356.144T20 9.5q0 .212-.144.356q-.143.143-.356.143zm0-3q-.213 0-.356-.144T4 6.499q0-.212.144-.356Q4.288 6 4.5 6h15q.213 0 .356.144q.144.144.144.357q0 .212-.144.356Q19.713 7 19.5 7z"/></svg>