<svg xmlns="http://www.w3.org/2000/svg" width="1em" height="1em" viewBox="0 0 24 24"><path fill="currentColor" d="M2 18V5h1v9h8.5V7H19q1.238 0 2.119.881T22 10v8h-1v-3H3v3zm4.998-5.885q-.883 0-1.498-.617q-.615-.618-.615-1.5q0-.883.617-1.498q.618-.615 1.5-.615q.883 0 1.498.617q.615.618.615 1.5q0 .883-.617 1.498q-.618.615-1.5.615M12.5 14H21v-4q0-.825-.587-1.412T19 8h-6.5zM7 11.115q.463 0 .79-.326q.325-.326.325-.789t-.326-.79Q7.463 8.886 7 8.886t-.79.326q-.325.326-.325.789t.326.79q.326.325.789.325M12.5 8v6z"/></svg>