<svg xmlns="http://www.w3.org/2000/svg" width="1em" height="1em" viewBox="0 0 24 24"><path fill="currentColor" d="M21.11 22.53L19.579 21H5v-1h1.808v-3q0-1.91 1.097-3.238q1.097-1.327 2.564-1.724v-.096q-.934-.269-2.026-1.18q-1.091-.912-1.441-2.339L1.887 3.308l.713-.714l19.223 19.223zm-6.79-11.034l-.693-.686q1.01-.572 1.787-1.6q.778-1.03.778-2.21V4H7.808v.99l-.798-.798V4h-.193l-1-1H19v1h-1.808v3q0 1.35-.87 2.552q-.872 1.202-2.003 1.944M7.808 20h8.384v-2.387L11.38 12.82q-1.356.206-2.464 1.312Q7.808 15.237 7.808 17zm9.384 0h1.346l-1.346-1.577z"/></svg>