<svg xmlns="http://www.w3.org/2000/svg" width="1em" height="1em" viewBox="0 0 24 24"><path fill="currentColor" d="M2.5 18v-1.02q.815-.153 1.275-.567q.46-.413 1.55-.413q1.258 0 1.825.5t1.5.5q1.008 0 1.566-.5q.559-.5 1.784-.5t1.784.5q.558.5 1.566.5q.933 0 1.5-.5t1.825-.5q1.148 0 1.55.394q.402.394 1.275.587V18q-.925 0-1.46-.5q-.534-.5-1.39-.5q-.977 0-1.535.5q-.557.5-1.79.5q-1.263 0-1.771-.5T12 17q-1.046 0-1.554.5t-1.771.5q-1.233 0-1.79-.5q-.558-.5-1.535-.5q-.875 0-1.39.5q-.516.5-1.46.5m1.23-5.75l.69-.688L5.901 13H8V8.894l-1.325.975l-.598-.792L12 4.712l5.904 4.346l-.598.817L16 8.919V13h2.098l1.483-1.438l.688.688L18.52 14H5.442zm8.77.75v-2h-1v2z"/></svg>