<svg xmlns="http://www.w3.org/2000/svg" width="1em" height="1em" viewBox="0 0 24 24"><path fill="currentColor" d="M7.308 19q-.671 0-1.144-.472q-.472-.472-.472-1.143V9.946L3 11.952q-.177.115-.365.097q-.189-.018-.323-.195q-.135-.177-.114-.366q.021-.188.198-.323l8.629-6.452q.217-.161.462-.232q.246-.071.513-.071t.512.07q.246.072.463.233l3.371 2.51v-1.28q0-.395.274-.669T17.288 5q.395 0 .669.274t.274.668v2.696l3.392 2.527q.171.135.195.323q.024.189-.11.366t-.323.195q-.189.018-.366-.097l-2.692-2.006v7.439q0 .67-.472 1.143q-.472.472-1.143.472h-1.866q-.671 0-1.143-.472t-.472-1.143v-3q0-.27-.173-.443t-.443-.173h-1.23q-.27 0-.443.173t-.173.443v3q0 .67-.472 1.143Q9.825 19 9.154 19zm0-1h1.846q.27 0 .442-.173t.173-.442v-3q0-.672.472-1.144q.472-.472 1.144-.472h1.23q.672 0 1.144.472q.472.472.472 1.144v3q0 .269.173.442t.442.173h1.866q.269 0 .442-.173t.173-.442V9.21l-4.962-3.685Q12.212 5.41 12 5.41t-.365.115L6.692 9.21v8.175q0 .269.173.442t.443.173m2.884-7.994h3.616q0-.704-.543-1.159q-.542-.455-1.265-.455q-.723 0-1.265.455q-.543.455-.543 1.159M9.154 18q.27 0 .442-.173t.173-.442v-3q0-.672.472-1.144q.472-.472 1.144-.472h1.23q.672 0 1.144.472q.472.472.472 1.144v3q0 .269.173.442t.442.173q-.27 0-.442-.173t-.173-.442v-3q0-.672-.472-1.144q-.472-.472-1.144-.472h-1.23q-.672 0-1.144.472q-.472.472-.472 1.144v3q0 .269-.173.442T9.154 18"/></svg>