<svg xmlns="http://www.w3.org/2000/svg" width="1em" height="1em" viewBox="0 0 24 24"><path fill="currentColor" d="M5.385 21.23q-.69 0-1.153-.462t-.463-1.153v-3.203l3.212-3.625l.713.713l-2.884 3.27h14.38l-2.834-3.22l.713-.713l3.162 3.575v3.203q0 .69-.463 1.153t-1.153.463zm0-1h13.23q.25 0 .433-.182t.183-.433V17.77H4.769v1.846q0 .25.183.433t.433.183m5.51-6.318l-2.987-3.025q-.48-.478-.467-1.143q.013-.664.492-1.143l4.38-4.38q.48-.48 1.137-.485q.658-.006 1.137.473l3.005 3.005q.48.48.485 1.131q.006.652-.473 1.13l-4.442 4.443q-.48.48-1.134.476q-.655-.003-1.134-.482m5.971-5.119q.154-.154.154-.442q0-.289-.154-.442l-2.967-2.968q-.154-.154-.442-.154q-.289 0-.443.154L8.621 9.335q-.154.153-.154.442q0 .288.154.442l2.967 2.968q.154.153.443.153q.288 0 .442-.153zM4.77 20.231v-2.462z"/></svg>