<svg xmlns="http://www.w3.org/2000/svg" width="1em" height="1em" viewBox="0 0 24 24"><path fill="currentColor" d="M10.808 18.615H3.98q-.44 0-.74-.299q-.299-.299-.299-.74v-.607q0-.767.377-1.232q.377-.466.954-.764q1.275-.65 2.51-1.004q1.234-.354 3.16-.354q.75 0 1.327.047q.578.046 1.022.138l-.904.904q-.275-.05-.652-.07q-.378-.019-.794-.019q-1.775 0-3.033.368q-1.259.367-2.159.867q-.456.24-.632.504q-.176.263-.176.615v.646h5.866zm4.492-.323l4.696-4.696q.14-.14.344-.15q.204-.01.364.15t.16.354q0 .194-.16.354l-4.839 4.838q-.242.243-.565.243q-.323 0-.565-.243l-1.839-1.838q-.14-.14-.15-.344q-.01-.204.15-.364t.354-.16q.194 0 .354.16zm-5.358-6.907q-1.237 0-2.118-.882t-.882-2.118q0-1.238.882-2.12q.88-.88 2.118-.88t2.12.88q.88.882.88 2.12q0 1.237-.88 2.118q-.882.882-2.12.882m0-1q.825 0 1.413-.588t.587-1.412q0-.825-.587-1.413t-1.413-.587q-.825 0-1.412.587t-.588 1.413q0 .825.588 1.412t1.412.588m0-2"/></svg>