<svg xmlns="http://www.w3.org/2000/svg" width="1em" height="1em" viewBox="0 0 24 24"><path fill="currentColor" d="M4.865 20q-.212 0-.356-.144t-.144-.357q0-.212.144-.356q.144-.143.356-.143h14.231q.213 0 .356.144t.144.357q0 .212-.144.356q-.143.143-.356.143zm1.272-8.312q-.576-.54-.844-1.282t-.268-1.523q0-1.623 1.09-2.763T8.8 4.98q.737 0 1.413.287q.675.287 1.21.816L12 6.66l.577-.558q.535-.529 1.21-.825q.676-.296 1.413-.296q1.603 0 2.702 1.155Q19 7.292 19 8.906q0 .78-.288 1.489q-.288.709-.824 1.268L12.683 16.7q-.14.14-.317.21q-.178.07-.366.07t-.366-.07q-.177-.07-.317-.21zm.688-.707l5.175 5l5.2-5.025q.425-.4.625-.938t.2-1.112q0-1.2-.803-2.05q-.803-.85-1.99-.85q-.557 0-1.06.212q-.503.213-.897.613l-.723.723q-.114.111-.257.167q-.143.056-.295.056q-.165 0-.31-.075q-.144-.075-.275-.206l-.665-.665q-.4-.4-.888-.625T8.8 5.98q-1.194 0-1.997.85Q6 7.68 6 8.88q0 .575.2 1.125t.625.975m5.194 0"/></svg>