<svg xmlns="http://www.w3.org/2000/svg" width="1em" height="1em" viewBox="0 0 24 24"><path fill="currentColor" d="M6.002 22.5q-1.04 0-1.771-.728q-.731-.729-.731-1.77q0-1.04.73-1.771Q4.958 17.5 6 17.5q.292 0 .612.085q.319.084.594.228l2.54-3.16q-.546-.582-.744-1.288q-.198-.705-.067-1.43l-3.737-1.233q-.329.586-.907.942Q3.712 12 3 12q-1.042 0-1.77-.728q-.73-.729-.73-1.77q0-1.04.729-1.771Q1.957 7 2.997 7t1.771.73q.731.728.731 1.77q0 .127-.01.196q-.01.07-.01.139l3.718 1.296q.327-.631.934-1.102q.606-.471 1.426-.608V5.458q-.956-.18-1.507-.89q-.551-.71-.551-1.576q0-1.03.729-1.761Q10.957.5 11.998.5q1.04 0 1.771.73q.731.728.731 1.77q0 .858-.554 1.568q-.554.71-1.504.89V9.42q.82.137 1.417.608q.597.471.943 1.102l3.717-1.296q-.019-.089-.019-.148V9.5q0-1.042.729-1.77q.728-.73 1.769-.73q1.04 0 1.771.729q.731.728.731 1.769q0 1.04-.73 1.771Q22.043 12 21 12q-.706 0-1.29-.356q-.585-.356-.908-.942l-3.737 1.233q.131.725-.067 1.428q-.198.702-.744 1.272l2.54 3.153q.275-.125.594-.206q.32-.082.611-.082q1.042 0 1.772.729q.729.728.729 1.769q0 1.04-.728 1.771q-.729.731-1.77.731q-1.04 0-1.771-.73q-.731-.728-.731-1.77q0-.446.143-.859q.144-.412.476-.768l-2.54-3.198q-.679.44-1.572.44q-.894 0-1.592-.44l-2.534 3.198q.313.356.466.768q.153.413.153.859q0 1.042-.728 1.77q-.729.73-1.77.73"/></svg>