<svg xmlns="http://www.w3.org/2000/svg" width="1em" height="1em" viewBox="0 0 24 24"><path fill="currentColor" d="M12.015 16q1.448 0 2.467-1.006q1.018-1.006 1.018-2.44q0-.696-.26-1.316q-.261-.62-.761-1.098l-1.914-1.882Q12.323 8.04 12 8.04q-.323 0-.565.218L9.52 10.14q-.5.479-.76 1.098q-.261.62-.261 1.316q0 1.434 1.034 2.44T12.015 16M9.5 12.5q0-.471.198-.902q.198-.43.538-.769L12 9.108l1.764 1.721q.34.338.538.77q.198.43.198.901zM6.615 19q-.666 0-1.14-.475Q5 18.051 5 17.385V9.308q0-.384.172-.727q.171-.343.474-.566l5.385-4.057q.422-.323.966-.323q.543 0 .972.323l5.385 4.057q.303.223.474.566q.172.343.172.727v8.077q0 .666-.475 1.14q-.474.475-1.14.475zm0-1h10.77q.269 0 .442-.173t.173-.442V9.308q0-.154-.067-.28q-.068-.124-.183-.22l-5.385-4.039q-.153-.134-.365-.134t-.365.134L6.25 8.808q-.115.096-.183.22Q6 9.155 6 9.309v8.077q0 .269.173.442t.442.173M12 11.308"/></svg>