<svg xmlns="http://www.w3.org/2000/svg" width="1em" height="1em" viewBox="0 0 24 24"><path fill="currentColor" d="M2.5 21.5v-1h4v-3h-3v-14h8v4q0 .836.499 1.517q.5.681 1.341.914l2.625.725q1.115.306 1.825 1.235t.71 2.11V17.5h-3v3H18q1.442 0 2.394-.779q.952-.779 1.106-2.221h1q-.154 1.863-1.395 2.932Q19.863 21.5 18 21.5zm2-5h13v-2.503q0-.845-.509-1.492q-.508-.647-1.331-.886l-2.625-.75q-.785-.236-1.373-.733q-.589-.498-.881-1.251H8.5q-.154 0-.27-.116q-.115-.115-.115-.269t.116-.27q.115-.115.269-.115h2.08q-.05-.28-.062-.567q-.012-.286-.018-.663h-2q-.154 0-.27-.116q-.115-.115-.115-.269t.116-.27q.115-.115.269-.115h2V4.5h-6zm3 4h7v-3h-7zm-3-4"/></svg>