<svg xmlns="http://www.w3.org/2000/svg" width="1em" height="1em" viewBox="0 0 24 24"><path fill="currentColor" d="M4.615 19q-.666 0-1.14-.475Q3 18.051 3 17.385V6.615q0-.666.475-1.14Q3.949 5 4.615 5H5v1.427L2.235 3.662q-.147-.147-.153-.348q-.007-.2.158-.366t.357-.165q.191 0 .357.165l18.51 18.515q.146.147.155.345q.01.198-.156.363q-.165.166-.356.166t-.357-.166L17.573 19zm0-1h11.958l-10-10H4v9.385q0 .269.173.442t.442.173M21 6.615v10.616q0 .25-.155.375t-.341.125q-.187 0-.345-.13T20 17.225V8h-8.517q-.332 0-.632-.13q-.301-.132-.518-.349L9.185 6.373Q9 6.165 8.958 5.936q-.04-.228.046-.446q.086-.217.283-.353Q9.483 5 9.756 5h9.629q.666 0 1.14.475q.475.474.475 1.14m-3.308 4.5v2.697q0 .225-.14.33q-.139.106-.3.106t-.303-.113q-.141-.113-.141-.323v-2.62h-2.62q-.21 0-.323-.14q-.113-.139-.113-.3t.105-.303q.106-.141.331-.141h2.697q.343 0 .575.232q.232.232.232.575"/></svg>