<svg xmlns="http://www.w3.org/2000/svg" width="1em" height="1em" viewBox="0 0 24 24"><path fill="currentColor" d="M5.615 20q-.69 0-1.152-.462Q4 19.075 4 18.385V5.615q0-.69.463-1.152Q4.925 4 5.615 4H10v1H5.615q-.23 0-.423.192Q5 5.385 5 5.615v12.77q0 .23.192.423q.193.192.423.192h12.77q.23 0 .423-.192q.192-.193.192-.423v-5.389l1 1v4.389q0 .69-.462 1.152q-.463.463-1.153.463zM7.5 16.5l1.962-2.577l1.75 2.115l2.615-3.307l2.827 3.769zm13.78-4.023l-3.138-3.139q-.505.37-.98.516q-.475.146-1.074.146q-1.465 0-2.476-1.014Q12.6 7.97 12.6 6.5q0-1.471 1.014-2.486Q14.63 3 16.1 3q1.471 0 2.486 1.014Q19.6 5.03 19.6 6.5q0 .598-.18 1.137q-.182.538-.52 1.044l3.088 3.088zM16.1 9q1.05 0 1.775-.725T18.6 6.5q0-1.05-.725-1.775T16.1 4q-1.05 0-1.775.725T13.6 6.5q0 1.05.725 1.775T16.1 9"/></svg>