<svg xmlns="http://www.w3.org/2000/svg" width="1em" height="1em" viewBox="0 0 24 24"><path fill="currentColor" d="M5.615 20q-.69 0-1.152-.462Q4 19.075 4 18.385V5.615q0-.69.463-1.152Q4.925 4 5.615 4H9.5q.213 0 .357.143q.143.144.143.357t-.143.357T9.5 5H5.615q-.23 0-.423.192Q5 5.385 5 5.615v12.77q0 .23.192.423q.193.192.423.192h12.77q.23 0 .423-.192q.192-.193.192-.423v-4.389q0-.213.143-.357t.357-.143q.213 0 .357.143q.143.144.143.357v4.389q0 .69-.462 1.152q-.463.463-1.153.463zm5.597-3.962l2.292-2.898q.13-.161.323-.161t.323.161l2.02 2.714q.142.211.03.429q-.112.217-.354.217H8.308q-.243 0-.354-.217q-.112-.218.05-.43l1.154-1.52q.13-.162.313-.162t.314.142zM16.088 10q-1.465 0-2.476-1.014Q12.6 7.97 12.6 6.5q0-1.471 1.014-2.486Q14.63 3 16.1 3q1.471 0 2.486 1.014Q19.6 5.03 19.6 6.5q0 .598-.18 1.137q-.182.538-.52 1.044l2.735 2.734q.14.14.15.345q.01.203-.15.363q-.16.16-.354.16t-.354-.16l-2.785-2.785q-.505.37-.98.516q-.475.146-1.074.146m.012-1q1.05 0 1.775-.725T18.6 6.5q0-1.05-.725-1.775T16.1 4q-1.05 0-1.775.725T13.6 6.5q0 1.05.725 1.775T16.1 9"/></svg>