<svg xmlns="http://www.w3.org/2000/svg" width="1em" height="1em" viewBox="0 0 24 24"><path fill="currentColor" d="M16.462 20q-.31 0-.54-.23q-.23-.23-.23-.54v-7.257q0-.31.23-.54q.23-.23.54-.23h3.769q.31 0 .54.23q.229.23.229.54v7.258q0 .31-.23.54q-.23.229-.54.229zm0-1.77h3.769v-5.257h-3.77zm-7.339-5.095L11 11.615l1.877 1.52l-.696-2.389l1.896-1.542h-2.33L11 6.98l-.746 2.223h-2.33l1.895 1.542zM8.153 20v-1H10.5v-3H4.615q-.67 0-1.143-.472Q3 15.056 3 14.385v-8.77q0-.67.472-1.143Q3.944 4 4.615 4h12.77q.67 0 1.143.472q.472.472.472 1.143v3.589h-2.538q-1.154 0-1.962.808q-.808.807-.808 1.961V16H11.5v3h2.346v1z"/></svg>