<svg xmlns="http://www.w3.org/2000/svg" width="1em" height="1em" viewBox="0 0 24 24"><path fill="currentColor" d="M6.5 16.038q1.31 0 2.547.301q1.238.301 2.453.98V7.508q-1.083-.773-2.387-1.16Q7.81 5.962 6.5 5.962q-.9 0-1.576.107q-.676.108-1.5.4q-.232.077-.328.221Q3 6.835 3 7.008v9.015q0 .27.192.394q.193.125.423.03q.548-.185 1.267-.297q.718-.112 1.618-.112m6 1.281q1.215-.679 2.453-.98q1.237-.3 2.547-.3q.9 0 1.618.111q.719.112 1.267.296q.23.096.423-.029q.192-.125.192-.394V7.008q0-.173-.096-.308t-.327-.23q-.825-.293-1.501-.4q-.676-.108-1.576-.108q-1.31 0-2.613.386q-1.304.387-2.387 1.16zm-.5 1.45q-1.22-.834-2.62-1.282q-1.4-.449-2.88-.449q-.78 0-1.534.131q-.753.131-1.466.42q-.544.217-1.022-.131T2 16.496V6.831q0-.371.195-.689q.195-.317.547-.442q.881-.388 1.833-.563q.952-.175 1.925-.175q1.47 0 2.866.423q1.397.423 2.634 1.23q1.237-.807 2.634-1.23q1.397-.423 2.866-.423q.973 0 1.925.175t1.833.563q.352.125.547.442q.195.318.195.689v9.665q0 .614-.516.942q-.517.33-1.1.112q-.694-.27-1.418-.39q-.724-.122-1.466-.122q-1.48 0-2.88.449q-1.4.448-2.62 1.282m-4.75-7.254"/></svg>