<svg xmlns="http://www.w3.org/2000/svg" width="1em" height="1em" viewBox="0 0 24 24"><path fill="currentColor" d="M6.5 16.038q1.31 0 2.547.301q1.238.301 2.453.98V7.508q-1.083-.773-2.387-1.16Q7.81 5.962 6.5 5.962q-.996 0-1.903.165T3 6.68v9.996q.702-.3 1.651-.47q.949-.169 1.849-.169m6 1.281q1.215-.679 2.453-.98q1.237-.3 2.547-.3q.9 0 1.849.169q.95.169 1.651.469V6.68q-.69-.389-1.597-.554q-.907-.165-1.903-.165q-1.31 0-2.613.386q-1.304.387-2.387 1.16zm-.5 1.45q-1.22-.834-2.62-1.282q-1.4-.449-2.88-.449q-1.229 0-2.42.347q-1.19.346-2.08.915V6.07q.85-.52 2.04-.814q1.189-.294 2.46-.294q1.47 0 2.866.423q1.397.423 2.634 1.23q1.237-.807 2.634-1.23q1.397-.423 2.866-.423q1.271 0 2.451.294q1.18.294 2.049.813V18.3q-.885-.57-2.078-.915q-1.193-.347-2.422-.347q-1.48 0-2.88.449q-1.4.448-2.62 1.282M7.25 11.64"/></svg>