<svg xmlns="http://www.w3.org/2000/svg" width="1em" height="1em" viewBox="0 0 24 24"><path fill="currentColor" d="M12.5 17.32q1.215-.68 2.453-.98q1.237-.302 2.547-.302q.9 0 1.849.17q.95.169 1.651.469V6.68q-.69-.389-1.597-.554q-.907-.165-1.903-.165q-1.31 0-2.613.386q-1.304.387-2.387 1.16zm-.5 1.45q-1.22-.835-2.62-1.283q-1.4-.449-2.88-.449q-1.229 0-2.42.347q-1.19.346-2.08.915V6.07q.85-.52 2.04-.814q1.189-.294 2.46-.294q1.47 0 2.866.423q1.397.423 2.634 1.23q1.237-.807 2.634-1.23q1.397-.423 2.866-.423q1.271 0 2.451.294q1.18.294 2.049.813V18.3q-.885-.57-2.078-.915q-1.193-.347-2.422-.347q-1.48 0-2.88.449q-1.4.448-2.62 1.282"/></svg>