<svg xmlns="http://www.w3.org/2000/svg" width="1em" height="1em" viewBox="0 0 24 24"><path fill="currentColor" d="M16.558 19.75h.769v-3.27h-.77zm2.115 0h.77v-3.27h-.77zM6.77 8.73h10.462v-1H6.769zM18 22.116q-1.671 0-2.836-1.164T14 18.115q0-1.67 1.164-2.835T18 14.115q1.671 0 2.836 1.165T22 18.115q0 1.672-1.164 2.836Q19.67 22.115 18 22.115M4 20.77V4h16v7.56q-.244-.09-.485-.154q-.24-.064-.515-.1V5H5v14.05h6.344q.068.41.176.802q.109.392.303.748l-.035.035l-1.134-.827l-1.346.961l-1.346-.961l-1.347.961l-1.346-.961zm2.77-4.5h4.709q.056-.275.138-.515q.083-.24.193-.485H6.77zm0-3.769h7.31q.49-.387 1.05-.645q.56-.259 1.197-.355H6.769zM5 19.05V5z"/></svg>