<svg xmlns="http://www.w3.org/2000/svg" width="1em" height="1em" viewBox="0 0 24 24"><path fill="currentColor" d="M5.615 20q-.69 0-1.152-.462Q4 19.075 4 18.385V15.5q0-.213.143-.357Q4.287 15 4.5 15t.357.143T5 15.5v2.885q0 .23.192.423q.193.192.423.192H8.5q.213 0 .357.143T9 19.5q0 .213-.143.357Q8.713 20 8.5 20zm12.77 0H15.5q-.213 0-.357-.143Q15 19.713 15 19.5t.143-.357T15.5 19h2.885q.23 0 .423-.192q.192-.193.192-.423V15.5q0-.213.143-.357T19.5 15q.213 0 .357.143q.143.144.143.357v2.885q0 .69-.462 1.152q-.463.463-1.153.463M4 5.615q0-.69.463-1.152Q4.925 4 5.615 4H8.5q.213 0 .357.143Q9 4.287 9 4.5t-.143.357T8.5 5H5.615q-.23 0-.423.192Q5 5.385 5 5.615V8.5q0 .213-.143.357T4.5 9q-.213 0-.357-.143Q4 8.713 4 8.5zm16 0V8.5q0 .213-.143.357Q19.713 9 19.5 9t-.357-.143T19 8.5V5.615q0-.23-.192-.423Q18.615 5 18.385 5H15.5q-.213 0-.357-.143T15 4.5q0-.213.143-.357Q15.287 4 15.5 4h2.885q.69 0 1.152.463q.463.462.463 1.152m-7.962 11.597q.333 0 .561-.228q.228-.228.228-.56q0-.334-.228-.562q-.228-.227-.56-.227q-.333 0-.561.227q-.228.228-.228.561q0 .333.228.56q.228.229.56.229m0-9.493q.766 0 1.32.487q.555.486.555 1.227q0 .536-.314.977q-.314.44-.72.796q-.65.594-.968 1.107q-.319.512-.369 1.122q-.025.196.116.333q.14.138.342.138q.196 0 .34-.135q.143-.134.173-.336q.07-.425.3-.76q.231-.335.725-.829q.76-.76 1.048-1.278q.287-.518.287-1.153q0-1.157-.783-1.892q-.782-.735-2.013-.735q-.852 0-1.559.386q-.706.386-1.131 1.12q-.093.166-.023.353q.07.188.261.255q.171.067.364.01q.194-.058.317-.218q.332-.427.762-.7q.43-.275.97-.275"/></svg>