<svg xmlns="http://www.w3.org/2000/svg" width="1em" height="1em" viewBox="0 0 24 24"><path fill="currentColor" d="m13.6 13.692l-2.6-2.6l-4.885 4.885q-.173.173-.173.423t.173.423l1.754 1.754q.173.173.423.173t.423-.173zm-1.887-3.313l2.6 2.6l4.937-4.937q.173-.173.173-.442t-.173-.442l-1.715-1.716q-.173-.173-.443-.173q-.269 0-.442.173zm-1.061-.354l4.015 4.015l-5.244 5.245q-.485.484-1.13.484q-.647 0-1.131-.484l-.204-.204l-.671.67q-.218.218-.523.349q-.304.13-.627.13h-1.13q-.272 0-.369-.251t.097-.444l1.838-1.839l-.165-.165q-.485-.485-.485-1.131t.485-1.13zm0 0l5.31-5.31q.484-.484 1.13-.484q.646 0 1.131.484l1.754 1.754q.485.485.485 1.131t-.485 1.13l-5.31 5.31z"/></svg>