<svg xmlns="http://www.w3.org/2000/svg" width="1em" height="1em" viewBox="0 0 24 24"><path fill="currentColor" d="M7.615 22q-.69 0-1.152-.462Q6 21.075 6 20.385V3.615q0-.69.463-1.152Q6.925 2 7.615 2h6.462v1H7.615q-.23 0-.423.192Q7 3.385 7 3.615V4.5h7.077v1H7v13h10v-2h1v3.885q0 .69-.462 1.152q-.463.463-1.153.463zM7 19.5v.885q0 .23.192.423q.193.192.423.192h8.77q.23 0 .423-.192q.192-.193.192-.423V19.5zm10.5-8.127V4q0-.213.143-.357q.144-.143.357-.143t.357.143q.143.144.143.357v7.373l2.746-2.746q.14-.14.344-.15q.204-.01.364.15t.16.354q0 .194-.16.354l-3.389 3.388q-.242.242-.565.242q-.323 0-.565-.242l-3.389-3.388q-.14-.14-.15-.345q-.01-.203.15-.363q.16-.16.354-.16t.354.16zM7 4.5V3zm0 15V21z"/></svg>