<svg xmlns="http://www.w3.org/2000/svg" width="1em" height="1em" viewBox="0 0 24 24"><path fill="currentColor" d="m7 8.48l1.635-1.615L7 5.25L5.385 6.865zm9.498-1.21q.415 0 .709-.292q.293-.29.293-.706t-.291-.71q-.291-.293-.707-.293q-.415 0-.709.291q-.293.291-.293.707t.291.709q.291.293.707.293M6 21.231v-1.408q0-.586.324-1.096q.324-.51.874-.75q1.148-.517 2.348-.786q1.2-.268 2.454-.268q1.254 0 2.454.268q1.2.269 2.348.786q.55.24.874.745q.324.505.324 1.095v1.414zm6-5.693q-1.046 0-1.773-.726q-.727-.727-.727-1.774q0-1.046.727-1.773q.727-.727 1.773-.727q1.046 0 1.773.727q.727.727.727 1.773q0 1.047-.727 1.774q-.727.726-1.773.726M7.687 13.77H3v-11h18v11h-4.687q.047-.25.062-.5t.004-.5q-.104-1.727-1.363-2.92Q13.758 8.653 12 8.653T8.984 9.848Q7.725 11.042 7.62 12.77q-.011.25.004.5t.062.5"/></svg>