<svg xmlns="http://www.w3.org/2000/svg" width="1em" height="1em" viewBox="0 0 24 24"><path fill="currentColor" d="M20.5 16.23q-.413 0-.707-.292q-.293-.294-.293-.707v-2.5q0-.414.293-.707q.294-.293.707-.293t.707.293q.293.293.293.707v2.5q0 .413-.293.707q-.294.293-.707.293M8.654 11.346q-1.112-.038-1.921-.886q-.81-.848-.81-2.075q0-1.227.81-2.075q.81-.848 1.92-.887q.082 0 .15.012q.068.011.162.04q-.477.525-.72 1.247Q8 7.444 8 8.385q0 .94.235 1.643q.234.703.73 1.266q-.075.03-.152.04q-.078.012-.16.012m4.347.039q-1.246 0-2.123-.877Q10 9.63 10 8.385q0-1.247.877-2.123q.877-.877 2.123-.877q1.246 0 2.123.877q.877.876.877 2.123q0 1.246-.877 2.123q-.877.877-2.123.877m-7 7.23v-1.64q0-.62.358-1.162q.357-.542.973-.84q1.198-.592 2.685-.975T13 13.615q.646 0 1.366.1q.72.098 1.342.258q-.454 1.227-.112 2.489q.342 1.261 1.229 2.153zm14.115.885v-1.146q-1.142-.175-1.87-.926q-.73-.751-.874-1.85q-.025-.141.087-.244q.111-.103.273-.103q.142 0 .26.09t.15.233q.13.875.792 1.468q.661.593 1.567.593t1.564-.587q.66-.588.79-1.463q.03-.142.152-.238t.263-.096q.162 0 .273.108q.112.11.087.251q-.15 1.093-.87 1.84q-.719.749-1.874.924V19.5q0 .162-.112.273q-.111.112-.273.112t-.273-.112q-.112-.111-.112-.273M1.923 17.577v-.602q0-.523.28-1.017q.282-.495.859-.87q.45-.269 1.014-.487t1.178-.341q-.596.43-.925 1.12Q4 16.072 4 16.976v.602q0 .27.048.52t.15.518H2.962q-.44 0-.74-.299q-.299-.299-.299-.74"/></svg>