<svg xmlns="http://www.w3.org/2000/svg" width="1em" height="1em" viewBox="0 0 24 24"><path fill="currentColor" d="M20.502 16.23q-.415 0-.709-.29q-.293-.293-.293-.71v-2.5q0-.416.291-.708q.291-.291.707-.291q.415 0 .709.291q.293.292.293.709v2.5q0 .416-.291.708t-.707.292m-.387 3.654v-1.531q-1.236-.2-1.974-1.047q-.737-.847-.795-2.076h.77q0 .992.69 1.688q.692.696 1.694.696t1.693-.691q.692-.692.692-1.693h.769q-.058 1.229-.786 2.076t-1.983 1.045v1.533zM8.654 11.346q-1.112-.038-1.921-.886q-.81-.848-.81-2.075q0-1.227.81-2.075q.81-.848 1.92-.887q.075 0 .147.012q.071.011.165.04q-.477.525-.72 1.247Q8 7.444 8 8.385q0 .94.235 1.643q.234.703.73 1.266q-.075.03-.152.04q-.078.012-.16.012m-6.73 7.27v-1.641q0-.523.28-1.017q.282-.495.859-.87q.45-.269 1.014-.487t1.178-.341q-.596.43-.925 1.12Q4 16.072 4 16.976v1.64zM13 11.384q-1.237 0-2.119-.882T10 8.385q0-1.238.881-2.12q.881-.88 2.119-.88q1.238 0 2.119.88q.881.882.881 2.12q0 1.237-.881 2.118T13 11.385m-7 7.23v-1.64q0-.62.358-1.162q.357-.542.973-.84q1.198-.592 2.685-.975T13 13.615q.646 0 1.366.1q.72.098 1.342.258q-.454 1.227-.112 2.489q.342 1.261 1.229 2.153z"/></svg>