<svg xmlns="http://www.w3.org/2000/svg" width="1em" height="1em" viewBox="0 0 24 24"><path fill="currentColor" d="m8.158 12l1.796-1.796q.146-.146.153-.344q.006-.198-.153-.364q-.166-.165-.357-.168q-.191-.003-.357.162l-1.944 1.945q-.242.242-.242.565q0 .323.242.565L9.24 14.51q.147.146.348.153q.2.006.366-.16q.16-.165.162-.353q.003-.188-.162-.354zm7.684 0l-1.796 1.796q-.146.146-.153.344q-.006.198.153.364q.166.165.357.168q.191.003.357-.162l1.944-1.945q.242-.242.242-.565q0-.323-.242-.565L14.76 9.49q-.147-.146-.347-.152q-.201-.007-.367.158q-.16.166-.162.354q-.003.188.162.354zM5.615 20q-.67 0-1.143-.472Q4 19.056 4 18.385V5.615q0-.67.472-1.143Q4.944 4 5.615 4h4.7q-.136-.765.367-1.383Q11.185 2 12 2q.835 0 1.338.617q.502.618.347 1.383h4.7q.67 0 1.143.472q.472.472.472 1.143v12.77q0 .67-.472 1.143q-.472.472-1.143.472zm0-1h12.77q.23 0 .423-.192q.192-.193.192-.423V5.615q0-.23-.192-.423Q18.615 5 18.385 5H5.615q-.23 0-.423.192Q5 5.385 5 5.615v12.77q0 .23.192.423q.193.192.423.192M12 4.442q.325 0 .538-.212t.212-.538q0-.325-.213-.537T12 2.942q-.325 0-.537.213t-.213.537q0 .325.213.538t.537.212M5 19V5z"/></svg>