<svg xmlns="http://www.w3.org/2000/svg" width="1em" height="1em" viewBox="0 0 24 24"><path fill="currentColor" d="m2.77 10.423l4.268-7.442l4.27 7.442zM7.057 20.52q-1.477 0-2.498-1.02q-1.021-1.024-1.021-2.5q0-1.458 1.022-2.488q1.02-1.031 2.498-1.031q1.457 0 2.488 1.03q1.03 1.031 1.03 2.489q0 1.477-1.03 2.498q-1.03 1.021-2.488 1.021m6.461 0v-7.038h7.039v7.038zm3.52-10.096q-.926-.738-1.696-1.371q-.77-.633-1.326-1.229q-.555-.596-.863-1.185q-.308-.588-.308-1.232q0-.894.586-1.477q.585-.583 1.491-.583q.598 0 1.118.293q.52.294.997.882q.477-.57 1.017-.872q.54-.303 1.118-.303q.887 0 1.472.612q.586.611.586 1.505q0 .625-.308 1.204q-.308.58-.863 1.166q-.556.586-1.326 1.219q-.77.633-1.696 1.371"/></svg>