<svg xmlns="http://www.w3.org/2000/svg" width="1em" height="1em" viewBox="0 0 24 24"><path fill="currentColor" d="M5.615 21q-.67 0-1.143-.472Q4 20.056 4 19.385V8.263q-.43-.178-.715-.577Q3 7.286 3 6.769V4.615q0-.67.472-1.143Q3.944 3 4.615 3h14.77q.67 0 1.143.472q.472.472.472 1.143V6.77q0 .518-.285.917q-.284.399-.715.577v11.122q0 .67-.472 1.143q-.472.472-1.143.472zm-1-13.615h14.77q.269 0 .442-.173q.173-.174.173-.443V4.615q0-.269-.173-.442T19.385 4H4.615q-.269 0-.442.173T4 4.615V6.77q0 .27.173.443t.442.173m5.212 5.48h4.365q.195 0 .309-.124q.114-.124.114-.318t-.114-.309Q14.387 12 14.192 12H9.808q-.195 0-.309.114q-.114.115-.114.31q0 .193.124.317t.318.124"/></svg>