<svg xmlns="http://www.w3.org/2000/svg" width="1em" height="1em" viewBox="0 0 24 24"><path fill="currentColor" d="M4.442 8.73V7.5h1.231v1.23zm.116 7.77v-5.77h1v5.77zm6.384 0H9.173q-.671 0-1.143-.472t-.472-1.143v-5.77q0-.67.472-1.143q.472-.472 1.143-.472h1.77q.67 0 1.143.472q.472.472.472 1.143v5.77q0 .67-.472 1.143q-.473.472-1.144.472m-1.769-1h1.77q.269 0 .442-.173t.173-.442v-5.77q0-.269-.173-.442t-.443-.173H9.173q-.27 0-.442.173t-.173.442v5.77q0 .269.173.442t.442.173m5.385 1v-1h3.384q.27 0 .443-.173t.173-.442v-1.77q0-.269-.173-.442t-.443-.173h-1.769q-.671 0-1.143-.472t-.472-1.143v-1.77q0-.67.472-1.143q.472-.472 1.143-.472h3.385v1h-3.385q-.27 0-.442.173t-.173.442v1.77q0 .269.173.442t.442.173h1.77q.67 0 1.143.472q.472.472.472 1.143v1.77q0 .67-.472 1.143q-.473.472-1.144.472z"/></svg>