<svg xmlns="http://www.w3.org/2000/svg" width="1em" height="1em" viewBox="0 0 24 24"><path fill="currentColor" d="M3 17v-2.077q0-1.364.992-2.336q.993-.972 2.412-.972h8.961V10.5q0-.617-.447-1.059Q14.47 9 13.808 9h-2.962q-.656 0-1.116.441q-.46.442-.46 1.059h-1q0-1.042.75-1.77Q9.773 8 10.847 8h2.962q1.077 0 1.817.73q.74.728.74 1.77v3.962h.058q.656 0 1.116-.442q.461-.441.461-1.058V9.5q0-1.042.74-1.77q.74-.73 1.818-.73H21v1h-.442q-.662 0-1.11.441Q19 8.883 19 9.5v3.462q0 1.041-.752 1.77t-1.825.73h-.058V17zm1-1h11.365v-3.385H6.404q-.992 0-1.698.678T4 14.923zm11.365 0v-3.385z"/></svg>