<svg xmlns="http://www.w3.org/2000/svg" width="1em" height="1em" viewBox="0 0 24 24"><path fill="currentColor" d="M3 17v-2.077q0-1.361.992-2.335t2.412-.973h8.961V10.5q0-.617-.45-1.059Q14.462 9 13.807 9h-2.962q-.656 0-1.116.441q-.46.442-.46 1.059h-1q0-1.038.75-1.77Q9.77 8 10.845 8h2.962q1.077 0 1.817.73q.74.732.74 1.77v3.962h.058q.656 0 1.116-.442q.461-.441.461-1.058V9.5q0-1.038.74-1.77q.74-.73 1.818-.73H21v1h-.442q-.656 0-1.107.441Q19 8.883 19 9.5v3.462q0 1.038-.75 1.769q-.75.73-1.827.73h-.058V17z"/></svg>