<svg xmlns="http://www.w3.org/2000/svg" width="1em" height="1em" viewBox="0 0 24 24"><path fill="currentColor" d="M12.423 11.577h1.5q.213 0 .356.144q.144.144.144.357q0 .212-.144.356q-.143.143-.356.143H12.24q-.357 0-.587-.232q-.23-.233-.23-.576v-1.692q0-.213.144-.356t.357-.144q.213 0 .356.144q.143.143.143.356zm7.577 0v-1.5q0-.213.144-.356t.357-.144q.212 0 .356.144q.143.143.143.356v1.683q0 .357-.232.587q-.232.23-.576.23H18.5q-.213 0-.356-.144T18 12.076q0-.213.144-.356t.356-.143zM12.423 4v1.5q0 .213-.144.356q-.144.144-.357.144q-.212 0-.356-.144q-.143-.143-.143-.356V3.817q0-.357.232-.587q.233-.23.576-.23h1.692q.213 0 .356.144q.144.144.144.357q0 .212-.144.356q-.143.143-.356.143zM20 4h-1.5q-.213 0-.356-.144T18 3.5q0-.212.144-.356T18.5 3h1.683q.357 0 .587.232q.23.232.23.576V5.5q0 .213-.144.356Q20.712 6 20.5 6t-.356-.144Q20 5.713 20 5.5zm-9.577 10.285l-6.361 6.361q-.14.14-.345.15q-.204.01-.363-.15q-.16-.16-.16-.354q0-.194.16-.354l6.361-6.361H4.5q-.213 0-.356-.144Q4 13.289 4 13.076t.144-.356q.143-.143.356-.143h6.115q.344 0 .576.232q.232.232.232.576V19.5q0 .213-.144.356t-.357.144q-.212 0-.356-.144q-.143-.144-.143-.356z"/></svg>