<svg xmlns="http://www.w3.org/2000/svg" width="1em" height="1em" viewBox="0 0 24 24"><path fill="currentColor" d="M2.5 22.5v-1H3q.8 0 1.54-.25T6 20.558q.72.442 1.46.692q.74.25 1.54.25t1.553-.25q.753-.25 1.447-.692q.72.442 1.46.692q.74.25 1.54.25t1.553-.25q.753-.25 1.447-.692q.694.442 1.447.692q.753.25 1.553.25h.5v1H21q-.717 0-1.467-.197q-.75-.197-1.533-.61q-.783.413-1.533.61q-.75.197-1.467.197t-1.467-.197q-.75-.197-1.533-.61q-.783.413-1.533.61q-.75.197-1.467.197t-1.467-.197q-.75-.197-1.533-.61q-.783.413-1.533.61q-.75.197-1.467.197zM9 19.115q-.785 0-1.579-.29q-.794-.29-1.421-.94q-.213.219-.428.399q-.214.18-.512.322q-.948-.198-1.912-.487q-.963-.288-1.783-.619q1.235-.46 2.868-.915q1.632-.456 3.277-.718l1.542-4.655q.198-.562.73-.789q.531-.227 1.033.027l2.781 1.415l2.979-1.692l1.785-3.988l-.5-1.325l1.055-2.36l2.643 1.175l-1.056 2.36l-1.325.5l-4.065 9.138q2.151.237 4.114.767q1.962.531 3.409 1.06q-.937.344-1.905.636q-.968.29-1.809.47q-.279-.137-.503-.317q-.224-.18-.418-.404q-.646.65-1.43.94q-.785.29-1.57.29t-1.57-.3q-.784-.3-1.43-.95q-.646.65-1.43.95q-.785.3-1.57.3m5.171-3.52l1.758-3.953L13.596 13l-2.038-1.054l-1.239 3.65q.36-.038.8-.067q.439-.029.881-.029q.487 0 1.05.022q.563.022 1.121.072M12 9.192q-.69 0-1.191-.5q-.501-.502-.501-1.192t.5-1.191q.502-.501 1.192-.501t1.191.5q.501.502.501 1.192t-.5 1.191q-.502.501-1.192.501"/></svg>