<svg xmlns="http://www.w3.org/2000/svg" width="1em" height="1em" viewBox="0 0 24 24"><path fill="currentColor" d="M7 16.23V6.328L5.47 4.292q-.299-.404-.078-.848Q5.613 3 6.115 3h10.102q.486 0 .827.341q.34.341.34.826V6h2q.667 0 1.141.475q.475.474.475 1.14v5q0 .667-.475 1.141q-.474.475-1.14.475h-2v2q0 .666-.475 1.14q-.474.475-1.14.475H8.614q-.666 0-1.14-.474Q7 16.897 7 16.23m1.615.615h7.154q.27 0 .443-.173t.173-.442V4H6.48L8 5.973v10.258q0 .269.173.442t.442.173m8.77-3.615h2q.269 0 .442-.173t.173-.443v-5q0-.269-.173-.442T19.385 7h-2zm-3.693-7.462q-.384 0-.654.27q-.269.269-.269.653v7.462q0 .384.27.654q.269.269.653.269q.385 0 .654-.27t.27-.653V6.692q0-.384-.27-.654q-.27-.269-.654-.269M4.5 21q-.213 0-.356-.144Q4 20.712 4 20.5t.144-.356Q4.288 20 4.5 20h15q.213 0 .356.144T20 20.5q0 .212-.144.356q-.143.143-.356.143zm6.942-10.577"/></svg>