<svg xmlns="http://www.w3.org/2000/svg" width="1em" height="1em" viewBox="0 0 24 24"><path fill="currentColor" d="M12.02 8.846q.768 0 1.307-.538q.538-.539.538-1.308t-.538-1.308q-.539-.538-1.308-.538t-1.307.538q-.539.539-.539 1.308t.539 1.308q.538.538 1.307.538m.006 12.914q-.162 0-.298-.053q-.137-.053-.267-.178l-1.537-1.442q-.111-.106-.17-.24q-.059-.134-.084-.276q-.025-.142.028-.291q.053-.15.14-.28l.932-1.212l-1.05-1.357q-.092-.112-.135-.23q-.044-.116-.044-.259t.044-.26q.043-.117.116-.228l.82-1.07v-2.85q-1.34-.355-2.285-1.607Q7.288 8.675 7.288 7q0-2 1.366-3.365q1.365-1.366 3.365-1.366t3.366 1.366Q16.75 5 16.75 7q0 1.698-.958 2.941q-.957 1.244-2.273 1.594v8.7q0 .161-.056.31q-.055.15-.186.28l-.698.698q-.125.125-.259.18q-.133.057-.295.057"/></svg>