<svg xmlns="http://www.w3.org/2000/svg" width="1em" height="1em" viewBox="0 0 24 24"><path fill="currentColor" d="m19.479 20.9l-6.894-6.894h-1q-.57 1.35-1.81 2.172Q8.535 17 7 17q-2.077 0-3.538-1.462Q2 14.077 2 12q0-1.746 1.072-3.083q1.072-1.336 2.73-1.694L3.1 4.521q-.16-.16-.16-.35t.16-.358q.165-.146.357-.155q.191-.01.356.155l16.374 16.38q.14.14.152.34q.013.202-.152.367q-.16.16-.354.16q-.195 0-.354-.16m2.98-8.9q0 .162-.052.298q-.053.137-.184.267l-2.117 2.098q-.131.131-.26.187q-.13.056-.256.056q-.2 0-.302-.038t-.232-.118l-1.46-1.248l-.73.538l-.385-.384l1.423-1.021l1.627 1.215L21.387 12l-1-1h-6.562l-1-1h7.635q.161 0 .3.056q.14.056.27.186l1.193 1.193q.13.13.184.267q.053.136.053.298M7 16q1.275 0 2.349-.764q1.074-.765 1.466-2.115h.885l-1.342-1.342l-1.184-1.184L7.99 9.412L6.648 8.069q-1.658.104-2.653 1.303Q3 10.572 3 12q0 1.65 1.175 2.825T7 16m0-2.77q-.517 0-.874-.356q-.357-.357-.357-.874t.357-.874q.357-.357.874-.357t.874.357q.357.357.357.874t-.357.874q-.357.357-.874.357"/></svg>