<svg xmlns="http://www.w3.org/2000/svg" width="1em" height="1em" viewBox="0 0 24 24"><path fill="currentColor" d="M4.615 18q-.69 0-1.152-.462Q3 17.075 3 16.385v-8.77q0-.69.463-1.152Q3.925 6 4.615 6h14.77q.69 0 1.152.463q.463.462.463 1.152v8.77q0 .69-.462 1.152q-.463.463-1.153.463zm0-1h14.77q.23 0 .423-.192q.192-.193.192-.423v-8.77q0-.23-.192-.423Q19.615 7 19.385 7H4.615q-.23 0-.423.192Q4 7.385 4 7.615v8.77q0 .23.192.423q.193.192.423.192M9 15.77h6q.31 0 .54-.22q.23-.221.23-.55q0-.31-.23-.54q-.23-.23-.54-.23H9q-.31 0-.54.221q-.23.22-.23.549q0 .31.23.54q.23.23.54.23M4 17V7zm2-7.23q.31 0 .54-.23q.23-.23.23-.54q0-.31-.23-.54q-.23-.23-.54-.23q-.31 0-.54.23q-.23.23-.23.54q0 .31.23.54q.23.23.54.23m3 0q.31 0 .54-.23q.23-.23.23-.54q0-.31-.23-.54q-.23-.23-.54-.23q-.31 0-.54.23q-.23.23-.23.54q0 .31.23.54q.23.23.54.23m3 0q.31 0 .54-.23q.23-.23.23-.54q0-.31-.23-.54q-.23-.23-.54-.23q-.31 0-.54.23q-.23.23-.23.54q0 .31.23.54q.23.23.54.23m3 0q.31 0 .54-.23q.23-.23.23-.54q0-.31-.23-.54q-.23-.23-.54-.23q-.31 0-.54.23q-.23.23-.23.54q0 .31.23.54q.23.23.54.23m3 0q.31 0 .54-.23q.23-.23.23-.54q0-.31-.23-.54q-.23-.23-.54-.23q-.31 0-.54.23q-.23.23-.23.54q0 .31.23.54q.23.23.54.23m-12 3q.31 0 .54-.23q.23-.23.23-.54q0-.31-.23-.54q-.23-.23-.54-.23q-.31 0-.54.23q-.23.23-.23.54q0 .31.23.54q.23.23.54.23m3 0q.31 0 .54-.23q.23-.23.23-.54q0-.31-.23-.54q-.23-.23-.54-.23q-.31 0-.54.23q-.23.23-.23.54q0 .31.23.54q.23.23.54.23m3 0q.31 0 .54-.23q.23-.23.23-.54q0-.31-.23-.54q-.23-.23-.54-.23q-.31 0-.54.23q-.23.23-.23.54q0 .31.23.54q.23.23.54.23m3 0q.31 0 .54-.23q.23-.23.23-.54q0-.31-.23-.54q-.23-.23-.54-.23q-.31 0-.54.23q-.23.23-.23.54q0 .31.23.54q.23.23.54.23m3 0q.31 0 .54-.23q.23-.23.23-.54q0-.31-.23-.54q-.23-.23-.54-.23q-.31 0-.54.23q-.23.23-.23.54q0 .31.23.54q.23.23.54.23"/></svg>