<svg xmlns="http://www.w3.org/2000/svg" width="1em" height="1em" viewBox="0 0 24 24"><path fill="currentColor" d="M20.62 21.89L2.955 4.227l.713-.714l17.664 17.664zM8.23 15.77h7.695l-1.538-1.54H8.23zm-3-3h1.54v-1.54H5.23zm3 0h1.54v-1.54H8.23zm9 0h1.54v-1.54h-1.54zm-12-3h1.54V8.23H5.23zm9 0h1.54V8.23h-1.54zm3 0h1.54V8.23h-1.54zM4.616 18q-.69 0-1.152-.462Q3 17.075 3 16.385v-8.77q0-.69.463-1.152Q3.925 6 4.615 6h1.54l12 12zm15.9-.46l-4.746-4.777v-1.532h-1.557L12.77 9.763V8.231h-1.552L9.006 6h10.379q.69 0 1.152.463q.463.462.463 1.152v8.775q0 .348-.134.64q-.133.293-.35.51"/></svg>