<svg xmlns="http://www.w3.org/2000/svg" width="1em" height="1em" viewBox="0 0 24 24"><path fill="currentColor" d="m12 13.113l-4.246 4.24q-.14.141-.341.154t-.367-.153q-.16-.16-.16-.354t.16-.354l4.389-4.388q.13-.131.267-.184q.136-.053.298-.053t.298.053q.137.053.267.184l4.389 4.388q.14.14.153.341t-.153.367q-.16.16-.354.16t-.354-.16zm0-6l-4.246 4.24q-.14.141-.341.154t-.367-.153q-.16-.16-.16-.354t.16-.354l4.389-4.388q.13-.131.267-.184q.136-.053.298-.053t.298.053q.137.053.267.184l4.389 4.388q.14.14.153.342t-.153.366q-.16.16-.354.16t-.354-.16z"/></svg>