<svg xmlns="http://www.w3.org/2000/svg" width="1em" height="1em" viewBox="0 0 24 24"><path fill="currentColor" d="m10.537 12l-4.24-4.246q-.141-.14-.154-.341t.153-.367q.16-.16.354-.16t.354.16l4.388 4.389q.131.13.184.267q.053.136.053.298t-.053.298q-.053.137-.184.267l-4.388 4.389q-.14.14-.341.153q-.201.012-.367-.153q-.16-.16-.16-.354t.16-.354zm6.1 0l-4.24-4.246q-.141-.14-.154-.341t.153-.367q.16-.16.354-.16t.354.16l4.388 4.389q.131.13.184.267q.053.136.053.298t-.053.298q-.053.137-.184.267l-4.388 4.389q-.14.14-.341.153q-.201.012-.367-.153q-.16-.16-.16-.354t.16-.354z"/></svg>