<svg xmlns="http://www.w3.org/2000/svg" width="1em" height="1em" viewBox="0 0 24 24"><path fill="currentColor" d="m8.125 7.092l2.608-3.47q.238-.321.566-.472Q11.627 3 12 3q.373 0 .701.15q.328.15.566.471l2.608 3.471l4.02 1.368q.534.18.822.606q.289.425.289.939q0 .237-.07.471q-.07.234-.228.449l-2.635 3.573l.1 3.83q.025.706-.466 1.189q-.492.483-1.144.483l-.453-.056L12 18.733l-4.11 1.211q-.125.05-.24.053q-.117.003-.213.003q-.666 0-1.15-.483q-.485-.483-.46-1.188l.1-3.856l-2.629-3.548q-.159-.217-.228-.453Q3 10.236 3 10q0-.506.297-.942q.296-.435.828-.618z"/></svg>