<svg xmlns="http://www.w3.org/2000/svg" width="1em" height="1em" viewBox="0 0 24 24"><path fill="currentColor" d="M8.693 8q.213 0 .356-.144t.143-.356V5.885q0-.213-.144-.357t-.356-.143q-.213 0-.356.143q-.144.144-.144.357V7.5q0 .213.144.356T8.693 8m0 8.115q.213 0 .356-.143t.143-.357V12.27q0-.212-.144-.356t-.356-.144q-.213 0-.356.144q-.144.144-.144.356v3.346q0 .213.144.357t.357.143M6.615 21q-.666 0-1.14-.475Q5 20.051 5 19.385v-9h14v9q0 .67-.475 1.143q-.474.472-1.14.472zM5 9.385v-4.77q0-.666.475-1.14Q5.949 3 6.615 3h10.77q.666 0 1.14.475q.475.474.475 1.14v4.77z"/></svg>