<svg xmlns="http://www.w3.org/2000/svg" width="1em" height="1em" viewBox="0 0 24 24"><path fill="currentColor" d="M3 22.5q-.213 0-.357-.143Q2.5 22.213 2.5 22t.143-.357Q2.787 21.5 3 21.5q.688 0 1.355-.191t1.299-.542q.148-.086.346-.086t.346.086q.633.35 1.3.542q.666.191 1.354.191t1.355-.191q.666-.192 1.299-.542q.148-.086.349-.086q.2 0 .343.086q.633.35 1.3.542q.666.191 1.354.191t1.355-.191q.666-.192 1.299-.542q.142-.086.346-.086t.346.086q.633.35 1.3.542q.666.191 1.354.191q.213 0 .357.143q.143.144.143.357t-.143.357q-.144.143-.357.143q-.717 0-1.467-.197q-.75-.197-1.533-.61q-.783.413-1.533.61q-.75.197-1.467.197t-1.467-.197q-.75-.197-1.533-.61q-.783.413-1.533.61q-.75.197-1.467.197t-1.467-.197q-.75-.197-1.533-.61q-.783.413-1.533.61q-.75.197-1.467.197m6.02-3.385q-.65 0-1.26-.173q-.608-.173-1.068-.5q.293-.217.937-.7q.644-.482 1.006-.738l-1.743-3.36q-.205-.367-.299-.784Q6.5 12.442 6.5 12V8q0-.633.434-1.066Q7.367 6.5 8 6.5h3q.865 0 1.642-.229q.777-.229 1.48-.711q.176-.13.39-.117q.213.013.373.172q.146.166.13.354q-.015.189-.186.323q-.829.598-1.795.903Q12.067 7.5 11 7.5H9.1V12h2.715q.162 0 .314.068q.152.069.283.2l1.553 1.703q1.722-.713 3.023-1.092q1.3-.379 2.162-.379q.644 0 .997.213q.353.212.353.658q0 .917-1.523 2.472t-3.989 3.103q-.161.05-.356.08q-.195.032-.363.032q-.477 0-.963-.202q-.487-.202-.921-.587q-.162-.161-.382-.177q-.22-.015-.401.133q-.512.442-1.22.666q-.707.224-1.363.224m.575-2.784q.593-.366 1.67-.973q1.076-.608 1.744-.93L11.712 13l-3.424.388zm6.214-12.477l2.546-2.546q.344 0 .274.525q-.07.525-1.566 2.02q-.252.253-.627.253t-.627-.252M8 4.692q-.69 0-1.191-.5Q6.308 3.69 6.308 3t.5-1.191Q7.31 1.308 8 1.308t1.191.5q.501.502.501 1.192t-.5 1.191Q8.69 4.692 8 4.692"/></svg>