<svg xmlns="http://www.w3.org/2000/svg" width="1em" height="1em" viewBox="0 0 24 24"><path fill="currentColor" d="M17.606 15.356q-.14.213-.332.219q-.191.006-.357-.104q-.165-.11-.21-.305q-.045-.195.1-.408l1.724-2.393q.115-.153.115-.365t-.115-.365L15.577 7.5q-.173-.27-.404-.385Q14.943 7 14.615 7H8.64q-.25 0-.375-.159T8.14 6.5q0-.183.125-.341T8.64 6h5.975q.52 0 1.012.27t.792.695l2.91 4.097q.161.217.23.456q.068.24.068.482t-.068.482q-.069.24-.23.456zM5.616 18q-.691 0-1.153-.462Q4 17.075 4 16.385v-8.77q0-.16.034-.336t.1-.344l-1.61-1.612q-.141-.14-.15-.344q-.01-.204.15-.364t.353-.16q.194 0 .354.16L19 20.385q.14.14.15.344q.01.204-.15.363q-.16.16-.354.16q-.194 0-.354-.16l-3.227-3.227q-.11.068-.305.101t-.375.034zm8.584-1L5 7.8v8.585q0 .23.192.423q.193.192.423.192z"/></svg>