<svg xmlns="http://www.w3.org/2000/svg" width="1em" height="1em" viewBox="0 0 24 24"><path fill="currentColor" d="M12 21q-1.804 0-3.075-1.241q-1.271-1.242-1.271-3.028V7.654q-.69 0-1.172-.472T6 6.019V4.654q0-.682.486-1.168Q6.972 3 7.654 3h8.673q.69 0 1.182.486q.491.486.491 1.168v1.365q0 .69-.491 1.163q-.492.472-1.182.472v9.365q-.115 1.69-1.366 2.836Q13.71 21 12 21m0-1q1.386 0 2.357-.942q.97-.943.97-2.327v-.75h-3.192v-1h3.192v-2.846h-3.192v-1h3.192V7.654H8.654v9.077q0 1.384.976 2.327Q10.606 20 12 20"/></svg>