<svg xmlns="http://www.w3.org/2000/svg" width="1em" height="1em" viewBox="0 0 24 24"><path fill="currentColor" d="M12 21q-1.806 0-3.076-1.241q-1.27-1.242-1.27-3.028V7.654q-.69 0-1.172-.472T6 6.019V4.654q0-.69.482-1.172T7.654 3h8.673q.69 0 1.182.482q.491.481.491 1.172v1.365q0 .69-.491 1.163q-.492.472-1.182.472v9.365q-.115 1.69-1.366 2.836Q13.71 21 12 21M7.654 6.654h8.673q.27 0 .471-.183T17 6.02V4.654q0-.27-.202-.462T16.327 4H7.654q-.27 0-.462.192Q7 4.385 7 4.654v1.365q0 .27.192.452q.193.183.462.183M12 20q1.385 0 2.356-.942q.97-.943.97-2.327v-.75h-3.191v-1h3.192v-2.846h-3.192v-1h3.192V7.654H8.654v9.077q0 1.384.98 2.327Q10.616 20 12 20M7 6.654V4z"/></svg>