<svg xmlns="http://www.w3.org/2000/svg" width="1em" height="1em" viewBox="0 0 24 24"><path fill="currentColor" d="M4.615 21H16.75q1.02 0 1.463-.888q.445-.889-.17-1.697l-2.526-3.33q-.136-.168-.288-.292q-.152-.124-.35-.205l-4.571-1.953l-2.323-3.008q-.218-.298-.556-.463Q7.09 9 6.712 9H4.615q-.67 0-1.143.472Q3 9.944 3 10.615v8.77q0 .67.472 1.143q.472.472 1.143.472M4 19.385V17.88l2 .65l8.679-2.885l2.571 3.373q.23.308.058.644q-.173.337-.558.337H4.615q-.269 0-.442-.173T4 19.385m2-1.916l-2-.656v-2.74l2 .65l3.738-1.242l3.574 1.556zm12.556-4.536l1.948-.88q.329-.141.528-.437q.199-.295.199-.668v-.786q0-.43-.26-.752q-.261-.323-.684-.43l-1.74-.388q-.274-.055-.538.003q-.265.059-.482.24l-.837.657q-.217.181-.338.426q-.121.245-.121.538v.857q0 .293.12.538q.122.245.34.426l.609.494q.273.217.615.258q.343.04.64-.096M6 13.662l-2-.656v-2.39q0-.27.173-.443T4.615 10h2.077q.154 0 .28.058q.124.057.22.173l1.875 2.42zm12.03-1.602l-.8-.625v-1.1l1-.8l2 .45v1.1zm-5.324-4.648l2.536-1.018q.348-.136.553-.434q.205-.298.205-.677V3.59q0-.434-.27-.767t-.7-.42l-2.334-.47q-.242-.05-.472-.01q-.23.04-.441.177l-1.243.854q-.248.161-.394.432q-.146.27-.146.568v1.63q0 .299.146.569q.146.27.394.432l1.04.715q.243.162.538.2q.295.037.588-.088m-.481-.893L11 5.694v-1.85l1.425-.95L15 3.42v2z"/></svg>