<svg xmlns="http://www.w3.org/2000/svg" width="1em" height="1em" viewBox="0 0 24 24"><path fill="currentColor" d="M3 19.385v-1.827l3 .973l9.698-3.214l2.344 3.098q.616.808.171 1.697Q17.77 21 16.75 21H4.615q-.67 0-1.143-.472Q3 20.056 3 19.385m3-1.916l-3-.984V13.75l3 .973L11.188 13l3.589 1.544zm12.556-4.536l1.948-.88q.329-.141.528-.437q.199-.295.199-.668v-.786q0-.43-.26-.752q-.261-.323-.684-.43l-1.74-.388q-.274-.055-.538.003q-.265.059-.482.24l-.837.657q-.217.181-.338.426q-.121.245-.121.538v.857q0 .293.12.538q.122.245.34.426l.609.494q.273.217.615.258q.343.04.64-.096M6 13.662l-3-.985v-2.062q0-.67.472-1.143Q3.944 9 4.615 9h2.097q.378 0 .717.164q.338.165.556.463l2.09 2.702zm6.706-6.25l2.536-1.018q.348-.136.553-.434q.205-.298.205-.677V3.59q0-.434-.27-.767t-.7-.42l-2.334-.47q-.242-.05-.472-.01q-.23.04-.441.177l-1.243.854q-.248.161-.394.432q-.146.27-.146.568v1.63q0 .299.146.569q.146.27.394.432l1.04.715q.243.162.538.2q.295.037.588-.088"/></svg>