<svg xmlns="http://www.w3.org/2000/svg" width="1em" height="1em" viewBox="0 0 24 24"><path fill="currentColor" d="M4.323 17.28V12q-.313.333-.642.634q-.33.3-.73.645q-.141-.179-.274-.352t-.28-.315q.926-.737 1.746-1.61q.82-.873 1.526-1.946l.748.27q-.292.486-.61.922q-.319.437-.669.837v6.196zm5.579 0q-.28 0-.545-.012t-.532-.043q-.062-.252-.123-.435q-.062-.182-.129-.325h1.748q.183 0 .274-.09q.092-.092.092-.275v-4.804h-3.99v-.734h6.622v.76h-1.817v4.851q0 .252-.042.48q-.043.228-.248.378q-.22.182-.593.216t-.717.034m-6.93-7.35q-.143-.187-.258-.347t-.25-.334q.832-.604 1.51-1.243q.676-.64 1.195-1.313l.78.316q-.536.752-1.28 1.48q-.744.73-1.698 1.44m4.23-1.778v-.735h5.807l-.05.735zm9.791 8.306q.796 0 1.613-.421q.816-.422 1.52-1.175v-3.343q-.69.114-1.264.262q-.574.148-1.173.33q-1.298.427-1.927 1.077q-.63.65-.63 1.485q0 .823.507 1.304q.508.48 1.354.48m-.132.893q-1.233 0-1.981-.736q-.748-.735-.748-1.943q0-1.146.806-1.952q.805-.806 2.457-1.344q.46-.15 1.138-.294q.678-.144 1.593-.321v-.25q-.012-1.406-.521-2.117q-.51-.71-1.714-.71q-.688 0-1.364.237q-.676.238-1.426.742l-.435-.766q.768-.529 1.62-.82q.853-.291 1.715-.291q1.583 0 2.354.994q.771.994.771 2.806v6.54h-.848l-.112-1.298q-.757.721-1.624 1.122q-.866.401-1.681.401"/></svg>