<svg xmlns="http://www.w3.org/2000/svg" width="1em" height="1em" viewBox="0 0 24 24"><path fill="currentColor" d="M8.25 12.473h1.785v-2.3H8.25zm-4.604 4.739h-.784q-.137 0-.236-.081q-.1-.081-.15-.218q-.066-.198.06-.349q.127-.15.331-.15h.573q.125 0 .219-.107t.093-.232v-2.89l-.942.346q-.148.056-.294-.028q-.145-.084-.195-.257q-.03-.148.043-.271q.074-.123.223-.173l1.165-.402v-2.25h-.837q-.167 0-.278-.112q-.112-.111-.112-.278q0-.168.112-.28q.111-.11.278-.11h.837V7.445q0-.167.114-.282t.282-.114q.167 0 .282.114t.114.282V9.37h.523q.168 0 .28.112q.11.111.11.279q0 .167-.11.278q-.112.112-.28.112h-.529v1.983l.637-.221q.167-.056.31.04q.142.096.153.288q.006.123-.055.209q-.062.086-.18.136l-.865.327v3.317q0 .392-.252.687t-.64.296m4.562-3.947q-.089 1.189-.634 2.198q-.545 1.01-1.459 1.716q-.142.117-.315.098q-.173-.02-.29-.162q-.112-.136-.062-.29q.05-.156.187-.267q.777-.614 1.237-1.462t.543-1.83h-1.38q-.168 0-.282-.118t-.115-.285q0-.167.118-.281q.117-.115.284-.115h1.418v-2.294H6.435q-.162 0-.273-.114q-.112-.115-.112-.276q0-.162.112-.273q.111-.112.273-.112h5.217q.167 0 .282.115t.114.281q0 .168-.114.282q-.115.114-.282.114h-.837v2.306h1.225q.162 0 .276.115t.109.276q-.006.161-.114.27t-.27.108h-1.226v3.556q0 .167-.114.282q-.114.114-.282.114q-.167 0-.281-.114q-.115-.115-.115-.282v-3.556zm1.944-3.819q-.142-.05-.185-.167q-.042-.117.039-.26q.188-.292.35-.594q.163-.302.307-.613q.062-.149.22-.21q.157-.062.305-.006q.149.056.21.185q.062.129-.006.277q-.169.325-.348.625t-.373.586q-.08.123-.229.175t-.29.002m-2.5-.386q-.15-.287-.3-.568q-.15-.28-.325-.561q-.087-.143-.043-.272t.185-.192q.143-.061.303-.005q.16.055.247.198q.175.28.325.561q.15.28.3.567q.062.143.013.266q-.05.123-.192.184q-.142.062-.297.013q-.155-.05-.216-.191m9.34 7.398q.796 0 1.613-.421q.816-.422 1.52-1.175V11.52q-.69.114-1.264.262q-.574.148-1.173.33q-1.298.427-1.927 1.077q-.63.65-.63 1.485q0 .823.507 1.304q.508.48 1.354.48m-.132.893q-1.233 0-1.981-.736q-.748-.735-.748-1.943q0-1.146.806-1.952q.805-.806 2.457-1.344q.46-.15 1.138-.294q.678-.144 1.593-.321v-.25q-.012-1.406-.521-2.117q-.51-.71-1.714-.71q-.602 0-1.188.179q-.587.178-1.204.548q-.165.098-.346.07t-.279-.192q-.098-.165-.027-.358t.237-.292q.698-.405 1.441-.63q.743-.223 1.476-.223q1.583 0 2.354.994q.771.994.771 2.806v6.119q0 .177-.122.299t-.3.122h-.047q-.171 0-.29-.107q-.12-.106-.131-.272l-.07-.92q-.757.722-1.624 1.123q-.866.401-1.681.401"/></svg>