<svg xmlns="http://www.w3.org/2000/svg" width="1em" height="1em" viewBox="0 0 24 24"><path fill="currentColor" d="M5.5 16.5q-.213 0-.357-.144Q5 16.213 5 16V8.308q0-.344.232-.576q.232-.232.576-.232H10.5q.213 0 .356.144Q11 7.788 11 8t-.144.356q-.143.143-.356.143H6v3h3.5q.213 0 .356.144q.144.144.144.357t-.144.356q-.143.143-.356.143H6V16q0 .213-.144.356t-.357.144m8 0q-.212 0-.356-.144Q13 16.213 13 16V8.308q0-.344.232-.576q.232-.232.576-.232h3.577q.666 0 1.14.475q.475.474.475 1.14v1.962q0 .664-.463 1.131q-.464.467-1.118.484h-.461l1.686 3.112q.13.244-.018.47q-.146.226-.414.226q-.14 0-.253-.071q-.112-.072-.174-.19l-1.933-3.547H14V16q0 .213-.144.356q-.144.144-.357.144M14 11.692h3.385q.269 0 .442-.173t.173-.442V9.115q0-.269-.173-.442t-.442-.173H14z"/></svg>