<svg xmlns="http://www.w3.org/2000/svg" width="1em" height="1em" viewBox="0 0 24 24"><path fill="currentColor" d="M16.992 16.458q.796 0 1.613-.421q.816-.422 1.52-1.175v-3.343q-.69.114-1.264.262q-.574.148-1.173.33q-1.298.427-1.927 1.077q-.63.65-.63 1.485q0 .823.507 1.304q.508.48 1.354.48m-.132.893q-1.233 0-1.981-.736q-.748-.735-.748-1.943q0-1.146.806-1.952q.805-.806 2.457-1.344q.46-.15 1.138-.294q.678-.144 1.593-.321v-.25q-.012-1.406-.521-2.117q-.51-.71-1.714-.71q-.688 0-1.364.237q-.676.238-1.426.742l-.435-.766q.768-.529 1.62-.82q.853-.291 1.715-.291q1.583 0 2.354.994q.771.994.771 2.806v6.54h-.848l-.112-1.298q-.757.721-1.624 1.122q-.866.401-1.681.401m-10.993-.954h4.418V12.14H6.762q-.2 1.083-.413 2.14q-.212 1.058-.482 2.116m-3.915.816v-.816h2.975q.27-1.096.5-2.144q.233-1.048.433-2.112H3.277v-.827h2.73q.145-.746.277-1.498T6.54 8.28H2.802v-.816h9.523v.816H7.487q-.145.765-.28 1.517q-.134.752-.278 1.517H11.1v5.083h2.2v.816z"/></svg>