<svg xmlns="http://www.w3.org/2000/svg" width="1em" height="1em" viewBox="0 0 24 24"><path fill="currentColor" d="M14.615 16.5q-.69 0-1.152-.462Q13 15.575 13 14.885V14.5h1v.385q0 .269.173.442t.442.173h2.77q.269 0 .442-.173t.173-.442v-1.77q0-.269-.173-.442t-.442-.173h-2.77q-.69 0-1.152-.462Q13 11.575 13 10.885v-1.77q0-.69.463-1.152q.462-.463 1.152-.463h2.77q.69 0 1.152.463q.463.462.463 1.152V9.5h-1v-.385q0-.269-.173-.442t-.442-.173h-2.77q-.269 0-.442.173T14 9.115v1.77q0 .269.173.442t.442.173h2.77q.69 0 1.152.463q.463.462.463 1.152v1.77q0 .69-.462 1.153q-.463.462-1.153.462zM5 7.5h6v1H6v3h4v1H6v3h5v1H5z"/></svg>