<svg xmlns="http://www.w3.org/2000/svg" width="1em" height="1em" viewBox="0 0 24 24"><path fill="currentColor" d="M4.323 12q-.258.258-.503.485l-.522.484q-.142.137-.318.121q-.176-.015-.293-.157q-.137-.143-.087-.325q.05-.183.192-.32q.737-.605 1.393-1.318q.655-.712 1.23-1.537q.112-.148.285-.232q.173-.084.346-.022q.142.056.189.204q.046.148-.04.29q-.257.387-.519.74q-.263.352-.538.672v5.788q0 .173-.117.29q-.117.118-.29.118t-.29-.118q-.118-.117-.118-.29zm5.579 5.28l-.67-.03q-.153-.006-.31-.133t-.22-.275q-.062-.148.032-.262t.247-.115h1.34q.183 0 .274-.09q.092-.092.092-.275v-4.804H7.054q-.148 0-.253-.114q-.105-.115-.105-.263t.105-.253q.105-.104.253-.104h5.888q.148 0 .263.114t.114.262q0 .149-.114.266q-.115.117-.263.117h-1.44v4.852q0 .252-.042.48q-.043.228-.248.378q-.22.182-.593.216t-.717.034M5.688 7.356Q5.24 7.929 4.654 8.5q-.587.571-1.292 1.127q-.143.136-.338.121q-.195-.015-.307-.158q-.111-.142-.058-.325q.053-.182.195-.313q.592-.462 1.102-.937q.51-.475.934-.975q.137-.142.323-.191q.185-.049.358.013q.148.061.189.206q.04.145-.072.288m6.918.796H7.56q-.148 0-.253-.114q-.105-.115-.105-.263t.105-.253q.105-.105.253-.105h5.065q.148 0 .265.115q.118.114.093.268q-.025.148-.127.25t-.25.102m4.386 8.306q.796 0 1.613-.421q.816-.422 1.52-1.175v-3.343q-.69.114-1.264.262q-.574.148-1.173.33q-1.298.427-1.927 1.077q-.63.65-.63 1.485q0 .823.507 1.304q.508.48 1.354.48m-.132.893q-1.233 0-1.981-.736q-.748-.735-.748-1.943q0-1.146.806-1.952q.805-.806 2.457-1.344q.46-.15 1.138-.294q.678-.144 1.593-.321v-.25q-.012-1.406-.521-2.117q-.51-.71-1.714-.71q-.602 0-1.188.179q-.587.178-1.204.548q-.165.098-.346.07t-.279-.192q-.098-.165-.027-.358t.237-.292q.698-.405 1.441-.63q.743-.223 1.476-.223q1.583 0 2.354.994q.771.994.771 2.806v6.119q0 .177-.122.299t-.3.122h-.047q-.171 0-.29-.107q-.12-.106-.131-.272l-.07-.92q-.757.722-1.624 1.123q-.866.401-1.681.401"/></svg>