<svg xmlns="http://www.w3.org/2000/svg" width="1em" height="1em" viewBox="0 0 24 24"><path fill="currentColor" d="M5.4 12.787q.727 0 1.266-.326t.54-.978q0-.652-.54-.99q-.54-.34-1.266-.34t-1.257.34q-.53.34-.53.99t.53.978q.53.326 1.257.326M2.771 8.723q-.162 0-.279-.118q-.117-.118-.117-.282t.117-.278q.117-.114.28-.114h2.184V6.796q0-.177.121-.298t.299-.121q.178 0 .298.12q.12.122.12.3V7.93h2.21q.162 0 .279.118q.117.118.117.282q0 .163-.117.278q-.117.114-.28.114zm2.62 4.856q-1.07 0-1.84-.547q-.77-.548-.77-1.55q0-1.003.77-1.559T5.4 9.367q1.085 0 1.864.556t.78 1.56q0 1.004-.78 1.55t-1.872.546m-.394 3.679q-.343 0-.575-.233q-.233-.232-.233-.575v-1.754q0-.177.128-.298q.127-.121.301-.121t.295.12q.12.122.12.3v1.768h5.435q.162 0 .28.119q.116.118.116.281q0 .164-.117.278q-.117.115-.279.115zm5.351-2.606q-.178 0-.298-.121t-.12-.298V7.27q0-.16.13-.277t.289-.117q.16 0 .277.117t.117.277v3.01h1.56q.162 0 .279.118q.117.118.117.282q0 .163-.117.278q-.117.114-.28.114H10.77v3.16q0 .177-.121.298q-.121.12-.299.12m6.648 1.807q.791 0 1.608-.421q.816-.422 1.52-1.178v-3.34q-.682.112-1.26.26q-.578.15-1.177.333q-1.298.426-1.927 1.076q-.63.65-.63 1.485q0 .829.509 1.307t1.357.478m-.141.892q-1.23 0-1.977-.736q-.748-.735-.748-1.943q0-1.146.806-1.952q.805-.806 2.457-1.344q.46-.15 1.138-.294q.678-.144 1.593-.321v-.25q-.012-1.406-.521-2.117q-.51-.71-1.714-.71q-.602 0-1.188.179q-.587.178-1.204.548q-.165.098-.346.07t-.279-.192q-.098-.165-.027-.358t.237-.292q.698-.405 1.441-.63q.743-.223 1.476-.223q1.583 0 2.354.994q.771.994.771 2.806v6.119q0 .179-.12.3q-.119.121-.294.121h-.063q-.163 0-.283-.107q-.119-.106-.13-.272l-.07-.92q-.757.722-1.624 1.123q-.866.401-1.685.401"/></svg>