<svg xmlns="http://www.w3.org/2000/svg" width="1em" height="1em" viewBox="0 0 24 24"><path fill="currentColor" d="M8.815 17.787q-.234.061-.456.015t-.29-.256q-.067-.16.05-.288q.118-.13.283-.18q1.594-.343 2.546-1.267q.952-.924.952-2.163q0-.846-.609-1.529q-.608-.682-1.626-.996q-.632 1.502-1.439 2.665q-.807 1.164-1.776 2.008l.213.685q.056.16-.03.32q-.087.16-.266.216q-.179.056-.32-.028q-.141-.083-.197-.262l-.121-.42q-.785.447-1.37.644q-.584.197-1.134.197q-.665 0-1.108-.486q-.442-.487-.442-1.189q0-1.344.942-2.538q.943-1.195 2.614-1.983q.025-.571.069-1.13q.044-.559.094-1.13q-.67.025-1.338.01q-.668-.015-1.381-.065q-.204-.025-.34-.149q-.135-.123-.135-.301q0-.16.133-.277q.132-.118.311-.087q.577.05 1.263.085q.685.034 1.599.015q.044-.333.079-.637q.034-.305.06-.638q.024-.21.153-.355t.333-.145q.179 0 .28.16t.052.34q-.069.327-.116.635l-.097.634q1.36-.069 2.458-.181q1.098-.113 2.067-.313q.179-.03.327.059t.148.249q0 .204-.145.336q-.145.133-.35.164q-1.105.175-2.24.287q-1.136.113-2.332.163q-.07.504-.101.994q-.032.49-.082.994q.854-.238 1.632-.342q.778-.104 1.485-.054l.133-.542q.05-.16.173-.256t.283-.046q.19.056.285.228q.096.172.028.356l-.127.408q1.314.37 2.086 1.262q.772.892.772 1.99q0 1.44-1.062 2.546t-2.873 1.568m8.045-.437q-1.233 0-1.981-.736q-.748-.735-.748-1.943q0-1.146.806-1.952q.805-.806 2.457-1.344q.46-.15 1.138-.294q.678-.144 1.593-.321v-.25q-.012-1.406-.521-2.117q-.51-.71-1.714-.71q-.602 0-1.188.179q-.587.178-1.204.548q-.165.098-.346.07t-.279-.192q-.098-.165-.027-.358t.237-.292q.698-.405 1.441-.63q.743-.223 1.476-.223q1.583 0 2.354.994q.771.994.771 2.806v6.119q0 .177-.122.299t-.3.122h-.047q-.171 0-.29-.107q-.12-.106-.131-.272l-.07-.92q-.757.722-1.624 1.123q-.866.401-1.681.401M3.45 16.298q.483 0 .98-.204q.499-.204 1.114-.63q-.194-.95-.269-1.87q-.075-.919-.075-1.85q-1.315.831-1.988 1.725q-.674.894-.674 1.823q0 .421.261.714q.26.292.651.292m2.815-1.356q.88-.854 1.542-1.84q.662-.985 1.108-2.121q-.69-.039-1.431.09t-1.496.387q-.05.746.023 1.59q.072.844.254 1.894m10.727 1.516q.796 0 1.613-.421q.816-.422 1.52-1.175v-3.343q-.69.114-1.264.262q-.574.148-1.173.33q-1.298.427-1.927 1.077q-.63.65-.63 1.485q0 .823.507 1.304q.508.48 1.354.48"/></svg>