<svg xmlns="http://www.w3.org/2000/svg" width="1em" height="1em" viewBox="0 0 24 24"><path fill="currentColor" d="M8.25 12.473h1.785v-2.3H8.25zm-5.687 4.739l-.232-.799h1.11q.124 0 .218-.106t.093-.232v-2.89l-1.339.482l-.16-.754l1.499-.513v-2.25H2.525v-.78h1.227V7.05h.792v2.32h.914v.78h-.92v1.983l1.077-.383l.035.742l-1.112.42v3.317q0 .392-.252.687t-.64.296zm3.187.226l-.475-.626q.913-.614 1.486-1.533q.572-.92.654-2.014H5.638v-.798h1.82v-2.294H6.05v-.775h5.998v.792h-1.233v2.306h1.616l-.012.77h-1.604v3.951h-.792v-3.952H8.208q-.089 1.281-.736 2.374q-.647 1.094-1.722 1.8m4.729-7.868l-.66-.25l.54-.911q.266-.447.466-.937l.721.246q-.211.498-.499.945q-.287.448-.568.907m-2.66-.184q-.23-.46-.467-.904q-.237-.445-.529-.868l.692-.27q.273.422.52.867q.246.444.477.903zm9.173 7.07q.796 0 1.613-.42q.816-.422 1.52-1.175v-3.343q-.69.114-1.264.262q-.574.148-1.173.33q-1.298.427-1.927 1.077q-.63.65-.63 1.485q0 .823.507 1.304q.508.48 1.354.48m-.132.893q-1.233 0-1.981-.736q-.748-.735-.748-1.943q0-1.146.806-1.952q.805-.806 2.457-1.344q.46-.15 1.138-.294q.678-.144 1.593-.321v-.25q-.012-1.406-.521-2.117q-.51-.71-1.714-.71q-.688 0-1.364.237q-.676.238-1.426.742l-.435-.766q.768-.529 1.62-.82q.853-.291 1.715-.291q1.583 0 2.354.994q.771.994.771 2.806v6.54h-.848l-.112-1.298q-.757.721-1.624 1.122q-.866.401-1.681.401"/></svg>