<svg xmlns="http://www.w3.org/2000/svg" width="1em" height="1em" viewBox="0 0 24 24"><path fill="currentColor" d="M14 15.5h4.288q.27 0 .443-.173t.173-.442v-1.77q0-.269-.173-.442t-.443-.173H14zm0-4h4.288q.27 0 .443-.173t.173-.442v-1.77q0-.269-.173-.442t-.443-.173H14zm-8.288 5q-.672 0-1.144-.472q-.472-.472-.472-1.143v-5.77q0-.67.472-1.143Q5.04 7.5 5.712 7.5h4.653q.214 0 .357.143q.143.144.143.357t-.143.357q-.143.143-.357.143H5.712q-.27 0-.443.173t-.173.442v5.77q0 .269.173.442t.443.173h3.673q.269 0 .442-.173t.173-.442V12.5H8.308q-.214 0-.357-.143q-.143-.144-.143-.357t.143-.357q.143-.143.357-.143h1.884q.348 0 .578.23q.23.23.23.578v2.577q0 .67-.472 1.143q-.472.472-1.143.472zm8.096 0q-.348 0-.578-.23q-.23-.23-.23-.578V8.308q0-.348.23-.578q.23-.23.578-.23h4.48q.672 0 1.144.472q.472.472.472 1.143v1.654q0 .414-.226.745q-.226.332-.601.486q.375.154.6.486q.227.331.227.745v1.654q0 .67-.472 1.143q-.472.472-1.144.472z"/></svg>