<svg xmlns="http://www.w3.org/2000/svg" width="1em" height="1em" viewBox="0 0 24 24"><path fill="currentColor" d="M2.15 16.955q-.087-.155-.048-.331q.038-.176.21-.282q.388-.25.742-.541q.354-.291.704-.588V12.11H2.46q-.162 0-.28-.119q-.117-.118-.117-.281q0-.164.118-.278q.117-.115.279-.115h1.698q.161 0 .282.121q.122.122.122.283v3.4q.538.664 1.326.998q.789.335 1.647.335q1.211 0 2.427-.006q1.215-.006 2.426-.075q.2-.025.29.1q.09.123.034.315q-.056.193-.226.332t-.363.14q-1.15.044-2.294.01q-1.144-.035-2.294-.035q-.95 0-1.85-.354t-1.55-1.054q-.339.338-.683.652q-.343.313-.714.6q-.142.117-.322.083t-.266-.207m9.562-1.582q-.708-.361-1.38-.842q-.672-.481-1.23-1.094l.135 2.132q.019.168-.115.292q-.134.124-.3.124q-.168 0-.276-.108t-.127-.275l-.134-2.229q-.527.658-1.083 1.136q-.556.478-1.22.903q-.148.086-.325.061t-.294-.167q-.117-.143-.086-.276q.03-.134.173-.201q.738-.356 1.32-.856q.58-.5 1.118-1.183h-1.85q-.161 0-.282-.12t-.121-.283v-2.11q0-.162.12-.283t.283-.12H8.31v-.962H5.52q-.155 0-.27-.115q-.115-.114-.115-.276q0-.161.114-.273t.276-.111H8.31V7.37q0-.162.118-.279q.118-.117.281-.117q.164 0 .279.117q.114.117.114.28v.765h3.015q.154 0 .27.115q.115.115.115.27q0 .16-.115.275q-.116.115-.27.115H9.102v.961h2.421q.162 0 .283.121t.12.283v2.085q0 .161-.12.282t-.283.121H9.48q.563.658 1.291 1.148q.728.49 1.505.84q.167.068.192.202t-.105.276q-.149.142-.328.176q-.18.033-.322-.034m-5.28-3.365h1.853v-1.371H6.433zm2.645 0h2.058v-1.371H9.077zm-5.109-3.02q-.3-.381-.65-.698q-.35-.318-.75-.597q-.149-.088-.158-.23q-.01-.14.121-.252q.149-.112.312-.122q.164-.01.3.097q.38.304.723.621q.342.318.696.673q.137.136.127.287q-.01.151-.152.263q-.142.111-.3.106q-.157-.006-.269-.148m13.028 7.47q.791 0 1.608-.42q.816-.422 1.52-1.178v-3.34q-.682.112-1.26.26q-.578.15-1.177.333q-1.298.426-1.927 1.076q-.63.65-.63 1.485q0 .829.509 1.307t1.357.478m-.141.892q-1.23 0-1.977-.736q-.748-.735-.748-1.943q0-1.146.806-1.952q.805-.806 2.457-1.344q.46-.15 1.138-.294q.678-.144 1.593-.321v-.25q-.012-1.406-.521-2.117q-.51-.71-1.714-.71q-.602 0-1.188.179q-.587.178-1.204.548q-.165.098-.339.058q-.173-.04-.267-.199q-.098-.165-.04-.35q.058-.185.23-.28q.699-.406 1.442-.63q.743-.224 1.476-.224q1.583 0 2.354.994q.771.994.771 2.806v6.119q0 .179-.12.3q-.119.121-.294.121h-.063q-.163 0-.283-.107q-.119-.106-.13-.272l-.07-.92q-.757.722-1.624 1.123q-.866.401-1.685.401"/></svg>