<svg xmlns="http://www.w3.org/2000/svg" width="1em" height="1em" viewBox="0 0 24 24"><path fill="currentColor" d="M6 15.5h3.442q.27 0 .443-.173t.173-.442v-5.77q0-.269-.173-.442T9.442 8.5H6zm-.192 1q-.348 0-.578-.23q-.23-.23-.23-.578V8.308q0-.348.23-.578q.23-.23.578-.23h3.634q.671 0 1.144.472q.472.472.472 1.143v5.77q0 .67-.472 1.143q-.473.472-1.144.472zm10.357 0q-.165 0-.31-.11q-.143-.111-.205-.27l-2.725-7.985q-.073-.239.058-.437q.13-.198.38-.198q.166 0 .281.091q.116.092.177.232l2.535 7.32l2.534-7.32q.062-.14.177-.232q.116-.091.281-.091q.25 0 .38.195q.132.195.059.44l-2.725 8.003q-.062.16-.206.261t-.31.101z"/></svg>