<svg xmlns="http://www.w3.org/2000/svg" width="1em" height="1em" viewBox="0 0 24 24"><path fill="currentColor" d="M5.121 13.408q-.188-.146-.195-.384q-.007-.237.182-.403q.14-.104.311-.104t.312.104l5.884 4.552q.173.135.385.135q.212 0 .385-.135l5.884-4.552q.14-.104.312-.104t.311.104q.189.166.182.403q-.007.238-.195.384l-5.885 4.557q-.454.348-.994.348t-.994-.348zm5.885.738l-4.75-3.686q-.621-.485-.621-1.268q0-.782.62-1.267l4.75-3.687q.455-.348.995-.348t.994.348l4.75 3.687q.621.485.621 1.267q0 .783-.62 1.268l-4.75 3.686q-.455.348-.995.348t-.994-.348m1.379-.792l4.73-3.68q.25-.193.25-.482q0-.288-.25-.48l-4.73-3.681q-.173-.135-.385-.135q-.212 0-.385.135l-4.73 3.68q-.25.193-.25.481q0 .289.25.481l4.73 3.68q.173.135.385.135q.212 0 .385-.134M12 9.192"/></svg>