<svg xmlns="http://www.w3.org/2000/svg" width="1em" height="1em" viewBox="0 0 24 24"><path fill="currentColor" d="M12.404 9.796v4.406q0 .275.252.38t.449-.09l1.932-1.932q.236-.237.236-.56q0-.323-.242-.565l-1.927-1.927q-.196-.196-.448-.095q-.252.1-.252.383M5.615 20q-.666 0-1.14-.475Q4 19.051 4 18.385V5.615q0-.666.475-1.14Q4.949 4 5.615 4h12.77q.666 0 1.14.475q.475.474.475 1.14v12.77q0 .666-.475 1.14q-.474.475-1.14.475zM9 19h9.385q.23 0 .423-.192q.192-.193.192-.423V5.615q0-.23-.192-.423Q18.615 5 18.385 5H9z"/></svg>