<svg xmlns="http://www.w3.org/2000/svg" width="1em" height="1em" viewBox="0 0 24 24"><path fill="currentColor" d="M5 17.27h14q.213 0 .356.143t.144.357q0 .213-.144.356t-.356.143H5q-.213 0-.356-.144q-.144-.144-.144-.356q0-.213.144-.356q.143-.144.356-.144M5 13.5h14q.213 0 .356.144q.144.144.144.357t-.144.356q-.143.143-.356.143H5q-.213 0-.356-.144Q4.5 14.212 4.5 14t.144-.356Q4.788 13.5 5 13.5m-.256-4.477l4.323-2.636q.404-.268.889-.248q.484.02.888.303l3.79 2.704q.154.116.366.116t.365-.116l3.348-2.386q.25-.177.519-.041q.268.136.268.46q0 .13-.055.23t-.158.168l-3.349 2.367q-.428.298-.938.298t-.938-.298l-3.79-2.679q-.155-.096-.337-.105q-.183-.01-.337.086L5.256 9.883q-.25.165-.503.017q-.253-.148-.253-.444q0-.136.064-.254q.065-.117.18-.179"/></svg>