<svg xmlns="http://www.w3.org/2000/svg" width="1em" height="1em" viewBox="0 0 24 24"><path fill="currentColor" d="M10.5 13.5h2.48q.214 0 .357-.143q.144-.144.144-.357t-.144-.357q-.143-.143-.356-.143H10.5q-.213 0-.357.143Q10 12.787 10 13t.143.357q.144.143.357.143m0-3h5.962q.213 0 .356-.143q.144-.144.144-.357t-.144-.357q-.143-.143-.356-.143H10.5q-.213 0-.357.143Q10 9.787 10 10t.143.357q.144.143.357.143m0-3h5.962q.213 0 .356-.143q.144-.144.144-.357t-.144-.357q-.143-.143-.356-.143H10.5q-.213 0-.357.143Q10 6.787 10 7t.143.357q.144.143.357.143M8.115 17q-.69 0-1.152-.462q-.463-.463-.463-1.153V4.615q0-.69.463-1.152Q7.425 3 8.115 3h10.77q.69 0 1.152.463q.463.462.463 1.152v10.77q0 .69-.462 1.153q-.463.462-1.153.462zm0-1h10.77q.23 0 .423-.192q.192-.193.192-.423V4.615q0-.23-.192-.423Q19.115 4 18.885 4H8.115q-.23 0-.423.192q-.192.193-.192.423v10.77q0 .23.192.423q.193.192.423.192m-3 4q-.69 0-1.152-.462q-.463-.463-.463-1.153V7.115q0-.213.143-.356q.144-.144.357-.144t.357.144t.143.356v11.27q0 .23.192.423q.193.192.423.192h11.27q.213 0 .356.143t.144.357q0 .213-.144.357q-.143.143-.356.143zM7.5 4v12z"/></svg>