<svg xmlns="http://www.w3.org/2000/svg" width="1em" height="1em" viewBox="0 0 24 24"><path fill="currentColor" d="m12.2 11.892l-1.796-1.79q-.14-.14-.341-.15q-.201-.01-.367.156q-.16.16-.16.354q0 .194.16.353l1.939 1.939q.242.242.565.242q.323 0 .565-.242l4.039-4.039q.146-.146.153-.344q.006-.198-.153-.363q-.166-.166-.357-.169q-.191-.002-.357.163zM8.115 17q-.69 0-1.152-.462q-.463-.463-.463-1.153V4.615q0-.69.463-1.152Q7.425 3 8.115 3h10.77q.69 0 1.152.463q.463.462.463 1.152v10.77q0 .69-.462 1.153q-.463.462-1.153.462zm-3 3q-.69 0-1.152-.462q-.463-.463-.463-1.153V7.115q0-.213.143-.356q.144-.144.357-.144t.357.144t.143.356v11.27q0 .23.192.423q.193.192.423.192h11.27q.213 0 .356.143t.144.357q0 .213-.144.357q-.143.143-.356.143z"/></svg>