<svg xmlns="http://www.w3.org/2000/svg" width="1em" height="1em" viewBox="0 0 24 24"><path fill="currentColor" d="M10.5 13.5h2.48q.213 0 .357-.144t.144-.357t-.144-.356q-.144-.143-.356-.143H10.5q-.213 0-.356.144Q10 12.788 10 13t.144.356q.144.143.356.143m0-3h5.962q.212 0 .356-.144t.144-.357t-.144-.356q-.144-.143-.356-.143H10.5q-.213 0-.356.144Q10 9.788 10 10t.144.356q.144.143.356.143m0-3h5.962q.212 0 .356-.144t.144-.357t-.144-.356q-.144-.143-.356-.143H10.5q-.213 0-.356.144Q10 6.787 10 7t.144.356q.144.143.356.143M8.115 17q-.69 0-1.152-.462q-.463-.463-.463-1.153V4.615q0-.69.463-1.152Q7.425 3 8.115 3h10.77q.69 0 1.152.463q.463.462.463 1.152v10.77q0 .69-.462 1.153q-.463.462-1.153.462zm-3 3q-.69 0-1.152-.462q-.463-.463-.463-1.153V7.115q0-.212.144-.356T4 6.615q.212 0 .356.144q.143.144.143.356v11.27q0 .23.192.423q.193.192.423.192h11.27q.212 0 .356.144t.144.357q0 .212-.144.356q-.144.143-.356.143z"/></svg>