<svg xmlns="http://www.w3.org/2000/svg" width="1em" height="1em" viewBox="0 0 24 24"><path fill="currentColor" d="M12 21.154q-.69 0-1.201-.463q-.51-.462-.607-1.153h3.616q-.096.69-.607 1.153q-.51.463-1.201.463m4.604-7.092L7.427 4.858q.986-.912 2.116-1.385Q10.673 3 12 3q2.721 0 4.61 1.89T18.5 9.5q0 1.506-.538 2.605q-.539 1.099-1.358 1.957m-3.3.938H8.558q-1.418-.929-2.238-2.356Q5.5 11.217 5.5 9.5q0-.52.091-1.08q.092-.562.236-.897L3.023 4.708q-.14-.14-.153-.342q-.012-.2.153-.366q.16-.16.354-.16q.194 0 .354.16l16.077 16.077q.146.146.155.344q.01.198-.155.364q-.166.165-.357.165q-.191 0-.357-.165zM9 17.77q-.213 0-.357-.144q-.143-.143-.143-.357q0-.213.143-.356q.144-.144.357-.144h6.035q.213 0 .356.144t.144.356q0 .214-.144.357t-.356.143z"/></svg>