<svg xmlns="http://www.w3.org/2000/svg" width="1em" height="1em" viewBox="0 0 24 24"><path fill="currentColor" d="M12.003 21q-1.866 0-3.51-.708q-1.643-.709-2.859-1.924q-1.216-1.214-1.925-2.856Q3 13.87 3 12.003q0-1.866.708-3.51q.709-1.643 1.924-2.859q1.214-1.216 2.856-1.925Q10.13 3 11.997 3q1.866 0 3.51.708q1.643.709 2.859 1.924q1.216 1.214 1.925 2.856Q21 10.13 21 11.997q0 1.866-.708 3.51q-.709 1.643-1.924 2.859q-1.214 1.216-2.856 1.925Q13.87 21 12.003 21M12 18.462q.413 0 .726-.246t.409-.64h-2.27q.097.395.409.64q.313.246.726.246m-2.692-2.27h5.384v-.884H9.308zm-.187-2.269h5.758q.828-.628 1.32-1.593q.493-.965.493-2.1q0-1.947-1.372-3.32Q13.947 5.539 12 5.539T8.68 6.911q-1.372 1.372-1.372 3.32q0 1.134.492 2.1q.493.964 1.321 1.592m.339-.885q-.59-.57-.929-1.297q-.339-.728-.339-1.515q0-1.576 1.115-2.69Q10.423 6.424 12 6.424t2.693 1.114q1.115 1.113 1.115 2.689q0 .787-.34 1.515q-.338.727-.928 1.297z"/></svg>