<svg xmlns="http://www.w3.org/2000/svg" width="1em" height="1em" viewBox="0 0 24 24"><path fill="currentColor" d="M11.998 21.77q-2.927 0-4.847-.76q-1.92-.759-1.92-2.51t1.922-2.51q1.923-.76 4.85-.76q2.926 0 4.846.76q1.92.759 1.92 2.51t-1.922 2.51q-1.923.76-4.85.76m.002-2q-2.621 0-4.146-.564t-1.6-1.552q-.146.163-.2.404Q6 18.298 6 18.5q0 1.125 1.638 1.813T12 21q2.725 0 4.363-.687T18 18.5q0-.202-.054-.442t-.2-.404q-.075.988-1.6 1.552q-1.525.563-4.146.563M12 19q2.2 0 3.6-.425T17 17.5q0-.65-1.4-1.075T12 16q-2.2 0-3.6.425T7 17.5q0 .65 1.4 1.075T12 19m-.846-9.23h-.995q-.238 0-.359-.193q-.121-.192.008-.407l2.66-4.653q.08-.136.23-.105q.148.03.148.201v3.464h.995q.238 0 .359.192t-.008.407l-2.66 4.653q-.08.136-.23.106q-.148-.031-.148-.202zm.808 10"/></svg>