<svg xmlns="http://www.w3.org/2000/svg" width="1em" height="1em" viewBox="0 0 24 24"><path fill="currentColor" d="m3.135 17.135l5.305-5.306q.46-.46 1.137-.46t1.136.46l2.402 2.402q.193.192.462.182q.27-.01.442-.22l1.925-2.228l-5.888-5.444q-.193-.173-.443-.163q-.25.01-.423.182l-5.325 5.325q-.152.152-.355.162q-.204.01-.375-.162q-.172-.17-.172-.365t.172-.365l5.342-5.343q.46-.46 1.103-.481q.643-.023 1.128.431l5.93 5.456l3.589-4.135q.14-.17.337-.17t.363.145q.14.14.153.326t-.128.351l-3.575 4.154l3.496 3.227q.177.146.187.356q.01.21-.162.38q-.146.147-.35.156q-.204.01-.375-.13l-3.485-3.216l-1.942 2.239q-.46.534-1.156.562q-.696.028-1.205-.481l-2.366-2.366q-.173-.173-.442-.173t-.442.173l-5.27 5.27q-.152.151-.355.16q-.204.01-.375-.16q-.172-.172-.172-.366t.172-.365"/></svg>