<svg xmlns="http://www.w3.org/2000/svg" width="1em" height="1em" viewBox="0 0 24 24"><path fill="currentColor" d="M18.654 8.692q-1.262 0-2.192-.811q-.93-.812-1.106-2.035H8.619q-.16 1.089-.922 1.86q-.762.773-1.85.932v6.718q1.222.177 2.034 1.106q.811.93.811 2.192q0 1.4-.973 2.373T5.346 22q-1.4 0-2.373-.973T2 18.654q0-1.262.812-2.192q.811-.93 2.034-1.106V8.638q-1.223-.176-2.034-1.101Q2 6.612 2 5.347q0-1.4.977-2.374Q3.955 2 5.327 2q1.265 0 2.19.812q.925.811 1.102 2.034h6.737q.177-1.223 1.106-2.034Q17.392 2 18.654 2q1.38 0 2.363.983q.983.983.983 2.363q0 1.4-.983 2.373t-2.363.973M5.334 21.02q.991 0 1.675-.696q.683-.696.683-1.657q0-.991-.683-1.675q-.684-.683-1.675-.683q-.96 0-1.657.683q-.696.684-.696 1.675q0 .96.696 1.657q.696.696 1.657.696m0-13.307q.991 0 1.675-.696q.683-.695.683-1.672t-.683-1.66Q6.325 3 5.334 3q-.96 0-1.657.684q-.696.683-.696 1.66q0 .977.696 1.672q.696.696 1.657.696M18.654 22q-1.4 0-2.373-.973q-.973-.973-.973-2.36q0-1.385.973-2.372t2.373-.987q1.4 0 2.373.987T22 18.668q0 1.386-.973 2.359q-.973.973-2.373.973m.002-.98q.977 0 1.66-.697q.684-.696.684-1.657q0-.991-.684-1.675q-.683-.683-1.66-.683q-.977 0-1.672.683q-.696.684-.696 1.675q0 .96.696 1.657q.695.696 1.672.696m0-13.307q.977 0 1.66-.696Q21 6.321 21 5.344t-.684-1.66Q19.633 3 18.656 3q-.977 0-1.672.684q-.696.683-.696 1.66q0 .977.696 1.672q.695.696 1.672.696m-.002-2.366"/></svg>