<svg xmlns="http://www.w3.org/2000/svg" width="1em" height="1em" viewBox="0 0 24 24"><path fill="currentColor" d="M20.546 7.462q-.175 0-.31-.126q-.136-.126-.136-.3q0-1.726-1.214-2.94Q17.67 2.88 15.944 2.88q-.173 0-.299-.137t-.126-.315q0-.177.126-.3t.3-.123q2.087 0 3.559 1.471q1.471 1.471 1.471 3.56q0 .173-.127.299t-.302.126m-2.68 0q-.176 0-.302-.121t-.126-.299q0-.63-.435-1.065q-.435-.435-1.065-.435q-.177 0-.298-.13q-.12-.131-.12-.3q0-.174.125-.3q.126-.125.3-.125q.97 0 1.66.689t.69 1.66q0 .174-.128.3q-.127.126-.302.126M12 16.73q1.567 0 2.65-1.082q1.08-1.082 1.08-2.649t-1.08-2.65Q13.566 9.27 12 9.27t-2.65 1.08Q8.27 11.433 8.27 13t1.081 2.65q1.082 1.08 2.649 1.08m0-1q-1.165 0-1.948-.782T9.269 13q0-1.165.783-1.948T12 10.269q1.165 0 1.948.783T14.731 13q0 1.165-.783 1.948T12 15.731M4.615 20q-.69 0-1.152-.462Q3 19.075 3 18.385V7.615q0-.69.463-1.152Q3.925 6 4.615 6h2.958l1.365-1.485q.222-.238.533-.376Q9.783 4 10.125 4h3.913q.213 0 .357.144t.143.356v2q.806 0 1.384.576q.578.576.578 1.386h4q.213 0 .356.143t.144.357v9.423q0 .69-.462 1.152q-.463.463-1.153.463z"/></svg>