<svg xmlns="http://www.w3.org/2000/svg" width="1em" height="1em" viewBox="0 0 24 24"><path fill="currentColor" d="M7.077 16.077q-1.692 0-2.884-1.192Q3 13.693 3 12q0-1.691 1.193-2.885q1.192-1.193 2.884-1.193h3.038q.213 0 .357.144q.143.144.143.357t-.143.356q-.144.143-.357.143h-3.04q-1.267 0-2.171.904Q4 10.73 4 12t.904 2.173q.904.904 2.17.904h3.041q.213 0 .357.144q.143.144.143.357t-.143.356q-.144.143-.357.143zM9 12.5q-.213 0-.356-.144Q8.5 12.212 8.5 12t.144-.356Q8.787 11.5 9 11.5h6q.213 0 .356.144q.144.144.144.357t-.144.356q-.143.143-.356.143zm4.885 3.577q-.213 0-.357-.144q-.143-.144-.143-.357t.143-.356q.144-.143.357-.143h3.04q1.267 0 2.171-.904Q20 13.27 20 12t-.904-2.173q-.904-.904-2.17-.904h-3.041q-.213 0-.357-.144q-.143-.144-.143-.357t.143-.356q.144-.143.357-.143h3.038q1.692 0 2.885 1.192Q21 10.307 21 12q0 1.691-1.193 2.885q-1.192 1.193-2.884 1.193z"/></svg>