<svg xmlns="http://www.w3.org/2000/svg" width="1em" height="1em" viewBox="0 0 24 24"><path fill="currentColor" d="M20.15 7.462q0-1.931-1.34-3.272q-1.34-1.34-3.272-1.34V2q2.27 0 3.866 1.596T21 7.462zm-2.65 0q0-.806-.578-1.384q-.578-.578-1.384-.578v-.85q1.183 0 1.992.812q.808.811.82 2zM12 16.73q1.567 0 2.65-1.082q1.08-1.082 1.08-2.649t-1.08-2.65Q13.566 9.27 12 9.27t-2.65 1.08Q8.27 11.433 8.27 13t1.081 2.65q1.082 1.08 2.649 1.08m0-1q-1.165 0-1.948-.782T9.269 13q0-1.165.783-1.948T12 10.269q1.165 0 1.948.783T14.731 13q0 1.165-.783 1.948T12 15.731M4.615 20q-.69 0-1.152-.462Q3 19.075 3 18.385V7.615q0-.69.463-1.152Q3.925 6 4.615 6h2.958l1.85-2h5.115v2.5q.806 0 1.384.578q.578.578.578 1.384H21v9.923q0 .69-.462 1.152q-.463.463-1.153.463z"/></svg>