<svg xmlns="http://www.w3.org/2000/svg" width="1em" height="1em" viewBox="0 0 24 24"><path fill="currentColor" d="M4 21v-1h1.673v-3.488q-.798-.185-1.235-.755Q4 15.187 4 14.423V7.5h4.346v6.923q0 .725-.447 1.315q-.447.589-1.226.774V20h1.673v1zm1-9.058h2.346V8.5H5zM12.923 21q-.421 0-.71-.29q-.29-.289-.29-.71v-9.685q0-.323.202-.576q.202-.252.494-.362l.95-.37q.658-.24 1.025-.631q.368-.391.368-1.28V3.77q0-.329.22-.549q.22-.22.549-.22h1.461q.33 0 .55.22q.22.22.22.55v3.326q0 .889.376 1.28q.377.391 1.035.632l.97.369q.292.11.474.362q.183.253.183.576V20q0 .421-.29.71q-.289.29-.71.29zm3.039-15.904h1V4h-1zm-3.039 7.5H20v-2.28l-.97-.37q-.95-.35-1.509-.975q-.56-.625-.56-1.863V6.096h-1v1.012q0 1.238-.56 1.863t-1.509.975l-.969.37zm0 7.404H20v-2.692h-7.077z"/></svg>