<svg xmlns="http://www.w3.org/2000/svg" width="1em" height="1em" viewBox="0 0 24 24"><path fill="currentColor" d="M17.423 22.5v-3h-3v-1h3v-3h1v3h3v1h-3v3zm-9.306-5.962q.327 0 .547-.221q.22-.222.22-.55t-.22-.547q-.222-.22-.55-.22t-.548.222q-.22.221-.22.549q0 .327.222.547q.221.22.549.22m0-3.769q.327 0 .547-.221q.22-.222.22-.55t-.22-.547q-.222-.22-.55-.22t-.548.221q-.22.222-.22.55t.222.547q.221.22.549.22m0-3.769q.327 0 .547-.222q.22-.221.22-.549q0-.327-.22-.547q-.222-.22-.55-.22t-.548.221q-.22.222-.22.55t.222.547q.221.22.549.22m3.075 3.5h5.385v-1h-5.385zm0-3.77h5.385v-1h-5.385zM5.615 20q-.666 0-1.14-.475Q4 19.051 4 18.385V5.615q0-.666.475-1.14Q4.949 4 5.615 4h12.77q.666 0 1.14.475q.475.474.475 1.14v8.325q-.474-.207-1.01-.311q-.536-.104-1.067-.104q-1.193 0-2.229.464t-1.779 1.28h-2.723v1h2.004q-.367.61-.57 1.293q-.203.682-.203 1.438q0 .25.026.5t.088.5z"/></svg>