<svg xmlns="http://www.w3.org/2000/svg" width="1em" height="1em" viewBox="0 0 24 24"><path fill="currentColor" d="M5 19V5zm.615 1q-.69 0-1.152-.462Q4 19.075 4 18.385V5.615q0-.69.463-1.152Q4.925 4 5.615 4h12.77q.69 0 1.152.463q.463.462.463 1.152v7.718q0 .215-.144.355q-.144.139-.357.139q-.212 0-.356-.144Q19 13.54 19 13.327V5.615q0-.23-.192-.423Q18.615 5 18.385 5H5.615q-.23 0-.423.192Q5 5.385 5 5.615v12.77q0 .23.192.423q.193.192.423.192h6.193q.212 0 .356.144t.144.357q0 .212-.144.356q-.144.143-.356.143zm2.502-3.462q.327 0 .547-.221q.22-.222.22-.55t-.22-.547q-.222-.22-.55-.22t-.548.222q-.22.221-.22.549q0 .327.222.547q.221.22.549.22m0-3.769q.327 0 .547-.221q.22-.222.22-.55t-.22-.547q-.222-.22-.55-.22t-.548.221q-.22.222-.22.55t.222.547q.221.22.549.22m0-3.769q.327 0 .547-.222q.22-.221.22-.549q0-.327-.22-.547q-.222-.22-.55-.22t-.548.221q-.22.222-.22.55t.222.547q.221.22.549.22m7.96 3.5q.212 0 .356-.144t.144-.357t-.144-.356q-.144-.143-.356-.143h-4.385q-.212 0-.356.144t-.144.357t.144.356q.144.143.356.143zm0-3.77q.212 0 .356-.143t.144-.357q0-.213-.144-.356t-.356-.143h-4.385q-.212 0-.356.144t-.144.356q0 .213.144.357q.144.143.356.143zm-4.885 7.04q0 .213.144.356t.356.143h1.204q.213 0 .356-.144q.144-.144.144-.356q0-.213-.144-.357q-.143-.143-.356-.143h-1.204q-.212 0-.356.144t-.144.357m6.231 3.73h-2.5q-.212 0-.356-.144T14.423 19t.144-.356q.144-.143.356-.143h2.5V16q0-.213.144-.356t.357-.144q.213 0 .356.144t.143.356v2.5h2.5q.213 0 .356.144q.144.144.144.357t-.144.356q-.143.143-.356.143h-2.5V22q0 .213-.144.356q-.144.144-.357.144q-.212 0-.356-.144q-.143-.144-.143-.356z"/></svg>