<svg xmlns="http://www.w3.org/2000/svg" width="1em" height="1em" viewBox="0 0 24 24"><path fill="currentColor" d="M8.154 9.115q-.213 0-.356-.144q-.144-.143-.144-.356t.144-.356q.143-.144.356-.144H19.5q.213 0 .356.144t.144.357q0 .213-.144.356t-.356.143zm0 3.385q-.213 0-.356-.144q-.144-.144-.144-.357t.144-.356q.143-.143.356-.143H19.5q.213 0 .356.144q.144.144.144.357t-.144.356q-.143.143-.356.143zm0 3.385q-.213 0-.356-.144t-.144-.357q0-.213.144-.356q.143-.143.356-.143H19.5q.213 0 .356.144q.144.143.144.356t-.144.356q-.144.144-.356.144zM4.615 9.23q-.261 0-.438-.183T4 8.596q0-.253.177-.425Q4.354 8 4.615 8q.262 0 .439.171q.177.172.177.425q0 .27-.177.452t-.439.183m0 3.365q-.261 0-.438-.171Q4 12.253 4 12q0-.29.177-.462t.438-.173q.262 0 .439.173q.177.172.177.462q0 .253-.177.425q-.177.171-.439.171m0 3.404q-.261 0-.438-.182T4 15.365q0-.253.177-.424t.438-.172q.262 0 .439.172q.177.171.177.424q0 .27-.177.453q-.177.182-.439.182"/></svg>