<svg xmlns="http://www.w3.org/2000/svg" width="1em" height="1em" viewBox="0 0 24 24"><path fill="currentColor" d="M11.996 16.212q.333 0 .56-.228q.229-.228.229-.56q0-.334-.228-.562q-.228-.227-.56-.227q-.334 0-.561.228q-.228.227-.228.56q0 .333.228.56q.227.229.56.229m-.515-3.312h.965q.02-.329.067-.571q.047-.242.172-.479t.322-.474q.197-.238.49-.53q.72-.721 1.044-1.25q.324-.53.324-1.204q0-1.17-.803-1.887q-.804-.717-1.964-.717q-1.067 0-1.837.57q-.77.569-1.126 1.365l.919.38q.252-.597.72-.99q.466-.394 1.263-.394q.944 0 1.403.517q.46.516.46 1.174q0 .502-.275.919q-.275.417-.771.877q-.367.35-.63.668q-.262.318-.437.636q-.175.317-.24.653q-.066.335-.066.737M12 21.577L9.423 19H5.615q-.69 0-1.152-.462Q4 18.075 4 17.385V4.615q0-.69.463-1.152Q4.925 3 5.615 3h12.77q.69 0 1.152.463q.463.462.463 1.152v12.77q0 .69-.462 1.152q-.463.463-1.153.463h-3.808zM5.615 18h4.223L12 20.162L14.162 18h4.223q.269 0 .442-.173t.173-.442V4.615q0-.269-.173-.442T18.385 4H5.615q-.269 0-.442.173T5 4.615v12.77q0 .269.173.442t.442.173M12 11"/></svg>