<svg xmlns="http://www.w3.org/2000/svg" width="1em" height="1em" viewBox="0 0 24 24"><path fill="currentColor" d="M7.475 21q-.621 0-1.078-.407q-.457-.406-.532-1.022L4.14 4.283q-.067-.52.29-.901Q4.789 3 5.309 3h13.384q.52 0 .877.382q.358.381.29.9l-1.705 15.29q-.075.615-.532 1.021T16.544 21zM5.727 9.385l1.138 10.077q.039.23.212.384T7.48 20h9.057q.231 0 .404-.154q.173-.154.212-.384l1.138-10.077zm-.135-1h12.835L18.865 4H5.115zM12 17.115q-.562 0-.956-.394q-.394-.394-.394-.956q0-.51.28-1.083q.28-.574 1.07-1.66q.79 1.086 1.07 1.66q.28.574.28 1.083q0 .562-.394.956q-.394.394-.956.394m0 1q.988 0 1.67-.68q.68-.681.68-1.67q0-.963-.582-1.88q-.581-.918-1.128-1.652q-.13-.162-.295-.24q-.164-.078-.345-.078t-.345.078q-.165.078-.295.24q-.547.734-1.128 1.652q-.582.917-.582 1.88q0 .989.68 1.67q.682.68 1.67.68M6.496 20h11.027z"/></svg>