<svg xmlns="http://www.w3.org/2000/svg" width="1em" height="1em" viewBox="0 0 24 24"><path fill="currentColor" d="M6.615 21q-.67 0-1.143-.472Q5 20.056 5 19.385V4.615q0-.67.472-1.143Q5.944 3 6.615 3h10.77q.67 0 1.143.472q.472.472.472 1.143v14.77q0 .67-.472 1.143q-.472.472-1.143.472zm0-1h10.77q.23 0 .423-.192q.192-.193.192-.423V4.615q0-.23-.192-.423Q17.615 4 17.385 4H6.615q-.23 0-.423.192Q6 4.385 6 4.615v14.77q0 .23.192.423q.193.192.423.192M12 18.23q1.748 0 2.99-1.24q1.24-1.242 1.24-2.99t-1.24-2.99Q13.747 9.77 12 9.77t-2.99 1.24Q7.77 12.253 7.77 14t1.24 2.99q1.242 1.24 2.99 1.24m0-.93q-.65 0-1.253-.247q-.603-.247-1.059-.703l4.662-4.662q.456.456.703 1.06q.247.602.247 1.252q0 1.375-.962 2.338T12 17.3M8 7q.425 0 .713-.288T9 6q0-.425-.288-.712T8 5q-.425 0-.712.288T7 6q0 .425.288.713T8 7m3 0q.425 0 .713-.288T12 6q0-.425-.288-.712T11 5q-.425 0-.712.288T10 6q0 .425.288.713T11 7M6 20V4z"/></svg>