<svg xmlns="http://www.w3.org/2000/svg" width="1em" height="1em" viewBox="0 0 24 24"><path fill="currentColor" d="M7.475 21q-.621 0-1.078-.407q-.457-.406-.532-1.022L4 3h16l-1.846 16.571q-.075.616-.532 1.022T16.544 21zM5.727 9.385l1.138 10.077q.039.23.212.384T7.48 20h9.057q.231 0 .404-.154q.173-.154.212-.384l1.138-10.077zm-.135-1h12.835L18.865 4H5.115zM12 17.115q-.562 0-.956-.394q-.394-.394-.394-.956q0-.51.28-1.083q.28-.574 1.07-1.66q.79 1.086 1.07 1.66q.28.574.28 1.083q0 .562-.394.956q-.394.394-.956.394m0 1q.988 0 1.67-.68q.68-.681.68-1.67q0-.794-.48-1.696q-.48-.902-1.87-2.684q-1.39 1.782-1.87 2.684q-.48.902-.48 1.696q0 .989.68 1.67q.682.68 1.67.68M6.496 20h11.027z"/></svg>