<svg xmlns="http://www.w3.org/2000/svg" width="1em" height="1em" viewBox="0 0 24 24"><path fill="currentColor" d="M5.5 20q-.213 0-.357-.143Q5 19.713 5 19.5t.143-.357Q5.287 19 5.5 19h13q.213 0 .357.143q.143.144.143.357t-.143.357Q18.713 20 18.5 20zm2.635-3.77q-1.304 0-2.22-.886Q5 14.458 5 13.192V5.038q0-.44.299-.739q.3-.299.74-.299h13.269q.69 0 1.191.472q.501.472.501 1.163v2.23q0 .69-.501 1.163q-.5.472-1.191.472h-2v3.692q0 1.266-.916 2.152q-.915.887-2.219.887zm9.173-7.73h2q.288 0 .49-.183q.202-.182.202-.452v-2.23q0-.27-.202-.452Q19.596 5 19.308 5h-2z"/></svg>