<svg xmlns="http://www.w3.org/2000/svg" width="1em" height="1em" viewBox="0 0 24 24"><path fill="currentColor" d="M5.615 21q-.69 0-1.152-.462Q4 20.075 4 19.385V8.615q0-.69.463-1.152Q4.925 7 5.615 7H8q0-1.671 1.164-2.836T12 3q1.671 0 2.836 1.164T16 7h2.385q.69 0 1.152.463q.463.462.463 1.152v10.77q0 .69-.462 1.152q-.463.463-1.153.463zM12 13q1.671 0 2.836-1.164T16 9h-1q0 1.25-.875 2.125T12 12q-1.25 0-2.125-.875T9 9H8q0 1.671 1.164 2.836T12 13M9 7h6q0-1.25-.875-2.125T12 4q-1.25 0-2.125.875T9 7"/></svg>