<svg xmlns="http://www.w3.org/2000/svg" width="1em" height="1em" viewBox="0 0 24 24"><path fill="currentColor" d="M12 17.73q1.235 0 2.178-.692q.943-.694 1.34-1.786q-.208-.177-.416-.382q-.208-.205-.415-.399q-.17.989-.915 1.624q-.745.636-1.772.636q-1.165 0-1.948-.783T9.269 14q0-1.146.767-1.916q.766-.77 1.893-.815q-.166-.238-.306-.47q-.14-.232-.275-.476q-1.321.24-2.2 1.258Q8.27 12.598 8.27 14q0 1.567 1.082 2.65q1.082 1.08 2.649 1.08M9.423 5h.827q-.048.244-.072.485q-.024.24-.024.515h-.298L8.012 8H4.615q-.269 0-.442.173T4 8.615v10.77q0 .269.173.442t.442.173h14.77q.269 0 .442-.173t.173-.442V15.72q.25-.22.5-.457q.25-.237.5-.487v4.608q0 .69-.462 1.152q-.463.463-1.153.463H4.615q-.69 0-1.152-.462Q3 20.075 3 19.385V8.615q0-.69.463-1.152Q3.925 7 4.615 7h2.958zM18 14.288q3.16-2.863 4.31-4.62q1.152-1.758 1.152-3.518q0-2.575-1.65-4.093Q20.164.538 18 .538t-3.812 1.519q-1.65 1.518-1.65 4.093q0 1.76 1.151 3.517Q14.84 11.425 18 14.288m0-1.328q-2.908-2.72-3.685-4.172q-.777-1.451-.777-2.619q0-2.275 1.407-3.443Q16.352 1.558 18 1.558t3.055 1.168q1.407 1.168 1.407 3.443q0 1.168-.777 2.62q-.777 1.451-3.685 4.17m-1.485-4.536l.566-1.833l-1.504-1.205h1.833L18 3.577l.59 1.808h1.833L18.938 6.59l.566 1.833L18 7.293zM18 7.246"/></svg>