<svg xmlns="http://www.w3.org/2000/svg" width="1em" height="1em" viewBox="0 0 24 24"><path fill="currentColor" d="M12 17.73q1.235 0 2.178-.692q.943-.694 1.34-1.786q-.208-.183-.416-.385t-.415-.396q-.17.989-.914 1.624q-.744.636-1.773.636q-1.165 0-1.948-.783t-.783-1.938q0-1.156.767-1.926q.766-.77 1.893-.815q-.166-.238-.308-.472q-.143-.234-.273-.474q-1.321.24-2.2 1.258Q8.27 12.598 8.27 14q0 1.567 1.082 2.65q1.082 1.08 2.649 1.08M9.423 5h.827q-.048.244-.072.485q-.024.24-.024.515h-.298L8.012 8H4v12h16v-4.279q.25-.22.5-.46q.25-.239.5-.484V21H3V7h4.573zm-.154 9H12zm8.731.288q3.16-2.863 4.31-4.62q1.152-1.758 1.152-3.518q0-2.578-1.65-4.095T17.998.538t-3.811 1.517q-1.65 1.517-1.65 4.095q0 1.76 1.151 3.517Q14.84 11.425 18 14.288m0-1.328q-2.908-2.72-3.685-4.172q-.777-1.451-.777-2.619q0-2.275 1.41-3.443q1.408-1.168 3.054-1.168t3.053 1.168q1.407 1.168 1.407 3.443q0 1.168-.777 2.62q-.777 1.451-3.685 4.17m-1.485-4.536l.566-1.833l-1.504-1.205h1.837L18 3.577l.586 1.808h1.837L18.938 6.59l.566 1.833L18 7.293zM18 7.246"/></svg>