<svg xmlns="http://www.w3.org/2000/svg" width="1em" height="1em" viewBox="0 0 24 24"><path fill="currentColor" d="M5.5 20q-.213 0-.356-.144Q5 19.712 5 19.5t.144-.356Q5.288 19 5.5 19h13q.213 0 .356.144T19 19.5q0 .212-.144.356q-.143.143-.356.143zm2.635-3.77q-1.304 0-2.22-.886Q5 14.458 5 13.192V5.038q0-.44.299-.739q.3-.299.74-.299h13.269q.698 0 1.195.472q.497.472.497 1.163v2.23q0 .69-.497 1.163q-.497.472-1.195.472h-2v3.692q0 1.266-.916 2.152q-.915.887-2.219.887zm0-1h6.038q.88 0 1.508-.6q.627-.601.627-1.445V5H6v8.192q0 .845.627 1.442t1.508.597M17.308 8.5h2q.288 0 .49-.183q.202-.182.202-.452v-2.23q0-.27-.202-.452Q19.596 5 19.308 5h-2zm-9.173 6.73H6h10.308z"/></svg>