<svg xmlns="http://www.w3.org/2000/svg" width="1em" height="1em" viewBox="0 0 24 24"><path fill="currentColor" d="M12 20.556q-.235 0-.47-.077q-.234-.077-.432-.251q-1.067-.987-2.163-2.187q-1.097-1.2-1.992-2.49q-.895-1.29-1.467-2.629q-.572-1.339-.572-2.622q0-.9.192-1.712q.192-.811.533-1.538L2.22 3.642q-.146-.146-.146-.337t.146-.357q.146-.165.357-.165t.376.165l18.515 18.515q.146.147.156.348q.01.2-.156.366q-.165.165-.356.165t-.357-.165l-4.985-4.985q-.606.708-1.308 1.458q-.701.75-1.542 1.557q-.198.176-.442.262q-.244.087-.479.087m5.585-5.789l-4.08-4.079q.068-.142.09-.28q.02-.139.02-.293q0-.67-.472-1.143Q12.671 8.5 12 8.5q-.154 0-.292.021q-.139.021-.281.089L7.448 4.63q.921-.77 2.079-1.2T12 3q2.963 0 5.03 2.062q2.066 2.061 2.066 5.234q0 1.008-.373 2.126q-.373 1.118-1.138 2.345"/></svg>