<svg xmlns="http://www.w3.org/2000/svg" width="1em" height="1em" viewBox="0 0 24 24"><path fill="currentColor" d="M20.506 10.896v7.989q0 .69-.463 1.152q-.462.463-1.153.463H5.121q-.69 0-1.153-.462q-.462-.463-.462-1.153v-8.027q-.633-.468-.926-1.225q-.293-.758-.013-1.618l.973-3.207q.2-.612.646-.96q.445-.348 1.1-.348h13.4q.656 0 1.099.326q.442.326.648.943l1.011 3.246q.281.86-.012 1.631q-.294.771-.926 1.25m-6.3-.396q.963 0 1.438-.54t.4-1.114L15.38 4.5h-2.873v4.2q0 .737.504 1.268q.503.532 1.196.532m-4.5 0q.806 0 1.303-.532q.497-.531.497-1.268V4.5H8.633l-.666 4.423q-.061.465.407 1.021q.468.556 1.332.556m-4.45 0q.661 0 1.124-.45t.576-1.123L7.583 4.5H5.287q-.327 0-.52.144q-.192.144-.288.433l-.923 3.158q-.246.788.21 1.527q.457.738 1.49.738m13.5 0q.898 0 1.434-.7q.537-.7.266-1.565l-.973-3.197q-.096-.288-.289-.413t-.519-.125h-2.246l.627 4.427q.113.673.576 1.123q.462.45 1.124.45m-13.635 9h13.77q.269 0 .442-.173t.173-.442v-7.512q-.202.07-.384.098q-.182.029-.366.029q-.675 0-1.188-.263q-.512-.264-.974-.84q-.392.488-.967.795q-.575.308-1.398.308q-.598 0-1.138-.279t-1.085-.825q-.502.546-1.113.825T9.73 11.5q-.629 0-1.226-.24t-1.047-.864q-.737.737-1.288.92q-.55.184-.912.184q-.185 0-.372-.029t-.378-.098v7.512q0 .269.173.442t.442.173m13.77 0H5.12zM8.428 17.885h2q.161 0 .273-.112q.111-.111.111-.273t-.111-.273q-.112-.112-.273-.112H8.813v-1.23h1.616q.161 0 .273-.112q.111-.111.111-.273v-2q0-.162-.111-.273q-.112-.112-.273-.112h-2q-.162 0-.273.112q-.112.111-.112.273t.112.273q.111.112.273.112h1.615v1.23H8.43q-.162 0-.273.112q-.112.111-.112.273v2q0 .162.112.273q.111.112.273.112m6.77-2V17.5q0 .162.11.273q.112.112.274.112q.161 0 .273-.112q.111-.111.111-.273v-4q0-.162-.111-.273q-.112-.112-.273-.112q-.162 0-.273.112q-.112.111-.112.273v1.615h-1.23V13.5q0-.162-.112-.273q-.112-.112-.273-.112q-.162 0-.273.112q-.112.111-.112.273v2q0 .162.112.273q.111.112.273.112z"/></svg>