<svg xmlns="http://www.w3.org/2000/svg" width="1em" height="1em" viewBox="0 0 24 24"><path fill="currentColor" d="m11.898 12.758l-7.246 7.196q-.14.14-.341.153q-.201.012-.367-.153q-.16-.16-.16-.354t.16-.354l9.781-9.78q-.508-1.204-.221-2.366q.286-1.162 1.29-2.154q.98-.979 2.45-1.358q1.471-.378 2.458.608q.986.987.608 2.458q-.38 1.471-1.358 2.45q-.992 1.004-2.154 1.29q-1.161.287-2.365-.22L12.606 12l7.246 7.246q.14.14.153.342t-.153.366q-.16.16-.354.15q-.194-.01-.354-.15zm-4.535-.885l-2.769-2.77q-.819-.818-1.132-2.13q-.314-1.311.298-2.37q.198-.355.593-.405q.395-.05.682.242L9.91 9.327z"/></svg>