<svg xmlns="http://www.w3.org/2000/svg" width="1em" height="1em" viewBox="0 0 24 24"><path fill="currentColor" d="M3.77 21q-.31 0-.54-.23q-.23-.23-.23-.54v-6.46q0-.31.23-.54q.23-.23.54-.23H7V8q0-2.083 1.458-3.542Q9.917 3 12 3h4q2.083 0 3.542 1.458Q21 5.917 21 8v12.5q0 .213-.144.356q-.144.144-.357.144q-.212 0-.356-.144Q20 20.713 20 20.5V18h-5v2.23q0 .31-.23.54q-.23.23-.54.23zM15 17h5V8q0-1.65-1.175-2.825T16 4h-4q-1.65 0-2.825 1.175T8 8v5h6.23q.31 0 .54.23q.23.23.23.54zm-6.308-.323q.154.096.308.096t.308-.096L14 14H4zM4 20h10v-4.98l-4.192 2.39q-.181.098-.382.158q-.201.059-.422.059q-.221 0-.425-.06q-.203-.059-.387-.157L4 15.02zm0-6v.38v-.015v.783v-.129V20v-4.98v.128v-.785v.015zm7-4.5q-.213 0-.356-.144Q10.5 9.212 10.5 9t.144-.356Q10.788 8.5 11 8.5h6q.213 0 .356.144q.144.144.144.357t-.144.356Q17.213 9.5 17 9.5z"/></svg>