<svg xmlns="http://www.w3.org/2000/svg" width="1em" height="1em" viewBox="0 0 24 24"><path fill="currentColor" d="M11.5 21v-.962q-3.125-.292-5.16-2.327T4.011 12.55H3.05q-.212 0-.356-.144t-.144-.357t.144-.356q.144-.143.356-.143h.962q.292-3.125 2.327-5.16T11.5 4.061V3.1q0-.213.144-.356q.144-.144.357-.144t.356.144q.143.143.143.356v.962q3.125.292 5.16 2.327t2.328 5.161h.962q.213 0 .356.144q.144.144.144.357t-.144.356q-.143.143-.356.143h-.962q-.292 3.125-2.327 5.16T12.5 20.039V21q0 .213-.144.356q-.144.144-.357.144t-.356-.144Q11.5 21.213 11.5 21m.5-1.95q2.9 0 4.95-2.05T19 12.05q0-2.9-2.05-4.95T12 5.05q-2.9 0-4.95 2.05T5 12.05q0 2.9 2.05 4.95T12 19.05"/></svg>