<svg xmlns="http://www.w3.org/2000/svg" width="1em" height="1em" viewBox="0 0 24 24"><path fill="currentColor" d="M12.005 5.077q-.495 0-.846-.347t-.351-.842q0-.357.161-.688q.162-.33.714-.975q.126-.142.315-.142t.32.142q.551.644.713.975q.161.33.161.688q0 .495-.346.842q-.347.347-.841.347m-4.77 0q-.495 0-.846-.347q-.35-.347-.35-.842q0-.357.161-.688q.162-.33.713-.975q.126-.142.315-.142q.19 0 .32.142q.552.644.714.975q.161.33.161.688q0 .495-.346.842q-.347.347-.842.347m9.539 0q-.495 0-.846-.347t-.351-.842q0-.357.161-.688q.162-.33.714-.975q.126-.142.315-.142t.32.142q.551.644.713.975q.162.33.162.688q0 .495-.347.842q-.346.347-.841.347M5.23 20v1.385q0 .256-.18.436T4.613 22q-.257 0-.435-.18Q4 21.642 4 21.386v-6.958q0-.137.015-.273q.016-.137.061-.272l1.707-4.801q.16-.48.578-.78Q6.78 8 7.298 8h9.404q.518 0 .937.3q.419.3.578.78l1.707 4.802q.045.135.06.272q.016.136.016.273v6.958q0 .256-.18.436t-.438.179q-.257 0-.435-.18q-.178-.179-.178-.435V20zm.184-6.846h13.17l-1.32-3.75q-.077-.192-.23-.298Q16.88 9 16.669 9H7.331q-.212 0-.366.106q-.153.106-.23.298zm2.013 4.538q.466 0 .788-.326q.322-.327.322-.794t-.326-.788q-.327-.322-.793-.322t-.79.326q-.321.327-.321.793t.326.79q.327.321.794.321m9.153 0q.467 0 .79-.326q.321-.327.321-.794t-.326-.788q-.327-.322-.794-.322t-.788.326q-.322.327-.322.793t.326.79q.327.321.793.321"/></svg>