<svg xmlns="http://www.w3.org/2000/svg" width="1em" height="1em" viewBox="0 0 24 24"><path fill="currentColor" d="M12 21.115q-1.685-1.373-3.721-2.167Q6.242 18.154 4 18V8.654q2.294.134 4.36 1.095q2.065.96 3.64 2.378q1.575-1.417 3.64-2.378q2.066-.96 4.36-1.095V18q-2.248.154-4.282.948q-2.033.794-3.718 2.167m0-1.253q1.575-1.156 3.35-1.865q1.775-.708 3.65-.935V9.777q-1.96.325-3.741 1.264q-1.782.94-3.259 2.417q-1.477-1.477-3.259-2.417T5 9.777v7.285q1.875.227 3.65.935q1.775.709 3.35 1.865m0-11.285q-1.333 0-2.282-.95q-.949-.948-.949-2.28q0-1.334.95-2.283q.948-.949 2.281-.949q1.333 0 2.282.95q.949.948.949 2.281q0 1.333-.95 2.282q-.948.949-2.281.949m0-1q.921 0 1.576-.656q.655-.655.655-1.576q0-.92-.656-1.575q-.655-.655-1.576-.655q-.92 0-1.575.656q-.655.655-.655 1.576q0 .92.656 1.575q.655.655 1.576.655M12 13.457"/></svg>