<svg xmlns="http://www.w3.org/2000/svg" width="1em" height="1em" viewBox="0 0 24 24"><path fill="currentColor" d="M20.506 10.896V20.5h-17v-9.642q-.633-.468-.926-1.225q-.293-.758-.013-1.618L3.938 3.5h16.097l1.41 4.515q.28.86-.013 1.631q-.294.771-.926 1.25m-6.3-.396q.963 0 1.438-.54t.4-1.114L15.38 4.5h-2.873v4.2q0 .737.504 1.268q.503.532 1.196.532m-4.5 0q.806 0 1.303-.532q.497-.531.497-1.268V4.5H8.633l-.666 4.423q-.061.465.407 1.021q.468.556 1.332.556m-4.45 0q.661 0 1.124-.45t.576-1.123L7.583 4.5H4.652L3.556 8.235q-.246.788.21 1.527q.457.738 1.49.738m13.5 0q.898 0 1.434-.7q.537-.7.266-1.565L19.329 4.5h-2.9l.627 4.427q.113.673.576 1.123q.462.45 1.124.45m-14.25 9h15v-8.127q-.202.07-.384.098q-.182.029-.366.029q-.675 0-1.188-.263q-.512-.264-.974-.84q-.392.488-.967.795q-.575.308-1.398.308q-.598 0-1.138-.279t-1.085-.825q-.502.546-1.113.825T9.73 11.5q-.629 0-1.226-.24t-1.047-.864q-.737.737-1.288.92q-.55.184-.912.184q-.185 0-.372-.029t-.378-.098zm14.384 0H5.121zM8.044 17.885h2.77v-.77h-2v-1.23h2v-2.77h-2.77v.77h2v1.23h-2zm7.154 0h.77v-4.77h-.77v2h-1.23v-2h-.77v2.77h2z"/></svg>