<svg xmlns="http://www.w3.org/2000/svg" width="1em" height="1em" viewBox="0 0 24 24"><path fill="currentColor" d="M12 16.73q-1.165 0-1.948-.782T9.269 14q0-1.165.783-1.938q.783-.774 1.929-.793h.011q.589.852 1.269 1.644q.68.793 1.426 1.545q-.164.996-.902 1.634q-.739.639-1.785.639M3 21V7h4.573l1.85-2h.827q-.048.244-.072.485q-.024.24-.024.515q0 1.18.336 2.244q.337 1.064.916 2.073q-1.346.216-2.242 1.245Q8.27 12.593 8.27 14q0 1.567 1.082 2.65q1.082 1.08 2.649 1.08q1.235 0 2.188-.693t1.33-1.785q.634.61 1.266 1.17q.631.559 1.216 1.088q.762-.683 1.521-1.355q.76-.672 1.479-1.378V21zm15-6.712q3.16-2.863 4.31-4.62q1.152-1.758 1.152-3.518q0-2.575-1.65-4.093Q20.164.538 18 .538t-3.812 1.519q-1.65 1.518-1.65 4.093q0 1.76 1.151 3.517Q14.84 11.425 18 14.288m-1.485-5.865l.566-1.833l-1.504-1.205h1.833L18 3.577l.59 1.808h1.833L18.938 6.59l.566 1.833L18 7.293z"/></svg>