<svg xmlns="http://www.w3.org/2000/svg" width="1em" height="1em" viewBox="0 0 24 24"><path fill="currentColor" d="M4 17.073V9.788q0-.453.336-.744q.336-.29.793-.24q1.936.3 3.666 1.162q1.73.863 3.205 2.16q1.475-1.297 3.205-2.16q1.73-.862 3.666-1.162q.457-.05.793.24t.336.744v7.285q0 .396-.265.69q-.266.293-.662.343q-1.754.269-3.263.834q-1.51.566-2.964 1.554q-.198.148-.406.213q-.208.064-.441.064t-.44-.064q-.207-.065-.405-.213Q9.7 19.506 8.2 18.94q-1.5-.565-3.273-.834q-.396-.05-.662-.344Q4 17.47 4 17.074m8 2.789q1.575-1.156 3.35-1.865q1.775-.708 3.65-.935V9.777q-1.96.325-3.741 1.264q-1.782.94-3.259 2.417q-1.477-1.477-3.259-2.417T5 9.777v7.285q1.875.227 3.65.935q1.775.709 3.35 1.865m0-11.285q-1.333 0-2.282-.95q-.949-.948-.949-2.28q0-1.334.95-2.283q.948-.949 2.281-.949q1.333 0 2.282.95q.949.948.949 2.281q0 1.333-.95 2.282q-.948.949-2.281.949m0-1q.921 0 1.576-.656q.655-.655.655-1.576q0-.92-.656-1.575q-.655-.655-1.576-.655q-.92 0-1.575.656q-.655.655-.655 1.576q0 .92.656 1.575q.655.655 1.576.655M12 13.457"/></svg>