<svg xmlns="http://www.w3.org/2000/svg" width="1em" height="1em" viewBox="0 0 24 24"><path fill="currentColor" d="M5.615 21q-.67 0-1.143-.472Q4 20.056 4 19.385V8.615q0-.67.472-1.143Q4.944 7 5.615 7H8q0-1.671 1.164-2.836T12 3q1.671 0 2.836 1.164T16 7h2.385q.67 0 1.143.472q.472.472.472 1.143v10.77q0 .67-.472 1.143q-.472.472-1.143.472zm0-1h12.77q.23 0 .423-.192q.192-.193.192-.423V8.615q0-.23-.192-.423Q18.615 8 18.385 8H5.615q-.23 0-.423.192Q5 8.385 5 8.615v10.77q0 .23.192.423q.193.192.423.192M12 13q1.671 0 2.836-1.164T16 9h-1q0 1.25-.875 2.125T12 12q-1.25 0-2.125-.875T9 9H8q0 1.671 1.164 2.836T12 13M9 7h6q0-1.25-.875-2.125T12 4q-1.25 0-2.125.875T9 7M5 20V8z"/></svg>