<svg xmlns="http://www.w3.org/2000/svg" width="1em" height="1em" viewBox="0 0 24 24"><path fill="currentColor" d="M11.996 4q1.896 0 3.854.606q1.958.606 3.515 1.706q.343.25.514.603q.171.353.171.727q0 .219-.068.447q-.069.229-.205.448l-6.429 9.636q-.242.364-.606.545q-.363.182-.744.182q-.382 0-.743-.177t-.603-.55L4.223 8.537q-.144-.223-.206-.445q-.061-.222-.061-.444q0-.369.17-.717q.172-.349.514-.594Q6.198 5.242 8.15 4.62Q10.099 4 11.996 4M8.844 9.423q.416 0 .709-.29q.293-.292.293-.708q0-.415-.29-.709q-.292-.293-.708-.293q-.415 0-.709.291q-.293.291-.293.707t.291.709q.291.293.707.293m3.154 5.077q.415 0 .709-.291q.293-.291.293-.707q0-.415-.291-.709q-.291-.293-.707-.293q-.415 0-.709.291q-.293.291-.293.707q0 .415.291.709q.291.293.707.293"/></svg>