<svg xmlns="http://www.w3.org/2000/svg" width="1em" height="1em" viewBox="0 0 24 24"><path fill="currentColor" d="M13.615 10.115q0-.666-.474-1.14Q12.666 8.5 12 8.5q-.154 0-.292.021q-.139.021-.281.089l2.079 2.078q.067-.142.088-.28q.021-.139.021-.293m3.97 4.652l-.739-.738q.606-1.05.928-1.991q.322-.942.322-1.746q0-2.74-1.737-4.526T12 3.981q-1.114 0-2.089.347q-.974.347-1.769.997l-.694-.694Q8.37 3.86 9.527 3.43T12 3q2.963 0 5.03 2.062q2.066 2.061 2.066 5.228q0 1.014-.373 2.132t-1.138 2.345m-2.502 1.737L6.388 7.81q-.223.569-.353 1.182q-.131.614-.131 1.304q0 1.852 1.638 4.39q1.639 2.537 4.458 4.99q.88-.766 1.655-1.57q.774-.802 1.428-1.602M12 20.556q-.235 0-.47-.077q-.234-.077-.432-.25q-1.067-.98-2.163-2.185q-1.097-1.204-1.992-2.493q-.895-1.29-1.467-2.633q-.572-1.343-.572-2.614q0-.904.19-1.715q.191-.812.535-1.539L2.22 3.642q-.146-.14-.146-.335q0-.194.15-.359t.357-.165q.206 0 .372.165l18.515 18.515q.146.147.153.345q.007.198-.159.363q-.165.166-.356.166t-.357-.166l-4.979-4.979q-.425.489-.998 1.12q-.573.63-1.852 1.898q-.191.173-.434.26q-.244.086-.487.086m.494-10.88"/></svg>