<svg xmlns="http://www.w3.org/2000/svg" width="1em" height="1em" viewBox="0 0 24 24"><path fill="currentColor" d="M5.688 19.115q-1.092 0-1.851-.762q-.76-.763-.76-1.853H2.5q-.343 0-.575-.232q-.233-.232-.233-.576V6.615q0-.69.463-1.152Q2.617 5 3.308 5h11.615q.666 0 1.141.475q.474.474.474 1.14v2h1.5q.384 0 .727.172q.344.172.566.475l2.815 3.79q.08.1.121.222q.04.121.04.263v2.155q0 .344-.232.576q-.232.232-.575.232h-.808q0 1.09-.764 1.853q-.764.762-1.856.762q-1.091 0-1.85-.762q-.76-.763-.76-1.853H8.308q0 1.096-.764 1.856q-.765.76-1.856.76m.004-1q.675 0 1.146-.47q.47-.471.47-1.146t-.47-1.145q-.47-.47-1.146-.47t-1.145.47q-.47.47-.47 1.145t.47 1.145q.47.47 1.145.47m-3-2.615h.646q.214-.662.87-1.138q.655-.477 1.484-.477q.79 0 1.466.467t.888 1.148h7.492V6.615q0-.269-.173-.442T14.923 6H3.308q-.231 0-.423.192q-.193.193-.193.423zm15.385 2.615q.675 0 1.145-.47t.47-1.145t-.47-1.145q-.47-.47-1.145-.47t-1.145.47q-.47.47-.47 1.145t.47 1.145q.47.47 1.145.47M16.538 13.5h4.712L18.5 9.865q-.096-.115-.221-.182q-.125-.068-.279-.068h-1.462zm-7.423-2.75"/></svg>