<svg xmlns="http://www.w3.org/2000/svg" width="1em" height="1em" viewBox="0 0 24 24"><path fill="currentColor" d="M9 9h6V7q0-1.25-.875-2.125T12 4q-1.25 0-2.125.875T9 7zm8.615 12.615q-1.67 0-2.835-1.164t-1.165-2.836q0-1.67 1.165-2.835t2.835-1.165q1.672 0 2.836 1.165q1.164 1.164 1.164 2.835q0 1.672-1.164 2.836t-2.836 1.164m1.65-1.803l.547-.547L18 17.461v-2.73h-.77v3.046zM12.673 21H6.615q-.666 0-1.14-.475Q5 20.051 5 19.385v-8.77q0-.666.475-1.14Q5.949 9 6.615 9H8V7q0-1.671 1.164-2.836T12 3q1.671 0 2.836 1.164T16 7v2h1.385q.666 0 1.14.475q.475.474.475 1.14V11.8q-.346-.137-.692-.151t-.712-.014q-2.483 0-4.232 1.749t-1.749 4.238q0 .915.261 1.783q.26.868.797 1.595"/></svg>