<svg xmlns="http://www.w3.org/2000/svg" width="1em" height="1em" viewBox="0 0 24 24"><path fill="currentColor" d="M12 16.5q.633 0 1.066-.434q.434-.433.434-1.066t-.434-1.066Q12.633 13.5 12 13.5t-1.066.434Q10.5 14.367 10.5 15t.434 1.066q.433.434 1.066.434M6.615 21q-.666 0-1.14-.475Q5 20.051 5 19.385v-8.77q0-.666.475-1.14Q5.949 9 6.615 9H14V7q0-1.671 1.164-2.836T18 3q1.671 0 2.836 1.164T22 7h-1q0-1.25-.875-2.125T18 4q-1.25 0-2.125.875T15 7v2h2.385q.666 0 1.14.475q.475.474.475 1.14v8.77q0 .666-.475 1.14q-.474.475-1.14.475z"/></svg>