<svg xmlns="http://www.w3.org/2000/svg" width="1em" height="1em" viewBox="0 0 24 24"><path fill="currentColor" d="M12 8.923q-.262 0-.438-.177q-.177-.177-.177-.438q0-.262.177-.439q.176-.177.438-.177t.438.177q.177.177.177.439q0 .261-.177.438q-.176.177-.438.177m-3.692 3.692q-.262 0-.439-.177q-.177-.176-.177-.438t.177-.438q.177-.177.439-.177q.261 0 .438.177q.177.176.177.438t-.177.438q-.177.177-.438.177m3.692 0q-.262 0-.438-.177q-.177-.176-.177-.438t.177-.438q.176-.177.438-.177t.438.177q.177.176.177.438t-.177.438q-.176.177-.438.177M4.615 5.231q-.261 0-.438-.177T4 4.615q0-.261.177-.438T4.615 4q.262 0 .439.177t.177.438q0 .262-.177.439t-.439.177m3.693 0q-.262 0-.439-.177t-.177-.439q0-.261.177-.438T8.308 4q.261 0 .438.177t.177.438q0 .262-.177.439t-.438.177M4.615 8.923q-.261 0-.438-.177T4 8.308q0-.262.177-.439t.438-.177q.262 0 .439.177t.177.439q0 .261-.177.438t-.439.177m1 11.077q-.666 0-1.14-.475Q4 19.051 4 18.385v-6.5q0-.213.144-.357q.144-.143.357-.143q.212 0 .356.143q.143.144.143.357v6.5q0 .269.173.442t.442.173h12.77q.269 0 .442-.173t.173-.442V5.615q0-.269-.173-.442T18.385 5h-6.5q-.213 0-.357-.144t-.143-.357q0-.212.143-.356q.144-.143.357-.143h6.5q.666 0 1.14.475q.475.474.475 1.14v12.77q0 .666-.475 1.14q-.474.475-1.14.475z"/></svg>