<svg xmlns="http://www.w3.org/2000/svg" width="1em" height="1em" viewBox="0 0 24 24"><path fill="currentColor" d="M12.844 21.421L3 11.577V3h8.577l9.838 9.85zM6.498 7.5q.415 0 .709-.291q.293-.291.293-.707q0-.415-.291-.709q-.291-.293-.707-.293q-.415 0-.709.291q-.293.291-.293.707q0 .415.291.709q.291.293.707.293M13 16.923l3.038-3.154q.218-.217.332-.506q.115-.288.115-.636q0-.639-.454-1.114q-.454-.475-1.096-.475q-.488 0-.964.256q-.475.256-.971.906q-.52-.662-.982-.912q-.463-.25-.953-.25q-.642 0-1.096.475q-.454.475-.454 1.114q0 .348.115.636q.114.289.332.506z"/></svg>