<svg xmlns="http://www.w3.org/2000/svg" width="1em" height="1em" viewBox="0 0 24 24"><path fill="currentColor" d="m13 16.923l3.038-3.154q.218-.217.332-.506q.115-.288.115-.636q0-.639-.456-1.114t-1.094-.475q-.495 0-.967.256T13 12.2q-.52-.662-.983-.912q-.463-.25-.952-.25q-.638 0-1.094.475q-.456.475-.456 1.114q0 .348.115.636q.114.289.332.506zm.558 3.785q-.287.286-.714.286t-.713-.286l-8.8-8.8q-.16-.16-.245-.352T3 11.15V4q0-.402.299-.701Q3.599 3 4 3h7.15q.194 0 .387.076q.192.076.332.216l8.8 8.806q.306.306.316.74q.01.433-.277.72zM6.5 7.5q.413 0 .707-.293q.293-.294.293-.707t-.293-.707Q6.913 5.5 6.5 5.5t-.707.293Q5.5 6.087 5.5 6.5t.293.707q.294.293.707.293"/></svg>