<svg xmlns="http://www.w3.org/2000/svg" width="1em" height="1em" viewBox="0 0 24 24"><path fill="currentColor" d="M5.154 15V9q0-.213.144-.356q.144-.144.357-.144q.212 0 .356.144q.143.144.143.356v5.5h2.5q.212 0 .356.144t.144.357t-.144.356q-.144.143-.356.143h-3q-.213 0-.356-.144T5.154 15m6.577-5.5h-1.5q-.213 0-.356-.144Q9.73 9.212 9.73 9t.144-.356q.143-.143.356-.143h4q.212 0 .356.144t.144.357t-.144.356q-.144.143-.356.143h-1.5V15q0 .213-.144.356t-.357.144q-.213 0-.356-.144T11.731 15zM16.5 15V9q0-.213.144-.356T17 8.5h3q.213 0 .356.144q.144.144.144.357t-.144.356Q20.213 9.5 20 9.5h-2.5v2H20q.213 0 .356.144q.144.144.144.357t-.144.356q-.143.143-.356.143h-2.5v2H20q.213 0 .356.144q.144.144.144.357t-.144.356q-.143.143-.356.143h-3q-.213 0-.356-.144T16.5 15"/></svg>