<svg xmlns="http://www.w3.org/2000/svg" width="1em" height="1em" viewBox="0 0 24 24"><path fill="currentColor" d="M5.25 15.5h-3q-.213 0-.356-.144T1.75 15V9q0-.213.144-.356q.144-.144.357-.144q.212 0 .356.144q.143.143.143.356v5.5h2.5q.213 0 .356.144q.144.144.144.357t-.144.356q-.143.143-.356.143m3.192 0q-.213 0-.356-.144q-.144-.144-.144-.356V9.5h-1.5q-.212 0-.356-.144T5.942 9t.144-.356q.144-.143.356-.143h4q.213 0 .357.144q.143.144.143.357t-.143.356q-.144.143-.357.143h-1.5V15q0 .213-.144.356q-.144.144-.356.144m7.654 0h-3q-.212 0-.356-.144T12.596 15V9q0-.213.144-.356t.356-.144h3q.213 0 .356.144q.144.144.144.357t-.144.356q-.143.143-.356.143h-2.5v2h2.5q.213 0 .356.144q.144.144.144.357t-.144.356q-.143.143-.356.143h-2.5v2h2.5q.213 0 .356.144q.144.144.144.357t-.144.356q-.143.143-.356.143m4.154-3h-1.5q-.213 0-.356-.144q-.144-.144-.144-.357t.144-.356q.144-.143.356-.143h1.5V10q0-.213.144-.356t.357-.144q.212 0 .356.144q.143.144.143.356v1.5h1.5q.213 0 .356.144q.144.144.144.357t-.144.356q-.143.143-.356.143h-1.5V14q0 .213-.144.356q-.144.144-.357.144q-.212 0-.356-.144q-.143-.143-.143-.356z"/></svg>