<svg xmlns="http://www.w3.org/2000/svg" width="1em" height="1em" viewBox="0 0 24 24"><path fill="currentColor" d="M4.577 16V4zm-1 3.577V4.615q0-.67.472-1.143Q4.521 3 5.192 3h9.77q.67 0 1.143.472q.472.472.472 1.143v.252q-.292.14-.533.32q-.24.178-.467.39v-.962q0-.269-.173-.442T14.962 4h-9.77q-.269 0-.442.173t-.173.442V16h10.385q.269 0 .442-.173t.173-.442v-2.962q.227.212.467.39q.24.18.533.32v2.252q0 .67-.472 1.143q-.472.472-1.143.472H6.154zm3.5-6.077h3v-1h-3zm11.538-2q-1.038 0-1.769-.73q-.73-.732-.73-1.77t.73-1.77q.73-.73 1.77-.73q.486 0 .822.137q.337.136.677.461V1.5h3v1h-2V9q0 1.038-.73 1.77q-.731.73-1.77.73m-11.538-1h6v-1h-6zm0-3h6v-1h-6z"/></svg>