<svg xmlns="http://www.w3.org/2000/svg" width="1em" height="1em" viewBox="0 0 24 24"><path fill="currentColor" d="M12 13.462q-.762 0-1.285-.524t-.523-1.284v-.162q-.223.168-.464.251q-.241.084-.551.084q-.762 0-1.285-.523t-.523-1.285q0-.557.294-.984t.772-.65q-.477-.223-.772-.65q-.294-.427-.294-.985q0-.762.523-1.285t1.285-.523q.31 0 .55.084t.465.25v-.16q0-.8.523-1.304T12 3.308t1.285.504q.523.503.523 1.303v.162q.225-.175.487-.256t.543-.073l-.786 2.012q-.344-.485-.874-.78q-.53-.295-1.178-.295q-1.05 0-1.775.725T9.5 8.385q0 1.05.725 1.775t1.775.725q.344 0 .638-.085q.295-.085.57-.229q.152.294.44.487q.287.192.67.192h1.815q-.23.267-.57.422q-.342.155-.74.155q-.31 0-.55-.084t-.465-.25v.16q0 .762-.523 1.285T12 13.462m2.606-3.712l2.625-6.788h.638l2.675 6.788h-.896l-.761-1.915h-2.681l-.723 1.915zm1.915-2.677h2.058l-.998-2.692h-.05zM12 20.846q0-1.408.636-2.747t1.687-2.391q1.052-1.052 2.391-1.688q1.34-.635 2.748-.635q0 1.407-.636 2.747t-1.688 2.391q-1.051 1.052-2.39 1.688q-1.34.635-2.748.635m0 0q0-1.408-.636-2.747t-1.687-2.391q-1.052-1.052-2.391-1.688q-1.34-.635-2.748-.635q0 1.407.636 2.747t1.688 2.391q1.051 1.052 2.39 1.688q1.34.635 2.748.635"/></svg>