<svg xmlns="http://www.w3.org/2000/svg" width="1em" height="1em" viewBox="0 0 24 24"><path fill="currentColor" d="M19.5 5.308V9q0 .213-.144.356q-.144.144-.357.144t-.356-.144Q18.5 9.213 18.5 9V6.233l-5.129 5.084q.494.72.812 1.52q.317.8.317 1.663q0 2.09-1.454 3.545T9.502 19.5t-3.546-1.454Q4.5 16.592 4.5 14.502t1.455-3.546Q7.409 9.5 9.5 9.5q.863 0 1.654.314q.79.315 1.504.815L17.787 5.5H15q-.213 0-.356-.144q-.144-.144-.144-.357t.144-.356Q14.788 4.5 15 4.5h3.692q.344 0 .576.232q.232.232.232.576M9.497 10.5q-1.659 0-2.828 1.172Q5.5 12.845 5.5 14.503t1.172 2.828Q7.845 18.5 9.503 18.5t2.828-1.172q1.169-1.173 1.169-2.831t-1.172-2.828Q11.155 10.5 9.497 10.5"/></svg>