<svg xmlns="http://www.w3.org/2000/svg" width="1em" height="1em" viewBox="0 0 24 24"><path fill="currentColor" d="M10 11.385q-1.237 0-2.119-.882T7 8.385q0-1.238.881-2.12q.881-.88 2.119-.88t2.119.88q.881.882.881 2.12q0 1.237-.881 2.118T10 11.385m-7 7.23V16.97q0-.69.348-1.194t.983-.802q1.217-.592 2.51-.975q1.292-.383 3.159-.383h.235q.092 0 .223.012q-.104.258-.165.505l-.116.483H10q-1.679 0-2.928.345q-1.249.344-2.264.89q-.456.24-.632.504Q4 16.618 4 16.97v.646h6.3q.073.237.179.51q.106.271.233.49zm13.212.481l-.147-1.154q-.415-.086-.783-.291q-.369-.205-.663-.52l-1.084.43l-.423-.719l.919-.692q-.166-.427-.166-.88q0-.455.166-.882l-.9-.73l.423-.72l1.065.45q.275-.315.653-.51t.793-.282l.147-1.154h.846l.127 1.154q.415.087.793.285q.378.198.653.519l1.065-.462l.423.731l-.9.731q.166.421.166.878t-.166.872l.92.692l-.424.72l-1.084-.431q-.294.315-.663.52t-.783.291l-.127 1.154zm.405-2.02q.746 0 1.276-.53q.53-.532.53-1.278t-.531-1.277q-.532-.53-1.278-.53t-1.277.532q-.53.532-.53 1.278t.532 1.276q.532.53 1.278.53M10 10.385q.825 0 1.413-.588T12 8.385q0-.825-.587-1.413T10 6.385q-.825 0-1.412.587T8 8.385q0 .825.588 1.412t1.412.588m.3 7.23"/></svg>