<svg xmlns="http://www.w3.org/2000/svg" width="1em" height="1em" viewBox="0 0 24 24"><path fill="currentColor" d="M3.5 17.962q-.213 0-.356-.144T3 17.46q0-.213.144-.356q.143-.143.356-.143h8.558q.212 0 .356.143q.144.144.144.357t-.144.356q-.144.144-.356.144zm0-4.789q-.213 0-.356-.144Q3 12.885 3 12.672q0-.212.144-.356q.143-.143.356-.143h3.462q.212 0 .356.144t.144.357q0 .213-.144.356t-.356.143zm0-4.788q-.213 0-.356-.144T3 7.884q0-.213.144-.356q.143-.143.356-.143h3.462q.212 0 .356.144t.144.356q0 .213-.144.356q-.144.144-.356.144zm10.423 6.634q-1.684 0-2.87-1.164q-1.188-1.165-1.188-2.845q0-1.681 1.189-2.846Q12.242 7 13.928 7q1.685 0 2.87 1.164Q17.98 9.33 17.98 11q0 .667-.222 1.303q-.222.635-.647 1.159l3.534 3.476q.16.134.16.342q0 .207-.16.366q-.134.14-.34.14t-.368-.14l-3.534-3.477q-.542.406-1.178.628q-.636.222-1.303.222m0-1q1.274 0 2.166-.875t.892-2.134q0-1.26-.892-2.135Q15.197 8 13.923 8t-2.166.875q-.892.875-.892 2.135q0 1.26.892 2.134q.892.875 2.166.875"/></svg>