<svg xmlns="http://www.w3.org/2000/svg" width="1em" height="1em" viewBox="0 0 24 24"><path fill="currentColor" d="M4 16.615q-.421-.153-.71-.53Q3 15.71 3 15.232V7.573q0-.26.136-.478q.135-.218.395-.36L11 3l7.32 3.735q.222.092.348.32q.126.23.182.483h-1.137L11 4.135L4 7.61zM7.385 20q-.69 0-1.153-.462t-.463-1.153v-7.462q0-.69.463-1.153t1.153-.462h12q.69 0 1.152.462q.463.463.463 1.153v7.462q0 .69-.462 1.152q-.463.463-1.153.463zm6-5.265l-6.616-3.35v7q0 .269.173.442t.443.173h12q.269 0 .442-.173t.173-.442v-7zm0-1.077l6.384-3.235q-.096-.058-.182-.086q-.087-.03-.202-.03h-12q-.097 0-.193.03q-.096.028-.192.086zM20 10.308H6.77z"/></svg>