<svg xmlns="http://www.w3.org/2000/svg" width="1em" height="1em" viewBox="0 0 24 24"><path fill="currentColor" d="M6.615 10h-2q-.23 0-.423.192q-.192.193-.192.423v8.77q0 .23.192.423q.193.192.423.192h14.77q.23 0 .423-.192q.192-.193.192-.423v-8.77q0-.23-.192-.423q-.193-.192-.423-.192H10.5q-.213 0-.357-.143T10 9.5q0-.213.143-.357Q10.287 9 10.5 9h8.885q.69 0 1.152.463q.463.462.463 1.152v8.77q0 .69-.462 1.152q-.463.463-1.153.463H4.615q-.69 0-1.152-.462Q3 20.075 3 19.385v-8.77q0-.69.463-1.152Q3.925 9 4.615 9h2V3.808q0-.348.23-.578q.23-.23.578-.23h4.885q.348 0 .578.23q.23.23.23.578v2q0 .348-.23.578q-.23.23-.578.23H7.615V13.5q0 .213-.143.357Q7.33 14 7.115 14q-.213 0-.356-.143t-.144-.357zM4 10v10zv4z"/></svg>