<svg xmlns="http://www.w3.org/2000/svg" width="1em" height="1em" viewBox="0 0 24 24"><path fill="currentColor" d="M19 8.27q-1.038 0-1.77-.732q-.73-.73-.73-1.769q0-1.038.73-1.769q.732-.73 1.77-.73t1.77.73q.73.73.73 1.77q0 1.038-.73 1.768q-.732.731-1.77.731M4.615 19q-.69 0-1.152-.462Q3 18.075 3 17.385V6.615q0-.69.463-1.152Q3.925 5 4.615 5h9.177q.304 0 .519.233q.214.232.189.536q0 .064.006.119q.006.054.017.112q.04.762.315 1.44t.735 1.222L12 11L4.82 6.32q-.195-.122-.402-.045q-.206.077-.264.288q-.077.149-.025.298t.194.235l7.229 4.733q.211.13.448.13q.237 0 .448-.13l3.865-2.533q.54.458 1.225.716q.685.257 1.462.257q.258 0 .525-.027t.52-.105q.367-.08.66.117t.295.544v6.587q0 .69-.462 1.152q-.463.463-1.153.463z"/></svg>