<svg xmlns="http://www.w3.org/2000/svg" width="1em" height="1em" viewBox="0 0 24 24"><path fill="currentColor" d="m6.077 17l-1.704 1.704q-.379.379-.876.174Q3 18.673 3 18.133V4.615q0-.69.463-1.152Q3.925 3 4.615 3h9.347q.213 0 .366.163q.153.162.134.375q-.02.195-.163.328q-.143.134-.337.134H4.615q-.23 0-.423.192Q4 4.385 4 4.615v13.03L5.65 16h13.735q.23 0 .423-.192q.192-.193.192-.423V8.942q0-.213.143-.356t.357-.144q.213 0 .357.144q.143.143.143.356v6.443q0 .69-.462 1.153q-.463.462-1.153.462zM19 6.462q-1.038 0-1.77-.731Q16.5 5 16.5 3.96q0-1.038.73-1.769q.732-.73 1.77-.73t1.77.73q.73.731.73 1.77q0 1.038-.73 1.769q-.732.73-1.77.73M4 4.616v12.77V4z"/></svg>