<svg xmlns="http://www.w3.org/2000/svg" width="1em" height="1em" viewBox="0 0 24 24"><path fill="currentColor" d="M4.308 6L12 11l7.692-5zm.307 13q-.666 0-1.14-.475Q3 18.051 3 17.385V6.615q0-.666.475-1.14Q3.949 5 4.615 5h14.77q.666 0 1.14.475q.475.474.475 1.14v5.577q0 .213-.144.357q-.144.143-.357.143q-.212 0-.356-.143q-.143-.144-.143-.357V6.885l-7.552 4.944q-.094.07-.448.13q-.125 0-.234-.027q-.108-.028-.214-.103L4 6.885v10.5q0 .269.173.442t.442.173H9.75q.213 0 .356.144t.144.357q0 .212-.144.356Q9.963 19 9.75 19zm10.873.854l5.335-5.335q.14-.14.344-.15q.204-.01.364.15t.16.354t-.16.354l-5.477 5.477q-.242.242-.566.242q-.323 0-.565-.242l-2.638-2.639q-.14-.14-.15-.344q-.01-.204.15-.363q.16-.16.353-.16q.195 0 .354.16z"/></svg>