<svg xmlns="http://www.w3.org/2000/svg" width="1em" height="1em" viewBox="0 0 24 24"><path fill="currentColor" d="M12.846 20v-5.885q0-.666.475-1.14q.474-.475 1.14-.475h4.919q.676 0 1.148.475q.472.474.472 1.14V20h-1v-6.038q0-.193-.135-.327q-.134-.135-.327-.135h-2.115V18h-1v-4.5h-2.115q-.193 0-.327.135q-.135.134-.135.327V20zm-7.23 0q-.667 0-1.141-.475Q4 19.051 4 18.385V5.615q0-.666.475-1.14Q4.949 4 5.615 4h4.637q.14-.587.623-.986T12 2.615q.654 0 1.134.4q.48.398.62.985h4.63q.667 0 1.141.475q.475.474.475 1.14v4.5h-1v-4.5q0-.23-.192-.423Q18.615 5 18.385 5H16v2.23H8V5H5.615q-.23 0-.423.192Q5 5.385 5 5.615v12.77q0 .23.192.423q.193.192.423.192h4.847v1zm6.387-14.77q.345 0 .575-.232q.23-.234.23-.578q0-.345-.233-.575q-.234-.23-.578-.23q-.345 0-.575.234q-.23.233-.23.577q0 .345.234.575q.233.23.577.23"/></svg>