<svg xmlns="http://www.w3.org/2000/svg" width="1em" height="1em" viewBox="0 0 24 24"><path fill="currentColor" d="M19.002 6.462q-1.04 0-1.771-.729q-.731-.728-.731-1.77q0-1.04.729-1.77q.728-.731 1.769-.731q1.04 0 1.771.728q.731.729.731 1.77q0 1.04-.728 1.77q-.729.732-1.77.732M6.077 17l-1.704 1.704q-.379.379-.876.17Q3 18.668 3 18.134V4.615q0-.69.463-1.152Q3.925 3 4.615 3H14.6q-.062.25-.071.49q-.01.24-.006.51q.029.729.235 1.354q.205.625.55 1.146H7q-.213 0-.356.144q-.144.144-.144.357t.144.356Q6.788 7.5 7 7.5h9.442q.495.462 1.16.712q.667.25 1.398.25q.512 0 1.027-.125q.515-.125.973-.375v7.432q0 .681-.462 1.144q-.463.462-1.153.462zM7 10.5h10q.213 0 .356-.144q.144-.144.144-.357t-.144-.356Q17.213 9.5 17 9.5H7q-.213 0-.356.144Q6.5 9.788 6.5 10t.144.356q.144.143.356.143m0 3h6q.213 0 .356-.144q.144-.144.144-.357t-.144-.356Q13.213 12.5 13 12.5H7q-.213 0-.356.144q-.144.144-.144.357t.144.356q.144.143.356.143"/></svg>