<svg xmlns="http://www.w3.org/2000/svg" width="1em" height="1em" viewBox="0 0 24 24"><path fill="currentColor" d="M12 17.096q-.815 0-1.578-.233t-1.435-.676q-.947-.056-1.943-.408t-1.811-1.142q-.816-.79-1.342-2.08q-.526-1.288-.526-3.21v-.443q0-.839.581-1.42q.58-.58 1.42-.58q.782 0 1.35.608q.569.607.644 1.48q.719-.2 1.192-.432l.913-.45q.614-.339 1.19-.551q.578-.213 1.345-.213q.773 0 1.347.213q.574.212 1.188.55q.434.218.91.45q.476.233 1.195.433q.075-.898.644-1.493q.568-.595 1.35-.595q.84 0 1.42.58q.58.581.58 1.42v.442q0 1.923-.525 3.212q-.526 1.288-1.342 2.079q-.815.79-1.811 1.142q-.996.352-1.943.408q-.673.442-1.435.675T12 17.097M7.788 15.11q-.57-.693-.939-1.609q-.368-.916-.368-1.943V8.904q0-.464-.326-.79t-.79-.326q-.463 0-.789.326t-.326.79v.442q0 2.904 1.117 4.11q1.118 1.206 2.421 1.654M12 16.212q1.921 0 3.278-1.367q1.357-1.366 1.357-3.287v-1.65q-.831-.2-1.411-.427q-.58-.227-1.028-.514q-.642-.386-1.15-.561q-.51-.175-1.046-.175q-.517 0-1.016.175q-.5.175-1.16.561q-.449.262-1.029.514q-.58.252-1.43.427v1.65q0 1.92 1.357 3.287T12 16.212m-2.596-4.943q.396-.13.738-.295q.343-.164.673-.364q.293-.181.57-.31q.278-.127.615-.127q.356 0 .614.118q.26.119.57.319q.293.18.623.354t.79.305v-.819q-.337-.125-.564-.246t-.464-.252q-.361-.212-.706-.38q-.346-.168-.863-.168t-.872.168q-.355.168-.722.38q-.237.13-.464.252q-.227.121-.538.246zm6.788 3.86q1.323-.448 2.44-1.664q1.118-1.215 1.118-4.119v-.442q0-.464-.326-.79t-.79-.326q-.463 0-.789.326t-.326.79v2.654q0 1.027-.365 1.962t-.962 1.609M12 12.212"/></svg>