<svg xmlns="http://www.w3.org/2000/svg" width="1em" height="1em" viewBox="0 0 24 24"><path fill="currentColor" d="M9.385 20.615q-2.497 0-4.248-1.752q-1.752-1.751-1.752-4.248q0-2.496 1.752-4.248t4.248-1.752q2.496 0 4.248 1.752t1.752 4.248q0 2.497-1.752 4.248q-1.752 1.752-4.248 1.752m0-1q2.075 0 3.537-1.462t1.463-3.538q0-2.075-1.463-3.537T9.385 9.615q-2.075 0-3.538 1.463t-1.462 3.537q0 2.075 1.462 3.538t3.538 1.462m7.373-4.646q.011-.092.011-.175v-.179q0-3.055-2.164-5.22q-2.165-2.164-5.22-2.164h-.179q-.083 0-.175.011q.496-1.469 1.981-2.663q1.486-1.194 3.603-1.194q2.497 0 4.248 1.752q1.752 1.751 1.752 4.248q0 2.117-1.194 3.603q-1.194 1.485-2.663 1.981"/></svg>