<svg xmlns="http://www.w3.org/2000/svg" width="1em" height="1em" viewBox="0 0 24 24"><path fill="currentColor" d="M12 17.096q-.815 0-1.578-.233t-1.435-.676q-.947-.056-1.943-.408t-1.811-1.144q-.816-.793-1.342-2.077q-.526-1.285-.526-3.212v-.442q0-.84.581-1.42q.58-.58 1.421-.58q.781 0 1.35.608q.568.607.644 1.48q.718-.2 1.19-.432l.914-.45q.614-.339 1.193-.551q.578-.213 1.342-.213q.773 0 1.347.213q.574.212 1.188.55q.434.218.91.45q.476.233 1.194.433q.076-.898.646-1.493q.57-.595 1.349-.595q.84 0 1.42.58t.58 1.42v.442q0 1.927-.525 3.212q-.526 1.284-1.342 2.077q-.815.792-1.811 1.144q-.996.352-1.943.408q-.673.442-1.435.675T12 17.097M7.788 15.11q-.57-.693-.939-1.61q-.368-.915-.368-1.942V8.904q0-.464-.326-.79t-.79-.326q-.463 0-.79.326q-.325.326-.325.79v.442q0 2.904 1.117 4.11q1.118 1.206 2.421 1.654m4.21 1.102q1.923 0 3.28-1.367q1.357-1.366 1.357-3.287v-1.65q-.831-.2-1.41-.427q-.58-.227-1.029-.514q-.642-.386-1.15-.561q-.51-.175-1.04-.175t-1.026.175q-.495.175-1.157.561q-.448.262-1.028.514q-.58.252-1.43.427v1.65q0 1.92 1.356 3.287q1.355 1.367 3.277 1.367m.008-6.039q.342 0 .605.118q.262.119.574.319q.166.11.322.198q.156.088.362.194q.162.08.316.016q.153-.065.23-.214q.062-.142 0-.298q-.061-.156-.203-.218q-.183-.087-.331-.164q-.149-.077-.308-.164q-.365-.22-.71-.388q-.346-.168-.863-.168t-.873.164q-.355.165-.721.384q-.155.093-.299.174q-.144.082-.324.162q-.143.062-.21.218q-.07.156-.008.298q.062.142.223.198q.162.056.304-.006q.204-.114.373-.204q.17-.091.35-.182q.293-.181.57-.309q.278-.128.62-.128m4.187 4.956q1.323-.448 2.44-1.664q1.118-1.215 1.118-4.119v-.442q0-.464-.326-.79t-.79-.326q-.463 0-.789.326t-.326.79v2.654q0 1.027-.365 1.962t-.962 1.609M12 12.212"/></svg>