<svg xmlns="http://www.w3.org/2000/svg" width="1em" height="1em" viewBox="0 0 24 24"><path fill="currentColor" d="m6.292 14.162l-.879 2.525q-.055.153-.178.233q-.123.08-.277.08q-.252 0-.396-.206q-.145-.206-.052-.452l3.303-8.946q.062-.154.185-.236q.123-.083.283-.083h.361q.16 0 .283.083q.123.082.185.236l3.361 8.933q.092.246-.058.459q-.151.212-.403.212q-.16 0-.293-.092q-.132-.093-.194-.246l-.892-2.5zm.333-.874h3.692L8.502 8.177H8.44zm9.994 3.968q-1.09 0-1.713-.58t-.623-1.564q0-1.05.745-1.703t1.962-.653q.518 0 1.015.106q.497.107.847.307v-.542q0-.964-.482-1.46t-1.416-.496q-.414 0-.78.113q-.366.112-.737.35q-.149.099-.318.095q-.169-.004-.298-.121q-.129-.118-.137-.284q-.009-.166.133-.27q.475-.367.989-.525q.513-.158 1.154-.158q1.396 0 2.086.718q.69.719.69 2.138v3.992q0 .185-.125.31q-.126.127-.311.127t-.313-.13q-.13-.128-.13-.313v-.686h-.094q-.344.615-.884.922q-.54.307-1.26.307m.02-.789q.953 0 1.583-.716t.63-1.805q-.33-.2-.8-.31q-.47-.11-.921-.11q-.916 0-1.427.42q-.512.417-.512 1.166q0 .615.395.985q.394.37 1.051.37"/></svg>