<svg xmlns="http://www.w3.org/2000/svg" width="1em" height="1em" viewBox="0 0 24 24"><path fill="currentColor" d="m19.523 20.938l-3.454-3.453l-.925.925q-.117.117-.28.127q-.164.01-.3-.127q-.137-.137-.137-.29t.136-.291l.925-.925l-4.988-4.989v4.893q0 1.284-.887 2.142q-.886.858-2.113.858t-2.113-.848q-.887-.848-.887-2.152q0-1.246.877-2.123q.877-.877 2.123-.877q.69 0 1.188.243q.497.243.812.576v-3.712l-6.13-6.13q-.141-.14-.15-.345q-.01-.203.15-.363q.159-.16.353-.16t.354.16L20.23 20.23q.14.14.15.344q.01.204-.15.363q-.16.16-.354.16t-.354-.16m-.95-7.119l1.612-1.573l-1.612-1.6zM10.5 7.65l-1-1V5q0-.348.23-.578q.23-.23.578-.23h3.269q.348 0 .578.23q.23.23.23.578v.923q0 .348-.23.578q-.23.23-.578.23H10.5zm10.846 4.596l-2.6 2.562l2.316 2.265q.136.117.136.275t-.136.294q-.137.137-.285.127q-.148-.01-.285-.127l-5.961-5.911q-.137-.118-.137-.275t.137-.294q.136-.137.284-.137q.148 0 .285.137l2.658 2.657V9h.33z"/></svg>