<svg xmlns="http://www.w3.org/2000/svg" width="1em" height="1em" viewBox="0 0 24 24"><path fill="currentColor" d="M6.885 19.808q-1.247 0-2.123-.877q-.877-.877-.877-2.123q0-1.246.877-2.123q.876-.877 2.123-.877q.575 0 1.091.204q.516.205.909.615V5q0-.348.23-.578q.23-.23.577-.23h3.27q.348 0 .577.23q.23.23.23.578v.923q0 .348-.23.578q-.23.23-.577.23H9.885v10.077q0 1.246-.877 2.123q-.877.877-2.123.877M16.404 15l-3.11-3.06q-.136-.117-.136-.28q0-.164.136-.3q.137-.137.29-.137t.291.137l2.652 2.652v-3.206q0-.373.252-.593q.252-.22.556-.22q.142 0 .288.055t.277.187l1.644 1.644q.131.13.177.27q.046.14.046.301q0 .162-.055.298q-.056.137-.187.267L17.515 15l2.03 1.985q.13.13.186.267q.056.136.056.298t-.053.301q-.053.14-.184.27l-1.6 1.62q-.13.13-.277.186t-.288.056q-.304 0-.556-.218q-.252-.217-.252-.59v-3.187l-2.652 2.652q-.117.118-.28.127q-.164.01-.3-.127q-.137-.136-.137-.29t.136-.29zm.938 4.162l1.612-1.612l-1.612-1.562zm0-5.15l1.612-1.562l-1.612-1.612z"/></svg>