<svg xmlns="http://www.w3.org/2000/svg" width="1em" height="1em" viewBox="0 0 24 24"><path fill="currentColor" d="M5 20q-.213 0-.356-.144q-.144-.144-.144-.357q0-.212.144-.356Q4.788 19 5 19h1.5V4.808q0-.344.232-.576Q6.964 4 7.308 4h6.154q.343 0 .575.232q.232.232.232.576V5h2.423q.344 0 .576.232q.232.232.232.576V19H19q.213 0 .356.144t.144.357q0 .212-.144.356Q19.213 20 19 20h-1.683q-.357 0-.587-.232q-.23-.232-.23-.576V6h-2.23v13.192q0 .344-.233.576q-.232.232-.575.232zm7.27-8q0-.31-.23-.54q-.23-.23-.54-.23q-.31 0-.54.23q-.23.23-.23.54q0 .31.23.54q.23.23.54.23q.31 0 .54-.23q.23-.23.23-.54"/></svg>