<svg xmlns="http://www.w3.org/2000/svg" width="1em" height="1em" viewBox="0 0 24 24"><path fill="currentColor" d="M12 3.433q1.09 1.32 1.998 2.593q.908 1.272 1.644 2.499L21 4.5V12q0 1.863-.71 3.506t-1.927 2.857q-1.215 1.216-2.857 1.926Q13.863 21 12 21t-3.506-.71q-1.642-.711-2.857-1.927q-1.216-1.215-1.926-2.857Q3 13.863 3 12V4.5l5.358 4.025q.736-1.202 1.644-2.487Q10.91 4.754 12 3.433M4 6.5V12q0 1.908.845 3.507q.845 1.599 2.268 2.628q-.511-.635-.812-1.43Q6 15.91 6 15q0-1.137.463-2.553q.462-1.416 1.377-3.062zM12 5q-2.385 2.87-3.692 5.552Q7 13.235 7 15q0 2.075 1.463 3.538T12 20q2.075 0 3.538-1.463T17 15q0-1.765-1.308-4.454Q14.385 7.858 12 5m8 1.5l-3.84 2.879q.915 1.646 1.378 3.062Q18 13.858 18 15q0 .91-.301 1.705q-.3.795-.812 1.43q1.423-1.03 2.268-2.628Q20 13.907 20 12z"/></svg>