<svg xmlns="http://www.w3.org/2000/svg" width="1em" height="1em" viewBox="0 0 24 24"><path fill="currentColor" d="M8.23 20.5q-.213 0-.356-.143q-.143-.144-.143-.357v-3.017q-2.19-.21-3.717-1.717q-1.526-1.506-1.74-3.66q-.037-.233.103-.42q.14-.186.354-.186q.232 0 .369.193q.137.194.179.451q.24 1.848 1.638 3.102Q6.315 16 8.231 16q.202 0 .394-.01T9 15.937q.171.23.363.447q.193.216.387.418q-.25.056-.497.103q-.247.047-.522.078V20q0 .213-.144.357q-.143.143-.356.143m7.538-7.5q-.846 0-1.423-.577q-.577-.577-.577-1.423V5q0-.846.577-1.423Q14.923 3 15.77 3q.846 0 1.423.577q.577.577.577 1.423v6q0 .846-.577 1.423q-.577.577-1.423.577m-8.154-.108q-.613-.2-.999-.704q-.385-.505-.385-1.188V5q0-.846.577-1.423Q7.385 3 8.23 3q.846 0 1.423.577q.577.577.577 1.423v3.675q-.058-.023-.113-.032q-.055-.008-.118-.008q-1.135.096-1.857.923q-.722.827-.722 1.95q0 .32.06.695q.061.374.134.69M15.77 16q1.916 0 3.314-1.254q1.398-1.254 1.638-3.102q.042-.257.179-.45q.137-.194.37-.194q.213 0 .353.187q.14.186.104.419q-.215 2.154-1.741 3.66q-1.526 1.507-3.717 1.717V20q0 .213-.143.357q-.143.143-.357.143q-.213 0-.356-.143q-.144-.144-.144-.357v-3.017q-2.19-.21-3.716-1.717q-1.526-1.506-1.741-3.66q-.037-.233.103-.42q.14-.186.354-.186q.233 0 .37.193q.136.194.178.451q.24 1.848 1.639 3.102Q13.854 16 15.769 16"/></svg>