<svg xmlns="http://www.w3.org/2000/svg" width="1em" height="1em" viewBox="0 0 24 24"><path fill="currentColor" d="M5.415 7.462q-.26-.33-.395-.714q-.135-.385-.135-.786q0-1.042.728-1.771q.729-.73 1.77-.73q1.04 0 1.77.73t.732 1.77q0 .402-.136.787t-.395.714zm4.78 13.076q-1.364 0-2.337-.971q-.973-.972-.973-2.336h-.77l-.884-8.693h4.307l-.884 8.693h-.77q0 .96.679 1.633q.677.674 1.63.674t1.63-.677q.677-.678.677-1.63V6.769q0-1.364.971-2.336q.971-.971 2.335-.971q1.363 0 2.336.971q.973.972.973 2.336v13.77h-1V6.768q0-.952-.677-1.63q-.678-.677-1.63-.677t-1.63.677q-.678.678-.678 1.63V17.23q0 1.364-.971 2.336q-.971.971-2.335.971M7.012 16.23h.746l.657-6.693H6.354zm.746-6.693H6.354h2.061z"/></svg>