<svg xmlns="http://www.w3.org/2000/svg" width="1em" height="1em" viewBox="0 0 24 24"><path fill="currentColor" d="M7.73 20.5v-3.517q-2.35-.216-3.924-1.921Q2.23 13.356 2.23 11h1q0 2.075 1.462 3.538T8.231 16q.202 0 .394-.01T9 15.937q.171.23.363.447q.193.216.387.418q-.25.056-.497.103q-.247.047-.522.078V20.5zm-.115-7.608q-.613-.2-.999-.704q-.385-.505-.385-1.188V5q0-.846.577-1.423Q7.385 3 8.23 3q.846 0 1.423.577q.577.577.577 1.423v3.615H7.385V11q0 .506.057.974q.058.468.173.918M15.77 13q-.846 0-1.423-.577q-.577-.577-.577-1.423V5q0-.846.577-1.423Q14.923 3 15.77 3q.846 0 1.423.577q.577.577.577 1.423v6q0 .846-.577 1.423q-.577.577-1.423.577m-.5 7.5v-3.517q-2.35-.216-3.925-1.921Q9.77 13.356 9.77 11h1q0 2.075 1.463 3.538T15.769 16q2.075 0 3.538-1.463T20.769 11h1q0 2.356-1.575 4.062q-1.575 1.705-3.925 1.92V20.5z"/></svg>