<svg xmlns="http://www.w3.org/2000/svg" width="1em" height="1em" viewBox="0 0 24 24"><path fill="currentColor" d="M10.75 10.5q-.442 0-.832-.187q-.39-.188-.756-.425q-.214-.144-.434-.266q-.22-.122-.478-.122q-.275 0-.494.109q-.22.108-.414.27q-.073.084-.167.14t-.21.054q-.213 0-.366-.153t-.153-.366q0-.123.056-.234q.056-.11.161-.178q.34-.275.739-.458Q7.8 8.5 8.25 8.5q.423 0 .793.19q.37.19.738.408q.232.164.472.283q.24.119.497.119q.296 0 .93-.408q.074-.073.162-.119q.089-.046.193-.046q.213 0 .366.153t.153.366q0 .123-.056.234t-.161.178q-.34.275-.739.458q-.398.184-.848.184m0 5q-.442 0-.832-.187q-.39-.188-.756-.425q-.214-.144-.434-.266q-.22-.122-.478-.122q-.275 0-.494.109q-.22.108-.414.27q-.073.084-.167.14t-.21.054q-.213 0-.366-.153t-.153-.366q0-.123.056-.234q.056-.11.161-.178q.34-.275.739-.458q.398-.184.848-.184q.423 0 .793.19q.37.19.738.408q.232.164.472.283q.24.119.497.119q.338 0 .573-.229q.235-.229.55-.275q.15-.034.277.035q.127.069.173.184q.098.058.145.173q.047.114.009.25q-.02.066-.056.119q-.036.053-.084.1q-.34.276-.739.46q-.398.183-.848.183M4.615 19q-.69 0-1.152-.462Q3 18.075 3 17.385V6.615q0-.69.463-1.152Q3.925 5 4.615 5h14.77q.69 0 1.152.463q.463.462.463 1.152v10.77q0 .69-.462 1.152q-.463.463-1.153.463zm0-1H15V6H4.615q-.23 0-.423.192Q4 6.385 4 6.615v10.77q0 .23.192.423q.193.192.423.192M18 12.77q.31 0 .54-.23q.23-.23.23-.54q0-.31-.23-.54q-.23-.23-.54-.23q-.31 0-.54.23q-.23.23-.23.54q0 .31.23.54q.23.23.54.23m0 4q.31 0 .54-.23q.23-.23.23-.54q0-.31-.23-.54q-.23-.23-.54-.23q-.31 0-.54.23q-.23.23-.23.54q0 .31.23.54q.23.23.54.23m-.288-8.078h.576q.162 0 .283-.12t.121-.284v-.576q0-.162-.12-.283t-.284-.121h-.576q-.162 0-.283.12t-.121.284v.576q0 .162.12.283t.284.121"/></svg>