<svg xmlns="http://www.w3.org/2000/svg" width="1em" height="1em" viewBox="0 0 24 24"><path fill="currentColor" d="m4.425 4.04l.96.96h-.77q-.23 0-.423.192Q4 5.385 4 5.615v10.462q0 .27.173.442t.442.173H15.7L2.13 3.162q-.159-.134-.159-.341t.16-.367q.16-.16.354-.16q.194 0 .353.16L20.815 20.43q.14.138.14.353q0 .214-.14.354q-.16.16-.366.16t-.341-.16l-3.37-3.446h-.7l.527.527q.131.131.187.275t.056.296v.402q0 .344-.23.576q-.231.232-.572.232H7.992q-.34 0-.57-.232q-.23-.232-.23-.576v-.402q0-.153.056-.296t.187-.275l.527-.527H4.615q-.69 0-1.152-.462Q3 16.767 3 16.077V5.615q0-.713.463-1.144q.462-.43.962-.43M19.385 4q.346 0 .642.124q.296.124.51.338t.339.51q.124.297.124.643v11.12q0 .212-.144.356t-.357.144q-.212 0-.356-.144q-.143-.144-.143-.356V5.615q0-.269-.173-.442T19.385 5H8.37q-.25 0-.375-.155t-.125-.341q0-.187.125-.345T8.371 4zm-9.689 6.727"/></svg>