<svg xmlns="http://www.w3.org/2000/svg" width="1em" height="1em" viewBox="0 0 24 24"><path fill="currentColor" d="M4 18.5q-.213 0-.356-.144Q3.5 18.212 3.5 18t.144-.356Q3.787 17.5 4 17.5h10q.213 0 .356.144q.144.144.144.357t-.144.356q-.143.143-.356.143zm14 0q-.213 0-.356-.144q-.144-.144-.144-.357t.144-.356q.144-.143.356-.143h2q.213 0 .356.144q.144.144.144.357t-.144.356q-.143.143-.356.143zm-14-4q-.213 0-.356-.144Q3.5 14.212 3.5 14t.144-.356Q3.787 13.5 4 13.5h2q.213 0 .356.144q.144.144.144.357t-.144.356Q6.213 14.5 6 14.5zm6 0q-.213 0-.356-.144Q9.5 14.212 9.5 14t.144-.356q.144-.143.356-.143h10q.213 0 .356.144q.144.144.144.357t-.144.356q-.143.143-.356.143zm-6-4q-.213 0-.356-.144Q3.5 10.212 3.5 10t.144-.356Q3.787 9.5 4 9.5h11q.213 0 .356.144q.144.144.144.357t-.144.356q-.143.143-.356.143zm15 0q-.213 0-.356-.144q-.144-.144-.144-.357t.144-.356Q18.788 9.5 19 9.5h1q.213 0 .356.144q.144.144.144.357t-.144.356q-.143.143-.356.143zm-15-4q-.213 0-.356-.144q-.144-.144-.144-.357t.144-.356Q3.787 5.5 4 5.5h5q.213 0 .356.144q.144.144.144.357t-.144.356Q9.213 6.5 9 6.5zm9 0q-.213 0-.356-.144q-.144-.144-.144-.357t.144-.356Q12.788 5.5 13 5.5h7q.213 0 .356.144q.144.144.144.357t-.144.356Q20.213 6.5 20 6.5z"/></svg>