<svg xmlns="http://www.w3.org/2000/svg" width="1em" height="1em" viewBox="0 0 24 24"><path fill="currentColor" d="M7.077 16.385H6q-.666 0-1.14-.475q-.475-.474-.475-1.14V7.5h-.27q-.212 0-.356-.144t-.144-.357q0-.212.144-.356q.144-.143.356-.143h2.962V4.77h-.808q-.212 0-.356-.145t-.144-.356q0-.213.144-.356q.144-.144.356-.144h2.616q.212 0 .356.144t.144.357q0 .213-.144.356t-.356.143h-.808V6.5h2.961q.213 0 .357.144q.143.144.143.357q0 .212-.143.356q-.144.143-.357.143h-.269v7.27q0 .666-.474 1.14q-.475.475-1.141.475H8.077v4.019q0 .156-.14.233q-.14.078-.275-.025l-.385-.293q-.096-.073-.148-.178t-.052-.237zm9.342 4q-1.319 0-2.254-.938q-.934-.938-.934-2.255v-7q0-1.317.939-2.254Q15.109 7 16.428 7q1.318 0 2.253.938q.934.937.934 2.254v7q0 1.317-.939 2.255t-2.257.938M6 15.385h3.154q.27 0 .442-.173q.173-.174.173-.443v-1.423H7.827q-.177 0-.31-.133q-.132-.132-.132-.31t.132-.309q.133-.132.31-.132h1.942v-2.039H7.827q-.177 0-.31-.133q-.132-.132-.132-.31t.132-.309q.133-.133.31-.133h1.942V7.5H5.385v7.27q0 .268.173.442q.173.173.442.173M16.433 8q-.912 0-1.557.636q-.645.635-.645 1.556v.5h4.384v-.5q0-.92-.635-1.556Q17.344 8 16.433 8m-2.202 7.692h4.384v-4h-4.384zm2.192 3.693q.921 0 1.557-.644q.635-.644.635-1.549v-.5h-4.384v.5q0 .905.644 1.549q.644.644 1.548.644m0-2.693"/></svg>