<svg xmlns="http://www.w3.org/2000/svg" width="1em" height="1em" viewBox="0 0 24 24"><path fill="currentColor" d="m9.5 18.073l1.735-1.735q.165-.165.353-.162q.189.003.354.162q.166.166.169.357q.002.192-.163.357l-2.383 2.383q-.13.13-.267.183q-.136.053-.298.053t-.298-.053q-.137-.053-.267-.183l-2.383-2.383q-.165-.165-.163-.357q.003-.191.169-.357q.165-.16.354-.162q.188-.003.353.162L8.5 18.073V9.915L3.215 4.631q-.16-.16-.16-.354t.16-.354q.16-.16.354-.16t.354.16l16.115 16.115q.16.16.16.354q0 .195-.16.354q-.16.16-.353.16q-.195 0-.354-.16L9.5 10.916zm5.5-6.13q-.213 0-.357-.147q-.143-.146-.143-.36v-5.52l-1.746 1.746q-.16.16-.354.16t-.354-.16q-.16-.16-.16-.354q0-.195.16-.354l2.389-2.389q.13-.13.267-.183q.136-.053.298-.053t.298.053q.137.053.267.183l2.389 2.389q.16.16.16.354q0 .194-.16.354q-.16.16-.354.16t-.354-.16L15.5 5.915v5.527q0 .22-.156.36q-.156.14-.344.14"/></svg>