<svg xmlns="http://www.w3.org/2000/svg" width="1em" height="1em" viewBox="0 0 24 24"><path fill="currentColor" d="M10.715 20.808q-.973 0-1.479-.577q-.505-.576-.505-1.313q0-.491.21-.969t.676-.782q.57-.388.946-1.044q.375-.656.558-1.454q-.246-.094-.483-.217q-.236-.123-.457-.32l-2.339.845q-.367.13-.696.211q-.328.081-.677.081q-1.294 0-2.285-1.16q-.992-1.159-.992-3.394q0-.973.573-1.479q.573-.505 1.287-.505q.515 0 .996.21q.48.21.785.676q.388.57 1.044.946q.656.375 1.454.558q.094-.246.217-.483q.123-.236.32-.457l-.845-2.339q-.13-.348-.211-.69q-.081-.342-.081-.665q0-1.524 1.327-2.41q1.327-.885 3.227-.885q.973 0 1.479.57q.505.57.505 1.28q0 .487-.21.977t-.676.794q-.57.389-.945 1.054q-.376.666-.56 1.464q.266.113.504.24q.239.127.437.296l2.339-.869q.367-.13.685-.199q.318-.068.667-.068q1.663 0 2.48 1.406q.818 1.405.818 3.148q0 .973-.608 1.479q-.608.505-1.348.505q-.475 0-.928-.21q-.453-.21-.757-.676q-.388-.57-1.044-.945q-.656-.376-1.454-.56q-.094.247-.217.474q-.123.227-.32.467l.845 2.339q.125.345.209.658q.083.313.083.617q-.013 1.298-1.164 2.336q-1.15 1.039-3.39 1.039m1.29-7q.755 0 1.279-.529q.524-.528.524-1.284q0-.755-.529-1.279q-.528-.524-1.284-.524q-.755 0-1.279.529q-.524.528-.524 1.284q0 .755.529 1.279q.528.524 1.284.524m-1.309-4.281q.285-.165.582-.241q.297-.076.6-.082q.2-1.03.686-1.873q.486-.843 1.257-1.346q.221-.158.335-.385q.113-.227.113-.548q0-.362-.236-.61q-.237-.25-.748-.25q-.993 0-2.248.47q-1.254.468-1.306 1.832q0 .256.072.475q.072.22.122.394zm-4.234 4.742q.33 0 .901-.194l2.183-.771q-.165-.246-.25-.543q-.086-.298-.092-.64q-1.03-.2-1.873-.685q-.843-.486-1.346-1.257q-.158-.221-.417-.335q-.258-.113-.516-.113q-.417 0-.639.236q-.22.237-.22.748q0 1.411.58 2.483q.582 1.071 1.689 1.071m4.253 5.539q1.215 0 2.39-.543q1.176-.542 1.164-1.832q0-.235-.072-.44q-.072-.206-.122-.356l-.771-2.183q-.285.184-.61.26q-.327.076-.573.082q-.2 1.03-.685 1.873q-.486.843-1.257 1.346q-.202.139-.328.397q-.126.26-.12.511q.006.354.236.62q.231.265.748.265m8.159-5.539q.372 0 .653-.211q.28-.212.28-.773q0-.993-.454-2.26q-.455-1.268-1.847-1.294q-.256 0-.466.05q-.21.05-.403.119l-2.164.796q.146.266.232.572q.085.307.091.61q1.03.2 1.873.686q.843.486 1.346 1.257q.114.183.362.316q.248.132.497.132m-6.753.527"/></svg>