<svg xmlns="http://www.w3.org/2000/svg" width="1em" height="1em" viewBox="0 0 24 24"><path fill="currentColor" d="M7.175 16.625q-1.513-.554-2.47-1.884q-.955-1.33-.955-3.049q0-1.36.534-2.474q.533-1.114 1.254-1.991q.722-.877 1.486-1.494t1.226-.964V5.9q0 .951.662 1.61q.661.658 1.613.658q.37 0 .708-.13q.338-.131.615-.349l.306-.246q.623.473 1.077 1.081q.454.608.707 1.339l-.81.81q-.126-.543-.383-1.032q-.257-.488-.637-.905q-.35.219-.757.326q-.407.106-.826.106q-1.12 0-1.997-.68q-.878-.68-1.163-1.781q-1.103 1.002-1.86 2.255q-.755 1.252-.755 2.731q0 1.198.592 2.165q.593.966 1.568 1.472q-.077-.154-.116-.317q-.038-.164-.038-.356q.011-.423.191-.803q.18-.38.472-.672L9 11.6l1.554 1.542q.011.012.023.03q.011.016.023.028l-.713.713l-.02-.028l-.02-.023l-.847-.84l-.873.872q-.183.183-.28.384q-.097.2-.097.459q0 .28.117.499q.118.218.316.381zm-1.506 5.74l-.707-.707L20.658 5.962l.707.707l-4.792 4.793h4.792v1h-5.811l-1.692 1.692l1.942 1.942h5.561v1h-4.561l3.427 3.427l-.708.708l-3.427-3.427v4.561h-1v-5.561l-1.942-1.942l-1.712 1.711v5.792h-1v-4.792z"/></svg>