<svg xmlns="http://www.w3.org/2000/svg" width="1em" height="1em" viewBox="0 0 24 24"><path fill="currentColor" d="M15.287 5.096q0 .662-.251 1.056t-.692.692q-.613.414-.964 1.08q-.351.666-.5 1.574q-.065.294-.333.38t-.5-.103L8.843 6.687q-.104-.11-.137-.295t.033-.363q.423-1.24 1.653-2.039q1.23-.798 2.851-.798q.93 0 1.486.564q.557.563.557 1.34m2.226 3.635q1.42 0 2.357 1.153q.938 1.153.938 2.747q0 1.132-.637 1.895q-.636.762-1.577.743l-.819-.019q-.104 0-.205-.049q-.1-.05-.168-.116l-4.296-4.222q-.152-.176-.109-.432t.274-.34l2.887-1.093q.342-.13.684-.199q.343-.068.671-.068m-6.72 12.077q-.91 0-1.486-.551t-.576-1.334q0-.535.23-1.003t.656-.753q.57-.369.945-1.025q.376-.655.56-1.473q-.285-.113-.512-.236q-.227-.123-.43-.3l-2.338.844q-.367.13-.7.211q-.332.081-.68.081q-1.518 0-2.394-1.096q-.876-1.096-.876-2.804q0-1.294.638-1.966q.637-.672 1.645-.672q.47 0 1.044.207q.575.208.89.508L2.866 4.921q-.146-.146-.155-.347q-.01-.2.155-.366q.166-.166.357-.166q.191 0 .357.166l16.21 16.215q.146.146.146.354t-.147.354q-.146.146-.347.146q-.2 0-.347-.146l-3.88-3.887q.038.096.038.193v.192q-.075 1.37-1.278 2.274q-1.203.905-3.182.905"/></svg>