<svg xmlns="http://www.w3.org/2000/svg" width="1em" height="1em" viewBox="0 0 24 24"><path fill="currentColor" d="m19.833 22.26l-3.71-3.71q-.385.288-.798.51q-.413.22-.894.355q.384-.288.634-.711t.289-.923l-.916-.916q.02.097.03.173q.009.077.009.174q-.058.95-.771 1.619q-.714.669-1.706.669q-1.038 0-1.77-.718q-.73-.719-.73-1.732q0-.479.177-.91q.177-.432.544-.8l1.362-1.33l-.714-.714l-1.336 1.337q-.495.494-.764 1.11q-.269.615-.269 1.307q0 .742.305 1.388t.845 1.11q-2.038-.704-3.344-2.478Q5 15.296 5 13q0-1.24.334-2.325t.876-2.038l-3.47-3.47l.714-.713l17.092 17.092zm-2.256-5.11L7.407 6.98q.974-1.147 1.976-1.948Q10.385 4.23 11 3.788V5.3q0 1.387.933 2.193q.932.807 2.092.807q.483 0 .918-.156q.436-.156.838-.46l.43-.338q1.281.973 2.035 2.451Q19 11.275 19 13q0 1.194-.373 2.246t-1.05 1.904"/></svg>