<svg xmlns="http://www.w3.org/2000/svg" width="1em" height="1em" viewBox="0 0 24 24"><path fill="currentColor" d="M4.477 15.83q0 .899.461 1.792q.462.893 1.452 1.884l-.719.682Q4.535 19.058 4.006 18q-.53-1.058-.53-2.163q0-.91.279-1.917q.278-1.007.864-2.29q.614-1.31.848-2.114q.235-.803.235-1.528q0-.842-.49-1.68q-.489-.837-1.574-1.771l.677-.725q1.218 1.03 1.802 2.063q.585 1.033.585 2.113q0 .835-.256 1.744t-.875 2.231q-.575 1.274-.834 2.17q-.26.898-.26 1.698m3.827-.006q0 .898.461 1.785q.462.886 1.452 1.877l-.719.682q-1.136-1.13-1.665-2.179q-.53-1.048-.53-2.153q0-.91.279-1.917q.278-1.007.864-2.29q.614-1.31.848-2.123q.235-.813.235-1.538q0-.842-.49-1.67q-.489-.828-1.574-1.762l.677-.745Q9.36 4.823 9.944 5.856q.585 1.032.585 2.113q0 .835-.256 1.75q-.256.916-.875 2.239q-.575 1.273-.835 2.17t-.26 1.697m4.082 5.675v-19h1v4.842l3.75-3.705l.707.713l-4.457 4.458V11.5h2.692l4.458-4.458l.688.689l-3.68 3.769h4.842v1h-4.843l3.706 3.744l-.713.714l-4.458-4.458h-2.692v2.692l4.457 4.458l-.688.688l-3.77-3.68V21.5z"/></svg>