<svg xmlns="http://www.w3.org/2000/svg" width="1em" height="1em" viewBox="0 0 24 24"><path fill="currentColor" d="M12.5 16.633V21q0 .213-.143.357q-.144.143-.357.143t-.357-.143Q11.5 21.213 11.5 21v-4.342L8.104 20.01q-.166.14-.357.147q-.191.006-.35-.153t-.16-.354q0-.194.16-.354l3.87-3.896l-2.692-2.692l-3.871 3.896q-.16.16-.351.162q-.191.003-.357-.162q-.14-.14-.14-.344t.14-.364L7.342 12.5H3q-.213 0-.357-.143Q2.5 12.213 2.5 12t.143-.357Q2.787 11.5 3 11.5h4.367l-5.18-5.18q-.147-.147-.153-.348q-.007-.2.158-.366q.166-.166.357-.166q.191 0 .357.166L19.285 21.99q.146.147.155.345q.01.198-.155.363q-.166.165-.357.165q-.191 0-.357-.165zm2.692-4.133H13.24l-1.74-1.74V8.808L7.396 4.704q-.16-.16-.162-.351q-.003-.191.162-.357q.14-.14.344-.14t.364.14L11.5 7.342V3q0-.213.143-.357q.144-.143.357-.143t.357.143q.143.144.143.357v4.342l3.396-3.352q.166-.14.357-.147q.191-.006.35.153t.16.354q0 .194-.16.354L12.5 8.808V11.5h2.692l4.104-4.104q.16-.16.351-.162q.191-.003.357.162q.14.14.14.344t-.14.364L16.658 11.5H21q.213 0 .357.143q.143.144.143.357t-.143.357q-.144.143-.357.143h-4.342l3.352 3.396q.073.073.106.165t.034.192q0 .1-.037.19q-.036.088-.11.16q-.159.16-.353.16t-.354-.16z"/></svg>