<svg xmlns="http://www.w3.org/2000/svg" width="1em" height="1em" viewBox="0 0 24 24"><path fill="currentColor" d="M6.944 16.454q-1.452-.575-2.323-1.87q-.871-1.296-.871-2.892q0-1.36.534-2.474q.533-1.114 1.254-1.991q.722-.877 1.486-1.494t1.226-.964V5.9q0 .951.662 1.61q.661.658 1.613.658q.37 0 .708-.13q.338-.131.615-.349l.306-.246q.623.468 1.077 1.078q.454.61.707 1.342L10.96 12.84l-.026-.026l-.026-.026L9 10.892l-1.935 1.935q-.377.377-.596.868q-.219.492-.219 1.042q0 .5.18.927q.18.428.514.79m.873-.452q-.265-.237-.416-.559q-.151-.322-.151-.706q0-.368.143-.664q.144-.296.38-.533L9 12.313l1.213 1.183q.018.012.03.029q.01.017.022.029zM5.67 22.365l-.707-.707L20.658 5.962l.707.707l-4.792 4.793h4.792v1h-5.811l-1.692 1.692l1.942 1.942h5.561v1h-4.561l3.427 3.427l-.708.708l-3.427-3.427v4.561h-1v-5.561l-1.942-1.942l-1.712 1.711v5.792h-1v-4.792z"/></svg>