<svg xmlns="http://www.w3.org/2000/svg" width="1em" height="1em" viewBox="0 0 24 24"><path fill="currentColor" d="M5.463 20.36q-.175.14-.378.137q-.204-.003-.35-.163q-.812-.878-1.323-1.942Q2.9 17.33 2.9 16.125q0-1.196.33-2.32q.332-1.126.812-2.213q.414-.931.748-1.895q.335-.964.335-1.993q0-.998-.498-1.833q-.498-.834-1.219-1.512q-.152-.14-.143-.331q.01-.191.15-.354q.14-.168.342-.171q.2-.003.366.137q.892.798 1.447 1.837q.555 1.038.555 2.223q0 1.137-.337 2.182q-.338 1.045-.775 2.086q-.425 1.003-.769 2.018Q3.9 15 3.9 16.098q0 1.023.448 1.932q.448.908 1.156 1.641q.14.146.128.347q-.013.201-.169.342m4 0q-.175.14-.378.137q-.204-.003-.35-.163q-.812-.878-1.323-1.942Q6.9 17.33 6.9 16.125q0-1.196.33-2.32q.332-1.126.812-2.213q.414-.931.748-1.895q.335-.964.335-1.993q0-.998-.498-1.833q-.498-.834-1.219-1.512q-.152-.14-.143-.34q.01-.202.15-.357q.14-.175.342-.169q.2.007.366.147q.892.798 1.447 1.827q.555 1.03.555 2.236q0 1.114-.328 2.176q-.328 1.061-.764 2.079q-.425 1.007-.78 2.025T7.9 16.1q0 1.022.448 1.93t1.156 1.642q.14.146.128.347q-.013.201-.169.342m2.922.64V3q0-.213.143-.357q.143-.143.357-.143q.213 0 .356.143q.144.144.144.357v4.342L16.78 3.99q.16-.16.35-.16t.357.166q.16.16.16.354t-.16.354l-4.103 4.104V11.5h2.692l4.104-4.104q.16-.16.354-.16q.194 0 .353.16q.14.14.14.344t-.14.364L17.542 11.5h4.343q.213 0 .356.143q.144.144.144.357t-.144.357q-.143.143-.356.143h-4.343l3.352 3.396q.16.16.16.351t-.166.357q-.16.16-.353.16q-.195 0-.354-.16L16.077 12.5h-2.692v2.692l4.103 4.104q.16.16.16.354t-.16.354q-.14.14-.344.14t-.363-.14l-3.396-3.346V21q0 .213-.144.357q-.143.143-.356.143q-.214 0-.357-.143q-.143-.144-.143-.357"/></svg>