<svg xmlns="http://www.w3.org/2000/svg" width="1em" height="1em" viewBox="0 0 24 24"><path fill="currentColor" d="M5 14q0-1.798.702-3.29q.702-1.493 1.673-2.662q.971-1.17 1.99-1.993Q10.385 5.23 11 4.788V6.3q0 1.387.933 2.193q.932.807 2.092.807q.483 0 .918-.156q.436-.156.838-.46l.43-.338q1.281.973 2.035 2.451Q19 12.275 19 14q0 2.296-1.306 4.07q-1.306 1.774-3.344 2.478q.54-.465.845-1.11q.305-.646.305-1.388q0-.673-.26-1.301q-.26-.628-.748-1.116L12 13.196l-2.467 2.437q-.495.494-.764 1.11q-.269.615-.269 1.307q0 .742.305 1.388t.845 1.11q-2.038-.704-3.344-2.478Q5 16.296 5 14m7 .592l1.779 1.748q.348.348.534.777q.187.43.187.933q0 1.013-.73 1.732q-.732.718-1.77.718t-1.77-.718q-.73-.719-.73-1.732q0-.479.177-.91q.177-.432.544-.8z"/></svg>