<svg xmlns="http://www.w3.org/2000/svg" width="1em" height="1em" viewBox="0 0 24 24"><path fill="currentColor" d="M8.6 14.98q.427 1.028 1.145 1.602q.718.574 1.74.81v.733q0 .196.147.343q.147.147.343.147t.343-.147q.147-.147.147-.343v-.683q1.077-.09 2.064-.773q.986-.682.986-2.119q0-1.05-.638-1.79q-.639-.74-2.439-1.39q-1.653-.578-2.113-.991q-.46-.414-.46-1.179q0-.765.598-1.275t1.587-.51q.762 0 1.27.35q.507.348.822.885l.87-.342Q14.66 7.587 13.98 7.1t-1.465-.542v-.683q0-.196-.147-.343q-.147-.147-.343-.147t-.343.147q-.147.147-.147.343v.683q-1.308.217-1.98.975q-.67.757-.67 1.667q0 1.079.678 1.727q.677.648 2.287 1.23q1.613.595 2.168 1.074q.555.479.555 1.319q0 1.056-.77 1.52q-.77.465-1.643.465t-1.569-.503q-.695-.503-1.11-1.432zM12.003 21q-1.866 0-3.51-.708q-1.643-.709-2.859-1.924q-1.216-1.214-1.925-2.856Q3 13.87 3 12.003q0-1.866.708-3.51q.709-1.643 1.924-2.859q1.214-1.216 2.856-1.925Q10.13 3 11.997 3q1.866 0 3.51.708q1.643.709 2.859 1.924q1.216 1.214 1.925 2.856Q21 10.13 21 11.997q0 1.866-.708 3.51q-.709 1.643-1.924 2.859q-1.214 1.216-2.856 1.925Q13.87 21 12.003 21"/></svg>