<svg xmlns="http://www.w3.org/2000/svg" width="1em" height="1em" viewBox="0 0 24 24"><path fill="currentColor" d="M3 6.615q0-.69.463-1.152Q3.925 5 4.615 5h14.77q.69 0 1.152.463q.463.462.463 1.152V9q0 .213-.144.356q-.144.144-.357.144q-.212 0-.356-.144Q20 9.213 20 9V6.615q0-.23-.192-.423Q19.615 6 19.385 6H4.615q-.23 0-.423.192Q4 6.385 4 6.615V9q0 .213-.144.356T3.5 9.5q-.212 0-.356-.144Q3 9.213 3 9zM4.615 19q-.69 0-1.152-.462Q3 18.075 3 17.385V15q0-.213.144-.356q.144-.144.357-.144q.212 0 .356.144Q4 14.788 4 15v2.385q0 .23.192.423q.193.192.423.192h14.77q.23 0 .423-.192q.192-.193.192-.423V15q0-.213.144-.356t.357-.144q.212 0 .356.144q.143.144.143.356v2.385q0 .69-.462 1.152q-.463.463-1.153.463zM10 16.5q.14 0 .267-.07t.19-.21L14 9.134l1.542 3.084q.064.14.191.21q.127.071.267.071h4.5q.213 0 .356-.144Q21 12.212 21 12t-.144-.356q-.143-.143-.356-.143h-4.183l-1.86-3.72q-.059-.126-.178-.178t-.27-.052q-.15 0-.276.052t-.19.179L10 14.865l-1.542-3.084q-.064-.14-.191-.21Q8.14 11.5 8 11.5H3.5q-.213 0-.356.144Q3 11.788 3 12t.144.356q.143.143.356.143h4.183l1.86 3.72q.063.14.19.21q.127.07.267.07m2-4.5"/></svg>