<svg xmlns="http://www.w3.org/2000/svg" width="1em" height="1em" viewBox="0 0 24 24"><path fill="currentColor" d="M8.238 18L4 12l4.277-6H20v12zm.55-1H19V7H8.788L5.22 12zM19 17V7zm-9.615-4.23q.31 0 .539-.23q.23-.23.23-.54q0-.31-.23-.54q-.23-.23-.54-.23q-.309 0-.539.23q-.23.23-.23.54q0 .31.23.54q.23.23.54.23m3.5 0q.31 0 .539-.23q.23-.23.23-.54q0-.31-.23-.54q-.23-.23-.54-.23q-.309 0-.539.23q-.23.23-.23.54q0 .31.23.54q.23.23.54.23m3.5 0q.31 0 .539-.23q.23-.23.23-.54q0-.31-.23-.54q-.23-.23-.54-.23q-.309 0-.539.23q-.23.23-.23.54q0 .31.23.54q.23.23.54.23"/></svg>