<svg xmlns="http://www.w3.org/2000/svg" width="1em" height="1em" viewBox="0 0 24 24"><path fill="currentColor" d="M1.5 20.5V8.437q-.45-.218-.725-.586Q.5 7.483.5 7q0-.44.388-1.025Q1.277 5.39 2 4.712q.723.678 1.112 1.263Q3.5 6.56 3.5 7q0 .484-.275.851q-.275.368-.725.586V13.5h3V11q0-.587.39-1.017q.39-.431 1.006-.471h.692q-.525-.483-.806-1.089Q6.5 7.817 6.5 7.1q0-.87.418-1.61q.417-.739 1.12-1.217L12 1.596l3.962 2.677q.703.478 1.12 1.218T17.5 7.1q0 .717-.282 1.323t-.806 1.089h.692q.615.04 1.006.47q.39.431.39 1.018v2.5h3V8.437q-.45-.218-.725-.586Q20.5 7.483 20.5 7q0-.44.388-1.025q.389-.585 1.112-1.263q.723.678 1.112 1.263Q23.5 6.56 23.5 7q0 .484-.275.851q-.275.368-.725.586V20.5h-9V17q0-.617-.441-1.059Q12.617 15.5 12 15.5t-1.059.441Q10.5 16.383 10.5 17v3.5zm8.4-11h4.2q.992 0 1.696-.704t.704-1.693q0-.618-.283-1.156q-.282-.537-.798-.87L12 2.804L8.58 5.077q-.515.333-.797.87q-.283.538-.283 1.156q0 .99.704 1.693q.704.704 1.696.704m-7.4 10h7V17q0-1.042.729-1.77q.728-.73 1.769-.73q1.04 0 1.771.73q.731.728.731 1.77v2.5h7v-5h-4V11q0-.212-.144-.356T17 10.5H7q-.212 0-.356.144T6.5 11v3.5h-4zM12 9.512"/></svg>