<svg xmlns="http://www.w3.org/2000/svg" width="1em" height="1em" viewBox="0 0 24 24"><path fill="currentColor" d="M10.515 13.104h2.97l.638 1.76q.056.142.16.216q.105.074.248.074q.234 0 .364-.179q.13-.179.043-.408l-2.415-6.43q-.056-.124-.15-.188q-.096-.064-.22-.064h-.307q-.142 0-.228.074q-.085.074-.141.197l-2.39 6.436q-.068.204.04.383t.342.179q.143 0 .238-.065t.15-.206zm.247-.804L11.95 9h.1l1.188 3.3zM12 21q-1.863 0-3.506-.701q-1.642-.7-2.857-1.916q-1.216-1.216-1.926-2.848Q3 13.902 3 12.038q0-.761.125-1.503q.125-.743.356-1.48q.067-.207.262-.296q.195-.09.372-.005q.202.084.278.299q.076.214.009.428q-.189.627-.295 1.257Q4 11.368 4 12q0 3.35 2.325 5.675T12 20q3.35 0 5.675-2.325T20 12q0-3.35-2.325-5.675T12 4q-.638 0-1.255.097q-.616.097-1.21.291q-.214.068-.416-.015t-.3-.265q-.098-.183-.012-.369t.274-.252q.673-.237 1.377-.362T11.885 3q1.882 0 3.544.701q1.661.7 2.896 1.926q1.235 1.225 1.955 2.867Q21 10.137 21 12t-.71 3.506q-.711 1.642-1.927 2.857q-1.215 1.216-2.857 1.926Q13.863 21 12 21M5.923 6.808q-.356 0-.62-.265t-.265-.62q0-.356.265-.62t.62-.265q.356 0 .62.265t.265.62q0 .356-.265.62t-.62.265M12 12"/></svg>