<svg xmlns="http://www.w3.org/2000/svg" width="1em" height="1em" viewBox="0 0 24 24"><path fill="currentColor" d="M20.802 20.942L2.188 2.31q-.146-.147-.146-.347t.146-.348q.166-.165.367-.165q.2 0 .347.165L21.535 20.23q.146.146.146.347q0 .2-.166.366q-.146.146-.347.146q-.2 0-.366-.146M4 3.322V6.2q0 .194-.143.347q-.144.153-.357.153q-.194 0-.347-.153Q3 6.394 3 6.2V3.315q0-.348.124-.643q.124-.295.322-.512l.739.738q-.089.096-.137.202Q4 3.206 4 3.321M19.385 19.7H16.5q-.194 0-.347-.153Q16 19.394 16 19.2q0-.213.153-.357q.153-.143.347-.143h2.879q.115 0 .221-.048t.213-.144l.702.707q-.217.218-.5.351q-.282.134-.63.134M6.767 2.7l-1-1h1.758q.194 0 .335.143q.14.144.14.357q0 .194-.143.347q-.144.153-.357.153zM21 16.933l-1-1v-.758q0-.194.153-.335q.153-.14.347-.14q.213 0 .357.143q.143.144.143.357zM4.615 19.725q-.69 0-1.152-.462Q3 18.8 3 18.11v-2.885q0-.213.143-.357q.144-.143.357-.143t.357.143t.143.357v2.885q0 .23.192.423q.193.192.423.192H7.5q.213 0 .357.143t.143.357q0 .213-.143.357q-.144.143-.357.143zm11.885-17q-.213 0-.357-.143T16 2.225q0-.213.143-.357q.144-.143.357-.143h2.885q.69 0 1.152.462Q21 2.65 21 3.34v2.885q0 .213-.143.357q-.144.143-.357.143t-.357-.143T20 6.225V3.34q0-.23-.192-.423q-.193-.192-.423-.192zM6.194 11.917q-.238 0-.363.196t-.058.433q.437 1.575 1.592 2.735q1.156 1.16 2.731 1.646q.258.073.482-.051q.224-.124.224-.388q0-.176-.148-.32q-.148-.143-.325-.21q-1.283-.433-2.238-1.36t-1.343-2.235q-.067-.182-.216-.314q-.15-.132-.338-.132m11.618-2.384q.238 0 .363-.195t.058-.434q-.437-1.575-1.596-2.735q-1.158-1.16-2.733-1.646q-.258-.073-.479.051q-.221.124-.221.388q0 .176.148.32q.148.143.325.21q1.283.433 2.237 1.36t1.344 2.235q.067.182.216.314q.15.132.338.132m-11.612 0q-.238 0-.363-.195t-.058-.434q.23-.8.646-1.488q.415-.687 1.035-1.243l.688.689q-.49.446-.845 1.008q-.355.563-.55 1.217q-.066.182-.216.314q-.149.132-.337.132m9.688 5.05l.689.688q-.517.575-1.195.988q-.678.412-1.478.668q-.258.073-.479-.051q-.221-.124-.221-.388q0-.176.145-.32q.145-.143.322-.21q.654-.22 1.22-.562q.565-.342.997-.813M9.796 5.729l-.744-.77q.256-.124.518-.227q.263-.103.538-.184q.257-.073.479.051q.22.124.22.388q0 .176-.138.32q-.138.143-.315.21q-.154.039-.279.096q-.125.058-.279.116m8.016 6.213q.238 0 .366.196q.128.195.055.433q-.075.294-.188.579t-.243.56l-.75-.737q.077-.154.125-.298t.086-.298q.068-.177.217-.306t.332-.129"/></svg>