<svg xmlns="http://www.w3.org/2000/svg" width="1em" height="1em" viewBox="0 0 24 24"><path fill="currentColor" d="M3 19v-5h1v4h4v1zM3 6V1h5v1H4v4zm7.808 10.362q-1.973-.37-3.387-1.783q-1.413-1.414-1.783-3.387h1q.339 1.571 1.469 2.701q1.13 1.13 2.7 1.469zm-5.17-7.554q.37-1.973 1.783-3.39q1.414-1.416 3.387-1.78v1q-1.571.339-2.701 1.469q-1.13 1.13-1.469 2.7zM12 11.5q-.633 0-1.066-.434Q10.5 10.633 10.5 10q0-.638.434-1.07q.433-.43 1.066-.43q.638 0 1.07.43q.43.432.43 1.07q0 .633-.43 1.066q-.432.434-1.07.434m5.362-2.692q-.339-1.571-1.469-2.701q-1.13-1.13-2.7-1.469v-1q1.972.37 3.389 1.783q1.416 1.414 1.78 3.387zM20 6V2h-4V1h5v5zm-1.962 14.038q-1.67 0-2.835-1.164t-1.165-2.836q0-1.67 1.165-2.835q1.164-1.165 2.835-1.165q1.672 0 2.836 1.165t1.164 2.835q0 1.672-1.164 2.836t-2.836 1.164m0-1.538q.2 0 .331-.13q.131-.132.131-.332t-.13-.33q-.132-.131-.332-.131t-.33.13q-.131.131-.131.331t.13.331q.131.131.331.131m-.384-1.846h.77v-3h-.77z"/></svg>