<svg xmlns="http://www.w3.org/2000/svg" width="1em" height="1em" viewBox="0 0 24 24"><path fill="currentColor" d="M4.615 21q-.69 0-1.152-.462Q3 20.075 3 19.385V16h1v3.385q0 .23.192.423q.193.192.423.192H8v1zM3 8V4.615q0-.69.463-1.152Q3.925 3 4.615 3H8v1H4.615q-.23 0-.423.192Q4 4.385 4 4.615V8zm7.808 10.362q-1.973-.37-3.387-1.783q-1.413-1.414-1.783-3.387h1q.339 1.571 1.469 2.701q1.13 1.13 2.7 1.469zm-5.17-7.554q.37-1.973 1.783-3.39q1.414-1.416 3.387-1.78v1q-1.571.339-2.701 1.469q-1.13 1.13-1.469 2.7zM12 13.5q-.633 0-1.066-.434Q10.5 12.633 10.5 12q0-.638.434-1.07q.433-.43 1.066-.43q.638 0 1.07.43q.43.432.43 1.07q0 .633-.43 1.066q-.432.434-1.07.434m1.192 4.862v-1q1.571-.339 2.701-1.469q1.13-1.13 1.469-2.7h1q-.364 1.972-1.78 3.386q-1.417 1.413-3.39 1.783m4.17-7.554q-.339-1.571-1.469-2.701q-1.13-1.13-2.7-1.469v-1q1.972.37 3.389 1.783q1.416 1.414 1.78 3.387zM16 21v-1h3.385q.23 0 .423-.192q.192-.193.192-.423V16h1v3.385q0 .69-.462 1.152q-.463.463-1.153.463zm4-13V4.615q0-.23-.192-.423Q19.615 4 19.385 4H16V3h3.385q.69 0 1.152.463q.463.462.463 1.152V8z"/></svg>