<svg xmlns="http://www.w3.org/2000/svg" width="1em" height="1em" viewBox="0 0 24 24"><path fill="currentColor" d="M12.003 21q-1.866 0-3.51-.705T5.634 18.38q-1.216-1.209-1.925-2.843Q3 13.902 3 12.038q0-.904.167-1.777q.168-.873.496-1.713l.781.78q-.219.65-.331 1.32Q4 11.318 4 12q0 3.35 2.325 5.675T12 20q3.35 0 5.675-2.325T20 12q0-3.35-2.325-5.675T12 4q-.675 0-1.332.112t-1.3.332l-.776-.775q.789-.315 1.606-.492Q11.015 3 11.885 3q1.886 0 3.546.701q1.66.7 2.894 1.926q1.235 1.225 1.955 2.865q.72 1.641.72 3.506q0 1.865-.708 3.509q-.709 1.643-1.924 2.859q-1.214 1.216-2.856 1.925Q13.87 21 12.003 21M5.923 6.808q-.356 0-.62-.265t-.265-.62q0-.356.265-.62t.62-.265q.356 0 .62.265t.265.62q0 .356-.265.62t-.62.265M12 12"/></svg>