<svg xmlns="http://www.w3.org/2000/svg" width="1em" height="1em" viewBox="0 0 24 24"><path fill="currentColor" d="M4.615 21q-.69 0-1.152-.462Q3 20.075 3 19.385V16h1v3.385q0 .23.192.423q.193.192.423.192H8v1zM3 8V4.615q0-.69.463-1.152Q3.925 3 4.615 3H8v1H4.615q-.23 0-.423.192Q4 4.385 4 4.615V8zm7.808 10.362q-1.973-.37-3.387-1.783q-1.413-1.414-1.783-3.387h1q.339 1.571 1.469 2.701q1.13 1.13 2.7 1.469zm-5.17-7.554q.37-1.973 1.783-3.39q1.414-1.416 3.387-1.78v1q-1.571.339-2.701 1.469q-1.13 1.13-1.469 2.7zM12 13.5q-.633 0-1.066-.434Q10.5 12.633 10.5 12q0-.638.434-1.07q.433-.43 1.066-.43q.638 0 1.07.43q.43.432.43 1.07q0 .633-.43 1.066q-.432.434-1.07.434m5.362-2.692q-.339-1.571-1.469-2.701q-1.13-1.13-2.7-1.469v-1q1.972.37 3.389 1.783q1.416 1.414 1.78 3.387zM20 8V4.615q0-.23-.192-.423Q19.615 4 19.385 4H16V3h3.385q.69 0 1.152.463q.463.462.463 1.152V8zm-6.385 12.923q-.14 0-.247-.07q-.106-.07-.18-.2q-.067-.109-.07-.246q-.003-.138.065-.253l4-6.98q.073-.13.195-.203q.122-.073.262-.073t.25.07q.11.07.177.186l4 7q.073.11.07.25q-.002.14-.07.25q-.073.129-.192.199q-.12.07-.26.07zm4-.615q.162 0 .273-.112q.112-.111.112-.273q0-.161-.112-.273q-.111-.112-.273-.112q-.161 0-.273.112q-.111.112-.111.273q0 .162.111.273q.112.112.273.112m-.384-2H18v-3.77h-.77z"/></svg>