<svg xmlns="http://www.w3.org/2000/svg" width="1em" height="1em" viewBox="0 0 24 24"><path fill="currentColor" d="M10.308 14.615q.213 0 .356-.143q.144-.144.144-.357v-4.23q0-.213-.144-.357t-.357-.143q-.213 0-.356.143t-.143.357v4.23q0 .213.144.357t.356.143m3.385 0q.213 0 .356-.143t.143-.357v-4.23q0-.213-.144-.357t-.356-.143q-.213 0-.356.143q-.144.144-.144.357v4.23q0 .213.144.357t.357.143M12.003 21q-1.866 0-3.51-.705T5.634 18.38q-1.216-1.209-1.925-2.843Q3 13.902 3 12.038q0-.761.125-1.503q.125-.743.356-1.48q.067-.207.262-.296q.195-.09.378-.005q.196.084.272.299q.076.214.009.428q-.186.62-.294 1.253Q4 11.367 4 12q0 3.35 2.325 5.675T12 20q3.35 0 5.675-2.325T20 12q0-3.35-2.325-5.675T12 4q-.63 0-1.246.097t-1.22.291q-.213.068-.415-.015t-.3-.265q-.098-.183-.012-.369t.274-.252q.673-.237 1.377-.362T11.888 3q1.886 0 3.544.701q1.658.7 2.893 1.926q1.235 1.225 1.955 2.865q.72 1.641.72 3.506q0 1.865-.708 3.509q-.709 1.643-1.924 2.859q-1.214 1.216-2.856 1.925Q13.87 21 12.003 21M5.923 6.808q-.356 0-.62-.265t-.265-.62q0-.356.265-.62t.62-.265q.356 0 .62.265t.265.62q0 .356-.265.62t-.62.265M12 12"/></svg>