<svg xmlns="http://www.w3.org/2000/svg" width="1em" height="1em" viewBox="0 0 24 24"><path fill="currentColor" d="m7.64 12.825l.94-1.93q.212-.41.604-.653q.391-.242.85-.242H11.5V3.808q0-.348.23-.578q.23-.23.578-.23h4.238q.217 0 .339.19t.015.4l-.377.723q-.05.087-.05.187t.05.187l.377.723q.106.211-.015.4t-.339.19H12.5v4h1.39q.46 0 .846.242q.385.243.602.646l.972 1.981l-2.347 1.558L12 13.433l-1.963.994zM6.206 21q-.894 0-1.367-.764q-.472-.765-.068-1.573l2.43-4.942l2.762 1.852L12 14.567l2.037 1.006l2.73-1.802l2.456 4.887q.404.807-.068 1.575q-.472.767-1.386.767z"/></svg>