<svg xmlns="http://www.w3.org/2000/svg" width="1em" height="1em" viewBox="0 0 24 24"><path fill="currentColor" d="M11 16.788q-.137 0-.213-.08q-.077-.081-.127-.193q-.312-.8-.725-1.384q-.414-.585-.818-1.12q-.519-.688-.914-1.388t-.395-1.738q0-1.316.938-2.254q.939-.939 2.254-.939t2.254.939q.938.938.938 2.254q0 1.038-.395 1.738t-.914 1.389q-.404.534-.818 1.119q-.413.584-.725 1.384q-.05.131-.127.202q-.076.071-.213.071m0-4.846q.448 0 .753-.304q.305-.305.305-.753t-.305-.753q-.305-.305-.753-.305t-.753.305q-.305.305-.305.753t.305.753q.305.304.753.304M11 20q-3.327 0-5.663-2.337Q3 15.327 3 12q0-1.663.626-3.118q.626-1.455 1.713-2.543q1.088-1.087 2.543-1.713Q9.337 4 11 4q1.663 0 3.118.626q1.455.626 2.543 1.713q1.087 1.088 1.713 2.543Q19 10.337 19 12v1.412l1.702-1.702q.14-.147.341-.156q.201-.01.347.13q.166.147.156.357q-.01.21-.156.357l-2.325 2.325q-.242.242-.565.242t-.565-.242l-2.331-2.33q-.146-.147-.153-.355q-.007-.207.159-.353q.146-.14.353-.134q.208.007.354.153L18 13.387V12q0-2.9-2.05-4.95T11 5Q8.1 5 6.05 7.05T4 12q.006 2.92 2.043 4.96Q8.081 19 11 19q1.252 0 2.328-.398q1.076-.398 2.009-1.125q.176-.135.387-.144q.21-.01.37.15q.166.146.166.36q0 .213-.177.353q-1.073.862-2.377 1.333Q12.402 20 11 20"/></svg>