<svg xmlns="http://www.w3.org/2000/svg" width="1em" height="1em" viewBox="0 0 24 24"><path fill="currentColor" d="M8.115 17q-.69 0-1.152-.462q-.463-.463-.463-1.153v-1q0-.214.143-.357q.144-.143.357-.143t.357.143q.143.143.143.357v1q0 .23.192.423q.193.192.423.192h10.77q.23 0 .423-.192q.192-.193.192-.423V6h-12v1.615q0 .214-.143.357q-.144.143-.357.143t-.357-.143Q6.5 7.83 6.5 7.615v-3q0-.69.463-1.152Q7.425 3 8.115 3h10.77q.69 0 1.152.463q.463.462.463 1.152v10.77q0 .69-.462 1.153q-.463.462-1.153.462zm-3 3q-.69 0-1.152-.462q-.463-.463-.463-1.153V7.115q0-.213.143-.356q.144-.144.357-.144t.357.144t.143.356v11.27q0 .23.192.423q.193.192.423.192h11.27q.213 0 .356.143t.144.357q0 .213-.144.357q-.143.143-.356.143zm9.06-8.5H7q-.213 0-.357-.143Q6.5 11.213 6.5 11t.143-.357Q6.787 10.5 7 10.5h7.175l-2.112-2.15q-.14-.14-.13-.341q.01-.201.155-.347q.14-.14.345-.14t.344.14l2.754 2.773q.242.242.242.565q0 .323-.242.565l-2.773 2.773q-.14.14-.342.134q-.2-.007-.347-.153q-.14-.14-.14-.334q0-.195.14-.335z"/></svg>