<svg xmlns="http://www.w3.org/2000/svg" width="1em" height="1em" viewBox="0 0 24 24"><path fill="currentColor" d="M8.442 19q-2.56 0-4.385-1.73Q2.23 15.54 2.23 13t1.926-4.21q1.926-1.67 4.556-1.798L7.006 5.273q-.16-.165-.16-.354q0-.188.156-.344q.17-.17.373-.16q.204.01.344.15l2.37 2.37q.242.242.242.565t-.243.565L7.725 10.43q-.165.165-.357.165t-.36-.165q-.156-.166-.146-.366q.01-.201.15-.342l1.717-1.717q-2.217.12-3.858 1.504q-1.64 1.384-1.64 3.492q0 2.113 1.54 3.557Q6.31 18 8.46 18H10q.213 0 .356.144t.144.357q0 .212-.144.356Q10.213 19 10 19zm5.874-8.192q-.356 0-.586-.233q-.23-.232-.23-.575V5.815q0-.355.232-.585q.232-.23.576-.23h5.876q.356 0 .586.232q.23.232.23.576v4.184q0 .356-.232.586q-.232.23-.576.23zm0 8.192q-.356 0-.586-.232q-.23-.232-.23-.576v-4.184q0-.356.232-.586q.232-.23.576-.23h5.876q.356 0 .586.233q.23.232.23.575v4.185q0 .355-.232.585q-.232.23-.576.23zm.184-1H20v-3.808h-5.5z"/></svg>