<svg xmlns="http://www.w3.org/2000/svg" width="1em" height="1em" viewBox="0 0 24 24"><path fill="currentColor" d="M4.23 20.5q-.69 0-1.152-.462t-.463-1.153V5.115q0-.69.463-1.152Q3.54 3.5 4.23 3.5h15.538q.69 0 1.153.463t.463 1.152v13.77q0 .69-.463 1.152q-.462.463-1.153.463zm0-1h2.385v-3h-3v2.385q0 .23.193.423q.192.192.423.192m13.154 0h2.384q.231 0 .423-.192q.193-.193.193-.423V16.5h-3zM11.5 15.923h1v-5.115h-1zM3.615 15.5h3v-3h-3zm13.77 0h3v-3h-3zm-13.77-4h3v-3h-3zm13.77 0h3v-3h-3zM12 9q.262 0 .438-.177q.177-.177.177-.438q0-.262-.177-.439q-.176-.177-.438-.177t-.438.177q-.177.177-.177.439q0 .261.177.438Q11.738 9 12 9M3.615 7.5h3v-3H4.231q-.231 0-.423.192q-.193.193-.193.423zm13.77 0h3V5.115q0-.23-.193-.423Q20 4.5 19.77 4.5h-2.384z"/></svg>