<svg xmlns="http://www.w3.org/2000/svg" width="1em" height="1em" viewBox="0 0 24 24"><path fill="currentColor" d="m20.404 8.213l-5.321 5.297q-.74.72-1.78.73q-1.038.01-1.759-.711l-1.175-1.175q-.448-.448-1.056-.439q-.607.01-1.055.439l-4.6 4.6q-.14.14-.345.15q-.203.01-.363-.15t-.16-.354q0-.194.16-.354l4.6-4.6q.74-.721 1.77-.73q1.028-.01 1.768.73l1.15 1.15q.454.454 1.069.444q.614-.01 1.068-.444L19.69 7.5h-2.786q-.214 0-.357-.143q-.143-.144-.143-.357t.143-.357q.143-.143.357-.143h3.692q.348 0 .578.23q.23.23.23.578V11q0 .213-.143.357q-.144.143-.357.143q-.214 0-.357-.143q-.143-.144-.143-.357z"/></svg>