<svg xmlns="http://www.w3.org/2000/svg" width="1em" height="1em" viewBox="0 0 24 24"><path fill="currentColor" d="m5.921 16.192l1.746 1.746q.14.14.15.342q.01.2-.16.37q-.155.156-.35.156q-.194 0-.353-.16l-2.382-2.382q-.137-.137-.19-.276t-.053-.298q0-.16.053-.296q.053-.136.19-.274l2.382-2.382q.14-.14.341-.15q.201-.01.367.146q.165.17.165.361q0 .192-.165.357l-1.74 1.74h5.79q.212 0 .356.144t.144.357q0 .213-.144.356t-.356.143zm8.888.096q-.253 0-.425-.17q-.172-.172-.172-.425t.17-.425q.172-.172.425-.172t.425.171q.172.171.172.424t-.171.425q-.171.172-.424.172m3.192 0q-.253 0-.425-.17q-.172-.172-.172-.425t.171-.425q.171-.172.424-.172t.425.171q.172.171.172.424t-.17.425q-.172.172-.425.172m.097-7.48h-5.81q-.212 0-.356-.144t-.144-.357q0-.213.144-.356t.356-.143h5.79l-1.745-1.746q-.14-.14-.15-.342q-.01-.2.16-.37q.155-.156.35-.156q.194 0 .353.16l2.382 2.382q.137.137.19.276t.053.298q0 .16-.053.296q-.053.136-.183.267l-2.408 2.408q-.136.14-.339.14t-.35-.14q-.165-.146-.155-.357q.01-.21.155-.357zm-12.097.096q-.253 0-.425-.171t-.172-.424q0-.253.171-.425t.424-.172q.253 0 .425.17q.172.172.172.425t-.17.425q-.172.172-.425.172m3.192 0q-.253 0-.425-.171t-.172-.424q0-.253.171-.425t.424-.172t.425.17q.172.172.172.425t-.17.425q-.172.172-.425.172"/></svg>