<svg xmlns="http://www.w3.org/2000/svg" width="1em" height="1em" viewBox="0 0 24 24"><path fill="currentColor" d="m3.458 17.846l-.708-.72l6.692-6.73l3.962 3.962l3.63-4.058q-1.486-1.73-3.374-2.74q-1.889-1.01-4.08-1.01q-1.736 0-3.292.605q-1.555.605-2.869 1.653l-.707-.72Q4.146 6.9 5.888 6.225q1.743-.675 3.693-.675q2.334 0 4.39 1.045q2.056 1.045 3.721 2.936l2.889-3.25l.707.719l-3 3.362q.806 1.228 1.357 2.692q.551 1.463.759 2.996h-1q-.189-1.154-.638-2.397q-.449-1.243-1.158-2.5l-4.181 4.643l-3.985-3.973z"/></svg>