<svg xmlns="http://www.w3.org/2000/svg" width="1em" height="1em" viewBox="0 0 24 24"><path fill="currentColor" d="M3 21v-1h2V10h-.592q-.272 0-.456-.187q-.183-.188-.183-.457q0-.17.077-.312q.077-.141.217-.24l7.018-4.927q.217-.142.448-.22q.231-.078.472-.078t.471.078q.23.078.447.22l7.018 4.927q.14.097.217.244q.077.146.077.314q0 .271-.183.455q-.184.183-.456.183H19v10h2v1zm15-1V8.65L12.346 4.7q-.154-.115-.346-.115t-.346.115L6 8.65V20zm-6-4.108q.2 0 .37-.083q.17-.084.301-.27L14.385 13v4q0 .213.144.356q.143.144.356.144t.356-.144q.144-.144.144-.356v-5.04q0-.195-.133-.328q-.132-.132-.327-.132h-.402q-.111 0-.215.054t-.173.148L12 14.885l-2.104-3.147q-.067-.123-.186-.18q-.12-.058-.273-.058h-.265q-.237 0-.397.16q-.16.16-.16.398V17q0 .213.144.356t.357.144q.213 0 .356-.144T9.615 17v-4l1.714 2.538q.13.187.3.27q.17.084.371.084M18 20H6z"/></svg>