<svg xmlns="http://www.w3.org/2000/svg" width="1em" height="1em" viewBox="0 0 24 24"><path fill="currentColor" d="M4.288 14.5q-1.038 0-1.769-.73q-.73-.732-.73-1.77t.73-1.77q.731-.73 1.77-.73q.898 0 1.583.563q.686.562.87 1.437h3.893v1H6.742q-.184.875-.87 1.438q-.685.562-1.584.562m0-1q.618 0 1.06-.441q.44-.442.44-1.059t-.44-1.059q-.442-.441-1.06-.441q-.617 0-1.058.441q-.442.442-.442 1.059t.442 1.059q.441.441 1.058.441M5.404 21v-1q3.383 0 5.691-2.28q2.309-2.28 2.309-5.72t-2.309-5.72Q8.787 4 5.404 4V3q3.771 0 6.308 2.494q2.536 2.494 2.68 6.006h5.893l-2.089-2.1l.708-.708L22.212 12l-3.308 3.308l-.708-.708l2.089-2.1h-5.893q-.144 3.512-2.68 6.006Q9.175 21 5.404 21"/></svg>