<svg xmlns="http://www.w3.org/2000/svg" width="1em" height="1em" viewBox="0 0 24 24"><path fill="currentColor" d="M11.5 20.115v-4.73H9q-1.671 0-2.836-1.165T5 11.385q0-1.327.863-2.35q.864-1.022 2.11-1.558q.206-1.971 1.301-3.032q1.095-1.06 2.726-1.06t2.726 1.06q1.095 1.06 1.3 3.032q1.266.498 2.12 1.54q.854 1.04.854 2.368q0 1.67-1.164 2.835T15 15.385h-2.5v4.73h5q.213 0 .357.144q.143.143.143.356q0 .214-.143.357q-.144.143-.357.143h-11q-.213 0-.357-.143Q6 20.83 6 20.615q0-.213.143-.356q.144-.144.357-.144z"/></svg>