<svg xmlns="http://www.w3.org/2000/svg" width="1em" height="1em" viewBox="0 0 24 24"><path fill="currentColor" d="m11.435 14.95l-2.388-2.388q-.24-.239-.24-.562q0-.323.243-.565l2.388-2.388q.239-.24.562-.24q.323 0 .565.243l2.388 2.388q.24.239.24.562q0 .323-.243.565l-2.388 2.389q-.239.238-.562.238q-.323 0-.565-.242m1.712 4.909q-.234.233-.532.354q-.298.122-.615.122t-.615-.122q-.298-.12-.532-.354l-6.766-6.767q-.22-.218-.34-.516q-.12-.298-.12-.595t.12-.596q.12-.298.34-.516l6.757-6.757q.243-.243.537-.364T12 3.627q.324 0 .619.121q.294.121.538.364l6.757 6.757q.22.219.34.516q.12.298.12.596t-.12.595q-.12.298-.34.516zm-.82-1.005l6.546-6.546q.135-.135.135-.327t-.135-.327l-6.546-6.546q-.135-.135-.327-.125q-.192.01-.327.144l-6.565 6.565q-.135.135-.125.308q.01.173.144.308l6.546 6.546q.135.134.327.134t.327-.134"/></svg>