<svg xmlns="http://www.w3.org/2000/svg" width="1em" height="1em" viewBox="0 0 24 24"><path fill="currentColor" d="M20.384 18q-.213 0-.356-.144t-.143-.356V11q0-.213.144-.356q.143-.144.356-.144t.356.144q.144.144.144.356v6.5q0 .213-.144.356t-.357.144m-.006 2.654q-.265 0-.437-.175t-.172-.434q0-.258.175-.44t.434-.182q.259 0 .44.179q.182.179.182.443q0 .265-.179.437t-.443.172m-8.995-.289q-.296 0-.582-.12q-.286-.122-.547-.383l-6.73-6.731q-.262-.262-.384-.549q-.12-.287-.12-.583t.12-.583q.122-.285.383-.547l6.73-6.73q.262-.262.55-.383q.286-.121.583-.121t.582.13q.286.131.547.373l4.418 4.38q.084.084.133.197q.05.113.05.26q0 .289-.202.465q-.202.175-.463.175q-.13 0-.23-.04t-.204-.142l-4.325-4.325q-.154-.154-.307-.154q-.154 0-.308.154l-6.585 6.584q-.154.154-.154.308t.154.308l6.585 6.584q.154.154.308.154t.307-.154l4.325-4.325q.104-.104.207-.143q.103-.04.232-.04q.258 0 .459.177t.2.466q0 .138-.039.255q-.04.116-.143.2l-4.418 4.38q-.261.242-.548.373q-.287.13-.584.13m-.564-5.415l-2.384-2.385q-.131-.13-.187-.277q-.056-.146-.056-.288q0-.16.06-.299q.06-.14.18-.26l2.387-2.391q.131-.13.277-.187t.289-.055q.16 0 .299.06q.14.06.26.18l2.394 2.393q.12.12.18.26q.059.14.059.299q0 .142-.056.288q-.056.147-.186.277l-2.392 2.389q-.12.119-.26.179q-.139.06-.298.06q-.143 0-.289-.056t-.277-.187"/></svg>