<svg xmlns="http://www.w3.org/2000/svg" width="1em" height="1em" viewBox="0 0 24 24"><path fill="currentColor" d="M20.385 11.956q0 .298-.122.596t-.363.54l-1.777 1.777q-.183.183-.458.183t-.457-.183q-.183-.182-.183-.457t.183-.458l1.646-1.646q.154-.154.154-.318q0-.163-.154-.317l-6.546-6.546q-.154-.154-.337-.154q-.183 0-.336.154L9.988 6.773q-.182.183-.457.183t-.458-.183q-.183-.183-.183-.458t.183-.457l1.746-1.746q.243-.243.55-.376t.612-.134q.304 0 .599.121t.537.364l6.764 6.763q.242.237.373.522q.13.286.13.584m-4.815 5.479l-2.438 2.427q-.243.236-.538.357q-.295.121-.612.121q-.298 0-.603-.118t-.547-.36l-6.725-6.725q-.243-.243-.364-.548q-.12-.304-.12-.602q0-.318.12-.613q.121-.295.364-.537l2.42-2.427l-3.522-3.53q-.14-.14-.153-.34q-.013-.202.153-.367q.16-.16.354-.16q.194 0 .354.16l16.044 16.044q.14.14.15.339q.01.198-.15.357q-.16.16-.351.16q-.192 0-.351-.16zM5.113 12.313l6.54 6.54q.155.155.328.155t.327-.154l2.346-2.335l-1.848-1.848l-.26.26q-.242.242-.565.242q-.323 0-.566-.242l-2.378-2.38q-.243-.241-.243-.564q0-.324.243-.566l.26-.26L7.453 9.32l-2.34 2.34q-.154.154-.154.328t.153.326m10.08-.028q-.137.136-.285.136t-.285-.136l-2.946-2.947q-.117-.117-.127-.275q-.01-.157.127-.294q.136-.136.285-.136q.148 0 .284.136l2.946 2.946q.118.118.127.275q.01.158-.127.295"/></svg>