<svg xmlns="http://www.w3.org/2000/svg" width="1em" height="1em" viewBox="0 0 24 24"><path fill="currentColor" d="M4.904 21q-.421 0-.71-.299q-.29-.3-.29-.701h4.525q-2.216-1.002-3.765-3.11q-1.549-2.11-1.549-5.025q0-1.84.702-3.45t1.903-2.82q1.201-1.21 2.82-1.903Q10.16 3 12 3t3.46.692q1.619.693 2.82 1.903q1.2 1.21 1.903 2.82q.702 1.61.702 3.45q0 2.916-1.54 5.024Q17.805 19 15.571 20h4.525q0 .402-.29.701q-.289.299-.71.299zm2.511-6.24h3.57v-.764H8.429l-.006-.011q.385-.385.847-.816t.778-.746q.43-.43.64-.871q.208-.44.208-.877q0-.598-.484-1.079q-.483-.48-1.287-.48q-.687 0-1.137.38q-.451.38-.603.771l.744.285q.102-.242.344-.452q.242-.21.627-.21q.479 0 .736.274q.256.274.256.561q0 .258-.104.509q-.103.25-.498.656q-.263.27-.847.834l-1.228 1.19zm6.935.125q1.067 0 1.676-.824T16.635 12t-.622-2.06q-.62-.825-1.663-.825q-1.067 0-1.676.824T12.065 12t.61 2.06q.608.825 1.675.825m0-.775q-.708 0-1.1-.559q-.392-.559-.392-1.551q0-.927.4-1.518q.4-.592 1.092-.592t1.092.592q.4.591.4 1.518q0 .992-.392 1.551q-.392.559-1.1.559"/></svg>