<svg xmlns="http://www.w3.org/2000/svg" width="1em" height="1em" viewBox="0 0 24 24"><path fill="currentColor" d="M5.093 16.296q-.668 0-1.14-.475q-.472-.474-.472-1.141V8.215q0-.667.475-1.139q.476-.472 1.144-.472t1.14.475q.472.475.472 1.146q.701-1.26 1.966-2.017Q9.942 5.45 11.5 5.45q1.103 0 2.11.42t1.778 1.192l3.877 3.876q.243.244.364.539q.121.294.121.598t-.121.598q-.121.295-.364.539l-5.484 5.503q-.222.22-.515.34q-.293.12-.616.12t-.628-.12q-.304-.12-.528-.34l-3.882-3.877q-.275-.275-.498-.56q-.222-.284-.402-.603v1.006q0 .666-.476 1.14q-.475.475-1.143.475M7 10.925q0 .9.338 1.725t.987 1.475l3.883 3.883q.192.192.452.192t.432-.192l5.466-5.49q.173-.193.173-.453t-.173-.432L14.675 7.75q-.65-.65-1.463-.987T11.5 6.425q-1.875 0-3.187 1.313T7 10.925m5.904 1.429"/></svg>