<svg xmlns="http://www.w3.org/2000/svg" width="1em" height="1em" viewBox="0 0 24 24"><path fill="currentColor" d="M10 7.425q-1.385.54-2.32 1.766Q6.744 10.417 6.6 12l-.542 6.327q-.039.27.154.471q.192.202.461.202h10.654q.27 0 .461-.202q.193-.202.154-.471L17.4 12q-.12-1.588-1.055-2.814Q15.41 7.96 14 7.419V10q0 .846-.577 1.423Q12.846 12 12 12q-.846 0-1.423-.577Q10 10.846 10 10zM12 11q.425 0 .713-.288T13 10V6q0-.425-.288-.712T12 5q-.425 0-.712.288T11 6v4q0 .425.288.713T12 11m-5.327 9q-.702 0-1.186-.525q-.485-.525-.43-1.227l.543-6.371q.175-1.99 1.385-3.48q1.21-1.491 3.02-2.06v-.424q.035-.817.604-1.365Q11.177 4 12 4t1.391.545q.569.545.603 1.363v.423q1.812.569 3.034 2.062q1.222 1.494 1.391 3.484l.543 6.371q.055.702-.43 1.227q-.484.525-1.186.525z"/></svg>