<svg xmlns="http://www.w3.org/2000/svg" width="1em" height="1em" viewBox="0 0 24 24"><path fill="currentColor" d="m14.885 10.054l-2.433-2.427q-.715-.715-1.629-1.123q-.913-.408-1.921-.408q-1.471 0-2.638.739q-1.166.738-1.764 1.92q.598-1.182 1.764-1.92q1.167-.739 2.638-.739q1.008 0 1.921.408q.914.408 1.629 1.123zM1.5 17.596v-17H3q.633 0 1.066.434q.434.433.434 1.066v2.68q.608-1.21 1.76-1.945q1.152-.735 2.573-.735h4.436q.671 0 1.143.472q.473.472.473 1.144v6.342l.611.617q.46.46.46 1.137t-.46 1.136l-4.808 4.802q-.46.46-1.136.46t-1.137-.46l-3.044-3.025q-.263-.263-.48-.556q-.216-.292-.391-.625v2.556q0 .633-.434 1.067q-.433.433-1.066.433zm7.333-14.5q-1.596 0-2.715 1.124Q5 5.344 4.954 6.954q0 .25.029.48q.029.231.105.462q.685-.829 1.677-1.314q.993-.486 2.137-.486q1.008 0 1.921.408q.914.408 1.629 1.123l1.433 1.427V3.712q0-.27-.173-.443t-.443-.173zm-3.948 8.075q0 .8.312 1.53t.888 1.307l3.025 3.03q.192.174.452.174t.432-.174l4.794-4.788q.193-.192.193-.452t-.193-.433l-3.063-3.069q-.575-.575-1.299-.887q-.724-.313-1.524-.313q-1.7 0-2.859 1.213Q4.885 9.52 4.885 11.17m14.307 4.425h-2.384v-1h2.384zm-2.3 4.196l-1.677-1.677l.689-.688l1.677 1.677zm-4.507 1.612v-2.385h1v2.385zm-2.447-9.229"/></svg>