<svg xmlns="http://www.w3.org/2000/svg" width="1em" height="1em" viewBox="0 0 24 24"><path fill="currentColor" d="M13.71 18.98q-.237.287-.582.315q-.345.028-.632-.208l-3.248-2.72q-1.058-.877-1.511-2.155q-.454-1.28-.237-2.624l-1.188-1.001q-.281-.218-.31-.548q-.027-.33.185-.616l.288-.346H4.462v2.75q0 .402-.3.7q-.299.3-.7.3v-8.5q.401 0 .7.299q.3.299.3.7v2.75h2.836l1.608-1.951q.256-.267.6-.295q.346-.028.613.19l1.164.976q1.294-.479 2.638-.242q1.344.236 2.402 1.113l3.248 2.72q.267.236.295.581q.028.345-.19.607z"/></svg>