<svg xmlns="http://www.w3.org/2000/svg" width="1em" height="1em" viewBox="0 0 24 24"><path fill="currentColor" d="M8.73 20.52q-.401 0-.7-.3q-.3-.299-.3-.7h3.77v-4.095q-2.35-.221-3.925-1.924Q6 11.798 6 9.442Q6 6.935 7.745 5.19t4.251-1.747q2.506 0 4.255 1.747Q18 6.935 18 9.442q0 2.356-1.575 4.059q-1.575 1.703-3.925 1.924v4.094h3.77q0 .402-.3.701q-.299.3-.7.3zM12 14.441q2.075 0 3.538-1.462T17 9.442q0-2.075-1.463-3.537T12 4.442q-2.075 0-3.537 1.463T7 9.442q0 2.075 1.463 3.538T12 14.442m0-3.577q-.587 0-1.005-.418q-.418-.418-.418-1.005t.418-1.005Q11.413 8.02 12 8.02t1.005.418q.418.418.418 1.005t-.418 1.005q-.418.418-1.005.418"/></svg>