<svg xmlns="http://www.w3.org/2000/svg" width="1em" height="1em" viewBox="0 0 24 24"><path fill="currentColor" d="M12.385 16.192q-1.25 0-2.125.863t-.875 2.137v1h6v-1q0-1.275-.863-2.137t-2.137-.863M8 8.75q0 1.683 1.135 2.914q1.134 1.23 2.79 1.411l4.504.444V4l-4.504.4q-1.675.156-2.8 1.399T8 8.75m8.385 12.442h-8v-2q0-1.68 1.17-2.84t2.83-1.16q.281 0 .538.035q.256.035.525.104l.665-1.043l-2.273-.213q-2.05-.21-3.445-1.733Q7 10.818 7 8.759q0-2.08 1.388-3.604T11.84 3.38l5.589-.485v11.721l-2.162-.2l-.019-.019l-.873 1.31q.898.52 1.454 1.432q.556.912.556 2.052zm.044-12.461"/></svg>