<svg xmlns="http://www.w3.org/2000/svg" width="1em" height="1em" viewBox="0 0 24 24"><path fill="currentColor" d="M17.25 15.038h2v-1q0-.425-.288-.712t-.712-.288q-.425 0-.712.288t-.288.712zM12 19.577L1.423 9q2.183-1.963 4.91-2.982Q9.063 5 12 5t5.666 1.018Q20.394 7.037 22.576 9l-1.986 1.987q-.557-.286-1.162-.415q-.606-.13-1.236-.13q-2.283 0-3.882 1.599q-1.598 1.598-1.598 3.882q0 .63.13 1.235t.414 1.163zm3.462 0v-4.539h1.019v-1q0-.748.51-1.258t1.259-.51t1.259.51q.51.51.51 1.258v1H21v4.539zM4.35 10.5q1.675-1.2 3.625-1.85T12 8q2.075 0 4.025.65t3.625 1.85l1.45-1.45q-1.975-1.5-4.3-2.275T12 6q-2.475 0-4.8.775T2.9 9.05z"/></svg>