<svg xmlns="http://www.w3.org/2000/svg" width="1em" height="1em" viewBox="0 0 24 24"><path fill="currentColor" d="M11.267 18.844L2.256 9.833q-.166-.166-.239-.358t-.073-.394q0-.233.098-.438t.295-.37q2.107-1.621 4.557-2.447Q9.344 5 12 5t5.106.826q2.45.826 4.557 2.447q.197.165.295.37q.098.205.098.438q0 .202-.073.394t-.239.358l-9.011 9.011q-.166.166-.348.239q-.183.073-.385.073t-.385-.073q-.182-.073-.348-.239m-3.792-5.219q.95-.7 2.1-1.088T12 12.15q1.275 0 2.425.388t2.1 1.087L21.1 9.05q-1.95-1.475-4.262-2.262T12 6q-2.525 0-4.837.788T2.9 9.05z"/></svg>