<svg xmlns="http://www.w3.org/2000/svg" width="1em" height="1em" viewBox="0 0 24 24"><path fill="currentColor" d="M5.462 21q-1.008 0-1.735-.727Q3 19.546 3 18.538q0-1.007.727-1.734q.727-.727 1.735-.727q.43 0 .836.15q.406.152.723.429l4.479-4.48V7.87q-.83-.17-1.396-.846q-.566-.674-.566-1.561q0-1.008.727-1.735Q10.992 3 12 3t1.735.727q.727.727.727 1.735q0 .887-.556 1.561q-.556.675-1.406.846v4.308l4.485 4.479q.317-.277.717-.428q.4-.151.836-.151q1.008 0 1.735.727q.727.727.727 1.734q0 1.008-.727 1.735q-.727.727-1.735.727q-1.007 0-1.734-.727q-.727-.727-.727-1.735q0-.296.064-.577q.065-.28.207-.52L12 13.091L7.652 17.44q.142.24.207.521q.064.28.064.577q0 1.008-.727 1.735Q6.47 21 5.462 21m13.074-1q.608 0 1.036-.426q.428-.425.428-1.033q0-.608-.426-1.036q-.425-.428-1.033-.428q-.608 0-1.036.426q-.428.425-.428 1.033q0 .608.426 1.036q.425.428 1.033.428M11.998 6.923q.608 0 1.036-.426q.428-.425.428-1.033q0-.608-.426-1.036Q12.61 4 12.002 4q-.608 0-1.036.426q-.428.425-.428 1.033q0 .608.426 1.036q.426.428 1.034.428M5.459 20q.608 0 1.036-.426q.428-.425.428-1.033q0-.608-.426-1.036q-.425-.428-1.033-.428q-.608 0-1.036.426Q4 17.928 4 18.536q0 .608.426 1.036Q4.85 20 5.459 20"/></svg>