<svg xmlns="http://www.w3.org/2000/svg" width="1em" height="1em" viewBox="0 0 24 24"><path fill="currentColor" d="M14.25 20.192q-.575 0-.964-.178q-.39-.177-.786-.533V4.46q.396-.355.786-.524q.389-.168.964-.168q1.127 0 1.93.789q.803.788.82 1.91v.172q0 .077-.02.154q1.322.143 2.229 1.123q.906.981.906 2.352q0 .57-.176 1.098q-.176.53-.508.96q.236.392.364.837t.128.913q0 1.32-.83 2.287t-2.099 1.169q-.048 1.115-.835 1.887q-.788.772-1.909.772m-4.5 0q-1.121 0-1.921-.772t-.848-1.887q-1.25-.22-2.077-1.19q-.827-.972-.827-2.266q0-.467.118-.913q.118-.445.355-.837q-.333-.43-.499-.96q-.166-.529-.166-1.098q0-1.352.894-2.34q.894-.987 2.215-1.129q-.019-.077-.019-.154v-.173q.017-1.14.823-1.922q.806-.782 1.952-.782q.556 0 .955.171q.399.172.795.527V19.5q-.396.356-.786.524q-.389.168-.964.168"/></svg>