<svg xmlns="http://www.w3.org/2000/svg" width="1em" height="1em" viewBox="0 0 24 24"><path fill="currentColor" d="M3 19.385q-.213 0-.356-.144t-.144-.357q0-.213.144-.356q.143-.143.356-.143h18q.213 0 .356.144q.144.143.144.356t-.144.356q-.144.144-.356.144zm2.345-3.77q-.212 0-.356-.143q-.143-.144-.143-.357v-6q0-.212.144-.356t.357-.144q.213 0 .356.144t.143.356v6q0 .213-.144.357q-.144.143-.357.143m3.77 0q-.213 0-.356-.143q-.144-.144-.144-.357v-10q0-.212.144-.356t.357-.144q.213 0 .356.144t.143.356v10q0 .213-.144.357q-.143.143-.356.143m3.769 0q-.213 0-.356-.143q-.143-.144-.143-.357v-10q0-.212.144-.356t.356-.144q.213 0 .356.144q.144.144.144.356v10q0 .213-.144.357t-.357.143m6.24-.245q-.176.1-.38.043q-.203-.056-.302-.23l-3-5.25q-.104-.177-.047-.382q.056-.206.232-.305q.175-.1.378-.044q.204.056.303.23l3 5.25q.104.178.047.383t-.232.305"/></svg>