<svg xmlns="http://www.w3.org/2000/svg" width="1em" height="1em" viewBox="0 0 24 24"><path fill="currentColor" d="M4.615 20q-.69 0-1.152-.462Q3 19.075 3 18.385v-9.77q0-.69.463-1.152Q3.925 7 4.615 7H9V5.615q0-.69.463-1.152Q9.925 4 10.615 4h2.77q.69 0 1.153.463q.462.462.462 1.152V7h4.385q.69 0 1.152.463q.463.462.463 1.152v9.77q0 .69-.462 1.152q-.463.463-1.153.463zM10 7h4V5.615q0-.23-.192-.423Q13.615 5 13.385 5h-2.77q-.23 0-.423.192q-.192.193-.192.423zm2.892 6.5l-2.246 2.246q-.14.14-.15.344q-.01.204.15.364t.354.16q.194 0 .354-.16l2.388-2.389q.243-.242.243-.565q0-.323-.243-.565l-2.388-2.389q-.14-.14-.344-.15q-.204-.01-.364.15t-.16.354q0 .194.16.354z"/></svg>