<svg xmlns="http://www.w3.org/2000/svg" width="1em" height="1em" viewBox="0 0 24 24"><path fill="currentColor" d="M17.5 10.5v-3h-3v-1h3v-3h1v3h3v1h-3v3zm-6.5 9q1.696 0 3.08-.797q1.383-.797 2.382-2.228q-3.477.012-5.72-2.113Q8.5 12.238 8.5 9q0-.517.073-1.041q.073-.524.239-1.074q-1.958.736-3.135 2.383Q4.5 10.915 4.5 13q0 2.692 1.904 4.596T11 19.5m0 1q-3.14 0-5.32-2.18T3.5 13q0-2.927 1.97-5.088q1.968-2.162 4.934-2.374q.029 0 .058.003q.028.003.057.003q-.494.685-.756 1.61Q9.5 8.082 9.5 9q0 2.692 1.904 4.596T16 15.5q.57 0 1.112-.104q.542-.104 1.057-.3q-.661 2.356-2.624 3.88Q13.583 20.5 11 20.5m-.248-6.16"/></svg>