<svg xmlns="http://www.w3.org/2000/svg" width="1em" height="1em" viewBox="0 0 24 24"><path fill="currentColor" d="M14.5 21q-1.868 0-3.51-.708q-1.642-.709-2.857-1.924q-1.215-1.214-1.924-2.856Q5.5 13.87 5.5 12.003q0-1.866.709-3.51t1.924-2.859q1.215-1.216 2.857-1.925Q12.633 3 14.5 3q.446 0 .891.05q.446.05.86.17q.282.067.422.291q.14.225.14.46q0 .149-.058.281q-.059.133-.182.263q-1.461 1.53-2.267 3.452q-.806 1.923-.806 4.024q0 2.124.79 4.067q.79 1.942 2.277 3.446q.123.111.172.248q.05.138.05.283q0 .235-.131.46q-.131.224-.412.292q-.415.119-.857.166q-.441.047-.889.047m0-1h.525q.25 0 .475-.05q-1.425-1.65-2.212-3.687T12.5 12q0-2.225.788-4.262T15.5 4.05Q15.275 4 15.025 4H14.5q-3.325 0-5.663 2.338T6.5 12q0 3.325 2.338 5.663T14.5 20m-2-8"/></svg>