<svg xmlns="http://www.w3.org/2000/svg" width="1em" height="1em" viewBox="0 0 24 24"><path fill="currentColor" d="M11 19.5q1.665 0 3.09-.823t2.372-2.202q-3.258.012-5.61-2.132Q8.5 12.2 8.5 9q0-.537.083-1.07q.082-.534.229-1.045q-1.925.723-3.119 2.382Q4.5 10.927 4.5 13q0 2.712 1.894 4.606Q8.288 19.5 11 19.5m0 1q-3.12 0-5.31-2.19Q3.5 16.12 3.5 13q0-1.258.388-2.426q.389-1.168 1.104-2.129q.716-.96 1.708-1.648q.992-.687 2.206-.978q.47-.113.792.236q.321.349.17.803q-.166.519-.267 1.053Q9.5 8.444 9.5 9q0 2.635 1.913 4.462q1.914 1.826 4.587 2q.223.019.465.026q.243.006.466-.055q.41-.098.672.222q.262.32.074.705q-.994 1.869-2.768 3.004Q13.135 20.5 11 20.5m5.188-11.75l-.557 1.67q-.062.159-.171.244q-.11.086-.27.086q-.263 0-.4-.205q-.138-.205-.065-.437l2.512-7.445q.061-.178.205-.296q.145-.117.348-.117h.42q.203 0 .357.117q.154.118.216.296l2.492 7.464q.073.233-.055.428q-.128.195-.391.195q-.16 0-.27-.076q-.109-.076-.17-.236l-.577-1.688zm.277-.85h3.07L18 3.192zm-5.713 6.44"/></svg>