<svg xmlns="http://www.w3.org/2000/svg" width="1em" height="1em" viewBox="0 0 24 24"><path fill="currentColor" d="M12 21q-1.883 0-3.525-.701q-1.642-.7-2.858-1.916q-1.215-1.216-1.916-2.858Q3 13.883 3 12t.701-3.525q.7-1.642 1.916-2.858q1.216-1.215 2.858-1.916Q10.117 3 12 3t3.525.701q1.642.7 2.858 1.916q1.215 1.216 1.916 2.858Q21 10.117 21 12t-.701 3.525q-.7 1.642-1.916 2.858q-1.216 1.215-2.858 1.916Q13.883 21 12 21m0-1q1.535 0 2.878-.534q1.343-.533 2.407-1.468L14.287 15h1.42l2.285 2.285q.935-1.064 1.471-2.407Q20 13.535 20 12q0-3.325-2.337-5.663T12 4q-1.535 0-2.878.537q-1.343.536-2.407 1.49L9.695 9H8.291L6.008 6.715Q5.073 7.78 4.537 9.122Q4 10.465 4 12q0 3.325 2.338 5.663T12 20m-6.615-6.192L6.75 12l-1.365-1.808h1.019l.846 1.135l.846-1.135h1.02L7.768 12l1.346 1.808H8.096l-.846-1.135l-.846 1.135zm4.75 0L11.5 12l-1.365-1.808h1.019L12 11.327l.846-1.135h1.02L12.518 12l1.346 1.808h-1.019L12 12.673l-.846 1.135zm4.75 0L16.25 12l-1.365-1.808h1.019l.846 1.135l.846-1.135h1.02L17.268 12l1.346 1.808h-1.019l-.846-1.135l-.846 1.135z"/></svg>