<svg xmlns="http://www.w3.org/2000/svg" width="1em" height="1em" viewBox="0 0 24 24"><path fill="currentColor" d="m19 16.194l-1-1v-6.79q0-.992-.734-1.698Q16.53 6 15.5 6H8.787l-.922-.927q.039 0 .068-.01q.029-.01.067-.01V3.809q0-.344.232-.576Q8.464 3 8.808 3h.384q.344 0 .576.232q.232.232.232.576V5h4V3.808q0-.344.232-.576q.232-.232.576-.232h.384q.344 0 .576.232q.232.232.232.576v1.246q1.223.177 2.112 1.083q.888.905.888 2.267zm-2.885-2.884l-.655-.656h.155q.213 0 .357.144t.143.356zm-3.748-.656v1H8.385q-.213 0-.357-.144t-.143-.357q0-.213.143-.356q.144-.143.357-.143zm-6.5-6.479l.708.708q-.275.275-.425.695q-.15.42-.15.826v11.038q0 .231.173.395q.173.163.442.163h10.77q.269 0 .442-.163q.173-.164.173-.395v-1.436L19 19v.442q0 .633-.475 1.096q-.474.462-1.14.462H6.615q-.666 0-1.14-.462Q5 20.075 5 19.442V8.404q0-.614.226-1.194q.226-.581.641-1.035M19.48 20.9L3.1 4.521q-.14-.14-.15-.341q-.01-.201.146-.367q.17-.165.36-.165t.357.165l16.374 16.38q.14.14.152.34q.013.202-.157.371q-.155.156-.35.156q-.194 0-.353-.16"/></svg>