<svg xmlns="http://www.w3.org/2000/svg" width="1em" height="1em" viewBox="0 0 24 24"><path fill="currentColor" d="m12 4.262l3.215-3.216q.134-.14.341-.14q.207 0 .348.14t.14.348q0 .207-.14.34l-3.339 3.34q-.242.241-.565.241q-.323 0-.565-.242L10.24 3.885q-.146-.14-.152-.342q-.007-.2.133-.347q.146-.165.357-.156q.21.01.357.156zM4 22.385v-6.958q0-.137.015-.273q.016-.137.061-.272l1.707-4.801q.16-.48.578-.78Q6.78 9 7.298 9h9.404q.518 0 .937.3q.419.3.578.78l1.707 4.802q.045.135.06.272q.016.136.016.273v6.958q0 .256-.18.436t-.438.179q-.257 0-.435-.18q-.178-.179-.178-.435V21H5.231v1.385q0 .256-.18.436T4.613 23q-.257 0-.435-.18Q4 22.642 4 22.386m1.415-8.231h13.17l-1.32-3.75q-.077-.192-.23-.298Q16.88 10 16.669 10H7.331q-.212 0-.366.106q-.153.106-.23.298zm-.415 1V20zm2.428 3.538q.466 0 .788-.326q.322-.327.322-.794t-.326-.788q-.327-.322-.793-.322t-.79.326q-.321.327-.321.793t.326.79q.327.321.794.321m9.153 0q.467 0 .79-.326q.321-.327.321-.794t-.326-.788q-.327-.322-.794-.322t-.788.326q-.322.327-.322.793t.326.79q.327.321.793.321M5 20h14v-4.846H5z"/></svg>