<svg xmlns="http://www.w3.org/2000/svg" width="1em" height="1em" viewBox="0 0 24 24"><path fill="currentColor" d="M19 17.535L10.465 9H15V7q0-1.27-.9-2.135Q13.197 4 11.928 4q-1.27 0-2.167.865q-.899.866-.899 2.135v.283l-.92-.921q.222-1.468 1.35-2.415Q10.418 3 11.928 3q1.69 0 2.88 1.164Q16 5.33 16 7v2h1.385q.67 0 1.143.472q.472.472.472 1.143zm1.5 5.765l-2.435-2.435q-.263.106-.53.12Q17.27 21 17 21H6.615q-.67 0-1.143-.472Q5 20.056 5 19.385v-8.77q0-.573.353-.999q.353-.426.909-.554L.7 3.5l.708-.708l19.8 19.8zm-9.51-9.51q-.217.223-.328.5q-.112.275-.112.58q0 .632.434 1.066q.433.433 1.066.433q.304 0 .58-.111q.276-.112.499-.33z"/></svg>