<svg xmlns="http://www.w3.org/2000/svg" width="1em" height="1em" viewBox="0 0 24 24"><path fill="currentColor" d="M19 17.535L10.465 9H15V7q0-1.27-.9-2.135Q13.197 4 11.928 4q-1.27 0-2.167.872q-.899.872-.899 2.128v.283l-.92-.921q.222-1.449 1.345-2.405Q10.412 3 11.928 3q1.691 0 2.882 1.164Q16 5.33 16 7v2h1.385q.69 0 1.152.463q.463.462.463 1.152zM6.615 21q-.69 0-1.152-.462Q5 20.075 5 19.385v-8.77q0-.65.391-1.047q.392-.397.87-.506L1.055 3.854q-.14-.14-.15-.344q-.01-.204.15-.364t.354-.16q.194 0 .354.16l19.092 19.092q.14.14.15.345q.01.204-.15.363t-.354.16q-.194 0-.354-.16l-2.08-2.08q-.226.086-.47.11Q17.352 21 17 21zm4.35-7.185q-.217.218-.328.494q-.112.276-.112.585q0 .633.434 1.067q.433.433 1.066.433q.31 0 .586-.111q.276-.112.493-.33z"/></svg>