<svg xmlns="http://www.w3.org/2000/svg" width="1em" height="1em" viewBox="0 0 24 24"><path fill="currentColor" d="m21.11 22.53l-3.423-3.422v.269q-.024.48-.378.821q-.355.34-.847.34H4.692q-.51 0-.87-.36t-.36-.87v-8.37q0-.51.36-.87t.87-.36h2.073l.72-.802l-5.598-5.598l.713-.714l19.223 19.223zM10.692 12.114q-.077-.019-.144-.019h-.144q-1.252.07-2.097.952q-.845.883-.845 2.146q0 1.304.905 2.21t2.21.906q1.263 0 2.152-.848q.888-.848.952-2.095q-.006-.065-.003-.138q.003-.073-.016-.15zm-.115 5.195q-.864 0-1.49-.626q-.625-.626-.625-1.49q0-.882.626-1.499q.625-.616 1.489-.616q.883 0 1.499.616q.616.617.616 1.5q0 .863-.616 1.489q-.616.626-1.5.626m7.116-2.433l-6.567-6.567h2.008l1.275 1.4h2.054q.51 0 .87.36t.36.87zm.846-5.221V6.5h-.615V3.077h2.596L19.4 5.562h1.273z"/></svg>