<svg xmlns="http://www.w3.org/2000/svg" width="1em" height="1em" viewBox="0 0 24 24"><path fill="currentColor" d="m20.756 22.171l-3.07-3.063v.269q-.023.48-.377.821q-.355.34-.847.34H4.692q-.51 0-.87-.36t-.36-.87v-8.37q0-.51.36-.87t.87-.36h2.073l.72-.802L2.24 3.662q-.146-.147-.155-.348q-.01-.2.155-.366q.166-.165.357-.165q.191 0 .357.165l18.515 18.515q.146.147.156.345q.01.198-.156.363q-.165.166-.356.166t-.357-.166M4.923 19.538h11.308q.192 0 .327-.134q.134-.135.134-.327v-.964l-3.152-3.151q.02.076.02.144v.144q-.064 1.2-.915 2.013q-.85.814-2.068.814q-1.258 0-2.129-.871t-.871-2.13q0-1.216.813-2.067q.814-.851 2.014-.915h.144q.067 0 .144.02l-1.405-1.406H4.923q-.192 0-.327.134q-.134.135-.134.327v7.908q0 .192.134.327t.327.134m5.654-2.461q.836 0 1.418-.591q.582-.592.582-1.409q0-.837-.582-1.418q-.582-.582-1.418-.582q-.817 0-1.409.582q-.591.581-.591 1.418q0 .817.591 1.409q.592.591 1.409.591m7.115-2.202l-1-1v-2.706q0-.192-.134-.327q-.135-.134-.327-.134h-2.706l-2.4-2.4h1.287q.348 0 .668.143q.32.143.537.391l.79.866h2.055q.51 0 .87.36t.36.87zm.846-8.375h-.211q-.162 0-.283-.121t-.12-.283V3.481q0-.162.12-.283t.283-.121h1.571q.217 0 .341.177q.124.177.019.388l-.858 1.92h.615q.218 0 .336.192t.012.404l-1.446 2.761q-.08.137-.23.106q-.149-.03-.149-.192zm-5.546 7.908"/></svg>