<svg xmlns="http://www.w3.org/2000/svg" width="1em" height="1em" viewBox="0 0 24 24"><path fill="currentColor" d="m14.385 10.99l-1-1v-.336q0-.213.144-.356q.143-.144.356-.144t.356.144q.144.143.144.356zM8.23 21q-.31 0-.54-.23q-.23-.23-.23-.54V20q-.666 0-1.14-.475q-.475-.474-.475-1.14V8q0-.43.207-.797t.59-.566l.805.805h-.236q-.174.058-.27.212T6.846 8v10.385q0 .269.173.442t.443.173h9.076q.27 0 .443-.173t.173-.442v-1.231l1 1v.23q0 .667-.475 1.141q-.474.475-1.14.475v.23q0 .31-.23.54q-.23.23-.54.23q-.31 0-.54-.23q-.229-.23-.229-.54V20H9v.23q0 .31-.23.54q-.23.23-.54.23m1.385-10.677l1 1v5.408q0 .212-.144.356q-.143.144-.356.144t-.356-.144q-.144-.144-.144-.356zm3.77 3.77l1 1v1.638q0 .212-.144.356t-.357.144q-.213 0-.356-.144t-.143-.356zm8.084 8.078q-.165.166-.356.166t-.357-.166L2.24 3.661q-.146-.146-.155-.347q-.01-.2.155-.366q.166-.165.357-.165q.191 0 .357.165l18.515 18.515q.146.147.156.345q.01.198-.156.363M14.385 6.385h2.153q.667 0 1.141.474q.475.475.475 1.141v5.808q0 .25-.155.375t-.342.125q-.186 0-.344-.13t-.16-.376V8q0-.27-.172-.442t-.443-.173h-5.307q-.667 0-1.141-.475q-.475-.474-.475-1.14V4.614q0-.666.475-1.14Q10.564 3 11.23 3h1.54q.666 0 1.14.475q.475.474.475 1.14zm-3.77 0h2.77v-1.77q0-.269-.173-.442Q13.038 4 12.769 4h-1.538q-.27 0-.443.173t-.173.442zm3.354 4.184"/></svg>