<svg xmlns="http://www.w3.org/2000/svg" width="1em" height="1em" viewBox="0 0 24 24"><path fill="currentColor" d="M21.11 22.53L18.579 20H4.615q-.67 0-1.143-.472Q3 19.056 3 18.385V7.615q0-.67.472-1.143Q3.944 6 4.615 6h1.39v1.427l-4.118-4.12l.713-.713l19.223 19.223zM21 18.184l-5.294-5.3q-.01-.704-.29-1.365t-.78-1.16q-.494-.495-1.154-.774t-1.365-.29L8.173 5.356L9.423 4h5.154l1.85 2h2.958q.67 0 1.143.472q.472.472.472 1.143zm-9-1.452q.671 0 1.286-.231t1.114-.679L9.179 10.6q-.448.5-.679 1.114q-.23.615-.23 1.286q0 1.548 1.09 2.64q1.092 1.09 2.64 1.09m0-1q-1.146 0-1.938-.792q-.793-.792-.793-1.938q0-.558.207-1.049q.207-.491.595-.88l3.858 3.858q-.389.388-.88.595q-.491.207-1.049.207"/></svg>