<svg xmlns="http://www.w3.org/2000/svg" width="1em" height="1em" viewBox="0 0 24 24"><path fill="currentColor" d="M7.77 18v1.385q0 .256-.18.436q-.181.179-.438.179t-.436-.18q-.178-.179-.178-.435v-1.781q-.488-.212-1.013-.901Q5 16.013 5 15.115V6.421L2.408 3.83q-.146-.146-.156-.347q-.01-.201.156-.367q.165-.165.356-.165t.357.165l18.187 18.193q.146.146.155.344q.01.198-.155.363q-.166.166-.357.166t-.357-.166L16.07 17.49h1.427v1.877q0 .261-.187.447q-.186.186-.449.186q-.262 0-.446-.186q-.183-.186-.183-.447V18zM8 17h7.579l-5-5H6v3q0 .825.588 1.413T8 17m4-14q3.763 0 5.381.694T19 6v9.865q0 .213-.144.357q-.144.143-.357.143q-.212 0-.356-.143q-.143-.144-.143-.357V12h-3.642q-.25 0-.375-.155t-.125-.342q0-.186.125-.344q.125-.159.375-.159H18V6.538H9.27q-.25 0-.376-.155q-.125-.155-.125-.341q0-.186.125-.345q.125-.159.375-.159h8.65q-.26-.77-1.603-1.154Q14.973 4 12.012 4q-1.583 0-2.666.088q-1.083.087-1.796.32q-.194.067-.337-.048q-.144-.116-.205-.293q-.062-.177.034-.374q.095-.197.362-.26q.836-.264 1.98-.348Q10.53 3 12 3M8.505 15.615q.466 0 .788-.326q.322-.327.322-.794t-.326-.788q-.327-.322-.794-.322t-.788.326q-.322.327-.322.794t.326.788q.327.322.794.322M6 11h3.579L6 7.421zm2.356-5.462h9.563zM14.817 12"/></svg>