<svg xmlns="http://www.w3.org/2000/svg" width="1em" height="1em" viewBox="0 0 24 24"><path fill="currentColor" d="M7.77 18v1.385q0 .256-.18.436q-.181.179-.438.179t-.436-.18q-.178-.179-.178-.435v-1.781q-.488-.212-1.013-.901Q5 16.013 5 15.115V6.421L2.408 3.83q-.146-.146-.156-.347q-.01-.201.156-.367q.165-.165.356-.165t.357.165l18.192 18.193q.147.146.156.344q.01.198-.156.363q-.165.166-.356.166t-.357-.166l-4.53-4.525h1.426v1.877q0 .261-.187.447q-.186.186-.449.186q-.262 0-.446-.186q-.183-.186-.183-.447V18zm10.205-2.842l-3.133-3.133q-.292-.292-.138-.659q.154-.366.565-.366H18V6.538h-7.973q-.332 0-.632-.13q-.3-.131-.518-.348L7.438 4.62q-.298-.298-.195-.714q.103-.417.507-.528q.823-.217 1.88-.298Q10.687 3 12 3q3.763 0 5.381.694T19 6v8.729q0 .412-.366.566q-.367.155-.659-.137m-9.47.457q.466 0 .788-.326q.322-.327.322-.794t-.326-.788q-.327-.322-.794-.322t-.788.326q-.322.327-.322.794t.326.788q.327.322.794.322M6 11h3.579L6 7.421z"/></svg>