<svg xmlns="http://www.w3.org/2000/svg" width="1em" height="1em" viewBox="0 0 24 24"><path fill="currentColor" d="m21.11 22.53l-5.04-5.04h1.426v2.01q0 .213-.144.356q-.143.144-.356.144h-.265q-.213 0-.356-.144t-.144-.356V18H7.769v1.5q0 .213-.144.356T7.27 20h-.23q-.213 0-.357-.144t-.144-.356v-1.896q-.488-.212-1.013-.901Q5 16.013 5 15.115V6.421L1.887 3.308l.713-.714l19.223 19.223zM8 17h7.579l-5-5H6v3q0 .825.588 1.413T8 17m10.84-.977l-.84-.84V12h-3.183l-1-1H18V6.538H9.356l-1-1h9.563q-.26-.77-1.603-1.154Q14.973 4 12.012 4q-1.699 0-2.83.13q-1.132.132-1.84.395l-.755-.756q.861-.384 2.198-.577Q10.122 3 12 3q3.763 0 5.381.694T19 6v9.115q0 .232-.046.456q-.046.223-.114.452m-10.335-.408q.466 0 .788-.326q.322-.327.322-.794t-.326-.788q-.327-.322-.794-.322t-.788.326q-.322.327-.322.794t.326.788q.327.322.794.322M6 11h3.579L6 7.421zm2.356-5.462h9.563zM14.817 12"/></svg>