<svg xmlns="http://www.w3.org/2000/svg" width="1em" height="1em" viewBox="0 0 24 24"><path fill="currentColor" d="M11.23 3.03q.193-.024.385-.027Q11.808 3 12 3q.217 0 .407.003q.19.003.4.028l-.038 1Q12.577 4 12.388 4h-.756q-.17 0-.344.03zM7.436 4.239q.348-.217.689-.369q.341-.152.72-.288l.394.915q-.365.13-.697.276q-.331.145-.641.343zm8.703.897q-.31-.198-.64-.353q-.333-.155-.698-.286l.394-.915q.38.136.73.298q.351.161.68.379zm2.552 2.448q-.217-.31-.455-.592q-.239-.281-.493-.554l.748-.674q.273.293.531.603t.475.64zM4.498 7.017q.217-.329.463-.63q.245-.3.518-.593l.748.654q-.254.273-.48.564q-.226.292-.443.601zM3.094 10.72q.05-.384.137-.776q.086-.391.217-.77l.975.277q-.117.36-.21.713t-.144.737zm16.843.237q-.05-.385-.134-.74q-.084-.356-.201-.716l.97-.258q.13.38.216.76q.087.383.137.767zm-.335 3.563q.117-.36.198-.71t.13-.734l.976.18q-.05.385-.137.767q-.086.382-.217.76zM4.069 13.1q.05.385.143.738t.211.712l-.975.277q-.13-.379-.217-.77q-.087-.392-.137-.776zm13.73 4.408q.253-.273.476-.565q.223-.291.44-.6l.812.595q-.217.33-.453.63q-.236.301-.509.594zm-12.295.723q-.273-.293-.528-.606t-.472-.642l.82-.577q.216.31.442.604t.48.567zm9.321 1.248q.365-.137.694-.289q.33-.152.639-.35l.47.877q-.328.218-.679.382q-.35.164-.73.301zm-5.975.965q-.379-.136-.723-.3q-.344-.165-.692-.382l.47-.877q.31.198.642.353q.332.154.697.285zM12 21q-.192 0-.385-.003q-.192-.003-.384-.028l.057-1q.23.031.712.031h.388q.189 0 .381-.03l.039 1q-.212.024-.401.027Q12.217 21 12 21m1-3.5q-.796 0-1.45-.479q-.652-.479-.92-1.244q-.093-.283-.22-.543q-.125-.26-.339-.474l-1.356-1.356q-.592-.592-.903-1.334q-.312-.74-.312-1.57q0-1.683 1.168-2.841Q9.837 6.5 11.5 6.5q1.533 0 2.654.993q1.121.994 1.321 2.488h-1.006q-.194-1.087-1.026-1.784Q12.612 7.5 11.5 7.5q-1.242 0-2.121.87q-.879.868-.879 2.13q0 .615.238 1.18q.239.564.69 1.016l1.35 1.35q.293.292.486.666q.194.375.324.761q.164.46.549.743q.384.284.863.284q.637 0 1.068-.441q.432-.442.432-1.059h1q0 1.02-.728 1.76T13 17.5m.5-4q-.413 0-.707-.293q-.293-.294-.293-.707q0-.42.293-.71q.294-.29.707-.29q.42 0 .71.29t.29.71q0 .413-.29.707q-.29.293-.71.293"/></svg>