<svg xmlns="http://www.w3.org/2000/svg" width="1em" height="1em" viewBox="0 0 24 24"><path fill="currentColor" d="M13 17.5q1.044 0 1.772-.74T15.5 15h-1q0 .617-.43 1.059q-.429.441-1.063.441q-.486 0-.87-.284q-.385-.283-.549-.743q-.134-.386-.326-.76q-.19-.375-.483-.667l-1.35-1.35q-.452-.452-.69-1.016q-.239-.565-.239-1.18q0-1.26.879-2.13q.879-.87 2.121-.87q1.112 0 1.943.697q.832.697 1.026 1.784h1.006q-.2-1.494-1.326-2.488Q13.023 6.5 11.5 6.5q-1.667 0-2.833 1.159Q7.5 8.817 7.5 10.499q0 .83.312 1.571q.311.742.903 1.334l1.356 1.356q.214.213.34.474q.126.26.22.543q.27.756.925 1.24T13 17.5m.5-4q.42 0 .71-.292q.29-.291.29-.708q0-.42-.29-.71t-.715-.29q-.408 0-.702.29q-.293.29-.293.715q0 .408.292.702q.291.293.708.293M12.003 21q-1.866 0-3.51-.708q-1.643-.709-2.859-1.924q-1.216-1.214-1.925-2.856Q3 13.87 3 12.003q0-1.866.708-3.51q.709-1.643 1.924-2.859q1.214-1.216 2.856-1.925Q10.13 3 11.997 3q1.866 0 3.51.708q1.643.709 2.859 1.924q1.216 1.214 1.925 2.856Q21 10.13 21 11.997q0 1.866-.708 3.51q-.709 1.643-1.924 2.859q-1.214 1.216-2.856 1.925Q13.87 21 12.003 21M12 20q3.35 0 5.675-2.325T20 12q0-3.35-2.325-5.675T12 4Q8.65 4 6.325 6.325T4 12q0 3.35 2.325 5.675T12 20"/></svg>