<svg xmlns="http://www.w3.org/2000/svg" width="1em" height="1em" viewBox="0 0 24 24"><path fill="currentColor" d="m4.442 22.5l1.789-8.192h.89L5.333 22.5zm3.212 0l2.8-14.446L7.5 9.274V12.5h-1V8.608l4.57-1.9q.686-.281 1.263-.14t.944.701l.98 1.581q.65 1.05 1.754 1.763q1.102.714 2.489.849v1q-1.554-.097-2.924-.948q-1.37-.85-2.326-2.38l-.888 4.52l2.138 2.058V22.5h-1v-5.673l-2.908-2.789L8.677 22.5zM13.5 5.192q-.69 0-1.191-.5q-.501-.502-.501-1.192t.5-1.191q.502-.501 1.192-.501t1.191.5q.501.502.501 1.192t-.5 1.191q-.502.501-1.192.501M17.808 22.5v-8.192h.884V22.5z"/></svg>