<svg xmlns="http://www.w3.org/2000/svg" width="1em" height="1em" viewBox="0 0 24 24"><path fill="currentColor" d="m4.565 21.965l1.598-7.313q.03-.165.148-.254q.117-.09.28-.09q.205 0 .334.16q.129.159.073.374L5.4 22.156q-.03.164-.147.254q-.118.09-.28.09q-.206 0-.335-.16q-.128-.16-.073-.375m3.204-.055l2.685-13.856L7.5 9.274V12q0 .213-.144.356q-.144.144-.357.144t-.356-.144Q6.5 12.213 6.5 12V9.142q0-.248.143-.444q.144-.196.36-.302l4.066-1.688q.687-.281 1.264-.14t.944.701l.98 1.581q.583.927 1.546 1.62q.962.692 2.178.93q.213.056.366.205q.153.148.153.36q0 .21-.153.34q-.153.132-.36.1q-1.408-.2-2.631-1.02q-1.223-.82-2.106-2.25l-.888 4.519l1.896 1.815q.13.131.186.28q.056.15.056.31V22q0 .213-.144.356q-.144.144-.357.144t-.356-.144Q13.5 22.213 13.5 22v-5.173l-2.908-2.789l-1.836 8.066q-.036.173-.172.285q-.137.111-.315.111q-.255 0-.408-.183q-.153-.182-.092-.407M13.5 5.192q-.698 0-1.195-.497q-.497-.497-.497-1.195t.497-1.195q.497-.497 1.195-.497t1.195.497q.497.497.497 1.195t-.497 1.195q-.497.497-1.195.497m4.308 16.866V14.75q0-.192.125-.317t.316-.125t.317.125q.126.125.126.317v7.308q0 .191-.125.317q-.125.125-.316.125t-.317-.125q-.126-.126-.126-.317"/></svg>