<svg xmlns="http://www.w3.org/2000/svg" width="1em" height="1em" viewBox="0 0 24 24"><path fill="currentColor" d="m19.479 20.9l-2.385-2.379h.248v1.077q0 .173-.114.288T16.94 20q-.173 0-.287-.114q-.115-.115-.115-.288v-1.633L14.4 15.827H11q-1.004 0-1.575-.87t-.14-1.8l.773-1.672L3.094 4.52q-.146-.146-.156-.347q-.01-.2.156-.366q.166-.166.357-.166t.357.166l16.384 16.384q.146.146.156.345q.01.198-.156.363q-.165.165-.356.165t-.357-.165m-1.94-6.173l-1.631-1.63h.15q.517.153.922.558t.558.922zm-3.772-3.771l-3.436-3.437h2.638q.875 0 1.328.644q.453.643.06 1.514zM8.192 21q-1.748 0-2.97-1.251Q4 18.5 4 16.75t1.241-2.99q1.242-1.24 2.97-1.24v1.018q-1.326 0-2.269.943Q5 15.423 5 16.75q0 1.327.942 2.27q.943.942 2.289.942t2.288-.943q.943-.942.943-2.269h1q0 1.748-1.261 3Q9.941 21 8.192 21M14.77 6.808q-.67 0-1.133-.463t-.463-1.133q0-.672.463-1.134q.462-.463 1.133-.463t1.124.463q.453.462.453 1.134q0 .67-.453 1.133q-.453.463-1.124.463"/></svg>