<svg xmlns="http://www.w3.org/2000/svg" width="1em" height="1em" viewBox="0 0 24 24"><path fill="currentColor" d="M5.5 18.77q-.213 0-.356-.145Q5 18.481 5 18.27q0-.213.144-.356q.143-.144.356-.144h1.115V9.846q0-1.96 1.24-3.447Q9.097 4.912 11 4.546V4q0-.417.291-.708q.291-.292.707-.292q.415 0 .709.292Q13 3.583 13 4v.546q1.904.366 3.144 1.853q1.24 1.488 1.24 3.447v7.923H18.5q.213 0 .356.144t.144.357q0 .213-.144.356t-.356.143zm6.497 2.615q-.668 0-1.14-.475q-.472-.474-.472-1.14h3.23q0 .67-.475 1.143q-.476.472-1.143.472m-4.382-3.616h8.77V9.846q0-1.823-1.281-3.104q-1.28-1.28-3.104-1.28t-3.104 1.28q-1.28 1.281-1.28 3.104zM3.74 9.827q-.223 0-.366-.162q-.143-.161-.132-.394q.104-1.586.743-2.997q.638-1.41 1.675-2.495q.17-.16.381-.183t.365.144q.154.168.142.375q-.011.208-.183.373q-.898.945-1.446 2.16q-.548 1.215-.652 2.602q-.03.233-.167.405q-.137.172-.36.172m16.53 0q-.233 0-.37-.172q-.137-.172-.167-.405q-.104-1.387-.643-2.592q-.538-1.206-1.436-2.15q-.178-.164-.205-.382q-.028-.218.126-.386t.374-.134q.22.032.391.192q1.037 1.085 1.675 2.486q.639 1.4.743 2.987q.011.233-.132.394q-.144.162-.357.162"/></svg>