<svg xmlns="http://www.w3.org/2000/svg" width="1em" height="1em" viewBox="0 0 24 24"><path fill="currentColor" d="M5.5 18.77q-.213 0-.357-.144Q5 18.483 5 18.269q0-.213.143-.356q.144-.144.357-.144h1.115V9.846q0-1.96 1.24-3.447Q9.097 4.912 11 4.546V4q0-.413.293-.707Q11.587 3 12 3t.707.293Q13 3.587 13 4v.546q1.904.366 3.144 1.853q1.24 1.488 1.24 3.447v7.923H18.5q.213 0 .357.144q.143.143.143.356q0 .214-.143.357q-.144.143-.357.143zm6.5 2.615q-.671 0-1.143-.472q-.472-.473-.472-1.144h3.23q0 .671-.472 1.144q-.472.472-1.143.472M3.73 9.827q-.213 0-.356-.162q-.143-.161-.132-.394q.123-1.856.954-3.44q.83-1.583 2.175-2.706q.171-.16.391-.154q.22.006.355.183q.135.177.085.384q-.05.208-.221.354q-1.168.983-1.88 2.362q-.71 1.379-.834 2.996q-.03.233-.167.405q-.137.172-.37.172m16.54 0q-.233 0-.37-.172q-.137-.172-.167-.405q-.123-1.617-.835-2.996q-.711-1.379-1.879-2.362q-.17-.146-.22-.354q-.05-.207.084-.384q.134-.177.355-.183q.22-.006.39.154q1.345 1.123 2.176 2.707q.83 1.583.954 3.44q.011.232-.132.393q-.143.162-.357.162"/></svg>