<svg xmlns="http://www.w3.org/2000/svg" width="1em" height="1em" viewBox="0 0 24 24"><path fill="currentColor" d="M11.997 21.385q-.668 0-1.14-.475q-.472-.474-.472-1.14h3.23q0 .67-.475 1.142q-.476.473-1.143.473M5 18.769v-1h1.615V9.846q0-1.96 1.24-3.447Q9.097 4.912 11 4.546V4q0-.417.291-.708q.291-.292.707-.292q.415 0 .709.292Q13 3.583 13 4v.075q-.442.615-.683 1.342q-.24.727-.24 1.487q0 1.998 1.395 3.422q1.395 1.424 3.374 1.462h.27q.134 0 .269-.019v6H19v1zm11.964-9.365q-1.04 0-1.772-.729q-.73-.728-.73-1.769q0-1.04.728-1.771q.729-.731 1.77-.731q1.04 0 1.77.728t.732 1.77q0 1.04-.729 1.771q-.728.73-1.77.73"/></svg>