<svg xmlns="http://www.w3.org/2000/svg" width="1em" height="1em" viewBox="0 0 24 24"><path fill="currentColor" d="M12 20q-2.502 0-4.251-1.749Q6 16.501 6 14q0-2.062 1.243-3.674q1.244-1.613 3.244-2.128q-.71-.142-1.265-.549q-.555-.407-.91-1.016q-.356-.61-.535-1.316T7.62 3.852q.852-.029 1.623.23q.771.26 1.387.772q.615.511 1.006 1.19t.453 1.52q.306-.737.74-1.396q.433-.658 1.008-1.233q.14-.14.354-.14q.214 0 .354.14q.14.14.14.353q0 .214-.14.354q-.53.531-.936 1.146q-.406.614-.664 1.306q2.2.335 3.627 2.009Q18 11.777 18 14q0 2.502-1.749 4.251Q14.501 20 12 20"/></svg>