<svg xmlns="http://www.w3.org/2000/svg" width="1em" height="1em" viewBox="0 0 24 24"><path fill="currentColor" d="M3.98 16q0-1.042.73-1.77q.73-.73 1.77-.73h2q1.46 0 2.48-1.02q1.02-1.022 1.02-2.48q0-.617-.44-1.059q-.442-.441-1.06-.441q-.632 0-1.066-.434Q8.981 7.633 8.981 7V3q0-.213.149-.356T9.5 2.5q.213 0 .356.144T10 3v4q0 .212.135.356q.134.144.346.144q1.041 0 1.77.73q.73.728.73 1.77q0 1.868-1.316 3.184Q10.348 14.5 8.48 14.5h-2q-.618 0-1.059.441q-.441.442-.441 1.059v5q0 .213-.144.356t-.357.144q-.213 0-.356-.144T3.981 21zM10 7V2.5zq0 .212.135.356q.134.144.346.144q1.041 0 1.77.73q.73.728.73 1.77q0 1.868-1.316 3.184Q10.348 14.5 8.48 14.5h-2q-.618 0-1.059.441q-.441.442-.441 1.059v5.5V16q0-.617.441-1.059q.441-.441 1.059-.441h2q1.867 0 3.184-1.316Q12.98 11.868 12.98 10q0-1.042-.73-1.77q-.729-.73-1.77-.73q-.212 0-.346-.144Q10 7.212 10 7m10 5.237q-.233-.189-.473-.342q-.24-.153-.527-.295V11q0-2.229-1.443-3.864T13.942 5.5q-.8 0-1.371-.578T12 3.558V3q0-.213.144-.356T12.5 2.5q.212 0 .356.144Q13 2.787 13 3v.558l.942.942q2.598 0 4.328 1.922Q20 8.344 20 11zM8 20v1q0 .213-.144.356q-.144.144-.357.144q-.212 0-.356-.144Q7 21.213 7 21v-1q0-1.042.73-1.77q.728-.73 1.77-.73h1.635q.038.275.097.515q.058.24.156.485H9.5q-.617 0-1.059.441Q8 19.383 8 20m8.5-1.404q.873 0 1.494-.621q.621-.622.621-1.494q0-.873-.621-1.494q-.621-.622-1.494-.622t-1.494.622q-.621.621-.621 1.494q0 .872.621 1.494q.621.621 1.494.621m0 1q-1.304 0-2.21-.906q-.905-.905-.905-2.21t.905-2.209q.906-.906 2.21-.906t2.21.906q.905.906.905 2.21q0 .54-.178 1.022q-.18.482-.493.874l2.081 2.061q.14.14.14.353q0 .215-.139.355q-.139.14-.353.14q-.215 0-.356-.14l-2.08-2.08q-.374.255-.806.393t-.931.137"/></svg>