<svg xmlns="http://www.w3.org/2000/svg" width="1em" height="1em" viewBox="0 0 24 24"><path fill="currentColor" d="M6.852 9.498q-.53-.706-.878-1.508q-.347-.802-.347-1.688v-.36q0-.165.025-.36q.03-.213.168-.359t.332-.146q.22 0 .375.146t.125.36q-.025.169-.038.322q-.012.153-.012.322q0 .813.365 1.536q.366.724.86 1.387q.506.667.865 1.429q.36.761.36 1.598v.394q-.006.214-.146.36q-.14.146-.354.146q-.214 0-.363-.143q-.149-.144-.137-.357q.006-.125.015-.225t.01-.225q0-.744-.38-1.39t-.845-1.239m3.423 0q-.53-.706-.878-1.508q-.347-.802-.347-1.688v-.36q0-.165.025-.36q.03-.213.168-.359t.332-.146q.22 0 .375.146t.125.36q-.025.169-.037.322q-.013.153-.013.322q0 .813.365 1.536q.366.724.86 1.387q.506.667.865 1.429q.36.761.36 1.598v.394q-.006.214-.146.36t-.354.146q-.213 0-.362-.143q-.15-.144-.138-.357q.006-.125.015-.225q.01-.1.01-.225q0-.744-.38-1.39t-.845-1.239m3.423 0q-.53-.706-.878-1.508q-.347-.802-.347-1.688v-.36q0-.165.025-.36q.03-.213.168-.359t.332-.146q.22 0 .375.146q.156.146.125.36q-.025.169-.037.322q-.013.153-.013.322q0 .813.365 1.536q.366.724.86 1.387q.506.667.865 1.429q.36.761.36 1.598v.394q-.006.214-.146.36q-.14.146-.354.146q-.213 0-.362-.143q-.15-.144-.138-.357q.006-.125.015-.225q.01-.1.01-.225q0-.744-.38-1.39q-.381-.645-.845-1.239M12 18.923q-3.302 0-5.612-1.203q-2.311-1.203-2.311-2.932q0-.71.515-1.402q.516-.694 1.485-1.246v1.133q-.5.35-.75.741t-.25.755q0 1.26 2.079 2.207q2.079.947 4.844.947t4.844-.947q2.08-.947 2.08-2.207q0-.363-.25-.755t-.75-.74V12.14q.968.552 1.484 1.246q.515.693.515 1.402q0 1.73-2.308 2.932q-2.307 1.203-5.615 1.203"/></svg>