<svg xmlns="http://www.w3.org/2000/svg" width="1em" height="1em" viewBox="0 0 24 24"><path fill="currentColor" d="M11.5 19.38V15q0-.213.143-.357q.144-.143.357-.143t.357.143q.143.144.143.357v4.375l1.979-1.985q.146-.146.35-.155q.204-.01.37.155q.164.166.164.36t-.165.36l-2.633 2.632q-.13.131-.267.184q-.136.053-.298.053t-.298-.053q-.137-.053-.267-.184l-2.639-2.638q-.146-.146-.153-.347q-.006-.201.159-.367q.165-.165.357-.165t.356.165zM4.625 12.5l1.985 1.979q.146.146.155.35q.01.204-.155.37q-.166.164-.36.164t-.36-.165l-2.632-2.633q-.131-.13-.184-.267q-.053-.136-.053-.298t.053-.298q.053-.137.184-.267L5.89 8.802q.147-.146.348-.156q.2-.01.366.156q.165.165.165.357t-.165.356L4.619 11.5H9q.213 0 .357.143q.143.144.143.357t-.143.357Q9.213 12.5 9 12.5zm14.756 0H15q-.213 0-.357-.143q-.143-.144-.143-.357t.143-.357q.144-.143.357-.143h4.375L17.39 9.521q-.146-.146-.155-.35q-.01-.204.155-.37q.166-.164.36-.164t.36.165l2.632 2.633q.131.13.184.267q.053.136.053.298t-.053.298q-.053.137-.184.267l-2.638 2.639q-.146.146-.344.153q-.198.006-.364-.159q-.165-.165-.165-.357t.165-.356zM11.5 4.62L9.51 6.61q-.147.146-.345.155q-.198.01-.363-.155q-.165-.166-.165-.357t.165-.357l2.633-2.638q.13-.131.267-.184q.136-.053.298-.053t.298.053q.137.053.267.184l2.639 2.638q.146.146.156.344q.01.198-.156.364q-.166.165-.357.165t-.357-.165L12.5 4.619V9q0 .213-.143.357q-.144.143-.357.143t-.357-.143Q11.5 9.213 11.5 9z"/></svg>