<svg xmlns="http://www.w3.org/2000/svg" width="1em" height="1em" viewBox="0 0 24 24"><path fill="currentColor" d="M7.5 19.77q-.213 0-.357-.144Q7 19.483 7 19.269q0-.213.143-.356q.144-.144.357-.144h5v-8.546l1.746 1.746q.14.14.344.15q.204.01.364-.15t.16-.354q0-.194-.16-.353l-2.389-2.389q-.242-.242-.565-.242q-.323 0-.565.242l-2.389 2.389q-.14.14-.15.344q-.01.204.15.363q.16.16.354.16t.354-.16l1.746-1.746V15H4.615q-.69 0-1.152-.462Q3 14.075 3 13.385v-7.77q0-.69.463-1.152Q3.925 4 4.615 4h14.77q.69 0 1.152.463q.463.462.463 1.152v7.77q0 .69-.462 1.153q-.463.462-1.153.462H13.5v3.77h3q.213 0 .357.142q.143.144.143.357q0 .214-.143.357q-.144.143-.357.143z"/></svg>