<svg xmlns="http://www.w3.org/2000/svg" width="1em" height="1em" viewBox="0 0 24 24"><path fill="currentColor" d="m19.479 20.9l-.944-.938q-.097.019-.173.028q-.077.01-.174.01H5.615q-.69 0-1.152-.462Q4 19.075 4 18.385V5.812q0-.097.01-.174q.01-.076.028-.173l-.944-.944q-.146-.146-.156-.347q-.01-.2.156-.366q.166-.166.357-.166t.357.166l16.384 16.384q.146.146.156.345q.01.198-.156.363q-.165.165-.356.165t-.357-.165M5.615 19h11.958l-5.933-5.933l-1.548 1.548q-.14.14-.344.15q-.204.01-.363-.15q-.16-.16-.16-.353q0-.195.16-.354l1.548-1.548L5 6.427v11.958q0 .23.192.423q.193.192.423.192m5.116-14H7.75q-.25 0-.375-.159T7.25 4.5q0-.183.125-.341T7.75 4h2.98q.214 0 .357.143q.144.144.144.357t-.144.357t-.356.143M19 5.708l-4.887 4.886q-.14.14-.344.15q-.204.01-.363-.15q-.16-.16-.16-.354q0-.194.16-.353L18.292 5H14.5q-.213 0-.357-.143T14 4.5q0-.213.143-.357Q14.287 4 14.5 4h4.692q.348 0 .578.23q.23.23.23.578V9.5q0 .213-.143.357q-.144.143-.357.143t-.357-.143T19 9.5zm1 7.561v2.962q0 .25-.159.375t-.341.125q-.183 0-.341-.128q-.159-.128-.159-.378v-2.956q0-.213.143-.356t.357-.144q.213 0 .357.144q.143.143.143.356"/></svg>