<svg xmlns="http://www.w3.org/2000/svg" width="1em" height="1em" viewBox="0 0 24 24"><path fill="currentColor" d="M5.615 20q-.69 0-1.152-.462Q4 19.075 4 18.385V5.615q0-.69.463-1.152Q4.925 4 5.615 4h12.77q.69 0 1.152.463q.463.462.463 1.152v12.77q0 .69-.462 1.152q-.463.463-1.153.463h-2.616q-.213 0-.356-.143q-.144-.144-.144-.357t.144-.357t.356-.143h2.616q.23 0 .423-.192q.192-.193.192-.423V7H5v11.385q0 .23.192.423q.193.192.423.192h2.616q.213 0 .357.143t.143.357q0 .213-.144.357q-.143.143-.356.143zm5.885-.5v-5.804l-1.74 1.74q-.147.147-.348.153q-.2.007-.366-.158q-.16-.166-.162-.354q-.003-.189.162-.354l2.389-2.388q.13-.131.267-.184q.136-.053.298-.053t.298.053q.137.053.267.184l2.389 2.388q.146.146.153.344q.006.198-.153.364q-.166.165-.357.168q-.191.003-.357-.162l-1.74-1.74V19.5q0 .213-.143.357Q12.213 20 12 20t-.357-.143q-.143-.144-.143-.357"/></svg>