<svg xmlns="http://www.w3.org/2000/svg" width="1em" height="1em" viewBox="0 0 24 24"><path fill="currentColor" d="M5 17.385V8.1L3.45 4.692q-.079-.182-.006-.387T3.7 4.02q.183-.079.388-.008q.204.07.283.252L6.085 8.05h11.83l1.714-3.785q.079-.182.283-.255t.388.011q.183.079.256.284t-.006.387L19 8.1v9.285q0 .67-.472 1.143q-.472.472-1.143.472H6.615q-.67 0-1.143-.472Q5 18.056 5 17.385m5-4.885h4q.213 0 .357-.143q.143-.144.143-.357t-.143-.357Q14.213 11.5 14 11.5h-4q-.213 0-.357.143q-.143.144-.143.357t.143.357q.144.143.357.143M6.615 18h10.77q.269 0 .442-.173t.173-.442V9.05H6v8.335q0 .269.173.442t.442.173M6 18V9.05z"/></svg>