<svg xmlns="http://www.w3.org/2000/svg" width="1em" height="1em" viewBox="0 0 24 24"><path fill="currentColor" d="m17.371 18.587l-.656-.656q-.128-.13-.306-.13t-.307.13t-.129.304q0 .175.129.303l.86.86q.186.187.419.187q.232 0 .419-.187l2.098-2.067q.129-.13.139-.297q.01-.169-.139-.317q-.129-.129-.316-.129t-.317.13zm-.64-9.856q.213 0 .356-.143t.144-.357q0-.214-.144-.357q-.143-.143-.356-.143H7.269q-.213 0-.356.143q-.144.143-.144.357q0 .213.144.357t.356.143zM18 22.115q-1.671 0-2.836-1.164T14 18.115q0-1.67 1.164-2.835T18 14.115q1.671 0 2.836 1.165T22 18.115q0 1.672-1.164 2.836Q19.67 22.115 18 22.115M5.615 4h12.77q.67 0 1.143.472q.472.472.472 1.143v5.945q-.892-.293-1.828-.301q-.935-.009-1.845.241H7.269q-.213 0-.356.143q-.144.144-.144.357t.144.357q.143.143.356.143h6.812q-.752.521-1.326 1.223q-.574.702-.945 1.546H7.27q-.214 0-.357.144t-.144.356q0 .214.144.357q.143.143.356.143h4.21q-.108.404-.168.815t-.061.858q0 .685.143 1.359q.144.674.43 1.299q-.029.006-.06-.009q-.032-.014-.055-.037l-.82-.57q-.111-.072-.234-.072t-.235.073l-.877.607q-.111.073-.234.073t-.235-.073l-.877-.607q-.111-.073-.234-.073q-.124 0-.235.073l-.877.607q-.112.073-.235.073t-.234-.073l-.877-.607q-.112-.073-.235-.073t-.234.073l-.781.607q-.058.039-.254.13V5.614q0-.67.472-1.143Q4.944 4 5.615 4"/></svg>