<svg xmlns="http://www.w3.org/2000/svg" width="1em" height="1em" viewBox="0 0 24 24"><path fill="currentColor" d="M16.904 20.058L20 18.115l-3.096-1.942zM6.769 8.73h10.462v-1H6.769zM18 22.115q-1.671 0-2.836-1.164T14 18.115q0-1.67 1.164-2.835T18 14.115q1.671 0 2.836 1.165T22 18.115q0 1.672-1.164 2.836Q19.67 22.115 18 22.115M4 20.77V5.615q0-.67.472-1.143Q4.944 4 5.615 4h12.77q.67 0 1.143.472q.472.472.472 1.143v5.945q-.892-.293-1.828-.301q-.935-.009-1.845.241H6.769v1h7.312q-.752.521-1.326 1.223q-.574.702-.945 1.546H6.77v1h4.709q-.108.404-.168.815t-.061.858q0 .685.143 1.359q.144.674.43 1.299l-.035.035l-1.134-.827l-1.346.961l-1.346-.961l-1.347.961l-1.346-.961z"/></svg>