<svg xmlns="http://www.w3.org/2000/svg" width="1em" height="1em" viewBox="0 0 24 24"><path fill="currentColor" d="m17.525 19.679l1.935-1.216q.192-.12.192-.343q0-.222-.192-.353l-1.935-1.215q-.212-.13-.416-.016q-.205.114-.205.364v2.43q0 .25.205.365q.204.115.416-.016M16.731 8.73q.212 0 .356-.144t.144-.357q0-.213-.144-.356t-.356-.143H7.269q-.212 0-.356.144t-.144.356q0 .213.144.357q.144.143.356.143zM18 22.115q-1.671 0-2.836-1.164T14 18.115q0-1.67 1.164-2.835T18 14.115q1.671 0 2.836 1.165T22 18.115q0 1.672-1.164 2.836Q19.67 22.115 18 22.115M5.615 4h12.77q.666 0 1.14.475q.475.474.475 1.14v5.945q-.892-.293-1.828-.301q-.935-.009-1.845.241H7.269q-.212 0-.356.144T6.769 12t.144.356q.144.143.356.143h6.812q-.752.521-1.326 1.223q-.574.702-.945 1.546H7.27q-.213 0-.357.144t-.144.357q0 .213.144.356t.356.143h4.21q-.108.404-.168.815t-.061.858q0 .685.143 1.363t.43 1.295q-.029.006-.06-.009q-.032-.014-.055-.037l-1.054-.746l-1.112.784q-.111.073-.234.073t-.235-.073l-1.111-.784l-1.112.784q-.112.073-.235.073t-.234-.073l-1.131-.784l-.996.784q-.058.039-.254.13V5.614q0-.666.475-1.14Q4.949 4 5.615 4"/></svg>