<svg xmlns="http://www.w3.org/2000/svg" width="1em" height="1em" viewBox="0 0 24 24"><path fill="currentColor" d="M12 21.2q-1.015 0-2.137-.215q-1.123-.216-2.013-.533q-.275-.106-.466-.362t-.192-.563v-.635H6.5q-.343 0-.575-.232q-.233-.232-.233-.575v-1.26q0-.358.233-.587q.232-.23.575-.23h.692v-2.616H6.5q-.343 0-.575-.232q-.233-.232-.233-.575v-1.26q0-.358.233-.587q.232-.23.575-.23h.692V8.085H6.5q-.343 0-.575-.233q-.233-.232-.233-.575v-1.26q0-.357.233-.587q.232-.23.575-.23h.692V4.104q0-.348.248-.522q.248-.174.575-.051q.718.23 1.76.45Q10.817 4.2 12 4.2t2.225-.229q1.042-.229 1.76-.46q.327-.123.575.06q.248.181.248.514V5.2h.692q.343 0 .576.232q.232.232.232.576v1.26q0 .357-.232.587q-.233.23-.576.23h-.692v2.423h.692q.343 0 .576.232q.232.232.232.575v1.26q0 .358-.232.588q-.233.23-.576.23h-.692v2.615h.692q.343 0 .576.232q.232.232.232.575v1.26q0 .358-.232.588q-.233.23-.576.23h-.692v.634q0 .307-.192.563t-.466.362q-.89.317-2.012.533q-1.123.215-2.138.215m0-11.85q.95 0 1.926-.175t1.882-.5V4.6q-.931.275-1.892.438q-.96.162-1.925.162q-.941 0-1.902-.162q-.96-.163-1.897-.438v4.075q.9.325 1.88.5q.978.175 1.928.175m0 5.7q.944 0 1.92-.185q.976-.184 1.888-.515v-4.6q-.966.262-1.915.43q-.949.17-1.893.17q-.956 0-1.913-.16q-.958-.16-1.895-.44v4.6q.912.33 1.888.515q.976.185 1.92.185m0 5.15q.95 0 1.926-.175t1.882-.5V15.45q-.931.275-1.892.438q-.96.162-1.925.162q-.941 0-1.902-.162q-.96-.163-1.897-.438v4.075q.9.325 1.88.5q.978.175 1.928.175"/></svg>