<svg xmlns="http://www.w3.org/2000/svg" width="1em" height="1em" viewBox="0 0 24 24"><path fill="currentColor" d="M15.962 16.77q.923 0 1.576.653q.654.654.654 1.577t-.654 1.577q-.653.654-1.576.654q-.777 0-1.396-.483q-.618-.483-.75-1.248H6.58l-1.218 1.938l-.878-.536l4.653-7.194q-1.626-.575-2.68-1.817Q5.404 10.65 5.115 9h11.77q-.289 1.65-1.333 2.891q-1.044 1.242-2.671 1.817l1.67 2.65q-.274.154-.438.279q-.165.125-.373.344l-1.884-3.031q-.162.05-.396.05h-.9q-.216 0-.377-.05L7.227 18.5h6.588q.133-.765.751-1.248q.619-.483 1.396-.483m0 3.462q.52 0 .876-.355q.354-.355.354-.876t-.354-.876q-.355-.355-.876-.355q-.522 0-.876.355q-.355.355-.355.876t.355.876q.354.355.876.355M11 13.019q1.538 0 2.766-.844T15.6 10H6.4q.612 1.33 1.837 2.175t2.763.844M8.65 7.231q.106-.687-.038-1.187q-.143-.5-.61-1.073q-.5-.65-.653-1.209q-.153-.558-.028-1.3h.5q-.106.686.038 1.183q.143.497.61 1.07q.506.65.656 1.209q.15.559.025 1.307zm2.48 0q.107-.687-.034-1.187q-.14-.5-.608-1.073q-.505-.644-.658-1.203q-.153-.558-.028-1.306h.5q-.106.686.037 1.183q.144.497.611 1.07q.5.645.653 1.203q.153.559.028 1.313zm2.52 0q.106-.687-.035-1.187q-.14-.5-.607-1.073q-.506-.644-.659-1.203q-.153-.558-.028-1.306h.5q-.106.686.038 1.183q.143.497.61 1.07q.5.645.653 1.203q.153.559.028 1.313zM11 13.019"/></svg>