<svg xmlns="http://www.w3.org/2000/svg" width="1em" height="1em" viewBox="0 0 24 24"><path fill="currentColor" d="M15.962 16.77q.923 0 1.576.653q.654.654.654 1.577t-.654 1.577q-.653.654-1.576.654q-.777 0-1.396-.483q-.618-.483-.75-1.248H6.58l-.962 1.512q-.11.176-.32.216q-.21.04-.387-.07t-.217-.32q-.04-.211.07-.388l4.373-6.742q-1.228-.437-2.29-1.417q-1.061-.98-1.435-2.262q-.107-.392.135-.71Q5.79 9 6.202 9h9.615q.412 0 .645.318q.232.319.125.71q-.374 1.303-1.416 2.273q-1.042.97-2.29 1.407l1.67 2.65q-.274.154-.438.279q-.165.125-.373.344l-1.884-3.031q-.162.05-.396.05h-.9q-.216 0-.377-.05L7.227 18.5h6.588q.133-.765.751-1.248q.619-.483 1.396-.483m0 3.462q.52 0 .876-.355q.354-.355.354-.876t-.354-.876q-.355-.355-.876-.355q-.522 0-.876.355q-.355.355-.355.876t.355.876q.354.355.876.355M8.002 4.97q-.464-.583-.629-1.09q-.165-.506-.083-1.144q.02-.11.096-.193t.185-.082q.104 0 .162.082q.057.083.057.187q-.044.557.105 1.018q.15.46.574.966q.464.589.632 1.096q.168.506.08 1.145q-.025.11-.098.192T8.9 7.23q-.104 0-.162-.083q-.057-.083-.057-.186q.044-.558-.105-1.022q-.15-.463-.574-.969m2.486 0q-.463-.577-.631-1.083q-.169-.507-.086-1.151q.02-.11.095-.193q.076-.082.186-.082q.104 0 .161.082q.058.083.058.187q-.044.557.105 1.018q.149.46.574.966q.463.583.632 1.09q.168.507.08 1.157q-.025.11-.099.189q-.073.08-.182.08q-.104 0-.162-.083t-.057-.186q.044-.558-.102-1.022q-.147-.463-.572-.969m2.52 0q-.464-.577-.632-1.084q-.168-.506-.086-1.15q.02-.11.096-.193t.185-.082q.104 0 .162.082q.057.083.057.187q-.044.557.105 1.018q.15.46.574.966q.464.583.632 1.09q.168.507.08 1.157q-.025.11-.098.189q-.073.08-.183.08q-.104 0-.162-.083q-.057-.083-.057-.186q.044-.558-.102-1.022q-.146-.463-.571-.969"/></svg>