<svg xmlns="http://www.w3.org/2000/svg" width="1em" height="1em" viewBox="0 0 24 24"><path fill="currentColor" d="m18 19.288l-.688-.688l2.055-2.1H14.5v-1h4.867l-2.055-2.1l.688-.688L21.288 16zm-7.6-8.903l7.1-4.966q0-.057-.029-.203t-.077-.295q-.048-.15-.096-.276q-.048-.126-.106-.145h-.057L10.4 9.194L3.86 4.5h-.052q-.058.02-.106.145q-.048.126-.096.28q-.048.152-.077.3q-.029.148-.029.206zM4.087 16.5q-.66 0-1.124-.463q-.463-.464-.463-1.124V5.087q0-.66.463-1.124q.464-.463 1.124-.463h12.826q.66 0 1.124.463q.463.464.463 1.124v5.436q-.192-.011-.385-.017q-.192-.006-.384-.006q-2.143 0-3.687 1.532Q12.5 13.563 12.5 15.73q0 .192.006.384q.006.193.017.385z"/></svg>