<svg xmlns="http://www.w3.org/2000/svg" width="1em" height="1em" viewBox="0 0 24 24"><path fill="currentColor" d="M19.367 16.5H15q-.213 0-.357-.143q-.143-.144-.143-.357t.143-.357q.144-.143.357-.143h4.367l-1.727-1.765q-.14-.14-.13-.342q.01-.2.155-.347q.14-.14.345-.14t.344.14l2.37 2.389q.124.125.18.264q.056.14.056.301q0 .162-.056.3q-.056.14-.18.265l-2.39 2.389q-.14.14-.34.133q-.202-.006-.348-.152q-.14-.14-.14-.335t.14-.335zM10.4 10.385l7.1-4.966q0-.057-.029-.203t-.077-.295q-.048-.15-.096-.276q-.048-.126-.106-.145h-.057L10.4 9.194L3.86 4.5h-.052q-.058.02-.106.145q-.048.126-.096.28q-.048.152-.077.3q-.029.148-.029.206zM4.087 16.5q-.66 0-1.124-.463q-.463-.464-.463-1.124V5.087q0-.66.463-1.124q.464-.463 1.124-.463h12.826q.66 0 1.124.463q.463.464.463 1.124v4.728q0 .293-.208.495q-.207.202-.5.196q-1.09.007-2.03.38q-.939.374-1.718 1.152q-.779.78-1.155 1.722t-.383 2.032q.006.293-.196.5q-.202.208-.495.208z"/></svg>