<svg xmlns="http://www.w3.org/2000/svg" width="1em" height="1em" viewBox="0 0 24 24"><path fill="currentColor" d="M9 11.885q.213 0 .357-.144q.143-.144.143-.356v-3q0-.213-.144-.357q-.144-.143-.357-.143t-.356.143q-.143.144-.143.357v3q0 .212.144.356t.357.144m2.307 5.23h1.384q.344 0 .576-.232q.232-.232.232-.575v-.693q0-.632-.434-1.066q-.433-.434-1.066-.434t-1.066.434q-.434.434-.434 1.066v.693q0 .343.232.575q.232.232.576.232M15 11.885q.212 0 .356-.144q.143-.144.143-.356v-3q0-.213-.144-.357q-.144-.143-.357-.143t-.356.143q-.143.144-.143.357v3q0 .212.144.356t.357.144M12.003 21q-1.866 0-3.51-.708q-1.643-.709-2.859-1.924q-1.216-1.214-1.925-2.856Q3 13.87 3 12.003q0-1.866.708-3.51q.709-1.643 1.924-2.859q1.214-1.216 2.856-1.925Q10.13 3 11.997 3q1.866 0 3.51.708q1.643.709 2.859 1.924q1.216 1.214 1.925 2.856Q21 10.13 21 11.997q0 1.866-.708 3.51q-.709 1.643-1.924 2.859q-1.214 1.216-2.856 1.925Q13.87 21 12.003 21M12 20q3.35 0 5.675-2.325T20 12q0-3.35-2.325-5.675T12 4Q8.65 4 6.325 6.325T4 12q0 3.35 2.325 5.675T12 20m0-8"/></svg>