<svg xmlns="http://www.w3.org/2000/svg" width="1em" height="1em" viewBox="0 0 24 24"><path fill="currentColor" d="M2.814 20q-.354 0-.584-.232q-.23-.232-.23-.576V4.808q0-.344.232-.576Q2.464 4 2.808 4h10.461q.344 0 .576.232q.232.232.232.576v14.384q0 .344-.232.576q-.232.232-.576.232H9.923v-4.154h-3.77V20zm2.57-7.308h1.462v-1.461H5.385zm0-3.846h1.462V7.385H5.385zm3.847 3.846h1.461v-1.461H9.231zm0-3.846h1.461V7.385H9.231zm7 3.153q0-.212.144-.356q.143-.143.356-.143h3.386l-1.246-1.246q-.14-.14-.15-.351q-.01-.21.15-.36q.146-.137.353-.137t.341.14l1.889 1.889q.242.242.242.565q0 .323-.242.565l-1.889 1.889q-.135.134-.339.14q-.203.006-.35-.14q-.159-.14-.152-.351q.007-.21.147-.357l1.246-1.246h-3.386q-.213 0-.356-.144q-.144-.144-.144-.357"/></svg>