<svg xmlns="http://www.w3.org/2000/svg" width="1em" height="1em" viewBox="0 0 24 24"><path fill="currentColor" d="M5.615 20q-.69 0-1.152-.462Q4 19.075 4 18.385V5.615q0-.69.463-1.152Q4.925 4 5.615 4h12.77q.69 0 1.152.463q.463.462.463 1.152V7h-1V5.615q0-.23-.192-.423Q18.615 5 18.385 5H5.615q-.23 0-.423.192Q5 5.385 5 5.615v12.77q0 .23.192.423q.193.192.423.192h12.77q.23 0 .423-.192q.192-.193.192-.423V17h1v1.385q0 .69-.462 1.152q-.463.463-1.153.463zm11.097-3.712l-.689-.688l3.056-3.1H9.385v-1h9.694l-3.056-3.1l.689-.688L21 12z"/></svg>