<svg xmlns="http://www.w3.org/2000/svg" width="1em" height="1em" viewBox="0 0 24 24"><path fill="currentColor" d="m12.5 18.656l2.765-2.721q.134-.14.341-.14q.207 0 .348.14q.14.14.14.347t-.14.341l-3.389 3.389q-.236.236-.565.236q-.329 0-.565-.236l-3.389-3.389q-.14-.14-.13-.344q.009-.204.15-.344q.14-.14.334-.14t.335.14l2.765 2.72V9.5q0-.213.144-.356Q11.788 9 12 9t.356.144q.143.143.143.356zM12 4Q8.65 4 6.325 6.325T4 12q0 .844.172 1.657q.172.813.516 1.576q.099.213.066.428q-.032.214-.198.378q-.154.151-.37.085t-.307-.272q-.437-.91-.658-1.872Q3 13.02 3 12q0-1.868.708-3.51q.709-1.642 1.924-2.857q1.214-1.215 2.856-1.924Q10.13 3 11.997 3q1.866 0 3.51.709q1.643.708 2.859 1.923q1.216 1.214 1.925 2.856q.709 1.642.709 3.51q0 1.012-.228 2.003q-.228.991-.67 1.9q-.09.2-.288.245q-.197.044-.343-.102q-.165-.165-.195-.369t.049-.412q.35-.784.513-1.606Q20 12.835 20 12q0-3.35-2.325-5.675T12 4"/></svg>