<svg xmlns="http://www.w3.org/2000/svg" width="1em" height="1em" viewBox="0 0 24 24"><path fill="currentColor" d="M16 7.385q.425 0 .713-.288T17 6.385q0-.425-.288-.713T16 5.385q-.425 0-.713.287T15 6.385q0 .425.287.712t.713.288m-4 0q.425 0 .712-.288T13 6.385q0-.425-.288-.713T12 5.385q-.425 0-.713.287T11 6.385q0 .425.287.712t.713.288m-4 0q.425 0 .712-.288T9 6.385q0-.425-.288-.713T8 5.385q-.425 0-.713.287T7 6.385q0 .425.287.712T8 7.385m-3 2.23v8.77q0 .23.192.423q.193.192.423.192h12.77q.23 0 .423-.192q.192-.193.192-.423v-8.77zm6 3.616h2q.262 0 .438-.177q.177-.177.177-.439q0-.261-.177-.438Q13.262 12 13 12h-2q-.262 0-.438.177q-.177.177-.177.438q0 .262.177.439q.176.177.438.177M5.615 20q-.69 0-1.152-.462Q4 19.075 4 18.385V5.615q0-.69.463-1.152Q4.925 4 5.615 4h12.77q.69 0 1.152.463q.463.462.463 1.152v12.77q0 .69-.462 1.152q-.463.463-1.153.463zM12 9.615"/></svg>