<svg xmlns="http://www.w3.org/2000/svg" width="1em" height="1em" viewBox="0 0 24 24"><path fill="currentColor" d="M4 8.846v-3.23q0-.691.463-1.153Q4.925 4 5.615 4h12.77q.69 0 1.152.463q.463.462.463 1.152v3.231zM5.615 20q-.69 0-1.152-.462Q4 19.075 4 18.385v-8.77h16v8.77q0 .69-.462 1.152q-.463.463-1.153.463zM8 7.385q.425 0 .713-.288T9 6.385q0-.425-.288-.713T8 5.385q-.425 0-.712.287T7 6.385q0 .425.288.712T8 7.385m3 5.846h2q.262 0 .438-.177q.177-.177.177-.439q0-.261-.177-.438Q13.262 12 13 12h-2q-.262 0-.438.177q-.177.177-.177.438q0 .262.177.439q.176.177.438.177m1-5.846q.425 0 .713-.288T13 6.385q0-.425-.288-.713T12 5.385q-.425 0-.712.287T11 6.385q0 .425.288.712t.712.288m4 0q.425 0 .713-.288T17 6.385q0-.425-.288-.713T16 5.385q-.425 0-.713.287T15 6.385q0 .425.287.712t.713.288"/></svg>