<svg xmlns="http://www.w3.org/2000/svg" width="1em" height="1em" viewBox="0 0 24 24"><path fill="currentColor" d="M3.385 18q-.69 0-1.153-.462t-.463-1.153v-8.77q0-.69.463-1.152Q2.694 6 3.385 6h8.769q.69 0 1.153.463q.462.462.462 1.152v8.77q0 .69-.462 1.152q-.463.463-1.153.463zm14.114 0q-.212 0-.356-.144Q17 17.713 17 17.5v-11q0-.213.144-.356T17.5 6q.212 0 .356.144q.143.144.143.356v11q0 .213-.144.356q-.144.144-.357.144m4.231 0q-.213 0-.356-.144t-.143-.356v-11q0-.213.144-.356Q21.519 6 21.73 6q.213 0 .357.144q.143.143.143.356v11q0 .213-.144.356T21.73 18"/></svg>