<svg xmlns="http://www.w3.org/2000/svg" width="1em" height="1em" viewBox="0 0 24 24"><path fill="currentColor" d="M11.5 19.713v-7.426L5 8.523v7.08q0 .155.077.29q.077.134.23.23zm1 0l6.192-3.59q.154-.096.231-.23q.077-.135.077-.29v-7.08l-6.5 3.764zm-1.308.974l-6.384-3.68q-.38-.217-.594-.59Q4 16.044 4 15.61V8.39q0-.434.214-.807q.215-.373.594-.59l6.384-3.68q.38-.217.808-.217t.808.217l6.384 3.68q.38.217.594.59q.214.373.214.807v7.22q0 .434-.214.807q-.215.373-.594.59l-6.384 3.68q-.38.217-.808.217t-.808-.217m4.52-11.412l2.713-1.562l-6.117-3.54q-.154-.096-.308-.096t-.308.096L9.3 5.548zM12 11.427l2.7-1.567l-6.425-3.714l-2.7 1.567z"/></svg>