<svg xmlns="http://www.w3.org/2000/svg" width="1em" height="1em" viewBox="0 0 24 24"><path fill="currentColor" d="M17.558 19.058q-1.236 0-2.09-.854t-.853-2.089q0-1.235.854-2.089q.853-.853 2.089-.853t2.089.853q.853.854.853 2.09q0 1.235-.853 2.088q-.854.854-2.09.854m-.001-1q.804 0 1.374-.569q.57-.568.57-1.372q0-.804-.568-1.374t-1.372-.57q-.804 0-1.374.568t-.57 1.372q0 .804.568 1.375t1.372.57m-5.825-1.443H5.5q-.213 0-.356-.144T5 16.115q0-.213.144-.356t.356-.144h6.23q.213 0 .357.144t.144.357q0 .213-.144.356t-.356.143m-5.289-5.788q-1.235 0-2.089-.853Q3.5 9.12 3.5 7.884q0-1.235.853-2.088q.854-.854 2.09-.854q1.235 0 2.088.854t.854 2.089q0 1.235-.854 2.089q-.853.853-2.089.853m-.002-1q.804 0 1.374-.568t.57-1.372q0-.804-.568-1.375t-1.372-.57q-.804 0-1.374.569q-.57.568-.57 1.372q0 .804.568 1.374t1.372.57M18.5 8.385h-6.23q-.213 0-.357-.144t-.144-.357q0-.213.144-.356t.356-.143H18.5q.213 0 .356.144t.144.356q0 .213-.144.356t-.356.144m-12.058-.5"/></svg>