<svg xmlns="http://www.w3.org/2000/svg" width="1em" height="1em" viewBox="0 0 24 24"><path fill="currentColor" d="M4.615 19q-.69 0-1.152-.462Q3 18.075 3 17.385V6.615q0-.69.463-1.152Q3.925 5 4.615 5h14.77q.69 0 1.152.463q.463.462.463 1.152v10.77q0 .69-.462 1.152q-.463.463-1.153.463zm0-1h14.77q.23 0 .423-.192q.192-.193.192-.423V6.615q0-.23-.192-.423Q19.615 6 19.385 6H4.615q-.23 0-.423.192Q4 6.385 4 6.615v10.77q0 .23.192.423q.193.192.423.192m6.597-2.462l-1.427-1.725q-.131-.142-.314-.142t-.313.162l-1.154 1.52q-.162.212-.05.43q.111.217.354.217h7.538q.242 0 .354-.217q.112-.218-.03-.43l-2.02-2.713q-.13-.161-.323-.161t-.323.161zM4 18V6z"/></svg>