<svg xmlns="http://www.w3.org/2000/svg" width="1em" height="1em" viewBox="0 0 24 24"><path fill="currentColor" d="M3 20V6h4.573l1.85-2h5.154l1.85 2H21v14zm1-1h16V7h-4.012l-1.844-2H9.856L8.012 7H4zm8-2.27q1.567 0 2.65-1.08q1.08-1.083 1.08-2.65l-.002-.25q-.003-.125-.047-.25h-1q.05.125.05.25V13q0 1.146-.793 1.938q-.792.793-1.938.793H9.596q.35.419.992.71q.64.29 1.412.29M8.32 13.5h1q-.05-.125-.05-.25V13q0-1.146.792-1.938q.792-.793 1.938-.793h2.404q-.427-.438-1.02-.719q-.594-.28-1.384-.28q-1.567 0-2.65 1.081Q8.27 11.433 8.27 13l.002.25q.003.125.047.25"/></svg>