<svg xmlns="http://www.w3.org/2000/svg" width="1em" height="1em" viewBox="0 0 24 24"><path fill="currentColor" d="M15.87 13.615q-.928 0-1.582-.649q-.653-.65-.653-1.577q0-.927.649-1.581q.65-.654 1.577-.654q.927 0 1.581.65q.654.648.654 1.576t-.65 1.582q-.648.653-1.576.653m-5.235 5.231v-1.13q0-.327.163-.623q.164-.295.44-.474q1.049-.598 2.2-.916q1.15-.318 2.427-.318q1.277 0 2.428.318t2.2.916q.276.18.44.474q.163.296.163.622v1.131zM3.885 13.5v-1h7v1zm0-8v-1h11v1zm7.811 4H3.885v-1h8.384q-.177.233-.322.473q-.145.24-.25.527"/></svg>