<svg xmlns="http://www.w3.org/2000/svg" width="1em" height="1em" viewBox="0 0 24 24"><path fill="currentColor" d="M10.308 15.5q.213 0 .356-.144q.144-.144.144-.356V9q0-.213-.144-.356t-.357-.144q-.213 0-.356.144T9.808 9v6q0 .213.144.356t.356.144m3.385 0q.213 0 .356-.144t.143-.356V9q0-.213-.144-.356t-.356-.144q-.213 0-.356.144q-.144.144-.144.356v6q0 .213.144.356t.357.144M4.615 19q-.69 0-1.152-.462Q3 18.075 3 17.385V6.615q0-.69.463-1.152Q3.925 5 4.615 5h14.77q.69 0 1.152.463q.463.462.463 1.152v10.77q0 .69-.462 1.152q-.463.463-1.153.463z"/></svg>