<svg xmlns="http://www.w3.org/2000/svg" width="1em" height="1em" viewBox="0 0 24 24"><path fill="currentColor" d="M2.692 18.615V8.192h1v9.423h14.654v1zm3-3V5.231h15.616v10.384zm2.616-1q0-.666-.475-1.14Q7.36 13 6.693 13v1.615zm10.384 0h1.616V13q-.671 0-1.144.475q-.472.474-.472 1.14M13.5 12.423q.846 0 1.423-.577q.577-.577.577-1.423q0-.846-.577-1.423q-.577-.577-1.423-.577q-.846 0-1.423.577q-.577.577-.577 1.423q0 .846.577 1.423q.577.577 1.423.577M6.692 7.846q.667 0 1.141-.474q.475-.475.475-1.141H6.692zm13.616 0V6.231h-1.616q0 .67.475 1.143q.474.472 1.14.472"/></svg>