<svg xmlns="http://www.w3.org/2000/svg" width="1em" height="1em" viewBox="0 0 24 24"><path fill="currentColor" d="M13.5 12.423q-.846 0-1.423-.577q-.577-.577-.577-1.423q0-.846.577-1.423q.577-.577 1.423-.577q.846 0 1.423.577q.577.577.577 1.423q0 .846-.577 1.423q-.577.577-1.423.577m-6.192 3.192q-.667 0-1.141-.474q-.475-.475-.475-1.141V6.846q0-.666.475-1.14q.474-.475 1.14-.475h12.385q.667 0 1.141.474t.475 1.141V14q0 .666-.475 1.14q-.474.475-1.14.475zm1-1h10.384q0-.67.475-1.143q.474-.472 1.14-.472V7.846q-.67 0-1.143-.474q-.472-.475-.472-1.141H8.308q0 .67-.475 1.143q-.474.472-1.14.472V13q.67 0 1.143.475q.472.474.472 1.14m9.538 4H4.308q-.667 0-1.141-.474q-.475-.475-.475-1.141V8.692q0-.212.144-.356t.357-.144t.356.144q.143.144.143.356V17q0 .23.193.423q.192.192.423.192h13.538q.213 0 .356.144q.144.144.144.357t-.144.356q-.143.143-.356.143m-10.538-4h-.616V6.231h.616q-.25 0-.433.182q-.183.183-.183.433V14q0 .25.183.433q.183.182.433.182"/></svg>