<svg xmlns="http://www.w3.org/2000/svg" width="1em" height="1em" viewBox="0 0 24 24"><path fill="currentColor" d="M5.009 19.5q-1.916 0-3.213-1.294Q.5 16.913.5 15q0-1.875 1.316-3.207Q3.133 10.462 5 10.462q1.713 0 2.997 1.16q1.284 1.159 1.48 2.878h1.765l-2.146-6H8q-.213 0-.356-.144q-.144-.144-.144-.357t.144-.356Q7.788 7.5 8 7.5h3q.213 0 .356.144q.144.144.144.357t-.144.356Q11.213 8.5 11 8.5h-.83l.695 1.962h5.916L15.1 5.846q-.058-.173-.192-.26q-.135-.086-.308-.086H13q-.212 0-.356-.144t-.144-.357t.144-.356Q12.788 4.5 13 4.5h1.6q.477 0 .871.267t.567.725l1.816 4.958H19q1.868 0 3.184 1.316T23.5 14.95q0 1.876-1.315 3.194q-1.316 1.318-3.185 1.318q-1.723 0-2.98-1.135T14.523 15.5H9.477q-.196 1.725-1.498 2.863T5.009 19.5m3.445-4v-1H6q-.213 0-.356.144q-.144.144-.144.357t.144.356q.144.143.356.143zm3.9-1h2.17q.086-.69.51-1.623q.424-.933 1.235-1.415h-5.05zm4.965-2.57l.812 2.297q.063.195.26.28q.197.085.386.012q.188-.073.277-.265q.088-.192.015-.38l-.861-2.297z"/></svg>