<svg xmlns="http://www.w3.org/2000/svg" width="1em" height="1em" viewBox="0 0 24 24"><path fill="currentColor" d="M5 19.5q-1.913 0-3.207-1.293Q.5 16.913.5 15q0-1.875 1.318-3.207Q3.137 10.462 5 10.462q1.713 0 2.997 1.16q1.284 1.159 1.48 2.878h1.765l-2.146-6H7.5v-1h4v1h-1.33l.695 1.962h5.916L15.1 5.846q-.058-.173-.192-.26q-.135-.086-.308-.086h-2.1v-1h2.1q.477 0 .874.263q.397.264.564.73l1.816 4.957H19q1.863 0 3.182 1.318Q23.5 13.087 23.5 14.95q0 1.87-1.315 3.19q-1.316 1.322-3.185 1.322q-1.723 0-2.98-1.135T14.523 15.5H9.477q-.196 1.725-1.498 2.863T5 19.5m.5-4h2.954v-1H5.5zm6.854-1h2.17q.086-.69.51-1.623q.424-.933 1.235-1.415h-5.05zm5.954.196l.938-.354l-1.038-2.765l-.889.354z"/></svg>