<svg xmlns="http://www.w3.org/2000/svg" width="1em" height="1em" viewBox="0 0 24 24"><path fill="currentColor" d="M4.615 20q-.69 0-1.152-.462Q3 19.075 3 18.385V7.615q0-.69.463-1.152Q3.925 6 4.615 6h2.958l1.365-1.485q.218-.242.528-.378q.31-.137.659-.137h3.75q.348 0 .659.137q.31.136.528.378L16.427 6h2.958q.69 0 1.152.463q.463.462.463 1.152v10.77q0 .69-.462 1.152q-.463.463-1.153.463H12.5v-3.408q1.796-.204 3.053-1.46q1.257-1.255 1.416-3.026q.031-.196-.112-.344q-.144-.147-.357-.147q-.202 0-.351.126q-.149.126-.186.303q-.16 1.51-1.288 2.54q-1.129 1.031-2.675 1.031t-2.672-1.027q-1.126-1.028-1.286-2.532q-.036-.183-.185-.312q-.15-.129-.357-.129q-.213 0-.357.148q-.143.147-.112.343q.16 1.77 1.416 3.017q1.257 1.246 3.053 1.47V20zM12 12.846q.517 0 .874-.357q.357-.356.357-.874v-4q0-.517-.357-.874q-.357-.356-.874-.356t-.874.356q-.357.357-.357.874v4q0 .518.357.874q.357.357.874.357"/></svg>