<svg xmlns="http://www.w3.org/2000/svg" width="1em" height="1em" viewBox="0 0 24 24"><path fill="currentColor" d="M9.5 20H3V6h4.573l1.85-2h5.154l1.85 2H21v14h-6.5v-1H20V7h-4.012l-1.844-2H9.856L8.012 7H4v12h5.5zm2 0h1v-3.408q1.938-.234 3.22-1.637Q17 13.552 17 11.615h-1q0 1.593-1.156 2.797q-1.156 1.203-2.844 1.203t-2.844-1.203Q8 13.208 8 11.615H7q0 1.937 1.28 3.34q1.282 1.403 3.22 1.637zm.5-7.154q.517 0 .874-.357q.357-.356.357-.874v-4q0-.517-.357-.874q-.357-.356-.874-.356t-.874.356q-.357.357-.357.874v4q0 .518.357.874q.357.357.874.357M4 19h16z"/></svg>