<svg xmlns="http://www.w3.org/2000/svg" width="1em" height="1em" viewBox="0 0 24 24"><path fill="currentColor" d="M12 12.385q-1.237 0-2.119-.882T9 9.385v-2.75q0-.473.325-.804q.326-.331.79-.331q.298 0 .54.137q.241.136.403.365q.161-.229.403-.365Q11.7 5.5 12 5.5q.298 0 .54.137q.24.136.402.365q.162-.229.403-.365q.242-.137.53-.137q.48 0 .803.33q.322.332.322.805v2.75q0 1.237-.881 2.118T12 12.385m0-1q.825 0 1.413-.588T14 9.385v-2.5h-4v2.5q0 .825.588 1.412t1.412.588m-7 8.23V17.97q0-.619.36-1.158q.361-.54.97-.838q1.416-.679 2.833-1.018q1.418-.34 2.837-.34q1.42 0 2.837.34q1.417.34 2.832 1.018q.61.298.97.838q.361.539.361 1.158v1.646zm1-1h12v-.646q0-.332-.214-.625q-.215-.292-.594-.494q-1.234-.598-2.546-.916q-1.31-.319-2.646-.319q-1.335 0-2.646.319q-1.312.318-2.546.916q-.38.202-.594.494Q6 17.637 6 17.97zm6-11.73"/></svg>