<svg xmlns="http://www.w3.org/2000/svg" width="1em" height="1em" viewBox="0 0 24 24"><path fill="currentColor" d="M12 3.846q.91 0 1.532.64q.622.639.622 1.549v.396q1.66.652 2.753 2.115Q18 10.01 18 12v3.573L9.846 7.381V6q0-.904.625-1.529T12 3.846m0 1q-.483 0-.818.336q-.336.335-.336.818v.138q.294-.069.577-.103Q11.706 6 12 6t.577.035q.283.034.577.103V6q0-.483-.336-.818q-.335-.336-.818-.336m8.492 17.446l-3.913-3.907H18V21H6v-9q0-.9.241-1.718q.242-.819.724-1.505L2.862 4.662l.707-.708L21.2 21.584zM10.688 12.5H8.5v1h3.188z"/></svg>