<svg xmlns="http://www.w3.org/2000/svg" width="1em" height="1em" viewBox="0 0 24 24"><path fill="currentColor" d="M12 9.654q-1.237 0-2.119-.881T9 6.653q0-1.237.881-2.118q.881-.881 2.119-.881t2.119.881Q15 5.416 15 6.654t-.881 2.119q-.881.88-2.119.88m0-1q.825 0 1.413-.587T14 6.654q0-.825-.587-1.413T12 4.654q-.825 0-1.412.587T10 6.654q0 .825.588 1.412T12 8.654M5 19.962V14.86q0-.62.353-1.16q.354-.54.978-.842q1.256-.612 2.724-.985Q10.523 11.5 12 11.5q1.477 0 2.945.373q1.468.373 2.724.985q.624.303.978.843q.353.54.353 1.16v3.485q0 .69-.462 1.153q-.463.463-1.153.463H10.25q-.88 0-1.47-.589q-.588-.588-.588-1.47t.589-1.468q.588-.589 1.469-.589h3.075l1.492-2.973q-.673-.196-1.448-.285Q12.594 12.5 12 12.5q-1.435 0-2.748.341q-1.314.342-2.439.894q-.384.182-.599.487Q6 14.527 6 14.86v5.102zm5.25-1h1.546l1.046-2.116H10.25q-.435 0-.746.312q-.312.311-.312.746q0 .434.312.746q.311.312.746.312m2.65 0h4.485q.269 0 .442-.174t.173-.442V14.86q0-.333-.234-.638q-.233-.305-.574-.487q-.319-.17-.679-.313q-.36-.143-.72-.274zm-.9-3.004"/></svg>