<svg xmlns="http://www.w3.org/2000/svg" width="1em" height="1em" viewBox="0 0 24 24"><path fill="currentColor" d="M9.423 19H5.615q-.69 0-1.152-.462Q4 18.075 4 17.385V4.615q0-.69.463-1.152Q4.925 3 5.615 3h12.77q.69 0 1.152.463q.463.462.463 1.152v12.77q0 .69-.462 1.152q-.463.463-1.153.463h-3.808l-2.012 2.012q-.13.13-.267.183q-.136.053-.298.053t-.298-.053q-.137-.053-.267-.183zM5 17.235q1.35-1.325 3.138-2.088T12 14.385q2.075 0 3.863.762T19 17.235V4.615q0-.23-.192-.423Q18.615 4 18.385 4H5.615q-.23 0-.423.192Q5 4.385 5 4.615zm7-5.158q1.258 0 2.129-.871T15 9.076q0-1.257-.871-2.128T12 6.077q-1.258 0-2.129.871T9 9.077q0 1.258.871 2.129t2.129.87M5.885 18h12.23v-.173q-1.319-1.24-2.873-1.841q-1.554-.601-3.242-.601q-1.65 0-3.213.591q-1.564.591-2.902 1.812zM12 11.077q-.817 0-1.409-.591Q10 9.894 10 9.076q0-.816.591-1.408q.592-.591 1.409-.591q.817 0 1.409.591Q14 8.26 14 9.077q0 .817-.591 1.409q-.592.59-1.409.59m0-.459"/></svg>