<svg xmlns="http://www.w3.org/2000/svg" width="1em" height="1em" viewBox="0 0 24 24"><path fill="currentColor" d="M12 19.677q2.82-2.454 4.458-4.991q1.638-2.538 1.638-4.39q0-2.744-1.737-4.53T12 3.981q-2.621 0-4.359 1.785t-1.737 4.53q0 1.852 1.638 4.39q1.639 2.537 4.458 4.99m0 .88q-.235 0-.47-.077q-.234-.077-.432-.25q-1.067-.98-2.163-2.185q-1.097-1.204-1.992-2.493q-.895-1.29-1.467-2.633q-.572-1.343-.572-2.622q0-3.173 2.066-5.234Q9.037 3 12 3t5.03 2.062q2.066 2.061 2.066 5.234q0 1.279-.572 2.613q-.572 1.333-1.458 2.632q-.885 1.3-1.981 2.494q-1.097 1.194-2.164 2.175q-.198.173-.442.26q-.244.086-.479.086m0-6.056q1.13 0 2.073-.514q.942-.515 1.554-1.37q-.779-.553-1.696-.834Q13.013 11.5 12 11.5t-1.93.282q-.918.281-1.697.833q.612.856 1.554 1.37q.942.515 2.073.515m0-5q.633 0 1.066-.434Q13.5 8.633 13.5 8t-.434-1.066Q12.633 6.5 12 6.5t-1.066.434Q10.5 7.367 10.5 8t.434 1.066Q11.367 9.5 12 9.5"/></svg>