<svg xmlns="http://www.w3.org/2000/svg" width="1em" height="1em" viewBox="0 0 24 24"><path fill="currentColor" d="M16.615 9.5h4q.213 0 .357.144q.143.144.143.357t-.143.356q-.144.143-.357.143h-4q-.212 0-.356-.144T16.115 10t.144-.356q.144-.143.356-.143M9 11.385q-1.237 0-2.119-.882T6 8.385q0-1.238.881-2.12q.881-.88 2.119-.88t2.119.88q.881.882.881 2.12q0 1.237-.881 2.118T9 11.385m-7 6.192v-.608q0-.619.36-1.158q.361-.54.97-.838q1.416-.679 2.833-1.018q1.418-.34 2.837-.34q1.42 0 2.837.34q1.417.34 2.832 1.018q.61.298.97.838q.361.539.361 1.158v.608q0 .44-.299.74q-.3.298-.74.298H3.039q-.44 0-.739-.299t-.3-.74m1 .04h12v-.647q0-.332-.214-.625q-.215-.292-.594-.494q-1.234-.598-2.546-.916q-1.31-.319-2.646-.319q-1.335 0-2.646.319q-1.312.318-2.546.916q-.38.202-.594.494Q3 16.637 3 16.97zm6-7.231q.825 0 1.413-.588T11 8.385q0-.825-.587-1.413T9 6.385q-.825 0-1.412.587T7 8.385q0 .825.588 1.412T9 10.385m0 7.23"/></svg>