<svg xmlns="http://www.w3.org/2000/svg" width="1em" height="1em" viewBox="0 0 24 24"><path fill="currentColor" d="m19.165 21.523l-3.415-3.415v.507h-14V16.97q0-.619.36-1.158q.361-.54.97-.838q1.416-.679 2.833-1.018q1.418-.34 2.837-.34q.729 0 1.455.1q.726.098 1.468.316l-2.665-2.666q-.05.02-.12.02H8.75q-1.237 0-2.119-.882T5.75 8.385v-.139q0-.07.02-.12l-3.544-3.54l.713-.714L19.88 20.81zM18.25 13.5v-3h-3v-1h3v-3h1v3h3v1h-3v3zm-6.746-3.915l-.792-.793q.019-.102.028-.204q.01-.101.01-.203q0-.825-.588-1.413T8.75 6.385q-.102 0-.204.01q-.102.009-.204.028l-.792-.792q.279-.123.583-.185q.304-.061.617-.061q1.238 0 2.119.88t.881 2.12q0 .312-.062.617q-.061.304-.184.583m-8.754 8.03h12l-1.612-2.119q-1.046-.44-2.155-.66q-1.11-.22-2.233-.22q-1.335 0-2.646.318q-1.312.318-2.546.916q-.38.202-.594.494q-.214.293-.214.625zm6 0"/></svg>