<svg xmlns="http://www.w3.org/2000/svg" width="1em" height="1em" viewBox="0 0 24 24"><path fill="currentColor" d="M12 11.385q-1.237 0-2.119-.882T9 8.385q0-1.238.881-2.12q.881-.88 2.119-.88t2.119.88q.881.882.881 2.12q0 1.237-.881 2.118T12 11.385m3.423 7.23V14.12q.585.18 1.147.39q.561.211 1.1.464q.595.298.963.832q.367.535.367 1.172v.6q0 .44-.299.74q-.3.298-.74.298zm-5.846-2.5v-2.234q.606-.133 1.211-.2q.606-.066 1.212-.066t1.212.067q.605.066 1.211.199v2.234zM5 17.577v-.6q0-.637.367-1.172q.368-.534.964-.832q.538-.253 1.1-.463q.561-.211 1.146-.39v4.495H6.038q-.44 0-.739-.299T5 17.576"/></svg>