<svg xmlns="http://www.w3.org/2000/svg" width="1em" height="1em" viewBox="0 0 24 24"><path fill="currentColor" d="M5.204 11.412L3.396 9.604q-.242-.242-.233-.566q.01-.323.252-.565l1.789-1.788q.242-.243.565-.243q.323 0 .566.243l1.788 1.788q.242.242.242.565q0 .324-.242.566l-1.788 1.788q-.243.243-.566.252q-.323.01-.565-.232M10.615 21q-.343 0-.575-.232q-.232-.232-.232-.576v-3.788q-1.324-.103-2.62-.282q-1.297-.18-2.594-.462q-.232-.062-.39-.235t-.089-.396q.068-.223.273-.327q.204-.104.437-.042q1.767.405 3.566.575q1.798.169 3.609.169q1.81 0 3.61-.17q1.798-.169 3.565-.574q.233-.062.438.04q.205.102.272.32q.067.232-.09.405q-.157.173-.39.235q-1.296.282-2.593.462q-1.296.18-2.62.282v3.788q0 .344-.232.576q-.232.232-.575.232zM12 7.385q-.962 0-1.635-.673q-.673-.674-.673-1.635q0-.962.673-1.635T12 2.77t1.635.673q.673.673.673 1.635q0 .961-.673 1.635q-.673.673-1.635.673m0 6.403q-.698 0-1.195-.497q-.497-.497-.497-1.195t.497-1.195q.497-.497 1.195-.497t1.195.497q.497.497.497 1.195t-.497 1.195q-.497.497-1.195.497m4.756-2.346l-.862-1.5q-.106-.18-.106-.4q0-.22.106-.407l.862-1.5q.106-.193.289-.298q.183-.106.407-.106h1.654q.224 0 .407.106q.183.105.289.298l.861 1.5q.106.18.106.4q0 .22-.106.407l-.861 1.5q-.106.193-.29.298q-.182.106-.406.106h-1.654q-.224 0-.407-.106q-.183-.105-.29-.298"/></svg>