<svg xmlns="http://www.w3.org/2000/svg" width="1em" height="1em" viewBox="0 0 24 24"><path fill="currentColor" d="M12 9.654q-1.237 0-2.119-.881T9 6.653q0-1.237.881-2.118q.881-.881 2.119-.881t2.119.881Q15 5.416 15 6.654t-.881 2.119q-.881.88-2.119.88m-1.75 9.309q-.44 0-.749-.31q-.309-.308-.309-.748t.309-.75q.309-.308.749-.308h1.927q.217 0 .348.19q.13.189.025.4l-.542 1.085q-.105.21-.305.326q-.2.115-.422.115zm-3.92-6.104q1.328-.635 2.757-.996Q10.516 11.5 12 11.5q.671 0 1.342.084t1.343.25q.214.041.312.235t-.009.406l-1.451 2.93q-.105.211-.305.326q-.2.115-.422.115h-2.56q-.86 0-1.46.597q-.598.596-.598 1.453q0 .485.18.874q.178.39.5.693q.16.131.117.315t-.218.184H5.808q-.344 0-.576-.233Q5 19.497 5 19.154v-4.299q0-.633.364-1.163q.365-.53.967-.834M19 18.346q0 .666-.475 1.141q-.474.475-1.14.475h-.339q-.343 0-.575-.233q-.233-.232-.233-.575v-6.271q0-.208.175-.342q.174-.133.39-.047q.22.075.434.172q.213.097.432.192q.596.304.964.835q.367.532.367 1.167z"/></svg>