<svg xmlns="http://www.w3.org/2000/svg" width="1em" height="1em" viewBox="0 0 24 24"><path fill="currentColor" d="M9.808 19.192v-3.775q-1.333-.094-2.635-.269t-2.585-.47q-.232-.06-.386-.234t-.087-.396q.068-.223.273-.327q.204-.104.437-.042q1.767.406 3.566.575q1.798.17 3.609.17q1.81 0 3.61-.17q1.798-.17 3.565-.575q.238-.062.44.04q.202.103.27.32q.067.232-.09.405q-.157.173-.39.235q-1.301.294-2.596.47q-1.295.174-2.617.274v3.77q0 .343-.232.575q-.232.232-.575.232h-2.77q-.343 0-.575-.232q-.232-.232-.232-.576m2.195-6.384q-.718 0-1.207-.485q-.488-.485-.488-1.202q0-.696.485-1.197q.485-.5 1.202-.5q.695 0 1.196.495q.501.497.501 1.194q0 .718-.496 1.206q-.496.489-1.193.489M5 10q-.42 0-.71-.29T4 8.995q0-.408.29-.702Q4.58 8 5.005 8q.408 0 .702.292Q6 8.583 6 9q0 .42-.292.71Q5.417 10 5 10m14 0q-.42 0-.71-.29T18 8.995q0-.408.29-.702q.29-.293.715-.293q.408 0 .702.292Q20 8.583 20 9q0 .42-.292.71q-.291.29-.708.29M7.442 6.346q-.419 0-.71-.29q-.29-.29-.29-.715q0-.408.29-.702q.291-.293.716-.293q.408 0 .701.292q.293.291.293.708q0 .42-.291.71q-.292.29-.709.29m9.116 0q-.42 0-.71-.29t-.29-.715q0-.408.29-.702q.29-.293.715-.293q.408 0 .701.292q.294.291.294.708q0 .42-.292.71t-.708.29M12 5q-.42 0-.71-.29T11 3.995q0-.408.29-.702q.29-.293.715-.293q.408 0 .702.292Q13 3.583 13 4q0 .42-.292.71Q12.417 5 12 5"/></svg>