<svg xmlns="http://www.w3.org/2000/svg" width="1em" height="1em" viewBox="0 0 24 24"><path fill="currentColor" d="m19.5 10.233l-1.746 1.72q-.14.141-.342.154t-.366-.153q-.16-.16-.16-.354t.16-.354l1.74-1.746l-1.74-1.721q-.16-.14-.16-.341t.16-.367q.166-.165.357-.165t.357.165l1.74 1.74l1.721-1.746q.14-.165.341-.165t.367.165q.165.166.165.357t-.165.357L20.208 9.5l1.727 1.746q.146.146.153.344q.006.198-.16.364q-.165.16-.353.162q-.188.003-.354-.162zM9 11.385q-1.246 0-2.123-.877Q6 9.63 6 8.385q0-1.247.877-2.123q.877-.877 2.123-.877q1.246 0 2.123.877q.877.876.877 2.123q0 1.246-.877 2.123q-.877.877-2.123.877m-7 6.192v-.608q0-.619.36-1.158q.361-.54.97-.838q1.416-.679 2.833-1.018q1.418-.34 2.837-.34q1.42 0 2.837.34q1.417.34 2.832 1.018q.61.298.97.838q.361.539.361 1.158v.608q0 .44-.299.74q-.3.298-.74.298H3.039q-.44 0-.739-.299t-.3-.74"/></svg>