<svg xmlns="http://www.w3.org/2000/svg" width="1em" height="1em" viewBox="0 0 24 24"><path fill="currentColor" d="M12 3.846q.915 0 1.535.64q.619.639.619 1.549v.396q1.66.652 2.753 2.115Q18 10.01 18 12v2.615q0 .25-.159.375t-.341.125q-.183 0-.341-.127T17 14.61V12q0-2.075-1.463-3.537T12 7h-1.346q-.402 0-.701-.299q-.3-.3-.3-.701q.155-.904.799-1.529q.644-.625 1.548-.625m0 1q-.483 0-.818.336q-.336.335-.336.818v.138q.294-.069.577-.103Q11.706 6 12 6t.577.035q.283.034.577.103V6q0-.483-.336-.818q-.335-.336-.818-.336m8.138 17.092l-8.45-8.438H9q-.213 0-.357-.143Q8.5 13.213 8.5 13t.143-.357Q8.787 12.5 9 12.5h1.688L7.696 9.508q-.361.54-.529 1.199Q7 11.365 7 12v7.385q0 .23.192.423q.193.192.423.192h8.77q.23 0 .423-.192q.192-.193.192-.423v-2l1 1v1q0 .69-.462 1.152q-.463.463-1.153.463h-8.77q-.69 0-1.152-.462Q6 20.075 6 19.385V12q0-.9.241-1.718q.242-.819.724-1.505l-3.75-3.762q-.14-.14-.152-.341q-.013-.2.152-.366q.16-.16.354-.16t.354.16L20.846 21.23q.14.14.153.341q.013.201-.153.366q-.16.16-.354.16t-.354-.16M12 14.754"/></svg>