<svg xmlns="http://www.w3.org/2000/svg" width="1em" height="1em" viewBox="0 0 24 24"><path fill="currentColor" d="M11 11.385q-1.237 0-2.119-.882T8 8.385q0-1.238.881-2.12q.881-.88 2.119-.88t2.119.88q.881.882.881 2.12q0 1.237-.881 2.118T11 11.385m10.215 10.538l-2.661-2.661q-.487.338-1.01.5q-.523.161-1.04.161q-1.437 0-2.432-1q-.995-1-.995-2.428t1-2.423q1-.995 2.428-.995t2.423.998q.995.999.995 2.425q0 .521-.161 1.044q-.162.523-.5 1.01l2.661 2.661zm-4.715-3q1.03 0 1.727-.696q.696-.696.696-1.727q0-1.03-.696-1.727q-.696-.696-1.727-.696q-1.03 0-1.727.696q-.696.696-.696 1.727q0 1.03.696 1.727q.696.696 1.727.696m-4.629-5.27q-.646 1.185-.761 2.462q-.116 1.277.415 2.5H4v-1.64q0-.638.358-1.162q.357-.523.973-.84q1.082-.535 2.807-1.004q1.725-.469 3.733-.315"/></svg>