<svg xmlns="http://www.w3.org/2000/svg" width="1em" height="1em" viewBox="0 0 24 24"><path fill="currentColor" d="M5 18.615V16.97q0-.619.36-1.158q.361-.54.97-.838q1.416-.679 2.833-1.018q1.418-.34 2.837-.34q.675 0 1.354.084t1.367.238l-.829.834q-.485-.067-.946-.111q-.46-.045-.946-.045q-1.335 0-2.646.319q-1.312.318-2.546.916q-.38.202-.594.494Q6 16.637 6 16.97v.646h5.846v1zM14.23 20v-2.21l5.333-5.307q.149-.148.306-.2t.315-.052q.172 0 .338.064q.165.065.301.193l.925.945q.123.148.188.307q.064.16.064.32t-.062.322q-.061.162-.19.31L16.44 20zm6.885-5.94l-.925-.945zm-6 5.055h.95l3.468-3.473l-.47-.475l-.455-.488l-3.493 3.486zm3.948-3.948l-.455-.488l.925.963zM12 11.385q-1.237 0-2.119-.882T9 8.385q0-1.238.881-2.12q.881-.88 2.119-.88t2.119.88q.881.882.881 2.12q0 1.237-.881 2.118T12 11.385m0-1q.825 0 1.413-.588T14 8.385q0-.825-.587-1.413T12 6.385q-.825 0-1.412.587T10 8.385q0 .825.588 1.412t1.412.588m0-2"/></svg>