<svg xmlns="http://www.w3.org/2000/svg" width="1em" height="1em" viewBox="0 0 24 24"><path fill="currentColor" d="M10 13.385q-.846 0-1.423-.597Q8 12.192 8 11.385q0-.685.31-1.009q.31-.324.39-.859q-.023-.288-.112-.563q-.088-.275-.088-.57q0-.642.349-1.148q.35-.507 1.097-.819q.385-.382.829-.707q.444-.325 1.225-.325q.82 0 1.244.344q.425.344.81.688q.748.312 1.097.819q.349.506.349 1.149q0 .294-.088.569q-.089.275-.112.563q.08.535.39.859q.31.324.31 1.009q0 .807-.577 1.403q-.577.597-1.423.597zm-5 6.192v-.608q0-.619.36-1.158q.361-.54.97-.838q1.416-.679 2.833-1.018q1.418-.34 2.837-.34q1.42 0 2.837.34q1.417.34 2.832 1.018q.61.298.97.838q.361.539.361 1.158v.608q0 .44-.299.74q-.3.298-.74.298H6.039q-.44 0-.739-.299t-.3-.74"/></svg>