<svg xmlns="http://www.w3.org/2000/svg" width="1em" height="1em" viewBox="0 0 24 24"><path fill="currentColor" d="M10.846 6.138q.294-.069.577-.103Q11.706 6 12 6t.577.035q.283.034.577.103V6q0-.49-.332-.822q-.332-.332-.822-.332t-.822.332q-.332.332-.332.822zM7.616 21q-.691 0-1.153-.462Q6 20.075 6 19.385V12q0-1.933 1.084-3.425q1.083-1.492 2.762-2.144V6q0-.897.618-1.526q.618-.628 1.532-.628t1.536.628q.622.629.622 1.526v.43q1.556.61 2.586 1.908q1.031 1.297 1.21 2.981q-.227-.011-.504-.011t-.496.017q-.235-1.821-1.638-3.073Q13.908 7 12 7Q9.925 7 8.463 8.463T7 12v7.385q0 .23.192.423q.193.192.423.192h3.743q.092.27.222.531q.13.262.266.469zM9 13.5h3.5q.215-.275.514-.537q.3-.261.598-.463H9q-.213 0-.356.144q-.144.144-.144.357t.144.356q.143.143.356.143m8.308.192q1.67 0 2.835 1.165t1.165 2.835q0 1.671-1.165 2.836q-1.164 1.164-2.835 1.164t-2.836-1.164q-1.164-1.165-1.164-2.836q0-1.67 1.164-2.835t2.836-1.165m0 6.846q.226 0 .38-.154t.154-.38t-.154-.38q-.154-.155-.38-.155t-.38.154q-.155.155-.155.38t.154.381q.155.154.38.154m-.002-1.684q.164 0 .27-.104q.106-.103.106-.27q0-.218.15-.39q.15-.17.35-.37q.35-.3.55-.614q.2-.314.2-.782q0-.68-.446-1.117q-.447-.438-1.173-.438q-.46 0-.86.238q-.4.237-.65.656q-.08.131-.018.26q.063.13.21.19q.125.06.269.014q.143-.046.224-.171q.144-.194.353-.323q.21-.13.462-.13q.42 0 .65.206q.233.205.233.615q0 .301-.17.498q-.169.197-.369.397q-.15.15-.293.32q-.143.169-.268.336q-.075.125-.113.285q-.037.16-.037.324t.102.267q.103.103.268.103"/></svg>