<svg xmlns="http://www.w3.org/2000/svg" width="1em" height="1em" viewBox="0 0 24 24"><path fill="currentColor" d="M12 17.385q-1.554 0-3.021.514T6.23 19.481q.038.223.211.365t.385.154h10.327q.211-.012.384-.154t.212-.365q-1.242-1.068-2.71-1.582q-1.467-.514-3.04-.514m0-1q1.725 0 3.225.525T18 18.385V4.615q0-.23-.192-.423Q17.615 4 17.385 4H6.615q-.23 0-.423.192Q6 4.385 6 4.615v13.77q1.275-.95 2.775-1.475T12 16.385m0-3.308q-.817 0-1.409-.591q-.591-.592-.591-1.41q0-.816.591-1.408q.592-.591 1.409-.591q.817 0 1.409.591q.591.592.591 1.409q0 .817-.591 1.409q-.592.59-1.409.59M6.615 21q-.69 0-1.152-.462Q5 20.075 5 19.385V4.615q0-.69.463-1.152Q5.925 3 6.615 3h10.77q.69 0 1.152.463q.463.462.463 1.152v14.77q0 .69-.462 1.152q-.463.463-1.153.463zM12 14.077q1.258 0 2.129-.871t.871-2.13q0-1.257-.871-2.128T12 8.077q-1.258 0-2.129.871T9 11.077q0 1.258.871 2.129t2.129.87m0-3"/></svg>