<svg xmlns="http://www.w3.org/2000/svg" width="1em" height="1em" viewBox="0 0 24 24"><path fill="currentColor" d="M12.135 20.154q-2.045 0-3.52-1.37q-1.477-1.37-1.598-3.384q-1.588-.35-2.61-1.596q-1.022-1.246-1.022-2.873q0-1.825 1.241-3.128Q5.867 6.5 7.673 6.5h2.712q.411 0 .705-.294q.295-.294.295-.706t-.295-.706q-.294-.294-.705-.294h-2v-1h2q.84 0 1.42.58t.58 1.419q0 .84-.58 1.42q-.58.581-1.42.581H7.673q-1.385 0-2.336 1.004q-.952 1.004-.952 2.421q0 1.212.738 2.149t1.92 1.276q.245-1.933 1.643-3.209q1.397-1.276 3.29-1.276q.436 0 .923.086q.488.085.913.228q.18-.075.368-.144q.187-.07.387-.107t.412-.06q.213-.022.425-.022q1.519 0 2.622 1.016q1.103 1.015 1.103 2.544q0 .206-.003.438q-.003.233-.053.525l1.027.933q.457.401.676.933q.218.532.218 1.114q0 1.164-.815 1.985q-.815.82-1.962.82zm0-1h6.082q.754 0 1.269-.524q.514-.524.514-1.274q0-.406-.144-.739q-.144-.332-.427-.59l-1.49-1.354q.103-.256.15-.53q.046-.276.046-.572q0-1.146-.792-1.935q-.792-.79-1.94-.79q-1.162 0-1.965.792t-.803 1.939q0 .442.127.866q.126.424.405.774l-.707.708q-.431-.479-.628-1.096q-.197-.617-.197-1.27q0-.746.29-1.413t.813-1.179q-.211-.038-.403-.067q-.193-.029-.423-.029q-1.616 0-2.764 1.214Q8 13.298 8 15.012q0 .87.32 1.63q.319.76.881 1.314t1.318.876q.756.322 1.616.322M17 17.769q-.31 0-.54-.23q-.23-.23-.23-.539q0-.31.23-.54q.23-.23.54-.23q.31 0 .54.23q.23.23.23.54q0 .31-.23.54q-.23.23-.54.23m-3-3.27"/></svg>