<svg xmlns="http://www.w3.org/2000/svg" width="1em" height="1em" viewBox="0 0 24 24"><path fill="currentColor" d="M12.135 20.154q-2.039 0-3.518-1.37q-1.479-1.37-1.6-3.384q-1.588-.35-2.61-1.596q-1.022-1.246-1.022-2.873q0-1.825 1.241-3.128Q5.867 6.5 7.673 6.5h2.712q.411 0 .705-.294q.295-.294.295-.706t-.295-.706q-.294-.294-.705-.294h-1.5q-.214 0-.357-.143q-.143-.144-.143-.357t.143-.357q.143-.143.357-.143h1.5q.838 0 1.419.58q.58.582.58 1.42t-.58 1.42q-.58.58-1.42.58h-2.71q-1.386 0-2.337 1.004q-.952 1.004-.952 2.421q0 1.212.738 2.149t1.92 1.276q.245-1.913 1.633-3.199t3.293-1.286q.481 0 .944.073q.462.072.899.24q-.968.507-1.573 1.4q-.604.895-.604 1.982q0 .655.194 1.28t.63 1.085l.368-.31q-.371-.436-.532-.961q-.16-.525-.16-1.077q0-1.36.957-2.295q.958-.936 2.318-.936q1.353 0 2.29.936q.935.935.935 2.283q0 .466-.126.923q-.126.456-.397.843l2.226 2.096q.32.275.526.622q.207.347.207.766q0 .595-.507.967q-.506.372-1.156.372zM17 18q.31 0 .54-.23q.23-.23.23-.54q0-.309-.23-.539q-.23-.23-.54-.23q-.31 0-.54.23q-.23.23-.23.54q0 .31.23.54q.23.229.54.229"/></svg>