<svg xmlns="http://www.w3.org/2000/svg" width="1em" height="1em" viewBox="0 0 24 24"><path fill="currentColor" d="m17.696 14.465l-.72-.719q.397-.333.646-.782q.25-.449.25-.964t-.25-.964q-.249-.45-.645-.782l.72-.72q.536.48.855 1.111q.32.632.32 1.355t-.32 1.355q-.32.632-.856 1.11m2.142 2.143l-.707-.708q.775-.775 1.19-1.785q.416-1.01.416-2.115q0-1.106-.416-2.115q-.415-1.01-1.19-1.785l.707-.708q.922.916 1.41 2.108q.489 1.192.489 2.5t-.489 2.5q-.488 1.192-1.41 2.108M7.615 22q-.67 0-1.143-.472Q6 21.056 6 20.385V3.615q0-.67.472-1.143Q6.944 2 7.615 2h8.77q.67 0 1.143.472q.472.472.472 1.143v3.308h-1V5.5H7v13h10v-1.423h1v3.308q0 .67-.472 1.143q-.472.472-1.143.472zM7 19.5v.885q0 .23.192.423q.193.192.423.192h8.77q.23 0 .423-.192q.192-.193.192-.423V19.5zm0-15h10v-.885q0-.23-.192-.423Q16.615 3 16.385 3h-8.77q-.23 0-.423.192Q7 3.385 7 3.615zm0 0V3zm0 15V21z"/></svg>