<svg xmlns="http://www.w3.org/2000/svg" width="1em" height="1em" viewBox="0 0 24 24"><path fill="currentColor" d="M4.8 20H4v-4.413l3.75-.756l2.612 2.707q1.288-.71 2.295-1.439q1.006-.73 1.808-1.57q.795-.789 1.527-1.77q.733-.98 1.418-2.167l-2.697-2.51L15.562 4H20v.8q0 2.67-1.254 5.402q-1.254 2.733-3.523 5.021q-2.288 2.289-5.005 3.533Q7.502 20 4.8 20M17.879 9.654q.529-1.189.808-2.35q.278-1.16.307-2.304h-2.629l-.578 2.735zm-8.45 8.334l-2.04-2.078L5 16.385v2.603q1.173-.017 2.34-.276q1.166-.26 2.089-.724m0 0"/></svg>