<svg xmlns="http://www.w3.org/2000/svg" width="1em" height="1em" viewBox="0 0 24 24"><path fill="currentColor" d="M20.846 22.762L1.008 2.923l.707-.708l19.839 19.839zM6 7.213l1 1V18.5h9.927L18 19.573V22H6zM7.806 5.5L6.035 3.704V2H18v4.923h-1V5.5zm9.89 8.965l-.72-.719q.397-.333.646-.782q.25-.449.25-.964t-.25-.964q-.249-.45-.645-.782l.72-.72q.536.48.855 1.111q.32.632.32 1.355t-.32 1.355q-.32.632-.856 1.11m2.142 2.143l-.707-.708q.775-.775 1.19-1.785q.416-1.01.416-2.115q0-1.106-.416-2.115q-.415-1.01-1.19-1.785l.707-.708q.922.916 1.41 2.108q.489 1.192.489 2.5t-.489 2.5q-.488 1.192-1.41 2.108"/></svg>