<svg xmlns="http://www.w3.org/2000/svg" width="1em" height="1em" viewBox="0 0 24 24"><path fill="currentColor" d="M19.077 11.45q-.173-2.829-2.153-4.809t-4.809-2.153v-1q1.625.077 3.042.723q1.416.645 2.484 1.713q1.069 1.068 1.714 2.485q.645 1.416.722 3.041zm-4 0q-.173-1.154-.99-1.98q-.818-.828-1.972-.982v-1q1.575.154 2.682 1.27q1.107 1.117 1.28 2.692zM18.93 20q-2.53 0-5.185-1.266q-2.656-1.267-4.944-3.555q-2.27-2.289-3.536-4.935Q4 7.598 4 5.07q0-.45.3-.76T5.05 4h2.473q.408 0 .712.257t.411.658L9.142 7.3q.07.42-.025.733q-.094.313-.332.513L6.59 10.592q.616 1.118 1.361 2.076q.745.959 1.59 1.817q.87.87 1.874 1.62q1.004.749 2.204 1.414l2.139-2.177q.244-.263.549-.347q.305-.083.674-.033l2.104.43q.407.1.661.41q.254.311.254.713v2.435q0 .45-.31.75t-.76.3"/></svg>