<svg xmlns="http://www.w3.org/2000/svg" width="1em" height="1em" viewBox="0 0 24 24"><path fill="currentColor" d="m19.37 20.885l-4.966-4.966q-2.244 1.973-4.626 3.027T5.069 20q-.484 0-.777-.3T4 18.95v-2.435q0-.427.254-.728q.254-.3.661-.395l2.104-.43q.352-.07.659.026q.307.097.564.354l2.139 2.177q.796-.429 1.715-1.077q.92-.648 1.589-1.242L3.215 4.73q-.14-.14-.15-.343q-.01-.204.15-.364t.354-.16q.194 0 .354.16l16.154 16.154q.14.14.15.344q.01.204-.15.364t-.354.16q-.194 0-.354-.16m-9.946-2.908l-1.88-1.92q-.097-.095-.183-.124q-.087-.03-.202.01l-1.85.384q-.154.038-.231.135q-.077.096-.077.25v2.007q0 .116.077.193q.077.076.192.076q.852-.017 1.996-.263q1.145-.246 2.158-.748m7.05-4.235l-.708-.707q.414-.502.869-1.197q.454-.694.776-1.246l-2.195-2.046q-.257-.238-.342-.572q-.085-.334-.015-.674l.496-2.385q.094-.407.395-.661Q16.05 4 16.477 4h2.473q.45 0 .75.31t.3.76q0 2.23-.973 4.506q-.973 2.276-2.554 4.166m1.4-4.088q.502-1.129.794-2.244q.293-1.116.321-2.14q0-.116-.076-.193Q18.835 5 18.719 5h-2.046q-.154 0-.25.077t-.135.23l-.45 2.12q-.038.115-.01.24t.126.221zm-8.45 8.323"/></svg>