<svg xmlns="http://www.w3.org/2000/svg" width="1em" height="1em" viewBox="0 0 24 24"><path fill="currentColor" d="M19.077 11.462q-.173-2.83-2.153-4.81q-1.98-1.979-4.809-2.152v-1q1.625.077 3.042.722q1.416.645 2.484 1.714q1.069 1.068 1.714 2.484q.645 1.417.722 3.042zm-4 0q-.173-1.154-.99-1.981q-.818-.827-1.972-.981v-1q1.575.154 2.682 1.27q1.107 1.117 1.28 2.692zM19.2 20q-2.702 0-5.418-1.244t-5.005-3.533q-2.27-2.288-3.523-5.021Q4 7.469 4 4.8V4h4.438l.849 4.083l-2.697 2.51q.685 1.186 1.418 2.167q.732.98 1.527 1.769q.802.84 1.808 1.57q1.007.73 2.295 1.44l2.612-2.708l3.75.756V20zM6.121 9.654l2.092-1.92L7.635 5h-2.63q.03 1.144.308 2.305q.28 1.16.808 2.349m8.45 8.334q.923.464 2.09.724q1.166.26 2.339.276v-2.603l-2.388-.475zm0 0"/></svg>