<svg xmlns="http://www.w3.org/2000/svg" width="1em" height="1em" viewBox="0 0 24 24"><path fill="currentColor" d="M19.577 11.462q-.208 0-.357-.144q-.149-.143-.18-.356q-.325-2.518-2.116-4.31q-1.791-1.79-4.309-2.115q-.213-.031-.356-.177T12.115 4q0-.213.147-.357q.146-.143.353-.112q2.958.311 5.039 2.392q2.08 2.08 2.392 5.039q.03.207-.112.353q-.144.147-.357.147m-4.098 0q-.171 0-.296-.11t-.193-.292q-.257-.898-.916-1.576t-1.557-.917q-.182-.067-.292-.192t-.11-.302q0-.25.168-.399q.167-.149.4-.087q1.227.286 2.114 1.174t1.193 2.133q.062.233-.1.4q-.161.168-.411.168M18.93 20q-2.53 0-5.185-1.266q-2.656-1.267-4.944-3.555q-2.27-2.289-3.536-4.935Q4 7.598 4 5.07q0-.45.3-.76T5.05 4h2.473q.408 0 .712.257t.411.658L9.142 7.3q.07.42-.025.733q-.094.313-.332.513L6.59 10.592q.616 1.118 1.361 2.076q.745.959 1.59 1.817q.87.87 1.874 1.62q1.004.749 2.204 1.414l2.139-2.177q.244-.263.549-.347q.305-.083.674-.033l2.104.43q.407.1.661.41q.254.311.254.713v2.435q0 .45-.31.75t-.76.3"/></svg>