<svg xmlns="http://www.w3.org/2000/svg" width="1em" height="1em" viewBox="0 0 24 24"><path fill="currentColor" d="M7.615 22q-.67 0-1.143-.472Q6 21.056 6 20.385V3.615q0-.67.472-1.143Q6.944 2 7.615 2h8.77q.67 0 1.143.472q.472.472.472 1.143v3.308h-1V5.5H7v13h10v-1.423h1v3.308q0 .67-.472 1.143q-.472.472-1.143.472zM7 19.5v.885q0 .23.192.423q.193.192.423.192h8.77q.23 0 .423-.192q.192-.193.192-.423V19.5zm9.927-5.173q-.392-.075-.667-.24t-.483-.41l-.385.19q-.136.075-.292.022q-.156-.052-.237-.189l-.126-.225q-.081-.137-.053-.283q.028-.146.158-.232l.362-.264q-.127-.373-.127-.702q0-.329.127-.702l-.356-.263q-.13-.106-.159-.255q-.027-.149.053-.286l.133-.219q.08-.13.227-.174q.146-.043.283.032l.392.185q.208-.24.483-.402q.275-.162.667-.237l.042-.454q.025-.161.134-.267q.109-.106.27-.106h.254q.161 0 .27.106q.109.106.134.267l.042.454q.392.075.667.237q.275.161.483.402l.373-.185q.137-.075.292-.022q.156.053.237.183l.133.22q.08.136.053.285q-.028.15-.16.236l-.355.263q.127.373.127.702q0 .33-.127.702l.362.264q.13.105.158.252q.028.146-.053.282l-.126.225q-.081.137-.227.18q-.147.043-.283-.032l-.404-.19q-.208.246-.483.41q-.275.165-.667.24l-.042.454q-.025.161-.134.267q-.109.106-.27.106h-.254q-.161 0-.27-.106q-.109-.106-.134-.267zm.573-.789q.65 0 1.094-.444q.444-.444.444-1.094t-.444-1.094q-.444-.444-1.094-.444t-1.094.444q-.444.444-.444 1.094t.444 1.094q.444.444 1.094.444M7 4.5h10v-.885q0-.23-.192-.423Q16.615 3 16.385 3h-8.77q-.23 0-.423.192Q7 3.385 7 3.615zm0 0V3zm0 15V21z"/></svg>