<svg xmlns="http://www.w3.org/2000/svg" width="1em" height="1em" viewBox="0 0 24 24"><path fill="currentColor" d="M4.615 20q-.69 0-1.152-.462Q3 19.075 3 18.385V7.615q0-.69.463-1.152Q3.925 6 4.615 6h2.958l1.85-2h5.154l1.85 2h2.958q.69 0 1.152.463q.463.462.463 1.152v10.77q0 .69-.462 1.152q-.463.463-1.153.463zm4.077-3.885h6.616v-.165q0-.875-.88-1.355q-.878-.48-2.428-.48q-1.55 0-2.429.48q-.879.48-.879 1.355zM12 12.5q.633 0 1.066-.434q.434-.433.434-1.066t-.434-1.066Q12.633 9.5 12 9.5t-1.066.434Q10.5 10.367 10.5 11t.434 1.066q.433.434 1.066.434"/></svg>