<svg xmlns="http://www.w3.org/2000/svg" width="1em" height="1em" viewBox="0 0 24 24"><path fill="currentColor" d="M7.23 16.77V3h7.626q-.123.263-.172.504q-.05.24-.088.496H8.231v11.585h.577q1.067-1.089 2.436-1.683q1.37-.594 2.871-.594q1.506 0 2.873.597q1.368.597 2.435 1.685H20V9.308q.256-.02.496-.097q.24-.078.504-.182v7.74zm-2.688 4.59L2.962 8.427l2.269-.304v1.02l-1.154.144l1.33 10.963l11.47-1.48h1.45l.092.842zm12.73-14.533l1.466-4.115h.85l1.474 4.115h-.768l-.317-.87H18.33l-.28.87zm1.27-1.465h1.243l-.631-1.974zm-4.427 8.946q-1.125 0-2.157.365t-1.873 1.096h8.061q-.84-.73-1.873-1.096q-1.033-.365-2.158-.365m-.004-7.731q1.02 0 1.733.71q.714.708.714 1.728t-.71 1.733q-.709.714-1.728.714t-1.733-.71q-.714-.709-.714-1.729t.71-1.733q.709-.713 1.728-.713m.004 1q-.594 0-1.018.424q-.424.424-.424 1.018q0 .594.424 1.018q.424.425 1.018.425q.595 0 1.019-.425q.424-.424.424-1.018q0-.594-.424-1.018q-.424-.424-1.019-.424"/></svg>