<svg xmlns="http://www.w3.org/2000/svg" width="1em" height="1em" viewBox="0 0 24 24"><path fill="currentColor" d="M5.654 19.423q-.348 0-.578-.23q-.23-.23-.23-.578V18h-1.23q-.691 0-1.153-.462Q2 17.075 2 16.385v-9.77q0-.69.463-1.152Q2.925 5 3.615 5h16.77q.69 0 1.152.463q.463.462.463 1.152v9.77q0 .69-.462 1.152q-.463.463-1.153.463h-1.231v.615q0 .348-.23.578q-.23.23-.578.23zM3.615 17h16.77q.23 0 .423-.192q.192-.193.192-.423v-9.77q0-.23-.192-.423Q20.615 6 20.385 6H3.615q-.23 0-.423.192Q3 6.385 3 6.615v9.77q0 .23.192.423q.193.192.423.192m2.789-2.5h11.211l-3.5-4.673l-3.115 4l-2.096-2.539zM3 17V6z"/></svg>