<svg xmlns="http://www.w3.org/2000/svg" width="1em" height="1em" viewBox="0 0 24 24"><path fill="currentColor" d="M4.615 20q-.69 0-1.152-.462Q3 19.075 3 18.385V7.615q0-.69.463-1.152Q3.925 6 4.615 6h2.958l1.365-1.485q.218-.242.528-.378q.31-.137.659-.137h3.75q.348 0 .659.137q.31.136.528.378L16.427 6h2.958q.69 0 1.152.463q.463.462.463 1.152v10.77q0 .69-.462 1.152q-.463.463-1.153.463zm3.693-3.385h7.538q.242 0 .354-.217q.112-.217-.03-.429l-2.02-2.713q-.13-.162-.323-.162t-.323.162l-2.292 2.898l-1.427-1.725q-.131-.142-.314-.142t-.313.161L8.004 15.97q-.162.212-.05.43q.111.216.354.216"/></svg>