<svg xmlns="http://www.w3.org/2000/svg" width="1em" height="1em" viewBox="0 0 24 24"><path fill="currentColor" d="M5.615 20q-.69 0-1.152-.462Q4 19.075 4 18.385V5.615q0-.69.463-1.152Q4.925 4 5.615 4h12.77q.69 0 1.152.463q.463.462.463 1.152v12.77q0 .69-.462 1.152q-.463.463-1.153.463zm0-1h3.039v-4.808H8.25q-.367 0-.607-.24q-.24-.239-.24-.606V5H5.616q-.269 0-.442.173T5 5.615v12.77q0 .269.173.442t.442.173m9.731 0h3.039q.269 0 .442-.173t.173-.442V5.615q0-.269-.173-.442T18.385 5h-1.789v8.346q0 .367-.24.607q-.239.24-.606.24h-.404zm-5.808 0h4.924v-4.808h-.404q-.368 0-.607-.24q-.24-.239-.24-.606V5h-2.423v8.346q0 .367-.239.607q-.24.24-.607.24h-.404z"/></svg>