<svg xmlns="http://www.w3.org/2000/svg" width="1em" height="1em" viewBox="0 0 24 24"><path fill="currentColor" d="m19.833 21.26l-1.298-1.298q-.097.019-.173.028q-.077.01-.174.01H5.615q-.67 0-1.143-.472Q4 19.056 4 18.385V5.812q0-.097.01-.174q.01-.076.028-.173L2.74 4.167l.714-.713l17.092 17.092zM20 17.188l-1-1V5.615q0-.269-.173-.442T18.385 5h-1.789v8.346q0 .087-.018.183t-.055.183L13.212 10.4V5h-2.424v2.977L6.812 4h11.573q.67 0 1.143.472q.472.472.472 1.143zM5.615 19h3.039v-4.808H8.25q-.367 0-.607-.24q-.24-.239-.24-.606V8.831L5 6.427v11.958q0 .269.173.442t.442.173m3.923 0h4.924v-3.112l-3.685-3.684q-.023.69-.113 1.34t-.722.648h-.404zm5.808 0h2.227l-2.227-2.227z"/></svg>