<svg xmlns="http://www.w3.org/2000/svg" width="1em" height="1em" viewBox="0 0 24 24"><path fill="currentColor" d="M20.75 22.171L17.573 19H4.615q-.69 0-1.152-.462Q3 18.075 3 17.385V6.615q0-.69.463-1.152Q3.925 5 4.615 5H5l1 1H4.573L2.235 3.662q-.147-.147-.156-.348q-.01-.2.156-.366q.165-.165.356-.165t.357.165l18.515 18.515q.147.147.156.345q.01.198-.156.363q-.165.166-.356.166t-.357-.166m-1.123-5.356l-4.123-4.123h2.573q.394 0 .659-.264t.264-.659V7.923q0-.394-.264-.659T18.076 7h-5.845q-.377 0-.633.241t-.285.607v.654L9.185 6.373q-.38-.379-.174-.876Q9.215 5 9.756 5h9.629q.69 0 1.152.463q.463.462.463 1.152v9.63q0 .54-.497.744q-.497.205-.876-.174"/></svg>