<svg xmlns="http://www.w3.org/2000/svg" width="1em" height="1em" viewBox="0 0 24 24"><path fill="currentColor" d="M8.654 12.385h.77v-2h1.23q.327 0 .548-.222q.221-.22.221-.548v-1.23q0-.327-.221-.548q-.221-.222-.548-.222h-2zm.77-2.77v-1.23h1.23v1.23zm3.038 2.77h1.923q.327 0 .548-.222q.22-.22.22-.548v-3.23q0-.327-.22-.548q-.221-.222-.548-.222h-1.923zm.769-.77v-3.23h1.154v3.23zm3.154.77h.769v-2h1.384v-.77h-1.384v-1.23h1.384v-.77h-2.153zM8.115 17q-.69 0-1.152-.462q-.463-.463-.463-1.153V4.615q0-.69.463-1.152Q7.425 3 8.115 3h10.77q.69 0 1.152.463q.463.462.463 1.152v10.77q0 .69-.462 1.153q-.463.462-1.153.462zm-2.997 3q-.693 0-1.155-.462T3.5 18.382V6.615h1v11.77q0 .23.192.423q.193.192.423.192h11.77v1z"/></svg>