<svg xmlns="http://www.w3.org/2000/svg" width="1em" height="1em" viewBox="0 0 24 24"><path fill="currentColor" d="M4.615 19q-.69 0-1.152-.462Q3 18.075 3 17.385V6.615q0-.69.463-1.152Q3.925 5 4.615 5h14.77q.69 0 1.152.463q.463.462.463 1.152v4.616q0 .212-.144.356t-.357.144q-.212 0-.356-.144q-.143-.144-.143-.356V6.615q0-.269-.173-.442T19.385 6H4.615q-.269 0-.442.173T4 6.615v10.77q0 .269.173.442t.442.173h8.616q.212 0 .356.144t.144.357q0 .212-.144.356q-.144.143-.356.143zm6.573-9.5l3.827 3.808q.16.135.16.339q0 .203-.155.368q-.17.166-.361.166q-.192 0-.357-.166L10.5 10.213v2.437q0 .213-.144.356q-.144.144-.357.144t-.356-.144q-.143-.143-.143-.356V9.308q0-.344.232-.576q.232-.232.576-.232h3.342q.213 0 .356.144q.144.144.144.357t-.144.356q-.143.143-.356.143zm7.389 9.5q-1.01 0-1.716-.707t-.707-1.716q0-1.01.707-1.716t1.716-.707q1.01 0 1.716.707T21 16.577q0 1.01-.707 1.716T18.577 19"/></svg>