<svg xmlns="http://www.w3.org/2000/svg" width="1em" height="1em" viewBox="0 0 24 24"><path fill="currentColor" d="M4.615 19q-.69 0-1.152-.462Q3 18.075 3 17.385V6.615q0-.69.463-1.152Q3.925 5 4.615 5h9.116v1H4.615q-.23 0-.423.192Q4 6.385 4 6.615v10.77q0 .23.192.423q.193.192.423.192h14.77q.23 0 .423-.192q.192-.193.192-.423v-5.116h1v5.116q0 .69-.462 1.152q-.463.463-1.153.463zm4.723-2.644l-.707-.714l4.18-4.161H9.85v-1h4.65v4.65h-1v-2.937zm9.239-6.51q-1.02 0-1.721-.702q-.702-.702-.702-1.72q0-1.02.702-1.722T18.576 5q1.02 0 1.722.702T21 7.423q0 1.02-.702 1.721q-.702.702-1.721.702"/></svg>