<svg xmlns="http://www.w3.org/2000/svg" width="1em" height="1em" viewBox="0 0 24 24"><path fill="currentColor" d="M1.615 12V7.615H2.5v2.873l3.263-3.263l.627.627l-3.263 3.263H6V12zm6.237-5.61l-.627-.627L10.488 2.5H7.615v-.885H12V6h-.885V3.127zm6.204 15.38q-.504 0-.948-.187q-.445-.187-.812-.554L7.37 16.115l.481-.467q.227-.208.514-.268q.288-.06.582.012l2.785.687v-8.31q0-.212.144-.356t.356-.144q.213 0 .357.144q.143.144.143.356v9.652l-3.637-.983l3.916 3.897q.202.202.477.318q.275.116.569.116h3.675q1.056 0 1.778-.722t.722-1.778v-4q0-.212.144-.356t.356-.144q.213 0 .357.144q.143.144.143.356v4q0 1.458-1.021 2.48t-2.475 1.02zm.502-6.5v-4q0-.214.144-.358q.144-.143.356-.143q.213 0 .356.144q.144.144.144.356v4zm2.846 0v-3q0-.214.144-.358t.357-.143q.212 0 .356.144q.143.144.143.356v3zm-1.154 2.634"/></svg>