<svg xmlns="http://www.w3.org/2000/svg" width="1em" height="1em" viewBox="0 0 24 24"><path fill="currentColor" d="M10.27 3.742L3.741 10.27h2.431q.192 0 .317.125t.125.317q0 .19-.125.317q-.125.126-.317.126H3.038q-.343 0-.575-.232q-.232-.233-.232-.576V7.212q0-.192.125-.317q.125-.126.316-.126t.317.126q.126.125.126.317v2.43l6.527-6.527h-2.43q-.192 0-.317-.125q-.126-.125-.126-.316t.126-.317q.125-.126.317-.126h3.134q.343 0 .576.232q.232.232.232.575v3.135q0 .192-.125.317t-.317.125t-.317-.125q-.126-.125-.126-.317zm3.786 18.027q-.504 0-.948-.186q-.445-.187-.812-.554L7.82 16.565q-.184-.184-.179-.458q.006-.274.21-.459q.227-.208.514-.268q.288-.06.582.012l2.785.687v-8.31q0-.212.144-.356t.356-.144q.213 0 .357.144q.143.144.143.356v7.27h1.827v-3.77q0-.212.144-.356t.356-.144q.213 0 .356.144q.144.144.144.356v3.77h1.846v-2.77q0-.212.144-.356t.357-.144q.212 0 .356.144q.143.144.143.356v2.77h1.827v-.77q0-.212.144-.356t.356-.144q.213 0 .357.144q.143.144.143.356v4q0 1.458-1.021 2.48t-2.475 1.02z"/></svg>