<svg xmlns="http://www.w3.org/2000/svg" width="1em" height="1em" viewBox="0 0 24 24"><path fill="currentColor" d="M3.5 10.615q-.213 0-.356-.144Q3 10.328 3 10.115t.144-.356q.143-.144.356-.144h3.427L1.73 4.445q-.166-.147-.166-.348q0-.2.166-.366q.165-.166.357-.166q.19 0 .356.166l5.171 5.177V5.5q0-.213.144-.356T8.116 5q.213 0 .356.144q.143.143.143.356v4.308q0 .343-.232.575q-.232.232-.575.232zM4.615 19q-.69 0-1.152-.462Q3 18.075 3 17.385V13.5q0-.213.144-.356Q3.288 13 3.5 13t.356.144q.143.144.143.356v3.885q0 .269.173.442t.442.173h6.654q.213 0 .356.144t.144.357q0 .212-.144.356q-.143.143-.356.143zM20.5 12.77q-.212 0-.356-.145Q20 12.482 20 12.27V6.615q0-.269-.173-.442T19.385 6H11.5q-.213 0-.356-.144T11 5.499q0-.212.144-.356Q11.288 5 11.5 5h7.885q.69 0 1.152.463q.463.462.463 1.152v5.654q0 .213-.144.356q-.144.144-.357.144M14.962 19q-.344 0-.576-.232q-.232-.232-.232-.576v-2.23q0-.344.232-.576q.232-.232.576-.232h5.23q.344 0 .576.232q.232.232.232.576v2.23q0 .344-.232.576q-.232.232-.576.232z"/></svg>