<svg xmlns="http://www.w3.org/2000/svg" width="1em" height="1em" viewBox="0 0 24 24"><path fill="currentColor" d="M4.615 19q-.69 0-1.152-.462Q3 18.075 3 17.385V11.73q0-.213.144-.356t.356-.144h6.115q.667 0 1.141-.475q.475-.474.475-1.14V5.5q0-.213.144-.356T11.73 5h7.654q.69 0 1.152.463q.463.462.463 1.152v10.77q0 .69-.462 1.152q-.463.463-1.153.463zm8.173-9q-.343 0-.575.232q-.232.232-.232.576V14.5q0 .213.144.356q.144.144.356.144q.213 0 .357-.144q.143-.144.143-.356v-2.787l3.932 3.933q.147.146.345.156q.198.01.363-.156q.166-.165.166-.357t-.166-.356L13.67 11h2.812q.212 0 .356-.144t.144-.357q0-.212-.144-.356q-.144-.143-.356-.143zm-8.98-1.154q-.344 0-.576-.232Q3 8.382 3 8.038v-2.23q0-.344.232-.576Q3.464 5 3.808 5h4.23q.344 0 .576.232q.232.232.232.576v2.23q0 .344-.232.576q-.232.232-.576.232z"/></svg>