<svg xmlns="http://www.w3.org/2000/svg" width="1em" height="1em" viewBox="0 0 24 24"><path fill="currentColor" d="M10.385 7.615V4h8q.69 0 1.152.463q.463.462.463 1.152v2zM5.615 20q-.69 0-1.152-.462Q4 19.075 4 18.385v-8h3.615V20zM4 7.615v-2q0-.69.463-1.152Q4.925 4 5.615 4h2v3.615zm7.12 10.577l1.74 1.746q.14.14.15.342q.01.2-.156.366q-.16.16-.354.16t-.354-.16l-2.388-2.388q-.243-.243-.243-.566t.243-.565l2.388-2.389q.14-.14.342-.152q.2-.013.366.152q.16.16.162.351q.003.192-.156.357l-1.74 1.746h3.572q1.037 0 1.769-.731q.731-.732.731-1.769v-3.584l-1.746 1.746q-.14.14-.344.15q-.204.01-.364-.15t-.16-.354t.16-.354l2.389-2.388q.242-.243.565-.243q.323 0 .566.243l2.388 2.388q.14.14.15.344q.01.204-.15.364t-.354.16q-.194 0-.354-.16l-1.746-1.746v3.584q0 1.458-1.02 2.48q-1.022 1.02-2.48 1.02z"/></svg>