<svg xmlns="http://www.w3.org/2000/svg" width="1em" height="1em" viewBox="0 0 24 24"><path fill="currentColor" d="M10.385 7.615V4h8q.69 0 1.152.463q.463.462.463 1.152v2zM5.615 20q-.69 0-1.152-.462Q4 19.075 4 18.385v-8h3.615V20zM4 7.615v-2q0-.69.463-1.152Q4.925 4 5.615 4h2v3.615zM12.5 21l-3.308-3.308l3.308-3.307l.708.707l-2.089 2.1h3.573q1.037 0 1.769-.731q.731-.732.731-1.769v-3.584l-2.1 2.1l-.707-.708l3.307-3.308L21 12.5l-.708.708l-2.1-2.1v3.584q0 1.458-1.02 2.48q-1.022 1.02-2.48 1.02H11.12l2.089 2.1z"/></svg>