<svg xmlns="http://www.w3.org/2000/svg" width="1em" height="1em" viewBox="0 0 24 24"><path fill="currentColor" d="M4.162 10.423q-.47 0-.704-.4q-.235-.402.002-.806L6.337 4.21q.236-.404.701-.404q.466 0 .702.404l2.877 5.007q.237.404.002.805q-.234.401-.704.401zM7.058 20.52q-1.477 0-2.498-1.02q-1.022-1.024-1.022-2.5t1.022-2.498q1.02-1.021 2.498-1.021q1.477 0 2.498 1.02q1.02 1.022 1.02 2.499t-1.02 2.498Q8.535 20.52 7.058 20.52m7.269 0q-.343 0-.576-.232q-.232-.232-.232-.575v-5.424q0-.343.232-.575q.233-.232.576-.232h5.423q.343 0 .575.232q.233.232.233.575v5.424q0 .343-.233.575q-.232.232-.575.232zM16.35 6.692l-2.496-2.477q-.14-.134-.14-.34t.138-.348q.14-.14.354-.14q.215 0 .356.14l2.476 2.477l2.477-2.477q.14-.14.353-.14t.355.14q.14.14.14.347t-.14.341l-2.496 2.477l2.496 2.496q.14.134.14.341t-.139.348q-.139.14-.353.14q-.215 0-.356-.14L17.038 7.4l-2.476 2.477q-.14.14-.353.14t-.355-.14q-.14-.14-.14-.348t.14-.34z"/></svg>