<svg xmlns="http://www.w3.org/2000/svg" width="1em" height="1em" viewBox="0 0 24 24"><path fill="currentColor" d="m15.067 13.471l.564-2.03q.061-.243-.022-.495q-.084-.252-.301-.394l-1.721-1.183q-.162-.13-.361-.053q-.2.078-.255.29l-.563 2.03q-.062.243.022.495q.083.252.3.394l1.722 1.183q.161.13.36.053q.2-.078.255-.29M4.615 19.287l-.42-.189q-.795-.344-1.07-1.141t.075-1.553l1.415-3.035zM9 20.769q-.825 0-1.412-.59T7 18.763v-4.725l2.213 6.081q.075.194.145.347q.069.153.194.303zm4.362-.97q-.64.236-1.243-.037t-.838-.914L7.22 7.7q-.236-.64.046-1.24t.923-.835l6.41-2.346q.64-.237 1.24.046q.598.283.835.923l4.065 11.148q.237.64-.036 1.24q-.273.599-.914.835z"/></svg>