<svg xmlns="http://www.w3.org/2000/svg" width="1em" height="1em" viewBox="0 0 24 24"><path fill="currentColor" d="M11.5 20.5v-7.64q-.258-.16-.379-.376T11 12q0-.402.299-.701q.3-.299.701-.299t.701.299q.299.3.299.701q0 .267-.121.487q-.121.219-.379.373v7.64q0 .213-.143.357Q12.213 21 12 21t-.357-.143q-.143-.144-.143-.357m-5.329-2.321q-.165.165-.379.146q-.213-.02-.373-.19q-1.125-1.23-1.772-2.783Q3 13.798 3 12q0-1.863.71-3.506t1.927-2.857Q6.852 4.42 8.494 3.71Q10.137 3 12 3t3.506.71q1.642.711 2.857 1.927q1.216 1.215 1.926 2.857Q21 10.137 21 12q0 1.779-.647 3.342q-.647 1.564-1.772 2.793q-.16.17-.37.193q-.211.022-.376-.143q-.16-.16-.131-.383t.188-.394q.985-1.07 1.546-2.446Q20 13.585 20 12q0-3.35-2.325-5.675T12 4Q8.65 4 6.325 6.325T4 12q0 1.585.552 2.959t1.561 2.443q.16.171.192.391t-.134.386m2.825-2.825q-.165.165-.37.158q-.203-.006-.357-.183q-.594-.679-.931-1.517Q7 12.973 7 12q0-2.077 1.462-3.538Q9.923 7 12 7t3.538 1.462Q17 9.923 17 12q0 .954-.337 1.805q-.338.85-.932 1.524q-.154.171-.358.184t-.37-.153q-.159-.16-.152-.354q.007-.194.141-.371q.46-.539.734-1.207Q16 12.76 16 12q0-1.65-1.175-2.825T12 8q-1.65 0-2.825 1.175T8 12q0 .765.274 1.43q.274.666.734 1.205q.134.177.141.368q.007.191-.153.35"/></svg>