<svg xmlns="http://www.w3.org/2000/svg" width="1em" height="1em" viewBox="0 0 24 24"><path fill="currentColor" d="m17.254 14.41l3.706-3.706l.34.34q.165.166.165.373q0 .208-.165.373l-2.96 2.96q-.165.165-.376.163q-.21-.003-.376-.169zM2.75 16.715q0-.407.232-.744q.231-.336.633-.504q.68-.296 1.308-.648q.629-.352 1.22-.817l.91.911q.126.175.32.163q.192-.013.362-.182q.125-.125.134-.328q.01-.203-.115-.358l-.875-.875q.142-.143.291-.272q.15-.13.292-.278l.85.855q.125.175.318.156q.193-.019.368-.194q.125-.125.125-.328t-.125-.378l-1.01-1.004q.125-.153.234-.33q.109-.175.19-.38l1.125 1.126q.125.175.327.175q.203 0 .36-.156q.124-.125.114-.325q-.01-.2-.134-.375l-1.425-1.406l.875-1.77q.056-.143.152-.257q.096-.113.207-.225l3.554-3.22q.306-.287.73-.275q.424.013.71.3l4.958 4.957l-8.423 8.57q-.217.222-.525.356q-.307.133-.636.133H3.788q-.44 0-.739-.299t-.299-.739zm7.894 1.073L18.55 9.74zm-6.894 0h6.894L18.55 9.74l-4.275-4.275l-3.65 3.298l-.687 1.43l.866.884q.383.427.392.995q.01.568-.392.97l-2.46 2.46q-.407.408-.963.446q-.556.039-.939-.37l-.334-.334q-.556.412-1.15.706q-.595.294-1.208.554z"/></svg>