<svg xmlns="http://www.w3.org/2000/svg" width="1em" height="1em" viewBox="0 0 24 24"><path fill="currentColor" d="M12.002 20.842q-.158 0-.308-.025t-.28-.075q-2.952-1.125-4.683-3.816Q5 14.235 5 11.1V6.817q0-.514.293-.926q.293-.412.757-.597l5.385-2q.292-.106.565-.106q.273 0 .565.106l5.385 2q.464.185.757.597t.293.926V11.1q0 1.498-.422 2.88t-1.14 2.674l-2.95-2.95q.237-.379.375-.81T15 12q0-1.237-.881-2.119T12 9q-1.237 0-2.119.881T9 12q0 1.238.881 2.119T12 15q.487 0 .941-.147q.455-.147.828-.441l3.071 3.065q-.911 1.067-1.933 1.903q-1.022.835-2.34 1.362q-.135.05-.27.075t-.295.025M12 14q-.825 0-1.412-.587T10 12q0-.825.588-1.412T12 10q.825 0 1.413.588T14 12q0 .825-.587 1.413T12 14"/></svg>