<svg xmlns="http://www.w3.org/2000/svg" width="1em" height="1em" viewBox="0 0 24 24"><path fill="currentColor" d="M12 19.5q-.938 0-1.502.5q-.563.5-1.81.5q-1.246 0-1.81-.5q-.563-.5-1.501-.5q-.783 0-1.254.318q-.471.319-1.098.519q-.188.061-.357-.06q-.168-.121-.168-.335q0-.232.156-.4q.156-.169.377-.254q.482-.205.948-.497q.465-.291 1.396-.291q1.17 0 1.733.5q.563.5 1.578.5q1.016 0 1.58-.5q.563-.5 1.732-.5q1.17 0 1.752.5t1.598.5q1.015 0 1.56-.5q.544-.5 1.713-.5q.93 0 1.396.291q.466.292.948.497q.221.085.377.253q.156.169.156.401q0 .214-.168.335q-.169.121-.357.06q-.627-.2-1.098-.519q-.471-.318-1.254-.318q-.938 0-1.483.5q-.544.5-1.79.5t-1.829-.5q-.583-.5-1.521-.5m0-4.5q-.95 0-1.5.5q-.548.5-1.812.5q-1.263 0-1.818-.5q-.555-.5-1.493-.5q-.783 0-1.254.318q-.471.319-1.098.519q-.188.061-.357-.06q-.168-.121-.168-.335q0-.232.156-.4q.156-.169.377-.254q.482-.205.948-.497Q4.446 14 5.377 14q1.17 0 1.736.5q.566.5 1.575.5q1.016 0 1.58-.5Q10.83 14 12 14t1.733.5q.563.5 1.579.5q1.015 0 1.578-.5q.564-.5 1.733-.5q.93 0 1.396.291q.466.292.948.497q.221.085.377.253q.156.169.156.401q0 .214-.168.335q-.169.121-.357.06q-.627-.2-1.098-.519Q19.406 15 18.623 15q-.938 0-1.474.5t-1.799.5q-1.252 0-1.832-.5q-.58-.5-1.518-.5m-4.215-3.83l3.228-3.23l-1.538-1.538q-.683-.683-1.364-1.007q-.682-.324-1.648-.449q-.288-.042-.506-.254q-.219-.211-.219-.5q0-.294.212-.483q.212-.19.5-.159q1.254.125 2.152.514q.898.39 1.79 1.282l5.823 5.823q-.194.16-.402.245q-.207.086-.482.086q-.67 0-1.32-.5T12 10.5t-2.012.5q-.65.5-1.319.5q-.275 0-.482-.086q-.208-.085-.402-.245m8.646-7.477q.877 0 1.496.622q.62.623.62 1.494q0 .877-.62 1.496t-1.496.62q-.877 0-1.496-.62q-.62-.62-.62-1.496q0-.871.62-1.494q.619-.622 1.496-.622"/></svg>