<svg xmlns="http://www.w3.org/2000/svg" width="1em" height="1em" viewBox="0 0 24 24"><path fill="currentColor" d="M5.115 20q-.69 0-1.152-.462q-.463-.463-.463-1.153V5.615q0-.69.463-1.152Q4.425 4 5.115 4h8.808q.213 0 .356.144q.144.144.144.357q0 .212-.144.356q-.143.143-.356.143H5.115q-.23 0-.423.192q-.192.193-.192.423v12.77q0 .23.192.423q.193.192.423.192h12.77q.23 0 .423-.192q.192-.193.192-.423V9.577q0-.213.144-.356T19 9.077q.212 0 .356.144q.143.143.143.356v8.808q0 .69-.462 1.152q-.463.463-1.153.463zM8.5 16.5q-.213 0-.356-.144Q8 16.212 8 16t.144-.356q.143-.143.356-.143h6q.213 0 .356.144q.144.144.144.357t-.144.356q-.143.143-.356.143zm0-3q-.213 0-.356-.144Q8 13.212 8 13t.144-.356q.143-.143.356-.143h6q.213 0 .356.144q.144.144.144.357t-.144.356q-.143.143-.356.143zm0-3q-.213 0-.356-.144Q8 10.212 8 10t.144-.356Q8.287 9.5 8.5 9.5h6q.213 0 .356.144Q15 9.788 15 10t-.144.356q-.143.143-.356.143zM18 8q-.213 0-.357-.144q-.143-.143-.143-.356V6H16q-.213 0-.356-.144q-.144-.144-.144-.357q0-.212.144-.356Q15.788 5 16 5h1.5V3.5q0-.213.144-.356Q17.788 3 18 3t.356.144q.143.143.143.356V5H20q.213 0 .356.144t.144.357q0 .212-.144.356Q20.213 6 20 6h-1.5v1.5q0 .213-.144.356Q18.212 8 18 8"/></svg>