<svg xmlns="http://www.w3.org/2000/svg" width="1em" height="1em" viewBox="0 0 24 24"><path fill="currentColor" d="M8.973 21q-.585 0-1.023-.358q-.438-.357-.613-.898L6.269 15.5h11.423l-1.067 4.244q-.175.54-.613.898q-.439.358-1.024.358zm3.008-12.885q.192-1.846 1.448-3.188t3.075-1.746q.1-.03.19.002q.09.03.171.105q.081.075.11.17q.027.093.002.198q-.41 1.667-1.613 2.87q-1.202 1.203-2.883 1.547v2.446h6.711q.344 0 .576.232q.232.233.232.576v1.683q0 .694-.497 1.188t-1.195.494H5.692q-.698 0-1.195-.493Q4 13.706 4 13.014v-1.678q0-.357.232-.587q.232-.23.576-.23h6.673V8.073Q9.8 7.73 8.597 6.526q-1.203-1.203-1.612-2.87q-.025-.105.003-.199q.027-.094.108-.169t.18-.105q.1-.031.2 0q1.82.42 3.057 1.763q1.236 1.342 1.448 3.17"/></svg>