<svg xmlns="http://www.w3.org/2000/svg" width="1em" height="1em" viewBox="0 0 24 24"><path fill="currentColor" d="M10.27 20v-2.654L7 14.076v-4.46q0-.433.17-.81q.168-.38.559-.577l.886.886h-.23q-.154 0-.27.135Q8 9.385 8 9.615v4.035l3.27 3.27V19h1.46v-2.08l1.137-1.137L1.823 3.738l.708-.707l18.4 18.4l-.708.707l-5.642-5.642l-.85.85V20zm6.303-5.738L16 13.688V9.615q0-.23-.192-.423Q15.615 9 15.385 9h-4.073L9.346 7.035V4h1v4h3.308V4h1v4.5l-.5-.5h1.23q.667 0 1.141.475q.475.474.475 1.14v4.22zm-5.642-1.41"/></svg>