<svg xmlns="http://www.w3.org/2000/svg" width="1em" height="1em" viewBox="0 0 24 24"><path fill="currentColor" d="M11.5 13V3.846h1V13zm.5 7q-1.658 0-3.113-.626q-1.454-.626-2.545-1.716q-1.09-1.09-1.716-2.545Q4 13.658 4 12q0-1.788.767-3.38q.768-1.593 2.114-2.74l.688.69q-1.219.98-1.894 2.405Q5 10.4 5 12q0 2.9 2.05 4.95T12 19q2.925 0 4.963-2.05T19 12q0-1.6-.663-3.025t-1.906-2.406l.688-.688q1.366 1.146 2.123 2.738Q20 10.212 20 12q0 1.658-.626 3.113q-.626 1.454-1.713 2.545q-1.088 1.09-2.543 1.716Q13.663 20 12 20"/></svg>