<svg xmlns="http://www.w3.org/2000/svg" width="1em" height="1em" viewBox="0 0 24 24"><path fill="currentColor" d="M11.077 20q-.343 0-.576-.232q-.232-.232-.232-.576v-1.846l-2.79-2.79q-.217-.218-.348-.518q-.131-.3-.131-.632v-3.79q0-.433.17-.81q.168-.38.559-.577l.886.886h-.23q-.154 0-.27.135Q8 9.385 8 9.615v4.035l3.27 3.27V19h1.46v-2.08l1.137-1.137l-11.69-11.69q-.14-.141-.15-.345q-.01-.204.15-.363q.16-.16.354-.16t.354.16l17.692 17.692q.14.14.15.344q.01.204-.15.364t-.354.16t-.354-.16l-5.288-5.289l-.85.85v1.846q0 .344-.232.576q-.233.232-.576.232zm5.496-5.738L16 13.688V9.615q0-.23-.192-.423Q15.615 9 15.385 9h-4.073L9.346 7.035V4.5q0-.213.144-.356Q9.634 4 9.847 4t.356.144q.143.143.143.356V8h3.308V4.5q0-.213.144-.356q.144-.144.357-.144t.356.144q.143.143.143.356v4l-.5-.5h1.23q.667 0 1.141.475q.475.474.475 1.14v3.702q0 .252-.095.48q-.095.228-.268.401zm-5.642-1.41"/></svg>