<svg xmlns="http://www.w3.org/2000/svg" width="1em" height="1em" viewBox="0 0 24 24"><path fill="currentColor" d="M4.763 19.462v-1.616h3.024L5.198 9.381q-.656-.318-1.045-.908q-.39-.59-.39-1.358q0-1.038.731-1.769q.731-.73 1.77-.73q.917 0 1.574.562q.656.562.88 1.437h3.66v-2h.88l.075.631l2.263-2.08l4.758 2.238l-.37.78l-4.217-1.969l-2.388 2.2v1.4l2.388 2.15l4.23-1.969l.368.78l-4.769 2.25l-2.263-2.041l-.093.63h-.861v-2H8.717q-.075.335-.249.664t-.381.548l4.846 9.02h3.83v1.615zm1.5-10.847q.618 0 1.06-.441q.44-.441.44-1.059q0-.617-.44-1.058q-.442-.442-1.06-.442q-.617 0-1.058.442q-.442.441-.442 1.058q0 .618.442 1.059q.441.441 1.058.441"/></svg>