<svg xmlns="http://www.w3.org/2000/svg" width="1em" height="1em" viewBox="0 0 24 24"><path fill="currentColor" d="m17.373 21.188l1.496-1.515l-2.427-2.427l-1.515 1.496q-.523.523-.523 1.223q0 .7.523 1.223q.523.524 1.223.524q.7 0 1.223-.524m2.185-2.203l1.515-1.497q.523-.523.514-1.223q-.01-.7-.533-1.223q-.523-.504-1.214-.513q-.69-.01-1.213.513l-1.496 1.516zm-1.49 2.917q-.81.81-1.928.8q-1.117-.01-1.927-.8q-.79-.81-.8-1.927q-.01-1.117.8-1.927l3.72-3.72q.79-.79 1.927-.79q1.136 0 1.927.79q.81.81.81 1.928q0 1.117-.81 1.927zM5 19V5zm.615 1q-.67 0-1.143-.472Q4 19.056 4 18.385V5.615q0-.67.472-1.143Q4.944 4 5.615 4h4.7q-.136-.765.367-1.383Q11.185 2 12 2q.835 0 1.338.617q.502.618.347 1.383h4.7q.67 0 1.143.472q.472.472.472 1.143v5.183q-.25-.029-.5-.01q-.25.02-.5.056V5.615q0-.269-.173-.442T18.385 5H5.615q-.269 0-.442.173T5 5.615v12.77q0 .269.173.442t.442.173h5.133q-.056.25-.075.5q-.02.25.01.5zM12 4.442q.325 0 .538-.212t.212-.538q0-.325-.213-.537T12 2.942q-.325 0-.537.213t-.213.537q0 .325.213.538t.537.212M7.5 8.731v-1h9v1zm0 3.769v-1h9v.408q-.142.105-.262.21q-.12.105-.263.247l-.135.135zm0 3.77v-1h5.571l-.283.282q-.18.18-.352.359q-.173.177-.336.358z"/></svg>