<svg xmlns="http://www.w3.org/2000/svg" width="1em" height="1em" viewBox="0 0 24 24"><path fill="currentColor" d="M12.096 16q-1.646 0-2.98-.834q-1.333-.833-2.02-2.166q.5-.95 1.314-1.658q.813-.707 1.878-1.054l.714.714q-.898.217-1.644.728q-.746.51-1.304 1.27q.708 1.002 1.771 1.559q1.063.556 2.271.556q.635 0 1.239-.17t1.14-.47l.652.652q-.665.421-1.426.647q-.76.226-1.605.226m4.514-2.215l-.614-.614q.03-.056.062-.085q.03-.03.061-.086q-.373-.537-.848-.932t-1.048-.67l-1.302-1.302q1.377.192 2.48.968q1.105.776 1.676 1.936q-.112.202-.213.398q-.1.196-.254.387M5.615 20q-.67 0-1.143-.472Q4 19.056 4 18.385V5.805q0-.095.01-.172q.01-.077.048-.154l-.54-.54q-.141-.14-.15-.342q-.01-.2.155-.366q.16-.16.354-.16q.194 0 .354.16l15.538 15.538q.146.146.153.344q.007.199-.159.364q-.165.16-.353.162q-.189.003-.354-.162l-.516-.515q-.096.019-.173.028q-.077.01-.173.01zm0-1H17.58L5 6.421v11.964q0 .269.173.442t.442.173M20 17.175l-1-1V8.154h-8.021L6.825 4h11.56q.67 0 1.143.472q.472.472.472 1.143z"/></svg>