<svg xmlns="http://www.w3.org/2000/svg" width="1em" height="1em" viewBox="0 0 24 24"><path fill="currentColor" d="M19.833 21.26L17 18.427V20H7v-4H3.577v-5.385q0-.85.577-1.425t1.423-.575h1.611L2.74 4.167l.714-.713l17.092 17.092zM8 19h8v-1.573l-2.965-2.965H8zm10.812-3l-1-1h1.611v-4.385q0-.425-.287-.712t-.713-.288h-5.996l-1-1h6.996q.85 0 1.425.575t.575 1.425V16zM4.577 15H7v-1.538h5.035L8.188 9.615H5.577q-.425 0-.713.288t-.287.712zM16 8.615v-3H8.427l-1-1H17v4zm1.615 3.5q.425 0 .713-.287t.287-.713q0-.425-.287-.712t-.713-.288q-.425 0-.712.288t-.288.712q0 .425.288.713t.712.287m-12.038-2.5h2.611h-3.611zm12.846 0h1h-6.996z"/></svg>