<svg xmlns="http://www.w3.org/2000/svg" width="1em" height="1em" viewBox="0 0 24 24"><path fill="currentColor" d="M8.615 20q-.666 0-1.14-.475Q7 19.051 7 18.385V16H5.192q-.666 0-1.14-.475q-.475-.474-.475-1.14v-3.77q0-.85.577-1.425t1.423-.575h12.846q.85 0 1.425.575t.575 1.425v3.77q0 .666-.474 1.14q-.475.475-1.141.475H17v2.385q0 .666-.475 1.14q-.474.475-1.14.475zm-3.423-5H7q.038-.633.502-1.086q.463-.452 1.113-.452h6.77q.65 0 1.113.452q.464.453.502 1.086h1.808q.269 0 .442-.173t.173-.442v-3.77q0-.425-.287-.712t-.713-.288H5.577q-.425 0-.713.288t-.287.712v3.77q0 .269.173.442t.442.173M16 8.615V6.231q0-.27-.173-.443t-.442-.173h-6.77q-.269 0-.442.173T8 6.231v2.384H7V6.231q0-.667.475-1.141q.474-.475 1.14-.475h6.77q.666 0 1.14.475q.475.474.475 1.14v2.385zm1.615 3.5q.425 0 .713-.287t.287-.713q0-.425-.287-.712t-.713-.288q-.425 0-.712.288t-.288.712q0 .425.288.713t.712.287M16 18.385v-3.308q0-.27-.173-.442t-.442-.173h-6.77q-.269 0-.442.173T8 15.077v3.308q0 .269.173.442t.442.173h6.77q.269 0 .442-.173t.173-.442M5.192 9.615h-.615h14.846z"/></svg>