<svg xmlns="http://www.w3.org/2000/svg" width="1em" height="1em" viewBox="0 0 24 24"><path fill="currentColor" d="M10.062 7.371q.107-.038.228-.05q.122-.013.248-.013q.69 0 1.192.5q.5.502.5 1.192v.54zm9.819 7.702l-2.343-2.342v2.117l-1-1V6.615q0-.269-.173-.442T15.923 6H8.69l-1-1h8.233q.69 0 1.153.463t.462 1.152v4.654l2.343-2.342q.192-.192.444-.096t.252.369v5.6q0 .273-.252.37q-.252.095-.444-.097M15.923 19H5.153q-.69 0-1.152-.462t-.463-1.153V6.615q0-.613.386-1.047q.386-.433.96-.53L5.847 6h-.692q-.27 0-.442.173q-.174.173-.174.442v10.77q0 .269.174.442t.442.173h4.992v-1.55q-1.552-.154-2.66-1.203q-1.107-1.049-1.346-2.57q-.03-.16.098-.265t.289-.104q.179 0 .317.102q.139.102.17.28q.219 1.256 1.206 2.08q.988.824 2.318.824q.825 0 1.582-.353q.757-.353 1.257-1.003l.602.602q-.58.706-1.371 1.115q-.79.408-1.677.495V18h4.992q.27 0 .442-.173t.173-.442v-.693l.962.962q-.096.575-.53.96q-.433.386-1.047.386m3.12 1.612l-7.368-7.368q-.225.24-.517.344q-.293.104-.62.104q-.69 0-1.19-.5q-.502-.502-.502-1.192v-1.585L2.773 4.342q-.14-.14-.15-.344q-.01-.204.15-.363q.16-.16.354-.16q.194 0 .354.16L19.75 19.904q.14.14.15.344q.01.204-.15.364t-.354.16q-.194 0-.354-.16M10.146 18h.785z"/></svg>