<svg xmlns="http://www.w3.org/2000/svg" width="1em" height="1em" viewBox="0 0 24 24"><path fill="currentColor" d="M19.396 20.965L2.42 3.988l.708-.707l16.977 16.977zm1.18-5.196l-3.038-3.038v2.117L12.231 9.54V9q0-.69-.501-1.191q-.501-.501-1.192-.501q-.126 0-.248.012t-.228.051L7.69 5h9.848v6.27l3.039-3.04zM3.539 19V5.038h1.347L17.5 17.654V19h-6.57v-2.55q.887-.087 1.678-.495q.79-.409 1.37-1.115l-.601-.602q-.5.65-1.257 1.003q-.757.353-1.582.353q-1.423 0-2.45-.941q-1.028-.941-1.125-2.345h-.867q.116 1.644 1.26 2.813q1.146 1.17 2.79 1.329V19zm5.308-8.585V12q0 .69.501 1.191q.501.501 1.191.501q.327 0 .62-.104q.292-.103.517-.344z"/></svg>