<svg xmlns="http://www.w3.org/2000/svg" width="1em" height="1em" viewBox="0 0 24 24"><path fill="currentColor" d="M10.062 7.371q.107-.038.228-.05q.122-.013.248-.013q.69 0 1.192.5q.5.502.5 1.192v.54zm10.515 8.398l-3.039-3.038v2.117l-1-1V6.615q0-.269-.173-.442T15.923 6H8.69l-1-1h8.233q.69 0 1.153.463t.462 1.152v4.654l3.039-3.038zM15.923 19H5.153q-.69 0-1.152-.462t-.463-1.153V6.615q0-.613.386-1.047q.386-.433.96-.53L5.847 6h-.692q-.27 0-.442.173q-.174.173-.174.442v10.77q0 .269.174.442t.442.173h4.992v-1.55q-1.644-.16-2.79-1.329q-1.144-1.17-1.26-2.813h.867q.097 1.404 1.125 2.345q1.027.941 2.45.941q.825 0 1.582-.353q.757-.353 1.257-1.003l.602.602q-.58.706-1.371 1.115q-.79.408-1.677.495V18h4.992q.27 0 .442-.173t.173-.442v-.693l.962.962q-.096.575-.53.96q-.433.386-1.047.386m4.18 1.258l-.707.707l-7.721-7.72q-.225.24-.517.343q-.293.104-.62.104q-.69 0-1.19-.5q-.502-.502-.502-1.192v-1.585L2.42 3.988l.708-.707zM10.147 18h.785z"/></svg>