<svg xmlns="http://www.w3.org/2000/svg" width="1em" height="1em" viewBox="0 0 24 24"><path fill="currentColor" d="M7.001 16.154q.328 0 .548-.222q.22-.221.22-.549q0-.327-.221-.547q-.222-.22-.55-.22t-.547.22q-.22.222-.22.55q0 .327.221.548q.222.22.55.22M7 13.23q.212 0 .356-.144q.143-.144.143-.356V8.346q0-.212-.144-.356T7 7.846t-.356.144q-.143.144-.143.356v4.385q0 .212.144.356t.357.144M11 14.5h6q.213 0 .356-.144q.144-.144.144-.357t-.144-.356Q17.213 13.5 17 13.5h-6q-.213 0-.356.144q-.144.144-.144.357t.144.356q.144.143.356.143m0-4h6q.213 0 .356-.144q.144-.144.144-.357t-.144-.356Q17.213 9.5 17 9.5h-6q-.213 0-.356.144q-.144.144-.144.357t.144.356q.144.143.356.143M4.615 19q-.69 0-1.152-.462Q3 18.075 3 17.385V6.615q0-.69.463-1.152Q3.925 5 4.615 5h14.77q.69 0 1.152.463q.463.462.463 1.152v10.77q0 .69-.462 1.152q-.463.463-1.153.463z"/></svg>