<svg xmlns="http://www.w3.org/2000/svg" width="1em" height="1em" viewBox="0 0 24 24"><path fill="currentColor" d="M5 13.115V9.231q0-1.194.802-2.043q.802-.848 1.967-.928V4.615q0-.67.472-1.143Q8.713 3 9.385 3h5.23q.672 0 1.144.472q.472.472.472 1.143V6.26q1.165.08 1.967.928q.802.849.802 2.043v3.884zM8 21q-1.246 0-2.123-.877Q5 19.246 5 18v-3.885h14V18q0 1.246-.877 2.123Q17.246 21 16 21zm.77-14.77h2.46q0-.309.23-.539q.23-.23.54-.23q.31 0 .54.23q.23.23.23.54h2.46V4.615q0-.269-.172-.442T14.615 4h-5.23q-.27 0-.443.173t-.173.442z"/></svg>