<svg xmlns="http://www.w3.org/2000/svg" width="1em" height="1em" viewBox="0 0 24 24"><path fill="currentColor" d="M8 21q-1.237 0-2.119-.881T5 18V9.23q0-1.193.802-2.042q.802-.848 1.967-.928V4.615q0-.666.475-1.14Q8.718 3 9.384 3h5.231q.667 0 1.141.475q.475.474.475 1.14V6.26q1.165.08 1.967.928q.802.849.802 2.043V18q0 1.238-.881 2.119T16 21zm-2-7.885h12V9.231q0-.825-.587-1.413T16 7.231H8q-.825 0-1.412.587T6 9.231zM8 20h8q.825 0 1.413-.587T18 18v-3.885H6V18q0 .825.588 1.413T8 20m4.77-13.77h2.46V4.616q0-.269-.172-.442T14.615 4h-5.23q-.27 0-.443.173t-.173.442v1.616h2.462q0-.31.23-.54q.23-.23.539-.23q.31 0 .54.23q.23.23.23.54"/></svg>