<svg xmlns="http://www.w3.org/2000/svg" width="1em" height="1em" viewBox="0 0 24 24"><path fill="currentColor" d="M9.5 7h5v-.577q0-.27-.173-.442q-.173-.173-.442-.173h-3.77q-.269 0-.442.173t-.173.442zM8 17v1.5q0 .213-.144.356q-.144.144-.357.144q-.212 0-.356-.144Q7 18.713 7 18.5V17q-2.077 0-3.538-1.457Q2 14.086 2 12.005q0-2.082 1.458-3.543Q4.917 7 7 7h1.5v-.577q0-.69.463-1.153t1.152-.462h3.77q.69 0 1.153.462q.462.463.462 1.153V7H17q2.083 0 3.542 1.457Q22 9.914 22 11.995q0 2.082-1.458 3.543Q19.083 17 17 17v1.5q0 .213-.144.356T16.5 19q-.212 0-.356-.144Q16 18.713 16 18.5V17z"/></svg>