<svg xmlns="http://www.w3.org/2000/svg" width="1em" height="1em" viewBox="0 0 24 24"><path fill="currentColor" d="M7.5 21q-.213 0-.356-.144T7 20.5v-3.262q-1.425-1.3-2.212-2.922T4 10.986Q4 7.66 6.333 5.33Q8.667 3 12 3q2.702 0 4.884 1.645q2.181 1.645 2.83 4.25l1.036 4.103q.1.38-.142.691t-.646.311H18v3.385q0 .666-.475 1.14q-.474.475-1.14.475H14v1.5q0 .213-.144.356T13.5 21zm4.307-5.192q.31 0 .52-.21q.211-.21.211-.52q0-.31-.21-.521q-.21-.21-.52-.21q-.31 0-.52.21t-.211.52q0 .31.21.52t.52.21m.024-2.738q.161 0 .293-.11q.132-.11.188-.301q.075-.32.275-.646q.201-.325.57-.739q.705-.779.955-1.22q.25-.44.25-.938q0-.953-.698-1.592q-.697-.638-1.781-.638q-.704 0-1.33.33q-.626.33-1.013.927q-.092.154-.022.314t.23.227q.16.067.316.028q.157-.04.28-.2q.289-.376.694-.577q.406-.201.843-.201q.686 0 1.135.386q.45.385.45.996q0 .394-.213.75t-.876 1.045q-.417.442-.65.858q-.23.417-.306.859q-.03.165.094.304q.125.138.316.138"/></svg>