<svg xmlns="http://www.w3.org/2000/svg" width="1em" height="1em" viewBox="0 0 24 24"><path fill="currentColor" d="M7 21v-3.762q-1.425-1.3-2.212-2.922T4 10.986Q4 7.66 6.333 5.33Q8.667 3 12 3q2.702 0 4.884 1.645q2.181 1.645 2.83 4.25l1.036 4.103q.1.38-.142.691t-.646.311H18v3.385q0 .666-.475 1.14q-.474.475-1.14.475H14v2zm4.807-5.192q.31 0 .52-.21q.211-.21.211-.52q0-.31-.21-.521q-.21-.21-.52-.21q-.31 0-.52.21t-.211.52q0 .31.21.52t.52.21m-.422-2.738h.89q0-.452.191-.858q.192-.407.692-.938q.43-.48.817-.974q.387-.493.387-1.184q0-.937-.698-1.583q-.697-.647-1.781-.647q-.827 0-1.515.44q-.687.44-1.031 1.173l.798.364q.252-.512.728-.82q.475-.31 1.02-.31q.665 0 1.124.387q.458.385.458.996q0 .564-.341.967t-.747.828q-.5.505-.746 1.03t-.246 1.13"/></svg>