<svg xmlns="http://www.w3.org/2000/svg" width="1em" height="1em" viewBox="0 0 24 24"><path fill="currentColor" d="M5.5 20.5q-1.044 0-1.772-.728T3 18v-3.787q0-.142.028-.285t.078-.28l2.327-6.175q.319-.863 1.03-1.418Q7.175 5.5 8.07 5.5q.881 0 1.552.537q.671.536.758 1.375v1.934L8.315 11.43q-.167.167-.164.39q.003.223.17.39q.167.168.39.168t.39-.167L11.5 9.812V3q0-.213.143-.357q.144-.143.357-.143t.357.143q.143.144.143.357v6.812l2.398 2.398q.167.167.39.167t.39-.167q.168-.168.168-.39t-.167-.391l-2.064-2.083V7.412q.087-.839.758-1.375q.671-.537 1.552-.537q.894 0 1.593.555q.7.555 1.024 1.418l2.346 6.175q.05.137.078.28q.028.143.028.285V18q0 1.044-.74 1.772t-1.76.728h-3q-1.038 0-1.766-.728T13 18v-1.913q0-.05.003-.087q.003-.037.003-.087l.388-3.78L12 10.713l-1.438 1.42l.432 3.78q0 .05.003.087q.003.037.003.087V18q0 1.044-.74 1.772T8.5 20.5z"/></svg>