<svg xmlns="http://www.w3.org/2000/svg" width="1em" height="1em" viewBox="0 0 24 24"><path fill="currentColor" d="M5.5 20.5q-1.044 0-1.772-.728T3 18v-4.079l2.433-6.448q.319-.863 1.03-1.418Q7.175 5.5 8.07 5.5q.881 0 1.552.537q.671.536.758 1.375v1.934L7.925 11.82l.787.781L11.5 9.812V2.5h1v7.312l2.788 2.788l.781-.78l-2.454-2.474V7.412q.087-.839.758-1.375q.671-.537 1.552-.537q.894 0 1.593.555q.7.555 1.024 1.418l2.452 6.448V18q0 1.044-.74 1.772t-1.76.728h-3q-1.038 0-1.766-.728T13 18v-2l.394-3.867L12 10.713l-1.438 1.42L11 16v2q0 1.044-.74 1.772T8.5 20.5z"/></svg>