<svg xmlns="http://www.w3.org/2000/svg" width="1em" height="1em" viewBox="0 0 24 24"><path fill="currentColor" d="M4.563 12.5q-.684-.933-1.124-1.891Q3 9.65 3 8.494q0-1.907 1.296-3.2Q5.592 4 7.5 4q1.294 0 2.463.685Q11.13 5.369 12 6.638q.87-1.288 2.025-1.963T16.5 4q1.87 0 3.165 1.27Q20.962 6.54 21 8.41q-.646-.437-1.412-.673Q18.823 7.5 18 7.5q-2.154 0-3.717 1.438q-1.564 1.437-1.74 3.562h-1.878L8.39 9.104L6.104 12.5zM12 19.923l-1.156-1.042q-2.025-1.818-3.326-3.103q-1.3-1.286-2.16-2.278H6.64l1.745-2.604l1.744 2.604h2.413q.11 1.221.696 2.225q.585 1.004 1.51 1.673q-.365.346-.77.721q-.403.375-.845.78zm5.5-6.27V9.5h1v4.154zm.5 2.885q-.31 0-.52-.21q-.21-.21-.21-.52q0-.31.21-.52t.52-.211q.31 0 .52.21t.21.52q0 .31-.21.52q-.21.211-.52.211"/></svg>