<svg xmlns="http://www.w3.org/2000/svg" width="1em" height="1em" viewBox="0 0 24 24"><path fill="currentColor" d="M17.5 13.154V10q0-.213.143-.357q.144-.143.357-.143t.357.143q.143.144.143.357v3.154q0 .213-.143.357q-.144.143-.357.143t-.357-.143q-.143-.144-.143-.357M4.563 12.5q-.684-.933-1.124-1.891Q3 9.65 3 8.494q0-1.907 1.296-3.2Q5.592 4 7.5 4q1.294 0 2.463.685Q11.13 5.369 12 6.638q.87-1.288 2.025-1.963T16.5 4q1.87 0 3.165 1.27Q20.962 6.54 21 8.41q-.646-.437-1.412-.673Q18.823 7.5 18 7.5q-2.154 0-3.717 1.438q-1.564 1.437-1.74 3.562h-1.878l-1.603-2.396q-.131-.187-.305-.27q-.174-.084-.367-.084q-.192 0-.369.084t-.308.27L6.103 12.5zm6.281 6.38q-2.025-1.817-3.326-3.102q-1.3-1.286-2.16-2.278h.854q.211 0 .378-.096q.168-.096.293-.258l1.502-2.25l1.502 2.25q.125.162.292.258q.167.096.379.096h1.984q.11 1.221.696 2.225q.585 1.004 1.51 1.673q-.365.346-.77.721q-.403.375-.845.78l-.404.363q-.16.134-.346.201q-.187.068-.383.068t-.383-.068q-.186-.067-.346-.201zM18 16.539q-.31 0-.52-.21q-.21-.21-.21-.52q0-.31.21-.52t.52-.211q.31 0 .52.21t.21.52q0 .31-.21.52q-.21.211-.52.211"/></svg>