<svg xmlns="http://www.w3.org/2000/svg" width="1em" height="1em" viewBox="0 0 24 24"><path fill="currentColor" d="M4 21V6.615h2.827V2.77h10.365v3.846H20V21zM7.827 6.615h8.365V3.77H7.827zM5 20h14V7.615H5zm6.98-1.77q1.844 0 3.144-1.298q1.3-1.3 1.3-3.115q0-1.815-1.3-3.124q-1.3-1.308-3.143-1.308q-1.828 0-3.116 1.308q-1.288 1.309-1.288 3.124q0 1.816 1.288 3.115q1.288 1.299 3.116 1.299m.009-.846q-1.478 0-2.513-1.035t-1.035-2.523q0-1.489 1.037-2.523q1.036-1.035 2.502-1.035q1.482 0 2.53 1.035q1.047 1.034 1.047 2.523q0 1.488-1.045 2.523q-1.045 1.035-2.523 1.035m1.083-1.958l.527-.527l-1.235-1.254v-2.108h-.73v2.431zM12 13.807"/></svg>