<svg xmlns="http://www.w3.org/2000/svg" width="1em" height="1em" viewBox="0 0 24 24"><path fill="currentColor" d="M5.77 13.808V12h1.807v1.808zM3.961 12v-1.808h1.807V12zM12 5.77V3.961h1.808v1.807zM4.846 8.5H8.5V4.846H4.846zm-.884.885V3.962h5.423v5.423zm.884 9.769h3.808V15.5H4.846zm-.884.884v-5.423h5.576v5.423zM15.5 8.5h3.654V4.846H15.5zm-.885.885V3.962h5.423v5.423zm-5.23 4.423V12H7.577v-1.808h3.615v3.616zm.807-4.423V5.769H12v1.808h1.808v1.808zM6.038 7.308v-1.27h1.27v1.27zm.135 10.519v-1.27h1.27v1.27zm10.52-10.52V6.039h1.269v1.27zm-.655 12.731v-3h-3v-1h3v-3h1v3h3v1h-3v3z"/></svg>