<svg xmlns="http://www.w3.org/2000/svg" width="1em" height="1em" viewBox="0 0 24 24"><path fill="currentColor" d="M5 4v6.333v-.025V20zv4zm2.5 9.5h3.596q.148-.287.32-.527q.17-.24.365-.473H7.5zm0 4h2.887q-.053-.25-.07-.5q-.015-.25-.004-.5H7.5zM4 21V3h9.5L18 7.5v3.02q-.244-.085-.494-.121q-.25-.036-.506-.066V8h-4V4H5v16h6.39q.186.288.418.533q.232.246.486.467zm12.504-1.692q1.18 0 1.992-.816q.812-.815.812-1.996q0-1.18-.816-1.992q-.815-.812-1.996-.812q-1.18 0-1.992.816q-.812.815-.812 1.996q0 1.18.816 1.992q.815.812 1.996.812m5.096 2.98l-2.777-2.776q-.486.388-1.08.592t-1.243.204q-1.587 0-2.697-1.11t-1.11-2.698q0-1.587 1.11-2.697t2.697-1.11q1.587 0 2.697 1.11t1.11 2.697q0 .65-.203 1.243t-.592 1.08l2.776 2.777z"/></svg>