<svg xmlns="http://www.w3.org/2000/svg" width="1em" height="1em" viewBox="0 0 24 24"><path fill="currentColor" d="M9 20.115v-4.12h-.173q-2.39-.047-4.109-1.608Q3 12.825 3 10.5q0-2.302 1.599-3.891q1.6-1.59 3.901-1.59h2.04l-2.094-2.1l.708-.707l3.308 3.307l-3.308 3.308l-.708-.708l2.094-2.1H8.5q-1.875 0-3.187 1.303Q4 8.625 4 10.5q0 1.933 1.476 3.216Q6.952 15 8.942 15H10v2.694L12.675 15H15.5q1.875 0 3.197-1.312q1.322-1.313 1.322-3.188t-1.322-3.187Q17.375 6 15.5 6h-.308V5h.308q2.302 0 3.91 1.599q1.61 1.6 1.61 3.901q0 2.302-1.61 3.901Q17.803 16 15.5 16h-2.385z"/></svg>