<svg xmlns="http://www.w3.org/2000/svg" width="1em" height="1em" viewBox="0 0 24 24"><path fill="currentColor" d="M13.5 14.538q.31 0 .545-.235q.236-.236.236-.545q0-.31-.236-.545t-.545-.236q-.31 0-.545.236t-.236.545q0 .31.236.545q.235.235.545.235m-.442-2.815h.884q.039-.629.198-.947q.16-.318.768-.888q.634-.576.884-1.03q.25-.452.25-1.039q0-1.01-.72-1.683q-.72-.674-1.822-.674q-.833 0-1.48.45t-.985 1.226l.811.358q.283-.586.69-.88q.406-.293.964-.293q.715 0 1.187.424q.47.424.47 1.095q0 .408-.228.759q-.229.35-.787.845q-.632.552-.858 1.013q-.226.46-.226 1.264M8.115 17q-.69 0-1.152-.462q-.463-.463-.463-1.153V4.615q0-.69.463-1.152Q7.425 3 8.115 3h10.77q.69 0 1.152.463q.463.462.463 1.152v10.77q0 .69-.462 1.153q-.463.462-1.153.462zm-3 3q-.69 0-1.152-.462q-.463-.463-.463-1.153V6.615h1v11.77q0 .23.192.423q.193.192.423.192h11.77v1z"/></svg>