<svg xmlns="http://www.w3.org/2000/svg" width="1em" height="1em" viewBox="0 0 24 24"><path fill="currentColor" d="M13.815 21.612q-.182.103-.377.033q-.196-.07-.3-.253l-1.692-3.384q-.104-.183-.033-.378q.07-.195.252-.3q.183-.103.388-.023q.205.08.309.262l1.692 3.366q.104.182.024.378q-.08.195-.263.299m6.02 0q-.183.103-.378.033q-.195-.07-.3-.253l-1.692-3.384q-.103-.183-.033-.378q.07-.195.253-.3q.182-.103.387-.023q.205.08.309.262l1.692 3.366q.104.182.024.378q-.08.195-.262.299m-12.02 0q-.182.103-.387.033q-.205-.07-.309-.253l-1.692-3.384q-.104-.183-.024-.378q.08-.195.262-.3q.183-.103.378-.023t.3.262l1.692 3.366q.103.182.033.378t-.253.299M7.5 15.5q-2.083 0-3.541-1.459Q2.5 12.583 2.5 10.5q0-1.94 1.308-3.356Q5.115 5.73 7.083 5.512q.742-1.406 2.033-2.21Q10.408 2.5 12 2.5q2.154 0 3.701 1.428q1.547 1.428 1.8 3.559q1.841.111 2.92 1.28Q21.5 9.937 21.5 11.5q0 1.663-1.168 2.832Q19.163 15.5 17.5 15.5z"/></svg>