<svg xmlns="http://www.w3.org/2000/svg" width="1em" height="1em" viewBox="0 0 24 24"><path fill="currentColor" d="M4.72 11.438q-.183.085-.379.024t-.28-.243l-2.5-5q-.084-.182-.023-.378t.243-.28q.182-.084.378-.024t.28.244l2.5 5q.084.182.024.378t-.244.28m3.5 7q-.182.103-.378.033q-.195-.07-.299-.253l-2-4q-.084-.182-.014-.378q.07-.195.253-.299q.182-.084.378-.014q.195.07.28.253l2.019 4q.084.182.014.368t-.253.29m2.05-5q-.182.084-.387.024q-.205-.061-.29-.244l-3.5-7q-.084-.182-.024-.378t.244-.28q.182-.103.387-.033q.205.07.29.253l3.5 7q.084.182.024.378t-.244.28m2.15-5q-.182.103-.378.043q-.195-.06-.28-.244l-.994-2.019q-.084-.182-.024-.387q.06-.205.244-.29q.182-.084.384-.014t.287.253l1 2q.084.182.014.368t-.253.29m.6 9.994q-.182.104-.387.036q-.205-.067-.29-.25l-1-2q-.084-.182-.014-.387q.07-.205.253-.29q.182-.084.368-.014t.29.253l1.019 1.98q.084.183.014.376q-.07.192-.253.296m4.65 0q-.182.104-.378.036q-.195-.067-.28-.25l-3.5-7q-.084-.182-.023-.378t.243-.299q.182-.084.387-.014q.205.07.29.253l3.5 6.98q.084.183.014.376q-.07.192-.253.296m1.55-5.995q-.182.104-.378.034q-.195-.07-.299-.253l-3-6q-.084-.182-.014-.387q.07-.205.253-.29q.182-.084.378-.014q.195.07.28.253l3 6q.084.182.024.378t-.244.28m3 6q-.182.103-.378.033q-.195-.07-.299-.253l-1.5-3q-.084-.182-.014-.387q.07-.205.253-.29q.182-.084.378-.014q.195.07.28.253l1.5 3q.084.182.024.378t-.244.28"/></svg>