<svg xmlns="http://www.w3.org/2000/svg" width="1em" height="1em" viewBox="0 0 24 24"><path fill="currentColor" d="M6.385 13.615h2.21l5.263-5.269q.129-.148.193-.31q.064-.163.064-.323t-.064-.316q-.064-.157-.188-.305l-.925-.95q-.128-.129-.298-.193q-.169-.064-.334-.064q-.16 0-.32.054q-.16.055-.307.203l-5.294 5.264zM12.3 8.688l-.95-.944l.956-.956l.925.95zm-.485 4.927h5.8v-1h-4.8zM3 20.077V4.615q0-.69.463-1.152Q3.925 3 4.615 3h14.77q.69 0 1.152.463q.463.462.463 1.152v10.77q0 .69-.462 1.153q-.463.462-1.153.462H6.077z"/></svg>