<svg xmlns="http://www.w3.org/2000/svg" width="1em" height="1em" viewBox="0 0 24 24"><path fill="currentColor" d="M7.192 13.615H8.26q.161 0 .3-.055q.14-.056.27-.187l5.028-5.027q.129-.148.193-.31q.064-.163.064-.323t-.067-.316q-.067-.157-.19-.305l-.92-.95q-.128-.129-.298-.193q-.169-.064-.334-.064q-.16 0-.322.064q-.163.064-.31.193L6.626 11.17q-.13.131-.187.27q-.055.14-.055.301v1.068q0 .348.23.578q.23.23.577.23m6.039-5.903l-.925-.944zm-5.962 5.018v-.95l3.448-3.448l.462.488l.47.48l-3.43 3.43zm3.91-3.91l.47.48l-.932-.968zm.63 4.794h5.306q.214 0 .357-.143t.143-.357q0-.213-.143-.356q-.143-.144-.357-.144H12.81zM6.078 17l-1.704 1.704q-.379.379-.876.174Q3 18.673 3 18.133V4.615q0-.69.463-1.152Q3.925 3 4.615 3h14.77q.69 0 1.152.463q.463.462.463 1.152v10.77q0 .69-.462 1.153q-.463.462-1.153.462zm-.427-1h13.735q.23 0 .423-.192q.192-.193.192-.423V4.615q0-.23-.192-.423Q19.615 4 19.385 4H4.615q-.23 0-.423.192Q4 4.385 4 4.615v13.03zM4 16V4z"/></svg>