<svg xmlns="http://www.w3.org/2000/svg" width="1em" height="1em" viewBox="0 0 24 24"><path fill="currentColor" d="M9.808 17.23L8.235 21l-.927-.385l1.469-3.525q-2.535-.469-4.156-2.436Q3 12.687 3 10.11V6.327q0-1.372.977-2.35Q4.955 3 6.327 3q.386 0 .737.091q.351.092.698.234l4.892 2.04l-3 1.154v1.943l7.33 4.923h-7.08q-1.114 0-1.884-.77q-.77-.77-.77-1.884h-1q0 1.507 1.073 2.58q1.074 1.074 2.58 1.074H18.5l1.942 1.327L21.02 19h-1.25l-.75-1.77h-5.615V21h-1v-3.77zM6.328 5.597q-.31 0-.521.21t-.21.52q0 .31.209.521q.21.21.52.21q.31 0 .521-.21q.21-.21.21-.52q0-.31-.21-.52q-.21-.21-.52-.21"/></svg>