<svg xmlns="http://www.w3.org/2000/svg" width="1em" height="1em" viewBox="0 0 24 24"><path fill="currentColor" d="M6.328 5.596q-.31 0-.521.21t-.21.52q0 .31.209.521q.21.21.52.21q.31 0 .521-.21q.21-.21.21-.52q0-.31-.21-.52q-.21-.21-.52-.21m3.48 11.634l-1.39 3.306q-.075.179-.269.256q-.194.078-.377.005t-.268-.268q-.086-.195-.013-.378l1.287-3.062q-2.535-.469-4.156-2.436Q3 12.687 3 10.11V6.327q0-1.372.977-2.35Q4.955 3 6.327 3q.386 0 .737.091q.351.092.698.234l3.967 1.662q.248.105.245.366q-.003.26-.27.366l-2.05.8v1.943l7.33 4.923h-7.08q-1.09 0-1.852-.739q-.762-.738-.79-1.823q-.018-.196-.16-.33q-.141-.135-.335-.135q-.219 0-.362.143t-.143.357q0 .596.223 1.16q.223.565.567.992q.51.65 1.24 1.012q.731.363 1.612.363H18.5l1.942 1.327l.448 2.617q.056.271-.11.471q-.167.2-.428.2h-.215q-.17 0-.312-.099q-.142-.1-.21-.247l-.596-1.423h-5.615V20.5q0 .213-.144.356t-.357.144q-.213 0-.356-.144t-.143-.356v-3.27z"/></svg>