<svg xmlns="http://www.w3.org/2000/svg" width="1em" height="1em" viewBox="0 0 24 24"><path fill="currentColor" d="M3.308 14.25V9.904q0-.248.183-.422q.184-.174.432-.174h2.27q.6 0 1.05.45t.45 1.05v.384q0 .431-.257.832q-.257.401-.798.607l.654 1.477q.093.215-.03.4q-.124.184-.37.184q-.123 0-.23-.061q-.108-.062-.164-.185l-.783-1.754H4.192v1.558q0 .19-.126.316t-.316.126t-.316-.126q-.126-.126-.126-.316m5.763-.13l1.416-4.349q.061-.213.223-.338q.161-.125.375-.125h.407q.214 0 .375.125q.162.125.223.338l1.435 4.348q.062.216-.067.394q-.13.18-.364.18q-.16 0-.26-.077q-.101-.076-.151-.23l-.418-1.232h-1.942L9.9 14.392q-.05.154-.154.227t-.263.073q-.235 0-.354-.179q-.12-.178-.058-.394m6.529.273l-1.202-4.53q-.061-.216.067-.385t.345-.17q.153 0 .27.083q.116.083.166.237l.85 3.2l.837-3.22q.03-.134.134-.217q.104-.082.239-.082h.196q.135 0 .241.082q.107.083.138.218l.83 3.219l.856-3.2q.05-.154.164-.237q.113-.082.267-.082q.215 0 .344.169q.13.17.068.385l-1.208 4.53q-.03.135-.135.218q-.104.082-.238.082h-.216q-.134 0-.238-.082q-.104-.083-.135-.218l-.836-3.115l-.837 3.115q-.03.135-.134.218q-.104.082-.239.082h-.215q-.135 0-.242-.082q-.106-.083-.137-.218m-5.042-2.084h1.461l-.596-1.808h-.27zm-6.366-.5h2q.231 0 .423-.193q.193-.192.193-.423v-.384q0-.231-.193-.423q-.192-.193-.423-.193h-2z"/></svg>