<svg xmlns="http://www.w3.org/2000/svg" width="1em" height="1em" viewBox="0 0 24 24"><path fill="currentColor" d="M3.308 14.692V9.308h2.884q.6 0 1.05.45t.45 1.05v.384q0 .431-.256.832q-.257.401-.798.607l.9 2.061h-.923l-.9-2H4.192v2zm5.577 0l1.73-5.384h1.347l1.73 5.384h-.923l-.504-1.538h-1.942l-.515 1.538zm6.788 0L14.25 9.308h.904l.942 3.519l.904-3.52h.808l.904 3.52l.942-3.52h.904l-1.423 5.385h-.827l-.904-3.415l-.904 3.415zm-5.115-2.384h1.461l-.596-1.808h-.27zm-6.366-.5h2q.231 0 .423-.193q.193-.192.193-.423v-.384q0-.231-.193-.423q-.192-.193-.423-.193h-2z"/></svg>