<svg xmlns="http://www.w3.org/2000/svg" width="1em" height="1em" viewBox="0 0 24 24"><path fill="currentColor" d="M16.25 7.73q.31 0 .52-.21t.21-.52q0-.31-.21-.52t-.52-.21q-.31 0-.52.21t-.21.52q0 .31.21.52t.52.21M12.5 19h6.885q.23 0 .423-.192q.192-.193.192-.423V5.615q0-.23-.192-.423Q19.615 5 19.385 5H12.5zm-7.885 1q-.69 0-1.152-.462Q3 19.075 3 18.385v-5.077q0-.348.23-.578q.23-.23.578-.23h3.604l-1.766 1.765q-.14.14-.13.335q.009.194.15.335q.14.14.344.14t.344-.14l2.37-2.37q.241-.242.241-.565q0-.323-.242-.565L6.335 9.046q-.14-.14-.335-.14t-.335.14q-.14.14-.14.344t.14.345L7.412 11.5H3.808q-.348 0-.578-.23q-.23-.23-.23-.578V5.615q0-.69.463-1.152Q3.925 4 4.615 4h14.77q.69 0 1.152.463q.463.462.463 1.152v12.77q0 .69-.462 1.152q-.463.463-1.153.463z"/></svg>