<svg xmlns="http://www.w3.org/2000/svg" width="1em" height="1em" viewBox="0 0 24 24"><path fill="currentColor" d="m10.75 21.77l-.688-.714l2.325-2.325H7.71q-.172.644-.703 1.072q-.532.428-1.238.428q-.833 0-1.416-.584q-.584-.583-.584-1.416q0-.706.428-1.238q.428-.531 1.072-.703V7.71q-.644-.172-1.072-.703q-.428-.532-.428-1.238q0-.833.584-1.416q.583-.584 1.416-.584q.706 0 1.238.428q.531.428.703 1.072h4.677l-2.345-2.325l.708-.713l3.538 3.538l-3.538 3.539l-.708-.714l2.345-2.325H7.71q-.148.535-.527.914q-.38.379-.914.527v8.58q.535.148.914.527q.379.38.527.914h4.657l-2.305-2.325l.688-.714l3.538 3.539zm7.485-1.54q-.831 0-1.418-.583q-.586-.583-.586-1.416q0-.703.428-1.24q.428-.535 1.072-.7V7.71q-.644-.166-1.072-.702q-.428-.536-.428-1.239q0-.833.582-1.416q.582-.584 1.413-.584t1.418.584q.587.583.587 1.416q0 .703-.428 1.24q-.428.535-1.072.7v8.581q.644.172 1.072.703q.428.532.428 1.238q0 .833-.582 1.416q-.582.584-1.414.584m-12.466-1q.425 0 .713-.288t.287-.712q0-.425-.287-.713t-.713-.287q-.425 0-.712.287t-.288.713q0 .425.288.712t.712.288m12.462 0q.425 0 .712-.288t.288-.712q0-.425-.288-.713t-.712-.287q-.425 0-.713.287t-.287.713q0 .425.287.712t.713.288M5.769 6.769q.425 0 .713-.287t.287-.713q0-.425-.287-.712t-.713-.288q-.425 0-.712.288t-.288.712q0 .425.288.713t.712.287m12.462 0q.425 0 .712-.287t.288-.713q0-.425-.288-.712t-.712-.288q-.425 0-.713.288t-.287.712q0 .425.287.713t.713.287m0-1"/></svg>