<svg xmlns="http://www.w3.org/2000/svg" width="1em" height="1em" viewBox="0 0 24 24"><path fill="currentColor" d="M11.192 19.423V17.98q0-.162.046-.298q.047-.137.177-.268l6.743-6.736q.146-.146.335-.22q.19-.072.378-.072q.189 0 .388.063q.199.064.345.21l1.052 1.038q.16.166.242.355q.083.19.102.391q.02.202-.066.392t-.246.354l-6.794 6.8q-.13.131-.267.187q-.137.056-.298.056H12q-.348 0-.578-.23q-.23-.23-.23-.578m7.495-5.604L20 12.481l-1.071-1.135l-1.358 1.358zM5.769 20.231q-.827 0-1.413-.587q-.587-.586-.587-1.413q0-.706.428-1.235q.428-.529 1.072-.7V7.71q-.644-.172-1.072-.703q-.428-.532-.428-1.238q0-.827.587-1.413q.586-.587 1.413-.587q.706 0 1.238.428q.531.428.703 1.072h4.677l-1.99-1.97q-.166-.147-.166-.345t.165-.364q.166-.165.357-.165t.357.165l2.613 2.614q.242.242.242.565q0 .323-.242.566l-2.62 2.619q-.145.146-.343.156q-.198.01-.364-.156q-.165-.166-.165-.357q0-.191.165-.357l1.99-1.97H7.71q-.148.534-.527.913q-.38.379-.914.527v8.58q.644.172 1.072.703q.428.532.428 1.238q0 .827-.586 1.413q-.587.587-1.414.587M18.231 3.769q.827 0 1.413.587q.587.586.587 1.413t-.587 1.414q-.586.586-1.413.586t-1.414-.586q-.586-.587-.586-1.414t.586-1.413q.587-.587 1.414-.587"/></svg>