<svg xmlns="http://www.w3.org/2000/svg" width="1em" height="1em" viewBox="0 0 24 24"><path fill="currentColor" d="m10.75 21.77l-.688-.714l2.325-2.325H7.71q-.172.644-.703 1.072q-.532.428-1.238.428q-.827 0-1.413-.587q-.587-.586-.587-1.413q0-.706.428-1.238q.428-.531 1.072-.703V7.71q-.644-.172-1.072-.703q-.428-.532-.428-1.238q0-.827.587-1.413q.586-.587 1.413-.587q.706 0 1.238.428q.531.428.703 1.072h4.677l-2.345-2.325l.708-.713l3.538 3.538l-3.538 3.539l-.708-.714l2.345-2.325H7.71q-.148.535-.527.914q-.38.379-.914.527v8.58q.535.148.914.527q.379.38.527.914h4.657l-2.305-2.325l.688-.714l3.538 3.539zm7.48-1.54q-.826 0-1.413-.586q-.586-.586-.586-1.413q0-.712.428-1.244q.428-.531 1.072-.697V7.71q-.644-.166-1.072-.697q-.428-.532-.428-1.244q0-.827.586-1.413q.587-.587 1.414-.587t1.413.587q.587.586.587 1.413q0 .712-.428 1.244q-.428.531-1.072.697v8.58q.644.172 1.072.703q.428.532.428 1.238q0 .827-.587 1.413q-.586.587-1.413.587"/></svg>