<svg xmlns="http://www.w3.org/2000/svg" width="1em" height="1em" viewBox="0 0 24 24"><path fill="currentColor" d="M12.387 18.73H7.71q-.172.645-.703 1.073q-.532.428-1.238.428q-.833 0-1.416-.584q-.584-.583-.584-1.416q0-.706.428-1.238q.428-.531 1.072-.703V7.71q-.644-.172-1.072-.703q-.428-.532-.428-1.238q0-.833.584-1.416q.583-.584 1.416-.584q.706 0 1.238.428q.531.428.703 1.072h4.677l-1.99-1.97q-.16-.136-.16-.34q0-.203.155-.369q.17-.165.36-.165t.358.165l2.613 2.614q.242.242.242.565q0 .323-.242.566l-2.62 2.619q-.074.073-.162.11q-.087.036-.178.033q-.092-.003-.19-.04q-.098-.036-.177-.109q-.16-.165-.162-.354q-.003-.188.162-.354l1.99-1.97H7.71q-.148.534-.527.913q-.38.379-.914.527v8.58q.535.148.914.527q.379.38.527.914h4.657l-1.97-1.99q-.141-.136-.141-.34t.14-.35q.146-.164.357-.155q.21.01.357.156l2.613 2.613q.242.243.242.566q0 .323-.242.565l-2.62 2.62q-.074.072-.162.109q-.087.037-.188.034q-.101-.003-.194-.04q-.093-.036-.167-.11q-.136-.146-.13-.353q.007-.208.153-.354zm5.848 1.5q-.831 0-1.418-.583q-.586-.583-.586-1.416q0-.703.428-1.24q.428-.535 1.072-.7V7.71q-.644-.166-1.072-.702q-.428-.536-.428-1.239q0-.833.582-1.416q.582-.584 1.413-.584t1.418.584q.587.583.587 1.416q0 .703-.428 1.24q-.428.535-1.072.7v8.581q.644.172 1.072.703q.428.532.428 1.238q0 .833-.582 1.416q-.582.584-1.414.584m-12.466-1q.425 0 .713-.288t.287-.712q0-.425-.287-.713t-.713-.287q-.425 0-.712.287t-.288.713q0 .425.288.712t.712.288m12.462 0q.425 0 .712-.288t.288-.712q0-.425-.288-.713t-.712-.287q-.425 0-.713.287t-.287.713q0 .425.287.712t.713.288M5.769 6.769q.425 0 .713-.287t.287-.713q0-.425-.287-.712t-.713-.288q-.425 0-.712.288t-.288.712q0 .425.288.713t.712.287m12.462 0q.425 0 .712-.287t.288-.713q0-.425-.288-.712t-.712-.288q-.425 0-.713.288t-.287.712q0 .425.287.713t.713.287M5.769 19.231q-.425 0-.712-.288t-.288-.712q0-.425.288-.713t.712-.287q.425 0 .713.287t.287.713q0 .425-.287.712t-.713.288m12.462 0q-.425 0-.713-.288t-.287-.712q0-.425.287-.713t.713-.287q.425 0 .712.287t.288.713q0 .425-.288.712t-.712.288M5.769 6.769q-.425 0-.712-.287t-.288-.713q0-.425.288-.712t.712-.288q.425 0 .713.288t.287.712q0 .425-.287.713t-.713.287m12.462 0q-.425 0-.713-.287t-.287-.713q0-.425.287-.712t.713-.288q.425 0 .712.288t.288.712q0 .425-.288.713t-.712.287"/></svg>