<svg xmlns="http://www.w3.org/2000/svg" width="1em" height="1em" viewBox="0 0 24 24"><path fill="currentColor" d="M14.692 18.615H6.038q-.44 0-.739-.299T5 17.576v-.607q0-.619.36-1.158q.361-.54.97-.838q1.416-.679 2.833-1.018q1.418-.34 2.837-.34q.673 0 1.346.081t1.346.242v1.006q-.673-.177-1.346-.253q-.673-.076-1.346-.076q-1.335 0-2.646.319q-1.312.318-2.546.916q-.38.202-.594.494Q6 16.637 6 16.97v.646h8.692zm-8.692-1h8.692zm6-6.23q-1.237 0-2.119-.882T9 8.385q0-1.238.881-2.12q.881-.88 2.119-.88t2.119.88q.881.882.881 2.12q0 1.237-.881 2.118T12 11.385m0-1q.825 0 1.413-.588T14 8.385q0-.825-.587-1.413T12 6.385q-.825 0-1.412.587T10 8.385q0 .825.588 1.412t1.412.588m6.5 7.923h-.615q-.344 0-.576-.23q-.232-.231-.232-.572V14.3q0-.34.232-.57q.232-.23.576-.23h2.313q.341 0 .522.292q.18.293.018.59l-1.373 2.733h.777q.348 0 .522.298q.174.299.013.597l-1.798 3.377q-.08.136-.23.105q-.149-.03-.149-.192z"/></svg>