<svg xmlns="http://www.w3.org/2000/svg" width="1em" height="1em" viewBox="0 0 24 24"><path fill="currentColor" d="m19.738 14.988l-.742-.742q1.042-1.025 1.639-2.375q.596-1.35.596-2.87q0-1.518-.596-2.864q-.597-1.347-1.639-2.372l.742-.753q1.171 1.143 1.86 2.697q.69 1.554.69 3.294t-.69 3.287q-.69 1.547-1.86 2.698m-3.315-3.315l-.754-.754q.393-.386.62-.876q.226-.49.226-1.043q0-.592-.227-1.062t-.619-.857l.754-.754q.53.513.846 1.187q.316.674.316 1.486q0 .773-.316 1.466q-.315.694-.846 1.207M8.712 12q-1.238 0-2.12-.881q-.88-.881-.88-2.119t.88-2.119Q7.475 6 8.713 6q1.237 0 2.118.881T11.712 9q0 1.238-.882 2.119T8.712 12m-7 7.23v-1.645q0-.69.348-1.195q.348-.503.982-.802q1.218-.592 2.702-.975q1.485-.382 2.968-.382q1.482 0 2.967.382q1.484.383 2.702.975q.634.299.982.802q.349.504.349 1.195v1.646zm1-1h12v-.645q0-.41-.234-.673q-.234-.264-.574-.447q-.939-.488-2.351-.861q-1.413-.373-2.841-.373q-1.43 0-2.842.373q-1.412.373-2.35.861q-.341.183-.575.447q-.233.263-.233.673zm6-7.23q.825 0 1.412-.587T10.712 9q0-.825-.588-1.412T8.712 7q-.825 0-1.413.588T6.712 9q0 .825.587 1.413T8.712 11m0 7.23"/></svg>