<svg xmlns="http://www.w3.org/2000/svg" width="1em" height="1em" viewBox="0 0 24 24"><path fill="currentColor" d="m10.052 9.023l1.47-2.421l-1.264-2.085q-.243-.423-.728-.423q-.486 0-.728.423L7.146 7.281q-.161.292-.083.618q.077.326.37.488l1.513.91q.292.16.609.09q.316-.072.497-.364m7.765 6.439l-1.45-2.422q-.186-.292-.103-.618q.084-.326.376-.487l1.539-.885q.292-.162.615-.09q.323.07.485.363l.946 1.575q.217.367.252.815q.035.449-.177.822q-.212.442-.632.684q-.42.243-.899.243zm-3.129 5.226l-2.123-2.123q-.242-.242-.242-.565t.242-.565l2.123-2.123q.193-.193.445-.097q.252.097.252.37v.723h4.019l-1.22 2.457q-.236.423-.644.675q-.407.252-.886.252h-1.27v.723q0 .273-.251.37t-.445-.097m-7.498-.996q-.423 0-.768-.214q-.345-.215-.507-.582q-.161-.342-.158-.712q.003-.37.19-.688l.715-1.188H9.5q.348 0 .578.23q.23.23.23.577v1.77q0 .348-.23.577q-.23.23-.578.23zM5.1 17.285l-1.375-2.75q-.206-.393-.184-.828q.022-.436.259-.809l.323-.56l-.617-.361q-.218-.137-.177-.416q.04-.28.308-.336l2.901-.729q.324-.08.61.093q.285.174.365.498l.73 2.907q.055.268-.162.43q-.218.16-.435.024l-.617-.386zM15.74 9.85l-2.902-.729q-.267-.056-.295-.335q-.028-.28.19-.417l.617-.361l-2.644-4.393h2.986q.448 0 .834.224q.386.224.622.598l1.108 1.848l.573-.362q.217-.136.444.015q.227.152.171.42l-.729 2.902q-.08.323-.366.497t-.609.093"/></svg>