<svg xmlns="http://www.w3.org/2000/svg" width="1em" height="1em" viewBox="0 0 24 24"><path fill="currentColor" d="m9.623 9.7l1.898-3.098l-1.263-2.085q-.243-.423-.728-.423q-.486 0-.738.425L6.737 7.977zm8.192 5.762l-1.877-3.124l2.937-1.692l1.35 2.252q.217.367.252.815q.035.449-.177.822q-.212.442-.632.684q-.42.243-.905.243zm-2.43 5.923L12 18l3.385-3.385v1.693h4.019l-1.227 2.454q-.233.423-.635.676q-.402.254-.888.254h-1.27zM7.19 19.692q-.424 0-.769-.214q-.345-.215-.507-.58q-.161-.344-.158-.714q.003-.37.193-.689l.72-1.187h3.638v3.384zM5.1 17.285l-1.375-2.75q-.206-.393-.184-.828q.022-.436.25-.809l.332-.56l-1.43-.87l4.628-1.164l1.164 4.654l-1.456-.896zm11.423-7.243L11.89 8.88l1.46-.867l-2.644-4.398h2.982q.445 0 .836.221q.391.222.624.6l1.108 1.849l1.43-.897z"/></svg>