<svg xmlns="http://www.w3.org/2000/svg" width="1em" height="1em" viewBox="0 0 24 24"><path fill="currentColor" d="M3.5 21.5v-.133q0-.465.248-.802q.248-.336.67-.528q.592-.275 1.24-.406Q6.309 19.5 7 19.5q.692 0 1.341.13q.65.132 1.242.407q.42.192.669.528q.248.337.248.802v.133zm10 0v-.133q0-.465.248-.802q.248-.336.67-.528q.592-.275 1.24-.406q.65-.131 1.342-.131q.692 0 1.341.13q.65.132 1.242.407q.42.192.669.528q.248.337.248.802v.133zm-6.5-4q-.633 0-1.066-.434Q5.5 16.633 5.5 16t.434-1.066Q6.367 14.5 7 14.5t1.066.434Q8.5 15.367 8.5 16t-.434 1.066Q7.633 17.5 7 17.5m10 0q-.633 0-1.066-.434Q15.5 16.633 15.5 16t.434-1.066Q16.367 14.5 17 14.5t1.066.434q.434.433.434 1.066t-.434 1.066q-.433.434-1.066.434m-5-1.942L9.442 13l.608-.608l1.508 1.502v-2.586h.884v2.586l1.508-1.502l.608.608zM2.5 9.5v-.133q0-.465.248-.802q.248-.336.67-.528q.592-.275 1.24-.406Q5.309 7.5 6 7.5q.558 0 1.084.085q.526.084.976.248q-.252.31-.406.686q-.154.377-.154.848V9.5zm6 0v-.133q0-.465.248-.802q.248-.336.67-.528q.592-.275 1.24-.406Q11.309 7.5 12 7.5q.692 0 1.341.13q.65.132 1.242.407q.42.192.669.528q.248.337.248.802V9.5zm8 0v-.133q0-.47-.144-.848q-.144-.377-.396-.686q.45-.164.966-.248Q17.442 7.5 18 7.5q.692 0 1.341.13q.65.132 1.242.407q.42.192.669.528q.248.337.248.802V9.5zM6 5.5q-.633 0-1.066-.434Q4.5 4.633 4.5 4t.434-1.066Q5.367 2.5 6 2.5t1.066.434Q7.5 3.367 7.5 4t-.434 1.066Q6.633 5.5 6 5.5m6 0q-.633 0-1.066-.434Q10.5 4.633 10.5 4t.434-1.066Q11.367 2.5 12 2.5t1.066.434Q13.5 3.367 13.5 4t-.434 1.066Q12.633 5.5 12 5.5m6 0q-.633 0-1.066-.434Q16.5 4.633 16.5 4t.434-1.066Q17.367 2.5 18 2.5t1.066.434Q19.5 3.367 19.5 4t-.434 1.066Q18.633 5.5 18 5.5"/></svg>