<svg xmlns="http://www.w3.org/2000/svg" width="1em" height="1em" viewBox="0 0 24 24"><path fill="currentColor" d="m11.98 20.527l-7.184-7.229q-.408-.408-.724-.859q-.316-.45-.535-.939h8.357q.618 0 1.05.441q.431.442.431 1.059t-.441 1.059q-.442.441-1.059.441q-.37 0-.692-.168t-.533-.48l-1.002.275q.333.629.921 1q.589.373 1.306.373q1.038 0 1.77-.73q.73-.732.73-1.77q0-.448-.146-.82q-.146-.372-.414-.68h2.06q1.038 0 1.77-.73q.73-.732.73-1.77t-.73-1.77q-.732-.73-1.77-.73q-.717 0-1.306.372q-.588.372-.92 1.001l1.001.275q.21-.311.533-.48t.692-.168q.617 0 1.059.441q.441.442.441 1.059t-.441 1.059q-.442.441-1.059.441H3.204q-.102-.354-.153-.7Q3 9.457 3 9.084Q3 6.93 4.348 5.427t3.31-1.504q1.027 0 1.974.417q.947.418 1.695 1.21l.673.712l.635-.674q.761-.811 1.718-1.238q.957-.427 1.964-.427q1.962 0 3.322 1.504Q21 6.93 21 9.057q0 1.168-.463 2.264q-.464 1.096-1.333 1.971z"/></svg>