<svg xmlns="http://www.w3.org/2000/svg" width="1em" height="1em" viewBox="0 0 24 24"><path fill="currentColor" d="m8.67 20.615l-1.316-2.2l-2.48-.523q-.299-.055-.476-.32t-.146-.562l.236-2.556l-1.682-1.92q-.212-.217-.212-.534q0-.317.212-.535l1.682-1.919l-.236-2.556q-.03-.298.146-.562t.475-.32l2.48-.523l1.316-2.2q.162-.268.435-.37q.273-.103.565.027L12 4.027l2.33-.985q.293-.13.566-.028q.273.103.435.37l1.315 2.2l2.48.524q.299.055.476.32t.146.562l-.236 2.556l1.682 1.92q.212.217.212.534q0 .317-.212.535l-1.682 1.919l.236 2.556q.03.298-.146.562t-.475.32l-2.48.523l-1.316 2.2q-.162.268-.435.37q-.273.103-.565-.027L12 19.973l-2.33.985q-.293.13-.566.028q-.273-.103-.435-.37M12 16.461q.252 0 .434-.182q.181-.182.181-.434t-.181-.434q-.182-.181-.434-.181t-.434.181q-.181.182-.181.434t.181.434q.182.182.434.182m0-3.308q.213 0 .357-.143q.143-.144.143-.357v-5q0-.214-.143-.357q-.144-.143-.357-.143t-.357.143q-.143.143-.143.357v5q0 .213.143.357q.144.143.357.143"/></svg>