<svg xmlns="http://www.w3.org/2000/svg" width="1em" height="1em" viewBox="0 0 24 24"><path fill="currentColor" d="M6 22V2h12v20zm1-2.5V21h10v-1.5zm0-15h10V3H7zM12 15q-1.35 0-2.625.388T7 16.5v2h10v-2q-1.1-.725-2.375-1.112T12 15m0-1q1.35 0 2.613.343t2.387.972V5.5H7v9.815q1.125-.63 2.388-.972Q10.65 14 12 14m-.002-1.5q1.04 0 1.771-.728q.731-.729.731-1.77q0-1.04-.728-1.771q-.729-.731-1.77-.731t-1.771.729Q9.5 8.957 9.5 9.998q0 1.04.729 1.771q.728.731 1.769.731m.002-1q-.617 0-1.059-.441Q10.5 10.617 10.5 10t.441-1.059Q11.383 8.5 12 8.5t1.059.441q.441.442.441 1.059t-.441 1.059q-.442.441-1.059.441m0 7h5H7zm0 1"/></svg>