<svg xmlns="http://www.w3.org/2000/svg" width="1em" height="1em" viewBox="0 0 24 24"><path fill="currentColor" d="M6.692 9h1.5V7.5q0-.617-.441-1.059Q7.31 6 6.692 6q-.617 0-1.058.441q-.442.442-.442 1.059t.442 1.059Q6.075 9 6.692 9m4.116 0q.617 0 1.058-.441q.442-.442.442-1.059t-.442-1.059Q11.425 6 10.808 6q-.618 0-1.059.441q-.441.442-.441 1.059V9zm-1.61 2.538h7.379q1.01 0 1.716.707q.707.707.707 1.717v3.537q0 1.459-1.034 2.48T15.481 21h-4.314q-.815 0-1.553-.338q-.737-.339-1.22-.985l-4.506-5.952q-.103-.148-.098-.316q.006-.169.13-.292q.25-.275.593-.336q.345-.062.656.12l3.023 1.491V10h-1.5q-1.041 0-1.77-.728q-.73-.729-.73-1.77t.73-1.771Q5.65 5 6.691 5q.437 0 .815.146q.378.146.685.414V3.5q0-.213.144-.356T8.693 3q.213 0 .359.144t.146.356v2.112q.33-.297.743-.454q.412-.158.867-.158q1.041 0 1.77.729t.73 1.769q0 1.04-.73 1.771t-1.77.731h-1.61z"/></svg>