<svg xmlns="http://www.w3.org/2000/svg" width="1em" height="1em" viewBox="0 0 24 24"><path fill="currentColor" d="M9 11.5h6q.213 0 .356-.144q.144-.144.144-.357t-.144-.356Q15.213 10.5 15 10.5H9q-.213 0-.356.144q-.144.144-.144.357t.144.356q.143.143.356.143M4.615 18q-.69 0-1.152-.462Q3 17.075 3 16.385V5.615q0-.69.463-1.152Q3.925 4 4.615 4h14.77q.69 0 1.152.463q.463.462.463 1.152v10.77q0 .69-.462 1.152q-.463.463-1.153.463H15v1.192q0 .344-.232.576q-.232.232-.576.232H9.808q-.344 0-.576-.232Q9 19.536 9 19.192V18z"/></svg>