<svg xmlns="http://www.w3.org/2000/svg" width="1em" height="1em" viewBox="0 0 24 24"><path fill="currentColor" d="M17.5 12.462V5q0-.213.144-.356T18 4.5q.212 0 .356.144q.143.144.143.356v7.462q0 .212-.144.356t-.357.144q-.212 0-.356-.144q-.143-.144-.143-.356m-12 6.769V5q0-.213.144-.356Q5.788 4.5 6 4.5t.356.144q.143.144.143.356v14.23q0 .213-.144.357t-.357.144q-.212 0-.356-.144q-.143-.144-.143-.356m6-12V5q0-.213.144-.356q.144-.144.357-.144t.356.144q.143.144.143.356v2.23q0 .213-.144.357T12 7.731t-.356-.144q-.143-.144-.143-.356m0 6V11q0-.213.144-.356q.144-.144.357-.144t.356.144q.143.144.143.356v2.23q0 .213-.144.357t-.357.144t-.356-.144q-.143-.144-.143-.356m0 6V17q0-.213.144-.356q.144-.144.357-.144t.356.144q.143.144.143.356v2.23q0 .213-.144.357t-.357.144t-.356-.144q-.143-.144-.143-.356m6.508.182l-1.771 1.772q-.147.146-.354.153q-.208.006-.354-.16q-.14-.145-.134-.353q.007-.208.153-.354L17.3 18.72l-1.765-1.765q-.147-.151-.147-.36t.147-.354q.165-.165.356-.165t.357.165l1.746 1.772l1.771-1.772q.147-.146.345-.152q.198-.007.367.158q.156.166.159.354q.002.188-.163.354l-1.752 1.752l1.752 1.777q.14.14.15.338q.01.198-.15.368q-.16.155-.354.155q-.194 0-.354-.16z"/></svg>