<svg xmlns="http://www.w3.org/2000/svg" width="1em" height="1em" viewBox="0 0 24 24"><path fill="currentColor" d="M4.615 19q-.69 0-1.152-.462Q3 18.075 3 17.385V6.615q0-.69.463-1.152Q3.925 5 4.615 5h14.77q.69 0 1.152.463q.463.462.463 1.152v5h-1V8H4v9.385q0 .23.192.423q.193.192.423.192h6.539v1zm13.616 3.385q-1.594 0-2.832-.965q-1.237-.964-1.664-2.42h.934q.402 1.12 1.353 1.81t2.209.69q1.584 0 2.696-1.112q1.111-1.111 1.111-2.696q0-1.584-1.111-2.696q-1.112-1.111-2.696-1.111q-.918 0-1.754.445q-.837.445-1.446 1.17h1.892v.885h-3.385V13h.885v1.848q.714-.823 1.71-1.335Q17.129 13 18.23 13q1.94 0 3.316 1.376t1.376 3.316q0 1.94-1.376 3.317q-1.376 1.376-3.316 1.376"/></svg>