<svg xmlns="http://www.w3.org/2000/svg" width="1em" height="1em" viewBox="0 0 24 24"><path fill="currentColor" d="M3 22q-.413 0-.706-.294T2 21V3q0-.413.294-.706T3 2h18q.413 0 .706.294T22 3v18q0 .413-.294.706T21 22zm2.927-3.808h10.765q.667 0 1.141-.474q.475-.475.475-1.141v-2.885q0-.212-.144-.356t-.357-.144q-.213 0-.356.144t-.143.356v2.885q0 .27-.173.442t-.443.173H5.927l1.735-1.734q.165-.166.162-.354q-.003-.189-.158-.354q-.17-.165-.37-.159q-.202.007-.348.153l-2.383 2.383q-.13.13-.183.27t-.053.298q0 .159.053.295q.053.137.183.268l2.383 2.382q.165.166.357.163q.191-.003.36-.168q.156-.166.15-.364q-.007-.198-.153-.344zM18.073 6.808l-1.735 1.734q-.165.166-.162.354q.003.189.158.354q.17.165.37.159q.202-.007.348-.153l2.383-2.383q.13-.13.183-.27t.053-.298q0-.159-.053-.295q-.053-.137-.183-.268L17.052 3.36q-.165-.166-.357-.163q-.191.003-.36.168q-.156.166-.15.364q.007.198.153.344l1.735 1.735H7.308q-.667 0-1.141.474q-.475.475-.475 1.141v2.885q0 .212.144.356t.357.144q.213 0 .356-.144t.143-.356V7.423q0-.27.173-.442t.443-.173zm-6.265 3.384v4.058q0 .192.125.317t.316.125t.317-.125q.126-.125.126-.317v-4.135q0-.343-.232-.575q-.232-.232-.575-.232h-.827q-.192 0-.317.125q-.126.125-.126.316t.126.317q.125.126.317.126z"/></svg>