<svg xmlns="http://www.w3.org/2000/svg" width="1em" height="1em" viewBox="0 0 24 24"><path fill="currentColor" d="M13 15.692h-2.75q-.192 0-.317-.125t-.125-.316t.125-.317q.125-.126.317-.126h2.558v-1.423H10.25q-.192 0-.317-.126q-.125-.125-.125-.317V10.75q0-.192.125-.317t.317-.125h3q.192 0 .317.125t.125.316t-.125.317q-.125.126-.317.126h-2.558v1.423h2.558q.192 0 .317.126q.125.125.125.317V15q0 .294-.199.493q-.199.2-.493.2M12.001 21q-1.664 0-3.12-.626q-1.454-.626-2.542-1.713q-1.087-1.088-1.713-2.542Q4 14.665 4 13q0-.213.144-.356q.144-.144.357-.144q.212 0 .356.144Q5 12.788 5 13q0 2.925 2.038 4.963T12 20q2.925 0 4.963-2.037T19 13q0-2.925-2.037-4.962T12 6h-.38l1.272 1.273q.146.146.153.344q.007.198-.149.364q-.17.165-.36.168q-.192.003-.357-.162l-1.921-1.94q-.243-.243-.243-.566q0-.323.243-.566l1.96-1.94q.145-.146.346-.153q.201-.007.371.159q.155.165.158.354q.003.188-.162.353L11.619 5H12q1.665 0 3.119.626q1.454.626 2.542 1.713q1.087 1.088 1.713 2.542q.626 1.453.626 3.118q0 1.664-.626 3.12q-.626 1.454-1.713 2.542q-1.088 1.087-2.542 1.713q-1.453.626-3.118.626"/></svg>