<svg xmlns="http://www.w3.org/2000/svg" width="1em" height="1em" viewBox="0 0 24 24"><path fill="currentColor" d="M12 21q-1.663 0-3.118-.626q-1.455-.626-2.543-1.713q-1.087-1.088-1.713-2.543Q4 14.663 4 13q0-.213.143-.357q.144-.143.357-.143t.357.143Q5 12.787 5 13q0 2.925 2.038 4.963T12 20q2.925 0 4.963-2.037T19 13q0-2.925-2.037-4.962T12 6h-.38l1.272 1.273q.146.146.153.344q.007.198-.153.364q-.165.165-.356.168q-.192.003-.357-.162l-1.921-1.94q-.243-.243-.243-.566q0-.323.243-.566l1.96-1.94q.145-.146.346-.153q.201-.007.367.159q.16.165.162.354q.003.188-.162.353L11.619 5H12q1.663 0 3.118.626q1.455.626 2.543 1.713q1.087 1.088 1.713 2.543Q20 11.337 20 13q0 1.663-.626 3.118q-.626 1.455-1.713 2.543q-1.088 1.087-2.543 1.713Q13.663 21 12 21"/></svg>