<svg xmlns="http://www.w3.org/2000/svg" width="1em" height="1em" viewBox="0 0 24 24"><path fill="currentColor" d="M12 21q-1.663 0-3.118-.626q-1.455-.626-2.543-1.713q-1.087-1.088-1.713-2.543Q4 14.663 4 13h1q0 2.925 2.038 4.963T12 20q2.925 0 4.963-2.037T19 13q0-2.925-2.037-4.962T12 6h-.38l1.626 1.627l-.708.72L9.692 5.48l2.885-2.866l.708.72L11.619 5H12q1.663 0 3.118.626q1.455.626 2.543 1.713q1.087 1.088 1.713 2.543Q20 11.337 20 13q0 1.663-.626 3.118q-.626 1.455-1.713 2.543q-1.088 1.087-2.543 1.713Q13.663 21 12 21m-2.192-5.308v-.884h3v-1.423h-3v-3.077h3.884v.884h-3v1.423h3v3.077z"/></svg>