<svg xmlns="http://www.w3.org/2000/svg" width="1em" height="1em" viewBox="0 0 24 24"><path fill="currentColor" d="m19.108 16.296l-.758-.746l.65-.65V9.1L14.9 5H9.1l-.65.65l-.708-.72l.931-.93h6.663L20 8.678v6.637zM12.5 9.7V7.385h-1V8.7zm7.923 12.138l-3.473-3.473L15.327 20H8.664L4 15.315V8.673L5.623 7.05L2.162 3.577l.707-.708l18.262 18.262zM9.1 19h5.8l1.342-1.342l-9.9-9.9L5 9.1v5.8zm2.9-2.577q-.262 0-.438-.177q-.177-.177-.177-.438q0-.262.177-.439q.176-.177.438-.177t.438.177q.177.177.177.439q0 .261-.177.438q-.176.177-.438.177m-.708-3.715"/></svg>