<svg xmlns="http://www.w3.org/2000/svg" width="1em" height="1em" viewBox="0 0 24 24"><path fill="currentColor" d="M11.5 17.5h1v-1H14q.213 0 .357-.143q.143-.144.143-.357v-3q0-.213-.143-.357q-.144-.143-.357-.143h-3.5v-2h4v-1h-2v-1h-1v1H10q-.213 0-.357.143Q9.5 9.787 9.5 10v3q0 .213.143.357q.144.143.357.143h3.5v2h-4v1h2zM6.615 21q-.69 0-1.152-.462Q5 20.075 5 19.385V4.615q0-.69.463-1.152Q5.925 3 6.615 3h6.962L19 8.423v10.962q0 .69-.462 1.152q-.463.463-1.153.463zm0-1h10.77q.23 0 .423-.192q.192-.193.192-.423V8.85L13.15 4H6.615q-.23 0-.423.192Q6 4.385 6 4.615v14.77q0 .23.192.423q.193.192.423.192M6 20V4z"/></svg>