<svg xmlns="http://www.w3.org/2000/svg" width="1em" height="1em" viewBox="0 0 24 24"><path fill="currentColor" d="M11.846 17.25v.635q0 .146.11.255q.11.11.256.11h.23q.162 0 .283-.121t.121-.283v-.596h1.5q.213 0 .356-.144t.144-.356v-3q0-.213-.144-.356t-.356-.144h-3.5v-2h3.5q.213 0 .356-.144q.144-.144.144-.357q0-.212-.144-.356q-.143-.143-.356-.143h-1.5v-.635q0-.146-.11-.255q-.11-.11-.255-.11h-.231q-.162 0-.283.121t-.12.283v.596h-1.5q-.213 0-.357.144t-.144.356v3q0 .213.144.356t.356.144h3.5v2h-3.5q-.212 0-.356.144t-.144.357q0 .212.144.356q.144.143.356.143zM6.616 21q-.691 0-1.153-.462Q5 20.075 5 19.385V4.615q0-.69.463-1.152Q5.925 3 6.615 3h8.116L19 7.27v12.115q0 .69-.462 1.152q-.463.463-1.153.463zm0-1h10.769q.23 0 .423-.192q.192-.193.192-.423V7.769h-2.962q-.343 0-.575-.232q-.232-.232-.232-.575V4H6.615q-.23 0-.423.192Q6 4.385 6 4.615v14.77q0 .23.192.423q.193.192.423.192M6 4v3.77zv16z"/></svg>