<svg xmlns="http://www.w3.org/2000/svg" width="1em" height="1em" viewBox="0 0 24 24"><path fill="currentColor" d="M9 20v-2H4.615q-.666 0-1.14-.475Q3 17.051 3 16.385V5.615q0-.666.475-1.14Q3.949 4 4.615 4h14.77q.666 0 1.14.475q.475.474.475 1.14V8.5h-1V5.615q0-.269-.173-.442T19.385 5H4.615q-.269 0-.442.173T4 5.615v10.77q0 .269.173.442t.442.173h14.77q.269 0 .442-.173t.173-.442v-4.27q0-.269-.173-.442t-.442-.173h-7.777l2.35 2.35l-.708.708L9.692 11l3.558-3.558l.708.708l-2.35 2.35h7.777q.69 0 1.152.463q.463.462.463 1.152v4.27q0 .666-.475 1.14q-.474.475-1.14.475H15v2zm3.5-9"/></svg>