<svg xmlns="http://www.w3.org/2000/svg" width="1em" height="1em" viewBox="0 0 24 24"><path fill="currentColor" d="M9 19.192V18H4.615q-.666 0-1.14-.475Q3 17.051 3 16.385V5.615q0-.666.475-1.14Q3.949 4 4.615 4h14.77q.666 0 1.14.475q.475.474.475 1.14V10.5h-9.392l1.996-1.996q.14-.14.15-.344q.01-.204-.15-.364t-.354-.16q-.194 0-.354.16l-2.638 2.639q-.243.242-.243.565q0 .323.243.565l2.638 2.639q.14.14.344.15q.204.01.364-.15t.16-.354q0-.194-.16-.354L11.608 11.5H21v4.885q0 .666-.475 1.14q-.474.475-1.14.475H15v1.192q0 .344-.232.576q-.232.232-.576.232H9.808q-.344 0-.576-.232Q9 19.536 9 19.192"/></svg>