<svg xmlns="http://www.w3.org/2000/svg" width="1em" height="1em" viewBox="0 0 24 24"><path fill="currentColor" d="m15.042 17.6l1.458-1.444V15v1.156zm3.896 0L17.5 16.137V15v1.137zM3 9.115V6.613q0-.688.463-1.15T4.615 5h14.77q.69 0 1.152.463q.463.462.463 1.152v5.5h-1v-5.5q0-.23-.192-.423Q19.615 6 19.385 6H4.615q-.23 0-.423.192Q4 6.385 4 6.615v2.5zM4.615 19q-.69 0-1.152-.462Q3 18.075 3 17.387v-2.502h1v2.5q0 .23.192.423q.193.192.423.192h5.5v1zM7 16.5q-.16 0-.275-.06t-.183-.202L4.682 12.5H3v-1h2q.134 0 .256.07t.182.21L7 14.886l3.542-7.104q.064-.116.191-.173q.127-.058.267-.058t.26.058q.119.057.178.173l2.206 4.417q-.256.05-.49.13q-.234.08-.437.23l-1.736-3.423l-3.543 7.103q-.067.14-.187.201T7 16.5m5.923 5.5q-.385 0-.654-.27T12 21.078V17.92l1.248-3.236q.117-.303.382-.494q.266-.191.59-.191h2.28v-2.5h1V14h2.242q.32 0 .581.19q.262.189.39.475L22 17.921v3.156q0 .385-.27.654q-.268.269-.653.269h-2.23q-.385 0-.655-.27q-.269-.268-.269-.653v-1.462h1V21H21v-2.902L19.78 15H17.5v1.137l1.438 1.463l-.707.708l-1.24-1.25l-1.241 1.25l-.708-.708l1.458-1.444V15h-2.32L13 18.098V21h2.077v-1.385h1V21q0 .417-.292.708q-.291.292-.708.292zM17 18"/></svg>