<svg xmlns="http://www.w3.org/2000/svg" width="1em" height="1em" viewBox="0 0 24 24"><path fill="currentColor" d="m15.042 17.6l1.458-1.444V15v1.156zm3.896 0L17.5 16.137V15v1.137zM3 9.115V5h18v7.115h-1V6H4v3.115zM3 19v-4.115h1V18h6.115v1zm9.923 3q-.385 0-.654-.27T12 21.078V17.92l1.248-3.236q.117-.303.382-.494q.266-.191.59-.191h2.28v-2.5h1V14h2.242q.32 0 .581.19q.262.189.39.475L22 17.921v3.156q0 .385-.27.654q-.268.269-.653.269h-2.23q-.385 0-.655-.27q-.269-.268-.269-.653v-1.462h1V21H21v-2.902L19.78 15H17.5v1.137l1.438 1.463l-.707.708l-1.24-1.25l-1.241 1.25l-.708-.708l1.458-1.444V15h-2.32L13 18.098V21h2.077v-1.385h1V21q0 .417-.292.708q-.291.292-.708.292zM3 12.5v-1h2.292L7 14.89l3.83-7.717h.295l2.52 5.025q-.257.05-.49.13q-.235.08-.438.23l-1.736-3.423l-3.856 7.711h-.288L4.683 12.5z"/></svg>