<svg xmlns="http://www.w3.org/2000/svg" width="1em" height="1em" viewBox="0 0 24 24"><path fill="currentColor" d="M7.5 9.23V3q0-.213.144-.356Q7.788 2.5 8 2.5t.356.144Q8.5 2.787 8.5 3v6.23h1.77V3q0-.213.143-.356t.357-.144q.213 0 .356.144q.143.143.143.356v6.23q0 1.285-.805 2.172T8.5 12.465V21q0 .213-.144.356q-.144.144-.357.144t-.356-.144Q7.5 21.213 7.5 21v-8.535q-1.16-.177-1.964-1.063q-.805-.887-.805-2.171V3q0-.213.144-.356q.144-.144.356-.144q.213 0 .357.144q.143.143.143.356v6.23zm9.23 4.27h-1.65q-.351 0-.581-.232q-.23-.232-.23-.576V7q0-2.02.894-3.26q.893-1.24 1.768-1.24q.392 0 .596.254t.204.69V21q0 .213-.144.356q-.144.144-.357.144t-.356-.144q-.143-.144-.143-.356z"/></svg>