<svg xmlns="http://www.w3.org/2000/svg" width="1em" height="1em" viewBox="0 0 24 24"><path fill="currentColor" d="m12 12.167l1.67 1.016q.217.136.434-.022q.217-.16.161-.426l-.442-1.887l1.47-1.263q.21-.187.13-.432q-.08-.245-.354-.27l-1.936-.175l-.76-1.781q-.106-.242-.373-.242t-.373.242l-.76 1.78l-1.936.176q-.273.025-.354.27q-.08.245.13.432l1.47 1.263l-.442 1.887q-.056.267.161.426t.435.022zM6.077 17l-1.704 1.704q-.379.379-.876.174Q3 18.673 3 18.133V4.615q0-.69.463-1.152Q3.925 3 4.615 3h14.77q.69 0 1.152.463q.463.462.463 1.152v10.77q0 .69-.462 1.153q-.463.462-1.153.462zm-.427-1h13.735q.23 0 .423-.192q.192-.193.192-.423V4.615q0-.23-.192-.423Q19.615 4 19.385 4H4.615q-.23 0-.423.192Q4 4.385 4 4.615v13.03zM4 16V4z"/></svg>