<svg xmlns="http://www.w3.org/2000/svg" width="1em" height="1em" viewBox="0 0 24 24"><path fill="currentColor" d="M12 11q.825 0 1.413-.587T14 9q0-.825-.587-1.412T12 7q-.825 0-1.412.588T10 9q0 .825.588 1.413T12 11m-3.615 9v-1H11.5v-3.754q-1.321-.236-2.312-1.105t-1.365-2.153q-1.586-.186-2.705-1.3Q4 9.573 4 8V7q0-.402.299-.701Q4.599 6 5 6h2.654V4h8.692v2H19q.402 0 .701.299q.299.3.299.701v1q0 1.573-1.118 2.688q-1.119 1.114-2.705 1.3q-.373 1.285-1.364 2.153q-.992.869-2.313 1.105V19h3.115v1zm-.731-9.085V7H5v1q0 1.142.762 1.963q.761.82 1.892.952M12 14.27q1.385 0 2.346-.961q.962-.962.962-2.346V5H8.692v5.962q0 1.384.962 2.346q.961.961 2.346.961m4.346-3.354q1.13-.132 1.892-.953Q19 9.142 19 8V7h-2.654zM12 9.635"/></svg>