<svg xmlns="http://www.w3.org/2000/svg" width="1em" height="1em" viewBox="0 0 24 24"><path fill="currentColor" d="m22.342 16.61l-3.932-1.312l.303-.944l3.933 1.317zm.158-4.11h-3.798v-1H22.5zm.121-4.202l-3.92 1.342l-.31-.963l3.938-1.298zm-15.49 4.99q-.883 0-1.507-.62Q5 12.05 5 11.167q0-.441.172-.822q.172-.381.465-.669L8 7.287V2.769h1v4.52q0 .2-.088.387t-.212.337l-2.375 2.375q-.15.15-.238.35T6 11.163q0 .45.337.788t.788.337q.3 0 .485-.1q.184-.1.465-.35q.57-.45 1.1-.675q.532-.225 1.075-.225q.55 0 1.088.225t1.087.675q.3.25.475.35t.475.1q.475 0 .8-.337t.325-.788q0-.225-.088-.437t-.237-.363L11.8 7.988q-.125-.15-.213-.325t-.087-.375V2.77h1v4.493l2.388 2.388q.31.29.461.68q.151.39.151.83q0 .88-.612 1.504t-1.513.624q-.575 0-.914-.206q-.34-.207-.651-.488q-.472-.377-.848-.516q-.375-.14-.712-.14q-.34 0-.722.16q-.382.16-.813.496q-.311.281-.66.488q-.347.206-.924.206m4.369 7.943V16.77q0-.206.088-.4q.087-.194.212-.325l2.375-2.375q.15-.15.238-.35t.087-.425q0-.154-.04-.296t-.112-.273l.733-.733q.194.271.307.606q.112.335.112.696q0 .42-.161.796t-.45.668L12.5 16.746v4.485zm-3.5 0v-4.485l-2.363-2.388q-.293-.291-.465-.668Q5 13.313 5 12.894q0-.361.125-.696t.32-.586l.732.713q-.079.13-.128.266q-.049.135-.049.303q0 .225.088.425t.237.35L8.7 16.044q.125.15.213.338t.087.387v4.462zm2.25-13.243"/></svg>