<svg xmlns="http://www.w3.org/2000/svg" width="1em" height="1em" viewBox="0 0 24 24"><path fill="currentColor" d="M11.596 14.204V9.796q0-.273-.252-.379t-.444.087l-1.93 1.93q-.243.243-.243.566q0 .323.242.565l1.931 1.931q.192.192.444.087q.252-.106.252-.38M5.616 20q-.672 0-1.144-.472Q4 19.056 4 18.385V5.615q0-.67.472-1.143Q4.944 4 5.615 4h12.77q.67 0 1.143.472q.472.472.472 1.143v12.77q0 .67-.472 1.143q-.472.472-1.143.472zM16 19h3V5.615q0-.23-.192-.423Q18.615 5 18.385 5H16zm-1 0V5H5.615q-.23 0-.423.192Q5 5.385 5 5.615v12.77q0 .23.192.423q.193.192.423.192zm1 0h3z"/></svg>