<svg xmlns="http://www.w3.org/2000/svg" width="1em" height="1em" viewBox="0 0 24 24"><path fill="currentColor" d="M12.02 6.885q-.214 0-.357-.144t-.144-.356v-3q0-.214.144-.357t.356-.143q.214 0 .357.143t.143.357v3q0 .213-.143.356q-.143.144-.357.144m5.246 2.253q-.16-.165-.162-.353q-.003-.189.162-.354l2.145-2.106q.146-.146.347-.153q.2-.007.366.159q.16.165.163.354q.002.188-.163.353L17.98 9.144q-.146.146-.347.153q-.201.007-.367-.159m-10.492 0q-.146.147-.347.16q-.201.012-.366-.135L3.896 7.096q-.165-.165-.162-.373q.003-.208.162-.373q.166-.165.376-.168q.21-.003.376.162l2.125 2.087q.165.146.163.344q-.003.198-.163.363M3.343 19.15L1.83 17.688q-.32-.3-.31-.728q.01-.43.329-.748q1.95-1.99 4.662-3.101Q9.223 12 12 12q2.777 0 5.486 1.11t4.664 3.102q.32.319.329.748q.01.428-.31.728l-1.511 1.462q-.333.313-.724.358q-.392.044-.73-.2l-2.13-1.623q-.297-.227-.436-.485q-.138-.258-.138-.585v-2.792q-1.22-.435-2.277-.629Q13.165 13 12 13t-2.223.194q-1.058.194-2.277.63v2.791q0 .327-.138.585q-.139.258-.435.485l-2.13 1.623q-.34.244-.73.2q-.392-.045-.725-.358M6.5 14.1q-1.071.49-2.073 1.18T2.7 16.665q-.096.097-.096.193t.096.192l1.192 1.173q.096.096.24.125t.26-.067l1.877-1.42q.096-.076.164-.192q.067-.115.067-.211zm11 .012v2.346q0 .096.067.211q.068.116.164.193l1.877 1.419q.115.096.26.067t.24-.125l1.192-1.161q.096-.097.096-.193t-.096-.192q-.725-.708-1.727-1.394q-1.002-.687-2.073-1.171m0-.039"/></svg>