<svg xmlns="http://www.w3.org/2000/svg" width="1em" height="1em" viewBox="0 0 24 24"><path fill="currentColor" d="M5.615 19h12.77q.23 0 .423-.192q.192-.193.192-.423V9.873q-.45.294-.953.46q-.503.167-1.047.167q-1.458 0-2.479-1.021T13.5 7q0-.544.166-1.047q.167-.503.46-.953h-8.51q-.231 0-.424.192Q5 5.385 5 5.615v12.77q0 .23.192.423q.193.192.423.192m0 1q-.69 0-1.152-.462Q4 19.075 4 18.385V5.615q0-.69.463-1.152Q4.925 4 5.615 4h12.77q.69 0 1.152.463q.463.462.463 1.152v12.77q0 .69-.462 1.152q-.463.463-1.153.463zM5 5v14z"/></svg>