<svg xmlns="http://www.w3.org/2000/svg" width="1em" height="1em" viewBox="0 0 24 24"><path fill="currentColor" d="M5 20v-4.043q0-.667.475-1.139q.474-.472 1.14-.472h10.77q.666 0 1.14.475q.475.474.475 1.14V20zm4.288-7.423q-1.78 0-3.034-1.254T5 8.288q0-1.78 1.254-3.034T9.288 4h5.424q1.78 0 3.034 1.254T19 8.288q0 1.78-1.254 3.035q-1.255 1.254-3.034 1.254zM6 19h12v-3.038q0-.27-.173-.443t-.442-.173H6.615q-.269 0-.442.173T6 15.962zm3.288-7.423h5.424q1.384 0 2.336-.952T18 8.288q0-1.384-.952-2.336T14.712 5H9.288q-1.384 0-2.336.952T6 8.288q0 1.385.952 2.337q.952.952 2.336.952m0-2.558q.31 0 .52-.21t.211-.52q0-.31-.21-.52t-.52-.211q-.31 0-.52.21t-.211.52q0 .31.21.52t.52.211m5.423 0q.31 0 .52-.21t.211-.52q0-.31-.21-.52t-.52-.211q-.31 0-.52.21t-.211.52q0 .31.21.52t.52.211M12 8.29"/></svg>