<svg xmlns="http://www.w3.org/2000/svg" width="1em" height="1em" viewBox="0 0 24 24"><path fill="currentColor" d="M5 20v-4.043q0-.667.475-1.139q.474-.472 1.14-.472h10.77q.666 0 1.14.475q.475.474.475 1.14V20zm4.288-7.423q-1.78 0-3.034-1.254T5 8.288q0-1.78 1.254-3.034T9.288 4h5.424q1.78 0 3.034 1.254T19 8.288q0 1.78-1.254 3.035q-1.255 1.254-3.034 1.254zm0-3.558q.31 0 .52-.21t.211-.52q0-.31-.21-.52t-.52-.211q-.31 0-.52.21t-.211.52q0 .31.21.52t.52.211m5.423 0q.31 0 .52-.21t.211-.52q0-.31-.21-.52t-.52-.211q-.31 0-.52.21t-.211.52q0 .31.21.52t.52.211"/></svg>