<svg xmlns="http://www.w3.org/2000/svg" width="1em" height="1em" viewBox="0 0 24 24"><path fill="currentColor" d="M9 11.5q.633 0 1.066-.434q.434-.433.434-1.066t-.434-1.066Q9.633 8.5 9 8.5t-1.066.434Q7.5 9.367 7.5 10t.434 1.066Q8.367 11.5 9 11.5m6 0q.633 0 1.066-.434q.434-.433.434-1.066t-.434-1.066Q15.633 8.5 15 8.5t-1.066.434Q13.5 9.367 13.5 10t.434 1.066q.433.434 1.066.434M8.5 20v-2.885q0-.269.173-.442t.442-.173H11.5V20zm4 0v-3.5h2.385q.269 0 .442.173t.173.442V20zm-6.885 0q-.666 0-1.14-.475Q4 19.051 4 18.385V9q0-2.083 1.458-3.542Q6.917 4 9 4h6q2.083 0 3.542 1.458Q20 6.917 20 9v9.385q0 .666-.475 1.14q-.474.475-1.14.475H16.5v-2.885q0-.666-.475-1.14q-.474-.475-1.14-.475h-5.77q-.666 0-1.14.475q-.475.474-.475 1.14V20z"/></svg>