<svg xmlns="http://www.w3.org/2000/svg" width="1em" height="1em" viewBox="0 0 24 24"><path fill="currentColor" d="M4.5 15.5v-14h7.308v2.615H9.5q-.154 0-.27.116q-.115.115-.115.269t.116.27q.115.115.269.115h2.31v.62q0 .156.011.31q.012.156.056.3H9.5q-.154 0-.27.116q-.115.115-.115.269t.116.27q.115.115.269.115h2.643q.319.575.837.975t1.168.6l2.625.725q1.146.292 1.84 1.225q.695.933.695 2.119V15.5zm.502 7q-1.04 0-1.771-.728q-.731-.729-.731-1.77q0-1.04.729-1.771q.728-.731 1.769-.731q1.04 0 1.771.729q.731.728.731 1.769q0 1.04-.728 1.771q-.729.731-1.77.731m14 0q-1.04 0-1.771-.728q-.731-.729-.731-1.77q0-1.04.729-1.771q.728-.731 1.769-.731q1.04 0 1.771.729q.731.728.731 1.769q0 1.04-.728 1.771q-.729.731-1.77.731m-7 0q-1.04 0-1.771-.728q-.731-.729-.731-1.77q0-1.04.729-1.771q.728-.731 1.769-.731q1.04 0 1.771.729q.731.728.731 1.769q0 1.04-.728 1.771q-.729.731-1.77.731"/></svg>