<svg xmlns="http://www.w3.org/2000/svg" width="1em" height="1em" viewBox="0 0 24 24"><path fill="currentColor" d="M4.596 12.05q-.256 0-.405-.173q-.149-.173-.081-.423q.15-.798.448-1.498q.298-.7.719-1.327q.135-.194.372-.216q.238-.02.42.156q.13.13.14.293q.012.165-.086.305q-.385.58-.64 1.205q-.254.626-.398 1.293q-.037.172-.18.278q-.143.107-.309.107m6.354 8.335q0 .28-.183.427q-.182.146-.432.078q-.754-.175-1.464-.47t-1.342-.716q-.194-.135-.216-.363q-.02-.228.156-.41q.13-.13.294-.14q.164-.012.304.086q.58.385 1.205.63q.626.245 1.274.37q.171.036.288.19q.116.152.116.318M6.07 17.53q-.183.177-.421.156q-.237-.022-.372-.216q-.44-.652-.726-1.361q-.286-.71-.441-1.464q-.068-.25.078-.423q.147-.173.408-.173q.171 0 .312.107q.14.106.177.278q.144.667.399 1.293q.254.626.64 1.205q.097.14.076.317q-.021.177-.13.28m7.47 3.355q-.25.067-.42-.08q-.17-.145-.17-.401q0-.171.107-.312q.106-.14.278-.177q2.453-.523 4.034-2.443t1.581-4.422q0-2.925-2.037-4.962T11.95 6.05h-.777l1.746 1.746q.16.16.16.354t-.16.354q-.16.16-.354.16q-.194 0-.353-.16L9.823 6.115q-.13-.13-.184-.267q-.052-.136-.052-.298q0-.162.052-.298q.053-.137.184-.267l2.383-2.389q.165-.16.36-.16q.194 0 .353.16q.166.166.166.36q0 .194-.16.354l-1.74 1.74h.765q3.327 0 5.663 2.337q2.337 2.336 2.337 5.663q0 2.888-1.813 5.077q-1.814 2.188-4.597 2.758"/></svg>