<svg xmlns="http://www.w3.org/2000/svg" width="1em" height="1em" viewBox="0 0 24 24"><path fill="currentColor" d="M19.404 12.05q-.166 0-.309-.107q-.143-.106-.18-.278q-.144-.667-.399-1.293q-.254-.626-.64-1.205q-.097-.14-.086-.305q.012-.164.14-.293q.183-.177.421-.156q.237.022.372.216q.421.627.72 1.327q.297.7.447 1.498q.068.25-.081.423q-.15.173-.405.173m-6.354 8.335q0-.166.116-.319q.117-.153.288-.19q.648-.124 1.274-.37q.626-.244 1.205-.63q.14-.097.305-.086q.164.012.293.14q.177.183.156.411q-.022.228-.216.363q-.633.421-1.342.716t-1.464.47q-.25.068-.432-.078q-.183-.147-.183-.427m4.88-2.854q-.109-.104-.13-.281q-.021-.177.077-.317q.385-.58.64-1.205q.254-.626.398-1.293q.037-.172.177-.278q.14-.107.312-.107q.261 0 .408.173t.078.423q-.155.754-.441 1.464q-.286.71-.726 1.361q-.135.194-.372.216q-.238.02-.42-.156m-7.471 3.354q-2.783-.57-4.597-2.758Q4.05 15.938 4.05 13.05q0-3.327 2.337-5.663Q8.723 5.05 12.05 5.05h.765l-1.74-1.74q-.16-.16-.16-.354q0-.194.166-.36q.16-.16.354-.16q.194 0 .36.16l2.382 2.389q.13.13.184.267q.052.136.052.298q0 .162-.052.298q-.053.137-.184.267l-2.389 2.389q-.16.16-.353.16q-.195 0-.354-.16q-.16-.16-.16-.354t.16-.354l1.746-1.746h-.777q-2.925 0-4.962 2.038T5.05 13.05q0 2.502 1.58 4.422q1.582 1.92 4.035 2.443q.172.037.278.177q.107.14.107.312q0 .256-.17.402q-.17.146-.42.079"/></svg>