<svg xmlns="http://www.w3.org/2000/svg" width="1em" height="1em" viewBox="0 0 24 24"><path fill="currentColor" d="M13.05 21v-1.05q.85-.125 1.663-.45t1.537-.85l.708.72q-.858.645-1.845 1.056q-.986.41-2.063.574m-2 0q-3.008-.392-5.004-2.651Q4.05 16.09 4.05 13.05q0-1.663.626-3.118q.626-1.455 1.713-2.543q1.088-1.087 2.543-1.713q1.455-.626 3.118-.626h.765l-2.088-2.088l.708-.72l3.307 3.308l-3.307 3.308l-.708-.708l2.1-2.1h-.777q-2.925 0-4.962 2.038T5.05 13.05q0 2.6 1.7 4.563t4.3 2.375zm7.32-3.042l-.72-.708q.525-.725.86-1.528q.334-.803.478-1.672H20q-.125 1.058-.545 2.044q-.42.987-1.086 1.864M20 12.05h-1.012q-.144-.87-.478-1.672q-.335-.803-.86-1.528l.72-.708q.645.802 1.063 1.795q.417.992.567 2.113"/></svg>