<svg xmlns="http://www.w3.org/2000/svg" width="1em" height="1em" viewBox="0 0 24 24"><path fill="currentColor" d="M8.02 19.5v-4.517q0-.154-.116-.28q-.116-.124-.27-.163q-1.988-.33-3.31-1.787Q3 11.296 3 9.308q0-2.212 1.558-3.76Q6.115 4 8.327 4q1.988 0 3.455 1.313q1.466 1.314 1.797 3.302q.038.154.154.27q.115.115.269.115h5.077l-1.746-1.746q-.14-.14-.15-.341q-.01-.201.155-.367q.16-.16.354-.16q.195 0 .354.16l2.389 2.389q.13.13.183.267q.053.136.053.298q0 .162-.053.298t-.183.267l-2.389 2.389q-.14.14-.341.15q-.201.01-.367-.15q-.165-.166-.165-.357q0-.191.165-.357l1.74-1.74h-5.043q-.552 0-.968-.36q-.415-.36-.502-.911q-.269-1.604-1.449-2.666Q9.936 5 8.326 5Q6.543 5 5.272 6.262Q4 7.523 4 9.308q0 1.61 1.072 2.79q1.072 1.179 2.676 1.448q.552.087.912.502q.36.415.36.967V19.5q0 .213-.144.357q-.143.143-.357.143q-.213 0-.356-.143q-.144-.144-.144-.357"/></svg>