<svg xmlns="http://www.w3.org/2000/svg" width="1em" height="1em" viewBox="0 0 24 24"><path fill="currentColor" d="M14.98 19.5v-4.485q0-.552.36-.957q.36-.406.912-.512q1.617-.263 2.673-1.443q1.056-1.18 1.056-2.795q0-1.766-1.271-3.037Q17.438 5 15.673 5q-1.615 0-2.795 1.065q-1.18 1.066-1.443 2.664q-.106.552-.512.911q-.406.36-.958.36H4.921l1.746 1.746q.146.146.153.344q.007.198-.158.364q-.166.16-.354.162q-.189.003-.354-.162l-2.389-2.389q-.13-.13-.183-.267T3.329 9.5q0-.162.053-.298q.053-.137.183-.267l2.389-2.389q.14-.14.341-.153q.201-.012.367.153q.16.16.16.354t-.16.354L4.922 9h5.076q.154 0 .27-.115q.115-.116.153-.27q.33-1.957 1.782-3.286Q13.653 4 15.673 4q2.212 0 3.76 1.548q1.548 1.548 1.548 3.76q0 2.019-1.339 3.46q-1.338 1.442-3.277 1.772q-.153.039-.269.164q-.115.125-.115.279V19.5q0 .213-.143.357q-.144.143-.357.143q-.214 0-.357-.143q-.143-.144-.143-.357"/></svg>