<svg xmlns="http://www.w3.org/2000/svg" width="1em" height="1em" viewBox="0 0 24 24"><path fill="currentColor" d="M10.246 13.754q-.954-.954-1.712-2.04q-.759-1.087-1.328-2.312q-.356.6-.519 1.25q-.162.652-.162 1.348q0 2.284 1.596 3.88Q9.716 17.474 12 17.474q.677 0 1.347-.175q.67-.175 1.251-.506q-1.225-.569-2.311-1.328q-1.087-.758-2.04-1.712m.713-.689q1.178 1.18 2.619 2.063t3.067 1.422q-.904.929-2.104 1.44q-1.2.51-2.517.51q-2.716 0-4.608-1.892Q5.525 14.716 5.525 12q0-1.317.51-2.517q.511-1.2 1.44-2.104q.538 1.627 1.422 3.067q.884 1.44 2.063 2.62m7.077 1.415q-.253-.069-.499-.15q-.246-.083-.49-.168q.22-.507.336-1.056q.116-.55.116-1.1q0-2.285-1.61-3.896Q14.277 6.5 11.992 6.5q-.55 0-1.1.107q-.549.106-1.056.326q-.085-.245-.156-.474q-.072-.23-.137-.47q.581-.245 1.206-.367t1.275-.122q2.716 0 4.608 1.892Q18.525 9.284 18.525 12q0 .65-.122 1.275q-.122.625-.366 1.206M11.5 3.269V.885h1v2.384zm0 19.846v-2.384h1v2.384zm7.037-16.938l-.714-.714l1.644-1.638l.714.708zM4.533 20.175l-.714-.708l1.644-1.644l.714.714zM20.73 12.5v-1h2.384v1zm-19.846 0v-1h2.384v1zm18.582 7.68l-1.644-1.643l.714-.714l1.638 1.644zM5.463 6.178L3.825 4.533l.708-.714l1.644 1.644zm4.783 7.577"/></svg>