<svg xmlns="http://www.w3.org/2000/svg" width="1em" height="1em" viewBox="0 0 24 24"><path fill="currentColor" d="M5.615 20q-.69 0-1.152-.462Q4 19.075 4 18.385v-2.77q0-.69.463-1.152Q4.925 14 5.615 14H15.5v-4h1v4h1.885q.69 0 1.152.463q.463.462.463 1.152v2.77q0 .69-.462 1.152q-.463.463-1.153.463zm0-1h12.77q.269 0 .442-.173t.173-.442v-2.77q0-.269-.173-.442T18.385 15H5.615q-.269 0-.442.173T5 15.615v2.77q0 .269.173.442t.442.173M7 17.77q.329 0 .549-.22q.22-.221.22-.55t-.22-.549q-.22-.22-.549-.22t-.549.22q-.22.22-.22.549t.22.549q.22.22.549.22m3.5 0q.329 0 .549-.22q.22-.22.22-.549t-.22-.549q-.22-.22-.549-.22t-.549.22q-.22.22-.22.549t.22.549q.22.22.549.22m3.5 0q.329 0 .549-.22q.22-.22.22-.549t-.22-.549q-.22-.22-.549-.22t-.549.22q-.22.22-.22.549t.22.549q.22.22.549.22m-.096-9.365l-.72-.72q.65-.6 1.335-.892Q15.204 6.5 16 6.5t1.48.292q.685.293 1.335.893l-.719.719q-.427-.427-.941-.666Q16.64 7.5 16 7.5t-1.155.238q-.514.239-.941.666m-2.5-2.5l-.708-.708q1.042-1.042 2.387-1.62Q14.427 3 16 3q1.573 0 2.917.577q1.345.577 2.387 1.62l-.708.707q-.825-.825-1.99-1.365Q17.443 4 16 4t-2.607.54q-1.164.539-1.99 1.364M5 19v-4z"/></svg>