<svg xmlns="http://www.w3.org/2000/svg" width="1em" height="1em" viewBox="0 0 24 24"><path fill="currentColor" d="M9 20.5q-1.458 0-2.479-1.021T5.5 17V8.479q-.875-.325-1.437-.991Q3.5 6.82 3.5 6.006q0-1.045.729-1.776q.728-.731 1.769-.731q1.04 0 1.771.731q.731.731.731 1.776q0 .814-.562 1.48q-.563.667-1.438.992V17q0 1.031.735 1.766t1.769.734q1.033 0 1.764-.734q.732-.735.732-1.766V7q0-1.458 1.021-2.479T15 3.5q1.458 0 2.479 1.021T18.5 7v8.521q.875.325 1.438.991q.562.667.562 1.481q0 1.045-.728 1.776q-.729.731-1.77.731q-1.04 0-1.771-.731q-.731-.731-.731-1.776q0-.814.563-1.493q.562-.679 1.437-.979V7q0-1.031-.735-1.766T14.996 4.5q-1.033 0-1.764.734Q12.5 5.97 12.5 7v10q0 1.458-1.021 2.479T9 20.5"/></svg>