<svg xmlns="http://www.w3.org/2000/svg" width="1em" height="1em" viewBox="0 0 24 24"><path fill="currentColor" d="m17.512 22.665l-1.693-1.692q-.13-.13-.186-.27q-.056-.14-.056-.301V19.23l-7.408-7.408q-.225.05-.392.075t-.43.064v-1.047q1.191-.103 2.684-.883q1.492-.78 2.196-1.54l1.323-1.396q.229-.298.56-.447q.332-.149.717-.149q.661 0 1.129.467q.467.468.467 1.13V14q0 .708-.305 1.245t-.768.867l-2.273-2.262V9.07q-.904.886-1.873 1.476q-.97.59-1.927.923l7.03 7.031h1.172q.161 0 .3.056q.14.056.271.186l1.692 1.693q.243.242.243.565q0 .323-.243.565l-1.1 1.1q-.242.243-.565.243q-.323 0-.565-.243M8.808 16.5l-2.943 2.942q-.17.171-.403.171t-.404-.17q-.171-.172-.171-.405q0-.232.17-.403l4.231-4.231l2.097 2.096zM15 5.27q-.633 0-1.066-.434q-.434-.434-.434-1.067q0-.632.434-1.066q.433-.434 1.066-.434t1.066.434q.434.434.434 1.066q0 .633-.434 1.067q-.433.433-1.066.433m-7.654 6.693q-.22 0-.371-.152t-.152-.372q0-.219.152-.37t.371-.153q.22 0 .371.152t.152.371q0 .22-.152.372t-.37.152"/></svg>