<svg xmlns="http://www.w3.org/2000/svg" width="1em" height="1em" viewBox="0 0 24 24"><path fill="currentColor" d="M1.308 14.25V9.904q0-.248.183-.422q.184-.174.432-.174h2.539q.512 0 .871.359q.36.359.36.871v.962q0 .488-.33.787q-.33.298-.705.382l.615 1.42q.092.215-.038.41q-.131.193-.362.193q-.142 0-.24-.074t-.154-.197l-.733-1.729H2.192v1.558q0 .192-.125.317t-.316.125t-.317-.125q-.126-.125-.126-.317m9-.442v-1.366H8.115q-.343 0-.575-.232q-.232-.232-.232-.575v-1.52q0-.343.232-.575q.232-.232.575-.232h2.635q.192 0 .317.125t.125.316t-.125.317q-.125.126-.317.126H8.192v1.366h2.193q.343 0 .575.232q.232.232.232.575v1.52q0 .343-.232.575q-.232.232-.575.232H7.75q-.192 0-.317-.125t-.125-.316t.125-.317q.125-.126.317-.126zM15 13.52l1.138-3.9q.056-.148.157-.23q.101-.083.257-.083q.219 0 .352.172q.133.172.071.387l-1.306 4.435q-.054.167-.19.279q-.136.111-.317.111h-.318q-.198 0-.33-.111q-.13-.112-.183-.28l-1.306-4.434q-.062-.215.071-.387q.133-.172.352-.172q.156 0 .257.082q.1.083.157.231zm3.308.729V9.904q0-.248.183-.422q.184-.174.432-.174h2.539q.512 0 .871.359q.36.359.36.871v.924q0 .512-.36.871q-.359.36-.871.36h-2.27v1.557q0 .192-.125.317t-.316.125t-.317-.125q-.126-.125-.126-.317M2.192 11.808h2.27q.153 0 .25-.077q.096-.077.096-.231v-.962q0-.153-.096-.25q-.097-.096-.25-.096h-2.27zm17 0h2.27q.153 0 .25-.096q.096-.097.096-.25v-.924q0-.153-.096-.25q-.097-.096-.25-.096h-2.27z"/></svg>