<svg xmlns="http://www.w3.org/2000/svg" width="1em" height="1em" viewBox="0 0 24 24"><path fill="currentColor" d="M4.615 19q-.69 0-1.152-.462Q3 18.075 3 17.385V6.615q0-.69.463-1.152Q3.925 5 4.615 5h4.31q.323 0 .628.13q.305.132.522.349L11.596 7h7.789q.69 0 1.152.463q.463.462.463 1.152v8.77q0 .69-.462 1.152q-.463.463-1.153.463zm3.21-4.758L6.773 13.19q-.146-.146-.344-.152q-.198-.007-.364.158q-.16.166-.162.354q-.003.188.162.354l1.195 1.194q.242.242.565.242q.323 0 .565-.242l3.32-3.32q.146-.145.155-.343q.01-.198-.155-.364q-.166-.165-.357-.165t-.357.165zM16 12.687l-1.265-1.266q-.14-.14-.335-.14t-.335.14q-.14.14-.14.344t.14.345l1.247 1.265l-1.266 1.265q-.14.14-.13.335q.009.194.15.335q.14.14.344.14t.344-.14L16 14.063l1.265 1.266q.14.14.345.13q.203-.009.344-.15q.14-.14.14-.344t-.14-.344l-1.266-1.246l1.266-1.265q.14-.14.14-.345t-.14-.344q-.14-.14-.344-.14t-.345.14z"/></svg>