<svg xmlns="http://www.w3.org/2000/svg" width="1em" height="1em" viewBox="0 0 24 24"><path fill="currentColor" d="M4.115 19.346v-1h3.097l-1.054-1.042q-1.166-1.13-1.681-2.48q-.515-1.35-.515-2.736q0-2.41 1.374-4.36Q6.71 5.777 8.962 4.942v1.062q-1.82.765-2.91 2.424q-1.09 1.659-1.09 3.66q0 1.222.463 2.37q.463 1.15 1.44 2.127l1.02 1.019v-3.027h1v4.77zm15.79-8.673H18.9q-.183-.875-.614-1.704q-.432-.829-1.151-1.554l-1.02-1.019v3.027h-1v-4.77h4.77v1h-3.097l1.054 1.043q.871.896 1.373 1.898q.502 1.002.69 2.08M17 20.807l-.108-.866q-.569-.125-.937-.349q-.368-.224-.701-.558l-.796.353l-.577-.853l.707-.577q-.184-.543-.184-1.035q0-.492.184-1.035l-.707-.576l.577-.854l.796.354q.333-.335.7-.56q.37-.223.938-.348l.108-.866h1l.108.866q.569.125.937.352q.368.227.701.567l.796-.365l.577.865l-.707.577q.184.53.184 1.029q0 .498-.184 1.029l.707.577l-.577.853l-.796-.353q-.333.334-.7.558q-.37.224-.938.35l-.108.865zm.5-1.731q.883 0 1.518-.636q.636-.635.636-1.518t-.636-1.518q-.635-.636-1.518-.636t-1.518.636q-.636.635-.636 1.518t.636 1.518q.635.636 1.518.636"/></svg>