<svg xmlns="http://www.w3.org/2000/svg" width="1em" height="1em" viewBox="0 0 24 24"><path fill="currentColor" d="M12 16.02q1.671 0 2.836-1.165T16 12.019q0-1.67-1.164-2.835T12 8.019q-1.671 0-2.836 1.165T8 12.019q0 1.671 1.164 2.836T12 16.019m1.65-1.804l-2.035-2.034V9.135h.77v2.723l1.811 1.811zM12 20.962q-3.013-.895-5.007-3.651Q5 14.554 5 11.1V5.692l7-2.615l7 2.615V11.1q0 3.454-1.993 6.21q-1.994 2.757-5.007 3.652m0-1.062q2.6-.825 4.3-3.3t1.7-5.5V6.375l-6-2.23l-6 2.23V11.1q0 3.025 1.7 5.5t4.3 3.3m0-7.88"/></svg>