<svg xmlns="http://www.w3.org/2000/svg" width="1em" height="1em" viewBox="0 0 24 24"><path fill="currentColor" d="M12 18.5q-.213 0-.357-.143q-.143-.144-.143-.357V6q0-.213.143-.357q.144-.143.357-.143t.357.143q.143.144.143.357v12q0 .213-.143.357q-.144.143-.357.143m-10.5-3v-.171q0-.427.248-.764q.248-.336.67-.528q.592-.275 1.24-.406Q4.309 13.5 5 13.5q.692 0 1.341.13q.65.132 1.242.407q.42.192.669.528q.248.337.248.764v.171zm14 0v-.171q0-.427.248-.764q.248-.336.67-.528q.592-.275 1.24-.406q.65-.131 1.342-.131q.692 0 1.341.13q.65.132 1.242.407q.42.192.669.528q.248.337.248.764v.171zM5 11.5q-.633 0-1.066-.434Q3.5 10.633 3.5 10t.434-1.066Q4.367 8.5 5 8.5t1.066.434Q6.5 9.367 6.5 10t-.434 1.066Q5.633 11.5 5 11.5m14 0q-.633 0-1.066-.434Q17.5 10.633 17.5 10t.434-1.066Q18.367 8.5 19 8.5t1.066.434q.434.433.434 1.066t-.434 1.066q-.433.434-1.066.434"/></svg>