<svg xmlns="http://www.w3.org/2000/svg" width="1em" height="1em" viewBox="0 0 24 24"><path fill="currentColor" d="M15.804 13.235q.098-.29.147-.59q.049-.299.049-.626q0-1.67-1.164-2.835T12 8.019q-.327 0-.623.05q-.296.048-.587.146zm2.238 2.238l-.769-.78q.339-.8.533-1.75Q18 11.994 18 11.1V6.375l-6-2.23l-3.842 1.432l-.781-.78L12 3.076l7 2.615V11.1q0 1.025-.22 2.102t-.738 2.271m1.758 5.742l-3.288-3.288q-.893 1.071-2.065 1.868q-1.172.797-2.447 1.167q-3.148-.933-5.074-3.728Q5 14.438 5 11.1V6.415L2.862 4.277l.707-.708l16.939 16.939zM12 19.9q1.067-.333 2.127-1.112q1.06-.778 1.677-1.569l-1.78-1.78q-.445.27-.956.425q-.51.155-1.068.155q-1.671 0-2.836-1.164T8 12.019q0-.557.155-1.068q.155-.51.426-.955L6 7.416V11.1q0 3.025 1.7 5.5t4.3 3.3"/></svg>