<svg xmlns="http://www.w3.org/2000/svg" width="1em" height="1em" viewBox="0 0 24 24"><path fill="currentColor" d="M12 16.02q1.671 0 2.836-1.165T16 12.019q0-1.67-1.164-2.835T12 8.019q-1.671 0-2.836 1.165T8 12.019q0 1.671 1.164 2.836T12 16.019m.385-4.161l1.538 1.538q.112.112.121.264q.01.152-.12.282q-.132.131-.274.131t-.273-.13l-1.52-1.52q-.13-.13-.186-.27t-.056-.301V9.519q0-.161.112-.273q.111-.111.273-.111t.273.111q.112.112.112.273zM12 20.842q-.137 0-.287-.025t-.28-.075Q8.48 19.617 6.74 16.926Q5 14.235 5 11.1V6.817q0-.51.295-.923q.295-.413.755-.6l5.385-2q.292-.106.565-.106q.273 0 .565.106l5.385 2q.46.187.755.6q.295.414.295.923V11.1q0 3.135-1.74 5.826t-4.693 3.816q-.13.05-.28.075t-.287.025"/></svg>