<svg xmlns="http://www.w3.org/2000/svg" width="1em" height="1em" viewBox="0 0 24 24"><path fill="currentColor" d="M16.54 8.346q-.473 0-.804-.33q-.332-.332-.332-.805q0-.36.297-.85t.52-.744q.126-.155.315-.155t.32.155q.223.254.52.74q.297.485.297.855q0 .472-.33.803q-.331.331-.803.331m2.214 5.923q-.766 0-1.298-.53q-.533-.531-.533-1.3q0-.64.476-1.47t.872-1.307q.188-.237.48-.237t.478.237q.385.479.866 1.317q.482.838.482 1.469q0 .756-.529 1.289q-.528.532-1.294.532m-8.908.885v1.5q0 .212.144.356t.357.144q.213 0 .356-.144t.143-.356v-1.5h1.5q.213 0 .356-.144t.144-.357q0-.213-.144-.356q-.143-.143-.356-.143h-1.5v-1.5q0-.213-.144-.356q-.144-.144-.357-.144q-.212 0-.356.144q-.143.143-.143.356v1.5h-1.5q-.212 0-.356.144t-.144.357q0 .212.144.356q.144.143.356.143zm-2.814 5.308q-.684 0-1.146-.463t-.463-1.153V12q0-1.9 1.262-3.292Q7.946 7.315 9.846 7.1V4.538h-1.27q-.212 0-.355-.143q-.144-.144-.144-.357t.144-.356q.143-.144.356-.144H13q.58 0 1.05.134q.47.133.702.28q.137.06.202.17q.065.109.065.267q0 .224-.148.375t-.358.151q-.088 0-.242-.078q-.294-.14-.612-.219q-.317-.08-.659-.08h-2.154V7.1q1.9.215 3.162 1.608q1.261 1.393 1.261 3.292v6.846q0 .69-.462 1.153t-1.146.463z"/></svg>