<svg xmlns="http://www.w3.org/2000/svg" width="1em" height="1em" viewBox="0 0 24 24"><path fill="currentColor" d="M7.5 16.5h9.154l-2.827-3.77l-2.615 3.308l-1.75-2.115zm-1.115-5.423q1.846-.212 3.163-1.529q1.317-1.317 1.529-3.163h-.93q-.212 1.473-1.25 2.511q-1.04 1.039-2.512 1.25zm0-2.9q.69-.115 1.178-.609q.487-.493.602-1.183h-1.78zM5.615 20q-.69 0-1.152-.462Q4 19.075 4 18.385V5.615q0-.69.463-1.152Q4.925 4 5.615 4h12.77q.69 0 1.152.463q.463.462.463 1.152v12.77q0 .69-.462 1.152q-.463.463-1.153.463zm0-1h12.77q.23 0 .423-.192q.192-.193.192-.423V5.615q0-.23-.192-.423Q18.615 5 18.385 5H5.615q-.23 0-.423.192Q5 5.385 5 5.615v12.77q0 .23.192.423q.193.192.423.192M5 19V5z"/></svg>