<svg xmlns="http://www.w3.org/2000/svg" width="1em" height="1em" viewBox="0 0 24 24"><path fill="currentColor" d="M14.5 22.68v-1q2.925 0 4.953-2.027q2.028-2.028 2.028-4.953h1q0 1.663-.626 3.118q-.626 1.455-1.704 2.533q-1.078 1.078-2.533 1.704q-1.455.626-3.118.626m0-3.384v-1q1.5 0 2.548-1.048t1.048-2.548h1q0 1.902-1.347 3.249q-1.347 1.347-3.249 1.347m-2.052-3.486l-2.521-2.516l-1.412 1.412l2.54 2.515l-4.928 4.929l-5.689-5.683l4.935-4.929l2.515 2.54l1.412-1.41l-2.515-2.535L9.938 6.98l2.516 2.52l1.411-1.412l-2.515-2.54L16.273.625l5.683 5.683l-4.923 4.923l-2.54-2.516l-1.412 1.412l2.534 2.515zm-10.583.682l4.262 4.262l1.435-1.435L3.3 15.058zm6.33 2.175l1.434-1.434l-4.262-4.262l-1.434 1.435zm4.253-4.273l1.746-1.746l-4.261-4.261l-1.746 1.746zm.304-8.846l4.261 4.262l1.435-1.435l-4.261-4.262zM19.1 7.742l1.435-1.434l-4.262-4.262l-1.435 1.435zm-7.9 3.639"/></svg>