<svg xmlns="http://www.w3.org/2000/svg" width="1em" height="1em" viewBox="0 0 24 24"><path fill="currentColor" d="M4.615 21q-.69 0-1.152-.462Q3 20.075 3 19.385V4.615q0-.69.463-1.152Q3.925 3 4.615 3h14.77q.69 0 1.152.463q.463.462.463 1.152v14.77q0 .69-.462 1.152q-.463.463-1.153.463zM4 15.5v3.885q0 .269.173.442t.442.173H6.5v-2.423h-.48q-.162 0-.283-.121q-.122-.121-.122-.283V15.5zm0-1h1.615v-.423q0-.294.2-.493q.198-.2.493-.2V11q0-.497.347-.845q.348-.347.845-.347h2q.497 0 .845.347q.347.348.347.845v2.385q.29 0 .492.199q.2.199.2.493v.423H20V4.615q0-.269-.173-.442T19.385 4H4.615q-.269 0-.442.173T4 4.615zm4.505-5.692q-.495 0-.846-.347q-.351-.346-.351-.841t.346-.846q.347-.35.841-.35q.495 0 .846.345q.351.347.351.842t-.346.846q-.347.35-.841.35M8.038 20h.924v-2.423h-.924zm2.462 0h8.885q.269 0 .442-.173t.173-.442V15.5h-8.615v1.673q0 .162-.122.283q-.12.12-.282.12H10.5zm1.48-12.217q-.336-.428-.504-.855q-.168-.428-.168-.878v-.3q.025-.19.163-.316q.137-.126.34-.126q.16 0 .274.138q.113.139.107.304v.3q0 .328.142.64q.141.314.435.652q.41.499.591.94t.182.918q0 .215-.148.354q-.148.138-.356.138q-.18 0-.293-.146q-.112-.146-.112-.346q0-.358-.142-.656q-.141-.298-.51-.761m2.5 0q-.337-.428-.505-.855q-.168-.428-.168-.878v-.3q.025-.19.163-.316q.137-.126.34-.126q.16 0 .274.138q.113.139.107.304v.3q0 .328.142.64q.141.314.435.652q.41.499.591.94t.182.918q0 .215-.148.354q-.148.138-.356.138q-.18 0-.293-.146q-.112-.146-.112-.346q0-.358-.142-.656q-.141-.298-.51-.761m2.55 0q-.337-.428-.505-.855q-.168-.428-.168-.878v-.3q.025-.19.163-.316q.137-.126.34-.126q.16 0 .274.138q.113.139.107.304v.3q0 .328.142.64q.141.314.435.652q.41.499.591.94t.182.918q0 .215-.134.354q-.135.138-.354.138q-.187 0-.304-.146q-.117-.146-.117-.346q0-.358-.142-.656q-.141-.298-.51-.761"/></svg>