<svg xmlns="http://www.w3.org/2000/svg" width="1em" height="1em" viewBox="0 0 24 24"><path fill="currentColor" d="M8 20.23H4.665q-.367 0-.606-.254q-.24-.255-.196-.622q.302-2.967 1.987-4.959q1.685-1.991 4.65-2.587V8.827q-.917-.106-1.93-.379q-1.014-.273-1.921-.758q-.907-.484-1.599-1.197q-.692-.712-.962-1.71q-.125-.38.125-.696q.249-.318.652-.318h14.27q.403 0 .652.327q.25.327.125.706q-.289.998-.981 1.71q-.693.713-1.59 1.198q-.897.484-1.91.748q-1.014.263-1.931.369v2.98q2.965.597 4.65 2.588q1.685 1.992 1.987 4.959q.044.367-.196.622t-.606.255H16q-.213 0-.357-.144q-.143-.143-.143-.356q0-.214.143-.357t.357-.143h3.202q-.508-3.493-2.588-5.02q-2.08-1.526-4.614-1.526t-4.614 1.527q-2.08 1.526-2.588 5.019H8q.213 0 .357.143t.143.357q0 .213-.143.356q-.144.144-.357.144m4-12.337q3.16 0 4.733-1.035q1.573-1.036 2.007-2.09H5.26q.415 1.054 1.998 2.09Q8.84 7.894 12 7.894m0 12.337q-.633 0-1.066-.434q-.434-.434-.434-1.066q0-.31.114-.573q.115-.264.332-.462q.204-.204.64-.449q.435-.245 1.02-.532l1.55-.675q.261-.125.46.074q.2.2.074.461l-.675 1.53q-.286.585-.531 1.03q-.246.446-.45.65q-.197.217-.46.331q-.264.115-.574.115m0-12.337"/></svg>