<svg xmlns="http://www.w3.org/2000/svg" width="1em" height="1em" viewBox="0 0 24 24"><path fill="currentColor" d="M6 4v4zv16zm.615 17q-.69 0-1.152-.462Q5 20.075 5 19.385V4.615q0-.69.463-1.152Q5.925 3 6.615 3H14.5L19 7.5v4.812q-.244-.06-.494-.09t-.506-.03V8h-4V4H6.615q-.23 0-.423.192Q6 4.385 6 4.615v14.77q0 .23.192.423q.193.192.423.192h5.831q.085.287.212.527q.127.24.296.473zm9.285-.135l-.688-.688l2.1-2.1l-2.1-2.1l.688-.689l2.1 2.1l2.1-2.1l.688.689l-2.075 2.1l2.075 2.1l-.688.688L18 18.79z"/></svg>