<svg xmlns="http://www.w3.org/2000/svg" width="1em" height="1em" viewBox="0 0 24 24"><path fill="currentColor" d="M20.5 21.5V7q0-1.037-.732-1.768Q19.037 4.5 18 4.5h-1.5v1.3q0 .3-.2.5t-.5.2h-4.33q-.408 0-.582-.346q-.175-.346-.019-.696l1.535-3.331q.156-.337.397-.482q.241-.145.653-.145h2.184q.37 0 .616.258q.246.257.246.627V3.5H18q1.458 0 2.479 1.021T21.5 7v14.5zM5 21.5q-1.063 0-1.782-.718Q2.5 20.063 2.5 19v-2.23q0-.703.399-1.102q.4-.399 1.101-.399t1.1.4q.4.398.4 1.1V18.5h9v-1.73q0-.703.399-1.102q.4-.399 1.101-.399q.702 0 1.101.4q.399.398.399 1.1V19q0 1.063-.718 1.782q-.719.718-1.782.718zm1.27-3.77V16.5q0-.685-.478-1.256T4.5 14.512v-2.397q0-.67.472-1.143q.472-.472 1.143-.472h7.77q.67 0 1.143.472q.472.472.472 1.143v2.397q-.815.18-1.292.742q-.477.561-.477 1.246v1.23z"/></svg>