<svg xmlns="http://www.w3.org/2000/svg" width="1em" height="1em" viewBox="0 0 24 24"><path fill="currentColor" d="M4.192 17.308V6.615q0-.453.36-.693q.361-.24.765-.059l11.156 4.772h-.07q-.451.038-.909.132q-.457.095-.798.252L5.192 7v3.885L10.038 12l-4.846 1.115V17l6.035-2.57q-.123.287-.204.629q-.08.341-.1.576v.011l-5.6 2.414q-.404.18-.767-.059q-.364-.24-.364-.693m12.616 3.307q-1.671 0-2.836-1.164q-1.164-1.164-1.164-2.836q0-1.67 1.164-2.835q1.165-1.165 2.836-1.165q1.67 0 2.835 1.165t1.165 2.835q0 1.672-1.165 2.836q-1.164 1.164-2.835 1.164m.384-4.161v-2.339q0-.161-.111-.273q-.112-.111-.273-.111q-.162 0-.273.111q-.112.112-.112.273v2.333q0 .162.056.301t.186.27l1.52 1.52q.111.111.263.12q.152.01.283-.12q.13-.131.13-.274q0-.142-.13-.273zm-12-2.023V7v10z"/></svg>