<svg xmlns="http://www.w3.org/2000/svg" width="1em" height="1em" viewBox="0 0 24 24"><path fill="currentColor" d="M15.077 14.692q-.29 0-.491-.2q-.201-.202-.201-.492v-4q0-.29.2-.491q.202-.201.492-.201h2.5q.29 0 .491.2q.201.202.201.492v4q0 .29-.2.491q-.202.201-.492.201zm.192-.884h2.116v-3.616h-2.116zm-9.538.884v-2.307q0-.29.24-.53q.239-.24.529-.24h2.23v-1.423h-3v-.884h3.193q.29 0 .491.2q.201.202.201.492v1.615q0 .29-.239.53q-.24.24-.53.24h-2.23v1.423h3v.884zm5.827-3.827v-.884h.884v.884zm0 3.27v-.885h.884v.885zm-6.981 4.653q-.69 0-1.153-.462t-.462-1.153V6.943q0-.691.462-1.154q.463-.462 1.153-.462H7.5v-2h1v2h7v-2h1v2h2.923q.69 0 1.153.462t.462 1.153v10.231q0 .69-.462 1.153t-1.153.462zm0-1h6.98V16.52h.885v1.27h6.981q.23 0 .423-.193q.192-.192.192-.423V6.943q0-.231-.192-.424q-.192-.192-.423-.192h-6.98v1.27h-.885v-1.27H4.577q-.23 0-.423.192q-.192.193-.192.423v10.231q0 .23.192.423q.192.192.423.192m-.615 0V6.327z"/></svg>