<svg xmlns="http://www.w3.org/2000/svg" width="1em" height="1em" viewBox="0 0 24 24"><path fill="currentColor" d="m12.823 18.258l-7.12-7.12Q5.226 10.66 5.226 10t.479-1.138l3.158-3.158Q9.34 5.225 10 5.225t1.138.479l7.12 7.12q.479.478.479 1.138q0 .66-.48 1.138L15.1 18.258q-.479.479-1.138.479q-.66 0-1.139-.48m.696-.719q.173.174.443.174q.269 0 .442-.174l3.134-3.134q.174-.173.174-.442q0-.27-.174-.443l-7.096-7.096Q10.27 6.25 10 6.25t-.442.173L6.423 9.558Q6.25 9.73 6.25 10t.173.442zM12 23q-2.263 0-4.268-.86t-3.508-2.364q-1.503-1.503-2.363-3.508Q1 14.263 1 12h1q0 2.006.744 3.785q.744 1.778 2.028 3.117Q6.056 20.24 7.8 21.057q1.744.816 3.744.903l-3.452-3.452l.708-.708l5.015 5.015q-.457.073-.904.13Q12.463 23 12 23m10-11q0-2.006-.744-3.785q-.744-1.778-2.028-3.117Q17.944 3.76 16.2 2.943q-1.744-.816-3.744-.903l3.452 3.452l-.708.708l-5.015-5.015q.438-.093.895-.139T12 1q2.283 0 4.278.86q1.995.861 3.498 2.364q1.503 1.503 2.363 3.498Q23 9.717 23 12zm-10.02-.02"/></svg>