<svg xmlns="http://www.w3.org/2000/svg" width="1em" height="1em" viewBox="0 0 24 24"><path fill="currentColor" d="m12.823 18.258l-7.12-7.12q-.478-.486-.478-1.142q0-.656.479-1.134l3.158-3.158q.486-.479 1.142-.479t1.134.479l7.12 7.12q.479.486.479 1.141q0 .656-.48 1.135L15.1 18.258q-.487.479-1.142.479q-.656 0-1.135-.48m.696-.719q.173.174.443.174q.269 0 .442-.174l3.134-3.134q.174-.173.174-.442q0-.27-.174-.443l-7.096-7.096Q10.27 6.25 10 6.25t-.442.173L6.423 9.558Q6.25 9.73 6.25 10t.173.442zM12.456 2.04l3.098 3.098q.14.14.15.345q.01.204-.15.363t-.354.16q-.194 0-.354-.16l-4.02-4.02q-.203-.203-.11-.462q.091-.258.376-.307q.235-.032.454-.044Q11.764 1 12 1q2.283 0 4.278.86q1.995.861 3.498 2.364q1.503 1.503 2.363 3.498Q23 9.717 23 12q0 .213-.144.356q-.144.144-.357.144q-.212 0-.356-.144Q22 12.213 22 12q0-2.006-.744-3.785q-.744-1.778-2.028-3.117Q17.944 3.76 16.2 2.943q-1.744-.816-3.744-.903m-.912 19.92l-3.098-3.098q-.14-.14-.15-.345q-.01-.204.15-.363t.354-.16q.194 0 .354.16l4.02 4.02q.203.203.114.462q-.09.258-.377.3q-.236.043-.455.053Q12.236 23 12 23q-2.269 0-4.274-.86q-2.005-.859-3.506-2.36q-1.501-1.5-2.36-3.506Q1 14.269 1 12q0-.213.144-.356q.144-.144.357-.144q.212 0 .356.144Q2 11.788 2 12q0 2.006.744 3.785q.744 1.778 2.028 3.117Q6.056 20.24 7.8 21.057q1.744.816 3.744.903"/></svg>