<svg xmlns="http://www.w3.org/2000/svg" width="1em" height="1em" viewBox="0 0 24 24"><path fill="currentColor" d="M17.808 14.808h-1.866q-.191 0-.317.125q-.125.125-.125.316t.125.317q.126.126.317.126h1.943q.343 0 .575-.232q.232-.232.232-.575v-1.943q0-.191-.125-.317q-.125-.125-.316-.125t-.317.125q-.126.126-.126.317zM6.192 7.192h1.866q.191 0 .317-.125q.125-.125.125-.316t-.125-.317q-.126-.126-.317-.126H6.115q-.343 0-.575.232q-.232.232-.232.575v1.943q0 .191.125.317q.125.125.316.125t.317-.125q.126-.126.126-.317zM4.615 18q-.69 0-1.152-.462Q3 17.075 3 16.385V5.615q0-.69.463-1.152Q3.925 4 4.615 4h14.77q.69 0 1.152.463q.463.462.463 1.152v10.77q0 .69-.462 1.152q-.463.463-1.153.463H15v1.192q0 .344-.232.576q-.232.232-.576.232H9.808q-.344 0-.576-.232Q9 19.536 9 19.192V18z"/></svg>