<svg xmlns="http://www.w3.org/2000/svg" width="1em" height="1em" viewBox="0 0 24 24"><path fill="currentColor" d="M4.392 16.796q-.655-1.038-1.024-2.253Q3 13.33 3 12q0-1.329.365-2.53q.366-1.203 1.022-2.241l.719.713q-.535.893-.82 1.915Q4 10.879 4 12t.286 2.156q.285 1.034.82 1.927zM12 21q-1.329 0-2.53-.365q-1.203-.366-2.241-1.022l.713-.719q.893.535 1.915.82Q10.879 20 12 20t2.143-.286q1.022-.285 1.915-.82l.713.72q-1.038.655-2.24 1.02Q13.329 21 12 21m7.608-4.223l-.714-.714q.535-.892.82-1.917Q20 13.121 20 12t-.286-2.143q-.285-1.022-.82-1.915l.72-.713q.655 1.038 1.02 2.24Q21 10.671 21 12q0 1.329-.368 2.534q-.369 1.204-1.024 2.243M7.937 5.106l-.714-.714q1.039-.655 2.243-1.024Q10.671 3 12 3q1.335 0 2.546.368q1.212.369 2.25 1.024l-.713.714q-.893-.535-1.927-.82Q13.12 4 12 4t-2.146.286q-1.025.285-1.917.82M12 16.5q-1.863 0-3.182-1.318Q7.5 13.863 7.5 12t1.318-3.182Q10.137 7.5 12 7.5t3.182 1.318Q16.5 10.137 16.5 12t-1.318 3.182Q13.863 16.5 12 16.5"/></svg>