<svg xmlns="http://www.w3.org/2000/svg" width="1em" height="1em" viewBox="0 0 24 24"><path fill="currentColor" d="m15.68 15.05l.64-.627l-2.447-2.446q.275-.425.393-.804q.119-.379.119-.904q0-1.206-.846-2.045q-.845-.84-2.039-.84t-2.04.84q-.845.84-.845 2.045q0 1.206.846 2.045q.845.84 2.039.84q.525 0 .91-.138q.386-.137.836-.412zm-4.18-2.78q-.825 0-1.412-.588T9.5 10.269q0-.825.588-1.412t1.412-.588q.82 0 1.41.588q.59.587.59 1.412t-.587 1.413q-.588.587-1.413.587m-6.885 5.193q-.69 0-1.152-.463Q3 16.537 3 15.846v-9.77q0-.69.463-1.152t1.152-.462h14.77q.69 0 1.152.462q.463.463.463 1.153v9.77q0 .69-.462 1.152t-1.153.463zm0-1h14.77q.23 0 .423-.193q.192-.192.192-.423v-9.77q0-.23-.192-.422q-.193-.192-.423-.192H4.615q-.23 0-.423.192Q4 5.846 4 6.077v9.77q0 .23.192.422q.193.193.423.193m-.615 0v-11zm-2.23 3v-1h20.46v1z"/></svg>