<svg xmlns="http://www.w3.org/2000/svg" width="1em" height="1em" viewBox="0 0 24 24"><path fill="currentColor" d="M12.444 20.246L6.533 14.36q-.073-.081-.11-.175q-.036-.095-.036-.186q0-.182.13-.34t.362-.159q.102 0 .198.037q.096.036.17.11l5.91 5.91q.174.193.443.183q.27-.01.442-.182l5.308-5.308h-2.812q-.212 0-.356-.144t-.144-.357q0-.212.144-.356q.144-.143.356-.143h3.693q.343 0 .575.232q.232.232.232.576v3.692q0 .213-.143.356t-.357.144q-.213 0-.356-.144t-.144-.356v-2.812l-5.307 5.308q-.222.22-.513.34q-.292.12-.614.12q-.302 0-.608-.12t-.552-.34M3.77 10.731q-.343 0-.575-.232q-.232-.233-.232-.576V6.231q0-.213.143-.356t.357-.144q.213 0 .356.144t.144.356v2.811L9.27 3.735q.243-.24.547-.35q.304-.11.608-.11q.324 0 .617.11t.515.35l5.911 5.886q.073.08.11.175q.036.094.036.185q0 .182-.13.341q-.131.159-.362.159q-.102 0-.198-.037q-.096-.036-.17-.11l-5.91-5.91q-.174-.193-.443-.184q-.27.01-.442.183L4.65 9.731h2.812q.212 0 .356.144t.144.356q0 .213-.144.357q-.144.143-.356.143z"/></svg>