<svg xmlns="http://www.w3.org/2000/svg" width="1em" height="1em" viewBox="0 0 24 24"><path fill="currentColor" d="M16.788 4.462h2v-1q0-.425-.287-.713t-.713-.287q-.425 0-.712.287t-.288.713zm-3.865 17.642q-2.266 0-4.27-.864q-2.003-.863-3.503-2.363t-2.363-3.503q-.864-2.004-.864-4.27h1q0 1.992.747 3.771t2.043 3.127q1.297 1.348 3.04 2.164q1.745.817 3.714.897l-3.452-3.451l.708-.708l5.015 5.015q-.501.093-.94.139q-.438.046-.875.046m1.962-3.604L5.488 9.104l5.435-5.435l1.692 1.693v6.023h6.018l1.698 1.669zM15 9V4.462h1.02v-1q0-.749.51-1.26t1.258-.51q.749 0 1.26.51t.51 1.26v1h.98V9z"/></svg>