<svg xmlns="http://www.w3.org/2000/svg" width="1em" height="1em" viewBox="0 0 24 24"><path fill="currentColor" d="M13.962 19.396L4.565 10L10 4.565l9.396 9.397zM12 23q-2.263 0-4.268-.86t-3.508-2.364q-1.503-1.503-2.363-3.508Q1 14.263 1 12h1q0 2.006.744 3.785q.744 1.778 2.028 3.117Q6.056 20.24 7.8 21.057q1.744.816 3.744.903l-3.452-3.452l.708-.708l5.015 5.015q-.457.073-.904.13Q12.463 23 12 23m10-11q0-2.006-.744-3.785q-.744-1.778-2.028-3.117Q17.944 3.76 16.2 2.943q-1.744-.816-3.744-.903l3.452 3.452l-.708.708l-5.015-5.015q.438-.093.895-.139T12 1q2.283 0 4.278.86q1.995.861 3.498 2.364q1.503 1.503 2.363 3.498Q23 9.717 23 12z"/></svg>