<svg xmlns="http://www.w3.org/2000/svg" width="1em" height="1em" viewBox="0 0 24 24"><path fill="currentColor" d="M8.77 14.115h1v-2q0-.617.44-1.058q.442-.442 1.06-.442h2v1.308l1.807-1.808l-1.808-1.807v1.307h-2q-1.038 0-1.769.731q-.73.73-.73 1.77zm-4.155 3.347q-.69 0-1.152-.463Q3 16.537 3 15.846v-9.77q0-.69.463-1.152t1.152-.462h14.77q.69 0 1.152.462q.463.463.463 1.153v9.77q0 .69-.462 1.152t-1.153.463zm0-1h14.77q.23 0 .423-.193q.192-.192.192-.423v-9.77q0-.23-.192-.422q-.193-.192-.423-.192H4.615q-.23 0-.423.192Q4 5.846 4 6.077v9.77q0 .23.192.422q.193.193.423.193m-.615 0v-11zm-2.23 3v-1h20.46v1z"/></svg>