<svg xmlns="http://www.w3.org/2000/svg" width="1em" height="1em" viewBox="0 0 24 24"><path fill="currentColor" d="M12.923 22.104q-2.266 0-4.27-.864q-2.003-.863-3.503-2.363t-2.363-3.503q-.864-2.004-.864-4.27h1q0 1.992.747 3.771t2.043 3.127q1.297 1.348 3.04 2.164q1.745.817 3.714.897l-3.452-3.451l.708-.708l5.015 5.015q-.501.093-.94.139q-.438.046-.875.046M15 9V4.462h1.02v-1q0-.749.51-1.26t1.258-.51q.749 0 1.26.51t.51 1.26v1h.98V9zm1.788-4.538h2v-1q0-.425-.287-.713t-.713-.287q-.425 0-.712.287t-.288.713zm.662 7.15l.708-.708l2.161 2.161l-5.434 5.435l-9.397-9.396l5.435-5.435l2.239 2.239l-.697.719l-1.542-1.542l-4.02 4.019l7.982 7.98l4.019-4.019zm-4.546-.527"/></svg>