<svg xmlns="http://www.w3.org/2000/svg" width="1em" height="1em" viewBox="0 0 24 24"><path fill="currentColor" d="m5.712 18.212l.813-4.585q.056-.465.36-.813q.303-.347.775-.458l9.686-2.933l1.906-4.1q-.033.046.161-.236l2.202-2.183q.123-.123.286-.126q.162-.003.316.132q.143.123.148.304q.006.182-.117.324l-2.094 2.247l-1.612 4.178q-.05.112-.111.211q-.062.1-.168.16l-4.494 3.204l-6.004 1.908l-1.157 3.192q-.025.056-.053.112q-.028.056-.078.106l-2.28 3.056q-.135.176-.324.207q-.188.031-.365-.104q-.177-.134-.208-.342q-.03-.208.104-.385zM3 14.885q-.69 0-1.191-.501q-.501-.501-.501-1.192q0-.69.5-1.191Q2.31 11.5 3 11.5t1.191.501q.501.5.501 1.191q0 .69-.5 1.192q-.502.5-1.192.5m5.823-4.803q-.465.136-.907-.109q-.441-.245-.578-.73q-.136-.465.119-.91q.255-.444.72-.574l3.46-1.008q.323-.106.625.062q.301.167.388.51l.198.757q.087.323-.08.596q-.168.273-.472.379z"/></svg>