<svg xmlns="http://www.w3.org/2000/svg" width="1em" height="1em" viewBox="0 0 24 24"><path fill="currentColor" d="M6.615 21q-.69 0-1.152-.462Q5 20.075 5 19.385V9.095q0-.324.13-.629q.132-.304.349-.522L9.944 3.48q.218-.217.522-.348q.305-.131.628-.131h6.29q.691 0 1.154.463q.462.462.462 1.152v14.77q0 .69-.462 1.152q-.463.463-1.153.463zM12 16.23q.31 0 .501-.21t.191-.482q0-.27-.191-.481q-.191-.21-.501-.21t-.501.21q-.191.21-.191.481q0 .272.191.482q.191.21.501.21m0-2.807q.213 0 .357-.143q.143-.143.143-.357V9.27q0-.213-.143-.356q-.144-.144-.357-.144t-.357.144q-.143.143-.143.356v3.654q0 .214.143.357q.144.143.357.143"/></svg>