<svg xmlns="http://www.w3.org/2000/svg" width="1em" height="1em" viewBox="0 0 24 24"><path fill="currentColor" d="M4.615 19q-.69 0-1.152-.462Q3 18.075 3 17.385V6.615q0-.69.463-1.152Q3.925 5 4.615 5h14.77q.69 0 1.152.463q.463.462.463 1.152v10.77q0 .69-.462 1.152q-.463.463-1.153.463zm2.693-4.308h3q.31 0 .5-.191Q11 14.31 11 14v-1.692q0-.31-.191-.501q-.192-.192-.501-.192H7.5v-1.423h2.615v.116q0 .161.112.273q.111.111.273.111h.115q.162 0 .273-.111q.112-.112.112-.273V10q0-.31-.191-.501q-.192-.191-.501-.191h-3q-.31 0-.501.191q-.192.191-.192.501v1.692q0 .31.192.501q.191.192.5.192h2.808v1.423H7.5v-.116q0-.161-.112-.273q-.111-.111-.273-.111H7q-.162 0-.273.111q-.112.112-.112.273V14q0 .31.192.501q.191.191.5.191m6.097 0h2.904q.444 0 .76-.316q.317-.316.317-.76v-3.231q0-.445-.317-.761q-.316-.316-.76-.316h-2.904q-.162 0-.283.12T13 9.713v4.576q0 .162.121.283t.283.121m.48-.884v-3.616h2.308q.116 0 .212.096q.096.097.096.212v3q0 .115-.096.212q-.096.096-.212.096z"/></svg>