<svg xmlns="http://www.w3.org/2000/svg" width="1em" height="1em" viewBox="0 0 24 24"><path fill="currentColor" d="M10.423 22q-.69 0-1.153-.462q-.462-.463-.462-1.153v-2.943h-.193q-.69 0-1.152-.462Q7 16.517 7 15.827V3.615q0-.69.463-1.152Q7.925 2 8.615 2h6.77q.69 0 1.153.463q.462.462.462 1.152v12.212q0 .69-.462 1.153q-.463.462-1.153.462h-.193v2.943q0 .69-.462 1.152q-.463.463-1.153.463zM12 12.02q.962 0 1.635-.664t.673-1.625q0-.962-.673-1.644q-.673-.683-1.635-.683t-1.635.683q-.673.682-.673 1.644q0 .961.673 1.625q.673.663 1.635.663M10.27 21h3.48q.192 0 .327-.135q.135-.134.135-.327v-3.096H9.808v3.096q0 .193.134.327q.135.135.327.135M12 11.02q-.54 0-.914-.375q-.374-.374-.374-.914t.374-.934q.374-.393.914-.393t.934.393q.393.393.393.934q0 .54-.393.914q-.394.374-.934.374"/></svg>