<svg xmlns="http://www.w3.org/2000/svg" width="1em" height="1em" viewBox="0 0 24 24"><path fill="currentColor" d="M5.23 18.77V20q-.507 0-.868-.362Q4 19.277 4 18.77zM4 16.307v-1.231h1.23v1.23zm0-3.693v-1.23h1.23v1.23zm0-3.692v-1.23h1.23v1.23zM5.23 5.23H4q0-.508.362-.87Q4.723 4 5.23 4zM7.693 20v-1.23h1.231V20zm0-14.77V4h1.231v1.23zM11.385 20v-1.23h1.23V20zm0-14.77V4h1.23v1.23zM15.077 20v-1.23h1.23V20zm0-14.77V4h1.23v1.23zm3.692 13.54H20q0 .507-.362.868q-.361.362-.869.362zm0-2.462v-1.231H20v1.23zm0-3.693v-1.23H20v1.23zm0-3.692v-1.23H20v1.23zm0-3.692V4q.508 0 .87.362q.361.361.361.869z"/></svg>