<svg xmlns="http://www.w3.org/2000/svg" width="1em" height="1em" viewBox="0 0 24 24"><path fill="currentColor" d="M13.5 19.875v-1.408q0-.288.17-.514q.168-.226.465-.288L17.346 17l-3.211-.665q-.297-.062-.466-.288q-.169-.226-.169-.514v-1.408q0-.47.379-.704q.379-.234.783-.023l5.769 2.875q.454.223.454.73t-.454.724l-5.77 2.875q-.403.211-.782-.023t-.379-.704M5 20q-.413 0-.706-.294T4 19v-3.954q.854-.25 1.427-.945Q6 13.406 6 12.5t-.573-1.601Q4.854 10.204 4 9.954V6q0-.413.294-.706T5 5h4q.27-.858.946-1.371q.677-.514 1.554-.514t1.554.514Q13.73 4.142 14 5h4q.413 0 .706.294T19 6v7.327l-1-.5V6h-4.885v-.462q-.115-.719-.592-1.07q-.477-.353-1.023-.353t-1.023.352Q10 4.82 9.885 5.538V6H5v3.277q.927.442 1.463 1.32q.537.876.537 1.909q0 1.015-.537 1.892q-.536.877-1.463 1.325V19h3.298q.367-.913 1.335-1.482q.967-.568 2.06-.487v1q-.962-.05-1.706.476q-.745.526-1.033 1.493zm6.5-8.442"/></svg>