<svg xmlns="http://www.w3.org/2000/svg" width="1em" height="1em" viewBox="0 0 24 24"><path fill="currentColor" d="M6.038 18.712q-2.58-.79-3.79-2.762q-1.21-1.971-1.21-3.95t1.21-3.95q1.21-1.971 3.79-2.762V6.35q-1.775.6-2.887 2.15T2.038 12q0 1.95 1.113 3.5t2.887 2.15zm8 .288q-2.92 0-4.96-2.04T7.038 12q0-2.921 2.04-4.96T14.038 5q1.362 0 2.59.49q1.23.49 2.195 1.38l-.708.707q-.805-.748-1.835-1.163Q15.25 6 14.038 6q-2.5 0-4.25 1.75T8.038 12q0 2.5 1.75 4.25t4.25 1.75q1.212 0 2.242-.414q1.03-.415 1.835-1.163l.708.708q-.965.888-2.194 1.379q-1.229.49-2.59.49m5.615-3.692l-.708-.708l2.1-2.1h-7.892v-1h7.892l-2.1-2.1l.708-.708L22.962 12z"/></svg>