<svg xmlns="http://www.w3.org/2000/svg" width="1em" height="1em" viewBox="0 0 24 24"><path fill="currentColor" d="M4.527 17.017q-.723-1.084-1.125-2.353Q3 13.396 3 12q0-1.402.402-2.667q.402-1.266 1.125-2.35l.829.542q-.65.95-1.003 2.088Q4 10.75 4 12t.353 2.385q.353 1.134 1.003 2.084zm7.473.598q-2.327 0-3.971-1.644T6.385 12q0-2.327 1.644-3.971T12 6.385q2.327 0 3.971 1.644T17.615 12q0 2.327-1.644 3.971T12 17.615m7.448-.598l-.823-.548q.675-.95 1.025-2.084Q20 13.25 20 12q0-1.25-.35-2.387t-1.025-2.088l.823-.542q.742 1.084 1.147 2.35Q21 10.598 21 12q0 1.396-.405 2.664t-1.147 2.353"/></svg>