<svg xmlns="http://www.w3.org/2000/svg" width="1em" height="1em" viewBox="0 0 24 24"><path fill="currentColor" d="M4 12q0 1.085.27 2.103q.27 1.018.792 1.895q.123.202.093.415q-.03.214-.207.343q-.177.134-.385.06q-.207-.074-.311-.256q-.594-1.012-.923-2.158Q3 13.256 3 12t.329-2.405q.329-1.149.923-2.16q.104-.183.311-.254q.208-.071.385.063q.177.13.207.343q.03.213-.093.415q-.522.877-.792 1.895T4 12m8 5.615q-2.327 0-3.971-1.644T6.385 12q0-2.327 1.644-3.971T12 6.385q2.327 0 3.971 1.644T17.615 12q0 2.327-1.644 3.971T12 17.615m0-1q1.92 0 3.267-1.348T16.615 12q0-1.92-1.348-3.267T12 7.385q-1.92 0-3.267 1.348T7.385 12q0 1.92 1.348 3.267T12 16.615M20 12q0-1.085-.28-2.103q-.28-1.018-.8-1.895q-.124-.202-.087-.415q.036-.214.213-.343q.177-.134.388-.063q.21.07.314.254q.594 1.011.923 2.16Q21 10.745 21 12q0 1.256-.329 2.402q-.329 1.146-.923 2.158q-.104.182-.314.256q-.21.074-.388-.06q-.177-.13-.213-.343q-.037-.213.086-.415q.521-.877.801-1.895T20 12m-8 0"/></svg>