<svg xmlns="http://www.w3.org/2000/svg" width="1em" height="1em" viewBox="0 0 24 24"><path fill="currentColor" d="M12 10.885q-1.038 0-1.77-.731q-.73-.73-.73-1.77q0-1.038.73-1.769q.732-.73 1.77-.73t1.77.73q.73.731.73 1.77q0 1.038-.73 1.769q-.732.73-1.77.73m0-1q.617 0 1.059-.44q.441-.442.441-1.06q0-.617-.441-1.058q-.442-.441-1.059-.441t-1.059.44q-.441.442-.441 1.06q0 .617.441 1.058q.442.442 1.059.442m-5.5 6.23v-1.4q0-.428.195-.766q.195-.337.568-.555q1.068-.63 2.26-.955q1.192-.324 2.477-.324q1.265 0 2.467.324q1.202.324 2.27.955q.353.218.558.565q.205.347.205.756v1.4zm5.5-3q-1.121 0-2.25.327t-2.215.943v.75h8.93v-.77q-1.067-.615-2.205-.932q-1.139-.318-2.26-.318m9.225-4.965q-.775-1.844-2.172-3.232q-1.397-1.387-3.203-2.143l.39-.927q2.085.92 3.526 2.344q1.442 1.425 2.405 3.568zm-18.45 0l-.927-.39q.925-2.123 2.366-3.555Q5.656 2.773 7.76 1.848l.39.927q-1.825.775-3.213 2.163T2.776 8.15M7.74 22.152q-2.065-.88-3.545-2.383q-1.48-1.502-2.347-3.548l.927-.371q.775 1.825 2.163 3.213t3.212 2.162zm8.481 0l-.371-.927q1.825-.775 3.213-2.162t2.162-3.213l.927.39q-.92 2.085-2.392 3.555q-1.473 1.47-3.539 2.357M12 15.135h4.465h-8.93z"/></svg>