<svg xmlns="http://www.w3.org/2000/svg" width="1em" height="1em" viewBox="0 0 24 24"><path fill="currentColor" d="m17.117 14.294l-.761-.761q.127-.366.193-.747q.066-.382.066-.786q0-1.92-1.348-3.267T12 7.385q-.404 0-.786.066q-.381.066-.747.193l-.761-.761q.517-.237 1.097-.368q.58-.13 1.197-.13q2.327 0 3.971 1.644T17.615 12q0 .617-.13 1.197q-.131.58-.368 1.097M12 16.615q.679 0 1.297-.2q.618-.202 1.138-.565L8.15 9.565q-.363.52-.564 1.138q-.201.618-.201 1.297q0 1.92 1.348 3.267T12 16.615m7.056 3.862l-3.88-3.885q-.67.487-1.477.755T12 17.615q-2.327 0-3.971-1.644T6.385 12q0-.892.268-1.699t.755-1.478L3.523 4.938q-.14-.14-.153-.34q-.012-.202.153-.367q.16-.16.354-.16q.194 0 .354.16l15.538 15.538q.146.146.153.344q.007.199-.159.364q-.165.16-.353.162q-.189.003-.354-.162M4 12q0 1.085.27 2.103q.27 1.018.792 1.895q.123.202.093.415q-.03.214-.207.343q-.177.134-.385.06q-.207-.074-.311-.256q-.594-1.012-.923-2.158Q3 13.256 3 12t.329-2.405q.329-1.149.923-2.16q.104-.183.311-.254q.208-.071.385.063q.177.13.207.343q.03.213-.093.415q-.522.877-.792 1.895T4 12m16 0q0-1.085-.28-2.103q-.28-1.018-.8-1.895q-.124-.202-.087-.415q.036-.214.213-.343q.177-.134.388-.063q.21.07.314.254q.594 1.011.923 2.16Q21 10.745 21 12q0 1.256-.329 2.402q-.329 1.146-.923 2.158q-.104.182-.314.256q-.21.074-.388-.06q-.177-.13-.213-.343q-.037-.213.086-.415q.521-.877.801-1.895T20 12"/></svg>