<svg xmlns="http://www.w3.org/2000/svg" width="1em" height="1em" viewBox="0 0 24 24"><path fill="currentColor" d="M19.833 21.26L8.587 10.013q-.281.443-.434.933Q8 11.436 8 12q0 .825.313 1.55t.862 1.275l-.713.713q-.685-.69-1.074-1.595Q7 13.038 7 12q0-.777.227-1.465q.227-.689.617-1.264L5.696 7.123q-.794 1.015-1.245 2.25Q4 10.605 4 12q0 1.675.625 3.125T6.35 17.65l-.713.713q-1.235-1.24-1.936-2.87Q3 13.863 3 12q0-1.608.524-3.021q.524-1.414 1.453-2.575L2.74 4.167l.714-.713l17.092 17.092zm-.233-4.472l-.72-.719q.545-.9.833-1.922Q20 13.125 20 12q0-1.656-.625-3.106T17.65 6.35l.713-.713Q19.598 6.87 20.3 8.5q.7 1.631.7 3.5q0 1.333-.36 2.538t-1.04 2.25m-2.944-2.944l-.8-.8q.069-.25.107-.51Q16 12.276 16 12q0-.825-.312-1.55t-.863-1.275l.713-.713q.685.684 1.074 1.589Q17 10.956 17 12q0 .488-.092.946q-.093.458-.252.898"/></svg>