<svg xmlns="http://www.w3.org/2000/svg" width="1em" height="1em" viewBox="0 0 24 24"><path fill="currentColor" d="M12 10.885q-1.038 0-1.77-.731q-.73-.73-.73-1.77q0-1.038.73-1.769q.732-.73 1.77-.73t1.77.73q.73.731.73 1.77q0 1.038-.73 1.769q-.732.73-1.77.73m0-1q.617 0 1.059-.44q.441-.442.441-1.06q0-.617-.441-1.058q-.442-.441-1.059-.441t-1.059.44q-.441.442-.441 1.06q0 .617.441 1.058q.442.442 1.059.442M6.5 15.1v-.385q0-.428.195-.766q.195-.337.568-.555q1.068-.63 2.26-.955q1.192-.324 2.477-.324q1.265 0 2.467.324q1.202.324 2.27.955q.353.218.558.565q.205.347.205.756v.385q0 .435-.29.725t-.725.29h-8.97q-.434 0-.725-.29q-.29-.29-.29-.725m5.5-1.985q-1.121 0-2.25.327t-2.215.943v.75h8.93v-.77q-1.067-.615-2.205-.932q-1.139-.318-2.26-.318m4.39-10.082q-.22-.104-.316-.309q-.095-.205-.016-.412q.079-.208.29-.262q.212-.054.414.05q1.76.87 2.996 2.109q1.236 1.24 2.15 3.018q.104.202.055.42q-.048.216-.255.295t-.413-.016q-.205-.095-.308-.297q-.739-1.506-1.915-2.692q-1.176-1.185-2.682-1.904m-8.78 0q-1.506.738-2.682 1.914T3.013 7.63q-.103.202-.299.297q-.195.095-.402.016q-.208-.079-.266-.296t.046-.42q.875-1.772 2.131-3.012q1.257-1.24 3.015-2.109q.202-.104.426-.053q.224.05.303.259q.08.207-.029.412q-.107.205-.328.309M3.033 16.39q.738 1.506 1.914 2.682t2.682 1.915q.202.103.31.299q.107.195.01.402q-.099.208-.326.26q-.227.05-.454-.054q-1.696-.85-2.983-2.15t-2.1-3.002q-.103-.202-.043-.416q.06-.214.269-.293q.207-.08.412.029q.205.107.309.328m17.934 0q.104-.22.309-.328q.205-.108.412-.03q.208.08.262.304q.054.224-.05.426q-.87 1.76-2.147 3.034q-1.278 1.275-3.018 2.112q-.202.104-.41.046q-.208-.058-.287-.266q-.078-.207.026-.402t.307-.3q1.506-.738 2.682-1.914t1.914-2.682M12 15.135h4.465h-8.93z"/></svg>