<svg xmlns="http://www.w3.org/2000/svg" width="1em" height="1em" viewBox="0 0 24 24"><path fill="currentColor" d="M15.312 10.615q.467 0 .789-.326q.322-.327.322-.794t-.327-.788q-.326-.322-.793-.322t-.789.326q-.322.327-.322.794t.327.788q.327.322.793.322m-6.615 0q.466 0 .789-.326q.322-.327.322-.794t-.327-.788q-.327-.322-.793-.322t-.789.326q-.322.327-.322.794t.327.788q.326.322.793.322m.457 4.577h5.692v-.884H9.154zM12.004 21q-1.867 0-3.51-.708q-1.644-.709-2.86-1.924q-1.216-1.214-1.925-2.856Q3 13.87 3 12.003q0-1.866.708-3.51q.709-1.643 1.924-2.859q1.214-1.216 2.856-1.925Q10.13 3 11.997 3q1.866 0 3.51.708q1.643.709 2.859 1.924q1.216 1.214 1.925 2.856Q21 10.13 21 11.997q0 1.866-.708 3.51q-.709 1.643-1.924 2.859q-1.214 1.216-2.856 1.925Q13.87 21 12.003 21"/></svg>