<svg xmlns="http://www.w3.org/2000/svg" width="1em" height="1em" viewBox="0 0 24 24"><path fill="currentColor" d="M11.3 17.5h1.4q1.24 0 2.02-.728q.78-.729.78-1.77q0-1.04-.78-1.771q-.78-.731-2.02-.731h-1.4q-1.24 0-2.02.729q-.78.728-.78 1.769q0 1.04.78 1.771q.78.731 2.02.731m0-.885q-.885 0-1.4-.47q-.515-.472-.515-1.145t.515-1.144q.515-.471 1.4-.471h1.4q.885 0 1.4.47q.515.472.515 1.145t-.515 1.144q-.515.471-1.4.471zM8.288 10q.917 0 1.648-.513q.731-.514.95-1.385q.05-.188-.075-.338q-.125-.149-.311-.149q-.17 0-.308.08q-.138.08-.215.24q-.194.54-.652.86q-.457.32-1.037.32h-1.25q-.191 0-.317.125t-.125.317q0 .191.125.317q.126.126.317.126zm7.404 0h1.25q.192 0 .317-.125q.126-.125.126-.316q0-.192-.126-.318q-.125-.126-.317-.126h-1.25q-.552 0-1.012-.32q-.461-.322-.676-.841q-.067-.16-.215-.25q-.147-.089-.327-.089q-.188 0-.303.139q-.115.138-.065.323q.22.871.95 1.397q.732.526 1.648.526m-3.689 11q-1.866 0-3.51-.708q-1.643-.709-2.859-1.924q-1.216-1.214-1.925-2.856Q3 13.87 3 12.003q0-1.866.708-3.51q.709-1.643 1.924-2.859q1.214-1.216 2.856-1.925Q10.13 3 11.997 3q1.866 0 3.51.708q1.643.709 2.859 1.924q1.216 1.214 1.925 2.856Q21 10.13 21 11.997q0 1.866-.708 3.51q-.709 1.643-1.924 2.859q-1.214 1.216-2.856 1.925Q13.87 21 12.003 21M12 20q3.35 0 5.675-2.325T20 12q0-3.35-2.325-5.675T12 4Q8.65 4 6.325 6.325T4 12q0 3.35 2.325 5.675T12 20"/></svg>