<svg xmlns="http://www.w3.org/2000/svg" width="1em" height="1em" viewBox="0 0 24 24"><path fill="currentColor" d="M8.308 12.308V14q0 1.535 1.079 2.613q1.078 1.08 2.613 1.08t2.613-1.08q1.08-1.078 1.08-2.613v-1.692zm3.692 4.5q-1.165 0-1.987-.821q-.82-.822-.82-1.987v-.808h5.615V14q0 1.165-.821 1.987q-.822.82-1.987.82m-3.5-9.5q-.777 0-1.409.544q-.631.543-.931 1.493l.853.216q.208-.612.606-.98t.881-.388q.483.02.88.388q.399.368.607.98l.853-.216q-.3-.95-.931-1.493q-.632-.543-1.409-.543m7 0q-.777 0-1.409.543q-.631.543-.931 1.493l.853.216q.208-.631.597-1q.388-.368.89-.368t.89.369q.389.368.597.999l.853-.216q-.3-.95-.931-1.493q-.632-.543-1.409-.543M12.003 21q-1.866 0-3.51-.708q-1.643-.709-2.859-1.924q-1.216-1.214-1.925-2.856Q3 13.87 3 12.003q0-1.866.708-3.51q.709-1.643 1.924-2.859q1.214-1.216 2.856-1.925Q10.13 3 11.997 3q1.866 0 3.51.708q1.643.709 2.859 1.924q1.216 1.214 1.925 2.856Q21 10.13 21 11.997q0 1.866-.708 3.51q-.709 1.643-1.924 2.859q-1.214 1.216-2.856 1.925Q13.87 21 12.003 21M12 20q3.35 0 5.675-2.325T20 12q0-3.35-2.325-5.675T12 4Q8.65 4 6.325 6.325T4 12q0 3.35 2.325 5.675T12 20"/></svg>