<svg xmlns="http://www.w3.org/2000/svg" width="1em" height="1em" viewBox="0 0 24 24"><path fill="currentColor" d="M6.558 16h.884v-.25q0-1.89 1.334-3.224Q10.11 11.192 12 11.192q1.89 0 3.224 1.334q1.334 1.334 1.334 3.224V16h.884v-.25q0-2.272-1.584-3.857q-1.584-1.585-3.854-1.585t-3.858 1.585q-1.588 1.585-1.588 3.857zm.811-7.115q.852-.189 1.759-.704q.907-.516 1.505-1.168l-.689-.565q-.5.523-1.262.956q-.763.433-1.436.596zm9.262 0L16.754 8q-.692-.183-1.445-.606q-.753-.423-1.253-.946l-.689.565q.598.633 1.505 1.158q.907.525 1.759.714M12.003 21q-1.866 0-3.51-.708q-1.643-.709-2.859-1.924q-1.216-1.214-1.925-2.856Q3 13.87 3 12.003q0-1.866.708-3.51q.709-1.643 1.924-2.859q1.214-1.216 2.856-1.925Q10.13 3 11.997 3q1.866 0 3.51.708q1.643.709 2.859 1.924q1.216 1.214 1.925 2.856Q21 10.13 21 11.997q0 1.866-.708 3.51q-.709 1.643-1.924 2.859q-1.214 1.216-2.856 1.925Q13.87 21 12.003 21M12 20q3.35 0 5.675-2.325T20 12q0-3.35-2.325-5.675T12 4Q8.65 4 6.325 6.325T4 12q0 3.35 2.325 5.675T12 20"/></svg>