<svg xmlns="http://www.w3.org/2000/svg" width="1em" height="1em" viewBox="0 0 24 24"><path fill="currentColor" d="M9.308 15.192h5.384v-.884H9.308zm-.712-6.384q-.665 0-1.218.344q-.553.344-.965.871l.75.498q.289-.336.645-.58q.356-.243.788-.243q.432 0 .788.234t.645.564l.75-.498q-.412-.521-.972-.856q-.56-.334-1.21-.334m6.807 0q-.666 0-1.218.344q-.553.344-.965.871l.75.498q.289-.33.645-.574q.356-.243.788-.243q.425 0 .787.24q.363.24.646.577l.75-.498q-.412-.527-.972-.871t-1.211-.344M12.004 21q-1.867 0-3.51-.708q-1.644-.709-2.86-1.924q-1.216-1.214-1.925-2.856Q3 13.87 3 12.003q0-1.866.708-3.51q.709-1.643 1.924-2.859q1.214-1.216 2.856-1.925Q10.13 3 11.997 3q1.866 0 3.51.708q1.643.709 2.859 1.924q1.216 1.214 1.925 2.856Q21 10.13 21 11.997q0 1.866-.708 3.51q-.709 1.643-1.924 2.859q-1.214 1.216-2.856 1.925Q13.87 21 12.003 21M12 20q3.35 0 5.675-2.325T20 12q0-3.35-2.325-5.675T12 4Q8.65 4 6.325 6.325T4 12q0 3.35 2.325 5.675T12 20"/></svg>