<svg xmlns="http://www.w3.org/2000/svg" width="1em" height="1em" viewBox="0 0 24 24"><path fill="currentColor" d="M12.003 21q-1.866 0-3.51-.708q-1.643-.709-2.859-1.924q-1.216-1.214-1.925-2.856Q3 13.87 3 12.003q0-1.866.708-3.51q.709-1.643 1.924-2.859q1.214-1.216 2.856-1.925Q10.13 3 11.997 3q1.866 0 3.51.708q1.643.709 2.859 1.924q1.216 1.214 1.925 2.856Q21 10.13 21 11.997q0 1.866-.708 3.51q-.709 1.643-1.924 2.859q-1.214 1.216-2.856 1.925Q13.87 21 12.003 21m1.69-10.35l.519-.3q-.085.504.244.885q.329.38.852.38q.464 0 .79-.325q.325-.325.325-.79q0-.337-.185-.616q-.184-.28-.503-.403l.823-.471l-.385-.683l-2.865 1.635zm-3.385 0l.384-.688l-2.865-1.635l-.385.683l.823.47q-.319.124-.503.404q-.185.28-.185.616q0 .465.325.79q.326.325.79.325q.523 0 .852-.38q.33-.381.244-.885zM12.004 13q-1.529 0-2.696.964q-1.168.965-1.68 2.42h8.743q-.511-1.455-1.674-2.42Q13.533 13 12.004 13"/></svg>