<svg xmlns="http://www.w3.org/2000/svg" width="1em" height="1em" viewBox="0 0 24 24"><path fill="currentColor" d="M11.3 17.5h1.4q1.24 0 2.02-.728q.78-.729.78-1.77q0-1.04-.78-1.771q-.78-.731-2.02-.731h-1.4q-1.24 0-2.02.729q-.78.728-.78 1.769q0 1.04.78 1.771q.78.731 2.02.731m0-.885q-.885 0-1.4-.47q-.515-.472-.515-1.145t.515-1.144q.515-.471 1.4-.471h1.4q.885 0 1.4.47q.515.472.515 1.145t-.515 1.144q-.515.471-1.4.471zM6.596 10h1.692q1.039 0 1.808-.683q.77-.682.866-1.702h-.904q-.116.645-.61 1.072q-.496.428-1.16.428H6.596zm9.096 0h1.693v-.885h-1.693q-.663 0-1.158-.427q-.496-.428-.61-1.073h-.905q.096 1.02.866 1.702q.769.683 1.807.683m-3.689 11q-1.866 0-3.51-.708q-1.643-.709-2.859-1.924q-1.216-1.214-1.925-2.856Q3 13.87 3 12.003q0-1.866.708-3.51q.709-1.643 1.924-2.859q1.214-1.216 2.856-1.925Q10.13 3 11.997 3q1.866 0 3.51.708q1.643.709 2.859 1.924q1.216 1.214 1.925 2.856Q21 10.13 21 11.997q0 1.866-.708 3.51q-.709 1.643-1.924 2.859q-1.214 1.216-2.856 1.925Q13.87 21 12.003 21M12 20q3.35 0 5.675-2.325T20 12q0-3.35-2.325-5.675T12 4Q8.65 4 6.325 6.325T4 12q0 3.35 2.325 5.675T12 20"/></svg>