<svg xmlns="http://www.w3.org/2000/svg" width="1em" height="1em" viewBox="0 0 24 24"><path fill="currentColor" d="M9.75 15.192h4.5q.192 0 .317-.125t.125-.316t-.125-.317q-.125-.126-.317-.126h-4.5q-.192 0-.317.125t-.125.316t.125.317q.125.126.317.126M12.003 21q-1.866 0-3.51-.708q-1.643-.709-2.859-1.924q-1.216-1.214-1.925-2.856Q3 13.87 3 12.003q0-1.866.708-3.51q.709-1.643 1.924-2.859q1.214-1.216 2.856-1.925Q10.13 3 11.997 3q1.866 0 3.51.708q1.643.709 2.859 1.924q1.216 1.214 1.925 2.856Q21 10.13 21 11.997q0 1.866-.708 3.51q-.709 1.643-1.924 2.859q-1.214 1.216-2.856 1.925Q13.87 21 12.003 21M12 20q3.35 0 5.675-2.325T20 12q0-3.35-2.325-5.675T12 4Q8.65 4 6.325 6.325T4 12q0 3.35 2.325 5.675T12 20M8.596 8.808q-.52 0-.996.225q-.475.225-.856.592q-.134.16-.125.353q.01.193.17.291q.153.118.338.096q.185-.02.338-.163q.258-.214.531-.359t.6-.145t.6.139q.273.138.53.346q.155.13.34.154q.184.025.338-.093q.16-.098.179-.291q.019-.193-.135-.328q-.38-.367-.856-.592q-.475-.225-.996-.225m6.81 0q-.52 0-1.002.225q-.483.225-.864.592q-.134.16-.119.35q.016.19.175.294q.154.118.339.1q.184-.019.338-.161q.258-.208.53-.356q.274-.148.6-.148q.334 0 .607.148t.53.356q.154.142.336.16q.182.019.336-.099q.16-.098.169-.291q.01-.193-.125-.353q-.381-.367-.856-.592q-.474-.225-.994-.225"/></svg>