<svg xmlns="http://www.w3.org/2000/svg" width="1em" height="1em" viewBox="0 0 24 24"><path fill="currentColor" d="m8.823 10.527l.737.736q.128.13.303.139q.175.01.324-.139q.148-.148.148-.313t-.148-.313L9.45 9.9l.762-.787q.123-.148.123-.313t-.148-.313q-.149-.149-.314-.149t-.313.149l-.737.736l-.786-.761q-.149-.124-.314-.124t-.313.149q-.123.123-.126.3q-.003.178.12.326l.742.787l-.736.737q-.13.128-.139.303q-.01.175.139.323q.123.124.3.126q.178.003.327-.12zm6.354 0l.786.761q.149.124.314.124t.313-.149q.148-.148.148-.313t-.148-.313l-.736-.737l.761-.787q.123-.148.123-.313t-.148-.313q-.123-.124-.3-.126q-.178-.003-.327.12l-.786.742l-.737-.736q-.128-.13-.303-.139q-.175-.01-.324.139q-.123.123-.125.3q-.003.178.12.326l.742.787l-.737.737q-.128.128-.138.303q-.01.175.138.323q.149.149.314.149t.313-.149zM12 21q-1.863 0-3.506-.71t-2.857-1.927Q4.42 17.148 3.71 15.506Q3 13.863 3 12t.71-3.506q.711-1.642 1.927-2.857Q6.852 4.42 8.494 3.71Q10.137 3 12 3t3.506.71q1.642.711 2.857 1.927q1.216 1.215 1.926 2.857Q21 10.137 21 12t-.71 3.506q-.711 1.642-1.927 2.857q-1.215 1.216-2.857 1.926Q13.863 21 12 21m0-7.5q-1.213 0-2.278.575q-1.064.575-1.737 1.563q-.131.243-.004.495t.419.252h7.2q.292 0 .42-.252q.126-.252-.005-.495q-.673-.988-1.725-1.563T12 13.5"/></svg>