<svg xmlns="http://www.w3.org/2000/svg" width="1em" height="1em" viewBox="0 0 24 24"><path fill="currentColor" d="M1.885 14.115V2.885h20.23v11.23zm1-10.23v9.23h18.23v-9.23zm.478 13.903l-.036-.884l17.36-.912l.036.885zm-.055 2.495v-.885h17.384v.885zm7.384-9.245q1.6 0 3.101-.525t2.642-1.663q.15.8.86 1.235q.709.434 1.57.473V6.442q-.861.058-1.58.505q-.72.447-.85 1.253q-1.172-1.108-2.657-1.673q-1.486-.565-3.086-.565q-1.725 0-3.329.581Q5.76 7.125 4.712 8.5q1.028 1.375 2.642 1.957q1.613.581 3.338.581M2.885 3.885v9.23z"/></svg>