<svg xmlns="http://www.w3.org/2000/svg" width="1em" height="1em" viewBox="0 0 24 24"><path fill="currentColor" d="M14.654 21.846q-.529 0-.9-.37q-.37-.37-.37-.9v-5.922q0-.529.37-.9q.371-.37.9-.37h5.923q.529 0 .899.37q.37.371.37.9v5.923q0 .529-.37.899t-.9.37zm.404-1.27h5.106q.17 0 .292-.12q.12-.121.12-.283v-.038q0-.123-.04-.225q-.04-.102-.12-.204q-.53-.57-1.242-.907q-.71-.337-1.559-.337q-.848 0-1.559.337q-.71.337-1.24.907q-.05.05-.162.429v.038q0 .162.121.283t.283.12m2.557-2.96q.53 0 .9-.37q.37-.371.37-.9t-.37-.899q-.37-.37-.9-.37q-.528 0-.899.37q-.37.37-.37.9q0 .528.37.898t.9.37M10.533 21q-.179 0-.292-.097q-.113-.097-.144-.268l-.325-2.516q-.479-.144-1.035-.454q-.557-.31-.948-.663l-1.915.823q-.317.14-.644.03q-.327-.109-.504-.415l-1.079-1.857q-.177-.306-.1-.637q.076-.331.344-.548l1.671-1.25q-.044-.271-.073-.559q-.028-.287-.028-.549q0-.261.028-.539q.03-.278.073-.626l-1.67-1.25q-.276-.213-.34-.556q-.063-.342.114-.648l1.06-1.8q.182-.294.506-.41q.325-.115.642.026l1.896.803q.448-.373.97-.673q.52-.3 1.013-.463l.283-2.092q.061-.343.316-.572t.607-.228h2.08q.353 0 .607.228t.316.572l.264 2.111q.575.202 1.016.464q.442.261.909.653l1.992-.803q.318-.14.642-.026q.325.116.506.41l1.06 1.82q.177.305.1.64q-.076.334-.344.544l-1.645 1.22q-.104.088-.229.122q-.124.033-.25.033h-3.509q-.107 0-.196-.062q-.089-.061-.139-.148q-.323-.565-.897-.927q-.574-.363-1.27-.363q-1.046 0-1.773.727q-.727.727-.727 1.773q0 .74.347 1.321q.347.58.951.885q.106.05.167.145q.062.095.062.209v6.013q0 .176-.137.301q-.138.126-.329.126"/></svg>