<svg xmlns="http://www.w3.org/2000/svg" width="1em" height="1em" viewBox="0 0 24 24"><path fill="currentColor" d="m11.392 15l.131.879q.037.158.145.255q.109.097.267.097h.13q.158 0 .267-.1q.108-.1.145-.258l.13-.873q.57-.125.938-.33q.368-.205.701-.578l.86.34q.152.062.291-.005q.14-.067.218-.189l.066-.119q.079-.127.057-.294q-.02-.167-.142-.258l-.665-.532q.165-.543.165-1.035q0-.492-.165-1.035l.665-.532q.121-.09.142-.255q.022-.165-.057-.291l-.071-.125q-.08-.122-.216-.189t-.288-.006l-.86.34q-.333-.372-.7-.577q-.37-.205-.938-.33l-.131-.879q-.037-.158-.145-.255q-.109-.097-.267-.097h-.13q-.158 0-.267.1q-.108.1-.145.258l-.13.873q-.57.125-.938.33q-.368.205-.701.578l-.86-.34q-.152-.062-.291.005q-.14.067-.218.189l-.066.119q-.079.127-.057.294q.02.167.142.258l.665.532q-.165.543-.165 1.035q0 .492.165 1.035l-.665.532q-.121.09-.142.255q-.022.165.057.291l.071.125q.08.122.216.189t.288.006l.86-.34q.333.372.7.577q.37.205.938.33M12 14q-.825 0-1.412-.587T10 12q0-.825.588-1.412T12 10q.825 0 1.413.588T14 12q0 .825-.587 1.413T12 14m-6.385 6q-.69 0-1.152-.462Q4 19.075 4 18.385V5.615q0-.69.463-1.152Q4.925 4 5.615 4h12.77q.69 0 1.152.463q.463.462.463 1.152v12.77q0 .69-.462 1.152q-.463.463-1.153.463zm0-1h12.77q.23 0 .423-.192q.192-.193.192-.423V5.615q0-.23-.192-.423Q18.615 5 18.385 5H5.615q-.23 0-.423.192Q5 5.385 5 5.615v12.77q0 .23.192.423q.193.192.423.192M5 5v14z"/></svg>