<svg xmlns="http://www.w3.org/2000/svg" width="1em" height="1em" viewBox="0 0 24 24"><path fill="currentColor" d="M14.654 21q-.529 0-.9-.37q-.37-.37-.37-.9V15.5q0-.529.37-.9q.371-.37.9-.37h1.27l.604-.604q.13-.13.273-.186q.144-.055.297-.055h1.035q.153 0 .296.055q.144.056.274.186l.605.605h1.269q.529 0 .899.37t.37.899v4.23q0 .53-.37.9t-.9.37zm2.961-1.692q.698 0 1.196-.497q.497-.498.497-1.196t-.497-1.195q-.498-.497-1.196-.497t-1.195.497q-.497.497-.497 1.195q0 .698.497 1.196q.497.497 1.195.497M14.05 11.56q-.183.103-.38.062t-.303-.224q-.257-.367-.608-.633q-.35-.265-.786-.265q-.625 0-1.062.43q-.438.431-.438 1.064q0 .436.228.786q.228.35.595.55q.183.105.246.31q.064.204-.04.387t-.309.236q-.205.054-.387-.05q-.623-.328-.978-.919q-.355-.59-.355-1.294q0-1.046.727-1.773q.727-.727 1.773-.727q.723 0 1.316.377q.594.377.923 1q.103.183.062.38t-.224.303M10.583 21q-.2 0-.353-.14t-.176-.354l-.28-2.398q-.48-.145-1.036-.454q-.557-.31-.948-.664l-1.915.823q-.317.14-.644.031q-.327-.11-.504-.415L3.648 15.57q-.177-.306-.1-.637q.076-.33.344-.547l1.671-1.25q-.044-.272-.073-.56q-.028-.287-.028-.548q0-.262.028-.54q.03-.277.073-.626l-1.67-1.25q-.276-.213-.34-.555q-.063-.343.114-.648l1.06-1.8q.182-.295.506-.41q.325-.115.642.025l1.896.804q.448-.373.97-.673q.52-.3 1.013-.464L10.03 3.8q.056-.348.314-.574q.26-.226.609-.226h2.092q.35 0 .609.226q.258.226.314.574l.258 2.112q.575.201 1.016.463q.442.262.909.654l1.98-.804q.318-.14.646-.025q.328.115.509.41l1.06 1.819q.176.306.105.637q-.072.33-.344.547l-1.823 1.356q-.177.116-.366.094q-.188-.02-.313-.198t-.101-.365q.024-.188.195-.323l1.744-1.327l-.994-1.7l-2.552 1.07q-.454-.499-1.193-.934t-1.4-.578L13 4h-1.994l-.312 2.688q-.756.162-1.39.52q-.633.36-1.26.986L5.55 7.15l-.994 1.7l2.169 1.62q-.125.336-.175.73q-.05.394-.05.814q0 .395.05.766q.05.37.156.726l-2.15 1.644l.994 1.7l2.475-1.05q.6.606 1.36 1.002q.76.396 1.615.579v3.134q0 .2-.123.342q-.123.143-.294.143m1.404-9.006"/></svg>