<svg xmlns="http://www.w3.org/2000/svg" width="1em" height="1em" viewBox="0 0 24 24"><path fill="currentColor" d="M6.846 10.87q0-.137-.121-.19q-.121-.053-.227.053l-.975.975q-.13.13-.13.292t.13.292l.975.975q.106.106.227.053q.121-.053.121-.19zm6.285 4.284h-2.262q-.136 0-.19.121q-.052.121.054.227l.975.975q.13.13.292.13t.292-.13l.975-.975q.106-.106.053-.227q-.053-.121-.19-.121m0-6.308q.137 0 .19-.121q.053-.121-.053-.227l-.975-.975q-.13-.13-.292-.13t-.292.13l-.975.975q-.106.106-.053.227q.053.121.19.121zm4.024 2.023v2.262q0 .136.121.19q.121.052.227-.054l.975-.975q.13-.13.13-.292t-.13-.292l-.975-.975q-.106-.106-.227-.053q-.121.053-.121.19M4.615 19q-.69 0-1.152-.462Q3 18.075 3 17.385V6.615q0-.69.463-1.152Q3.925 5 4.615 5h14.77q.69 0 1.152.463q.463.462.463 1.152v10.77q0 .69-.462 1.152q-.463.463-1.153.463zm0-1h14.77q.23 0 .423-.192q.192-.193.192-.423V6.615q0-.23-.192-.423Q19.615 6 19.385 6H4.615q-.23 0-.423.192Q4 6.385 4 6.615v10.77q0 .23.192.423q.193.192.423.192M4 18V6z"/></svg>