<svg xmlns="http://www.w3.org/2000/svg" width="1em" height="1em" viewBox="0 0 24 24"><path fill="currentColor" d="M16.77 21q-1.749 0-2.99-1.241q-1.242-1.242-1.242-2.99t1.242-2.99q1.241-1.24 2.99-1.24t2.989 1.24Q21 15.022 21 16.77t-1.241 2.99Q18.517 21 16.769 21m-.13-1.506q.715.025 1.266-.34q.55-.364 1.03-.898q-.716-.137-1.297-.426q-.582-.29-.95-.9q-.367-.609-.314-1.259q.053-.65.29-1.334q-.84.18-1.469.566q-.628.385-.914 1.182q-.237.665-.131 1.284q.106.62.554 1.173q.367.454.846.7q.479.246 1.088.252M10.135 21l-.362-2.892q-.556-.164-1.055-.454q-.499-.29-.928-.664l-2.667 1.135l-1.865-3.25l2.305-1.738q-.044-.272-.073-.55q-.028-.277-.028-.568q0-.29.028-.578q.03-.287.073-.578L3.258 9.125l1.865-3.212L7.771 7.03q.448-.373.938-.664q.49-.29 1.045-.473L10.134 3h3.731l.362 2.912q.536.182 1.016.463q.48.28.909.654l2.725-1.116l1.865 3.212l-1.85 1.4q-.519-.183-1.05-.277q-.53-.094-1.073-.094q-.692 0-1.347.164t-1.284.444q-.32-.575-.912-.919q-.591-.343-1.253-.343q-1.046 0-1.773.727q-.727.727-.727 1.773q0 .662.328 1.24q.328.58.897.92q-.304.711-.414 1.47q-.11.758-.11 1.533q.063 1.054.446 2.048q.384.993 1.076 1.789z"/></svg>