<svg xmlns="http://www.w3.org/2000/svg" width="1em" height="1em" viewBox="0 0 24 24"><path fill="currentColor" d="M8 23.77q-.31 0-.54-.23q-.23-.23-.23-.54q0-.31.23-.54q.23-.23.54-.23q.31 0 .54.23q.23.23.23.54q0 .31-.23.54q-.23.23-.54.23m4 0q-.31 0-.54-.23q-.23-.23-.23-.54q0-.31.23-.54q.23-.23.54-.23q.31 0 .54.23q.23.23.23.54q0 .31-.23.54q-.23.23-.54.23m4 0q-.31 0-.54-.23q-.23-.23-.23-.54q0-.31.23-.54q.23-.23.54-.23q.31 0 .54.23q.23.23.23.54q0 .31-.23.54q-.23.23-.54.23m-4.5-4.462v-8.1l-5.1 5.1l-.708-.708l5.6-5.6l-5.6-5.6l.708-.708l5.1 5.1v-8.1h.5L17.008 5.7l-4.3 4.3l4.3 4.3L12 19.308zm1-1.927l3.092-3.081l-3.092-3.092zm0-8.589L15.592 5.7L12.5 2.62z"/></svg>