<svg xmlns="http://www.w3.org/2000/svg" width="1em" height="1em" viewBox="0 0 24 24"><path fill="currentColor" d="M13.27 21v-6.638h.709l.56 1.138h1.269l-.635-1.27h1.27l.634 1.27h1.27l-.635-1.27h1.269l.634 1.27h1.27l-.635-1.27h1.48V21zm.884-.885h6.692v-3.73h-6.692zm-4.02.885l-.36-2.892q-.48-.145-1.036-.454q-.557-.31-.948-.664l-2.667 1.135l-1.865-3.25l2.305-1.738q-.044-.272-.073-.56q-.028-.287-.028-.558q0-.252.028-.53t.073-.626L3.258 9.125l1.865-3.212L7.771 7.03q.448-.373.97-.673q.52-.3 1.013-.464L10.134 3h3.731l.362 2.912q.575.201 1.016.463q.442.262.909.654l2.725-1.116l1.865 3.212l-2.382 1.796q.082.31.092.568q.01.26.01.511h-3.989q0-1.046-.727-1.773q-.727-.727-1.773-.727q-1.046 0-1.773.727q-.727.727-.727 1.773q0 .796.415 1.408q.416.611 1.112.904V21z"/></svg>