<svg xmlns="http://www.w3.org/2000/svg" width="1em" height="1em" viewBox="0 0 24 24"><path fill="currentColor" d="M10.902 21q-.33 0-.567-.232q-.237-.231-.298-.568l-.264-2.092q-.479-.145-1.036-.454q-.556-.31-.947-.664l-1.915.823q-.317.14-.644.022q-.327-.12-.504-.406L3.648 15.57q-.177-.286-.104-.629q.073-.342.348-.555l1.671-1.25q-.044-.272-.073-.55q-.028-.277-.028-.568q0-.29.028-.578q.03-.287.073-.578l-1.67-1.25q-.276-.213-.34-.555q-.063-.343.114-.648l1.06-1.8q.177-.287.504-.406q.327-.12.644.021l1.896.804q.448-.373.938-.664q.49-.29 1.045-.473l.283-2.092q.061-.342.32-.571q.26-.229.603-.229h2.08q.343 0 .602.229q.26.229.321.571l.264 2.112q.536.182 1.016.463q.48.28.909.654l1.992-.804q.318-.14.644-.021q.327.12.504.406l1.06 1.819q.177.286.104.629q-.073.342-.348.555l-.912.689q-.142.111-.32.143q-.176.032-.343-.03q-.39-.128-.784-.189q-.393-.06-.795-.066q-.74-.012-1.45.136q-.708.148-1.371.435q-.34-.57-.92-.9q-.578-.331-1.24-.331q-1.046 0-1.773.727q-.727.727-.727 1.773q0 .662.321 1.234t.896.912q-.252.73-.384 1.487q-.133.755-.133 1.53q0 .877.29 1.692t.774 1.555q.123.184.013.387t-.348.203m7.092-.21q-.16.062-.304-.043t-.18-.276q-.031-.16.049-.31t.24-.217q1.026-.348 1.656-1.217q.63-.87.63-1.958t-.62-1.957q-.62-.87-1.648-1.218q-.165-.067-.242-.217t-.046-.31q.036-.17.18-.276q.145-.104.304-.043q1.322.396 2.139 1.508q.817 1.111.817 2.513t-.817 2.514q-.817 1.111-2.158 1.507m-2.525-.05q-.48-.161-.899-.417q-.418-.256-.774-.611q-.356-.356-.621-.794t-.408-.937q-.061-.16.034-.294q.095-.135.26-.172q.16-.03.298.062t.204.252q.125.377.323.704q.197.327.48.61q.263.263.593.47q.33.206.681.331q.16.068.25.208t.039.3q-.056.165-.178.258q-.122.092-.282.03m.746-2.49q-.105.056-.214.013q-.109-.044-.109-.175V15.45q0-.13.109-.174q.109-.043.214.012l2.01 1.32q.106.055.106.161q0 .106-.106.162zm-3.153-2.265q-.166-.037-.261-.172q-.095-.134-.034-.294q.143-.48.408-.908q.265-.428.621-.784q.356-.356.793-.621q.438-.266.938-.427q.16-.062.291.03q.132.093.169.258q.03.16-.06.31t-.248.217q-.371.125-.701.322q-.33.197-.613.48q-.282.283-.48.6q-.197.317-.322.694q-.067.16-.204.243q-.138.082-.297.052"/></svg>