<svg xmlns="http://www.w3.org/2000/svg" width="1em" height="1em" viewBox="0 0 24 24"><path fill="currentColor" d="M9.27 22.5q-.31 0-.54-.23q-.23-.23-.23-.54V10.27q0-.31.23-.54q.23-.23.54-.23h5.46q.31 0 .54.23q.23.23.23.54v11.46q0 .31-.23.54q-.23.23-.54.23zM12 13.827q.333 0 .58-.247q.247-.247.247-.58t-.247-.58q-.247-.247-.58-.247t-.58.247q-.247.247-.247.58t.247.58q.247.247.58.247M12 5.5q-.846 0-1.623.238q-.777.239-1.479.702q-.177.13-.39.126q-.214-.003-.373-.162q-.166-.166-.144-.364q.022-.198.194-.332q.823-.598 1.802-.903Q10.965 4.5 12 4.5t2.013.305q.98.305 1.802.903q.172.134.194.332q.022.198-.144.364q-.16.16-.367.165q-.208.006-.385-.123q-.701-.463-1.484-.705Q12.846 5.5 12 5.5m0-4q-1.627 0-3.148.526q-1.521.526-2.773 1.553q-.177.16-.4.162q-.223.003-.389-.162q-.165-.166-.127-.389q.039-.223.216-.382q1.423-1.143 3.105-1.725Q10.165.5 12 .5q1.815 0 3.51.599q1.694.6 3.067 1.753q.171.16.222.373q.051.213-.114.379q-.14.16-.361.153q-.22-.007-.391-.167q-1.258-1.032-2.78-1.561Q13.634 1.5 12 1.5"/></svg>