<svg xmlns="http://www.w3.org/2000/svg" width="1em" height="1em" viewBox="0 0 24 24"><path fill="currentColor" d="M6.846 10.874q0-.141-.121-.194q-.121-.053-.221.047l-.98.98q-.132.124-.132.29q0 .165.131.295l.98.981q.1.1.222.05q.121-.05.121-.192zm6.285 4.28h-2.257q-.141 0-.194.121q-.053.121.047.221l.98.98q.124.132.29.132q.165 0 .295-.131l.981-.98q.1-.1.05-.222q-.05-.121-.192-.121m-.005-6.308q.141 0 .194-.121q.053-.121-.047-.221l-.98-.98q-.124-.132-.29-.132q-.165 0-.295.131l-.981.98q-.1.1-.05.222q.05.121.192.121zm4.028 2.023v2.257q0 .141.121.194q.121.053.221-.047l.98-.98q.132-.124.132-.29q0-.165-.131-.295l-.98-.981q-.1-.1-.222-.05q-.121.05-.121.192M4.615 19q-.69 0-1.152-.462Q3 18.075 3 17.385V6.615q0-.69.463-1.152Q3.925 5 4.615 5h14.77q.69 0 1.152.463q.463.462.463 1.152v10.77q0 .69-.462 1.152q-.463.463-1.153.463z"/></svg>