<svg xmlns="http://www.w3.org/2000/svg" width="1em" height="1em" viewBox="0 0 24 24"><path fill="currentColor" d="m10.923 15l.785.785q.13.13.292.13t.292-.13l.785-.785h1.52q.16 0 .282-.121t.121-.283v-1.52l.785-.784q.13-.13.13-.292t-.13-.292L15 10.923v-1.52q0-.16-.121-.282T14.596 9h-1.52l-.784-.785q-.13-.13-.292-.13t-.292.13L10.923 9h-1.52q-.16 0-.282.121T9 9.404v1.52l-.785.784q-.13.13-.13.292t.13.292l.785.785v1.52q0 .16.121.282t.283.121zM12 14.5v-5q1.038 0 1.77.73q.73.732.73 1.77t-.73 1.77q-.732.73-1.77.73M4.615 19q-.69 0-1.152-.462Q3 18.075 3 17.385V6.615q0-.69.463-1.152Q3.925 5 4.615 5h14.77q.69 0 1.152.463q.463.462.463 1.152v10.77q0 .69-.462 1.152q-.463.463-1.153.463zm0-1h14.77q.23 0 .423-.192q.192-.193.192-.423V6.615q0-.23-.192-.423Q19.615 6 19.385 6H4.615q-.23 0-.423.192Q4 6.385 4 6.615v10.77q0 .23.192.423q.193.192.423.192M4 18V6z"/></svg>