<svg xmlns="http://www.w3.org/2000/svg" width="1em" height="1em" viewBox="0 0 24 24"><path fill="currentColor" d="M11.5 12V3.654h1V12zm.5 6q-2.927 0-4.963-2.037Q5 13.927 5 11q0-1.783.836-3.315q.835-1.533 2.306-2.543l.72.72q-1.312.857-2.087 2.21Q6 9.425 6 11q0 2.5 1.75 4.25T12 17q2.5 0 4.25-1.75T18 11q0-1.575-.756-2.947t-2.106-2.191l.72-.72q1.432 1.048 2.287 2.571T19 11q0 2.927-2.037 4.963Q14.927 18 12 18m-4 5.77q-.31 0-.54-.23q-.23-.23-.23-.54q0-.31.23-.54q.23-.23.54-.23q.31 0 .54.23q.23.23.23.54q0 .31-.23.54q-.23.23-.54.23m4 0q-.31 0-.54-.23q-.23-.23-.23-.54q0-.31.23-.54q.23-.23.54-.23q.31 0 .54.23q.23.23.23.54q0 .31-.23.54q-.23.23-.54.23m4 0q-.31 0-.54-.23q-.23-.23-.23-.54q0-.31.23-.54q.23-.23.54-.23q.31 0 .54.23q.23.23.23.54q0 .31-.23.54q-.23.23-.54.23"/></svg>