<svg xmlns="http://www.w3.org/2000/svg" width="1em" height="1em" viewBox="0 0 24 24"><path fill="currentColor" d="M19.173 21h-4.961q-.349 0-.588-.24q-.24-.239-.24-.587v-4.961q0-.349.24-.588q.24-.24.588-.24h4.961q.348 0 .588.24q.239.24.239.588v1.653l1.654-1.653v4.961L20 18.52v1.654q0 .348-.24.588t-.587.239m-7.2-11.5q-1.046 0-1.773.727q-.727.727-.727 1.773q0 .796.415 1.408q.416.611 1.112.904v-1.135q-.238-.2-.383-.532q-.144-.332-.144-.645q0-.625.438-1.062t1.062-.438q.625 0 1.06.438q.434.437.434 1.062h1.006q0-1.046-.727-1.773q-.727-.727-1.773-.727M10.135 21l-.362-2.892q-.479-.145-1.035-.454q-.557-.31-.948-.664l-2.667 1.135l-1.865-3.25l2.305-1.738q-.044-.272-.073-.56q-.028-.287-.028-.558q0-.252.028-.53t.073-.626L3.258 9.125l1.865-3.212L7.771 7.03q.448-.373.97-.673q.52-.3 1.013-.464L10.134 3h3.731l.362 2.912q.575.201 1.016.463q.442.262.909.654l2.725-1.116l1.865 3.212l-2.382 1.796q.082.31.092.568q.01.26.01.511h-1.039q-.006-.437-.056-.77q-.05-.334-.15-.697l2.227-1.683l-.994-1.7l-2.552 1.07q-.454-.499-1.193-.934t-1.4-.578L13 4h-1.994l-.312 2.688q-.756.162-1.39.52q-.633.36-1.26.986L5.55 7.15l-.994 1.7l2.169 1.62q-.125.336-.175.73q-.05.394-.05.82q0 .38.05.755t.156.73l-2.15 1.645l.994 1.7l2.475-1.05q.6.606 1.36 1.002q.76.396 1.615.579V21z"/></svg>