<svg xmlns="http://www.w3.org/2000/svg" width="1em" height="1em" viewBox="0 0 24 24"><path fill="currentColor" d="M11.577 16.23h.846l.185-1.23q.569-.125.937-.33q.368-.205.701-.578l1.18.45l.443-.738l-.938-.77q.165-.542.165-1.034t-.165-1.035l.938-.769l-.442-.738l-1.18.45q-.334-.373-.702-.578q-.368-.205-.937-.33l-.185-1.23h-.846L11.392 9q-.569.125-.937.33q-.368.205-.701.578l-1.18-.45l-.443.738l.938.77q-.165.542-.165 1.034t.165 1.035l-.938.769l.442.738l1.18-.45q.334.373.702.578q.368.205.937.33zM12 14q-.825 0-1.412-.587T10 12q0-.825.588-1.412T12 10q.825 0 1.413.588T14 12q0 .825-.587 1.413T12 14m-6.385 6q-.69 0-1.152-.462Q4 19.075 4 18.385V5.615q0-.69.463-1.152Q4.925 4 5.615 4h12.77q.69 0 1.152.463q.463.462.463 1.152v12.77q0 .69-.462 1.152q-.463.463-1.153.463zm0-1h12.77q.23 0 .423-.192q.192-.193.192-.423V5.615q0-.23-.192-.423Q18.615 5 18.385 5H5.615q-.23 0-.423.192Q5 5.385 5 5.615v12.77q0 .23.192.423q.193.192.423.192M5 5v14z"/></svg>