<svg xmlns="http://www.w3.org/2000/svg" width="1em" height="1em" viewBox="0 0 24 24"><path fill="currentColor" d="M16.77 21v-8.462q.342 0 .659.053t.61.159v8.038q-.293.106-.61.16q-.317.052-.66.052m-2.115-.585v-7.292q.292-.18.607-.305q.314-.124.662-.199v8.3q-.348-.075-.662-.199q-.315-.124-.607-.305m4.23 0v-7.292q.953.554 1.534 1.506t.582 2.14q0 1.189-.582 2.14t-1.533 1.506m-5.077-.634q-.585-.58-.927-1.347q-.343-.769-.343-1.665t.343-1.667q.342-.771.927-1.35zM10.135 21l-.362-2.892q-.556-.164-1.055-.454q-.499-.29-.928-.664l-2.667 1.135l-1.865-3.25l2.305-1.738q-.044-.272-.073-.55q-.028-.277-.028-.568q0-.29.028-.578q.03-.287.073-.578L3.258 9.125l1.865-3.212L7.771 7.03q.448-.373.938-.664q.49-.29 1.045-.473L10.134 3h3.731l.362 2.912q.536.182 1.016.463q.48.28.909.654l2.725-1.116l1.865 3.212l-1.85 1.4q-.519-.183-1.05-.277q-.53-.094-1.073-.094q-.692 0-1.347.164t-1.284.444q-.32-.575-.912-.919q-.591-.343-1.253-.343q-1.046 0-1.773.727q-.727.727-.727 1.773q0 .662.328 1.24q.328.58.897.92q-.304.711-.414 1.47q-.11.758-.11 1.533q.063 1.054.446 2.048q.384.993 1.076 1.789z"/></svg>