<svg xmlns="http://www.w3.org/2000/svg" width="1em" height="1em" viewBox="0 0 24 24"><path fill="currentColor" d="M10.583 21q-.195 0-.346-.14q-.152-.14-.183-.354l-.28-2.398q-.48-.145-1.036-.454q-.557-.31-.948-.664l-1.915.823q-.317.14-.644.031q-.327-.11-.504-.415L3.648 15.57q-.177-.306-.104-.638q.073-.333.348-.546l1.671-1.25q-.044-.272-.073-.56q-.028-.287-.028-.558q0-.252.028-.53t.073-.626l-1.67-1.25q-.276-.213-.34-.555q-.063-.343.114-.648l1.06-1.8q.177-.287.504-.406q.327-.12.644.021l1.896.804q.448-.373.97-.673q.52-.3 1.013-.464L10.03 3.8q.056-.348.306-.574q.25-.226.598-.226h2.111q.348 0 .608.226t.315.574l.258 2.112q.575.201 1.016.463q.442.262.909.654l1.98-.804q.318-.14.648-.021q.33.12.507.406l1.06 1.819q.176.306.106.638q-.07.333-.345.546l-1.83 1.372q.04.096.049.173q.01.077.029.173q-.025.277-.265.473q-.24.196-.57.196l-3.061-.02q0-1.026-.74-1.753q-.74-.727-1.766-.727q-1.033 0-1.757.724t-.724 1.757q0 .777.418 1.398t1.109.913v6.223q0 .197-.123.34t-.294.145m8.59 0h-4.961q-.349 0-.588-.24q-.24-.239-.24-.587v-4.961q0-.349.24-.588q.24-.24.588-.24h4.961q.348 0 .588.24q.239.24.239.588v1.653l1.306-1.305q.106-.106.227-.053q.12.053.12.19v3.991q0 .137-.12.19q-.121.053-.227-.053L20 18.519v1.654q0 .348-.24.588t-.587.239"/></svg>