<svg xmlns="http://www.w3.org/2000/svg" width="1em" height="1em" viewBox="0 0 24 24"><path fill="currentColor" d="m8.77 17.988l.224.01q.11.002.237.002q.148 0 .276-.003q.128-.003.262-.009v1.166q0 .27.173.442t.443.173h8.769q.27 0 .442-.173t.173-.442v-8.77q0-.269-.173-.442t-.442-.173h-1.166l.01-.262Q18 9.379 18 9.23q0-.127-.003-.237q-.003-.11-.009-.225h1.166q.666 0 1.14.475q.475.474.475 1.14v8.77q0 .666-.474 1.14q-.475.475-1.141.475h-8.77q-.666 0-1.14-.474q-.475-.475-.475-1.141zm.464-2.757q-2.505 0-4.254-1.746q-1.75-1.745-1.75-4.25q0-2.506 1.746-4.255q1.745-1.75 4.251-1.75q2.506 0 4.255 1.746q1.749 1.745 1.749 4.251q0 2.506-1.746 4.255q-1.745 1.749-4.25 1.749m-.004-1q2.075 0 3.537-1.463t1.463-3.537q0-2.075-1.463-3.538T9.231 4.231q-2.075 0-3.538 1.462T4.231 9.231q0 2.075 1.462 3.537t3.538 1.463m0-5"/></svg>