<svg xmlns="http://www.w3.org/2000/svg" width="1em" height="1em" viewBox="0 0 24 24"><path fill="currentColor" d="M9.234 15.23q-2.505 0-4.254-1.745q-1.75-1.745-1.75-4.25q0-2.506 1.746-4.255q1.745-1.75 4.251-1.75q2.506 0 4.255 1.746q1.749 1.745 1.749 4.251q0 2.506-1.746 4.255q-1.745 1.749-4.25 1.749m-.466 3.923v-1.166l.231.01l.23.002q3.655 0 6.212-2.558Q18 12.885 18 9.231q0-.116-.003-.231t-.009-.23h1.166q.666 0 1.14.474q.475.474.475 1.14v8.77q0 .666-.474 1.14q-.475.475-1.141.475h-8.77q-.666 0-1.14-.474q-.475-.475-.475-1.141"/></svg>