<svg xmlns="http://www.w3.org/2000/svg" width="1em" height="1em" viewBox="0 0 24 24"><path fill="currentColor" d="M6 21.615q-1.671 0-2.836-1.164T2 17.615q0-1.67 1.164-2.835T6 13.615q1.671 0 2.836 1.165T10 17.615q0 1.672-1.164 2.836Q7.67 21.615 6 21.615m-2.475-9.882q.106-.933.799-1.583Q5.017 9.5 6 9.5q.556 0 1.042.232q.487.231.854.645l7.742-4.562q-.069-.188-.103-.404Q15.5 5.194 15.5 5q0-1.038.73-1.77q.732-.73 1.77-.73t1.77.73q.73.732.73 1.77t-.73 1.77q-.732.73-1.77.73q-.556 0-1.042-.232q-.487-.231-.854-.645l-7.742 4.562q.044.119.066.254l.047.294q-.579-.248-1.194-.375Q6.665 11.23 6 11.23q-.665 0-1.28.127q-.616.127-1.195.375M18 21.5q-1.038 0-1.77-.73q-.73-.732-.73-1.77q0-.194.035-.41q.034-.217.103-.405l-3.425-2.02q-.08-.367-.197-.703q-.116-.337-.287-.662l4.375 2.577q.367-.414.854-.645q.486-.232 1.042-.232q1.038 0 1.77.73q.73.732.73 1.77t-.73 1.77q-.732.73-1.77.73M6 18.162l1.477 1.482q.111.112.263.121q.152.01.283-.12q.13-.132.13-.277t-.13-.276l-1.477-1.477l1.483-1.482q.111-.112.121-.264q.01-.152-.121-.282q-.13-.131-.273-.131q-.143 0-.273.13L6 17.07l-1.483-1.482q-.111-.112-.263-.122q-.152-.01-.283.122q-.13.13-.13.273q0 .142.13.273l1.483 1.482l-1.483 1.483q-.111.112-.121.264q-.01.151.121.282q.13.131.273.131q.143 0 .273-.13z"/></svg>