<svg xmlns="http://www.w3.org/2000/svg" width="1em" height="1em" viewBox="0 0 24 24"><path fill="currentColor" d="M6.212 12.577q-.51 0-.861-.351T5 11.366V3.787q0-.51.351-.86q.35-.351.86-.351h11.577q.51 0 .861.35q.351.352.351.861v7.577q0 .51-.351.861q-.35.35-.86.35zM6 7.077h5.5v-3.5H6.462q-.193 0-.327.135Q6 3.846 6 4.038zm6.5 0H18V4.038q0-.192-.135-.326q-.134-.135-.327-.135H12.5zm-1 4.5v-3.5H6v3.038q0 .193.135.327q.134.135.327.135zm1 0h5.038q.193 0 .327-.135q.135-.134.135-.327V8.077h-5.5zM7 20.712l-3.288-3.289L7 14.135l.708.688l-2.075 2.1H19.5v1H5.633l2.075 2.1z"/></svg>