<svg xmlns="http://www.w3.org/2000/svg" width="1em" height="1em" viewBox="0 0 24 24"><path fill="currentColor" d="m6.3 21.3l-2.735-2.735q-.242-.242-.242-.565q0-.323.242-.565L6.3 14.7q.3-.3.7-.3t.7.31q.3.29.29.703q-.009.412-.29.712L6.825 17H19q.426 0 .713.287t.287.712t-.287.714Q19.426 19 19 19H6.825l.875.875q.275.3.287.713T7.7 21.3q-.293.3-.696.3t-.704-.3M5.212 13q-.51 0-.861-.351Q4 12.3 4 11.79V2.211q0-.51.351-.861Q4.7 1 5.211 1h13.577q.51 0 .861.351q.351.35.351.86v9.577q0 .51-.351.861q-.35.351-.86.351zM6 6h5V3H6.462q-.193 0-.327.135Q6 3.269 6 3.462zm7 0h5V3.462q0-.193-.135-.327Q17.731 3 17.538 3H13zm-2 5V8H6v2.538q0 .193.135.327q.134.135.327.135zm2 0h4.538q.193 0 .327-.135q.135-.134.135-.327V8h-5z"/></svg>