<svg xmlns="http://www.w3.org/2000/svg" width="1em" height="1em" viewBox="0 0 24 24"><path fill="currentColor" d="M12 17q.31 0 .54-.23q.23-.23.23-.54q0-.309-.23-.539q-.23-.23-.54-.23q-.31 0-.54.23q-.23.23-.23.54q0 .31.23.54q.23.229.54.229m-4 0q.31 0 .54-.23q.23-.23.23-.54q0-.309-.23-.539q-.23-.23-.54-.23q-.31 0-.54.23q-.23.23-.23.54q0 .31.23.54Q7.69 17 8 17m8 0q.31 0 .54-.23q.23-.23.23-.54q0-.309-.23-.539q-.23-.23-.54-.23q-.31 0-.54.23q-.23.23-.23.54q0 .31.23.54q.23.229.54.229M4 20V4h16v16zm1-1h14V5H5zM5 5v14z"/></svg>