<svg xmlns="http://www.w3.org/2000/svg" width="1em" height="1em" viewBox="0 0 24 24"><path fill="currentColor" d="M12 20.962q-3.013-.895-5.007-3.651Q5 14.554 5 11.1V5.692l7-2.615l7 2.615V11.1q0 .106-.003.212q-.003.105-.009.211q-.186-.03-.367-.046q-.18-.015-.371-.015q-2.094.019-3.547 1.469q-1.453 1.45-1.453 3.53v4.02q-.297.16-.61.28t-.64.2m4.37.039q-.35 0-.62-.27q-.27-.268-.27-.618v-2.8q0-.35.27-.6t.62-.25h.11v-1q0-.749.511-1.26q.51-.51 1.259-.51t1.259.51q.51.511.51 1.26v1h.112q.358 0 .613.25q.256.25.256.6v2.8q0 .35-.256.619q-.255.269-.613.269zm.88-4.538h2v-1q0-.425-.288-.713t-.712-.287q-.425 0-.712.287t-.288.713z"/></svg>