<svg xmlns="http://www.w3.org/2000/svg" width="1em" height="1em" viewBox="0 0 24 24"><path fill="currentColor" d="M12.525 15.5q.72 0 1.41-.256q.692-.256 1.232-.767q.137-.142.095-.277q-.043-.135-.254-.204q-.931-.284-1.675-.847t-1.25-1.449q-.481-.837-.665-1.782q-.183-.945.167-1.837q.08-.212-.073-.335q-.152-.123-.331-.073q-1.264.44-1.985 1.51q-.721 1.069-.721 2.317q0 1.663 1.184 2.832q1.183 1.168 2.866 1.168M12 20.842q-.137 0-.287-.025t-.28-.075Q8.48 19.617 6.74 16.926Q5 14.235 5 11.1V6.817q0-.51.295-.923q.295-.413.755-.6l5.385-2q.292-.106.565-.106q.273 0 .565.106l5.385 2q.46.187.755.6q.295.414.295.923V11.1q0 3.135-1.74 5.826t-4.693 3.816q-.13.05-.28.075t-.287.025m0-.942q2.6-.825 4.3-3.3t1.7-5.5V6.798q0-.192-.106-.346q-.106-.154-.298-.23l-5.384-2q-.097-.04-.212-.04t-.212.04l-5.384 2q-.192.076-.298.23Q6 6.606 6 6.798V11.1q0 3.025 1.7 5.5t4.3 3.3m0-7.862"/></svg>