<svg xmlns="http://www.w3.org/2000/svg" width="1em" height="1em" viewBox="0 0 24 24"><path fill="currentColor" d="M12 12.5q1.258 0 2.129-.871T15 9.5q0-1.258-.871-2.129T12 6.5q-1.258 0-2.129.871T9 9.5q0 1.258.871 2.129T12 12.5m0 7.4q1.34-.437 2.43-1.305q1.09-.868 1.882-2.028q-.999-.511-2.084-.79Q13.142 15.5 12 15.5q-1.142 0-2.228.278q-1.085.278-2.084.79q.793 1.159 1.882 2.027q1.09.868 2.43 1.305m0 .942q-.137 0-.287-.025t-.28-.075Q8.48 19.617 6.74 16.926Q5 14.235 5 11.1V6.817q0-.51.295-.923q.295-.413.755-.6l5.385-2q.292-.106.565-.106q.273 0 .565.106l5.385 2q.46.187.755.6q.295.414.295.923V11.1q0 3.135-1.74 5.826t-4.693 3.816q-.13.05-.28.075t-.287.025"/></svg>