<svg xmlns="http://www.w3.org/2000/svg" width="1em" height="1em" viewBox="0 0 24 24"><path fill="currentColor" d="M12.048 20.88q-.136 0-.286-.027q-.15-.028-.282-.078q-2.951-1.125-4.694-3.823T5 11.119V6.817q0-.514.293-.926q.293-.412.757-.597l5.385-2q.292-.106.565-.106q.273 0 .565.106l5.385 2q.464.185.757.597t.293.926V11.1q0 .106-.003.212q-.003.105-.009.211q-.186-.03-.367-.046q-.18-.015-.371-.015q-.068 0-.13.005q-.063.006-.132.018l.01-.188Q18 11.206 18 11.1V6.798q0-.192-.106-.346q-.106-.154-.298-.23l-5.384-2q-.097-.04-.212-.04t-.212.04l-5.384 2q-.192.076-.298.23Q6 6.606 6 6.798V11.1q0 3.025 1.7 5.5t4.3 3.3q.326-.1.637-.243q.311-.144.613-.315v1.145q-.154.061-.301.132l-.328.156q-.13.05-.284.078q-.152.028-.289.028M16.37 21q-.35 0-.619-.27q-.27-.268-.27-.618v-2.8q0-.35.27-.6t.62-.25h.11v-1q0-.749.511-1.26q.51-.51 1.259-.51t1.259.51q.51.511.51 1.26v1h.112q.358 0 .613.25q.256.25.256.6v2.8q0 .35-.256.619q-.255.269-.613.269zm.881-4.538h2v-1q0-.425-.288-.713t-.712-.287q-.425 0-.712.287t-.288.713z"/></svg>