<svg xmlns="http://www.w3.org/2000/svg" width="1em" height="1em" viewBox="0 0 24 24"><path fill="currentColor" d="M12 15.308q2.088-1.896 2.67-2.642q.58-.745.58-1.493q0-.729-.53-1.255q-.531-.526-1.266-.526q-.448 0-.833.172q-.384.172-.621.474q-.242-.302-.626-.474t-.828-.172q-.727 0-1.261.525q-.535.525-.535 1.255q0 .385.103.71q.103.323.454.76q.35.435.987 1.064q.636.628 1.706 1.602m0 5.654q-3.013-.895-5.007-3.651Q5 14.554 5 11.1V5.692l7-2.615l7 2.615V11.1q0 3.454-1.993 6.21q-1.994 2.757-5.007 3.652"/></svg>