<svg xmlns="http://www.w3.org/2000/svg" width="1em" height="1em" viewBox="0 0 24 24"><path fill="currentColor" d="M7.308 21.115q-.633 0-1.067-.433q-.433-.434-.433-1.067q0-.632.433-1.066q.434-.434 1.067-.434q.632 0 1.066.434q.434.434.434 1.066q0 .633-.434 1.067q-.434.433-1.066.433m9.384 0q-.632 0-1.066-.433q-.434-.434-.434-1.067q0-.632.434-1.066q.434-.434 1.066-.434q.633 0 1.067.434q.433.434.433 1.066q0 .633-.433 1.067q-.434.433-1.067.433M3.808 3.5H2.5q-.213 0-.357-.143Q2 3.213 2 3t.143-.357Q2.287 2.5 2.5 2.5h1.438q.237 0 .43.121q.192.121.297.339l3.88 8.155h6.634q.173 0 .308-.086q.134-.087.23-.24l3.356-6.039q.067-.115.177-.183q.11-.067.25-.067q.287 0 .43.247q.143.247.003.497l-3.364 6.09q-.217.366-.564.574q-.347.207-.763.207H8.1l-1.215 2.231q-.154.23-.01.5t.433.27h10.384q.214 0 .357.143t.143.356q0 .214-.143.357t-.357.143H7.308q-.875 0-1.309-.734q-.434-.735-.018-1.485l1.504-2.68zm9.598 3H9q-.213 0-.357-.143Q8.5 6.213 8.5 6t.143-.357Q8.787 5.5 9 5.5h4.406L11.64 3.735q-.146-.147-.143-.335q.003-.188.15-.335q.145-.14.343-.143q.198-.003.345.143l2.388 2.37q.242.242.242.565q0 .323-.242.565l-2.388 2.389q-.14.14-.332.133q-.191-.006-.338-.152q-.14-.14-.14-.345t.14-.344z"/></svg>