<svg xmlns="http://www.w3.org/2000/svg" width="1em" height="1em" viewBox="0 0 24 24"><path fill="currentColor" d="m10 17.077l5.577-3.577L10 9.923zM4.615 20q-.69 0-1.152-.462Q3 19.075 3 18.385V7h6V5.615q0-.69.463-1.152Q9.925 4 10.615 4h2.77q.69 0 1.153.463q.462.462.462 1.152V7h6v11.385q0 .69-.462 1.152q-.463.463-1.153.463zm0-1h14.77q.23 0 .423-.192q.192-.193.192-.423V8H4v10.385q0 .23.192.423q.193.192.423.192M10 7h4V5.615q0-.23-.192-.423Q13.615 5 13.385 5h-2.77q-.23 0-.423.192q-.192.193-.192.423zM4 19V8z"/></svg>