<svg xmlns="http://www.w3.org/2000/svg" width="1em" height="1em" viewBox="0 0 24 24"><path fill="currentColor" d="M15.306 12.115h-.385l-1-1h1.629l2.75-5.077q.115-.211.01-.375q-.106-.163-.318-.163H8.306l-1-1h11.106q.651 0 .964.536q.312.535-.026 1.168l-2.78 5.13q-.218.404-.502.593q-.283.188-.762.188m-7.998 9q-.633 0-1.067-.433q-.433-.434-.433-1.067q0-.632.433-1.066q.434-.434 1.067-.434q.632 0 1.066.434q.434.434.434 1.066q0 .633-.434 1.067q-.434.433-1.066.433m12.646.254l-5.266-5.254H7.446q-.87 0-1.3-.726q-.43-.726-.027-1.481l1.435-2.612L5.484 6.9L2.593 4.008q-.14-.14-.15-.345q-.01-.203.15-.363t.354-.16q.194 0 .354.16l17.362 17.362q.14.14.152.34q.013.202-.152.367q-.16.16-.354.16q-.195 0-.354-.16m-6.266-6.254l-3-3H8.215l-1.192 2.231q-.154.289-.01.529q.145.24.433.24zm1.862-4h-1.629zm1.142 10q-.613 0-1.056-.433q-.444-.434-.444-1.067q0-.632.444-1.066q.443-.434 1.056-.434q.614 0 1.057.434q.443.434.443 1.066q0 .633-.443 1.067q-.443.433-1.057.433"/></svg>