<svg xmlns="http://www.w3.org/2000/svg" width="1em" height="1em" viewBox="0 0 24 24"><path fill="currentColor" d="M14.921 12.115L7.306 4.5h12.97l-4.128 7.615zm-7.613 9q-.614 0-1.057-.433q-.443-.434-.443-1.067q0-.632.443-1.066q.443-.434 1.057-.434q.613 0 1.056.434q.444.434.444 1.066q0 .633-.444 1.067q-.443.433-1.056.433m13 .608l-5.62-5.608H4.925l2.629-4.819L5.484 6.9L2.239 3.654l.708-.708l18.07 18.07zm-3.616-.608q-.613 0-1.056-.433q-.444-.434-.444-1.067q0-.632.444-1.066q.443-.434 1.056-.434q.614 0 1.057.434q.443.434.443 1.066q0 .633-.443 1.067q-.443.433-1.057.433"/></svg>