<svg xmlns="http://www.w3.org/2000/svg" width="1em" height="1em" viewBox="0 0 24 24"><path fill="currentColor" d="M7.308 21.115q-.633 0-1.067-.433q-.433-.434-.433-1.067q0-.632.433-1.066q.434-.434 1.067-.434q.632 0 1.066.434q.434.434.434 1.066q0 .633-.434 1.067q-.434.433-1.066.433m9.384 0q-.632 0-1.066-.433q-.434-.434-.434-1.067q0-.632.434-1.066q.434-.434 1.066-.434q.633 0 1.067.434q.433.434.433 1.066q0 .633-.433 1.067q-.434.433-1.067.433M5.881 5.5l2.669 5.615h7L18.627 5.5zm-.489-1h14.923l-4.167 7.615H8.1l-1.638 3h11.73v1H4.74l2.745-4.9L3.808 3.5H2v-1h2.442zm3.158 6.615h7z"/></svg>