<svg xmlns="http://www.w3.org/2000/svg" width="1em" height="1em" viewBox="0 0 24 24"><path fill="currentColor" d="M5.846 21q-.666 0-1.14-.475q-.475-.474-.475-1.14V4.615q0-.666.474-1.14Q5.18 3 5.846 3h7.77q.666 0 1.14.475q.475.474.475 1.14v4.981q0 .213-.144.356t-.357.144q-.213 0-.356-.144q-.143-.143-.143-.356v-4.98q0-.27-.173-.443T13.615 4H5.846q-.27 0-.442.173t-.173.442v7.18q.392-.391.902-.593Q6.643 11 7.23 11h4.5q.212 0 .356.144t.144.357q0 .212-.144.356q-.144.143-.356.143h-4.5q-.825 0-1.413.588T5.231 14v5.385q0 .269.173.442t.442.173h4.385q.212 0 .356.144t.144.357q0 .212-.144.356q-.144.143-.356.143zM9.731 9q-.633 0-1.067-.434q-.433-.433-.433-1.066t.433-1.066Q9.098 6 9.731 6q.632 0 1.066.434q.434.433.434 1.066t-.434 1.066Q10.363 9 9.731 9m-.5 7.5V18q0 .213.144.356t.356.144q.161 0 .282-.094t.149-.239v-1.269q-.024-.164-.035-.329q-.012-.164-.012-.338q0-.226.03-.443q.028-.218.086-.426V14q0-.213-.144-.356T9.73 13.5q-.213 0-.356.144T9.231 14v1.5h-1.5q-.213 0-.356.144q-.144.144-.144.357t.144.356q.143.143.356.143zm7.772 5q-1.866 0-3.185-1.315q-1.318-1.316-1.318-3.182t1.315-3.185q1.316-1.318 3.182-1.318t3.185 1.315q1.318 1.316 1.318 3.182t-1.315 3.185Q18.869 21.5 17.003 21.5m.382-4.654V14.5q0-.154-.116-.27q-.115-.115-.269-.115t-.27.116q-.115.115-.115.269V17q0 .05.112.273l1.675 1.675q.111.112.263.121q.152.01.283-.12t.13-.274q0-.142-.13-.273zM7.23 20h3.579h-5.58z"/></svg>