<svg xmlns="http://www.w3.org/2000/svg" width="1em" height="1em" viewBox="0 0 24 24"><path fill="currentColor" d="M9.73 9q-.632 0-1.066-.434q-.433-.433-.433-1.066t.433-1.066Q9.098 6 9.731 6q.632 0 1.066.434q.434.433.434 1.066t-.434 1.066Q10.363 9 9.731 9m7.272 12.5q-1.866 0-3.185-1.315q-1.318-1.316-1.318-3.182t1.315-3.185q1.316-1.318 3.182-1.318t3.185 1.315q1.318 1.316 1.318 3.182t-1.315 3.185Q18.869 21.5 17.003 21.5m1.672-2.279l.546-.546l-1.836-1.829v-2.73h-.77v3.046zM4.231 21V3h11v7.363q-.281.056-.521.142q-.24.085-.48.19V4h-9v7h8.074v.215q-1.16.748-1.915 1.8t-1.062 2.347h-.096V13.5h-1v2h-2v1h2v2h.954v-1.038q.057.97.382 1.87q.325.9.88 1.668z"/></svg>