<svg xmlns="http://www.w3.org/2000/svg" width="1em" height="1em" viewBox="0 0 24 24"><path fill="currentColor" d="M9.73 9q-.632 0-1.066-.434q-.433-.433-.433-1.066t.433-1.066Q9.098 6 9.731 6q.632 0 1.066.434q.434.433.434 1.066t-.434 1.066Q10.363 9 9.731 9m7.272 12.5q-1.866 0-3.185-1.315q-1.318-1.316-1.318-3.182t1.315-3.185q1.316-1.318 3.182-1.318t3.185 1.315q1.318 1.316 1.318 3.182t-1.315 3.185Q18.869 21.5 17.003 21.5m1.672-2.279l.546-.546l-1.836-1.829v-2.73h-.77v3.046zM5.846 21q-.666 0-1.14-.475q-.475-.474-.475-1.14V4.615q0-.666.474-1.14Q5.18 3 5.846 3h7.77q.666 0 1.14.475q.475.474.475 1.14v5.748q-.281.056-.521.142q-.24.085-.48.19v-6.08q0-.269-.172-.442T13.615 4H5.846q-.27 0-.442.173t-.173.442v7.18q.392-.391.902-.593Q6.643 11 7.23 11h6.073v.215q-1.16.748-1.915 1.8t-1.062 2.347h-.096V13.5h-1v2h-2v1h2v2h.954v-1.038q.057.97.382 1.87q.325.9.88 1.668z"/></svg>