<svg xmlns="http://www.w3.org/2000/svg" width="1em" height="1em" viewBox="0 0 24 24"><path fill="currentColor" d="m17.33 18l-3.52-3.521l.713-.714L18 17.242v-2.454q0-.212.144-.356t.357-.144q.212 0 .356.144q.143.144.143.356v3.404q0 .344-.232.576q-.232.232-.576.232h-3.461q-.213 0-.356-.144q-.144-.144-.144-.357q0-.212.144-.356q.143-.143.356-.143zM18 6.708L6.057 18.65q-.136.137-.34.146q-.204.01-.363-.15q-.16-.16-.16-.354q0-.194.16-.354l11.938-11.93h-2.561q-.213 0-.356-.148t-.144-.36q0-.213.144-.357Q14.518 5 14.73 5h3.461q.344 0 .576.232q.232.232.232.576v3.404q0 .212-.144.356t-.357.144q-.212 0-.356-.144Q18 9.424 18 9.212zm-8.613 3.367L5.335 6.023q-.14-.14-.131-.344q.01-.204.146-.344q.138-.14.345-.14t.347.14l4.033 4.052z"/></svg>