<svg xmlns="http://www.w3.org/2000/svg" width="1em" height="1em" viewBox="0 0 24 24"><path fill="currentColor" d="M21.615 19h-6.23v-1h6.23zM9 3V2h6v1zm3 18q-1.665 0-3.119-.626q-1.454-.626-2.542-1.713q-1.087-1.088-1.713-2.542Q4 14.666 4 13.001q0-1.664.626-3.12q.626-1.454 1.713-2.542q1.088-1.087 2.542-1.713Q10.335 5 12 5q1.517 0 2.868.525t2.43 1.47l1.329-1.33l.708.708l-1.323 1.335q.917 1.032 1.439 2.36q.522 1.326.549 2.815q-.215-.062-.438-.11q-.224-.048-.562-.067q0-.173-.022-.353T18.925 12h-4.333l-4.442 7.748q.438.12.903.186q.464.066.947.066q.217 0 .438-.012q.222-.013.439-.044q.056.25.132.49q.076.241.191.474q-.31.055-.6.074q-.29.018-.6.018m-.154-9.77h6.93q-.45-1.665-1.546-2.878Q16.133 7.138 14.6 6.5zm-1.48 1l3.503-5.992q-.457-.119-.91-.178Q12.506 6 12.04 6q-1.234 0-2.353.391q-1.12.392-2.037 1.109zM5.1 14h5.38L7.055 8.008q-1.108 1.175-1.668 2.71Q4.825 12.254 5.1 14m4.3 5.5l2.715-4.73H5.223q.43 1.626 1.538 2.859Q7.867 18.862 9.4 19.5m9.6-6.794"/></svg>