<svg xmlns="http://www.w3.org/2000/svg" width="1em" height="1em" viewBox="0 0 24 24"><path fill="currentColor" d="M12.73 19.194q-.147-1.26.202-2.407q.349-1.149 1.12-2.039q.771-.89 1.835-1.441q1.063-.551 2.344-.597q-.02-.18-.035-.355q-.015-.176-.046-.355h-3.552l-4.044 7.054q.565.138 1.138.164q.573.026 1.039-.024M9 3V2h6v1zm2.846 8.23h6.13q-.43-1.447-1.39-2.487t-2.37-1.58zm-1.475 1l3.094-5.284q-1.525-.365-2.927-.011q-1.403.353-2.498 1.248zM5.85 14h4.637L7.469 8.715q-.952 1.033-1.407 2.426Q5.606 12.535 5.85 14m3.935 4.817l2.33-4.048H6.023q.367 1.346 1.388 2.446q1.02 1.1 2.374 1.602M12 21q-1.663 0-3.118-.626q-1.455-.626-2.545-1.716q-1.09-1.09-1.714-2.545Q4 14.658 4 13t.626-3.113q.626-1.454 1.716-2.545q1.09-1.09 2.546-1.716Q10.342 5 12 5q1.575 0 2.865.525q1.29.525 2.427 1.475l1.335-1.335l.708.708l-1.323 1.335q.911 1.129 1.436 2.381q.525 1.253.552 2.794q-.215-.068-.474-.11q-.259-.042-.526-.061q-.115-2.824-2.137-4.768Q14.843 6 12 6Q9.075 6 7.038 8.038T5 13q0 2.925 2.038 4.963T12 20q.217 0 .438-.012q.222-.013.439-.044q.056.25.132.488q.076.237.191.476q-.31.055-.6.074q-.29.018-.6.018m9.615-2h-6.23v-1h6.23z"/></svg>