<svg xmlns="http://www.w3.org/2000/svg" width="1em" height="1em" viewBox="0 0 24 24"><path fill="currentColor" d="M18 19h-2.115q-.213 0-.357-.144q-.143-.144-.143-.357q0-.212.143-.356q.144-.143.357-.143H18v-2.115q0-.213.144-.357t.357-.143q.212 0 .356.143q.143.144.143.357V18h2.115q.213 0 .357.144t.143.357q0 .212-.143.356q-.144.143-.357.143H19v2.115q0 .213-.144.357q-.144.143-.357.143q-.212 0-.356-.143q-.143-.144-.143-.357zM9.5 3q-.213 0-.356-.144T9 2.5q0-.212.144-.356Q9.287 2 9.5 2h5q.213 0 .356.144q.144.144.144.357q0 .212-.144.356Q14.713 3 14.5 3zm2.346 8.23h6.93q-.45-1.665-1.546-2.878Q16.133 7.138 14.6 6.5zm-1.48 1l3.503-5.992q-.457-.119-.91-.178Q12.506 6 12.04 6q-1.234 0-2.353.391q-1.12.392-2.037 1.109zM5.1 14h5.38L7.055 8.008q-1.108 1.175-1.668 2.71Q4.825 12.254 5.1 14m4.3 5.5l2.715-4.73H5.223q.43 1.626 1.538 2.859Q7.867 18.862 9.4 19.5M12 21q-1.665 0-3.119-.626q-1.454-.626-2.542-1.713q-1.087-1.088-1.713-2.542Q4 14.666 4 13.001q0-1.664.626-3.12q.626-1.454 1.713-2.542q1.088-1.087 2.542-1.713Q10.335 5 12 5q1.517 0 2.868.525t2.43 1.47l.975-.976q.14-.14.341-.153q.201-.012.37.157q.156.156.16.347q.002.192-.157.357l-.975.98q.886 1.003 1.408 2.268q.522 1.265.58 2.692q0 .23-.144.384q-.144.155-.357.155q-.212 0-.356-.144q-.143-.144-.143-.356q0-.173-.022-.353T18.925 12h-4.333l-4.442 7.748q.438.12.903.186q.464.066.947.066q.217 0 .438-.012q.222-.013.439-.044q.194-.05.375.063t.23.306q.05.195-.062.375q-.112.181-.307.231q-.19.05-.544.066Q12.215 21 12 21"/></svg>