<svg xmlns="http://www.w3.org/2000/svg" width="1em" height="1em" viewBox="0 0 24 24"><path fill="currentColor" d="M3.425 9.33q.842-2.768 3.186-4.55T12 3q1.715 0 3.228.59q1.512.59 2.716 1.652q-.138.304-.226.555q-.087.251-.143.478q-1.1-1.05-2.525-1.662T12 4Q9.475 4 7.475 5.413t-2.9 3.612q-.31-.006-.601.067q-.291.073-.549.239M12 21q-3.046 0-5.39-1.771t-3.185-4.54q.252.165.543.24q.292.077.607.071q.9 2.2 2.9 3.6T12 20q3.325 0 5.663-2.337T20 12q0-.425-.038-.85t-.137-.85q.217.062.418.112q.201.05.43.069q.052 0 .104-.006t.098-.017q.07.38.097.758q.028.378.028.784q0 1.863-.71 3.506t-1.927 2.857q-1.215 1.216-2.857 1.926Q13.863 21 12 21m-3.6-9.823L10.058 9.5L8.375 7.817l-.608.608l1.075 1.05l-1.075 1.075zM21 8.692q-.69 0-1.191-.5q-.501-.502-.501-1.192q0-.598.307-1.245q.308-.647 1.385-2.217q1.077 1.57 1.385 2.217q.307.647.307 1.245q0 .69-.5 1.191q-.502.501-1.192.501m-5.375 2.49l.633-.632l-1.075-1.075l1.05-1.05l-.608-.608L13.942 9.5zM12 13.5q-.688 0-1.368.198q-.68.198-1.288.608l-3.652-2.133q0-.361-.142-.692q-.142-.331-.454-.512q-.434-.242-.907-.118q-.472.124-.72.553q-.242.434-.118.907q.124.472.553.72q.311.18.673.142q.361-.038.673-.22l3.36 1.937q-.31.31-.58.672q-.27.363-.476.823h.996q.525-.9 1.425-1.45t2.025-.55q1.125 0 2.025.55t1.425 1.45h.996q-.696-1.454-1.905-2.17Q13.333 13.5 12 13.5m0-1.5"/></svg>