<svg xmlns="http://www.w3.org/2000/svg" width="1em" height="1em" viewBox="0 0 24 24"><path fill="currentColor" d="M8.4 11.177L10.058 9.5L8.375 7.817l-.608.608l1.075 1.05l-1.075 1.075zM21 8.692q-.69 0-1.191-.5q-.501-.502-.501-1.192q0-.598.307-1.245q.308-.647 1.385-2.217q1.077 1.57 1.385 2.217q.307.647.307 1.245q0 .69-.5 1.191q-.502.501-1.192.501m-5.375 2.49l.633-.632l-1.075-1.075l1.05-1.05l-.608-.608L13.942 9.5zM12 13.5q-.688 0-1.368.198q-.68.198-1.288.608l-3.652-2.133q0-.361-.142-.692q-.142-.331-.454-.512q-.434-.242-.907-.118q-.472.124-.72.553q-.242.434-.118.907q.124.472.553.72q.311.18.673.142q.361-.038.673-.22l3.36 1.937q-.31.31-.58.672q-.27.363-.476.823h.996q.525-.9 1.425-1.45t2.025-.55q1.125 0 2.025.55t1.425 1.45h.996q-.696-1.454-1.905-2.17Q13.333 13.5 12 13.5m0 7.5q-1.87 0-3.512-.71q-1.642-.711-2.867-1.936t-1.923-2.858Q3 13.863 3 12t.698-3.496q.698-1.633 1.923-2.858t2.867-1.935Q10.131 3 12 3q1.715 0 3.228.59q1.512.59 2.716 1.652q-.196.439-.32.858q-.124.42-.124.9q0 1.379.91 2.363q.91.983 2.263 1.118q.052 0 .104-.006t.098-.017q.07.38.097.758q.028.378.028.784q0 1.863-.71 3.506t-1.927 2.857q-1.215 1.216-2.857 1.926Q13.863 21 12 21"/></svg>