<svg xmlns="http://www.w3.org/2000/svg" width="1em" height="1em" viewBox="0 0 24 24"><path fill="currentColor" d="m17.213 14.363l-8.955-8.93q.932-.223 1.865-.328T12 5q2.702 0 5.218.876q2.517.876 4.636 2.559q.286.217.318.578q.032.36-.23.622zm2.716 6.981l-4.848-4.848l-2.516 2.516q-.242.242-.565.242q-.323 0-.565-.242L2.077 9.654q-.262-.262-.242-.635q.019-.373.305-.59q.823-.633 1.547-1.085q.723-.452 1.442-.794L2.625 4.046q-.146-.146-.153-.344q-.007-.198.159-.364q.165-.165.357-.165t.356.165l17.298 17.299q.146.146.156.344q.01.198-.156.363q-.165.166-.356.166t-.357-.166"/></svg>