<svg xmlns="http://www.w3.org/2000/svg" width="1em" height="1em" viewBox="0 0 24 24"><path fill="currentColor" d="M19 21q-.213 0-.357-.144q-.143-.143-.143-.356V18H16q-.213 0-.356-.144q-.144-.144-.144-.357q0-.212.144-.356Q15.788 17 16 17h2.5v-2.5q0-.213.144-.356Q18.788 14 19 14t.356.144q.143.144.143.356V17H22q.213 0 .356.144t.144.357q0 .212-.144.356Q22.213 18 22 18h-2.5v2.5q0 .213-.144.356Q19.212 21 19 21M3 21L20.994 3.006v8.932q-.386-.169-.976-.27q-.59-.1-1.018-.1q-2.47 0-4.201 1.73q-1.732 1.732-1.732 4.202q0 .938.298 1.84q.298.9.856 1.66z"/></svg>