<svg xmlns="http://www.w3.org/2000/svg" width="1em" height="1em" viewBox="0 0 24 24"><path fill="currentColor" d="m16.58 13.756l-.667-.668q.512-.669.8-1.453Q17 10.85 17 10q0-1-.371-1.92q-.371-.918-1.09-1.618L16.2 5.8q.835.854 1.283 1.938q.448 1.085.448 2.281q0 1.027-.339 1.99q-.338.962-1.011 1.747m-2.88-2.88l-2.578-2.578q.204-.117.423-.17q.22-.051.454-.051q.8 0 1.362.561q.561.562.561 1.362q0 .235-.052.454t-.17.423m5.222 5.215l-.661-.661q.98-1.125 1.51-2.528Q20.3 11.5 20.3 10q0-1.65-.632-3.168q-.631-1.519-1.806-2.694l.661-.661q1.298 1.315 2.003 2.996q.705 1.68.705 3.527q0 1.696-.58 3.274t-1.728 2.818m.91 5.162L12.5 13.92v6.194h-1V12.92L7.23 8.658q-.115.338-.172.67Q7 9.663 7 10q0 1 .371 1.92q.371.918 1.09 1.618L7.8 14.2q-.835-.835-1.283-1.92Q6.07 11.197 6.07 10q0-.54.089-1.065q.088-.525.329-1.027L4.712 6.133q-.506.898-.76 1.863Q3.7 8.962 3.7 10q0 1.65.632 3.168q.631 1.519 1.806 2.694l-.661.661q-1.298-1.315-2.003-2.996q-.705-1.68-.705-3.527q0-1.215.305-2.374t.934-2.197L2.746 4.167l.708-.713l17.092 17.092z"/></svg>