<svg xmlns="http://www.w3.org/2000/svg" width="1em" height="1em" viewBox="0 0 24 24"><path fill="currentColor" d="M4.373 19.627L19.627 4.373q.379-.379.876-.171t.497.742v2.287h-1V5.42L5.421 20H17.5v1H4.944q-.534 0-.742-.497q-.208-.497.171-.876m16.128 1.604q-.31 0-.521-.21t-.21-.52q0-.31.21-.521q.21-.21.52-.21q.31 0 .52.21t.21.52q0 .31-.21.52t-.52.21m-.5-3.96v-7.155q0-.212.144-.356t.357-.144q.212 0 .356.144q.143.144.143.356v7.154q0 .213-.144.356q-.144.144-.357.144q-.212 0-.356-.144Q20 17.482 20 17.27"/></svg>