<svg xmlns="http://www.w3.org/2000/svg" width="1em" height="1em" viewBox="0 0 24 24"><path fill="currentColor" d="M4.373 19.627L19.602 4.398q.385-.385.891-.177q.507.208.507.742v2.268h-.5q-1.202 0-2.043.841q-.842.841-.842 2.043V21H4.938q-.534 0-.739-.497q-.205-.497.174-.876m16.128 1.604q-.31 0-.521-.21t-.21-.52q0-.31.21-.521q.21-.21.52-.21q.31 0 .52.21t.21.52q0 .31-.21.52t-.52.21m-.5-3.96v-7.155q0-.212.144-.356t.357-.144q.212 0 .356.144q.143.144.143.356v7.18q0 .193-.144.334q-.144.14-.357.14q-.212 0-.356-.144Q20 17.482 20 17.27"/></svg>