<svg xmlns="http://www.w3.org/2000/svg" width="1em" height="1em" viewBox="0 0 24 24"><path fill="currentColor" d="M5 12.61q0-.672.472-1.14q.472-.47 1.143-.47H7V8.615q0-.67.472-1.143Q7.944 7 8.615 7h6.77q.67 0 1.143.472q.472.472.472 1.143V11h.385q.67 0 1.143.472q.472.472.472 1.143v2.535q0 .344-.253.597T18.15 16l-.338 1.79q-.031.093-.099.151q-.067.059-.16.059h-.107q-.092 0-.16-.059q-.067-.058-.098-.15L16.85 16h-9.7l-.338 1.79q-.031.093-.099.151q-.067.059-.16.059h-.107q-.092 0-.16-.059q-.067-.058-.098-.15L5.85 16q-.344 0-.597-.253T5 15.15zM12.5 11H16V8.615q0-.269-.173-.442T15.385 8H12.5zM8 11h3.5V8H8.615q-.269 0-.442.173T8 8.615zm-2 4h12v-2.385q0-.269-.173-.442T17.385 12H6.615q-.269 0-.442.173T6 12.615zm12 0H6z"/></svg>