<svg xmlns="http://www.w3.org/2000/svg" width="1em" height="1em" viewBox="0 0 24 24"><path fill="currentColor" d="M6.77 18h-.54l-.38-2H5v-3.39q0-.672.472-1.14q.472-.47 1.143-.47H7V8.615q0-.67.472-1.143Q7.944 7 8.615 7h6.77q.67 0 1.143.472q.472.472.472 1.143V11h.385q.67 0 1.143.472q.472.472.472 1.143V16h-.85l-.38 2h-.54l-.38-2h-9.7zm5.73-7H16V8.615q0-.269-.173-.442T15.385 8H12.5zM8 11h3.5V8H8.615q-.269 0-.442.173T8 8.615zm-2 4h12v-2.385q0-.269-.173-.442T17.385 12H6.615q-.269 0-.442.173T6 12.615zm12 0H6z"/></svg>