<svg xmlns="http://www.w3.org/2000/svg" width="1em" height="1em" viewBox="0 0 24 24"><path fill="currentColor" d="M7.25 23.885q-.254 0-.444-.19q-.19-.191-.19-.445t.19-.444q.19-.19.444-.19t.444.19q.19.19.19.444t-.19.444q-.19.19-.444.19m8.5 0q-.254 0-.444-.19q-.19-.191-.19-.445t.19-.444q.19-.19.444-.19t.444.19q.19.19.19.444t-.19.444q-.19.19-.444.19m-9-2.193q-1.032 0-1.904-.458q-.871-.459-1.458-1.207q-.055-.067-.074-.139q-.018-.07-.018-.14q0-.163.12-.302q.118-.138.327-.138q.119 0 .198.046t.147.12q.397.54.975.875q.577.336 1.295.422l3.355-4.063l-1.773-4.91L11.2 6.5H7.812L5.95 9.53L5.096 9L7.27 5.5h5.43q.554 0 .892.308q.339.307.47.594l.525 1.18q.538 1.22 1.622 2.011q1.083.792 2.483.888v1q-1.577-.058-2.863-.924q-1.287-.867-2.18-2.453l-2.532 3.971l4.383 2.598v6.135h.762q.802 0 1.494-.364q.692-.363 1.156-.952q.073-.092.153-.138q.08-.046.197-.046q.19 0 .316.138q.126.139.126.303q0 .068-.018.14q-.019.07-.074.138q-.587.748-1.454 1.207q-.868.458-1.896.458zm.888-.884H14.5v-5.485L9.865 12.97l.981 3.877zM15 4.692q-.698 0-1.195-.497q-.497-.497-.497-1.195t.497-1.195q.497-.497 1.195-.497t1.195.497q.497.497.497 1.195t-.497 1.195q-.497.497-1.195.497"/></svg>