<svg xmlns="http://www.w3.org/2000/svg" width="1em" height="1em" viewBox="0 0 24 24"><path fill="currentColor" d="M12 21q-.971 0-1.693-.199q-.722-.2-1.619-.772l-2.725-1.73q-.494-.316-.728-.856Q5 16.903 5 16.38q0-1.225.883-1.898q.882-.673 1.917-.673q.552 0 1.076.17t.92.53q.356.336.792.527q.435.19.912.246V12.52q-1.237-.036-2.346-.252q-1.11-.215-1.948-.59q-.839-.375-1.33-.916q-.491-.542-.491-1.236q0-.5.35-.928q.35-.428.975-.803q-.15-.225-.238-.497q-.087-.272-.087-.572q0-.544.412-1.022q.413-.478 1.138-.853q-.05-.125-.05-.225V4.4q0-.65.687-1.137t1.813-.763v.89q-.889.24-1.232.546q-.343.304-.372.487q.029.702 1.005.941q.976.24 1.714.296V2h1v3.66q.835-.037 1.763-.276t.956-.96q-.029-.178-.369-.473q-.34-.295-1.21-.536V2.5q1.125.275 1.8.775t.675 1.125q0 .038-.05.45q.725.375 1.138.85t.412 1.025q0 .3-.077.563t-.228.487q.625.375.965.813q.34.437.34.937q0 .694-.49 1.236q-.492.54-1.33.916q-.84.375-1.949.59q-1.11.216-2.346.252v2.762q.477-.056.913-.246q.435-.19.79-.527q.397-.36.921-.53q.524-.17 1.076-.17q1.035 0 1.917.685q.883.686.883 1.91q0 .526-.235 1.056q-.234.53-.728.845l-2.725 1.725q-.897.573-1.619.772Q12.971 21 12 21m0-1q.8 0 1.413-.175t1.362-.65L17.5 17.45q.25-.15.375-.46q.125-.311.125-.586q0-.725-.575-1.16q-.575-.436-1.225-.436q-.375 0-.725.112t-.625.338q-.6.525-1.325.812T12 16.358q-.8 0-1.525-.288t-1.325-.812q-.275-.225-.625-.338t-.725-.112q-.65 0-1.225.423T6 16.379q0 .275.125.598q.125.323.375.473l2.725 1.75q.75.475 1.363.638T12 20m-.5-8.365V9.519q-1.244-.05-2.337-.302t-1.801-.782q-.633.327-.857.626q-.224.299-.236.476q.012.794 1.472 1.412q1.46.618 3.759.686m-3.25 5.788q.3 0 .525-.225T9 16.673q0-.3-.225-.525t-.525-.225q-.3 0-.525.225t-.225.525q0 .3.225.525t.525.225m3.25-8.788v-2.09q-.925-.05-1.746-.265q-.821-.215-1.29-.684q-.652.321-.918.62q-.265.3-.277.515q.006.888 1.285 1.362q1.279.474 2.946.542m1 3q2.298-.068 3.759-.686q1.46-.618 1.472-1.412q-.012-.177-.243-.476q-.23-.3-.863-.626q-.708.511-1.791.773q-1.084.261-2.334.311zm0-3q1.667-.068 2.946-.542q1.279-.474 1.285-1.362q-.012-.21-.269-.509q-.256-.299-.92-.626q-.469.475-1.29.687q-.821.211-1.752.261zm3.25 8.788q.3 0 .525-.225t.225-.525q0-.3-.225-.525t-.525-.225q-.3 0-.525.225t-.225.525q0 .3.225.525t.525.225m-3.75-.02"/></svg>