<svg xmlns="http://www.w3.org/2000/svg" width="1em" height="1em" viewBox="0 0 24 24"><path fill="currentColor" d="M3 19v-6h13v-1.648l5.848-1.956l.317.939L17 12.07V19zm1-1h12v-4H4zm1.483-7.385q.119-.823-.1-1.503q-.218-.681-.85-1.612q-.671-.98-.905-1.763T3.473 4h1.008q-.085.835.11 1.492q.196.658.828 1.589q.7 1.015.934 1.797q.234.782.137 1.737zm3.923 0q.119-.823-.096-1.503q-.216-.681-.848-1.612q-.672-.98-.908-1.763q-.237-.78-.158-1.737h1.008q-.085.835.11 1.492t.828 1.589q.7 1.015.934 1.797q.234.782.137 1.737zm4 0q.119-.823-.106-1.503q-.225-.681-.858-1.612q-.67-.98-.898-1.763q-.227-.781-.148-1.737h1.008q-.085.835.11 1.492t.828 1.589q.7 1.015.934 1.797q.234.782.137 1.737z"/></svg>