<svg xmlns="http://www.w3.org/2000/svg" width="1em" height="1em" viewBox="0 0 24 24"><path fill="currentColor" d="M6 14.346q-.846 0-1.423-.577Q4 13.192 4 12.346V9h12.006q.029-.748.473-1.35t1.167-.838l4.202-1.416l.317.939l-4.202 1.415q-.428.143-.695.517Q17 8.64 17 9.104v3.242q0 .833-.577 1.417T15 14.346zm0-1h9q.425 0 .713-.287t.287-.713V10H5v2.346q0 .425.288.713t.712.287M10 20v-2.27q0-.268-.173-.442t-.442-.173H3v-1h6.385q.666 0 1.14.475T11 17.73V20zm3 0v-2.27q0-.666.475-1.14q.474-.475 1.14-.475H21v1h-6.385q-.269 0-.442.173t-.173.443V20zm-2.5-8.327"/></svg>