<svg xmlns="http://www.w3.org/2000/svg" width="1em" height="1em" viewBox="0 0 24 24"><path fill="currentColor" d="M16.27 16.115v-8.23q0-.213.143-.357t.357-.143q.213 0 .356.143t.143.357v8.23q0 .213-.144.357t-.356.143q-.213 0-.356-.143q-.144-.144-.144-.357m-9.538-1.01v-6.21q0-.364.242-.586q.242-.222.565-.222q.125 0 .237.025q.112.025.217.105l4.662 3.112q.186.13.27.295q.084.164.084.376t-.084.376q-.084.164-.27.295l-4.662 3.112q-.105.08-.217.105q-.112.025-.237.025q-.323 0-.565-.222q-.242-.222-.242-.585"/></svg>