<svg xmlns="http://www.w3.org/2000/svg" width="1em" height="1em" viewBox="0 0 24 24"><path fill="currentColor" d="M19.087 22.692q-.437 0-.701-.05q-.265-.05-.52-.13L1.757 17.248q-.166-.061-.246-.218q-.08-.157-.018-.322q.062-.166.221-.258q.16-.092.325-.03l3.552 1.145l.643-2.002l-3.527-1.146q-.166-.061-.246-.22q-.08-.16-.018-.326q.062-.165.218-.255t.323-.028L4.5 14.1v-3.758q0-.242.134-.441q.133-.2.35-.305l4.703-1.965q.142-.062.281-.087t.307-.025q.812 0 1.212.565t.125 1.44l-1.224 3.653l2.65-.427q.502-.087.936.133q.434.219.695.729l2.23 4.5l1.416.476q.166.062.246.219t.018.322q-.062.165-.221.258q-.16.092-.325.03l-2.889-.946l-.667 2.002l3.613 1.171q.239.07.451.117q.213.047.546.047q1.13 0 1.906-.776t.776-1.907q0-.892-.352-1.503q-.352-.61-.99-1.005q-.154-.092-.218-.264q-.065-.172-.003-.332q.061-.165.218-.235q.157-.07.316-.003q.872.467 1.393 1.343q.52.876.52 1.999q0 1.492-1.037 2.53q-1.037 1.037-2.53 1.037m-5.457-2.477l.667-2.027l-7.233-2.323l-.642 2.002zm1.958-2.53l-1.752-3.512l-4.956 1.337zm-8.068-2.61q-.246-.344-.303-.784q-.056-.44.126-.962l1.352-4.194L5.5 10.479v3.944zm4.443-8.883q-.69 0-1.192-.5q-.5-.502-.5-1.192t.5-1.191q.501-.501 1.192-.501q.69 0 1.19.5q.502.502.502 1.192t-.501 1.191q-.501.501-1.191.501"/></svg>