<svg xmlns="http://www.w3.org/2000/svg" width="1em" height="1em" viewBox="0 0 24 24"><path fill="currentColor" d="M14.615 2.865q2.714 0 4.607 1.892q1.893 1.892 1.893 4.608h-1q0-1.096-.4-2.064q-.402-.968-1.103-1.701l-.625 1.075q-.25.405-.538.885t-.612.834q-.235.24-.549.24q-.313 0-.553-.234q-.24-.235-.24-.561q0-.327.24-.56q.33-.35.825-.619q.494-.268.9-.512l1.075-.644q-.752-.76-1.755-1.2q-1.002-.439-2.165-.439zM12.075 21q-1.89 0-3.544-.713q-1.654-.714-2.892-1.951t-1.95-2.892q-.714-1.654-.714-3.544q0-2.92 1.68-5.264Q6.338 4.29 9.09 3.366q-.103 2.34.718 4.5q.82 2.16 2.48 3.82q1.66 1.66 3.82 2.481q2.161.821 4.502.718q-.92 2.753-3.268 4.434T12.075 21m0-1q2.2 0 4.075-1.1t2.95-3.03q-2.15-.2-4.075-1.09q-1.925-.89-3.45-2.42q-1.525-1.53-2.425-3.445Q8.25 7 8.075 4.85Q6.15 5.925 5.063 7.813T3.975 11.9q0 3.375 2.363 5.738T12.075 20m-.5-7.644"/></svg>