<svg xmlns="http://www.w3.org/2000/svg" width="1em" height="1em" viewBox="0 0 24 24"><path fill="currentColor" d="M4.615 19q-.67 0-1.143-.472Q3 18.056 3 17.385v-10h1v10q0 .269.173.442t.442.173H18v1zm3-3q-.67 0-1.143-.472Q6 15.056 6 14.385v-7.77q0-.67.472-1.143Q6.944 5 7.615 5h6.939l-1 1H7.615q-.269 0-.442.173T7 6.615v7.77q0 .269.173.442t.442.173h11.77q.269 0 .442-.173t.173-.442V8.446l1-1v6.939q0 .67-.472 1.143q-.472.472-1.143.472zm5.366-4.327q-.383 0-.718-.147q-.336-.147-.57-.45q.309 0 .568-.152q.258-.153.258-.443q0-.375.265-.63q.264-.255.64-.255q.355 0 .62.265t.264.62q0 .517-.395.855q-.396.337-.932.337m2.37-1.98l-1.063-1.064l4.37-4.344q.13-.131.292-.131q.162 0 .292.13l.473.474q.131.13.131.292q0 .162-.13.292z"/></svg>