<svg xmlns="http://www.w3.org/2000/svg" width="1em" height="1em" viewBox="0 0 24 24"><path fill="currentColor" d="M5 14q-.846 0-1.423-.577Q3 12.846 3 12q0-.846.577-1.423Q4.154 10 5 10V7q0-.397.301-.699Q5.603 6 6 6h4q0-.846.577-1.423Q11.154 4 12 4q.846 0 1.423.577Q14 5.154 14 6h4q.397 0 .699.301Q19 6.603 19 7v3q.846 0 1.423.577Q21 11.154 21 12q0 .846-.577 1.423Q19.846 14 19 14v5q0 .397-.301.699Q18.397 20 18 20H6q-.397 0-.699-.301Q5 19.397 5 19zm3.998-1.5q.415 0 .709-.291q.293-.291.293-.707q0-.415-.291-.709q-.291-.293-.707-.293q-.415 0-.709.291q-.293.291-.293.707q0 .415.291.709q.291.293.707.293m6 0q.415 0 .709-.291q.293-.291.293-.707q0-.415-.291-.709q-.291-.293-.707-.293q-.415 0-.709.291q-.293.291-.293.707q0 .415.291.709q.291.293.707.293M9 16.5h6q.213 0 .356-.144q.144-.144.144-.357t-.144-.356Q15.213 15.5 15 15.5H9q-.213 0-.356.144q-.144.144-.144.357t.144.356q.143.143.356.143"/></svg>