<svg xmlns="http://www.w3.org/2000/svg" width="1em" height="1em" viewBox="0 0 24 24"><path fill="currentColor" d="M11.433 12.692h4.498q.477 0 .811-.334q.335-.335.335-.812q0-.477-.335-.824q-.334-.347-.811-.347h-.55l-.077-.48q-.087-.666-.6-1.127q-.514-.46-1.204-.46q-.554 0-.983.29q-.429.289-.665.767l-.154.308l-.365.02q-.596.05-1.003.462q-.407.412-.407 1.028q0 .615.441 1.062q.442.447 1.069.447M3.615 19.77q-.69 0-1.152-.462Q2 18.844 2 18.154V8.077h1v10.077q0 .23.192.423q.193.192.423.192h15.423v1zm3-3q-.69 0-1.152-.462Q5 15.844 5 15.154V4.615q0-.69.463-1.152Q5.925 3 6.615 3H12l1.23 1.23h7.155q.69 0 1.152.463q.463.463.463 1.153v9.308q0 .69-.462 1.153q-.463.462-1.153.462z"/></svg>