<svg xmlns="http://www.w3.org/2000/svg" width="1em" height="1em" viewBox="0 0 24 24"><path fill="currentColor" d="m20.185 21.908l-6.523-6.523H3.115v-1.77h8.777L2.477 4.2l.708-.708L20.892 21.2zm-1.95-6.523l-.197-.197v-1.573h.885v1.77zm1.688 0v-1.77h.885v1.77zm-2.885-.889l-.88-.88h.88zm1-2.265v-1.3q0-.898-.575-1.468t-1.375-.57h-1.55q-1.13 0-1.932-.819q-.802-.818-.802-1.993q0-1.11.802-1.884q.802-.774 1.932-.774v.885q-.75 0-1.3.502t-.55 1.267q0 .765.55 1.348q.55.583 1.3.583h1.55q1.17 0 2.002.832q.833.833.833 2.01v1.38zm1.885 0V9.98q0-1.65-1.15-2.696q-1.15-1.047-2.85-1.047v-.884q.75 0 1.28-.53t.532-1.282h.884q0 .725-.294 1.246q-.294.52-.744.844q1.304.422 2.265 1.541q.962 1.12.962 2.808v2.25z"/></svg>