<svg xmlns="http://www.w3.org/2000/svg" width="1em" height="1em" viewBox="0 0 24 24"><path fill="currentColor" d="M9.808 15.612h4.384v-.885h-3.184l3.184-3.573v-.927H9.808v.885h3.234l-3.234 3.623zM12 21q-1.663 0-3.118-.626q-1.455-.626-2.543-1.713q-1.087-1.088-1.713-2.543Q4 14.663 4 13q0-1.663.626-3.118q.626-1.455 1.713-2.543q1.088-1.087 2.543-1.713Q10.337 5 12 5q1.663 0 3.118.626q1.455.626 2.543 1.713q1.087 1.088 1.713 2.543Q20 11.337 20 13q0 1.663-.626 3.118q-.626 1.455-1.713 2.543q-1.088 1.087-2.543 1.713Q13.663 21 12 21M5.908 3.427l.707.708l-3.48 3.48l-.708-.707zm12.184 0l3.481 3.48l-.708.708l-3.48-3.48zM12 20q2.906 0 4.953-2.047T19 13q0-2.906-2.047-4.953T12 6Q9.094 6 7.047 8.047T5 13q0 2.906 2.047 4.953T12 20"/></svg>