<svg xmlns="http://www.w3.org/2000/svg" width="1em" height="1em" viewBox="0 0 24 24"><path fill="currentColor" d="M1.962 18.5H7q1.46 0 2.384-.809q.924-.808.924-2.23L7.23 14.58l-5.327 2.883q-.173.096-.308.211q-.134.115-.134.327t.144.356q.144.144.355.144m21.423-.692q0 .073-.022.155q-.02.083-.076.15q-.362.65-.992 1.019q-.63.368-1.333.368h-5q-.214 0-.357-.143q-.143-.144-.143-.357t.143-.357q.143-.143.357-.143h3.175l-3.193-3h-4.636q0 1.804-1.214 2.902Q8.881 19.5 7 19.5H1.962q-.72 0-1.11-.471q-.39-.471-.39-1.029q0-.385.201-.735q.202-.35.599-.573l4.615-2.515L1.744 13q-.425-.123-.597-.51q-.172-.388.018-.782l.802-1.59q.143-.253.385-.398q.242-.145.544-.114l8.2.932l3.685-2.755l-1.204-1.11q-.096-.096-.202-.135q-.106-.038-.221-.038h-1.577q-.214 0-.357-.143q-.143-.144-.143-.357t.143-.357q.143-.143.357-.143h1.583q.298 0 .59.106t.51.323l6.742 6.273q.263.233.361.5q.099.27.099.548q0 .883-.71 1.566q-.71.684-2.192.684h-1.193l3.227 3h.368q.423 0 .811-.228q.389-.228.629-.659q.073-.134.195-.22q.122-.085.282-.085q.213 0 .36.143q.146.143.146.357"/></svg>