<svg xmlns="http://www.w3.org/2000/svg" width="1em" height="1em" viewBox="0 0 24 24"><path fill="currentColor" d="M18.794 22.192q-.206 0-.433-.025t-.453-.075l-12.625-2.7q-1.023-.205-1.778-.82q-.755-.614-1.16-1.507q-.032-.061-.032-.238q.018-.165.162-.292q.144-.127.315-.116q.118.012.214.095q.096.084.152.196q.338.682.933 1.19q.596.508 1.378.658l.86.157l3.711-2.427l-1.07-4.55L12.2 6.5H8.812L6.95 9.53L6.096 9L8.27 5.5h5.43q.56 0 .895.308q.336.307.467.594l.525 1.18q.538 1.22 1.622 2.011q1.083.792 2.483.888v1q-1.577-.058-2.854-.915t-2.19-2.462l-2.53 3.971l3.497 2.752l.981 6.104l1.496.302q.17.05.351.062t.351.013q.62 0 1.162-.22q.542-.219.986-.588q.03-.029.362-.112q.171.012.285.152q.115.14.103.3q-.005.106-.049.187t-.105.142q-.528.512-1.255.768q-.727.255-1.489.255m-3.26-1.48l-.826-5.247l-4.004-2.832l.488 4.075l-3.486 2.313zM16 4.692q-.69 0-1.191-.5q-.501-.502-.501-1.192t.5-1.191q.502-.501 1.192-.501t1.191.5q.501.502.501 1.192t-.5 1.191q-.502.501-1.192.501"/></svg>