<svg xmlns="http://www.w3.org/2000/svg" width="1em" height="1em" viewBox="0 0 24 24"><path fill="currentColor" d="M8.596 22.712q-.411 0-.905-.34q-.493-.341-1.008-.995l-1.925-2.475q-.123-.154-.105-.329q.018-.175.172-.298t.332-.095q.178.028.3.182l.983 1.26l3.24-2.334l1.793-9.24l-2.954 1.22V12q0 .213-.143.357q-.143.143-.357.143q-.213 0-.356-.143q-.144-.144-.144-.357V9.142q0-.242.146-.444q.147-.202.364-.308l3.288-1.36q.743-.31 1.08-.41q.336-.1.622-.1q.39 0 .722.197q.332.198.555.552l.98 1.575q.609.94 1.559 1.626q.95.686 2.165.93q.213.062.366.205t.153.357q0 .213-.153.344t-.36.1q-1.408-.22-2.631-1.033q-1.223-.813-2.106-2.244l-.888 4.52l1.896 1.834q.13.13.186.28q.056.149.056.31v5.735q.74-.006 1.107-.068q.366-.061.84-.294l.245-.123q.107-.053.187-.054q.177 0 .303.132t.126.291q0 .162-.097.286q-.097.124-.278.21q-.52.281-1.024.393q-.505.111-1.188.111h-2.97q-.191 0-.317-.126t-.126-.316t.126-.316q.126-.126.316-.126h1.75V16.82l-2.907-2.788l-.82 3.49q-.05.137-.12.264t-.203.21l-3.394 2.416l.383.524q.282.396.58.586t.666.315q.148.068.234.176q.087.11.087.25q0 .17-.129.31q-.129.138-.3.138m5.923-17.52q-.69 0-1.191-.5q-.501-.502-.501-1.192t.5-1.191q.502-.501 1.192-.501t1.192.5q.5.502.5 1.192t-.5 1.191q-.501.501-1.192.501"/></svg>