<svg xmlns="http://www.w3.org/2000/svg" width="1em" height="1em" viewBox="0 0 24 24"><path fill="currentColor" d="M15.945 7.827q-.516 0-.884-.365q-.369-.365-.369-.882t.365-.885q.366-.368.882-.368q.517 0 .885.365t.368.882q0 .516-.365.885q-.365.368-.882.368M20.02 8q-.632 0-1.066-.434q-.434-.433-.434-1.066t.434-1.066Q19.387 5 20.019 5q.633 0 1.067.434q.433.433.433 1.066t-.433 1.066Q20.652 8 20.019 8m-2.517-3.77q-.415 0-.709-.29q-.293-.291-.293-.707t.291-.709q.291-.293.707-.293q.415 0 .709.29q.293.292.293.708q0 .415-.291.708q-.291.294-.707.294M6.5 21q-1.458 0-2.479-.906Q3 19.188 3 17.731v-4.939q0-.645.302-1.196q.301-.552.842-.906l7.785-5.032q.121-.08.296-.08q.175-.001.304.128q.365.365.337.793q-.028.428-.287.855l-1.702 2.838H18.5q.213 0 .356.144t.144.357q0 .213-.144.356t-.356.143h-7.962q-.462 0-.703-.406t.007-.811l1.745-2.921L4.7 11.519q-.321.202-.51.543q-.19.34-.19.73v4.939q0 1.036.734 1.653Q5.47 20 6.5 20h11q.213 0 .356.144T18 20.5q0 .212-.144.356q-.143.143-.356.143zm14-6.538h-7q-.213 0-.356-.144T13 13.96q0-.213.144-.356t.356-.143h7q.213 0 .356.143t.144.357q0 .213-.144.356q-.144.144-.356.144m-1 3.269h-6q-.213 0-.356-.144T13 17.23q0-.213.144-.356t.356-.143h6q.213 0 .356.144q.144.144.144.356q0 .213-.144.357q-.144.143-.356.143m-11-2.135"/></svg>