<svg xmlns="http://www.w3.org/2000/svg" width="1em" height="1em" viewBox="0 0 24 24"><path fill="currentColor" d="M12 20q1.875 0 3.188-1.312T16.5 15.5q0-1.875-1.312-3.187T12 11q-1.875 0-3.187 1.313T7.5 15.5q0 1.875 1.313 3.188T12 20m-2.887-9.165q.481-.314 1.025-.505t1.118-.28L8.98 5.538h-2.5zm-1.886 8.1q.017-.168.078-.37q.06-.203.176-.43q-.462-.747-.667-1.613q-.204-.866-.106-1.784q0-.75.26-1.423q.259-.673.72-1.211q-.357.061-.628.257t-.387.466q-1.115.271-1.738 1.255q-.623.983-.381 2.18q0 1.115.779 1.894q.779.779 1.894.779m9.546 0q1.358-.081 2.292-1.065q.935-.983.935-2.37t-.935-2.37q-.934-.984-2.292-1.065q-.115 0-.23.01q-.116.01-.231.029q.56.706.874 1.572q.314.866.314 1.824t-.314 1.824q-.315.866-.874 1.572q.115.02.23.029q.116.01.231.01M12 21q-.962 0-1.816-.297q-.855-.297-1.553-.855q-.264.089-.556.12q-.292.032-.6.032q-1.852 0-3.163-1.312Q3 17.377 3 15.525q0-1.829 1.277-3.129t3.094-1.34q.212 0 .404.029q.192.028.385.067L5.437 5.7q-.212-.404.027-.783q.24-.379.7-.379H8.62q.46 0 .836.243q.376.242.593.646L12 9.307l1.95-3.88q.217-.404.593-.646q.376-.243.836-.243h2.458q.46 0 .699.38q.239.378.027.782l-2.678 5.383q.173-.039.355-.058q.183-.02.375-.02q1.837.047 3.111 1.347Q21 13.652 21 15.5q0 1.877-1.312 3.188Q18.377 20 16.5 20q-.302 0-.587-.032t-.55-.12q-.698.539-1.55.845Q12.962 21 12 21M9.113 10.835L6.481 5.538zM12 16.6l-1.071.81q-.13.086-.242.003q-.112-.084-.062-.22l.398-1.333l-1.052-.76q-.13-.087-.08-.22t.192-.134h1.307l.418-1.394q.05-.137.192-.137t.192.137l.418 1.394h1.307q.143 0 .193.134t-.081.22l-1.052.76l.398 1.332q.05.137-.062.22q-.111.084-.242-.002zm2.887-5.765l2.657-5.297H15.02l-2.182 4.327l.11.22q.522.1 1.01.28q.49.18.93.47"/></svg>