<svg xmlns="http://www.w3.org/2000/svg" width="1em" height="1em" viewBox="0 0 24 24"><path fill="currentColor" d="m6.192 19.904l-3.288-3.289l3.288-3.288l.689.688l-2.1 2.1h14.438l-2.1-2.1l.689-.688l3.288 3.288l-3.288 3.289l-.689-.689l2.1-2.1H4.781l2.1 2.1zM2.77 10.5v-.171q0-.427.248-.764q.248-.336.67-.528q.592-.275 1.24-.406q.65-.131 1.342-.131q.693 0 1.342.13q.649.132 1.24.407q.422.192.67.528q.248.337.248.764v.171zm11.462 0v-.171q0-.427.248-.764q.248-.336.67-.528q.591-.275 1.24-.406q.65-.131 1.342-.131q.692 0 1.341.13q.65.132 1.241.407q.422.192.67.528q.248.337.248.764v.171zM6.269 6.885q-.632 0-1.066-.434q-.434-.434-.434-1.066q0-.633.434-1.067q.434-.433 1.066-.433q.633 0 1.067.433q.433.434.433 1.067q0 .632-.433 1.066q-.434.434-1.067.434m11.462 0q-.633 0-1.067-.434q-.433-.434-.433-1.066q0-.633.433-1.067q.434-.433 1.067-.433q.632 0 1.066.433q.434.434.434 1.067q0 .632-.434 1.066q-.434.434-1.066.434"/></svg>