<svg xmlns="http://www.w3.org/2000/svg" width="1em" height="1em" viewBox="0 0 24 24"><path fill="currentColor" d="M7.475 20q-1.852 0-3.163-1.312Q3 17.377 3 15.525q0-1.823 1.274-3.126t3.097-1.343q.192 0 .385.029q.192.028.384.067L4.846 4.538h4.77L12 9.308l2.385-4.77h4.769l-3.27 6.545q.174-.039.356-.058q.183-.02.375-.02q1.837.047 3.111 1.35Q21 13.658 21 15.5q0 1.877-1.312 3.188Q18.377 20 16.5 20q-.283 0-.578-.032q-.295-.031-.559-.12q1.183-.515 1.66-1.75q.477-1.236.477-2.598q0-2.302-1.599-3.901Q14.301 10 12 10q-2.302 0-3.901 1.599Q6.5 13.199 6.5 15.5q0 1.373.44 2.642q.44 1.27 1.69 1.706q-.282.089-.568.12q-.285.032-.587.032M12 20q-1.875 0-3.187-1.312T7.5 15.5q0-1.875 1.313-3.187T12 11q1.875 0 3.188 1.313T16.5 15.5q0 1.875-1.312 3.188T12 20m-1.562-2.212L12 16.6l1.562 1.188l-.585-1.928l1.561-1.114H12.61L12 12.712l-.61 2.034H9.462l1.561 1.114z"/></svg>