<svg xmlns="http://www.w3.org/2000/svg" width="1em" height="1em" viewBox="0 0 24 24"><path fill="currentColor" d="m4.78 17.115l1.766 1.766q.14.14.14.334q0 .195-.14.335t-.344.14t-.344-.14l-2.389-2.37q-.242-.242-.242-.565q0-.323.242-.565l2.389-2.388q.14-.14.344-.14t.344.14q.14.14.14.344t-.14.344l-1.765 1.765h14.438l-1.765-1.765q-.14-.14-.14-.335q0-.194.14-.334t.344-.14t.344.14l2.389 2.369q.242.242.242.565q0 .323-.242.566l-2.389 2.388q-.14.14-.334.131q-.195-.01-.335-.15q-.14-.14-.14-.344t.14-.344l1.746-1.747zM2.77 10.5v-.171q0-.427.247-.764q.248-.336.67-.528q.592-.275 1.24-.406q.65-.131 1.342-.131q.693 0 1.342.13q.649.132 1.24.407q.422.192.67.528q.248.337.248.764v.171zm11.46 0v-.171q0-.427.249-.764q.248-.336.67-.528q.591-.275 1.24-.406q.65-.131 1.342-.131q.692 0 1.341.13q.65.132 1.241.407q.422.192.67.528q.248.337.248.764v.171zM6.27 6.885q-.633 0-1.067-.434q-.434-.434-.434-1.066q0-.633.434-1.067q.434-.433 1.066-.433q.633 0 1.067.433q.433.434.433 1.067q0 .632-.433 1.066q-.434.434-1.067.434m11.462 0q-.633 0-1.067-.434q-.433-.434-.433-1.066q0-.633.433-1.067q.434-.433 1.067-.433q.632 0 1.066.433q.434.434.434 1.067q0 .632-.434 1.066q-.434.434-1.066.434"/></svg>