<svg xmlns="http://www.w3.org/2000/svg" width="1em" height="1em" viewBox="0 0 24 24"><path fill="currentColor" d="M4.192 4q-.213 0-.356-.143T3.692 3.5q0-.213.144-.357Q3.979 3 4.192 3h1.712q.213 0 .357.143q.143.144.143.357t-.143.357T5.904 4zm.754 13.5l-.342 1.73q-.058.29.125.51q.183.222.471.222h6.3V17.5zm.71-9.32l1.219-1.218q.14-.14.341-.14t.347.14q.166.146.156.356q-.01.21-.156.357l-1.219 1.22q-.14.14-.341.14t-.347-.14q-.166-.147-.156-.357q.01-.211.156-.357M5.154 16.5H11.5v-2.52H6.15q-.212 0-.385.145t-.211.356zM12 7.02q-1.69 0-2.864-1.175q-1.174-1.174-1.174-2.864h1q0 1.269.884 2.154q.885.884 2.154.884t2.154-.884q.884-.885.884-2.154h1q0 1.69-1.174 2.864T12 7.02m-.5 3.673V8.981q0-.214.143-.357q.144-.143.357-.143t.357.143q.143.143.143.357v1.711q0 .214-.143.357q-.144.143-.357.143t-.357-.143q-.143-.143-.143-.357m1 9.27h6.28q.29 0 .472-.222q.183-.22.125-.51l-.342-1.73H12.5zm0-3.462h6.327l-.4-2.02q-.039-.21-.212-.355t-.384-.144H12.5zm5.175-7.612L16.437 7.65q-.14-.14-.134-.341q.007-.201.153-.347q.14-.14.334-.14q.195 0 .335.14l1.263 1.219q.166.14.166.341t-.166.366q-.165.166-.356.166t-.357-.166M19.808 4h-2.212V3h2.212q.213 0 .356.143q.144.144.144.357t-.144.357t-.356.143M3.59 19.023l.95-4.75q.125-.565.563-.929q.437-.363 1.028-.363H17.85q.59 0 1.028.363t.562.93l.95 4.75q.143.757-.335 1.347t-1.255.59H5.18q-.776 0-1.254-.59t-.336-1.348"/></svg>