<svg xmlns="http://www.w3.org/2000/svg" width="1em" height="1em" viewBox="0 0 24 24"><path fill="currentColor" d="m4.63 14.215l-.824 2.058q-.062.14-.177.222t-.279.082q-.271 0-.42-.21q-.15-.211-.045-.461l3.327-8.18q.06-.14.18-.221q.12-.082.275-.082h.36q.15 0 .267.079t.183.225l3.275 8.152q.098.263-.057.48q-.155.218-.424.218q-.161 0-.296-.091t-.196-.251l-.76-2.02zm.332-.892h3.676L6.862 8.727H6.75zm10.373 2.339h4.784q.19 0 .324.133t.134.324q0 .19-.134.324t-.324.134h-5.723q-.114 0-.193-.077t-.08-.188v-.42q0-.128.04-.246q.04-.12.108-.225l5.056-7.083H14.78q-.19 0-.324-.133t-.134-.324q0-.19.134-.324t.324-.134h5.473q.114 0 .193.077t.08.188v.42q0 .128-.04.246q-.04.12-.108.225zM9.81 4.459l1.9-1.9q.127-.128.293-.128q.165 0 .288.13L14.19 4.46q.106.106.056.228q-.05.12-.192.12H9.946q-.141 0-.192-.12q-.05-.122.057-.228m1.897 16.98l-1.898-1.9q-.106-.106-.056-.228q.05-.12.192-.12h4.108q.141 0 .192.12q.05.122-.057.228l-1.9 1.9q-.127.128-.293.128q-.165 0-.288-.13"/></svg>