<svg xmlns="http://www.w3.org/2000/svg" width="1em" height="1em" viewBox="0 0 24 24"><path fill="currentColor" d="M5.85 21v-9.221h1V20h7.5v-4.613l2.471-2.49q.783-.784 1.212-1.79q.429-1.005.429-2.107q0-1.096-.423-2.092q-.422-.996-1.199-1.78l-.99-1.015L12.463 7.5h-3.5L7.388 9.075l-.713-.688L8.562 6.5h3.5l3.788-3.788l1.704 1.684q.923.923 1.406 2.109q.482 1.185.502 2.495q-.02 1.31-.502 2.495q-.483 1.186-1.406 2.109l-2.204 2.184V21zm4.406-4.406L5.42 11.78q-.217-.217-.32-.496T5 10.7q0-.304.102-.57t.32-.484l1.753-1.76l2.754 2.71q.642.642.972 1.459q.33.816.33 1.72q0 .77-.24 1.49q-.241.72-.735 1.33"/></svg>