<svg xmlns="http://www.w3.org/2000/svg" width="1em" height="1em" viewBox="0 0 24 24"><path fill="currentColor" d="M4.956 17.594Q4.04 16.43 3.52 15.01Q3 13.589 3 12q0-3.483 2.299-6.029Q7.599 3.425 11 3.05v1q-2.98.37-4.99 2.62Q4 8.92 4 12q0 1.4.425 2.638T5.65 16.9zM12 21q-1.613 0-3.056-.523q-1.442-.523-2.607-1.464l.707-.713q1.025.8 2.278 1.25Q10.575 20 12 20t2.678-.46q1.253-.46 2.297-1.26l.708.714q-1.166.94-2.608 1.473Q13.633 21 12 21m7.063-3.425l-.713-.713q.78-1.025 1.215-2.253Q20 13.38 20 12q0-3.08-2-5.312q-2-2.23-4.962-2.619v-1q3.383.394 5.673 2.921T21 12q0 1.588-.51 3t-1.427 2.575M10 15.577V8.423L15.577 12z"/></svg>