<svg xmlns="http://www.w3.org/2000/svg" width="1em" height="1em" viewBox="0 0 24 24"><path fill="currentColor" d="M12.346 20.962q-1.984-.243-3.584-1.027q-1.6-.785-2.753-2.072q-1.153-1.286-1.809-3.016q-.656-1.73-.771-3.843q2.077.063 3.727.788t2.799 2.012q1.149 1.286 1.77 3.1q.621 1.815.621 4.058M12 14.94q-.517-.875-1.303-1.734q-.785-.86-1.624-1.444q.073-.954.317-1.983q.245-1.029.63-2.01q.384-.982.887-1.886q.503-.904 1.093-1.614q.59.71 1.093 1.604q.503.894.888 1.895q.384 1.001.638 2.03t.308 2.002q-.935.598-1.73 1.458q-.795.86-1.197 1.682m1.346 5.756q-.011-1.115-.214-2.314q-.203-1.2-.634-2.37q.983-2.14 3.2-3.58q2.215-1.438 4.873-1.428q-.167 3.7-1.968 6.11q-1.801 2.411-5.257 3.582"/></svg>