<svg xmlns="http://www.w3.org/2000/svg" width="1em" height="1em" viewBox="0 0 24 24"><path fill="currentColor" d="m18.577 13.212l.708-.708q-1.039-1.039-1.611-2.365q-.572-1.326-.572-2.789t.572-2.787q.572-1.323 1.61-2.361l-.707-.72q-1.179 1.18-1.827 2.691q-.648 1.512-.648 3.177t.648 3.174q.648 1.509 1.827 2.688M21.8 9.977l.708-.708q-.387-.386-.608-.879q-.221-.492-.221-1.04t.221-1.04q.221-.493.608-.88l-.708-.713q-.533.533-.827 1.212q-.294.679-.294 1.415q0 .737.294 1.421q.294.685.827 1.212M9.712 12q-1.247 0-2.124-.877q-.876-.877-.876-2.123q0-1.246.876-2.123Q8.465 6 9.712 6q1.246 0 2.123.877q.877.877.877 2.123q0 1.246-.877 2.123q-.877.877-2.123.877m-7 7.23v-1.645q0-.69.348-1.195q.348-.503.982-.802q1.218-.592 2.702-.975q1.485-.382 2.968-.382q1.482 0 2.967.382q1.484.383 2.702.975q.634.299.982.802q.349.504.349 1.195v1.646z"/></svg>