<svg xmlns="http://www.w3.org/2000/svg" width="1em" height="1em" viewBox="0 0 24 24"><path fill="currentColor" d="M16.587 7.202Q15.525 6.14 14.91 4.785q-.615-1.356-.732-2.862q-.03-.233.112-.405q.144-.172.376-.172q.214 0 .36.153t.158.386q.092 1.298.643 2.496q.55 1.198 1.466 2.113q.916.916 2.114 1.467q1.198.55 2.496.649q.233.011.385.154t.153.357q0 .233-.172.376t-.405.113q-1.505-.118-2.861-.732q-1.356-.615-2.417-1.676m3.184-3.185q-.434-.454-.708-1q-.273-.548-.36-1.163q-.036-.202.114-.355q.15-.153.364-.153q.207 0 .354.138q.146.137.194.345q.067.408.252.787q.184.38.498.694q.313.313.69.495q.377.182.785.249q.208.048.348.194t.14.36q0 .213-.155.363q-.156.15-.364.114q-.61-.093-1.154-.366q-.544-.273-.998-.702M10.096 12q-1.246 0-2.123-.877q-.877-.877-.877-2.123q0-1.246.877-2.123Q8.85 6 10.096 6q1.246 0 2.123.877q.877.877.877 2.123q0 1.246-.877 2.123q-.877.877-2.123.877m-7 6.192v-.607q0-.69.348-1.195q.348-.503.983-.802q1.217-.592 2.702-.975q1.484-.382 2.967-.382t2.967.382q1.485.383 2.702.975q.635.299.983.802q.348.504.348 1.195v.607q0 .44-.299.74q-.299.299-.74.299H4.136q-.44 0-.74-.3q-.299-.298-.299-.739"/></svg>