<svg xmlns="http://www.w3.org/2000/svg" width="1em" height="1em" viewBox="0 0 24 24"><path fill="currentColor" d="M16.587 7.202Q15.525 6.14 14.91 4.785q-.615-1.356-.732-2.862q-.03-.233.117-.405q.148-.172.366-.172t.365.153q.146.153.158.386q.092 1.298.643 2.496q.55 1.198 1.466 2.113q.916.916 2.114 1.467q1.198.55 2.496.649q.233.011.385.154t.153.362q0 .219-.172.367q-.172.147-.405.117q-1.505-.118-2.861-.732q-1.356-.615-2.417-1.676m3.184-3.185q-.431-.454-.706-1q-.275-.548-.361-1.163q-.037-.202.113-.355q.15-.153.363-.153q.2 0 .35.138q.15.137.199.345q.067.408.252.787q.184.38.498.694q.313.313.69.495q.377.182.785.249q.208.048.348.197q.14.149.14.36q0 .21-.155.36q-.156.15-.364.114q-.61-.093-1.154-.366q-.544-.273-.998-.702M10.096 12q-1.237 0-2.119-.881T7.097 9q0-1.237.88-2.119T10.097 6q1.237 0 2.118.881T13.096 9q0 1.238-.881 2.119T10.096 12m-7 6.192v-.607q0-.69.348-1.195q.348-.503.983-.802q1.217-.592 2.702-.975q1.484-.382 2.967-.382t2.967.382q1.485.383 2.702.975q.635.299.983.802q.348.504.348 1.195v.607q0 .44-.299.74q-.299.299-.74.299H4.136q-.44 0-.74-.3q-.299-.298-.299-.739m1 .039h12v-.646q0-.41-.233-.673q-.234-.264-.575-.447q-.938-.488-2.35-.861q-1.413-.373-2.842-.373t-2.841.373q-1.413.373-2.351.861q-.34.183-.574.447q-.234.263-.234.673zm6-7.231q.825 0 1.413-.587T12.096 9q0-.825-.587-1.412T10.096 7q-.825 0-1.412.588T8.096 9q0 .825.588 1.413t1.412.587m0 7.23"/></svg>