<svg xmlns="http://www.w3.org/2000/svg" width="1em" height="1em" viewBox="0 0 24 24"><path fill="currentColor" d="M22.442 9.64q-1.657 0-3.176-.639q-1.52-.64-2.68-1.8q-1.16-1.159-1.798-2.678q-.64-1.52-.64-3.177h1.02q0 1.464.544 2.787q.545 1.324 1.583 2.362q1.038 1.038 2.36 1.585q1.324.547 2.787.547zm0-4.513q-.755 0-1.447-.289q-.691-.288-1.224-.82q-.533-.533-.821-1.225q-.288-.691-.288-1.447h1.013q0 .548.212 1.062t.592.902q.388.387.902.592q.513.206 1.061.206zM10.096 12q-1.237 0-2.119-.881T7.097 9q0-1.237.88-2.119T10.097 6q1.237 0 2.118.881T13.096 9q0 1.238-.881 2.119T10.096 12m-7 7.23v-1.645q0-.69.348-1.195q.348-.503.983-.802q1.217-.592 2.702-.975q1.484-.382 2.967-.382t2.967.382q1.485.383 2.702.975q.635.299.983.802q.348.504.348 1.195v1.646zm1-1h12v-.645q0-.41-.233-.673q-.234-.264-.575-.447q-.938-.488-2.35-.861q-1.413-.373-2.842-.373t-2.841.373q-1.413.373-2.351.861q-.34.183-.574.447q-.234.263-.234.673zm6-7.23q.825 0 1.413-.587T12.096 9q0-.825-.587-1.412T10.096 7q-.825 0-1.412.588T8.096 9q0 .825.588 1.413t1.412.587m0 7.23"/></svg>