<svg xmlns="http://www.w3.org/2000/svg" width="1em" height="1em" viewBox="0 0 24 24"><path fill="currentColor" d="M7.154 13.538q.31 0 .54-.23q.23-.23.23-.539q0-.31-.23-.54q-.23-.229-.54-.229q-.31 0-.54.23q-.23.23-.23.54q0 .309.23.539q.23.23.54.23m0-2.77q.31 0 .54-.23q.23-.23.23-.539q0-.31-.23-.54q-.23-.23-.54-.23q-.31 0-.54.23q-.23.23-.23.54q0 .31.23.54q.23.23.54.23m0-2.77q.31 0 .54-.23q.23-.23.23-.54q0-.309-.23-.539q-.23-.23-.54-.23q-.31 0-.54.23q-.23.23-.23.54q0 .31.23.54q.23.229.54.229m3.577 5.27H14q.213 0 .357-.144q.143-.143.143-.357q0-.213-.143-.356q-.144-.144-.357-.144h-3.27q-.213 0-.356.144q-.143.143-.143.356q0 .214.143.357t.357.143m0-2.769H17q.213 0 .357-.143q.143-.144.143-.357t-.143-.357Q17.213 9.5 17 9.5h-6.27q-.213 0-.356.143q-.143.144-.143.357t.143.357q.143.143.357.143m0-2.77H17q.213 0 .357-.143q.143-.143.143-.356q0-.214-.143-.357q-.144-.143-.357-.143h-6.27q-.213 0-.356.143t-.143.357q0 .213.143.357q.143.143.357.143M6.077 17l-1.704 1.704q-.379.379-.876.174Q3 18.673 3 18.133V4.615q0-.69.463-1.152Q3.925 3 4.615 3h14.77q.69 0 1.152.463q.463.462.463 1.152v10.77q0 .69-.462 1.153q-.463.462-1.153.462zm-.427-1h13.735q.23 0 .423-.192q.192-.193.192-.423V4.615q0-.23-.192-.423Q19.615 4 19.385 4H4.615q-.23 0-.423.192Q4 4.385 4 4.615v13.03zM4 16V4z"/></svg>