<svg xmlns="http://www.w3.org/2000/svg" width="1em" height="1em" viewBox="0 0 24 24"><path fill="currentColor" d="M12 7q-.885 0-1.68.302q-.797.302-1.46.842q-.177.154-.39.158q-.214.004-.38-.162q-.165-.165-.146-.366q.02-.2.196-.355q.83-.694 1.808-1.056T12 6q1.073 0 2.052.363q.979.362 1.808 1.056q.177.154.196.355q.019.201-.146.366q-.166.166-.38.162q-.213-.004-.39-.158q-.663-.54-1.456-.842Q12.89 7 12 7m0-4q-1.621 0-3.155.567q-1.533.568-2.791 1.652q-.177.16-.385.176q-.207.017-.373-.149t-.13-.385q.034-.22.205-.38q1.385-1.2 3.092-1.84Q10.171 2 12 2t3.537.64q1.707.64 3.092 1.84q.171.16.206.38q.034.22-.131.386t-.373.15q-.208-.017-.385-.177q-1.258-1.084-2.791-1.652Q13.62 3 12 3m-1.615 18.23q-.69 0-1.153-.462t-.463-1.153v-7.23q0-.69.463-1.153t1.153-.463h3.23q.69 0 1.153.463t.463 1.153v7.23q0 .69-.463 1.153t-1.153.463zm3.23-1q.231 0 .423-.192q.193-.192.193-.423v-7.23q0-.231-.193-.423q-.192-.193-.423-.193h-3.23q-.231 0-.423.193q-.193.192-.193.423v7.23q0 .231.193.423q.192.193.423.193zm0 0H9.77h4.462z"/></svg>