<svg xmlns="http://www.w3.org/2000/svg" width="1em" height="1em" viewBox="0 0 24 24"><path fill="currentColor" d="m6.077 17l-1.704 1.704q-.379.379-.876.174Q3 18.673 3 18.133V4.115h1.115l6.654 6.654H9.354L1.362 2.777q-.14-.14-.15-.344q-.01-.204.15-.364t.353-.16q.195 0 .354.16l18.554 18.554q.14.14.153.341q.012.201-.153.367q-.16.16-.354.16q-.194 0-.354-.16L15.573 17zM21 4.615V16.13q0 .292-.175.488t-.43.264q-.257.067-.541.01q-.285-.056-.535-.306L13.292 10.5H17q.213 0 .357-.143q.143-.144.143-.357t-.143-.357Q17.213 9.5 17 9.5h-4.708l-1.942-2H17q.213 0 .357-.143q.143-.144.143-.357t-.143-.357Q17.213 6.5 17 6.5h-6.558q-.213 0-.356.143q-.144.144-.144.357v.092L7.223 4.373q-.192-.192-.22-.42q-.028-.226.059-.443q.086-.218.273-.364Q7.52 3 7.795 3h11.59q.69 0 1.152.463q.463.462.463 1.152M7.154 13.77q.31 0 .54-.23q.23-.23.23-.539q0-.31-.23-.54q-.23-.23-.54-.23q-.31 0-.54.23q-.23.23-.23.54q0 .31.23.54q.23.23.54.23m0-3q.31 0 .54-.23q.23-.23.23-.54q0-.31-.23-.54q-.23-.23-.54-.23q-.31 0-.54.23q-.23.23-.23.54q0 .31.23.54q.23.23.54.23"/></svg>