<svg xmlns="http://www.w3.org/2000/svg" width="1em" height="1em" viewBox="0 0 24 24"><path fill="currentColor" d="M7.154 13.538q.31 0 .54-.23q.23-.23.23-.539q0-.31-.23-.54q-.23-.229-.54-.229q-.31 0-.54.23q-.23.23-.23.54q0 .309.23.539q.23.23.54.23m0-2.77q.31 0 .54-.23q.23-.23.23-.539q0-.31-.23-.54q-.23-.23-.54-.23q-.31 0-.54.23q-.23.23-.23.54q0 .31.23.54q.23.23.54.23m0-2.77q.31 0 .54-.23q.23-.23.23-.54q0-.309-.23-.539q-.23-.23-.54-.23q-.31 0-.54.23q-.23.23-.23.54q0 .31.23.54q.23.229.54.229m3.577 5.27H14q.213 0 .356-.145q.144-.144.144-.356q0-.213-.144-.356q-.144-.144-.356-.144h-3.27q-.212 0-.355.144t-.144.357q0 .213.144.356q.143.143.356.143m0-2.769H17q.213 0 .356-.144q.144-.144.144-.357t-.144-.356Q17.213 9.5 17 9.5h-6.27q-.212 0-.355.144q-.144.144-.144.357t.144.356q.143.143.356.143m0-2.77H17q.213 0 .356-.143t.144-.357q0-.213-.144-.356T17 6.731h-6.27q-.212 0-.355.144q-.144.144-.144.356q0 .213.144.357q.143.143.356.143M6.077 17l-1.704 1.704q-.379.379-.876.17Q3 18.668 3 18.134V4.615q0-.69.463-1.152Q3.925 3 4.615 3h14.77q.69 0 1.152.463q.463.462.463 1.152v10.77q0 .69-.462 1.153q-.463.462-1.153.462z"/></svg>