<svg xmlns="http://www.w3.org/2000/svg" width="1em" height="1em" viewBox="0 0 24 24"><path fill="currentColor" d="M12 5Q9.546 5 7.83 6.715q-1.715 1.716-1.715 4.17q0 1.844 1.037 3.352q1.036 1.507 2.77 2.15q.388.165.637.475q.249.311.249.711v1.215q0 .51-.351.861t-.86.351H5q-.413 0-.707-.293Q4 19.413 4 19t.293-.707Q4.587 18 5 18h3.615q-2.08-.99-3.29-2.904q-1.21-1.913-1.21-4.211q0-3.281 2.302-5.583T12 3q3.28 0 5.583 2.302t2.302 5.583q0 2.298-1.21 4.211q-1.21 1.914-3.29 2.904H19q.413 0 .707.293q.293.294.293.707t-.293.707Q19.413 20 19 20h-4.596q-.51 0-.86-.351q-.352-.35-.352-.86v-1.216q0-.4.25-.71q.248-.311.637-.476q1.733-.643 2.77-2.15q1.036-1.508 1.036-3.352q0-2.454-1.716-4.17Q14.454 5 12 5"/></svg>