<svg xmlns="http://www.w3.org/2000/svg" width="1em" height="1em" viewBox="0 0 24 24"><path fill="currentColor" d="M10.385 16.5H7.5q-.671 0-1.143-.472t-.472-1.143v-1.77q0-.69.462-1.152Q6.81 11.5 7.5 11.5h1.77q.268 0 .442-.173t.173-.442v-1.77q0-.269-.173-.442T9.269 8.5H6.385q-.214 0-.357-.143q-.143-.144-.143-.357t.143-.357q.143-.143.357-.143h2.884q.69 0 1.153.463t.463 1.152v1.77q0 .69-.463 1.153q-.462.462-1.153.462H7.5q-.27 0-.442.173t-.173.442v1.77q0 .269.173.442t.442.173h2.885q.213 0 .356.143q.144.144.144.357t-.144.357q-.143.143-.356.143m5.23-3.787l-2.134 3.554q-.068.104-.169.169q-.1.064-.23.064q-.269 0-.406-.236q-.138-.235.003-.468l2.398-3.988l-2.148-3.585q-.16-.252-.003-.487q.157-.236.426-.236q.129 0 .23.064q.1.065.168.169l1.885 3.15l1.884-3.15q.068-.104.169-.169q.1-.064.23-.064q.269 0 .406.236t-.003.468l-2.148 3.565l2.398 4.008q.16.252.003.487q-.157.236-.426.236q-.129 0-.23-.064q-.1-.065-.168-.169z"/></svg>