<svg xmlns="http://www.w3.org/2000/svg" width="1em" height="1em" viewBox="0 0 24 24"><path fill="currentColor" d="M16.504 9.885q-.617 0-1.06-.432Q15 9.023 15 8.385V4q0-.638.44-1.069T16.5 2.5q.638 0 1.07.431Q18 3.363 18 4v4.385q0 .637-.43 1.068t-1.066.432M5.615 21q-.666 0-1.14-.475Q4 20.051 4 19.385V4.615q0-.666.475-1.14Q4.949 3 5.615 3H12.5v1H5.615q-.269 0-.442.173T5 4.615v14.77q0 .269.173.442t.442.173h9.77q.269 0 .442-.173t.173-.442V17.73h1v1.646q0 .679-.475 1.15q-.474.473-1.14.473zM7.5 17.73V16.5h6v1.23zm0-3v-1h4v1zm9.5.77h-1v-2.523q-1.848-.177-3.174-1.468Q11.5 10.217 11.5 8.385h1q0 1.546 1.198 2.58Q14.896 12 16.498 12q1.63 0 2.816-1.035Q20.5 9.931 20.5 8.385h1q0 1.852-1.313 3.133Q18.873 12.8 17 12.977z"/></svg>