<svg xmlns="http://www.w3.org/2000/svg" width="1em" height="1em" viewBox="0 0 24 24"><path fill="currentColor" d="M8.23 16.5q-.213 0-.356-.144T7.731 16V9.115q0-.269-.173-.442T7.115 8.5h-.884q-.213 0-.356-.144q-.144-.144-.144-.357t.144-.356q.143-.143.356-.143h.884q.667 0 1.141.475q.475.474.475 1.14V16q0 .213-.144.356t-.357.144m5.54 0q-.213 0-.357-.144T13.269 16t.144-.356q.144-.143.356-.143h2.885q.27 0 .442-.173t.173-.442v-1.77q0-.269-.173-.442t-.442-.173h-1.77q-.666 0-1.14-.475q-.475-.474-.475-1.14v-1.77q0-.666.475-1.14q.474-.475 1.14-.475h2.885q.213 0 .356.144q.144.144.144.357t-.144.356q-.143.143-.356.143h-2.884q-.27 0-.443.173t-.173.442v1.77q0 .269.173.442t.443.173h1.769q.69 0 1.153.463q.462.462.462 1.152v1.77q0 .69-.462 1.153q-.463.462-1.153.462zm-2.77 0q-.213 0-.357-.144q-.143-.144-.143-.357t.144-.356q.144-.143.357-.143t.356.144q.143.144.143.357t-.144.356q-.144.143-.357.143"/></svg>