<svg xmlns="http://www.w3.org/2000/svg" width="1em" height="1em" viewBox="0 0 24 24"><path fill="currentColor" d="M12.577 19q-.31 0-.54-.23q-.23-.23-.23-.54v-3.845q0-.31.23-.54q.23-.23.54-.23h2.346q.31 0 .54.23q.23.23.23.54v3.846q0 .31-.23.54q-.23.229-.54.229zm.115-.885h2.116V14.5h-2.116zm4.5 3.577v-2.365q0-.329.22-.55q.22-.22.55-.22h2.269v-1.365h-3.039v-.884h3.154q.329 0 .55.22q.22.22.22.549v1.596q0 .329-.22.55q-.221.22-.55.22h-2.27v1.365h3.04v.884zm-7.769-.723q-2.806-.215-4.614-2.243Q3 16.698 3 13.8q0-2.154 1.738-4.764T10 3.308q2.512 2.204 4.122 4.204q1.61 2 2.301 3.719h-5.385q-.67 0-1.143.472q-.472.472-.472 1.143z"/></svg>