<svg xmlns="http://www.w3.org/2000/svg" width="1em" height="1em" viewBox="0 0 24 24"><path fill="currentColor" d="M5.079 14.396v2.833q0 .161-.056.3t-.186.271l-3.154 3.154q-.14.14-.345.15q-.203.01-.363-.15t-.16-.354q0-.194.16-.354l3.18-3.18l-1.215-3.22q-.136-.334-.046-.797q.09-.462.431-.803l3.3-3.3q.223-.223.477-.334q.254-.112.583-.112t.582.112q.254.111.477.334l2.039 1.95q.694.675 1.611 1.072q.918.397 1.985.494v1q-1.25-.097-2.358-.562q-1.108-.465-1.846-1.185l-1.046-1.007l-3.042 3.042l2.055 2.1q.106.125.171.264q.066.14.066.301V21q0 .213-.143.357q-.144.143-.357.143q-.214 0-.357-.143q-.143-.144-.143-.357v-4.48zm11.3 1.527V21q0 .213-.143.357q-.144.143-.357.143q-.214 0-.357-.143q-.143-.144-.143-.357v-5.421q0-.162.056-.31q.055-.15.186-.28l1.935-1.835l-.908-4.808q-.76.93-1.594 1.675t-1.898 1.064q-.364-.05-.717-.206q-.352-.156-.622-.406q1.164-.18 2.238-.964t1.585-1.64l.962-1.6q.329-.54.896-.7q.567-.161 1.139.081l4.257 1.785q.218.105.351.304q.134.2.134.442V11q0 .213-.143.357q-.144.143-.357.143q-.214 0-.357-.143q-.143-.144-.143-.357V8.292l-2.954-1.2l2.704 13.78q.061.263-.107.445q-.168.183-.443.183q-.177 0-.32-.116t-.2-.294l-1.753-7.417zm-5.5-7.154q-.71 0-1.201-.491q-.491-.491-.491-1.201q0-.71.49-1.201q.492-.491 1.202-.491t1.2.491q.492.491.492 1.2q0 .71-.491 1.202q-.492.491-1.201.491m5.846-4.077q-.71 0-1.201-.491q-.491-.491-.491-1.201q0-.71.491-1.201q.491-.491 1.201-.491t1.201.491q.491.491.491 1.201t-.491 1.201q-.491.491-1.201.491"/></svg>