<svg xmlns="http://www.w3.org/2000/svg" width="1em" height="1em" viewBox="0 0 24 24"><path fill="currentColor" d="M3.03 11.494q.068-1.37.507-2.595q.438-1.224 1.215-2.262q.933.957 1.53 2.24q.597 1.285.695 2.617zm13.993 0q.098-1.332.654-2.575T19.248 6.7q.777 1.033 1.215 2.25q.439 1.217.506 2.544zM4.752 17.3q-.777-1.033-1.196-2.228q-.42-1.195-.525-2.566h3.946q-.098 1.332-.695 2.575q-.597 1.242-1.53 2.219m14.496 0q-1.015-.977-1.571-2.22q-.556-1.242-.654-2.574h3.946q-.067 1.327-.506 2.544q-.438 1.217-1.215 2.25M8.002 11.494q-.104-1.607-.783-3.017T5.387 5.919Q6.548 4.662 8.124 3.9q1.576-.764 3.37-.868v8.463zm4.504 0V3.031q1.794.104 3.37.867q1.576.764 2.737 2.021q-1.178 1.085-1.845 2.526q-.666 1.442-.77 3.05zm-1.012 9.475q-1.838-.104-3.392-.89q-1.554-.785-2.715-2.042q1.178-1.104 1.845-2.504q.666-1.4.77-3.027h3.492zm1.012 0v-8.463h3.492q.104 1.627.77 3.058q.667 1.432 1.845 2.517q-1.161 1.257-2.737 2.02q-1.576.764-3.37.868"/></svg>