<svg xmlns="http://www.w3.org/2000/svg" width="1em" height="1em" viewBox="0 0 24 24"><path fill="currentColor" d="M2.77 18.346v-.692q0-.31.229-.54q.23-.23.54-.23h.846v2.231h-.847q-.31 0-.539-.23q-.23-.23-.23-.539m2.616.77v-2.231h4.192l1.004-2.258l.677 1.461l-1.12 2.477q-.125.275-.375.413t-.525.137zm15.846-.77q0 .31-.23.54q-.23.23-.54.23h-.846v-2.231h.847q.31 0 .539.23q.23.23.23.539zm-2.616.77h-3.853q-.275 0-.525-.138t-.375-.413L8.132 5.746q-.138-.308.033-.584q.172-.277.516-.277q.18 0 .334.093q.154.093.239.268L12 11.431l2.746-6.185q.085-.175.236-.268q.15-.093.331-.093q.345 0 .519.277q.174.276.035.584l-3.19 7.18l1.746 3.959h4.192z"/></svg>