<svg xmlns="http://www.w3.org/2000/svg" width="1em" height="1em" viewBox="0 0 24 24"><path fill="currentColor" d="M9.787 19.898q-1.099.144-2.8.072q-1.7-.072-2.575-.458q-.293-.82-.386-2.5t.09-2.785zm1.201-.208l-6.665-6.665q.425-1.779 1.17-3.326q.745-1.547 1.705-2.512q.979-.98 2.603-1.767q1.624-.787 3.207-1.072l6.657 6.696q-.303 1.716-1.06 3.266q-.755 1.55-1.753 2.548q-1.048 1.042-2.61 1.8q-1.563.76-3.254 1.032M9.65 15.058l5.408-5.408l-.708-.708l-5.408 5.408zm10.223-5.216l-5.633-5.72q1.047-.19 2.748-.095q1.702.094 2.504.423q.412.98.49 2.578q.08 1.597-.109 2.814"/></svg>