<svg xmlns="http://www.w3.org/2000/svg" width="1em" height="1em" viewBox="0 0 24 24"><path fill="currentColor" d="M12.004 15q-2.506 0-4.255-1.745Q6 11.509 6 9.004q0-2.506 1.745-4.255Q9.491 3 11.996 3q2.506 0 4.255 1.745Q18 6.491 18 8.996q0 2.506-1.745 4.255Q14.509 15 12.004 15M10 9q.425 0 .713-.288T11 8q0-.425-.288-.712T10 7q-.425 0-.712.288T9 8q0 .425.288.713T10 9m4 0q.425 0 .713-.288T15 8q0-.425-.288-.712T14 7q-.425 0-.712.288T13 8q0 .425.288.713T14 9m-2-2q.425 0 .713-.288T13 6q0-.425-.288-.712T12 5q-.425 0-.712.288T11 6q0 .425.288.713T12 7m-.5 13.885v-1q0-1.056-.722-1.778T9 17.385h-.73q-.213 0-.357-.144t-.144-.357q0-.213.144-.356t.356-.143h7.462q.212 0 .356.144t.144.356q0 .213-.144.356q-.144.144-.356.144H15q-1.056 0-1.778.722t-.722 1.778v1z"/></svg>