<svg xmlns="http://www.w3.org/2000/svg" width="1em" height="1em" viewBox="0 0 24 24"><path fill="currentColor" d="m14.308 14.046l-2.262 2.262q-.242.242-.546.242t-.546-.242l-8-7.962q-.242-.242-.242-.521t.249-.528l2.325-2.325q.249-.249.539-.249t.533.242l7.95 8.027q.242.243.242.527q0 .285-.242.527m3.938 6.908l-3.973-3.973l.708-.708l3.973 3.973q.14.14.15.344q.01.204-.15.364t-.354.16q-.194 0-.354-.16m.258-12.685q-1.146 0-1.96-.81q-.813-.81-.813-1.955q0-1.146.81-1.96q.81-.813 1.955-.813q1.146 0 1.96.81q.813.81.813 1.956q0 1.145-.81 1.959q-.81.813-1.956.813"/></svg>