<svg xmlns="http://www.w3.org/2000/svg" width="1em" height="1em" viewBox="0 0 24 24"><path fill="currentColor" d="M5.908 17.223q1.24-.913 1.916-2.298Q8.5 13.54 8.5 12t-.676-2.925Q7.148 7.69 5.908 6.777q-.93 1.108-1.419 2.438Q4 10.546 4 12t.49 2.785q.489 1.33 1.418 2.438M12 20q1.49 0 2.864-.524q1.374-.524 2.482-1.534q-1.348-1.111-2.097-2.653Q14.5 13.75 14.5 12t.749-3.29q.75-1.54 2.097-2.652q-1.108-1.01-2.482-1.534T12 4q-1.49 0-2.864.524q-1.374.524-2.482 1.534Q8.002 7.169 8.75 8.71q.75 1.54.75 3.29t-.749 3.29q-.75 1.54-2.097 2.652q1.108 1.01 2.482 1.534T12 20m6.092-2.777q.93-1.108 1.419-2.438Q20 13.454 20 12t-.49-2.785q-.489-1.33-1.418-2.438q-1.24.913-1.916 2.298Q15.5 10.46 15.5 12t.676 2.925q.676 1.385 1.916 2.298M12.003 21q-1.866 0-3.51-.708q-1.643-.709-2.859-1.924q-1.216-1.214-1.925-2.856Q3 13.87 3 12.003q0-1.866.708-3.51q.709-1.643 1.924-2.859q1.214-1.216 2.856-1.925Q10.13 3 11.997 3q1.866 0 3.51.708q1.643.709 2.859 1.924q1.216 1.214 1.925 2.856Q21 10.13 21 11.997q0 1.866-.708 3.51q-.709 1.643-1.924 2.859q-1.214 1.216-2.856 1.925Q13.87 21 12.003 21"/></svg>