<svg xmlns="http://www.w3.org/2000/svg" width="1em" height="1em" viewBox="0 0 24 24"><path fill="currentColor" d="M7.65 20.5q-1.252 0-2.22-.177q-.967-.177-1.288-.504q-.315-.32-.479-1.284q-.163-.964-.163-2.208q0-2.721.936-5.215t2.556-4.12q1.621-1.62 4.12-2.556q2.5-.936 5.238-.936q1.252 0 2.22.177q.967.177 1.288.504q.315.32.479 1.284q.163.964.163 2.208q0 2.721-.936 5.215t-2.556 4.12q-1.621 1.62-4.12 2.556q-2.5.936-5.238.936m-3.1-3.035q.806-2.396 2.038-4.416q1.233-2.02 2.831-3.63Q11 7.84 13.028 6.608q2.03-1.233 4.426-2.058q-2.794-.194-5.472.688q-2.678.881-4.27 2.474q-1.59 1.578-2.476 4.276t-.686 5.477m2.035 1.985q2.736.194 5.424-.687q2.687-.882 4.28-2.475q1.59-1.578 2.475-4.296q.886-2.717.686-5.496q-.825 2.416-2.048 4.445t-2.821 3.64q-1.598 1.598-3.618 2.83q-2.02 1.233-4.378 2.039"/></svg>