<svg xmlns="http://www.w3.org/2000/svg" width="1em" height="1em" viewBox="0 0 24 24"><path fill="currentColor" d="M4 14.704q0-.116.055-.222q.055-.107.158-.174l.63-.452q.478-.348 1.059-.305q.58.043 1.01.447l4.79 4.64q.173.154.394.174q.221.019.414-.135l3.528-2.823q.218-.18.463-.267q.245-.087.537-.087H19.5q.213 0 .357.143q.143.144.143.357t-.143.357q-.144.143-.357.143h-2.462q-.096 0-.192.029t-.192.106l-3.51 2.803q-.479.38-1.078.351q-.599-.027-1.053-.456l-4.79-4.621q-.154-.154-.375-.183t-.413.106l-.648.49q-.25.177-.519.037Q4 15.022 4 14.704m0-6.025q0-.116.062-.22q.061-.103.146-.176L6.642 6.48q.485-.368 1.085-.318q.6.05 1.029.48l3.02 3.02q.155.154.376.174q.221.019.413-.116l6.648-4.802q.25-.177.519-.036q.268.14.268.457q0 .135-.055.23t-.158.167l-6.624 4.801q-.484.349-1.065.308q-.58-.04-1.01-.47l-3.04-3.04q-.154-.153-.375-.173q-.221-.019-.413.116L4.787 9.08q-.25.177-.519.046Q4 8.997 4 8.679"/></svg>