<svg xmlns="http://www.w3.org/2000/svg" width="1em" height="1em" viewBox="0 0 24 24"><path fill="currentColor" d="M12 13.187q-.192 0-.372-.053t-.366-.14l-7.874-4.08q-.217-.131-.32-.318q-.103-.186-.103-.404q0-.217.103-.404q.103-.186.32-.317l7.874-4.08q.186-.087.366-.14q.18-.053.372-.053t.372.053q.18.053.366.14l7.893 4.08q.217.13.32.317q.103.187.103.404q0 .218-.103.404q-.103.187-.32.317l-7.893 4.081q-.186.087-.366.14q-.18.053-.372.053m0 2.865l8.158-4.198q.069-.044.34-.01q.175.039.27.163q.095.124.095.299q0 .14-.057.25q-.058.11-.198.182l-7.87 4.064q-.186.086-.366.14q-.18.052-.372.052t-.372-.053q-.18-.053-.366-.14l-7.85-4.063q-.14-.073-.208-.182q-.067-.11-.067-.25q0-.175.104-.3q.105-.123.28-.162q.087-.038.17-.04q.084 0 .17.05zm0 3.808l8.158-4.198q.069-.045.34-.01q.175.038.27.162q.095.124.095.3q0 .14-.057.25q-.058.11-.198.182l-7.87 4.064q-.186.086-.366.14q-.18.052-.372.052t-.372-.053q-.18-.053-.366-.14l-7.85-4.063q-.14-.073-.208-.183q-.067-.11-.067-.25q0-.175.104-.299q.105-.124.28-.162q.087-.039.17-.04q.084 0 .17.05z"/></svg>