<svg xmlns="http://www.w3.org/2000/svg" width="1em" height="1em" viewBox="0 0 24 24"><path fill="currentColor" d="M3.5 17.5q-.213 0-.357-.144Q3 17.213 3 17V7q0-.213.144-.356q.144-.144.357-.144q.212 0 .356.144Q4 6.788 4 7v10q0 .213-.144.356T3.5 17.5m15.6-5H6.884q-.213 0-.357-.144q-.143-.144-.143-.357t.143-.356q.144-.143.357-.143h12.194l-3.721-3.765q-.14-.14-.134-.332q.007-.191.153-.34q.134-.138.34-.138t.348.14l4.37 4.37q.13.13.183.27q.053.139.053.298q0 .159-.053.295q-.053.137-.183.267l-4.389 4.389q-.135.14-.339.14q-.203 0-.35-.14q-.165-.146-.155-.357q.01-.21.156-.357z"/></svg>