<svg xmlns="http://www.w3.org/2000/svg" width="1em" height="1em" viewBox="0 0 24 24"><path fill="currentColor" d="m12 16.07l-3.027 2.305q-.16.11-.321.097q-.162-.012-.296-.091q-.135-.08-.205-.235q-.07-.156-.003-.333l1.156-3.798l-2.875-2.075q-.166-.103-.212-.265q-.046-.162.016-.321q.061-.16.186-.257T6.721 11h3.61l1.18-3.877q.068-.177.196-.278q.128-.1.293-.1t.293.1q.128.101.195.278L13.67 11h3.61q.177 0 .302.097t.186.257q.062.16.016.321q-.046.162-.212.265l-2.875 2.075l1.156 3.798q.067.177-.003.333q-.07.156-.205.235q-.134.079-.296.091q-.161.013-.321-.097z"/></svg>