<svg xmlns="http://www.w3.org/2000/svg" width="1em" height="1em" viewBox="0 0 24 24"><path fill="currentColor" d="m12 17.102l-3.63 2.192q-.16.08-.297.064q-.136-.016-.265-.095q-.13-.078-.196-.226q-.068-.147-.012-.318l.965-4.11l-3.194-2.77q-.134-.11-.178-.263q-.043-.153.019-.293q.061-.14.165-.23q.104-.088.28-.118l4.216-.368l1.644-3.892q.068-.165.196-.238T12 6.363q.16 0 .288.074t.195.238l1.644 3.892l4.215.368q.177.03.281.119q.104.088.165.229q.062.14.019.293q-.044.153-.178.262l-3.194 2.772l.965 4.11q.056.17-.012.318q-.067.147-.196.225q-.129.08-.265.095q-.137.015-.296-.064z"/></svg>