<svg xmlns="http://www.w3.org/2000/svg" width="1em" height="1em" viewBox="0 0 24 24"><path fill="currentColor" d="M12 16.462q-.262 0-.438-.177q-.177-.177-.177-.439q0-.261.177-.438q.176-.177.438-.177t.438.177q.177.177.177.438q0 .262-.177.439q-.176.177-.438.177m0-2.962q-.213 0-.357-.144q-.143-.143-.143-.356V7.923q0-.212.144-.356T12 7.423t.356.144q.143.144.143.356V13q0 .213-.144.356q-.144.144-.357.144M7.615 22q-.69 0-1.152-.462Q6 21.075 6 20.385V3.615q0-.69.463-1.152Q6.925 2 7.615 2h8.77q.69 0 1.152.463q.463.462.463 1.152v16.77q0 .69-.462 1.152q-.463.463-1.153.463zM7 18.5h10v-13H7z"/></svg>