<svg xmlns="http://www.w3.org/2000/svg" width="1em" height="1em" viewBox="0 0 24 24"><path fill="currentColor" d="M13.27 21q-2.297 0-3.908-1.602Q7.75 17.796 7.75 15.5v-.517q-1.9-.177-3.2-1.6q-1.3-1.421-1.3-3.383V5.308q0-.344.232-.576q.232-.232.576-.232H6.25V4q0-.213.144-.356q.144-.144.357-.144q.212 0 .356.144q.143.143.143.356v2q0 .213-.144.356t-.357.144q-.212 0-.356-.144Q6.25 6.213 6.25 6v-.5h-2V10q0 1.65 1.175 2.825T8.25 14q1.65 0 2.825-1.175T12.25 10V5.5h-2V6q0 .213-.144.356q-.144.144-.357.144q-.212 0-.356-.144Q9.25 6.213 9.25 6V4q0-.213.144-.356T9.75 3.5q.212 0 .356.144q.143.143.143.356v.5h2.192q.344 0 .576.232q.232.232.232.576V10q0 1.962-1.3 3.384t-3.2 1.599v.517q0 1.875 1.318 3.188Q11.386 20 13.27 20zm1.172-3.5q-.212 0-.356-.144T13.942 17t.144-.356q.144-.143.356-.143h4.368l-1.722-1.74q-.133-.147-.14-.348q-.006-.2.14-.347q.147-.146.35-.146q.205 0 .358.146l2.37 2.37q.242.242.242.565q0 .323-.243.565l-2.369 2.37q-.148.146-.345.146t-.353-.146q-.156-.147-.15-.347q.007-.201.14-.348l1.722-1.74z"/></svg>