<svg xmlns="http://www.w3.org/2000/svg" width="1em" height="1em" viewBox="0 0 24 24"><path fill="currentColor" d="M5.615 19H14v-4.192q0-.344.232-.576q.232-.232.576-.232H19V5.615q0-.269-.173-.442T18.385 5H5.615q-.269 0-.442.173T5 5.615v12.77q0 .269.173.442t.442.173m0 1q-.666 0-1.14-.475Q4 19.051 4 18.385V5.615q0-.666.475-1.14Q4.949 4 5.615 4h12.77q.666 0 1.14.475q.475.474.475 1.14v8.002q0 .332-.13.632q-.132.301-.349.518l-4.754 4.754q-.217.217-.518.348q-.3.131-.632.131zm5.885-6.538H8.385q-.213 0-.357-.144t-.143-.357q0-.213.143-.356t.357-.143H11.5q.213 0 .356.143t.144.357q0 .213-.144.356q-.144.144-.356.144M15.615 9.5h-7.23q-.213 0-.357-.144q-.143-.144-.143-.357t.143-.356q.144-.143.357-.143h7.23q.213 0 .357.144q.143.144.143.357t-.143.356q-.144.143-.357.143M5 19V5z"/></svg>