<svg xmlns="http://www.w3.org/2000/svg" width="1em" height="1em" viewBox="0 0 24 24"><path fill="currentColor" d="m14 19l5-5h-4.192q-.344 0-.576.232q-.232.232-.232.576zm-8.385 1q-.666 0-1.14-.475Q4 19.051 4 18.385V5.615q0-.666.475-1.14Q4.949 4 5.615 4h12.77q.666 0 1.14.475q.475.474.475 1.14v8.002q0 .332-.13.632q-.132.301-.349.518l-4.754 4.754q-.217.217-.518.348q-.3.131-.632.131zm2.77-6.538H11.5q.213 0 .356-.144T12 12.96q0-.213-.144-.356t-.356-.143H8.385q-.213 0-.357.143t-.143.357q0 .213.143.356q.144.144.357.144m0-3.962h7.23q.213 0 .357-.144q.143-.144.143-.357t-.143-.356q-.144-.143-.357-.143h-7.23q-.213 0-.357.144q-.143.144-.143.357t.143.356q.144.143.357.143"/></svg>