<svg xmlns="http://www.w3.org/2000/svg" width="1em" height="1em" viewBox="0 0 24 24"><path fill="currentColor" d="M4.615 14q-.69 0-1.152-.462Q3 13.075 3 12.385v-7.77q0-.69.463-1.152Q3.925 3 4.615 3h7.77q.69 0 1.153.463q.462.462.462 1.152v7.77q0 .69-.462 1.153q-.463.462-1.153.462zm0-1h7.77q.269 0 .442-.173t.173-.442v-7.77q0-.269-.173-.442T12.385 4h-7.77q-.269 0-.442.173T4 4.615v7.77q0 .269.173.442t.442.173M8 11.75L6.8 10.1L5.385 12h6.23L9.7 9.5zM16.5 21q-1.038 0-1.77-.73q-.73-.732-.73-1.77t.73-1.77q.732-.73 1.77-.73q.448 0 .82.146q.372.146.68.414V11h3v1h-2v6.5q0 1.038-.73 1.77q-.732.73-1.77.73M4 13V4z"/></svg>