<svg xmlns="http://www.w3.org/2000/svg" width="1em" height="1em" viewBox="0 0 24 24"><path fill="currentColor" d="M6.423 19q-1.01 0-1.716-.707T4 16.577V8.48q0-.213.144-.356T4.5 7.98h15q.213 0 .356.144T20 8.48v8.096q0 1.01-.707 1.716T17.577 19zM5 8.98v7.597q0 .605.41 1.014q.408.409 1.013.409h11.154q.605 0 1.014-.41q.409-.408.409-1.013V8.98zm4.5-3.384v-.77q0-.35.23-.588T10.317 4h3.366q.357 0 .587.238q.23.237.23.589v.77h5q.213 0 .356.143t.144.357q0 .213-.144.356t-.356.143h-15q-.213 0-.356-.144Q4 6.308 4 6.095q0-.212.144-.356q.143-.143.356-.143zm2.5 7.885"/></svg>