<svg xmlns="http://www.w3.org/2000/svg" width="1em" height="1em" viewBox="0 0 24 24"><path fill="currentColor" d="M11.925 21q-1.863 0-3.506-.71t-2.857-1.927q-1.216-1.215-1.926-2.857q-.711-1.643-.711-3.506t.71-3.506q.711-1.642 1.927-2.857Q6.777 4.42 8.419 3.71Q10.062 3 11.925 3t3.506.71q1.642.711 2.857 1.927q1.216 1.215 1.926 2.857q.711 1.643.711 3.506t-.71 3.506q-.711 1.642-1.927 2.857q-1.215 1.216-2.857 1.926q-1.643.711-3.506.711m7.2-5.5H9.088l-2 2h10.65q.431-.442.776-.94q.346-.497.611-1.06m.788-3h-7.8l-2 2h9.408q.166-.48.264-.978q.098-.497.128-1.022m-.392-3h-4.388l-2.02 2h6.8q-.03-.525-.128-1.022T19.52 9.5m-1.598-2.785L16.138 8.5h2.987q-.24-.5-.537-.943q-.298-.444-.665-.842M5.927 17.285L17.24 6.02q-1.063-.954-2.419-1.487Q13.465 4 11.925 4Q8.575 4 6.25 6.325T3.925 12q0 1.535.534 2.878q.533 1.343 1.468 2.407M11.925 20q1.306 0 2.483-.394t2.167-1.106h-9.3q.99.712 2.167 1.106Q10.62 20 11.925 20"/></svg>