<svg xmlns="http://www.w3.org/2000/svg" width="1em" height="1em" viewBox="0 0 24 24"><path fill="currentColor" d="M11.925 21q-1.863 0-3.506-.71t-2.857-1.927q-1.216-1.215-1.926-2.857q-.711-1.643-.711-3.506t.71-3.506q.711-1.642 1.927-2.857Q6.777 4.42 8.419 3.71Q10.062 3 11.925 3t3.506.71q1.642.711 2.857 1.927q1.216 1.215 1.926 2.857q.711 1.643.711 3.506t-.71 3.506q-.711 1.642-1.927 2.857q-1.215 1.216-2.857 1.926q-1.643.711-3.506.711m1.371-1.133q2.508-.402 4.301-2.195q1.793-1.793 2.195-4.3zm-9.233-9.313l6.416-6.416Q7.996 4.56 6.24 6.315q-1.755 1.756-2.177 4.239m.285 4.034l10.165-10.16q-.569-.209-1.186-.307t-1.25-.11l-8.14 8.14q.011.634.116 1.25q.105.618.295 1.187m1.579 2.697L17.21 5.977q-.373-.342-.807-.617q-.434-.275-.909-.516L4.77 15.57q.24.475.525.909q.285.434.633.807m2.429 1.87L19.075 8.413q-.24-.475-.525-.9t-.627-.797L6.64 18.023q.373.342.807.617q.434.275.909.516m3.417.832l8.14-8.14q-.011-.633-.11-1.25q-.097-.617-.307-1.186l-10.16 10.16q.57.209 1.187.307t1.25.11"/></svg>