<svg xmlns="http://www.w3.org/2000/svg" width="1em" height="1em" viewBox="0 0 24 24"><path fill="currentColor" d="M14.73 20.346q-.586 0-1.004-.418q-.418-.418-.418-1.005t.418-1.005q.418-.418 1.005-.418t1.005.418q.418.418.418 1.005t-.418 1.005q-.418.418-1.005.418m-7.77 0q-.574 0-.998-.418q-.425-.418-.425-1.005t.425-1.005q.424-.418.999-.418q.613 0 1.018.418t.405 1.005q0 .587-.405 1.005q-.405.418-1.018.418m1.58-4.846h4.996q.27 0 .443-.173t.173-.442v-5.96zm-1.117 1q-.32 0-.45-.287q-.129-.286.085-.536l8.678-10.175q.443-.517.94-.76q.497-.242 1.107-.242q.88 0 1.48.6t.6 1.488V7h-1v-.42q0-.46-.31-.77t-.77-.31q-.381 0-.675.148t-.547.425l-1.41 1.644v7.162q0 .677-.473 1.149q-.475.472-1.14.472zm2.81-6.842L6.34 5.763q.95-.638 1.987-.95Q9.363 4.5 10.519 4.5q.894 0 1.742.179q.847.179 1.75.556zm-.068-1.47l2.087-2.446q-.43-.12-.867-.181t-.868-.061q-.654 0-1.28.123t-1.235.383zm0 0"/></svg>