<svg xmlns="http://www.w3.org/2000/svg" width="1em" height="1em" viewBox="0 0 24 24"><path fill="currentColor" d="M9.002 21.02q-1.04 0-1.771-.73q-.731-.728-.731-1.768q0-1.041.729-1.772t1.769-.73q1.04 0 1.771.728q.731.728.731 1.769q0 1.04-.728 1.771q-.729.731-1.77.731m4.261-3.475q-.188-.875-.717-1.598q-.529-.723-1.29-1.136l3.246-3.214H6.4q-.608 0-1.004-.43Q5 10.733 5 10.106q0-.392.195-.704q.195-.313.505-.53L16.696 2.02q.277-.16.585-.08q.307.08.467.347q.16.268.09.573q-.07.304-.323.464L8.058 9.5H17.6q.59 0 .995.405q.405.406.405.995q0 .359-.074.707q-.074.349-.322.597z"/></svg>