<svg xmlns="http://www.w3.org/2000/svg" width="1em" height="1em" viewBox="0 0 24 24"><path fill="currentColor" d="m4.321 20.3l-.196-.08q-.794-.345-1.066-1.145t.078-1.556l1.184-2.554zm4.77 1.585q-.826 0-1.413-.588t-.588-1.412v-3.962l1.92 5.312q.075.194.15.347q.075.153.2.303zm3.88-.908q-.396.165-.78-.046q-.385-.212-.55-.627l-4.45-12.2q-.166-.396.03-.784q.196-.387.592-.547l7.55-2.75q.397-.165.762.046q.365.212.53.627l4.45 12.162q.166.415-.001.812q-.167.397-.583.557zM11.167 10q.425 0 .713-.288T12.167 9q0-.425-.287-.712T11.167 8q-.425 0-.712.288T10.167 9q0 .425.288.713t.712.287m1.45 10l7.55-2.75L15.717 5l-7.55 2.75zM8.167 7.75L15.717 5z"/></svg>