<svg xmlns="http://www.w3.org/2000/svg" width="1em" height="1em" viewBox="0 0 24 24"><path fill="currentColor" d="M4.615 21q-.69 0-1.152-.462Q3 20.075 3 19.385v-8.77q0-.69.463-1.152Q3.925 9 4.615 9h14.77q.69 0 1.152.463q.463.462.463 1.152v8.77q0 .69-.462 1.152q-.463.463-1.153.463zm6.506-3.352l3.485-2.32q.186-.13.186-.328t-.186-.329l-3.485-2.32q-.211-.136-.416-.027q-.205.109-.205.351v4.65q0 .242.205.351q.205.109.416-.028M5 7.231q-.213 0-.357-.143Q4.5 6.944 4.5 6.73t.143-.357Q4.787 6.23 5 6.23h14q.213 0 .357.143q.143.143.143.357q0 .213-.143.357q-.144.143-.357.143zm3-2.77q-.213 0-.357-.143q-.143-.143-.143-.356q0-.214.143-.357q.144-.143.357-.143h8q.213 0 .357.143q.143.143.143.357q0 .213-.143.356q-.144.144-.357.144z"/></svg>