<svg xmlns="http://www.w3.org/2000/svg" width="1em" height="1em" viewBox="0 0 24 24"><path fill="currentColor" d="M19.192 19q-.343 0-.575-.232q-.232-.232-.232-.576v-.769q0-.343.232-.575q.232-.233.575-.233H21v-.846h-2.23q-.155 0-.27-.115q-.115-.116-.115-.27t.115-.269q.115-.115.27-.115h2.192q.343 0 .575.232q.232.232.232.576v.769q0 .343-.232.575q-.232.233-.575.233h-1.808v.846h2.23q.154 0 .27.115q.115.116.115.27q0 .153-.115.269q-.116.115-.27.115zM8.008 17.385q-.329 0-.48-.277q-.153-.277.024-.564l3.64-5.627l-3.296-5.082q-.177-.281-.025-.558T8.341 5q.146 0 .262.067q.117.067.187.189l3.18 4.936h.022l3.231-4.955q.069-.113.19-.175q.12-.062.255-.062q.331 0 .479.277q.147.277-.03.563l-3.354 5.077l3.685 5.627q.177.287.02.564q-.156.277-.47.277q-.142 0-.26-.067q-.119-.067-.19-.19l-3.556-5.457h-.023L8.452 17.13q-.069.122-.19.189q-.12.067-.254.067"/></svg>