<svg xmlns="http://www.w3.org/2000/svg" width="1em" height="1em" viewBox="0 0 24 24"><path fill="currentColor" d="M3 19.385V8.85q0-1.76.956-3.101t2.629-2.026q1.215-.467 2.663-.595Q10.696 3 12 3q1.304 0 2.752.128q1.448.128 2.663.595q1.673.685 2.63 2.026Q21 7.09 21 8.85v10.535q0 .666-.475 1.14q-.474.475-1.14.475H4.615q-.666 0-1.14-.475Q3 20.051 3 19.385m4.5-6.154V9h9v4.23zm7.574 3.115q-.345 0-.575-.233q-.23-.233-.23-.578t.233-.574q.234-.23.578-.23q.345 0 .575.233q.23.233.23.578t-.234.574q-.233.23-.577.23m-6.154 0q-.345 0-.575-.233q-.23-.233-.23-.578t.234-.574q.233-.23.577-.23q.345 0 .575.233q.23.233.23.578t-.233.574q-.234.23-.578.23m1.334 2h3.48l1.353 1.487q.067.086.159.127q.091.04.191.04q.334 0 .464-.292q.13-.293-.086-.527l-.788-.885q1.12-.15 1.738-.91q.62-.761.62-1.886V9q0-1.43-1.443-1.927Q14.5 6.577 12 6.577q-2.275 0-3.83.496Q6.615 7.57 6.615 9v6.5q0 1.125.62 1.895q.619.77 1.738.901l-.794.89q-.216.235-.088.525T8.56 20q.103 0 .19-.05q.086-.05.153-.117z"/></svg>