<svg xmlns="http://www.w3.org/2000/svg" width="1em" height="1em" viewBox="0 0 24 24"><path fill="currentColor" d="M3 19.385V8.85q0-1.76.956-3.101t2.629-2.026q1.215-.467 2.663-.595Q10.696 3 12 3q1.304 0 2.752.128q1.448.128 2.663.595q1.673.685 2.63 2.026Q21 7.09 21 8.85v10.535q0 .67-.472 1.143q-.472.472-1.143.472H4.615q-.67 0-1.143-.472Q3 20.056 3 19.385m4.5-6.154V9h9v4.23zm7.577 3.115q-.348 0-.578-.23q-.23-.23-.23-.578t.23-.577q.23-.23.578-.23t.578.23q.23.23.23.577q0 .349-.23.578q-.23.23-.578.23m-6.154 0q-.348 0-.578-.23q-.23-.23-.23-.578t.23-.577q.23-.23.578-.23t.578.23q.23.23.23.577q0 .349-.23.578q-.23.23-.578.23M4.615 20h14.77q.269 0 .442-.173t.173-.442V8.85q0-1.5-.737-2.562T17.05 4.65q-1.1-.425-2.437-.537T12 4q-1.275 0-2.613.113T6.95 4.65q-1.475.575-2.212 1.638T4 8.85v10.535q0 .269.173.442t.442.173m5.639-1.654h3.48l1.353 1.487q.067.086.156.127q.09.04.201.04q.327 0 .457-.292q.13-.293-.086-.527l-.788-.885q1.12-.15 1.738-.91q.62-.761.62-1.886V9q0-1.43-1.443-1.927Q14.5 6.577 12 6.577q-2.275 0-3.83.496Q6.615 7.57 6.615 9v6.5q0 1.125.62 1.895q.619.77 1.738.901l-.794.89q-.216.235-.086.525q.13.289.457.289q.112 0 .198-.05q.087-.05.154-.117zM4.615 20q-.269 0-.442-.173T4 19.385V8.85q0-1.5.738-2.562T6.95 4.65q1.1-.425 2.438-.537T12 4q1.275 0 2.613.113t2.437.537q1.475.575 2.213 1.638T20 8.85v10.535q0 .269-.173.442t-.442.173z"/></svg>