<svg xmlns="http://www.w3.org/2000/svg" width="1em" height="1em" viewBox="0 0 24 24"><path fill="currentColor" d="M8 8.808q.329 0 .568-.24q.24-.24.24-.568q0-.329-.24-.568q-.24-.24-.568-.24q-.329 0-.568.24q-.24.24-.24.568q0 .329.24.568q.24.24.568.24m0 4q.329 0 .568-.24q.24-.24.24-.568q0-.329-.24-.568q-.24-.24-.568-.24q-.329 0-.568.24q-.24.24-.24.568q0 .329.24.568q.24.24.568.24m0 4q.329 0 .568-.24q.24-.24.24-.568q0-.329-.24-.568q-.24-.24-.568-.24q-.329 0-.568.24q-.24.24-.24.568q0 .329.24.568q.24.24.568.24M5.615 20q-.69 0-1.152-.462Q4 19.075 4 18.385V5.615q0-.69.463-1.152Q4.925 4 5.615 4h9.962L20 8.423v9.962q0 .69-.462 1.152q-.463.463-1.153.463zm0-1h12.77q.269 0 .442-.173t.173-.442V9h-4V5H5.615q-.269 0-.442.173T5 5.615v12.77q0 .269.173.442t.442.173M5 5v4zv14z"/></svg>