<svg xmlns="http://www.w3.org/2000/svg" width="1em" height="1em" viewBox="0 0 24 24"><path fill="currentColor" d="m19.833 21.26l-2.237-2.237q-1.2.954-2.616 1.465Q13.563 21 12 21q-1.863 0-3.506-.71t-2.857-1.927Q4.42 17.148 3.71 15.506Q3 13.863 3 12q0-1.602.521-3.018q.521-1.417 1.456-2.578L2.74 4.167l.714-.713l17.092 17.092zm-7.85-1.266q1.394 0 2.63-.45q1.237-.452 2.252-1.252l-1.62-1.62q-1.316.251-2.507 1.1q-1.192.85-1.938 2.124q.304.056.588.077q.285.021.595.021m-3.389-.76q.587-1.184 1.315-1.963q.728-.779 1.61-1.463q-.436-.13-1.049-.219T9.327 15.5q-1.067 0-2.023.265q-.956.266-1.866.785q.593.863 1.396 1.553q.803.69 1.76 1.132m11.025-2.427l-2.504-2.504q.775-.212 1.273-.842q.497-.631.497-1.462q0-.992-.697-1.688q-.696-.697-1.688-.697q-.83 0-1.462.498q-.63.497-.842 1.272L12.462 9.65q-.104-1.025-.843-1.766q-.738-.742-1.769-.846L7.192 4.381q1.046-.666 2.26-1.023Q10.668 3 12 3q1.863 0 3.506.71t2.857 1.927q1.216 1.215 1.926 2.857Q21 10.137 21 12q0 1.333-.358 2.547q-.357 1.215-1.023 2.26M9.5 13q.448 0 .849-.134q.401-.133.728-.362l-4.08-4.08q-.23.326-.363.727q-.134.4-.134.849q0 1.258.871 2.129T9.5 13"/></svg>