<svg xmlns="http://www.w3.org/2000/svg" width="1em" height="1em" viewBox="0 0 24 24"><path fill="currentColor" d="M16.885 13.615q-.82 0-1.41-.59t-.59-1.41q0-.819.59-1.41q.59-.59 1.41-.59q.819 0 1.41.59q.59.591.59 1.41q0 .82-.59 1.41q-.591.59-1.41.59m-3.693 5q-.343 0-.575-.232q-.232-.232-.232-.575v-.093q0-.465.232-.843q.232-.379.66-.545q.861-.356 1.766-.534q.905-.178 1.842-.178q.936 0 1.841.178q.905.178 1.766.534q.428.166.66.545q.233.378.233.843v.093q0 .343-.233.575q-.232.232-.575.232zm-3.577-7.23q-1.237 0-2.118-.882t-.882-2.118q0-1.238.882-2.12q.88-.88 2.118-.88t2.12.88q.88.882.88 2.12q0 1.237-.88 2.118t-2.12.882m-7 5.582q0-.648.358-1.191t.973-.803q1.327-.673 2.756-1.015q1.429-.343 2.913-.343q.548 0 1.097.058q.548.058 1.096.135l-.912.892q-.548.606-.914 1.342q-.367.737-.367 1.554v.225q0 .233.072.436q.071.203.23.358H3.654q-.44 0-.74-.299q-.299-.299-.299-.74z"/></svg>