<svg xmlns="http://www.w3.org/2000/svg" width="1em" height="1em" viewBox="0 0 24 24"><path fill="currentColor" d="M3 22.5q-.213 0-.357-.143Q2.5 22.213 2.5 22t.143-.357Q2.787 21.5 3 21.5q.688 0 1.355-.191t1.299-.542q.148-.086.346-.086t.346.086q.633.35 1.3.542q.666.191 1.354.191t1.355-.191q.666-.192 1.299-.542q.148-.086.349-.086q.2 0 .343.086q.633.35 1.3.542q.666.191 1.354.191t1.355-.191q.666-.192 1.299-.542q.142-.086.346-.086t.346.086q.633.35 1.3.542q.666.191 1.354.191q.213 0 .357.143q.143.144.143.357t-.143.357q-.144.143-.357.143q-.717 0-1.467-.197q-.75-.197-1.533-.61q-.783.413-1.533.61q-.75.197-1.467.197t-1.467-.197q-.75-.197-1.533-.61q-.783.413-1.533.61q-.75.197-1.467.197t-1.467-.197q-.75-.197-1.533-.61q-.783.413-1.533.61q-.75.197-1.467.197m8.329-12.538L15.5 13.25v3.85q.362.256.9.68q.538.426.85.682q-.313.257-.91.455q-.596.198-1.34.198q-.785 0-1.57-.3q-.784-.3-1.43-.95q-.646.65-1.335.922q-.688.27-1.319.31q-.058 0-.112-.01t-.107-.025q-2.42-1.495-4.023-3.168Q3.5 14.221 3.5 13.275q0-.467.437-.621q.436-.154.913-.154q.687 0 1.944.318q1.258.319 2.89 1.026L8.622 9.937q-.12-.443.007-.892q.126-.449.441-.672L12.315 6l-.612-.11q-.5-.092-1.09-.212q-.59-.12-1.089-.212q-.499-.091-.612-.11l-2.174 1.49q-.176.11-.375.083q-.198-.027-.313-.204q-.11-.177-.073-.387q.036-.211.213-.32l2.23-1.524q.136-.086.285-.124q.149-.037.31-.007l5.035.931q.235.05.473.208q.239.158.387.442l.875 1.55q.582 1.027 1.576 1.744q.993.718 2.214.937q.208.056.355.202q.147.146.147.354q0 .213-.165.354q-.166.14-.374.11q-1.553-.245-2.818-1.19q-1.264-.943-2.064-2.472zm-1.221.696l.623 3.611q.829.402 1.81.968q.98.567 1.959 1.148v-2.443zM17 5.192q-.69 0-1.191-.5q-.501-.502-.501-1.192t.5-1.191q.502-.501 1.192-.501t1.191.5q.501.502.501 1.192t-.5 1.191q-.502.501-1.192.501"/></svg>