<svg xmlns="http://www.w3.org/2000/svg" width="1em" height="1em" viewBox="0 0 24 24"><path fill="currentColor" d="M12 14.308q.962 0 1.635-.673T14.308 12t-.673-1.635q-.673-.673-1.635-.673t-1.635.673q-.673.673-.673 1.635t.673 1.635q.673.673 1.635.673m4.912 1.911q.769-.884 1.16-1.967q.39-1.083.39-2.252t-.39-2.252q-.391-1.083-1.16-1.967l-.708.707q.61.745.934 1.648q.324.902.324 1.864q0 .962-.324 1.864q-.325.903-.934 1.648zm-9.824 0l.708-.707q-.61-.745-.933-1.648q-.325-.902-.325-1.864q0-.962.325-1.864q.324-.903.933-1.648l-.708-.707q-.769.884-1.16 1.967q-.39 1.083-.39 2.252t.39 2.252q.391 1.083 1.16 1.967M4.615 19q-.666 0-1.14-.475Q3 18.051 3 17.385V6.615q0-.666.475-1.14Q3.949 5 4.615 5h14.77q.666 0 1.14.475q.475.474.475 1.14v10.77q0 .666-.475 1.14q-.474.475-1.14.475z"/></svg>