<svg xmlns="http://www.w3.org/2000/svg" width="1em" height="1em" viewBox="0 0 24 24"><path fill="currentColor" d="M6.308 18L3 14.692l.708-.719l2.1 2.1V8.365q0-1.4.973-2.373q.973-.973 2.373-.973t2.373.973q.973.973.973 2.373v6.289q0 .979.684 1.662q.683.684 1.662.684q.979 0 1.663-.684q.683-.683.683-1.662V6.946l-2.1 2.1l-.707-.72l3.307-3.307L21 8.327l-.708.72l-2.1-2.1v7.707q0 1.4-.973 2.373q-.973.973-2.373.973t-2.373-.973q-.973-.973-.973-2.373V8.365q0-.978-.684-1.662q-.683-.684-1.662-.684q-.979 0-1.663.684q-.683.684-.683 1.662v7.708l2.1-2.1l.707.72z"/></svg>