<svg xmlns="http://www.w3.org/2000/svg" width="1em" height="1em" viewBox="0 0 24 24"><path fill="currentColor" d="M8.312 14.5H12.5q.213 0 .356-.144Q13 14.212 13 14t-.144-.356q-.143-.143-.356-.143H8.312l1.74-1.746q.14-.14.15-.341q.01-.201-.16-.371q-.155-.155-.35-.155t-.354.16L6.95 13.434q-.242.242-.242.565q0 .323.242.565l2.388 2.389q.14.14.342.153q.2.012.37-.157q.156-.156.159-.347q.003-.191-.157-.357zm7.376-4l-1.74 1.746q-.14.14-.15.341q-.01.201.16.371q.155.155.35.155t.354-.16l2.388-2.388q.242-.242.242-.565q0-.323-.242-.565l-2.388-2.389q-.14-.14-.342-.153q-.2-.012-.37.157q-.156.156-.159.347q-.003.191.157.357l1.74 1.746H11.5q-.213 0-.356.144Q11 9.788 11 10t.144.356q.144.143.356.143zM12.003 21q-1.866 0-3.51-.708q-1.643-.709-2.859-1.924q-1.216-1.214-1.925-2.856Q3 13.87 3 12.003q0-1.866.708-3.51q.709-1.643 1.924-2.859q1.214-1.216 2.856-1.925Q10.13 3 11.997 3q1.866 0 3.51.708q1.643.709 2.859 1.924q1.216 1.214 1.925 2.856Q21 10.13 21 11.997q0 1.866-.708 3.51q-.709 1.643-1.924 2.859q-1.214 1.216-2.856 1.925Q13.87 21 12.003 21"/></svg>