<svg xmlns="http://www.w3.org/2000/svg" width="1em" height="1em" viewBox="0 0 24 24"><path fill="currentColor" d="M9.5 8.312V12.5q0 .213.144.356Q9.788 13 10 13t.356-.144q.143-.143.143-.356V8.312l1.746 1.74q.14.14.341.15q.201.01.371-.16q.155-.155.155-.35t-.16-.354L10.57 6.956q-.238-.243-.566-.243q-.328 0-.57.243L7.046 9.338q-.14.14-.153.342q-.012.2.157.37q.156.156.347.159q.191.003.357-.157zm4 7.376l-1.746-1.74q-.14-.14-.341-.15q-.201-.01-.371.16q-.155.155-.155.35t.16.354l2.388 2.388q.238.242.566.242q.328 0 .57-.242l2.383-2.388q.14-.14.153-.342q.012-.2-.157-.37q-.156-.156-.347-.159q-.191-.003-.357.157l-1.746 1.74V11.5q0-.213-.144-.356Q14.212 11 14 11t-.356.144q-.143.144-.143.356zM12.003 21q-1.866 0-3.51-.708q-1.643-.709-2.859-1.924q-1.216-1.214-1.925-2.856Q3 13.87 3 12.003q0-1.866.708-3.51q.709-1.643 1.924-2.859q1.214-1.216 2.856-1.925Q10.13 3 11.997 3q1.866 0 3.51.708q1.643.709 2.859 1.924q1.216 1.214 1.925 2.856Q21 10.13 21 11.997q0 1.866-.708 3.51q-.709 1.643-1.924 2.859q-1.214 1.216-2.856 1.925Q13.87 21 12.003 21"/></svg>