<svg xmlns="http://www.w3.org/2000/svg" width="1em" height="1em" viewBox="0 0 24 24"><path fill="currentColor" d="M11.825 21q-.504 0-.948-.187q-.444-.186-.812-.553l-4.477-4.464q-.169-.179-.176-.447q-.008-.268.19-.453l.017-.017q.227-.208.515-.268q.287-.061.581.012l2.785.687V7q0-.213.144-.356Q9.788 6.5 10 6.5t.356.144q.143.144.143.356v8.596q0 .404-.323.646q-.323.243-.702.137l-2.612-.71l3.916 3.896q.202.202.477.319q.275.116.569.116H15.5q1.056 0 1.778-.722T18 17.5v-4q0-.213.144-.356T18.5 13q.212 0 .356.144q.143.144.143.356v4q0 1.458-1.021 2.479T15.504 21zm1.003-11q.212 0 .356.144q.143.144.143.356V14q0 .213-.144.356q-.144.144-.357.144t-.356-.144q-.143-.144-.143-.356v-3.5q0-.213.144-.356q.144-.144.357-.144m2.846 1q.213 0 .356.144t.143.356V14q0 .213-.144.356q-.144.144-.357.144q-.212 0-.356-.144q-.143-.144-.143-.356v-2.5q0-.213.144-.356t.357-.144M19.9 6.5q-1.938-1.585-3.906-2.36q-1.967-.775-4.052-.775q-2.419 0-4.452.95q-2.032.948-3.253 2.616q-.143.196-.332.325q-.19.129-.432.129q-.165 0-.241-.167q-.076-.166.03-.331q1.184-2.018 3.517-3.212q2.333-1.194 5.163-1.194q2.139 0 4.16.746q2.021.746 4.013 2.279V3.442q0-.191.125-.317q.126-.125.317-.125t.317.125q.126.126.126.317v3.135q0 .343-.232.575q-.232.233-.576.233h-3.134q-.192 0-.317-.125t-.126-.317q0-.191.126-.317q.125-.126.317-.126zm-5.702 10.635"/></svg>