<svg xmlns="http://www.w3.org/2000/svg" width="1em" height="1em" viewBox="0 0 24 24"><path fill="currentColor" d="M14.5 16.5q-1.748 0-3.005-1.137q-1.257-1.138-1.472-2.863H4.921l1.746 1.746q.14.14.15.341q.01.201-.155.367q-.16.16-.354.16q-.195 0-.354-.16l-2.389-2.389q-.13-.13-.183-.267q-.053-.136-.053-.298t.053-.298q.053-.137.183-.267l2.389-2.389q.14-.14.341-.15q.201-.01.367.15q.165.166.165.357t-.165.357l-1.74 1.74h5.101q.215-1.725 1.472-2.863T14.5 7.5q1.863 0 3.182 1.318Q19 10.137 19 12t-1.318 3.182Q16.363 16.5 14.5 16.5"/></svg>