<svg xmlns="http://www.w3.org/2000/svg" width="1em" height="1em" viewBox="0 0 24 24"><path fill="currentColor" d="M3 21v-.865h2.313q-1.475-1.723-2.355-3.783q-.881-2.06-.881-4.342q0-2.283.88-4.333q.881-2.05 2.356-3.792H3V3h4.096v4.115h-.865V4.177q-1.47 1.67-2.38 3.646q-.909 1.977-.909 4.187t.91 4.177q.91 1.967 2.379 3.617v-2.9h.865V21zm13.296-1.194q-.46.161-.96.149q-.501-.013-.955-.23L8.06 16.79l.297-.596q.154-.269.4-.43q.248-.161.55-.187l2.854-.317l-2.858-7.81q-.073-.208.017-.387q.09-.178.296-.252q.206-.074.385.015q.18.09.254.295l3.296 9.06l-3.75.329l5.006 2.313q.252.114.557.136q.306.022.577-.086l3.445-1.252q.986-.352 1.423-1.287q.436-.936.084-1.922l-1.375-3.75q-.073-.208.006-.388q.079-.18.287-.253q.207-.073.387.006q.18.079.253.286l1.375 3.75q.517 1.383-.09 2.685t-1.997 1.806zm-1.77-6.26l-1.368-3.775q-.073-.208.017-.386q.09-.18.296-.253q.206-.074.385.015q.18.09.254.295l1.375 3.75zm2.672-.986l-1.025-2.825q-.073-.208.017-.38q.09-.172.296-.243q.206-.072.386.007q.18.08.253.287l1.025 2.819zm-.108 2.7"/></svg>