<svg xmlns="http://www.w3.org/2000/svg" width="1em" height="1em" viewBox="0 0 24 24"><path fill="currentColor" d="M5.479 3.508q-.252.855-.366 1.743Q5 6.138 5 7.038q0 1.575.479 3.057t1.348 2.801q.123.16.117.36q-.006.2-.154.348t-.323.104q-.175-.045-.298-.204q-.973-1.442-1.513-3.077q-.54-1.635-.54-3.389q0-.886.113-1.763q.113-.877.34-1.744L2.902 5.198q-.129.129-.314.139q-.184.01-.313-.139q-.129-.129-.12-.313q.01-.185.14-.314l2.178-2.179q.242-.242.565-.242q.324 0 .566.242L7.802 4.59q.129.13.129.304t-.13.304q-.128.148-.313.136q-.184-.013-.313-.136zm10.817 16.298q-.46.161-.96.149q-.501-.013-.955-.23l-5.746-2.663q-.24-.118-.323-.361q-.083-.243.034-.484l.012-.023q.154-.269.402-.428q.248-.158.548-.19l2.854-.316l-2.858-7.81q-.073-.208.015-.387q.089-.18.296-.253q.208-.073.388.015q.18.088.253.296l2.942 8.06q.137.379-.08.714q-.218.336-.622.386l-2.694.229l5.006 2.313q.252.114.557.136q.306.022.577-.086l3.445-1.252q.986-.352 1.423-1.287q.436-.936.084-1.922l-1.375-3.75q-.073-.208.006-.388q.079-.18.287-.253q.207-.073.387.006q.18.079.253.286l1.375 3.75q.517 1.383-.093 2.688q-.61 1.305-1.994 1.803zM13.47 9.13q.208-.073.388.015q.18.089.253.296l1.198 3.281q.073.189-.016.38q-.088.193-.277.266q-.188.073-.39-.025t-.275-.286L13.158 9.77q-.073-.208.015-.387q.089-.18.296-.253m3.016-.018q.207-.073.387.006q.18.08.253.287l.848 2.336q.073.189-.012.388q-.086.199-.294.272q-.188.073-.38-.025q-.193-.098-.266-.287l-.848-2.355q-.073-.208.015-.378q.089-.17.297-.244m.548 6.089"/></svg>