<svg xmlns="http://www.w3.org/2000/svg" width="1em" height="1em" viewBox="0 0 24 24"><path fill="currentColor" d="M11.825 21q-.504 0-.948-.187q-.444-.186-.812-.553l-4.927-4.914l.481-.467q.227-.208.515-.268q.287-.061.581.012l2.785.687V7q0-.213.143-.357Q9.787 6.5 10 6.5t.357.143q.143.144.143.357v7.27h1.827V10.5q0-.213.143-.357q.143-.143.357-.143q.213 0 .357.143t.143.357v3.77h1.846V11.5q0-.213.143-.357t.357-.143q.214 0 .357.143q.143.144.143.357v2.77H18v-.77q0-.213.143-.357T18.5 13q.213 0 .357.143q.143.144.143.357v4q0 1.458-1.021 2.479T15.5 21zM3 7.385V3h.885v2.506q1.992-1.533 4.013-2.28q2.021-.745 4.16-.745q2.996 0 5.44 1.338Q19.942 5.158 21 7.385h-.94q-1.143-1.87-3.28-2.945q-2.138-1.075-4.722-1.075q-2.085 0-4.052.775Q6.038 4.915 4.1 6.5h3.285v.885z"/></svg>