<svg xmlns="http://www.w3.org/2000/svg" width="1em" height="1em" viewBox="0 0 24 24"><path fill="currentColor" d="M5.313 20.135q-1.475-1.723-2.355-3.783q-.881-2.06-.881-4.333q0-2.292.88-4.342q.881-2.05 2.356-3.792h-1.87q-.191 0-.317-.126T3 3.442q0-.19.126-.316T3.442 3h2.846q.349 0 .578.23q.23.23.23.578v2.884q0 .171-.116.297q-.117.126-.307.126q-.171 0-.307-.135t-.135-.307V4.177q-1.47 1.67-2.38 3.646q-.909 1.977-.909 4.196q0 2.2.91 4.168q.91 1.967 2.379 3.617v-2.477q0-.171.135-.297q.136-.126.307-.126t.297.126q.126.126.126.297v2.865q0 .348-.23.578q-.23.23-.578.23H3.423q-.171 0-.297-.136Q3 20.73 3 20.558t.136-.297q.135-.126.306-.126zm10.983-.33q-.46.162-.96.15q-.501-.013-.955-.23l-5.746-2.663q-.24-.118-.323-.361q-.083-.243.034-.484l.012-.023q.154-.269.402-.428q.248-.158.548-.19l2.854-.316l-2.858-7.81q-.073-.208.015-.387q.089-.18.296-.253q.208-.073.388.015q.18.088.253.296l2.477 6.825l1.719-.62l-1.194-3.305q-.073-.208-.035-.512q.039-.305.246-.378t.388.015q.18.089.253.296l1.294 3.537l1.713-.639l-.944-2.605q-.073-.208.015-.378q.089-.17.297-.244q.207-.073.387.006q.18.08.253.287l.944 2.586l1.72-.619l-.27-.711q-.073-.208.006-.388q.079-.18.287-.253q.207-.073.387.006q.18.079.253.286l1.375 3.75q.517 1.383-.093 2.688q-.61 1.305-1.994 1.803z"/></svg>