<svg xmlns="http://www.w3.org/2000/svg" width="1em" height="1em" viewBox="0 0 24 24"><path fill="currentColor" d="M14.5 16.5q-1.748 0-3.005-1.137q-1.257-1.138-1.472-2.863H4.921l1.746 1.746q.14.14.15.341q.01.201-.16.371q-.155.155-.35.155q-.194 0-.353-.16l-2.382-2.381q-.137-.137-.19-.276q-.053-.14-.053-.299q0-.159.053-.295q.053-.137.19-.274l2.382-2.382q.14-.14.341-.15q.201-.01.367.146q.165.17.165.36t-.165.358l-1.74 1.74h5.101q.215-1.725 1.472-2.863T14.5 7.5q1.868 0 3.184 1.315Q19 10.131 19 11.997t-1.316 3.185Q16.368 16.5 14.5 16.5m.002-1q1.46 0 2.479-1.022T18 11.999q0-1.46-1.022-2.479q-1.02-1.02-2.479-1.02T12.02 9.522Q11 10.543 11 12.002t1.022 2.479q1.021 1.019 2.48 1.019M14.5 12"/></svg>