<svg xmlns="http://www.w3.org/2000/svg" width="1em" height="1em" viewBox="0 0 24 24"><path fill="currentColor" d="m5.038 15.096l-3.057-3.058l.607-.626l1.981 1.98q-.227-.867-.34-1.744q-.114-.877-.114-1.763q0-1.877.608-3.63T6.471 3l.633.633q-.998 1.38-1.551 2.97Q5 8.193 5 9.885q0 .9.113 1.787q.114.888.366 1.743l2.01-2.003l.607.626zm10.275 5.058L8.062 16.79l.565-1.152l3.535-.378l-3.035-8.273l.952-.354l2.654 7.313l1.719-.62l-1.471-4.018l.952-.354l1.47 4.025l1.714-.639l-1.102-3.05l.933-.353l1.121 3.055l1.72-.619l-.447-1.175l.933-.354l2.76 7.508z"/></svg>