<svg xmlns="http://www.w3.org/2000/svg" width="1em" height="1em" viewBox="0 0 24 24"><path fill="currentColor" d="M5.479 3.508q-.252.855-.366 1.743Q5 6.138 5 7.038q0 1.575.479 3.057t1.348 2.801q.123.16.117.36q-.006.2-.154.348t-.323.104q-.175-.045-.298-.204q-.973-1.442-1.513-3.077q-.54-1.635-.54-3.389q0-.886.113-1.763q.113-.877.34-1.744L2.902 5.198q-.129.129-.314.139q-.184.01-.313-.139q-.129-.129-.12-.313q.01-.185.14-.314l2.178-2.179q.242-.242.565-.242q.324 0 .566.242L7.802 4.59q.129.13.129.304t-.13.304q-.128.148-.313.136q-.184-.013-.313-.136zm10.817 16.298q-.46.161-.96.149q-.501-.013-.955-.23l-5.746-2.663q-.24-.118-.323-.361q-.083-.243.034-.484l.012-.023q.154-.269.402-.428q.248-.158.548-.19l2.854-.316l-2.858-7.81q-.073-.208.015-.387q.089-.18.296-.253q.208-.073.388.015q.18.088.253.296l2.477 6.825l1.719-.62l-1.294-3.555q-.073-.208.015-.387q.089-.18.296-.253t.388.015q.18.089.253.296l1.294 3.537l1.713-.639l-.944-2.605q-.073-.208.015-.378q.089-.17.297-.244q.207-.073.387.006q.18.08.253.287l.944 2.586l1.72-.619l-.27-.711q-.073-.208.006-.388q.079-.18.287-.253q.207-.073.387.006q.18.079.253.286l1.375 3.75q.517 1.383-.093 2.688q-.61 1.305-1.994 1.803z"/></svg>