<svg xmlns="http://www.w3.org/2000/svg" width="1em" height="1em" viewBox="0 0 24 24"><path fill="currentColor" d="M12 20.671q-.162 0-.298-.053q-.137-.053-.267-.183l-2.389-2.389q-.14-.14-.15-.341q-.01-.201.15-.367q.166-.165.357-.165t.357.165l1.74 1.74v-5.101q-1.725-.215-2.863-1.472T7.5 9.5q0-1.863 1.318-3.182Q10.137 5 12 5t3.182 1.318Q16.5 7.637 16.5 9.5q0 1.748-1.137 3.005q-1.138 1.257-2.863 1.472v5.102l1.746-1.746q.14-.14.341-.15q.201-.01.367.155q.16.16.16.354q0 .195-.16.354l-2.389 2.389q-.13.13-.267.183q-.136.053-.298.053"/></svg>