<svg xmlns="http://www.w3.org/2000/svg" width="1em" height="1em" viewBox="0 0 24 24"><path fill="currentColor" d="M12.003 19q-1.866 0-3.185-1.316Q7.5 16.368 7.5 14.5q0-1.748 1.138-3.005q1.137-1.257 2.862-1.472V4.921L9.754 6.667q-.14.14-.341.15q-.201.01-.371-.16q-.155-.155-.155-.35q0-.194.16-.353l2.381-2.382q.137-.137.276-.19q.14-.053.299-.053q.159 0 .295.053q.137.053.274.19l2.382 2.382q.14.14.15.341q.01.201-.146.367q-.17.165-.36.165t-.358-.165l-1.74-1.74v5.101q1.725.215 2.863 1.472T16.5 14.5q0 1.868-1.315 3.184Q13.869 19 12.003 19m0-1q1.459 0 2.478-1.022q1.019-1.021 1.019-2.48t-1.022-2.479Q13.458 11 11.999 11T9.52 12.022q-1.02 1.021-1.02 2.48q0 1.46 1.022 2.479T12.002 18M12 14.5"/></svg>