<svg xmlns="http://www.w3.org/2000/svg" width="1em" height="1em" viewBox="0 0 24 24"><path fill="currentColor" d="M16.296 19.806q-.46.161-.96.149q-.501-.013-.955-.23L8.06 16.79l.297-.596q.154-.269.402-.428q.248-.158.548-.19l2.854-.316l-2.858-7.81q-.073-.208.015-.387q.089-.18.296-.253q.208-.073.388.015q.18.088.253.296l2.477 6.825l1.719-.62l-1.294-3.555q-.073-.208.015-.387q.089-.18.296-.253t.388.015q.18.089.253.296l1.294 3.537l1.713-.639l-.944-2.605q-.073-.208.015-.378q.089-.17.297-.244q.207-.073.387.006q.18.08.253.287l.944 2.586l1.72-.619l-.27-.711q-.073-.208.006-.388q.079-.18.287-.253q.207-.073.387.006q.18.079.253.286l1.375 3.75q.517 1.383-.093 2.688q-.61 1.305-1.994 1.803zm-9.825-5.883q-1.14-1.504-1.748-3.256t-.608-3.629q0-.886.114-1.763q.113-.877.34-1.744L2.59 5.51l-.608-.626l3.057-3.058l3.058 3.058l-.608.627l-2.01-2.004q-.251.855-.365 1.743Q5 6.138 5 7.038q0 1.693.553 3.282q.553 1.59 1.55 2.97z"/></svg>