<svg xmlns="http://www.w3.org/2000/svg" width="1em" height="1em" viewBox="0 0 24 24"><path fill="currentColor" d="M8.308 5.23q-.262 0-.439-.176q-.177-.177-.177-.439q0-.261.177-.438T8.308 4q.261 0 .438.177t.177.438q0 .262-.177.439t-.438.177m7.384 0q-.261 0-.438-.177t-.177-.439q0-.261.177-.438T15.692 4q.262 0 .439.177t.177.438q0 .262-.177.439t-.439.177M4.615 8.923q-.261 0-.438-.177T4 8.308q0-.262.177-.439t.438-.177q.262 0 .439.177t.177.439q0 .261-.177.438t-.439.177m14.77 0q-.262 0-.439-.177t-.177-.438q0-.262.177-.439t.439-.177q.261 0 .438.177t.177.439q0 .261-.177.438t-.438.177m-14.77 7.385q-.261 0-.438-.177T4 15.692q0-.261.177-.438t.438-.177q.262 0 .439.177t.177.438q0 .262-.177.439t-.439.177m14.77 0q-.262 0-.439-.177t-.177-.439q0-.261.177-.438t.439-.177q.261 0 .438.177t.177.438q0 .262-.177.439t-.438.177M8.308 20q-.262 0-.439-.177t-.177-.438q0-.262.177-.439t.439-.177q.261 0 .438.177t.177.439q0 .261-.177.438T8.308 20m7.384 0q-.261 0-.438-.177t-.177-.438q0-.262.177-.439t.438-.177q.262 0 .439.177t.177.439q0 .261-.177.438t-.439.177m-6.384-3.692q-.667 0-1.141-.475q-.475-.474-.475-1.14V9.307q0-.667.475-1.141q.474-.475 1.14-.475h5.385q.667 0 1.141.475q.475.474.475 1.14v5.385q0 .667-.475 1.141q-.474.475-1.14.475z"/></svg>