<svg xmlns="http://www.w3.org/2000/svg" width="1em" height="1em" viewBox="0 0 24 24"><path fill="currentColor" d="M1.5 20.5V7q0-1.042.729-1.77q.728-.73 1.769-.73q1.04 0 1.771.73Q6.5 5.957 6.5 7v1.396L12 3.654l5.5 4.742V7q0-1.042.729-1.77q.728-.73 1.769-.73q1.04 0 1.771.73q.731.728.731 1.77v13.5h-9V16q0-.617-.441-1.059Q12.617 14.5 12 14.5t-1.059.441Q10.5 15.383 10.5 16v4.5zm17-12h3V7q0-.617-.441-1.059Q20.617 5.5 20 5.5t-1.059.441Q18.5 6.383 18.5 7zm-16 0h3V7q0-.617-.441-1.059Q4.617 5.5 4 5.5t-1.059.441Q2.5 6.383 2.5 7zm0 11h3v-10h-3zm4 0h3V16q0-1.042.729-1.77q.728-.73 1.769-.73q1.04 0 1.771.73q.731.728.731 1.77v3.5h3V9.713L12 4.971L6.5 9.713zm12 0h3v-10h-3zm-6.505-8.385q-.466 0-.788-.326q-.322-.327-.322-.794t.326-.788q.327-.322.794-.322t.788.326q.322.327.322.794t-.326.788q-.327.322-.794.322"/></svg>