<svg xmlns="http://www.w3.org/2000/svg" width="1em" height="1em" viewBox="0 0 24 24"><path fill="currentColor" d="m10.925 13.8l4.963-4.938l-.713-.714l-4.25 4.25L8.8 10.273l-.708.708zm-9.156 5.662v-1h20.462v1zm2.846-2q-.69 0-1.152-.463Q3 16.537 3 15.846v-9.77q0-.69.463-1.152t1.152-.462h14.77q.69 0 1.152.462q.463.463.463 1.153v9.77q0 .69-.462 1.152t-1.153.463zm0-1h14.77q.23 0 .423-.193q.192-.192.192-.423v-9.77q0-.23-.192-.422q-.193-.192-.423-.192H4.615q-.23 0-.423.192Q4 5.846 4 6.077v9.77q0 .23.192.422q.193.193.423.193m-.615 0v-11z"/></svg>