<svg xmlns="http://www.w3.org/2000/svg" width="1em" height="1em" viewBox="0 0 24 24"><path fill="currentColor" d="M5.5 12.088q0 1.272.501 2.433q.5 1.162 1.403 2.064l1.02 1.019v-2.527q0-.214.142-.357q.144-.143.357-.143q.214 0 .357.143t.143.357v3.461q0 .349-.23.578q-.23.23-.578.23H5.154q-.214 0-.357-.143t-.143-.357q0-.213.143-.357q.143-.143.357-.143H7.75l-1.054-1.042q-1.048-1.048-1.622-2.392q-.574-1.345-.574-2.824q0-1.119.323-2.185t.956-2.016L2.83 4.938q-.146-.146-.153-.347q-.007-.2.159-.366q.165-.165.356-.165t.357.165l16.225 16.23q.146.147.156.345q.01.198-.156.363q-.165.166-.357.166t-.356-.166l-2.949-2.942q-.275.194-.55.348q-.275.154-.569.298q-.182.073-.381-.008q-.2-.082-.267-.276q-.067-.195.033-.388t.288-.278q.295-.125.577-.294q.283-.17.552-.338l-.188.43l-9.104-9.103q-.506.778-.755 1.662q-.249.884-.249 1.814m12.752 3.995l-.73-.731q.486-.773.732-1.644q.246-.871.246-1.796q0-1.272-.501-2.433q-.5-1.162-1.403-2.064l-1.02-1.019v2.527q0 .214-.142.357q-.144.143-.357.143q-.214 0-.357-.143t-.143-.357V5.462q0-.349.23-.578q.23-.23.578-.23h3.461q.214 0 .357.143t.143.357q0 .213-.143.357q-.143.143-.357.143H16.25l1.054 1.042q1.048 1.048 1.622 2.392q.574 1.345.574 2.824q0 1.113-.323 2.167q-.323 1.054-.925 2.004M8.629 6.46l-.712-.712q.275-.188.545-.34q.269-.15.563-.275q.188-.073.375.008q.187.082.254.276q.061.189-.045.385q-.107.196-.29.28q-.179.083-.355.18q-.176.096-.335.198"/></svg>