<svg xmlns="http://www.w3.org/2000/svg" width="1em" height="1em" viewBox="0 0 24 24"><path fill="currentColor" d="m19.65 20.196l.546-.546l-1.811-1.812v-2.723h-.77v3.047zM13.77 9.038H20V6.615q0-.23-.192-.423Q19.615 6 19.385 6h-5.616zM18 22q-1.671 0-2.836-1.164T14 18q0-1.671 1.164-2.836T18 14q1.671 0 2.836 1.164T22 18q0 1.671-1.164 2.836T18 22M4.615 19q-.69 0-1.152-.462Q3 18.075 3 17.385V6.615q0-.69.463-1.152Q3.925 5 4.615 5h14.77q.69 0 1.152.463q.463.462.463 1.152v6.16q-.644-.394-1.422-.585Q18.8 12 18.052 12q-2.496 0-4.255 1.752T12 18q0 .256.017.506q.018.25.071.494z"/></svg>