<svg xmlns="http://www.w3.org/2000/svg" width="1em" height="1em" viewBox="0 0 24 24"><path fill="currentColor" d="M5.615 20q-.69 0-1.152-.462Q4 19.075 4 18.385v-1.923q0-.214.143-.357q.144-.143.357-.143t.357.143q.143.143.143.357v1.923q0 .23.192.423q.193.192.423.192h12.77q.23 0 .423-.192q.192-.193.192-.423V7.154H5v2.538q0 .214-.143.357q-.144.143-.357.143t-.357-.143Q4 9.906 4 9.692V5.615q0-.69.463-1.152Q4.925 4 5.615 4h12.77q.69 0 1.152.463q.463.462.463 1.152v12.77q0 .69-.462 1.152q-.463.463-1.153.463zm7.368-6.423H4.5q-.213 0-.357-.143Q4 13.29 4 13.077q0-.214.143-.357q.144-.143.357-.143h8.483l-2.221-2.265q-.14-.14-.134-.342q.007-.2.153-.347q.14-.14.344-.14t.344.14l2.87 2.889q.242.242.242.565t-.243.565l-2.888 2.889q-.14.14-.341.133q-.201-.006-.347-.152q-.14-.14-.14-.335t.14-.335z"/></svg>