<svg xmlns="http://www.w3.org/2000/svg" width="1em" height="1em" viewBox="0 0 24 24"><path fill="currentColor" d="M18 22q1.671 0 2.836-1.164T22 18q0-1.671-1.164-2.836T18 14q-1.671 0-2.836 1.164T14 18q0 1.671 1.164 2.836T18 22m.385-4.162l1.538 1.539q.13.13.13.273t-.13.273q-.13.13-.283.121q-.152-.01-.263-.12l-1.52-1.52q-.13-.13-.186-.27t-.056-.301V15.5q0-.162.112-.273q.111-.112.273-.112t.273.112q.112.111.112.273zM4.615 19q-.69 0-1.152-.462Q3 18.075 3 17.385V6.615q0-.69.463-1.152Q3.925 5 4.615 5h14.77q.69 0 1.152.463q.463.462.463 1.152v5.481q0 .214-.143.357q-.144.143-.357.143t-.357-.14q-.143-.14-.143-.354V9.038h-5.423q-.348 0-.578-.23q-.23-.23-.23-.577V6H4.615q-.23 0-.423.192Q4 6.385 4 6.615v10.77q0 .23.192.423q.193.192.423.192H11.5q.213 0 .357.143T12 18.5q0 .213-.143.357q-.144.143-.357.143zM4 17.385V6v12z"/></svg>