<svg xmlns="http://www.w3.org/2000/svg" width="1em" height="1em" viewBox="0 0 24 24"><path fill="currentColor" d="M8.423 17.308q-.706 0-1.209-.492t-.502-1.2V4.691q0-.71.502-1.2Q7.717 3 8.424 3h10.884q.698 0 1.195.497q.497.497.497 1.195v10.923q0 .698-.497 1.196q-.497.497-1.195.497zm0-1h10.885q.288 0 .49-.202t.202-.49V7.191h-6.615V4H8.423q-.288 0-.5.202q-.211.202-.211.49v10.923q0 .289.211.49q.212.203.5.203M7.712 4v12.308zm-1 17v-1.23h1.23V21zM4.25 6.23H3.02q0-.507.36-.868Q3.743 5 4.25 5zM10.404 21v-1.23h1.23V21zm3.692 0v-1.23h1.23V21zM4.25 19.77V21q-.508 0-.87-.362q-.36-.361-.36-.869zm-1.23-2.462v-1.231h1.23v1.23zm0-3.693v-1.23h1.23v1.23zm0-3.692v-1.23h1.23v1.23zm14.768 9.846h1.231q0 .508-.361.87q-.362.361-.87.361z"/></svg>