<svg xmlns="http://www.w3.org/2000/svg" width="1em" height="1em" viewBox="0 0 24 24"><path fill="currentColor" d="m12 12.688l2.515 2.516q.14.14.345.13q.203-.009.344-.15q.14-.14.14-.344t-.14-.344L12.688 12l2.516-2.515q.14-.14.14-.345t-.14-.344q-.14-.14-.344-.14t-.345.14L12 11.312L9.485 8.796q-.14-.14-.335-.14t-.335.14q-.14.14-.14.344t.14.345L11.312 12l-2.516 2.515q-.14.14-.13.335q.009.194.15.335q.14.14.344.14t.344-.14zm8.367 6.812H16q-.213 0-.357-.143q-.143-.144-.143-.357t.143-.357q.144-.143.357-.143h4.367l-1.727-1.765q-.14-.14-.13-.342q.01-.2.155-.347q.14-.14.345-.14t.344.14l2.37 2.389q.241.242.241.565q0 .323-.242.565l-2.388 2.389q-.14.14-.342.134q-.2-.007-.347-.153q-.14-.14-.14-.335t.14-.335zM5 19V5zm.615 1q-.69 0-1.152-.462Q4 19.075 4 18.385V5.615q0-.69.463-1.152Q4.925 4 5.615 4h12.77q.69 0 1.152.463q.463.462.463 1.152v7.077q0 .214-.143.357q-.144.143-.357.143t-.357-.143Q19 12.906 19 12.692V5.615q0-.23-.192-.423Q18.615 5 18.385 5H5.615q-.23 0-.423.192Q5 5.385 5 5.615v12.77q0 .23.192.423q.193.192.423.192h7.077q.214 0 .357.143q.143.144.143.357t-.143.357q-.143.143-.357.143z"/></svg>