<svg xmlns="http://www.w3.org/2000/svg" width="1em" height="1em" viewBox="0 0 24 24"><path fill="currentColor" d="M9.615 20q-.666 0-1.14-.475Q8 19.051 8 18.385v-8.77q0-.666.475-1.14Q8.949 8 9.615 8h8.77q.666 0 1.14.475q.475.474.475 1.14v8.77q0 .666-.475 1.14q-.474.475-1.14.475zm.231-8.346h8.308q.36 0 .603-.243q.243-.244.243-.603v-.962q0-.36-.243-.603Q18.513 9 18.154 9H9.846q-.36 0-.603.243Q9 9.487 9 9.846v.962q0 .36.243.603t.603.243m2.808 3.692h2.692v-2.692h-2.692zm0 3.654h2.692v-2.654h-2.692zM9 15.346h2.654v-2.692H9.808q-.344 0-.576.232q-.232.232-.232.576zm7.346 0H19v-1.884q0-.344-.232-.576q-.232-.232-.576-.232h-1.846zm-4.692 1H9v1.846q0 .344.232.576q.232.232.576.232h1.846zm4.692 0V19h1.846q.344 0 .576-.232q.232-.232.232-.576v-1.846zM4 5.616q0-.667.475-1.141Q4.949 4 5.615 4H15.5q.213 0 .356.144q.144.144.144.357q0 .212-.144.356Q15.713 5 15.5 5H5.615q-.269 0-.442.173T5 5.615V15.5q0 .213-.144.356T4.499 16q-.212 0-.356-.144Q4 15.713 4 15.5z"/></svg>