<svg xmlns="http://www.w3.org/2000/svg" width="1em" height="1em" viewBox="0 0 24 24"><path fill="currentColor" d="M4.075 9.192h15.85l-.985-3.384H5.085zm12.937 1H6.994l-.352 2.731h10.735zM4.9 18.472l1.113-8.28h-2.36q-.326 0-.527-.265t-.114-.587l1.175-4.057q.061-.23.234-.362t.408-.113H19.19q.235 0 .408.132t.235.362l1.175 4.038q.086.322-.115.587q-.2.265-.528.265h-2.373l1.108 8.28q.03.218-.112.383q-.144.164-.363.164q-.183 0-.326-.122q-.143-.122-.174-.305l-.627-4.669H6.502l-.627 4.689q-.03.182-.174.295q-.143.112-.326.112q-.22 0-.363-.164q-.143-.165-.112-.384"/></svg>