<svg xmlns="http://www.w3.org/2000/svg" width="1em" height="1em" viewBox="0 0 24 24"><path fill="currentColor" d="m7 18.36l1.077-2.687q.129-.286.388-.47q.26-.184.577-.184H11.5v-4.813q-3.421-.068-5.74-.856q-2.318-.788-2.318-1.85q0-1.142 2.483-1.927Q8.408 4.788 12 4.788q3.598 0 6.078.785q2.48.785 2.48 1.927q0 1.08-2.328 1.86q-2.328.778-5.73.846v4.813h2.458q.311 0 .574.184q.262.184.391.47L17 18.36q.104.238-.04.449q-.143.21-.412.21q-.16 0-.27-.082q-.109-.083-.176-.224L15.03 16.02H8.969l-1.09 2.694q-.067.14-.167.224q-.1.082-.26.082q-.27 0-.413-.21T7 18.359"/></svg>