<svg xmlns="http://www.w3.org/2000/svg" width="1em" height="1em" viewBox="0 0 24 24"><path fill="currentColor" d="m16.112 20l-.689-.688l1.575-1.6l-1.575-1.575l.689-.714l1.6 1.6l1.575-1.6l.713.714l-1.6 1.575l1.6 1.6l-.713.688l-1.575-1.575zM6.5 19q.617 0 1.059-.441Q8 18.117 8 17.5t-.441-1.059Q7.117 16 6.5 16t-1.059.441Q5 16.883 5 17.5t.441 1.059Q5.883 19 6.5 19m0 1q-1.038 0-1.77-.73Q4 18.537 4 17.5t.73-1.77Q5.463 15 6.5 15q.887 0 1.572.551q.686.55.863 1.426q1.167-.102 1.962-.96q.795-.857.795-2.017v-3.712q0-1.863 1.319-3.181q1.318-1.319 3.181-1.319h1.881l-2.075-2.075l.714-.713L20 6.288l-3.288 3.289l-.714-.689l2.056-2.1h-1.862q-1.461 0-2.48 1.02q-1.02 1.019-1.02 2.48V14q0 1.575-1.088 2.713q-1.089 1.137-2.658 1.27q-.165.886-.857 1.452Q7.4 20 6.5 20M4.688 8.577L4 7.888l1.575-1.6L4 4.713L4.688 4l1.6 1.6L7.863 4l.714.713l-1.6 1.575l1.6 1.6l-.714.689l-1.575-1.575z"/></svg>