<svg xmlns="http://www.w3.org/2000/svg" width="1em" height="1em" viewBox="0 0 24 24"><path fill="currentColor" d="M6.695 22q-.293 0-.494-.198T6 21.31t.198-.494q.199-.2.492-.2t.494.198q.2.198.2.491t-.198.494Q6.988 22 6.695 22M7 5.5v5.462q0 .212-.144.356t-.357.144q-.212 0-.356-.144Q6 11.174 6 10.962V3.615q0-.69.463-1.152Q6.925 2 7.615 2h8.77q.69 0 1.152.463q.463.462.463 1.152V21.5q0 .213-.144.356q-.144.144-.357.144q-.212 0-.356-.144Q17 21.713 17 21.5v-16zm1.671 13.829q-.433-.433-.991-.708q-.559-.275-1.18-.342q-.213-.048-.357-.192Q6 17.943 6 17.73t.146-.356q.146-.143.354-.107q.829.073 1.551.424t1.314.944q.593.592.944 1.314q.35.722.424 1.551q.036.208-.108.354T10.27 22q-.213 0-.356-.143q-.144-.144-.192-.357q-.067-.621-.342-1.18t-.708-.991m2.383-2.383q-.912-.911-2.09-1.45q-1.177-.54-2.464-.638q-.213-.012-.357-.156T6 14.345q0-.212.146-.356q.146-.143.36-.131q1.494.079 2.842.691q1.348.613 2.42 1.684q1.07 1.07 1.668 2.419q.597 1.348.7 2.842q.012.214-.127.36t-.354.146q-.215 0-.36-.143q-.147-.144-.158-.357q-.099-1.287-.635-2.464q-.537-1.178-1.448-2.09"/></svg>