<svg xmlns="http://www.w3.org/2000/svg" width="1em" height="1em" viewBox="0 0 24 24"><path fill="currentColor" d="M6.615 21q-.69 0-1.152-.462Q5 20.075 5 19.385V4.615q0-.69.463-1.152Q5.925 3 6.615 3h7.214q.323 0 .628.13q.305.132.522.349L18.52 7.02q.217.217.348.522q.131.305.131.628v11.214q0 .69-.462 1.152q-.463.463-1.153.463zM14 7.192q0 .348.23.578q.23.23.578.23H18l-4-4zm-3.056 8.24L9.16 13.649q-.073-.073-.162-.11q-.088-.036-.18-.036q-.091 0-.192.036q-.101.037-.174.11q-.165.165-.165.357q0 .191.165.357l1.933 1.938q.13.13.267.184q.136.053.298.053t.298-.053q.137-.053.267-.184l4.033-4.033q.146-.146.156-.35q.01-.204-.156-.369q-.165-.165-.36-.165q-.194 0-.36.165z"/></svg>