<svg xmlns="http://www.w3.org/2000/svg" width="1em" height="1em" viewBox="0 0 24 24"><path fill="currentColor" d="M5.412 14.513q-.427.23-.913.098q-.486-.132-.737-.535q-.306-.509-.099-1.072q.208-.564.777-.762l8.03-2.775q.176-.067.36.022q.184.088.307.32q.11.191.04.395q-.07.204-.248.31zm2.03 5.756q-.666 0-1.14-.474q-.475-.475-.475-1.141v-3.271l8.04-4.224q.358-.203.483-.584q.125-.381-.05-.725l4.325-2.17q.202-.103.407-.018q.205.086.353.353q.103.173.054.36q-.049.187-.208.31l-6.404 4.83v5.139q0 .666-.475 1.14q-.474.475-1.14.475zM7.692 11q-1.257 0-2.129-.871q-.87-.871-.87-2.129t.87-2.129Q6.435 5 7.693 5q1.257 0 2.128.871T10.692 8q0 1.258-.87 2.129Q8.95 11 7.691 11"/></svg>