<svg xmlns="http://www.w3.org/2000/svg" width="1em" height="1em" viewBox="0 0 24 24"><path fill="currentColor" d="m8.185 7.5l1.29-4.298V2q0-.213.144-.356q.144-.144.357-.144t.356.144q.143.144.143.356v1.5H13.5V2q0-.213.144-.356q.144-.144.357-.144t.356.144q.143.144.143.356v1.077L15.815 7.5zM2.5 20.5V12q0-.213.144-.356q.144-.144.357-.144t.356.144q.143.144.143.356v1.5h2.865l.308-1h10.654l.308 1H20.5V12q0-.213.144-.356q.144-.144.357-.144t.356.144q.143.144.143.356v8.5q0 .402-.299.701q-.3.299-.701.299h-6.192q-.344 0-.576-.232q-.232-.232-.232-.576V18q0-.617-.441-1.059Q12.617 16.5 12 16.5t-1.059.441Q10.5 17.383 10.5 18v2.692q0 .344-.232.576q-.232.232-.576.232H3.5q-.402 0-.701-.299q-.299-.3-.299-.701m4.485-9l.888-3h8.254l.888 3z"/></svg>