<svg xmlns="http://www.w3.org/2000/svg" width="1em" height="1em" viewBox="0 0 24 24"><path fill="currentColor" d="M3.865 20.5q-1.057 0-1.798-.74q-.74-.74-.74-1.798t.74-1.799q.74-.74 1.798-.74q.259 0 .503.047t.482.155l4.512-6.19q-.425-.468-.663-1.08q-.237-.614-.237-1.297q0-1.477 1.03-2.508Q10.523 3.52 12 3.52t2.508 1.03q1.03 1.03 1.03 2.508q0 .683-.25 1.296t-.675 1.08l4.518 6.21q.238-.107.488-.164t.516-.057q1.057 0 1.798.74q.74.74.74 1.799q0 1.057-.74 1.798q-.74.74-1.798.74t-1.798-.74q-.74-.74-.74-1.798q0-.514.194-.961q.196-.447.522-.797l-4.473-6.152q-.298.204-.631.325q-.334.121-.709.178v4.908q.875.166 1.457.864q.581.698.581 1.615q0 1.058-.74 1.798T12 20.48q-1.058 0-1.798-.74t-.74-1.798q0-.917.581-1.612q.582-.695 1.457-.867v-4.908q-.375-.057-.709-.178t-.631-.325l-4.493 6.152q.327.35.532.797q.205.447.205.96q0 1.058-.74 1.799q-.74.74-1.799.74m0-1q.637 0 1.088-.451q.45-.45.45-1.087t-.45-1.088q-.451-.45-1.088-.45q-.636 0-1.087.45q-.451.451-.451 1.088q0 .636.45 1.087q.452.451 1.088.451M12 19.48q.637 0 1.088-.45q.45-.451.45-1.088q0-.636-.45-1.087q-.451-.451-1.088-.451t-1.088.45q-.45.452-.45 1.088q0 .637.45 1.088q.451.45 1.088.45m8.135.02q.636 0 1.087-.451q.451-.45.451-1.087t-.45-1.088q-.452-.45-1.088-.45q-.637 0-1.088.45q-.45.451-.45 1.088q0 .636.45 1.087q.451.451 1.088.451M12 9.596q1.047 0 1.793-.746q.745-.745.745-1.792q0-1.047-.745-1.793q-.746-.746-1.793-.746t-1.793.746q-.745.746-.745 1.793t.745 1.792q.746.746 1.793.746"/></svg>