<svg xmlns="http://www.w3.org/2000/svg" width="1em" height="1em" viewBox="0 0 24 24"><path fill="currentColor" d="M12 20q-.262 0-.438-.177q-.177-.177-.177-.438q0-.262.177-.439q.176-.177.438-.177t.438.177q.177.177.177.439q0 .261-.177.438Q12.262 20 12 20m-3.692 0q-.262 0-.439-.177t-.177-.438q0-.262.177-.439t.439-.177q.261 0 .438.177t.177.439q0 .261-.177.438T8.308 20m-3.693 0q-.261 0-.438-.177T4 19.385q0-.262.177-.439t.438-.177q.262 0 .439.177t.177.439q0 .261-.177.438T4.615 20m0-3.692q-.261 0-.438-.177T4 15.692q0-.261.177-.438t.438-.177q.262 0 .439.177t.177.438q0 .262-.177.439t-.439.177m0-3.693q-.261 0-.438-.177Q4 12.262 4 12t.177-.438q.177-.177.438-.177q.262 0 .439.177q.177.176.177.438t-.177.438q-.177.177-.439.177m0-3.692q-.261 0-.438-.177T4 8.308q0-.262.177-.439t.438-.177q.262 0 .439.177t.177.439q0 .261-.177.438t-.439.177M12 5.231q-.262 0-.438-.177q-.177-.177-.177-.439q0-.261.177-.438Q11.738 4 12 4t.438.177q.177.177.177.438q0 .262-.177.439q-.176.177-.438.177m-3.692 0q-.262 0-.439-.177t-.177-.439q0-.261.177-.438T8.308 4q.261 0 .438.177t.177.438q0 .262-.177.439t-.438.177m-3.693 0q-.261 0-.438-.177T4 4.615q0-.261.177-.438T4.615 4q.262 0 .439.177t.177.438q0 .262-.177.439t-.439.177M15.5 20q-.213 0-.356-.144Q15 19.712 15 19.5t.144-.356q.144-.143.356-.143H17V5h-1.5q-.213 0-.356-.144T15 4.499q0-.212.144-.356Q15.288 4 15.5 4h4q.213 0 .356.144q.144.144.144.357q0 .212-.144.356Q19.713 5 19.5 5H18v14h1.5q.213 0 .356.144T20 19.5q0 .212-.144.356q-.143.143-.356.143z"/></svg>