<svg xmlns="http://www.w3.org/2000/svg" width="1em" height="1em" viewBox="0 0 24 24"><path fill="currentColor" d="M19.5 20h-15q-.213 0-.356-.144Q4 19.712 4 19.5t.144-.356Q4.288 19 4.5 19h15q.213 0 .356.144T20 19.5q0 .212-.144.356q-.143.143-.356.143m-8-10.367L9.754 11.36q-.14.14-.341.15q-.201.01-.371-.16q-.155-.156-.155-.35t.16-.354l2.388-2.388q.242-.243.565-.243q.323 0 .565.243l2.389 2.388q.14.14.153.341t-.157.371q-.156.155-.35.146q-.194-.01-.354-.15L12.5 9.633V16q0 .213-.144.356q-.144.144-.357.144t-.356-.144Q11.5 16.213 11.5 16zM19.5 5h-15q-.213 0-.356-.144T4 4.499q0-.212.144-.356Q4.288 4 4.5 4h15q.213 0 .356.144q.144.144.144.357q0 .212-.144.356Q19.713 5 19.5 5"/></svg>