<svg xmlns="http://www.w3.org/2000/svg" width="1em" height="1em" viewBox="0 0 24 24"><path fill="currentColor" d="M18.5 7.308q.329 0 .568-.24q.24-.24.24-.568q0-.329-.24-.568q-.24-.24-.568-.24q-.329 0-.568.24q-.24.24-.24.568q0 .329.24.568q.24.24.568.24m-4 0q.329 0 .568-.24q.24-.24.24-.568q0-.329-.24-.568q-.24-.24-.568-.24q-.329 0-.568.24q-.24.24-.24.568q0 .329.24.568q.24.24.568.24m-.27 3.4h4.54q-.097-.664-.754-1.09q-.656-.426-1.516-.426q-.898 0-1.555.426q-.657.426-.714 1.09M7.505 21q-2.082 0-3.543-1.458Q2.5 18.083 2.5 16v-6h10v6q0 2.083-1.457 3.542Q9.586 21 7.505 21M7.5 20q1.65 0 2.825-1.175T11.5 16v-5h-8v5q0 1.65 1.175 2.825T7.5 20m9-6q-.67 0-1.374-.186q-.705-.185-1.164-.518L14 12.1q.538.425 1.162.663T16.5 13q1.65 0 2.825-1.175T20.5 9V4h-8v4.5h-1V3h10v6q0 2.083-1.458 3.542Q18.583 14 16.5 14m-11 .308q.329 0 .568-.24q.24-.24.24-.568q0-.329-.24-.568q-.24-.24-.568-.24q-.329 0-.568.24q-.24.24-.24.568q0 .329.24.568q.24.24.568.24m4 0q.329 0 .568-.24q.24-.24.24-.568q0-.329-.24-.568q-.24-.24-.568-.24q-.329 0-.568.24q-.24.24-.24.568q0 .329.24.568q.24.24.568.24m-2 3.4q.898 0 1.555-.426q.657-.426.714-1.09H5.231q.057.664.714 1.09q.657.426 1.555.426m9-9.208"/></svg>