<svg xmlns="http://www.w3.org/2000/svg" width="1em" height="1em" viewBox="0 0 24 24"><path fill="currentColor" d="M16.923 7.5h-2.5q-.212 0-.356-.144t-.144-.357t.144-.356q.144-.143.356-.143h2.5V4q0-.213.144-.356t.357-.144q.213 0 .356.144q.143.143.143.356v2.5h2.5q.213 0 .356.144q.144.144.144.357t-.144.356q-.143.143-.356.143h-2.5V10q0 .213-.144.356q-.144.144-.357.144q-.212 0-.356-.144q-.143-.144-.143-.356zM8.761 20q-1.663 0-2.827-1.164T4.769 16q0-1.085.544-1.987t1.456-1.475V6q0-.846.577-1.423Q7.923 4 8.77 4q.846 0 1.423.577q.577.577.577 1.423v6.538q.912.572 1.456 1.475T12.769 16q0 1.671-1.172 2.836T8.76 20m-.99-10h2V6q0-.425-.287-.712T8.769 5q-.425 0-.712.288T7.769 6z"/></svg>