<svg xmlns="http://www.w3.org/2000/svg" width="1em" height="1em" viewBox="0 0 24 24"><path fill="currentColor" d="m13.567 13l3.51-9h.638l3.56 9h-.973l-1.03-2.608h-3.74L14.503 13zm2.262-3.408h3.134l-1.536-4.019h-.089zM8.154 20q-1.671 0-2.836-1.164T4.154 16q0-1.046.525-1.959q.525-.912 1.475-1.503V6q0-.846.577-1.423Q7.308 4 8.154 4Q9 4 9.577 4.577q.577.577.577 1.423v6.538q.95.59 1.475 1.503T12.154 16q0 1.671-1.165 2.836T8.154 20m-3-4h6q0-.744-.4-1.437q-.398-.692-1.146-1.232L9.154 13V6q0-.425-.288-.712T8.154 5q-.425 0-.713.288T7.154 6v7l-.454.33q-.748.541-1.147 1.233q-.4.693-.4 1.437"/></svg>