<svg xmlns="http://www.w3.org/2000/svg" width="1em" height="1em" viewBox="0 0 24 24"><path fill="currentColor" d="M7 19v-4.5h-.962q-.212 0-.356-.144T5.538 14t.144-.356q.144-.143.356-.143h.985q.07-1.798 1.365-3.055Q9.683 9.188 11.5 9.023V5.655q0-.35.232-.579q.232-.23.576-.23h3.461q.343 0 .576.232q.232.233.232.576v1.23q0 .344-.235.576q-.234.232-.58.232H12.5v1.331q1.817.165 3.113 1.422q1.295 1.257 1.364 3.055h.985q.212 0 .356.144t.144.357t-.144.356q-.144.143-.356.143H17V19h2.423q.213 0 .356.144t.144.357q0 .212-.144.356q-.143.143-.356.143H4.577q-.213 0-.356-.144q-.144-.144-.144-.357q0-.212.144-.356q.143-.143.356-.143zm1 0h3.5v-4.5H8zm4.5 0H16v-4.5h-3.5z"/></svg>