<svg xmlns="http://www.w3.org/2000/svg" width="1em" height="1em" viewBox="0 0 24 24"><path fill="currentColor" d="M13.754 20q-1.158 0-1.88-.733q-.724-.732-.724-1.879q0-1.707 1.48-3.043q1.48-1.335 3.645-1.576q-.113-1.284-.556-1.881q-.442-.598-1.284-.598q-.847 0-1.76.654t-2.229 2.252q-1.45 1.787-2.343 2.448q-.893.662-1.809.662q-1.025 0-1.66-.73Q4 14.849 4 13.653q0-1.12.501-2.359q.5-1.24 1.593-2.772q.648-.9.921-1.456q.273-.555.273-.946q0-.31-.149-.464Q6.99 5.5 6.692 5.5q-.365 0-.76.255q-.394.255-.874.79L4 5.5q.685-.744 1.346-1.122Q6.008 4 6.692 4q.9 0 1.498.588q.598.589.598 1.52q0 .629-.346 1.417t-1.22 2.033q-.893 1.292-1.308 2.269q-.414.977-.414 1.79q0 .54.224.865q.224.324.57.324q.308 0 .61-.167q.304-.166.746-.576q.325-.292.708-.737q.382-.445.917-1.06q1.594-1.914 2.754-2.695q1.16-.78 2.367-.78q1.502 0 2.385 1.047q.882 1.049.994 2.902h2.244v1.5h-2.244q-.162 2.627-1.26 4.194Q15.414 20 13.753 20m.011-1.5q1.012 0 1.697-1.153q.684-1.153.807-3.066q-1.477.16-2.548 1.068q-1.071.909-1.071 1.978q0 .542.296.858q.296.315.82.315M19 7.52q-1.038 0-1.77-.732q-.73-.73-.73-1.769q0-1.038.73-1.769q.732-.73 1.77-.73t1.77.73q.73.73.73 1.77q0 1.038-.73 1.768q-.732.731-1.77.731"/></svg>