<svg xmlns="http://www.w3.org/2000/svg" width="1em" height="1em" viewBox="0 0 24 24"><path fill="currentColor" d="M3.615 15q-.627 0-1.12-.494Q2 14.012 2 13.385v-1.231q0-.137.028-.298q.028-.162.084-.298l2.73-6.473q.206-.462.693-.773Q6.02 4 6.538 4h8.193q.67 0 1.143.472q.472.472.472 1.143v8.714q0 .323-.133.628q-.134.305-.351.522l-5.156 5.111q-.221.216-.493.272q-.273.055-.517-.06q-.244-.115-.35-.373t-.04-.579L10.335 15zm15.77-11q.67 0 1.143.472q.472.472.472 1.143v7.77q0 .67-.472 1.143q-.472.472-1.143.472h-.423q-.672 0-1.144-.472q-.472-.472-.472-1.143V5.596q0-.671.472-1.133Q18.29 4 18.962 4z"/></svg>