<svg xmlns="http://www.w3.org/2000/svg" width="1em" height="1em" viewBox="0 0 24 24"><path fill="currentColor" d="M6.538 4.808h10.039v11L10.307 22l-.442-.442q-.136-.137-.23-.35q-.093-.214-.093-.393v-.157l1.023-4.85h-6.95q-.627 0-1.12-.495Q2 14.82 2 14.193v-1.231q0-.137.03-.299q.032-.161.082-.298l2.73-6.473q.206-.461.693-.773q.486-.311 1.003-.311m9.039 1H6.538q-.211 0-.432.115t-.337.385L3 12.808v1.384q0 .27.173.443t.442.173h8.193l-1.158 5.461l4.927-4.888zm0 9.573V5.808zm1 .427v-1H20v-9h-3.423v-1H21v11z"/></svg>