<svg xmlns="http://www.w3.org/2000/svg" width="1em" height="1em" viewBox="0 0 24 24"><path fill="currentColor" d="m13.365 22.677l1.343-1.506l-1.062-.54q-.367-.187-.448-.566q-.08-.378.187-.677l1.5-1.711q.067-.079.164-.128t.201-.049q.323 0 .46.287q.138.286-.075.536l-1.343 1.506l1.062.54q.367.187.448.566q.08.378-.187.677l-1.5 1.711q-.067.079-.164.128t-.201.049q-.323 0-.46-.287q-.138-.286.075-.536m-6 0l1.343-1.506l-1.062-.54q-.367-.187-.448-.566q-.08-.378.187-.677l1.5-1.711q.067-.079.164-.128t.201-.049q.323 0 .46.287q.138.286-.075.536L8.292 19.83l1.062.54q.367.187.448.566q.08.378-.187.677l-1.5 1.711q-.067.079-.164.128t-.201.049q-.323 0-.46-.287q-.138-.286.075-.536M7.5 15.5q-2.083 0-3.541-1.459Q2.5 12.583 2.5 10.5q0-1.94 1.308-3.356Q5.115 5.73 7.083 5.512q.742-1.406 2.033-2.21Q10.408 2.5 12 2.5q2.154 0 3.701 1.428q1.547 1.428 1.8 3.559q1.841.111 2.92 1.28Q21.5 9.937 21.5 11.5q0 1.663-1.168 2.832Q19.163 15.5 17.5 15.5z"/></svg>