<svg xmlns="http://www.w3.org/2000/svg" width="1em" height="1em" viewBox="0 0 24 24"><path fill="currentColor" d="M10 8.777L7.587 6.363q-.29-.29-.439-.638Q7 5.377 7 4.975q0-.827.564-1.401Q8.13 3 8.95 3h6.1q.802 0 1.363.574q.562.574.562 1.376q0 .413-.163.784q-.164.37-.454.68L14 8.751v6.377l2.408 2.388q.27.29.431.658q.161.367.161.775q0 .852-.587 1.438q-.586.587-1.438.587q-.408 0-.765-.158q-.358-.157-.648-.429q-.31-.315-.715-.489q-.405-.174-.847-.174q-.442 0-.837.177t-.705.486q-.29.272-.658.43q-.367.157-.775.157q-.852 0-1.429-.587Q7.02 19.802 7 18.95q0-.408.148-.775t.439-.638L10 15.154z"/></svg>