<svg xmlns="http://www.w3.org/2000/svg" width="1em" height="1em" viewBox="0 0 24 24"><path fill="currentColor" d="M13.442 16.885h3.539q.269 0 .442-.173t.173-.443V7.731q0-.27-.173-.443t-.442-.173h-3.539q-.269 0-.442.173t-.173.443v8.538q0 .27.173.443t.442.173m0 1.23q-.788 0-1.317-.528t-.529-1.318V7.731q0-.789.529-1.318q.529-.528 1.317-.528h3.539q.788 0 1.317.528t.529 1.318v8.538q0 .789-.529 1.318q-.529.528-1.317.528zm-5.846-11H5.808q-.26 0-.438-.177q-.178-.178-.178-.438t.178-.437q.178-.178.438-.178h2.211q.348 0 .578.23q.23.23.23.577V17.5q0 .26-.178.438q-.178.177-.437.177q-.26 0-.438-.177q-.178-.178-.178-.438z"/></svg>