<svg xmlns="http://www.w3.org/2000/svg" width="1em" height="1em" viewBox="0 0 24 24"><path fill="currentColor" d="M9.173 10.35v6.167q0 .199.14.338q.14.14.34.14q.199 0 .336-.14t.138-.338v-6.319q0-.343-.23-.575q-.23-.233-.569-.233H8.45q-.199 0-.338.14t-.139.34q0 .2.144.34q.143.14.339.14zm4.027 6.644h1.2q.568 0 .975-.401q.408-.402.408-.976v-4.825q0-.576-.408-.989q-.407-.413-.975-.413h-1.2q-.574 0-.975.413q-.402.413-.402.99v4.824q0 .574.402.976q.401.401.975.401m0-.954q-.173 0-.298-.125t-.125-.298v-4.825q0-.173.125-.298t.298-.125h1.2q.173 0 .298.125t.125.298v4.825q0 .173-.125.298t-.298.125zM9.885 2.5q-.213 0-.357-.144q-.143-.144-.143-.357t.143-.356q.144-.143.357-.143h4.23q.213 0 .357.144q.143.144.143.357t-.143.356q-.144.143-.357.143zM12 21q-1.649 0-3.108-.626q-1.46-.626-2.55-1.716q-1.09-1.09-1.716-2.55Q4 14.648 4 13t.626-3.108q.626-1.46 1.716-2.55q1.09-1.09 2.55-1.716Q10.352 5 12 5q1.454 0 2.812.52q1.357.518 2.492 1.468l.738-.738q.14-.14.345-.15q.203-.01.363.15q.16.16.16.354q0 .194-.16.354l-.738.738q.95 1.135 1.469 2.492Q20 11.546 20 13q0 1.649-.626 3.108q-.626 1.46-1.716 2.55q-1.09 1.09-2.55 1.716Q13.648 21 12 21"/></svg>