<svg xmlns="http://www.w3.org/2000/svg" width="1em" height="1em" viewBox="0 0 24 24"><path fill="currentColor" d="M13.675 16.783q.424 0 .726-.289t.303-.69v-2.3q0-.21-.155-.376t-.44-.205q.285-.058.44-.227q.155-.17.155-.36v-2.184q0-.397-.308-.676q-.308-.278-.721-.278H9.677q-.199 0-.338.14t-.139.34q0 .199.14.336q.138.138.337.138h3.998v2.294H11.61q-.2 0-.338.14q-.14.14-.14.34q0 .199.14.337q.139.137.338.137h2.065v2.404H9.677q-.199 0-.338.14t-.139.339q0 .2.15.35t.352.15zM9.885 2.5q-.213 0-.357-.144q-.143-.144-.143-.357t.143-.356q.144-.143.357-.143h4.23q.213 0 .357.144q.143.144.143.357t-.143.356q-.144.143-.357.143zM12 21q-1.649 0-3.108-.626q-1.46-.626-2.55-1.716q-1.09-1.09-1.716-2.55Q4 14.648 4 13t.626-3.108q.626-1.46 1.716-2.55q1.09-1.09 2.55-1.716Q10.352 5 12 5q1.454 0 2.812.52q1.357.518 2.492 1.468l.738-.738q.14-.14.345-.15q.203-.01.363.15q.16.16.16.354q0 .194-.16.354l-.738.738q.95 1.135 1.469 2.492Q20 11.546 20 13q0 1.649-.626 3.108q-.626 1.46-1.716 2.55q-1.09 1.09-2.55 1.716Q13.648 21 12 21"/></svg>