<svg xmlns="http://www.w3.org/2000/svg" width="1em" height="1em" viewBox="0 0 24 24"><path fill="currentColor" d="M4.885 18.115v-1.23h5.384q.27 0 .443-.173t.173-.443v-3.038q0-.27-.173-.443t-.443-.173H4.885v-1.23h5.384q.27 0 .443-.173t.173-.443V7.731q0-.27-.173-.443t-.443-.173H4.885v-1.23h5.384q.77 0 1.308.538q.538.539.538 1.308v3.054q0 .49-.304.852q-.305.363-.776.363q.47 0 .776.363q.304.362.304.852v3.054q0 .77-.538 1.308q-.539.538-1.308.538zm10.23 0v-1h4v-2h-3.15q-.344 0-.597-.252q-.253-.253-.253-.598v-2.3q0-.344.253-.597t.597-.253h4.15v1h-4v2h3.15q.345 0 .598.253q.252.253.252.597v2.3q0 .345-.252.597q-.253.253-.598.253z"/></svg>