<svg xmlns="http://www.w3.org/2000/svg" width="1em" height="1em" viewBox="0 0 24 24"><path fill="currentColor" d="M9.538 16.885h3.539q.27 0 .442-.173t.173-.443V7.731q0-.27-.173-.443t-.442-.173H9.538q-.269 0-.442.173q-.173.174-.173.443v8.538q0 .27.173.443t.442.173m0 1.23q-.788 0-1.317-.528q-.529-.53-.529-1.318V7.731q0-.789.53-1.318q.528-.528 1.316-.528h3.539q.788 0 1.317.528t.53 1.318v8.538q0 .789-.53 1.318q-.529.528-1.317.528zm-5.846 0v-11h-2v-1.23h3.231v12.23zm13.616 0v-1h4v-2h-3.15q-.364 0-.607-.243t-.243-.607v-2.3q0-.363.243-.606q.243-.244.607-.244h4.15v1h-4v2h3.15q.363 0 .606.244q.244.243.244.606v2.3q0 .364-.244.607t-.606.243z"/></svg>