<svg xmlns="http://www.w3.org/2000/svg" width="1em" height="1em" viewBox="0 0 24 24"><path fill="currentColor" d="M9.885 2.5q-.213 0-.357-.144q-.143-.144-.143-.357t.143-.356q.144-.143.357-.143h4.23q.213 0 .357.144q.143.144.143.357t-.143.356q-.144.143-.357.143zM12 13.615q.212 0 .356-.143q.143-.144.143-.357v-4.23q0-.213-.144-.357q-.144-.143-.357-.143t-.356.143q-.143.144-.143.357v4.23q0 .213.144.357q.144.143.357.143M12 21q-1.649 0-3.108-.626q-1.46-.626-2.55-1.716q-1.09-1.09-1.716-2.55Q4 14.648 4 13t.626-3.108q.626-1.46 1.716-2.55q1.09-1.09 2.55-1.716Q10.352 5 12 5q1.454 0 2.812.52q1.357.518 2.492 1.468l.738-.738q.14-.14.345-.15q.203-.01.363.15q.16.16.16.354q0 .194-.16.354l-.738.738q.95 1.135 1.469 2.492Q20 11.546 20 13q0 1.649-.626 3.108q-.626 1.46-1.716 2.55q-1.09 1.09-2.55 1.716Q13.648 21 12 21"/></svg>