<svg xmlns="http://www.w3.org/2000/svg" width="1em" height="1em" viewBox="0 0 24 24"><path fill="currentColor" d="M10.27 18.115H5.5q-.26 0-.437-.177q-.178-.178-.178-.438t.178-.437q.177-.178.437-.178h4.77q.268 0 .442-.173t.173-.443v-3.038q0-.27-.173-.443t-.443-.173H5.5q-.26 0-.437-.177q-.178-.178-.178-.438t.178-.437q.177-.178.437-.178h4.77q.268 0 .442-.173t.173-.443V7.731q0-.27-.173-.443t-.443-.173H5.5q-.26 0-.437-.178q-.178-.177-.178-.437t.178-.437q.177-.178.437-.178h4.77q.768 0 1.307.538q.538.539.538 1.308v3.054q0 .49-.304.852q-.305.363-.776.363q.47 0 .776.363q.304.362.304.852v3.054q0 .77-.538 1.308q-.539.538-1.308.538m8.996 0h-3.65q-.213 0-.356-.143t-.144-.357q0-.213.144-.356t.356-.144h3.5v-2h-3.15q-.344 0-.597-.252q-.253-.253-.253-.598v-2.3q0-.344.253-.597t.597-.253h3.65q.214 0 .357.144t.143.356q0 .214-.143.357t-.357.143h-3.5v2h3.15q.345 0 .598.253q.252.253.252.597v2.3q0 .345-.252.597q-.253.253-.598.253"/></svg>