<svg xmlns="http://www.w3.org/2000/svg" width="1em" height="1em" viewBox="0 0 24 24"><path fill="currentColor" d="M9.538 16.885h3.539q.27 0 .442-.173t.173-.443V7.731q0-.27-.173-.443t-.442-.173H9.538q-.269 0-.442.173q-.173.174-.173.443v8.538q0 .27.173.443t.442.173m0 1.23q-.788 0-1.317-.528q-.529-.53-.529-1.318V7.731q0-.789.53-1.318q.528-.528 1.316-.528h3.539q.788 0 1.317.528t.53 1.318v8.538q0 .789-.53 1.318q-.529.528-1.317.528zm-5.846-11H2.308q-.257 0-.436-.18q-.18-.18-.18-.437q0-.258.18-.436q.18-.177.436-.177h2.615V17.5q0 .256-.18.436t-.438.18t-.435-.18q-.178-.18-.178-.436zm17.766 11h-3.65q-.213 0-.357-.144t-.143-.356q0-.213.143-.356q.144-.144.357-.144h3.5v-2h-3.15q-.362 0-.606-.244t-.244-.606v-2.3q0-.362.244-.606t.606-.244h3.65q.212 0 .356.144t.144.357q0 .213-.144.356t-.356.143h-3.5v2h3.15q.362 0 .606.244t.244.606v2.3q0 .362-.244.606t-.606.244"/></svg>