<svg xmlns="http://www.w3.org/2000/svg" width="1em" height="1em" viewBox="0 0 24 24"><path fill="currentColor" d="M18.315 8.404q-.375 0-.633-.255q-.259-.256-.259-.633q0-.178.065-.332q.066-.155.197-.288q.28-.28 1.23-.608l.95-.326q-.161.517-.336.96q-.133.375-.298.73q-.165.353-.298.486q-.132.133-.287.2q-.154.066-.33.066M5.264 19.519q-.667 0-1.139-.474t-.472-1.141V5.98q0-.667.475-1.141q.475-.475 1.141-.475h4.85q.667 0 1.139.475q.472.474.472 1.14v7.232h3.538v5.307h2.539v-6.077h-.885v-1.136q-1.221-.523-1.937-1.55q-.717-1.025-.717-2.243q0-1.684 1.181-2.858q1.182-1.174 2.858-1.174q1.69 0 2.864 1.174t1.174 2.858q0 1.218-.716 2.244q-.717 1.026-1.938 1.549v1.136h-.884v7.077h-4.539v-5.307H11.73v3.692q0 .666-.475 1.14q-.475.475-1.142.475zm13.045-8.961q1.267 0 2.152-.887q.884-.887.884-2.154t-.887-2.152q-.887-.884-2.154-.884t-2.151.887q-.885.887-.885 2.153q0 1.267.887 2.152q.887.885 2.154.885M5.27 18.519h4.845q.27 0 .443-.173t.173-.442v-2.462l-1.77 1.77V15.79l1.77-1.769V11.02l-1.77 1.77v-1.422l1.77-1.769V6.596l-1.77 1.77V6.943l1.406-1.406q-.077-.096-.182-.134q-.106-.039-.26-.039H5.46q-.154 0-.26.039q-.106.038-.183.134l1.406 1.406v1.421l-1.77-1.769v3.002l1.77 1.77v1.42l-1.77-1.769v3.002l1.77 1.77v1.42l-1.77-1.769v2.462q0 .27.174.442t.442.173m2.423-6.577"/></svg>