<svg xmlns="http://www.w3.org/2000/svg" width="1em" height="1em" viewBox="0 0 24 24"><path fill="currentColor" d="M15.003 19q-2.93 0-4.966-2.033Q8 14.933 8 12.003q0-2.93 2.033-4.966Q12.067 5 14.997 5q2.93 0 4.966 2.033Q22 9.067 22 11.997q0 2.93-2.033 4.966Q17.933 19 15.003 19m-8.705-.52q-1.985-.743-3.141-2.52Q2 14.183 2 12t1.157-3.96q1.156-1.777 3.141-2.52q.275-.116.489.033Q7 5.7 7 6.038q0 .13-.086.245q-.087.116-.22.177q-1.69.667-2.692 2.178Q3 10.148 3 12t1.002 3.363q1.002 1.51 2.692 2.177q.133.066.22.184q.086.118.086.263q0 .298-.213.453q-.214.156-.489.04M15 18q2.5 0 4.25-1.75T21 12q0-2.5-1.75-4.25T15 6q-2.5 0-4.25 1.75T9 12q0 2.5 1.75 4.25T15 18"/></svg>