<svg xmlns="http://www.w3.org/2000/svg" width="1em" height="1em" viewBox="0 0 24 24"><path fill="currentColor" d="M8.5 20q-.213 0-.356-.144Q8 19.712 8 19.5t.144-.356Q8.287 19 8.5 19h7q.213 0 .356.144T16 19.5q0 .212-.144.356q-.143.143-.356.143zm.3-2q-.34 0-.57-.232q-.23-.232-.23-.576V9.867q0-.262.08-.505q.082-.242.243-.464l2.742-3.652q.093-.123.216-.184q.123-.062.277-.062h.89q.148 0 .271.062q.123.061.216.184l2.742 3.652q.161.222.242.464q.081.243.081.505v7.325q0 .344-.23.576q-.23.232-.57.232zm.2-1h6v-2.887l-3-3l-3 3zm0-4.288l2.5-2.5V6.327L9 9.675zm6 0V9.675l-2.5-3.348v3.885zM15 17H9z"/></svg>