<svg xmlns="http://www.w3.org/2000/svg" width="1em" height="1em" viewBox="0 0 24 24"><path fill="currentColor" d="M5.338 11.8q.606-1.848 2.269-3.949Q9.269 5.75 12 3.308q2.73 2.442 4.393 4.543q1.663 2.1 2.269 3.949zm13.627 2.4q-.052.494-.2.957q-.15.462-.39.876l-4.423 4.404q-.414.24-.866.376q-.453.137-.942.164zm-4.382-.4h1.446l-6.677 6.658q-.267-.087-.516-.192q-.25-.104-.48-.264zm-4.764 0h1.446l-4.648 4.648q-.182-.196-.328-.398t-.285-.435zm-4.75 0h1.446l-1.384 1.385q-.085-.348-.093-.693q-.01-.344.031-.692"/></svg>