<svg xmlns="http://www.w3.org/2000/svg" width="1em" height="1em" viewBox="0 0 24 24"><path fill="currentColor" d="M20.756 22.171L2.24 3.661q-.146-.146-.155-.347q-.01-.2.155-.366q.166-.165.357-.165q.191 0 .357.165l18.515 18.515q.146.147.156.345q.01.198-.156.363q-.165.166-.356.166t-.357-.166M16.502 21q-1.879 0-3.19-1.31Q12 18.383 12 16.5v-3q0-.354.045-.67q.045-.315.15-.642l2.31 2.312H13v2q0 1.45 1.025 2.475T16.5 20q.725 0 1.363-.275t1.112-.756l.713.714q-.612.608-1.43.962q-.816.355-1.756.355m3.997-3.442q-.212 0-.356-.144Q20 17.27 20 17.058V14.5h-2.683L16 13.183v-3.13q-.506.057-.964.271q-.46.214-.844.557q-.157.123-.346.08q-.189-.042-.286-.213q-.13-.183-.074-.415q.054-.233.237-.387q.592-.483 1.305-.714Q15.74 9 16.5 9q1.882 0 3.19 1.31Q21 11.617 21 13.5v3.558q0 .212-.144.356t-.357.144M17 13.5h2.994q-.034-1.333-.856-2.3T17 10.054zM4.615 19q-.69 0-1.152-.462Q3 18.075 3 17.385V6.615q0-.69.463-1.152Q3.925 5 4.615 5h.39l1 1h-1.39q-.269 0-.442.173T4 6.615v10.77q0 .269.173.442t.442.173h4.52q.212 0 .356.144t.144.357q0 .212-.144.356q-.144.143-.356.143zM8.917 6q-.212 0-.356-.144t-.144-.357q0-.212.144-.356Q8.705 5 8.917 5H20.5q.213 0 .356.144q.144.144.144.357q0 .212-.144.356Q20.713 6 20.5 6zm2.637 2.737"/></svg>