<svg xmlns="http://www.w3.org/2000/svg" width="1em" height="1em" viewBox="0 0 24 24"><path fill="currentColor" d="M11.167 21q-.815 0-1.553-.338q-.737-.339-1.22-.985l-4.506-5.952q-.103-.148-.098-.316q.006-.169.13-.292q.25-.275.593-.336q.345-.062.656.12l3.023 1.491V6.77q0-.212.144-.356t.357-.144q.213 0 .359.144t.146.356v8q0 .46-.387.69q-.388.23-.792.026l-2.4-1.166l3.639 4.806q.342.444.85.66q.507.215 1.06.215h4.313q1.056 0 1.787-.722Q18 18.556 18 17.5v-3.538q0-.605-.41-1.014q-.408-.41-1.013-.41h-4.11q-.212 0-.356-.143t-.144-.357q0-.213.144-.356q.144-.144.356-.144h4.11q1.01 0 1.716.707q.707.707.707 1.717v3.537q0 1.459-1.034 2.48T15.481 21zm.558-11.98q-.213 0-.357-.145t-.143-.356q0-.069.067-.25q.2-.35.3-.712t.1-.788q0-1.25-.875-2.125T8.692 3.77q-1.25 0-2.125.875T5.692 6.77q0 .425.1.788t.3.712q.04.063.054.125q.014.063.014.126q0 .213-.14.356t-.355.143q-.14 0-.256-.073q-.115-.073-.176-.183q-.268-.453-.404-.955q-.137-.502-.137-1.044q0-1.666 1.165-2.83T8.692 2.77q1.671 0 2.836 1.165q1.164 1.164 1.164 2.83q0 .542-.136 1.044q-.137.502-.404.955q-.063.11-.176.183q-.113.073-.251.073"/></svg>