<svg xmlns="http://www.w3.org/2000/svg" width="1em" height="1em" viewBox="0 0 24 24"><path fill="currentColor" d="M16.5 21q-1.871 0-3.186-1.314T12 16.5v-2h9v2q0 1.871-1.312 3.186Q18.377 21 16.5 21M4.615 19q-.69 0-1.152-.462Q3 18.075 3 17.385V6.615q0-.69.463-1.152Q3.925 5 4.615 5h14.77q.69 0 1.152.463q.463.462.463 1.152v.53q0 .367-.313.525q-.314.159-.625-.058q-.797-.483-1.704-.74q-.908-.257-1.858-.257q-2.875 0-4.88 2.005T9.615 13.5v3q0 .408.037.79q.036.383.14.785q.087.367-.122.646q-.208.279-.557.279zM12 13.5q.017-1.74 1.158-3.016Q14.298 9.208 16 9.017V13.5zm5 0V9.017q1.702.19 2.842 1.467Q20.982 11.76 21 13.5z"/></svg>