<svg xmlns="http://www.w3.org/2000/svg" width="1em" height="1em" viewBox="0 0 24 24"><path fill="currentColor" d="M4 18.085q0-.247.138-.445q.137-.198.377-.198q.123 0 .234.034q.11.034.209.1q.248.124.505.178q.258.054.537.054q1.171 0 1.97-.819q.8-.818.8-1.989q0-1.152-.81-1.941q-.808-.79-1.96-.79q-.24 0-.475.048t-.452.145q-.13.048-.273.072q-.142.024-.285.024q-.24 0-.377-.18T4 11.955V9.769q0-.31.23-.54Q4.46 9 4.77 9h4.365q.153 0 .192-.154q.038-.154-.115-.308q-.356-.413-.534-.942T8.5 6.5q0-1.471 1.014-2.486Q10.53 3 12 3q1.471 0 2.486 1.014Q15.5 5.03 15.5 6.5q0 .567-.178 1.096q-.178.529-.534.942q-.153.154-.115.308q.039.154.192.154h4.366q.31 0 .54.23q.229.23.229.54v1.76q0 .368-.095.704q-.095.335-.443.335q-.162 0-.312-.02t-.3-.087q-.198-.097-.413-.145q-.216-.048-.437-.048q-1.152 0-1.96.79q-.81.79-.81 1.941q0 1.171.8 1.99q.799.818 1.97.818q.26 0 .523-.048q.264-.048.48-.183q.107-.067.211-.107q.105-.04.248-.04q.251 0 .395.202q.143.2.143.453v2.146q0 .31-.23.54q-.23.229-.54.229H4.77q-.31 0-.54-.23q-.23-.23-.23-.54z"/></svg>