<svg xmlns="http://www.w3.org/2000/svg" width="1em" height="1em" viewBox="0 0 24 24"><path fill="currentColor" d="M5 20h14v-1.342q-.25.075-.488.112t-.512.038q-1.573 0-2.671-1.119Q14.23 16.571 14.23 15q0-1.554 1.107-2.642q1.107-1.089 2.662-1.089q.275 0 .513.038t.487.112V10h-5.365V8.379q.407-.358.636-.852q.229-.493.229-1.027q0-1.05-.725-1.775T12 4q-1.05 0-1.775.725T9.5 6.5q0 .538.21 1.03q.21.491.617.849V10H5v1.42q.25-.076.488-.113T6 11.269q1.555 0 2.662 1.089q1.107 1.088 1.107 2.652q0 1.563-1.098 2.68Q7.573 18.808 6 18.808q-.275 0-.513-.038T5 18.658zm15-2.57V21H4v-3.558h.72q.274.177.6.271q.325.095.68.095q1.142 0 1.956-.814q.813-.813.813-1.956q0-1.142-.813-1.955q-.814-.814-1.956-.814q-.3 0-.576.075t-.512.214H4V9h5.212v-.462q-.356-.413-.534-.942T8.5 6.5q0-1.471 1.014-2.486Q10.53 3 12 3q1.471 0 2.486 1.014Q15.5 5.03 15.5 6.5q0 .567-.178 1.096q-.178.529-.534.942V9H20v3.57h-.9q-.237-.145-.513-.223q-.277-.078-.587-.078q-1.142 0-1.956.814q-.813.813-.813 1.955q0 1.143.813 1.956q.814.814 1.956.814q.365 0 .691-.097q.326-.098.601-.28zM12 12"/></svg>