<svg xmlns="http://www.w3.org/2000/svg" width="1em" height="1em" viewBox="0 0 24 24"><path fill="currentColor" d="M5 17.115V8q0-1.829 1.856-2.387Q8.712 5.056 11.462 5l.75-1.5H7.519q-.191 0-.317-.125t-.125-.316q0-.192.125-.318q.126-.126.317-.126h8.962q.191 0 .317.125q.125.125.125.317q0 .191-.125.317q-.126.126-.317.126h-3.193l-.75 1.5q2.802.056 4.632.609Q19 6.162 19 8v9.115q0 1.206-.84 2.046q-.839.839-2.045.839l1.193 1.192q.232.233.11.52q-.123.288-.45.288q-.095 0-.181-.034q-.086-.033-.152-.1L14.769 20H9.231l-1.866 1.865q-.069.068-.158.101q-.09.034-.186.034q-.317 0-.44-.287q-.121-.288.111-.52L7.885 20q-1.206 0-2.046-.84Q5 18.322 5 17.116m7.005.5q.466 0 .788-.326q.322-.327.322-.794t-.326-.788q-.327-.322-.794-.322t-.788.326q-.322.327-.322.794t.326.788q.327.322.794.322M6 13h12V8.538H6z"/></svg>