<svg xmlns="http://www.w3.org/2000/svg" width="1em" height="1em" viewBox="0 0 24 24"><path fill="currentColor" d="M8.654 19v-.975h1.48q.27 0 .443-.173t.173-.442V6.615q0-.269-.173-.442T10.135 6H8.654V5h1.48q.691 0 1.154.463q.462.462.462 1.152v10.77q0 .69-.462 1.152q-.463.463-1.153.463zm7.096 0q-.69 0-1.153-.462q-.462-.463-.462-1.153V6.615q0-.69.462-1.152Q15.06 5 15.75 5h4.635q.69 0 1.152.463q.463.462.463 1.152v10.77q0 .69-.462 1.152q-.463.463-1.153.463zm0-.975h4.635q.269 0 .442-.173T21 17.41V6.615q0-.269-.173-.442T20.385 6H15.75q-.27 0-.442.173t-.173.442V17.41q0 .269.173.442t.442.173m-10.038-2.91l-.714-.707l1.96-1.908H2v-1h4.958l-1.96-1.883l.694-.713L8.885 12zm9.423 2.91V6z"/></svg>