<svg xmlns="http://www.w3.org/2000/svg" width="1em" height="1em" viewBox="0 0 24 24"><path fill="currentColor" d="M12.003 15.5q1.659 0 2.828-1.172Q16 13.155 16 11.497t-1.172-2.828Q13.655 7.5 11.997 7.5T9.169 8.672Q8 9.845 8 11.503t1.172 2.828q1.173 1.169 2.831 1.169m-.503 7v-2h-2v-1h2v-3.023q-1.912-.235-3.206-1.644Q7 13.423 7 11.5q0-.863.286-1.673q.285-.81.818-1.504L6.608 6.827l-1.4 1.4l-.689-.689l1.4-1.405L3 3.213V6.5H2v-5h5v1H3.713l2.92 2.92l1.405-1.4l.689.688l-1.4 1.405L8.842 7.63q.675-.539 1.485-.834Q11.137 6.5 12 6.5t1.673.295q.81.295 1.485.834L20.287 2.5H17v-1h5v5h-1V3.213l-5.129 5.124q.533.68.83 1.487Q17 10.63 17 11.5q0 1.923-1.294 3.333q-1.294 1.41-3.206 1.644V19.5h2v1h-2v2z"/></svg>