<svg xmlns="http://www.w3.org/2000/svg" width="1em" height="1em" viewBox="0 0 24 24"><path fill="currentColor" d="M18.346 16.27q-1.723-.04-2.973-1.116q-1.25-1.077-1.504-2.885h-3.032l-.604-1h3.636q.087-.8.559-1.675q.472-.875 1.264-1.363H8.488l-.603-1h8.242l-1.58-4.327q-.078-.192-.232-.298q-.153-.106-.346-.106h-2.738v-1h2.738q.524 0 .926.289q.403.289.584.767l1.715 4.675h1.152q1.921 0 3.21 1.308q1.29 1.31 1.29 3.23q0 1.868-1.316 3.184t-3.184 1.316m.002-1q1.46 0 2.479-1.02q1.02-1.021 1.02-2.48q0-1.5-1-2.519q-1-1.02-2.5-1.02q-.237 0-.433.04q-.195.038-.354.076l1.032 2.771l-.938.348l-.989-2.76q-.846.445-1.332 1.314q-.487.87-.487 1.75q0 1.459 1.022 2.48q1.021 1.02 2.48 1.02M7.772 22.54q-1.041 0-1.772-.73t-.73-1.77q0-.154.018-.27q.02-.115.058-.269H1.27v-1h4.526q.355-.433.872-.697q.518-.265 1.106-.265q.525 0 1.042.222q.518.22.93.74h2.409q.27 0 .442-.173t.173-.442v-1.27q0-.269-.173-.442T12.154 16H1.269v-1h2v-3.5h-2v-1h6.212l2.615 4.5h2.058q.666 0 1.14.475q.475.474.475 1.14v1.27q0 .666-.474 1.14q-.475.475-1.141.475h-1.962q.039.154.058.27q.02.115.02.268q0 1.042-.73 1.771t-1.768.73M4.268 15h4.675l-2.011-3.5H4.269zm3.5 6.538q.618 0 1.059-.44q.441-.442.441-1.06q0-.617-.441-1.058q-.441-.442-1.059-.442q-.617 0-1.058.442q-.442.441-.442 1.058q0 .618.442 1.06q.44.44 1.058.44m-.75-4.288"/></svg>