<svg xmlns="http://www.w3.org/2000/svg" width="1em" height="1em" viewBox="0 0 24 24"><path fill="currentColor" d="m14.171 17.95l-1.061 2.733q-.062.14-.187.229q-.125.088-.29.088q-.27 0-.419-.22q-.149-.22-.045-.47l3.973-10.012q.068-.14.183-.22t.262-.078h.365q.146 0 .261.079q.116.079.183.22l3.973 10.016q.104.245-.042.465q-.146.22-.415.22q-.172 0-.294-.088q-.122-.089-.19-.235l-1.06-2.727zm-5.256-4.744l-4.542 4.556q-.14.16-.341.162q-.201.003-.367-.162q-.16-.16-.16-.354q0-.195.16-.354l4.543-4.562q-.856-.875-1.703-2.154Q5.658 9.06 5.25 8h1.08q.366.84 1.107 1.93q.74 1.091 1.478 1.855q1.306-1.325 2.319-2.909Q12.246 7.292 12.58 6H2.885q-.214 0-.357-.143q-.143-.144-.143-.357t.143-.357Q2.67 5 2.885 5H8.5v-.73q0-.214.143-.357q.144-.144.357-.144t.357.143q.143.144.143.357V5h5.615q.214 0 .357.143q.143.144.143.357t-.143.357t-.357.143H13.62q-.448 1.57-1.527 3.344q-1.079 1.775-2.469 3.16l2.535 2.604l-.385 1.03zm5.593 3.84h4.523l-2.262-5.811z"/></svg>