<svg xmlns="http://www.w3.org/2000/svg" width="1em" height="1em" viewBox="0 0 24 24"><path fill="currentColor" d="M5.962 19q-.414 0-.688-.274Q5 18.452 5 18.038q0-.413.274-.687q.274-.274.688-.274q.413 0 .687.274q.274.274.274.687q0 .414-.274.688q-.274.274-.687.274m4.013 0q-.41 0-.684-.274q-.274-.274-.274-.688q0-.413.274-.687q.274-.274.684-.274t.698.274q.287.274.287.687q0 .414-.287.688q-.287.274-.698.274m4.027 0q-.414 0-.688-.274q-.274-.274-.274-.688q0-.413.274-.687q.274-.274.688-.274q.413 0 .687.274q.274.274.274.687q0 .414-.274.688q-.274.274-.687.274m4.014 0q-.41 0-.684-.274q-.274-.274-.274-.688q0-.413.274-.687q.274-.274.684-.274q.41 0 .697.274t.287.687q0 .414-.287.688q-.287.274-.697.274M5.962 14.983q-.414 0-.688-.274Q5 14.435 5 14.025t.274-.698q.274-.287.688-.287q.413 0 .687.287q.274.287.274.698q0 .41-.274.684q-.274.274-.687.274m4.013 0q-.41 0-.684-.274q-.274-.274-.274-.684t.274-.698q.274-.287.684-.287t.698.287q.287.287.287.698q0 .41-.287.684q-.287.274-.698.274m4.027 0q-.414 0-.688-.274q-.274-.274-.274-.684t.274-.698q.274-.287.688-.287q.413 0 .687.287t.274.698q0 .41-.274.684q-.274.274-.687.274m4.014 0q-.41 0-.684-.274q-.274-.274-.274-.684t.274-.698q.274-.287.684-.287q.41 0 .697.287t.287.698q0 .41-.287.684q-.287.274-.697.274M5.962 10.96q-.414 0-.688-.274Q5 10.412 5 9.998q0-.413.274-.687q.274-.274.688-.274q.413 0 .687.274q.274.274.274.687q0 .414-.274.688q-.274.274-.687.274m4.013 0q-.41 0-.684-.274q-.274-.274-.274-.688q0-.413.274-.687q.274-.274.684-.274t.698.274q.287.274.287.687q0 .414-.287.688q-.287.274-.698.274m4.027 0q-.414 0-.688-.274q-.274-.274-.274-.688q0-.413.274-.687q.274-.274.688-.274q.413 0 .687.274t.274.687q0 .414-.274.688q-.274.274-.687.274m4.014 0q-.41 0-.684-.274q-.274-.274-.274-.688q0-.413.274-.687q.274-.274.684-.274q.41 0 .697.274t.287.687q0 .414-.287.688q-.287.274-.697.274M5.962 6.942q-.414 0-.688-.274Q5 6.394 5 5.984q0-.41.274-.697T5.962 5q.413 0 .687.287q.274.287.274.697t-.274.684q-.274.274-.687.274m4.013 0q-.41 0-.684-.274q-.274-.274-.274-.684q0-.41.274-.697T9.975 5t.698.287q.287.287.287.697t-.287.684q-.287.274-.698.274m4.027 0q-.414 0-.688-.274q-.274-.274-.274-.684q0-.41.274-.697T14.002 5q.413 0 .687.287t.274.697q0 .41-.274.684q-.274.274-.687.274m4.014 0q-.41 0-.684-.274q-.274-.274-.274-.684q0-.41.274-.697T18.016 5q.41 0 .697.287t.287.697q0 .41-.287.684q-.287.274-.697.274"/></svg>