<svg xmlns="http://www.w3.org/2000/svg" width="1em" height="1em" viewBox="0 0 24 24"><path fill="currentColor" d="M6 18.385v-9.77q0-.666.475-1.14Q6.949 7 7.615 7h2.289V4.577q0-.31.23-.54q.23-.23.54-.23h2.653q.31 0 .54.23q.23.23.23.54V7h2.288q.666 0 1.14.475q.475.474.475 1.14v9.77q0 .666-.475 1.14q-.474.475-1.14.475v.5q0 .213-.146.356q-.145.144-.36.144q-.202 0-.316-.16t-.178-.34V20h-6.77v.5q0 .213-.145.356T8.11 21q-.202 0-.317-.16t-.178-.34V20q-.666 0-1.14-.475Q6 19.051 6 18.385M10.904 7h2.192V4.808h-2.192zM12 12.385q1.325 0 2.588-.338T17 11.035v-2.42q0-.269-.173-.442T16.385 8h-8.77q-.269 0-.442.173T7 8.615v2.42q1.15.675 2.413 1.012t2.587.338m-.5 1.5v-.512q-1.185-.086-2.31-.375Q8.065 12.71 7 12.17v6.216q0 .269.173.442t.442.173h8.77q.269 0 .442-.173t.173-.442V12.17q-1.065.54-2.19.83q-1.125.288-2.31.374v.512q0 .212-.144.356t-.357.144t-.356-.144q-.143-.144-.143-.356m.5-1.716"/></svg>