<svg xmlns="http://www.w3.org/2000/svg" width="1em" height="1em" viewBox="0 0 24 24"><path fill="currentColor" d="M3.354 16.894q-.166-.165-.153-.356t.153-.332l4.813-4.87q.46-.478 1.137-.478t1.156.479l2.42 2.426q.174.174.424.174t.442-.174l5.585-5.515H16.5q-.213 0-.357-.143T16 7.748q0-.213.143-.357q.144-.143.357-.143h3.692q.348 0 .578.23q.23.23.23.578v3.692q0 .214-.143.357q-.144.143-.357.143t-.357-.134t-.143-.347V8.956l-5.56 5.56q-.46.459-1.136.459q-.677 0-1.137-.46l-2.42-2.42q-.174-.174-.443-.174t-.442.173l-4.8 4.8q-.16.16-.354.16q-.195 0-.354-.16"/></svg>