<svg xmlns="http://www.w3.org/2000/svg" width="1em" height="1em" viewBox="0 0 24 24"><path fill="currentColor" d="M5 17V5H2.5V4H6v12h15v1zm1.442 3.885q-.613 0-1.037-.424q-.424-.424-.424-1.038q0-.613.424-1.037q.424-.424 1.037-.424q.614 0 1.038.424q.424.424.424 1.037q0 .614-.424 1.038q-.424.424-1.038.424M7.77 14.23V9.769h4.462v4.462zm7 0V9.769h4.462v4.462zm4.748 6.654q-.611 0-1.026-.424q-.414-.424-.414-1.038q0-.613.414-1.037q.415-.424 1.026-.424q.612 0 1.047.424q.436.424.436 1.037q0 .614-.436 1.038q-.435.424-1.047.424"/></svg>