<svg xmlns="http://www.w3.org/2000/svg" width="1em" height="1em" viewBox="0 0 24 24"><path fill="currentColor" d="M12.006 19.479q-.75.5-1.603.76q-.853.261-1.728.261q-.894 0-1.735-.276q-.84-.276-1.615-.726q-.55.325-1.128.557q-.578.232-1.203.35q-.188.032-.341-.109q-.153-.14-.153-.334q0-.214.14-.36t.354-.208q.494-.106.936-.315q.441-.21.86-.485q.237-.161.532-.161q.295 0 .532.161q.638.406 1.358.643q.719.238 1.463.238q.725 0 1.428-.196t1.322-.583q.275-.18.615-.178q.34.003.616.184q.619.386 1.306.58t1.413.193q.788 0 1.527-.262q.738-.263 1.383-.688q.217-.137.44-.13q.223.007.44.15q.42.274.877.49q.458.215.952.34q.214.067.36.22t.146.367q0 .213-.156.356q-.156.144-.369.088q-.6-.12-1.162-.364q-.563-.244-1.088-.544q-.77.45-1.612.726q-.844.276-1.738.276t-1.747-.276q-.853-.276-1.622-.745M2.5 16.962V14.5q0-2.329.899-4.256q.9-1.927 2.457-3.313q1.557-1.387 3.658-2.159Q11.615 4 14 4q.31 0 .638.013t.637.049q.385.055.593.39q.209.335.06.708q-.21.544-.32.992T15.5 7.175q0 1.587 1.12 2.706Q17.737 11 19.324 11H21q.213 0 .357.143q.143.144.143.357t-.143.357Q21.213 12 21 12h-1.675q-2.013 0-3.42-1.406Q14.5 9.188 14.5 7.175q0-.523.117-1.122q.118-.6.295-1.07q-2.408.411-3.91 2.114Q9.5 8.8 9.5 11.02q0 1.362.374 2.395q.374 1.034 1.014 2.01l.69-.418q.218-.143.441-.143t.44.143q.633.419 1.386.694q.753.275 1.53.275t1.53-.294q.753-.294 1.385-.694q.218-.137.438-.13q.22.006.437.143l.666.413q.275.15.572.269q.297.118.597.193q.213.067.357.22q.143.153.143.367q0 .213-.165.347q-.166.133-.36.078q-.537-.12-1.1-.361q-.562-.241-1.15-.586q-.877.539-1.712.8q-.834.26-1.638.26q-.823 0-1.733-.308q-.91-.307-1.617-.752q-.852.514-1.625.784T8.675 17q-.971.006-1.754-.254t-1.596-.748q-.698.412-1.41.65q-.713.237-1.415.314"/></svg>