<svg xmlns="http://www.w3.org/2000/svg" width="1em" height="1em" viewBox="0 0 24 24"><path fill="currentColor" d="M12.006 19.479q-.75.5-1.603.76q-.853.261-1.728.261q-.894 0-1.735-.276q-.84-.276-1.615-.726q-.55.325-1.128.557q-.578.232-1.203.35q-.188.032-.341-.109q-.153-.14-.153-.334q0-.214.14-.36t.354-.208q.494-.106.936-.315q.441-.21.86-.485q.237-.161.532-.161q.295 0 .532.161q.638.406 1.358.643q.719.238 1.463.238q.725 0 1.428-.196t1.322-.583q.275-.18.615-.178q.34.003.616.184q.619.386 1.306.58t1.413.193q.788 0 1.527-.262q.738-.263 1.383-.688q.217-.137.44-.13q.223.007.44.15q.42.274.877.49q.458.215.952.34q.214.067.36.22t.146.367q0 .213-.156.356q-.156.144-.369.088q-.6-.12-1.162-.364q-.563-.244-1.088-.544q-.77.45-1.612.726q-.844.276-1.738.276t-1.747-.276q-.853-.276-1.622-.745M2.5 16.962V14.5q0-2.252.87-4.179q.87-1.927 2.409-3.333q1.538-1.405 3.649-2.197Q11.538 4 14 4q.31 0 .638.013t.637.049q.385.055.593.39q.209.335.06.708q-.21.525-.32.982T15.5 7.175q0 1.587 1.12 2.706Q17.737 11 19.324 11H21q.213 0 .357.143q.143.144.143.357t-.143.357Q21.213 12 21 12h-1.675q-2.013 0-3.42-1.406Q14.5 9.188 14.5 7.175q0-.523.117-1.122q.118-.6.295-1.07q-2.37.411-3.89 2.095Q9.5 8.762 9.5 11.019q0 1.227.326 2.27q.326 1.044 1.062 2.134l.69-.417q.218-.143.441-.143t.44.143q.633.419 1.386.694q.753.275 1.53.275t1.53-.294q.753-.294 1.405-.694q.217-.137.418-.14q.2-.003.418.134l.742.452q.275.15.544.258q.268.109.549.184q.213.067.366.22t.153.367q0 .194-.156.337q-.156.143-.35.088q-.498-.12-1.05-.342q-.554-.222-1.219-.605q-.877.539-1.712.8q-.834.26-1.638.26q-.765 0-1.675-.288q-.91-.289-1.675-.772q-.948.59-1.712.823q-.763.231-1.638.237q-.875.006-1.658-.225q-.782-.23-1.692-.777q-.679.392-1.401.64q-.722.247-1.424.324m6.125-.987q.356 0 .712-.048q.355-.048.596-.13q-.762-1.222-1.097-2.337q-.336-1.116-.336-2.44q0-2.276 1.252-4q1.252-1.724 3.498-2.582v.62q-2.108.13-3.891.885q-1.784.755-3.07 1.982q-1.285 1.227-2.02 2.88q-.734 1.653-.763 3.58v1.269q.373-.087.711-.244q.339-.158.668-.36q.217-.142.44-.136q.223.007.421.15q.264.169.517.303q.254.135.543.26q.425.18.875.264q.45.084.944.084m-.235-5.771"/></svg>