<svg xmlns="http://www.w3.org/2000/svg" width="1em" height="1em" viewBox="0 0 24 24"><path fill="currentColor" d="M11.23 12.538q-.309 0-.539-.23q-.23-.23-.23-.539q0-.31.23-.54q.23-.229.54-.229q.31 0 .54.23q.229.23.229.54q0 .309-.23.539q-.23.23-.54.23m0-6q-.309 0-.539-.23q-.23-.23-.23-.54q0-.31.23-.54q.23-.229.54-.229q.31 0 .54.23q.229.23.229.54q0 .309-.23.539q-.23.23-.54.23m2 3q-.309 0-.539-.23q-.23-.23-.23-.54q0-.31.23-.54q.23-.229.54-.229q.31 0 .54.23q.229.23.229.54q0 .309-.23.539q-.23.23-.54.23m1 3q-.309 0-.539-.23q-.23-.23-.23-.54q0-.31.23-.54q.23-.229.54-.229q.31 0 .54.23q.229.23.229.54q0 .309-.23.539q-.23.23-.54.23m0-6q-.309 0-.539-.23q-.23-.23-.23-.54q0-.31.23-.54q.23-.229.54-.229q.31 0 .54.23q.229.23.229.54q0 .309-.23.539q-.23.23-.54.23m2 3q-.309 0-.539-.23q-.23-.23-.23-.54q0-.31.23-.54q.23-.229.54-.229q.31 0 .54.23q.229.23.229.54q0 .309-.23.539q-.23.23-.54.23m1 3q-.309 0-.539-.23q-.23-.23-.23-.54q0-.31.23-.54q.23-.229.54-.229q.31 0 .54.23q.229.23.229.54q0 .309-.23.539q-.23.23-.54.23m0-6q-.309 0-.539-.23q-.23-.23-.23-.54q0-.31.23-.54q.23-.229.54-.229q.31 0 .54.23q.229.23.229.54q0 .309-.23.539q-.23.23-.54.23m2 3q-.309 0-.539-.23q-.23-.23-.23-.54q0-.31.23-.54q.23-.229.54-.229q.31 0 .54.23q.229.23.229.54q0 .309-.23.539q-.23.23-.54.23m1 3q-.309 0-.539-.23q-.23-.23-.23-.54q0-.31.23-.54q.23-.229.54-.229q.31 0 .54.23q.229.23.229.54q0 .309-.23.539q-.23.23-.54.23m0-6q-.309 0-.539-.23q-.23-.23-.23-.54q0-.31.23-.54q.23-.229.54-.229q.31 0 .54.23q.229.23.229.54q0 .309-.23.539q-.23.23-.54.23M18.93 20q-2.528 0-5.184-1.266q-2.656-1.267-4.944-3.555q-2.27-2.289-3.536-4.935Q4 7.598 4 5.07q0-.45.3-.76T5.05 4h2.473q.408 0 .712.257t.411.658L9.142 7.3q.07.42-.025.733q-.094.313-.332.513L6.59 10.592q.616 1.118 1.361 2.076q.745.959 1.59 1.817q.87.87 1.874 1.62q1.004.749 2.204 1.414l2.139-2.177q.244-.263.549-.347q.305-.083.674-.033l2.104.43q.407.1.661.41q.254.311.254.713v2.435q0 .45-.31.75t-.76.3"/></svg>