<svg xmlns="http://www.w3.org/2000/svg" width="1em" height="1em" viewBox="0 0 24 24"><path fill="currentColor" d="M6.865 20q-.213 0-.356-.143q-.144-.144-.144-.357v-4.77q0-.67.473-1.142t1.143-.473h7.769q.27 0 .442-.173t.173-.442V5.915L14.62 7.662q-.16.16-.354.16q-.194 0-.353-.16q-.16-.16-.15-.364q.01-.204.15-.344L16.3 4.565q.242-.242.565-.242q.323 0 .566.242l2.388 2.389q.16.16.16.354q0 .194-.16.354q-.16.16-.363.15q-.204-.01-.344-.15l-1.747-1.747V12.5q0 .671-.472 1.143t-1.143.472H7.98q-.268 0-.442.173t-.173.443V19.5q0 .213-.143.357Q7.08 20 6.865 20"/></svg>