<svg xmlns="http://www.w3.org/2000/svg" width="1em" height="1em" viewBox="0 0 24 24"><path fill="currentColor" d="M8.692 14.308h6.616v-.166q0-.875-.88-1.354T12 12.308q-1.55 0-2.429.48q-.879.48-.879 1.354zM12 10.692q.633 0 1.066-.433q.434-.434.434-1.067q0-.632-.434-1.066q-.433-.434-1.066-.434t-1.066.434q-.434.434-.434 1.066q0 .633.434 1.067q.433.433 1.066.433M9 20v-2H4.615q-.69 0-1.152-.462Q3 17.075 3 16.385V5.615q0-.69.463-1.152Q3.925 4 4.615 4h14.77q.69 0 1.152.463q.463.462.463 1.152v10.77q0 .69-.462 1.152q-.463.463-1.153.463H15v2zm-4.385-3h14.77q.23 0 .423-.192q.192-.193.192-.423V5.615q0-.23-.192-.423Q19.615 5 19.385 5H4.615q-.23 0-.423.192Q4 5.385 4 5.615v10.77q0 .23.192.423q.193.192.423.192M4 17V5z"/></svg>