<svg xmlns="http://www.w3.org/2000/svg" width="1em" height="1em" viewBox="0 0 24 24"><path fill="currentColor" d="M10.5 12.27q.31 0 .54-.23q.23-.23.23-.54q0-.31-.23-.54q-.23-.23-.54-.23q-.31 0-.54.23q-.23.23-.23.54q0 .31.23.54q.23.23.54.23m3 0q.31 0 .54-.23q.23-.23.23-.54q0-.31-.23-.54q-.23-.23-.54-.23q-.31 0-.54.23q-.23.23-.23.54q0 .31.23.54q.23.23.54.23m-6 0q.31 0 .54-.23q.23-.23.23-.54q0-.31-.23-.54q-.23-.23-.54-.23q-.31 0-.54.23q-.23.23-.23.54q0 .31.23.54q.23.23.54.23m9 0q.31 0 .54-.23q.23-.23.23-.54q0-.31-.23-.54q-.23-.23-.54-.23q-.31 0-.54.23q-.23.23-.23.54q0 .31.23.54q.23.23.54.23M5.675 18l-.492 1.304q-.028.067-.097.113q-.069.045-.154.045h-.073q-.097 0-.17-.075q-.074-.075-.074-.175V18q-.666 0-1.14-.475Q3 17.051 3 16.385v-9.77q0-.666.475-1.14Q3.949 5 4.615 5h14.77q.666 0 1.14.475q.475.474.475 1.14v9.77q0 .667-.475 1.142q-.474.476-1.14.476v1.234q0 .094-.066.16q-.065.065-.16.065h-.094q-.08 0-.148-.041q-.067-.041-.094-.111L18.37 18z"/></svg>