<svg xmlns="http://www.w3.org/2000/svg" width="1em" height="1em" viewBox="0 0 24 24"><path fill="currentColor" d="M4 18.5q-1.458 0-2.479-1.021T.5 15q0-1.406.96-2.41t2.367-1.067h.73l-1.584-1.33H.5v-.885h3.538l2.924 1.73L11.077 9.5h4.111l-2.357-3H10.5v-1h2.82l1.868 2.392l2.966-1.084v1.73H15.7l2.635 3.377q.375-.227.8-.32q.427-.095.865-.095q1.458 0 2.479 1.021T23.5 15q0 1.458-1.021 2.479T20 18.5q-1.458 0-2.479-1.021T16.5 15q0-.713.276-1.341t.778-1.12l-1.192-1.524l-3.593 5.485h-2.577L7.5 14.173v.885q-.029 1.44-1.044 2.441Q5.44 18.5 4 18.5m0-1q1.056 0 1.778-.722T6.5 15q0-1.056-.722-1.778T4 12.5q-1.056 0-1.778.722T1.5 15q0 1.056.722 1.778T4 17.5m7.273-7l-4.485 1.658zh4.25zm8.727 7q1.056 0 1.778-.722T22.5 15q0-1.056-.722-1.778T20 12.5q-1.056 0-1.778.722T17.5 15q0 1.056.722 1.778T20 17.5m-7.78-2l3.303-5h-4.25l-4.485 1.658l3.77 3.342z"/></svg>