<svg xmlns="http://www.w3.org/2000/svg" width="1em" height="1em" viewBox="0 0 24 24"><path fill="currentColor" d="M4.615 19q-.69 0-1.152-.462Q3 18.075 3 17.385V6.615q0-.69.463-1.152Q3.925 5 4.615 5h14.77q.69 0 1.152.463q.463.462.463 1.152v10.77q0 .69-.462 1.152q-.463.463-1.153.463zm7.885-1h6.885q.23 0 .423-.192q.192-.193.192-.423V6.615q0-.23-.192-.423Q19.615 6 19.385 6H12.5zm-6.615-2.5h3.73q.213 0 .357-.144q.143-.144.143-.357t-.143-.356q-.144-.143-.357-.143h-3.73q-.213 0-.357.144q-.143.144-.143.357t.143.356q.144.143.357.143m0-3h3.73q.213 0 .357-.144q.143-.144.143-.357t-.143-.356q-.144-.143-.357-.143h-3.73q-.213 0-.357.144q-.143.144-.143.357t.143.356q.144.143.357.143m0-3h3.73q.213 0 .357-.144q.143-.144.143-.357t-.143-.356Q9.828 8.5 9.615 8.5h-3.73q-.213 0-.357.144q-.143.144-.143.357t.143.356q.144.143.357.143m8.5 6h3.73q.213 0 .357-.144q.143-.144.143-.357t-.143-.356q-.144-.143-.357-.143h-3.73q-.213 0-.357.144q-.143.144-.143.357t.143.356q.144.143.357.143m0-3h3.73q.213 0 .357-.144q.143-.144.143-.357t-.143-.356q-.144-.143-.357-.143h-3.73q-.213 0-.357.144q-.143.144-.143.357t.143.356q.144.143.357.143m0-3h3.73q.213 0 .357-.144q.143-.144.143-.357t-.143-.356q-.144-.143-.357-.143h-3.73q-.213 0-.357.144q-.143.144-.143.357t.143.356q.144.143.357.143"/></svg>