<svg xmlns="http://www.w3.org/2000/svg" width="1em" height="1em" viewBox="0 0 24 24"><path fill="currentColor" d="m2.673 12.063l.58-.826l7.4 6.982q.359.333.808.509q.449.176.914.176q.377 0 .72-.097q.342-.097.624-.28l7.762-4.9v1.12l-7.25 4.57q-.418.262-.888.405t-.993.143q-.654 0-1.267-.249q-.614-.249-1.112-.716zm10.365 4.995q.31 0 .54-.23q.23-.23.23-.54q0-.107-.254-.52l3.473-2.168q.067.238.27.387q.203.148.453.148q.31 0 .54-.23q.23-.23.23-.54q0-.292-.216-.519q-.216-.227-.508-.244h-.038q.044-.07.056-.144q.013-.075.013-.17q0-.31-.23-.539q-.23-.23-.54-.23q-.309 0-.539.23q-.23.23-.23.54q0 .1.252.55l-3.473 2.142q-.067-.225-.266-.372q-.2-.147-.455-.147q-.31 0-.54.23q-.23.23-.23.539q0 .292.216.519q.216.227.546.244q-.044.07-.056.144q-.013.075-.013.15q0 .31.23.54q.23.23.54.23M7.116 6.065l.575-.815q1.914 1.04 3.418 2.749q1.503 1.709 2.073 3.497q1.034-1.258 2.103-1.897q1.068-.64 3.249-1.222q.919-.248 1.622-.48q.703-.234 1.324-.512v1.027q-.598.236-1.25.448q-.65.211-1.421.423q-2.216.588-3.32 1.311q-1.105.723-2.063 2.244q-.067.085-.167.152q-.1.068-.26.068q-.158 0-.288-.11q-.131-.11-.168-.28q-.45-1.862-1.955-3.687q-1.504-1.825-3.472-2.916m-3.863 5.172q1.646 1.56 3.68 3.472q2.035 1.912 3.72 3.51q.358.333.807.509q.449.176.914.176q.377 0 .72-.097q.342-.097.624-.28l3.846-2.424q2.175-1.372 3.916-2.476l-7.762 4.9q-.282.183-.625.28q-.342.097-.719.097q-.465 0-.914-.176q-.45-.176-.807-.509z"/></svg>