<svg xmlns="http://www.w3.org/2000/svg" width="1em" height="1em" viewBox="0 0 24 24"><path fill="currentColor" d="m2.673 12.063l5.02-6.813q1.913 1.04 3.417 2.749q1.503 1.709 2.073 3.497q1.034-1.258 2.103-1.9q1.068-.642 3.249-1.22q.919-.247 1.622-.48q.703-.233 1.324-.511v7.361l-7.25 4.571q-.418.262-.888.405t-.993.143q-.654 0-1.267-.249q-.614-.249-1.112-.716zm10.365 4.995q.31 0 .54-.23q.23-.23.23-.54q0-.107-.254-.52l3.473-2.168q.067.238.27.387q.203.148.453.148q.31 0 .54-.23q.23-.23.23-.54q0-.292-.216-.519q-.216-.227-.508-.244h-.038q.044-.07.056-.144q.013-.075.013-.17q0-.31-.23-.539q-.23-.23-.54-.23q-.309 0-.539.23q-.23.23-.23.54q0 .1.252.55l-3.473 2.142q-.067-.225-.266-.372q-.2-.147-.455-.147q-.31 0-.54.23q-.23.23-.23.539q0 .292.216.519q.216.227.546.244q-.044.07-.056.144q-.013.075-.013.15q0 .31.23.54q.23.23.54.23"/></svg>