<svg xmlns="http://www.w3.org/2000/svg" width="1em" height="1em" viewBox="0 0 24 24"><path fill="currentColor" d="M17.321 20.95q-.396 0-.764-.145q-.369-.145-.622-.4q-.231-.23-.43-.342q-.2-.113-.43-.113h-2.254q-.627 0-1.063-.449q-.437-.45-.437-1.076q0-.344.164-.655q.163-.31.47-.557l.982-.819q.173-.154.278-.346q.106-.192.106-.423v-5.53q0-.155-.038-.299q-.039-.144-.135-.279l-1.55-2.219q-.148-.19-.212-.402q-.065-.211-.065-.446q0-.627.437-1.063q.436-.437 1.063-.437h5q.627 0 1.06.424q.434.424.434 1.051q0 .221-.07.437q-.072.215-.2.425l-1.55 2.23q-.097.116-.135.27q-.039.153-.039.307v5.581q0 .212.077.385q.077.173.23.327l.957.975q.346.326.541.74q.195.415.195.848q0 .846-.577 1.423q-.577.577-1.423.577M9.05 19.746q-.16.087-.341.13q-.182.043-.367.043q-.702 0-1.188-.483q-.487-.484-.487-1.161V9.348q0-.211-.038-.404q-.039-.192-.135-.365L4.821 5.077q-.067-.154-.11-.314q-.044-.16-.044-.319q0-.627.437-1.06q.436-.434 1.063-.434h3.5v1.77q0 .095.068.163q.067.067.163.067h.77q.626 0 1.063.437q.436.436.436 1.063q0 .252-.067.47t-.221.428l-.866 1.12q-.173.23-.26.5q-.086.269-.086.557v4.5q0 .135.02.26q.019.125.057.26q.039.134.087.25q.048.115.125.23l.94 1.433q.123.19.197.399q.074.208.074.443q0 .437-.23.787q-.231.35-.606.534z"/></svg>