<svg xmlns="http://www.w3.org/2000/svg" width="1em" height="1em" viewBox="0 0 24 24"><path fill="currentColor" d="M4.615 19q-.69 0-1.152-.462Q3 18.075 3 17.385V6.615q0-.69.463-1.152Q3.925 5 4.615 5h14.77q.69 0 1.152.463q.463.462.463 1.152v10.77q0 .69-.462 1.152q-.463.463-1.153.463zM12 12q-.348 0-.578-.23q-.23-.23-.23-.578t.23-.578q.23-.23.578-.23t.578.23q.23.23.23.578t-.23.578q-.23.23-.578.23m0-4.038q-1.287 0-2.259.89q-.972.892-.972 2.421q0 .894.687 1.985q.686 1.09 2.01 2.302q.13.105.264.158t.27.053q.137 0 .27-.053t.265-.158q1.323-1.212 2.01-2.302q.686-1.09.686-1.985q0-1.529-.972-2.42T12 7.962"/></svg>