<svg xmlns="http://www.w3.org/2000/svg" width="1em" height="1em" viewBox="0 0 24 24"><path fill="currentColor" d="M5 4v6.365v-.057V20zv4zm2.5 9.5h3.271q.16-.262.34-.514q.18-.253.374-.486H7.5zm0 4h2.454q-.03-.244-.03-.487q0-.244.01-.513H7.5zM4 21V3h9.5L18 7.5v3.05q-.27-.067-.51-.116q-.24-.05-.49-.069V8h-4V4H5v16h5.848q.16.287.34.537q.181.25.393.463zm12.308-8.308q1.67 0 2.835 1.165t1.165 2.835q0 1.671-1.165 2.836q-1.164 1.164-2.835 1.164t-2.836-1.164q-1.164-1.165-1.164-2.836q0-1.67 1.164-2.835t2.836-1.165m0 6.846q.226 0 .38-.154t.154-.38t-.154-.38q-.154-.155-.38-.155t-.38.154q-.155.155-.155.38t.154.381q.155.154.38.154m-.372-1.784h.746v-.173q0-.294.15-.478t.35-.384q.35-.3.55-.613q.2-.314.2-.782q0-.68-.451-1.117q-.451-.438-1.163-.438q-.546 0-1.008.338q-.463.337-.663.874l.685.273q.113-.3.37-.525q.257-.225.607-.225q.41 0 .644.205q.233.205.233.615q0 .301-.17.498q-.169.197-.369.397q-.15.15-.293.32q-.143.169-.268.336q-.075.125-.113.285q-.037.16-.037.317z"/></svg>