<svg xmlns="http://www.w3.org/2000/svg" width="1em" height="1em" viewBox="0 0 24 24"><path fill="currentColor" d="m19.479 20.9l-2.57-2.563q-1.03.784-2.269 1.224q-1.238.439-2.62.439q-1.664 0-3.119-.626q-1.455-.626-2.542-1.713q-1.088-1.088-1.714-2.543Q4.02 13.663 4.02 12q0-1.402.45-2.63q.448-1.23 1.233-2.241L3.094 4.52q-.146-.146-.156-.347q-.01-.2.156-.366q.166-.166.357-.166t.357.166l16.384 16.384q.146.146.156.345q.01.198-.156.363q-.165.165-.356.165t-.357-.165m-7.46-1.9q1.17 0 2.228-.376q1.059-.376 1.924-1.026l-9.77-9.77q-.65.885-1.015 1.934q-.367 1.05-.367 2.238q0 2.925 2.038 4.963T12.019 19m3.346-10.538q-.213 0-.356-.144t-.144-.356q0-.214.144-.357q.143-.143.356-.143h1.981q-1.044-1.15-2.41-1.806Q13.572 5 12.02 5q-.77 0-1.544.157t-1.456.508q-.182.08-.375.032q-.192-.047-.29-.23t-.041-.387q.056-.205.239-.278q.8-.389 1.696-.595Q11.144 4 12.02 4q1.723 0 3.282.712q1.559.711 2.718 1.984V4.808q0-.214.144-.357q.143-.143.356-.143q.214 0 .357.143t.143.357v2.846q0 .348-.23.578q-.23.23-.577.23zm-3.346.611q-.213 0-.356-.143t-.144-.357V7.5q0-.213.144-.357T12.019 7q.214 0 .357.143q.143.144.143.357v1.073q0 .214-.143.357t-.357.143m6.475 6.585q-.177-.131-.204-.32t.077-.396q.171-.315.3-.719q.13-.404.198-.738q.068-.227.232-.353q.165-.126.372-.095q.233.03.339.218t.044.408q-.1.466-.228.995q-.128.529-.426.873q-.142.206-.335.231q-.192.026-.369-.104"/></svg>