<svg xmlns="http://www.w3.org/2000/svg" width="1em" height="1em" viewBox="0 0 24 24"><path fill="currentColor" d="M8 19q-.213 0-.356-.144q-.144-.144-.144-.357q0-.212.144-.356Q7.788 18 8 18h8q.213 0 .356.144t.144.357q0 .212-.144.356Q16.213 19 16 19zm4-3.385q-.213 0-.357-.143q-.143-.144-.143-.357V6.883L8.715 9.662q-.14.14-.331.133q-.192-.007-.341-.153q-.137-.134-.137-.34t.14-.348l3.389-3.389q.13-.13.27-.183q.139-.053.298-.053q.159 0 .295.053q.137.053.267.183l3.408 3.408q.14.14.143.332q.003.191-.143.34q-.134.138-.34.138t-.348-.14L12.5 6.882v8.232q0 .213-.144.357q-.144.143-.357.143"/></svg>