<svg xmlns="http://www.w3.org/2000/svg" width="1em" height="1em" viewBox="0 0 24 24"><path fill="currentColor" d="M6.615 19q-.69 0-1.152-.462Q5 18.075 5 17.385v-1.923q0-.214.143-.357q.144-.143.357-.143t.357.143q.143.143.143.357v1.923q0 .23.192.423q.193.192.423.192h10.77q.23 0 .423-.192q.192-.193.192-.423v-1.923q0-.214.143-.357q.144-.143.357-.143t.357.143q.143.143.143.357v1.923q0 .69-.462 1.152q-.463.463-1.153.463zM11.5 6.927L9.529 8.898q-.146.146-.347.153q-.201.007-.367-.159q-.16-.165-.162-.354q-.003-.188.162-.353l2.62-2.62q.13-.13.267-.183q.136-.053.298-.053t.298.053q.137.053.267.183l2.62 2.62q.146.146.153.344q.006.198-.153.363q-.166.166-.357.169q-.191.002-.357-.163L12.5 6.927v8.15q0 .213-.143.357q-.144.143-.357.143t-.357-.143q-.143-.144-.143-.357z"/></svg>