<svg xmlns="http://www.w3.org/2000/svg" width="1em" height="1em" viewBox="0 0 24 24"><path fill="currentColor" d="M14.865 6.73q-.212 0-.356-.143t-.144-.357q0-.213.144-.356t.356-.143h6q.213 0 .357.144q.143.144.143.356q0 .213-.143.357q-.144.143-.357.143zm0 3.77q-.212 0-.356-.144T14.365 10t.144-.356q.144-.143.356-.143h6q.213 0 .357.144q.143.144.143.357t-.143.356q-.144.143-.357.143zm0 3.77q-.212 0-.356-.145q-.144-.144-.144-.356q0-.213.144-.356q.144-.144.356-.144h6q.213 0 .357.144q.143.144.143.357t-.143.356q-.144.143-.357.143zm-6.995-.655q-.928 0-1.582-.649q-.653-.65-.653-1.577q0-.927.649-1.581q.65-.654 1.577-.654q.927 0 1.581.65q.654.648.654 1.576t-.65 1.582q-.648.653-1.576.653m-5.235 4.423v-.323q0-.326.163-.622q.164-.295.44-.474q1.049-.598 2.2-.916q1.15-.318 2.427-.318q1.277 0 2.428.318t2.2.916q.276.18.44.474q.163.296.163.622v.323q0 .344-.232.576q-.232.232-.576.232H3.442q-.343 0-.575-.232q-.232-.232-.232-.576m1.034-.5v.308h8.393v-.308q-.99-.557-2.052-.855q-1.062-.298-2.145-.298q-1.082 0-2.144.298q-1.061.298-2.052.855m4.196-4.923q.502 0 .867-.364q.364-.364.364-.866t-.364-.867q-.365-.364-.867-.364T7 10.518q-.364.365-.364.867t.364.866q.364.364.866.364m0 5.231"/></svg>