<svg xmlns="http://www.w3.org/2000/svg" width="1em" height="1em" viewBox="0 0 24 24"><path fill="currentColor" d="M14.365 6.73v-1h7v1zm0 3.77v-1h7v1zm0 3.77v-1h7v1zm-6.495-.655q-.928 0-1.582-.649q-.653-.65-.653-1.577q0-.927.649-1.581q.65-.654 1.577-.654q.927 0 1.581.65q.654.648.654 1.576t-.65 1.582q-.648.653-1.576.653m-5.235 5.231v-1.13q0-.327.163-.623q.164-.295.44-.474q1.049-.598 2.2-.916q1.15-.318 2.427-.318q1.277 0 2.428.318t2.2.916q.276.18.44.474q.163.296.163.622v1.131zm1.034-1.308v.308h8.393v-.308q-.99-.557-2.052-.855q-1.062-.298-2.145-.298q-1.082 0-2.144.298q-1.061.298-2.052.855m4.196-4.923q.502 0 .867-.364q.364-.364.364-.866t-.364-.867q-.365-.364-.867-.364T7 10.518q-.364.365-.364.867t.364.866q.364.364.866.364m0 5.231"/></svg>