<svg xmlns="http://www.w3.org/2000/svg" width="1em" height="1em" viewBox="0 0 24 24"><path fill="currentColor" d="M7.615 18.615q-.84-.211-1.612-.307q-.772-.096-1.618-.096h-.847v-1.424h.847q.846 0 1.618-.096q.772-.096 1.612-.307zm1 0v-2.23h12.231v2.23zM10.5 18q.2 0 .35-.15t.15-.35q0-.2-.15-.35T10.5 17q-.2 0-.35.15t-.15.35q0 .2.15.35t.35.15m7.577-3v-1.3q0-.898-.575-1.468t-1.375-.57h-1.55q-1.13 0-1.933-.819q-.802-.818-.802-1.993q0-1.11.802-1.884q.802-.774 1.933-.774v.885q-.75 0-1.3.502t-.55 1.267q0 .766.55 1.348t1.3.583h1.55q1.17 0 2.002.833q.833.832.833 2.01V15zm1.885 0v-2.25q0-1.65-1.15-2.696q-1.15-1.046-2.85-1.046v-.885q.75 0 1.28-.53q.531-.531.531-1.281q0-.789-.53-1.339q-.531-.55-1.281-.55v-.885q1.13 0 1.913.822q.783.82.783 1.952q0 .725-.295 1.245t-.744.844q1.304.422 2.266 1.541q.961 1.12.961 2.808V15z"/></svg>