<svg xmlns="http://www.w3.org/2000/svg" width="1em" height="1em" viewBox="0 0 24 24"><path fill="currentColor" d="M8.615 18.615v-2.23h11.116q.465 0 .79.326q.325.327.325.794t-.325.788q-.325.322-.79.322zM20.405 15q-.192 0-.317-.125q-.126-.126-.126-.317V12.75q0-1.65-1.15-2.696q-1.15-1.046-2.85-1.046q-.192 0-.317-.125t-.126-.317q0-.191.126-.317q.125-.126.317-.126q.75 0 1.28-.53q.531-.531.531-1.281q0-.789-.53-1.339q-.531-.55-1.281-.55q-.192 0-.317-.125t-.126-.316q0-.192.126-.318q.125-.126.317-.126q1.126 0 1.911.822q.785.82.785 1.952q0 .725-.295 1.245t-.744.844q1.304.422 2.266 1.541q.961 1.12.961 2.808v1.808q0 .191-.125.317q-.125.125-.316.125m-1.885 0q-.191 0-.317-.125q-.126-.126-.126-.317V13.7q0-.898-.575-1.468t-1.375-.57h-1.55q-1.13 0-1.933-.819q-.802-.818-.802-1.993q0-1.11.802-1.884q.802-.774 1.933-.774q.192 0 .317.125t.125.317q0 .191-.125.317t-.317.126q-.75 0-1.3.502t-.55 1.267q0 .766.55 1.348t1.3.583h1.55q1.17 0 2.002.833q.833.832.833 2.01v.938q0 .191-.126.317T18.52 15M7.615 18.615q-.84-.211-1.612-.307q-.772-.096-1.618-.096H4.25q-.302 0-.507-.205t-.205-.507q0-.304.219-.476q.218-.172.493-.236h.135q.846 0 1.618-.096q.772-.096 1.612-.307zM10.5 18q.2 0 .35-.15t.15-.35q0-.2-.15-.35T10.5 17q-.2 0-.35.15t-.15.35q0 .2.15.35t.35.15"/></svg>