<svg xmlns="http://www.w3.org/2000/svg" width="1em" height="1em" viewBox="0 0 24 24"><path fill="currentColor" d="M4.808 16q-.348 0-.578-.23q-.23-.23-.23-.578V8.808q0-.348.23-.578q.23-.23.578-.23h14.384q.348 0 .578.23q.23.23.23.578v.665q0 .252-.193.424q-.194.172-.451.16h-.087q-2.16 0-3.685 1.524q-1.526 1.523-1.526 3.688v.087q.011.257-.16.45q-.173.194-.425.194zm14.461-.017l-1.765 1.76q-.14.14-.342.152q-.2.013-.366-.153q-.16-.16-.16-.354q0-.194.16-.353l1.766-1.766l-1.766-1.765q-.14-.14-.15-.344q-.01-.204.15-.364t.354-.16q.194 0 .354.16l1.765 1.766l1.766-1.766q.14-.14.341-.153q.2-.012.366.153q.16.16.16.354t-.16.354l-1.76 1.765l1.76 1.766q.14.14.153.341q.013.2-.153.366q-.16.16-.354.16q-.194 0-.353-.16z"/></svg>