<svg xmlns="http://www.w3.org/2000/svg" width="1em" height="1em" viewBox="0 0 24 24"><path fill="currentColor" d="M12.808 7.615h4.384V5.231h-4.384zM4.23 16.846q.425 0 .712-.287t.288-.713q0-.425-.288-.712t-.712-.288q-.425 0-.713.288t-.287.712q0 .425.287.713t.713.287M12 20.385q-1.996 0-3.744-.735q-1.748-.735-3.116-2.021q-.217.106-.44.161q-.221.056-.46.056q-.855 0-1.432-.577t-.577-1.423q0-.44.161-.806q.162-.365.454-.63q-.309-.725-.505-1.476q-.197-.751-.291-1.546l1-.103q.07.69.249 1.35q.18.66.438 1.275q.125-.045.247-.054q.122-.01.247-.01q.846 0 1.423.577q.577.577.577 1.423q0 .309-.094.584t-.258.518q1.117 1.079 2.558 1.709q1.44.63 3.063.716v-4.95q0-.617-.441-1.059q-.442-.44-1.059-.44q-1.458 0-2.479-1.022T6.5 9.423q0-1.458 1.021-2.479T10 5.924h1.808V4.23h6.384v1.692h1.346v1h-1.346v1.692h-6.384V6.923H10q-1.056 0-1.778.722T7.5 9.423q0 1.056.722 1.778t1.778.722q1.042 0 1.77.73q.73.728.73 1.77v4.95q2.56-.135 4.594-1.57q2.035-1.434 3.066-3.682l-1.168-.606l.458-.87l1.092.555q.15-.456.254-.938q.104-.483.154-.977l1.02.103q-.045.591-.179 1.16q-.133.567-.333 1.11l1.088.544l-.438.871l-1.027-.494q-1.194 2.602-3.63 4.204q-2.434 1.602-5.451 1.602m.808-12.77V5.231zM4.23 15.846"/></svg>