<svg xmlns="http://www.w3.org/2000/svg" width="1em" height="1em" viewBox="0 0 24 24"><path fill="currentColor" d="m10.95 13.43l-1.785-1.784q-.146-.146-.344-.156q-.198-.01-.363.156q-.166.166-.166.357t.166.357l1.927 1.932q.242.243.565.243q.323 0 .565-.243l4.039-4.038q.146-.146.156-.347q.01-.201-.156-.367q-.166-.165-.357-.165t-.357.165zM12 20.843q-.137 0-.287-.025t-.28-.075Q8.48 19.617 6.74 16.926Q5 14.235 5 11.1V6.817q0-.51.295-.923q.295-.413.755-.6l5.385-2q.292-.106.565-.106q.273 0 .565.106l5.385 2q.46.187.755.6q.295.414.295.923V11.1q0 3.135-1.74 5.826t-4.693 3.816q-.13.05-.28.075t-.287.025m0-.942q2.6-.825 4.3-3.3t1.7-5.5V6.798q0-.192-.106-.346q-.106-.154-.298-.23l-5.384-2q-.097-.04-.212-.04t-.212.04l-5.384 2q-.192.076-.298.23Q6 6.606 6 6.798V11.1q0 3.025 1.7 5.5t4.3 3.3m0-7.862"/></svg>