<svg xmlns="http://www.w3.org/2000/svg" width="1em" height="1em" viewBox="0 0 24 24"><path fill="currentColor" d="M3.5 21q-.213 0-.356-.144Q3 20.712 3 20.5t.144-.356Q3.287 20 3.5 20h17q.213 0 .356.144T21 20.5q0 .212-.144.356q-.143.143-.356.143zm5-8q-.417 0-.708-.291q-.292-.291-.292-.707q0-.415.292-.709Q8.083 11 8.5 11h7q.417 0 .708.291q.292.291.292.707q0 .415-.292.709q-.291.293-.708.293zm-5-9q-.213 0-.356-.144T3 3.5q0-.212.144-.356Q3.287 3 3.5 3h17q.213 0 .356.144q.144.144.144.357q0 .212-.144.356Q20.713 4 20.5 4z"/></svg>