<svg xmlns="http://www.w3.org/2000/svg" width="1em" height="1em" viewBox="0 0 24 24"><path fill="currentColor" d="m20.577 15.77l-3.039-3.04v2.118l-1-1V6.615q0-.269-.173-.442T15.923 6H8.69l-1-1h8.233q.69 0 1.153.463t.462 1.152v4.654l3.039-3.038zm-1.18 5.195L2.418 3.988l.708-.707l16.977 16.977zM4.884 5.038L5.846 6h-.692q-.27 0-.442.173q-.174.173-.174.442v10.77q0 .269.174.442t.442.173h10.77q.268 0 .441-.173t.173-.442v-.693l.962.962q-.096.575-.53.96q-.433.386-1.047.386H5.153q-.69 0-1.152-.462t-.463-1.153V6.615q0-.613.386-1.047q.386-.433.96-.53"/></svg>