<svg xmlns="http://www.w3.org/2000/svg" width="1em" height="1em" viewBox="0 0 24 24"><path fill="currentColor" d="M17.502 11.5q-.415 0-.709-.291q-.293-.291-.293-.707q0-.415.291-.709q.291-.293.707-.293q.415 0 .709.291q.293.291.293.707q0 .415-.291.709q-.291.293-.707.293M7.5 14.5v-2h-2v-1h2v-2h1v2h2v1h-2v2zM4.615 17q-.69 0-1.152-.462Q3 16.075 3 15.378V8.615q0-.696.465-1.158q.466-.463 1.162-.463h2.367L8 8H4.615q-.23 0-.423.192Q4 8.385 4 8.615v6.77q0 .23.192.423q.193.192.423.192h9.958L2.74 4.167l.714-.713l17.092 17.092l-.713.714l-4.26-4.26zM21 15.385q0 .475-.225.841t-.608.572L20 16.631V8.615q0-.23-.192-.423Q19.615 8 19.385 8h-8.573l-1-1h9.573q.69 0 1.152.463q.463.462.463 1.16zm-5.594-3.08"/></svg>