<svg xmlns="http://www.w3.org/2000/svg" width="1em" height="1em" viewBox="0 0 24 24"><path fill="currentColor" d="M11.5 19H4.615q-.69 0-1.152-.462Q3 18.075 3 17.385V6.615q0-.69.463-1.152Q3.925 5 4.615 5h14.77q.69 0 1.152.463q.463.462.463 1.152V10.5q0 .213-.143.357q-.144.143-.357.143t-.357-.143T20 10.5V6.615q0-.269-.173-.442T19.385 6H4.615q-.269 0-.442.173T4 6.615v10.77q0 .269.173.442t.442.173H11.5q.213 0 .357.143T12 18.5q0 .213-.143.357q-.144.143-.357.143M10 14.471V9.53q0-.373.32-.547q.32-.174.618.037l3.837 2.471q.292.187.292.51t-.292.51l-3.837 2.47q-.298.212-.618.038t-.32-.547m7.813 5.975l-.07-.504q-.57-.125-.938-.349q-.368-.224-.701-.558l-.498.21q-.137.068-.277.035q-.14-.034-.221-.165l-.158-.269q-.1-.13-.07-.286q.032-.156.157-.262l.401-.34q-.184-.543-.184-1.035q0-.492.184-1.035l-.401-.34q-.125-.106-.156-.261q-.031-.156.069-.287l.158-.27q.08-.13.22-.164q.141-.033.278.036l.498.21q.333-.335.7-.56q.37-.223.938-.348l.071-.504q.031-.156.134-.259q.103-.103.265-.103h.276q.162 0 .265.103q.103.103.134.259l.07.504q.57.125.938.352q.368.227.701.567l.492-.221q.137-.07.28-.036t.224.165l.158.28q.1.131.072.287q-.028.156-.153.262l-.407.34q.184.53.184 1.029q0 .498-.184 1.029l.401.34q.125.106.156.262q.031.155-.069.286l-.158.27q-.08.13-.22.164q-.141.033-.278-.036l-.498-.21q-.333.335-.7.56q-.37.223-.938.348l-.071.504q-.031.156-.134.259q-.103.103-.265.103h-.276q-.162 0-.265-.103q-.103-.103-.134-.259m.537-1.37q.883 0 1.518-.635q.636-.635.636-1.518t-.636-1.518q-.635-.636-1.518-.636t-1.518.636q-.636.635-.636 1.518t.636 1.518q.635.636 1.518.636"/></svg>