<svg xmlns="http://www.w3.org/2000/svg" width="1em" height="1em" viewBox="0 0 24 24"><path fill="currentColor" d="M4.615 19q-.69 0-1.152-.462Q3 18.075 3 17.385V6.615q0-.69.463-1.152Q3.925 5 4.615 5h14.77q.69 0 1.152.463q.463.462.463 1.152v10.77q0 .69-.462 1.152q-.463.463-1.153.463zm0-1h14.77q.23 0 .423-.192q.192-.193.192-.423V6.615q0-.23-.192-.423Q19.615 6 19.385 6H4.615q-.23 0-.423.192Q4 6.385 4 6.615v10.77q0 .23.192.423q.193.192.423.192m12.572-.783l1.876-7.129q.087-.323-.077-.615t-.488-.379L7.858 6.217q-.323-.086-.616.078q-.292.165-.379.488l-1.876 7.07q-.087.324.077.616q.165.293.488.38l10.64 2.934q.323.086.616-.078q.292-.165.379-.488m-.925-.455l-10.268-2.82L7.788 7.22l10.268 2.8zM4 18V6z"/></svg>