<svg xmlns="http://www.w3.org/2000/svg" width="1em" height="1em" viewBox="0 0 24 24"><path fill="currentColor" d="M5.096 19q-.69 0-1.153-.462t-.462-1.153V6.615q0-.69.462-1.152Q4.406 5 5.096 5h10.77q.69 0 1.152.463t.463 1.152v4.654l2.342-2.342q.192-.192.444-.096t.252.369v5.6q0 .273-.252.37q-.252.095-.444-.097l-2.342-2.342v4.654q0 .69-.463 1.152q-.462.463-1.153.463zm0-1h10.77q.269 0 .442-.173t.173-.442V6.615q0-.269-.173-.442T15.865 6H5.096q-.27 0-.442.173t-.173.442v10.77q0 .269.173.442t.442.173m-.615 0V6z"/></svg>