<svg xmlns="http://www.w3.org/2000/svg" width="1em" height="1em" viewBox="0 0 24 24"><path fill="currentColor" d="M4.615 17q-.69 0-1.152-.462Q3 16.075 3 15.378V8.622q0-.697.463-1.16Q3.925 7 4.615 7h14.77q.69 0 1.152.463q.463.462.463 1.159v6.756q0 .697-.462 1.16q-.463.462-1.153.462zM7.5 12.5V14q0 .213.144.356q.144.144.357.144t.356-.144Q8.5 14.213 8.5 14v-1.5H10q.213 0 .356-.144q.144-.144.144-.357t-.144-.356Q10.213 11.5 10 11.5H8.5V10q0-.213-.144-.356q-.144-.144-.357-.144t-.356.144Q7.5 9.788 7.5 10v1.5H6q-.213 0-.356.144q-.144.144-.144.357t.144.356q.144.143.356.143zm6.998 2q.415 0 .709-.291q.293-.291.293-.707q0-.415-.291-.709q-.291-.293-.707-.293q-.415 0-.709.291q-.293.291-.293.707q0 .415.291.709q.291.293.707.293m3-3q.415 0 .709-.291q.293-.291.293-.707q0-.415-.291-.709q-.291-.293-.707-.293q-.415 0-.709.291q-.293.291-.293.707q0 .415.291.709q.291.293.707.293"/></svg>