<svg xmlns="http://www.w3.org/2000/svg" width="1em" height="1em" viewBox="0 0 24 24"><path fill="currentColor" d="M5.615 20q-.69 0-1.152-.462Q4 19.075 4 18.385V5.615q0-.69.463-1.152Q4.925 4 5.615 4h12.77q.69 0 1.152.463q.463.462.463 1.152v12.77q0 .69-.462 1.152q-.463.463-1.153.463zM8 7.5q-.212 0-.356.144T7.5 8v8q0 .213.144.356q.144.144.357.144t.356-.144Q8.5 16.213 8.5 16V8q0-.213-.144-.356q-.144-.144-.357-.144m8 0q-.212 0-.356.144q-.143.144-.143.356v6q0 .213.144.356q.144.144.357.144t.356-.144q.143-.143.143-.356V8q0-.213-.144-.356Q16.212 7.5 16 7.5m-4 0q-.212 0-.356.144q-.143.144-.143.356v3q0 .213.144.356q.144.144.357.144t.356-.144q.143-.143.143-.356V8q0-.213-.144-.356Q12.212 7.5 12 7.5"/></svg>