<svg xmlns="http://www.w3.org/2000/svg" width="1em" height="1em" viewBox="0 0 24 24"><path fill="currentColor" d="m11.192 19.129l-4.884-2.837q-.384-.225-.596-.594q-.212-.37-.212-.804V9.221q0-.434.212-.803q.212-.37.596-.595l4.884-2.836q.385-.218.811-.218t.805.218l4.884 2.836q.384.226.596.595q.212.369.212.803v5.673q0 .435-.212.804q-.212.369-.596.594l-4.884 2.837q-.385.217-.811.217t-.805-.217m.308-.973v-5.831l-5-2.844v5.413q0 .154.077.289q.077.134.23.23zm1 0l4.692-2.743q.154-.096.231-.23q.077-.135.077-.289V9.481l-5 2.844zM3.5 7.5q-.213 0-.357-.144Q3 7.213 3 7V4.615q0-.666.475-1.14Q3.949 3 4.615 3H7q.213 0 .356.144q.144.144.144.357q0 .212-.144.356Q7.213 4 7 4H4.615q-.269 0-.442.173T4 4.615V7q0 .213-.144.356T3.5 7.5M4.615 21q-.666 0-1.14-.475Q3 20.051 3 19.385V17q0-.213.144-.356q.144-.144.357-.144q.212 0 .356.144Q4 16.788 4 17v2.385q0 .269.173.442t.442.173H7q.213 0 .356.144t.144.357q0 .212-.144.356Q7.213 21 7 21zm14.77 0H17q-.213 0-.356-.144q-.144-.144-.144-.357q0-.212.144-.356Q16.788 20 17 20h2.385q.269 0 .442-.173t.173-.442V17q0-.213.144-.356t.357-.144q.212 0 .356.144q.143.144.143.356v2.385q0 .666-.475 1.14q-.474.475-1.14.475M20 7V4.615q0-.269-.173-.442T19.385 4H17q-.213 0-.356-.144T16.5 3.5q0-.212.144-.356T17 3h2.385q.666 0 1.14.475q.475.474.475 1.14V7q0 .213-.144.356q-.144.144-.357.144q-.212 0-.356-.144Q20 7.213 20 7m-8 4.465l4.988-2.882l-4.68-2.698q-.154-.097-.308-.097t-.308.097l-4.68 2.698zm-.5.86"/></svg>