<svg xmlns="http://www.w3.org/2000/svg" width="1em" height="1em" viewBox="0 0 24 24"><path fill="currentColor" d="M18.212 9q-.51 0-.861-.351q-.351-.35-.351-.86V6.211q0-.53.351-.87q.35-.342.86-.342h1.577q.53 0 .87.341q.342.342.342.87v1.577q0 .51-.341.861q-.342.351-.87.351zm0 5q-.51 0-.861-.351Q17 13.3 17 12.79v-1.577q0-.53.351-.87q.35-.342.86-.342h1.577q.53 0 .87.341q.342.342.342.87v1.577q0 .51-.341.861q-.342.351-.87.351zM4.615 19q-.69 0-1.152-.462Q3 18.075 3 17.385V6.615q0-.69.463-1.152Q3.925 5 4.615 5h9.77q.69 0 1.153.463q.462.462.462 1.152v10.77q0 .69-.462 1.152q-.463.463-1.153.463zm13.597 0q-.51 0-.861-.351q-.351-.35-.351-.86v-1.577q0-.53.351-.87q.35-.342.86-.342h1.577q.53 0 .87.341q.342.342.342.87v1.577q0 .51-.341.861q-.342.351-.87.351z"/></svg>