<svg xmlns="http://www.w3.org/2000/svg" width="1em" height="1em" viewBox="0 0 24 24"><path fill="currentColor" d="M8.5 18h10.885q.23 0 .423-.192q.192-.193.192-.423v-2.56H8.5zM4 9.175h3.5V6H4.615q-.23 0-.423.192Q4 6.385 4 6.615zm0 4.675h3.5v-3.675H4zM4.615 18H7.5v-3.175H4v2.56q0 .23.192.423q.193.192.423.192M8.5 13.85H20v-3.675H8.5zm0-4.675H20v-2.56q0-.23-.192-.423Q19.615 6 19.385 6H8.5zM4.615 19q-.69 0-1.152-.462Q3 18.075 3 17.385V6.615q0-.69.463-1.152Q3.925 5 4.615 5h14.77q.69 0 1.152.463q.463.462.463 1.152v10.77q0 .69-.462 1.152q-.463.463-1.153.463z"/></svg>