<svg xmlns="http://www.w3.org/2000/svg" width="1em" height="1em" viewBox="0 0 24 24"><path fill="currentColor" d="M8.885 10.5h-3.27q-.69 0-1.152-.462Q4 9.575 4 8.885v-3.27q0-.69.463-1.152Q4.925 4 5.615 4h3.27q.69 0 1.153.463q.462.462.462 1.152v3.27q0 .69-.462 1.153q-.463.462-1.153.462m-3.27-1h3.27q.269 0 .442-.173t.173-.442v-3.27q0-.269-.173-.442T8.885 5h-3.27q-.269 0-.442.173T5 5.615v3.27q0 .269.173.442t.442.173M8.885 20h-3.27q-.69 0-1.152-.462Q4 19.075 4 18.385v-3.27q0-.69.463-1.152q.462-.463 1.152-.463h3.27q.69 0 1.153.463q.462.462.462 1.152v3.27q0 .69-.462 1.152Q9.575 20 8.885 20m-3.27-1h3.27q.269 0 .442-.173t.173-.442v-3.27q0-.269-.173-.442t-.442-.173h-3.27q-.269 0-.442.173T5 15.115v3.27q0 .269.173.442t.442.173m12.77-8.5h-3.27q-.69 0-1.152-.462q-.463-.463-.463-1.153v-3.27q0-.69.463-1.152Q14.425 4 15.115 4h3.27q.69 0 1.152.463q.463.462.463 1.152v3.27q0 .69-.462 1.153q-.463.462-1.153.462m-3.27-1h3.27q.269 0 .442-.173T19 8.885v-3.27q0-.269-.173-.442T18.385 5h-3.27q-.269 0-.442.173t-.173.442v3.27q0 .269.173.442t.442.173m3.27 10.5h-3.27q-.69 0-1.152-.462q-.463-.463-.463-1.153v-3.27q0-.69.463-1.152q.462-.463 1.152-.463h3.27q.69 0 1.152.463q.463.462.463 1.152v3.27q0 .69-.462 1.152q-.463.463-1.153.463m-3.27-1h3.27q.269 0 .442-.173t.173-.442v-3.27q0-.269-.173-.442t-.442-.173h-3.27q-.269 0-.442.173t-.173.442v3.27q0 .269.173.442t.442.173m-.615-4.5"/></svg>