<svg xmlns="http://www.w3.org/2000/svg" width="1em" height="1em" viewBox="0 0 24 24"><path fill="currentColor" d="M19.615 12Zm-8.982-.385q-.344 0-.576-.232q-.232-.232-.232-.575v-4q0-.344.232-.576Q10.29 6 10.633 6h8.56q.343 0 .575.232q.232.232.232.576v4q0 .343-.232.575q-.232.232-.576.232h-8.56ZM16.117 18q-.343 0-.575-.232q-.232-.232-.232-.576v-4q0-.343.232-.575q.232-.232.575-.232h3.075q.344 0 .576.232q.232.232.232.575v4q0 .344-.232.576q-.232.232-.576.232h-3.075Zm-5.484 0q-.344 0-.576-.232q-.232-.232-.232-.576v-4q0-.343.232-.575q.232-.232.576-.232h3.1q.343 0 .575.232q.232.232.232.575v4q0 .344-.232.576q-.232.232-.575.232h-3.1Zm-5.825 0q-.344 0-.576-.232Q4 17.536 4 17.192V6.808q0-.344.232-.576Q4.464 6 4.808 6h3.44q.343 0 .576.232q.232.232.232.576v10.384q0 .344-.232.576Q8.59 18 8.248 18h-3.44Z"/></svg>