<svg xmlns="http://www.w3.org/2000/svg" width="1em" height="1em" viewBox="0 0 24 24"><path fill="currentColor" d="M4 15.99V7.74q0-.68.475-1.152q.474-.473 1.14-.473h12.77q.666 0 1.14.473Q20 7.06 20 7.74v8.25q0 .681-.475 1.153q-.474.472-1.14.472H5.615q-.666 0-1.14-.472Q4 16.671 4 15.991m1-6.376h2.5v-2.5H5.615q-.269 0-.442.173T5 7.731zm3.5 0H19V7.731q0-.27-.173-.443t-.442-.173H8.5zm0 3.5H19v-2.5H8.5zm0 3.5h9.885q.269 0 .442-.173T19 16v-1.885H8.5zm-2.885 0H7.5v-2.5H5V16q0 .27.173.442t.442.173M5 13.115h2.5v-2.5H5z"/></svg>