<svg xmlns="http://www.w3.org/2000/svg" width="1em" height="1em" viewBox="0 0 24 24"><path fill="currentColor" d="M7.038 16.5h3.924q.212 0 .356-.144t.144-.357t-.144-.356q-.144-.143-.356-.143H7.038q-.212 0-.356.144T6.538 16t.144.356q.144.143.356.143m3-4h3.924q.212 0 .356-.144t.144-.357t-.144-.356q-.144-.143-.356-.143h-3.924q-.212 0-.356.144T9.538 12t.144.356q.144.143.356.143m3-4h3.924q.212 0 .356-.144t.144-.357t-.144-.356q-.144-.143-.356-.143h-3.924q-.212 0-.356.144T12.538 8t.144.356q.144.143.356.143M5.615 20q-.69 0-1.152-.462Q4 19.075 4 18.385V5.615q0-.69.463-1.152Q4.925 4 5.615 4h12.77q.69 0 1.152.463q.463.462.463 1.152v12.77q0 .69-.462 1.152q-.463.463-1.153.463z"/></svg>