<svg xmlns="http://www.w3.org/2000/svg" width="1em" height="1em" viewBox="0 0 24 24"><path fill="currentColor" d="M5.615 18q-.69 0-1.152-.462Q4 17.075 4 16.385v-8.77q0-.69.463-1.152Q4.925 6 5.615 6H7.21q.69 0 1.153.463t.462 1.152v8.77q0 .69-.462 1.152Q7.9 18 7.21 18zm5.595 0q-.69 0-1.153-.462t-.463-1.153v-8.77q0-.69.463-1.152Q10.519 6 11.21 6h1.575q.69 0 1.152.463q.463.462.463 1.152v8.77q0 .69-.463 1.152q-.462.463-1.152.463zm5.575 0q-.69 0-1.153-.462t-.463-1.153v-8.77q0-.69.463-1.152Q16.094 6 16.785 6h1.594q.69 0 1.153.463q.462.462.462 1.152v8.77q0 .69-.462 1.152q-.463.463-1.153.463z"/></svg>