<svg xmlns="http://www.w3.org/2000/svg" width="1em" height="1em" viewBox="0 0 24 24"><path fill="currentColor" d="M9.058 15.75h1.384q.344 0 .576-.232q.232-.232.232-.576v-1.384q0-.344-.232-.576q-.232-.232-.576-.232H9.058q-.344 0-.576.232q-.232.232-.232.576v1.384q0 .344.232.576q.232.232.576.232m0-4.5h1.384q.344 0 .576-.232q.232-.232.232-.576V9.058q0-.344-.232-.576q-.232-.232-.576-.232H9.058q-.344 0-.576.232q-.232.232-.232.576v1.384q0 .344.232.576q.232.232.576.232m4.5 4.5h1.384q.344 0 .576-.232q.232-.232.232-.576v-1.384q0-.344-.232-.576q-.232-.232-.576-.232h-1.384q-.344 0-.576.232q-.232.232-.232.576v1.384q0 .344.232.576q.232.232.576.232m0-4.5h1.384q.344 0 .576-.232q.232-.232.232-.576V9.058q0-.344-.232-.576q-.232-.232-.576-.232h-1.384q-.344 0-.576.232q-.232.232-.232.576v1.384q0 .344.232.576q.232.232.576.232M4.615 19q-.69 0-1.152-.462Q3 18.075 3 17.385V6.615q0-.69.463-1.152Q3.925 5 4.615 5h14.77q.69 0 1.152.463q.463.462.463 1.152v10.77q0 .69-.462 1.152q-.463.463-1.153.463z"/></svg>