<svg xmlns="http://www.w3.org/2000/svg" width="1em" height="1em" viewBox="0 0 24 24"><path fill="currentColor" d="M4 16.385v-8.77q0-.666.497-1.14Q4.994 6 5.692 6h12.616q.698 0 1.195.475q.497.474.497 1.14v8.77q0 .666-.497 1.14q-.497.475-1.195.475H5.692q-.698 0-1.195-.475Q4 17.051 4 16.385M9.94 11.5H19V7.615q0-.23-.212-.423Q18.577 7 18.308 7H9.94zm5.023 5.5h3.345q.269 0 .48-.192q.212-.193.212-.423V12.5h-4.037zM9.94 17h4.023v-4.5H9.94zm-4.248 0H8.94V7H5.692q-.269 0-.48.192Q5 7.385 5 7.615v8.77q0 .23.212.423q.211.192.48.192"/></svg>