<svg xmlns="http://www.w3.org/2000/svg" width="1em" height="1em" viewBox="0 0 24 24"><path fill="currentColor" d="M4.615 19q-.69 0-1.152-.462Q3 18.075 3 17.385V6.615q0-.69.463-1.152Q3.925 5 4.615 5h14.77q.69 0 1.152.463q.463.462.463 1.152v10.77q0 .69-.462 1.152q-.463.463-1.153.463zm0-1h14.77q.23 0 .423-.192q.192-.193.192-.423V6.615q0-.23-.192-.423Q19.615 6 19.385 6H4.615q-.23 0-.423.192Q4 6.385 4 6.615v10.77q0 .23.192.423q.193.192.423.192M4 18V6zm8-2.5q2.258 0 3.879-1.043Q17.5 13.413 17.5 12q0-1.413-1.621-2.457Q14.258 8.5 12 8.5T8.121 9.543Q6.5 10.587 6.5 12q0 1.413 1.621 2.457Q9.742 15.5 12 15.5m0-1q-1.817 0-3.159-.744Q7.5 13.012 7.5 12t1.341-1.756Q10.183 9.5 12 9.5q1.817 0 3.159.744Q16.5 10.988 16.5 12t-1.341 1.756Q13.817 14.5 12 14.5"/></svg>