<svg xmlns="http://www.w3.org/2000/svg" width="1em" height="1em" viewBox="0 0 24 24"><path fill="currentColor" d="m19.723 21.138l-3.892-3.88q-.664.294-1.647.518Q13.2 18 12 18q-3.275 0-5.956-1.79T2.077 11.5q.583-1.325 1.536-2.482q.954-1.156 2.037-1.941l-2.788-2.8l.707-.708l16.862 16.862zM12 15.154q.352 0 .772-.083q.42-.083.657-.215L8.644 10.07q-.132.275-.215.686q-.083.41-.083.743q0 1.529 1.063 2.591Q10.47 15.154 12 15.154m6.608.565l-3.098-3.073q.06-.213.102-.507q.042-.293.042-.639q0-1.529-1.063-2.591Q13.53 7.846 12 7.846q-.346 0-.62.052t-.507.156L8.42 5.619q.871-.329 1.773-.474Q11.094 5 12 5q3.256 0 5.956 1.79t3.967 4.71q-.536 1.206-1.359 2.266q-.822 1.06-1.956 1.953m-3.914-3.869l-3.019-3q.623-.125 1.21.084q.588.208 1.013.64q.444.43.66 1.027q.217.597.136 1.249"/></svg>