<svg xmlns="http://www.w3.org/2000/svg" width="1em" height="1em" viewBox="0 0 24 24"><path fill="currentColor" d="m15.935 18.592l-.714-.707q.621-.622.95-1.405q.329-.784.329-1.642q0-.857-.329-1.64q-.329-.785-.95-1.406l.714-.713q.742.742 1.153 1.708q.412.967.412 2.051q0 1.085-.412 2.049q-.411.963-1.153 1.705M18.337 21l-.714-.713q1.094-1.095 1.678-2.488q.584-1.393.584-2.96q0-1.574-.584-2.964T17.623 9.39l.714-.713q1.234 1.235 1.89 2.817q.658 1.583.658 3.344q0 1.756-.657 3.342q-.657 1.585-1.891 2.82M3 21v-1h4.513v-1.45q-1.13-.402-1.822-1.336Q5 16.281 5 15.18v-1.487h4v-2.807h2.9L9.446 4.238l.952-.37l2.758 7.517v.5H10v2.807H6v.525q0 .875.595 1.557q.595.682 1.536.907l.4.075V21z"/></svg>