<svg xmlns="http://www.w3.org/2000/svg" width="1em" height="1em" viewBox="0 0 24 24"><path fill="currentColor" d="M6.885 15.23q-1.555 0-2.643-1.086q-1.088-1.087-1.088-2.64T4.24 8.862Q5.326 7.77 6.88 7.77q1.552 0 2.643 1.088q1.091 1.089 1.091 2.643q0 .81-.315 1.53q-.315.722-.935 1.2h5.27q-.62-.478-.935-1.2q-.315-.72-.315-1.53q0-1.554 1.086-2.643q1.087-1.088 2.64-1.088q1.552 0 2.644 1.087q1.091 1.087 1.091 2.64t-1.088 2.643q-1.088 1.092-2.643 1.092zm0-1q1.146 0 1.938-.791t.792-1.938q0-1.147-.791-1.94q-.792-.792-1.939-.792t-1.939.792q-.792.792-.792 1.938q0 1.147.792 1.94q.791.792 1.938.792m10.23 0q1.148 0 1.94-.792t.792-1.938q0-1.147-.792-1.94q-.791-.792-1.938-.792t-1.94.792q-.791.792-.791 1.938q0 1.147.791 1.94q.792.792 1.939.792"/></svg>