<svg xmlns="http://www.w3.org/2000/svg" width="1em" height="1em" viewBox="0 0 24 24"><path fill="currentColor" d="M6.75 10.5q.19 0 .316-.125q.126-.126.126-.317v-.116q0-.191-.125-.317q-.125-.125-.316-.125t-.317.125q-.126.126-.126.317v.116q0 .191.125.317q.125.125.316.125m2.5 2q.191 0 .317-.125q.126-.126.126-.317V7.942q0-.191-.125-.317q-.125-.125-.316-.125t-.317.125q-.126.126-.126.317v4.116q0 .191.125.317q.125.125.316.125m2.75 2q.191 0 .317-.125q.126-.126.126-.317V5.942q0-.191-.125-.317q-.125-.125-.316-.125t-.317.125q-.126.126-.126.317v8.116q0 .191.125.317q.125.125.316.125m2.75-2q.191 0 .317-.125q.126-.126.126-.317V7.942q0-.191-.125-.317q-.125-.125-.316-.125t-.317.125q-.126.126-.126.317v4.116q0 .191.125.317q.125.125.316.125m2.5-2q.191 0 .317-.125q.126-.126.126-.317v-.116q0-.191-.125-.317q-.125-.125-.316-.125t-.317.125q-.126.126-.126.317v.116q0 .191.125.317q.125.125.316.125M6.077 17l-1.704 1.704q-.379.379-.876.17Q3 18.668 3 18.134V4.615q0-.69.463-1.152Q3.925 3 4.615 3h14.77q.69 0 1.152.463q.463.462.463 1.152v10.77q0 .69-.462 1.153q-.463.462-1.153.462zm-.427-1h13.735q.23 0 .423-.192q.192-.193.192-.423V4.615q0-.23-.192-.423Q19.615 4 19.385 4H4.615q-.23 0-.423.192Q4 4.385 4 4.615v13.03zM4 16V4z"/></svg>