<svg xmlns="http://www.w3.org/2000/svg" width="1em" height="1em" viewBox="0 0 24 24"><path fill="currentColor" d="M13.51 21.671q.198.056.483.053q.286-.003.478-.064L21 19.5q0-.696-.475-1.137q-.475-.44-1.179-.44h-5.158q-.498 0-1.02-.06t-.978-.22l-1.57-.526q-.162-.055-.237-.211q-.075-.156-.025-.318q.05-.136.202-.207q.152-.071.313-.016l1.433.502q.407.146.893.217q.486.07 1.053.07h1.202q.283 0 .453-.162q.17-.161.17-.455q0-.389-.309-.81q-.308-.421-.716-.565l-6.021-2.21q-.137-.05-.273-.078q-.137-.028-.293-.028h-2.08v6.737zM2.385 19.923q0 .46.308.768q.309.309.769.309h.846q.46 0 .768-.309q.309-.308.309-.768v-6q0-.46-.309-.768q-.309-.309-.768-.309h-.846q-.46 0-.769.309q-.308.308-.308.768zm13.307-8.165q-.298 0-.583-.109q-.286-.109-.528-.326l-2.654-2.546q-.66-.635-1.101-1.422q-.441-.788-.441-1.709q0-1.106.77-1.876q.77-.77 1.876-.77q.819 0 1.49.443q.671.444 1.171 1.076q.5-.632 1.171-1.076Q17.535 3 18.353 3q1.107 0 1.877.77T21 5.646q0 .921-.438 1.709q-.439.787-1.099 1.422l-2.66 2.546q-.241.217-.527.326q-.286.109-.584.109"/></svg>