<svg xmlns="http://www.w3.org/2000/svg" width="1em" height="1em" viewBox="0 0 24 24"><path fill="currentColor" d="M16.14 18.671q-.217.137-.453.267q-.237.131-.48.237q-.182.079-.396 0t-.288-.267q-.073-.183.028-.372q.1-.19.284-.269q.232-.094.43-.21t.387-.274l-4.075-3.675v2.217q0 .348-.324.476t-.568-.116L8 14H5.385q-.348 0-.578-.23q-.23-.23-.23-.578v-2.384q0-.348.23-.578q.23-.23.578-.23h2.084L2.946 5.477q-.14-.14-.15-.344q-.01-.204.15-.364t.354-.16q.194 0 .354.16L19.5 20.615q.14.14.15.345q.01.203-.15.363q-.16.16-.354.16q-.194 0-.354-.16zm2.23-2.006l-.7-.7q.617-.852.954-1.865q.338-1.013.338-2.125q0-2.037-1.11-3.74t-2.979-2.533q-.202-.098-.3-.278q-.098-.18-.011-.362q.092-.208.316-.268q.224-.06.45.039q2.099.979 3.366 2.89q1.268 1.912 1.268 4.252q0 1.306-.42 2.502t-1.173 2.188m-2.773-2.773l-1.25-1.25V9.408q0-.223.215-.322q.214-.1.387.031q.575.545.852 1.325q.277.781.277 1.558q0 .51-.12.988q-.12.477-.36.904m-4.02-4.019L9.862 8.138l.823-.823q.244-.244.568-.116q.324.128.324.476z"/></svg>