<svg xmlns="http://www.w3.org/2000/svg" width="1em" height="1em" viewBox="0 0 24 24"><path fill="currentColor" d="M13.796 20.804q.096.038.173.038t.173-.038l5.816-1.792q-.03-.456-.273-.657q-.243-.201-.55-.201H14.39q-.634 0-1.15-.05q-.515-.05-1.055-.239l-1.714-.552q-.205-.067-.295-.269t-.022-.4q.067-.198.257-.29t.397-.023l1.55.561q.482.164 1.068.21q.586.046 1.449.052h.26q0-.467-.173-.756q-.172-.288-.493-.402l-5.754-2.111q-.057-.02-.105-.03q-.048-.009-.106-.009h-2.1v4.808zm-.256.988l-7.136-2.088q-.142.592-.605.944Q5.337 21 4.79 21h-.77q-.666 0-1.14-.475q-.475-.474-.475-1.14v-4.923q0-.667.474-1.141q.475-.475 1.141-.475h4.463q.14 0 .287.032q.148.032.275.074l5.78 2.117q.536.204.923.733q.388.529.388 1.352h3q.903 0 1.384.565q.481.566.481 1.435q0 .3-.162.507q-.163.206-.475.31l-5.884 1.816q-.217.061-.46.07q-.242.01-.479-.065M3.404 19.385q0 .269.173.442t.442.173h.77q.269 0 .442-.144t.173-.471v-5.539H4.019q-.269 0-.442.173t-.173.443zm12.288-7.627q-.298 0-.585-.109q-.288-.109-.526-.326l-2.654-2.546q-.66-.635-1.101-1.42q-.441-.786-.441-1.71q0-1.103.771-1.875Q11.928 3 13.031 3q.819 0 1.49.443q.671.444 1.171 1.076q.5-.632 1.171-1.076Q17.535 3 18.353 3q1.103 0 1.875.772T21 5.646q0 .925-.438 1.71q-.439.786-1.099 1.42l-2.66 2.547q-.237.217-.525.326q-.288.109-.586.109m.423-1.154l2.572-2.464q.532-.513.923-1.137q.39-.624.39-1.357q0-.684-.48-1.165Q19.037 4 18.353 4q-.6 0-1.076.359q-.476.358-.855.845l-.167.202q-.217.273-.56.273q-.344 0-.567-.273l-.167-.202q-.38-.487-.855-.845Q13.63 4 13.03 4q-.685 0-1.166.48q-.48.482-.48 1.166q0 .733.39 1.357t.923 1.137l2.571 2.464q.173.173.423.173t.423-.173m-.423-4.485"/></svg>