<svg xmlns="http://www.w3.org/2000/svg" width="1em" height="1em" viewBox="0 0 24 24"><path fill="currentColor" d="M7 13.23q.508 0 .87-.36q.36-.362.36-.87t-.36-.87q-.362-.36-.87-.36t-.87.36q-.36.362-.36.87t.36.87q.362.36.87.36M7 17q-2.083 0-3.542-1.457Q2 14.086 2 12.005q0-2.082 1.458-3.543Q4.917 7 7 7q1.833 0 3.134 1.09q1.3 1.089 1.708 2.68h6.389V17h-.423q-.344 0-.576-.232q-.232-.232-.232-.576v-2.961h-5.158q-.407 1.59-1.708 2.68Q8.833 17 7 17m13.962.23q-.31 0-.52-.21t-.211-.52q0-.31.21-.52t.52-.21q.31 0 .52.21q.211.209.211.52q0 .31-.21.52q-.21.21-.52.21m-.001-2.922q-.213 0-.356-.144t-.143-.356V10.5q0-.213.143-.356q.144-.144.357-.144t.356.144q.144.144.144.356v3.308q0 .212-.144.356t-.357.144"/></svg>