<svg xmlns="http://www.w3.org/2000/svg" width="1em" height="1em" viewBox="0 0 24 24"><path fill="currentColor" d="M19.833 21.26L12.573 14h-1q-.57 1.33-1.8 2.165Q8.542 17 7 17q-2.083 0-3.542-1.458Q2 14.083 2 12q0-1.746 1.07-3.083q1.068-1.336 2.726-1.694L2.74 4.167l.714-.713l17.092 17.092zM17 14.175L15.825 13H17zm2.865 2.865l-1-1H19V13h2v-2h-7.175l-1-1H22v4h-2v3.04zM7 16q1.587 0 2.564-.923q.978-.923 1.257-1.95h.885L6.648 8.069q-1.523.104-2.585 1.236Q3 10.437 3 12q0 1.65 1.175 2.825T7 16m0-2.77q-.508 0-.87-.36q-.36-.362-.36-.87t.36-.87q.362-.36.87-.36t.87.36q.36.362.36.87t-.36.87q-.362.36-.87.36m.356-1.195"/></svg>