<svg xmlns="http://www.w3.org/2000/svg" width="1em" height="1em" viewBox="0 0 24 24"><path fill="currentColor" d="M12 21q-.69 0-1.153-.462q-.462-.463-.462-1.153V12q0-.69.462-1.153q.463-.462 1.153-.462h7.385q.69 0 1.152.462Q21 11.31 21 12v7.385q0 .69-.462 1.152q-.463.463-1.153.463zm1.096-2.192h5.187q.17 0 .241-.14q.07-.141-.034-.276l-1.39-1.81q-.073-.103-.208-.103q-.134 0-.207.104l-1.493 1.975l-.992-1.37q-.073-.103-.208-.103q-.134 0-.207.103l-.897 1.204q-.103.135-.03.275t.238.14M8 16.713q-2.252-.656-3.626-2.511T3 10q0-2.927 2.037-4.963Q7.073 3 10 3q2.346 0 4.201 1.374Q16.056 5.748 16.711 8H12q-1.65 0-2.825 1.175T8 12z"/></svg>