<svg xmlns="http://www.w3.org/2000/svg" width="1em" height="1em" viewBox="0 0 24 24"><path fill="currentColor" d="m21 17.887l-1-1V12q0-.23-.192-.423q-.193-.192-.423-.192h-4.887l-1-1h5.887q.69 0 1.152.462Q21 11.31 21 12zM15.65 8Q15 6.2 13.463 5.1T10 4q-.616 0-1.209.13q-.593.132-1.174.368l-.763-.744q.733-.377 1.524-.566Q9.17 3 10 3q2.354 0 4.205 1.374Q16.055 5.748 16.712 8zm5.133 13.935l-.93-.935H12q-.69 0-1.153-.462q-.462-.463-.462-1.153V11.53L5.254 6.4q-.583.754-.918 1.663Q4 8.973 4 10q0 1.925 1.1 3.463T8 15.65v1.062q-2.252-.656-3.626-2.507T3 10q0-1.221.396-2.313q.396-1.093 1.133-2.012L2.24 3.387l.708-.708l18.548 18.548zm-7.898-3.127l1.415-1.9l1.2 1.65l1.483-1.845l2.094 2.095zM12 20h6.854l-7.47-7.47v6.855q0 .23.193.423q.192.192.423.192m5.252-5.867"/></svg>