<svg xmlns="http://www.w3.org/2000/svg" width="1em" height="1em" viewBox="0 0 24 24"><path fill="currentColor" d="M8 16.712q-2.252-.656-3.626-2.511T3 10q0-1.221.396-2.313q.396-1.093 1.133-2.012L2.594 3.74q-.14-.14-.15-.344q-.01-.204.15-.363q.16-.16.354-.16t.354.16L20.98 20.712q.146.146.147.352q0 .207-.17.378q-.154.154-.331.154t-.33-.154L19.853 21H12q-.69 0-1.153-.462q-.462-.463-.462-1.153V11.53L8.702 9.854q-.344.448-.523.996Q8 11.398 8 12zM10 3q2.346 0 4.201 1.374Q16.056 5.748 16.711 8H12q-.217 0-.4.015q-.183.016-.4.072L6.854 3.754q.733-.377 1.527-.566Q9.175 3 10 3m3.498 7.385h5.887q.69 0 1.152.462Q21 11.31 21 12v5.887zm-.21 8.423h4.374l-1.297-1.302l-.865 1.057l-1.137-1.438q-.038-.058-.115-.058t-.115.058l-1.006 1.36q-.08.105-.025.214q.056.109.186.109"/></svg>