<svg xmlns="http://www.w3.org/2000/svg" width="1em" height="1em" viewBox="0 0 24 24"><path fill="currentColor" d="M3 10q0-2.927 2.037-4.963Q7.073 3 10 3q2.102 0 3.829 1.114t2.56 2.988q.084.196.008.413q-.076.218-.284.297q-.182.078-.384-.007t-.287-.282q-.742-1.598-2.197-2.56Q11.79 4 10 4Q7.5 4 5.75 5.75T4 10q0 1.777.94 3.235q.939 1.457 2.543 2.194q.215.104.302.296q.086.192.019.394q-.073.208-.285.287q-.211.079-.407-.025q-1.866-.827-2.989-2.557Q3 12.094 3 10m9 11q-.69 0-1.153-.462q-.462-.463-.462-1.153V12q0-.69.462-1.153q.463-.462 1.153-.462h7.385q.69 0 1.152.462Q21 11.31 21 12v7.385q0 .69-.462 1.152q-.463.463-1.153.463zm0-1h7.385q.23 0 .423-.192q.192-.193.192-.423V12q0-.23-.192-.423q-.193-.192-.423-.192H12q-.23 0-.423.192q-.192.192-.192.423v7.385q0 .23.192.423q.192.192.423.192m3.192-1.442l-.992-1.37q-.073-.103-.208-.103q-.134 0-.207.103l-.897 1.204q-.103.135-.03.275t.238.14h5.187q.17 0 .241-.14q.07-.14-.034-.275l-1.39-1.81q-.073-.103-.208-.103q-.134 0-.207.104zM9.825 9.825"/></svg>