<svg xmlns="http://www.w3.org/2000/svg" width="1em" height="1em" viewBox="0 0 24 24"><path fill="currentColor" d="M6.5 14.862q1.375-.143 2.747-.214q1.372-.071 2.753-.071t2.753.071q1.372.071 2.747.214L14 10.654l-2.677 3.188l-2-2.4zm-2.538 3.83q-.387.096-.675-.095Q3 18.406 3 17.962V6.077q0-.444.288-.636q.287-.191.674-.095q.488.135 1.262.334t1.79.378q1.015.179 2.26.31Q10.519 6.5 12 6.5t2.716-.132q1.236-.131 2.251-.31q1.016-.18 1.78-.378q.765-.2 1.253-.334q.387-.096.693.095q.307.192.307.636v11.885q0 .444-.307.635t-.693.095q-.488-.134-1.253-.333q-.764-.2-1.78-.397q-1.015-.199-2.25-.33Q13.48 17.5 12 17.5t-2.726.132q-1.245.131-2.26.33q-1.016.198-1.79.397t-1.262.333M4 17.65q1.95-.575 3.963-.862T12 16.5q2.025 0 4.038.288T20 17.65V6.394q-1.95.575-3.963.84Q14.026 7.5 12 7.5t-4.038-.265Q5.95 6.969 4 6.395zm8-5.63"/></svg>