<svg xmlns="http://www.w3.org/2000/svg" width="1em" height="1em" viewBox="0 0 24 24"><path fill="currentColor" d="M11.025 13.47L9.64 11.814q-.05-.075-.317-.136q-.086 0-.174.03q-.087.031-.143.112l-1.88 2.302q-.166.217-.055.447q.112.23.385.2q1.127-.107 2.26-.15q1.132-.043 2.284-.043q1.113 0 2.2.053q1.085.053 2.192.14q.298.03.512-.17q.213-.202-.03-.477l-2.576-3.096q-.03-.056-.298-.156q-.087 0-.174.038q-.088.037-.143.118l-2.043 2.442q-.03.056-.317.156q-.086 0-.164-.038q-.078-.037-.134-.118m-7.063 5.223q-.387.096-.675-.095Q3 18.406 3 17.962V6.077q0-.444.288-.636q.287-.191.674-.095q.488.135 1.262.334t1.79.378q1.015.179 2.26.31Q10.519 6.5 12 6.5t2.716-.132q1.236-.131 2.251-.31q1.016-.18 1.78-.378q.765-.2 1.253-.334q.387-.096.693.095q.307.192.307.636v11.885q0 .444-.307.635t-.693.095q-.488-.134-1.253-.333q-.764-.2-1.78-.397q-1.015-.199-2.25-.33Q13.48 17.5 12 17.5t-2.726.132q-1.245.131-2.26.33q-1.016.198-1.79.397t-1.262.333M4 17.65q1.95-.575 3.963-.862T12 16.5q2.025 0 4.038.288T20 17.65V6.394q-1.95.575-3.963.84Q14.026 7.5 12 7.5t-4.038-.265Q5.95 6.969 4 6.395zm8-5.63"/></svg>