<svg xmlns="http://www.w3.org/2000/svg" width="1em" height="1em" viewBox="0 0 24 24"><path fill="currentColor" d="M4.615 21q-.69 0-1.152-.462Q3 20.075 3 19.385V8.615q0-.69.463-1.152Q3.925 7 4.615 7h4.27l2.55-2.55q.242-.242.565-.242q.323 0 .565.242L15.115 7h4.27q.69 0 1.152.463q.463.462.463 1.152v10.77q0 .69-.462 1.152q-.463.463-1.153.463zm6.597-3.962l-1.427-1.725q-.131-.142-.314-.142t-.313.162l-1.154 1.52q-.162.212-.05.43q.111.217.354.217h7.538q.242 0 .354-.217q.112-.218-.03-.43l-2.02-2.713q-.13-.161-.323-.161t-.323.161zM16.923 13q.471 0 .793-.322q.322-.322.322-.793q0-.472-.322-.794q-.322-.322-.793-.322q-.471 0-.793.322q-.322.322-.322.794q0 .47.322.793q.322.322.793.322m-6.785-6h3.724L12 5.138z"/></svg>