<svg xmlns="http://www.w3.org/2000/svg" width="1em" height="1em" viewBox="0 0 24 24"><path fill="currentColor" d="M6 19q-1.246 0-2.123-.877Q3 17.246 3 16V8q0-1.246.877-2.123Q4.754 5 6 5h12q1.246 0 2.123.877Q21 6.754 21 8v8q0 1.246-.877 2.123Q19.246 19 18 19zM6 8.5h12q.588 0 1.098.202t.902.592V8q0-.825-.587-1.412T18 6H6q-.825 0-1.412.588T4 8v1.294q.392-.39.902-.592Q5.412 8.5 6 8.5m-1.965 2.73l11.336 2.758q.187.05.383.01t.338-.171l3.725-3.15q-.217-.529-.71-.853Q18.616 9.5 18 9.5H6q-.765 0-1.32.491q-.555.492-.645 1.24"/></svg>