<svg xmlns="http://www.w3.org/2000/svg" width="1em" height="1em" viewBox="0 0 24 24"><path fill="currentColor" d="M5.615 20q-.69 0-1.152-.462Q4 19.075 4 18.385V13.5q0-.213.143-.357Q4.287 13 4.5 13t.357.143T5 13.5v4.885q0 .23.192.423q.193.192.423.192H10.5q.213 0 .357.143T11 19.5q0 .213-.143.357q-.144.143-.357.143zm12.77 0H13.5q-.213 0-.357-.143Q13 19.713 13 19.5t.143-.357T13.5 19h4.885q.23 0 .423-.192q.192-.193.192-.423V13.5q0-.213.143-.357T19.5 13q.213 0 .357.143q.143.144.143.357v4.885q0 .69-.462 1.152q-.463.463-1.153.463m-7.173-3.962l2.292-2.898q.13-.161.323-.161t.323.161l2.02 2.714q.142.211.03.429q-.112.217-.354.217H8.308q-.243 0-.354-.217q-.112-.218.05-.43l1.154-1.52q.13-.162.313-.162t.314.142zM4 5.615q0-.69.463-1.152Q4.925 4 5.615 4H10.5q.213 0 .357.143q.143.144.143.357t-.143.357T10.5 5H5.615q-.23 0-.423.192Q5 5.385 5 5.615V10.5q0 .213-.143.357T4.5 11q-.213 0-.357-.143Q4 10.713 4 10.5zm16 0V10.5q0 .213-.143.357q-.144.143-.357.143t-.357-.143T19 10.5V5.615q0-.23-.192-.423Q18.615 5 18.385 5H13.5q-.213 0-.357-.143T13 4.5q0-.213.143-.357Q13.287 4 13.5 4h4.885q.69 0 1.152.463q.463.462.463 1.152m-4.692 4.193q-.477 0-.796-.32q-.32-.319-.32-.796q0-.477.32-.796q.319-.32.796-.32q.477 0 .796.32q.32.32.32.796q0 .477-.32.796q-.32.32-.796.32"/></svg>