<svg xmlns="http://www.w3.org/2000/svg" width="1em" height="1em" viewBox="0 0 24 24"><path fill="currentColor" d="M5.615 21q-.213 0-.356-.144q-.144-.144-.144-.356V4h-1.5q-.212 0-.356-.144T3.115 3.5q0-.212.144-.356T3.615 3h1.683q.358 0 .588.232q.23.232.23.576V20.5q0 .213-.145.356q-.143.144-.356.144M9.5 21q-.666 0-1.14-.475q-.475-.474-.475-1.14V4.615q0-.666.474-1.14Q8.834 3 9.5 3h7.77q.666 0 1.14.475q.475.474.475 1.14v14.77q0 .666-.475 1.14q-.474.475-1.14.475zm-.615-9.206q.392-.39.902-.592q.51-.202 1.098-.202h5q.588 0 1.098.202q.51.202.902.592V4.615q0-.269-.173-.442T17.269 4H9.5q-.27 0-.442.173t-.173.442zM13.385 9q-.633 0-1.067-.434q-.433-.433-.433-1.066t.433-1.066Q12.752 6 13.385 6q.632 0 1.066.434q.434.433.434 1.066t-.434 1.066Q14.017 9 13.385 9m-.5 7.5V18q0 .213.144.356q.143.144.356.144t.356-.144q.144-.144.144-.356v-1.5h1.5q.212 0 .356-.144t.144-.357t-.144-.356q-.144-.143-.356-.143h-1.5V14q0-.213-.144-.356t-.357-.144q-.213 0-.356.144t-.143.356v1.5h-1.5q-.213 0-.357.144q-.143.144-.143.357t.143.356q.144.143.357.143z"/></svg>