<svg xmlns="http://www.w3.org/2000/svg" width="1em" height="1em" viewBox="0 0 24 24"><path fill="currentColor" d="M17.767 8.02q-.78 0-1.39-.611q-.608-.61-.608-1.391q0-.7.46-1.58q.46-.88 1.54-2.15q1.081 1.27 1.54 2.15q.46.88.46 1.58q0 .78-.61 1.39q-.611.611-1.392.611M6.5 21q-1.458 0-2.479-.906Q3 19.188 3 17.731v-4.939q0-.645.302-1.196q.301-.552.842-.906l8.116-5.253l.115.115q.365.365.414.87q.05.505-.21.932l-1.702 2.838H18.5q.213 0 .356.144t.144.357q0 .213-.144.356t-.356.143H9.104l2.483-4.138L4.7 11.519q-.321.202-.51.543q-.19.34-.19.73v4.939q0 1.036.734 1.653Q5.47 20 6.5 20h11q.213 0 .356.144T18 20.5q0 .212-.144.356q-.143.143-.356.143zm6.5-6.538v-1h7.5q.213 0 .356.143t.144.357q0 .213-.144.356q-.144.144-.356.144zm0 3.269v-1h6.5q.213 0 .356.144q.144.144.144.356q0 .213-.144.357q-.144.143-.356.143zm-4.5-3.27"/></svg>