<svg xmlns="http://www.w3.org/2000/svg" width="1em" height="1em" viewBox="0 0 24 24"><path fill="currentColor" d="M18.885 16h-.462q-.212 0-.356-.144t-.144-.357q0-.212.144-.356q.144-.143.356-.143h.462q.212 0 .356.144t.144.357q0 .212-.144.356q-.144.143-.356.143m1-3.5h-1.462q-.212 0-.356-.144T17.923 12t.144-.356q.144-.143.356-.143h1.462q.212 0 .356.144t.144.357t-.144.356q-.144.143-.356.143m1-3.5h-2.462q-.212 0-.356-.144t-.144-.357q0-.212.144-.368t.356-.156h2.462q.212 0 .356.153t.144.369q0 .216-.144.36T20.885 9M8.654 20.192q-.273 0-.483-.163q-.21-.162-.294-.427l-.727-2.537q-1.258-.738-2.05-2.086Q4.308 13.63 4.308 12T5.1 9.021q.792-1.348 2.05-2.086l.727-2.537q.084-.265.294-.427q.21-.163.483-.163h3.308q.273 0 .483.163q.21.162.293.427l.727 2.537q1.258.738 2.05 2.086q.793 1.348.793 2.979t-.793 2.979q-.792 1.348-2.05 2.086l-.727 2.537q-.084.265-.293.427q-.21.163-.483.163zM10.308 17q2.075 0 3.537-1.463T15.308 12q0-2.075-1.463-3.537T10.308 7Q8.233 7 6.77 8.463T5.308 12q0 2.075 1.462 3.538T10.308 17M8.369 6.327q.52-.164.988-.248q.47-.085.95-.085t.951.085q.469.084.988.248l-.438-1.52h-3zm.439 12.865h3l.438-1.519q-.52.164-.988.236q-.469.072-.95.072t-.95-.072q-.47-.072-.989-.236zM8.369 4.808h3.877zm.439 14.384h-.439h3.877z"/></svg>