<svg xmlns="http://www.w3.org/2000/svg" width="1em" height="1em" viewBox="0 0 24 24"><path fill="currentColor" d="M10 3.308q3.429 3.04 5.166 5.583Q16.904 11.435 17 13.57v.046h-1v-.046q-.096-1.806-1.599-4.048T10 4.65Q7.025 7.375 5.513 9.675T4 13.8q0 .892.212 1.696q.211.804.596 1.494v1.706q-.848-.952-1.328-2.194Q3 15.26 3 13.8q0-2.154 1.738-4.764T10 3.308M7.577 21q-.31 0-.54-.23q-.23-.23-.23-.54v-3.845q0-.31.23-.54q.23-.23.54-.23h2.346q.31 0 .54.23q.23.23.23.54v3.846q0 .31-.23.54q-.23.229-.54.229zm.115-.885h2.116V16.5H7.692zm4.616.885v-5.385h3.154q.51 0 .87.361q.36.36.36.87v.962q0 .43-.298.757t-.736.412l.88 2.023h-.942l-.85-2h-1.554v2zm6 0v-5.385h3.154q.51 0 .87.361q.36.36.36.87v.923q0 .51-.36.87q-.36.361-.87.361h-2.27v2zm-5.116-2.885h2.27q.153 0 .25-.086q.096-.087.096-.221v-.962q0-.154-.096-.25q-.097-.096-.25-.096h-2.27zm6 0h2.27q.153 0 .25-.096q.096-.096.096-.25v-.923q0-.154-.096-.25q-.097-.096-.25-.096h-2.27z"/></svg>