<svg xmlns="http://www.w3.org/2000/svg" width="1em" height="1em" viewBox="0 0 24 24"><path fill="currentColor" d="M7.5 20.115h9q.27 0 .442-.173t.173-.442v-1.77q0-.268-.173-.442t-.442-.173h-1.385v-6.23H13.5v-1h3q.27 0 .442-.173t.173-.443V7.5q0-.27-.173-.442t-.442-.173h-9q-.27 0-.442.173t-.173.442v1.77q0 .268.173.442t.442.173h1.385v6.23H10.5v1h-3q-.27 0-.442.173t-.173.443V19.5q0 .27.173.442t.442.173m0 1q-.671 0-1.143-.472T5.885 19.5v-1.77q0-.67.472-1.142t1.143-.473h.385v-5.23H7.5q-.671 0-1.143-.473T5.885 9.27V7.5q0-.671.472-1.143T7.5 5.885h3.192V4.5h-1v-1h4.616v1h-1v1.385H16.5q.671 0 1.143.472t.472 1.143v1.77q0 .67-.472 1.143t-1.143.472h-.385v5.23h.385q.671 0 1.143.473t.472 1.143V19.5q0 .671-.472 1.143t-1.143.472zM12 13.5"/></svg>