<svg xmlns="http://www.w3.org/2000/svg" width="1em" height="1em" viewBox="0 0 24 24"><path fill="currentColor" d="M8.275 11.073q0 1.087.57 1.954q.568.867 1.463 1.327q-.231-.292-.369-.63q-.137-.34-.137-.72q0-.449.174-.839q.174-.39.478-.688L12 9.937l1.543 1.538q.313.3.484.69q.171.39.171.839q0 .38-.127.717q-.128.338-.36.633q.895-.46 1.454-1.327q.56-.867.56-1.954q0-1.002-.48-1.854q-.482-.852-1.282-1.35l-.248.252q-.144.144-.33.232q-.187.087-.404.087q-.46 0-.79-.32q-.331-.32-.331-.782V6.012l-.69.457q-.575.381-1.218 1.028q-.642.647-1.16 1.55q-.517.904-.517 2.026M12 11.19l-.925.9q-.2.2-.294.432q-.094.232-.094.488q0 .538.386.9q.386.363.927.363t.927-.362q.386-.363.386-.9q0-.282-.094-.501q-.094-.22-.294-.42zM6.115 21.5q-.666 0-1.14-.475q-.475-.474-.475-1.14V6q0-1.458 1.021-2.479T8 2.5h8q1.458 0 2.479 1.021T19.5 6v13.885q0 .666-.475 1.14q-.474.475-1.14.475zM9 17.5q.979 0 1.391-.5t1.619-.5q1.205 0 1.646.5q.44.5 1.334.5q.895 0 1.393-.5t2.117-.5V6q0-1.031-.734-1.766T16 3.5H8q-1.031 0-1.766.734T5.5 6v10.5q1.6 0 2.075.5T9 17.5"/></svg>