<svg xmlns="http://www.w3.org/2000/svg" width="1em" height="1em" viewBox="0 0 24 24"><path fill="currentColor" d="M11.062 8.5q-1.414 0-2.749.378q-1.334.378-2.517 1.114l1.07 9.47q.038.23.201.384q.164.154.414.154h9.057q.25 0 .414-.154t.202-.384l1.12-9.962h-.759q-.911 0-1.686-.137t-2.106-.519q-.633-.194-1.306-.269q-.673-.075-1.355-.075m-5.381.433q1.256-.714 2.618-1.073q1.363-.36 2.788-.36q.73 0 1.458.09t1.434.29q1.327.37 2.018.495q.691.125 1.5.125h.886l.482-4.5H5.115zM7.475 21q-.64 0-1.097-.404q-.457-.404-.513-1.025L4.14 4.283q-.067-.52.29-.901Q4.789 3 5.309 3h13.384q.52 0 .877.382q.358.381.29.9l-1.705 15.29q-.056.62-.513 1.024q-.456.404-1.097.404zm3.587-1h6.092H6.865z"/></svg>