<svg xmlns="http://www.w3.org/2000/svg" width="1em" height="1em" viewBox="0 0 24 24"><path fill="currentColor" d="M2.5 17.23v-1.038q.777-.096 1.21-.51q.434-.413 1.64-.413q1.263 0 1.784.5q.52.5 1.535.5q1.027 0 1.547-.5t1.784-.5q1.252 0 1.784.5q.531.5 1.547.5q1.027 0 1.541-.5q.515-.5 1.778-.5q1.206 0 1.64.414q.433.413 1.21.51v1.038q-.906-.116-1.438-.539q-.531-.423-1.412-.423q-.996 0-1.526.5t-1.793.5q-1.252 0-1.784-.5T12 16.27q-1.027 0-1.547.5t-1.784.5q-1.263 0-1.787-.5t-1.532-.5q-.912 0-1.403.423t-1.447.539m0-3.77v-1.038q.777-.096 1.21-.51q.434-.413 1.64-.413q1.252 0 1.778.5t1.541.5q1.027 0 1.547-.5T12 11.5q1.252 0 1.78.5q.53.5 1.54.5q1.026 0 1.546-.5t1.784-.5q1.194 0 1.64.413q.445.414 1.21.51v1.039q-.917-.116-1.443-.539q-.526-.423-1.407-.423q-.996 0-1.526.5t-1.793.5q-1.252 0-1.784-.5T12 12.5q-1.027 0-1.541.5q-.515.5-1.778.5q-1.264 0-1.8-.5q-.535-.5-1.531-.5q-.9 0-1.403.423t-1.447.539m0-3.77V8.654q.777-.096 1.21-.51q.434-.413 1.64-.413q1.252 0 1.778.5t1.541.5q1.027 0 1.547-.5T12 7.73q1.252 0 1.78.5q.53.5 1.54.5q1.026 0 1.546-.5t1.784-.5q1.194 0 1.64.413q.445.414 1.21.51v1.038q-.917-.115-1.443-.538q-.526-.423-1.407-.423q-.996 0-1.526.5t-1.793.5q-1.252 0-1.784-.5T12 8.73q-1.027 0-1.541.5q-.515.5-1.778.5q-1.264 0-1.8-.5q-.535-.5-1.531-.5q-.9 0-1.422.423q-.522.423-1.428.538"/></svg>