<svg xmlns="http://www.w3.org/2000/svg" width="1em" height="1em" viewBox="0 0 24 24"><path fill="currentColor" d="M7.5 14.962q.31 0 .54-.23q.23-.23.23-.54q0-.31-.23-.54q-.23-.229-.54-.229q-.31 0-.54.23q-.23.23-.23.54q0 .309.23.539q.23.23.54.23m1.5-3q.31 0 .54-.23q.23-.23.23-.54q0-.31-.23-.54q-.23-.229-.54-.229q-.31 0-.54.23q-.23.23-.23.54q0 .309.23.539q.23.23.54.23m0 6q.31 0 .54-.23q.23-.23.23-.54q0-.31-.23-.54q-.23-.229-.54-.229q-.31 0-.54.23q-.23.23-.23.54q0 .309.23.539q.23.23.54.23m1.5-3q.31 0 .54-.23q.23-.23.23-.54q0-.31-.23-.54q-.23-.229-.54-.229q-.31 0-.54.23q-.23.23-.23.54q0 .309.23.539q.23.23.54.23m0-6q.31 0 .54-.23q.23-.23.23-.54q0-.31-.23-.54q-.23-.229-.54-.229q-.31 0-.54.23q-.23.23-.23.54q0 .309.23.539q.23.23.54.23m1.5 3q.31 0 .54-.23q.23-.23.23-.54q0-.31-.23-.54q-.23-.229-.54-.229q-.31 0-.54.23q-.23.23-.23.54q0 .309.23.539q.23.23.54.23m0 6q.31 0 .54-.23q.23-.23.23-.54q0-.31-.23-.54q-.23-.229-.54-.229q-.31 0-.54.23q-.23.23-.23.54q0 .309.23.539q.23.23.54.23m1.5-3q.31 0 .54-.23q.23-.23.23-.54q0-.31-.23-.54q-.23-.229-.54-.229q-.31 0-.54.23q-.23.23-.23.54q0 .309.23.539q.23.23.54.23m0-6q.31 0 .54-.23q.23-.23.23-.54q0-.31-.23-.54q-.23-.229-.54-.229q-.31 0-.54.23q-.23.23-.23.54q0 .309.23.539q.23.23.54.23m1.5 3q.31 0 .54-.23q.23-.23.23-.54q0-.31-.23-.54q-.23-.229-.54-.229q-.31 0-.54.23q-.23.23-.23.54q0 .309.23.539q.23.23.54.23m0 6q.31 0 .54-.23q.23-.23.23-.54q0-.31-.23-.54q-.23-.229-.54-.229q-.31 0-.54.23q-.23.23-.23.54q0 .309.23.539q.23.23.54.23m1.5-3q.31 0 .54-.23q.23-.23.23-.54q0-.31-.23-.54q-.23-.229-.54-.229q-.31 0-.54.23q-.23.23-.23.54q0 .309.23.539q.23.23.54.23M11.996 21Q8.998 21 7 18.937Q5 16.873 5 13.8q0-2.154 1.738-4.764T12 3.308q3.525 3.117 5.262 5.728Q19 11.646 19 13.8q0 3.073-2.003 5.137q-2.002 2.063-5 2.063M12 20q2.6 0 4.3-1.763T18 13.8q0-1.825-1.513-4.125T12 4.65Q9.025 7.375 7.513 9.675T6 13.8q0 2.675 1.7 4.438T12 20m0-7.846"/></svg>