<svg xmlns="http://www.w3.org/2000/svg" width="1em" height="1em" viewBox="0 0 24 24"><path fill="currentColor" d="M12.217 18.692q.223-.025.35-.15q.125-.127.125-.311q0-.216-.148-.332q-.148-.116-.363-.091q-1.025.075-2.29-.64q-1.266-.714-1.566-2.39q-.05-.236-.166-.353t-.296-.117q-.196 0-.334.147q-.139.147-.083.44q.387 2.082 1.923 2.98q1.537.898 2.848.817M12 21q-3.002 0-5.001-2.062Q5 16.877 5 13.8q0-2.154 1.738-4.764T12 3.308q3.525 3.117 5.262 5.728Q19 11.646 19 13.8q0 3.077-1.999 5.138Q15.001 21 12 21"/></svg>