<svg xmlns="http://www.w3.org/2000/svg" width="1em" height="1em" viewBox="0 0 24 24"><path fill="currentColor" d="M7 17.527q-1.302 0-2.085.53q-.782.531-1.89.756q-.213.056-.37-.075q-.155-.13-.155-.325q0-.213.153-.356q.153-.144.366-.21q1.016-.276 1.768-.773q.751-.497 2.213-.497q.835 0 1.428.212q.593.213 1.147.475q.554.263 1.117.488q.564.225 1.308.225t1.308-.225q.563-.225 1.117-.488t1.16-.475q.605-.212 1.415-.212q1.462 0 2.213.497q.752.497 1.768.772q.213.067.366.21q.153.144.153.357q0 .195-.156.325q-.156.131-.369.075q-1.108-.225-1.89-.755q-.783-.531-2.085-.531q-.7 0-1.26.212q-.561.213-1.112.475q-.551.263-1.17.488q-.618.225-1.458.225t-1.459-.225q-.618-.225-1.169-.488q-.55-.262-1.099-.475q-.548-.212-1.273-.212m0-3.835q-1.302 0-2.085.531q-.782.53-1.89.756q-.213.056-.37-.075q-.155-.13-.155-.325q0-.214.153-.357t.366-.21q1.016-.275 1.768-.773q.751-.497 2.213-.497q.835 0 1.428.213q.593.212 1.147.475q.554.262 1.117.487q.564.225 1.308.225t1.308-.225q.563-.225 1.117-.487t1.16-.475q.605-.213 1.415-.213q1.462 0 2.213.497q.752.498 1.768.773q.213.067.366.21t.153.357q0 .194-.156.325q-.156.13-.369.075q-1.108-.225-1.89-.756q-.783-.53-2.085-.53q-.706 0-1.266.212t-1.112.475q-.55.262-1.166.487q-.616.225-1.456.225t-1.459-.225q-.618-.225-1.169-.487q-.55-.263-1.099-.475q-.548-.213-1.273-.213m0-3.834q-1.302 0-2.085.53q-.782.531-1.89.756q-.213.056-.37-.075q-.155-.13-.155-.325q0-.213.153-.356q.153-.144.366-.211q1.016-.275 1.768-.772q.751-.497 2.213-.497q.835 0 1.428.212q.593.213 1.147.475q.554.263 1.117.488q.564.225 1.308.225t1.308-.225q.563-.225 1.117-.488t1.16-.475q.605-.212 1.415-.212q1.462 0 2.213.497q.752.497 1.768.772q.213.067.366.21q.153.144.153.357q0 .194-.156.325t-.369.075q-1.108-.225-1.89-.756q-.783-.53-2.085-.53q-.7 0-1.26.212q-.561.213-1.112.475q-.551.263-1.17.488q-.618.225-1.458.225t-1.459-.225q-.618-.225-1.169-.488q-.55-.262-1.099-.475Q7.725 9.858 7 9.858m0-3.835q-1.302 0-2.085.53q-.782.532-1.89.757q-.213.055-.37-.075Q2.5 7.104 2.5 6.91q0-.214.153-.357t.366-.21q1.016-.276 1.768-.773q.751-.497 2.213-.497q.835 0 1.428.213q.593.212 1.147.475q.554.262 1.117.487q.564.225 1.308.225t1.308-.225q.563-.225 1.117-.487t1.16-.475q.605-.213 1.415-.213q1.462 0 2.213.497q.752.497 1.768.772q.213.068.366.21q.153.144.153.358q0 .194-.156.325q-.156.13-.369.075q-1.108-.225-1.89-.756q-.783-.53-2.085-.53q-.7 0-1.26.212q-.561.212-1.112.475q-.551.262-1.17.487q-.618.225-1.458.225t-1.459-.225q-.618-.225-1.169-.487q-.55-.263-1.099-.475Q7.725 6.023 7 6.023"/></svg>