<svg xmlns="http://www.w3.org/2000/svg" width="1em" height="1em" viewBox="0 0 24 24"><path fill="currentColor" d="M2.5 18.888v-.95q.648-.076 1.122-.301q.474-.225.951-.46q.477-.233 1.047-.416q.57-.184 1.38-.184q.835 0 1.428.212q.593.213 1.147.475q.554.263 1.117.488q.564.225 1.308.225t1.308-.225q.563-.225 1.117-.488t1.16-.475q.605-.212 1.415-.212q.835 0 1.392.184q.558.183 1.035.417q.477.234.954.459t1.119.301v.95q-.7-.057-1.222-.282q-.522-.225-1.018-.459q-.497-.234-1.016-.427q-.519-.193-1.244-.193q-.7 0-1.26.212q-.561.213-1.112.475q-.551.263-1.17.488q-.618.225-1.458.225t-1.459-.225q-.618-.225-1.169-.488q-.55-.262-1.099-.475q-.548-.212-1.273-.212q-.7 0-1.232.193t-1.028.427q-.496.234-1.018.459t-1.222.282m0-3.834v-.95q.648-.077 1.122-.302q.474-.225.951-.459q.477-.233 1.047-.417q.57-.184 1.38-.184q.835 0 1.428.213q.593.212 1.147.475q.554.262 1.117.487q.564.225 1.308.225t1.308-.225q.563-.225 1.117-.487t1.16-.475q.605-.213 1.415-.213q.835 0 1.392.184q.558.184 1.035.417q.477.234.954.459t1.119.302v.95q-.7-.058-1.222-.283q-.522-.225-1.018-.459q-.497-.233-1.016-.426q-.519-.194-1.244-.194q-.706 0-1.266.213q-.56.212-1.112.475q-.55.262-1.166.487q-.616.225-1.456.225t-1.459-.225q-.618-.225-1.169-.487q-.55-.263-1.099-.475q-.548-.213-1.273-.213q-.7 0-1.232.194q-.531.193-1.028.427q-.496.233-1.018.458t-1.222.283m0-3.835v-.95q.648-.077 1.122-.302q.474-.225.951-.458q.477-.234 1.047-.418q.57-.183 1.38-.183q.835 0 1.428.212q.593.213 1.147.475q.554.263 1.117.488q.564.225 1.308.225t1.308-.225q.563-.225 1.117-.488t1.16-.475q.605-.212 1.415-.212q.835 0 1.392.183q.558.184 1.035.418q.477.233.954.458t1.119.302v.95q-.7-.057-1.222-.282q-.522-.225-1.018-.46q-.497-.233-1.016-.426q-.519-.193-1.244-.193q-.7 0-1.26.212q-.561.213-1.112.475q-.551.263-1.17.488q-.618.225-1.458.225t-1.459-.225q-.618-.225-1.169-.488q-.55-.262-1.099-.475Q7.725 9.858 7 9.858q-.7 0-1.232.193q-.531.193-1.028.427q-.496.234-1.018.459t-1.222.282m0-3.834v-.95q.648-.077 1.122-.302q.474-.225.951-.459t1.047-.417q.57-.184 1.38-.184q.835 0 1.428.213q.593.212 1.147.475q.554.262 1.117.487q.564.225 1.308.225t1.308-.225q.563-.225 1.117-.487t1.16-.475q.605-.213 1.415-.213q.835 0 1.392.184q.558.183 1.035.417q.477.234.954.459t1.119.302v.95q-.7-.058-1.222-.283q-.522-.225-1.018-.459q-.497-.233-1.016-.427q-.519-.193-1.244-.193q-.7 0-1.26.213q-.561.212-1.112.475q-.551.262-1.17.487q-.618.225-1.458.225t-1.459-.225q-.618-.225-1.169-.487q-.55-.263-1.099-.475Q7.725 6.023 7 6.023q-.7 0-1.232.193t-1.028.427q-.496.234-1.018.459T2.5 7.385"/></svg>