<svg xmlns="http://www.w3.org/2000/svg" width="1em" height="1em" viewBox="0 0 24 24"><path fill="currentColor" d="M16.27 21.775q-.214 0-.367-.146t-.153-.36t.153-.356q.153-.144.366-.144q1.881-.019 3.181-1.329t1.32-3.17q0-.214.145-.37q.147-.156.36-.156t.357.156q.143.156.143.37q0 2.307-1.599 3.906q-1.6 1.599-3.907 1.599M2.731 8.25q-.214 0-.36-.143t-.146-.357q0-2.308 1.609-3.916Q5.442 2.225 7.73 2.225q.213 0 .369.143q.156.144.156.357t-.156.36q-.156.146-.37.146q-1.88.019-3.18 1.329q-1.3 1.31-1.32 3.17q0 .214-.143.367t-.356.153m2.973 10.013q-2.006-2.005-1.996-4.801q.01-2.797 2.034-4.822L7.48 6.896q.182-.183.454-.183q.27 0 .453.183q.552.552.59 1.32q.04.769-.493 1.301l-.812.793q-.242.242-.242.577q0 .336.242.578l.304.304q1.015 1.016.621 2.008q-.394.992-1.198 1.796q-.129.129-.138.316q-.01.188.138.317q.129.129.316.129t.317-.13q1.1-1.08 1.484-2.425q.385-1.345-.913-2.643l-.242-.262l.903-.904q.304-.342.445-.732q.14-.389.167-.816l3.956-3.975q.165-.165.356-.165t.357.165q.166.165.166.357t-.166.357l-4.29 4.29l1.607 1.608l5.68-5.693q.165-.165.353-.165q.189 0 .354.165q.165.166.165.354t-.165.354l-5.692 5.679l1.607 1.608l4.993-4.974q.165-.165.356-.165t.357.165q.166.166.166.357q0 .192-.166.357l-4.992 4.973l1.627 1.627l3.492-3.473q.165-.166.357-.166q.191 0 .357.166q.165.165.165.357t-.165.356l-5.347 5.321q-2.025 2.025-4.83 2.025t-4.831-2.025"/></svg>