<svg xmlns="http://www.w3.org/2000/svg" width="1em" height="1em" viewBox="0 0 24 24"><path fill="currentColor" d="M2.225 7.73q0-2.288 1.609-3.896Q5.442 2.225 7.73 2.225l.019 1.006q-1.88 0-3.2 1.319q-1.32 1.32-1.32 3.2zm3.479 10.533q-2.006-2.005-1.996-4.801q.01-2.797 2.034-4.822l2.193-2.198l.453.454q.552.552.59 1.32q.04.769-.493 1.301l-1.397 1.358l.889.894q.67.67.67 1.614q0 .944-.67 1.613l-.385.385l.633.613l.385-.365q.927-.927.927-2.243q0-1.317-.933-2.25l-.242-.261l.903-.904q.304-.342.445-.732q.14-.389.167-.816l4.315-4.335l.714.714l-4.65 4.65l1.607 1.608l6.033-6.047l.708.708l-6.046 6.033l1.607 1.608l5.352-5.333l.714.713l-5.352 5.333l1.627 1.627l3.852-3.833l.713.714l-5.706 5.68q-2.025 2.025-4.83 2.025t-4.831-2.025m10.565 3.512l-.019-1.006q1.88 0 3.2-1.319q1.32-1.32 1.32-3.2l1.005.02q0 2.288-1.609 3.896q-1.608 1.609-3.897 1.609"/></svg>