<svg xmlns="http://www.w3.org/2000/svg" width="1em" height="1em" viewBox="0 0 24 24"><path fill="currentColor" d="M6.944 13.008h2.8l.64 1.713q.05.137.143.208t.229.071q.223 0 .347-.17q.124-.17.043-.388L8.76 8.188q-.037-.084-.12-.136Q8.558 8 8.473 8h-.22q-.084 0-.166.052q-.083.052-.12.136l-2.405 6.274q-.062.198.043.368q.105.17.328.17q.142 0 .231-.062q.09-.061.14-.198zm.273-.693L8.294 9.3h.1l1.077 3.015zM8.344 18q-2.502 0-4.25-1.749q-1.75-1.75-1.75-4.251q0-2.502 1.75-4.251Q5.841 6 8.343 6q1.989 0 3.562 1.173q1.573 1.173 2.127 3.071l-.435-1.711q-.056-.218.071-.375q.127-.158.344-.158q.162 0 .254.093q.093.094.143.236l1.196 5.156h.05l1.369-5.187q.05-.136.15-.217Q17.272 8 17.41 8h.223q.136 0 .235.08q.1.082.15.218l1.369 5.187h.061l1.196-5.156q.05-.142.162-.236T21.079 8q.217 0 .354.167q.136.168.08.385l-1.55 6.144q-.05.142-.149.223q-.099.081-.24.081h-.224q-.142 0-.244-.084t-.152-.22l-1.414-5.33h-.05l-1.402 5.35q-.05.142-.142.213q-.092.071-.234.071h-.199q-.142 0-.253-.074q-.112-.074-.143-.216l-.888-3.687q.5 2.74-1.29 4.859Q11.148 18 8.343 18"/></svg>