<svg xmlns="http://www.w3.org/2000/svg" width="1em" height="1em" viewBox="0 0 24 24"><path fill="currentColor" d="M19.338 7.712q.16.16.16.353q0 .195-.16.354l-1.013 1.014q-.146.146-.347.155q-.201.01-.366-.155q-.166-.166-.163-.357q.003-.191.168-.357l1.014-1.013q.146-.14.347-.147q.2-.007.36.153M3 19.5q-.213 0-.357-.143Q2.5 19.213 2.5 19t.143-.357Q2.787 18.5 3 18.5h18q.213 0 .357.143q.143.144.143.357t-.143.357q-.144.143-.357.143zm9-14.654q.213 0 .357.143q.143.144.143.357v1.385q0 .213-.143.357q-.144.143-.357.143t-.357-.143q-.143-.144-.143-.357V5.346q0-.213.143-.357q.144-.143.357-.143M4.673 7.7q.16-.16.354-.16t.354.16l1.013 1.013q.146.147.156.348q.01.2-.156.366q-.165.16-.36.16q-.194 0-.353-.166L4.667 8.408q-.14-.146-.147-.347q-.007-.201.153-.361M7.425 14h9.15q-.575-1.35-1.81-2.175Q13.531 11 12 11q-1.53 0-2.765.825T7.425 14m-1.31 1q.347-2.175 2.009-3.588T12 10q2.213 0 3.876 1.413q1.662 1.412 2.009 3.587zM12 14"/></svg>