<svg xmlns="http://www.w3.org/2000/svg" width="1em" height="1em" viewBox="0 0 24 24"><path fill="currentColor" d="M6.154 21.5v-7h-1.5v-7h5.692v7h-1.5v7zM7.5 6.462q-.71 0-1.201-.492q-.491-.491-.491-1.2t.491-1.202q.491-.491 1.201-.491t1.201.491q.491.492.491 1.201q0 .71-.491 1.201q-.491.492-1.201.492m8 15.038V16h-2.423l2.296-8.5h2.254l2.296 8.5H17.5v5.5zm1-15.038q-.71 0-1.201-.492q-.491-.491-.491-1.2t.491-1.202q.491-.491 1.201-.491t1.201.491q.491.492.491 1.201q0 .71-.491 1.201q-.491.492-1.201.492"/></svg>