<svg xmlns="http://www.w3.org/2000/svg" width="1em" height="1em" viewBox="0 0 24 24"><path fill="currentColor" d="M13.096 21.98L12 20.886l1.096-1.097l1.096 1.097zm-3.45-1.5L9 19.836l2.546-2.547l.646.647zm6.45-1.5L15 17.886l1.096-1.097l1.096 1.097zm-9 0L6 17.886l1.096-1.097l1.096 1.097zM7.5 15.5q-2.083 0-3.541-1.459Q2.5 12.583 2.5 10.5q0-1.94 1.308-3.356Q5.115 5.73 7.083 5.512q.742-1.406 2.033-2.21Q10.408 2.5 12 2.5q2.154 0 3.701 1.428q1.547 1.428 1.8 3.559q1.841.111 2.92 1.28Q21.5 9.937 21.5 11.5q0 1.663-1.168 2.832Q19.163 15.5 17.5 15.5zm0-1h10q1.242 0 2.121-.879T20.5 11.5q0-1.242-.879-2.121T17.5 8.5h-1V8q0-1.862-1.32-3.18Q13.863 3.5 12 3.5q-1.354 0-2.466.737q-1.113.736-1.67 1.97l-.116.293H7.45q-1.637.05-2.793 1.207Q3.5 8.863 3.5 10.5q0 1.662 1.17 2.83Q5.837 14.5 7.5 14.5M12 9"/></svg>