<svg xmlns="http://www.w3.org/2000/svg" width="1em" height="1em" viewBox="0 0 24 24"><path fill="currentColor" d="M6.5 18.577q-.333 0-.58-.247q-.247-.247-.247-.58t.247-.58q.247-.247.58-.247t.58.247q.247.247.247.58t-.247.58q-.247.247-.58.247m3 3q-.333 0-.58-.247q-.247-.247-.247-.58t.247-.58q.247-.247.58-.247t.58.247q.247.247.247.58t-.247.58q-.247.247-.58.247m3-3q-.333 0-.58-.247q-.247-.247-.247-.58t.247-.58q.247-.247.58-.247t.58.247q.247.247.247.58t-.247.58q-.247.247-.58.247m6 0q-.333 0-.58-.247q-.247-.247-.247-.58t.247-.58q.247-.247.58-.247t.58.247q.247.247.247.58t-.247.58q-.247.247-.58.247m-3 3q-.333 0-.58-.247q-.247-.247-.247-.58t.247-.58q.247-.247.58-.247t.58.247q.247.247.247.58t-.247.58q-.247.247-.58.247m-8-7.077q-2.083 0-3.541-1.459Q2.5 11.583 2.5 9.5q0-1.94 1.308-3.356Q5.115 4.73 7.083 4.512q.742-1.406 2.033-2.21Q10.408 1.5 12 1.5q2.154 0 3.701 1.428q1.547 1.428 1.8 3.559q1.841.111 2.92 1.28Q21.5 8.937 21.5 10.5q0 1.663-1.168 2.832Q19.163 14.5 17.5 14.5z"/></svg>