<svg xmlns="http://www.w3.org/2000/svg" width="1em" height="1em" viewBox="0 0 24 24"><path fill="currentColor" d="M17.115 19.596V4.385q.595.096.99.549q.395.453.395 1.066v11.98q0 .614-.395 1.067q-.395.453-.99.55M5.731 21.23q-.671 0-1.143-.472q-.473-.472-.473-1.144V4.385q0-.672.473-1.144q.472-.472 1.143-.472H14.5q.671 0 1.143.472t.472 1.144v15.23q0 .672-.472 1.144q-.472.472-1.143.472zM19.5 17.98V6q.394.096.64.399q.245.303.245.716v9.75q0 .414-.246.717q-.245.303-.639.399M5.73 20.23h8.77q.23 0 .423-.193q.192-.192.192-.423V4.385q0-.231-.192-.423q-.192-.193-.423-.193H5.73q-.23 0-.422.193q-.193.192-.193.423v15.23q0 .231.193.423q.192.193.423.193M5.115 3.769v16.462z"/></svg>