<svg xmlns="http://www.w3.org/2000/svg" width="1em" height="1em" viewBox="0 0 24 24"><path fill="currentColor" d="M7 20.5q-1.863 0-3.182-1.318Q2.5 17.863 2.5 16q0-1.479.84-2.63q.839-1.15 2.16-1.597v1.075q-.875.415-1.437 1.267Q3.5 14.967 3.5 16q0 1.442 1.029 2.471T7 19.5q1.442 0 2.471-1.029T10.5 16v-.5h5.394q.143-.321.44-.526q.297-.205.666-.205q.51 0 .87.36q.36.361.36.871t-.36.87q-.36.36-.87.36q-.388 0-.676-.194t-.43-.536h-4.417q-.235 1.84-1.54 2.92Q8.634 20.5 7 20.5m10 0q-1.054 0-1.96-.457q-.907-.456-1.577-1.274h1.406q.408.327.968.53q.56.201 1.163.201q1.442 0 2.471-1.029T20.5 16q0-1.442-1.029-2.471T17 12.5q-.442 0-.82.1q-.376.098-.732.277l-2.8-4.671q-.525.073-.952-.28q-.427-.351-.427-.926q0-.51.36-.87q.361-.36.871-.36t.87.36q.36.36.36.87q0 .183-.057.357q-.058.174-.165.299l2.367 3.977q.258-.05.53-.092q.274-.041.595-.041q1.863 0 3.182 1.318Q21.5 14.137 21.5 16t-1.318 3.182Q18.863 20.5 17 20.5M7 17.23q-.51 0-.87-.36T5.77 16q0-.512.378-.892q.379-.381.994-.314l2.562-4.265q-.84-.656-1.272-1.574Q8 8.037 8 7q0-1.863 1.318-3.182Q10.637 2.5 12.5 2.5t3.182 1.318Q17 5.137 17 7h-1q0-1.442-1.029-2.471T12.5 3.5q-1.442 0-2.471 1.029T9 7q0 1.056.554 1.888t1.515 1.306L8.002 15.32q.108.144.168.321q.06.177.06.36q0 .51-.36.87t-.87.36"/></svg>