<svg xmlns="http://www.w3.org/2000/svg" width="1em" height="1em" viewBox="0 0 24 24"><path fill="currentColor" d="M15.738 11.396L12.642 8.3q-.13-.13-.183-.27t-.053-.298q0-.159.053-.295q.053-.137.183-.268l3.096-3.096q.131-.13.27-.184q.14-.052.298-.052q.16 0 .296.052q.136.053.267.184l3.096 3.096q.131.131.184.27t.053.298q0 .16-.053.296q-.053.136-.184.267l-3.096 3.096q-.13.13-.27.184q-.139.053-.298.053t-.295-.053q-.137-.053-.268-.184M4.615 9.808V5.423q0-.343.233-.575q.232-.233.575-.233h4.385q.343 0 .575.233q.232.232.232.575v4.385q0 .343-.232.575q-.232.232-.575.232H5.423q-.343 0-.575-.232q-.233-.232-.233-.575m8.77 8.769v-4.385q0-.343.232-.575q.232-.232.575-.232h4.385q.343 0 .575.232q.233.232.233.575v4.385q0 .343-.233.575q-.232.233-.575.233h-4.385q-.343 0-.575-.233q-.232-.232-.232-.575m-8.77 0v-4.385q0-.343.233-.575q.232-.232.575-.232h4.385q.343 0 .575.232q.232.232.232.575v4.385q0 .343-.232.575q-.232.233-.575.233H5.423q-.343 0-.575-.233q-.233-.232-.233-.575"/></svg>