<svg xmlns="http://www.w3.org/2000/svg" width="1em" height="1em" viewBox="0 0 24 24"><path fill="currentColor" d="M16.5 11.456q-.31 0-.54-.23q-.23-.23-.23-.54q0-.31.23-.539q.23-.23.54-.23q.31 0 .54.23q.23.23.23.54q0 .31-.23.539q-.23.23-.54.23M14 8.813l-.588-.626q.667-.552 1.454-.873q.788-.32 1.634-.32q.846 0 1.634.32q.787.32 1.454.873L19 8.813q-.538-.442-1.176-.688q-.637-.246-1.324-.246t-1.324.246q-.638.246-1.176.688m-2.1-2.15l-.627-.626q1.067-.99 2.415-1.517q1.347-.526 2.812-.526t2.813.526q1.347.526 2.414 1.517l-.627.626q-.944-.867-2.132-1.325q-1.187-.46-2.468-.46q-1.28 0-2.465.462q-1.185.462-2.135 1.323M18.93 20q-2.528 0-5.184-1.266q-2.656-1.267-4.944-3.555q-2.27-2.289-3.536-4.935Q4 7.598 4 5.07q0-.45.3-.76T5.05 4h2.473q.408 0 .712.257t.411.658L9.142 7.3q.07.42-.025.733q-.094.313-.332.513L6.59 10.592q.616 1.118 1.361 2.076q.745.959 1.59 1.817q.87.87 1.874 1.62q1.004.749 2.204 1.414l2.139-2.177q.244-.263.549-.347q.305-.083.674-.033l2.104.43q.407.1.661.41q.254.311.254.713v2.435q0 .45-.31.75t-.76.3M6.122 9.654l1.92-1.766q.096-.076.124-.211q.03-.135-.01-.25l-.443-2.12q-.039-.153-.135-.23T7.327 5H5.275q-.115 0-.192.077t-.077.192q.029 1.025.32 2.14q.293 1.116.795 2.245m8.45 8.334q1.014.502 2.16.743q1.148.24 2 .257q.115 0 .192-.076q.077-.077.077-.193v-2.007q0-.154-.077-.25q-.077-.097-.23-.135l-1.85-.379q-.116-.038-.203-.01q-.086.03-.182.125zm0 0"/></svg>