<svg xmlns="http://www.w3.org/2000/svg" width="1em" height="1em" viewBox="0 0 24 24"><path fill="currentColor" d="M12 19.577L1.423 8.994q2.19-1.96 4.916-2.977Q9.065 5 12 5t5.67 1.017q2.736 1.018 4.907 2.977l-.708.694q-1.967-1.736-4.557-2.712Q14.722 6 12 6q-2.594 0-4.933.822q-2.338.822-4.161 2.234l9.802 9.807zm9.388-.558l-2.613-2.607q-.354.275-.815.431Q17.498 17 17 17q-1.258 0-2.129-.871T14 14q0-1.258.871-2.129T17 11q1.258 0 2.129.871T20 14q0 .46-.137.902q-.138.442-.375.796l2.608 2.614zM17 16q.83 0 1.415-.585Q19 14.831 19 14t-.585-1.415Q17.831 12 17 12t-1.415.585Q15 13.169 15 14t.585 1.415Q16.169 16 17 16m-5 2.863"/></svg>