<svg xmlns="http://www.w3.org/2000/svg" width="1em" height="1em" viewBox="0 0 24 24"><path fill="currentColor" d="m11.64 19.217l-9.384-9.39q-.166-.165-.248-.383q-.083-.217-.058-.425t.117-.41q.093-.201.27-.342q2.107-1.615 4.557-2.441Q9.344 5 12 5q2.737 0 5.188.867q2.45.868 4.614 2.52q.165.12.241.285q.076.165.082.347q.006.183-.055.356t-.2.313q-1.968-1.736-4.558-2.712Q14.722 6 12 6q-2.594 0-4.933.822q-2.338.822-4.161 2.234l9.448 9.454q.14.14.15.341q.01.2-.15.366q-.166.166-.357.166t-.357-.166m9.395-.552l-2.26-2.253q-.354.275-.815.431Q17.498 17 17 17q-1.258 0-2.129-.871T14 14q0-1.258.871-2.129T17 11q1.258 0 2.129.871T20 14q0 .46-.137.902q-.138.442-.375.796l2.254 2.26q.14.14.153.341q.013.201-.153.366q-.16.16-.354.16q-.194 0-.353-.16M17 16q.83 0 1.415-.585Q19 14.831 19 14t-.585-1.415Q17.831 12 17 12t-1.415.585Q15 13.169 15 14t.585 1.415Q16.169 16 17 16m-5 2.863"/></svg>