<svg xmlns="http://www.w3.org/2000/svg" width="1em" height="1em" viewBox="0 0 24 24"><path fill="currentColor" d="M16.5 11.462q-.31 0-.54-.23q-.23-.23-.23-.54q0-.31.23-.54q.23-.229.54-.229q.31 0 .54.23q.23.23.23.54q0 .309-.23.539q-.23.23-.54.23M14 8.819l-.588-.627q.667-.552 1.454-.872Q15.654 7 16.5 7q.846 0 1.634.32q.787.32 1.454.872L19 8.82q-.538-.442-1.176-.688q-.637-.246-1.324-.246t-1.324.246q-.638.246-1.176.688m-2.1-2.15l-.627-.627q1.067-.99 2.415-1.516Q15.035 4 16.5 4t2.813.526q1.347.526 2.414 1.516l-.627.627q-.944-.867-2.132-1.326q-1.187-.458-2.468-.458q-1.28 0-2.465.461q-1.185.462-2.135 1.323M18.93 20q-2.528 0-5.184-1.266q-2.656-1.267-4.944-3.555q-2.27-2.289-3.536-4.935Q4 7.598 4 5.07q0-.45.3-.76T5.05 4h2.473q.408 0 .712.257t.411.658L9.142 7.3q.07.42-.025.733q-.094.313-.332.513L6.59 10.592q.616 1.118 1.361 2.076q.745.959 1.59 1.817q.87.87 1.874 1.62q1.004.749 2.204 1.414l2.139-2.177q.244-.263.549-.347q.305-.083.674-.033l2.104.43q.407.1.661.41q.254.311.254.713v2.435q0 .45-.31.75t-.76.3"/></svg>