<svg xmlns="http://www.w3.org/2000/svg" width="1em" height="1em" viewBox="0 0 24 24"><path fill="currentColor" d="M12 19.577L1.423 9q2.183-1.963 4.91-2.982Q9.063 5 12 5t5.666 1.018Q20.394 7.037 22.576 9l-1.82 1.821q-.48-.179-.99-.268q-.51-.09-1.03-.09q-2.42 0-4.122 1.702t-1.702 4.123q0 .52.089 1.03q.09.51.268.99zm4.39 0q-.392 0-.66-.265q-.268-.266-.268-.658v-2.697q0-.382.265-.65q.265-.269.658-.269h.096v-1q0-.748.51-1.258t1.259-.51t1.259.51q.51.51.51 1.258v1h.096q.376 0 .63.266q.255.265.255.658v2.696q0 .382-.265.65q-.265.269-.657.269zm.86-4.539h2v-1q0-.425-.288-.712t-.712-.288q-.425 0-.712.288t-.288.712z"/></svg>