<svg xmlns="http://www.w3.org/2000/svg" width="1em" height="1em" viewBox="0 0 24 24"><path fill="currentColor" d="m5 9.625l-1.538 1.198q-.177.135-.366.104q-.188-.03-.323-.208q-.135-.177-.11-.365q.024-.189.195-.323l8.148-6.26q.224-.161.478-.242q.254-.08.519-.08q.264 0 .517.08q.252.08.474.242l8.154 6.26q.171.134.192.326q.022.191-.113.362q-.135.171-.323.202q-.189.03-.36-.104L12 4.294L6 8.87v8.516q0 .269.173.442t.442.173h3.635q.213 0 .356.144t.144.357q0 .212-.144.356q-.143.143-.356.143H6.615q-.666 0-1.14-.475Q5 18.051 5 17.385zm8.788 13.106q-.191 0-.317-.125q-.125-.125-.125-.317t.125-.317q.126-.126.317-.126h1.406q-.823-.713-1.335-1.71q-.513-.996-.513-2.098q0-1.428.758-2.57q.758-1.141 1.992-1.697q.179-.086.33-.01q.15.077.218.237q.068.16.016.332q-.052.172-.273.276q-.952.463-1.554 1.378q-.602.914-.602 2.054q0 .918.445 1.754q.445.837 1.17 1.446v-1.45q0-.191.125-.317t.317-.125q.19 0 .317.125q.126.126.126.317v2.135q0 .343-.232.576q-.233.232-.576.232zm5.968-.425q-.18.086-.333 0q-.154-.087-.221-.246q-.067-.16-.015-.332q.051-.172.273-.276q.97-.489 1.563-1.4q.592-.912.592-2.014q0-.917-.445-1.753q-.445-.837-1.17-1.447v1.45q0 .192-.125.317q-.125.126-.316.126q-.192 0-.318-.126q-.126-.125-.126-.317v-2.134q0-.343.233-.576q.232-.232.575-.232h2.135q.191 0 .317.125q.125.125.125.317q0 .19-.125.317q-.126.126-.317.126h-1.406q.823.713 1.335 1.71q.513.996.513 2.097q0 1.43-.758 2.57q-.757 1.142-1.986 1.698"/></svg>