<svg xmlns="http://www.w3.org/2000/svg" width="1em" height="1em" viewBox="0 0 24 24"><path fill="currentColor" d="M16.39 19.577q-.392 0-.66-.265q-.268-.266-.268-.658v-2.697q0-.382.265-.65q.265-.269.658-.269h.096v-1q0-.748.51-1.258t1.259-.51t1.259.51q.51.51.51 1.258v1h.096q.376 0 .63.266q.255.265.255.658v2.696q0 .382-.265.65q-.265.269-.657.269zm.86-4.539h2v-1q0-.425-.288-.712t-.712-.288q-.425 0-.712.288t-.288.712zM11.997 5q2.463 0 4.773.714t4.312 2.108q.318.222.489.536q.17.314.193.659q.023.345-.101.68q-.125.336-.417.628l-.578.591q-.155.142-.355.154q-.201.013-.367-.153q-.165-.165-.165-.356t.165-.357l.635-.635q.211-.211.182-.51q-.028-.297-.278-.451q-1.88-1.289-4.04-1.948Q14.282 6 12 6t-4.444.66q-2.162.66-4.04 1.948q-.25.154-.28.452q-.028.298.183.51l8.139 8.138q.173.173.442.173t.442-.173l.68-.68q.145-.145.346-.155q.201-.01.367.156q.165.165.165.357t-.165.356l-.698.698q-.243.243-.54.354q-.299.112-.597.112t-.596-.112q-.298-.111-.54-.354l-8.116-8.115q-.267-.267-.391-.609q-.124-.341-.1-.693q.026-.352.191-.662q.165-.311.458-.534q2.007-1.398 4.318-2.113Q9.534 5 11.997 5M12 11.979"/></svg>