<svg xmlns="http://www.w3.org/2000/svg" width="1em" height="1em" viewBox="0 0 24 24"><path fill="currentColor" d="M6.171 19.179q-.165.165-.379.146q-.213-.02-.373-.19q-1.125-1.23-1.772-2.783Q3 14.798 3 13q0-1.863.71-3.506t1.927-2.857Q6.852 5.42 8.494 4.71Q10.137 4 12 4t3.506.71q1.642.711 2.857 1.927q1.216 1.215 1.926 2.857Q21 11.137 21 13q0 1.779-.647 3.342q-.647 1.564-1.772 2.793q-.16.17-.37.193q-.211.022-.376-.143q-.16-.16-.131-.383t.188-.394q.985-1.07 1.546-2.446Q20 14.585 20 13q0-3.35-2.325-5.675T12 5Q8.65 5 6.325 7.325T4 13q0 1.585.552 2.959t1.561 2.443q.16.171.192.391t-.134.386m2.825-2.825q-.165.165-.37.158q-.203-.006-.357-.183q-.594-.679-.931-1.517Q7 13.973 7 13q0-2.077 1.462-3.538Q9.923 8 12 8t3.538 1.462Q17 10.923 17 13q0 .954-.337 1.805q-.338.85-.932 1.524q-.154.171-.358.183t-.37-.152q-.159-.16-.152-.354q.007-.194.141-.371q.46-.539.734-1.207Q16 13.76 16 13q0-1.65-1.175-2.825T12 9q-1.65 0-2.825 1.175T8 13q0 .765.274 1.43q.274.666.734 1.205q.134.177.141.368q.007.191-.153.35M12 14q-.402 0-.701-.299Q11 13.401 11 13t.299-.701Q11.599 12 12 12t.701.299q.299.3.299.701t-.299.701Q12.401 14 12 14"/></svg>