<svg xmlns="http://www.w3.org/2000/svg" width="1em" height="1em" viewBox="0 0 24 24"><path fill="currentColor" d="M12 19.004q-.28 0-.52-.093q-.24-.094-.44-.294l-8.292-8.292q-.248-.248-.37-.556q-.12-.307-.12-.636q0-.368.156-.714q.157-.347.492-.592q2.007-1.398 4.318-2.113Q9.534 5 11.997 5t4.776.714q2.314.715 4.316 2.108q.342.222.507.57q.166.348.166.716q0 .329-.131.649t-.38.568l-.191.192q-.135.142-.329.192q-.193.05-.38-.01q-.384-.118-.794-.177q-.41-.059-.82-.059q-2.422 0-4.123 1.702t-1.702 4.123q0 .41.058.821t.176.795q.056.186.006.379q-.05.192-.187.329q-.205.205-.445.299q-.24.093-.52.093m4.39.573q-.392 0-.66-.265q-.268-.266-.268-.658v-2.697q0-.382.265-.65q.265-.269.658-.269h.096v-1q0-.748.51-1.258t1.259-.51t1.259.51q.51.51.51 1.258v1h.096q.376 0 .63.266q.255.265.255.658v2.696q0 .382-.265.65q-.265.269-.657.269zm.86-4.539h2v-1q0-.425-.288-.712t-.712-.288q-.425 0-.712.288t-.288.712z"/></svg>