<svg xmlns="http://www.w3.org/2000/svg" width="1em" height="1em" viewBox="0 0 24 24"><path fill="currentColor" d="m6.35 15.35l-1.023-1.035q1.334-1.345 3.056-2.06q1.722-.717 3.615-.717q1.894 0 3.618.723q1.724.722 3.057 2.066L17.65 15.35q-1.125-1.125-2.587-1.737T12 13q-1.6 0-3.062.613T6.35 15.35M2.1 11.1l-1.023-1.023Q3.26 7.883 6.087 6.71q2.828-1.173 5.917-1.173q3.088 0 5.912 1.173q2.824 1.172 5.007 3.366L21.9 11.1q-1.975-1.975-4.537-3.037T12 7Q9.2 7 6.637 8.063T2.1 11.1M12 21l-2.448-2.454q.486-.486 1.119-.747q.633-.26 1.327-.26t1.329.26q.634.26 1.121.747z"/></svg>