<svg xmlns="http://www.w3.org/2000/svg" width="1em" height="1em" viewBox="0 0 24 24"><path fill="currentColor" d="M12 20.423q-.646 0-1.092-.446q-.446-.446-.446-1.092q0-.647.446-1.093q.446-.446 1.092-.446t1.092.446q.446.446.446 1.093q0 .646-.446 1.092q-.446.446-1.092.446m0-8.885q1.76 0 3.313.6q1.552.6 2.793 1.67q.25.202.262.506q.013.305-.206.524q-.214.214-.522.207q-.307-.007-.557-.203q-1.027-.861-2.331-1.352Q13.448 13 12 13q-1.448 0-2.752.49q-1.304.49-2.33 1.352q-.25.196-.558.2q-.308.004-.522-.21q-.213-.219-.203-.523q.01-.305.26-.507q1.24-1.07 2.793-1.666q1.552-.598 3.312-.598m0-6q3.048 0 5.676 1.054t4.674 2.93q.25.213.265.53q.016.317-.203.536q-.233.233-.55.198q-.318-.036-.587-.263q-1.858-1.667-4.23-2.595Q14.673 7 12 7t-5.045.928q-2.372.928-4.23 2.595q-.27.227-.587.263t-.55-.198q-.219-.219-.203-.536q.015-.317.265-.53q2.046-1.876 4.674-2.93Q8.952 5.538 12 5.538"/></svg>