<svg xmlns="http://www.w3.org/2000/svg" width="1em" height="1em" viewBox="0 0 24 24"><path fill="currentColor" d="M15.406 18.288q.406-.767.62-1.612q.216-.845.216-1.763q0-1.846-.817-3.402q-.817-1.557-2.202-2.6l-2.165 2.166V3.615h7.461l-2.127 2.127q1.223 1.098 1.94 2.618q.718 1.519.718 3.284q0 2.102-.995 3.837q-.995 1.734-2.65 2.807m-9.924 2.097l2.146-2.127Q6.398 17.16 5.684 15.64q-.715-1.519-.715-3.284q0-2.102.995-3.837Q6.96 6.785 8.6 5.712q-.406.767-.614 1.612q-.21.845-.21 1.763q0 1.846.812 3.402q.81 1.557 2.189 2.6l2.146-2.166v7.462z"/></svg>