<svg xmlns="http://www.w3.org/2000/svg" width="1em" height="1em" viewBox="0 0 24 24"><path fill="currentColor" d="M4.058 20.5q-.258 0-.348-.255q-.09-.255-.035-.543q.413-2.548.9-4.618q.488-2.07 1.043-3.528q.555-1.458 1.165-2.257Q7.393 8.5 8 8.5q1.02 0 1.985 2.146q.965 2.146 1.75 5.967q.305-3.203.73-5.65t.966-4.103q.54-1.658 1.183-2.51q.644-.85 1.386-.85q.852 0 1.578 1.088q.726 1.089 1.284 3.149q.557 2.06.96 5.031q.403 2.972.603 6.72q.025.385-.071.699q-.096.313-.412.313q-.252 0-.435-.16q-.184-.16-.251-.411q-.564-2.104-1.545-3.766T16 14.5q-.71 0-1.679 1.596q-.97 1.596-1.552 3.739q-.067.277-.27.47q-.203.195-.48.195q-.296 0-.467-.232t-.221-.553q-.302-1.957-.726-3.753q-.424-1.797-.889-3.196q-.464-1.399-.912-2.272Q8.356 9.621 8 9.53q-.375.092-.823.975q-.448.883-.913 2.291t-.888 3.234q-.424 1.825-.726 3.802q-.05.263-.192.466q-.143.203-.4.203m8.634-3.23q.748-1.803 1.614-2.786Q15.17 13.5 16 13.5t1.704.993q.875.994 1.604 2.776q-.45-5.511-1.366-9.068T16 4.51q-1.008.133-1.933 3.7q-.925 3.566-1.375 9.058"/></svg>