<svg xmlns="http://www.w3.org/2000/svg" width="1em" height="1em" viewBox="0 0 24 24"><path fill="currentColor" d="M11.5 19v-4.523q-2.15-.33-3.383-1.875Q6.885 11.058 6.885 9V4.815q0-.355.232-.585q.232-.23.575-.23h8.616q.343 0 .575.232q.232.232.232.576V9q0 2.058-1.232 3.602q-1.233 1.544-3.383 1.875V19h2.308q.212 0 .356.144t.144.357q0 .212-.144.356q-.144.143-.356.143H9.192q-.212 0-.356-.144t-.144-.357q0-.212.144-.356Q8.98 19 9.192 19zm.5-5.5q1.573 0 2.738-1.158q1.166-1.157 1.343-2.842H7.919q.177 1.685 1.343 2.842Q10.427 13.5 12 13.5m-4.115-5h8.23V5h-8.23zm4.115 5"/></svg>