<svg xmlns="http://www.w3.org/2000/svg" width="1em" height="1em" viewBox="0 0 24 24"><path fill="currentColor" d="M10 7h4V5.615q0-.269-.173-.442T13.385 5h-2.77q-.269 0-.442.173T10 5.615zm8 15q-1.671 0-2.836-1.164T14 18q0-1.671 1.164-2.836T18 14q1.671 0 2.836 1.164T22 18q0 1.671-1.164 2.836T18 22M4.615 20q-.69 0-1.152-.462Q3 19.075 3 18.385v-9.77q0-.69.463-1.152Q3.925 7 4.615 7H9V5.615q0-.69.463-1.152Q9.925 4 10.615 4h2.77q.69 0 1.153.463q.462.462.462 1.152V7h4.385q.69 0 1.152.463q.463.462.463 1.152v3.15q0 .373-.301.56q-.3.187-.649.044q-.477-.184-1.007-.277Q18.513 12 18 12q-2.496 0-4.248 1.752T12 18q0 .258.014.538t.082.537q.067.367-.147.646t-.562.279zm13-.88l-1.334-1.335q-.112-.112-.264-.122q-.152-.01-.282.122q-.131.13-.131.273q0 .142.13.273l1.7 1.7q.243.242.566.242q.323 0 .565-.242l1.7-1.7q.112-.112.122-.264q.01-.152-.122-.282q-.13-.131-.273-.131q-.142 0-.273.13l-1.334 1.335v-3.33q0-.162-.112-.274q-.111-.111-.273-.111t-.273.111q-.112.112-.112.273z"/></svg>