<svg xmlns="http://www.w3.org/2000/svg" width="1em" height="1em" viewBox="0 0 24 24"><path fill="currentColor" d="M6 20.23q-1.333 0-2.282-.948q-.949-.95-.949-2.282q0-1.333.95-2.282q.948-.949 2.281-.949q1.333 0 2.282.95q.949.948.949 2.281q0 1.333-.95 2.282q-.948.949-2.281.949m12 0q-1.333 0-2.282-.95q-.949-.948-.949-2.281q0-1.333.95-2.282q.948-.949 2.281-.949q1.333 0 2.282.95q.949.948.949 2.281q0 1.333-.95 2.282q-.948.949-2.281.949m-6-10q-1.333 0-2.282-.95Q8.77 8.334 8.77 7q0-1.333.95-2.282q.948-.949 2.281-.949q1.333 0 2.282.95q.949.948.949 2.281q0 1.333-.95 2.282q-.948.949-2.281.949"/></svg>