<svg xmlns="http://www.w3.org/2000/svg" width="1em" height="1em" viewBox="0 0 24 24"><path fill="currentColor" d="m6.254 18.454l-2.11 2.096q-.146.146-.347.146q-.2 0-.347-.146t-.146-.347q0-.201.146-.347l2.096-2.11l-2.071-.536q-.188-.068-.298-.245q-.11-.177-.042-.365q.067-.188.244-.305t.365-.049l2.052.537l-.556-2.058q-.067-.188.05-.365t.304-.245q.189-.067.366.043t.244.298l.561 2.07l4.272-4.27l-2.052-.556q-.189-.067-.305-.235q-.117-.167-.05-.375q.068-.188.245-.307q.177-.12.365-.052l2.047.556l-.556-2.052q-.068-.189.052-.363q.119-.174.307-.241q.189-.068.366.049t.244.305l.556 2.052l4.27-4.272l-2.07-.561q-.189-.067-.298-.244q-.11-.177-.043-.366q.068-.188.245-.305t.365-.049l2.058.556l-.543-2.052q-.067-.188.052-.365q.12-.177.308-.244q.188-.068.365.042q.177.11.245.298l.536 2.071l2.11-2.096q.146-.146.347-.146q.2 0 .347.146t.146.347q0 .201-.146.347l-2.096 2.11l2.071.536q.188.068.298.245q.11.177.042.365q-.067.188-.244.305t-.365.049l-2.052-.537l.556 2.058q.067.188-.05.365t-.304.245q-.189.067-.366-.043t-.244-.298l-.561-2.07l-4.272 4.27l2.052.556q.189.067.305.235q.117.167.05.375q-.068.188-.245.307q-.177.12-.365.052l-2.047-.556l.556 2.052q.068.189-.052.363q-.119.174-.307.241q-.189.068-.366-.049t-.244-.305l-.556-2.052l-4.27 4.272l2.07.561q.189.067.298.244q.11.177.043.366q-.068.188-.245.305t-.365.049l-2.058-.556l.543 2.052q.067.188-.052.365q-.12.177-.308.244q-.188.068-.365-.042q-.177-.11-.245-.298z"/></svg>