<svg xmlns="http://www.w3.org/2000/svg" width="1em" height="1em" viewBox="0 0 24 24"><path fill="currentColor" d="M11.192 20.708L6.485 16H1.692V8h4.293l1.292-1.298q.344-.341.79-.521Q8.512 6 8.998 6h9.81q.212 0 .356.144t.144.357q0 .212-.144.356Q19.02 7 18.808 7h-4.5v2.173h6.5q.212 0 .356.144t.144.357t-.144.356q-.144.143-.356.143h-6.5v2.154h7.5q.212 0 .356.144t.144.357q0 .212-.144.356q-.144.143-.356.143h-7.5V15.5h5.5q.212 0 .356.144t.144.357q0 .212-.144.356q-.144.143-.356.143H11.51l.534 1.07q.348.701.205 1.456t-.684 1.295z"/></svg>