<svg xmlns="http://www.w3.org/2000/svg" width="1em" height="1em" viewBox="0 0 24 24"><path fill="currentColor" d="M12 11.73q.671 0 1.143-.471q.472-.472.472-1.144q0-.67-.472-1.143Q12.671 8.5 12 8.5t-1.143.472q-.472.472-.472 1.143q0 .672.472 1.144q.472.472 1.143.472M12 3q.252 0 .462.021q.21.021.48.033L14.9 5.012l-.508.507q-.67.671-.658 1.593q.012.92.683 1.592q.671.671 1.605.671q.934 0 1.605-.671l.483-.483l.928.935q.024.288.04.57q.018.282.018.57q0 2.062-1.556 4.544q-1.555 2.483-4.619 5.35q-.198.173-.442.26q-.244.087-.479.087t-.47-.077q-.234-.077-.432-.25q-1.067-.981-2.163-2.175q-1.097-1.195-1.992-2.494q-.895-1.299-1.467-2.632q-.572-1.334-.572-2.613q0-3.173 2.066-5.234Q9.037 3 12 3m6.11 2.72l-1.747 1.745q-.16.16-.353.16t-.354-.16q-.16-.16-.15-.363q.01-.204.15-.344l1.746-1.746l-1.746-1.747q-.16-.16-.16-.353q0-.195.16-.354q.16-.16.363-.15q.204.01.344.15l1.747 1.746l1.746-1.746q.16-.16.354-.16t.353.16q.16.16.15.363q-.01.204-.15.344l-1.746 1.747l1.746 1.746q.16.16.16.354q0 .194-.16.353q-.16.16-.363.15q-.204-.01-.344-.15z"/></svg>