<svg xmlns="http://www.w3.org/2000/svg" width="1em" height="1em" viewBox="0 0 24 24"><path fill="currentColor" d="M9 17.5h6q.213 0 .357-.143q.143-.144.143-.357t-.143-.357Q15.213 16.5 15 16.5H9q-.213 0-.357.143q-.143.144-.143.357t.143.357q.144.143.357.143M7.615 21q-.69 0-1.152-.462Q6 20.075 6 19.385V12q0-1.933 1.084-3.425q1.083-1.492 2.762-2.144V6q0-.904.625-1.529T12 3.846q.904 0 1.529.625T14.154 6v.43q1.679.653 2.762 2.145Q18 10.067 18 12v7.385q0 .69-.462 1.152q-.463.463-1.153.463zm3.231-14.862q.294-.069.577-.103Q11.706 6 12 6t.577.035q.283.034.577.103V6q0-.483-.336-.818q-.335-.336-.818-.336t-.818.336q-.336.335-.336.818zM12 12.85l1.071.81q.13.086.242.003q.112-.084.062-.22l-.398-1.333l1.052-.76q.13-.087.08-.22t-.192-.134H12.61l-.418-1.394q-.05-.137-.192-.137t-.192.137l-.418 1.394h-1.307q-.143 0-.193.134t.081.22l1.052.76l-.398 1.332q-.05.137.062.22q.111.084.242-.002z"/></svg>