<svg xmlns="http://www.w3.org/2000/svg" width="1em" height="1em" viewBox="0 0 24 24"><path fill="currentColor" d="M7.77 10q-.213 0-.357-.144T7.269 9.5t.144-.356Q7.557 9 7.769 9h3.539q.212 0 .356.144t.144.357t-.144.356q-.144.143-.356.143zm1.768 5.23q-2.402 0-4.066-1.662q-1.664-1.664-1.664-4.065T5.47 5.436q1.663-1.667 4.064-1.667q2.402 0 4.068 1.664q1.666 1.664 1.666 4.067q0 1.042-.369 2.017q-.37.975-.97 1.668l5.908 5.907q.14.14.15.345q.01.203-.15.363q-.16.16-.353.16q-.195 0-.354-.16l-5.908-5.908q-.75.639-1.725.989q-.975.35-1.96.35m0-1q1.99 0 3.361-1.37q1.37-1.37 1.37-3.361q0-1.99-1.37-3.36q-1.37-1.37-3.36-1.37q-1.99 0-3.361 1.37q-1.37 1.37-1.37 3.36q0 1.99 1.37 3.36q1.37 1.37 3.36 1.37"/></svg>