<svg xmlns="http://www.w3.org/2000/svg" width="1em" height="1em" viewBox="0 0 24 24"><path fill="currentColor" d="M0 12V5.292h13.415v13.416H0Zm6.905 4.643c.578-.044.944-.148 1.47-.417c.312-.16.545-.328.824-.595c.357-.341.593-.65.756-.987a3.41 3.41 0 0 0 .346-1.537a3.24 3.24 0 0 0-.339-1.493c-.146-.292-.484-.742-.762-1.016l-.148-.146l-.664.665l-.665.665l.112.125c.197.223.253.295.328.421c.15.254.219.56.199.9c-.055.94-.778 1.58-1.786 1.58a1.85 1.85 0 0 1-.654-.097c-.51-.165-.876-.461-1.232-1a2.204 2.204 0 0 0-.214-.294c-.018 0-1.308 1.301-1.32 1.331c-.012.03.354.49.549.692c.515.532 1.141.912 1.79 1.085c.482.13.852.16 1.41.118m1.648-6.088l1.794-1.791l-.619-.608l-.619-.607l-.047.036c-.026.02-.486.469-1.023.998c-1.16 1.145-2.504 2.514-2.504 2.552c0 .053 1.144 1.21 1.198 1.211c.014 0 .833-.805 1.82-1.79m-.617-2.307l.854-.854H6.027c-1.52 0-2.762.006-2.762.014s.377.392.84.854l.839.84h2.139zm10.967 2.834a1.202 1.202 0 0 1-.664-.303a.707.707 0 0 1-.243-.496c-.064-.645.233-1.028.99-1.276a4.98 4.98 0 0 1 .936-.194l.313-.042l.006-.104a.556.556 0 0 0-.31-.516c-.098-.048-.123-.052-.332-.052c-.125 0-.273.012-.33.025c-.126.03-.3.122-.463.246a1.076 1.076 0 0 1-.135.093a3.34 3.34 0 0 1-.245-.234l-.234-.234l.082-.07c.17-.147.278-.22.442-.298c.567-.27 1.18-.279 1.698-.024c.287.14.526.43.61.74c.038.135.063.907.064 1.954l.001.7h-.769v-.17a.76.76 0 0 0-.01-.168a1.06 1.06 0 0 0-.127.09a1.58 1.58 0 0 1-.784.331c-.206.033-.29.034-.496.002m.726-.68a.87.87 0 0 0 .636-.822c.01-.254.012-.252-.37-.188c-.47.08-.708.16-.884.304c-.312.253-.22.655.17.737c.102.022.32.007.448-.03m3.185.69c-.407-.057-.682-.246-.866-.596l-.086-.166l-.007-1.633l-.007-1.633l.063-.08c.09-.113.716-.703.73-.688c.008.007.018.284.023.616l.01.604l.523.005l.524.005l-.012.312a3.567 3.567 0 0 1-.02.32a8.193 8.193 0 0 1-.517.02l-.508.01v1.956l.09.086a.816.816 0 0 0 .126.105c.142.07.361.036.56-.087l.062-.038l.249.25l.249.25l-.11.087c-.276.222-.72.343-1.077.294zm-7.168-.031c-.364-.066-.822-.306-1.062-.556l-.06-.063l.244-.247l.245-.247l.144.121c.27.226.555.335.885.335c.305 0 .47-.073.546-.242c.063-.138.036-.254-.087-.373c-.105-.102-.195-.148-.555-.285c-.399-.152-.75-.32-.855-.41c-.213-.184-.334-.533-.288-.829c.078-.496.519-.81 1.182-.846a1.85 1.85 0 0 1 .95.2c.124.063.512.333.513.357c.001.018-.46.469-.48.469c-.01 0-.088-.052-.176-.114c-.34-.243-.64-.328-.894-.252c-.119.035-.185.086-.232.179c-.064.125-.04.228.078.326c.088.075.198.125.547.252c.532.193.772.324.941.512c.15.166.243.417.241.647a1.066 1.066 0 0 1-.46.853a1.807 1.807 0 0 1-.59.214a2.918 2.918 0 0 1-.777 0z"/></svg>