<svg xmlns="http://www.w3.org/2000/svg" width="1em" height="1em" viewBox="0 0 24 24"><path fill="currentColor" d="M13.382 16.911h.463v1.714h-.463Zm4.314 1.057l-1.915-1.058h-.467v1.714h.428v-1.266l2.387 1.315V16.91h-.433zm2.365.348v-.409h1.878v-.308h-1.878v-.38h1.878v-.308h-2.341v1.713h2.316l.086-.308ZM2 18.624h.546l.289-.326H4.4l.289.326h.546l-1.617-1.768Zm1.112-.634l.506-.571l.507.571Zm9.054-.516c0-.333-.236-.563-.75-.563h-1.98v1.714H9.9v-.573h1.5c.55 0 .766-.233.766-.578m-.86.269H9.9v-.524h1.4c.279 0 .364.086.364.267c.004.159-.116.257-.358.257m-4.612-.832h-.463v1.714h2.103l.13-.309h-1.77Zm10.266-1.822l.719-2.219h2.443l1.818-1.407h-3.8l2.085-6.406h-2.17l-8.279 6.406H6.5l.9-2.773L2 12.87h5.956l-2.868 2.217H7.77l2.87-2.219h4.875l-.723 2.219zm-4.5-3.626l4.694-3.631l-1.18 3.631z"/></svg>