<svg xmlns="http://www.w3.org/2000/svg" width="1.04em" height="1em" viewBox="0 0 33 32"><path fill="currentColor" d="M1.07 13.694c0-.792-.005-1.583.002-2.375a.936.936 0 0 1 .495-.836a1.477 1.477 0 0 1 .33-.11q.602-.177 1.204-.35l1.268-.367l1.267-.369l1.113-.322l1.032-.3l1.042-.302l.962-.28l.962-.278c.296-.085.591-.172.887-.258l.807-.232c.269-.077.537-.158.806-.236l.807-.233l.806-.234l.807-.234l.806-.234l.732-.211c.242-.07.483-.142.726-.21c.223-.063.445-.13.671-.18a1.09 1.09 0 0 1 .328-.005a1.317 1.317 0 0 1 .565.17a.89.89 0 0 1 .158.121q1.37 1.325 2.737 2.65a2.64 2.64 0 0 1 .344.471a1.365 1.365 0 0 1 .195.76c.006.621 0 1.242.003 1.863a.941.941 0 0 1-.35.75a1.06 1.06 0 0 1-.39.187l-1.334.416l-1.244.388l-1.26.393l-1.398.435l-1.318.412l-1.25.39l-1.249.39l-1.398.435l-1.313.41l-1.254.391l-1.255.392l-1.398.435c-.342.107-.683.217-1.027.32a2.366 2.366 0 0 1-.776.092a3.511 3.511 0 0 1-.858-.18c-.392-.116-.784-.229-1.176-.344l-1.046-.312a.604.604 0 0 1-.25-.19a1.068 1.068 0 0 1-.32-.77c.006-.773.002-1.546.002-2.32m4.106.554a.987.987 0 0 0 .173-.002a2.55 2.55 0 0 0 .274-.069c.336-.1.671-.202 1.006-.303l.933-.277c.311-.093.62-.188.932-.28c.285-.087.572-.17.858-.256l1-.302l.933-.278q.504-.15 1.007-.303l.944-.282l1.002-.3l1.003-.3l1.071-.322l1.153-.345l1.237-.371l1.216-.364c.363-.109.726-.217 1.088-.327a.889.889 0 0 0 .326-.137a.302.302 0 0 0 .08-.454a1.724 1.724 0 0 0-.147-.166q-.948-.91-1.9-1.819a1.014 1.014 0 0 0-.158-.121a1.24 1.24 0 0 0-.558-.174a1.328 1.328 0 0 0-.372.007c-.197.039-.39.101-.585.156l-.731.212l-.732.212l-.726.21l-.806.234l-.732.213l-.732.211l-.812.236l-.801.231l-.887.258q-.478.139-.957.276l-.967.281l-.963.279l-1.043.302l-.957.277l-1.123.326l-1.108.32c-.38.11-.759.22-1.14.328a.346.346 0 0 0-.255.414a.532.532 0 0 0 .164.272c.65.65 1.304 1.299 1.95 1.952a1.076 1.076 0 0 0 .842.345"/></svg>