<svg xmlns="http://www.w3.org/2000/svg" width="1.04em" height="1em" viewBox="0 0 33 32"><path fill="currentColor" d="M11.608 16.788c-3.044-.092-5.821-.558-7.745-1.299a9.609 9.609 0 0 1-1.215-.572c-.97-.57-1.469-1.204-1.471-1.874c0-.151.011-.235.054-.405c.093-.359.22-.702.39-1.046c.693-1.41 2.005-2.54 3.857-3.326c1.545-.654 3.462-1.056 5.638-1.181c.537-.032.736-.036 1.531-.036c.793 0 .961.004 1.523.036c2.821.158 5.162.767 6.88 1.792c.21.125.516.33.698.466c1.139.856 1.877 1.892 2.23 3.128c.073.257.08.3.08.523c0 .222-.008.282-.062.448c-.222.684-.982 1.304-2.283 1.865c-1.57.676-4.011 1.18-6.742 1.393c-.403.031-.84.056-1.409.08c-.292.011-1.631.02-1.954.007zm1.756-.202a34.645 34.645 0 0 0 1.809-.102c2.732-.224 5.078-.774 6.561-1.54c.983-.506 1.56-1.09 1.692-1.712c.012-.059.016-.114.016-.255a1.02 1.02 0 0 0-.064-.423c-.29-.875-1.492-1.661-3.417-2.235a26.85 26.85 0 0 0-.885-.243a25.075 25.075 0 0 0-1.63-.311a32.236 32.236 0 0 0-8.641-.127c-1.451.179-2.712.447-3.895.828c-2.226.716-3.365 1.72-3.16 2.786c.118.613.684 1.19 1.66 1.693c.835.43 2.025.823 3.317 1.094c1.482.31 3.078.487 4.951.547c.162.004.325.012.361.012c.126.008 1.097-.003 1.325-.012m-1.778-.423c-2.095-.069-3.973-.308-5.58-.71c-1.26-.314-2.259-.711-2.949-1.17c-.561-.374-.876-.77-.929-1.172c-.063-.472.3-.98 1.03-1.441c1.39-.878 3.977-1.518 7.042-1.743c.875-.064 1.68-.088 2.64-.08c.77.007 1.25.023 1.915.067c3.365.225 6.168.95 7.5 1.94c.538.4.805.836.76 1.24c-.032.264-.158.502-.41.762c-.275.284-.623.522-1.137.779c-1.312.655-3.326 1.145-5.68 1.382c-.623.063-1.174.101-1.993.138c-.266.011-1.903.015-2.209.008m1.228-1.087a.792.792 0 0 0 .329-.18c.35-.326.3-.89-.103-1.152a.702.702 0 0 0-.41-.12a.74.74 0 0 0-.74.64a.746.746 0 0 0 .623.826c.06.011.234.002.301-.016zm.326-2.93a13.193 13.193 0 0 0 3.824-.863c.318-.127.35-.144.384-.22a.22.22 0 0 0 0-.16a.222.222 0 0 0-.127-.108c-.078-.02-1.29-.127-2.092-.185c-1.642-.118-2.64-.135-3.754-.062c-.895.059-1.964.157-3.155.291c-.503.057-.668.078-.699.09a.211.211 0 0 0-.107.126a.173.173 0 0 0 .016.145c.035.075.084.096.492.224c1.328.417 2.677.668 3.947.735a20.63 20.63 0 0 0 1.272-.012z"/></svg>