<svg xmlns="http://www.w3.org/2000/svg" width="1.04em" height="1em" viewBox="0 0 33 32"><path fill="currentColor" d="M12 19.68c-2.76 0-5.19-.45-6.71-1.14c-1.45.33-2.39.71-2.7 1.02c.66.65 4.06 1.67 9.4 1.67c5.34 0 8.74-1.02 9.4-1.67c-.31-.31-1.24-.7-2.7-1.02c-1.5.69-3.93 1.14-6.69 1.14m11.55-1.03c-.19-.78-.61-2.15-1.34-2.92c-.38-.4-1.19-.87-2.29-1.31l-4.1-10.86c.93-.21 1.5-.5 1.5-.82v-1c0-.65-2.37-1.17-5.29-1.17s-5.29.53-5.29 1.17v1c0 .32.57.6 1.49.81l-4 10.79c-1.47.6-2.56 1.32-3 2.02c-1.07 1.7-.91 2.89-.91 2.89c0 2.32 5.23 4.19 11.68 4.19c6.45 0 11.68-1.88 11.68-4.19c0-.21-.05-.4-.13-.6M12.53 3.91c.09 0 .17 0 .26-.01c1.2.14 2.33.6 2.64 1.42l.17.44c.34.9-1.29 1.97-3.07 2.14zm-.01 4.94c1.62-.1 2.95-.73 3.63-1.62l2.55 6.75c-1.72-.55-3.89-.98-6.2-1.06zM9.23 3.73c.68.09 1.46.15 2.3.17l-.01 4.05c-1.66.06-3.11.36-4.17.86zm-2.58 6.98l.05-.13c.48-1.01 2.39-1.62 4.82-1.7l-.01 4.03h-.32c-2.79-.18-4.9-1.23-4.54-2.2m-.54 1.45c.42.44 1.08.82 1.9 1.1c-.9.17-1.75.38-2.54.63zm-4.87 5.9c0-.01 0 0 0 0m19.97 2.77c-.32.15-.7.29-1.13.43c-.21.07-.44.13-.68.19c-1.89.48-4.51.78-7.4.78c-2.89 0-5.51-.3-7.4-.78c-.24-.06-.46-.12-.68-.19c-.43-.13-.8-.27-1.13-.43c-.81-.38-1.26-.81-1.26-1.27c0-1.47 4.69-2.67 10.47-2.67s10.47 1.19 10.47 2.67c0 .46-.46.89-1.26 1.27"/></svg>