<svg xmlns="http://www.w3.org/2000/svg" width="1em" height="1em" viewBox="0 0 128 128"><path fill="currentColor" d="M120 79c.293-26.081-4.173-42.2-19-53l-4-5h-2l-1-2l-17-7h-6v-1c-6.493-1.829-15.831.631-20 2h-4v1h-2v1l-9 3l-1 2l-4 1l-4 5h-2l-1 2h-1v2l-5 4v2l-2 1l-1 4h-1l-1 4h-1v3h-1v2h-1v4c-2.176 6.745-2.1 15.686-2 25c2.456.635 1.74.4 3 2h1v24c-3.316 1.756-4.368 2.058-10 2c-4.079-7.9-2.065-35.7-2-48h1v-6h1v-4h1v-3h1v-3h1v-2h1l2-6l2-1l1-4l3-2v-2l7-6l2-3h2l2-3l4-1l1-2l9-3V7h2V6h3V5h4c8.146-2.611 19.853-2.642 28 0l10 2v1l4 1v1l4 1l1 2l4 1l2 3h2l3 4l6 5v2l2 1v2l2 1v2l2 1v2h1l2 6h1l1 6h1c4.261 12.133 2.1 40 2 56c-3.316 1.756-4.368 2.058-10 2c-2.964-5.7-2.075-17.251-2-26c1.8-.944 1.574-1.385 4-2M25 61l9 1l4 5c2.765 2.768 2 9.513 2 15c0 12.31.091 26.242-1 37c-5.321 3.158-4.6 5.941-14 6v-1h-3l-4-5c-2.765-2.768-2-9.513-2-15c0-12.31-.091-26.242 1-37l5-4v-1h3zm72 0l9 1l4 5c2.765 2.768 2 9.513 2 15c0 12.31.091 26.242-1 37c-5.321 3.158-4.6 5.941-14 6v-1h-3l-4-5c-2.765-2.768-2-9.513-2-15c0-12.31-.091-26.242 1-37l5-4v-1h3z" class="cls-1"/></svg>