<svg xmlns="http://www.w3.org/2000/svg" width="1em" height="1em" viewBox="0 0 24 24"><path fill="currentColor" d="M7.189 6.9s-.932.005-1.602.888c-.596.785-.444 1.457-.444 1.457s.808.14 1.519-.714c.666-.8.527-1.63.527-1.63m4.47.615V9.83h-.939v1.403h.94v4.098c0 1.089.64 1.756 1.851 1.756c.39 0 .763-.054 1.117-.163c.354-.11.653-.218.898-.327l-.367-1.443c-.11.045-.613.258-.994.258c-.402 0-.68-.2-.68-.694v-3.485h1.497V9.829h-1.498V7.515zM7.047 9.353c-.833 0-1.473.474-1.818.474c-.401 0-1-.446-1.773-.446C2.267 9.381 1 10.445 1 12.474c0 2.06 1.496 4.626 2.68 4.626c.413 0 1.048-.417 1.688-.417c.628 0 1.091.401 1.687.401c1.298 0 2.258-2.703 2.258-2.703s-1.374-.532-1.374-2.076c0-1.368 1.103-1.932 1.103-1.932s-.564-1.02-1.998-1.02m8.725.476l2.628 7.134h1.974L23 9.83h-1.715l-1.824 5.65l-1.811-5.65z"/></svg>