<svg xmlns="http://www.w3.org/2000/svg" width="1em" height="1em" viewBox="0 0 24 24"><path fill="currentColor" d="M20.994 2.177H9.6v19.646h11.39A1.006 1.006 0 0 0 22 20.817V3.183a1.006 1.006 0 0 0-1.006-1.006M2 3.183v17.634a1.006 1.006 0 0 0 1.006 1.006h6.213V2.177H3.006A1.006 1.006 0 0 0 2 3.183m3.854 2.523a.289.289 0 1 1-.289.288a.288.288 0 0 1 .289-.288m0 .813a.289.289 0 1 1-.289.289a.288.288 0 0 1 .289-.289m0 .814a.289.289 0 1 1-.289.288a.288.288 0 0 1 .289-.288m0 .813a.289.289 0 1 1-.289.289a.289.289 0 0 1 .289-.289m0 .814a.289.289 0 1 1-.289.289a.288.288 0 0 1 .289-.289m0 .814a.289.289 0 1 1-.289.288a.288.288 0 0 1 .289-.288m0 .813a.289.289 0 1 1-.289.289a.288.288 0 0 1 .289-.289m0 .814a.289.289 0 1 1-.289.288a.288.288 0 0 1 .289-.289Zm0 .813a.289.289 0 1 1-.289.289a.289.289 0 0 1 .289-.289m0 .814a.289.289 0 1 1-.289.289a.288.288 0 0 1 .289-.289m0 .814a.289.289 0 1 1-.289.288a.288.288 0 0 1 .289-.288m0 .813a.289.289 0 1 1-.289.289a.288.288 0 0 1 .289-.289m0 .814a.289.289 0 1 1-.289.288a.288.288 0 0 1 .289-.288m0 .814a.288.288 0 1 1-.289.288a.288.288 0 0 1 .289-.288m0 .813a.289.289 0 1 1-.289.289a.288.288 0 0 1 .289-.285Z"/></svg>