<svg xmlns="http://www.w3.org/2000/svg" width="1em" height="1em" viewBox="0 0 24 24"><path fill="currentColor" d="M8.352 16.276c0-.246-.149-.447-.332-.447c-.183 0-.331.2-.331.447s.149.446.331.446c.182 0 .332-.2.332-.446m5.12.303c0-.246-.148-.447-.331-.447c-.183 0-.331.2-.331.447s.149.446.331.446c.182 0 .331-.2.331-.446m-5.143-4.755c0-.246-.149-.447-.331-.447c-.182 0-.331.2-.331.447s.148.446.331.446c.183 0 .331-.2.331-.446m5.143.159c0-.246-.148-.446-.331-.446c-.183 0-.331.2-.331.446s.149.446.331.446c.182 0 .331-.2.331-.446m0-4.595c0-.246-.148-.447-.331-.447c-.183 0-.331.2-.331.447s.149.446.331.446c.182 0 .331-.2.331-.446m-5.143.141c0-.246-.149-.446-.331-.446c-.182 0-.331.2-.331.446s.148.446.331.446c.183 0 .331-.2.331-.446M5.473 5.193v.21l10.605-.499l-.047 14.122l-10.558-.904v.26l10.628.904l.496-.213V4.904l-.459-.27ZM18.653 2.2l-13.386.96a.557.557 0 0 0-.517.555v16.01c0 .285.216.524.5.553l13.387 1.439a.557.557 0 0 0 .616-.554V2.757a.557.557 0 0 0-.6-.557M16.68 19.128l-.565.242l-10.725-.912v-.425l.138.011v-.1l10.359.856v-4.378l-10.359-.428v-.251l10.359.465V9.691H5.528V9.53l10.359-.118V5.1l-10.359.522v-.138l-.138.006v-.375l10.769-.565l.521.307Zm-9.133-2.852a.54.54 0 0 1 .473-.588c.638.132.638 1.043 0 1.175a.54.54 0 0 1-.473-.587m5.612-.273c.528-.02.673 1.183-.018 1.172c-.593-.035-.58-1.182-.017-1.157zm-5.634-4.179A.54.54 0 0 1 8 11.236c.638.132.638 1.043 0 1.175a.54.54 0 0 1-.475-.587m5.622-.425c.506-.1.72 1.172-.006 1.172c-.595-.012-.618-1.208.006-1.172m-5.622-3.87A.541.541 0 0 1 8 6.941c.29.036.5.296.473.588A.541.541 0 0 1 8 8.117a.541.541 0 0 1-.475-.588m5.178-.141c-.017-.68.881-.843.9-.012c.04.82-.882.808-.9.012"/></svg>