<svg xmlns="http://www.w3.org/2000/svg" width="1em" height="1em" viewBox="0 0 24 24"><path fill="currentColor" d="M16.49 13.8a.437.437 0 0 0 .14.009a.416.416 0 0 0 .139-.029c.037-.016.056-.034.056-.053c0-.019-.02-.033-.058-.044a.435.435 0 0 0-.14-.01a.441.441 0 0 0-.139.03c-.037.016-.056.033-.056.052c0 .019.02.03.058.045m.07-.078a.243.243 0 0 1 .138-.01c.019 0 .028.013.029.022c.001.009-.01.019-.028.027a.254.254 0 0 1-.07.014a.207.207 0 0 1-.068-.005c-.02-.006-.03-.013-.031-.022c-.001-.009.01-.023.03-.03zm.099.255a.774.774 0 0 0-.045.041c-.066.065-.1.111-.1.137c0 .026.016.016.048.014s.05-.01.05-.021c0-.011.022-.059.066-.107l.061-.059l.09-.083l.108-.1A.7.7 0 0 0 17 13.73a.136.136 0 0 0 .042-.073s0-.007-.011-.011a.091.091 0 0 0-.037 0c-.034 0-.051.009-.05.021a.135.135 0 0 1-.04.076a.739.739 0 0 1-.062.067l-.115.106zm.27.029a.441.441 0 0 0-.139.03c-.038.016-.056.033-.056.052c0 .019.02.034.058.045a.5.5 0 0 0 .278-.02c.038-.016.057-.033.056-.052c-.001-.019-.019-.034-.058-.045a.458.458 0 0 0-.139-.01m.1.062c0 .009-.009.017-.029.026a.227.227 0 0 1-.068.015a.214.214 0 0 1-.069-.006c-.02 0-.03-.012-.03-.022c0-.01.01-.018.029-.026a.205.205 0 0 1 .068-.014a.218.218 0 0 1 .07 0c.018.01.028.017.028.027zm-5.529.56a.45.45 0 0 0 .225.019a.463.463 0 0 0 .225-.052a.025.025 0 0 0 .012-.017a.037.037 0 0 0-.023-.032a.129.129 0 0 0-.065-.013v.02c0 .01-.007.02-.021.03a.133.133 0 0 1-.065.018l-.129.009a.168.168 0 0 1-.059-.01c-.019 0-.028-.015-.029-.029l-.009-.437c0-.01.007-.02.022-.03a.128.128 0 0 1 .064-.018l.13-.009a.145.145 0 0 1 .06.006c.018 0 .027.015.027.029v.02a.152.152 0 0 0 .066-.022a.043.043 0 0 0 .02-.035a.039.039 0 0 0-.015-.016a.736.736 0 0 0-.45.033a.025.025 0 0 0-.012.017l.01.5a.034.034 0 0 0 .016.019m-.162-.528a.181.181 0 0 0-.087-.007a.185.185 0 0 0-.087.02v.207l.005.006a.175.175 0 0 0 .087.008a.167.167 0 0 0 .087-.021v-.206zm-.033.206a.048.048 0 0 1-.024.008h-.05a.046.046 0 0 1-.023 0a.011.011 0 0 1-.011-.011v-.173s0-.008.009-.012a.05.05 0 0 1 .025-.007h.049a.088.088 0 0 1 .024 0a.013.013 0 0 1 .01.012v.173s-.003.004-.009.004zm4.665-1.437l.028 1.34l.162-.012l-.031-1.512l-.348.025l.004.173zm-.343-.075a.2.2 0 0 0-.164-.061l-.787.057v.185l.761-.055a.051.051 0 0 1 .035.025a.137.137 0 0 1 .013.064l.008.381l-.806.058v.19l.806-.057l.008.386a.137.137 0 0 1-.01.066a.068.068 0 0 1-.035.029l-.763.054v.185l.787-.056a.225.225 0 0 0 .1-.025a.2.2 0 0 0 .066-.057a.239.239 0 0 0 .037-.077A.329.329 0 0 0 15.7 14l-.022-1.048a.243.243 0 0 0-.051-.158m-5.457 1.778l-.008-.389a.139.139 0 0 1 .009-.062a.054.054 0 0 1 .04-.026l.551-.039a.346.346 0 0 0 .1-.032a.185.185 0 0 0 .061-.052a.192.192 0 0 0 .031-.07a.667.667 0 0 0 .014-.082v-.064l-.006-.277l-.005-.052a.369.369 0 0 0-.02-.084a.194.194 0 0 0-.04-.068a.154.154 0 0 0-.065-.046a.236.236 0 0 0-.1-.015l-.787.056v.184l.763-.055a.05.05 0 0 1 .036.027a.168.168 0 0 1 .019.066l.006.294a.115.115 0 0 1-.01.058a.06.06 0 0 1-.033.024l-.556.039a.217.217 0 0 0-.158.085a.272.272 0 0 0-.046.158v.062l.011.557l1.005-.07v-.184zm-.385.1l.003.11l.117-.008l-.003-.11zm-.161-.651a.2.2 0 0 0-.165-.062L8.906 14a.056.056 0 0 1-.033-.018a.108.108 0 0 1-.014-.06l-.008-.387l.81-.058v-.183l-1 .072l.011.556l.008.063a.247.247 0 0 0 .049.145a.2.2 0 0 0 .163.06l.554-.039q.043 0 .045.078l.006.3a.122.122 0 0 1-.011.065a.068.068 0 0 1-.035.029l-.763.053v.183l.787-.055a.225.225 0 0 0 .095-.025a.184.184 0 0 0 .065-.055a.237.237 0 0 0 .036-.075a.322.322 0 0 0 .011-.088V14.5l-.007-.326a.247.247 0 0 0-.051-.153m-1.319-.449a.052.052 0 0 1 .036.027a.168.168 0 0 1 .019.066l.006.292a.113.113 0 0 1-.01.058a.06.06 0 0 1-.033.024l-.556.04a.216.216 0 0 0-.158.084a.276.276 0 0 0-.046.157v.063l.012.554l1-.07v-.183l-.812.057l-.008-.388a.139.139 0 0 1 .01-.062a.053.053 0 0 1 .039-.026l.551-.039a.347.347 0 0 0 .1-.031a.185.185 0 0 0 .061-.052a.192.192 0 0 0 .031-.07a.619.619 0 0 0 .014-.081v-.064l-.006-.276V13.6a.369.369 0 0 0-.02-.084a.219.219 0 0 0-.039-.068a.162.162 0 0 0-.066-.045a.233.233 0 0 0-.1-.015l-.787.056v.183zm7.945-3.061a.027.027 0 0 1 .019.027l.009.4a.038.038 0 0 1-.015.027a.067.067 0 0 1-.043.016h-.029a.037.037 0 0 0 .018.024a.088.088 0 0 0 .055.009a.072.072 0 0 0 .064-.058a.316.316 0 0 0 .008-.054l-.007-.346l-.006-.031l-.006-.021a.062.062 0 0 0-.064-.048a.109.109 0 0 0-.055.018a.044.044 0 0 0-.017.026h.029a.081.081 0 0 1 .04.011m-.442.511a.23.23 0 0 0 .153.021a.25.25 0 0 0 .153-.043a.028.028 0 0 0 .008-.015a.041.041 0 0 0-.016-.031a.07.07 0 0 0-.044-.012v.018a.039.039 0 0 1-.014.028A.07.07 0 0 1 16 11l-.088.007a.079.079 0 0 1-.04-.007a.029.029 0 0 1-.02-.027l-.008-.4a.04.04 0 0 1 .014-.027a.07.07 0 0 1 .044-.016l.088-.007a.089.089 0 0 1 .041.006a.03.03 0 0 1 .019.028v.018a.086.086 0 0 0 .045-.019a.039.039 0 0 0 .013-.032a.026.026 0 0 0-.01-.015a.233.233 0 0 0-.153-.021a.245.245 0 0 0-.153.046a.028.028 0 0 0-.008.015l.01.461a.026.026 0 0 0 .014.012m-.393.03a.23.23 0 0 0 .153.021a.242.242 0 0 0 .153-.046a.022.022 0 0 0 .008-.015l-.009-.461a.032.032 0 0 0-.01-.015a.238.238 0 0 0-.154-.021a.247.247 0 0 0-.153.046a.028.028 0 0 0-.008.015l.01.461a.036.036 0 0 0 .01.015m.055-.479a.062.062 0 0 1 .043-.016l.088-.007a.093.093 0 0 1 .042.006a.029.029 0 0 1 .018.028l.008.4a.033.033 0 0 1-.014.027a.07.07 0 0 1-.044.016l-.088.007a.094.094 0 0 1-.04-.007a.031.031 0 0 1-.02-.027l-.008-.4a.038.038 0 0 1 .015-.027m-.295.527a.25.25 0 0 0 .153-.045a.019.019 0 0 0 .008-.015l-.01-.49c0-.013-.01-.019-.029-.017c-.019.002-.03.009-.03.022l.01.461a.038.038 0 0 1-.015.027a.074.074 0 0 1-.044.016l-.131.009h-.016v-.01l-.01-.49c0-.013-.01-.019-.031-.017c-.021.002-.023 0-.025.009v.013l.011.537zm-.537-.477h.046a.068.068 0 0 1 .047.01a.032.032 0 0 1 .013.024l.009.46c0 .013.01.019.029.018c.019-.001.031-.009.03-.022l-.009-.461a.03.03 0 0 1 .017-.03a.1.1 0 0 1 .041-.013h.044a.045.045 0 0 0 .018 0a.017.017 0 0 0 0-.03a.036.036 0 0 0-.021 0l-.266.02a.049.049 0 0 0-.02 0a.018.018 0 0 0-.009.017c.002.003.012.009.031.007m-.229.462l.006.022a.062.062 0 0 0 .064.048a.1.1 0 0 0 .055-.019a.044.044 0 0 0 .017-.025h-.029a.079.079 0 0 1-.04-.007a.028.028 0 0 1-.02-.027l-.008-.4a.036.036 0 0 1 .014-.027a.07.07 0 0 1 .044-.016h.029a.037.037 0 0 0-.018-.024a.093.093 0 0 0-.056-.009a.071.071 0 0 0-.063.057a.294.294 0 0 0-.009.054l.008.345zm-1.131.115a.347.347 0 0 0 .226.03a.364.364 0 0 0 .225-.067a.037.037 0 0 0 .012-.022l-.009-.423a.2.2 0 0 0-.015-.022a.36.36 0 0 0-.225-.03l-.065.005a.121.121 0 0 1-.059-.01a.043.043 0 0 1-.029-.04v-.169c0-.019-.016-.027-.045-.025c-.029.002-.034.006-.037.013a.041.041 0 0 0 0 .019l.015.718a.053.053 0 0 0 .006.023m.091-.454a.124.124 0 0 1 .06-.018l.129-.01a.1.1 0 0 1 .069.014a.044.044 0 0 1 .019.036l.007.338a.053.053 0 0 1-.029.047a.132.132 0 0 1-.057.016l-.129.009a.1.1 0 0 1-.066-.012a.045.045 0 0 1-.022-.037l-.007-.338a.046.046 0 0 1 .026-.047zm-.669.785a.042.042 0 0 0 .033.008a.058.058 0 0 0 .032-.011a.023.023 0 0 0 .012-.02v-.169a.048.048 0 0 1 .026-.045a.15.15 0 0 1 .059-.018h.065a.365.365 0 0 0 .225-.066a.032.032 0 0 0 .012-.022l-.009-.423a.074.074 0 0 0-.015-.022a.352.352 0 0 0-.225-.03a.367.367 0 0 0-.225.066a.032.032 0 0 0-.012.022l.015.718a.026.026 0 0 0 .007.012m.089-.743a.137.137 0 0 1 .06-.019l.129-.009a.1.1 0 0 1 .069.014a.042.042 0 0 1 .019.035l.007.338a.05.05 0 0 1-.029.047a.132.132 0 0 1-.057.016l-.129.01a.1.1 0 0 1-.066-.013a.048.048 0 0 1-.022-.037l-.007-.338a.047.047 0 0 1 .028-.044zm-.665.786c.006.007.017.009.033.008a.072.072 0 0 0 .033-.01a.025.025 0 0 0 .011-.021v-.169a.045.045 0 0 1 .026-.044a.123.123 0 0 1 .059-.018l.065-.005a.364.364 0 0 0 .225-.067a.032.032 0 0 0 .012-.022l-.009-.423a.083.083 0 0 0-.014-.021a.35.35 0 0 0-.226-.03a.367.367 0 0 0-.225.066a.035.035 0 0 0-.012.021l.015.719a.032.032 0 0 0 .007.016m.09-.743a.145.145 0 0 1 .059-.018l.129-.01a.1.1 0 0 1 .069.015a.04.04 0 0 1 .019.035l.007.338a.051.051 0 0 1-.029.047a.143.143 0 0 1-.056.016l-.13.009a.106.106 0 0 1-.066-.012a.053.053 0 0 1-.022-.037l-.007-.338a.051.051 0 0 1 .027-.045m-1.107-.623a.058.058 0 0 1 .037.024a.117.117 0 0 1 .014.063l.025 1.226l.192-.015l-.027-1.271a.237.237 0 0 0-.054-.152a.2.2 0 0 0-.166-.06l-.787.06v.183zm-1.019.065l.028 1.327l.162-.012l-.031-1.499l-.348.027l.004.171zm-.53.052a.057.057 0 0 1 .037.027a.19.19 0 0 1 .018.066l.006.293a.111.111 0 0 1-.009.059a.06.06 0 0 1-.033.024l-.556.042a.217.217 0 0 0-.159.085a.288.288 0 0 0-.046.158l-.005.062l.012.556l1-.075v-.183l-.812.061L9 11.111a.128.128 0 0 1 .009-.062a.054.054 0 0 1 .039-.026l.552-.042a.329.329 0 0 0 .1-.032a.177.177 0 0 0 .061-.053a.19.19 0 0 0 .032-.069a.67.67 0 0 0 .013-.082v-.064l-.006-.276v-.053a.42.42 0 0 0-.02-.083a.211.211 0 0 0-.04-.068a.171.171 0 0 0-.065-.046a.257.257 0 0 0-.1-.014l-.786.06v.183zm-1.853 1.224a.386.386 0 0 0 .017.086a.194.194 0 0 0 .039.069a.172.172 0 0 0 .065.045a.236.236 0 0 0 .1.015l.578-.043a.225.225 0 0 0 .094-.026a.193.193 0 0 0 .065-.055a.217.217 0 0 0 .036-.075a.438.438 0 0 0 .015-.088L8.7 11l-.012-.562a.27.27 0 0 0-.057-.152a.193.193 0 0 0-.163-.06l-.578.044a.278.278 0 0 0-.1.031a.213.213 0 0 0-.061.054a.207.207 0 0 0-.036.071a.343.343 0 0 0-.013.086v.067l.019.912zm.178-1.068a.065.065 0 0 1 .035-.03l.53-.041a.056.056 0 0 1 .036.025a.12.12 0 0 1 .016.065l.011.489l.01.467a.117.117 0 0 1-.012.06a.066.066 0 0 1-.033.026l-.53.04a.064.064 0 0 1-.036-.025a.123.123 0 0 1-.013-.063l-.02-.947a.147.147 0 0 1 .006-.066m13.066-3.544L3.522 7.8c-.349.017-.472.156-.468.492l.078 8.877c0 .362.13.408.5.381L21.1 16.375c.341-.024.341-.166.341-.494V7.352c-.004-.359-.119-.434-.492-.415m-2.312 7.874L6.048 15.7V9.344l12.589-.681ZM2.991 7.3L21.4 6.354l-.307-.237a1.223 1.223 0 0 0-.813-.255l-17.832.9A.471.471 0 0 0 2 7.24l.181 9.886a.621.621 0 0 0 .109.339l.266.337l-.107-9.963a.627.627 0 0 1 .542-.539m18.285-.824L3.21 7.392a.69.69 0 0 0-.654.7l.093 9.369a.69.69 0 0 0 .74.681l17.972-1.315a.69.69 0 0 0 .639-.692V7.164a.689.689 0 0 0-.724-.688m0 10.1L3.461 17.8c-.383.028-.511-.02-.515-.4l-.08-9.237c0-.35.122-.494.478-.512l17.783-.893c.38-.019.5.059.5.432v8.874c.001.341.001.489-.347.514z"/></svg>