<svg xmlns="http://www.w3.org/2000/svg" width="1em" height="1em" viewBox="0 0 24 24"><path fill="currentColor" d="M7.762 17.4a1.88 1.88 0 0 0-.245 1.067c.039.8.5 1.439 1.025 1.413c.525-.026.921-.7.881-1.506a1.87 1.87 0 0 0-.348-1.038a.832.832 0 0 0-.646-.375H8.4a.816.816 0 0 0-.638.439m8.004-7.11a1.614 1.614 0 0 0-1.612 1.61v6.6a1.613 1.613 0 1 0 3.225 0v-6.6a1.614 1.614 0 0 0-1.613-1.61M9.577 2a2.959 2.959 0 0 0-2.956 2.956v14.088a2.956 2.956 0 1 0 5.911 0V4.956A2.959 2.959 0 0 0 9.577 2m-.916 13.65a.408.408 0 0 1-.342.452a.469.469 0 0 1 0-.9a.408.408 0 0 1 .342.448m-.277 1.012a1.11 1.11 0 0 1 .931.492a2.184 2.184 0 0 1 .409 1.206c.048.971-.476 1.788-1.168 1.822h-.044c-.673 0-1.249-.75-1.3-1.7a2.187 2.187 0 0 1 .29-1.24a1.107 1.107 0 0 1 .882-.58"/></svg>