<svg xmlns="http://www.w3.org/2000/svg" width="1em" height="1em" viewBox="0 0 24 24"><path fill="currentColor" d="M8.269 8.817a.793 1.162 0 0 1-.793 1.162a.793 1.162 0 0 1-.793-1.162a.793 1.162 0 0 1 .793-1.162a.793 1.162 0 0 1 .793 1.162m-.793-1.751c-.63 0-1.141.784-1.141 1.751c0 .967.511 1.751 1.141 1.751s1.14-.784 1.14-1.751c0-.967-.51-1.751-1.14-1.751m0 3.16c-.5 0-.9-.631-.9-1.409s.4-1.409.9-1.409s.9.631.9 1.409s-.402 1.409-.9 1.409m5.869-7.604a7.951 7.951 0 0 0-5.959 1.352C6.015 4.179 4.816 5.8 4.573 7.9a6.647 6.647 0 0 0 .919 4.549l.083 7.088a56.094 56.094 0 0 0 12.932.053V9.1c-.173-3.1-1.317-5.607-5.162-6.478M7.6 15.024c-.07 0-.127 0-.127-.4s.057-.4.127-.4s.128 0 .128.4c.003.365-.054.4-.128.4m-.114-1.786c-1.507 0-2.73-1.979-2.73-4.421S5.982 4.4 7.489 4.4c1.507 0 2.73 1.979 2.73 4.421S9 13.238 7.489 13.238zm-1.118 6.67v1.158a38.764 38.764 0 0 0 11.331.1l-.029-1.174a60.541 60.541 0 0 1-11.302-.084"/></svg>