<svg xmlns="http://www.w3.org/2000/svg" width="1em" height="1em" viewBox="0 0 24 24"><path fill="currentColor" d="M12.793 15.976c0-1.8-1.165-3.263-2.6-3.263s-2.6 1.463-2.6 3.263c0 1.8 1.165 3.264 2.6 3.264s2.6-1.464 2.6-3.264m.251.3a3.778 3.778 0 0 1-1.057 2.446a2.842 2.842 0 0 1-.557.419a2.731 2.731 0 0 0 .6-.316a3.318 3.318 0 0 0 1.281-2.769a3.422 3.422 0 0 0-1.4-2.921a2.9 2.9 0 0 0-.273-.164c.046.035.09.072.134.111a3.843 3.843 0 0 1 1.272 3.191zm-.126-9.649c0-1.8-1.166-3.264-2.6-3.264c-1.434 0-2.6 1.464-2.6 3.264c0 1.8 1.165 3.263 2.6 3.263s2.6-1.467 2.6-3.266zm-2.709-2.97a.239.239 0 1 1-.209.262v-.027a.226.226 0 0 1 .209-.238zm0 .643a.36.36 0 0 1 .335.4c0 .183-.125.393-.307.393s-.364-.084-.363-.393a.362.362 0 0 1 .335-.4m0 5.443a.783.783 0 0 1-.7-.838a.757.757 0 0 1 .7-.839a.772.772 0 0 1 .7.839a.775.775 0 0 1-.7.835zm0-1.794A1.216 1.216 0 0 1 9.2 6.648a1.165 1.165 0 0 1 1.011-1.3c.641 0 1.018.657 1.011 1.3c-.007.643-.358 1.3-1.011 1.3zm3.866 13.6V2.436a.352.352 0 0 0-.352-.351l-6.289.231c-.181 0-.277.221-.277.429L7.131 21.1c0 .192.17.437.36.437l6.172.411a.443.443 0 0 0 .412-.4zm-2.239-2.414a4.119 4.119 0 0 1-1.635.3h-.085c-1.553 0-2.816-1.562-2.816-3.482c0-1.92 1.263-3.483 2.816-3.483a3.376 3.376 0 0 1 1.692.4a3.588 3.588 0 0 1 1.718 3.15a3.449 3.449 0 0 1-1.69 3.116zm.075-9.335a3.8 3.8 0 0 1-1.711.3c-.053 0 .049.019 0 0c-.013-.009.005.015 0 0c-.109.016.11 0 0 0c-1.552 0-2.815-1.562-2.815-3.482c0-1.92 1.263-3.48 2.815-3.48c.106 0-.1-.014 0 0a3.348 3.348 0 0 1 1.685.4A3.536 3.536 0 0 1 13.6 6.681A3.539 3.539 0 0 1 11.911 9.8m3.836 10.835v-.075c0-.18-.008-.395-.008-.642l.008-17.258a.376.376 0 0 0-.307-.407l-1.255-.058a.514.514 0 0 1 .06.243a5.894 5.894 0 0 1 .015.728v.069l.012 18.082a.681.681 0 0 1-.05.378a.58.58 0 0 1-.083.16l1.322-.118c.308-.177.306-.289.289-1.1h.05Zm-.293-13.024a.371.371 0 1 1-.741.039a.254.254 0 0 1 0-.039V6.019a.371.371 0 1 1 .741-.038a.241.241 0 0 1 0 .038zm.266-5.4a.532.532 0 0 1 .194.452l-.009 17.256c0 .281.006.521.01.713c.014.65.019.908-.162 1.1c.147.018.317-.249.345-.516l.033-18.526c0-.177-.304-.458-.411-.481zm-4.99 4.431a.636.636 0 0 1-.534.7a.636.636 0 0 1-.534-.7a.636.636 0 0 1 .534-.7a.636.636 0 0 1 .534.7m2.383.315A3.783 3.783 0 0 1 12.056 9.4a2.842 2.842 0 0 1-.557.419a2.753 2.753 0 0 0 .6-.316a3.316 3.316 0 0 0 1.281-2.766a3.422 3.422 0 0 0-1.4-2.921a3.288 3.288 0 0 0-.273-.164c.046.035.09.072.134.111a3.537 3.537 0 0 1 1.272 3.194"/></svg>