<svg xmlns="http://www.w3.org/2000/svg" width="1em" height="1em" viewBox="0 0 24 24"><path fill="currentColor" d="M15.393 12.618a.383.383 0 0 0 .227-.384a.393.393 0 0 0-.09-.208a.472.472 0 0 0-.2-.138a.487.487 0 0 0-.16-.028a.392.392 0 0 0-.344.187a.319.319 0 0 0-.047.213a.373.373 0 0 0 .036.2a.412.412 0 0 0 .12.134a.44.44 0 0 0 .458.024m1.78.03a.539.539 0 0 0 .353-.013a.5.5 0 0 0 .213-.2a.349.349 0 0 0 .036-.146v-.025a.441.441 0 0 0-.794-.187a.242.242 0 0 0-.043.109v.094a.434.434 0 0 0 .025.152a.464.464 0 0 0 .21.216m-3.237-.733a.427.427 0 0 0-.567.145a.5.5 0 0 0-.023.355a.421.421 0 0 0 .592.208a.384.384 0 0 0-.002-.708m-2.85 5.5c-1-.15-1.09 1.752-.171 1.87c1.002.129 1.086-1.73.172-1.87zm9.13-14.338l-11.4-.574a46.54 46.54 0 0 0-5.223.459a.628.628 0 0 0-.558.624v16.96a.4.4 0 0 0 .342.4a34.882 34.882 0 0 0 5.239.683c1.677-.052 9.8-.8 11.633-.945a.859.859 0 0 0 .786-.856V3.933a.859.859 0 0 0-.82-.856zm.466 15.993a1.13 1.13 0 0 1-1.021 1.127l-10.278.737a1.025 1.025 0 0 1-1.052-1.09V4.164a1.04 1.04 0 0 1 1.049-1.1l10.277.567a1.11 1.11 0 0 1 1.025 1.113zm-1.05-15.003L9.356 3.5a.6.6 0 0 0-.583.664v15.678a.589.589 0 0 0 .58.65l10.278-.736a.69.69 0 0 0 .61-.688V4.74a.671.671 0 0 0-.607-.674zM16.085 5.61c.119-.98 1.189-.711 1.09.187c-.118.969-1.2.726-1.09-.187m-4.07-.16c.138-1.034 1.2-.76 1.087.2c-.136 1.026-1.21.773-1.087-.2m-1.34-.055c.143-1.05 1.206-.773 1.084.2c-.142 1.038-1.213.787-1.084-.2m-.92.853c-.68-.082-.532-1.76.194-1.615c.678.098.534 1.743-.195 1.615zm2.285 12.263c-.241 1.649-2.314 1.309-2.073-.327c.243-1.66 2.302-1.288 2.072.327zm-.093-6.081a.2.2 0 0 1 .192-.34a.215.215 0 0 1 .128.179a.208.208 0 0 1-.321.16zm1.07.409a.3.3 0 0 1-.115 0c-.007-.006-.12-.267-.25-.585a3.388 3.388 0 0 0-.283-.636a.235.235 0 0 0-.322.005a.926.926 0 0 0-.087.183a.524.524 0 0 1-.134.226a.332.332 0 0 0-.1.292c.009.05-.007.108-.087.319l-.1.26h-.107c-.1 0-.107 0-.1-.036c.03-.126.5-1.318.543-1.37a.416.416 0 0 1 .338-.143a.52.52 0 0 1 .339.163a6.945 6.945 0 0 1 .3.7l.258.619zm1.27.324l-.11.006v-.208a.848.848 0 0 0-.012-.207a1.074 1.074 0 0 0-.136.06a.693.693 0 0 1-.542.022a.616.616 0 0 1-.017-1.124a.459.459 0 0 1 .272-.026a.553.553 0 0 1 .27.06a.655.655 0 0 1 .368.477c.008.053.015.285.016.516v.418zm.2-7.461c-.13 1.012-1.2.762-1.088-.2c.134-1.016 1.2-.742 1.09.2zm1.248 7.155h-.1v-.062c0-.07-.017-.075-.092-.027a.877.877 0 0 1-.341.106a.709.709 0 0 1-.153-.014a.6.6 0 0 1-.383-.256a.636.636 0 0 1 .027-.727a.571.571 0 0 1 .549-.206a.654.654 0 0 1 .533.357l.053.1l.005.359v.358zm.1-7.123c-.124 1-1.2.748-1.09-.193c.124-1.008 1.192-.733 1.087.193zm.826 6.058v.09h-.07a.39.39 0 0 0-.253.115c-.1.1-.113.178-.113.559v.329l-.1.009l-.1.009l.006-.407l.005-.406l.049-.1a.554.554 0 0 1 .485-.3h.1zM18 12.882h-.218v-.062c0-.033-.006-.061-.013-.061a1.063 1.063 0 0 0-.13.06a.555.555 0 0 1-.243.072a.879.879 0 0 1-.188 0a.675.675 0 0 1-.3-.16a.623.623 0 0 1-.184-.5a.6.6 0 0 1 .355-.535a.468.468 0 0 1 .272-.03a.54.54 0 0 1 .27.056a.653.653 0 0 1 .367.463a3.3 3.3 0 0 1 .016.374v.282zm.565-7.053c-.112.956-1.192.713-1.092-.185c.11-.968 1.182-.697 1.089.185zm1.343.054c-.107.943-1.187.7-1.093-.183c.105-.952 1.178-.684 1.09.183z"/></svg>