<svg xmlns="http://www.w3.org/2000/svg" width="1em" height="1em" viewBox="0 0 144 144"><path fill="currentColor" d="M75 102v12h20a15.7 15.7 0 0 1 1 5c-11.97 4-32.952 1.085-47 1a15.7 15.7 0 0 1-1-5c5.123-1.742 14.248-1.078 21-1v-12c-23.089-2.344-27-18.829-27-45c0-9.1-.46-18.2 3-24c4.057-6.806 12.27-12.885 21-15c17.739-4.3 31.547 9.373 35 20c2 6.157 1 15.364 1 23v17c-3.291 12.8-12.395 22.47-27 24m2-76c-.372-2.076-.242-1.924-1-3c-1.69-1.142-4.9-1.066-8-1c-.788 1.725-2.627 1.84-1 3c1.992 1.337 6.507 1.1 10 1m-10 6c-1.073.752-.946.6-3 1c-1.807 2.718-3.777 3.544-5 7c-3.376 4.11-1.209 9.367 0 14c2.389 1.556 2.924 2.923 6 4c4.377 3.6 11.183 1.249 16 0c3.371-5.051 5.954-6.92 6-16c-3.1-3.193-5.985-6.788-9-10zm2 3l9 1c1.556 2.389 2.923 2.924 4 6c1.049 1.549 1.031 4.085 1 7c-2.089 2.143-4.01 4.818-6 7c-4.527.329-6.728 1.39-10-1c-4.4-1.43-8.679-9.248-5-15Zm0 4c-2.379 3.549-3.857 3.586-4 10c3.049 1.913 4.245 3.35 9 4c3.245-3.292 4.91-3.032 5-10c-.8-1.021-.355-.274-1-2c-3.3-.973-4.127-1.85-9-2M47 65l-1 3h52v-2h-1v-1zm17 23v2h16v-2z" class="cls-1"/></svg>