<svg xmlns="http://www.w3.org/2000/svg" width="1em" height="1em" viewBox="0 0 108 108"><path fill="currentColor" d="M19 25h56c12.308 0 23.506.542 26 10c3.442 3.337 2.011 19.942 2 27c0 3.171.515 7.327-1 9c-.361 1.723-3.088 7.284-4 8h-2l-1 2c-1.8 1.17-2.242.012-4 2H37c-4.6 0-17.677 1.037-20-1c-1.723-.362-7.283-3.088-8-4v-2l-2-1c-1.17-1.8-.012-2.242-2-4V38h1l1-5l5-4v-1h2v-1l5-1zm-7 8l-1 3h-1v2H9v32h1l1 4l7 5h6c4.635.037 18.727 1.031 21-1c-9.362-2.322-12.592-21.226-9-33l1-8c1.532-3.327 5.763-5.349 8-8H19v1h-2v1h-2v1Zm39-3v2h6v-2c-3.715-.594-2.289-.58-6 0m45 3c-3.165-.8-4.731-3.179-7-4H63v1h2l4 5h1l1 4h1c.882 2.327 2.041 21.479 1 25h-1v5h-1l-1 4l-7 6h27c1.165-1.361 1.825-1.528 4-2l5-7V38h-1v-2h-1Zm-47 1c-3.233 3.74-7.21 3.267-8 10c-2.79 3.054-.435 20.114 0 24c2.452 1.531 1.537 2.849 3 4h2v1c1.228.969 1.94.706 3 2h10v-1l4-1l5-7c1.044-2.913-.05-21.94-1-23c-1.375-5.666-5.026-5.5-8-9zm4 1c5.615.831 10.719 2.779 12 8c2.928 2.922 2.876 20.057 0 23a7.536 7.536 0 0 1-6 6c-3.345 3.54-7.922.915-12 0l-5-6c-.39-5.633-2.626-19.085 1-23c1.018-4 3.807-4.38 6-7h4zm-1 4v1h-3v1l-2 1v2h-1a40.145 40.145 0 0 0 1 9c4.478 2.261 11.958 5.518 14-2h1v-7c-1.3-1.048-1.489-2.043-3-3v-1Zm-1 2h6c2.5 3.75 5.945 5.3 2 10c-1.8 2.144-.308.752-3 2v1c-4.775 1.554-10.7-4.582-8-10a22.951 22.951 0 0 0 3-3m2 2c-2.672 3.265-2.914.388-3 7a7.485 7.485 0 0 1 3 2c2.01-.574.865.12 2-1c3.4-.88 3.065-1.861 3-6c-1.876-.823-2.616-1.481-5-2m-4 26v2h10v-2z" class="cls-1"/></svg>