<svg xmlns="http://www.w3.org/2000/svg" width="1em" height="1em" viewBox="0 0 144 144"><path fill="currentColor" d="M67 24c20.194-.37 22.777 8.1 32 18c3.289 35.219-13.141 30.93-47 30c-2.551-6.76-13.8-19.161-6-30c3.19-11.8 12.19-11.887 21-18m1 15c-3.807 2.925-7.221 2.847-9 8c-3.491 4.248-1.23 10.276 0 15c7.01 5.005 21.819 10.6 26-2c3.491-4.248 1.23-10.276 0-15c-2.389-1.556-2.924-2.923-6-4c-2.522-2.023-6.21-2.1-11-2m2 7l6 1c2.046 3.241 2.988 4.032 3 10c-.8 1.021-.355.274-1 2c-4.874 1.367-9.351 3.484-12-2c-1.049-1.549-1.031-4.085-1-7a24.976 24.976 0 0 0 5-4m-2 30v17a21.51 21.51 0 0 0 7 1c1.488-4.357 1.075-12.072 1-18h17c4.6 7.653 8.906 12.092 9 25c-13.2 4.393-42.968 1.08-59 1a28.9 28.9 0 0 1-1-9c8.779-13.3 1.693-17.742 26-17m-25 29h58v2c-2.851 3.661-4.686 11.075-9 13H52c-3.394-5.136-7.274-7.728-9-15" class="cls-1"/></svg>