<svg xmlns="http://www.w3.org/2000/svg" width="1em" height="1em" viewBox="0 0 144 144"><path fill="currentColor" d="M64 4c28.057-.483 44.713 9.24 52 29c3.221 8.734 2 21.632 2 33c0 41.429-4.854 62.372-38 70c-25.365 5.837-46.526-14.168-52-29c-3.55-9.618-2-24.568-2-37c0-12.388-1.6-27.441 2-37c4.444-11.8 15.164-22.6 27-27c3.3-1.227 6.5-.392 9-2m3 16c-10.349 6.85-19.421 7.41-24 20c-7.008 19.267 13.268 43.218 32 39c37.5-8.444 36.005-60.118-8-59m0 8c32.538-1.161 35.006 37.309 10 44c-14.5 3.881-31.222-12.393-27-27c2.8-9.689 9.865-11.67 17-17m1 8c-5.866 5.423-10.133 6.006-10 18a501.52 501.52 0 0 0 10 10h8a501.52 501.52 0 0 0 10-10v-8a501.52 501.52 0 0 0-10-10zM34 88c-.742 52.571 76.728 52.584 76 0z" class="cls-1"/></svg>