<svg xmlns="http://www.w3.org/2000/svg" width="1em" height="1em" viewBox="0 0 144 144"><path fill="currentColor" d="M75 111h14a15.7 15.7 0 0 1 1 5c-8.786 2.951-24.337 1.083-35 1a15.7 15.7 0 0 1-1-5c3.609-1.24 9.883-1.071 15-1v-7c-10.8-2.952-29.6-26-38-34c-.347-4.471-1.674-6.905 0-11c2.261-5.53 7.474-8.584 12-12c10.549-7.962 14.406-23.088 33-23c10.441 9.91 36.7 25.057 38 42c-1.128 1.512-.88 4.258-2 6c-4.417 6.873-19.431 18.5-26 25c-4.868 4.82-10.7 4.157-11 14m-9-67c-5.877 4.464-12.449 5.085-14 14c-3.482 4.975-.387 11.543 1 17c11.427 7.824 11.534 10.326 29 8c2.943-3.725 7.218-4.957 9-10c4.112-5.079 1.945-11.547 1-18c-8.288-6.563-9.664-11.182-26-11m5 5c9.279 1.668 10.824 4.793 16 10a43.915 43.915 0 0 1-2 14c-9.581 6.356-11.077 6.289-23 3c-2.257-3.29-8.248-10.666-4-17c1.585-5.075 4.8-5.793 8-9c2.532-.074 3.716-.12 5-1m-1 6c-1.073.752-.946.6-3 1c-1.283 2.072-2.077 2.3-3 5c-1.049 1.549-1.031 4.085-1 7c4.109 2.77 4.635 4.862 12 5c3.8-3.819 6.031-3.8 6-12c-1.514-1.411-2.209-2.764-4-4c-1.895-1.521-3.589-1.789-7-2"/></svg>