<svg xmlns="http://www.w3.org/2000/svg" width="1em" height="1em" viewBox="0 0 144 144"><path fill="currentColor" d="m66 24l17 1v1h2v1h3v1l3 1l1 2h2l3 4h1v2l2 1v2l2 1v3h1v2h1c2.259 5.839 1 15.6 1 23v25c-4.436 14.477-12.25 21.775-27 26c-7.708 2.208-17.129-1.942-21-4l-4-1l-1-2h-2l-3-4h-1v-2l-2-1l-1-3h-1c-3.976-7.461-3-19.739-3-31c0-8.135-1.556-19.535 1-26h1v-2h1v-3l2-1v-2l2-1v-2l4-3v-1h2l1-2h2v-1l4-1v-1l7-1zm0 12v1h-3c-1.19 1.35-1.7.992-3 2v1h-2l-6 8c-1.777 4.026-1.629 15.4 1 18c.452 1.939 2.706 6.057 4 7h2v1l3 1l1 2c4.692 2.423 13.19.538 18 0c1.888-2.729 3.53-2.179 6-4l1-2h1v-2l2-1c2.274-3.72 3.374-16.65 0-20c-2.3-9.769-12.241-12.265-25-12m1 6l13 1l7 8c.343 4.47 1.213 5.419 0 9v4h-1c-1.373 5.278-5.986 5.575-9 9H67c-1.722-2-2.325-.844-4-2l-6-7c-.343-4.47-1.213-5.419 0-9v-4h1v-2l6-5v-1h3zM45 85c-.208 10.507 2.827 16.022 8 21l1 2h2l1 2h2l1 2h3v1c2.045.8 11.8 2.044 15 1v-1h3v-1h3v-1l3-1l1-2h2l3-4h1v-2l2-1l1-4h1l1-12z" class="cls-1"/></svg>