<svg xmlns="http://www.w3.org/2000/svg" width="1em" height="1em" viewBox="0 0 24 24"><path fill="currentColor" d="m21.367 18.67l-.105-.018c-.04-.005-.079-.01-.116-.013a1.01 1.01 0 0 0-.1 0a2.113 2.113 0 0 0-.417.037a2.633 2.633 0 0 0-.3.075v1.726h.324v-1.541h.012c.02-.005.064-.014.129-.026a1.036 1.036 0 0 1 .2-.02a1.348 1.348 0 0 1 .253.02c.054.01.1.02.125.028l.055-.254zm-2.232-.043a1 1 0 0 0-.332.058a.831.831 0 0 0-.285.176a.871.871 0 0 0-.2.295a1.092 1.092 0 0 0-.075.419a1.192 1.192 0 0 0 .058.377a.782.782 0 0 0 .179.294a.818.818 0 0 0 .3.2a1.237 1.237 0 0 0 .444.072a1.687 1.687 0 0 0 .366-.036a1.084 1.084 0 0 0 .214-.061l-.044-.244a1.462 1.462 0 0 1-.178.052a1.44 1.44 0 0 1-.319.03a.713.713 0 0 1-.5-.151a.657.657 0 0 1-.185-.443v-.017h1.364v-.101a.987.987 0 0 0-.21-.691a.79.79 0 0 0-.597-.229m.474.784H18.59v-.018a.76.76 0 0 1 .049-.19a.541.541 0 0 1 .1-.167a.534.534 0 0 1 .164-.118a.524.524 0 0 1 .222-.046a.446.446 0 0 1 .354.148a.542.542 0 0 1 .125.375zm-2.034-.004a8.967 8.967 0 0 1-.252.733l-.01.032l-.016-.03a7.876 7.876 0 0 1-.466-1.139a6.972 6.972 0 0 1-.1-.331h-.35a7.631 7.631 0 0 0 .339.938a9.437 9.437 0 0 0 .449.894v.014a.759.759 0 0 1-.219.286a.568.568 0 0 1-.338.089a.586.586 0 0 1-.136-.016a.778.778 0 0 1-.094-.028l-.057.234l.037.012c.024.007.05.012.079.019l.088.014h.086a1.061 1.061 0 0 0 .277-.034a.662.662 0 0 0 .218-.107a.832.832 0 0 0 .179-.185a1.874 1.874 0 0 0 .157-.27c.129-.274.251-.575.363-.891c.112-.316.21-.637.3-.973h-.335c-.061.254-.129.501-.199.739m-1.622-.59a.58.58 0 0 0-.232-.141a1.139 1.139 0 0 0-.356-.05a2.18 2.18 0 0 0-.345.026a1.242 1.242 0 0 0-.214.049l.037.24a1.429 1.429 0 0 1 .181-.042a1.779 1.779 0 0 1 .311-.024a.575.575 0 0 1 .229.039a.373.373 0 0 1 .142.1a.355.355 0 0 1 .072.147a.742.742 0 0 1 .02.163v.111h-.02l-.053-.01l-.089-.016a1.534 1.534 0 0 0-.107-.015c-.037-.004-.075 0-.11 0a1.551 1.551 0 0 0-.318.032a.86.86 0 0 0-.263.1a.5.5 0 0 0-.177.171a.484.484 0 0 0-.065.252a.575.575 0 0 0 .056.264a.454.454 0 0 0 .156.175a.7.7 0 0 0 .239.1a1.4 1.4 0 0 0 .307.031c.078 0 .158 0 .237-.009c.079-.009.154-.012.223-.019c.069-.007.131-.014.185-.022l.115-.018V19.31a.98.98 0 0 0-.038-.279a.521.521 0 0 0-.123-.214m-.153 1.421h-.012a1.238 1.238 0 0 1-.166.02h-.224a.71.71 0 0 1-.34-.071a.272.272 0 0 1-.13-.259a.249.249 0 0 1 .053-.163a.374.374 0 0 1 .13-.1a.636.636 0 0 1 .169-.045a1.549 1.549 0 0 1 .383 0a.5.5 0 0 1 .129.031h.009zm-1.665-.054a.2.2 0 0 1-.054-.091a.489.489 0 0 1-.016-.138v-1.748l-.324.051v1.75a.481.481 0 0 0 .132.372a.7.7 0 0 0 .443.126l.044-.244a1.142 1.142 0 0 1-.127-.025a.249.249 0 0 1-.098-.053m-1.009-1.298a.876.876 0 0 0-.308-.186a1.188 1.188 0 0 0-.408-.066a2.535 2.535 0 0 0-.435.033a8.41 8.41 0 0 0-.3.058v2.4H12v-.744l.024.014a.927.927 0 0 0 .193.08a1 1 0 0 0 .3.041a.98.98 0 0 0 .375-.068a.776.776 0 0 0 .275-.194a.87.87 0 0 0 .171-.3a1.2 1.2 0 0 0 .058-.379a1.066 1.066 0 0 0-.069-.393a.826.826 0 0 0-.201-.296m-.1.955a.6.6 0 0 1-.1.217a.508.508 0 0 1-.184.145a.644.644 0 0 1-.268.052a.8.8 0 0 1-.273-.046a.777.777 0 0 1-.191-.1h-.007v-1.176h.013a1.013 1.013 0 0 1 .145-.025a2.349 2.349 0 0 1 .252-.01a.636.636 0 0 1 .47.177a.686.686 0 0 1 .177.5a1.18 1.18 0 0 1-.038.266zm6.826-3.49c0 .406.267.52.681.626c.342.087.413.146.413.26v.006c0 .12-.111.193-.3.193a.943.943 0 0 1-.613-.248l-.267.318a1.313 1.313 0 0 0 .871.328c.442 0 .754-.229.754-.635v-.006c0-.357-.235-.506-.651-.615c-.355-.09-.443-.133-.443-.268v-.01c0-.1.091-.178.264-.178a.966.966 0 0 1 .534.2l.234-.339a1.193 1.193 0 0 0-.763-.26a.641.641 0 0 0-.718.617zm-.4-.194v-.401h-1.548v2.048h1.563v-.4h-1.114v-.431h.967v-.401h-.967v-.415ZM16.988 17.8h.528l-.5-.732a.636.636 0 0 0 .44-.635v-.006c0-.422-.29-.676-.774-.676h-.939V17.8h.452v-.656h.355zm-.795-1.642h.449c.22 0 .355.1.355.293v.006c0 .172-.126.289-.346.289h-.458zm-1.464 1.646v-1.632h.625v-.416h-1.701v.416h.625v1.632zm-2.321-2.063l-.879 2.059h.46l.188-.459h.869l.187.459h.472l-.879-2.063zm-.069 1.206l.272-.665l.273.665zM20 9.68a.341.341 0 0 0-.139-.271L9.64 2.063a.335.335 0 0 0-.391 0l-5.11 3.673a.335.335 0 0 0 0 .543l4.733 3.4l-4.733 3.4a.334.334 0 0 0 0 .542L9.247 17.3a.347.347 0 0 0 .2.063a.338.338 0 0 0 .2-.064l10.215-7.348A.334.334 0 0 0 20 9.68M9.445 16.616l-4.537-3.261l4.731-3.4a.335.335 0 0 0 .139-.27a.339.339 0 0 0-.139-.272l-4.733-3.4l4.538-3.266l9.648 6.935z"/></svg>