<svg xmlns="http://www.w3.org/2000/svg" width="1em" height="1em" viewBox="0 0 24 24"><path fill="currentColor" d="m13.768 12.974l-.006-.001l-3.476.502v.083l3.475-.502l2.186.35l-.004-.084zm-5.64 1.989l2.087-.361l-.015-1.744l-2.072.259zm1.741-1.717c.059 0 .107.079.107.178c0 .099-.05.176-.109.176s-.105-.079-.105-.176c0-.097.048-.178.107-.178m1.391.408l-.972.15l.001.084l.971-.15zm-4.434.768l.264-.041v-.083l-.264.04zm0-.364l.264-.038v-.083l-.264.038ZM15.863 9.8l2.676.059v-3.39l-2.676.231Zm.247-2.87l2.182-.192v2.876l-2.182-.048Zm-9.284 7.896l.264-.043V14.7l-.264.043zm-4.35-3.877l.251.024V7.09l-.251.058Zm1.968-3.842L2.876 7.08v3.9l1.568-.075zm-.3 3.549l-.957.041V7.4h.974Zm1.938.159l.033-3.677l-1.568-.027l.012 3.789ZM5.832 7.4l-.01 3.173l-.957.052L4.857 7.4ZM3.385 18.763l-.032-5.029l-.819-.254v4.687zm6.907-4.501l.968-.158v-.083l-.969.157zm.328.697l.174.052l.466-.085v-.083zm-1.779.234l1.058.346a1.132 1.132 0 0 0 .6.027l1.05-.245a.011.011 0 0 0 .008-.009a.012.012 0 0 0-.007-.01l-1.26-.376zm1.455-.505l.964-.169v-.083l-.965.169zm-3.47-1.051l.264-.035v-.083l-.264.035zm1.899 2.584a.371.371 0 0 0-.112-.088a.413.413 0 0 1-.157-.133a.827.827 0 0 1-.018-.75l.012-.037l.037.01l.113.033h.025l-.171-.056l1.707-.314h.018l.036-.006v-.193l-2.083.359l-.006-.034v2.477l.575-.133a1.2 1.2 0 0 1 .043-.571c.056-.226.1-.421-.019-.564m2.175.173c.014-.042.065-.048.2-.065s.387-.047.41-.132a2.262 2.262 0 0 0 .075-.695a4.489 4.489 0 0 1-1.515.3a3.38 3.38 0 0 1-.764-.222a10.863 10.863 0 0 0-.806-.268a.724.724 0 0 0 .021.64a.322.322 0 0 0 .129.111a.438.438 0 0 1 .135.107c.147.175.093.4.036.637a1.059 1.059 0 0 0-.033.569l1.19.477a3.748 3.748 0 0 0 .986-.265a4.548 4.548 0 0 0-.047-.571a1.787 1.787 0 0 1-.017-.623m.453-2.794v1.581l.228.068a.07.07 0 0 1 .041.064v.032a.1.1 0 0 1 0 .024a.073.073 0 0 1-.009.032h.007l.023.017a1.443 1.443 0 0 1-.025.7l6.3 2l-.065-3.218zm-.34 3.5c.009.075.018.149.024.223l3.09 1.174l2.1-.755l-3.562-1.129zM2 2v20h20V2Zm11.767 9.647l-1.394.148v-.29l1.386-.148l7.991.771v.369zm7.986 1.292l-7.986-.979l-1.391.15v-.232l1.4-.152l7.976.854zm-7.991-1.664l-1.383.147v-.255l1.395-.11l7.979.673v.316zm.012-.3l-1.395.11v-.31l1.393-.077l7.979.58v.369zm0-.359l-1.384.076v-.268l1.373-.052l7.991.5v.324zm1.926-.648V6.553l3-.264v3.745zm4.915-7.721l-6.838 1.407L5.99 2.247ZM8.915 4.7v-.207l3.351.348l.04 5.5v.066l-.013 1.71l-3.374.366v-2.91l2.848-.083l.033-4.509ZM2.394 11V7.082l.416-.095V7l1.716.029l1.674.028l-.018 1.773l.018 1.94l2.633-.124v.33l-6.585.441V11Zm-.147.5l6.585-.441v.313l-6.585.553zm0 .507l6.585-.553v.3l-6.585.611zm1.887.932l-.055.071l-1.832.2v-.343l1.874-.186zm.351.219a3.977 3.977 0 0 1 1.491-.015c.015.079-.675.147-1.009.177a5.481 5.481 0 0 1-1.447.064c0-.09.652-.184.965-.226m.22-.625l-.287-.069v-.1l.264-.048l-.366-.061l4.516-.419v.278zm4.127-.32v.28l-4.388.476v-.321l.111-.01l.02.006l.233-.031zm-6.585.231l1.853-.173l.006.118v.1l.006.108l-1.87.19zm19.53 9.31H2.247v-3.478l.227-.05l-.022-.016v-.31l-.205.043v-.457l.205-.04v-.084l-.205.041v-.352l.205-.04v-.081l-.205.04v-.413l.205-.037v-.083l-.205.037V16.1l.205-.035v-.084l-.205.036v-.44l.205-.034v-.083l-.205.033v-.36l.205-.032v-.083l-.205.032v-.33l.205-.03v-.083l-.205.03v-.387l.205-.027v-.083l-.205.027v-.4l.205-.024v-.083l-.205.024v-.4l1.844-.2l.02.011l-1.8.2l.842.282h-.012l.192.059l.033.011l.019.007l3.651-.454l.054-.007v-.083l-.162.02l-.987-.23l-1.453.158l-.01-.012l9.283-1.007l7.992.98v.355l-7.986-1.067l-3.618.434l.168.022h-.032v.04l3.482-.418l7.991 1.068v.347l-4.841-.711v.083l4.841.711v.369l-4.841-.775v.075l.041.015l4.8.768v.306l-1.484-.256v.083l1.486.256v.4l-1.5-.282v.083l1.5.283v.307l-1.5-.286v.083l1.506.287v.421l-1.515-.31v.083l1.517.311v.331l-1.524-.33v.084l1.526.33v.447l-1.536-.357v.084l1.538.358v.263l-1.544-.352v.179l-.159.079l1.708.408zm-3.709-3.651l2.055-1.015l.065-2.776l-2.191.575zm-.082-3.303l.676-.175h.007l.185-.049l.525-.136l.895-.231l.026-.009l-3.4-.562l-.113.03l-.209-.029l-.029-.035l.022-.02l-.416-.069l-.044.018l-.163-.033v-.019l-2.248-.374l-2.447.375l.49.1h-.026l.236.047h.024l.759.153h-.018l.231.046h.016l1.307.263l-.342-.065l1.538.306l2.434.49h.028L18 14.8ZM12.1 13.538a.043.043 0 0 1 0-.085l1.306-.2a1.647 1.647 0 0 1 .171-.016l.357.632zm5.495.981l-3.55-.634l-.369-.654a1.73 1.73 0 0 1 .259.022l5.239.879a.046.046 0 0 1 .029.058a.049.049 0 0 1-.029.029l-1.2.288a.921.921 0 0 1-.374.012Zm-9.509-1.512l1.91-.246l-.73-.097l-1.929.206Zm-1.26 3.569l.264-.053v-.084l-.264.053zm0-1.281l.264-.046v-.084l-.264.046zm0 .434l.264-.048v-.084l-.264.048zm0 .425l.264-.052v-.084l-.264.052Zm1.182-3.046l-.836-.156v4.155l.818.37zm-1.182 4.153l.325-.072l-.061-.028v-.247l-.264.056ZM5.34 18.309l1.4-.353v-4.613l-1.44.177Zm1.16-4.636l.032.293l-.946.142l-.05-.3zm-3 .064l.047 5.056l1.713-.463l-.085-4.793Zm.411.593l-.045-.3l.963-.144l.027.295zm11.985-1.123l.061.004l.012.225l-.004.05l.142.029l.099-.041l-.001-.02l-.03-.007v-.223l.204-.027h.002l.18.026l.035-.001l.012.359l-.032.028l.011.014l.199.028l.161-.042v-.018l-.055-.02v-.598l-.178-.009l-.236.056v.016l.127.017l-.002.089l-.423-.048l-.002-.193l-.17-.022l-.179.041v.013l.129.021l.002.174l-.06.02zm.041-.24l-.129-.021v-.02l-2.04-.299l-.006-.001l-3.48.466l.001.082l3.479-.465l2.176.32z"/></svg>