<svg xmlns="http://www.w3.org/2000/svg" width="1em" height="1em" viewBox="0 0 96 96"><path fill="currentColor" d="M15 27c18.769-.084 44.325-2.022 61 1l1 3h1v2h1v9c.01 8.77 1.562 19.642-4 23c-2.722 2.786-9.547 2-15 2H26c-6.829-.007-12.464.315-14-5c-2.12-2.315-1.024-19.073-1-24v-7h1Zm1 4c-2.692 7.283-1.053 20.878-1 30l3 1c2.275 2.027 9.961 1 14 1c13.291 0 29.387 1.191 41-1l1-3c2.619-2.866.74-23.245 0-27c-1.135-.844-.145.127-1-1zm3 4h16v23c-3.809 1.422-10.65 1.048-16 1zm64 4h6l1 3c2.281 2.395.56 8.348 0 11l-3 1v1h-4z" class="cls-1"/></svg>