<svg xmlns="http://www.w3.org/2000/svg" width="1em" height="1em" viewBox="0 0 24 24"><path fill="currentColor" d="m9.882 9.11l-.133-.042l.066.512l.088 1.114l.059.295l.084-.195l.07-.331l-.142-.809zm.85-7.187l-.246.019h-.045l-.25.02a.17.17 0 0 0 .081.012v.08c-.324.055-.282.1-.282.1l.088.295l.045.149l.146.484a6.8 6.8 0 0 0 2.093.205a11.631 11.631 0 0 0 2.1-.154c.05-.013.075-.027.072-.04l.03-.091c.076-.235.27-.832.255-.823c-.014.009.021-.07-.286-.134v-.06a.994.994 0 0 0 .123-.026a33.32 33.32 0 0 0-.538-.048h-3.386zm3.645 1.066l-.063.009c-.174.025-.35.047-.526.065a12.872 12.872 0 0 1-1.4.069h-.076a7.491 7.491 0 0 1-1.885-.143a13.585 13.585 0 0 1 1.751-.11h.257c.52 0 1.011.018 1.371.04h.04c.22.016.385.03.473.045a.186.186 0 0 1 .074.017zm-.033 7.194l-.079-1.024l-.069-.535a.044.044 0 0 0-.07-.03l-.429.327a.281.281 0 0 1-.12.053L13.433 9a.5.5 0 0 1-.3-.036l-.772-.345a.045.045 0 0 0-.018 0a.05.05 0 0 0-.027.009a.044.044 0 0 0-.016.043l.11.625l.14.777l-.077.342l-.124.279a.074.074 0 0 0 .007.073a.07.07 0 0 0 .064.03l.731-.105a3.371 3.371 0 0 1 .512-.034l.7.006a.061.061 0 0 0 .043-.025a.063.063 0 0 0 .012-.053zm-4.492.429L9.765 9.5l-.075-.583a.052.052 0 0 0-.033-.042a.051.051 0 0 0-.053.007l-.47.356a.3.3 0 0 1-.13.057l-.16.029a.56.56 0 0 1-.323-.04l-.846-.373a.053.053 0 0 0-.054 0a.052.052 0 0 0-.019.05l.12.68l.153.846l-.083.37l-.136.3a.085.085 0 0 0 .008.084a.083.083 0 0 0 .075.036l.8-.115a3.76 3.76 0 0 1 .561-.038l.771.008a.074.074 0 0 0 .051-.03a.076.076 0 0 0 .014-.06zm2.284-1.214l.083 1.09l.038.192a.161.161 0 0 1 .01-.03l.121-.273l.067-.31l-.136-.755l-.06-.344l-.184-.062zM8.83 9.23l.157-.028a.211.211 0 0 0 .09-.04l.207-.157a.124.124 0 0 0-.115-.075l-.269.107l-.49.093l.152.068a.465.465 0 0 0 .268.032m4.588-.324l.062-.012l-.04-.147a.047.047 0 0 0-.058-.015l-.253.123l.047.02a.419.419 0 0 0 .242.03m-2.259.235l.148-.028a.2.2 0 0 0 .083-.038l.1-.08v-.015a.076.076 0 0 0-.042-.052a.081.081 0 0 0-.068 0l-.415.2a.41.41 0 0 0 .194.013M7.78 10.49l-.152-.827l-.119-.681a.134.134 0 0 1 0-.04a.268.268 0 0 0-.327.232l.138.8l.01.494l.076.548l-.148.076v.042h.312l.134-.3zm-.546-.022l-.01-.492l-.1-.56a1.626 1.626 0 0 0-.365.083a1.155 1.155 0 0 0-.28.14a.533.533 0 0 1-.266.1a.767.767 0 0 1-.36-.055a.365.365 0 0 0-.1-.026a.029.029 0 0 0-.022.007c-.059.055-.01.315.141.485a.885.885 0 0 0 .115.1a1.183 1.183 0 0 1 .215.2a.738.738 0 0 1 .088.12a.174.174 0 0 0 .036.045c.087.076.251.1.77-.031l.145-.037zm-4.04.585l.967-.076l-.355-.044l.064.025l-.179.045l-.369.035l-.187-.027l.077-.061l-.344.024zm3.814 2.64a.621.621 0 0 1 .111.03c-.106-.327.14-.232.157-.386a2.224 2.224 0 0 1 1.034-1.59a23.522 23.522 0 0 1 3.73-.633l-.633-.006a3.438 3.438 0 0 0-.517.036l-.764.113h-.013a.171.171 0 0 1-.135-.066a.168.168 0 0 1-.11.054l-.776-.007a3.582 3.582 0 0 0-.547.036l-.806.116h-.014a.18.18 0 0 1-.112-.038a.531.531 0 0 0-.095.04a2.224 2.224 0 0 0-1.034 1.59c-.019.167.02.05.2.484a.618.618 0 0 0 .324.228m2.46 8.086l.032.026h12.485v-5.36l-.072.024l-12.177 3.918a.808.808 0 0 0-.268 1.392M2.444 8.104a6.2 6.2 0 0 0 1.593-.04H4.03a6.193 6.193 0 0 0-1.586.04m1.685-.02a5.913 5.913 0 0 1-1.05.089H3.03a5.128 5.128 0 0 1-.677-.042l.038 1.266a5.485 5.485 0 0 0 .961.084h.021a3.2 3.2 0 0 0 .756-.082zm-.909 2.905l.1.015l.363-.036l.07-.017l-.066-.026l-.055-.138l-.082-.175l-.066-1.1h-.222v.256l.015.362l.023.5l-.035.32zm-.054.108l-.347-.093l.006.37l.347.14zm1.016-.077l-.987.078l.007.42l.98-.112zm-1.382.259l-.528.037v.57l2.851-.268l-.575-.462l-.33.024v.258l-1.05.12l-.002-.02l-.364-.147zm-.422 1.948l.012.713l2.698-.336l.005-.71zm2.716.657l-2.698.34l.006 1.129l2.692-.393zm.016-2.06l-2.725.272l.008.885l2.695-.33zm8.903-4.201a5.849 5.849 0 0 0 1.362-.032h-.007a5.874 5.874 0 0 0-1.355.032m.194.877a.139.139 0 0 1 .084.112l.018.139c.2.015.4.019.48.02h.018a3.032 3.032 0 0 0 .668-.068V7.612a5.558 5.558 0 0 1-.928.074H14.5a4.657 4.657 0 0 1-.593-.035l.031.97l.132-.1a.137.137 0 0 1 .138-.021m.55.819l.02.42l-.033.273h.017l.294-.026l-.046-.11l-.076-.143l-.059-.933h-.13v.21zm.486.728l.252-.02l-.168-.02l.031.013zM5.237 13.722v1.119l4.306 4.622l-.268-3.037l-4.039-3.487l-.006.783zm16.508-.246l-12.324 2.97l.274 3.12l12.05-3.954zM8.088 14.619c-.193-.206-.88-.71-.926-.816h-.06l.058-.006a1.009 1.009 0 0 1-.03-.083a.621.621 0 0 0-.112-.03a.618.618 0 0 1-.323-.227l-.679-.6a5.22 5.22 0 0 1-.394-.4c-.006.035-.292-.185-.275-.331a.906.906 0 0 1 .062-.658s.023-.245.576-.566a1.885 1.885 0 0 1 .5-.132a.351.351 0 0 1-.219-.084a.251.251 0 0 1-.054-.067a.642.642 0 0 0-.079-.107a1.063 1.063 0 0 0-.2-.185a.815.815 0 0 1-.129-.113c-.159-.178-.255-.5-.136-.617c.061-.057.137-.03.218 0a.7.7 0 0 0 .32.05a.434.434 0 0 0 .222-.088a1.269 1.269 0 0 1 .3-.151a1.684 1.684 0 0 1 .38-.087l-.024-.142v-.006a.366.366 0 0 1 .15-.261a.361.361 0 0 1 .3-.058h.016l.016-.014a.147.147 0 0 1 .148-.018l.543.242l.621-.118l.27-.11h.008a.223.223 0 0 1 .206.11l.182-.134a.145.145 0 0 1 .147-.02a.149.149 0 0 1 .082.088l.132.042v-.017a.148.148 0 0 1 .055-.142a.139.139 0 0 1 .144-.016l.74.339l.492-.238a.172.172 0 0 1 .15 0a.174.174 0 0 1 .085.092l.162-.128a.171.171 0 0 1 .032-.04a.157.157 0 0 1 .053-.026l.018-.014a.137.137 0 0 1 .14-.02a.14.14 0 0 1 .082.089l.183.062l-.03-.175a.139.139 0 0 1 .051-.134a.136.136 0 0 1 .141-.017l.613.274l.324-.158a.142.142 0 0 1 .185.056l.005.012l.042.16a.183.183 0 0 0 .068-.03l.158-.121l-.054-1.426L4.52 7.14l.108 4.019l.617.5l-1.013.095l.02.017l1.006-.1l-.025.947l4.167 3.6l12.038-2.862l-.666-.267a.508.508 0 0 1-.1.08l-11.027 2.43a2.1 2.1 0 0 1-.7-.304l-.129.029zm1.985-12.15l-3.242-.4l-1.076-.14l2.4.133h2.11v-.077a.17.17 0 0 1-.08-.01l.25-.022h.045l.246-.019h.02l.13-.015h-5.26l.066.008H4.528l1.08.134l4.51.558zm3.925-.557l.122.009c.174.014.352.03.538.048a.994.994 0 0 1-.123.026v.06h7.366v.019l-4.433 1.3l-2.9-.36l-.03.092c0 .012-.023.026-.072.039l2.94.363v6.978a2.276 2.276 0 0 0-.886-.158h-.33c-.038 0-.72.063-1.686.153l.017.082a.161.161 0 0 1-.146.192l-.706-.007a3.3 3.3 0 0 0-.5.033l-.735.107h-.013a.169.169 0 0 1-.12-.051h-.014l.013.065a.169.169 0 0 1-.032.136a.153.153 0 0 1-.047.04c2.42-.3 5.06-.58 5.06-.58h.265v-7l4.356-1.275v10.643l-.94-.19a1.276 1.276 0 0 0 .017-.287a.97.97 0 0 0-.085-.44a1.065 1.065 0 0 0-.386-.41a3.836 3.836 0 0 0-.633-.331c-.315-.154-.355-.186-.47-.24a2.4 2.4 0 0 0-.852-.206c-.128-.01-.24-.01-.33-.01c0 0-8.328.868-8.96 1.235a2.23 2.23 0 0 0-1.035 1.59a2 2 0 0 0 .14.988a1.721 1.721 0 0 0 .331.533a1.505 1.505 0 0 0 .244.2a2.1 2.1 0 0 0 .7.305l11.03-2.44a.508.508 0 0 0 .1-.08a.538.538 0 0 0 .088-.117a.77.77 0 0 0 .066-.147l.975.2v.368h.007h-.007v3.075l.072-.023v5.359H9.488l-.032-.026H2.187v-6.824l.07-.013v-.145l-.069.012V2.055h3.427L4.49 1.92H2.044v19.99h20v-20Z"/></svg>