<svg xmlns="http://www.w3.org/2000/svg" width="1.04em" height="1em" viewBox="0 0 33 32"><path fill="currentColor" d="M19.43 7.081a10.186 10.186 0 0 0-1.837-2.378a9.757 9.757 0 0 0-.758-.664h.305a.503.503 0 0 0 .45-.277a.495.495 0 0 0-.05-.523A7.139 7.139 0 0 0 12.036.797a6.953 6.953 0 0 0-5.515 2.447a.495.495 0 0 0-.045.52a.503.503 0 0 0 .449.275h.185q-.362.29-.705.627a10.194 10.194 0 0 0-1.837 2.42a.495.495 0 0 0 .022.484a.503.503 0 0 0 .428.236h6.353v10.821c0 .02 0 .057.003.11a.876.876 0 0 1-.103.371a1.037 1.037 0 0 1-.884.45a16.76 16.76 0 0 0-2.562.466a7.423 7.423 0 0 0-1.107.37c-.196.088-.716.323-.716.799c0 .85 1.472 1.566 1.94 1.678a18.5 18.5 0 0 0 3.835.323a19.574 19.574 0 0 0 3.96-.324a3.696 3.696 0 0 0 1.078-.63a1.842 1.842 0 0 0 .86-1.31c0-.616-.763-.884-1.908-1.097a23.313 23.313 0 0 0-2.523-.305a.817.817 0 0 1-.752-.423a1.107 1.107 0 0 1-.112-.395c0-.051-.002-.085-.003-.096V7.806h6.605a.503.503 0 0 0 .429-.238a.495.495 0 0 0 .018-.487M5.91 6.81a9.797 9.797 0 0 1 1.202-1.436A7.929 7.929 0 0 1 8.9 4.04h6.12a8.116 8.116 0 0 1 1.847 1.355a9.867 9.867 0 0 1 1.21 1.416Z"/></svg>