<svg xmlns="http://www.w3.org/2000/svg" width="1em" height="1em" viewBox="-1.351 0.149 76.702 76.702"><clipPath id="cbiBridge0"><path d="M0 0h74v77H0z"/></clipPath><g fill="currentColor" clip-path="url(#cbiBridge0)"><path d="M69 70c-17.313 3.088-41.753 1.013-61 1l-3-4H4V8c1.139-1.139.4 0 1-2c17.313-3.088 41.753-1.013 61-1l3 4h1v59c-1.139 1.139-.4 0-1 2M7 7c-1.77 4.827-1 13.55-1 20v40c5.2 2.678 13.008 2 21 2h40c1.77-4.827 1-13.55 1-20V9a3.983 3.983 0 0 1-2-2zm36 3h3v2h-3zm8 0h3v2h-3zM20 31h24c3.354 0 8.194-.606 10 1H30c-3.354 0-8.194.606-10-1m6 3h3v1h-2c-1.78 1.053 2 1 2 1v3h-2l1-2h-2zm4 2h3v3h-3zm4 0c3.237.329 2.938.908 5 2v-1h-1c-1.843-.95 2-1 2-1v3h-4v-2c-1.016.771-.984 1.229-2 2zm7 0h3v2l-3 1zm4 0h2l-1 3h-1zm-25 8h24c3.354 0 8.194-.606 10 1H30c-3.354 0-8.194.606-10-1" class="cls-1"/></g></svg>