<svg xmlns="http://www.w3.org/2000/svg" width="1em" height="1em" viewBox="0 0 24 24"><path fill="currentColor" d="M1.49 3.25c-.5.15-.77.37-.77.63v8.25c0 .25.24.46.73.61c.47.14 1.09.22 1.75.22c.65 0 1.31-.08 1.81-.22c.57-.16.86-.39.86-.67V7.68l.66.66v7.16c0 .21.16.5.93.74c.64.19 1.49.3 2.4.3c.9 0 1.8-.11 2.48-.3c.73-.21 1.11-.49 1.11-.82v-.16l.76.76v3.8c0 .3.38.6 1.14.84c.86.26 2.01.4 3.19.4c.23 0 .46-.01.69-.03l1.33 1.33l1.41-1.41L2.87 1.86zM3.29 7c-1.21 0-1.84-.31-1.84-.44v-1.6c.4.22 1.12.37 1.84.37c.07 0 .14-.01.21-.02l1.42 1.42c-.27.13-.82.27-1.63.27M10 5.97c1.04 0 2.08-.22 2.59-.55c.02-.02.04-.01.05 0s.01.03.01.03v2.34c0 .24-.64.54-1.72.66l2.52 2.52V3.98c.01-.31-.33-.57-1.01-.77c-.61-.18-1.43-.27-2.32-.27c-.88 0-1.72.1-2.38.27c-.77.2-1.19.5-1.21.84l1.69 1.69c.52.14 1.14.23 1.78.23M7.9 4.2c0-.03.11-.18.65-.3c.86-.21 2.22-.21 3.02-.01c.44.11.53.24.53.26c0 .04-.11.17-.59.29c-.89.22-2.33.22-3.14 0c-.39-.1-.47-.21-.47-.24m14.05-.78c-.83-.24-1.94-.36-3.07-.36c-1.12 0-2.27.12-3.16.36c-.99.26-1.51.62-1.51.98v7.32l8.5 8.5l-.18.18c.45-.21.69-.45.69-.69V4.3c-.01-.32-.44-.64-1.27-.88m-5.24.6c1.2-.28 3.04-.28 4.16 0c1.14.29 1.12.76-.09 1.06c-1.23.31-3.19.31-4.32 0c-1.11-.3-.97-.78.25-1.06m5.75 5.42c0 .62-1.68 1.12-3.75 1.12s-3.75-.5-3.75-1.12V6.29c0-.18.2-.28.35-.18c.6.38 1.89.71 3.4.71s2.8-.33 3.4-.71c.15-.1.35 0 .35.18z"/></svg>