<svg xmlns="http://www.w3.org/2000/svg" width="1.04em" height="1em" viewBox="0 0 33 32"><path fill="currentColor" d="M17 21.5c2.2 0 3.9-1 3.9-2.4s-1.7-2.4-3.9-2.4s-3.9 1-3.9 2.4s1.7 2.4 3.9 2.4m-2.1-3.7c.1-.3.5-.4 1-.5h.1c.6 0 1.2.2 1.9.5s1.2.8 1.6 1.3c.3.4.4.8.3 1.1c-.1.3-.5.4-1 .5c-.6 0-1.3-.2-2-.5s-1.2-.8-1.6-1.3c-.4-.4-.5-.8-.3-1.1m8-3.5h-.8l-.2 1c0 .2-.1.3-.1.5h.7l-1 6.3h-9.2l-1-5.5h-.6l1 5.9c0 .2.2.2.3.2h9.7c.2 0 .3-.1.3-.2l1.1-6.9v-1c.1-.1 0-.3-.2-.3m-.5-13H1.6c-.3 0-.5.3-.5.6v1.6l2.1 11.9c0 .3.3.4.5.4h16.8c.3 0 .5-.2.5-.4l1.9-11.9V1.9c0-.3-.2-.6-.5-.6M20 14.8H4.1L2.2 3.9h19.6zm-7.8-1c3.8 0 6.7-1.8 6.7-4.1s-3-4.1-6.7-4.1c-3.8 0-6.7 1.8-6.7 4.1s2.9 4.1 6.7 4.1M8.5 7.4c.2-.5.9-.7 1.8-.8h.1c1 0 2.1.3 3.3.9s2.1 1.4 2.7 2.2c.5.7.7 1.4.5 1.9s-.9.7-1.8.8c-1 0-2.2-.3-3.4-.9S9.6 10.1 9 9.3c-.6-.7-.8-1.4-.5-1.9"/></svg>