<svg xmlns="http://www.w3.org/2000/svg" width="1.04em" height="1em" viewBox="0 0 33 32"><path fill="currentColor" d="m.9 3.5l1.7 1.7c-.2.1-.3.3-.3.5v2.2c.1.3.3.5.6.5h2.9l1.4 1.4l-3.4.7c-.5.1-.9.7-.8 1.3c.3 1.5 1.7 2.4 3.2 2.1l4.2-.9l1.5 1.5c0 .6.1 1.2.1 1.8c0 .2.1.5.2.6l.4.5c.8.1 1.6.1 2.4.2l.9.9h-.2c-.8.1-1.9 0-2.8-.1l.5 2.9c0 .2.1.4.3.5l.4.4l.1.1l.5.5c.2.2.5.3.7.3h.6c.3 0 .6-.1.7-.3l.5-.5l.1-.1l.4-.4c.2-.1.3-.3.3-.5l.1-.6l2.4 2.4l1.4-1.4L2.3 2.1zm4.2 9.2c-.3.1-.6-.1-.7-.4c0-.3.1-.6.4-.7c.3-.1.6.1.7.4s-.1.6-.4.7m2.8-.6c-.3.1-.6-.1-.7-.4c-.1-.3.1-.6.4-.7c.3-.1.6.1.7.4c.1.3-.1.6-.4.7M4.1 7.3c-.3 0-.6-.2-.6-.5c0-.2.1-.3.2-.4l.8.8c-.1 0-.2.1-.4.1m11.6.1c1.9 0 3.8-.2 5.6-.7c.4-.9 1.7-3.3.3-4.6C20.1.7 16 .8 15.7.8S11.3.7 9.8 2.1c-1.4 1.3-.1 3.7.3 4.6c1.8.5 3.7.7 5.6.7m-5.2.3c.2.6.3 1.1.5 1.7l7.9 7.9l.3-.3c.2-.2.2-.4.2-.6c0-2.9.5-5.8 1.4-8.6c-1.7.4-3.4.5-5.2.5c-1.7 0-3.4-.2-5.1-.6m-1.2-.3l-.1-.3c-.2-.5-.6-1.2-.8-2H6.7l2.7 2.7zm1.6 8.9c0-.6 0-1.1-.1-1.7H5.2c-2.2 0-2.8-1.7-2.8-2.2v2.8c0 1.6 1.3 2.8 2.8 2.8h6.5l-.3-.4c-.3-.3-.5-.8-.5-1.3m-5.2.6c-.3 0-.6-.3-.6-.6s.3-.6.6-.6s.6.3.6.6s-.3.6-.6.6m2.8 0c-.3 0-.6-.3-.6-.6s.3-.6.6-.6s.6.3.6.6s-.2.6-.6.6"/></svg>