<svg xmlns="http://www.w3.org/2000/svg" width="1em" height="1em" viewBox="0 0 24 24"><path fill="currentColor" d="M10.15 8.85c0 .62-1.68 1.12-3.75 1.12s-3.75-.5-3.75-1.12V5.7c0-.18.2-.28.35-.18c.6.38 1.9.71 3.4.71s2.8-.33 3.4-.71c.15-.1.35 0 .35.18zM4.41 3.43c1.2-.28 3.04-.28 4.16 0c1.13.29 1.12.77-.09 1.07c-1.23.3-3.19.3-4.32 0c-1.11-.3-.98-.78.25-1.07m5.24-.59c-.83-.24-1.94-.36-3.08-.36c-1.12 0-2.27.12-3.16.36c-.99.26-1.51.62-1.51.98v15.42c0 .3.38.6 1.14.84c.86.26 2.01.4 3.19.4c1.18 0 2.37-.14 3.29-.4s1.38-.61 1.38-.95V3.72c0-.33-.42-.64-1.25-.88m8.5-.36c-2.25 0-3.96.91-3.96 2.11v2.17l-1.33.6c-.15.07-.25.22-.25.38v9.03c0 .23.18.42.42.42h1.15v1.6c0 1.2 1.7 2.11 3.96 2.11s3.96-.9 3.96-2.11V4.6c.01-1.21-1.7-2.12-3.95-2.12m0 17.58c-1.79 0-3.12-.68-3.12-1.28s1.34-1.28 3.12-1.28c1.79 0 3.12.68 3.12 1.28c0 .61-1.33 1.28-3.12 1.28"/></svg>