<svg xmlns="http://www.w3.org/2000/svg" width="1em" height="1em" viewBox="0 0 24 24"><path fill="currentColor" d="M9.77 17.15c.78.07 1.64.1 2.25.1s1.47-.03 2.25-.1l-.38 2.33a.68.68 0 0 1-.23.43l-.35.32c-.02.02-.05.04-.07.07l-.37.44c-.13.16-.35.26-.58.26h-.55c-.23 0-.45-.1-.59-.27l-.37-.44c-.02-.02-.04-.05-.07-.07l-.35-.32a.73.73 0 0 1-.23-.43zm2.25-7.47c.28 0 .5.22.5.5v6.2c0 .28-.22.25-.5.25s-.5.03-.5-.25v-6.2c0-.27.22-.5.5-.5m.02-4.66c-5.33 0-9.65 2.6-9.65 5.8c0 2.89 3.52 5.28 8.13 5.72v-6.36c0-.83.67-1.5 1.5-1.5s1.5.67 1.5 1.5v6.36c4.62-.43 8.17-2.83 8.17-5.73c0-3.19-4.32-5.79-9.65-5.79"/></svg>