<svg xmlns="http://www.w3.org/2000/svg" width="1.04em" height="1em" viewBox="0 0 33 32"><path fill="currentColor" d="M21.6 2.1C20.1.7 16 .8 15.7.8c-.3 0-4.4-.1-5.9 1.3c-1.4 1.3-.1 3.7.3 4.6c1.8.5 3.7.7 5.6.7c1.9 0 3.8-.2 5.6-.7c.4-.9 1.7-3.3.3-4.6m-8.7 16.3l.5 2.9c0 .2.1.4.3.5l.4.4l.1.1l.5.5c.2.2.5.3.7.3h.6c.3 0 .6-.1.7-.3l.5-.5l.1-.1l.4-.4c.2-.1.3-.3.3-.5l.5-2.9c-1 .1-2.1.1-2.8.1c-.8.1-1.9 0-2.8-.1M10.5 7.7c.9 2.8 1.4 5.7 1.4 8.6c0 .2.1.5.2.6l.4.5c1 .1 2.1.2 3.1.2s2.1-.1 3.1-.2l.4-.5c.2-.2.2-.4.2-.6c0-2.9.5-5.8 1.4-8.6c-1.7.4-3.4.5-5.2.5c-1.6.1-3.3-.1-5-.5m.4 8.6c0-.6 0-1.1-.1-1.7H5.2c-2.2 0-2.8-1.7-2.8-2.2v2.8c0 1.6 1.3 2.8 2.8 2.8h6.5l-.3-.4c-.3-.3-.5-.8-.5-1.3m-5.2.6c-.3 0-.6-.3-.6-.6s.3-.6.6-.6s.6.3.6.6s-.3.6-.6.6m2.8 0c-.3 0-.6-.3-.6-.6s.3-.6.6-.6s.6.3.6.6s-.2.6-.6.6m-5.6-5.1c.3 1.5 1.7 2.4 3.2 2.1l4.5-1c-.2-1.3-.4-2.5-.8-3.7l-6.1 1.3c-.5.1-.9.7-.8 1.3m4.7-.8c.3-.1.6.1.7.4c.1.3-.1.6-.4.7c-.3.1-.6-.1-.7-.4c-.1-.3.1-.6.4-.7m-2.8.6c.3-.1.6.1.7.4c.1.3-.1.6-.4.7c-.3.1-.6-.1-.7-.4c0-.3.1-.6.4-.7M2.9 8.4h6.7c0-.1-.1-.3-.1-.4l-.2-.6l-.1-.3c-.2-.5-.6-1.2-.8-2H2.9c-.3 0-.6.3-.6.6v2.2c.1.3.3.5.6.5m4-2.2c.3 0 .6.3.6.6s-.3.5-.6.5s-.6-.2-.6-.5s.3-.6.6-.6m-2.8 0c.3 0 .6.3.6.6s-.3.5-.6.5s-.6-.2-.6-.5s.3-.6.6-.6"/></svg>