<svg xmlns="http://www.w3.org/2000/svg" width="1em" height="1em" viewBox="0 0 24 24"><path fill="currentColor" d="M4.937 16.188a5.517 5.413 0 0 0 2.797.459a4.793 4.702 0 0 1-2.583-.551A4.734 4.645 0 0 1 3 13.732l-.027-.068l.016.041l-.014-.033a4.709 4.62 0 0 1 .115-3.825l.03-.059c.05-.098.1-.195.157-.285c.02-.035.042-.069.064-.104c.052-.082.108-.164.165-.244l.07-.098a5.13 5.13 0 0 1 .6-.668c.045-.042.099-.08.14-.12c.074-.065.146-.131.224-.19c.077-.059.133-.098.199-.143c.065-.045.123-.091.187-.132c.081-.053.167-.098.25-.147c.052-.03.1-.062.158-.092c.1-.052.199-.097.298-.141c.042-.02.082-.041.126-.059a4.58 4.58 0 0 1 .344-.129c.032-.012.062-.025.094-.035c.127-.043.257-.078.388-.111l.062-.018a5.45 5.45 0 0 1 .43-.086l.027-.006a5.41 5.309 0 0 1 3.61.653a5.779 5.67 0 0 0-.55-.331A5.39 5.29 0 0 0 8.4 6.716a5.532 5.428 0 0 0-3.155.423A5.441 5.339 0 0 0 3.57 8.311l-.042.041a5.34 5.24 0 0 0-1.48 4.18a4.927 4.834 0 0 0 .208.81a4.886 4.794 0 0 0 1.084 1.733a5.14 5.044 0 0 0 1.598 1.113m6.927-5.565h.173c.118 0 .213.095.213.213v2.344a.213.213 0 0 1-.213.213h-.173a.213.213 0 0 1-.213-.213v-2.344c0-.118.095-.213.213-.213m-.333 4.532a.411.403 0 0 0-.58.013a4.545 4.46 0 0 1-3.017 1.393a5.432 5.33 0 0 1-2.781-.466a4.793 4.702 0 0 0 2.588.55a5.517 5.413 0 0 1-2.797-.458a5.657 5.55 0 0 0 3.01.548a4.723 4.634 0 0 0 3.127-1.446a.235.23 0 0 1 .327-.007a.23.227 0 0 1 .071.157a.227.223 0 0 1-.066.16a5.15 5.053 0 0 1-3.026 1.543a5.308 5.208 0 0 1-4.44-1.387a5.184 5.086 0 0 1-.603-.673a4.868 4.776 0 0 1-.884-1.256a5.458 5.356 0 0 0 3.527 3.302a5.574 5.469 0 0 0 2.426.188a5.326 5.226 0 0 0 3.129-1.593a.405.397 0 0 0-.011-.567Zm-.807-7.518h-.008a5.41 5.309 0 0 0-3.61-.653l-.027.006c-.146.023-.29.05-.43.086l-.062.018c-.131.033-.26.068-.388.11c-.032.01-.062.024-.094.036c-.115.04-.23.08-.344.129c-.044.018-.084.039-.126.059c-.1.044-.199.088-.298.141c-.054.03-.106.063-.158.092c-.083.047-.169.098-.25.146c-.064.041-.126.088-.187.133c-.062.045-.136.092-.2.143c-.063.05-.149.125-.222.19c-.046.04-.1.077-.142.12a5.13 5.13 0 0 0-.599.668l-.07.098c-.057.08-.113.162-.165.244c-.022.035-.044.069-.064.104c-.055.097-.107.19-.157.285l-.03.058a4.709 4.62 0 0 0-.117 3.822A4.536 4.45 0 0 1 5.48 7.863a4.691 4.603 0 0 1 2.666-.255a4.52 4.435 0 0 1 2.33 1.212l.017.017a.576.565 0 0 0 .807-.03a.561.55 0 0 0-.03-.782l-.013-.017a5.287 5.188 0 0 0-.534-.42h-.005a5.084 4.988 0 0 0-.55-.285a5.779 5.67 0 0 1 .55.33Zm.427.515a.382.375 0 0 1 .122.26a.387.38 0 0 1-.1.274a.398.39 0 0 1-.554.022l-.012-.012a4.708 4.62 0 0 0-2.428-1.26a4.877 4.785 0 0 0-2.772.264a4.778 4.688 0 0 0-1.259.743a5.41 5.309 0 0 1 6.47-.707a5.281 5.182 0 0 1 .516.405zM21.898 10.7a.182.179 0 0 0-.157-.078h-.2a.258.253 0 0 0-.232.158l-.673 1.727l-.697-1.729a.259.254 0 0 0-.233-.156h-.205a.182.179 0 0 0-.173.252l.982 2.377a.106.104 0 0 1 0 .049l-.206.512a1.393 1.367 0 0 1-.06.136a.445.437 0 0 1-.069.108a.27.265 0 0 1-.082.066a.299.293 0 0 1-.213.006c-.037-.01-.057-.016-.061-.016a.2.195 0 0 0-.255.168l-.032.285a.063.062 0 0 0 .046.067l.058.015a1.185 1.163 0 0 0 .175.038a1.228 1.205 0 0 0 .187.015a.784.77 0 0 0 .53-.174a1.462 1.435 0 0 0 .256-.355a2.66 2.66 0 0 0 .072-.154l1.26-3.145a.17.166 0 0 0-.018-.172m-5.542-.076h-.173a.243.238 0 0 0-.229.17l-.474 1.646l-.597-1.66a.252.247 0 0 0-.233-.16h-.155a.249.244 0 0 0-.231.164l-.56 1.647l-.483-1.641a.248.243 0 0 0-.231-.17h-.207a.188.185 0 0 0-.183.244l.756 2.36a.247.242 0 0 0 .231.166h.181a.25.245 0 0 0 .231-.162l.573-1.645l.614 1.648a.255.25 0 0 0 .232.16h.184a.245.24 0 0 0 .23-.17l.71-2.359a.19.187 0 0 0-.186-.242zm2.751 2.621a2.354 2.354 0 0 1-.026-.207a6.71 6.71 0 0 1-.022-.5c-.002-.098 0-.25 0-.25v-.693a.974.956 0 0 0-.328-.795a1.294 1.27 0 0 0-.825-.242a1.805 1.77 0 0 0-.564.097a1.74 1.708 0 0 0-.428.237a.212.208 0 0 0-.081.142a.2.195 0 0 0 .05.154l.187.217a.072.07 0 0 0 .043.022a.057.056 0 0 0 .046-.016l.054-.045a1.035 1.016 0 0 1 .697-.252a.758.744 0 0 1 .438.117a.42.412 0 0 1 .144.383h-.252a4.228 4.149 0 0 0-.448.026a1.891 1.856 0 0 0-.497.117a1.066 1.046 0 0 0-.42.293a.814.799 0 0 0-.184.543a.849.833 0 0 0 .1.406a.835.82 0 0 0 .247.273a.995.977 0 0 0 .332.15a1.376 1.35 0 0 0 .36.046a1.234 1.211 0 0 0 .604-.131a.89.873 0 0 0 .192-.152v.023a.229.225 0 0 0 .223.195h.312a.064.063 0 0 0 .048-.021a.066.064 0 0 0 .016-.049zm-.613-1.074a1.166 1.144 0 0 1-.036.281a.583.572 0 0 1-.113.227a.61.598 0 0 1-.226.162a.97.951 0 0 1-.386.064a.545.535 0 0 1-.17-.025a.529.519 0 0 1-.147-.069a.338.332 0 0 1-.1-.105a.276.27 0 0 1-.033-.139a.283.277 0 0 1 .061-.187a.512.502 0 0 1 .2-.137a1.23 1.207 0 0 1 .322-.084a3.47 3.47 0 0 1 .315-.023h.307zm-8.157-.559a4.2 4.12 0 0 0-.448.026a1.867 1.832 0 0 0-.497.117a1.066 1.046 0 0 0-.42.293a.814.799 0 0 0-.183.543a.849.833 0 0 0 .1.406a.835.82 0 0 0 .246.273a.976.958 0 0 0 .332.15a1.376 1.35 0 0 0 .36.046a1.242 1.219 0 0 0 .606-.131a.919.901 0 0 0 .193-.152v.023a.227.223 0 0 0 .22.195h.313a.064.063 0 0 0 .048-.021a.066.064 0 0 0 .016-.049l-.012-.08a1.85 1.814 0 0 1-.024-.207a7.342 7.342 0 0 1-.022-.5c-.002-.098 0-.25 0-.25V11.6a.974.956 0 0 0-.328-.795a1.294 1.27 0 0 0-.826-.243a1.805 1.77 0 0 0-.564.098a1.74 1.708 0 0 0-.428.236a.212.208 0 0 0-.085.14a.206.202 0 0 0 .05.153l.187.217a.067.065 0 0 0 .042.022a.057.056 0 0 0 .045-.016l.054-.045a1.04 1.02 0 0 1 .697-.252a.754.74 0 0 1 .438.117a.419.411 0 0 1 .145.383zm.26.522v.037a1.166 1.144 0 0 1-.037.281a.587.576 0 0 1-.115.227a.621.61 0 0 1-.227.162a.936.918 0 0 1-.382.064a.545.535 0 0 1-.17-.025a.529.519 0 0 1-.147-.069a.363.356 0 0 1-.1-.105a.276.27 0 0 1-.033-.139a.283.277 0 0 1 .062-.187a.498.488 0 0 1 .199-.137a1.23 1.207 0 0 1 .322-.084c.121-.017.31-.023.313-.023h.155zM6.81 11.37a.851.835 0 0 1 .279-.19a.896.879 0 0 1 .368-.07a.649.637 0 0 1 .308.075a1.315 1.29 0 0 1 .23.173a.242.237 0 0 0 .293.016l.265-.195a.063.062 0 0 0 .026-.043a.059.058 0 0 0-.016-.047l-.055-.053a1.515 1.486 0 0 0-.472-.352a1.33 1.305 0 0 0-.581-.126a1.572 1.542 0 0 0-.597.107a1.354 1.328 0 0 0-.472.305a1.433 1.406 0 0 0-.307.46a1.64 1.61 0 0 0 0 1.157a1.422 1.396 0 0 0 .307.46a1.393 1.367 0 0 0 .472.306a1.565 1.535 0 0 0 .597.107a1.38 1.354 0 0 0 .571-.117a1.837 1.803 0 0 0 .408-.301a.206.202 0 0 0 .059-.15a.2.195 0 0 0-.076-.147l-.248-.201a.056.055 0 0 0-.046-.014a.06.06 0 0 0-.042.024l-.044.054a.853.837 0 0 1-.263.22a.643.63 0 0 1-.32.077a.914.897 0 0 1-.368-.07a.896.879 0 0 1-.28-.19a.79.775 0 0 1-.172-.28a1.073 1.053 0 0 1-.062-.356a1.026 1.007 0 0 1 .062-.356a.838.822 0 0 1 .176-.283m5.14-2.105a.465.456 0 1 0 .464.455a.459.45 0 0 0-.136-.323a.449.44 0 0 0-.328-.132m.217.667a.299.293 0 0 1-.217.086a.292.286 0 0 1-.214-.085a.299.293 0 0 1-.089-.213a.299.293 0 0 1 .299-.3a.292.286 0 0 1 .216.088a.299.293 0 0 1 .088.212a.292.286 0 0 1-.083.212"/></svg>