<svg xmlns="http://www.w3.org/2000/svg" width="1em" height="1em" viewBox="0 0 24 24"><path fill="currentColor" d="m11.627 15.861l.137.1a1.064 1.064 0 0 0 .072-.114l-.146-.084a1.151 1.151 0 0 1-.063.098m-.62-8.995h.855a.084.084 0 0 0 .085-.082v-.655a.084.084 0 0 0-.085-.082h-.855a.084.084 0 0 0-.085.082v.655a.084.084 0 0 0 .085.082m.342-.491a.086.086 0 0 1 .171 0v.163a.086.086 0 0 1-.171 0zm2.262 6.551a.2.2 0 0 0-.042 0v.377a.178.178 0 0 0 .034 0c.085 0 .141-.06.141-.2c0-.117-.051-.177-.133-.177M13.2 11.6v.159a.134.134 0 0 0 .144.121h.309v-.4h-.309a.134.134 0 0 0-.144.12m-1.751-6.769a3.331 3.331 0 0 0-2 .526c-.876.7-1.627 7.719-.882 10.818c.23.955 2.831.982 2.831.982c1.754-.105 2.786-.288 2.92-.929c.749-3.572-.03-10.322-.889-10.912a3.654 3.654 0 0 0-1.98-.485m-.7 1.3a.252.252 0 0 1 .256-.246V5.72a.428.428 0 0 1 .855 0v.163a.252.252 0 0 1 .256.246v.655a.251.251 0 0 1-.256.245h-.855a.251.251 0 0 1-.256-.245Zm0 2.869A.251.251 0 0 1 11 8.756h.689V8.6a.251.251 0 0 0-.259-.242a.255.255 0 0 0-.25.183a.087.087 0 0 1-.1.059a.08.08 0 0 1-.062-.1a.425.425 0 0 1 .417-.3a.418.418 0 0 1 .431.4v.161a.251.251 0 0 1 .257.239v.646a.25.25 0 0 1-.258.241H11a.25.25 0 0 1-.258-.241Zm-1.396 4.386h-.088v-.231h-.157v.231h-.089v-.537h.089v.214h.157v-.214h.088zm.257.008c-.121 0-.19-.119-.19-.275c0-.156.076-.279.2-.279c.124 0 .19.127.19.271c-.004.189-.086.283-.2.283m.516-.008h-.253v-.537h.088v.45h.165zm.345-.061a.248.248 0 0 1-.186.066a.609.609 0 0 1-.1-.007v-.529a.661.661 0 0 1 .119-.011a.224.224 0 0 1 .167.056a.277.277 0 0 1 .069.206a.307.307 0 0 1-.069.219m-.122-.681a.212.212 0 0 1-.2-.151l-.708.011a.207.207 0 0 1-.4.006h-.007l-.164-.022l-.016-.032a.282.282 0 0 1-.021-.181a.2.2 0 0 1 .014-.044l.005-.012c.048-.116.218-.158.258-.166a.683.683 0 0 0 .114-.043a.978.978 0 0 0 .083-.047a1.124 1.124 0 0 1 .605-.215a.8.8 0 0 1 .548.185l.093-.137a.143.143 0 0 1 .12-.066h.1v.178h-.082l-.061.09l.064.01c.082.007.1.11.094.262v.01l-.008.052c0 .057-.05.129-.224.152a.215.215 0 0 1-.207.16m.573 4.088h-.088V16.5h-.157v.232h-.088v-.538h.088v.214h.157v-.214h.088zm.257.007c-.121 0-.19-.119-.19-.275c0-.156.076-.279.2-.279c.124 0 .19.128.19.271c-.004.187-.086.283-.2.283m.183-1.546a.466.466 0 0 0-.355.249a.413.413 0 0 0 .105.453l-.131.105a.567.567 0 0 1-.127-.634a.562.562 0 0 1 1.02-.036a.526.526 0 0 1-.038.513l.093.054l-.36.181l.027-.373l.094.054a.366.366 0 0 0 .033-.352a.452.452 0 0 0-.361-.214m.333 1.539h-.253v-.538h.089v.45h.169Zm.345-.061a.248.248 0 0 1-.186.065a.628.628 0 0 1-.1-.007V16.2a.581.581 0 0 1 .119-.011a.224.224 0 0 1 .167.055a.273.273 0 0 1 .069.206a.31.31 0 0 1-.069.221m.609-3.284h-.088v-.232H12.4v.232h-.088v-.538h.088v.215h.157v-.215h.088zm.257.008c-.121 0-.19-.119-.19-.275c0-.156.076-.279.2-.279c.124 0 .19.127.19.27c-.006.189-.086.289-.2.289Zm.2-1.118l-.34.461l.043-.333h-.312a.027.027 0 0 1-.008-.019c0-.008.008-.018.022-.038l.341-.461l-.043.333h.271c.023 0 .034 0 .04.005a.027.027 0 0 1 .008.019a.142.142 0 0 1-.022.033m.316 1.11h-.253v-.538h.089v.45h.164zm.345-.061a.248.248 0 0 1-.186.066a.775.775 0 0 1-.1-.007v-.529a.581.581 0 0 1 .119-.011a.224.224 0 0 1 .167.056a.271.271 0 0 1 .069.206a.307.307 0 0 1-.069.219m.078-1.9h.313v.163h-.314v.181h.314v.163h-.314v.11h-.5a.314.314 0 0 1-.335-.282h-.469a.291.291 0 0 0-.309.266v.315l-.192.011v-.325a.469.469 0 0 1 .5-.43h.469a.314.314 0 0 1 .333-.285h.5zM11.691 5.72a.257.257 0 0 0-.513 0v.163h.513zm-.508 10.55c-.07 0-.1.094-.1.192s.035.193.1.193s.1-.086.1-.2c0-.114-.033-.185-.1-.185m-.868-3.345a.14.14 0 0 0-.042 0v.377a.178.178 0 0 0 .034 0c.084 0 .141-.061.141-.2c0-.116-.048-.177-.133-.177m.185-.812l-.032.047l-.04-.059l-.034-.005l.015-.023a.6.6 0 0 0-.5-.191a1 1 0 0 0-.531.192a.866.866 0 0 1-.1.056a.848.848 0 0 1-.14.052h.001c-.057.012-.143.047-.16.084v.011l-.007.017v.006a.14.14 0 0 0 0 .061l.082.011h.029l.085-.032v.093a.088.088 0 0 0 .077.093a.09.09 0 0 0 .077-.093v-.064l.947-.015v.063a.088.088 0 0 0 .076.089a.089.089 0 0 0 .077-.094h.068v-.059c.1-.008.146-.031.152-.041l.007-.049a.725.725 0 0 0-.007-.127zm2.41.812c-.07 0-.1.094-.1.193s.035.192.1.192s.1-.086.1-.194c0-.108-.033-.191-.1-.191m-3.296 0c-.07 0-.1.093-.1.192s.035.192.1.192s.1-.086.1-.194c0-.108-.033-.19-.1-.19m2.27 3.346a.2.2 0 0 0-.042 0v.377a.178.178 0 0 0 .034 0c.085 0 .141-.06.141-.2c0-.117-.051-.177-.133-.177M11 9.724h.861a.084.084 0 0 0 .086-.08V9a.084.084 0 0 0-.086-.08H11a.083.083 0 0 0-.086.08v.646a.083.083 0 0 0 .086.078m.344-.484a.087.087 0 0 1 .173 0v.16a.087.087 0 0 1-.173 0zm2.842-6.44a3.88 3.88 0 0 0-2.656-.786a3.915 3.915 0 0 0-2.7.854C6.8 4.793 5.735 15.682 7.648 20.408C8.224 21.831 11.455 22 11.455 22c2.358-.169 3.61-.52 3.927-1.507c1.795-5.593.767-15.936-1.196-17.693M11.5 20.98c-1.146 0-2.075-.194-2.075-.432s.929-.433 2.075-.433c1.146 0 2.074.194 2.074.433s-.934.432-2.074.432m3.3-4c-.157.733-1.369.943-3.426 1.062c0 0-3.053-.031-3.322-1.121c-.878-3.547.003-11.571 1.031-12.368a3.99 3.99 0 0 1 2.353-.6a4.384 4.384 0 0 1 2.317.554c1.009.672 1.923 8.387 1.047 12.468z"/></svg>