<svg xmlns="http://www.w3.org/2000/svg" width="1em" height="1em" viewBox="0 0 24 24"><path fill="currentColor" d="M15.437 12.872v-.009l-.002.006zm-.297-.102a.9.9 0 0 0-.371.557c-.019.056.009.074.065.074a.665.665 0 0 0 .371-.129a.528.528 0 0 0 .23-.4c-.018-.02-.036-.081-.072-.108a.182.182 0 0 0-.223.006m-5.355-.009a.5.5 0 0 0-.121.065a1.125 1.125 0 0 0-.334.39a1.067 1.067 0 0 0-.167.5a.2.2 0 0 0 .084.2a.159.159 0 0 0 .2-.037a1.8 1.8 0 0 0 .25-.288a2.674 2.674 0 0 0 .205-.4a.714.714 0 0 0 .074-.306a.139.139 0 0 0-.191-.124m7.898-.937c-.093-.047-.2-.075-.288-.112c-.222-.083-.427-.176-.649-.25c-.222-.074-.436-.121-.659-.177c-.316-.074-.631-.148-.947-.2c-.316-.052-.64-.111-.956-.139a41.45 41.45 0 0 0-1.531-.111a17.18 17.18 0 0 0-2.079.046c-.427.028-.845.084-1.262.139c-.279.037-.548.084-.826.139c-.2.038-.39.093-.585.14a8.624 8.624 0 0 0-.668.185c-.27.093-.52.2-.78.3a3.934 3.934 0 0 0-.882.5a1.367 1.367 0 0 0-.436.455a1.393 1.393 0 0 0-.167.446a1.02 1.02 0 0 0 .288.8a2.446 2.446 0 0 0 .529.445a4.6 4.6 0 0 0 .77.4c.214.084.427.167.64.232c.288.093.576.186.873.251c.455.093.919.176 1.383.251c.315.046.64.083.965.1c.52.028 1.039.055 1.5.074l.009-.019c.436-.018.817-.018 1.2-.046s.761-.056 1.142-.1c.325-.037.659-.084.983-.139c.279-.047.557-.112.827-.177c.287-.074.575-.148.853-.241a6.47 6.47 0 0 0 1.161-.52a2.521 2.521 0 0 0 .612-.473a1.191 1.191 0 0 0 .325-.575a.979.979 0 0 0-.269-.873a3.191 3.191 0 0 0-1.076-.751m-8.993.324a1.007 1.007 0 0 0-.65.14a1.407 1.407 0 0 0-.548.594a1.078 1.078 0 0 0-.092.779a.5.5 0 0 0 .584.344a.959.959 0 0 0 .511-.232a.066.066 0 0 1 .037-.019H8.6c-.009.019 0 .047-.019.065a1.092 1.092 0 0 1-.956.344a.683.683 0 0 1-.625-.455a.935.935 0 0 1-.038-.427a1.056 1.056 0 0 1 .2-.52a1.367 1.367 0 0 1 .288-.325a2 2 0 0 1 .483-.288a1.715 1.715 0 0 1 .631-.129h.009a.859.859 0 0 1 .446.092a.215.215 0 0 1 .046.353a.225.225 0 0 1-.251.019a.186.186 0 0 1-.074-.205a.118.118 0 0 0 .009-.055c.006-.047-.013-.075-.059-.075m1.717.585c-.056.149-.112.288-.158.436l-.223.65a.1.1 0 0 0 .019.084a.07.07 0 0 0 .083-.01a1.706 1.706 0 0 0 .2-.185a.077.077 0 0 1 .074-.028c-.009.028 0 .056-.009.074a1.016 1.016 0 0 1-.38.362c-.2.093-.344.009-.344-.2v-.046l-.018-.019l-.019-.009l-.056.056a.593.593 0 0 1-.352.241a.334.334 0 0 1-.427-.316a.86.86 0 0 1 .111-.482a1.424 1.424 0 0 1 .65-.631a.859.859 0 0 1 .223-.065a.246.246 0 0 1 .222.065c.028.037.056.037.075 0c.019-.037.055-.056.1-.056h.176c.053.005.071.033.053.079m1.531.306a.156.156 0 0 1-.25-.083c-.028-.056-.056-.065-.093-.009a3.717 3.717 0 0 0-.269.4c-.112.223-.2.455-.288.677c-.047.093-.065.112-.167.112h-.149c-.055 0-.074-.028-.055-.075c.027-.083.065-.176.092-.259l.251-.78c.009-.028-.009-.065-.009-.093a.217.217 0 0 0-.093.037a1.893 1.893 0 0 0-.139.149l-.019.018a.2.2 0 0 1-.074.019c0-.019-.019-.056 0-.074c.083-.1.158-.2.25-.288a.351.351 0 0 1 .223-.139l.009.009c.158 0 .214.065.205.176a.354.354 0 0 0-.01.1c0 .028.019.047.019.065c.019-.009.046-.009.056-.027c.037-.047.074-.1.111-.149a.514.514 0 0 1 .241-.176a.22.22 0 0 1 .26.111a.246.246 0 0 1-.102.279m1.179-.092c-.019-.056-.047-.056-.074-.019a2.929 2.929 0 0 0-.26.344a3.985 3.985 0 0 0-.353.788a.106.106 0 0 1-.121.084h-.148c-.065 0-.084-.028-.065-.084c.065-.176.13-.343.186-.519c.055-.158.111-.325.157-.492a.119.119 0 0 0-.009-.1c-.037-.037-.074 0-.1.028c-.046.046-.084.092-.13.139c-.019.009-.028.037-.046.037h-.047V13.1a1.191 1.191 0 0 1 .427-.408a.153.153 0 0 1 .186 0a.172.172 0 0 1 .055.185c-.009.047-.027.1-.037.149v.074h.019a.185.185 0 0 0 .037-.046a1.173 1.173 0 0 1 .334-.371a.229.229 0 0 1 .334.093a.249.249 0 0 1-.185.3a.143.143 0 0 1-.16-.129m.984.807a2.216 2.216 0 0 1-.251.26a.759.759 0 0 1-.241.13c-.214.065-.334-.065-.269-.269c.046-.149.1-.306.157-.455c.084-.2.167-.418.242-.622c.055-.148.055-.148.213-.148l-.018-.01h.092c.056 0 .075.028.056.075c-.065.2-.139.389-.2.584c-.065.167-.121.334-.176.5a.121.121 0 0 0 .018.1c.019.018.074.009.1-.01a1.559 1.559 0 0 0 .186-.157c.009-.01.018-.038.028-.038a.288.288 0 0 1 .083-.027a.127.127 0 0 1-.021.087Zm-.079-1.254a.126.126 0 0 1-.135-.138a.27.27 0 0 1 .214-.278a.133.133 0 0 1 .157.092a.268.268 0 0 1-.236.324m1.638.716a.705.705 0 0 1-.381.223a4.107 4.107 0 0 1-.464.074c-.074.009-.1.028-.1.1a.4.4 0 0 0 .037.251a.216.216 0 0 0 .2.12a.727.727 0 0 0 .5-.2a.849.849 0 0 1 .092-.083c.01-.01.038 0 .047 0v.046a.99.99 0 0 1-.761.4a.478.478 0 0 1-.409-.185a.5.5 0 0 1-.092-.325l.009-.01a1.08 1.08 0 0 1 .594-.918a.771.771 0 0 1 .575-.065a.336.336 0 0 1 .153.572m1.615-.223c-.065.074-.149.1-.214.056a.27.27 0 0 1-.074-.1c-.028-.065-.046-.065-.093-.019a1.466 1.466 0 0 0-.306.446c-.093.222-.186.454-.278.677a.114.114 0 0 1-.121.084h-.167c-.056 0-.074-.028-.056-.075c.093-.278.2-.556.288-.835a2.234 2.234 0 0 0 .065-.232c.009-.018-.009-.065-.019-.065c-.018-.018-.055-.009-.074 0a1.463 1.463 0 0 0-.167.167c-.009.019-.019.037-.037.037h-.056v-.055a1.2 1.2 0 0 1 .427-.409a.167.167 0 0 1 .2.028a.164.164 0 0 1 .037.084a1.584 1.584 0 0 1-.027.2a1.1 1.1 0 0 0-.019.111h.019l.009.019a2.32 2.32 0 0 1 .185-.251a1.166 1.166 0 0 1 .205-.176a.236.236 0 0 1 .3.037a.215.215 0 0 1-.027.271M14.5 19.611a.382.382 0 0 0 .111-.511a.386.386 0 0 0-.343-.176H9.674a.408.408 0 0 0-.344.26a.385.385 0 0 0 .371.492h2.293l-.009-.01h2.292a.4.4 0 0 0 .223-.055M5.181 5.809a.368.368 0 0 0 .437-.38V3.48c0-.074.018-.093.092-.093h1.4c.074 0 .1.028.1.084v.566a.366.366 0 0 0 .288.39a.373.373 0 0 0 .445-.381v-1a.388.388 0 0 0-.046-.2a.354.354 0 0 0-.334-.177H5.284a.332.332 0 0 0-.167.028a.368.368 0 0 0-.223.362v1.182h-.019V5.4a.637.637 0 0 1 .009.13a.38.38 0 0 0 .297.279m14.229 6.16a5.836 5.836 0 0 0-.641-.468a4.681 4.681 0 0 0-.7-.366c-.265-.1-.519-.213-.784-.3a9.759 9.759 0 0 0-1.333-.366c-.488-.092-.976-.194-1.475-.265a15.87 15.87 0 0 0-1.2-.112c-.428-.03-.855-.03-1.282-.051a21.428 21.428 0 0 0-2.432.153c-.3.041-.61.1-.916.153c-.244.04-.488.081-.722.142q-.488.121-.977.275c-.335.112-.671.234-1 .376a5.7 5.7 0 0 0-1 .56a2.727 2.727 0 0 0-.865.936a1.368 1.368 0 0 0-.132.895a1.8 1.8 0 0 0 .509.895a3.859 3.859 0 0 0 .794.621a7.05 7.05 0 0 0 1.149.56c.326.122.651.223.987.315c.356.1.712.193 1.078.265c.366.072.723.122 1.089.173a18.063 18.063 0 0 0 1.964.142a20.257 20.257 0 0 0 2.93-.142c.336-.051.661-.1 1-.163c.214-.041.437-.092.651-.143c.315-.081.621-.173.936-.264a6.529 6.529 0 0 0 .753-.265c.265-.112.519-.244.773-.376a3.645 3.645 0 0 0 .865-.6a2.027 2.027 0 0 0 .6-.916a1.325 1.325 0 0 0-.051-.865a2.2 2.2 0 0 0-.568-.799m.152 2.025a2.609 2.609 0 0 1-.854.743a7.094 7.094 0 0 1-.723.376c-.234.1-.468.183-.712.265c-.224.071-.448.142-.671.2c-.173.051-.356.092-.529.133c-.265.061-.54.111-.814.162c-.234.041-.468.082-.713.1c-.539.061-1.078.112-1.617.142l-.957.031c-.63-.041-1.261-.061-1.882-.112a11.2 11.2 0 0 1-1.322-.163a17.432 17.432 0 0 1-1.455-.315a6.309 6.309 0 0 1-.845-.254a6.156 6.156 0 0 1-1.414-.7a2.492 2.492 0 0 1-.7-.682a1.131 1.131 0 0 1 .01-1.313a3.257 3.257 0 0 1 .356-.386a1.8 1.8 0 0 1 .295-.255a5.64 5.64 0 0 1 .672-.4a8.377 8.377 0 0 1 .834-.346q.442-.153.885-.275c.2-.061.407-.1.611-.142c.204-.042.386-.092.58-.122l.61-.092c.132-.01.265-.041.4-.061h.142c.234-.01.458-.031.692-.051a3.87 3.87 0 0 1 .478-.041c.417-.02.845-.03 1.262-.03a16.1 16.1 0 0 1 1.984.112c.356.04.712.081 1.058.142c.488.092.977.2 1.455.326a8.507 8.507 0 0 1 .987.315a6.047 6.047 0 0 1 1.119.55a3.148 3.148 0 0 1 .712.61a1.236 1.236 0 0 1 .315.9a1.257 1.257 0 0 1-.249.633m-.988 6.359H5.413a.582.582 0 0 0-.25.056a.483.483 0 0 0-.186.705a.508.508 0 0 0 .446.223h6.571v-.009h6.682a.519.519 0 0 0 .409-.4a.5.5 0 0 0-.511-.575M21.21 8.232c-.288-.176-.585-.334-.872-.5c-.335-.186-.659-.381-.994-.566c-.287-.168-.575-.325-.863-.492l-.919-.529c-.343-.2-.7-.4-1.039-.594c-.3-.177-.585-.344-.882-.511c-.427-.241-.854-.482-1.271-.724c-.362-.2-.715-.408-1.068-.612l-.918-.529a.715.715 0 0 0-.372-.13v.037a.63.63 0 0 0-.324.083c-.158.093-.325.186-.483.279c-.232.139-.473.269-.715.408c-.3.167-.584.334-.881.5c-.297.166-.585.334-.882.5c-.26.148-.52.306-.78.454c-.241.13-.482.26-.714.4c-.325.186-.659.381-.984.567c-.26.148-.529.3-.789.445c-.325.195-.65.381-.975.566c-.306.167-.6.344-.909.511c-.242.139-.474.278-.715.408a.668.668 0 0 0-.343.418a.613.613 0 0 0 .687.751a1.661 1.661 0 0 0 .408-.194c.121-.056.213-.13.325-.2c.074-.047.158-.075.232-.121c.185-.1.371-.213.557-.316c.232-.13.454-.259.677-.389c.2-.112.4-.223.594-.335c.194-.112.409-.232.613-.352c.204-.12.4-.242.6-.353c.2-.111.4-.232.6-.343c.3-.167.594-.344.891-.511c.167-.093.344-.2.511-.287c.2-.121.4-.242.6-.353l.7-.39c.223-.13.455-.269.687-.4c.232-.131.473-.269.715-.408a.137.137 0 0 1 .157 0c.1.065.214.13.316.185c.2.121.408.232.612.353c.204.121.4.232.6.343c.2.111.4.232.6.344c.2.112.418.232.622.352c.204.12.4.232.6.344c.2.112.4.232.594.343c.232.13.473.269.705.4c.2.121.409.232.613.353c.204.121.418.232.622.353c.232.13.455.26.687.389c.176.1.343.2.519.3c.223.13.455.26.678.39c.223.13.418.232.622.353a.629.629 0 0 0 .752.019a.6.6 0 0 0 .269-.427a.592.592 0 0 0-.273-.582"/></svg>