<svg xmlns="http://www.w3.org/2000/svg" width="1em" height="1em" viewBox="0 0 24 24"><path fill="currentColor" d="M22.7 2.69H1.3c-.28 0-.5.22-.5.5V5.9c0 .12.04.24.12.33l1.45 1.68c.09.12.23.18.38.18H6.1c-2.83 1.11-4.5 4.1-4.5 6.92c0 3.71 2.5 6.3 6.08 6.3c1.34 0 2.76-.46 4-1.24c1.01.79 2.31 1.24 3.79 1.24c3.44 0 7.43-2.99 7.43-6.84c0-2-.69-3.79-1.94-5.04a5.862 5.862 0 0 0-2.08-1.34h2.36c.14 0 .28-.06.38-.17l1.47-1.68c.08-.09.12-.21.12-.33V3.19a.517.517 0 0 0-.51-.5m-8.81 5.4c-.51.2-.99.47-1.42.78c-.43-.31-.9-.59-1.41-.78zM8.65 19.74c-.62.87-2.4.72-3.89-.34c-1.48-1.06-2.21-2.69-1.59-3.56c.62-.87 2.4-.72 3.88.34c1.49 1.06 2.22 2.69 1.6 3.56m7.78 0c-.62.87-2.4.72-3.89-.34c-1.48-1.06-2.21-2.69-1.59-3.56c.28-.4.81-.59 1.51-.56c.77.04 1.62.36 2.38.9c1.49 1.06 2.21 2.69 1.59 3.56"/></svg>