<svg xmlns="http://www.w3.org/2000/svg" width="1.04em" height="1em" viewBox="0 0 33 32"><path fill="currentColor" d="M20.8 5.8H4.2c-1.5 0-2.7.6-2.7 1.5v1.8h.1c.2.9 1.3 1.5 2.6 1.5h2.5v.1c-.5-.1-.9 0-1.3.3c-.5.3-4.4 3.1-4.4 3.1c-.5.3-.8.9-.8 1.6c0 .7.2 1.4.6 2c.6 1 1.6 1.5 2.4 1.5c.4 0 .7-.1 1-.3l.4-.3s.1 0 .1-.1l.1-.1l.7-.5c.6.8 1.5 1.3 2.2 1.3c.4 0 .7-.1 1-.3l.4-.3s.1 0 .1-.1l.1-.1l.7-.5c.4.5.9.9 1.4 1.1c.3.1.6.2.8.2c.4 0 .7-.1 1-.3l.4-.3s.1 0 .1-.1l.1-.1l.7-.5c.6.8 1.5 1.3 2.2 1.3c.4 0 .7-.1 1-.3c0 0 .2-.1.4-.3c0 0 .1 0 .1-.1l.1-.1c1.1-.8 3.4-2.4 3.8-2.6c1-.7 1.1-2.3.2-3.6c-.3-.4-.6-.7-1-1v-.7c.9-.2 1.6-.7 1.8-1.4h.1V7.3c.2-.9-.9-1.5-2.4-1.5M5.6 14.1c-.1 0-.1 0 0 0c-.3.2-.5.5-.6.8c-.4-.6-1-1.1-1.6-1.3c1.1-.8 2.3-1.6 2.6-1.8c.3-.2.7-.1.9 0c.3.1.7.4.9.7zm2.2-3.5h3.4v.1c-.5-.1-.9 0-1.3.3c-.2.1-.7.5-1.4.9c-.2-.3-.5-.5-.8-.7zm4.5 1.9c-1.1.8-2.2 1.5-2.2 1.5c-.3.2-.5.5-.6.8c-.4-.6-1-1.1-1.6-1.3l.9-.5c.8-.6 1.6-1.1 1.8-1.2c.3-.2.7-.1.9 0c.3.1.6.4.8.7m.1-1.9h3.4v.1c-.5-.1-.9 0-1.3.3c-.2.1-.7.5-1.4.9c-.2-.3-.5-.5-.8-.7zm4.3 2.1c-1 .7-1.9 1.4-2 1.4c-.3.2-.5.5-.6.8c-.4-.6-1-1.1-1.6-1.3l.7-.5c.9-.6 1.7-1.2 1.9-1.3c.3-.2.7-.1.9 0c.3.1.7.4.9.7zm.3-2.1h3.4v.1c-.5-.1-.9 0-1.3.3c-.2.1-.7.5-1.4.9c-.2-.3-.5-.5-.8-.7zm4.7 2.2c.6.9.6 1.9.1 2.2c-.2.2-1.4 1-2.5 1.8c0-.6-.2-1.3-.6-1.8c-.4-.6-1-1.1-1.6-1.3l.8-.6c.8-.6 1.6-1.1 1.8-1.2c.3-.2.7-.1.9 0c.4.1.8.4 1.1.9m-.2-3.3v-.8s-.4-.4-1.2-.1l.1 1H17v-.9s-.4-.4-1.2-.1l.1 1h-3.4v-.9s-.4-.4-1.2-.1l.1 1H7.8v-.9s-.4-.4-1.2-.1l.1 1H4.2c-1 0-1.7-.5-1.7-.9s.7-.9 1.7-.9h16.6c1 0 1.7.5 1.7.9c-.1.3-.4.6-1 .8"/></svg>