<svg xmlns="http://www.w3.org/2000/svg" width="1.04em" height="1em" viewBox="0 0 33 32"><path fill="currentColor" d="M22.5 11.6c-.1-.1-4.3-3-4.8-3.4c0 0-.1 0-.1-.1c1.7-.3 3.2-.8 3.2-1.6v-1c0-1.9-7.1-2-8.5-2c-1.4 0-8.5.1-8.5 2v1C3.8 7.3 5 7.7 6.5 8c-.1 0-.2.1-.3.2c-.5.3-4.8 3.4-4.8 3.4c-.5.4-.8 1-.8 1.8c0 .7.2 1.5.7 2.1c.5.7 1.1 1.2 1.7 1.4c.3.1.6.2.9.2c.4 0 .7-.1 1-.3c0 0 .2-.1.4-.3c0 0 .1 0 .1-.1l.1-.1c1-.6 2.6-1.7 3.5-2.3c0 .7.1 1.2.1 1.2c0 1.3 1.4 2.2 3.1 2.2h.1c1.8 0 3.1-1.1 3.1-2.4v-.7c.9.7 2.2 1.6 3 2.1l.1.1s.1 0 .1.1c.3.2.4.3.4.3c.3.2.7.3 1 .3c.3 0 .6-.1.9-.2c.7-.3 1.3-.8 1.7-1.4c.5-.7.7-1.4.7-2.1c.1-.9-.2-1.5-.8-1.9m-2.5-.5c-.7.3-1.3.8-1.8 1.4c-.5.7-.7 1.4-.7 2.1c-.9-.6-1.8-1.3-2.3-1.6c0-1.1-.1-2.4-.1-3.1c.6-.8 1.5-1.1 2.1-.7c.2.1 1.6 1 2.8 1.9M8.9 8.5v-.1h.2c-.1.1-.1.1-.2.1c0 .1 0 0 0 0m1.5-.1c.4-.3 1-.4 1.5-.4h.4c.5.1.9.2 1.2.4l.1.1c.2.2.4.4.4.7v.5c0 .4 0 .9.1 1.4c0 .5 0 1 .1 1.6c-.6-.4-1.3-.5-2.1-.5s-1.6.3-2.1.7v-1c0-.9-.1-1.8-.1-2.3v-.3c0-.3.2-.6.5-.9m4.7.1l-.1.1c0-.1 0-.1-.1-.2c.1 0 .1 0 .2.1m.4-3.8h-.1zm-1.3-.1h-.4zm-3.4 0h-.3zm1.5 1c4.3 0 6.8.6 7.4 1c-.3.2-1.4.5-3.3.8l.1-.7c-.9-.3-1.3 0-1.3 0v.8c-.4 0-.7 0-1.1.1H14c-.1-.1-.2-.1-.4-.2c-.1 0-.1 0-.2-.1c-.1 0-.2-.1-.3-.1c-.1 0-.3-.1-.4-.1v-.7s-.1-.3-1.2 0V7h-.1c-.1 0-.2 0-.3.1h-.2c-.1 0-.3.1-.4.1c-.1.1-.3.1-.4.2c-.4 0-.8-.1-1.2-.1v-.7s-.4-.3-1.3 0l.1.6c-1.6-.2-2.5-.5-2.8-.6c.6-.4 3.1-1 7.4-1m-5.9 9c0-.7-.2-1.4-.7-2.1c-.5-.7-1.1-1.2-1.7-1.4c1.2-.9 2.6-1.8 2.9-2c.5-.3 1.4 0 2 .7c0 .7.1 1.9.1 3c-.5.3-1.6 1.1-2.6 1.8"/></svg>