<svg xmlns="http://www.w3.org/2000/svg" width="1em" height="1em" viewBox="0 0 24 24"><path fill="currentColor" d="M22.67.83H1.33c-.28 0-.5.22-.5.5v3.49c0 .12.04.24.12.33l1.86 2.16c.09.11.23.17.38.17H7c-2.45 1.79-3.86 4.84-3.86 7.74c0 4.68 3.15 7.95 7.66 7.95c4.35 0 9.4-3.77 9.4-8.64c0-2.54-.87-4.8-2.45-6.37c-.25-.25-.52-.47-.8-.68h3.83c.14 0 .28-.06.38-.17l1.89-2.16c.08-.09.12-.21.12-.33V1.33c0-.28-.22-.5-.5-.5m-10.5 20.55c-.39.55-1.12.83-2.06.78c-1.02-.05-2.13-.47-3.13-1.18c-1.97-1.4-2.92-3.59-2.07-4.77c.84-1.18 3.22-1 5.19.4s2.91 3.59 2.07 4.77"/></svg>