<svg xmlns="http://www.w3.org/2000/svg" width="1.04em" height="1em" viewBox="0 0 33 32"><path fill="currentColor" d="M22.6 2.6H4.7c-.3 0-.5.2-.5.5v2.3c0 .1.1.2.2.2l1.7 1.3c.1.1.2.1.3.1h3.2v.6c-.6.1-1.2.4-1.6.8l-6.4 6.4C.3 16.1.4 18.5 2 20.1c.9.9 2 1.3 3 1.3c.9 0 1.7-.3 2.3-.9L8.8 19c.2.4.5.8.8 1.1c.9.9 2 1.3 3 1.3c.9 0 1.7-.3 2.3-.9l6.4-6.4c1.3-1.3 1.2-3.7-.4-5.3c-.3-.3-.6-.5-.9-.7V7h1.3c.1 0 .2 0 .3-.1L23 5.7v-.1s0-.1.1-.1V3.1c0-.3-.2-.5-.5-.5m-16 17.2c-1 1-2.7.8-3.9-.4c-1.2-1.2-1.4-2.9-.4-3.9c.4-.4 1-.6 1.6-.6c.8 0 1.6.3 2.3 1c1.1 1.2 1.3 2.9.4 3.9m7.5 0c-1 1-2.7.8-3.9-.4s-1.4-2.9-.4-3.9c.4-.4 1-.6 1.6-.6c.8 0 1.6.3 2.3 1c.6.6.9 1.3 1 2.1c.1.7-.1 1.3-.6 1.8M10.6 8.5v-2c0-.2.2-.4.4-.4s.4.2.4.4v2.2zm6.5-.9c-.6.1-1.1.4-1.6.8L14 9.9c-.2-.4-.5-.8-.8-1.1c-.3-.3-.6-.5-.9-.7V7h4.8zm1.8 1.1l-.7-.2v-2c0-.2.2-.4.4-.4s.4.2.4.4v2.2zm3.2-3.9H5.2V3.6h16.9z"/></svg>