<svg xmlns="http://www.w3.org/2000/svg" width="1em" height="1em" viewBox="0 0 32 32"><path fill="currentColor" d="M11.96 8.78C8.01 8.78.55 9.4.55 11.74l.04 4.24c-.04 1.99 7.54 2.77 11.38 2.77c3.86 0 11.06-.6 11.38-2.81l.03-4.19c0-2.35-7.47-2.97-11.42-2.97m0 8.97c-6.74 0-10.41-1.3-10.41-1.96c0-.52 2.22-1.41 6.35-1.78c1.74-.09 3.63-.13 5.51-.15c5.82.17 8.97 1.32 8.97 1.94c0 .65-3.68 1.95-10.42 1.95m.03-2.53c-.22 0-2.15.02-2.15.79s1.93.79 2.15.79s2.16-.02 2.16-.79s-1.94-.79-2.16-.79m-.57-8.05v1.61h1V7.17c1.24-.07 2.5-.44 2.5-1.29v-.42c0-.96-1.61-1.3-2.99-1.3c-1.38 0-2.99.34-2.99 1.3v.42c-.01.85 1.24 1.21 2.48 1.29"/></svg>