<svg xmlns="http://www.w3.org/2000/svg" width="1em" height="1em" viewBox="0 0 24 24"><path fill="currentColor" d="M6.9 13.4c0 1.5 2.6 2.3 5.1 2.3s5.1-.8 5.1-2.3c0-3.1-10.2-3.1-10.2 0m1.5-7.5c-4.7.6-8 2.6-8 4.9v2.3c.1 2.9 5.2 5 11.6 5s11.5-2.1 11.6-4.8V11c0-2.4-3.2-4.3-8-4.9c-3.3-.7-7.2-.2-7.2-.2M12 7.2c5.7 0 9.8 1.8 10.1 3.5c-2-1.5-5.7-2.5-10.1-2.5s-8.1 1-10.1 2.5C2.2 9 6.3 7.2 12 7.2m0 9.9c-6.3 0-10.6-2.1-10.6-3.9l.1-.4c.6-1.6 5-3.2 10.5-3.2s9.9 1.6 10.5 3.2l.1.4c0 1.8-4.3 3.9-10.6 3.9"/></svg>