<svg xmlns="http://www.w3.org/2000/svg" width="1.04em" height="1em" viewBox="0 0 33 32"><path fill="currentColor" d="M22.4 5.4H1.6c-.3 0-.5.3-.5.6v1.6l2.1 11.9c0 .3.3.4.5.4h16.8c.3 0 .5-.2.5-.4l1.9-11.9V6c0-.3-.2-.6-.5-.6M20 18.9H4.1L2.2 8h19.6zm-7.8-1c3.8 0 6.7-1.8 6.7-4.1s-3-4.1-6.7-4.1c-3.8 0-6.7 1.8-6.7 4.1s2.9 4.1 6.7 4.1m-3.7-6.4c.2-.5.9-.7 1.8-.8h.1c1 0 2.1.3 3.3.9c1.2.6 2.1 1.4 2.7 2.2c.5.7.7 1.4.5 1.9c-.2.5-.9.7-1.8.8c-1 0-2.2-.3-3.4-.9c-1.2-.6-2.1-1.4-2.7-2.2c-.6-.7-.8-1.4-.5-1.9"/></svg>