<svg xmlns="http://www.w3.org/2000/svg" width="1.04em" height="1em" viewBox="0 0 33 32"><path fill="currentColor" d="M23.207 10.2a.35.35 0 0 0-.278-.386l-3.244-1.09l-5.91-1.985Q10.257 5.558 6.74 4.375a.411.411 0 0 0-.283 0L1.054 6.328a.34.34 0 0 0-.262.367v4.686a.339.339 0 0 0 .266.364l.776.255l7.09 2.34l1.734.573l.036-.087a1.819 1.819 0 0 1 1.104-1.083q1.873-.676 3.744-1.358c.747-.27 1.491-.55 2.241-.812a2.321 2.321 0 0 1 1.47.002a3.177 3.177 0 0 1 1.56 1.08a5.014 5.014 0 0 1 1.092 2.662c.012.114.016.23.024.353l.08-.04c.324-.17.647-.344.974-.51a.382.382 0 0 0 .225-.376q-.003-2.272-.001-4.545m-9.612 1.736c-.298.126-.597.25-.894.377c-.641.272-1.283.542-1.923.817a.494.494 0 0 1-.37.02c-1.181-.381-2.364-.757-3.546-1.134l-2.792-.89c-.395-.127-.79-.25-1.185-.377a.292.292 0 0 1-.225-.368a.306.306 0 0 1 .2-.203q.44-.177.878-.358l2.234-.915a.44.44 0 0 1 .33-.009q2.177.748 4.356 1.488l2.894.988a.46.46 0 0 1 .102.048a.274.274 0 0 1 .134.24a.295.295 0 0 1-.193.275m6.558 1.773a2.376 2.376 0 0 0-1.009-.94a1.337 1.337 0 0 0-1.059-.077c-.745.274-1.493.542-2.24.814c-1.206.438-2.41.882-3.619 1.312a.745.745 0 0 0-.484.508a2.782 2.782 0 0 0-.108.676c.03.248.048.498.093.743a4.607 4.607 0 0 0 .684 1.782a2.788 2.788 0 0 0 1.044.992a.88.88 0 0 0 .76.074q1.636-.685 3.268-1.379c.793-.335 1.582-.683 2.382-1a1.32 1.32 0 0 0 .843-.978a2.348 2.348 0 0 0 .044-.842a4.023 4.023 0 0 0-.6-1.685m-5.632 4.357a.485.485 0 0 1-.66.247a1.226 1.226 0 0 1-.539-.463a2.41 2.41 0 0 1-.463-1.445a1.043 1.043 0 0 1 .13-.52a.475.475 0 0 1 .589-.23a1.095 1.095 0 0 1 .526.395a2.451 2.451 0 0 1 .529 1.468a1.21 1.21 0 0 1-.112.548"/></svg>