<svg xmlns="http://www.w3.org/2000/svg" width="1em" height="1em" viewBox="0 0 24 24"><path fill="currentColor" d="M10.845 7.109a6.883 6.883 0 0 0-6.884 6.884a6.885 6.885 0 0 0 13.769 0a6.892 6.892 0 0 0-6.885-6.884m2.672 9.19a3.69 3.69 0 0 1-3.216 1.09a3.521 3.521 0 0 0 1.384-1.506a2.316 2.316 0 0 0 1.475-2.151a2.279 2.279 0 0 0-.257-1.04a3.586 3.586 0 0 1 1.58.352a3.69 3.69 0 0 1-.966 3.256zm-1.379-4.487a2.3 2.3 0 0 0-1.293-.395a2.312 2.312 0 0 0-2.126 1.4a3 3 0 0 1-.619-1.558a3.694 3.694 0 0 1 5.973.653a5.5 5.5 0 0 0-1.935-.1m.1 1.92a1.389 1.389 0 1 1-1.389-1.389a1.389 1.389 0 0 1 1.385 1.389zm-4.832-1.368a4.017 4.017 0 0 0 1.15 1.612a2.3 2.3 0 0 0 1.958 2.037a3 3 0 0 1-1.5.934a3.689 3.689 0 0 1-1.609-4.583zM20.072 2.246V2h-3.53v.388l-.99.213v.009h-4.483a1.144 1.144 0 0 0-1.144 1.144V6.04a8.008 8.008 0 1 0 1.526-.029V4.135h4.1v.024l.99.212v.418h3.53v-.246h1.089v-2.3zm-4.1 6.626a7.246 7.246 0 0 1-5.122 12.366a7.244 7.244 0 1 1 5.117-12.366Zm4.846-4.678h-.567v-1.6h.567z"/></svg>