<svg xmlns="http://www.w3.org/2000/svg" width="1em" height="1em" viewBox="0 0 24 24"><path fill="currentColor" d="M17.574 14.723a.177.177 0 0 0 .151.052c.113-.013.116-.185.116-.185s.027-.393.027-.789a1.619 1.619 0 0 0-.39-.935s-4.04-4.45-5.455-4.45s-5.455 4.45-5.455 4.45a1.619 1.619 0 0 0-.39.935c0 .4.027.79.027.79s0 .171.116.184a.178.178 0 0 0 .151-.052c.452-.393 4.057-3.489 5.551-3.489c1.494 0 5.1 3.096 5.551 3.49M6.324 10.68a.178.178 0 0 0 .15-.052c.45-.393 4.055-3.489 5.55-3.489c1.493 0 5.1 3.1 5.55 3.49a.177.177 0 0 0 .151.051c.113-.013.116-.185.116-.185s.027-.394.027-.789a1.624 1.624 0 0 0-.39-.936s-4.04-4.45-5.455-4.45s-5.455 4.45-5.455 4.45a1.624 1.624 0 0 0-.39.936c0 .395.027.79.027.79s.003.171.118.184m11.213 5.256a.474.474 0 0 0-.247-.063a.464.464 0 0 0-.248.063a.177.177 0 0 0-.1.151a.18.18 0 0 0 .1.152a.53.53 0 0 0 .49 0c.062-.037.128-.1.2-.1a.4.4 0 0 1 .2.1a.475.475 0 0 0 .247.062a.459.459 0 0 0 .25-.062a.181.181 0 0 0 .1-.152a.177.177 0 0 0-.1-.15a.518.518 0 0 0-.5 0c-.066.04-.118.1-.2.1c-.082 0-.122-.06-.192-.1m-.372 2.061v-.347h1.458v-.319h-1.458v-.317s0-.092.108-.092h1.672v-.256c0-.074-.08-.07-.082-.07h-2.34a.068.068 0 0 0-.072.07v1.38a.369.369 0 0 0 .375.37h2.05a.07.07 0 0 0 .07-.069v-.255h-1.684a.09.09 0 0 1-.097-.095M3.457 16.824c.04 0 .183-.006.313 0a.74.74 0 0 1 .63.348a.068.068 0 0 0 .06.034h.7a1.131 1.131 0 0 0-1.048-.65c-.252 0-.7-.016-.994 0a1.141 1.141 0 0 0-.77.278a.885.885 0 0 0-.32.67a1.024 1.024 0 0 0 1.077.95c.421.014.466.015 1.018 0a1.059 1.059 0 0 0 1.036-.652h-.7a.067.067 0 0 0-.06.035a.723.723 0 0 1-.62.351h-.324a.683.683 0 1 1 0-1.364zm8.655.925a.612.612 0 0 0 .525-.568a.663.663 0 0 0-.722-.586h-1.717a.367.367 0 0 0-.37.372v1.38a.066.066 0 0 0 .067.068h.645v-.645h.608a.729.729 0 0 1 .781.645h.711a.833.833 0 0 0-.528-.666m-.453-.3H10.54v-.363a.162.162 0 0 1 .171-.169h.951a.266.266 0 1 1 0 .532zm-5.47-.857h-.574a.071.071 0 0 0-.07.07v1.681a.071.071 0 0 0 .07.07h.645v-1.749a.072.072 0 0 0-.07-.072m3.186 0H6.712a.069.069 0 0 0-.069.07v.291h.636a.4.4 0 0 1 .4.4v.994a.072.072 0 0 0 .07.07h.646v-1.368a.093.093 0 0 1 .093-.092h.956v-.29a.069.069 0 0 0-.069-.075m11.586 0h-1.548c-.026 0-.085.007-.085.068v1.683a.065.065 0 0 0 .065.07h.648v-1.406a.089.089 0 0 1 .093-.092h.713a.528.528 0 0 1 .49.563v.866a.072.072 0 0 0 .074.071h.612v-.89a.991.991 0 0 0-1.062-.933m-5.938-.023c-.492-.01-.99 0-.995 0a.946.946 0 1 0 0 1.87s.5.01.995 0a.946.946 0 1 0 0-1.87m-.34 1.613s-.18.005-.315 0a.7.7 0 0 1-.719-.682a.689.689 0 0 1 .717-.668s.176-.007.317 0a.69.69 0 0 1 .72.668a.7.7 0 0 1-.72.682"/></svg>