<svg xmlns="http://www.w3.org/2000/svg" width="1em" height="1em" viewBox="0 0 24 24"><path fill="currentColor" d="M2 2.017v20h20v-20ZM21.7 21.66l-19.333-.032L2.3 6.71l1.139.33a4.931 4.931 0 0 1 .061-.515a.589.589 0 0 1 .1-.252c0-.183.049-.326.1-.326c.051 0 .094.136.1.312a1.286 1.286 0 0 1 .186.457c.04.133.089.294.153.479l.166.037l-.074-.488A.956.956 0 0 1 4.2 6.56l-.036-.24l.041.032c.015-.138.052-.235.1-.235c.048 0 .1.164.1.366v.018l.272.205l.008.017l.019.038l.27.559h2.9l-.194.696l-.725 2.955l-.35.994l.315 1.52a.54.54 0 0 0 .235.347a.481.481 0 0 0 .373.065L9 13.558a.43.43 0 0 0 .079-.025a.548.548 0 0 0 .318-.583l-.247-1.746l-.124-.7l-.562-3.187h.66a3.34 3.34 0 0 0 .182 1.3a4.927 4.927 0 0 1 .207 1.09a2.028 2.028 0 0 1-.086.624l.153.863l.247 1.748a.6.6 0 0 1-.414.669c-.142.309-.328.648-.521 1.01c-.492.923-.018.717-.181 1.349c-.171.662-.089 1.562.414 1.712a.965.965 0 0 0 .932-.342c.138-.2.058-.4 0-.645a2.263 2.263 0 0 1 .1-1.591c.1 0 .074 1.193.466 1.249c.235.033.563-.352.7-.7c.157-.408.026-.69-.1-1.25a8.5 8.5 0 0 1-.207-1.811c-.018-.745.093-.75.078-1.571a10.927 10.927 0 0 0-.156-1.531a5.063 5.063 0 0 0-.491-1.893a3.693 3.693 0 0 0-.179-.271h.4v-1.5H4.7l-1.692-.6l-.709-.3V2.373H21.7ZM2.933 6.144c0-.2.046-.367.1-.367c.054 0 .1.164.1.367c0 .203-.046.366-.1.366c-.054 0-.1-.164-.1-.366m2.262.4c0-.2.081-.367.181-.367c.1 0 .182.164.182.367c0 .203-.081.366-.182.366c-.101 0-.176-.16-.176-.362zm1.229.026c0-.2.081-.366.181-.366c.1 0 .181.164.181.366c0 .202-.081.366-.181.366c-.1 0-.181-.16-.181-.362zm1.507-.026c0-.2.081-.367.181-.367c.1 0 .182.164.182.367a.627.627 0 0 1-.046.242l-.158-.28l-.09.33a.569.569 0 0 1-.069-.288zm.4.773L9 11.389l-2.1.44l1.076-4.512zm-.256-.415l.034-.143l.071.125a.1.1 0 0 1-.067.026a.1.1 0 0 1-.039 0zm1.28-.358c0-.2.081-.367.181-.367c.1 0 .182.164.182.367a.692.692 0 0 1-.024.18a.363.363 0 0 0-.257-.066a.234.234 0 0 0-.068.026a.691.691 0 0 1-.015-.136zM5.935 14.7a6.945 6.945 0 0 1-.294-.708a1.833 1.833 0 0 1-.106-.83a8.886 8.886 0 0 0-.08-1.686A7.094 7.094 0 0 0 5 9.407a3.456 3.456 0 0 0-.3-.554a5.528 5.528 0 0 1-.368-.671a9.732 9.732 0 0 1-.53-1.41c-.035-.114-.07-.231-.1-.3a7.49 7.49 0 0 0-.141 1.417a20.68 20.68 0 0 0-.02 2.227a6.3 6.3 0 0 1-.023.91c-.03.464-.08 1.238-.158 2.865c-.16 3.44-.135 4.126-.126 4.347a.952.952 0 0 1 0 .15a.466.466 0 0 1 .091-.074a.346.346 0 0 1 .188-.052a1.374 1.374 0 0 1 .4.1c.08.026.17.056.276.088a2.649 2.649 0 0 0 .875.177a1.1 1.1 0 0 0 .835-.364a.537.537 0 0 0 .123-.293a.545.545 0 0 0-.054-.242a.24.24 0 0 1-.007-.253a.254.254 0 0 1 .257-.06c.074.01.129.015.155-.01c.045-.044.038-.175.032-.271a.963.963 0 0 0-.021-.151c-.013-.066-.027-.141.038-.19c.085-.064.18 0 .264.065l.057.04a2.718 2.718 0 0 0-.171-.663a19.71 19.71 0 0 0-.637-1.534m.365-3.557c-.276-.852-.694-2.136-.722-2.2C5.55 8.88 4.9 7.529 4.552 6.808l-.177-.133l.258 1.687c.091.174.163.288.229.392a3.66 3.66 0 0 1 .308.58a7.278 7.278 0 0 1 .47 2.12a9.14 9.14 0 0 1 .081 1.719a1.658 1.658 0 0 0 .1.76a6.805 6.805 0 0 0 .287.69c.16.349.36.784.639 1.543l.018.05l.27-.842l.205-.83l-.527-.757zm13.002 5.733h.375l.144-2.662h-.506zm-6.558.104h.375l.143-2.661h-.505zm8.398-3.376l-1.439.019a.708.708 0 0 0 .219-.078c.324-.175.47-.607.422-.655c-.027-.026-.1.074-.306.165c-.158.069-.313.136-.421.06c-.093-.066-.054-.166-.185-.3c-.012-.012-.148-.147-.225-.1c-.039.024-.026.073-.075.119c-.068.064-.165.035-.167.053c-.002.018.062.018.127.066a.4.4 0 0 1 .127.178c.04.1.012.138.04.225a.415.415 0 0 0 .185.219a.34.34 0 0 0 .135.047l-1.17.015a.5.5 0 0 0 .083-.07c.087-.087.242-.3.184-.462c-.123-.35-1.2-.333-1.3-.007c-.051.168.162.4.283.49a.755.755 0 0 0 .089.058l-2.659.034l2.161-.036v-1.921l-2.731.06v1.908l-2.77.036v.459l9.391-.153zm-6.563-1.755l2.614-.058v1.79l-2.614.045zm5.451-6.547l-8.279.15v5.955l8.16-.157zm-.565 5.537l-7.261.14V5.865l7.364-.134zm-4.745 2.683l2.333-.04v-1.59l-2.333.054z"/></svg>