<svg xmlns="http://www.w3.org/2000/svg" width="1em" height="1em" viewBox="0 0 24 24"><path fill="currentColor" d="M14.421 7.624a3.7 3.7 0 0 0-2.907.5a.258.258 0 0 0-.045.392a.345.345 0 0 0 .441.062a3.038 3.038 0 0 1 2.39-.411a2.741 2.741 0 0 1 2.241 3.139l-.027.119a2.623 2.623 0 0 1-.132.414a.339.339 0 0 0 .169.421a.284.284 0 0 0 .4-.126a3.12 3.12 0 0 0 .194-.646l.009-.039a3.339 3.339 0 0 0-2.733-3.825m3 13.09H16.5l1.063-1.159a.838.838 0 0 0 .009-1.035a1.267 1.267 0 0 0-1.024-.476a1.184 1.184 0 0 0-1.291 1.03a.429.429 0 0 0 .837 0a.418.418 0 0 1 .461-.362a.357.357 0 0 1 .294.144a.291.291 0 0 1 .019.326l-1.531 1.669a.278.278 0 0 0-.035.348a.439.439 0 0 0 .373.182h1.745a.342.342 0 1 0 0-.667zM8.864 19a2.056 2.056 0 0 1-.757.14a1.571 1.571 0 0 1-1.713-1.365a1.571 1.571 0 0 1 1.713-1.365a2.057 2.057 0 0 1 .749.137a.47.47 0 0 0 .559-.154a.307.307 0 0 0-.193-.446a3.056 3.056 0 0 0-1.115-.2a2.338 2.338 0 0 0-2.55 2.032a2.339 2.339 0 0 0 2.55 2.033a3.063 3.063 0 0 0 1.128-.21a.306.306 0 0 0 .19-.447a.472.472 0 0 0-.561-.155m3.351-3.26a2.337 2.337 0 0 0-2.549 2.032a2.338 2.338 0 0 0 2.549 2.033a2.339 2.339 0 0 0 2.55-2.033a2.338 2.338 0 0 0-2.55-2.032m0 3.4a1.57 1.57 0 0 1-1.715-1.368a1.57 1.57 0 0 1 1.712-1.365a1.57 1.57 0 0 1 1.713 1.365a1.57 1.57 0 0 1-1.71 1.365zm-4.027-4.312a.334.334 0 0 0 0-.667H5.726a3.057 3.057 0 0 1-1.048-5.93a.333.333 0 0 0 .2-.412a3.978 3.978 0 1 1 7.6-2.347a.335.335 0 0 0 .266.231a.33.33 0 0 0 .324-.135a3.349 3.349 0 0 1 2.711-1.393h.022A3.27 3.27 0 0 1 18.186 5.2a3.331 3.331 0 0 1 .931 2.451a.334.334 0 0 0 .667.032a4 4 0 0 0-1.116-2.945a3.935 3.935 0 0 0-2.859-1.232a4.032 4.032 0 0 0-2.895 1.217a4.646 4.646 0 0 0-8.876 1.922a4.691 4.691 0 0 0 .126 1.077a3.724 3.724 0 0 0 1.562 7.106Zm12.449-6.606a.334.334 0 0 0-.422.517a3.058 3.058 0 0 1-1.936 5.422H9.555a.334.334 0 0 0 0 .667h8.724a3.725 3.725 0 0 0 2.358-6.606"/></svg>