<svg xmlns="http://www.w3.org/2000/svg" width="1em" height="1em" viewBox="0 0 24 24"><path fill="currentColor" d="m7.187 12.384l2.908.588L17.5 12.6l-1.612-.666Zm2.95.422l-1.807-.328l.612-.029l1.722.329zm.761-.04l-1.717-.328L10 12.4l1.491.337zm.8-.041l-1.489-.336l.79-.037l1.475.333zm.982-.051l-1.471-.332l.933-.044l1.225.34zm.9-.046l-1.221-.34l.916-.043l1.063.344zm.915-.047l-1.06-.344l.8-.037l1.051.339zm.947-.05l-1.05-.338l.624-.03l1.042.336zm.773-.039l-1.039-.337l.624-.029l.9.34zm-.115-1.13l-.119.447l1.745.78l.098-.386l-1.374-.708zm-.14-.042a31.628 31.628 0 0 0-8.962.6s.056.217.11.37l8.733-.483a2.421 2.421 0 0 0 .119-.487m-.903-4.723l-.127-.051Zm5.857 5.466a19.074 19.074 0 0 0-4.849-1.2l-.052-3.881l-.956-.38v4.136l-.126-.015V6.546l-4.583.234l-.034 3.913a.018.018 0 0 1-.008.014l-.343.036c-3.531.395-6.853 1.39-7.953 2.294c-.02.016 0 .051 0 .077l3.441.3L6.564 13l.869-.294l.385-.119l-.774-.189l-.165-.533a28.121 28.121 0 0 1 9.242-.6a9.121 9.121 0 0 1 1.742.875l3.506.709l.561.168H22a8.051 8.051 0 0 0-1.086-.954"/></svg>