<svg xmlns="http://www.w3.org/2000/svg" width="1em" height="1em" viewBox="0 0 24 24"><path fill="currentColor" d="M20.126 16.338a.755.755 0 0 0-.731.456v-.456h-.823v3.039h.828v-1.958c0-.31.167-.481.423-.481a.419.419 0 0 1 .385.446v.087H21v-.232a.836.836 0 0 0-.874-.901m-3.159 2.398a.738.738 0 0 1-.8-.729h2.061a1.673 1.673 0 0 0 .037-.371a1.259 1.259 0 0 0-1.407-1.3a1.449 1.449 0 0 0-1.512 1.5a1.491 1.491 0 0 0 1.62 1.542a1.342 1.342 0 0 0 1.4-.886l-.7-.275a.658.658 0 0 1-.699.519m-.108-1.808c.367 0 .616.2.616.508l-.005.026h-1.3a.681.681 0 0 1 .689-.534m-1.624.083v-.677h-2.644v.705h1.615l-1.667 1.633v.705h2.743v-.74h-1.718ZM11.1 18.736a.74.74 0 0 1-.8-.729h2.061a1.671 1.671 0 0 0 .038-.371a1.26 1.26 0 0 0-1.408-1.3a1.449 1.449 0 0 0-1.511 1.5a1.49 1.49 0 0 0 1.62 1.539a1.341 1.341 0 0 0 1.4-.886l-.7-.275a.659.659 0 0 1-.7.522m-.108-1.808c.366 0 .615.2.615.508v.026H10.3a.683.683 0 0 1 .691-.534zm-2.927 1.808a.74.74 0 0 1-.8-.729h2.059a1.671 1.671 0 0 0 .038-.371a1.26 1.26 0 0 0-1.408-1.3a1.449 1.449 0 0 0-1.511 1.5a1.49 1.49 0 0 0 1.619 1.542a1.341 1.341 0 0 0 1.4-.886l-.7-.275a.659.659 0 0 1-.697.519m-.108-1.808c.366 0 .615.2.615.508v.026h-1.3a.682.682 0 0 1 .685-.534m-2.55-.136a1.036 1.036 0 0 0-.959-.456A1.4 1.4 0 0 0 3 17.866a1.376 1.376 0 0 0 1.443 1.506a1.1 1.1 0 0 0 .994-.434v.434h.787v-4.488h-.817Zm-.781 1.948a.8.8 0 0 1-.806-.874a.814.814 0 0 1 .806-.891a.824.824 0 0 1 .806.891a.812.812 0 0 1-.806.874M8.732 7.419h3.027V9.19H8.732Zm0 2.455h3.027v1.771H8.732Zm3.662 0h3.027v1.771h-3.027Zm3.655 2.456h3.027v1.771h-3.027zm-3.655 0h3.027v1.771h-3.027zm-3.662 0h3.027v1.771H8.732Zm-3.655 0h3.027v1.771H5.077zm10.972-2.456h3.027v1.771h-3.027zm0-2.455h3.027V9.19h-3.027zm0-2.456h3.027v1.771h-3.027z"/></svg>