<svg xmlns="http://www.w3.org/2000/svg" width="1em" height="1em" viewBox="0 0 24 24"><path fill="currentColor" d="M2 12.69h.052v.201H2Zm0 .374h.052v.2H2Zm19.947 0H22v.2h-.053zm0-.747H22v.201h-.053zm0 .373H22v.201h-.053zM2 12.317h.052v.201H2Zm17.58.201l.148-.2h2.219V5.653H2.052v6.664h2.927l-.148.2H2.052v.172H4.7l-.147.2H2.052v.173H4.43l-.147.2H2.052v5.083h19.9v-5.081h-2.92l.146-.2h2.769v-.173h-2.642l.148-.2h2.494v-.172Zm-1.028-2.083L17.324 12.1h-1.945l1.229-1.668zM4.878 11.3l.639-.868H9.2c.936 0 1.175.74.913 1.095l-.422.573H8.269c-.27 0-.189-.111-.143-.172c.089-.121.235-.326.322-.444c.087-.118.089-.184-.087-.184Zm2.872 1.964H4.62l1.28-1.745h1.6c.176 0 .174.067.088.184l-.325.442c-.045.062-.127.173.143.173h2.13a2.215 2.215 0 0 1-1.786.946m3.524 0H9.438l.7-.947h1.832zm2.655 0h-1.836l.7-.947h1.836zM10.292 12.1l1.228-1.668h1.835l-.7.956h.819l.705-.956h1.831L14.782 12.1Zm8.4 1.16h-2.944c-.752 0-.956-.363-.726-.674c.066-.088.2-.272.2-.272h4.169z"/></svg>