<svg xmlns="http://www.w3.org/2000/svg" width="1em" height="1em" viewBox="0 0 24 24"><path fill="currentColor" d="M3.34 11.6a1.445 1.445 0 0 0 .939-.3a1.3 1.3 0 0 0 .424-.824a15.592 15.592 0 0 0-2.41 1.124zm2.778-1.589a4.849 4.849 0 0 0-.729.249c-.011.448 0 .893 0 1.34h.733ZM9.5 9.287a25.359 25.359 0 0 0-2.649.523v1.789h.733v-1.49H8.1c.238.5.489.992.727 1.492h.861c-.274-.537-.556-1.069-.828-1.606a1.045 1.045 0 0 0 .64-.708m3.1 1.641h-1.729v-.88h1.478v-.672h-1.478V9.12q-.366.036-.733.077v2.4H12.6c0-.222.007-.446 0-.669m3.159-.489H15a.936.936 0 0 1-.181.35a.63.63 0 0 1-.912-.035a1.067 1.067 0 0 1-.163-.68c0-.338-.011-.677.017-1.014c-.252-.013-.5-.023-.756-.027c-.02.375-.023.75-.015 1.126a1.663 1.663 0 0 0 .223.891a1.459 1.459 0 0 0 2.128.22a1.409 1.409 0 0 0 .418-.831m5.003 1.161Q21.386 9.731 22 7.861h-.774c-.248.8-.491 1.6-.744 2.407q-.366-1.2-.743-2.407h-.764q.611 1.872 1.234 3.74zM18.63 7.861h-2.688v.659h.977v3.08h.734V8.52h.977zm2.86 4.801a1.072 1.072 0 0 0-1.377.283a.971.971 0 0 0-1.564-.039c0-.1.006-.2.007-.295h-.606v2.757h.605v-1.533a.827.827 0 0 1 .139-.508a.57.57 0 0 1 .81-.1a.747.747 0 0 1 .166.54v1.6h.6v-1.534a.777.777 0 0 1 .2-.585a.569.569 0 0 1 .784.026a.722.722 0 0 1 .135.5v1.6h.6v-1.795a1.057 1.057 0 0 0-.499-.917m-4.496.3a1.194 1.194 0 0 0-1.009-.428a1.37 1.37 0 0 0-1.239.929a1.543 1.543 0 0 0 .309 1.542A1.3 1.3 0 0 0 16.99 15v.372h.6v-2.76h-.605c.005.117.006.233.009.35m-.766 1.886a.85.85 0 0 1-.942-.712a.86.86 0 1 1 .942.712m-3.554-2.269a1.39 1.39 0 0 0-1.012 1.067a1.573 1.573 0 0 0 .195 1.154a1.553 1.553 0 0 0 2.493.026q-.255-.146-.5-.295a.91.91 0 0 1-1.584-.294h2.192a1.536 1.536 0 0 0-.5-1.408a1.458 1.458 0 0 0-1.284-.25m-.418 1.16a1.066 1.066 0 0 1 .2-.4a.839.839 0 0 1 1.218.007a1.041 1.041 0 0 1 .186.388c-.534.009-1.069.005-1.604.005m-1.538-.721v-.407h-.6v2.758h.6V14.02a.775.775 0 0 1 .205-.6a.887.887 0 0 1 .649-.208v-.667a.936.936 0 0 0-.854.473m-3.761.557a.265.265 0 0 1-.2-.355a.568.568 0 0 1 .838.039c.15-.12.3-.236.454-.355a1.246 1.246 0 0 0-1.649-.171a.771.771 0 0 0 .049 1.235c.347.188.776.194 1.094.442a.25.25 0 0 1-.091.368a.677.677 0 0 1-.929-.331l-.525.3a1.317 1.317 0 0 0 1.841.475a.789.789 0 0 0 .033-1.32c-.291-.153-.622-.19-.915-.327m2.136-1.395c-.213.149-.413.312-.62.467v1.872a.883.883 0 0 0 .288.722a1.463 1.463 0 0 0 .9.132v-.557c-.191 0-.475.05-.562-.172c-.026-.485 0-.972-.012-1.457h.574v-.574h-.568Zm1.779-3.659h1.734v-.66h-2.468V8.9c.241-.023.485-.044.73-.06a8.43 8.43 0 0 0 .004-.319m-3.287.706v-.706c.271.008.543-.015.813.012a.494.494 0 0 1 .394.517c.247-.029.5-.056.742-.09a1.335 1.335 0 0 0-.151-.532a1.148 1.148 0 0 0-1.007-.567H6.851V9.35c.249-.041.49-.084.734-.123M6.118 7.861h-.733v1.786c.244-.055.489-.106.733-.158Zm-2.673 0H2v2.81c.248-.093.5-.189.746-.275V8.521c.217 0 .434-.007.651 0a.592.592 0 0 1 .547.5a7.036 7.036 0 0 1 .035.985c.248-.071.5-.132.746-.2a2.345 2.345 0 0 0-.273-1.471a1.257 1.257 0 0 0-1.007-.474m11.089.648a.636.636 0 0 1 .42.372c.269.03.535.075.8.113a1.4 1.4 0 0 0-.489-.876a1.5 1.5 0 0 0-1.278-.245a1.292 1.292 0 0 0-.941.9c.263 0 .526.008.789.023a.634.634 0 0 1 .699-.287"/></svg>