<svg xmlns="http://www.w3.org/2000/svg" width="1em" height="1em" viewBox="0 0 576 576"><path fill="currentColor" d="M100 87h333c15.661 0 34.418-.825 47 2c2.279 3.427 6.481 5.975 8 10c2.481 6.574 1 17.783 1 26v272c0 29.435 7.912 85.665-15 92H179c-24.655 0-83.971 6.281-90-11c-3.534-4.7-2-17.1-2-25V100c2.213-6.865 8.4-8.6 13-13m1 6a259 259 0 0 1-8 8v334c0 13.6-1.267 30.092 1 42c16.729 10.87 77.517 6 106 6h179c31.715 0 67.046 2.438 97-1c2.213-2.945 5.835-4.979 7-9V194c0-30.508 4.063-69.1-2-96c-9.981-6.249-21.624-5-38-5zm134 162c42.247.631 45.343 56 8 65c-22.62 5.452-44.989-20.2-37-42c3.295-8.991 11.1-17.685 20-21c3.3-1.229 6.494-.428 9-2m101 0c42.346.615 45.652 55.624 8 65c-24.592 6.124-45.395-22.908-36-45c2.857-6.718 10.275-14.152 17-17c3.63-1.537 7.928-1.061 11-3m-106 7c-7.056 5.309-14.71 7.975-18 17c-6.6 18.1 11.5 40.5 31 35c14.732-4.156 27.917-24.466 16-42c-5.353-7.876-15.057-10.456-29-10m101 0c-7.056 5.309-14.71 7.975-18 17c-6.6 18.1 11.5 40.5 31 35c14.732-4.156 27.917-24.466 16-42c-5.353-7.876-15.057-10.456-29-10m-92 10v23c-2.076-.372-1.924-.242-3-1c-2.5-3.839-1.132-15.225-1-21h1v-1zm101 0v23c-2.076-.372-1.924-.242-3-1c-2.5-3.839-1.132-15.225-1-21h1v-1zm-111 11h2c-.507 5.762-1.916 7.732-1 13c3.049 1.913 4.245 3.35 9 4c2.2-2.088 3.689-1.716 5-5c2.522-3.762-.24-7.371-1-11h1v-1h2c.961 1.766 1.257 1.68 2 4c2.7 3.91-.047 9.68-1 13c-9.988 5.5-22.146 4.581-22-11a11.725 11.725 0 0 0 2-5c1.754-.631.971-.193 2-1m101 0h2c-.507 5.762-1.916 7.732-1 13c3.049 1.913 4.245 3.35 9 4c2.2-2.088 3.689-1.716 5-5c2.522-3.762-.24-7.371-1-11h1v-1h2c.961 1.766 1.257 1.68 2 4c2.7 3.91-.047 9.68-1 13c-9.988 5.5-22.146 4.581-22-11a11.725 11.725 0 0 0 2-5c1.754-.631.971-.193 2-1" class="cls-1"/></svg>