<svg xmlns="http://www.w3.org/2000/svg" width="1.04em" height="1em" viewBox="0 0 33 32"><path fill="currentColor" d="m7.893 19.33l-.74-.033l-.216-.104l.952.034Zm3.607.09l-2.55-.053v-.116l2.554.042zm.99-.37l.03-14.54l-.43-.03l-.008 14.82l5.368.165v-.23zM6.02 3.789l.284-.034l-.211.102l-.716.044Zm2.942-.207l9.938-.528l-.436.157l-9.506.497Zm9.502-.371l.026 17.259l.39-.33l.02-17.086ZM7.9 4.52l-.98.05l.98-.52Zm-2.45-.33l.41-.21l-.51.03v.19Zm-.1 15.36V4.08v.12l.1-.01l.024 15.407zm0 .26l.487.02l-.363-.233l-.124-.047Zm2.547-.337l-.499-.03l.502.224zM8.52 2.82l-.25-.01l-.01 18.38l.19-.02Zm2.979 16.75L8.95 19.5v.52l2.55.1zM11.46 4.363l-2.5.117l-.01-.58l2.51-.13m.48 16.37l5.51.321v-.828l-5.51-.223Zm6.387-15.893l-.02 16.27l-.856-.056v-.828l-.001-.399l-.01-14.943Zm-.003-.845l-6.384.338v.82l6.387-.313ZM11.5 20.12l-.001-.55l-.038-15.207l-.001-.593l.48-.03v16.4zM5.99 19l2.02 1.05v-.19l-1.78-.91ZM8.01 3.797L6.03 4.88l.2-.01l1.78-.96M5.99 19l.04-14.12l.2-.01v14.08ZM8.83 3.07l-.2-.03l-.05 17.89l.26-.04Zm-.68.53v16.72l-.14-.07V3.682Zm0-.79L5.91 4.05l-.004.798L8.01 3.682l.14-.082Zm0 18.38l-2.29-1.46l.002-.656L8.15 20.32Zm-2.59-1.65l.3.19l.002-.656L5.91 4.05l-.35.19"/></svg>