<svg xmlns="http://www.w3.org/2000/svg" width="1em" height="1em" viewBox="0 0 24 24"><path fill="currentColor" d="M17.569 11.479c.979-4.561-1.133-8.634-5.428-8.634c-2.4 0-7.394 2.635-9.2 8.268c-1.338 4.161-.154 9.245 3.855 9.644c5.592.557 9.904-5.249 10.773-9.278M12.91 2.493a6.67 6.67 0 0 1 3.149 1.2a1.515 1.515 0 0 0 .425-.243A5.894 5.894 0 0 0 12.464 2a8.132 8.132 0 0 0-3.61 1.108c.04.187.088.333.088.333a7.4 7.4 0 0 1 3.968-.948m8.078 6.447a9.6 9.6 0 0 0-4.479-5.6a7.908 7.908 0 0 1 2.218 5.874a11.355 11.355 0 0 1-.26 2.3a13.044 13.044 0 0 1-1.34 3.453c-.255.491-.549 1-.89 1.54a11.172 11.172 0 0 1-1.406 1.637a10.539 10.539 0 0 1-7.088 3.616l.363.044a17.284 17.284 0 0 0 4.875.036a10.163 10.163 0 0 0 5.3-1.922a8.646 8.646 0 0 0 2.669-3.772a10.84 10.84 0 0 0 .038-7.206m-4.751 7.56c.341-.54.635-1.049.89-1.54a15.846 15.846 0 0 1-2.3 3.177a11.172 11.172 0 0 0 1.41-1.637"/></svg>