<svg xmlns="http://www.w3.org/2000/svg" width="1em" height="1em" viewBox="0 0 24 24"><path fill="currentColor" d="M17.494 9.269a.413.413 0 0 0-.412-.392H6.8a.414.414 0 0 0-.412.388L6.011 15.7a.414.414 0 0 0 .412.436H17.4a.415.415 0 0 0 .413-.433zm-.417 5.889a.494.494 0 0 1-.494.508H7.06a.5.5 0 0 1-.494-.518l.25-5.322a.5.5 0 0 1 .493-.472l9.123-.013a.5.5 0 0 1 .5.481zM6.8 8.677h2.014a4.3 4.3 0 0 0-1.945-.869a4.058 4.058 0 0 0-.915-.019c-3.263.325-4.5 4.235-3.506 5.969c.692 1.205 2.166 1.365 3.405 1.227l.332-5.731a.613.613 0 0 1 .615-.577m10.893.582l.282 5.731c1.27.17 2.852.051 3.577-1.21c.994-1.734-.244-5.643-3.508-5.969a3.925 3.925 0 0 0-1.415.118a4.308 4.308 0 0 0-1.413.748h1.866a.611.611 0 0 1 .611.582m.024 6.969a10.165 10.165 0 0 0 2.332-.251c.1-.019.291-.338.291-.338a12.5 12.5 0 0 1-2.362.261a.616.616 0 0 1-.136.241a.6.6 0 0 1-.125.087m-11.879-.361a12.588 12.588 0 0 1-2.18-.252a2.323 2.323 0 0 0 .164.229a.314.314 0 0 0 .128.108h.009a10.071 10.071 0 0 0 2.091.238a.621.621 0 0 1-.072-.051a.606.606 0 0 1-.14-.272m12.169-.161h.067a8.631 8.631 0 0 0 2.561-.345a5.838 5.838 0 0 0 .733-1.076a3.43 3.43 0 0 1-3.064.93c-.108-.007-.212-.038-.32-.051l.026.523c0 .007-.003.013-.003.019m-12.313-.512a3.431 3.431 0 0 1-3.061-.931a5.891 5.891 0 0 0 .732 1.077a8.657 8.657 0 0 0 2.447.339l.03-.505c-.05.004-.098.017-.148.02"/></svg>