<svg xmlns="http://www.w3.org/2000/svg" width="1em" height="1em" viewBox="0 0 12.7 12.7"><path fill="currentColor" d="m3.354 10.358l-.008.025l.073-.025c.251.055.539.025.794.025l-.008-.016h.385v-.009h-.115v-.008l.246-.008v.008H4.68v.008l.172-.024v.008h-.017v.008h.041l-.008-.016l.311-.008v.008h-.04v.008l.097-.008v-.008h-.032v-.009l.18.017l.123-.026l.392-.023v.008h-.024v.008h.049v-.008h-.016v-.008l.998-.05l1.62-.065l.582-.033l.753-.032l.221-.025h.008c.022-.022.04-.027.066-.008h.008l.114-.022l.311-.015l.844-.047l.335-.063c.06-.08.202-.143.286-.2c.018-.011.098-.054.074-.07c.07-.03.14-.064.196-.115c.283-.253.132-.67.045-.974c-.027-.093-.05-.187-.08-.278c-.028-.086-.051-.175-.076-.262c-.335-1.206-.688-2.407-1.033-3.61c-.078-.27-.153-.541-.233-.81c-.086-.293-.162-.558-.399-.768c-.263-.235-.612-.217-.94-.231L8.15 2.54c-1.599-.07-3.197-.15-4.796-.22c-.485-.022-.972-.037-1.457-.067c-.28-.017-.593-.065-.868.008c-.213.057-.334.263-.462.427c-.083.107-.185.203-.227.335c-.066.211-.016.455-.007.672c.02.435.023.876.065 1.31c.043.455.037.917.068 1.374c.05.763.163 1.54.347 2.284c.08.323.154.674.337.958c.152.236.374.357.616.485c.245.13.46.247.74.274c.119.011.238-.005.357-.006c.16-.002.332.008.49-.017M.858 2.37l-.008.008zm-.098.106l-.098.213l-.041.262l-.09.057l.008.025c-.051.015-.102.108-.123.155L.391 3.18l.008.033l-.025-.008l-.016.139H.35c-.006-.147-.044-.358.114-.442c0-.044.054-.1.09-.123l.09-.156zm7.629.123l-.009.008zm1.8.098l-.008.008zm-9.51.008c0 .395.157.764.188 1.154h-.01A41.08 41.08 0 0 0 .7 3.082c-.022-.104-.065-.275-.023-.377m9.544 0l-.008.008zm-9.65.05l.008.007zm-.016.008l.008.009zm9.83.009l-.008.008zm.04.024l-.007.008zm.049.033l.024.025l-.032-.017zm.049.033l.008.016zm-.851.032l.065.344l-.475-.016a1.204 1.204 0 0 1-.082-.336zm.875-.008l.008.017zm.025.017l.008.016zm.049.057l.041.057zm.05.065l.007.017zm.033.041l-.008.008zm.033.058l-.008.008zm-9.222.037c.034-.017.098-.004.136-.004c.12 0 .24.014.36.016c.464.005.928.03 1.392.049c1.615.066 3.23.101 4.845.172c.377.016.754.024 1.13.04c.144.007.29-.002.434.015c.108.013.226.01.335.01c.038 0 .104-.011.135.016c.022.02.026.064.034.09l.063.222l.238.843c.302 1.058.596 2.118.9 3.176c.093.324.182.65.275.974l.066.229c.007.023.027.069-.002.084c-.039.02-.111.006-.153.006c-.112 0-.232-.001-.344.01c-.505.048-1.024.035-1.53.047a138.3 138.3 0 0 0-2.66.09c-.753.033-1.507.033-2.26.066c-.515.023-1.031.027-1.547.05c-.136.005-.273.015-.41.015c-.034 0-.112.015-.14-.008c-.022-.017-.024-.065-.03-.09c-.015-.076-.03-.153-.047-.23c-.07-.309-.136-.62-.198-.932a193.5 193.5 0 0 0-.75-3.552a89.948 89.948 0 0 1-.28-1.318c-.005-.024-.021-.07.008-.085m9.26.041l-.003.005zm.02.044l-.009.008zm-9.92.622l.033.196H.899zm.04.204c.044.332.136.663.202.99c.148.74.295 1.481.452 2.219c.092.433.177.868.265 1.301c.052.256.087.524.176.77c.03.08.076.151.11.229h-.01c-.135-.206-.176-.442-.224-.68l-.139-.687c-.186-.931-.383-1.86-.57-2.791c-.065-.328-.137-.654-.199-.982c-.018-.095-.095-.278-.062-.369m-.453.964l-.003.005zm10.897.158l-.008.008zM.645 6.217l-.008.008zm-.123.327l-.008.008zm.262 1.367l-.008.008zm1.35 1.686l.009.017zm7.932.483l.008.008zm-3.588.191l.005.003zm.052-.003v.008h.024zm-.142.011l.005.003zm-1.757.08v.007h.024zm.144.003l.006.003z" class="cls-1"/></svg>