<svg xmlns="http://www.w3.org/2000/svg" width="1em" height="1em" viewBox="0 0 24 24"><path fill="currentColor" d="m21.137 4.725l-.008-.973a.389.389 0 0 0-.393-.386h-.28l-.007-.981a.39.39 0 1 0-.78.006l.008.981h-.585l-.007-.972a.39.39 0 0 0-.78.007l.008.981h-.28a.391.391 0 0 0-.387.393l.008.973a1.742 1.742 0 0 0 1.365 1.684l.011 1.369a1.7 1.7 0 0 1-.6 1.306a2.935 2.935 0 0 0-.124-.125a3.92 3.92 0 0 0-1.07-.688h-.007a2.365 2.365 0 0 0-.964-.218l-3.778-.032l-.587-.005h-1.2a16.385 16.385 0 0 0-4.163.212a3.4 3.4 0 0 0-2.285 2.453c-.047.17-.59 3.176-.768 4.229A4.4 4.4 0 0 1 5.9 13.472c.3-.058 4.171-.074 6.412-.074c.618 0 6.052 0 6.334.076a3.033 3.033 0 0 1 1.282.683c-.127-.811-.545-3.219-.592-3.386a4.3 4.3 0 0 0-.436-1.029a2.476 2.476 0 0 0 .909-1.942L19.8 6.43a1.744 1.744 0 0 0 1.338-1.7zm-2.912 7.758a1.635 1.635 0 0 1-1.331.45c-.812 0-1.724-.294-1.844-.786l-.721-2.953c-.038-.157-.337-.328-.7-.323a.712.712 0 0 0-.5.176a.156.156 0 0 0-.044.122l.376 2.937a.471.471 0 0 1-.127.375a2.042 2.042 0 0 1-1.461.452a2.149 2.149 0 0 1-1.489-.449a.483.483 0 0 1-.146-.364l.184-2.911a.161.161 0 0 0-.052-.119a.726.726 0 0 0-.5-.161h-.026c-.366 0-.652.178-.679.329l-.529 2.9c-.089.487-.985.779-1.8.779a1.721 1.721 0 0 1-1.365-.446a.407.407 0 0 1-.05-.391a.3.3 0 0 1 .187-.164a.709.709 0 0 1 .261-.048a.522.522 0 0 1 .247.053a.194.194 0 0 1 .107.242a.065.065 0 0 0 .012.061a.918.918 0 0 0 .672.189c.515 0 .886-.191.915-.322l.638-2.895c.1-.433.715-.781 1.411-.793v.116v-.116a1.48 1.48 0 0 1 1.063.356a.591.591 0 0 1 .187.435l-.076 2.916a.122.122 0 0 0 .043.083a1.157 1.157 0 0 0 .765.213a1.1 1.1 0 0 0 .746-.212c.039-.043.037-.071.036-.08L12.37 9.2a.584.584 0 0 1 .163-.448a1.438 1.438 0 0 1 1.039-.392a1.462 1.462 0 0 1 1.458.764l.829 2.958c.039.141.417.338.942.338a.863.863 0 0 0 .651-.189a.073.073 0 0 0 .009-.075a.2.2 0 0 1 .095-.246a.505.505 0 0 1 .248-.057a.736.736 0 0 1 .263.048a.424.424 0 0 1 .14.087h.018l.032.074a.424.424 0 0 1-.032.421m-.025 4.68L6.485 17.2l-.17.079a1 1 0 0 0-.6.887a.989.989 0 0 0 .554.9l.153.08l6.7.011c5.357.009 5.411.008 5.792-.177l.072-.035a2.412 2.412 0 0 0 1.334-1.54a2.67 2.67 0 0 0 0-1.32A2.419 2.419 0 0 0 19 14.556l-.081-.04c-.381-.188-.434-.189-5.664-.186h-1c-4.776 0-6.007.009-6.231.05a3.894 3.894 0 0 0-3.108 3.03a3.409 3.409 0 0 0-.052.779a2.662 2.662 0 0 0 .083.861a4.071 4.071 0 0 0 1.448 2.192a4.808 4.808 0 0 0 1.365.665l.332.093h13.629l.15-.08a1.134 1.134 0 0 0 .458-.489a.824.824 0 0 0 .066-.388a.652.652 0 0 0-.1-.439a1.038 1.038 0 0 0-.54-.485l-.162-.068l-13.334-.035l-.2-.086a1.772 1.772 0 0 1-.724-.492a1.794 1.794 0 0 1 .032-2.532a1.921 1.921 0 0 1 .975-.554c.117-.026 1.159-.041 5.986-.041h5.83l.137.136a.4.4 0 0 1 .024.576z"/></svg>