<svg xmlns="http://www.w3.org/2000/svg" width="1em" height="1em" viewBox="0 0 25 25"><path fill="currentColor" d="M12.86 1.3A11 11 0 0 1 24 12a11 11 0 0 1-11.14 10.77A11 11 0 0 1 1.69 12A11 11 0 0 1 12.86 1.3m0 18.66A8.1 8.1 0 0 0 21.11 12a8.1 8.1 0 0 0-8.25-7.9A8.09 8.09 0 0 0 4.61 12a8.09 8.09 0 0 0 8.25 8m0-19.41A11.72 11.72 0 0 0 .94 12a11.73 11.73 0 0 0 11.92 11.52A11.72 11.72 0 0 0 24.77 12A11.71 11.71 0 0 0 12.86.55Zm0 18.66A7.35 7.35 0 0 1 5.36 12a7.35 7.35 0 0 1 7.5-7.18a7.36 7.36 0 0 1 7.5 7.18a7.36 7.36 0 0 1-7.5 7.18Z"/></svg>