<svg xmlns="http://www.w3.org/2000/svg" width="1.04em" height="1em" viewBox="0 0 33 32"><path fill="currentColor" d="M22.5 9.5c-.6-.3-1.4-.4-2.2-.4s-1.6.1-2.2.4L15 10.8l-.1-5.2l1.9-.8c.7-.3.8-.7.8-.9V1.3c0-.2-.1-.6-.7-.8c-.4-.2-.8-.2-1.3-.2s-1 .1-1.3.2L4.1 4.7c-.5.2-.6.6-.6.8v2.6c.1.2.2.6.8.8c.3.2.7.2 1 .2c.4 0 .8 0 1.1-.1v5.4l-5.1 2.1c-.9.4-1.1 1-1.1 1.3v4.3c.1.4.3 1 1.3 1.4c.6.3 1.3.3 1.8.3c.9 0 2-.1 2.6-.4l16.4-6.7c1.1-.5 1.3-1.1 1.3-1.5v-4.3c.1-.3-.1-1-1.1-1.4m-15-.9L13.9 6l.1 5.2L7.5 14zm14.2 7.3s-13.9 5.8-15 6.2c-1.6.7-3.1 1.3-4.9.6c-1.5-.5-.1-1.1-.1-1.1s15.4-6.5 16.3-6.8c1-.4 2.6-1 4.2-.2c1.6.7-.5 1.3-.5 1.3"/></svg>