<svg xmlns="http://www.w3.org/2000/svg" width="1.04em" height="1em" viewBox="0 0 33 32"><path fill="currentColor" d="m22.4 16.2l-6.1-2.5V9.1h.7c.5 0 1-.1 1.3-.2c.6-.3.7-.7.7-.9V5.4c0-.2-.1-.6-.8-.9L8.2.4C7.8.2 7.2.2 6.6.2c-.3 0-.7 0-1.1.2c-.5.2-.6.6-.7.8v2.6c0 .2.2.6.7.8l2 .9v4.7L6 9.5c-.6-.3-1.7-.4-2.6-.4c-.5 0-1.2 0-1.8.3c-1 .4-1.2 1-1.3 1.4v4.3c0 .3.2.9 1.1 1.3l16.7 7c.6.3 1.4.4 2.2.4s1.6-.1 2.2-.4c1-.4 1.2-1.1 1.2-1.4v-4.3c0-.4-.2-1-1.3-1.5M8.6 5.9l6.8 2.8v4.6l-6.8-2.8zm13.6 12.4c-1.6.8-3.2.2-4.2-.2c-.9-.3-16.3-6.8-16.3-6.8s-1.4-.6.1-1.1c1.8-.7 3.3-.1 4.9.6c.1 0 .4.2.9.3v1.1c0 .3.2.5.5.5s.5-.2.5-.5v-.6c1.7.7 4.3 1.8 6.8 2.8v1.2c0 .3.2.5.5.5s.5-.2.5-.5v-.8c2.9 1.2 5.4 2.2 5.4 2.2s2 .6.4 1.3"/></svg>