<svg xmlns="http://www.w3.org/2000/svg" width="1em" height="1em" viewBox="0 0 24 24"><path fill="currentColor" d="M17.175 12.998v-.568l-1.752 1.269l.212-.002l.262.066l.176.081zm.708 2.493l.053.938l.746.216l2.331-2.491v-.856l-2.393 2.284l-.019-.006l-.963-.286l.066.139l.178.035zm-.858-1.028l.116.116l.192.231l1.214.385l2.431-2.222l-2.726-.737l-.696-.036l-.21.155l.802.018l2.142.621l-.048.042l-2.054 1.774l-1.255-.433zM5.917 12.217l-.181-.106l-.036.256Zm-.156-.245l.212.121l.404-.211l-.678-.411l.032.137l.019.144zm-.881-1.916l.004.003l.1.09l.124.129l.129.164l.151.266l1.62-.703l1.703.709l.913-.462l-1.512-.681l-1.229-.336Zm3.354-.766l-1.402-.372l-2.304.951l.146.103l2.203-.914l1.28.343l1.66.736l.166-.075zm7.106 6.91l.079.073l.849.8v-.011l.049.045a1.575 1.575 0 0 0-.1-1.154l-.042.012l-.006-.014l-.838.237zm-.726-1.328l-.014-.032c-.4.1-.606.369-.631.9l1.122.335v-.008l-.468-1.206zm-.514 1.434v.009h-.052a1.653 1.653 0 0 0 .592.942l.019-.042l.315-.717l.112-.249v-.011zm1.155.046l-.125 1.23l-.005.048c.264.118.82.057.94-.136l-.529-.738zm-.078-1.489v.029l.109 1.183v-.005v.011l.657-.572a1.486 1.486 0 0 0-.766-.646m1.774-.263c-.809-.812-1.823-1.165-2.7-.431l-.561.47a1.178 1.178 0 0 0-.347.892a3.083 3.083 0 0 0 .555 1.843a1.768 1.768 0 0 0 .313.334a2.048 2.048 0 0 0 1.634.677a1.379 1.379 0 0 0 .257-.055a1.5 1.5 0 0 0 .506-.256l.259-.2a5.307 5.307 0 0 0 .417-.383c.236-.293.559-.32.393-1.589a2.528 2.528 0 0 0-.726-1.302m-1.323 3.24c-.848.136-1.963-.985-1.79-2.317a.983.983 0 0 1 .982-.86c.738-.036 1.665.955 1.711 1.994a1.038 1.038 0 0 1-.903 1.181zM4.355 12.608a1.4 1.4 0 0 0-.078-.952l-.668.2zm-.87-1.855l.086 1l.5-.471a1.159 1.159 0 0 0-.586-.529m-.918.728l.854.275l-.374-1.022c-.304.078-.461.304-.48.747m.512 1.249l.342-.829l-.793.052a1.38 1.38 0 0 0 .451.777m.37.306c.2.1.625.047.716-.112l-.616-.932Zm.082-3.275s-.915.378-.986.445a1.735 1.735 0 0 0-.527 1.206a2.657 2.657 0 0 0 .59 1.613a1.7 1.7 0 0 0 1.464.671a.616.616 0 0 0 .283-.083l.754-.439a.493.493 0 0 0 .15-.13a2.054 2.054 0 0 0 .312-1.469a1.973 1.973 0 0 0-2.04-1.814m.766 3.2a.792.792 0 0 1-.468.244c-.646.112-1.494-.813-1.363-1.912a.841.841 0 0 1 .244-.5a.766.766 0 0 1 .5-.211c.561-.03 1.268.788 1.3 1.645a1.024 1.024 0 0 1-.21.736Zm10.903.674l2.129-1.521v-.122l-2.322 1.672zm-.354-.035l2.461-1.77l-.088-.2l-6.127-1.706h-.414l-.413.208A1.619 1.619 0 0 0 10.494 9a1.574 1.574 0 0 0-1.637-1.429s-.734.3-.791.351a1.361 1.361 0 0 0-.423.952a1.718 1.718 0 0 0 .014.193l.351.093a1.49 1.49 0 0 1 0-.378a.66.66 0 0 1 .2-.394a.616.616 0 0 1 .423-.188c.45-.023 1.017.622 1.045 1.3a.97.97 0 0 1-.043.339l.515.228l-.336.151l-.012-.011l-.3-.132l-.026.023l-.009.008l.341.154l-.143.048l-.7.352a1.432 1.432 0 0 0 .216.019l-3.318 1.676l.073.093l6.615 2.259h.781L14.7 13.6zm.135-.72l-2.081-.589l.237-.169l2.087.589zm.423-.327l-2.06-.583l.263-.187l2.06.582zm-4.63-2.437l5.8 1.6l-.245.179l-5.829-1.627Zm-.544.29l5.894 1.611l-.254.181l-2.047-.568l.123-.087l-2.362-.651l-.133.079l-1.5-.416zm2.038 1.523L11 12.7c.016.031.124.043.28.05l-.638.128l.021-.35c.091.076.121.1.179.106l.813-.634l-.594-.215l.882-.6l.464.118l-.779.407zm-2.585-1.253l1.537.435l-.3.176l-1.552-.439zm-.6.3l1.6.451l-.266.158l-1.632-.462zm-.586.292l1.645.478l-.33.2l-1.68-.485zm-.644.328l1.715.491l-.307.182l-1.733-.51zm4.966 2.793L6.482 12.3l.311-.144l6.346 2.027zm.517-.383l-6.324-1.97l.295-.144l1.723.515l-.179.106l2.567.821l.211-.15l2.034.608zm.551-.375l-2.041-.6l.291-.207l2.052.588zm-1.538-.958l.285-.2l2.071.6l-.29.2zm-6.457.044l6.681 2.392h.676l-.017-.188l-.656.004L5.9 12.576l-.077-.078v.151zm7.303 2.544l-.607.03l-6.989-2.467v.578l6.981 2.496l.601-.037zm5.511-1.787a1.556 1.556 0 0 0 .271.291c.055.049.106.092.158.135l.289-.25a1.756 1.756 0 0 1-.222-.188l-.6-.149zm3.272-1.28a2.2 2.2 0 0 0-.627-1.131c-.7-.706-1.578-1.013-2.34-.374c-.051.043-.47.394-.485.408a1.027 1.027 0 0 0-.3.775c0 .105 0 .2.013.295h.025l.386.1a1.855 1.855 0 0 1 .008-.407a.851.851 0 0 1 .849-.747c.64-.032 1.443.83 1.483 1.733v.053l.131.035l-.139.128a1.142 1.142 0 0 1-.044.209l.148-.141v.924l.194-.15a4.682 4.682 0 0 0 .361-.333c.202-.25.481-.271.337-1.377m-2.493 1.267l.41-.36l-1.771-.527h-.817v.342z"/></svg>