<svg xmlns="http://www.w3.org/2000/svg" width="1em" height="1em" viewBox="0 0 24 24"><path fill="currentColor" d="M3.063 6.072c-.017-.186-.407-.278-.612-.641a.355.355 0 0 1-.023-.259c.049-.189.275-.284.376-.315c.586-.182 1.148-.384 1.74-.547a5.09 5.09 0 0 0 1.805-.741c.429-.319.952-1.3.857-1.454c-.054-.088-.428-.009-.449.166a1.189 1.189 0 0 1-.553.865a3.966 3.966 0 0 1-1.75.8a10.156 10.156 0 0 0-1.986.634a.851.851 0 0 0-.479.634a.614.614 0 0 0 .07.332a1.509 1.509 0 0 0 .771.738Zm2.128 1.012l.897-.533l-.105-.073Zm-.391.422l.444.335a.125.125 0 0 0 .141.006L6.7 7.031a.12.12 0 0 0 0-.2l-.435-.3a.127.127 0 0 0-.135 0l-.047.028l.366.254l.079.242l-1.16.713l-.509-.377c-.058-.044.025-.079.088-.116l.239-.183l-.376.223a.119.119 0 0 0-.01.191m.711-2.599L3.1 6.463a.463.463 0 0 0-.032.756L18.813 19.4a.464.464 0 0 0 .6-.027l2.287-2.124a.465.465 0 0 0-.039-.712L6.038 4.925a.464.464 0 0 0-.527-.018M19.6 15.839l.941.72l-.3.285l-.952-.738zm-.555.472l.941.72l-.3.286l-.952-.739zm-.627.533l.941.721l-.3.285l-.953-.739zm-.627.556l.941.72l-.3.285l-.953-.738zm-.979-2.633l-.662.545l-.162-.133l.677-.52zM16 14.155l.147.108l-.662.544l-.162-.133zm-3.57-2.668l-.663.544l-.161-.133l.677-.519zm-.807-.612l.147.108l-.662.544l-.162-.133zm-3.148-2.35l-.663.545l-.161-.134l.677-.519Zm-.66-.5l-.662.544l-.162-.133l.677-.519ZM6.556 6.141l.677.479a.193.193 0 0 1-.008.319l-2.04 1.3a.191.191 0 0 1-.221-.01l-.69-.529a.193.193 0 0 1 .017-.317l2.054-1.25a.2.2 0 0 1 .211.008M19.465 19.54a.55.55 0 0 1-.71.032L2.716 7.165l-.006 2.1l16.213 12.66l2.716-2.6l.376-2.151z"/></svg>