<svg xmlns="http://www.w3.org/2000/svg" width="1em" height="1em" viewBox="0 0 24 24"><path fill="currentColor" d="m20.102 12.97l1.734-1.947h-1.983l-.73.835l-.757-.835h-3.52v-.59h1.857V8.9h-4.816v2.229a1.547 1.547 0 0 0-1.01-.32a1.907 1.907 0 0 0-1.22.43a2.086 2.086 0 0 0-.58.76a2 2 0 0 0-.642-.8a2.235 2.235 0 0 0-1.351-.4a2.21 2.21 0 0 0-1.724.724v-.5H3.636v-.59h1.886V8.9H1.86v6.035h1.776v-2.438h1.27a2.5 2.5 0 0 0-.041.456a2.148 2.148 0 0 0 .646 1.57a2.257 2.257 0 0 0 1.576.61a2.284 2.284 0 0 0 1.3-.36a2.107 2.107 0 0 0 .7-.814a2.2 2.2 0 0 0 .437.621a1.938 1.938 0 0 0 1.37.568a1.437 1.437 0 0 0 .994-.4v.19h6.424l.744-.842l.75.842h2.054zM7.087 11.904a.582.582 0 0 1 .58.374H6.522a.611.611 0 0 1 .565-.374m.61 1.675l-.036.05a.547.547 0 0 1-.574.28a.678.678 0 0 1-.642-.553h2.457c.013.075.029.15.049.223zm3.487.237a.763.763 0 0 1-.694-.836c0-.449.215-.9.694-.9c.619 0 .667.691.667.9c0 .404-.175.836-.667.836m5.283.882h-2.983V9.136h2.983v1.057h-1.855v1.06h1.855v1.01h-1.855v1.376h1.855zm-1.62-1.3v-.906h1.856v-1.048l1.363 1.532l-1.363 1.531v-1.1zm4.21.336l-.85.96h-1.36l1.534-1.722l-1.534-1.72h1.413l.866.954l.833-.954h1.352l-1.526 1.716l1.548 1.73h-1.42z"/></svg>