<svg xmlns="http://www.w3.org/2000/svg" width="1em" height="1em" viewBox="0 0 24 24"><path fill="currentColor" d="M14.906 1.149c-1.865 1.293-3.077 3.465-3.275 5.717a4.583 4.583 0 0 1 3.874 1.423c.298.313 1.763 1.68.58.969c-.428-.264-1.907-.462-1.77-.184c2.481 1.311 2.858 5.05.913 6.984c-1.923 1.97-5.52 1.676-7.169-.507c-.492-.694-1.104-1.641-.79-2.502c.704-1.28 2.272-1.545 3.596-1.609c.545-.3 1.78-1.285.512-1.499c-1.014-.45-1.933-1.078-2.684-1.896c-.954-.543-.194-2.49-.532-2.79c-.96.323-1.837 1.538-2.508 1.791c-.589-.66-.043-2.24-.471-2.495c-2.456 1.626-3.848 4.54-3.954 7.444c-.007-.42.237-1.711.044-.633c-.44 3.838 1.493 7.805 4.705 9.93c3.627 2.513 8.803 2.43 12.342-.21c3.097-2.193 4.885-6.117 4.389-9.897c-.249-2.101-1.036-4.364-2.88-5.576c.53 1.035.877 2.156 1.096 3.295c-.866-2.9-3.901-5.144-5.076-7.18c-.3-.434-.324-1.28-.942-.575m.356.068c.446 1.833 4.066 4.606 5.286 7.46c.53 1.302.188 2.67-.387 3.897c-.366.773-1.346 2.119-1.76 2.228c.528-1.837.006-4.063-1.39-5.243c-.365-1.087-1.606-1.816-2.258-2.932a5.018 5.018 0 0 1 .509-5.41"/></svg>