<svg xmlns="http://www.w3.org/2000/svg" width="1em" height="1em" viewBox="0 0 24 24"><path fill="currentColor" d="M20.97 3.59c-1.24-.34-2.97-.48-4.59-.4c-.39.49-1.11.89-2.14 1.19l-.29 1.98l.81 5.58c.07.25.45.54 1.3.7v6.95c-.57.09-.98.24-1.12.42a.21.21 0 0 0-.05.13v.42c0 .35 1.04.64 2.32.64c1.28 0 2.32-.28 2.32-.64v-.42c0-.24-.47-.44-1.16-.55v-6.95c.84-.16 1.21-.45 1.3-.7l.91-6.3l.28-.06c2.08-.54 2.14-1.43.11-1.99m-2.28 7.11c-.83-.28-2.1-.28-2.93 0l-.71-4.86c1.38.17 2.96.17 4.34 0zM13.83.91C11.17.18 6.81.18 4.16.91c-2.61.73-2.53 1.88.13 2.57c.11.03.23.06.35.08l1.18 8.12c.09.32.58.7 1.68.9v8.97c-.73.12-1.27.31-1.44.55c-.04.06-.06.12-.06.17v.54c0 .45 1.34.82 3 .82s3-.37 3-.82v-.54c0-.3-.61-.56-1.5-.71v-8.98c1.09-.2 1.56-.59 1.68-.9l1.18-8.13c.12-.03.25-.05.36-.08c2.64-.68 2.73-1.83.11-2.56m-2.94 9.19c-1.07-.37-2.71-.37-3.78 0L6.2 3.83c1.78.22 3.82.22 5.6 0z"/></svg>