<svg xmlns="http://www.w3.org/2000/svg" width="1em" height="1em" viewBox="0 0 24 24"><path fill="currentColor" d="M12.43 6.48s-.01 0 0 0V4.45c.98-.05 2.8-.28 2.8-1.28v-1c0-1.23-2.75-1.29-3.31-1.29s-3.3.07-3.3 1.29v1c0 1 1.84 1.23 2.82 1.28l-.01 2.04c-.07.01-.14.01-.21.02c-3.56.46-6.35 4.01-6.35 8.31c0 4.3 2.78 7.85 6.35 8.31c.23.03.47.05.7.05h.07c3.93 0 7.12-3.75 7.12-8.36c.01-4.44-2.96-8.07-6.68-8.34M11.35 7.5c.2-.03.4-.04.61-.04c.36 0 .72.05 1.06.15c.96.27 1.78.89 2.44 1.75c-.28-.05-.58-.09-.9-.09h-.02c-1.67 0-3.51.59-5.17 1.66c-.9.58-1.69 1.27-2.34 2.01c.47-2.92 2.07-5.12 4.32-5.44m.6 14.68c-.18 0-.35-.01-.52-.03c-.9-.11-1.7-.53-2.37-1.19c.16.02.32.03.5.03h.02c1.67 0 3.51-.59 5.17-1.66c.7-.45 1.32-.95 1.86-1.49c-.78 2.53-2.48 4.32-4.66 4.34m2.26-3.69c-1.5.96-3.15 1.5-4.64 1.5c-1.38.02-2.48-.47-3.03-1.33c-.55-.86-.53-2.04.06-3.31c.62-1.35 1.8-2.62 3.3-3.58c1.51-.96 3.15-1.5 4.64-1.5h.01c.62 0 1.15.11 1.63.28c.56 1.18.88 2.61.88 4.18c0 .37-.02.73-.06 1.09c-.65.97-1.6 1.91-2.79 2.67"/></svg>