<svg xmlns="http://www.w3.org/2000/svg" width="1em" height="1em" viewBox="0 0 24 24"><path fill="currentColor" d="m18.5 7.4l-.2-.5c-.5-1.4-.7-1.8-2.1-2.6c-1.6-.9-2.5-.5-2.6-.4l-.6.3c-.8-.6-3-2.3-4.5-2.6c-2.2-.4-2.9.5-3 .8c-.2.4-.5 1.4-.6 2.1v.2c-.1 1.1-.5 4.6.3 6.6c.8 2.1 1.8 3.9 4.1 6.8c2.6 3.3 3.4 4 3.9 4.2c.2.1.5.2.8.2c.4 0 .9-.2 1.4-.7c.9-.8 1-2.1 1-2.7v-3c0-.5-.1-1.1-.1-1.6h.5c.5-.1 1.5-.4 1.6-.5c0 0 .1 0 .1-.1c.1-.1.5-.4.5-1.3v-.2c.1-.7.1-3.2-.5-5M7.3 4.3h.2c.5 0 1.4.5 2.1 1.1c1.2.8 2.5 1.8 3.2 3.6c.3.8.7 3.9.7 4.2c0 0-.1.1-.1.2c-.1.3-.4.8-.4 1.5c0 .8.5 1.4.7 1.8c0 .8 0 2.2-.1 2.6c0 .2-.1.4-.2.4h-.1c-.4-.2-1.4-1.1-2.5-2.4C9.7 16 7.2 12 6.7 10.7c-.4-1.5-.6-3.3-.5-4.1v-.2c.2-.7.5-1.9 1.1-2.1"/></svg>