<svg xmlns="http://www.w3.org/2000/svg" width="1em" height="1em" viewBox="0 0 24 24"><path fill="currentColor" d="M9.08 12.09c0 3.04-.93 5.5-2.07 5.5s-2.07-2.46-2.07-5.5s.93-5.5 2.07-5.5s2.07 2.46 2.07 5.5m4.34-9.07c-.16-.03-.32-.05-.49-.05H7.86c-2.94 0-5.25 3.97-5.25 9.03s2.31 9.03 5.25 9.03h5.08c.16 0 .33-.02.49-.05c2.67-.47 4.69-4.24 4.69-8.98s-2.03-8.51-4.7-8.98m-9.6 9.07c0-4.2 1.65-7.03 3.19-7.03s3.19 2.82 3.19 7.03s-1.65 7.03-3.19 7.03s-3.19-2.83-3.19-7.03m4.86 7.94h-.82c-.06 0-.13-.01-.19-.02c2.02-.59 3.53-3.85 3.53-7.92c0-4.37-1.74-7.81-3.99-8.01c.21-.06.43-.11.65-.11h.82c1.71 0 3.54 3.23 3.54 8.03s-1.83 8.03-3.54 8.03M19.02 6.59a.493.493 0 0 0-.47.22c-.1.15-.11.35-.03.51c.55 1.04.87 2.79.87 4.68c0 1.89-.33 3.64-.87 4.68c-.09.16-.08.36.03.51c.09.14.25.22.41.22h.05c1.75-.18 2.38-2.91 2.38-5.41s-.62-5.23-2.37-5.41"/></svg>