<svg xmlns="http://www.w3.org/2000/svg" width="1em" height="1em" viewBox="0 0 24 24"><path fill="currentColor" d="M11.57 2.43c-5.48 0-9.95 4.5-9.95 10.04c0 5.54 4.46 10.04 9.95 10.04s9.95-4.5 9.95-10.04c0-5.53-4.46-10.04-9.95-10.04m4.49 17.87c-3.34 1.93-7.84 1.32-9.19-.53c-.49-.68-.65-1.46-.47-2.33c.32-1.53 1.67-3.07 3.69-4.24c1.39-.8 3.13-1.24 4.76-1.24c.75 0 1.48.09 2.15.28c1.05.31 1.83.84 2.18 1.51c.93 1.75.34 4.54-3.12 6.55M12.29 2.47V0h-1v2.45c-5.35.15-9.66 4.58-9.66 10.02c0 5.54 4.46 10.04 9.95 10.04s9.95-4.5 9.95-10.04c-.01-5.29-4.09-9.63-9.24-10m3.77 17.83c-3.34 1.93-7.84 1.32-9.19-.53c-.49-.68-.65-1.46-.47-2.33c.32-1.53 1.67-3.07 3.69-4.24c1.39-.8 3.13-1.24 4.76-1.24c.75 0 1.48.09 2.15.28c1.05.31 1.83.84 2.18 1.51c.93 1.75.34 4.54-3.12 6.55"/></svg>