<svg xmlns="http://www.w3.org/2000/svg" width="1em" height="1em" viewBox="0 0 24 24"><path fill="currentColor" d="m16.936 17.845l-.013.121a2.485 2.485 0 0 0-.012.212v.091h.06l.036-.066a.246.246 0 0 0 .04-.115c0-.026.012-.124.022-.219c.01-.095.016-.17.014-.17s-.009.008-.014.017a.685.685 0 0 1-.069.071zm-.895.006a.242.242 0 0 0-.054-.056a.567.567 0 0 1-.074-.076c-.012-.019-.022-.03-.022-.027l.022.224l.023.216l.036.068l.036.069h.058v-.1a3 3 0 0 0-.025-.318m1.064-.803h-.2v.734l.024-.019a.325.325 0 0 0 .128-.2c.016-.095.05-.458.046-.482zm-.974.002v1.155c0 1.267 0 1.191.039 1.235c.039.044.044.046.317.046a2.555 2.555 0 0 0 .269-.007a.151.151 0 0 0 .083-.072a11.349 11.349 0 0 0 .012-1.194v-1.168h-.356c-.195 0-.362.002-.364.005m-.12.681a.259.259 0 0 0 .051.044v-.73h-.19v.024c-.005.024.036.445.05.508a.285.285 0 0 0 .089.154m1.145-.744a.562.562 0 0 0 .011-.121a.377.377 0 0 0-.1-.009a.178.178 0 0 0 .023.033a.913.913 0 0 1 .043.065a.162.162 0 0 0 .023.032m-1.349-.126v.052c.007.083.007.083.039.03a.888.888 0 0 1 .045-.068l.017-.021h-.071Zm-2.766-1.164a.267.267 0 0 1-.267.267a.267.267 0 0 1-.267-.267a.267.267 0 0 1 .267-.267a.267.267 0 0 1 .267.267m4.036 1.29l-.008-.015a.581.581 0 0 0-.037-.052a.6.6 0 0 0-.392-.2a1.3 1.3 0 0 0-.3 0a.626.626 0 0 0-.341.151a.49.49 0 0 0-.09.114s.248.006.586.006zm.152-.188a.4.4 0 0 0 .014-.088c.009-.077.009-.083 0-.107a.326.326 0 0 0-.041-.056a.116.116 0 0 0-.061-.041a.434.434 0 0 0-.119-.017l-.013.119c-.013.125-.015.166-.007.171a1.417 1.417 0 0 0 .227.019m-1.255-.169a1.164 1.164 0 0 0-.019-.14a.415.415 0 0 0-.07.007c-.063.011-.067.013-.094.04a.356.356 0 0 0-.047.057l-.019.029l.007.081a.462.462 0 0 0 .016.091c.007.01.015.01.115 0a.459.459 0 0 0 .116-.02c.007-.007.006-.032-.005-.145m1.52.947a2.273 2.273 0 0 0 .06-.484a1.127 1.127 0 0 0-.157-.6a.818.818 0 0 0-.038-.056l-.012-.014l-.046.046l-.045.046l.015.023a.633.633 0 0 1 .1.264a2.714 2.714 0 0 1-.01.64a3.047 3.047 0 0 1-.411 1l-.035.059v.122l.017-.022a2.774 2.774 0 0 0 .562-1.024M15.7 16.545l.02-.029l-.032-.037c-.058-.066-.053-.065-.086-.021a.969.969 0 0 0-.166.46a1.261 1.261 0 0 0-.008.229a1.949 1.949 0 0 0 .34 1.058a3.848 3.848 0 0 0 .294.4a.23.23 0 0 0 0-.061a.17.17 0 0 0-.036-.117a3.032 3.032 0 0 1-.406-.988a2.677 2.677 0 0 1-.015-.609a.67.67 0 0 1 .095-.285m2.157-.429a1.245 1.245 0 0 0-.172.057l-.166.062l-.064.069l-.065.068l.037.049a.958.958 0 0 1 .149.331a1.2 1.2 0 0 1 .038.354a1.829 1.829 0 0 1-.041.408a2.7 2.7 0 0 1-.6 1.119l-.065.082v.294l.078-.079a5.337 5.337 0 0 0 .762-1.072a1.239 1.239 0 0 0 .141-.446a3.744 3.744 0 0 0 .04-.545c0-.219-.006-.518-.018-.609a.37.37 0 0 0-.054-.142m-1.846 2.531a4.013 4.013 0 0 1-.351-.5a1.938 1.938 0 0 1-.3-1a1.514 1.514 0 0 1 .007-.231a1.05 1.05 0 0 1 .18-.492a.409.409 0 0 0 .034-.049a.8.8 0 0 0-.06-.068l-.061-.066l-.138-.054l-.171-.064l-.03-.012l-.03.059a.278.278 0 0 0-.035.135c-.01.108-.016.482-.011.663a2.559 2.559 0 0 0 .1.71a4.935 4.935 0 0 0 .691 1.087c.061.073.221.245.228.245c.007 0 0-.242 0-.291a.623.623 0 0 0-.053-.072m1.489-2.468c.013-.006.091-.037.175-.067a1.226 1.226 0 0 0 .151-.063c0-.019-.029-.05-.079-.085l-.054-.039l-.024.026a.412.412 0 0 1-.044.037c-.01.006-.122.043-.248.081l-.553.17c-.178.054-.327.1-.331.1a1.68 1.68 0 0 1-.11-.031l-.533-.163a17.647 17.647 0 0 1-.465-.146a.215.215 0 0 1-.064-.042l-.03-.03l-.056.04c-.051.036-.071.06-.073.083a1.256 1.256 0 0 0 .166.069a.519.519 0 0 1 .316.217l.111.12c.01.011.012.011.048 0a1.43 1.43 0 0 1 .255-.041c.122-.011.757-.011.873 0a1.321 1.321 0 0 1 .249.04l.037.012l.132-.137a1.6 1.6 0 0 1 .151-.151m.491-.172a1.607 1.607 0 0 0-.109-.093a1.206 1.206 0 0 0-.149-.105s-.009.012-.013.027s-.006.028.011.04l.09.068c.041.03.095.074.121.1c.044.041.046.044.042.065a.061.061 0 0 0 .033.069a.055.055 0 0 0 .07-.015a.06.06 0 0 0-.025-.094a.4.4 0 0 1-.071-.062m-2.726-.142l-.009-.028a.072.072 0 0 0-.014-.028l-.08.055a1.521 1.521 0 0 0-.215.182a.044.044 0 0 1-.026.018c-.021 0-.043.029-.043.057a.057.057 0 1 0 .114 0c0-.028 0-.031.036-.067a2.074 2.074 0 0 1 .211-.167zm2.498-.169a.127.127 0 0 0-.007.049l.067.048a1.9 1.9 0 0 1 .111.08a.863.863 0 0 0 .282.134a.251.251 0 0 0 .053-.125c0-.009-.476-.231-.492-.232a.139.139 0 0 0-.014.046m-2.71.17c.048-.036.152-.11.174-.124v-.02c0-.01-.01-.03-.014-.045a.053.053 0 0 0-.011-.027l-.231.105c-.268.123-.261.119-.26.138a.357.357 0 0 0 .056.116a.364.364 0 0 0 .118-.044a.76.76 0 0 0 .168-.099m3.294-1.117A1.166 1.166 0 0 0 18 14.72a.334.334 0 0 0-.157.087a.628.628 0 0 1-.109.073l-.051.024v.163l.048.02l.088.037a.574.574 0 0 0 .315.025a.667.667 0 0 0 .234-.062a.293.293 0 0 0 .126-.231c.006-.076-.007-.082-.147-.107m-3.181.375l.088-.037l.048-.02v-.163l-.053-.027a.635.635 0 0 1-.107-.073a.658.658 0 0 0-.086-.061a.384.384 0 0 0-.207-.025a2.334 2.334 0 0 0-.323.056c-.029.012-.036.029-.032.082a.293.293 0 0 0 .126.231a.724.724 0 0 0 .237.063a.574.574 0 0 0 .309-.026m.1.454c-.008.032-.006.04.013.109c.046.167.057.2.083.223c.026.023-.03.01.616.208l.511.156l.366-.112l.538-.166c.1-.029.182-.057.192-.062a.153.153 0 0 0 .063-.075c0-.012.02-.067.037-.123c.043-.147.039-.179-.039-.282a.757.757 0 0 0-.089-.092c-.057-.049-.086-.092-.086-.129a.207.207 0 0 1 .109-.147a.1.1 0 0 0 .032-.033a.392.392 0 0 0 0-.14c-.009-.064-.016-.086-.034-.1a2.225 2.225 0 0 0-.2-.11l-.449.13l-.445.13l-.446-.13l-.45-.13l-.1.053a.426.426 0 0 0-.106.071a.551.551 0 0 0-.02.235a.228.228 0 0 0 .044.036a.158.158 0 0 1 .085.183a.811.811 0 0 1-.091.1a.421.421 0 0 0-.134.197m1.4.351a.315.315 0 0 1 .121-.189a1.356 1.356 0 0 1 .478-.2c.162-.04.172-.04.186-.019c.014.021 0 .027-.048.142a1.241 1.241 0 0 1-.083.163a.405.405 0 0 1-.109.1c-.029.015-.4.151-.426.154a.124.124 0 0 1-.123-.088a.1.1 0 0 1 .003-.063zm-1.129-.412c.009-.009.014-.009.07 0a1.653 1.653 0 0 1 .571.209a.283.283 0 0 1 .109.123a.233.233 0 0 1 .033.142a.124.124 0 0 1-.123.088a4.31 4.31 0 0 1-.432-.159c-.081-.048-.116-.094-.183-.247c-.055-.121-.06-.142-.046-.156zm.357-.744l.294.086l.194.057l.108.03l.545-.159l.273-.08l.126-.039l-.123-.079a2.327 2.327 0 0 0-.317-.151a1.77 1.77 0 0 0-.307-.079a1.321 1.321 0 0 0-.291-.017a1.777 1.777 0 0 0-.591.173c-.042.022-.1.051-.124.067l-.142.084l.129.041c.014.004.115.035.226.066m-.044-.168a1.668 1.668 0 0 1 .561-.163a1.033 1.033 0 0 1 .258.016a1.675 1.675 0 0 1 .291.074a2.5 2.5 0 0 1 .23.1l-.184.054l-.517.151l-.081-.022l-.192-.057l-.3-.086l-.136-.039zm-9.727.912a.241.241 0 1 0 .24.241a.24.24 0 0 0-.24-.241m6.086.013a.241.241 0 1 0 .241.241a.241.241 0 0 0-.241-.241m.852-.543a2.484 2.484 0 0 1-.357-.435c0-.029.13-.052.288-.052c.317 0 .45-.168.288-.361a.667.667 0 0 0-.694-.132c-.087.073-.136.011-.331-.329a3.718 3.718 0 0 0-.53-.689a17.332 17.332 0 0 0-4.989-.075a1.92 1.92 0 0 0-.794.793c-.174.342-.218.38-.358.3a.678.678 0 0 0-.671.115c-.155.228-.065.376.224.376c.155 0 .286.022.286.048a2.3 2.3 0 0 1-.275.389c-.486.6-.492.628-.528 2.363a17.9 17.9 0 0 0 .016 1.824a.475.475 0 0 0 .235.288a2.311 2.311 0 0 0 .7.052c.581-.027.747-.155.747-.568c0-.234 0-.235.389-.175a46.051 46.051 0 0 0 4.7 0l.465-.063l.025.31c.032.384.253.516.869.516c.352 0 .47-.036.634-.2c.2-.2.2-.229.2-1.528a15.182 15.182 0 0 0-.093-1.858a1.381 1.381 0 0 0-.446-.909m-6.583-1.4c.176-.278.305-.519.506-.566a28.872 28.872 0 0 1 4.411.06a2.515 2.515 0 0 1 .572.945a15.192 15.192 0 0 1-2.867.201a15.606 15.606 0 0 1-2.865-.2a2.146 2.146 0 0 1 .243-.44m2.628 3.253H7.221l-.021-.059h3.805l-.019.054zm1.856.052a.13.13 0 0 1-.109.051h-3.5a.128.128 0 0 1-.108-.051h3.715Zm-1.856-.158H7.183l-.02-.057h3.882l-.02.057zm0-.109H7.145l-.021-.06h3.961l-.021.06zm0-.112h-2l-.014-.042v-.012h4.03v.012l-.015.042zm0-.575h1.727l.034.054H7.345l.034-.054zm-1.687-.052a.133.133 0 0 1 .107-.045h3.165a.136.136 0 0 1 .107.045H7.415Zm1.687.158H10.9l.032.051H7.281l.031-.051zm0 .1h1.854l.034.054h-3.78l.034-.054zm0 .106h1.925l.03.048h-3.91l.031-.048zm0 .1h1.984l.017.026a.122.122 0 0 1 .009.027H7.092a.088.088 0 0 1 .01-.027l.016-.026zm-3.039-.311c-.734-.023-.83-.059-.83-.3c0-.362.112-.41.681-.3a3.344 3.344 0 0 1 .706.207l.582.128l-.173.183a2.212 2.212 0 0 1-.97.081zm.31 2.346c.01 0 .39-.222.681-.393a1.614 1.614 0 0 1 .793-.2l2.506-.016a1.582 1.582 0 0 1 .865.228l.575.382c-1.809.071-3.62.07-5.424.001zm5.921-2.342a2.238 2.238 0 0 1-.965-.088l-.173-.183l.582-.129a3.324 3.324 0 0 1 .706-.206c.569-.108.681-.06.681.3c-.004.25-.101.281-.835.305zm-6.473-.359a.267.267 0 0 1-.267.267a.267.267 0 0 1-.267-.267a.267.267 0 0 1 .267-.267a.267.267 0 0 1 .267.267m15.338-7.402H22l-9.849-4.561L2 8.282h1.058zm-2.668 1.52h1.516v9.714h-1.516zm1.803-.33v10.044h.865V8.282H3.058v11.234h.865V9.472Z"/></svg>