<svg xmlns="http://www.w3.org/2000/svg" width="1em" height="1em" viewBox="0 0 24 24"><path fill="currentColor" d="M9.792 4.892a6.43 6.43 0 0 1-3.297-3.525c-.072-.211.009-.28.278-.322a3.112 3.112 0 0 1 1.408.162a6.746 6.746 0 0 1 .724.268a1.505 1.505 0 0 0 1.304-.027c.342-.162.675-.335 1.029-.48a2.18 2.18 0 0 1 1.74-.014a5.254 5.254 0 0 0 3.378.264a7.184 7.184 0 0 1 .855-.14c.516-.052.661.084.495.44a7.389 7.389 0 0 1-2.782 3.161c-.075.048-.136.108-.277.22a2.687 2.687 0 0 1 .316.157a18.158 18.158 0 0 1 6.007 6.185a8.485 8.485 0 0 1 .953 3.435a43.85 43.85 0 0 1 .14 3.32a5.44 5.44 0 0 1-.656 2.607c-.737 1.365-2.149 2.065-4.042 2.282a11.469 11.469 0 0 1-1.278.056c-2.678.005-5.356.013-8.034-.002a6.535 6.535 0 0 1-3.778-1.026a3.974 3.974 0 0 1-1.59-2.396a11.07 11.07 0 0 1-.169-3.939a20.058 20.058 0 0 1 .357-2.601a10.569 10.569 0 0 1 2.886-4.753a21.632 21.632 0 0 1 3.95-3.262a.93.93 0 0 0 .083-.07m2.634 4.968a13.84 13.84 0 0 0 .434-4.8c-.01-.161-.115-.215-.324-.207a4.85 4.85 0 0 1-.809-.004a2.098 2.098 0 0 0-1.89.67a10.63 10.63 0 0 0-3.357 6.869c-.03.31-.004.624-.004 1.004c.034-.109.05-.154.061-.2A17.073 17.073 0 0 1 8.35 8.775a10.393 10.393 0 0 1 3.202-3.51c.086-.057.18-.107.272-.16l.12.023zm.525-4.973c4.052 3.46 5.63 7.637 6.479 12.036a3.732 3.732 0 0 0 .01-.526c-.065-.88-.095-1.762-.214-2.638a13.192 13.192 0 0 0-2.27-5.866a11.592 11.592 0 0 0-2.61-2.677a1.6 1.6 0 0 0-1.395-.329" class="cls-1"/></svg>