<svg xmlns="http://www.w3.org/2000/svg" width="1em" height="1em" viewBox="0 0 24 24"><path fill="currentColor" d="m13.263 10.516l.324-.042l.161.25l-.203.23zm1.608 5.142H14.4V16.8h.473zm-.175.932h-.206v-.726h.21zm.175-5.54h-.4a.154.154 0 0 1-.161-.145v-.2a.194.194 0 0 1-.105-.1l-.151.078a.172.172 0 0 1-.22-.053l-.12-.188a.135.135 0 0 1 .059-.2l.653-.341a.183.183 0 0 1 .233.057l.111.173a.145.145 0 0 1-.062.209l-.159.083a.159.159 0 0 1 .043.109a.181.181 0 0 1-.121.165v.2h.4zM3.365 19.02h-.042v-.064l.112-.024l.112.024v.064h-.042v2.937h-.14zM2.15 21.294a3.852 3.852 0 0 1 .125.559v.109L2 21.95v-1.276c0 .011 0 .024.007.035a5.683 5.683 0 0 0 .142.585M2.133 5.21a.513.513 0 0 0 .022.24c.021.023.037 0 .037-.055a.088.088 0 0 1 .076-.1c.077 0 .206.412.168.538c-.011.037.028.1.087.127c.167.094.177.282.012.247c-.124-.027-.127-.022-.057.091c.095.152.094.181-.009.3c-.078.088-.076.1.026.181a.3.3 0 0 1 .11.2a.218.218 0 0 0 .1.169c.2.12.115.928-.1.928c-.028 0-.049.045-.047.1c.002.055.015.072.03.029a.115.115 0 0 1 .1-.072a.082.082 0 0 0 .073-.089a.14.14 0 0 1 .072-.119a.122.122 0 0 0 .046-.143c-.03-.127.082-.153.181-.042c.099.111.078.238-.028.2c-.061-.024-.053 0 .027.067a.622.622 0 0 1 .145.66c-.07.112-.069.141.01.29c.07.133.074.176.021.213c-.053.037-.05.06.011.117a.9.9 0 0 1-.06.74c-.09.08-.007.247.123.247a.08.08 0 0 1 .071.087c0 .054-.048.087-.127.087s-.119.025-.1.08a.109.109 0 0 1-.026.119c-.037.025-.034.074.009.153c.053.1.048.129-.03.2c-.078.071-.084.094-.026.2c.058.106.053.133.007.165a.194.194 0 0 0-.051.157c.005.065-.019.109-.055.1c-.036-.009-.065.008-.065.034c0 .1.068.116.176.037c.108-.079.128-.072.236.013c.108.085.123.1.04-.036c-.1-.156-.067-.293.065-.293c.1 0 .2.394.131.513a.33.33 0 0 0 .03.2a.35.35 0 0 1 .009.276a.343.343 0 0 0 .022.29a.822.822 0 0 1-.049.659c-.033.023-.028.053.015.083c.1.069-.037.228-.2.228c-.1 0-.12.023-.1.091a.7.7 0 0 1 .032.185c0 .078.01.076.069-.014c.13-.2.227-.072.227.3c0 .338-.134.6-.311.6c-.033 0-.008.041.055.09c.158.125.143.2-.04.2c-.161 0-.194.05-.1.152c.036.041.019.108-.055.213a.54.54 0 0 0-.092.473c.013.089-.012.115-.112.115s-.258.091-.258.162c0 .013.058.012.129 0c.175-.037.176.169 0 .365a.3.3 0 0 0-.1.228c.038.112.122.111.122 0a.081.081 0 0 1 .074-.086c.093 0 .257.372.216.49c-.018.054 0 .088.046.088a.082.082 0 0 1 .076.086a.1.1 0 0 1-.1.087c-.109 0-.139.084-.052.144c.087.06.054.2-.068.234c-.1.028-.115.063-.1.211c.022.17.017.176-.138.151c-.089-.015-.162 0-.162.021s.059.048.131.048c.148 0 .23.159.122.236c-.055.038-.046.051.038.052a.171.171 0 0 1 .145.237a.128.128 0 0 1-.1.052c-.04 0-.074.051-.074.113a.2.2 0 0 1-.046.143a.529.529 0 0 0-.079.235c-.026.156-.06.2-.143.2c-.106 0-.106 0-.014.117c.126.156.027.295-.131.184c-.158-.111-.228-.087-.132.02c.108.122.1.161-.034.228a.936.936 0 0 0-.328.649c0-.011-.005-.024-.007-.035V4.92a.259.259 0 0 1 .136.29m4.976 13.81h-.04v-.064l.11-.024l.112.024v.064H7.25v2.937h-.14zm-.083.126H3.58v2.811h3.446zm-2.36.543h-.893v-.267h.892zm0 .328h-.893v-.2h.892zm0 .327h-.893v-.2h.892zm0 .327h-.893v-.2h.892zm0 .328h-.893v-.2h.892zm0 .327h-.893v-.2h.892zm0 .354h-.893v-.222h.892zm1.088-1.991h-.892v-.267h.892zm0 .328h-.892v-.2h.892zm0 .327h-.892v-.2h.892zm0 .327h-.892v-.2h.892zm0 .328h-.892v-.2h.892zm0 .327h-.892v-.2h.892zm0 .354h-.892v-.222h.892zm1.09-1.991h-.892v-.267h.892zm0 .328h-.892v-.2h.892zm0 .327h-.892v-.2h.892zm0 .327h-.892v-.2h.892zm0 .328h-.892v-.2h.892zm0 .327h-.892v-.2h.892zm0 .354h-.892v-.222h.892zm4.024-2.66h-.042v-.064l.112-.024l.112.024v.064h-.042v2.937h-.14zm-.083.126H7.34v2.811h3.446zm-2.362.543h-.892v-.267h.892zm0 .328h-.892v-.2h.892zm0 .327h-.892v-.2h.892zm0 .327h-.892v-.2h.892zm0 .328h-.892v-.2h.892zm0 .327h-.892v-.2h.892zm0 .354h-.892v-.222h.892zm1.09-1.991H8.62v-.267h.891zm0 .328H8.62v-.2h.891zm0 .327H8.62v-.2h.891zm0 .327H8.62v-.2h.891zm0 .328H8.62v-.2h.891zm0 .327H8.62v-.2h.891zm0 .354H8.62v-.222h.891zm1.09-1.991h-.896v-.267h.9zm0 .328h-.896v-.2h.9zm0 .327h-.896v-.2h.9zm0 .327h-.896v-.2h.9zm0 .328h-.896v-.2h.9zm0 .327h-.896v-.2h.9zm0 .354h-.896v-.222h.9zm4.023-2.66h-.042v-.064l.112-.024l.112.024v.064h-.042v2.937h-.14zm-.084.126h-3.446v2.811h3.446zm-2.36.543h-.893v-.267h.892zm0 .328h-.893v-.2h.892zm0 .327h-.893v-.2h.892zm0 .327h-.893v-.2h.892zm0 .328h-.893v-.2h.892zm0 .327h-.893v-.2h.892zm0 .354h-.893v-.222h.892zm1.088-1.991h-.892v-.267h.892zm0 .328h-.892v-.2h.892zm0 .327h-.892v-.2h.892zm0 .327h-.892v-.2h.892zm0 .328h-.892v-.2h.892zm0 .327h-.892v-.2h.892zm0 .354h-.892v-.222h.892zm1.09-1.991h-.892v-.267h.892zm0 .328h-.892v-.2h.892zm0 .327h-.892v-.2h.892zm0 .327h-.892v-.2h.892zm0 .328h-.892v-.2h.892zm0 .327h-.892v-.2h.892zm0 .354h-.892v-.222h.892zm5.082-2.183h-.944v2.034h.944zm-.216 1.818h-.493v-1.6h.493zm-.907-1.818h-.933v2.034h.933zm-.21 1.819h-.5v-1.6h.5zm1.321-5.345h-2.056v3.076h2.056zm-.163.7H17.5v-.533h1.768zm.026.2h-.025v-.027H17.5v.027h-.025a.249.249 0 0 1 0-.148h.025v.027h1.772v-.027h.024c.012-.001.012.147-.003.147zm-4.428-.071v5.16h2.108v-6.63h2.879l-.006 6.388v.242H22V2l-8.432 6.855h1.3v2h.006v.193h-.006v4.608h.006V16.8Zm2.126-3.932V8.889h2.818v.094l.008 3.8v.087l-2.756.006zm2.587-3.76h-2.353l.016 3.516h2.352zm-.148.859h-2.056v-.759h2.056zm-.013.284h-.028v-.038h-1.974v.038h-.028a.431.431 0 0 1 0-.211h.027v.038h1.974v-.038h.027a.431.431 0 0 1 .002.211"/></svg>