<svg xmlns="http://www.w3.org/2000/svg" width="1em" height="1em" viewBox="0 0 24 24"><path fill="currentColor" d="m10.5 7.9l5.6 5.6c-1.6-2-3.6-4-5.6-5.6m11.5 13L2.9 1.9L1.5 3.2L4 5.8c-1.8 1.8-3 4.6-3 7.3c0 3.1 1.4 5.8 3.6 7.7h-.2c-.6 0-1.1.5-1.1 1.1S3.8 23 4.4 23h6.5c2.7 0 5.5-1.2 7.3-3l2.4 2.4zm-6.8-3.1c-2.9-2-6.9-6-8.9-8.9c-.6-.8-1-1.5-1.1-2l12 12c-.5-.2-1.2-.5-2-1.1m7.1-8.5c-1.6-2.6-5-6.1-7.7-7.7c-1.2-.8-2.1-1-2.5-.8c-1.4 1.2-2.5 3-2.8 4.9c3.1 2.1 6.7 5.7 8.8 8.8c1.9-.3 3.8-1.4 4.9-2.8c.3-.2.1-1.1-.7-2.4m-2.1 1.4C18 9.1 14.9 6 13.3 3.8c-1.6-2.3-1.1-2.9 1.1-1.3c2.3 1.6 5.5 4.8 7.1 7.1c1.6 2.2 1 2.7-1.3 1.1"/></svg>