<svg xmlns="http://www.w3.org/2000/svg" width="0.97em" height="1em" viewBox="0 0 1251 1301"><path fill="currentColor" d="M615 2c16.915-.2 28.311.321 40 5h3v1h2v1h3v1l4 1v1l4 1l1 2l4 1l1 2l3 1l3 4h2l11 12l17 16v2h1l2 3l26 25l50 51l18 17c7.214 9.979 16.428 17.428 25 26l35 36l38 37v2l7 6l15 16l8 7l42 43c9.211 9.211 19.257 17.291 27 28l22 21q23.505 24 47 48c10.17 10.17 21.46 19.195 30 31q13.005 12.5 26 25q21.495 22 43 44c9.53 9.531 19.99 17.926 28 29q3.495 3 7 6q8.505 9 17 18v2l3 2v2c.67.333 1.33.667 2 1c.33 1.333.67 2.667 1 4c.67.333 1.33.667 2 1c.67 2 1.33 4 2 6h1v2h1c.67 2 1.33 4 2 6h1v3h1v2h1l3 13h1v5h1v5h1v9h1v560c0 14.12.4 27.64-3 38v4h-1c-.67 3-1.33 6-2 9h-1c-.67 2-1.33 4-2 6h-1v2h-1c-.33 1.33-.67 2.67-1 4c-.67.33-1.33.67-2 1v2h-1c-.33 1-.67 2-1 3c-.67.33-1.33.67-2 1v2c-2 1.67-4 3.33-6 5v2h-1c-.67 1-1.33 2-2 3h-2c-1.67 2-3.33 4-5 6h-2c-.67 1-1.33 2-2 3h-2v1h-2c-.33.67-.67 1.33-1 2h-2v1h-2v1h-2v1h-2v1c-1.33.33-2.67.67-4 1v1c-21.15 9.26-57.37 6-87 6H100c-9.928 0-19.6.24-27-2h-5v-1c-2.333-.33-4.667-.67-7-1v-1h-2v-1h-3v-1c-2-.67-4-1.33-6-2v-1h-2v-1c-2-.67-4-1.33-6-2c-.333-.67-.667-1.33-1-2h-2c-.333-.67-.667-1.33-1-2c-1-.33-2-.67-3-1c-1.333-1.67-2.667-3.33-4-5h-2c-.333-.67-.667-1.33-1-2c-1-.67-2-1.33-3-2v-2c-2-1.67-4-3.33-6-5v-2c-.667-.33-1.333-.67-2-1v-2c-.667-.33-1.333-.67-2-1l-1-3h-1l-1-4h-1v-2h-1l-2-6H7v-3H6v-3H5v-3H4v-4H3v-5H2v-6H1V675c0-12.215-1.884-30.852 1-41v-8h1l1-10h1l1-7h1v-3h1v-3h1v-2h1v-3h1l2-6h1v-2h1l2-6l2-1l1-4l2-1v-2l3-2v-2l3-2v-2l18-17l2-3h1v-2l33-32l38-39c8.892-8.892 18.521-16.657 26-27l32-31l110-112l56-55v-2l3-2l5-6l90-89c7.743-10.709 17.789-18.789 27-28l8-9l42-41l48-50h2l3-4h2l1-2h2l1-2l3-1v-1l4-1v-1l4-1V9h3V8h2V7Zm-314 999h650V704L713 467l-17-18h-2l-4-5l-9-8v-2l-8-7l-3-4a139.729 139.729 0 0 1-17-15l-16-16c-2.611-2.61-3.838-5.866-8-7c-2.978 5.248-9.747 9.747-14 14c-9.131 9.131-18.458 22.751-32 27l-13-1v-1l-5-1l-2-3h-2l-1-2h-1v-2l-3-2l-1-5h-1l-1-13h1v-3h1l1-5l2-1v-2l50-49l103-104l35-34l4-5c3.867-3.867 14.589-11.817 16-17c-4.115-2.406-6.721-6.721-10-10l-2-1l-19-20l-33-32v-2l-6-5l-12-13l-17-16l-17-18h-2l-1-2h-2l-1-2h-2v-1l-6-1c-3.14-1.17-10.424-3.669-16-2l-12 4l-1 2c-14.49 9.542-24.988 22.988-37 35l-22 21c-8 11.076-18.47 19.47-28 29l-43 44l-27 26c-6.95 9.613-15.747 16.747-24 25l-33 34l-41 40v2l-8 7l-16 17l-75 74c-8.008 11.074-18.469 19.469-28 29l-44 45l-26 25c-6.688 9.247-15.066 16.066-23 24l-31 32c-19.016 19.016-37.985 32.6-48 61v4c-2.273 7.036-2 16.373-2 26v235h1l347-348l59-58l27-28h2l1-2l5-1v-1l13-1v1h3v1l5 1l2 3h2l1 2h1v2l2 1v2h1c.915 1.357.725 1.758 1 4c3.179 3.394 1.893 14.816 0 19h-1v2c-3.369 5.462-9.521 9.522-14 14l-5 6l-25 24l-125 126l-53 52zm700 250h168q6-1.995 12-4v-1c1-.33 2-.67 3-1c.33-.67.67-1.33 1-2h2c.33-.67.67-1.33 1-2c1.67-1.33 3.33-2.67 5-4v-2c.67-.33 1.33-.67 2-1v-2h1c.67-2 1.33-4 2-6h1v-3h1c2.78-8.22 1-28.41 1-39V676c0-11.619 1.78-29.422-1-39v-6h-1v-4h-1c-.67-3-1.33-6-2-9h-1c-.67-2-1.33-4-2-6h-1c-.33-1.333-.67-2.667-1-4c-.67-.333-1.33-.667-2-1v-2c-.67-.333-1.33-.667-2-1v-2l-6-5c-7.22-9.976-16.43-17.427-25-26q-13.005-13.5-26-27q-17.505-17-35-34c-1.67-2-3.33-4-5-6c-.67-.333-1.33-.667-2-1v-2q-20.505-20-41-40q-18.495-19-37-38l-19-18v-2l-7-6l-15-16l-38-37l-10-11c-9.211-9.211-19.257-17.291-27-28l-23-22l-46-47l-16-16c-2.381-2.381-5.234-3.972-7-7c-1.135.844-.145-.127-1 1c-4.118 2.391-6.726 6.726-10 10l-21 20v1l-52 51l-17 18h-1l-24 25c-3.294 3.294-8.621 5.929-10 11c3.029 1.763 4.619 4.62 7 7l17 17l9 8l43 44l66 65l102 103l48 47l15 16c8.6 8.6 19.079 15.779 25 27h1v2h1v4c1.15 3.572 1 8.02 1 13zm-750 0V764h-1L98 917l-47 46v255q1.5 4.995 3 10h1l2 6c.667.33 1.333.67 2 1v2c1.666 1.33 3.334 2.67 5 4c.333.67.667 1.33 1 2h2c.333.67.667 1.33 1 2h2c.333.67.667 1.33 1 2h2v1c12.258 5.55 38.754 3 56 3zm120-400c6.866-.111 13.816.412 18 3l1 2h2l3 4h1v2l2 1v2h1c3.266 7.266 2 19.854 2 30c0 29.969 3.962 48.519-20 56l-13-1v-1h-3v-1h-2l-1-2h-2l-3-4h-1v-2l-2-1v-2h-1v-2h-1c-2.707-6.849-1-27.589-1-37v-27h1l1-6h1v-2l2-1v-2l4-3v-1c2.309-1.633 5.118-1.88 7-4h4zm125 0c6.866-.111 13.816.412 18 3l1 2h2l3 4h1v2l2 1v2h1c3.266 7.266 2 19.854 2 30c0 29.969 3.962 48.519-20 56l-13-1v-1h-3v-1h-2l-1-2h-2l-3-4h-1v-2l-2-1v-2h-1v-2h-1c-2.707-6.849-1-27.589-1-37v-27h1l1-6h1v-2l2-1v-2l4-3v-1c2.309-1.633 5.118-1.88 7-4h4zm125 0c6.866-.111 13.816.412 18 3l1 2h2l3 4h1v2l2 1v2h1c3.266 7.266 2 19.854 2 30c0 29.969 3.962 48.519-20 56l-13-1v-1h-3v-1h-2l-1-2h-2l-3-4h-1v-2l-2-1v-2h-1v-2h-1c-2.707-6.849-1-27.589-1-37v-27h1l1-6h1v-2l2-1v-2l4-3v-1c2.309-1.633 5.118-1.88 7-4h4zm125 0c6.866-.111 13.816.412 18 3l1 2h2l3 4h1v2l2 1v2h1c3.266 7.266 2 19.854 2 30c0 29.969 3.962 48.519-20 56l-13-1v-1h-3v-1h-2l-1-2h-2l-3-4h-1v-2l-2-1v-2h-1v-2h-1c-2.707-6.849-1-27.589-1-37v-27h1l1-6h1v-2l2-1v-2l4-3v-1c2.309-1.633 5.118-1.88 7-4h4zm125 0c6.866-.111 13.816.412 18 3l1 2h2l3 4h1v2l2 1v2h1c3.266 7.266 2 19.854 2 30c0 29.969 3.962 48.519-20 56l-13-1v-1h-3v-1h-2l-1-2h-2l-3-4h-1v-2l-2-1v-2h-1v-2h-1c-2.707-6.849-1-27.589-1-37v-27h1l1-6h1v-2l2-1v-2l4-3v-1c2.309-1.633 5.118-1.88 7-4h4zm-570 200v200h650v-200z" class="cls-1"/></svg>