<svg xmlns="http://www.w3.org/2000/svg" width="1em" height="1em" viewBox="0 0 24 24"><path fill="currentColor" d="M21.6 5.386h-1.058a6.7 6.7 0 0 0 .069-.955H3.36a6.7 6.7 0 0 0 .069.955h-.966a.435.435 0 0 0 0 .869h1.151a7.77 7.77 0 0 0 4.1 4.738l-3.458 9.455a.65.65 0 0 0 .388.835a.65.65 0 0 0 .835-.388l.951-2.6h10.68a1.766 1.766 0 1 0 1.653-.628a.642.642 0 0 0-.034-.311l-2.347-6.422a7.75 7.75 0 0 0 3.975-4.676H21.6a.435.435 0 0 0 0-.869Zm-3.121 12.776a1.245 1.245 0 1 1-1.244 1.245a1.244 1.244 0 0 1 1.244-1.245M17.21 16.99H6.906l2.009-5.5a9.707 9.707 0 0 0 3.071.493a9.664 9.664 0 0 0 3.2-.537Z"/></svg>