<svg xmlns="http://www.w3.org/2000/svg" width="1em" height="1em" viewBox="0 0 24 24"><path fill="currentColor" d="M15.952 10.897a.506.506 0 0 1-.506.506a.506.506 0 0 1-.506-.506a.506.506 0 0 1 .506-.506a.506.506 0 0 1 .506.506m-3.434 0a.506.506 0 0 1-.506.506a.506.506 0 0 1-.506-.506a.506.506 0 0 1 .506-.506a.506.506 0 0 1 .506.506m-3.458 0a.506.506 0 0 1-.506.506a.506.506 0 0 1-.506-.506a.506.506 0 0 1 .506-.506a.506.506 0 0 1 .506.506m9.513-5.734a1.1 1.1 0 0 0-1.1-1.1h-2.826a1.6 1.6 0 0 0-1.5-1.05h-2.3a1.6 1.6 0 0 0-1.5 1.05H6.525a1.1 1.1 0 0 0-1.1 1.1v2.629h13.148zm-4.523-1.1h-4.1a.958.958 0 0 1 .9-.639h2.3a.958.958 0 0 1 .9.639m-7.985 9.301h-.638v3.825a1.2 1.2 0 0 0 1.2 1.2h.332v.211a1.287 1.287 0 0 0-1.066 1.243a1.333 1.333 0 0 0 2.662 0A1.287 1.287 0 0 0 7.488 18.6v-.207h9.17v.207a1.287 1.287 0 0 0-1.066 1.243a1.333 1.333 0 0 0 2.662 0a1.287 1.287 0 0 0-1.066-1.243v-.207h.186a1.2 1.2 0 0 0 1.2-1.2v-3.829zm1.959 6.474a.8.8 0 1 1-.8-.764a.784.784 0 0 1 .8.764m9.7 0a.8.8 0 1 1-.8-.764a.784.784 0 0 1 .8.764M21.681 8.43H2.319A.319.319 0 0 0 2 8.749v1.285a.32.32 0 0 0 .207.3l2.15.806a.32.32 0 1 0 .224-.6l-1.943-.727v-.745h2.789v3.658h13.146V9.068h2.789v.745l-1.943.729a.32.32 0 1 0 .224.6l2.15-.806a.32.32 0 0 0 .207-.3V8.749a.319.319 0 0 0-.319-.319M8.554 11.855a.958.958 0 1 1 .957-.958a.959.959 0 0 1-.957.958m3.446 0a.958.958 0 1 1 .957-.958a.959.959 0 0 1-.957.958m3.446 0a.958.958 0 1 1 .954-.955a.959.959 0 0 1-.954.955"/></svg>