<svg xmlns="http://www.w3.org/2000/svg" width="1em" height="1em" viewBox="0 0 24 24"><path fill="currentColor" d="M12.232 17.03h-.071c-.62 0-1.246-.021-1.6-.063a12.9 12.9 0 0 1-3.6-.951a6.8 6.8 0 0 0 3.956 1.7c.228.028.456.056.509.064c.053.008.162.008.317.009c.632 0 1.683-.033 1.854-.061a6.985 6.985 0 0 0 3.187-1.272c.1-.071.229-.188.368-.315a13.51 13.51 0 0 1-3.3.822a15.681 15.681 0 0 1-1.62.067m.021-3.648h-.011c-.3 0-.6 0-.9-.013a10.9 10.9 0 0 1-1.753-.18a7.7 7.7 0 0 1-4.085-1.807a2.229 2.229 0 0 1-.778-1.7a1.76 1.76 0 0 1 .051-.422a1.386 1.386 0 0 0-.134.262a2.855 2.855 0 0 0 .056 1.5a3.014 3.014 0 0 1 .182.854c.066.561.07.565.316.774a11.222 11.222 0 0 0 5.51 2.035c.248.026.535.052.637.059c.078 0 .21.006.36.006c.563 0 1.363-.03 1.647-.063a12.093 12.093 0 0 0 5.214-1.734a2.424 2.424 0 0 0 .557-.454c0-.02.062-.252.12-.547c.062-.317.143-.68.177-.8a3.942 3.942 0 0 0 .113-1a1.637 1.637 0 0 0-.089-.655a2.377 2.377 0 0 1-.048.731c-.349 1.339-2.079 2.44-4.629 2.945a13.578 13.578 0 0 1-2.385.225h-.131ZM11.07 2.118c-.11.02-.3.05-.467.072a9.349 9.349 0 0 0-2.988.932A9.77 9.77 0 0 0 3.141 7.6a9.324 9.324 0 0 0-.932 2.988c-.023.175-.054.369-.074.476c0 .019-.008.04-.011.053a6.812 6.812 0 0 0-.035.852v.071a6.765 6.765 0 0 0 .035.849c0 .012.007.033.01.051c.021.107.052.3.075.477a9.324 9.324 0 0 0 .932 2.983a9.884 9.884 0 0 0 6.467 5.216a12.309 12.309 0 0 0 1.562.271c.1.01.2.022.288.03c.112.008.282.012.464.012a6.924 6.924 0 0 0 .855-.045c.079-.016.307-.051.511-.077a9.36 9.36 0 0 0 2.988-.933a9.766 9.766 0 0 0 4.476-4.474a9.349 9.349 0 0 0 .932-2.988c.023-.176.054-.37.075-.477c0-.018.007-.039.01-.051a6.764 6.764 0 0 0 .035-.848v-.073a6.789 6.789 0 0 0-.035-.851c0-.013-.007-.034-.011-.052c-.02-.108-.051-.3-.074-.477a9.349 9.349 0 0 0-.932-2.983a9.775 9.775 0 0 0-4.474-4.474a9.357 9.357 0 0 0-2.988-.936c-.17-.022-.357-.052-.467-.072l-.062-.013a6.6 6.6 0 0 0-.815-.035a6.629 6.629 0 0 0-.815.035zM18.317 16a8.72 8.72 0 0 1-1.162 1.117a7.661 7.661 0 0 1-3.5 1.4c-.226.037-1.31.07-1.994.07h-.142c-.258 0-.459 0-.536-.016l-.5-.061a6.9 6.9 0 0 1-5.5-3.344c-.1-.184-.227-.41-.04-.614a.339.339 0 0 1 .287-.115a.327.327 0 0 1 .054 0c.181-.033.364.1.541.237a8.564 8.564 0 0 0 1.191.686a12.105 12.105 0 0 0 3.571.963c.3.037.86.056 1.424.058c.564.002 1.112-.02 1.407-.057a10.724 10.724 0 0 0 4.56-1.521a.951.951 0 0 1 .487-.22a.388.388 0 0 1 .084 0a.325.325 0 0 1 .3.112c.157.158.293.294-.532 1.305m1.841-7.08a2.119 2.119 0 0 1 .233 1.126a4.569 4.569 0 0 1-.14 1.2c-.032.117-.106.455-.164.751a4.361 4.361 0 0 1-.19.744a2.612 2.612 0 0 1-.795.718A12.351 12.351 0 0 1 14.36 15.2c-.274.046-.552.087-.833.119c-.327.037-1.26.068-1.857.068h-.142c-.18 0-.329 0-.423-.009c-.1-.007-.4-.035-.661-.061a11.834 11.834 0 0 1-5.906-2.2c-.423-.363-.48-.545-.561-1.236a2.419 2.419 0 0 0-.135-.672a3.516 3.516 0 0 1-.069-1.994a3.558 3.558 0 0 1 1.393-1.597a1.94 1.94 0 0 1 .724-.385h.033a.321.321 0 0 1 .1 0h.008a.332.332 0 0 1 .326.1c.112.113.262.266-.285 1.16L5.8 8.94a.978.978 0 0 0-.214.655a1.527 1.527 0 0 0 .568 1.19a7.128 7.128 0 0 0 3.7 1.606a10.132 10.132 0 0 0 1.656.169c.239.011.48.013.719.012a12.887 12.887 0 0 0 2.223-.207c2.229-.445 3.782-1.37 4.054-2.416a1.706 1.706 0 0 0-.037-.839c-.112-.243-.118-.295-.118-.358c0-.189.127-.3.318-.442a.772.772 0 0 1 .411-.188h.036a.673.673 0 0 1 .089.005c.006 0 .011 0 .018-.005a.416.416 0 0 1 .191.011a1.885 1.885 0 0 1 .744.787m-3.489-3.195c.116-.167.174-.216.308-.2a.513.513 0 0 1 .065 0a.584.584 0 0 1 .215.019a5.838 5.838 0 0 1 2.062 1.217c.125.152.134.205.062.351A3.937 3.937 0 0 1 18 8.254c-.253.155-.554.334-.669.4c-.133.074-.185.1-.233.067A.116.116 0 0 1 17 8.73c-.059 0-.094-.045-.185-.192a.814.814 0 0 0-.251-.248a.579.579 0 0 1-.264-.32c-.092-.193-.125-.232-.261-.306c-.085-.046-.155-.1-.155-.131a8.325 8.325 0 0 1 .785-1.808m-4.655.048h.07a1.718 1.718 0 0 1 .68.146a3.046 3.046 0 0 0 1.041.17a3.977 3.977 0 0 1 1 .108a6.235 6.235 0 0 1 .791.566c0 .007-.037.1-.081.206a7.649 7.649 0 0 0-.323.92c0 .057.246.22.46.3c.116.045.143.077.239.277a.97.97 0 0 0 .433.473c.174.12.227.23.285.594c.016.1.032.179.045.23a13.064 13.064 0 0 1 1.256-.685l.01.009l.026-.009c.011 0 .021.019.031.03a.3.3 0 0 1 .075-.03c.083.014.159.295.143.528a1.341 1.341 0 0 1-.5.912a3.541 3.541 0 0 1-1.1.752a10.266 10.266 0 0 1-3.706.846c-.257.016-.516.022-.775.022h-.064a10.921 10.921 0 0 1-4.521-.863c-.934-.441-1.551-1.069-1.611-1.639c-.024-.232.047-.4.351-.841a3.73 3.73 0 0 0 .431-.801c.071-.169.125-.206.613-.426a3.515 3.515 0 0 0 1.107-.742a1.374 1.374 0 0 1 .853-.437a3.357 3.357 0 0 1 .541-.05a2.012 2.012 0 0 0 1.223-.355a1.133 1.133 0 0 1 .578-.171a2.736 2.736 0 0 1 .399-.04m.004-3.703"/></svg>