<svg xmlns="http://www.w3.org/2000/svg" width="1em" height="1em" viewBox="0 0 24 24"><path fill="currentColor" d="M17.38 10.77a1.728 1.728 0 1 0 1.711 1.748a1.726 1.726 0 0 0-1.712-1.749m-.016 3.083a1.357 1.357 0 1 1 1.353-1.36a1.354 1.354 0 0 1-1.353 1.36m-5.378-.633h-.938v1.15h.938a.582.582 0 0 0 0-1.15m0-2.545h-.938v1.134h.938a.573.573 0 0 0 0-1.134M20.037 2.5H4.233a1.784 1.784 0 0 0-1.789 1.784v15.811a1.783 1.783 0 0 0 1.79 1.783h15.81a1.783 1.783 0 0 0 1.783-1.783V4.286A1.784 1.784 0 0 0 20.038 2.5M8.91 15.947H7.07v-2.629H5.877v2.63h-1.89V9.165h1.887v2.531h1.192v-2.53H8.91zm8.454.03a3.456 3.456 0 0 1-3.112-1.942a2.037 2.037 0 0 1-2.033 1.912H9.29V9.162h3.144a1.978 1.978 0 0 1 1.815 1.844a3.438 3.438 0 0 1 6.541 1.487a3.468 3.468 0 0 1-3.425 3.483m-4.138-3.484a1.415 1.415 0 0 1 .71.524a2.9 2.9 0 0 1 0-.939a1.445 1.445 0 0 1-.71.415"/></svg>