<svg xmlns="http://www.w3.org/2000/svg" width="1em" height="1em" viewBox="0 0 24 24"><path fill="currentColor" d="M17.856 11.416h-.505v.625h.464c.209 0 .445-.129.445-.3a.362.362 0 0 0-.404-.325m-.008 1.13h-.507v.544h.411c.207 0 .4-.105.4-.278a.275.275 0 0 0-.304-.266m.902-3.098H5.254a2.622 2.622 0 0 0 0 5.243h13.5a2.622 2.622 0 0 0 0-5.243zM8.33 13.589H7.113l-.039-1.031h-.921l-.017 1.013h-1.26l-.152-2.956h1.485l-.039 1.336h.9l-.056-1.318h1.45zm1.51-1.049h-.892l-.019-.55h.911Zm4.171-1.074H11.8v.5h1.588l-.019.588h-1.591v.5h2.159l-.02.547h-3.432l-.135-2.957h3.7zm1.349 1.092h-.874v-.568h.874zm3.651-.245a.5.5 0 0 1 .441.564c0 .712-.675.753-1.035.753h-2.4l-.134-2.977h2.793a.868.868 0 0 1 .961.85a.755.755 0 0 1-.625.788zm2.039-2.544a3.229 3.229 0 0 0-2.3-.95H5.254A3.255 3.255 0 0 0 2 12.07a3.259 3.259 0 0 0 3.253 3.252h13.5a3.254 3.254 0 0 0 2.3-5.553zm-.241 4.361a2.9 2.9 0 0 1-2.059.853H5.254a2.913 2.913 0 1 1 0-5.825h13.5a2.911 2.911 0 0 1 2.059 4.972z"/></svg>