<svg xmlns="http://www.w3.org/2000/svg" width="0.73em" height="1em" viewBox="0 0 400000 553383"><path fill="currentColor" d="M181525 3474c-27089 1175-69566 6343-88292 10742c-30307 7120-46806 23798-49462 49998c-1237 12200-554 14746 18959 70695c22391 64202 22176 63297 22000 92723l-90 15172l-13856-135c-17201-167-16002 327-17302-7130c-1689-9690-1136-11950 3438-14060c3303-1520 4818-2883 5320-4780c203-766 812-1466 1590-1830c3422-1605 4682-3868 5375-9654c260-2163 1058-5673 1775-7800c5310-15753-9938-25775-37414-24590c-17693 763-25677 5827-25563 16212c162 14692 7535 26588 16515 26645c1296 7 1701 285 2885 1980c560 804 2290 2050 4294 3092c5857 3045 5951 3318 7195 20699l2377 20387c690 3182 830 5557 840 13748c10 20145 1440 27410 7033 35830c6934 10430 21214 20405 35774 24990c4040 1272 4460 1510 5701 3237c4998 6960 10432 9857 19462 10373l4630 265v13124l-2440 1318c-3328 1803-5710 1405-5732-961c-20-1960-1620-4600-3186-5253c-4072-1700-12543-434-14220 2128c-615 936-1049 1110-2770 1110c-2412 0-4018 1060-4938 3263l-612 1465h-5758c-9528 0-12340 2010-11806 8444c426 5146 2416 6337 10910 6524l6647 146l680 1696c810 2024 2375 2950 4981 2950c1602 0 2024 198 2862 1330c2455 3323 15934 3658 15934 396c0-1094 1172-254 2110 1512c1240 2340 3380 4298 6032 5526c2680 1240 30116 1590 39050 500c7763-949 7373-1008 7373 1106c0 4840 2272 5958 12095 5957c10588 1 11940-879 12315-8017l190-3582h5477v39957h-3410c-6222 0-5900-514-6275 9970l-288 8036l-2639 860c-4248 1385-30000 7366-132606 30798c-38732 8845-37380 8028-37720 22792l-180 7793l-1660 264c-2580 413-2545 131-2545 20788c0 22650-864 20288 7420 20288c7655 0 7188 650 7188-9977v-8068h5585v8068c0 10636-480 9977 7262 9977c8188 0 7346 2335 7346-20363c0-20629 40-20299-2592-20720c-1840-292-2560-2319-1030-2905c1681-646 41741-5253 42147-4848c847 847-430 7592-1440 7592c-1150 0-2747 720-3243 1460c-173 260-318 9000-322 19420c-8 22735-865 20367 7372 20367c7695 0 7178 684 7327-9690l117-8140l2685-127l2685-129v8089c0 10665-487 9998 7298 9998c8174 0 7310 2438 7310-20630v-19275l-955-670c-525-367-1384-668-1908-668c-2360 0-1756-2660 820-3610c1493-550 74443-11857 76500-11857c520 0 665 2750 933 17508c174 9630 490 17834 702 18232c210 400 385 4590 385 9318c0 12180-363 11640 7816 11650c7694 8 7220 660 7220-9971v-8068h5587v8312c0 10444-542 9733 7414 9733c7800 0 7194 900 7194-10676c2-7212 135-9518 592-10173c470-673 630-4405 777-18130c102-9505 318-17414 480-17576c475-475 75500 10994 77207 11804c1960 930 2497 3506 730 3506c-574 0-1553 400-2175 890l-1131 890v19023c0 22859-904 20442 7635 20442c7905 0 7402 677 7402-9977v-8068h5040l272 1993c150 1097 274 4837 274 8312c0 8140-383 7740 7378 7740c8054 0 7229 2340 7229-20518v-18947l-1132-890c-622-490-1660-890-2304-890c-1091 0-2483-6684-1580-7587c373-374 41240 4345 42070 4857c920 568 313 2728-768 2728c-600 0-1568 475-2148 1055l-1055 1054v18614c0 22823-838 20523 7477 20523c8127 0 7560 735 7560-9808v-8237h5157v7490c0 10920-281 10540 7810 10549c8074 10 7229 2375 7229-20246c0-20696 35-20411-2545-20824l-1660-265l-171-7793c-250-11277-1325-13150-9010-15674c-5510-1811-2670-1141-80490-18965l-82396-19488l-1600-670l-1-7887c0-9950 254-9507-5550-9704l-4332-148v-39878h6014l2 3546c2 7030 1546 8052 12156 8054c9809 3 11783-896 12232-5570c245-2543-217-2445 7204-1520c7416 925 34782 920 37902-5c5020-1490 9128-6748 9128-11682v-2316l2426 130c2645 138 2770 251 3573 3262c926 3470 1170 3520 16744 3522c12777 0 13605-46 15340-887c9257-4480 9257-22100 0-26580c-2043-990-27260-1390-29677-470c-1317 500-2817 2803-2820 4330c0 1836-708 2125-5190 2125c-3263 0-4280-146-4720-678c-310-373-1493-1150-2631-1726l-2068-1047v-13178l4458-290c9219-595 14960-3647 19653-10446c1126-1630 1594-1908 4967-2937c11373-3470 22738-10246 30790-18362c4073-4108 4087-4114 7678-3060c890 260 1438 2239 1833 6604c550 6103 3229 8730 6136 6020c4060-3782 2429-27586-2385-34800c-946-1416-842-26178 126-30074c1007-4050 1860-11020 2552-20838c1294-18394 1389-18661 7779-21710c2016-962 3076-1784 3820-2963c950-1504 1228-1654 3535-1915c6836-778 10602-4838 13794-14878c2503-7872 2890-14685 1037-18313c-4356-8531-25600-12034-46612-7690c-12494 2585-19533 12928-15648 22995c593 1536 1292 4554 1553 6707c779 6403 1934 8744 4980 10092c1455 643 1890 1112 2298 2473c610 2034 1006 2384 5170 4572c4707 2473 5127 4366 3285 14823c-1167 6630-644 6445-18290 6445h-12440l-74-15574c-138-29395-460-28067 23062-95490c19396-55600 19910-57810 16967-73286c-4373-23003-21300-38170-49592-44435c-33488-7410-88312-12042-124200-10486m42539 5156l80560 10046c28217 6349 43785 21612 46420 45510c1256 11400 432 14433-19141 70510l-19516 61019a669305 669305 0 0 1-1121 5650c-197 920-240 914-3024-537c-5884-3067-12267-1200-15365 4490c-2247 4128-2427 7207-2850 48604l-2808 59128c-1404 6106-4830 10964-9044 12830c-6815 3014-9783 10656-6554 16879c1393 2685 1830 2394-5238 3480c-36993 5687-85972 6299-122020 1529l-17235-2580c-144-90 290-1256 967-2595c3214-6373 424-13370-6754-16940c-9997-4970-11106-11690-11558-70015l-2813-50268c-3007-5858-10755-7767-16307-4018c-1972 1332-2033 1310-2367-816c-1805-11502-4818-21222-19937-64323l-8210-24080c0-377-188-870-414-1096c-648-648-7637-21688-9340-28116c-7384-27883 6550-52250 35254-61643c17715-5791 66195-11968 104255-13278l34157 635M98604 42160c-16232 1553-26064 10543-28143 25734c-1661 12130 2641 20742 36461 72981l6504 10047v10490c0 12770-4 12753 3950 13631l1160 257l174 56174c190 60575 164 59894 2468 66766c5900 17590 19937 21402 78822 21402c58530 0 72901-3850 78634-21066c2530-7594 2464-5942 2655-67094l175-56166l1588-440c3483-965 3522-1110 3522-13330c0-7048 159-10668 499-11306c274-516 4110-6545 8524-13398l33118-57143c2781-10500-216-21900-7747-29479c-9138-9190-20184-10232-63648-5998c-46444 4524-67727 4530-114463 31c-27086-2606-35012-2982-44253-2099m21267 3400l23845 2140c45883 4434 66263 4431 112568-14c52147-5007 61727-2964 68107 14523c4580 12543 2110 19240-19960 54210c-16574 26253-18854 29630-19844 29386c-1854-456-4014 1650-31771 30970l-28397 29732c-72-72 716-3694 1750-8050c8090-34071 2540-41690-29597-40642c-26838 875-31092 9503-21962 44542l944 4195c-128 128-12907-13253-39060-40903c-18065-19101-19210-20181-20984-19831c-1707 334-29494-42900-37320-58070c-5866-11368-6070-21293-618-30389c6289-10500 17268-13562 42310-11799m31418 140800l48455 46135c5276 26 3130 2027 43349-40442l39715-41246c180 0 330 4536 330 10080c0 11631 265 10966-4375 10982c-5415 18-5970 500-25930 22547l-41866 51202c-3386 9050-3858 26820-1266 47563c2118 16945 387 20640-9670 20640c-10080 0-12120-3780-10180-18867c3074-23897 2288-43090-2123-51830c-3265-6468-18200-24137-46434-54932c-14393-15700-15163-16328-20012-16340l-3450-265l-967-260v-10259c0-5965 165-10263 395-10263c218 0 15530 16000 34030 35553m63407-24175c12800 2808 14206 11168 6804 40423c-2772 10953-1810 9127-8610 16330c-12674 13420-12883 13430-24867 1008c-7954-8245-7060-6626-9900-17926c-6882-27400-5662-36645 5201-39403c6323-1605 24858-1860 31372-430m-89394 14338c2614 1893 22360 23411 39037 42542l6797 9233c-443 7648-20 9578 4396 20072c4185 9945 4915 12985 5224 21770l245 6982h-1048c-3000 0-2782 2186 407 4111c68 40-290 2468-798 5394c-1502 8667-688 12020 3847 15844c1797 1517 2122 2038 2360 3780c490 3626 1570 6117 3431 7935l1774 1730l-12460-263c-45063-960-54427-6103-56265-30910l-277-3766l1317-264c2377-475 2160-3590-250-3590h-1022v-50910c0-57410-337-52309 3283-49687m152606 3290c78 2361 6 25201-160 50758l-300 46465l-1204 240c-2278 456-2066 2883 304 3478l1110 280l-303 4281c-1722 24286-11098 29380-55862 30344l-12450 270l1793-2037c1850-2103 2873-4556 3368-8090c158-1122 440-2040 628-2040c688 4 4246-3812 5074-5436c1409-2760 1525-5073 540-10770c-1114-6466-1114-6500 120-6968c2046-778 1859-2818-311-3377c-3503-902-1247-16600 4196-29202c4240-9817 5376-15057 4170-19260c-431-1507-761-1094 15399-19290l31170-33348c2286-1450 2562-1074 2720 3708m-228290-1087c13655 1942 19850 8133 16787 16775c-626 1765-1425 5330-1776 7922c-908 6693-2435 7934-10931 8886c-4770 533-22617 170-23397-480c-284-234-1950-630-3705-878c-5004-710-6213-1160-7725-2882c-4537-5167-7920-20485-5310-24038c3960-5392 19430-7670 36054-5305m323270-377c10903 1915 14420 4755 14047 11340c-750 13167-6088 21266-14020 21266c-695 0-2087 337-3096 750c-3018 1232-25531 1120-28258-140c-1063-496-2462-1032-3110-1193c-1750-438-2442-1882-2934-6124c-244-2103-1037-5694-1761-7980c-1921-6063-784-9670 4260-13518c5445-4153 23398-6420 34873-4405m-271519 25882c4489 2970 5126 10008 5159 56820c33 51480 2157 62670 12834 67640c4910 2283 6714 4876 6436 9244c-386 6057-3018 7503-12810 7035c-10177-488-13093-1699-17501-7270l-3186-4000c-3147-3914-3482-9519-3174-53144l647-72900c94-3750 7706-6000 11594-3428m204973-474c2654 1340 3903 3336 3812 6100l191 56303l-2623 67226c-434 362-1360 1516-2057 2565c-4564 6857-8013 8506-18885 9028c-7705 370-8868 100-11116-2570c-1014-1205-1248-1789-1752-4365c-621-3174 1960-7010 6147-9136c7653-3885 10932-11015 12554-27302c248-2480 620-21718 825-42750c437-44525 787-50086 3345-53126c2392-2844 6259-3643 9559-1976m-211134 760c-4450 1350-6020 7240-2813 10550c5590 5766 14075-1482 9647-8242c-1226-1870-4562-2998-6834-2309m205738 16c-5095 1481-6082 8871-1558 11667c3140 1940 6750 1042 8980-2236c3166-4652-1864-11042-7422-9430m4127 4626c1640 2085 164 4516-2600 4282c-2827-240-3497-4055-936-5330c1312-656 2465-314 3536 1047m-206138-680c1214 906 1397 3096 348 4146c-1888 1887-5200 732-5200-1814c0-2439 2862-3813 4852-2330m-44574 8740c-6587 3143-7687 6898-5639 19264c1768 10680 2486 11040 22485 11307l14285 190v34726l-4403-2c-21944-7-32647-5420-34296-17347c-199-1446-559-3403-799-4348c-814-3203-1723-11134-2412-21053c-1158-16680-2278-19857-8066-22905c-2180-1148-2152-1150 10820-1177l10895-22l-2866 1368m311043-1097c236 13-150 333-860 711c-5492 2932-7084 6283-7922 16678l-1114 13770l-1525 12246l-1236 6506c-1706 11126-10366 15767-30845 16531l-7410 276v-34856l14284-182c20714-263 21097-500 22868-14204c1375-10636 392-13314-6004-16367l-2864-1367l11099 118l11530 142m-185142 22060c6530 8698 7955 14522 7950 32493l-1605 22770c-840 6773-705 6447-2140 5123c-2593-2390-2764-4216-1233-13112c2540-14765 1298-24730-4925-39486c-3206-7600-4615-12676-3980-14333c290-760 1206 250 5933 6545m44483-889c-473 1727-2218 6322-3877 10213c-5597 13127-6880 23680-4500 37014c1582 8863 1338 12068-1084 14260c-1183 1070-1115 1232-1908-4474c-3150-22640-2192-43110 2370-50634c1370-2260 5334-7634 7623-10338l1969-2326l133 1573c74 866-254 2986-727 4712M53220 284973c2004 14558 12099 26832 28450 34590l4139 1964l504 3897l754 5080c327 1540 136 1520-5120-560c-17455-6910-30140-18918-33432-31654c-880-3400-2113-20294-1583-21675c188-490 934-2 3010 1967l2760 2619l519 3772m299377 1713c-306 15621-1195 17961-10290 27096c-7846 7880-16268 13310-26042 16795c-3752 1338-3680 1372-3117-1544l715-4893l270-2604l4554-2264c17022-8465 26456-20304 28280-35489c274-2287 3767-7126 5698-7895c80-32 48 4827-70 10798m-220611-9050c-2205 2204 1850 4058 6740 3081c1520-305 2230-1878 1333-2960c-673-810-7284-910-8073-122m15467 0c-2200 2201 2616 4285 7116 3080c1150-309 1713-2046 957-2957c-673-810-7284-912-8073-123m15468 0c-1643 1642 320 3350 3848 3350c3247 0 4659-555 4659-1836c0-1674-790-2030-4512-2030c-2134 0-3680 200-3995 516m65895 160c-1713 1713 66 3194 3824 3185c3984-10 6312-1805 4273-3295c-1155-844-7225-762-8097 110m15467 0c-1713 1713 66 3194 3824 3185c3898-10 5957-1490 4506-3237c-760-918-7401-877-8330 52m15446 20c-1648 1650 300 3160 4072 3160c3676 0 5695-1526 4280-3230c-775-935-7404-877-8352 71m83403 7144c-494 4106-997 5215-3000 6628c-2320 1635-3642 4243-3880 7652l-176 2554l-3807 3690c-4575 4437-17453 13010-17927 11936c-30-70 0-7020 70-15445l126-15317l5892-280c10238-484 19590-1862 21937-3232c1062-620 1064-615 770 1814m-282112-799c4520 1140 10228 1817 18777 2230l5682 275l118 15313l90 15412c-91 325-6854-3255-9807-5184c-9520-6216-15585-13627-18225-22269c-1006-3290-1555-6795-1066-6795c197 1 2190 463 4430 1028m295520 17153c443 1757 1343 8631 1350 10312c4 740-57 737-1178-59c-650-459-2051-1088-3115-1394c-1063-305-1983-587-2044-625c-62-38 643-1695 1566-3682s1810-4240 1970-5010c400-1907 892-1750 1447 460m-241383 30260c-2185 1097-3446 3220-3446 5796c0 8232 11816 8704 12344 493c342-5310-4306-8597-8898-6290m163680 48c-2980 1585-4218 5583-2680 8647c2233 4442 8660 4633 11280 334c3334-5465-2926-12000-8601-8980m-159673 3110a2823 2823 0 0 1-240 5283c-3322 1170-5613-3440-2540-5113c1390-754 1489-760 2780-170m164949 897c1010 1170 947 2445-182 3647c-2176 2315-5790-94-4647-3100c760-1995 3326-2286 4830-547m-158352 19031c990 11457 912 13759-518 15252c-2275 2374-5868 1412-5797-1550c16-683-1-5252-37-10153l-66-8910l1016-417c558-230 1885-377 2948-327l1934 90l519 6015m154120-5761c523 523 375 20987-156 21627c-1573 1895-5606 157-6185-2665c-232-1130 870-17744 1257-18946c176-548 4538-562 5084-16m-145187 1182l5156 762l493 4916l537 6487l44 1570l-5478-66l-5478-67l-293-2363c-577-4651-895-12030-518-12016c210 8 2700 357 5537 777m136253 820l-482 5263c-136 2010-356 4574-490 5700l-240 2049l-5330-44l-5330-45l45-1574l537-6515l493-4941l4726-700c6833-1010 6345-1075 6070 807m-117133 1580c15173 1540 20585 1746 45972 1747l48285-1967l8222-730c377 422-2494 27700-2966 28176c-450 457-1633 400-6530-314c-24977-3642-68560-3650-93476-17c-6266 914-7140 843-7437-595c-210-1022-2388-25370-2384-26646c0-713 240-777 2042-547l8263 893m-52270 11310l492 2040c418 1870 2155 3949 3796 4542l1424 515l-566 2184c-312 1200-567 2690-567 3307c-1 767-351 1310-1111 1716c-1376 738-2610 2427-2982 4089c-660 2943-372 2766-4503 2766c-2580 0-3924-173-4157-537c-2033-3170-2033-17666-1-20837c593-925 7917-732 8173 214m229625 2460c4120 3467 4020 12785-170 16082c-1102 866-1610 900-13530 900h-12380l-455-1700c-985-3656-3402-5167-8276-5172c-1360-1-2480-148-2490-325s-177-1144-370-2148l-354-1826l3057-10c4962-15 7458-1566 8455-5253l435-1610h24820l1266 1063m-242230 7743v7090h-1403c-1164 0-1544-257-2210-1497c-1397-2591-3420-3230-10237-3230c-6333 0-7199-284-7199-2363c0-2096 844-2363 7486-2363c6838 0 8080-416 9915-3330c672-1066 1163-1366 2255-1380l1397-16v7089m47690 5156v11815h-9681c-15400 0-16542-1005-17086-15037c-77-1970 783-4726 1474-4726c210 0 1182-580 2161-1290c2248-1630 2352-1617 2708 280c1393 7427 11175 5926 13715-2105c199-630 770-752 3473-752h3236zm4740-11493c357 9024 1540 14025 3644 15403c998 654 1068 940 1068 4303v3602h-6015v-11815c0-10216 88-11815 645-11815c354 0 650 145 657 322m118140 11493v11815h-5585v-7202l1497-1136c1733-1322 2177-2706 2566-7988c844-11468 1530-9448 1530 4510m10681-9944c1733 6885 12373 7582 13630 892c354-1895 515-1868 3358 568c2716 2327 3272 3872 2472 6864c-272 1016-495 3090-495 4607c0 7575-2235 8807-16004 8820l-9773 9v-23630h6342zm-44515 11713l2040 276l3 2420v2420h-55424v-2476c0-1660 175-2490 537-2520c7570-715 47768-801 52846-113m-62995 1916c-1480 1165-2010 2212-2357 4638l-283 1989l-4080 500l-5258 537l-1180 38v-6836l1565-294c3335-625 9046-1370 10844-1416l1886-47l-1134 893m80932-243c7590 1066 6874 594 6874 4540c0 3915 510 3633-5341 2948c-6220-728-5830-525-5830-3033c0-1910-181-2365-1460-3643l-1460-1462l1353 8c745 4 3384 293 5865 640m-74758 4637c0 2690 369 2878 5688 2878h4658l-123 3545l-125 3544h-14180l-294-3436l-578-5000c-457-2497 278-3377 2820-3377h2133v1848m66586-1214c344 417 433 1337 258 2686l-518 5380l-254 3330h-14096v-7304h4325c5396 0 5986-277 5986-2808v-1920h1888c1134 0 2090 253 2407 635m-30497 24930v20836h-9882v-41680h9882v20838m9524 25394c197 120 358 2626 358 5566v5345h-29670l120-5478l120-5478l4296-271c4658-293 24193-45 24776 316m1196 15400c2523 2687 3908 3045 71662 18540l48335 11234c-176 60-26422-5290-58323-11888c-66045-13658-64306-13336-66450-12320c-2635 1252-2597 1040-4052 22954l-722 10883l987 1977c903 1810 1004 2700 1192 10500l205 8526l-8545-117l-8545-116l-132-2724c-220-4667 628-14436 1380-15891c940-1816 610-13416-862-30403c-263-3033-1385-5156-3073-5814c-1862-725-3850-348-64930 12292l-57480 11682c-97-98 362-288 1020-424l106594-24588c5983-1570 9235-2951 10495-4460c730-874 1078-894 15500-894h14752l990 1053m-27388 10977c333 2104 1720 24130 1530 24270c-514 380-106384 11226-106896 10953c-639-341-42614 4170-48174 5177c-4708 854-6376 2710-6376 7095v1934l-8270-117l-8275-116l-120-5958c-244-12084-476-11812 13300-15580c532-146 760 120 860 1003c220 1920 260 1915 41885-6702l115288-23808c590-110 1944-174 3008-142l1931 60l303 1932m106250 14168l79624 14493c102-887 327-1148 860-998l4950 1380c7638 2120 7956 2645 7992 13170l24 7197h-16330v-1947c0-4217-1843-6280-6307-7057l-48212-5200c-420 225-21429-1830-53918-5274l-53228-5644l265-4517c1410-24043 996-22140 4734-21785c1452 137 37247 7419 79546 16180m-106060 18734c-148 1080-398 5237-555 9237c-263 6677-350 7272-1078 7272c-1193 0-1232-17867-40-18178c1843-483 1950-377 1670 1669m24534-1694c1452 388 1542 18203 96 18203c-480 0-948-240-1040-537c-305-975-590-17937-303-17931c155 2 717 120 1250 264m-66920 1710c-353 90-10146 1605-21760 3365c-26598 4030-27648 4454-27648 11180v1948H80773v-3895c0-6538-2903-5706 33513-9606l31793-2991m138949 2970l32050 3817c1662 645 2030 1907 2111 7235l38 2470h-15897v-1947c0-6727-1050-7150-27648-11180c-30356-4600-30373-4600 9346-395M81058 526856l-284 15897l-1 4618h-5166l113-15360l112-15360l2023-232c1113-128 2160-370 2327-537c1040-1040 1145 268 876 10974m10790-4297l118 6767h-6896v-13786l3330 124l3329 125l119 6767m7508-6243l1610 211v30844h-5036l-316-15441c-328-16110-290-16620 1212-16126c505 165 1643 396 2530 512m92178-313l1415 4l-236 7627l-467 15682l-230 8055h-4691v-9212l-430-9477c-500-309-600-12359-107-12856c178-178 999-212 1826-76s2140 250 2920 253m21425 9564l-283 15897v5907h-2339c-2984 0-2670 1660-3028-15978l-312-15335l2087-163l3122-240l1035-77l-280 9989m91090 1681l-284 15897v4226h-4726v-30934h1479c813 0 1598-193 1744-430c146-236 672-429 1168-429c900 0 902 8 619 11670m10884-4796v6874h-6874v-6588c0-7689-275-7160 3723-7160h3151zm7197-6120l1826 183v30848h-4726v-4226l-286-15970c-279-11462-266-11734 537-11382c453 200 1644 445 2650 546M12744 527028l-284 15681v4656H7300v-30882l1611-169a75606 75606 0 0 1 2863-240l1250-73l-284 11026m10888-4366v6660h-7304v-13320h7303v6660m8223-6230c764 0 800 673 800 15467v15467h-5156v-4656l-285-15750l-286-11094l2064 283l2864 283m171368 6230v6660h-6874v-13320h6874zm169136 4618l-284 15683l-1 4403h-4726v-30882l1611-169a96320 96320 0 0 1 2647-240l1036-73zm10886-4618v6660h-6875v-13320h6875zm7030-6386l1997 273v30817h-4726v-4656l-283-15682c-250-9705-206-11026 370-11026c360 0 1550 123 2646 274"/></svg>