<svg xmlns="http://www.w3.org/2000/svg" width="1em" height="1em" viewBox="0 0 24 24"><path fill="currentColor" d="M5.984 6.662a.126.126 0 0 0 .051.128c.037.031.269 0 .333.081a.512.512 0 0 1 .076.343c.137 3.211 1.676 4.036 2.5 5.763a38.108 38.108 0 0 1 .42 3.923a2.628 2.628 0 0 0 1.057.7l.006.571a.308.308 0 0 0-.2.153l.01.692a.85.85 0 0 0 1.193.012v-.746a.189.189 0 0 0-.165-.12l-.007-.5h1.565v.511a.412.412 0 0 0-.208.162l.015.665a.83.83 0 0 0 1.193-.026c.01-.013-.013-.688-.013-.688a.193.193 0 0 0-.165-.118l-.006-.6c.473-.045.958-.7 1.02-.775a15.4 15.4 0 0 1 .3-3.7c.284-1.064 2.266-1.914 2.463-5.709c0-.048-.018-.351.119-.466c.1-.082.21-.058.3-.151a.391.391 0 0 0 .047-.135a88.261 88.261 0 0 0-11.904.03M9 11.1a.143.143 0 1 1-.285 0v-.76H9Zm1.464 0a.143.143 0 1 1-.285 0v-.76h.285zm0-.971h-.285v-.075c0-.412-.194-.639-.548-.639a.648.648 0 0 0-.631.71h-.289V8.579a.143.143 0 1 1 .285 0v1.075l.037-.076a.715.715 0 0 1 .677-.384c.484 0 .75.309.75.869zm2.724 0h.182a.977.977 0 0 1 1.009-.936a.883.883 0 0 1 .912 1v.016a.124.124 0 0 1-.139.127h-1.495v.006a.729.729 0 0 0 .809.714a1.106 1.106 0 0 0 .438-.075c.03-.01.061-.022.1-.032a.138.138 0 0 1 .116 0a.092.092 0 0 1 .041.066a.118.118 0 0 1-.08.129a1.439 1.439 0 0 1-.639.125a.986.986 0 0 1-1.073-.938h-.181a.106.106 0 1 1 0-.211zm-2.143-.766a.142.142 0 1 1 .284 0v.766h-.284zm1.46 0a.143.143 0 1 1 .285 0v.766h-.29Zm0 1.046v-.069h.285v.768a.143.143 0 1 1-.285 0v-.236v.01a.705.705 0 0 1-.67.4c-.521 0-.785-.285-.785-.845v-.093h.284v.077c0 .43.191.639.584.639a.615.615 0 0 0 .582-.65Zm2.521-.287a.63.63 0 0 0-.643-.714a.711.711 0 0 0-.726.713v.009h1.37zm2.907-4.307a105.326 105.326 0 0 0-11.914.021c-.06 0-.063.612 0 .609a95.466 95.466 0 0 1 11.913 0a1.245 1.245 0 0 0 .001-.63m-6.053-.424c1.679 0 3.377.031 5.052.1l.455.018l-.359-.28c-1.269-.99-3.372-.978-4.909-.97h-.183c-2.472-.009-4.155.317-5.009.968l-.37.281l.464-.018c1.612-.065 3.247-.098 4.859-.099m.056-.841h.185a9.631 9.631 0 0 1 4.288.626a128.698 128.698 0 0 0-4.434-.077h-.095c-1.423 0-2.864.026-4.291.075a11.1 11.1 0 0 1 4.347-.624"/></svg>