<svg xmlns="http://www.w3.org/2000/svg" width="1em" height="1em" viewBox="0 0 24 24"><path fill="currentColor" d="M14.248 8.702h1.59v6.596h-1.59zm-9.105 2.062H4.124a1.4 1.4 0 0 0-.36.037a5.323 5.323 0 0 0-.174.05V8.7H2v6.6h1.59v-2.66a.428.428 0 0 1 .124-.3a.4.4 0 0 1 .3-.13h.92a.446.446 0 0 1 .435.435V15.3h1.575v-2.871a1.53 1.53 0 0 0-.5-1.261a2 2 0 0 0-1.301-.404m15.267 0v2.658a.423.423 0 0 1-.422.423h-.932a.423.423 0 0 1-.422-.423v-2.658h-1.59v2.783a1.679 1.679 0 0 0 .49 1.3a1.874 1.874 0 0 0 1.323.453h1.553a1.47 1.47 0 0 0 1.161-.484A1.842 1.842 0 0 0 22 13.547v-2.783zm-8.957 2.658a.4.4 0 0 1-.13.3a.43.43 0 0 1-.3.124H10.1a.423.423 0 0 1-.422-.423v-2.659H8.087v2.783a1.676 1.676 0 0 0 .491 1.3a1.855 1.855 0 0 0 1.31.453h1.565a1.473 1.473 0 0 0 1.162-.484a1.842 1.842 0 0 0 .429-1.267v-2.785h-1.591z"/></svg>