<svg xmlns="http://www.w3.org/2000/svg" width="1em" height="1em" viewBox="0 0 24 24"><path fill="currentColor" d="M18.743 10.44a.175.175 0 1 0 .172.176a.173.173 0 0 0-.172-.175m-1.375-.872a.175.175 0 1 0-.172-.175a.173.173 0 0 0 .172.175m.687 2.795a3.008 3.008 0 0 0 2.984-3.03a3.846 3.846 0 0 0-.346-1.311a.171.171 0 0 0-.22-.1a.87.87 0 0 1-.734-.081a1.193 1.193 0 0 0-1.236 0a.854.854 0 0 1-.9 0a1.19 1.19 0 0 0-1.236 0a.878.878 0 0 1-.731.082a.171.171 0 0 0-.222.1a3.815 3.815 0 0 0-.344 1.31a3.007 3.007 0 0 0 2.985 3.03m.688-1.223a.524.524 0 1 1 .516-.524a.52.52 0 0 1-.516.524m-1.375-2.27a.524.524 0 1 1-.516.523a.519.519 0 0 1 .516-.523m-.461 1.966l2.063-1.921a.171.171 0 0 1 .244.01a.177.177 0 0 1-.01.248l-2.063 1.92a.171.171 0 0 1-.244-.01a.177.177 0 0 1 .01-.247m2.385-4.36a.344.344 0 0 0 .3.177a.332.332 0 0 0 .171-.046a.35.35 0 0 0 .129-.476q-.655-1.161-1.359-2.294a.343.343 0 0 0-.477-.111a.352.352 0 0 0-.11.483q.696 1.119 1.346 2.268m-1.237 6.585a3.684 3.684 0 0 0 3.587-2.938c.489-1.806-1.565-4.79-1.809-5.234a46.562 46.562 0 0 0-1.348-2.08a.52.52 0 0 0-.731-.13a.545.545 0 0 0-.128.13c-.975 1.417-3.241 4.887-3.241 6.523a3.7 3.7 0 0 0 3.67 3.729M17.908 3.01a.18.18 0 0 1 .253-.043a.19.19 0 0 1 .042.043c.747 1.083 3.18 4.742 3.18 6.322a3.327 3.327 0 1 1-6.654 0c0-1.58 2.432-5.24 3.179-6.322M5.386 16.109h6.459V13.65H5.386ZM9.1 14.263h2.13v1.234H9.1Zm-3.1 0h2.49v1.234H6zm1.551-2.49h.571v.612h-.571Zm13.837 6.615v1.133h-.612v-1.133h-.613v1.133h-.612v-1.133h-.612v1.133h-.653v-1.133h-.612v1.133h-.613v-1.133h-.612v1.133h-.612v-1.133h-.613v1.133h-.612v-1.133H14v1.133h-.612v-6.326l.82.99l1.3-1.572l-6.739-8.136l-.712.859H4.163v.74h3.282l-.327.395H4.449V9.69l-2.422 2.923l1.3 1.572l.548-.66v6h-.651v-1.137h-.612v1.133H2v.739h.612v1.083h.612V20.26h.654v1.083h.612v-2.61h2.122v-.74H4.49v-5.17h-.031l4.31-5.2l4.007 4.834v5.538h-2.164v.739h2.164v2.61h.612V20.26H14v1.083h.612V20.26h.612v1.083h.613V20.26h.612v1.083h.612V20.26h.612v1.083h.613V20.26h.653v1.083h.612V20.26h.612v1.083h.612V20.26h.613v1.083H22v-2.955zM5.061 6.95h1.445L5.061 8.693zm3.708-.631L3.33 12.883l-.437-.528l5.876-7.091l5.877 7.09l-.438.529zm.619 5.454H10v.612h-.612Zm-.898 0h.571v.612H8.49zm-.327 7.714h.612v.612h-.612Zm2.143-2.527H7.232v4.33H2v.612h20v-.612H10.306Zm-.612 4.308H7.845v-3.695h1.849zM8.776 9.077a1.036 1.036 0 1 0 1.035 1.037a1.036 1.036 0 0 0-1.035-1.037m0 1.532a.5.5 0 1 1 .5-.5a.5.5 0 0 1-.5.504z"/></svg>