<svg xmlns="http://www.w3.org/2000/svg" width="1em" height="1em" viewBox="0 0 24000 24000"><path fill="currentColor" d="M21588 5121L2264 7256l17 1758l19311-2092Zm103 0v1800l248 163V5418Zm-60 1906L2258 9113l183 86l832-84v210l40 34h246l33-29v-250l3377-360v180l37 41h240l30-29v-220l3670-390v198l33 35h242l35-27v-244l4000-426v213l37 35h240l35-30v-250l4395-468v220l37 32h246l35-30v-260l1541-161zm-1672 717v1203h326V7744zm-4693 488v1838l270 266V8232Zm-4300 530v1465h302V8762Zm-3982 390v1024l270 484V9152Zm13090 37a1761 1740 0 0 0-658 106l-398 2978a2030 2005 0 0 1 1552 79l155-3022a1761 1740 0 0 0-650-140zM3301 9615v1229l277 656l14-1885Zm11933 801a500 500 0 0 0-234 80c-16 30-375 435-300 729l413 1347c150-714 677-1233 977-1183l-690-957a500 500 0 0 0-166-16m-4377 8a974 974 0 0 0-554 228l-53 3510c360-270 1197-463 1473-154l-217-3438a1231 1231 0 0 0-649-146m-3897 76a674 674 0 0 0-352 92a1389 1389 0 0 0-400 480l686 2684a1600 1600 0 0 1 1107-800l-920-2442a674 674 0 0 0-120-14Zm-3701 840a744 744 0 0 0-387 100a1470 1470 0 0 0-440 525l721 2853a1384 1384 0 0 1 1125-728l-886-2735a744 744 0 0 0-133-15m13357 0a1680 1680 0 0 0-433 66a1038 1038 0 0 0-616 393a2778 2778 0 0 0-507 2460h2a3235 3235 0 0 1 650-2210a1705 1705 0 0 1 1410-563c24 0-140-151-506-148zm293 330a1187 1187 0 0 0-380 62a2219 2219 0 0 0-1245 1907c-20 1060 318 1858 1006 1675v2a2457 2457 0 0 0 1361-2148c77-830-130-1486-742-1498m-97 223c470-4 710 617 648 1318a2062 2062 0 0 1-1148 1800c-575 148-880-490-786-1372a1844 1844 0 0 1 1000-1682v4a697 697 0 0 1 286-68m3023 398a2241 2213 0 0 0-852 143l4 2a1720 1698 0 0 0-959 1095a11235 11093 0 0 0 3366 147a1696 1674 0 0 0-653-1082a2383 2353 0 0 0-906-305m-11738 830a1041 1041 0 0 0-584 182a2390 2390 0 0 0-567 636a2800 2800 0 0 0-250 1329a2429 2429 0 0 1 2200-1600a1406 1406 0 0 0-800-547zm9867 533a992 992 0 0 0-24 158a5360 5292 0 0 0 1926 444a5078 5014 0 0 0 1606-190v-162a5883 5810 0 0 1-3508-250m-9184 139c-214 8-496 105-803 287a2275 2275 0 0 0-1177 1457c9 410 545 426 1197 27a2306 2306 0 0 1 3-2a2306 2306 0 0 0 1178-1457c-4-218-157-321-399-312zm-126 190c202-6 330 84 330 267a1958 1958 0 0 1-992 1234c-550 330-1006 328-1006-23a1967 1967 0 0 1 994-1232l4-7c256-157 492-238 670-243zm2370 80a1789 1789 0 0 0-760 350h6a1965 1965 0 0 0-592 1448a3847 3847 0 0 0 2800-470a1483 1483 0 0 0-590-1135a1638 1638 0 0 0-865-192Zm-6640 173a1144 1144 0 0 0-636 200a2621 2621 0 0 0-620 693l10 4a3019 3019 0 0 0-275 1453a2652 2652 0 0 1 2400-1750a1539 1539 0 0 0-878-600zm733 692c-198 7-475 100-799 289a2724 2724 0 0 0-1350 1478c-10 365 545 310 1212-100a2738 2738 0 0 0 1252-1365c30-207-90-310-315-302m-137 144c190-8 294 78 270 248a2283 2283 0 0 1-1059 1159c-560 340-1022 396-1010 72a2241 2241 0 0 1 1131-1235c268-156 501-237 668-244m7563 630a3346 3346 0 0 1-2879 388v197a2900 2900 0 0 0 1611 170a3336 3336 0 0 0 1287-555"/></svg>