<svg xmlns="http://www.w3.org/2000/svg" width="1em" height="1em" viewBox="0 0 24 24"><path fill="currentColor" d="M2.4 3.357a.151.151 0 1 1-.134-.134a.151.151 0 0 1 .134.134m0-.664a.151.151 0 0 1-.3 0a.151.151 0 0 1 .3 0m3.649.849H3.114v-.178h-.192v-.6h.2v-.147h2.922ZM1.773 2.215v1.848l.021 2.29a3.207 3.207 0 0 0 .071.7h.256q.073-1.493.041-2.993v-.029H21.9q-.033 1.514.041 3.025h.259a3.207 3.207 0 0 0 .071-.7l.021-2.437v-1.7zm4.463 1.518H2.76V2.456h3.476ZM21.8 8.136h-.27v-.13h-19v.13h-.27c-.16 0-.16-.72.01-.72h.26v.13h19v-.13h.26c.17 0 .17.72.01.72M2.54 4.576h18.95v2.593H2.54Z"/></svg>