<svg xmlns="http://www.w3.org/2000/svg" width="1em" height="1em" viewBox="0 0 24 24"><path fill="currentColor" d="M15.948 18.373h-.7l-.887 1.665h.315l.308-.236a4.545 4.545 0 0 0 .75-.718c.09-.11.169-.2.24-.287a3.346 3.346 0 0 0 .676-1.067l.14-1.11h-.475Zm-3.048.203h-.92l.027 1.747l.464-.024l.139-.035a1.439 1.439 0 0 0 .708-.459l.419-.931l.193-.869l.222-1.069h-.991zm-2.575.099l-.119-1.392H9.3l.184 1.295l-.742-.033l.189.917a5.713 5.713 0 0 0 .994.655l.225.07l.491.188l-.1-.238zm-3.682-1.469l.744 1.788a4.889 4.889 0 0 0 .909.778l.055.036l-1.112-2.6zm9.646-1.663h-1.34l-.339 1.076l-.35.685h.584l.722-1.003l.98-.096l.391-.804v-1.017h-.648zm-3.031-1.085v1.137l-1.681-.034v.887l.094.986h1.009l.268-.943l1.177-.078l.13-.876l-.001-1.079zm-3.643.935H8.35l.299.924l.572.934l-.006-.043h.679l-.13-.755l.884-.02v-2.115H9.615Zm-2.573 1.413l.322.3l-.336-.506h.838l-.14-.4l-.248-.788v-.009l.167-1.031H6.9l-.166.982h-.567l.128.287a5 5 0 0 0 .615 1.018a1.1 1.1 0 0 0 .132.147m7.931-6.253l.405 1.969l.738-.221l-.681-1.88l.447-.159l-1.172-1.37l-.699-.058l1.111 1.672zM6.76 11.755l.5-1.19h.61l.3-.564a4.032 4.032 0 0 1 .946-1.2l-.316.124a3.048 3.048 0 0 0-1.049.726l-.077.079a4.013 4.013 0 0 0-.646.9c-.052.106-.1.2-.142.279a6.8 6.8 0 0 0-.319.691l-.4 1.173h.261zm1.991-1.268a7.074 7.074 0 0 0-.508 1.31l-.274.978h.843l.288-2.122h.878l.3-1.825h-.257l-.392.39a4.58 4.58 0 0 0-.829 1.171Zm6.57 2.13l-.125-.606l-.314.053l.844 1.081l-1.262.181a3.531 3.531 0 0 1 .286 1.379v.554l1.17-.019l.037-1.17l1.07.019l-.159-.836l-.041-.089a7.215 7.215 0 0 0-.209-.433a1.328 1.328 0 0 0-.41-.4l.006.018zm-2.331 1.465l1.53-.021l-.761-2.282h-.942l.141 1.283l-1.661.029v2.168h1.721zm-2.871-1.109l-1.594-.023l-.113.405l-.263 1.842H9.36v-1.275h1.624l.058-1.126l.174-1.098h-.827zm-1.071-1.29h-.01l-.003.02zm-2.443 2.442h1.25l.3-1.185l.056-.087h-.342l.222-.788l-.9.936h-.678l-.1.234a4.891 4.891 0 0 0-.389 1.907v.005h.4zm5.443-5.295l-.486 3.943l1.12-.064l-.1-2.2h1c-.16-.293-.317-.551-.469-.8l-.079-.131a16.095 16.095 0 0 1-.411-.71ZM10.953 3.7v.449h.186v5.807h.37V4.144h.158v-.453c.734-.111 1.283-.55 1.283-1.075V2H9.644v.616c0 .532.562.975 1.309 1.084"/></svg>