<svg xmlns="http://www.w3.org/2000/svg" width="1em" height="1em" viewBox="0 0 24 24"><path fill="currentColor" d="M6.5 12.062a5.228 5.228 0 1 0 5.23-5.227a5.227 5.227 0 0 0-5.23 5.227m5.983-.869a.256.256 0 0 1 .362.019a1.5 1.5 0 1 1-2.228 0a.256.256 0 0 1 .381.343a.987.987 0 1 0 1.466 0a.256.256 0 0 1 .022-.362zm-.494-.653v1.676a.257.257 0 1 1-.513 0V10.54a.257.257 0 0 1 .513 0m-.259 7.203a5.671 5.671 0 0 1-4.55-2.28L4.915 17.3a8.592 8.592 0 0 0 13.732-.135l-2.369-1.694a5.672 5.672 0 0 1-4.548 2.272m.283.647c0-.018.031-.033.071-.033c.039 0 .071.015.071.033v.066c0 .018-.034.033-.073.033c-.039 0-.071-.015-.071-.033zm-.632.838h-.072c-.02 0-.036-.033-.036-.073c0-.04.017-.071.037-.071h.072c.02 0 .036.033.036.073c0 .04-.018.071-.037.071m.13-.61a.035.035 0 0 1 .061-.025l.051.05a.036.036 0 1 1-.051.051l-.05-.051a.034.034 0 0 1-.011-.025m.112 1.05l-.05.051a.036.036 0 1 1-.051-.051l.051-.05a.032.032 0 0 1 .024-.011a.036.036 0 0 1 .026.061m.534.263c0 .02-.034.036-.073.036c-.039 0-.071-.017-.071-.037v-.07c0-.02.031-.036.071-.037c.039 0 .071.017.071.037zm-.072-.25a.525.525 0 1 1 .525-.525a.526.526 0 0 1-.525.525m.584.065a.04.04 0 0 1-.06 0l-.06-.063a.042.042 0 0 1-.013-.032a.043.043 0 0 1 .042-.044a.044.044 0 0 1 .031.013l.06.063a.045.045 0 0 1 0 .063m0-1.1l-.06.051a.048.048 0 0 1-.06 0a.032.032 0 0 1 0-.051l.06-.05a.048.048 0 0 1 .061 0a.032.032 0 0 1-.001.047zm.191.585h-.072c-.02 0-.036-.033-.036-.073c0-.04.017-.071.037-.071h.072c.02 0 .036.033.035.073c-.001.04-.016.068-.036.068zm-.816-14.373a.382.382 0 0 1-.382.382a.382.382 0 0 1-.382-.382a.382.382 0 0 1 .382-.382a.382.382 0 0 1 .382.382m.041 13.916a.382.382 0 1 0 .382.382a.381.381 0 0 0-.382-.382m6.189-12.281l-2.266 1.832a5.68 5.68 0 0 1 .438 6.905l2.369 1.694a8.592 8.592 0 0 0-.541-10.431m.419 5.729a.051.051 0 0 1-.074 0l-.138-.122a.054.054 0 0 1 0-.075l.309-.347a.051.051 0 0 0 0-.074l-.309-.275a.053.053 0 0 1 0-.074l.123-.138a.051.051 0 0 1 .074 0l.507.495a.068.068 0 0 1 0 .1l-.349.363zm-12.644-.16a5.659 5.659 0 0 1 .989-3.2L4.669 7.164a8.593 8.593 0 0 0 .073 9.9l2.27-1.835a5.655 5.655 0 0 1-.963-3.167m-1.057-.38l-.317.266a.051.051 0 0 0-.006.073l.3.357a.052.052 0 0 1-.006.074l-.142.119a.053.053 0 0 1-.074-.007l-.128-.154l-.338-.373a.07.07 0 0 1 0-.1l.523-.479a.052.052 0 0 1 .073.007l.123.143a.051.051 0 0 1-.008.074m6.738-5.301a5.664 5.664 0 0 1 4.082 1.73l2.27-1.836a8.593 8.593 0 0 0-13.244.654l2.37 1.7a5.671 5.671 0 0 1 4.522-2.248m-.546-.892l-.129.149a.083.083 0 0 1-.129 0a.116.116 0 0 1 0-.149l.129-.148a.085.085 0 0 1 .063-.032a.086.086 0 0 1 .068.032a.116.116 0 0 1-.002.148m.55.329c0 .053-.033.1-.073.1c-.04 0-.071-.045-.07-.1v-.194c0-.054.031-.1.07-.1a.088.088 0 0 1 .071.1zm.671-.18a.086.086 0 0 1-.132 0l-.132-.149a.109.109 0 0 1-.028-.075a.1.1 0 0 1 .093-.1a.086.086 0 0 1 .067.032l.132.148a.116.116 0 0 1 0 .144m.248-.852c.058 0 .1.034.1.073c0 .039-.049.071-.107.071h-.216c-.058 0-.1-.033-.1-.073c0-.04.049-.071.107-.071zm-.505-.559l.163-.149a.118.118 0 0 1 .079-.031a.123.123 0 0 1 .087.031a.1.1 0 0 1 0 .149l-.163.149a.123.123 0 0 1-.163 0a.1.1 0 0 1-.003-.149m-.557-.344c0-.056.031-.1.07-.1c.04 0 .072.047.071.1v.207c0 .057-.033.1-.073.1c-.04 0-.071-.047-.07-.1zm.071.45a.525.525 0 1 1-.525.525a.526.526 0 0 1 .525-.525m-.706-.286a.1.1 0 0 1 .075.031l.149.149a.105.105 0 0 1-.149.149l-.148-.149a.1.1 0 0 1-.032-.075a.1.1 0 0 1 .105-.105m-.287.739h.219c.06 0 .108.034.107.073c-.001.039-.05.071-.11.071h-.22c-.059 0-.107-.033-.106-.073c.001-.04.05-.071.11-.071m1.061-2.224a9.5 9.5 0 1 0 9.5 9.5a9.5 9.5 0 0 0-9.5-9.5m0 18.451a8.951 8.951 0 1 1 8.951-8.951a8.952 8.952 0 0 1-8.951 8.951"/></svg>