<svg xmlns="http://www.w3.org/2000/svg" width="1em" height="1em" viewBox="0 0 24 24"><path fill="currentColor" d="M7.538 3.593H7.5zv-.002ZM18.24 2H5.76A3.759 3.759 0 0 0 2 5.76v12.48A3.759 3.759 0 0 0 5.76 22h12.48A3.759 3.759 0 0 0 22 18.24V5.76A3.759 3.759 0 0 0 18.24 2M9.551 19.771c-1.587 1.752-2.987 1.523-3.878.868c-1.324-.974-1.708-2.068-.2-4.084l2.835-3.7a11.344 11.344 0 0 1 1.243 6.916m8.561.929c-1.177.869-2.145 1.127-3.7-.664l-2.54-3.7l-1.764 2.727a20.191 20.191 0 0 0-.331-3.737a11.224 11.224 0 0 0-1.129-2.862l-3.5-5.489a2.865 2.865 0 0 1 .642-3.718a2.623 2.623 0 0 1 3.617.236l2.628 3.835l1.985-2.786a11.48 11.48 0 0 0 1.3 6.871l3.289 5.373c.667 1.343.745 2.997-.497 3.914m.413-13.5l-3.006 3.921a12.694 12.694 0 0 1-1.081-7.144c1.587-1.752 3-1.516 3.889-.861c1.324.977 1.708 2.068.198 4.084"/></svg>