<svg xmlns="http://www.w3.org/2000/svg" width="1em" height="1em" viewBox="0 0 24 24"><path fill="currentColor" d="M22 8.58c-1.1-2.38-3.93-5.25-6.28-6.36c-.96-.45-1.67-.53-2.1-.31c-.05.03-.1.07-.16.11c-.58.39-1.14.83-1.66 1.35c-.17.17-.32.34-.48.51c3.24 1.55 7.08 5.43 8.6 8.69c.1.21.18.42.26.62c.25-.22.49-.44.73-.68c.51-.52.95-1.07 1.33-1.64c.02-.04.05-.07.07-.11c.23-.43.15-1.18-.31-2.18m-.95 1.51c-.88-.29-2.19-1.14-3.95-2.91c-1.42-1.42-2.53-2.99-2.89-3.95c-.08-.21.11-.42.33-.38c.22.04.53.14.92.32c1.06.5 2.04 1.14 3.27 2.37c1.22 1.23 1.86 2.21 2.36 3.28c.19.4.28.71.32.94c.04.21-.16.39-.36.33M10.82 4.75c-1.25-.59-2.17-.69-2.74-.4c-.07.05-.14.1-.21.14c-.75.5-1.48 1.08-2.16 1.75c-4.23 4.22-5.9 9.4-1.73 13.57c4.12 4.11 9.36 2.5 13.59-1.72c.67-.67 1.24-1.39 1.73-2.12c.03-.05.06-.09.09-.14c.31-.57.21-1.53-.39-2.83c-1.43-3.09-5.12-6.81-8.18-8.25m4.28 13.33c-.05.16-.2.26-.36.26c-.04 0-.08 0-.11-.02c-1.03-.34-2.32-1.17-3.77-2.44c-1.72.95-4.54 2.06-4.47 2.54c.14.92-.41 1.43-1.45.39s-.53-1.59.39-1.45c.48.07 1.61-2.78 2.55-4.5c-1.13-1.35-2.03-2.7-2.39-3.67c-.07-.19.03-.4.22-.48s.41.03.49.22c.47 1.26 1.95 3.27 3.67 4.99c2.53 2.53 4.11 3.4 4.99 3.68c.19.07.3.28.24.48m2.67-3.13c-1.15-.38-2.85-1.48-5.14-3.78c-1.84-1.84-3.29-3.88-3.76-5.12a.38.38 0 0 1 .43-.5c.29.05.69.18 1.2.42c1.39.64 2.66 1.48 4.25 3.07c1.59 1.59 2.43 2.86 3.07 4.25c.25.52.37.93.42 1.22c.05.28-.21.52-.47.44"/></svg>