<svg xmlns="http://www.w3.org/2000/svg" width="1em" height="1em" viewBox="0 0 24 24"><path fill="currentColor" d="M14.442 10.192a2.32 2.32 0 0 0-2.168 2.555a2.211 2.211 0 0 0 2.309 2.326c1.357.017 2.256-.864 2.256-1.516h-1.5a.758.758 0 0 1-.7.423c-.529 0-.829-.3-.829-1.022h3.048c-.003-2.273-1.13-2.766-2.416-2.766m-.583 1.85c0-.476.194-.864.74-.864a.789.789 0 0 1 .811.864zm-4.29-1.85A2.32 2.32 0 0 0 7.4 12.747a2.211 2.211 0 0 0 2.31 2.326c1.357.017 2.256-.864 2.256-1.516h-1.5a.757.757 0 0 1-.7.423c-.529 0-.828-.3-.828-1.022h3.048c-.003-2.273-1.13-2.766-2.417-2.766m-.582 1.85c0-.476.194-.864.74-.864a.789.789 0 0 1 .81.864zm-3.516.687a.862.862 0 0 1-.969.9a.877.877 0 0 1-.916-.916v-.775H2v.793c0 .81.247 2.256 2.52 2.256s2.59-1.551 2.59-2.291v-4.3H5.471zm14.59-2.484a1.426 1.426 0 0 0-1.117.435c-.106.128-.239.263-.239-.065v-.247h-1.516v6.079h1.533v-1.674c0-.124.123-.105.212 0a1.611 1.611 0 0 0 1.146.37c1.216 0 1.92-1.057 1.92-2.5c0-1.87-1.18-2.398-1.939-2.398m-.456 3.823c-.741 0-.935-.476-.918-1.374c.017-.898.37-1.273.846-1.273c.776 0 .917.6.917 1.216s-.106 1.43-.845 1.43"/></svg>