<svg xmlns="http://www.w3.org/2000/svg" width="1em" height="1em" viewBox="0 0 24 24"><path fill="currentColor" d="M23.084 8.47h.373c.347 0 .55.174.55.444c0 .256-.19.463-.533.463h-.114v.357h-.276zm.643.455c0-.132-.1-.202-.243-.202h-.124v.408h.125c.143 0 .242-.074.242-.206m-1.646-.202h-.37v-.252h1.013v.252h-.368v1.01h-.275zm-.827 1.01l-.112-.308h-.472l-.108.309h-.288l.472-1.263h.319l.479 1.263Zm-.508-.534h.319l-.16-.44ZM19.04 8.47h.792v.249h-.516v.262h.472v.228h-.472v.276h.516v.248h-.792Zm-1.078.252h-.37V8.47h1.013v.252h-.369v1.01h-.274zm-1.993.38a.64.64 0 0 1 .652-.66c.37 0 .652.277.652.66c0 .382-.281.66-.652.66a.639.639 0 0 1-.652-.66m1.024 0c0-.26-.18-.407-.372-.407c-.193 0-.372.148-.372.406c0 .261.18.409.372.409c.191 0 .372-.15.372-.409m-1.768.125h-.516v.506h-.276V8.47h.276v.506h.516V8.47h.274v1.263h-.274ZM12.71 8.47h.263v.848h.001l.581-.848h.266v1.263h-.262v-.859h-.002l-.582.859h-.264zm-.8 1.263l-.475-.601v.6h-.276v-1.26h.276v.592l.472-.592h.324l-.505.623l.515.64zm-1.82-.643h.493v.208h-.493Zm-.852.137h-.516v.506h-.276V8.47h.276v.506h.516V8.47h.274v1.263h-.274ZM6.722 8.47h.263v.848h.001l.581-.848h.266v1.263H7.57v-.859h-.002l-.582.859h-.264zm.564-.114c-.178 0-.326-.09-.326-.305h.194c0 .104.04.16.132.16c.091 0 .132-.057.132-.16h.193c.001.216-.146.305-.325.305M5.953 9.734l-.111-.309H5.37l-.109.309h-.288l.472-1.263h.319l.479 1.263Zm-.508-.535h.319l-.16-.44Zm-2.033.303c.15 0 .211-.095.211-.322v-.71h.867v1.263h-.276v-1.01h-.322v.453c0 .402-.139.566-.48.566zm-.841-.274h-.517v.506h-.276V8.47h.276v.506h.517V8.47h.274v1.263H2.57ZM.007 9.102a.64.64 0 0 1 .652-.66a.64.64 0 0 1 .652.66c0 .383-.281.66-.652.66a.639.639 0 0 1-.652-.66m1.024 0c0-.259-.181-.406-.372-.406c-.193 0-.373.148-.373.406c0 .261.182.409.373.409s.372-.15.372-.409m6.857 1.66v5.264a.213.213 0 0 1-.213.213H6.303a.213.213 0 0 1-.213-.213v-5.264c0-.117.096-.212.213-.212h1.372c.118 0 .213.095.213.212M5.742 16l-1.599-2.736l1.516-2.466a.159.159 0 0 0-.13-.249l-1.666.003a.159.159 0 0 0-.132.07l-1.177 2.001h-.688v-1.86a.213.213 0 0 0-.212-.213H.282a.213.213 0 0 0-.213.212v5.264c0 .117.096.213.213.213h1.372a.213.213 0 0 0 .213-.213v-1.853h.836l1.17 1.99a.16.16 0 0 0 .136.078h1.598c.124 0 .2-.135.135-.241m17.99.239a.213.213 0 0 0 .212-.213v-5.264a.213.213 0 0 0-.212-.212h-1.323a.213.213 0 0 0-.212.212l.008 2.693l-2.401-2.903h-1.526a.213.213 0 0 0-.212.213v5.264c0 .117.095.212.212.212h1.32a.212.212 0 0 0 .212-.212v-2.696l2.377 2.906zm-6.216-5.455v5.22c0 .13-.105.235-.235.235H8.672a.235.235 0 0 1-.234-.235v-5.22c0-.13.105-.235.234-.235h8.61c.129 0 .234.106.234.235m-1.787 1.278a.075.075 0 0 0-.09-.073c-.93.186-4.223.214-5.327-.001a.074.074 0 0 0-.088.073v2.583c0 .046.04.08.086.074c.916-.136 4.396-.113 5.336.003a.074.074 0 0 0 .083-.074zm-7.841-1.3v5.264a.213.213 0 0 1-.213.213H6.303a.213.213 0 0 1-.213-.213v-5.264c0-.117.096-.212.213-.212h1.372c.118 0 .213.095.213.212M5.742 16l-1.599-2.736l1.516-2.466a.159.159 0 0 0-.13-.249l-1.666.003a.159.159 0 0 0-.132.07l-1.177 2.001h-.688v-1.86a.213.213 0 0 0-.212-.213H.282a.213.213 0 0 0-.213.212v5.264c0 .117.096.213.213.213h1.372a.213.213 0 0 0 .213-.213v-1.853h.836l1.17 1.99a.16.16 0 0 0 .136.078h1.598c.124 0 .2-.135.135-.241m17.99.239a.213.213 0 0 0 .212-.213v-5.264a.213.213 0 0 0-.212-.212h-1.323a.213.213 0 0 0-.212.212l.008 2.693l-2.401-2.903h-1.526a.213.213 0 0 0-.212.213v5.264c0 .117.095.212.212.212h1.32a.212.212 0 0 0 .212-.212v-2.696l2.377 2.906zm-6.216-5.455v5.22c0 .13-.105.235-.235.235H8.672a.235.235 0 0 1-.234-.235v-5.22c0-.13.105-.235.234-.235h8.61c.129 0 .234.106.234.235m-1.787 1.278a.075.075 0 0 0-.09-.073c-.93.186-4.223.214-5.327-.001a.074.074 0 0 0-.088.073v2.583c0 .046.04.08.086.074c.916-.136 4.396-.113 5.336.003a.074.074 0 0 0 .083-.074z"/></svg>