<svg xmlns="http://www.w3.org/2000/svg" width="1em" height="1em" viewBox="0 0 24 24"><path fill="currentColor" d="M8.066 10.566h-.009l-.1-.021l-.1-.014l-.136-.007a1.9 1.9 0 0 1-.02.226a2 2 0 0 1-.132.468a2.064 2.064 0 0 1-.125.27a.707.707 0 0 0-.113-.159c.029-.06.056-.122.08-.186a1.961 1.961 0 0 0 .118-.432a1.341 1.341 0 0 0 .009-.4a1.83 1.83 0 0 0-.238-.645a2.887 2.887 0 0 0-.149-.232c-.034-.048-.074-.1-.113-.153a3.03 3.03 0 0 0-.407-.433s-.074-.065-.205-.161a6.09 6.09 0 0 0-.861-.534a4.976 4.976 0 0 0-.4-.175a3.124 3.124 0 0 0-.332-.1a1.523 1.523 0 0 0-1.216.132a1.361 1.361 0 0 0-.293.253a1.756 1.756 0 0 0-.3.5a1.532 1.532 0 0 0-.053.148a3.32 3.32 0 0 0-.061.21a4.248 4.248 0 0 0-.088.538c-.008.1-.016.2-.016.3v.275a1.472 1.472 0 0 0 .011.176a.55.55 0 0 0 .008.091v.031a1.333 1.333 0 0 0 .018.236a1.915 1.915 0 0 0 .169.553a3.96 3.96 0 0 1 .333-.151a3.823 3.823 0 0 1 1.4-.275a3.683 3.683 0 0 1 .726.069a4.776 4.776 0 0 1 .5.132c.091.031.178.064.262.1v.192c-.1-.043-.2-.084-.315-.121H5.9v-.123l-.031-.009a1.383 1.383 0 0 0-.4-.053a1.119 1.119 0 0 0-.244.027a3.433 3.433 0 0 0-.486-.035a3.533 3.533 0 0 0-1.338.263c-.113.048-.231.1-.345.157L3 11.515a2.326 2.326 0 0 0-.577.38a.977.977 0 0 0-.161.206a1.156 1.156 0 0 0-.175.455a1.032 1.032 0 0 0 .113.6a1.377 1.377 0 0 0 .132.205c.039.053.087.1.131.158c.044.058.078.091.119.14a1.617 1.617 0 0 0 .261.262a2.318 2.318 0 0 0 .31.232l.022.017c.088.057.394.245.485.293a3.885 3.885 0 0 0 1.128.372c.2.03.411.061.63.083a4.313 4.313 0 0 0 .521.017a1.438 1.438 0 0 0 1.013-.358a.85.85 0 0 0 .127-.172c.056.012.113.026.169.04a.99.99 0 0 1-.173.247a1.38 1.38 0 0 1-.853.391c.029.036.059.072.092.107a2.048 2.048 0 0 0 .905.625a.934.934 0 0 0 .267.04a.681.681 0 0 0 .249-.044a.576.576 0 0 0 .162-.087a.817.817 0 0 0 .17-.162a1.159 1.159 0 0 0 .14-.214a5.091 5.091 0 0 0 .324-.879c.017-.066.035-.127.052-.175a.228.228 0 0 1 .018-.052c.026-.083.069-.206.118-.341c.105-.293.272-.744.384-1.032c.027-.066.053-.131.075-.179a2.189 2.189 0 0 0 .2-.879a1.085 1.085 0 0 0-.249-.694a1.881 1.881 0 0 0-1.063-.551m-.55 2.261v.311l-.19.18a2.932 2.932 0 0 0 .019-.478a1.457 1.457 0 0 0-.014-.187a2.592 2.592 0 0 0 .122-.281a1.949 1.949 0 0 1 .063.455m-.853-1.671a.719.719 0 0 1 .784.648v.065a2.729 2.729 0 0 1-.608 1.436a7.29 7.29 0 0 0-.513-.043c.433-.813.516-1.067.513-1.259c-.003-.192-.08-.407-.465-.407h-.056v-.4a1.433 1.433 0 0 1 .345-.04m.814 2.288l-.01.069c-.013.1-.029.2-.047.307l-.171-.042c.018-.1.033-.193.048-.283c0-.03.007-.06.013-.09h.016zm-1.4-2.655l-.433-.433l.433-.433l.432.433zm-.656.364h.065a1.394 1.394 0 0 1 .341.039v.4h-.06c-.385 0-.464.219-.464.407a3.117 3.117 0 0 0 .516 1.259a7.262 7.262 0 0 0-.512.043a2.725 2.725 0 0 1-.607-1.432a.72.72 0 0 1 .721-.716M3.546 12.52a.5.5 0 0 1 .153-.359a.777.777 0 0 1 .538-.192a2.517 2.517 0 0 0 .062.336a.264.264 0 0 0-.236.258c0 .179.1.332.643.848a4.24 4.24 0 0 0-.437.123c-.609-.52-.723-.761-.723-1.014M7.4 14.393a4.929 4.929 0 0 0-2.693 0l-.136-.451a5.559 5.559 0 0 1 1.478-.209a5.3 5.3 0 0 1 1.487.209zm.46-.919a8.454 8.454 0 0 0-.434-.121c.552-.521.647-.674.638-.848c0-.079-.03-.21-.236-.258a2.1 2.1 0 0 0 .066-.332a.773.773 0 0 1 .538.192a.482.482 0 0 1 .153.358c-.004.254-.119.494-.726 1.009zm3.258-2.672v4.215h.961v-4.215Zm3.104 1.181h-1.098l-1.045 1.377l1.102 1.657h1.137l-1.194-1.692zm2.151-.109a3.944 3.944 0 0 0-1.439.275V16.2h.966v-1.157a2.779 2.779 0 0 0 .546.048a1.465 1.465 0 0 0 1.615-1.3a1.445 1.445 0 0 0 0-.322c-.005-1.023-.552-1.595-1.688-1.595m-.049 2.5a1.514 1.514 0 0 1-.432-.066v-1.603a1.1 1.1 0 0 1 .473-.092c.418 0 .7.262.7.866c-.002.58-.22.9-.741.9zm4.036-2.5a3.939 3.939 0 0 0-1.478.275v2.868h.962v-2.3a1.276 1.276 0 0 1 .495-.1c.519 0 .619.319.619.9v1.495h.962v-1.64c-.003-.908-.305-1.498-1.56-1.498"/></svg>