<svg xmlns="http://www.w3.org/2000/svg" width="1em" height="1em" viewBox="0 0 576 576"><path fill="currentColor" d="M262 73c50.893-.853 95.406-.888 120 25l3 269l1 82c0 12.742 1.339 24.522-1 35c-36.717 24-163.42 29.77-195-3l1-130c0-22.7-3.454-51.287 1-72v-19c0-21.154-3.131-47.795 1-67v-24c0-24.1-2.663-54.3 2-75c10.635-6.724 18.665-11.984 33-16Zm21 5c-7.214 4.267-22.282.034-31 2c-19.55 4.409-28.758 4.341-41 16c.631 1.754.193.971 1 2c2.805 9.695 13.356 9.948 23 13c26.146 8.275 74.662 9.031 102 1c9.778-2.873 22.722-3.826 26-13c.752-1.073.6-.946 1-3c-1.262-1.359-1.365-1.768-2-4c-21.2-10.376-47.251-13.574-79-14m-7 2c17-.544 55.577-1.234 57 12h-2c.374-2.4.63-1.538 0-4c-21.632-10.278-58.959-6.969-82-1c-.961 1.766-1.257 1.68-2 4h1c14.215 13.472 65.794 5.126 83 1v1h-1c-13.864 12.7-67.311 4.19-83 0a15.705 15.705 0 0 1-1-5a58.951 58.951 0 0 1 14-6c4.962-1.265 12.161.466 16-2m-5 3c10.774-.192 38.577-2.173 45 2l-38-1c-5.077.063-11.034 2.484-15 0c3.09.094 6.33.141 8-1m-13 2c2.532.074 3.716.121 5 1c-2.532-.074-3.716-.12-5-1m58 0c2.532.074 3.716.121 5 1c-2.532-.074-3.716-.12-5-1m-62 1c2.328.2 2.826.193 4 1c-4.517.617-4.514 1.761-7 4v-3a10.943 10.943 0 0 0 3-2m67 0l6 1a14.124 14.124 0 0 1 1 4h-1c-1.477-3.687-3.3-2.852-6-5m-111 4c-3.33 3.248-8.209 4.126-10 9c-.752 1.073-.6.946-1 3c3.072 2.905 5.164 5.714 9 8c.019-7.033 2.719-17.989 2-20m154 0c.71 2.461 2.41 3.229 3 5c1.585 4.76-1.286 11.452 1 15c3.267-4.046 7.255-4.073 8-11c-3.891-3.637-6.741-6.487-12-9m-112 1h2v1c-1.754-.631-.971-.193-2-1m73 0h2v1c-1.754-.631-.971-.193-2-1m-71 1c2.076.372 1.924.242 3 1c-2.076-.372-1.924-.242-3-1m68 0c2.076.372 1.924.242 3 1c-2.076-.372-1.924-.242-3-1m-65 1c2.328.2 2.826.193 4 1c-2.328-.2-2.826-.193-4-1m60 0c2.532.074 3.716.121 5 1c-12.424 1-50.94 6.5-61 0c13.466.295 45.977 5.5 56-1m47 19v-8h-1c-7.44 9.608-22.968 9.7-37 13c-38.528 9.059-90.329 1.791-115-13v7c19.149 8.762 66 17.254 95 11h13c7.793-1.716 16.871-1.752 25-4c6.328-1.75 13.3-4.956 20-6M196 451l8 1l4-336c-3.9-.983-5.422-2.812-9-4v63c-2.613 4.241-1 15.819-1 22v56zm176 1l8-1l-4-339h-2c-1.471 1.769-5.876 2.376-7 4v39c2.276 3.722 1 13.459 1 19v50c2.19 12.189 1 36.869 1 54v19c3.774 17.377.989 41.716 1 61zm-165 1l37 6c8.5 1.879 17.591.411 25 2h21c29.315 0 54.189-4.972 79-8l-5-335h-2c-8.5 6.673-22.542 5.192-35 8c-38.638 8.709-84.89-.671-116-8v48c-5.381 8.746 1.926 49.335-1 63c-4.678 21.845-.81 59.3-1 84c-.352 45.764-2.036 92.514-2 140m-11 4c-.342 8.942-.766 17.442 1 25c10.78 3.333 23.09 7.886 35 11c26.983 7.055 81.38 6.568 108 0c11.712-2.89 36.382-4.525 40-14c2.5-3.839 1.132-15.225 1-21a15.7 15.7 0 0 0-5-1c-8.409 5.9-23.57 3.45-35 6c-21.11 4.71-60.4 6.879-83 2l-29-2c-10.2-2.373-22.034-5.149-33-6" class="cls-1"/></svg>