<svg xmlns="http://www.w3.org/2000/svg" width="1em" height="1em" viewBox="0 0 24 24"><path fill="currentColor" d="m10.213 20.492l.005-1.756l2.457-.005l2.457-.005V12.53c0-3.407-.003-6.195-.007-6.195s-.896.496-1.984 1.101a84.067 84.067 0 0 1-1.99 1.09a72.16 72.16 0 0 1-.013-1.876V4.786l2.573-1.517l2.572-1.517h2.812v16.974l2.447.005l2.448.005l.005 1.756L24 22.25H10.207Zm-6.91-1.505a3.873 3.873 0 0 1-3.272-3.3a4.734 4.734 0 0 1 0-1.068a3.889 3.889 0 0 1 3.224-3.293c.297-.05.956-.05 1.228 0c.429.078.706.166 1.071.343a3.869 3.869 0 0 1 1.793 5.185a3.871 3.871 0 0 1-2.554 2.063a4.16 4.16 0 0 1-1.49.07"/></svg>