<svg xmlns="http://www.w3.org/2000/svg" width="1em" height="1em" viewBox="0 0 24000 24000"><path fill="currentColor" d="m14011 8589l25-2332l25-2318c11-1100 11-1125-19-1124s-226 67-466 147l-1488 491c-578 190-1282 420-1565 514l-1090 358c-317 100-808 266-1092 358s-752 248-1044 343l-2180 717l-1637 537c-129 40-124 25-87 259l187 1254c87 578 255 1714 375 2525l413 2780c106 720 226 1515 264 1766s71 461 77 466s24 0 38-5l4615-2787c2524-1525 4600-2781 4613-2793a6070 6070 0 0 0 36-1163ZM6885 6908l2040-737l157 2229l-1957 885Zm490 4859l-222-2200l1947-900l146 2078zm1775-5678l1728-625l87 2088l-1665 754Zm300 4538l-134-2064l1659-763l82 1954Zm5871 3079c-107 87-113 94-60 75c53-13 62-4 183 54a1006 1006 0 0 0 144 60a458 458 0 0 0-100-60c-132-64-150-90-106-146c45-56 31-52-60 23zm1079-606a29 29 0 0 0-25-16c-21 0-17 11 11 22c14 2 14 0 14-6m-1323 809c70-55 127-100 127-105s-6-6-46 27s-53 30-114 25c-61-6-72 0-50 20s30 45-11 90c-20 22 22-4 94-57m-921 718l48-42h-75c-76 0-80 0-57 26s19 35 12 42c-17 30 15 17 66-26zm2044-1602c-82 60-109 92-40 47a133 133 0 0 1 100-17c44 8 52 0 39-8c-30-30-28-59 30-108l42-45h-54c-50 0-54 0-48 38s-9 46-76 93zm-514 898c-22 0-17 10 11 20c12 0 19 0 14-5a31 31 0 0 0-20-15zm22-516c-156 120-173 129-228 120c-55-7-56 0-40 15s14 33 0 60c-14 29 20 10 125-70c180-138 192-138 441-10c171 89 187 100 187 139s0 50 47 19a78 78 0 0 1 87-8c28 9 54 14 57 9s0-8-9-8c-37 0-37-64 0-106l36-40l-51 42a185 185 0 0 1-100 42a1116 1116 0 0 1-247-100c-156-78-200-109-200-133s50-76 187-185c42-34 41-42-6-16a145 145 0 0 1-80 10c-48-8-50-7-35 18a72 72 0 0 1 10 52a1385 1385 0 0 1-180 150zm182 533a106 106 0 0 1-100 25c-50-7-56 0-35 15a38 38 0 0 1 6 53c-16 31-16 31 23 6a130 130 0 0 1 78-20c30 6 34 0 28-22a84 84 0 0 1 20-59c39-38 30-38-20 2m-2702-120a139 139 0 0 1-74 25c-33 0-44 8-44 29a171 171 0 0 1-58 80l-59 50l55-38a2045 2045 0 0 0 218-162c0-4-5-4-38 17zm-1388 2628a1410 1410 0 0 0 89-69h-68c-53 0-60 0-53 28c10 28-4 43-27 68s-5 15 54-27zm2200-1669c0-36-8-36-53 0l-36 29h45c30-1 44-7 44-30Zm-371-564c-20 25-18 26 7 6a100 100 0 0 0 26-26c0-13-12-5-33 20m-89 62a186 186 0 0 1-182 30c-30-13-30-13 0 9a52 52 0 0 1 20 58c-10 40-5 40 50 0a117 117 0 0 1 109-25c59 8 62 6 47-22a61 61 0 0 1 0-61c16-40 16-40-44 10Zm-922 3006s-20-20-47-33c-27-14-46-20-46-17s20 19 46 33c25 14 47 20 47 17m482-405s-14-16-31-25c-17-10-31-13-31-10s14 16 30 25c18 9 32 13 32 10m-1146 223l-30 36l37-30a222 222 0 0 0 39-31c0-13-18-4-46 25m2905-2300a222 222 0 0 0 34-31c0-13-13 0-41 29l-30 36zm-2350 2420a248 248 0 0 0-62-40c-35-15-63-26-63-21a277 277 0 0 0 63 39c34 17 62 28 62 23zm452-416s-14-16-31-25c-17-10-31-13-31-10s14 16 30 25c18 10 32 10 32 10m-3997 92l-46 40l50-33a200 200 0 0 0 50-41c0-11-5-8-54 34m1909-1746a1588 1588 0 0 0 170 78a1200 1200 0 0 0-170-94a1242 1242 0 0 0-170-78a1347 1347 0 0 0 170 94m2327-1814c-7 0 0 9 24 22a200 200 0 0 0 54 22c10 0 0-10-23-22a149 149 0 0 0-55-22m-3510 2463a692 692 0 0 0 124 70a700 700 0 0 0 124 55a705 705 0 0 0-124-70a573 573 0 0 0-125-55Zm-922 1234c-20 25-20 27 6 6a108 108 0 0 0 27-26c0-14-10-5-30 20Zm87-64l-46 41l45-35a181 181 0 0 0 50-40c0-11-10-8-55 34zm-196 142c-20 25-20 26 6 6a108 108 0 0 0 27-26c0-13-13-5-33 20m6472-4001l64-42l67-52h-54a330 330 0 0 1-90-10c-30-13-30-13 0 8a61 61 0 0 1 23 64zm215-170l-54 50h71c66 7 71 0 50-18a57 57 0 0 1-12-52c12-30 8-27-55 24zm-1614 50c-8 0 0 10 8 18a100 100 0 0 0 39 16c9 0 5-8-8-16a107 107 0 0 0-40-15zm147 65c-22 0-18 10 10 22c28 10 19 0 15-6a30 30 0 0 0-25-16m-279 444c-52 0-58 0-58 40v40l55-38c29-23 56-40 57-42zm92 1487a449 449 0 0 0 48-40a177 177 0 0 0-53-10c-44 0-51 0-42 20a60 60 0 0 1 5 49c-4 9 14 0 42-20zm-1775 2156c0-13-12 0-41 29l-29 36l36-30a209 209 0 0 0 34-35m-1527-1243c0-35-14-30-117 46a352 352 0 0 1-129 70a346 346 0 0 1-112-40a271 271 0 0 0-78-30a248 248 0 0 0 62 40c73 38 91 67 61 105c-13 14 36-14 100-63a491 491 0 0 1 169-88a900 900 0 0 1 200 76a993 993 0 0 0 156 70a1086 1086 0 0 0-156-80c-94-52-156-92-156-106m151-276c-53-24-84-34-67-24l84 55c30 20 60 30 66 23c6-8-31-31-83-54m940 1067l-40 37a115 115 0 0 1 51-10a2991 2991 0 0 1 543 270a90 90 0 0 1-10 60c-19 34-18 36 12 8s90-33 221 35s120 63-12-23c-56-37-72-56-72-90s0-36-14-27c-36 36-117 10-350-110c-235-122-273-148-259-184s-13-20-70 33zm-1022-85a806 806 0 0 0 87-70a166 166 0 0 0-48 19c-47 23-53 22-122-10l-72-34l53 45c50 40 52 47 35 80c-17 34-2 25 67-30m973-728a1823 1823 0 0 1 229-158a245 245 0 0 1 64 17c36 12 41 12 25 0c-39-40-22-84 47-132l190-137c111-80 131-90 182-83c51 6 58 7 42-23s0-60 208-217c154-117 173-126 230-120c40 0 50 0 41-10c-28-27-17-63 34-105c83-70 43-48-80 45c-145 106-179 120-240 100c-44-14-47-14-20 5c46 36 26 69-119 176c-322 240-300 228-417 167c-44-22-78-36-78-30a248 248 0 0 0 62 38c100 50 87 76-128 235c-215 160-240 173-300 157a4773 4773 0 0 1-510-268c-23-20-32-22-55 0c-23 25-24 22-8 22a4021 4021 0 0 1 522 266c44 42 28 60-189 228s-226 168-353 106c-83-40-69-22 18 26s64 78-87 200c-190 150-212 168-145 130a138 138 0 0 1 161-8c46 22 48 22 15 0c-70-52-48-87 155-242c150-114 200-145 240-145c38 0 50-7 48-35c0-28 44-78 210-206Zm200-916a148 148 0 0 0 36-30s-16-6-36-6s-36 10-36 30s4 27 36 7zm-1686 1228l54-34a200 200 0 0 0 50-41c0-11-6-8-54 34zm1996-1452a927 927 0 0 0-118 84h35a600 600 0 0 1 211 80a1836 1836 0 0 0 185 85a1148 1148 0 0 0-155-83c-155-78-169-90-160-125a300 300 0 0 0 2-42zm-514 358l-49 39c-40 30-40 38-20 39a1386 1386 0 0 1 210 94a1378 1378 0 0 0 186 85l-173-100c-156-80-170-92-165-124a330 330 0 0 0 5-33zm-328 159l-49-17l35 30c21 20 40 29 50 20c10-10-3-22-36-33m214 1968c100 58 200 114 212 125c40 39 5 100-115 194a1444 1444 0 0 0-117 100a868 868 0 0 0 134-101c126-105 157-120 229-111c23 0 26 0 19-32s0-50 79-120l92-85l-100 80a479 479 0 0 1-130 80a1646 1646 0 0 1-249-117l-230-126h-13a2045 2045 0 0 0 190 114zm851-2640l37-27l-54-8c-49 0-53 0-47 30c13 28 22 43 71 6zm4645 307c-33 9-316 239-849 686a41600 41600 0 0 0-817 700c-50 66-23 144 71 206s941 460 1014 477a447 447 0 0 0 256-23a53032 53032 0 0 0 1588-1408c62-67 61-110-8-176a2472 2472 0 0 0-490-250c-240-110-463-208-494-217a520 520 0 0 0-266 5Zm4854-1686a642 642 0 0 0-45-148a6050 6050 0 0 0-416-165l-1605-601a46713 46713 0 0 0-600-231c-223-83-554-200-735-272l-663-246l-737-274l-865-322l-1125-420a8337 8337 0 0 0-685-238l-421 259c-422 260-457 280-446 246a5050 5050 0 0 1 434-280l428-262l9-388c7-212 16-2035 20-4050l13-3664l-34-35a300 300 0 0 0-194-78a1458 1458 0 0 0-254 64c-192 62-1162 370-2992 948c-510 162-1350 430-1870 592c-1493 470-3801 1197-5280 1667c-500 160-910 293-916 300c-5 10 37 327 95 715l163 1136l123 851c80 540 170 1163 250 1713l124 857c33 232 90 617 125 850l327 2255c145 1006 268 1846 273 1866s60 60 226 145a1800 1800 0 0 0 240 110a1111 1111 0 0 0 190-110l730-458c450-279 567-346 590-335c20 10 26 22 23 32s-320 210-700 447l-700 430v712l787 476c6253 3783 7736 4678 7745 4675c10-3 1880-1865 4160-4140c2707-2700 4156-4157 4177-4200a766 766 0 0 0 30-440zm-3117 2013a300 300 0 0 1 23 109c0 54-9 73-67 129a96820 96820 0 0 1-1013 916a12757 12757 0 0 1-1027 886a636 636 0 0 1-395 29c-105-26-1228-565-1311-628a318 318 0 0 1-113-193c0-100 31-126 1075-1000c567-476 1042-870 1058-878a441 441 0 0 1 79-35a609 609 0 0 1 210-16l156 6l400 184c819 375 878 406 925 497zm-3617-4607l169 66a260 260 0 0 1 88 40c0 5-439 300-975 650l-975 646l-50-54a361 361 0 0 0-211-117c-60-11-60-11 909-637l967-624zm-8100 5207c-22-5-41-14-41-20s178-123 394-263l393-254l76 10a500 500 0 0 1 134 38a591 591 0 0 1 172 163c0 5-191 134-424 290a2211 2211 0 0 1-435 263a534 534 0 0 0-267-223zm218 238a1255 1255 0 0 1-175-100c-145-86-163-100-121-100a389 389 0 0 1 127 40c72 37 186 145 171 160zm906-650a440 440 0 0 0-227-157l-67-20l838-544c460-300 842-540 846-540s94 40 200 90a700 700 0 0 1 179 100c-20 20-1690 1122-1710 1128s-33-21-57-58Zm1626-1215c-118-57-150-77-115-76a341 341 0 0 1 100 20c57 22 200 118 187 129a793 793 0 0 1-172-72Zm-58-124c-11 0-20-5-20-13s516-350 606-400a300 300 0 0 1 248-5c65 20 159 100 159 137a1557 1557 0 0 1-345 256l-345 227l-57-60a574 574 0 0 0-246-142m818-480l-100-28l333-214c326-210 334-213 419-213a378 378 0 0 1 150 29c68 30 157 123 137 140c-20 18-170 116-362 242c-314 206-350 226-364 200a400 400 0 0 0-213-158Zm938-400c-57-64-85-78-229-120c-30-7 10-40 243-192l284-182l108 6a346 346 0 0 1 177 50c66 42 112 92 100 100c-80 57-609 400-616 400a511 511 0 0 1-73-60zm447-541c-29 0-42-6-32-14c10-10 123-87 255-172c225-145 248-156 320-158a400 400 0 0 1 148 32a481 481 0 0 1 112 72l43 42l-275 182l-275 182l-43-51a416 416 0 0 0-247-114zm842-277a454 454 0 0 0-232-112c-25 0-44-5-43-13a2974 2974 0 0 1 268-185c290-187 317-200 455-160c57 16 164 100 164 135a2630 2630 0 0 1-282 200l-280 185zm-6516 2770a3053 3053 0 0 1-584 394l-700 435l-112 73l-23-100c-109-483-460-2738-930-5994c-345-2390-600-4220-600-4227c0-6 200-70 440-144l931-300l834-264l830-264l990-314c480-153 818-261 1511-480l985-314l981-311l2509-800l748-238c147-45 270-84 289-84a13039 13039 0 0 1 20 2066c0 1139-12 2940-17 4000l-10 1936l-436 265c-340 208-443 264-471 256c-50-8-7180 4363-7180 4407zm-500 1380a6421 6421 0 0 1-700-400s300-200 675-425l673-414l22 53c14 36 29 52 43 47c14-10 1624-1004 3582-2204l3560-2193l-11-47c0-27-10-60-12-73c0-14 114-100 400-278c222-137 412-250 420-250s141 48 300 100l280 106l-39 28c-20 16-850 553-1845 1200c-2000 1289-2086 1349-4007 2590c-738 479-1348 870-1350 870c-4 0-245 156-535 345c-700 467-1425 934-1452 945zm83 30c0-16 977-660 1000-661a2133 2133 0 0 1 200 110c100 60 186 113 186 116s-970 650-1000 656a1700 1700 0 0 1-382-218Zm637 410c-173-100-213-130-200-147c13-16 434-290 940-623a272860 272860 0 0 0 1816-1200c490-328 1166-770 1500-990l1623-1073c561-372 1500-1000 2088-1384l1145-760a804 804 0 0 1 84-53c3 0 75 24 159 55l153 57s-9069 6245-9079 6245c-9 0-100-57-225-127zm3530 975a3429 3429 0 0 1-577-310c-14-16-14-31 0-60c14-27 808-638 900-685a262 262 0 0 1 83-23a3460 3460 0 0 1 584 300a81 81 0 0 1-11 56a10600 10600 0 0 1-900 700a255 255 0 0 1-80 26zm712 408a63 63 0 0 1 0-46a5268 5268 0 0 1 549-438a162 162 0 0 1 81 0c43 17 43 17 18-22c-25-40-23-40 10-84c20-27-89 53-240 176c-342 277-451 355-500 355a2888 2888 0 0 1-530-280c-13-33 17-85 85-140c207-170 919-708 979-740a174 174 0 0 1 109-26c31 8 35 6 20-10a72 72 0 0 1-20-40a875 875 0 0 1 163-154c91-75 164-135 164-137s-31 0-70 0c-73 0-81 7-53 35s0 53-172 190c-193 154-230 174-282 160a5228 5228 0 0 1-548-300a61 61 0 0 1-8-93a559 559 0 0 0-120 83c-100 75-151 100-187 100a2613 2613 0 0 1-545-285c-25-40 0-67 153-184a1750 1750 0 0 0 149-120s-11 3-23 16a107 107 0 0 1-70 13c-41-8-46 0-38 25s-6 42-43 70c-363 270-409 300-451 290s-40 0-34 23a74 74 0 0 1-12 57c-13 14 28-10 88-53c139-100 167-114 215-114a2987 2987 0 0 1 535 277a42 42 0 0 1 0 53a4493 4493 0 0 1-368 293c-286 215-360 265-400 265a1072 1072 0 0 1-300-143c-270-154-284-169-215-243c33-37 33-37-31 0a153 153 0 0 1-100 34c-20 0-142-70-275-144c-193-110-240-144-240-170s63-80 269-225c232-164 275-190 319-184s47 0 34-13c-13-14-12-27-6-34a3280 3280 0 0 1 477-330a185 185 0 0 1 65 18c34 20 34 20 0-16s-31-34 0-62a4943 4943 0 0 1 416-287a125 125 0 0 1 65 0c36 14 39 13 25-14a42 42 0 0 1 0-53a2490 2490 0 0 1 430-290a731 731 0 0 1 173 70a725 725 0 0 0 140 60a827 827 0 0 0-124-70c-92-47-125-70-125-93s56-78 315-254c139-94 156-100 200-90c44 12 47 12 32-7a49 49 0 0 1-11-45a1713 1713 0 0 1 213-165c164-117 214-143 248-138c40 5 48 0 40-28c-4-28 30-58 210-184s220-150 275-147c52 4 53 0 42-14c-27-32 0-63 188-194c158-109 186-122 230-116c46 6 49 0 37-12a49 49 0 0 1-11-42a1624 1624 0 0 1 198-155c162-110 205-132 254-132s58-5 47-17c-26-33 0-60 200-200s228-150 323-112c25 10 23 6-7-20s-34-40-28-55a1506 1506 0 0 1 209-167c184-130 200-142 259-135s56 0 42-13c-28-34 0-62 187-200c137-102 188-127 220-122s38 0 34-20c-6-20 62-88 306-248c114-75 155-93 187-87s40 0 35-20c-6-22 14-46 60-83c69-56 869-617 923-648c54-30 80-24 300 62c183 70 209 84 200 112a2289 2289 0 0 1-394 324c-500 377-590 437-635 437c-28 0-36 7-32 28c4 20-48 67-208 185c-200 150-218 160-276 150c-42 0-55 0-44 10c30 30-6 70-177 190c-171 123-220 147-268 120c-48-22-67-17-30 4c56 33 28 70-137 192c-90 66-163 122-163 124a176 176 0 0 0 46 0a184 184 0 0 1 80 12c32 16 35 16 19 0c-46-50-23-84 136-200c229-167 212-165 456-50c244 117 265 134 256 180c-6 32 0 30 73-20s89-53 140-46c50 7 55 0 42-10c-30-30-18-64 33-110l50-44l-37 60a1840 1840 0 0 0-110 78c-100 73-113 71-361-49c-248-117-263-136-191-200a1975 1975 0 0 1 162-127c108-73 140-87 180-80c39 5 46 4 46-37c0-38 22-58 140-144c100-77 153-100 189-100s48 0 42-30s214-200 274-200a1184 1184 0 0 1 220 72c300 120 300 123 218 200c-107 100-206 164-246 157s-40 0-40 35v40l87-60c76-54 95-60 154-54s66 7 42-20a56 56 0 0 1-15-48a924 924 0 0 1 308-217a3775 3775 0 0 1 515 215a55 55 0 0 1 20 46c-12 30 10 23 68-25l53-44l-50 8a1059 1059 0 0 1-327-110a4545 4545 0 0 0-291-120a438 438 0 0 0-87 47l-74 48l-230-92a1262 1262 0 0 1-247-118c-20-34 0-55 366-323c300-219 306-223 382-220a2000 2000 0 0 1 506 165c542 210 570 225 566 280c0 40 0 43 30 20c52-35 88-30 308 58c192 76 200 83 200 120s-100 115-433 388c-561 453-600 486-648 486a634 634 0 0 1-162-62c-164-83-182-80-23 0c110 58 124 70 124 108c0 37 16 56 33 28s106-10 306 80c223 100 262 127 262 170a537 537 0 0 1-135 143c-180 150-206 167-260 167c-33 0-41 6-35 26c13 40 6 46-190 200c-130 106-190 144-221 144c-32 0-42 6-36 30c6 23-37 67-190 201a1152 1152 0 0 1-228 164a3094 3094 0 0 1-540-274a74 74 0 0 1 22-55l29-33l-42 28a147 147 0 0 1-90 20c-33 0-42 0-31 10a72 72 0 0 1 15 40a1343 1343 0 0 1-364 300a1821 1821 0 0 1-268-105c-242-113-267-134-213-194c16-17-15 1-68 43a1076 1076 0 0 0-100 80s19-5 40-17c50-25 87-14 373 126c162 80 187 100 184 126s38 0 207-135c199-160 233-180 306-172a3519 3519 0 0 1 482 230c70 62 87 44-1230 1152l-1300 1090a212 212 0 0 1-215 11l-50-26l37 42c26 30 33 47 22 70a1528 1528 0 0 1-192 180c-173 146-181 152-245 146c-42 0-62 0-53 10c39 38 13 82-100 180c-310 260-300 253-375 228c-35-10-36-10-20 20a84 84 0 0 1 10 55a1823 1823 0 0 1-207 187c-182 152-200 164-256 160c-56-6-54 0-40 20a59 59 0 0 1 6 50a3664 3664 0 0 1-567 462a3754 3754 0 0 1-623-354zm3027 2545l-200 192l-1092-636c-600-350-1092-640-1092-645a243 243 0 0 1 82-28c145-37 1315 1756 6844-3304c3465-3383 1840-4000 1839-4000l664 247c491 182 908 338 928 342c20 3 35 16 35 23s-7093 6920-8012 7803zm-2262-3230c0-14-12 0-33 20s-18 25 7 5a100 100 0 0 0 26-23zm-1433-1408c-100 70-140 110-75 68a146 146 0 0 1 90-20c41 6 46 0 38-22a68 68 0 0 1 18-60c40-43 25-36-70 34zm3315-77c863-693 1616-1300 1639-1321c50-51 0-16-116 79a679 679 0 0 1-167 110a69 69 0 0 0-48 38a1308 1308 0 0 1-200 180c-153 122-200 153-240 153s-50 0-45 30a68 68 0 0 1-7 49a3254 3254 0 0 1-411 312c-28 8-100-20-279-110a2586 2586 0 0 1-252-136a64 64 0 0 1 0-48c7-22 0-18-55 20c-62 40-71 54-71 54a400 400 0 0 0 60 0c46 0 99 19 289 115a915 915 0 0 1 240 148c0 17-51 72-171 167c-187 149-228 165-309 118c-59-34-76-28-18 8a100 100 0 0 1 49 60c0 20-70 87-200 189c-232 187-255 200-313 173c-35-17-38-15-20 5a67 67 0 0 1 12 56c0 19 0 27 7 22a207 207 0 0 1 162 19l45 30l-35-40a100 100 0 0 1-25-74a4906 4906 0 0 1 472-402zm108-857l50-42h-58c-53 0-58 0-58 42s4 53 66 0m262-190c12-40 10-40-60 20l-57 50h68c52 0 66 0 53-18a61 61 0 0 1-4-52m-694-305c0-13-12-5-32 20s-20 27 6 6a84 84 0 0 0 26-26m-236 1006s-122 90-130 100a200 200 0 0 0 47 0a190 190 0 0 1 89 13c37 20 37 20 8-13a79 79 0 0 1-20-65c6-20 6-35 6-35m-113-1495l-40 36a1653 1653 0 0 1-78 60l-39 28l40-14a171 171 0 0 1 77 0a3393 3393 0 0 1 487 252a77 77 0 0 1-7 48c-10 20 0 15 51-18c70-52 106-60 160-30c33 18 33 18 0-14a67 67 0 0 1-20-58c8-22 0-20-44 6c-84 53-137 42-375-80c-215-110-218-113-217-164a175 175 0 0 0 5-50zm-420 1902a1351 1351 0 0 0-166 134s14 0 32-20a151 151 0 0 1 169 0a129 129 0 0 0 49 20a130 130 0 0 0-50-36c-33-18-40-32-34-62zm663-583a61 61 0 0 1 8 52c-6 32 0 31 45-7a400 400 0 0 0 53-43a186 186 0 0 0-61-10c-48-6-57 0-45 12zm183 426c-22 0-18 10 10 22c13 0 19 0 15-7a31 31 0 0 0-25-15m-63-30c-22 0-17 10 10 20c15 5 20 0 16-6a28 28 0 0 0-25-15Zm-62-33c-22 0-17 10 10 22c13 0 20 0 15-6a32 32 0 0 0-25-16m-62-31c-22 0-18 10 10 20c13 0 19 0 15-5a30 30 0 0 0-25-16zm1012-1844c-20 25-18 27 7 6a100 100 0 0 0 26-26c6-16-10-5-30 20zm790-586l-70 55c-65 50-65 53-22 43a446 446 0 0 1 206 63a1758 1758 0 0 0 170 70a1328 1328 0 0 0-137-73c-134-67-148-78-148-117a222 222 0 0 0 0-41zm388 279c10 0 0-8-8-15a91 91 0 0 0-38-16c-8 0 0 8 7 16a122 122 0 0 0 39 15m-67 246l-67 58h128c-10 0-22-70 0-93c40-40 3-20-61 35m-2234 175c28-20 48-38 45-40a300 300 0 0 0-60-10c-44-8-48-6-34 12a63 63 0 0 1 8 50c-6 20 0 17 40-12zm-282 2214c10 10 23 15 28 10c5-3 0-13-20-18c-18-5-22-8-8 8m605-2414v-51l-63 47l-64 50a352 352 0 0 0 60 0c65 3 67 3 67-47zm462-375l-78 54a816 816 0 0 0-77 59a120 120 0 0 0 47-12c44-17 66-10 282 100a2837 2837 0 0 1 251 135c11 14 10 32-9 60c-18 28-11 28 63-25a188 188 0 0 1 208-40c30 12 30 12 6-10c-56-45-34-83 110-192c183-142 185-145 138-135a148 148 0 0 1-75-10c-31-17-34-17-17 0c40 43 16 76-148 200c-137 106-178 130-223 129a874 874 0 0 1-272-115c-200-110-218-120-215-160zm-942 2850c10 12 23 17 28 12s0-14-20-20c-18-4-22-6-8 9zm-58-26c11 11 24 16 28 11s0-14-18-19s-29-13-10 8m1868-2422c-22 0-17 11 11 22c12 5 19 0 14-6a32 32 0 0 0-25-16m-1900 1922h-50c-44 0-50 0-50 40v41l50-39c27-18 50-36 50-42m2196-1693a1230 1230 0 0 0 72-59l48-37h-84c-64 0-78 0-65 20a79 79 0 0 1 7 60c-3 41 0 42 22 23"/></svg>