<svg xmlns="http://www.w3.org/2000/svg" width="1em" height="1em" viewBox="0 0 24 24"><path fill="currentColor" d="M8.964 12.746c.806.118 1.608.234 2.433.353v-2.327H8.964Zm.008-2.327H11.4V8.078c-.82.121-1.629.237-2.429.353Zm2.774.95v1.781c1.09.157 2.169.312 3.263.471v-2.847h-3.263Zm-.006-3.34v2.388l3.269-.065l.006-2.815c-.033 0-1.3.192-2.253.336zm8.409 7.788V5.739a.292.292 0 0 0-.291-.291H4.144a.294.294 0 0 0-.293.293v10.078L2 18.04a1.111 1.111 0 0 0 1.11 1.11h17.78A1.111 1.111 0 0 0 22 18.04ZM4.49 6.15h15v8.858h-15zm0 9.709h15.091l.125.167H4.349Zm7.426 2.453H9.475l.071-.172h2.37zm-2.314-.3l.276-.662h4.355l.186.662zm2.486.3v-.172h2.369l.048.172zM3.7 16.9l.574-.768h12.192l.238.724zm13.362-.062l-.318-.706h3.036l.538.706z"/></svg>