<svg xmlns="http://www.w3.org/2000/svg" width="1.04em" height="1em" viewBox="0 0 33 32"><path fill="currentColor" d="m1.28 21.5l12.89.98v-.16l-12.48-.93ZM1.3 3.43L1.28 21.5l.41-.11V3.53Zm0 0l12.88-1.27v.16L1.69 3.53Zm-.31 18.3L.98 3.25L.5 3.3l.01 18.39Zm13.18 2.17L.5 22.71l.01-1.02l13.66 1.12Zm.01-21.95l-.01 21.95l.72.06l-.02-22.07Zm.68-1.03L.505 2.442L.5 3.3l13.68-1.35l.69-.06Zm.77 23.77l.37-.23l.01-24.07l-.38-.26ZM.32 22.87V2.19l-.28.03L0 22.84Zm14.74 1.9L0 23.31v-.47l15.06 1.34zM15.44.56l.01 24.23l-.39-.02L15.02.6ZM.04 1.74L15.44 0v.56L.04 2.22Z"/></svg>