<svg xmlns="http://www.w3.org/2000/svg" width="1.04em" height="1em" viewBox="0 0 33 32"><path fill="currentColor" d="m6.94 20.27l.44.03l-.01-15.31l-.43 1.22Zm-.48 2.34l.33.03v.19l-.33-.03Zm.62.05l-.29-.02v.055zm14.44 1.341L6.79 22.695l.29-.035l10.349.926l.091-.396l4 .36zM6.797 2.188l.086-.004l-.383.036v.82l.248-.72Zm7.943.442l-.32-.04M6.79 22.83l-.33-.03zm10.38.57l4.314-20.55l-.003-1.718L16.83 23.01ZM1.073 20.09l.287.02l.054.004l.387.027l14.359.999l-.36 1.6L.57 21.47ZM7.33 3.43L1.36 20.11l.441.031L7.61 3.71Zm0 0l13.095-1.256l-.08.356L7.61 3.71ZM.57 21.47l.503-1.38L7.2 3.27l-.58.06l-6.6 18.104Zm16.6 1.93L.81 21.98l-.49-.33l16.51 1.36Zm3.31-21.45l-.055.224l-.08.356L15.8 22.74l.86.06l4.51-20.91Zm.88-1.04L6.93 2.45l-.31.88l14.02-1.38l.53-.05Zm.73 23.78l.37-.23l.01-24.07l-.38-.26ZM6.78 20.26V6.61l-.32.82v12.81Zm14.74 4.51L6.46 23.31v-.51l15.06 1.38zM21.9.56l.01 24.23l-.39-.02l-.036-21.92l-.003-1.718L21.48.6ZM6.5 1.74L21.9 0v.56L6.883 2.184L6.5 2.22Z"/></svg>