<svg xmlns="http://www.w3.org/2000/svg" width="1.04em" height="1em" viewBox="0 0 33 32"><path fill="currentColor" d="M9 3H5.2c-2.1.1-3.7 1.8-3.7 3.9v9.4c0 .5.3.8.8.8h3c.4 0 .8-.3.8-.8V6.8C6 3.8 8.2 3 9 3M3.6 15.6c-.5 0-.8-.3-.8-.8s.4-.7.8-.7s.8.3.8.8c.1.4-.3.7-.8.7m0-3.5c-.5 0-.8-.3-.8-.8s.3-.8.8-.8s.8.4.8.8c.1.5-.3.8-.8.8m0-3.7c-.5 0-.8-.3-.8-.8s.3-.8.8-.8s.8.4.8.8c.1.4-.3.8-.8.8m15.2-5.5H15c.8 0 3 .8 3 3.8v9.5c0 .5.4.8.8.8h3c.5 0 .8-.3.8-.8V6.8c-.1-2.1-1.8-3.8-3.8-3.9m1.5 12.6c-.5 0-.8-.3-.8-.7c0-.5.4-.8.8-.8s.8.2.8.7s-.3.8-.8.8m0-3.5c-.5 0-.8-.3-.8-.8c0-.4.3-.8.8-.8s.8.3.8.8s-.3.8-.8.8m0-3.7c-.5 0-.8-.4-.8-.8s.3-.8.8-.8s.8.3.8.8s-.3.8-.8.8M7.5 7h9.1s.5-4-4.6-4c-4.5-.1-4.5 3.5-4.5 4m6.2-2.6c.4-.1.8.2.9.6c.1.4-.2.8-.6.9c-.4.1-.8-.2-.9-.6c-.1-.4.2-.8.6-.9m-3.7 0c.4-.1.8.2.9.6c.1.4-.2.8-.6.9c-.4.1-.8-.2-.9-.6c-.1-.4.2-.8.6-.9m7.3 12.7c-.7 0-.7-.9-.7-.9V8.3H7.5s-.1 7.4-.1 8.1s-.4.7-.4.7h4.1v1.3H8.7c-.5 0-1 .5-1 1v.2c0 .5.5 1 1 1h6.7c.5 0 1-.5 1-1v-.2c0-.5-.5-1-1-1h-2.1v-1.3z"/></svg>