<svg xmlns="http://www.w3.org/2000/svg" width="1em" height="1em" viewBox="0 0 24 24"><path fill="currentColor" d="M18.445 15.738a.367.367 0 0 0-.348.348v.293a.345.345 0 0 0 .322.367a.338.338 0 0 0 .045 0a.662.662 0 0 0 .274-.056a.08.08 0 0 0 .056-.076a.089.089 0 0 0-.084-.094h-.01c-.01 0-.028.009-.038.009a.422.422 0 0 1-.2.048a.178.178 0 0 1-.188-.167v-.1h.433a.127.127 0 0 0 .123-.123v-.1a.368.368 0 0 0-.385-.349m.21.392h-.368v-.048a.163.163 0 0 1 .135-.187a.161.161 0 0 1 .044 0a.174.174 0 0 1 .189.158a.15.15 0 0 1 0 .03zm-.962-.414a.27.27 0 0 0-.273.267v.667a.095.095 0 0 0 .189 0V16a.1.1 0 0 1 .084-.1a.271.271 0 0 1 .085.009h.01c.009 0 .018.01.028.01a.089.089 0 0 0 .094-.084v-.01a.1.1 0 0 0-.075-.1a.847.847 0 0 0-.142-.009m-.909-.002a.451.451 0 0 0-.052 0a.365.365 0 0 0-.386.343a.309.309 0 0 0 0 .043v.255a.361.361 0 0 0 .334.386a.451.451 0 0 0 .052 0a.366.366 0 0 0 .386-.343a.294.294 0 0 0 0-.042V16.1a.361.361 0 0 0-.334-.386m.157.387v.274a.19.19 0 0 1-.172.207h-.028a.185.185 0 0 1-.2-.168a.17.17 0 0 1 0-.039V16.1c0-.14.069-.206.2-.206a.187.187 0 0 1 .2.17a.229.229 0 0 1 0 .036zm-1.217-.381a.452.452 0 0 0-.255.076a.311.311 0 0 0-.226-.076a.854.854 0 0 0-.3.057a.111.111 0 0 0-.075.1v.772a.072.072 0 0 0 .058.084h.017v.008a.089.089 0 0 0 .095-.083v-.737a.6.6 0 0 1 .188-.028c.066 0 .142.038.142.1v.65a.094.094 0 1 0 .188 0v-.707a.258.258 0 0 1 .17-.047a.167.167 0 0 1 .16.17v.593a.094.094 0 0 0 .188 0v-.584a.354.354 0 0 0-.35-.348m-1.924-.373a.1.1 0 0 0-.085.085v.321a.42.42 0 0 0-.188-.038a.342.342 0 0 0-.368.314a.469.469 0 0 0 0 .053v.293a.364.364 0 0 0 .363.367h.014a.785.785 0 0 0 .292-.047a.107.107 0 0 0 .076-.113v-1.15a.1.1 0 0 0-.104-.085m-.075 1.2a1.093 1.093 0 0 1-.189.029a.173.173 0 0 1-.188-.156a.182.182 0 0 1 0-.033v-.3a.178.178 0 0 1 .163-.19h.025a.3.3 0 0 1 .189.057zm-1.164-.832h-.042a.743.743 0 0 0-.292.047a.114.114 0 0 0-.075.113v.773a.079.079 0 0 0 .06.093a.07.07 0 0 0 .025 0a.089.089 0 0 0 .094-.084v-.745a1.094 1.094 0 0 1 .188-.028a.166.166 0 0 1 .18.151a.153.153 0 0 1 0 .037v.575a.095.095 0 0 0 .189 0v-.566a.347.347 0 0 0-.327-.366m-1.061-.003a.26.26 0 0 0-.04 0a.61.61 0 0 0-.292.075a.1.1 0 0 0-.047.076a.089.089 0 0 0 .084.094h.01a.355.355 0 0 0 .047-.009a.428.428 0 0 1 .2-.057c.057 0 .17.009.17.141v.085h-.179a.422.422 0 0 0-.273.076a.308.308 0 0 0-.1.226a.351.351 0 0 0 .1.235a.408.408 0 0 0 .273.085a.831.831 0 0 0 .292-.047a.1.1 0 0 0 .075-.113v-.556a.317.317 0 0 0-.32-.311m.118.832a1.1 1.1 0 0 1-.179.029c-.16 0-.188-.076-.188-.142c0-.066.038-.141.188-.141h.179zm-1.673-.652a.34.34 0 0 1 .179.047a.092.092 0 0 0 .123-.042a.1.1 0 0 0 .009-.033a.073.073 0 0 0-.056-.076a.607.607 0 0 0-.255-.056a.346.346 0 0 0-.367.324a.309.309 0 0 0 0 .043v.292a.346.346 0 0 0 .323.368a.323.323 0 0 0 .044 0a.563.563 0 0 0 .255-.059a.078.078 0 0 0 .056-.075a.094.094 0 0 0-.094-.094a.1.1 0 0 0-.038.009a.4.4 0 0 1-.169.047a.169.169 0 0 1-.189-.146a.148.148 0 0 1 0-.042v-.3c0-.141.066-.207.179-.207m-.781-.177a.089.089 0 0 0-.094.084v.849a.094.094 0 0 0 .188 0v-.839a.094.094 0 0 0-.094-.094m-.617.448l-.169-.076a.1.1 0 0 1-.076-.1c0-.1.123-.1.132-.1a.456.456 0 0 1 .189.038a.063.063 0 0 0 .038.009a.087.087 0 0 0 .094-.08v-.005a.081.081 0 0 0-.055-.089a.5.5 0 0 0-.235-.048a.3.3 0 0 0-.329.268V16a.268.268 0 0 0 .179.264l.169.075c.076.038.1.066.1.123c0 .075-.066.1-.132.1a.375.375 0 0 1-.188-.047c-.01-.01-.019-.01-.038-.01a.089.089 0 0 0-.094.084v.01a.092.092 0 0 0 .056.085a.593.593 0 0 0 .255.057a.3.3 0 0 0 .319-.279a.148.148 0 0 0 0-.021a.349.349 0 0 0-.215-.278m-.914-.371a.1.1 0 0 0 0 .017v.735a1.1 1.1 0 0 1-.179.029a.169.169 0 0 1-.188-.147a.148.148 0 0 1 0-.042v-.575a.095.095 0 0 0-.189 0v.566a.342.342 0 0 0 .315.367h.053a.785.785 0 0 0 .292-.047a.106.106 0 0 0 .075-.113v-.773a.093.093 0 0 0-.079-.094a.088.088 0 0 0-.1.077m-1.21-.085v.008a.45.45 0 0 0-.254.075a.321.321 0 0 0-.226-.075a.881.881 0 0 0-.3.056a.111.111 0 0 0-.075.1v.773a.094.094 0 1 0 .188 0v-.726a.605.605 0 0 1 .189-.028c.066 0 .141.038.141.1v.65a.095.095 0 0 0 .189 0v-.707a.255.255 0 0 1 .169-.047a.168.168 0 0 1 .161.17v.593a.094.094 0 0 0 .188 0v-.584a.394.394 0 0 0-.37-.358m9.617-6.768l.895 1.244a.046.046 0 0 0 .057.018a.051.051 0 0 0 .037-.056l.01-1.536a.28.28 0 0 1 .207-.283l1.454-.462c.01-.009.019-.009.029-.019c.01-.01.009-.019.009-.037a.051.051 0 0 0-.038-.057l-1.459-.481a.3.3 0 0 1-.207-.292l.009-1.527a.051.051 0 0 0-.038-.056a.057.057 0 0 0-.066.019s-.9 1.225-.914 1.234a.282.282 0 0 1-.339.1l-1.451-.481c-.048-.009-.095.047-.066.085c.031 0 .914 1.248.923 1.258a.283.283 0 0 1-.009.358l-.9 1.234a.084.084 0 0 0 0 .066a.045.045 0 0 0 .057.019s1.451-.462 1.46-.462a.3.3 0 0 1 .34.114m-2.165 1.099h-.762c-.123 0-.207.047-.217.245a66.775 66.775 0 0 0 0 1.923c0 .113-.085.141-.16.056c-.057-.075-1.122-1.536-1.5-2.045a.308.308 0 0 0-.312-.169c-.113.009-.5.009-.763 0c-.151 0-.254.075-.264.311c-.009.207-.009 3.053-.009 3.92c0 .161.056.236.235.255c.123.009.538.009.792.009c.113 0 .189-.056.189-.235V12.1s1.47 2.027 1.63 2.224c.16.197.254.217.377.217c.236 0 .613.01.763 0a.237.237 0 0 0 .217-.245v-4.057a.209.209 0 0 0-.216-.201m-4.717-.019a.229.229 0 0 0-.037 0c-.141.01-.518.01-.763 0a.4.4 0 0 0-.387.208c-.122.151-1.027 1.385-1.432 1.951c-.123.169-.2-.01-.2-.01v-1.96s.037-.179-.236-.179h-.746c-.132 0-.255.038-.434.273c-.141.189-2.1 2.865-2.827 3.845c-.17.227-.114.368.094.368h.91a.407.407 0 0 0 .39-.216c.4-.546 1.414-1.913 1.452-1.979c.056-.075.169-.141.169.009c-.009.547-.018 1.81 0 1.961c.019.188.1.235.217.235c.274 0 .735.01.83 0a.324.324 0 0 0 .273-.141c.339-.471 1.385-1.894 1.517-2.055c.132-.207.151-.141.151.01c0 .546-.009 1.781 0 1.894a.288.288 0 0 0 .264.283c.236 0 .556.009.7-.009c.236-.01.255-.283.255-.283l.009-4.006a.187.187 0 0 0-.169-.199m12.799 4.24s-2.695-3.685-2.884-3.968c-.189-.283-.386-.254-.386-.254h-.745s-.254-.038-.254.292v1.81c0 .141-.113.169-.2.065a264.916 264.916 0 0 1-1.451-1.988a.511.511 0 0 0-.368-.189H14.9c-.122 0-.207.123-.207.311v3.93c0 .161.085.255.217.255c.245 0 .631.009.782 0c.226-.009.217-.255.217-.255V14.2h-.031v-1.887s.057-.151.142-.029c.367.5 1.329 1.829 1.479 2.008c.18.235.264.235.4.235c.264 0 .688.01.792 0c.16-.009.188-.141.188-.254c0-.5.01-1.583 0-1.894c-.009-.406.17-.048.17-.048s1.2 1.631 1.386 1.9c.186.269.329.311.48.311c.264.009.66.009.877-.01c.335-.032.165-.273.165-.273M9.164 15.338a.121.121 0 0 0-.113.113a.115.115 0 0 0 .113.113a.113.113 0 0 0 0-.226"/></svg>