<svg xmlns="http://www.w3.org/2000/svg" width="1em" height="1em" viewBox="0 0 24 24"><path fill="currentColor" d="M21.822 15.544c-.175-.046-.179-.139-.2-4.137l-.022-4.09h-4.885l-.007 3.343l-.218.054c-.385.1-.813.646-1.162 1.488c-.572 1.38-.842 1.539-.908.537c-.066-.979-.071-1-.4-1.27c-.221-.184-.32-.222-.372-.14c-.052.082-.07.067-.071-.041c0-.307-.163-.238-.251.108c-.073.289-.066.358.035.358a.157.157 0 0 0 .139-.154c.01-.15.012-.15.051 0c.03.111.136.159.371.164c.181 0 .279.027.217.052a.092.092 0 0 0-.061.13a.725.725 0 0 1-.253.719a6.335 6.335 0 0 1-2.352.043l-.269-.116l.423-.271a3.514 3.514 0 0 1 .962-.384c.579-.123.567-.107.652-.9c.023-.208.061-.225.545-.238c.7-.02.945-.132.465-.213l-.358-.061l.336-.013c.6-.022.375-.407-.283-.474c-.267-.027-.315 0-.391.226c-.066.194-.057.276.036.334c.093.058.077.079-.062.08c-.284 0-.435-.172-.7-.806a4.554 4.554 0 0 0-.42-.806c-.114-.145-.068.013.13.449a8.527 8.527 0 0 1 .363.9l.056.222l-4.362-.027c-2.695-.017-4.459.006-4.615.061c-.433.151-.388-.192.173-1.323a2.38 2.38 0 0 0 .231-.548a4.313 4.313 0 0 0-.66 1.165c-.224.541-.395.721-.676.71c-.1 0-.134-.027-.072-.052c.146-.059.144-.43 0-.552a1.191 1.191 0 0 0-.86.112c-.226.139-.1.32.236.332l.336.013l-.359.061c-.481.081-.228.2.469.214l.515.013l.06.422a2.274 2.274 0 0 0 .115.509a1.387 1.387 0 0 0 .534.188a3.285 3.285 0 0 1 .918.379l.436.279l-.284.117a7.75 7.75 0 0 1-2.151.042c-.207-.017-.388-.295-.388-.6c0-.333-.09-.387-.275-.164a11.01 11.01 0 0 0-.06 3.278c.061.009.353.022.649.03c.296.008 1.284.035 2.2.062c.916.027 1.325.032.918.012c-.662-.033-.739-.055-.739-.212s.08-.176 3.084-.176c3.02 0 3.082 0 3.037.176c-.04.155-.14.179-.82.206c-.757.029-.753.03.211.048a24.073 24.073 0 0 0 3.227-.207c.207-.033.227-.025.089.035c-.169.074-.166.081.045.129c.123.029-.009.036-.293.018s-.5 0-.471.04c.114.184-5.895.282-8.758.143a7.031 7.031 0 0 1-1.372-.132c.021-.035-.2-.061-.493-.058c-.293.003-.532.046-.531.1c0 .229.179.307.762.339l.625.034l-.695-.007l-.695-.008v.253a1.065 1.065 0 0 0 .093.426c.079.147.192.173.758.173c.566 0 .68-.026.759-.173c.126-.236.117-.519-.019-.574c-.062-.025 1.965-.048 4.5-.051c2.535-.003 4.563.028 4.5.068c-.133.084-.056.551.108.661a2.813 2.813 0 0 0 1.38-.039a.743.743 0 0 0 .108-.425v-.319l-.7.008l-.694.007l.646-.034l.647-.033l.092-.332a4.7 4.7 0 0 0 .093-.973c0-.636 0-.643.31-.824a3.064 3.064 0 0 0 .952-1.58c.189-.506.624-1.034.852-1.034c.106 0 .127.358.127 2.2c0 2.148 0 2.208-.193 2.36a.324.324 0 0 0-.132.4l.06.239H22v-.322c0-.253-.042-.34-.178-.376m-9.278-4.69c.166-.121.171-.119.057.026a.393.393 0 0 1-.217.156c-.051 0-.077-.011-.056-.025c.021-.014.118-.084.216-.157m-.851.855a1.92 1.92 0 0 1 .349-.314c.025 0-.092.141-.259.314a2.014 2.014 0 0 1-.349.313c-.025 0 .092-.141.259-.313m-7.08-.224a3.15 3.15 0 0 1-.421-.538a4.458 4.458 0 0 1 .51.538a3.189 3.189 0 0 1 .421.537a4.494 4.494 0 0 1-.51-.537m8.133 1.733a.344.344 0 0 1 .224 0c.062.025.011.045-.112.045s-.173-.02-.112-.045m0 .358a.344.344 0 0 1 .224 0c.062.025.011.046-.112.046s-.173-.022-.112-.046m-8.688.088a.18.18 0 0 1 .172.007c.03.03-.023.051-.118.047c-.095-.004-.125-.025-.054-.054m-.358-.448a.178.178 0 0 1 .171.007c.03.03-.023.051-.117.047c-.094-.004-.126-.025-.054-.054m0 .358a.183.183 0 0 1 .171.007c.03.03-.023.052-.117.048c-.094-.004-.126-.029-.054-.055m-.342-.042c-.123 0-.174-.02-.112-.045a.344.344 0 0 1 .224 0c.062.025.011.045-.112.045m-.583-.5a2.339 2.339 0 0 1 .448.07c.242.061.247.069.045.07a1.741 1.741 0 0 1-.448-.07c-.175-.06-.185-.076-.045-.074Zm.29.374c.029.03-.023.051-.118.047c-.095-.004-.126-.025-.054-.054a.18.18 0 0 1 .172.001Zm-.359-.089c.03.029-.023.051-.117.047c-.094-.004-.126-.026-.055-.054a.18.18 0 0 1 .172.003zm-.379-.487c.1.072.2.143.217.157c.017.014 0 .025-.056.025a.391.391 0 0 1-.217-.157c-.114-.149-.11-.155.056-.029Zm.173 2.412c-.1 0-.126-.026-.054-.054a.18.18 0 0 1 .172.007c.028.03-.025.051-.118.047m1.307 0c-1.106-.12-1.344-.295-1.344-.982c0-.247.013-.255.336-.2c.185.029.537.106.784.169l.448.115l-.392-.05c-.3-.039-.382-.024-.351.071a.447.447 0 0 0 .3.179l.262.056l-.247.011c-.135.006-.246.051-.246.1c0 .049.111.095.246.1c.212.01.218.018.045.051c-.378.073-.235.295.191.295a4.233 4.233 0 0 1 .667.055c.259.052.275.04.256-.2c-.019-.24-.052-.261-.466-.31l-.446-.053l.4-.021l.4-.021l-.313-.129c-.3-.121-.3-.125-.045-.078a.656.656 0 0 1 .565.662c-.025.272-.104.286-1.051.183Zm.293-.327a.517.517 0 0 1 .269 0c.061.025-.011.043-.159.042c-.148-.001-.198-.016-.11-.039Zm4.384-.32a13.222 13.222 0 0 1-3.107-.109c-.675-.245-.749-.594-.242-1.137a1.384 1.384 0 0 1 .919-.492a13.073 13.073 0 0 1 4.788.069a1.67 1.67 0 0 1 .654.415a.991.991 0 0 1 .228.371l.015.014h-.012a.56.56 0 0 1-.241.662c-.243.181-.368.19-3.003.212zm4.589.6c-.339.032-.76.078-.934.1a.686.686 0 0 1-.381-.02c-.094-.094-.078-.393.02-.393c.138 0 .2.161.073.205c-.272.1.031.135.643.079c.677-.061.953-.238.483-.309l-.252-.037l.246-.014c.136-.007.247-.051.247-.1c0-.049-.111-.1-.247-.121c-.229-.035-.226-.038.045-.051c.2-.009.291-.057.291-.157c0-.162-.264-.137-.992.091l-.4.125l.4.023l.4.023l-.448.054c-.524.063-.555.055-.411-.119a7.443 7.443 0 0 1 1.957-.535c.289-.051.291-.048.291.309c.009.561-.261.78-1.032.852zm-.817-.282a.517.517 0 0 1 .269 0c.06.025-.011.043-.159.042c-.148-.001-.198-.014-.111-.037zm.945-1.433a.18.18 0 0 1 .172.007c.029.03-.023.051-.118.047c-.095-.004-.127-.021-.055-.049Zm.358-.09a.18.18 0 0 1 .172.007c.03.03-.023.051-.117.047c-.094-.004-.127-.02-.056-.044Zm.611-.408a2.768 2.768 0 0 1-.649.146l-.438.05l.513-.119a2.309 2.309 0 0 0 .65-.233c.075-.062.137-.075.137-.027s-.097.134-.214.188zm6.666-2.667h-3.279l.007-1.89h3.271zm-18.006.993a3.093 3.093 0 0 0-.561.419c-.106.131-.1.142.043.088a1.641 1.641 0 0 1 .458-.061c.269 0 .291-.022.263-.247c-.028-.225-.026-.233.038-.029a.424.424 0 0 0 .192.259c.086.028.1-.006.064-.113a1.269 1.269 0 0 1-.059-.37v-.216Zm2.16-2.702a35.81 35.81 0 0 1 7.042.07c.089.031.064-.015-.062-.108a12.1 12.1 0 0 0-3.638-.394a14.056 14.056 0 0 0-3.691.376c-.107.107-.057.115.349.056m5.993 4.402h-1.14c-1.06 0-1.156.015-1.356.2l-.215.2l-.164-.2c-.154-.191-.228-.2-1.338-.2H5.6l-.32.292c-.42.388-.475.711-.163.956c.257.2.569.242.719.092a28.917 28.917 0 0 1 4.94.013a.705.705 0 0 0 .776-.149c.249-.249.166-.382-.285-.459c-.519-.089-5.268-.1-5.893-.01c-.377.052-.412.046-.224-.041a52.122 52.122 0 0 1 6.095-.042l.481.067v-.012l-.363-.347z"/></svg>