<svg xmlns="http://www.w3.org/2000/svg" width="1em" height="1em" viewBox="0 0 24 24"><path fill="currentColor" d="M14.186 14.091c-.367.072-.423-.062-.144-.348c.192-.2.2-.221.084-.314a.4.4 0 0 0-.22-.109c-.1 0-.154.086-.154.264c0 .365-.18.42-.331.1c-.158-.333-.151-.329-.314-.171c-.2.193-.184.243.125.418c.148.084.227.153.175.155c-.052.002-.075.036-.052.076s-.08.083-.229.1c-.226.02-.267.05-.246.178c.055.339.164.366.417.1a.842.842 0 0 0 .24-.393c0-.093.042-.136.119-.119c.172.035.207.22.05.264c-.1.03-.137.123-.151.426c-.018.388-.018.388.179.335c.27-.072.274-.084.141-.384q-.215-.48.235-.232c.266.147.359.1.359-.187c0-.208-.008-.213-.283-.159m-.269.343a.015.015 0 0 0-.01 0c-.02.021.039.125.132.23c.093.105.184.174.2.153c.016-.021-.04-.124-.133-.23a.479.479 0 0 0-.189-.153m-.517.157a1.162 1.162 0 0 0-.151.288c0 .115.127.055.163-.076c.019-.074.059-.2.087-.289c.011-.032.012-.047 0-.047s-.045.044-.099.124m.567-.612c0 .055.048.044.248-.053c.1-.049.182-.119.182-.156c0-.014-.013-.019-.037-.017a.558.558 0 0 0-.178.07a.624.624 0 0 0-.215.156m7.89.443c-.139-.039-.143-.119-.161-3.547l-.019-3.507H17.8L17.785 8.8l-.02 1.433l-.175.047a1.8 1.8 0 0 0-.831 1.03c-.417 1.126-.639 1.4-1.139 1.4c-.2 0-.219-.024-.224-.25c-.008-.433-.084-.517-.714-.795a9.809 9.809 0 0 0-4.4-1.107a6.792 6.792 0 0 0-3.742.966a4.481 4.481 0 0 1-1.9.605c-1.513.2-2.217.475-2.519.99a1.487 1.487 0 0 0 .044 1.281c.157.186.9.5.98.41a.672.672 0 0 0-.017-.375a1.257 1.257 0 0 1 1.44-1.569a1.313 1.313 0 0 1 .924 1.41l-.024.4h7l.012-.513a1.174 1.174 0 0 1 .55-1.12a1.136 1.136 0 0 1 1.226 0a1.5 1.5 0 0 1 .568.831a1.293 1.293 0 0 0 .07.336c.07.195.076.2.255.071a.9.9 0 0 0 .353-.906l-.046-.331l.276-.048c.587-.1.865-.447 1.249-1.547c.151-.434.5-.886.681-.886c.086 0 .1.307.1 1.89c0 1.84 0 1.893-.154 2.023a.287.287 0 0 0-.106.339l.048.205H22v-.276c0-.217-.034-.292-.143-.322m-10.293-.415a36.979 36.979 0 0 1-4.264.083c.138-.039 1.235-.087 2.438-.108c.309 0 .59-.009.835-.01c.733-.004 1.143.008.991.035m-1.876-1.835c-1.059.04-2.038.085-2.176.1a2.869 2.869 0 0 1-1.148-.1a5.43 5.43 0 0 1 2.044-1.245a3.449 3.449 0 0 1 1.469-.177h.432a5.806 5.806 0 0 1 2.08.2c.933.272 1.519.518 1.488.624c-.097.347-1.029.478-4.189.598m4.207.094c-1.338.043-1.06-.054.395-.138c.233-.013.419-.021.558-.022c.232 0 .332.013.3.045a6.014 6.014 0 0 1-1.248.115Zm7.173-2.238h-2.646c-.02-.056.028-1.661.028-1.661l2.618-.042zm-11.012.794a5.371 5.371 0 0 0-1.325.142a7.851 7.851 0 0 0-1.936.963l-.18.162h.169a.709.709 0 0 0 .382-.189c.269-.242.378-.241.606 0l.182.2l2.2-.083c1.209-.046 2.415-.116 2.678-.156c.572-.088.9-.209.806-.3a5.931 5.931 0 0 0-1.611-.554a8.859 8.859 0 0 0-1.971-.185m3.658 2.151a1.046 1.046 0 0 0-.484.1a1.153 1.153 0 0 0-.666 1.278a1.185 1.185 0 0 0 .722.928a.724.724 0 0 0 .827-.058a1.2 1.2 0 0 0-.4-2.252zm.31 2.087c-.773.429-1.6-.593-1.136-1.406a.893.893 0 0 1 .742-.469a.841.841 0 0 1 .632.262a1 1 0 0 1-.238 1.613m-9.738-2.101a1.044 1.044 0 0 0-.5.11a1.247 1.247 0 0 0 0 2.11a1.113 1.113 0 0 0 1.614-.856a1.454 1.454 0 0 0-.479-1.179a1.083 1.083 0 0 0-.635-.185m.6 1.895a.919.919 0 0 1-1.473-1a.869.869 0 0 1 .887-.684a.622.622 0 0 1 .6.256a.955.955 0 0 1-.011 1.428Zm-.846-.532c-.089 0-.4.248-.4.319c0 .042.054.04.131 0c.145-.088.343-.319.269-.319m1.021-.505c.035-.029-.212-.417-.265-.416a1.623 1.623 0 0 0-.4.729c0 .085-.052.154-.111.154c-.136 0-.186-.257-.059-.309c.065-.027.087-.147.07-.384c-.017-.237-.062-.354-.175-.345a.541.541 0 0 0-.2.081c-.137.078-.136.086.031.326c.242.348.183.457-.173.322c-.3-.113-.331-.082-.284.27c.023.175.051.183.282.08c.319-.141.4-.039.214.28c-.13.224-.139.283-.057.339c.232.157.342.079.366-.257l.024-.326l.092.329c.05.18.122.308.159.283c.037-.025.022-.14-.044-.278c-.145-.3-.089-.361.1-.108c.175.238.24.245.362.035c.11-.187.083-.23-.226-.351l-.228-.091l.3-.006c.168 0 .3-.039.3-.081s-.14-.059-.341-.035l-.34.04l.287-.131c.163-.067.303-.139.316-.15m-1.299-.001c.3.176.317.154.064-.1c-.078-.078-.146-.119-.187-.114a.041.041 0 0 0-.031.02c-.025.043.045.13.154.194m.782-.547c-.016-.018-.031-.028-.043-.027c-.038 0-.062.1-.1.35l-.045.308l.116-.292a.614.614 0 0 0 .072-.339m9.064.231c0-.153-.019-.234-.051-.222a.036.036 0 0 0-.015.011a.417.417 0 0 0-.027.284c.054.295.093.264.093-.073m-.591.486a.491.491 0 0 0-.114-.017c-.052 0-.084.015-.084.044c0 .044.1.079.228.079c.261 0 .253-.034-.03-.106"/></svg>