<svg xmlns="http://www.w3.org/2000/svg" width="1em" height="1em" viewBox="0 0 24 24"><path fill="currentColor" d="m21.493 12.614l-.371.979l-.381-.979h-1.7v.491h.446v1.411h.533v-1.411h.686l-.27.108l.55 1.3h.264l.75-1.785v-.114zm-2.756 1.348a.278.278 0 1 0 0 .554a.274.274 0 0 0 .291-.275a.279.279 0 0 0-.291-.279M6.56 13.185a19.9 19.9 0 0 1 .24-2.008c.074-.419.222-1.119.3-1.512a.372.372 0 0 0-.044-.285a.887.887 0 0 0-.27-.18h-.009a.468.468 0 0 0-.4.017a1.669 1.669 0 0 0-.536.475a6.618 6.618 0 0 0-.884 1.787c.072-.379.331-1.485.374-1.77c0-.033.04-.128.015-.181a.632.632 0 0 0-.271-.228L5 9.271a.408.408 0 0 0-.359.033a1.641 1.641 0 0 0-.53.492a7.872 7.872 0 0 0-.87 1.991l.136-.864c.063-.373.309-1.776.359-2.123c.005-.033.026-.132.006-.164a.346.346 0 0 0-.235-.1a.937.937 0 0 0-.382.024h-.013l-.012.01a3.318 3.318 0 0 0-.668.813c-.216.366-.3.521-.408.72c-.069.132.048.49.188.268a7.8 7.8 0 0 1 .679-.924c-.114.748-.432 3.188-.479 3.5c-.024.161-.146.891.148.857a.075.075 0 0 0 .024 0c.1-.024.455-.171.487-.308a8.846 8.846 0 0 1 1.481-3.4a45.57 45.57 0 0 0-.309 1.946c-.04.356-.14 1.079.1 1.068h.028c.095-.021.46-.156.493-.292a7.191 7.191 0 0 1 1.421-2.827c-.044.236-.061.314-.107.549a22.512 22.512 0 0 0-.438 2.86a1.018 1.018 0 0 0 .713 1.083c.093.027.435 0 .367-.108a2.038 2.038 0 0 1-.26-1.194Zm1.54-.608a1.394 1.394 0 0 0 .856-.624a2.662 2.662 0 0 0 .439-1.063c.019-.087.033-.167.044-.241a1.028 1.028 0 0 0 .436-.369c-.093.55-.141.923-.158 1.159a1.61 1.61 0 0 0 .091.769a.561.561 0 0 0 .456.348a.788.788 0 0 0 .676-.3a1.042 1.042 0 0 0 .094-.1a.719.719 0 0 0 .844.386a1.4 1.4 0 0 0 .861-.618a2.669 2.669 0 0 0 .449-1.059c.018-.085.033-.163.045-.236a1.094 1.094 0 0 0 .478-.353a10.829 10.829 0 0 0-.2 1.078a1.634 1.634 0 0 0 .071.775a.6.6 0 0 0 .45.38a.761.761 0 0 0 .689-.255c.036-.033.072-.069.109-.109a.718.718 0 0 0 .865.44a1.4 1.4 0 0 0 .864-.611a2.65 2.65 0 0 0 .453-1.05a3.98 3.98 0 0 0 .045-.229a.832.832 0 0 0 .464-.512c.046-.124.015-.441-.056-.281a.81.81 0 0 1-.532.526a.788.788 0 0 0 .16-.127a1.019 1.019 0 0 0-.08-.432a.427.427 0 0 0-.513-.259c0-.183-.085-.295-.383-.241a1.167 1.167 0 0 0-.493.207a2.128 2.128 0 0 0-.623.829a3.434 3.434 0 0 0-.252.914a2.079 2.079 0 0 0 0 .528a.933.933 0 0 1-.081.074a.494.494 0 0 1-.312.137c-.2-.03-.171-.383-.164-.52a7.3 7.3 0 0 1 .154-.915c.035-.189.159-.794.357-1.552a7.555 7.555 0 0 1 1.985.146a3.942 3.942 0 0 1 .58.175c.519.219.5.924.443 1.341a9.681 9.681 0 0 1-.479 1.732a.392.392 0 0 0 .072.276a1.149 1.149 0 0 0 .266.215a.471.471 0 0 0 .391.071a5.647 5.647 0 0 0 1.784-1.827a3.445 3.445 0 0 0 .5-1.231c0-.21-.806-.152-.827.165a3.16 3.16 0 0 1-.712 1.632a2.811 2.811 0 0 1-.783.708a9.167 9.167 0 0 0 .533-2.305a1.632 1.632 0 0 0-.168-.947c-.3-.446-1.187-.66-2.331-.656a9.861 9.861 0 0 0-1.133.069c.071-.3.118-.484.125-.521c.014-.07-.105-.1-.34-.092c-.235.008-.4.043-.444.209c-.048.2-.088.349-.131.527a8.337 8.337 0 0 0-.313.069a3.649 3.649 0 0 0-.614.189c-.155.055-.265.439-.127.389a5.376 5.376 0 0 1 .908-.236l.058-.01l-.036.165c-.159.7-.52.963-.812 1.018a.843.843 0 0 0 .168-.132a1.042 1.042 0 0 0-.086-.41a.428.428 0 0 0-.51-.252c0-.183-.086-.3-.384-.241a1.163 1.163 0 0 0-.492.21a2.135 2.135 0 0 0-.62.837a3.461 3.461 0 0 0-.248.921a2.072 2.072 0 0 0 .018.6l-.06.061a.515.515 0 0 1-.307.158c-.2-.015-.179-.37-.176-.507a7.355 7.355 0 0 1 .13-.911c.068-.445.475-2.484.5-2.606c.012-.071-.107-.092-.34-.068c-.233.024-.4.073-.434.242c-.109.51-.174.906-.248 1.292a1.147 1.147 0 0 1-.68.837a.8.8 0 0 0 .137-.112a1.043 1.043 0 0 0-.085-.426a.43.43 0 0 0-.513-.248c0-.183-.088-.295-.386-.238a1.157 1.157 0 0 0-.49.214a2.144 2.144 0 0 0-.613.841a3.52 3.52 0 0 0-.24.924a1.879 1.879 0 0 0 .086.821a.721.721 0 0 0 .873.436zm7.436-1.7a1.731 1.731 0 0 1 .351-.665a.59.59 0 0 1 .4-.207c-.051.078-.014.127.066.143a.243.243 0 0 1 .191.222c-.123-.078-.265.371-.1.4a1.151 1.151 0 0 0 .5-.038a1.083 1.083 0 0 1-.429.117a2.281 2.281 0 0 1-.336.889c-.215.308-.447.437-.59.331c-.22-.162-.245-.608-.057-1.189zm-3.836-.054a1.756 1.756 0 0 1 .348-.671a.584.584 0 0 1 .4-.209c-.05.078-.013.128.066.144a.232.232 0 0 1 .186.193c-.108-.036-.231.389-.076.411a1.2 1.2 0 0 0 .447-.022a.98.98 0 0 1-.387.1a2.313 2.313 0 0 1-.336.915c-.213.31-.445.441-.588.335c-.216-.162-.244-.611-.06-1.196m-3.793.044a1.747 1.747 0 0 1 .342-.673a.583.583 0 0 1 .4-.213c-.05.078-.012.128.067.143a.234.234 0 0 1 .188.2c-.1-.007-.27.382-.078.411a1.1 1.1 0 0 0 .483-.036a.984.984 0 0 1-.418.116a2.317 2.317 0 0 1-.327.912c-.211.313-.442.445-.585.34c-.222-.161-.253-.61-.073-1.2zm9.835 2.645c-1.242-.724-4.639-.851-7.969-.563a28.1 28.1 0 0 0-2.971.416c.052 0 .391-.044.549-.069c-.141.038-.543.115-.56.119c.008 0 .329-.046.518-.069c-.22.049-.525.113-.526.114c0 0 .293-.04.5-.061c-.192.041-.5.118-.5.118s.285-.04.5-.062c-.187.038-.48.12-.48.121c0 0 .308-.045.492-.069c-.189.045-.466.12-.466.122v.008a25.412 25.412 0 0 1 3.137-.342c4.714-.206 7.241.5 7.862 1.181c.152-.194.4-.7-.078-.982zm-12.118.2v-.007a3.726 3.726 0 0 0-.466.09c.152-.055.458-.136.458-.137v-.007s-.3.051-.469.1c.176-.061.454-.132.454-.134v-.005c-.8.18-1.509.373-2.108.571c-.289.1-.009.222.249.153a35.394 35.394 0 0 1 1.865-.448a4.192 4.192 0 0 0-.517.094c.128-.047.512-.141.53-.143v-.007a4.313 4.313 0 0 0-.491.089c.21-.074.5-.142.5-.144v-.008a4.638 4.638 0 0 0-.475.089c.169-.064.472-.138.472-.141Z"/></svg>