<svg xmlns="http://www.w3.org/2000/svg" width="1em" height="1em" viewBox="0 0 24 24"><path fill="currentColor" d="M12.016-.004c-6.633 0-12 5.367-12 12s5.367 12 12 12s12-5.367 12-12s-5.367-12-12-12M3.09 9.584c.724 0 1.357.361 1.719.934c.362-.543 1.025-.934 1.719-.934c1.145 0 2.08.934 2.08 2.08v2.714h-.694v-2.684c0-.754-.602-1.357-1.386-1.357c-.754 0-1.358.603-1.388 1.357v2.654h-.663v-2.654c0-.754-.603-1.387-1.387-1.387c-.753 0-1.356.603-1.386 1.357v2.653H1.01v-2.653c0-1.146.935-2.08 2.08-2.08m8.925.03a2.432 2.432 0 0 1 2.442 2.442a2.432 2.432 0 0 1-2.442 2.442a2.432 2.432 0 0 1-2.442-2.442a2.432 2.432 0 0 1 2.442-2.442m5.457 0h.06v.723h-.06c-.754 0-1.357.603-1.357 1.357v2.654h-.724v-2.654c0-1.146.935-2.05 2.08-2.08m3.106 0a2.432 2.432 0 0 1 2.442 2.442v.15H18.86c.06.905.814 1.599 1.718 1.599c.664 0 1.267-.392 1.538-.965l.633.332a2.444 2.444 0 0 1-2.17 1.326a2.432 2.432 0 0 1-2.443-2.442a2.432 2.432 0 0 1 2.442-2.442m0 .723c-.784 0-1.418.513-1.659 1.206h3.287a1.72 1.72 0 0 0-1.629-1.206"/></svg>