<svg xmlns="http://www.w3.org/2000/svg" width="1em" height="1em" viewBox="0 0 24 24"><path fill="currentColor" d="M20.14 3.85c-.12 0-.23 0-.37.2c-.82.89-1.63 1.8-2.44 2.65a.38.38 0 0 0 0 .33a8.39 8.39 0 0 1 2 3.48a9.57 9.57 0 0 1 .37 2.54a9.05 9.05 0 0 1-.5 3.68c-.17.43-.34.86-.54 1.34l-1-1a10.33 10.33 0 0 0 .79-4.85C18 10.63 17.56 9 16.25 7.9l-2.75 2.84A3.34 3.34 0 0 1 14.7 13a3.33 3.33 0 0 1-1.3 3.19a.76.76 0 0 0-.49.77v.92a3.82 3.82 0 0 0 2.78-2.77a5.13 5.13 0 0 0-.43-4.25l.84-.86a3 3 0 0 1 .3.52a8.88 8.88 0 0 1 .7 2.34a6.62 6.62 0 0 1-.68 3.64c-.12.26-.32.47-.46.72a.42.42 0 0 0 0 .31c.4.47.77.84 1.21 1.32c.44.48 1 .93 1.44 1.41c.2.21.32.11.44-.06a10.41 10.41 0 0 0 .77-1.2a14.73 14.73 0 0 0 .76-2.07a12.6 12.6 0 0 0 .49-3.44a6.53 6.53 0 0 0-.2-1.7c-.17-.6-.16-1.25-.35-1.83a10.15 10.15 0 0 0-1.18-2.55c-.31-.41-.28-.49.07-.85l.66-.61c.43.8.9 1.52 1.27 2.37a9.27 9.27 0 0 1 .66 2a15 15 0 0 1 .34 3.89a11 11 0 0 1-.71 3.71c-.21.52-.4 1-.64 1.53a13.84 13.84 0 0 1-1 1.75c-.21.25-.21.29 0 .5c.21.21.41.41.63.61a.22.22 0 0 0 .21 0a1.59 1.59 0 0 0 .32-.36c.41-.74.87-1.47 1.24-2.26a12.46 12.46 0 0 0 .73-2.13a12.21 12.21 0 0 0 .52-3.16a18.32 18.32 0 0 0-.19-3.47a15.62 15.62 0 0 0-2.93-6.79a.69.69 0 0 0-.38-.29M3.9 3.91a.47.47 0 0 0-.36.26c-.12.19-.27.35-.39.54a24.39 24.39 0 0 0-1.43 2.34a13.91 13.91 0 0 0-.83 2.4a11.74 11.74 0 0 0-.52 3.05A15.21 15.21 0 0 0 .56 16a12.58 12.58 0 0 0 .66 2.55c.26.54.39 1.16.68 1.7a23.25 23.25 0 0 0 1.27 2c0 .08.21.08.21.08a5.61 5.61 0 0 0 .62-.65a.52.52 0 0 0 .1-.43c-.25-.44-.55-.85-.81-1.29A12.12 12.12 0 0 1 2 16.69a12.17 12.17 0 0 1-.3-3.8a12.21 12.21 0 0 1 .55-3.33a18.11 18.11 0 0 1 1-2.48c.2-.41.45-.78.69-1.17c.23.21.43.37.61.55c.36.35.39.51.06.92a8.45 8.45 0 0 0-1.07 2.38A9.21 9.21 0 0 0 3 12a9.79 9.79 0 0 0 .1 3.37A16.52 16.52 0 0 0 3.82 18a15.53 15.53 0 0 0 1 1.89a1.65 1.65 0 0 0 .27.38a.26.26 0 0 0 .27 0c.52-.49 1.11-1.06 1.52-1.48c.41-.42.79-.85 1.18-1.3a.44.44 0 0 0 0-.32a3.6 3.6 0 0 1-.84-1.69A6.08 6.08 0 0 1 7 12.21a7.34 7.34 0 0 1 1-2.29l.8.85a11.61 11.61 0 0 0-.55 1.7a10.13 10.13 0 0 0-.07 1.46a4.31 4.31 0 0 0 .38 1.61a1.5 1.5 0 0 0 .24.53a4 4 0 0 0 2.16 1.76c.21.05.27 0 .32-.11a2.41 2.41 0 0 1-.07-.71a.72.72 0 0 0-.41-.77a2.91 2.91 0 0 1-1.32-2.49a3.23 3.23 0 0 1 1-2.77a.36.36 0 0 0 0-.32a8.72 8.72 0 0 0-.67-.66L8.38 8.44c-.52-.56-.65-.59-1.07 0A6.74 6.74 0 0 0 6 11.14a12.63 12.63 0 0 0-.37 2.35a8 8 0 0 0 .3 1.93c.16.59.32 1.14.49 1.69l-1 1c-.27-.73-.57-1.36-.75-2a10.19 10.19 0 0 1-.29-2A10.07 10.07 0 0 1 4.94 10a8.93 8.93 0 0 1 1.78-2.92a.34.34 0 0 0 0-.31c-.44-.48-.94-1-1.33-1.4c-.39-.4-.76-.83-1.13-1.26a.44.44 0 0 0-.36-.2m8.25 7.9A1.52 1.52 0 0 0 10.59 13a1.87 1.87 0 0 0 .41 1.8a1.53 1.53 0 0 1 .46.59a4.41 4.41 0 0 1 .16 1.08c.08 1.44.15 2.89.22 4.33a19.32 19.32 0 0 1 .06 2.2a.81.81 0 0 0 .17.28l.08-.11c0-.51.1-1 .1-1.54c.08-1.62.14-3.23.23-4.86c0-.46.09-.93.15-1.4a.47.47 0 0 1 .12-.23c.18-.18.37-.35.54-.55a2.31 2.31 0 0 0 .08-1.94a1.65 1.65 0 0 0-1.22-.84" class="cls-1"/></svg>