<svg xmlns="http://www.w3.org/2000/svg" width="1em" height="1em" viewBox="0 0 24 24"><path fill="currentColor" d="M11.472 14.405c-.066.125.054.082.054.082s.033-.022.033-.017c.027-.082-.087-.065-.087-.065M3.69 11.462c-.076-.017-.213.093-.213.1c-.021.137-.284.306-.278.306c-.126.076-.006.049 0 .054c.087 0 .267-.207.262-.2c.076-.081.109-.071.109-.071s.049-.043.055-.038c.038-.027.087-.049.082-.038c.218-.097-.017-.113-.017-.113m7.651 3.057c.016-.114-.213-.071-.213-.07c-.055 0-.055.032-.055.032s-.246.082-.246.088c-.054.022-.065.043-.065.043a.238.238 0 0 1-.109.055l-.05.044a.3.3 0 0 0-.049.016a1.921 1.921 0 0 1-.289.18a.25.25 0 0 1-.038.028c-.148.043-.132.071-.126.071a.427.427 0 0 1-.137.076c-.071.011-.087.028-.087.028s-.142.092-.147.092a.452.452 0 0 0-.13.098c-.082.049-.065.06-.065.06l.011.066l.043-.017a.629.629 0 0 0 .541-.142c.087-.043.049-.065.055-.065a.121.121 0 0 0 .065-.066c.077.006.213-.087.219-.082c.093-.087.169-.158.169-.153a.492.492 0 0 1 .235-.1a.326.326 0 0 0 .18-.109c.066-.071.071-.044.082-.039c.044-.054.077-.027.077-.027c.172-.074.129-.107.129-.107m-6.498-3.598a.974.974 0 0 0-.257.251c0 .006-.142.164.027.1c-.005-.006.017-.017.088-.022c.005-.006.033.011.1-.082c0-.006.082-.137.082-.137s.173-.219-.04-.11m-.716-.109l-.016-.049a.192.192 0 0 0-.049-.028a.065.065 0 0 0-.1 0a.349.349 0 0 1-.191.076l-.06.028a.353.353 0 0 0-.033.065a.284.284 0 0 1-.081.093s-.028.071-.033.066a.478.478 0 0 0-.066.092l-.022.044s-.011.044-.022.038a.2.2 0 0 0-.065.109s.011.028-.115.137a1.337 1.337 0 0 0-.093.1l-.06.066l-.065.076l-.056.081a1.671 1.671 0 0 0-.148.2a.205.205 0 0 0-.033.033l-.038.06l-.022.043l-.038.039s.022.016.109-.028a.21.21 0 0 0 .033-.011a.247.247 0 0 0 .066-.136c0 .005.038-.044.038-.044l.049-.022s.262-.262.317-.338a.072.072 0 0 0 .043-.066a.062.062 0 0 1 .044-.087a7.76 7.76 0 0 1 .235-.11a.6.6 0 0 0 .464-.355a.273.273 0 0 0 .008-.172m5.624 3.3l.06-.061c.055-.032.038-.049.038-.049c-.027-.022-.043-.076-.049-.076a.15.15 0 0 0 0-.066s-.038.006-.033 0c-.011-.054-.082.006-.082.006c-.174.06-.06.087-.065.093c.049.043.022.054.016.054a.06.06 0 0 0 .039.071c.06.055.076.028.076.028m3.222.517s-.014-.058-.047-.065c-.015 0-.032 0-.049.024a.416.416 0 0 1-.14.1c-.03.007-.047.02-.051.037c-.004.017.009.04.039.064h.017a.186.186 0 0 0 .091.015h.01c.013 0 .036 0 .075-.045a.133.133 0 0 0 .056-.129zm-3.08-.867c.065.027.055.06.055.06l.032-.038c.028-.049.044-.027.049-.027c.1 0 .115-.039.115-.039c.088-.005.066-.087.066-.076c0-.077-.077-.055-.088-.06a.355.355 0 0 0-.122-.017c-.126-.022-.137.049-.137.049c-.038.028-.016.082-.016.082c-.02.083.053.055.046.066m-2.704.262a.206.206 0 0 0-.021-.049a.311.311 0 0 0-.06-.044c-.067-.056-.084-.027-.084-.022a.425.425 0 0 0-.113-.027c-.044-.016-.033.044-.022.044c.038-.006.022.043.011.032c-.005.044-.027.066-.033.06c-.082.006 0 .11 0 .11c.027.027.027.043.027.043l.033.017l.044.032a.157.157 0 0 0 .163 0l.033.006l.022-.06l.027-.033v-.054c.001-.071-.027-.049-.027-.055m.093-.557a.085.085 0 0 0 .033-.066a.3.3 0 0 1 .044-.1c.049-.054-.191-.186-.191-.186c-.093-.114-.1.05-.1.05l-.028.071l-.022.033L7 13.4c-.036.1 0 .094.005.088c.011.054 0 .086 0 .086a.092.092 0 0 0 .137.071c0-.038.054-.043.054-.043c0-.061.022-.066.033-.071c.026-.059.053-.064.053-.064M21.981 9.58a.252.252 0 0 0-.133-.185a.343.343 0 0 0-.3.04l-.071.022a4.506 4.506 0 0 1-1.131.268h-.052a6.364 6.364 0 0 1-1.449-.267l-.036-.01a1.82 1.82 0 0 0-1.613.084a1.374 1.374 0 0 0-.487 1.139a1.047 1.047 0 0 1-.592-.124a4.129 4.129 0 0 0-.249-.155c-.207-.124-.49-.294-.667-.42l-.029-.021a3.171 3.171 0 0 0-.941-.462a4.212 4.212 0 0 0-1.908-.12c-.028 0-.074.009-.175.025c-.181.029-.484.078-.756.106a.776.776 0 0 0-.119.008a8.03 8.03 0 0 1-1.141.036a.346.346 0 0 0-.06 0a1 1 0 0 1-.569-.117L9.478 9.4c-.023-.025-.034-.041-.033-.049c.001-.008.009-.017.042-.035l.01-.006l.027-.01a.181.181 0 0 0 .057-.118c0-.053-.027-.143-.229-.153a1 1 0 0 0-.47.072a.046.046 0 0 1-.024-.022a.136.136 0 0 1 .02-.1a1.182 1.182 0 0 0 .16-.173c.056-.078.1-.191.062-.257c-.062-.108-.25-.152-.573-.132a5.311 5.311 0 0 0-1.327.331a.247.247 0 0 1-.119.02a.154.154 0 0 0-.021-.151c-.079-.1-.281-.1-.634-.009l-.059.015c-.06.023-.172.07-.4.164h-.011v-.003a.193.193 0 0 0 0-.027a.246.246 0 0 0-.1-.161a.218.218 0 0 0-.162-.03a3.046 3.046 0 0 0-.676.306c-.1.06-.183.114-.233.147l-.045.031v-.006l-.051.044a.017.017 0 0 1-.015.006c-.046-.01-.117-.119-.143-.176A.294.294 0 0 0 4.21 8.7c-.434.192-.391.786-.377.909a.156.156 0 0 1 0 .041a3.227 3.227 0 0 0-.422.265a.922.922 0 0 0-.416.537v.029a.871.871 0 0 1-.117.385a84.04 84.04 0 0 0-.78 1.2a.405.405 0 0 0-.028.5a.639.639 0 0 1 .084.257v.016a.381.381 0 0 0 .217.241a.386.386 0 0 0 .159.042a.738.738 0 0 1 .2.045h.015a1.345 1.345 0 0 0 .353-.088a.334.334 0 0 0 .207-.229v-.008a2.142 2.142 0 0 1 .6-.757l.061-.041c.1-.062.3-.185.472-.285a2.948 2.948 0 0 0 .825-.66l.068.032a3.565 3.565 0 0 1 .688.375a1.605 1.605 0 0 1 .705.835l.012.056a1.97 1.97 0 0 1-.054.438c-.054.284-.139.707-.161.76a.852.852 0 0 0-.058.414v.014a1.986 1.986 0 0 0 .18.533c.009.024.055.112.232.106h.027a.444.444 0 0 0 .123-.022c.041-.01.49-.089.612-.1h.01a2.4 2.4 0 0 1 .908.042l.039.024c.057.032.176.1.2.2a.337.337 0 0 0 .29.194c.019.007.088.032.2.066a.042.042 0 0 1 .025.016s0 .014-.012.033l-.014.014a.755.755 0 0 1-.548.217a.16.16 0 0 0-.144.087c-.11.1-.287.291-.268.442a.17.17 0 0 0 .094.132a1.407 1.407 0 0 0 .267.013c.277 0 .682-.014.78-.029a.058.058 0 0 0 .044-.026h.009v-.023a.082.082 0 0 1 .076-.036h.227a.293.293 0 0 0 .246-.06l.012-.009a.453.453 0 0 1 .436-.112a.919.919 0 0 1 .383.187a.548.548 0 0 0 .223.066c.01 0 .145.013.233.023a.094.094 0 0 0 .089-.034l.022-.025a6.114 6.114 0 0 0 .4-.5a.135.135 0 0 0 .068-.088c0-.031 0-.088-.1-.118a2.519 2.519 0 0 0-.585-.132a1.547 1.547 0 0 1 .522-.243h.024a.157.157 0 0 1 .088.017l.025.006l.053.014a4.135 4.135 0 0 0 .758.142a.427.427 0 0 0 .265.025a.243.243 0 0 0 .179-.179a2.33 2.33 0 0 1 .311-.563a.353.353 0 0 0 .025-.03a1.811 1.811 0 0 1 .721-.6a3.14 3.14 0 0 0 .576-.255a4.323 4.323 0 0 0 1.167-1.4a.55.55 0 0 1 .542-.323l.881-.011a.588.588 0 0 0 .651-.281c.089-.194.293-.514.5-.483a4.133 4.133 0 0 1 .765.183a4.652 4.652 0 0 0 .762.08a2.013 2.013 0 0 0 1.268-.308a1.194 1.194 0 0 0 .651-1.315m-.657 1.256a2.034 2.034 0 0 1-1.23.3a4.551 4.551 0 0 1-.75-.079a4.128 4.128 0 0 0-.779-.185c-.128-.019-.26.06-.392.236a1.734 1.734 0 0 0-.167.282a.527.527 0 0 1-.586.248l-.886.011a.613.613 0 0 0-.6.359a4.262 4.262 0 0 1-1.147 1.384a3.107 3.107 0 0 1-.56.247a1.865 1.865 0 0 0-.749.622l-.022.026a2.357 2.357 0 0 0-.322.585a.185.185 0 0 1-.134.135a.373.373 0 0 1-.226-.025h-.012a3.966 3.966 0 0 1-.751-.14l-.054-.014l-.022-.005a.218.218 0 0 0-.116-.021a.033.033 0 0 1-.014 0a1.636 1.636 0 0 0-.559.256l-.027.016a.052.052 0 0 0-.025.049a.048.048 0 0 0 .034.039h.008a2.423 2.423 0 0 1 .616.131q.062.02.057.051a.082.082 0 0 1-.043.047h-.008l-.005.008a4.836 4.836 0 0 1-.4.5l-.024.028c0 .005-.019.008-.031.006l-.235-.023a.5.5 0 0 1-.2-.056a.958.958 0 0 0-.406-.2a.508.508 0 0 0-.494.12l-.009.007a.235.235 0 0 1-.2.049h-.26a.135.135 0 0 0-.136.085a8.813 8.813 0 0 1-1.013.022a.112.112 0 0 1-.061-.084c-.011-.09.083-.237.252-.392c.048-.068.08-.064.091-.063h.013a.81.81 0 0 0 .591-.237l.011-.011a.1.1 0 0 0 .02-.092a.1.1 0 0 0-.065-.053c-.121-.035-.189-.061-.2-.065a.282.282 0 0 1-.227-.14a.444.444 0 0 0-.231-.238l-.039-.027a1.912 1.912 0 0 0-.689-.068h.009l-.076.007c-.08.005-.146.012-.185.017h-.012c-.121.011-.583.091-.625.1a.376.376 0 0 1-.108.019h-.025c-.147.005-.171-.064-.172-.067a1.9 1.9 0 0 1-.173-.516v-.014a.784.784 0 0 1 .055-.378c.032-.081.163-.765.164-.771a2.02 2.02 0 0 0 .055-.454l-.018-.074c-.141-.676-1.3-1.213-1.433-1.255a.659.659 0 0 0-.1-.043h-.016l-.02.022a2.8 2.8 0 0 1-.813.653c-.17.1-.374.224-.474.287l-.062.041a2.231 2.231 0 0 0-.621.788v.015a.272.272 0 0 1-.172.186a1.508 1.508 0 0 1-.313.085h-.007a.772.772 0 0 0-.217-.049a.532.532 0 0 1-.13-.03a.33.33 0 0 1-.188-.2l-.005-.012a.735.735 0 0 0-.094-.282a.352.352 0 0 1 .029-.427c.006-.01.71-1.1.78-1.2a.864.864 0 0 0 .123-.428v-.013c.055-.358.738-.716.816-.756h.01v-.01a.156.156 0 0 0 .005-.082c-.013-.11-.056-.668.337-.846a.232.232 0 0 1 .251.178s.09.19.186.211a.055.055 0 0 0 .018 0v.028l.052-.05a.976.976 0 0 1 .088-.063c.049-.033.129-.086.23-.145a2.974 2.974 0 0 1 .661-.3a.161.161 0 0 1 .114.022a.185.185 0 0 1 .07.124v.012v-.007c0 .032 0 .048.018.058c.018.01.043.011.079 0H6c.306-.128.409-.171.441-.178l.059-.018c.283-.069.456-.068.512 0a.1.1 0 0 1 .009.1v.014a.073.073 0 0 0 .032.057c.047.027.143 0 .172-.015a5.349 5.349 0 0 1 1.308-.334c.366-.022.482.043.516.1c.019.033-.008.12-.059.19a1.08 1.08 0 0 1-.152.164h-.006v.006A.192.192 0 0 0 8.8 9.1a.113.113 0 0 0 .071.06h.021a.937.937 0 0 1 .444-.073h.008c.081 0 .176.022.174.09a.119.119 0 0 1-.054.088l-.042.017v.006a.093.093 0 0 0-.039.057c-.007.041.028.079.049.1l.012.015a1.049 1.049 0 0 0 .611.132a.221.221 0 0 1 .049 0a8.179 8.179 0 0 0 1.152-.036a.852.852 0 0 1 .11-.008h.006c.275-.028.58-.077.763-.107c.09-.014.144-.023.169-.024a3.744 3.744 0 0 1 2.805.57l.03.021c.178.128.463.3.67.423c.167.1.225.135.245.152c.39.154.6.158.667.115l.013-.009v-.016a1.329 1.329 0 0 1 .461-1.11a1.771 1.771 0 0 1 1.56-.076l.037.011a6.444 6.444 0 0 0 1.464.27a.329.329 0 0 1 .045 0a4.547 4.547 0 0 0 1.156-.271c.034-.011.057-.019.071-.022a.289.289 0 0 1 .251-.039a.191.191 0 0 1 .1.141a1.132 1.132 0 0 1-.555 1.259M2.68 12.259a.064.064 0 0 0 0 .093c0 .093.076-.049.076-.049c.06-.098-.076-.044-.076-.044m19.113-2.773a.266.266 0 0 0-.224.041l-.081.026a4.409 4.409 0 0 1-1.171.272h-.044a6.477 6.477 0 0 1-1.47-.271a.238.238 0 0 1-.038-.011a1.734 1.734 0 0 0-1.527.071a1.305 1.305 0 0 0-.447 1.1a.044.044 0 0 1-.038.041c-.051.03-.193.064-.694-.12a2.6 2.6 0 0 1-.252-.158c-.2-.142-.494-.3-.674-.425l-.017-.012a3.689 3.689 0 0 0-2.788-.572l-.172.025c-.184.029-.493.079-.769.107c0 0-.071 0-.114.007a8.226 8.226 0 0 1-1.158.037h-.048A1.058 1.058 0 0 1 9.43 9.5l-.018-.022a.163.163 0 0 1-.058-.131a.152.152 0 0 1 .092-.1l.012-.006c.012-.014.031-.041.025-.061c-.006-.02-.021-.042-.143-.046l-.032-.014a1.056 1.056 0 0 0-.4.074l-.041.006a.175.175 0 0 1-.1-.082c-.043-.056.047-.21.047-.21c.042-.033.219-.221.2-.285c0 0 0-.033-.011-.044c-.011-.011-.123-.086-.471-.065a5.558 5.558 0 0 0-1.294.331a.334.334 0 0 1-.123.03a.111.111 0 0 1-.129-.108v-.016a.071.071 0 0 0 0-.071c-.023-.028-.124-.082-.537.025c-.032.01-.282.114-.436.178c-.07.03-.106.011-.124-.011a.1.1 0 0 1-.02-.071a.166.166 0 0 0-.058-.118a.122.122 0 0 0-.086-.017a3.544 3.544 0 0 0-.962.5a.12.12 0 0 1-.144.012a.546.546 0 0 1-.166-.212C4.4 8.8 4.29 8.8 4.243 8.8c-.355.161-.327.659-.31.807a.16.16 0 0 1-.019.121l-.01.008c-.008 0-.749.378-.8.732a.881.881 0 0 1-.126.456a112.63 112.63 0 0 0-.767 1.17a.166.166 0 0 1-.013.027a.334.334 0 0 0-.036.382a.681.681 0 0 1 .106.3l.005.014a.3.3 0 0 0 .173.183h.01a.966.966 0 0 0 .107.022a.815.815 0 0 1 .228.052A1.3 1.3 0 0 0 3.079 13a.245.245 0 0 0 .154-.161a1.748 1.748 0 0 1 .182-.331a1.827 1.827 0 0 1 .456-.492a6.163 6.163 0 0 1 .538-.33a2.853 2.853 0 0 0 .8-.643l.009-.011c.046-.057.225.042.337.1c.268.13 1.15.6 1.279 1.2a1.324 1.324 0 0 1-.04.537c0 .029-.132.693-.166.777a.772.772 0 0 0-.051.354v.012a1.741 1.741 0 0 0 .174.516s.025.049.135.046a.127.127 0 0 1 .028 0a.336.336 0 0 0 .1-.016a2.116 2.116 0 0 1 .276-.052c.065-.011.282-.047.362-.054a2.427 2.427 0 0 1 .965.052l.021.008v.007l.019.011a.469.469 0 0 1 .247.262a.259.259 0 0 0 .2.12h.008c.065.024.132.046.2.065a.135.135 0 0 1 .089.075a.139.139 0 0 1-.027.128l-.016.023a.839.839 0 0 1-.606.244a.041.041 0 0 1-.019 0c-.017 0-.039.013-.064.05l-.006.008c-.118.109-.252.269-.24.362a.071.071 0 0 0 .041.055c.07.005.753.008.971-.02a.187.187 0 0 1 .164-.09h.245c.08.033.179-.049.181-.051a.542.542 0 0 1 .527-.124a.947.947 0 0 1 .414.2a.375.375 0 0 0 .173.05l.231.021l.018-.006a5.812 5.812 0 0 0 .416-.516l.009-.018h.012c.009 0 .023-.026-.009-.035a2.349 2.349 0 0 0-.616-.133s-.094-.021-.1-.057c-.006-.036.033-.07.073-.1l.03-.018a1.856 1.856 0 0 1 .576-.26h.021a.242.242 0 0 1 .13.022c.014 0 .035.008.074.018a3.971 3.971 0 0 0 .749.14l.02.007a.372.372 0 0 0 .2.022a.192.192 0 0 0 .116-.116a2.4 2.4 0 0 1 .327-.593l.025-.03a1.9 1.9 0 0 1 .77-.633a3.424 3.424 0 0 0 .548-.243a4.258 4.258 0 0 0 1.134-1.368a.653.653 0 0 1 .63-.378l.893-.01a.486.486 0 0 0 .562-.254c.015-.039.223-.565.58-.512a5.305 5.305 0 0 1 .781.187a2.757 2.757 0 0 0 1.952-.215s.005 0 0 0a1.108 1.108 0 0 0 .58-1.209a.162.162 0 0 0-.078-.114m-15.986-.3a3.45 3.45 0 0 1 .984-.431c.1-.017.109-.006.109 0c.077.054-.071.136-.082.131a2.175 2.175 0 0 0-.339.218c-.12.088.028.071.028.071s.306.017.3.022a1.3 1.3 0 0 0 .377-.137c1.295-.611 1.639-.431 1.633-.426c.077.022-.033.071-.033.071a.985.985 0 0 1-.185.159a.436.436 0 0 1-.192.082c-.071.016-.065.022-.065.022s-.027.06-.027.049c0 .049-.066.043-.066.038a1.12 1.12 0 0 0-.415.071c-.1.076 0 .049 0 .055a.324.324 0 0 1 .191.005a.05.05 0 0 1 .038.082c-.049.071.027.054.022.06c.071.016.093.049.087.044a.075.075 0 0 1-.065.12a3.2 3.2 0 0 1-.333-.055a9.225 9.225 0 0 0-1.311-.142a3.375 3.375 0 0 0-.612.033c-.093.011-.087 0-.093 0c-.1-.093.055-.147.049-.142m2.7-.087s-.011.141-.1.147c0 0-.153-.022-.092-.142a.34.34 0 0 1 .125-.087s.109-.093.087.054c.006-.001-.021.029-.021.029Zm-3.611.207a2.964 2.964 0 0 1 .732-.5c.17-.071.115.043.115.043s-.257.3-.251.306c-.06.071-.126.055-.115.049a.476.476 0 0 0-.158.05c-.11.038-.23.092-.235.092c-.143.014-.084-.041-.089-.041Zm-.131.311c.159-.076.06.022.06.028c-.043.032-.032.065-.032.065c-.165.027-.029-.094-.029-.094Zm-.682-.469c0-.006.043-.077.065-.066c.006 0-.027-.12.071-.147c0 0 .071-.088.093.032a2.158 2.158 0 0 0 .109.241c.006.011-.027.022.033.065a.1.1 0 0 1 .038.148c.006 0-.076.158-.054.246l.2-.044s.109-.033.033.076a.223.223 0 0 1-.18.082a.137.137 0 0 0-.082.033s-.082.027-.082-.06a.667.667 0 0 1 .027-.311c-.011 0 .038-.017 0-.066c.006 0-.087-.158-.115-.131c.011.011-.06.055-.038.1c.006 0 .077.044-.022.049a.236.236 0 0 1-.097-.248Zm-.864 1.392s0-.1.065-.12c0 0 .032.029.017-.066a.344.344 0 0 1 .109-.18a4.2 4.2 0 0 1 .524-.328s.087-.044.12-.027l.034-.041l-.045-.078l.011-.17s.044-.087.066.011a.328.328 0 0 1 0 .229s-.033 0-.038.061c0-.011.022.033-.038.071a1.7 1.7 0 0 0-.486.289a.4.4 0 0 1-.11.06a.229.229 0 0 0-.1.148a.2.2 0 0 1-.033.016l.016.033a.093.093 0 0 1 .011.115a.821.821 0 0 1-.147.257c-.011.005-.077.01-.039-.1zm-.874 1.545s.027-.038.022-.044a7.78 7.78 0 0 0 .442-.7l.065-.076a.31.31 0 0 1 .039-.055c.027-.054.049.017.049.022a.148.148 0 0 1-.022.109c-.016.028-.131.181-.131.181a.528.528 0 0 1-.055.065a1.409 1.409 0 0 1-.2.322L2.487 12c-.071.06-.071.1-.071.1l-.06.093l-.038-.038zm6.16 2.272c-.027.028-.142-.011-.142-.011s-.092.006-.092-.005a1.745 1.745 0 0 0-.568.005a5.795 5.795 0 0 1-.394.039a1.538 1.538 0 0 0-.163.027c-.017.038-.2.027-.2.027c-.12 0-.147-.125-.152-.131c-.006-.125-.055-.142-.055-.147a.633.633 0 0 1-.071-.257c0-.1.033-.1.033-.1a.433.433 0 0 0 .043-.115a1.249 1.249 0 0 0 .071-.344a.663.663 0 0 0 .017-.087c.055-.246.093-.513.093-.519c.043-.1.136.109.136.109a.838.838 0 0 0 .235.252l.071.054a.5.5 0 0 1 .06.055c.077.071.016.136.006.136a.031.031 0 0 0-.017.044a.339.339 0 0 1-.027.044c-.006.043-.033.043-.038.049a.033.033 0 0 0-.023.04c-.027.042-.038.075-.043.075a.412.412 0 0 1-.027.039a.818.818 0 0 1-.022.108a.286.286 0 0 0 .142.279a.119.119 0 0 0 .131.011H8s.038.005.038.011c.049.032.125-.05.125-.044c.055-.049.1-.039.093-.033a.1.1 0 0 1 .12.066c.055.032.1.18.11.191c.021.011.071.071.06.065c.036.056-.03.056-.041.067m-.452-.557c-.043.061-.3.062-.3.062l-.279-.021a.122.122 0 0 1-.079-.051a.117.117 0 0 1 0-.086v-.017v.013a.694.694 0 0 1 .207-.309c.062-.051.106-.016.11-.012c.055.055.138.142.211.218c.073.076.114.119.133.136c.019.046.005.066 0 .073zm3.26 1.471c0-.006.049 0 .049 0l.055.011s.044.049-.011.077l-.06-.011s-.115-.024-.033-.073zm-.207.289c-.033.066.049.071.049.071h.262l.005-.038l.044-.027a.131.131 0 0 1 .071-.093c.049-.049-.027-.1-.06-.093l-.038-.049s.06-.033.06-.027a.266.266 0 0 1 .142.06a.06.06 0 0 1 .022.093c-.011.049-.055.049-.06.054c-.033.044-.028.06-.028.06l-.038.011l-.011.044a.55.55 0 0 1-.142.126s-.033.032-.033.027c-.06-.038-.136.022-.136.016a.367.367 0 0 1-.279-.06l-.065-.071l-.049-.016l-.039-.033a.79.79 0 0 0-.071-.033s-.032-.005-.032 0a.455.455 0 0 0-.186-.038c-.077-.011-.017-.071-.017-.071c.066-.022.039-.038.033-.038a.316.316 0 0 1 .115-.1h.044a.213.213 0 0 1 .076-.06s.06-.033.055-.022c.049-.016.054-.044.06-.038c.027-.049.065-.028.065-.028l.088.012a.039.039 0 0 1 .033.054c0 .033-.061.016-.061.016l-.054.011l-.038.022l-.055.066c-.049.055.005.049.005.049c.1.038.148.082.142.087c.028.039.11-.043.11-.038c.065-.044.016.093.011.098zm2.5-1.649a1.3 1.3 0 0 0-.519.634a1.282 1.282 0 0 1-.169.322a.347.347 0 0 1-.142 0a1.449 1.449 0 0 1-.333-.044s-.268-.06-.41-.076c0-.006-.262 0-.109-.065a4.944 4.944 0 0 1 .524-.039a.289.289 0 0 0 .241-.12a2.751 2.751 0 0 1 .846-.672s.265-.094.072.064zm8.013-3.566a1.807 1.807 0 0 1-1.42.666a8.124 8.124 0 0 1-1.715-.317c-.393-.076-.59.426-.59.415a.731.731 0 0 1-.7.393a3.524 3.524 0 0 0-1.027.055c-.306.066-.764.961-.775.961a2.006 2.006 0 0 1-.836.8c-.257.131-.967.41-.967.41a.284.284 0 0 1-.1.044a3.948 3.948 0 0 0-.907.721l-.027.032l-.12.011l-.06.027l-.05-.005a1.237 1.237 0 0 0-.136.005c-.071.011-.278.039-.278.039l-.448.093l-.055.027a1.372 1.372 0 0 1-.437.235a.571.571 0 0 0-.191.136s-.1.077-.1.082c-.077.071-.072.027-.072.027l-.109.071l-.011.039c-.082.1-.136.1-.142.092a.934.934 0 0 0-.409.235c-.038.066-.088.061-.088.061s-.3 0-.3.01a1.168 1.168 0 0 0-.3.093c-.071.033-.1.033-.1.027c-.049 0-.109 0-.12-.01c-.071-.039-.295.016-.295.016s-.185 0-.2-.006c-.077 0 .011-.125.011-.125l.032-.011l.028-.033a.621.621 0 0 1 .082-.093l.038-.038a.263.263 0 0 1 .142-.033c.109 0 .071.044.071.049c-.011.039-.12.039-.12.033a.094.094 0 0 0-.093.088c-.033.054.022.043.022.043h.2c.109-.005.131.017.131.017c.125.033.153-.027.158-.027c.049-.071.077-.071.077-.066c.1-.049-.011-.044-.011-.049c-.039 0-.044-.011-.049-.017c-.033-.038-.039-.011-.044-.011c-.023-.007-.035-.016-.039-.025a.2.2 0 0 1-.016.02s-.061.038-.077 0c-.011.005-.049-.033.049-.06c0 0 .036 0 .046.016a.119.119 0 0 1 .053-.043a1.185 1.185 0 0 0 .241-.208a1.351 1.351 0 0 1 .551-.322c.066-.06.164-.131.164-.131l.109-.039l.066-.049l.082-.032a.21.21 0 0 1 .1-.066c.076-.049.109-.06.109-.055a1.223 1.223 0 0 0 .153-.092c.169-.061.388-.164.388-.164a.6.6 0 0 1 .081-.039a.57.57 0 0 0 .192-.163a.672.672 0 0 1 .262-.175c.065-.006.06-.038.065-.038a.133.133 0 0 1 .082-.115l.011-.038l.06-.055l.028-.044l.136-.2l.017-.049a.615.615 0 0 1 .021-.153a.478.478 0 0 0 .071-.213l.017-.06c.016-.076-.011-.093-.011-.093l.005-.049l-.005-.06a.237.237 0 0 0 .049-.142a.555.555 0 0 0 .011-.317l-.011-.071c.022-.087 0-.109 0-.115c.005-.043-.229-.06-.229-.06l-.044-.005s-.055.027-.06.027c-.131.044-.077.208-.077.219c0 .065-.043.054-.049.054c-.049.006-.038.028-.049.022a.152.152 0 0 1-.065.027a.955.955 0 0 0-.137.033l-.055.022l-.043.005a.225.225 0 0 1-.055.017a.371.371 0 0 0-.2.044s-.055.016-.06.016a.276.276 0 0 0-.153.016a7.389 7.389 0 0 1-.721.2a1.734 1.734 0 0 1-.35.054c-.147.022-.1-.005-.109-.011a.364.364 0 0 0-.284 0c-.071.038-.148.1-.148.1c-.043.016-.049-.016-.054-.016c-.049-.044 0-.088 0-.1c.027-.065-.022-.065-.022-.065a.327.327 0 0 0-.082-.017c-.022.011-.049.006-.06.011c-.082 0-.027.049-.033.044c.017.1-.022.076-.016.065c-.033 0-.022.071-.022.071c0 .071-.022.142-.033.142c-.038.039-.011.077-.011.071c-.038.082.077.1.077.11a.1.1 0 0 1 .06.1c.049.174.142.409.147.42a.829.829 0 0 1 .11.393s.021.077.032.082a.954.954 0 0 1 .263.241c.114.093-.044.043-.05.043a.086.086 0 0 1-.071-.038s-.087-.066-.1-.071c-.022-.033-.049-.044-.054-.038a.417.417 0 0 0-.159-.082l-.054-.055a.159.159 0 0 1-.05-.109a1.554 1.554 0 0 0-.087-.4s.016-.033-.049-.115a.871.871 0 0 1-.038-.1a.612.612 0 0 0-.06-.12a.263.263 0 0 0-.033-.054a.2.2 0 0 1-.082-.121a.579.579 0 0 0-.027-.071c-.006.006-.05-.027-.011-.087c.011 0 .027.016.027-.12c0-.005-.033-.082.136-.2c0 0 .137-.065.1-.169c0 .006-.082-.207.126-.218a.319.319 0 0 1 .147.038a.637.637 0 0 0 .219.076a1.227 1.227 0 0 0 .41.039c-.006-.006 0-.028.109-.022a2.5 2.5 0 0 0 .661-.066a.314.314 0 0 1 .136-.032a.563.563 0 0 1 .279-.044a.23.23 0 0 0 .136-.055c-.005 0 0-.044.109-.071a.19.19 0 0 0 .137-.109c.005-.006.218-.268.431-.257a.686.686 0 0 1 .339.077a.173.173 0 0 0 .186-.044c0 .011.338-.306.284-.033c0-.011-.066.077-.131.372c0-.011-.006 0-.006 0a2.471 2.471 0 0 0-.1.8a1.584 1.584 0 0 0 .027.224a.233.233 0 0 1-.044.229c-.1.088-.192.179-.284.273c0 0-.262.306-.349.421c-.006.005-.11.1.082.175a.913.913 0 0 0 .267.016a.556.556 0 0 1 .159-.011s.2-.005.229-.1c0 .005.044-.044.1-.088c0-.005.262-.295.289-.355a.177.177 0 0 0 .055-.093s-.044-.114.164-.24a3.058 3.058 0 0 0 .333-.175c0-.005.136-.1.136-.1a.914.914 0 0 1 .289-.2c0-.011.082-.055.12-.115c0 .011.093-.174.175-.082c.011 0 .022.05-.022.137c.006 0-.071.1.044.033a.679.679 0 0 0 .087-.038l.06-.044a.347.347 0 0 1 .126-.142c0-.006.065-.066.125-.148a.879.879 0 0 0 .153-.245s.153-.754.645-.754c0 0 .295.011.371-.11c0 0 .011-.1.371-.12c0-.011.612-.011 1.136.011a.416.416 0 0 0 .437-.251c.011-.011.175-.666.579-.6a.814.814 0 0 1 .306.066a4.646 4.646 0 0 0 1.573.24a1.536 1.536 0 0 0 1.147-.491c.416-.623-.1-.35-.087-.361a3.936 3.936 0 0 1-1.561.044a14.467 14.467 0 0 1-1.617-.339a2.742 2.742 0 0 0-.161-.016a.7.7 0 0 0-.625.237a2.2 2.2 0 0 0-.306.959c-.011.011-.044.339-.59.229a4.292 4.292 0 0 1-1.715-.852a3.771 3.771 0 0 0-1.18-.513a1.03 1.03 0 0 0-.513 0a2.152 2.152 0 0 0-1.016.486c.005 0-.087.011-.1.06c0 0-.061-.014-.082.016c0 .006-.011.039-.153 0a2.956 2.956 0 0 0-.6-.049a7.9 7.9 0 0 1-1.022.044c.006 0-.54-.033-.682-.049a.516.516 0 0 0-.35.033c.005.005-.115.093-.191.054a.15.15 0 0 1-.071-.1c0-.01-.06-.114-.4-.092c-.011 0-.12-.011-.12-.011s-.05.011-.142-.077a1.3 1.3 0 0 0-.71-.267c0 .005-.656-.12-1.016-.142L6.168 9.6a.709.709 0 0 1-.245-.049a.6.6 0 0 0-.306.006a.588.588 0 0 1-.164.032l-.066.011a.241.241 0 0 1-.158.033a.105.105 0 0 0-.1.071c0 .01-.028.032.011.114a1.438 1.438 0 0 1 .109.519a.418.418 0 0 1 .049.038s.1.06.115.121c0 .005.016.038.114.071a.206.206 0 0 1 .1.081c0 .006.027.066.174.137c0 0 .771.459.82.513c0 0 .164.11.333.23c.011-.006.049.06.06.174a.328.328 0 0 0 .022.192c0-.006.087.338.12.185c0-.011-.055-.24.087-.311l.039-.027a.126.126 0 0 1 .049-.044c.011-.011.071-.033.027-.126a.151.151 0 0 0-.115-.087a.353.353 0 0 1-.2-.126a.7.7 0 0 0-.093-.065s-.262-.219-.267-.219a12.953 12.953 0 0 1-1.2-.775c-.306-.23-.011-.088-.011-.088s.316.143.338.164a4.545 4.545 0 0 1 .765.273a5.09 5.09 0 0 1 .874.579c.164.2.185.131.185.142a.1.1 0 0 1 .132.11a.275.275 0 0 0 .1.218l-.186.229s-.065 0-.076-.011c-.066-.153-.175.132-.186.132a.352.352 0 0 0-.055.3c.033.186-.142-.043-.153-.043c.219.546.295.338.284.338c.121-.1.426.284.437.295a6.925 6.925 0 0 1 .667.792c.081.142.229.432.229.437c.027.115.055.088.055.088s.087.076.087.081c.169.06.136.071.153.077a.288.288 0 0 0 .191.093c.137-.033.148 0 .148.016a.184.184 0 0 0 .114.1c.066.054.011.049.011.049l.131.147c.044.066-.011.082-.022.077a.134.134 0 0 0-.087.065c-.044.049-.066.017-.066.017l-.1-.06s-.033-.039-.039-.044a.231.231 0 0 0-.218-.093c-.142 0-.158-.049-.175-.06c-.06-.065-.054-.065-.065-.065a1.209 1.209 0 0 1-.208-.23a.354.354 0 0 1-.067-.224a.592.592 0 0 1-.137-.164s-.087-.044-.093-.049c-.076-.027-.087-.131-.087-.131l-.033-.033a2.551 2.551 0 0 0-.573-.622c-.077-.077-.126-.077-.126-.077l-.1-.022s-.093-.06-.1-.06c-.1-.06-.142-.109-.136-.109a1.509 1.509 0 0 1-.35-.486s-.016-.049-.016-.055a.155.155 0 0 1-.044-.125a.62.62 0 0 0 0-.394a3.155 3.155 0 0 0-.552-.415c-.29-.213-1-.6-1-.6l-.032-.022a.627.627 0 0 0 0-.142c-.022-.2-.06-.022-.06-.022a1 1 0 0 1-.317.535a.555.555 0 0 1-.246.191a2.209 2.209 0 0 1-.447.252a5.463 5.463 0 0 0-.492.327a10.5 10.5 0 0 1-.333.35a.6.6 0 0 0-.148.136a.108.108 0 0 1-.027.055a.714.714 0 0 1-.055.175c.006.185-.076.169-.076.169s-.137.033-.142.033c-.066.016-.055-.011-.066-.011c-.032-.093-.109.016-.114.022a.857.857 0 0 1-.126-.017a.352.352 0 0 0-.131.017a.094.094 0 0 1-.082-.093a.2.2 0 0 0-.011-.115c-.044-.076-.011-.1-.011-.1a.068.068 0 0 0 .011-.077c-.065-.136-.087-.087-.087-.076c0 .065-.06.005-.066.005c-.12-.071.049-.136.049-.136a.4.4 0 0 1 .241-.066c-.017-.054.076-.093.076-.1c-.033-.055.18-.3.18-.3c.039-.043.055-.081.05-.087a.281.281 0 0 1 .087-.125a1.465 1.465 0 0 0 .1-.164c.071-.088.338-.552.338-.547c.044-.049-.016-.109-.021-.114c-.072-.137.032-.137.027-.137c.087 0 .065-.109.065-.109c.1-.218.263-.191.257-.186c.137.049.1 0 .1 0c.148.006.17.006.17.017c.082.1.125.038.125.032c.05-.032.1.061.1.061s0 .032.06.06a.091.091 0 0 1 .076.054a1 1 0 0 1 .109.055s.093-.006.093.033a.183.183 0 0 1 .126.027c.005 0-.006.027.065.022a.5.5 0 0 1 .17-.044s.191-.131.213-.213a1.082 1.082 0 0 0-.006-.41a1.312 1.312 0 0 0-.164-.387a.465.465 0 0 0 .01-.086l.033-.022a.185.185 0 0 0 .092-.054s0-.017.05-.022c0-.006.5-.006.5-.006l.088-.011a.659.659 0 0 0 .207-.016c.006 0 .027-.033.164-.027c0 0 .382.011.5.022a8.167 8.167 0 0 1 1.633.284a.527.527 0 0 1 .1.027h.12s-.033-.022.055-.022c-.006 0 .125.011.049-.082c.005.006-.131-.076-.1-.136c-.006 0 0-.055 0-.055l.038-.033a1.022 1.022 0 0 0 .142-.071s.022-.054.093-.038a1.636 1.636 0 0 1 .491-.12c.006 0 .115-.038.066.071a.169.169 0 0 0-.033.082s-.022.033-.087.054a1.234 1.234 0 0 0-.279.077c.005 0-.033-.022-.049.022c-.005 0-.115.043-.1.1a.354.354 0 0 0 .016.044l.005.049s.017.1.1.093a7.068 7.068 0 0 0 .928.137a10.677 10.677 0 0 0 1.431-.017a8.863 8.863 0 0 0 1.213-.18a4.762 4.762 0 0 1 1.082-.111a3.619 3.619 0 0 1 1.376.51a4.807 4.807 0 0 0 1.442.7c0-.011.371.087.371.087s.349.088.317-.207c0 .009-.016-.68.289-.939a1.07 1.07 0 0 1 .717-.248s.283.011.283.018c.59.153 1.147.251 1.18.262a3.064 3.064 0 0 0 1.857-.066c.371-.185.382-.011.382-.011a.942.942 0 0 1-.103.604ZM9.685 14.221c-.065.011-.076-.011-.076-.011c-.022-.033-.044-.06-.044-.06c-.087-.077-.043-.137-.049-.137a.231.231 0 0 0-.022-.147c-.043-.066.011-.083.006-.082a.293.293 0 0 0 .267-.224a.183.183 0 0 1 .219-.1h.268a.618.618 0 0 1 .185.005c.1.022-.022.158-.022.17a.382.382 0 0 1-.218.2c-.088.017-.1.022-.1.022a.566.566 0 0 0-.169.191c-.066.126-.1.1-.088.1c-.065 0-.082.022-.082.028c-.08.024-.075.045-.075.045m.121.076h.015c.039-.022.108-.055.108-.055l.021-.01a.545.545 0 0 0 .162-.187l.012-.019c.042-.083.192-.121.192-.121a.625.625 0 0 0 .262-.286c.073-.089.1-.159.075-.206a.111.111 0 0 0-.1-.051l-.692-.006c-.088 0-.175.067-.259.21l-.005.009c-.042.076-.089.057-.09.057c-.072-.032-.1-.262-.089-.416c0 0-.022-.071.025-.1a.2.2 0 0 1 .106-.023h.007l.222-.014c.127-.009.19-.013.221-.019a4.838 4.838 0 0 0 1.179-.277c.2-.068.365-.132.471-.174c.106-.042.166-.067.19-.081a.084.084 0 0 1 .068 0a.256.256 0 0 1 .093.152a1.325 1.325 0 0 1-.5 1.183a1 1 0 0 1-.548.1a.661.661 0 0 0-.386.094c-.119.079-.3.181-.417.249a1.758 1.758 0 0 0-.139.083c-.06.028-.126-.022-.162-.049a.252.252 0 0 0-.027-.018c-.021-.008-.021-.022-.015-.022Zm.8.126a1.178 1.178 0 0 0-.339.175s-.076.06-.081.06c-.093.038-.121-.071-.121-.071c-.038-.071 0-.071 0-.071s.077-.049.082-.049a.594.594 0 0 0 .181-.121a1.039 1.039 0 0 1 .109-.087l.1-.038l.12-.027a.219.219 0 0 1 .191-.082c.093.005.087-.017.087-.011a.928.928 0 0 1 .165-.001c.082.022.126.017.12.022c.175.022.006.093.006.093l-.328.115s-.12.054-.126.054c-.065.039-.054.017-.054.017a.775.775 0 0 0-.118.022Z"/></svg>