<svg xmlns="http://www.w3.org/2000/svg" width="1em" height="1em" viewBox="0 0 32 32"><path fill="currentColor" d="m19.718 1.626l-7.467 12.933l.558.964l-.549.95h-1.096L3.697 29.406l.557.965h14.917l.557-.965h1.114l7.458-12.92l-.557-.964h-.016l.556-.963l-7.467-12.933zm.067 1.099h.964l6.56 11.362l-.489.848H13.714l-.489-.848zm.037.57l-6.057 10.492l.452.783h12.101l.453-.783l-6.058-10.492Zm-6.095 12.834h13.12l.49.848l-6.553 11.35h-.979l-6.56-11.363zm12.591.316l-12.115.001l-.446.771l6.058 10.493h.904l6.051-10.481zm-15.087 1.127h.964l6.56 11.362l-.49.848H5.16l-.49-.848Zm.037.57L5.21 28.635l.452.783h12.102l.452-.783l-6.058-10.493Z"/></svg>