<svg xmlns="http://www.w3.org/2000/svg" width="1em" height="1em" viewBox="0 0 24 24"><path fill="currentColor" d="M13.954 17.93a1.573 1.573 0 0 0 .811-1.443a1.805 1.805 0 0 0-1.943-1.767H9.99v6.894h3.176a1.94 1.94 0 0 0 1.982-1.975a1.858 1.858 0 0 0-1.194-1.709m-2.529-2.168h1.061a.9.9 0 1 1 0 1.793h-1.061zm1.291 4.817h-1.291v-1.994l1.291-.006a1 1 0 1 1 0 2M19.89 9.241a2.1 2.1 0 0 0-1.153.342l-5.749 3.868h6.9a2.105 2.105 0 1 0 0-4.21zM7.744 18.587L3.35 14.575v7.032h1.427v-3.859l4.394 4.013v-7.034H7.744Zm7.712-.419a3.788 3.788 0 0 0 3.887 3.681a3.738 3.738 0 0 0 1.318-.279v-1.4a2.4 2.4 0 1 1 0-4.007v-1.404a3.386 3.386 0 0 0-1.318-.273a3.788 3.788 0 0 0-3.887 3.682m-4.465-4.719L5.256 9.585a2.1 2.1 0 1 0-1.151 3.864Zm1.759-8.955c.317.016.484.1.084.267a.749.749 0 0 0-.473.913l.89 6.223l2.968-6.784a2.111 2.111 0 1 0-4.028-.613Zm-4.975.621l2.961 6.778l1.045-7.3a2.106 2.106 0 1 0-4.006.522m5.525 7.674l6.013-4.072a2.1 2.1 0 1 0-3.08-2.617ZM4.687 8.717l6 4.068L7.755 6.1a2.1 2.1 0 1 0-3.068 2.617"/></svg>