<svg xmlns="http://www.w3.org/2000/svg" width="1em" height="1em" viewBox="0 0 24 24"><path fill="currentColor" d="M5.636 15.812h12.728a1.823 1.823 0 0 0 1.818-1.818V8.539a1.823 1.823 0 0 0-1.818-1.818H5.636a1.823 1.823 0 0 0-1.818 1.818v5.455a1.823 1.823 0 0 0 1.818 1.818m1.819 2.727v-.909H5.636a3.5 3.5 0 0 1-2.568-1.068A3.5 3.5 0 0 1 2 13.994V8.539a3.5 3.5 0 0 1 1.068-2.568A3.5 3.5 0 0 1 5.636 4.9h12.728a3.5 3.5 0 0 1 2.568 1.068A3.5 3.5 0 0 1 22 8.539v5.455a3.646 3.646 0 0 1-3.636 3.636h-1.819v.909zm3.181-6.363a.895.895 0 1 0-.647-.262a.877.877 0 0 0 .647.262m-2.727 0a.893.893 0 1 0-.648-.262a.877.877 0 0 0 .648.262m5.455 0a.893.893 0 1 0-.648-.262a.876.876 0 0 0 .648.262m2.727 0a.893.893 0 1 0-.648-.262a.88.88 0 0 0 .648.262"/></svg>