<svg xmlns="http://www.w3.org/2000/svg" width="1em" height="1em" viewBox="0 0 24 24"><path fill="currentColor" d="M10.236 23.906c-4.753-.72-8.658-4.216-9.848-8.816a12.55 12.55 0 0 1-.034-6.056C1.204 5.632 3.519 2.79 6.732 1.2C8.4.374 10.049-.001 12.004 0c1.188 0 2.042.105 3.078.377c4.155 1.087 7.466 4.4 8.537 8.541c.275 1.062.381 1.923.381 3.086c0 .596-.041 1.308-.098 1.698c-.773 5.308-4.92 9.46-10.198 10.211c-.834.119-2.663.115-3.468-.007M7.495 12.787c.629-.299.62-1.272-.015-1.573c-.42-.2-.929-.036-1.134.362c-.396.766.375 1.579 1.149 1.211m3.294-.025c.43-.262.576-.783.331-1.185c-.19-.314-.482-.47-.812-.437a.862.862 0 0 0-.32 1.638c.283.145.547.14.8-.015zm3.353-.045a.865.865 0 0 0-.122-1.487c-.284-.145-.547-.14-.801.015c-.596.364-.596 1.147 0 1.521c.25.157.672.135.923-.049m3.258.02c.474-.31.476-1.155.003-1.465a.957.957 0 0 0-.875-.058c-.63.299-.645 1.258-.025 1.574c.244.125.666.101.897-.05z"/></svg>