<svg xmlns="http://www.w3.org/2000/svg" width="1em" height="1em" viewBox="0 0 24 24"><path fill="currentColor" d="m19.843 13.663l-.512.064l.001.235l-.414.047l.01.869l1.316-.181l.021-.854l-.413.057zm-1.617.175l-.554.07l.002.253l-.447.07l.009.875l1.455-.202l.002-.869l-.458.059zm-1.692.251l-.553.069l.001.254l-.447.05l.009.894l1.455-.202l.002-.868l-.458.058zm-1.751.215l-.562.071l.001.257l-.455.051l.01.909l1.479-.205l.001-.883l-.465.06zm-1.767.247l-.563.071l.002.257l-.455.051l.01.909l1.478-.205l.002-.883l-.465.06zm-1.764.255l-.562.071l.001.258l-.454.051l.009.908l1.479-.205l.001-.882l-.465.059zm-1.763.247l-.563.071l.001.257l-.454.051l.01.909l1.478-.205l.002-.882l-.465.059zm-1.827.25l-.562.071l.001.257l-.454.051l.01.909l1.478-.205l.002-.882l-.466.059zM21.6 12.206l-3.921-3.085a.381.381 0 0 0-.28-.078L2.336 10.805a.381.381 0 0 0-.336.378v2.046a.381.381 0 0 0 .057.2l2.494 4.024a.381.381 0 0 0 .377.176l16.746-2.408a.381.381 0 0 0 .326-.377V13.03a1.05 1.05 0 0 0-.4-.824M5.391 16.733v-.218l.455-.065l.01.214zm14.973-1.948a.149.149 0 0 1-.128.141L6.512 16.847a.093.093 0 0 1-.1-.092v-1.328a.164.164 0 0 1 .142-.163l13.729-1.9a.125.125 0 0 1 .142.13zm1.212-2.163l-16.67 2.325h-.014A.111.111 0 0 1 4.8 14.9l-2.452-3.84a.115.115 0 0 1-.007-.111a.109.109 0 0 1 .088-.065L17.5 9.177a.11.11 0 0 1 .08.023l4.049 3.218a.115.115 0 0 1 .039.12a.112.112 0 0 1-.092.084M2.474 11.01l2.427 3.8L21.51 12.5l-4-3.183zm5.755.7l-.835-.378l.356.44l-.286.036l-.57-.708l.284-.035l.827.372l-.352-.431l.281-.035l.578.7zm.618-.079l-.582-.7l.682-.084l.129.153l-.4.05l.1.117l.39-.049l.127.152l-.39.05l.1.12l.405-.051l.131.155zM10 11.484l-.461-.542l-.27.033l-.129-.153l.82-.1l.131.152l-.268.033l.463.542zm1.252-.137a1.019 1.019 0 0 1-.874-.288c-.2-.231-.1-.4.231-.442a1.036 1.036 0 0 1 .647.132l-.2.1a.552.552 0 0 0-.326-.079c-.125.016-.2.1-.071.247a.564.564 0 0 0 .46.181c.136-.018.157-.08.109-.148l-.22.028l-.12-.138l.538-.068c.233.266.154.433-.177.475zm.757-.119l-.607-.685l.659-.082l.135.15l-.391.048l.1.114l.377-.047l.133.149l-.377.047l.1.118l.392-.05l.137.153zm1.588-.2l-.178-.119l-.358.045l.053.135l-.278.036l-.256-.725l.308-.038l.984.631zm.973-.125l-.487-.23h-.021l.242.261l-.266.034l-.623-.675l.4-.049a.64.64 0 0 1 .562.161c.112.119.049.19-.047.215l.567.238zm-1.338-.123l-.339-.228l.106.257zm.638-.394l-.07.008l.156.168l.07-.009c.115-.014.147-.046.092-.105a.26.26 0 0 0-.248-.062"/></svg>