<svg xmlns="http://www.w3.org/2000/svg" width="1em" height="1em" viewBox="0 0 128 128"><path fill="currentColor" d="M93 74H35c-.212-21.476.547-44.214 4-62a19.9 19.9 0 0 0 3-3h44l2 3h1v2h1l1 14c1.639 5.824.953 15.548 1 23Zm-26-6c2.208-12.017 2.193-38.979 0-51a12.7 12.7 0 0 0-5-1c-4.2 8.154-2.065 38.259-2 51a7.485 7.485 0 0 1 3 2Zm26 13c.186 13.43-1.824 26.776-4 38l-3 1v1h-2v1H72c-10.687 0-24.359 1.113-32-2c-4.247-9.794-4.944-25.164-5-39c8.01-1.467 19.415-1 29-1s20.987-.458 29 1m-32 8l-1 5c2.612 1.382 1.693 1.769 6 2c1.094-2.078 1.611-1.771 2-5c-1.139-1.139-.4 0-1-2z" class="cls-1"/></svg>