<svg xmlns="http://www.w3.org/2000/svg" width="1em" height="1em" viewBox="0 0 24 24"><path fill="currentColor" d="M16.472 10.351a.263.263 0 0 0-.174.174a.445.445 0 0 0-.014.141v3.559h.972v-3.888h-.643a.448.448 0 0 0-.141.014m3.451-.115A2.052 2.052 0 1 0 22 12.287a2.066 2.066 0 0 0-2.077-2.051M21 12.288a1.075 1.075 0 1 1-1.075-1.075A1.076 1.076 0 0 1 21 12.288M5.772 8.517A3.743 3.743 0 0 0 2 12.23v.059h1.431c.333 0 .44-.026.542-.135c.1-.113.089-.209.192-.474a1.692 1.692 0 0 1 3.156 0c.1.266.088.361.192.474c.104.113.209.135.541.135h1.432a3.743 3.743 0 0 0-3.714-3.772m9.016 1.834a.259.259 0 0 0-.174.174a.445.445 0 0 0-.014.141v2.06l-1.925-2.2a.538.538 0 0 0-.188-.157a.553.553 0 0 0-.242-.038h-.709v3.888h.646a.473.473 0 0 0 .14-.014a.264.264 0 0 0 .175-.175a.47.47 0 0 0 .014-.14v-2.06l1.924 2.2a.561.561 0 0 0 .188.157a.553.553 0 0 0 .242.038h.709v-3.888h-.645a.445.445 0 0 0-.141.014M7.04 12.29H4.446c-.409 0-.385-.01-.673.278l-1.384 1.383a3.742 3.742 0 0 0 1.4 1.532l1.596-1.593c.145-.145.209-.2.287-.225a.195.195 0 0 1 .14 0c.079.023.143.08.288.225l1.593 1.593a3.745 3.745 0 0 0 1.4-1.532l-1.379-1.383c-.289-.289-.265-.278-.674-.278"/></svg>