<svg xmlns="http://www.w3.org/2000/svg" width="1em" height="1em" viewBox="0 0 24 24"><path fill="currentColor" d="m5.684 15.062l-.124-.035l-.031.109l.454.11l.017-.12l-.173-.035l.02-.085a.489.489 0 0 1-.139-.035Zm.216-.537a.143.143 0 1 0 .171.141a.157.157 0 0 0-.171-.141m0-.203a.385.385 0 0 0-.416.344a.342.342 0 0 0 .227.3l.027-.082l.134.026l-.022.091a.421.421 0 0 0 .05 0a.35.35 0 1 0 0-.688zm0 .59a.251.251 0 1 1 .3-.246a.275.275 0 0 1-.3.246m5.721.727l-.253-.269a.139.139 0 0 0-.164-.027l-.304.157a.126.126 0 0 0-.07.125l.077.628a.137.137 0 0 0 .235.069l.482-.514a.12.12 0 0 0-.003-.169m3.042 1.294a.242.242 0 0 0-.241.153c-.057.109-.037.19.059.213a.281.281 0 0 0 .111 0l.022-.067a.243.243 0 0 1-.084 0c-.044-.011-.07-.044-.041-.1l.186.045a.3.3 0 0 0 .022-.037c.059-.117.041-.189-.034-.207m-.028.157l-.112-.027c.02-.034.061-.076.1-.066c.039.01.031.057.012.093m-.179-.372l-.1.189a.06.06 0 0 0-.054-.058c-.067-.016-.16.035-.222.154s-.043.191.027.208a.137.137 0 0 0 .118-.036l-.022.05l.073.018a3.09 3.09 0 0 1 .05-.1l.212-.405zm-.156.3l-.033.064c-.029.056-.071.068-.1.062c-.029-.006-.04-.057-.007-.12s.079-.105.121-.1c.042.005.046.04.019.091zm-.308-.245a.23.23 0 0 0-.244.148c-.06.114-.034.2.05.215c.084.015.172-.017.242-.15c.06-.106.039-.192-.048-.213m-.037.2c-.033.062-.081.109-.12.1c-.039-.009-.035-.066 0-.128s.076-.11.122-.1c.046.01.026.068-.002.123zm-.223-.403l-.143.169c-.045.055-.088.11-.127.161a3.48 3.48 0 0 0 .053-.179l.048-.192l-.1-.025l-.282.476l.076.018l.105-.184c.034-.059.075-.129.108-.19c-.021.062-.041.13-.056.188l-.053.2l.063.015l.155-.183c.042-.051.092-.111.134-.166a6.864 6.864 0 0 0-.095.191l-.091.19l.079.019l.228-.489zm-.611.003l-.134.174l-.047.062l.02-.068l.049-.194l-.09-.022l-.064.347v.016a.183.183 0 0 1-.075.055a.21.21 0 0 1-.057.015l-.021.084a.224.224 0 0 0 .107-.03a.889.889 0 0 0 .208-.191l.2-.226zm-.421.292a.818.818 0 0 1 .039-.084l.067-.128c.04-.076.05-.152-.047-.175a.244.244 0 0 0-.123 0l-.016.064a.178.178 0 0 1 .089-.006c.045.011.042.04.024.075a.2.2 0 0 0-.239.091c-.03.056-.019.113.038.127a.133.133 0 0 0 .106-.023l-.014.038zm-.106-.092c-.021 0-.031-.024-.014-.057a.1.1 0 0 1 .124-.041l-.026.05a.08.08 0 0 1-.087.048zm-.077-.344l-.107.143c-.028.039-.054.075-.077.111c.014-.039.026-.078.038-.121l.046-.158l-.066-.015l-.115.146c-.026.033-.055.07-.08.105l.041-.116l.054-.159l-.086-.021l-.1.371l.075.018l.1-.126a1.1 1.1 0 0 0 .078-.105a1.53 1.53 0 0 0-.038.115l-.038.141l.075.018l.274-.328zm-.53-.276l-.375.453l.084.02l.1-.12l.116.027l-.036.135l.087.021l.132-.512zm-.054.307l-.092-.022l.084-.1l.07-.093l-.032.1zm1.602-.235a.136.136 0 0 0 .117-.035l-.022.051l.073.017c.012-.026.031-.065.05-.1l.212-.405l-.083-.02l-.1.189a.062.062 0 0 0-.054-.059c-.067-.016-.16.035-.222.154s-.042.191.029.208m.057-.189c.032-.061.078-.105.121-.1c.027.007.042.039.015.089l-.034.065a.094.094 0 0 1-.1.062c-.034-.005-.036-.052-.002-.116m-.335.122a.281.281 0 0 0 .111 0l.022-.067a.221.221 0 0 1-.084 0c-.045-.01-.07-.043-.041-.1l.186.044a.284.284 0 0 0 .022-.035c.059-.113.041-.185-.034-.2a.241.241 0 0 0-.241.153c-.057.101-.037.182.059.205m.143-.3c.041.01.03.057.011.094l-.112-.027c.02-.036.061-.078.101-.069zm-.779.142l.081.019l.11-.21a.092.092 0 0 1 .087-.059c.032.008.027.044.005.085l-.108.207l.081.019l.111-.212c.026-.049.062-.063.085-.057c.023.006.028.044 0 .094l-.1.2l.081.019l.111-.212c.053-.1.034-.154-.02-.167a.14.14 0 0 0-.123.036a.063.063 0 0 0-.049-.078a.14.14 0 0 0-.117.033l.021-.048l-.071-.017l-.052.106zm-.133-.033l.094-.181c.031-.059.075-.081.112-.072l.021.007l.046-.088l-.018-.007a.132.132 0 0 0-.113.05l.029-.062l-.071-.017l-.055.11l-.126.24zm-.301-.215l.115.028l-.036.134l.087.021l.132-.511l-.1-.025l-.374.453l.084.02zm.132-.172l.07-.093l-.032.1l-.032.116l-.091-.021zm-3.059-.253a.348.348 0 0 0-.172.007l-.01.089a.236.236 0 0 1 .124-.009c.066.014.067.054.049.1a.251.251 0 0 0-.318.13a.12.12 0 0 0 .079.175a.17.17 0 0 0 .144-.034l-.012.053l.108.023a.963.963 0 0 1 .038-.116l.069-.178c.041-.105.041-.209-.099-.24m-.06.343a.1.1 0 0 1-.108.067c-.03-.007-.049-.033-.031-.079c.027-.07.1-.072.166-.058Zm-.243-.276a.118.118 0 0 1 .03.009l.047-.123a.073.073 0 0 0-.026-.008a.157.157 0 0 0-.148.07l.028-.085l-.1-.023l-.056.153l-.13.334l.12.026l.1-.251c.024-.084.078-.114.135-.102m-.369.106a.5.5 0 0 0 .024-.051c.061-.157.022-.256-.087-.28a.291.291 0 0 0-.308.215c-.059.151-.017.262.123.292a.365.365 0 0 0 .157 0l.017-.092a.341.341 0 0 1-.118 0a.1.1 0 0 1-.078-.143zm-.1-.243c.059.013.053.079.033.129l-.162-.035c.017-.051.066-.109.124-.097Zm-.388-.184a.186.186 0 0 0-.165.052a.1.1 0 0 0-.082-.106a.179.179 0 0 0-.158.047L7.708 15l-.1-.022l-.054.147l-.135.339l.118.025l.113-.289a.112.112 0 0 1 .111-.083c.047.011.046.061.023.118l-.113.287l.117.026l.116-.295c.027-.068.075-.088.108-.081c.033.007.048.061.02.131l-.108.274l.118.026l.116-.295c.055-.144.018-.218-.058-.235m-.771-.168a.337.337 0 0 0-.172.007L7.146 15a.236.236 0 0 1 .124-.009c.066.014.066.054.047.1a.253.253 0 0 0-.317.132a.119.119 0 0 0 .077.176a.176.176 0 0 0 .143-.034l-.013.052l.108.024a.885.885 0 0 1 .039-.117l.07-.178c.045-.106.045-.21-.095-.241m-.069.342a.1.1 0 0 1-.109.068c-.03-.007-.048-.033-.03-.079c.028-.071.1-.073.167-.058zM7 14.75a.2.2 0 0 1 .09.044l.065-.1a.235.235 0 0 0-.117-.054a.4.4 0 0 0-.446.287c-.079.2-.031.358.156.4a.336.336 0 0 0 .147 0l.025-.107a.289.289 0 0 1-.109 0c-.112-.025-.152-.121-.091-.273c.061-.152.18-.219.28-.197m10.067 6.594l4.514-16.638a.33.33 0 0 0-.267-.413L7.009 2h-.027a.171.171 0 0 0-.164.123L2.146 17.91a.33.33 0 0 0 .192.4l1.332.544a.276.276 0 0 0 .051.016l12.814 2.94c.208.053.47-.244.532-.466m-1.832.092a.409.409 0 0 1-.1-.012L2.589 18.4a.411.411 0 0 1-.3-.517l4.7-15.532a.213.213 0 0 1 .235-.151l12.693 1.957a.408.408 0 0 1 .283.183a.413.413 0 0 1 .05.332l-4.621 16.464a.41.41 0 0 1-.394.3m6.312-17.11a.4.4 0 0 1 .059.071a.413.413 0 0 1 .052.33l-4.515 16.638c-.065.234-.316.53-.558.53a.271.271 0 0 1-.069-.008l-5.222-1.2l5.223 1.3a.747.747 0 0 0 .79-.514l4.551-16.545c.092-.322-.017-.528-.311-.602M8.224 8.309c-.091.266-.075.492.094.521c.15.026.3-.15.379-.379c.075-.213.05-.4-.107-.431a.378.378 0 0 0-.366.289m11.451-3.946L7.524 2.413a.365.365 0 0 0-.407.256L2.632 17.716a.365.365 0 0 0 .264.458l12.114 2.947a.364.364 0 0 0 .437-.255l4.521-16.044a.365.365 0 0 0-.293-.459m-11.216.394l.029-.15a.093.093 0 0 1 .086-.075a.058.058 0 0 1 .055.075l-.029.15a.091.091 0 0 1-.087.074a.059.059 0 0 1-.054-.074m.027.225a.425.425 0 0 1 .41.549a.689.689 0 0 1-.627.548a.428.428 0 0 1-.41-.548a.68.68 0 0 1 .627-.549m.682-.051l-.122.106a.069.069 0 0 1-.1 0a.081.081 0 0 1 .022-.106l.122-.106a.09.09 0 0 1 .053-.025a.059.059 0 0 1 .049.023a.082.082 0 0 1-.024.108m.1.525a.057.057 0 0 1 .054.076a.093.093 0 0 1-.087.073H9.09a.057.057 0 0 1-.053-.076a.093.093 0 0 1 .087-.073Zm.09 1.631l-.109.313a1.219 1.219 0 0 0-.149-.017a.833.833 0 0 0-.707.5a.5.5 0 0 1 .4-.122c.266.046.387.322.246.73a.824.824 0 0 1-.825.629c-.4-.067-.472-.473-.289-.973c.175-.468.622-1.201 1.43-1.06ZM9.807 5.5a.192.192 0 0 0-.112.034l.009-.1a.253.253 0 0 1 .163-.038c.106.017.12.115.079.224a.726.726 0 0 1-.254.293l-.064.048l.186.028l-.042.111l-.318-.049l.032-.08l.088-.071a.789.789 0 0 0 .269-.283c.023-.061.018-.117-.036-.117m.377.059a.184.184 0 0 0-.111.034l.008-.1a.248.248 0 0 1 .162-.038c.107.017.123.115.083.224a.718.718 0 0 1-.251.293l-.063.048l.187.028l-.041.109l-.318-.049l.03-.08l.087-.071a.788.788 0 0 0 .267-.283c.02-.059.015-.111-.04-.12zm.667 1.791c.4.07.412.573.233 1.14c-.214.675-.557 1.024-.929.962c-.412-.07-.424-.574-.233-1.144c.207-.626.544-1.03.929-.963Zm-.376-1.6l.035-.1a.277.277 0 0 1 .109-.143a.155.155 0 0 1 .1-.028l.071.011a.1.1 0 0 1 .074.056a.192.192 0 0 1 0 .16l-.034.1a.263.263 0 0 1-.108.143a.152.152 0 0 1-.105.028l-.072-.011a.1.1 0 0 1-.075-.056a.19.19 0 0 1 .005-.16m.864 0a.138.138 0 0 0-.074-.035c-.085-.013-.18.053-.237.218c-.057.165-.021.244.073.259a.214.214 0 0 0 .092-.007l-.022.107a.244.244 0 0 1-.124.008c-.158-.023-.2-.175-.125-.376c.082-.238.239-.34.375-.319a.161.161 0 0 1 .1.042zm.814 1.82c.407.07.426.573.258 1.14c-.2.675-.537 1.024-.912.962c-.415-.069-.438-.574-.258-1.144c.195-.621.524-1.028.912-.958m-1.164 2.793a.1.1 0 0 1 .03.123a.141.141 0 0 1-.16.095a.117.117 0 0 1-.073-.038l.042-.067a.106.106 0 0 0 .059.036a.046.046 0 0 0 .054-.03c.009-.022 0-.036-.022-.058a.1.1 0 0 1-.034-.118a.141.141 0 0 1 .151-.1a.114.114 0 0 1 .065.032l-.041.065a.089.089 0 0 0-.048-.028a.043.043 0 0 0-.049.029c-.008.024-.001.036.026.059m-.271-.122c-.021 0-.057.012-.079.067l-.083.215l-.078-.013l.1-.253c.017-.042.029-.077.04-.109l.067.012l-.015.049a.128.128 0 0 1 .106-.042c.053.009.077.062.038.163l-.086.222l-.078-.013l.082-.211c.017-.044.019-.082-.014-.087m-1.187.059a.121.121 0 0 1-.106.044c-.066-.011-.083-.094-.04-.2c.043-.106.131-.182.193-.172a.06.06 0 0 1 .054.055l.077-.2l.077.013l-.165.419l-.038.1l-.068-.011l.016-.052Zm-.276-.3c-.021 0-.058.012-.08.067l-.085.215l-.077-.013l.1-.253c.017-.042.029-.077.041-.109l.067.012l-.016.049a.128.128 0 0 1 .106-.042c.053.009.076.062.036.163l-.087.222l-.078-.013l.084-.211c.019-.049.022-.087-.011-.092Zm-.368.208a.115.115 0 0 1-.1.032c-.054-.009-.068-.065-.045-.124A.18.18 0 0 1 8.961 10c.014-.036.015-.065-.027-.072a.145.145 0 0 0-.082.012l.01-.065a.205.205 0 0 1 .113-.013c.091.015.087.091.055.17l-.053.133a.792.792 0 0 0-.029.086l-.07-.011l.01-.039Zm-.361-.175a.211.211 0 0 1-.078.1a.22.22 0 0 1-.163.023a.6.6 0 0 1-.083-.021l.2-.492a.455.455 0 0 1 .105.007a.131.131 0 0 1 .1.05a.108.108 0 0 1 0 .1a.159.159 0 0 1-.107.1a.1.1 0 0 1 .026.128zm.1-.1l.043-.113l.066.011l-.022.063a.115.115 0 0 1 .1-.059h.017l-.037.091l-.019-.005c-.035-.006-.073.019-.1.081L8.6 10.2l-.077-.013Zm1.341-.042l.078.013l-.2.5l-.078-.013zm-.248-2.134c.118.02.166.137.116.286a.274.274 0 0 1-.287.216c-.126-.021-.162-.148-.115-.286a.281.281 0 0 1 .286-.216m-.231 1.312a.276.276 0 0 1-.291.216c-.128-.021-.166-.148-.118-.285a.286.286 0 0 1 .291-.217c.12.017.168.137.118.286m-1.472.716c-.022 0-.054.014-.075.064l-.088.22l-.076-.013l.086-.214c.018-.043.021-.079-.009-.084c-.03-.005-.057.017-.077.066l-.088.218l-.075-.013l.1-.253l.042-.109l.066.011l-.016.049a.125.125 0 0 1 .1-.042a.061.061 0 0 1 .05.073a.13.13 0 0 1 .11-.046c.051.009.072.06.03.165l-.089.22l-.076-.013l.083-.205c.03-.052.032-.088.002-.094m-.76.106a.078.078 0 0 0 .026 0l-.029.074a.142.142 0 0 1-.055 0c-.083-.014-.048-.1-.031-.145l.068-.167l-.035-.006l.029-.071l.038.007l.027-.067l.084-.016l-.038.1l.064.011l-.029.071l-.064-.011l-.064.158c-.018.038-.014.058.009.062M7.068 9.7a.1.1 0 0 1 .027.123a.143.143 0 0 1-.161.095a.114.114 0 0 1-.072-.038l.043-.067a.1.1 0 0 0 .058.036a.047.047 0 0 0 .055-.03c.009-.022 0-.035-.021-.058a.1.1 0 0 1-.031-.118a.145.145 0 0 1 .153-.1a.107.107 0 0 1 .064.032l-.042.065a.086.086 0 0 0-.047-.028a.044.044 0 0 0-.05.029c-.008.027-.002.039.024.059m.293.091c.049-.121.136-.18.215-.167c.079.013.1.1.056.208c-.055.138-.148.18-.213.169c-.065-.011-.106-.089-.058-.207Zm.764-3.34l.029-.15a.1.1 0 0 1 .084-.076a.058.058 0 0 1 .054.076l-.029.15a.092.092 0 0 1-.085.073a.057.057 0 0 1-.053-.07Zm.775-.215a.067.067 0 0 1-.1 0l-.079-.106a.068.068 0 0 1-.01-.053A.093.093 0 0 1 8.8 6a.054.054 0 0 1 .045.022l.078.106a.083.083 0 0 1-.023.108M7.9 4.8a.054.054 0 0 1 .047.023l.081.106a.082.082 0 0 1-.02.106a.069.069 0 0 1-.1 0l-.081-.106a.067.067 0 0 1-.011-.054A.093.093 0 0 1 7.9 4.8m-.082 1.225a.082.082 0 0 1-.022.1l-.119.106a.067.067 0 0 1-.1 0A.082.082 0 0 1 7.6 6.13l.119-.106A.078.078 0 0 1 7.769 6a.054.054 0 0 1 .049.025m-.384-.5a.09.09 0 0 1 .085-.073h.144a.058.058 0 0 1 .055.076a.091.091 0 0 1-.085.073h-.144a.058.058 0 0 1-.055-.072ZM7.428 7.16l-.361.132l.037-.3l.506-.182l.276.049L7.127 8.9L6.8 8.846l.636-1.685Zm-.72 2.64c.025.005.058-.018.075-.059l.091-.223l.077.013l-.1.251l-.043.111l-.067-.011l.016-.049a.125.125 0 0 1-.106.041c-.055-.009-.074-.06-.03-.169l.089-.216l.077.013L6.7 9.7c-.022.058-.024.094.008.1m-.377-.248c.073-.174.2-.248.3-.23a.128.128 0 0 1 .074.033l-.047.076a.1.1 0 0 0-.052-.031c-.066-.011-.142.037-.192.158c-.05.121-.025.181.047.194a.166.166 0 0 0 .071 0l-.021.08a.221.221 0 0 1-.1 0c-.111-.019-.141-.132-.08-.281Zm3.526 5.474l-.411 1.353a.454.454 0 0 1-.536.311l-3.931-.9a.454.454 0 0 1-.334-.576l.407-1.324a.455.455 0 0 1 .532-.31l3.935.866a.455.455 0 0 1 .338.579zm.2-4.779c-.028.071-.011.117.034.125a.112.112 0 0 0 .052 0l-.02.074a.17.17 0 0 1-.077 0c-.086-.014-.114-.092-.069-.207a.223.223 0 0 1 .228-.166a.124.124 0 0 1 .055.023l-.041.072a.074.074 0 0 0-.041-.02c-.051-.01-.098.034-.123.098zm.165.03c.048-.122.134-.181.213-.168c.079.013.1.1.06.209c-.053.138-.145.179-.21.168c-.065-.011-.111-.092-.065-.21zm5.246 5.974l-.413 1.349a.454.454 0 0 1-.536.311l-3.931-.9a.455.455 0 0 1-.333-.577l.406-1.323a.456.456 0 0 1 .533-.311l3.935.867a.454.454 0 0 1 .337.583zm.86-1.787a2.534 2.534 0 0 1-.214.009a4.226 4.226 0 0 1-3.3-2.089a5.1 5.1 0 0 1 .048-4.789a6.15 6.15 0 0 1 .455-.829a6.617 6.617 0 0 0-2.549-2.272a13.3 13.3 0 0 0-2.274-.882l.018-.077a13.407 13.407 0 0 1 2.292.889A6.717 6.717 0 0 1 13.363 6.7a6.63 6.63 0 0 1 2.4-2.12l.037.07a6.532 6.532 0 0 0-2.384 2.119c.167.234.339.492.515.777l-.067.042a15.114 15.114 0 0 0-.493-.75a5.9 5.9 0 0 0-.433.792a5.027 5.027 0 0 0-.053 4.716a4.041 4.041 0 0 0 3.438 2.043a2.6 2.6 0 0 0 .47-.084l.021.076a2.571 2.571 0 0 1-.488.082zm.7-1.1a3.225 3.225 0 0 1-.963.154c-1.908 0-3.148-1.85-2.761-4.117s2.284-4.116 4.222-4.116a2.666 2.666 0 0 1 1.57.49zM8.4 9.919l-.029-.005l-.062.157a.123.123 0 0 0 .029.007a.1.1 0 0 0 .11-.067a.06.06 0 0 0-.048-.092m.123-.129c.02-.049 0-.07-.037-.076a.12.12 0 0 0-.036 0l-.05.13l.028.005a.089.089 0 0 0 .095-.059m.394.326l.021-.052a.091.091 0 0 0-.111.05c-.014.035 0 .053.017.056a.074.074 0 0 0 .073-.054m-1.468-.183c.037.006.078-.045.1-.109c.022-.064.032-.12-.008-.126c-.04-.006-.083.052-.1.108s-.029.121.008.127m3.135-4.065l.073.012a.081.081 0 0 0 .052-.015a.128.128 0 0 0 .054-.071l.035-.1a.1.1 0 0 0 0-.08a.051.051 0 0 0-.037-.028l-.072-.011a.074.074 0 0 0-.052.014a.132.132 0 0 0-.054.071l-.035.1a.09.09 0 0 0 0 .079a.049.049 0 0 0 .036.029M11.6 9.356c.16.027.319-.219.464-.7c.139-.462.149-.747-.012-.775c-.161-.028-.317.207-.466.694c-.149.487-.142.755.014.781m-1.289 1.058c.037.007.078-.044.1-.108c.022-.064.029-.12-.01-.127c-.039-.007-.083.053-.1.108s-.027.121.01.127m-.05-1.283c.158.026.322-.219.476-.7c.148-.462.165-.747 0-.775c-.165-.028-.32.207-.48.693c-.16.486-.15.756.004.782M9.563 10.2l.026-.067c.02-.052 0-.083-.021-.087c-.021-.004-.079.041-.1.1c-.021.059-.021.113.015.119c.036.006.057-.009.08-.065"/></svg>