<svg xmlns="http://www.w3.org/2000/svg" width="1em" height="1em" viewBox="0 0 24 24"><path fill="currentColor" d="M16.245 8.251a4.592 4.592 0 0 1-5.757 3.126a4.66 4.66 0 0 1-3.021-3.008a2.263 2.263 0 0 0-.787 1.685v11.067a.924.924 0 0 0 .914.934h8.672a.924.924 0 0 0 .914-.934V10.054a2.265 2.265 0 0 0-.935-1.803m-8.65-.173a4.415 4.415 0 0 0 5.518 3.037a4.483 4.483 0 0 0 3-3.134V7.8a4.732 4.732 0 0 0 .126-1.073a4.432 4.432 0 1 0-8.848-.5a3.73 3.73 0 0 0 0 .436a4.513 4.513 0 0 0 .157 1.2a1.056 1.056 0 0 0 .048.215m4.21-4.357a2.962 2.962 0 0 1 2.93 2.94a2.735 2.735 0 0 1-.1.784a1.149 1.149 0 0 1-.052.182a2.9 2.9 0 0 1-3.7 1.877a2.949 2.949 0 0 1-1.838-1.877a1.382 1.382 0 0 0 0-.182a3.12 3.12 0 0 1-.147-.784a2.951 2.951 0 0 1 2.908-2.94M9.485 7.689a2.512 2.512 0 0 0 3.285 1.45a2.561 2.561 0 0 0 1.419-1.45l.062-.182a2.724 2.724 0 0 0 .116-.827a2.536 2.536 0 1 0-5.071 0a2.4 2.4 0 0 0 .125.784a.632.632 0 0 0 .064.225"/></svg>