<svg xmlns="http://www.w3.org/2000/svg" width="1.42em" height="1em" viewBox="0 0 250 177"><path fill="currentColor" d="M160 45c-2.476-.722-1.616-.514-3-2h-1v-2l-2-1v-1c-4.153-2.852-10.847-1.952-16-1c-3.448 5.856-5.987 4.682-6 15c1.973 1.727.852 2.357 2 4c1.371 1.962 5.619 3.926 8 5a20.064 20.064 0 0 1-2-8c2.731-1.584 2.446-2.742 7-3c1.139 1.139 0 .4 2 1c1.081 5.3 1.2 5.821-1 10h2v-1c5.111-1.137 8.52-5.179 9-11h2c-.065 7.073-1.773 5.955-4 10l-2 6c-2.435 4.555-6.205 8.829-7 15a19.166 19.166 0 0 0 7 1v-1h3l2-3h1v-2l4-3v-2l3-2v-2l3-2v-2h1l2-3h2l2-3h2v-1h3v-1l13 1v1h2v1h3l2 3c7.506 5.351 9.3 11.159 7 23l-3 1c.246-7.953-3.087-15.547-9-17c-1.593-1.485-5.892-1.092-9-1l-6 10l-1 5c-1.557 3-3.458 4.547-4 9c5.192 2.971 3.485 8.671 3 15l-5 4v1c-.224.129-3.509.793-4 1v2c5.538 2.844 9.075 6.365 9 15c-2.36 1.924-3.955 5.869-7 7c-4.639 1.723-7.671-2.8-11 0c4.323 2.424 10.637 16.186 6 21c-.737 4-3.179 7.066-7 8c-4.131 4.923-12.512 2.2-18 1l-6-7h2c.992 1.081 9.932 4.216 13 3v-1c2.6-1.3 1.21.2 3-2h1v-3c1.348-3.806-.056-4.918-1-9c-2.531-1.376-3.817-3.18-7-4c-2.934 4.943-12.68 11.309-20 12v-3h1v-1l6-1v-1h2v-1h2l1-2h2l3-4c4.769-4.7 8.629-5.447 9-15l-3-1c-2.428-2.289-13.047-3.026-18-3v-1h1c2.072-2.222 4.156-1.647 7-3v-1h3v-1h2v-1c3.3-1.332 3.669.633 6-2c-7.361-3.1-14.684-5.754-18-13h2c2.227 2.248 9.377 3.01 14 3v-3l-12-10h-3v-1h-2v-1c-15.47-5.72-33.124 5.51-38 14h10v-1l5-1c-1.455 5.722-11.16 11.414-18 12v2c6.777.155 14.9 4.608 20 7v1h-10c-1.1 1-8.977 2.634-11 3c.363 12.039 13.467 25.479 25 26v2c-3.518-.473-3.206-.344-7-1v-2l-4-1v-1h-3l-1-2h-2v-1l-5-3v1c-3.744 1.713-3.435 2.887-6 5a53.584 53.584 0 0 0 1 11c3.1 1.163 8.434 1.046 13 1c1.354-1.587 2.169-1.737 5-2v1l-5 4v1h-2l-1 2H87c-1.4-1.654-3.457-2.476-6-3c-1.081-2.5-2.99-6.312-5-8v-10h1l2-6l2-1l1-4H71l-5-6v-8l5-6h2v-1c2.191-1.362 1.4.436 3-2h-1v-1h-3l-1-2h-2v-1c-1.483-1.354-1.361-.494-2-3c-1.979-1.9-.025-.523-1-3c-2.879-7.312 2.053-8.91 3-15c-1.943-1.8-.85-1.9-2-4h-1v-2h-1v-2h-1v-2h-1v-3h-1v-2h-1v-2l-3-2l-1-2h-6a16.663 16.663 0 0 1-7 4l-1 3h-1v2h-1l-1 10h-2c-.711-3.337-3.873-8.877-2-14c3.967-10.85 12.7-17.246 28-17c1.561 1.819 1.986.86 4 2v1h2v1a8.057 8.057 0 0 0 4 2v2c3.435 2.063 2.9 3.046 5 6l3 2v2l3 2v2l2 1c1.667 2.3-1.07 1.8 3 3c1.593 1.485 5.892 1.092 9 1c-.174-5.2-2.2-6.787-4-10v-2l-2-1v-3h-1v-2h-1v-2h-1l-4-11h3c.383 5.9 3.705 10.816 10 11v-1c-1.759-1.5-1.9-2.7-2-6c1.139-1.139.4 0 1-2a34.622 34.622 0 0 1 7-1c1.339 2.523 1.99 3.5 2 8a3.983 3.983 0 0 0-2 2h3c1.081-1.341 2.8-1.8 4-3s1.664-2.915 3-4a60.689 60.689 0 0 0-1-12l-6-5h-5c-.22-.045-.346-1.3-2-1c-2.3.418-5.317 2.4-8 3c-1.192 2.213-2.33 2.988-3 6h-3c.784-3.849 4.952-8.612 8-10l6-1v-1h2v-1h3v-1l4-1v-1h4v-1c5.278-1.559 22.959.665 26 2v1l4 1v1h3v1c5.307 2.171 10.474 2.138 12 8h1z" class="cls-1"/></svg>