<svg xmlns="http://www.w3.org/2000/svg" width="1em" height="1em" viewBox="0 0 24 24"><path fill="currentColor" d="M13.427 18.776v.288h.142v-.315zm-.107.288v-.268l-.153.028v.24zm.695 1.887a.306.356 0 0 1-.306.356a.306.356 0 0 1-.306-.356a.306.356 0 0 1 .306-.356a.306.356 0 0 1 .306.356m-2.605-1.626h.142v.533h-.142zm-.26 0h.153v.533h-.153zm5.621-.303a.4.4 0 0 0-.1-.288l-.055-.026h-.013c-.063 0-.119.068-.148.166l.316.172zm.779 1.664c.1 0 .178-.145.178-.316s-.082-.315-.178-.315c-.096 0-.177.144-.177.315s.081.316.177.316m-.269-.659h-.089v-.011a.333.333 0 0 0-.141.308c0 .171.082.316.178.316a.144.144 0 0 0 .112-.073a.553.553 0 0 1-.034-.2a.528.528 0 0 1 .057-.248a.23.23 0 0 0-.083-.092m-3.572.498a.36.36 0 0 1 .291.155a.295.295 0 0 0-.581 0a.36.36 0 0 1 .29-.155m-.558-2.491v.134l.697-.195l.206-.046l.002-.005l-.852.028zm.97-1.156l.124.037l.077.042l-.174-.463l-1.465-.4l-.018-.152l1.421.39l-.386-1.022l-1.1.125l-.121-1.016l.368-.063l.224-.076l.023-.12l-1.409-.374l-.362.04l-.15.029v.057l.023.093l.765.275l.122 1.215l-.693.079l-.043.006l.766.21l.015.151l-.932-.255v.207a.143.143 0 0 0 .1.137l.865.26l.034.335l.092.03l.011.374l.334.1zm-.721-.218l-.636.087l-.034-.289zm-7.731-5.293l1.764-.051l-.214-.511l-1.674.057zm1.313-.467l.145.341l-1.192.034l-.084-.337zm-1.139 5.968v-.114l-.108-.129v.243zm3.209.504v-.264l-.23.02v.275zm-2.268.283v-.327l-.219.03v.323zm-.8-.95l.35.476l-.051-2.106v-1.357l-.596-.579l-.002 3.159l.284.387l.015.018zm-.21-3.665l.606.461l2.775-.118l-.786-.438Zm3.429 1.709v-1.113l-2.778.12v1.168zm-.523 2.249l.064-.006l.459-.044v-2.057l-2.776.175l.04 2.147l.379-.037l.08-.011v.003zM6.675 7.5H2.887l.059 3.359l3.729-.575zm-.192 2.679l-3.351.516l-.053-3.021l3.4-.007zM2 2.106v19.788h20V2.106Zm19.752 19.539H2.248V2.355h19.5Zm-5.789-3.043l.107.058h.449l-.065-.031zm2.189.245a.675.675 0 0 0-.627-.47h-.753l.031.27v.153h-.005a.562.562 0 0 1 .044.226v.06l.11.061a.514.514 0 0 0 .026-.162a.365.365 0 0 0-.117-.3h.666a.39.39 0 0 1 .362.272l.936 2.668c0 .008 0 .016.006.023h.285a.46.46 0 0 0-.025-.131zm-11.896.104a.436.436 0 0 1 .394-.269h4.737l1.016-.3H6.65a.72.72 0 0 0-.65.439l-1.166 2.66a.446.446 0 0 0-.038.164h.284a.162.162 0 0 1 .01-.034zM18.152 9.4a3.187 3.187 0 0 0-.437-.172a.49.49 0 0 0-.145-.016V7.42L14 7.5v2.791l1.986.319a3.107 3.107 0 0 0-1.229.6a1.934 1.934 0 0 0-.126.112H10.65v-1.034h3.232V7.5H6.767v2.791h3.162v1.027H7.586l.058.137l-2.085.06l-.049-.2h-.852l-.729.459v.147h10.237a2.134 2.134 0 0 0-.054.107H3.93v.215h.7v5.4l-.322.621h.644l.576-1.288l-.328-.018l-.045-4.723l8.867-.007a6.6 6.6 0 0 0-.165 2.93c0 .016.014.13.045.3l.57 1.512h-.1v.161l-.087.014l-.019.732l-.094.006l-.034.132l-.267.059l-2.555.714l-.032.39h.153l-.026-.138l2.517-.472l.278.105l-.52 1.227v.408l.194.027l.034-.247v-.007l.563-1.35l.385-.071l2.321 1.1l.074.159h.2l-.029-.391L15.5 18.47l.981.054l.215.105l-.04-.328l-1.926-.294l-.021-.12h-.081l-.023-.725l-.088-.03v-.106a2.176 2.176 0 0 0 .205.243a1.168 1.168 0 0 0 .339.246v.006L15.4 18l.633.1l-.378-.473v-.032a3.743 3.743 0 0 0 .725-.193a2.494 2.494 0 0 0 1-.467c.311-.321.25-.751.158-1.4a8.505 8.505 0 0 1-.111-1.606a5.837 5.837 0 0 1 .473-2.09c.041-.1.077-.192.106-.275a.081.081 0 0 0 .018.019c.058.047.139-.027.3-.034a.447.447 0 0 1 .356.115c-.009.045-.562-.122-.678.069c-.03.049-.031.125 0 .149c.031.024.131-.051.264-.092c.218-.066.458.017.46.069c0 .079-.532.052-.678.357c-.048.1-.053.23-.012.253c.041.022.118-.075.23-.173a1.052 1.052 0 0 1 .575-.3c.034.049-.66.475-.575.7a.188.188 0 0 0 .173.1a.265.265 0 0 0 .176-.11c-.051.084-.1.187-.061.248c.027.045.076.026.126.08c.078.084.036.2.053.255a.648.648 0 0 1-.474.12a3.3 3.3 0 0 0-.437-.171c-.146-.032-.193-.014-.219.01a.166.166 0 0 0 0 .22c.058.047.139-.027.3-.035a.456.456 0 0 1 .357.115c-.01.046-.563-.121-.679.069c-.03.05-.031.126 0 .15c.031.024.131-.051.265-.092c.217-.067.457.017.46.069c0 .079-.532.05-.679.356c-.048.1-.053.232-.011.253c.042.02.117-.074.23-.172a1.046 1.046 0 0 1 .575-.3c.034.049-.661.475-.575.7a.125.125 0 0 0 .022.037v1.91a3.635 3.635 0 0 1 .04.529a.267.267 0 0 0 .219.255a6.569 6.569 0 0 0 1.78.066a.308.308 0 0 0 .273-.3v-2.5a.319.319 0 0 0-.321-.32l-.148.023a1.205 1.205 0 0 0 .454-.713a.374.374 0 0 0 .255.1c.167-.014.273-.221.311-.2c.038.02-.105.2-.058.39c.043.176.23.3.288.266c.058-.035-.022-.178.069-.276c.05-.055.1-.036.126-.081c.037-.061-.01-.164-.061-.248a.265.265 0 0 0 .176.11a.188.188 0 0 0 .173-.1c.085-.227-.609-.653-.575-.7a1.052 1.052 0 0 1 .575.3c.112.1.188.194.23.173c.042-.021.036-.154-.012-.253c-.146-.3-.682-.278-.678-.357c0-.052.242-.135.46-.07c.133.042.22.127.264.093c.044-.034.03-.1 0-.15c-.116-.19-.669-.023-.678-.068a.447.447 0 0 1 .356-.115c.16.007.241.08.3.034a.164.164 0 0 0 0-.218c-.026-.026-.073-.044-.218-.012a3.039 3.039 0 0 0-.437.173a.714.714 0 0 1-.506-.138a4.342 4.342 0 0 0-.138-.07c.152-.213.261-.483.17-.623c-.158-.243-.852.009-.886-.115c-.019-.073.2-.238.439-.273a.41.41 0 0 0 .311.158a.291.291 0 0 0 .15-.065a.85.85 0 0 0 .111.055a.417.417 0 0 0-.008.206c.043.175.23.3.288.264c.058-.036-.022-.178.069-.276c.05-.055.1-.035.126-.08c.037-.061-.01-.165-.061-.25a.263.263 0 0 0 .176.112a.189.189 0 0 0 .173-.1c.085-.226-.609-.653-.575-.7a1.066 1.066 0 0 1 .575.3c.112.1.188.194.23.172c.042-.022.036-.154-.012-.253c-.146-.3-.682-.278-.678-.357c0-.052.242-.135.46-.07c.133.042.22.128.264.093c.044-.035.03-.1 0-.15c-.116-.19-.669-.023-.678-.068a.447.447 0 0 1 .352-.111c.16.007.241.08.3.034a.164.164 0 0 0 0-.218c-.026-.026-.073-.043-.218-.012a3.3 3.3 0 0 0-.437.173a.71.71 0 0 1-.506-.138a5.461 5.461 0 0 0-.472-.22a.3.3 0 0 0-.022-.228c-.158-.243-.852.009-.885-.115c-.022-.077.226-.26.482-.278a.66.66 0 0 1 .116 0c.272.026.4.19.46.149c.045-.031.05-.175-.023-.253c-.217-.226-1.1.148-1.518.368a.709.709 0 0 1-.508.138m-11.178.667v-2.4h6.685v2.4ZM8 11.693l.265-.253h3.191l.242.253zm4.693 0c-.052.114-.366.131-.449 0a.205.205 0 0 1-.011-.182a.192.192 0 0 1 .044-.063a.038.038 0 0 1 .017-.008l.047-.006l.093.1l.04-.021l-.077-.083l.062-.01h.007a.264.264 0 0 1 .158.078c.043.04.094.132.066.195zm6 .879l.007-.011zm2.317.819L21 13.38zm0-2.372l-.01-.011zm-3.44-1.55a1.107 1.107 0 0 1 .226-.048a.451.451 0 0 1 .356.115c-.008.038-.385-.069-.582 0zm0 .27a.963.963 0 0 1 .168-.076c.218-.067.458.017.46.069c0 .071-.437.056-.628.28zm-3.382.426V7.672l3.191-.072v2.972a1.964 1.964 0 0 0-.233-.045a2.7 2.7 0 0 0-.356-.022a3.4 3.4 0 0 0-.349.019zm-.072 4.845l-.018-.216h.074a.446.446 0 0 0 .075-.01a.676.676 0 0 1 .238-.005l.054.01l.013.172c0 .013.01.11.032.257l-.439.024a4.01 4.01 0 0 1-.029-.232m.405 1.484a3.264 3.264 0 0 1-.063-.134l.426-.083c.021.043.042.086.065.128zm1.153-.24l-.552.115a1.712 1.712 0 0 1-.074-.125l.08-.015l.552-.108l1.283-.252a.912.912 0 0 1-.034.124zm.874.184c-.085.05-.187.1-.314.156a1.279 1.279 0 0 1-.528.159h-.039a.592.592 0 0 1-.208-.054l.209-.05zm-1.823-1.231l-.006-.035l.1.01h.255zm1.921.385a.868.868 0 0 0 .033-.327a.684.684 0 0 1-.1.309l-.4-.109a.608.608 0 0 0 .269-.2a.6.6 0 0 0 .093-.317l.045-.014l.061-.021l.051-.02c.05-.019.094-.037.136-.055l.089-.038l.01.1l.014.139a4.359 4.359 0 0 1 .037.643zm.247-1.647l-.048.015a4.191 4.191 0 0 1-.159.048l-.095.027l-.024.007l-.069.017a3.95 3.95 0 0 1 .143-.693c.062-.22.1-.365.031-.508a.435.435 0 0 0-.331-.223a.708.708 0 0 0-.113-.01a.937.937 0 0 0-.505.163a1.046 1.046 0 0 0-.213.186a1.83 1.83 0 0 0-.354 1.118v.175h-.133v-.072a3.2 3.2 0 0 1 .159-1.312a1.373 1.373 0 0 1 .227-.378a1.1 1.1 0 0 1 .962-.386a.632.632 0 0 1 .27.108a.509.509 0 0 1 .164.19a.5.5 0 0 1 .054.23c.059-.2.076-.3.018-.4a.435.435 0 0 0-.236-.183a.793.793 0 0 0-.14-.038h-.021a1.021 1.021 0 0 0-.139-.01a1.119 1.119 0 0 0-.152.01a1.289 1.289 0 0 0-1 .707a3.007 3.007 0 0 0-.214 1.468v.073h-.321v-.068a3.876 3.876 0 0 1 .326-1.983a1.994 1.994 0 0 1 .128-.2c.027-.037.056-.072.085-.107l.013-.014a1.661 1.661 0 0 1 .64-.443a1.382 1.382 0 0 1 .715-.09a.785.785 0 0 1 .6.4a1.076 1.076 0 0 1-.032.838A5.027 5.027 0 0 0 16.9 13.9zm.317 2.73a1.921 1.921 0 0 1-.85.471a2.38 2.38 0 0 1-.7.189h-.06a.939.939 0 0 1-.414-.092a1.033 1.033 0 0 1-.283-.2a1.149 1.149 0 0 1-.075-.079a2.572 2.572 0 0 1-.077-.094l.365-.087l.087-.02a.682.682 0 0 0 .168.127a.569.569 0 0 0 .294.06a1.774 1.774 0 0 0 .559-.165a1.58 1.58 0 0 0 .664-.374a.716.716 0 0 0 .042-.059l.43-.1V15.9l-.32.067v-.116l.33-.065l-.336-.091c-.009-.13-.026-.274-.044-.435c-.026-.221-.059-.5-.072-.807v-.027a.228.228 0 0 1 .058-.1a.24.24 0 0 1 .274-.074l.057.017v.051a9.2 9.2 0 0 0 .082.931c.084.614.139 1.049-.179 1.424m.444-4.381a5.282 5.282 0 0 0-.324 1.434v.04l-.036.018a2.588 2.588 0 0 1-.273.115l-.1.037v-.107a5.674 5.674 0 0 1 .318-1.588c.116-.353.18-.547.071-.733a.767.767 0 0 0-.563-.325a1.478 1.478 0 0 0-.236-.018a1.96 1.96 0 0 0-.879.215a1.918 1.918 0 0 0-.479.345a1.714 1.714 0 0 0-.169.194a1.852 1.852 0 0 0-.074.107a1.876 1.876 0 0 0-.114.2A4.133 4.133 0 0 0 14.5 14.2v.077h-.077a4.5 4.5 0 0 1-.306-.023l-.061-.006v-.061a4.554 4.554 0 0 1 .265-1.954c.029-.068.061-.135.1-.2c.019-.036.039-.072.06-.107a2.242 2.242 0 0 1 .393-.486q.067-.063.141-.12a2.552 2.552 0 0 1 1.824-.521a1.161 1.161 0 0 1 .866.479c.195.313.086.622-.051 1.016m1.446 2.511h-.15V14.7a.42.42 0 0 0 .15-.074zm.186-.485a.159.159 0 0 0 0-.038a.322.322 0 0 0-.184-.211a1.739 1.739 0 0 1-.15-.091a.137.137 0 0 1-.068-.112a.188.188 0 0 1 .068-.122a.426.426 0 0 1 .15-.09a.286.286 0 0 1 .207-.007c.216.092.12.546.239.642c-.085.01-.173.021-.266.029zm-.3-1.679c.02-.013.06.04.119.094a.387.387 0 0 0 .143.092a1.539 1.539 0 0 0 .11.166c-.087.033-.172.068-.253.1l-.115.053a.373.373 0 0 0 .054-.118c.038-.186-.103-.362-.067-.387zM20 13.23a.259.259 0 0 0 0 .068c-.255-.079-.73.074-.758-.028c-.012-.044.064-.123.18-.186c.107.117.219.191.289.169c.07-.022.086-.134.1-.261h.029a.745.745 0 0 1 .265.077a.251.251 0 0 0-.105.161m-.02-.63c.158-.068.42.086.425.218c0 .052-.036.091-.089.127a.232.232 0 0 0-.035-.053c-.079-.082-.246-.085-.446-.045a.3.3 0 0 1 .145-.247m-.08-.344c-.092 0-.219-.023-.343-.029c-.118-.077-.261-.128-.258-.228a.167.167 0 0 1 .006-.029a.724.724 0 0 1 .134-.026a.66.66 0 0 1 .116 0a.769.769 0 0 1 .317.1c.012.069.018.144.028.21zm-.175-.475a.219.219 0 0 1 .112.126a2.983 2.983 0 0 0-.356-.1a.31.31 0 0 1 .244-.028zM20 9.764c.03.032.045.061.039.082c-.006.021-.044.036-.1.037A1.313 1.313 0 0 0 20 9.764m-1.052-.087v-.095h.15v.107c.024-.013.052-.029.084-.044l.019.006a.27.27 0 0 1 .137.21a.261.261 0 0 0-.184.1a.292.292 0 0 0-.023.22a.265.265 0 0 0-.033-.034a.911.911 0 0 0-.15-.1c-.092-.053-.175-.1-.172-.177c.003-.077.076-.147.17-.193zm0 .981a.532.532 0 0 0 .15-.134a.372.372 0 0 0 .081-.194c.122.287.4.594.538.552c.159-.05.035-.558.265-.656c.158-.067.42.086.425.218c.007.161-.37.195-.4.415a.288.288 0 0 0 .036.17a5.254 5.254 0 0 0-.855.359l-.088.047a1.342 1.342 0 0 1-.15.069a.444.444 0 0 1-.268.022a3.039 3.039 0 0 0-.437-.173a.422.422 0 0 0-.17-.013a.479.479 0 0 0-.068-.4a.915.915 0 0 0-.433-.306v-.313c.042-.031.1-.092.168-.153a1.052 1.052 0 0 1 .575-.3c.034.049-.66.475-.575.7a.187.187 0 0 0 .173.1a.265.265 0 0 0 .176-.11c-.051.084-.1.187-.061.248c.027.045.076.026.126.081c.092.1.016.246.069.276c.053.03.245-.09.288-.265c.047-.191-.094-.367-.057-.391c.037-.024.143.182.31.2a.323.323 0 0 0 .18-.049zm-.771-.225l-.007.012zm.643-4.278h-.35l-.34-.625c.212-.343.282-.76.131-.886c-.191-.161-.757.126-1.048.541c-.205.291-.362.771-.193.92c.169.149.656-.057.934-.347a.77.77 0 0 0 .054-.06l.427.457h-1.959l-.325-.582l-.044-.557a1.162 1.162 0 1 0-.776-.008l-.077.511l-.468.636H13.32V4.883h-.864v1.272h-.975v.621h7.339zm-2.784-2.024h-.575l-.083.558a.851.851 0 1 1 .7 0zM9 4.529H6.76l.214-.329v-.836l-.3-.46h-.7l-.383.5v.82l.294.306h-.744V2.506h-.506v2.023h-.169V2.651h-.222v1.878h-.222V2.973h-.284v1.556H3.6V2.805h-.268v1.724h-.138V2.613h-.207v1.916H2.8V3.2h-.387v1.329h-.165v1.044H9Zm-.355.69H2.413v-.336h6.232z"/></svg>