<svg xmlns="http://www.w3.org/2000/svg" width="1em" height="1em" viewBox="0 0 24 24"><path fill="currentColor" d="M0 12V0h24v24H0Zm9.516 7.945c1.09-.288 2.1-1.082 2.555-2.01c.268-.545.351-.881.35-1.41c0-.857-.252-1.455-.864-2.064c-.435-.433-.759-.637-1.303-.823c-1.895-.648-4.109.28-4.959 2.076c-.438.926-.352 2.074.218 2.908c.46.674 1.226 1.175 2.098 1.373c.388.089 1.49.06 1.905-.05m.539-2.652c-.291-.09-.446-.303-.446-.614c0-.563.694-.825 1.082-.41c.169.181.207.406.11.65c-.125.31-.44.469-.746.374m7.061 1.157c2.316-.504 3.667-2.819 2.738-4.692c-.755-1.524-2.664-2.202-4.526-1.608c-1.457.465-2.534 1.757-2.611 3.131c-.09 1.604 1.12 2.953 2.907 3.237c.323.052 1.105.016 1.492-.068m-2.44-2.079c-.596-.304-.414-1.183.244-1.183c.66-.001.89.877.31 1.174c-.221.113-.348.115-.555.009zm-2.328-3.477c.51-.153.938-.29.952-.304c.014-.014-.032-.629-.102-1.366c-.07-.738-.119-1.35-.107-1.362c.011-.01 1.27.457 2.797 1.04c1.527.584 2.792 1.043 2.812 1.021c.042-.05.714-1.807.696-1.82c-.007-.006-1.142-.439-2.521-.962c-1.38-.522-2.512-.953-2.517-.957c-.005-.004.94-.427 2.1-.94c1.161-.514 2.12-.95 2.13-.967c.031-.05-.643-1.543-.697-1.543c-.026 0-1.174.529-2.553 1.174c-1.378.646-2.511 1.168-2.518 1.16a51.253 51.253 0 0 1-.145-1.48c-.073-.806-.147-1.49-.165-1.518c-.022-.037-.34.008-1.08.154c-1.036.204-1.047.207-1.041.323c.003.064.214 2.031.469 4.37c.298 2.744.48 4.255.513 4.255c.028 0 .468-.125.977-.278m-4.443-.077c1.018-.266 1.888-1.15 2.278-2.316c.144-.43.15-.475.151-1.243c.002-.936-.069-1.258-.432-1.966c-.177-.347-.3-.507-.665-.871c-.677-.676-1.272-.937-2.135-.937c-.842 0-1.464.264-2.09.887a4.3 4.3 0 0 0-.596.73a4.203 4.203 0 0 0-.523 2.508c.21 1.761 1.353 3.05 2.927 3.298c.22.034.786-.013 1.085-.09"/></svg>