<svg xmlns="http://www.w3.org/2000/svg" width="1em" height="1em" viewBox="0 0 24 24"><path fill="currentColor" d="M3.266.306s-.322.015-.665.122a2.57 2.57 0 0 0-.508.235a4.088 4.088 0 0 0-.265.167a.829.829 0 0 0-.092.07a4.416 4.416 0 0 0-.404.389c-.185.21-.336.497-.479.802c-.094.2-.134.44-.16.64c-.028.2-.038.363-.038.363v.004l-.004.186l.004.004v1.768l4.244 2.277l-2.537-.002v2.263h1.79v.767l1.06.559H.736v2.12h4.466l-1.05.56v.808h-1.79v2.262l2.536-.002l-4.244 2.278v4.748H20.73s.323-.015.667-.122c.186-.058.364-.153.506-.235c.143-.083.27-.169.267-.167a.829.829 0 0 0 .092-.07l.122-.108c.09-.083.197-.182.284-.28c.185-.211.331-.496.475-.801c.094-.201.134-.443.16-.642c.028-.2.038-.363.038-.363V20.9l.008-.183l-.006-.006v-1.766l-4.244-2.277l2.535.003v-2.264H19.85V13.6l-1.051-.559h4.465v-2.12H18.8l1.051-.56v-.77h1.786V7.33l-2.533.002l4.242-2.276V.306H3.27Zm.02.512h19.547V4.75l-4.991 2.678l.107.416l3.177-.002v1.24H19.85v-.87l-1.63.87h-3.148V7.738l6.563-3.52V2.056H3.34c-.024 0-.03 0-.06.004a.742.742 0 0 0-.115.023a1.06 1.06 0 0 0-.347.179c-.142.108-.238.24-.306.353a1.145 1.145 0 0 0-.126.275c-.024.087-.021.16-.023.22l-.002.123v.985L8.924 7.74v1.342h-3.14l-1.633-.87v.87H2.874V7.844l3.178.002l.102-.418l-4.99-2.678V3.135l.003-.015v-.008c0-.002.007-.134.031-.312a2.16 2.16 0 0 1 .118-.49c.136-.29.281-.549.398-.682a3.444 3.444 0 0 1 .352-.335l.04-.035c.038-.024.12-.08.244-.152c.125-.072.283-.153.402-.19c.267-.083.552-.099.534-.098m.053 1.748h17.787v1.346l-1.195.64v-.744H4.071v.748l-1.197-.644v-.68s-.002-.052 0-.109c0-.024.003-.054.005-.078l.002-.026c-.001.007.005-.012.016-.037a.998.998 0 0 1 .053-.102a.796.796 0 0 1 .179-.212a.539.539 0 0 1 .21-.102M6.894 6.07h10.21l-2.54 1.364v2.158h2.699l-2.62 1.399v1.98l2.673 1.435H14.56v2.16l2.543 1.366H6.894l2.542-1.363v-2.16H6.682l2.676-1.439v-1.98L6.743 9.595h2.693V7.436Zm8.177 8.849h3.196l1.584.851v-.851h1.273v1.238h-3.177l-.107.415l4.99 2.679v1.632c0 .008-.007.144-.03.318c-.025.177-.075.4-.119.492c-.135.29-.28.548-.398.681a3.341 3.341 0 0 1-.349.334l-.035.03l-.01.005c-.039.025-.12.081-.244.153a2.211 2.211 0 0 1-.4.188a2.404 2.404 0 0 1-.533.098H1.162v-2.181h.003v-1.75l4.989-2.677l-.104-.418l-3.178.002V14.92H4.15v.85l1.58-.85h3.193v1.34L2.36 19.784v2.162h18.293s.08 0 .176-.027c.096-.027.217-.082.348-.18c.141-.108.239-.24.308-.356c.067-.112.106-.2.125-.27c.024-.089.022-.163.024-.222c.002-.067 0-.124 0-.124v-.985l-6.563-3.521ZM4.067 19.447v.747h15.86v-.747l1.197.641v.683l-.002.104c0 .026-.004.058-.006.082l-.002.026l-.014.035a.807.807 0 0 1-.054.104a.788.788 0 0 1-.179.21a.53.53 0 0 1-.177.094c-.042.012-.025.008-.025.008H2.872v-1.346z"/></svg>