<svg xmlns="http://www.w3.org/2000/svg" width="1em" height="1em" viewBox="0 0 24 24"><path fill="currentColor" d="m19 13.174l.1-6.744a2.509 2.509 0 0 0-1.99-2.493l-8.9-1.882A2.51 2.51 0 0 0 5.183 4.51v10.332a2.509 2.509 0 0 0 2.987 2.463l8.8-1.706A2.509 2.509 0 0 0 19 13.174m-3.5.656l-1.849.2l-1.578-7.1l-.95-.048l-.025 7.338l-1.479.153L9.63 6.8l-1.964-.1V4.983l5.576.419l1.347 6.365l1.473-6.148l1.528.118zm-3.835 5.62c0-.421-.335-.68-.933-.68a1.12 1.12 0 0 0-.976.448l.408.232a.685.685 0 0 1 .559-.264c.233 0 .359.1.359.264v.127c-.972.11-1.443.382-1.443.895a.636.636 0 0 0 .681.666a1.358 1.358 0 0 0 .758-.228l.053.2h.534zm-.6 1.034a.841.841 0 0 1-.559.241a.276.276 0 0 1-.272-.3c0-.271.267-.417.831-.486zm2.418-1.717a1.279 1.279 0 0 0-.787.316l-.055-.272l-.5.069v2.228h.6v-1.643a.887.887 0 0 1 .563-.255c.219 0 .292.126.292.408v1.49h.6v-1.6a.649.649 0 0 0-.713-.741m2.709.307c-.045-.112-.218-.307-.66-.306c-.488 0-.921.429-.921 1.2c0 .771.421 1.145.954 1.145a.6.6 0 0 0 .592-.334l.009.009v.267c0 .358-.15.507-.463.507c-.337 0-.407-.112-.431-.224l-.6.095c.084.394.5.573.951.571c1.092-.007 1.122-.637 1.122-1.02V18.81h-.51zm-.518 1.544c-.442 0-.463-.465-.463-.748c0-.517.242-.675.459-.675c.325 0 .5.292.5.65c0 .304-.038.769-.496.773m3.562-.685c0-.745-.394-1.166-1.054-1.166s-1.07.434-1.07 1.2a1.04 1.04 0 0 0 1.079 1.188a1.1 1.1 0 0 0 1.016-.5l-.442-.245a.585.585 0 0 1-.519.294c-.356 0-.535-.219-.54-.654h1.525c0-.038.005-.078.005-.117m-1.521-.271c.024-.311.194-.488.467-.488a.437.437 0 0 1 .461.488zM6.31 18.012a1.5 1.5 0 0 0-1.546 1.65a1.5 1.5 0 0 0 1.546 1.65a1.5 1.5 0 0 0 1.547-1.65a1.5 1.5 0 0 0-1.547-1.65m0 2.6c-.614 0-.727-.553-.727-.954c0-.401.113-.953.727-.953s.728.553.728.953c0 .4-.113.958-.728.958zm2.455-1.524v-.27h-.574v2.291H8.8v-1.524c.092-.2.379-.244.641-.244h.029v-.566a.5.5 0 0 0-.077 0a.9.9 0 0 0-.628.313"/></svg>