<svg xmlns="http://www.w3.org/2000/svg" width="0.62em" height="1em" viewBox="0 0 172 280"><path fill="currentColor" d="M62 42c17.634-.289 44.921-2.026 59 2h8c5.536 1.647 14.152 2.644 17 7c3.577 3.632.346 10.031 2 16c2.657 9.59 1.018 21.678 2 33c.164 1.889 1 2 1 2l1 26v20c1.612 5.822.987 15.55 1 23l1 24v19h-1v4h-1v3h-1l-1 5l-2 1v2l-6 5v1h-2v1l-7 1v1h-4c-12.354 3.985-28.683 4-45 4c-20.458 0-42.961-.5-56-8h-2l-2-3l-5-4l-2-6h-1c-4.359-11.016-2-34.411-2-49c0-8.908-1.033-20.789 1-28c1.707-6.057-.535-15.555 1-21v-16h1V93h1V79h1V66h1c1.178-4.174-1.409-10.263 1-13c.829-3.724 2.456-4.885 7-5c2.251-2.008 4.749-.94 8-2v-1h6v-1h7v-1c4.17-1.188 10.266 1.418 13-1m13 5c-2.963 2.54-12.16.579-17 1c-8.5.739-18.24 2.57-26 4v1a97.781 97.781 0 0 1 15 3l29 1l11 1v-1c7.833-1.953 19.55 1.1 27-1h10v-1h7v-1h5v-1h3v-1a80.154 80.154 0 0 1-14-3Zm74 160l-1-10c-.132-11.031 1.606-25.748-1-35v-28h-1v-13l-1-28h-1l-1-23c-.064-5.109.548-10.42-2-13v1l-7 1v1h-6v1h-8v1h-13c-6.386 1.76-16.96 1-25 1c-20.075 0-41.991-.726-56-7v4h-1v13h-1v13h-1v14h-1v15h-1l-2 90c1.855 1.009 4.126 3.287 6 4h5v1h5v1h6v1h7v1h9v1h15v1c5.064 1.41 19.363.02 23-1h19v-1h9v-1h7v-1h6c3.88-1.2 8.705-3.148 13-4M23 223h2c.549-3.193 1.848-5.489 3-8h-2v-1l-6-1v1Zm108 9h4c2.29-5.879 5.634-10.475 7-17h-3c-1.7.892-7.4 14.034-8 17m-98-16c-1 4.93-3.616 7.17-4 13l3 1v1h1c.972-5.451 3.849-8.585 5-14a12.709 12.709 0 0 0-5-1m95 1l-7 17h3c1.26-6.525 5.548-10.749 7-17zm-78 1h-6c-1.288 3.1-5.971 12.622-5 14v1h4v1h1c1.083-6.12 4.642-10.079 6-16m61 18c2.468-.671 1.688-.439 3-2h1v-3h1v-2c1.845-3.543 4.493-5.863 5-11h-1c-1.139 1.139 0 .4-2 1l-1 3h-1v3h-1v2c-1.555 3-3.468 4.547-4 9m-61-1h2c1.155-5.96 4.707-9.924 6-16c-2.762.723-2.237.279-3 3c-2.275 2-.764 2.211-2 5h-1a22.256 22.256 0 0 0-2 8m58-16c-2.76 5.493-5.512 11.055-8 17h4l8-17zm-50 17h5c1.155-5.96 4.707-9.924 6-16h-5c-2.07 5.251-5.269 9.8-6 16m17-16l-6 16h4c1.167-6.435 5.182-9.419 6-16zm10 0c-.642 6.958-5.149 9.708-6 17h4c2.324-5.467 5.627-10.9 7-17zm11 0c-1.254 6.357-5.2 10.012-6 17h3a9.185 9.185 0 0 1 2-2v-3h1v-2h1v-2c1.377-2.592 3.207-4.493 4-8z" class="cls-1"/></svg>