<svg xmlns="http://www.w3.org/2000/svg" width="1em" height="1em" viewBox="0 0 24 24"><path fill="currentColor" d="M16.5 19.3a2.831 2.831 0 0 0 2.574-2.876L18.84 4.641a2.436 2.436 0 0 0-2.483-2.387a2.4 2.4 0 0 0-.268.021l-10.7 1.4a3.127 3.127 0 0 0-2.718 3.054L2.5 18.085a2.238 2.238 0 0 0 2.206 2.271a2.051 2.051 0 0 0 .235-.008zM3.6 9.658l-.026.04l.047-.142c.008-.025.009-.057.018-.081a.167.167 0 0 1 .022-.037l.1-.311c.015-.045 1.539-4.505 5.186-4.891c.223-.023.443-.029.658-.034a7.3 7.3 0 0 1 7.713 6.136l.053.219l-.189-.157l-.1-.107a4.529 4.529 0 0 0-1.2-.893c-.128-.1-.252-.161-.386-.251a12.774 12.774 0 0 0-7.547-1.514c-1.916.257-4.924.844-4.242 3.856A4.147 4.147 0 0 1 3.6 9.658m.254 2.371C3.054 8.8 6.215 8.138 8.263 7.9a12.223 12.223 0 0 1 9.089 2.848c.3 1.971-2.267 6.929-6.785 7.346c-4.07.376-6.234-2.846-6.661-5.836a1.613 1.613 0 0 0-.05-.229ZM9.439 7.3a11.369 11.369 0 0 1 6.537 1.925a10.435 10.435 0 0 1 1.186.919a7.317 7.317 0 0 0-8.117-5.7c-2.712.186-4.507 3.223-4.977 4.324a6.39 6.39 0 0 1 3.1-1.336A13.8 13.8 0 0 1 9.439 7.3m11.945-.653a3.93 3.93 0 0 0-1.24-2.626c-.275-.222-.674-.464-1.049-.733h-.013l-1.153-.732a2.173 2.173 0 0 1 1.181 1.89v-.114l.3 12.156a3.147 3.147 0 0 1-2.9 3.216l-11.68.928l1.433.7a4.075 4.075 0 0 0 2.134.4l10.356-.883A3.125 3.125 0 0 0 21.5 17.7Z"/></svg>