<svg xmlns="http://www.w3.org/2000/svg" width="1em" height="1em" viewBox="0 0 24 24"><path fill="currentColor" d="M10.493 15.386c-.028-.009-.093-.009-.167.074a.133.133 0 0 0-.131-.111c-.037-.01-.083 0-.148.065l.009-.065l-.13-.019l-.056.47l.139.019l.028-.27c.019-.093.065-.111.1-.111c.056.009.066.055.056.121l-.037.279l.14.009l.037-.261c.009-.093.056-.111.093-.111c.065.009.065.074.056.121l-.028.279l.139.009l.028-.279a.162.162 0 0 0-.128-.219m-2.372-.567l-.381.558l.148.046l.075-.111l.223.055l.014.133l.159.037l-.084-.679Zm-.1.4L8.158 15l.019.261Zm.742-1.684a.211.211 0 0 0-.214-.214a.214.214 0 1 0 0 .428a.211.211 0 0 0 .214-.214m.474 1.553L9.1 15.06l-.028.14l-.084-.019l-.019.093l.084.019l-.046.242c-.019.093.009.139.1.158a.431.431 0 0 0 .112.009l.018-.093c-.009 0-.028.01-.046 0c-.056-.009-.047-.046-.038-.074l.038-.214l.1.018l.009-.092l-.093-.019Zm.372.186a.231.231 0 0 0-.288.205a.223.223 0 0 0 .205.288a.232.232 0 0 0 .3-.2a.241.241 0 0 0-.217-.293m.065.27c-.009.056-.037.149-.13.14c-.093-.009-.093-.121-.084-.177c.028-.149.1-.14.14-.14c.04 0 .1.033.074.177m7.452-2.009a.214.214 0 1 0-.214.214a.211.211 0 0 0 .214-.214m-8.382 1.87c-.009.027-.037.12-.121.1c-.046-.009-.065-.047-.046-.13l.055-.27l-.13-.028l-.065.288a.151.151 0 0 0 .1.214a.184.184 0 0 0 .177-.037L8.7 15.6l.139.037l.1-.456l-.139-.037ZM5.74 14.27a.214.214 0 0 1-.214.214a.214.214 0 0 1-.214-.214a.214.214 0 0 1 .214-.214a.214.214 0 0 1 .214.214m11.479.344a.21.21 0 0 0-.214.207v.007a.214.214 0 1 0 .214-.214m-7.275-.865a.214.214 0 1 0-.214-.214a.211.211 0 0 0 .214.214m-2.79-.428a.214.214 0 0 0 0 .428a.214.214 0 0 0 0-.428m-1.387 0a.214.214 0 1 0 .205.214a.211.211 0 0 0-.205-.214m1.024 1.293h-.007a.211.211 0 0 0-.207.214v.007a.21.21 0 0 0 .214.207H6.8a.211.211 0 0 0 .207-.214v-.007a.211.211 0 0 0-.216-.207m5.33.679l.009.642l.14-.009l-.01-.642zm1.219-.056l-.121.447l-.186-.428l-.205.018l.037.633l.158-.009l-.037-.456h.01l.185.446l.103-.009l.13-.465l.037.456l.149-.01l-.046-.641zm-.4-1.702a.21.21 0 1 0-.205.214a.209.209 0 0 0 .205-.214m-.577 1.935l.028.465l.139-.009l-.028-.466zm2.809.018c0 .047-.037.065-.074.075a.118.118 0 0 1-.14-.093l.354-.075l-.01-.018a.228.228 0 0 0-.279-.214a.245.245 0 0 0-.214.3a.232.232 0 0 0 .3.2c.084-.019.2-.056.205-.2l-.14.028zm-.223-.1c-.009-.112.074-.13.083-.13c.038-.01.1-.01.121.093l-.2.037zm.66-.346a.183.183 0 0 0-.139.111l-.009-.055l-.131.028l.112.455l.13-.037l-.056-.251c-.009-.019-.037-.121.056-.149c.074-.018.093.056.1.1l.065.261l.14-.037l-.074-.279c-.036-.166-.129-.166-.194-.147m-1.721.297a.225.225 0 0 0-.214.28a.229.229 0 0 0 .28.214a.238.238 0 0 0 .223-.279a.233.233 0 0 0-.289-.215m.056.4c-.1.009-.121-.084-.13-.14c-.019-.149.056-.168.093-.168s.112-.009.121.14c.009.057.018.159-.084.168m-2.056-.279l-.009.466h.14l.009-.466zm-.911-.046a.228.228 0 0 0-.27.233a.231.231 0 0 0 .233.269a.242.242 0 0 0 .279-.232a.238.238 0 0 0-.242-.27m.093.26c0 .056-.019.159-.121.149c-.102-.01-.1-.1-.1-.167c.009-.149.093-.149.121-.149c.028 0 .109.018.1.167m.53-.232a.208.208 0 0 0-.149.056l.009-.224l-.139-.009l-.028.642l.13.009v-.055a.207.207 0 0 0 .149.083c.112 0 .214-.065.223-.242a.216.216 0 0 0-.195-.26m-.065.4c-.056 0-.1-.047-.1-.158c0-.037.018-.159.12-.149c.075 0 .1.074.1.158c-.009.107-.055.158-.12.149m.353-.558h.14v.112h-.14zm4.503-.047l-.056-.2c-.009-.056-.056-.168-.251-.112c-.047.019-.205.065-.167.223l.129-.037c-.018-.065.038-.084.056-.093a.065.065 0 0 1 .093.037v.009c.01.047-.027.047-.121.093c-.074.038-.148.084-.12.186c.009.038.046.131.186.084a.192.192 0 0 0 .139-.1l.028.037l.14-.037l-.01-.009c-.018-.006-.037-.034-.046-.081m-.223.084c-.028.009-.075.009-.084-.028c-.01-.056.037-.074.065-.093a.221.221 0 0 0 .074-.046l.009.027c.028.093-.032.131-.064.14m-4.828-1.572a.214.214 0 0 0 0-.428a.214.214 0 0 0 0 .428m1.162 1.646l-.009-.111l-.14.009l.01.102zm1.619-1.646a.214.214 0 1 0-.205-.214a.211.211 0 0 0 .205.214m.288-3.433a.209.209 0 0 0-.214.205v.007a.211.211 0 0 0 .214.207a.21.21 0 1 0 0-.419M15.516 8.9a.214.214 0 1 0 0-.428a.214.214 0 0 0 0 .428m-2.465 1.835a.21.21 0 1 0 0-.419a.209.209 0 0 0-.214.205v.007a.211.211 0 0 0 .214.207m1.302-2.056a.217.217 0 0 0 .215-.214a.223.223 0 0 0-.215-.214a.216.216 0 0 0-.213.214v.007a.21.21 0 0 0 .213.207m1.2 1.842v.007a.211.211 0 0 0 .214.207a.21.21 0 1 0 0-.419a.209.209 0 0 0-.214.205m-2.372-1.972a.211.211 0 0 0 .214-.214a.209.209 0 1 0-.418 0a.208.208 0 0 0 .204.214m-2.846 1.767a.209.209 0 0 0-.214.205v.007a.211.211 0 0 0 .214.207a.21.21 0 0 0 0-.419m1.684-1.795h.007a.211.211 0 0 0 .207-.214V8.3a.211.211 0 0 0-.214-.207a.214.214 0 0 0 0 .428m4.669.679a.215.215 0 0 0 .205-.214a.209.209 0 0 0-.205-.214h-.006a.212.212 0 0 0-.208.214a.216.216 0 0 0 .214.214m2.187.94a.217.217 0 0 0 .213-.214a.21.21 0 0 0-.213-.214a.217.217 0 0 0-.215.214a.224.224 0 0 0 .215.214m-.391.595a.21.21 0 1 0 0-.419a.209.209 0 0 0-.214.205v.007a.211.211 0 0 0 .214.207m-1.358 0a.21.21 0 1 0 0-.419a.209.209 0 0 0-.214.205v.007a.21.21 0 0 0 .214.207m.725-1.144a.217.217 0 0 0 .214-.214a.222.222 0 0 0-.214-.214a.216.216 0 0 0-.214.214v.006a.212.212 0 0 0 .214.208m-6.158 1.144a.21.21 0 1 0-.214-.214v.007a.211.211 0 0 0 .214.207m6.791 3.321a.214.214 0 0 0 0 .428a.214.214 0 0 0 0-.428M14.512 15.1l.046.214a.225.225 0 0 0-.149-.038a.231.231 0 0 0-.177.289a.224.224 0 0 0 .261.2a.167.167 0 0 0 .121-.093l.009.056l.14-.028l-.112-.632zm0 .576c-.065.01-.112-.046-.131-.139c-.018-.075 0-.158.075-.177c.075-.019.121.037.139.14c.019.109-.027.165-.083.174zm-8.94-3.955H4.13v.493h1.442a.247.247 0 0 0 0-.493M12 7.535c-5.088 0-9.237 2.009-9.237 4.465S6.912 16.465 12 16.465s9.237-2.009 9.237-4.465S17.088 7.535 12 7.535m7.842 2.679a.392.392 0 0 1-.261.67H9.07a.257.257 0 0 1-.121-.475a6.76 6.76 0 0 0 2.939-2.474c.633-.035 5.703.093 7.954 2.279m-.828 1.219v1a.343.343 0 0 1-.558.26l-1.182-.865a.126.126 0 0 0-.2.093v.847h-.288v-.986a.345.345 0 0 1 .567-.261l1.172.856a.117.117 0 0 0 .2-.093v-.846zm-5.209 1.06v.27h-.3v-.726c0-.521.754-.623 1.153-.623c.382 0 1.135.1 1.135.623v.726h-.288v-.27zM11 12.474h1.228v-.223h-.874v-.288h1.163v.8H11a.668.668 0 1 1 0-1.33h1.517v.288H11a.381.381 0 1 0 0 .753m-3.7.019v.27h-.295v-.726c0-.521.753-.623 1.144-.623c.391 0 1.144.1 1.144.623v.726h-.3v-.27zm3.916-4.549a5.14 5.14 0 0 1-3.346 2.261L9.247 8.14a19.481 19.481 0 0 1 1.962-.196zm-7.644 2.921c.651-1.042 2.288-1.953 4.344-2.456l-1.572 2.447zm.261.568h1.739a.54.54 0 0 1 0 1.079H4.13v.251h-.3zm16 2.353c-1.441 1.367-4.474 2.279-7.832 2.279c-3.386 0-6.437-.921-7.87-2.3a.394.394 0 0 1 .289-.651h15.152a.386.386 0 0 1 .26.672zm.447-1.023h-.288v-1.33h.288zm-4.764.986a.214.214 0 1 0 0-.428a.214.214 0 1 0 0 .428m3.005-.214a.216.216 0 0 0-.214-.214a.214.214 0 1 0 0 .428a.216.216 0 0 0 .214-.214M8.149 11.7c-.214 0-.856.047-.856.335v.168h1.7v-.168c.002-.286-.658-.335-.844-.335M12 6.744C6.493 6.744 2 9.107 2 12c0 2.893 4.493 5.256 10 5.256S22 14.893 22 12c0-2.893-4.493-5.256-10-5.256m0 10.121c-5.312 0-9.637-2.186-9.637-4.865c0-2.679 4.325-4.856 9.637-4.856c5.3 0 9.628 2.177 9.628 4.856S17.3 16.865 12 16.865m-.828-7.284a.215.215 0 0 0 .205-.214a.209.209 0 0 0-.205-.214h-.007a.211.211 0 0 0-.207.214a.216.216 0 0 0 .214.214M14.66 11.7c-.213 0-.855.047-.855.335v.168h1.7v-.168c.002-.286-.659-.335-.845-.335"/></svg>