<svg xmlns="http://www.w3.org/2000/svg" width="1em" height="1em" viewBox="0 0 24 24"><path fill="currentColor" d="M17.264 15.245h1.6v4.379h-1.6zM16.3 3.361h-3.034v3.068H16.3Zm-.272 2.831h-2.48V3.6h2.477zm.272.463h-3.034v3.107H16.3Zm-.272 2.87h-2.48V6.892h2.477zm.562 10.681h2.946v-5.513h-2.948zm.376-5.257h2.2v4.931h-2.2zm-3.611 5.257h3.009v-5.513h-3.011zm.383-5.257h2.243v4.931h-2.246Zm5.824-11.588h-3.039v3.068h3.039zm-.281 2.831H16.8V3.6h2.477zm.281.463h-3.039v3.107h3.039zm-.281 2.87H16.8V6.892h2.477zm-2.739 3.491h3.039V9.939h-3.039zm.281-2.83H19.3v2.594h-2.477zm-2.815 5.059H15.7v4.379h-1.692zm-.722-2.229h3.04V9.939h-3.04zm.282-2.83h2.476v2.594h-2.476ZM10.773 2.04v19.724H2v.75h20.011V2.01Zm2.316 18.452v-6.154h6.7v6.154zm6.7-7.338h-6.7v-9.94h6.7zm-13.02 4.992A3.945 3.945 0 1 0 2.823 14.2a3.943 3.943 0 0 0 3.946 3.946m0-5.41a.874.874 0 0 1 .376 1.664v1.341h-.751V14.4a.874.874 0 0 1 .375-1.665ZM4.952 9.872v-.928a1.817 1.817 0 0 1 3.634 0v.928l.012.005a4.685 4.685 0 0 1 .739.395V8.944a2.568 2.568 0 0 0-5.136 0v1.327a4.685 4.685 0 0 1 .739-.4z"/></svg>