<svg xmlns="http://www.w3.org/2000/svg" width="1em" height="1em" viewBox="0 0 24 24"><path fill="currentColor" d="M13.737 11.025h1.69v2.34h-1.69ZM17.1 6.032l.075.117v.1h2.347a1.877 1.877 0 0 0-.188-.78a3.963 3.963 0 0 0-.551-.763L17 5.925Zm-3.363 1.775h1.69v1.365h-1.69Zm2.254 2.73h-2.817v3.218h2.817zm-.376 2.925h-2.066V10.83h2.066zM17.681 4a3.261 3.261 0 0 0-.939-.195v1.95l1.784-1.365a3.289 3.289 0 0 0-.845-.39m-1.69 3.319h-2.817v2.34h2.817zm-.376 2.048h-2.066V7.612h2.066zm4.225-2.048h-2.817v2.34h2.817Zm-.375 2.048H17.4V7.612h2.066zm-5.634 5.948h1.69v4.778h-1.69zM10.732 2.054v19.5H2v.78h20V2.054Zm5.446 18.721h-3.192V14.73h3.192zm0-6.825h-3.192v-3.608h3.192zm0-4.1h-3.192V7.124h3.192zM15.8 6.442h-2.814c0-2.243 2.347-3.023 3.474-3.023a3.245 3.245 0 0 1 3.474 3.023h-2.817a.693.693 0 0 0-.657-.585a.636.636 0 0 0-.66.585m4.225 14.333h-3.189V14.73h3.192zm0-6.825h-3.189v-3.608h3.192zm0-4.1h-3.189V7.124h3.192zm-4.034 5.075h-2.723v5.655h2.723zm-.282 5.363h-2.16V15.12h2.16zm1.878-12.481h1.69v1.365h-1.69zm-1.409-2.048v-1.95a3.014 3.014 0 0 0-1.784.585zm-2.61-.4a1.743 1.743 0 0 0-.206.888h2.356v-.1l.047-.1l.094-.1L14.1 4.7a2.78 2.78 0 0 0-.532.659m5.239-.672h-.037l.012.017zm.939 10.238h-2.723v5.655h2.723zm-.281 5.363h-2.16V15.12h2.16zm.375-9.751h-2.817v3.218h2.817zm-.375 2.925H17.4V10.83h2.066zm-1.878-2.437h1.69v2.34h-1.69zm-3.512-6.338l.025.013a.209.209 0 0 1 .014-.017zm3.512 10.628h1.69v4.778h-1.69zM6.631 17.961a3.92 3.92 0 1 0-3.944-3.92a3.929 3.929 0 0 0 3.944 3.92m0-5.375a.868.868 0 0 1 .376 1.654v1.333h-.75V14.24a.868.868 0 0 1 .374-1.654M4.816 9.74v-.923a1.816 1.816 0 0 1 3.631 0v.922h.012a4.626 4.626 0 0 1 .739.392V8.817a2.567 2.567 0 0 0-5.133 0v1.318a4.626 4.626 0 0 1 .735-.392Z"/></svg>