<svg xmlns="http://www.w3.org/2000/svg" width="1em" height="1em" viewBox="0 0 24 24"><path fill="currentColor" d="M18.93 19.51a1.27 1.27 0 0 0-.6-.15a1.22 1.22 0 0 0-.9.39a1.2 1.2 0 0 0-.39.87a1.17 1.17 0 0 0 0 .39a1.29 1.29 0 0 0 2.38.32a1.94 1.94 0 0 0 .11-.24a1 1 0 0 0 .05-.41a1 1 0 0 0-.05-.41a1.34 1.34 0 0 0-.6-.76M18 15.07a1.29 1.29 0 0 0 1.55-.86a.91.91 0 0 0 .06-.42a1.3 1.3 0 0 0-.7-1.17a1.2 1.2 0 0 0-.59-.15A1.33 1.33 0 0 0 17 13.79a1.32 1.32 0 0 0 1 1.28m.4-6.15a1.27 1.27 0 0 0-1.22.72a1.3 1.3 0 0 0 .25 1.52a1.18 1.18 0 0 0 .58.35a1.28 1.28 0 0 0 1.1-.22a1.41 1.41 0 0 0 .46-.65a1.21 1.21 0 0 0 .05-.41a1 1 0 0 0-.05-.41a1.29 1.29 0 0 0-1.17-.9m.25-3.42a1.39 1.39 0 0 0-.7 0a1.31 1.31 0 0 0-.85.85a1.5 1.5 0 0 0 0 .7a1.31 1.31 0 0 0 1.06 1A1.36 1.36 0 0 0 19 7.9a1.42 1.42 0 0 0 .61-1.12a1.47 1.47 0 0 0-.15-.59a1.38 1.38 0 0 0-.81-.69m-.58-.9a1.29 1.29 0 0 0 1.51-.92a1.33 1.33 0 0 0-.68-1.55a1.14 1.14 0 0 0-.64-.13a1.19 1.19 0 0 0-.85.39a1.21 1.21 0 0 0-.36.87a.92.92 0 0 0 0 .38a1.32 1.32 0 0 0 1.02.96m.61 11.4a1.29 1.29 0 0 0-1.61 1a1.6 1.6 0 0 0 0 .69a1.32 1.32 0 0 0 .92.87a.35.35 0 0 0 .14 0a1.49 1.49 0 0 0 .51 0a1.38 1.38 0 0 0 .82-.68a1.51 1.51 0 0 0 .15-.59a1.48 1.48 0 0 0-.15-.6a1.34 1.34 0 0 0-.78-.69M9.04 3.184c-4.94 0-5.33 5.34-5.33 5.34v12.23h2.48v-6.82l.92.89l4.12-1.51a5.13 5.13 0 0 0 3.12-4.57a5.42 5.42 0 0 0-5.31-5.56m1.12 8l-3.94 1.53v-4.53a2.79 2.79 0 0 1 2.71-2.51a2.85 2.85 0 0 1 2.86 2.93a2.75 2.75 0 0 1-1.63 2.58"/></svg>