<svg xmlns="http://www.w3.org/2000/svg" width="1em" height="1em" viewBox="0 0 24 24"><path fill="currentColor" d="M12.722 16.161a.208.208 0 1 0-.208.19a.2.2 0 0 0 .208-.19m-1.31-.189a.19.19 0 1 0 .208.189a.2.2 0 0 0-.208-.189m-.048-.932l.004-.007v-.023l-.004.007zm1.201-1.583l.002-.002l.019.02h-.002zm-.23-.095h-.015v.001h.013zm.122 4.945h.011v-.053a1.047 1.047 0 0 0 .969-1.046v-4.926a5.247 5.247 0 0 0 3.583-6.5a4.667 4.667 0 0 0-.2-.483a5.045 5.045 0 0 1 .193.485a5.205 5.205 0 0 1 .176 1.808a5.184 5.184 0 0 0-.178-1.8a5.419 5.419 0 0 0-.241-.611c-.037-.084-.065-.173-.105-.254a5.6 5.6 0 0 0-2.458-2.409l-.018-.01h-.006l-.026-.011a5.133 5.133 0 0 0-6.306 1.55a5.03 5.03 0 0 0-.359.522a5.702 5.702 0 0 0-.394.828a5.218 5.218 0 0 0-.324 1.973a4.9 4.9 0 0 0 .02.513a5.23 5.23 0 0 0 .138.733l-.026-.1c.015.061.016.122.033.182c.012.037.031.071.043.108l-.016-.063a5.168 5.168 0 0 0 .312.8c.019.04.039.08.06.119l-.009-.015a5.229 5.229 0 0 0 .323.524c.048.071.084.15.136.219v.01a5.257 5.257 0 0 0 1.029 1.03h.009a5.2 5.2 0 0 0 .742.458l-.017-.008l.117.061a5.361 5.361 0 0 0 .845.33a5.236 5.236 0 0 1-.809-.316a5.223 5.223 0 0 0 .809.322V17.2a1.07 1.07 0 0 0 .967 1.05v.055h.087v2.755H8.813a.469.469 0 1 0 0 .938h6.359a.469.469 0 0 0 0-.938h-2.739v-2.92v.167zM7.575 7.214A4.425 4.425 0 1 1 12 11.639a4.425 4.425 0 0 1-4.425-4.425m3.372 5.967a.268.268 0 0 1 .28-.252h1.463a.267.267 0 0 1 .279.25v1.971a.266.266 0 0 1-.279.251h-1.463a.266.266 0 0 1-.279-.251zm.472 3.349a.372.372 0 1 1 0-.74h.006a.372.372 0 1 1-.006.74m.684-.371a.393.393 0 0 1 .413-.369a.39.39 0 0 1 .408.37a.413.413 0 0 1-.822 0zm-.332-3.015l-.667.939v.891l1.294-1.83zm.656 2.042l.345-.486v-1.391l-1.325 1.877z"/></svg>