<svg xmlns="http://www.w3.org/2000/svg" width="1em" height="1em" viewBox="0 0 24 24"><path fill="currentColor" d="m12.151 11.729l.184-.318v-.924l-.717 1.242zm.174-.321l-.18.311h-.511l.691-1.2zm-.88.228v-.019l.7-1.215H11.8l-.352.61v-.02v.644zm.01-.622l.348-.6h.327l-.675 1.169zm.879-.527v.943v-.963l-.001.001zm-.187-.086h.011v.001zm-.361-.002l.01.005zm-.52.001v1.342a.172.172 0 0 0 .172.172h.9a.172.172 0 0 0 .172-.172v-1.348a.172.172 0 0 0-.172-.171h-.9a.172.172 0 0 0-.172.177m.169.614l.01-.016V10.4h.341l.006-.009h.372l-.006.009h.177v.066l.009-.017v.963l-.009.017l-.179.309H11.6l.734-1.271V10.4h-.176l-.713 1.234v.093v-.092l-.01.016zm.351-.612h-.341v.59zm-.23 1.778a.253.253 0 1 0 .253.253a.251.251 0 0 0-.253-.253m0 .326a.072.072 0 0 1-.061-.033a.065.065 0 0 1-.013-.041a.074.074 0 1 1 .147 0a.074.074 0 0 1-.072.074zm.074-.073h-.147a.068.068 0 0 0 .013.04a.071.071 0 0 0 .06.033a.074.074 0 0 0 .074-.073m.601-.253a.253.253 0 1 0 .252.253a.252.252 0 0 0-.252-.253m.074.253a.074.074 0 0 1-.148 0a.074.074 0 0 1 .148 0m-.074.073a.075.075 0 0 0 .074-.073h-.148a.074.074 0 0 0 .074.073m2.626-7.116l-.295-.9l-.009-.024a.191.191 0 0 0-.107-.1a.187.187 0 0 0-.143.008l-1.856.881l.011.009a.82.82 0 0 1 .251.588A.866.866 0 0 1 12.7 6v.014l2.019-.379a.188.188 0 0 0 .127-.088l.009-.015a.186.186 0 0 0 .002-.142m-.026.149a.179.179 0 0 1-.121.084L12.705 6a.715.715 0 0 0 .013-.146a.816.816 0 0 0-.254-.595l1.843-.874a.177.177 0 0 1 .237.084l.009.022l.295.9a.178.178 0 0 1-.018.146ZM11.1 6a.781.781 0 0 1-.014-.144a.819.819 0 0 1 .254-.587l.011-.01l-1.861-.884a.193.193 0 0 0-.156 0a.185.185 0 0 0-.1.114l-.295.9l-.006.024a.186.186 0 0 0 .15.218l2.017.379Zm-2.018-.377a.178.178 0 0 1-.143-.207l.006-.023l.295-.9a.174.174 0 0 1 .1-.109c.014-.006.029 0 .044 0a.135.135 0 0 0-.04.008a.168.168 0 0 0-.093.1l-.295.9l-.005.021a.168.168 0 0 0 .134.2l1.99.372a.855.855 0 0 1-.011-.134a.835.835 0 0 1 .249-.59l-1.83-.869a.15.15 0 0 0-.043-.009c.016 0 .033-.007.048 0l1.842.874a.817.817 0 0 0-.256.593a.8.8 0 0 0 .011.15Zm2.428-.488a.809.809 0 0 1 .77 0l.012.007l.264-2.037v-.024a.188.188 0 0 0-.188-.188h-.975a.187.187 0 0 0-.161.211l.268 2.038Zm-.11-2.23h.974a.178.178 0 0 1 .178.178v.022l-.262 2.023a.825.825 0 0 0-.778 0L11.244 3.1a.177.177 0 0 1 .156-.195m1.15 2.946a.654.654 0 0 0-.65-.651a.655.655 0 0 0 0 1.31a.655.655 0 0 0 .65-.659m-.65.649a.646.646 0 1 1 .646-.647a.645.645 0 0 1-.646.647m1.216 2.048c-.009 0-.016-.01-.025-.012c.009.002.015.011.025.012m-.481-2.355l-.006.013a.816.816 0 0 1-.623.453h-.014l.984 1.8l.013.021a.179.179 0 0 0 .1.052a.173.173 0 0 1-.089-.054l-.013-.02l-.976-1.79a.825.825 0 0 0 .63-.458l1.4 1.482a.177.177 0 0 1-.007.252l-.017.014l-.769.559a.178.178 0 0 1-.129.031c.009 0 .015.013.025.013a.19.19 0 0 0 .11-.036l.769-.559l.018-.015a.19.19 0 0 0 .059-.131a.193.193 0 0 0-.051-.135Zm-1.471.013l-.007-.013l-1.41 1.492l-.015.015a.189.189 0 0 0-.034.14a.184.184 0 0 0 .075.123l.769.559l.02.013a.191.191 0 0 0 .09.023a.2.2 0 0 0 .053-.008a.186.186 0 0 0 .112-.09l.983-1.8h-.014a.813.813 0 0 1-.622-.454m-.356 2.252a.178.178 0 0 1-.241.071l-.02-.012l-.768-.559a.178.178 0 0 1-.039-.249l.014-.017l1.4-1.482a.821.821 0 0 0 .63.458zm3.216-.521a.164.164 0 0 0 .053-.118a.167.167 0 0 0-.046-.12L12.64 6.227a.83.83 0 0 1-.617.449l.97 1.778l.012.018a.167.167 0 0 0 .234.037l.769-.558Zm.52-3.444l-.009-.021a.167.167 0 0 0-.224-.079l-1.83.868a.827.827 0 0 1 .247.592a.765.765 0 0 1-.011.134l1.992-.374a.173.173 0 0 0 .106-.067l.007-.012a.168.168 0 0 0 .016-.138Zm-3.392 1.734L9.761 7.7l-.013.016a.169.169 0 0 0 .036.236l.769.558l.019.012a.167.167 0 0 0 .128.013a.162.162 0 0 0 .1-.08l.97-1.778a.834.834 0 0 1-.618-.45m.748-1.209a.828.828 0 0 1 .381.093l.256-2.011v-.019a.168.168 0 0 0-.168-.168H11.4a.168.168 0 0 0-.143.189l.26 2.008a.828.828 0 0 1 .383-.092m.444.382a.63.63 0 0 0-.449-.186a.636.636 0 0 0-.449 1.086a.63.63 0 0 0 .449.186a.636.636 0 0 0 .449-1.086m2.898 1.413c.013-.044.034-.085.045-.13c-.011.045-.032.086-.045.13m.141-.798a3.479 3.479 0 0 0-.206-1.356a3.505 3.505 0 0 1 .206 1.356m0 0v.019Zm-.002.019a3.443 3.443 0 0 1-.094.649a3.41 3.41 0 0 0 .094-.649m-.494-1.985a3.473 3.473 0 0 1 .278.584a3.506 3.506 0 0 0-.278-.584m-.079-.106c.024.036.056.068.079.106c-.023-.038-.054-.07-.079-.106m.357.69c0 .009.009.017.012.026c-.003-.009-.008-.017-.012-.026m-3.737 5.041a3.69 3.69 0 0 1-.334-.055v3.555a.5.5 0 0 0 .5.5h.6a.5.5 0 0 0 .5-.5V9.619c-.11.023-.221.041-.334.055a3.943 3.943 0 0 1-.932 0m1.265-.052v3.552a.5.5 0 0 1-.5.5h-.6a.5.5 0 0 1-.5-.5V9.622c.1.021.2.039.332.054a3.84 3.84 0 0 0 .934 0c.118-.014.23-.032.334-.054m2.429 11.171H12.4v-4.982a.136.136 0 0 0-.136-.136h-.009v-1.734a.769.769 0 0 0 .712-.768V9.554a3.854 3.854 0 1 0-4.773-2.632a3.874 3.874 0 0 0 .241.607A3.6 3.6 0 0 1 8.068 5.6A3.816 3.816 0 0 0 8.2 6.921a3.86 3.86 0 0 0 .243.622l-.007-.014c.016.034.033.067.051.1l-.007-.011a3.815 3.815 0 0 0 .337.546v.006a3.867 3.867 0 0 0 .756.756h.007a3.8 3.8 0 0 0 .545.337l-.013-.006l.1.052l-.016-.008a3.907 3.907 0 0 0 .623.243v3.624a.77.77 0 0 0 .71.764v1.748h-.013a.131.131 0 0 0-.131.131V20.8H8.668a.623.623 0 0 0-.621.62v.135A.445.445 0 0 0 8.49 22h6.81a.443.443 0 0 0 .442-.442v-.134a.621.621 0 0 0-.62-.621h-2.728v-4.992a.131.131 0 0 0-.131-.131h-.014v-1.743a.77.77 0 0 0 .71-.764V9.55a3.82 3.82 0 0 0 1.19-.6a3.819 3.819 0 0 1-1.189.6v3.621a.769.769 0 0 1-.713.766v1.738h.012a.134.134 0 0 1 .133.134V20.8h2.726a.625.625 0 0 1 .623.624v.134A.447.447 0 0 1 15.3 22H8.49a.447.447 0 0 1-.445-.445v-.135a.625.625 0 0 1 .623-.623H11.4v-4.985a.134.134 0 0 1 .133-.133h.011V13.94a.771.771 0 0 1-.713-.766V9.552a3.829 3.829 0 0 1-.606-.237a3.832 3.832 0 0 0 .6.239v3.62a.773.773 0 0 0 .713.768v1.734h-.009a.136.136 0 0 0-.136.136v4.981H8.668a.629.629 0 0 0-.626.625v.135A.45.45 0 0 0 8.49 22h6.81a.448.448 0 0 0 .447-.447v-.134a.627.627 0 0 0-.625-.626m-.287-12.456a3.9 3.9 0 0 0 .729-1.321a3.872 3.872 0 0 1-.729 1.321m.743-1.383a3.89 3.89 0 0 0 .142-.666a3.83 3.83 0 0 1-.142.666m.145-.843a3.826 3.826 0 0 0-.131-1.325A3.834 3.834 0 0 0 15 3.6a3.8 3.8 0 0 1 .593 1.183a3.812 3.812 0 0 1 .13 1.328M14.9 3.447a3.754 3.754 0 0 0-.47-.482a3.693 3.693 0 0 1 .47.482m-.52-.533a3.91 3.91 0 0 0-1.32-.729a3.877 3.877 0 0 1 1.319.729Zm-1.392-.745a3.815 3.815 0 0 0-.656-.14a3.926 3.926 0 0 1 .655.14zm-.014.356a3.6 3.6 0 0 1 .363.151a3.484 3.484 0 0 0-.455-.173c.029.009.061.012.091.022zm-2.146-.37a3.8 3.8 0 0 1 1.32-.129a3.662 3.662 0 0 0-2.505.723a3.8 3.8 0 0 1 1.184-.594zm1.815.291c-.082-.018-.163-.04-.246-.052c.082.012.163.034.245.052Zm-.623-.081h-.246c.041 0 .081-.01.122-.01c.041 0 .081.008.123.01zm-.624.029c-.083.012-.164.034-.246.052c.081-.018.162-.04.25-.052Zm-.486.106a3.6 3.6 0 0 0-.457.173a3.72 3.72 0 0 1 .364-.151c.031-.006.062-.01.093-.022m-1.421.35a3.827 3.827 0 0 0-.483.47a3.833 3.833 0 0 1 .483-.47m-.533.52a3.91 3.91 0 0 0-.729 1.32a3.877 3.877 0 0 1 .729-1.32m-.885 2.048a3.9 3.9 0 0 1 .14-.654a3.793 3.793 0 0 0-.14.654m3.917 10.262H11.8v-1.7h.184zm.71-2.506a.505.505 0 0 1-.5.5h-.6a.505.505 0 0 1-.5-.5V9.615c.1.022.2.04.333.056a3.943 3.943 0 0 0 .934 0c.116-.015.228-.033.333-.056zm-.378-3.852a3.478 3.478 0 0 1-.849 0A3.5 3.5 0 0 1 8.4 5.851a3.456 3.456 0 0 1 1.954-3.133a3.448 3.448 0 0 0-.528.319a3.494 3.494 0 1 0 4.883 4.886a3.446 3.446 0 0 0 .534-1.11a3.449 3.449 0 0 1-2.923 2.5a3.492 3.492 0 0 1-2.494-6.274a3.588 3.588 0 0 1 .537-.325c.016-.008.034-.013.05-.021a3.528 3.528 0 0 1 .5-.19c.075-.022.151-.037.226-.054c.075-.017.176-.042.266-.055c.09-.013.167-.014.252-.02a3.553 3.553 0 0 1 .484 0c.084.006.168.008.251.02c.083.012.177.035.266.055c.089.02.151.032.225.054a3.438 3.438 0 0 1 .5.191c.016.007.032.012.048.02a3.4 3.4 0 0 1 1.381 1.229a3.457 3.457 0 0 0-.842-.906a3.5 3.5 0 0 0-.528-.319A3.431 3.431 0 0 1 14.9 4.064a3.5 3.5 0 0 1-2.58 5.258m2.469-.94a3.771 3.771 0 0 1-.487.475a3.768 3.768 0 0 0 .487-.475m-5.967-.211a3.628 3.628 0 0 0 .756.756a3.814 3.814 0 0 1-.756-.756m-.005-.008a3.77 3.77 0 0 1-.331-.533a3.851 3.851 0 0 0 .331.533m1.301 1.1a4 4 0 0 1-.531-.33a3.921 3.921 0 0 0 .531.33m1.867 4.723h-.179v1.692h.179zm0 1.689h-.174v-1.687h.174z"/></svg>