<svg xmlns="http://www.w3.org/2000/svg" width="1em" height="1em" viewBox="0 0 24 24"><path fill="currentColor" d="M14.01 8c-.04-1.31-1.52-3.44-1.94-4.03l-.05-2.33a.506.506 0 0 0-.5-.49H9.35c-.27 0-.49.22-.5.49L8.8 3.96C8.38 4.55 6.9 6.69 6.86 8l-.44 13.13c-.01.22.13.42.34.49c.02.01.16.05.38.11c0 .07 0 .14.03.2c.11.25.67 1.09 3.27 1.09s3.16-.83 3.27-1.09c.03-.06.03-.13.03-.2c.22-.06.36-.1.38-.11c.21-.07.35-.27.34-.49zm4.7.08c-.04-1.06-1.22-2.77-1.57-3.25l-.04-1.88c0-.22-.18-.39-.4-.39h-1.74a.4.4 0 0 0-.4.39l-.04 1.88c-.08.12-.22.31-.38.55c.48.9.85 1.82.87 2.59l.42 12.2c.13.01.26.02.4.02c2.09 0 2.55-.67 2.63-.88c.02-.05.03-.11.03-.16c.18-.05.29-.08.3-.09a.42.42 0 0 0 .28-.4z"/></svg>