<svg xmlns="http://www.w3.org/2000/svg" width="1em" height="1em" viewBox="0 0 24 24"><path fill="currentColor" d="M11.681 11.558v.893h1.526a1.594 1.594 0 1 1-.381-1.551l.641-.618a2.484 2.484 0 1 0 .655 2.155h.078v-.879Zm.019-5.429A5.871 5.871 0 1 0 17.566 12A5.877 5.877 0 0 0 11.7 6.129m0 10.4A4.531 4.531 0 1 1 16.226 12a4.536 4.536 0 0 1-4.526 4.531Zm6.028-5.313a2.889 2.889 0 0 0-.111.784a2.855 2.855 0 0 0 .11.784c.269-.036.448-.116.448-.19v-1.189c0-.073-.175-.154-.447-.189m-2.443-4.429a4.8 4.8 0 0 1-.223-.622a20.942 20.942 0 0 1-.4-3.562A6.479 6.479 0 0 0 11.7 2h-.022a6.442 6.442 0 0 0-2.948.588a20.875 20.875 0 0 1-.4 3.563a4.939 4.939 0 0 1-.231.643a6.319 6.319 0 0 1 7.188-.007ZM8.106 17.213a4.756 4.756 0 0 1 .222.622a20.866 20.866 0 0 1 .4 3.562a6.477 6.477 0 0 0 2.97.6h.023a6.447 6.447 0 0 0 2.948-.588a20.932 20.932 0 0 1 .4-3.562a5.035 5.035 0 0 1 .231-.643a6.316 6.316 0 0 1-7.187.006z"/></svg>