<svg xmlns="http://www.w3.org/2000/svg" width="1.04em" height="1em" viewBox="0 0 33 32"><path fill="currentColor" d="M13 .5c-.4 0-.9.1-1.2.3h-.1l-.1.1h-.1c-.4.2-1.1.6-1.3.7c-.3.2-1 .8-1 2.3v4c-1.8.4-3.1 2-3.1 4s1.3 3.6 3.1 4v4.5s-.1 1.2 1.1 1.9l1.2.6c.3.2.7.3 1 .4h.5c1.5 0 2.8-1.2 2.8-2.6V3.1c0-1.4-1.3-2.6-2.8-2.6m1.8 20.4c0 .9-.8 1.6-1.8 1.6h-.3c-.2 0-.5-.1-.7-.3c-.1-.1-.2-.1-.3-.2l-.1-.1l-.2-.2s0-.1-.1-.1c0-.1-.1-.2-.1-.3V2.6c0-.1.1-.2.1-.2s0-.1.1-.1c0-.1.1-.1.2-.2c0 0 0-.1.1-.1c.1-.1.2-.2.3-.2c0 0 .1 0 .1-.1c.2-.1.5-.2.8-.2c1 0 1.8.7 1.8 1.6v17.8z"/></svg>