<svg xmlns="http://www.w3.org/2000/svg" width="1em" height="1em" viewBox="0 0 24 24"><path fill="currentColor" d="M18.023 13.223a2.982 2.982 0 1 0 2.982 2.977a2.984 2.984 0 0 0-2.982-2.977m0 4.657A1.675 1.675 0 1 1 19.7 16.2a1.676 1.676 0 0 1-1.677 1.68M5.987 5.638A2.982 2.982 0 1 0 8.969 8.62a2.986 2.986 0 0 0-2.982-2.982m0 4.656A1.674 1.674 0 1 1 7.661 8.62a1.676 1.676 0 0 1-1.674 1.674m0 2.929A2.982 2.982 0 1 0 8.969 16.2a2.986 2.986 0 0 0-2.982-2.977m0 4.657a1.675 1.675 0 1 1 1.674-1.68a1.676 1.676 0 0 1-1.674 1.68m11.79-6.57A2.982 2.982 0 1 0 14.8 8.328a2.985 2.985 0 0 0 2.977 2.982m0-4.656A1.674 1.674 0 1 1 16.1 8.328a1.676 1.676 0 0 1 1.677-1.674m-5.771 9.196a2.981 2.981 0 1 0 2.981 2.98a2.984 2.984 0 0 0-2.981-2.98m0 4.656a1.675 1.675 0 1 1 1.674-1.676a1.677 1.677 0 0 1-1.674 1.676m-.124-12.355A2.982 2.982 0 1 0 8.9 5.169a2.985 2.985 0 0 0 2.982 2.982m0-4.656a1.674 1.674 0 1 1-1.675 1.674A1.677 1.677 0 0 1 11.882 3.5ZM12 14.988A2.988 2.988 0 1 0 9.007 12A2.991 2.991 0 0 0 12 14.988m0-4.668A1.681 1.681 0 1 1 10.315 12A1.682 1.682 0 0 1 12 10.32"/></svg>