<svg xmlns="http://www.w3.org/2000/svg" width="1em" height="1em" viewBox="0 0 24 24"><path fill="currentColor" d="M7.939 17.389h1.17v-2.007h-1.17zm1.394.28h1.651v1.121H9.333Zm-1.394-3.687v1.12h1.17v-1.12h-.327Zm.843 4.808h.327v-1.121h-1.17q0 1.121.843 1.121m-3.104-1.121h1.651v1.121H5.678ZM4.284 15.1h1.17v-1.12h-.327q-.843.002-.843 1.12m.843 3.69h.327v-1.121h-1.17q0 1.121.843 1.121m.551-4.808h1.651v1.12H5.678Zm-1.394 3.407h1.17v-2.007h-1.17ZM14.728 2a58.256 58.256 0 0 0-5.9 9.192a5.456 5.456 0 1 0 2.466 9.516a6.912 6.912 0 0 0 2.687.867a6.055 6.055 0 0 0 .773.038a6.912 6.912 0 0 0 6.932-6.955C21.683 11.66 17.116 5.1 14.728 2M7.773 21.227a4.683 4.683 0 1 1 4.683-4.683a4.689 4.689 0 0 1-4.683 4.683m11.237-4.855a4.305 4.305 0 0 1-.773 1.306a4.456 4.456 0 0 1-1.19 1a.77.77 0 1 1-.765-1.337h-.007a3.1 3.1 0 0 0 .772-.68a2.692 2.692 0 0 0 .526-.866a.775.775 0 0 1 1.438.578z"/></svg>