<svg xmlns="http://www.w3.org/2000/svg" width="1em" height="1em" viewBox="0 0 24 24"><path fill="currentColor" d="M12 2.621A9.379 9.379 0 1 0 21.379 12A9.389 9.389 0 0 0 12 2.621m-.85 15.508h-.994v-2.807a6.683 6.683 0 0 1 .066-1.018h-.078a2.344 2.344 0 0 1-2.071 1a2.394 2.394 0 0 1-1.981-.892a3.891 3.891 0 0 1-.712-2.49a3.944 3.944 0 0 1 .72-2.514a2.412 2.412 0 0 1 2-.9a2.389 2.389 0 0 1 2.071 1.018h.054l.144-.9h.784zm6.75-3.717a2.422 2.422 0 0 1-2 .892a2.909 2.909 0 0 1-1.174-.233a2.224 2.224 0 0 1-.885-.731h-.072l-.21.844h-.712V5.871h.994v2.262q0 .761-.048 1.365h.048a2.359 2.359 0 0 1 2.059-.982a2.428 2.428 0 0 1 2 .884a3.852 3.852 0 0 1 .718 2.5a3.9 3.9 0 0 1-.718 2.512m3.314-6.305A10.034 10.034 0 1 0 22 12a9.98 9.98 0 0 0-.786-3.893m-.128 7.732a9.867 9.867 0 0 1-18.172 0A9.861 9.861 0 0 1 18.973 5.027a9.873 9.873 0 0 1 2.113 10.812M8.211 9.336a1.528 1.528 0 0 0-1.341.683a3.381 3.381 0 0 0-.461 1.915a3.3 3.3 0 0 0 .455 1.892a1.563 1.563 0 0 0 1.359.646a1.808 1.808 0 0 0 1.449-.533a2.885 2.885 0 0 0 .484-1.795v-.222a3.282 3.282 0 0 0-.466-1.981a1.753 1.753 0 0 0-1.479-.605m7.542.012a1.73 1.73 0 0 0-1.466.587a3.27 3.27 0 0 0-.449 1.963a3.3 3.3 0 0 0 .46 1.981a1.76 1.76 0 0 0 1.479.593a1.536 1.536 0 0 0 1.365-.664a3.451 3.451 0 0 0 .448-1.922a3.3 3.3 0 0 0-.448-1.909a1.593 1.593 0 0 0-1.389-.629"/></svg>