<svg xmlns="http://www.w3.org/2000/svg" width="1em" height="1em" viewBox="0 0 24 24"><path fill="currentColor" d="m2.482 11.852l1.967-.039a.447.447 0 0 0 .381-.231a.445.445 0 0 0-.4-.658l-1.508.03a9.088 9.088 0 0 1 4.02-7.3l2.8 4.626a3.717 3.717 0 0 0-1.412 2.561l-2.391.048a.444.444 0 0 0 .018.888l2.809-.056a.46.46 0 0 0 .106-.017l.03-.01a.355.355 0 0 0 .069-.031a.24.24 0 0 0 .027-.016a.425.425 0 0 0 .078-.062l.006-.007a.474.474 0 0 0 .056-.077l.008-.01l.007-.019a.422.422 0 0 0 .026-.067c0-.011.007-.021.01-.032a.481.481 0 0 0 .011-.1a2.878 2.878 0 0 1 1.366-2.477a.376.376 0 0 0 .065-.053a.278.278 0 0 0 .027-.021a.41.41 0 0 0 .067-.092a.4.4 0 0 0 .042-.106c0-.015 0-.03.006-.046a.491.491 0 0 0 .008-.067c0-.014-.005-.027-.006-.041a.472.472 0 0 0-.011-.074c0-.01-.009-.019-.012-.029a.4.4 0 0 0-.035-.08L7.468 2.808a.45.45 0 0 0-.055-.073a.445.445 0 0 0-.061-.054c-.011-.008-.024-.013-.035-.02a.4.4 0 0 0-.039-.023a.368.368 0 0 0-.066-.023l-.014-.005a.439.439 0 0 0-.337.051a10.007 10.007 0 0 0-4.827 8.76a.445.445 0 0 0 .453.435zm13.91-8.991l-.983 1.7a.444.444 0 0 0 .77.444l.754-1.305a9.086 9.086 0 0 1 4.167 7.216h-5.4a3.715 3.715 0 0 0-1.462-2.533l1.2-2.071a.445.445 0 0 0-.77-.445L13.253 8.3a.471.471 0 0 0-.041.1l-.006.03a.407.407 0 0 0-.01.076v.032a.462.462 0 0 0 .013.1v.009a.445.445 0 0 0 .037.088v.012l.013.016a.4.4 0 0 0 .044.057a.25.25 0 0 0 .022.024a.449.449 0 0 0 .08.062a2.877 2.877 0 0 1 1.415 2.45a.449.449 0 0 0 .011.083a.331.331 0 0 0 0 .033a.431.431 0 0 0 .044.106a.437.437 0 0 0 .069.091c.011.01.025.018.037.028a.425.425 0 0 0 .053.042c.012.007.026.01.038.016a.348.348 0 0 0 .069.029h.032a.482.482 0 0 0 .085.011h6.282a.382.382 0 0 0 .09-.009h.006a.361.361 0 0 0 .077-.024c.013 0 .024-.013.036-.019a.4.4 0 0 0 .04-.022a.364.364 0 0 0 .053-.044l.012-.01a.44.44 0 0 0 .146-.306A10.005 10.005 0 0 0 17 2.7a.446.446 0 0 0-.607.163ZM10.25 11.36A1.75 1.75 0 1 0 12 9.611a1.752 1.752 0 0 0-1.75 1.749M12 10.343a1.018 1.018 0 1 1-1.018 1.018A1.019 1.019 0 0 1 12 10.343m5.164 9.071l-.984-1.7a.444.444 0 0 0-.385-.223a.439.439 0 0 0-.222.06a.445.445 0 0 0-.163.607l.755 1.306a9.093 9.093 0 0 1-8.33 0l2.7-4.68a3.712 3.712 0 0 0 2.924 0l1.2 2.072a.445.445 0 0 0 .77-.445l-1.405-2.433a.421.421 0 0 0-.066-.085l-.022-.021a.65.65 0 0 0-.061-.046l-.027-.016a.443.443 0 0 0-.093-.038h-.008a.435.435 0 0 0-.095-.013h-.033a.347.347 0 0 0-.071.01l-.033.007a.392.392 0 0 0-.093.039h-.006a2.878 2.878 0 0 1-2.828 0a.464.464 0 0 0-.077-.032c-.011 0-.021-.01-.031-.013a.445.445 0 0 0-.114-.014a.432.432 0 0 0-.113.014a.393.393 0 0 0-.043.018a.486.486 0 0 0-.063.025c-.011.007-.021.017-.033.025a.419.419 0 0 0-.059.045a.243.243 0 0 0-.02.025a.5.5 0 0 0-.053.068l-3.14 5.437a.376.376 0 0 0-.042.087v.006a.545.545 0 0 0-.018.08v.085a.55.55 0 0 0 .011.069v.015a.446.446 0 0 0 .207.266a10.009 10.009 0 0 0 10 0a.445.445 0 0 0 .162-.607z"/></svg>