<svg xmlns="http://www.w3.org/2000/svg" width="1em" height="1em" viewBox="0 0 24 24"><path fill="currentColor" d="M5.78 12.899a6.3 6.3 0 0 1-.726-2.267c-.09-.162-.469-.182-.61-.1c-.143.082-.276 1.3-.114 1.345c-.14.07.041 1.025.227 1.025c-.148.063.15 1 .321.973c-.1.139.384.9.518.859c.041.78 2.4 1.154 2.35.5c-.03-.328-.384.143-1.967-2.335M11.81 17.1a.613.613 0 0 0-.01-.7c-.176-.17-.688-.018-.734-.176c-.1-.377.168-.508.124-1.024a11.483 11.483 0 0 0-.445-1.615a2.51 2.51 0 0 0-.63-.3a.525.525 0 0 1-.136-.362c.577-.174.731.36.818.342c.087-.02-.047-.587-.114-.653a6.749 6.749 0 0 1-.828-.32c-.09-.121-.385-1.318-.006-1.355c-.014-.005.025-.076 0-.074c-.8.194-1.35-3.671-3.343-3.653c-1.97.013-1.867 2.873-1.749 2.98c.222.2.55.124.56.31c.1 1.746 1.666 3.617 2.142 3.447c.28-.093.038-.981-.094-1c.121-.05 0-.965-.144-.983c.111-.085.008-.928-.135-.942c.07-.06.061-.638.207-.921c.116-.225.6-.343.631.2c-.294-.146-.315.82-.186.983c.13.162.91.537 1.158.745a7.5 7.5 0 0 0 .653 2.443a7.7 7.7 0 0 1 .745 1.128c.164.419.241 1.24.444 1.428c.184.155 1.005.199 1.072.072m.198.165c-.44.19-.809-.141-1.025.083c-.105.12.437.56 1.056.548c.62-.012 1.206-.442 1.045-.558c-.282-.213-.64.108-1.076-.073M6.98 6.75a7.354 7.354 0 0 1 3.31 2.91c.3.433 1.052.588 1.221-.114a7.815 7.815 0 0 0 .218-2.17c-.163-.363-.838-.845-.952-.734c0-.133-.556-.642-.756-.55c.045-.157-.717-.634-.9-.5c-.039-.2-1.142-.342-1.356-.154c-.13-.145-1.109.092-1.128.34c-.185-.161-1.183.899-1.18 1.429c-.004.203.934-.63 1.521-.456m12.644 3.716a.6.6 0 0 0-.61.145a6.233 6.233 0 0 1-.714 2.277c-1.589 2.468-1.94 2-1.967 2.318c-.053.662 2.3.288 2.35-.5c.128.044.611-.716.506-.86c.177.03.475-.905.331-.962c.182-.006.364-.96.218-1.035c.17-.035.05-1.292-.114-1.383m-3.475-.197c.032-.535.521-.416.632-.2c.151.288.143.865.217.93c-.148.009-.25.852-.135.932c-.146.023-.27.938-.144.994c-.136.016-.378.9-.094 1c.471.163 2.034-1.708 2.132-3.457c.016-.182.343-.11.57-.31c.113-.1.216-2.963-1.76-2.98c-1.976-.017-2.532 3.85-3.343 3.663c-.026-.01.025.077-.01.073c.4.018.084 1.219 0 1.345c-.084.126-.746.268-.818.33c-.072.064-.2.626-.113.643c.087.017.236-.511.807-.332a.488.488 0 0 1-.125.352a2.626 2.626 0 0 0-.63.3a10.537 10.537 0 0 0-.446 1.614c-.048.52.217.653.114 1.025c-.04.163-.563.02-.745.2a.6.6 0 0 0-.02.693a1.712 1.712 0 0 0 1.117-.082c.372-.318.267-1.02.435-1.428a7.008 7.008 0 0 1 .735-1.128a7.584 7.584 0 0 0 .662-2.453c.245-.2 1.036-.574 1.16-.735c.122-.161.102-1.13-.198-.99m-2.359-.621a7.27 7.27 0 0 1 3.3-2.908c.593-.185 1.532.652 1.532.445c0-.531-1-1.585-1.18-1.428c-.024-.246-1-.483-1.128-.342c-.219-.184-1.322-.038-1.366.156c-.179-.134-.94.342-.89.5c-.205-.088-.76.42-.756.549c-.119-.107-.882.4-.983.745a11.148 11.148 0 0 0 .228 2.173c.17.692.941.538 1.243.11m6.126-6.972a60.247 60.247 0 0 0-7.855-.466a61.1 61.1 0 0 0-7.937.466a1.765 1.765 0 0 0-1.6 1.756c0 1.8.046 10.873.973 12.139c1.606 2.2 8.1 5.024 8.383 5.144a.367.367 0 0 0 .29 0c.281-.118 7.03-2.95 8.392-5.164c.887-1.443.96-12.014.962-12.12a1.769 1.769 0 0 0-1.608-1.755m.01 13.5c-1.136 1.843-6.915 4.379-7.906 4.8c-.97-.43-6.566-2.967-7.927-4.833c-.608-.83-.834-7.62-.839-11.705c0-.59.283-.871 1.035-1.034a59.983 59.983 0 0 1 7.772-.446a59.16 59.16 0 0 1 7.69.446c.748.163 1.026.444 1.024 1.034c.002 2.1-.22 10.706-.85 11.73z"/></svg>