<svg xmlns="http://www.w3.org/2000/svg" width="1em" height="1em" viewBox="0 0 24 24"><path fill="currentColor" d="M8 2.29a.59.59 0 0 0-.59.59v18.24a.58.58 0 0 0 .59.59h7.41a.59.59 0 0 0 .62-.59V2.88a.6.6 0 0 0-.59-.59Zm0 .22h7.43a.38.38 0 0 1 .38.37v18.24a.38.38 0 0 1-.37.37H8a.37.37 0 0 1-.37-.37V2.88A.37.37 0 0 1 8 2.51m1.36 2.03l-.15.16v7.12h.33c.091-1.368 1.143-2.052 2.194-2.052c1.052 0 2.103.684 2.196 2.052h.34V4.7l-.15-.16zm2.33.83A1.65 1.65 0 0 1 13.31 7a1.63 1.63 0 0 1-1.62 1.61a1.62 1.62 0 0 1 0-3.24m0 .22v.02A1.4 1.4 0 1 0 13.08 7a1.43 1.43 0 0 0-1.39-1.41m.007.65a.75.75 0 0 1 .742.76a.75.75 0 0 1-.75.74a.75.75 0 0 1-.1-1.494a.75.75 0 0 1 .108-.006m-.008.5a.25.25 0 0 0 0 .5a.25.25 0 0 0 0-.5m.045 3.287c-1.15.032-1.913.838-1.94 1.989c.16 2.3 3.65 2.762 3.895-.02c-.062-1.229-.826-1.912-1.955-1.969m.04.383A1.54 1.54 0 0 1 13.278 12a1.54 1.54 0 0 1-1.539 1.49a1.54 1.54 0 0 1-.187-3.068a1.54 1.54 0 0 1 .22-.012m-.034.3a1.24 1.24 0 0 0 0 2.48a1.24 1.24 0 0 0 0-2.48m2.18 1.47c-.148 1.495-1.049 2.009-2.19 2.01a2.241 2.241 0 0 1-2.2-2h-.32v7.01l.15.16h4.76l.15-.16v-7.02z"/></svg>