<svg xmlns="http://www.w3.org/2000/svg" width="1em" height="1em" viewBox="0 0 32 32"><path fill="currentColor" d="m13.786 25.705l1.453-4.555l3.126-.458l1.955 5.069c-2.135.326-4.42.312-6.534-.056m-2.952-10.643a7639.3 7639.3 0 0 1 2.984-.442l.861 3.594l-2.955.44zm8.933 2.393l-3.103.463l-.858-3.588a449.84 449.84 0 0 1 3.107-.442zm7.102 6.986a1.003 1.003 0 0 0-1.364-.374c-.932.531-2.013.955-3.203 1.278l-1.909-4.95L26 19.574a2.998 2.998 0 0 0-3.385-2.545l-.861.129l-.848-3.535c.196-.024.367-.045.506-.06a1.043 1.043 0 0 1 1.023 1.039a1 1 0 1 0 2 0a3.047 3.047 0 0 0-3.044-3.043c-.018 0-.033.01-.051.011c-.018 0-.033-.007-.05-.006c-1.738.177-8.813 1.231-10.941 1.548L8.48 5.577A2.076 2.076 0 0 0 6.465 4H5l4.443 18l3.595-.526l-1.204 3.774c-1.052-.311-2.009-.703-2.847-1.181a1 1 0 0 0-.99 1.739c1.218.693 2.63 1.235 4.195 1.613a21.63 21.63 0 0 0 5.054.581c1.75 0 3.45-.195 5.054-.581c1.565-.377 2.976-.92 4.195-1.613c.479-.274.647-.884.374-1.365"/></svg>