<svg xmlns="http://www.w3.org/2000/svg" width="1em" height="1em" viewBox="0 0 32 32"><path fill="currentColor" d="M16.013 19.333v-6.666A3.337 3.337 0 0 1 19.346 16a3.337 3.337 0 0 1-3.333 3.333m0-8.333a5 5 0 0 1 5 5a5 5 0 0 1-5 5a5 5 0 0 1-5-5c0-1.579.747-2.971 1.891-3.887A4.948 4.948 0 0 1 16.013 11m0 12c.55 0 1 .45 1 1v3.013c0 .549-.45 1-1 1s-1-.451-1-1V24c0-.55.45-1 1-1m0-14c-.55 0-1-.45-1-1V5c0-.55.45-1 1-1s1 .45 1 1v3c0 .55-.45 1-1 1m-7 7c0 .55-.45 1-1 1H5c-.549 0-1-.45-1-1s.451-1 1-1h3.013c.55 0 1 .45 1 1m18-1c.55 0 1 .45 1 1s-.45 1-1 1h-3c-.55 0-1-.45-1-1s.45-1 1-1zm-17.33 5.916a1.003 1.003 0 0 1 1.414 0a1.003 1.003 0 0 1 0 1.414l-2.13 2.13c-.39.39-1.025.39-1.415 0a1.003 1.003 0 0 1 0-1.414zm12.629-9.871a1.003 1.003 0 0 1-1.414 0a1.003 1.003 0 0 1 0-1.414l2.12-2.121a1 1 0 0 1 1.415 1.414zm-12.644.06l-2.13-2.132a1.003 1.003 0 0 1 0-1.414a1.003 1.003 0 0 1 1.413 0l2.131 2.132a1.003 1.003 0 0 1 0 1.413a1.003 1.003 0 0 1-1.414 0m12.7 9.8l2.12 2.121a1.003 1.003 0 0 1 0 1.414a1.003 1.003 0 0 1-1.413 0l-2.122-2.12a1 1 0 0 1 1.415-1.415"/></svg>