<svg xmlns="http://www.w3.org/2000/svg" width="1em" height="1em" viewBox="0 0 24 24"><path fill="currentColor" d="m20 14.953l.512.768H22v-.334h-1.333v-.666H22v-.334h-1.667v-.666H22v-1.334h-1.667v-.666H22v-.334h-1.667v-.666H22v-.334h-1.667v-.666H22v-.334h-1.667v-.666H22v-.334h-2ZM20.97 4.4H3.03A1.031 1.031 0 0 0 2 5.426v12.607a1.031 1.031 0 0 0 1.03 1.03h17.94a1.031 1.031 0 0 0 1.03-1.03V16.4h-1.845l-.822-1.232V7.73H22v-2.3a1.031 1.031 0 0 0-1.03-1.03m-.637 12.667A.334.334 0 1 1 20 17.4a.334.334 0 0 1 .333-.337Zm-16.666.663A.334.334 0 1 1 4 17.4a.335.335 0 0 1-.333.33m0-11.334A.333.333 0 1 1 4 6.063a.334.334 0 0 1-.333.337Zm9.311 9.4A15.2 15.2 0 0 1 10.7 16.9c-.114-.512-.285-1.026-.4-1.538a11.679 11.679 0 0 0 2.987-1.708a5.654 5.654 0 0 0 2.449-3.5a2.937 2.937 0 0 0-.058-1c-.462-1.588-2.606-3.224-6.631-.54c-.42.245-1.11.739-1.11 1.223a.308.308 0 0 0 .2.285c.622.272 1.999-1.122 3.363-1.587a1.652 1.652 0 0 1 2.335.968a1.634 1.634 0 0 1-.056.74a4.227 4.227 0 0 1-1.795 1.851A11.74 11.74 0 0 1 8.653 13.6c-1.189.325-2.706.148-3.331-.912a2.5 2.5 0 0 1-.369-1.337a4.227 4.227 0 0 1 .369-1.566a6.6 6.6 0 0 1 1.708-2.16a11.82 11.82 0 0 1 2.22-1.538l-.027.029a3.137 3.137 0 0 1 .425-.227c.058.143.143.285.2.426a9.341 9.341 0 0 0-.911.512C4.75 9.37 5.392 12.261 7.2 12.52c1.233.231 2.746-.562 3.814-1.2c.809-.506 1.538-.989 1.538-1.566c0-.367-.423-.542-.769-.483c-1.114.279-2.605 1.82-3.842 1.82a.861.861 0 0 1-.912-.939a3.136 3.136 0 0 1 1.794-2.129a8.45 8.45 0 0 1 4.667-1.566c3.931.136 6.285 5.043-.512 9.337zm7.355-9.4a.333.333 0 1 1 .334-.333a.333.333 0 0 1-.334.337Z"/></svg>