<svg xmlns="http://www.w3.org/2000/svg" width="1em" height="1em" viewBox="0 0 24 24"><path fill="currentColor" d="M15.036 6.4c.514.494 1.029.992 1.214 1.184c.185.192.7.63 1.111.994a6.4 6.4 0 0 0-.518-.7a14.057 14.057 0 0 1 2.53.059a.83.83 0 1 0 .24-1.642a14.785 14.785 0 0 0-2.136-.093a21.865 21.865 0 0 0-2.458.187l.149.089q-.068-.047-.132-.078m6.893 3.743a1.786 1.786 0 0 0-.635-.985a2.155 2.155 0 0 0-1.019-.4a6.288 6.288 0 0 0-2.335.221c-.249.06-.507.129-.771.206c-.383-.385-1.969-1.96-3.279-3.278a6.459 6.459 0 0 0-.712-.182c.5.5 1.974 1.894 2.318 2.252c.227.233.96.915 1.37 1.3c-.208.064-.421.131-.637.2c-.1-.105-.2-.2-.225-.24c-.058-.078-2.166-2.193-3.558-3.615a6.86 6.86 0 0 0-.476-.019c-.072 0-.144.006-.216.011c.424.388.815.741.973.906c.3.315 1.495 1.4 1.875 1.8c.236.241.916.9 1.3 1.268q-.273.093-.552.193a2.588 2.588 0 0 1-.145-.159c-.064-.085-2.566-2.595-3.914-3.98a6.152 6.152 0 0 0-.632.1c.581.54 1.23 1.116 1.447 1.342c.3.315 1.5 1.33 1.885 1.726c.226.231.74.721 1.1 1.064c-.194.071-.391.144-.589.219c-.444-.457-3.094-3.076-4.238-4.25q-.26.072-.512.166c.632.6 1.463 1.332 1.714 1.593c.3.315 1.506 1.33 1.885 1.726c.213.219.59.553.917.853q-.349.133-.7.271c-.694-.726-3.261-3.357-4.155-4.31a6.058 6.058 0 0 0-.571.283c.639.628 1.642 1.463 1.926 1.76c.3.315 1.535 1.4 1.915 1.793c.24.245.351.277.663.561l-.611.241c-.621-.638-3.4-3.423-4.133-4.207q-.24.147-.465.317c.637.631 1.429 1.318 1.719 1.62c.29.302 1.66 1.4 2.04 1.793c.252.257.261.243.607.568l-.528.211l-.042.016a3.331 3.331 0 0 1-.285-.264c-.071-.1-2.7-2.754-3.7-3.806q-.225.183-.433.385a.377.377 0 0 0 .131.315c.623.579 1.518 1.318 1.808 1.62c.29.302 1.66 1.4 2.04 1.792c.036.037.066.068.094.1l-.456.182c-.481-.489-3.174-3.106-3.817-3.8a6.182 6.182 0 0 0-.408.477c.615.578 1.65 1.5 1.96 1.824c.31.324 1.033.877 1.417 1.277l.4.4l-.445.176c-.227-.249-2.684-2.711-3.439-3.526a6.371 6.371 0 0 0-.371.573c.558.48 1.774 1.62 2.1 1.956c.27.282.431.413.644.635c.084.088.307.3.515.514l.047.048l-.264.1c-.262-.261-.641-.638-.688-.7c-.078-.1-1.8-1.779-2.409-2.454a5.545 5.545 0 0 0-.091.17v-.007c-.5.245-.981.5-1.419.762a7.752 7.752 0 0 0-2.308 1.913a2.428 2.428 0 0 0-.324 2.549a2.075 2.075 0 0 0 1.9.955a8.154 8.154 0 0 0 2.151-.34a6.374 6.374 0 0 0 .967 1.387a16.873 16.873 0 0 1-2.592.158a.83.83 0 1 0-.073 1.657a22.262 22.262 0 0 0 4.494-.426a6.37 6.37 0 0 0 1.982.625c-1.1-1.037-2.9-2.747-3.79-3.69l.181-.059a716.475 716.475 0 0 0 3.834 3.776a6.509 6.509 0 0 0 .684.045c.153 0 .306-.01.459-.023c-.891-.864-3.062-2.975-4.139-4.083l.174-.062c.216.231.468.5.74.748c1.211 1.088 2.82 2.69 3.5 3.373a6.187 6.187 0 0 0 .844-.16c-.5-.464-2.876-2.683-4.435-4.2l.284-.106a442.724 442.724 0 0 1 4.385 4.246q.293-.087.574-.2c-.4-.378-2.816-2.688-4.407-4.257l.314-.122c1.589 1.546 3.97 3.96 4.3 4.292a6.348 6.348 0 0 0 .689-.36c-.419-.378-2.894-2.608-4.49-4.127l.332-.132a589.334 589.334 0 0 1 4.274 4.187a6.316 6.316 0 0 0 .534-.374c-.37-.351-2.739-2.608-4.2-4.057l.282-.112c.886.879 2.009 2.06 2.861 2.953c.587.615 1 1.035 1.124 1.163a6.42 6.42 0 0 0 .544-.486c-.3-.284-2.5-2.376-3.987-3.848l.066-.026l.323-.129c.847.839 1.861 1.888 2.653 2.718c.47.493.9.884 1.129 1.085c.141-.156.275-.318.4-.487c-.161-.139-2.368-2.06-3.841-3.452l.616-.243c.719.745 1.435 1.626 2.138 2.274a34.026 34.026 0 0 1 1.24 1.207q.138-.206.261-.42c-.718-.688-2.226-2.14-3.283-3.2l.444-.171c.714.742 1.425 1.615 2.123 2.259a8.842 8.842 0 0 1 .837.9a16.691 16.691 0 0 0 2.218-1.156a5.374 5.374 0 0 0 1.705-1.566a2.73 2.73 0 0 0 .374-2.1m-5.5 1.02c.572.6 1.051 1.161 1.67 1.733c.057.052.112.1.168.157c-.026.157-.058.31-.1.458c.013-.053.025-.1.036-.157c-.665-.59-1.535-1.355-2.3-2.008l.53-.183zM5.742 11.9c.169.081.812.714 1.275 1.068l-.272.088c-.296-.356-.995-1.084-1.003-1.156m1.919.847c-.067-.142-1.352-1.477-1.893-2.089l-.023-.026l.023-.1c.451.4 1.756 1.768 2.189 2.113zm.522-1.058a4.63 4.63 0 0 1 .6.557a.734.734 0 0 0 .056.069l-.276.1c-.039-.021-.066-.046-.067-.082c0-.08-1.948-1.9-2.523-2.541l.037-.1c.518.459 1.796 1.698 2.173 2.001zm-4.034 1.917c-.433 0-.451-.073-.451-.074c-.124-.234-.118-.367.192-.785a6.373 6.373 0 0 1 1.723-1.413a6.116 6.116 0 0 0 .108 2.023a6.852 6.852 0 0 1-1.572.249m10.892-1.9l-.035-.03l.481-.179c.664.657 1.335 1.32 1.98 1.914c.2.188.4.38.574.561a8.436 8.436 0 0 1-.106.3c-.75-.679-1.961-1.772-2.894-2.563zm3.12 1.86l-.006.025zm2-2.223a3.97 3.97 0 0 1-1.2 1.064q-.293.186-.645.375c.017-.135.029-.27.037-.406c-.489-.427-1.036-.9-1.548-1.341c.177-.058.351-.114.52-.166c.348.362.674.7 1.038 1.058c0-.183-.011-.367-.028-.549a2.135 2.135 0 0 0-.574-.637q.3-.084.568-.15a5.313 5.313 0 0 1 1.711-.192a.6.6 0 0 1 .253.078c.017.013.009-.011.024.051a.908.908 0 0 1-.157.818z"/></svg>