<svg xmlns="http://www.w3.org/2000/svg" width="1em" height="1em" viewBox="0 0 24 24"><path fill="currentColor" d="M2.69 2.87H3v19.32h-.31zm-1.32 0H2.5v19.32H1.37Zm1.88 17.6h6.07v1.73H3.25Zm6.31-17.6h1.16v19.32H9.56ZM5.65 16.44h3.67v3.79H5.65Zm0-4.14h3.67v3.79H5.65Zm0-4.15h3.67v3.79H5.65Zm-2.4-5.28h6.07v.87H3.25Zm2.4 1.14h3.67V7.8H5.65Zm-.28 16.22H3.25v-3.79h2.12Zm-1.92-.16h1.71v-3.46H3.45Zm1.92-3.98H3.25V12.3h2.12Zm-1.92-.17h1.71v-3.46H3.45Zm1.92-3.98H3.25V8.15h2.12Zm-1.92-.16h1.71V8.32H3.45ZM5.37 7.8H3.25V4h2.12Zm-1.92-.17h1.71V4.17H3.45Zm7.27-5.46v20H1.37v.76H22.7V2.14Zm1.38 20V3.23h9.36v19z"/></svg>