<svg xmlns="http://www.w3.org/2000/svg" width="1em" height="1em" viewBox="0 0 24 24"><path fill="currentColor" d="M2.9 2.48L3.6 19l16.2 3.1l.62-20.24Zm1.333.276l.643 15.503l4.204.716v.135l-4.39-.76l-.6-15.59ZM19.43 21.76l-15.6-3l-.66-16h.16L4 18.68l6.73 1.26l8.73 1.63zm0-.29l-8.58-1.61l.096-.06l-6.666-1.26L3.6 2.78h.27l.66 15.65l4.55.8v.05l2.11.4v.13l8.08 1.48l.54-18.69l-8.74.23l-2.23.082l.23 15.918l-4.023-.662L4.4 2.75L20 2.21Zm-8.26-2.41l-1.4-.23l-.284-15.269l1.584-.031l.06 7.47v8.45l-1.8-.32l-.25-15.559l.183-.008L9.54 19l1.65.27Zm5.404-15.618L16.3 19.86h.27l.414-16.695l.214-.008L16.8 19.94h.14l.502-16.793L19.54 3.1l-.49 17.43l-7.15-1.25v-16h.19l.016.226zM19.06 20.69v.19l-7.58-1.36l-.1-16.29h.22l.09 16.14zM11.08 3.51l.05 7.49Zm0 0l.05 7.49Zm-7.1 15.17h-.01zM20.9 2.03l-.21-.08l-.62 19.8l.19-.28zm0-.01l-.21-.08l-.62 19.79l.19-.27z"/></svg>