<svg xmlns="http://www.w3.org/2000/svg" width="1em" height="1em" viewBox="0 0 24 24"><path fill="currentColor" d="M21.21 2H1.991v20h20.018V2Zm-9.982 19.216H2.777v-.577h8.451zm0-1.238H2.777V19.4h8.451zm0-1.218H2.777v-.577h8.451zm0-1.238H2.777v-.577h8.451zm0-1.208H2.777v-.577h8.451zm0-1.255H2.777v-.577h8.451zm0-1.2H2.777v-.577h8.451zm-5.7-1.779v-.48h2.95v.48zm5.7-1.356H2.777v-.577h8.451zm0-1.238H2.777v-.58h8.451zm0-1.218H2.777v-.58h8.451zm0-1.238H2.777v-.579h8.451zm0-1.208H2.777v-.58h8.451zm0-1.255H2.777v-.58h8.451zm0-1.2H2.777v-.583h8.451zM21.21 21.52h-9.172V2.769h9.172z"/></svg>