<svg xmlns="http://www.w3.org/2000/svg" width="1em" height="1em" viewBox="0 0 24 24"><path fill="currentColor" d="M11.415 2.311c-.309.171-.6.331-.655.356a52.09 52.09 0 0 0-1.115.606c-.037.023-.995.544-1.093.594c-.05.025-.858.467-1.66.906c-.244.134-.461.25-.482.258a1.253 1.253 0 0 0-.126.064c-.048.028-.353.2-.678.375l-.885.486c-.162.09-.347.189-.41.219a9.057 9.057 0 0 0-.464.25c-.049.029-.329.183-.623.344l-.8.438c-.145.08-.269.146-.277.147a.4.4 0 0 0-.085.04l-.07.039V19.7h1.171v-3.864h1.126V19.7h4.263v-1.17H5.47v-3.864H3.163V8.143l.3-.163l.681-.374l.519-.282C4.866 7.216 6 6.6 6.142 6.518a25.5 25.5 0 0 1 .661-.361c.12-.061 1.549-.839 1.645-.9c.13-.076.484-.268.574-.31c.071-.034.382-.2.553-.3a.945.945 0 0 1 .1-.051s.005.288 0 .64v.641l-.175.097c-.094.051-.268.144-.388.205s-.308.162-.416.222c-.108.06-.442.244-.743.408c-.301.164-.576.316-.612.338c-.1.061-.374.207-.386.207c-.012 0-.757.4-.767.415c-.01.015-.249.139-.547.3c-.298.161-.58.316-.628.345a1.236 1.236 0 0 1-.205.109s-.125.063-.266.139l-.256.14v4.738h2.681v3.76h1.169v-3.88c0-2.194 0-3.88-.009-3.88A1.3 1.3 0 0 0 8 9.611a1.111 1.111 0 0 1-.135.072c-.007 0-.129.069-.27.152l-.44.258l-.183.107v2.16H5.47V9.506l.29-.16c.818-.45 1.533-.84 1.6-.874a60.094 60.094 0 0 0 1.1-.6a52.98 52.98 0 0 1 1.067-.58c.189-.098 1.2-.648 1.265-.691l.063-.039V3.946l.117-.064a24.884 24.884 0 0 0 .956-.514l.062-.038l.074.043c.144.084.748.409.816.439c.037.017.122.062.188.1l.7.384c.318.174.584.32.59.325c.021.017.612.336.667.361c.055.025.374.2.574.311l.082.047v1.28l-.134-.074c-.359-.2-.63-.346-.669-.363a6.52 6.52 0 0 1-.309-.163c-.146-.08-.536-.3-.868-.478a32.074 32.074 0 0 1-.671-.37a1.831 1.831 0 0 0-.2-.1c-.076-.031-.29-.152-.484-.257c-.194-.105-.346-.194-.346-.191c0 .003-.008 1.213-.012 2.69A203.71 203.71 0 0 1 11.972 10a.109.109 0 0 1-.033-.02a11.2 11.2 0 0 0-.524-.3a7.21 7.21 0 0 1-.336-.191c-.439-.257-1.4-.816-1.414-.82c-.014-.004-.009.894-.009 2v2l.035.023c.062.041.745.432.773.443c.028.011.348.192.372.212c.009.007.28.166.6.352c.32.186.637.37.7.408l.2.119c.109.06.11.052-.011.113a3.794 3.794 0 0 0-.222.123c-.066.04-.376.22-.688.4c-.312.18-.576.337-.585.345c-.009.008-.017-.016-.019-.279v-.3l-.052-.033a8.513 8.513 0 0 0-.441-.251a6.738 6.738 0 0 1-.352-.2a6.157 6.157 0 0 0-.309-.176c-.003 0 0 .733 0 1.628v1.629s.234-.131.511-.292l.522-.3l1.2-.688a.336.336 0 0 0 .049-.032s.181-.107.4-.23a210.185 210.185 0 0 0 2.236-1.295a1.561 1.561 0 0 0 .192-.12a2.029 2.029 0 0 0-.219-.136c-.12-.07-.232-.137-.25-.149c-.018-.012-.3-.174-.617-.36s-.6-.346-.615-.357a40.467 40.467 0 0 1-1.101-.632a43.497 43.497 0 0 0-1.087-.623a.078.078 0 0 1-.041-.011l-.023-.019v-1.293l.06.035l.109.062c.1.054.959.549 1.022.59c.112.071 1.033.6 1.045.6a.579.579 0 0 1 .119.065a2.043 2.043 0 0 0 .381.2l.25-.14c.746-.427.891-.512.891-.522a1.747 1.747 0 0 0-.21-.133a43.59 43.59 0 0 0-1.036-.594c-.008 0-.076-.038-.157-.084l-.149-.084V9.469c0-.668 0-1.592.007-2.052l.008-.838l.044.027c.044.026.782.427 1.755.954c.262.141.515.28.563.308c.172.1 1.119.612 1.135.612a.023.023 0 0 1 .02.009a1.337 1.337 0 0 0 .178.1s.006-.585.006-1.3v-1.3l.243.124c.134.069.359.188.5.267l.853.467c.328.178.6.331.612.338a59.595 59.595 0 0 1 1.432.777l.322.178v6.124H19.7V8.8l-.232-.124a21.316 21.316 0 0 0-.358-.189a2.16 2.16 0 0 1-.142-.076c-.027-.022-.946-.52-.96-.52a5.141 5.141 0 0 0-.008.664v.665l.268.145l.267.146V11l-.13-.076a1.312 1.312 0 0 0-.141-.076c-.012 0-.391-.218-.455-.262a26.47 26.47 0 0 0-.623-.366c-.323-.185-.636-.37-.705-.412a1.545 1.545 0 0 0-.186-.1a24.328 24.328 0 0 1-.814-.468a60.237 60.237 0 0 0-1.18-.683c-.009 0-.006.3-.006.675v.674l.04.027l.614.359c.314.183.6.349.63.369c.03.02.109.065.175.1c.131.069.918.523.944.545c.026.022.507.3 1.511.874l.325.187v3.065h2.3v5.4H19.7v-4.264h-1.17v4.263h-7.672V19.7h6.547v-1.17h-3.312v-1.06l.074-.046c.04-.025.334-.2.653-.381l.623-.364a.928.928 0 0 1 .093-.052c.052-.025.962-.551 1.054-.609a33.1 33.1 0 0 1 .432-.254l.377-.219v-2.411l-.373-.216c-.206-.118-.381-.22-.388-.227a27.11 27.11 0 0 0-.81-.462a3.183 3.183 0 0 0-.309.175c-.024.016-.224.133-.446.262a4.389 4.389 0 0 0-.4.245a2.727 2.727 0 0 0 .363.214c.067.035.2.113.306.173c.106.06.345.2.539.314l.352.205v1.049l-.358.209l-.546.32c-.1.061-.2.116-.218.122a24.15 24.15 0 0 0-.753.434c-.009.007-.269.16-.579.339c-.31.179-.583.339-.608.356a.263.263 0 0 1-.056.031a.688.688 0 0 0-.1.051l-.088.05v1.757h-3.25v2.3H1.994V22h20.012V7.431L21.9 7.38a13.97 13.97 0 0 1-.631-.34c-.03-.018-.288-.159-.574-.314s-.543-.3-.573-.315a7.235 7.235 0 0 0-.409-.22c-.026-.008-.2-.1-.4-.216c-1.006-.552-1.535-.84-1.729-.943c-.118-.062-.383-.207-.591-.32c-.715-.393-1.448-.794-1.541-.842c-.093-.048-.741-.4-1.659-.905a14.6 14.6 0 0 0-.52-.278a.818.818 0 0 1-.122-.063A41.74 41.74 0 0 0 11.993 2c-.015 0-.268.141-.578.311"/></svg>