<svg xmlns="http://www.w3.org/2000/svg" width="1em" height="1em" viewBox="0 0 300 300"><path fill="currentColor" d="M142 46c12.233-.162 20.734.689 29 4h3v1h2v1h3v1h2v1h2l1 2h2l1 2h2l2 3h2l5 6l2 1v2l3 2v2l2 1v2l2 1v2h1l1 5h1v3h1v3h1v6c.937 3.285 2.338 16.288 1 21h-1c-1.779 6.3.741 16.833-1 23l-2 61h-1v6h-1v4h-1v3h-1v2h-1v3h-1l-1 4h-1l-1 4l-2 1v2l-3 2v2l-6 5l-1 2h-2l-2 3h-2l-1 2l-6 2v1h-2v1h-3v1h-3v1h-3v1h-6v1c-7.607 2.152-26.541-2.038-31-4v-1l-4-1v-1l-4-1l-1-2h-2c-11.645-8.087-19.168-22.06-24-37l-1-22h-1l-1-43v-3h-1v-22h-1c-1.321-4.734.043-17.7 1-21v-6h1l1-6h1v-2h1l1-5h1l1-3l2-1v-2l3-2v-2l6-5l1-2h2l2-3h2l1-2h2l1-2h2v-1h2v-1h3v-1h2v-1h3v-1h3v-1h4v-1h6zm-1 8l-16 5c-13.4 6.954-23.922 17.739-29 33c-.96 2.887-2.139 21.982-1 26h1v23h1v1l1 45h1v8a33.72 33.72 0 0 0 2 12v4h1v3h1v2h1v3h1v2l2 1l1 4l3 2v2l5 4l2 3h2l1 2h2l1 2h2v1l4 1v1c3.877 1.692 22.294 4.961 29 3v-1h5v-1h3v-1h3v-1h2v-1l4-1l1-2h2l1-2h2l2-3l5-4v-2l3-2l1-4l2-1v-2h1v-3h1v-2h1v-3h1v-4a34.054 34.054 0 0 0 2-12v-8h1l1-46c1.712-6.179-.758-16.658 1-23h1c1.128-4.054-.025-23.107-1-26h-1v-3h-1v-3h-1l-1-4h-1v-2l-2-1v-2l-3-2v-2l-5-4l-1-2h-2l-2-3h-2l-1-2h-2v-1l-6-2v-1h-3v-1h-2v-1l-9-1v-1zm1 8c24.321-.392 35.091 4.969 45 19l3 2l3 9h1v2h1l1 22h-1v4h-1v3h-1v2h-1v3l-2 1l-1 4l-4 3v2h-1l-2 3h-2l-3 4l-4 1l-1 2c-2.294 1.392-5.286.949-8 2v1h-3v1h-6v1c-5.781 1.623-15.747-1.72-19-3l-6-1v-1h-2l-1-2l-4-1l-3-4h-2v-1l-3-2v-2l-4-3l-1-4l-2-1v-3h-1v-2h-1v-3h-1c-1.069-3.03-2.248-16.763-1-21h1v-5h1v-2h1v-3h1l2-6l3-2v-2l6-5l2-3h2l1-2l4-1l1-2h3v-1h2v-1c2.631-1.121 6-.251 8-2m0 8v1l-7 1v1l-4 1v1h-2c-7.477 4.749-14.088 14.7-17 24c-1.8 5.754.759 16.768 2 20v3h1v2h1v2l2 1v2l3 2v2l2 1v1h2l2 3h2l1 2h2v1l4 1v1c2.99 1.286 15.3 3.387 20 2v-1h5v-1h3v-1l4-1v-1h2l1-2h2l2-3h2l1-2h1v-2l3-2v-2l2-1l1-4h1l1-7c.869-2.772 2.381-11.727 1-16h-1l-1-6h-1l-1-4h-1v-2l-2-1c-8.642-12.781-17.36-16.335-39-16m-17 32c4.883-1.088 4.51-1.978 10-1c1.817 3.122 2.982 3.387 3 9c-1.139 1.139-.4 0-1 2c-2.986 1.335-5.05 2.008-10 2c-2.24-3.851-3.039-3.142-3-10c1.139-1.139.4 0 1-2m50 0a46.016 46.016 0 0 1 1 9c-3.851 2.24-3.142 3.039-10 3c-1.139-1.139 0-.4-2-1a17.815 17.815 0 0 1-2-9c3.256-1.895 3.633-3.731 9-4c1.166 1.361 1.825 1.528 4 2m-29 85l11 1c1.454 2.3 4.522 2.888 6 5c1.152 1.646 0 2.291 2 4c.314 4.241 1.728 8.171-1 11c-1.375 5.666-5.026 5.5-8 9c-4.423.336-9 1.9-12-1c-5.666-1.375-5.5-5.026-9-8l-1-7c.6-2.48 2.374-5.205 3-8l3-2v-1h2l1-2h3zm1 8c-1.72 2.135-2.033.566-3 4c-1.587 1.354-1.737 2.169-2 5c2.617 2.407 2.223 3.246 6 5v1c3.956 1.279 9.415-4 10-6c.579-1.976-1.446-5.722-2-7a17.815 17.815 0 0 0-9-2" class="cls-1"/></svg>