<svg xmlns="http://www.w3.org/2000/svg" width="1em" height="1em" viewBox="0 0 576 576"><path fill="currentColor" d="M59 295h-5c-3.174-4.773-4.181-7.919-4-17H12v-6h38v-13c1.834-1.285 1.712-1.968 4-3c1.295-.877 2.467-.894 5-1c-.345-11.04-3.176-33.971 5-37c5.86-4.391 23.544-2 33-2h398c15.065 0 32.985-.7 45 2c4.128 7.268 3 21.368 3 33c0 25.121 3.523 55.838-1 79c-9.247 5.229-26.175 4-41 4H108c-15.471 0-33.54.633-46-2c-4.517-7.9-3.128-24.549-3-37m6-72v104c25.773 2.922 56.5 1 84 1h305c27.166 0 57.555 1.9 83-1V223c-25.773-2.922-56.5-1-84-1H148c-27.166 0-57.555-1.9-83 1m253 13c16.782 5.133 25.715 5.46 34 19c15.31 25.021-4.325 52.518-25 58c-31.166 8.263-57.659-28.086-44-55c4.7-9.256 15.164-17.993 26-21c3.275-.909 6.81.291 9-1m81 0c14.145 4.354 24.741 5.335 32 16c16.943 24.894.605 54.742-23 61c-32.093 8.509-56.3-27.617-44-55c4.172-9.287 15.454-18.125 26-21c3.284-.895 6.81.291 9-1m82 0c14.145 4.354 24.741 5.335 32 16c16.943 24.894.605 54.742-23 61c-32.093 8.509-56.3-27.617-44-55c4.172-9.287 15.454-18.125 26-21c3.284-.895 6.81.291 9-1m-336 1h15v31h-14c-2.6-7.731-1.082-21.461-1-31m25 0h15v30c-3.609 1.24-9.883 1.071-15 1zm148 5c-3.063 1.795-8.329.59-12 2c-7.63 2.932-16.172 12.243-19 20c-8.531 23.4 14.774 50.209 40 43c15.66-4.475 31.711-26.29 21-47c-6.182-11.953-15.761-13.56-30-18m81 0c-2.671 1.56-7.845.83-11 2c-8.5 3.15-16.9 11.533-20 20c-8.576 23.446 14.858 50.221 40 43c15.922-4.573 33.058-28.854 20-49c-6.812-10.511-15.42-11.7-29-16m82 0c-2.671 1.56-7.845.83-11 2c-8.5 3.15-16.9 11.533-20 20c-8.576 23.446 14.858 50.221 40 43c15.922-4.573 33.058-28.854 20-49c-6.812-10.511-15.42-11.7-29-16m-329 1v19h2v-19zm24 0v19h2v-19zm-71 15a84.853 84.853 0 0 1 21 2c1.994 3.985 6.075 18.833 2 25c-2.683 8.171-15.265 6.406-26 6c-1.021-.8-.274-.355-2-1a18.047 18.047 0 0 0-3-4c-.389-9.669-2.188-23.39 5-26c.771-.682 2.232-1.311 3-2m199 0a30.439 30.439 0 0 1 7 1a21.509 21.509 0 0 1 1 7c-.8 1.021-.355.274-1 2h-2c-1.3.877-2.467.894-5 1c-3.259-4.9-3.106-6.1 0-11m81 0h6c1.372 2.542 1.917 3.5 2 8c-.8 1.021-.355.274-1 2h-2c-1.3.877-2.467.894-5 1c-3.259-4.9-3.106-6.1 0-11m82 0h6c1.372 2.542 1.917 3.5 2 8c-.8 1.021-.355.274-1 2h-2c-1.3.877-2.467.894-5 1c-3.259-4.9-3.106-6.1 0-11m-411 3v27h2v-27zm49 3c-2.381 4.5-2.125 12.667-2 20c4.611 1.573 12.8 1.076 19 1c1.573-4.611 1.076-12.8 1-19l-3-1c-2.811-1.854-10.487-1.128-15-1m223 17l6 1c2.748 5.96.885 6.97-3 11c-1.754-.631-.971-.193-2-1c-3.081-1.038-2.918-.967-4-4c-1.918-3.481.917-4.76 3-7m81 0l6 1v1h1c.257 3.2.994 3.191 0 5c-1.33 4.029-2.641 4.092-8 4a18.068 18.068 0 0 0-3-4a10.965 10.965 0 0 1 2-5c.74-.872 1.26-1.128 2-2m82 0l6 1v1h1c.257 3.2.994 3.191 0 5c-1.33 4.029-2.641 4.092-8 4a18.068 18.068 0 0 0-3-4a10.965 10.965 0 0 1 2-5c.74-.872 1.26-1.128 2-2m-331 1v31h-15v-30c3.609-1.24 9.883-1.071 15-1m10 0h14c2.6 7.731 1.082 21.461 1 31h-15zm-18 6v19h2v-19zm24 0v19h2v-19z" class="cls-1"/></svg>