<svg xmlns="http://www.w3.org/2000/svg" width="1em" height="1em" viewBox="0 0 24 24"><path fill="currentColor" d="M9.05 7.58v9c0 .615.46 1.134 1.07 1.21l2.49.26A1.08 1.08 0 0 0 13.7 17l.05-9a1.15 1.15 0 0 0-1.06-1.15L10 6.64a1 1 0 0 0-.95.94m3.8 8.76c-.5-.06-1.94-.21-2-.23a.33.33 0 0 1-.17-.3l.09-8.27l1.78.13a.48.48 0 0 1 .29.39zm8.58 2.13v-.01l.01-.1zM3.46 3.29a3.54 3.54 0 0 1 1.67-.16c2.53.12 4.58.21 9.5.52c1.87.12 4.49.31 5.15.48a2 2 0 0 1 1.31 1.5L21 19.78c0 .15.31-.19.38-.73v-.69L21.5 5c0-1.26-1.53-1.55-1.71-1.58c-1-.21-13.8-.92-14.4-.89a3.53 3.53 0 0 0-1.93.76M2.5 17.28c0 1.26.35 2.35 2 2.62l4.05.52l6.07.61l4.28.46A1.55 1.55 0 0 0 20.63 20l.12-14.1A1.53 1.53 0 0 0 20 4.7a1.74 1.74 0 0 0-1-.37C18 4.11 4.3 3.3 3.71 3.4c-1.11.19-1 1-1 1.23zM8.842 6.487c.188-.173.265-.28.887-.33L13 6.35c.319.02.622.147.86.36a1 1 0 0 1 .3.72c.006.07.006.14 0 .21v10.13s-.08.74-.67.71l-4.4-.473c-.24-.097-.513-.5-.567-.753l.019-9.962c.046-.532.142-.611.3-.805"/></svg>