<svg xmlns="http://www.w3.org/2000/svg" width="1em" height="1em" viewBox="0 0 24 24"><path fill="currentColor" d="M21.696 15.295c-.605.48-1.517.928-2.98.54L2.204 9.912l-.002-.077l16.524 5.913c1.82.47 2.813-.39 2.974-.546zm-.008.184c-.604.478-1.516.92-2.973.533L2.208 10.08l-.002-.093l16.502 5.94c1.86.481 2.856-.43 2.984-.556zm-.006.152c-.506.517-1.577.906-2.986.557l-16.475-5.95l-.006-.082l16.494 5.95c1.825.471 2.819-.397 2.975-.55zm-.006.167c-.508.512-1.575.896-2.978.55L2.225 10.393l-.003-.071l16.46 5.936h.003c1.885.488 2.889-.435 2.994-.538zm-.006.166c-.511.51-1.575.888-2.971.543L2.231 10.552l-.002-.082l16.454 5.949h.003c1.85.478 2.85-.401 2.987-.532zm-.008.178c-.54.64-1.962.829-2.933.533l-16.433-5.92c-.002 0-.03-.025-.059-.048l-.002-.07l16.447 5.942h.003c1.82.47 2.818-.373 2.98-.526zM2.2 9.679l16.528 5.903c1.85.478 2.846-.42 2.983-.553l-.003.092c-.605.48-1.515.92-2.97.533l-16.534-5.9Zm-.006-.19l16.567 5.901c1.766.457 2.753-.34 2.958-.532l-.003.092c-.603.48-1.516.927-2.977.539L2.199 9.59Zm-.006-.181l16.573 5.9c1.79.463 2.782-.364 2.966-.54l-.005.109c-.603.473-1.51.903-2.954.52l-16.574-5.9Zm-.003-.085l-.002-.091l16.58 5.883c1.823.471 2.815-.393 2.975-.548l-.006.121c-.604.476-1.513.91-2.962.526zm-.01-.256l16.589 5.846l.008.001c1.812.467 2.803-.382 2.973-.546l-.006.12c-.604.478-1.515.92-2.971.534L2.177 9.06zm-.006-.16l16.605 5.822c1.844.477 2.84-.414 2.982-.553l-.006.115c-.604.476-1.514.916-2.967.53L2.172 8.89Zm-.005-.147l16.61 5.773c1.867.483 2.866-.408 2.988-.525l-.003.09c-.604.48-1.515.926-2.976.539l-16.615-5.8Zm-.006-.145l16.633 5.723c1.833.473 2.829-.377 2.98-.52l-.003.043l-.003.037c-.881.832-2.289.76-2.987.537L2.161 8.579Zm-.006-.197l16.647 5.695c-.045-.066-.006-.003 0 0c1.425.384 2.607-.202 2.986-.574l-.009.168c-.882.827-2.285.755-2.981.532L2.154 8.435Zm-.006-.093s-.032-.02 0 0l16.508 5.644c1.305.401 2.816-.022 3.136-.602c-.806.334-1.988.79-3.136.602zm19.558 7.934l.154-3.13l-.006.017c0-.28-.292-.576-1.014-.82L4.963 7.456c-.304-.101-1.704-.304-2.643.289c-.188.118-.255.26-.226.379l.092 2.592c.002.065.033.177.207.246l16.286 5.966c2.026.524 3.042-.494 3.025-.766z"/></svg>