<svg xmlns="http://www.w3.org/2000/svg" width="1em" height="1em" viewBox="0 0 24 24"><path fill="currentColor" d="m21.12 14.479l.02-.517a.058.058 0 0 1 .043-.054l.078-.02c.039-.01.074.02.072.059l-.014.513a.056.056 0 0 1-.045.055l-.083.022a.058.058 0 0 1-.071-.058m.021-.98v.158c0 .031.029.054.059.046l.12-.028a.047.047 0 0 0 .035-.046v-.151a.046.046 0 0 0-.056-.046l-.12.022c-.022.002-.038.023-.038.045m.864-.45a.08.08 0 0 0-.01-.019c.004.007.008.013.01.019m-.212.225l-.372.089c-.01-.01-.01-.02-.02-.03c-.03-.02-.06-.03-.09-.02l-.212.047c-.04.011-.08.04-.08.08l-2.38.571v-.082l3.144-.751c.01.01.01.01.01.021zm0 .16l-.352.09v-.07l.352-.078zm0 .172l-.36.09v-.07l.36-.091zm0 .193l-.36.08v-.08l.36-.092zm0 .189l-.36.08v-.088l.36-.081zm0 .176l-.36.087v-.091l.36-.084zm-.003.169l-.356.088l-.002-.09l.358-.085zm0 .092l.003.076l-.392.097s.04-.067.04-.087m-.073.033c0 .032-.027.054-.047.054l-.18.05c-.021 0-.04 0-.051-.011a.078.078 0 0 1-.02-.05l.008-1.118c0-.038.016-.053.052-.066l.19-.04h.01c.045-.01.062.04.062.05zm.404.073v.02a.183.183 0 0 1-.14.111l-2.802.769c-.06.01-.11 0-.15-.03c-.02-.01-.03-.03-.04-.061c0 0-.01-.01-.01-.02c0 0 .01-.01.01-.02v.02c1.044-.263 2.088-.556 3.132-.82zm-3.132.607l2.38-.617c0 .02.02.05.04.07l-2.42.639zm0-.172l2.38-.617v.09l-2.38.608zm0-.193l2.38-.603v.089l-2.38.595zm0-.192l2.38-.583v.08l-2.38.605zm0-.202l2.38-.58v.087l-2.38.594zm0-.172l2.38-.571v.069l-2.38.573zm0-.182l2.38-.565v.085l-2.38.561zm.242-.425l2.72-.637c.02-.009.041-.009.05-.009c.031 0 .06.01.09.03l.01.01l.011.01l-3.103.728c.04-.06.12-.101.222-.132m2.98-.566c0-.01-.008-.03-.008-.04a.277.277 0 0 0-.112-.091c-.07-.03-.13-.02-.15-.02c-.913.212-1.828.424-2.731.637c-.12.04-.211.09-.261.171c-.01.01-.01.022-.01.03c-.01.01-.01.021-.01.032c0 .01 0 .02-.01.04c0 .01 0 .02-.01.03l-.01 1.436l.01.07v.031c.03.07.06.111.11.122c.02.01.041.02.05.02c.05.02.1.01.13.01l2.802-.769a.231.231 0 0 0 .14-.08a.348.348 0 0 0 .05-.092c.012-.02.012-.03.012-.04l.029-1.416c-.01-.03-.01-.05-.02-.08m.13.139l-.04 1.385c0 .132-.09.253-.21.314l-2.963.788h-.02a.336.336 0 0 1-.24-.05c-.01-.01-.017-.008-.027-.018l-.027-.022l-.022-.027l-.022-.021c-.04-.052-.033-.094-.033-.155v-1.567c.02-.112.09-.304.412-.395l2.73-.637c.112-.02.462-.038.462.405M4.744 7.637c-.041-.01-.041-.07.01-.08l.44-.051L20.61 12.44l-.503.112c-.1.02-.201.02-.292-.01zm17.07 5.036c-5.653-1.78-11.217-3.58-16.86-5.36a.194.194 0 0 0-.13-.01l-2.621.395a.294.294 0 0 0-.251.293v1.214a.3.3 0 0 0 .19.283l.312.121l-.161-.202c-.02-.03.01-.081.05-.06l14.6 5.571c.08.03.15.081.19.162l.191.273L2.39 9.527l.065.082l15.895 6.25l.039.015c.08.07.262.055.363.045l2.953-.839s.137-.034.217-.1c.11-.08.113-.203.113-.335l.04-1.385c0-.04.012-.479-.26-.587m-3.174 2.712v.022h-.01s.01-.012.01-.022"/></svg>