<svg xmlns="http://www.w3.org/2000/svg" width="1em" height="1em" viewBox="0 0 24 24"><path fill="currentColor" d="M17.442 4.75v14.64h4.081V4.75Zm2.041 7.38a.911.911 0 1 1 .911-.912a.911.911 0 0 1-.91.911m0-2.439a.911.911 0 1 1 .911-.91a.911.911 0 0 1-.91.91m0-2.405a.911.911 0 1 1 .911-.91a.911.911 0 0 1-.91.91M2.523 19.391h4.081V4.75h-4.08zm2.04-13.91a.911.911 0 1 1-.91.911a.911.911 0 0 1 .91-.91m0 2.405a.911.911 0 1 1-.91.911a.911.911 0 0 1 .91-.91m0 2.438a.911.911 0 1 1-.91.911a.911.911 0 0 1 .91-.91m2.678 9.067h9.62v-3.49h-9.62Zm8.39-2.533a.754.754 0 1 1-.755.754a.755.755 0 0 1 .754-.754m-5.648.1h4.14v1.312h-4.14Zm-1.444-.1a.754.754 0 1 1-.754.754a.754.754 0 0 1 .754-.754"/></svg>