<svg xmlns="http://www.w3.org/2000/svg" width="1em" height="1em" viewBox="0 0 24 24"><path fill="currentColor" d="M15.96 7.8a2.08 2.08 0 0 1 .1.63a23.213 23.213 0 0 0 1.02 6.42a18.866 18.866 0 0 1 2.89.36a22.162 22.162 0 0 1-1.09-6.44a.749.749 0 0 0-.18-.5l-.31-.36a19.447 19.447 0 0 0-2.32-.13a.215.215 0 0 1-.11.02m-7.53-.685l.28-.33l.01-.01a.808.808 0 0 1 0-.31l.35-2.21l-.35-.41a.646.646 0 0 0-.53-.25h-.51a.714.714 0 0 0-.55.25l-.35.41a.462.462 0 0 1-.07.07l-.33.3a.63.63 0 0 0-.21.4l-.36 2.18c.73-.07 1.54-.1 2.11-.1c.16 0 .33.01.51.01m5.87-.49L13.92 4.2a.741.741 0 0 0-.22-.45l-.36-.33a.462.462 0 0 1-.07-.07l-.38-.46a.764.764 0 0 0-.6-.28h-.56a.711.711 0 0 0-.58.28l-.38.46a.462.462 0 0 1-.07.07l-.36.33a.728.728 0 0 0-.23.45l-.39 2.43a24.508 24.508 0 0 1 4.58-.005m.98.15l.01.01l.28.33c.18 0 .35-.01.51-.01c.57 0 1.38.03 2.11.1l-.36-2.18a.63.63 0 0 0-.21-.4l-.33-.3a.462.462 0 0 1-.07-.07l-.35-.41a.714.714 0 0 0-.55-.25h-.51a.646.646 0 0 0-.53.25l-.35.41l.35 2.21a.808.808 0 0 1 0 .31m-7.49 8.78a20.144 20.144 0 0 1 4.22-.43a19.755 19.755 0 0 1 4.23.44a24.663 24.663 0 0 1-1.18-7.18a.837.837 0 0 0-.19-.55l-.34-.4a18.657 18.657 0 0 0-2.52-.15a20.452 20.452 0 0 0-2.52.15l-.34.4a.785.785 0 0 0-.18.54a25.031 25.031 0 0 1-1.18 7.18m12.48.46a14 14 0 0 0-3.05-.45c0 .04.01.09.01.14a.962.962 0 0 1 .23.3l.03.07c.36.72 1.34 2.71.53 4.25a4.834 4.834 0 0 0 2.48-.87c1.07-.98.1-2.8-.23-3.44m-8.27-.1a16.73 16.73 0 0 0-4.55.54c-.36.72-1.41 2.74-.25 3.84c1.25 1.17 4.58 1.1 4.79 1.1c.21 0 3.56.07 4.81-1.1c1.16-1.09.11-3.12-.25-3.84a16.673 16.673 0 0 0-4.55-.54m-5.08-1.07a23.213 23.213 0 0 0 1.02-6.42a2.08 2.08 0 0 1 .1-.63a.215.215 0 0 1-.11-.02a19.447 19.447 0 0 0-2.32.13l-.31.36a.749.749 0 0 0-.18.5a22.162 22.162 0 0 1-1.09 6.44a18.866 18.866 0 0 1 2.89-.36m-.14.72a14 14 0 0 0-3.05.45c-.33.64-1.3 2.46-.23 3.44a4.834 4.834 0 0 0 2.48.87c-.81-1.54.17-3.53.53-4.25l.03-.07a.962.962 0 0 1 .23-.3c0-.05.01-.1.01-.14"/></svg>