<svg xmlns="http://www.w3.org/2000/svg" width="1em" height="1em" viewBox="0 0 24 24"><path fill="currentColor" d="M17.5 2h-11A4.5 4.5 0 0 0 2 6.5v11A4.5 4.5 0 0 0 6.5 22h11a4.5 4.5 0 0 0 4.5-4.5v-11A4.5 4.5 0 0 0 17.5 2M8.1 5.281a6.894 6.894 0 0 1 7.789 0a.391.391 0 1 1-.442.645a6.118 6.118 0 0 0-6.9 0h-.006l-.034.024l-.011.007l-.012.009l.012-.009l.011-.007l.034-.024h.006a.392.392 0 0 1-.447-.645m5.8 2.7a.391.391 0 0 1-.482.616a2.285 2.285 0 0 0-2.835.018a.395.395 0 1 1-.496-.615a3.071 3.071 0 0 1 1.92-.676a3.032 3.032 0 0 1 1.893.654ZM11.984 6.45a3.916 3.916 0 0 0-2.367.788a.391.391 0 1 1-.469-.625a4.723 4.723 0 0 1 5.691.015a.391.391 0 1 1-.473.623a3.906 3.906 0 0 0-2.382-.801M5.6 14.275c-1.035 0-2.174-.319-2.269-1.535h1.713a.5.5 0 0 0 .189.414a.729.729 0 0 0 .441.138c.276 0 .569-.086.569-.406c0-.725-2.77-.146-2.77-1.9c0-1.156 1.2-1.493 2.14-1.493c.984 0 2.14.224 2.244 1.424H6.226a.471.471 0 0 0-.173-.328a.564.564 0 0 0-.362-.112c-.311 0-.509.1-.509.319c0 .63 2.856.207 2.856 1.9c0 .941-.777 1.579-2.438 1.579m3.85-2.493L7.961 9.625h1.993l.57 1.13l.6-1.13H13.1l-1.544 2.148l1.562 2.373h-2l-.639-1.294l-.656 1.294H7.831Zm4.45 4.094a3.037 3.037 0 0 1-1.888.649a3.076 3.076 0 0 1-1.92-.675a.392.392 0 1 1 .491-.61a2.283 2.283 0 0 0 2.835.019a.391.391 0 0 1 .482.617m.471.726a.391.391 0 1 1 .473.623a4.727 4.727 0 0 1-5.691.015a.391.391 0 0 1-.078-.548a.39.39 0 0 1 .547-.077a3.946 3.946 0 0 0 4.749-.013m1.521 1.974a6.9 6.9 0 0 1-7.789 0a.392.392 0 0 1 .444-.645a6.116 6.116 0 0 0 6.9.006a.391.391 0 1 1 .442.644zm4.764-4.43h-1.8v-2.3c0-.664-.043-.932-.518-.93c-.5 0-.5.456-.5 1v2.235h-1.8v-2.3c0-.664-.039-.919-.518-.931c-.479-.012-.505.457-.505 1v2.235h-1.79v-4.53h1.648v.675a1.559 1.559 0 0 1 1.28-.8a1.427 1.427 0 0 1 1.417.827a1.549 1.549 0 0 1 1.383-.827c1.138 0 1.7.741 1.7 1.975zM17.5 2h-11A4.5 4.5 0 0 0 2 6.5v11A4.5 4.5 0 0 0 6.5 22h11a4.5 4.5 0 0 0 4.5-4.5v-11A4.5 4.5 0 0 0 17.5 2M8.1 5.281a6.894 6.894 0 0 1 7.789 0a.391.391 0 1 1-.442.645a6.118 6.118 0 0 0-6.9 0h-.006l-.034.024l-.011.007l-.012.009l.012-.009l.011-.007l.034-.024h.006a.392.392 0 0 1-.447-.645m5.8 2.7a.391.391 0 0 1-.482.616a2.285 2.285 0 0 0-2.835.018a.395.395 0 1 1-.496-.615a3.071 3.071 0 0 1 1.92-.676a3.032 3.032 0 0 1 1.893.654ZM11.984 6.45a3.916 3.916 0 0 0-2.367.788a.391.391 0 1 1-.469-.625a4.723 4.723 0 0 1 5.691.015a.391.391 0 1 1-.473.623a3.906 3.906 0 0 0-2.382-.801M5.6 14.275c-1.035 0-2.174-.319-2.269-1.535h1.713a.5.5 0 0 0 .189.414a.729.729 0 0 0 .441.138c.276 0 .569-.086.569-.406c0-.725-2.77-.146-2.77-1.9c0-1.156 1.2-1.493 2.14-1.493c.984 0 2.14.224 2.244 1.424H6.226a.471.471 0 0 0-.173-.328a.564.564 0 0 0-.362-.112c-.311 0-.509.1-.509.319c0 .63 2.856.207 2.856 1.9c0 .941-.777 1.579-2.438 1.579m3.85-2.493L7.961 9.625h1.993l.57 1.13l.6-1.13H13.1l-1.544 2.148l1.562 2.373h-2l-.639-1.294l-.656 1.294H7.831Zm4.45 4.094a3.037 3.037 0 0 1-1.888.649a3.076 3.076 0 0 1-1.92-.675a.392.392 0 1 1 .491-.61a2.283 2.283 0 0 0 2.835.019a.391.391 0 0 1 .482.617m.471.726a.391.391 0 1 1 .473.623a4.727 4.727 0 0 1-5.691.015a.391.391 0 0 1-.078-.548a.39.39 0 0 1 .547-.077a3.946 3.946 0 0 0 4.749-.013m1.521 1.974a6.9 6.9 0 0 1-7.789 0a.392.392 0 0 1 .444-.645a6.116 6.116 0 0 0 6.9.006a.391.391 0 1 1 .442.644zm4.764-4.43h-1.8v-2.3c0-.664-.043-.932-.518-.93c-.5 0-.5.456-.5 1v2.235h-1.8v-2.3c0-.664-.039-.919-.518-.931c-.479-.012-.505.457-.505 1v2.235h-1.79v-4.53h1.648v.675a1.559 1.559 0 0 1 1.28-.8a1.427 1.427 0 0 1 1.417.827a1.549 1.549 0 0 1 1.383-.827c1.138 0 1.7.741 1.7 1.975zM17.5 2h-11A4.5 4.5 0 0 0 2 6.5v11A4.5 4.5 0 0 0 6.5 22h11a4.5 4.5 0 0 0 4.5-4.5v-11A4.5 4.5 0 0 0 17.5 2M8.1 5.281a6.894 6.894 0 0 1 7.789 0a.391.391 0 1 1-.442.645a6.118 6.118 0 0 0-6.9 0h-.006l-.034.024l-.011.007l-.012.009l.012-.009l.011-.007l.034-.024h.006a.392.392 0 0 1-.447-.645m5.8 2.7a.391.391 0 0 1-.482.616a2.285 2.285 0 0 0-2.835.018a.395.395 0 1 1-.496-.615a3.071 3.071 0 0 1 1.92-.676a3.032 3.032 0 0 1 1.893.654ZM11.984 6.45a3.916 3.916 0 0 0-2.367.788a.391.391 0 1 1-.469-.625a4.723 4.723 0 0 1 5.691.015a.391.391 0 1 1-.473.623a3.906 3.906 0 0 0-2.382-.801M5.6 14.275c-1.035 0-2.174-.319-2.269-1.535h1.713a.5.5 0 0 0 .189.414a.729.729 0 0 0 .441.138c.276 0 .569-.086.569-.406c0-.725-2.77-.146-2.77-1.9c0-1.156 1.2-1.493 2.14-1.493c.984 0 2.14.224 2.244 1.424H6.226a.471.471 0 0 0-.173-.328a.564.564 0 0 0-.362-.112c-.311 0-.509.1-.509.319c0 .63 2.856.207 2.856 1.9c0 .941-.777 1.579-2.438 1.579m3.85-2.493L7.961 9.625h1.993l.57 1.13l.6-1.13H13.1l-1.544 2.148l1.562 2.373h-2l-.639-1.294l-.656 1.294H7.831Zm4.45 4.094a3.037 3.037 0 0 1-1.888.649a3.076 3.076 0 0 1-1.92-.675a.392.392 0 1 1 .491-.61a2.283 2.283 0 0 0 2.835.019a.391.391 0 0 1 .482.617m.471.726a.391.391 0 1 1 .473.623a4.727 4.727 0 0 1-5.691.015a.391.391 0 0 1-.078-.548a.39.39 0 0 1 .547-.077a3.946 3.946 0 0 0 4.749-.013m1.521 1.974a6.9 6.9 0 0 1-7.789 0a.392.392 0 0 1 .444-.645a6.116 6.116 0 0 0 6.9.006a.391.391 0 1 1 .442.644zm4.764-4.43h-1.8v-2.3c0-.664-.043-.932-.518-.93c-.5 0-.5.456-.5 1v2.235h-1.8v-2.3c0-.664-.039-.919-.518-.931c-.479-.012-.505.457-.505 1v2.235h-1.79v-4.53h1.648v.675a1.559 1.559 0 0 1 1.28-.8a1.427 1.427 0 0 1 1.417.827a1.549 1.549 0 0 1 1.383-.827c1.138 0 1.7.741 1.7 1.975z"/></svg>