<svg xmlns="http://www.w3.org/2000/svg" width="1em" height="1em" viewBox="0 0 24 24"><path fill="currentColor" d="m15.645 14.477l-.084-9.384c-.012-.327.476-2.002-4.25-2.038c-4.85-.043-4.178 1.738-4.184 1.909l-.006 9.773s.006.598.017 2.316l.076.746s.106 2.48 3.969 2.468c3.863-.013 4.307-1.573 4.443-2.34l-.008-.935c.03-.833.027-2.515.027-2.515m-.618 1.87c-.538.785-3.03 1-3.673 1.038c-.572.034-2.953-.15-3.458-.901c-.218-.289-.193-1.728-.193-1.728l.095-9.644s3.136.56 3.45.384c.222-.125-3.466-.339-3.451-.784c.013-.399.28-.91 3.378-.91h.132c2.876.022 3.765.695 3.633.988c-.151.336-3.684.65-3.377.717c.502.11 3.402-.388 3.402-.388l.114 9.357s.032 1.021-.052 1.87"/></svg>