<svg xmlns="http://www.w3.org/2000/svg" width="1em" height="1em" viewBox="0 0 24 24"><path fill="currentColor" d="M13.274 6.949a1.281 1.281 0 0 0-1.168-1.268V2h-.252v3.681a1.281 1.281 0 0 0-1.168 1.268a1.261 1.261 0 0 0 .074.369h2.44a1.262 1.262 0 0 0 .074-.369m4.397-1.268V2h-.252v3.681a1.281 1.281 0 0 0-1.168 1.268a1.262 1.262 0 0 0 .075.369h2.439a1.261 1.261 0 0 0 .074-.369a1.281 1.281 0 0 0-1.168-1.268M7.634 7.318a1.262 1.262 0 0 0 .075-.369a1.281 1.281 0 0 0-1.168-1.268V2h-.252v3.681a1.281 1.281 0 0 0-1.168 1.268a1.261 1.261 0 0 0 .074.369Zm1.976 5.629h-2.6a.9.9 0 0 0-.914.882v3.483a.88.88 0 0 0 .755.851v2.583h.312v-2.552h2.4v2.552h.312v-2.6a.877.877 0 0 0 .648-.83v-3.487a.9.9 0 0 0-.913-.882m7.996 0H15a.9.9 0 0 0-.913.882v3.483a.88.88 0 0 0 .755.851v2.583h.312v-2.552h2.4v2.552h.311v-2.6a.875.875 0 0 0 .648-.83v-3.487a.9.9 0 0 0-.907-.882M2.598 15.345h.541v5.367h.684v-5.367h2.019v-.865H2.598Zm8.175-.865h3.066v.865h-3.066zm7.997 0v.865h1.443v5.367h.684v-5.367h.505v-.865Z"/></svg>