<svg xmlns="http://www.w3.org/2000/svg" width="1em" height="1em" viewBox="0 0 24 24"><path fill="currentColor" d="M9.08 8.82c0 .3-.25.55-.55.55c-.3 0-.55-.25-.55-.55c0-.3.25-.55.55-.55c.3 0 .55.24.55.55m-.47 6.22c0 .3-.25.55-.55.55c-.3 0-.55-.25-.55-.55c0-.3.25-.55.55-.55c.3 0 .55.24.55.55m.57.13c-.3 0-.55.25-.55.55c0 .3.25.55.55.55c.3 0 .55-.25.55-.55c0-.3-.24-.55-.55-.55m-1.12.63c-.3 0-.55.25-.55.55c0 .3.25.55.55.55c.3 0 .55-.25.55-.55c0-.31-.25-.55-.55-.55m7.43.55c0 .3-.25.55-.55.55c-.3 0-.55-.25-.55-.55c0-.3.25-.55.55-.55c.3 0 .55.24.55.55m-.55-1.86c-.3 0-.55.25-.55.55c0 .3.25.55.55.55c.3 0 .55-.25.55-.55c0-.31-.25-.55-.55-.55m1.31 0c-.3 0-.55.25-.55.55c0 .3.25.55.55.55c.3 0 .55-.25.55-.55a.555.555 0 0 0-.55-.55m0 1.31c-.3 0-.55.25-.55.55c0 .3.25.55.55.55c.3 0 .55-.25.55-.55a.555.555 0 0 0-.55-.55m-.05-6.23c0 .3-.25.55-.55.55c-.3 0-.55-.25-.55-.55c0-.3.25-.55.55-.55c.31 0 .55.25.55.55m-.55-1.86c-.3 0-.55.25-.55.55c0 .3.25.55.55.55c.3 0 .55-.25.55-.55c0-.3-.24-.55-.55-.55M12 3.76c-4.58 0-8.31 3.73-8.31 8.31s3.73 8.31 8.31 8.31s8.31-3.73 8.31-8.31c0-4.59-3.73-8.31-8.31-8.31m7.33 7.81H12.5V4.74c3.65.25 6.58 3.17 6.83 6.83M11.5 4.74v6.83H4.67a7.361 7.361 0 0 1 6.83-6.83m-6.83 7.83h6.83v6.83c-3.65-.26-6.58-3.18-6.83-6.83m7.83 6.82v-6.83h6.83a7.361 7.361 0 0 1-6.83 6.83M12 1.75c-5.7 0-10.32 4.62-10.32 10.32S6.3 22.38 12 22.38s10.32-4.62 10.32-10.32S17.7 1.75 12 1.75m0 19.63c-5.14 0-9.32-4.18-9.32-9.32c0-5.14 4.18-9.32 9.32-9.32s9.32 4.18 9.32 9.32c0 5.14-4.18 9.32-9.32 9.32"/></svg>