<svg xmlns="http://www.w3.org/2000/svg" width="1em" height="1em" viewBox="0 0 24 24"><path fill="currentColor" d="M9.725 10.18a1.3 1.3 0 0 0-.9-.323a9.461 9.461 0 0 0-2.318 0c-.674.085-.836.161-.988.465a8.539 8.539 0 0 0-.162 2.9c.067.608.133.79.333 1c.247.247.276.247 1.748.275c2.536.057 2.6-.019 2.565-2.47c-.031-1.572-.031-1.6-.278-1.847m-1.244.931c.38.03.447.057.475.237c.029.2 0 .22-.447.22s-.484-.02-.484-.248s.019-.238.456-.209m-1.671-.209a.611.611 0 0 1 .38.162c.209.19.218.351.019.541c-.285.285-.893.1-.893-.275a.55.55 0 0 1 .494-.428m1 2.537a1.461 1.461 0 0 1-1.016-.229c-.285-.142-.532-.34-.551-.437c-.038-.2-.028-.2.371 0a2.9 2.9 0 0 0 2.023.048c.409-.18.437-.19.437-.028c-.004.237-.678.59-1.264.644zm4.272-10.884h-9.5v19h19v-19ZM10.505 14.81c-.36.427-.817.5-2.84.5c-2 0-2.432-.076-2.84-.493c-.352-.371-.476-1.293-.41-3.288c.076-2.641.19-2.717 3.582-2.669a5.336 5.336 0 0 1 2.128.2a1.049 1.049 0 0 1 .561.607a5.258 5.258 0 0 1 .2 2.2c.008 2.04-.058 2.553-.38 2.943m4.522-3.372v.427h-.76v1.8h.285c.238 0 .285.047.371.351c.114.4.037.5-.419.513c-1.14.048-1.406-.313-1.367-1.843l.018-.779l-.294-.028c-.295-.029-.3-.048-.3-.446s.01-.419.314-.447c.305-.028.3-.048.332-.465c.032-.417.038-.447.428-.533c.655-.161.636-.17.636.447v.57h.76zm3.933-.219c-.038.114-.313.874-.608 1.691l-.55 1.473l-.56.028l-.57.029l-.58-1.549c-.315-.855-.6-1.625-.638-1.719c-.066-.153-.018-.172.485-.143l.56.029l.371 1.14c.2.626.39 1.073.418 1c.03-.073.19-.589.351-1.14l.3-1l.551-.029c.527-.029.537-.019.47.19"/></svg>