<svg xmlns="http://www.w3.org/2000/svg" width="1em" height="1em" viewBox="0 0 8467 8467"><path fill="currentColor" d="M2943 8456c-666-67-1185-258-1653-608c-240-180-270-210-268-274c2-72 51-122 120-120c38 1 85 29 175 103c355 290 812 508 1272 603c268 55 463 61 1760 55c1350-7 1357-8 1670-87a2950 2950 0 0 0 2115-2134c75-311 76-345 76-1760c0-1053-5-1380-22-1489a2891 2891 0 0 0-828-1638a2891 2891 0 0 0-1638-827c-205-33-2772-33-2977 0a2891 2891 0 0 0-1638 828c-440 440-702 946-822 1588c-40 213-50 2656-13 2960c60 484 240 950 514 1332c90 123 107 158 103 205c-6 71-72 126-135 110c-56-13-90-52-227-257A3124 3124 0 0 1 17 5574C2 5433-3 4960 3 4100c7-1370 5-1350 104-1738c96-380 293-784 542-1114c129-170 429-470 599-600c330-250 733-445 1114-541C2762 5 2726 7 4232 7c1507 0 1470-2 1870 100c382 96 784 292 1115 542c170 129 470 429 598 599c250 330 446 733 543 1114c101 400 100 364 100 1870c0 1507 1 1470-100 1870a3232 3232 0 0 1-543 1115c-128 170-428 470-598 598c-330 250-733 446-1114 543c-393 100-360 97-1788 100c-723 2-1340 0-1373-3Zm-57-504A2674 2674 0 0 1 514 5560c-24-230-24-2423 0-2650a2640 2640 0 0 1 698-1558c44-40 131-37 170 4c54 60 37 118-76 259a2457 2457 0 0 0-480 927c-68 266-80 433-82 1017v559h427l40-70c76-128 190-186 347-175a343 343 0 0 1 335 360a344 344 0 0 1-335 361c-157 10-270-47-346-175l-40-74H740l8 632c6 573 10 648 43 797c120 542 380 990 781 1343a2440 2440 0 0 0 1122 555c174 38 175 38 1538 38c1364 0 1365 0 1538-38a2430 2430 0 0 0 1351-783a2410 2410 0 0 0 597-1444c6-91 18-186 27-210c35-92 174-88 213 6c25 59 1 386-43 604a2700 2700 0 0 1-728 1335a2630 2630 0 0 1-1625 770c-204 20-2474 20-2673-2ZM1620 4312c72-76 17-194-90-194c-68 0-124 52-124 115c0 104 142 157 214 80Zm2519 2641a8611 8611 0 0 1-490-553c-35-52-36-163 0-213c54-78 104-85 584-85s531 7 585 85c35 50 35 161 0 213c-56 80-470 545-501 561a207 207 0 0 1-178-8m250-430l143-165l-150-4a5657 5657 0 0 0-297 0l-150 4l145 170c80 92 150 167 156 165a2580 2580 0 0 0 153-170M2979 4960c-94-60-102-95-102-431c0-451 13-464 451-474l278-6l-5-200l-4-202l-337-8c-308-8-338-10-360-40c-33-46-28-120 10-158c30-31 56-33 400-33c342 0 370 2 422 34c95 60 104 96 104 415c0 250-4 292-30 333c-63 95-86 102-400 110l-289 9v446l336 8c310 8 340 11 360 40c33 47 29 120-10 159c-30 32-55 34-400 34c-346 0-372-3-423-35Zm1109 2a310 310 0 0 1-86-86c-32-50-33-84-33-674s1-623 33-674c66-110 105-120 446-120c342 0 380 10 447 120c31 50 33 85 33 674c0 590-2 623-33 674c-67 110-105 120-447 120c-276 0-310-3-360-33Zm600-760v-554h-480l-4 538c-2 295 0 546 4 558c6 16 64 20 244 17l236-5Zm3069 635c-30-40-34-66-34-265v-220h-427l-42 70c-75 127-188 185-346 174a344 344 0 0 1-335-360c0-204 134-348 335-360c158-10 271 46 346 173l42 70h430l-8-636c-7-573-10-648-44-798a2438 2438 0 0 0-780-1343a2455 2455 0 0 0-1124-551c-172-39-173-39-1537-39c-1248 2-1376 5-1510 32a2708 2708 0 0 0-889 359a420 420 0 0 1-147 66c-56 0-116-63-116-122c0-60 47-103 224-208a2650 2650 0 0 1 1082-365c188-24 2452-24 2682 0a2675 2675 0 0 1 2268 1802c128 377 144 552 144 1620c0 840-1 856-35 899a100 100 0 0 1-90 43a100 100 0 0 1-90-43Zm-730-522c72-77 18-195-90-195c-68 0-124 52-124 115c0 104 143 157 214 80m-1960-806c-281-134-273-554 13-674a395 395 0 0 1 400 70c145 136 145 400 0 536a394 394 0 0 1-412 64Zm244-248c38-34 40-133 3-174c-35-38-133-40-174-2c-38 33-40 132-3 173c35 38 133 40 174 2Zm-1584-921a218 218 0 0 1-80-60c-34-50-33-161 3-212c55-81 469-545 500-562a221 221 0 0 1 167 0c30 17 445 480 500 562c36 50 36 163 0 213c-53 78-103 85-587 84c-343 0-464-6-503-23Zm785-251c-110-132-270-310-280-310c-7 0-167 178-277 310c-23 28-8 30 278 30c287 0 302-2 279-30"/></svg>