<svg xmlns="http://www.w3.org/2000/svg" width="1.04em" height="1em" viewBox="0 0 33 32"><path fill="currentColor" d="m9.709 10.807l3.369-5.258l.632-.869l-1.11.13l-3.903 6.056ZM20.077 4.01l-6.599.697l-.44.876l6.605-.768Zm-1.374.84l-.133.229l.01-.01l-.2.38l-2.85 5.27c-1.001 1.837.526.062.79.094l2.086-3.774l1.237-2.224Zm-2.333 5.873l-.84-.004l-4.338 8.282l.695.106zm-5.068 8.289l.292-.691l-6.982-1.108l-.425.63zm-5.9-1.64l4.42-6.742l-1.012.059l-4.198 6.524c.224.946.494.094.79.16M12 19.35c.223.25.263.526.67.73l7.92-15.45l-.38-.552Zm-7.722-1.367l.752.697l7.62 1.4l-.65-.73Zm1.71-.38l4.85-7.57l-.32-.04l-5.033 7.562ZM13.35 6l-.134-.247l-2.874 4.504l.496-.223Zm5.172-.57c.09-.15.151-.029.201-.294c-1.804.194-3.704.405-5.507.617L13.35 6Z"/></svg>