<svg xmlns="http://www.w3.org/2000/svg" width="1em" height="1em" viewBox="0 0 24 24"><path fill="currentColor" d="M23.814 3.234v-.279h-.046l-.047-.37h-.045v-.14h-.047l-.047-.23h-.045l-.047-.186h-.047v-.093l-.092-.045l-.046-.186l-.092-.047v-.092l-.186-.14v-.092l-.094-.047l-.277-.324h-.092l-.138-.186h-.094l-.045-.091l-.185-.047l-.047-.092h-.092V.5l-.186-.047V.406l-.232-.045V.314h-.139V.268l-.37-.047V.176h-.231V.129H3.209c-.115.103-.297.038-.463.094v.045L2.47.314v.047h-.094v.045h-.139v.047L2.051.5v.047h-.092l-.047.092l-.185.047l-.092.138H1.54l-.092.139h-.092l-.046.094l-.325.277v.092l-.138.094v.091l-.139.094l-.047.186l-.092.045v.093H.523l-.046.186H.43v.139H.385v.091H.338v.14H.29v.14H.246v.23H.2v.232H.152v17.61H.2l.047.463h.045l.047.28h.047l.045.23h.047l.046.185H.57v.094l.092.045l.047.185l.139.094v.092l.138.094v.091l.092.047l.233.278h.091l.139.185l.14.047l.046.092l.185.047l.047.093h.092v.045l.185.047v.047l.233.047v.045h.138v.047l.37.047v.045h.232v.046h15.65a8.788 8.788 0 0 0 1.899-.046h.277v-.045l.371-.047v-.047h.139v-.047l.232-.045v-.047l.186-.047v-.045h.092l.047-.093l.185-.047l.045-.092l.139-.047l.093-.139h.092l.047-.091l.324-.28v-.091l.139-.094v-.092l.139-.094l.047-.183l.091-.047v-.094h.047l.047-.185h.045l.047-.23h.047v-.14h.045l.046-.37h.047v-.278h.047V3.234ZM12.705 4.39l7.49 4.503l-.066.087l-3.153 1.874c-.244-.126-.494-.24-.73-.38c-1.075-.64-2.145-1.286-3.217-1.93l-.324-.257Zm-1.557-.027l.056.228l-.004.32v3.354c-.522.325-1.012.634-1.506.936q-1.35.826-2.704 1.645a3.613 3.613 0 0 1-.533-.21c-.852-.498-1.697-1.007-2.544-1.513l-.348-.262zm.032 14.921a1.492 1.492 0 0 1-.251-.093q-3.06-1.804-6.117-3.611c-.588-.347-1.184-.677-1.777-1.015l-.235-.193v-3.84c.284.162.542.305.796.455q2.568 1.51 5.135 3.024q1.232.727 2.46 1.46l.006.245zm-.166-5.929c-.729-.419-1.461-.831-2.192-1.246l-.277-.25c1.135-.726 2.278-1.4 3.416-2.085c1.03.638 2.04 1.262 3.048 1.893a1.242 1.242 0 0 1 .208.214l.003.02c-.83.495-1.66.995-2.494 1.483c-.292.17-.599.313-.899.468c-.27-.166-.538-.339-.813-.497m10.083-2.433v3.399l-8.006 4.814l-.245.143c-.05-.027-.14-.048-.145-.084a2.253 2.253 0 0 1-.01-.364v-3.405l8.365-5.045l.044.22z" class="cls-1"/></svg>