<svg xmlns="http://www.w3.org/2000/svg" width="1em" height="1em" viewBox="0 0 24 24"><path fill="currentColor" fill-rule="evenodd" d="M15.525 4.716h.55v-.5h-.55zm-3.621 6.04c-1.063-.017-2.082-.945-2.082-1.724V4.23h-2.18L7.7 9.032c0 1.869 1.769 3.826 4.348 3.826c2.58 0 4.31-1.759 4.31-4.914H15.25V6.899h1.038V5.74h-1.023l-.015-.79h-.83v.79h.715V6.9H14.13v1.53c-.082 1.566-.969 2.35-2.226 2.328M2.296 15.51a.083.083 0 0 0-.04.01l-1.749.953c-.084.045-.054.18.037.18h22.881c.094 0 .122-.136.038-.181l-1.727-.952a.082.082 0 0 0-.038-.01zm6.26 1.905c-.046 0-.09.02-.123.056a.2.2 0 0 0-.051.134v1.43c0 .104.077.19.174.19h6.299a.17.17 0 0 0 .124-.056a.2.2 0 0 0 .05-.134v-1.43a.2.2 0 0 0-.05-.134a.168.168 0 0 0-.124-.056zm15.44-.428a.203.203 0 0 0-.05-.135a.173.173 0 0 0-.057-.042a.162.162 0 0 0-.067-.015H.175a.173.173 0 0 0-.124.056a.192.192 0 0 0-.051.136v2.62c0 .104.079.19.175.19h23.647a.162.162 0 0 0 .067-.015a.175.175 0 0 0 .056-.041a.205.205 0 0 0 .051-.135zm-22.05.754a.2.2 0 0 0-.051-.135a.168.168 0 0 0-.124-.056H.634c-.046 0-.09.02-.123.056a.2.2 0 0 0-.052.135v1.143c0 .105.078.19.175.19h1.137a.17.17 0 0 0 .124-.055a.2.2 0 0 0 .051-.135zm14.396-.302a.074.074 0 0 0-.02-.05a.063.063 0 0 0-.046-.021h-.13a.063.063 0 0 0-.047.02a.074.074 0 0 0-.019.05a.077.077 0 0 1-.02.052a.06.06 0 0 1-.047.02h-.064a.126.126 0 0 0-.093.042a.15.15 0 0 0-.039.1v.192c0 .105.079.19.175.19h.438a.17.17 0 0 0 .123-.055a.2.2 0 0 0 .051-.135v-.191a.15.15 0 0 0-.038-.1a.126.126 0 0 0-.093-.042h-.065a.06.06 0 0 1-.047-.021a.077.077 0 0 1-.02-.051m.7 0c0-.039.03-.071.065-.071h.132c.036 0 .066.032.066.07c0 .04.029.073.065.073h.065c.073 0 .132.063.132.142v.191a.2.2 0 0 1-.052.135a.168.168 0 0 1-.123.056h-.438a.168.168 0 0 1-.123-.056a.2.2 0 0 1-.052-.135v-.191c0-.079.06-.142.132-.142h.066a.062.062 0 0 0 .046-.021a.071.071 0 0 0 .02-.051m1.268 0a.075.075 0 0 0-.019-.051a.061.061 0 0 0-.047-.02h-.13a.061.061 0 0 0-.047.02a.074.074 0 0 0-.02.05c0 .01 0 .02-.004.028a.067.067 0 0 1-.035.04a.061.061 0 0 1-.025.005h-.067a.126.126 0 0 0-.091.042a.15.15 0 0 0-.039.1v.191c0 .105.078.19.175.19h.438a.17.17 0 0 0 .123-.055a.2.2 0 0 0 .051-.135v-.191a.15.15 0 0 0-.039-.1a.126.126 0 0 0-.092-.042h-.066a.062.062 0 0 1-.047-.021a.071.071 0 0 1-.018-.051m.7 0c0-.039.03-.071.066-.071h.131c.036 0 .066.032.066.07c0 .04.03.073.065.073h.066c.072 0 .131.063.131.142v.191a.2.2 0 0 1-.05.135a.168.168 0 0 1-.124.056h-.438a.168.168 0 0 1-.124-.056a.2.2 0 0 1-.05-.135v-.191c0-.079.057-.142.13-.142h.066a.062.062 0 0 0 .046-.021a.071.071 0 0 0 .019-.051m2.231.858a.079.079 0 0 0-.004-.028a.071.071 0 0 0-.036-.039a.06.06 0 0 0-.026-.005h-.131a.063.063 0 0 0-.046.02a.074.074 0 0 0-.02.05a.077.077 0 0 1-.018.052a.064.064 0 0 1-.048.021h-.065a.126.126 0 0 0-.092.042a.15.15 0 0 0-.04.1v.192c0 .104.08.19.176.19h.437c.047 0 .091-.02.124-.056a.2.2 0 0 0 .051-.134v-.193a.15.15 0 0 0-.039-.1a.126.126 0 0 0-.092-.042h-.065a.06.06 0 0 1-.026-.005a.066.066 0 0 1-.036-.04a.077.077 0 0 1-.005-.027zm-2.231.619c0 .04.03.07.066.07h.131a.063.063 0 0 0 .047-.02a.074.074 0 0 0 .019-.05c0-.04.03-.073.065-.073h.066a.126.126 0 0 0 .093-.041a.15.15 0 0 0 .038-.1v-.193a.2.2 0 0 0-.05-.135a.168.168 0 0 0-.124-.056h-.438a.17.17 0 0 0-.124.056a.2.2 0 0 0-.05.135v.191c0 .079.057.142.13.142h.066c.036 0 .065.034.065.074m-.743 0a.077.077 0 0 1-.02.05a.064.064 0 0 1-.046.02h-.132a.063.063 0 0 1-.046-.02a.074.074 0 0 1-.019-.05a.076.076 0 0 0-.018-.051a.061.061 0 0 0-.047-.021h-.066a.126.126 0 0 1-.093-.042a.15.15 0 0 1-.039-.1v-.193c0-.105.08-.19.175-.19h.438c.097 0 .175.085.175.19v.191a.15.15 0 0 1-.039.1a.127.127 0 0 1-.091.042h-.067a.064.064 0 0 0-.047.021a.072.072 0 0 0-.013.024a.082.082 0 0 0-.005.029m-1.225 0c0 .04.03.07.065.07h.132a.062.062 0 0 0 .047-.02a.072.072 0 0 0 .019-.05c0-.04.029-.073.065-.073h.065a.126.126 0 0 0 .093-.041a.15.15 0 0 0 .039-.1v-.193a.2.2 0 0 0-.052-.135a.168.168 0 0 0-.123-.056h-.438c-.046 0-.09.02-.123.056a.2.2 0 0 0-.052.135v.191c0 .079.06.142.132.142h.066c.035 0 .065.034.065.074m-.7 0a.074.074 0 0 1-.02.05a.063.063 0 0 1-.046.02h-.13a.063.063 0 0 1-.047-.02a.074.074 0 0 1-.019-.05a.078.078 0 0 0-.005-.028a.071.071 0 0 0-.014-.024a.06.06 0 0 0-.047-.02h-.066a.126.126 0 0 1-.092-.042a.15.15 0 0 1-.039-.1v-.193c0-.105.079-.19.175-.19h.438c.097 0 .174.085.174.19v.191a.15.15 0 0 1-.038.1a.127.127 0 0 1-.093.042h-.065a.06.06 0 0 0-.026.005a.066.066 0 0 0-.036.04a.084.084 0 0 0-.004.029m6.342-1.358a.2.2 0 0 0-.051-.134a.168.168 0 0 0-.123-.056h-.526c-.046 0-.09.02-.123.056a.2.2 0 0 0-.052.134v.19c0 .106.08.19.175.19h.526a.17.17 0 0 0 .123-.055a.2.2 0 0 0 .052-.134zm-.875 1.048c0-.106.08-.19.175-.19h.526c.096 0 .175.084.175.19v.19a.2.2 0 0 1-.051.135a.168.168 0 0 1-.124.055h-.526a.168.168 0 0 1-.123-.055a.2.2 0 0 1-.052-.135zm-13.342.714a.161.161 0 0 1-.065-.014a.174.174 0 0 1-.057-.041a.205.205 0 0 1-.052-.135v-1.62c0-.105.08-.19.177-.19h6.473c.096 0 .175.085.175.19v1.62a.2.2 0 0 1-.051.134a.168.168 0 0 1-.124.056H8.47z" clip-rule="evenodd"/></svg>