<svg xmlns="http://www.w3.org/2000/svg" width="1em" height="1em" viewBox="0 0 24 24"><path fill="currentColor" d="M22 14.017a15.082 15.082 0 0 0-6.249-2.463c-.212-.027-1.811-.048-3.49-.048c-1.759 0-3.606.023-4.039.086A12.951 12.951 0 0 0 2 14.02a107.923 107.923 0 0 1 20-.003M15.4 10.1a4.919 4.919 0 0 1 .178 1.239a.25.25 0 0 0 .151.024v-.009a3.391 3.391 0 0 0-.225-1.4a.115.115 0 0 0-.067.04a.126.126 0 0 0-.037.106m-9.083-.591h.021a2.569 2.569 0 0 0 .26.051c.081.012.217.031.5.078l.457.074a5.377 5.377 0 0 1 .6.159c.087.045.171.078.251.111a1.57 1.57 0 0 1 .689.464a7.262 7.262 0 0 1 .707.944c1.353-.023 3.228-.022 4.517-.007l.034-.069a2.066 2.066 0 0 1 .252-.409a4.342 4.342 0 0 1 .729-.723l-.018-.066a.226.226 0 0 1 .113-.231a.111.111 0 0 1 .136 0a.309.309 0 0 1 .065.1a5.072 5.072 0 0 1 .6-.215a6.913 6.913 0 0 1 1.1-.2a3.482 3.482 0 0 0 .638-.115h.008c.186-.062.189-.063.189-.165a.433.433 0 0 0-.2-.162a1.176 1.176 0 0 0-.411-.132h-.008c-.52-.084-.52-.084-1.1-.151a24.636 24.636 0 0 0-2.545-.2l-.137-.007a26.484 26.484 0 0 0-1.647-.036c-.606 0-.628 0-1.8.046h-.1l-.265.009A23.53 23.53 0 0 0 6.9 8.92c-.6.1-.927.245-.931.336a.189.189 0 0 0 .043.1a.523.523 0 0 0 .305.153m5.798-1.038c.737 0 .9 0 1.383.024V6.626a.421.421 0 0 0-.42-.42h-2.071a.411.411 0 0 0-.41.41v1.889c.895-.034.964-.035 1.518-.034m-3.783 2.952a.259.259 0 0 0 .151-.025a5.076 5.076 0 0 1 .157-1.163a1.65 1.65 0 0 0-.158-.078a5.213 5.213 0 0 0-.154 1.256c0 .008.001.008.004.01m.811 2.777l.162-.11l-.24-.351l-.233.008Zm5.851.054l.354-.511l-.233-.008l-.282.408zm-3.027.009h.2v-.577h-.2zm3.049.113l-.3-.211l.111-.16l-.042-.034h-2.534v.379h-.372v-.379h-2.51l-.025.019l.083.12l-.307.21l-.061-.09A4.566 4.566 0 0 0 7.8 16.306h8.434a4.406 4.406 0 0 0-1.134-2.051Zm-5.218 3.145l4.474-.021l.147-.988H9.674Z"/></svg>