<svg xmlns="http://www.w3.org/2000/svg" width="1em" height="1em" viewBox="0 0 24 24"><path fill="currentColor" d="M11.752 8.36c-.586.81-.837 1.73-.948 2.428H9.576c.112-.837.418-2.036 1.2-3.125C11.78 6.24 13.65 5.096 16.663 5.18l-.25 1.2c-2.568 0-3.88.92-4.66 1.98m4.465-1.06l-.251 1.228c-1.34.084-2.037.642-2.484 1.228c-.25.335-.39.698-.502 1.06h-1.228c.112-.53.335-1.144.754-1.757c.642-.95 1.87-1.703 3.71-1.758m-2.232 3.516c.083-.167.14-.25.25-.418c.28-.419.726-.754 1.48-.81l-.28 1.228zm8.51-1.227s.977.223 1.004 1.228h-1.283Zm-16.49.028h1.45l-1.367 6.361c-.446 2.093-1.646 2.847-3.376 2.847c-1.758 0-2.623-.754-2.176-2.847l1.367-6.39h1.45L1.96 16.09c-.251 1.144.111 1.646.976 1.646s1.423-.502 1.674-1.646l1.395-6.501Zm5.162 2.036c1.032 0 1.59.475 1.283 1.87l-1.088 5.134H9.994L11 13.969c.168-.893 0-1.227-.697-1.227c-.558 0-1.173.446-1.368 1.339l-.948 4.548H6.619l1.45-6.808h1.284l-.168.81h.028a2.484 2.484 0 0 1 1.954-.978m2.706.168h1.367l-1.45 6.836h-1.368zm3.572 1.506h3.18l-.25 1.2h-3.182l-.893 4.13h-1.45l1.953-9.068h4.632l-.28 1.227h-3.18zm3.125 5.33l1.423-6.836h1.395l-1.451 6.836z"/></svg>