<svg xmlns="http://www.w3.org/2000/svg" width="1em" height="1em" viewBox="0 0 24 24"><path fill="currentColor" d="M11.752 4.335c-.586.809-.837 1.73-.949 2.427H9.576c.111-.837.418-2.036 1.2-3.125c1.004-1.423 2.873-2.567 5.887-2.483l-.251 1.2c-2.567 0-3.879.92-4.66 1.98m4.464-1.06l-.25 1.227c-1.34.084-2.038.642-2.484 1.228c-.251.335-.39.697-.502 1.06h-1.228c.112-.53.335-1.144.753-1.757c.642-.95 1.87-1.703 3.711-1.758M13.984 6.79c.084-.167.14-.25.251-.418c.28-.42.726-.754 1.48-.81l-.28 1.228zm8.51-1.227s.977.223 1.005 1.227h-1.284Zm-16.49.027h1.451l-1.367 6.362c-.446 2.093-1.646 2.846-3.376 2.846c-1.758 0-2.623-.753-2.176-2.846l1.367-6.39h1.45L1.96 12.065c-.252 1.144.111 1.646.976 1.646s1.423-.502 1.674-1.646l1.395-6.501Zm5.162 2.037c1.032 0 1.59.474 1.284 1.87l-1.088 5.134H9.994L11 9.943c.167-.893 0-1.228-.698-1.228c-.558 0-1.172.447-1.367 1.34l-.949 4.548H6.618l1.45-6.808h1.284l-.167.809h.028a2.484 2.484 0 0 1 1.953-.977m2.707.168h1.367l-1.451 6.836h-1.367zM17.444 9.3h3.181l-.251 1.2h-3.181l-.893 4.13h-1.45l1.952-9.069h4.632l-.279 1.228h-3.18zm3.125 5.33l1.423-6.837h1.395l-1.45 6.836zm2.357 1.23c.335 0 .949 1.507.949 3.404c0 1.87-.614 3.405-.977 3.405H.716c-.362 0-.641-1.535-.641-3.405c0-1.869.279-3.403.641-3.403zm-1.172 1.898h.028zV17.2h-2.567v.558h.977v3.543h.67V17.76zm-2.678 2.148v-.028h-.642v.056c0 .363-.084.977-.614.977c-.474 0-.697-.335-.697-1.647c0-1.31.223-1.618.697-1.618c.475-.028.586.39.586.782v.055h.642V18.4c0-.419-.056-1.284-1.228-1.284c-1.06 0-1.367.67-1.367 2.12c0 1.452.307 2.121 1.339 2.121c.949 0 1.256-.725 1.256-1.45zm-3.07 1.395h.029zV20.8h-1.59v-1.31h1.451v-.558h-1.451v-1.144h1.563v-.558h-2.205v4.073zm-2.622-3.543h.028zV17.2h-2.567v.558h.976v3.543h.67V17.76zm-4.018 3.6c.948 0 1.367-.642 1.34-2.121c0-1.451-.42-2.12-1.34-2.12c-.92 0-1.34.669-1.34 2.12c0 1.45.391 2.12 1.34 2.12m0-3.74c.39 0 .698.251.698 1.619c0 1.395-.307 1.646-.698 1.646c-.39 0-.698-.251-.698-1.646c0-1.368.307-1.619.698-1.619m-2.4 3.711h.781a.423.423 0 0 1-.195-.363c-.028-.25-.028-.585-.028-.837c-.028-.585-.223-.809-.641-.836c.446-.084.67-.475.67-1.005c0-.781-.475-1.06-1.033-1.06H5.07V21.3h.64v-1.785h.53c.447 0 .587.195.587.642c0 .306 0 .53.028.78c.028.168.056.28.111.363zm-.725-3.627c.446 0 .642.223.614.67c0 .418-.224.67-.642.67h-.53v-1.34zM3.423 19.6c.753 0 1.172-.474 1.2-1.2c0-.697-.335-1.2-1.117-1.2H2.223v4.075h.642V19.6Zm-.168-1.897c.53 0 .698.28.698.725c0 .503-.28.698-.642.698h-.474v-1.423z"/></svg>