<svg xmlns="http://www.w3.org/2000/svg" width="1em" height="1em" viewBox="0 0 24 24"><path fill="currentColor" d="M12.78 8.647h.458v2.192h-.458Zm6.764.109a.363.363 0 0 0-.253-.109h-.205v2.192h.458zm-1.86-.109h.458v2.192h-.458ZM22 14.3l-.331-6.26a.85.85 0 0 0-.753-.88H3.107a.849.849 0 0 0-.753.876L2 14.292a.88.88 0 0 0 .755 1.008h18.491a.878.878 0 0 0 .754-1m-1.589-.521a.7.7 0 0 1-.609.761H4.305a.7.7 0 0 1-.609-.761V8.526a.7.7 0 0 1 .609-.76H19.8a.7.7 0 0 1 .609.76zm-3.427-5.132h.458v2.192h-.458zm1.401 0h.458v2.192h-.458zm-2.803 0h.458v2.192h-.458zm.701 0h.458v2.192h-.458zm-2.102 0h.458v2.192h-.458zm-.701 0h.458v2.192h-.458Zm1.402 0h.458v2.192h-.458Zm-2.803 2.596h.458v2.411h-.458zm-.7 0h.458v2.411h-.458zm-.701 0h.458v2.411h-.458zm2.102 0h.458v2.411h-.458Zm-2.803 0h.458v2.411h-.458Zm-1.401 0h.458v2.411h-.458zm.701 0h.458v2.411h-.458zm4.203 0h.458v2.411h-.458Zm5.606 2.411h.205a.363.363 0 0 0 .253-.109v-2.3h-.458zm-1.402-2.411h.458v2.411h-.458zm.701 0h.458v2.411h-.458zm-10.51 0h.458v2.411h-.458Zm8.408 0h.458v2.411h-.458zm-1.401 0h.458v2.411h-.458zm-.701 0h.458v2.411h-.458zm2.803 0h.458v2.411h-.458zm-1.402 0h.458v2.411h-.458ZM4.83 8.647h-.017a.471.471 0 0 0-.411.514v1.678h.428Zm3.746 0h.458v2.192h-.458zm-.701 0h.458v2.192h-.458Zm-.7 0h.458v2.192h-.458zm-.701 0h.458v2.192h-.458Zm4.905 0h.458v2.192h-.458Zm-4.204 2.596h.458v2.411h-.458zm2.802-2.596h.458v2.192h-.458Zm.701 0h.458v2.192h-.458zm-1.401 0h.458v2.192h-.458zm-3.504 2.596h.458v2.411h-.458zm-.7 0h.458v2.411h-.458Zm1.401 0h.458v2.411h-.458ZM4.4 13.14a.471.471 0 0 0 .411.514h.019v-2.411H4.4Zm1.373-4.493h.458v2.192h-.458zm-.7 0h.458v2.192h-.458Zm7.006 0h.458v2.192h-.458z"/></svg>