<svg xmlns="http://www.w3.org/2000/svg" width="1em" height="1em" viewBox="0 0 24 24"><path fill="currentColor" d="M12.023 11.254a2.039 2.039 0 1 0-2.039-2.039a2.041 2.041 0 0 0 2.039 2.039m0-2.574a.535.535 0 1 1-.535.535a.536.536 0 0 1 .535-.535M9.865 13.3l.034.022l1.637.968a.75.75 0 0 0 .748.01l1.868-1.038a.794.794 0 0 0 .1-.063a4.628 4.628 0 1 0-4.383.1zm2.1-7.246A3.123 3.123 0 1 1 8.84 9.177a3.127 3.127 0 0 1 3.122-3.123Zm8.968-2.434a.753.753 0 1 0-1.343.68a8.467 8.467 0 0 1-4.557 11.724l-.045.016l-.019.008l-.095.035a.868.868 0 0 0-.107.048a5.1 5.1 0 0 0-2.467 1.755v.014l-.334.589a9.323 9.323 0 0 0-.407-.649a8.218 8.218 0 0 0-2.269-1.691a.727.727 0 0 0-.136-.057l-.028-.011A8.468 8.468 0 0 1 4.41 4.3a.753.753 0 1 0-1.343-.68A9.972 9.972 0 0 0 8.618 17.5h.006a7.141 7.141 0 0 1 1.7 1.2a17.5 17.5 0 0 1 .948 1.677a.752.752 0 0 0 .653.416h.021a.752.752 0 0 0 .654-.381l.992-1.749a4.572 4.572 0 0 1 1.931-1.219a9.97 9.97 0 0 0 5.41-13.824M13.6 18.653l.007-.012z"/></svg>