<svg xmlns="http://www.w3.org/2000/svg" width="1em" height="1em" viewBox="0 0 24 24"><path fill="currentColor" d="M12.388 7.276c1.352.031 1.7-.032 1.7-.317a3.607 3.607 0 0 0-1.162-.095c-1.383 0-1.394-.011-1.352-1.288l.032-.856l1.014.021c.813.021 1.035-.01 1.077-.126a.261.261 0 0 0 0-.222a5.781 5.781 0 0 0-1.109-.064h-1.034V3.58c0-1.151.011-1.151 1.384-1.151c.887 0 1.161-.032 1.129-.138c-.032-.106-.464-.137-1.541-.158c-2.049-.042-1.922-.211-1.922 2.5c-.004 2.738-.104 2.59 1.784 2.643m2.545 6.346a1.051 1.051 0 0 0-.042 1.2a.634.634 0 0 0 .409.178c.38 0 .581-.275.581-.792c0-.359-.053-.5-.233-.623c-.313-.227-.461-.216-.715.037m.433 1.14c-.4.064-.58-.464-.327-.939c.253-.454.665-.117.612.506c-.021.328-.073.412-.285.433M14.722 2.7c0-.274 0-.274.9-.274c1.32 0 1.742.274 1.742 1.108c0 .75-.317 1-1.341 1.1l-.644.063l.813 1.109c.454.612.9 1.172.993 1.256c.211.169 1.129.3 1.129.159a9.228 9.228 0 0 0-.8-1.151c-.781-1.025-.792-1.056-.549-1.151c.718-.3.9-.412 1.066-.687a1.379 1.379 0 0 0-.559-1.911a3.479 3.479 0 0 0-1.743-.211H14.4l.032.391c.026.445.29.625.29.199m-4.646 5.061c0 .095.095.159.264.159h.26v1.742c0 1.943.074 2.26.623 2.724a1.955 1.955 0 0 0 3.009-.58a6.373 6.373 0 0 0 .148-2.292c-.021-1.362-.063-1.848-.158-1.89c-.095-.042-.137.38-.137 1.816c0 2.007-.085 2.418-.539 2.746a1.453 1.453 0 0 1-1.521-.085c-.369-.369-.475-.918-.475-2.566c0-1.489 0-1.5-.274-1.71c-.345-.275-1.2-.317-1.2-.064M7.13 13.516c-.306-.158-.644-.126-.718.053c-.074.211.063.349.169.169a.3.3 0 0 1 .517.127a.374.374 0 0 1-.137.327c-.169.127-.169.159-.011.465c.211.412.423.454.264.053c-.074-.19-.063-.317.011-.391a.615.615 0 0 0-.095-.803m1.742.93c-.084.316-.116.549-.053.549s.127-.074.159-.159c.084-.221.538-.2.665.021c.2.381.211.053 0-.633c-.317-1.056-.391-1.035-.771.222m.412.021c-.18 0-.19-.043-.085-.4c.043-.19.085-.211.148-.1c.148.215.106.5-.063.5m-.95-4.805c-1-.232-1.215-.38-1.215-.876a1.445 1.445 0 0 1 .081-.528c.137-.212.749-.338 1.636-.338c.623 0 .824-.032.792-.138a5.729 5.729 0 0 0-2.566-.031A1.185 1.185 0 0 0 6.3 8.9c-.074.9.359 1.288 1.752 1.605c.824.19 1.056.38 1.151.929a.6.6 0 0 1-.211.644c-.253.254-.338.275-1.288.275c-.908 0-1.014-.021-.993-.19c.032-.317-.01-.37-.169-.233a.763.763 0 0 0-.158.486v.359H7.52a7.612 7.612 0 0 0 1.489-.1a1.41 1.41 0 0 0 1.025-1.12c.148-1.016-.359-1.587-1.7-1.893M7.035 5.121c.464 1.046.9 1.965.95 2.028c.211.253.37.137.644-.475C9.168 5.438 10.5 2.26 10.5 2.186c0-.042-.084-.074-.179-.074c-.148 0-.38.475-.972 1.911c-.57 1.394-.813 1.869-.9 1.785a19.628 19.628 0 0 1-.866-1.88l-.76-1.763l-.723-.032a2.7 2.7 0 0 0-.8.042c-.116.116.032.254.286.254c.266 0 .224-.064 1.449 2.692m4.202 8.269V15h.363a.689.689 0 0 0 .5-.18a1.493 1.493 0 0 0 .042-1.182a1.237 1.237 0 0 0-.5-.169zm.613.327c.1.053.127.253.106.549c-.022.391-.074.475-.264.5c-.233.032-.243 0-.243-.549c0-.595.084-.701.401-.5m1.394.56c0 .57.032.718.158.718s.159-.148.159-.729c0-.686-.085-.95-.254-.781a3.083 3.083 0 0 0-.063.792m4.973-1.489l-.031-.444c-.043-.528-.3-.707-.3-.211v.327h-.94c-.686 0-.971-.042-1.066-.158c-.095-.116.095-.507 1.1-2.122a14.851 14.851 0 0 0 1.225-2.218a.322.322 0 0 0-.169-.3a18.279 18.279 0 0 0-3.136.011c-.19.19.01.243.908.243a2.523 2.523 0 0 1 1.182.148c.222.158.307-.022-1.573 3.072a4.842 4.842 0 0 0-.676 1.373c.032.2.106.211 1.753.243zm-.211 4.139a2.1 2.1 0 0 0-2.312-.422c-.243.137-.328.148-.317.053c.011-.095-.18-.148-.729-.169l-.771-.032v1.33l-.264-.39a2.323 2.323 0 0 0-3.706-.116l-.2.295l-.052-.528l-.055-.528l-.708-.031l-.707-.032l-.032-.581l-.032-.57l-1.321 1.32l-1.32 1.32h1.09l.042.982c.043 1.13.243 1.573.824 1.879a2.616 2.616 0 0 0 2.175-.063l.507-.264l.528.264a2.278 2.278 0 0 0 3.031-.845l.2-.316v2.629l.782-.771l.781-.781l.37.179a1.959 1.959 0 0 0 2.46-.8a2.384 2.384 0 0 0-.264-3.012m-8.564 1.626c-.052.655-.074.718-.327.813c-.391.138-.792.011-.876-.274a4.168 4.168 0 0 1-.064-.75v-.5h1.32zm3.02.444c-.179.338-.359.433-.813.433a.818.818 0 0 1-.454-1.457a.73.73 0 0 1 1.025-.022a.8.8 0 0 1 .242 1.049ZM17 18.733a.8.8 0 0 1-1.383.433a.82.82 0 0 1 .2-1.31a.87.87 0 0 1 1.183.877"/></svg>