<svg xmlns="http://www.w3.org/2000/svg" width="1em" height="1em" viewBox="0 0 24 24"><path fill="currentColor" d="M7.48 17.37h.22v.38h-.22Zm8.47 0h.23v.38h-.23zm-5.65 0h.23v.38h-.23Zm7.07 0h.22v.38h-.22zm-2.83 0h.22v.38h-.22zm-9.89 0h.23v.38h-.23zm8.48 0h.22v.38h-.22zm-1.41 0h.22v.38h-.22zm-2.83 0h.22v.38h-.22zm9.89 0H19v.38h-.22zm-12.71 0h.22v.38h-.22zM2.74 2.3h18.38v1.64H2.74ZM19 3.98h1.19v13.39H19Zm-4.24 0h1.19v13.39h-1.19zm2.83 0h1.19v13.39h-1.19zm-4.24 0h1.19v13.39h-1.19zm2.83 0h1.19v13.39h-1.19zm-4.24 0h1.19v13.39h-1.19zm-8.48 0h1.19v13.39H3.46Zm1.42 0h1.19v13.39H4.88Zm4.23 0h1.19v13.39H9.11Zm1.42 0h1.19v13.39h-1.19zm-2.83 0h1.19v13.39H7.7Zm-1.41 0h1.19v13.39H6.29ZM19 17.75h1.19v3.48H19Zm-4.24 0h1.19v3.48h-1.19zm2.83 0h1.19v3.48h-1.19zm-1.41 0h1.19v3.48h-1.19zm-5.65 0h1.19v3.48h-1.19zm-5.65 0h1.19v3.48H4.88Zm8.47 0h1.19v3.48h-1.19zm-1.41 0h1.19v3.48h-1.19zm-5.65 0h1.19v3.48H6.29Zm2.82 0h1.19v3.48H9.11Zm-1.41 0h1.19v3.48H7.7Zm-4.24 0h1.19v3.48H3.46ZM2.74 2.3h18.38v1.64H2.74Z"/></svg>