<svg xmlns="http://www.w3.org/2000/svg" width="1em" height="1em" viewBox="0 0 24 24"><path fill="currentColor" d="m17.795 4.89l-1.262 1.26l.14.11a7.447 7.447 0 0 1 1.251 1.25l.11.138l1.26-1.26a9.571 9.571 0 0 1 .894 1.344l.044.081h.492v-4.36h-4.36v.5l.082.044a9.319 9.319 0 0 1 1.35.891m2.615-1.117v3.722a9.9 9.9 0 0 0-.985-1.433l-.109-.133l-1.257 1.257a7.813 7.813 0 0 0-1.057-1.056l1.26-1.258l-.134-.11a9.624 9.624 0 0 0-1.45-.989zm-.934 3.253l-.106-.154l-1.12 1.12l.068.107a7.435 7.435 0 1 1-2.2-2.2l.106.07l1.121-1.12l-.152-.109a9 9 0 1 0 2.283 2.286M12.07 20.827a8.687 8.687 0 1 1 4.79-15.935l-.677.675a7.751 7.751 0 1 0 2.465 2.473l.676-.675a8.687 8.687 0 0 1-7.254 13.462m5.062-8.799c-.006.325.131.656.45.662h.007c.311 0 .456-.323.463-.646c.007-.377-.177-.643-.447-.648a.408.408 0 0 0-.354.2a.823.823 0 0 0-.119.432m.25-.347a.251.251 0 0 1 .215-.128c.208 0 .3.255.293.488c-.007.233-.087.492-.306.492c-.21 0-.3-.255-.3-.5a.671.671 0 0 1 .098-.352m-.969.36c0 .544.463.9 1.181.9s1.178-.353 1.178-.9c0-.442-.365-.887-1.182-.887c-.715-.002-1.177.346-1.177.886m2.2 0c0 .456-.392.74-1.022.74s-1.02-.286-1.02-.74c0-.456.4-.73 1.02-.73c.621 0 1.025.284 1.025.73zm-9.407-.013c0 .325.132.656.45.662h.008a.4.4 0 0 0 .355-.216a.9.9 0 0 0 .107-.43a.741.741 0 0 0-.17-.527a.391.391 0 0 0-.277-.12H9.67c-.266 0-.457.257-.464.631m.467-.475a.227.227 0 0 1 .166.073a.593.593 0 0 1 .131.414a.739.739 0 0 1-.086.353a.24.24 0 0 1-.225.14c-.21 0-.3-.256-.3-.5c.011-.234.111-.48.311-.48zm-1.186.487c0 .545.464.9 1.182.9s1.178-.352 1.178-.9c0-.44-.366-.886-1.183-.886c-.715-.002-1.177.346-1.177.886m2.2 0c0 .457-.39.74-1.02.74s-1.026-.283-1.026-.74s.4-.73 1.02-.73s1.03.285 1.03.73zm-3.675-.856H5.305v.394h.388l.721 1.311h.926l.71-1.312h.386v-.394H7.211v.394h.26l-.386.713l-.39-.713h.321zm-.157.238h-.429l.656 1.2l.647-1.2H7.37v-.082h.91v.081h-.324l-.709 1.311h-.742l-.72-1.31H5.46v-.082h1.395zm7.485 1.467h.93l.71-1.312h.386v-.394h-1.228v.394h.257l-.386.713l-.39-.713h.321v-.394h-1.708v.394h.388zm-.95-1.549h1.393v.081h-.429l.656 1.2l.648-1.2h-.363v-.08h.912v.08h-.323l-.709 1.311h-.742l-.72-1.31h-.325zm-2.26 1.548h2.3v-.873h-.39v.078a.392.392 0 0 1-.428.4h-.252v-.913h.356v-.394H11.13v.394h.361v.913h-.36zm.156-.24h.361V11.42h-.36v-.08h1.273v.08h-.356v1.226h.41a.546.546 0 0 0 .58-.476h.083v.56h-1.99z"/></svg>