<svg xmlns="http://www.w3.org/2000/svg" width="1em" height="1em" viewBox="0 0 24 24"><path fill="currentColor" d="M19.947 12.757h-15.8a1.6 1.6 0 0 0-1.6 1.6v4.915a1.6 1.6 0 0 0 1.6 1.6h15.8a1.6 1.6 0 0 0 1.6-1.6v-4.918a1.6 1.6 0 0 0-1.6-1.597m-2.882 2.11l.607.871a.243.243 0 0 0 .4 0l.6-.87h1.079l-.92 1.319a1.164 1.164 0 0 1-1.908 0l-.924-1.321zm-6.311 4.029h-.971v-2.309c0-.568-.295-.944-.767-.944a.844.844 0 0 0-.855.944v2.31h-.975v-2.31c0-.568-.3-.944-.768-.944a.843.843 0 0 0-.847.944v2.31h-.984v-4.03h.984v.632a1.238 1.238 0 0 1 1.166-.695a1.2 1.2 0 0 1 1.255.767a1.449 1.449 0 0 1 1.336-.767a1.392 1.392 0 0 1 1.43 1.487zm4.639 0h-.983v-.472a1.36 1.36 0 0 1-1.16.536a1.868 1.868 0 0 1-1.918-2.078a1.864 1.864 0 0 1 1.9-2.078a1.46 1.46 0 0 1 1.175.519v-.456h.983zm3.389 0l-.745-1.06a.243.243 0 0 0-.4 0l-.744 1.06h-1.041l.968-1.4a1.241 1.241 0 0 1 2.04 0l.964 1.394zm-5.391-3.245a1.086 1.086 0 0 0-1.08 1.23a1.1 1.1 0 1 0 2.175 0a1.1 1.1 0 0 0-1.095-1.23m-2.258-4.744h1.634c-.064-.7-.11-1.272-.114-1.832c0-1.6.423-2.527 2.047-2.461l.333.013V5.14a3.488 3.488 0 0 0-.3-.018h-.005c-1.846-.001-4.2.405-3.595 5.785m6.889.072a2.958 2.958 0 0 0 1.47-.4l-.468-1.362a2.311 2.311 0 0 1-.917.252c-.476 0-.743-.17-.84-.746a9.213 9.213 0 0 1-.017-2.1h-1.561a9.176 9.176 0 0 0 .042 2.349a2.115 2.115 0 0 0 2.29 2.007m-1.375-5.355a2.672 2.672 0 0 0 1.254.624a3.114 3.114 0 0 0 .637.064h.484v-1.52h-.475a1.281 1.281 0 0 1-.881-.3a1.4 1.4 0 0 1-.425-.983h-1.52a3.332 3.332 0 0 0 .153.891a2.776 2.776 0 0 0 .773 1.224M5.677 8.202c.349.922.692 1.824 1.1 2.705h2.11c.39-.858.724-1.736 1.066-2.633l.089-.232c.373-.978.71-1.94 1.016-2.9H9.347a53.604 53.604 0 0 1-.806 2.637c-.211.63-.648 1.819-.648 1.819h-.071a45.3 45.3 0 0 1-.647-1.819c-.29-.866-.593-1.8-.82-2.637H4.602a54.82 54.82 0 0 0 1.014 2.9z"/></svg>