<svg xmlns="http://www.w3.org/2000/svg" width="1em" height="1em" viewBox="0 0 24 24"><path fill="currentColor" d="M21.893 6.22c-.486-2.24-3.252-2.125-4.2-.733a2.462 2.462 0 0 0-3.607-.42v-.626h-2.024V8.22H11.4a.9.9 0 0 1-.98-.864a2.078 2.078 0 0 1-.016-.231v-.708h1.037V4.449H10.4V2.473L9.361 4.449h-2.38l-1.1 2.256l-.354.725l-.327-.815l-.829-2.166H2l.848 1.82l1.828 3.944h1.77L8.1 7.026l.256-.485v.815a2.628 2.628 0 0 0 2.774 2.857h2.948V7.381c0-1 1.8-1.326 1.8-.2v3.022H18.1V7.381c0-.98 1.63-1.31 1.7-.272v3.1H22v-3a4.529 4.529 0 0 0-.107-1"/></svg>