<svg xmlns="http://www.w3.org/2000/svg" width="1em" height="1em" viewBox="0 0 24 24"><path fill="currentColor" d="M21.911 5.521a4.658 4.658 0 0 0-2.941-3.295c-.71-.245-.55-.241-7-.236c-5.158 0-6.095.015-6.395.08A4.6 4.6 0 0 0 2.044 5.8C2 6.067 1.993 7.845 2 12.2c.015 5.579.025 6.054.1 6.335a4.582 4.582 0 0 0 1.167 2.055a4.374 4.374 0 0 0 2.868 1.378c.371.04 2.316.049 6.25.04c5.684-.02 5.71-.02 6.12-.131a4.527 4.527 0 0 0 1.457-.641a4.6 4.6 0 0 0 1.953-2.815c.081-.316.085-.81.085-6.444c0-5.67 0-6.135-.089-6.456m-4.265 12.384a3.616 3.616 0 0 1-4.1 2.024a13.72 13.72 0 0 1-1.426-.649c-.192-.064-.373.113-.523.208a3.663 3.663 0 0 1-1 .426a3.6 3.6 0 0 1-2.467-6.722a4.011 4.011 0 0 1 3.376.1a3.472 3.472 0 0 1-.827 1.42c-.2.1-.727-.183-.98-.183a1.977 1.977 0 0 0-1.881 1.663a1.945 1.945 0 0 0 1.263 2.022c.46.177 1.43.2 1.71-.315a1.48 1.48 0 0 0 .049-.661H9.223V15.67h3.234a3.8 3.8 0 0 0 .143 1.43a1.943 1.943 0 0 0 .48.709c1.793 1.691 4.378-1.145 2.519-2.792a1.966 1.966 0 0 0-.9-.446a3.362 3.362 0 0 0-1.332.2l-.808-1.379v-.052a3.584 3.584 0 0 1 5.094 4.565zM19.772 9.9v1.356h-1.748l-.015-1.318c-.015-1.407-.025-1.457-.286-1.6a.83.83 0 0 0-.723.053c-.336.21-.356.285-.371 1.643l-.016 1.217h-1.749V9.958c0-1.186-.01-1.3-.1-1.447c-.245-.406-1.017-.275-1.253.21c-.089.191-.1.311-.1 1.369v1.157h-1.373c-1.522 0-1.757-.035-2.233-.315a2.2 2.2 0 0 1-.812-.981a2.981 2.981 0 0 1-.14-.983l-.03-.7l-.105.176c-.06.1-.421.716-.8 1.377a12.285 12.285 0 0 1-.812 1.312a.446.446 0 0 1-.556.03c-.054-.05-.6-.957-1.206-2.018a12.852 12.852 0 0 1-1.1-2.081a.417.417 0 0 1 .131-.289c.13-.131.145-.131.842-.131h.706l.395.681a4.166 4.166 0 0 0 .461.707c.11.044.22-.1.591-.757l.351-.632h2.03l.34-.592l.341-.595l.01.481a5.872 5.872 0 0 0 .04.59c.025.106.055.116.421.116h.4v1.6h-.866l.03.421c.055.776.24.976.927.976h.41v-3h1.6v.231c0 .125.016.22.04.21l.381-.19a1.535 1.535 0 0 1 .852-.191a1.565 1.565 0 0 1 1.368.471l.276.265l.095-.125a2.2 2.2 0 0 1 2.21-.52a1.7 1.7 0 0 1 .842.73a4.8 4.8 0 0 1 .304 2.379"/></svg>