<svg xmlns="http://www.w3.org/2000/svg" width="1em" height="1em" viewBox="0 0 24 24"><path fill="currentColor" d="M15 9.77a2.18 2.18 0 0 0-1.12-.38h-1.52a.33.33 0 0 0-.31.34v4.44a.33.33 0 0 0 .31.34h1.49a1.32 1.32 0 0 0 .34 0a2.19 2.19 0 0 0 1.18-.62a2.61 2.61 0 0 0 .74-2.37A2.51 2.51 0 0 0 15 9.77m-.31 3.17a1.19 1.19 0 0 1-.82.48h-.75c-.07 0-.07 0-.07-.07v-2.83c0-.07 0-.07.06-.07h.68a1.19 1.19 0 0 1 1 .6a1.55 1.55 0 0 1 .24.77a1.65 1.65 0 0 1-.32 1.11m5.48-3.21a.33.33 0 0 0-.28-.34h-.78v3.06a1.18 1.18 0 0 1 0 .27a.82.82 0 0 1-.56.66a.73.73 0 0 1-.82-.19a.92.92 0 0 1-.27-.67V9.38h-.78a.34.34 0 0 0-.29.34v2.81a2.28 2.28 0 0 0 .05.44a1.91 1.91 0 0 0 2.2 1.56a1.79 1.79 0 0 0 1.17-.78a2.17 2.17 0 0 0 .39-1.19V9.72zm-8.48 0a.34.34 0 0 0-.29-.34h-.78v3.06a2.28 2.28 0 0 1 0 .27a.83.83 0 0 1-.57.66a.73.73 0 0 1-.82-.19a.92.92 0 0 1-.25-.68V9.38h-.82a.33.33 0 0 0-.28.34v2.81A1.7 1.7 0 0 0 8 13a1.9 1.9 0 0 0 2.19 1.56a1.79 1.79 0 0 0 1.17-.78a2.09 2.09 0 0 0 .39-1.19V9.72zM7.5 9.36h-.74a.31.31 0 0 0-.28.22l-.82 2.54l-.22.7a.1.1 0 0 1 0 .05v-.05c-.17-.56-.35-1.11-.53-1.67l-.6-1.58A.3.3 0 0 0 4 9.36h-.73c-.1 0-.14.08-.11.18c.43 1.34.87 2.68 1.31 4l.09.28a.92.92 0 0 0 .86.68h.11a3.71 3.71 0 0 0 .5-.07l.3-1c.44-1.31.86-2.59 1.3-3.92a.14.14 0 0 0-.14-.15"/></svg>