<svg xmlns="http://www.w3.org/2000/svg" width="1em" height="1em" viewBox="0 0 24 24"><path fill="currentColor" d="m10.087 7.672l-.078.129v.062a3.161 3.161 0 0 0-.223 1.153v4.67a3.064 3.064 0 0 0 .375 1.46c.034.061.07.119.107.177a2.8 2.8 0 0 0 1.33 1.093l.175.069a2.766 2.766 0 0 0 2.323-.247l3.841-2.3a2.952 2.952 0 0 0 .347-.242a2.827 2.827 0 0 0 .772-.977l.065-.136v-.017a3.126 3.126 0 0 0 .236-1.177V6.716a3.074 3.074 0 0 0-.374-1.459a2.833 2.833 0 0 0-1.438-1.281l-.173-.068a2.917 2.917 0 0 0-.888-.149a.485.485 0 0 0-.093.006a2.865 2.865 0 0 0-1.344.39l-.948.567l-2.891 1.73a2.842 2.842 0 0 0-1.121 1.22m5.3-2.953a2.2 2.2 0 0 1 1.1-.3a2.235 2.235 0 0 1 .683.116a.04.04 0 0 0 .027.014a2.193 2.193 0 0 1 1.21 1.026a2.407 2.407 0 0 1 .293 1.141v4.671a2.435 2.435 0 0 1-.223 1.012a.054.054 0 0 0-.014.043a2.2 2.2 0 0 1-.863.939l-3.842 2.3a2.115 2.115 0 0 1-1.782.187a.042.042 0 0 0-.027-.014a2.182 2.182 0 0 1-1.21-1.026a2.4 2.4 0 0 1-.293-1.143V9.016A2.442 2.442 0 0 1 10.667 8c0-.015.014-.015.014-.043a2.2 2.2 0 0 1 .863-.939ZM9.565 14.933a3.05 3.05 0 0 1-.375-1.46V8.8a3.119 3.119 0 0 1 .223-1.148v-.059l.078-.129a2.846 2.846 0 0 1 1.119-1.219l2.89-1.729a2.5 2.5 0 0 0-1.066-.857a2.638 2.638 0 0 0-.215-.081a.038.038 0 0 1-.031-.016h-.018a2.573 2.573 0 0 0-.778-.129a2.653 2.653 0 0 0-1.282.337L5.635 6.322a2.486 2.486 0 0 0-1.006 1.043v.016c0 .015-.015.015-.015.031a2.609 2.609 0 0 0-.261 1.124v5.189a2.547 2.547 0 0 0 .347 1.269a2.518 2.518 0 0 0 1.411 1.14a.047.047 0 0 1 .031.016h.016a2.535 2.535 0 0 0 .777.128a2.641 2.641 0 0 0 1.282-.336l1.46-.832a1.924 1.924 0 0 1-.112-.177m7.5 2.467l-.047-.018a.8.8 0 0 0-.242-.041h-.026a.773.773 0 0 0-.366.106l-.258.155l-.788.471a.785.785 0 0 0-.3.333l-.021.035v.017a.863.863 0 0 0-.061.313v1.272a.833.833 0 0 0 .1.4c.01.017.019.033.03.049a.757.757 0 0 0 .361.3l.047.019a.8.8 0 0 0 .242.04a.783.783 0 0 0 .392-.108l1.047-.626a.664.664 0 0 0 .094-.066a.781.781 0 0 0 .211-.266l.017-.038v-.006a.855.855 0 0 0 .065-.32v-1.274a.847.847 0 0 0-.1-.4a.779.779 0 0 0-.396-.347zm.314 2.02a.668.668 0 0 1-.061.275v.012a.6.6 0 0 1-.235.256l-1.047.626a.573.573 0 0 1-.486.051h-.007a.6.6 0 0 1-.33-.28a.652.652 0 0 1-.08-.312v-1.276a.656.656 0 0 1 .067-.272v-.012a.6.6 0 0 1 .235-.256l1.047-.626a.607.607 0 0 1 .3-.083a.621.621 0 0 1 .186.032h.007a.6.6 0 0 1 .33.279a.667.667 0 0 1 .08.312zm-2.591.569v-1.273a.841.841 0 0 1 .06-.313v-.017l.022-.035a.77.77 0 0 1 .3-.332l.788-.472a.694.694 0 0 0-.291-.234l-.058-.022H15.6a.73.73 0 0 0-.212-.035a.722.722 0 0 0-.349.092l-1.221.7a.67.67 0 0 0-.274.284l-.005.009a.722.722 0 0 0-.071.306v1.414a.691.691 0 0 0 .478.657h.009a.664.664 0 0 0 .212.035a.724.724 0 0 0 .349-.091l.4-.227l-.029-.048a.837.837 0 0 1-.098-.398zm4.768-.361h-.036a.253.253 0 0 1-.173-.045a.182.182 0 0 1-.05-.147V18.4h.243a.22.22 0 0 0 0-.44h-.24v-.284a.24.24 0 0 0-.48 0v.287h-.242a.22.22 0 0 0 0 .44h.242v1.035a.616.616 0 0 0 .176.494a.76.76 0 0 0 .5.149h.063a.226.226 0 0 0 0-.451zm2.423-1.328a.25.25 0 0 0-.461-.189l-.482 1.259l-.481-1.256v-.007a.25.25 0 0 0-.461.193l.675 1.591a.3.3 0 0 0 .159.16a.294.294 0 0 0 .382-.159l.673-1.6zM18.1 19.58a.25.25 0 0 0 0 .5a.25.25 0 0 0 0-.5M6.9 17.959a.238.238 0 0 0-.238.237v.114a.744.744 0 0 0-.672-.353a1.06 1.06 0 0 0 0 2.118a.744.744 0 0 0 .672-.349v.113a.237.237 0 0 0 .218.236h.04a.237.237 0 0 0 .217-.236v-1.654a.238.238 0 0 0-.237-.226m-.311 1.357a.565.565 0 0 1-.531.32a.6.6 0 0 1-.607-.593v-.014a.6.6 0 0 1 .577-.621h.023a.588.588 0 0 1 .556.353a.628.628 0 0 1 .054.28a.7.7 0 0 1-.074.275zm-2.016-1.36a.254.254 0 0 0-.244.185L4 19.316L3.653 18.2a.25.25 0 0 0-.217-.175H3.4a.251.251 0 0 0-.225.188l-.342 1.1l-.333-1.179a.251.251 0 1 0-.484.134l.011.035v.009l.5 1.569a.289.289 0 0 0 .248.194h.043a.29.29 0 0 0 .262-.207l.33-1.052l.333 1.045a.29.29 0 0 0 .253.21h.042a.29.29 0 0 0 .26-.194l.518-1.6a.3.3 0 0 0 .01-.067a.254.254 0 0 0-.255-.254Zm3.285.007h-.045a.238.238 0 0 0-.223.237v1.656a.237.237 0 0 0 .473 0v-1.66a.237.237 0 0 0-.207-.235Zm-.03-.863a.248.248 0 1 0 .247.249a.248.248 0 0 0-.247-.249m1.863.855a.83.83 0 0 0-.7.353v-.129a.223.223 0 0 0-.446-.01v2.395a.237.237 0 0 0 .218.228H8.8a.237.237 0 0 0 .216-.236v-.809a.772.772 0 0 0 .679.328a1.062 1.062 0 0 0 0-2.12zm.518 1.061a.6.6 0 0 1-.585.615H9.6a.6.6 0 0 1-.6-.6v-.015a.636.636 0 0 1 .17-.44a.6.6 0 0 1 .43-.176a.6.6 0 0 1 .611.589v.026zm2.489-1a.232.232 0 0 0-.136-.058h-.044a.238.238 0 0 0-.217.235v.923c0 .284-.116.509-.458.509s-.436-.229-.436-.523v-.917a.239.239 0 0 0-.217-.23h-.043a.238.238 0 0 0-.217.235v1.031a.746.746 0 0 0 .636.844a.673.673 0 0 0 .142.006a.641.641 0 0 0 .621-.327v.107a.224.224 0 1 0 .448 0V18.2a.236.236 0 0 0-.077-.174Z"/></svg>