<svg xmlns="http://www.w3.org/2000/svg" width="1em" height="1em" viewBox="0 0 24 24"><path fill="currentColor" d="M10.25.57L1.93 2.55l-.02 1.33s-.3.08-.38.13c-.07.06-.07.19-.07.19L1.4 20.52s.02.1.09.15s.33.07.33.07l.02 1.11l8.41 1.58l5.4-1.36V3.37zm.89 1.92l3.57 1.77v.18l-2.38.5v.6l2.04-.36l.02 15.05l-2.02-.33l.01.59l2.28.36v.2l-3.53.66zm-2.18.01l-.03 19.13l-5.97-.93l.02-.19l2.28-.38V4.78l-2.24-.83s0-.27.28-.33S8.96 2.5 8.96 2.5m9.76 2.47l-2.06.49v1.08c.61-.12 1.08-.21 1.08-.21l-.02 13.48l-1.08-.17v1.23l2.08.39l3.85-.97V6.97zm3.07 2.73l-1.68.35v.42l1.44-.25l.02 10.61l-1.42-.23l.01.4l1.61.25v.14l-2.49.46V6.33l2.52 1.25v.12z"/></svg>