<svg xmlns="http://www.w3.org/2000/svg" width="1em" height="1em" viewBox="0 0 24 24"><path fill="currentColor" d="M9.68 10.28h4.7v1h-4.7zm-.04 3.95h4.74v-2.12H9.64zM22.2 6.12c0-.02-.01-.04-.01-.06V4.59c0-.1-.03-.2-.09-.28l-.64-.94a.49.49 0 0 0-.41-.22h-1.33c-.15 0-.3.07-.39.19l-.49.63h-2.66l-.6-.65a.506.506 0 0 0-.37-.16H3.03c-.15 0-.29.06-.38.18l-.62.71c-.08.09-.12.21-.12.33v10.94c0 .08.02.15.05.22c.03.06 3.1 6.23 9.86 6.23h.07c6.78-.04 10.1-5.75 10.24-5.99c.04-.08.07-.16.07-.25V6.15zm-9.08-.49l-.33 1.3h-1.72l-.26-1.31zm-1.24 15.12h-.06c-5.67 0-8.51-4.82-8.91-5.57v-9.1c0-.06.02-.25.13-.36c.08-.08.22-.13.41-.13h.02l6.32.03l.38 1.91c.05.23.25.4.49.4h2.51c.23 0 .43-.15.48-.38l.49-1.92l6.55.03c.04.01.27.02.39.13c.02.02.08.09.1.27v9.32c-.46.76-3.58 5.34-9.3 5.37"/></svg>