<svg xmlns="http://www.w3.org/2000/svg" width="1.04em" height="1em" viewBox="0 0 33 32"><path fill="currentColor" d="m20.414 3.27l-.139-.108c-.075-.058-1.909-1.438-6.55-1.533a29.736 29.736 0 0 0-7.89.816l-.316.087l-.146 1.014l2.543 10.327l.086.095c.724.8 1.642 1.4 2.665 1.743l.552.18c.098.032.216.039.34.037c.048.173.16.563.298.993c-1.361-.043-2.937-.253-4.277-1.248c-.196-1.864-.805-3.233-1.535-3.233H4.438c-.888 0-1.607 2.011-1.607 4.493c0 2.481.72 4.493 1.607 4.493h1.607c.627 0 1.164-1.014 1.429-2.478c1.166-.56 1.226-1.088 4.786-.932c.122.277.243.49.35.56c.416.278.66.035.764 0c.104-.035 1.112-1.46 1.146-2.745a.75.75 0 0 0-.128-.442c1.935-.273 3.302-.453 3.385-.652c.092-.22 1.809-6.634 2.825-10.437l.032-.123zM7.15 4.2l2.408.822l.645 5.214l-1.837-.962zm2.04 8.514l-.514-2.149l1.676.879l.278 2.244zm6.983.69l-4.44.56l-.267-2.515l5.333-.495zm.89-3.48l-5.703.53l-.557-5.248l7.575-.429z"/></svg>