<svg xmlns="http://www.w3.org/2000/svg" width="1.04em" height="1em" viewBox="0 0 33 32"><path fill="currentColor" d="M20.68 4.616s-5.436-2.777-8.725-3.248c-3.026.891-7.3 4.015-7.3 4.015l-.153.512s1.732 8.378 2.014 9.95a3.357 3.357 0 0 0-1.878 3.64c.44 2.673 2.27 2.817 3.052 2.778a2.807 2.807 0 0 0 2.7-2.504a43.46 43.46 0 0 1 1.74-.128a1.928 1.928 0 0 0 .255.476a3.495 3.495 0 0 0 .636.004a4.102 4.102 0 0 0 .695-1.653a27.35 27.35 0 0 0 4.893-.693c.47-2.162 2.307-12.601 2.307-12.601ZM5.965 7.213l1.35.314l-.14-.625l-1.304-.321l5.802-2.815l.195 7.361l-4.817 1.12Zm4.425 11.362v-.206l1.186.108l.076.228Zm-1.098-1.949l-.087-.4a1.643 1.643 0 0 0-.604-.41a2.098 2.098 0 0 0-.781-.153l-.51-2.284l1.307.151l-.119-.595l-.732-.065l4.128-.92l.082 4.427Zm8.108.043l-4.333-.366l.1-4.353l4.32.736l-.704.087l-.087.584l1.364-.173Zm1.916-9.99L18.3 12.046l-5.06-.984l.123-7.297L19.4 6.049l-1.331.488l-.141.584Z"/></svg>