<svg xmlns="http://www.w3.org/2000/svg" width="1em" height="1em" viewBox="0 0 24 24"><path fill="currentColor" d="M19.11.97c-2.29 0-4.02.92-4.02 2.14v2.21l-1.35.61a.43.43 0 0 0-.25.39v9.17c0 .23.19.42.42.42h1.18v1.62c0 1.22 1.73 2.14 4.02 2.14s4.02-.92 4.02-2.14V3.12c0-1.22-1.73-2.15-4.02-2.15m0 17.87c-1.82 0-3.17-.68-3.17-1.3c0-.61 1.36-1.3 3.17-1.3c1.82 0 3.17.68 3.17 1.3c0 .61-1.36 1.3-3.17 1.3M7.72.97c-2.7 0-4.74 1.09-4.74 2.53v2.6l-1.59.72c-.18.08-.3.26-.3.46v10.81c0 .28.22.5.5.5h1.38v1.92c0 1.44 2.04 2.53 4.74 2.53s4.74-1.09 4.74-2.53v-17C12.46 2.06 10.42.97 7.72.97m0 21.06c-2.14 0-3.74-.81-3.74-1.53s1.6-1.53 3.74-1.53s3.74.81 3.74 1.53s-1.6 1.53-3.74 1.53"/></svg>