<svg xmlns="http://www.w3.org/2000/svg" width="1.04em" height="1em" viewBox="0 0 33 32"><path fill="currentColor" d="M6.76 4.077c-.865-.003-1.293.772-1.338.973c-.052.229-.791 3.369-.791 3.369l-.262-.078c-.49-.147-.764-.028-.764-.028s-1.421.449-1.763.58c-.343.132-.395.578-.395.578v8.95c0 .579.605.63.605.63l7.659.528s.92-.16 1.605-.344c.684-.184.631-.762.631-.762s5.87.5 6.527.553c.658.053 1.053-.844 1.053-.844s2.632-7.631 2.947-8.71c.316-1.08-.5-1.448-.5-1.448S8.29 4.42 7.158 4.13a1.63 1.63 0 0 0-.399-.053M8.94 6.073l12.176 2.951s.21.188.256.315c.058.163 0 .52 0 .52l-2.614 7.476c-.214.33-.405.62-.826.654c-.233-.001-11.632-1.484-11.632-1.484s-.414-.033-.58-.33c-.205-.365-.07-.684-.07-.684l2.267-8.766s.161-.38.326-.494c.195-.134.697-.158.697-.158"/></svg>