<svg xmlns="http://www.w3.org/2000/svg" width="1.04em" height="1em" viewBox="0 0 33 32"><path fill="currentColor" d="M22.402 16.69a.25.25 0 0 0-.027-.086c-.849-1.59-5.919-1.828-8.866-1.828l-.519.002a34.943 34.943 0 0 0-7.606.862c.026-.464.07-1.273.084-1.58c.083-.249 1.684-1.334 7.489-1.455c.174-.002.347-.004.517-.004c5.196 0 7.093 1.162 7.166 1.49c.04.53.082.96.082.96a.25.25 0 0 0 .332.213c.13-.046 1.269-.47 1.269-1.256a5.165 5.165 0 0 0-.067-1.175a.25.25 0 0 0-.05-.103a3.39 3.39 0 0 0-1.356-.95l.013-.003a2.852 2.852 0 0 0 1.347-1.24a.25.25 0 0 0 .03-.12a10.57 10.57 0 0 0-.063-1.156a.25.25 0 0 0-.024-.08a2.582 2.582 0 0 0-1.13-1.046c.447-.257 1.136-.758 1.136-1.412a3.816 3.816 0 0 0-.048-.864a4.72 4.72 0 0 1-.036-.213a.249.249 0 0 0-.017-.06c-.648-1.533-3.177-2.313-7.956-2.455a43.49 43.49 0 0 0-1.297-.02a19.597 19.597 0 0 0-5.985.816c-1.797.506-2.957 1.684-2.976 2.049l-.004.07c-.011.213-.03.56-.03.819a1.286 1.286 0 0 0 .068.405l-2.19 1.24a.25.25 0 0 0-.128.218V19.64a.25.25 0 0 0 .225.248l9.815 1l.025.002a.25.25 0 0 0 .087-.016c.015-.005 1.541-.567 3.118-1.087c4.628-.063 7.523-1.179 7.554-2.18a1.647 1.647 0 0 1 .035-.38a1.28 1.28 0 0 0-.017-.537m-1.666 1.106c.002.017-.022.046-.032.057c-.624.68-5.164.987-8.188.987c-5.907 0-7.147-.51-7.147-.937c0-.652 3.015-1.354 8.06-1.397l.338-.002c4.29 0 6.913.657 6.969 1.292m-.447-9.988a23.36 23.36 0 0 0-7.276-.886A28.323 28.323 0 0 0 5.649 7.96a7.428 7.428 0 0 1 .058-1.1c.1-.366 1.7-1.847 7.21-1.847l.318.002c6.395.062 6.973 1.522 6.976 1.536c0 .211.048.865.078 1.257m.287 3.865c-1.88-.692-4.737-.773-7.34-.847l-.237-.006q-.236-.007-.475-.007a32.532 32.532 0 0 0-7.003.953l.049-1.34c.074-.317 1.642-1.637 7.483-1.637c5.96 0 7.392 1.22 7.423 1.646c.021.28.026.404.031.542c.005.133.01.278.03.579a.25.25 0 0 0 .039.117"/></svg>