<svg xmlns="http://www.w3.org/2000/svg" width="1em" height="1em" viewBox="0 0 24 24"><path fill="currentColor" d="M4.091 4a.956.956 0 0 0 0 1.909a.956.956 0 0 0 0-1.909m.437.45a.117.117 0 1 1-.11.117a.113.113 0 0 1 .11-.115Zm-.362-.229a.117.117 0 1 1-.11.117a.115.115 0 0 1 .11-.115zm.6.734a.675.675 0 1 1-1.348 0a.763.763 0 0 1 .009-.109a.643.643 0 0 1 .4-.144a.4.4 0 0 1 .274.107v-.021a.144.144 0 1 1 .287 0a.154.154 0 0 1-.071.131a.467.467 0 0 0 .1.01a.321.321 0 0 0 .321-.182a.741.741 0 0 1 .027.21zM2.752 3.3h2.8a.112.112 0 0 0 .038-.006c.078-.028.114-.137.117-.223H2.526a.265.265 0 0 0 .226.229m3.171 2.9V3.3a.238.238 0 0 0-.016-.085L5.9 3.19a.221.221 0 0 0-.03-.045a.145.145 0 0 0-.021-.022a.454.454 0 0 1-.009.051a.494.494 0 0 1-.035.1l-.01.02a.273.273 0 0 1-.242.155h-2.8a.368.368 0 0 1-.259-.128L2.478 3.3a.445.445 0 0 1-.072-.12a.378.378 0 0 1-.025-.1a.189.189 0 0 0-.049.025a.217.217 0 0 0-.036.032l-.016.021a.232.232 0 0 0-.045.137V6.2a.223.223 0 0 0 .217.229h3.254a.223.223 0 0 0 .217-.229m-1.832-.06A1.155 1.155 0 0 1 2.97 4.956a1.155 1.155 0 0 1 1.121-1.183a1.155 1.155 0 0 1 1.121 1.183A1.155 1.155 0 0 1 4.091 6.14m1.615-3.225a.35.35 0 0 1 .207.069l-.134-.633a.3.3 0 0 0-.3-.276H2.744a.318.318 0 0 0-.293.275l-.124.59a.328.328 0 0 1 .125-.025Zm-.425-.639a.219.219 0 1 1-.208.219a.214.214 0 0 1 .208-.219m-.651 0a.219.219 0 1 1-.207.219a.214.214 0 0 1 .207-.219m-.8.028h.361v.153h-.365Zm0 .305h.361v.153h-.365Zm17.851-.515h-3.194a.092.092 0 0 0-.084.1v.875h3.362v-.878a.092.092 0 0 0-.084-.097m-1.429.68a.2.2 0 1 1 .168-.194a.182.182 0 0 1-.168.194m.5 0a.2.2 0 1 1 .168-.194a.182.182 0 0 1-.164.194Zm.5 0a.2.2 0 1 1 .168-.194a.182.182 0 0 1-.159.194ZM18.4 6.272a.091.091 0 0 0 .084.1h3.194a.091.091 0 0 0 .084-.1V3.26H18.4Zm2.521-2.623h.169v.306a.383.383 0 0 1 .252.374v.777a.383.383 0 0 1-.252.374v.306h-.169zm-.672 0h.168v.306a.381.381 0 0 1 .252.374v.777a.381.381 0 0 1-.252.374v.306h-.168Zm-1.429.583h1.009v.388a.567.567 0 0 1-.42.574v.4h.252v.194h-.672v-.196h.252v-.4a.566.566 0 0 1-.421-.574ZM5.786 18.076v.557a.154.154 0 0 0 .165.139h.662a.154.154 0 0 0 .165-.139v-.975a.615.615 0 0 0-.661-.556H3.473v.835h2.148a.154.154 0 0 1 .165.139m1.906 1.029H4.819a.462.462 0 0 0-.065 0c-.128.025-.207.125-.175.224l.728 2.212a.235.235 0 0 0 .23.14h1.437a.236.236 0 0 0 .239-.14l.718-2.212a.121.121 0 0 0 .007-.05a.221.221 0 0 0-.246-.174m-.546 1.106H5.369l-.244-.737h2.26zM21.283 19h-6.045v-1.924a.453.453 0 0 1 .474-.427a.488.488 0 0 1 .4.2a.84.84 0 0 0 .1 1.109a.148.148 0 0 0 .007.219l.168.151a.19.19 0 0 0 .251 0l1.408-1.268a.15.15 0 0 0 0-.227l-.168-.151a.193.193 0 0 0-.243-.007a1.087 1.087 0 0 0-.951-.2a1.226 1.226 0 0 0-.974-.46a1.133 1.133 0 0 0-1.185 1.068V19h-.119a.339.339 0 0 0-.355.32v.214a.339.339 0 0 0 .355.32h.119v.427a1.228 1.228 0 0 0 .474.956v.433a.34.34 0 0 0 .356.321h.237a.34.34 0 0 0 .355-.321v-.107h3.793v.107a.34.34 0 0 0 .356.321h.237a.34.34 0 0 0 .355-.321v-.433a1.228 1.228 0 0 0 .474-.956v-.427h.119a.339.339 0 0 0 .355-.32v-.214a.339.339 0 0 0-.353-.32M9.7 9.5c-.157 0-.179-.005-.179-.043c0-.076-.055-.1-.222-.1s-.222.024-.222.1c0 .03-.032.042-.143.057a2.206 2.206 0 0 0-1.63.938a2.1 2.1 0 0 0-.357.976c-.015.1-.027.135-.059.135a.114.114 0 0 0-.071.029a.371.371 0 0 0-.03.185c0 .161.025.213.1.213c.04 0 .045.021.045.173a.435.435 0 0 0 .029.2a3.5 3.5 0 0 0 .926 0a.417.417 0 0 0 .03-.2c0-.156.005-.173.047-.173c.071 0 .125-.092.125-.213c0-.138-.054-.214-.15-.214c-.071 0-.071 0-.057-.1a1.158 1.158 0 0 1 .365-.7a1.239 1.239 0 0 1 .724-.351c.1-.014.1-.014.1.055c0 .092.079.144.222.144c.125 0 .222-.052.222-.12c0-.041.017-.045.179-.045a.478.478 0 0 0 .21-.029a3.243 3.243 0 0 0 0-.891A.5.5 0 0 0 9.7 9.5m-1.756 2.18v.19H6.909v-.19h1.034ZM9.4 9.973v.5h-.2v-1h.2Zm-1.446 3.059c-.042 0-.054-.024-.054-.114a.259.259 0 0 0-.037-.15a1.224 1.224 0 0 0-.44-.036c-.443 0-.464.009-.464.2c0 .069-.018.093-.091.12c-.088.033-.091.04-.091.241c0 .201.031.279.128.279c.066 0 .066.03.006.175a.834.834 0 0 1-.352.369c-.14.072-.146.072-.146 0s-.088-.12-.273-.12c-.185 0-.273.039-.273.132c0 .063-.021.075-.185.106a1.654 1.654 0 0 0-.809.426a1.572 1.572 0 0 0-.477.935c-.015.123-.027.141-.1.15c-.073.009-.082.015-.091.229c-.009.234.018.306.119.306c.045 0 .057.021.057.114a.256.256 0 0 0 .037.151a1.216 1.216 0 0 0 .439.036c.367 0 .4-.006.434-.057a.44.44 0 0 0 .03-.151c0-.06.016-.093.043-.093c.094 0 .139-.09.139-.282c0-.192-.033-.259-.127-.259c-.07 0-.067-.042 0-.2a.739.739 0 0 1 .343-.349c.136-.069.145-.069.145-.015c0 .093.091.138.273.138c.182 0 .273-.045.273-.15c0-.042.04-.06.185-.087a1.632 1.632 0 0 0 1.286-1.358c.016-.127.028-.142.107-.16c.079-.018.09-.018.09-.237s-.024-.289-.124-.289m-2.6 2.855v.241h-1v-.241zm.91-1.232v.511h-.245v-1.022h.243ZM7.93 13.3v.12h-1v-.24h1zm6.354-2.853c.162 0 .179 0 .179.045c0 .068.1.12.222.12c.143 0 .222-.052.222-.144c0-.069 0-.069.1-.055a1.239 1.239 0 0 1 .724.351a1.164 1.164 0 0 1 .365.7c.014.1.014.1-.057.1c-.1 0-.15.076-.15.214c0 .121.054.213.125.213c.042 0 .047.017.047.173a.417.417 0 0 0 .03.2a3.5 3.5 0 0 0 .926 0a.435.435 0 0 0 .029-.2c0-.152 0-.173.044-.173c.079 0 .1-.052.1-.213a.371.371 0 0 0-.03-.185a.114.114 0 0 0-.071-.029c-.032 0-.044-.03-.059-.135a2.1 2.1 0 0 0-.357-.976a2.206 2.206 0 0 0-1.631-.938c-.11-.015-.142-.027-.142-.057c0-.074-.055-.1-.222-.1s-.222.024-.222.1c0 .038-.022.043-.179.043a.5.5 0 0 0-.21.028a3.166 3.166 0 0 0 0 .891a.478.478 0 0 0 .217.027m2.273 1.232h.517v.19h-1.035v-.19zm-1.971-1.706v-.5h.2v1h-.2zm-4.242-5.924c-.11-.1-.123-.122-.1-.151c.054-.058.032-.112-.085-.221a.388.388 0 0 0-.155-.1a.122.122 0 0 0-.069.034c-.022.024-.052.012-.138-.048a2.063 2.063 0 0 0-.954-.4a2.2 2.2 0 0 0-1.79.57c-.085.073-.116.089-.138.068c-.054-.05-.108-.026-.221.1s-.133.18-.078.232c.027.025.016.045-.091.162a.5.5 0 0 0-.122.174a3.185 3.185 0 0 0 .649.605a.5.5 0 0 0 .163-.136c.111-.12.126-.13.155-.1c.05.047.153.011.238-.082c.085-.093.113-.2.046-.262c-.05-.047-.049-.048.03-.114a1.239 1.239 0 0 1 .747-.3a1.139 1.139 0 0 1 .755.2c.081.055.082.057.034.11c-.065.071-.047.162.053.256s.192.1.241.051c.028-.031.044-.023.158.083a.439.439 0 0 0 .166.115a3.6 3.6 0 0 0 .629-.686a.441.441 0 0 0-.123-.16m-2.835.6l-.067.073l-.362-.334l-.363-.338l.067-.073l.067-.077l.362.338l.363.338ZM9.8 4.216l-.354.384l-.069-.064l-.069-.066l.351-.383l.351-.387l.069.064l.069.065zm4.582.644a.5.5 0 0 0 .163-.136c.11-.12.125-.13.155-.1c.05.047.153.011.238-.082c.085-.093.113-.2.045-.262c-.05-.047-.048-.048.031-.114a1.237 1.237 0 0 1 .747-.3a1.141 1.141 0 0 1 .754.2c.081.055.083.057.035.11c-.066.071-.047.162.053.256s.192.1.241.051c.028-.031.043-.023.157.083a.44.44 0 0 0 .167.115A3.59 3.59 0 0 0 17.8 4a.422.422 0 0 0-.126-.158c-.111-.1-.123-.121-.1-.151c.053-.058.032-.112-.085-.221a.388.388 0 0 0-.155-.1a.122.122 0 0 0-.069.034c-.022.024-.053.012-.139-.048a2.06 2.06 0 0 0-.953-.4a2.2 2.2 0 0 0-1.79.571c-.086.072-.116.088-.138.067c-.054-.05-.108-.026-.222.1s-.133.18-.077.232c.027.025.016.045-.091.162a.5.5 0 0 0-.122.174a3.159 3.159 0 0 0 .649.598m2.6-.983l.351-.383l.069.064l.069.065l-.351.383l-.351.383l-.069-.065l-.069-.064Zm-2.875-.11l.067-.073l.362.338l.363.338l-.067.073l-.067.073l-.363-.338l-.362-.338Zm-.054 1.376c0-.108-.025-.141-.246-.37c-.328-.33-.415-.348-.655-.123c-.094.087-.1.09-.155.042c-.1-.087-.2-.063-.336.084c-.136.147-.149.187-.067.292l.06.075l-.272.246l-.27.247l-.27-.247l-.273-.246l.06-.075c.082-.1.073-.142-.066-.292s-.24-.171-.337-.084c-.052.048-.061.045-.155-.042c-.16-.153-.245-.18-.37-.129a1.812 1.812 0 0 0-.294.264c-.212.217-.237.253-.237.358c0 .105.022.138.122.234l.118.115l-.058.075c-.088.108-.075.159.07.3c.145.141.237.159.328.078c.063-.057.036-.075.506.334l.31.27v.737h-.085c-.128 0-.158.051-.158.258c0 .207.045.283.17.283c.07 0 .073.009.073.189c0 .315.009.321.546.321s.546-.006.546-.321c0-.18 0-.189.072-.189c.125 0 .17-.076.17-.283c0-.207-.03-.258-.158-.258h-.084v-.737l.309-.27c.47-.409.443-.391.506-.334c.091.084.192.057.331-.081s.155-.189.067-.3l-.058-.075l.118-.115c.1-.093.122-.135.122-.231m-2.988.249l-.437.433l-.078-.072l-.079-.072l.433-.43c.24-.237.44-.43.452-.43a.279.279 0 0 1 .082.069l.067.07zm1.683 2.044v.24h-1.273v-.24Zm.926-1.683l-.079.072l-.437-.433l-.44-.432l.067-.07a.279.279 0 0 1 .082-.069c.012 0 .212.193.452.43l.433.43zm3.896 8.361c0 .075-.006.075-.146 0a.829.829 0 0 1-.352-.369c-.06-.145-.06-.175.006-.175c.1 0 .128-.066.128-.279c0-.213 0-.208-.091-.241c-.073-.027-.091-.051-.091-.12c0-.192-.022-.2-.464-.2a1.224 1.224 0 0 0-.44.036a.259.259 0 0 0-.037.15c0 .09-.012.114-.054.114c-.1 0-.128.067-.128.292c0 .225 0 .222.091.237c.091.015.091.033.107.16a1.632 1.632 0 0 0 1.286 1.358c.145.027.185.045.185.087c0 .105.084.15.273.15s.273-.045.273-.138c0-.054.009-.054.145.015a.739.739 0 0 1 .343.349c.07.153.073.2 0 .2c-.094 0-.128.066-.128.259s.046.282.14.282c.027 0 .042.033.042.093a.439.439 0 0 0 .031.151c.03.051.067.057.434.057a1.216 1.216 0 0 0 .439-.036a.256.256 0 0 0 .037-.151c0-.093.012-.114.057-.114c.1 0 .128-.072.119-.306c-.009-.214-.012-.22-.091-.229c-.079-.009-.085-.027-.1-.15a1.572 1.572 0 0 0-.477-.935a1.658 1.658 0 0 0-.809-.426c-.164-.031-.185-.043-.185-.106c0-.093-.082-.132-.273-.132s-.27.036-.27.117m-1.517-.691v-.24h1v.24zm3.079 2.464h.5v.241h-1v-.241zm-1.411-1.232v-.511h.243v1.022h-.243zm-4.758 2.564a.372.372 0 0 0 .188-.079c.089-.064.1-.118.1-.384c0-.34-.047-.424-.244-.424c-.132 0-.132 0-.132-.29a1.515 1.515 0 0 0-.047-.419l-.047-.129h-1.502l-.047.129a1.515 1.515 0 0 0-.047.419c0 .285 0 .29-.131.29c-.2 0-.245.084-.245.424c0 .266.014.32.1.384a.369.369 0 0 0 .188.079c.08 0 .084.094.084 1.429s0 1.43-.084 1.43a.375.375 0 0 0-.188.078c-.09.064-.1.119-.1.385c0 .34.047.424.245.424c.131 0 .131 0 .131.29a1.515 1.515 0 0 0 .047.419l.047.128h1.505l.047-.128a1.515 1.515 0 0 0 .047-.419c0-.286 0-.29.132-.29c.2 0 .244-.084.244-.424c0-.266-.014-.321-.1-.385a.379.379 0 0 0-.188-.078c-.08 0-.085-.094-.085-1.43c0-1.336.002-1.429.082-1.429m.056 3.154v.345h-1.975v-.345zm-.987-3.449h-.988v-.345h1.975v.345zM13.127 8.9h-2.265a.667.667 0 0 0-.662.668v4.862a.667.667 0 0 0 .662.668h2.265a.667.667 0 0 0 .663-.668V9.571a.667.667 0 0 0-.663-.671m-.43 4.142a.847.847 0 0 1-.662.333a.794.794 0 0 1-.1-.005a.851.851 0 0 1-.568-.326a.966.966 0 0 1-.154-.276a1.05 1.05 0 0 1-.064-.369a5 5 0 0 1 .88-1.779a4.986 4.986 0 0 1 .881 1.779a1.048 1.048 0 0 1-.21.646zm-.404.136a1.239 1.239 0 0 0 .319-.274a.885.885 0 0 0 .117-.316a1.024 1.024 0 0 0-.029-.4a2.6 2.6 0 0 0-.179-.412l-.061-.121a.373.373 0 0 0-.04-.063c-.089-.13-.172-.042-.118.081l.091.183a2.909 2.909 0 0 1 .167.378a.869.869 0 0 1 .026.329a.519.519 0 0 1-.1.25a.9.9 0 0 1-.248.211c-.138.082-.049.204.055.154"/></svg>