<svg xmlns="http://www.w3.org/2000/svg" width="1em" height="1em" viewBox="0 0 24 24"><path fill="currentColor" d="M11.013 13.355a1.577 1.577 0 0 0 .1.548a1.438 1.438 0 0 0 .229.41a1.259 1.259 0 0 0 .844.484a1.223 1.223 0 0 0 .148.008a1.257 1.257 0 0 0 .983-.5v.005a1.565 1.565 0 0 0 .312-.96a7.4 7.4 0 0 0-1.321-2.637a7.434 7.434 0 0 0-1.295 2.642m1.615.937a1.357 1.357 0 0 0 .372-.314a.769.769 0 0 0 .148-.371a1.281 1.281 0 0 0-.038-.489a4.6 4.6 0 0 0-.248-.561l-.136-.272c-.08-.182.043-.313.176-.12a.5.5 0 0 1 .059.093l.091.18a3.905 3.905 0 0 1 .266.612a1.526 1.526 0 0 1 .043.594a1.33 1.33 0 0 1-.17.473a1.812 1.812 0 0 1-.474.407c-.161.076-.294-.111-.089-.232m6.449 5.714h.254v1.869h-.254zm-.658 0h.224v1.317h-.224zm.317 0h.224v.868h-.224ZM9.872 3.775h4.741v.54H9.872Zm9.577 16.227h.24v1.878h-.24zM9.367 3.552h5.751a.434.434 0 0 0 0-.868h-1.262a.229.229 0 0 1-.023-.01C13.757 2.232 12.955 2 12.161 2c-.794 0-1.611.234-1.676.683H9.367a.434.434 0 1 0 0 .868zm2.794-1.171a2.065 2.065 0 0 1 .408.029a2.039 2.039 0 0 0-1.138.271h-.537a2.053 2.053 0 0 1 1.267-.3M18.43 19.8h1.591v-1.132a1.066 1.066 0 0 0-1.065-1.068h-1.127V8.118a3.552 3.552 0 0 0-.408-1.659V4.9h-1.608a3.561 3.561 0 0 0-1.567-.361h-4.01a3.561 3.561 0 0 0-1.567.361H7.064v1.56a3.564 3.564 0 0 0-.407 1.66v10.3a3.56 3.56 0 0 0 .407 1.658v1.912H10c.079 0 .159.009.239.009h4.011a2.122 2.122 0 0 0 .239-.009h2.932v-1.909a3.507 3.507 0 0 0 .323-.887h.686ZM7.281 5.116h1.006a3.6 3.6 0 0 0-1.006.984Zm0 16.659v-1.333a3.594 3.594 0 0 0 1.7 1.333zm8.1-6.587H9.256a1.635 1.635 0 0 1-1.636-1.635v-1.587a1.636 1.636 0 0 1 1.634-1.636h6.128a1.634 1.634 0 0 1 1.631 1.636v1.586a1.635 1.635 0 0 1-1.634 1.636zm1.819 6.587h-1.7a3.589 3.589 0 0 0 1.7-1.333zm0-15.675a3.62 3.62 0 0 0-1-.981h1zm.609 12.6a3.78 3.78 0 0 0 .012-.283v-.327h1.127a.578.578 0 0 1 .577.577v.648h-.615V18.7Zm2.011 1.302h.202v1.056h-.202Z"/></svg>