<svg xmlns="http://www.w3.org/2000/svg" width="1.04em" height="1em" viewBox="0 0 33 32"><path fill="currentColor" d="M20.202 8.473a16.889 16.889 0 0 0-4.633-3.749a7.795 7.795 0 0 0-3.434-.932a.49.49 0 0 0-.135.019a.49.49 0 0 0-.135-.019a7.791 7.791 0 0 0-3.434.932a16.896 16.896 0 0 0-4.633 3.75a7.417 7.417 0 0 0-1.89 5.282c.137 1.59 1.078 3.578 2.551 4.13c1.142.428 5.582.558 7.438.594l.001-.016a.763.763 0 0 0 .167.02h.014a.805.805 0 0 0 .084-.005c1.89-.038 6.25-.17 7.378-.593c1.474-.552 2.414-2.54 2.552-4.13a7.416 7.416 0 0 0-1.89-5.283M16.94 19.206a32.712 32.712 0 0 1-4.407.237c-2.861 0-5.477-.238-5.503-.24a.51.51 0 0 0-.544.452a.5.5 0 0 0 .453.543c.026.002 2.685.245 5.594.245a32.856 32.856 0 0 0 4.559-.248a.5.5 0 1 0-.153-.989"/></svg>