<svg xmlns="http://www.w3.org/2000/svg" width="1em" height="1em" viewBox="0 0 24 24"><path fill="currentColor" d="M11.774 2a10 10 0 1 1-10 10a10 10 0 0 1 10-10m5.5 5.98l-1.112 1.732a4.883 4.883 0 0 1 .535 2.246a4.96 4.96 0 0 1-4.956 4.964h-.009a4.814 4.814 0 0 1-2.232-.535L7.754 17.51a6.826 6.826 0 0 0 9.652-9.34Zm-5.542-2.855a6.833 6.833 0 0 0-6.832 6.82v.013a6.77 6.77 0 0 0 1.332 4.052A8.046 8.046 0 0 1 7.4 14.4a10.12 10.12 0 0 1 1.187-1.06a8.173 8.173 0 0 1 4.833-1.575a7.924 7.924 0 0 1 1.458.132l.284.058a3.428 3.428 0 1 0-6.855-.151v.151a2.16 2.16 0 0 0 .015.312l.018.155a8.183 8.183 0 0 0-1.292 1.2a5.058 5.058 0 0 1-.283-1.649A4.962 4.962 0 0 1 11.714 7h.008a4.81 4.81 0 0 1 2.235.537l1.732-1.124a6.669 6.669 0 0 0-3.957-1.288m1.722 7.263a7.811 7.811 0 0 0-4.567 1.47a3.43 3.43 0 0 0 6.213-1.291a7.674 7.674 0 0 0-1.646-.179"/></svg>