<svg xmlns="http://www.w3.org/2000/svg" width="1em" height="1em" viewBox="0 0 24 24"><path fill="currentColor" d="M13.648 12.33a.163.163 0 0 0 0-.052c-.007 0-.05-.889-.041-1.87c.009-.981-.007-1.822-.007-1.824a.763.763 0 0 0-1.015-.04a12.527 12.527 0 0 0-1.754 1.807c-.1.123-.193.248-.286.377a2.587 2.587 0 0 0 .032.351q.435-.578.923-1.113c.333-.365.685-.713 1.052-1.043c.013 0 .056.838.046 1.808c-.01.97-.007 1.85 0 1.945a.751.751 0 0 0 .974.064a12.353 12.353 0 0 0 2.158-2.3a2.534 2.534 0 0 0-.049-.324a15.317 15.317 0 0 1-2.033 2.214m-9.82 5.693l.402-.403l.563.563l-.402.402zm1.394 1.394l.402-.403l.563.563l-.403.402zM16.387 3.023L6.9 12.51l-1.607 1.608l.349.348L2.506 17.6l3.7 3.7l3.135-3.135l.349.348L20.784 7.42c.733-.733.93-1.723.442-2.211L18.6 2.581c-.49-.488-1.48-.29-2.213.442m-8.5 15.951l-1.77 1.77L4.672 19.3l.884-.885L5.141 18l.389-.389l.415.416l.5-.5zM6.28 17.366l-.335.335l-.416-.416l-.71.715l.416.415l-.724.724l-1.448-1.452l1.77-1.769Zm9.4-7.258s.03.14.036.162c.006.022.014.161.014.161v.005a2.6 2.6 0 0 1-5.155.643a.887.887 0 0 1-.026-.169a1.044 1.044 0 0 1-.006-.181a2.6 2.6 0 0 1 5.138-.616z"/></svg>