<svg xmlns="http://www.w3.org/2000/svg" width="1em" height="1em" viewBox="0 0 24 24"><path fill="currentColor" d="m16.458 9.096l-.457-.312l.268.493Zm5.027-3.843L18.9 2.575c-.479-.5-1.472-.318-2.219.4l-9.668 9.3l-1.638 1.58l.342.354l-3.192 3.075l3.629 3.77l3.2-3.075l.342.355L21 7.456c.747-.719.964-1.705.485-2.203M3.081 17.38l1.8-1.734L6.3 17.121l-.341.329l-.408-.424l-.724.7l.407.423l-.737.71zm3 3.115L4.657 19.02l.9-.868l-.407-.423l.4-.381l.408.424l.509-.491l1.412 1.479zm4.236-5.756l-.02-.02a3.678 3.678 0 0 1 .089-5.189l.337.351a3.229 3.229 0 0 0-.057 4.521zm1.049-1.01l-.35.337l-.008-.008a2.68 2.68 0 0 1 .073-3.789l.008-.008l.337.35a2.244 2.244 0 0 0-.06 3.118m2.648-.481a1.478 1.478 0 1 1 .04-2.089a1.477 1.477 0 0 1-.043 2.089zm1.563-2.53l-.673-.47l.422.708l-.346.334l-1.4-.789l.407-.393l.826.616l-.574-.861l.284-.273l.849.6l-.576-.855l.383-.367l.757 1.409zM16.945 9.4l-.181-.122l-.314.3l.11.19l-.426.41l-.664-1.5l.445-.436l1.463.728zm.678-.649l-1.484-.708l.434-.418l.823.5l-.461-.871l.413-.392l.665 1.508zm.9-.87l-1.064-1.107l.734-.706l.269.281l-.349.337l.119.124l.317-.315l.276.287l-.317.313l.127.132l.355-.34l.273.282zm-5.313 4.445l-.255-1.225l-.898.865l.107.504l.471-.454l.252 1.284l.922-.888l-.119-.548zm-9.372 5.405l.41-.395l.552.574l-.41.394zm1.367 1.42l.41-.394l.552.573l-.41.395z"/></svg>