<svg xmlns="http://www.w3.org/2000/svg" width="1em" height="1em" viewBox="0 0 1536 1536"><path fill="currentColor" d="M1248 0q119 0 203.5 84.5T1536 288v960q0 119-84.5 203.5T1248 1536H288q-119 0-203.5-84.5T0 1248V288Q0 169 84.5 84.5T288 0zM499 367H128v787h382q117 0 197-57.5T787 926q0-158-143-200q107-52 107-164q0-57-19.5-96.5T675 405t-79-29.5t-97-8.5m-22 318H301V501h163q119 0 119 90q0 94-106 94m9 335H301V803h189q124 0 124 113q0 104-128 104m650 32q-68 0-104-38t-36-107h411q1-10 1-30q0-132-74.5-220.5T1130 568q-128 0-210 86t-82 216q0 135 79 217t213 82q205 0 267-191h-138q-11 34-47.5 54t-75.5 20m-10-366q113 0 124 122H996q4-56 39-89t91-33M964 420h319v77H964z"/></svg>