<svg xmlns="http://www.w3.org/2000/svg" width="0.88em" height="1em" viewBox="0 0 1536 1760"><path fill="currentColor" d="M0 0h1536v1392l-776 338L0 1392zm1436 1327V401H100v926l661 294zm0-1026V100H100v201zM181 599v115h-37V599zm0 148v115h-37V747zm0 148v115h-37V895zm0 148v115h-37v-115zm0 148v115h-37v-115zm26 143l15-34l105 47l-15 33zm136 60l15-34l105 46l-15 34zm135 60l15-34l105 46l-15 34zm136 59l15-33l104 46l-15 34zm183 13l105-46l15 33l-105 47zm135-60l105-46l15 34l-105 46zm136-60l105-46l15 34l-105 46zm135-59l105-47l15 34l-105 46zM259 147v36H145v-36zm162 0v36H306v-36zm162 0v36H468v-36zm161 0v36H630v-36zm162 0v36H792v-36zm162 0v36H953v-36zm162 0v36h-115v-36zm161 0v36h-114v-36zM181 487v79h-37V451h115v36zm240-36v36H306v-36zm162 0v36H468v-36zm161 0v36H630v-36zm162 0v36H792v-36zm162 0v36H953v-36zm162 0v36h-115v-36zm125 115v-79h-78v-36h115v115zm0 148V599h37v115zm0 148V747h37v115zm0 148V895h37v115zm0 148v-115h37v115zm0 148v-115h37v115zm-595-35q-129 0-221-91.5T447 958q0-129 92-221t221-92q130 0 221.5 92t91.5 221q0 130-91.5 221.5T760 1271M595 890q0 36 19.5 56.5t49.5 25t64 7t64 2t49.5 9T861 1020q0 49-112 49q-97 0-123-51h-3l-31 63q67 42 162 42q29 0 56.5-5t55.5-16t45.5-33t17.5-53q0-46-27.5-69.5t-67.5-27t-79.5-3t-67-5T660 886q0-21 20.5-33t40.5-15t41-3q34 0 70.5 11t51.5 34h3l30-58q-3-1-21-8.5t-22.5-9t-19.5-7t-22-7t-20-4.5t-24-4t-23-1q-29 0-56.5 5t-54 16.5t-43 34T595 890"/></svg>