<svg xmlns="http://www.w3.org/2000/svg" width="1em" height="1em" viewBox="0 0 24 24"><path fill="currentColor" d="M18 7h-1V6a2 2 0 0 0-2-2H8a2 2 0 0 0-2 2v1H5a1 1 0 0 0 0 2v8c0 2.206 1.794 4 4 4h5c2.206 0 4-1.794 4-4V9a1 1 0 0 0 0-2M8 6h7v1H8zm8 11a2 2 0 0 1-2 2H9a2 2 0 0 1-2-2V9h9zm-7.5-6.5c-.275 0-.5.225-.5.5v6c0 .275.225.5.5.5s.5-.225.5-.5v-6c0-.275-.225-.5-.5-.5m2 0c-.275 0-.5.225-.5.5v6c0 .275.225.5.5.5s.5-.225.5-.5v-6c0-.275-.225-.5-.5-.5m2 0c-.275 0-.5.225-.5.5v6c0 .275.225.5.5.5s.5-.225.5-.5v-6c0-.275-.225-.5-.5-.5m2 0c-.275 0-.5.225-.5.5v6c0 .275.225.5.5.5s.5-.225.5-.5v-6c0-.275-.225-.5-.5-.5"/></svg>