<svg xmlns="http://www.w3.org/2000/svg" width="1em" height="1em" viewBox="0 0 16 16"><path fill="currentColor" fill-rule="evenodd" d="M15.101 3.056L10.427.24h-.06c-.24-.16-.52-.24-.839-.24c-.32 0-.62.08-.899.24L.9 4.794c-.28.16-.5.38-.66.66c-.16.279-.239.558-.239.838v5.034c0 .32.08.62.24.899c.16.28.38.48.659.599l4.674 2.757c.28.16.58.24.899.24c.32 0 .62-.08.899-.24l7.73-4.495a1.783 1.783 0 0 0 .899-1.558V4.554c0-.32-.08-.599-.24-.839c-.16-.28-.38-.499-.659-.659M2.217 5.753l7.191-4.195c.08-.04.16-.04.24 0l4.075 2.397L6.592 8.09c-.08.08-.16.08-.24 0zm3.476 8.21l-4.075-2.397c-.08-.04-.12-.12-.12-.24V7.01l4.195 2.457zM7.25 9.468l.12-.06l7.13-4.135v4.315c0 .08-.06.14-.179.18L7.25 13.963z" clip-rule="evenodd"/></svg>