<svg xmlns="http://www.w3.org/2000/svg" width="1em" height="1em" viewBox="0 0 16 16"><path fill="currentColor" d="M7.198 3.06a2.883 2.883 0 0 0-2.886 2.88v6.407A2.155 2.155 0 0 1 2.157 14.5A2.155 2.155 0 0 1 0 12.347a.78.78 0 0 1 1.563 0a.593.593 0 0 0 1.187 0V5.941A4.444 4.444 0 0 1 7.198 1.5a4.449 4.449 0 0 1 4.274 3.206A4.673 4.673 0 0 1 16 9.373a.785.785 0 0 1-.008.114a.784.784 0 0 1 .008.115v4.118c0 .43-.35.78-.781.78H7.198a.78.78 0 0 1-.781-.78V9.602c0-.431.35-.78.78-.78a2.883 2.883 0 0 0 2.886-2.881A2.883 2.883 0 0 0 7.198 3.06m7.248 6.427a.784.784 0 0 1-.008-.114a3.112 3.112 0 0 0-2.805-3.095a4.446 4.446 0 0 1-3.654 4.035v2.627h2.448v-1.737a.78.78 0 0 1 1.563 0v1.737h2.448V9.602c0-.04.002-.077.008-.115"/></svg>