<svg xmlns="http://www.w3.org/2000/svg" width="1em" height="1em" viewBox="0 0 16 16"><path fill="currentColor" d="M0 1.75C0 .784.784 0 1.75 0h12.5C15.216 0 16 .784 16 1.75v12.5A1.75 1.75 0 0 1 14.25 16H1.75A1.75 1.75 0 0 1 0 14.25zm1.75-.25a.25.25 0 0 0-.25.25v12.5c0 .138.112.25.25.25h12.5a.25.25 0 0 0 .25-.25V1.75a.25.25 0 0 0-.25-.25zM4.25 4A.75.75 0 0 1 5 3.25h3.6a2.75 2.75 0 0 1 .595 5.435l2.02 2.885a.75.75 0 1 1-1.23.86L7.41 8.75H5.75V12a.75.75 0 0 1-1.5 0zm1.5 3.25H8.6a1.25 1.25 0 1 0 0-2.5H5.75z"/></svg>