<svg xmlns="http://www.w3.org/2000/svg" width="1em" height="1em" viewBox="0 0 24 24"><g fill="currentColor"><path d="M12.98 21.953a10.12 10.12 0 0 1-1.96 0l.193-1.991a8.1 8.1 0 0 0 1.574 0zm-3.884-.381l.58-1.914a7.947 7.947 0 0 1-1.446-.6l-.945 1.763c.573.307 1.179.56 1.811.75m-3.44-1.841l1.27-1.545a8.062 8.062 0 0 1-1.111-1.11L4.27 18.343c.415.506.88.97 1.386 1.386m-2.477-3.014l1.763-.944a7.938 7.938 0 0 1-.6-1.447l-1.914.58a9.93 9.93 0 0 0 .751 1.81M2.047 12.98l1.991-.193a8.12 8.12 0 0 1 0-1.574l-1.99-.193a10.123 10.123 0 0 0 0 1.96m.38-3.884l1.914.58c.153-.505.355-.989.6-1.446l-1.763-.945a9.938 9.938 0 0 0-.75 1.811m1.841-3.44l1.545 1.27a8.06 8.06 0 0 1 1.11-1.111L5.657 4.27c-.506.415-.97.88-1.386 1.386m3.014-2.477l.945 1.763a7.938 7.938 0 0 1 1.446-.6l-.58-1.914a9.938 9.938 0 0 0-1.81.751m3.734-1.132a10.123 10.123 0 0 1 1.96 0l-.193 1.991a8.12 8.12 0 0 0-1.574 0zm3.884.381l-.58 1.914c.505.153.989.355 1.447.6l.944-1.763a9.936 9.936 0 0 0-1.811-.75m3.44 1.841l-1.27 1.545c.406.333.778.705 1.111 1.11l1.545-1.269a10.06 10.06 0 0 0-1.386-1.386m2.477 3.015l-1.763.945c.245.457.447.941.6 1.446l1.914-.58a9.937 9.937 0 0 0-.751-1.81m1.132 3.734l-1.991.193a8.1 8.1 0 0 1 0 1.574l1.99.194a10.123 10.123 0 0 0 0-1.961m-.38 3.884l-1.914-.58a7.947 7.947 0 0 1-.6 1.447l1.763.944c.307-.573.56-1.179.75-1.811m-1.841 3.44l-1.545-1.27a8.063 8.063 0 0 1-1.11 1.111l1.269 1.545c.506-.415.97-.88 1.386-1.386m-3.015 2.477l-.944-1.763a7.947 7.947 0 0 1-1.447.6l.58 1.914a9.935 9.935 0 0 0 1.81-.751"/><path fill-rule="evenodd" d="M9 12a3 3 0 1 1 6 0a3 3 0 0 1-6 0m3 1a1 1 0 1 1 0-2a1 1 0 0 1 0 2" clip-rule="evenodd"/><path fill-rule="evenodd" d="M12 6a6 6 0 1 0 0 12a6 6 0 0 0 0-12m-4 6a4 4 0 1 0 8 0a4 4 0 0 0-8 0" clip-rule="evenodd"/></g></svg>