<svg xmlns="http://www.w3.org/2000/svg" width="1em" height="1em" viewBox="0 0 128 128"><g fill="none"><path fill="#083042" d="M43.657 82.153a3.578 3.578 0 0 1-.42-1.153c.08.404.224.793.42 1.153m.518.639c.198.196.42.367.668.489l16.88 9.445l-16.88-9.445a2.591 2.591 0 0 1-.667-.49z"/><path fill="#083042" d="M64.323 104.673h-.126a7.42 7.42 0 0 1-3.588-.91L35.415 89.685a4.648 4.648 0 0 1-2.401-4.047v-28.65c0-1.226.222-2.404.74-3.433L14.056 42.59c-.815 1.716-1.236 3.654-1.211 5.69v47.316a7.756 7.756 0 0 0 3.984 6.696l41.554 23.255c1.833 1.03 3.887 1.52 5.915 1.52v-.023c.05-2.968.026-14.866.026-22.37"/><path fill="#3ddb85" d="m84.096 58.75l-.15-.22c-.123-.17-.245-.319-.369-.488c.124.146.246.318.37.489a.87.87 0 0 1 .149.22M63.358 47.274c.124 0 .223-.025.348-.025c-.125.025-.25.025-.35.025z"/><path fill="#3ddc84" d="M33.73 53.527a6.45 6.45 0 0 1 2.526-2.745l23.707-13.86a7.21 7.21 0 0 1 7.179-.074l23.957 13.418a8.04 8.04 0 0 1 2.699 2.453l19.378-11.454a13.332 13.332 0 0 0-4.43-4.023l-39.574-22.15a11.908 11.908 0 0 0-11.83.122L18.213 38.075a10.463 10.463 0 0 0-4.159 4.514l19.677 10.938z"/><path fill="#3ddb85" d="M62.369 47.472c.051-.025.102-.025.152-.05c-.05.025-.1.025-.152.05M43.703 59.047c.05-.098.1-.196.15-.268c-.05.098-.1.17-.15.27l-.074.22z"/><path fill="#4285f4" d="m113.153 41.265l-19.38 11.454c.742 1.08 1.188 2.353 1.212 3.655V83.65a7.045 7.045 0 0 1-3.513 6.18L67.76 103.692a7.214 7.214 0 0 1-3.44.98c.026 7.482.026 19.38-.024 22.346v.026a12.098 12.098 0 0 0 5.914-1.62l39.13-22.886c3.639-2.133 5.867-6.01 5.816-10.204V47.32c-.024-2.182-.767-4.266-2.004-6.057z"/><path fill="#4285f4" d="M84.545 80.731c-.025.05-.025.1-.05.15a.346.346 0 0 0 .05-.15m-.249-21.659c-.05-.123-.124-.221-.198-.343c.074.122.148.245.198.343m-17.769 33.63l15.89-9.295c.099-.049.173-.124.273-.172c-.1.048-.174.123-.274.172zm17.82-11.406c-.05.124-.124.246-.175.37c.05-.147.1-.27.176-.37z"/><path fill="#d6f0ff" d="M43.632 59.267a4.924 4.924 0 0 0-.37 1.498c-.026.195-.026.391-.026.614v19.205c0 .146 0 .27.026.418c.05.416.198.809.42 1.152c.149.246.32.44.495.637a2.643 2.643 0 0 0 .667.492l16.88 9.443a4.908 4.908 0 0 0 2.4.612h.174a4.608 4.608 0 0 0 2.228-.66l15.89-9.298c.098-.048.172-.123.271-.172a3.667 3.667 0 0 0 .496-.393c.232-.21.448-.44.643-.686c.123-.172.247-.343.347-.515a2.357 2.357 0 0 0 .172-.368c.05-.121.125-.27.175-.417c.023-.05.023-.099.048-.147a4.83 4.83 0 0 0 .223-1.473V60.936c0-.342-.05-.66-.123-.98c-.049-.222-.125-.419-.199-.615l-.148-.293c-.049-.123-.125-.22-.199-.345l-.148-.22c-.124-.172-.247-.32-.37-.49a5.012 5.012 0 0 0-1.436-1.153l-16.062-9.001a5.493 5.493 0 0 0-.867-.393a5.24 5.24 0 0 0-1.238-.22h-.322c-.123 0-.222 0-.345.022a5.058 5.058 0 0 0-.842.148c-.05.024-.099.024-.149.05c-.37.1-.718.27-1.065.465L45.39 57.21a4.066 4.066 0 0 0-1.19 1.055c-.12.172-.245.343-.344.514c-.05.1-.099.172-.148.27l-.075.22z"/><path fill="#083042" d="M64.296 93.337h-.174a4.927 4.927 0 0 1-2.4-.61l-16.88-9.445a3.34 3.34 0 0 1-.669-.491a2.96 2.96 0 0 1-.495-.639A3.574 3.574 0 0 1 43.259 81c-.026-.146-.026-.27-.026-.416V61.376c0-.196 0-.415.025-.613a5.11 5.11 0 0 1 .371-1.497l-4.555-2.77l-5.346-2.968c-.495 1.03-.742 2.206-.742 3.434v28.65a4.758 4.758 0 0 0 2.401 4.048l25.172 14.104a7.172 7.172 0 0 0 3.588.907h.126c0-3.655-.026-6.255-.026-6.255z"/><path fill="#041619" d="M64.296 93.337h-.174a4.927 4.927 0 0 1-2.4-.61l-16.88-9.445a3.34 3.34 0 0 1-.669-.491a2.96 2.96 0 0 1-.495-.639A3.574 3.574 0 0 1 43.259 81c-.026-.146-.026-.27-.026-.416V61.376c0-.196 0-.415.025-.613a5.11 5.11 0 0 1 .371-1.497l-4.555-2.77l-5.346-2.968c-.495 1.03-.742 2.206-.742 3.434v28.65a4.758 4.758 0 0 0 2.401 4.048l25.172 14.104a7.172 7.172 0 0 0 3.588.907h.126c0-3.655-.026-6.255-.026-6.255z"/><path fill="#3ddb85" d="M91.074 50.266L67.117 36.847a7.21 7.21 0 0 0-7.179.074L36.23 50.781a6.302 6.302 0 0 0-2.527 2.748l5.373 2.968l4.553 2.77l.074-.22c.05-.099.1-.196.148-.27c.099-.17.223-.342.347-.514c.321-.419.718-.76 1.19-1.055l15.886-9.298a5.804 5.804 0 0 1 1.065-.464c.05-.025.1-.025.148-.05c.275-.076.557-.123.841-.148c.123 0 .222-.024.347-.024h.322c.42.027.834.1 1.237.22c.304.096.595.227.866.394l16.062 9.002a5.355 5.355 0 0 1 1.437 1.153c.123.147.248.32.37.49l.15.22l4.108-2.722l5.568-3.31c-.718-.959-1.633-1.818-2.722-2.406z"/><path fill="#37bf6e" d="M91.074 50.266L67.117 36.847a7.21 7.21 0 0 0-7.179.074L36.23 50.781a6.302 6.302 0 0 0-2.527 2.748l5.373 2.968l4.553 2.77l.074-.22c.05-.099.1-.196.148-.27c.099-.17.223-.342.347-.514c.321-.419.718-.76 1.19-1.055l15.886-9.298a5.804 5.804 0 0 1 1.065-.464c.05-.025.1-.025.148-.05c.275-.076.557-.123.841-.148c.123 0 .222-.024.347-.024h.322c.42.027.834.1 1.237.22c.304.096.595.227.866.394l16.062 9.002a5.355 5.355 0 0 1 1.437 1.153c.123.147.248.32.37.49l.15.22l4.108-2.722l5.568-3.31c-.718-.959-1.633-1.818-2.722-2.406z"/><path fill="#4285f4" d="M84.096 58.753c.074.121.124.22.198.343l.149.295a4.275 4.275 0 0 1 .321 1.593V79.26a4.84 4.84 0 0 1-.223 1.471c-.024.049-.024.1-.05.147a3.06 3.06 0 0 1-.171.418c-.052.121-.126.245-.176.367c-.098.173-.222.344-.346.515a5.582 5.582 0 0 1-.643.687c-.148.147-.321.27-.495.393c-.1.048-.173.122-.272.172l-15.89 9.295a5.221 5.221 0 0 1-2.227.664v5.077s0 2.6.025 6.256a6.96 6.96 0 0 0 3.44-.982l23.71-13.86a7.101 7.101 0 0 0 3.515-6.18V56.423c-.025-1.325-.47-2.577-1.212-3.657l-5.57 3.313z"/><path fill="#3870b2" d="M84.096 58.753c.074.121.124.22.198.343l.149.295a4.275 4.275 0 0 1 .321 1.593V79.26a4.84 4.84 0 0 1-.223 1.471c-.024.049-.024.1-.05.147a3.06 3.06 0 0 1-.171.418c-.052.121-.126.245-.176.367c-.098.173-.222.344-.346.515a5.582 5.582 0 0 1-.643.687c-.148.147-.321.27-.495.393c-.1.048-.173.122-.272.172l-15.89 9.295a5.221 5.221 0 0 1-2.227.664v5.077s0 2.6.025 6.256a6.96 6.96 0 0 0 3.44-.982l23.71-13.86a7.101 7.101 0 0 0 3.515-6.18V56.423c-.025-1.325-.47-2.577-1.212-3.657l-5.57 3.313z"/><path fill="#d6f0ff" d="M62.368 47.47c-.373.099-.72.27-1.064.466l-15.89 9.297l15.888-9.295a4.058 4.058 0 0 1 1.063-.466z"/><path fill="#000" d="M62.368 47.47c-.373.099-.72.27-1.064.466l-15.89 9.297l15.888-9.295a4.058 4.058 0 0 1 1.063-.466z" opacity=".1"/><path fill="#d6f0ff" d="M83.577 58.042a5.02 5.02 0 0 0-1.435-1.155L66.08 47.885l16.062 9.002a5.007 5.007 0 0 1 1.436 1.155"/><path fill="#000" d="M83.577 58.042a5.02 5.02 0 0 0-1.435-1.155L66.08 47.885l16.062 9.002a5.007 5.007 0 0 1 1.436 1.155" opacity=".1"/><path fill="#d6f0ff" d="M84.443 59.366a5.99 5.99 0 0 1 .196.613c-.049-.196-.125-.392-.198-.613z"/><path fill="#000" d="M84.443 59.366a5.99 5.99 0 0 1 .196.613c-.049-.196-.125-.392-.198-.613z" opacity=".1"/><path fill="#d6f0ff" d="M84.539 80.73a4.774 4.774 0 0 0 .223-1.471V60.984V79.26a4.774 4.774 0 0 1-.223 1.471"/><path fill="#000" d="M84.539 80.73a4.774 4.774 0 0 0 .223-1.471V60.984V79.26a4.774 4.774 0 0 1-.223 1.471" opacity=".1"/><g fill="#4285f4" stroke-linecap="square" stroke-linejoin="bevel" color="#000"><path d="M15.008 10.275c-.925 0-1.44-.622-1.44-1.745v-.621h-1.256v.846c0 1.56 1.03 2.55 2.683 2.55c1.678 0 2.722-1.044 2.722-2.709v-7.23h-1.229v6.78c0 1.217-.278 2.129-1.48 2.129m10.467-2.366c0-2.511-.938-4.031-3.08-4.031c-1.929 0-3.171 1.48-3.171 3.753s1.202 3.674 3.145 3.674c1.586 0 2.683-.898 2.96-2.405h-1.11c-.304.912-.925 1.388-1.81 1.388c-1.282 0-2.01-.965-2.036-2.38zM20.4 7.01c.092-1.282.872-2.114 1.982-2.114c1.137 0 1.917.925 1.917 2.114zm8.908-2.934H28.17V2.173h-1.097v1.903h-.938v.899h.938v5.233c0 .7.476 1.097 1.335 1.097c.264 0 .528-.026.899-.092v-.925a2.037 2.037 0 0 1-.53.053c-.475 0-.607-.133-.607-.622V4.975h1.137zm1.057 9.807h1.11v-3.608c.581.713 1.23 1.03 2.128 1.03c1.784 0 2.96-1.44 2.96-3.647c0-2.326-1.136-3.78-2.973-3.78c-.939 0-1.692.423-2.208 1.242V4.076h-1.017zm3.04-8.974c1.215 0 2.008 1.07 2.008 2.722c0 1.573-.806 2.644-2.008 2.644c-1.163 0-1.93-1.058-1.93-2.683s.767-2.683 1.93-2.683m4.255 1.216h1.11c.093-.846.595-1.23 1.626-1.23c.991 0 1.546.37 1.546 1.031v.291c0 .463-.277.661-1.15.767c-2.022.264-3.436.423-3.436 2.273c0 1.255.872 2.048 2.273 2.048c.873 0 1.573-.304 2.353-1.017c.08.7.423 1.017 1.136 1.017c.225 0 .397-.026.754-.119v-.832c-.12.026-.172.026-.238.026c-.383 0-.595-.198-.595-.542v-4.07c0-1.23-.899-1.89-2.604-1.89c-1.242 0-2.709.37-2.775 2.247m2.207 4.216c-.859 0-1.361-.41-1.361-1.11c0-1.52 2.313-1.137 3.436-1.653v1.243c0 .66-.766 1.52-2.075 1.52m10.48-3.939c-.132-1.652-1.15-2.524-2.735-2.524c-1.864 0-3.08 1.48-3.08 3.78c0 2.233 1.19 3.647 3.067 3.647c1.652 0 2.696-.99 2.828-2.682h-1.11c-.185 1.11-.754 1.665-1.692 1.665c-1.216 0-1.943-.991-1.943-2.63c0-1.732.714-2.762 1.917-2.762c.925 0 1.506.541 1.638 1.506zm2.366-5.035h-1.097V11h1.097V8.305l1.07-1.057l2.34 3.753h1.361l-2.828-4.533l2.405-2.392h-1.414L52.713 7.01zm8.736 4.93c0 1.969.872 5.008 4.348 5.008c2.353 0 3.674-1.268 3.965-3.82h-1.269c-.29 1.825-1.07 2.737-2.683 2.737c-1.916 0-3.132-1.533-3.132-3.939c0-2.471 1.163-3.991 3.027-3.991c1.56 0 2.326.714 2.603 2.062h1.256c-.384-2.115-1.6-3.146-3.714-3.146c-3.515 0-4.4 3.08-4.4 5.088m12.357-2.42c-1.943 0-3.119 1.389-3.119 3.715s1.163 3.713 3.132 3.713c1.943 0 3.133-1.387 3.133-3.66c0-2.393-1.15-3.767-3.146-3.767m.013 1.019c1.243 0 1.983 1.017 1.983 2.735c0 1.626-.767 2.657-1.983 2.657c-1.229 0-1.982-1.018-1.982-2.696c0-1.666.753-2.696 1.982-2.696m4.322-.82v6.925h1.11V6.653c0-1.004.727-1.81 1.626-1.81c.82 0 1.282.502 1.282 1.387v4.771h1.11V6.653c0-1.004.727-1.81 1.625-1.81c.807 0 1.282.515 1.282 1.387v4.771h1.11V5.807c0-1.242-.713-1.93-2.008-1.93c-.925 0-1.48.278-2.128 1.058c-.41-.74-.965-1.057-1.864-1.057c-.925 0-1.533.344-2.127 1.176v-.978zm10.731 9.807h1.11v-3.608c.582.713 1.23 1.03 2.128 1.03c1.785 0 2.96-1.44 2.96-3.647c0-2.326-1.136-3.78-2.973-3.78c-.938 0-1.692.423-2.207 1.242V4.076h-1.018zm3.04-8.974c1.216 0 2.009 1.07 2.009 2.722c0 1.573-.806 2.644-2.009 2.644c-1.163 0-1.93-1.058-1.93-2.683s.767-2.683 1.93-2.683m7.07-1.031c-1.942 0-3.118 1.388-3.118 3.714s1.163 3.713 3.132 3.713c1.943 0 3.132-1.387 3.132-3.66c0-2.393-1.15-3.767-3.145-3.767m.014 1.018c1.242 0 1.982 1.017 1.982 2.735c0 1.626-.766 2.657-1.982 2.657c-1.23 0-1.982-1.018-1.982-2.696c0-1.666.753-2.696 1.982-2.696m5.141 4.044h-1.163c.053 1.599.952 2.365 2.762 2.365c1.745 0 2.855-.859 2.855-2.193c0-1.031-.582-1.6-1.956-1.93l-1.057-.251c-.9-.212-1.282-.502-1.282-.991c0-.635.568-1.044 1.467-1.044c.885 0 1.36.383 1.387 1.11h1.163c-.013-1.362-.912-2.128-2.51-2.128c-1.613 0-2.657.833-2.657 2.115c0 1.083.555 1.599 2.194 1.995l1.03.251c.767.185 1.071.463 1.071.965c0 .648-.648 1.084-1.612 1.084c-1.348 0-1.6-.674-1.692-1.348m11.55-1.031c0-2.511-.937-4.031-3.078-4.031c-1.93 0-3.172 1.48-3.172 3.753s1.202 3.674 3.145 3.674c1.586 0 2.683-.898 2.96-2.405h-1.11c-.304.912-.925 1.388-1.81 1.388c-1.282 0-2.01-.965-2.036-2.38zm-5.074-.899c.092-1.282.872-2.114 1.982-2.114c1.137 0 1.917.925 1.917 2.114z"/><path d="M65.85.934c-1.84 0-3.047.832-3.75 1.916c-.702 1.085-.926 2.401-.926 3.446c0 1.025.221 2.322.916 3.393c.694 1.069 1.89 1.893 3.708 1.893c1.226 0 2.225-.338 2.945-1.031c.72-.693 1.142-1.716 1.292-3.033l-.273-.309h-1.269l-.27.234c-.142.881-.397 1.509-.775 1.905c-.378.398-.883.598-1.637.598c-.885 0-1.574-.341-2.07-.963c-.493-.623-.786-1.543-.786-2.7c0-1.192.28-2.13.756-2.755c.476-.626 1.138-.96 1.994-.96c.738 0 1.246.166 1.608.463c.36.297.595.745.726 1.379l.27.219h1.255l.272-.325c-.2-1.1-.627-1.953-1.302-2.525c-.675-.573-1.583-.845-2.684-.845m-49.362.156l-.275.276v6.78c0 .587-.076 1.078-.254 1.383c-.176.305-.42.47-.951.47c-.401 0-.664-.122-.855-.351c-.19-.23-.312-.6-.312-1.12V7.91l-.275-.275h-1.254l-.276.275v.845c0 .84.284 1.56.808 2.06c.523.497 1.27.767 2.15.767c.897 0 1.657-.284 2.186-.812c.528-.526.813-1.284.813-2.174v-7.23l-.275-.276zm35.128 0l-.275.276V11l.275.276h1.097L52.99 11V8.421l.744-.736l2.158 3.462l.23.129h1.363l.235-.419l-2.713-4.348l2.25-2.237l-.196-.471h-1.413l-.196.08l-2.462 2.465v-4.98l-.276-.276zm14.234.395c1.013 0 1.77.242 2.327.713c.475.402.75 1.089.953 1.88h-.672c-.16-.591-.376-1.127-.795-1.473c-.481-.397-1.136-.587-1.957-.587c-1.007 0-1.862.425-2.434 1.176c-.57.752-.868 1.81-.868 3.09c0 1.248.313 2.296.905 3.041s1.47 1.172 2.502 1.172c.858 0 1.549-.256 2.038-.771c.436-.46.659-1.16.818-1.965h.695c-.173 1.025-.466 1.878-1 2.392c-.602.58-1.437.878-2.564.878c-1.657 0-2.637-.7-3.249-1.64c-.61-.944-.826-2.15-.826-3.096c0-.963.22-2.19.84-3.146c.62-.957 1.61-1.664 3.287-1.664m-49.087.156h.68v6.955c0 .774-.24 1.373-.652 1.784c-.413.412-1.013.65-1.796.65c-.771 0-1.366-.228-1.771-.615c-.406-.386-.637-.941-.637-1.66v-.57h.704v.344c0 .603.137 1.108.437 1.47c.298.36.756.55 1.28.55c.67 0 1.167-.29 1.43-.745c.264-.455.324-1.03.324-1.658zm35.129 0h.546v5.37l.471.193l2.853-2.852h.632l-1.932 1.921l-.038.342l2.564 4.111h-.713l-2.258-3.622l-.426-.052l-1.072 1.058l-.081.196v2.42h-.546zm-24.817.257l-.275.275v1.628h-.665l-.276.275v.899l.276.275h.665v4.958c0 .413.153.785.445 1.025c.292.24.691.349 1.164.349c.282 0 .568-.03.947-.097l.227-.271v-.925l-.348-.267a1.817 1.817 0 0 1-.456.043c-.213 0-.278-.036-.286-.045c-.01-.01-.046-.081-.046-.302V5.25h.86l.276-.275v-.899l-.275-.275h-.86V2.173l-.276-.275zm.275.55h.547v1.628l.275.276h.86V4.7h-.86l-.275.275v4.743c0 .27.028.51.203.689c.177.178.415.209.679.209c.094 0 .168-.02.253-.027v.377a4.637 4.637 0 0 1-.623.065c-.388 0-.653-.091-.814-.225c-.16-.132-.245-.309-.245-.598V4.975l-.275-.275h-.665v-.348h.665l.275-.276zm-4.953 1.155c-1.036 0-1.919.407-2.522 1.12c-.603.716-.927 1.722-.927 2.908s.313 2.172.91 2.868c.596.696 1.473 1.083 2.511 1.083c1.69 0 2.935-1.017 3.233-2.632l-.271-.324h-1.112l-.262.187c-.277.833-.762 1.2-1.55 1.2c-.57 0-.98-.202-1.275-.559c-.24-.292-.338-.768-.396-1.269h4.738l.275-.275c0-1.29-.238-2.357-.79-3.12c-.552-.763-1.428-1.187-2.563-1.187zm11.194 0c-.773 0-1.405.356-1.932.875v-.402l-.275-.275h-1.018l-.275.275v9.807l.275.275h1.11l.275-.275v-3.035c.527.443 1.115.734 1.852.734c.967 0 1.795-.403 2.362-1.1c.566-.696.874-1.672.874-2.824c0-1.208-.293-2.215-.856-2.932c-.564-.716-1.401-1.123-2.392-1.123m6.844 0c-.65 0-1.373.09-1.973.46c-.6.37-1.042 1.043-1.077 2.053l.275.283h1.11l.273-.245c.041-.374.157-.592.355-.742c.198-.15.518-.241.998-.241c.462 0 .796.091.991.221c.197.132.28.281.28.534v.29c0 .176-.017.217-.127.29c-.109.075-.361.155-.78.206h-.003c-1.01.132-1.887.228-2.564.567c-.676.34-1.112.982-1.112 1.977c0 .691.249 1.29.701 1.7c.454.409 1.094.626 1.846.626c.824 0 1.534-.323 2.247-.893c.068.203.101.437.253.573c.25.226.592.32.99.32c.246 0 .457-.035.823-.13l.207-.267v-.832l-.336-.269c-.102.022-.112.022-.178.022c-.144 0-.217-.037-.254-.072c-.038-.034-.066-.08-.066-.195V5.767c0-.682-.27-1.26-.775-1.628c-.507-.369-1.216-.536-2.104-.536m7.176 0c-1.005 0-1.864.411-2.45 1.13c-.587.718-.903 1.726-.903 2.925c0 1.165.309 2.145.892 2.839c.584.694 1.44 1.085 2.448 1.085c.88 0 1.634-.271 2.175-.783c.54-.513.859-1.258.93-2.156l-.276-.297h-1.11l-.271.23c-.086.518-.259.876-.487 1.1c-.228.223-.518.337-.933.337c-.533 0-.92-.201-1.207-.589c-.286-.388-.462-.988-.462-1.766c0-.828.174-1.465.458-1.874c.284-.41.66-.613 1.183-.613c.41 0 .71.113.931.32c.223.203.375.514.435.95l.273.235h1.11l.276-.297c-.07-.877-.384-1.584-.913-2.062c-.529-.478-1.256-.714-2.1-.714m26.195 0c-1.036 0-1.91.382-2.5 1.082c-.59.7-.894 1.696-.894 2.906c0 1.209.303 2.206.892 2.907c.591.7 1.466 1.084 2.515 1.084c1.038 0 1.911-.383 2.504-1.076c.594-.694.903-1.676.903-2.861c0-1.24-.298-2.25-.888-2.958c-.59-.707-1.47-1.084-2.532-1.084m7.48 0c-.755 0-1.331.322-1.852.821v-.348l-.275-.275H78.14l-.275.275V11l.275.276h1.11l.275-.276V6.653c0-.87.617-1.536 1.35-1.536c.354 0 .588.1.747.273c.16.174.26.445.26.84V11l.276.276h1.11l.275-.276V6.653c0-.87.617-1.536 1.351-1.536c.344 0 .578.103.74.28c.162.176.267.447.267.832V11l.275.276h1.11l.276-.276V5.807c0-.674-.202-1.242-.606-1.63c-.402-.387-.982-.574-1.68-.574c-.873 0-1.503.329-2.11.963c-.443-.605-1.044-.963-1.882-.963m10.811 0c-.773 0-1.404.356-1.932.875v-.402l-.275-.275H88.87l-.275.275v9.807l.275.275h1.11l.276-.275v-3.035c.526.443 1.114.734 1.851.734c.967 0 1.799-.403 2.365-1.1c.566-.696.873-1.672.873-2.824c0-1.208-.295-2.215-.859-2.932c-.562-.716-1.4-1.123-2.39-1.123m6.886 0c-1.038 0-1.908.382-2.498 1.082c-.59.7-.897 1.696-.897 2.906c0 1.209.302 2.206.892 2.907c.59.7 1.465 1.084 2.515 1.084c1.037 0 1.91-.383 2.504-1.076c.594-.694.903-1.676.903-2.861c0-1.24-.297-2.25-.888-2.958c-.59-.707-1.47-1.084-2.531-1.084m6.818 0c-.853 0-1.58.22-2.103.637c-.524.417-.826 1.037-.826 1.753c0 .589.167 1.09.569 1.459c.403.367.994.601 1.834.804l1.03.252h.002c.36.087.583.193.701.298c.117.106.157.203.157.398c0 .232-.1.405-.323.555c-.221.15-.573.253-1.013.253c-.628 0-.938-.148-1.118-.337c-.18-.187-.258-.456-.302-.772l-.273-.239h-1.16l-.275.285c.027.849.29 1.533.817 1.982c.525.451 1.275.65 2.22.65c.918 0 1.693-.225 2.25-.653c.557-.43.88-1.072.88-1.816c0-.568-.174-1.059-.545-1.425c-.371-.364-.91-.602-1.623-.774l-1.057-.249l-.002-.002c-.43-.101-.719-.22-.873-.34c-.155-.12-.196-.21-.196-.383a.606.606 0 0 1 .282-.536c.192-.137.502-.231.91-.231c.403 0 .676.088.843.22c.166.135.258.32.269.625l.275.264h1.163l.276-.277c-.008-.742-.268-1.366-.76-1.785c-.49-.415-1.184-.616-2.027-.616zm6.809 0c-1.036 0-1.919.407-2.522 1.12c-.602.716-.927 1.722-.927 2.908s.314 2.172.91 2.868c.596.696 1.473 1.083 2.511 1.083c1.69 0 2.933-1.017 3.23-2.632l-.268-.324h-1.11l-.263.187c-.277.833-.762 1.2-1.55 1.2c-.57 0-.98-.202-1.275-.559c-.24-.292-.338-.768-.396-1.269h4.738l.275-.275c0-1.29-.237-2.357-.79-3.12c-.552-.763-1.428-1.187-2.563-1.187m-90.213.55c1.004 0 1.666.336 2.118.96c.407.563.577 1.469.617 2.522h-4.757l-.276.278c.013.754.213 1.412.608 1.891c.397.48.991.76 1.702.76c.904 0 1.576-.54 1.943-1.388h.528c-.356 1.144-1.18 1.855-2.51 1.855c-.907 0-1.602-.316-2.093-.889c-.49-.572-.778-1.421-.778-2.51c0-1.087.297-1.959.797-2.554c.501-.593 1.206-.925 2.1-.925m11.194 0c.845 0 1.492.32 1.957.913c.465.592.74 1.474.74 2.592c0 1.055-.281 1.902-.75 2.478c-.467.576-1.117.895-1.935.895c-.834 0-1.37-.263-1.914-.93l-.488.172v3.334h-.56V4.352h.467v.767l.507.147c.473-.754 1.12-1.113 1.976-1.113m6.844 0c.817 0 1.41.162 1.78.43c.368.27.55.636.55 1.184v4.071c0 .23.077.452.24.603c.154.143.369.196.592.202v.31c-.171.037-.338.077-.48.077c-.316 0-.5-.067-.62-.176c-.122-.108-.207-.287-.243-.598l-.457-.172c-.75.685-1.36.947-2.169.947c-.648 0-1.142-.184-1.476-.484c-.332-.301-.52-.727-.52-1.291c0-.855.27-1.215.807-1.484c.535-.268 1.376-.382 2.387-.514c.453-.055.775-.128 1.023-.295a.893.893 0 0 0 .37-.747v-.29c0-.407-.196-.772-.526-.99c-.33-.221-.767-.316-1.297-.316c-.55 0-.997.1-1.332.353c-.26.198-.357.536-.442.875h-.54c.107-.596.29-1.082.668-1.316c.462-.284 1.09-.379 1.685-.379m7.176 0c.742 0 1.32.2 1.729.57c.338.307.498.828.606 1.403h-.55c-.1-.402-.224-.791-.495-1.041c-.333-.307-.787-.465-1.303-.465c-.68 0-1.262.312-1.635.85c-.374.539-.557 1.285-.557 2.188c0 .86.19 1.576.57 2.092c.381.518.967.814 1.65.814c.523 0 .984-.165 1.32-.497c.283-.277.424-.707.536-1.17h.546c-.107.61-.276 1.163-.634 1.5c-.428.406-1.024.634-1.795.634c-.87 0-1.547-.317-2.027-.889c-.481-.572-.764-1.416-.764-2.484c0-1.102.292-1.983.778-2.58c.488-.597 1.166-.925 2.025-.925m26.195 0c.935 0 1.628.309 2.11.887c.484.578.76 1.454.76 2.605c0 1.089-.283 1.935-.77 2.504c-.488.568-1.181.881-2.087.881c-.92 0-1.609-.312-2.092-.885c-.485-.575-.765-1.437-.765-2.554c0-1.116.282-1.976.767-2.551c.483-.575 1.172-.887 2.077-.887m7.48 0c.833 0 1.25.238 1.624.914l.451.044c.62-.745 1.047-.958 1.917-.958c.599 0 1.022.156 1.3.422c.277.267.434.664.434 1.234v4.916h-.56V6.229c0-.485-.136-.907-.412-1.207c-.277-.3-.683-.456-1.146-.456c-1.062 0-1.9.95-1.9 2.087v4.072h-.56V6.229c0-.49-.13-.912-.406-1.211c-.276-.299-.685-.452-1.151-.452c-1.063 0-1.901.95-1.901 2.087v4.072h-.56V4.352h.467v.703l.5.159c.563-.79 1.045-1.06 1.902-1.06m10.811 0c.846 0 1.495.32 1.96.913c.464.592.74 1.474.74 2.592c0 1.055-.284 1.902-.752 2.478c-.468.576-1.117.895-1.936.895c-.833 0-1.37-.263-1.914-.93l-.488.172v3.334h-.56V4.352h.468v.767l.506.147c.474-.754 1.12-1.113 1.976-1.113m6.886 0c.934 0 1.626.309 2.11.887c.482.578.76 1.454.76 2.605c0 1.089-.284 1.935-.771 2.504c-.487.568-1.18.881-2.087.881c-.92 0-1.608-.312-2.093-.885c-.484-.575-.763-1.437-.763-2.554c0-1.116.28-1.976.765-2.551c.485-.575 1.172-.887 2.079-.887m6.818 0c.756 0 1.312.182 1.674.49c.288.244.383.65.45 1.087h-.623c-.066-.29-.13-.589-.352-.767c-.3-.24-.705-.342-1.187-.342c-.492 0-.915.11-1.23.335a1.2 1.2 0 0 0-.513.983c0 .317.15.616.411.818c.261.2.615.332 1.082.443l1.058.25c.66.158 1.101.37 1.365.63c.263.258.38.568.38 1.032c0 .59-.233 1.045-.667 1.378c-.434.335-1.086.54-1.913.54c-.866 0-1.472-.185-1.861-.518c-.32-.273-.438-.753-.513-1.297h.602c.06.29.11.595.35.841c.304.318.795.507 1.515.507c.524 0 .979-.116 1.321-.346c.342-.23.565-.597.565-1.013c0-.306-.11-.601-.337-.806c-.227-.205-.536-.328-.943-.426l-1.03-.251c-.799-.194-1.307-.416-1.592-.677c-.284-.26-.39-.556-.39-1.051c0-.567.217-1.003.618-1.322c.402-.32 1.002-.518 1.76-.518m6.809 0c1.005 0 1.666.336 2.119.96c.407.563.576 1.469.616 2.522h-4.757l-.276.278c.015.754.213 1.412.61 1.891c.395.48.99.76 1.7.76c.904 0 1.577-.54 1.942-1.388h.53c-.357 1.144-1.18 1.855-2.512 1.855c-.906 0-1.601-.316-2.092-.889c-.49-.572-.778-1.421-.778-2.51c0-1.087.297-1.959.797-2.554c.501-.593 1.206-.925 2.1-.925m-90.227.467a2.126 2.126 0 0 0-1.574.663c-.396.422-.635 1.016-.683 1.707l.275.295h3.897l.275-.275c0-1.31-.903-2.39-2.19-2.39m51.436 0c-.691 0-1.285.309-1.674.837c-.387.529-.583 1.26-.583 2.134c0 .88.194 1.613.583 2.14c.39.53.984.833 1.674.833c.686 0 1.278-.308 1.668-.83c.39-.523.591-1.246.591-2.102c0-.898-.191-1.64-.58-2.175c-.386-.534-.983-.837-1.679-.837m25.177 0c-.693 0-1.285.309-1.674.837s-.584 1.26-.584 2.134c0 .88.195 1.613.584 2.14a2.03 2.03 0 0 0 1.674.833c.685 0 1.277-.308 1.668-.83c.39-.523.59-1.246.59-2.102c0-.898-.192-1.64-.579-2.175c-.387-.534-.983-.837-1.68-.837zm13.598 0a2.126 2.126 0 0 0-1.573.663c-.395.422-.633 1.016-.682 1.707l.275.295h3.897l.275-.275c0-1.31-.905-2.39-2.192-2.39m-79.188.013c-.666 0-1.244.317-1.625.846c-.38.529-.58 1.256-.58 2.112c0 .856.2 1.583.58 2.112c.381.529.958.846 1.625.846a2.07 2.07 0 0 0 1.674-.84c.396-.524.61-1.244.61-2.077c0-.87-.207-1.609-.603-2.145a2.058 2.058 0 0 0-1.681-.854m58.506 0c-.665 0-1.243.317-1.624.846c-.381.529-.58 1.256-.58 2.112c0 .856.199 1.583.58 2.112c.38.529.959.846 1.624.846a2.07 2.07 0 0 0 1.675-.84c.398-.524.61-1.244.61-2.077c0-.87-.208-1.609-.603-2.145a2.058 2.058 0 0 0-1.682-.854m-69.529.538c.885 0 1.426.667 1.545 1.564h-3.136c.084-.42.187-.828.418-1.075c.296-.315.687-.49 1.173-.49m51.436 0c.547 0 .942.205 1.235.609c.294.404.473 1.032.473 1.852c0 .77-.185 1.374-.482 1.772a1.443 1.443 0 0 1-1.226.61c-.538 0-.936-.206-1.23-.607c-.295-.401-.478-1.018-.478-1.816c0-.791.182-1.407.478-1.809c.295-.403.693-.611 1.23-.611m25.177 0c.545 0 .94.205 1.233.609c.294.404.474 1.032.474 1.852c0 .77-.184 1.374-.481 1.772a1.443 1.443 0 0 1-1.227.61c-.539 0-.935-.206-1.23-.607c-.296-.401-.475-1.018-.475-1.816c0-.791.18-1.407.475-1.809c.296-.403.693-.611 1.23-.611zm13.598 0c.885 0 1.428.667 1.546 1.564h-3.135c.084-.42.187-.828.418-1.075c.296-.315.685-.49 1.171-.49m-79.188.013c.526 0 .934.217 1.239.63c.305.413.494 1.035.494 1.817c0 .74-.193 1.34-.499 1.746c-.306.404-.716.621-1.234.621c-.5 0-.887-.211-1.179-.617c-.294-.407-.476-1.02-.476-1.79s.182-1.384.475-1.79c.293-.405.68-.617 1.179-.617zm58.506 0c.527 0 .934.217 1.24.63c.304.413.494 1.035.494 1.817c0 .74-.19 1.34-.497 1.746a1.484 1.484 0 0 1-1.237.621c-.498 0-.884-.211-1.177-.617c-.293-.407-.477-1.02-.477-1.79s.184-1.384.477-1.79c.293-.405.68-.617 1.177-.617M41.826 7.328c-.473.217-1.326.265-2.081.43c-.379.085-.741.2-1.03.43a1.3 1.3 0 0 0-.485 1.042c0 .417.164.788.461 1.03c.297.242.703.356 1.176.356c1.429 0 2.352-.92 2.352-1.795V7.578Zm-.158.584v.91c0 .447-.614 1.243-1.8 1.243c-.386 0-.66-.092-.829-.231c-.169-.137-.258-.32-.258-.604c0-.31.096-.469.276-.61c.178-.143.465-.249.806-.323c.56-.124 1.218-.21 1.805-.386z"/></g></g></svg>