<svg xmlns="http://www.w3.org/2000/svg" width="1em" height="1em" viewBox="0 0 128 128"><path d="m31.441 92.652l-3.586.569v17.667a5.527 5.527 0 0 0 1.094.305c.437.088.875.176 1.312.22c.481.043.917.087 1.398.13c.482.044.919.088 1.356.088a8.003 8.003 0 0 0 2.799-.437a6.725 6.725 0 0 0 2.055-1.355a5.628 5.628 0 0 0 1.268-2.1a7.918 7.918 0 0 0 .438-2.755a12.418 12.418 0 0 0-.306-2.667a5.274 5.274 0 0 0-1.05-2.1a4.736 4.736 0 0 0-1.749-1.311a5.54 5.54 0 0 0-2.361-.481a7.238 7.238 0 0 0-1.4.13a6.108 6.108 0 0 0-1.268.395zm-27.856 0L0 93.222v18.059h3.585v-5.51a7.514 7.514 0 0 1 1.181 1.18a12.574 12.574 0 0 1 1.18 1.488a15.923 15.923 0 0 1 1.05 1.53c.307.48.612.92.875 1.356h4.11c-.261-.525-.612-1.093-1.006-1.75a18.675 18.675 0 0 0-1.31-1.924a55.026 55.026 0 0 0-1.487-1.835a17.662 17.662 0 0 0-1.488-1.576a72.507 72.507 0 0 0 2.623-2.755c.83-.874 1.662-1.837 2.493-2.798H7.565c-.218.262-.524.61-.831.96c-.307.35-.656.745-1.006 1.182a246.454 246.454 0 0 1-1.093 1.224c-.377.378-.714.756-1.05 1.133zm94.631 2.318l-3.585.569v10.583a11.334 11.334 0 0 0 .218 2.23a4.339 4.339 0 0 0 .83 1.749a4.047 4.047 0 0 0 1.532 1.093a6.682 6.682 0 0 0 2.448.394a8.407 8.407 0 0 0 1.968-.175a6.965 6.965 0 0 0 1.443-.438l-.525-2.798a7.11 7.11 0 0 1-1.137.306a10.72 10.72 0 0 1-1.18.087c-.788 0-1.356-.218-1.619-.656a3.516 3.516 0 0 1-.393-1.792v-4.46h4.286v-2.974h-4.286zm25.276 3.367c-1.53 0-2.755.35-3.63 1.05a3.327 3.327 0 0 0-1.312 2.799a4.237 4.237 0 0 0 .263 1.574a3.42 3.42 0 0 0 .742 1.137a4.372 4.372 0 0 0 1.139.787c.436.218.961.437 1.53.656a8.295 8.295 0 0 1 1.617.744c.35.218.525.436.525.742a.766.766 0 0 1-.393.744a3.593 3.593 0 0 1-1.4.175a8.047 8.047 0 0 1-1.793-.175a13.365 13.365 0 0 1-1.88-.568l-.612 2.93a7.982 7.982 0 0 0 1.53.48a10.109 10.109 0 0 0 2.799.307c1.749 0 3.06-.306 3.979-.962a3.26 3.26 0 0 0 1.4-2.843a4.538 4.538 0 0 0-.175-1.4a2.284 2.284 0 0 0-.612-1.092a3.265 3.265 0 0 0-1.18-.92a14.424 14.424 0 0 0-1.97-.873c-.393-.175-.699-.262-.961-.393c-.219-.132-.438-.263-.569-.35a.734.734 0 0 1-.306-.35a1.277 1.277 0 0 1-.087-.395c0-.612.524-.918 1.662-.918a6.118 6.118 0 0 1 1.617.176c.482.13.919.262 1.356.394l.613-2.8a8.085 8.085 0 0 0-1.662-.437a12.44 12.44 0 0 0-2.23-.22zm-75.696.044a5.844 5.844 0 0 0-2.274.437a5.097 5.097 0 0 0-1.924 1.269a6.692 6.692 0 0 0-1.355 2.099a7.463 7.463 0 0 0-.525 2.93a10.271 10.271 0 0 0 .35 2.624a6.312 6.312 0 0 0 1.223 2.099a6.439 6.439 0 0 0 2.099 1.355a7.69 7.69 0 0 0 2.974.525c.438 0 .918-.044 1.356-.088a9.871 9.871 0 0 0 1.267-.175a4.409 4.409 0 0 0 1.094-.22c.35-.13.612-.217.787-.305l-.48-2.93a7.845 7.845 0 0 1-1.575.438a9.267 9.267 0 0 1-1.924.175a4.16 4.16 0 0 1-2.449-.656a2.397 2.397 0 0 1-1.05-1.75h8.134c0-.218.044-.436.044-.655a4.002 4.002 0 0 0 .043-.7c0-2.1-.524-3.717-1.573-4.81a5.597 5.597 0 0 0-4.242-1.662m38.351 0a5.844 5.844 0 0 0-2.274.437a5.097 5.097 0 0 0-1.924 1.269a6.692 6.692 0 0 0-1.356 2.099a7.462 7.462 0 0 0-.525 2.93a10.269 10.269 0 0 0 .35 2.624a6.312 6.312 0 0 0 1.225 2.099a6.438 6.438 0 0 0 2.099 1.355a7.69 7.69 0 0 0 2.973.525c.437 0 .918-.044 1.356-.088a9.873 9.873 0 0 0 1.268-.175a4.408 4.408 0 0 0 1.093-.22c.35-.13.612-.217.787-.305l-.48-2.93a7.844 7.844 0 0 1-1.574.438a9.267 9.267 0 0 1-1.926.175a4.16 4.16 0 0 1-2.448-.656a2.397 2.397 0 0 1-1.05-1.75h8.134c0-.218.044-.436.044-.655a4 4 0 0 0 .043-.7c0-2.098-.524-3.717-1.573-4.81a5.597 5.597 0 0 0-4.242-1.662m24.27 0a5.844 5.844 0 0 0-2.275.437a5.097 5.097 0 0 0-1.924 1.269a6.692 6.692 0 0 0-1.355 2.099a7.462 7.462 0 0 0-.525 2.93a8.647 8.647 0 0 0 .35 2.624a6.312 6.312 0 0 0 1.225 2.099a6.438 6.438 0 0 0 2.098 1.355a7.69 7.69 0 0 0 2.974.525c.437 0 .918-.044 1.356-.088a9.871 9.871 0 0 0 1.267-.175a4.408 4.408 0 0 0 1.094-.22c.35-.13.612-.217.787-.305l-.481-2.93a7.844 7.844 0 0 1-1.574.438a9.267 9.267 0 0 1-1.925.175a4.16 4.16 0 0 1-2.448-.656a2.397 2.397 0 0 1-1.05-1.75h8.134c0-.218.044-.436.044-.655a4.001 4.001 0 0 0 .043-.7c0-2.098-.524-3.717-1.574-4.81a5.597 5.597 0 0 0-4.241-1.662m-48.89.045a12.302 12.302 0 0 0-2.93.305a18.601 18.601 0 0 0-2.274.612v12.026h3.586v-9.664a6.869 6.869 0 0 1 .7-.131a7.71 7.71 0 0 1 .83-.088a7.237 7.237 0 0 1 1.4.132a6.57 6.57 0 0 1 1.137.219v-.001l.612-2.974c-.175-.043-.438-.13-.7-.174a32.987 32.987 0 0 1-.83-.132a5.975 5.975 0 0 0-.831-.087a4.256 4.256 0 0 0-.7-.043m10.364 0a21.144 21.144 0 0 0-5.378.699h-.001v12.288h3.543v-9.752a4.332 4.332 0 0 1 .786-.087a5.576 5.576 0 0 1 .831-.044c.831 0 1.399.219 1.705.7c.307.48.438 1.312.438 2.45v6.69h3.586v-7.13a9.755 9.755 0 0 0-.263-2.36a5.108 5.108 0 0 0-.874-1.837a3.746 3.746 0 0 0-1.706-1.181a6.67 6.67 0 0 0-2.667-.436m-58.336.262v7.04a10.283 10.283 0 0 0 .263 2.36a4.017 4.017 0 0 0 2.536 3.062a7.046 7.046 0 0 0 2.711.438a16.903 16.903 0 0 0 3.018-.22a17.016 17.016 0 0 0 2.361-.48l.044-12.2h-3.586v9.75c-.262.045-.481.045-.787.088a5.576 5.576 0 0 1-.83.044c-.832 0-1.4-.262-1.706-.787c-.306-.524-.437-1.355-.437-2.492v-6.603zm34.284 2.579a2.09 2.09 0 0 1 1.75.788a2.658 2.658 0 0 1 .393.786a2.827 2.827 0 0 1 .17.832h-4.718a6.394 6.394 0 0 1 .219-.875a2.294 2.294 0 0 1 .437-.787a1.74 1.74 0 0 1 .7-.525a2.642 2.642 0 0 1 1.049-.22zm38.35 0a2.09 2.09 0 0 1 1.751.788a2.659 2.659 0 0 1 .393.786a2.828 2.828 0 0 1 .17.832h-4.718a6.391 6.391 0 0 1 .219-.875a2.294 2.294 0 0 1 .437-.787a1.74 1.74 0 0 1 .7-.525a2.642 2.642 0 0 1 1.049-.22zm24.228 0a2.09 2.09 0 0 1 1.75.788a2.658 2.658 0 0 1 .392.786a2.827 2.827 0 0 1 .17.832h-4.718a6.392 6.392 0 0 1 .22-.875a2.294 2.294 0 0 1 .436-.787a1.74 1.74 0 0 1 .7-.525a2.642 2.642 0 0 1 1.05-.22zm-77.008.176c1.705 0 2.537 1.136 2.537 3.454a4.484 4.484 0 0 1-.744 2.668a2.708 2.708 0 0 1-2.23 1.006c-.307 0-.613-.045-.875-.045c-.263-.043-.481-.043-.656-.087v-6.516a3.304 3.304 0 0 1 .875-.35a4.67 4.67 0 0 1 1.093-.13"/><path fill="#326ce5" d="M63.8 16.283a4.956 4.915 0 0 0-1.899.48L35.985 29.146a4.956 4.915 0 0 0-2.682 3.335L26.91 60.296a4.956 4.915 0 0 0 .673 3.768a4.956 4.915 0 0 0 .281.39L45.802 86.76a4.956 4.915 0 0 0 3.875 1.85l28.767-.007a4.956 4.915 0 0 0 3.874-1.847L100.25 64.45a4.956 4.915 0 0 0 .958-4.16l-6.404-27.815a4.956 4.915 0 0 0-2.681-3.334l-25.92-12.378a4.956 4.915 0 0 0-2.403-.48"/><path fill="#fff" d="M64.057 25.748c-.857 0-1.551.772-1.551 1.724c0 .015.003.029.003.043c-.001.13-.007.285-.003.398c.02.549.14.97.212 1.475c.13 1.082.24 1.98.172 2.814c-.065.314-.297.602-.503.802l-.037.656a20.187 20.187 0 0 0-2.804.43a19.952 19.952 0 0 0-10.136 5.79a26.001 26.001 0 0 1-.56-.396c-.277.037-.557.123-.921-.09c-.695-.467-1.327-1.112-2.092-1.89c-.35-.371-.604-.724-1.02-1.083c-.095-.081-.24-.191-.345-.275a1.845 1.845 0 0 0-1.08-.408a1.494 1.494 0 0 0-1.237.547c-.534.67-.363 1.694.38 2.287l.024.017c.102.083.228.189.322.258c.442.327.845.494 1.286.753c.927.573 1.697 1.048 2.307 1.62c.238.255.28.702.311.896l.497.444a20.073 20.073 0 0 0-3.165 13.994l-.65.189c-.17.22-.413.569-.666.672c-.798.252-1.696.344-2.78.458c-.51.042-.95.017-1.489.119c-.119.023-.284.066-.414.096l-.014.003l-.023.007c-.914.22-1.501 1.06-1.312 1.89c.189.827 1.082 1.33 2.002 1.133c.006-.002.016-.002.023-.003c.01-.003.02-.008.03-.01c.128-.028.289-.06.4-.09c.531-.142.916-.35 1.393-.533c1.026-.37 1.876-.676 2.704-.796c.346-.027.71.213.892.315l.676-.116c1.556 4.824 4.817 8.723 8.946 11.17l-.282.676c.102.263.214.618.138.877c-.3.78-.817 1.605-1.404 2.524c-.284.424-.575.753-.832 1.24c-.061.115-.14.294-.199.417c-.398.853-.106 1.835.66 2.204c.77.37 1.727-.02 2.141-.875l.004-.004v-.003c.059-.122.142-.28.192-.395c.22-.503.293-.935.447-1.422c.41-1.03.636-2.112 1.201-2.786c.155-.185.407-.256.669-.326l.351-.636a20.043 20.043 0 0 0 11.654.838a20.128 20.128 0 0 0 2.661-.802c.1.175.283.512.332.597c.266.086.556.13.792.48c.423.722.712 1.577 1.064 2.609c.155.487.231.918.45 1.422c.05.114.134.276.193.397c.413.858 1.373 1.25 2.145.879c.765-.37 1.058-1.352.66-2.204c-.06-.123-.142-.302-.203-.418c-.257-.486-.548-.812-.832-1.236c-.587-.92-1.074-1.682-1.375-2.463c-.126-.403.02-.653.119-.915c-.059-.067-.185-.447-.259-.626a20.186 20.186 0 0 0 8.943-11.25c.2.032.55.094.663.116c.233-.154.447-.354.868-.321c.828.12 1.678.427 2.705.795c.477.183.861.395 1.392.537c.112.03.273.058.4.086c.011.003.02.008.03.01l.024.004c.92.198 1.813-.306 2.002-1.134c.189-.828-.398-1.668-1.313-1.89c-.133-.03-.321-.08-.45-.105c-.54-.102-.98-.077-1.489-.12c-1.084-.113-1.982-.205-2.78-.457c-.326-.126-.558-.513-.67-.673l-.627-.182c.325-2.35.238-4.795-.324-7.242a20.08 20.08 0 0 0-2.907-6.72c.16-.145.464-.413.55-.493c.025-.278.004-.57.292-.878c.61-.573 1.379-1.048 2.307-1.62c.44-.26.847-.427 1.289-.753c.1-.074.236-.19.341-.275c.744-.594.916-1.617.381-2.287c-.534-.67-1.569-.733-2.313-.14c-.106.084-.25.194-.345.276c-.416.358-.673.712-1.024 1.084c-.765.777-1.397 1.425-2.091 1.892c-.301.175-.742.115-.942.103l-.59.42c-3.364-3.527-7.944-5.782-12.876-6.22a37.228 37.228 0 0 1-.037-.693c-.202-.193-.446-.358-.507-.775c-.068-.834.045-1.732.176-2.814c.072-.506.191-.926.212-1.475c.004-.125-.003-.306-.004-.441c0-.952-.694-1.724-1.551-1.724M62.115 37.78l-.461 8.137l-.033.017a1.367 1.367 0 0 1-1.366 1.309a1.36 1.36 0 0 1-.805-.262l-.013.007l-6.672-4.73a15.98 15.98 0 0 1 7.696-4.193a16.347 16.347 0 0 1 1.654-.285m3.888 0a16.113 16.113 0 0 1 9.293 4.48l-6.629 4.7l-.023-.01a1.369 1.369 0 0 1-1.876-.25a1.358 1.358 0 0 1-.298-.793l-.007-.003zm-15.658 7.517l6.092 5.45l-.007.033c.55.478.631 1.307.173 1.882a1.367 1.367 0 0 1-.71.468l-.006.026l-7.81 2.254a15.976 15.976 0 0 1 2.268-10.113m27.38.004a16.175 16.175 0 0 1 2 4.882c.403 1.755.504 3.507.338 5.2l-7.849-2.26l-.007-.033a1.368 1.368 0 0 1-.97-1.624a1.356 1.356 0 0 1 .433-.726l-.003-.017zm-14.918 5.866h2.496l1.551 1.94l-.556 2.419l-2.241 1.077l-2.247-1.08l-.557-2.42zm8.002 6.636a1.359 1.359 0 0 1 .315.023l.013-.016l8.077 1.365a15.996 15.996 0 0 1-6.466 8.124l-3.136-7.574l.01-.013a1.37 1.37 0 0 1 1.187-1.91zm-13.567.033a1.368 1.368 0 0 1 1.237 1.906l.023.03l-3.102 7.497a16.062 16.062 0 0 1-6.447-8.067l8.008-1.36l.013.017a1.384 1.384 0 0 1 .268-.023m6.765 3.285a1.354 1.354 0 0 1 .64.136c.271.13.481.336.613.583h.03l3.948 7.133a16.362 16.362 0 0 1-1.578.44a16.04 16.04 0 0 1-8.754-.45l3.938-7.12h.007a1.37 1.37 0 0 1 1.156-.722"/></svg>