<svg xmlns="http://www.w3.org/2000/svg" width="1em" height="1em" viewBox="0 0 128 128"><path fill="#010002" d="M106.71 82.578c-.058 23.649-19.32 42.879-42.987 42.879c-23.703 0-42.985-19.285-42.985-42.992c0-.07.012-.14.012-.215C8.332 74.703 0 61.086 0 45.531C0 21.824 19.285 2.54 42.988 2.54c7.633 0 14.79 2.023 21.008 5.524c6.219-3.5 13.379-5.524 21.012-5.524c23.707 0 42.988 19.29 42.988 42.992c0 15.782-8.574 29.57-21.285 37.047ZM63.997 17.102c-7.781 5.761-13.144 14.601-14.195 24.73c4.37-1.504 9.047-2.36 13.922-2.36c5.093 0 9.96.934 14.492 2.571c-1-10.215-6.387-19.14-14.219-24.941m-35.34 60.773a35.239 35.239 0 0 0 14.332 3.055c4.961 0 9.688-1.032 13.977-2.887c-7.113-6.145-12.211-14.55-14.113-24.113c-7.614 5.593-12.914 14.129-14.196 23.945m35.067-30.813a35.17 35.17 0 0 0-13.825 2.817c1.215 9.851 6.493 18.445 14.098 24.082c7.547-5.594 12.793-14.086 14.063-23.84a35.146 35.146 0 0 0-14.336-3.059m7.308 30.985a35.156 35.156 0 0 0 13.973 2.887c4.902 0 9.574-1.004 13.828-2.817c-1.195-9.707-6.336-18.18-13.754-23.828c-1.96 9.418-7.023 17.688-14.047 23.758m-7.308 39.824c18.277 0 33.359-13.922 35.215-31.71c-4.376 1.503-9.047 2.359-13.93 2.359a42.667 42.667 0 0 1-21.012-5.524a42.63 42.63 0 0 1-21.008 5.524c-5.093 0-9.957-.934-14.492-2.567c1.762 17.89 16.883 31.918 35.227 31.918M42.988 10.125c-19.523 0-35.406 15.879-35.406 35.406c0 11.5 5.535 21.703 14.055 28.176c2.504-12.05 10.09-22.23 20.386-28.289c.036-12.945 5.836-24.54 14.942-32.406a35.107 35.107 0 0 0-13.977-2.887m42.02 0a35.08 35.08 0 0 0-13.973 2.887c9.133 7.886 14.95 19.523 14.95 32.515c0 .075-.016.145-.016.215c10.117 6.156 17.527 16.328 19.91 28.317c8.793-6.45 14.535-16.82 14.535-28.528c-.004-19.523-15.883-35.406-35.406-35.406m0 0"/></svg>