<svg xmlns="http://www.w3.org/2000/svg" width="1em" height="1em" viewBox="0 0 128 128"><path fill="#fff" d="M63.932 0C39.994 0 19.164 13.145 8.164 32.576c8.596-.018 25.338-.027 25.338-.027h.004v-.008c19.788 0 20.523.089 24.388.25l2.395.088c8.338.278 18.585 1.175 26.648 7.275c4.377 3.31 10.696 10.612 14.463 15.815c3.483 4.812 4.485 10.344 2.118 15.644c-2.18 4.872-6.868 7.778-12.547 7.778H2.086s.529 2.243 1.322 4.718h121.33A63.798 63.798 0 0 0 128 64.027C128.001 28.67 99.316 0 63.932 0M33.486 38.967c-9.084 0-18.96.023-28.578.049c-1.245 3.36-2.444 6.618-3.03 9.267H51.7v6.488H.594A65.09 65.09 0 0 0 0 61.218h97.225c-.34-.663-.796-1.26-1.256-1.846c-16.621-21.474-25.562-19.613-38.352-20.158c-4.264-.176-7.157-.246-24.13-.246M.051 67.713a65.52 65.52 0 0 0 .496 5.123H90.97c4.03 0 6.286-2.285 7.02-5.123zm5.576 22.826S20.617 127.346 63.932 128c25.889 0 48.133-15.375 58.238-37.461z"/></svg>