<svg xmlns="http://www.w3.org/2000/svg" width="1em" height="1em" viewBox="0 0 128 128"><path fill="#333" d="M4.426 68.426a22.846 22.846 0 0 1-2.023-.499l-1.377-.382l.703-1.288l.704-1.29l-.572-.704C1.055 63.267.014 61.07 0 60.365c0-1.642 2.14-4.045 4.763-5.335c1.802-.879 3.238-.908 5.041-.073l1.364.63l.395-.556c.22-.31.396-.72.396-.895c0-.175.175-.336.395-.336c.22 0 .396.057.396.116c0 .162-1.582 4.134-1.685 4.235c-.044.044-.47-.16-.953-.439c-1.363-.806-3.092-1.349-4.426-1.377c-3.107-.074-4.177 2.96-1.993 5.612l.776.939l2.111-1.7c2.36-1.906 2.638-1.95 4.485-.675c2.066 1.422 2.11 3.59.103 5.877c-1.788 1.993-3.62 2.55-6.742 2.037zm5.29-2.184c1.026-.807.953-2.302-.16-3.488c-1.393-1.48-1.833-1.422-4.295.63c-2.447 2.037-2.463 1.964.469 2.902c1.934.63 3.151.615 3.986-.044m19.902 7.87c-.703-.25-2.594-1.04-4.19-1.745c-4.353-1.904-4.969-1.934-6.273-.351c-.308.366-.631.586-.718.498c-.279-.278.542-1.612 1.553-2.491c.82-.718 1.085-.807 1.978-.718c.572.058 2.478.718 4.221 1.465c3.942 1.67 5.1 2.037 6.61 2.037c1.831 0 2.784-1.289 2.198-2.99c-.146-.425-.103-.571.19-.571c.543 0 .806 1.993.427 3.15c-.163.5-.647 1.188-1.071 1.54c-.631.528-1.026.645-2.214.63c-.79.015-2.008-.205-2.71-.455zM19.448 68c-1.627-.747-3.079-2.198-3.928-3.883c-1.349-2.697-.938-4.427 1.626-6.771c2.155-1.965 3.9-2.727 6.273-2.727c1.7 0 2.067.089 3.18.777c2.624 1.627 3.268 4.72 1.686 8.076c-1.861 3.972-5.76 5.965-8.838 4.528zm5.423-1.876c1.215-.6 2.051-3.37 1.699-5.671c-.426-2.829-4.264-4.778-7.078-3.577c-2.888 1.231-2.932 4.53-.087 7.49c1.992 2.095 3.692 2.638 5.466 1.758m5.51 2.403c0-.116.454-.336 1.01-.469l1.012-.249l.22-3.619c.235-4.016.059-7.958-.367-8.486c-.161-.19-.63-.41-1.07-.513c-1.773-.395-.585-.674 2.844-.674c3.43 0 4.53.25 2.887.66c-1.407.351-1.407.366-1.407 6.097c0 3.18.118 5.568.278 5.876c.235.426.572.513 1.89.513c2.713 0 3.65-.644 4.383-3.019c.22-.718.791-.586.586.131c-.088.338-.25 1.364-.336 2.288l-.162 1.685h-5.863c-3.269 0-5.907-.103-5.907-.22z"/><path fill="#ca2727" d="M81.834 52.218c-.337-.012-1.162.298-2.4.936c-2.067 1.07-2.332 1.275-2.17 1.759c.248.777.469 10.098.263 11.475c-.116.805-.308 1.188-.673 1.305c-1.642 1.055 1.333 1.524 2.065 1.142c2.199 0 2.596-.072 2.742-.454c.102-.249.072-.483-.06-.526c-1.041-.338-1.231-.793-1.172-2.787c.059-2.227.559-3.37 1.716-4.029c.645-.351.731-.352 1.23.145c1.099 1.1.996 5.424-.162 6.494c-1.084 1.01-.82 1.172 1.95 1.172c2.154 0 2.609-.072 2.74-.424c.19-.483.221-.44-.6-.866c-.615-.322-.616-.351-.44-3.268c.145-2.389.103-3.078-.22-3.709c-.469-.908-1.86-2.138-2.403-2.138c-.615 0-1.863.733-3.02 1.774l-1.068.965l.174-.878c.103-.483.175-2.11.175-3.605c0-2.71.017-2.727.808-3.474c.71-.66.861-.996.525-1.009m-15.372.122c-.355.04-1.113.359-2.3.974c-2.066 1.07-2.332 1.277-2.17 1.76c.248.777.47 10.097.264 11.476c-.118.805-.307 1.187-.674 1.305c-.278.087-.513.38-.513.658c0 .47.205.497 2.624.497c2.08 0 2.637-.072 2.754-.394c.088-.235-.116-.602-.542-.938l-.688-.542l.072-6.623l.075-6.625l.746-.602c.426-.338.676-.733.573-.895c-.029-.047-.103-.065-.221-.051m-13.908 1.825c0-.014-.366.016-.79.06c-.734.087-.793.115-.983.775c-.264.865-2.961 6.625-4.69 9.981c-1.085 2.125-1.392 2.579-1.846 2.784c-.337.16-.544.367-.544.586c0 .323.119.337 2.083.337c1.861 0 2.11-.029 2.183-.292c.058-.22-.088-.338-.571-.469c-.981-.264-.968-.805.087-3.136l.571-1.247h5.892l.779 1.834c.424 1.01.775 1.948.775 2.095c0 .146-.247.336-.586.454c-.351.132-.586.308-.586.484c0 .249.294.277 2.946.277c2.638 0 2.944-.028 2.944-.277c0-.146-.277-.41-.629-.586c-.586-.279-.778-.6-2.522-4.104a263.608 263.608 0 0 1-3.193-6.67c-.718-1.567-1.305-2.871-1.32-2.886m-1.509 3.327c.205.06 2.433 4.91 2.33 5.087c-.117.175-4.777.16-4.777-.03c0-.353 2.3-5.1 2.447-5.057m69.92.631c-.161 0-1.275.469-2.492 1.04l-2.21 1.04l2.123 4.045c1.158 2.227 2.082 4.147 2.038 4.263c-.044.118-1.041.984-2.198 1.923c-1.76 1.407-2.184 1.903-2.534 2.929c-.236.674-.427 1.379-.427 1.569c0 .542.718.397.908-.175c.088-.278.368-.616.601-.748c1.276-.689 9.145-1.144 9.145-.544c0 .148-.176.692-.396 1.205c-.22.513-.394.995-.394 1.053v.002c0 .058.19.07.439.043c.469-.103 2.432-3.21 2.432-3.84c0-1.07-.38-1.186-3.428-1.172c-1.613.015-3.401.1-3.973.205l-1.04.174l1.304-1.098c2.667-2.257 5.393-5.04 5.877-5.979c1.026-2.007.425-4.279-1.392-5.261l-.938-.499l-1.055.704c-.572.38-1.055.865-1.055 1.07c0 .205.5.702 1.1 1.112c.953.646 1.127.88 1.185 1.774c.059.776-.101 1.305-.644 2.14c-.396.602-.806 1.1-.923 1.1c-.249 0-3.063-5.599-3.063-6.096c0-.22.292-.617.644-.896c.674-.527.865-1.083.366-1.083m-26.365.132c-4.895.733-7.635 6.99-3.282 10.228c.483.322 1.172.587 1.539.572c1.596 0 4.94-2.491 4.265-3.166c-.235-.233-.542-.16-1.362.294c-.924.527-1.158.556-1.833.277c-.893-.366-1.877-1.61-1.759-2.212c.044-.234 1.186-.909 2.55-1.524c3.018-1.364 3.254-1.846 1.583-3.356c-.57-.527-1.35-1.025-1.7-1.113zm-21.858.028a.942.942 0 0 0-.241.03c-.939.235-3.019 1.76-3.914 2.859c-.66.82-.805 1.231-.878 2.711c-.089 1.45 0 1.934.526 2.916c.351.645 1.025 1.434 1.495 1.757h.002c1.51 1.025 3.18.66 5.127-1.128c.836-.762 1.055-1.1.865-1.392c-.22-.323-.395-.292-1.29.207c-1.274.703-2.11.57-3.018-.514a4.55 4.55 0 0 1-.938-3.869c.13-.601.366-1.218.514-1.364c.365-.367 1.48.397 1.978 1.364l.394.761l1.173-.439c.645-.235 1.23-.645 1.32-.908c.329-1.004-1.84-2.999-3.115-2.99zm33.048.241c-.22.013-.462.126-.872.345c-.499.265-1.318.866-1.831 1.335l-.923.848V59.91c0-1.407-.381-1.612-1.73-.894c-1.757.94-1.7.806-1.231 2.652c.572 2.243.368 5.379-.41 6.01c-.293.248-.528.617-.528.85c0 .353.395.41 2.462.367c2.814 0 3.209-.279 2.095-1.392c-.557-.557-.673-.926-.673-2.053c0-1.848.366-3.004 1.215-3.899c.88-.908 1.203-.91 1.893-.045c.454.572.541 1.057.541 3.006c0 2.14-.044 2.376-.646 2.976c-1.2 1.202-.937 1.407 1.921 1.407c2.359 0 2.594-.045 2.712-.514c.087-.322-.001-.514-.222-.514c-1.567 0-1.51-4.616.087-6.301c.808-.85 1.19-.878 1.878-.19c.439.439.514.865.514 2.8c0 2.726-.149 3.384-.808 3.589c-.278.088-.499.383-.499.66c0 .456.208.5 2.48.5c1.978 0 2.519-.089 2.636-.397c.103-.234-.103-.6-.513-.923c-.675-.528-.673-.53-.512-3.504c.146-2.873.132-3.003-.499-3.957c-.776-1.186-1.757-1.757-2.622-1.539c-.352.088-1.217.676-1.935 1.322l-1.29 1.155l-.616-.953c-.352-.527-.937-1.128-1.332-1.347c-.323-.183-.523-.27-.742-.258m-12.938 1.774c.17-.019.387.087.798.3c1.026.543.952.882-.382 1.644c-.558.322-1.115.584-1.217.584c-.381.014-.177-1.509.277-2.08c.227-.287.354-.43.524-.448"/></svg>