<svg xmlns="http://www.w3.org/2000/svg" width="1em" height="1em" viewBox="0 0 128 128"><defs><linearGradient id="deviconVisualstudioWordmark0"><stop offset="0" stop-color="#43127b"/><stop offset="1" stop-color="#401076"/></linearGradient><linearGradient id="deviconVisualstudioWordmark1"><stop offset="0" stop-color="#511c8e"/><stop offset="1" stop-color="#511c8e" stop-opacity="0"/></linearGradient><linearGradient id="deviconVisualstudioWordmark2"><stop offset="0" stop-color="#511c8e"/><stop offset="1" stop-color="#511c8e" stop-opacity="0"/></linearGradient><linearGradient id="deviconVisualstudioWordmark3"><stop offset="0" stop-color="#6730a5"/><stop offset="1" stop-color="#6730a5" stop-opacity="0"/></linearGradient><linearGradient id="deviconVisualstudioWordmark4" x1="80.783" x2="74.874" y1="81.704" y2="81.704" gradientUnits="userSpaceOnUse" href="#deviconVisualstudioWordmark3"/><linearGradient id="deviconVisualstudioWordmark5" x1="79.177" x2="74.806" y1="31.624" y2="31.624" gradientUnits="userSpaceOnUse" href="#deviconVisualstudioWordmark2"/><linearGradient id="deviconVisualstudioWordmark6" x1="54.779" x2="60.673" y1="53.025" y2="47.833" gradientUnits="userSpaceOnUse" href="#deviconVisualstudioWordmark1"/><linearGradient id="deviconVisualstudioWordmark7" x1="46.146" x2="41.929" y1="59.644" y2="64.781" gradientUnits="userSpaceOnUse" href="#deviconVisualstudioWordmark1"/><radialGradient id="deviconVisualstudioWordmark8" cx="20.133" cy="56.933" r="6.662" fx="20.133" fy="56.933" gradientTransform="matrix(2.35095 0 0 3.36708 -27.199 -133.547)" gradientUnits="userSpaceOnUse" href="#deviconVisualstudioWordmark0"/><path id="deviconVisualstudioWordmark9" fill="#a16ae2" d="M81.026 18.646a5.158 4.75 0 0 0-3.658.872a3.026 2.786 0 0 1 4.464 2.452v68.875a3.026 2.786 0 0 1-5.158 1.97a5.158 4.75 0 0 0 5.863.919l17.003-7.529a5.158 4.75 0 0 0 2.923-4.283V30.877a5.158 4.75 0 0 0-2.923-4.284l-17.003-7.53a5.158 4.75 0 0 0-1.511-.417m-3.658.872a3.026 2.786 0 0 0-.694.465a5.158 4.75 0 0 1 .694-.465"/></defs><path fill="url(#deviconVisualstudioWordmark8)" d="M29.215 34.011a3.438 3.166 0 0 0-.913.222l-6.25 2.375a3.438 3.166 0 0 0-2.114 2.905v33.772a3.438 3.166 0 0 0 2.114 2.905l6.25 2.415a3.438 3.166 0 0 0 3.56-.514l1.4-1.108a1.9 1.75 0 0 1-3.009-1.425V37.24a1.9 1.75 0 0 1 3.009-1.425l-1.4-1.068a3.438 3.166 0 0 0-2.646-.737z"/><path fill="#5d25a0" d="M81.026 18.646a5.158 4.75 0 0 0-4.352 1.337L23.377 74.251a1.986 1.829 0 0 1-3.44-1.226v.26a3.438 3.166 0 0 0 2.115 2.905l6.25 2.415a3.438 3.166 0 0 0 3.56-.514l1.4-1.108l63.88-48.236a3.258 3 0 0 1 5.321 2.319v-.182A5.158 4.75 0 0 0 99.54 26.6l-17.003-7.537a5.158 4.75 0 0 0-1.511-.418z"/><path fill="#753db8" d="M29.525 33.978a3.438 3.166 0 0 0-1.223.255l-6.25 2.375a3.438 3.166 0 0 0-2.114 2.905v.262a1.986 1.829 0 0 1 3.439-1.227l53.297 54.267a5.158 4.75 0 0 0 5.863.919l17.003-7.537a5.158 4.75 0 0 0 2.923-4.282v-.183a3.258 3 0 0 1-5.322 2.32l-63.88-48.236l-1.4-1.108a3.438 3.166 0 0 0-2.336-.73"/><use href="#deviconVisualstudioWordmark9"/><path fill="#753db8" d="M5.534 108.898q-.036.124-.094.204q-.058.072-.19.116q-.13.036-.355.044q-.226.014-.59.014q-.29 0-.5-.007q-.204 0-.35-.014q-.145-.015-.24-.044q-.087-.029-.152-.073q-.059-.043-.095-.101q-.029-.066-.058-.16l-2.799-8.339q-.087-.261-.109-.414q-.014-.153.073-.225q.094-.08.312-.095q.218-.022.611-.022q.334 0 .523.015q.19.014.291.05q.102.037.138.11q.044.072.08.181l2.29 7.256h.008l2.246-7.22q.029-.123.073-.195q.043-.08.145-.124q.11-.044.305-.058q.197-.015.538-.015q.335 0 .516.022q.19.022.255.11q.073.08.044.232q-.022.152-.11.407zm6.041.073q0 .073-.05.13q-.044.059-.153.095q-.11.037-.29.058q-.183.022-.466.022q-.276 0-.465-.022q-.182-.021-.291-.058q-.11-.036-.16-.094q-.044-.058-.044-.131v-8.884q0-.072.044-.13q.05-.059.16-.095q.116-.036.298-.058q.182-.022.458-.022q.283 0 .465.022q.182.022.29.058q.11.036.154.094q.05.059.05.131zm7.626-2.559q0 .741-.276 1.301q-.276.56-.749.938q-.472.37-1.105.56q-.632.189-1.352.189q-.487 0-.909-.08q-.414-.08-.734-.19q-.32-.115-.538-.24q-.21-.123-.305-.217q-.095-.095-.138-.27q-.037-.18-.037-.515q0-.226.015-.378q.015-.153.044-.247q.036-.095.087-.131q.058-.044.13-.044q.103 0 .284.124q.19.116.48.261q.29.146.69.27q.408.116.938.116q.35 0 .626-.08q.276-.088.465-.24q.196-.153.298-.378q.102-.226.102-.502q0-.32-.175-.545q-.174-.233-.458-.407q-.276-.182-.632-.335q-.356-.16-.734-.334q-.378-.175-.735-.393q-.356-.225-.64-.53q-.276-.313-.45-.735q-.175-.421-.175-1.01q0-.676.248-1.185q.254-.516.676-.85q.429-.342 1.003-.51q.581-.167 1.228-.167q.335 0 .67.051q.334.051.624.138q.291.088.517.197q.225.109.298.181q.072.073.094.124q.03.05.044.138q.022.08.029.21q.007.125.007.314q0 .21-.014.356q-.008.145-.037.24q-.021.094-.072.138q-.044.043-.124.043t-.254-.101q-.175-.102-.43-.218q-.254-.124-.588-.219q-.335-.101-.734-.101q-.313 0-.546.08q-.232.072-.392.21q-.153.131-.233.32q-.073.19-.073.4q0 .313.168.545q.174.226.458.408q.29.174.654.334q.363.153.741.327q.378.175.742.4q.363.218.647.53q.283.306.458.728q.174.414.174.981m9.138-.683q0 .865-.254 1.548t-.749 1.156q-.494.473-1.221.72q-.727.247-1.672.247q-.887 0-1.592-.218q-.705-.226-1.192-.676q-.488-.451-.75-1.12q-.254-.676-.254-1.577v-5.722q0-.072.044-.13q.044-.059.153-.095q.116-.036.298-.058q.181-.022.465-.022q.276 0 .458.022t.29.058q.11.036.153.094q.051.059.051.131v5.554q0 .56.138.975q.139.407.393.676q.262.269.618.407q.363.13.807.13q.45 0 .807-.138q.356-.138.603-.4q.247-.268.378-.654q.138-.392.138-.887v-5.663q0-.072.044-.13q.044-.059.153-.095q.109-.036.29-.058q.19-.022.466-.022t.45.022q.182.022.291.058q.11.036.153.094q.043.059.043.131zm9.35 2.791q.087.262.108.415q.022.152-.058.232q-.08.073-.283.087q-.204.022-.56.022q-.37 0-.582-.014q-.203-.007-.312-.037q-.11-.036-.153-.094q-.044-.058-.073-.153l-.632-1.89H31.61l-.596 1.84q-.03.101-.08.174q-.044.065-.153.109q-.102.036-.298.05q-.189.015-.502.015q-.334 0-.523-.022q-.189-.021-.262-.101q-.072-.087-.05-.24q.021-.153.108-.407l2.901-8.346q.044-.124.102-.196q.058-.08.182-.117q.13-.043.356-.05q.225-.015.596-.015q.429 0 .683.015q.255.007.393.05q.145.037.203.117q.066.08.11.218zm-4.319-6.899h-.007l-1.33 3.999H34.7zm10.803 6.812q0 .218-.022.37q-.014.146-.05.248q-.037.094-.095.138q-.051.044-.124.044h-4.31q-.24 0-.408-.139q-.16-.145-.16-.465v-8.542q0-.072.044-.13q.05-.059.16-.095q.109-.036.29-.058q.19-.022.466-.022q.283 0 .465.022q.182.022.29.058q.11.036.153.094q.051.059.051.131v7.568h2.96q.072 0 .123.044q.058.036.094.13q.037.088.051.24q.022.146.022.364m10.068-2.021q0 .741-.276 1.301q-.276.56-.749.938q-.472.37-1.105.56q-.632.189-1.352.189q-.487 0-.908-.08q-.415-.08-.735-.19q-.32-.115-.538-.24q-.21-.123-.305-.217q-.095-.095-.138-.27q-.036-.18-.036-.515q0-.226.014-.378q.015-.153.044-.247q.036-.095.087-.131q.058-.044.13-.044q.103 0 .284.124q.19.116.48.261q.29.146.69.27q.408.116.939.116q.348 0 .625-.08q.276-.088.465-.24q.196-.153.298-.378q.102-.226.102-.502q0-.32-.175-.545q-.174-.233-.458-.407q-.276-.182-.632-.335q-.356-.16-.734-.334q-.378-.175-.735-.393q-.356-.225-.64-.53q-.276-.313-.45-.735q-.175-.421-.175-1.01q0-.676.248-1.185q.254-.516.676-.85q.429-.342 1.003-.51q.582-.167 1.229-.167q.334 0 .668.051q.335.051.626.138q.29.088.516.197q.225.109.298.181q.072.073.094.124q.03.05.044.138q.022.08.029.21q.007.125.007.314q0 .21-.014.356q-.008.145-.037.24q-.021.094-.072.138q-.044.043-.124.043t-.254-.101q-.175-.102-.43-.218q-.254-.124-.588-.219q-.335-.101-.734-.101q-.313 0-.546.08q-.232.072-.392.21q-.153.131-.233.32q-.072.19-.072.4q0 .313.167.545q.174.226.458.408q.29.174.654.334q.363.153.741.327q.379.175.742.4q.363.218.647.53q.284.306.458.728q.174.414.174.981m7.575-5.801q0 .21-.021.363q-.015.146-.051.24q-.037.087-.095.131q-.05.044-.116.044h-2.355v7.582q0 .073-.051.13q-.044.059-.153.095q-.109.037-.298.058q-.182.022-.458.022t-.465-.022q-.182-.021-.291-.058q-.11-.036-.16-.094q-.044-.058-.044-.131v-7.582h-2.355q-.073 0-.124-.044q-.05-.044-.087-.13q-.036-.095-.058-.24q-.015-.153-.015-.364q0-.218.015-.371q.022-.153.058-.24q.037-.094.087-.13q.051-.044.124-.044h6.63q.065 0 .116.043q.058.037.095.131q.036.087.05.24q.022.153.022.37zm8.79 5.118q0 .865-.255 1.548q-.254.683-.749 1.156q-.494.473-1.221.72q-.727.247-1.672.247q-.887 0-1.592-.218q-.705-.226-1.192-.676q-.487-.451-.75-1.12q-.254-.676-.254-1.577v-5.722q0-.072.044-.13q.044-.059.153-.095q.116-.036.298-.058q.182-.022.465-.022q.276 0 .458.022t.29.058q.11.036.154.094q.05.059.05.131v5.554q0 .56.139.975q.138.407.392.676q.262.269.618.407q.364.13.807.13q.45 0 .807-.138q.356-.138.603-.4q.247-.268.378-.654q.138-.392.138-.887v-5.663q0-.072.044-.13q.044-.059.153-.095q.109-.036.29-.058q.19-.022.466-.022t.45.022q.182.022.291.058q.11.036.153.094q.044.059.044.131zm9.857-1.338q0 1.294-.341 2.217q-.335.916-.967 1.498q-.633.581-1.541.858q-.902.269-2.152.269h-2.247q-.24 0-.407-.138q-.16-.146-.16-.466v-8.2q0-.32.16-.458q.168-.145.407-.145h2.414q1.258 0 2.13.298q.88.29 1.476.872q.603.574.916 1.425q.312.85.312 1.97m-1.977.065q0-.668-.16-1.243q-.153-.574-.502-.996q-.341-.421-.886-.654q-.538-.24-1.418-.24h-.967v6.398h.996q.785 0 1.323-.204q.538-.204.894-.61q.364-.415.538-1.026q.182-.61.182-1.425m5.467 4.515q0 .073-.051.13q-.044.059-.153.095q-.109.037-.29.058q-.182.022-.466.022q-.276 0-.465-.022q-.182-.021-.29-.058q-.11-.036-.16-.094q-.044-.058-.044-.131v-8.884q0-.072.043-.13q.051-.059.16-.095q.116-.036.298-.058q.182-.022.458-.022q.284 0 .465.022q.182.022.291.058q.11.036.153.094q.05.059.05.131zm10.512-4.55q0 1.17-.291 2.093q-.29.923-.865 1.57q-.574.64-1.425.981q-.843.335-1.956.335q-1.097 0-1.919-.284q-.814-.29-1.36-.88q-.544-.588-.82-1.497q-.27-.909-.27-2.152q0-1.141.291-2.05q.291-.916.865-1.556q.575-.64 1.418-.98q.85-.343 1.97-.343q1.069 0 1.883.284q.821.283 1.367.872q.552.59.828 1.49q.284.895.284 2.116zm-2.007.1q0-.74-.116-1.344q-.116-.61-.4-1.04q-.276-.436-.741-.668q-.466-.24-1.163-.24q-.706 0-1.178.269q-.473.261-.763.705q-.291.443-.415 1.04q-.116.588-.116 1.25q0 .77.116 1.388q.116.61.393 1.047q.276.436.741.669q.465.225 1.17.225q.706 0 1.178-.261q.473-.262.764-.713q.29-.45.407-1.047q.123-.603.123-1.28m12.904 3.934q0 .21-.022.363q-.014.146-.05.24q-.037.095-.095.138q-.058.037-.131.037h-5.409q-.16 0-.276-.03q-.116-.029-.189-.109q-.073-.087-.109-.247q-.029-.16-.029-.414q0-.24.022-.407q.022-.175.08-.306q.058-.138.145-.261q.095-.131.24-.284l1.628-1.745q.488-.508.786-.923q.298-.421.465-.763q.167-.349.225-.64q.066-.29.066-.552q0-.24-.08-.451q-.073-.218-.226-.378q-.145-.16-.37-.247q-.226-.095-.531-.095q-.43 0-.764.11q-.327.108-.581.246q-.247.131-.414.248q-.168.109-.262.109q-.066 0-.116-.044q-.044-.044-.073-.145q-.03-.102-.051-.27q-.015-.174-.015-.42q0-.168.008-.277q.014-.117.036-.196q.022-.088.058-.146q.037-.065.124-.153q.094-.087.334-.218q.247-.138.604-.261q.356-.131.785-.218q.429-.088.894-.088q.734 0 1.28.19q.552.181.915.516q.364.327.538.785q.182.45.182.974q0 .458-.087.901q-.087.444-.364.96q-.276.509-.777 1.134q-.502.618-1.33 1.44l-1.099 1.126h3.708q.073 0 .13.044q.066.043.11.138q.043.087.065.24q.022.145.022.349m7.735-3.962q0 1.127-.182 2.035q-.181.909-.596 1.549q-.407.64-1.068.981q-.655.342-1.607.342q-.967 0-1.6-.327q-.632-.335-1.003-.953q-.37-.625-.523-1.519q-.145-.901-.145-2.036q0-1.12.181-2.028q.19-.916.596-1.556q.415-.64 1.07-.98q.66-.343 1.606-.343q.967 0 1.599.335q.64.327 1.01.952q.371.618.517 1.52q.145.894.145 2.028m-1.926.094q0-.669-.037-1.177q-.036-.517-.116-.895q-.073-.378-.189-.64q-.11-.261-.269-.414q-.16-.16-.363-.225q-.204-.065-.451-.065q-.43 0-.713.21q-.276.204-.443.618q-.16.415-.225 1.033q-.066.617-.066 1.439q0 1.003.08 1.665q.08.654.247 1.047q.175.385.444.545q.269.152.647.152q.283 0 .501-.087q.218-.094.378-.276q.168-.182.277-.458q.109-.276.174-.64q.073-.363.095-.821q.029-.458.029-1.01zm9.283 3.868q0 .21-.022.363q-.014.146-.05.24q-.037.095-.095.138q-.058.037-.131.037h-5.409q-.16 0-.276-.03q-.116-.029-.189-.109q-.073-.087-.109-.247q-.03-.16-.03-.414q0-.24.023-.407q.022-.175.08-.306q.058-.138.145-.261q.095-.131.24-.284l1.628-1.745q.487-.508.786-.923q.298-.421.465-.763q.167-.349.225-.64q.066-.29.066-.552q0-.24-.08-.451q-.073-.218-.226-.378q-.145-.16-.37-.247q-.226-.095-.531-.095q-.43 0-.764.11q-.327.108-.581.246q-.247.131-.415.248q-.167.109-.261.109q-.066 0-.117-.044q-.043-.044-.072-.145q-.03-.102-.051-.27q-.015-.174-.015-.42q0-.168.007-.277q.015-.117.037-.196q.021-.088.058-.146q.036-.065.123-.153q.095-.087.335-.218q.247-.138.603-.261q.356-.131.785-.218q.43-.088.894-.088q.735 0 1.28.19q.552.181.916.516q.363.327.538.785q.182.45.182.974q0 .458-.088.901q-.087.444-.363.96q-.276.509-.778 1.134q-.502.618-1.33 1.44l-1.098 1.126h3.708q.072 0 .13.044q.066.043.11.138q.043.087.065.24q.022.145.022.349m7.546 0q0 .21-.022.363q-.014.146-.05.24q-.037.095-.095.138q-.058.037-.131.037h-5.409q-.16 0-.276-.03q-.116-.029-.189-.109q-.073-.087-.109-.247q-.03-.16-.03-.414q0-.24.023-.407q.021-.175.08-.306q.058-.138.145-.261q.095-.131.24-.284l1.628-1.745q.487-.508.785-.923q.299-.421.466-.763q.167-.349.225-.64q.066-.29.066-.552q0-.24-.08-.451q-.073-.218-.226-.378q-.145-.16-.37-.247q-.226-.095-.531-.095q-.43 0-.764.11q-.327.108-.581.246q-.247.131-.415.248q-.167.109-.261.109q-.066 0-.117-.044q-.043-.044-.072-.145q-.03-.102-.051-.27q-.015-.174-.015-.42q0-.168.007-.277q.015-.117.037-.196q.021-.088.058-.146q.036-.065.123-.153q.095-.087.335-.218q.247-.138.603-.261q.356-.131.785-.218q.43-.088.895-.088q.734 0 1.279.19q.552.181.916.516q.363.327.538.785q.182.45.182.974q0 .458-.088.901q-.087.444-.363.96q-.276.509-.778 1.134q-.501.618-1.33 1.44l-1.098 1.126h3.708q.072 0 .13.044q.066.043.11.138q.043.087.065.24q.022.145.022.349"/><path fill="url(#deviconVisualstudioWordmark4)" d="M72.03 65.09v22.996l4.644 4.728a3.026 2.786 0 0 0 5.158-1.968V72.492zm30.36 17.62a5.158 4.75 0 0 1-.015.067a5.158 4.75 0 0 0 .016-.066z"/><path fill="url(#deviconVisualstudioWordmark5)" d="M81.025 18.645v.001a5.158 4.75 0 0 0-4.351 1.336l-4.645 4.729v22.998l25.114-18.963a3.258 3 0 0 1 5.32 2.32v-.181a5.158 4.75 0 0 0-2.924-4.285l-17.002-7.538a5.158 4.75 0 0 0-1.512-.417"/><use href="#deviconVisualstudioWordmark9"/><path fill="url(#deviconVisualstudioWordmark6)" d="M81.025 18.645v.001a5.158 4.75 0 0 0-4.351 1.336L49.26 47.896L60.52 56.4l36.623-27.654a3.258 3 0 0 1 5.32 2.32v-.181a5.158 4.75 0 0 0-2.924-4.285l-17.002-7.538a5.158 4.75 0 0 0-1.512-.417"/><path fill="url(#deviconVisualstudioWordmark7)" d="M40.908 56.4L23.377 74.252a1.986 1.829 0 0 1-3.44-1.227v.26a3.438 3.166 0 0 0 2.116 2.904l6.25 2.416a3.438 3.166 0 0 0 3.558-.513l1.4-1.11l15.999-12.08z"/></svg>