<svg xmlns="http://www.w3.org/2000/svg" width="1em" height="1em" viewBox="0 0 24 24"><path fill="currentColor" d="M9 12c0-.81.3-1.5.89-2.11C10.5 9.3 11.19 9 12 9c.81 0 1.5.3 2.11.89c.59.61.89 1.3.89 2.11c0 .81-.3 1.5-.89 2.11c-.61.59-1.3.89-2.11.89c-.81 0-1.5-.3-2.11-.89C9.3 13.5 9 12.81 9 12M5.53 8.44l1.78 1.78L5.53 12l1.78 1.78l-1.78 1.78L2 12zm2.91 10.03l1.78-1.78L12 18.47l1.78-1.78l1.78 1.78L12 22zm10.03-2.91l-1.78-1.78L18.47 12l-1.78-1.78l1.78-1.78L22 12zM15.56 5.53l-1.78 1.78L12 5.53l-1.78 1.78l-1.78-1.78L12 2z"/></svg>