<svg xmlns="http://www.w3.org/2000/svg" width="1em" height="1em" viewBox="0 0 24 24"><path fill="currentColor" d="M19.07 14.93L22 12l-2.93-2.93V4.93h-4.14L12 2L9.07 4.93H4.93v4.14L2 12l2.93 2.93v4.14h4.14L12 22l2.93-2.93h4.14zM21.41 12l-2.34 2.34v-1.88h-5.38l-.46-.46l.46-.46h5.38V9.66zm-2.75 2.76l-1.34 1.33l-3.21-3.22h4.55zm-6.2-1.66l-.46-.45l-.46.45v-.64h-.64l.46-.46l-.46-.46h.64v-.64l.46.46l.46-.46v.64h.64l-.45.46l.45.46h-.64zm1.65-1.97l3.21-3.22l1.34 1.33v1.89zm4.55-5.78v3.3l-1.34-1.33l-3.82 3.81h-.63v-.63l3.81-3.82l-1.33-1.33zm-5.79 4.54V5.35h1.89l1.33 1.33zM12 2.59l2.34 2.34h-1.88v5.38l-.46.46l-.46-.46V4.93H9.66zm-.87 7.3L7.91 6.68l1.33-1.33h1.89zM5.35 5.35h3.3L7.32 6.68l3.81 3.82v.63h-.63L6.68 7.32L5.35 8.65zm0 3.89l1.33-1.33l3.21 3.22H5.35zM2.59 12l2.34-2.34v1.88h5.38l.46.46l-.46.46H4.93v1.88zm7.3.87l-3.21 3.22l-1.33-1.33v-1.89zm-4.54 5.79v-3.31l1.33 1.33l3.82-3.81h.63v.63l-3.81 3.82l1.33 1.33h-3.3m5.78-4.54v4.55H9.24l-1.33-1.34zm.87 7.3l-2.34-2.34h1.88v-5.38l.46-.46l.46.46v5.38h1.88zm.87-7.3l3.22 3.21l-1.33 1.34h-1.89zm2.48 4.55l1.33-1.34l-3.81-3.82v-.63h.63l3.82 3.81l1.33-1.33v3.31z"/></svg>