<svg xmlns="http://www.w3.org/2000/svg" width="1em" height="1em" viewBox="0 0 32 32"><g fill="none" stroke="currentColor"><circle cx="22" cy="23" r=".5" fill="currentColor"/><path stroke-linecap="round" stroke-linejoin="round" stroke-width="2" d="M24 19v-2.917c0-1.15-.895-2.083-2-2.083s-2 .933-2 2.083V19m-7 8H8a3 3 0 0 1-3-3V8a3 3 0 0 1 3-3h16a3 3 0 0 1 3 3v4M17 25v-4a2 2 0 0 1 2-2h6a2 2 0 0 1 2 2v4a2 2 0 0 1-2 2h-6a2 2 0 0 1-2-2"/><path fill="currentColor" d="M9.5 9a.5.5 0 1 1-1 0a.5.5 0 0 1 1 0Zm4 0a.5.5 0 1 1-1 0a.5.5 0 0 1 1 0Zm4 0a.5.5 0 1 1-1 0a.5.5 0 0 1 1 0Z"/></g></svg>