<svg xmlns="http://www.w3.org/2000/svg" width="1em" height="1em" viewBox="0 0 24 24"><path fill="currentColor" d="M7.5 2.5a1.5 1.5 0 1 0 0 3a1.5 1.5 0 0 0 0-3m0 2a.5.5 0 1 1 0-1a.5.5 0 0 1 0 1m0 6a1.5 1.5 0 1 0 0 3a1.5 1.5 0 0 0 0-3m0 2a.5.5 0 1 1 0-1a.5.5 0 0 1 0 1m-4-10A.5.5 0 0 0 3 3v18a.5.5 0 1 0 1 0V3a.5.5 0 0 0-.5-.5m16 3a1.5 1.5 0 1 0 0-3a1.5 1.5 0 0 0 0 3m0-2a.501.501 0 1 1-.002 1.002A.501.501 0 0 1 19.5 3.5m-8 15a1.5 1.5 0 1 0 0 3a1.5 1.5 0 0 0 0-3m0 2a.5.5 0 1 1 0-1a.5.5 0 0 1 0 1m-4-2a1.5 1.5 0 1 0 0 3a1.5 1.5 0 0 0 0-3m0 2a.5.5 0 1 1 0-1a.5.5 0 0 1 0 1m8-2a1.5 1.5 0 1 0 0 3a1.5 1.5 0 0 0 0-3m0 2a.5.5 0 1 1 0-1a.5.5 0 0 1 0 1m4-6a1.5 1.5 0 1 0 0 3a1.5 1.5 0 0 0 0-3m0 2a.5.5 0 1 1 0-1a.5.5 0 0 1 0 1m0 2a1.5 1.5 0 1 0 0 3a1.5 1.5 0 0 0 0-3m0 2a.5.5 0 1 1 0-1a.5.5 0 0 1 0 1m-4-18a1.5 1.5 0 1 0 0 3a1.5 1.5 0 0 0 0-3m0 2a.5.5 0 1 1 0-1a.5.5 0 0 1 0 1m4 2a1.5 1.5 0 1 0 0 3a1.5 1.5 0 0 0 0-3m0 2a.5.5 0 1 1 0-1a.5.5 0 0 1 0 1m-8 6a1.5 1.5 0 1 0 0 3a1.5 1.5 0 0 0 0-3m0 2a.5.5 0 1 1 0-1a.5.5 0 0 1 0 1m8-6a1.5 1.5 0 1 0 0 3a1.5 1.5 0 0 0 0-3m0 2a.5.5 0 1 1 0-1a.5.5 0 0 1 0 1m-8-2a1.5 1.5 0 1 0 0 3a1.5 1.5 0 0 0 0-3m0 2a.5.5 0 1 1 0-1a.5.5 0 0 1 0 1m0-6a1.5 1.5 0 1 0 0 3a1.5 1.5 0 0 0 0-3m0 2a.5.5 0 1 1 0-1a.5.5 0 0 1 0 1m4 2a1.5 1.5 0 1 0 0 3a1.5 1.5 0 0 0 0-3m0 2a.5.5 0 1 1 0-1a.5.5 0 0 1 0 1m-4-10a1.5 1.5 0 1 0 0 3a1.5 1.5 0 0 0 0-3m0 2a.5.5 0 1 1 0-1a.5.5 0 0 1 0 1"/></svg>