<svg xmlns="http://www.w3.org/2000/svg" width="1em" height="1em" viewBox="0 0 24 24"><path fill="currentColor" d="M21.919 10.127a1 1 0 0 0-.845-1.136l-5.651-.826l-2.526-5.147a1.037 1.037 0 0 0-1.795.001L8.577 8.165l-5.651.826a1 1 0 0 0-.556 1.704l4.093 4.013l-.966 5.664a1.002 1.002 0 0 0 1.453 1.052l5.05-2.67l5.049 2.669a1 1 0 0 0 1.454-1.05l-.966-5.665l4.094-4.014a1 1 0 0 0 .288-.567M11.5 17.887L6.483 20.54l1.01-5.922a.502.502 0 0 0-.143-.441L3.07 9.98l5.912-.864a.503.503 0 0 0 .377-.275L11.5 4.479zm5.15-3.71a.502.502 0 0 0-.143.441l1.01 5.921l-5.017-2.652V4.479l2.14 4.363a.503.503 0 0 0 .378.275l5.913.863z"/></svg>