<svg xmlns="http://www.w3.org/2000/svg" width="1em" height="1em" viewBox="0 0 24 24"><path fill="currentColor" d="M21.95 9h-.27l-4.16 6.02l-.82-.57L20.47 9h-2.34a1.25 1.25 0 1 0-2.5 0h-.43l-1.25 4l-.95-.3L14.15 9h-.9a1.25 1.25 0 0 0-2.5 0h-.9L11 12.7l-.95.3L8.8 9h-.42a1.25 1.25 0 0 0-2.5 0H3.51l3.77 5.45l-.82.57L2.3 9h-.25a10 10 0 0 1 19.9 0"/><path fill="currentColor" d="M11 15.405L9.586 14l-3.618 3.595L4.554 19l5.032 5L11 22.595L7.382 19zm2.021 7.19L14.435 24l3.618-3.595L19.467 19l-5.032-5l-1.414 1.405L16.639 19z"/></svg>