<svg xmlns="http://www.w3.org/2000/svg" width="1em" height="1em" viewBox="0 0 24 24"><circle cx="4" cy="4" r="3" fill="currentColor"/><path fill="currentColor" d="M4 15a3 3 0 1 1 3-3a3 3 0 0 1-3 3m0-5a2 2 0 1 0 2 2a2 2 0 0 0-2-2m8 13a3 3 0 1 1 3-3a3 3 0 0 1-3 3m0-5a2 2 0 1 0 2 2a2 2 0 0 0-2-2m8-11a3 3 0 1 1 3-3a3 3 0 0 1-3 3m0-5a2 2 0 1 0 2 2a2 2 0 0 0-2-2"/><circle cx="4" cy="20" r="3" fill="currentColor"/><circle cx="12" cy="4" r="3" fill="currentColor"/><circle cx="12" cy="12" r="3" fill="currentColor"/><circle cx="20" cy="12" r="3" fill="currentColor"/><circle cx="20" cy="20" r="3" fill="currentColor"/></svg>