<svg xmlns="http://www.w3.org/2000/svg" width="1em" height="1em" viewBox="0 0 24 24"><path fill="currentColor" d="M22.465 12.45L19.52 9.506l.855-.855a1.954 1.954 0 0 0 0-2.764l-1.48-1.479a1.954 1.954 0 0 0-2.763 0l-.855.855l-2.943-2.944a1.676 1.676 0 0 0-2.367 0L6.2 6.086a1.676 1.676 0 0 0 0 2.367l2.944 2.943l-.148.148a1.954 1.954 0 0 0 0 2.764l.74.739a6 6 0 0 0-8.485 0l3.511 3.512a.986.986 0 0 0-.75.95a1 1 0 0 0 1 1a.986.986 0 0 0 .95-.75l3.774 3.774a6 6 0 0 0 0-8.485l.74.739a1.954 1.954 0 0 0 2.763 0l.148-.148l2.944 2.944a1.676 1.676 0 0 0 2.366 0l3.767-3.767a1.676 1.676 0 0 0 0-2.366M9.359 20.327l-4.901-4.902a4.006 4.006 0 0 1 4.901 4.902M7.385 7.269l3.766-3.766l2.944 2.944l-3.766 3.766Zm4.447 7.045L10.418 12.9l.115-.115l1.184-1.184l3.766-3.766l1.184-1.184l.822-.822l1.414 1.414l-.822.823l-1.184 1.183l-3.766 3.766l-1.183 1.184Zm5.684 3.086l-2.945-2.944l3.767-3.767l2.943 2.944Z"/></svg>