<svg xmlns="http://www.w3.org/2000/svg" width="1em" height="1em" viewBox="0 0 64 64"><path fill="#3e4347" d="m62 27.9l-5.8-5.8l-6.5 6.5c-.3.3-.8.3-1 0L35.4 15.3c-.3-.3-.3-.8 0-1l6.5-6.5L36.1 2L2 36.1l5.8 5.8l6.3-6.3c.3-.3.8-.3 1 0l13.2 13.2c.3.3.3.8 0 1L22 56.1l5.8 5.8zm-7.7 0c-.3-.3-.3-.7 0-.9l2-2c.3-.3.7-.3.9 0l2 2c.3.3.3.7 0 .9l-2 2c-.3.3-.7.3-.9 0zM34.1 7.7c-.3-.3-.3-.7 0-.9l2-2c.3-.3.7-.3.9 0l2 2c.3.3.3.7 0 .9l-2 2c-.3.3-.7.3-.9 0zM9.6 36.1c.3.3.3.7 0 .9l-2 2c-.3.3-.7.3-.9 0l-2-2c-.3-.3-.3-.7 0-.9l2-2c.3-.3.7-.3.9 0zm32 8.4c.3.3.3.7 0 .9l-2 2c-.3.3-.7.3-.9 0l-2-2c-.3-.3-.3-.7 0-.9l2-2c.3-.3.7-.3.9 0zm5.8-5.9c.3.3.3.7 0 .9l-2 2c-.3.3-.7.3-.9 0l-2-2c-.3-.3-.3-.7 0-.9l2-2c.3-.3.7-.3.9 0zM28.2 13.5c-.3-.3-.3-.7 0-.9l2-2c.3-.3.7-.3.9 0l2 2c.3.3.3.7 0 .9l-2 2c-.3.3-.7.3-.9 0zm20.2 20.2c-.3-.3-.3-.7 0-.9l2-2c.3-.3.7-.3.9 0l2 2c.3.3.3.7 0 .9l-2 2c-.3.3-.7.3-.9 0zm-26-14.3c-.3-.3-.3-.7 0-.9l2-2c.3-.3.7-.3.9 0l2 2c.3.3.3.7 0 .9l-2 2c-.3.3-.7.3-.9 0zm-5.9 5.9c-.3-.3-.3-.7 0-.9l2-2c.3-.3.7-.3.9 0l2 2c.3.3.3.7 0 .9l-2 2c-.3.3-.7.3-.9 0zm1.8 7.2c-.3-.3-.3-.8 0-1l13.2-13.2c.3-.3.8-.3 1 0l13.2 13.2c.3.3.3.8 0 1L32.5 45.7c-.3.3-.8.3-1 0zm-7.7-1.4c-.3-.3-.3-.7 0-.9l2-2c.3-.3.7-.3.9 0l2 2c.3.3.3.7 0 .9l-2 2c-.3.3-.7.3-.9 0zm20.2 20.2c-.3-.3-.3-.7 0-.9l2-2c.3-.3.7-.3.9 0l2 2c.3.3.3.7 0 .9l-2 2c-.3.3-.7.3-.9 0zm-5.9 5.9c-.3-.3-.3-.7 0-.9l2-2c.3-.3.7-.3.9 0l2 2c.3.3.3.7 0 .9l-2 2c-.3.3-.7.3-.9 0z"/></svg>