<svg xmlns="http://www.w3.org/2000/svg" width="1em" height="1em" viewBox="0 0 24 24"><path fill="currentColor" d="M11 18.34a.53.53 0 0 0-.415-.508a5.994 5.994 0 0 1-2.928-1.692a.53.53 0 0 0-.646-.105L5.238 17.06a.477.477 0 0 0-.139.719a8.998 8.998 0 0 0 5.8 3.155a.09.09 0 0 0 .101-.09zM18 12c0-.588-.084-1.155-.242-1.692a.53.53 0 0 1 .233-.612l1.77-1.023c.26-.149.59-.04.693.24a8.996 8.996 0 0 1-.151 6.56a.128.128 0 0 1-.182.06l-2.13-1.229a.53.53 0 0 1-.233-.612A6.002 6.002 0 0 0 18 12M6.01 9.696a.53.53 0 0 1 .232.612A6.001 6.001 0 0 0 6 12c0 .588.084 1.155.242 1.692a.531.531 0 0 1-.233.612l-1.77 1.023a.477.477 0 0 1-.693-.24a9 9 0 0 1 0-6.174a.477.477 0 0 1 .692-.24zm10.98 6.339a.53.53 0 0 0-.647.105a5.994 5.994 0 0 1-2.928 1.692a.53.53 0 0 0-.415.508v2.045c0 .298.26.531.553.48a8.999 8.999 0 0 0 5.348-3.087a.477.477 0 0 0-.14-.72zm-.647-8.175a.53.53 0 0 0 .646.105l1.773-1.024a.477.477 0 0 0 .139-.719a9.003 9.003 0 0 0-5.348-3.087a.477.477 0 0 0-.553.48V5.66c0 .244.177.45.415.508a5.994 5.994 0 0 1 2.928 1.692"/><path fill="currentColor" fill-rule="evenodd" d="M10.982 4.806a.5.5 0 0 1-.385.593a6.75 6.75 0 0 0-3.613 2.086a.5.5 0 1 1-.743-.67a7.75 7.75 0 0 1 4.148-2.394a.5.5 0 0 1 .593.385" clip-rule="evenodd"/></svg>