<svg xmlns="http://www.w3.org/2000/svg" width="1em" height="1em" viewBox="0 0 24 24"><path fill="currentColor" d="M14.278 4.977a.946.946 0 0 0-.832-.477h-2.858a.96.96 0 0 0-.861.518c-.13.253-.296.589-.48.982h5.569a21.574 21.574 0 0 0-.538-1.023"/><path fill="currentColor" fill-rule="evenodd" d="M7.5 12c0-1.542.66-3.48 1.302-5h6.475c.616 1.43 1.223 3.275 1.223 5v7a2 2 0 0 1-2 2h-5a2 2 0 0 1-2-2zM9 12a.5.5 0 0 0-.5.5v6a.5.5 0 0 0 1 0v-6A.5.5 0 0 0 9 12" clip-rule="evenodd"/><rect width="7" height="3" x="8.5" y="3" fill="currentColor" rx="1"/></svg>