<svg xmlns="http://www.w3.org/2000/svg" width="1em" height="1em" viewBox="0 0 24 24"><g fill="none" stroke="currentColor"><path d="M6.413 18.406a1.197 1.197 0 0 1 0-1.812A8.467 8.467 0 0 1 12 14.5c2.139 0 4.093.79 5.587 2.094a1.197 1.197 0 0 1 0 1.812A8.467 8.467 0 0 1 12 20.5a8.468 8.468 0 0 1-5.587-2.094ZM8.521 8.5c.194 2.25 1.677 4 3.479 4s3.285-1.75 3.479-4z"/><path d="M16 8c0 .169-.008.336-.024.5H8.024A5.113 5.113 0 0 1 8 8c0-2.485 1.79-4.5 4-4.5s4 2.015 4 4.5Zm-4-1a1 1 0 1 0 0-2a1 1 0 0 0 0 2Z" clip-rule="evenodd"/><path stroke-linecap="round" stroke-linejoin="round" d="M7 8.5h10"/></g></svg>