<svg xmlns="http://www.w3.org/2000/svg" width="1em" height="1em" viewBox="0 0 24 24"><path fill="currentColor" fill-rule="evenodd" d="M13.96 5.54a6.75 6.75 0 0 0-1.961-.29c-2.207 0-3.652.809-4.806 2.106c-.967 1.087-1.338 2.438-1.338 3.449c0 2.902 2.813 5.013 5.953 4.945h.022c.602 0 1.183-.2 1.599-.502c.424-.309.593-.651.593-.92c0-.541-.208-.842-.557-1.084c-.407-.283-.987-.468-1.71-.672a95.31 95.31 0 0 0-.172-.048c-.626-.175-1.36-.38-1.937-.72a2.616 2.616 0 0 1-.885-.812a2.294 2.294 0 0 1-.364-1.28c0-1.775 1.64-2.962 3.433-2.962c1.766 0 3.186 1.04 3.466 2.268a.75.75 0 0 1-1.463.333c-.083-.367-.736-1.101-2.003-1.101c-1.24 0-1.933.767-1.933 1.461a.8.8 0 0 0 .12.46c.072.11.193.225.389.34c.4.236.948.39 1.637.584l.12.034c.684.193 1.51.433 2.158.883c.706.49 1.201 1.23 1.201 2.315c0 .906-.544 1.65-1.212 2.134a4.282 4.282 0 0 1-2.478.789c-3.676.075-7.477-2.43-7.477-6.445c0-1.331.476-3.05 1.717-4.446C7.49 4.766 9.332 3.75 12 3.75m0 0a8.25 8.25 0 1 1-2.134 16.219a.75.75 0 0 1 .388-1.449A6.75 6.75 0 0 0 13.96 5.54" clip-rule="evenodd"/></svg>