<svg xmlns="http://www.w3.org/2000/svg" width="1em" height="1em" viewBox="0 0 1200 1200"><path fill="currentColor" d="M600 0c-65.168 0-115.356 54.372-115.356 119.385c0 62.619-.439 117.407-.439 117.407h-115.87c-2.181 0-4.291.241-6.372.586h-32.227v112.573h540.527V237.378h-32.227c-2.081-.345-4.191-.586-6.372-.586H715.796s1.318-49.596 1.318-117.041C717.114 57.131 665.168 0 600 0M175.195 114.185V1200h849.609V114.185H755.64v78.662h191.382v928.345h-693.97V192.847H444.36v-78.662zM600 115.649c21.35 0 38.599 17.18 38.599 38.452c0 21.311-17.249 38.525-38.599 38.525s-38.599-17.215-38.599-38.525c0-21.271 17.249-38.452 38.599-38.452M329.736 426.27v38.525h38.599V426.27zm115.869.732v38.525h424.658v-38.525zm-115.869 144.58v38.525h38.599v-38.525zm115.869.732v38.599h424.658v-38.599zM329.736 716.895v38.525h38.599v-38.525zm115.869.805v38.525h424.658V717.7zM329.736 862.28v38.525h38.599V862.28zm115.869.806v38.525h424.658v-38.525zm-115.869 144.507v38.525h38.599v-38.525zm115.869.805v38.525h424.658v-38.525z"/></svg>