<svg xmlns="http://www.w3.org/2000/svg" width="1em" height="1em" viewBox="0 0 1200 1200"><path fill="currentColor" d="M0 0v545.312h545.312V0zm654.688 0v545.312H1200V0zM108.594 108.594h328.125v328.125H108.594zm654.687 0h328.125v328.125H763.281zM217.969 219.531v108.594h110.156V219.531zm653.906 0v108.594h108.594V219.531zM0 654.688V1200h545.312V654.688zm654.688 0V1200h108.595V873.438h108.594v108.595H1200V654.688h-108.594v108.595H980.469V654.688zM108.594 763.281h328.125v328.125H108.594zm109.375 108.594v110.156h110.156V871.875zm653.906 219.531V1200h108.594v-108.594zm219.531 0V1200H1200v-108.594z"/></svg>